{
    "mood": "angry",
    "instruments": {
        "French Horn": [
            {
                "start_time": 0.0295455,
                "end_time": 2.8818182,
                "pitch": 68,
                "velocity": 13,
                "duration": 2.8522727,
                "tempo": 120.0
            },
            {
                "start_time": 2.8818182,
                "end_time": 4.7727273,
                "pitch": 68,
                "velocity": 13,
                "duration": 1.8909091,
                "tempo": 120.0
            },
            {
                "start_time": 4.7727273,
                "end_time": 5.0,
                "pitch": 69,
                "velocity": 13,
                "duration": 0.2272727,
                "tempo": 120.0
            },
            {
                "start_time": 5.0863636,
                "end_time": 5.3931818,
                "pitch": 69,
                "velocity": 13,
                "duration": 0.3068182,
                "tempo": 120.0
            },
            {
                "start_time": 5.3931818,
                "end_time": 7.2454545,
                "pitch": 64,
                "velocity": 13,
                "duration": 1.8522727,
                "tempo": 120.0
            },
            {
                "start_time": 7.2454545,
                "end_time": 7.8704545,
                "pitch": 64,
                "velocity": 8,
                "duration": 0.625,
                "tempo": 120.0
            },
            {
                "start_time": 7.8704545,
                "end_time": 10.2272727,
                "pitch": 69,
                "velocity": 8,
                "duration": 2.3568182,
                "tempo": 120.0
            },
            {
                "start_time": 10.3636364,
                "end_time": 12.2590909,
                "pitch": 74,
                "velocity": 13,
                "duration": 1.8954545,
                "tempo": 120.0
            },
            {
                "start_time": 12.2590909,
                "end_time": 12.5045455,
                "pitch": 74,
                "velocity": 13,
                "duration": 0.2454545,
                "tempo": 120.0
            },
            {
                "start_time": 12.5772727,
                "end_time": 12.8477273,
                "pitch": 72,
                "velocity": 13,
                "duration": 0.2704545,
                "tempo": 120.0
            },
            {
                "start_time": 12.8840909,
                "end_time": 14.7727273,
                "pitch": 69,
                "velocity": 13,
                "duration": 1.8886364,
                "tempo": 120.0
            },
            {
                "start_time": 14.7727273,
                "end_time": 15.0522727,
                "pitch": 71,
                "velocity": 8,
                "duration": 0.2795455,
                "tempo": 120.0
            },
            {
                "start_time": 15.0886364,
                "end_time": 15.3590909,
                "pitch": 69,
                "velocity": 8,
                "duration": 0.2704545,
                "tempo": 120.0
            },
            {
                "start_time": 15.3954545,
                "end_time": 16.6159091,
                "pitch": 69,
                "velocity": 13,
                "duration": 1.2204545,
                "tempo": 120.0
            },
            {
                "start_time": 16.6159091,
                "end_time": 16.8409091,
                "pitch": 68,
                "velocity": 13,
                "duration": 0.225,
                "tempo": 120.0
            },
            {
                "start_time": 16.8954545,
                "end_time": 16.9954545,
                "pitch": 68,
                "velocity": 13,
                "duration": 0.1,
                "tempo": 120.0
            },
            {
                "start_time": 17.0272727,
                "end_time": 17.1704545,
                "pitch": 69,
                "velocity": 13,
                "duration": 0.1431818,
                "tempo": 120.0
            },
            {
                "start_time": 17.1704545,
                "end_time": 17.3909091,
                "pitch": 64,
                "velocity": 13,
                "duration": 0.2204545,
                "tempo": 120.0
            },
            {
                "start_time": 17.4590909,
                "end_time": 17.6909091,
                "pitch": 68,
                "velocity": 13,
                "duration": 0.2318182,
                "tempo": 120.0
            },
            {
                "start_time": 17.7477273,
                "end_time": 20.2636364,
                "pitch": 68,
                "velocity": 13,
                "duration": 2.5159091,
                "tempo": 120.0
            },
            {
                "start_time": 33.4522727,
                "end_time": 35.8022727,
                "pitch": 69,
                "velocity": 13,
                "duration": 2.35,
                "tempo": 120.0
            },
            {
                "start_time": 35.8022727,
                "end_time": 36.1318182,
                "pitch": 71,
                "velocity": 8,
                "duration": 0.3295455,
                "tempo": 120.0
            },
            {
                "start_time": 36.1931818,
                "end_time": 36.5227273,
                "pitch": 69,
                "velocity": 8,
                "duration": 0.3295455,
                "tempo": 120.0
            },
            {
                "start_time": 36.5840909,
                "end_time": 38.1840909,
                "pitch": 69,
                "velocity": 13,
                "duration": 1.6,
                "tempo": 120.0
            },
            {
                "start_time": 38.1840909,
                "end_time": 38.5159091,
                "pitch": 68,
                "velocity": 13,
                "duration": 0.3318182,
                "tempo": 120.0
            },
            {
                "start_time": 38.5795455,
                "end_time": 38.7090909,
                "pitch": 68,
                "velocity": 13,
                "duration": 0.1295455,
                "tempo": 120.0
            },
            {
                "start_time": 38.7931818,
                "end_time": 38.9977273,
                "pitch": 69,
                "velocity": 13,
                "duration": 0.2045455,
                "tempo": 120.0
            },
            {
                "start_time": 38.9977273,
                "end_time": 39.3045455,
                "pitch": 64,
                "velocity": 13,
                "duration": 0.3068182,
                "tempo": 120.0
            },
            {
                "start_time": 39.425,
                "end_time": 39.7818182,
                "pitch": 68,
                "velocity": 13,
                "duration": 0.3568182,
                "tempo": 120.0
            },
            {
                "start_time": 39.85,
                "end_time": 43.9272727,
                "pitch": 68,
                "velocity": 13,
                "duration": 4.0772727,
                "tempo": 120.0
            },
            {
                "start_time": 46.9204545,
                "end_time": 50.2409091,
                "pitch": 69,
                "velocity": 5,
                "duration": 3.3204545,
                "tempo": 120.0
            },
            {
                "start_time": 50.2409091,
                "end_time": 52.6522727,
                "pitch": 68,
                "velocity": 13,
                "duration": 2.4113636,
                "tempo": 120.0
            },
            {
                "start_time": 52.6522727,
                "end_time": 52.9522727,
                "pitch": 69,
                "velocity": 13,
                "duration": 0.3,
                "tempo": 120.0
            },
            {
                "start_time": 53.0522727,
                "end_time": 53.4522727,
                "pitch": 69,
                "velocity": 13,
                "duration": 0.4,
                "tempo": 120.0
            },
            {
                "start_time": 53.4522727,
                "end_time": 55.8727273,
                "pitch": 64,
                "velocity": 13,
                "duration": 2.4204545,
                "tempo": 120.0
            },
            {
                "start_time": 55.8727273,
                "end_time": 56.6840909,
                "pitch": 64,
                "velocity": 8,
                "duration": 0.8113636,
                "tempo": 120.0
            },
            {
                "start_time": 56.6840909,
                "end_time": 59.4954545,
                "pitch": 69,
                "velocity": 8,
                "duration": 2.8113636,
                "tempo": 120.0
            },
            {
                "start_time": 59.8954545,
                "end_time": 62.2954545,
                "pitch": 74,
                "velocity": 13,
                "duration": 2.4,
                "tempo": 120.0
            },
            {
                "start_time": 62.2954545,
                "end_time": 62.5977273,
                "pitch": 74,
                "velocity": 13,
                "duration": 0.3022727,
                "tempo": 120.0
            },
            {
                "start_time": 62.7,
                "end_time": 63.025,
                "pitch": 72,
                "velocity": 13,
                "duration": 0.325,
                "tempo": 120.0
            },
            {
                "start_time": 63.1045455,
                "end_time": 65.5159091,
                "pitch": 69,
                "velocity": 13,
                "duration": 2.4113636,
                "tempo": 120.0
            },
            {
                "start_time": 65.5159091,
                "end_time": 65.8409091,
                "pitch": 71,
                "velocity": 8,
                "duration": 0.325,
                "tempo": 120.0
            },
            {
                "start_time": 65.9204545,
                "end_time": 66.2454545,
                "pitch": 69,
                "velocity": 8,
                "duration": 0.325,
                "tempo": 120.0
            },
            {
                "start_time": 66.3272727,
                "end_time": 67.9386364,
                "pitch": 69,
                "velocity": 13,
                "duration": 1.6113636,
                "tempo": 120.0
            },
            {
                "start_time": 67.9386364,
                "end_time": 68.2568182,
                "pitch": 68,
                "velocity": 13,
                "duration": 0.3181818,
                "tempo": 120.0
            },
            {
                "start_time": 68.3386364,
                "end_time": 68.4568182,
                "pitch": 68,
                "velocity": 13,
                "duration": 0.1181818,
                "tempo": 120.0
            },
            {
                "start_time": 68.5386364,
                "end_time": 68.7386364,
                "pitch": 69,
                "velocity": 13,
                "duration": 0.2,
                "tempo": 120.0
            },
            {
                "start_time": 68.7386364,
                "end_time": 69.0386364,
                "pitch": 64,
                "velocity": 13,
                "duration": 0.3,
                "tempo": 120.0
            },
            {
                "start_time": 69.1386364,
                "end_time": 69.4568182,
                "pitch": 68,
                "velocity": 13,
                "duration": 0.3181818,
                "tempo": 120.0
            },
            {
                "start_time": 69.5386364,
                "end_time": 72.7704545,
                "pitch": 68,
                "velocity": 13,
                "duration": 3.2318182,
                "tempo": 120.0
            },
            {
                "start_time": 72.7704545,
                "end_time": 75.9818182,
                "pitch": 69,
                "velocity": 13,
                "duration": 3.2113636,
                "tempo": 120.0
            },
            {
                "start_time": 75.9818182,
                "end_time": 78.3818182,
                "pitch": 68,
                "velocity": 13,
                "duration": 2.4,
                "tempo": 120.0
            },
            {
                "start_time": 78.3818182,
                "end_time": 78.6840909,
                "pitch": 69,
                "velocity": 13,
                "duration": 0.3022727,
                "tempo": 120.0
            },
            {
                "start_time": 78.7863636,
                "end_time": 79.1909091,
                "pitch": 69,
                "velocity": 13,
                "duration": 0.4045455,
                "tempo": 120.0
            },
            {
                "start_time": 79.1909091,
                "end_time": 81.6022727,
                "pitch": 64,
                "velocity": 13,
                "duration": 2.4113636,
                "tempo": 120.0
            },
            {
                "start_time": 81.6022727,
                "end_time": 82.4136364,
                "pitch": 64,
                "velocity": 8,
                "duration": 0.8113636,
                "tempo": 120.0
            },
            {
                "start_time": 82.4136364,
                "end_time": 85.2295455,
                "pitch": 69,
                "velocity": 8,
                "duration": 2.8159091,
                "tempo": 120.0
            },
            {
                "start_time": 85.6340909,
                "end_time": 88.0454545,
                "pitch": 74,
                "velocity": 13,
                "duration": 2.4113636,
                "tempo": 120.0
            },
            {
                "start_time": 88.0454545,
                "end_time": 88.3454545,
                "pitch": 74,
                "velocity": 13,
                "duration": 0.3,
                "tempo": 120.0
            },
            {
                "start_time": 88.4454545,
                "end_time": 88.7659091,
                "pitch": 72,
                "velocity": 13,
                "duration": 0.3204545,
                "tempo": 120.0
            },
            {
                "start_time": 88.8454545,
                "end_time": 91.2659091,
                "pitch": 69,
                "velocity": 13,
                "duration": 2.4204545,
                "tempo": 120.0
            },
            {
                "start_time": 91.2659091,
                "end_time": 91.5863636,
                "pitch": 71,
                "velocity": 8,
                "duration": 0.3204545,
                "tempo": 120.0
            },
            {
                "start_time": 91.6681818,
                "end_time": 91.9863636,
                "pitch": 69,
                "velocity": 8,
                "duration": 0.3181818,
                "tempo": 120.0
            },
            {
                "start_time": 92.0681818,
                "end_time": 93.6772727,
                "pitch": 69,
                "velocity": 13,
                "duration": 1.6090909,
                "tempo": 120.0
            },
            {
                "start_time": 93.6772727,
                "end_time": 94.0022727,
                "pitch": 68,
                "velocity": 13,
                "duration": 0.325,
                "tempo": 120.0
            },
            {
                "start_time": 94.0840909,
                "end_time": 94.2045455,
                "pitch": 68,
                "velocity": 13,
                "duration": 0.1204545,
                "tempo": 120.0
            },
            {
                "start_time": 94.2863636,
                "end_time": 94.4886364,
                "pitch": 69,
                "velocity": 13,
                "duration": 0.2022727,
                "tempo": 120.0
            },
            {
                "start_time": 94.4886364,
                "end_time": 94.7886364,
                "pitch": 64,
                "velocity": 13,
                "duration": 0.3,
                "tempo": 120.0
            },
            {
                "start_time": 94.8886364,
                "end_time": 95.2090909,
                "pitch": 68,
                "velocity": 13,
                "duration": 0.3204545,
                "tempo": 120.0
            },
            {
                "start_time": 95.2886364,
                "end_time": 98.5,
                "pitch": 68,
                "velocity": 13,
                "duration": 3.2113636,
                "tempo": 120.0
            },
            {
                "start_time": 114.575,
                "end_time": 116.975,
                "pitch": 69,
                "velocity": 13,
                "duration": 2.4,
                "tempo": 120.0
            },
            {
                "start_time": 116.975,
                "end_time": 117.2977273,
                "pitch": 71,
                "velocity": 8,
                "duration": 0.3227273,
                "tempo": 120.0
            },
            {
                "start_time": 117.3795455,
                "end_time": 117.7045455,
                "pitch": 69,
                "velocity": 8,
                "duration": 0.325,
                "tempo": 120.0
            },
            {
                "start_time": 117.7840909,
                "end_time": 119.3954545,
                "pitch": 69,
                "velocity": 13,
                "duration": 1.6113636,
                "tempo": 120.0
            },
            {
                "start_time": 119.3954545,
                "end_time": 119.7159091,
                "pitch": 68,
                "velocity": 13,
                "duration": 0.3204545,
                "tempo": 120.0
            },
            {
                "start_time": 119.7954545,
                "end_time": 119.9159091,
                "pitch": 68,
                "velocity": 13,
                "duration": 0.1204545,
                "tempo": 120.0
            },
            {
                "start_time": 119.9954545,
                "end_time": 120.1954545,
                "pitch": 69,
                "velocity": 13,
                "duration": 0.2,
                "tempo": 120.0
            },
            {
                "start_time": 120.1954545,
                "end_time": 120.4954545,
                "pitch": 64,
                "velocity": 13,
                "duration": 0.3,
                "tempo": 120.0
            },
            {
                "start_time": 120.5954545,
                "end_time": 120.9159091,
                "pitch": 68,
                "velocity": 13,
                "duration": 0.3204545,
                "tempo": 120.0
            },
            {
                "start_time": 120.9954545,
                "end_time": 124.8363636,
                "pitch": 68,
                "velocity": 13,
                "duration": 3.8409091,
                "tempo": 120.0
            },
            {
                "start_time": 127.4431818,
                "end_time": 130.6431818,
                "pitch": 69,
                "velocity": 5,
                "duration": 3.2,
                "tempo": 120.0
            },
            {
                "start_time": 130.6431818,
                "end_time": 133.0431818,
                "pitch": 68,
                "velocity": 13,
                "duration": 2.4,
                "tempo": 120.0
            },
            {
                "start_time": 133.0431818,
                "end_time": 133.3431818,
                "pitch": 69,
                "velocity": 13,
                "duration": 0.3,
                "tempo": 120.0
            },
            {
                "start_time": 133.4431818,
                "end_time": 133.8431818,
                "pitch": 69,
                "velocity": 13,
                "duration": 0.4,
                "tempo": 120.0
            },
            {
                "start_time": 133.8431818,
                "end_time": 136.2068182,
                "pitch": 64,
                "velocity": 13,
                "duration": 2.3636364,
                "tempo": 120.0
            },
            {
                "start_time": 136.2068182,
                "end_time": 136.8886364,
                "pitch": 64,
                "velocity": 8,
                "duration": 0.6818182,
                "tempo": 120.0
            },
            {
                "start_time": 136.8886364,
                "end_time": 139.5454545,
                "pitch": 69,
                "velocity": 8,
                "duration": 2.6568182,
                "tempo": 120.0
            },
            {
                "start_time": 139.7159091,
                "end_time": 142.0227273,
                "pitch": 74,
                "velocity": 13,
                "duration": 2.3068182,
                "tempo": 120.0
            },
            {
                "start_time": 142.0227273,
                "end_time": 142.2977273,
                "pitch": 74,
                "velocity": 13,
                "duration": 0.275,
                "tempo": 120.0
            },
            {
                "start_time": 142.3886364,
                "end_time": 142.6818182,
                "pitch": 72,
                "velocity": 13,
                "duration": 0.2931818,
                "tempo": 120.0
            },
            {
                "start_time": 142.7545455,
                "end_time": 145.1613636,
                "pitch": 69,
                "velocity": 13,
                "duration": 2.4068182,
                "tempo": 120.0
            },
            {
                "start_time": 145.1613636,
                "end_time": 145.4863636,
                "pitch": 71,
                "velocity": 8,
                "duration": 0.325,
                "tempo": 120.0
            },
            {
                "start_time": 145.5659091,
                "end_time": 145.8909091,
                "pitch": 69,
                "velocity": 8,
                "duration": 0.325,
                "tempo": 120.0
            },
            {
                "start_time": 145.9727273,
                "end_time": 147.5318182,
                "pitch": 69,
                "velocity": 13,
                "duration": 1.5590909,
                "tempo": 120.0
            },
            {
                "start_time": 147.5318182,
                "end_time": 147.8613636,
                "pitch": 68,
                "velocity": 13,
                "duration": 0.3295455,
                "tempo": 120.0
            },
            {
                "start_time": 147.9477273,
                "end_time": 148.0727273,
                "pitch": 68,
                "velocity": 13,
                "duration": 0.125,
                "tempo": 120.0
            },
            {
                "start_time": 148.1590909,
                "end_time": 148.3704545,
                "pitch": 69,
                "velocity": 13,
                "duration": 0.2113636,
                "tempo": 120.0
            },
            {
                "start_time": 148.3704545,
                "end_time": 148.6863636,
                "pitch": 64,
                "velocity": 13,
                "duration": 0.3159091,
                "tempo": 120.0
            },
            {
                "start_time": 148.7909091,
                "end_time": 149.1295455,
                "pitch": 68,
                "velocity": 13,
                "duration": 0.3386364,
                "tempo": 120.0
            },
            {
                "start_time": 149.2136364,
                "end_time": 152.3522727,
                "pitch": 68,
                "velocity": 13,
                "duration": 3.1386364,
                "tempo": 120.0
            },
            {
                "start_time": 168.4613636,
                "end_time": 170.8613636,
                "pitch": 69,
                "velocity": 13,
                "duration": 2.4,
                "tempo": 120.0
            },
            {
                "start_time": 170.8613636,
                "end_time": 171.1818182,
                "pitch": 71,
                "velocity": 8,
                "duration": 0.3204545,
                "tempo": 120.0
            },
            {
                "start_time": 171.2613636,
                "end_time": 171.5818182,
                "pitch": 69,
                "velocity": 8,
                "duration": 0.3204545,
                "tempo": 120.0
            },
            {
                "start_time": 171.6613636,
                "end_time": 173.2613636,
                "pitch": 69,
                "velocity": 13,
                "duration": 1.6,
                "tempo": 120.0
            },
            {
                "start_time": 173.2613636,
                "end_time": 173.5818182,
                "pitch": 68,
                "velocity": 13,
                "duration": 0.3204545,
                "tempo": 120.0
            },
            {
                "start_time": 173.6613636,
                "end_time": 173.7818182,
                "pitch": 68,
                "velocity": 13,
                "duration": 0.1204545,
                "tempo": 120.0
            },
            {
                "start_time": 173.8613636,
                "end_time": 174.0613636,
                "pitch": 69,
                "velocity": 13,
                "duration": 0.2,
                "tempo": 120.0
            },
            {
                "start_time": 174.0613636,
                "end_time": 174.3613636,
                "pitch": 64,
                "velocity": 13,
                "duration": 0.3,
                "tempo": 120.0
            },
            {
                "start_time": 174.4613636,
                "end_time": 174.7818182,
                "pitch": 68,
                "velocity": 13,
                "duration": 0.3204545,
                "tempo": 120.0
            },
            {
                "start_time": 174.8613636,
                "end_time": 178.4863636,
                "pitch": 68,
                "velocity": 13,
                "duration": 3.625,
                "tempo": 120.0
            }
        ],
        "Flute": [
            {
                "start_time": 0.0204545,
                "end_time": 0.6090909,
                "pitch": 76,
                "velocity": 51,
                "duration": 0.5886364,
                "tempo": 120.0
            },
            {
                "start_time": 0.85,
                "end_time": 1.2136364,
                "pitch": 71,
                "velocity": 51,
                "duration": 0.3636364,
                "tempo": 120.0
            },
            {
                "start_time": 1.275,
                "end_time": 1.525,
                "pitch": 71,
                "velocity": 51,
                "duration": 0.25,
                "tempo": 120.0
            },
            {
                "start_time": 1.5863636,
                "end_time": 2.0704545,
                "pitch": 72,
                "velocity": 51,
                "duration": 0.4840909,
                "tempo": 120.0
            },
            {
                "start_time": 2.2227273,
                "end_time": 2.4772727,
                "pitch": 74,
                "velocity": 51,
                "duration": 0.2545455,
                "tempo": 120.0
            },
            {
                "start_time": 2.5386364,
                "end_time": 2.7840909,
                "pitch": 72,
                "velocity": 51,
                "duration": 0.2454545,
                "tempo": 120.0
            },
            {
                "start_time": 2.8454545,
                "end_time": 3.325,
                "pitch": 69,
                "velocity": 51,
                "duration": 0.4795455,
                "tempo": 120.0
            },
            {
                "start_time": 3.4795455,
                "end_time": 3.7318182,
                "pitch": 69,
                "velocity": 51,
                "duration": 0.2522727,
                "tempo": 120.0
            },
            {
                "start_time": 3.7931818,
                "end_time": 4.0409091,
                "pitch": 72,
                "velocity": 51,
                "duration": 0.2477273,
                "tempo": 120.0
            },
            {
                "start_time": 4.1022727,
                "end_time": 4.5795455,
                "pitch": 76,
                "velocity": 51,
                "duration": 0.4772727,
                "tempo": 120.0
            },
            {
                "start_time": 4.7340909,
                "end_time": 4.9886364,
                "pitch": 74,
                "velocity": 51,
                "duration": 0.2545455,
                "tempo": 120.0
            },
            {
                "start_time": 5.05,
                "end_time": 5.2954545,
                "pitch": 74,
                "velocity": 51,
                "duration": 0.2454545,
                "tempo": 120.0
            },
            {
                "start_time": 5.3568182,
                "end_time": 5.8318182,
                "pitch": 72,
                "velocity": 51,
                "duration": 0.475,
                "tempo": 120.0
            },
            {
                "start_time": 5.9818182,
                "end_time": 6.2090909,
                "pitch": 71,
                "velocity": 51,
                "duration": 0.2272727,
                "tempo": 120.0
            },
            {
                "start_time": 6.2954545,
                "end_time": 6.5204545,
                "pitch": 71,
                "velocity": 51,
                "duration": 0.225,
                "tempo": 120.0
            },
            {
                "start_time": 6.6090909,
                "end_time": 7.0840909,
                "pitch": 72,
                "velocity": 51,
                "duration": 0.475,
                "tempo": 120.0
            },
            {
                "start_time": 7.2340909,
                "end_time": 7.7090909,
                "pitch": 76,
                "velocity": 51,
                "duration": 0.475,
                "tempo": 120.0
            },
            {
                "start_time": 7.8590909,
                "end_time": 8.3340909,
                "pitch": 72,
                "velocity": 51,
                "duration": 0.475,
                "tempo": 120.0
            },
            {
                "start_time": 8.4840909,
                "end_time": 8.9590909,
                "pitch": 69,
                "velocity": 51,
                "duration": 0.475,
                "tempo": 120.0
            },
            {
                "start_time": 9.1090909,
                "end_time": 10.0431818,
                "pitch": 69,
                "velocity": 51,
                "duration": 0.9340909,
                "tempo": 120.0
            },
            {
                "start_time": 10.3522727,
                "end_time": 10.575,
                "pitch": 74,
                "velocity": 51,
                "duration": 0.2227273,
                "tempo": 120.0
            },
            {
                "start_time": 10.6636364,
                "end_time": 11.1522727,
                "pitch": 74,
                "velocity": 51,
                "duration": 0.4886364,
                "tempo": 120.0
            },
            {
                "start_time": 11.3,
                "end_time": 11.5204545,
                "pitch": 77,
                "velocity": 51,
                "duration": 0.2204545,
                "tempo": 120.0
            },
            {
                "start_time": 11.6068182,
                "end_time": 12.0636364,
                "pitch": 81,
                "velocity": 51,
                "duration": 0.4568182,
                "tempo": 120.0
            },
            {
                "start_time": 12.2477273,
                "end_time": 12.4795455,
                "pitch": 79,
                "velocity": 51,
                "duration": 0.2318182,
                "tempo": 120.0
            },
            {
                "start_time": 12.5659091,
                "end_time": 12.7863636,
                "pitch": 77,
                "velocity": 51,
                "duration": 0.2204545,
                "tempo": 120.0
            },
            {
                "start_time": 12.8727273,
                "end_time": 13.325,
                "pitch": 77,
                "velocity": 51,
                "duration": 0.4522727,
                "tempo": 120.0
            },
            {
                "start_time": 13.5045455,
                "end_time": 13.7340909,
                "pitch": 76,
                "velocity": 51,
                "duration": 0.2295455,
                "tempo": 120.0
            },
            {
                "start_time": 13.8204545,
                "end_time": 14.0409091,
                "pitch": 72,
                "velocity": 51,
                "duration": 0.2204545,
                "tempo": 120.0
            },
            {
                "start_time": 14.1272727,
                "end_time": 14.5818182,
                "pitch": 76,
                "velocity": 51,
                "duration": 0.4545455,
                "tempo": 120.0
            },
            {
                "start_time": 14.7613636,
                "end_time": 14.9909091,
                "pitch": 74,
                "velocity": 51,
                "duration": 0.2295455,
                "tempo": 120.0
            },
            {
                "start_time": 15.075,
                "end_time": 15.2977273,
                "pitch": 74,
                "velocity": 51,
                "duration": 0.2227273,
                "tempo": 120.0
            },
            {
                "start_time": 15.3840909,
                "end_time": 15.8295455,
                "pitch": 72,
                "velocity": 51,
                "duration": 0.4454545,
                "tempo": 120.0
            },
            {
                "start_time": 16.0045455,
                "end_time": 16.225,
                "pitch": 71,
                "velocity": 51,
                "duration": 0.2204545,
                "tempo": 120.0
            },
            {
                "start_time": 16.3090909,
                "end_time": 16.5204545,
                "pitch": 71,
                "velocity": 51,
                "duration": 0.2113636,
                "tempo": 120.0
            },
            {
                "start_time": 16.6045455,
                "end_time": 17.0068182,
                "pitch": 72,
                "velocity": 51,
                "duration": 0.4022727,
                "tempo": 120.0
            },
            {
                "start_time": 17.1590909,
                "end_time": 17.575,
                "pitch": 76,
                "velocity": 51,
                "duration": 0.4159091,
                "tempo": 120.0
            },
            {
                "start_time": 17.7363636,
                "end_time": 18.1840909,
                "pitch": 72,
                "velocity": 51,
                "duration": 0.4477273,
                "tempo": 120.0
            },
            {
                "start_time": 18.3590909,
                "end_time": 18.8022727,
                "pitch": 69,
                "velocity": 51,
                "duration": 0.4431818,
                "tempo": 120.0
            },
            {
                "start_time": 18.975,
                "end_time": 19.9227273,
                "pitch": 69,
                "velocity": 51,
                "duration": 0.9477273,
                "tempo": 120.0
            },
            {
                "start_time": 20.25,
                "end_time": 20.9272727,
                "pitch": 76,
                "velocity": 51,
                "duration": 0.6772727,
                "tempo": 120.0
            },
            {
                "start_time": 21.1772727,
                "end_time": 21.4022727,
                "pitch": 76,
                "velocity": 51,
                "duration": 0.225,
                "tempo": 120.0
            },
            {
                "start_time": 21.4909091,
                "end_time": 22.175,
                "pitch": 75,
                "velocity": 51,
                "duration": 0.6840909,
                "tempo": 120.0
            },
            {
                "start_time": 22.3931818,
                "end_time": 22.6363636,
                "pitch": 76,
                "velocity": 51,
                "duration": 0.2431818,
                "tempo": 120.0
            },
            {
                "start_time": 22.6954545,
                "end_time": 23.425,
                "pitch": 75,
                "velocity": 51,
                "duration": 0.7295455,
                "tempo": 120.0
            },
            {
                "start_time": 23.6590909,
                "end_time": 23.9204545,
                "pitch": 81,
                "velocity": 51,
                "duration": 0.2613636,
                "tempo": 120.0
            },
            {
                "start_time": 23.9863636,
                "end_time": 24.4477273,
                "pitch": 76,
                "velocity": 51,
                "duration": 0.4613636,
                "tempo": 120.0
            },
            {
                "start_time": 24.5931818,
                "end_time": 24.8386364,
                "pitch": 74,
                "velocity": 51,
                "duration": 0.2454545,
                "tempo": 120.0
            },
            {
                "start_time": 24.9,
                "end_time": 25.1454545,
                "pitch": 74,
                "velocity": 51,
                "duration": 0.2454545,
                "tempo": 120.0
            },
            {
                "start_time": 25.2068182,
                "end_time": 25.6931818,
                "pitch": 72,
                "velocity": 51,
                "duration": 0.4863636,
                "tempo": 120.0
            },
            {
                "start_time": 25.8477273,
                "end_time": 26.0977273,
                "pitch": 71,
                "velocity": 51,
                "duration": 0.25,
                "tempo": 120.0
            },
            {
                "start_time": 26.1613636,
                "end_time": 26.4113636,
                "pitch": 71,
                "velocity": 51,
                "duration": 0.25,
                "tempo": 120.0
            },
            {
                "start_time": 26.4727273,
                "end_time": 26.9477273,
                "pitch": 72,
                "velocity": 51,
                "duration": 0.475,
                "tempo": 120.0
            },
            {
                "start_time": 27.0977273,
                "end_time": 27.5659091,
                "pitch": 76,
                "velocity": 51,
                "duration": 0.4681818,
                "tempo": 120.0
            },
            {
                "start_time": 27.7136364,
                "end_time": 28.1886364,
                "pitch": 72,
                "velocity": 51,
                "duration": 0.475,
                "tempo": 120.0
            },
            {
                "start_time": 28.3386364,
                "end_time": 28.8659091,
                "pitch": 69,
                "velocity": 51,
                "duration": 0.5272727,
                "tempo": 120.0
            },
            {
                "start_time": 29.0363636,
                "end_time": 30.0931818,
                "pitch": 69,
                "velocity": 51,
                "duration": 1.0568182,
                "tempo": 120.0
            },
            {
                "start_time": 30.45,
                "end_time": 31.2568182,
                "pitch": 76,
                "velocity": 51,
                "duration": 0.8068182,
                "tempo": 120.0
            },
            {
                "start_time": 31.5090909,
                "end_time": 31.7659091,
                "pitch": 76,
                "velocity": 51,
                "duration": 0.2568182,
                "tempo": 120.0
            },
            {
                "start_time": 31.875,
                "end_time": 32.7636364,
                "pitch": 75,
                "velocity": 51,
                "duration": 0.8886364,
                "tempo": 120.0
            },
            {
                "start_time": 33.0386364,
                "end_time": 33.3159091,
                "pitch": 74,
                "velocity": 51,
                "duration": 0.2772727,
                "tempo": 120.0
            },
            {
                "start_time": 33.4227273,
                "end_time": 34.3295455,
                "pitch": 76,
                "velocity": 51,
                "duration": 0.9068182,
                "tempo": 120.0
            },
            {
                "start_time": 34.6181818,
                "end_time": 34.8954545,
                "pitch": 81,
                "velocity": 51,
                "duration": 0.2772727,
                "tempo": 120.0
            },
            {
                "start_time": 35.0022727,
                "end_time": 35.5681818,
                "pitch": 76,
                "velocity": 51,
                "duration": 0.5659091,
                "tempo": 120.0
            },
            {
                "start_time": 35.7727273,
                "end_time": 36.0522727,
                "pitch": 74,
                "velocity": 51,
                "duration": 0.2795455,
                "tempo": 120.0
            },
            {
                "start_time": 36.1613636,
                "end_time": 36.4431818,
                "pitch": 74,
                "velocity": 51,
                "duration": 0.2818182,
                "tempo": 120.0
            },
            {
                "start_time": 36.5522727,
                "end_time": 37.15,
                "pitch": 72,
                "velocity": 51,
                "duration": 0.5977273,
                "tempo": 120.0
            },
            {
                "start_time": 37.3590909,
                "end_time": 37.6477273,
                "pitch": 71,
                "velocity": 51,
                "duration": 0.2886364,
                "tempo": 120.0
            },
            {
                "start_time": 37.7590909,
                "end_time": 38.0431818,
                "pitch": 71,
                "velocity": 51,
                "duration": 0.2840909,
                "tempo": 120.0
            },
            {
                "start_time": 38.1522727,
                "end_time": 38.7431818,
                "pitch": 72,
                "velocity": 51,
                "duration": 0.5909091,
                "tempo": 120.0
            },
            {
                "start_time": 38.9636364,
                "end_time": 39.5954545,
                "pitch": 76,
                "velocity": 51,
                "duration": 0.6318182,
                "tempo": 120.0
            },
            {
                "start_time": 39.8159091,
                "end_time": 44.1363636,
                "pitch": 81,
                "velocity": 51,
                "duration": 4.3204545,
                "tempo": 120.0
            },
            {
                "start_time": 46.1022727,
                "end_time": 46.1795455,
                "pitch": 81,
                "velocity": 20,
                "duration": 0.0772727,
                "tempo": 120.0
            },
            {
                "start_time": 46.9204545,
                "end_time": 47.5045455,
                "pitch": 76,
                "velocity": 51,
                "duration": 0.5840909,
                "tempo": 120.0
            },
            {
                "start_time": 47.7,
                "end_time": 48.0136364,
                "pitch": 71,
                "velocity": 51,
                "duration": 0.3136364,
                "tempo": 120.0
            },
            {
                "start_time": 48.1181818,
                "end_time": 48.4363636,
                "pitch": 71,
                "velocity": 51,
                "duration": 0.3181818,
                "tempo": 120.0
            },
            {
                "start_time": 48.5409091,
                "end_time": 49.175,
                "pitch": 72,
                "velocity": 51,
                "duration": 0.6340909,
                "tempo": 120.0
            },
            {
                "start_time": 49.3863636,
                "end_time": 49.6931818,
                "pitch": 74,
                "velocity": 51,
                "duration": 0.3068182,
                "tempo": 120.0
            },
            {
                "start_time": 49.7954545,
                "end_time": 50.0977273,
                "pitch": 72,
                "velocity": 51,
                "duration": 0.3022727,
                "tempo": 120.0
            },
            {
                "start_time": 50.2,
                "end_time": 50.8090909,
                "pitch": 69,
                "velocity": 51,
                "duration": 0.6090909,
                "tempo": 120.0
            },
            {
                "start_time": 51.0113636,
                "end_time": 51.3113636,
                "pitch": 69,
                "velocity": 51,
                "duration": 0.3,
                "tempo": 120.0
            },
            {
                "start_time": 51.4113636,
                "end_time": 51.6522727,
                "pitch": 72,
                "velocity": 51,
                "duration": 0.2409091,
                "tempo": 120.0
            },
            {
                "start_time": 51.8113636,
                "end_time": 52.4113636,
                "pitch": 76,
                "velocity": 51,
                "duration": 0.6,
                "tempo": 120.0
            },
            {
                "start_time": 52.6113636,
                "end_time": 52.9113636,
                "pitch": 74,
                "velocity": 51,
                "duration": 0.3,
                "tempo": 120.0
            },
            {
                "start_time": 53.0113636,
                "end_time": 53.3113636,
                "pitch": 74,
                "velocity": 51,
                "duration": 0.3,
                "tempo": 120.0
            },
            {
                "start_time": 53.4113636,
                "end_time": 54.0113636,
                "pitch": 72,
                "velocity": 51,
                "duration": 0.6,
                "tempo": 120.0
            },
            {
                "start_time": 54.2113636,
                "end_time": 54.5159091,
                "pitch": 71,
                "velocity": 51,
                "duration": 0.3045455,
                "tempo": 120.0
            },
            {
                "start_time": 54.6159091,
                "end_time": 54.9204545,
                "pitch": 71,
                "velocity": 51,
                "duration": 0.3045455,
                "tempo": 120.0
            },
            {
                "start_time": 55.0227273,
                "end_time": 55.6295455,
                "pitch": 72,
                "velocity": 51,
                "duration": 0.6068182,
                "tempo": 120.0
            },
            {
                "start_time": 55.8318182,
                "end_time": 56.4409091,
                "pitch": 76,
                "velocity": 51,
                "duration": 0.6090909,
                "tempo": 120.0
            },
            {
                "start_time": 56.6431818,
                "end_time": 57.2522727,
                "pitch": 72,
                "velocity": 51,
                "duration": 0.6090909,
                "tempo": 120.0
            },
            {
                "start_time": 57.4545455,
                "end_time": 58.0545455,
                "pitch": 69,
                "velocity": 51,
                "duration": 0.6,
                "tempo": 120.0
            },
            {
                "start_time": 58.2545455,
                "end_time": 59.4545455,
                "pitch": 69,
                "velocity": 51,
                "duration": 1.2,
                "tempo": 120.0
            },
            {
                "start_time": 59.8545455,
                "end_time": 60.1545455,
                "pitch": 74,
                "velocity": 51,
                "duration": 0.3,
                "tempo": 120.0
            },
            {
                "start_time": 60.2545455,
                "end_time": 60.8545455,
                "pitch": 74,
                "velocity": 51,
                "duration": 0.6,
                "tempo": 120.0
            },
            {
                "start_time": 61.0545455,
                "end_time": 61.3545455,
                "pitch": 77,
                "velocity": 51,
                "duration": 0.3,
                "tempo": 120.0
            },
            {
                "start_time": 61.4545455,
                "end_time": 62.0545455,
                "pitch": 81,
                "velocity": 51,
                "duration": 0.6,
                "tempo": 120.0
            },
            {
                "start_time": 62.2545455,
                "end_time": 62.5590909,
                "pitch": 79,
                "velocity": 51,
                "duration": 0.3045455,
                "tempo": 120.0
            },
            {
                "start_time": 62.6590909,
                "end_time": 62.9636364,
                "pitch": 77,
                "velocity": 51,
                "duration": 0.3045455,
                "tempo": 120.0
            },
            {
                "start_time": 63.0659091,
                "end_time": 63.6727273,
                "pitch": 77,
                "velocity": 51,
                "duration": 0.6068182,
                "tempo": 120.0
            },
            {
                "start_time": 63.875,
                "end_time": 64.1772727,
                "pitch": 76,
                "velocity": 51,
                "duration": 0.3022727,
                "tempo": 120.0
            },
            {
                "start_time": 64.2772727,
                "end_time": 64.5772727,
                "pitch": 72,
                "velocity": 51,
                "duration": 0.3,
                "tempo": 120.0
            },
            {
                "start_time": 64.6772727,
                "end_time": 65.2772727,
                "pitch": 76,
                "velocity": 51,
                "duration": 0.6,
                "tempo": 120.0
            },
            {
                "start_time": 65.4772727,
                "end_time": 65.7795455,
                "pitch": 74,
                "velocity": 51,
                "duration": 0.3022727,
                "tempo": 120.0
            },
            {
                "start_time": 65.8818182,
                "end_time": 66.1840909,
                "pitch": 74,
                "velocity": 51,
                "duration": 0.3022727,
                "tempo": 120.0
            },
            {
                "start_time": 66.2863636,
                "end_time": 66.9545455,
                "pitch": 72,
                "velocity": 51,
                "duration": 0.6681818,
                "tempo": 120.0
            },
            {
                "start_time": 67.0568182,
                "end_time": 67.3568182,
                "pitch": 71,
                "velocity": 51,
                "duration": 0.3,
                "tempo": 120.0
            },
            {
                "start_time": 67.4977273,
                "end_time": 67.7977273,
                "pitch": 71,
                "velocity": 51,
                "duration": 0.3,
                "tempo": 120.0
            },
            {
                "start_time": 67.8977273,
                "end_time": 68.4977273,
                "pitch": 72,
                "velocity": 51,
                "duration": 0.6,
                "tempo": 120.0
            },
            {
                "start_time": 68.6977273,
                "end_time": 69.2977273,
                "pitch": 76,
                "velocity": 51,
                "duration": 0.6,
                "tempo": 120.0
            },
            {
                "start_time": 69.4977273,
                "end_time": 70.0977273,
                "pitch": 72,
                "velocity": 51,
                "duration": 0.6,
                "tempo": 120.0
            },
            {
                "start_time": 70.2977273,
                "end_time": 70.9045455,
                "pitch": 69,
                "velocity": 51,
                "duration": 0.6068182,
                "tempo": 120.0
            },
            {
                "start_time": 71.1090909,
                "end_time": 72.325,
                "pitch": 69,
                "velocity": 51,
                "duration": 1.2159091,
                "tempo": 120.0
            },
            {
                "start_time": 72.7295455,
                "end_time": 73.3386364,
                "pitch": 76,
                "velocity": 51,
                "duration": 0.6090909,
                "tempo": 120.0
            },
            {
                "start_time": 73.5409091,
                "end_time": 73.8409091,
                "pitch": 71,
                "velocity": 51,
                "duration": 0.3,
                "tempo": 120.0
            },
            {
                "start_time": 73.9409091,
                "end_time": 74.2409091,
                "pitch": 71,
                "velocity": 51,
                "duration": 0.3,
                "tempo": 120.0
            },
            {
                "start_time": 74.3409091,
                "end_time": 74.9409091,
                "pitch": 72,
                "velocity": 51,
                "duration": 0.6,
                "tempo": 120.0
            },
            {
                "start_time": 75.1409091,
                "end_time": 75.4409091,
                "pitch": 74,
                "velocity": 51,
                "duration": 0.3,
                "tempo": 120.0
            },
            {
                "start_time": 75.5409091,
                "end_time": 75.8409091,
                "pitch": 72,
                "velocity": 51,
                "duration": 0.3,
                "tempo": 120.0
            },
            {
                "start_time": 75.9409091,
                "end_time": 76.5409091,
                "pitch": 69,
                "velocity": 51,
                "duration": 0.6,
                "tempo": 120.0
            },
            {
                "start_time": 76.7409091,
                "end_time": 77.0409091,
                "pitch": 69,
                "velocity": 51,
                "duration": 0.3,
                "tempo": 120.0
            },
            {
                "start_time": 77.1409091,
                "end_time": 77.4409091,
                "pitch": 72,
                "velocity": 51,
                "duration": 0.3,
                "tempo": 120.0
            },
            {
                "start_time": 77.5409091,
                "end_time": 78.1409091,
                "pitch": 76,
                "velocity": 51,
                "duration": 0.6,
                "tempo": 120.0
            },
            {
                "start_time": 78.3409091,
                "end_time": 78.6454545,
                "pitch": 74,
                "velocity": 51,
                "duration": 0.3045455,
                "tempo": 120.0
            },
            {
                "start_time": 78.7454545,
                "end_time": 79.05,
                "pitch": 74,
                "velocity": 51,
                "duration": 0.3045455,
                "tempo": 120.0
            },
            {
                "start_time": 79.1522727,
                "end_time": 79.7590909,
                "pitch": 72,
                "velocity": 51,
                "duration": 0.6068182,
                "tempo": 120.0
            },
            {
                "start_time": 79.9613636,
                "end_time": 80.2636364,
                "pitch": 71,
                "velocity": 51,
                "duration": 0.3022727,
                "tempo": 120.0
            },
            {
                "start_time": 80.3636364,
                "end_time": 80.6636364,
                "pitch": 71,
                "velocity": 51,
                "duration": 0.3,
                "tempo": 120.0
            },
            {
                "start_time": 80.7636364,
                "end_time": 81.3636364,
                "pitch": 72,
                "velocity": 51,
                "duration": 0.6,
                "tempo": 120.0
            },
            {
                "start_time": 81.5636364,
                "end_time": 82.1704545,
                "pitch": 76,
                "velocity": 51,
                "duration": 0.6068182,
                "tempo": 120.0
            },
            {
                "start_time": 82.3727273,
                "end_time": 82.9818182,
                "pitch": 72,
                "velocity": 51,
                "duration": 0.6090909,
                "tempo": 120.0
            },
            {
                "start_time": 83.1840909,
                "end_time": 83.7840909,
                "pitch": 69,
                "velocity": 51,
                "duration": 0.6,
                "tempo": 120.0
            },
            {
                "start_time": 83.9840909,
                "end_time": 85.1886364,
                "pitch": 69,
                "velocity": 51,
                "duration": 1.2045455,
                "tempo": 120.0
            },
            {
                "start_time": 85.5931818,
                "end_time": 85.8977273,
                "pitch": 74,
                "velocity": 51,
                "duration": 0.3045455,
                "tempo": 120.0
            },
            {
                "start_time": 86.0,
                "end_time": 86.6045455,
                "pitch": 74,
                "velocity": 51,
                "duration": 0.6045455,
                "tempo": 120.0
            },
            {
                "start_time": 86.8045455,
                "end_time": 87.1045455,
                "pitch": 77,
                "velocity": 51,
                "duration": 0.3,
                "tempo": 120.0
            },
            {
                "start_time": 87.2045455,
                "end_time": 87.8045455,
                "pitch": 81,
                "velocity": 51,
                "duration": 0.6,
                "tempo": 120.0
            },
            {
                "start_time": 88.0045455,
                "end_time": 88.3045455,
                "pitch": 79,
                "velocity": 51,
                "duration": 0.3,
                "tempo": 120.0
            },
            {
                "start_time": 88.4045455,
                "end_time": 88.7045455,
                "pitch": 77,
                "velocity": 51,
                "duration": 0.3,
                "tempo": 120.0
            },
            {
                "start_time": 88.8045455,
                "end_time": 89.4045455,
                "pitch": 77,
                "velocity": 51,
                "duration": 0.6,
                "tempo": 120.0
            },
            {
                "start_time": 89.6045455,
                "end_time": 89.9090909,
                "pitch": 76,
                "velocity": 51,
                "duration": 0.3045455,
                "tempo": 120.0
            },
            {
                "start_time": 90.0090909,
                "end_time": 90.3136364,
                "pitch": 72,
                "velocity": 51,
                "duration": 0.3045455,
                "tempo": 120.0
            },
            {
                "start_time": 90.4159091,
                "end_time": 91.0227273,
                "pitch": 76,
                "velocity": 51,
                "duration": 0.6068182,
                "tempo": 120.0
            },
            {
                "start_time": 91.2272727,
                "end_time": 91.5272727,
                "pitch": 74,
                "velocity": 51,
                "duration": 0.3,
                "tempo": 120.0
            },
            {
                "start_time": 91.6272727,
                "end_time": 91.9272727,
                "pitch": 74,
                "velocity": 51,
                "duration": 0.3,
                "tempo": 120.0
            },
            {
                "start_time": 92.0272727,
                "end_time": 92.6272727,
                "pitch": 72,
                "velocity": 51,
                "duration": 0.6,
                "tempo": 120.0
            },
            {
                "start_time": 92.8272727,
                "end_time": 93.1295455,
                "pitch": 71,
                "velocity": 51,
                "duration": 0.3022727,
                "tempo": 120.0
            },
            {
                "start_time": 93.2318182,
                "end_time": 93.5363636,
                "pitch": 71,
                "velocity": 51,
                "duration": 0.3045455,
                "tempo": 120.0
            },
            {
                "start_time": 93.6363636,
                "end_time": 94.2454545,
                "pitch": 72,
                "velocity": 51,
                "duration": 0.6090909,
                "tempo": 120.0
            },
            {
                "start_time": 94.4477273,
                "end_time": 95.0477273,
                "pitch": 76,
                "velocity": 51,
                "duration": 0.6,
                "tempo": 120.0
            },
            {
                "start_time": 95.2477273,
                "end_time": 95.8477273,
                "pitch": 72,
                "velocity": 51,
                "duration": 0.6,
                "tempo": 120.0
            },
            {
                "start_time": 96.0477273,
                "end_time": 96.6477273,
                "pitch": 69,
                "velocity": 51,
                "duration": 0.6,
                "tempo": 120.0
            },
            {
                "start_time": 96.8477273,
                "end_time": 98.0545455,
                "pitch": 69,
                "velocity": 51,
                "duration": 1.2068182,
                "tempo": 120.0
            },
            {
                "start_time": 98.4590909,
                "end_time": 99.3704545,
                "pitch": 76,
                "velocity": 51,
                "duration": 0.9113636,
                "tempo": 120.0
            },
            {
                "start_time": 99.6704545,
                "end_time": 99.9704545,
                "pitch": 76,
                "velocity": 51,
                "duration": 0.3,
                "tempo": 120.0
            },
            {
                "start_time": 100.0704545,
                "end_time": 100.9704545,
                "pitch": 75,
                "velocity": 51,
                "duration": 0.9,
                "tempo": 120.0
            },
            {
                "start_time": 101.275,
                "end_time": 101.5795455,
                "pitch": 76,
                "velocity": 51,
                "duration": 0.3045455,
                "tempo": 120.0
            },
            {
                "start_time": 101.6795455,
                "end_time": 102.5909091,
                "pitch": 75,
                "velocity": 51,
                "duration": 0.9113636,
                "tempo": 120.0
            },
            {
                "start_time": 102.8909091,
                "end_time": 103.1909091,
                "pitch": 81,
                "velocity": 51,
                "duration": 0.3,
                "tempo": 120.0
            },
            {
                "start_time": 103.2909091,
                "end_time": 103.8909091,
                "pitch": 76,
                "velocity": 51,
                "duration": 0.6,
                "tempo": 120.0
            },
            {
                "start_time": 104.0909091,
                "end_time": 104.3909091,
                "pitch": 74,
                "velocity": 51,
                "duration": 0.3,
                "tempo": 120.0
            },
            {
                "start_time": 104.4909091,
                "end_time": 104.7909091,
                "pitch": 74,
                "velocity": 51,
                "duration": 0.3,
                "tempo": 120.0
            },
            {
                "start_time": 104.8909091,
                "end_time": 105.4909091,
                "pitch": 72,
                "velocity": 51,
                "duration": 0.6,
                "tempo": 120.0
            },
            {
                "start_time": 105.6909091,
                "end_time": 105.9954545,
                "pitch": 71,
                "velocity": 51,
                "duration": 0.3045455,
                "tempo": 120.0
            },
            {
                "start_time": 106.0954545,
                "end_time": 106.4,
                "pitch": 71,
                "velocity": 51,
                "duration": 0.3045455,
                "tempo": 120.0
            },
            {
                "start_time": 106.5022727,
                "end_time": 107.1090909,
                "pitch": 72,
                "velocity": 51,
                "duration": 0.6068182,
                "tempo": 120.0
            },
            {
                "start_time": 107.3136364,
                "end_time": 107.9136364,
                "pitch": 76,
                "velocity": 51,
                "duration": 0.6,
                "tempo": 120.0
            },
            {
                "start_time": 108.1136364,
                "end_time": 108.7136364,
                "pitch": 72,
                "velocity": 51,
                "duration": 0.6,
                "tempo": 120.0
            },
            {
                "start_time": 108.9136364,
                "end_time": 109.5136364,
                "pitch": 69,
                "velocity": 51,
                "duration": 0.6,
                "tempo": 120.0
            },
            {
                "start_time": 109.7136364,
                "end_time": 110.9181818,
                "pitch": 69,
                "velocity": 51,
                "duration": 1.2045455,
                "tempo": 120.0
            },
            {
                "start_time": 111.3227273,
                "end_time": 112.2340909,
                "pitch": 76,
                "velocity": 51,
                "duration": 0.9113636,
                "tempo": 120.0
            },
            {
                "start_time": 112.5340909,
                "end_time": 112.8340909,
                "pitch": 76,
                "velocity": 51,
                "duration": 0.3,
                "tempo": 120.0
            },
            {
                "start_time": 112.9340909,
                "end_time": 113.8340909,
                "pitch": 75,
                "velocity": 51,
                "duration": 0.9,
                "tempo": 120.0
            },
            {
                "start_time": 114.1340909,
                "end_time": 114.4340909,
                "pitch": 74,
                "velocity": 51,
                "duration": 0.3,
                "tempo": 120.0
            },
            {
                "start_time": 114.5340909,
                "end_time": 115.4340909,
                "pitch": 76,
                "velocity": 51,
                "duration": 0.9,
                "tempo": 120.0
            },
            {
                "start_time": 115.7340909,
                "end_time": 116.0340909,
                "pitch": 81,
                "velocity": 51,
                "duration": 0.3,
                "tempo": 120.0
            },
            {
                "start_time": 116.1340909,
                "end_time": 116.7340909,
                "pitch": 76,
                "velocity": 51,
                "duration": 0.6,
                "tempo": 120.0
            },
            {
                "start_time": 116.9340909,
                "end_time": 117.2386364,
                "pitch": 74,
                "velocity": 51,
                "duration": 0.3045455,
                "tempo": 120.0
            },
            {
                "start_time": 117.3386364,
                "end_time": 117.6431818,
                "pitch": 74,
                "velocity": 51,
                "duration": 0.3045455,
                "tempo": 120.0
            },
            {
                "start_time": 117.7454545,
                "end_time": 118.3522727,
                "pitch": 72,
                "velocity": 51,
                "duration": 0.6068182,
                "tempo": 120.0
            },
            {
                "start_time": 118.5545455,
                "end_time": 118.8568182,
                "pitch": 71,
                "velocity": 51,
                "duration": 0.3022727,
                "tempo": 120.0
            },
            {
                "start_time": 118.9568182,
                "end_time": 119.2568182,
                "pitch": 71,
                "velocity": 51,
                "duration": 0.3,
                "tempo": 120.0
            },
            {
                "start_time": 119.3568182,
                "end_time": 119.9568182,
                "pitch": 72,
                "velocity": 51,
                "duration": 0.6,
                "tempo": 120.0
            },
            {
                "start_time": 120.1568182,
                "end_time": 120.7568182,
                "pitch": 76,
                "velocity": 51,
                "duration": 0.6,
                "tempo": 120.0
            },
            {
                "start_time": 120.9568182,
                "end_time": 124.9977273,
                "pitch": 81,
                "velocity": 51,
                "duration": 4.0409091,
                "tempo": 120.0
            },
            {
                "start_time": 126.7840909,
                "end_time": 126.8431818,
                "pitch": 81,
                "velocity": 20,
                "duration": 0.0590909,
                "tempo": 120.0
            },
            {
                "start_time": 127.4431818,
                "end_time": 128.0431818,
                "pitch": 76,
                "velocity": 51,
                "duration": 0.6,
                "tempo": 120.0
            },
            {
                "start_time": 128.2431818,
                "end_time": 128.5363636,
                "pitch": 71,
                "velocity": 51,
                "duration": 0.2931818,
                "tempo": 120.0
            },
            {
                "start_time": 128.6340909,
                "end_time": 128.9272727,
                "pitch": 71,
                "velocity": 51,
                "duration": 0.2931818,
                "tempo": 120.0
            },
            {
                "start_time": 129.025,
                "end_time": 129.6090909,
                "pitch": 72,
                "velocity": 51,
                "duration": 0.5840909,
                "tempo": 120.0
            },
            {
                "start_time": 129.8022727,
                "end_time": 130.1022727,
                "pitch": 74,
                "velocity": 51,
                "duration": 0.3,
                "tempo": 120.0
            },
            {
                "start_time": 130.2022727,
                "end_time": 130.5022727,
                "pitch": 72,
                "velocity": 51,
                "duration": 0.3,
                "tempo": 120.0
            },
            {
                "start_time": 130.6022727,
                "end_time": 131.2022727,
                "pitch": 69,
                "velocity": 51,
                "duration": 0.6,
                "tempo": 120.0
            },
            {
                "start_time": 131.4022727,
                "end_time": 131.7022727,
                "pitch": 69,
                "velocity": 51,
                "duration": 0.3,
                "tempo": 120.0
            },
            {
                "start_time": 131.8022727,
                "end_time": 132.1022727,
                "pitch": 72,
                "velocity": 51,
                "duration": 0.3,
                "tempo": 120.0
            },
            {
                "start_time": 132.2022727,
                "end_time": 132.8022727,
                "pitch": 76,
                "velocity": 51,
                "duration": 0.6,
                "tempo": 120.0
            },
            {
                "start_time": 133.0022727,
                "end_time": 133.3022727,
                "pitch": 74,
                "velocity": 51,
                "duration": 0.3,
                "tempo": 120.0
            },
            {
                "start_time": 133.4022727,
                "end_time": 133.7022727,
                "pitch": 74,
                "velocity": 51,
                "duration": 0.3,
                "tempo": 120.0
            },
            {
                "start_time": 133.8022727,
                "end_time": 134.4022727,
                "pitch": 72,
                "velocity": 51,
                "duration": 0.6,
                "tempo": 120.0
            },
            {
                "start_time": 134.6022727,
                "end_time": 134.9022727,
                "pitch": 71,
                "velocity": 51,
                "duration": 0.3,
                "tempo": 120.0
            },
            {
                "start_time": 135.0022727,
                "end_time": 135.3022727,
                "pitch": 71,
                "velocity": 51,
                "duration": 0.3,
                "tempo": 120.0
            },
            {
                "start_time": 135.4022727,
                "end_time": 136.0022727,
                "pitch": 72,
                "velocity": 51,
                "duration": 0.6,
                "tempo": 120.0
            },
            {
                "start_time": 136.1727273,
                "end_time": 136.6840909,
                "pitch": 76,
                "velocity": 51,
                "duration": 0.5113636,
                "tempo": 120.0
            },
            {
                "start_time": 136.8545455,
                "end_time": 137.375,
                "pitch": 72,
                "velocity": 51,
                "duration": 0.5204545,
                "tempo": 120.0
            },
            {
                "start_time": 137.5590909,
                "end_time": 138.1159091,
                "pitch": 69,
                "velocity": 51,
                "duration": 0.5568182,
                "tempo": 120.0
            },
            {
                "start_time": 138.3,
                "end_time": 139.3409091,
                "pitch": 69,
                "velocity": 51,
                "duration": 1.0409091,
                "tempo": 120.0
            },
            {
                "start_time": 139.6818182,
                "end_time": 139.9454545,
                "pitch": 74,
                "velocity": 51,
                "duration": 0.2636364,
                "tempo": 120.0
            },
            {
                "start_time": 140.0454545,
                "end_time": 140.6454545,
                "pitch": 74,
                "velocity": 51,
                "duration": 0.6,
                "tempo": 120.0
            },
            {
                "start_time": 140.8454545,
                "end_time": 141.1454545,
                "pitch": 77,
                "velocity": 51,
                "duration": 0.3,
                "tempo": 120.0
            },
            {
                "start_time": 141.2454545,
                "end_time": 141.8045455,
                "pitch": 81,
                "velocity": 51,
                "duration": 0.5590909,
                "tempo": 120.0
            },
            {
                "start_time": 141.9863636,
                "end_time": 142.2613636,
                "pitch": 79,
                "velocity": 51,
                "duration": 0.275,
                "tempo": 120.0
            },
            {
                "start_time": 142.3522727,
                "end_time": 142.6272727,
                "pitch": 77,
                "velocity": 51,
                "duration": 0.275,
                "tempo": 120.0
            },
            {
                "start_time": 142.7181818,
                "end_time": 143.3113636,
                "pitch": 77,
                "velocity": 51,
                "duration": 0.5931818,
                "tempo": 120.0
            },
            {
                "start_time": 143.5113636,
                "end_time": 143.8113636,
                "pitch": 76,
                "velocity": 51,
                "duration": 0.3,
                "tempo": 120.0
            },
            {
                "start_time": 143.9113636,
                "end_time": 144.2113636,
                "pitch": 72,
                "velocity": 51,
                "duration": 0.3,
                "tempo": 120.0
            },
            {
                "start_time": 144.3113636,
                "end_time": 144.9181818,
                "pitch": 76,
                "velocity": 51,
                "duration": 0.6068182,
                "tempo": 120.0
            },
            {
                "start_time": 145.1204545,
                "end_time": 145.425,
                "pitch": 74,
                "velocity": 51,
                "duration": 0.3045455,
                "tempo": 120.0
            },
            {
                "start_time": 145.5272727,
                "end_time": 145.8295455,
                "pitch": 74,
                "velocity": 51,
                "duration": 0.3022727,
                "tempo": 120.0
            },
            {
                "start_time": 145.9318182,
                "end_time": 146.5181818,
                "pitch": 72,
                "velocity": 51,
                "duration": 0.5863636,
                "tempo": 120.0
            },
            {
                "start_time": 146.7136364,
                "end_time": 147.0045455,
                "pitch": 71,
                "velocity": 51,
                "duration": 0.2909091,
                "tempo": 120.0
            },
            {
                "start_time": 147.1022727,
                "end_time": 147.3954545,
                "pitch": 71,
                "velocity": 51,
                "duration": 0.2931818,
                "tempo": 120.0
            },
            {
                "start_time": 147.4909091,
                "end_time": 148.1159091,
                "pitch": 72,
                "velocity": 51,
                "duration": 0.625,
                "tempo": 120.0
            },
            {
                "start_time": 148.3272727,
                "end_time": 148.9613636,
                "pitch": 76,
                "velocity": 51,
                "duration": 0.6340909,
                "tempo": 120.0
            },
            {
                "start_time": 149.1727273,
                "end_time": 149.7522727,
                "pitch": 72,
                "velocity": 51,
                "duration": 0.5795455,
                "tempo": 120.0
            },
            {
                "start_time": 149.9454545,
                "end_time": 150.5227273,
                "pitch": 69,
                "velocity": 51,
                "duration": 0.5772727,
                "tempo": 120.0
            },
            {
                "start_time": 150.7136364,
                "end_time": 151.9136364,
                "pitch": 69,
                "velocity": 51,
                "duration": 1.2,
                "tempo": 120.0
            },
            {
                "start_time": 152.3136364,
                "end_time": 153.2136364,
                "pitch": 76,
                "velocity": 51,
                "duration": 0.9,
                "tempo": 120.0
            },
            {
                "start_time": 153.5136364,
                "end_time": 153.8136364,
                "pitch": 76,
                "velocity": 51,
                "duration": 0.3,
                "tempo": 120.0
            },
            {
                "start_time": 153.9136364,
                "end_time": 154.825,
                "pitch": 75,
                "velocity": 51,
                "duration": 0.9113636,
                "tempo": 120.0
            },
            {
                "start_time": 155.1272727,
                "end_time": 155.4318182,
                "pitch": 76,
                "velocity": 51,
                "duration": 0.3045455,
                "tempo": 120.0
            },
            {
                "start_time": 155.5340909,
                "end_time": 156.4113636,
                "pitch": 75,
                "velocity": 51,
                "duration": 0.8772727,
                "tempo": 120.0
            },
            {
                "start_time": 156.7022727,
                "end_time": 156.9954545,
                "pitch": 81,
                "velocity": 51,
                "duration": 0.2931818,
                "tempo": 120.0
            },
            {
                "start_time": 157.0931818,
                "end_time": 157.7,
                "pitch": 76,
                "velocity": 51,
                "duration": 0.6068182,
                "tempo": 120.0
            },
            {
                "start_time": 157.9022727,
                "end_time": 158.2068182,
                "pitch": 74,
                "velocity": 51,
                "duration": 0.3045455,
                "tempo": 120.0
            },
            {
                "start_time": 158.3068182,
                "end_time": 158.6113636,
                "pitch": 74,
                "velocity": 51,
                "duration": 0.3045455,
                "tempo": 120.0
            },
            {
                "start_time": 158.7136364,
                "end_time": 159.3204545,
                "pitch": 72,
                "velocity": 51,
                "duration": 0.6068182,
                "tempo": 120.0
            },
            {
                "start_time": 159.5227273,
                "end_time": 159.8272727,
                "pitch": 71,
                "velocity": 51,
                "duration": 0.3045455,
                "tempo": 120.0
            },
            {
                "start_time": 159.9295455,
                "end_time": 160.2340909,
                "pitch": 71,
                "velocity": 51,
                "duration": 0.3045455,
                "tempo": 120.0
            },
            {
                "start_time": 160.3340909,
                "end_time": 160.9340909,
                "pitch": 72,
                "velocity": 51,
                "duration": 0.6,
                "tempo": 120.0
            },
            {
                "start_time": 161.1340909,
                "end_time": 161.7340909,
                "pitch": 76,
                "velocity": 51,
                "duration": 0.6,
                "tempo": 120.0
            },
            {
                "start_time": 161.9340909,
                "end_time": 162.5431818,
                "pitch": 72,
                "velocity": 51,
                "duration": 0.6090909,
                "tempo": 120.0
            },
            {
                "start_time": 162.7454545,
                "end_time": 163.3522727,
                "pitch": 69,
                "velocity": 51,
                "duration": 0.6068182,
                "tempo": 120.0
            },
            {
                "start_time": 163.5568182,
                "end_time": 164.7727273,
                "pitch": 69,
                "velocity": 51,
                "duration": 1.2159091,
                "tempo": 120.0
            },
            {
                "start_time": 165.1772727,
                "end_time": 166.0886364,
                "pitch": 76,
                "velocity": 51,
                "duration": 0.9113636,
                "tempo": 120.0
            },
            {
                "start_time": 166.3931818,
                "end_time": 166.6977273,
                "pitch": 76,
                "velocity": 51,
                "duration": 0.3045455,
                "tempo": 120.0
            },
            {
                "start_time": 166.8,
                "end_time": 167.7113636,
                "pitch": 75,
                "velocity": 51,
                "duration": 0.9113636,
                "tempo": 120.0
            },
            {
                "start_time": 168.0159091,
                "end_time": 168.3204545,
                "pitch": 74,
                "velocity": 51,
                "duration": 0.3045455,
                "tempo": 120.0
            },
            {
                "start_time": 168.4204545,
                "end_time": 169.3204545,
                "pitch": 76,
                "velocity": 51,
                "duration": 0.9,
                "tempo": 120.0
            },
            {
                "start_time": 169.6204545,
                "end_time": 169.9204545,
                "pitch": 81,
                "velocity": 51,
                "duration": 0.3,
                "tempo": 120.0
            },
            {
                "start_time": 170.0204545,
                "end_time": 170.6204545,
                "pitch": 76,
                "velocity": 51,
                "duration": 0.6,
                "tempo": 120.0
            },
            {
                "start_time": 170.8204545,
                "end_time": 171.1204545,
                "pitch": 74,
                "velocity": 51,
                "duration": 0.3,
                "tempo": 120.0
            },
            {
                "start_time": 171.2204545,
                "end_time": 171.5204545,
                "pitch": 74,
                "velocity": 51,
                "duration": 0.3,
                "tempo": 120.0
            },
            {
                "start_time": 171.6204545,
                "end_time": 172.2204545,
                "pitch": 72,
                "velocity": 51,
                "duration": 0.6,
                "tempo": 120.0
            },
            {
                "start_time": 172.4204545,
                "end_time": 172.7204545,
                "pitch": 71,
                "velocity": 51,
                "duration": 0.3,
                "tempo": 120.0
            },
            {
                "start_time": 172.8204545,
                "end_time": 173.1204545,
                "pitch": 71,
                "velocity": 51,
                "duration": 0.3,
                "tempo": 120.0
            },
            {
                "start_time": 173.2204545,
                "end_time": 173.8204545,
                "pitch": 72,
                "velocity": 51,
                "duration": 0.6,
                "tempo": 120.0
            },
            {
                "start_time": 174.0204545,
                "end_time": 174.6204545,
                "pitch": 76,
                "velocity": 51,
                "duration": 0.6,
                "tempo": 120.0
            },
            {
                "start_time": 174.8204545,
                "end_time": 178.6318182,
                "pitch": 81,
                "velocity": 51,
                "duration": 3.8113636,
                "tempo": 120.0
            }
        ],
        "Church Organ": [
            {
                "start_time": 0.4090909,
                "end_time": 1.225,
                "pitch": 59,
                "velocity": 40,
                "duration": 0.8159091,
                "tempo": 120.0
            },
            {
                "start_time": 1.3136364,
                "end_time": 1.9409091,
                "pitch": 59,
                "velocity": 25,
                "duration": 0.6272727,
                "tempo": 120.0
            },
            {
                "start_time": 1.9409091,
                "end_time": 2.4886364,
                "pitch": 59,
                "velocity": 40,
                "duration": 0.5477273,
                "tempo": 120.0
            },
            {
                "start_time": 2.575,
                "end_time": 2.8204545,
                "pitch": 59,
                "velocity": 25,
                "duration": 0.2454545,
                "tempo": 120.0
            },
            {
                "start_time": 3.1977273,
                "end_time": 3.7454545,
                "pitch": 59,
                "velocity": 25,
                "duration": 0.5477273,
                "tempo": 120.0
            },
            {
                "start_time": 3.8318182,
                "end_time": 4.3613636,
                "pitch": 57,
                "velocity": 25,
                "duration": 0.5295455,
                "tempo": 120.0
            },
            {
                "start_time": 4.4522727,
                "end_time": 5.0863636,
                "pitch": 57,
                "velocity": 25,
                "duration": 0.6340909,
                "tempo": 120.0
            },
            {
                "start_time": 5.0863636,
                "end_time": 5.3931818,
                "pitch": 57,
                "velocity": 25,
                "duration": 0.3068182,
                "tempo": 120.0
            },
            {
                "start_time": 5.7045455,
                "end_time": 6.9340909,
                "pitch": 57,
                "velocity": 40,
                "duration": 1.2295455,
                "tempo": 120.0
            },
            {
                "start_time": 6.9340909,
                "end_time": 7.5590909,
                "pitch": 59,
                "velocity": 25,
                "duration": 0.625,
                "tempo": 120.0
            },
            {
                "start_time": 7.5590909,
                "end_time": 7.8840909,
                "pitch": 59,
                "velocity": 40,
                "duration": 0.325,
                "tempo": 120.0
            },
            {
                "start_time": 8.1840909,
                "end_time": 10.375,
                "pitch": 59,
                "velocity": 40,
                "duration": 2.1909091,
                "tempo": 120.0
            },
            {
                "start_time": 10.6772727,
                "end_time": 12.5772727,
                "pitch": 57,
                "velocity": 25,
                "duration": 1.9,
                "tempo": 120.0
            },
            {
                "start_time": 12.5772727,
                "end_time": 12.8477273,
                "pitch": 57,
                "velocity": 25,
                "duration": 0.2704545,
                "tempo": 120.0
            },
            {
                "start_time": 12.8977273,
                "end_time": 13.4409091,
                "pitch": 57,
                "velocity": 40,
                "duration": 0.5431818,
                "tempo": 120.0
            },
            {
                "start_time": 13.5181818,
                "end_time": 14.325,
                "pitch": 57,
                "velocity": 25,
                "duration": 0.8068182,
                "tempo": 120.0
            },
            {
                "start_time": 14.4522727,
                "end_time": 15.0136364,
                "pitch": 57,
                "velocity": 25,
                "duration": 0.5613636,
                "tempo": 120.0
            },
            {
                "start_time": 15.1,
                "end_time": 15.2727273,
                "pitch": 57,
                "velocity": 25,
                "duration": 0.1727273,
                "tempo": 120.0
            },
            {
                "start_time": 16.0181818,
                "end_time": 17.0272727,
                "pitch": 50,
                "velocity": 40,
                "duration": 1.0090909,
                "tempo": 120.0
            },
            {
                "start_time": 17.1704545,
                "end_time": 17.7590909,
                "pitch": 50,
                "velocity": 40,
                "duration": 0.5886364,
                "tempo": 120.0
            },
            {
                "start_time": 18.0590909,
                "end_time": 19.0,
                "pitch": 52,
                "velocity": 40,
                "duration": 0.9409091,
                "tempo": 120.0
            },
            {
                "start_time": 19.0,
                "end_time": 20.275,
                "pitch": 60,
                "velocity": 40,
                "duration": 1.275,
                "tempo": 120.0
            },
            {
                "start_time": 20.5704545,
                "end_time": 21.1159091,
                "pitch": 57,
                "velocity": 25,
                "duration": 0.5454545,
                "tempo": 120.0
            },
            {
                "start_time": 21.1909091,
                "end_time": 21.8159091,
                "pitch": 57,
                "velocity": 25,
                "duration": 0.625,
                "tempo": 120.0
            },
            {
                "start_time": 21.8159091,
                "end_time": 22.3568182,
                "pitch": 57,
                "velocity": 25,
                "duration": 0.5409091,
                "tempo": 120.0
            },
            {
                "start_time": 22.4295455,
                "end_time": 22.7454545,
                "pitch": 57,
                "velocity": 25,
                "duration": 0.3159091,
                "tempo": 120.0
            },
            {
                "start_time": 23.0522727,
                "end_time": 24.6295455,
                "pitch": 57,
                "velocity": 25,
                "duration": 1.5772727,
                "tempo": 120.0
            },
            {
                "start_time": 24.6295455,
                "end_time": 25.2568182,
                "pitch": 57,
                "velocity": 25,
                "duration": 0.6272727,
                "tempo": 120.0
            },
            {
                "start_time": 25.5659091,
                "end_time": 26.1227273,
                "pitch": 57,
                "velocity": 25,
                "duration": 0.5568182,
                "tempo": 120.0
            },
            {
                "start_time": 26.1977273,
                "end_time": 27.1227273,
                "pitch": 59,
                "velocity": 25,
                "duration": 0.925,
                "tempo": 120.0
            },
            {
                "start_time": 27.1227273,
                "end_time": 27.7386364,
                "pitch": 59,
                "velocity": 25,
                "duration": 0.6159091,
                "tempo": 120.0
            },
            {
                "start_time": 28.05,
                "end_time": 30.4772727,
                "pitch": 59,
                "velocity": 25,
                "duration": 2.4272727,
                "tempo": 120.0
            },
            {
                "start_time": 30.8363636,
                "end_time": 31.4659091,
                "pitch": 57,
                "velocity": 25,
                "duration": 0.6295455,
                "tempo": 120.0
            },
            {
                "start_time": 31.5363636,
                "end_time": 32.2977273,
                "pitch": 57,
                "velocity": 25,
                "duration": 0.7613636,
                "tempo": 120.0
            },
            {
                "start_time": 32.2977273,
                "end_time": 32.9931818,
                "pitch": 57,
                "velocity": 25,
                "duration": 0.6954545,
                "tempo": 120.0
            },
            {
                "start_time": 33.0704545,
                "end_time": 33.4522727,
                "pitch": 57,
                "velocity": 25,
                "duration": 0.3818182,
                "tempo": 120.0
            },
            {
                "start_time": 33.8454545,
                "end_time": 35.8022727,
                "pitch": 57,
                "velocity": 25,
                "duration": 1.9568182,
                "tempo": 120.0
            },
            {
                "start_time": 35.8022727,
                "end_time": 36.5840909,
                "pitch": 57,
                "velocity": 25,
                "duration": 0.7818182,
                "tempo": 120.0
            },
            {
                "start_time": 36.9886364,
                "end_time": 37.6795455,
                "pitch": 57,
                "velocity": 25,
                "duration": 0.6909091,
                "tempo": 120.0
            },
            {
                "start_time": 37.7909091,
                "end_time": 38.9977273,
                "pitch": 59,
                "velocity": 25,
                "duration": 1.2068182,
                "tempo": 120.0
            },
            {
                "start_time": 38.9977273,
                "end_time": 39.85,
                "pitch": 59,
                "velocity": 25,
                "duration": 0.8522727,
                "tempo": 120.0
            },
            {
                "start_time": 39.85,
                "end_time": 43.9272727,
                "pitch": 59,
                "velocity": 25,
                "duration": 4.0772727,
                "tempo": 120.0
            },
            {
                "start_time": 46.9590909,
                "end_time": 47.0568182,
                "pitch": 57,
                "velocity": 10,
                "duration": 0.0977273,
                "tempo": 120.0
            },
            {
                "start_time": 47.7386364,
                "end_time": 48.3727273,
                "pitch": 62,
                "velocity": 25,
                "duration": 0.6340909,
                "tempo": 120.0
            },
            {
                "start_time": 49.4295455,
                "end_time": 50.0386364,
                "pitch": 62,
                "velocity": 25,
                "duration": 0.6090909,
                "tempo": 120.0
            },
            {
                "start_time": 51.0522727,
                "end_time": 51.6522727,
                "pitch": 62,
                "velocity": 25,
                "duration": 0.6,
                "tempo": 120.0
            },
            {
                "start_time": 52.6522727,
                "end_time": 53.2522727,
                "pitch": 60,
                "velocity": 25,
                "duration": 0.6,
                "tempo": 120.0
            },
            {
                "start_time": 54.2522727,
                "end_time": 54.8590909,
                "pitch": 60,
                "velocity": 25,
                "duration": 0.6068182,
                "tempo": 120.0
            },
            {
                "start_time": 55.8727273,
                "end_time": 56.4818182,
                "pitch": 62,
                "velocity": 25,
                "duration": 0.6090909,
                "tempo": 120.0
            },
            {
                "start_time": 57.4954545,
                "end_time": 58.0954545,
                "pitch": 62,
                "velocity": 25,
                "duration": 0.6,
                "tempo": 120.0
            },
            {
                "start_time": 59.0954545,
                "end_time": 59.6954545,
                "pitch": 60,
                "velocity": 25,
                "duration": 0.6,
                "tempo": 120.0
            },
            {
                "start_time": 60.6954545,
                "end_time": 61.2954545,
                "pitch": 60,
                "velocity": 25,
                "duration": 0.6,
                "tempo": 120.0
            },
            {
                "start_time": 62.2954545,
                "end_time": 62.9022727,
                "pitch": 62,
                "velocity": 25,
                "duration": 0.6068182,
                "tempo": 120.0
            },
            {
                "start_time": 63.9159091,
                "end_time": 64.5159091,
                "pitch": 62,
                "velocity": 25,
                "duration": 0.6,
                "tempo": 120.0
            },
            {
                "start_time": 65.5159091,
                "end_time": 66.125,
                "pitch": 60,
                "velocity": 25,
                "duration": 0.6090909,
                "tempo": 120.0
            },
            {
                "start_time": 67.1386364,
                "end_time": 67.7386364,
                "pitch": 60,
                "velocity": 25,
                "duration": 0.6,
                "tempo": 120.0
            },
            {
                "start_time": 68.7386364,
                "end_time": 69.3386364,
                "pitch": 62,
                "velocity": 25,
                "duration": 0.6,
                "tempo": 120.0
            },
            {
                "start_time": 70.3386364,
                "end_time": 70.9454545,
                "pitch": 62,
                "velocity": 25,
                "duration": 0.6068182,
                "tempo": 120.0
            },
            {
                "start_time": 71.9590909,
                "end_time": 72.5681818,
                "pitch": 60,
                "velocity": 25,
                "duration": 0.6090909,
                "tempo": 120.0
            },
            {
                "start_time": 73.5818182,
                "end_time": 74.1818182,
                "pitch": 60,
                "velocity": 25,
                "duration": 0.6,
                "tempo": 120.0
            },
            {
                "start_time": 75.1818182,
                "end_time": 75.7818182,
                "pitch": 62,
                "velocity": 25,
                "duration": 0.6,
                "tempo": 120.0
            },
            {
                "start_time": 76.7818182,
                "end_time": 77.3818182,
                "pitch": 62,
                "velocity": 25,
                "duration": 0.6,
                "tempo": 120.0
            },
            {
                "start_time": 78.3818182,
                "end_time": 78.9886364,
                "pitch": 60,
                "velocity": 25,
                "duration": 0.6068182,
                "tempo": 120.0
            },
            {
                "start_time": 80.0022727,
                "end_time": 80.6022727,
                "pitch": 60,
                "velocity": 25,
                "duration": 0.6,
                "tempo": 120.0
            },
            {
                "start_time": 81.6022727,
                "end_time": 82.2113636,
                "pitch": 62,
                "velocity": 25,
                "duration": 0.6090909,
                "tempo": 120.0
            },
            {
                "start_time": 83.225,
                "end_time": 83.825,
                "pitch": 62,
                "velocity": 25,
                "duration": 0.6,
                "tempo": 120.0
            },
            {
                "start_time": 84.825,
                "end_time": 85.4318182,
                "pitch": 60,
                "velocity": 25,
                "duration": 0.6068182,
                "tempo": 120.0
            },
            {
                "start_time": 86.4454545,
                "end_time": 87.0454545,
                "pitch": 60,
                "velocity": 25,
                "duration": 0.6,
                "tempo": 120.0
            },
            {
                "start_time": 88.0454545,
                "end_time": 88.6454545,
                "pitch": 62,
                "velocity": 25,
                "duration": 0.6,
                "tempo": 120.0
            },
            {
                "start_time": 89.6454545,
                "end_time": 90.2545455,
                "pitch": 62,
                "velocity": 25,
                "duration": 0.6090909,
                "tempo": 120.0
            },
            {
                "start_time": 91.2659091,
                "end_time": 91.8681818,
                "pitch": 60,
                "velocity": 25,
                "duration": 0.6022727,
                "tempo": 120.0
            },
            {
                "start_time": 92.8681818,
                "end_time": 93.475,
                "pitch": 60,
                "velocity": 25,
                "duration": 0.6068182,
                "tempo": 120.0
            },
            {
                "start_time": 94.4886364,
                "end_time": 95.0886364,
                "pitch": 62,
                "velocity": 25,
                "duration": 0.6,
                "tempo": 120.0
            },
            {
                "start_time": 96.0886364,
                "end_time": 96.6886364,
                "pitch": 62,
                "velocity": 25,
                "duration": 0.6,
                "tempo": 120.0
            },
            {
                "start_time": 97.6886364,
                "end_time": 98.2977273,
                "pitch": 60,
                "velocity": 25,
                "duration": 0.6090909,
                "tempo": 120.0
            },
            {
                "start_time": 99.3090909,
                "end_time": 99.9090909,
                "pitch": 60,
                "velocity": 25,
                "duration": 0.6,
                "tempo": 120.0
            },
            {
                "start_time": 100.9090909,
                "end_time": 101.5181818,
                "pitch": 60,
                "velocity": 25,
                "duration": 0.6090909,
                "tempo": 120.0
            },
            {
                "start_time": 102.5318182,
                "end_time": 103.1318182,
                "pitch": 60,
                "velocity": 25,
                "duration": 0.6,
                "tempo": 120.0
            },
            {
                "start_time": 104.1318182,
                "end_time": 104.7318182,
                "pitch": 60,
                "velocity": 25,
                "duration": 0.6,
                "tempo": 120.0
            },
            {
                "start_time": 105.7318182,
                "end_time": 106.3386364,
                "pitch": 60,
                "velocity": 25,
                "duration": 0.6068182,
                "tempo": 120.0
            },
            {
                "start_time": 107.3522727,
                "end_time": 107.9522727,
                "pitch": 62,
                "velocity": 25,
                "duration": 0.6,
                "tempo": 120.0
            },
            {
                "start_time": 108.9522727,
                "end_time": 109.5522727,
                "pitch": 62,
                "velocity": 25,
                "duration": 0.6,
                "tempo": 120.0
            },
            {
                "start_time": 110.5522727,
                "end_time": 111.1613636,
                "pitch": 60,
                "velocity": 25,
                "duration": 0.6090909,
                "tempo": 120.0
            },
            {
                "start_time": 112.175,
                "end_time": 112.775,
                "pitch": 60,
                "velocity": 25,
                "duration": 0.6,
                "tempo": 120.0
            },
            {
                "start_time": 113.775,
                "end_time": 114.375,
                "pitch": 60,
                "velocity": 25,
                "duration": 0.6,
                "tempo": 120.0
            },
            {
                "start_time": 115.375,
                "end_time": 115.975,
                "pitch": 60,
                "velocity": 25,
                "duration": 0.6,
                "tempo": 120.0
            },
            {
                "start_time": 116.975,
                "end_time": 117.5818182,
                "pitch": 60,
                "velocity": 25,
                "duration": 0.6068182,
                "tempo": 120.0
            },
            {
                "start_time": 118.5954545,
                "end_time": 119.1954545,
                "pitch": 60,
                "velocity": 25,
                "duration": 0.6,
                "tempo": 120.0
            },
            {
                "start_time": 120.1954545,
                "end_time": 120.7954545,
                "pitch": 62,
                "velocity": 25,
                "duration": 0.6,
                "tempo": 120.0
            },
            {
                "start_time": 121.7954545,
                "end_time": 122.4045455,
                "pitch": 62,
                "velocity": 25,
                "duration": 0.6090909,
                "tempo": 120.0
            },
            {
                "start_time": 123.4181818,
                "end_time": 124.025,
                "pitch": 60,
                "velocity": 25,
                "duration": 0.6068182,
                "tempo": 120.0
            },
            {
                "start_time": 124.2272727,
                "end_time": 127.0840909,
                "pitch": 60,
                "velocity": 25,
                "duration": 2.8568182,
                "tempo": 120.0
            },
            {
                "start_time": 127.8840909,
                "end_time": 128.575,
                "pitch": 60,
                "velocity": 40,
                "duration": 0.6909091,
                "tempo": 120.0
            },
            {
                "start_time": 128.6727273,
                "end_time": 129.4522727,
                "pitch": 59,
                "velocity": 25,
                "duration": 0.7795455,
                "tempo": 120.0
            },
            {
                "start_time": 129.4522727,
                "end_time": 130.1431818,
                "pitch": 59,
                "velocity": 40,
                "duration": 0.6909091,
                "tempo": 120.0
            },
            {
                "start_time": 130.2431818,
                "end_time": 130.5613636,
                "pitch": 59,
                "velocity": 25,
                "duration": 0.3181818,
                "tempo": 120.0
            },
            {
                "start_time": 131.0431818,
                "end_time": 131.7431818,
                "pitch": 59,
                "velocity": 25,
                "duration": 0.7,
                "tempo": 120.0
            },
            {
                "start_time": 131.8431818,
                "end_time": 132.5431818,
                "pitch": 57,
                "velocity": 25,
                "duration": 0.7,
                "tempo": 120.0
            },
            {
                "start_time": 132.6431818,
                "end_time": 133.4431818,
                "pitch": 57,
                "velocity": 25,
                "duration": 0.8,
                "tempo": 120.0
            },
            {
                "start_time": 133.4431818,
                "end_time": 133.8431818,
                "pitch": 57,
                "velocity": 25,
                "duration": 0.4,
                "tempo": 120.0
            },
            {
                "start_time": 134.2431818,
                "end_time": 135.8431818,
                "pitch": 57,
                "velocity": 40,
                "duration": 1.6,
                "tempo": 120.0
            },
            {
                "start_time": 135.8431818,
                "end_time": 136.5477273,
                "pitch": 59,
                "velocity": 25,
                "duration": 0.7045455,
                "tempo": 120.0
            },
            {
                "start_time": 136.5477273,
                "end_time": 136.8886364,
                "pitch": 59,
                "velocity": 40,
                "duration": 0.3409091,
                "tempo": 120.0
            },
            {
                "start_time": 137.2295455,
                "end_time": 139.7159091,
                "pitch": 59,
                "velocity": 40,
                "duration": 2.4863636,
                "tempo": 120.0
            },
            {
                "start_time": 140.0863636,
                "end_time": 142.3886364,
                "pitch": 57,
                "velocity": 25,
                "duration": 2.3022727,
                "tempo": 120.0
            },
            {
                "start_time": 142.3886364,
                "end_time": 142.6818182,
                "pitch": 57,
                "velocity": 25,
                "duration": 0.2931818,
                "tempo": 120.0
            },
            {
                "start_time": 142.7545455,
                "end_time": 143.4522727,
                "pitch": 57,
                "velocity": 40,
                "duration": 0.6977273,
                "tempo": 120.0
            },
            {
                "start_time": 143.5522727,
                "end_time": 144.5727273,
                "pitch": 57,
                "velocity": 25,
                "duration": 1.0204545,
                "tempo": 120.0
            },
            {
                "start_time": 144.7568182,
                "end_time": 145.4659091,
                "pitch": 57,
                "velocity": 25,
                "duration": 0.7090909,
                "tempo": 120.0
            },
            {
                "start_time": 145.5659091,
                "end_time": 145.7909091,
                "pitch": 57,
                "velocity": 25,
                "duration": 0.225,
                "tempo": 120.0
            },
            {
                "start_time": 146.7522727,
                "end_time": 148.1590909,
                "pitch": 50,
                "velocity": 40,
                "duration": 1.4068182,
                "tempo": 120.0
            },
            {
                "start_time": 148.3704545,
                "end_time": 149.2136364,
                "pitch": 50,
                "velocity": 40,
                "duration": 0.8431818,
                "tempo": 120.0
            },
            {
                "start_time": 149.6,
                "end_time": 150.7522727,
                "pitch": 52,
                "velocity": 40,
                "duration": 1.1522727,
                "tempo": 120.0
            },
            {
                "start_time": 150.7522727,
                "end_time": 152.3522727,
                "pitch": 60,
                "velocity": 40,
                "duration": 1.6,
                "tempo": 120.0
            },
            {
                "start_time": 152.7522727,
                "end_time": 153.4522727,
                "pitch": 57,
                "velocity": 25,
                "duration": 0.7,
                "tempo": 120.0
            },
            {
                "start_time": 153.5522727,
                "end_time": 154.3590909,
                "pitch": 57,
                "velocity": 25,
                "duration": 0.8068182,
                "tempo": 120.0
            },
            {
                "start_time": 154.3590909,
                "end_time": 155.0681818,
                "pitch": 57,
                "velocity": 25,
                "duration": 0.7090909,
                "tempo": 120.0
            },
            {
                "start_time": 155.1681818,
                "end_time": 155.5727273,
                "pitch": 57,
                "velocity": 25,
                "duration": 0.4045455,
                "tempo": 120.0
            },
            {
                "start_time": 155.9613636,
                "end_time": 157.9431818,
                "pitch": 57,
                "velocity": 25,
                "duration": 1.9818182,
                "tempo": 120.0
            },
            {
                "start_time": 157.9431818,
                "end_time": 158.7545455,
                "pitch": 57,
                "velocity": 25,
                "duration": 0.8113636,
                "tempo": 120.0
            },
            {
                "start_time": 159.1590909,
                "end_time": 159.8681818,
                "pitch": 57,
                "velocity": 25,
                "duration": 0.7090909,
                "tempo": 120.0
            },
            {
                "start_time": 159.9704545,
                "end_time": 161.175,
                "pitch": 59,
                "velocity": 25,
                "duration": 1.2045455,
                "tempo": 120.0
            },
            {
                "start_time": 161.175,
                "end_time": 161.975,
                "pitch": 59,
                "velocity": 25,
                "duration": 0.8,
                "tempo": 120.0
            },
            {
                "start_time": 162.3795455,
                "end_time": 165.2181818,
                "pitch": 59,
                "velocity": 25,
                "duration": 2.8386364,
                "tempo": 120.0
            },
            {
                "start_time": 165.6227273,
                "end_time": 166.3340909,
                "pitch": 57,
                "velocity": 25,
                "duration": 0.7113636,
                "tempo": 120.0
            },
            {
                "start_time": 166.4340909,
                "end_time": 167.2454545,
                "pitch": 57,
                "velocity": 25,
                "duration": 0.8113636,
                "tempo": 120.0
            },
            {
                "start_time": 167.2454545,
                "end_time": 167.9545455,
                "pitch": 57,
                "velocity": 25,
                "duration": 0.7090909,
                "tempo": 120.0
            },
            {
                "start_time": 168.0568182,
                "end_time": 168.4613636,
                "pitch": 57,
                "velocity": 25,
                "duration": 0.4045455,
                "tempo": 120.0
            },
            {
                "start_time": 168.8613636,
                "end_time": 170.8613636,
                "pitch": 57,
                "velocity": 25,
                "duration": 2.0,
                "tempo": 120.0
            },
            {
                "start_time": 170.8613636,
                "end_time": 171.6613636,
                "pitch": 57,
                "velocity": 25,
                "duration": 0.8,
                "tempo": 120.0
            },
            {
                "start_time": 172.0613636,
                "end_time": 172.7613636,
                "pitch": 57,
                "velocity": 25,
                "duration": 0.7,
                "tempo": 120.0
            },
            {
                "start_time": 172.8613636,
                "end_time": 174.0613636,
                "pitch": 59,
                "velocity": 25,
                "duration": 1.2,
                "tempo": 120.0
            },
            {
                "start_time": 174.0613636,
                "end_time": 174.8613636,
                "pitch": 59,
                "velocity": 25,
                "duration": 0.8,
                "tempo": 120.0
            },
            {
                "start_time": 174.8613636,
                "end_time": 178.4863636,
                "pitch": 59,
                "velocity": 25,
                "duration": 3.625,
                "tempo": 120.0
            }
        ],
        "Acoustic Guitar (nylon)": [
            {
                "start_time": 46.9590909,
                "end_time": 47.35,
                "pitch": 52,
                "velocity": 51,
                "duration": 0.3909091,
                "tempo": 120.0
            },
            {
                "start_time": 47.35,
                "end_time": 47.7386364,
                "pitch": 59,
                "velocity": 51,
                "duration": 0.3886364,
                "tempo": 120.0
            },
            {
                "start_time": 47.7386364,
                "end_time": 48.1613636,
                "pitch": 62,
                "velocity": 51,
                "duration": 0.4227273,
                "tempo": 120.0
            },
            {
                "start_time": 48.1613636,
                "end_time": 48.5840909,
                "pitch": 59,
                "velocity": 51,
                "duration": 0.4227273,
                "tempo": 120.0
            },
            {
                "start_time": 48.5840909,
                "end_time": 49.0068182,
                "pitch": 68,
                "velocity": 51,
                "duration": 0.4227273,
                "tempo": 120.0
            },
            {
                "start_time": 49.0068182,
                "end_time": 49.4295455,
                "pitch": 59,
                "velocity": 51,
                "duration": 0.4227273,
                "tempo": 120.0
            },
            {
                "start_time": 49.4295455,
                "end_time": 49.8363636,
                "pitch": 62,
                "velocity": 51,
                "duration": 0.4068182,
                "tempo": 120.0
            },
            {
                "start_time": 49.8363636,
                "end_time": 50.1590909,
                "pitch": 59,
                "velocity": 51,
                "duration": 0.3227273,
                "tempo": 120.0
            },
            {
                "start_time": 50.2409091,
                "end_time": 50.6454545,
                "pitch": 52,
                "velocity": 32,
                "duration": 0.4045455,
                "tempo": 120.0
            },
            {
                "start_time": 50.6454545,
                "end_time": 51.0522727,
                "pitch": 57,
                "velocity": 32,
                "duration": 0.4068182,
                "tempo": 120.0
            },
            {
                "start_time": 51.0522727,
                "end_time": 51.4522727,
                "pitch": 60,
                "velocity": 32,
                "duration": 0.4,
                "tempo": 120.0
            },
            {
                "start_time": 51.4522727,
                "end_time": 51.8522727,
                "pitch": 57,
                "velocity": 32,
                "duration": 0.4,
                "tempo": 120.0
            },
            {
                "start_time": 51.8522727,
                "end_time": 52.2522727,
                "pitch": 64,
                "velocity": 32,
                "duration": 0.4,
                "tempo": 120.0
            },
            {
                "start_time": 52.2522727,
                "end_time": 52.6522727,
                "pitch": 57,
                "velocity": 32,
                "duration": 0.4,
                "tempo": 120.0
            },
            {
                "start_time": 52.6522727,
                "end_time": 53.0522727,
                "pitch": 60,
                "velocity": 32,
                "duration": 0.4,
                "tempo": 120.0
            },
            {
                "start_time": 53.0522727,
                "end_time": 53.4522727,
                "pitch": 57,
                "velocity": 32,
                "duration": 0.4,
                "tempo": 120.0
            },
            {
                "start_time": 53.4522727,
                "end_time": 53.8522727,
                "pitch": 52,
                "velocity": 32,
                "duration": 0.4,
                "tempo": 120.0
            },
            {
                "start_time": 53.8522727,
                "end_time": 54.2522727,
                "pitch": 59,
                "velocity": 32,
                "duration": 0.4,
                "tempo": 120.0
            },
            {
                "start_time": 54.2522727,
                "end_time": 54.6568182,
                "pitch": 62,
                "velocity": 32,
                "duration": 0.4045455,
                "tempo": 120.0
            },
            {
                "start_time": 54.6568182,
                "end_time": 55.0613636,
                "pitch": 68,
                "velocity": 32,
                "duration": 0.4045455,
                "tempo": 120.0
            },
            {
                "start_time": 55.0613636,
                "end_time": 55.4681818,
                "pitch": 62,
                "velocity": 32,
                "duration": 0.4068182,
                "tempo": 120.0
            },
            {
                "start_time": 55.4681818,
                "end_time": 55.8727273,
                "pitch": 59,
                "velocity": 32,
                "duration": 0.4045455,
                "tempo": 120.0
            },
            {
                "start_time": 55.8727273,
                "end_time": 56.2795455,
                "pitch": 52,
                "velocity": 32,
                "duration": 0.4068182,
                "tempo": 120.0
            },
            {
                "start_time": 56.2795455,
                "end_time": 56.6840909,
                "pitch": 59,
                "velocity": 32,
                "duration": 0.4045455,
                "tempo": 120.0
            },
            {
                "start_time": 56.6840909,
                "end_time": 57.0886364,
                "pitch": 52,
                "velocity": 32,
                "duration": 0.4045455,
                "tempo": 120.0
            },
            {
                "start_time": 57.0886364,
                "end_time": 57.4954545,
                "pitch": 57,
                "velocity": 32,
                "duration": 0.4068182,
                "tempo": 120.0
            },
            {
                "start_time": 57.4954545,
                "end_time": 57.8954545,
                "pitch": 60,
                "velocity": 32,
                "duration": 0.4,
                "tempo": 120.0
            },
            {
                "start_time": 57.8954545,
                "end_time": 58.2954545,
                "pitch": 64,
                "velocity": 32,
                "duration": 0.4,
                "tempo": 120.0
            },
            {
                "start_time": 58.2954545,
                "end_time": 59.0954545,
                "pitch": 60,
                "velocity": 32,
                "duration": 0.8,
                "tempo": 120.0
            },
            {
                "start_time": 59.0954545,
                "end_time": 59.8954545,
                "pitch": 57,
                "velocity": 32,
                "duration": 0.8,
                "tempo": 120.0
            },
            {
                "start_time": 59.8954545,
                "end_time": 60.2954545,
                "pitch": 65,
                "velocity": 51,
                "duration": 0.4,
                "tempo": 120.0
            },
            {
                "start_time": 60.2954545,
                "end_time": 60.6954545,
                "pitch": 57,
                "velocity": 51,
                "duration": 0.4,
                "tempo": 120.0
            },
            {
                "start_time": 60.6954545,
                "end_time": 61.0954545,
                "pitch": 62,
                "velocity": 51,
                "duration": 0.4,
                "tempo": 120.0
            },
            {
                "start_time": 61.0954545,
                "end_time": 61.4159091,
                "pitch": 65,
                "velocity": 51,
                "duration": 0.3204545,
                "tempo": 120.0
            },
            {
                "start_time": 61.4954545,
                "end_time": 61.6545455,
                "pitch": 65,
                "velocity": 51,
                "duration": 0.1590909,
                "tempo": 120.0
            },
            {
                "start_time": 61.6954545,
                "end_time": 61.8159091,
                "pitch": 67,
                "velocity": 32,
                "duration": 0.1204545,
                "tempo": 120.0
            },
            {
                "start_time": 61.8954545,
                "end_time": 62.2954545,
                "pitch": 65,
                "velocity": 13,
                "duration": 0.4,
                "tempo": 120.0
            },
            {
                "start_time": 62.2954545,
                "end_time": 62.7,
                "pitch": 62,
                "velocity": 13,
                "duration": 0.4045455,
                "tempo": 120.0
            },
            {
                "start_time": 62.7,
                "end_time": 63.025,
                "pitch": 57,
                "velocity": 13,
                "duration": 0.325,
                "tempo": 120.0
            },
            {
                "start_time": 63.1045455,
                "end_time": 63.5113636,
                "pitch": 64,
                "velocity": 51,
                "duration": 0.4068182,
                "tempo": 120.0
            },
            {
                "start_time": 63.5113636,
                "end_time": 63.9159091,
                "pitch": 52,
                "velocity": 51,
                "duration": 0.4045455,
                "tempo": 120.0
            },
            {
                "start_time": 63.9159091,
                "end_time": 64.3159091,
                "pitch": 57,
                "velocity": 51,
                "duration": 0.4,
                "tempo": 120.0
            },
            {
                "start_time": 64.3159091,
                "end_time": 64.7159091,
                "pitch": 64,
                "velocity": 51,
                "duration": 0.4,
                "tempo": 120.0
            },
            {
                "start_time": 64.7159091,
                "end_time": 65.1159091,
                "pitch": 60,
                "velocity": 51,
                "duration": 0.4,
                "tempo": 120.0
            },
            {
                "start_time": 65.1159091,
                "end_time": 65.5159091,
                "pitch": 57,
                "velocity": 51,
                "duration": 0.4,
                "tempo": 120.0
            },
            {
                "start_time": 65.5159091,
                "end_time": 65.9204545,
                "pitch": 52,
                "velocity": 51,
                "duration": 0.4045455,
                "tempo": 120.0
            },
            {
                "start_time": 65.9204545,
                "end_time": 66.1454545,
                "pitch": 57,
                "velocity": 51,
                "duration": 0.225,
                "tempo": 120.0
            },
            {
                "start_time": 66.3272727,
                "end_time": 66.7318182,
                "pitch": 57,
                "velocity": 32,
                "duration": 0.4045455,
                "tempo": 120.0
            },
            {
                "start_time": 66.7318182,
                "end_time": 67.1386364,
                "pitch": 47,
                "velocity": 32,
                "duration": 0.4068182,
                "tempo": 120.0
            },
            {
                "start_time": 67.1386364,
                "end_time": 67.5386364,
                "pitch": 50,
                "velocity": 32,
                "duration": 0.4,
                "tempo": 120.0
            },
            {
                "start_time": 67.5386364,
                "end_time": 68.7386364,
                "pitch": 57,
                "velocity": 32,
                "duration": 1.2,
                "tempo": 120.0
            },
            {
                "start_time": 68.7386364,
                "end_time": 69.1386364,
                "pitch": 50,
                "velocity": 32,
                "duration": 0.4,
                "tempo": 120.0
            },
            {
                "start_time": 69.1386364,
                "end_time": 69.4568182,
                "pitch": 47,
                "velocity": 32,
                "duration": 0.3181818,
                "tempo": 120.0
            },
            {
                "start_time": 69.5386364,
                "end_time": 69.9386364,
                "pitch": 45,
                "velocity": 32,
                "duration": 0.4,
                "tempo": 120.0
            },
            {
                "start_time": 69.9386364,
                "end_time": 70.3386364,
                "pitch": 52,
                "velocity": 32,
                "duration": 0.4,
                "tempo": 120.0
            },
            {
                "start_time": 70.3386364,
                "end_time": 70.7431818,
                "pitch": 57,
                "velocity": 32,
                "duration": 0.4045455,
                "tempo": 120.0
            },
            {
                "start_time": 70.7431818,
                "end_time": 71.1477273,
                "pitch": 60,
                "velocity": 32,
                "duration": 0.4045455,
                "tempo": 120.0
            },
            {
                "start_time": 71.1477273,
                "end_time": 72.7704545,
                "pitch": 69,
                "velocity": 32,
                "duration": 1.6227273,
                "tempo": 120.0
            },
            {
                "start_time": 72.7704545,
                "end_time": 73.175,
                "pitch": 52,
                "velocity": 32,
                "duration": 0.4045455,
                "tempo": 120.0
            },
            {
                "start_time": 73.175,
                "end_time": 73.5818182,
                "pitch": 59,
                "velocity": 51,
                "duration": 0.4068182,
                "tempo": 120.0
            },
            {
                "start_time": 73.5818182,
                "end_time": 73.9818182,
                "pitch": 62,
                "velocity": 51,
                "duration": 0.4,
                "tempo": 120.0
            },
            {
                "start_time": 73.9818182,
                "end_time": 74.3818182,
                "pitch": 59,
                "velocity": 51,
                "duration": 0.4,
                "tempo": 120.0
            },
            {
                "start_time": 74.3818182,
                "end_time": 74.7818182,
                "pitch": 68,
                "velocity": 51,
                "duration": 0.4,
                "tempo": 120.0
            },
            {
                "start_time": 74.7818182,
                "end_time": 75.1818182,
                "pitch": 59,
                "velocity": 51,
                "duration": 0.4,
                "tempo": 120.0
            },
            {
                "start_time": 75.1818182,
                "end_time": 75.5818182,
                "pitch": 62,
                "velocity": 51,
                "duration": 0.4,
                "tempo": 120.0
            },
            {
                "start_time": 75.5818182,
                "end_time": 75.9,
                "pitch": 59,
                "velocity": 32,
                "duration": 0.3181818,
                "tempo": 120.0
            },
            {
                "start_time": 75.9818182,
                "end_time": 76.3818182,
                "pitch": 52,
                "velocity": 32,
                "duration": 0.4,
                "tempo": 120.0
            },
            {
                "start_time": 76.3818182,
                "end_time": 76.7818182,
                "pitch": 57,
                "velocity": 32,
                "duration": 0.4,
                "tempo": 120.0
            },
            {
                "start_time": 76.7818182,
                "end_time": 77.1818182,
                "pitch": 60,
                "velocity": 32,
                "duration": 0.4,
                "tempo": 120.0
            },
            {
                "start_time": 77.1818182,
                "end_time": 77.5818182,
                "pitch": 57,
                "velocity": 32,
                "duration": 0.4,
                "tempo": 120.0
            },
            {
                "start_time": 77.5818182,
                "end_time": 77.9818182,
                "pitch": 64,
                "velocity": 32,
                "duration": 0.4,
                "tempo": 120.0
            },
            {
                "start_time": 77.9818182,
                "end_time": 78.3818182,
                "pitch": 57,
                "velocity": 32,
                "duration": 0.4,
                "tempo": 120.0
            },
            {
                "start_time": 78.3818182,
                "end_time": 78.7863636,
                "pitch": 60,
                "velocity": 32,
                "duration": 0.4045455,
                "tempo": 120.0
            },
            {
                "start_time": 78.7863636,
                "end_time": 79.1909091,
                "pitch": 57,
                "velocity": 32,
                "duration": 0.4045455,
                "tempo": 120.0
            },
            {
                "start_time": 79.1909091,
                "end_time": 79.5977273,
                "pitch": 52,
                "velocity": 32,
                "duration": 0.4068182,
                "tempo": 120.0
            },
            {
                "start_time": 79.5977273,
                "end_time": 80.0022727,
                "pitch": 59,
                "velocity": 51,
                "duration": 0.4045455,
                "tempo": 120.0
            },
            {
                "start_time": 80.0022727,
                "end_time": 80.4022727,
                "pitch": 62,
                "velocity": 51,
                "duration": 0.4,
                "tempo": 120.0
            },
            {
                "start_time": 80.4022727,
                "end_time": 80.8022727,
                "pitch": 68,
                "velocity": 51,
                "duration": 0.4,
                "tempo": 120.0
            },
            {
                "start_time": 80.8022727,
                "end_time": 81.2022727,
                "pitch": 62,
                "velocity": 51,
                "duration": 0.4,
                "tempo": 120.0
            },
            {
                "start_time": 81.2022727,
                "end_time": 81.6022727,
                "pitch": 59,
                "velocity": 51,
                "duration": 0.4,
                "tempo": 120.0
            },
            {
                "start_time": 81.6022727,
                "end_time": 82.0090909,
                "pitch": 52,
                "velocity": 51,
                "duration": 0.4068182,
                "tempo": 120.0
            },
            {
                "start_time": 82.0090909,
                "end_time": 82.4136364,
                "pitch": 59,
                "velocity": 51,
                "duration": 0.4045455,
                "tempo": 120.0
            },
            {
                "start_time": 82.4136364,
                "end_time": 82.8181818,
                "pitch": 52,
                "velocity": 32,
                "duration": 0.4045455,
                "tempo": 120.0
            },
            {
                "start_time": 82.8181818,
                "end_time": 83.225,
                "pitch": 57,
                "velocity": 32,
                "duration": 0.4068182,
                "tempo": 120.0
            },
            {
                "start_time": 83.225,
                "end_time": 83.625,
                "pitch": 60,
                "velocity": 32,
                "duration": 0.4,
                "tempo": 120.0
            },
            {
                "start_time": 83.625,
                "end_time": 84.025,
                "pitch": 64,
                "velocity": 32,
                "duration": 0.4,
                "tempo": 120.0
            },
            {
                "start_time": 84.025,
                "end_time": 84.825,
                "pitch": 60,
                "velocity": 32,
                "duration": 0.8,
                "tempo": 120.0
            },
            {
                "start_time": 84.825,
                "end_time": 85.6340909,
                "pitch": 57,
                "velocity": 32,
                "duration": 0.8090909,
                "tempo": 120.0
            },
            {
                "start_time": 85.6340909,
                "end_time": 86.0409091,
                "pitch": 65,
                "velocity": 51,
                "duration": 0.4068182,
                "tempo": 120.0
            },
            {
                "start_time": 86.0409091,
                "end_time": 86.4454545,
                "pitch": 57,
                "velocity": 51,
                "duration": 0.4045455,
                "tempo": 120.0
            },
            {
                "start_time": 86.4454545,
                "end_time": 86.8454545,
                "pitch": 62,
                "velocity": 51,
                "duration": 0.4,
                "tempo": 120.0
            },
            {
                "start_time": 86.8454545,
                "end_time": 87.1659091,
                "pitch": 65,
                "velocity": 51,
                "duration": 0.3204545,
                "tempo": 120.0
            },
            {
                "start_time": 87.2454545,
                "end_time": 87.4045455,
                "pitch": 65,
                "velocity": 51,
                "duration": 0.1590909,
                "tempo": 120.0
            },
            {
                "start_time": 87.4454545,
                "end_time": 87.5659091,
                "pitch": 67,
                "velocity": 32,
                "duration": 0.1204545,
                "tempo": 120.0
            },
            {
                "start_time": 87.6454545,
                "end_time": 88.0454545,
                "pitch": 65,
                "velocity": 13,
                "duration": 0.4,
                "tempo": 120.0
            },
            {
                "start_time": 88.0454545,
                "end_time": 88.4454545,
                "pitch": 62,
                "velocity": 13,
                "duration": 0.4,
                "tempo": 120.0
            },
            {
                "start_time": 88.4454545,
                "end_time": 88.7659091,
                "pitch": 57,
                "velocity": 13,
                "duration": 0.3204545,
                "tempo": 120.0
            },
            {
                "start_time": 88.8454545,
                "end_time": 89.2454545,
                "pitch": 64,
                "velocity": 51,
                "duration": 0.4,
                "tempo": 120.0
            },
            {
                "start_time": 89.2454545,
                "end_time": 89.6454545,
                "pitch": 52,
                "velocity": 51,
                "duration": 0.4,
                "tempo": 120.0
            },
            {
                "start_time": 89.6454545,
                "end_time": 90.05,
                "pitch": 57,
                "velocity": 51,
                "duration": 0.4045455,
                "tempo": 120.0
            },
            {
                "start_time": 90.05,
                "end_time": 90.4568182,
                "pitch": 64,
                "velocity": 51,
                "duration": 0.4068182,
                "tempo": 120.0
            },
            {
                "start_time": 90.4568182,
                "end_time": 90.8613636,
                "pitch": 60,
                "velocity": 51,
                "duration": 0.4045455,
                "tempo": 120.0
            },
            {
                "start_time": 90.8613636,
                "end_time": 91.2659091,
                "pitch": 57,
                "velocity": 51,
                "duration": 0.4045455,
                "tempo": 120.0
            },
            {
                "start_time": 91.2659091,
                "end_time": 91.6681818,
                "pitch": 52,
                "velocity": 51,
                "duration": 0.4022727,
                "tempo": 120.0
            },
            {
                "start_time": 91.6681818,
                "end_time": 91.8863636,
                "pitch": 57,
                "velocity": 51,
                "duration": 0.2181818,
                "tempo": 120.0
            },
            {
                "start_time": 92.0681818,
                "end_time": 92.4681818,
                "pitch": 57,
                "velocity": 32,
                "duration": 0.4,
                "tempo": 120.0
            },
            {
                "start_time": 92.4681818,
                "end_time": 92.8681818,
                "pitch": 47,
                "velocity": 32,
                "duration": 0.4,
                "tempo": 120.0
            },
            {
                "start_time": 92.8681818,
                "end_time": 93.2727273,
                "pitch": 50,
                "velocity": 32,
                "duration": 0.4045455,
                "tempo": 120.0
            },
            {
                "start_time": 93.2727273,
                "end_time": 94.4886364,
                "pitch": 57,
                "velocity": 32,
                "duration": 1.2159091,
                "tempo": 120.0
            },
            {
                "start_time": 94.4886364,
                "end_time": 94.8886364,
                "pitch": 50,
                "velocity": 32,
                "duration": 0.4,
                "tempo": 120.0
            },
            {
                "start_time": 94.8886364,
                "end_time": 95.2090909,
                "pitch": 47,
                "velocity": 32,
                "duration": 0.3204545,
                "tempo": 120.0
            },
            {
                "start_time": 95.2886364,
                "end_time": 95.6886364,
                "pitch": 45,
                "velocity": 32,
                "duration": 0.4,
                "tempo": 120.0
            },
            {
                "start_time": 95.6886364,
                "end_time": 96.0886364,
                "pitch": 52,
                "velocity": 51,
                "duration": 0.4,
                "tempo": 120.0
            },
            {
                "start_time": 96.0886364,
                "end_time": 96.4886364,
                "pitch": 57,
                "velocity": 51,
                "duration": 0.4,
                "tempo": 120.0
            },
            {
                "start_time": 96.4886364,
                "end_time": 96.8886364,
                "pitch": 60,
                "velocity": 51,
                "duration": 0.4,
                "tempo": 120.0
            },
            {
                "start_time": 96.8886364,
                "end_time": 98.5,
                "pitch": 69,
                "velocity": 51,
                "duration": 1.6113636,
                "tempo": 120.0
            },
            {
                "start_time": 98.5,
                "end_time": 98.9045455,
                "pitch": 52,
                "velocity": 51,
                "duration": 0.4045455,
                "tempo": 120.0
            },
            {
                "start_time": 98.9045455,
                "end_time": 99.3090909,
                "pitch": 57,
                "velocity": 51,
                "duration": 0.4045455,
                "tempo": 120.0
            },
            {
                "start_time": 99.3090909,
                "end_time": 99.7090909,
                "pitch": 60,
                "velocity": 51,
                "duration": 0.4,
                "tempo": 120.0
            },
            {
                "start_time": 99.7090909,
                "end_time": 100.1090909,
                "pitch": 57,
                "velocity": 51,
                "duration": 0.4,
                "tempo": 120.0
            },
            {
                "start_time": 100.1090909,
                "end_time": 100.5090909,
                "pitch": 64,
                "velocity": 51,
                "duration": 0.4,
                "tempo": 120.0
            },
            {
                "start_time": 100.5090909,
                "end_time": 100.9090909,
                "pitch": 57,
                "velocity": 51,
                "duration": 0.4,
                "tempo": 120.0
            },
            {
                "start_time": 100.9090909,
                "end_time": 101.3159091,
                "pitch": 60,
                "velocity": 51,
                "duration": 0.4068182,
                "tempo": 120.0
            },
            {
                "start_time": 101.3159091,
                "end_time": 101.7204545,
                "pitch": 57,
                "velocity": 51,
                "duration": 0.4045455,
                "tempo": 120.0
            },
            {
                "start_time": 101.7204545,
                "end_time": 102.025,
                "pitch": 52,
                "velocity": 32,
                "duration": 0.3045455,
                "tempo": 120.0
            },
            {
                "start_time": 102.1272727,
                "end_time": 102.5318182,
                "pitch": 57,
                "velocity": 32,
                "duration": 0.4045455,
                "tempo": 120.0
            },
            {
                "start_time": 102.5318182,
                "end_time": 102.9318182,
                "pitch": 60,
                "velocity": 32,
                "duration": 0.4,
                "tempo": 120.0
            },
            {
                "start_time": 102.9318182,
                "end_time": 103.3318182,
                "pitch": 52,
                "velocity": 32,
                "duration": 0.4,
                "tempo": 120.0
            },
            {
                "start_time": 103.3318182,
                "end_time": 103.7318182,
                "pitch": 64,
                "velocity": 32,
                "duration": 0.4,
                "tempo": 120.0
            },
            {
                "start_time": 103.7318182,
                "end_time": 104.1318182,
                "pitch": 60,
                "velocity": 32,
                "duration": 0.4,
                "tempo": 120.0
            },
            {
                "start_time": 104.1318182,
                "end_time": 104.5318182,
                "pitch": 57,
                "velocity": 32,
                "duration": 0.4,
                "tempo": 120.0
            },
            {
                "start_time": 104.5318182,
                "end_time": 104.9318182,
                "pitch": 52,
                "velocity": 32,
                "duration": 0.4,
                "tempo": 120.0
            },
            {
                "start_time": 104.9318182,
                "end_time": 105.3318182,
                "pitch": 52,
                "velocity": 32,
                "duration": 0.4,
                "tempo": 120.0
            },
            {
                "start_time": 105.3318182,
                "end_time": 105.7318182,
                "pitch": 59,
                "velocity": 32,
                "duration": 0.4,
                "tempo": 120.0
            },
            {
                "start_time": 105.7318182,
                "end_time": 106.1363636,
                "pitch": 62,
                "velocity": 32,
                "duration": 0.4045455,
                "tempo": 120.0
            },
            {
                "start_time": 106.1363636,
                "end_time": 106.5431818,
                "pitch": 59,
                "velocity": 32,
                "duration": 0.4068182,
                "tempo": 120.0
            },
            {
                "start_time": 106.5431818,
                "end_time": 106.9477273,
                "pitch": 68,
                "velocity": 32,
                "duration": 0.4045455,
                "tempo": 120.0
            },
            {
                "start_time": 106.9477273,
                "end_time": 107.3522727,
                "pitch": 62,
                "velocity": 32,
                "duration": 0.4045455,
                "tempo": 120.0
            },
            {
                "start_time": 107.3522727,
                "end_time": 107.7522727,
                "pitch": 59,
                "velocity": 32,
                "duration": 0.4,
                "tempo": 120.0
            },
            {
                "start_time": 107.7522727,
                "end_time": 108.0727273,
                "pitch": 62,
                "velocity": 32,
                "duration": 0.3204545,
                "tempo": 120.0
            },
            {
                "start_time": 108.1522727,
                "end_time": 108.5522727,
                "pitch": 52,
                "velocity": 20,
                "duration": 0.4,
                "tempo": 120.0
            },
            {
                "start_time": 108.5522727,
                "end_time": 108.9522727,
                "pitch": 57,
                "velocity": 20,
                "duration": 0.4,
                "tempo": 120.0
            },
            {
                "start_time": 108.9522727,
                "end_time": 109.3522727,
                "pitch": 60,
                "velocity": 20,
                "duration": 0.4,
                "tempo": 120.0
            },
            {
                "start_time": 109.3522727,
                "end_time": 109.7522727,
                "pitch": 64,
                "velocity": 20,
                "duration": 0.4,
                "tempo": 120.0
            },
            {
                "start_time": 109.7522727,
                "end_time": 111.3636364,
                "pitch": 60,
                "velocity": 20,
                "duration": 1.6113636,
                "tempo": 120.0
            },
            {
                "start_time": 111.3636364,
                "end_time": 111.7681818,
                "pitch": 52,
                "velocity": 20,
                "duration": 0.4045455,
                "tempo": 120.0
            },
            {
                "start_time": 111.7681818,
                "end_time": 112.175,
                "pitch": 57,
                "velocity": 20,
                "duration": 0.4068182,
                "tempo": 120.0
            },
            {
                "start_time": 112.175,
                "end_time": 112.575,
                "pitch": 60,
                "velocity": 20,
                "duration": 0.4,
                "tempo": 120.0
            },
            {
                "start_time": 112.575,
                "end_time": 112.975,
                "pitch": 57,
                "velocity": 20,
                "duration": 0.4,
                "tempo": 120.0
            },
            {
                "start_time": 112.975,
                "end_time": 113.375,
                "pitch": 64,
                "velocity": 20,
                "duration": 0.4,
                "tempo": 120.0
            },
            {
                "start_time": 113.375,
                "end_time": 113.775,
                "pitch": 57,
                "velocity": 20,
                "duration": 0.4,
                "tempo": 120.0
            },
            {
                "start_time": 113.775,
                "end_time": 114.175,
                "pitch": 60,
                "velocity": 20,
                "duration": 0.4,
                "tempo": 120.0
            },
            {
                "start_time": 114.175,
                "end_time": 114.575,
                "pitch": 57,
                "velocity": 20,
                "duration": 0.4,
                "tempo": 120.0
            },
            {
                "start_time": 114.575,
                "end_time": 114.975,
                "pitch": 64,
                "velocity": 51,
                "duration": 0.4,
                "tempo": 120.0
            },
            {
                "start_time": 114.975,
                "end_time": 115.375,
                "pitch": 57,
                "velocity": 51,
                "duration": 0.4,
                "tempo": 120.0
            },
            {
                "start_time": 115.375,
                "end_time": 115.775,
                "pitch": 60,
                "velocity": 51,
                "duration": 0.4,
                "tempo": 120.0
            },
            {
                "start_time": 115.775,
                "end_time": 116.175,
                "pitch": 52,
                "velocity": 51,
                "duration": 0.4,
                "tempo": 120.0
            },
            {
                "start_time": 116.175,
                "end_time": 116.575,
                "pitch": 64,
                "velocity": 51,
                "duration": 0.4,
                "tempo": 120.0
            },
            {
                "start_time": 116.575,
                "end_time": 116.975,
                "pitch": 60,
                "velocity": 51,
                "duration": 0.4,
                "tempo": 120.0
            },
            {
                "start_time": 116.975,
                "end_time": 117.3795455,
                "pitch": 57,
                "velocity": 51,
                "duration": 0.4045455,
                "tempo": 120.0
            },
            {
                "start_time": 117.3795455,
                "end_time": 118.1909091,
                "pitch": 52,
                "velocity": 51,
                "duration": 0.8113636,
                "tempo": 120.0
            },
            {
                "start_time": 118.1909091,
                "end_time": 118.5954545,
                "pitch": 59,
                "velocity": 51,
                "duration": 0.4045455,
                "tempo": 120.0
            },
            {
                "start_time": 118.5954545,
                "end_time": 118.9954545,
                "pitch": 62,
                "velocity": 51,
                "duration": 0.4,
                "tempo": 120.0
            },
            {
                "start_time": 118.9954545,
                "end_time": 119.3954545,
                "pitch": 59,
                "velocity": 51,
                "duration": 0.4,
                "tempo": 120.0
            },
            {
                "start_time": 119.3954545,
                "end_time": 119.7954545,
                "pitch": 68,
                "velocity": 51,
                "duration": 0.4,
                "tempo": 120.0
            },
            {
                "start_time": 119.7954545,
                "end_time": 120.1954545,
                "pitch": 62,
                "velocity": 51,
                "duration": 0.4,
                "tempo": 120.0
            },
            {
                "start_time": 120.1954545,
                "end_time": 120.5954545,
                "pitch": 59,
                "velocity": 32,
                "duration": 0.4,
                "tempo": 120.0
            },
            {
                "start_time": 120.5954545,
                "end_time": 120.9954545,
                "pitch": 62,
                "velocity": 51,
                "duration": 0.4,
                "tempo": 120.0
            },
            {
                "start_time": 120.9954545,
                "end_time": 124.8363636,
                "pitch": 52,
                "velocity": 51,
                "duration": 3.8409091,
                "tempo": 120.0
            }
        ]
    }
}