{
    "mood": "angry",
    "instruments": {
        "Lead 2 (sawtooth)": [
            {
                "start_time": 0.1659091,
                "end_time": 0.3477273,
                "pitch": 47,
                "velocity": 127,
                "duration": 0.1818182,
                "tempo": 120.0
            },
            {
                "start_time": 0.35,
                "end_time": 0.5159091,
                "pitch": 35,
                "velocity": 127,
                "duration": 0.1659091,
                "tempo": 120.0
            },
            {
                "start_time": 0.5159091,
                "end_time": 0.6840909,
                "pitch": 47,
                "velocity": 127,
                "duration": 0.1681818,
                "tempo": 120.0
            },
            {
                "start_time": 0.6840909,
                "end_time": 0.8454545,
                "pitch": 38,
                "velocity": 127,
                "duration": 0.1613636,
                "tempo": 120.0
            },
            {
                "start_time": 0.8454545,
                "end_time": 1.025,
                "pitch": 50,
                "velocity": 127,
                "duration": 0.1795455,
                "tempo": 120.0
            },
            {
                "start_time": 1.025,
                "end_time": 1.1909091,
                "pitch": 38,
                "velocity": 127,
                "duration": 0.1659091,
                "tempo": 120.0
            },
            {
                "start_time": 1.1909091,
                "end_time": 1.3590909,
                "pitch": 50,
                "velocity": 127,
                "duration": 0.1681818,
                "tempo": 120.0
            },
            {
                "start_time": 1.3590909,
                "end_time": 1.5272727,
                "pitch": 40,
                "velocity": 127,
                "duration": 0.1681818,
                "tempo": 120.0
            },
            {
                "start_time": 1.3590909,
                "end_time": 1.7090909,
                "pitch": 52,
                "velocity": 127,
                "duration": 0.35,
                "tempo": 120.0
            },
            {
                "start_time": 1.5272727,
                "end_time": 1.7090909,
                "pitch": 52,
                "velocity": 127,
                "duration": 0.1818182,
                "tempo": 120.0
            },
            {
                "start_time": 1.7090909,
                "end_time": 1.8818182,
                "pitch": 40,
                "velocity": 127,
                "duration": 0.1727273,
                "tempo": 120.0
            },
            {
                "start_time": 1.8818182,
                "end_time": 2.0545455,
                "pitch": 52,
                "velocity": 127,
                "duration": 0.1727273,
                "tempo": 120.0
            },
            {
                "start_time": 2.0545455,
                "end_time": 2.2159091,
                "pitch": 37,
                "velocity": 127,
                "duration": 0.1613636,
                "tempo": 120.0
            },
            {
                "start_time": 2.0545455,
                "end_time": 2.3954545,
                "pitch": 49,
                "velocity": 127,
                "duration": 0.3409091,
                "tempo": 120.0
            },
            {
                "start_time": 2.2159091,
                "end_time": 2.3954545,
                "pitch": 49,
                "velocity": 127,
                "duration": 0.1795455,
                "tempo": 120.0
            },
            {
                "start_time": 2.3954545,
                "end_time": 2.5681818,
                "pitch": 37,
                "velocity": 127,
                "duration": 0.1727273,
                "tempo": 120.0
            },
            {
                "start_time": 2.5681818,
                "end_time": 2.7409091,
                "pitch": 49,
                "velocity": 127,
                "duration": 0.1727273,
                "tempo": 120.0
            },
            {
                "start_time": 2.7409091,
                "end_time": 2.9022727,
                "pitch": 35,
                "velocity": 127,
                "duration": 0.1613636,
                "tempo": 120.0
            },
            {
                "start_time": 2.9022727,
                "end_time": 3.0659091,
                "pitch": 47,
                "velocity": 127,
                "duration": 0.1636364,
                "tempo": 120.0
            },
            {
                "start_time": 3.0659091,
                "end_time": 3.25,
                "pitch": 35,
                "velocity": 127,
                "duration": 0.1840909,
                "tempo": 120.0
            },
            {
                "start_time": 3.25,
                "end_time": 3.4159091,
                "pitch": 47,
                "velocity": 127,
                "duration": 0.1659091,
                "tempo": 120.0
            },
            {
                "start_time": 0.6840909,
                "end_time": 3.4159091,
                "pitch": 53,
                "velocity": 127,
                "duration": 2.7318182,
                "tempo": 120.0
            },
            {
                "start_time": 3.4159091,
                "end_time": 3.5886364,
                "pitch": 38,
                "velocity": 127,
                "duration": 0.1727273,
                "tempo": 120.0
            },
            {
                "start_time": 3.5886364,
                "end_time": 3.7590909,
                "pitch": 50,
                "velocity": 127,
                "duration": 0.1704545,
                "tempo": 120.0
            },
            {
                "start_time": 3.7590909,
                "end_time": 3.9386364,
                "pitch": 38,
                "velocity": 127,
                "duration": 0.1795455,
                "tempo": 120.0
            },
            {
                "start_time": 3.9386364,
                "end_time": 4.1022727,
                "pitch": 50,
                "velocity": 127,
                "duration": 0.1636364,
                "tempo": 120.0
            },
            {
                "start_time": 4.1022727,
                "end_time": 4.275,
                "pitch": 40,
                "velocity": 127,
                "duration": 0.1727273,
                "tempo": 120.0
            },
            {
                "start_time": 4.1022727,
                "end_time": 4.4454545,
                "pitch": 52,
                "velocity": 127,
                "duration": 0.3431818,
                "tempo": 120.0
            },
            {
                "start_time": 4.275,
                "end_time": 4.4454545,
                "pitch": 52,
                "velocity": 127,
                "duration": 0.1704545,
                "tempo": 120.0
            },
            {
                "start_time": 4.4454545,
                "end_time": 4.625,
                "pitch": 40,
                "velocity": 127,
                "duration": 0.1795455,
                "tempo": 120.0
            },
            {
                "start_time": 4.625,
                "end_time": 4.7863636,
                "pitch": 52,
                "velocity": 127,
                "duration": 0.1613636,
                "tempo": 120.0
            },
            {
                "start_time": 4.7863636,
                "end_time": 4.9590909,
                "pitch": 37,
                "velocity": 127,
                "duration": 0.1727273,
                "tempo": 120.0
            },
            {
                "start_time": 4.7863636,
                "end_time": 5.1318182,
                "pitch": 49,
                "velocity": 127,
                "duration": 0.3454545,
                "tempo": 120.0
            },
            {
                "start_time": 4.9590909,
                "end_time": 5.1318182,
                "pitch": 49,
                "velocity": 127,
                "duration": 0.1727273,
                "tempo": 120.0
            },
            {
                "start_time": 5.1318182,
                "end_time": 5.3159091,
                "pitch": 37,
                "velocity": 127,
                "duration": 0.1840909,
                "tempo": 120.0
            },
            {
                "start_time": 5.3159091,
                "end_time": 5.4818182,
                "pitch": 49,
                "velocity": 127,
                "duration": 0.1659091,
                "tempo": 120.0
            }
        ],
        "Acoustic Grand Piano": [
            {
                "start_time": 2.9022727,
                "end_time": 3.0636364,
                "pitch": 71,
                "velocity": 80,
                "duration": 0.1613636,
                "tempo": 120.0
            },
            {
                "start_time": 3.0636364,
                "end_time": 3.25,
                "pitch": 71,
                "velocity": 80,
                "duration": 0.1863636,
                "tempo": 120.0
            },
            {
                "start_time": 3.25,
                "end_time": 3.3318182,
                "pitch": 71,
                "velocity": 80,
                "duration": 0.0818182,
                "tempo": 120.0
            },
            {
                "start_time": 3.3318182,
                "end_time": 3.5,
                "pitch": 71,
                "velocity": 80,
                "duration": 0.1681818,
                "tempo": 120.0
            },
            {
                "start_time": 3.5022727,
                "end_time": 3.5863636,
                "pitch": 71,
                "velocity": 80,
                "duration": 0.0840909,
                "tempo": 120.0
            },
            {
                "start_time": 3.5863636,
                "end_time": 3.7590909,
                "pitch": 71,
                "velocity": 80,
                "duration": 0.1727273,
                "tempo": 120.0
            },
            {
                "start_time": 3.7590909,
                "end_time": 3.9386364,
                "pitch": 71,
                "velocity": 80,
                "duration": 0.1795455,
                "tempo": 120.0
            },
            {
                "start_time": 3.9386364,
                "end_time": 4.1,
                "pitch": 71,
                "velocity": 80,
                "duration": 0.1613636,
                "tempo": 120.0
            },
            {
                "start_time": 4.1,
                "end_time": 4.2727273,
                "pitch": 71,
                "velocity": 80,
                "duration": 0.1727273,
                "tempo": 120.0
            },
            {
                "start_time": 4.2727273,
                "end_time": 4.4454545,
                "pitch": 71,
                "velocity": 80,
                "duration": 0.1727273,
                "tempo": 120.0
            },
            {
                "start_time": 4.4454545,
                "end_time": 4.6227273,
                "pitch": 71,
                "velocity": 80,
                "duration": 0.1772727,
                "tempo": 120.0
            },
            {
                "start_time": 4.6227273,
                "end_time": 4.7045455,
                "pitch": 71,
                "velocity": 80,
                "duration": 0.0818182,
                "tempo": 120.0
            },
            {
                "start_time": 4.7045455,
                "end_time": 4.8727273,
                "pitch": 71,
                "velocity": 80,
                "duration": 0.1681818,
                "tempo": 120.0
            },
            {
                "start_time": 4.8727273,
                "end_time": 4.9590909,
                "pitch": 71,
                "velocity": 80,
                "duration": 0.0863636,
                "tempo": 120.0
            },
            {
                "start_time": 4.9590909,
                "end_time": 5.1318182,
                "pitch": 71,
                "velocity": 80,
                "duration": 0.1727273,
                "tempo": 120.0
            },
            {
                "start_time": 5.1318182,
                "end_time": 5.3136364,
                "pitch": 71,
                "velocity": 80,
                "duration": 0.1818182,
                "tempo": 120.0
            },
            {
                "start_time": 5.3136364,
                "end_time": 5.4818182,
                "pitch": 71,
                "velocity": 80,
                "duration": 0.1681818,
                "tempo": 120.0
            }
        ]
    }
}