{
    "mood": "angry",
    "instruments": {
        "Trumpet": [
            {
                "start_time": 1.0204545,
                "end_time": 1.6204545,
                "pitch": 64,
                "velocity": 101,
                "duration": 0.6,
                "tempo": 120.0
            },
            {
                "start_time": 1.6204545,
                "end_time": 2.1636364,
                "pitch": 73,
                "velocity": 101,
                "duration": 0.5431818,
                "tempo": 120.0
            },
            {
                "start_time": 2.1636364,
                "end_time": 2.5431818,
                "pitch": 71,
                "velocity": 101,
                "duration": 0.3795455,
                "tempo": 120.0
            },
            {
                "start_time": 2.5431818,
                "end_time": 2.7431818,
                "pitch": 69,
                "velocity": 101,
                "duration": 0.2,
                "tempo": 120.0
            },
            {
                "start_time": 2.7431818,
                "end_time": 2.95,
                "pitch": 67,
                "velocity": 101,
                "duration": 0.2068182,
                "tempo": 120.0
            },
            {
                "start_time": 2.95,
                "end_time": 6.2659091,
                "pitch": 66,
                "velocity": 101,
                "duration": 3.3159091,
                "tempo": 120.0
            },
            {
                "start_time": 6.6363636,
                "end_time": 7.2363636,
                "pitch": 67,
                "velocity": 101,
                "duration": 0.6,
                "tempo": 120.0
            },
            {
                "start_time": 7.2363636,
                "end_time": 7.8386364,
                "pitch": 64,
                "velocity": 101,
                "duration": 0.6022727,
                "tempo": 120.0
            },
            {
                "start_time": 7.8386364,
                "end_time": 8.3954545,
                "pitch": 73,
                "velocity": 101,
                "duration": 0.5568182,
                "tempo": 120.0
            },
            {
                "start_time": 8.3954545,
                "end_time": 8.7818182,
                "pitch": 71,
                "velocity": 101,
                "duration": 0.3863636,
                "tempo": 120.0
            },
            {
                "start_time": 8.7818182,
                "end_time": 8.9840909,
                "pitch": 71,
                "velocity": 101,
                "duration": 0.2022727,
                "tempo": 120.0
            },
            {
                "start_time": 8.9840909,
                "end_time": 9.1840909,
                "pitch": 73,
                "velocity": 101,
                "duration": 0.2,
                "tempo": 120.0
            },
            {
                "start_time": 9.1840909,
                "end_time": 11.7159091,
                "pitch": 74,
                "velocity": 101,
                "duration": 2.5318182,
                "tempo": 120.0
            },
            {
                "start_time": 11.7159091,
                "end_time": 11.9159091,
                "pitch": 71,
                "velocity": 101,
                "duration": 0.2,
                "tempo": 120.0
            },
            {
                "start_time": 11.9159091,
                "end_time": 12.1181818,
                "pitch": 73,
                "velocity": 101,
                "duration": 0.2022727,
                "tempo": 120.0
            },
            {
                "start_time": 12.1181818,
                "end_time": 12.2840909,
                "pitch": 74,
                "velocity": 101,
                "duration": 0.1659091,
                "tempo": 120.0
            },
            {
                "start_time": 12.2840909,
                "end_time": 13.2659091,
                "pitch": 71,
                "velocity": 101,
                "duration": 0.9818182,
                "tempo": 120.0
            },
            {
                "start_time": 13.2659091,
                "end_time": 13.4659091,
                "pitch": 71,
                "velocity": 101,
                "duration": 0.2,
                "tempo": 120.0
            },
            {
                "start_time": 13.4659091,
                "end_time": 13.6681818,
                "pitch": 74,
                "velocity": 101,
                "duration": 0.2022727,
                "tempo": 120.0
            },
            {
                "start_time": 13.6681818,
                "end_time": 13.8681818,
                "pitch": 71,
                "velocity": 101,
                "duration": 0.2,
                "tempo": 120.0
            },
            {
                "start_time": 13.8681818,
                "end_time": 14.8136364,
                "pitch": 73,
                "velocity": 101,
                "duration": 0.9454545,
                "tempo": 120.0
            },
            {
                "start_time": 14.8136364,
                "end_time": 15.0136364,
                "pitch": 69,
                "velocity": 101,
                "duration": 0.2,
                "tempo": 120.0
            },
            {
                "start_time": 15.0136364,
                "end_time": 15.2159091,
                "pitch": 71,
                "velocity": 101,
                "duration": 0.2022727,
                "tempo": 120.0
            },
            {
                "start_time": 15.2159091,
                "end_time": 15.4181818,
                "pitch": 73,
                "velocity": 101,
                "duration": 0.2022727,
                "tempo": 120.0
            },
            {
                "start_time": 15.4181818,
                "end_time": 16.4204545,
                "pitch": 69,
                "velocity": 101,
                "duration": 1.0022727,
                "tempo": 120.0
            },
            {
                "start_time": 16.4204545,
                "end_time": 16.5818182,
                "pitch": 69,
                "velocity": 101,
                "duration": 0.1613636,
                "tempo": 120.0
            },
            {
                "start_time": 16.5818182,
                "end_time": 16.7818182,
                "pitch": 73,
                "velocity": 101,
                "duration": 0.2,
                "tempo": 120.0
            },
            {
                "start_time": 16.7818182,
                "end_time": 16.9681818,
                "pitch": 69,
                "velocity": 101,
                "duration": 0.1863636,
                "tempo": 120.0
            },
            {
                "start_time": 16.9681818,
                "end_time": 18.7068182,
                "pitch": 71,
                "velocity": 101,
                "duration": 1.7386364,
                "tempo": 120.0
            },
            {
                "start_time": 18.7068182,
                "end_time": 19.6886364,
                "pitch": 67,
                "velocity": 101,
                "duration": 0.9818182,
                "tempo": 120.0
            },
            {
                "start_time": 19.6886364,
                "end_time": 20.0909091,
                "pitch": 74,
                "velocity": 101,
                "duration": 0.4022727,
                "tempo": 120.0
            },
            {
                "start_time": 20.0909091,
                "end_time": 20.8636364,
                "pitch": 76,
                "velocity": 101,
                "duration": 0.7727273,
                "tempo": 120.0
            },
            {
                "start_time": 20.8636364,
                "end_time": 21.25,
                "pitch": 74,
                "velocity": 101,
                "duration": 0.3863636,
                "tempo": 120.0
            },
            {
                "start_time": 21.25,
                "end_time": 21.4340909,
                "pitch": 73,
                "velocity": 101,
                "duration": 0.1840909,
                "tempo": 120.0
            },
            {
                "start_time": 21.4340909,
                "end_time": 21.6363636,
                "pitch": 71,
                "velocity": 101,
                "duration": 0.2022727,
                "tempo": 120.0
            },
            {
                "start_time": 21.6363636,
                "end_time": 22.6363636,
                "pitch": 71,
                "velocity": 101,
                "duration": 1.0,
                "tempo": 120.0
            },
            {
                "start_time": 22.6363636,
                "end_time": 22.8386364,
                "pitch": 71,
                "velocity": 101,
                "duration": 0.2022727,
                "tempo": 120.0
            },
            {
                "start_time": 22.8386364,
                "end_time": 23.0,
                "pitch": 69,
                "velocity": 101,
                "duration": 0.1613636,
                "tempo": 120.0
            },
            {
                "start_time": 23.0,
                "end_time": 23.1863636,
                "pitch": 71,
                "velocity": 101,
                "duration": 0.1863636,
                "tempo": 120.0
            },
            {
                "start_time": 23.1863636,
                "end_time": 26.5136364,
                "pitch": 73,
                "velocity": 101,
                "duration": 3.3272727,
                "tempo": 120.0
            },
            {
                "start_time": 26.9136364,
                "end_time": 27.4681818,
                "pitch": 74,
                "velocity": 101,
                "duration": 0.5545455,
                "tempo": 120.0
            },
            {
                "start_time": 27.4681818,
                "end_time": 27.8545455,
                "pitch": 73,
                "velocity": 101,
                "duration": 0.3863636,
                "tempo": 120.0
            },
            {
                "start_time": 27.8545455,
                "end_time": 28.8568182,
                "pitch": 71,
                "velocity": 101,
                "duration": 1.0022727,
                "tempo": 120.0
            },
            {
                "start_time": 28.8568182,
                "end_time": 29.0590909,
                "pitch": 71,
                "velocity": 101,
                "duration": 0.2022727,
                "tempo": 120.0
            },
            {
                "start_time": 29.0590909,
                "end_time": 29.2295455,
                "pitch": 73,
                "velocity": 101,
                "duration": 0.1704545,
                "tempo": 120.0
            },
            {
                "start_time": 29.2295455,
                "end_time": 29.4136364,
                "pitch": 74,
                "velocity": 101,
                "duration": 0.1840909,
                "tempo": 120.0
            },
            {
                "start_time": 29.4136364,
                "end_time": 29.6,
                "pitch": 71,
                "velocity": 101,
                "duration": 0.1863636,
                "tempo": 120.0
            },
            {
                "start_time": 30.0022727,
                "end_time": 30.6045455,
                "pitch": 76,
                "velocity": 101,
                "duration": 0.6022727,
                "tempo": 120.0
            },
            {
                "start_time": 30.6045455,
                "end_time": 31.0045455,
                "pitch": 74,
                "velocity": 101,
                "duration": 0.4,
                "tempo": 120.0
            },
            {
                "start_time": 31.0045455,
                "end_time": 31.2045455,
                "pitch": 73,
                "velocity": 101,
                "duration": 0.2,
                "tempo": 120.0
            },
            {
                "start_time": 31.2045455,
                "end_time": 31.3659091,
                "pitch": 74,
                "velocity": 101,
                "duration": 0.1613636,
                "tempo": 120.0
            },
            {
                "start_time": 31.3659091,
                "end_time": 31.5659091,
                "pitch": 73,
                "velocity": 101,
                "duration": 0.2,
                "tempo": 120.0
            },
            {
                "start_time": 31.5659091,
                "end_time": 31.7522727,
                "pitch": 71,
                "velocity": 101,
                "duration": 0.1863636,
                "tempo": 120.0
            },
            {
                "start_time": 31.7522727,
                "end_time": 31.9363636,
                "pitch": 73,
                "velocity": 101,
                "duration": 0.1840909,
                "tempo": 120.0
            },
            {
                "start_time": 31.9363636,
                "end_time": 32.1363636,
                "pitch": 71,
                "velocity": 101,
                "duration": 0.2,
                "tempo": 120.0
            },
            {
                "start_time": 32.1363636,
                "end_time": 32.3363636,
                "pitch": 69,
                "velocity": 101,
                "duration": 0.2,
                "tempo": 120.0
            },
            {
                "start_time": 33.1272727,
                "end_time": 33.6818182,
                "pitch": 74,
                "velocity": 101,
                "duration": 0.5545455,
                "tempo": 120.0
            },
            {
                "start_time": 33.6818182,
                "end_time": 34.0727273,
                "pitch": 73,
                "velocity": 101,
                "duration": 0.3909091,
                "tempo": 120.0
            },
            {
                "start_time": 34.0727273,
                "end_time": 34.2727273,
                "pitch": 71,
                "velocity": 101,
                "duration": 0.2,
                "tempo": 120.0
            },
            {
                "start_time": 34.2727273,
                "end_time": 34.6727273,
                "pitch": 74,
                "velocity": 101,
                "duration": 0.4,
                "tempo": 120.0
            },
            {
                "start_time": 34.6727273,
                "end_time": 35.075,
                "pitch": 74,
                "velocity": 101,
                "duration": 0.4022727,
                "tempo": 120.0
            },
            {
                "start_time": 35.075,
                "end_time": 35.275,
                "pitch": 74,
                "velocity": 101,
                "duration": 0.2,
                "tempo": 120.0
            },
            {
                "start_time": 35.275,
                "end_time": 35.6454545,
                "pitch": 74,
                "velocity": 101,
                "duration": 0.3704545,
                "tempo": 120.0
            },
            {
                "start_time": 35.6454545,
                "end_time": 35.8454545,
                "pitch": 73,
                "velocity": 101,
                "duration": 0.2,
                "tempo": 120.0
            },
            {
                "start_time": 35.8454545,
                "end_time": 37.4181818,
                "pitch": 74,
                "velocity": 101,
                "duration": 1.5727273,
                "tempo": 120.0
            },
            {
                "start_time": 37.4181818,
                "end_time": 37.6477273,
                "pitch": 78,
                "velocity": 101,
                "duration": 0.2295455,
                "tempo": 120.0
            },
            {
                "start_time": 37.6477273,
                "end_time": 37.9090909,
                "pitch": 76,
                "velocity": 101,
                "duration": 0.2613636,
                "tempo": 120.0
            },
            {
                "start_time": 37.9090909,
                "end_time": 38.15,
                "pitch": 74,
                "velocity": 101,
                "duration": 0.2409091,
                "tempo": 120.0
            },
            {
                "start_time": 38.15,
                "end_time": 38.4204545,
                "pitch": 76,
                "velocity": 101,
                "duration": 0.2704545,
                "tempo": 120.0
            },
            {
                "start_time": 38.4204545,
                "end_time": 38.6886364,
                "pitch": 74,
                "velocity": 101,
                "duration": 0.2681818,
                "tempo": 120.0
            },
            {
                "start_time": 38.6886364,
                "end_time": 38.9431818,
                "pitch": 73,
                "velocity": 101,
                "duration": 0.2545455,
                "tempo": 120.0
            },
            {
                "start_time": 39.3545455,
                "end_time": 39.3636364,
                "pitch": 67,
                "velocity": 101,
                "duration": 0.0090909,
                "tempo": 120.0
            }
        ],
        "Vibraphone": [
            {
                "start_time": 0.1204545,
                "end_time": 0.2204545,
                "pitch": 71,
                "velocity": 101,
                "duration": 0.1,
                "tempo": 120.0
            },
            {
                "start_time": 0.2204545,
                "end_time": 0.3204545,
                "pitch": 73,
                "velocity": 101,
                "duration": 0.1,
                "tempo": 120.0
            },
            {
                "start_time": 0.3204545,
                "end_time": 0.4204545,
                "pitch": 73,
                "velocity": 101,
                "duration": 0.1,
                "tempo": 120.0
            },
            {
                "start_time": 0.4204545,
                "end_time": 0.5204545,
                "pitch": 74,
                "velocity": 101,
                "duration": 0.1,
                "tempo": 120.0
            },
            {
                "start_time": 0.5204545,
                "end_time": 0.6204545,
                "pitch": 74,
                "velocity": 101,
                "duration": 0.1,
                "tempo": 120.0
            },
            {
                "start_time": 0.6204545,
                "end_time": 0.7204545,
                "pitch": 71,
                "velocity": 101,
                "duration": 0.1,
                "tempo": 120.0
            },
            {
                "start_time": 0.7204545,
                "end_time": 0.8204545,
                "pitch": 71,
                "velocity": 101,
                "duration": 0.1,
                "tempo": 120.0
            },
            {
                "start_time": 0.8204545,
                "end_time": 0.9204545,
                "pitch": 73,
                "velocity": 101,
                "duration": 0.1,
                "tempo": 120.0
            },
            {
                "start_time": 0.9204545,
                "end_time": 1.0204545,
                "pitch": 73,
                "velocity": 101,
                "duration": 0.1,
                "tempo": 120.0
            },
            {
                "start_time": 1.0204545,
                "end_time": 1.1204545,
                "pitch": 74,
                "velocity": 101,
                "duration": 0.1,
                "tempo": 120.0
            },
            {
                "start_time": 1.1204545,
                "end_time": 1.2204545,
                "pitch": 74,
                "velocity": 101,
                "duration": 0.1,
                "tempo": 120.0
            },
            {
                "start_time": 1.2204545,
                "end_time": 1.3204545,
                "pitch": 71,
                "velocity": 101,
                "duration": 0.1,
                "tempo": 120.0
            },
            {
                "start_time": 1.3204545,
                "end_time": 1.4204545,
                "pitch": 71,
                "velocity": 101,
                "duration": 0.1,
                "tempo": 120.0
            },
            {
                "start_time": 1.4204545,
                "end_time": 1.5204545,
                "pitch": 73,
                "velocity": 101,
                "duration": 0.1,
                "tempo": 120.0
            },
            {
                "start_time": 1.5204545,
                "end_time": 1.6204545,
                "pitch": 73,
                "velocity": 101,
                "duration": 0.1,
                "tempo": 120.0
            },
            {
                "start_time": 1.6204545,
                "end_time": 1.7204545,
                "pitch": 74,
                "velocity": 101,
                "duration": 0.1,
                "tempo": 120.0
            },
            {
                "start_time": 1.7204545,
                "end_time": 1.7818182,
                "pitch": 74,
                "velocity": 101,
                "duration": 0.0613636,
                "tempo": 120.0
            },
            {
                "start_time": 1.7818182,
                "end_time": 1.8818182,
                "pitch": 71,
                "velocity": 101,
                "duration": 0.1,
                "tempo": 120.0
            },
            {
                "start_time": 1.8818182,
                "end_time": 1.9818182,
                "pitch": 71,
                "velocity": 101,
                "duration": 0.1,
                "tempo": 120.0
            },
            {
                "start_time": 1.9818182,
                "end_time": 2.0727273,
                "pitch": 73,
                "velocity": 101,
                "duration": 0.0909091,
                "tempo": 120.0
            },
            {
                "start_time": 2.0727273,
                "end_time": 2.1636364,
                "pitch": 73,
                "velocity": 101,
                "duration": 0.0909091,
                "tempo": 120.0
            },
            {
                "start_time": 2.1636364,
                "end_time": 2.2545455,
                "pitch": 74,
                "velocity": 101,
                "duration": 0.0909091,
                "tempo": 120.0
            },
            {
                "start_time": 2.2545455,
                "end_time": 2.3431818,
                "pitch": 74,
                "velocity": 101,
                "duration": 0.0886364,
                "tempo": 120.0
            },
            {
                "start_time": 2.3431818,
                "end_time": 2.4431818,
                "pitch": 71,
                "velocity": 101,
                "duration": 0.1,
                "tempo": 120.0
            },
            {
                "start_time": 2.4431818,
                "end_time": 2.5431818,
                "pitch": 71,
                "velocity": 101,
                "duration": 0.1,
                "tempo": 120.0
            },
            {
                "start_time": 2.5431818,
                "end_time": 2.6431818,
                "pitch": 73,
                "velocity": 101,
                "duration": 0.1,
                "tempo": 120.0
            },
            {
                "start_time": 2.6431818,
                "end_time": 2.7431818,
                "pitch": 73,
                "velocity": 101,
                "duration": 0.1,
                "tempo": 120.0
            },
            {
                "start_time": 2.7431818,
                "end_time": 2.8454545,
                "pitch": 74,
                "velocity": 101,
                "duration": 0.1022727,
                "tempo": 120.0
            },
            {
                "start_time": 2.8454545,
                "end_time": 2.95,
                "pitch": 74,
                "velocity": 101,
                "duration": 0.1045455,
                "tempo": 120.0
            },
            {
                "start_time": 2.95,
                "end_time": 3.0522727,
                "pitch": 71,
                "velocity": 101,
                "duration": 0.1022727,
                "tempo": 120.0
            },
            {
                "start_time": 3.0522727,
                "end_time": 3.1545455,
                "pitch": 71,
                "velocity": 101,
                "duration": 0.1022727,
                "tempo": 120.0
            },
            {
                "start_time": 3.1545455,
                "end_time": 3.2522727,
                "pitch": 73,
                "velocity": 101,
                "duration": 0.0977273,
                "tempo": 120.0
            },
            {
                "start_time": 3.2522727,
                "end_time": 3.35,
                "pitch": 73,
                "velocity": 101,
                "duration": 0.0977273,
                "tempo": 120.0
            },
            {
                "start_time": 3.35,
                "end_time": 3.4477273,
                "pitch": 74,
                "velocity": 101,
                "duration": 0.0977273,
                "tempo": 120.0
            },
            {
                "start_time": 3.4477273,
                "end_time": 3.5477273,
                "pitch": 74,
                "velocity": 101,
                "duration": 0.1,
                "tempo": 120.0
            },
            {
                "start_time": 3.5477273,
                "end_time": 3.6477273,
                "pitch": 76,
                "velocity": 101,
                "duration": 0.1,
                "tempo": 120.0
            },
            {
                "start_time": 3.6477273,
                "end_time": 3.7477273,
                "pitch": 76,
                "velocity": 101,
                "duration": 0.1,
                "tempo": 120.0
            },
            {
                "start_time": 3.7477273,
                "end_time": 3.8477273,
                "pitch": 73,
                "velocity": 101,
                "duration": 0.1,
                "tempo": 120.0
            },
            {
                "start_time": 3.8477273,
                "end_time": 3.9159091,
                "pitch": 73,
                "velocity": 101,
                "duration": 0.0681818,
                "tempo": 120.0
            },
            {
                "start_time": 3.9159091,
                "end_time": 4.0090909,
                "pitch": 74,
                "velocity": 101,
                "duration": 0.0931818,
                "tempo": 120.0
            },
            {
                "start_time": 4.0090909,
                "end_time": 4.1022727,
                "pitch": 74,
                "velocity": 101,
                "duration": 0.0931818,
                "tempo": 120.0
            },
            {
                "start_time": 4.1022727,
                "end_time": 4.1954545,
                "pitch": 76,
                "velocity": 101,
                "duration": 0.0931818,
                "tempo": 120.0
            },
            {
                "start_time": 4.1954545,
                "end_time": 4.2863636,
                "pitch": 76,
                "velocity": 101,
                "duration": 0.0909091,
                "tempo": 120.0
            },
            {
                "start_time": 4.2863636,
                "end_time": 4.3863636,
                "pitch": 73,
                "velocity": 101,
                "duration": 0.1,
                "tempo": 120.0
            },
            {
                "start_time": 4.3863636,
                "end_time": 4.4863636,
                "pitch": 73,
                "velocity": 101,
                "duration": 0.1,
                "tempo": 120.0
            },
            {
                "start_time": 4.4863636,
                "end_time": 4.5863636,
                "pitch": 74,
                "velocity": 101,
                "duration": 0.1,
                "tempo": 120.0
            },
            {
                "start_time": 4.5863636,
                "end_time": 4.6863636,
                "pitch": 74,
                "velocity": 101,
                "duration": 0.1,
                "tempo": 120.0
            },
            {
                "start_time": 4.6863636,
                "end_time": 4.7886364,
                "pitch": 76,
                "velocity": 101,
                "duration": 0.1022727,
                "tempo": 120.0
            },
            {
                "start_time": 4.7886364,
                "end_time": 4.8886364,
                "pitch": 76,
                "velocity": 101,
                "duration": 0.1,
                "tempo": 120.0
            },
            {
                "start_time": 4.8886364,
                "end_time": 4.9886364,
                "pitch": 73,
                "velocity": 101,
                "duration": 0.1,
                "tempo": 120.0
            },
            {
                "start_time": 4.9886364,
                "end_time": 5.0886364,
                "pitch": 73,
                "velocity": 101,
                "duration": 0.1,
                "tempo": 120.0
            },
            {
                "start_time": 5.0886364,
                "end_time": 5.1909091,
                "pitch": 74,
                "velocity": 101,
                "duration": 0.1022727,
                "tempo": 120.0
            },
            {
                "start_time": 5.1909091,
                "end_time": 5.2909091,
                "pitch": 74,
                "velocity": 101,
                "duration": 0.1,
                "tempo": 120.0
            },
            {
                "start_time": 5.2909091,
                "end_time": 5.3909091,
                "pitch": 76,
                "velocity": 101,
                "duration": 0.1,
                "tempo": 120.0
            },
            {
                "start_time": 5.3909091,
                "end_time": 5.4931818,
                "pitch": 76,
                "velocity": 101,
                "duration": 0.1022727,
                "tempo": 120.0
            },
            {
                "start_time": 5.4931818,
                "end_time": 5.5931818,
                "pitch": 78,
                "velocity": 101,
                "duration": 0.1,
                "tempo": 120.0
            },
            {
                "start_time": 5.5931818,
                "end_time": 5.6931818,
                "pitch": 78,
                "velocity": 101,
                "duration": 0.1,
                "tempo": 120.0
            },
            {
                "start_time": 5.6931818,
                "end_time": 5.7931818,
                "pitch": 76,
                "velocity": 101,
                "duration": 0.1,
                "tempo": 120.0
            },
            {
                "start_time": 5.7931818,
                "end_time": 5.8931818,
                "pitch": 76,
                "velocity": 101,
                "duration": 0.1,
                "tempo": 120.0
            },
            {
                "start_time": 5.8931818,
                "end_time": 5.9636364,
                "pitch": 74,
                "velocity": 101,
                "duration": 0.0704545,
                "tempo": 120.0
            },
            {
                "start_time": 5.9636364,
                "end_time": 6.0636364,
                "pitch": 74,
                "velocity": 101,
                "duration": 0.1,
                "tempo": 120.0
            },
            {
                "start_time": 6.0636364,
                "end_time": 6.1636364,
                "pitch": 73,
                "velocity": 101,
                "duration": 0.1,
                "tempo": 120.0
            },
            {
                "start_time": 6.1636364,
                "end_time": 6.2659091,
                "pitch": 73,
                "velocity": 101,
                "duration": 0.1022727,
                "tempo": 120.0
            },
            {
                "start_time": 6.2659091,
                "end_time": 6.3568182,
                "pitch": 71,
                "velocity": 101,
                "duration": 0.0909091,
                "tempo": 120.0
            },
            {
                "start_time": 6.3568182,
                "end_time": 6.45,
                "pitch": 71,
                "velocity": 101,
                "duration": 0.0931818,
                "tempo": 120.0
            },
            {
                "start_time": 6.45,
                "end_time": 6.5431818,
                "pitch": 73,
                "velocity": 101,
                "duration": 0.0931818,
                "tempo": 120.0
            },
            {
                "start_time": 6.5431818,
                "end_time": 6.6363636,
                "pitch": 73,
                "velocity": 101,
                "duration": 0.0931818,
                "tempo": 120.0
            },
            {
                "start_time": 6.6363636,
                "end_time": 6.7363636,
                "pitch": 74,
                "velocity": 101,
                "duration": 0.1,
                "tempo": 120.0
            },
            {
                "start_time": 6.7363636,
                "end_time": 6.8363636,
                "pitch": 74,
                "velocity": 101,
                "duration": 0.1,
                "tempo": 120.0
            },
            {
                "start_time": 6.8363636,
                "end_time": 6.9363636,
                "pitch": 71,
                "velocity": 101,
                "duration": 0.1,
                "tempo": 120.0
            },
            {
                "start_time": 6.9363636,
                "end_time": 7.0363636,
                "pitch": 71,
                "velocity": 101,
                "duration": 0.1,
                "tempo": 120.0
            },
            {
                "start_time": 7.0363636,
                "end_time": 7.1363636,
                "pitch": 73,
                "velocity": 101,
                "duration": 0.1,
                "tempo": 120.0
            },
            {
                "start_time": 7.1363636,
                "end_time": 7.2363636,
                "pitch": 73,
                "velocity": 101,
                "duration": 0.1,
                "tempo": 120.0
            },
            {
                "start_time": 7.2363636,
                "end_time": 7.3363636,
                "pitch": 74,
                "velocity": 101,
                "duration": 0.1,
                "tempo": 120.0
            },
            {
                "start_time": 7.3363636,
                "end_time": 7.4386364,
                "pitch": 74,
                "velocity": 101,
                "duration": 0.1022727,
                "tempo": 120.0
            },
            {
                "start_time": 7.4386364,
                "end_time": 7.5386364,
                "pitch": 71,
                "velocity": 101,
                "duration": 0.1,
                "tempo": 120.0
            },
            {
                "start_time": 7.5386364,
                "end_time": 7.6386364,
                "pitch": 71,
                "velocity": 101,
                "duration": 0.1,
                "tempo": 120.0
            },
            {
                "start_time": 7.6386364,
                "end_time": 7.7386364,
                "pitch": 73,
                "velocity": 101,
                "duration": 0.1,
                "tempo": 120.0
            },
            {
                "start_time": 7.7386364,
                "end_time": 7.8386364,
                "pitch": 73,
                "velocity": 101,
                "duration": 0.1,
                "tempo": 120.0
            },
            {
                "start_time": 7.8386364,
                "end_time": 7.9386364,
                "pitch": 74,
                "velocity": 101,
                "duration": 0.1,
                "tempo": 120.0
            },
            {
                "start_time": 7.9386364,
                "end_time": 8.0386364,
                "pitch": 74,
                "velocity": 101,
                "duration": 0.1,
                "tempo": 120.0
            },
            {
                "start_time": 8.0386364,
                "end_time": 8.1,
                "pitch": 71,
                "velocity": 101,
                "duration": 0.0613636,
                "tempo": 120.0
            },
            {
                "start_time": 8.1,
                "end_time": 8.2,
                "pitch": 71,
                "velocity": 101,
                "duration": 0.1,
                "tempo": 120.0
            },
            {
                "start_time": 8.2,
                "end_time": 8.2931818,
                "pitch": 73,
                "velocity": 101,
                "duration": 0.0931818,
                "tempo": 120.0
            },
            {
                "start_time": 8.2931818,
                "end_time": 8.3863636,
                "pitch": 73,
                "velocity": 101,
                "duration": 0.0931818,
                "tempo": 120.0
            },
            {
                "start_time": 8.3863636,
                "end_time": 8.4795455,
                "pitch": 74,
                "velocity": 101,
                "duration": 0.0931818,
                "tempo": 120.0
            },
            {
                "start_time": 8.4795455,
                "end_time": 8.5704545,
                "pitch": 74,
                "velocity": 101,
                "duration": 0.0909091,
                "tempo": 120.0
            },
            {
                "start_time": 8.5704545,
                "end_time": 8.6704545,
                "pitch": 71,
                "velocity": 101,
                "duration": 0.1,
                "tempo": 120.0
            },
            {
                "start_time": 8.6704545,
                "end_time": 8.7727273,
                "pitch": 71,
                "velocity": 101,
                "duration": 0.1022727,
                "tempo": 120.0
            },
            {
                "start_time": 8.7727273,
                "end_time": 8.8727273,
                "pitch": 73,
                "velocity": 101,
                "duration": 0.1,
                "tempo": 120.0
            },
            {
                "start_time": 8.8727273,
                "end_time": 8.9727273,
                "pitch": 73,
                "velocity": 101,
                "duration": 0.1,
                "tempo": 120.0
            },
            {
                "start_time": 8.9727273,
                "end_time": 9.075,
                "pitch": 74,
                "velocity": 101,
                "duration": 0.1022727,
                "tempo": 120.0
            },
            {
                "start_time": 9.075,
                "end_time": 9.175,
                "pitch": 74,
                "velocity": 101,
                "duration": 0.1,
                "tempo": 120.0
            },
            {
                "start_time": 9.175,
                "end_time": 9.275,
                "pitch": 71,
                "velocity": 101,
                "duration": 0.1,
                "tempo": 120.0
            },
            {
                "start_time": 9.275,
                "end_time": 9.3772727,
                "pitch": 71,
                "velocity": 101,
                "duration": 0.1022727,
                "tempo": 120.0
            },
            {
                "start_time": 9.3772727,
                "end_time": 9.4772727,
                "pitch": 73,
                "velocity": 101,
                "duration": 0.1,
                "tempo": 120.0
            },
            {
                "start_time": 9.4772727,
                "end_time": 9.5772727,
                "pitch": 73,
                "velocity": 101,
                "duration": 0.1,
                "tempo": 120.0
            },
            {
                "start_time": 9.5772727,
                "end_time": 9.6772727,
                "pitch": 74,
                "velocity": 101,
                "duration": 0.1,
                "tempo": 120.0
            },
            {
                "start_time": 9.6772727,
                "end_time": 9.7795455,
                "pitch": 74,
                "velocity": 101,
                "duration": 0.1022727,
                "tempo": 120.0
            },
            {
                "start_time": 9.7795455,
                "end_time": 9.8795455,
                "pitch": 76,
                "velocity": 101,
                "duration": 0.1,
                "tempo": 120.0
            },
            {
                "start_time": 9.8795455,
                "end_time": 9.9795455,
                "pitch": 76,
                "velocity": 101,
                "duration": 0.1,
                "tempo": 120.0
            },
            {
                "start_time": 9.9795455,
                "end_time": 10.0818182,
                "pitch": 73,
                "velocity": 101,
                "duration": 0.1022727,
                "tempo": 120.0
            },
            {
                "start_time": 10.0818182,
                "end_time": 10.1818182,
                "pitch": 73,
                "velocity": 101,
                "duration": 0.1,
                "tempo": 120.0
            },
            {
                "start_time": 10.1818182,
                "end_time": 10.2522727,
                "pitch": 74,
                "velocity": 101,
                "duration": 0.0704545,
                "tempo": 120.0
            },
            {
                "start_time": 10.2522727,
                "end_time": 10.3522727,
                "pitch": 74,
                "velocity": 101,
                "duration": 0.1,
                "tempo": 120.0
            },
            {
                "start_time": 10.3522727,
                "end_time": 10.4522727,
                "pitch": 76,
                "velocity": 101,
                "duration": 0.1,
                "tempo": 120.0
            },
            {
                "start_time": 10.4522727,
                "end_time": 10.5522727,
                "pitch": 76,
                "velocity": 101,
                "duration": 0.1,
                "tempo": 120.0
            },
            {
                "start_time": 10.5522727,
                "end_time": 10.6454545,
                "pitch": 73,
                "velocity": 101,
                "duration": 0.0931818,
                "tempo": 120.0
            },
            {
                "start_time": 10.6454545,
                "end_time": 10.7386364,
                "pitch": 73,
                "velocity": 101,
                "duration": 0.0931818,
                "tempo": 120.0
            },
            {
                "start_time": 10.7386364,
                "end_time": 10.8295455,
                "pitch": 74,
                "velocity": 101,
                "duration": 0.0909091,
                "tempo": 120.0
            },
            {
                "start_time": 10.8295455,
                "end_time": 10.9227273,
                "pitch": 74,
                "velocity": 101,
                "duration": 0.0931818,
                "tempo": 120.0
            },
            {
                "start_time": 10.9227273,
                "end_time": 11.0204545,
                "pitch": 76,
                "velocity": 101,
                "duration": 0.0977273,
                "tempo": 120.0
            },
            {
                "start_time": 11.0204545,
                "end_time": 11.1181818,
                "pitch": 76,
                "velocity": 101,
                "duration": 0.0977273,
                "tempo": 120.0
            },
            {
                "start_time": 11.1181818,
                "end_time": 11.2159091,
                "pitch": 73,
                "velocity": 101,
                "duration": 0.0977273,
                "tempo": 120.0
            },
            {
                "start_time": 11.2159091,
                "end_time": 11.3159091,
                "pitch": 73,
                "velocity": 101,
                "duration": 0.1,
                "tempo": 120.0
            },
            {
                "start_time": 11.3159091,
                "end_time": 11.4159091,
                "pitch": 74,
                "velocity": 101,
                "duration": 0.1,
                "tempo": 120.0
            },
            {
                "start_time": 11.4159091,
                "end_time": 11.5159091,
                "pitch": 74,
                "velocity": 101,
                "duration": 0.1,
                "tempo": 120.0
            },
            {
                "start_time": 11.5159091,
                "end_time": 11.6159091,
                "pitch": 76,
                "velocity": 101,
                "duration": 0.1,
                "tempo": 120.0
            },
            {
                "start_time": 11.6159091,
                "end_time": 11.7159091,
                "pitch": 76,
                "velocity": 101,
                "duration": 0.1,
                "tempo": 120.0
            },
            {
                "start_time": 11.7159091,
                "end_time": 11.8159091,
                "pitch": 74,
                "velocity": 101,
                "duration": 0.1,
                "tempo": 120.0
            },
            {
                "start_time": 11.8159091,
                "end_time": 11.9159091,
                "pitch": 74,
                "velocity": 101,
                "duration": 0.1,
                "tempo": 120.0
            },
            {
                "start_time": 11.9159091,
                "end_time": 12.0159091,
                "pitch": 73,
                "velocity": 101,
                "duration": 0.1,
                "tempo": 120.0
            },
            {
                "start_time": 12.0159091,
                "end_time": 12.1181818,
                "pitch": 73,
                "velocity": 101,
                "duration": 0.1022727,
                "tempo": 120.0
            },
            {
                "start_time": 12.1181818,
                "end_time": 12.2159091,
                "pitch": 71,
                "velocity": 101,
                "duration": 0.0977273,
                "tempo": 120.0
            },
            {
                "start_time": 12.2159091,
                "end_time": 12.2840909,
                "pitch": 71,
                "velocity": 101,
                "duration": 0.0681818,
                "tempo": 120.0
            },
            {
                "start_time": 12.2840909,
                "end_time": 12.3818182,
                "pitch": 69,
                "velocity": 101,
                "duration": 0.0977273,
                "tempo": 120.0
            },
            {
                "start_time": 12.3818182,
                "end_time": 12.4795455,
                "pitch": 69,
                "velocity": 101,
                "duration": 0.0977273,
                "tempo": 120.0
            },
            {
                "start_time": 12.4795455,
                "end_time": 12.6704545,
                "pitch": 71,
                "velocity": 101,
                "duration": 0.1909091,
                "tempo": 120.0
            },
            {
                "start_time": 12.6704545,
                "end_time": 12.8613636,
                "pitch": 71,
                "velocity": 101,
                "duration": 0.1909091,
                "tempo": 120.0
            },
            {
                "start_time": 12.8613636,
                "end_time": 13.0636364,
                "pitch": 78,
                "velocity": 101,
                "duration": 0.2022727,
                "tempo": 120.0
            },
            {
                "start_time": 13.0636364,
                "end_time": 13.2659091,
                "pitch": 71,
                "velocity": 101,
                "duration": 0.2022727,
                "tempo": 120.0
            },
            {
                "start_time": 13.2659091,
                "end_time": 13.4659091,
                "pitch": 71,
                "velocity": 101,
                "duration": 0.2,
                "tempo": 120.0
            },
            {
                "start_time": 13.4659091,
                "end_time": 13.6681818,
                "pitch": 78,
                "velocity": 101,
                "duration": 0.2022727,
                "tempo": 120.0
            },
            {
                "start_time": 13.6681818,
                "end_time": 13.8681818,
                "pitch": 71,
                "velocity": 101,
                "duration": 0.2,
                "tempo": 120.0
            },
            {
                "start_time": 13.8681818,
                "end_time": 14.0704545,
                "pitch": 71,
                "velocity": 101,
                "duration": 0.2022727,
                "tempo": 120.0
            },
            {
                "start_time": 14.0704545,
                "end_time": 14.2704545,
                "pitch": 69,
                "velocity": 101,
                "duration": 0.2,
                "tempo": 120.0
            },
            {
                "start_time": 14.2704545,
                "end_time": 14.4318182,
                "pitch": 69,
                "velocity": 101,
                "duration": 0.1613636,
                "tempo": 120.0
            },
            {
                "start_time": 14.4318182,
                "end_time": 14.4431818,
                "pitch": 78,
                "velocity": 101,
                "duration": 0.0113636,
                "tempo": 120.0
            },
            {
                "start_time": 14.4431818,
                "end_time": 14.6272727,
                "pitch": 76,
                "velocity": 101,
                "duration": 0.1840909,
                "tempo": 120.0
            },
            {
                "start_time": 14.6272727,
                "end_time": 14.8136364,
                "pitch": 69,
                "velocity": 101,
                "duration": 0.1863636,
                "tempo": 120.0
            },
            {
                "start_time": 14.8136364,
                "end_time": 15.0136364,
                "pitch": 69,
                "velocity": 101,
                "duration": 0.2,
                "tempo": 120.0
            },
            {
                "start_time": 15.0136364,
                "end_time": 15.2159091,
                "pitch": 76,
                "velocity": 101,
                "duration": 0.2022727,
                "tempo": 120.0
            },
            {
                "start_time": 15.2159091,
                "end_time": 15.4181818,
                "pitch": 69,
                "velocity": 101,
                "duration": 0.2022727,
                "tempo": 120.0
            },
            {
                "start_time": 15.4181818,
                "end_time": 15.6181818,
                "pitch": 69,
                "velocity": 101,
                "duration": 0.2,
                "tempo": 120.0
            },
            {
                "start_time": 15.6181818,
                "end_time": 15.8181818,
                "pitch": 69,
                "velocity": 101,
                "duration": 0.2,
                "tempo": 120.0
            },
            {
                "start_time": 15.8181818,
                "end_time": 16.0181818,
                "pitch": 69,
                "velocity": 101,
                "duration": 0.2,
                "tempo": 120.0
            },
            {
                "start_time": 16.0181818,
                "end_time": 16.2204545,
                "pitch": 76,
                "velocity": 101,
                "duration": 0.2022727,
                "tempo": 120.0
            },
            {
                "start_time": 16.2204545,
                "end_time": 16.4204545,
                "pitch": 69,
                "velocity": 101,
                "duration": 0.2,
                "tempo": 120.0
            },
            {
                "start_time": 16.4204545,
                "end_time": 16.5818182,
                "pitch": 69,
                "velocity": 101,
                "duration": 0.1613636,
                "tempo": 120.0
            },
            {
                "start_time": 16.5818182,
                "end_time": 16.7818182,
                "pitch": 76,
                "velocity": 101,
                "duration": 0.2,
                "tempo": 120.0
            },
            {
                "start_time": 16.7818182,
                "end_time": 16.9681818,
                "pitch": 69,
                "velocity": 101,
                "duration": 0.1863636,
                "tempo": 120.0
            },
            {
                "start_time": 16.9681818,
                "end_time": 17.1522727,
                "pitch": 69,
                "velocity": 101,
                "duration": 0.1840909,
                "tempo": 120.0
            },
            {
                "start_time": 17.1522727,
                "end_time": 17.3477273,
                "pitch": 71,
                "velocity": 101,
                "duration": 0.1954545,
                "tempo": 120.0
            },
            {
                "start_time": 17.3477273,
                "end_time": 17.5454545,
                "pitch": 71,
                "velocity": 101,
                "duration": 0.1977273,
                "tempo": 120.0
            },
            {
                "start_time": 17.5454545,
                "end_time": 17.7454545,
                "pitch": 78,
                "velocity": 101,
                "duration": 0.2,
                "tempo": 120.0
            },
            {
                "start_time": 17.7454545,
                "end_time": 17.9454545,
                "pitch": 71,
                "velocity": 101,
                "duration": 0.2,
                "tempo": 120.0
            },
            {
                "start_time": 17.9454545,
                "end_time": 18.1454545,
                "pitch": 71,
                "velocity": 101,
                "duration": 0.2,
                "tempo": 120.0
            },
            {
                "start_time": 18.1454545,
                "end_time": 18.3431818,
                "pitch": 78,
                "velocity": 101,
                "duration": 0.1977273,
                "tempo": 120.0
            },
            {
                "start_time": 18.3431818,
                "end_time": 18.5409091,
                "pitch": 71,
                "velocity": 101,
                "duration": 0.1977273,
                "tempo": 120.0
            },
            {
                "start_time": 18.5409091,
                "end_time": 18.7068182,
                "pitch": 71,
                "velocity": 101,
                "duration": 0.1659091,
                "tempo": 120.0
            },
            {
                "start_time": 18.7068182,
                "end_time": 18.8977273,
                "pitch": 71,
                "velocity": 101,
                "duration": 0.1909091,
                "tempo": 120.0
            },
            {
                "start_time": 18.8977273,
                "end_time": 19.0886364,
                "pitch": 71,
                "velocity": 101,
                "duration": 0.1909091,
                "tempo": 120.0
            },
            {
                "start_time": 19.0886364,
                "end_time": 19.2886364,
                "pitch": 73,
                "velocity": 101,
                "duration": 0.2,
                "tempo": 120.0
            },
            {
                "start_time": 19.2886364,
                "end_time": 19.4886364,
                "pitch": 71,
                "velocity": 101,
                "duration": 0.2,
                "tempo": 120.0
            },
            {
                "start_time": 19.4886364,
                "end_time": 19.6886364,
                "pitch": 74,
                "velocity": 101,
                "duration": 0.2,
                "tempo": 120.0
            },
            {
                "start_time": 19.6886364,
                "end_time": 19.8886364,
                "pitch": 71,
                "velocity": 101,
                "duration": 0.2,
                "tempo": 120.0
            },
            {
                "start_time": 19.8886364,
                "end_time": 20.0909091,
                "pitch": 76,
                "velocity": 101,
                "duration": 0.2022727,
                "tempo": 120.0
            },
            {
                "start_time": 20.0909091,
                "end_time": 20.2909091,
                "pitch": 71,
                "velocity": 101,
                "duration": 0.2,
                "tempo": 120.0
            },
            {
                "start_time": 20.2909091,
                "end_time": 20.4909091,
                "pitch": 71,
                "velocity": 101,
                "duration": 0.2,
                "tempo": 120.0
            },
            {
                "start_time": 20.4909091,
                "end_time": 20.6909091,
                "pitch": 71,
                "velocity": 101,
                "duration": 0.2,
                "tempo": 120.0
            },
            {
                "start_time": 20.6909091,
                "end_time": 20.8636364,
                "pitch": 73,
                "velocity": 101,
                "duration": 0.1727273,
                "tempo": 120.0
            },
            {
                "start_time": 20.8636364,
                "end_time": 21.0636364,
                "pitch": 71,
                "velocity": 101,
                "duration": 0.2,
                "tempo": 120.0
            },
            {
                "start_time": 21.0636364,
                "end_time": 21.25,
                "pitch": 74,
                "velocity": 101,
                "duration": 0.1863636,
                "tempo": 120.0
            },
            {
                "start_time": 21.25,
                "end_time": 21.4340909,
                "pitch": 71,
                "velocity": 101,
                "duration": 0.1840909,
                "tempo": 120.0
            },
            {
                "start_time": 21.4340909,
                "end_time": 21.6363636,
                "pitch": 79,
                "velocity": 101,
                "duration": 0.2022727,
                "tempo": 120.0
            },
            {
                "start_time": 21.6363636,
                "end_time": 21.8363636,
                "pitch": 71,
                "velocity": 101,
                "duration": 0.2,
                "tempo": 120.0
            },
            {
                "start_time": 21.8363636,
                "end_time": 22.0363636,
                "pitch": 71,
                "velocity": 101,
                "duration": 0.2,
                "tempo": 120.0
            },
            {
                "start_time": 22.0363636,
                "end_time": 22.2363636,
                "pitch": 71,
                "velocity": 101,
                "duration": 0.2,
                "tempo": 120.0
            },
            {
                "start_time": 22.2363636,
                "end_time": 22.4363636,
                "pitch": 73,
                "velocity": 101,
                "duration": 0.2,
                "tempo": 120.0
            },
            {
                "start_time": 22.4363636,
                "end_time": 22.6363636,
                "pitch": 71,
                "velocity": 101,
                "duration": 0.2,
                "tempo": 120.0
            },
            {
                "start_time": 22.6363636,
                "end_time": 22.8386364,
                "pitch": 74,
                "velocity": 101,
                "duration": 0.2022727,
                "tempo": 120.0
            },
            {
                "start_time": 22.8386364,
                "end_time": 23.0,
                "pitch": 71,
                "velocity": 101,
                "duration": 0.1613636,
                "tempo": 120.0
            },
            {
                "start_time": 23.0,
                "end_time": 23.1863636,
                "pitch": 76,
                "velocity": 101,
                "duration": 0.1863636,
                "tempo": 120.0
            },
            {
                "start_time": 23.1863636,
                "end_time": 23.3704545,
                "pitch": 71,
                "velocity": 101,
                "duration": 0.1840909,
                "tempo": 120.0
            },
            {
                "start_time": 23.3704545,
                "end_time": 23.5659091,
                "pitch": 79,
                "velocity": 101,
                "duration": 0.1954545,
                "tempo": 120.0
            },
            {
                "start_time": 23.5659091,
                "end_time": 23.7636364,
                "pitch": 71,
                "velocity": 101,
                "duration": 0.1977273,
                "tempo": 120.0
            },
            {
                "start_time": 23.7636364,
                "end_time": 23.9681818,
                "pitch": 78,
                "velocity": 101,
                "duration": 0.2045455,
                "tempo": 120.0
            },
            {
                "start_time": 23.9681818,
                "end_time": 24.1727273,
                "pitch": 71,
                "velocity": 101,
                "duration": 0.2045455,
                "tempo": 120.0
            },
            {
                "start_time": 24.1727273,
                "end_time": 24.3704545,
                "pitch": 76,
                "velocity": 101,
                "duration": 0.1977273,
                "tempo": 120.0
            },
            {
                "start_time": 24.3704545,
                "end_time": 24.5659091,
                "pitch": 71,
                "velocity": 101,
                "duration": 0.1954545,
                "tempo": 120.0
            },
            {
                "start_time": 24.5659091,
                "end_time": 24.7681818,
                "pitch": 74,
                "velocity": 101,
                "duration": 0.2022727,
                "tempo": 120.0
            },
            {
                "start_time": 24.7681818,
                "end_time": 24.9386364,
                "pitch": 71,
                "velocity": 101,
                "duration": 0.1704545,
                "tempo": 120.0
            },
            {
                "start_time": 24.9386364,
                "end_time": 25.1227273,
                "pitch": 73,
                "velocity": 101,
                "duration": 0.1840909,
                "tempo": 120.0
            },
            {
                "start_time": 25.1227273,
                "end_time": 25.3090909,
                "pitch": 71,
                "velocity": 101,
                "duration": 0.1863636,
                "tempo": 120.0
            },
            {
                "start_time": 25.3090909,
                "end_time": 25.5090909,
                "pitch": 74,
                "velocity": 101,
                "duration": 0.2,
                "tempo": 120.0
            },
            {
                "start_time": 25.5090909,
                "end_time": 25.7113636,
                "pitch": 71,
                "velocity": 101,
                "duration": 0.2022727,
                "tempo": 120.0
            },
            {
                "start_time": 25.7113636,
                "end_time": 25.9113636,
                "pitch": 76,
                "velocity": 101,
                "duration": 0.2,
                "tempo": 120.0
            },
            {
                "start_time": 25.9113636,
                "end_time": 26.1113636,
                "pitch": 71,
                "velocity": 101,
                "duration": 0.2,
                "tempo": 120.0
            },
            {
                "start_time": 26.1113636,
                "end_time": 26.3136364,
                "pitch": 73,
                "velocity": 101,
                "duration": 0.2022727,
                "tempo": 120.0
            },
            {
                "start_time": 26.3136364,
                "end_time": 26.5136364,
                "pitch": 71,
                "velocity": 101,
                "duration": 0.2,
                "tempo": 120.0
            },
            {
                "start_time": 26.5136364,
                "end_time": 26.7136364,
                "pitch": 71,
                "velocity": 101,
                "duration": 0.2,
                "tempo": 120.0
            },
            {
                "start_time": 26.7136364,
                "end_time": 26.9136364,
                "pitch": 71,
                "velocity": 101,
                "duration": 0.2,
                "tempo": 120.0
            },
            {
                "start_time": 26.9136364,
                "end_time": 27.0840909,
                "pitch": 74,
                "velocity": 101,
                "duration": 0.1704545,
                "tempo": 120.0
            },
            {
                "start_time": 27.0840909,
                "end_time": 27.2840909,
                "pitch": 74,
                "velocity": 101,
                "duration": 0.2,
                "tempo": 120.0
            },
            {
                "start_time": 27.2840909,
                "end_time": 27.4681818,
                "pitch": 73,
                "velocity": 101,
                "duration": 0.1840909,
                "tempo": 120.0
            },
            {
                "start_time": 27.4681818,
                "end_time": 27.6545455,
                "pitch": 73,
                "velocity": 101,
                "duration": 0.1863636,
                "tempo": 120.0
            },
            {
                "start_time": 27.6545455,
                "end_time": 27.8545455,
                "pitch": 76,
                "velocity": 101,
                "duration": 0.2,
                "tempo": 120.0
            },
            {
                "start_time": 27.8545455,
                "end_time": 28.0545455,
                "pitch": 76,
                "velocity": 101,
                "duration": 0.2,
                "tempo": 120.0
            },
            {
                "start_time": 28.0545455,
                "end_time": 28.2568182,
                "pitch": 71,
                "velocity": 101,
                "duration": 0.2022727,
                "tempo": 120.0
            },
            {
                "start_time": 28.2568182,
                "end_time": 28.4568182,
                "pitch": 71,
                "velocity": 101,
                "duration": 0.2,
                "tempo": 120.0
            },
            {
                "start_time": 28.4568182,
                "end_time": 28.6568182,
                "pitch": 74,
                "velocity": 101,
                "duration": 0.2,
                "tempo": 120.0
            },
            {
                "start_time": 28.6568182,
                "end_time": 28.8568182,
                "pitch": 74,
                "velocity": 101,
                "duration": 0.2,
                "tempo": 120.0
            },
            {
                "start_time": 28.8568182,
                "end_time": 29.0590909,
                "pitch": 73,
                "velocity": 101,
                "duration": 0.2022727,
                "tempo": 120.0
            },
            {
                "start_time": 29.0590909,
                "end_time": 29.2295455,
                "pitch": 73,
                "velocity": 101,
                "duration": 0.1704545,
                "tempo": 120.0
            },
            {
                "start_time": 29.2295455,
                "end_time": 29.4136364,
                "pitch": 69,
                "velocity": 101,
                "duration": 0.1840909,
                "tempo": 120.0
            },
            {
                "start_time": 29.4136364,
                "end_time": 29.5909091,
                "pitch": 69,
                "velocity": 101,
                "duration": 0.1772727,
                "tempo": 120.0
            },
            {
                "start_time": 29.6,
                "end_time": 29.7909091,
                "pitch": 71,
                "velocity": 101,
                "duration": 0.1909091,
                "tempo": 120.0
            },
            {
                "start_time": 29.7909091,
                "end_time": 30.0022727,
                "pitch": 71,
                "velocity": 101,
                "duration": 0.2113636,
                "tempo": 120.0
            },
            {
                "start_time": 30.0022727,
                "end_time": 30.1931818,
                "pitch": 74,
                "velocity": 101,
                "duration": 0.1909091,
                "tempo": 120.0
            },
            {
                "start_time": 30.1931818,
                "end_time": 30.3931818,
                "pitch": 74,
                "velocity": 101,
                "duration": 0.2,
                "tempo": 120.0
            },
            {
                "start_time": 30.3931818,
                "end_time": 30.6045455,
                "pitch": 73,
                "velocity": 101,
                "duration": 0.2113636,
                "tempo": 120.0
            },
            {
                "start_time": 30.6045455,
                "end_time": 30.7954545,
                "pitch": 73,
                "velocity": 101,
                "duration": 0.1909091,
                "tempo": 120.0
            },
            {
                "start_time": 30.8045455,
                "end_time": 31.0045455,
                "pitch": 76,
                "velocity": 101,
                "duration": 0.2,
                "tempo": 120.0
            },
            {
                "start_time": 31.0045455,
                "end_time": 31.2045455,
                "pitch": 76,
                "velocity": 101,
                "duration": 0.2,
                "tempo": 120.0
            },
            {
                "start_time": 31.2045455,
                "end_time": 31.3659091,
                "pitch": 71,
                "velocity": 101,
                "duration": 0.1613636,
                "tempo": 120.0
            },
            {
                "start_time": 31.3659091,
                "end_time": 31.5659091,
                "pitch": 71,
                "velocity": 101,
                "duration": 0.2,
                "tempo": 120.0
            },
            {
                "start_time": 31.5659091,
                "end_time": 31.7522727,
                "pitch": 74,
                "velocity": 101,
                "duration": 0.1863636,
                "tempo": 120.0
            },
            {
                "start_time": 31.7522727,
                "end_time": 31.9363636,
                "pitch": 74,
                "velocity": 101,
                "duration": 0.1840909,
                "tempo": 120.0
            },
            {
                "start_time": 31.9363636,
                "end_time": 32.1363636,
                "pitch": 73,
                "velocity": 101,
                "duration": 0.2,
                "tempo": 120.0
            },
            {
                "start_time": 32.1363636,
                "end_time": 32.3363636,
                "pitch": 73,
                "velocity": 101,
                "duration": 0.2,
                "tempo": 120.0
            },
            {
                "start_time": 32.3363636,
                "end_time": 32.5318182,
                "pitch": 69,
                "velocity": 101,
                "duration": 0.1954545,
                "tempo": 120.0
            },
            {
                "start_time": 32.5318182,
                "end_time": 32.7272727,
                "pitch": 69,
                "velocity": 101,
                "duration": 0.1954545,
                "tempo": 120.0
            },
            {
                "start_time": 32.7272727,
                "end_time": 32.9272727,
                "pitch": 71,
                "velocity": 101,
                "duration": 0.2,
                "tempo": 120.0
            },
            {
                "start_time": 32.9272727,
                "end_time": 33.1272727,
                "pitch": 71,
                "velocity": 101,
                "duration": 0.2,
                "tempo": 120.0
            },
            {
                "start_time": 33.1272727,
                "end_time": 33.3227273,
                "pitch": 74,
                "velocity": 101,
                "duration": 0.1954545,
                "tempo": 120.0
            },
            {
                "start_time": 33.3227273,
                "end_time": 33.4909091,
                "pitch": 74,
                "velocity": 101,
                "duration": 0.1681818,
                "tempo": 120.0
            },
            {
                "start_time": 33.4909091,
                "end_time": 33.6818182,
                "pitch": 73,
                "velocity": 101,
                "duration": 0.1909091,
                "tempo": 120.0
            },
            {
                "start_time": 33.6818182,
                "end_time": 33.8727273,
                "pitch": 73,
                "velocity": 101,
                "duration": 0.1909091,
                "tempo": 120.0
            },
            {
                "start_time": 33.8727273,
                "end_time": 34.0727273,
                "pitch": 76,
                "velocity": 101,
                "duration": 0.2,
                "tempo": 120.0
            },
            {
                "start_time": 34.0727273,
                "end_time": 34.2727273,
                "pitch": 76,
                "velocity": 101,
                "duration": 0.2,
                "tempo": 120.0
            },
            {
                "start_time": 34.2727273,
                "end_time": 34.4727273,
                "pitch": 71,
                "velocity": 101,
                "duration": 0.2,
                "tempo": 120.0
            },
            {
                "start_time": 34.4727273,
                "end_time": 34.6727273,
                "pitch": 71,
                "velocity": 101,
                "duration": 0.2,
                "tempo": 120.0
            },
            {
                "start_time": 34.6727273,
                "end_time": 34.8727273,
                "pitch": 74,
                "velocity": 101,
                "duration": 0.2,
                "tempo": 120.0
            },
            {
                "start_time": 34.8727273,
                "end_time": 35.075,
                "pitch": 74,
                "velocity": 101,
                "duration": 0.2022727,
                "tempo": 120.0
            },
            {
                "start_time": 35.075,
                "end_time": 35.275,
                "pitch": 73,
                "velocity": 101,
                "duration": 0.2,
                "tempo": 120.0
            },
            {
                "start_time": 35.275,
                "end_time": 35.475,
                "pitch": 73,
                "velocity": 101,
                "duration": 0.2,
                "tempo": 120.0
            },
            {
                "start_time": 35.475,
                "end_time": 35.6454545,
                "pitch": 69,
                "velocity": 101,
                "duration": 0.1704545,
                "tempo": 120.0
            },
            {
                "start_time": 35.6454545,
                "end_time": 35.8454545,
                "pitch": 69,
                "velocity": 101,
                "duration": 0.2,
                "tempo": 120.0
            },
            {
                "start_time": 35.8454545,
                "end_time": 36.0295455,
                "pitch": 71,
                "velocity": 101,
                "duration": 0.1840909,
                "tempo": 120.0
            },
            {
                "start_time": 36.0295455,
                "end_time": 36.2159091,
                "pitch": 71,
                "velocity": 101,
                "duration": 0.1863636,
                "tempo": 120.0
            },
            {
                "start_time": 36.2159091,
                "end_time": 36.4159091,
                "pitch": 74,
                "velocity": 101,
                "duration": 0.2,
                "tempo": 120.0
            },
            {
                "start_time": 36.4159091,
                "end_time": 36.6159091,
                "pitch": 74,
                "velocity": 101,
                "duration": 0.2,
                "tempo": 120.0
            },
            {
                "start_time": 36.6159091,
                "end_time": 36.8159091,
                "pitch": 73,
                "velocity": 101,
                "duration": 0.2,
                "tempo": 120.0
            },
            {
                "start_time": 36.8159091,
                "end_time": 37.0181818,
                "pitch": 73,
                "velocity": 101,
                "duration": 0.2022727,
                "tempo": 120.0
            },
            {
                "start_time": 37.0181818,
                "end_time": 37.2181818,
                "pitch": 76,
                "velocity": 101,
                "duration": 0.2,
                "tempo": 120.0
            },
            {
                "start_time": 37.2181818,
                "end_time": 37.4181818,
                "pitch": 76,
                "velocity": 101,
                "duration": 0.2,
                "tempo": 120.0
            },
            {
                "start_time": 37.4181818,
                "end_time": 37.5772727,
                "pitch": 74,
                "velocity": 101,
                "duration": 0.1590909,
                "tempo": 120.0
            },
            {
                "start_time": 37.5772727,
                "end_time": 37.7772727,
                "pitch": 74,
                "velocity": 101,
                "duration": 0.2,
                "tempo": 120.0
            },
            {
                "start_time": 37.7772727,
                "end_time": 37.9636364,
                "pitch": 78,
                "velocity": 101,
                "duration": 0.1863636,
                "tempo": 120.0
            },
            {
                "start_time": 37.9636364,
                "end_time": 38.15,
                "pitch": 78,
                "velocity": 101,
                "duration": 0.1863636,
                "tempo": 120.0
            },
            {
                "start_time": 38.15,
                "end_time": 38.35,
                "pitch": 76,
                "velocity": 101,
                "duration": 0.2,
                "tempo": 120.0
            },
            {
                "start_time": 38.35,
                "end_time": 38.5522727,
                "pitch": 76,
                "velocity": 101,
                "duration": 0.2022727,
                "tempo": 120.0
            },
            {
                "start_time": 38.5522727,
                "end_time": 38.7477273,
                "pitch": 79,
                "velocity": 101,
                "duration": 0.1954545,
                "tempo": 120.0
            },
            {
                "start_time": 38.7477273,
                "end_time": 38.9431818,
                "pitch": 79,
                "velocity": 101,
                "duration": 0.1954545,
                "tempo": 120.0
            },
            {
                "start_time": 38.9522727,
                "end_time": 39.0454545,
                "pitch": 71,
                "velocity": 101,
                "duration": 0.0931818,
                "tempo": 120.0
            },
            {
                "start_time": 39.0454545,
                "end_time": 39.1477273,
                "pitch": 71,
                "velocity": 101,
                "duration": 0.1022727,
                "tempo": 120.0
            },
            {
                "start_time": 39.1477273,
                "end_time": 39.25,
                "pitch": 73,
                "velocity": 101,
                "duration": 0.1022727,
                "tempo": 120.0
            },
            {
                "start_time": 39.25,
                "end_time": 39.3545455,
                "pitch": 73,
                "velocity": 101,
                "duration": 0.1045455,
                "tempo": 120.0
            },
            {
                "start_time": 39.3545455,
                "end_time": 39.3636364,
                "pitch": 74,
                "velocity": 101,
                "duration": 0.0090909,
                "tempo": 120.0
            }
        ],
        "Electric Guitar (clean)": [
            {
                "start_time": 0.2204545,
                "end_time": 0.4204545,
                "pitch": 31,
                "velocity": 127,
                "duration": 0.2,
                "tempo": 120.0
            },
            {
                "start_time": 0.4204545,
                "end_time": 0.6204545,
                "pitch": 31,
                "velocity": 127,
                "duration": 0.2,
                "tempo": 120.0
            },
            {
                "start_time": 0.6204545,
                "end_time": 0.8204545,
                "pitch": 31,
                "velocity": 127,
                "duration": 0.2,
                "tempo": 120.0
            },
            {
                "start_time": 0.8204545,
                "end_time": 1.0204545,
                "pitch": 31,
                "velocity": 127,
                "duration": 0.2,
                "tempo": 120.0
            },
            {
                "start_time": 1.0204545,
                "end_time": 1.2204545,
                "pitch": 31,
                "velocity": 127,
                "duration": 0.2,
                "tempo": 120.0
            },
            {
                "start_time": 1.2204545,
                "end_time": 1.4204545,
                "pitch": 31,
                "velocity": 127,
                "duration": 0.2,
                "tempo": 120.0
            },
            {
                "start_time": 1.4204545,
                "end_time": 1.6204545,
                "pitch": 31,
                "velocity": 127,
                "duration": 0.2,
                "tempo": 120.0
            },
            {
                "start_time": 1.6204545,
                "end_time": 1.7818182,
                "pitch": 31,
                "velocity": 127,
                "duration": 0.1613636,
                "tempo": 120.0
            },
            {
                "start_time": 1.7818182,
                "end_time": 1.9818182,
                "pitch": 31,
                "velocity": 127,
                "duration": 0.2,
                "tempo": 120.0
            },
            {
                "start_time": 1.9818182,
                "end_time": 2.1636364,
                "pitch": 31,
                "velocity": 127,
                "duration": 0.1818182,
                "tempo": 120.0
            },
            {
                "start_time": 2.1636364,
                "end_time": 2.3431818,
                "pitch": 31,
                "velocity": 127,
                "duration": 0.1795455,
                "tempo": 120.0
            },
            {
                "start_time": 2.3431818,
                "end_time": 2.5431818,
                "pitch": 31,
                "velocity": 127,
                "duration": 0.2,
                "tempo": 120.0
            },
            {
                "start_time": 2.5431818,
                "end_time": 2.7431818,
                "pitch": 31,
                "velocity": 127,
                "duration": 0.2,
                "tempo": 120.0
            },
            {
                "start_time": 2.7545455,
                "end_time": 2.95,
                "pitch": 31,
                "velocity": 127,
                "duration": 0.1954545,
                "tempo": 120.0
            },
            {
                "start_time": 2.9590909,
                "end_time": 3.35,
                "pitch": 30,
                "velocity": 127,
                "duration": 0.3909091,
                "tempo": 120.0
            },
            {
                "start_time": 3.35,
                "end_time": 3.5477273,
                "pitch": 30,
                "velocity": 127,
                "duration": 0.1977273,
                "tempo": 120.0
            },
            {
                "start_time": 3.5477273,
                "end_time": 3.7477273,
                "pitch": 30,
                "velocity": 127,
                "duration": 0.2,
                "tempo": 120.0
            },
            {
                "start_time": 3.7477273,
                "end_time": 3.9159091,
                "pitch": 30,
                "velocity": 127,
                "duration": 0.1681818,
                "tempo": 120.0
            },
            {
                "start_time": 3.9159091,
                "end_time": 4.1022727,
                "pitch": 30,
                "velocity": 127,
                "duration": 0.1863636,
                "tempo": 120.0
            },
            {
                "start_time": 4.1022727,
                "end_time": 4.2863636,
                "pitch": 30,
                "velocity": 127,
                "duration": 0.1840909,
                "tempo": 120.0
            },
            {
                "start_time": 4.2863636,
                "end_time": 4.4863636,
                "pitch": 30,
                "velocity": 127,
                "duration": 0.2,
                "tempo": 120.0
            },
            {
                "start_time": 4.4863636,
                "end_time": 4.6863636,
                "pitch": 30,
                "velocity": 127,
                "duration": 0.2,
                "tempo": 120.0
            },
            {
                "start_time": 4.6863636,
                "end_time": 4.8886364,
                "pitch": 30,
                "velocity": 127,
                "duration": 0.2022727,
                "tempo": 120.0
            },
            {
                "start_time": 4.8886364,
                "end_time": 5.0886364,
                "pitch": 30,
                "velocity": 127,
                "duration": 0.2,
                "tempo": 120.0
            },
            {
                "start_time": 5.0886364,
                "end_time": 5.2909091,
                "pitch": 30,
                "velocity": 127,
                "duration": 0.2022727,
                "tempo": 120.0
            },
            {
                "start_time": 5.2909091,
                "end_time": 5.4931818,
                "pitch": 30,
                "velocity": 127,
                "duration": 0.2022727,
                "tempo": 120.0
            },
            {
                "start_time": 5.4931818,
                "end_time": 5.6931818,
                "pitch": 30,
                "velocity": 127,
                "duration": 0.2,
                "tempo": 120.0
            },
            {
                "start_time": 5.6931818,
                "end_time": 5.8931818,
                "pitch": 30,
                "velocity": 127,
                "duration": 0.2,
                "tempo": 120.0
            },
            {
                "start_time": 5.8931818,
                "end_time": 6.0636364,
                "pitch": 30,
                "velocity": 127,
                "duration": 0.1704545,
                "tempo": 120.0
            },
            {
                "start_time": 6.0636364,
                "end_time": 6.45,
                "pitch": 31,
                "velocity": 127,
                "duration": 0.3863636,
                "tempo": 120.0
            },
            {
                "start_time": 6.45,
                "end_time": 6.6363636,
                "pitch": 31,
                "velocity": 127,
                "duration": 0.1863636,
                "tempo": 120.0
            },
            {
                "start_time": 6.6363636,
                "end_time": 6.8363636,
                "pitch": 31,
                "velocity": 127,
                "duration": 0.2,
                "tempo": 120.0
            },
            {
                "start_time": 6.8363636,
                "end_time": 7.0363636,
                "pitch": 31,
                "velocity": 127,
                "duration": 0.2,
                "tempo": 120.0
            },
            {
                "start_time": 7.0363636,
                "end_time": 7.2363636,
                "pitch": 31,
                "velocity": 127,
                "duration": 0.2,
                "tempo": 120.0
            },
            {
                "start_time": 7.2363636,
                "end_time": 7.4386364,
                "pitch": 31,
                "velocity": 127,
                "duration": 0.2022727,
                "tempo": 120.0
            },
            {
                "start_time": 7.4386364,
                "end_time": 7.6386364,
                "pitch": 31,
                "velocity": 127,
                "duration": 0.2,
                "tempo": 120.0
            },
            {
                "start_time": 7.6386364,
                "end_time": 7.8386364,
                "pitch": 31,
                "velocity": 127,
                "duration": 0.2,
                "tempo": 120.0
            },
            {
                "start_time": 7.8386364,
                "end_time": 8.0386364,
                "pitch": 31,
                "velocity": 127,
                "duration": 0.2,
                "tempo": 120.0
            },
            {
                "start_time": 8.0386364,
                "end_time": 8.2,
                "pitch": 31,
                "velocity": 127,
                "duration": 0.1613636,
                "tempo": 120.0
            },
            {
                "start_time": 8.2,
                "end_time": 8.3954545,
                "pitch": 31,
                "velocity": 127,
                "duration": 0.1954545,
                "tempo": 120.0
            },
            {
                "start_time": 8.3954545,
                "end_time": 8.5704545,
                "pitch": 31,
                "velocity": 127,
                "duration": 0.175,
                "tempo": 120.0
            },
            {
                "start_time": 8.5704545,
                "end_time": 8.7818182,
                "pitch": 31,
                "velocity": 127,
                "duration": 0.2113636,
                "tempo": 120.0
            },
            {
                "start_time": 8.7818182,
                "end_time": 8.9840909,
                "pitch": 31,
                "velocity": 127,
                "duration": 0.2022727,
                "tempo": 120.0
            },
            {
                "start_time": 8.9840909,
                "end_time": 9.1840909,
                "pitch": 31,
                "velocity": 127,
                "duration": 0.2,
                "tempo": 120.0
            },
            {
                "start_time": 9.1840909,
                "end_time": 9.5772727,
                "pitch": 30,
                "velocity": 127,
                "duration": 0.3931818,
                "tempo": 120.0
            },
            {
                "start_time": 9.5772727,
                "end_time": 9.7795455,
                "pitch": 30,
                "velocity": 127,
                "duration": 0.2022727,
                "tempo": 120.0
            },
            {
                "start_time": 9.7795455,
                "end_time": 9.9795455,
                "pitch": 30,
                "velocity": 127,
                "duration": 0.2,
                "tempo": 120.0
            },
            {
                "start_time": 9.9909091,
                "end_time": 10.1818182,
                "pitch": 30,
                "velocity": 127,
                "duration": 0.1909091,
                "tempo": 120.0
            },
            {
                "start_time": 10.1909091,
                "end_time": 10.3522727,
                "pitch": 30,
                "velocity": 127,
                "duration": 0.1613636,
                "tempo": 120.0
            },
            {
                "start_time": 10.3522727,
                "end_time": 10.5522727,
                "pitch": 30,
                "velocity": 127,
                "duration": 0.2,
                "tempo": 120.0
            },
            {
                "start_time": 10.5522727,
                "end_time": 10.7386364,
                "pitch": 30,
                "velocity": 127,
                "duration": 0.1863636,
                "tempo": 120.0
            },
            {
                "start_time": 10.7386364,
                "end_time": 10.9227273,
                "pitch": 30,
                "velocity": 127,
                "duration": 0.1840909,
                "tempo": 120.0
            },
            {
                "start_time": 10.9227273,
                "end_time": 11.1181818,
                "pitch": 30,
                "velocity": 127,
                "duration": 0.1954545,
                "tempo": 120.0
            },
            {
                "start_time": 11.1181818,
                "end_time": 11.3159091,
                "pitch": 30,
                "velocity": 127,
                "duration": 0.1977273,
                "tempo": 120.0
            },
            {
                "start_time": 11.3159091,
                "end_time": 11.5159091,
                "pitch": 30,
                "velocity": 127,
                "duration": 0.2,
                "tempo": 120.0
            },
            {
                "start_time": 11.5159091,
                "end_time": 11.7159091,
                "pitch": 30,
                "velocity": 127,
                "duration": 0.2,
                "tempo": 120.0
            },
            {
                "start_time": 11.7159091,
                "end_time": 11.9159091,
                "pitch": 28,
                "velocity": 127,
                "duration": 0.2,
                "tempo": 120.0
            },
            {
                "start_time": 11.9159091,
                "end_time": 12.1181818,
                "pitch": 30,
                "velocity": 127,
                "duration": 0.2022727,
                "tempo": 120.0
            },
            {
                "start_time": 12.1181818,
                "end_time": 12.2840909,
                "pitch": 31,
                "velocity": 127,
                "duration": 0.1659091,
                "tempo": 120.0
            },
            {
                "start_time": 12.2840909,
                "end_time": 12.4795455,
                "pitch": 33,
                "velocity": 127,
                "duration": 0.1954545,
                "tempo": 120.0
            },
            {
                "start_time": 12.4795455,
                "end_time": 12.6704545,
                "pitch": 35,
                "velocity": 127,
                "duration": 0.1909091,
                "tempo": 120.0
            },
            {
                "start_time": 12.6704545,
                "end_time": 12.8613636,
                "pitch": 35,
                "velocity": 127,
                "duration": 0.1909091,
                "tempo": 120.0
            },
            {
                "start_time": 12.8613636,
                "end_time": 13.0636364,
                "pitch": 35,
                "velocity": 127,
                "duration": 0.2022727,
                "tempo": 120.0
            },
            {
                "start_time": 13.0636364,
                "end_time": 13.2659091,
                "pitch": 35,
                "velocity": 127,
                "duration": 0.2022727,
                "tempo": 120.0
            },
            {
                "start_time": 13.2659091,
                "end_time": 13.4659091,
                "pitch": 35,
                "velocity": 127,
                "duration": 0.2,
                "tempo": 120.0
            },
            {
                "start_time": 13.4659091,
                "end_time": 13.6681818,
                "pitch": 35,
                "velocity": 127,
                "duration": 0.2022727,
                "tempo": 120.0
            },
            {
                "start_time": 13.6681818,
                "end_time": 13.8681818,
                "pitch": 35,
                "velocity": 127,
                "duration": 0.2,
                "tempo": 120.0
            },
            {
                "start_time": 13.8681818,
                "end_time": 14.2704545,
                "pitch": 37,
                "velocity": 127,
                "duration": 0.4022727,
                "tempo": 120.0
            },
            {
                "start_time": 14.2704545,
                "end_time": 14.4431818,
                "pitch": 37,
                "velocity": 127,
                "duration": 0.1727273,
                "tempo": 120.0
            },
            {
                "start_time": 14.4431818,
                "end_time": 14.6272727,
                "pitch": 37,
                "velocity": 127,
                "duration": 0.1840909,
                "tempo": 120.0
            },
            {
                "start_time": 14.6272727,
                "end_time": 14.8136364,
                "pitch": 37,
                "velocity": 127,
                "duration": 0.1863636,
                "tempo": 120.0
            },
            {
                "start_time": 14.8136364,
                "end_time": 15.0136364,
                "pitch": 37,
                "velocity": 127,
                "duration": 0.2,
                "tempo": 120.0
            },
            {
                "start_time": 15.0136364,
                "end_time": 15.2159091,
                "pitch": 37,
                "velocity": 127,
                "duration": 0.2022727,
                "tempo": 120.0
            },
            {
                "start_time": 15.2159091,
                "end_time": 15.4181818,
                "pitch": 37,
                "velocity": 127,
                "duration": 0.2022727,
                "tempo": 120.0
            },
            {
                "start_time": 15.4181818,
                "end_time": 15.6181818,
                "pitch": 37,
                "velocity": 127,
                "duration": 0.2,
                "tempo": 120.0
            },
            {
                "start_time": 15.6181818,
                "end_time": 15.8181818,
                "pitch": 37,
                "velocity": 127,
                "duration": 0.2,
                "tempo": 120.0
            },
            {
                "start_time": 15.8181818,
                "end_time": 16.0181818,
                "pitch": 37,
                "velocity": 127,
                "duration": 0.2,
                "tempo": 120.0
            },
            {
                "start_time": 16.0181818,
                "end_time": 16.2204545,
                "pitch": 37,
                "velocity": 127,
                "duration": 0.2022727,
                "tempo": 120.0
            },
            {
                "start_time": 16.2204545,
                "end_time": 16.4204545,
                "pitch": 37,
                "velocity": 127,
                "duration": 0.2,
                "tempo": 120.0
            },
            {
                "start_time": 16.4204545,
                "end_time": 16.5818182,
                "pitch": 37,
                "velocity": 127,
                "duration": 0.1613636,
                "tempo": 120.0
            },
            {
                "start_time": 16.5818182,
                "end_time": 16.7818182,
                "pitch": 37,
                "velocity": 127,
                "duration": 0.2,
                "tempo": 120.0
            },
            {
                "start_time": 16.7818182,
                "end_time": 16.9681818,
                "pitch": 37,
                "velocity": 127,
                "duration": 0.1863636,
                "tempo": 120.0
            },
            {
                "start_time": 16.9681818,
                "end_time": 17.3477273,
                "pitch": 38,
                "velocity": 127,
                "duration": 0.3795455,
                "tempo": 120.0
            },
            {
                "start_time": 17.3477273,
                "end_time": 17.5454545,
                "pitch": 38,
                "velocity": 127,
                "duration": 0.1977273,
                "tempo": 120.0
            },
            {
                "start_time": 17.5454545,
                "end_time": 17.7454545,
                "pitch": 38,
                "velocity": 127,
                "duration": 0.2,
                "tempo": 120.0
            },
            {
                "start_time": 17.7454545,
                "end_time": 17.9454545,
                "pitch": 38,
                "velocity": 127,
                "duration": 0.2,
                "tempo": 120.0
            },
            {
                "start_time": 17.9454545,
                "end_time": 18.1454545,
                "pitch": 38,
                "velocity": 127,
                "duration": 0.2,
                "tempo": 120.0
            },
            {
                "start_time": 18.1454545,
                "end_time": 18.3431818,
                "pitch": 38,
                "velocity": 127,
                "duration": 0.1977273,
                "tempo": 120.0
            },
            {
                "start_time": 18.3431818,
                "end_time": 18.5409091,
                "pitch": 38,
                "velocity": 127,
                "duration": 0.1977273,
                "tempo": 120.0
            },
            {
                "start_time": 18.5409091,
                "end_time": 18.7068182,
                "pitch": 39,
                "velocity": 127,
                "duration": 0.1659091,
                "tempo": 120.0
            },
            {
                "start_time": 18.7068182,
                "end_time": 18.8977273,
                "pitch": 39,
                "velocity": 127,
                "duration": 0.1909091,
                "tempo": 120.0
            },
            {
                "start_time": 18.8977273,
                "end_time": 19.0886364,
                "pitch": 39,
                "velocity": 127,
                "duration": 0.1909091,
                "tempo": 120.0
            },
            {
                "start_time": 19.0886364,
                "end_time": 19.2886364,
                "pitch": 39,
                "velocity": 127,
                "duration": 0.2,
                "tempo": 120.0
            },
            {
                "start_time": 19.2886364,
                "end_time": 19.4886364,
                "pitch": 39,
                "velocity": 127,
                "duration": 0.2,
                "tempo": 120.0
            },
            {
                "start_time": 19.4886364,
                "end_time": 19.6886364,
                "pitch": 39,
                "velocity": 127,
                "duration": 0.2,
                "tempo": 120.0
            },
            {
                "start_time": 19.6886364,
                "end_time": 19.8886364,
                "pitch": 39,
                "velocity": 127,
                "duration": 0.2,
                "tempo": 120.0
            },
            {
                "start_time": 19.8886364,
                "end_time": 20.0909091,
                "pitch": 39,
                "velocity": 127,
                "duration": 0.2022727,
                "tempo": 120.0
            },
            {
                "start_time": 20.0909091,
                "end_time": 20.4909091,
                "pitch": 40,
                "velocity": 127,
                "duration": 0.4,
                "tempo": 120.0
            },
            {
                "start_time": 20.4909091,
                "end_time": 20.6909091,
                "pitch": 40,
                "velocity": 127,
                "duration": 0.2,
                "tempo": 120.0
            },
            {
                "start_time": 20.6909091,
                "end_time": 20.8636364,
                "pitch": 40,
                "velocity": 127,
                "duration": 0.1727273,
                "tempo": 120.0
            },
            {
                "start_time": 20.8636364,
                "end_time": 21.0636364,
                "pitch": 40,
                "velocity": 127,
                "duration": 0.2,
                "tempo": 120.0
            },
            {
                "start_time": 21.0636364,
                "end_time": 21.25,
                "pitch": 40,
                "velocity": 127,
                "duration": 0.1863636,
                "tempo": 120.0
            },
            {
                "start_time": 21.25,
                "end_time": 21.4340909,
                "pitch": 40,
                "velocity": 127,
                "duration": 0.1840909,
                "tempo": 120.0
            },
            {
                "start_time": 21.4340909,
                "end_time": 21.6363636,
                "pitch": 40,
                "velocity": 127,
                "duration": 0.2022727,
                "tempo": 120.0
            },
            {
                "start_time": 21.6363636,
                "end_time": 22.0363636,
                "pitch": 41,
                "velocity": 127,
                "duration": 0.4,
                "tempo": 120.0
            },
            {
                "start_time": 22.0363636,
                "end_time": 22.2363636,
                "pitch": 41,
                "velocity": 127,
                "duration": 0.2,
                "tempo": 120.0
            },
            {
                "start_time": 22.2363636,
                "end_time": 22.4363636,
                "pitch": 41,
                "velocity": 127,
                "duration": 0.2,
                "tempo": 120.0
            },
            {
                "start_time": 22.4363636,
                "end_time": 22.6363636,
                "pitch": 41,
                "velocity": 127,
                "duration": 0.2,
                "tempo": 120.0
            },
            {
                "start_time": 22.6363636,
                "end_time": 22.8386364,
                "pitch": 41,
                "velocity": 127,
                "duration": 0.2022727,
                "tempo": 120.0
            },
            {
                "start_time": 22.8386364,
                "end_time": 23.0090909,
                "pitch": 41,
                "velocity": 127,
                "duration": 0.1704545,
                "tempo": 120.0
            },
            {
                "start_time": 23.0090909,
                "end_time": 23.1954545,
                "pitch": 41,
                "velocity": 127,
                "duration": 0.1863636,
                "tempo": 120.0
            },
            {
                "start_time": 23.1954545,
                "end_time": 23.7636364,
                "pitch": 42,
                "velocity": 127,
                "duration": 0.5681818,
                "tempo": 120.0
            },
            {
                "start_time": 23.7636364,
                "end_time": 23.9681818,
                "pitch": 42,
                "velocity": 127,
                "duration": 0.2045455,
                "tempo": 120.0
            },
            {
                "start_time": 23.9681818,
                "end_time": 24.5659091,
                "pitch": 40,
                "velocity": 127,
                "duration": 0.5977273,
                "tempo": 120.0
            },
            {
                "start_time": 24.5659091,
                "end_time": 24.7681818,
                "pitch": 40,
                "velocity": 127,
                "duration": 0.2022727,
                "tempo": 120.0
            },
            {
                "start_time": 24.7681818,
                "end_time": 25.3090909,
                "pitch": 38,
                "velocity": 127,
                "duration": 0.5409091,
                "tempo": 120.0
            },
            {
                "start_time": 25.3090909,
                "end_time": 25.5090909,
                "pitch": 38,
                "velocity": 127,
                "duration": 0.2,
                "tempo": 120.0
            },
            {
                "start_time": 25.5090909,
                "end_time": 26.5136364,
                "pitch": 37,
                "velocity": 127,
                "duration": 1.0045455,
                "tempo": 120.0
            },
            {
                "start_time": 26.5136364,
                "end_time": 26.7136364,
                "pitch": 35,
                "velocity": 127,
                "duration": 0.2,
                "tempo": 120.0
            },
            {
                "start_time": 26.7136364,
                "end_time": 26.9136364,
                "pitch": 35,
                "velocity": 127,
                "duration": 0.2,
                "tempo": 120.0
            },
            {
                "start_time": 26.9136364,
                "end_time": 27.0840909,
                "pitch": 35,
                "velocity": 127,
                "duration": 0.1704545,
                "tempo": 120.0
            },
            {
                "start_time": 27.0840909,
                "end_time": 27.2840909,
                "pitch": 35,
                "velocity": 127,
                "duration": 0.2,
                "tempo": 120.0
            },
            {
                "start_time": 27.2840909,
                "end_time": 27.4681818,
                "pitch": 35,
                "velocity": 127,
                "duration": 0.1840909,
                "tempo": 120.0
            },
            {
                "start_time": 27.4681818,
                "end_time": 27.6545455,
                "pitch": 35,
                "velocity": 127,
                "duration": 0.1863636,
                "tempo": 120.0
            },
            {
                "start_time": 27.6545455,
                "end_time": 27.8545455,
                "pitch": 35,
                "velocity": 127,
                "duration": 0.2,
                "tempo": 120.0
            },
            {
                "start_time": 27.8545455,
                "end_time": 28.2568182,
                "pitch": 30,
                "velocity": 127,
                "duration": 0.4022727,
                "tempo": 120.0
            },
            {
                "start_time": 28.2568182,
                "end_time": 28.4568182,
                "pitch": 30,
                "velocity": 127,
                "duration": 0.2,
                "tempo": 120.0
            },
            {
                "start_time": 28.4568182,
                "end_time": 28.6568182,
                "pitch": 30,
                "velocity": 127,
                "duration": 0.2,
                "tempo": 120.0
            },
            {
                "start_time": 28.6568182,
                "end_time": 28.8568182,
                "pitch": 30,
                "velocity": 127,
                "duration": 0.2,
                "tempo": 120.0
            },
            {
                "start_time": 28.8568182,
                "end_time": 29.0590909,
                "pitch": 30,
                "velocity": 127,
                "duration": 0.2022727,
                "tempo": 120.0
            },
            {
                "start_time": 29.0590909,
                "end_time": 29.2295455,
                "pitch": 30,
                "velocity": 127,
                "duration": 0.1704545,
                "tempo": 120.0
            },
            {
                "start_time": 29.2295455,
                "end_time": 29.4136364,
                "pitch": 30,
                "velocity": 127,
                "duration": 0.1840909,
                "tempo": 120.0
            },
            {
                "start_time": 29.4136364,
                "end_time": 29.8022727,
                "pitch": 31,
                "velocity": 127,
                "duration": 0.3886364,
                "tempo": 120.0
            },
            {
                "start_time": 29.8022727,
                "end_time": 30.0022727,
                "pitch": 31,
                "velocity": 127,
                "duration": 0.2,
                "tempo": 120.0
            },
            {
                "start_time": 30.0022727,
                "end_time": 30.2022727,
                "pitch": 31,
                "velocity": 127,
                "duration": 0.2,
                "tempo": 120.0
            },
            {
                "start_time": 30.2022727,
                "end_time": 30.4022727,
                "pitch": 31,
                "velocity": 127,
                "duration": 0.2,
                "tempo": 120.0
            },
            {
                "start_time": 30.4022727,
                "end_time": 30.6045455,
                "pitch": 31,
                "velocity": 127,
                "duration": 0.2022727,
                "tempo": 120.0
            },
            {
                "start_time": 30.6045455,
                "end_time": 30.8045455,
                "pitch": 31,
                "velocity": 127,
                "duration": 0.2,
                "tempo": 120.0
            },
            {
                "start_time": 30.8045455,
                "end_time": 31.0045455,
                "pitch": 31,
                "velocity": 127,
                "duration": 0.2,
                "tempo": 120.0
            },
            {
                "start_time": 31.0045455,
                "end_time": 31.3659091,
                "pitch": 33,
                "velocity": 127,
                "duration": 0.3613636,
                "tempo": 120.0
            },
            {
                "start_time": 31.3659091,
                "end_time": 31.5659091,
                "pitch": 33,
                "velocity": 127,
                "duration": 0.2,
                "tempo": 120.0
            },
            {
                "start_time": 31.5659091,
                "end_time": 31.7522727,
                "pitch": 33,
                "velocity": 127,
                "duration": 0.1863636,
                "tempo": 120.0
            },
            {
                "start_time": 31.7522727,
                "end_time": 31.9363636,
                "pitch": 33,
                "velocity": 127,
                "duration": 0.1840909,
                "tempo": 120.0
            },
            {
                "start_time": 31.9363636,
                "end_time": 32.1363636,
                "pitch": 33,
                "velocity": 127,
                "duration": 0.2,
                "tempo": 120.0
            },
            {
                "start_time": 32.1363636,
                "end_time": 32.3363636,
                "pitch": 33,
                "velocity": 127,
                "duration": 0.2,
                "tempo": 120.0
            },
            {
                "start_time": 32.3363636,
                "end_time": 32.5318182,
                "pitch": 33,
                "velocity": 127,
                "duration": 0.1954545,
                "tempo": 120.0
            },
            {
                "start_time": 32.5318182,
                "end_time": 32.9272727,
                "pitch": 35,
                "velocity": 127,
                "duration": 0.3954545,
                "tempo": 120.0
            },
            {
                "start_time": 32.9272727,
                "end_time": 33.1272727,
                "pitch": 35,
                "velocity": 127,
                "duration": 0.2,
                "tempo": 120.0
            },
            {
                "start_time": 33.1272727,
                "end_time": 33.3227273,
                "pitch": 35,
                "velocity": 127,
                "duration": 0.1954545,
                "tempo": 120.0
            },
            {
                "start_time": 33.3227273,
                "end_time": 33.4909091,
                "pitch": 35,
                "velocity": 127,
                "duration": 0.1681818,
                "tempo": 120.0
            },
            {
                "start_time": 33.4909091,
                "end_time": 33.6818182,
                "pitch": 35,
                "velocity": 127,
                "duration": 0.1909091,
                "tempo": 120.0
            },
            {
                "start_time": 33.6818182,
                "end_time": 33.8727273,
                "pitch": 35,
                "velocity": 127,
                "duration": 0.1909091,
                "tempo": 120.0
            },
            {
                "start_time": 33.8727273,
                "end_time": 34.0727273,
                "pitch": 35,
                "velocity": 127,
                "duration": 0.2,
                "tempo": 120.0
            },
            {
                "start_time": 34.0727273,
                "end_time": 34.4727273,
                "pitch": 30,
                "velocity": 127,
                "duration": 0.4,
                "tempo": 120.0
            },
            {
                "start_time": 34.4727273,
                "end_time": 34.6727273,
                "pitch": 30,
                "velocity": 127,
                "duration": 0.2,
                "tempo": 120.0
            },
            {
                "start_time": 34.6727273,
                "end_time": 34.8727273,
                "pitch": 30,
                "velocity": 127,
                "duration": 0.2,
                "tempo": 120.0
            },
            {
                "start_time": 34.8727273,
                "end_time": 35.075,
                "pitch": 30,
                "velocity": 127,
                "duration": 0.2022727,
                "tempo": 120.0
            },
            {
                "start_time": 35.075,
                "end_time": 35.275,
                "pitch": 30,
                "velocity": 127,
                "duration": 0.2,
                "tempo": 120.0
            },
            {
                "start_time": 35.275,
                "end_time": 35.475,
                "pitch": 30,
                "velocity": 127,
                "duration": 0.2,
                "tempo": 120.0
            },
            {
                "start_time": 35.475,
                "end_time": 35.6454545,
                "pitch": 30,
                "velocity": 127,
                "duration": 0.1704545,
                "tempo": 120.0
            },
            {
                "start_time": 35.6454545,
                "end_time": 36.0295455,
                "pitch": 31,
                "velocity": 127,
                "duration": 0.3840909,
                "tempo": 120.0
            },
            {
                "start_time": 36.0295455,
                "end_time": 36.2159091,
                "pitch": 31,
                "velocity": 127,
                "duration": 0.1863636,
                "tempo": 120.0
            },
            {
                "start_time": 36.2159091,
                "end_time": 36.4159091,
                "pitch": 31,
                "velocity": 127,
                "duration": 0.2,
                "tempo": 120.0
            },
            {
                "start_time": 36.4159091,
                "end_time": 36.6159091,
                "pitch": 31,
                "velocity": 127,
                "duration": 0.2,
                "tempo": 120.0
            },
            {
                "start_time": 36.6159091,
                "end_time": 36.8159091,
                "pitch": 31,
                "velocity": 127,
                "duration": 0.2,
                "tempo": 120.0
            },
            {
                "start_time": 36.8159091,
                "end_time": 37.0181818,
                "pitch": 31,
                "velocity": 127,
                "duration": 0.2022727,
                "tempo": 120.0
            },
            {
                "start_time": 37.0181818,
                "end_time": 37.2181818,
                "pitch": 31,
                "velocity": 127,
                "duration": 0.2,
                "tempo": 120.0
            },
            {
                "start_time": 37.2181818,
                "end_time": 37.5772727,
                "pitch": 33,
                "velocity": 127,
                "duration": 0.3590909,
                "tempo": 120.0
            },
            {
                "start_time": 37.5772727,
                "end_time": 37.7772727,
                "pitch": 33,
                "velocity": 127,
                "duration": 0.2,
                "tempo": 120.0
            },
            {
                "start_time": 37.7772727,
                "end_time": 37.9636364,
                "pitch": 33,
                "velocity": 127,
                "duration": 0.1863636,
                "tempo": 120.0
            },
            {
                "start_time": 37.9636364,
                "end_time": 38.1590909,
                "pitch": 33,
                "velocity": 127,
                "duration": 0.1954545,
                "tempo": 120.0
            },
            {
                "start_time": 38.1590909,
                "end_time": 38.35,
                "pitch": 33,
                "velocity": 127,
                "duration": 0.1909091,
                "tempo": 120.0
            },
            {
                "start_time": 38.35,
                "end_time": 38.5522727,
                "pitch": 33,
                "velocity": 127,
                "duration": 0.2022727,
                "tempo": 120.0
            },
            {
                "start_time": 38.5522727,
                "end_time": 38.7477273,
                "pitch": 33,
                "velocity": 127,
                "duration": 0.1954545,
                "tempo": 120.0
            },
            {
                "start_time": 38.7477273,
                "end_time": 38.9431818,
                "pitch": 33,
                "velocity": 127,
                "duration": 0.1954545,
                "tempo": 120.0
            },
            {
                "start_time": 38.9522727,
                "end_time": 39.1477273,
                "pitch": 31,
                "velocity": 127,
                "duration": 0.1954545,
                "tempo": 120.0
            },
            {
                "start_time": 39.1477273,
                "end_time": 39.3636364,
                "pitch": 31,
                "velocity": 127,
                "duration": 0.2159091,
                "tempo": 120.0
            }
        ]
    }
}