{
    "mood": "angry",
    "instruments": {
        "Vibraphone": [
            {
                "start_time": 12.8704545,
                "end_time": 15.8840909,
                "pitch": 64,
                "velocity": 127,
                "duration": 3.0136364,
                "tempo": 120.0
            },
            {
                "start_time": 15.8840909,
                "end_time": 16.0931818,
                "pitch": 64,
                "velocity": 127,
                "duration": 0.2090909,
                "tempo": 120.0
            },
            {
                "start_time": 16.0931818,
                "end_time": 19.1045455,
                "pitch": 62,
                "velocity": 127,
                "duration": 3.0113636,
                "tempo": 120.0
            },
            {
                "start_time": 16.0931818,
                "end_time": 19.1045455,
                "pitch": 62,
                "velocity": 127,
                "duration": 3.0113636,
                "tempo": 120.0
            },
            {
                "start_time": 19.1045455,
                "end_time": 19.3090909,
                "pitch": 62,
                "velocity": 127,
                "duration": 0.2045455,
                "tempo": 120.0
            },
            {
                "start_time": 19.3090909,
                "end_time": 22.3227273,
                "pitch": 65,
                "velocity": 127,
                "duration": 3.0136364,
                "tempo": 120.0
            },
            {
                "start_time": 19.3090909,
                "end_time": 22.3227273,
                "pitch": 65,
                "velocity": 127,
                "duration": 3.0136364,
                "tempo": 120.0
            },
            {
                "start_time": 22.3227273,
                "end_time": 22.5295455,
                "pitch": 65,
                "velocity": 127,
                "duration": 0.2068182,
                "tempo": 120.0
            },
            {
                "start_time": 22.5295455,
                "end_time": 26.6386364,
                "pitch": 64,
                "velocity": 127,
                "duration": 4.1090909,
                "tempo": 120.0
            },
            {
                "start_time": 26.6386364,
                "end_time": 27.0863636,
                "pitch": 84,
                "velocity": 127,
                "duration": 0.4477273,
                "tempo": 120.0
            },
            {
                "start_time": 27.0863636,
                "end_time": 27.5431818,
                "pitch": 86,
                "velocity": 127,
                "duration": 0.4568182,
                "tempo": 120.0
            },
            {
                "start_time": 27.5431818,
                "end_time": 29.1386364,
                "pitch": 88,
                "velocity": 127,
                "duration": 1.5954545,
                "tempo": 120.0
            },
            {
                "start_time": 27.5431818,
                "end_time": 29.1386364,
                "pitch": 88,
                "velocity": 127,
                "duration": 1.5954545,
                "tempo": 120.0
            },
            {
                "start_time": 29.1386364,
                "end_time": 29.7386364,
                "pitch": 86,
                "velocity": 127,
                "duration": 0.6,
                "tempo": 120.0
            },
            {
                "start_time": 29.1386364,
                "end_time": 29.7386364,
                "pitch": 86,
                "velocity": 127,
                "duration": 0.6,
                "tempo": 120.0
            },
            {
                "start_time": 29.7386364,
                "end_time": 30.3409091,
                "pitch": 83,
                "velocity": 127,
                "duration": 0.6022727,
                "tempo": 120.0
            },
            {
                "start_time": 30.3431818,
                "end_time": 32.3727273,
                "pitch": 84,
                "velocity": 127,
                "duration": 2.0295455,
                "tempo": 120.0
            },
            {
                "start_time": 32.3727273,
                "end_time": 32.9772727,
                "pitch": 84,
                "velocity": 127,
                "duration": 0.6045455,
                "tempo": 120.0
            },
            {
                "start_time": 32.9772727,
                "end_time": 33.5886364,
                "pitch": 86,
                "velocity": 127,
                "duration": 0.6113636,
                "tempo": 120.0
            },
            {
                "start_time": 30.3409091,
                "end_time": 33.5886364,
                "pitch": 88,
                "velocity": 127,
                "duration": 3.2477273,
                "tempo": 120.0
            },
            {
                "start_time": 33.5886364,
                "end_time": 35.6113636,
                "pitch": 88,
                "velocity": 127,
                "duration": 2.0227273,
                "tempo": 120.0
            },
            {
                "start_time": 33.5909091,
                "end_time": 35.6113636,
                "pitch": 88,
                "velocity": 127,
                "duration": 2.0204545,
                "tempo": 120.0
            },
            {
                "start_time": 29.7386364,
                "end_time": 36.2113636,
                "pitch": 68,
                "velocity": 127,
                "duration": 6.4727273,
                "tempo": 120.0
            },
            {
                "start_time": 35.6113636,
                "end_time": 36.2113636,
                "pitch": 86,
                "velocity": 127,
                "duration": 0.6,
                "tempo": 120.0
            },
            {
                "start_time": 35.6113636,
                "end_time": 36.2113636,
                "pitch": 86,
                "velocity": 127,
                "duration": 0.6,
                "tempo": 120.0
            },
            {
                "start_time": 36.2113636,
                "end_time": 36.8159091,
                "pitch": 83,
                "velocity": 127,
                "duration": 0.6045455,
                "tempo": 120.0
            },
            {
                "start_time": 36.8159091,
                "end_time": 38.8477273,
                "pitch": 84,
                "velocity": 127,
                "duration": 2.0318182,
                "tempo": 120.0
            },
            {
                "start_time": 38.8477273,
                "end_time": 39.0409091,
                "pitch": 84,
                "velocity": 80,
                "duration": 0.1931818,
                "tempo": 120.0
            },
            {
                "start_time": 39.0409091,
                "end_time": 39.2454545,
                "pitch": 86,
                "velocity": 80,
                "duration": 0.2045455,
                "tempo": 120.0
            },
            {
                "start_time": 39.2454545,
                "end_time": 39.45,
                "pitch": 84,
                "velocity": 80,
                "duration": 0.2045455,
                "tempo": 120.0
            },
            {
                "start_time": 39.45,
                "end_time": 39.65,
                "pitch": 86,
                "velocity": 80,
                "duration": 0.2,
                "tempo": 120.0
            },
            {
                "start_time": 36.8159091,
                "end_time": 39.65,
                "pitch": 88,
                "velocity": 127,
                "duration": 2.8340909,
                "tempo": 120.0
            },
            {
                "start_time": 39.65,
                "end_time": 39.8545455,
                "pitch": 88,
                "velocity": 80,
                "duration": 0.2045455,
                "tempo": 120.0
            },
            {
                "start_time": 39.65,
                "end_time": 39.8545455,
                "pitch": 88,
                "velocity": 80,
                "duration": 0.2045455,
                "tempo": 120.0
            },
            {
                "start_time": 39.8545455,
                "end_time": 40.0613636,
                "pitch": 86,
                "velocity": 80,
                "duration": 0.2068182,
                "tempo": 120.0
            },
            {
                "start_time": 39.8545455,
                "end_time": 40.0613636,
                "pitch": 86,
                "velocity": 80,
                "duration": 0.2068182,
                "tempo": 120.0
            },
            {
                "start_time": 40.0613636,
                "end_time": 40.2568182,
                "pitch": 88,
                "velocity": 80,
                "duration": 0.1954545,
                "tempo": 120.0
            },
            {
                "start_time": 40.0613636,
                "end_time": 40.2568182,
                "pitch": 88,
                "velocity": 80,
                "duration": 0.1954545,
                "tempo": 120.0
            },
            {
                "start_time": 40.2568182,
                "end_time": 40.4613636,
                "pitch": 89,
                "velocity": 80,
                "duration": 0.2045455,
                "tempo": 120.0
            },
            {
                "start_time": 40.4613636,
                "end_time": 40.6636364,
                "pitch": 88,
                "velocity": 80,
                "duration": 0.2022727,
                "tempo": 120.0
            },
            {
                "start_time": 40.6636364,
                "end_time": 40.8659091,
                "pitch": 89,
                "velocity": 80,
                "duration": 0.2022727,
                "tempo": 120.0
            },
            {
                "start_time": 40.8659091,
                "end_time": 41.0704545,
                "pitch": 88,
                "velocity": 80,
                "duration": 0.2045455,
                "tempo": 120.0
            },
            {
                "start_time": 41.0704545,
                "end_time": 41.2727273,
                "pitch": 89,
                "velocity": 80,
                "duration": 0.2022727,
                "tempo": 120.0
            },
            {
                "start_time": 41.2727273,
                "end_time": 41.475,
                "pitch": 88,
                "velocity": 80,
                "duration": 0.2022727,
                "tempo": 120.0
            },
            {
                "start_time": 41.475,
                "end_time": 41.6772727,
                "pitch": 89,
                "velocity": 80,
                "duration": 0.2022727,
                "tempo": 120.0
            },
            {
                "start_time": 41.6795455,
                "end_time": 41.8795455,
                "pitch": 88,
                "velocity": 80,
                "duration": 0.2,
                "tempo": 120.0
            },
            {
                "start_time": 41.8795455,
                "end_time": 42.0840909,
                "pitch": 89,
                "velocity": 80,
                "duration": 0.2045455,
                "tempo": 120.0
            },
            {
                "start_time": 42.0840909,
                "end_time": 42.2818182,
                "pitch": 86,
                "velocity": 80,
                "duration": 0.1977273,
                "tempo": 120.0
            },
            {
                "start_time": 42.0840909,
                "end_time": 42.2818182,
                "pitch": 86,
                "velocity": 80,
                "duration": 0.1977273,
                "tempo": 120.0
            },
            {
                "start_time": 42.2818182,
                "end_time": 42.4818182,
                "pitch": 88,
                "velocity": 80,
                "duration": 0.2,
                "tempo": 120.0
            },
            {
                "start_time": 42.2818182,
                "end_time": 42.4818182,
                "pitch": 88,
                "velocity": 80,
                "duration": 0.2,
                "tempo": 120.0
            },
            {
                "start_time": 36.2113636,
                "end_time": 42.6840909,
                "pitch": 68,
                "velocity": 127,
                "duration": 6.4727273,
                "tempo": 120.0
            },
            {
                "start_time": 42.4818182,
                "end_time": 42.6840909,
                "pitch": 86,
                "velocity": 80,
                "duration": 0.2022727,
                "tempo": 120.0
            },
            {
                "start_time": 42.4818182,
                "end_time": 42.6840909,
                "pitch": 86,
                "velocity": 80,
                "duration": 0.2022727,
                "tempo": 120.0
            },
            {
                "start_time": 42.6840909,
                "end_time": 42.8818182,
                "pitch": 83,
                "velocity": 80,
                "duration": 0.1977273,
                "tempo": 120.0
            },
            {
                "start_time": 42.6840909,
                "end_time": 43.0818182,
                "pitch": 68,
                "velocity": 80,
                "duration": 0.3977273,
                "tempo": 120.0
            },
            {
                "start_time": 42.8818182,
                "end_time": 43.0818182,
                "pitch": 84,
                "velocity": 80,
                "duration": 0.2,
                "tempo": 120.0
            },
            {
                "start_time": 43.0818182,
                "end_time": 43.2863636,
                "pitch": 83,
                "velocity": 80,
                "duration": 0.2045455,
                "tempo": 120.0
            },
            {
                "start_time": 42.8818182,
                "end_time": 43.2863636,
                "pitch": 88,
                "velocity": 80,
                "duration": 0.4045455,
                "tempo": 120.0
            },
            {
                "start_time": 43.2863636,
                "end_time": 43.4840909,
                "pitch": 84,
                "velocity": 80,
                "duration": 0.1977273,
                "tempo": 120.0
            },
            {
                "start_time": 43.4840909,
                "end_time": 43.6886364,
                "pitch": 86,
                "velocity": 80,
                "duration": 0.2045455,
                "tempo": 120.0
            },
            {
                "start_time": 43.6886364,
                "end_time": 43.8909091,
                "pitch": 84,
                "velocity": 80,
                "duration": 0.2022727,
                "tempo": 120.0
            },
            {
                "start_time": 43.8909091,
                "end_time": 44.0931818,
                "pitch": 86,
                "velocity": 80,
                "duration": 0.2022727,
                "tempo": 120.0
            },
            {
                "start_time": 44.0931818,
                "end_time": 44.2954545,
                "pitch": 84,
                "velocity": 80,
                "duration": 0.2022727,
                "tempo": 120.0
            },
            {
                "start_time": 44.2977273,
                "end_time": 44.5,
                "pitch": 86,
                "velocity": 80,
                "duration": 0.2022727,
                "tempo": 120.0
            },
            {
                "start_time": 44.5,
                "end_time": 44.7022727,
                "pitch": 84,
                "velocity": 80,
                "duration": 0.2022727,
                "tempo": 120.0
            },
            {
                "start_time": 44.7022727,
                "end_time": 44.9045455,
                "pitch": 86,
                "velocity": 80,
                "duration": 0.2022727,
                "tempo": 120.0
            },
            {
                "start_time": 44.9045455,
                "end_time": 45.1045455,
                "pitch": 84,
                "velocity": 80,
                "duration": 0.2,
                "tempo": 120.0
            },
            {
                "start_time": 45.1068182,
                "end_time": 45.3113636,
                "pitch": 86,
                "velocity": 80,
                "duration": 0.2045455,
                "tempo": 120.0
            },
            {
                "start_time": 45.3113636,
                "end_time": 45.5068182,
                "pitch": 84,
                "velocity": 80,
                "duration": 0.1954545,
                "tempo": 120.0
            },
            {
                "start_time": 45.5068182,
                "end_time": 45.7068182,
                "pitch": 86,
                "velocity": 80,
                "duration": 0.2,
                "tempo": 120.0
            },
            {
                "start_time": 45.7068182,
                "end_time": 45.9113636,
                "pitch": 84,
                "velocity": 80,
                "duration": 0.2045455,
                "tempo": 120.0
            },
            {
                "start_time": 45.9113636,
                "end_time": 46.1068182,
                "pitch": 86,
                "velocity": 80,
                "duration": 0.1954545,
                "tempo": 120.0
            },
            {
                "start_time": 43.2863636,
                "end_time": 46.1068182,
                "pitch": 88,
                "velocity": 80,
                "duration": 2.8204545,
                "tempo": 120.0
            },
            {
                "start_time": 46.1068182,
                "end_time": 46.3068182,
                "pitch": 88,
                "velocity": 80,
                "duration": 0.2,
                "tempo": 120.0
            },
            {
                "start_time": 46.1068182,
                "end_time": 46.3068182,
                "pitch": 88,
                "velocity": 80,
                "duration": 0.2,
                "tempo": 120.0
            },
            {
                "start_time": 46.3068182,
                "end_time": 46.5136364,
                "pitch": 86,
                "velocity": 80,
                "duration": 0.2068182,
                "tempo": 120.0
            },
            {
                "start_time": 46.3068182,
                "end_time": 46.5136364,
                "pitch": 86,
                "velocity": 80,
                "duration": 0.2068182,
                "tempo": 120.0
            },
            {
                "start_time": 46.5136364,
                "end_time": 46.7090909,
                "pitch": 88,
                "velocity": 80,
                "duration": 0.1954545,
                "tempo": 120.0
            },
            {
                "start_time": 46.5136364,
                "end_time": 46.7090909,
                "pitch": 88,
                "velocity": 80,
                "duration": 0.1954545,
                "tempo": 120.0
            },
            {
                "start_time": 46.7090909,
                "end_time": 46.9113636,
                "pitch": 89,
                "velocity": 80,
                "duration": 0.2022727,
                "tempo": 120.0
            },
            {
                "start_time": 46.9113636,
                "end_time": 47.1159091,
                "pitch": 88,
                "velocity": 80,
                "duration": 0.2045455,
                "tempo": 120.0
            },
            {
                "start_time": 47.1159091,
                "end_time": 47.3181818,
                "pitch": 89,
                "velocity": 80,
                "duration": 0.2022727,
                "tempo": 120.0
            },
            {
                "start_time": 47.3181818,
                "end_time": 47.5204545,
                "pitch": 88,
                "velocity": 80,
                "duration": 0.2022727,
                "tempo": 120.0
            },
            {
                "start_time": 47.5204545,
                "end_time": 47.7227273,
                "pitch": 89,
                "velocity": 80,
                "duration": 0.2022727,
                "tempo": 120.0
            },
            {
                "start_time": 47.725,
                "end_time": 47.9272727,
                "pitch": 88,
                "velocity": 80,
                "duration": 0.2022727,
                "tempo": 120.0
            },
            {
                "start_time": 47.9272727,
                "end_time": 48.1295455,
                "pitch": 89,
                "velocity": 80,
                "duration": 0.2022727,
                "tempo": 120.0
            },
            {
                "start_time": 48.1295455,
                "end_time": 48.3295455,
                "pitch": 88,
                "velocity": 80,
                "duration": 0.2,
                "tempo": 120.0
            },
            {
                "start_time": 48.3295455,
                "end_time": 48.5363636,
                "pitch": 89,
                "velocity": 80,
                "duration": 0.2068182,
                "tempo": 120.0
            },
            {
                "start_time": 48.5363636,
                "end_time": 48.7318182,
                "pitch": 86,
                "velocity": 80,
                "duration": 0.1954545,
                "tempo": 120.0
            },
            {
                "start_time": 48.5363636,
                "end_time": 48.7318182,
                "pitch": 86,
                "velocity": 80,
                "duration": 0.1954545,
                "tempo": 120.0
            },
            {
                "start_time": 48.7318182,
                "end_time": 48.9318182,
                "pitch": 88,
                "velocity": 80,
                "duration": 0.2,
                "tempo": 120.0
            },
            {
                "start_time": 48.7318182,
                "end_time": 48.9318182,
                "pitch": 88,
                "velocity": 80,
                "duration": 0.2,
                "tempo": 120.0
            },
            {
                "start_time": 43.0818182,
                "end_time": 49.1363636,
                "pitch": 68,
                "velocity": 80,
                "duration": 6.0545455,
                "tempo": 120.0
            },
            {
                "start_time": 48.9318182,
                "end_time": 49.1363636,
                "pitch": 86,
                "velocity": 80,
                "duration": 0.2045455,
                "tempo": 120.0
            },
            {
                "start_time": 48.9318182,
                "end_time": 49.1363636,
                "pitch": 86,
                "velocity": 80,
                "duration": 0.2045455,
                "tempo": 120.0
            },
            {
                "start_time": 49.1363636,
                "end_time": 49.3318182,
                "pitch": 83,
                "velocity": 80,
                "duration": 0.1954545,
                "tempo": 120.0
            },
            {
                "start_time": 49.3318182,
                "end_time": 49.3340909,
                "pitch": 88,
                "velocity": 80,
                "duration": 0.0022727,
                "tempo": 120.0
            },
            {
                "start_time": 49.1363636,
                "end_time": 49.5340909,
                "pitch": 68,
                "velocity": 80,
                "duration": 0.3977273,
                "tempo": 120.0
            },
            {
                "start_time": 49.3340909,
                "end_time": 49.5340909,
                "pitch": 84,
                "velocity": 80,
                "duration": 0.2,
                "tempo": 120.0
            },
            {
                "start_time": 49.5340909,
                "end_time": 49.7386364,
                "pitch": 83,
                "velocity": 80,
                "duration": 0.2045455,
                "tempo": 120.0
            },
            {
                "start_time": 49.7386364,
                "end_time": 50.5772727,
                "pitch": 84,
                "velocity": 80,
                "duration": 0.8386364,
                "tempo": 120.0
            }
        ],
        "Electric Guitar (clean)": [
            {
                "start_time": 12.4545455,
                "end_time": 12.5545455,
                "pitch": 45,
                "velocity": 127,
                "duration": 0.1,
                "tempo": 120.0
            },
            {
                "start_time": 12.5545455,
                "end_time": 12.6568182,
                "pitch": 45,
                "velocity": 127,
                "duration": 0.1022727,
                "tempo": 120.0
            },
            {
                "start_time": 12.6568182,
                "end_time": 12.7568182,
                "pitch": 45,
                "velocity": 127,
                "duration": 0.1,
                "tempo": 120.0
            },
            {
                "start_time": 12.7568182,
                "end_time": 12.8590909,
                "pitch": 45,
                "velocity": 127,
                "duration": 0.1022727,
                "tempo": 120.0
            },
            {
                "start_time": 12.8590909,
                "end_time": 13.0636364,
                "pitch": 45,
                "velocity": 127,
                "duration": 0.2045455,
                "tempo": 120.0
            },
            {
                "start_time": 13.0636364,
                "end_time": 13.2863636,
                "pitch": 45,
                "velocity": 127,
                "duration": 0.2227273,
                "tempo": 120.0
            },
            {
                "start_time": 14.2704545,
                "end_time": 14.3727273,
                "pitch": 45,
                "velocity": 127,
                "duration": 0.1022727,
                "tempo": 120.0
            },
            {
                "start_time": 14.3727273,
                "end_time": 14.4772727,
                "pitch": 45,
                "velocity": 127,
                "duration": 0.1045455,
                "tempo": 120.0
            },
            {
                "start_time": 14.4772727,
                "end_time": 14.6772727,
                "pitch": 45,
                "velocity": 127,
                "duration": 0.2,
                "tempo": 120.0
            },
            {
                "start_time": 14.6772727,
                "end_time": 14.8954545,
                "pitch": 45,
                "velocity": 127,
                "duration": 0.2181818,
                "tempo": 120.0
            },
            {
                "start_time": 15.8818182,
                "end_time": 15.9840909,
                "pitch": 45,
                "velocity": 127,
                "duration": 0.1022727,
                "tempo": 120.0
            },
            {
                "start_time": 15.9840909,
                "end_time": 16.0886364,
                "pitch": 45,
                "velocity": 127,
                "duration": 0.1045455,
                "tempo": 120.0
            },
            {
                "start_time": 16.0886364,
                "end_time": 16.2886364,
                "pitch": 43,
                "velocity": 127,
                "duration": 0.2,
                "tempo": 120.0
            },
            {
                "start_time": 16.2886364,
                "end_time": 16.5068182,
                "pitch": 43,
                "velocity": 127,
                "duration": 0.2181818,
                "tempo": 120.0
            },
            {
                "start_time": 17.4931818,
                "end_time": 17.5931818,
                "pitch": 43,
                "velocity": 127,
                "duration": 0.1,
                "tempo": 120.0
            },
            {
                "start_time": 17.5931818,
                "end_time": 17.6954545,
                "pitch": 43,
                "velocity": 127,
                "duration": 0.1022727,
                "tempo": 120.0
            },
            {
                "start_time": 17.6954545,
                "end_time": 17.8954545,
                "pitch": 43,
                "velocity": 127,
                "duration": 0.2,
                "tempo": 120.0
            },
            {
                "start_time": 17.8954545,
                "end_time": 18.1136364,
                "pitch": 43,
                "velocity": 127,
                "duration": 0.2181818,
                "tempo": 120.0
            },
            {
                "start_time": 19.1022727,
                "end_time": 19.2022727,
                "pitch": 43,
                "velocity": 127,
                "duration": 0.1,
                "tempo": 120.0
            },
            {
                "start_time": 19.2022727,
                "end_time": 19.3022727,
                "pitch": 43,
                "velocity": 127,
                "duration": 0.1,
                "tempo": 120.0
            },
            {
                "start_time": 19.3022727,
                "end_time": 19.5022727,
                "pitch": 41,
                "velocity": 127,
                "duration": 0.2,
                "tempo": 120.0
            },
            {
                "start_time": 19.5022727,
                "end_time": 19.7181818,
                "pitch": 41,
                "velocity": 127,
                "duration": 0.2159091,
                "tempo": 120.0
            },
            {
                "start_time": 20.7113636,
                "end_time": 20.8136364,
                "pitch": 41,
                "velocity": 127,
                "duration": 0.1022727,
                "tempo": 120.0
            },
            {
                "start_time": 20.8136364,
                "end_time": 20.9181818,
                "pitch": 41,
                "velocity": 127,
                "duration": 0.1045455,
                "tempo": 120.0
            },
            {
                "start_time": 20.9181818,
                "end_time": 21.1181818,
                "pitch": 41,
                "velocity": 127,
                "duration": 0.2,
                "tempo": 120.0
            },
            {
                "start_time": 21.1181818,
                "end_time": 21.3340909,
                "pitch": 41,
                "velocity": 127,
                "duration": 0.2159091,
                "tempo": 120.0
            },
            {
                "start_time": 22.3181818,
                "end_time": 22.4227273,
                "pitch": 41,
                "velocity": 127,
                "duration": 0.1045455,
                "tempo": 120.0
            },
            {
                "start_time": 22.4227273,
                "end_time": 22.525,
                "pitch": 41,
                "velocity": 127,
                "duration": 0.1022727,
                "tempo": 120.0
            },
            {
                "start_time": 22.525,
                "end_time": 22.725,
                "pitch": 40,
                "velocity": 127,
                "duration": 0.2,
                "tempo": 120.0
            },
            {
                "start_time": 22.725,
                "end_time": 22.9409091,
                "pitch": 40,
                "velocity": 127,
                "duration": 0.2159091,
                "tempo": 120.0
            },
            {
                "start_time": 24.075,
                "end_time": 24.1954545,
                "pitch": 40,
                "velocity": 127,
                "duration": 0.1204545,
                "tempo": 120.0
            },
            {
                "start_time": 24.1954545,
                "end_time": 24.3181818,
                "pitch": 40,
                "velocity": 127,
                "duration": 0.1227273,
                "tempo": 120.0
            },
            {
                "start_time": 24.3181818,
                "end_time": 24.375,
                "pitch": 40,
                "velocity": 127,
                "duration": 0.0568182,
                "tempo": 120.0
            },
            {
                "start_time": 24.4363636,
                "end_time": 24.4954545,
                "pitch": 40,
                "velocity": 127,
                "duration": 0.0590909,
                "tempo": 120.0
            },
            {
                "start_time": 24.5568182,
                "end_time": 24.6159091,
                "pitch": 52,
                "velocity": 127,
                "duration": 0.0590909,
                "tempo": 120.0
            },
            {
                "start_time": 24.6772727,
                "end_time": 24.7363636,
                "pitch": 40,
                "velocity": 127,
                "duration": 0.0590909,
                "tempo": 120.0
            },
            {
                "start_time": 24.7977273,
                "end_time": 25.0227273,
                "pitch": 40,
                "velocity": 127,
                "duration": 0.225,
                "tempo": 120.0
            },
            {
                "start_time": 25.1,
                "end_time": 25.175,
                "pitch": 52,
                "velocity": 127,
                "duration": 0.075,
                "tempo": 120.0
            },
            {
                "start_time": 25.2522727,
                "end_time": 25.4772727,
                "pitch": 40,
                "velocity": 127,
                "duration": 0.225,
                "tempo": 120.0
            },
            {
                "start_time": 25.5545455,
                "end_time": 25.6295455,
                "pitch": 40,
                "velocity": 127,
                "duration": 0.075,
                "tempo": 120.0
            },
            {
                "start_time": 25.7068182,
                "end_time": 25.9340909,
                "pitch": 40,
                "velocity": 127,
                "duration": 0.2272727,
                "tempo": 120.0
            },
            {
                "start_time": 26.0136364,
                "end_time": 26.0363636,
                "pitch": 40,
                "velocity": 127,
                "duration": 0.0227273,
                "tempo": 120.0
            },
            {
                "start_time": 26.1659091,
                "end_time": 26.1909091,
                "pitch": 40,
                "velocity": 127,
                "duration": 0.025,
                "tempo": 120.0
            },
            {
                "start_time": 26.3181818,
                "end_time": 26.3431818,
                "pitch": 52,
                "velocity": 127,
                "duration": 0.025,
                "tempo": 120.0
            },
            {
                "start_time": 26.4727273,
                "end_time": 26.4977273,
                "pitch": 52,
                "velocity": 127,
                "duration": 0.025,
                "tempo": 120.0
            },
            {
                "start_time": 26.6272727,
                "end_time": 26.9295455,
                "pitch": 45,
                "velocity": 127,
                "duration": 0.3022727,
                "tempo": 120.0
            },
            {
                "start_time": 26.9295455,
                "end_time": 27.0818182,
                "pitch": 57,
                "velocity": 127,
                "duration": 0.1522727,
                "tempo": 120.0
            },
            {
                "start_time": 27.0818182,
                "end_time": 27.3840909,
                "pitch": 43,
                "velocity": 127,
                "duration": 0.3022727,
                "tempo": 120.0
            },
            {
                "start_time": 27.3840909,
                "end_time": 27.5363636,
                "pitch": 55,
                "velocity": 127,
                "duration": 0.1522727,
                "tempo": 120.0
            },
            {
                "start_time": 27.5363636,
                "end_time": 29.1318182,
                "pitch": 36,
                "velocity": 127,
                "duration": 1.5954545,
                "tempo": 120.0
            },
            {
                "start_time": 29.1318182,
                "end_time": 29.5318182,
                "pitch": 43,
                "velocity": 127,
                "duration": 0.4,
                "tempo": 120.0
            },
            {
                "start_time": 29.5318182,
                "end_time": 29.7318182,
                "pitch": 55,
                "velocity": 127,
                "duration": 0.2,
                "tempo": 120.0
            },
            {
                "start_time": 29.7340909,
                "end_time": 30.1340909,
                "pitch": 40,
                "velocity": 127,
                "duration": 0.4,
                "tempo": 120.0
            },
            {
                "start_time": 30.1340909,
                "end_time": 30.3340909,
                "pitch": 52,
                "velocity": 127,
                "duration": 0.2,
                "tempo": 120.0
            },
            {
                "start_time": 30.3340909,
                "end_time": 32.3636364,
                "pitch": 45,
                "velocity": 127,
                "duration": 2.0295455,
                "tempo": 120.0
            },
            {
                "start_time": 32.3636364,
                "end_time": 32.7681818,
                "pitch": 45,
                "velocity": 127,
                "duration": 0.4045455,
                "tempo": 120.0
            },
            {
                "start_time": 32.7681818,
                "end_time": 32.9727273,
                "pitch": 57,
                "velocity": 127,
                "duration": 0.2045455,
                "tempo": 120.0
            },
            {
                "start_time": 32.9727273,
                "end_time": 33.3772727,
                "pitch": 43,
                "velocity": 127,
                "duration": 0.4045455,
                "tempo": 120.0
            },
            {
                "start_time": 33.3772727,
                "end_time": 33.5818182,
                "pitch": 55,
                "velocity": 127,
                "duration": 0.2045455,
                "tempo": 120.0
            },
            {
                "start_time": 27.5363636,
                "end_time": 33.5818182,
                "pitch": 64,
                "velocity": 127,
                "duration": 6.0454545,
                "tempo": 120.0
            },
            {
                "start_time": 29.1318182,
                "end_time": 35.6045455,
                "pitch": 0,
                "velocity": 127,
                "duration": 6.4727273,
                "tempo": 120.0
            },
            {
                "start_time": 33.5818182,
                "end_time": 35.6045455,
                "pitch": 36,
                "velocity": 127,
                "duration": 2.0227273,
                "tempo": 120.0
            },
            {
                "start_time": 35.6045455,
                "end_time": 36.0045455,
                "pitch": 43,
                "velocity": 127,
                "duration": 0.4,
                "tempo": 120.0
            },
            {
                "start_time": 36.0045455,
                "end_time": 36.2068182,
                "pitch": 55,
                "velocity": 127,
                "duration": 0.2022727,
                "tempo": 120.0
            },
            {
                "start_time": 29.7318182,
                "end_time": 36.2068182,
                "pitch": 66,
                "velocity": 127,
                "duration": 6.475,
                "tempo": 120.0
            },
            {
                "start_time": 36.2068182,
                "end_time": 36.6068182,
                "pitch": 40,
                "velocity": 127,
                "duration": 0.4,
                "tempo": 120.0
            },
            {
                "start_time": 30.3340909,
                "end_time": 36.8068182,
                "pitch": 19,
                "velocity": 127,
                "duration": 6.4727273,
                "tempo": 120.0
            },
            {
                "start_time": 36.6068182,
                "end_time": 36.8068182,
                "pitch": 52,
                "velocity": 127,
                "duration": 0.2,
                "tempo": 120.0
            },
            {
                "start_time": 36.8068182,
                "end_time": 38.8363636,
                "pitch": 45,
                "velocity": 127,
                "duration": 2.0295455,
                "tempo": 120.0
            },
            {
                "start_time": 38.8363636,
                "end_time": 39.0386364,
                "pitch": 45,
                "velocity": 127,
                "duration": 0.2022727,
                "tempo": 120.0
            },
            {
                "start_time": 39.0386364,
                "end_time": 39.2409091,
                "pitch": 45,
                "velocity": 127,
                "duration": 0.2022727,
                "tempo": 120.0
            },
            {
                "start_time": 39.2431818,
                "end_time": 39.4454545,
                "pitch": 57,
                "velocity": 127,
                "duration": 0.2022727,
                "tempo": 120.0
            },
            {
                "start_time": 39.4454545,
                "end_time": 39.6477273,
                "pitch": 43,
                "velocity": 127,
                "duration": 0.2022727,
                "tempo": 120.0
            },
            {
                "start_time": 39.6477273,
                "end_time": 39.85,
                "pitch": 43,
                "velocity": 127,
                "duration": 0.2022727,
                "tempo": 120.0
            },
            {
                "start_time": 39.85,
                "end_time": 40.0545455,
                "pitch": 55,
                "velocity": 127,
                "duration": 0.2045455,
                "tempo": 120.0
            },
            {
                "start_time": 33.5818182,
                "end_time": 40.0545455,
                "pitch": 64,
                "velocity": 127,
                "duration": 6.4727273,
                "tempo": 120.0
            },
            {
                "start_time": 35.6045455,
                "end_time": 42.0772727,
                "pitch": 0,
                "velocity": 127,
                "duration": 6.4727273,
                "tempo": 120.0
            },
            {
                "start_time": 40.0545455,
                "end_time": 42.0772727,
                "pitch": 36,
                "velocity": 127,
                "duration": 2.0227273,
                "tempo": 120.0
            },
            {
                "start_time": 42.0772727,
                "end_time": 42.2772727,
                "pitch": 43,
                "velocity": 127,
                "duration": 0.2,
                "tempo": 120.0
            },
            {
                "start_time": 42.2772727,
                "end_time": 42.4795455,
                "pitch": 43,
                "velocity": 127,
                "duration": 0.2022727,
                "tempo": 120.0
            },
            {
                "start_time": 42.4795455,
                "end_time": 42.6795455,
                "pitch": 55,
                "velocity": 127,
                "duration": 0.2,
                "tempo": 120.0
            },
            {
                "start_time": 36.2068182,
                "end_time": 42.6795455,
                "pitch": 66,
                "velocity": 127,
                "duration": 6.4727273,
                "tempo": 120.0
            },
            {
                "start_time": 42.6795455,
                "end_time": 42.8795455,
                "pitch": 40,
                "velocity": 127,
                "duration": 0.2,
                "tempo": 120.0
            },
            {
                "start_time": 42.8795455,
                "end_time": 43.0795455,
                "pitch": 40,
                "velocity": 127,
                "duration": 0.2,
                "tempo": 120.0
            },
            {
                "start_time": 36.8068182,
                "end_time": 43.2795455,
                "pitch": 19,
                "velocity": 127,
                "duration": 6.4727273,
                "tempo": 120.0
            },
            {
                "start_time": 43.0795455,
                "end_time": 43.2795455,
                "pitch": 52,
                "velocity": 127,
                "duration": 0.2,
                "tempo": 120.0
            },
            {
                "start_time": 43.2795455,
                "end_time": 45.3045455,
                "pitch": 45,
                "velocity": 127,
                "duration": 2.025,
                "tempo": 120.0
            },
            {
                "start_time": 45.3045455,
                "end_time": 45.5045455,
                "pitch": 45,
                "velocity": 127,
                "duration": 0.2,
                "tempo": 120.0
            },
            {
                "start_time": 45.5045455,
                "end_time": 45.7045455,
                "pitch": 45,
                "velocity": 127,
                "duration": 0.2,
                "tempo": 120.0
            },
            {
                "start_time": 45.7045455,
                "end_time": 45.9045455,
                "pitch": 57,
                "velocity": 127,
                "duration": 0.2,
                "tempo": 120.0
            },
            {
                "start_time": 45.9045455,
                "end_time": 46.1045455,
                "pitch": 43,
                "velocity": 127,
                "duration": 0.2,
                "tempo": 120.0
            },
            {
                "start_time": 46.1045455,
                "end_time": 46.3045455,
                "pitch": 43,
                "velocity": 127,
                "duration": 0.2,
                "tempo": 120.0
            },
            {
                "start_time": 46.3045455,
                "end_time": 46.5068182,
                "pitch": 55,
                "velocity": 127,
                "duration": 0.2022727,
                "tempo": 120.0
            },
            {
                "start_time": 40.0545455,
                "end_time": 46.5068182,
                "pitch": 64,
                "velocity": 127,
                "duration": 6.4522727,
                "tempo": 120.0
            },
            {
                "start_time": 42.0772727,
                "end_time": 48.5295455,
                "pitch": 0,
                "velocity": 127,
                "duration": 6.4522727,
                "tempo": 120.0
            },
            {
                "start_time": 46.5068182,
                "end_time": 48.5295455,
                "pitch": 36,
                "velocity": 127,
                "duration": 2.0227273,
                "tempo": 120.0
            },
            {
                "start_time": 48.5295455,
                "end_time": 48.7295455,
                "pitch": 43,
                "velocity": 127,
                "duration": 0.2,
                "tempo": 120.0
            },
            {
                "start_time": 48.7295455,
                "end_time": 48.9295455,
                "pitch": 43,
                "velocity": 127,
                "duration": 0.2,
                "tempo": 120.0
            },
            {
                "start_time": 48.9295455,
                "end_time": 49.1295455,
                "pitch": 55,
                "velocity": 127,
                "duration": 0.2,
                "tempo": 120.0
            },
            {
                "start_time": 42.6795455,
                "end_time": 49.1295455,
                "pitch": 66,
                "velocity": 127,
                "duration": 6.45,
                "tempo": 120.0
            },
            {
                "start_time": 49.1295455,
                "end_time": 49.3295455,
                "pitch": 40,
                "velocity": 127,
                "duration": 0.2,
                "tempo": 120.0
            },
            {
                "start_time": 49.3295455,
                "end_time": 49.5636364,
                "pitch": 40,
                "velocity": 127,
                "duration": 0.2340909,
                "tempo": 120.0
            },
            {
                "start_time": 49.7318182,
                "end_time": 52.9886364,
                "pitch": 45,
                "velocity": 127,
                "duration": 3.2568182,
                "tempo": 120.0
            }
        ],
        "Lead 2 (sawtooth)": [
            {
                "start_time": 0.0113636,
                "end_time": 1.5909091,
                "pitch": 40,
                "velocity": 127,
                "duration": 1.5795455,
                "tempo": 120.0
            },
            {
                "start_time": 1.5909091,
                "end_time": 3.2113636,
                "pitch": 40,
                "velocity": 127,
                "duration": 1.6204545,
                "tempo": 120.0
            },
            {
                "start_time": 3.2113636,
                "end_time": 4.8159091,
                "pitch": 40,
                "velocity": 127,
                "duration": 1.6045455,
                "tempo": 120.0
            },
            {
                "start_time": 4.8159091,
                "end_time": 6.425,
                "pitch": 40,
                "velocity": 127,
                "duration": 1.6090909,
                "tempo": 120.0
            },
            {
                "start_time": 6.425,
                "end_time": 8.0318182,
                "pitch": 41,
                "velocity": 127,
                "duration": 1.6068182,
                "tempo": 120.0
            },
            {
                "start_time": 8.0318182,
                "end_time": 9.65,
                "pitch": 41,
                "velocity": 127,
                "duration": 1.6181818,
                "tempo": 120.0
            },
            {
                "start_time": 9.6522727,
                "end_time": 11.25,
                "pitch": 43,
                "velocity": 127,
                "duration": 1.5977273,
                "tempo": 120.0
            },
            {
                "start_time": 11.25,
                "end_time": 11.3977273,
                "pitch": 20,
                "velocity": 127,
                "duration": 0.1477273,
                "tempo": 120.0
            },
            {
                "start_time": 11.3977273,
                "end_time": 11.45,
                "pitch": 23,
                "velocity": 127,
                "duration": 0.0522727,
                "tempo": 120.0
            },
            {
                "start_time": 11.45,
                "end_time": 11.55,
                "pitch": 24,
                "velocity": 127,
                "duration": 0.1,
                "tempo": 120.0
            },
            {
                "start_time": 11.55,
                "end_time": 11.6522727,
                "pitch": 26,
                "velocity": 127,
                "duration": 0.1022727,
                "tempo": 120.0
            },
            {
                "start_time": 9.65,
                "end_time": 11.8045455,
                "pitch": 0,
                "velocity": 127,
                "duration": 2.1545455,
                "tempo": 120.0
            },
            {
                "start_time": 11.6522727,
                "end_time": 11.8045455,
                "pitch": 28,
                "velocity": 127,
                "duration": 0.1522727,
                "tempo": 120.0
            },
            {
                "start_time": 11.8045455,
                "end_time": 11.9068182,
                "pitch": 31,
                "velocity": 127,
                "duration": 0.1022727,
                "tempo": 120.0
            },
            {
                "start_time": 11.9068182,
                "end_time": 12.0636364,
                "pitch": 33,
                "velocity": 127,
                "duration": 0.1568182,
                "tempo": 120.0
            },
            {
                "start_time": 12.0636364,
                "end_time": 12.1590909,
                "pitch": 36,
                "velocity": 127,
                "duration": 0.0954545,
                "tempo": 120.0
            },
            {
                "start_time": 12.1590909,
                "end_time": 12.2613636,
                "pitch": 38,
                "velocity": 127,
                "duration": 0.1022727,
                "tempo": 120.0
            },
            {
                "start_time": 12.0636364,
                "end_time": 12.4045455,
                "pitch": 40,
                "velocity": 127,
                "duration": 0.3409091,
                "tempo": 120.0
            },
            {
                "start_time": 12.2613636,
                "end_time": 12.4045455,
                "pitch": 40,
                "velocity": 127,
                "duration": 0.1431818,
                "tempo": 120.0
            },
            {
                "start_time": 11.8045455,
                "end_time": 12.4068182,
                "pitch": 0,
                "velocity": 127,
                "duration": 0.6022727,
                "tempo": 120.0
            },
            {
                "start_time": 12.4045455,
                "end_time": 12.4068182,
                "pitch": 0,
                "velocity": 127,
                "duration": 0.0022727,
                "tempo": 120.0
            },
            {
                "start_time": 12.4068182,
                "end_time": 12.5045455,
                "pitch": 43,
                "velocity": 127,
                "duration": 0.0977273,
                "tempo": 120.0
            },
            {
                "start_time": 12.5045455,
                "end_time": 12.6068182,
                "pitch": 45,
                "velocity": 127,
                "duration": 0.1022727,
                "tempo": 120.0
            },
            {
                "start_time": 12.6068182,
                "end_time": 12.7068182,
                "pitch": 48,
                "velocity": 127,
                "duration": 0.1,
                "tempo": 120.0
            },
            {
                "start_time": 12.6068182,
                "end_time": 12.8068182,
                "pitch": 52,
                "velocity": 127,
                "duration": 0.2,
                "tempo": 120.0
            },
            {
                "start_time": 12.7068182,
                "end_time": 12.8068182,
                "pitch": 52,
                "velocity": 127,
                "duration": 0.1,
                "tempo": 120.0
            }
        ],
        "Trumpet": [
            {
                "start_time": 26.6545455,
                "end_time": 27.0045455,
                "pitch": 72,
                "velocity": 64,
                "duration": 0.35,
                "tempo": 120.0
            },
            {
                "start_time": 27.1068182,
                "end_time": 27.4613636,
                "pitch": 74,
                "velocity": 64,
                "duration": 0.3545455,
                "tempo": 120.0
            },
            {
                "start_time": 27.5613636,
                "end_time": 29.1681818,
                "pitch": 76,
                "velocity": 64,
                "duration": 1.6068182,
                "tempo": 120.0
            },
            {
                "start_time": 29.1681818,
                "end_time": 29.6318182,
                "pitch": 74,
                "velocity": 64,
                "duration": 0.4636364,
                "tempo": 120.0
            },
            {
                "start_time": 29.1681818,
                "end_time": 29.6318182,
                "pitch": 74,
                "velocity": 64,
                "duration": 0.4636364,
                "tempo": 120.0
            },
            {
                "start_time": 29.7681818,
                "end_time": 30.2340909,
                "pitch": 71,
                "velocity": 64,
                "duration": 0.4659091,
                "tempo": 120.0
            },
            {
                "start_time": 30.3704545,
                "end_time": 32.2613636,
                "pitch": 72,
                "velocity": 64,
                "duration": 1.8909091,
                "tempo": 120.0
            },
            {
                "start_time": 32.4,
                "end_time": 32.8704545,
                "pitch": 72,
                "velocity": 64,
                "duration": 0.4704545,
                "tempo": 120.0
            },
            {
                "start_time": 33.0068182,
                "end_time": 33.4795455,
                "pitch": 74,
                "velocity": 64,
                "duration": 0.4727273,
                "tempo": 120.0
            },
            {
                "start_time": 33.6159091,
                "end_time": 35.6409091,
                "pitch": 76,
                "velocity": 64,
                "duration": 2.025,
                "tempo": 120.0
            },
            {
                "start_time": 35.6409091,
                "end_time": 36.1068182,
                "pitch": 74,
                "velocity": 64,
                "duration": 0.4659091,
                "tempo": 120.0
            },
            {
                "start_time": 35.6409091,
                "end_time": 36.1068182,
                "pitch": 74,
                "velocity": 64,
                "duration": 0.4659091,
                "tempo": 120.0
            },
            {
                "start_time": 36.2409091,
                "end_time": 36.7068182,
                "pitch": 71,
                "velocity": 64,
                "duration": 0.4659091,
                "tempo": 120.0
            },
            {
                "start_time": 36.8431818,
                "end_time": 38.0590909,
                "pitch": 72,
                "velocity": 64,
                "duration": 1.2159091,
                "tempo": 120.0
            },
            {
                "start_time": 38.0590909,
                "end_time": 38.2613636,
                "pitch": 72,
                "velocity": 64,
                "duration": 0.2022727,
                "tempo": 120.0
            },
            {
                "start_time": 38.2613636,
                "end_time": 38.4659091,
                "pitch": 76,
                "velocity": 64,
                "duration": 0.2045455,
                "tempo": 120.0
            },
            {
                "start_time": 38.4659091,
                "end_time": 38.6681818,
                "pitch": 79,
                "velocity": 64,
                "duration": 0.2022727,
                "tempo": 120.0
            },
            {
                "start_time": 38.6681818,
                "end_time": 38.7704545,
                "pitch": 83,
                "velocity": 64,
                "duration": 0.1022727,
                "tempo": 120.0
            },
            {
                "start_time": 38.7704545,
                "end_time": 38.8727273,
                "pitch": 84,
                "velocity": 64,
                "duration": 0.1022727,
                "tempo": 120.0
            },
            {
                "start_time": 38.8727273,
                "end_time": 39.3431818,
                "pitch": 84,
                "velocity": 64,
                "duration": 0.4704545,
                "tempo": 120.0
            },
            {
                "start_time": 39.4795455,
                "end_time": 39.9522727,
                "pitch": 86,
                "velocity": 64,
                "duration": 0.4727273,
                "tempo": 120.0
            },
            {
                "start_time": 38.7704545,
                "end_time": 42.1136364,
                "pitch": 88,
                "velocity": 64,
                "duration": 3.3431818,
                "tempo": 120.0
            },
            {
                "start_time": 40.0909091,
                "end_time": 42.1136364,
                "pitch": 88,
                "velocity": 64,
                "duration": 2.0227273,
                "tempo": 120.0
            },
            {
                "start_time": 42.1136364,
                "end_time": 42.5795455,
                "pitch": 86,
                "velocity": 64,
                "duration": 0.4659091,
                "tempo": 120.0
            },
            {
                "start_time": 42.1136364,
                "end_time": 42.5795455,
                "pitch": 86,
                "velocity": 64,
                "duration": 0.4659091,
                "tempo": 120.0
            },
            {
                "start_time": 42.7136364,
                "end_time": 43.1795455,
                "pitch": 83,
                "velocity": 64,
                "duration": 0.4659091,
                "tempo": 120.0
            },
            {
                "start_time": 43.3159091,
                "end_time": 43.3818182,
                "pitch": 84,
                "velocity": 64,
                "duration": 0.0659091,
                "tempo": 120.0
            },
            {
                "start_time": 43.4159091,
                "end_time": 43.4840909,
                "pitch": 85,
                "velocity": 64,
                "duration": 0.0681818,
                "tempo": 120.0
            },
            {
                "start_time": 43.5181818,
                "end_time": 43.5840909,
                "pitch": 86,
                "velocity": 64,
                "duration": 0.0659091,
                "tempo": 120.0
            },
            {
                "start_time": 43.6181818,
                "end_time": 43.6886364,
                "pitch": 87,
                "velocity": 64,
                "duration": 0.0704545,
                "tempo": 120.0
            },
            {
                "start_time": 43.7204545,
                "end_time": 43.7886364,
                "pitch": 88,
                "velocity": 64,
                "duration": 0.0681818,
                "tempo": 120.0
            },
            {
                "start_time": 43.8227273,
                "end_time": 43.8909091,
                "pitch": 89,
                "velocity": 64,
                "duration": 0.0681818,
                "tempo": 120.0
            },
            {
                "start_time": 43.9227273,
                "end_time": 43.9909091,
                "pitch": 90,
                "velocity": 64,
                "duration": 0.0681818,
                "tempo": 120.0
            },
            {
                "start_time": 44.025,
                "end_time": 44.0954545,
                "pitch": 91,
                "velocity": 64,
                "duration": 0.0704545,
                "tempo": 120.0
            },
            {
                "start_time": 44.1272727,
                "end_time": 44.1954545,
                "pitch": 92,
                "velocity": 64,
                "duration": 0.0681818,
                "tempo": 120.0
            },
            {
                "start_time": 44.2272727,
                "end_time": 44.2977273,
                "pitch": 93,
                "velocity": 64,
                "duration": 0.0704545,
                "tempo": 120.0
            },
            {
                "start_time": 44.3295455,
                "end_time": 44.3977273,
                "pitch": 94,
                "velocity": 64,
                "duration": 0.0681818,
                "tempo": 120.0
            },
            {
                "start_time": 44.4318182,
                "end_time": 44.5,
                "pitch": 95,
                "velocity": 64,
                "duration": 0.0681818,
                "tempo": 120.0
            },
            {
                "start_time": 44.5318182,
                "end_time": 44.6,
                "pitch": 96,
                "velocity": 64,
                "duration": 0.0681818,
                "tempo": 120.0
            },
            {
                "start_time": 44.6340909,
                "end_time": 44.7045455,
                "pitch": 97,
                "velocity": 64,
                "duration": 0.0704545,
                "tempo": 120.0
            },
            {
                "start_time": 44.7363636,
                "end_time": 44.8045455,
                "pitch": 98,
                "velocity": 64,
                "duration": 0.0681818,
                "tempo": 120.0
            },
            {
                "start_time": 44.8363636,
                "end_time": 44.9068182,
                "pitch": 99,
                "velocity": 64,
                "duration": 0.0704545,
                "tempo": 120.0
            },
            {
                "start_time": 44.9386364,
                "end_time": 45.0045455,
                "pitch": 100,
                "velocity": 64,
                "duration": 0.0659091,
                "tempo": 120.0
            },
            {
                "start_time": 45.0386364,
                "end_time": 45.1068182,
                "pitch": 101,
                "velocity": 64,
                "duration": 0.0681818,
                "tempo": 120.0
            },
            {
                "start_time": 45.1386364,
                "end_time": 45.2045455,
                "pitch": 102,
                "velocity": 64,
                "duration": 0.0659091,
                "tempo": 120.0
            },
            {
                "start_time": 45.2386364,
                "end_time": 45.3113636,
                "pitch": 103,
                "velocity": 64,
                "duration": 0.0727273,
                "tempo": 120.0
            },
            {
                "start_time": 45.3386364,
                "end_time": 45.8045455,
                "pitch": 96,
                "velocity": 64,
                "duration": 0.4659091,
                "tempo": 120.0
            },
            {
                "start_time": 45.9386364,
                "end_time": 46.4045455,
                "pitch": 98,
                "velocity": 64,
                "duration": 0.4659091,
                "tempo": 120.0
            },
            {
                "start_time": 46.5409091,
                "end_time": 48.5659091,
                "pitch": 100,
                "velocity": 64,
                "duration": 2.025,
                "tempo": 120.0
            },
            {
                "start_time": 48.5659091,
                "end_time": 49.0295455,
                "pitch": 14,
                "velocity": 64,
                "duration": 0.4636364,
                "tempo": 120.0
            },
            {
                "start_time": 49.1659091,
                "end_time": 49.4318182,
                "pitch": 107,
                "velocity": 64,
                "duration": 0.2659091,
                "tempo": 120.0
            },
            {
                "start_time": 49.7659091,
                "end_time": 50.4409091,
                "pitch": 12,
                "velocity": 64,
                "duration": 0.675,
                "tempo": 120.0
            }
        ],
        "Electric Piano 1": [
            {
                "start_time": 3.0090909,
                "end_time": 3.2113636,
                "pitch": 40,
                "velocity": 101,
                "duration": 0.2022727,
                "tempo": 120.0
            },
            {
                "start_time": 3.2113636,
                "end_time": 6.2204545,
                "pitch": 40,
                "velocity": 101,
                "duration": 3.0090909,
                "tempo": 120.0
            },
            {
                "start_time": 6.2204545,
                "end_time": 6.4227273,
                "pitch": 41,
                "velocity": 101,
                "duration": 0.2022727,
                "tempo": 120.0
            },
            {
                "start_time": 6.4227273,
                "end_time": 9.4477273,
                "pitch": 41,
                "velocity": 101,
                "duration": 3.025,
                "tempo": 120.0
            },
            {
                "start_time": 9.4477273,
                "end_time": 9.65,
                "pitch": 41,
                "velocity": 101,
                "duration": 0.2022727,
                "tempo": 120.0
            }
        ]
    }
}