{
    "mood": "angry",
    "instruments": {
        "Electric Guitar (clean)": [
            {
                "start_time": 0.0568182,
                "end_time": 0.2795455,
                "pitch": 28,
                "velocity": 127,
                "duration": 0.2227273,
                "tempo": 120.0
            },
            {
                "start_time": 0.3545455,
                "end_time": 0.4659091,
                "pitch": 28,
                "velocity": 127,
                "duration": 0.1113636,
                "tempo": 120.0
            },
            {
                "start_time": 0.5045455,
                "end_time": 0.6159091,
                "pitch": 28,
                "velocity": 127,
                "duration": 0.1113636,
                "tempo": 120.0
            },
            {
                "start_time": 0.6545455,
                "end_time": 0.7659091,
                "pitch": 35,
                "velocity": 127,
                "duration": 0.1113636,
                "tempo": 120.0
            },
            {
                "start_time": 0.8022727,
                "end_time": 0.9136364,
                "pitch": 28,
                "velocity": 127,
                "duration": 0.1113636,
                "tempo": 120.0
            },
            {
                "start_time": 0.9522727,
                "end_time": 1.1727273,
                "pitch": 28,
                "velocity": 127,
                "duration": 0.2204545,
                "tempo": 120.0
            },
            {
                "start_time": 1.2477273,
                "end_time": 1.3590909,
                "pitch": 28,
                "velocity": 127,
                "duration": 0.1113636,
                "tempo": 120.0
            },
            {
                "start_time": 1.3977273,
                "end_time": 1.5090909,
                "pitch": 28,
                "velocity": 127,
                "duration": 0.1113636,
                "tempo": 120.0
            },
            {
                "start_time": 0.6545455,
                "end_time": 1.5477273,
                "pitch": 42,
                "velocity": 127,
                "duration": 0.8931818,
                "tempo": 120.0
            },
            {
                "start_time": 1.5477273,
                "end_time": 1.6545455,
                "pitch": 35,
                "velocity": 127,
                "duration": 0.1068182,
                "tempo": 120.0
            },
            {
                "start_time": 0.8022727,
                "end_time": 1.6909091,
                "pitch": 7,
                "velocity": 127,
                "duration": 0.8886364,
                "tempo": 120.0
            },
            {
                "start_time": 1.6909091,
                "end_time": 1.8,
                "pitch": 28,
                "velocity": 127,
                "duration": 0.1090909,
                "tempo": 120.0
            },
            {
                "start_time": 1.8363636,
                "end_time": 2.0590909,
                "pitch": 28,
                "velocity": 127,
                "duration": 0.2227273,
                "tempo": 120.0
            },
            {
                "start_time": 2.1340909,
                "end_time": 2.2454545,
                "pitch": 28,
                "velocity": 127,
                "duration": 0.1113636,
                "tempo": 120.0
            },
            {
                "start_time": 2.2840909,
                "end_time": 2.3954545,
                "pitch": 28,
                "velocity": 127,
                "duration": 0.1113636,
                "tempo": 120.0
            },
            {
                "start_time": 1.5477273,
                "end_time": 2.4318182,
                "pitch": 42,
                "velocity": 127,
                "duration": 0.8840909,
                "tempo": 120.0
            },
            {
                "start_time": 2.4318182,
                "end_time": 2.5431818,
                "pitch": 35,
                "velocity": 127,
                "duration": 0.1113636,
                "tempo": 120.0
            },
            {
                "start_time": 1.6909091,
                "end_time": 2.5818182,
                "pitch": 7,
                "velocity": 127,
                "duration": 0.8909091,
                "tempo": 120.0
            },
            {
                "start_time": 2.5818182,
                "end_time": 2.6931818,
                "pitch": 28,
                "velocity": 127,
                "duration": 0.1113636,
                "tempo": 120.0
            },
            {
                "start_time": 2.7318182,
                "end_time": 2.9477273,
                "pitch": 28,
                "velocity": 127,
                "duration": 0.2159091,
                "tempo": 120.0
            },
            {
                "start_time": 3.0204545,
                "end_time": 3.1318182,
                "pitch": 28,
                "velocity": 127,
                "duration": 0.1113636,
                "tempo": 120.0
            },
            {
                "start_time": 3.1681818,
                "end_time": 3.2795455,
                "pitch": 28,
                "velocity": 127,
                "duration": 0.1113636,
                "tempo": 120.0
            },
            {
                "start_time": 2.4318182,
                "end_time": 3.3181818,
                "pitch": 42,
                "velocity": 127,
                "duration": 0.8863636,
                "tempo": 120.0
            },
            {
                "start_time": 3.3181818,
                "end_time": 3.4295455,
                "pitch": 35,
                "velocity": 127,
                "duration": 0.1113636,
                "tempo": 120.0
            },
            {
                "start_time": 2.5818182,
                "end_time": 3.4659091,
                "pitch": 7,
                "velocity": 127,
                "duration": 0.8840909,
                "tempo": 120.0
            },
            {
                "start_time": 3.4659091,
                "end_time": 3.5772727,
                "pitch": 28,
                "velocity": 127,
                "duration": 0.1113636,
                "tempo": 120.0
            },
            {
                "start_time": 3.6159091,
                "end_time": 3.8386364,
                "pitch": 28,
                "velocity": 127,
                "duration": 0.2227273,
                "tempo": 120.0
            },
            {
                "start_time": 3.9136364,
                "end_time": 4.0204545,
                "pitch": 28,
                "velocity": 127,
                "duration": 0.1068182,
                "tempo": 120.0
            },
            {
                "start_time": 4.0568182,
                "end_time": 4.1659091,
                "pitch": 28,
                "velocity": 127,
                "duration": 0.1090909,
                "tempo": 120.0
            },
            {
                "start_time": 3.3181818,
                "end_time": 4.2022727,
                "pitch": 42,
                "velocity": 127,
                "duration": 0.8840909,
                "tempo": 120.0
            },
            {
                "start_time": 4.2022727,
                "end_time": 4.3136364,
                "pitch": 35,
                "velocity": 127,
                "duration": 0.1113636,
                "tempo": 120.0
            },
            {
                "start_time": 3.4659091,
                "end_time": 4.35,
                "pitch": 7,
                "velocity": 127,
                "duration": 0.8840909,
                "tempo": 120.0
            },
            {
                "start_time": 4.35,
                "end_time": 4.4613636,
                "pitch": 28,
                "velocity": 127,
                "duration": 0.1113636,
                "tempo": 120.0
            },
            {
                "start_time": 4.5,
                "end_time": 4.7227273,
                "pitch": 28,
                "velocity": 127,
                "duration": 0.2227273,
                "tempo": 120.0
            },
            {
                "start_time": 4.7977273,
                "end_time": 4.9090909,
                "pitch": 28,
                "velocity": 127,
                "duration": 0.1113636,
                "tempo": 120.0
            },
            {
                "start_time": 4.9454545,
                "end_time": 5.0568182,
                "pitch": 28,
                "velocity": 127,
                "duration": 0.1113636,
                "tempo": 120.0
            },
            {
                "start_time": 4.2022727,
                "end_time": 5.0954545,
                "pitch": 42,
                "velocity": 127,
                "duration": 0.8931818,
                "tempo": 120.0
            },
            {
                "start_time": 5.0954545,
                "end_time": 5.2022727,
                "pitch": 35,
                "velocity": 127,
                "duration": 0.1068182,
                "tempo": 120.0
            },
            {
                "start_time": 4.35,
                "end_time": 5.2386364,
                "pitch": 7,
                "velocity": 127,
                "duration": 0.8886364,
                "tempo": 120.0
            },
            {
                "start_time": 5.2386364,
                "end_time": 5.3477273,
                "pitch": 28,
                "velocity": 127,
                "duration": 0.1090909,
                "tempo": 120.0
            },
            {
                "start_time": 5.3840909,
                "end_time": 5.6068182,
                "pitch": 28,
                "velocity": 127,
                "duration": 0.2227273,
                "tempo": 120.0
            },
            {
                "start_time": 5.6818182,
                "end_time": 5.7931818,
                "pitch": 28,
                "velocity": 127,
                "duration": 0.1113636,
                "tempo": 120.0
            },
            {
                "start_time": 5.8295455,
                "end_time": 5.9409091,
                "pitch": 28,
                "velocity": 127,
                "duration": 0.1113636,
                "tempo": 120.0
            },
            {
                "start_time": 5.0954545,
                "end_time": 5.9795455,
                "pitch": 42,
                "velocity": 127,
                "duration": 0.8840909,
                "tempo": 120.0
            },
            {
                "start_time": 5.9795455,
                "end_time": 6.0863636,
                "pitch": 35,
                "velocity": 127,
                "duration": 0.1068182,
                "tempo": 120.0
            },
            {
                "start_time": 5.2386364,
                "end_time": 6.1227273,
                "pitch": 7,
                "velocity": 127,
                "duration": 0.8840909,
                "tempo": 120.0
            },
            {
                "start_time": 6.1227273,
                "end_time": 6.2318182,
                "pitch": 28,
                "velocity": 127,
                "duration": 0.1090909,
                "tempo": 120.0
            },
            {
                "start_time": 6.2681818,
                "end_time": 6.4909091,
                "pitch": 28,
                "velocity": 127,
                "duration": 0.2227273,
                "tempo": 120.0
            },
            {
                "start_time": 6.5659091,
                "end_time": 6.6772727,
                "pitch": 28,
                "velocity": 127,
                "duration": 0.1113636,
                "tempo": 120.0
            },
            {
                "start_time": 6.7136364,
                "end_time": 6.825,
                "pitch": 28,
                "velocity": 127,
                "duration": 0.1113636,
                "tempo": 120.0
            },
            {
                "start_time": 5.9795455,
                "end_time": 6.8636364,
                "pitch": 42,
                "velocity": 127,
                "duration": 0.8840909,
                "tempo": 120.0
            },
            {
                "start_time": 6.8636364,
                "end_time": 6.975,
                "pitch": 35,
                "velocity": 127,
                "duration": 0.1113636,
                "tempo": 120.0
            },
            {
                "start_time": 6.1227273,
                "end_time": 7.0113636,
                "pitch": 7,
                "velocity": 127,
                "duration": 0.8886364,
                "tempo": 120.0
            },
            {
                "start_time": 7.0113636,
                "end_time": 7.1227273,
                "pitch": 28,
                "velocity": 127,
                "duration": 0.1113636,
                "tempo": 120.0
            },
            {
                "start_time": 7.1613636,
                "end_time": 7.3840909,
                "pitch": 28,
                "velocity": 127,
                "duration": 0.2227273,
                "tempo": 120.0
            },
            {
                "start_time": 7.4590909,
                "end_time": 7.5681818,
                "pitch": 28,
                "velocity": 127,
                "duration": 0.1090909,
                "tempo": 120.0
            },
            {
                "start_time": 7.6045455,
                "end_time": 7.7113636,
                "pitch": 28,
                "velocity": 127,
                "duration": 0.1068182,
                "tempo": 120.0
            },
            {
                "start_time": 6.8636364,
                "end_time": 7.7477273,
                "pitch": 42,
                "velocity": 127,
                "duration": 0.8840909,
                "tempo": 120.0
            },
            {
                "start_time": 7.7477273,
                "end_time": 7.8590909,
                "pitch": 35,
                "velocity": 127,
                "duration": 0.1113636,
                "tempo": 120.0
            },
            {
                "start_time": 7.0113636,
                "end_time": 7.8954545,
                "pitch": 7,
                "velocity": 127,
                "duration": 0.8840909,
                "tempo": 120.0
            },
            {
                "start_time": 7.8954545,
                "end_time": 8.0068182,
                "pitch": 28,
                "velocity": 127,
                "duration": 0.1113636,
                "tempo": 120.0
            },
            {
                "start_time": 8.0454545,
                "end_time": 8.2681818,
                "pitch": 28,
                "velocity": 127,
                "duration": 0.2227273,
                "tempo": 120.0
            },
            {
                "start_time": 8.3431818,
                "end_time": 8.45,
                "pitch": 28,
                "velocity": 127,
                "duration": 0.1068182,
                "tempo": 120.0
            },
            {
                "start_time": 8.4863636,
                "end_time": 8.5954545,
                "pitch": 28,
                "velocity": 127,
                "duration": 0.1090909,
                "tempo": 120.0
            },
            {
                "start_time": 7.7477273,
                "end_time": 8.6318182,
                "pitch": 42,
                "velocity": 127,
                "duration": 0.8840909,
                "tempo": 120.0
            },
            {
                "start_time": 8.6318182,
                "end_time": 8.7431818,
                "pitch": 35,
                "velocity": 127,
                "duration": 0.1113636,
                "tempo": 120.0
            },
            {
                "start_time": 7.8954545,
                "end_time": 8.7818182,
                "pitch": 7,
                "velocity": 127,
                "duration": 0.8863636,
                "tempo": 120.0
            },
            {
                "start_time": 8.7818182,
                "end_time": 8.8931818,
                "pitch": 28,
                "velocity": 127,
                "duration": 0.1113636,
                "tempo": 120.0
            },
            {
                "start_time": 8.9295455,
                "end_time": 9.1545455,
                "pitch": 28,
                "velocity": 127,
                "duration": 0.225,
                "tempo": 120.0
            },
            {
                "start_time": 9.2295455,
                "end_time": 9.3409091,
                "pitch": 28,
                "velocity": 127,
                "duration": 0.1113636,
                "tempo": 120.0
            },
            {
                "start_time": 9.3772727,
                "end_time": 9.4886364,
                "pitch": 28,
                "velocity": 127,
                "duration": 0.1113636,
                "tempo": 120.0
            },
            {
                "start_time": 8.6318182,
                "end_time": 9.5272727,
                "pitch": 42,
                "velocity": 127,
                "duration": 0.8954545,
                "tempo": 120.0
            },
            {
                "start_time": 9.5272727,
                "end_time": 9.6340909,
                "pitch": 35,
                "velocity": 127,
                "duration": 0.1068182,
                "tempo": 120.0
            },
            {
                "start_time": 8.7818182,
                "end_time": 9.6704545,
                "pitch": 7,
                "velocity": 127,
                "duration": 0.8886364,
                "tempo": 120.0
            },
            {
                "start_time": 9.6704545,
                "end_time": 9.7795455,
                "pitch": 28,
                "velocity": 127,
                "duration": 0.1090909,
                "tempo": 120.0
            },
            {
                "start_time": 9.8159091,
                "end_time": 10.0386364,
                "pitch": 28,
                "velocity": 127,
                "duration": 0.2227273,
                "tempo": 120.0
            },
            {
                "start_time": 10.1136364,
                "end_time": 10.225,
                "pitch": 28,
                "velocity": 127,
                "duration": 0.1113636,
                "tempo": 120.0
            },
            {
                "start_time": 10.2613636,
                "end_time": 10.375,
                "pitch": 28,
                "velocity": 127,
                "duration": 0.1136364,
                "tempo": 120.0
            },
            {
                "start_time": 9.5272727,
                "end_time": 10.4113636,
                "pitch": 42,
                "velocity": 127,
                "duration": 0.8840909,
                "tempo": 120.0
            },
            {
                "start_time": 10.4113636,
                "end_time": 10.5227273,
                "pitch": 35,
                "velocity": 127,
                "duration": 0.1113636,
                "tempo": 120.0
            },
            {
                "start_time": 9.6704545,
                "end_time": 10.5613636,
                "pitch": 7,
                "velocity": 127,
                "duration": 0.8909091,
                "tempo": 120.0
            },
            {
                "start_time": 10.5613636,
                "end_time": 10.6727273,
                "pitch": 28,
                "velocity": 127,
                "duration": 0.1113636,
                "tempo": 120.0
            },
            {
                "start_time": 10.7113636,
                "end_time": 10.9340909,
                "pitch": 28,
                "velocity": 127,
                "duration": 0.2227273,
                "tempo": 120.0
            },
            {
                "start_time": 11.0090909,
                "end_time": 11.1159091,
                "pitch": 28,
                "velocity": 127,
                "duration": 0.1068182,
                "tempo": 120.0
            },
            {
                "start_time": 11.1522727,
                "end_time": 11.2613636,
                "pitch": 28,
                "velocity": 127,
                "duration": 0.1090909,
                "tempo": 120.0
            },
            {
                "start_time": 10.4113636,
                "end_time": 11.2977273,
                "pitch": 42,
                "velocity": 127,
                "duration": 0.8863636,
                "tempo": 120.0
            },
            {
                "start_time": 11.2977273,
                "end_time": 11.4068182,
                "pitch": 35,
                "velocity": 127,
                "duration": 0.1090909,
                "tempo": 120.0
            },
            {
                "start_time": 10.5613636,
                "end_time": 11.4454545,
                "pitch": 7,
                "velocity": 127,
                "duration": 0.8840909,
                "tempo": 120.0
            },
            {
                "start_time": 11.4454545,
                "end_time": 11.5568182,
                "pitch": 28,
                "velocity": 127,
                "duration": 0.1113636,
                "tempo": 120.0
            },
            {
                "start_time": 11.5931818,
                "end_time": 11.8181818,
                "pitch": 28,
                "velocity": 127,
                "duration": 0.225,
                "tempo": 120.0
            },
            {
                "start_time": 11.8931818,
                "end_time": 12.0,
                "pitch": 28,
                "velocity": 127,
                "duration": 0.1068182,
                "tempo": 120.0
            },
            {
                "start_time": 12.0363636,
                "end_time": 12.1454545,
                "pitch": 28,
                "velocity": 127,
                "duration": 0.1090909,
                "tempo": 120.0
            },
            {
                "start_time": 11.2977273,
                "end_time": 12.1818182,
                "pitch": 42,
                "velocity": 127,
                "duration": 0.8840909,
                "tempo": 120.0
            },
            {
                "start_time": 12.1818182,
                "end_time": 12.2931818,
                "pitch": 35,
                "velocity": 127,
                "duration": 0.1113636,
                "tempo": 120.0
            },
            {
                "start_time": 11.4454545,
                "end_time": 12.3318182,
                "pitch": 7,
                "velocity": 127,
                "duration": 0.8863636,
                "tempo": 120.0
            },
            {
                "start_time": 12.3318182,
                "end_time": 12.4431818,
                "pitch": 28,
                "velocity": 127,
                "duration": 0.1113636,
                "tempo": 120.0
            },
            {
                "start_time": 12.4818182,
                "end_time": 12.7022727,
                "pitch": 28,
                "velocity": 127,
                "duration": 0.2204545,
                "tempo": 120.0
            },
            {
                "start_time": 12.7772727,
                "end_time": 12.8863636,
                "pitch": 28,
                "velocity": 127,
                "duration": 0.1090909,
                "tempo": 120.0
            },
            {
                "start_time": 12.9227273,
                "end_time": 13.0295455,
                "pitch": 28,
                "velocity": 127,
                "duration": 0.1068182,
                "tempo": 120.0
            },
            {
                "start_time": 12.1818182,
                "end_time": 13.0659091,
                "pitch": 42,
                "velocity": 127,
                "duration": 0.8840909,
                "tempo": 120.0
            },
            {
                "start_time": 13.0659091,
                "end_time": 13.1795455,
                "pitch": 35,
                "velocity": 127,
                "duration": 0.1136364,
                "tempo": 120.0
            },
            {
                "start_time": 12.3318182,
                "end_time": 13.2159091,
                "pitch": 7,
                "velocity": 127,
                "duration": 0.8840909,
                "tempo": 120.0
            },
            {
                "start_time": 13.2159091,
                "end_time": 13.3272727,
                "pitch": 28,
                "velocity": 127,
                "duration": 0.1113636,
                "tempo": 120.0
            },
            {
                "start_time": 13.3659091,
                "end_time": 13.5886364,
                "pitch": 28,
                "velocity": 127,
                "duration": 0.2227273,
                "tempo": 120.0
            },
            {
                "start_time": 13.6636364,
                "end_time": 13.775,
                "pitch": 28,
                "velocity": 127,
                "duration": 0.1113636,
                "tempo": 120.0
            },
            {
                "start_time": 13.8113636,
                "end_time": 13.925,
                "pitch": 28,
                "velocity": 127,
                "duration": 0.1136364,
                "tempo": 120.0
            },
            {
                "start_time": 13.0659091,
                "end_time": 13.9613636,
                "pitch": 42,
                "velocity": 127,
                "duration": 0.8954545,
                "tempo": 120.0
            },
            {
                "start_time": 13.9613636,
                "end_time": 14.0704545,
                "pitch": 35,
                "velocity": 127,
                "duration": 0.1090909,
                "tempo": 120.0
            },
            {
                "start_time": 13.2159091,
                "end_time": 14.1068182,
                "pitch": 7,
                "velocity": 127,
                "duration": 0.8909091,
                "tempo": 120.0
            },
            {
                "start_time": 14.1068182,
                "end_time": 14.2136364,
                "pitch": 28,
                "velocity": 127,
                "duration": 0.1068182,
                "tempo": 120.0
            },
            {
                "start_time": 14.25,
                "end_time": 14.3068182,
                "pitch": 28,
                "velocity": 127,
                "duration": 0.0568182,
                "tempo": 120.0
            }
        ],
        "Acoustic Bass": [
            {
                "start_time": 0.0568182,
                "end_time": 0.2795455,
                "pitch": 28,
                "velocity": 101,
                "duration": 0.2227273,
                "tempo": 120.0
            },
            {
                "start_time": 0.3545455,
                "end_time": 0.4659091,
                "pitch": 28,
                "velocity": 101,
                "duration": 0.1113636,
                "tempo": 120.0
            },
            {
                "start_time": 0.5045455,
                "end_time": 0.6159091,
                "pitch": 28,
                "velocity": 101,
                "duration": 0.1113636,
                "tempo": 120.0
            },
            {
                "start_time": 0.6545455,
                "end_time": 0.7659091,
                "pitch": 23,
                "velocity": 101,
                "duration": 0.1113636,
                "tempo": 120.0
            },
            {
                "start_time": 0.8022727,
                "end_time": 0.9136364,
                "pitch": 28,
                "velocity": 101,
                "duration": 0.1113636,
                "tempo": 120.0
            },
            {
                "start_time": 0.9522727,
                "end_time": 1.175,
                "pitch": 28,
                "velocity": 101,
                "duration": 0.2227273,
                "tempo": 120.0
            },
            {
                "start_time": 1.25,
                "end_time": 1.3613636,
                "pitch": 28,
                "velocity": 101,
                "duration": 0.1113636,
                "tempo": 120.0
            },
            {
                "start_time": 1.3977273,
                "end_time": 1.5090909,
                "pitch": 28,
                "velocity": 101,
                "duration": 0.1113636,
                "tempo": 120.0
            },
            {
                "start_time": 0.6545455,
                "end_time": 1.5477273,
                "pitch": 30,
                "velocity": 101,
                "duration": 0.8931818,
                "tempo": 120.0
            },
            {
                "start_time": 1.5477273,
                "end_time": 1.6545455,
                "pitch": 23,
                "velocity": 101,
                "duration": 0.1068182,
                "tempo": 120.0
            },
            {
                "start_time": 0.8022727,
                "end_time": 1.6931818,
                "pitch": 7,
                "velocity": 101,
                "duration": 0.8909091,
                "tempo": 120.0
            },
            {
                "start_time": 1.6931818,
                "end_time": 1.8,
                "pitch": 28,
                "velocity": 101,
                "duration": 0.1068182,
                "tempo": 120.0
            },
            {
                "start_time": 1.8363636,
                "end_time": 2.0590909,
                "pitch": 28,
                "velocity": 101,
                "duration": 0.2227273,
                "tempo": 120.0
            },
            {
                "start_time": 2.1363636,
                "end_time": 2.2454545,
                "pitch": 28,
                "velocity": 101,
                "duration": 0.1090909,
                "tempo": 120.0
            },
            {
                "start_time": 2.2840909,
                "end_time": 2.3954545,
                "pitch": 28,
                "velocity": 101,
                "duration": 0.1113636,
                "tempo": 120.0
            },
            {
                "start_time": 1.5477273,
                "end_time": 2.4318182,
                "pitch": 30,
                "velocity": 101,
                "duration": 0.8840909,
                "tempo": 120.0
            },
            {
                "start_time": 2.4318182,
                "end_time": 2.5454545,
                "pitch": 23,
                "velocity": 101,
                "duration": 0.1136364,
                "tempo": 120.0
            },
            {
                "start_time": 1.6931818,
                "end_time": 2.5818182,
                "pitch": 7,
                "velocity": 101,
                "duration": 0.8886364,
                "tempo": 120.0
            },
            {
                "start_time": 2.5818182,
                "end_time": 2.6931818,
                "pitch": 28,
                "velocity": 101,
                "duration": 0.1113636,
                "tempo": 120.0
            },
            {
                "start_time": 2.7318182,
                "end_time": 2.9477273,
                "pitch": 28,
                "velocity": 101,
                "duration": 0.2159091,
                "tempo": 120.0
            },
            {
                "start_time": 3.0204545,
                "end_time": 3.1318182,
                "pitch": 28,
                "velocity": 101,
                "duration": 0.1113636,
                "tempo": 120.0
            },
            {
                "start_time": 3.1681818,
                "end_time": 3.2795455,
                "pitch": 28,
                "velocity": 101,
                "duration": 0.1113636,
                "tempo": 120.0
            },
            {
                "start_time": 2.4318182,
                "end_time": 3.3181818,
                "pitch": 30,
                "velocity": 101,
                "duration": 0.8863636,
                "tempo": 120.0
            },
            {
                "start_time": 3.3181818,
                "end_time": 3.4295455,
                "pitch": 23,
                "velocity": 101,
                "duration": 0.1113636,
                "tempo": 120.0
            },
            {
                "start_time": 2.5818182,
                "end_time": 3.4659091,
                "pitch": 7,
                "velocity": 101,
                "duration": 0.8840909,
                "tempo": 120.0
            },
            {
                "start_time": 3.4659091,
                "end_time": 3.5772727,
                "pitch": 28,
                "velocity": 101,
                "duration": 0.1113636,
                "tempo": 120.0
            },
            {
                "start_time": 3.6159091,
                "end_time": 3.8386364,
                "pitch": 28,
                "velocity": 101,
                "duration": 0.2227273,
                "tempo": 120.0
            },
            {
                "start_time": 3.9136364,
                "end_time": 4.0227273,
                "pitch": 28,
                "velocity": 101,
                "duration": 0.1090909,
                "tempo": 120.0
            },
            {
                "start_time": 4.0590909,
                "end_time": 4.1659091,
                "pitch": 28,
                "velocity": 101,
                "duration": 0.1068182,
                "tempo": 120.0
            },
            {
                "start_time": 3.3181818,
                "end_time": 4.2022727,
                "pitch": 30,
                "velocity": 101,
                "duration": 0.8840909,
                "tempo": 120.0
            },
            {
                "start_time": 4.2022727,
                "end_time": 4.3136364,
                "pitch": 23,
                "velocity": 101,
                "duration": 0.1113636,
                "tempo": 120.0
            },
            {
                "start_time": 3.4659091,
                "end_time": 4.3522727,
                "pitch": 7,
                "velocity": 101,
                "duration": 0.8863636,
                "tempo": 120.0
            },
            {
                "start_time": 4.3522727,
                "end_time": 4.4613636,
                "pitch": 28,
                "velocity": 101,
                "duration": 0.1090909,
                "tempo": 120.0
            },
            {
                "start_time": 4.5,
                "end_time": 4.7227273,
                "pitch": 28,
                "velocity": 101,
                "duration": 0.2227273,
                "tempo": 120.0
            },
            {
                "start_time": 4.7977273,
                "end_time": 4.9090909,
                "pitch": 28,
                "velocity": 101,
                "duration": 0.1113636,
                "tempo": 120.0
            },
            {
                "start_time": 4.9454545,
                "end_time": 5.0568182,
                "pitch": 28,
                "velocity": 101,
                "duration": 0.1113636,
                "tempo": 120.0
            },
            {
                "start_time": 4.2022727,
                "end_time": 5.0954545,
                "pitch": 30,
                "velocity": 101,
                "duration": 0.8931818,
                "tempo": 120.0
            },
            {
                "start_time": 5.0954545,
                "end_time": 5.2022727,
                "pitch": 23,
                "velocity": 101,
                "duration": 0.1068182,
                "tempo": 120.0
            },
            {
                "start_time": 4.3522727,
                "end_time": 5.2386364,
                "pitch": 7,
                "velocity": 101,
                "duration": 0.8863636,
                "tempo": 120.0
            },
            {
                "start_time": 5.2386364,
                "end_time": 5.3477273,
                "pitch": 28,
                "velocity": 101,
                "duration": 0.1090909,
                "tempo": 120.0
            },
            {
                "start_time": 5.3840909,
                "end_time": 5.6068182,
                "pitch": 28,
                "velocity": 101,
                "duration": 0.2227273,
                "tempo": 120.0
            },
            {
                "start_time": 5.6818182,
                "end_time": 5.7931818,
                "pitch": 28,
                "velocity": 101,
                "duration": 0.1113636,
                "tempo": 120.0
            },
            {
                "start_time": 5.8318182,
                "end_time": 5.9431818,
                "pitch": 28,
                "velocity": 101,
                "duration": 0.1113636,
                "tempo": 120.0
            },
            {
                "start_time": 5.0954545,
                "end_time": 5.9795455,
                "pitch": 30,
                "velocity": 101,
                "duration": 0.8840909,
                "tempo": 120.0
            },
            {
                "start_time": 5.9795455,
                "end_time": 6.0886364,
                "pitch": 23,
                "velocity": 101,
                "duration": 0.1090909,
                "tempo": 120.0
            },
            {
                "start_time": 5.2386364,
                "end_time": 6.125,
                "pitch": 7,
                "velocity": 101,
                "duration": 0.8863636,
                "tempo": 120.0
            },
            {
                "start_time": 6.125,
                "end_time": 6.2318182,
                "pitch": 28,
                "velocity": 101,
                "duration": 0.1068182,
                "tempo": 120.0
            },
            {
                "start_time": 6.2681818,
                "end_time": 6.4909091,
                "pitch": 28,
                "velocity": 101,
                "duration": 0.2227273,
                "tempo": 120.0
            },
            {
                "start_time": 6.5659091,
                "end_time": 6.6772727,
                "pitch": 28,
                "velocity": 101,
                "duration": 0.1113636,
                "tempo": 120.0
            },
            {
                "start_time": 6.7136364,
                "end_time": 6.825,
                "pitch": 28,
                "velocity": 101,
                "duration": 0.1113636,
                "tempo": 120.0
            },
            {
                "start_time": 5.9795455,
                "end_time": 6.8636364,
                "pitch": 30,
                "velocity": 101,
                "duration": 0.8840909,
                "tempo": 120.0
            },
            {
                "start_time": 6.8636364,
                "end_time": 6.975,
                "pitch": 23,
                "velocity": 101,
                "duration": 0.1113636,
                "tempo": 120.0
            },
            {
                "start_time": 6.125,
                "end_time": 7.0113636,
                "pitch": 7,
                "velocity": 101,
                "duration": 0.8863636,
                "tempo": 120.0
            },
            {
                "start_time": 7.0113636,
                "end_time": 7.1227273,
                "pitch": 28,
                "velocity": 101,
                "duration": 0.1113636,
                "tempo": 120.0
            },
            {
                "start_time": 7.1613636,
                "end_time": 7.3840909,
                "pitch": 28,
                "velocity": 101,
                "duration": 0.2227273,
                "tempo": 120.0
            },
            {
                "start_time": 7.4590909,
                "end_time": 7.5681818,
                "pitch": 28,
                "velocity": 101,
                "duration": 0.1090909,
                "tempo": 120.0
            },
            {
                "start_time": 7.6045455,
                "end_time": 7.7113636,
                "pitch": 28,
                "velocity": 101,
                "duration": 0.1068182,
                "tempo": 120.0
            },
            {
                "start_time": 6.8636364,
                "end_time": 7.7477273,
                "pitch": 30,
                "velocity": 101,
                "duration": 0.8840909,
                "tempo": 120.0
            },
            {
                "start_time": 7.7477273,
                "end_time": 7.8590909,
                "pitch": 23,
                "velocity": 101,
                "duration": 0.1113636,
                "tempo": 120.0
            },
            {
                "start_time": 7.0113636,
                "end_time": 7.8977273,
                "pitch": 7,
                "velocity": 101,
                "duration": 0.8863636,
                "tempo": 120.0
            },
            {
                "start_time": 7.8977273,
                "end_time": 8.0090909,
                "pitch": 28,
                "velocity": 101,
                "duration": 0.1113636,
                "tempo": 120.0
            },
            {
                "start_time": 8.0454545,
                "end_time": 8.2681818,
                "pitch": 28,
                "velocity": 101,
                "duration": 0.2227273,
                "tempo": 120.0
            },
            {
                "start_time": 8.3431818,
                "end_time": 8.45,
                "pitch": 28,
                "velocity": 101,
                "duration": 0.1068182,
                "tempo": 120.0
            },
            {
                "start_time": 8.4863636,
                "end_time": 8.5954545,
                "pitch": 28,
                "velocity": 101,
                "duration": 0.1090909,
                "tempo": 120.0
            },
            {
                "start_time": 7.7477273,
                "end_time": 8.6318182,
                "pitch": 30,
                "velocity": 101,
                "duration": 0.8840909,
                "tempo": 120.0
            },
            {
                "start_time": 8.6318182,
                "end_time": 8.7431818,
                "pitch": 23,
                "velocity": 101,
                "duration": 0.1113636,
                "tempo": 120.0
            },
            {
                "start_time": 7.8977273,
                "end_time": 8.7818182,
                "pitch": 7,
                "velocity": 101,
                "duration": 0.8840909,
                "tempo": 120.0
            },
            {
                "start_time": 8.7818182,
                "end_time": 8.8931818,
                "pitch": 28,
                "velocity": 101,
                "duration": 0.1113636,
                "tempo": 120.0
            },
            {
                "start_time": 8.9318182,
                "end_time": 9.1545455,
                "pitch": 28,
                "velocity": 101,
                "duration": 0.2227273,
                "tempo": 120.0
            },
            {
                "start_time": 9.2295455,
                "end_time": 9.3409091,
                "pitch": 28,
                "velocity": 101,
                "duration": 0.1113636,
                "tempo": 120.0
            },
            {
                "start_time": 9.3772727,
                "end_time": 9.4886364,
                "pitch": 28,
                "velocity": 101,
                "duration": 0.1113636,
                "tempo": 120.0
            },
            {
                "start_time": 8.6318182,
                "end_time": 9.5272727,
                "pitch": 30,
                "velocity": 101,
                "duration": 0.8954545,
                "tempo": 120.0
            },
            {
                "start_time": 9.5272727,
                "end_time": 9.6340909,
                "pitch": 23,
                "velocity": 101,
                "duration": 0.1068182,
                "tempo": 120.0
            },
            {
                "start_time": 8.7818182,
                "end_time": 9.6704545,
                "pitch": 7,
                "velocity": 101,
                "duration": 0.8886364,
                "tempo": 120.0
            },
            {
                "start_time": 9.6704545,
                "end_time": 9.7795455,
                "pitch": 28,
                "velocity": 101,
                "duration": 0.1090909,
                "tempo": 120.0
            },
            {
                "start_time": 9.8159091,
                "end_time": 10.0386364,
                "pitch": 28,
                "velocity": 101,
                "duration": 0.2227273,
                "tempo": 120.0
            },
            {
                "start_time": 10.1136364,
                "end_time": 10.225,
                "pitch": 28,
                "velocity": 101,
                "duration": 0.1113636,
                "tempo": 120.0
            },
            {
                "start_time": 10.2636364,
                "end_time": 10.375,
                "pitch": 28,
                "velocity": 101,
                "duration": 0.1113636,
                "tempo": 120.0
            },
            {
                "start_time": 9.5272727,
                "end_time": 10.4113636,
                "pitch": 30,
                "velocity": 101,
                "duration": 0.8840909,
                "tempo": 120.0
            },
            {
                "start_time": 10.4113636,
                "end_time": 10.5227273,
                "pitch": 23,
                "velocity": 101,
                "duration": 0.1113636,
                "tempo": 120.0
            },
            {
                "start_time": 9.6704545,
                "end_time": 10.5613636,
                "pitch": 7,
                "velocity": 101,
                "duration": 0.8909091,
                "tempo": 120.0
            },
            {
                "start_time": 10.5613636,
                "end_time": 10.6727273,
                "pitch": 28,
                "velocity": 101,
                "duration": 0.1113636,
                "tempo": 120.0
            },
            {
                "start_time": 10.7113636,
                "end_time": 10.9340909,
                "pitch": 28,
                "velocity": 101,
                "duration": 0.2227273,
                "tempo": 120.0
            },
            {
                "start_time": 11.0090909,
                "end_time": 11.1159091,
                "pitch": 28,
                "velocity": 101,
                "duration": 0.1068182,
                "tempo": 120.0
            },
            {
                "start_time": 11.1522727,
                "end_time": 11.2613636,
                "pitch": 28,
                "velocity": 101,
                "duration": 0.1090909,
                "tempo": 120.0
            },
            {
                "start_time": 10.4113636,
                "end_time": 11.2977273,
                "pitch": 30,
                "velocity": 101,
                "duration": 0.8863636,
                "tempo": 120.0
            },
            {
                "start_time": 11.2977273,
                "end_time": 11.4090909,
                "pitch": 23,
                "velocity": 101,
                "duration": 0.1113636,
                "tempo": 120.0
            },
            {
                "start_time": 10.5613636,
                "end_time": 11.4454545,
                "pitch": 7,
                "velocity": 101,
                "duration": 0.8840909,
                "tempo": 120.0
            },
            {
                "start_time": 11.4454545,
                "end_time": 11.5568182,
                "pitch": 28,
                "velocity": 101,
                "duration": 0.1113636,
                "tempo": 120.0
            },
            {
                "start_time": 11.5954545,
                "end_time": 11.8181818,
                "pitch": 28,
                "velocity": 101,
                "duration": 0.2227273,
                "tempo": 120.0
            },
            {
                "start_time": 11.8931818,
                "end_time": 12.0022727,
                "pitch": 28,
                "velocity": 101,
                "duration": 0.1090909,
                "tempo": 120.0
            },
            {
                "start_time": 12.0386364,
                "end_time": 12.1454545,
                "pitch": 28,
                "velocity": 101,
                "duration": 0.1068182,
                "tempo": 120.0
            },
            {
                "start_time": 11.2977273,
                "end_time": 12.1818182,
                "pitch": 30,
                "velocity": 101,
                "duration": 0.8840909,
                "tempo": 120.0
            },
            {
                "start_time": 12.1818182,
                "end_time": 12.2931818,
                "pitch": 23,
                "velocity": 101,
                "duration": 0.1113636,
                "tempo": 120.0
            },
            {
                "start_time": 11.4454545,
                "end_time": 12.3318182,
                "pitch": 7,
                "velocity": 101,
                "duration": 0.8863636,
                "tempo": 120.0
            },
            {
                "start_time": 12.3318182,
                "end_time": 12.4431818,
                "pitch": 28,
                "velocity": 101,
                "duration": 0.1113636,
                "tempo": 120.0
            },
            {
                "start_time": 12.4818182,
                "end_time": 12.7045455,
                "pitch": 28,
                "velocity": 101,
                "duration": 0.2227273,
                "tempo": 120.0
            },
            {
                "start_time": 12.7795455,
                "end_time": 12.8863636,
                "pitch": 28,
                "velocity": 101,
                "duration": 0.1068182,
                "tempo": 120.0
            },
            {
                "start_time": 12.9227273,
                "end_time": 13.0295455,
                "pitch": 28,
                "velocity": 101,
                "duration": 0.1068182,
                "tempo": 120.0
            },
            {
                "start_time": 12.1818182,
                "end_time": 13.0681818,
                "pitch": 30,
                "velocity": 101,
                "duration": 0.8863636,
                "tempo": 120.0
            },
            {
                "start_time": 13.0681818,
                "end_time": 13.1795455,
                "pitch": 23,
                "velocity": 101,
                "duration": 0.1113636,
                "tempo": 120.0
            },
            {
                "start_time": 12.3318182,
                "end_time": 13.2159091,
                "pitch": 7,
                "velocity": 101,
                "duration": 0.8840909,
                "tempo": 120.0
            },
            {
                "start_time": 13.2159091,
                "end_time": 13.3272727,
                "pitch": 28,
                "velocity": 101,
                "duration": 0.1113636,
                "tempo": 120.0
            },
            {
                "start_time": 13.3659091,
                "end_time": 13.5886364,
                "pitch": 28,
                "velocity": 101,
                "duration": 0.2227273,
                "tempo": 120.0
            },
            {
                "start_time": 13.6636364,
                "end_time": 13.775,
                "pitch": 28,
                "velocity": 101,
                "duration": 0.1113636,
                "tempo": 120.0
            },
            {
                "start_time": 13.8136364,
                "end_time": 13.925,
                "pitch": 28,
                "velocity": 101,
                "duration": 0.1113636,
                "tempo": 120.0
            },
            {
                "start_time": 13.0681818,
                "end_time": 13.9613636,
                "pitch": 30,
                "velocity": 101,
                "duration": 0.8931818,
                "tempo": 120.0
            },
            {
                "start_time": 13.9613636,
                "end_time": 14.0704545,
                "pitch": 23,
                "velocity": 101,
                "duration": 0.1090909,
                "tempo": 120.0
            },
            {
                "start_time": 13.2159091,
                "end_time": 14.1068182,
                "pitch": 7,
                "velocity": 101,
                "duration": 0.8909091,
                "tempo": 120.0
            },
            {
                "start_time": 14.1068182,
                "end_time": 14.2136364,
                "pitch": 28,
                "velocity": 101,
                "duration": 0.1068182,
                "tempo": 120.0
            },
            {
                "start_time": 14.2522727,
                "end_time": 14.3068182,
                "pitch": 28,
                "velocity": 101,
                "duration": 0.0545455,
                "tempo": 120.0
            }
        ],
        "Violin": [
            {
                "start_time": 0.0590909,
                "end_time": 1.5477273,
                "pitch": 64,
                "velocity": 101,
                "duration": 1.4886364,
                "tempo": 120.0
            },
            {
                "start_time": 1.8386364,
                "end_time": 2.8386364,
                "pitch": 64,
                "velocity": 101,
                "duration": 1.0,
                "tempo": 120.0
            },
            {
                "start_time": 3.1704545,
                "end_time": 3.3909091,
                "pitch": 59,
                "velocity": 101,
                "duration": 0.2204545,
                "tempo": 120.0
            },
            {
                "start_time": 3.4681818,
                "end_time": 5.1318182,
                "pitch": 63,
                "velocity": 101,
                "duration": 1.6636364,
                "tempo": 120.0
            },
            {
                "start_time": 5.1681818,
                "end_time": 5.2568182,
                "pitch": 67,
                "velocity": 101,
                "duration": 0.0886364,
                "tempo": 120.0
            },
            {
                "start_time": 0.0590909,
                "end_time": 5.275,
                "pitch": 0,
                "velocity": 101,
                "duration": 5.2159091,
                "tempo": 120.0
            },
            {
                "start_time": 3.1704545,
                "end_time": 5.3659091,
                "pitch": 66,
                "velocity": 101,
                "duration": 2.1954545,
                "tempo": 120.0
            },
            {
                "start_time": 5.275,
                "end_time": 5.3659091,
                "pitch": 66,
                "velocity": 101,
                "duration": 0.0909091,
                "tempo": 120.0
            },
            {
                "start_time": 5.3863636,
                "end_time": 6.3795455,
                "pitch": 62,
                "velocity": 101,
                "duration": 0.9931818,
                "tempo": 120.0
            },
            {
                "start_time": 7.1636364,
                "end_time": 8.6318182,
                "pitch": 64,
                "velocity": 101,
                "duration": 1.4681818,
                "tempo": 120.0
            },
            {
                "start_time": 8.9318182,
                "end_time": 9.9272727,
                "pitch": 64,
                "velocity": 101,
                "duration": 0.9954545,
                "tempo": 120.0
            },
            {
                "start_time": 5.3863636,
                "end_time": 10.2636364,
                "pitch": 66,
                "velocity": 101,
                "duration": 4.8772727,
                "tempo": 120.0
            },
            {
                "start_time": 10.2636364,
                "end_time": 10.4863636,
                "pitch": 59,
                "velocity": 101,
                "duration": 0.2227273,
                "tempo": 120.0
            },
            {
                "start_time": 3.4681818,
                "end_time": 10.5636364,
                "pitch": 44,
                "velocity": 101,
                "duration": 7.0954545,
                "tempo": 120.0
            },
            {
                "start_time": 10.5636364,
                "end_time": 12.2181818,
                "pitch": 63,
                "velocity": 101,
                "duration": 1.6545455,
                "tempo": 120.0
            },
            {
                "start_time": 5.1681818,
                "end_time": 12.2568182,
                "pitch": 78,
                "velocity": 101,
                "duration": 7.0886364,
                "tempo": 120.0
            },
            {
                "start_time": 12.2568182,
                "end_time": 12.35,
                "pitch": 67,
                "velocity": 101,
                "duration": 0.0931818,
                "tempo": 120.0
            },
            {
                "start_time": 5.275,
                "end_time": 12.3681818,
                "pitch": 0,
                "velocity": 101,
                "duration": 7.0931818,
                "tempo": 120.0
            },
            {
                "start_time": 10.2636364,
                "end_time": 12.4613636,
                "pitch": 66,
                "velocity": 101,
                "duration": 2.1977273,
                "tempo": 120.0
            },
            {
                "start_time": 12.3681818,
                "end_time": 12.4613636,
                "pitch": 66,
                "velocity": 101,
                "duration": 0.0931818,
                "tempo": 120.0
            },
            {
                "start_time": 12.4818182,
                "end_time": 13.4772727,
                "pitch": 62,
                "velocity": 101,
                "duration": 0.9954545,
                "tempo": 120.0
            },
            {
                "start_time": 7.1636364,
                "end_time": 14.2522727,
                "pitch": 38,
                "velocity": 101,
                "duration": 7.0886364,
                "tempo": 120.0
            },
            {
                "start_time": 14.2522727,
                "end_time": 14.3068182,
                "pitch": 64,
                "velocity": 101,
                "duration": 0.0545455,
                "tempo": 120.0
            }
        ],
        "Vibraphone": [
            {
                "start_time": 6.4181818,
                "end_time": 6.5295455,
                "pitch": 64,
                "velocity": 101,
                "duration": 0.1113636,
                "tempo": 120.0
            },
            {
                "start_time": 6.5681818,
                "end_time": 6.6772727,
                "pitch": 64,
                "velocity": 101,
                "duration": 0.1090909,
                "tempo": 120.0
            },
            {
                "start_time": 6.7159091,
                "end_time": 6.8272727,
                "pitch": 67,
                "velocity": 101,
                "duration": 0.1113636,
                "tempo": 120.0
            },
            {
                "start_time": 6.8636364,
                "end_time": 6.975,
                "pitch": 69,
                "velocity": 101,
                "duration": 0.1113636,
                "tempo": 120.0
            },
            {
                "start_time": 7.0136364,
                "end_time": 7.1227273,
                "pitch": 69,
                "velocity": 101,
                "duration": 0.1090909,
                "tempo": 120.0
            },
            {
                "start_time": 6.4181818,
                "end_time": 13.5159091,
                "pitch": 62,
                "velocity": 101,
                "duration": 7.0977273,
                "tempo": 120.0
            },
            {
                "start_time": 13.5159091,
                "end_time": 13.625,
                "pitch": 64,
                "velocity": 101,
                "duration": 0.1090909,
                "tempo": 120.0
            },
            {
                "start_time": 13.6636364,
                "end_time": 13.775,
                "pitch": 64,
                "velocity": 101,
                "duration": 0.1113636,
                "tempo": 120.0
            },
            {
                "start_time": 6.7159091,
                "end_time": 13.8136364,
                "pitch": 78,
                "velocity": 101,
                "duration": 7.0977273,
                "tempo": 120.0
            },
            {
                "start_time": 6.8636364,
                "end_time": 13.925,
                "pitch": 67,
                "velocity": 101,
                "duration": 7.0613636,
                "tempo": 120.0
            },
            {
                "start_time": 13.8136364,
                "end_time": 13.925,
                "pitch": 67,
                "velocity": 101,
                "duration": 0.1113636,
                "tempo": 120.0
            },
            {
                "start_time": 13.9636364,
                "end_time": 14.0704545,
                "pitch": 69,
                "velocity": 101,
                "duration": 0.1068182,
                "tempo": 120.0
            },
            {
                "start_time": 14.1068182,
                "end_time": 14.2159091,
                "pitch": 69,
                "velocity": 101,
                "duration": 0.1090909,
                "tempo": 120.0
            }
        ]
    }
}