{
    "mood": "angry",
    "instruments": {
        "Vibraphone": [
            {
                "start_time": 5.5909091,
                "end_time": 5.6613636,
                "pitch": 79,
                "velocity": 64,
                "duration": 0.0704545,
                "tempo": 120.0
            },
            {
                "start_time": 5.7909091,
                "end_time": 5.8409091,
                "pitch": 84,
                "velocity": 64,
                "duration": 0.05,
                "tempo": 120.0
            },
            {
                "start_time": 5.9977273,
                "end_time": 6.0477273,
                "pitch": 87,
                "velocity": 64,
                "duration": 0.05,
                "tempo": 120.0
            },
            {
                "start_time": 6.2022727,
                "end_time": 6.2522727,
                "pitch": 87,
                "velocity": 64,
                "duration": 0.05,
                "tempo": 120.0
            },
            {
                "start_time": 6.3681818,
                "end_time": 6.4272727,
                "pitch": 79,
                "velocity": 64,
                "duration": 0.0590909,
                "tempo": 120.0
            },
            {
                "start_time": 6.5636364,
                "end_time": 6.6227273,
                "pitch": 84,
                "velocity": 64,
                "duration": 0.0590909,
                "tempo": 120.0
            },
            {
                "start_time": 6.7431818,
                "end_time": 6.8136364,
                "pitch": 79,
                "velocity": 64,
                "duration": 0.0704545,
                "tempo": 120.0
            },
            {
                "start_time": 6.9454545,
                "end_time": 7.0159091,
                "pitch": 82,
                "velocity": 64,
                "duration": 0.0704545,
                "tempo": 120.0
            },
            {
                "start_time": 7.1272727,
                "end_time": 7.1977273,
                "pitch": 79,
                "velocity": 64,
                "duration": 0.0704545,
                "tempo": 120.0
            },
            {
                "start_time": 7.3181818,
                "end_time": 7.3772727,
                "pitch": 84,
                "velocity": 64,
                "duration": 0.0590909,
                "tempo": 120.0
            },
            {
                "start_time": 7.5136364,
                "end_time": 7.5704545,
                "pitch": 79,
                "velocity": 64,
                "duration": 0.0568182,
                "tempo": 120.0
            },
            {
                "start_time": 7.7068182,
                "end_time": 7.7704545,
                "pitch": 86,
                "velocity": 64,
                "duration": 0.0636364,
                "tempo": 120.0
            },
            {
                "start_time": 7.8931818,
                "end_time": 7.9659091,
                "pitch": 79,
                "velocity": 64,
                "duration": 0.0727273,
                "tempo": 120.0
            },
            {
                "start_time": 8.1,
                "end_time": 8.1318182,
                "pitch": 84,
                "velocity": 64,
                "duration": 0.0318182,
                "tempo": 120.0
            },
            {
                "start_time": 8.2863636,
                "end_time": 8.3772727,
                "pitch": 79,
                "velocity": 64,
                "duration": 0.0909091,
                "tempo": 120.0
            },
            {
                "start_time": 8.6840909,
                "end_time": 8.7636364,
                "pitch": 79,
                "velocity": 64,
                "duration": 0.0795455,
                "tempo": 120.0
            },
            {
                "start_time": 8.8636364,
                "end_time": 8.9340909,
                "pitch": 84,
                "velocity": 64,
                "duration": 0.0704545,
                "tempo": 120.0
            },
            {
                "start_time": 9.0659091,
                "end_time": 9.1363636,
                "pitch": 87,
                "velocity": 64,
                "duration": 0.0704545,
                "tempo": 120.0
            },
            {
                "start_time": 9.2659091,
                "end_time": 9.3386364,
                "pitch": 87,
                "velocity": 64,
                "duration": 0.0727273,
                "tempo": 120.0
            },
            {
                "start_time": 9.4409091,
                "end_time": 9.5454545,
                "pitch": 79,
                "velocity": 64,
                "duration": 0.1045455,
                "tempo": 120.0
            },
            {
                "start_time": 9.6477273,
                "end_time": 9.7068182,
                "pitch": 84,
                "velocity": 64,
                "duration": 0.0590909,
                "tempo": 120.0
            },
            {
                "start_time": 9.825,
                "end_time": 9.9204545,
                "pitch": 79,
                "velocity": 64,
                "duration": 0.0954545,
                "tempo": 120.0
            },
            {
                "start_time": 10.0386364,
                "end_time": 10.1204545,
                "pitch": 82,
                "velocity": 64,
                "duration": 0.0818182,
                "tempo": 120.0
            },
            {
                "start_time": 10.2045455,
                "end_time": 10.3068182,
                "pitch": 79,
                "velocity": 64,
                "duration": 0.1022727,
                "tempo": 120.0
            },
            {
                "start_time": 10.4295455,
                "end_time": 10.5,
                "pitch": 84,
                "velocity": 64,
                "duration": 0.0704545,
                "tempo": 120.0
            },
            {
                "start_time": 10.6022727,
                "end_time": 10.7022727,
                "pitch": 79,
                "velocity": 64,
                "duration": 0.1,
                "tempo": 120.0
            },
            {
                "start_time": 10.8136364,
                "end_time": 10.8636364,
                "pitch": 86,
                "velocity": 64,
                "duration": 0.05,
                "tempo": 120.0
            },
            {
                "start_time": 10.9886364,
                "end_time": 11.0909091,
                "pitch": 79,
                "velocity": 64,
                "duration": 0.1022727,
                "tempo": 120.0
            },
            {
                "start_time": 11.2136364,
                "end_time": 11.2659091,
                "pitch": 87,
                "velocity": 64,
                "duration": 0.0522727,
                "tempo": 120.0
            },
            {
                "start_time": 11.375,
                "end_time": 11.4772727,
                "pitch": 87,
                "velocity": 64,
                "duration": 0.1022727,
                "tempo": 120.0
            },
            {
                "start_time": 11.7681818,
                "end_time": 11.8681818,
                "pitch": 79,
                "velocity": 64,
                "duration": 0.1,
                "tempo": 120.0
            },
            {
                "start_time": 11.9477273,
                "end_time": 12.0181818,
                "pitch": 84,
                "velocity": 64,
                "duration": 0.0704545,
                "tempo": 120.0
            },
            {
                "start_time": 12.15,
                "end_time": 12.2204545,
                "pitch": 87,
                "velocity": 64,
                "duration": 0.0704545,
                "tempo": 120.0
            },
            {
                "start_time": 12.35,
                "end_time": 12.4181818,
                "pitch": 87,
                "velocity": 64,
                "duration": 0.0681818,
                "tempo": 120.0
            },
            {
                "start_time": 12.5272727,
                "end_time": 12.5954545,
                "pitch": 79,
                "velocity": 64,
                "duration": 0.0681818,
                "tempo": 120.0
            },
            {
                "start_time": 12.7204545,
                "end_time": 12.7931818,
                "pitch": 84,
                "velocity": 64,
                "duration": 0.0727273,
                "tempo": 120.0
            },
            {
                "start_time": 12.9159091,
                "end_time": 12.9795455,
                "pitch": 79,
                "velocity": 64,
                "duration": 0.0636364,
                "tempo": 120.0
            },
            {
                "start_time": 13.1227273,
                "end_time": 13.1840909,
                "pitch": 82,
                "velocity": 64,
                "duration": 0.0613636,
                "tempo": 120.0
            },
            {
                "start_time": 13.3045455,
                "end_time": 13.375,
                "pitch": 79,
                "velocity": 64,
                "duration": 0.0704545,
                "tempo": 120.0
            },
            {
                "start_time": 13.5045455,
                "end_time": 13.575,
                "pitch": 84,
                "velocity": 64,
                "duration": 0.0704545,
                "tempo": 120.0
            },
            {
                "start_time": 13.7068182,
                "end_time": 13.7568182,
                "pitch": 79,
                "velocity": 64,
                "duration": 0.05,
                "tempo": 120.0
            },
            {
                "start_time": 13.8863636,
                "end_time": 13.9590909,
                "pitch": 86,
                "velocity": 64,
                "duration": 0.0727273,
                "tempo": 120.0
            },
            {
                "start_time": 14.0931818,
                "end_time": 14.1659091,
                "pitch": 79,
                "velocity": 64,
                "duration": 0.0727273,
                "tempo": 120.0
            },
            {
                "start_time": 14.2886364,
                "end_time": 14.35,
                "pitch": 84,
                "velocity": 64,
                "duration": 0.0613636,
                "tempo": 120.0
            },
            {
                "start_time": 14.45,
                "end_time": 14.55,
                "pitch": 79,
                "velocity": 64,
                "duration": 0.1,
                "tempo": 120.0
            },
            {
                "start_time": 14.8522727,
                "end_time": 14.9227273,
                "pitch": 79,
                "velocity": 64,
                "duration": 0.0704545,
                "tempo": 120.0
            },
            {
                "start_time": 15.0545455,
                "end_time": 15.125,
                "pitch": 84,
                "velocity": 64,
                "duration": 0.0704545,
                "tempo": 120.0
            },
            {
                "start_time": 15.25,
                "end_time": 15.3022727,
                "pitch": 87,
                "velocity": 64,
                "duration": 0.0522727,
                "tempo": 120.0
            },
            {
                "start_time": 15.4568182,
                "end_time": 15.5159091,
                "pitch": 87,
                "velocity": 64,
                "duration": 0.0590909,
                "tempo": 120.0
            },
            {
                "start_time": 15.6159091,
                "end_time": 15.7181818,
                "pitch": 79,
                "velocity": 64,
                "duration": 0.1022727,
                "tempo": 120.0
            },
            {
                "start_time": 15.8386364,
                "end_time": 15.9090909,
                "pitch": 84,
                "velocity": 64,
                "duration": 0.0704545,
                "tempo": 120.0
            },
            {
                "start_time": 16.0090909,
                "end_time": 16.1090909,
                "pitch": 79,
                "velocity": 64,
                "duration": 0.1,
                "tempo": 120.0
            },
            {
                "start_time": 16.2204545,
                "end_time": 16.2931818,
                "pitch": 82,
                "velocity": 64,
                "duration": 0.0727273,
                "tempo": 120.0
            },
            {
                "start_time": 16.3954545,
                "end_time": 16.4977273,
                "pitch": 79,
                "velocity": 64,
                "duration": 0.1022727,
                "tempo": 120.0
            },
            {
                "start_time": 16.6227273,
                "end_time": 16.6818182,
                "pitch": 84,
                "velocity": 64,
                "duration": 0.0590909,
                "tempo": 120.0
            },
            {
                "start_time": 16.8045455,
                "end_time": 16.8727273,
                "pitch": 79,
                "velocity": 64,
                "duration": 0.0681818,
                "tempo": 120.0
            },
            {
                "start_time": 16.9840909,
                "end_time": 17.0522727,
                "pitch": 86,
                "velocity": 64,
                "duration": 0.0681818,
                "tempo": 120.0
            },
            {
                "start_time": 17.1795455,
                "end_time": 17.2772727,
                "pitch": 79,
                "velocity": 64,
                "duration": 0.0977273,
                "tempo": 120.0
            },
            {
                "start_time": 17.3659091,
                "end_time": 17.425,
                "pitch": 87,
                "velocity": 64,
                "duration": 0.0590909,
                "tempo": 120.0
            },
            {
                "start_time": 17.5454545,
                "end_time": 17.6454545,
                "pitch": 87,
                "velocity": 64,
                "duration": 0.1,
                "tempo": 120.0
            },
            {
                "start_time": 17.9272727,
                "end_time": 18.0295455,
                "pitch": 79,
                "velocity": 64,
                "duration": 0.1022727,
                "tempo": 120.0
            },
            {
                "start_time": 18.1295455,
                "end_time": 18.2,
                "pitch": 84,
                "velocity": 64,
                "duration": 0.0704545,
                "tempo": 120.0
            },
            {
                "start_time": 18.3340909,
                "end_time": 18.3863636,
                "pitch": 87,
                "velocity": 64,
                "duration": 0.0522727,
                "tempo": 120.0
            },
            {
                "start_time": 18.5318182,
                "end_time": 18.5909091,
                "pitch": 87,
                "velocity": 64,
                "duration": 0.0590909,
                "tempo": 120.0
            },
            {
                "start_time": 18.7113636,
                "end_time": 18.7636364,
                "pitch": 79,
                "velocity": 64,
                "duration": 0.0522727,
                "tempo": 120.0
            },
            {
                "start_time": 18.9136364,
                "end_time": 18.9840909,
                "pitch": 84,
                "velocity": 64,
                "duration": 0.0704545,
                "tempo": 120.0
            },
            {
                "start_time": 19.0954545,
                "end_time": 19.1454545,
                "pitch": 79,
                "velocity": 64,
                "duration": 0.05,
                "tempo": 120.0
            },
            {
                "start_time": 19.2954545,
                "end_time": 19.3681818,
                "pitch": 82,
                "velocity": 64,
                "duration": 0.0727273,
                "tempo": 120.0
            },
            {
                "start_time": 19.4909091,
                "end_time": 19.5522727,
                "pitch": 79,
                "velocity": 64,
                "duration": 0.0613636,
                "tempo": 120.0
            },
            {
                "start_time": 19.6977273,
                "end_time": 19.7590909,
                "pitch": 84,
                "velocity": 64,
                "duration": 0.0613636,
                "tempo": 120.0
            },
            {
                "start_time": 19.8795455,
                "end_time": 19.95,
                "pitch": 79,
                "velocity": 64,
                "duration": 0.0704545,
                "tempo": 120.0
            },
            {
                "start_time": 20.0795455,
                "end_time": 20.15,
                "pitch": 86,
                "velocity": 64,
                "duration": 0.0704545,
                "tempo": 120.0
            },
            {
                "start_time": 20.25,
                "end_time": 20.3522727,
                "pitch": 79,
                "velocity": 64,
                "duration": 0.1022727,
                "tempo": 120.0
            },
            {
                "start_time": 20.4613636,
                "end_time": 20.5340909,
                "pitch": 84,
                "velocity": 64,
                "duration": 0.0727273,
                "tempo": 120.0
            },
            {
                "start_time": 20.6363636,
                "end_time": 20.7409091,
                "pitch": 79,
                "velocity": 64,
                "duration": 0.1045455,
                "tempo": 120.0
            },
            {
                "start_time": 21.0454545,
                "end_time": 21.1159091,
                "pitch": 79,
                "velocity": 64,
                "duration": 0.0704545,
                "tempo": 120.0
            },
            {
                "start_time": 21.2454545,
                "end_time": 21.2954545,
                "pitch": 84,
                "velocity": 64,
                "duration": 0.05,
                "tempo": 120.0
            },
            {
                "start_time": 21.4272727,
                "end_time": 21.4772727,
                "pitch": 87,
                "velocity": 64,
                "duration": 0.05,
                "tempo": 120.0
            },
            {
                "start_time": 21.6272727,
                "end_time": 21.6795455,
                "pitch": 87,
                "velocity": 64,
                "duration": 0.0522727,
                "tempo": 120.0
            },
            {
                "start_time": 21.825,
                "end_time": 21.8863636,
                "pitch": 79,
                "velocity": 64,
                "duration": 0.0613636,
                "tempo": 120.0
            },
            {
                "start_time": 22.0090909,
                "end_time": 22.0772727,
                "pitch": 84,
                "velocity": 64,
                "duration": 0.0681818,
                "tempo": 120.0
            },
            {
                "start_time": 22.2,
                "end_time": 22.2954545,
                "pitch": 79,
                "velocity": 64,
                "duration": 0.0954545,
                "tempo": 120.0
            },
            {
                "start_time": 22.3704545,
                "end_time": 22.4727273,
                "pitch": 82,
                "velocity": 64,
                "duration": 0.1022727,
                "tempo": 120.0
            },
            {
                "start_time": 22.5772727,
                "end_time": 22.65,
                "pitch": 79,
                "velocity": 64,
                "duration": 0.0727273,
                "tempo": 120.0
            },
            {
                "start_time": 22.7727273,
                "end_time": 22.8340909,
                "pitch": 84,
                "velocity": 64,
                "duration": 0.0613636,
                "tempo": 120.0
            },
            {
                "start_time": 22.975,
                "end_time": 23.0340909,
                "pitch": 79,
                "velocity": 64,
                "duration": 0.0590909,
                "tempo": 120.0
            },
            {
                "start_time": 23.1545455,
                "end_time": 23.225,
                "pitch": 86,
                "velocity": 64,
                "duration": 0.0704545,
                "tempo": 120.0
            },
            {
                "start_time": 23.3363636,
                "end_time": 23.4363636,
                "pitch": 79,
                "velocity": 64,
                "duration": 0.1,
                "tempo": 120.0
            },
            {
                "start_time": 23.5363636,
                "end_time": 23.6090909,
                "pitch": 87,
                "velocity": 64,
                "duration": 0.0727273,
                "tempo": 120.0
            },
            {
                "start_time": 23.7318182,
                "end_time": 23.8159091,
                "pitch": 87,
                "velocity": 64,
                "duration": 0.0840909,
                "tempo": 120.0
            },
            {
                "start_time": 24.1204545,
                "end_time": 24.2,
                "pitch": 79,
                "velocity": 64,
                "duration": 0.0795455,
                "tempo": 120.0
            },
            {
                "start_time": 24.3204545,
                "end_time": 24.3909091,
                "pitch": 84,
                "velocity": 64,
                "duration": 0.0704545,
                "tempo": 120.0
            },
            {
                "start_time": 24.5227273,
                "end_time": 24.5727273,
                "pitch": 87,
                "velocity": 64,
                "duration": 0.05,
                "tempo": 120.0
            },
            {
                "start_time": 24.7045455,
                "end_time": 24.775,
                "pitch": 87,
                "velocity": 64,
                "duration": 0.0704545,
                "tempo": 120.0
            },
            {
                "start_time": 24.9,
                "end_time": 24.9613636,
                "pitch": 79,
                "velocity": 64,
                "duration": 0.0613636,
                "tempo": 120.0
            },
            {
                "start_time": 25.1045455,
                "end_time": 25.1613636,
                "pitch": 84,
                "velocity": 64,
                "duration": 0.0568182,
                "tempo": 120.0
            },
            {
                "start_time": 25.275,
                "end_time": 25.3409091,
                "pitch": 79,
                "velocity": 64,
                "duration": 0.0659091,
                "tempo": 120.0
            },
            {
                "start_time": 25.4659091,
                "end_time": 25.5386364,
                "pitch": 82,
                "velocity": 64,
                "duration": 0.0727273,
                "tempo": 120.0
            },
            {
                "start_time": 25.6454545,
                "end_time": 25.7090909,
                "pitch": 79,
                "velocity": 64,
                "duration": 0.0636364,
                "tempo": 120.0
            },
            {
                "start_time": 25.8681818,
                "end_time": 25.9409091,
                "pitch": 84,
                "velocity": 64,
                "duration": 0.0727273,
                "tempo": 120.0
            },
            {
                "start_time": 26.0636364,
                "end_time": 26.1272727,
                "pitch": 79,
                "velocity": 64,
                "duration": 0.0636364,
                "tempo": 120.0
            },
            {
                "start_time": 26.2704545,
                "end_time": 26.3204545,
                "pitch": 86,
                "velocity": 64,
                "duration": 0.05,
                "tempo": 120.0
            },
            {
                "start_time": 26.4318182,
                "end_time": 26.5318182,
                "pitch": 79,
                "velocity": 64,
                "duration": 0.1,
                "tempo": 120.0
            },
            {
                "start_time": 26.6522727,
                "end_time": 26.7022727,
                "pitch": 84,
                "velocity": 64,
                "duration": 0.05,
                "tempo": 120.0
            },
            {
                "start_time": 26.8227273,
                "end_time": 26.875,
                "pitch": 79,
                "velocity": 64,
                "duration": 0.0522727,
                "tempo": 120.0
            },
            {
                "start_time": 27.2318182,
                "end_time": 27.2931818,
                "pitch": 79,
                "velocity": 64,
                "duration": 0.0613636,
                "tempo": 120.0
            },
            {
                "start_time": 27.4159091,
                "end_time": 27.4840909,
                "pitch": 84,
                "velocity": 64,
                "duration": 0.0681818,
                "tempo": 120.0
            },
            {
                "start_time": 27.6068182,
                "end_time": 27.6545455,
                "pitch": 87,
                "velocity": 64,
                "duration": 0.0477273,
                "tempo": 120.0
            },
            {
                "start_time": 27.7772727,
                "end_time": 27.85,
                "pitch": 87,
                "velocity": 64,
                "duration": 0.0727273,
                "tempo": 120.0
            },
            {
                "start_time": 27.9840909,
                "end_time": 28.0568182,
                "pitch": 79,
                "velocity": 64,
                "duration": 0.0727273,
                "tempo": 120.0
            },
            {
                "start_time": 28.1795455,
                "end_time": 28.2409091,
                "pitch": 84,
                "velocity": 64,
                "duration": 0.0613636,
                "tempo": 120.0
            },
            {
                "start_time": 28.3613636,
                "end_time": 28.4613636,
                "pitch": 79,
                "velocity": 64,
                "duration": 0.1,
                "tempo": 120.0
            },
            {
                "start_time": 28.5613636,
                "end_time": 28.6431818,
                "pitch": 82,
                "velocity": 64,
                "duration": 0.0818182,
                "tempo": 120.0
            },
            {
                "start_time": 28.7431818,
                "end_time": 28.8340909,
                "pitch": 79,
                "velocity": 64,
                "duration": 0.0909091,
                "tempo": 120.0
            },
            {
                "start_time": 28.9431818,
                "end_time": 29.0159091,
                "pitch": 84,
                "velocity": 64,
                "duration": 0.0727273,
                "tempo": 120.0
            },
            {
                "start_time": 29.15,
                "end_time": 29.2022727,
                "pitch": 79,
                "velocity": 64,
                "duration": 0.0522727,
                "tempo": 120.0
            },
            {
                "start_time": 29.3454545,
                "end_time": 29.4068182,
                "pitch": 86,
                "velocity": 64,
                "duration": 0.0613636,
                "tempo": 120.0
            },
            {
                "start_time": 29.5272727,
                "end_time": 29.6068182,
                "pitch": 79,
                "velocity": 64,
                "duration": 0.0795455,
                "tempo": 120.0
            },
            {
                "start_time": 29.7272727,
                "end_time": 29.7977273,
                "pitch": 87,
                "velocity": 64,
                "duration": 0.0704545,
                "tempo": 120.0
            },
            {
                "start_time": 29.9090909,
                "end_time": 30.0090909,
                "pitch": 87,
                "velocity": 64,
                "duration": 0.1,
                "tempo": 120.0
            },
            {
                "start_time": 30.2818182,
                "end_time": 30.3818182,
                "pitch": 79,
                "velocity": 64,
                "duration": 0.1,
                "tempo": 120.0
            },
            {
                "start_time": 30.5022727,
                "end_time": 30.5636364,
                "pitch": 84,
                "velocity": 64,
                "duration": 0.0613636,
                "tempo": 120.0
            },
            {
                "start_time": 30.6886364,
                "end_time": 30.7386364,
                "pitch": 87,
                "velocity": 64,
                "duration": 0.05,
                "tempo": 120.0
            },
            {
                "start_time": 30.8954545,
                "end_time": 32.725,
                "pitch": 75,
                "velocity": 64,
                "duration": 1.8295455,
                "tempo": 120.0
            },
            {
                "start_time": 33.9704545,
                "end_time": 34.0704545,
                "pitch": 75,
                "velocity": 64,
                "duration": 0.1,
                "tempo": 120.0
            },
            {
                "start_time": 34.1704545,
                "end_time": 34.2522727,
                "pitch": 70,
                "velocity": 64,
                "duration": 0.0818182,
                "tempo": 120.0
            },
            {
                "start_time": 34.5568182,
                "end_time": 34.65,
                "pitch": 73,
                "velocity": 64,
                "duration": 0.0931818,
                "tempo": 120.0
            },
            {
                "start_time": 34.9340909,
                "end_time": 35.0363636,
                "pitch": 68,
                "velocity": 64,
                "duration": 0.1022727,
                "tempo": 120.0
            },
            {
                "start_time": 35.3181818,
                "end_time": 35.3886364,
                "pitch": 68,
                "velocity": 64,
                "duration": 0.0704545,
                "tempo": 120.0
            },
            {
                "start_time": 35.5181818,
                "end_time": 35.7136364,
                "pitch": 70,
                "velocity": 64,
                "duration": 0.1954545,
                "tempo": 120.0
            },
            {
                "start_time": 35.7136364,
                "end_time": 35.775,
                "pitch": 66,
                "velocity": 64,
                "duration": 0.0613636,
                "tempo": 120.0
            },
            {
                "start_time": 35.9204545,
                "end_time": 35.9818182,
                "pitch": 68,
                "velocity": 64,
                "duration": 0.0613636,
                "tempo": 120.0
            },
            {
                "start_time": 36.1022727,
                "end_time": 36.1727273,
                "pitch": 68,
                "velocity": 64,
                "duration": 0.0704545,
                "tempo": 120.0
            },
            {
                "start_time": 36.3022727,
                "end_time": 36.375,
                "pitch": 73,
                "velocity": 64,
                "duration": 0.0727273,
                "tempo": 120.0
            },
            {
                "start_time": 36.4886364,
                "end_time": 36.7863636,
                "pitch": 75,
                "velocity": 64,
                "duration": 0.2977273,
                "tempo": 120.0
            },
            {
                "start_time": 36.8909091,
                "end_time": 36.9409091,
                "pitch": 73,
                "velocity": 64,
                "duration": 0.05,
                "tempo": 120.0
            },
            {
                "start_time": 37.0977273,
                "end_time": 37.1772727,
                "pitch": 75,
                "velocity": 64,
                "duration": 0.0795455,
                "tempo": 120.0
            },
            {
                "start_time": 37.2772727,
                "end_time": 37.3795455,
                "pitch": 70,
                "velocity": 64,
                "duration": 0.1022727,
                "tempo": 120.0
            },
            {
                "start_time": 37.6545455,
                "end_time": 37.7522727,
                "pitch": 73,
                "velocity": 64,
                "duration": 0.0977273,
                "tempo": 120.0
            },
            {
                "start_time": 38.0409091,
                "end_time": 38.1409091,
                "pitch": 68,
                "velocity": 64,
                "duration": 0.1,
                "tempo": 120.0
            },
            {
                "start_time": 38.4159091,
                "end_time": 38.5136364,
                "pitch": 68,
                "velocity": 64,
                "duration": 0.0977273,
                "tempo": 120.0
            },
            {
                "start_time": 38.5909091,
                "end_time": 38.8,
                "pitch": 70,
                "velocity": 64,
                "duration": 0.2090909,
                "tempo": 120.0
            },
            {
                "start_time": 38.8,
                "end_time": 38.8954545,
                "pitch": 66,
                "velocity": 64,
                "duration": 0.0954545,
                "tempo": 120.0
            },
            {
                "start_time": 39.2068182,
                "end_time": 39.2590909,
                "pitch": 68,
                "velocity": 64,
                "duration": 0.0522727,
                "tempo": 120.0
            },
            {
                "start_time": 39.3931818,
                "end_time": 39.7159091,
                "pitch": 61,
                "velocity": 64,
                "duration": 0.3227273,
                "tempo": 120.0
            },
            {
                "start_time": 39.7636364,
                "end_time": 39.9181818,
                "pitch": 61,
                "velocity": 64,
                "duration": 0.1545455,
                "tempo": 120.0
            },
            {
                "start_time": 40.1659091,
                "end_time": 40.2659091,
                "pitch": 75,
                "velocity": 64,
                "duration": 0.1,
                "tempo": 120.0
            },
            {
                "start_time": 40.3477273,
                "end_time": 40.4477273,
                "pitch": 70,
                "velocity": 64,
                "duration": 0.1,
                "tempo": 120.0
            },
            {
                "start_time": 40.7340909,
                "end_time": 40.8363636,
                "pitch": 73,
                "velocity": 64,
                "duration": 0.1022727,
                "tempo": 120.0
            },
            {
                "start_time": 41.1318182,
                "end_time": 41.2318182,
                "pitch": 68,
                "velocity": 64,
                "duration": 0.1,
                "tempo": 120.0
            },
            {
                "start_time": 41.5181818,
                "end_time": 41.5886364,
                "pitch": 68,
                "velocity": 64,
                "duration": 0.0704545,
                "tempo": 120.0
            },
            {
                "start_time": 41.7227273,
                "end_time": 41.9,
                "pitch": 70,
                "velocity": 64,
                "duration": 0.1772727,
                "tempo": 120.0
            },
            {
                "start_time": 41.9,
                "end_time": 41.9681818,
                "pitch": 66,
                "velocity": 64,
                "duration": 0.0681818,
                "tempo": 120.0
            },
            {
                "start_time": 42.0954545,
                "end_time": 42.1454545,
                "pitch": 68,
                "velocity": 64,
                "duration": 0.05,
                "tempo": 120.0
            },
            {
                "start_time": 42.2886364,
                "end_time": 42.3522727,
                "pitch": 68,
                "velocity": 64,
                "duration": 0.0636364,
                "tempo": 120.0
            },
            {
                "start_time": 42.4954545,
                "end_time": 42.5545455,
                "pitch": 73,
                "velocity": 64,
                "duration": 0.0590909,
                "tempo": 120.0
            },
            {
                "start_time": 42.6704545,
                "end_time": 42.9477273,
                "pitch": 75,
                "velocity": 64,
                "duration": 0.2772727,
                "tempo": 120.0
            },
            {
                "start_time": 43.0477273,
                "end_time": 43.0977273,
                "pitch": 73,
                "velocity": 64,
                "duration": 0.05,
                "tempo": 120.0
            },
            {
                "start_time": 43.2386364,
                "end_time": 43.2977273,
                "pitch": 75,
                "velocity": 64,
                "duration": 0.0590909,
                "tempo": 120.0
            },
            {
                "start_time": 43.4386364,
                "end_time": 43.5409091,
                "pitch": 70,
                "velocity": 64,
                "duration": 0.1022727,
                "tempo": 120.0
            },
            {
                "start_time": 43.8159091,
                "end_time": 43.9136364,
                "pitch": 73,
                "velocity": 64,
                "duration": 0.0977273,
                "tempo": 120.0
            },
            {
                "start_time": 44.2,
                "end_time": 44.2954545,
                "pitch": 68,
                "velocity": 64,
                "duration": 0.0954545,
                "tempo": 120.0
            },
            {
                "start_time": 44.6068182,
                "end_time": 44.6590909,
                "pitch": 68,
                "velocity": 64,
                "duration": 0.0522727,
                "tempo": 120.0
            },
            {
                "start_time": 44.7931818,
                "end_time": 44.9886364,
                "pitch": 70,
                "velocity": 64,
                "duration": 0.1954545,
                "tempo": 120.0
            },
            {
                "start_time": 44.9886364,
                "end_time": 45.0659091,
                "pitch": 66,
                "velocity": 64,
                "duration": 0.0772727,
                "tempo": 120.0
            },
            {
                "start_time": 45.3590909,
                "end_time": 45.4090909,
                "pitch": 68,
                "velocity": 64,
                "duration": 0.05,
                "tempo": 120.0
            },
            {
                "start_time": 45.5636364,
                "end_time": 45.8954545,
                "pitch": 61,
                "velocity": 64,
                "duration": 0.3318182,
                "tempo": 120.0
            },
            {
                "start_time": 45.9477273,
                "end_time": 46.05,
                "pitch": 61,
                "velocity": 64,
                "duration": 0.1022727,
                "tempo": 120.0
            },
            {
                "start_time": 46.3386364,
                "end_time": 46.4386364,
                "pitch": 75,
                "velocity": 64,
                "duration": 0.1,
                "tempo": 120.0
            },
            {
                "start_time": 46.5295455,
                "end_time": 46.6295455,
                "pitch": 70,
                "velocity": 64,
                "duration": 0.1,
                "tempo": 120.0
            },
            {
                "start_time": 46.9159091,
                "end_time": 47.0204545,
                "pitch": 73,
                "velocity": 64,
                "duration": 0.1045455,
                "tempo": 120.0
            },
            {
                "start_time": 47.2977273,
                "end_time": 47.4454545,
                "pitch": 68,
                "velocity": 64,
                "duration": 0.1477273,
                "tempo": 120.0
            },
            {
                "start_time": 47.6886364,
                "end_time": 48.0181818,
                "pitch": 68,
                "velocity": 64,
                "duration": 0.3295455,
                "tempo": 120.0
            },
            {
                "start_time": 48.0659091,
                "end_time": 48.2363636,
                "pitch": 70,
                "velocity": 64,
                "duration": 0.1704545,
                "tempo": 120.0
            },
            {
                "start_time": 48.2363636,
                "end_time": 48.3068182,
                "pitch": 73,
                "velocity": 64,
                "duration": 0.0704545,
                "tempo": 120.0
            },
            {
                "start_time": 48.4409091,
                "end_time": 48.5136364,
                "pitch": 76,
                "velocity": 64,
                "duration": 0.0727273,
                "tempo": 120.0
            },
            {
                "start_time": 48.6363636,
                "end_time": 48.6977273,
                "pitch": 70,
                "velocity": 64,
                "duration": 0.0613636,
                "tempo": 120.0
            },
            {
                "start_time": 48.8386364,
                "end_time": 48.9,
                "pitch": 70,
                "velocity": 64,
                "duration": 0.0613636,
                "tempo": 120.0
            },
            {
                "start_time": 49.0204545,
                "end_time": 49.0909091,
                "pitch": 71,
                "velocity": 64,
                "duration": 0.0704545,
                "tempo": 120.0
            },
            {
                "start_time": 49.225,
                "end_time": 50.3977273,
                "pitch": 72,
                "velocity": 64,
                "duration": 1.1727273,
                "tempo": 120.0
            },
            {
                "start_time": 50.3977273,
                "end_time": 50.4681818,
                "pitch": 74,
                "velocity": 64,
                "duration": 0.0704545,
                "tempo": 120.0
            },
            {
                "start_time": 50.5772727,
                "end_time": 50.6477273,
                "pitch": 72,
                "velocity": 64,
                "duration": 0.0704545,
                "tempo": 120.0
            },
            {
                "start_time": 50.7681818,
                "end_time": 51.5386364,
                "pitch": 69,
                "velocity": 64,
                "duration": 0.7704545,
                "tempo": 120.0
            },
            {
                "start_time": 51.7431818,
                "end_time": 51.8159091,
                "pitch": 74,
                "velocity": 64,
                "duration": 0.0727273,
                "tempo": 120.0
            },
            {
                "start_time": 51.9363636,
                "end_time": 51.9863636,
                "pitch": 74,
                "velocity": 64,
                "duration": 0.05,
                "tempo": 120.0
            },
            {
                "start_time": 52.1363636,
                "end_time": 52.1886364,
                "pitch": 75,
                "velocity": 64,
                "duration": 0.0522727,
                "tempo": 120.0
            },
            {
                "start_time": 52.3227273,
                "end_time": 53.4659091,
                "pitch": 76,
                "velocity": 64,
                "duration": 1.1431818,
                "tempo": 120.0
            },
            {
                "start_time": 53.4659091,
                "end_time": 53.5636364,
                "pitch": 77,
                "velocity": 64,
                "duration": 0.0977273,
                "tempo": 120.0
            },
            {
                "start_time": 53.6409091,
                "end_time": 53.7113636,
                "pitch": 76,
                "velocity": 64,
                "duration": 0.0704545,
                "tempo": 120.0
            },
            {
                "start_time": 53.8431818,
                "end_time": 54.1977273,
                "pitch": 79,
                "velocity": 64,
                "duration": 0.3545455,
                "tempo": 120.0
            },
            {
                "start_time": 54.2386364,
                "end_time": 54.3227273,
                "pitch": 77,
                "velocity": 64,
                "duration": 0.0840909,
                "tempo": 120.0
            },
            {
                "start_time": 54.425,
                "end_time": 54.4977273,
                "pitch": 79,
                "velocity": 64,
                "duration": 0.0727273,
                "tempo": 120.0
            },
            {
                "start_time": 54.6318182,
                "end_time": 54.7136364,
                "pitch": 81,
                "velocity": 64,
                "duration": 0.0818182,
                "tempo": 120.0
            }
        ],
        "Lead 2 (sawtooth)": [
            {
                "start_time": 12.35,
                "end_time": 12.5454545,
                "pitch": 67,
                "velocity": 80,
                "duration": 0.1954545,
                "tempo": 120.0
            },
            {
                "start_time": 12.7204545,
                "end_time": 12.9272727,
                "pitch": 67,
                "velocity": 80,
                "duration": 0.2068182,
                "tempo": 120.0
            },
            {
                "start_time": 13.1227273,
                "end_time": 13.325,
                "pitch": 65,
                "velocity": 80,
                "duration": 0.2022727,
                "tempo": 120.0
            },
            {
                "start_time": 13.5045455,
                "end_time": 13.7068182,
                "pitch": 65,
                "velocity": 80,
                "duration": 0.2022727,
                "tempo": 120.0
            },
            {
                "start_time": 13.8863636,
                "end_time": 14.0931818,
                "pitch": 65,
                "velocity": 80,
                "duration": 0.2068182,
                "tempo": 120.0
            },
            {
                "start_time": 14.2886364,
                "end_time": 14.4704545,
                "pitch": 63,
                "velocity": 80,
                "duration": 0.1818182,
                "tempo": 120.0
            },
            {
                "start_time": 14.6727273,
                "end_time": 14.8522727,
                "pitch": 63,
                "velocity": 80,
                "duration": 0.1795455,
                "tempo": 120.0
            },
            {
                "start_time": 15.0545455,
                "end_time": 15.25,
                "pitch": 65,
                "velocity": 80,
                "duration": 0.1954545,
                "tempo": 120.0
            },
            {
                "start_time": 15.4568182,
                "end_time": 15.6363636,
                "pitch": 67,
                "velocity": 80,
                "duration": 0.1795455,
                "tempo": 120.0
            },
            {
                "start_time": 15.8386364,
                "end_time": 16.0704545,
                "pitch": 67,
                "velocity": 80,
                "duration": 0.2318182,
                "tempo": 120.0
            },
            {
                "start_time": 16.2204545,
                "end_time": 16.4681818,
                "pitch": 67,
                "velocity": 80,
                "duration": 0.2477273,
                "tempo": 120.0
            },
            {
                "start_time": 16.6227273,
                "end_time": 16.8727273,
                "pitch": 68,
                "velocity": 80,
                "duration": 0.25,
                "tempo": 120.0
            },
            {
                "start_time": 16.9840909,
                "end_time": 17.2272727,
                "pitch": 68,
                "velocity": 80,
                "duration": 0.2431818,
                "tempo": 120.0
            },
            {
                "start_time": 17.3659091,
                "end_time": 17.6159091,
                "pitch": 70,
                "velocity": 80,
                "duration": 0.25,
                "tempo": 120.0
            },
            {
                "start_time": 17.7477273,
                "end_time": 17.9477273,
                "pitch": 70,
                "velocity": 80,
                "duration": 0.2,
                "tempo": 120.0
            },
            {
                "start_time": 18.1295455,
                "end_time": 18.3340909,
                "pitch": 68,
                "velocity": 80,
                "duration": 0.2045455,
                "tempo": 120.0
            },
            {
                "start_time": 18.5318182,
                "end_time": 18.7318182,
                "pitch": 68,
                "velocity": 80,
                "duration": 0.2,
                "tempo": 120.0
            },
            {
                "start_time": 18.9136364,
                "end_time": 19.1136364,
                "pitch": 67,
                "velocity": 80,
                "duration": 0.2,
                "tempo": 120.0
            },
            {
                "start_time": 19.2954545,
                "end_time": 19.4909091,
                "pitch": 65,
                "velocity": 80,
                "duration": 0.1954545,
                "tempo": 120.0
            },
            {
                "start_time": 19.6977273,
                "end_time": 19.8795455,
                "pitch": 65,
                "velocity": 80,
                "duration": 0.1818182,
                "tempo": 120.0
            },
            {
                "start_time": 20.0795455,
                "end_time": 20.2613636,
                "pitch": 65,
                "velocity": 80,
                "duration": 0.1818182,
                "tempo": 120.0
            },
            {
                "start_time": 20.4613636,
                "end_time": 20.6568182,
                "pitch": 63,
                "velocity": 80,
                "duration": 0.1954545,
                "tempo": 120.0
            },
            {
                "start_time": 20.8636364,
                "end_time": 21.0454545,
                "pitch": 63,
                "velocity": 80,
                "duration": 0.1818182,
                "tempo": 120.0
            },
            {
                "start_time": 21.2454545,
                "end_time": 21.4272727,
                "pitch": 65,
                "velocity": 80,
                "duration": 0.1818182,
                "tempo": 120.0
            },
            {
                "start_time": 21.6272727,
                "end_time": 21.825,
                "pitch": 67,
                "velocity": 80,
                "duration": 0.1977273,
                "tempo": 120.0
            },
            {
                "start_time": 22.0090909,
                "end_time": 22.2477273,
                "pitch": 67,
                "velocity": 80,
                "duration": 0.2386364,
                "tempo": 120.0
            },
            {
                "start_time": 22.3704545,
                "end_time": 22.6272727,
                "pitch": 67,
                "velocity": 80,
                "duration": 0.2568182,
                "tempo": 120.0
            },
            {
                "start_time": 22.7727273,
                "end_time": 23.025,
                "pitch": 68,
                "velocity": 80,
                "duration": 0.2522727,
                "tempo": 120.0
            },
            {
                "start_time": 23.1545455,
                "end_time": 23.4068182,
                "pitch": 68,
                "velocity": 80,
                "duration": 0.2522727,
                "tempo": 120.0
            },
            {
                "start_time": 23.5363636,
                "end_time": 23.7954545,
                "pitch": 70,
                "velocity": 80,
                "duration": 0.2590909,
                "tempo": 120.0
            },
            {
                "start_time": 23.9386364,
                "end_time": 24.1409091,
                "pitch": 70,
                "velocity": 80,
                "duration": 0.2022727,
                "tempo": 120.0
            },
            {
                "start_time": 24.3204545,
                "end_time": 24.5227273,
                "pitch": 68,
                "velocity": 80,
                "duration": 0.2022727,
                "tempo": 120.0
            },
            {
                "start_time": 24.7045455,
                "end_time": 24.9,
                "pitch": 68,
                "velocity": 80,
                "duration": 0.1954545,
                "tempo": 120.0
            },
            {
                "start_time": 25.1045455,
                "end_time": 25.275,
                "pitch": 67,
                "velocity": 80,
                "duration": 0.1704545,
                "tempo": 120.0
            },
            {
                "start_time": 25.4659091,
                "end_time": 25.6568182,
                "pitch": 65,
                "velocity": 80,
                "duration": 0.1909091,
                "tempo": 120.0
            },
            {
                "start_time": 25.8681818,
                "end_time": 26.0636364,
                "pitch": 65,
                "velocity": 80,
                "duration": 0.1954545,
                "tempo": 120.0
            },
            {
                "start_time": 26.2704545,
                "end_time": 26.4522727,
                "pitch": 65,
                "velocity": 80,
                "duration": 0.1818182,
                "tempo": 120.0
            },
            {
                "start_time": 26.6522727,
                "end_time": 26.8340909,
                "pitch": 63,
                "velocity": 80,
                "duration": 0.1818182,
                "tempo": 120.0
            },
            {
                "start_time": 27.0340909,
                "end_time": 27.2409091,
                "pitch": 63,
                "velocity": 80,
                "duration": 0.2068182,
                "tempo": 120.0
            },
            {
                "start_time": 27.4159091,
                "end_time": 27.6068182,
                "pitch": 65,
                "velocity": 80,
                "duration": 0.1909091,
                "tempo": 120.0
            },
            {
                "start_time": 27.7772727,
                "end_time": 28.025,
                "pitch": 67,
                "velocity": 80,
                "duration": 0.2477273,
                "tempo": 120.0
            },
            {
                "start_time": 28.1590909,
                "end_time": 28.4113636,
                "pitch": 67,
                "velocity": 80,
                "duration": 0.2522727,
                "tempo": 120.0
            },
            {
                "start_time": 28.5613636,
                "end_time": 28.8136364,
                "pitch": 67,
                "velocity": 80,
                "duration": 0.2522727,
                "tempo": 120.0
            },
            {
                "start_time": 28.9431818,
                "end_time": 29.1909091,
                "pitch": 68,
                "velocity": 80,
                "duration": 0.2477273,
                "tempo": 120.0
            },
            {
                "start_time": 29.3454545,
                "end_time": 29.5772727,
                "pitch": 68,
                "velocity": 80,
                "duration": 0.2318182,
                "tempo": 120.0
            },
            {
                "start_time": 29.7272727,
                "end_time": 29.9590909,
                "pitch": 70,
                "velocity": 80,
                "duration": 0.2318182,
                "tempo": 120.0
            },
            {
                "start_time": 30.1090909,
                "end_time": 30.3522727,
                "pitch": 70,
                "velocity": 80,
                "duration": 0.2431818,
                "tempo": 120.0
            },
            {
                "start_time": 30.5022727,
                "end_time": 30.6886364,
                "pitch": 68,
                "velocity": 80,
                "duration": 0.1863636,
                "tempo": 120.0
            },
            {
                "start_time": 30.8954545,
                "end_time": 30.9454545,
                "pitch": 75,
                "velocity": 51,
                "duration": 0.05,
                "tempo": 120.0
            },
            {
                "start_time": 30.9954545,
                "end_time": 31.0454545,
                "pitch": 75,
                "velocity": 51,
                "duration": 0.05,
                "tempo": 120.0
            },
            {
                "start_time": 31.075,
                "end_time": 31.125,
                "pitch": 87,
                "velocity": 51,
                "duration": 0.05,
                "tempo": 120.0
            },
            {
                "start_time": 31.175,
                "end_time": 31.2272727,
                "pitch": 87,
                "velocity": 51,
                "duration": 0.0522727,
                "tempo": 120.0
            },
            {
                "start_time": 31.2772727,
                "end_time": 31.3272727,
                "pitch": 75,
                "velocity": 51,
                "duration": 0.05,
                "tempo": 120.0
            },
            {
                "start_time": 31.3681818,
                "end_time": 31.4204545,
                "pitch": 75,
                "velocity": 51,
                "duration": 0.0522727,
                "tempo": 120.0
            },
            {
                "start_time": 31.4727273,
                "end_time": 31.525,
                "pitch": 87,
                "velocity": 51,
                "duration": 0.0522727,
                "tempo": 120.0
            },
            {
                "start_time": 31.575,
                "end_time": 31.6272727,
                "pitch": 87,
                "velocity": 51,
                "duration": 0.0522727,
                "tempo": 120.0
            },
            {
                "start_time": 31.6795455,
                "end_time": 31.7090909,
                "pitch": 75,
                "velocity": 51,
                "duration": 0.0295455,
                "tempo": 120.0
            },
            {
                "start_time": 31.7590909,
                "end_time": 31.8090909,
                "pitch": 75,
                "velocity": 51,
                "duration": 0.05,
                "tempo": 120.0
            },
            {
                "start_time": 31.8590909,
                "end_time": 31.9090909,
                "pitch": 87,
                "velocity": 51,
                "duration": 0.05,
                "tempo": 120.0
            },
            {
                "start_time": 31.9613636,
                "end_time": 32.0113636,
                "pitch": 87,
                "velocity": 51,
                "duration": 0.05,
                "tempo": 120.0
            },
            {
                "start_time": 32.0613636,
                "end_time": 32.0909091,
                "pitch": 75,
                "velocity": 51,
                "duration": 0.0295455,
                "tempo": 120.0
            },
            {
                "start_time": 32.1409091,
                "end_time": 32.1909091,
                "pitch": 75,
                "velocity": 51,
                "duration": 0.05,
                "tempo": 120.0
            },
            {
                "start_time": 32.2409091,
                "end_time": 32.2931818,
                "pitch": 87,
                "velocity": 51,
                "duration": 0.0522727,
                "tempo": 120.0
            },
            {
                "start_time": 32.3431818,
                "end_time": 32.3931818,
                "pitch": 87,
                "velocity": 51,
                "duration": 0.05,
                "tempo": 120.0
            },
            {
                "start_time": 32.4340909,
                "end_time": 32.4818182,
                "pitch": 75,
                "velocity": 51,
                "duration": 0.0477273,
                "tempo": 120.0
            },
            {
                "start_time": 32.5295455,
                "end_time": 32.5590909,
                "pitch": 75,
                "velocity": 51,
                "duration": 0.0295455,
                "tempo": 120.0
            },
            {
                "start_time": 32.6272727,
                "end_time": 32.6772727,
                "pitch": 87,
                "velocity": 51,
                "duration": 0.05,
                "tempo": 120.0
            },
            {
                "start_time": 32.725,
                "end_time": 32.775,
                "pitch": 87,
                "velocity": 51,
                "duration": 0.05,
                "tempo": 120.0
            },
            {
                "start_time": 32.8022727,
                "end_time": 32.8545455,
                "pitch": 75,
                "velocity": 51,
                "duration": 0.0522727,
                "tempo": 120.0
            },
            {
                "start_time": 32.9045455,
                "end_time": 32.9545455,
                "pitch": 75,
                "velocity": 51,
                "duration": 0.05,
                "tempo": 120.0
            },
            {
                "start_time": 33.0045455,
                "end_time": 33.0545455,
                "pitch": 87,
                "velocity": 51,
                "duration": 0.05,
                "tempo": 120.0
            },
            {
                "start_time": 33.1045455,
                "end_time": 33.1340909,
                "pitch": 87,
                "velocity": 51,
                "duration": 0.0295455,
                "tempo": 120.0
            },
            {
                "start_time": 33.1863636,
                "end_time": 33.2363636,
                "pitch": 75,
                "velocity": 51,
                "duration": 0.05,
                "tempo": 120.0
            },
            {
                "start_time": 33.2886364,
                "end_time": 33.3409091,
                "pitch": 75,
                "velocity": 51,
                "duration": 0.0522727,
                "tempo": 120.0
            },
            {
                "start_time": 33.3909091,
                "end_time": 33.4431818,
                "pitch": 87,
                "velocity": 51,
                "duration": 0.0522727,
                "tempo": 120.0
            },
            {
                "start_time": 33.4954545,
                "end_time": 33.5454545,
                "pitch": 87,
                "velocity": 51,
                "duration": 0.05,
                "tempo": 120.0
            },
            {
                "start_time": 33.5886364,
                "end_time": 33.6386364,
                "pitch": 75,
                "velocity": 51,
                "duration": 0.05,
                "tempo": 120.0
            },
            {
                "start_time": 33.6886364,
                "end_time": 33.7386364,
                "pitch": 75,
                "velocity": 51,
                "duration": 0.05,
                "tempo": 120.0
            },
            {
                "start_time": 33.7886364,
                "end_time": 33.8181818,
                "pitch": 87,
                "velocity": 51,
                "duration": 0.0295455,
                "tempo": 120.0
            },
            {
                "start_time": 33.85,
                "end_time": 33.9,
                "pitch": 87,
                "velocity": 51,
                "duration": 0.05,
                "tempo": 120.0
            },
            {
                "start_time": 33.9704545,
                "end_time": 34.0,
                "pitch": 75,
                "velocity": 51,
                "duration": 0.0295455,
                "tempo": 120.0
            },
            {
                "start_time": 34.05,
                "end_time": 34.1,
                "pitch": 75,
                "velocity": 51,
                "duration": 0.05,
                "tempo": 120.0
            },
            {
                "start_time": 34.1704545,
                "end_time": 34.2204545,
                "pitch": 87,
                "velocity": 51,
                "duration": 0.05,
                "tempo": 120.0
            },
            {
                "start_time": 34.2522727,
                "end_time": 34.3022727,
                "pitch": 87,
                "velocity": 51,
                "duration": 0.05,
                "tempo": 120.0
            },
            {
                "start_time": 34.3522727,
                "end_time": 34.4022727,
                "pitch": 75,
                "velocity": 51,
                "duration": 0.05,
                "tempo": 120.0
            },
            {
                "start_time": 34.4545455,
                "end_time": 34.5068182,
                "pitch": 75,
                "velocity": 51,
                "duration": 0.0522727,
                "tempo": 120.0
            },
            {
                "start_time": 34.5568182,
                "end_time": 34.5795455,
                "pitch": 87,
                "velocity": 51,
                "duration": 0.0227273,
                "tempo": 120.0
            },
            {
                "start_time": 34.6295455,
                "end_time": 34.6818182,
                "pitch": 87,
                "velocity": 51,
                "duration": 0.0522727,
                "tempo": 120.0
            },
            {
                "start_time": 34.7545455,
                "end_time": 34.8045455,
                "pitch": 75,
                "velocity": 51,
                "duration": 0.05,
                "tempo": 120.0
            },
            {
                "start_time": 34.8545455,
                "end_time": 34.9045455,
                "pitch": 75,
                "velocity": 51,
                "duration": 0.05,
                "tempo": 120.0
            },
            {
                "start_time": 34.9340909,
                "end_time": 34.9863636,
                "pitch": 87,
                "velocity": 51,
                "duration": 0.0522727,
                "tempo": 120.0
            },
            {
                "start_time": 35.0363636,
                "end_time": 35.0863636,
                "pitch": 87,
                "velocity": 51,
                "duration": 0.05,
                "tempo": 120.0
            },
            {
                "start_time": 35.1363636,
                "end_time": 35.1863636,
                "pitch": 75,
                "velocity": 51,
                "duration": 0.05,
                "tempo": 120.0
            },
            {
                "start_time": 35.2363636,
                "end_time": 35.2863636,
                "pitch": 75,
                "velocity": 51,
                "duration": 0.05,
                "tempo": 120.0
            },
            {
                "start_time": 35.3181818,
                "end_time": 35.3681818,
                "pitch": 87,
                "velocity": 51,
                "duration": 0.05,
                "tempo": 120.0
            },
            {
                "start_time": 35.4181818,
                "end_time": 35.4681818,
                "pitch": 87,
                "velocity": 51,
                "duration": 0.05,
                "tempo": 120.0
            },
            {
                "start_time": 35.5181818,
                "end_time": 35.5704545,
                "pitch": 75,
                "velocity": 51,
                "duration": 0.0522727,
                "tempo": 120.0
            },
            {
                "start_time": 35.6204545,
                "end_time": 35.6613636,
                "pitch": 75,
                "velocity": 51,
                "duration": 0.0409091,
                "tempo": 120.0
            },
            {
                "start_time": 35.7136364,
                "end_time": 35.7659091,
                "pitch": 87,
                "velocity": 51,
                "duration": 0.0522727,
                "tempo": 120.0
            },
            {
                "start_time": 35.8181818,
                "end_time": 35.8681818,
                "pitch": 87,
                "velocity": 51,
                "duration": 0.05,
                "tempo": 120.0
            },
            {
                "start_time": 35.9204545,
                "end_time": 35.9704545,
                "pitch": 75,
                "velocity": 51,
                "duration": 0.05,
                "tempo": 120.0
            },
            {
                "start_time": 36.0204545,
                "end_time": 36.05,
                "pitch": 75,
                "velocity": 51,
                "duration": 0.0295455,
                "tempo": 120.0
            },
            {
                "start_time": 36.1022727,
                "end_time": 36.1522727,
                "pitch": 87,
                "velocity": 51,
                "duration": 0.05,
                "tempo": 120.0
            },
            {
                "start_time": 36.2022727,
                "end_time": 36.2522727,
                "pitch": 87,
                "velocity": 51,
                "duration": 0.05,
                "tempo": 120.0
            },
            {
                "start_time": 36.3022727,
                "end_time": 36.3545455,
                "pitch": 75,
                "velocity": 51,
                "duration": 0.0522727,
                "tempo": 120.0
            },
            {
                "start_time": 36.3840909,
                "end_time": 36.4363636,
                "pitch": 75,
                "velocity": 51,
                "duration": 0.0522727,
                "tempo": 120.0
            },
            {
                "start_time": 36.4886364,
                "end_time": 36.5386364,
                "pitch": 87,
                "velocity": 51,
                "duration": 0.05,
                "tempo": 120.0
            },
            {
                "start_time": 36.5909091,
                "end_time": 36.6431818,
                "pitch": 87,
                "velocity": 51,
                "duration": 0.0522727,
                "tempo": 120.0
            },
            {
                "start_time": 36.6954545,
                "end_time": 36.7454545,
                "pitch": 75,
                "velocity": 51,
                "duration": 0.05,
                "tempo": 120.0
            },
            {
                "start_time": 36.7863636,
                "end_time": 36.8181818,
                "pitch": 75,
                "velocity": 51,
                "duration": 0.0318182,
                "tempo": 120.0
            },
            {
                "start_time": 36.8909091,
                "end_time": 36.9409091,
                "pitch": 87,
                "velocity": 51,
                "duration": 0.05,
                "tempo": 120.0
            },
            {
                "start_time": 36.9931818,
                "end_time": 37.0454545,
                "pitch": 87,
                "velocity": 51,
                "duration": 0.0522727,
                "tempo": 120.0
            },
            {
                "start_time": 37.0977273,
                "end_time": 37.1272727,
                "pitch": 75,
                "velocity": 51,
                "duration": 0.0295455,
                "tempo": 120.0
            },
            {
                "start_time": 37.1772727,
                "end_time": 37.2272727,
                "pitch": 75,
                "velocity": 51,
                "duration": 0.05,
                "tempo": 120.0
            },
            {
                "start_time": 37.2772727,
                "end_time": 37.3272727,
                "pitch": 87,
                "velocity": 51,
                "duration": 0.05,
                "tempo": 120.0
            },
            {
                "start_time": 37.3795455,
                "end_time": 37.4295455,
                "pitch": 87,
                "velocity": 51,
                "duration": 0.05,
                "tempo": 120.0
            },
            {
                "start_time": 37.4795455,
                "end_time": 37.5272727,
                "pitch": 75,
                "velocity": 51,
                "duration": 0.0477273,
                "tempo": 120.0
            },
            {
                "start_time": 37.5568182,
                "end_time": 37.6068182,
                "pitch": 75,
                "velocity": 51,
                "duration": 0.05,
                "tempo": 120.0
            },
            {
                "start_time": 37.6545455,
                "end_time": 37.7022727,
                "pitch": 87,
                "velocity": 51,
                "duration": 0.0477273,
                "tempo": 120.0
            },
            {
                "start_time": 37.7522727,
                "end_time": 37.8,
                "pitch": 87,
                "velocity": 51,
                "duration": 0.0477273,
                "tempo": 120.0
            },
            {
                "start_time": 37.8386364,
                "end_time": 37.8886364,
                "pitch": 75,
                "velocity": 51,
                "duration": 0.05,
                "tempo": 120.0
            },
            {
                "start_time": 37.9409091,
                "end_time": 37.9909091,
                "pitch": 75,
                "velocity": 51,
                "duration": 0.05,
                "tempo": 120.0
            },
            {
                "start_time": 38.0409091,
                "end_time": 38.0909091,
                "pitch": 87,
                "velocity": 51,
                "duration": 0.05,
                "tempo": 120.0
            },
            {
                "start_time": 38.1409091,
                "end_time": 38.1704545,
                "pitch": 87,
                "velocity": 51,
                "duration": 0.0295455,
                "tempo": 120.0
            },
            {
                "start_time": 38.2204545,
                "end_time": 38.25,
                "pitch": 75,
                "velocity": 51,
                "duration": 0.0295455,
                "tempo": 120.0
            },
            {
                "start_time": 38.3181818,
                "end_time": 38.3681818,
                "pitch": 75,
                "velocity": 51,
                "duration": 0.05,
                "tempo": 120.0
            },
            {
                "start_time": 38.4159091,
                "end_time": 38.4659091,
                "pitch": 87,
                "velocity": 51,
                "duration": 0.05,
                "tempo": 120.0
            },
            {
                "start_time": 38.5136364,
                "end_time": 38.5340909,
                "pitch": 87,
                "velocity": 51,
                "duration": 0.0204545,
                "tempo": 120.0
            },
            {
                "start_time": 38.5909091,
                "end_time": 38.6431818,
                "pitch": 75,
                "velocity": 51,
                "duration": 0.0522727,
                "tempo": 120.0
            },
            {
                "start_time": 38.6954545,
                "end_time": 38.7477273,
                "pitch": 75,
                "velocity": 51,
                "duration": 0.0522727,
                "tempo": 120.0
            },
            {
                "start_time": 38.8,
                "end_time": 38.8545455,
                "pitch": 87,
                "velocity": 51,
                "duration": 0.0545455,
                "tempo": 120.0
            },
            {
                "start_time": 38.8954545,
                "end_time": 38.9477273,
                "pitch": 87,
                "velocity": 51,
                "duration": 0.0522727,
                "tempo": 120.0
            },
            {
                "start_time": 39.0,
                "end_time": 39.0522727,
                "pitch": 75,
                "velocity": 51,
                "duration": 0.0522727,
                "tempo": 120.0
            },
            {
                "start_time": 39.1045455,
                "end_time": 39.1568182,
                "pitch": 75,
                "velocity": 51,
                "duration": 0.0522727,
                "tempo": 120.0
            },
            {
                "start_time": 39.2068182,
                "end_time": 39.2590909,
                "pitch": 87,
                "velocity": 51,
                "duration": 0.0522727,
                "tempo": 120.0
            },
            {
                "start_time": 39.2909091,
                "end_time": 39.3409091,
                "pitch": 87,
                "velocity": 51,
                "duration": 0.05,
                "tempo": 120.0
            },
            {
                "start_time": 39.3931818,
                "end_time": 39.4431818,
                "pitch": 75,
                "velocity": 51,
                "duration": 0.05,
                "tempo": 120.0
            },
            {
                "start_time": 39.4909091,
                "end_time": 39.5409091,
                "pitch": 75,
                "velocity": 51,
                "duration": 0.05,
                "tempo": 120.0
            },
            {
                "start_time": 39.5886364,
                "end_time": 39.6181818,
                "pitch": 87,
                "velocity": 51,
                "duration": 0.0295455,
                "tempo": 120.0
            },
            {
                "start_time": 39.6659091,
                "end_time": 39.7159091,
                "pitch": 87,
                "velocity": 51,
                "duration": 0.05,
                "tempo": 120.0
            },
            {
                "start_time": 39.7636364,
                "end_time": 39.8045455,
                "pitch": 75,
                "velocity": 51,
                "duration": 0.0409091,
                "tempo": 120.0
            },
            {
                "start_time": 39.8659091,
                "end_time": 39.9181818,
                "pitch": 75,
                "velocity": 51,
                "duration": 0.0522727,
                "tempo": 120.0
            },
            {
                "start_time": 39.9704545,
                "end_time": 40.0204545,
                "pitch": 87,
                "velocity": 51,
                "duration": 0.05,
                "tempo": 120.0
            },
            {
                "start_time": 40.0613636,
                "end_time": 40.1136364,
                "pitch": 87,
                "velocity": 51,
                "duration": 0.0522727,
                "tempo": 120.0
            },
            {
                "start_time": 40.1659091,
                "end_time": 40.2159091,
                "pitch": 75,
                "velocity": 51,
                "duration": 0.05,
                "tempo": 120.0
            },
            {
                "start_time": 40.2659091,
                "end_time": 40.3159091,
                "pitch": 75,
                "velocity": 51,
                "duration": 0.05,
                "tempo": 120.0
            },
            {
                "start_time": 40.3477273,
                "end_time": 40.3977273,
                "pitch": 87,
                "velocity": 51,
                "duration": 0.05,
                "tempo": 120.0
            },
            {
                "start_time": 40.4477273,
                "end_time": 40.4977273,
                "pitch": 87,
                "velocity": 51,
                "duration": 0.05,
                "tempo": 120.0
            },
            {
                "start_time": 40.5477273,
                "end_time": 40.6,
                "pitch": 75,
                "velocity": 51,
                "duration": 0.0522727,
                "tempo": 120.0
            },
            {
                "start_time": 40.65,
                "end_time": 40.7022727,
                "pitch": 75,
                "velocity": 51,
                "duration": 0.0522727,
                "tempo": 120.0
            },
            {
                "start_time": 40.7340909,
                "end_time": 40.7840909,
                "pitch": 87,
                "velocity": 51,
                "duration": 0.05,
                "tempo": 120.0
            },
            {
                "start_time": 40.8363636,
                "end_time": 40.8886364,
                "pitch": 87,
                "velocity": 51,
                "duration": 0.0522727,
                "tempo": 120.0
            },
            {
                "start_time": 40.9386364,
                "end_time": 40.9909091,
                "pitch": 75,
                "velocity": 51,
                "duration": 0.0522727,
                "tempo": 120.0
            },
            {
                "start_time": 41.0409091,
                "end_time": 41.0818182,
                "pitch": 75,
                "velocity": 51,
                "duration": 0.0409091,
                "tempo": 120.0
            },
            {
                "start_time": 41.1318182,
                "end_time": 41.1613636,
                "pitch": 87,
                "velocity": 51,
                "duration": 0.0295455,
                "tempo": 120.0
            },
            {
                "start_time": 41.2318182,
                "end_time": 41.2818182,
                "pitch": 87,
                "velocity": 51,
                "duration": 0.05,
                "tempo": 120.0
            },
            {
                "start_time": 41.3318182,
                "end_time": 41.3840909,
                "pitch": 75,
                "velocity": 51,
                "duration": 0.0522727,
                "tempo": 120.0
            },
            {
                "start_time": 41.4136364,
                "end_time": 41.4659091,
                "pitch": 75,
                "velocity": 51,
                "duration": 0.0522727,
                "tempo": 120.0
            },
            {
                "start_time": 41.5181818,
                "end_time": 41.5681818,
                "pitch": 87,
                "velocity": 51,
                "duration": 0.05,
                "tempo": 120.0
            },
            {
                "start_time": 41.6204545,
                "end_time": 41.6727273,
                "pitch": 87,
                "velocity": 51,
                "duration": 0.0522727,
                "tempo": 120.0
            },
            {
                "start_time": 41.7227273,
                "end_time": 41.7727273,
                "pitch": 75,
                "velocity": 51,
                "duration": 0.05,
                "tempo": 120.0
            },
            {
                "start_time": 41.8022727,
                "end_time": 41.85,
                "pitch": 75,
                "velocity": 51,
                "duration": 0.0477273,
                "tempo": 120.0
            },
            {
                "start_time": 41.9,
                "end_time": 41.9477273,
                "pitch": 87,
                "velocity": 51,
                "duration": 0.0477273,
                "tempo": 120.0
            },
            {
                "start_time": 41.9977273,
                "end_time": 42.0454545,
                "pitch": 87,
                "velocity": 51,
                "duration": 0.0477273,
                "tempo": 120.0
            },
            {
                "start_time": 42.0954545,
                "end_time": 42.1340909,
                "pitch": 75,
                "velocity": 51,
                "duration": 0.0386364,
                "tempo": 120.0
            },
            {
                "start_time": 42.1863636,
                "end_time": 42.2181818,
                "pitch": 75,
                "velocity": 51,
                "duration": 0.0318182,
                "tempo": 120.0
            },
            {
                "start_time": 42.2886364,
                "end_time": 42.3409091,
                "pitch": 87,
                "velocity": 51,
                "duration": 0.0522727,
                "tempo": 120.0
            },
            {
                "start_time": 42.3931818,
                "end_time": 42.4227273,
                "pitch": 87,
                "velocity": 51,
                "duration": 0.0295455,
                "tempo": 120.0
            },
            {
                "start_time": 42.4954545,
                "end_time": 42.5454545,
                "pitch": 75,
                "velocity": 51,
                "duration": 0.05,
                "tempo": 120.0
            },
            {
                "start_time": 42.575,
                "end_time": 42.6227273,
                "pitch": 75,
                "velocity": 51,
                "duration": 0.0477273,
                "tempo": 120.0
            },
            {
                "start_time": 42.6704545,
                "end_time": 42.7204545,
                "pitch": 87,
                "velocity": 51,
                "duration": 0.05,
                "tempo": 120.0
            },
            {
                "start_time": 42.7681818,
                "end_time": 42.8181818,
                "pitch": 87,
                "velocity": 51,
                "duration": 0.05,
                "tempo": 120.0
            },
            {
                "start_time": 42.8477273,
                "end_time": 42.8954545,
                "pitch": 75,
                "velocity": 51,
                "duration": 0.0477273,
                "tempo": 120.0
            },
            {
                "start_time": 42.9477273,
                "end_time": 42.9977273,
                "pitch": 75,
                "velocity": 51,
                "duration": 0.05,
                "tempo": 120.0
            },
            {
                "start_time": 43.0477273,
                "end_time": 43.0977273,
                "pitch": 87,
                "velocity": 51,
                "duration": 0.05,
                "tempo": 120.0
            },
            {
                "start_time": 43.1477273,
                "end_time": 43.1977273,
                "pitch": 87,
                "velocity": 51,
                "duration": 0.05,
                "tempo": 120.0
            },
            {
                "start_time": 43.2386364,
                "end_time": 43.2886364,
                "pitch": 75,
                "velocity": 51,
                "duration": 0.05,
                "tempo": 120.0
            },
            {
                "start_time": 43.3386364,
                "end_time": 43.3886364,
                "pitch": 75,
                "velocity": 51,
                "duration": 0.05,
                "tempo": 120.0
            },
            {
                "start_time": 43.4386364,
                "end_time": 43.4886364,
                "pitch": 87,
                "velocity": 51,
                "duration": 0.05,
                "tempo": 120.0
            },
            {
                "start_time": 43.5409091,
                "end_time": 43.5704545,
                "pitch": 87,
                "velocity": 51,
                "duration": 0.0295455,
                "tempo": 120.0
            },
            {
                "start_time": 43.6204545,
                "end_time": 43.6681818,
                "pitch": 75,
                "velocity": 51,
                "duration": 0.0477273,
                "tempo": 120.0
            },
            {
                "start_time": 43.7181818,
                "end_time": 43.7659091,
                "pitch": 75,
                "velocity": 51,
                "duration": 0.0477273,
                "tempo": 120.0
            },
            {
                "start_time": 43.8159091,
                "end_time": 43.8636364,
                "pitch": 87,
                "velocity": 51,
                "duration": 0.0477273,
                "tempo": 120.0
            },
            {
                "start_time": 43.9136364,
                "end_time": 43.9431818,
                "pitch": 87,
                "velocity": 51,
                "duration": 0.0295455,
                "tempo": 120.0
            },
            {
                "start_time": 43.9909091,
                "end_time": 44.0409091,
                "pitch": 75,
                "velocity": 51,
                "duration": 0.05,
                "tempo": 120.0
            },
            {
                "start_time": 44.0954545,
                "end_time": 44.1477273,
                "pitch": 75,
                "velocity": 51,
                "duration": 0.0522727,
                "tempo": 120.0
            },
            {
                "start_time": 44.2,
                "end_time": 44.2522727,
                "pitch": 87,
                "velocity": 51,
                "duration": 0.0522727,
                "tempo": 120.0
            },
            {
                "start_time": 44.2954545,
                "end_time": 44.3477273,
                "pitch": 87,
                "velocity": 51,
                "duration": 0.0522727,
                "tempo": 120.0
            },
            {
                "start_time": 44.4,
                "end_time": 44.4522727,
                "pitch": 75,
                "velocity": 51,
                "duration": 0.0522727,
                "tempo": 120.0
            },
            {
                "start_time": 44.5022727,
                "end_time": 44.5545455,
                "pitch": 75,
                "velocity": 51,
                "duration": 0.0522727,
                "tempo": 120.0
            },
            {
                "start_time": 44.6068182,
                "end_time": 44.6363636,
                "pitch": 87,
                "velocity": 51,
                "duration": 0.0295455,
                "tempo": 120.0
            },
            {
                "start_time": 44.6886364,
                "end_time": 44.7409091,
                "pitch": 87,
                "velocity": 51,
                "duration": 0.0522727,
                "tempo": 120.0
            },
            {
                "start_time": 44.7931818,
                "end_time": 44.8409091,
                "pitch": 75,
                "velocity": 51,
                "duration": 0.0477273,
                "tempo": 120.0
            },
            {
                "start_time": 44.8909091,
                "end_time": 44.9204545,
                "pitch": 75,
                "velocity": 51,
                "duration": 0.0295455,
                "tempo": 120.0
            },
            {
                "start_time": 44.9681818,
                "end_time": 45.0068182,
                "pitch": 87,
                "velocity": 51,
                "duration": 0.0386364,
                "tempo": 120.0
            },
            {
                "start_time": 45.0659091,
                "end_time": 45.1136364,
                "pitch": 87,
                "velocity": 51,
                "duration": 0.0477273,
                "tempo": 120.0
            },
            {
                "start_time": 45.1636364,
                "end_time": 45.2136364,
                "pitch": 75,
                "velocity": 51,
                "duration": 0.05,
                "tempo": 120.0
            },
            {
                "start_time": 45.2659091,
                "end_time": 45.3159091,
                "pitch": 75,
                "velocity": 51,
                "duration": 0.05,
                "tempo": 120.0
            },
            {
                "start_time": 45.3590909,
                "end_time": 45.4090909,
                "pitch": 87,
                "velocity": 51,
                "duration": 0.05,
                "tempo": 120.0
            },
            {
                "start_time": 45.4613636,
                "end_time": 45.5136364,
                "pitch": 87,
                "velocity": 51,
                "duration": 0.0522727,
                "tempo": 120.0
            },
            {
                "start_time": 45.5636364,
                "end_time": 45.6159091,
                "pitch": 75,
                "velocity": 51,
                "duration": 0.0522727,
                "tempo": 120.0
            },
            {
                "start_time": 45.6659091,
                "end_time": 45.7159091,
                "pitch": 75,
                "velocity": 51,
                "duration": 0.05,
                "tempo": 120.0
            },
            {
                "start_time": 45.7454545,
                "end_time": 45.7954545,
                "pitch": 87,
                "velocity": 51,
                "duration": 0.05,
                "tempo": 120.0
            },
            {
                "start_time": 45.8454545,
                "end_time": 45.8954545,
                "pitch": 87,
                "velocity": 51,
                "duration": 0.05,
                "tempo": 120.0
            },
            {
                "start_time": 45.9477273,
                "end_time": 45.9977273,
                "pitch": 75,
                "velocity": 51,
                "duration": 0.05,
                "tempo": 120.0
            },
            {
                "start_time": 46.05,
                "end_time": 46.0795455,
                "pitch": 75,
                "velocity": 51,
                "duration": 0.0295455,
                "tempo": 120.0
            },
            {
                "start_time": 46.1318182,
                "end_time": 46.1840909,
                "pitch": 87,
                "velocity": 51,
                "duration": 0.0522727,
                "tempo": 120.0
            },
            {
                "start_time": 46.2340909,
                "end_time": 46.2863636,
                "pitch": 87,
                "velocity": 51,
                "duration": 0.0522727,
                "tempo": 120.0
            },
            {
                "start_time": 46.3386364,
                "end_time": 46.3886364,
                "pitch": 75,
                "velocity": 51,
                "duration": 0.05,
                "tempo": 120.0
            },
            {
                "start_time": 46.4386364,
                "end_time": 46.4886364,
                "pitch": 75,
                "velocity": 51,
                "duration": 0.05,
                "tempo": 120.0
            },
            {
                "start_time": 46.5295455,
                "end_time": 46.5795455,
                "pitch": 87,
                "velocity": 51,
                "duration": 0.05,
                "tempo": 120.0
            },
            {
                "start_time": 46.6295455,
                "end_time": 46.6818182,
                "pitch": 87,
                "velocity": 51,
                "duration": 0.0522727,
                "tempo": 120.0
            },
            {
                "start_time": 46.7318182,
                "end_time": 46.7818182,
                "pitch": 75,
                "velocity": 51,
                "duration": 0.05,
                "tempo": 120.0
            },
            {
                "start_time": 46.8136364,
                "end_time": 46.8636364,
                "pitch": 75,
                "velocity": 51,
                "duration": 0.05,
                "tempo": 120.0
            },
            {
                "start_time": 46.9159091,
                "end_time": 46.9681818,
                "pitch": 87,
                "velocity": 51,
                "duration": 0.0522727,
                "tempo": 120.0
            },
            {
                "start_time": 47.0204545,
                "end_time": 47.0704545,
                "pitch": 87,
                "velocity": 51,
                "duration": 0.05,
                "tempo": 120.0
            },
            {
                "start_time": 47.1227273,
                "end_time": 47.1727273,
                "pitch": 75,
                "velocity": 51,
                "duration": 0.05,
                "tempo": 120.0
            },
            {
                "start_time": 47.2022727,
                "end_time": 47.25,
                "pitch": 75,
                "velocity": 51,
                "duration": 0.0477273,
                "tempo": 120.0
            },
            {
                "start_time": 47.2977273,
                "end_time": 47.3477273,
                "pitch": 87,
                "velocity": 51,
                "duration": 0.05,
                "tempo": 120.0
            },
            {
                "start_time": 47.3954545,
                "end_time": 47.4454545,
                "pitch": 87,
                "velocity": 51,
                "duration": 0.05,
                "tempo": 120.0
            },
            {
                "start_time": 47.4931818,
                "end_time": 47.5340909,
                "pitch": 75,
                "velocity": 51,
                "duration": 0.0409091,
                "tempo": 120.0
            },
            {
                "start_time": 47.5863636,
                "end_time": 47.6363636,
                "pitch": 75,
                "velocity": 51,
                "duration": 0.05,
                "tempo": 120.0
            },
            {
                "start_time": 47.6886364,
                "end_time": 47.7409091,
                "pitch": 87,
                "velocity": 51,
                "duration": 0.0522727,
                "tempo": 120.0
            },
            {
                "start_time": 47.7909091,
                "end_time": 47.8431818,
                "pitch": 87,
                "velocity": 51,
                "duration": 0.0522727,
                "tempo": 120.0
            },
            {
                "start_time": 47.875,
                "end_time": 47.9227273,
                "pitch": 75,
                "velocity": 51,
                "duration": 0.0477273,
                "tempo": 120.0
            },
            {
                "start_time": 47.9704545,
                "end_time": 48.0181818,
                "pitch": 75,
                "velocity": 51,
                "duration": 0.0477273,
                "tempo": 120.0
            },
            {
                "start_time": 48.0659091,
                "end_time": 48.1136364,
                "pitch": 87,
                "velocity": 51,
                "duration": 0.0477273,
                "tempo": 120.0
            },
            {
                "start_time": 48.1613636,
                "end_time": 48.2068182,
                "pitch": 87,
                "velocity": 51,
                "duration": 0.0454545,
                "tempo": 120.0
            },
            {
                "start_time": 48.2363636,
                "end_time": 48.2863636,
                "pitch": 75,
                "velocity": 51,
                "duration": 0.05,
                "tempo": 120.0
            },
            {
                "start_time": 48.3386364,
                "end_time": 48.3886364,
                "pitch": 75,
                "velocity": 51,
                "duration": 0.05,
                "tempo": 120.0
            },
            {
                "start_time": 48.4409091,
                "end_time": 48.4931818,
                "pitch": 87,
                "velocity": 51,
                "duration": 0.0522727,
                "tempo": 120.0
            },
            {
                "start_time": 48.5454545,
                "end_time": 48.5863636,
                "pitch": 87,
                "velocity": 51,
                "duration": 0.0409091,
                "tempo": 120.0
            },
            {
                "start_time": 48.6363636,
                "end_time": 48.6886364,
                "pitch": 75,
                "velocity": 51,
                "duration": 0.0522727,
                "tempo": 120.0
            },
            {
                "start_time": 48.7386364,
                "end_time": 48.7886364,
                "pitch": 75,
                "velocity": 51,
                "duration": 0.05,
                "tempo": 120.0
            },
            {
                "start_time": 48.8386364,
                "end_time": 48.8886364,
                "pitch": 87,
                "velocity": 51,
                "duration": 0.05,
                "tempo": 120.0
            },
            {
                "start_time": 48.9386364,
                "end_time": 48.9886364,
                "pitch": 87,
                "velocity": 51,
                "duration": 0.05,
                "tempo": 120.0
            },
            {
                "start_time": 49.0204545,
                "end_time": 49.0704545,
                "pitch": 75,
                "velocity": 51,
                "duration": 0.05,
                "tempo": 120.0
            },
            {
                "start_time": 49.1227273,
                "end_time": 49.175,
                "pitch": 75,
                "velocity": 51,
                "duration": 0.0522727,
                "tempo": 120.0
            },
            {
                "start_time": 49.225,
                "end_time": 49.2568182,
                "pitch": 87,
                "velocity": 51,
                "duration": 0.0318182,
                "tempo": 120.0
            },
            {
                "start_time": 49.3090909,
                "end_time": 49.3590909,
                "pitch": 87,
                "velocity": 51,
                "duration": 0.05,
                "tempo": 120.0
            },
            {
                "start_time": 49.4113636,
                "end_time": 49.4613636,
                "pitch": 75,
                "velocity": 51,
                "duration": 0.05,
                "tempo": 120.0
            },
            {
                "start_time": 49.5113636,
                "end_time": 49.5636364,
                "pitch": 76,
                "velocity": 51,
                "duration": 0.0522727,
                "tempo": 120.0
            },
            {
                "start_time": 49.6136364,
                "end_time": 49.6636364,
                "pitch": 88,
                "velocity": 51,
                "duration": 0.05,
                "tempo": 120.0
            },
            {
                "start_time": 49.7022727,
                "end_time": 49.7545455,
                "pitch": 88,
                "velocity": 51,
                "duration": 0.0522727,
                "tempo": 120.0
            },
            {
                "start_time": 49.8045455,
                "end_time": 49.8545455,
                "pitch": 76,
                "velocity": 51,
                "duration": 0.05,
                "tempo": 120.0
            },
            {
                "start_time": 49.9068182,
                "end_time": 49.9590909,
                "pitch": 76,
                "velocity": 51,
                "duration": 0.0522727,
                "tempo": 120.0
            },
            {
                "start_time": 50.0090909,
                "end_time": 50.0204545,
                "pitch": 88,
                "velocity": 51,
                "duration": 0.0113636,
                "tempo": 120.0
            },
            {
                "start_time": 50.0727273,
                "end_time": 50.1227273,
                "pitch": 88,
                "velocity": 51,
                "duration": 0.05,
                "tempo": 120.0
            },
            {
                "start_time": 50.1954545,
                "end_time": 50.2454545,
                "pitch": 76,
                "velocity": 51,
                "duration": 0.05,
                "tempo": 120.0
            },
            {
                "start_time": 50.2954545,
                "end_time": 50.3477273,
                "pitch": 76,
                "velocity": 51,
                "duration": 0.0522727,
                "tempo": 120.0
            },
            {
                "start_time": 50.3977273,
                "end_time": 50.4477273,
                "pitch": 88,
                "velocity": 51,
                "duration": 0.05,
                "tempo": 120.0
            },
            {
                "start_time": 50.4772727,
                "end_time": 50.5272727,
                "pitch": 88,
                "velocity": 51,
                "duration": 0.05,
                "tempo": 120.0
            },
            {
                "start_time": 50.5772727,
                "end_time": 50.6272727,
                "pitch": 76,
                "velocity": 51,
                "duration": 0.05,
                "tempo": 120.0
            },
            {
                "start_time": 50.6795455,
                "end_time": 50.7295455,
                "pitch": 76,
                "velocity": 51,
                "duration": 0.05,
                "tempo": 120.0
            },
            {
                "start_time": 50.7681818,
                "end_time": 50.8204545,
                "pitch": 88,
                "velocity": 51,
                "duration": 0.0522727,
                "tempo": 120.0
            },
            {
                "start_time": 50.8704545,
                "end_time": 50.9204545,
                "pitch": 88,
                "velocity": 51,
                "duration": 0.05,
                "tempo": 120.0
            },
            {
                "start_time": 50.9704545,
                "end_time": 51.0204545,
                "pitch": 76,
                "velocity": 51,
                "duration": 0.05,
                "tempo": 120.0
            },
            {
                "start_time": 51.0704545,
                "end_time": 51.1,
                "pitch": 76,
                "velocity": 51,
                "duration": 0.0295455,
                "tempo": 120.0
            },
            {
                "start_time": 51.1522727,
                "end_time": 51.2022727,
                "pitch": 88,
                "velocity": 51,
                "duration": 0.05,
                "tempo": 120.0
            },
            {
                "start_time": 51.2522727,
                "end_time": 51.3022727,
                "pitch": 88,
                "velocity": 51,
                "duration": 0.05,
                "tempo": 120.0
            },
            {
                "start_time": 51.3522727,
                "end_time": 51.4045455,
                "pitch": 76,
                "velocity": 51,
                "duration": 0.0522727,
                "tempo": 120.0
            },
            {
                "start_time": 51.4545455,
                "end_time": 51.4863636,
                "pitch": 76,
                "velocity": 51,
                "duration": 0.0318182,
                "tempo": 120.0
            },
            {
                "start_time": 51.5386364,
                "end_time": 51.5886364,
                "pitch": 88,
                "velocity": 51,
                "duration": 0.05,
                "tempo": 120.0
            },
            {
                "start_time": 51.6409091,
                "end_time": 51.6931818,
                "pitch": 88,
                "velocity": 51,
                "duration": 0.0522727,
                "tempo": 120.0
            },
            {
                "start_time": 51.7431818,
                "end_time": 51.7840909,
                "pitch": 76,
                "velocity": 51,
                "duration": 0.0409091,
                "tempo": 120.0
            },
            {
                "start_time": 51.8340909,
                "end_time": 51.8863636,
                "pitch": 76,
                "velocity": 51,
                "duration": 0.0522727,
                "tempo": 120.0
            },
            {
                "start_time": 51.9363636,
                "end_time": 51.9863636,
                "pitch": 88,
                "velocity": 51,
                "duration": 0.05,
                "tempo": 120.0
            },
            {
                "start_time": 52.0363636,
                "end_time": 52.0659091,
                "pitch": 88,
                "velocity": 51,
                "duration": 0.0295455,
                "tempo": 120.0
            },
            {
                "start_time": 52.1363636,
                "end_time": 52.1886364,
                "pitch": 76,
                "velocity": 51,
                "duration": 0.0522727,
                "tempo": 120.0
            },
            {
                "start_time": 52.2181818,
                "end_time": 52.2704545,
                "pitch": 76,
                "velocity": 51,
                "duration": 0.0522727,
                "tempo": 120.0
            },
            {
                "start_time": 52.3227273,
                "end_time": 52.3727273,
                "pitch": 88,
                "velocity": 51,
                "duration": 0.05,
                "tempo": 120.0
            },
            {
                "start_time": 52.425,
                "end_time": 52.4772727,
                "pitch": 88,
                "velocity": 51,
                "duration": 0.0522727,
                "tempo": 120.0
            },
            {
                "start_time": 52.5272727,
                "end_time": 52.5590909,
                "pitch": 79,
                "velocity": 51,
                "duration": 0.0318182,
                "tempo": 120.0
            },
            {
                "start_time": 52.6068182,
                "end_time": 52.6545455,
                "pitch": 79,
                "velocity": 51,
                "duration": 0.0477273,
                "tempo": 120.0
            },
            {
                "start_time": 52.7045455,
                "end_time": 52.7522727,
                "pitch": 91,
                "velocity": 51,
                "duration": 0.0477273,
                "tempo": 120.0
            },
            {
                "start_time": 52.8022727,
                "end_time": 52.85,
                "pitch": 91,
                "velocity": 51,
                "duration": 0.0477273,
                "tempo": 120.0
            },
            {
                "start_time": 52.9,
                "end_time": 52.95,
                "pitch": 79,
                "velocity": 51,
                "duration": 0.05,
                "tempo": 120.0
            },
            {
                "start_time": 52.9886364,
                "end_time": 53.0386364,
                "pitch": 79,
                "velocity": 51,
                "duration": 0.05,
                "tempo": 120.0
            },
            {
                "start_time": 53.0909091,
                "end_time": 53.1409091,
                "pitch": 91,
                "velocity": 51,
                "duration": 0.05,
                "tempo": 120.0
            },
            {
                "start_time": 53.1909091,
                "end_time": 53.2409091,
                "pitch": 91,
                "velocity": 51,
                "duration": 0.05,
                "tempo": 120.0
            },
            {
                "start_time": 53.2704545,
                "end_time": 53.3204545,
                "pitch": 79,
                "velocity": 51,
                "duration": 0.05,
                "tempo": 120.0
            },
            {
                "start_time": 53.3681818,
                "end_time": 53.4181818,
                "pitch": 79,
                "velocity": 51,
                "duration": 0.05,
                "tempo": 120.0
            },
            {
                "start_time": 53.4659091,
                "end_time": 53.5159091,
                "pitch": 91,
                "velocity": 51,
                "duration": 0.05,
                "tempo": 120.0
            },
            {
                "start_time": 53.5636364,
                "end_time": 53.5931818,
                "pitch": 91,
                "velocity": 51,
                "duration": 0.0295455,
                "tempo": 120.0
            },
            {
                "start_time": 53.6409091,
                "end_time": 53.6909091,
                "pitch": 79,
                "velocity": 51,
                "duration": 0.05,
                "tempo": 120.0
            },
            {
                "start_time": 53.7409091,
                "end_time": 53.7818182,
                "pitch": 79,
                "velocity": 51,
                "duration": 0.0409091,
                "tempo": 120.0
            },
            {
                "start_time": 53.8431818,
                "end_time": 53.8931818,
                "pitch": 91,
                "velocity": 51,
                "duration": 0.05,
                "tempo": 120.0
            },
            {
                "start_time": 53.9431818,
                "end_time": 53.9840909,
                "pitch": 91,
                "velocity": 51,
                "duration": 0.0409091,
                "tempo": 120.0
            },
            {
                "start_time": 54.0340909,
                "end_time": 54.0840909,
                "pitch": 81,
                "velocity": 51,
                "duration": 0.05,
                "tempo": 120.0
            },
            {
                "start_time": 54.1363636,
                "end_time": 54.1886364,
                "pitch": 81,
                "velocity": 51,
                "duration": 0.0522727,
                "tempo": 120.0
            },
            {
                "start_time": 54.2386364,
                "end_time": 54.2909091,
                "pitch": 93,
                "velocity": 51,
                "duration": 0.0522727,
                "tempo": 120.0
            },
            {
                "start_time": 54.3227273,
                "end_time": 54.3727273,
                "pitch": 93,
                "velocity": 51,
                "duration": 0.05,
                "tempo": 120.0
            },
            {
                "start_time": 54.425,
                "end_time": 54.4568182,
                "pitch": 81,
                "velocity": 51,
                "duration": 0.0318182,
                "tempo": 120.0
            },
            {
                "start_time": 54.5068182,
                "end_time": 54.5590909,
                "pitch": 81,
                "velocity": 51,
                "duration": 0.0522727,
                "tempo": 120.0
            },
            {
                "start_time": 54.6318182,
                "end_time": 54.6840909,
                "pitch": 93,
                "velocity": 51,
                "duration": 0.0522727,
                "tempo": 120.0
            },
            {
                "start_time": 54.7136364,
                "end_time": 54.7545455,
                "pitch": 93,
                "velocity": 51,
                "duration": 0.0409091,
                "tempo": 120.0
            },
            {
                "start_time": 54.8181818,
                "end_time": 54.8681818,
                "pitch": 83,
                "velocity": 51,
                "duration": 0.05,
                "tempo": 120.0
            },
            {
                "start_time": 54.9181818,
                "end_time": 54.9681818,
                "pitch": 83,
                "velocity": 51,
                "duration": 0.05,
                "tempo": 120.0
            },
            {
                "start_time": 55.0181818,
                "end_time": 55.0590909,
                "pitch": 95,
                "velocity": 51,
                "duration": 0.0409091,
                "tempo": 120.0
            },
            {
                "start_time": 55.1090909,
                "end_time": 55.1590909,
                "pitch": 95,
                "velocity": 51,
                "duration": 0.05,
                "tempo": 120.0
            },
            {
                "start_time": 55.2090909,
                "end_time": 55.2613636,
                "pitch": 83,
                "velocity": 51,
                "duration": 0.0522727,
                "tempo": 120.0
            }
        ],
        "Flute": [
            {
                "start_time": 18.7318182,
                "end_time": 19.8795455,
                "pitch": 67,
                "velocity": 40,
                "duration": 1.1477273,
                "tempo": 120.0
            },
            {
                "start_time": 19.8795455,
                "end_time": 19.9795455,
                "pitch": 65,
                "velocity": 40,
                "duration": 0.1,
                "tempo": 120.0
            },
            {
                "start_time": 19.9795455,
                "end_time": 20.0795455,
                "pitch": 67,
                "velocity": 40,
                "duration": 0.1,
                "tempo": 120.0
            },
            {
                "start_time": 20.0795455,
                "end_time": 20.1795455,
                "pitch": 67,
                "velocity": 40,
                "duration": 0.1,
                "tempo": 120.0
            },
            {
                "start_time": 20.1795455,
                "end_time": 20.2613636,
                "pitch": 68,
                "velocity": 40,
                "duration": 0.0818182,
                "tempo": 120.0
            },
            {
                "start_time": 20.2613636,
                "end_time": 21.0454545,
                "pitch": 72,
                "velocity": 40,
                "duration": 0.7840909,
                "tempo": 120.0
            },
            {
                "start_time": 21.0454545,
                "end_time": 21.4272727,
                "pitch": 70,
                "velocity": 40,
                "duration": 0.3818182,
                "tempo": 120.0
            },
            {
                "start_time": 21.4272727,
                "end_time": 21.825,
                "pitch": 70,
                "velocity": 40,
                "duration": 0.3977273,
                "tempo": 120.0
            },
            {
                "start_time": 21.825,
                "end_time": 22.0090909,
                "pitch": 68,
                "velocity": 40,
                "duration": 0.1840909,
                "tempo": 120.0
            },
            {
                "start_time": 22.0090909,
                "end_time": 22.2,
                "pitch": 67,
                "velocity": 40,
                "duration": 0.1909091,
                "tempo": 120.0
            },
            {
                "start_time": 22.2,
                "end_time": 22.7,
                "pitch": 63,
                "velocity": 40,
                "duration": 0.5,
                "tempo": 120.0
            },
            {
                "start_time": 22.7727273,
                "end_time": 22.8840909,
                "pitch": 63,
                "velocity": 40,
                "duration": 0.1113636,
                "tempo": 120.0
            },
            {
                "start_time": 22.975,
                "end_time": 23.075,
                "pitch": 63,
                "velocity": 40,
                "duration": 0.1,
                "tempo": 120.0
            },
            {
                "start_time": 23.1545455,
                "end_time": 23.225,
                "pitch": 67,
                "velocity": 40,
                "duration": 0.0704545,
                "tempo": 120.0
            },
            {
                "start_time": 23.3568182,
                "end_time": 23.9386364,
                "pitch": 67,
                "velocity": 40,
                "duration": 0.5818182,
                "tempo": 120.0
            },
            {
                "start_time": 23.9386364,
                "end_time": 24.5227273,
                "pitch": 65,
                "velocity": 40,
                "duration": 0.5840909,
                "tempo": 120.0
            },
            {
                "start_time": 24.5227273,
                "end_time": 24.9,
                "pitch": 62,
                "velocity": 40,
                "duration": 0.3772727,
                "tempo": 120.0
            },
            {
                "start_time": 24.9,
                "end_time": 26.0636364,
                "pitch": 67,
                "velocity": 40,
                "duration": 1.1636364,
                "tempo": 120.0
            },
            {
                "start_time": 26.0636364,
                "end_time": 26.1681818,
                "pitch": 65,
                "velocity": 40,
                "duration": 0.1045455,
                "tempo": 120.0
            },
            {
                "start_time": 26.1681818,
                "end_time": 26.2704545,
                "pitch": 67,
                "velocity": 40,
                "duration": 0.1022727,
                "tempo": 120.0
            },
            {
                "start_time": 26.2704545,
                "end_time": 26.3522727,
                "pitch": 67,
                "velocity": 40,
                "duration": 0.0818182,
                "tempo": 120.0
            },
            {
                "start_time": 26.3522727,
                "end_time": 26.4522727,
                "pitch": 68,
                "velocity": 40,
                "duration": 0.1,
                "tempo": 120.0
            },
            {
                "start_time": 26.4522727,
                "end_time": 27.2318182,
                "pitch": 72,
                "velocity": 40,
                "duration": 0.7795455,
                "tempo": 120.0
            },
            {
                "start_time": 27.2318182,
                "end_time": 27.6068182,
                "pitch": 70,
                "velocity": 40,
                "duration": 0.375,
                "tempo": 120.0
            },
            {
                "start_time": 27.6068182,
                "end_time": 27.9931818,
                "pitch": 70,
                "velocity": 40,
                "duration": 0.3863636,
                "tempo": 120.0
            },
            {
                "start_time": 27.9931818,
                "end_time": 28.1795455,
                "pitch": 68,
                "velocity": 40,
                "duration": 0.1863636,
                "tempo": 120.0
            },
            {
                "start_time": 28.1795455,
                "end_time": 28.3795455,
                "pitch": 67,
                "velocity": 40,
                "duration": 0.2,
                "tempo": 120.0
            },
            {
                "start_time": 28.3795455,
                "end_time": 28.8636364,
                "pitch": 75,
                "velocity": 40,
                "duration": 0.4840909,
                "tempo": 120.0
            },
            {
                "start_time": 28.9545455,
                "end_time": 29.0681818,
                "pitch": 75,
                "velocity": 40,
                "duration": 0.1136364,
                "tempo": 120.0
            },
            {
                "start_time": 29.1613636,
                "end_time": 29.2431818,
                "pitch": 75,
                "velocity": 40,
                "duration": 0.0818182,
                "tempo": 120.0
            },
            {
                "start_time": 29.3454545,
                "end_time": 29.4068182,
                "pitch": 79,
                "velocity": 40,
                "duration": 0.0613636,
                "tempo": 120.0
            },
            {
                "start_time": 29.5477273,
                "end_time": 30.1090909,
                "pitch": 79,
                "velocity": 40,
                "duration": 0.5613636,
                "tempo": 120.0
            },
            {
                "start_time": 30.1090909,
                "end_time": 30.6886364,
                "pitch": 77,
                "velocity": 40,
                "duration": 0.5795455,
                "tempo": 120.0
            },
            {
                "start_time": 30.6886364,
                "end_time": 31.075,
                "pitch": 74,
                "velocity": 40,
                "duration": 0.3863636,
                "tempo": 120.0
            },
            {
                "start_time": 31.075,
                "end_time": 32.6272727,
                "pitch": 68,
                "velocity": 40,
                "duration": 1.5522727,
                "tempo": 120.0
            },
            {
                "start_time": 32.6272727,
                "end_time": 32.9045455,
                "pitch": 68,
                "velocity": 40,
                "duration": 0.2772727,
                "tempo": 120.0
            },
            {
                "start_time": 34.1704545,
                "end_time": 35.7136364,
                "pitch": 68,
                "velocity": 10,
                "duration": 1.5431818,
                "tempo": 120.0
            },
            {
                "start_time": 35.7136364,
                "end_time": 36.0204545,
                "pitch": 68,
                "velocity": 10,
                "duration": 0.3068182,
                "tempo": 120.0
            },
            {
                "start_time": 37.2772727,
                "end_time": 37.4795455,
                "pitch": 63,
                "velocity": 40,
                "duration": 0.2022727,
                "tempo": 120.0
            },
            {
                "start_time": 37.4795455,
                "end_time": 37.6545455,
                "pitch": 66,
                "velocity": 40,
                "duration": 0.175,
                "tempo": 120.0
            },
            {
                "start_time": 37.6545455,
                "end_time": 37.7522727,
                "pitch": 65,
                "velocity": 40,
                "duration": 0.0977273,
                "tempo": 120.0
            },
            {
                "start_time": 38.0409091,
                "end_time": 38.1409091,
                "pitch": 63,
                "velocity": 40,
                "duration": 0.1,
                "tempo": 120.0
            },
            {
                "start_time": 38.1409091,
                "end_time": 38.2204545,
                "pitch": 63,
                "velocity": 40,
                "duration": 0.0795455,
                "tempo": 120.0
            },
            {
                "start_time": 38.2204545,
                "end_time": 38.3181818,
                "pitch": 66,
                "velocity": 40,
                "duration": 0.0977273,
                "tempo": 120.0
            },
            {
                "start_time": 38.3181818,
                "end_time": 38.3977273,
                "pitch": 68,
                "velocity": 40,
                "duration": 0.0795455,
                "tempo": 120.0
            },
            {
                "start_time": 38.4159091,
                "end_time": 38.5136364,
                "pitch": 68,
                "velocity": 40,
                "duration": 0.0977273,
                "tempo": 120.0
            },
            {
                "start_time": 38.8113636,
                "end_time": 38.8954545,
                "pitch": 70,
                "velocity": 40,
                "duration": 0.0840909,
                "tempo": 120.0
            },
            {
                "start_time": 38.8954545,
                "end_time": 39.0,
                "pitch": 68,
                "velocity": 40,
                "duration": 0.1045455,
                "tempo": 120.0
            },
            {
                "start_time": 39.0,
                "end_time": 39.1863636,
                "pitch": 71,
                "velocity": 40,
                "duration": 0.1863636,
                "tempo": 120.0
            },
            {
                "start_time": 39.2068182,
                "end_time": 39.2909091,
                "pitch": 75,
                "velocity": 40,
                "duration": 0.0840909,
                "tempo": 120.0
            },
            {
                "start_time": 39.5886364,
                "end_time": 39.6659091,
                "pitch": 75,
                "velocity": 40,
                "duration": 0.0772727,
                "tempo": 120.0
            },
            {
                "start_time": 39.6659091,
                "end_time": 39.7159091,
                "pitch": 75,
                "velocity": 40,
                "duration": 0.05,
                "tempo": 120.0
            },
            {
                "start_time": 39.775,
                "end_time": 39.8659091,
                "pitch": 78,
                "velocity": 40,
                "duration": 0.0909091,
                "tempo": 120.0
            },
            {
                "start_time": 39.8659091,
                "end_time": 39.9181818,
                "pitch": 80,
                "velocity": 40,
                "duration": 0.0522727,
                "tempo": 120.0
            },
            {
                "start_time": 39.9704545,
                "end_time": 40.5477273,
                "pitch": 80,
                "velocity": 40,
                "duration": 0.5772727,
                "tempo": 120.0
            },
            {
                "start_time": 40.5477273,
                "end_time": 40.6,
                "pitch": 82,
                "velocity": 40,
                "duration": 0.0522727,
                "tempo": 120.0
            },
            {
                "start_time": 40.7431818,
                "end_time": 40.8363636,
                "pitch": 82,
                "velocity": 40,
                "duration": 0.0931818,
                "tempo": 120.0
            },
            {
                "start_time": 40.95,
                "end_time": 41.0409091,
                "pitch": 82,
                "velocity": 40,
                "duration": 0.0909091,
                "tempo": 120.0
            },
            {
                "start_time": 41.1318182,
                "end_time": 41.4136364,
                "pitch": 80,
                "velocity": 40,
                "duration": 0.2818182,
                "tempo": 120.0
            },
            {
                "start_time": 41.5181818,
                "end_time": 41.9090909,
                "pitch": 80,
                "velocity": 40,
                "duration": 0.3909091,
                "tempo": 120.0
            },
            {
                "start_time": 41.9090909,
                "end_time": 41.9977273,
                "pitch": 80,
                "velocity": 40,
                "duration": 0.0886364,
                "tempo": 120.0
            },
            {
                "start_time": 42.1045455,
                "end_time": 42.1340909,
                "pitch": 85,
                "velocity": 40,
                "duration": 0.0295455,
                "tempo": 120.0
            },
            {
                "start_time": 42.2886364,
                "end_time": 42.3522727,
                "pitch": 80,
                "velocity": 40,
                "duration": 0.0636364,
                "tempo": 120.0
            },
            {
                "start_time": 42.4954545,
                "end_time": 42.5545455,
                "pitch": 80,
                "velocity": 40,
                "duration": 0.0590909,
                "tempo": 120.0
            },
            {
                "start_time": 42.6704545,
                "end_time": 42.9477273,
                "pitch": 78,
                "velocity": 40,
                "duration": 0.2772727,
                "tempo": 120.0
            },
            {
                "start_time": 43.0568182,
                "end_time": 43.2886364,
                "pitch": 82,
                "velocity": 40,
                "duration": 0.2318182,
                "tempo": 120.0
            },
            {
                "start_time": 43.4386364,
                "end_time": 43.6204545,
                "pitch": 63,
                "velocity": 40,
                "duration": 0.1818182,
                "tempo": 120.0
            },
            {
                "start_time": 43.6204545,
                "end_time": 43.7181818,
                "pitch": 66,
                "velocity": 40,
                "duration": 0.0977273,
                "tempo": 120.0
            },
            {
                "start_time": 43.7181818,
                "end_time": 43.7954545,
                "pitch": 67,
                "velocity": 40,
                "duration": 0.0772727,
                "tempo": 120.0
            },
            {
                "start_time": 43.8159091,
                "end_time": 43.9136364,
                "pitch": 65,
                "velocity": 40,
                "duration": 0.0977273,
                "tempo": 120.0
            },
            {
                "start_time": 44.2113636,
                "end_time": 44.2954545,
                "pitch": 63,
                "velocity": 40,
                "duration": 0.0840909,
                "tempo": 120.0
            },
            {
                "start_time": 44.2954545,
                "end_time": 44.4,
                "pitch": 63,
                "velocity": 40,
                "duration": 0.1045455,
                "tempo": 120.0
            },
            {
                "start_time": 44.4,
                "end_time": 44.5022727,
                "pitch": 66,
                "velocity": 40,
                "duration": 0.1022727,
                "tempo": 120.0
            },
            {
                "start_time": 44.5022727,
                "end_time": 44.5545455,
                "pitch": 68,
                "velocity": 40,
                "duration": 0.0522727,
                "tempo": 120.0
            },
            {
                "start_time": 44.6068182,
                "end_time": 44.7409091,
                "pitch": 68,
                "velocity": 40,
                "duration": 0.1340909,
                "tempo": 120.0
            },
            {
                "start_time": 44.9886364,
                "end_time": 45.1636364,
                "pitch": 70,
                "velocity": 40,
                "duration": 0.175,
                "tempo": 120.0
            },
            {
                "start_time": 45.1636364,
                "end_time": 45.2545455,
                "pitch": 70,
                "velocity": 40,
                "duration": 0.0909091,
                "tempo": 120.0
            },
            {
                "start_time": 45.2659091,
                "end_time": 45.3590909,
                "pitch": 71,
                "velocity": 40,
                "duration": 0.0931818,
                "tempo": 120.0
            },
            {
                "start_time": 45.3590909,
                "end_time": 45.5136364,
                "pitch": 75,
                "velocity": 40,
                "duration": 0.1545455,
                "tempo": 120.0
            },
            {
                "start_time": 45.7454545,
                "end_time": 45.8454545,
                "pitch": 75,
                "velocity": 40,
                "duration": 0.1,
                "tempo": 120.0
            },
            {
                "start_time": 45.8454545,
                "end_time": 45.9477273,
                "pitch": 75,
                "velocity": 40,
                "duration": 0.1022727,
                "tempo": 120.0
            },
            {
                "start_time": 45.9477273,
                "end_time": 46.0295455,
                "pitch": 78,
                "velocity": 40,
                "duration": 0.0818182,
                "tempo": 120.0
            },
            {
                "start_time": 46.05,
                "end_time": 46.0795455,
                "pitch": 80,
                "velocity": 40,
                "duration": 0.0295455,
                "tempo": 120.0
            },
            {
                "start_time": 46.1318182,
                "end_time": 46.5409091,
                "pitch": 80,
                "velocity": 40,
                "duration": 0.4090909,
                "tempo": 120.0
            },
            {
                "start_time": 46.7318182,
                "end_time": 46.8136364,
                "pitch": 82,
                "velocity": 40,
                "duration": 0.0818182,
                "tempo": 120.0
            },
            {
                "start_time": 46.9159091,
                "end_time": 47.0409091,
                "pitch": 82,
                "velocity": 40,
                "duration": 0.125,
                "tempo": 120.0
            },
            {
                "start_time": 47.1227273,
                "end_time": 47.2204545,
                "pitch": 82,
                "velocity": 40,
                "duration": 0.0977273,
                "tempo": 120.0
            },
            {
                "start_time": 47.2977273,
                "end_time": 47.5863636,
                "pitch": 80,
                "velocity": 40,
                "duration": 0.2886364,
                "tempo": 120.0
            },
            {
                "start_time": 47.6886364,
                "end_time": 48.0659091,
                "pitch": 80,
                "velocity": 40,
                "duration": 0.3772727,
                "tempo": 120.0
            },
            {
                "start_time": 48.0659091,
                "end_time": 48.1613636,
                "pitch": 82,
                "velocity": 40,
                "duration": 0.0954545,
                "tempo": 120.0
            },
            {
                "start_time": 48.2454545,
                "end_time": 48.4522727,
                "pitch": 70,
                "velocity": 40,
                "duration": 0.2068182,
                "tempo": 120.0
            },
            {
                "start_time": 48.4522727,
                "end_time": 48.5863636,
                "pitch": 71,
                "velocity": 40,
                "duration": 0.1340909,
                "tempo": 120.0
            },
            {
                "start_time": 48.6363636,
                "end_time": 48.8386364,
                "pitch": 76,
                "velocity": 40,
                "duration": 0.2022727,
                "tempo": 120.0
            },
            {
                "start_time": 48.8386364,
                "end_time": 49.0204545,
                "pitch": 78,
                "velocity": 40,
                "duration": 0.1818182,
                "tempo": 120.0
            },
            {
                "start_time": 49.0204545,
                "end_time": 49.1954545,
                "pitch": 79,
                "velocity": 40,
                "duration": 0.175,
                "tempo": 120.0
            },
            {
                "start_time": 49.225,
                "end_time": 49.3295455,
                "pitch": 79,
                "velocity": 40,
                "duration": 0.1045455,
                "tempo": 120.0
            },
            {
                "start_time": 49.4204545,
                "end_time": 49.6136364,
                "pitch": 80,
                "velocity": 40,
                "duration": 0.1931818,
                "tempo": 120.0
            },
            {
                "start_time": 49.6136364,
                "end_time": 50.5886364,
                "pitch": 81,
                "velocity": 40,
                "duration": 0.975,
                "tempo": 120.0
            },
            {
                "start_time": 50.5886364,
                "end_time": 50.6977273,
                "pitch": 79,
                "velocity": 40,
                "duration": 0.1090909,
                "tempo": 120.0
            },
            {
                "start_time": 50.9704545,
                "end_time": 51.9363636,
                "pitch": 76,
                "velocity": 40,
                "duration": 0.9659091,
                "tempo": 120.0
            },
            {
                "start_time": 51.9363636,
                "end_time": 52.1363636,
                "pitch": 81,
                "velocity": 40,
                "duration": 0.2,
                "tempo": 120.0
            },
            {
                "start_time": 52.1363636,
                "end_time": 52.2704545,
                "pitch": 81,
                "velocity": 40,
                "duration": 0.1340909,
                "tempo": 120.0
            },
            {
                "start_time": 52.3227273,
                "end_time": 52.4772727,
                "pitch": 82,
                "velocity": 40,
                "duration": 0.1545455,
                "tempo": 120.0
            },
            {
                "start_time": 52.5272727,
                "end_time": 52.7045455,
                "pitch": 83,
                "velocity": 40,
                "duration": 0.1772727,
                "tempo": 120.0
            },
            {
                "start_time": 52.7045455,
                "end_time": 53.6522727,
                "pitch": 84,
                "velocity": 40,
                "duration": 0.9477273,
                "tempo": 120.0
            },
            {
                "start_time": 53.6522727,
                "end_time": 53.7931818,
                "pitch": 82,
                "velocity": 40,
                "duration": 0.1409091,
                "tempo": 120.0
            },
            {
                "start_time": 53.8522727,
                "end_time": 53.9636364,
                "pitch": 84,
                "velocity": 40,
                "duration": 0.1113636,
                "tempo": 120.0
            },
            {
                "start_time": 54.0340909,
                "end_time": 54.2386364,
                "pitch": 86,
                "velocity": 40,
                "duration": 0.2045455,
                "tempo": 120.0
            },
            {
                "start_time": 54.2386364,
                "end_time": 54.3954545,
                "pitch": 86,
                "velocity": 40,
                "duration": 0.1568182,
                "tempo": 120.0
            },
            {
                "start_time": 54.425,
                "end_time": 54.4977273,
                "pitch": 84,
                "velocity": 40,
                "duration": 0.0727273,
                "tempo": 120.0
            },
            {
                "start_time": 54.6318182,
                "end_time": 54.7045455,
                "pitch": 86,
                "velocity": 40,
                "duration": 0.0727273,
                "tempo": 120.0
            },
            {
                "start_time": 54.8181818,
                "end_time": 55.3136364,
                "pitch": 88,
                "velocity": 40,
                "duration": 0.4954545,
                "tempo": 120.0
            }
        ],
        "Electric Guitar (clean)": [
            {
                "start_time": 0.0204545,
                "end_time": 0.0613636,
                "pitch": 36,
                "velocity": 80,
                "duration": 0.0409091,
                "tempo": 120.0
            },
            {
                "start_time": 0.2022727,
                "end_time": 0.2522727,
                "pitch": 48,
                "velocity": 80,
                "duration": 0.05,
                "tempo": 120.0
            },
            {
                "start_time": 0.4022727,
                "end_time": 0.4863636,
                "pitch": 36,
                "velocity": 80,
                "duration": 0.0840909,
                "tempo": 120.0
            },
            {
                "start_time": 0.5886364,
                "end_time": 0.6613636,
                "pitch": 48,
                "velocity": 80,
                "duration": 0.0727273,
                "tempo": 120.0
            },
            {
                "start_time": 0.7954545,
                "end_time": 0.8454545,
                "pitch": 39,
                "velocity": 80,
                "duration": 0.05,
                "tempo": 120.0
            },
            {
                "start_time": 0.9659091,
                "end_time": 1.0272727,
                "pitch": 51,
                "velocity": 80,
                "duration": 0.0613636,
                "tempo": 120.0
            },
            {
                "start_time": 1.1772727,
                "end_time": 1.2477273,
                "pitch": 39,
                "velocity": 80,
                "duration": 0.0704545,
                "tempo": 120.0
            },
            {
                "start_time": 1.3681818,
                "end_time": 1.4181818,
                "pitch": 51,
                "velocity": 80,
                "duration": 0.05,
                "tempo": 120.0
            },
            {
                "start_time": 1.55,
                "end_time": 1.6181818,
                "pitch": 32,
                "velocity": 80,
                "duration": 0.0681818,
                "tempo": 120.0
            },
            {
                "start_time": 1.7454545,
                "end_time": 1.7931818,
                "pitch": 44,
                "velocity": 80,
                "duration": 0.0477273,
                "tempo": 120.0
            },
            {
                "start_time": 1.9204545,
                "end_time": 1.9590909,
                "pitch": 32,
                "velocity": 80,
                "duration": 0.0386364,
                "tempo": 120.0
            },
            {
                "start_time": 2.1113636,
                "end_time": 2.1613636,
                "pitch": 44,
                "velocity": 80,
                "duration": 0.05,
                "tempo": 120.0
            },
            {
                "start_time": 2.3113636,
                "end_time": 2.3636364,
                "pitch": 32,
                "velocity": 80,
                "duration": 0.0522727,
                "tempo": 120.0
            },
            {
                "start_time": 2.5181818,
                "end_time": 2.5704545,
                "pitch": 46,
                "velocity": 80,
                "duration": 0.0522727,
                "tempo": 120.0
            },
            {
                "start_time": 2.7045455,
                "end_time": 2.7545455,
                "pitch": 34,
                "velocity": 80,
                "duration": 0.05,
                "tempo": 120.0
            },
            {
                "start_time": 2.9045455,
                "end_time": 2.9545455,
                "pitch": 46,
                "velocity": 80,
                "duration": 0.05,
                "tempo": 120.0
            },
            {
                "start_time": 3.0863636,
                "end_time": 3.1363636,
                "pitch": 34,
                "velocity": 80,
                "duration": 0.05,
                "tempo": 120.0
            },
            {
                "start_time": 3.2863636,
                "end_time": 3.3272727,
                "pitch": 48,
                "velocity": 80,
                "duration": 0.0409091,
                "tempo": 120.0
            },
            {
                "start_time": 3.4772727,
                "end_time": 3.5409091,
                "pitch": 36,
                "velocity": 80,
                "duration": 0.0636364,
                "tempo": 120.0
            },
            {
                "start_time": 3.6840909,
                "end_time": 3.7363636,
                "pitch": 48,
                "velocity": 80,
                "duration": 0.0522727,
                "tempo": 120.0
            },
            {
                "start_time": 3.8704545,
                "end_time": 3.9204545,
                "pitch": 39,
                "velocity": 80,
                "duration": 0.05,
                "tempo": 120.0
            },
            {
                "start_time": 4.0522727,
                "end_time": 4.1022727,
                "pitch": 51,
                "velocity": 80,
                "duration": 0.05,
                "tempo": 120.0
            },
            {
                "start_time": 4.2522727,
                "end_time": 4.3022727,
                "pitch": 39,
                "velocity": 80,
                "duration": 0.05,
                "tempo": 120.0
            },
            {
                "start_time": 4.4431818,
                "end_time": 4.4931818,
                "pitch": 51,
                "velocity": 80,
                "duration": 0.05,
                "tempo": 120.0
            },
            {
                "start_time": 4.6454545,
                "end_time": 4.6954545,
                "pitch": 32,
                "velocity": 80,
                "duration": 0.05,
                "tempo": 120.0
            },
            {
                "start_time": 4.8295455,
                "end_time": 4.8818182,
                "pitch": 44,
                "velocity": 80,
                "duration": 0.0522727,
                "tempo": 120.0
            },
            {
                "start_time": 5.0363636,
                "end_time": 5.0863636,
                "pitch": 32,
                "velocity": 80,
                "duration": 0.05,
                "tempo": 120.0
            },
            {
                "start_time": 5.2181818,
                "end_time": 5.2681818,
                "pitch": 44,
                "velocity": 80,
                "duration": 0.05,
                "tempo": 120.0
            },
            {
                "start_time": 5.4181818,
                "end_time": 5.4681818,
                "pitch": 32,
                "velocity": 80,
                "duration": 0.05,
                "tempo": 120.0
            },
            {
                "start_time": 5.6090909,
                "end_time": 5.6613636,
                "pitch": 46,
                "velocity": 80,
                "duration": 0.0522727,
                "tempo": 120.0
            },
            {
                "start_time": 5.8113636,
                "end_time": 5.8409091,
                "pitch": 34,
                "velocity": 80,
                "duration": 0.0295455,
                "tempo": 120.0
            },
            {
                "start_time": 5.9977273,
                "end_time": 6.0477273,
                "pitch": 46,
                "velocity": 80,
                "duration": 0.05,
                "tempo": 120.0
            },
            {
                "start_time": 6.2022727,
                "end_time": 6.2318182,
                "pitch": 34,
                "velocity": 80,
                "duration": 0.0295455,
                "tempo": 120.0
            },
            {
                "start_time": 6.3795455,
                "end_time": 6.4272727,
                "pitch": 48,
                "velocity": 80,
                "duration": 0.0477273,
                "tempo": 120.0
            },
            {
                "start_time": 6.5636364,
                "end_time": 6.6636364,
                "pitch": 36,
                "velocity": 80,
                "duration": 0.1,
                "tempo": 120.0
            },
            {
                "start_time": 6.7636364,
                "end_time": 6.8136364,
                "pitch": 48,
                "velocity": 80,
                "duration": 0.05,
                "tempo": 120.0
            },
            {
                "start_time": 6.9454545,
                "end_time": 7.0159091,
                "pitch": 39,
                "velocity": 80,
                "duration": 0.0704545,
                "tempo": 120.0
            },
            {
                "start_time": 7.1454545,
                "end_time": 7.1977273,
                "pitch": 51,
                "velocity": 80,
                "duration": 0.0522727,
                "tempo": 120.0
            },
            {
                "start_time": 7.3272727,
                "end_time": 7.3954545,
                "pitch": 39,
                "velocity": 80,
                "duration": 0.0681818,
                "tempo": 120.0
            },
            {
                "start_time": 7.5227273,
                "end_time": 7.5704545,
                "pitch": 51,
                "velocity": 80,
                "duration": 0.0477273,
                "tempo": 120.0
            },
            {
                "start_time": 7.7068182,
                "end_time": 7.7704545,
                "pitch": 32,
                "velocity": 80,
                "duration": 0.0636364,
                "tempo": 120.0
            },
            {
                "start_time": 7.9136364,
                "end_time": 7.9659091,
                "pitch": 44,
                "velocity": 80,
                "duration": 0.0522727,
                "tempo": 120.0
            },
            {
                "start_time": 8.1,
                "end_time": 8.1522727,
                "pitch": 32,
                "velocity": 80,
                "duration": 0.0522727,
                "tempo": 120.0
            },
            {
                "start_time": 8.3068182,
                "end_time": 8.3568182,
                "pitch": 44,
                "velocity": 80,
                "duration": 0.05,
                "tempo": 120.0
            },
            {
                "start_time": 8.4909091,
                "end_time": 8.5431818,
                "pitch": 32,
                "velocity": 80,
                "duration": 0.0522727,
                "tempo": 120.0
            },
            {
                "start_time": 8.6931818,
                "end_time": 8.7340909,
                "pitch": 46,
                "velocity": 80,
                "duration": 0.0409091,
                "tempo": 120.0
            },
            {
                "start_time": 8.8840909,
                "end_time": 8.9340909,
                "pitch": 34,
                "velocity": 80,
                "duration": 0.05,
                "tempo": 120.0
            },
            {
                "start_time": 9.0659091,
                "end_time": 9.1159091,
                "pitch": 46,
                "velocity": 80,
                "duration": 0.05,
                "tempo": 120.0
            },
            {
                "start_time": 9.2659091,
                "end_time": 9.3181818,
                "pitch": 34,
                "velocity": 80,
                "duration": 0.0522727,
                "tempo": 120.0
            },
            {
                "start_time": 9.4522727,
                "end_time": 9.5045455,
                "pitch": 48,
                "velocity": 80,
                "duration": 0.0522727,
                "tempo": 120.0
            },
            {
                "start_time": 9.6590909,
                "end_time": 9.7272727,
                "pitch": 36,
                "velocity": 80,
                "duration": 0.0681818,
                "tempo": 120.0
            },
            {
                "start_time": 9.8431818,
                "end_time": 9.8931818,
                "pitch": 48,
                "velocity": 80,
                "duration": 0.05,
                "tempo": 120.0
            },
            {
                "start_time": 10.0386364,
                "end_time": 10.0909091,
                "pitch": 39,
                "velocity": 80,
                "duration": 0.0522727,
                "tempo": 120.0
            },
            {
                "start_time": 10.225,
                "end_time": 10.275,
                "pitch": 51,
                "velocity": 80,
                "duration": 0.05,
                "tempo": 120.0
            },
            {
                "start_time": 10.4295455,
                "end_time": 10.4818182,
                "pitch": 39,
                "velocity": 80,
                "duration": 0.0522727,
                "tempo": 120.0
            },
            {
                "start_time": 10.6113636,
                "end_time": 10.6613636,
                "pitch": 51,
                "velocity": 80,
                "duration": 0.05,
                "tempo": 120.0
            },
            {
                "start_time": 10.8227273,
                "end_time": 10.8636364,
                "pitch": 32,
                "velocity": 80,
                "duration": 0.0409091,
                "tempo": 120.0
            },
            {
                "start_time": 11.0090909,
                "end_time": 11.0590909,
                "pitch": 44,
                "velocity": 80,
                "duration": 0.05,
                "tempo": 120.0
            },
            {
                "start_time": 11.2136364,
                "end_time": 11.2454545,
                "pitch": 32,
                "velocity": 80,
                "duration": 0.0318182,
                "tempo": 120.0
            },
            {
                "start_time": 11.3954545,
                "end_time": 11.4159091,
                "pitch": 44,
                "velocity": 80,
                "duration": 0.0204545,
                "tempo": 120.0
            },
            {
                "start_time": 11.5977273,
                "end_time": 11.6477273,
                "pitch": 32,
                "velocity": 80,
                "duration": 0.05,
                "tempo": 120.0
            },
            {
                "start_time": 11.7772727,
                "end_time": 11.8272727,
                "pitch": 46,
                "velocity": 80,
                "duration": 0.05,
                "tempo": 120.0
            },
            {
                "start_time": 11.9681818,
                "end_time": 12.0181818,
                "pitch": 34,
                "velocity": 80,
                "duration": 0.05,
                "tempo": 120.0
            },
            {
                "start_time": 12.1704545,
                "end_time": 12.2204545,
                "pitch": 46,
                "velocity": 80,
                "duration": 0.05,
                "tempo": 120.0
            },
            {
                "start_time": 12.5363636,
                "end_time": 12.5954545,
                "pitch": 46,
                "velocity": 80,
                "duration": 0.0590909,
                "tempo": 120.0
            },
            {
                "start_time": 12.7318182,
                "end_time": 12.825,
                "pitch": 36,
                "velocity": 80,
                "duration": 0.0931818,
                "tempo": 120.0
            },
            {
                "start_time": 12.9272727,
                "end_time": 13.0,
                "pitch": 48,
                "velocity": 80,
                "duration": 0.0727273,
                "tempo": 120.0
            },
            {
                "start_time": 13.1227273,
                "end_time": 13.1840909,
                "pitch": 39,
                "velocity": 80,
                "duration": 0.0613636,
                "tempo": 120.0
            },
            {
                "start_time": 13.325,
                "end_time": 13.375,
                "pitch": 51,
                "velocity": 80,
                "duration": 0.05,
                "tempo": 120.0
            },
            {
                "start_time": 13.5045455,
                "end_time": 13.575,
                "pitch": 39,
                "velocity": 80,
                "duration": 0.0704545,
                "tempo": 120.0
            },
            {
                "start_time": 13.6863636,
                "end_time": 13.7363636,
                "pitch": 51,
                "velocity": 80,
                "duration": 0.05,
                "tempo": 120.0
            },
            {
                "start_time": 13.8977273,
                "end_time": 13.9590909,
                "pitch": 32,
                "velocity": 80,
                "duration": 0.0613636,
                "tempo": 120.0
            },
            {
                "start_time": 14.1045455,
                "end_time": 14.1454545,
                "pitch": 44,
                "velocity": 80,
                "duration": 0.0409091,
                "tempo": 120.0
            },
            {
                "start_time": 14.2886364,
                "end_time": 14.3409091,
                "pitch": 32,
                "velocity": 80,
                "duration": 0.0522727,
                "tempo": 120.0
            },
            {
                "start_time": 14.4704545,
                "end_time": 14.5204545,
                "pitch": 44,
                "velocity": 80,
                "duration": 0.05,
                "tempo": 120.0
            },
            {
                "start_time": 14.6727273,
                "end_time": 14.7227273,
                "pitch": 32,
                "velocity": 80,
                "duration": 0.05,
                "tempo": 120.0
            },
            {
                "start_time": 14.8636364,
                "end_time": 14.9022727,
                "pitch": 46,
                "velocity": 80,
                "duration": 0.0386364,
                "tempo": 120.0
            },
            {
                "start_time": 15.0636364,
                "end_time": 15.1045455,
                "pitch": 34,
                "velocity": 80,
                "duration": 0.0409091,
                "tempo": 120.0
            },
            {
                "start_time": 15.25,
                "end_time": 15.3022727,
                "pitch": 46,
                "velocity": 80,
                "duration": 0.0522727,
                "tempo": 120.0
            },
            {
                "start_time": 15.4568182,
                "end_time": 15.5068182,
                "pitch": 34,
                "velocity": 80,
                "duration": 0.05,
                "tempo": 120.0
            },
            {
                "start_time": 15.6363636,
                "end_time": 15.6863636,
                "pitch": 48,
                "velocity": 80,
                "duration": 0.05,
                "tempo": 120.0
            },
            {
                "start_time": 15.8386364,
                "end_time": 15.9090909,
                "pitch": 36,
                "velocity": 80,
                "duration": 0.0704545,
                "tempo": 120.0
            },
            {
                "start_time": 16.0181818,
                "end_time": 16.0704545,
                "pitch": 48,
                "velocity": 80,
                "duration": 0.0522727,
                "tempo": 120.0
            },
            {
                "start_time": 16.2295455,
                "end_time": 16.2613636,
                "pitch": 39,
                "velocity": 80,
                "duration": 0.0318182,
                "tempo": 120.0
            },
            {
                "start_time": 16.4159091,
                "end_time": 16.4681818,
                "pitch": 51,
                "velocity": 80,
                "duration": 0.0522727,
                "tempo": 120.0
            },
            {
                "start_time": 16.6227273,
                "end_time": 16.6727273,
                "pitch": 39,
                "velocity": 80,
                "duration": 0.05,
                "tempo": 120.0
            },
            {
                "start_time": 16.8045455,
                "end_time": 16.8545455,
                "pitch": 51,
                "velocity": 80,
                "duration": 0.05,
                "tempo": 120.0
            },
            {
                "start_time": 16.9954545,
                "end_time": 17.0340909,
                "pitch": 32,
                "velocity": 80,
                "duration": 0.0386364,
                "tempo": 120.0
            },
            {
                "start_time": 17.1886364,
                "end_time": 17.2272727,
                "pitch": 44,
                "velocity": 80,
                "duration": 0.0386364,
                "tempo": 120.0
            },
            {
                "start_time": 17.3659091,
                "end_time": 17.4159091,
                "pitch": 32,
                "velocity": 80,
                "duration": 0.05,
                "tempo": 120.0
            },
            {
                "start_time": 17.5659091,
                "end_time": 17.6159091,
                "pitch": 44,
                "velocity": 80,
                "duration": 0.05,
                "tempo": 120.0
            },
            {
                "start_time": 17.7477273,
                "end_time": 17.7977273,
                "pitch": 32,
                "velocity": 80,
                "duration": 0.05,
                "tempo": 120.0
            },
            {
                "start_time": 17.9477273,
                "end_time": 17.9977273,
                "pitch": 46,
                "velocity": 80,
                "duration": 0.05,
                "tempo": 120.0
            },
            {
                "start_time": 18.1386364,
                "end_time": 18.1795455,
                "pitch": 34,
                "velocity": 80,
                "duration": 0.0409091,
                "tempo": 120.0
            },
            {
                "start_time": 18.3454545,
                "end_time": 18.3863636,
                "pitch": 46,
                "velocity": 80,
                "duration": 0.0409091,
                "tempo": 120.0
            },
            {
                "start_time": 18.7318182,
                "end_time": 18.7636364,
                "pitch": 46,
                "velocity": 80,
                "duration": 0.0318182,
                "tempo": 120.0
            },
            {
                "start_time": 18.9136364,
                "end_time": 19.0136364,
                "pitch": 36,
                "velocity": 80,
                "duration": 0.1,
                "tempo": 120.0
            },
            {
                "start_time": 19.1136364,
                "end_time": 19.1636364,
                "pitch": 48,
                "velocity": 80,
                "duration": 0.05,
                "tempo": 120.0
            },
            {
                "start_time": 19.3045455,
                "end_time": 19.3681818,
                "pitch": 39,
                "velocity": 80,
                "duration": 0.0636364,
                "tempo": 120.0
            },
            {
                "start_time": 19.4909091,
                "end_time": 19.5431818,
                "pitch": 51,
                "velocity": 80,
                "duration": 0.0522727,
                "tempo": 120.0
            },
            {
                "start_time": 19.6977273,
                "end_time": 19.7590909,
                "pitch": 39,
                "velocity": 80,
                "duration": 0.0613636,
                "tempo": 120.0
            },
            {
                "start_time": 19.8795455,
                "end_time": 19.9295455,
                "pitch": 51,
                "velocity": 80,
                "duration": 0.05,
                "tempo": 120.0
            },
            {
                "start_time": 20.0795455,
                "end_time": 20.15,
                "pitch": 32,
                "velocity": 80,
                "duration": 0.0704545,
                "tempo": 120.0
            },
            {
                "start_time": 20.2613636,
                "end_time": 20.3113636,
                "pitch": 44,
                "velocity": 80,
                "duration": 0.05,
                "tempo": 120.0
            },
            {
                "start_time": 20.4727273,
                "end_time": 20.5136364,
                "pitch": 32,
                "velocity": 80,
                "duration": 0.0409091,
                "tempo": 120.0
            },
            {
                "start_time": 20.6568182,
                "end_time": 20.7090909,
                "pitch": 44,
                "velocity": 80,
                "duration": 0.0522727,
                "tempo": 120.0
            },
            {
                "start_time": 20.8636364,
                "end_time": 20.9136364,
                "pitch": 32,
                "velocity": 80,
                "duration": 0.05,
                "tempo": 120.0
            },
            {
                "start_time": 21.0454545,
                "end_time": 21.0954545,
                "pitch": 46,
                "velocity": 80,
                "duration": 0.05,
                "tempo": 120.0
            },
            {
                "start_time": 21.2454545,
                "end_time": 21.2954545,
                "pitch": 34,
                "velocity": 80,
                "duration": 0.05,
                "tempo": 120.0
            },
            {
                "start_time": 21.4363636,
                "end_time": 21.4772727,
                "pitch": 46,
                "velocity": 80,
                "duration": 0.0409091,
                "tempo": 120.0
            },
            {
                "start_time": 21.6386364,
                "end_time": 21.6681818,
                "pitch": 34,
                "velocity": 80,
                "duration": 0.0295455,
                "tempo": 120.0
            },
            {
                "start_time": 21.825,
                "end_time": 21.875,
                "pitch": 48,
                "velocity": 80,
                "duration": 0.05,
                "tempo": 120.0
            },
            {
                "start_time": 22.0090909,
                "end_time": 22.0772727,
                "pitch": 36,
                "velocity": 80,
                "duration": 0.0681818,
                "tempo": 120.0
            },
            {
                "start_time": 22.2,
                "end_time": 22.2477273,
                "pitch": 48,
                "velocity": 80,
                "duration": 0.0477273,
                "tempo": 120.0
            },
            {
                "start_time": 22.3818182,
                "end_time": 22.4227273,
                "pitch": 39,
                "velocity": 80,
                "duration": 0.0409091,
                "tempo": 120.0
            },
            {
                "start_time": 22.5863636,
                "end_time": 22.6272727,
                "pitch": 51,
                "velocity": 80,
                "duration": 0.0409091,
                "tempo": 120.0
            },
            {
                "start_time": 22.7727273,
                "end_time": 22.8227273,
                "pitch": 39,
                "velocity": 80,
                "duration": 0.05,
                "tempo": 120.0
            },
            {
                "start_time": 22.975,
                "end_time": 23.025,
                "pitch": 51,
                "velocity": 80,
                "duration": 0.05,
                "tempo": 120.0
            },
            {
                "start_time": 23.1545455,
                "end_time": 23.2045455,
                "pitch": 32,
                "velocity": 80,
                "duration": 0.05,
                "tempo": 120.0
            },
            {
                "start_time": 23.3568182,
                "end_time": 23.4068182,
                "pitch": 44,
                "velocity": 80,
                "duration": 0.05,
                "tempo": 120.0
            },
            {
                "start_time": 23.5477273,
                "end_time": 23.5886364,
                "pitch": 32,
                "velocity": 80,
                "duration": 0.0409091,
                "tempo": 120.0
            },
            {
                "start_time": 23.7431818,
                "end_time": 23.7954545,
                "pitch": 44,
                "velocity": 80,
                "duration": 0.0522727,
                "tempo": 120.0
            },
            {
                "start_time": 23.9386364,
                "end_time": 23.9886364,
                "pitch": 32,
                "velocity": 80,
                "duration": 0.05,
                "tempo": 120.0
            },
            {
                "start_time": 24.1409091,
                "end_time": 24.1704545,
                "pitch": 46,
                "velocity": 80,
                "duration": 0.0295455,
                "tempo": 120.0
            },
            {
                "start_time": 24.3204545,
                "end_time": 24.3522727,
                "pitch": 34,
                "velocity": 80,
                "duration": 0.0318182,
                "tempo": 120.0
            },
            {
                "start_time": 24.5022727,
                "end_time": 24.5431818,
                "pitch": 46,
                "velocity": 80,
                "duration": 0.0409091,
                "tempo": 120.0
            },
            {
                "start_time": 24.7136364,
                "end_time": 24.7545455,
                "pitch": 34,
                "velocity": 80,
                "duration": 0.0409091,
                "tempo": 120.0
            },
            {
                "start_time": 24.9,
                "end_time": 24.95,
                "pitch": 48,
                "velocity": 80,
                "duration": 0.05,
                "tempo": 120.0
            },
            {
                "start_time": 25.1045455,
                "end_time": 25.2,
                "pitch": 36,
                "velocity": 80,
                "duration": 0.0954545,
                "tempo": 120.0
            },
            {
                "start_time": 25.275,
                "end_time": 25.3409091,
                "pitch": 48,
                "velocity": 80,
                "duration": 0.0659091,
                "tempo": 120.0
            },
            {
                "start_time": 25.4659091,
                "end_time": 25.5386364,
                "pitch": 39,
                "velocity": 80,
                "duration": 0.0727273,
                "tempo": 120.0
            },
            {
                "start_time": 25.6568182,
                "end_time": 25.7090909,
                "pitch": 51,
                "velocity": 80,
                "duration": 0.0522727,
                "tempo": 120.0
            },
            {
                "start_time": 25.8795455,
                "end_time": 25.9409091,
                "pitch": 39,
                "velocity": 80,
                "duration": 0.0613636,
                "tempo": 120.0
            },
            {
                "start_time": 26.0431818,
                "end_time": 26.1159091,
                "pitch": 51,
                "velocity": 80,
                "duration": 0.0727273,
                "tempo": 120.0
            },
            {
                "start_time": 26.2704545,
                "end_time": 26.3204545,
                "pitch": 32,
                "velocity": 80,
                "duration": 0.05,
                "tempo": 120.0
            },
            {
                "start_time": 26.4522727,
                "end_time": 26.5022727,
                "pitch": 44,
                "velocity": 80,
                "duration": 0.05,
                "tempo": 120.0
            },
            {
                "start_time": 26.6522727,
                "end_time": 26.6840909,
                "pitch": 32,
                "velocity": 80,
                "duration": 0.0318182,
                "tempo": 120.0
            },
            {
                "start_time": 26.8340909,
                "end_time": 26.8840909,
                "pitch": 44,
                "velocity": 80,
                "duration": 0.05,
                "tempo": 120.0
            },
            {
                "start_time": 27.0454545,
                "end_time": 27.0863636,
                "pitch": 32,
                "velocity": 80,
                "duration": 0.0409091,
                "tempo": 120.0
            },
            {
                "start_time": 27.2318182,
                "end_time": 27.2818182,
                "pitch": 46,
                "velocity": 80,
                "duration": 0.05,
                "tempo": 120.0
            },
            {
                "start_time": 27.4159091,
                "end_time": 27.4636364,
                "pitch": 34,
                "velocity": 80,
                "duration": 0.0477273,
                "tempo": 120.0
            },
            {
                "start_time": 27.6068182,
                "end_time": 27.6545455,
                "pitch": 46,
                "velocity": 80,
                "duration": 0.0477273,
                "tempo": 120.0
            },
            {
                "start_time": 27.7863636,
                "end_time": 27.8295455,
                "pitch": 34,
                "velocity": 80,
                "duration": 0.0431818,
                "tempo": 120.0
            },
            {
                "start_time": 27.9931818,
                "end_time": 28.0340909,
                "pitch": 48,
                "velocity": 80,
                "duration": 0.0409091,
                "tempo": 120.0
            },
            {
                "start_time": 28.1795455,
                "end_time": 28.2409091,
                "pitch": 36,
                "velocity": 80,
                "duration": 0.0613636,
                "tempo": 120.0
            },
            {
                "start_time": 28.3795455,
                "end_time": 28.4318182,
                "pitch": 48,
                "velocity": 80,
                "duration": 0.0522727,
                "tempo": 120.0
            },
            {
                "start_time": 28.5613636,
                "end_time": 28.5909091,
                "pitch": 39,
                "velocity": 80,
                "duration": 0.0295455,
                "tempo": 120.0
            },
            {
                "start_time": 28.7431818,
                "end_time": 28.8136364,
                "pitch": 51,
                "velocity": 80,
                "duration": 0.0704545,
                "tempo": 120.0
            },
            {
                "start_time": 28.9545455,
                "end_time": 28.9954545,
                "pitch": 39,
                "velocity": 80,
                "duration": 0.0409091,
                "tempo": 120.0
            },
            {
                "start_time": 29.1613636,
                "end_time": 29.1909091,
                "pitch": 51,
                "velocity": 80,
                "duration": 0.0295455,
                "tempo": 120.0
            },
            {
                "start_time": 29.3454545,
                "end_time": 29.3954545,
                "pitch": 32,
                "velocity": 80,
                "duration": 0.05,
                "tempo": 120.0
            },
            {
                "start_time": 29.5477273,
                "end_time": 29.5977273,
                "pitch": 44,
                "velocity": 80,
                "duration": 0.05,
                "tempo": 120.0
            },
            {
                "start_time": 29.7272727,
                "end_time": 29.7772727,
                "pitch": 32,
                "velocity": 80,
                "duration": 0.05,
                "tempo": 120.0
            },
            {
                "start_time": 29.9181818,
                "end_time": 29.95,
                "pitch": 44,
                "velocity": 80,
                "duration": 0.0318182,
                "tempo": 120.0
            },
            {
                "start_time": 30.1,
                "end_time": 30.15,
                "pitch": 32,
                "velocity": 80,
                "duration": 0.05,
                "tempo": 120.0
            },
            {
                "start_time": 30.3022727,
                "end_time": 30.3522727,
                "pitch": 46,
                "velocity": 80,
                "duration": 0.05,
                "tempo": 120.0
            },
            {
                "start_time": 30.5022727,
                "end_time": 30.5545455,
                "pitch": 34,
                "velocity": 80,
                "duration": 0.0522727,
                "tempo": 120.0
            },
            {
                "start_time": 30.6886364,
                "end_time": 30.7386364,
                "pitch": 46,
                "velocity": 80,
                "duration": 0.05,
                "tempo": 120.0
            },
            {
                "start_time": 30.8954545,
                "end_time": 30.9659091,
                "pitch": 39,
                "velocity": 80,
                "duration": 0.0704545,
                "tempo": 120.0
            },
            {
                "start_time": 31.0863636,
                "end_time": 31.1659091,
                "pitch": 39,
                "velocity": 80,
                "duration": 0.0795455,
                "tempo": 120.0
            },
            {
                "start_time": 31.175,
                "end_time": 31.2659091,
                "pitch": 37,
                "velocity": 80,
                "duration": 0.0909091,
                "tempo": 120.0
            },
            {
                "start_time": 31.2772727,
                "end_time": 31.3477273,
                "pitch": 34,
                "velocity": 80,
                "duration": 0.0704545,
                "tempo": 120.0
            },
            {
                "start_time": 31.4727273,
                "end_time": 31.5340909,
                "pitch": 37,
                "velocity": 80,
                "duration": 0.0613636,
                "tempo": 120.0
            },
            {
                "start_time": 31.6795455,
                "end_time": 31.7090909,
                "pitch": 39,
                "velocity": 80,
                "duration": 0.0295455,
                "tempo": 120.0
            },
            {
                "start_time": 31.8590909,
                "end_time": 31.9090909,
                "pitch": 39,
                "velocity": 80,
                "duration": 0.05,
                "tempo": 120.0
            },
            {
                "start_time": 31.9613636,
                "end_time": 32.0409091,
                "pitch": 37,
                "velocity": 80,
                "duration": 0.0795455,
                "tempo": 120.0
            },
            {
                "start_time": 32.0613636,
                "end_time": 32.1409091,
                "pitch": 34,
                "velocity": 80,
                "duration": 0.0795455,
                "tempo": 120.0
            },
            {
                "start_time": 32.2409091,
                "end_time": 32.3113636,
                "pitch": 37,
                "velocity": 80,
                "duration": 0.0704545,
                "tempo": 120.0
            },
            {
                "start_time": 32.4340909,
                "end_time": 32.4818182,
                "pitch": 39,
                "velocity": 80,
                "duration": 0.0477273,
                "tempo": 120.0
            },
            {
                "start_time": 32.6272727,
                "end_time": 32.6772727,
                "pitch": 39,
                "velocity": 80,
                "duration": 0.05,
                "tempo": 120.0
            },
            {
                "start_time": 32.725,
                "end_time": 32.775,
                "pitch": 37,
                "velocity": 80,
                "duration": 0.05,
                "tempo": 120.0
            },
            {
                "start_time": 32.8022727,
                "end_time": 32.9045455,
                "pitch": 34,
                "velocity": 80,
                "duration": 0.1022727,
                "tempo": 120.0
            },
            {
                "start_time": 33.0045455,
                "end_time": 33.075,
                "pitch": 37,
                "velocity": 80,
                "duration": 0.0704545,
                "tempo": 120.0
            },
            {
                "start_time": 33.1863636,
                "end_time": 33.2068182,
                "pitch": 39,
                "velocity": 80,
                "duration": 0.0204545,
                "tempo": 120.0
            },
            {
                "start_time": 33.3909091,
                "end_time": 33.4636364,
                "pitch": 39,
                "velocity": 80,
                "duration": 0.0727273,
                "tempo": 120.0
            },
            {
                "start_time": 33.5886364,
                "end_time": 33.6386364,
                "pitch": 40,
                "velocity": 80,
                "duration": 0.05,
                "tempo": 120.0
            },
            {
                "start_time": 33.7886364,
                "end_time": 34.0409091,
                "pitch": 42,
                "velocity": 80,
                "duration": 0.2522727,
                "tempo": 120.0
            },
            {
                "start_time": 34.1704545,
                "end_time": 34.2,
                "pitch": 42,
                "velocity": 80,
                "duration": 0.0295455,
                "tempo": 120.0
            },
            {
                "start_time": 34.2522727,
                "end_time": 34.3022727,
                "pitch": 40,
                "velocity": 80,
                "duration": 0.05,
                "tempo": 120.0
            },
            {
                "start_time": 34.3522727,
                "end_time": 34.4545455,
                "pitch": 37,
                "velocity": 80,
                "duration": 0.1022727,
                "tempo": 120.0
            },
            {
                "start_time": 34.5681818,
                "end_time": 34.6,
                "pitch": 40,
                "velocity": 80,
                "duration": 0.0318182,
                "tempo": 120.0
            },
            {
                "start_time": 34.7545455,
                "end_time": 34.7840909,
                "pitch": 42,
                "velocity": 80,
                "duration": 0.0295455,
                "tempo": 120.0
            },
            {
                "start_time": 34.9340909,
                "end_time": 34.9863636,
                "pitch": 42,
                "velocity": 80,
                "duration": 0.0522727,
                "tempo": 120.0
            },
            {
                "start_time": 35.0363636,
                "end_time": 35.1159091,
                "pitch": 40,
                "velocity": 80,
                "duration": 0.0795455,
                "tempo": 120.0
            },
            {
                "start_time": 35.1363636,
                "end_time": 35.2363636,
                "pitch": 37,
                "velocity": 80,
                "duration": 0.1,
                "tempo": 120.0
            },
            {
                "start_time": 35.3272727,
                "end_time": 35.3886364,
                "pitch": 40,
                "velocity": 80,
                "duration": 0.0613636,
                "tempo": 120.0
            },
            {
                "start_time": 35.5272727,
                "end_time": 35.5704545,
                "pitch": 42,
                "velocity": 80,
                "duration": 0.0431818,
                "tempo": 120.0
            },
            {
                "start_time": 35.7136364,
                "end_time": 35.7659091,
                "pitch": 42,
                "velocity": 80,
                "duration": 0.0522727,
                "tempo": 120.0
            },
            {
                "start_time": 35.8181818,
                "end_time": 35.9,
                "pitch": 40,
                "velocity": 80,
                "duration": 0.0818182,
                "tempo": 120.0
            },
            {
                "start_time": 35.9204545,
                "end_time": 36.0204545,
                "pitch": 37,
                "velocity": 80,
                "duration": 0.1,
                "tempo": 120.0
            },
            {
                "start_time": 36.1022727,
                "end_time": 36.1522727,
                "pitch": 40,
                "velocity": 80,
                "duration": 0.05,
                "tempo": 120.0
            },
            {
                "start_time": 36.3022727,
                "end_time": 36.3545455,
                "pitch": 42,
                "velocity": 80,
                "duration": 0.0522727,
                "tempo": 120.0
            },
            {
                "start_time": 36.4977273,
                "end_time": 36.5590909,
                "pitch": 42,
                "velocity": 80,
                "duration": 0.0613636,
                "tempo": 120.0
            },
            {
                "start_time": 36.6954545,
                "end_time": 36.7454545,
                "pitch": 41,
                "velocity": 80,
                "duration": 0.05,
                "tempo": 120.0
            },
            {
                "start_time": 36.8909091,
                "end_time": 37.1772727,
                "pitch": 40,
                "velocity": 80,
                "duration": 0.2863636,
                "tempo": 120.0
            },
            {
                "start_time": 37.2772727,
                "end_time": 37.3590909,
                "pitch": 39,
                "velocity": 80,
                "duration": 0.0818182,
                "tempo": 120.0
            },
            {
                "start_time": 37.3795455,
                "end_time": 37.4590909,
                "pitch": 37,
                "velocity": 80,
                "duration": 0.0795455,
                "tempo": 120.0
            },
            {
                "start_time": 37.4795455,
                "end_time": 37.5477273,
                "pitch": 34,
                "velocity": 80,
                "duration": 0.0681818,
                "tempo": 120.0
            },
            {
                "start_time": 37.6636364,
                "end_time": 37.7227273,
                "pitch": 37,
                "velocity": 80,
                "duration": 0.0590909,
                "tempo": 120.0
            },
            {
                "start_time": 37.8386364,
                "end_time": 37.8886364,
                "pitch": 39,
                "velocity": 80,
                "duration": 0.05,
                "tempo": 120.0
            },
            {
                "start_time": 38.0409091,
                "end_time": 38.0909091,
                "pitch": 39,
                "velocity": 80,
                "duration": 0.05,
                "tempo": 120.0
            },
            {
                "start_time": 38.1409091,
                "end_time": 38.1909091,
                "pitch": 37,
                "velocity": 80,
                "duration": 0.05,
                "tempo": 120.0
            },
            {
                "start_time": 38.2022727,
                "end_time": 38.3,
                "pitch": 34,
                "velocity": 80,
                "duration": 0.0977273,
                "tempo": 120.0
            },
            {
                "start_time": 38.4159091,
                "end_time": 38.4840909,
                "pitch": 37,
                "velocity": 80,
                "duration": 0.0681818,
                "tempo": 120.0
            },
            {
                "start_time": 38.6022727,
                "end_time": 38.6431818,
                "pitch": 39,
                "velocity": 80,
                "duration": 0.0409091,
                "tempo": 120.0
            },
            {
                "start_time": 38.8113636,
                "end_time": 38.8545455,
                "pitch": 39,
                "velocity": 80,
                "duration": 0.0431818,
                "tempo": 120.0
            },
            {
                "start_time": 38.8954545,
                "end_time": 38.9590909,
                "pitch": 37,
                "velocity": 80,
                "duration": 0.0636364,
                "tempo": 120.0
            },
            {
                "start_time": 39.0,
                "end_time": 39.1045455,
                "pitch": 34,
                "velocity": 80,
                "duration": 0.1045455,
                "tempo": 120.0
            },
            {
                "start_time": 39.2068182,
                "end_time": 39.2590909,
                "pitch": 37,
                "velocity": 80,
                "duration": 0.0522727,
                "tempo": 120.0
            },
            {
                "start_time": 39.3931818,
                "end_time": 39.4136364,
                "pitch": 39,
                "velocity": 80,
                "duration": 0.0204545,
                "tempo": 120.0
            },
            {
                "start_time": 39.5886364,
                "end_time": 39.6386364,
                "pitch": 39,
                "velocity": 80,
                "duration": 0.05,
                "tempo": 120.0
            },
            {
                "start_time": 39.775,
                "end_time": 39.8136364,
                "pitch": 40,
                "velocity": 80,
                "duration": 0.0386364,
                "tempo": 120.0
            },
            {
                "start_time": 39.9795455,
                "end_time": 40.225,
                "pitch": 42,
                "velocity": 80,
                "duration": 0.2454545,
                "tempo": 120.0
            },
            {
                "start_time": 40.3477273,
                "end_time": 40.3772727,
                "pitch": 42,
                "velocity": 80,
                "duration": 0.0295455,
                "tempo": 120.0
            },
            {
                "start_time": 40.4477273,
                "end_time": 40.4977273,
                "pitch": 40,
                "velocity": 80,
                "duration": 0.05,
                "tempo": 120.0
            },
            {
                "start_time": 40.5272727,
                "end_time": 40.6295455,
                "pitch": 37,
                "velocity": 80,
                "duration": 0.1022727,
                "tempo": 120.0
            },
            {
                "start_time": 40.7431818,
                "end_time": 40.7840909,
                "pitch": 40,
                "velocity": 80,
                "duration": 0.0409091,
                "tempo": 120.0
            },
            {
                "start_time": 40.95,
                "end_time": 40.9909091,
                "pitch": 42,
                "velocity": 80,
                "duration": 0.0409091,
                "tempo": 120.0
            },
            {
                "start_time": 41.1318182,
                "end_time": 41.1818182,
                "pitch": 42,
                "velocity": 80,
                "duration": 0.05,
                "tempo": 120.0
            },
            {
                "start_time": 41.2318182,
                "end_time": 41.3113636,
                "pitch": 40,
                "velocity": 80,
                "duration": 0.0795455,
                "tempo": 120.0
            },
            {
                "start_time": 41.3318182,
                "end_time": 41.4136364,
                "pitch": 37,
                "velocity": 80,
                "duration": 0.0818182,
                "tempo": 120.0
            },
            {
                "start_time": 41.5181818,
                "end_time": 41.5886364,
                "pitch": 40,
                "velocity": 80,
                "duration": 0.0704545,
                "tempo": 120.0
            },
            {
                "start_time": 41.7227273,
                "end_time": 41.7727273,
                "pitch": 42,
                "velocity": 80,
                "duration": 0.05,
                "tempo": 120.0
            },
            {
                "start_time": 41.9090909,
                "end_time": 41.9477273,
                "pitch": 42,
                "velocity": 80,
                "duration": 0.0386364,
                "tempo": 120.0
            },
            {
                "start_time": 41.9977273,
                "end_time": 42.0840909,
                "pitch": 40,
                "velocity": 80,
                "duration": 0.0863636,
                "tempo": 120.0
            },
            {
                "start_time": 42.1045455,
                "end_time": 42.1863636,
                "pitch": 37,
                "velocity": 80,
                "duration": 0.0818182,
                "tempo": 120.0
            },
            {
                "start_time": 42.2886364,
                "end_time": 42.3409091,
                "pitch": 40,
                "velocity": 80,
                "duration": 0.0522727,
                "tempo": 120.0
            },
            {
                "start_time": 42.4954545,
                "end_time": 42.5454545,
                "pitch": 42,
                "velocity": 80,
                "duration": 0.05,
                "tempo": 120.0
            },
            {
                "start_time": 42.6704545,
                "end_time": 42.7386364,
                "pitch": 42,
                "velocity": 80,
                "duration": 0.0681818,
                "tempo": 120.0
            },
            {
                "start_time": 42.8568182,
                "end_time": 42.9159091,
                "pitch": 41,
                "velocity": 80,
                "duration": 0.0590909,
                "tempo": 120.0
            },
            {
                "start_time": 43.0568182,
                "end_time": 43.3386364,
                "pitch": 40,
                "velocity": 80,
                "duration": 0.2818182,
                "tempo": 120.0
            },
            {
                "start_time": 43.4386364,
                "end_time": 43.5204545,
                "pitch": 39,
                "velocity": 80,
                "duration": 0.0818182,
                "tempo": 120.0
            },
            {
                "start_time": 43.5409091,
                "end_time": 43.5704545,
                "pitch": 37,
                "velocity": 80,
                "duration": 0.0295455,
                "tempo": 120.0
            },
            {
                "start_time": 43.6204545,
                "end_time": 43.7181818,
                "pitch": 34,
                "velocity": 80,
                "duration": 0.0977273,
                "tempo": 120.0
            },
            {
                "start_time": 43.8159091,
                "end_time": 43.8840909,
                "pitch": 37,
                "velocity": 80,
                "duration": 0.0681818,
                "tempo": 120.0
            },
            {
                "start_time": 44.0,
                "end_time": 44.0409091,
                "pitch": 39,
                "velocity": 80,
                "duration": 0.0409091,
                "tempo": 120.0
            },
            {
                "start_time": 44.2113636,
                "end_time": 44.2409091,
                "pitch": 39,
                "velocity": 80,
                "duration": 0.0295455,
                "tempo": 120.0
            },
            {
                "start_time": 44.2954545,
                "end_time": 44.3795455,
                "pitch": 37,
                "velocity": 80,
                "duration": 0.0840909,
                "tempo": 120.0
            },
            {
                "start_time": 44.4,
                "end_time": 44.5022727,
                "pitch": 34,
                "velocity": 80,
                "duration": 0.1022727,
                "tempo": 120.0
            },
            {
                "start_time": 44.6068182,
                "end_time": 44.6590909,
                "pitch": 37,
                "velocity": 80,
                "duration": 0.0522727,
                "tempo": 120.0
            },
            {
                "start_time": 44.7931818,
                "end_time": 44.8409091,
                "pitch": 39,
                "velocity": 80,
                "duration": 0.0477273,
                "tempo": 120.0
            },
            {
                "start_time": 44.9886364,
                "end_time": 45.0159091,
                "pitch": 39,
                "velocity": 80,
                "duration": 0.0272727,
                "tempo": 120.0
            },
            {
                "start_time": 45.075,
                "end_time": 45.1136364,
                "pitch": 37,
                "velocity": 80,
                "duration": 0.0386364,
                "tempo": 120.0
            },
            {
                "start_time": 45.1727273,
                "end_time": 45.2340909,
                "pitch": 34,
                "velocity": 80,
                "duration": 0.0613636,
                "tempo": 120.0
            },
            {
                "start_time": 45.3590909,
                "end_time": 45.4204545,
                "pitch": 37,
                "velocity": 80,
                "duration": 0.0613636,
                "tempo": 120.0
            },
            {
                "start_time": 45.5636364,
                "end_time": 45.6159091,
                "pitch": 39,
                "velocity": 80,
                "duration": 0.0522727,
                "tempo": 120.0
            },
            {
                "start_time": 45.7454545,
                "end_time": 45.7954545,
                "pitch": 39,
                "velocity": 80,
                "duration": 0.05,
                "tempo": 120.0
            },
            {
                "start_time": 45.9477273,
                "end_time": 45.9977273,
                "pitch": 40,
                "velocity": 80,
                "duration": 0.05,
                "tempo": 120.0
            },
            {
                "start_time": 46.1318182,
                "end_time": 46.4090909,
                "pitch": 42,
                "velocity": 80,
                "duration": 0.2772727,
                "tempo": 120.0
            },
            {
                "start_time": 46.5295455,
                "end_time": 46.5795455,
                "pitch": 42,
                "velocity": 80,
                "duration": 0.05,
                "tempo": 120.0
            },
            {
                "start_time": 46.6295455,
                "end_time": 46.6909091,
                "pitch": 40,
                "velocity": 80,
                "duration": 0.0613636,
                "tempo": 120.0
            },
            {
                "start_time": 46.7318182,
                "end_time": 46.8136364,
                "pitch": 37,
                "velocity": 80,
                "duration": 0.0818182,
                "tempo": 120.0
            },
            {
                "start_time": 46.9159091,
                "end_time": 46.9886364,
                "pitch": 40,
                "velocity": 80,
                "duration": 0.0727273,
                "tempo": 120.0
            },
            {
                "start_time": 47.1227273,
                "end_time": 47.1727273,
                "pitch": 42,
                "velocity": 80,
                "duration": 0.05,
                "tempo": 120.0
            },
            {
                "start_time": 47.3090909,
                "end_time": 47.3477273,
                "pitch": 42,
                "velocity": 80,
                "duration": 0.0386364,
                "tempo": 120.0
            },
            {
                "start_time": 47.3954545,
                "end_time": 47.4454545,
                "pitch": 40,
                "velocity": 80,
                "duration": 0.05,
                "tempo": 120.0
            },
            {
                "start_time": 47.4931818,
                "end_time": 47.5022727,
                "pitch": 40,
                "velocity": 80,
                "duration": 0.0090909,
                "tempo": 120.0
            },
            {
                "start_time": 47.5022727,
                "end_time": 47.5636364,
                "pitch": 37,
                "velocity": 80,
                "duration": 0.0613636,
                "tempo": 120.0
            },
            {
                "start_time": 47.6681818,
                "end_time": 47.7409091,
                "pitch": 40,
                "velocity": 80,
                "duration": 0.0727273,
                "tempo": 120.0
            },
            {
                "start_time": 47.875,
                "end_time": 47.9227273,
                "pitch": 42,
                "velocity": 80,
                "duration": 0.0477273,
                "tempo": 120.0
            },
            {
                "start_time": 48.0659091,
                "end_time": 48.1136364,
                "pitch": 42,
                "velocity": 80,
                "duration": 0.0477273,
                "tempo": 120.0
            },
            {
                "start_time": 48.1613636,
                "end_time": 48.2454545,
                "pitch": 40,
                "velocity": 80,
                "duration": 0.0840909,
                "tempo": 120.0
            },
            {
                "start_time": 48.2454545,
                "end_time": 48.3386364,
                "pitch": 37,
                "velocity": 80,
                "duration": 0.0931818,
                "tempo": 120.0
            },
            {
                "start_time": 48.4522727,
                "end_time": 48.5136364,
                "pitch": 40,
                "velocity": 80,
                "duration": 0.0613636,
                "tempo": 120.0
            },
            {
                "start_time": 48.6363636,
                "end_time": 48.6886364,
                "pitch": 42,
                "velocity": 80,
                "duration": 0.0522727,
                "tempo": 120.0
            },
            {
                "start_time": 48.8386364,
                "end_time": 48.9,
                "pitch": 43,
                "velocity": 80,
                "duration": 0.0613636,
                "tempo": 120.0
            },
            {
                "start_time": 49.0204545,
                "end_time": 49.0704545,
                "pitch": 43,
                "velocity": 80,
                "duration": 0.05,
                "tempo": 120.0
            },
            {
                "start_time": 49.225,
                "end_time": 49.4818182,
                "pitch": 44,
                "velocity": 80,
                "duration": 0.2568182,
                "tempo": 120.0
            },
            {
                "start_time": 49.6136364,
                "end_time": 49.7022727,
                "pitch": 45,
                "velocity": 80,
                "duration": 0.0886364,
                "tempo": 120.0
            },
            {
                "start_time": 49.7022727,
                "end_time": 49.8045455,
                "pitch": 43,
                "velocity": 80,
                "duration": 0.1022727,
                "tempo": 120.0
            },
            {
                "start_time": 49.8045455,
                "end_time": 49.9590909,
                "pitch": 40,
                "velocity": 80,
                "duration": 0.1545455,
                "tempo": 120.0
            },
            {
                "start_time": 50.0090909,
                "end_time": 50.1431818,
                "pitch": 43,
                "velocity": 80,
                "duration": 0.1340909,
                "tempo": 120.0
            },
            {
                "start_time": 50.1954545,
                "end_time": 50.3159091,
                "pitch": 45,
                "velocity": 80,
                "duration": 0.1204545,
                "tempo": 120.0
            },
            {
                "start_time": 50.3977273,
                "end_time": 50.4772727,
                "pitch": 45,
                "velocity": 80,
                "duration": 0.0795455,
                "tempo": 120.0
            },
            {
                "start_time": 50.4772727,
                "end_time": 50.5886364,
                "pitch": 43,
                "velocity": 80,
                "duration": 0.1113636,
                "tempo": 120.0
            },
            {
                "start_time": 50.5886364,
                "end_time": 50.6977273,
                "pitch": 40,
                "velocity": 80,
                "duration": 0.1090909,
                "tempo": 120.0
            },
            {
                "start_time": 50.7681818,
                "end_time": 50.8795455,
                "pitch": 43,
                "velocity": 80,
                "duration": 0.1113636,
                "tempo": 120.0
            },
            {
                "start_time": 50.9704545,
                "end_time": 51.0704545,
                "pitch": 45,
                "velocity": 80,
                "duration": 0.1,
                "tempo": 120.0
            },
            {
                "start_time": 51.1522727,
                "end_time": 51.2522727,
                "pitch": 45,
                "velocity": 80,
                "duration": 0.1,
                "tempo": 120.0
            },
            {
                "start_time": 51.2522727,
                "end_time": 51.3522727,
                "pitch": 43,
                "velocity": 80,
                "duration": 0.1,
                "tempo": 120.0
            },
            {
                "start_time": 51.3522727,
                "end_time": 51.4863636,
                "pitch": 40,
                "velocity": 80,
                "duration": 0.1340909,
                "tempo": 120.0
            },
            {
                "start_time": 51.5386364,
                "end_time": 51.6931818,
                "pitch": 43,
                "velocity": 80,
                "duration": 0.1545455,
                "tempo": 120.0
            },
            {
                "start_time": 51.7545455,
                "end_time": 51.8159091,
                "pitch": 45,
                "velocity": 80,
                "duration": 0.0613636,
                "tempo": 120.0
            },
            {
                "start_time": 51.9363636,
                "end_time": 52.0363636,
                "pitch": 45,
                "velocity": 80,
                "duration": 0.1,
                "tempo": 120.0
            },
            {
                "start_time": 52.1363636,
                "end_time": 52.2181818,
                "pitch": 46,
                "velocity": 80,
                "duration": 0.0818182,
                "tempo": 120.0
            },
            {
                "start_time": 52.3227273,
                "end_time": 52.6545455,
                "pitch": 35,
                "velocity": 80,
                "duration": 0.3318182,
                "tempo": 120.0
            },
            {
                "start_time": 52.7045455,
                "end_time": 52.9090909,
                "pitch": 36,
                "velocity": 80,
                "duration": 0.2045455,
                "tempo": 120.0
            },
            {
                "start_time": 52.9090909,
                "end_time": 53.0204545,
                "pitch": 31,
                "velocity": 80,
                "duration": 0.1113636,
                "tempo": 120.0
            },
            {
                "start_time": 53.0909091,
                "end_time": 53.2,
                "pitch": 34,
                "velocity": 80,
                "duration": 0.1090909,
                "tempo": 120.0
            },
            {
                "start_time": 53.2704545,
                "end_time": 53.3681818,
                "pitch": 34,
                "velocity": 80,
                "duration": 0.0977273,
                "tempo": 120.0
            },
            {
                "start_time": 53.4659091,
                "end_time": 53.5431818,
                "pitch": 36,
                "velocity": 80,
                "duration": 0.0772727,
                "tempo": 120.0
            },
            {
                "start_time": 53.5636364,
                "end_time": 53.6522727,
                "pitch": 36,
                "velocity": 80,
                "duration": 0.0886364,
                "tempo": 120.0
            },
            {
                "start_time": 53.6522727,
                "end_time": 53.8113636,
                "pitch": 31,
                "velocity": 80,
                "duration": 0.1590909,
                "tempo": 120.0
            },
            {
                "start_time": 53.8522727,
                "end_time": 53.9636364,
                "pitch": 34,
                "velocity": 80,
                "duration": 0.1113636,
                "tempo": 120.0
            },
            {
                "start_time": 54.0340909,
                "end_time": 54.1363636,
                "pitch": 38,
                "velocity": 80,
                "duration": 0.1022727,
                "tempo": 120.0
            },
            {
                "start_time": 54.2386364,
                "end_time": 54.3227273,
                "pitch": 38,
                "velocity": 80,
                "duration": 0.0840909,
                "tempo": 120.0
            },
            {
                "start_time": 54.3227273,
                "end_time": 54.425,
                "pitch": 36,
                "velocity": 80,
                "duration": 0.1022727,
                "tempo": 120.0
            },
            {
                "start_time": 54.425,
                "end_time": 54.6,
                "pitch": 33,
                "velocity": 80,
                "duration": 0.175,
                "tempo": 120.0
            },
            {
                "start_time": 54.6318182,
                "end_time": 54.7659091,
                "pitch": 36,
                "velocity": 80,
                "duration": 0.1340909,
                "tempo": 120.0
            },
            {
                "start_time": 54.8272727,
                "end_time": 54.9181818,
                "pitch": 40,
                "velocity": 80,
                "duration": 0.0909091,
                "tempo": 120.0
            },
            {
                "start_time": 55.0181818,
                "end_time": 55.1090909,
                "pitch": 40,
                "velocity": 80,
                "duration": 0.0909091,
                "tempo": 120.0
            },
            {
                "start_time": 55.1090909,
                "end_time": 55.2090909,
                "pitch": 38,
                "velocity": 80,
                "duration": 0.1,
                "tempo": 120.0
            },
            {
                "start_time": 55.2090909,
                "end_time": 55.4159091,
                "pitch": 35,
                "velocity": 80,
                "duration": 0.2068182,
                "tempo": 120.0
            },
            {
                "start_time": 55.6022727,
                "end_time": 55.65,
                "pitch": 35,
                "velocity": 80,
                "duration": 0.0477273,
                "tempo": 120.0
            },
            {
                "start_time": 55.7772727,
                "end_time": 55.8272727,
                "pitch": 48,
                "velocity": 80,
                "duration": 0.05,
                "tempo": 120.0
            },
            {
                "start_time": 55.9727273,
                "end_time": 56.0727273,
                "pitch": 36,
                "velocity": 80,
                "duration": 0.1,
                "tempo": 120.0
            },
            {
                "start_time": 56.1636364,
                "end_time": 56.2227273,
                "pitch": 48,
                "velocity": 80,
                "duration": 0.0590909,
                "tempo": 120.0
            },
            {
                "start_time": 56.3636364,
                "end_time": 56.425,
                "pitch": 39,
                "velocity": 80,
                "duration": 0.0613636,
                "tempo": 120.0
            },
            {
                "start_time": 56.5295455,
                "end_time": 56.6022727,
                "pitch": 51,
                "velocity": 80,
                "duration": 0.0727273,
                "tempo": 120.0
            },
            {
                "start_time": 56.7568182,
                "end_time": 56.8272727,
                "pitch": 39,
                "velocity": 80,
                "duration": 0.0704545,
                "tempo": 120.0
            },
            {
                "start_time": 56.9386364,
                "end_time": 56.9886364,
                "pitch": 51,
                "velocity": 80,
                "duration": 0.05,
                "tempo": 120.0
            },
            {
                "start_time": 57.1386364,
                "end_time": 57.2090909,
                "pitch": 32,
                "velocity": 80,
                "duration": 0.0704545,
                "tempo": 120.0
            },
            {
                "start_time": 57.3295455,
                "end_time": 57.3795455,
                "pitch": 44,
                "velocity": 80,
                "duration": 0.05,
                "tempo": 120.0
            },
            {
                "start_time": 57.5318182,
                "end_time": 57.5613636,
                "pitch": 32,
                "velocity": 80,
                "duration": 0.0295455,
                "tempo": 120.0
            },
            {
                "start_time": 57.6954545,
                "end_time": 57.7477273,
                "pitch": 44,
                "velocity": 80,
                "duration": 0.0522727,
                "tempo": 120.0
            },
            {
                "start_time": 57.9227273,
                "end_time": 57.9522727,
                "pitch": 32,
                "velocity": 80,
                "duration": 0.0295455,
                "tempo": 120.0
            },
            {
                "start_time": 58.0977273,
                "end_time": 58.1477273,
                "pitch": 46,
                "velocity": 80,
                "duration": 0.05,
                "tempo": 120.0
            },
            {
                "start_time": 58.2840909,
                "end_time": 58.3340909,
                "pitch": 34,
                "velocity": 80,
                "duration": 0.05,
                "tempo": 120.0
            },
            {
                "start_time": 58.4840909,
                "end_time": 58.5340909,
                "pitch": 46,
                "velocity": 80,
                "duration": 0.05,
                "tempo": 120.0
            },
            {
                "start_time": 58.6659091,
                "end_time": 58.7159091,
                "pitch": 34,
                "velocity": 80,
                "duration": 0.05,
                "tempo": 120.0
            },
            {
                "start_time": 58.8659091,
                "end_time": 58.9159091,
                "pitch": 48,
                "velocity": 80,
                "duration": 0.05,
                "tempo": 120.0
            },
            {
                "start_time": 59.0477273,
                "end_time": 59.1181818,
                "pitch": 36,
                "velocity": 80,
                "duration": 0.0704545,
                "tempo": 120.0
            },
            {
                "start_time": 59.2477273,
                "end_time": 59.2977273,
                "pitch": 48,
                "velocity": 80,
                "duration": 0.05,
                "tempo": 120.0
            },
            {
                "start_time": 59.4386364,
                "end_time": 59.4909091,
                "pitch": 39,
                "velocity": 80,
                "duration": 0.0522727,
                "tempo": 120.0
            },
            {
                "start_time": 59.6454545,
                "end_time": 59.6977273,
                "pitch": 51,
                "velocity": 80,
                "duration": 0.0522727,
                "tempo": 120.0
            },
            {
                "start_time": 59.8318182,
                "end_time": 59.8818182,
                "pitch": 39,
                "velocity": 80,
                "duration": 0.05,
                "tempo": 120.0
            },
            {
                "start_time": 60.0318182,
                "end_time": 60.0818182,
                "pitch": 51,
                "velocity": 80,
                "duration": 0.05,
                "tempo": 120.0
            },
            {
                "start_time": 60.2136364,
                "end_time": 60.2636364,
                "pitch": 32,
                "velocity": 80,
                "duration": 0.05,
                "tempo": 120.0
            },
            {
                "start_time": 60.4136364,
                "end_time": 60.4545455,
                "pitch": 44,
                "velocity": 80,
                "duration": 0.0409091,
                "tempo": 120.0
            },
            {
                "start_time": 60.6068182,
                "end_time": 60.6568182,
                "pitch": 32,
                "velocity": 80,
                "duration": 0.05,
                "tempo": 120.0
            },
            {
                "start_time": 60.7863636,
                "end_time": 60.8363636,
                "pitch": 44,
                "velocity": 80,
                "duration": 0.05,
                "tempo": 120.0
            },
            {
                "start_time": 60.9886364,
                "end_time": 61.0386364,
                "pitch": 32,
                "velocity": 80,
                "duration": 0.05,
                "tempo": 120.0
            }
        ]
    }
}