{
    "mood": "angry",
    "instruments": {
        "Acoustic Bass": [
            {
                "start_time": 0.0363636,
                "end_time": 0.2340909,
                "pitch": 33,
                "velocity": 80,
                "duration": 0.1977273,
                "tempo": 120.0
            },
            {
                "start_time": 0.2340909,
                "end_time": 0.4340909,
                "pitch": 33,
                "velocity": 80,
                "duration": 0.2,
                "tempo": 120.0
            },
            {
                "start_time": 0.4340909,
                "end_time": 0.6340909,
                "pitch": 33,
                "velocity": 80,
                "duration": 0.2,
                "tempo": 120.0
            },
            {
                "start_time": 0.6340909,
                "end_time": 0.8340909,
                "pitch": 33,
                "velocity": 80,
                "duration": 0.2,
                "tempo": 120.0
            },
            {
                "start_time": 0.8340909,
                "end_time": 1.0340909,
                "pitch": 33,
                "velocity": 80,
                "duration": 0.2,
                "tempo": 120.0
            },
            {
                "start_time": 1.0340909,
                "end_time": 1.2363636,
                "pitch": 33,
                "velocity": 80,
                "duration": 0.2022727,
                "tempo": 120.0
            },
            {
                "start_time": 1.2363636,
                "end_time": 1.4340909,
                "pitch": 33,
                "velocity": 80,
                "duration": 0.1977273,
                "tempo": 120.0
            },
            {
                "start_time": 1.4363636,
                "end_time": 1.6340909,
                "pitch": 33,
                "velocity": 80,
                "duration": 0.1977273,
                "tempo": 120.0
            },
            {
                "start_time": 1.6363636,
                "end_time": 1.8363636,
                "pitch": 33,
                "velocity": 80,
                "duration": 0.2,
                "tempo": 120.0
            },
            {
                "start_time": 1.8363636,
                "end_time": 2.0363636,
                "pitch": 33,
                "velocity": 80,
                "duration": 0.2,
                "tempo": 120.0
            },
            {
                "start_time": 2.0363636,
                "end_time": 2.2363636,
                "pitch": 33,
                "velocity": 80,
                "duration": 0.2,
                "tempo": 120.0
            },
            {
                "start_time": 2.2363636,
                "end_time": 2.4363636,
                "pitch": 33,
                "velocity": 80,
                "duration": 0.2,
                "tempo": 120.0
            },
            {
                "start_time": 2.4386364,
                "end_time": 2.6386364,
                "pitch": 31,
                "velocity": 80,
                "duration": 0.2,
                "tempo": 120.0
            },
            {
                "start_time": 2.6386364,
                "end_time": 2.8386364,
                "pitch": 31,
                "velocity": 80,
                "duration": 0.2,
                "tempo": 120.0
            },
            {
                "start_time": 2.8409091,
                "end_time": 3.0386364,
                "pitch": 31,
                "velocity": 80,
                "duration": 0.1977273,
                "tempo": 120.0
            },
            {
                "start_time": 3.0409091,
                "end_time": 3.2409091,
                "pitch": 31,
                "velocity": 80,
                "duration": 0.2,
                "tempo": 120.0
            },
            {
                "start_time": 3.2409091,
                "end_time": 3.4454545,
                "pitch": 31,
                "velocity": 80,
                "duration": 0.2045455,
                "tempo": 120.0
            },
            {
                "start_time": 3.4477273,
                "end_time": 3.6522727,
                "pitch": 31,
                "velocity": 80,
                "duration": 0.2045455,
                "tempo": 120.0
            },
            {
                "start_time": 3.6522727,
                "end_time": 3.8477273,
                "pitch": 31,
                "velocity": 80,
                "duration": 0.1954545,
                "tempo": 120.0
            },
            {
                "start_time": 3.8477273,
                "end_time": 4.0431818,
                "pitch": 31,
                "velocity": 80,
                "duration": 0.1954545,
                "tempo": 120.0
            },
            {
                "start_time": 4.0454545,
                "end_time": 4.2454545,
                "pitch": 31,
                "velocity": 80,
                "duration": 0.2,
                "tempo": 120.0
            },
            {
                "start_time": 4.2454545,
                "end_time": 4.4477273,
                "pitch": 31,
                "velocity": 80,
                "duration": 0.2022727,
                "tempo": 120.0
            },
            {
                "start_time": 4.4477273,
                "end_time": 4.6522727,
                "pitch": 31,
                "velocity": 80,
                "duration": 0.2045455,
                "tempo": 120.0
            },
            {
                "start_time": 4.6545455,
                "end_time": 4.8590909,
                "pitch": 31,
                "velocity": 80,
                "duration": 0.2045455,
                "tempo": 120.0
            },
            {
                "start_time": 4.8590909,
                "end_time": 5.0590909,
                "pitch": 29,
                "velocity": 80,
                "duration": 0.2,
                "tempo": 120.0
            },
            {
                "start_time": 5.0590909,
                "end_time": 5.2590909,
                "pitch": 29,
                "velocity": 80,
                "duration": 0.2,
                "tempo": 120.0
            },
            {
                "start_time": 5.2590909,
                "end_time": 5.4545455,
                "pitch": 29,
                "velocity": 80,
                "duration": 0.1954545,
                "tempo": 120.0
            },
            {
                "start_time": 5.4568182,
                "end_time": 5.6522727,
                "pitch": 29,
                "velocity": 80,
                "duration": 0.1954545,
                "tempo": 120.0
            },
            {
                "start_time": 5.6522727,
                "end_time": 5.8568182,
                "pitch": 29,
                "velocity": 80,
                "duration": 0.2045455,
                "tempo": 120.0
            },
            {
                "start_time": 5.8590909,
                "end_time": 6.0636364,
                "pitch": 29,
                "velocity": 80,
                "duration": 0.2045455,
                "tempo": 120.0
            },
            {
                "start_time": 6.0636364,
                "end_time": 6.2636364,
                "pitch": 29,
                "velocity": 80,
                "duration": 0.2,
                "tempo": 120.0
            },
            {
                "start_time": 6.2659091,
                "end_time": 6.4659091,
                "pitch": 29,
                "velocity": 80,
                "duration": 0.2,
                "tempo": 120.0
            },
            {
                "start_time": 6.4659091,
                "end_time": 6.6681818,
                "pitch": 29,
                "velocity": 80,
                "duration": 0.2022727,
                "tempo": 120.0
            },
            {
                "start_time": 6.6681818,
                "end_time": 6.8681818,
                "pitch": 29,
                "velocity": 80,
                "duration": 0.2,
                "tempo": 120.0
            },
            {
                "start_time": 6.8704545,
                "end_time": 7.0704545,
                "pitch": 29,
                "velocity": 80,
                "duration": 0.2,
                "tempo": 120.0
            },
            {
                "start_time": 7.0704545,
                "end_time": 7.2704545,
                "pitch": 29,
                "velocity": 80,
                "duration": 0.2,
                "tempo": 120.0
            },
            {
                "start_time": 7.2704545,
                "end_time": 7.4704545,
                "pitch": 28,
                "velocity": 80,
                "duration": 0.2,
                "tempo": 120.0
            },
            {
                "start_time": 7.4727273,
                "end_time": 7.6727273,
                "pitch": 28,
                "velocity": 80,
                "duration": 0.2,
                "tempo": 120.0
            },
            {
                "start_time": 7.6727273,
                "end_time": 7.8727273,
                "pitch": 28,
                "velocity": 80,
                "duration": 0.2,
                "tempo": 120.0
            },
            {
                "start_time": 7.875,
                "end_time": 8.0727273,
                "pitch": 28,
                "velocity": 80,
                "duration": 0.1977273,
                "tempo": 120.0
            },
            {
                "start_time": 8.075,
                "end_time": 8.275,
                "pitch": 28,
                "velocity": 80,
                "duration": 0.2,
                "tempo": 120.0
            },
            {
                "start_time": 8.275,
                "end_time": 8.475,
                "pitch": 28,
                "velocity": 80,
                "duration": 0.2,
                "tempo": 120.0
            },
            {
                "start_time": 8.475,
                "end_time": 8.675,
                "pitch": 28,
                "velocity": 80,
                "duration": 0.2,
                "tempo": 120.0
            },
            {
                "start_time": 8.6772727,
                "end_time": 8.8772727,
                "pitch": 28,
                "velocity": 80,
                "duration": 0.2,
                "tempo": 120.0
            },
            {
                "start_time": 8.8772727,
                "end_time": 9.0795455,
                "pitch": 28,
                "velocity": 80,
                "duration": 0.2022727,
                "tempo": 120.0
            },
            {
                "start_time": 9.0795455,
                "end_time": 9.2818182,
                "pitch": 28,
                "velocity": 80,
                "duration": 0.2022727,
                "tempo": 120.0
            },
            {
                "start_time": 9.2818182,
                "end_time": 9.4818182,
                "pitch": 28,
                "velocity": 80,
                "duration": 0.2,
                "tempo": 120.0
            },
            {
                "start_time": 9.4840909,
                "end_time": 9.6840909,
                "pitch": 28,
                "velocity": 80,
                "duration": 0.2,
                "tempo": 120.0
            },
            {
                "start_time": 9.6863636,
                "end_time": 9.8840909,
                "pitch": 33,
                "velocity": 80,
                "duration": 0.1977273,
                "tempo": 120.0
            },
            {
                "start_time": 9.8863636,
                "end_time": 10.0863636,
                "pitch": 33,
                "velocity": 80,
                "duration": 0.2,
                "tempo": 120.0
            },
            {
                "start_time": 10.0886364,
                "end_time": 10.2863636,
                "pitch": 33,
                "velocity": 80,
                "duration": 0.1977273,
                "tempo": 120.0
            },
            {
                "start_time": 10.2886364,
                "end_time": 10.4863636,
                "pitch": 33,
                "velocity": 80,
                "duration": 0.1977273,
                "tempo": 120.0
            },
            {
                "start_time": 10.4886364,
                "end_time": 10.6886364,
                "pitch": 33,
                "velocity": 80,
                "duration": 0.2,
                "tempo": 120.0
            },
            {
                "start_time": 10.6909091,
                "end_time": 10.8909091,
                "pitch": 33,
                "velocity": 80,
                "duration": 0.2,
                "tempo": 120.0
            },
            {
                "start_time": 10.8931818,
                "end_time": 11.0931818,
                "pitch": 33,
                "velocity": 80,
                "duration": 0.2,
                "tempo": 120.0
            },
            {
                "start_time": 11.0931818,
                "end_time": 11.2931818,
                "pitch": 33,
                "velocity": 80,
                "duration": 0.2,
                "tempo": 120.0
            },
            {
                "start_time": 11.2954545,
                "end_time": 11.4954545,
                "pitch": 33,
                "velocity": 80,
                "duration": 0.2,
                "tempo": 120.0
            },
            {
                "start_time": 11.4954545,
                "end_time": 11.6977273,
                "pitch": 33,
                "velocity": 80,
                "duration": 0.2022727,
                "tempo": 120.0
            },
            {
                "start_time": 11.6977273,
                "end_time": 11.8977273,
                "pitch": 33,
                "velocity": 80,
                "duration": 0.2,
                "tempo": 120.0
            },
            {
                "start_time": 11.9,
                "end_time": 12.1,
                "pitch": 33,
                "velocity": 80,
                "duration": 0.2,
                "tempo": 120.0
            },
            {
                "start_time": 12.1022727,
                "end_time": 12.3068182,
                "pitch": 31,
                "velocity": 80,
                "duration": 0.2045455,
                "tempo": 120.0
            },
            {
                "start_time": 12.3068182,
                "end_time": 12.5113636,
                "pitch": 31,
                "velocity": 80,
                "duration": 0.2045455,
                "tempo": 120.0
            },
            {
                "start_time": 12.5113636,
                "end_time": 12.7113636,
                "pitch": 31,
                "velocity": 80,
                "duration": 0.2,
                "tempo": 120.0
            },
            {
                "start_time": 12.7136364,
                "end_time": 12.9113636,
                "pitch": 31,
                "velocity": 80,
                "duration": 0.1977273,
                "tempo": 120.0
            },
            {
                "start_time": 12.9136364,
                "end_time": 13.1136364,
                "pitch": 31,
                "velocity": 80,
                "duration": 0.2,
                "tempo": 120.0
            },
            {
                "start_time": 13.1159091,
                "end_time": 13.3159091,
                "pitch": 31,
                "velocity": 80,
                "duration": 0.2,
                "tempo": 120.0
            },
            {
                "start_time": 13.3159091,
                "end_time": 13.5159091,
                "pitch": 31,
                "velocity": 80,
                "duration": 0.2,
                "tempo": 120.0
            },
            {
                "start_time": 13.5181818,
                "end_time": 13.7181818,
                "pitch": 31,
                "velocity": 80,
                "duration": 0.2,
                "tempo": 120.0
            },
            {
                "start_time": 13.7204545,
                "end_time": 13.9204545,
                "pitch": 31,
                "velocity": 80,
                "duration": 0.2,
                "tempo": 120.0
            },
            {
                "start_time": 13.9204545,
                "end_time": 14.1227273,
                "pitch": 31,
                "velocity": 80,
                "duration": 0.2022727,
                "tempo": 120.0
            },
            {
                "start_time": 14.1227273,
                "end_time": 14.325,
                "pitch": 31,
                "velocity": 80,
                "duration": 0.2022727,
                "tempo": 120.0
            },
            {
                "start_time": 14.325,
                "end_time": 14.525,
                "pitch": 31,
                "velocity": 80,
                "duration": 0.2,
                "tempo": 120.0
            },
            {
                "start_time": 14.5272727,
                "end_time": 14.725,
                "pitch": 29,
                "velocity": 80,
                "duration": 0.1977273,
                "tempo": 120.0
            },
            {
                "start_time": 14.725,
                "end_time": 14.925,
                "pitch": 29,
                "velocity": 80,
                "duration": 0.2,
                "tempo": 120.0
            },
            {
                "start_time": 14.9272727,
                "end_time": 15.1272727,
                "pitch": 29,
                "velocity": 80,
                "duration": 0.2,
                "tempo": 120.0
            },
            {
                "start_time": 15.1272727,
                "end_time": 15.3295455,
                "pitch": 29,
                "velocity": 80,
                "duration": 0.2022727,
                "tempo": 120.0
            },
            {
                "start_time": 15.3295455,
                "end_time": 15.5295455,
                "pitch": 29,
                "velocity": 80,
                "duration": 0.2,
                "tempo": 120.0
            },
            {
                "start_time": 15.5318182,
                "end_time": 15.7318182,
                "pitch": 29,
                "velocity": 80,
                "duration": 0.2,
                "tempo": 120.0
            },
            {
                "start_time": 15.7340909,
                "end_time": 15.9340909,
                "pitch": 29,
                "velocity": 80,
                "duration": 0.2,
                "tempo": 120.0
            },
            {
                "start_time": 15.9340909,
                "end_time": 16.1340909,
                "pitch": 29,
                "velocity": 80,
                "duration": 0.2,
                "tempo": 120.0
            },
            {
                "start_time": 16.1363636,
                "end_time": 16.3363636,
                "pitch": 29,
                "velocity": 80,
                "duration": 0.2,
                "tempo": 120.0
            },
            {
                "start_time": 16.3386364,
                "end_time": 16.5386364,
                "pitch": 29,
                "velocity": 80,
                "duration": 0.2,
                "tempo": 120.0
            },
            {
                "start_time": 16.5386364,
                "end_time": 16.7386364,
                "pitch": 29,
                "velocity": 80,
                "duration": 0.2,
                "tempo": 120.0
            },
            {
                "start_time": 16.7386364,
                "end_time": 16.9386364,
                "pitch": 29,
                "velocity": 80,
                "duration": 0.2,
                "tempo": 120.0
            },
            {
                "start_time": 16.9409091,
                "end_time": 17.1409091,
                "pitch": 28,
                "velocity": 80,
                "duration": 0.2,
                "tempo": 120.0
            },
            {
                "start_time": 17.1409091,
                "end_time": 17.3409091,
                "pitch": 28,
                "velocity": 80,
                "duration": 0.2,
                "tempo": 120.0
            },
            {
                "start_time": 17.3431818,
                "end_time": 17.5431818,
                "pitch": 28,
                "velocity": 80,
                "duration": 0.2,
                "tempo": 120.0
            },
            {
                "start_time": 17.5431818,
                "end_time": 17.7431818,
                "pitch": 28,
                "velocity": 80,
                "duration": 0.2,
                "tempo": 120.0
            },
            {
                "start_time": 17.7431818,
                "end_time": 17.9431818,
                "pitch": 28,
                "velocity": 80,
                "duration": 0.2,
                "tempo": 120.0
            },
            {
                "start_time": 17.9431818,
                "end_time": 18.1431818,
                "pitch": 28,
                "velocity": 80,
                "duration": 0.2,
                "tempo": 120.0
            },
            {
                "start_time": 18.1431818,
                "end_time": 18.3454545,
                "pitch": 28,
                "velocity": 80,
                "duration": 0.2022727,
                "tempo": 120.0
            },
            {
                "start_time": 18.3454545,
                "end_time": 18.5454545,
                "pitch": 28,
                "velocity": 80,
                "duration": 0.2,
                "tempo": 120.0
            },
            {
                "start_time": 18.5477273,
                "end_time": 18.7477273,
                "pitch": 28,
                "velocity": 80,
                "duration": 0.2,
                "tempo": 120.0
            },
            {
                "start_time": 18.7477273,
                "end_time": 18.9477273,
                "pitch": 28,
                "velocity": 80,
                "duration": 0.2,
                "tempo": 120.0
            },
            {
                "start_time": 18.9477273,
                "end_time": 19.1522727,
                "pitch": 28,
                "velocity": 80,
                "duration": 0.2045455,
                "tempo": 120.0
            },
            {
                "start_time": 19.1545455,
                "end_time": 19.3590909,
                "pitch": 28,
                "velocity": 80,
                "duration": 0.2045455,
                "tempo": 120.0
            },
            {
                "start_time": 19.3613636,
                "end_time": 19.5590909,
                "pitch": 26,
                "velocity": 80,
                "duration": 0.1977273,
                "tempo": 120.0
            },
            {
                "start_time": 19.5613636,
                "end_time": 19.7613636,
                "pitch": 26,
                "velocity": 80,
                "duration": 0.2,
                "tempo": 120.0
            },
            {
                "start_time": 19.7613636,
                "end_time": 19.9568182,
                "pitch": 26,
                "velocity": 80,
                "duration": 0.1954545,
                "tempo": 120.0
            },
            {
                "start_time": 19.9590909,
                "end_time": 20.1545455,
                "pitch": 26,
                "velocity": 80,
                "duration": 0.1954545,
                "tempo": 120.0
            },
            {
                "start_time": 20.1545455,
                "end_time": 20.3590909,
                "pitch": 26,
                "velocity": 80,
                "duration": 0.2045455,
                "tempo": 120.0
            },
            {
                "start_time": 20.3613636,
                "end_time": 20.5659091,
                "pitch": 26,
                "velocity": 80,
                "duration": 0.2045455,
                "tempo": 120.0
            },
            {
                "start_time": 20.5659091,
                "end_time": 20.7659091,
                "pitch": 26,
                "velocity": 80,
                "duration": 0.2,
                "tempo": 120.0
            },
            {
                "start_time": 20.7681818,
                "end_time": 20.9681818,
                "pitch": 26,
                "velocity": 80,
                "duration": 0.2,
                "tempo": 120.0
            },
            {
                "start_time": 20.9681818,
                "end_time": 21.1681818,
                "pitch": 26,
                "velocity": 80,
                "duration": 0.2,
                "tempo": 120.0
            },
            {
                "start_time": 21.1704545,
                "end_time": 21.3704545,
                "pitch": 26,
                "velocity": 80,
                "duration": 0.2,
                "tempo": 120.0
            },
            {
                "start_time": 21.3704545,
                "end_time": 21.5704545,
                "pitch": 26,
                "velocity": 80,
                "duration": 0.2,
                "tempo": 120.0
            },
            {
                "start_time": 21.5727273,
                "end_time": 21.7727273,
                "pitch": 26,
                "velocity": 80,
                "duration": 0.2,
                "tempo": 120.0
            },
            {
                "start_time": 21.775,
                "end_time": 21.9727273,
                "pitch": 28,
                "velocity": 80,
                "duration": 0.1977273,
                "tempo": 120.0
            },
            {
                "start_time": 21.9727273,
                "end_time": 22.1727273,
                "pitch": 28,
                "velocity": 80,
                "duration": 0.2,
                "tempo": 120.0
            },
            {
                "start_time": 22.1727273,
                "end_time": 22.3727273,
                "pitch": 28,
                "velocity": 80,
                "duration": 0.2,
                "tempo": 120.0
            },
            {
                "start_time": 22.3727273,
                "end_time": 22.5727273,
                "pitch": 28,
                "velocity": 80,
                "duration": 0.2,
                "tempo": 120.0
            },
            {
                "start_time": 22.575,
                "end_time": 22.775,
                "pitch": 28,
                "velocity": 80,
                "duration": 0.2,
                "tempo": 120.0
            },
            {
                "start_time": 22.775,
                "end_time": 22.9772727,
                "pitch": 28,
                "velocity": 80,
                "duration": 0.2022727,
                "tempo": 120.0
            },
            {
                "start_time": 22.9772727,
                "end_time": 23.1772727,
                "pitch": 28,
                "velocity": 80,
                "duration": 0.2,
                "tempo": 120.0
            },
            {
                "start_time": 23.1772727,
                "end_time": 23.3772727,
                "pitch": 28,
                "velocity": 80,
                "duration": 0.2,
                "tempo": 120.0
            },
            {
                "start_time": 23.3772727,
                "end_time": 23.5795455,
                "pitch": 28,
                "velocity": 80,
                "duration": 0.2022727,
                "tempo": 120.0
            },
            {
                "start_time": 23.5795455,
                "end_time": 23.7818182,
                "pitch": 28,
                "velocity": 80,
                "duration": 0.2022727,
                "tempo": 120.0
            },
            {
                "start_time": 23.7818182,
                "end_time": 23.9818182,
                "pitch": 28,
                "velocity": 80,
                "duration": 0.2,
                "tempo": 120.0
            },
            {
                "start_time": 23.9818182,
                "end_time": 24.1818182,
                "pitch": 28,
                "velocity": 80,
                "duration": 0.2,
                "tempo": 120.0
            },
            {
                "start_time": 24.1818182,
                "end_time": 24.3818182,
                "pitch": 33,
                "velocity": 80,
                "duration": 0.2,
                "tempo": 120.0
            },
            {
                "start_time": 24.3818182,
                "end_time": 24.5818182,
                "pitch": 33,
                "velocity": 80,
                "duration": 0.2,
                "tempo": 120.0
            },
            {
                "start_time": 24.5818182,
                "end_time": 24.7818182,
                "pitch": 33,
                "velocity": 80,
                "duration": 0.2,
                "tempo": 120.0
            },
            {
                "start_time": 24.7840909,
                "end_time": 24.9840909,
                "pitch": 33,
                "velocity": 80,
                "duration": 0.2,
                "tempo": 120.0
            },
            {
                "start_time": 24.9863636,
                "end_time": 25.1840909,
                "pitch": 33,
                "velocity": 80,
                "duration": 0.1977273,
                "tempo": 120.0
            },
            {
                "start_time": 25.1863636,
                "end_time": 25.3863636,
                "pitch": 33,
                "velocity": 80,
                "duration": 0.2,
                "tempo": 120.0
            },
            {
                "start_time": 25.3863636,
                "end_time": 25.5863636,
                "pitch": 33,
                "velocity": 80,
                "duration": 0.2,
                "tempo": 120.0
            },
            {
                "start_time": 25.5863636,
                "end_time": 25.7886364,
                "pitch": 33,
                "velocity": 80,
                "duration": 0.2022727,
                "tempo": 120.0
            },
            {
                "start_time": 25.7886364,
                "end_time": 25.9886364,
                "pitch": 33,
                "velocity": 80,
                "duration": 0.2,
                "tempo": 120.0
            },
            {
                "start_time": 25.9886364,
                "end_time": 26.1886364,
                "pitch": 33,
                "velocity": 80,
                "duration": 0.2,
                "tempo": 120.0
            },
            {
                "start_time": 26.1909091,
                "end_time": 26.3886364,
                "pitch": 33,
                "velocity": 80,
                "duration": 0.1977273,
                "tempo": 120.0
            },
            {
                "start_time": 26.3909091,
                "end_time": 26.5909091,
                "pitch": 33,
                "velocity": 80,
                "duration": 0.2,
                "tempo": 120.0
            },
            {
                "start_time": 26.5909091,
                "end_time": 26.7954545,
                "pitch": 29,
                "velocity": 80,
                "duration": 0.2045455,
                "tempo": 120.0
            },
            {
                "start_time": 26.7954545,
                "end_time": 27.0,
                "pitch": 29,
                "velocity": 80,
                "duration": 0.2045455,
                "tempo": 120.0
            },
            {
                "start_time": 27.0,
                "end_time": 27.1977273,
                "pitch": 29,
                "velocity": 80,
                "duration": 0.1977273,
                "tempo": 120.0
            },
            {
                "start_time": 27.1977273,
                "end_time": 27.3931818,
                "pitch": 29,
                "velocity": 80,
                "duration": 0.1954545,
                "tempo": 120.0
            },
            {
                "start_time": 27.3931818,
                "end_time": 27.5977273,
                "pitch": 29,
                "velocity": 80,
                "duration": 0.2045455,
                "tempo": 120.0
            },
            {
                "start_time": 27.6,
                "end_time": 27.8045455,
                "pitch": 29,
                "velocity": 80,
                "duration": 0.2045455,
                "tempo": 120.0
            },
            {
                "start_time": 27.8068182,
                "end_time": 28.0068182,
                "pitch": 29,
                "velocity": 80,
                "duration": 0.2,
                "tempo": 120.0
            },
            {
                "start_time": 28.0068182,
                "end_time": 28.2068182,
                "pitch": 29,
                "velocity": 80,
                "duration": 0.2,
                "tempo": 120.0
            },
            {
                "start_time": 28.2090909,
                "end_time": 28.4068182,
                "pitch": 29,
                "velocity": 80,
                "duration": 0.1977273,
                "tempo": 120.0
            },
            {
                "start_time": 28.4090909,
                "end_time": 28.6090909,
                "pitch": 29,
                "velocity": 80,
                "duration": 0.2,
                "tempo": 120.0
            },
            {
                "start_time": 28.6090909,
                "end_time": 28.8090909,
                "pitch": 29,
                "velocity": 80,
                "duration": 0.2,
                "tempo": 120.0
            },
            {
                "start_time": 28.8090909,
                "end_time": 29.0090909,
                "pitch": 29,
                "velocity": 80,
                "duration": 0.2,
                "tempo": 120.0
            },
            {
                "start_time": 29.0113636,
                "end_time": 29.2090909,
                "pitch": 31,
                "velocity": 80,
                "duration": 0.1977273,
                "tempo": 120.0
            },
            {
                "start_time": 29.2113636,
                "end_time": 29.4113636,
                "pitch": 31,
                "velocity": 80,
                "duration": 0.2,
                "tempo": 120.0
            },
            {
                "start_time": 29.4136364,
                "end_time": 29.6113636,
                "pitch": 31,
                "velocity": 80,
                "duration": 0.1977273,
                "tempo": 120.0
            },
            {
                "start_time": 29.6136364,
                "end_time": 29.8113636,
                "pitch": 31,
                "velocity": 80,
                "duration": 0.1977273,
                "tempo": 120.0
            },
            {
                "start_time": 29.8136364,
                "end_time": 30.0136364,
                "pitch": 31,
                "velocity": 80,
                "duration": 0.2,
                "tempo": 120.0
            },
            {
                "start_time": 30.0136364,
                "end_time": 30.2159091,
                "pitch": 31,
                "velocity": 80,
                "duration": 0.2022727,
                "tempo": 120.0
            },
            {
                "start_time": 30.2181818,
                "end_time": 30.4159091,
                "pitch": 31,
                "velocity": 80,
                "duration": 0.1977273,
                "tempo": 120.0
            },
            {
                "start_time": 30.4159091,
                "end_time": 30.6159091,
                "pitch": 31,
                "velocity": 80,
                "duration": 0.2,
                "tempo": 120.0
            },
            {
                "start_time": 30.6159091,
                "end_time": 30.8159091,
                "pitch": 31,
                "velocity": 80,
                "duration": 0.2,
                "tempo": 120.0
            },
            {
                "start_time": 30.8181818,
                "end_time": 31.0159091,
                "pitch": 31,
                "velocity": 80,
                "duration": 0.1977273,
                "tempo": 120.0
            },
            {
                "start_time": 31.0181818,
                "end_time": 31.2181818,
                "pitch": 31,
                "velocity": 80,
                "duration": 0.2,
                "tempo": 120.0
            },
            {
                "start_time": 31.2181818,
                "end_time": 31.4204545,
                "pitch": 31,
                "velocity": 80,
                "duration": 0.2022727,
                "tempo": 120.0
            },
            {
                "start_time": 31.4204545,
                "end_time": 31.6204545,
                "pitch": 26,
                "velocity": 80,
                "duration": 0.2,
                "tempo": 120.0
            },
            {
                "start_time": 31.6204545,
                "end_time": 31.8204545,
                "pitch": 26,
                "velocity": 80,
                "duration": 0.2,
                "tempo": 120.0
            },
            {
                "start_time": 31.8204545,
                "end_time": 32.0227273,
                "pitch": 26,
                "velocity": 80,
                "duration": 0.2022727,
                "tempo": 120.0
            },
            {
                "start_time": 32.0227273,
                "end_time": 32.2227273,
                "pitch": 26,
                "velocity": 80,
                "duration": 0.2,
                "tempo": 120.0
            },
            {
                "start_time": 32.225,
                "end_time": 32.4227273,
                "pitch": 26,
                "velocity": 80,
                "duration": 0.1977273,
                "tempo": 120.0
            },
            {
                "start_time": 32.425,
                "end_time": 32.625,
                "pitch": 26,
                "velocity": 80,
                "duration": 0.2,
                "tempo": 120.0
            },
            {
                "start_time": 32.625,
                "end_time": 32.825,
                "pitch": 26,
                "velocity": 80,
                "duration": 0.2,
                "tempo": 120.0
            },
            {
                "start_time": 32.825,
                "end_time": 33.025,
                "pitch": 26,
                "velocity": 80,
                "duration": 0.2,
                "tempo": 120.0
            },
            {
                "start_time": 33.025,
                "end_time": 33.225,
                "pitch": 26,
                "velocity": 80,
                "duration": 0.2,
                "tempo": 120.0
            },
            {
                "start_time": 33.2272727,
                "end_time": 33.425,
                "pitch": 26,
                "velocity": 80,
                "duration": 0.1977273,
                "tempo": 120.0
            },
            {
                "start_time": 33.425,
                "end_time": 33.6272727,
                "pitch": 26,
                "velocity": 80,
                "duration": 0.2022727,
                "tempo": 120.0
            },
            {
                "start_time": 33.6272727,
                "end_time": 33.8295455,
                "pitch": 26,
                "velocity": 80,
                "duration": 0.2022727,
                "tempo": 120.0
            },
            {
                "start_time": 33.8295455,
                "end_time": 34.0272727,
                "pitch": 28,
                "velocity": 80,
                "duration": 0.1977273,
                "tempo": 120.0
            },
            {
                "start_time": 34.0295455,
                "end_time": 34.2295455,
                "pitch": 28,
                "velocity": 80,
                "duration": 0.2,
                "tempo": 120.0
            },
            {
                "start_time": 34.2295455,
                "end_time": 34.4295455,
                "pitch": 28,
                "velocity": 80,
                "duration": 0.2,
                "tempo": 120.0
            },
            {
                "start_time": 34.4295455,
                "end_time": 34.6295455,
                "pitch": 28,
                "velocity": 80,
                "duration": 0.2,
                "tempo": 120.0
            },
            {
                "start_time": 34.6295455,
                "end_time": 34.8295455,
                "pitch": 28,
                "velocity": 80,
                "duration": 0.2,
                "tempo": 120.0
            },
            {
                "start_time": 34.8295455,
                "end_time": 35.0295455,
                "pitch": 28,
                "velocity": 80,
                "duration": 0.2,
                "tempo": 120.0
            },
            {
                "start_time": 35.0318182,
                "end_time": 35.2295455,
                "pitch": 28,
                "velocity": 80,
                "duration": 0.1977273,
                "tempo": 120.0
            },
            {
                "start_time": 35.2318182,
                "end_time": 35.4295455,
                "pitch": 28,
                "velocity": 80,
                "duration": 0.1977273,
                "tempo": 120.0
            },
            {
                "start_time": 35.4318182,
                "end_time": 35.6318182,
                "pitch": 28,
                "velocity": 80,
                "duration": 0.2,
                "tempo": 120.0
            },
            {
                "start_time": 35.6318182,
                "end_time": 35.8340909,
                "pitch": 28,
                "velocity": 80,
                "duration": 0.2022727,
                "tempo": 120.0
            },
            {
                "start_time": 35.8340909,
                "end_time": 36.0386364,
                "pitch": 26,
                "velocity": 80,
                "duration": 0.2045455,
                "tempo": 120.0
            },
            {
                "start_time": 36.0409091,
                "end_time": 36.2454545,
                "pitch": 26,
                "velocity": 80,
                "duration": 0.2045455,
                "tempo": 120.0
            },
            {
                "start_time": 36.2477273,
                "end_time": 36.4454545,
                "pitch": 40,
                "velocity": 80,
                "duration": 0.1977273,
                "tempo": 120.0
            },
            {
                "start_time": 36.4454545,
                "end_time": 36.6454545,
                "pitch": 40,
                "velocity": 80,
                "duration": 0.2,
                "tempo": 120.0
            },
            {
                "start_time": 36.6454545,
                "end_time": 36.8454545,
                "pitch": 40,
                "velocity": 80,
                "duration": 0.2,
                "tempo": 120.0
            },
            {
                "start_time": 36.8477273,
                "end_time": 37.0454545,
                "pitch": 40,
                "velocity": 80,
                "duration": 0.1977273,
                "tempo": 120.0
            },
            {
                "start_time": 37.0477273,
                "end_time": 37.2477273,
                "pitch": 40,
                "velocity": 80,
                "duration": 0.2,
                "tempo": 120.0
            },
            {
                "start_time": 37.2477273,
                "end_time": 37.45,
                "pitch": 40,
                "velocity": 80,
                "duration": 0.2022727,
                "tempo": 120.0
            },
            {
                "start_time": 37.45,
                "end_time": 37.65,
                "pitch": 40,
                "velocity": 80,
                "duration": 0.2,
                "tempo": 120.0
            },
            {
                "start_time": 37.65,
                "end_time": 37.85,
                "pitch": 40,
                "velocity": 80,
                "duration": 0.2,
                "tempo": 120.0
            },
            {
                "start_time": 37.85,
                "end_time": 38.05,
                "pitch": 40,
                "velocity": 80,
                "duration": 0.2,
                "tempo": 120.0
            },
            {
                "start_time": 38.05,
                "end_time": 38.25,
                "pitch": 40,
                "velocity": 80,
                "duration": 0.2,
                "tempo": 120.0
            },
            {
                "start_time": 38.2522727,
                "end_time": 38.45,
                "pitch": 38,
                "velocity": 80,
                "duration": 0.1977273,
                "tempo": 120.0
            },
            {
                "start_time": 38.4522727,
                "end_time": 38.65,
                "pitch": 38,
                "velocity": 80,
                "duration": 0.1977273,
                "tempo": 120.0
            }
        ],
        "Vibraphone": [
            {
                "start_time": 0.0340909,
                "end_time": 0.1318182,
                "pitch": 69,
                "velocity": 80,
                "duration": 0.0977273,
                "tempo": 120.0
            },
            {
                "start_time": 0.1340909,
                "end_time": 0.2318182,
                "pitch": 76,
                "velocity": 80,
                "duration": 0.0977273,
                "tempo": 120.0
            },
            {
                "start_time": 0.2340909,
                "end_time": 0.3318182,
                "pitch": 74,
                "velocity": 80,
                "duration": 0.0977273,
                "tempo": 120.0
            },
            {
                "start_time": 0.3340909,
                "end_time": 0.4318182,
                "pitch": 76,
                "velocity": 80,
                "duration": 0.0977273,
                "tempo": 120.0
            },
            {
                "start_time": 0.4340909,
                "end_time": 0.5318182,
                "pitch": 72,
                "velocity": 80,
                "duration": 0.0977273,
                "tempo": 120.0
            },
            {
                "start_time": 0.5340909,
                "end_time": 0.6318182,
                "pitch": 76,
                "velocity": 80,
                "duration": 0.0977273,
                "tempo": 120.0
            },
            {
                "start_time": 0.6340909,
                "end_time": 0.7318182,
                "pitch": 71,
                "velocity": 80,
                "duration": 0.0977273,
                "tempo": 120.0
            },
            {
                "start_time": 0.7340909,
                "end_time": 0.8340909,
                "pitch": 76,
                "velocity": 80,
                "duration": 0.1,
                "tempo": 120.0
            },
            {
                "start_time": 0.8340909,
                "end_time": 0.9340909,
                "pitch": 69,
                "velocity": 80,
                "duration": 0.1,
                "tempo": 120.0
            },
            {
                "start_time": 0.9340909,
                "end_time": 1.0340909,
                "pitch": 76,
                "velocity": 80,
                "duration": 0.1,
                "tempo": 120.0
            },
            {
                "start_time": 1.0340909,
                "end_time": 1.1340909,
                "pitch": 67,
                "velocity": 80,
                "duration": 0.1,
                "tempo": 120.0
            },
            {
                "start_time": 1.1340909,
                "end_time": 1.2340909,
                "pitch": 76,
                "velocity": 80,
                "duration": 0.1,
                "tempo": 120.0
            },
            {
                "start_time": 1.2363636,
                "end_time": 1.3340909,
                "pitch": 69,
                "velocity": 80,
                "duration": 0.0977273,
                "tempo": 120.0
            },
            {
                "start_time": 1.3340909,
                "end_time": 1.4340909,
                "pitch": 76,
                "velocity": 80,
                "duration": 0.1,
                "tempo": 120.0
            },
            {
                "start_time": 1.4340909,
                "end_time": 1.5340909,
                "pitch": 74,
                "velocity": 80,
                "duration": 0.1,
                "tempo": 120.0
            },
            {
                "start_time": 1.5340909,
                "end_time": 1.6340909,
                "pitch": 76,
                "velocity": 80,
                "duration": 0.1,
                "tempo": 120.0
            },
            {
                "start_time": 1.6340909,
                "end_time": 1.7340909,
                "pitch": 72,
                "velocity": 80,
                "duration": 0.1,
                "tempo": 120.0
            },
            {
                "start_time": 1.7340909,
                "end_time": 1.8340909,
                "pitch": 76,
                "velocity": 80,
                "duration": 0.1,
                "tempo": 120.0
            },
            {
                "start_time": 1.8340909,
                "end_time": 1.9340909,
                "pitch": 71,
                "velocity": 80,
                "duration": 0.1,
                "tempo": 120.0
            },
            {
                "start_time": 1.9363636,
                "end_time": 2.0340909,
                "pitch": 76,
                "velocity": 80,
                "duration": 0.0977273,
                "tempo": 120.0
            },
            {
                "start_time": 2.0363636,
                "end_time": 2.1340909,
                "pitch": 69,
                "velocity": 80,
                "duration": 0.0977273,
                "tempo": 120.0
            },
            {
                "start_time": 2.1363636,
                "end_time": 2.2340909,
                "pitch": 76,
                "velocity": 80,
                "duration": 0.0977273,
                "tempo": 120.0
            },
            {
                "start_time": 2.2363636,
                "end_time": 2.3340909,
                "pitch": 67,
                "velocity": 80,
                "duration": 0.0977273,
                "tempo": 120.0
            },
            {
                "start_time": 2.3363636,
                "end_time": 2.4363636,
                "pitch": 76,
                "velocity": 80,
                "duration": 0.1,
                "tempo": 120.0
            },
            {
                "start_time": 2.4363636,
                "end_time": 2.5363636,
                "pitch": 67,
                "velocity": 80,
                "duration": 0.1,
                "tempo": 120.0
            },
            {
                "start_time": 2.5363636,
                "end_time": 2.6363636,
                "pitch": 76,
                "velocity": 80,
                "duration": 0.1,
                "tempo": 120.0
            },
            {
                "start_time": 2.6386364,
                "end_time": 2.7363636,
                "pitch": 74,
                "velocity": 80,
                "duration": 0.0977273,
                "tempo": 120.0
            },
            {
                "start_time": 2.7386364,
                "end_time": 2.8386364,
                "pitch": 76,
                "velocity": 80,
                "duration": 0.1,
                "tempo": 120.0
            },
            {
                "start_time": 2.8386364,
                "end_time": 2.9386364,
                "pitch": 72,
                "velocity": 80,
                "duration": 0.1,
                "tempo": 120.0
            },
            {
                "start_time": 2.9386364,
                "end_time": 3.0386364,
                "pitch": 76,
                "velocity": 80,
                "duration": 0.1,
                "tempo": 120.0
            },
            {
                "start_time": 3.0386364,
                "end_time": 3.1386364,
                "pitch": 71,
                "velocity": 80,
                "duration": 0.1,
                "tempo": 120.0
            },
            {
                "start_time": 3.1386364,
                "end_time": 3.2386364,
                "pitch": 76,
                "velocity": 80,
                "duration": 0.1,
                "tempo": 120.0
            },
            {
                "start_time": 3.2386364,
                "end_time": 3.3409091,
                "pitch": 69,
                "velocity": 80,
                "duration": 0.1022727,
                "tempo": 120.0
            },
            {
                "start_time": 3.3431818,
                "end_time": 3.4454545,
                "pitch": 76,
                "velocity": 80,
                "duration": 0.1022727,
                "tempo": 120.0
            },
            {
                "start_time": 3.4454545,
                "end_time": 3.5477273,
                "pitch": 67,
                "velocity": 80,
                "duration": 0.1022727,
                "tempo": 120.0
            },
            {
                "start_time": 3.5477273,
                "end_time": 3.65,
                "pitch": 76,
                "velocity": 80,
                "duration": 0.1022727,
                "tempo": 120.0
            },
            {
                "start_time": 3.65,
                "end_time": 3.7477273,
                "pitch": 67,
                "velocity": 80,
                "duration": 0.0977273,
                "tempo": 120.0
            },
            {
                "start_time": 3.75,
                "end_time": 3.8454545,
                "pitch": 76,
                "velocity": 80,
                "duration": 0.0954545,
                "tempo": 120.0
            },
            {
                "start_time": 3.8477273,
                "end_time": 3.9454545,
                "pitch": 74,
                "velocity": 80,
                "duration": 0.0977273,
                "tempo": 120.0
            },
            {
                "start_time": 3.9454545,
                "end_time": 4.0431818,
                "pitch": 76,
                "velocity": 80,
                "duration": 0.0977273,
                "tempo": 120.0
            },
            {
                "start_time": 4.0431818,
                "end_time": 4.1431818,
                "pitch": 72,
                "velocity": 80,
                "duration": 0.1,
                "tempo": 120.0
            },
            {
                "start_time": 4.1454545,
                "end_time": 4.2431818,
                "pitch": 76,
                "velocity": 80,
                "duration": 0.0977273,
                "tempo": 120.0
            },
            {
                "start_time": 4.2454545,
                "end_time": 4.3454545,
                "pitch": 71,
                "velocity": 80,
                "duration": 0.1,
                "tempo": 120.0
            },
            {
                "start_time": 4.3454545,
                "end_time": 4.4454545,
                "pitch": 76,
                "velocity": 80,
                "duration": 0.1,
                "tempo": 120.0
            },
            {
                "start_time": 4.4477273,
                "end_time": 4.5477273,
                "pitch": 69,
                "velocity": 80,
                "duration": 0.1,
                "tempo": 120.0
            },
            {
                "start_time": 4.55,
                "end_time": 4.6522727,
                "pitch": 76,
                "velocity": 80,
                "duration": 0.1022727,
                "tempo": 120.0
            },
            {
                "start_time": 4.6522727,
                "end_time": 4.7545455,
                "pitch": 67,
                "velocity": 80,
                "duration": 0.1022727,
                "tempo": 120.0
            },
            {
                "start_time": 4.7545455,
                "end_time": 4.8590909,
                "pitch": 76,
                "velocity": 80,
                "duration": 0.1045455,
                "tempo": 120.0
            },
            {
                "start_time": 4.8590909,
                "end_time": 4.9568182,
                "pitch": 65,
                "velocity": 80,
                "duration": 0.0977273,
                "tempo": 120.0
            },
            {
                "start_time": 4.9590909,
                "end_time": 5.0568182,
                "pitch": 76,
                "velocity": 80,
                "duration": 0.0977273,
                "tempo": 120.0
            },
            {
                "start_time": 5.0590909,
                "end_time": 5.1568182,
                "pitch": 74,
                "velocity": 80,
                "duration": 0.0977273,
                "tempo": 120.0
            },
            {
                "start_time": 5.1590909,
                "end_time": 5.2568182,
                "pitch": 76,
                "velocity": 80,
                "duration": 0.0977273,
                "tempo": 120.0
            },
            {
                "start_time": 5.2590909,
                "end_time": 5.3568182,
                "pitch": 72,
                "velocity": 80,
                "duration": 0.0977273,
                "tempo": 120.0
            },
            {
                "start_time": 5.3568182,
                "end_time": 5.4545455,
                "pitch": 76,
                "velocity": 80,
                "duration": 0.0977273,
                "tempo": 120.0
            },
            {
                "start_time": 5.4545455,
                "end_time": 5.5522727,
                "pitch": 71,
                "velocity": 80,
                "duration": 0.0977273,
                "tempo": 120.0
            },
            {
                "start_time": 5.5522727,
                "end_time": 5.65,
                "pitch": 76,
                "velocity": 80,
                "duration": 0.0977273,
                "tempo": 120.0
            },
            {
                "start_time": 5.6522727,
                "end_time": 5.7522727,
                "pitch": 69,
                "velocity": 80,
                "duration": 0.1,
                "tempo": 120.0
            },
            {
                "start_time": 5.7545455,
                "end_time": 5.8568182,
                "pitch": 76,
                "velocity": 80,
                "duration": 0.1022727,
                "tempo": 120.0
            },
            {
                "start_time": 5.8568182,
                "end_time": 5.9590909,
                "pitch": 67,
                "velocity": 80,
                "duration": 0.1022727,
                "tempo": 120.0
            },
            {
                "start_time": 5.9590909,
                "end_time": 6.0636364,
                "pitch": 76,
                "velocity": 80,
                "duration": 0.1045455,
                "tempo": 120.0
            },
            {
                "start_time": 6.0636364,
                "end_time": 6.1636364,
                "pitch": 65,
                "velocity": 80,
                "duration": 0.1,
                "tempo": 120.0
            },
            {
                "start_time": 6.1636364,
                "end_time": 6.2636364,
                "pitch": 76,
                "velocity": 80,
                "duration": 0.1,
                "tempo": 120.0
            },
            {
                "start_time": 6.2636364,
                "end_time": 6.3636364,
                "pitch": 74,
                "velocity": 80,
                "duration": 0.1,
                "tempo": 120.0
            },
            {
                "start_time": 6.3659091,
                "end_time": 6.4659091,
                "pitch": 76,
                "velocity": 80,
                "duration": 0.1,
                "tempo": 120.0
            },
            {
                "start_time": 6.4659091,
                "end_time": 6.5659091,
                "pitch": 72,
                "velocity": 80,
                "duration": 0.1,
                "tempo": 120.0
            },
            {
                "start_time": 6.5659091,
                "end_time": 6.6659091,
                "pitch": 76,
                "velocity": 80,
                "duration": 0.1,
                "tempo": 120.0
            },
            {
                "start_time": 6.6681818,
                "end_time": 6.7681818,
                "pitch": 71,
                "velocity": 80,
                "duration": 0.1,
                "tempo": 120.0
            },
            {
                "start_time": 6.7681818,
                "end_time": 6.8681818,
                "pitch": 76,
                "velocity": 80,
                "duration": 0.1,
                "tempo": 120.0
            },
            {
                "start_time": 6.8681818,
                "end_time": 6.9681818,
                "pitch": 69,
                "velocity": 80,
                "duration": 0.1,
                "tempo": 120.0
            },
            {
                "start_time": 6.9681818,
                "end_time": 7.0681818,
                "pitch": 76,
                "velocity": 80,
                "duration": 0.1,
                "tempo": 120.0
            },
            {
                "start_time": 7.0704545,
                "end_time": 7.1681818,
                "pitch": 67,
                "velocity": 80,
                "duration": 0.0977273,
                "tempo": 120.0
            },
            {
                "start_time": 7.1704545,
                "end_time": 7.2704545,
                "pitch": 76,
                "velocity": 80,
                "duration": 0.1,
                "tempo": 120.0
            },
            {
                "start_time": 7.2704545,
                "end_time": 7.3704545,
                "pitch": 64,
                "velocity": 80,
                "duration": 0.1,
                "tempo": 120.0
            },
            {
                "start_time": 7.3704545,
                "end_time": 7.4704545,
                "pitch": 76,
                "velocity": 80,
                "duration": 0.1,
                "tempo": 120.0
            },
            {
                "start_time": 7.4704545,
                "end_time": 7.5704545,
                "pitch": 74,
                "velocity": 80,
                "duration": 0.1,
                "tempo": 120.0
            },
            {
                "start_time": 7.5727273,
                "end_time": 7.6727273,
                "pitch": 76,
                "velocity": 80,
                "duration": 0.1,
                "tempo": 120.0
            },
            {
                "start_time": 7.6727273,
                "end_time": 7.7727273,
                "pitch": 72,
                "velocity": 80,
                "duration": 0.1,
                "tempo": 120.0
            },
            {
                "start_time": 7.7727273,
                "end_time": 7.8727273,
                "pitch": 76,
                "velocity": 80,
                "duration": 0.1,
                "tempo": 120.0
            },
            {
                "start_time": 7.8727273,
                "end_time": 7.9727273,
                "pitch": 71,
                "velocity": 80,
                "duration": 0.1,
                "tempo": 120.0
            },
            {
                "start_time": 7.9727273,
                "end_time": 8.0727273,
                "pitch": 76,
                "velocity": 80,
                "duration": 0.1,
                "tempo": 120.0
            },
            {
                "start_time": 8.0727273,
                "end_time": 8.1727273,
                "pitch": 69,
                "velocity": 80,
                "duration": 0.1,
                "tempo": 120.0
            },
            {
                "start_time": 8.1727273,
                "end_time": 8.2727273,
                "pitch": 76,
                "velocity": 80,
                "duration": 0.1,
                "tempo": 120.0
            },
            {
                "start_time": 8.275,
                "end_time": 8.3727273,
                "pitch": 68,
                "velocity": 80,
                "duration": 0.0977273,
                "tempo": 120.0
            },
            {
                "start_time": 8.3727273,
                "end_time": 8.4727273,
                "pitch": 76,
                "velocity": 80,
                "duration": 0.1,
                "tempo": 120.0
            },
            {
                "start_time": 8.475,
                "end_time": 8.5727273,
                "pitch": 64,
                "velocity": 80,
                "duration": 0.0977273,
                "tempo": 120.0
            },
            {
                "start_time": 8.575,
                "end_time": 8.675,
                "pitch": 76,
                "velocity": 80,
                "duration": 0.1,
                "tempo": 120.0
            },
            {
                "start_time": 8.675,
                "end_time": 8.775,
                "pitch": 74,
                "velocity": 80,
                "duration": 0.1,
                "tempo": 120.0
            },
            {
                "start_time": 8.7772727,
                "end_time": 8.8772727,
                "pitch": 76,
                "velocity": 80,
                "duration": 0.1,
                "tempo": 120.0
            },
            {
                "start_time": 8.8772727,
                "end_time": 8.9772727,
                "pitch": 72,
                "velocity": 80,
                "duration": 0.1,
                "tempo": 120.0
            },
            {
                "start_time": 8.9772727,
                "end_time": 9.0772727,
                "pitch": 76,
                "velocity": 80,
                "duration": 0.1,
                "tempo": 120.0
            },
            {
                "start_time": 9.0795455,
                "end_time": 9.1795455,
                "pitch": 71,
                "velocity": 80,
                "duration": 0.1,
                "tempo": 120.0
            },
            {
                "start_time": 9.1795455,
                "end_time": 9.2795455,
                "pitch": 76,
                "velocity": 80,
                "duration": 0.1,
                "tempo": 120.0
            },
            {
                "start_time": 9.2818182,
                "end_time": 9.3795455,
                "pitch": 69,
                "velocity": 80,
                "duration": 0.0977273,
                "tempo": 120.0
            },
            {
                "start_time": 9.3818182,
                "end_time": 9.4818182,
                "pitch": 76,
                "velocity": 80,
                "duration": 0.1,
                "tempo": 120.0
            },
            {
                "start_time": 9.4818182,
                "end_time": 9.5818182,
                "pitch": 68,
                "velocity": 80,
                "duration": 0.1,
                "tempo": 120.0
            },
            {
                "start_time": 9.5818182,
                "end_time": 9.6840909,
                "pitch": 76,
                "velocity": 80,
                "duration": 0.1022727,
                "tempo": 120.0
            },
            {
                "start_time": 9.6840909,
                "end_time": 9.7840909,
                "pitch": 69,
                "velocity": 80,
                "duration": 0.1,
                "tempo": 120.0
            },
            {
                "start_time": 9.7840909,
                "end_time": 9.8840909,
                "pitch": 76,
                "velocity": 80,
                "duration": 0.1,
                "tempo": 120.0
            },
            {
                "start_time": 9.8840909,
                "end_time": 9.9840909,
                "pitch": 74,
                "velocity": 80,
                "duration": 0.1,
                "tempo": 120.0
            },
            {
                "start_time": 9.9863636,
                "end_time": 10.0863636,
                "pitch": 76,
                "velocity": 80,
                "duration": 0.1,
                "tempo": 120.0
            },
            {
                "start_time": 10.0863636,
                "end_time": 10.1863636,
                "pitch": 72,
                "velocity": 80,
                "duration": 0.1,
                "tempo": 120.0
            },
            {
                "start_time": 10.1863636,
                "end_time": 10.2863636,
                "pitch": 76,
                "velocity": 80,
                "duration": 0.1,
                "tempo": 120.0
            },
            {
                "start_time": 10.2863636,
                "end_time": 10.3863636,
                "pitch": 71,
                "velocity": 80,
                "duration": 0.1,
                "tempo": 120.0
            },
            {
                "start_time": 10.3863636,
                "end_time": 10.4863636,
                "pitch": 76,
                "velocity": 80,
                "duration": 0.1,
                "tempo": 120.0
            },
            {
                "start_time": 10.4863636,
                "end_time": 10.5863636,
                "pitch": 69,
                "velocity": 80,
                "duration": 0.1,
                "tempo": 120.0
            },
            {
                "start_time": 10.5886364,
                "end_time": 10.6886364,
                "pitch": 76,
                "velocity": 80,
                "duration": 0.1,
                "tempo": 120.0
            },
            {
                "start_time": 10.6886364,
                "end_time": 10.7886364,
                "pitch": 67,
                "velocity": 80,
                "duration": 0.1,
                "tempo": 120.0
            },
            {
                "start_time": 10.7886364,
                "end_time": 10.8909091,
                "pitch": 76,
                "velocity": 80,
                "duration": 0.1022727,
                "tempo": 120.0
            },
            {
                "start_time": 10.8909091,
                "end_time": 10.9909091,
                "pitch": 69,
                "velocity": 80,
                "duration": 0.1,
                "tempo": 120.0
            },
            {
                "start_time": 10.9909091,
                "end_time": 11.0909091,
                "pitch": 76,
                "velocity": 80,
                "duration": 0.1,
                "tempo": 120.0
            },
            {
                "start_time": 11.0909091,
                "end_time": 11.1909091,
                "pitch": 74,
                "velocity": 80,
                "duration": 0.1,
                "tempo": 120.0
            },
            {
                "start_time": 11.1931818,
                "end_time": 11.2931818,
                "pitch": 76,
                "velocity": 80,
                "duration": 0.1,
                "tempo": 120.0
            },
            {
                "start_time": 11.2931818,
                "end_time": 11.3931818,
                "pitch": 72,
                "velocity": 80,
                "duration": 0.1,
                "tempo": 120.0
            },
            {
                "start_time": 11.3954545,
                "end_time": 11.4954545,
                "pitch": 76,
                "velocity": 80,
                "duration": 0.1,
                "tempo": 120.0
            },
            {
                "start_time": 11.4954545,
                "end_time": 11.5954545,
                "pitch": 71,
                "velocity": 80,
                "duration": 0.1,
                "tempo": 120.0
            },
            {
                "start_time": 11.5954545,
                "end_time": 11.6954545,
                "pitch": 76,
                "velocity": 80,
                "duration": 0.1,
                "tempo": 120.0
            },
            {
                "start_time": 11.6977273,
                "end_time": 11.7977273,
                "pitch": 69,
                "velocity": 80,
                "duration": 0.1,
                "tempo": 120.0
            },
            {
                "start_time": 11.7977273,
                "end_time": 11.8977273,
                "pitch": 76,
                "velocity": 80,
                "duration": 0.1,
                "tempo": 120.0
            },
            {
                "start_time": 11.8977273,
                "end_time": 11.9977273,
                "pitch": 67,
                "velocity": 80,
                "duration": 0.1,
                "tempo": 120.0
            },
            {
                "start_time": 12.0,
                "end_time": 12.1,
                "pitch": 76,
                "velocity": 80,
                "duration": 0.1,
                "tempo": 120.0
            },
            {
                "start_time": 12.1,
                "end_time": 12.2022727,
                "pitch": 67,
                "velocity": 80,
                "duration": 0.1022727,
                "tempo": 120.0
            },
            {
                "start_time": 12.2022727,
                "end_time": 12.3045455,
                "pitch": 76,
                "velocity": 80,
                "duration": 0.1022727,
                "tempo": 120.0
            },
            {
                "start_time": 12.3068182,
                "end_time": 12.4068182,
                "pitch": 74,
                "velocity": 80,
                "duration": 0.1,
                "tempo": 120.0
            },
            {
                "start_time": 12.4090909,
                "end_time": 12.5113636,
                "pitch": 76,
                "velocity": 80,
                "duration": 0.1022727,
                "tempo": 120.0
            },
            {
                "start_time": 12.5113636,
                "end_time": 12.6113636,
                "pitch": 72,
                "velocity": 80,
                "duration": 0.1,
                "tempo": 120.0
            },
            {
                "start_time": 12.6113636,
                "end_time": 12.7113636,
                "pitch": 76,
                "velocity": 80,
                "duration": 0.1,
                "tempo": 120.0
            },
            {
                "start_time": 12.7113636,
                "end_time": 12.8113636,
                "pitch": 71,
                "velocity": 80,
                "duration": 0.1,
                "tempo": 120.0
            },
            {
                "start_time": 12.8113636,
                "end_time": 12.9113636,
                "pitch": 76,
                "velocity": 80,
                "duration": 0.1,
                "tempo": 120.0
            },
            {
                "start_time": 12.9113636,
                "end_time": 13.0113636,
                "pitch": 69,
                "velocity": 80,
                "duration": 0.1,
                "tempo": 120.0
            },
            {
                "start_time": 13.0136364,
                "end_time": 13.1136364,
                "pitch": 76,
                "velocity": 80,
                "duration": 0.1,
                "tempo": 120.0
            },
            {
                "start_time": 13.1136364,
                "end_time": 13.2136364,
                "pitch": 67,
                "velocity": 80,
                "duration": 0.1,
                "tempo": 120.0
            },
            {
                "start_time": 13.2136364,
                "end_time": 13.3136364,
                "pitch": 76,
                "velocity": 80,
                "duration": 0.1,
                "tempo": 120.0
            },
            {
                "start_time": 13.3159091,
                "end_time": 13.4159091,
                "pitch": 67,
                "velocity": 80,
                "duration": 0.1,
                "tempo": 120.0
            },
            {
                "start_time": 13.4159091,
                "end_time": 13.5159091,
                "pitch": 76,
                "velocity": 80,
                "duration": 0.1,
                "tempo": 120.0
            },
            {
                "start_time": 13.5159091,
                "end_time": 13.6159091,
                "pitch": 74,
                "velocity": 80,
                "duration": 0.1,
                "tempo": 120.0
            },
            {
                "start_time": 13.6181818,
                "end_time": 13.7181818,
                "pitch": 76,
                "velocity": 80,
                "duration": 0.1,
                "tempo": 120.0
            },
            {
                "start_time": 13.7181818,
                "end_time": 13.8181818,
                "pitch": 72,
                "velocity": 80,
                "duration": 0.1,
                "tempo": 120.0
            },
            {
                "start_time": 13.8181818,
                "end_time": 13.9181818,
                "pitch": 76,
                "velocity": 80,
                "duration": 0.1,
                "tempo": 120.0
            },
            {
                "start_time": 13.9204545,
                "end_time": 14.0204545,
                "pitch": 71,
                "velocity": 80,
                "duration": 0.1,
                "tempo": 120.0
            },
            {
                "start_time": 14.0204545,
                "end_time": 14.1204545,
                "pitch": 76,
                "velocity": 80,
                "duration": 0.1,
                "tempo": 120.0
            },
            {
                "start_time": 14.1227273,
                "end_time": 14.2227273,
                "pitch": 69,
                "velocity": 80,
                "duration": 0.1,
                "tempo": 120.0
            },
            {
                "start_time": 14.2227273,
                "end_time": 14.3227273,
                "pitch": 76,
                "velocity": 80,
                "duration": 0.1,
                "tempo": 120.0
            },
            {
                "start_time": 14.3227273,
                "end_time": 14.4227273,
                "pitch": 67,
                "velocity": 80,
                "duration": 0.1,
                "tempo": 120.0
            },
            {
                "start_time": 14.425,
                "end_time": 14.525,
                "pitch": 76,
                "velocity": 80,
                "duration": 0.1,
                "tempo": 120.0
            },
            {
                "start_time": 14.525,
                "end_time": 14.625,
                "pitch": 65,
                "velocity": 80,
                "duration": 0.1,
                "tempo": 120.0
            },
            {
                "start_time": 14.625,
                "end_time": 14.725,
                "pitch": 76,
                "velocity": 80,
                "duration": 0.1,
                "tempo": 120.0
            },
            {
                "start_time": 14.725,
                "end_time": 14.825,
                "pitch": 74,
                "velocity": 80,
                "duration": 0.1,
                "tempo": 120.0
            },
            {
                "start_time": 14.825,
                "end_time": 14.925,
                "pitch": 76,
                "velocity": 80,
                "duration": 0.1,
                "tempo": 120.0
            },
            {
                "start_time": 14.925,
                "end_time": 15.025,
                "pitch": 72,
                "velocity": 80,
                "duration": 0.1,
                "tempo": 120.0
            },
            {
                "start_time": 15.0272727,
                "end_time": 15.125,
                "pitch": 76,
                "velocity": 80,
                "duration": 0.0977273,
                "tempo": 120.0
            },
            {
                "start_time": 15.1272727,
                "end_time": 15.2272727,
                "pitch": 71,
                "velocity": 80,
                "duration": 0.1,
                "tempo": 120.0
            },
            {
                "start_time": 15.2272727,
                "end_time": 15.3272727,
                "pitch": 76,
                "velocity": 80,
                "duration": 0.1,
                "tempo": 120.0
            },
            {
                "start_time": 15.3295455,
                "end_time": 15.4295455,
                "pitch": 69,
                "velocity": 80,
                "duration": 0.1,
                "tempo": 120.0
            },
            {
                "start_time": 15.4295455,
                "end_time": 15.5295455,
                "pitch": 76,
                "velocity": 80,
                "duration": 0.1,
                "tempo": 120.0
            },
            {
                "start_time": 15.5295455,
                "end_time": 15.6295455,
                "pitch": 67,
                "velocity": 80,
                "duration": 0.1,
                "tempo": 120.0
            },
            {
                "start_time": 15.6318182,
                "end_time": 15.7318182,
                "pitch": 76,
                "velocity": 80,
                "duration": 0.1,
                "tempo": 120.0
            },
            {
                "start_time": 15.7318182,
                "end_time": 15.8318182,
                "pitch": 65,
                "velocity": 80,
                "duration": 0.1,
                "tempo": 120.0
            },
            {
                "start_time": 15.8318182,
                "end_time": 15.9318182,
                "pitch": 76,
                "velocity": 80,
                "duration": 0.1,
                "tempo": 120.0
            },
            {
                "start_time": 15.9340909,
                "end_time": 16.0340909,
                "pitch": 74,
                "velocity": 80,
                "duration": 0.1,
                "tempo": 120.0
            },
            {
                "start_time": 16.0340909,
                "end_time": 16.1340909,
                "pitch": 76,
                "velocity": 80,
                "duration": 0.1,
                "tempo": 120.0
            },
            {
                "start_time": 16.1340909,
                "end_time": 16.2340909,
                "pitch": 72,
                "velocity": 80,
                "duration": 0.1,
                "tempo": 120.0
            },
            {
                "start_time": 16.2363636,
                "end_time": 16.3363636,
                "pitch": 76,
                "velocity": 80,
                "duration": 0.1,
                "tempo": 120.0
            },
            {
                "start_time": 16.3363636,
                "end_time": 16.4363636,
                "pitch": 71,
                "velocity": 80,
                "duration": 0.1,
                "tempo": 120.0
            },
            {
                "start_time": 16.4363636,
                "end_time": 16.5363636,
                "pitch": 76,
                "velocity": 80,
                "duration": 0.1,
                "tempo": 120.0
            },
            {
                "start_time": 16.5386364,
                "end_time": 16.6363636,
                "pitch": 69,
                "velocity": 80,
                "duration": 0.0977273,
                "tempo": 120.0
            },
            {
                "start_time": 16.6386364,
                "end_time": 16.7386364,
                "pitch": 76,
                "velocity": 80,
                "duration": 0.1,
                "tempo": 120.0
            },
            {
                "start_time": 16.7386364,
                "end_time": 16.8386364,
                "pitch": 67,
                "velocity": 80,
                "duration": 0.1,
                "tempo": 120.0
            },
            {
                "start_time": 16.8386364,
                "end_time": 16.9386364,
                "pitch": 76,
                "velocity": 80,
                "duration": 0.1,
                "tempo": 120.0
            },
            {
                "start_time": 16.9386364,
                "end_time": 17.0386364,
                "pitch": 64,
                "velocity": 80,
                "duration": 0.1,
                "tempo": 120.0
            },
            {
                "start_time": 17.0386364,
                "end_time": 17.1386364,
                "pitch": 76,
                "velocity": 80,
                "duration": 0.1,
                "tempo": 120.0
            },
            {
                "start_time": 17.1409091,
                "end_time": 17.2409091,
                "pitch": 74,
                "velocity": 80,
                "duration": 0.1,
                "tempo": 120.0
            },
            {
                "start_time": 17.2409091,
                "end_time": 17.3409091,
                "pitch": 76,
                "velocity": 80,
                "duration": 0.1,
                "tempo": 120.0
            },
            {
                "start_time": 17.3409091,
                "end_time": 17.4409091,
                "pitch": 72,
                "velocity": 80,
                "duration": 0.1,
                "tempo": 120.0
            },
            {
                "start_time": 17.4409091,
                "end_time": 17.5409091,
                "pitch": 76,
                "velocity": 80,
                "duration": 0.1,
                "tempo": 120.0
            },
            {
                "start_time": 17.5431818,
                "end_time": 17.6409091,
                "pitch": 71,
                "velocity": 80,
                "duration": 0.0977273,
                "tempo": 120.0
            },
            {
                "start_time": 17.6431818,
                "end_time": 17.7409091,
                "pitch": 76,
                "velocity": 80,
                "duration": 0.0977273,
                "tempo": 120.0
            },
            {
                "start_time": 17.7431818,
                "end_time": 17.8409091,
                "pitch": 69,
                "velocity": 80,
                "duration": 0.0977273,
                "tempo": 120.0
            },
            {
                "start_time": 17.8431818,
                "end_time": 17.9431818,
                "pitch": 76,
                "velocity": 80,
                "duration": 0.1,
                "tempo": 120.0
            },
            {
                "start_time": 17.9431818,
                "end_time": 18.0409091,
                "pitch": 68,
                "velocity": 80,
                "duration": 0.0977273,
                "tempo": 120.0
            },
            {
                "start_time": 18.0431818,
                "end_time": 18.1431818,
                "pitch": 76,
                "velocity": 80,
                "duration": 0.1,
                "tempo": 120.0
            },
            {
                "start_time": 18.1431818,
                "end_time": 18.2431818,
                "pitch": 64,
                "velocity": 80,
                "duration": 0.1,
                "tempo": 120.0
            },
            {
                "start_time": 18.2431818,
                "end_time": 18.3431818,
                "pitch": 76,
                "velocity": 80,
                "duration": 0.1,
                "tempo": 120.0
            },
            {
                "start_time": 18.3454545,
                "end_time": 18.4454545,
                "pitch": 74,
                "velocity": 80,
                "duration": 0.1,
                "tempo": 120.0
            },
            {
                "start_time": 18.4454545,
                "end_time": 18.5454545,
                "pitch": 76,
                "velocity": 80,
                "duration": 0.1,
                "tempo": 120.0
            },
            {
                "start_time": 18.5454545,
                "end_time": 18.6454545,
                "pitch": 72,
                "velocity": 80,
                "duration": 0.1,
                "tempo": 120.0
            },
            {
                "start_time": 18.6454545,
                "end_time": 18.7454545,
                "pitch": 76,
                "velocity": 80,
                "duration": 0.1,
                "tempo": 120.0
            },
            {
                "start_time": 18.7477273,
                "end_time": 18.8454545,
                "pitch": 71,
                "velocity": 80,
                "duration": 0.0977273,
                "tempo": 120.0
            },
            {
                "start_time": 18.8454545,
                "end_time": 18.9454545,
                "pitch": 76,
                "velocity": 80,
                "duration": 0.1,
                "tempo": 120.0
            },
            {
                "start_time": 18.9477273,
                "end_time": 19.0477273,
                "pitch": 69,
                "velocity": 80,
                "duration": 0.1,
                "tempo": 120.0
            },
            {
                "start_time": 19.05,
                "end_time": 19.1522727,
                "pitch": 76,
                "velocity": 80,
                "duration": 0.1022727,
                "tempo": 120.0
            },
            {
                "start_time": 19.1522727,
                "end_time": 19.2545455,
                "pitch": 68,
                "velocity": 80,
                "duration": 0.1022727,
                "tempo": 120.0
            },
            {
                "start_time": 19.2545455,
                "end_time": 19.3590909,
                "pitch": 76,
                "velocity": 80,
                "duration": 0.1045455,
                "tempo": 120.0
            },
            {
                "start_time": 19.3590909,
                "end_time": 19.4590909,
                "pitch": 74,
                "velocity": 80,
                "duration": 0.1,
                "tempo": 120.0
            },
            {
                "start_time": 19.4590909,
                "end_time": 19.5590909,
                "pitch": 76,
                "velocity": 80,
                "duration": 0.1,
                "tempo": 120.0
            },
            {
                "start_time": 19.5590909,
                "end_time": 19.6590909,
                "pitch": 74,
                "velocity": 80,
                "duration": 0.1,
                "tempo": 120.0
            },
            {
                "start_time": 19.6613636,
                "end_time": 19.7613636,
                "pitch": 76,
                "velocity": 80,
                "duration": 0.1,
                "tempo": 120.0
            },
            {
                "start_time": 19.7613636,
                "end_time": 19.8590909,
                "pitch": 72,
                "velocity": 80,
                "duration": 0.0977273,
                "tempo": 120.0
            },
            {
                "start_time": 19.8590909,
                "end_time": 19.9568182,
                "pitch": 76,
                "velocity": 80,
                "duration": 0.0977273,
                "tempo": 120.0
            },
            {
                "start_time": 19.9568182,
                "end_time": 20.0545455,
                "pitch": 71,
                "velocity": 80,
                "duration": 0.0977273,
                "tempo": 120.0
            },
            {
                "start_time": 20.0545455,
                "end_time": 20.1522727,
                "pitch": 76,
                "velocity": 80,
                "duration": 0.0977273,
                "tempo": 120.0
            },
            {
                "start_time": 20.1545455,
                "end_time": 20.2545455,
                "pitch": 69,
                "velocity": 80,
                "duration": 0.1,
                "tempo": 120.0
            },
            {
                "start_time": 20.2568182,
                "end_time": 20.3590909,
                "pitch": 76,
                "velocity": 80,
                "duration": 0.1022727,
                "tempo": 120.0
            },
            {
                "start_time": 20.3590909,
                "end_time": 20.4613636,
                "pitch": 67,
                "velocity": 80,
                "duration": 0.1022727,
                "tempo": 120.0
            },
            {
                "start_time": 20.4613636,
                "end_time": 20.5636364,
                "pitch": 76,
                "velocity": 80,
                "duration": 0.1022727,
                "tempo": 120.0
            },
            {
                "start_time": 20.5659091,
                "end_time": 20.6659091,
                "pitch": 74,
                "velocity": 80,
                "duration": 0.1,
                "tempo": 120.0
            },
            {
                "start_time": 20.6659091,
                "end_time": 20.7659091,
                "pitch": 76,
                "velocity": 80,
                "duration": 0.1,
                "tempo": 120.0
            },
            {
                "start_time": 20.7659091,
                "end_time": 20.8659091,
                "pitch": 74,
                "velocity": 80,
                "duration": 0.1,
                "tempo": 120.0
            },
            {
                "start_time": 20.8681818,
                "end_time": 20.9681818,
                "pitch": 76,
                "velocity": 80,
                "duration": 0.1,
                "tempo": 120.0
            },
            {
                "start_time": 20.9681818,
                "end_time": 21.0681818,
                "pitch": 72,
                "velocity": 80,
                "duration": 0.1,
                "tempo": 120.0
            },
            {
                "start_time": 21.0681818,
                "end_time": 21.1681818,
                "pitch": 76,
                "velocity": 80,
                "duration": 0.1,
                "tempo": 120.0
            },
            {
                "start_time": 21.1681818,
                "end_time": 21.2681818,
                "pitch": 71,
                "velocity": 80,
                "duration": 0.1,
                "tempo": 120.0
            },
            {
                "start_time": 21.2681818,
                "end_time": 21.3681818,
                "pitch": 76,
                "velocity": 80,
                "duration": 0.1,
                "tempo": 120.0
            },
            {
                "start_time": 21.3704545,
                "end_time": 21.4681818,
                "pitch": 69,
                "velocity": 80,
                "duration": 0.0977273,
                "tempo": 120.0
            },
            {
                "start_time": 21.4704545,
                "end_time": 21.5704545,
                "pitch": 76,
                "velocity": 80,
                "duration": 0.1,
                "tempo": 120.0
            },
            {
                "start_time": 21.5704545,
                "end_time": 21.6704545,
                "pitch": 67,
                "velocity": 80,
                "duration": 0.1,
                "tempo": 120.0
            },
            {
                "start_time": 21.6704545,
                "end_time": 21.7727273,
                "pitch": 76,
                "velocity": 80,
                "duration": 0.1022727,
                "tempo": 120.0
            },
            {
                "start_time": 21.7727273,
                "end_time": 21.8704545,
                "pitch": 76,
                "velocity": 80,
                "duration": 0.0977273,
                "tempo": 120.0
            },
            {
                "start_time": 21.8727273,
                "end_time": 21.9704545,
                "pitch": 76,
                "velocity": 80,
                "duration": 0.0977273,
                "tempo": 120.0
            },
            {
                "start_time": 21.9727273,
                "end_time": 22.0727273,
                "pitch": 74,
                "velocity": 80,
                "duration": 0.1,
                "tempo": 120.0
            },
            {
                "start_time": 22.0727273,
                "end_time": 22.1727273,
                "pitch": 76,
                "velocity": 80,
                "duration": 0.1,
                "tempo": 120.0
            },
            {
                "start_time": 22.1727273,
                "end_time": 22.2727273,
                "pitch": 72,
                "velocity": 80,
                "duration": 0.1,
                "tempo": 120.0
            },
            {
                "start_time": 22.2727273,
                "end_time": 22.3727273,
                "pitch": 76,
                "velocity": 80,
                "duration": 0.1,
                "tempo": 120.0
            },
            {
                "start_time": 22.3727273,
                "end_time": 22.4727273,
                "pitch": 71,
                "velocity": 80,
                "duration": 0.1,
                "tempo": 120.0
            },
            {
                "start_time": 22.4727273,
                "end_time": 22.5727273,
                "pitch": 76,
                "velocity": 80,
                "duration": 0.1,
                "tempo": 120.0
            },
            {
                "start_time": 22.5727273,
                "end_time": 22.6727273,
                "pitch": 69,
                "velocity": 80,
                "duration": 0.1,
                "tempo": 120.0
            },
            {
                "start_time": 22.675,
                "end_time": 22.775,
                "pitch": 76,
                "velocity": 80,
                "duration": 0.1,
                "tempo": 120.0
            },
            {
                "start_time": 22.775,
                "end_time": 22.875,
                "pitch": 67,
                "velocity": 80,
                "duration": 0.1,
                "tempo": 120.0
            },
            {
                "start_time": 22.875,
                "end_time": 22.9772727,
                "pitch": 76,
                "velocity": 80,
                "duration": 0.1022727,
                "tempo": 120.0
            },
            {
                "start_time": 22.9772727,
                "end_time": 23.075,
                "pitch": 76,
                "velocity": 80,
                "duration": 0.0977273,
                "tempo": 120.0
            },
            {
                "start_time": 23.0772727,
                "end_time": 23.175,
                "pitch": 76,
                "velocity": 80,
                "duration": 0.0977273,
                "tempo": 120.0
            },
            {
                "start_time": 23.1772727,
                "end_time": 23.275,
                "pitch": 74,
                "velocity": 80,
                "duration": 0.0977273,
                "tempo": 120.0
            },
            {
                "start_time": 23.2772727,
                "end_time": 23.375,
                "pitch": 76,
                "velocity": 80,
                "duration": 0.0977273,
                "tempo": 120.0
            },
            {
                "start_time": 23.3772727,
                "end_time": 23.4772727,
                "pitch": 72,
                "velocity": 80,
                "duration": 0.1,
                "tempo": 120.0
            },
            {
                "start_time": 23.4772727,
                "end_time": 23.5772727,
                "pitch": 76,
                "velocity": 80,
                "duration": 0.1,
                "tempo": 120.0
            },
            {
                "start_time": 23.5795455,
                "end_time": 23.6795455,
                "pitch": 71,
                "velocity": 80,
                "duration": 0.1,
                "tempo": 120.0
            },
            {
                "start_time": 23.6795455,
                "end_time": 23.7795455,
                "pitch": 76,
                "velocity": 80,
                "duration": 0.1,
                "tempo": 120.0
            },
            {
                "start_time": 23.7795455,
                "end_time": 23.8795455,
                "pitch": 69,
                "velocity": 80,
                "duration": 0.1,
                "tempo": 120.0
            },
            {
                "start_time": 23.8795455,
                "end_time": 23.9795455,
                "pitch": 76,
                "velocity": 80,
                "duration": 0.1,
                "tempo": 120.0
            },
            {
                "start_time": 23.9818182,
                "end_time": 24.0795455,
                "pitch": 67,
                "velocity": 80,
                "duration": 0.0977273,
                "tempo": 120.0
            },
            {
                "start_time": 24.0795455,
                "end_time": 24.1795455,
                "pitch": 76,
                "velocity": 80,
                "duration": 0.1,
                "tempo": 120.0
            },
            {
                "start_time": 24.1818182,
                "end_time": 24.2795455,
                "pitch": 69,
                "velocity": 80,
                "duration": 0.0977273,
                "tempo": 120.0
            },
            {
                "start_time": 24.2818182,
                "end_time": 24.3795455,
                "pitch": 76,
                "velocity": 80,
                "duration": 0.0977273,
                "tempo": 120.0
            },
            {
                "start_time": 24.3818182,
                "end_time": 24.4795455,
                "pitch": 74,
                "velocity": 80,
                "duration": 0.0977273,
                "tempo": 120.0
            },
            {
                "start_time": 24.4818182,
                "end_time": 24.5795455,
                "pitch": 76,
                "velocity": 80,
                "duration": 0.0977273,
                "tempo": 120.0
            },
            {
                "start_time": 24.5818182,
                "end_time": 24.6818182,
                "pitch": 72,
                "velocity": 80,
                "duration": 0.1,
                "tempo": 120.0
            },
            {
                "start_time": 24.6818182,
                "end_time": 24.7818182,
                "pitch": 76,
                "velocity": 80,
                "duration": 0.1,
                "tempo": 120.0
            },
            {
                "start_time": 24.7818182,
                "end_time": 24.8818182,
                "pitch": 71,
                "velocity": 80,
                "duration": 0.1,
                "tempo": 120.0
            },
            {
                "start_time": 24.8840909,
                "end_time": 24.9840909,
                "pitch": 76,
                "velocity": 80,
                "duration": 0.1,
                "tempo": 120.0
            },
            {
                "start_time": 24.9840909,
                "end_time": 25.0840909,
                "pitch": 69,
                "velocity": 80,
                "duration": 0.1,
                "tempo": 120.0
            },
            {
                "start_time": 25.0840909,
                "end_time": 25.1840909,
                "pitch": 76,
                "velocity": 80,
                "duration": 0.1,
                "tempo": 120.0
            },
            {
                "start_time": 25.1840909,
                "end_time": 25.2840909,
                "pitch": 67,
                "velocity": 80,
                "duration": 0.1,
                "tempo": 120.0
            },
            {
                "start_time": 25.2840909,
                "end_time": 25.3840909,
                "pitch": 76,
                "velocity": 80,
                "duration": 0.1,
                "tempo": 120.0
            },
            {
                "start_time": 25.3863636,
                "end_time": 25.4840909,
                "pitch": 69,
                "velocity": 80,
                "duration": 0.0977273,
                "tempo": 120.0
            },
            {
                "start_time": 25.4863636,
                "end_time": 25.5863636,
                "pitch": 76,
                "velocity": 80,
                "duration": 0.1,
                "tempo": 120.0
            },
            {
                "start_time": 25.5863636,
                "end_time": 25.6863636,
                "pitch": 74,
                "velocity": 80,
                "duration": 0.1,
                "tempo": 120.0
            },
            {
                "start_time": 25.6863636,
                "end_time": 25.7863636,
                "pitch": 76,
                "velocity": 80,
                "duration": 0.1,
                "tempo": 120.0
            },
            {
                "start_time": 25.7886364,
                "end_time": 25.8863636,
                "pitch": 72,
                "velocity": 80,
                "duration": 0.0977273,
                "tempo": 120.0
            },
            {
                "start_time": 25.8886364,
                "end_time": 25.9863636,
                "pitch": 76,
                "velocity": 80,
                "duration": 0.0977273,
                "tempo": 120.0
            },
            {
                "start_time": 25.9886364,
                "end_time": 26.0886364,
                "pitch": 71,
                "velocity": 80,
                "duration": 0.1,
                "tempo": 120.0
            },
            {
                "start_time": 26.0886364,
                "end_time": 26.1886364,
                "pitch": 76,
                "velocity": 80,
                "duration": 0.1,
                "tempo": 120.0
            },
            {
                "start_time": 26.1886364,
                "end_time": 26.2886364,
                "pitch": 69,
                "velocity": 80,
                "duration": 0.1,
                "tempo": 120.0
            },
            {
                "start_time": 26.2886364,
                "end_time": 26.3886364,
                "pitch": 76,
                "velocity": 80,
                "duration": 0.1,
                "tempo": 120.0
            },
            {
                "start_time": 26.3886364,
                "end_time": 26.4886364,
                "pitch": 67,
                "velocity": 80,
                "duration": 0.1,
                "tempo": 120.0
            },
            {
                "start_time": 26.4886364,
                "end_time": 26.5886364,
                "pitch": 76,
                "velocity": 80,
                "duration": 0.1,
                "tempo": 120.0
            },
            {
                "start_time": 26.5909091,
                "end_time": 26.6909091,
                "pitch": 65,
                "velocity": 80,
                "duration": 0.1,
                "tempo": 120.0
            },
            {
                "start_time": 26.6909091,
                "end_time": 26.7931818,
                "pitch": 76,
                "velocity": 80,
                "duration": 0.1022727,
                "tempo": 120.0
            },
            {
                "start_time": 26.7954545,
                "end_time": 26.8977273,
                "pitch": 74,
                "velocity": 80,
                "duration": 0.1022727,
                "tempo": 120.0
            },
            {
                "start_time": 26.8977273,
                "end_time": 27.0,
                "pitch": 76,
                "velocity": 80,
                "duration": 0.1022727,
                "tempo": 120.0
            },
            {
                "start_time": 27.0,
                "end_time": 27.0977273,
                "pitch": 72,
                "velocity": 80,
                "duration": 0.0977273,
                "tempo": 120.0
            },
            {
                "start_time": 27.0977273,
                "end_time": 27.1954545,
                "pitch": 76,
                "velocity": 80,
                "duration": 0.0977273,
                "tempo": 120.0
            },
            {
                "start_time": 27.1954545,
                "end_time": 27.2931818,
                "pitch": 71,
                "velocity": 80,
                "duration": 0.0977273,
                "tempo": 120.0
            },
            {
                "start_time": 27.2954545,
                "end_time": 27.3909091,
                "pitch": 76,
                "velocity": 80,
                "duration": 0.0954545,
                "tempo": 120.0
            },
            {
                "start_time": 27.3931818,
                "end_time": 27.4954545,
                "pitch": 69,
                "velocity": 80,
                "duration": 0.1022727,
                "tempo": 120.0
            },
            {
                "start_time": 27.4954545,
                "end_time": 27.5977273,
                "pitch": 76,
                "velocity": 80,
                "duration": 0.1022727,
                "tempo": 120.0
            },
            {
                "start_time": 27.5977273,
                "end_time": 27.7,
                "pitch": 67,
                "velocity": 80,
                "duration": 0.1022727,
                "tempo": 120.0
            },
            {
                "start_time": 27.7022727,
                "end_time": 27.8045455,
                "pitch": 76,
                "velocity": 80,
                "duration": 0.1022727,
                "tempo": 120.0
            },
            {
                "start_time": 27.8045455,
                "end_time": 27.9045455,
                "pitch": 65,
                "velocity": 80,
                "duration": 0.1,
                "tempo": 120.0
            },
            {
                "start_time": 27.9045455,
                "end_time": 28.0045455,
                "pitch": 76,
                "velocity": 80,
                "duration": 0.1,
                "tempo": 120.0
            },
            {
                "start_time": 28.0068182,
                "end_time": 28.1068182,
                "pitch": 74,
                "velocity": 80,
                "duration": 0.1,
                "tempo": 120.0
            },
            {
                "start_time": 28.1068182,
                "end_time": 28.2068182,
                "pitch": 76,
                "velocity": 80,
                "duration": 0.1,
                "tempo": 120.0
            },
            {
                "start_time": 28.2068182,
                "end_time": 28.3068182,
                "pitch": 72,
                "velocity": 80,
                "duration": 0.1,
                "tempo": 120.0
            },
            {
                "start_time": 28.3068182,
                "end_time": 28.4068182,
                "pitch": 76,
                "velocity": 80,
                "duration": 0.1,
                "tempo": 120.0
            },
            {
                "start_time": 28.4068182,
                "end_time": 28.5068182,
                "pitch": 71,
                "velocity": 80,
                "duration": 0.1,
                "tempo": 120.0
            },
            {
                "start_time": 28.5068182,
                "end_time": 28.6068182,
                "pitch": 76,
                "velocity": 80,
                "duration": 0.1,
                "tempo": 120.0
            },
            {
                "start_time": 28.6090909,
                "end_time": 28.7068182,
                "pitch": 69,
                "velocity": 80,
                "duration": 0.0977273,
                "tempo": 120.0
            },
            {
                "start_time": 28.7090909,
                "end_time": 28.8068182,
                "pitch": 76,
                "velocity": 80,
                "duration": 0.0977273,
                "tempo": 120.0
            },
            {
                "start_time": 28.8090909,
                "end_time": 28.9068182,
                "pitch": 67,
                "velocity": 80,
                "duration": 0.0977273,
                "tempo": 120.0
            },
            {
                "start_time": 28.9090909,
                "end_time": 29.0090909,
                "pitch": 76,
                "velocity": 80,
                "duration": 0.1,
                "tempo": 120.0
            },
            {
                "start_time": 29.0090909,
                "end_time": 29.1090909,
                "pitch": 67,
                "velocity": 80,
                "duration": 0.1,
                "tempo": 120.0
            },
            {
                "start_time": 29.1090909,
                "end_time": 29.2090909,
                "pitch": 76,
                "velocity": 80,
                "duration": 0.1,
                "tempo": 120.0
            },
            {
                "start_time": 29.2090909,
                "end_time": 29.3090909,
                "pitch": 74,
                "velocity": 80,
                "duration": 0.1,
                "tempo": 120.0
            },
            {
                "start_time": 29.3113636,
                "end_time": 29.4113636,
                "pitch": 76,
                "velocity": 80,
                "duration": 0.1,
                "tempo": 120.0
            },
            {
                "start_time": 29.4113636,
                "end_time": 29.5113636,
                "pitch": 72,
                "velocity": 80,
                "duration": 0.1,
                "tempo": 120.0
            },
            {
                "start_time": 29.5113636,
                "end_time": 29.6113636,
                "pitch": 76,
                "velocity": 80,
                "duration": 0.1,
                "tempo": 120.0
            },
            {
                "start_time": 29.6113636,
                "end_time": 29.7113636,
                "pitch": 71,
                "velocity": 80,
                "duration": 0.1,
                "tempo": 120.0
            },
            {
                "start_time": 29.7113636,
                "end_time": 29.8113636,
                "pitch": 76,
                "velocity": 80,
                "duration": 0.1,
                "tempo": 120.0
            },
            {
                "start_time": 29.8113636,
                "end_time": 29.9113636,
                "pitch": 69,
                "velocity": 80,
                "duration": 0.1,
                "tempo": 120.0
            },
            {
                "start_time": 29.9136364,
                "end_time": 30.0136364,
                "pitch": 76,
                "velocity": 80,
                "duration": 0.1,
                "tempo": 120.0
            },
            {
                "start_time": 30.0136364,
                "end_time": 30.1136364,
                "pitch": 67,
                "velocity": 80,
                "duration": 0.1,
                "tempo": 120.0
            },
            {
                "start_time": 30.1136364,
                "end_time": 30.2159091,
                "pitch": 76,
                "velocity": 80,
                "duration": 0.1022727,
                "tempo": 120.0
            },
            {
                "start_time": 30.2159091,
                "end_time": 30.3136364,
                "pitch": 67,
                "velocity": 80,
                "duration": 0.0977273,
                "tempo": 120.0
            },
            {
                "start_time": 30.3159091,
                "end_time": 30.4136364,
                "pitch": 76,
                "velocity": 80,
                "duration": 0.0977273,
                "tempo": 120.0
            },
            {
                "start_time": 30.4159091,
                "end_time": 30.5159091,
                "pitch": 74,
                "velocity": 80,
                "duration": 0.1,
                "tempo": 120.0
            },
            {
                "start_time": 30.5159091,
                "end_time": 30.6159091,
                "pitch": 76,
                "velocity": 80,
                "duration": 0.1,
                "tempo": 120.0
            },
            {
                "start_time": 30.6159091,
                "end_time": 30.7159091,
                "pitch": 72,
                "velocity": 80,
                "duration": 0.1,
                "tempo": 120.0
            },
            {
                "start_time": 30.7159091,
                "end_time": 30.8159091,
                "pitch": 76,
                "velocity": 80,
                "duration": 0.1,
                "tempo": 120.0
            },
            {
                "start_time": 30.8159091,
                "end_time": 30.9159091,
                "pitch": 71,
                "velocity": 80,
                "duration": 0.1,
                "tempo": 120.0
            },
            {
                "start_time": 30.9159091,
                "end_time": 31.0159091,
                "pitch": 76,
                "velocity": 80,
                "duration": 0.1,
                "tempo": 120.0
            },
            {
                "start_time": 31.0159091,
                "end_time": 31.1159091,
                "pitch": 69,
                "velocity": 80,
                "duration": 0.1,
                "tempo": 120.0
            },
            {
                "start_time": 31.1181818,
                "end_time": 31.2181818,
                "pitch": 76,
                "velocity": 80,
                "duration": 0.1,
                "tempo": 120.0
            },
            {
                "start_time": 31.2181818,
                "end_time": 31.3181818,
                "pitch": 67,
                "velocity": 80,
                "duration": 0.1,
                "tempo": 120.0
            },
            {
                "start_time": 31.3181818,
                "end_time": 31.4204545,
                "pitch": 76,
                "velocity": 80,
                "duration": 0.1022727,
                "tempo": 120.0
            },
            {
                "start_time": 31.4204545,
                "end_time": 31.5181818,
                "pitch": 74,
                "velocity": 80,
                "duration": 0.0977273,
                "tempo": 120.0
            },
            {
                "start_time": 31.5204545,
                "end_time": 31.6181818,
                "pitch": 76,
                "velocity": 80,
                "duration": 0.0977273,
                "tempo": 120.0
            },
            {
                "start_time": 31.6204545,
                "end_time": 31.7181818,
                "pitch": 74,
                "velocity": 80,
                "duration": 0.0977273,
                "tempo": 120.0
            },
            {
                "start_time": 31.7204545,
                "end_time": 31.8181818,
                "pitch": 76,
                "velocity": 80,
                "duration": 0.0977273,
                "tempo": 120.0
            },
            {
                "start_time": 31.8204545,
                "end_time": 31.9204545,
                "pitch": 72,
                "velocity": 80,
                "duration": 0.1,
                "tempo": 120.0
            },
            {
                "start_time": 31.9204545,
                "end_time": 32.0204545,
                "pitch": 76,
                "velocity": 80,
                "duration": 0.1,
                "tempo": 120.0
            },
            {
                "start_time": 32.0227273,
                "end_time": 32.1227273,
                "pitch": 71,
                "velocity": 80,
                "duration": 0.1,
                "tempo": 120.0
            },
            {
                "start_time": 32.1227273,
                "end_time": 32.2227273,
                "pitch": 76,
                "velocity": 80,
                "duration": 0.1,
                "tempo": 120.0
            },
            {
                "start_time": 32.2227273,
                "end_time": 32.3227273,
                "pitch": 69,
                "velocity": 80,
                "duration": 0.1,
                "tempo": 120.0
            },
            {
                "start_time": 32.3227273,
                "end_time": 32.4227273,
                "pitch": 76,
                "velocity": 80,
                "duration": 0.1,
                "tempo": 120.0
            },
            {
                "start_time": 32.4227273,
                "end_time": 32.5227273,
                "pitch": 67,
                "velocity": 80,
                "duration": 0.1,
                "tempo": 120.0
            },
            {
                "start_time": 32.5227273,
                "end_time": 32.6227273,
                "pitch": 76,
                "velocity": 80,
                "duration": 0.1,
                "tempo": 120.0
            },
            {
                "start_time": 32.625,
                "end_time": 32.7227273,
                "pitch": 74,
                "velocity": 80,
                "duration": 0.0977273,
                "tempo": 120.0
            },
            {
                "start_time": 32.725,
                "end_time": 32.8227273,
                "pitch": 76,
                "velocity": 80,
                "duration": 0.0977273,
                "tempo": 120.0
            },
            {
                "start_time": 32.825,
                "end_time": 32.9227273,
                "pitch": 74,
                "velocity": 80,
                "duration": 0.0977273,
                "tempo": 120.0
            },
            {
                "start_time": 32.925,
                "end_time": 33.0227273,
                "pitch": 76,
                "velocity": 80,
                "duration": 0.0977273,
                "tempo": 120.0
            },
            {
                "start_time": 33.025,
                "end_time": 33.1227273,
                "pitch": 72,
                "velocity": 80,
                "duration": 0.0977273,
                "tempo": 120.0
            },
            {
                "start_time": 33.125,
                "end_time": 33.225,
                "pitch": 76,
                "velocity": 80,
                "duration": 0.1,
                "tempo": 120.0
            },
            {
                "start_time": 33.225,
                "end_time": 33.325,
                "pitch": 71,
                "velocity": 80,
                "duration": 0.1,
                "tempo": 120.0
            },
            {
                "start_time": 33.325,
                "end_time": 33.425,
                "pitch": 76,
                "velocity": 80,
                "duration": 0.1,
                "tempo": 120.0
            },
            {
                "start_time": 33.425,
                "end_time": 33.525,
                "pitch": 69,
                "velocity": 80,
                "duration": 0.1,
                "tempo": 120.0
            },
            {
                "start_time": 33.525,
                "end_time": 33.625,
                "pitch": 76,
                "velocity": 80,
                "duration": 0.1,
                "tempo": 120.0
            },
            {
                "start_time": 33.6272727,
                "end_time": 33.7272727,
                "pitch": 67,
                "velocity": 80,
                "duration": 0.1,
                "tempo": 120.0
            },
            {
                "start_time": 33.7272727,
                "end_time": 33.8272727,
                "pitch": 76,
                "velocity": 80,
                "duration": 0.1,
                "tempo": 120.0
            },
            {
                "start_time": 33.8295455,
                "end_time": 33.9272727,
                "pitch": 64,
                "velocity": 80,
                "duration": 0.0977273,
                "tempo": 120.0
            },
            {
                "start_time": 33.9272727,
                "end_time": 34.0272727,
                "pitch": 76,
                "velocity": 80,
                "duration": 0.1,
                "tempo": 120.0
            },
            {
                "start_time": 34.0272727,
                "end_time": 34.1272727,
                "pitch": 74,
                "velocity": 80,
                "duration": 0.1,
                "tempo": 120.0
            },
            {
                "start_time": 34.1295455,
                "end_time": 34.2272727,
                "pitch": 76,
                "velocity": 80,
                "duration": 0.0977273,
                "tempo": 120.0
            },
            {
                "start_time": 34.2295455,
                "end_time": 34.3272727,
                "pitch": 72,
                "velocity": 80,
                "duration": 0.0977273,
                "tempo": 120.0
            },
            {
                "start_time": 34.3295455,
                "end_time": 34.4272727,
                "pitch": 76,
                "velocity": 80,
                "duration": 0.0977273,
                "tempo": 120.0
            },
            {
                "start_time": 34.4295455,
                "end_time": 34.5272727,
                "pitch": 71,
                "velocity": 80,
                "duration": 0.0977273,
                "tempo": 120.0
            },
            {
                "start_time": 34.5295455,
                "end_time": 34.6272727,
                "pitch": 76,
                "velocity": 80,
                "duration": 0.0977273,
                "tempo": 120.0
            },
            {
                "start_time": 34.6295455,
                "end_time": 34.7272727,
                "pitch": 69,
                "velocity": 80,
                "duration": 0.0977273,
                "tempo": 120.0
            },
            {
                "start_time": 34.7295455,
                "end_time": 34.8295455,
                "pitch": 76,
                "velocity": 80,
                "duration": 0.1,
                "tempo": 120.0
            },
            {
                "start_time": 34.8295455,
                "end_time": 34.9295455,
                "pitch": 68,
                "velocity": 80,
                "duration": 0.1,
                "tempo": 120.0
            },
            {
                "start_time": 34.9295455,
                "end_time": 35.0295455,
                "pitch": 76,
                "velocity": 80,
                "duration": 0.1,
                "tempo": 120.0
            },
            {
                "start_time": 35.0295455,
                "end_time": 35.1295455,
                "pitch": 64,
                "velocity": 80,
                "duration": 0.1,
                "tempo": 120.0
            },
            {
                "start_time": 35.1295455,
                "end_time": 35.2295455,
                "pitch": 76,
                "velocity": 80,
                "duration": 0.1,
                "tempo": 120.0
            },
            {
                "start_time": 35.2295455,
                "end_time": 35.3295455,
                "pitch": 74,
                "velocity": 80,
                "duration": 0.1,
                "tempo": 120.0
            },
            {
                "start_time": 35.3295455,
                "end_time": 35.4295455,
                "pitch": 76,
                "velocity": 80,
                "duration": 0.1,
                "tempo": 120.0
            },
            {
                "start_time": 35.4295455,
                "end_time": 35.5295455,
                "pitch": 72,
                "velocity": 80,
                "duration": 0.1,
                "tempo": 120.0
            },
            {
                "start_time": 35.5318182,
                "end_time": 35.6318182,
                "pitch": 76,
                "velocity": 80,
                "duration": 0.1,
                "tempo": 120.0
            },
            {
                "start_time": 35.6318182,
                "end_time": 35.7318182,
                "pitch": 71,
                "velocity": 80,
                "duration": 0.1,
                "tempo": 120.0
            },
            {
                "start_time": 35.7318182,
                "end_time": 35.8340909,
                "pitch": 76,
                "velocity": 80,
                "duration": 0.1022727,
                "tempo": 120.0
            },
            {
                "start_time": 35.8340909,
                "end_time": 35.9363636,
                "pitch": 69,
                "velocity": 80,
                "duration": 0.1022727,
                "tempo": 120.0
            },
            {
                "start_time": 35.9363636,
                "end_time": 36.0386364,
                "pitch": 76,
                "velocity": 80,
                "duration": 0.1022727,
                "tempo": 120.0
            },
            {
                "start_time": 36.0386364,
                "end_time": 36.1409091,
                "pitch": 68,
                "velocity": 80,
                "duration": 0.1022727,
                "tempo": 120.0
            },
            {
                "start_time": 36.1409091,
                "end_time": 36.2454545,
                "pitch": 76,
                "velocity": 80,
                "duration": 0.1045455,
                "tempo": 120.0
            },
            {
                "start_time": 36.2454545,
                "end_time": 36.3431818,
                "pitch": 64,
                "velocity": 80,
                "duration": 0.0977273,
                "tempo": 120.0
            },
            {
                "start_time": 36.3454545,
                "end_time": 36.4431818,
                "pitch": 76,
                "velocity": 80,
                "duration": 0.0977273,
                "tempo": 120.0
            },
            {
                "start_time": 36.4454545,
                "end_time": 36.5454545,
                "pitch": 74,
                "velocity": 80,
                "duration": 0.1,
                "tempo": 120.0
            },
            {
                "start_time": 36.5454545,
                "end_time": 36.6454545,
                "pitch": 76,
                "velocity": 80,
                "duration": 0.1,
                "tempo": 120.0
            },
            {
                "start_time": 36.6454545,
                "end_time": 36.7454545,
                "pitch": 72,
                "velocity": 80,
                "duration": 0.1,
                "tempo": 120.0
            },
            {
                "start_time": 36.7454545,
                "end_time": 36.8454545,
                "pitch": 76,
                "velocity": 80,
                "duration": 0.1,
                "tempo": 120.0
            },
            {
                "start_time": 36.8454545,
                "end_time": 36.9454545,
                "pitch": 71,
                "velocity": 80,
                "duration": 0.1,
                "tempo": 120.0
            },
            {
                "start_time": 36.9454545,
                "end_time": 37.0454545,
                "pitch": 76,
                "velocity": 80,
                "duration": 0.1,
                "tempo": 120.0
            },
            {
                "start_time": 37.0454545,
                "end_time": 37.1454545,
                "pitch": 69,
                "velocity": 80,
                "duration": 0.1,
                "tempo": 120.0
            },
            {
                "start_time": 37.1477273,
                "end_time": 37.2477273,
                "pitch": 76,
                "velocity": 80,
                "duration": 0.1,
                "tempo": 120.0
            },
            {
                "start_time": 37.2477273,
                "end_time": 37.3477273,
                "pitch": 68,
                "velocity": 80,
                "duration": 0.1,
                "tempo": 120.0
            },
            {
                "start_time": 37.3477273,
                "end_time": 37.4477273,
                "pitch": 76,
                "velocity": 80,
                "duration": 0.1,
                "tempo": 120.0
            },
            {
                "start_time": 37.45,
                "end_time": 37.5477273,
                "pitch": 64,
                "velocity": 80,
                "duration": 0.0977273,
                "tempo": 120.0
            },
            {
                "start_time": 37.55,
                "end_time": 37.6477273,
                "pitch": 76,
                "velocity": 80,
                "duration": 0.0977273,
                "tempo": 120.0
            },
            {
                "start_time": 37.65,
                "end_time": 37.7477273,
                "pitch": 74,
                "velocity": 80,
                "duration": 0.0977273,
                "tempo": 120.0
            },
            {
                "start_time": 37.75,
                "end_time": 37.8477273,
                "pitch": 76,
                "velocity": 80,
                "duration": 0.0977273,
                "tempo": 120.0
            },
            {
                "start_time": 37.85,
                "end_time": 37.95,
                "pitch": 72,
                "velocity": 80,
                "duration": 0.1,
                "tempo": 120.0
            },
            {
                "start_time": 37.95,
                "end_time": 38.05,
                "pitch": 76,
                "velocity": 80,
                "duration": 0.1,
                "tempo": 120.0
            },
            {
                "start_time": 38.05,
                "end_time": 38.15,
                "pitch": 71,
                "velocity": 80,
                "duration": 0.1,
                "tempo": 120.0
            },
            {
                "start_time": 38.15,
                "end_time": 38.25,
                "pitch": 76,
                "velocity": 80,
                "duration": 0.1,
                "tempo": 120.0
            },
            {
                "start_time": 38.25,
                "end_time": 38.35,
                "pitch": 69,
                "velocity": 80,
                "duration": 0.1,
                "tempo": 120.0
            },
            {
                "start_time": 38.35,
                "end_time": 38.45,
                "pitch": 76,
                "velocity": 80,
                "duration": 0.1,
                "tempo": 120.0
            },
            {
                "start_time": 38.45,
                "end_time": 38.55,
                "pitch": 68,
                "velocity": 80,
                "duration": 0.1,
                "tempo": 120.0
            },
            {
                "start_time": 38.55,
                "end_time": 38.65,
                "pitch": 76,
                "velocity": 80,
                "duration": 0.1,
                "tempo": 120.0
            }
        ],
        "Trumpet": [
            {
                "start_time": 0.0340909,
                "end_time": 1.2340909,
                "pitch": 52,
                "velocity": 101,
                "duration": 1.2,
                "tempo": 120.0
            },
            {
                "start_time": 1.2340909,
                "end_time": 2.4340909,
                "pitch": 45,
                "velocity": 101,
                "duration": 1.2,
                "tempo": 120.0
            },
            {
                "start_time": 2.4363636,
                "end_time": 3.4431818,
                "pitch": 47,
                "velocity": 101,
                "duration": 1.0068182,
                "tempo": 120.0
            },
            {
                "start_time": 3.4454545,
                "end_time": 4.4454545,
                "pitch": 43,
                "velocity": 101,
                "duration": 1.0,
                "tempo": 120.0
            },
            {
                "start_time": 4.4454545,
                "end_time": 4.65,
                "pitch": 47,
                "velocity": 101,
                "duration": 0.2045455,
                "tempo": 120.0
            },
            {
                "start_time": 4.6522727,
                "end_time": 4.8568182,
                "pitch": 50,
                "velocity": 101,
                "duration": 0.2045455,
                "tempo": 120.0
            },
            {
                "start_time": 4.8590909,
                "end_time": 6.0613636,
                "pitch": 48,
                "velocity": 101,
                "duration": 1.2022727,
                "tempo": 120.0
            },
            {
                "start_time": 6.0636364,
                "end_time": 7.2681818,
                "pitch": 45,
                "velocity": 101,
                "duration": 1.2045455,
                "tempo": 120.0
            },
            {
                "start_time": 7.2704545,
                "end_time": 8.2727273,
                "pitch": 47,
                "velocity": 101,
                "duration": 1.0022727,
                "tempo": 120.0
            },
            {
                "start_time": 8.2727273,
                "end_time": 9.2795455,
                "pitch": 40,
                "velocity": 101,
                "duration": 1.0068182,
                "tempo": 120.0
            },
            {
                "start_time": 9.2795455,
                "end_time": 9.4795455,
                "pitch": 44,
                "velocity": 101,
                "duration": 0.2,
                "tempo": 120.0
            },
            {
                "start_time": 9.4818182,
                "end_time": 9.6818182,
                "pitch": 47,
                "velocity": 101,
                "duration": 0.2,
                "tempo": 120.0
            },
            {
                "start_time": 9.6840909,
                "end_time": 10.8886364,
                "pitch": 48,
                "velocity": 101,
                "duration": 1.2045455,
                "tempo": 120.0
            },
            {
                "start_time": 10.8909091,
                "end_time": 12.1,
                "pitch": 45,
                "velocity": 101,
                "duration": 1.2090909,
                "tempo": 120.0
            },
            {
                "start_time": 12.1,
                "end_time": 13.1113636,
                "pitch": 43,
                "velocity": 101,
                "duration": 1.0113636,
                "tempo": 120.0
            },
            {
                "start_time": 13.1136364,
                "end_time": 14.1204545,
                "pitch": 47,
                "velocity": 101,
                "duration": 1.0068182,
                "tempo": 120.0
            },
            {
                "start_time": 14.1204545,
                "end_time": 14.3227273,
                "pitch": 53,
                "velocity": 101,
                "duration": 0.2022727,
                "tempo": 120.0
            },
            {
                "start_time": 14.3227273,
                "end_time": 14.5227273,
                "pitch": 50,
                "velocity": 101,
                "duration": 0.2,
                "tempo": 120.0
            },
            {
                "start_time": 14.525,
                "end_time": 15.7318182,
                "pitch": 52,
                "velocity": 101,
                "duration": 1.2068182,
                "tempo": 120.0
            },
            {
                "start_time": 15.7318182,
                "end_time": 16.9386364,
                "pitch": 48,
                "velocity": 101,
                "duration": 1.2068182,
                "tempo": 120.0
            },
            {
                "start_time": 16.9386364,
                "end_time": 17.9409091,
                "pitch": 50,
                "velocity": 101,
                "duration": 1.0022727,
                "tempo": 120.0
            },
            {
                "start_time": 17.9431818,
                "end_time": 18.7454545,
                "pitch": 47,
                "velocity": 101,
                "duration": 0.8022727,
                "tempo": 120.0
            },
            {
                "start_time": 18.7454545,
                "end_time": 18.9454545,
                "pitch": 40,
                "velocity": 101,
                "duration": 0.2,
                "tempo": 120.0
            },
            {
                "start_time": 18.9454545,
                "end_time": 19.15,
                "pitch": 44,
                "velocity": 101,
                "duration": 0.2045455,
                "tempo": 120.0
            },
            {
                "start_time": 19.1522727,
                "end_time": 19.3568182,
                "pitch": 40,
                "velocity": 101,
                "duration": 0.2045455,
                "tempo": 120.0
            },
            {
                "start_time": 19.3590909,
                "end_time": 21.3681818,
                "pitch": 41,
                "velocity": 101,
                "duration": 2.0090909,
                "tempo": 120.0
            },
            {
                "start_time": 21.3681818,
                "end_time": 21.5681818,
                "pitch": 45,
                "velocity": 101,
                "duration": 0.2,
                "tempo": 120.0
            },
            {
                "start_time": 21.5704545,
                "end_time": 21.7704545,
                "pitch": 48,
                "velocity": 101,
                "duration": 0.2,
                "tempo": 120.0
            },
            {
                "start_time": 21.7727273,
                "end_time": 22.975,
                "pitch": 43,
                "velocity": 101,
                "duration": 1.2022727,
                "tempo": 120.0
            },
            {
                "start_time": 22.9772727,
                "end_time": 23.7795455,
                "pitch": 47,
                "velocity": 101,
                "duration": 0.8022727,
                "tempo": 120.0
            },
            {
                "start_time": 23.7795455,
                "end_time": 23.9795455,
                "pitch": 48,
                "velocity": 101,
                "duration": 0.2,
                "tempo": 120.0
            },
            {
                "start_time": 23.9795455,
                "end_time": 24.1795455,
                "pitch": 50,
                "velocity": 101,
                "duration": 0.2,
                "tempo": 120.0
            },
            {
                "start_time": 24.1795455,
                "end_time": 24.9840909,
                "pitch": 52,
                "velocity": 101,
                "duration": 0.8045455,
                "tempo": 120.0
            },
            {
                "start_time": 24.9840909,
                "end_time": 25.1840909,
                "pitch": 50,
                "velocity": 101,
                "duration": 0.2,
                "tempo": 120.0
            },
            {
                "start_time": 25.1840909,
                "end_time": 25.3840909,
                "pitch": 48,
                "velocity": 101,
                "duration": 0.2,
                "tempo": 120.0
            },
            {
                "start_time": 25.3840909,
                "end_time": 26.1863636,
                "pitch": 52,
                "velocity": 101,
                "duration": 0.8022727,
                "tempo": 120.0
            },
            {
                "start_time": 26.1886364,
                "end_time": 26.3863636,
                "pitch": 50,
                "velocity": 101,
                "duration": 0.1977273,
                "tempo": 120.0
            },
            {
                "start_time": 26.3886364,
                "end_time": 26.5886364,
                "pitch": 48,
                "velocity": 101,
                "duration": 0.2,
                "tempo": 120.0
            },
            {
                "start_time": 26.5886364,
                "end_time": 27.8022727,
                "pitch": 52,
                "velocity": 101,
                "duration": 1.2136364,
                "tempo": 120.0
            },
            {
                "start_time": 27.8045455,
                "end_time": 28.6068182,
                "pitch": 45,
                "velocity": 101,
                "duration": 0.8022727,
                "tempo": 120.0
            },
            {
                "start_time": 28.6068182,
                "end_time": 29.0068182,
                "pitch": 48,
                "velocity": 101,
                "duration": 0.4,
                "tempo": 120.0
            },
            {
                "start_time": 29.0090909,
                "end_time": 30.2136364,
                "pitch": 50,
                "velocity": 101,
                "duration": 1.2045455,
                "tempo": 120.0
            },
            {
                "start_time": 30.2159091,
                "end_time": 31.4181818,
                "pitch": 47,
                "velocity": 101,
                "duration": 1.2022727,
                "tempo": 120.0
            },
            {
                "start_time": 31.4204545,
                "end_time": 32.6227273,
                "pitch": 45,
                "velocity": 101,
                "duration": 1.2022727,
                "tempo": 120.0
            },
            {
                "start_time": 32.6227273,
                "end_time": 33.2227273,
                "pitch": 48,
                "velocity": 101,
                "duration": 0.6,
                "tempo": 120.0
            },
            {
                "start_time": 33.225,
                "end_time": 33.8272727,
                "pitch": 47,
                "velocity": 101,
                "duration": 0.6022727,
                "tempo": 120.0
            },
            {
                "start_time": 33.8272727,
                "end_time": 35.8318182,
                "pitch": 50,
                "velocity": 101,
                "duration": 2.0045455,
                "tempo": 120.0
            },
            {
                "start_time": 35.8318182,
                "end_time": 36.0386364,
                "pitch": 52,
                "velocity": 101,
                "duration": 0.2068182,
                "tempo": 120.0
            },
            {
                "start_time": 36.0386364,
                "end_time": 36.2431818,
                "pitch": 53,
                "velocity": 101,
                "duration": 0.2045455,
                "tempo": 120.0
            },
            {
                "start_time": 36.2454545,
                "end_time": 38.2477273,
                "pitch": 50,
                "velocity": 101,
                "duration": 2.0022727,
                "tempo": 120.0
            },
            {
                "start_time": 38.25,
                "end_time": 38.45,
                "pitch": 52,
                "velocity": 101,
                "duration": 0.2,
                "tempo": 120.0
            },
            {
                "start_time": 38.45,
                "end_time": 38.65,
                "pitch": 53,
                "velocity": 101,
                "duration": 0.2,
                "tempo": 120.0
            },
            {
                "start_time": 38.6545455,
                "end_time": 38.6568182,
                "pitch": 52,
                "velocity": 101,
                "duration": 0.0022727,
                "tempo": 120.0
            }
        ]
    }
}