{
    "mood": "angry",
    "instruments": {
        "Violin": [
            {
                "start_time": 0.4818182,
                "end_time": 3.7318182,
                "pitch": 52,
                "velocity": 64,
                "duration": 3.25,
                "tempo": 120.0
            },
            {
                "start_time": 4.1931818,
                "end_time": 7.4590909,
                "pitch": 52,
                "velocity": 64,
                "duration": 3.2659091,
                "tempo": 120.0
            },
            {
                "start_time": 7.9204545,
                "end_time": 11.1840909,
                "pitch": 53,
                "velocity": 64,
                "duration": 3.2636364,
                "tempo": 120.0
            },
            {
                "start_time": 11.6454545,
                "end_time": 14.9045455,
                "pitch": 53,
                "velocity": 64,
                "duration": 3.2590909,
                "tempo": 120.0
            },
            {
                "start_time": 15.3568182,
                "end_time": 18.6227273,
                "pitch": 52,
                "velocity": 64,
                "duration": 3.2659091,
                "tempo": 120.0
            },
            {
                "start_time": 19.0840909,
                "end_time": 22.3386364,
                "pitch": 52,
                "velocity": 64,
                "duration": 3.2545455,
                "tempo": 120.0
            },
            {
                "start_time": 22.8113636,
                "end_time": 26.0659091,
                "pitch": 52,
                "velocity": 64,
                "duration": 3.2545455,
                "tempo": 120.0
            },
            {
                "start_time": 26.5272727,
                "end_time": 29.7909091,
                "pitch": 52,
                "velocity": 64,
                "duration": 3.2636364,
                "tempo": 120.0
            },
            {
                "start_time": 30.2545455,
                "end_time": 33.5068182,
                "pitch": 52,
                "velocity": 64,
                "duration": 3.2522727,
                "tempo": 120.0
            },
            {
                "start_time": 33.9795455,
                "end_time": 37.2340909,
                "pitch": 52,
                "velocity": 64,
                "duration": 3.2545455,
                "tempo": 120.0
            },
            {
                "start_time": 37.6954545,
                "end_time": 40.9568182,
                "pitch": 53,
                "velocity": 64,
                "duration": 3.2613636,
                "tempo": 120.0
            },
            {
                "start_time": 41.4204545,
                "end_time": 44.6840909,
                "pitch": 53,
                "velocity": 64,
                "duration": 3.2636364,
                "tempo": 120.0
            }
        ],
        "Harpsichord": [
            {
                "start_time": 0.0090909,
                "end_time": 0.4818182,
                "pitch": 76,
                "velocity": 51,
                "duration": 0.4727273,
                "tempo": 120.0
            },
            {
                "start_time": 0.4818182,
                "end_time": 0.95,
                "pitch": 64,
                "velocity": 51,
                "duration": 0.4681818,
                "tempo": 120.0
            },
            {
                "start_time": 0.95,
                "end_time": 1.4113636,
                "pitch": 69,
                "velocity": 51,
                "duration": 0.4613636,
                "tempo": 120.0
            },
            {
                "start_time": 1.4113636,
                "end_time": 1.8840909,
                "pitch": 71,
                "velocity": 51,
                "duration": 0.4727273,
                "tempo": 120.0
            },
            {
                "start_time": 1.8840909,
                "end_time": 3.7318182,
                "pitch": 76,
                "velocity": 51,
                "duration": 1.8477273,
                "tempo": 120.0
            },
            {
                "start_time": 3.7318182,
                "end_time": 4.1931818,
                "pitch": 76,
                "velocity": 51,
                "duration": 0.4613636,
                "tempo": 120.0
            },
            {
                "start_time": 4.1931818,
                "end_time": 4.6659091,
                "pitch": 64,
                "velocity": 51,
                "duration": 0.4727273,
                "tempo": 120.0
            },
            {
                "start_time": 4.6659091,
                "end_time": 5.1386364,
                "pitch": 69,
                "velocity": 51,
                "duration": 0.4727273,
                "tempo": 120.0
            },
            {
                "start_time": 5.1386364,
                "end_time": 5.6022727,
                "pitch": 71,
                "velocity": 51,
                "duration": 0.4636364,
                "tempo": 120.0
            },
            {
                "start_time": 5.6022727,
                "end_time": 7.4590909,
                "pitch": 76,
                "velocity": 51,
                "duration": 1.8568182,
                "tempo": 120.0
            },
            {
                "start_time": 7.4590909,
                "end_time": 7.9204545,
                "pitch": 77,
                "velocity": 51,
                "duration": 0.4613636,
                "tempo": 120.0
            },
            {
                "start_time": 7.9204545,
                "end_time": 8.3840909,
                "pitch": 65,
                "velocity": 51,
                "duration": 0.4636364,
                "tempo": 120.0
            },
            {
                "start_time": 8.3840909,
                "end_time": 8.8636364,
                "pitch": 69,
                "velocity": 51,
                "duration": 0.4795455,
                "tempo": 120.0
            },
            {
                "start_time": 8.8636364,
                "end_time": 9.325,
                "pitch": 71,
                "velocity": 51,
                "duration": 0.4613636,
                "tempo": 120.0
            },
            {
                "start_time": 9.325,
                "end_time": 11.1840909,
                "pitch": 77,
                "velocity": 51,
                "duration": 1.8590909,
                "tempo": 120.0
            },
            {
                "start_time": 11.1840909,
                "end_time": 11.6454545,
                "pitch": 77,
                "velocity": 51,
                "duration": 0.4613636,
                "tempo": 120.0
            },
            {
                "start_time": 11.6454545,
                "end_time": 12.1136364,
                "pitch": 65,
                "velocity": 51,
                "duration": 0.4681818,
                "tempo": 120.0
            },
            {
                "start_time": 12.1136364,
                "end_time": 12.575,
                "pitch": 69,
                "velocity": 51,
                "duration": 0.4613636,
                "tempo": 120.0
            },
            {
                "start_time": 12.575,
                "end_time": 13.0477273,
                "pitch": 71,
                "velocity": 51,
                "duration": 0.4727273,
                "tempo": 120.0
            },
            {
                "start_time": 13.0477273,
                "end_time": 14.9045455,
                "pitch": 77,
                "velocity": 51,
                "duration": 1.8568182,
                "tempo": 120.0
            },
            {
                "start_time": 14.9045455,
                "end_time": 15.3568182,
                "pitch": 76,
                "velocity": 51,
                "duration": 0.4522727,
                "tempo": 120.0
            },
            {
                "start_time": 15.3568182,
                "end_time": 15.8295455,
                "pitch": 64,
                "velocity": 51,
                "duration": 0.4727273,
                "tempo": 120.0
            },
            {
                "start_time": 15.8295455,
                "end_time": 16.2909091,
                "pitch": 69,
                "velocity": 51,
                "duration": 0.4613636,
                "tempo": 120.0
            },
            {
                "start_time": 16.2909091,
                "end_time": 16.7636364,
                "pitch": 71,
                "velocity": 51,
                "duration": 0.4727273,
                "tempo": 120.0
            },
            {
                "start_time": 16.7636364,
                "end_time": 18.6227273,
                "pitch": 76,
                "velocity": 51,
                "duration": 1.8590909,
                "tempo": 120.0
            },
            {
                "start_time": 18.6227273,
                "end_time": 19.0840909,
                "pitch": 76,
                "velocity": 51,
                "duration": 0.4613636,
                "tempo": 120.0
            },
            {
                "start_time": 19.0840909,
                "end_time": 19.5454545,
                "pitch": 64,
                "velocity": 51,
                "duration": 0.4613636,
                "tempo": 120.0
            },
            {
                "start_time": 19.5454545,
                "end_time": 20.0181818,
                "pitch": 69,
                "velocity": 51,
                "duration": 0.4727273,
                "tempo": 120.0
            },
            {
                "start_time": 20.0181818,
                "end_time": 20.4795455,
                "pitch": 71,
                "velocity": 51,
                "duration": 0.4613636,
                "tempo": 120.0
            },
            {
                "start_time": 20.4795455,
                "end_time": 22.3386364,
                "pitch": 76,
                "velocity": 51,
                "duration": 1.8590909,
                "tempo": 120.0
            },
            {
                "start_time": 22.3386364,
                "end_time": 22.8113636,
                "pitch": 76,
                "velocity": 51,
                "duration": 0.4727273,
                "tempo": 120.0
            },
            {
                "start_time": 22.8113636,
                "end_time": 23.2727273,
                "pitch": 64,
                "velocity": 51,
                "duration": 0.4613636,
                "tempo": 120.0
            },
            {
                "start_time": 23.2727273,
                "end_time": 23.7340909,
                "pitch": 69,
                "velocity": 51,
                "duration": 0.4613636,
                "tempo": 120.0
            },
            {
                "start_time": 23.7340909,
                "end_time": 24.2068182,
                "pitch": 71,
                "velocity": 51,
                "duration": 0.4727273,
                "tempo": 120.0
            },
            {
                "start_time": 24.2068182,
                "end_time": 26.0659091,
                "pitch": 76,
                "velocity": 51,
                "duration": 1.8590909,
                "tempo": 120.0
            },
            {
                "start_time": 26.0659091,
                "end_time": 26.5272727,
                "pitch": 76,
                "velocity": 51,
                "duration": 0.4613636,
                "tempo": 120.0
            },
            {
                "start_time": 26.5272727,
                "end_time": 26.9977273,
                "pitch": 64,
                "velocity": 51,
                "duration": 0.4704545,
                "tempo": 120.0
            },
            {
                "start_time": 26.9977273,
                "end_time": 27.4613636,
                "pitch": 69,
                "velocity": 51,
                "duration": 0.4636364,
                "tempo": 120.0
            },
            {
                "start_time": 27.4613636,
                "end_time": 27.9340909,
                "pitch": 71,
                "velocity": 51,
                "duration": 0.4727273,
                "tempo": 120.0
            },
            {
                "start_time": 27.9340909,
                "end_time": 29.7909091,
                "pitch": 76,
                "velocity": 51,
                "duration": 1.8568182,
                "tempo": 120.0
            },
            {
                "start_time": 29.7909091,
                "end_time": 30.2545455,
                "pitch": 76,
                "velocity": 51,
                "duration": 0.4636364,
                "tempo": 120.0
            },
            {
                "start_time": 30.2545455,
                "end_time": 30.725,
                "pitch": 64,
                "velocity": 51,
                "duration": 0.4704545,
                "tempo": 120.0
            },
            {
                "start_time": 30.725,
                "end_time": 31.1863636,
                "pitch": 69,
                "velocity": 51,
                "duration": 0.4613636,
                "tempo": 120.0
            },
            {
                "start_time": 31.1863636,
                "end_time": 31.65,
                "pitch": 71,
                "velocity": 51,
                "duration": 0.4636364,
                "tempo": 120.0
            },
            {
                "start_time": 31.65,
                "end_time": 33.5068182,
                "pitch": 76,
                "velocity": 51,
                "duration": 1.8568182,
                "tempo": 120.0
            },
            {
                "start_time": 33.5068182,
                "end_time": 33.9795455,
                "pitch": 76,
                "velocity": 51,
                "duration": 0.4727273,
                "tempo": 120.0
            },
            {
                "start_time": 33.9795455,
                "end_time": 34.4431818,
                "pitch": 64,
                "velocity": 51,
                "duration": 0.4636364,
                "tempo": 120.0
            },
            {
                "start_time": 34.4431818,
                "end_time": 34.9045455,
                "pitch": 69,
                "velocity": 51,
                "duration": 0.4613636,
                "tempo": 120.0
            },
            {
                "start_time": 34.9045455,
                "end_time": 35.3863636,
                "pitch": 71,
                "velocity": 51,
                "duration": 0.4818182,
                "tempo": 120.0
            },
            {
                "start_time": 35.3863636,
                "end_time": 37.2340909,
                "pitch": 76,
                "velocity": 51,
                "duration": 1.8477273,
                "tempo": 120.0
            },
            {
                "start_time": 37.2340909,
                "end_time": 37.6954545,
                "pitch": 77,
                "velocity": 51,
                "duration": 0.4613636,
                "tempo": 120.0
            },
            {
                "start_time": 37.6954545,
                "end_time": 38.175,
                "pitch": 65,
                "velocity": 51,
                "duration": 0.4795455,
                "tempo": 120.0
            },
            {
                "start_time": 38.175,
                "end_time": 38.6386364,
                "pitch": 69,
                "velocity": 51,
                "duration": 0.4636364,
                "tempo": 120.0
            },
            {
                "start_time": 38.6386364,
                "end_time": 39.1,
                "pitch": 71,
                "velocity": 51,
                "duration": 0.4613636,
                "tempo": 120.0
            },
            {
                "start_time": 39.1,
                "end_time": 40.9568182,
                "pitch": 77,
                "velocity": 51,
                "duration": 1.8568182,
                "tempo": 120.0
            },
            {
                "start_time": 40.9568182,
                "end_time": 41.4204545,
                "pitch": 77,
                "velocity": 51,
                "duration": 0.4636364,
                "tempo": 120.0
            },
            {
                "start_time": 41.4204545,
                "end_time": 41.8931818,
                "pitch": 65,
                "velocity": 51,
                "duration": 0.4727273,
                "tempo": 120.0
            },
            {
                "start_time": 41.8931818,
                "end_time": 42.3636364,
                "pitch": 69,
                "velocity": 51,
                "duration": 0.4704545,
                "tempo": 120.0
            },
            {
                "start_time": 42.3636364,
                "end_time": 42.8272727,
                "pitch": 71,
                "velocity": 51,
                "duration": 0.4636364,
                "tempo": 120.0
            },
            {
                "start_time": 42.8272727,
                "end_time": 44.6840909,
                "pitch": 77,
                "velocity": 51,
                "duration": 1.8568182,
                "tempo": 120.0
            }
        ],
        "Electric Piano 1": [
            {
                "start_time": 14.8954545,
                "end_time": 15.1318182,
                "pitch": 62,
                "velocity": 64,
                "duration": 0.2363636,
                "tempo": 120.0
            },
            {
                "start_time": 15.1318182,
                "end_time": 15.3568182,
                "pitch": 64,
                "velocity": 64,
                "duration": 0.225,
                "tempo": 120.0
            },
            {
                "start_time": 15.3568182,
                "end_time": 15.5886364,
                "pitch": 71,
                "velocity": 64,
                "duration": 0.2318182,
                "tempo": 120.0
            },
            {
                "start_time": 15.5886364,
                "end_time": 15.8295455,
                "pitch": 62,
                "velocity": 64,
                "duration": 0.2409091,
                "tempo": 120.0
            },
            {
                "start_time": 15.8295455,
                "end_time": 16.0613636,
                "pitch": 64,
                "velocity": 64,
                "duration": 0.2318182,
                "tempo": 120.0
            },
            {
                "start_time": 16.0613636,
                "end_time": 16.2909091,
                "pitch": 71,
                "velocity": 64,
                "duration": 0.2295455,
                "tempo": 120.0
            },
            {
                "start_time": 16.2909091,
                "end_time": 16.5340909,
                "pitch": 62,
                "velocity": 64,
                "duration": 0.2431818,
                "tempo": 120.0
            },
            {
                "start_time": 16.5340909,
                "end_time": 16.7636364,
                "pitch": 64,
                "velocity": 64,
                "duration": 0.2295455,
                "tempo": 120.0
            },
            {
                "start_time": 16.7636364,
                "end_time": 16.9909091,
                "pitch": 71,
                "velocity": 64,
                "duration": 0.2272727,
                "tempo": 120.0
            },
            {
                "start_time": 16.9909091,
                "end_time": 17.225,
                "pitch": 62,
                "velocity": 64,
                "duration": 0.2340909,
                "tempo": 120.0
            },
            {
                "start_time": 17.225,
                "end_time": 17.4568182,
                "pitch": 64,
                "velocity": 64,
                "duration": 0.2318182,
                "tempo": 120.0
            },
            {
                "start_time": 17.4568182,
                "end_time": 17.6886364,
                "pitch": 71,
                "velocity": 64,
                "duration": 0.2318182,
                "tempo": 120.0
            },
            {
                "start_time": 17.6886364,
                "end_time": 17.9295455,
                "pitch": 62,
                "velocity": 64,
                "duration": 0.2409091,
                "tempo": 120.0
            },
            {
                "start_time": 17.9295455,
                "end_time": 18.1613636,
                "pitch": 64,
                "velocity": 64,
                "duration": 0.2318182,
                "tempo": 120.0
            },
            {
                "start_time": 18.1613636,
                "end_time": 18.3863636,
                "pitch": 71,
                "velocity": 64,
                "duration": 0.225,
                "tempo": 120.0
            },
            {
                "start_time": 18.3863636,
                "end_time": 18.6227273,
                "pitch": 62,
                "velocity": 64,
                "duration": 0.2363636,
                "tempo": 120.0
            },
            {
                "start_time": 18.6227273,
                "end_time": 18.8522727,
                "pitch": 64,
                "velocity": 64,
                "duration": 0.2295455,
                "tempo": 120.0
            },
            {
                "start_time": 18.8522727,
                "end_time": 19.0840909,
                "pitch": 71,
                "velocity": 64,
                "duration": 0.2318182,
                "tempo": 120.0
            },
            {
                "start_time": 19.0840909,
                "end_time": 19.3204545,
                "pitch": 62,
                "velocity": 64,
                "duration": 0.2363636,
                "tempo": 120.0
            },
            {
                "start_time": 19.3204545,
                "end_time": 19.5454545,
                "pitch": 64,
                "velocity": 64,
                "duration": 0.225,
                "tempo": 120.0
            },
            {
                "start_time": 19.5454545,
                "end_time": 19.7772727,
                "pitch": 71,
                "velocity": 64,
                "duration": 0.2318182,
                "tempo": 120.0
            },
            {
                "start_time": 19.7772727,
                "end_time": 20.0181818,
                "pitch": 62,
                "velocity": 64,
                "duration": 0.2409091,
                "tempo": 120.0
            },
            {
                "start_time": 20.0181818,
                "end_time": 20.25,
                "pitch": 64,
                "velocity": 64,
                "duration": 0.2318182,
                "tempo": 120.0
            },
            {
                "start_time": 20.25,
                "end_time": 20.4795455,
                "pitch": 71,
                "velocity": 64,
                "duration": 0.2295455,
                "tempo": 120.0
            },
            {
                "start_time": 20.4795455,
                "end_time": 20.7204545,
                "pitch": 62,
                "velocity": 64,
                "duration": 0.2409091,
                "tempo": 120.0
            },
            {
                "start_time": 20.7204545,
                "end_time": 20.9522727,
                "pitch": 64,
                "velocity": 64,
                "duration": 0.2318182,
                "tempo": 120.0
            },
            {
                "start_time": 20.9522727,
                "end_time": 21.1795455,
                "pitch": 71,
                "velocity": 64,
                "duration": 0.2272727,
                "tempo": 120.0
            },
            {
                "start_time": 21.1795455,
                "end_time": 21.4136364,
                "pitch": 62,
                "velocity": 64,
                "duration": 0.2340909,
                "tempo": 120.0
            },
            {
                "start_time": 21.4136364,
                "end_time": 21.6454545,
                "pitch": 64,
                "velocity": 64,
                "duration": 0.2318182,
                "tempo": 120.0
            },
            {
                "start_time": 21.6454545,
                "end_time": 21.8772727,
                "pitch": 71,
                "velocity": 64,
                "duration": 0.2318182,
                "tempo": 120.0
            },
            {
                "start_time": 21.8772727,
                "end_time": 22.1113636,
                "pitch": 62,
                "velocity": 64,
                "duration": 0.2340909,
                "tempo": 120.0
            },
            {
                "start_time": 22.1113636,
                "end_time": 22.3386364,
                "pitch": 64,
                "velocity": 64,
                "duration": 0.2272727,
                "tempo": 120.0
            },
            {
                "start_time": 22.3386364,
                "end_time": 22.5681818,
                "pitch": 62,
                "velocity": 64,
                "duration": 0.2295455,
                "tempo": 120.0
            },
            {
                "start_time": 22.5681818,
                "end_time": 22.8113636,
                "pitch": 64,
                "velocity": 64,
                "duration": 0.2431818,
                "tempo": 120.0
            },
            {
                "start_time": 22.8113636,
                "end_time": 23.0409091,
                "pitch": 71,
                "velocity": 64,
                "duration": 0.2295455,
                "tempo": 120.0
            },
            {
                "start_time": 23.0409091,
                "end_time": 23.2727273,
                "pitch": 62,
                "velocity": 64,
                "duration": 0.2318182,
                "tempo": 120.0
            },
            {
                "start_time": 23.2727273,
                "end_time": 23.5090909,
                "pitch": 64,
                "velocity": 64,
                "duration": 0.2363636,
                "tempo": 120.0
            },
            {
                "start_time": 23.5090909,
                "end_time": 23.7340909,
                "pitch": 71,
                "velocity": 64,
                "duration": 0.225,
                "tempo": 120.0
            },
            {
                "start_time": 23.7340909,
                "end_time": 23.9659091,
                "pitch": 62,
                "velocity": 64,
                "duration": 0.2318182,
                "tempo": 120.0
            },
            {
                "start_time": 23.9659091,
                "end_time": 24.2068182,
                "pitch": 64,
                "velocity": 64,
                "duration": 0.2409091,
                "tempo": 120.0
            },
            {
                "start_time": 24.2068182,
                "end_time": 24.4386364,
                "pitch": 71,
                "velocity": 64,
                "duration": 0.2318182,
                "tempo": 120.0
            },
            {
                "start_time": 24.4386364,
                "end_time": 24.6681818,
                "pitch": 62,
                "velocity": 64,
                "duration": 0.2295455,
                "tempo": 120.0
            },
            {
                "start_time": 24.6681818,
                "end_time": 24.9045455,
                "pitch": 64,
                "velocity": 64,
                "duration": 0.2363636,
                "tempo": 120.0
            },
            {
                "start_time": 24.9045455,
                "end_time": 25.1295455,
                "pitch": 71,
                "velocity": 64,
                "duration": 0.225,
                "tempo": 120.0
            },
            {
                "start_time": 25.1295455,
                "end_time": 25.3613636,
                "pitch": 62,
                "velocity": 64,
                "duration": 0.2318182,
                "tempo": 120.0
            },
            {
                "start_time": 25.3613636,
                "end_time": 25.6022727,
                "pitch": 64,
                "velocity": 64,
                "duration": 0.2409091,
                "tempo": 120.0
            },
            {
                "start_time": 25.6022727,
                "end_time": 25.8340909,
                "pitch": 71,
                "velocity": 64,
                "duration": 0.2318182,
                "tempo": 120.0
            },
            {
                "start_time": 25.8340909,
                "end_time": 26.0659091,
                "pitch": 62,
                "velocity": 64,
                "duration": 0.2318182,
                "tempo": 120.0
            },
            {
                "start_time": 26.0659091,
                "end_time": 26.3,
                "pitch": 64,
                "velocity": 64,
                "duration": 0.2340909,
                "tempo": 120.0
            },
            {
                "start_time": 26.3,
                "end_time": 26.5272727,
                "pitch": 71,
                "velocity": 64,
                "duration": 0.2272727,
                "tempo": 120.0
            },
            {
                "start_time": 26.5272727,
                "end_time": 26.7568182,
                "pitch": 62,
                "velocity": 64,
                "duration": 0.2295455,
                "tempo": 120.0
            },
            {
                "start_time": 26.7568182,
                "end_time": 26.9977273,
                "pitch": 64,
                "velocity": 64,
                "duration": 0.2409091,
                "tempo": 120.0
            },
            {
                "start_time": 26.9977273,
                "end_time": 27.2295455,
                "pitch": 71,
                "velocity": 64,
                "duration": 0.2318182,
                "tempo": 120.0
            },
            {
                "start_time": 27.2295455,
                "end_time": 27.4613636,
                "pitch": 62,
                "velocity": 64,
                "duration": 0.2318182,
                "tempo": 120.0
            },
            {
                "start_time": 27.4613636,
                "end_time": 27.7022727,
                "pitch": 64,
                "velocity": 64,
                "duration": 0.2409091,
                "tempo": 120.0
            },
            {
                "start_time": 27.7022727,
                "end_time": 27.9340909,
                "pitch": 71,
                "velocity": 64,
                "duration": 0.2318182,
                "tempo": 120.0
            },
            {
                "start_time": 27.9340909,
                "end_time": 28.1590909,
                "pitch": 62,
                "velocity": 64,
                "duration": 0.225,
                "tempo": 120.0
            },
            {
                "start_time": 28.1590909,
                "end_time": 28.3954545,
                "pitch": 64,
                "velocity": 64,
                "duration": 0.2363636,
                "tempo": 120.0
            },
            {
                "start_time": 28.3954545,
                "end_time": 28.625,
                "pitch": 71,
                "velocity": 64,
                "duration": 0.2295455,
                "tempo": 120.0
            },
            {
                "start_time": 28.625,
                "end_time": 28.8568182,
                "pitch": 62,
                "velocity": 64,
                "duration": 0.2318182,
                "tempo": 120.0
            },
            {
                "start_time": 28.8568182,
                "end_time": 29.0977273,
                "pitch": 64,
                "velocity": 64,
                "duration": 0.2409091,
                "tempo": 120.0
            },
            {
                "start_time": 29.0977273,
                "end_time": 29.3295455,
                "pitch": 71,
                "velocity": 64,
                "duration": 0.2318182,
                "tempo": 120.0
            },
            {
                "start_time": 29.3295455,
                "end_time": 29.5545455,
                "pitch": 62,
                "velocity": 64,
                "duration": 0.225,
                "tempo": 120.0
            },
            {
                "start_time": 29.5545455,
                "end_time": 29.7909091,
                "pitch": 64,
                "velocity": 64,
                "duration": 0.2363636,
                "tempo": 120.0
            }
        ],
        "Electric Guitar (clean)": [
            {
                "start_time": 0.0090909,
                "end_time": 3.7318182,
                "pitch": 28,
                "velocity": 64,
                "duration": 3.7227273,
                "tempo": 120.0
            },
            {
                "start_time": 3.7318182,
                "end_time": 7.4590909,
                "pitch": 28,
                "velocity": 64,
                "duration": 3.7272727,
                "tempo": 120.0
            },
            {
                "start_time": 7.4590909,
                "end_time": 11.1840909,
                "pitch": 29,
                "velocity": 64,
                "duration": 3.725,
                "tempo": 120.0
            },
            {
                "start_time": 11.1840909,
                "end_time": 14.8954545,
                "pitch": 29,
                "velocity": 64,
                "duration": 3.7113636,
                "tempo": 120.0
            },
            {
                "start_time": 14.8954545,
                "end_time": 18.6227273,
                "pitch": 28,
                "velocity": 64,
                "duration": 3.7272727,
                "tempo": 120.0
            },
            {
                "start_time": 18.6227273,
                "end_time": 22.3386364,
                "pitch": 28,
                "velocity": 64,
                "duration": 3.7159091,
                "tempo": 120.0
            },
            {
                "start_time": 22.3386364,
                "end_time": 26.0659091,
                "pitch": 28,
                "velocity": 64,
                "duration": 3.7272727,
                "tempo": 120.0
            },
            {
                "start_time": 26.0659091,
                "end_time": 29.7909091,
                "pitch": 28,
                "velocity": 64,
                "duration": 3.725,
                "tempo": 120.0
            },
            {
                "start_time": 29.7909091,
                "end_time": 33.5068182,
                "pitch": 28,
                "velocity": 64,
                "duration": 3.7159091,
                "tempo": 120.0
            },
            {
                "start_time": 33.5068182,
                "end_time": 37.2340909,
                "pitch": 28,
                "velocity": 64,
                "duration": 3.7272727,
                "tempo": 120.0
            },
            {
                "start_time": 37.2340909,
                "end_time": 40.9568182,
                "pitch": 29,
                "velocity": 64,
                "duration": 3.7227273,
                "tempo": 120.0
            },
            {
                "start_time": 40.9568182,
                "end_time": 44.6840909,
                "pitch": 29,
                "velocity": 64,
                "duration": 3.7272727,
                "tempo": 120.0
            }
        ],
        "Flute": [
            {
                "start_time": 0.4818182,
                "end_time": 0.7159091,
                "pitch": 71,
                "velocity": 127,
                "duration": 0.2340909,
                "tempo": 120.0
            },
            {
                "start_time": 0.7159091,
                "end_time": 0.95,
                "pitch": 76,
                "velocity": 127,
                "duration": 0.2340909,
                "tempo": 120.0
            },
            {
                "start_time": 0.95,
                "end_time": 1.1863636,
                "pitch": 78,
                "velocity": 127,
                "duration": 0.2363636,
                "tempo": 120.0
            },
            {
                "start_time": 1.1863636,
                "end_time": 1.4113636,
                "pitch": 76,
                "velocity": 127,
                "duration": 0.225,
                "tempo": 120.0
            },
            {
                "start_time": 1.4113636,
                "end_time": 1.6431818,
                "pitch": 79,
                "velocity": 127,
                "duration": 0.2318182,
                "tempo": 120.0
            },
            {
                "start_time": 1.6431818,
                "end_time": 1.8840909,
                "pitch": 78,
                "velocity": 127,
                "duration": 0.2409091,
                "tempo": 120.0
            },
            {
                "start_time": 1.8840909,
                "end_time": 3.2704545,
                "pitch": 81,
                "velocity": 127,
                "duration": 1.3863636,
                "tempo": 120.0
            },
            {
                "start_time": 3.2704545,
                "end_time": 3.7318182,
                "pitch": 79,
                "velocity": 127,
                "duration": 0.4613636,
                "tempo": 120.0
            },
            {
                "start_time": 3.7318182,
                "end_time": 4.425,
                "pitch": 78,
                "velocity": 127,
                "duration": 0.6931818,
                "tempo": 120.0
            },
            {
                "start_time": 4.425,
                "end_time": 4.6659091,
                "pitch": 76,
                "velocity": 127,
                "duration": 0.2409091,
                "tempo": 120.0
            },
            {
                "start_time": 4.6659091,
                "end_time": 5.1386364,
                "pitch": 74,
                "velocity": 127,
                "duration": 0.4727273,
                "tempo": 120.0
            },
            {
                "start_time": 5.1386364,
                "end_time": 5.6022727,
                "pitch": 72,
                "velocity": 127,
                "duration": 0.4636364,
                "tempo": 120.0
            },
            {
                "start_time": 5.6022727,
                "end_time": 6.525,
                "pitch": 71,
                "velocity": 127,
                "duration": 0.9227273,
                "tempo": 120.0
            },
            {
                "start_time": 6.525,
                "end_time": 7.4590909,
                "pitch": 72,
                "velocity": 127,
                "duration": 0.9340909,
                "tempo": 120.0
            },
            {
                "start_time": 7.4590909,
                "end_time": 7.9204545,
                "pitch": 77,
                "velocity": 127,
                "duration": 0.4613636,
                "tempo": 120.0
            },
            {
                "start_time": 7.9204545,
                "end_time": 8.3840909,
                "pitch": 76,
                "velocity": 127,
                "duration": 0.4636364,
                "tempo": 120.0
            },
            {
                "start_time": 8.3840909,
                "end_time": 9.325,
                "pitch": 75,
                "velocity": 127,
                "duration": 0.9409091,
                "tempo": 120.0
            },
            {
                "start_time": 9.7863636,
                "end_time": 10.0227273,
                "pitch": 77,
                "velocity": 127,
                "duration": 0.2363636,
                "tempo": 120.0
            },
            {
                "start_time": 10.0227273,
                "end_time": 10.2704545,
                "pitch": 81,
                "velocity": 127,
                "duration": 0.2477273,
                "tempo": 120.0
            },
            {
                "start_time": 10.2704545,
                "end_time": 10.4909091,
                "pitch": 83,
                "velocity": 127,
                "duration": 0.2204545,
                "tempo": 120.0
            },
            {
                "start_time": 10.4909091,
                "end_time": 10.7113636,
                "pitch": 84,
                "velocity": 127,
                "duration": 0.2204545,
                "tempo": 120.0
            },
            {
                "start_time": 10.7113636,
                "end_time": 10.9522727,
                "pitch": 86,
                "velocity": 127,
                "duration": 0.2409091,
                "tempo": 120.0
            },
            {
                "start_time": 10.9522727,
                "end_time": 11.1840909,
                "pitch": 84,
                "velocity": 127,
                "duration": 0.2318182,
                "tempo": 120.0
            },
            {
                "start_time": 11.1840909,
                "end_time": 12.575,
                "pitch": 83,
                "velocity": 127,
                "duration": 1.3909091,
                "tempo": 120.0
            },
            {
                "start_time": 12.575,
                "end_time": 12.8068182,
                "pitch": 77,
                "velocity": 127,
                "duration": 0.2318182,
                "tempo": 120.0
            },
            {
                "start_time": 12.8068182,
                "end_time": 13.0477273,
                "pitch": 75,
                "velocity": 127,
                "duration": 0.2409091,
                "tempo": 120.0
            },
            {
                "start_time": 13.0477273,
                "end_time": 13.9727273,
                "pitch": 71,
                "velocity": 127,
                "duration": 0.925,
                "tempo": 120.0
            },
            {
                "start_time": 13.9727273,
                "end_time": 14.4431818,
                "pitch": 77,
                "velocity": 127,
                "duration": 0.4704545,
                "tempo": 120.0
            },
            {
                "start_time": 14.4431818,
                "end_time": 14.8954545,
                "pitch": 75,
                "velocity": 127,
                "duration": 0.4522727,
                "tempo": 120.0
            },
            {
                "start_time": 14.8954545,
                "end_time": 18.6227273,
                "pitch": 76,
                "velocity": 127,
                "duration": 3.7272727,
                "tempo": 120.0
            },
            {
                "start_time": 30.2545455,
                "end_time": 30.4954545,
                "pitch": 71,
                "velocity": 127,
                "duration": 0.2409091,
                "tempo": 120.0
            },
            {
                "start_time": 30.4954545,
                "end_time": 30.725,
                "pitch": 76,
                "velocity": 127,
                "duration": 0.2295455,
                "tempo": 120.0
            },
            {
                "start_time": 30.725,
                "end_time": 30.9522727,
                "pitch": 78,
                "velocity": 127,
                "duration": 0.2272727,
                "tempo": 120.0
            },
            {
                "start_time": 30.9522727,
                "end_time": 31.1863636,
                "pitch": 76,
                "velocity": 127,
                "duration": 0.2340909,
                "tempo": 120.0
            },
            {
                "start_time": 31.1863636,
                "end_time": 31.4181818,
                "pitch": 79,
                "velocity": 127,
                "duration": 0.2318182,
                "tempo": 120.0
            },
            {
                "start_time": 31.4181818,
                "end_time": 31.65,
                "pitch": 78,
                "velocity": 127,
                "duration": 0.2318182,
                "tempo": 120.0
            },
            {
                "start_time": 31.65,
                "end_time": 33.0340909,
                "pitch": 81,
                "velocity": 127,
                "duration": 1.3840909,
                "tempo": 120.0
            },
            {
                "start_time": 33.0340909,
                "end_time": 33.5068182,
                "pitch": 79,
                "velocity": 127,
                "duration": 0.4727273,
                "tempo": 120.0
            },
            {
                "start_time": 33.5068182,
                "end_time": 34.2113636,
                "pitch": 78,
                "velocity": 127,
                "duration": 0.7045455,
                "tempo": 120.0
            },
            {
                "start_time": 34.2113636,
                "end_time": 34.4431818,
                "pitch": 76,
                "velocity": 127,
                "duration": 0.2318182,
                "tempo": 120.0
            },
            {
                "start_time": 34.4431818,
                "end_time": 34.9045455,
                "pitch": 74,
                "velocity": 127,
                "duration": 0.4613636,
                "tempo": 120.0
            },
            {
                "start_time": 34.9045455,
                "end_time": 35.3863636,
                "pitch": 72,
                "velocity": 127,
                "duration": 0.4818182,
                "tempo": 120.0
            },
            {
                "start_time": 35.3863636,
                "end_time": 36.3113636,
                "pitch": 71,
                "velocity": 127,
                "duration": 0.925,
                "tempo": 120.0
            },
            {
                "start_time": 36.3113636,
                "end_time": 37.2340909,
                "pitch": 72,
                "velocity": 127,
                "duration": 0.9227273,
                "tempo": 120.0
            },
            {
                "start_time": 37.2340909,
                "end_time": 37.6954545,
                "pitch": 77,
                "velocity": 127,
                "duration": 0.4613636,
                "tempo": 120.0
            },
            {
                "start_time": 37.6954545,
                "end_time": 38.175,
                "pitch": 76,
                "velocity": 127,
                "duration": 0.4795455,
                "tempo": 120.0
            },
            {
                "start_time": 38.175,
                "end_time": 39.1,
                "pitch": 75,
                "velocity": 127,
                "duration": 0.925,
                "tempo": 120.0
            },
            {
                "start_time": 39.5727273,
                "end_time": 39.8022727,
                "pitch": 77,
                "velocity": 127,
                "duration": 0.2295455,
                "tempo": 120.0
            },
            {
                "start_time": 39.8022727,
                "end_time": 40.0340909,
                "pitch": 81,
                "velocity": 127,
                "duration": 0.2318182,
                "tempo": 120.0
            },
            {
                "start_time": 40.0340909,
                "end_time": 40.2636364,
                "pitch": 83,
                "velocity": 127,
                "duration": 0.2295455,
                "tempo": 120.0
            },
            {
                "start_time": 40.2636364,
                "end_time": 40.4863636,
                "pitch": 84,
                "velocity": 127,
                "duration": 0.2227273,
                "tempo": 120.0
            },
            {
                "start_time": 40.4863636,
                "end_time": 40.7159091,
                "pitch": 86,
                "velocity": 127,
                "duration": 0.2295455,
                "tempo": 120.0
            },
            {
                "start_time": 40.7159091,
                "end_time": 40.9568182,
                "pitch": 84,
                "velocity": 127,
                "duration": 0.2409091,
                "tempo": 120.0
            },
            {
                "start_time": 40.9568182,
                "end_time": 42.3636364,
                "pitch": 83,
                "velocity": 127,
                "duration": 1.4068182,
                "tempo": 120.0
            },
            {
                "start_time": 42.3636364,
                "end_time": 42.5954545,
                "pitch": 77,
                "velocity": 127,
                "duration": 0.2318182,
                "tempo": 120.0
            },
            {
                "start_time": 42.5954545,
                "end_time": 42.8272727,
                "pitch": 75,
                "velocity": 127,
                "duration": 0.2318182,
                "tempo": 120.0
            },
            {
                "start_time": 42.8272727,
                "end_time": 43.7613636,
                "pitch": 71,
                "velocity": 127,
                "duration": 0.9340909,
                "tempo": 120.0
            },
            {
                "start_time": 43.7613636,
                "end_time": 44.2136364,
                "pitch": 77,
                "velocity": 127,
                "duration": 0.4522727,
                "tempo": 120.0
            },
            {
                "start_time": 44.2136364,
                "end_time": 44.6840909,
                "pitch": 75,
                "velocity": 127,
                "duration": 0.4704545,
                "tempo": 120.0
            }
        ]
    }
}