{
    "mood": "angry",
    "instruments": {
        "Electric Piano 1": [
            {
                "start_time": 12.0568182,
                "end_time": 12.2090909,
                "pitch": 50,
                "velocity": 64,
                "duration": 0.1522727,
                "tempo": 120.0
            },
            {
                "start_time": 12.2431818,
                "end_time": 12.3977273,
                "pitch": 53,
                "velocity": 64,
                "duration": 0.1545455,
                "tempo": 120.0
            },
            {
                "start_time": 12.4318182,
                "end_time": 12.5909091,
                "pitch": 55,
                "velocity": 64,
                "duration": 0.1590909,
                "tempo": 120.0
            },
            {
                "start_time": 12.6068182,
                "end_time": 12.9477273,
                "pitch": 50,
                "velocity": 64,
                "duration": 0.3409091,
                "tempo": 120.0
            },
            {
                "start_time": 12.9818182,
                "end_time": 13.3636364,
                "pitch": 55,
                "velocity": 64,
                "duration": 0.3818182,
                "tempo": 120.0
            },
            {
                "start_time": 13.3636364,
                "end_time": 13.4431818,
                "pitch": 54,
                "velocity": 64,
                "duration": 0.0795455,
                "tempo": 120.0
            },
            {
                "start_time": 13.4431818,
                "end_time": 13.5090909,
                "pitch": 51,
                "velocity": 64,
                "duration": 0.0659091,
                "tempo": 120.0
            },
            {
                "start_time": 13.5409091,
                "end_time": 13.6954545,
                "pitch": 53,
                "velocity": 64,
                "duration": 0.1545455,
                "tempo": 120.0
            },
            {
                "start_time": 13.7295455,
                "end_time": 13.9022727,
                "pitch": 48,
                "velocity": 64,
                "duration": 0.1727273,
                "tempo": 120.0
            },
            {
                "start_time": 13.9363636,
                "end_time": 14.0886364,
                "pitch": 45,
                "velocity": 64,
                "duration": 0.1522727,
                "tempo": 120.0
            },
            {
                "start_time": 14.1227273,
                "end_time": 14.4681818,
                "pitch": 48,
                "velocity": 64,
                "duration": 0.3454545,
                "tempo": 120.0
            },
            {
                "start_time": 14.4863636,
                "end_time": 14.8931818,
                "pitch": 53,
                "velocity": 64,
                "duration": 0.4068182,
                "tempo": 120.0
            },
            {
                "start_time": 14.8931818,
                "end_time": 15.0045455,
                "pitch": 51,
                "velocity": 64,
                "duration": 0.1113636,
                "tempo": 120.0
            },
            {
                "start_time": 15.0386364,
                "end_time": 15.2068182,
                "pitch": 46,
                "velocity": 64,
                "duration": 0.1681818,
                "tempo": 120.0
            },
            {
                "start_time": 15.2409091,
                "end_time": 15.3909091,
                "pitch": 51,
                "velocity": 64,
                "duration": 0.15,
                "tempo": 120.0
            },
            {
                "start_time": 15.425,
                "end_time": 15.575,
                "pitch": 55,
                "velocity": 64,
                "duration": 0.15,
                "tempo": 120.0
            },
            {
                "start_time": 15.6090909,
                "end_time": 15.9568182,
                "pitch": 58,
                "velocity": 64,
                "duration": 0.3477273,
                "tempo": 120.0
            },
            {
                "start_time": 15.9886364,
                "end_time": 16.1340909,
                "pitch": 50,
                "velocity": 64,
                "duration": 0.1454545,
                "tempo": 120.0
            },
            {
                "start_time": 16.1681818,
                "end_time": 16.3181818,
                "pitch": 55,
                "velocity": 64,
                "duration": 0.15,
                "tempo": 120.0
            },
            {
                "start_time": 16.3522727,
                "end_time": 16.5204545,
                "pitch": 50,
                "velocity": 64,
                "duration": 0.1681818,
                "tempo": 120.0
            },
            {
                "start_time": 16.5545455,
                "end_time": 16.7090909,
                "pitch": 53,
                "velocity": 64,
                "duration": 0.1545455,
                "tempo": 120.0
            },
            {
                "start_time": 16.7431818,
                "end_time": 17.1227273,
                "pitch": 55,
                "velocity": 64,
                "duration": 0.3795455,
                "tempo": 120.0
            },
            {
                "start_time": 13.3636364,
                "end_time": 17.1227273,
                "pitch": 66,
                "velocity": 64,
                "duration": 3.7590909,
                "tempo": 120.0
            },
            {
                "start_time": 17.1227273,
                "end_time": 17.2022727,
                "pitch": 54,
                "velocity": 64,
                "duration": 0.0795455,
                "tempo": 120.0
            },
            {
                "start_time": 17.2022727,
                "end_time": 18.0090909,
                "pitch": 51,
                "velocity": 64,
                "duration": 0.8068182,
                "tempo": 120.0
            },
            {
                "start_time": 18.0409091,
                "end_time": 18.1954545,
                "pitch": 50,
                "velocity": 64,
                "duration": 0.1545455,
                "tempo": 120.0
            },
            {
                "start_time": 18.2295455,
                "end_time": 18.4022727,
                "pitch": 53,
                "velocity": 64,
                "duration": 0.1727273,
                "tempo": 120.0
            },
            {
                "start_time": 18.4363636,
                "end_time": 18.5863636,
                "pitch": 55,
                "velocity": 64,
                "duration": 0.15,
                "tempo": 120.0
            },
            {
                "start_time": 18.6204545,
                "end_time": 18.9681818,
                "pitch": 50,
                "velocity": 64,
                "duration": 0.3477273,
                "tempo": 120.0
            },
            {
                "start_time": 18.9840909,
                "end_time": 19.3636364,
                "pitch": 55,
                "velocity": 64,
                "duration": 0.3795455,
                "tempo": 120.0
            },
            {
                "start_time": 17.1227273,
                "end_time": 19.3636364,
                "pitch": 66,
                "velocity": 64,
                "duration": 2.2409091,
                "tempo": 120.0
            },
            {
                "start_time": 19.3636364,
                "end_time": 19.4659091,
                "pitch": 54,
                "velocity": 64,
                "duration": 0.1022727,
                "tempo": 120.0
            },
            {
                "start_time": 19.4659091,
                "end_time": 19.5159091,
                "pitch": 51,
                "velocity": 64,
                "duration": 0.05,
                "tempo": 120.0
            },
            {
                "start_time": 19.55,
                "end_time": 19.7113636,
                "pitch": 53,
                "velocity": 64,
                "duration": 0.1613636,
                "tempo": 120.0
            },
            {
                "start_time": 19.7431818,
                "end_time": 19.8909091,
                "pitch": 48,
                "velocity": 64,
                "duration": 0.1477273,
                "tempo": 120.0
            },
            {
                "start_time": 19.9227273,
                "end_time": 20.0727273,
                "pitch": 45,
                "velocity": 64,
                "duration": 0.15,
                "tempo": 120.0
            },
            {
                "start_time": 20.1068182,
                "end_time": 20.4636364,
                "pitch": 48,
                "velocity": 64,
                "duration": 0.3568182,
                "tempo": 120.0
            },
            {
                "start_time": 20.4977273,
                "end_time": 20.8931818,
                "pitch": 53,
                "velocity": 64,
                "duration": 0.3954545,
                "tempo": 120.0
            },
            {
                "start_time": 20.8931818,
                "end_time": 21.0204545,
                "pitch": 51,
                "velocity": 64,
                "duration": 0.1272727,
                "tempo": 120.0
            },
            {
                "start_time": 21.0522727,
                "end_time": 21.2068182,
                "pitch": 46,
                "velocity": 64,
                "duration": 0.1545455,
                "tempo": 120.0
            },
            {
                "start_time": 21.2409091,
                "end_time": 21.3954545,
                "pitch": 51,
                "velocity": 64,
                "duration": 0.1545455,
                "tempo": 120.0
            },
            {
                "start_time": 21.4318182,
                "end_time": 21.5886364,
                "pitch": 55,
                "velocity": 64,
                "duration": 0.1568182,
                "tempo": 120.0
            },
            {
                "start_time": 21.6204545,
                "end_time": 21.95,
                "pitch": 58,
                "velocity": 64,
                "duration": 0.3295455,
                "tempo": 120.0
            },
            {
                "start_time": 21.9840909,
                "end_time": 22.1568182,
                "pitch": 50,
                "velocity": 64,
                "duration": 0.1727273,
                "tempo": 120.0
            },
            {
                "start_time": 22.175,
                "end_time": 22.3318182,
                "pitch": 55,
                "velocity": 64,
                "duration": 0.1568182,
                "tempo": 120.0
            },
            {
                "start_time": 22.3636364,
                "end_time": 22.5068182,
                "pitch": 50,
                "velocity": 64,
                "duration": 0.1431818,
                "tempo": 120.0
            },
            {
                "start_time": 22.5386364,
                "end_time": 22.6931818,
                "pitch": 53,
                "velocity": 64,
                "duration": 0.1545455,
                "tempo": 120.0
            },
            {
                "start_time": 22.7295455,
                "end_time": 23.1204545,
                "pitch": 55,
                "velocity": 64,
                "duration": 0.3909091,
                "tempo": 120.0
            },
            {
                "start_time": 19.3636364,
                "end_time": 23.1204545,
                "pitch": 66,
                "velocity": 64,
                "duration": 3.7568182,
                "tempo": 120.0
            },
            {
                "start_time": 23.1204545,
                "end_time": 23.2204545,
                "pitch": 54,
                "velocity": 64,
                "duration": 0.1,
                "tempo": 120.0
            },
            {
                "start_time": 23.2204545,
                "end_time": 24.0295455,
                "pitch": 51,
                "velocity": 64,
                "duration": 0.8090909,
                "tempo": 120.0
            },
            {
                "start_time": 54.0681818,
                "end_time": 54.1636364,
                "pitch": 50,
                "velocity": 64,
                "duration": 0.0954545,
                "tempo": 120.0
            }
        ],
        "Church Organ": [
            {
                "start_time": 12.0590909,
                "end_time": 13.5090909,
                "pitch": 74,
                "velocity": 64,
                "duration": 1.45,
                "tempo": 120.0
            },
            {
                "start_time": 13.5431818,
                "end_time": 15.0068182,
                "pitch": 72,
                "velocity": 64,
                "duration": 1.4636364,
                "tempo": 120.0
            },
            {
                "start_time": 15.0409091,
                "end_time": 16.5204545,
                "pitch": 75,
                "velocity": 64,
                "duration": 1.4795455,
                "tempo": 120.0
            },
            {
                "start_time": 16.5545455,
                "end_time": 18.0090909,
                "pitch": 74,
                "velocity": 64,
                "duration": 1.4545455,
                "tempo": 120.0
            },
            {
                "start_time": 18.0431818,
                "end_time": 19.5159091,
                "pitch": 74,
                "velocity": 64,
                "duration": 1.4727273,
                "tempo": 120.0
            },
            {
                "start_time": 19.55,
                "end_time": 21.0204545,
                "pitch": 72,
                "velocity": 64,
                "duration": 1.4704545,
                "tempo": 120.0
            },
            {
                "start_time": 21.0545455,
                "end_time": 22.5068182,
                "pitch": 75,
                "velocity": 64,
                "duration": 1.4522727,
                "tempo": 120.0
            },
            {
                "start_time": 22.5409091,
                "end_time": 24.0318182,
                "pitch": 74,
                "velocity": 64,
                "duration": 1.4909091,
                "tempo": 120.0
            },
            {
                "start_time": 54.0704545,
                "end_time": 54.1636364,
                "pitch": 74,
                "velocity": 64,
                "duration": 0.0931818,
                "tempo": 120.0
            }
        ],
        "Violin": [
            {
                "start_time": 0.0386364,
                "end_time": 0.2522727,
                "pitch": 62,
                "velocity": 80,
                "duration": 0.2136364,
                "tempo": 120.0
            },
            {
                "start_time": 0.2522727,
                "end_time": 0.5340909,
                "pitch": 64,
                "velocity": 80,
                "duration": 0.2818182,
                "tempo": 120.0
            },
            {
                "start_time": 0.5340909,
                "end_time": 0.6477273,
                "pitch": 66,
                "velocity": 80,
                "duration": 0.1136364,
                "tempo": 120.0
            },
            {
                "start_time": 0.6477273,
                "end_time": 0.9681818,
                "pitch": 67,
                "velocity": 80,
                "duration": 0.3204545,
                "tempo": 120.0
            },
            {
                "start_time": 0.9681818,
                "end_time": 1.0022727,
                "pitch": 69,
                "velocity": 80,
                "duration": 0.0340909,
                "tempo": 120.0
            },
            {
                "start_time": 1.0363636,
                "end_time": 1.2590909,
                "pitch": 62,
                "velocity": 80,
                "duration": 0.2227273,
                "tempo": 120.0
            },
            {
                "start_time": 1.2590909,
                "end_time": 1.5431818,
                "pitch": 64,
                "velocity": 80,
                "duration": 0.2840909,
                "tempo": 120.0
            },
            {
                "start_time": 0.6477273,
                "end_time": 1.6568182,
                "pitch": 0,
                "velocity": 80,
                "duration": 1.0090909,
                "tempo": 120.0
            },
            {
                "start_time": 1.5431818,
                "end_time": 1.6568182,
                "pitch": 66,
                "velocity": 80,
                "duration": 0.1136364,
                "tempo": 120.0
            },
            {
                "start_time": 1.6568182,
                "end_time": 1.9681818,
                "pitch": 67,
                "velocity": 80,
                "duration": 0.3113636,
                "tempo": 120.0
            },
            {
                "start_time": 1.9681818,
                "end_time": 2.0022727,
                "pitch": 69,
                "velocity": 80,
                "duration": 0.0340909,
                "tempo": 120.0
            },
            {
                "start_time": 2.0340909,
                "end_time": 2.2522727,
                "pitch": 62,
                "velocity": 80,
                "duration": 0.2181818,
                "tempo": 120.0
            },
            {
                "start_time": 2.2522727,
                "end_time": 2.5318182,
                "pitch": 64,
                "velocity": 80,
                "duration": 0.2795455,
                "tempo": 120.0
            },
            {
                "start_time": 1.6568182,
                "end_time": 2.6454545,
                "pitch": 0,
                "velocity": 80,
                "duration": 0.9886364,
                "tempo": 120.0
            },
            {
                "start_time": 2.5318182,
                "end_time": 2.6454545,
                "pitch": 66,
                "velocity": 80,
                "duration": 0.1136364,
                "tempo": 120.0
            },
            {
                "start_time": 2.6454545,
                "end_time": 2.9704545,
                "pitch": 67,
                "velocity": 80,
                "duration": 0.325,
                "tempo": 120.0
            },
            {
                "start_time": 2.9704545,
                "end_time": 3.0227273,
                "pitch": 69,
                "velocity": 80,
                "duration": 0.0522727,
                "tempo": 120.0
            },
            {
                "start_time": 3.0409091,
                "end_time": 3.2454545,
                "pitch": 62,
                "velocity": 80,
                "duration": 0.2045455,
                "tempo": 120.0
            },
            {
                "start_time": 3.2454545,
                "end_time": 3.525,
                "pitch": 64,
                "velocity": 80,
                "duration": 0.2795455,
                "tempo": 120.0
            },
            {
                "start_time": 2.6454545,
                "end_time": 3.6454545,
                "pitch": 0,
                "velocity": 80,
                "duration": 1.0,
                "tempo": 120.0
            },
            {
                "start_time": 3.525,
                "end_time": 3.6454545,
                "pitch": 66,
                "velocity": 80,
                "duration": 0.1204545,
                "tempo": 120.0
            },
            {
                "start_time": 3.6454545,
                "end_time": 3.9681818,
                "pitch": 67,
                "velocity": 80,
                "duration": 0.3227273,
                "tempo": 120.0
            },
            {
                "start_time": 3.9681818,
                "end_time": 4.0181818,
                "pitch": 69,
                "velocity": 80,
                "duration": 0.05,
                "tempo": 120.0
            },
            {
                "start_time": 4.0522727,
                "end_time": 4.2659091,
                "pitch": 62,
                "velocity": 80,
                "duration": 0.2136364,
                "tempo": 120.0
            },
            {
                "start_time": 4.2659091,
                "end_time": 4.5431818,
                "pitch": 64,
                "velocity": 80,
                "duration": 0.2772727,
                "tempo": 120.0
            },
            {
                "start_time": 3.6454545,
                "end_time": 4.6613636,
                "pitch": 0,
                "velocity": 80,
                "duration": 1.0159091,
                "tempo": 120.0
            },
            {
                "start_time": 4.5431818,
                "end_time": 4.6613636,
                "pitch": 66,
                "velocity": 80,
                "duration": 0.1181818,
                "tempo": 120.0
            },
            {
                "start_time": 4.6613636,
                "end_time": 4.9772727,
                "pitch": 67,
                "velocity": 80,
                "duration": 0.3159091,
                "tempo": 120.0
            },
            {
                "start_time": 4.9772727,
                "end_time": 5.0113636,
                "pitch": 69,
                "velocity": 80,
                "duration": 0.0340909,
                "tempo": 120.0
            },
            {
                "start_time": 5.0431818,
                "end_time": 5.2545455,
                "pitch": 62,
                "velocity": 80,
                "duration": 0.2113636,
                "tempo": 120.0
            },
            {
                "start_time": 5.2545455,
                "end_time": 5.5386364,
                "pitch": 64,
                "velocity": 80,
                "duration": 0.2840909,
                "tempo": 120.0
            },
            {
                "start_time": 4.6613636,
                "end_time": 5.6568182,
                "pitch": 0,
                "velocity": 80,
                "duration": 0.9954545,
                "tempo": 120.0
            },
            {
                "start_time": 5.5386364,
                "end_time": 5.6568182,
                "pitch": 66,
                "velocity": 80,
                "duration": 0.1181818,
                "tempo": 120.0
            },
            {
                "start_time": 5.6568182,
                "end_time": 5.9818182,
                "pitch": 67,
                "velocity": 80,
                "duration": 0.325,
                "tempo": 120.0
            },
            {
                "start_time": 5.9818182,
                "end_time": 6.0159091,
                "pitch": 69,
                "velocity": 80,
                "duration": 0.0340909,
                "tempo": 120.0
            },
            {
                "start_time": 6.0522727,
                "end_time": 6.2568182,
                "pitch": 62,
                "velocity": 80,
                "duration": 0.2045455,
                "tempo": 120.0
            },
            {
                "start_time": 6.2568182,
                "end_time": 6.5363636,
                "pitch": 64,
                "velocity": 80,
                "duration": 0.2795455,
                "tempo": 120.0
            },
            {
                "start_time": 5.6568182,
                "end_time": 6.6568182,
                "pitch": 0,
                "velocity": 80,
                "duration": 1.0,
                "tempo": 120.0
            },
            {
                "start_time": 6.5363636,
                "end_time": 6.6568182,
                "pitch": 66,
                "velocity": 80,
                "duration": 0.1204545,
                "tempo": 120.0
            },
            {
                "start_time": 6.6568182,
                "end_time": 6.9681818,
                "pitch": 67,
                "velocity": 80,
                "duration": 0.3113636,
                "tempo": 120.0
            },
            {
                "start_time": 6.9681818,
                "end_time": 7.0159091,
                "pitch": 69,
                "velocity": 80,
                "duration": 0.0477273,
                "tempo": 120.0
            },
            {
                "start_time": 7.0318182,
                "end_time": 7.2454545,
                "pitch": 62,
                "velocity": 80,
                "duration": 0.2136364,
                "tempo": 120.0
            },
            {
                "start_time": 7.2454545,
                "end_time": 7.5386364,
                "pitch": 64,
                "velocity": 80,
                "duration": 0.2931818,
                "tempo": 120.0
            },
            {
                "start_time": 6.6568182,
                "end_time": 7.6568182,
                "pitch": 0,
                "velocity": 80,
                "duration": 1.0,
                "tempo": 120.0
            },
            {
                "start_time": 7.5386364,
                "end_time": 7.6568182,
                "pitch": 66,
                "velocity": 80,
                "duration": 0.1181818,
                "tempo": 120.0
            },
            {
                "start_time": 7.6568182,
                "end_time": 7.9727273,
                "pitch": 67,
                "velocity": 80,
                "duration": 0.3159091,
                "tempo": 120.0
            },
            {
                "start_time": 7.9727273,
                "end_time": 8.0227273,
                "pitch": 69,
                "velocity": 80,
                "duration": 0.05,
                "tempo": 120.0
            },
            {
                "start_time": 8.0545455,
                "end_time": 8.2659091,
                "pitch": 62,
                "velocity": 80,
                "duration": 0.2113636,
                "tempo": 120.0
            },
            {
                "start_time": 8.2659091,
                "end_time": 8.55,
                "pitch": 64,
                "velocity": 80,
                "duration": 0.2840909,
                "tempo": 120.0
            },
            {
                "start_time": 7.6568182,
                "end_time": 8.6681818,
                "pitch": 0,
                "velocity": 80,
                "duration": 1.0113636,
                "tempo": 120.0
            },
            {
                "start_time": 8.55,
                "end_time": 8.6681818,
                "pitch": 66,
                "velocity": 80,
                "duration": 0.1181818,
                "tempo": 120.0
            },
            {
                "start_time": 8.6681818,
                "end_time": 8.9772727,
                "pitch": 67,
                "velocity": 80,
                "duration": 0.3090909,
                "tempo": 120.0
            },
            {
                "start_time": 8.9772727,
                "end_time": 9.0090909,
                "pitch": 69,
                "velocity": 80,
                "duration": 0.0318182,
                "tempo": 120.0
            },
            {
                "start_time": 9.0431818,
                "end_time": 9.2590909,
                "pitch": 62,
                "velocity": 80,
                "duration": 0.2159091,
                "tempo": 120.0
            },
            {
                "start_time": 9.2590909,
                "end_time": 9.5409091,
                "pitch": 64,
                "velocity": 80,
                "duration": 0.2818182,
                "tempo": 120.0
            },
            {
                "start_time": 8.6681818,
                "end_time": 9.6545455,
                "pitch": 0,
                "velocity": 80,
                "duration": 0.9863636,
                "tempo": 120.0
            },
            {
                "start_time": 9.5409091,
                "end_time": 9.6545455,
                "pitch": 66,
                "velocity": 80,
                "duration": 0.1136364,
                "tempo": 120.0
            },
            {
                "start_time": 9.6545455,
                "end_time": 9.9704545,
                "pitch": 67,
                "velocity": 80,
                "duration": 0.3159091,
                "tempo": 120.0
            },
            {
                "start_time": 9.9704545,
                "end_time": 10.0045455,
                "pitch": 69,
                "velocity": 80,
                "duration": 0.0340909,
                "tempo": 120.0
            },
            {
                "start_time": 10.0363636,
                "end_time": 10.2568182,
                "pitch": 62,
                "velocity": 80,
                "duration": 0.2204545,
                "tempo": 120.0
            },
            {
                "start_time": 10.2568182,
                "end_time": 10.55,
                "pitch": 64,
                "velocity": 80,
                "duration": 0.2931818,
                "tempo": 120.0
            },
            {
                "start_time": 9.6545455,
                "end_time": 10.6636364,
                "pitch": 0,
                "velocity": 80,
                "duration": 1.0090909,
                "tempo": 120.0
            },
            {
                "start_time": 10.55,
                "end_time": 10.6636364,
                "pitch": 66,
                "velocity": 80,
                "duration": 0.1136364,
                "tempo": 120.0
            },
            {
                "start_time": 10.6636364,
                "end_time": 10.975,
                "pitch": 67,
                "velocity": 80,
                "duration": 0.3113636,
                "tempo": 120.0
            },
            {
                "start_time": 10.975,
                "end_time": 11.0090909,
                "pitch": 69,
                "velocity": 80,
                "duration": 0.0340909,
                "tempo": 120.0
            },
            {
                "start_time": 11.0431818,
                "end_time": 11.2590909,
                "pitch": 62,
                "velocity": 80,
                "duration": 0.2159091,
                "tempo": 120.0
            },
            {
                "start_time": 11.2590909,
                "end_time": 11.5386364,
                "pitch": 64,
                "velocity": 80,
                "duration": 0.2795455,
                "tempo": 120.0
            },
            {
                "start_time": 10.6636364,
                "end_time": 11.6522727,
                "pitch": 0,
                "velocity": 80,
                "duration": 0.9886364,
                "tempo": 120.0
            },
            {
                "start_time": 11.5386364,
                "end_time": 11.6522727,
                "pitch": 66,
                "velocity": 80,
                "duration": 0.1136364,
                "tempo": 120.0
            },
            {
                "start_time": 11.6522727,
                "end_time": 11.9704545,
                "pitch": 67,
                "velocity": 80,
                "duration": 0.3181818,
                "tempo": 120.0
            },
            {
                "start_time": 11.9704545,
                "end_time": 12.0204545,
                "pitch": 69,
                "velocity": 80,
                "duration": 0.05,
                "tempo": 120.0
            },
            {
                "start_time": 48.0545455,
                "end_time": 48.2795455,
                "pitch": 62,
                "velocity": 80,
                "duration": 0.225,
                "tempo": 120.0
            },
            {
                "start_time": 48.2795455,
                "end_time": 48.5704545,
                "pitch": 64,
                "velocity": 80,
                "duration": 0.2909091,
                "tempo": 120.0
            },
            {
                "start_time": 11.6522727,
                "end_time": 48.6840909,
                "pitch": 0,
                "velocity": 80,
                "duration": 37.0318182,
                "tempo": 120.0
            },
            {
                "start_time": 48.5704545,
                "end_time": 48.6840909,
                "pitch": 66,
                "velocity": 80,
                "duration": 0.1136364,
                "tempo": 120.0
            },
            {
                "start_time": 48.6840909,
                "end_time": 48.9931818,
                "pitch": 67,
                "velocity": 80,
                "duration": 0.3090909,
                "tempo": 120.0
            },
            {
                "start_time": 48.9931818,
                "end_time": 49.025,
                "pitch": 69,
                "velocity": 80,
                "duration": 0.0318182,
                "tempo": 120.0
            },
            {
                "start_time": 49.0568182,
                "end_time": 49.2727273,
                "pitch": 62,
                "velocity": 80,
                "duration": 0.2159091,
                "tempo": 120.0
            },
            {
                "start_time": 49.2727273,
                "end_time": 49.5568182,
                "pitch": 64,
                "velocity": 80,
                "duration": 0.2840909,
                "tempo": 120.0
            },
            {
                "start_time": 48.6840909,
                "end_time": 49.6704545,
                "pitch": 0,
                "velocity": 80,
                "duration": 0.9863636,
                "tempo": 120.0
            },
            {
                "start_time": 49.5568182,
                "end_time": 49.6704545,
                "pitch": 66,
                "velocity": 80,
                "duration": 0.1136364,
                "tempo": 120.0
            },
            {
                "start_time": 49.6704545,
                "end_time": 49.9818182,
                "pitch": 67,
                "velocity": 80,
                "duration": 0.3113636,
                "tempo": 120.0
            },
            {
                "start_time": 49.9818182,
                "end_time": 50.0340909,
                "pitch": 69,
                "velocity": 80,
                "duration": 0.0522727,
                "tempo": 120.0
            },
            {
                "start_time": 50.0681818,
                "end_time": 50.2931818,
                "pitch": 62,
                "velocity": 80,
                "duration": 0.225,
                "tempo": 120.0
            },
            {
                "start_time": 50.2931818,
                "end_time": 50.5795455,
                "pitch": 64,
                "velocity": 80,
                "duration": 0.2863636,
                "tempo": 120.0
            },
            {
                "start_time": 49.6704545,
                "end_time": 50.6954545,
                "pitch": 0,
                "velocity": 80,
                "duration": 1.025,
                "tempo": 120.0
            },
            {
                "start_time": 50.5795455,
                "end_time": 50.6954545,
                "pitch": 66,
                "velocity": 80,
                "duration": 0.1159091,
                "tempo": 120.0
            },
            {
                "start_time": 50.6954545,
                "end_time": 51.0045455,
                "pitch": 67,
                "velocity": 80,
                "duration": 0.3090909,
                "tempo": 120.0
            },
            {
                "start_time": 51.0045455,
                "end_time": 51.0386364,
                "pitch": 69,
                "velocity": 80,
                "duration": 0.0340909,
                "tempo": 120.0
            },
            {
                "start_time": 51.0704545,
                "end_time": 51.2886364,
                "pitch": 62,
                "velocity": 80,
                "duration": 0.2181818,
                "tempo": 120.0
            },
            {
                "start_time": 51.2886364,
                "end_time": 51.5704545,
                "pitch": 64,
                "velocity": 80,
                "duration": 0.2818182,
                "tempo": 120.0
            },
            {
                "start_time": 50.6954545,
                "end_time": 51.6840909,
                "pitch": 0,
                "velocity": 80,
                "duration": 0.9886364,
                "tempo": 120.0
            },
            {
                "start_time": 51.5704545,
                "end_time": 51.6840909,
                "pitch": 66,
                "velocity": 80,
                "duration": 0.1136364,
                "tempo": 120.0
            },
            {
                "start_time": 51.6840909,
                "end_time": 51.9977273,
                "pitch": 67,
                "velocity": 80,
                "duration": 0.3136364,
                "tempo": 120.0
            },
            {
                "start_time": 51.9977273,
                "end_time": 52.0318182,
                "pitch": 69,
                "velocity": 80,
                "duration": 0.0340909,
                "tempo": 120.0
            },
            {
                "start_time": 52.0659091,
                "end_time": 52.2840909,
                "pitch": 62,
                "velocity": 80,
                "duration": 0.2181818,
                "tempo": 120.0
            },
            {
                "start_time": 52.2840909,
                "end_time": 52.5681818,
                "pitch": 64,
                "velocity": 80,
                "duration": 0.2840909,
                "tempo": 120.0
            },
            {
                "start_time": 51.6840909,
                "end_time": 52.6818182,
                "pitch": 0,
                "velocity": 80,
                "duration": 0.9977273,
                "tempo": 120.0
            },
            {
                "start_time": 52.5681818,
                "end_time": 52.6818182,
                "pitch": 66,
                "velocity": 80,
                "duration": 0.1136364,
                "tempo": 120.0
            },
            {
                "start_time": 52.6818182,
                "end_time": 52.9931818,
                "pitch": 67,
                "velocity": 80,
                "duration": 0.3113636,
                "tempo": 120.0
            },
            {
                "start_time": 52.9931818,
                "end_time": 53.0272727,
                "pitch": 69,
                "velocity": 80,
                "duration": 0.0340909,
                "tempo": 120.0
            },
            {
                "start_time": 53.0636364,
                "end_time": 53.2863636,
                "pitch": 62,
                "velocity": 80,
                "duration": 0.2227273,
                "tempo": 120.0
            },
            {
                "start_time": 53.2863636,
                "end_time": 53.5590909,
                "pitch": 64,
                "velocity": 80,
                "duration": 0.2727273,
                "tempo": 120.0
            },
            {
                "start_time": 52.6818182,
                "end_time": 53.6704545,
                "pitch": 0,
                "velocity": 80,
                "duration": 0.9886364,
                "tempo": 120.0
            },
            {
                "start_time": 53.5590909,
                "end_time": 53.6704545,
                "pitch": 66,
                "velocity": 80,
                "duration": 0.1113636,
                "tempo": 120.0
            },
            {
                "start_time": 53.6704545,
                "end_time": 53.9954545,
                "pitch": 67,
                "velocity": 80,
                "duration": 0.325,
                "tempo": 120.0
            },
            {
                "start_time": 53.9954545,
                "end_time": 54.0477273,
                "pitch": 69,
                "velocity": 80,
                "duration": 0.0522727,
                "tempo": 120.0
            }
        ],
        "Lead 2 (sawtooth)": [
            {
                "start_time": 36.0659091,
                "end_time": 36.5909091,
                "pitch": 62,
                "velocity": 101,
                "duration": 0.525,
                "tempo": 120.0
            },
            {
                "start_time": 36.625,
                "end_time": 36.9727273,
                "pitch": 62,
                "velocity": 101,
                "duration": 0.3477273,
                "tempo": 120.0
            },
            {
                "start_time": 37.0045455,
                "end_time": 37.15,
                "pitch": 58,
                "velocity": 101,
                "duration": 0.1454545,
                "tempo": 120.0
            },
            {
                "start_time": 37.1840909,
                "end_time": 37.3340909,
                "pitch": 67,
                "velocity": 101,
                "duration": 0.15,
                "tempo": 120.0
            },
            {
                "start_time": 37.3681818,
                "end_time": 37.5363636,
                "pitch": 62,
                "velocity": 101,
                "duration": 0.1681818,
                "tempo": 120.0
            },
            {
                "start_time": 37.5704545,
                "end_time": 37.7227273,
                "pitch": 65,
                "velocity": 101,
                "duration": 0.1522727,
                "tempo": 120.0
            },
            {
                "start_time": 37.7590909,
                "end_time": 38.1068182,
                "pitch": 60,
                "velocity": 101,
                "duration": 0.3477273,
                "tempo": 120.0
            },
            {
                "start_time": 38.1227273,
                "end_time": 38.2818182,
                "pitch": 65,
                "velocity": 80,
                "duration": 0.1590909,
                "tempo": 120.0
            },
            {
                "start_time": 38.3136364,
                "end_time": 38.6568182,
                "pitch": 60,
                "velocity": 80,
                "duration": 0.3431818,
                "tempo": 120.0
            },
            {
                "start_time": 38.6909091,
                "end_time": 38.85,
                "pitch": 65,
                "velocity": 80,
                "duration": 0.1590909,
                "tempo": 120.0
            },
            {
                "start_time": 38.8818182,
                "end_time": 39.025,
                "pitch": 60,
                "velocity": 80,
                "duration": 0.1431818,
                "tempo": 120.0
            },
            {
                "start_time": 39.0568182,
                "end_time": 39.6022727,
                "pitch": 63,
                "velocity": 101,
                "duration": 0.5454545,
                "tempo": 120.0
            },
            {
                "start_time": 39.6363636,
                "end_time": 39.9840909,
                "pitch": 63,
                "velocity": 101,
                "duration": 0.3477273,
                "tempo": 120.0
            },
            {
                "start_time": 40.0,
                "end_time": 40.1636364,
                "pitch": 58,
                "velocity": 101,
                "duration": 0.1636364,
                "tempo": 120.0
            },
            {
                "start_time": 40.1954545,
                "end_time": 40.3454545,
                "pitch": 67,
                "velocity": 101,
                "duration": 0.15,
                "tempo": 120.0
            },
            {
                "start_time": 40.3795455,
                "end_time": 40.5295455,
                "pitch": 63,
                "velocity": 101,
                "duration": 0.15,
                "tempo": 120.0
            },
            {
                "start_time": 40.5636364,
                "end_time": 40.775,
                "pitch": 65,
                "velocity": 101,
                "duration": 0.2113636,
                "tempo": 120.0
            },
            {
                "start_time": 40.8090909,
                "end_time": 41.0386364,
                "pitch": 67,
                "velocity": 101,
                "duration": 0.2295455,
                "tempo": 120.0
            },
            {
                "start_time": 41.0568182,
                "end_time": 41.2909091,
                "pitch": 69,
                "velocity": 101,
                "duration": 0.2340909,
                "tempo": 120.0
            },
            {
                "start_time": 41.3090909,
                "end_time": 41.5363636,
                "pitch": 65,
                "velocity": 80,
                "duration": 0.2272727,
                "tempo": 120.0
            },
            {
                "start_time": 41.5681818,
                "end_time": 41.7818182,
                "pitch": 67,
                "velocity": 80,
                "duration": 0.2136364,
                "tempo": 120.0
            },
            {
                "start_time": 41.8159091,
                "end_time": 42.0340909,
                "pitch": 69,
                "velocity": 80,
                "duration": 0.2181818,
                "tempo": 120.0
            },
            {
                "start_time": 42.0681818,
                "end_time": 42.6045455,
                "pitch": 62,
                "velocity": 101,
                "duration": 0.5363636,
                "tempo": 120.0
            },
            {
                "start_time": 42.6363636,
                "end_time": 42.9659091,
                "pitch": 62,
                "velocity": 101,
                "duration": 0.3295455,
                "tempo": 120.0
            },
            {
                "start_time": 43.0,
                "end_time": 43.1727273,
                "pitch": 58,
                "velocity": 101,
                "duration": 0.1727273,
                "tempo": 120.0
            },
            {
                "start_time": 43.1909091,
                "end_time": 43.3522727,
                "pitch": 67,
                "velocity": 101,
                "duration": 0.1613636,
                "tempo": 120.0
            },
            {
                "start_time": 43.3863636,
                "end_time": 43.5318182,
                "pitch": 62,
                "velocity": 101,
                "duration": 0.1454545,
                "tempo": 120.0
            },
            {
                "start_time": 43.5636364,
                "end_time": 43.7159091,
                "pitch": 65,
                "velocity": 101,
                "duration": 0.1522727,
                "tempo": 120.0
            },
            {
                "start_time": 43.75,
                "end_time": 44.1022727,
                "pitch": 60,
                "velocity": 101,
                "duration": 0.3522727,
                "tempo": 120.0
            },
            {
                "start_time": 44.1363636,
                "end_time": 44.2863636,
                "pitch": 65,
                "velocity": 80,
                "duration": 0.15,
                "tempo": 120.0
            },
            {
                "start_time": 44.3204545,
                "end_time": 44.6613636,
                "pitch": 60,
                "velocity": 80,
                "duration": 0.3409091,
                "tempo": 120.0
            },
            {
                "start_time": 44.6931818,
                "end_time": 44.8454545,
                "pitch": 65,
                "velocity": 80,
                "duration": 0.1522727,
                "tempo": 120.0
            },
            {
                "start_time": 44.8795455,
                "end_time": 45.0295455,
                "pitch": 60,
                "velocity": 80,
                "duration": 0.15,
                "tempo": 120.0
            },
            {
                "start_time": 45.0636364,
                "end_time": 45.5886364,
                "pitch": 64,
                "velocity": 101,
                "duration": 0.525,
                "tempo": 120.0
            },
            {
                "start_time": 45.6227273,
                "end_time": 45.9772727,
                "pitch": 64,
                "velocity": 101,
                "duration": 0.3545455,
                "tempo": 120.0
            },
            {
                "start_time": 46.0136364,
                "end_time": 46.1681818,
                "pitch": 60,
                "velocity": 101,
                "duration": 0.1545455,
                "tempo": 120.0
            },
            {
                "start_time": 46.2022727,
                "end_time": 46.3636364,
                "pitch": 67,
                "velocity": 101,
                "duration": 0.1613636,
                "tempo": 120.0
            },
            {
                "start_time": 46.3818182,
                "end_time": 46.5431818,
                "pitch": 64,
                "velocity": 101,
                "duration": 0.1613636,
                "tempo": 120.0
            },
            {
                "start_time": 46.5772727,
                "end_time": 46.7931818,
                "pitch": 63,
                "velocity": 101,
                "duration": 0.2159091,
                "tempo": 120.0
            },
            {
                "start_time": 46.8272727,
                "end_time": 47.0431818,
                "pitch": 65,
                "velocity": 101,
                "duration": 0.2159091,
                "tempo": 120.0
            },
            {
                "start_time": 47.075,
                "end_time": 47.2863636,
                "pitch": 67,
                "velocity": 101,
                "duration": 0.2113636,
                "tempo": 120.0
            },
            {
                "start_time": 47.3204545,
                "end_time": 47.5363636,
                "pitch": 63,
                "velocity": 80,
                "duration": 0.2159091,
                "tempo": 120.0
            },
            {
                "start_time": 47.5704545,
                "end_time": 47.7840909,
                "pitch": 65,
                "velocity": 80,
                "duration": 0.2136364,
                "tempo": 120.0
            },
            {
                "start_time": 47.8159091,
                "end_time": 48.0204545,
                "pitch": 67,
                "velocity": 80,
                "duration": 0.2045455,
                "tempo": 120.0
            }
        ],
        "Acoustic Bass": [
            {
                "start_time": 0.0409091,
                "end_time": 0.1863636,
                "pitch": 26,
                "velocity": 101,
                "duration": 0.1454545,
                "tempo": 120.0
            },
            {
                "start_time": 0.2204545,
                "end_time": 0.3704545,
                "pitch": 26,
                "velocity": 101,
                "duration": 0.15,
                "tempo": 120.0
            },
            {
                "start_time": 0.4045455,
                "end_time": 0.5681818,
                "pitch": 38,
                "velocity": 101,
                "duration": 0.1636364,
                "tempo": 120.0
            },
            {
                "start_time": 0.6,
                "end_time": 0.7454545,
                "pitch": 26,
                "velocity": 101,
                "duration": 0.1454545,
                "tempo": 120.0
            },
            {
                "start_time": 0.7795455,
                "end_time": 0.9340909,
                "pitch": 26,
                "velocity": 101,
                "duration": 0.1545455,
                "tempo": 120.0
            },
            {
                "start_time": 0.9681818,
                "end_time": 1.1409091,
                "pitch": 26,
                "velocity": 101,
                "duration": 0.1727273,
                "tempo": 120.0
            },
            {
                "start_time": 1.175,
                "end_time": 1.325,
                "pitch": 38,
                "velocity": 101,
                "duration": 0.15,
                "tempo": 120.0
            },
            {
                "start_time": 1.3590909,
                "end_time": 1.5113636,
                "pitch": 26,
                "velocity": 101,
                "duration": 0.1522727,
                "tempo": 120.0
            },
            {
                "start_time": 1.5454545,
                "end_time": 1.7068182,
                "pitch": 26,
                "velocity": 101,
                "duration": 0.1613636,
                "tempo": 120.0
            },
            {
                "start_time": 1.7227273,
                "end_time": 1.8863636,
                "pitch": 26,
                "velocity": 101,
                "duration": 0.1636364,
                "tempo": 120.0
            },
            {
                "start_time": 1.9181818,
                "end_time": 2.0681818,
                "pitch": 38,
                "velocity": 101,
                "duration": 0.15,
                "tempo": 120.0
            },
            {
                "start_time": 2.1022727,
                "end_time": 2.2545455,
                "pitch": 26,
                "velocity": 101,
                "duration": 0.1522727,
                "tempo": 120.0
            },
            {
                "start_time": 2.2863636,
                "end_time": 2.45,
                "pitch": 26,
                "velocity": 101,
                "duration": 0.1636364,
                "tempo": 120.0
            },
            {
                "start_time": 2.4818182,
                "end_time": 2.6295455,
                "pitch": 26,
                "velocity": 101,
                "duration": 0.1477273,
                "tempo": 120.0
            },
            {
                "start_time": 2.6613636,
                "end_time": 2.8159091,
                "pitch": 38,
                "velocity": 101,
                "duration": 0.1545455,
                "tempo": 120.0
            },
            {
                "start_time": 2.85,
                "end_time": 3.0227273,
                "pitch": 26,
                "velocity": 101,
                "duration": 0.1727273,
                "tempo": 120.0
            },
            {
                "start_time": 3.0409091,
                "end_time": 3.1977273,
                "pitch": 26,
                "velocity": 101,
                "duration": 0.1568182,
                "tempo": 120.0
            },
            {
                "start_time": 3.2295455,
                "end_time": 3.3727273,
                "pitch": 26,
                "velocity": 101,
                "duration": 0.1431818,
                "tempo": 120.0
            },
            {
                "start_time": 3.4045455,
                "end_time": 3.5590909,
                "pitch": 38,
                "velocity": 101,
                "duration": 0.1545455,
                "tempo": 120.0
            },
            {
                "start_time": 3.5931818,
                "end_time": 3.7659091,
                "pitch": 26,
                "velocity": 101,
                "duration": 0.1727273,
                "tempo": 120.0
            },
            {
                "start_time": 3.8,
                "end_time": 3.9522727,
                "pitch": 26,
                "velocity": 101,
                "duration": 0.1522727,
                "tempo": 120.0
            },
            {
                "start_time": 3.9840909,
                "end_time": 4.1363636,
                "pitch": 26,
                "velocity": 101,
                "duration": 0.1522727,
                "tempo": 120.0
            },
            {
                "start_time": 4.1704545,
                "end_time": 4.3318182,
                "pitch": 38,
                "velocity": 101,
                "duration": 0.1613636,
                "tempo": 120.0
            },
            {
                "start_time": 4.3659091,
                "end_time": 4.5113636,
                "pitch": 26,
                "velocity": 101,
                "duration": 0.1454545,
                "tempo": 120.0
            },
            {
                "start_time": 4.5431818,
                "end_time": 4.6954545,
                "pitch": 26,
                "velocity": 101,
                "duration": 0.1522727,
                "tempo": 120.0
            },
            {
                "start_time": 4.7295455,
                "end_time": 4.8954545,
                "pitch": 26,
                "velocity": 101,
                "duration": 0.1659091,
                "tempo": 120.0
            },
            {
                "start_time": 4.9136364,
                "end_time": 5.075,
                "pitch": 38,
                "velocity": 101,
                "duration": 0.1613636,
                "tempo": 120.0
            },
            {
                "start_time": 5.1090909,
                "end_time": 5.2545455,
                "pitch": 26,
                "velocity": 101,
                "duration": 0.1454545,
                "tempo": 120.0
            },
            {
                "start_time": 5.2863636,
                "end_time": 5.4386364,
                "pitch": 26,
                "velocity": 101,
                "duration": 0.1522727,
                "tempo": 120.0
            },
            {
                "start_time": 5.4727273,
                "end_time": 5.6386364,
                "pitch": 26,
                "velocity": 101,
                "duration": 0.1659091,
                "tempo": 120.0
            },
            {
                "start_time": 5.6727273,
                "end_time": 5.8272727,
                "pitch": 38,
                "velocity": 101,
                "duration": 0.1545455,
                "tempo": 120.0
            },
            {
                "start_time": 5.8613636,
                "end_time": 6.0181818,
                "pitch": 26,
                "velocity": 101,
                "duration": 0.1568182,
                "tempo": 120.0
            },
            {
                "start_time": 6.0545455,
                "end_time": 6.2113636,
                "pitch": 26,
                "velocity": 101,
                "duration": 0.1568182,
                "tempo": 120.0
            },
            {
                "start_time": 6.2272727,
                "end_time": 6.3840909,
                "pitch": 26,
                "velocity": 101,
                "duration": 0.1568182,
                "tempo": 120.0
            },
            {
                "start_time": 6.4159091,
                "end_time": 6.5704545,
                "pitch": 38,
                "velocity": 101,
                "duration": 0.1545455,
                "tempo": 120.0
            },
            {
                "start_time": 6.6068182,
                "end_time": 6.7613636,
                "pitch": 26,
                "velocity": 101,
                "duration": 0.1545455,
                "tempo": 120.0
            },
            {
                "start_time": 6.7954545,
                "end_time": 6.9545455,
                "pitch": 26,
                "velocity": 101,
                "duration": 0.1590909,
                "tempo": 120.0
            },
            {
                "start_time": 6.9863636,
                "end_time": 7.1295455,
                "pitch": 26,
                "velocity": 101,
                "duration": 0.1431818,
                "tempo": 120.0
            },
            {
                "start_time": 7.1613636,
                "end_time": 7.3136364,
                "pitch": 38,
                "velocity": 101,
                "duration": 0.1522727,
                "tempo": 120.0
            },
            {
                "start_time": 7.35,
                "end_time": 7.5204545,
                "pitch": 26,
                "velocity": 101,
                "duration": 0.1704545,
                "tempo": 120.0
            },
            {
                "start_time": 7.5568182,
                "end_time": 7.7068182,
                "pitch": 26,
                "velocity": 101,
                "duration": 0.15,
                "tempo": 120.0
            },
            {
                "start_time": 7.7409091,
                "end_time": 7.8909091,
                "pitch": 26,
                "velocity": 101,
                "duration": 0.15,
                "tempo": 120.0
            },
            {
                "start_time": 7.925,
                "end_time": 8.0886364,
                "pitch": 38,
                "velocity": 101,
                "duration": 0.1636364,
                "tempo": 120.0
            },
            {
                "start_time": 8.1045455,
                "end_time": 8.2659091,
                "pitch": 26,
                "velocity": 101,
                "duration": 0.1613636,
                "tempo": 120.0
            },
            {
                "start_time": 8.3,
                "end_time": 8.45,
                "pitch": 26,
                "velocity": 101,
                "duration": 0.15,
                "tempo": 120.0
            },
            {
                "start_time": 8.4840909,
                "end_time": 8.6340909,
                "pitch": 26,
                "velocity": 101,
                "duration": 0.15,
                "tempo": 120.0
            },
            {
                "start_time": 8.6681818,
                "end_time": 8.8318182,
                "pitch": 38,
                "velocity": 101,
                "duration": 0.1636364,
                "tempo": 120.0
            },
            {
                "start_time": 8.8636364,
                "end_time": 9.0090909,
                "pitch": 26,
                "velocity": 101,
                "duration": 0.1454545,
                "tempo": 120.0
            },
            {
                "start_time": 9.0431818,
                "end_time": 9.1931818,
                "pitch": 26,
                "velocity": 101,
                "duration": 0.15,
                "tempo": 120.0
            },
            {
                "start_time": 9.2272727,
                "end_time": 9.3954545,
                "pitch": 26,
                "velocity": 101,
                "duration": 0.1681818,
                "tempo": 120.0
            },
            {
                "start_time": 9.4113636,
                "end_time": 9.575,
                "pitch": 38,
                "velocity": 101,
                "duration": 0.1636364,
                "tempo": 120.0
            },
            {
                "start_time": 9.6068182,
                "end_time": 9.7522727,
                "pitch": 26,
                "velocity": 101,
                "duration": 0.1454545,
                "tempo": 120.0
            },
            {
                "start_time": 9.7863636,
                "end_time": 9.9363636,
                "pitch": 26,
                "velocity": 101,
                "duration": 0.15,
                "tempo": 120.0
            },
            {
                "start_time": 9.9704545,
                "end_time": 10.1386364,
                "pitch": 26,
                "velocity": 101,
                "duration": 0.1681818,
                "tempo": 120.0
            },
            {
                "start_time": 10.1727273,
                "end_time": 10.3272727,
                "pitch": 38,
                "velocity": 101,
                "duration": 0.1545455,
                "tempo": 120.0
            },
            {
                "start_time": 10.3613636,
                "end_time": 10.5159091,
                "pitch": 26,
                "velocity": 101,
                "duration": 0.1545455,
                "tempo": 120.0
            },
            {
                "start_time": 10.55,
                "end_time": 10.7136364,
                "pitch": 26,
                "velocity": 101,
                "duration": 0.1636364,
                "tempo": 120.0
            },
            {
                "start_time": 10.7454545,
                "end_time": 10.8931818,
                "pitch": 26,
                "velocity": 101,
                "duration": 0.1477273,
                "tempo": 120.0
            },
            {
                "start_time": 10.925,
                "end_time": 11.075,
                "pitch": 38,
                "velocity": 101,
                "duration": 0.15,
                "tempo": 120.0
            },
            {
                "start_time": 11.1090909,
                "end_time": 11.2772727,
                "pitch": 26,
                "velocity": 101,
                "duration": 0.1681818,
                "tempo": 120.0
            },
            {
                "start_time": 11.2931818,
                "end_time": 11.4568182,
                "pitch": 26,
                "velocity": 101,
                "duration": 0.1636364,
                "tempo": 120.0
            },
            {
                "start_time": 11.4886364,
                "end_time": 11.6363636,
                "pitch": 26,
                "velocity": 101,
                "duration": 0.1477273,
                "tempo": 120.0
            },
            {
                "start_time": 11.6681818,
                "end_time": 11.8181818,
                "pitch": 38,
                "velocity": 101,
                "duration": 0.15,
                "tempo": 120.0
            },
            {
                "start_time": 11.8522727,
                "end_time": 12.0204545,
                "pitch": 26,
                "velocity": 101,
                "duration": 0.1681818,
                "tempo": 120.0
            },
            {
                "start_time": 12.0568182,
                "end_time": 12.2090909,
                "pitch": 31,
                "velocity": 101,
                "duration": 0.1522727,
                "tempo": 120.0
            },
            {
                "start_time": 12.2431818,
                "end_time": 12.3977273,
                "pitch": 31,
                "velocity": 101,
                "duration": 0.1545455,
                "tempo": 120.0
            },
            {
                "start_time": 12.4340909,
                "end_time": 12.5909091,
                "pitch": 31,
                "velocity": 101,
                "duration": 0.1568182,
                "tempo": 120.0
            },
            {
                "start_time": 12.6090909,
                "end_time": 12.6704545,
                "pitch": 31,
                "velocity": 101,
                "duration": 0.0613636,
                "tempo": 120.0
            },
            {
                "start_time": 12.7022727,
                "end_time": 12.7659091,
                "pitch": 31,
                "velocity": 101,
                "duration": 0.0636364,
                "tempo": 120.0
            },
            {
                "start_time": 12.7977273,
                "end_time": 12.95,
                "pitch": 31,
                "velocity": 101,
                "duration": 0.1522727,
                "tempo": 120.0
            },
            {
                "start_time": 12.9840909,
                "end_time": 13.1340909,
                "pitch": 31,
                "velocity": 101,
                "duration": 0.15,
                "tempo": 120.0
            },
            {
                "start_time": 13.1681818,
                "end_time": 13.3295455,
                "pitch": 31,
                "velocity": 101,
                "duration": 0.1613636,
                "tempo": 120.0
            },
            {
                "start_time": 13.3636364,
                "end_time": 13.4113636,
                "pitch": 31,
                "velocity": 101,
                "duration": 0.0477273,
                "tempo": 120.0
            },
            {
                "start_time": 13.4454545,
                "end_time": 13.5090909,
                "pitch": 31,
                "velocity": 101,
                "duration": 0.0636364,
                "tempo": 120.0
            },
            {
                "start_time": 13.5431818,
                "end_time": 13.6954545,
                "pitch": 31,
                "velocity": 101,
                "duration": 0.1522727,
                "tempo": 120.0
            },
            {
                "start_time": 13.7318182,
                "end_time": 13.9022727,
                "pitch": 31,
                "velocity": 101,
                "duration": 0.1704545,
                "tempo": 120.0
            },
            {
                "start_time": 13.9386364,
                "end_time": 14.0886364,
                "pitch": 31,
                "velocity": 101,
                "duration": 0.15,
                "tempo": 120.0
            },
            {
                "start_time": 14.1227273,
                "end_time": 14.1886364,
                "pitch": 31,
                "velocity": 101,
                "duration": 0.0659091,
                "tempo": 120.0
            },
            {
                "start_time": 14.2045455,
                "end_time": 14.2727273,
                "pitch": 31,
                "velocity": 101,
                "duration": 0.0681818,
                "tempo": 120.0
            },
            {
                "start_time": 14.3068182,
                "end_time": 14.4681818,
                "pitch": 31,
                "velocity": 101,
                "duration": 0.1613636,
                "tempo": 120.0
            },
            {
                "start_time": 14.4863636,
                "end_time": 14.6477273,
                "pitch": 31,
                "velocity": 101,
                "duration": 0.1613636,
                "tempo": 120.0
            },
            {
                "start_time": 14.6795455,
                "end_time": 14.8272727,
                "pitch": 31,
                "velocity": 101,
                "duration": 0.1477273,
                "tempo": 120.0
            },
            {
                "start_time": 14.8590909,
                "end_time": 14.925,
                "pitch": 31,
                "velocity": 101,
                "duration": 0.0659091,
                "tempo": 120.0
            },
            {
                "start_time": 14.9568182,
                "end_time": 15.0068182,
                "pitch": 31,
                "velocity": 101,
                "duration": 0.05,
                "tempo": 120.0
            },
            {
                "start_time": 15.0386364,
                "end_time": 15.2068182,
                "pitch": 31,
                "velocity": 101,
                "duration": 0.1681818,
                "tempo": 120.0
            },
            {
                "start_time": 15.2409091,
                "end_time": 15.3909091,
                "pitch": 31,
                "velocity": 101,
                "duration": 0.15,
                "tempo": 120.0
            },
            {
                "start_time": 15.425,
                "end_time": 15.575,
                "pitch": 31,
                "velocity": 101,
                "duration": 0.15,
                "tempo": 120.0
            },
            {
                "start_time": 15.6090909,
                "end_time": 15.675,
                "pitch": 31,
                "velocity": 101,
                "duration": 0.0659091,
                "tempo": 120.0
            },
            {
                "start_time": 15.7090909,
                "end_time": 15.7772727,
                "pitch": 31,
                "velocity": 101,
                "duration": 0.0681818,
                "tempo": 120.0
            },
            {
                "start_time": 15.7931818,
                "end_time": 15.9568182,
                "pitch": 31,
                "velocity": 101,
                "duration": 0.1636364,
                "tempo": 120.0
            },
            {
                "start_time": 15.9886364,
                "end_time": 16.1340909,
                "pitch": 31,
                "velocity": 101,
                "duration": 0.1454545,
                "tempo": 120.0
            },
            {
                "start_time": 16.1681818,
                "end_time": 16.3181818,
                "pitch": 31,
                "velocity": 101,
                "duration": 0.15,
                "tempo": 120.0
            },
            {
                "start_time": 16.3522727,
                "end_time": 16.4181818,
                "pitch": 31,
                "velocity": 101,
                "duration": 0.0659091,
                "tempo": 120.0
            },
            {
                "start_time": 16.4522727,
                "end_time": 16.5204545,
                "pitch": 31,
                "velocity": 101,
                "duration": 0.0681818,
                "tempo": 120.0
            },
            {
                "start_time": 16.5545455,
                "end_time": 16.7090909,
                "pitch": 31,
                "velocity": 101,
                "duration": 0.1545455,
                "tempo": 120.0
            },
            {
                "start_time": 16.7431818,
                "end_time": 16.8977273,
                "pitch": 31,
                "velocity": 101,
                "duration": 0.1545455,
                "tempo": 120.0
            },
            {
                "start_time": 16.9318182,
                "end_time": 17.0909091,
                "pitch": 31,
                "velocity": 101,
                "duration": 0.1590909,
                "tempo": 120.0
            },
            {
                "start_time": 17.1227273,
                "end_time": 17.1704545,
                "pitch": 31,
                "velocity": 101,
                "duration": 0.0477273,
                "tempo": 120.0
            },
            {
                "start_time": 17.2022727,
                "end_time": 17.2659091,
                "pitch": 31,
                "velocity": 101,
                "duration": 0.0636364,
                "tempo": 120.0
            },
            {
                "start_time": 17.2977273,
                "end_time": 17.4522727,
                "pitch": 31,
                "velocity": 101,
                "duration": 0.1545455,
                "tempo": 120.0
            },
            {
                "start_time": 17.4863636,
                "end_time": 17.6568182,
                "pitch": 31,
                "velocity": 101,
                "duration": 0.1704545,
                "tempo": 120.0
            },
            {
                "start_time": 17.675,
                "end_time": 17.8340909,
                "pitch": 31,
                "velocity": 101,
                "duration": 0.1590909,
                "tempo": 120.0
            },
            {
                "start_time": 17.8659091,
                "end_time": 17.9136364,
                "pitch": 31,
                "velocity": 101,
                "duration": 0.0477273,
                "tempo": 120.0
            },
            {
                "start_time": 17.9454545,
                "end_time": 18.0090909,
                "pitch": 31,
                "velocity": 101,
                "duration": 0.0636364,
                "tempo": 120.0
            },
            {
                "start_time": 18.0431818,
                "end_time": 18.1954545,
                "pitch": 31,
                "velocity": 101,
                "duration": 0.1522727,
                "tempo": 120.0
            },
            {
                "start_time": 18.2295455,
                "end_time": 18.4022727,
                "pitch": 31,
                "velocity": 101,
                "duration": 0.1727273,
                "tempo": 120.0
            },
            {
                "start_time": 18.4363636,
                "end_time": 18.5863636,
                "pitch": 31,
                "velocity": 101,
                "duration": 0.15,
                "tempo": 120.0
            },
            {
                "start_time": 18.6204545,
                "end_time": 18.6886364,
                "pitch": 31,
                "velocity": 101,
                "duration": 0.0681818,
                "tempo": 120.0
            },
            {
                "start_time": 18.7204545,
                "end_time": 18.7704545,
                "pitch": 31,
                "velocity": 101,
                "duration": 0.05,
                "tempo": 120.0
            },
            {
                "start_time": 18.8045455,
                "end_time": 18.9681818,
                "pitch": 31,
                "velocity": 101,
                "duration": 0.1636364,
                "tempo": 120.0
            },
            {
                "start_time": 18.9840909,
                "end_time": 19.1477273,
                "pitch": 31,
                "velocity": 101,
                "duration": 0.1636364,
                "tempo": 120.0
            },
            {
                "start_time": 19.1795455,
                "end_time": 19.3295455,
                "pitch": 31,
                "velocity": 101,
                "duration": 0.15,
                "tempo": 120.0
            },
            {
                "start_time": 19.3659091,
                "end_time": 19.4318182,
                "pitch": 31,
                "velocity": 101,
                "duration": 0.0659091,
                "tempo": 120.0
            },
            {
                "start_time": 19.4659091,
                "end_time": 19.5159091,
                "pitch": 31,
                "velocity": 101,
                "duration": 0.05,
                "tempo": 120.0
            },
            {
                "start_time": 19.55,
                "end_time": 19.7113636,
                "pitch": 31,
                "velocity": 101,
                "duration": 0.1613636,
                "tempo": 120.0
            },
            {
                "start_time": 19.7454545,
                "end_time": 19.8909091,
                "pitch": 31,
                "velocity": 101,
                "duration": 0.1454545,
                "tempo": 120.0
            },
            {
                "start_time": 19.9227273,
                "end_time": 20.075,
                "pitch": 31,
                "velocity": 101,
                "duration": 0.1522727,
                "tempo": 120.0
            },
            {
                "start_time": 20.1090909,
                "end_time": 20.175,
                "pitch": 31,
                "velocity": 101,
                "duration": 0.0659091,
                "tempo": 120.0
            },
            {
                "start_time": 20.2090909,
                "end_time": 20.275,
                "pitch": 31,
                "velocity": 101,
                "duration": 0.0659091,
                "tempo": 120.0
            },
            {
                "start_time": 20.3090909,
                "end_time": 20.4636364,
                "pitch": 31,
                "velocity": 101,
                "duration": 0.1545455,
                "tempo": 120.0
            },
            {
                "start_time": 20.4977273,
                "end_time": 20.6522727,
                "pitch": 31,
                "velocity": 101,
                "duration": 0.1545455,
                "tempo": 120.0
            },
            {
                "start_time": 20.6863636,
                "end_time": 20.8454545,
                "pitch": 31,
                "velocity": 101,
                "duration": 0.1590909,
                "tempo": 120.0
            },
            {
                "start_time": 20.8636364,
                "end_time": 20.925,
                "pitch": 31,
                "velocity": 101,
                "duration": 0.0613636,
                "tempo": 120.0
            },
            {
                "start_time": 20.9568182,
                "end_time": 21.0204545,
                "pitch": 31,
                "velocity": 101,
                "duration": 0.0636364,
                "tempo": 120.0
            },
            {
                "start_time": 21.0545455,
                "end_time": 21.2068182,
                "pitch": 31,
                "velocity": 101,
                "duration": 0.1522727,
                "tempo": 120.0
            },
            {
                "start_time": 21.2431818,
                "end_time": 21.3954545,
                "pitch": 31,
                "velocity": 101,
                "duration": 0.1522727,
                "tempo": 120.0
            },
            {
                "start_time": 21.4318182,
                "end_time": 21.5886364,
                "pitch": 31,
                "velocity": 101,
                "duration": 0.1568182,
                "tempo": 120.0
            },
            {
                "start_time": 21.6227273,
                "end_time": 21.6681818,
                "pitch": 31,
                "velocity": 101,
                "duration": 0.0454545,
                "tempo": 120.0
            },
            {
                "start_time": 21.7,
                "end_time": 21.7636364,
                "pitch": 31,
                "velocity": 101,
                "duration": 0.0636364,
                "tempo": 120.0
            },
            {
                "start_time": 21.7954545,
                "end_time": 21.95,
                "pitch": 31,
                "velocity": 101,
                "duration": 0.1545455,
                "tempo": 120.0
            },
            {
                "start_time": 21.9863636,
                "end_time": 22.1568182,
                "pitch": 31,
                "velocity": 101,
                "duration": 0.1704545,
                "tempo": 120.0
            },
            {
                "start_time": 22.175,
                "end_time": 22.3318182,
                "pitch": 31,
                "velocity": 101,
                "duration": 0.1568182,
                "tempo": 120.0
            },
            {
                "start_time": 22.3659091,
                "end_time": 22.4272727,
                "pitch": 31,
                "velocity": 101,
                "duration": 0.0613636,
                "tempo": 120.0
            },
            {
                "start_time": 22.4431818,
                "end_time": 22.5068182,
                "pitch": 31,
                "velocity": 101,
                "duration": 0.0636364,
                "tempo": 120.0
            },
            {
                "start_time": 22.5409091,
                "end_time": 22.6931818,
                "pitch": 31,
                "velocity": 101,
                "duration": 0.1522727,
                "tempo": 120.0
            },
            {
                "start_time": 22.7295455,
                "end_time": 22.9,
                "pitch": 31,
                "velocity": 101,
                "duration": 0.1704545,
                "tempo": 120.0
            },
            {
                "start_time": 22.9340909,
                "end_time": 23.0863636,
                "pitch": 31,
                "velocity": 101,
                "duration": 0.1522727,
                "tempo": 120.0
            },
            {
                "start_time": 23.1204545,
                "end_time": 23.1863636,
                "pitch": 31,
                "velocity": 101,
                "duration": 0.0659091,
                "tempo": 120.0
            },
            {
                "start_time": 23.2204545,
                "end_time": 23.2704545,
                "pitch": 31,
                "velocity": 101,
                "duration": 0.05,
                "tempo": 120.0
            },
            {
                "start_time": 23.3045455,
                "end_time": 23.4659091,
                "pitch": 31,
                "velocity": 101,
                "duration": 0.1613636,
                "tempo": 120.0
            },
            {
                "start_time": 23.5,
                "end_time": 23.6454545,
                "pitch": 31,
                "velocity": 101,
                "duration": 0.1454545,
                "tempo": 120.0
            },
            {
                "start_time": 23.6772727,
                "end_time": 23.8295455,
                "pitch": 31,
                "velocity": 101,
                "duration": 0.1522727,
                "tempo": 120.0
            },
            {
                "start_time": 23.8636364,
                "end_time": 23.9295455,
                "pitch": 31,
                "velocity": 101,
                "duration": 0.0659091,
                "tempo": 120.0
            },
            {
                "start_time": 23.9636364,
                "end_time": 24.0295455,
                "pitch": 31,
                "velocity": 101,
                "duration": 0.0659091,
                "tempo": 120.0
            },
            {
                "start_time": 24.05,
                "end_time": 24.2090909,
                "pitch": 27,
                "velocity": 101,
                "duration": 0.1590909,
                "tempo": 120.0
            },
            {
                "start_time": 24.2431818,
                "end_time": 24.3886364,
                "pitch": 27,
                "velocity": 101,
                "duration": 0.1454545,
                "tempo": 120.0
            },
            {
                "start_time": 24.4227273,
                "end_time": 24.5727273,
                "pitch": 27,
                "velocity": 101,
                "duration": 0.15,
                "tempo": 120.0
            },
            {
                "start_time": 24.6068182,
                "end_time": 24.6727273,
                "pitch": 27,
                "velocity": 101,
                "duration": 0.0659091,
                "tempo": 120.0
            },
            {
                "start_time": 24.7068182,
                "end_time": 24.775,
                "pitch": 27,
                "velocity": 101,
                "duration": 0.0681818,
                "tempo": 120.0
            },
            {
                "start_time": 24.8090909,
                "end_time": 24.9613636,
                "pitch": 27,
                "velocity": 101,
                "duration": 0.1522727,
                "tempo": 120.0
            },
            {
                "start_time": 24.9977273,
                "end_time": 25.1522727,
                "pitch": 27,
                "velocity": 101,
                "duration": 0.1545455,
                "tempo": 120.0
            },
            {
                "start_time": 25.1863636,
                "end_time": 25.3454545,
                "pitch": 27,
                "velocity": 101,
                "duration": 0.1590909,
                "tempo": 120.0
            },
            {
                "start_time": 25.3613636,
                "end_time": 25.4227273,
                "pitch": 27,
                "velocity": 101,
                "duration": 0.0613636,
                "tempo": 120.0
            },
            {
                "start_time": 25.4568182,
                "end_time": 25.5204545,
                "pitch": 27,
                "velocity": 101,
                "duration": 0.0636364,
                "tempo": 120.0
            },
            {
                "start_time": 25.5522727,
                "end_time": 25.7068182,
                "pitch": 29,
                "velocity": 101,
                "duration": 0.1545455,
                "tempo": 120.0
            },
            {
                "start_time": 25.7409091,
                "end_time": 25.8954545,
                "pitch": 29,
                "velocity": 101,
                "duration": 0.1545455,
                "tempo": 120.0
            },
            {
                "start_time": 25.9295455,
                "end_time": 26.0931818,
                "pitch": 29,
                "velocity": 101,
                "duration": 0.1636364,
                "tempo": 120.0
            },
            {
                "start_time": 26.125,
                "end_time": 26.1727273,
                "pitch": 29,
                "velocity": 101,
                "duration": 0.0477273,
                "tempo": 120.0
            },
            {
                "start_time": 26.2068182,
                "end_time": 26.2704545,
                "pitch": 29,
                "velocity": 101,
                "duration": 0.0636364,
                "tempo": 120.0
            },
            {
                "start_time": 26.3045455,
                "end_time": 26.4545455,
                "pitch": 29,
                "velocity": 101,
                "duration": 0.15,
                "tempo": 120.0
            },
            {
                "start_time": 26.4886364,
                "end_time": 26.6568182,
                "pitch": 29,
                "velocity": 101,
                "duration": 0.1681818,
                "tempo": 120.0
            },
            {
                "start_time": 26.6909091,
                "end_time": 26.8409091,
                "pitch": 29,
                "velocity": 101,
                "duration": 0.15,
                "tempo": 120.0
            },
            {
                "start_time": 26.875,
                "end_time": 26.9409091,
                "pitch": 29,
                "velocity": 101,
                "duration": 0.0659091,
                "tempo": 120.0
            },
            {
                "start_time": 26.9590909,
                "end_time": 27.025,
                "pitch": 29,
                "velocity": 101,
                "duration": 0.0659091,
                "tempo": 120.0
            },
            {
                "start_time": 27.0590909,
                "end_time": 27.2204545,
                "pitch": 31,
                "velocity": 101,
                "duration": 0.1613636,
                "tempo": 120.0
            },
            {
                "start_time": 27.2386364,
                "end_time": 27.4,
                "pitch": 31,
                "velocity": 101,
                "duration": 0.1613636,
                "tempo": 120.0
            },
            {
                "start_time": 27.4340909,
                "end_time": 27.5840909,
                "pitch": 31,
                "velocity": 101,
                "duration": 0.15,
                "tempo": 120.0
            },
            {
                "start_time": 27.6181818,
                "end_time": 27.6840909,
                "pitch": 31,
                "velocity": 101,
                "duration": 0.0659091,
                "tempo": 120.0
            },
            {
                "start_time": 27.7181818,
                "end_time": 27.7681818,
                "pitch": 31,
                "velocity": 101,
                "duration": 0.05,
                "tempo": 120.0
            },
            {
                "start_time": 27.8022727,
                "end_time": 27.9659091,
                "pitch": 31,
                "velocity": 101,
                "duration": 0.1636364,
                "tempo": 120.0
            },
            {
                "start_time": 27.9977273,
                "end_time": 28.1431818,
                "pitch": 31,
                "velocity": 101,
                "duration": 0.1454545,
                "tempo": 120.0
            },
            {
                "start_time": 28.1772727,
                "end_time": 28.3272727,
                "pitch": 31,
                "velocity": 101,
                "duration": 0.15,
                "tempo": 120.0
            },
            {
                "start_time": 28.3613636,
                "end_time": 28.4272727,
                "pitch": 31,
                "velocity": 101,
                "duration": 0.0659091,
                "tempo": 120.0
            },
            {
                "start_time": 28.4613636,
                "end_time": 28.5295455,
                "pitch": 31,
                "velocity": 101,
                "duration": 0.0681818,
                "tempo": 120.0
            },
            {
                "start_time": 28.5477273,
                "end_time": 28.7090909,
                "pitch": 31,
                "velocity": 101,
                "duration": 0.1613636,
                "tempo": 120.0
            },
            {
                "start_time": 28.7409091,
                "end_time": 28.8863636,
                "pitch": 31,
                "velocity": 101,
                "duration": 0.1454545,
                "tempo": 120.0
            },
            {
                "start_time": 28.9204545,
                "end_time": 29.075,
                "pitch": 31,
                "velocity": 101,
                "duration": 0.1545455,
                "tempo": 120.0
            },
            {
                "start_time": 29.1090909,
                "end_time": 29.1772727,
                "pitch": 31,
                "velocity": 101,
                "duration": 0.0681818,
                "tempo": 120.0
            },
            {
                "start_time": 29.2113636,
                "end_time": 29.2818182,
                "pitch": 31,
                "velocity": 101,
                "duration": 0.0704545,
                "tempo": 120.0
            },
            {
                "start_time": 29.3159091,
                "end_time": 29.4659091,
                "pitch": 31,
                "velocity": 101,
                "duration": 0.15,
                "tempo": 120.0
            },
            {
                "start_time": 29.5022727,
                "end_time": 29.6522727,
                "pitch": 31,
                "velocity": 101,
                "duration": 0.15,
                "tempo": 120.0
            },
            {
                "start_time": 29.6863636,
                "end_time": 29.8477273,
                "pitch": 31,
                "velocity": 101,
                "duration": 0.1613636,
                "tempo": 120.0
            },
            {
                "start_time": 29.8818182,
                "end_time": 29.9295455,
                "pitch": 31,
                "velocity": 101,
                "duration": 0.0477273,
                "tempo": 120.0
            },
            {
                "start_time": 29.9613636,
                "end_time": 30.0272727,
                "pitch": 31,
                "velocity": 101,
                "duration": 0.0659091,
                "tempo": 120.0
            },
            {
                "start_time": 30.0590909,
                "end_time": 30.2090909,
                "pitch": 27,
                "velocity": 101,
                "duration": 0.15,
                "tempo": 120.0
            },
            {
                "start_time": 30.2431818,
                "end_time": 30.4113636,
                "pitch": 27,
                "velocity": 101,
                "duration": 0.1681818,
                "tempo": 120.0
            },
            {
                "start_time": 30.4295455,
                "end_time": 30.5909091,
                "pitch": 27,
                "velocity": 101,
                "duration": 0.1613636,
                "tempo": 120.0
            },
            {
                "start_time": 30.6227273,
                "end_time": 30.6727273,
                "pitch": 27,
                "velocity": 101,
                "duration": 0.05,
                "tempo": 120.0
            },
            {
                "start_time": 30.7045455,
                "end_time": 30.7704545,
                "pitch": 27,
                "velocity": 101,
                "duration": 0.0659091,
                "tempo": 120.0
            },
            {
                "start_time": 30.8022727,
                "end_time": 30.9522727,
                "pitch": 27,
                "velocity": 101,
                "duration": 0.15,
                "tempo": 120.0
            },
            {
                "start_time": 30.9863636,
                "end_time": 31.1545455,
                "pitch": 27,
                "velocity": 101,
                "duration": 0.1681818,
                "tempo": 120.0
            },
            {
                "start_time": 31.1886364,
                "end_time": 31.3386364,
                "pitch": 27,
                "velocity": 101,
                "duration": 0.15,
                "tempo": 120.0
            },
            {
                "start_time": 31.3727273,
                "end_time": 31.4409091,
                "pitch": 27,
                "velocity": 101,
                "duration": 0.0681818,
                "tempo": 120.0
            },
            {
                "start_time": 31.4727273,
                "end_time": 31.525,
                "pitch": 27,
                "velocity": 101,
                "duration": 0.0522727,
                "tempo": 120.0
            },
            {
                "start_time": 31.5590909,
                "end_time": 31.7204545,
                "pitch": 29,
                "velocity": 101,
                "duration": 0.1613636,
                "tempo": 120.0
            },
            {
                "start_time": 31.7363636,
                "end_time": 31.9,
                "pitch": 29,
                "velocity": 101,
                "duration": 0.1636364,
                "tempo": 120.0
            },
            {
                "start_time": 31.9318182,
                "end_time": 32.0863636,
                "pitch": 29,
                "velocity": 101,
                "duration": 0.1545455,
                "tempo": 120.0
            },
            {
                "start_time": 32.1204545,
                "end_time": 32.1886364,
                "pitch": 29,
                "velocity": 101,
                "duration": 0.0681818,
                "tempo": 120.0
            },
            {
                "start_time": 32.225,
                "end_time": 32.275,
                "pitch": 29,
                "velocity": 101,
                "duration": 0.05,
                "tempo": 120.0
            },
            {
                "start_time": 32.3090909,
                "end_time": 32.4681818,
                "pitch": 29,
                "velocity": 101,
                "duration": 0.1590909,
                "tempo": 120.0
            },
            {
                "start_time": 32.5,
                "end_time": 32.6431818,
                "pitch": 29,
                "velocity": 101,
                "duration": 0.1431818,
                "tempo": 120.0
            },
            {
                "start_time": 32.675,
                "end_time": 32.8295455,
                "pitch": 29,
                "velocity": 101,
                "duration": 0.1545455,
                "tempo": 120.0
            },
            {
                "start_time": 32.8636364,
                "end_time": 32.9318182,
                "pitch": 29,
                "velocity": 101,
                "duration": 0.0681818,
                "tempo": 120.0
            },
            {
                "start_time": 32.9681818,
                "end_time": 33.0363636,
                "pitch": 29,
                "velocity": 101,
                "duration": 0.0681818,
                "tempo": 120.0
            },
            {
                "start_time": 33.0704545,
                "end_time": 33.2204545,
                "pitch": 33,
                "velocity": 101,
                "duration": 0.15,
                "tempo": 120.0
            },
            {
                "start_time": 33.2545455,
                "end_time": 33.4068182,
                "pitch": 33,
                "velocity": 101,
                "duration": 0.1522727,
                "tempo": 120.0
            },
            {
                "start_time": 33.4409091,
                "end_time": 33.6022727,
                "pitch": 33,
                "velocity": 101,
                "duration": 0.1613636,
                "tempo": 120.0
            },
            {
                "start_time": 33.6181818,
                "end_time": 33.6840909,
                "pitch": 33,
                "velocity": 101,
                "duration": 0.0659091,
                "tempo": 120.0
            },
            {
                "start_time": 33.7159091,
                "end_time": 33.7818182,
                "pitch": 33,
                "velocity": 101,
                "duration": 0.0659091,
                "tempo": 120.0
            },
            {
                "start_time": 33.8159091,
                "end_time": 33.9659091,
                "pitch": 33,
                "velocity": 101,
                "duration": 0.15,
                "tempo": 120.0
            },
            {
                "start_time": 33.9977273,
                "end_time": 34.15,
                "pitch": 33,
                "velocity": 101,
                "duration": 0.1522727,
                "tempo": 120.0
            },
            {
                "start_time": 34.1840909,
                "end_time": 34.3454545,
                "pitch": 33,
                "velocity": 101,
                "duration": 0.1613636,
                "tempo": 120.0
            },
            {
                "start_time": 34.3795455,
                "end_time": 34.4272727,
                "pitch": 33,
                "velocity": 101,
                "duration": 0.0477273,
                "tempo": 120.0
            },
            {
                "start_time": 34.4590909,
                "end_time": 34.525,
                "pitch": 33,
                "velocity": 101,
                "duration": 0.0659091,
                "tempo": 120.0
            },
            {
                "start_time": 34.5590909,
                "end_time": 34.7113636,
                "pitch": 26,
                "velocity": 101,
                "duration": 0.1522727,
                "tempo": 120.0
            },
            {
                "start_time": 34.7454545,
                "end_time": 34.9181818,
                "pitch": 26,
                "velocity": 101,
                "duration": 0.1727273,
                "tempo": 120.0
            },
            {
                "start_time": 34.9363636,
                "end_time": 35.0954545,
                "pitch": 26,
                "velocity": 101,
                "duration": 0.1590909,
                "tempo": 120.0
            },
            {
                "start_time": 35.1272727,
                "end_time": 35.1886364,
                "pitch": 26,
                "velocity": 101,
                "duration": 0.0613636,
                "tempo": 120.0
            },
            {
                "start_time": 35.2045455,
                "end_time": 35.2681818,
                "pitch": 26,
                "velocity": 101,
                "duration": 0.0636364,
                "tempo": 120.0
            },
            {
                "start_time": 35.3,
                "end_time": 35.4545455,
                "pitch": 26,
                "velocity": 101,
                "duration": 0.1545455,
                "tempo": 120.0
            },
            {
                "start_time": 35.4886364,
                "end_time": 35.6613636,
                "pitch": 26,
                "velocity": 101,
                "duration": 0.1727273,
                "tempo": 120.0
            },
            {
                "start_time": 35.6977273,
                "end_time": 35.8477273,
                "pitch": 26,
                "velocity": 101,
                "duration": 0.15,
                "tempo": 120.0
            },
            {
                "start_time": 35.8818182,
                "end_time": 35.9477273,
                "pitch": 26,
                "velocity": 101,
                "duration": 0.0659091,
                "tempo": 120.0
            },
            {
                "start_time": 35.9818182,
                "end_time": 36.0318182,
                "pitch": 26,
                "velocity": 101,
                "duration": 0.05,
                "tempo": 120.0
            },
            {
                "start_time": 36.0681818,
                "end_time": 36.2272727,
                "pitch": 31,
                "velocity": 101,
                "duration": 0.1590909,
                "tempo": 120.0
            },
            {
                "start_time": 36.2613636,
                "end_time": 36.4068182,
                "pitch": 31,
                "velocity": 101,
                "duration": 0.1454545,
                "tempo": 120.0
            },
            {
                "start_time": 36.4409091,
                "end_time": 36.5909091,
                "pitch": 31,
                "velocity": 101,
                "duration": 0.15,
                "tempo": 120.0
            },
            {
                "start_time": 36.625,
                "end_time": 36.6909091,
                "pitch": 31,
                "velocity": 101,
                "duration": 0.0659091,
                "tempo": 120.0
            },
            {
                "start_time": 36.725,
                "end_time": 36.7909091,
                "pitch": 31,
                "velocity": 101,
                "duration": 0.0659091,
                "tempo": 120.0
            },
            {
                "start_time": 36.8090909,
                "end_time": 36.9727273,
                "pitch": 31,
                "velocity": 101,
                "duration": 0.1636364,
                "tempo": 120.0
            },
            {
                "start_time": 37.0045455,
                "end_time": 37.15,
                "pitch": 31,
                "velocity": 101,
                "duration": 0.1454545,
                "tempo": 120.0
            },
            {
                "start_time": 37.1840909,
                "end_time": 37.3340909,
                "pitch": 31,
                "velocity": 101,
                "duration": 0.15,
                "tempo": 120.0
            },
            {
                "start_time": 37.3681818,
                "end_time": 37.4340909,
                "pitch": 31,
                "velocity": 101,
                "duration": 0.0659091,
                "tempo": 120.0
            },
            {
                "start_time": 37.4681818,
                "end_time": 37.5363636,
                "pitch": 31,
                "velocity": 101,
                "duration": 0.0681818,
                "tempo": 120.0
            },
            {
                "start_time": 37.5704545,
                "end_time": 37.725,
                "pitch": 29,
                "velocity": 101,
                "duration": 0.1545455,
                "tempo": 120.0
            },
            {
                "start_time": 37.7590909,
                "end_time": 37.9136364,
                "pitch": 29,
                "velocity": 101,
                "duration": 0.1545455,
                "tempo": 120.0
            },
            {
                "start_time": 37.9477273,
                "end_time": 38.1068182,
                "pitch": 29,
                "velocity": 101,
                "duration": 0.1590909,
                "tempo": 120.0
            },
            {
                "start_time": 38.1227273,
                "end_time": 38.1863636,
                "pitch": 29,
                "velocity": 101,
                "duration": 0.0636364,
                "tempo": 120.0
            },
            {
                "start_time": 38.2181818,
                "end_time": 38.2818182,
                "pitch": 29,
                "velocity": 101,
                "duration": 0.0636364,
                "tempo": 120.0
            },
            {
                "start_time": 38.3136364,
                "end_time": 38.4659091,
                "pitch": 29,
                "velocity": 101,
                "duration": 0.1522727,
                "tempo": 120.0
            },
            {
                "start_time": 38.5022727,
                "end_time": 38.6568182,
                "pitch": 29,
                "velocity": 101,
                "duration": 0.1545455,
                "tempo": 120.0
            },
            {
                "start_time": 38.6931818,
                "end_time": 38.85,
                "pitch": 29,
                "velocity": 101,
                "duration": 0.1568182,
                "tempo": 120.0
            },
            {
                "start_time": 38.8818182,
                "end_time": 38.9295455,
                "pitch": 29,
                "velocity": 101,
                "duration": 0.0477273,
                "tempo": 120.0
            },
            {
                "start_time": 38.9613636,
                "end_time": 39.025,
                "pitch": 29,
                "velocity": 101,
                "duration": 0.0636364,
                "tempo": 120.0
            },
            {
                "start_time": 39.0568182,
                "end_time": 39.2113636,
                "pitch": 27,
                "velocity": 101,
                "duration": 0.1545455,
                "tempo": 120.0
            },
            {
                "start_time": 39.2454545,
                "end_time": 39.4181818,
                "pitch": 27,
                "velocity": 101,
                "duration": 0.1727273,
                "tempo": 120.0
            },
            {
                "start_time": 39.4522727,
                "end_time": 39.6022727,
                "pitch": 27,
                "velocity": 101,
                "duration": 0.15,
                "tempo": 120.0
            },
            {
                "start_time": 39.6363636,
                "end_time": 39.7022727,
                "pitch": 27,
                "velocity": 101,
                "duration": 0.0659091,
                "tempo": 120.0
            },
            {
                "start_time": 39.7204545,
                "end_time": 39.7863636,
                "pitch": 27,
                "velocity": 101,
                "duration": 0.0659091,
                "tempo": 120.0
            },
            {
                "start_time": 39.8204545,
                "end_time": 39.9840909,
                "pitch": 27,
                "velocity": 101,
                "duration": 0.1636364,
                "tempo": 120.0
            },
            {
                "start_time": 40.0,
                "end_time": 40.1636364,
                "pitch": 27,
                "velocity": 101,
                "duration": 0.1636364,
                "tempo": 120.0
            },
            {
                "start_time": 40.1954545,
                "end_time": 40.3454545,
                "pitch": 27,
                "velocity": 101,
                "duration": 0.15,
                "tempo": 120.0
            },
            {
                "start_time": 40.3795455,
                "end_time": 40.4477273,
                "pitch": 27,
                "velocity": 101,
                "duration": 0.0681818,
                "tempo": 120.0
            },
            {
                "start_time": 40.4795455,
                "end_time": 40.5318182,
                "pitch": 27,
                "velocity": 101,
                "duration": 0.0522727,
                "tempo": 120.0
            },
            {
                "start_time": 40.5659091,
                "end_time": 40.7272727,
                "pitch": 29,
                "velocity": 101,
                "duration": 0.1613636,
                "tempo": 120.0
            },
            {
                "start_time": 40.7590909,
                "end_time": 40.9068182,
                "pitch": 29,
                "velocity": 101,
                "duration": 0.1477273,
                "tempo": 120.0
            },
            {
                "start_time": 40.9386364,
                "end_time": 41.0886364,
                "pitch": 29,
                "velocity": 101,
                "duration": 0.15,
                "tempo": 120.0
            },
            {
                "start_time": 41.1227273,
                "end_time": 41.1909091,
                "pitch": 29,
                "velocity": 101,
                "duration": 0.0681818,
                "tempo": 120.0
            },
            {
                "start_time": 41.2227273,
                "end_time": 41.2909091,
                "pitch": 29,
                "velocity": 101,
                "duration": 0.0681818,
                "tempo": 120.0
            },
            {
                "start_time": 41.3090909,
                "end_time": 41.4704545,
                "pitch": 29,
                "velocity": 101,
                "duration": 0.1613636,
                "tempo": 120.0
            },
            {
                "start_time": 41.5022727,
                "end_time": 41.65,
                "pitch": 29,
                "velocity": 101,
                "duration": 0.1477273,
                "tempo": 120.0
            },
            {
                "start_time": 41.6818182,
                "end_time": 41.8318182,
                "pitch": 29,
                "velocity": 101,
                "duration": 0.15,
                "tempo": 120.0
            },
            {
                "start_time": 41.8659091,
                "end_time": 41.9340909,
                "pitch": 29,
                "velocity": 101,
                "duration": 0.0681818,
                "tempo": 120.0
            },
            {
                "start_time": 41.9681818,
                "end_time": 42.0340909,
                "pitch": 29,
                "velocity": 101,
                "duration": 0.0659091,
                "tempo": 120.0
            },
            {
                "start_time": 42.0704545,
                "end_time": 42.2227273,
                "pitch": 31,
                "velocity": 101,
                "duration": 0.1522727,
                "tempo": 120.0
            },
            {
                "start_time": 42.2568182,
                "end_time": 42.4113636,
                "pitch": 31,
                "velocity": 101,
                "duration": 0.1545455,
                "tempo": 120.0
            },
            {
                "start_time": 42.4454545,
                "end_time": 42.6045455,
                "pitch": 31,
                "velocity": 101,
                "duration": 0.1590909,
                "tempo": 120.0
            },
            {
                "start_time": 42.6386364,
                "end_time": 42.6840909,
                "pitch": 31,
                "velocity": 101,
                "duration": 0.0454545,
                "tempo": 120.0
            },
            {
                "start_time": 42.7159091,
                "end_time": 42.7795455,
                "pitch": 31,
                "velocity": 101,
                "duration": 0.0636364,
                "tempo": 120.0
            },
            {
                "start_time": 42.8113636,
                "end_time": 42.9659091,
                "pitch": 31,
                "velocity": 101,
                "duration": 0.1545455,
                "tempo": 120.0
            },
            {
                "start_time": 43.0022727,
                "end_time": 43.1727273,
                "pitch": 31,
                "velocity": 101,
                "duration": 0.1704545,
                "tempo": 120.0
            },
            {
                "start_time": 43.1909091,
                "end_time": 43.3522727,
                "pitch": 31,
                "velocity": 101,
                "duration": 0.1613636,
                "tempo": 120.0
            },
            {
                "start_time": 43.3863636,
                "end_time": 43.4340909,
                "pitch": 31,
                "velocity": 101,
                "duration": 0.0477273,
                "tempo": 120.0
            },
            {
                "start_time": 43.4659091,
                "end_time": 43.5318182,
                "pitch": 31,
                "velocity": 101,
                "duration": 0.0659091,
                "tempo": 120.0
            },
            {
                "start_time": 43.5659091,
                "end_time": 43.7159091,
                "pitch": 29,
                "velocity": 101,
                "duration": 0.15,
                "tempo": 120.0
            },
            {
                "start_time": 43.75,
                "end_time": 43.9159091,
                "pitch": 29,
                "velocity": 101,
                "duration": 0.1659091,
                "tempo": 120.0
            },
            {
                "start_time": 43.95,
                "end_time": 44.1022727,
                "pitch": 29,
                "velocity": 101,
                "duration": 0.1522727,
                "tempo": 120.0
            },
            {
                "start_time": 44.1363636,
                "end_time": 44.2022727,
                "pitch": 29,
                "velocity": 101,
                "duration": 0.0659091,
                "tempo": 120.0
            },
            {
                "start_time": 44.2363636,
                "end_time": 44.2863636,
                "pitch": 29,
                "velocity": 101,
                "duration": 0.05,
                "tempo": 120.0
            },
            {
                "start_time": 44.3204545,
                "end_time": 44.4818182,
                "pitch": 29,
                "velocity": 101,
                "duration": 0.1613636,
                "tempo": 120.0
            },
            {
                "start_time": 44.4977273,
                "end_time": 44.6613636,
                "pitch": 29,
                "velocity": 101,
                "duration": 0.1636364,
                "tempo": 120.0
            },
            {
                "start_time": 44.6954545,
                "end_time": 44.8454545,
                "pitch": 29,
                "velocity": 101,
                "duration": 0.15,
                "tempo": 120.0
            },
            {
                "start_time": 44.8795455,
                "end_time": 44.9454545,
                "pitch": 29,
                "velocity": 101,
                "duration": 0.0659091,
                "tempo": 120.0
            },
            {
                "start_time": 44.9795455,
                "end_time": 45.0295455,
                "pitch": 29,
                "velocity": 101,
                "duration": 0.05,
                "tempo": 120.0
            },
            {
                "start_time": 45.0636364,
                "end_time": 45.225,
                "pitch": 28,
                "velocity": 101,
                "duration": 0.1613636,
                "tempo": 120.0
            },
            {
                "start_time": 45.2590909,
                "end_time": 45.4045455,
                "pitch": 28,
                "velocity": 101,
                "duration": 0.1454545,
                "tempo": 120.0
            },
            {
                "start_time": 45.4363636,
                "end_time": 45.5886364,
                "pitch": 28,
                "velocity": 101,
                "duration": 0.1522727,
                "tempo": 120.0
            },
            {
                "start_time": 45.6227273,
                "end_time": 45.6886364,
                "pitch": 28,
                "velocity": 101,
                "duration": 0.0659091,
                "tempo": 120.0
            },
            {
                "start_time": 45.7227273,
                "end_time": 45.7886364,
                "pitch": 28,
                "velocity": 101,
                "duration": 0.0659091,
                "tempo": 120.0
            },
            {
                "start_time": 45.8227273,
                "end_time": 45.9772727,
                "pitch": 28,
                "velocity": 101,
                "duration": 0.1545455,
                "tempo": 120.0
            },
            {
                "start_time": 46.0136364,
                "end_time": 46.1681818,
                "pitch": 28,
                "velocity": 101,
                "duration": 0.1545455,
                "tempo": 120.0
            },
            {
                "start_time": 46.2022727,
                "end_time": 46.3659091,
                "pitch": 28,
                "velocity": 101,
                "duration": 0.1636364,
                "tempo": 120.0
            },
            {
                "start_time": 46.3818182,
                "end_time": 46.4454545,
                "pitch": 28,
                "velocity": 101,
                "duration": 0.0636364,
                "tempo": 120.0
            },
            {
                "start_time": 46.4795455,
                "end_time": 46.5431818,
                "pitch": 28,
                "velocity": 101,
                "duration": 0.0636364,
                "tempo": 120.0
            },
            {
                "start_time": 46.5772727,
                "end_time": 46.7272727,
                "pitch": 27,
                "velocity": 101,
                "duration": 0.15,
                "tempo": 120.0
            },
            {
                "start_time": 46.7613636,
                "end_time": 46.9113636,
                "pitch": 27,
                "velocity": 101,
                "duration": 0.15,
                "tempo": 120.0
            },
            {
                "start_time": 46.9454545,
                "end_time": 47.1068182,
                "pitch": 27,
                "velocity": 101,
                "duration": 0.1613636,
                "tempo": 120.0
            },
            {
                "start_time": 47.1409091,
                "end_time": 47.1886364,
                "pitch": 27,
                "velocity": 101,
                "duration": 0.0477273,
                "tempo": 120.0
            },
            {
                "start_time": 47.2227273,
                "end_time": 47.2863636,
                "pitch": 27,
                "velocity": 101,
                "duration": 0.0636364,
                "tempo": 120.0
            },
            {
                "start_time": 47.3204545,
                "end_time": 47.4704545,
                "pitch": 27,
                "velocity": 101,
                "duration": 0.15,
                "tempo": 120.0
            },
            {
                "start_time": 47.5045455,
                "end_time": 47.6704545,
                "pitch": 27,
                "velocity": 101,
                "duration": 0.1659091,
                "tempo": 120.0
            },
            {
                "start_time": 47.6886364,
                "end_time": 47.8477273,
                "pitch": 27,
                "velocity": 101,
                "duration": 0.1590909,
                "tempo": 120.0
            },
            {
                "start_time": 47.8795455,
                "end_time": 47.9409091,
                "pitch": 27,
                "velocity": 101,
                "duration": 0.0613636,
                "tempo": 120.0
            },
            {
                "start_time": 47.9590909,
                "end_time": 48.0227273,
                "pitch": 27,
                "velocity": 101,
                "duration": 0.0636364,
                "tempo": 120.0
            },
            {
                "start_time": 48.0568182,
                "end_time": 48.2113636,
                "pitch": 31,
                "velocity": 101,
                "duration": 0.1545455,
                "tempo": 120.0
            },
            {
                "start_time": 48.2454545,
                "end_time": 48.4204545,
                "pitch": 31,
                "velocity": 101,
                "duration": 0.175,
                "tempo": 120.0
            },
            {
                "start_time": 48.4568182,
                "end_time": 48.6022727,
                "pitch": 31,
                "velocity": 101,
                "duration": 0.1454545,
                "tempo": 120.0
            },
            {
                "start_time": 48.6340909,
                "end_time": 48.7,
                "pitch": 31,
                "velocity": 101,
                "duration": 0.0659091,
                "tempo": 120.0
            },
            {
                "start_time": 48.7318182,
                "end_time": 48.7818182,
                "pitch": 31,
                "velocity": 101,
                "duration": 0.05,
                "tempo": 120.0
            },
            {
                "start_time": 48.8136364,
                "end_time": 48.9772727,
                "pitch": 31,
                "velocity": 101,
                "duration": 0.1636364,
                "tempo": 120.0
            },
            {
                "start_time": 49.0090909,
                "end_time": 49.1545455,
                "pitch": 31,
                "velocity": 101,
                "duration": 0.1454545,
                "tempo": 120.0
            },
            {
                "start_time": 49.1886364,
                "end_time": 49.3386364,
                "pitch": 31,
                "velocity": 101,
                "duration": 0.15,
                "tempo": 120.0
            },
            {
                "start_time": 49.3727273,
                "end_time": 49.4386364,
                "pitch": 31,
                "velocity": 101,
                "duration": 0.0659091,
                "tempo": 120.0
            },
            {
                "start_time": 49.4727273,
                "end_time": 49.5409091,
                "pitch": 31,
                "velocity": 101,
                "duration": 0.0681818,
                "tempo": 120.0
            },
            {
                "start_time": 49.5568182,
                "end_time": 49.7204545,
                "pitch": 31,
                "velocity": 101,
                "duration": 0.1636364,
                "tempo": 120.0
            },
            {
                "start_time": 49.7522727,
                "end_time": 49.8977273,
                "pitch": 31,
                "velocity": 101,
                "duration": 0.1454545,
                "tempo": 120.0
            },
            {
                "start_time": 49.9318182,
                "end_time": 50.0863636,
                "pitch": 31,
                "velocity": 101,
                "duration": 0.1545455,
                "tempo": 120.0
            },
            {
                "start_time": 50.1204545,
                "end_time": 50.1886364,
                "pitch": 31,
                "velocity": 101,
                "duration": 0.0681818,
                "tempo": 120.0
            },
            {
                "start_time": 50.225,
                "end_time": 50.2931818,
                "pitch": 31,
                "velocity": 101,
                "duration": 0.0681818,
                "tempo": 120.0
            },
            {
                "start_time": 50.3272727,
                "end_time": 50.4772727,
                "pitch": 31,
                "velocity": 101,
                "duration": 0.15,
                "tempo": 120.0
            },
            {
                "start_time": 50.5113636,
                "end_time": 50.6636364,
                "pitch": 31,
                "velocity": 101,
                "duration": 0.1522727,
                "tempo": 120.0
            },
            {
                "start_time": 50.6954545,
                "end_time": 50.8590909,
                "pitch": 31,
                "velocity": 101,
                "duration": 0.1636364,
                "tempo": 120.0
            },
            {
                "start_time": 50.875,
                "end_time": 50.9409091,
                "pitch": 31,
                "velocity": 101,
                "duration": 0.0659091,
                "tempo": 120.0
            },
            {
                "start_time": 50.9727273,
                "end_time": 51.0386364,
                "pitch": 31,
                "velocity": 101,
                "duration": 0.0659091,
                "tempo": 120.0
            },
            {
                "start_time": 51.0727273,
                "end_time": 51.2204545,
                "pitch": 31,
                "velocity": 101,
                "duration": 0.1477273,
                "tempo": 120.0
            },
            {
                "start_time": 51.2545455,
                "end_time": 51.4068182,
                "pitch": 31,
                "velocity": 101,
                "duration": 0.1522727,
                "tempo": 120.0
            },
            {
                "start_time": 51.4409091,
                "end_time": 51.6022727,
                "pitch": 31,
                "velocity": 101,
                "duration": 0.1613636,
                "tempo": 120.0
            },
            {
                "start_time": 51.6340909,
                "end_time": 51.6840909,
                "pitch": 31,
                "velocity": 101,
                "duration": 0.05,
                "tempo": 120.0
            },
            {
                "start_time": 51.7159091,
                "end_time": 51.7818182,
                "pitch": 31,
                "velocity": 101,
                "duration": 0.0659091,
                "tempo": 120.0
            },
            {
                "start_time": 51.8136364,
                "end_time": 51.9659091,
                "pitch": 31,
                "velocity": 101,
                "duration": 0.1522727,
                "tempo": 120.0
            },
            {
                "start_time": 51.9977273,
                "end_time": 52.1659091,
                "pitch": 31,
                "velocity": 101,
                "duration": 0.1681818,
                "tempo": 120.0
            },
            {
                "start_time": 52.2,
                "end_time": 52.35,
                "pitch": 31,
                "velocity": 101,
                "duration": 0.15,
                "tempo": 120.0
            },
            {
                "start_time": 52.3840909,
                "end_time": 52.4522727,
                "pitch": 31,
                "velocity": 101,
                "duration": 0.0681818,
                "tempo": 120.0
            },
            {
                "start_time": 52.4681818,
                "end_time": 52.5363636,
                "pitch": 31,
                "velocity": 101,
                "duration": 0.0681818,
                "tempo": 120.0
            },
            {
                "start_time": 52.5704545,
                "end_time": 52.7318182,
                "pitch": 31,
                "velocity": 101,
                "duration": 0.1613636,
                "tempo": 120.0
            },
            {
                "start_time": 52.7477273,
                "end_time": 52.9113636,
                "pitch": 31,
                "velocity": 101,
                "duration": 0.1636364,
                "tempo": 120.0
            },
            {
                "start_time": 52.9431818,
                "end_time": 53.0977273,
                "pitch": 31,
                "velocity": 101,
                "duration": 0.1545455,
                "tempo": 120.0
            },
            {
                "start_time": 53.1318182,
                "end_time": 53.2,
                "pitch": 31,
                "velocity": 101,
                "duration": 0.0681818,
                "tempo": 120.0
            },
            {
                "start_time": 53.2363636,
                "end_time": 53.2863636,
                "pitch": 31,
                "velocity": 101,
                "duration": 0.05,
                "tempo": 120.0
            },
            {
                "start_time": 53.3204545,
                "end_time": 53.4795455,
                "pitch": 31,
                "velocity": 101,
                "duration": 0.1590909,
                "tempo": 120.0
            },
            {
                "start_time": 53.5113636,
                "end_time": 53.6545455,
                "pitch": 31,
                "velocity": 101,
                "duration": 0.1431818,
                "tempo": 120.0
            },
            {
                "start_time": 53.6863636,
                "end_time": 53.8409091,
                "pitch": 31,
                "velocity": 101,
                "duration": 0.1545455,
                "tempo": 120.0
            },
            {
                "start_time": 53.875,
                "end_time": 53.9454545,
                "pitch": 31,
                "velocity": 101,
                "duration": 0.0704545,
                "tempo": 120.0
            },
            {
                "start_time": 53.9795455,
                "end_time": 54.0477273,
                "pitch": 31,
                "velocity": 101,
                "duration": 0.0681818,
                "tempo": 120.0
            },
            {
                "start_time": 54.0681818,
                "end_time": 54.1636364,
                "pitch": 31,
                "velocity": 101,
                "duration": 0.0954545,
                "tempo": 120.0
            }
        ],
        "Trumpet": [
            {
                "start_time": 0.0431818,
                "end_time": 1.5113636,
                "pitch": 64,
                "velocity": 32,
                "duration": 1.4681818,
                "tempo": 120.0
            },
            {
                "start_time": 1.725,
                "end_time": 1.8863636,
                "pitch": 64,
                "velocity": 32,
                "duration": 0.1613636,
                "tempo": 120.0
            },
            {
                "start_time": 1.9181818,
                "end_time": 2.2545455,
                "pitch": 64,
                "velocity": 32,
                "duration": 0.3363636,
                "tempo": 120.0
            },
            {
                "start_time": 2.2886364,
                "end_time": 3.0227273,
                "pitch": 64,
                "velocity": 32,
                "duration": 0.7340909,
                "tempo": 120.0
            },
            {
                "start_time": 3.0431818,
                "end_time": 4.5113636,
                "pitch": 64,
                "velocity": 32,
                "duration": 1.4681818,
                "tempo": 120.0
            },
            {
                "start_time": 4.7295455,
                "end_time": 4.8954545,
                "pitch": 64,
                "velocity": 32,
                "duration": 0.1659091,
                "tempo": 120.0
            },
            {
                "start_time": 4.9136364,
                "end_time": 5.2545455,
                "pitch": 64,
                "velocity": 32,
                "duration": 0.3409091,
                "tempo": 120.0
            },
            {
                "start_time": 5.2886364,
                "end_time": 6.0181818,
                "pitch": 64,
                "velocity": 32,
                "duration": 0.7295455,
                "tempo": 120.0
            },
            {
                "start_time": 6.0545455,
                "end_time": 7.5227273,
                "pitch": 64,
                "velocity": 32,
                "duration": 1.4681818,
                "tempo": 120.0
            },
            {
                "start_time": 7.7409091,
                "end_time": 7.8909091,
                "pitch": 64,
                "velocity": 32,
                "duration": 0.15,
                "tempo": 120.0
            },
            {
                "start_time": 7.925,
                "end_time": 8.2659091,
                "pitch": 64,
                "velocity": 32,
                "duration": 0.3409091,
                "tempo": 120.0
            },
            {
                "start_time": 8.3,
                "end_time": 9.0113636,
                "pitch": 64,
                "velocity": 32,
                "duration": 0.7113636,
                "tempo": 120.0
            },
            {
                "start_time": 9.0454545,
                "end_time": 10.5159091,
                "pitch": 64,
                "velocity": 32,
                "duration": 1.4704545,
                "tempo": 120.0
            },
            {
                "start_time": 10.7477273,
                "end_time": 10.8931818,
                "pitch": 64,
                "velocity": 32,
                "duration": 0.1454545,
                "tempo": 120.0
            },
            {
                "start_time": 10.9272727,
                "end_time": 11.2772727,
                "pitch": 64,
                "velocity": 32,
                "duration": 0.35,
                "tempo": 120.0
            },
            {
                "start_time": 11.2954545,
                "end_time": 12.0204545,
                "pitch": 64,
                "velocity": 32,
                "duration": 0.725,
                "tempo": 120.0
            },
            {
                "start_time": 36.0704545,
                "end_time": 37.5363636,
                "pitch": 70,
                "velocity": 51,
                "duration": 1.4659091,
                "tempo": 120.0
            },
            {
                "start_time": 37.5704545,
                "end_time": 39.025,
                "pitch": 69,
                "velocity": 51,
                "duration": 1.4545455,
                "tempo": 120.0
            },
            {
                "start_time": 39.0590909,
                "end_time": 40.5318182,
                "pitch": 67,
                "velocity": 51,
                "duration": 1.4727273,
                "tempo": 120.0
            },
            {
                "start_time": 40.5659091,
                "end_time": 42.0340909,
                "pitch": 69,
                "velocity": 51,
                "duration": 1.4681818,
                "tempo": 120.0
            },
            {
                "start_time": 42.0704545,
                "end_time": 43.5318182,
                "pitch": 70,
                "velocity": 51,
                "duration": 1.4613636,
                "tempo": 120.0
            },
            {
                "start_time": 43.5659091,
                "end_time": 45.0295455,
                "pitch": 69,
                "velocity": 51,
                "duration": 1.4636364,
                "tempo": 120.0
            },
            {
                "start_time": 45.0659091,
                "end_time": 46.5431818,
                "pitch": 67,
                "velocity": 51,
                "duration": 1.4772727,
                "tempo": 120.0
            },
            {
                "start_time": 46.5772727,
                "end_time": 48.0227273,
                "pitch": 67,
                "velocity": 51,
                "duration": 1.4454545,
                "tempo": 120.0
            },
            {
                "start_time": 48.0568182,
                "end_time": 54.0477273,
                "pitch": 67,
                "velocity": 51,
                "duration": 5.9909091,
                "tempo": 120.0
            }
        ],
        "Vibraphone": [
            {
                "start_time": 24.05,
                "end_time": 24.5727273,
                "pitch": 91,
                "velocity": 40,
                "duration": 0.5227273,
                "tempo": 120.0
            },
            {
                "start_time": 24.6068182,
                "end_time": 25.5204545,
                "pitch": 91,
                "velocity": 40,
                "duration": 0.9136364,
                "tempo": 120.0
            },
            {
                "start_time": 25.7409091,
                "end_time": 25.8954545,
                "pitch": 89,
                "velocity": 40,
                "duration": 0.1545455,
                "tempo": 120.0
            },
            {
                "start_time": 25.9318182,
                "end_time": 26.2727273,
                "pitch": 89,
                "velocity": 40,
                "duration": 0.3409091,
                "tempo": 120.0
            },
            {
                "start_time": 26.3045455,
                "end_time": 27.0272727,
                "pitch": 89,
                "velocity": 40,
                "duration": 0.7227273,
                "tempo": 120.0
            },
            {
                "start_time": 27.0613636,
                "end_time": 27.5840909,
                "pitch": 91,
                "velocity": 40,
                "duration": 0.5227273,
                "tempo": 120.0
            },
            {
                "start_time": 27.6181818,
                "end_time": 28.5295455,
                "pitch": 91,
                "velocity": 40,
                "duration": 0.9113636,
                "tempo": 120.0
            },
            {
                "start_time": 28.7431818,
                "end_time": 28.8886364,
                "pitch": 91,
                "velocity": 40,
                "duration": 0.1454545,
                "tempo": 120.0
            },
            {
                "start_time": 28.9204545,
                "end_time": 29.2818182,
                "pitch": 91,
                "velocity": 40,
                "duration": 0.3613636,
                "tempo": 120.0
            },
            {
                "start_time": 29.3181818,
                "end_time": 30.0272727,
                "pitch": 91,
                "velocity": 40,
                "duration": 0.7090909,
                "tempo": 120.0
            },
            {
                "start_time": 30.0613636,
                "end_time": 30.5909091,
                "pitch": 91,
                "velocity": 40,
                "duration": 0.5295455,
                "tempo": 120.0
            },
            {
                "start_time": 30.625,
                "end_time": 31.525,
                "pitch": 91,
                "velocity": 40,
                "duration": 0.9,
                "tempo": 120.0
            },
            {
                "start_time": 31.7386364,
                "end_time": 31.9,
                "pitch": 89,
                "velocity": 40,
                "duration": 0.1613636,
                "tempo": 120.0
            },
            {
                "start_time": 31.9340909,
                "end_time": 32.275,
                "pitch": 89,
                "velocity": 40,
                "duration": 0.3409091,
                "tempo": 120.0
            },
            {
                "start_time": 32.3113636,
                "end_time": 33.0363636,
                "pitch": 89,
                "velocity": 40,
                "duration": 0.725,
                "tempo": 120.0
            },
            {
                "start_time": 33.0727273,
                "end_time": 33.6022727,
                "pitch": 93,
                "velocity": 40,
                "duration": 0.5295455,
                "tempo": 120.0
            },
            {
                "start_time": 33.6204545,
                "end_time": 34.525,
                "pitch": 93,
                "velocity": 40,
                "duration": 0.9045455,
                "tempo": 120.0
            },
            {
                "start_time": 34.7477273,
                "end_time": 34.9181818,
                "pitch": 90,
                "velocity": 40,
                "duration": 0.1704545,
                "tempo": 120.0
            },
            {
                "start_time": 34.9363636,
                "end_time": 35.2704545,
                "pitch": 90,
                "velocity": 40,
                "duration": 0.3340909,
                "tempo": 120.0
            },
            {
                "start_time": 35.3022727,
                "end_time": 35.4545455,
                "pitch": 90,
                "velocity": 40,
                "duration": 0.1522727,
                "tempo": 120.0
            },
            {
                "start_time": 35.4909091,
                "end_time": 35.8477273,
                "pitch": 90,
                "velocity": 40,
                "duration": 0.3568182,
                "tempo": 120.0
            },
            {
                "start_time": 35.8818182,
                "end_time": 36.0318182,
                "pitch": 90,
                "velocity": 40,
                "duration": 0.15,
                "tempo": 120.0
            }
        ]
    }
}