{
    "mood": "angry",
    "instruments": {
        "Vibraphone": [
            {
                "start_time": 0.0181818,
                "end_time": 0.1181818,
                "pitch": 58,
                "velocity": 80,
                "duration": 0.1,
                "tempo": 120.0
            },
            {
                "start_time": 0.1181818,
                "end_time": 0.2181818,
                "pitch": 46,
                "velocity": 80,
                "duration": 0.1,
                "tempo": 120.0
            },
            {
                "start_time": 0.2181818,
                "end_time": 0.3181818,
                "pitch": 53,
                "velocity": 80,
                "duration": 0.1,
                "tempo": 120.0
            },
            {
                "start_time": 0.3181818,
                "end_time": 0.4204545,
                "pitch": 65,
                "velocity": 80,
                "duration": 0.1022727,
                "tempo": 120.0
            },
            {
                "start_time": 0.4204545,
                "end_time": 0.5181818,
                "pitch": 58,
                "velocity": 80,
                "duration": 0.0977273,
                "tempo": 120.0
            },
            {
                "start_time": 0.2181818,
                "end_time": 0.6181818,
                "pitch": 46,
                "velocity": 80,
                "duration": 0.4,
                "tempo": 120.0
            },
            {
                "start_time": 0.5181818,
                "end_time": 0.6181818,
                "pitch": 46,
                "velocity": 80,
                "duration": 0.1,
                "tempo": 120.0
            },
            {
                "start_time": 0.6181818,
                "end_time": 0.7181818,
                "pitch": 70,
                "velocity": 80,
                "duration": 0.1,
                "tempo": 120.0
            },
            {
                "start_time": 0.7181818,
                "end_time": 0.8181818,
                "pitch": 46,
                "velocity": 80,
                "duration": 0.1,
                "tempo": 120.0
            },
            {
                "start_time": 0.8181818,
                "end_time": 0.9159091,
                "pitch": 58,
                "velocity": 80,
                "duration": 0.0977273,
                "tempo": 120.0
            },
            {
                "start_time": 0.9159091,
                "end_time": 1.0136364,
                "pitch": 46,
                "velocity": 80,
                "duration": 0.0977273,
                "tempo": 120.0
            },
            {
                "start_time": 1.0136364,
                "end_time": 1.1113636,
                "pitch": 53,
                "velocity": 80,
                "duration": 0.0977273,
                "tempo": 120.0
            },
            {
                "start_time": 1.1113636,
                "end_time": 1.2090909,
                "pitch": 70,
                "velocity": 80,
                "duration": 0.0977273,
                "tempo": 120.0
            },
            {
                "start_time": 1.0136364,
                "end_time": 1.3113636,
                "pitch": 46,
                "velocity": 80,
                "duration": 0.2977273,
                "tempo": 120.0
            },
            {
                "start_time": 1.2090909,
                "end_time": 1.3113636,
                "pitch": 46,
                "velocity": 80,
                "duration": 0.1022727,
                "tempo": 120.0
            },
            {
                "start_time": 1.3113636,
                "end_time": 1.4136364,
                "pitch": 53,
                "velocity": 80,
                "duration": 0.1022727,
                "tempo": 120.0
            },
            {
                "start_time": 1.4136364,
                "end_time": 1.5159091,
                "pitch": 58,
                "velocity": 80,
                "duration": 0.1022727,
                "tempo": 120.0
            },
            {
                "start_time": 1.3113636,
                "end_time": 1.6181818,
                "pitch": 46,
                "velocity": 80,
                "duration": 0.3068182,
                "tempo": 120.0
            },
            {
                "start_time": 1.5159091,
                "end_time": 1.6181818,
                "pitch": 46,
                "velocity": 80,
                "duration": 0.1022727,
                "tempo": 120.0
            },
            {
                "start_time": 1.6181818,
                "end_time": 1.7181818,
                "pitch": 58,
                "velocity": 80,
                "duration": 0.1,
                "tempo": 120.0
            },
            {
                "start_time": 1.7181818,
                "end_time": 1.8204545,
                "pitch": 46,
                "velocity": 80,
                "duration": 0.1022727,
                "tempo": 120.0
            },
            {
                "start_time": 1.8204545,
                "end_time": 1.9204545,
                "pitch": 53,
                "velocity": 80,
                "duration": 0.1,
                "tempo": 120.0
            },
            {
                "start_time": 1.4136364,
                "end_time": 2.0204545,
                "pitch": 65,
                "velocity": 80,
                "duration": 0.6068182,
                "tempo": 120.0
            },
            {
                "start_time": 1.9204545,
                "end_time": 2.0204545,
                "pitch": 65,
                "velocity": 80,
                "duration": 0.1,
                "tempo": 120.0
            },
            {
                "start_time": 2.0204545,
                "end_time": 2.1204545,
                "pitch": 58,
                "velocity": 80,
                "duration": 0.1,
                "tempo": 120.0
            },
            {
                "start_time": 2.1204545,
                "end_time": 2.2204545,
                "pitch": 46,
                "velocity": 80,
                "duration": 0.1,
                "tempo": 120.0
            },
            {
                "start_time": 2.2204545,
                "end_time": 2.3181818,
                "pitch": 70,
                "velocity": 80,
                "duration": 0.0977273,
                "tempo": 120.0
            },
            {
                "start_time": 2.3181818,
                "end_time": 2.4181818,
                "pitch": 46,
                "velocity": 80,
                "duration": 0.1,
                "tempo": 120.0
            },
            {
                "start_time": 2.4181818,
                "end_time": 2.5159091,
                "pitch": 58,
                "velocity": 80,
                "duration": 0.0977273,
                "tempo": 120.0
            },
            {
                "start_time": 2.5159091,
                "end_time": 2.6136364,
                "pitch": 46,
                "velocity": 80,
                "duration": 0.0977273,
                "tempo": 120.0
            },
            {
                "start_time": 2.6136364,
                "end_time": 2.7113636,
                "pitch": 53,
                "velocity": 80,
                "duration": 0.0977273,
                "tempo": 120.0
            },
            {
                "start_time": 1.1113636,
                "end_time": 2.7113636,
                "pitch": 77,
                "velocity": 80,
                "duration": 1.6,
                "tempo": 120.0
            },
            {
                "start_time": 2.7113636,
                "end_time": 2.8090909,
                "pitch": 70,
                "velocity": 80,
                "duration": 0.0977273,
                "tempo": 120.0
            },
            {
                "start_time": 2.6136364,
                "end_time": 2.9090909,
                "pitch": 46,
                "velocity": 80,
                "duration": 0.2954545,
                "tempo": 120.0
            },
            {
                "start_time": 2.8090909,
                "end_time": 2.9090909,
                "pitch": 46,
                "velocity": 80,
                "duration": 0.1,
                "tempo": 120.0
            },
            {
                "start_time": 2.9090909,
                "end_time": 3.0090909,
                "pitch": 53,
                "velocity": 80,
                "duration": 0.1,
                "tempo": 120.0
            },
            {
                "start_time": 2.0204545,
                "end_time": 3.0090909,
                "pitch": 65,
                "velocity": 80,
                "duration": 0.9886364,
                "tempo": 120.0
            },
            {
                "start_time": 3.0090909,
                "end_time": 3.1090909,
                "pitch": 58,
                "velocity": 80,
                "duration": 0.1,
                "tempo": 120.0
            },
            {
                "start_time": 2.9090909,
                "end_time": 3.2090909,
                "pitch": 46,
                "velocity": 80,
                "duration": 0.3,
                "tempo": 120.0
            },
            {
                "start_time": 3.1090909,
                "end_time": 3.2090909,
                "pitch": 46,
                "velocity": 80,
                "duration": 0.1,
                "tempo": 120.0
            },
            {
                "start_time": 3.2090909,
                "end_time": 3.3090909,
                "pitch": 58,
                "velocity": 80,
                "duration": 0.1,
                "tempo": 120.0
            },
            {
                "start_time": 3.3090909,
                "end_time": 3.4090909,
                "pitch": 46,
                "velocity": 80,
                "duration": 0.1,
                "tempo": 120.0
            },
            {
                "start_time": 3.4090909,
                "end_time": 3.5068182,
                "pitch": 53,
                "velocity": 80,
                "duration": 0.0977273,
                "tempo": 120.0
            },
            {
                "start_time": 3.0090909,
                "end_time": 3.6090909,
                "pitch": 65,
                "velocity": 80,
                "duration": 0.6,
                "tempo": 120.0
            },
            {
                "start_time": 3.5068182,
                "end_time": 3.6090909,
                "pitch": 65,
                "velocity": 80,
                "duration": 0.1022727,
                "tempo": 120.0
            },
            {
                "start_time": 3.6090909,
                "end_time": 3.7068182,
                "pitch": 58,
                "velocity": 80,
                "duration": 0.0977273,
                "tempo": 120.0
            },
            {
                "start_time": 3.4090909,
                "end_time": 3.8068182,
                "pitch": 46,
                "velocity": 80,
                "duration": 0.3977273,
                "tempo": 120.0
            },
            {
                "start_time": 3.7068182,
                "end_time": 3.8068182,
                "pitch": 46,
                "velocity": 80,
                "duration": 0.1,
                "tempo": 120.0
            },
            {
                "start_time": 3.8068182,
                "end_time": 3.9068182,
                "pitch": 70,
                "velocity": 80,
                "duration": 0.1,
                "tempo": 120.0
            },
            {
                "start_time": 3.9068182,
                "end_time": 4.0068182,
                "pitch": 46,
                "velocity": 80,
                "duration": 0.1,
                "tempo": 120.0
            },
            {
                "start_time": 4.0068182,
                "end_time": 4.1045455,
                "pitch": 58,
                "velocity": 80,
                "duration": 0.0977273,
                "tempo": 120.0
            },
            {
                "start_time": 4.1045455,
                "end_time": 4.2022727,
                "pitch": 46,
                "velocity": 80,
                "duration": 0.0977273,
                "tempo": 120.0
            },
            {
                "start_time": 4.2022727,
                "end_time": 4.3,
                "pitch": 53,
                "velocity": 80,
                "duration": 0.0977273,
                "tempo": 120.0
            },
            {
                "start_time": 2.7113636,
                "end_time": 4.3,
                "pitch": 77,
                "velocity": 80,
                "duration": 1.5886364,
                "tempo": 120.0
            },
            {
                "start_time": 4.3,
                "end_time": 4.3977273,
                "pitch": 70,
                "velocity": 80,
                "duration": 0.0977273,
                "tempo": 120.0
            },
            {
                "start_time": 4.2022727,
                "end_time": 4.5,
                "pitch": 46,
                "velocity": 80,
                "duration": 0.2977273,
                "tempo": 120.0
            },
            {
                "start_time": 4.3977273,
                "end_time": 4.5,
                "pitch": 46,
                "velocity": 80,
                "duration": 0.1022727,
                "tempo": 120.0
            },
            {
                "start_time": 4.5,
                "end_time": 4.6022727,
                "pitch": 53,
                "velocity": 80,
                "duration": 0.1022727,
                "tempo": 120.0
            },
            {
                "start_time": 4.6022727,
                "end_time": 4.7045455,
                "pitch": 58,
                "velocity": 80,
                "duration": 0.1022727,
                "tempo": 120.0
            },
            {
                "start_time": 4.5,
                "end_time": 4.8068182,
                "pitch": 46,
                "velocity": 80,
                "duration": 0.3068182,
                "tempo": 120.0
            },
            {
                "start_time": 4.7045455,
                "end_time": 4.8068182,
                "pitch": 46,
                "velocity": 80,
                "duration": 0.1022727,
                "tempo": 120.0
            },
            {
                "start_time": 4.8068182,
                "end_time": 4.9068182,
                "pitch": 58,
                "velocity": 80,
                "duration": 0.1,
                "tempo": 120.0
            },
            {
                "start_time": 4.9068182,
                "end_time": 5.0068182,
                "pitch": 46,
                "velocity": 80,
                "duration": 0.1,
                "tempo": 120.0
            },
            {
                "start_time": 5.0068182,
                "end_time": 5.1068182,
                "pitch": 53,
                "velocity": 80,
                "duration": 0.1,
                "tempo": 120.0
            },
            {
                "start_time": 4.6022727,
                "end_time": 5.2068182,
                "pitch": 65,
                "velocity": 80,
                "duration": 0.6045455,
                "tempo": 120.0
            },
            {
                "start_time": 5.1068182,
                "end_time": 5.2068182,
                "pitch": 65,
                "velocity": 80,
                "duration": 0.1,
                "tempo": 120.0
            },
            {
                "start_time": 5.2068182,
                "end_time": 5.3068182,
                "pitch": 58,
                "velocity": 80,
                "duration": 0.1,
                "tempo": 120.0
            },
            {
                "start_time": 5.0068182,
                "end_time": 5.4068182,
                "pitch": 46,
                "velocity": 80,
                "duration": 0.4,
                "tempo": 120.0
            },
            {
                "start_time": 5.3068182,
                "end_time": 5.4068182,
                "pitch": 46,
                "velocity": 80,
                "duration": 0.1,
                "tempo": 120.0
            },
            {
                "start_time": 5.4068182,
                "end_time": 5.5068182,
                "pitch": 70,
                "velocity": 80,
                "duration": 0.1,
                "tempo": 120.0
            },
            {
                "start_time": 5.5068182,
                "end_time": 5.6068182,
                "pitch": 46,
                "velocity": 80,
                "duration": 0.1,
                "tempo": 120.0
            },
            {
                "start_time": 5.6068182,
                "end_time": 5.7045455,
                "pitch": 58,
                "velocity": 80,
                "duration": 0.0977273,
                "tempo": 120.0
            },
            {
                "start_time": 5.7045455,
                "end_time": 5.8022727,
                "pitch": 46,
                "velocity": 80,
                "duration": 0.0977273,
                "tempo": 120.0
            },
            {
                "start_time": 5.8022727,
                "end_time": 5.9,
                "pitch": 53,
                "velocity": 80,
                "duration": 0.0977273,
                "tempo": 120.0
            },
            {
                "start_time": 5.9,
                "end_time": 5.9977273,
                "pitch": 70,
                "velocity": 80,
                "duration": 0.0977273,
                "tempo": 120.0
            },
            {
                "start_time": 5.9977273,
                "end_time": 6.0977273,
                "pitch": 46,
                "velocity": 80,
                "duration": 0.1,
                "tempo": 120.0
            },
            {
                "start_time": 6.0977273,
                "end_time": 6.2,
                "pitch": 53,
                "velocity": 80,
                "duration": 0.1022727,
                "tempo": 120.0
            },
            {
                "start_time": 6.2,
                "end_time": 6.3,
                "pitch": 58,
                "velocity": 80,
                "duration": 0.1,
                "tempo": 120.0
            },
            {
                "start_time": 6.3,
                "end_time": 6.4,
                "pitch": 46,
                "velocity": 80,
                "duration": 0.1,
                "tempo": 120.0
            },
            {
                "start_time": 6.4,
                "end_time": 6.5,
                "pitch": 60,
                "velocity": 80,
                "duration": 0.1,
                "tempo": 120.0
            },
            {
                "start_time": 6.5,
                "end_time": 6.6,
                "pitch": 48,
                "velocity": 80,
                "duration": 0.1,
                "tempo": 120.0
            },
            {
                "start_time": 6.6,
                "end_time": 6.7,
                "pitch": 55,
                "velocity": 80,
                "duration": 0.1,
                "tempo": 120.0
            },
            {
                "start_time": 6.7,
                "end_time": 6.8022727,
                "pitch": 67,
                "velocity": 80,
                "duration": 0.1022727,
                "tempo": 120.0
            },
            {
                "start_time": 6.6,
                "end_time": 6.9,
                "pitch": 60,
                "velocity": 80,
                "duration": 0.3,
                "tempo": 120.0
            },
            {
                "start_time": 6.8022727,
                "end_time": 6.9,
                "pitch": 60,
                "velocity": 80,
                "duration": 0.0977273,
                "tempo": 120.0
            },
            {
                "start_time": 6.9,
                "end_time": 7.0,
                "pitch": 48,
                "velocity": 80,
                "duration": 0.1,
                "tempo": 120.0
            },
            {
                "start_time": 7.0,
                "end_time": 7.1,
                "pitch": 72,
                "velocity": 80,
                "duration": 0.1,
                "tempo": 120.0
            },
            {
                "start_time": 7.1,
                "end_time": 7.2,
                "pitch": 48,
                "velocity": 80,
                "duration": 0.1,
                "tempo": 120.0
            },
            {
                "start_time": 7.2,
                "end_time": 7.3,
                "pitch": 60,
                "velocity": 80,
                "duration": 0.1,
                "tempo": 120.0
            },
            {
                "start_time": 7.3,
                "end_time": 7.4,
                "pitch": 48,
                "velocity": 80,
                "duration": 0.1,
                "tempo": 120.0
            },
            {
                "start_time": 7.4,
                "end_time": 7.5,
                "pitch": 55,
                "velocity": 80,
                "duration": 0.1,
                "tempo": 120.0
            },
            {
                "start_time": 7.5,
                "end_time": 7.6022727,
                "pitch": 72,
                "velocity": 80,
                "duration": 0.1022727,
                "tempo": 120.0
            },
            {
                "start_time": 7.6022727,
                "end_time": 7.7,
                "pitch": 48,
                "velocity": 80,
                "duration": 0.0977273,
                "tempo": 120.0
            },
            {
                "start_time": 7.7,
                "end_time": 7.8,
                "pitch": 55,
                "velocity": 80,
                "duration": 0.1,
                "tempo": 120.0
            },
            {
                "start_time": 7.7,
                "end_time": 7.9,
                "pitch": 60,
                "velocity": 80,
                "duration": 0.2,
                "tempo": 120.0
            },
            {
                "start_time": 7.8,
                "end_time": 7.9,
                "pitch": 60,
                "velocity": 80,
                "duration": 0.1,
                "tempo": 120.0
            },
            {
                "start_time": 7.9,
                "end_time": 8.0,
                "pitch": 48,
                "velocity": 80,
                "duration": 0.1,
                "tempo": 120.0
            },
            {
                "start_time": 8.0,
                "end_time": 8.1,
                "pitch": 60,
                "velocity": 80,
                "duration": 0.1,
                "tempo": 120.0
            },
            {
                "start_time": 8.1,
                "end_time": 8.2022727,
                "pitch": 48,
                "velocity": 80,
                "duration": 0.1022727,
                "tempo": 120.0
            },
            {
                "start_time": 7.8,
                "end_time": 8.3,
                "pitch": 55,
                "velocity": 80,
                "duration": 0.5,
                "tempo": 120.0
            },
            {
                "start_time": 8.2022727,
                "end_time": 8.3,
                "pitch": 55,
                "velocity": 80,
                "duration": 0.0977273,
                "tempo": 120.0
            },
            {
                "start_time": 7.5,
                "end_time": 8.4022727,
                "pitch": 67,
                "velocity": 80,
                "duration": 0.9022727,
                "tempo": 120.0
            },
            {
                "start_time": 8.3022727,
                "end_time": 8.4022727,
                "pitch": 67,
                "velocity": 80,
                "duration": 0.1,
                "tempo": 120.0
            },
            {
                "start_time": 8.2022727,
                "end_time": 8.5022727,
                "pitch": 60,
                "velocity": 80,
                "duration": 0.3,
                "tempo": 120.0
            },
            {
                "start_time": 8.4022727,
                "end_time": 8.5022727,
                "pitch": 60,
                "velocity": 80,
                "duration": 0.1,
                "tempo": 120.0
            },
            {
                "start_time": 8.5022727,
                "end_time": 8.6022727,
                "pitch": 48,
                "velocity": 80,
                "duration": 0.1,
                "tempo": 120.0
            },
            {
                "start_time": 8.6022727,
                "end_time": 8.7022727,
                "pitch": 72,
                "velocity": 80,
                "duration": 0.1,
                "tempo": 120.0
            },
            {
                "start_time": 8.7022727,
                "end_time": 8.8022727,
                "pitch": 48,
                "velocity": 80,
                "duration": 0.1,
                "tempo": 120.0
            },
            {
                "start_time": 8.8022727,
                "end_time": 8.9,
                "pitch": 60,
                "velocity": 80,
                "duration": 0.0977273,
                "tempo": 120.0
            },
            {
                "start_time": 8.9,
                "end_time": 8.9977273,
                "pitch": 48,
                "velocity": 80,
                "duration": 0.0977273,
                "tempo": 120.0
            },
            {
                "start_time": 8.4022727,
                "end_time": 9.0954545,
                "pitch": 55,
                "velocity": 80,
                "duration": 0.6931818,
                "tempo": 120.0
            },
            {
                "start_time": 8.9977273,
                "end_time": 9.0954545,
                "pitch": 55,
                "velocity": 80,
                "duration": 0.0977273,
                "tempo": 120.0
            },
            {
                "start_time": 9.0954545,
                "end_time": 9.1931818,
                "pitch": 72,
                "velocity": 80,
                "duration": 0.0977273,
                "tempo": 120.0
            },
            {
                "start_time": 9.1931818,
                "end_time": 9.2931818,
                "pitch": 48,
                "velocity": 80,
                "duration": 0.1,
                "tempo": 120.0
            },
            {
                "start_time": 8.9977273,
                "end_time": 9.2954545,
                "pitch": 60,
                "velocity": 80,
                "duration": 0.2977273,
                "tempo": 120.0
            },
            {
                "start_time": 9.2954545,
                "end_time": 9.3954545,
                "pitch": 55,
                "velocity": 80,
                "duration": 0.1,
                "tempo": 120.0
            },
            {
                "start_time": 9.2954545,
                "end_time": 9.4954545,
                "pitch": 60,
                "velocity": 80,
                "duration": 0.2,
                "tempo": 120.0
            },
            {
                "start_time": 9.3954545,
                "end_time": 9.4954545,
                "pitch": 60,
                "velocity": 80,
                "duration": 0.1,
                "tempo": 120.0
            },
            {
                "start_time": 9.4954545,
                "end_time": 9.5954545,
                "pitch": 48,
                "velocity": 80,
                "duration": 0.1,
                "tempo": 120.0
            },
            {
                "start_time": 9.5954545,
                "end_time": 9.6954545,
                "pitch": 60,
                "velocity": 80,
                "duration": 0.1,
                "tempo": 120.0
            },
            {
                "start_time": 9.6954545,
                "end_time": 9.7977273,
                "pitch": 48,
                "velocity": 80,
                "duration": 0.1022727,
                "tempo": 120.0
            },
            {
                "start_time": 9.3954545,
                "end_time": 9.8954545,
                "pitch": 55,
                "velocity": 80,
                "duration": 0.5,
                "tempo": 120.0
            },
            {
                "start_time": 9.7977273,
                "end_time": 9.8954545,
                "pitch": 55,
                "velocity": 80,
                "duration": 0.0977273,
                "tempo": 120.0
            },
            {
                "start_time": 9.0954545,
                "end_time": 9.9977273,
                "pitch": 67,
                "velocity": 80,
                "duration": 0.9022727,
                "tempo": 120.0
            },
            {
                "start_time": 9.8954545,
                "end_time": 9.9977273,
                "pitch": 67,
                "velocity": 80,
                "duration": 0.1022727,
                "tempo": 120.0
            },
            {
                "start_time": 9.9977273,
                "end_time": 10.0977273,
                "pitch": 60,
                "velocity": 80,
                "duration": 0.1,
                "tempo": 120.0
            },
            {
                "start_time": 10.0977273,
                "end_time": 10.1977273,
                "pitch": 48,
                "velocity": 80,
                "duration": 0.1,
                "tempo": 120.0
            },
            {
                "start_time": 10.1977273,
                "end_time": 10.2977273,
                "pitch": 72,
                "velocity": 80,
                "duration": 0.1,
                "tempo": 120.0
            },
            {
                "start_time": 10.2977273,
                "end_time": 10.3977273,
                "pitch": 48,
                "velocity": 80,
                "duration": 0.1,
                "tempo": 120.0
            },
            {
                "start_time": 10.3977273,
                "end_time": 10.4977273,
                "pitch": 60,
                "velocity": 80,
                "duration": 0.1,
                "tempo": 120.0
            },
            {
                "start_time": 10.4977273,
                "end_time": 10.6,
                "pitch": 48,
                "velocity": 80,
                "duration": 0.1022727,
                "tempo": 120.0
            },
            {
                "start_time": 9.9977273,
                "end_time": 10.7,
                "pitch": 55,
                "velocity": 80,
                "duration": 0.7022727,
                "tempo": 120.0
            },
            {
                "start_time": 10.6,
                "end_time": 10.7,
                "pitch": 55,
                "velocity": 80,
                "duration": 0.1,
                "tempo": 120.0
            },
            {
                "start_time": 10.7,
                "end_time": 10.8,
                "pitch": 72,
                "velocity": 80,
                "duration": 0.1,
                "tempo": 120.0
            },
            {
                "start_time": 10.8,
                "end_time": 10.9,
                "pitch": 48,
                "velocity": 80,
                "duration": 0.1,
                "tempo": 120.0
            },
            {
                "start_time": 10.6,
                "end_time": 10.9,
                "pitch": 60,
                "velocity": 80,
                "duration": 0.3,
                "tempo": 120.0
            },
            {
                "start_time": 10.9,
                "end_time": 11.0,
                "pitch": 55,
                "velocity": 80,
                "duration": 0.1,
                "tempo": 120.0
            },
            {
                "start_time": 10.9,
                "end_time": 11.1,
                "pitch": 60,
                "velocity": 80,
                "duration": 0.2,
                "tempo": 120.0
            },
            {
                "start_time": 11.0,
                "end_time": 11.1,
                "pitch": 60,
                "velocity": 80,
                "duration": 0.1,
                "tempo": 120.0
            },
            {
                "start_time": 11.1,
                "end_time": 11.2,
                "pitch": 48,
                "velocity": 80,
                "duration": 0.1,
                "tempo": 120.0
            },
            {
                "start_time": 11.2,
                "end_time": 11.3,
                "pitch": 60,
                "velocity": 80,
                "duration": 0.1,
                "tempo": 120.0
            },
            {
                "start_time": 11.3,
                "end_time": 11.4,
                "pitch": 48,
                "velocity": 80,
                "duration": 0.1,
                "tempo": 120.0
            },
            {
                "start_time": 11.0,
                "end_time": 11.5,
                "pitch": 55,
                "velocity": 80,
                "duration": 0.5,
                "tempo": 120.0
            },
            {
                "start_time": 11.4,
                "end_time": 11.5,
                "pitch": 55,
                "velocity": 80,
                "duration": 0.1,
                "tempo": 120.0
            },
            {
                "start_time": 10.7,
                "end_time": 11.6,
                "pitch": 67,
                "velocity": 80,
                "duration": 0.9,
                "tempo": 120.0
            },
            {
                "start_time": 11.5,
                "end_time": 11.6,
                "pitch": 67,
                "velocity": 80,
                "duration": 0.1,
                "tempo": 120.0
            },
            {
                "start_time": 11.4,
                "end_time": 11.7,
                "pitch": 60,
                "velocity": 80,
                "duration": 0.3,
                "tempo": 120.0
            },
            {
                "start_time": 11.6,
                "end_time": 11.7,
                "pitch": 60,
                "velocity": 80,
                "duration": 0.1,
                "tempo": 120.0
            },
            {
                "start_time": 11.7,
                "end_time": 11.8022727,
                "pitch": 48,
                "velocity": 80,
                "duration": 0.1022727,
                "tempo": 120.0
            },
            {
                "start_time": 11.8022727,
                "end_time": 11.9022727,
                "pitch": 72,
                "velocity": 80,
                "duration": 0.1,
                "tempo": 120.0
            },
            {
                "start_time": 11.9022727,
                "end_time": 12.0022727,
                "pitch": 48,
                "velocity": 80,
                "duration": 0.1,
                "tempo": 120.0
            },
            {
                "start_time": 12.0022727,
                "end_time": 12.1,
                "pitch": 60,
                "velocity": 80,
                "duration": 0.0977273,
                "tempo": 120.0
            },
            {
                "start_time": 12.1,
                "end_time": 12.1977273,
                "pitch": 48,
                "velocity": 80,
                "duration": 0.0977273,
                "tempo": 120.0
            },
            {
                "start_time": 11.6,
                "end_time": 12.2954545,
                "pitch": 55,
                "velocity": 80,
                "duration": 0.6954545,
                "tempo": 120.0
            },
            {
                "start_time": 12.1977273,
                "end_time": 12.2954545,
                "pitch": 55,
                "velocity": 80,
                "duration": 0.0977273,
                "tempo": 120.0
            },
            {
                "start_time": 12.2954545,
                "end_time": 12.3931818,
                "pitch": 72,
                "velocity": 80,
                "duration": 0.0977273,
                "tempo": 120.0
            },
            {
                "start_time": 12.3931818,
                "end_time": 12.4931818,
                "pitch": 48,
                "velocity": 80,
                "duration": 0.1,
                "tempo": 120.0
            },
            {
                "start_time": 12.4931818,
                "end_time": 12.5931818,
                "pitch": 55,
                "velocity": 80,
                "duration": 0.1,
                "tempo": 120.0
            },
            {
                "start_time": 12.1977273,
                "end_time": 12.6931818,
                "pitch": 60,
                "velocity": 80,
                "duration": 0.4954545,
                "tempo": 120.0
            },
            {
                "start_time": 12.5931818,
                "end_time": 12.6931818,
                "pitch": 60,
                "velocity": 80,
                "duration": 0.1,
                "tempo": 120.0
            },
            {
                "start_time": 12.6931818,
                "end_time": 12.7954545,
                "pitch": 48,
                "velocity": 80,
                "duration": 0.1022727,
                "tempo": 120.0
            }
        ],
        "Acoustic Bass": [
            {
                "start_time": 0.0181818,
                "end_time": 0.2181818,
                "pitch": 34,
                "velocity": 80,
                "duration": 0.2,
                "tempo": 120.0
            },
            {
                "start_time": 0.2181818,
                "end_time": 0.4204545,
                "pitch": 46,
                "velocity": 80,
                "duration": 0.2022727,
                "tempo": 120.0
            },
            {
                "start_time": 0.4204545,
                "end_time": 0.6181818,
                "pitch": 34,
                "velocity": 80,
                "duration": 0.1977273,
                "tempo": 120.0
            },
            {
                "start_time": 0.6181818,
                "end_time": 0.8181818,
                "pitch": 46,
                "velocity": 80,
                "duration": 0.2,
                "tempo": 120.0
            },
            {
                "start_time": 0.8181818,
                "end_time": 1.0136364,
                "pitch": 34,
                "velocity": 80,
                "duration": 0.1954545,
                "tempo": 120.0
            },
            {
                "start_time": 1.0136364,
                "end_time": 1.2090909,
                "pitch": 46,
                "velocity": 80,
                "duration": 0.1954545,
                "tempo": 120.0
            },
            {
                "start_time": 1.2090909,
                "end_time": 1.4136364,
                "pitch": 34,
                "velocity": 80,
                "duration": 0.2045455,
                "tempo": 120.0
            },
            {
                "start_time": 1.4136364,
                "end_time": 1.6181818,
                "pitch": 46,
                "velocity": 80,
                "duration": 0.2045455,
                "tempo": 120.0
            },
            {
                "start_time": 1.6181818,
                "end_time": 1.8204545,
                "pitch": 34,
                "velocity": 80,
                "duration": 0.2022727,
                "tempo": 120.0
            },
            {
                "start_time": 1.8204545,
                "end_time": 2.0204545,
                "pitch": 46,
                "velocity": 80,
                "duration": 0.2,
                "tempo": 120.0
            },
            {
                "start_time": 2.0204545,
                "end_time": 2.2204545,
                "pitch": 34,
                "velocity": 80,
                "duration": 0.2,
                "tempo": 120.0
            },
            {
                "start_time": 2.2204545,
                "end_time": 2.4181818,
                "pitch": 46,
                "velocity": 80,
                "duration": 0.1977273,
                "tempo": 120.0
            },
            {
                "start_time": 2.4181818,
                "end_time": 2.6136364,
                "pitch": 34,
                "velocity": 80,
                "duration": 0.1954545,
                "tempo": 120.0
            },
            {
                "start_time": 2.6136364,
                "end_time": 2.8090909,
                "pitch": 46,
                "velocity": 80,
                "duration": 0.1954545,
                "tempo": 120.0
            },
            {
                "start_time": 2.8090909,
                "end_time": 3.0090909,
                "pitch": 34,
                "velocity": 80,
                "duration": 0.2,
                "tempo": 120.0
            },
            {
                "start_time": 3.0090909,
                "end_time": 3.2090909,
                "pitch": 46,
                "velocity": 80,
                "duration": 0.2,
                "tempo": 120.0
            },
            {
                "start_time": 3.2090909,
                "end_time": 3.4090909,
                "pitch": 34,
                "velocity": 80,
                "duration": 0.2,
                "tempo": 120.0
            },
            {
                "start_time": 3.4090909,
                "end_time": 3.6090909,
                "pitch": 46,
                "velocity": 80,
                "duration": 0.2,
                "tempo": 120.0
            },
            {
                "start_time": 3.6090909,
                "end_time": 3.8068182,
                "pitch": 34,
                "velocity": 80,
                "duration": 0.1977273,
                "tempo": 120.0
            },
            {
                "start_time": 3.8068182,
                "end_time": 4.0068182,
                "pitch": 46,
                "velocity": 80,
                "duration": 0.2,
                "tempo": 120.0
            },
            {
                "start_time": 4.0068182,
                "end_time": 4.2022727,
                "pitch": 34,
                "velocity": 80,
                "duration": 0.1954545,
                "tempo": 120.0
            },
            {
                "start_time": 4.2022727,
                "end_time": 4.3977273,
                "pitch": 46,
                "velocity": 80,
                "duration": 0.1954545,
                "tempo": 120.0
            },
            {
                "start_time": 4.3977273,
                "end_time": 4.6022727,
                "pitch": 34,
                "velocity": 80,
                "duration": 0.2045455,
                "tempo": 120.0
            },
            {
                "start_time": 4.6022727,
                "end_time": 4.8068182,
                "pitch": 46,
                "velocity": 80,
                "duration": 0.2045455,
                "tempo": 120.0
            },
            {
                "start_time": 4.8068182,
                "end_time": 5.0068182,
                "pitch": 34,
                "velocity": 80,
                "duration": 0.2,
                "tempo": 120.0
            },
            {
                "start_time": 5.0068182,
                "end_time": 5.2068182,
                "pitch": 46,
                "velocity": 80,
                "duration": 0.2,
                "tempo": 120.0
            },
            {
                "start_time": 5.2068182,
                "end_time": 5.4068182,
                "pitch": 34,
                "velocity": 80,
                "duration": 0.2,
                "tempo": 120.0
            },
            {
                "start_time": 5.4068182,
                "end_time": 5.6068182,
                "pitch": 46,
                "velocity": 80,
                "duration": 0.2,
                "tempo": 120.0
            },
            {
                "start_time": 5.6068182,
                "end_time": 5.8022727,
                "pitch": 34,
                "velocity": 80,
                "duration": 0.1954545,
                "tempo": 120.0
            },
            {
                "start_time": 5.8022727,
                "end_time": 5.9977273,
                "pitch": 46,
                "velocity": 80,
                "duration": 0.1954545,
                "tempo": 120.0
            },
            {
                "start_time": 5.9977273,
                "end_time": 6.2,
                "pitch": 34,
                "velocity": 80,
                "duration": 0.2022727,
                "tempo": 120.0
            },
            {
                "start_time": 6.2,
                "end_time": 6.4,
                "pitch": 46,
                "velocity": 80,
                "duration": 0.2,
                "tempo": 120.0
            },
            {
                "start_time": 6.4,
                "end_time": 6.6,
                "pitch": 34,
                "velocity": 80,
                "duration": 0.2,
                "tempo": 120.0
            },
            {
                "start_time": 6.6,
                "end_time": 6.8022727,
                "pitch": 48,
                "velocity": 80,
                "duration": 0.2022727,
                "tempo": 120.0
            },
            {
                "start_time": 6.8022727,
                "end_time": 7.0,
                "pitch": 36,
                "velocity": 80,
                "duration": 0.1977273,
                "tempo": 120.0
            },
            {
                "start_time": 7.0,
                "end_time": 7.2,
                "pitch": 48,
                "velocity": 80,
                "duration": 0.2,
                "tempo": 120.0
            },
            {
                "start_time": 7.2,
                "end_time": 7.4,
                "pitch": 36,
                "velocity": 80,
                "duration": 0.2,
                "tempo": 120.0
            },
            {
                "start_time": 7.4,
                "end_time": 7.6022727,
                "pitch": 48,
                "velocity": 80,
                "duration": 0.2022727,
                "tempo": 120.0
            },
            {
                "start_time": 7.6022727,
                "end_time": 7.8,
                "pitch": 36,
                "velocity": 80,
                "duration": 0.1977273,
                "tempo": 120.0
            },
            {
                "start_time": 7.8,
                "end_time": 8.0,
                "pitch": 48,
                "velocity": 80,
                "duration": 0.2,
                "tempo": 120.0
            },
            {
                "start_time": 8.0,
                "end_time": 8.2022727,
                "pitch": 36,
                "velocity": 80,
                "duration": 0.2022727,
                "tempo": 120.0
            },
            {
                "start_time": 8.2022727,
                "end_time": 8.4022727,
                "pitch": 48,
                "velocity": 80,
                "duration": 0.2,
                "tempo": 120.0
            },
            {
                "start_time": 8.4022727,
                "end_time": 8.6022727,
                "pitch": 36,
                "velocity": 80,
                "duration": 0.2,
                "tempo": 120.0
            },
            {
                "start_time": 8.6022727,
                "end_time": 8.8022727,
                "pitch": 48,
                "velocity": 80,
                "duration": 0.2,
                "tempo": 120.0
            },
            {
                "start_time": 8.8022727,
                "end_time": 8.9977273,
                "pitch": 36,
                "velocity": 80,
                "duration": 0.1954545,
                "tempo": 120.0
            },
            {
                "start_time": 8.9977273,
                "end_time": 9.1931818,
                "pitch": 48,
                "velocity": 80,
                "duration": 0.1954545,
                "tempo": 120.0
            },
            {
                "start_time": 9.1931818,
                "end_time": 9.3954545,
                "pitch": 36,
                "velocity": 80,
                "duration": 0.2022727,
                "tempo": 120.0
            },
            {
                "start_time": 9.3954545,
                "end_time": 9.5954545,
                "pitch": 48,
                "velocity": 80,
                "duration": 0.2,
                "tempo": 120.0
            },
            {
                "start_time": 9.5954545,
                "end_time": 9.7977273,
                "pitch": 36,
                "velocity": 80,
                "duration": 0.2022727,
                "tempo": 120.0
            },
            {
                "start_time": 9.7977273,
                "end_time": 9.9977273,
                "pitch": 48,
                "velocity": 80,
                "duration": 0.2,
                "tempo": 120.0
            },
            {
                "start_time": 9.9977273,
                "end_time": 10.1977273,
                "pitch": 36,
                "velocity": 80,
                "duration": 0.2,
                "tempo": 120.0
            },
            {
                "start_time": 10.1977273,
                "end_time": 10.3977273,
                "pitch": 48,
                "velocity": 80,
                "duration": 0.2,
                "tempo": 120.0
            },
            {
                "start_time": 10.3977273,
                "end_time": 10.6,
                "pitch": 36,
                "velocity": 80,
                "duration": 0.2022727,
                "tempo": 120.0
            },
            {
                "start_time": 10.6,
                "end_time": 10.8,
                "pitch": 48,
                "velocity": 80,
                "duration": 0.2,
                "tempo": 120.0
            },
            {
                "start_time": 10.8,
                "end_time": 11.0,
                "pitch": 36,
                "velocity": 80,
                "duration": 0.2,
                "tempo": 120.0
            },
            {
                "start_time": 11.0,
                "end_time": 11.2,
                "pitch": 48,
                "velocity": 80,
                "duration": 0.2,
                "tempo": 120.0
            },
            {
                "start_time": 11.2,
                "end_time": 11.4,
                "pitch": 36,
                "velocity": 80,
                "duration": 0.2,
                "tempo": 120.0
            },
            {
                "start_time": 11.4,
                "end_time": 11.6,
                "pitch": 48,
                "velocity": 80,
                "duration": 0.2,
                "tempo": 120.0
            },
            {
                "start_time": 11.6,
                "end_time": 11.8022727,
                "pitch": 36,
                "velocity": 80,
                "duration": 0.2022727,
                "tempo": 120.0
            },
            {
                "start_time": 11.8022727,
                "end_time": 12.0022727,
                "pitch": 48,
                "velocity": 80,
                "duration": 0.2,
                "tempo": 120.0
            },
            {
                "start_time": 12.0022727,
                "end_time": 12.1977273,
                "pitch": 36,
                "velocity": 80,
                "duration": 0.1954545,
                "tempo": 120.0
            },
            {
                "start_time": 12.1977273,
                "end_time": 12.3931818,
                "pitch": 48,
                "velocity": 80,
                "duration": 0.1954545,
                "tempo": 120.0
            },
            {
                "start_time": 12.3931818,
                "end_time": 12.5931818,
                "pitch": 36,
                "velocity": 80,
                "duration": 0.2,
                "tempo": 120.0
            },
            {
                "start_time": 12.5931818,
                "end_time": 12.7954545,
                "pitch": 48,
                "velocity": 80,
                "duration": 0.2022727,
                "tempo": 120.0
            }
        ]
    }
}