{
    "mood": "angry",
    "instruments": {
        "Lead 2 (sawtooth)": [
            {
                "start_time": 0.0113636,
                "end_time": 0.1068182,
                "pitch": 0,
                "velocity": 4,
                "duration": 0.0954545,
                "tempo": 120.0
            },
            {
                "start_time": 0.1090909,
                "end_time": 0.1204545,
                "pitch": 69,
                "velocity": 101,
                "duration": 0.0113636,
                "tempo": 120.0
            },
            {
                "start_time": 0.2113636,
                "end_time": 0.2227273,
                "pitch": 69,
                "velocity": 101,
                "duration": 0.0113636,
                "tempo": 120.0
            },
            {
                "start_time": 0.3159091,
                "end_time": 0.4113636,
                "pitch": 69,
                "velocity": 101,
                "duration": 0.0954545,
                "tempo": 120.0
            },
            {
                "start_time": 0.5204545,
                "end_time": 0.5318182,
                "pitch": 69,
                "velocity": 101,
                "duration": 0.0113636,
                "tempo": 120.0
            },
            {
                "start_time": 0.6295455,
                "end_time": 0.9613636,
                "pitch": 70,
                "velocity": 101,
                "duration": 0.3318182,
                "tempo": 120.0
            },
            {
                "start_time": 1.0204545,
                "end_time": 1.4477273,
                "pitch": 71,
                "velocity": 101,
                "duration": 0.4272727,
                "tempo": 120.0
            },
            {
                "start_time": 1.5159091,
                "end_time": 1.5522727,
                "pitch": 71,
                "velocity": 64,
                "duration": 0.0363636,
                "tempo": 120.0
            },
            {
                "start_time": 1.5522727,
                "end_time": 1.5931818,
                "pitch": 70,
                "velocity": 64,
                "duration": 0.0409091,
                "tempo": 120.0
            },
            {
                "start_time": 1.5931818,
                "end_time": 1.6340909,
                "pitch": 69,
                "velocity": 64,
                "duration": 0.0409091,
                "tempo": 120.0
            },
            {
                "start_time": 1.6340909,
                "end_time": 1.6727273,
                "pitch": 68,
                "velocity": 64,
                "duration": 0.0386364,
                "tempo": 120.0
            },
            {
                "start_time": 1.6727273,
                "end_time": 1.7136364,
                "pitch": 67,
                "velocity": 64,
                "duration": 0.0409091,
                "tempo": 120.0
            },
            {
                "start_time": 1.7136364,
                "end_time": 1.7545455,
                "pitch": 66,
                "velocity": 64,
                "duration": 0.0409091,
                "tempo": 120.0
            },
            {
                "start_time": 1.7568182,
                "end_time": 1.7931818,
                "pitch": 65,
                "velocity": 64,
                "duration": 0.0363636,
                "tempo": 120.0
            },
            {
                "start_time": 1.7954545,
                "end_time": 1.8340909,
                "pitch": 64,
                "velocity": 64,
                "duration": 0.0386364,
                "tempo": 120.0
            },
            {
                "start_time": 1.8340909,
                "end_time": 1.875,
                "pitch": 63,
                "velocity": 64,
                "duration": 0.0409091,
                "tempo": 120.0
            },
            {
                "start_time": 1.8772727,
                "end_time": 1.9181818,
                "pitch": 62,
                "velocity": 64,
                "duration": 0.0409091,
                "tempo": 120.0
            },
            {
                "start_time": 1.9181818,
                "end_time": 1.9590909,
                "pitch": 61,
                "velocity": 64,
                "duration": 0.0409091,
                "tempo": 120.0
            },
            {
                "start_time": 1.9613636,
                "end_time": 2.0045455,
                "pitch": 60,
                "velocity": 64,
                "duration": 0.0431818,
                "tempo": 120.0
            }
        ],
        "Harpsichord": [
            {
                "start_time": 2.0068182,
                "end_time": 2.3886364,
                "pitch": 60,
                "velocity": 4,
                "duration": 0.3818182,
                "tempo": 120.0
            },
            {
                "start_time": 2.3886364,
                "end_time": 2.3909091,
                "pitch": 64,
                "velocity": 4,
                "duration": 0.0022727,
                "tempo": 120.0
            },
            {
                "start_time": 2.3909091,
                "end_time": 2.4272727,
                "pitch": 64,
                "velocity": 64,
                "duration": 0.0363636,
                "tempo": 120.0
            },
            {
                "start_time": 2.6431818,
                "end_time": 2.7681818,
                "pitch": 64,
                "velocity": 4,
                "duration": 0.125,
                "tempo": 120.0
            },
            {
                "start_time": 2.7704545,
                "end_time": 2.7840909,
                "pitch": 64,
                "velocity": 64,
                "duration": 0.0136364,
                "tempo": 120.0
            },
            {
                "start_time": 2.8954545,
                "end_time": 2.9090909,
                "pitch": 64,
                "velocity": 64,
                "duration": 0.0136364,
                "tempo": 120.0
            },
            {
                "start_time": 3.0181818,
                "end_time": 3.1454545,
                "pitch": 64,
                "velocity": 4,
                "duration": 0.1272727,
                "tempo": 120.0
            },
            {
                "start_time": 3.1454545,
                "end_time": 3.1818182,
                "pitch": 64,
                "velocity": 64,
                "duration": 0.0363636,
                "tempo": 120.0
            },
            {
                "start_time": 3.3954545,
                "end_time": 3.5204545,
                "pitch": 64,
                "velocity": 4,
                "duration": 0.125,
                "tempo": 120.0
            },
            {
                "start_time": 3.5204545,
                "end_time": 3.5363636,
                "pitch": 64,
                "velocity": 64,
                "duration": 0.0159091,
                "tempo": 120.0
            },
            {
                "start_time": 3.6454545,
                "end_time": 3.7454545,
                "pitch": 64,
                "velocity": 4,
                "duration": 0.1,
                "tempo": 120.0
            },
            {
                "start_time": 3.7454545,
                "end_time": 3.7568182,
                "pitch": 64,
                "velocity": 64,
                "duration": 0.0113636,
                "tempo": 120.0
            },
            {
                "start_time": 3.8431818,
                "end_time": 3.9431818,
                "pitch": 64,
                "velocity": 4,
                "duration": 0.1,
                "tempo": 120.0
            },
            {
                "start_time": 3.9454545,
                "end_time": 4.0454545,
                "pitch": 64,
                "velocity": 4,
                "duration": 0.1,
                "tempo": 120.0
            },
            {
                "start_time": 4.0454545,
                "end_time": 4.075,
                "pitch": 64,
                "velocity": 64,
                "duration": 0.0295455,
                "tempo": 120.0
            },
            {
                "start_time": 4.2454545,
                "end_time": 4.3477273,
                "pitch": 64,
                "velocity": 4,
                "duration": 0.1022727,
                "tempo": 120.0
            },
            {
                "start_time": 4.3477273,
                "end_time": 4.3613636,
                "pitch": 64,
                "velocity": 64,
                "duration": 0.0136364,
                "tempo": 120.0
            },
            {
                "start_time": 4.4477273,
                "end_time": 4.5477273,
                "pitch": 64,
                "velocity": 4,
                "duration": 0.1,
                "tempo": 120.0
            },
            {
                "start_time": 4.55,
                "end_time": 4.5613636,
                "pitch": 64,
                "velocity": 64,
                "duration": 0.0113636,
                "tempo": 120.0
            },
            {
                "start_time": 4.6477273,
                "end_time": 4.75,
                "pitch": 64,
                "velocity": 4,
                "duration": 0.1022727,
                "tempo": 120.0
            },
            {
                "start_time": 4.75,
                "end_time": 4.7613636,
                "pitch": 64,
                "velocity": 64,
                "duration": 0.0113636,
                "tempo": 120.0
            },
            {
                "start_time": 4.8477273,
                "end_time": 4.9477273,
                "pitch": 64,
                "velocity": 4,
                "duration": 0.1,
                "tempo": 120.0
            },
            {
                "start_time": 4.9477273,
                "end_time": 4.9590909,
                "pitch": 64,
                "velocity": 64,
                "duration": 0.0113636,
                "tempo": 120.0
            },
            {
                "start_time": 5.0454545,
                "end_time": 5.1409091,
                "pitch": 64,
                "velocity": 4,
                "duration": 0.0954545,
                "tempo": 120.0
            },
            {
                "start_time": 5.1431818,
                "end_time": 5.2409091,
                "pitch": 64,
                "velocity": 4,
                "duration": 0.0977273,
                "tempo": 120.0
            },
            {
                "start_time": 5.2431818,
                "end_time": 5.2886364,
                "pitch": 64,
                "velocity": 64,
                "duration": 0.0454545,
                "tempo": 120.0
            },
            {
                "start_time": 5.5568182,
                "end_time": 5.8590909,
                "pitch": 64,
                "velocity": 4,
                "duration": 0.3022727,
                "tempo": 120.0
            },
            {
                "start_time": 5.8613636,
                "end_time": 5.8886364,
                "pitch": 64,
                "velocity": 64,
                "duration": 0.0272727,
                "tempo": 120.0
            },
            {
                "start_time": 6.0568182,
                "end_time": 6.1568182,
                "pitch": 64,
                "velocity": 4,
                "duration": 0.1,
                "tempo": 120.0
            },
            {
                "start_time": 6.1590909,
                "end_time": 6.1704545,
                "pitch": 64,
                "velocity": 64,
                "duration": 0.0113636,
                "tempo": 120.0
            },
            {
                "start_time": 6.2590909,
                "end_time": 6.2704545,
                "pitch": 64,
                "velocity": 64,
                "duration": 0.0113636,
                "tempo": 120.0
            },
            {
                "start_time": 6.3590909,
                "end_time": 6.4590909,
                "pitch": 64,
                "velocity": 4,
                "duration": 0.1,
                "tempo": 120.0
            },
            {
                "start_time": 6.4613636,
                "end_time": 6.4886364,
                "pitch": 64,
                "velocity": 64,
                "duration": 0.0272727,
                "tempo": 120.0
            },
            {
                "start_time": 6.6590909,
                "end_time": 6.7590909,
                "pitch": 64,
                "velocity": 4,
                "duration": 0.1,
                "tempo": 120.0
            },
            {
                "start_time": 6.7613636,
                "end_time": 6.7727273,
                "pitch": 64,
                "velocity": 64,
                "duration": 0.0113636,
                "tempo": 120.0
            },
            {
                "start_time": 6.8590909,
                "end_time": 6.9590909,
                "pitch": 64,
                "velocity": 4,
                "duration": 0.1,
                "tempo": 120.0
            },
            {
                "start_time": 6.9590909,
                "end_time": 6.9704545,
                "pitch": 64,
                "velocity": 64,
                "duration": 0.0113636,
                "tempo": 120.0
            },
            {
                "start_time": 7.0545455,
                "end_time": 7.1522727,
                "pitch": 64,
                "velocity": 4,
                "duration": 0.0977273,
                "tempo": 120.0
            },
            {
                "start_time": 7.1545455,
                "end_time": 7.2522727,
                "pitch": 64,
                "velocity": 4,
                "duration": 0.0977273,
                "tempo": 120.0
            },
            {
                "start_time": 7.2545455,
                "end_time": 7.2840909,
                "pitch": 64,
                "velocity": 64,
                "duration": 0.0295455,
                "tempo": 120.0
            },
            {
                "start_time": 7.4636364,
                "end_time": 7.5704545,
                "pitch": 64,
                "velocity": 4,
                "duration": 0.1068182,
                "tempo": 120.0
            },
            {
                "start_time": 7.5704545,
                "end_time": 7.5840909,
                "pitch": 64,
                "velocity": 64,
                "duration": 0.0136364,
                "tempo": 120.0
            },
            {
                "start_time": 7.675,
                "end_time": 7.7727273,
                "pitch": 64,
                "velocity": 4,
                "duration": 0.0977273,
                "tempo": 120.0
            },
            {
                "start_time": 7.775,
                "end_time": 7.7863636,
                "pitch": 64,
                "velocity": 64,
                "duration": 0.0113636,
                "tempo": 120.0
            },
            {
                "start_time": 7.8704545,
                "end_time": 7.9681818,
                "pitch": 64,
                "velocity": 4,
                "duration": 0.0977273,
                "tempo": 120.0
            },
            {
                "start_time": 8.7818182,
                "end_time": 9.0772727,
                "pitch": 57,
                "velocity": 4,
                "duration": 0.2954545,
                "tempo": 120.0
            },
            {
                "start_time": 9.0772727,
                "end_time": 9.0795455,
                "pitch": 64,
                "velocity": 4,
                "duration": 0.0022727,
                "tempo": 120.0
            },
            {
                "start_time": 9.0795455,
                "end_time": 9.1068182,
                "pitch": 64,
                "velocity": 64,
                "duration": 0.0272727,
                "tempo": 120.0
            },
            {
                "start_time": 9.275,
                "end_time": 9.375,
                "pitch": 64,
                "velocity": 4,
                "duration": 0.1,
                "tempo": 120.0
            },
            {
                "start_time": 9.375,
                "end_time": 9.3886364,
                "pitch": 64,
                "velocity": 64,
                "duration": 0.0136364,
                "tempo": 120.0
            },
            {
                "start_time": 9.475,
                "end_time": 9.4886364,
                "pitch": 64,
                "velocity": 64,
                "duration": 0.0136364,
                "tempo": 120.0
            },
            {
                "start_time": 9.575,
                "end_time": 9.675,
                "pitch": 64,
                "velocity": 4,
                "duration": 0.1,
                "tempo": 120.0
            },
            {
                "start_time": 9.6772727,
                "end_time": 9.7045455,
                "pitch": 64,
                "velocity": 64,
                "duration": 0.0272727,
                "tempo": 120.0
            },
            {
                "start_time": 9.8772727,
                "end_time": 9.9772727,
                "pitch": 64,
                "velocity": 4,
                "duration": 0.1,
                "tempo": 120.0
            },
            {
                "start_time": 9.9795455,
                "end_time": 9.9909091,
                "pitch": 64,
                "velocity": 64,
                "duration": 0.0113636,
                "tempo": 120.0
            },
            {
                "start_time": 10.0795455,
                "end_time": 10.1795455,
                "pitch": 64,
                "velocity": 4,
                "duration": 0.1,
                "tempo": 120.0
            },
            {
                "start_time": 10.1795455,
                "end_time": 10.1931818,
                "pitch": 64,
                "velocity": 64,
                "duration": 0.0136364,
                "tempo": 120.0
            },
            {
                "start_time": 10.2795455,
                "end_time": 10.3795455,
                "pitch": 64,
                "velocity": 4,
                "duration": 0.1,
                "tempo": 120.0
            },
            {
                "start_time": 10.3818182,
                "end_time": 10.4818182,
                "pitch": 64,
                "velocity": 4,
                "duration": 0.1,
                "tempo": 120.0
            },
            {
                "start_time": 10.4840909,
                "end_time": 10.5113636,
                "pitch": 64,
                "velocity": 64,
                "duration": 0.0272727,
                "tempo": 120.0
            },
            {
                "start_time": 10.6886364,
                "end_time": 10.7909091,
                "pitch": 64,
                "velocity": 4,
                "duration": 0.1022727,
                "tempo": 120.0
            },
            {
                "start_time": 10.7909091,
                "end_time": 10.8045455,
                "pitch": 64,
                "velocity": 64,
                "duration": 0.0136364,
                "tempo": 120.0
            },
            {
                "start_time": 10.8931818,
                "end_time": 10.9977273,
                "pitch": 64,
                "velocity": 4,
                "duration": 0.1045455,
                "tempo": 120.0
            },
            {
                "start_time": 10.9977273,
                "end_time": 11.0090909,
                "pitch": 64,
                "velocity": 64,
                "duration": 0.0113636,
                "tempo": 120.0
            },
            {
                "start_time": 11.1,
                "end_time": 11.2022727,
                "pitch": 64,
                "velocity": 4,
                "duration": 0.1022727,
                "tempo": 120.0
            },
            {
                "start_time": 11.2022727,
                "end_time": 11.2159091,
                "pitch": 64,
                "velocity": 64,
                "duration": 0.0136364,
                "tempo": 120.0
            },
            {
                "start_time": 11.3045455,
                "end_time": 11.4,
                "pitch": 64,
                "velocity": 4,
                "duration": 0.0954545,
                "tempo": 120.0
            },
            {
                "start_time": 11.4,
                "end_time": 11.4113636,
                "pitch": 64,
                "velocity": 64,
                "duration": 0.0113636,
                "tempo": 120.0
            },
            {
                "start_time": 11.4954545,
                "end_time": 11.5909091,
                "pitch": 64,
                "velocity": 4,
                "duration": 0.0954545,
                "tempo": 120.0
            },
            {
                "start_time": 11.5909091,
                "end_time": 11.6863636,
                "pitch": 64,
                "velocity": 4,
                "duration": 0.0954545,
                "tempo": 120.0
            },
            {
                "start_time": 11.6886364,
                "end_time": 11.7340909,
                "pitch": 64,
                "velocity": 64,
                "duration": 0.0454545,
                "tempo": 120.0
            },
            {
                "start_time": 11.9954545,
                "end_time": 12.3,
                "pitch": 64,
                "velocity": 4,
                "duration": 0.3045455,
                "tempo": 120.0
            },
            {
                "start_time": 12.3,
                "end_time": 12.3295455,
                "pitch": 64,
                "velocity": 64,
                "duration": 0.0295455,
                "tempo": 120.0
            },
            {
                "start_time": 12.5022727,
                "end_time": 12.6045455,
                "pitch": 64,
                "velocity": 4,
                "duration": 0.1022727,
                "tempo": 120.0
            },
            {
                "start_time": 12.6045455,
                "end_time": 12.6181818,
                "pitch": 64,
                "velocity": 64,
                "duration": 0.0136364,
                "tempo": 120.0
            },
            {
                "start_time": 12.7068182,
                "end_time": 12.7204545,
                "pitch": 64,
                "velocity": 64,
                "duration": 0.0136364,
                "tempo": 120.0
            },
            {
                "start_time": 12.8090909,
                "end_time": 12.9136364,
                "pitch": 64,
                "velocity": 4,
                "duration": 0.1045455,
                "tempo": 120.0
            },
            {
                "start_time": 12.9136364,
                "end_time": 12.9431818,
                "pitch": 64,
                "velocity": 64,
                "duration": 0.0295455,
                "tempo": 120.0
            },
            {
                "start_time": 13.1136364,
                "end_time": 13.2159091,
                "pitch": 64,
                "velocity": 4,
                "duration": 0.1022727,
                "tempo": 120.0
            },
            {
                "start_time": 13.2159091,
                "end_time": 13.2295455,
                "pitch": 64,
                "velocity": 64,
                "duration": 0.0136364,
                "tempo": 120.0
            },
            {
                "start_time": 13.3159091,
                "end_time": 13.4136364,
                "pitch": 64,
                "velocity": 4,
                "duration": 0.0977273,
                "tempo": 120.0
            },
            {
                "start_time": 13.4159091,
                "end_time": 13.4272727,
                "pitch": 64,
                "velocity": 64,
                "duration": 0.0113636,
                "tempo": 120.0
            },
            {
                "start_time": 13.5113636,
                "end_time": 13.6090909,
                "pitch": 64,
                "velocity": 4,
                "duration": 0.0977273,
                "tempo": 120.0
            },
            {
                "start_time": 13.6113636,
                "end_time": 13.7090909,
                "pitch": 64,
                "velocity": 4,
                "duration": 0.0977273,
                "tempo": 120.0
            },
            {
                "start_time": 13.7090909,
                "end_time": 13.7386364,
                "pitch": 64,
                "velocity": 64,
                "duration": 0.0295455,
                "tempo": 120.0
            },
            {
                "start_time": 13.9136364,
                "end_time": 14.0181818,
                "pitch": 64,
                "velocity": 4,
                "duration": 0.1045455,
                "tempo": 120.0
            },
            {
                "start_time": 14.0181818,
                "end_time": 14.0318182,
                "pitch": 64,
                "velocity": 64,
                "duration": 0.0136364,
                "tempo": 120.0
            },
            {
                "start_time": 14.1204545,
                "end_time": 14.2181818,
                "pitch": 64,
                "velocity": 4,
                "duration": 0.0977273,
                "tempo": 120.0
            },
            {
                "start_time": 14.2181818,
                "end_time": 14.2318182,
                "pitch": 64,
                "velocity": 64,
                "duration": 0.0136364,
                "tempo": 120.0
            },
            {
                "start_time": 14.3159091,
                "end_time": 14.4136364,
                "pitch": 64,
                "velocity": 4,
                "duration": 0.0977273,
                "tempo": 120.0
            },
            {
                "start_time": 14.4136364,
                "end_time": 14.4159091,
                "pitch": 57,
                "velocity": 4,
                "duration": 0.0022727,
                "tempo": 120.0
            },
            {
                "start_time": 15.2272727,
                "end_time": 15.5227273,
                "pitch": 59,
                "velocity": 4,
                "duration": 0.2954545,
                "tempo": 120.0
            },
            {
                "start_time": 15.5227273,
                "end_time": 15.5522727,
                "pitch": 64,
                "velocity": 4,
                "duration": 0.0295455,
                "tempo": 120.0
            },
            {
                "start_time": 15.525,
                "end_time": 15.5522727,
                "pitch": 64,
                "velocity": 64,
                "duration": 0.0272727,
                "tempo": 120.0
            },
            {
                "start_time": 15.7204545,
                "end_time": 15.8204545,
                "pitch": 64,
                "velocity": 4,
                "duration": 0.1,
                "tempo": 120.0
            },
            {
                "start_time": 15.8227273,
                "end_time": 15.8340909,
                "pitch": 64,
                "velocity": 64,
                "duration": 0.0113636,
                "tempo": 120.0
            },
            {
                "start_time": 15.9227273,
                "end_time": 15.9340909,
                "pitch": 64,
                "velocity": 64,
                "duration": 0.0113636,
                "tempo": 120.0
            },
            {
                "start_time": 16.0227273,
                "end_time": 16.1227273,
                "pitch": 64,
                "velocity": 4,
                "duration": 0.1,
                "tempo": 120.0
            },
            {
                "start_time": 16.125,
                "end_time": 16.1522727,
                "pitch": 64,
                "velocity": 64,
                "duration": 0.0272727,
                "tempo": 120.0
            },
            {
                "start_time": 16.325,
                "end_time": 16.425,
                "pitch": 64,
                "velocity": 4,
                "duration": 0.1,
                "tempo": 120.0
            },
            {
                "start_time": 16.4272727,
                "end_time": 16.4386364,
                "pitch": 64,
                "velocity": 64,
                "duration": 0.0113636,
                "tempo": 120.0
            },
            {
                "start_time": 16.5272727,
                "end_time": 16.6295455,
                "pitch": 64,
                "velocity": 4,
                "duration": 0.1022727,
                "tempo": 120.0
            },
            {
                "start_time": 16.6295455,
                "end_time": 16.6431818,
                "pitch": 64,
                "velocity": 64,
                "duration": 0.0136364,
                "tempo": 120.0
            },
            {
                "start_time": 16.7318182,
                "end_time": 16.8340909,
                "pitch": 64,
                "velocity": 4,
                "duration": 0.1022727,
                "tempo": 120.0
            },
            {
                "start_time": 16.8340909,
                "end_time": 16.9386364,
                "pitch": 64,
                "velocity": 4,
                "duration": 0.1045455,
                "tempo": 120.0
            },
            {
                "start_time": 16.9386364,
                "end_time": 16.9681818,
                "pitch": 64,
                "velocity": 64,
                "duration": 0.0295455,
                "tempo": 120.0
            },
            {
                "start_time": 17.1386364,
                "end_time": 17.2409091,
                "pitch": 64,
                "velocity": 4,
                "duration": 0.1022727,
                "tempo": 120.0
            },
            {
                "start_time": 17.2409091,
                "end_time": 17.2545455,
                "pitch": 64,
                "velocity": 64,
                "duration": 0.0136364,
                "tempo": 120.0
            },
            {
                "start_time": 17.3409091,
                "end_time": 17.4431818,
                "pitch": 64,
                "velocity": 4,
                "duration": 0.1022727,
                "tempo": 120.0
            },
            {
                "start_time": 17.4454545,
                "end_time": 17.4568182,
                "pitch": 64,
                "velocity": 64,
                "duration": 0.0113636,
                "tempo": 120.0
            },
            {
                "start_time": 17.5477273,
                "end_time": 17.65,
                "pitch": 64,
                "velocity": 4,
                "duration": 0.1022727,
                "tempo": 120.0
            },
            {
                "start_time": 17.65,
                "end_time": 17.6636364,
                "pitch": 64,
                "velocity": 64,
                "duration": 0.0136364,
                "tempo": 120.0
            },
            {
                "start_time": 17.7522727,
                "end_time": 17.8477273,
                "pitch": 64,
                "velocity": 4,
                "duration": 0.0954545,
                "tempo": 120.0
            },
            {
                "start_time": 17.8477273,
                "end_time": 17.8590909,
                "pitch": 64,
                "velocity": 64,
                "duration": 0.0113636,
                "tempo": 120.0
            },
            {
                "start_time": 17.9431818,
                "end_time": 18.0363636,
                "pitch": 64,
                "velocity": 4,
                "duration": 0.0931818,
                "tempo": 120.0
            },
            {
                "start_time": 18.0386364,
                "end_time": 18.1363636,
                "pitch": 64,
                "velocity": 4,
                "duration": 0.0977273,
                "tempo": 120.0
            },
            {
                "start_time": 18.1363636,
                "end_time": 18.1818182,
                "pitch": 64,
                "velocity": 64,
                "duration": 0.0454545,
                "tempo": 120.0
            },
            {
                "start_time": 18.4363636,
                "end_time": 18.7431818,
                "pitch": 64,
                "velocity": 4,
                "duration": 0.3068182,
                "tempo": 120.0
            },
            {
                "start_time": 18.7454545,
                "end_time": 18.775,
                "pitch": 64,
                "velocity": 64,
                "duration": 0.0295455,
                "tempo": 120.0
            },
            {
                "start_time": 18.95,
                "end_time": 19.0522727,
                "pitch": 64,
                "velocity": 4,
                "duration": 0.1022727,
                "tempo": 120.0
            },
            {
                "start_time": 19.0545455,
                "end_time": 19.0659091,
                "pitch": 64,
                "velocity": 64,
                "duration": 0.0113636,
                "tempo": 120.0
            },
            {
                "start_time": 19.1568182,
                "end_time": 19.1681818,
                "pitch": 64,
                "velocity": 64,
                "duration": 0.0113636,
                "tempo": 120.0
            },
            {
                "start_time": 19.2590909,
                "end_time": 19.3613636,
                "pitch": 64,
                "velocity": 4,
                "duration": 0.1022727,
                "tempo": 120.0
            },
            {
                "start_time": 19.3613636,
                "end_time": 19.3886364,
                "pitch": 64,
                "velocity": 64,
                "duration": 0.0272727,
                "tempo": 120.0
            },
            {
                "start_time": 19.5522727,
                "end_time": 19.6477273,
                "pitch": 64,
                "velocity": 4,
                "duration": 0.0954545,
                "tempo": 120.0
            },
            {
                "start_time": 19.6477273,
                "end_time": 19.6590909,
                "pitch": 64,
                "velocity": 64,
                "duration": 0.0113636,
                "tempo": 120.0
            },
            {
                "start_time": 19.7431818,
                "end_time": 19.8431818,
                "pitch": 64,
                "velocity": 4,
                "duration": 0.1,
                "tempo": 120.0
            },
            {
                "start_time": 19.8454545,
                "end_time": 19.8568182,
                "pitch": 64,
                "velocity": 64,
                "duration": 0.0113636,
                "tempo": 120.0
            },
            {
                "start_time": 19.9431818,
                "end_time": 20.0431818,
                "pitch": 64,
                "velocity": 4,
                "duration": 0.1,
                "tempo": 120.0
            },
            {
                "start_time": 20.0431818,
                "end_time": 20.1454545,
                "pitch": 64,
                "velocity": 4,
                "duration": 0.1022727,
                "tempo": 120.0
            },
            {
                "start_time": 20.1454545,
                "end_time": 20.175,
                "pitch": 64,
                "velocity": 64,
                "duration": 0.0295455,
                "tempo": 120.0
            },
            {
                "start_time": 20.35,
                "end_time": 20.4522727,
                "pitch": 64,
                "velocity": 4,
                "duration": 0.1022727,
                "tempo": 120.0
            },
            {
                "start_time": 20.4545455,
                "end_time": 20.4659091,
                "pitch": 64,
                "velocity": 64,
                "duration": 0.0113636,
                "tempo": 120.0
            },
            {
                "start_time": 20.5568182,
                "end_time": 20.6590909,
                "pitch": 64,
                "velocity": 4,
                "duration": 0.1022727,
                "tempo": 120.0
            },
            {
                "start_time": 20.6590909,
                "end_time": 20.6727273,
                "pitch": 64,
                "velocity": 64,
                "duration": 0.0136364,
                "tempo": 120.0
            },
            {
                "start_time": 7.9681818,
                "end_time": 20.8636364,
                "pitch": 62,
                "velocity": 4,
                "duration": 12.8954545,
                "tempo": 120.0
            },
            {
                "start_time": 20.7613636,
                "end_time": 20.8636364,
                "pitch": 64,
                "velocity": 4,
                "duration": 0.1022727,
                "tempo": 120.0
            },
            {
                "start_time": 21.6659091,
                "end_time": 21.9681818,
                "pitch": 57,
                "velocity": 4,
                "duration": 0.3022727,
                "tempo": 120.0
            },
            {
                "start_time": 21.9681818,
                "end_time": 21.9954545,
                "pitch": 64,
                "velocity": 4,
                "duration": 0.0272727,
                "tempo": 120.0
            },
            {
                "start_time": 21.9681818,
                "end_time": 21.9954545,
                "pitch": 64,
                "velocity": 64,
                "duration": 0.0272727,
                "tempo": 120.0
            },
            {
                "start_time": 22.1636364,
                "end_time": 22.2636364,
                "pitch": 64,
                "velocity": 4,
                "duration": 0.1,
                "tempo": 120.0
            },
            {
                "start_time": 22.2659091,
                "end_time": 22.2772727,
                "pitch": 64,
                "velocity": 64,
                "duration": 0.0113636,
                "tempo": 120.0
            },
            {
                "start_time": 22.3659091,
                "end_time": 22.3772727,
                "pitch": 64,
                "velocity": 64,
                "duration": 0.0113636,
                "tempo": 120.0
            },
            {
                "start_time": 22.4636364,
                "end_time": 22.5659091,
                "pitch": 64,
                "velocity": 4,
                "duration": 0.1022727,
                "tempo": 120.0
            },
            {
                "start_time": 22.5659091,
                "end_time": 22.5931818,
                "pitch": 64,
                "velocity": 64,
                "duration": 0.0272727,
                "tempo": 120.0
            },
            {
                "start_time": 22.7636364,
                "end_time": 22.8659091,
                "pitch": 64,
                "velocity": 4,
                "duration": 0.1022727,
                "tempo": 120.0
            },
            {
                "start_time": 22.8659091,
                "end_time": 22.8772727,
                "pitch": 64,
                "velocity": 64,
                "duration": 0.0113636,
                "tempo": 120.0
            },
            {
                "start_time": 22.9659091,
                "end_time": 23.0659091,
                "pitch": 64,
                "velocity": 4,
                "duration": 0.1,
                "tempo": 120.0
            },
            {
                "start_time": 23.0659091,
                "end_time": 23.0795455,
                "pitch": 64,
                "velocity": 64,
                "duration": 0.0136364,
                "tempo": 120.0
            },
            {
                "start_time": 23.1659091,
                "end_time": 23.2659091,
                "pitch": 64,
                "velocity": 4,
                "duration": 0.1,
                "tempo": 120.0
            },
            {
                "start_time": 23.2681818,
                "end_time": 23.3681818,
                "pitch": 64,
                "velocity": 4,
                "duration": 0.1,
                "tempo": 120.0
            },
            {
                "start_time": 23.3704545,
                "end_time": 23.3977273,
                "pitch": 64,
                "velocity": 64,
                "duration": 0.0272727,
                "tempo": 120.0
            },
            {
                "start_time": 23.575,
                "end_time": 23.6772727,
                "pitch": 64,
                "velocity": 4,
                "duration": 0.1022727,
                "tempo": 120.0
            },
            {
                "start_time": 23.6772727,
                "end_time": 23.6909091,
                "pitch": 64,
                "velocity": 64,
                "duration": 0.0136364,
                "tempo": 120.0
            },
            {
                "start_time": 23.7795455,
                "end_time": 23.8772727,
                "pitch": 64,
                "velocity": 4,
                "duration": 0.0977273,
                "tempo": 120.0
            },
            {
                "start_time": 23.8795455,
                "end_time": 23.8909091,
                "pitch": 64,
                "velocity": 64,
                "duration": 0.0113636,
                "tempo": 120.0
            },
            {
                "start_time": 23.975,
                "end_time": 24.075,
                "pitch": 64,
                "velocity": 4,
                "duration": 0.1,
                "tempo": 120.0
            },
            {
                "start_time": 24.075,
                "end_time": 24.0863636,
                "pitch": 64,
                "velocity": 64,
                "duration": 0.0113636,
                "tempo": 120.0
            },
            {
                "start_time": 24.1727273,
                "end_time": 24.2727273,
                "pitch": 64,
                "velocity": 4,
                "duration": 0.1,
                "tempo": 120.0
            },
            {
                "start_time": 24.2727273,
                "end_time": 24.2863636,
                "pitch": 64,
                "velocity": 64,
                "duration": 0.0136364,
                "tempo": 120.0
            },
            {
                "start_time": 24.3727273,
                "end_time": 24.4704545,
                "pitch": 64,
                "velocity": 4,
                "duration": 0.0977273,
                "tempo": 120.0
            },
            {
                "start_time": 24.4727273,
                "end_time": 24.5727273,
                "pitch": 64,
                "velocity": 4,
                "duration": 0.1,
                "tempo": 120.0
            },
            {
                "start_time": 24.575,
                "end_time": 24.6204545,
                "pitch": 64,
                "velocity": 64,
                "duration": 0.0454545,
                "tempo": 120.0
            },
            {
                "start_time": 24.8818182,
                "end_time": 25.1840909,
                "pitch": 64,
                "velocity": 4,
                "duration": 0.3022727,
                "tempo": 120.0
            },
            {
                "start_time": 25.1863636,
                "end_time": 25.2136364,
                "pitch": 64,
                "velocity": 64,
                "duration": 0.0272727,
                "tempo": 120.0
            },
            {
                "start_time": 25.3840909,
                "end_time": 25.4840909,
                "pitch": 64,
                "velocity": 4,
                "duration": 0.1,
                "tempo": 120.0
            },
            {
                "start_time": 25.4840909,
                "end_time": 25.4954545,
                "pitch": 64,
                "velocity": 64,
                "duration": 0.0113636,
                "tempo": 120.0
            },
            {
                "start_time": 25.5818182,
                "end_time": 25.5931818,
                "pitch": 64,
                "velocity": 64,
                "duration": 0.0113636,
                "tempo": 120.0
            },
            {
                "start_time": 25.6795455,
                "end_time": 25.7772727,
                "pitch": 64,
                "velocity": 4,
                "duration": 0.0977273,
                "tempo": 120.0
            },
            {
                "start_time": 25.7795455,
                "end_time": 25.8068182,
                "pitch": 64,
                "velocity": 64,
                "duration": 0.0272727,
                "tempo": 120.0
            },
            {
                "start_time": 25.9840909,
                "end_time": 26.0863636,
                "pitch": 64,
                "velocity": 4,
                "duration": 0.1022727,
                "tempo": 120.0
            },
            {
                "start_time": 26.0863636,
                "end_time": 26.1,
                "pitch": 64,
                "velocity": 64,
                "duration": 0.0136364,
                "tempo": 120.0
            },
            {
                "start_time": 26.1886364,
                "end_time": 26.2909091,
                "pitch": 64,
                "velocity": 4,
                "duration": 0.1022727,
                "tempo": 120.0
            },
            {
                "start_time": 26.2909091,
                "end_time": 26.3022727,
                "pitch": 64,
                "velocity": 64,
                "duration": 0.0113636,
                "tempo": 120.0
            },
            {
                "start_time": 26.3886364,
                "end_time": 26.4909091,
                "pitch": 64,
                "velocity": 4,
                "duration": 0.1022727,
                "tempo": 120.0
            },
            {
                "start_time": 26.4909091,
                "end_time": 26.5931818,
                "pitch": 64,
                "velocity": 4,
                "duration": 0.1022727,
                "tempo": 120.0
            },
            {
                "start_time": 26.5931818,
                "end_time": 26.6227273,
                "pitch": 64,
                "velocity": 64,
                "duration": 0.0295455,
                "tempo": 120.0
            },
            {
                "start_time": 26.7931818,
                "end_time": 26.8931818,
                "pitch": 64,
                "velocity": 4,
                "duration": 0.1,
                "tempo": 120.0
            },
            {
                "start_time": 26.8931818,
                "end_time": 26.9045455,
                "pitch": 64,
                "velocity": 64,
                "duration": 0.0113636,
                "tempo": 120.0
            },
            {
                "start_time": 26.9931818,
                "end_time": 27.0931818,
                "pitch": 64,
                "velocity": 4,
                "duration": 0.1,
                "tempo": 120.0
            },
            {
                "start_time": 27.0931818,
                "end_time": 27.1068182,
                "pitch": 64,
                "velocity": 64,
                "duration": 0.0136364,
                "tempo": 120.0
            },
            {
                "start_time": 20.8636364,
                "end_time": 27.2931818,
                "pitch": 62,
                "velocity": 4,
                "duration": 6.4295455,
                "tempo": 120.0
            },
            {
                "start_time": 27.1931818,
                "end_time": 27.2931818,
                "pitch": 64,
                "velocity": 4,
                "duration": 0.1,
                "tempo": 120.0
            },
            {
                "start_time": 27.2931818,
                "end_time": 28.4045455,
                "pitch": 62,
                "velocity": 4,
                "duration": 1.1113636,
                "tempo": 120.0
            },
            {
                "start_time": 28.1090909,
                "end_time": 28.4045455,
                "pitch": 62,
                "velocity": 4,
                "duration": 0.2954545,
                "tempo": 120.0
            },
            {
                "start_time": 28.4045455,
                "end_time": 28.4340909,
                "pitch": 64,
                "velocity": 4,
                "duration": 0.0295455,
                "tempo": 120.0
            },
            {
                "start_time": 28.4045455,
                "end_time": 28.4340909,
                "pitch": 64,
                "velocity": 64,
                "duration": 0.0295455,
                "tempo": 120.0
            }
        ],
        "Trumpet": [
            {
                "start_time": 7.9704545,
                "end_time": 7.9977273,
                "pitch": 86,
                "velocity": 127,
                "duration": 0.0272727,
                "tempo": 120.0
            },
            {
                "start_time": 8.0659091,
                "end_time": 8.0977273,
                "pitch": 86,
                "velocity": 127,
                "duration": 0.0318182,
                "tempo": 120.0
            },
            {
                "start_time": 8.1704545,
                "end_time": 8.1977273,
                "pitch": 81,
                "velocity": 127,
                "duration": 0.0272727,
                "tempo": 120.0
            },
            {
                "start_time": 8.2704545,
                "end_time": 8.3,
                "pitch": 81,
                "velocity": 127,
                "duration": 0.0295455,
                "tempo": 120.0
            },
            {
                "start_time": 8.3704545,
                "end_time": 8.4,
                "pitch": 86,
                "velocity": 127,
                "duration": 0.0295455,
                "tempo": 120.0
            },
            {
                "start_time": 8.4727273,
                "end_time": 8.5022727,
                "pitch": 86,
                "velocity": 127,
                "duration": 0.0295455,
                "tempo": 120.0
            },
            {
                "start_time": 8.575,
                "end_time": 8.6045455,
                "pitch": 81,
                "velocity": 127,
                "duration": 0.0295455,
                "tempo": 120.0
            },
            {
                "start_time": 8.6772727,
                "end_time": 8.7068182,
                "pitch": 81,
                "velocity": 127,
                "duration": 0.0295455,
                "tempo": 120.0
            },
            {
                "start_time": 14.4159091,
                "end_time": 14.4431818,
                "pitch": 57,
                "velocity": 127,
                "duration": 0.0272727,
                "tempo": 120.0
            },
            {
                "start_time": 14.5113636,
                "end_time": 14.5431818,
                "pitch": 56,
                "velocity": 127,
                "duration": 0.0318182,
                "tempo": 120.0
            },
            {
                "start_time": 14.6181818,
                "end_time": 14.6454545,
                "pitch": 57,
                "velocity": 127,
                "duration": 0.0272727,
                "tempo": 120.0
            },
            {
                "start_time": 14.7204545,
                "end_time": 14.7477273,
                "pitch": 59,
                "velocity": 127,
                "duration": 0.0272727,
                "tempo": 120.0
            },
            {
                "start_time": 14.8204545,
                "end_time": 14.925,
                "pitch": 59,
                "velocity": 4,
                "duration": 0.1045455,
                "tempo": 120.0
            },
            {
                "start_time": 14.925,
                "end_time": 14.9545455,
                "pitch": 64,
                "velocity": 4,
                "duration": 0.0295455,
                "tempo": 120.0
            },
            {
                "start_time": 14.9272727,
                "end_time": 14.9545455,
                "pitch": 64,
                "velocity": 127,
                "duration": 0.0272727,
                "tempo": 120.0
            },
            {
                "start_time": 15.0227273,
                "end_time": 15.1272727,
                "pitch": 64,
                "velocity": 4,
                "duration": 0.1045455,
                "tempo": 120.0
            },
            {
                "start_time": 15.1272727,
                "end_time": 15.1545455,
                "pitch": 71,
                "velocity": 127,
                "duration": 0.0272727,
                "tempo": 120.0
            },
            {
                "start_time": 20.8659091,
                "end_time": 20.8954545,
                "pitch": 86,
                "velocity": 127,
                "duration": 0.0295455,
                "tempo": 120.0
            },
            {
                "start_time": 20.9659091,
                "end_time": 20.9954545,
                "pitch": 86,
                "velocity": 127,
                "duration": 0.0295455,
                "tempo": 120.0
            },
            {
                "start_time": 21.0636364,
                "end_time": 21.0909091,
                "pitch": 81,
                "velocity": 127,
                "duration": 0.0272727,
                "tempo": 120.0
            },
            {
                "start_time": 21.1590909,
                "end_time": 21.1863636,
                "pitch": 81,
                "velocity": 127,
                "duration": 0.0272727,
                "tempo": 120.0
            },
            {
                "start_time": 21.2545455,
                "end_time": 21.2818182,
                "pitch": 86,
                "velocity": 127,
                "duration": 0.0272727,
                "tempo": 120.0
            },
            {
                "start_time": 21.35,
                "end_time": 21.3795455,
                "pitch": 86,
                "velocity": 127,
                "duration": 0.0295455,
                "tempo": 120.0
            },
            {
                "start_time": 21.4545455,
                "end_time": 21.4863636,
                "pitch": 81,
                "velocity": 127,
                "duration": 0.0318182,
                "tempo": 120.0
            },
            {
                "start_time": 21.5613636,
                "end_time": 21.5909091,
                "pitch": 81,
                "velocity": 127,
                "duration": 0.0295455,
                "tempo": 120.0
            },
            {
                "start_time": 27.2954545,
                "end_time": 27.3227273,
                "pitch": 74,
                "velocity": 127,
                "duration": 0.0272727,
                "tempo": 120.0
            },
            {
                "start_time": 27.3931818,
                "end_time": 27.4568182,
                "pitch": 78,
                "velocity": 127,
                "duration": 0.0636364,
                "tempo": 120.0
            },
            {
                "start_time": 27.6,
                "end_time": 27.6295455,
                "pitch": 78,
                "velocity": 127,
                "duration": 0.0295455,
                "tempo": 120.0
            },
            {
                "start_time": 27.7022727,
                "end_time": 27.7318182,
                "pitch": 81,
                "velocity": 127,
                "duration": 0.0295455,
                "tempo": 120.0
            },
            {
                "start_time": 27.8068182,
                "end_time": 27.8181818,
                "pitch": 74,
                "velocity": 127,
                "duration": 0.0113636,
                "tempo": 120.0
            },
            {
                "start_time": 27.9068182,
                "end_time": 27.9363636,
                "pitch": 80,
                "velocity": 127,
                "duration": 0.0295455,
                "tempo": 120.0
            },
            {
                "start_time": 28.0090909,
                "end_time": 28.0363636,
                "pitch": 74,
                "velocity": 127,
                "duration": 0.0272727,
                "tempo": 120.0
            }
        ],
        "Acoustic Grand Piano": [
            {
                "start_time": 0.0113636,
                "end_time": 0.1068182,
                "pitch": 0,
                "velocity": 4,
                "duration": 0.0954545,
                "tempo": 120.0
            },
            {
                "start_time": 0.1090909,
                "end_time": 0.1204545,
                "pitch": 38,
                "velocity": 101,
                "duration": 0.0113636,
                "tempo": 120.0
            },
            {
                "start_time": 0.2113636,
                "end_time": 0.2227273,
                "pitch": 38,
                "velocity": 101,
                "duration": 0.0113636,
                "tempo": 120.0
            },
            {
                "start_time": 0.3159091,
                "end_time": 0.3431818,
                "pitch": 38,
                "velocity": 101,
                "duration": 0.0272727,
                "tempo": 120.0
            },
            {
                "start_time": 0.5204545,
                "end_time": 0.5318182,
                "pitch": 38,
                "velocity": 101,
                "duration": 0.0113636,
                "tempo": 120.0
            },
            {
                "start_time": 0.6295455,
                "end_time": 0.6795455,
                "pitch": 39,
                "velocity": 101,
                "duration": 0.05,
                "tempo": 120.0
            },
            {
                "start_time": 1.0181818,
                "end_time": 1.1363636,
                "pitch": 51,
                "velocity": 4,
                "duration": 0.1181818,
                "tempo": 120.0
            },
            {
                "start_time": 1.1363636,
                "end_time": 1.1568182,
                "pitch": 52,
                "velocity": 101,
                "duration": 0.0204545,
                "tempo": 120.0
            },
            {
                "start_time": 1.2681818,
                "end_time": 1.2863636,
                "pitch": 50,
                "velocity": 101,
                "duration": 0.0181818,
                "tempo": 120.0
            },
            {
                "start_time": 1.3886364,
                "end_time": 1.4068182,
                "pitch": 47,
                "velocity": 101,
                "duration": 0.0181818,
                "tempo": 120.0
            },
            {
                "start_time": 1.5136364,
                "end_time": 1.5272727,
                "pitch": 45,
                "velocity": 101,
                "duration": 0.0136364,
                "tempo": 120.0
            },
            {
                "start_time": 1.6340909,
                "end_time": 1.65,
                "pitch": 44,
                "velocity": 101,
                "duration": 0.0159091,
                "tempo": 120.0
            },
            {
                "start_time": 1.7568182,
                "end_time": 1.7704545,
                "pitch": 43,
                "velocity": 101,
                "duration": 0.0136364,
                "tempo": 120.0
            },
            {
                "start_time": 1.8772727,
                "end_time": 1.8931818,
                "pitch": 40,
                "velocity": 101,
                "duration": 0.0159091,
                "tempo": 120.0
            },
            {
                "start_time": 2.0068182,
                "end_time": 2.0636364,
                "pitch": 40,
                "velocity": 101,
                "duration": 0.0568182,
                "tempo": 120.0
            },
            {
                "start_time": 2.3909091,
                "end_time": 2.4068182,
                "pitch": 40,
                "velocity": 101,
                "duration": 0.0159091,
                "tempo": 120.0
            },
            {
                "start_time": 2.5136364,
                "end_time": 2.5340909,
                "pitch": 28,
                "velocity": 101,
                "duration": 0.0204545,
                "tempo": 120.0
            },
            {
                "start_time": 2.6431818,
                "end_time": 2.6590909,
                "pitch": 40,
                "velocity": 101,
                "duration": 0.0159091,
                "tempo": 120.0
            },
            {
                "start_time": 2.7704545,
                "end_time": 2.7840909,
                "pitch": 38,
                "velocity": 101,
                "duration": 0.0136364,
                "tempo": 120.0
            },
            {
                "start_time": 2.8954545,
                "end_time": 2.9090909,
                "pitch": 40,
                "velocity": 101,
                "duration": 0.0136364,
                "tempo": 120.0
            },
            {
                "start_time": 3.0181818,
                "end_time": 3.0340909,
                "pitch": 28,
                "velocity": 101,
                "duration": 0.0159091,
                "tempo": 120.0
            },
            {
                "start_time": 3.1454545,
                "end_time": 3.1818182,
                "pitch": 38,
                "velocity": 101,
                "duration": 0.0363636,
                "tempo": 120.0
            },
            {
                "start_time": 3.3931818,
                "end_time": 3.4090909,
                "pitch": 28,
                "velocity": 101,
                "duration": 0.0159091,
                "tempo": 120.0
            },
            {
                "start_time": 3.5204545,
                "end_time": 3.5363636,
                "pitch": 38,
                "velocity": 101,
                "duration": 0.0159091,
                "tempo": 120.0
            },
            {
                "start_time": 3.6431818,
                "end_time": 3.6568182,
                "pitch": 28,
                "velocity": 101,
                "duration": 0.0136364,
                "tempo": 120.0
            },
            {
                "start_time": 3.7454545,
                "end_time": 3.7727273,
                "pitch": 37,
                "velocity": 101,
                "duration": 0.0272727,
                "tempo": 120.0
            },
            {
                "start_time": 3.9431818,
                "end_time": 3.9568182,
                "pitch": 28,
                "velocity": 101,
                "duration": 0.0136364,
                "tempo": 120.0
            },
            {
                "start_time": 4.0454545,
                "end_time": 4.075,
                "pitch": 38,
                "velocity": 101,
                "duration": 0.0295455,
                "tempo": 120.0
            },
            {
                "start_time": 4.2454545,
                "end_time": 4.2590909,
                "pitch": 28,
                "velocity": 101,
                "duration": 0.0136364,
                "tempo": 120.0
            },
            {
                "start_time": 4.3477273,
                "end_time": 4.3613636,
                "pitch": 38,
                "velocity": 101,
                "duration": 0.0136364,
                "tempo": 120.0
            },
            {
                "start_time": 4.4477273,
                "end_time": 4.4613636,
                "pitch": 28,
                "velocity": 101,
                "duration": 0.0136364,
                "tempo": 120.0
            },
            {
                "start_time": 4.55,
                "end_time": 4.5613636,
                "pitch": 37,
                "velocity": 101,
                "duration": 0.0113636,
                "tempo": 120.0
            },
            {
                "start_time": 4.6477273,
                "end_time": 4.6613636,
                "pitch": 28,
                "velocity": 101,
                "duration": 0.0136364,
                "tempo": 120.0
            },
            {
                "start_time": 4.75,
                "end_time": 4.7613636,
                "pitch": 38,
                "velocity": 101,
                "duration": 0.0113636,
                "tempo": 120.0
            },
            {
                "start_time": 4.8477273,
                "end_time": 4.8613636,
                "pitch": 28,
                "velocity": 101,
                "duration": 0.0136364,
                "tempo": 120.0
            },
            {
                "start_time": 4.9477273,
                "end_time": 4.9590909,
                "pitch": 37,
                "velocity": 101,
                "duration": 0.0113636,
                "tempo": 120.0
            },
            {
                "start_time": 5.0454545,
                "end_time": 5.0568182,
                "pitch": 28,
                "velocity": 101,
                "duration": 0.0113636,
                "tempo": 120.0
            },
            {
                "start_time": 5.1431818,
                "end_time": 5.1545455,
                "pitch": 35,
                "velocity": 101,
                "duration": 0.0113636,
                "tempo": 120.0
            },
            {
                "start_time": 5.2431818,
                "end_time": 5.2886364,
                "pitch": 33,
                "velocity": 101,
                "duration": 0.0454545,
                "tempo": 120.0
            },
            {
                "start_time": 5.5568182,
                "end_time": 5.6068182,
                "pitch": 28,
                "velocity": 101,
                "duration": 0.05,
                "tempo": 120.0
            },
            {
                "start_time": 5.8613636,
                "end_time": 5.8727273,
                "pitch": 40,
                "velocity": 101,
                "duration": 0.0113636,
                "tempo": 120.0
            },
            {
                "start_time": 5.9545455,
                "end_time": 5.9704545,
                "pitch": 28,
                "velocity": 101,
                "duration": 0.0159091,
                "tempo": 120.0
            },
            {
                "start_time": 6.0568182,
                "end_time": 6.0681818,
                "pitch": 40,
                "velocity": 101,
                "duration": 0.0113636,
                "tempo": 120.0
            },
            {
                "start_time": 6.1590909,
                "end_time": 6.1704545,
                "pitch": 38,
                "velocity": 101,
                "duration": 0.0113636,
                "tempo": 120.0
            },
            {
                "start_time": 6.2590909,
                "end_time": 6.2704545,
                "pitch": 40,
                "velocity": 101,
                "duration": 0.0113636,
                "tempo": 120.0
            },
            {
                "start_time": 6.3590909,
                "end_time": 6.3704545,
                "pitch": 28,
                "velocity": 101,
                "duration": 0.0113636,
                "tempo": 120.0
            },
            {
                "start_time": 6.4613636,
                "end_time": 6.4886364,
                "pitch": 38,
                "velocity": 101,
                "duration": 0.0272727,
                "tempo": 120.0
            },
            {
                "start_time": 6.6590909,
                "end_time": 6.6727273,
                "pitch": 28,
                "velocity": 101,
                "duration": 0.0136364,
                "tempo": 120.0
            },
            {
                "start_time": 6.7613636,
                "end_time": 6.7727273,
                "pitch": 38,
                "velocity": 101,
                "duration": 0.0113636,
                "tempo": 120.0
            },
            {
                "start_time": 6.8590909,
                "end_time": 6.8727273,
                "pitch": 28,
                "velocity": 101,
                "duration": 0.0136364,
                "tempo": 120.0
            },
            {
                "start_time": 6.9590909,
                "end_time": 6.9863636,
                "pitch": 40,
                "velocity": 101,
                "duration": 0.0272727,
                "tempo": 120.0
            },
            {
                "start_time": 7.1545455,
                "end_time": 7.1659091,
                "pitch": 28,
                "velocity": 101,
                "duration": 0.0113636,
                "tempo": 120.0
            },
            {
                "start_time": 7.2545455,
                "end_time": 7.2840909,
                "pitch": 38,
                "velocity": 101,
                "duration": 0.0295455,
                "tempo": 120.0
            },
            {
                "start_time": 7.4636364,
                "end_time": 7.4772727,
                "pitch": 28,
                "velocity": 101,
                "duration": 0.0136364,
                "tempo": 120.0
            },
            {
                "start_time": 7.5704545,
                "end_time": 7.5840909,
                "pitch": 38,
                "velocity": 101,
                "duration": 0.0136364,
                "tempo": 120.0
            },
            {
                "start_time": 7.675,
                "end_time": 7.6863636,
                "pitch": 28,
                "velocity": 101,
                "duration": 0.0113636,
                "tempo": 120.0
            },
            {
                "start_time": 7.775,
                "end_time": 7.7863636,
                "pitch": 37,
                "velocity": 101,
                "duration": 0.0113636,
                "tempo": 120.0
            },
            {
                "start_time": 7.8704545,
                "end_time": 7.8840909,
                "pitch": 28,
                "velocity": 101,
                "duration": 0.0136364,
                "tempo": 120.0
            },
            {
                "start_time": 7.9704545,
                "end_time": 7.9818182,
                "pitch": 32,
                "velocity": 101,
                "duration": 0.0113636,
                "tempo": 120.0
            },
            {
                "start_time": 8.0659091,
                "end_time": 8.0795455,
                "pitch": 28,
                "velocity": 101,
                "duration": 0.0136364,
                "tempo": 120.0
            },
            {
                "start_time": 8.1704545,
                "end_time": 8.1818182,
                "pitch": 33,
                "velocity": 101,
                "duration": 0.0113636,
                "tempo": 120.0
            },
            {
                "start_time": 8.2704545,
                "end_time": 8.2818182,
                "pitch": 28,
                "velocity": 101,
                "duration": 0.0113636,
                "tempo": 120.0
            },
            {
                "start_time": 8.3704545,
                "end_time": 8.3818182,
                "pitch": 35,
                "velocity": 101,
                "duration": 0.0113636,
                "tempo": 120.0
            },
            {
                "start_time": 8.4704545,
                "end_time": 8.5,
                "pitch": 38,
                "velocity": 101,
                "duration": 0.0295455,
                "tempo": 120.0
            },
            {
                "start_time": 8.6772727,
                "end_time": 8.6886364,
                "pitch": 28,
                "velocity": 101,
                "duration": 0.0113636,
                "tempo": 120.0
            },
            {
                "start_time": 8.7795455,
                "end_time": 8.8272727,
                "pitch": 28,
                "velocity": 101,
                "duration": 0.0477273,
                "tempo": 120.0
            },
            {
                "start_time": 9.0795455,
                "end_time": 9.0909091,
                "pitch": 40,
                "velocity": 101,
                "duration": 0.0113636,
                "tempo": 120.0
            },
            {
                "start_time": 9.1727273,
                "end_time": 9.1886364,
                "pitch": 28,
                "velocity": 101,
                "duration": 0.0159091,
                "tempo": 120.0
            },
            {
                "start_time": 9.275,
                "end_time": 9.2863636,
                "pitch": 40,
                "velocity": 101,
                "duration": 0.0113636,
                "tempo": 120.0
            },
            {
                "start_time": 9.375,
                "end_time": 9.3886364,
                "pitch": 38,
                "velocity": 101,
                "duration": 0.0136364,
                "tempo": 120.0
            },
            {
                "start_time": 9.475,
                "end_time": 9.4886364,
                "pitch": 40,
                "velocity": 101,
                "duration": 0.0136364,
                "tempo": 120.0
            },
            {
                "start_time": 9.575,
                "end_time": 9.5886364,
                "pitch": 28,
                "velocity": 101,
                "duration": 0.0136364,
                "tempo": 120.0
            },
            {
                "start_time": 9.6772727,
                "end_time": 9.7045455,
                "pitch": 38,
                "velocity": 101,
                "duration": 0.0272727,
                "tempo": 120.0
            },
            {
                "start_time": 9.8772727,
                "end_time": 9.8886364,
                "pitch": 28,
                "velocity": 101,
                "duration": 0.0113636,
                "tempo": 120.0
            },
            {
                "start_time": 9.9795455,
                "end_time": 9.9909091,
                "pitch": 38,
                "velocity": 101,
                "duration": 0.0113636,
                "tempo": 120.0
            },
            {
                "start_time": 10.0795455,
                "end_time": 10.0909091,
                "pitch": 28,
                "velocity": 101,
                "duration": 0.0113636,
                "tempo": 120.0
            },
            {
                "start_time": 10.1795455,
                "end_time": 10.2090909,
                "pitch": 37,
                "velocity": 101,
                "duration": 0.0295455,
                "tempo": 120.0
            },
            {
                "start_time": 10.3795455,
                "end_time": 10.3931818,
                "pitch": 28,
                "velocity": 101,
                "duration": 0.0136364,
                "tempo": 120.0
            },
            {
                "start_time": 10.4840909,
                "end_time": 10.5113636,
                "pitch": 38,
                "velocity": 101,
                "duration": 0.0272727,
                "tempo": 120.0
            },
            {
                "start_time": 10.6863636,
                "end_time": 10.7,
                "pitch": 28,
                "velocity": 101,
                "duration": 0.0136364,
                "tempo": 120.0
            },
            {
                "start_time": 10.7909091,
                "end_time": 10.8045455,
                "pitch": 38,
                "velocity": 101,
                "duration": 0.0136364,
                "tempo": 120.0
            },
            {
                "start_time": 10.8931818,
                "end_time": 10.9068182,
                "pitch": 28,
                "velocity": 101,
                "duration": 0.0136364,
                "tempo": 120.0
            },
            {
                "start_time": 10.9977273,
                "end_time": 11.0090909,
                "pitch": 37,
                "velocity": 101,
                "duration": 0.0113636,
                "tempo": 120.0
            },
            {
                "start_time": 11.1,
                "end_time": 11.1113636,
                "pitch": 28,
                "velocity": 101,
                "duration": 0.0113636,
                "tempo": 120.0
            },
            {
                "start_time": 11.2022727,
                "end_time": 11.2159091,
                "pitch": 38,
                "velocity": 101,
                "duration": 0.0136364,
                "tempo": 120.0
            },
            {
                "start_time": 11.3045455,
                "end_time": 11.3159091,
                "pitch": 28,
                "velocity": 101,
                "duration": 0.0113636,
                "tempo": 120.0
            },
            {
                "start_time": 11.4,
                "end_time": 11.4113636,
                "pitch": 37,
                "velocity": 101,
                "duration": 0.0113636,
                "tempo": 120.0
            },
            {
                "start_time": 11.4954545,
                "end_time": 11.5068182,
                "pitch": 28,
                "velocity": 101,
                "duration": 0.0113636,
                "tempo": 120.0
            },
            {
                "start_time": 11.5909091,
                "end_time": 11.6022727,
                "pitch": 35,
                "velocity": 101,
                "duration": 0.0113636,
                "tempo": 120.0
            },
            {
                "start_time": 11.6886364,
                "end_time": 11.7340909,
                "pitch": 33,
                "velocity": 101,
                "duration": 0.0454545,
                "tempo": 120.0
            },
            {
                "start_time": 11.9954545,
                "end_time": 12.0431818,
                "pitch": 28,
                "velocity": 101,
                "duration": 0.0477273,
                "tempo": 120.0
            },
            {
                "start_time": 12.3,
                "end_time": 12.3136364,
                "pitch": 40,
                "velocity": 101,
                "duration": 0.0136364,
                "tempo": 120.0
            },
            {
                "start_time": 12.3977273,
                "end_time": 12.4136364,
                "pitch": 28,
                "velocity": 101,
                "duration": 0.0159091,
                "tempo": 120.0
            },
            {
                "start_time": 12.5022727,
                "end_time": 12.5136364,
                "pitch": 40,
                "velocity": 101,
                "duration": 0.0113636,
                "tempo": 120.0
            },
            {
                "start_time": 12.6045455,
                "end_time": 12.6181818,
                "pitch": 38,
                "velocity": 101,
                "duration": 0.0136364,
                "tempo": 120.0
            },
            {
                "start_time": 12.7068182,
                "end_time": 12.7204545,
                "pitch": 40,
                "velocity": 101,
                "duration": 0.0136364,
                "tempo": 120.0
            },
            {
                "start_time": 12.8090909,
                "end_time": 12.8227273,
                "pitch": 28,
                "velocity": 101,
                "duration": 0.0136364,
                "tempo": 120.0
            },
            {
                "start_time": 12.9136364,
                "end_time": 12.9431818,
                "pitch": 38,
                "velocity": 101,
                "duration": 0.0295455,
                "tempo": 120.0
            },
            {
                "start_time": 13.1136364,
                "end_time": 13.1272727,
                "pitch": 28,
                "velocity": 101,
                "duration": 0.0136364,
                "tempo": 120.0
            },
            {
                "start_time": 13.2159091,
                "end_time": 13.2295455,
                "pitch": 38,
                "velocity": 101,
                "duration": 0.0136364,
                "tempo": 120.0
            },
            {
                "start_time": 13.3159091,
                "end_time": 13.3295455,
                "pitch": 28,
                "velocity": 101,
                "duration": 0.0136364,
                "tempo": 120.0
            },
            {
                "start_time": 13.4159091,
                "end_time": 13.4431818,
                "pitch": 37,
                "velocity": 101,
                "duration": 0.0272727,
                "tempo": 120.0
            },
            {
                "start_time": 13.6090909,
                "end_time": 13.6227273,
                "pitch": 28,
                "velocity": 101,
                "duration": 0.0136364,
                "tempo": 120.0
            },
            {
                "start_time": 13.7090909,
                "end_time": 13.7386364,
                "pitch": 38,
                "velocity": 101,
                "duration": 0.0295455,
                "tempo": 120.0
            },
            {
                "start_time": 13.9136364,
                "end_time": 13.9272727,
                "pitch": 28,
                "velocity": 101,
                "duration": 0.0136364,
                "tempo": 120.0
            },
            {
                "start_time": 14.0181818,
                "end_time": 14.0295455,
                "pitch": 38,
                "velocity": 101,
                "duration": 0.0113636,
                "tempo": 120.0
            },
            {
                "start_time": 14.1204545,
                "end_time": 14.1318182,
                "pitch": 28,
                "velocity": 101,
                "duration": 0.0113636,
                "tempo": 120.0
            },
            {
                "start_time": 14.2181818,
                "end_time": 14.2318182,
                "pitch": 37,
                "velocity": 101,
                "duration": 0.0136364,
                "tempo": 120.0
            },
            {
                "start_time": 14.3159091,
                "end_time": 14.3295455,
                "pitch": 28,
                "velocity": 101,
                "duration": 0.0136364,
                "tempo": 120.0
            },
            {
                "start_time": 14.4159091,
                "end_time": 14.4272727,
                "pitch": 32,
                "velocity": 101,
                "duration": 0.0113636,
                "tempo": 120.0
            },
            {
                "start_time": 14.5113636,
                "end_time": 14.525,
                "pitch": 28,
                "velocity": 101,
                "duration": 0.0136364,
                "tempo": 120.0
            },
            {
                "start_time": 14.6181818,
                "end_time": 14.6272727,
                "pitch": 33,
                "velocity": 101,
                "duration": 0.0090909,
                "tempo": 120.0
            },
            {
                "start_time": 14.7204545,
                "end_time": 14.7318182,
                "pitch": 28,
                "velocity": 101,
                "duration": 0.0113636,
                "tempo": 120.0
            },
            {
                "start_time": 14.8204545,
                "end_time": 14.8340909,
                "pitch": 35,
                "velocity": 101,
                "duration": 0.0136364,
                "tempo": 120.0
            },
            {
                "start_time": 14.925,
                "end_time": 14.9545455,
                "pitch": 38,
                "velocity": 101,
                "duration": 0.0295455,
                "tempo": 120.0
            },
            {
                "start_time": 15.1272727,
                "end_time": 15.1386364,
                "pitch": 28,
                "velocity": 101,
                "duration": 0.0113636,
                "tempo": 120.0
            },
            {
                "start_time": 15.2272727,
                "end_time": 15.2727273,
                "pitch": 28,
                "velocity": 101,
                "duration": 0.0454545,
                "tempo": 120.0
            },
            {
                "start_time": 15.525,
                "end_time": 15.5363636,
                "pitch": 40,
                "velocity": 101,
                "duration": 0.0113636,
                "tempo": 120.0
            },
            {
                "start_time": 15.6181818,
                "end_time": 15.6340909,
                "pitch": 28,
                "velocity": 101,
                "duration": 0.0159091,
                "tempo": 120.0
            },
            {
                "start_time": 15.7204545,
                "end_time": 15.7318182,
                "pitch": 40,
                "velocity": 101,
                "duration": 0.0113636,
                "tempo": 120.0
            },
            {
                "start_time": 15.8227273,
                "end_time": 15.8340909,
                "pitch": 38,
                "velocity": 101,
                "duration": 0.0113636,
                "tempo": 120.0
            },
            {
                "start_time": 15.9227273,
                "end_time": 15.9340909,
                "pitch": 40,
                "velocity": 101,
                "duration": 0.0113636,
                "tempo": 120.0
            },
            {
                "start_time": 16.0227273,
                "end_time": 16.0340909,
                "pitch": 28,
                "velocity": 101,
                "duration": 0.0113636,
                "tempo": 120.0
            },
            {
                "start_time": 16.125,
                "end_time": 16.1522727,
                "pitch": 38,
                "velocity": 101,
                "duration": 0.0272727,
                "tempo": 120.0
            },
            {
                "start_time": 16.325,
                "end_time": 16.3386364,
                "pitch": 28,
                "velocity": 101,
                "duration": 0.0136364,
                "tempo": 120.0
            },
            {
                "start_time": 16.4272727,
                "end_time": 16.4386364,
                "pitch": 38,
                "velocity": 101,
                "duration": 0.0113636,
                "tempo": 120.0
            },
            {
                "start_time": 16.5272727,
                "end_time": 16.5386364,
                "pitch": 28,
                "velocity": 101,
                "duration": 0.0113636,
                "tempo": 120.0
            },
            {
                "start_time": 16.6295455,
                "end_time": 16.6590909,
                "pitch": 37,
                "velocity": 101,
                "duration": 0.0295455,
                "tempo": 120.0
            },
            {
                "start_time": 16.8340909,
                "end_time": 16.8477273,
                "pitch": 28,
                "velocity": 101,
                "duration": 0.0136364,
                "tempo": 120.0
            },
            {
                "start_time": 16.9386364,
                "end_time": 16.9681818,
                "pitch": 38,
                "velocity": 101,
                "duration": 0.0295455,
                "tempo": 120.0
            },
            {
                "start_time": 17.1386364,
                "end_time": 17.1522727,
                "pitch": 28,
                "velocity": 101,
                "duration": 0.0136364,
                "tempo": 120.0
            },
            {
                "start_time": 17.2409091,
                "end_time": 17.2522727,
                "pitch": 38,
                "velocity": 101,
                "duration": 0.0113636,
                "tempo": 120.0
            },
            {
                "start_time": 17.3409091,
                "end_time": 17.3545455,
                "pitch": 28,
                "velocity": 101,
                "duration": 0.0136364,
                "tempo": 120.0
            },
            {
                "start_time": 17.4454545,
                "end_time": 17.4568182,
                "pitch": 37,
                "velocity": 101,
                "duration": 0.0113636,
                "tempo": 120.0
            },
            {
                "start_time": 17.5477273,
                "end_time": 17.5590909,
                "pitch": 28,
                "velocity": 101,
                "duration": 0.0113636,
                "tempo": 120.0
            },
            {
                "start_time": 17.65,
                "end_time": 17.6636364,
                "pitch": 38,
                "velocity": 101,
                "duration": 0.0136364,
                "tempo": 120.0
            },
            {
                "start_time": 17.7522727,
                "end_time": 17.7636364,
                "pitch": 28,
                "velocity": 101,
                "duration": 0.0113636,
                "tempo": 120.0
            },
            {
                "start_time": 17.8477273,
                "end_time": 17.8590909,
                "pitch": 37,
                "velocity": 101,
                "duration": 0.0113636,
                "tempo": 120.0
            },
            {
                "start_time": 17.9431818,
                "end_time": 17.9545455,
                "pitch": 28,
                "velocity": 101,
                "duration": 0.0113636,
                "tempo": 120.0
            },
            {
                "start_time": 18.0386364,
                "end_time": 18.05,
                "pitch": 35,
                "velocity": 101,
                "duration": 0.0113636,
                "tempo": 120.0
            },
            {
                "start_time": 18.1363636,
                "end_time": 18.1818182,
                "pitch": 33,
                "velocity": 101,
                "duration": 0.0454545,
                "tempo": 120.0
            },
            {
                "start_time": 18.4363636,
                "end_time": 18.4840909,
                "pitch": 28,
                "velocity": 101,
                "duration": 0.0477273,
                "tempo": 120.0
            },
            {
                "start_time": 18.7454545,
                "end_time": 18.7568182,
                "pitch": 40,
                "velocity": 101,
                "duration": 0.0113636,
                "tempo": 120.0
            },
            {
                "start_time": 18.8431818,
                "end_time": 18.8590909,
                "pitch": 28,
                "velocity": 101,
                "duration": 0.0159091,
                "tempo": 120.0
            },
            {
                "start_time": 18.95,
                "end_time": 18.9636364,
                "pitch": 40,
                "velocity": 101,
                "duration": 0.0136364,
                "tempo": 120.0
            },
            {
                "start_time": 19.0545455,
                "end_time": 19.0659091,
                "pitch": 38,
                "velocity": 101,
                "duration": 0.0113636,
                "tempo": 120.0
            },
            {
                "start_time": 19.1568182,
                "end_time": 19.1681818,
                "pitch": 40,
                "velocity": 101,
                "duration": 0.0113636,
                "tempo": 120.0
            },
            {
                "start_time": 19.2590909,
                "end_time": 19.2704545,
                "pitch": 28,
                "velocity": 101,
                "duration": 0.0113636,
                "tempo": 120.0
            },
            {
                "start_time": 19.3613636,
                "end_time": 19.3886364,
                "pitch": 38,
                "velocity": 101,
                "duration": 0.0272727,
                "tempo": 120.0
            },
            {
                "start_time": 19.5522727,
                "end_time": 19.5636364,
                "pitch": 28,
                "velocity": 101,
                "duration": 0.0113636,
                "tempo": 120.0
            },
            {
                "start_time": 19.6477273,
                "end_time": 19.6590909,
                "pitch": 38,
                "velocity": 101,
                "duration": 0.0113636,
                "tempo": 120.0
            },
            {
                "start_time": 19.7431818,
                "end_time": 19.7568182,
                "pitch": 28,
                "velocity": 101,
                "duration": 0.0136364,
                "tempo": 120.0
            },
            {
                "start_time": 19.8454545,
                "end_time": 19.8727273,
                "pitch": 40,
                "velocity": 101,
                "duration": 0.0272727,
                "tempo": 120.0
            },
            {
                "start_time": 20.0431818,
                "end_time": 20.0568182,
                "pitch": 28,
                "velocity": 101,
                "duration": 0.0136364,
                "tempo": 120.0
            },
            {
                "start_time": 20.1454545,
                "end_time": 20.175,
                "pitch": 38,
                "velocity": 101,
                "duration": 0.0295455,
                "tempo": 120.0
            },
            {
                "start_time": 20.35,
                "end_time": 20.3636364,
                "pitch": 28,
                "velocity": 101,
                "duration": 0.0136364,
                "tempo": 120.0
            },
            {
                "start_time": 20.4545455,
                "end_time": 20.4659091,
                "pitch": 38,
                "velocity": 101,
                "duration": 0.0113636,
                "tempo": 120.0
            },
            {
                "start_time": 20.5545455,
                "end_time": 20.5681818,
                "pitch": 28,
                "velocity": 101,
                "duration": 0.0136364,
                "tempo": 120.0
            },
            {
                "start_time": 20.6590909,
                "end_time": 20.6727273,
                "pitch": 37,
                "velocity": 101,
                "duration": 0.0136364,
                "tempo": 120.0
            },
            {
                "start_time": 20.7613636,
                "end_time": 20.775,
                "pitch": 28,
                "velocity": 101,
                "duration": 0.0136364,
                "tempo": 120.0
            },
            {
                "start_time": 20.8659091,
                "end_time": 20.8772727,
                "pitch": 32,
                "velocity": 101,
                "duration": 0.0113636,
                "tempo": 120.0
            },
            {
                "start_time": 20.9659091,
                "end_time": 20.9772727,
                "pitch": 28,
                "velocity": 101,
                "duration": 0.0113636,
                "tempo": 120.0
            },
            {
                "start_time": 21.0636364,
                "end_time": 21.075,
                "pitch": 33,
                "velocity": 101,
                "duration": 0.0113636,
                "tempo": 120.0
            },
            {
                "start_time": 21.1590909,
                "end_time": 21.1704545,
                "pitch": 28,
                "velocity": 101,
                "duration": 0.0113636,
                "tempo": 120.0
            },
            {
                "start_time": 21.2545455,
                "end_time": 21.2659091,
                "pitch": 35,
                "velocity": 101,
                "duration": 0.0113636,
                "tempo": 120.0
            },
            {
                "start_time": 21.35,
                "end_time": 21.3795455,
                "pitch": 38,
                "velocity": 101,
                "duration": 0.0295455,
                "tempo": 120.0
            },
            {
                "start_time": 21.5613636,
                "end_time": 21.5727273,
                "pitch": 28,
                "velocity": 101,
                "duration": 0.0113636,
                "tempo": 120.0
            },
            {
                "start_time": 21.6659091,
                "end_time": 21.7136364,
                "pitch": 28,
                "velocity": 101,
                "duration": 0.0477273,
                "tempo": 120.0
            },
            {
                "start_time": 21.9681818,
                "end_time": 21.9795455,
                "pitch": 40,
                "velocity": 101,
                "duration": 0.0113636,
                "tempo": 120.0
            },
            {
                "start_time": 22.0636364,
                "end_time": 22.0772727,
                "pitch": 28,
                "velocity": 101,
                "duration": 0.0136364,
                "tempo": 120.0
            },
            {
                "start_time": 22.1636364,
                "end_time": 22.1772727,
                "pitch": 40,
                "velocity": 101,
                "duration": 0.0136364,
                "tempo": 120.0
            },
            {
                "start_time": 22.2659091,
                "end_time": 22.2772727,
                "pitch": 38,
                "velocity": 101,
                "duration": 0.0113636,
                "tempo": 120.0
            },
            {
                "start_time": 22.3636364,
                "end_time": 22.3772727,
                "pitch": 40,
                "velocity": 101,
                "duration": 0.0136364,
                "tempo": 120.0
            },
            {
                "start_time": 22.4636364,
                "end_time": 22.4772727,
                "pitch": 28,
                "velocity": 101,
                "duration": 0.0136364,
                "tempo": 120.0
            },
            {
                "start_time": 22.5659091,
                "end_time": 22.5931818,
                "pitch": 38,
                "velocity": 101,
                "duration": 0.0272727,
                "tempo": 120.0
            },
            {
                "start_time": 22.7636364,
                "end_time": 22.7772727,
                "pitch": 28,
                "velocity": 101,
                "duration": 0.0136364,
                "tempo": 120.0
            },
            {
                "start_time": 22.8659091,
                "end_time": 22.8772727,
                "pitch": 38,
                "velocity": 101,
                "duration": 0.0113636,
                "tempo": 120.0
            },
            {
                "start_time": 22.9659091,
                "end_time": 22.9772727,
                "pitch": 28,
                "velocity": 101,
                "duration": 0.0113636,
                "tempo": 120.0
            },
            {
                "start_time": 23.0659091,
                "end_time": 23.0954545,
                "pitch": 37,
                "velocity": 101,
                "duration": 0.0295455,
                "tempo": 120.0
            },
            {
                "start_time": 23.2659091,
                "end_time": 23.2795455,
                "pitch": 28,
                "velocity": 101,
                "duration": 0.0136364,
                "tempo": 120.0
            },
            {
                "start_time": 23.3704545,
                "end_time": 23.3977273,
                "pitch": 38,
                "velocity": 101,
                "duration": 0.0272727,
                "tempo": 120.0
            },
            {
                "start_time": 23.575,
                "end_time": 23.5863636,
                "pitch": 28,
                "velocity": 101,
                "duration": 0.0113636,
                "tempo": 120.0
            },
            {
                "start_time": 23.6772727,
                "end_time": 23.6909091,
                "pitch": 38,
                "velocity": 101,
                "duration": 0.0136364,
                "tempo": 120.0
            },
            {
                "start_time": 23.7795455,
                "end_time": 23.7909091,
                "pitch": 28,
                "velocity": 101,
                "duration": 0.0113636,
                "tempo": 120.0
            },
            {
                "start_time": 23.8795455,
                "end_time": 23.8909091,
                "pitch": 37,
                "velocity": 101,
                "duration": 0.0113636,
                "tempo": 120.0
            },
            {
                "start_time": 23.975,
                "end_time": 23.9886364,
                "pitch": 28,
                "velocity": 101,
                "duration": 0.0136364,
                "tempo": 120.0
            },
            {
                "start_time": 24.075,
                "end_time": 24.0863636,
                "pitch": 38,
                "velocity": 101,
                "duration": 0.0113636,
                "tempo": 120.0
            },
            {
                "start_time": 24.1727273,
                "end_time": 24.1840909,
                "pitch": 28,
                "velocity": 101,
                "duration": 0.0113636,
                "tempo": 120.0
            },
            {
                "start_time": 24.2727273,
                "end_time": 24.2863636,
                "pitch": 37,
                "velocity": 101,
                "duration": 0.0136364,
                "tempo": 120.0
            },
            {
                "start_time": 24.3727273,
                "end_time": 24.3840909,
                "pitch": 28,
                "velocity": 101,
                "duration": 0.0113636,
                "tempo": 120.0
            },
            {
                "start_time": 24.4727273,
                "end_time": 24.4863636,
                "pitch": 35,
                "velocity": 101,
                "duration": 0.0136364,
                "tempo": 120.0
            },
            {
                "start_time": 24.5727273,
                "end_time": 24.6204545,
                "pitch": 33,
                "velocity": 101,
                "duration": 0.0477273,
                "tempo": 120.0
            },
            {
                "start_time": 24.8818182,
                "end_time": 24.9295455,
                "pitch": 28,
                "velocity": 101,
                "duration": 0.0477273,
                "tempo": 120.0
            },
            {
                "start_time": 25.1863636,
                "end_time": 25.1977273,
                "pitch": 40,
                "velocity": 101,
                "duration": 0.0113636,
                "tempo": 120.0
            },
            {
                "start_time": 25.2818182,
                "end_time": 25.2977273,
                "pitch": 28,
                "velocity": 101,
                "duration": 0.0159091,
                "tempo": 120.0
            },
            {
                "start_time": 25.3840909,
                "end_time": 25.3977273,
                "pitch": 40,
                "velocity": 101,
                "duration": 0.0136364,
                "tempo": 120.0
            },
            {
                "start_time": 25.4840909,
                "end_time": 25.4954545,
                "pitch": 38,
                "velocity": 101,
                "duration": 0.0113636,
                "tempo": 120.0
            },
            {
                "start_time": 25.5818182,
                "end_time": 25.5931818,
                "pitch": 40,
                "velocity": 101,
                "duration": 0.0113636,
                "tempo": 120.0
            },
            {
                "start_time": 25.6795455,
                "end_time": 25.6909091,
                "pitch": 28,
                "velocity": 101,
                "duration": 0.0113636,
                "tempo": 120.0
            },
            {
                "start_time": 25.7795455,
                "end_time": 25.8068182,
                "pitch": 38,
                "velocity": 101,
                "duration": 0.0272727,
                "tempo": 120.0
            },
            {
                "start_time": 25.9840909,
                "end_time": 25.9954545,
                "pitch": 28,
                "velocity": 101,
                "duration": 0.0113636,
                "tempo": 120.0
            },
            {
                "start_time": 26.0863636,
                "end_time": 26.1,
                "pitch": 38,
                "velocity": 101,
                "duration": 0.0136364,
                "tempo": 120.0
            },
            {
                "start_time": 26.1886364,
                "end_time": 26.2022727,
                "pitch": 28,
                "velocity": 101,
                "duration": 0.0136364,
                "tempo": 120.0
            },
            {
                "start_time": 26.2909091,
                "end_time": 26.3181818,
                "pitch": 37,
                "velocity": 101,
                "duration": 0.0272727,
                "tempo": 120.0
            },
            {
                "start_time": 26.4909091,
                "end_time": 26.5045455,
                "pitch": 28,
                "velocity": 101,
                "duration": 0.0136364,
                "tempo": 120.0
            },
            {
                "start_time": 26.5931818,
                "end_time": 26.6227273,
                "pitch": 38,
                "velocity": 101,
                "duration": 0.0295455,
                "tempo": 120.0
            },
            {
                "start_time": 26.7931818,
                "end_time": 26.8045455,
                "pitch": 28,
                "velocity": 101,
                "duration": 0.0113636,
                "tempo": 120.0
            },
            {
                "start_time": 26.8931818,
                "end_time": 26.9045455,
                "pitch": 38,
                "velocity": 101,
                "duration": 0.0113636,
                "tempo": 120.0
            },
            {
                "start_time": 26.9931818,
                "end_time": 27.0045455,
                "pitch": 28,
                "velocity": 101,
                "duration": 0.0113636,
                "tempo": 120.0
            },
            {
                "start_time": 27.0931818,
                "end_time": 27.1045455,
                "pitch": 37,
                "velocity": 101,
                "duration": 0.0113636,
                "tempo": 120.0
            },
            {
                "start_time": 27.1931818,
                "end_time": 27.2045455,
                "pitch": 28,
                "velocity": 101,
                "duration": 0.0113636,
                "tempo": 120.0
            },
            {
                "start_time": 27.2931818,
                "end_time": 27.3068182,
                "pitch": 32,
                "velocity": 101,
                "duration": 0.0136364,
                "tempo": 120.0
            },
            {
                "start_time": 27.3931818,
                "end_time": 27.4068182,
                "pitch": 28,
                "velocity": 101,
                "duration": 0.0136364,
                "tempo": 120.0
            },
            {
                "start_time": 27.4954545,
                "end_time": 27.5090909,
                "pitch": 33,
                "velocity": 101,
                "duration": 0.0136364,
                "tempo": 120.0
            },
            {
                "start_time": 27.6,
                "end_time": 27.6113636,
                "pitch": 28,
                "velocity": 101,
                "duration": 0.0113636,
                "tempo": 120.0
            },
            {
                "start_time": 27.7,
                "end_time": 27.7136364,
                "pitch": 35,
                "velocity": 101,
                "duration": 0.0136364,
                "tempo": 120.0
            },
            {
                "start_time": 27.8068182,
                "end_time": 27.8340909,
                "pitch": 38,
                "velocity": 101,
                "duration": 0.0272727,
                "tempo": 120.0
            },
            {
                "start_time": 28.0068182,
                "end_time": 28.0181818,
                "pitch": 28,
                "velocity": 101,
                "duration": 0.0113636,
                "tempo": 120.0
            },
            {
                "start_time": 28.1090909,
                "end_time": 28.1522727,
                "pitch": 28,
                "velocity": 101,
                "duration": 0.0431818,
                "tempo": 120.0
            },
            {
                "start_time": 28.4045455,
                "end_time": 28.4159091,
                "pitch": 40,
                "velocity": 101,
                "duration": 0.0113636,
                "tempo": 120.0
            }
        ]
    }
}