{
    "mood": "angry",
    "instruments": {
        "Harpsichord": [
            {
                "start_time": 29.0590909,
                "end_time": 29.2590909,
                "pitch": 53,
                "velocity": 80,
                "duration": 0.2,
                "tempo": 120.0
            },
            {
                "start_time": 29.2590909,
                "end_time": 29.4590909,
                "pitch": 57,
                "velocity": 80,
                "duration": 0.2,
                "tempo": 120.0
            },
            {
                "start_time": 29.4590909,
                "end_time": 29.6590909,
                "pitch": 59,
                "velocity": 80,
                "duration": 0.2,
                "tempo": 120.0
            },
            {
                "start_time": 29.6590909,
                "end_time": 29.8613636,
                "pitch": 57,
                "velocity": 80,
                "duration": 0.2022727,
                "tempo": 120.0
            },
            {
                "start_time": 29.8613636,
                "end_time": 30.0613636,
                "pitch": 59,
                "velocity": 80,
                "duration": 0.2,
                "tempo": 120.0
            },
            {
                "start_time": 30.0613636,
                "end_time": 30.2636364,
                "pitch": 62,
                "velocity": 80,
                "duration": 0.2022727,
                "tempo": 120.0
            },
            {
                "start_time": 30.2636364,
                "end_time": 30.4636364,
                "pitch": 59,
                "velocity": 80,
                "duration": 0.2,
                "tempo": 120.0
            },
            {
                "start_time": 30.0613636,
                "end_time": 30.4636364,
                "pitch": 65,
                "velocity": 80,
                "duration": 0.4022727,
                "tempo": 120.0
            },
            {
                "start_time": 30.4636364,
                "end_time": 30.6636364,
                "pitch": 62,
                "velocity": 80,
                "duration": 0.2,
                "tempo": 120.0
            },
            {
                "start_time": 30.6636364,
                "end_time": 32.2886364,
                "pitch": 64,
                "velocity": 80,
                "duration": 1.625,
                "tempo": 120.0
            },
            {
                "start_time": 32.3772727,
                "end_time": 32.5840909,
                "pitch": 76,
                "velocity": 64,
                "duration": 0.2068182,
                "tempo": 120.0
            },
            {
                "start_time": 32.5840909,
                "end_time": 32.7840909,
                "pitch": 76,
                "velocity": 80,
                "duration": 0.2,
                "tempo": 120.0
            },
            {
                "start_time": 32.7840909,
                "end_time": 32.9886364,
                "pitch": 76,
                "velocity": 80,
                "duration": 0.2045455,
                "tempo": 120.0
            },
            {
                "start_time": 32.9886364,
                "end_time": 33.1863636,
                "pitch": 76,
                "velocity": 101,
                "duration": 0.1977273,
                "tempo": 120.0
            },
            {
                "start_time": 33.1863636,
                "end_time": 33.3886364,
                "pitch": 76,
                "velocity": 101,
                "duration": 0.2022727,
                "tempo": 120.0
            },
            {
                "start_time": 33.3886364,
                "end_time": 33.5863636,
                "pitch": 76,
                "velocity": 127,
                "duration": 0.1977273,
                "tempo": 120.0
            },
            {
                "start_time": 33.5863636,
                "end_time": 33.7886364,
                "pitch": 76,
                "velocity": 127,
                "duration": 0.2022727,
                "tempo": 120.0
            },
            {
                "start_time": 33.7886364,
                "end_time": 33.8522727,
                "pitch": 76,
                "velocity": 127,
                "duration": 0.0636364,
                "tempo": 120.0
            },
            {
                "start_time": 33.8886364,
                "end_time": 33.9886364,
                "pitch": 74,
                "velocity": 127,
                "duration": 0.1,
                "tempo": 120.0
            },
            {
                "start_time": 33.9886364,
                "end_time": 34.1886364,
                "pitch": 71,
                "velocity": 127,
                "duration": 0.2,
                "tempo": 120.0
            },
            {
                "start_time": 34.1886364,
                "end_time": 34.3886364,
                "pitch": 71,
                "velocity": 127,
                "duration": 0.2,
                "tempo": 120.0
            },
            {
                "start_time": 34.3886364,
                "end_time": 34.5886364,
                "pitch": 71,
                "velocity": 127,
                "duration": 0.2,
                "tempo": 120.0
            },
            {
                "start_time": 34.5886364,
                "end_time": 34.6386364,
                "pitch": 71,
                "velocity": 127,
                "duration": 0.05,
                "tempo": 120.0
            },
            {
                "start_time": 34.6386364,
                "end_time": 34.6545455,
                "pitch": 72,
                "velocity": 127,
                "duration": 0.0159091,
                "tempo": 120.0
            },
            {
                "start_time": 34.6909091,
                "end_time": 34.7909091,
                "pitch": 69,
                "velocity": 127,
                "duration": 0.1,
                "tempo": 120.0
            },
            {
                "start_time": 30.4636364,
                "end_time": 34.9931818,
                "pitch": 65,
                "velocity": 80,
                "duration": 4.5295455,
                "tempo": 120.0
            },
            {
                "start_time": 34.7909091,
                "end_time": 34.9931818,
                "pitch": 65,
                "velocity": 127,
                "duration": 0.2022727,
                "tempo": 120.0
            },
            {
                "start_time": 34.9931818,
                "end_time": 35.1931818,
                "pitch": 65,
                "velocity": 127,
                "duration": 0.2,
                "tempo": 120.0
            },
            {
                "start_time": 35.1931818,
                "end_time": 35.3954545,
                "pitch": 65,
                "velocity": 127,
                "duration": 0.2022727,
                "tempo": 120.0
            },
            {
                "start_time": 34.6386364,
                "end_time": 35.4568182,
                "pitch": 76,
                "velocity": 127,
                "duration": 0.8181818,
                "tempo": 120.0
            },
            {
                "start_time": 35.3954545,
                "end_time": 35.4568182,
                "pitch": 76,
                "velocity": 127,
                "duration": 0.0613636,
                "tempo": 120.0
            },
            {
                "start_time": 33.9886364,
                "end_time": 35.5931818,
                "pitch": 56,
                "velocity": 127,
                "duration": 1.6045455,
                "tempo": 120.0
            },
            {
                "start_time": 35.4931818,
                "end_time": 35.5931818,
                "pitch": 74,
                "velocity": 127,
                "duration": 0.1,
                "tempo": 120.0
            },
            {
                "start_time": 35.5931818,
                "end_time": 35.7931818,
                "pitch": 71,
                "velocity": 127,
                "duration": 0.2,
                "tempo": 120.0
            },
            {
                "start_time": 35.7931818,
                "end_time": 35.9931818,
                "pitch": 71,
                "velocity": 127,
                "duration": 0.2,
                "tempo": 120.0
            },
            {
                "start_time": 35.9931818,
                "end_time": 36.1931818,
                "pitch": 71,
                "velocity": 127,
                "duration": 0.2,
                "tempo": 120.0
            },
            {
                "start_time": 36.1931818,
                "end_time": 36.2431818,
                "pitch": 71,
                "velocity": 127,
                "duration": 0.05,
                "tempo": 120.0
            },
            {
                "start_time": 36.2431818,
                "end_time": 36.2590909,
                "pitch": 72,
                "velocity": 127,
                "duration": 0.0159091,
                "tempo": 120.0
            },
            {
                "start_time": 36.2931818,
                "end_time": 36.3931818,
                "pitch": 69,
                "velocity": 127,
                "duration": 0.1,
                "tempo": 120.0
            },
            {
                "start_time": 34.7909091,
                "end_time": 36.3931818,
                "pitch": 78,
                "velocity": 127,
                "duration": 1.6022727,
                "tempo": 120.0
            },
            {
                "start_time": 36.3931818,
                "end_time": 36.5931818,
                "pitch": 65,
                "velocity": 127,
                "duration": 0.2,
                "tempo": 120.0
            },
            {
                "start_time": 36.5954545,
                "end_time": 36.7954545,
                "pitch": 65,
                "velocity": 127,
                "duration": 0.2,
                "tempo": 120.0
            },
            {
                "start_time": 36.7954545,
                "end_time": 37.0,
                "pitch": 65,
                "velocity": 127,
                "duration": 0.2045455,
                "tempo": 120.0
            },
            {
                "start_time": 36.2431818,
                "end_time": 37.0795455,
                "pitch": 76,
                "velocity": 127,
                "duration": 0.8363636,
                "tempo": 120.0
            },
            {
                "start_time": 37.0,
                "end_time": 37.0795455,
                "pitch": 76,
                "velocity": 127,
                "duration": 0.0795455,
                "tempo": 120.0
            },
            {
                "start_time": 37.1,
                "end_time": 37.1840909,
                "pitch": 74,
                "velocity": 127,
                "duration": 0.0840909,
                "tempo": 120.0
            },
            {
                "start_time": 37.2022727,
                "end_time": 37.3886364,
                "pitch": 71,
                "velocity": 127,
                "duration": 0.1863636,
                "tempo": 120.0
            },
            {
                "start_time": 37.4090909,
                "end_time": 37.4886364,
                "pitch": 71,
                "velocity": 127,
                "duration": 0.0795455,
                "tempo": 120.0
            },
            {
                "start_time": 37.5068182,
                "end_time": 37.5863636,
                "pitch": 69,
                "velocity": 127,
                "duration": 0.0795455,
                "tempo": 120.0
            },
            {
                "start_time": 37.6045455,
                "end_time": 37.7818182,
                "pitch": 65,
                "velocity": 127,
                "duration": 0.1772727,
                "tempo": 120.0
            },
            {
                "start_time": 37.8022727,
                "end_time": 37.8818182,
                "pitch": 76,
                "velocity": 127,
                "duration": 0.0795455,
                "tempo": 120.0
            },
            {
                "start_time": 37.9022727,
                "end_time": 37.9818182,
                "pitch": 74,
                "velocity": 127,
                "duration": 0.0795455,
                "tempo": 120.0
            },
            {
                "start_time": 38.0022727,
                "end_time": 38.1818182,
                "pitch": 71,
                "velocity": 127,
                "duration": 0.1795455,
                "tempo": 120.0
            },
            {
                "start_time": 38.2022727,
                "end_time": 38.2818182,
                "pitch": 71,
                "velocity": 127,
                "duration": 0.0795455,
                "tempo": 120.0
            },
            {
                "start_time": 38.3022727,
                "end_time": 38.3818182,
                "pitch": 69,
                "velocity": 127,
                "duration": 0.0795455,
                "tempo": 120.0
            },
            {
                "start_time": 38.4022727,
                "end_time": 38.5840909,
                "pitch": 65,
                "velocity": 127,
                "duration": 0.1818182,
                "tempo": 120.0
            },
            {
                "start_time": 38.6045455,
                "end_time": 38.7886364,
                "pitch": 64,
                "velocity": 127,
                "duration": 0.1840909,
                "tempo": 120.0
            },
            {
                "start_time": 38.8068182,
                "end_time": 38.8909091,
                "pitch": 65,
                "velocity": 127,
                "duration": 0.0840909,
                "tempo": 120.0
            },
            {
                "start_time": 38.9113636,
                "end_time": 38.9931818,
                "pitch": 65,
                "velocity": 127,
                "duration": 0.0818182,
                "tempo": 120.0
            },
            {
                "start_time": 39.0136364,
                "end_time": 39.1909091,
                "pitch": 69,
                "velocity": 127,
                "duration": 0.1772727,
                "tempo": 120.0
            },
            {
                "start_time": 39.2090909,
                "end_time": 39.3863636,
                "pitch": 65,
                "velocity": 127,
                "duration": 0.1772727,
                "tempo": 120.0
            },
            {
                "start_time": 39.4068182,
                "end_time": 39.5909091,
                "pitch": 69,
                "velocity": 127,
                "duration": 0.1840909,
                "tempo": 120.0
            },
            {
                "start_time": 39.6113636,
                "end_time": 39.6954545,
                "pitch": 71,
                "velocity": 127,
                "duration": 0.0840909,
                "tempo": 120.0
            },
            {
                "start_time": 39.7136364,
                "end_time": 39.7977273,
                "pitch": 71,
                "velocity": 127,
                "duration": 0.0840909,
                "tempo": 120.0
            },
            {
                "start_time": 39.8181818,
                "end_time": 39.9954545,
                "pitch": 72,
                "velocity": 127,
                "duration": 0.1772727,
                "tempo": 120.0
            },
            {
                "start_time": 40.0136364,
                "end_time": 40.1909091,
                "pitch": 71,
                "velocity": 127,
                "duration": 0.1772727,
                "tempo": 120.0
            },
            {
                "start_time": 40.2113636,
                "end_time": 40.3954545,
                "pitch": 72,
                "velocity": 127,
                "duration": 0.1840909,
                "tempo": 120.0
            },
            {
                "start_time": 40.4159091,
                "end_time": 40.4977273,
                "pitch": 76,
                "velocity": 127,
                "duration": 0.0818182,
                "tempo": 120.0
            },
            {
                "start_time": 40.5181818,
                "end_time": 40.6022727,
                "pitch": 76,
                "velocity": 127,
                "duration": 0.0840909,
                "tempo": 120.0
            },
            {
                "start_time": 40.6227273,
                "end_time": 40.8022727,
                "pitch": 77,
                "velocity": 127,
                "duration": 0.1795455,
                "tempo": 120.0
            },
            {
                "start_time": 40.8204545,
                "end_time": 41.0022727,
                "pitch": 76,
                "velocity": 127,
                "duration": 0.1818182,
                "tempo": 120.0
            },
            {
                "start_time": 41.0227273,
                "end_time": 41.1022727,
                "pitch": 72,
                "velocity": 127,
                "duration": 0.0795455,
                "tempo": 120.0
            },
            {
                "start_time": 41.1227273,
                "end_time": 41.2022727,
                "pitch": 72,
                "velocity": 127,
                "duration": 0.0795455,
                "tempo": 120.0
            },
            {
                "start_time": 41.2227273,
                "end_time": 41.3022727,
                "pitch": 71,
                "velocity": 127,
                "duration": 0.0795455,
                "tempo": 120.0
            },
            {
                "start_time": 41.3227273,
                "end_time": 41.4022727,
                "pitch": 71,
                "velocity": 127,
                "duration": 0.0795455,
                "tempo": 120.0
            },
            {
                "start_time": 41.4227273,
                "end_time": 41.6022727,
                "pitch": 69,
                "velocity": 127,
                "duration": 0.1795455,
                "tempo": 120.0
            },
            {
                "start_time": 41.6227273,
                "end_time": 41.8045455,
                "pitch": 65,
                "velocity": 127,
                "duration": 0.1818182,
                "tempo": 120.0
            },
            {
                "start_time": 41.825,
                "end_time": 42.0045455,
                "pitch": 64,
                "velocity": 127,
                "duration": 0.1795455,
                "tempo": 120.0
            },
            {
                "start_time": 42.0227273,
                "end_time": 42.1045455,
                "pitch": 65,
                "velocity": 127,
                "duration": 0.0818182,
                "tempo": 120.0
            },
            {
                "start_time": 42.1227273,
                "end_time": 42.2045455,
                "pitch": 65,
                "velocity": 127,
                "duration": 0.0818182,
                "tempo": 120.0
            },
            {
                "start_time": 42.225,
                "end_time": 42.4045455,
                "pitch": 64,
                "velocity": 127,
                "duration": 0.1795455,
                "tempo": 120.0
            },
            {
                "start_time": 42.425,
                "end_time": 42.5068182,
                "pitch": 65,
                "velocity": 127,
                "duration": 0.0818182,
                "tempo": 120.0
            },
            {
                "start_time": 42.525,
                "end_time": 42.6068182,
                "pitch": 65,
                "velocity": 127,
                "duration": 0.0818182,
                "tempo": 120.0
            },
            {
                "start_time": 42.6272727,
                "end_time": 42.8068182,
                "pitch": 64,
                "velocity": 127,
                "duration": 0.1795455,
                "tempo": 120.0
            },
            {
                "start_time": 42.8272727,
                "end_time": 42.9068182,
                "pitch": 65,
                "velocity": 127,
                "duration": 0.0795455,
                "tempo": 120.0
            },
            {
                "start_time": 42.9272727,
                "end_time": 43.0068182,
                "pitch": 65,
                "velocity": 127,
                "duration": 0.0795455,
                "tempo": 120.0
            },
            {
                "start_time": 43.0272727,
                "end_time": 43.1090909,
                "pitch": 64,
                "velocity": 127,
                "duration": 0.0818182,
                "tempo": 120.0
            },
            {
                "start_time": 43.1272727,
                "end_time": 43.2090909,
                "pitch": 64,
                "velocity": 127,
                "duration": 0.0818182,
                "tempo": 120.0
            },
            {
                "start_time": 43.2272727,
                "end_time": 43.3090909,
                "pitch": 60,
                "velocity": 127,
                "duration": 0.0818182,
                "tempo": 120.0
            },
            {
                "start_time": 43.3272727,
                "end_time": 43.4090909,
                "pitch": 60,
                "velocity": 127,
                "duration": 0.0818182,
                "tempo": 120.0
            },
            {
                "start_time": 43.4295455,
                "end_time": 43.475,
                "pitch": 59,
                "velocity": 127,
                "duration": 0.0454545,
                "tempo": 120.0
            },
            {
                "start_time": 43.475,
                "end_time": 43.575,
                "pitch": 60,
                "velocity": 127,
                "duration": 0.1,
                "tempo": 120.0
            },
            {
                "start_time": 30.2636364,
                "end_time": 43.5772727,
                "pitch": 44,
                "velocity": 80,
                "duration": 13.3136364,
                "tempo": 120.0
            },
            {
                "start_time": 43.575,
                "end_time": 43.5772727,
                "pitch": 44,
                "velocity": 127,
                "duration": 0.0022727,
                "tempo": 120.0
            },
            {
                "start_time": 43.5772727,
                "end_time": 43.6272727,
                "pitch": 59,
                "velocity": 127,
                "duration": 0.05,
                "tempo": 120.0
            },
            {
                "start_time": 43.6272727,
                "end_time": 43.6772727,
                "pitch": 59,
                "velocity": 127,
                "duration": 0.05,
                "tempo": 120.0
            },
            {
                "start_time": 43.475,
                "end_time": 43.6772727,
                "pitch": 64,
                "velocity": 127,
                "duration": 0.2022727,
                "tempo": 120.0
            },
            {
                "start_time": 43.6772727,
                "end_time": 43.7772727,
                "pitch": 60,
                "velocity": 127,
                "duration": 0.1,
                "tempo": 120.0
            },
            {
                "start_time": 43.7772727,
                "end_time": 43.8295455,
                "pitch": 59,
                "velocity": 127,
                "duration": 0.0522727,
                "tempo": 120.0
            },
            {
                "start_time": 43.8295455,
                "end_time": 43.8772727,
                "pitch": 59,
                "velocity": 101,
                "duration": 0.0477273,
                "tempo": 120.0
            },
            {
                "start_time": 43.6772727,
                "end_time": 43.8772727,
                "pitch": 64,
                "velocity": 127,
                "duration": 0.2,
                "tempo": 120.0
            },
            {
                "start_time": 43.7772727,
                "end_time": 43.9772727,
                "pitch": 44,
                "velocity": 127,
                "duration": 0.2,
                "tempo": 120.0
            },
            {
                "start_time": 43.8772727,
                "end_time": 43.9772727,
                "pitch": 60,
                "velocity": 101,
                "duration": 0.1,
                "tempo": 120.0
            },
            {
                "start_time": 43.9772727,
                "end_time": 44.0272727,
                "pitch": 59,
                "velocity": 101,
                "duration": 0.05,
                "tempo": 120.0
            },
            {
                "start_time": 44.0272727,
                "end_time": 44.0772727,
                "pitch": 59,
                "velocity": 101,
                "duration": 0.05,
                "tempo": 120.0
            },
            {
                "start_time": 43.8772727,
                "end_time": 44.0772727,
                "pitch": 64,
                "velocity": 101,
                "duration": 0.2,
                "tempo": 120.0
            },
            {
                "start_time": 43.9772727,
                "end_time": 44.1772727,
                "pitch": 44,
                "velocity": 101,
                "duration": 0.2,
                "tempo": 120.0
            },
            {
                "start_time": 44.0772727,
                "end_time": 44.1772727,
                "pitch": 60,
                "velocity": 101,
                "duration": 0.1,
                "tempo": 120.0
            },
            {
                "start_time": 44.1772727,
                "end_time": 44.2295455,
                "pitch": 59,
                "velocity": 101,
                "duration": 0.0522727,
                "tempo": 120.0
            },
            {
                "start_time": 44.2295455,
                "end_time": 44.2772727,
                "pitch": 59,
                "velocity": 80,
                "duration": 0.0477273,
                "tempo": 120.0
            },
            {
                "start_time": 44.0772727,
                "end_time": 44.2772727,
                "pitch": 64,
                "velocity": 101,
                "duration": 0.2,
                "tempo": 120.0
            },
            {
                "start_time": 44.1772727,
                "end_time": 44.3772727,
                "pitch": 44,
                "velocity": 101,
                "duration": 0.2,
                "tempo": 120.0
            },
            {
                "start_time": 44.2772727,
                "end_time": 44.3772727,
                "pitch": 60,
                "velocity": 80,
                "duration": 0.1,
                "tempo": 120.0
            },
            {
                "start_time": 44.3772727,
                "end_time": 44.4295455,
                "pitch": 59,
                "velocity": 80,
                "duration": 0.0522727,
                "tempo": 120.0
            },
            {
                "start_time": 44.4295455,
                "end_time": 44.4795455,
                "pitch": 59,
                "velocity": 80,
                "duration": 0.05,
                "tempo": 120.0
            },
            {
                "start_time": 44.2772727,
                "end_time": 44.4795455,
                "pitch": 64,
                "velocity": 80,
                "duration": 0.2022727,
                "tempo": 120.0
            },
            {
                "start_time": 44.3772727,
                "end_time": 44.5795455,
                "pitch": 44,
                "velocity": 80,
                "duration": 0.2022727,
                "tempo": 120.0
            },
            {
                "start_time": 44.4795455,
                "end_time": 44.5795455,
                "pitch": 60,
                "velocity": 80,
                "duration": 0.1,
                "tempo": 120.0
            },
            {
                "start_time": 44.5795455,
                "end_time": 44.6318182,
                "pitch": 59,
                "velocity": 80,
                "duration": 0.0522727,
                "tempo": 120.0
            },
            {
                "start_time": 44.6318182,
                "end_time": 44.6795455,
                "pitch": 59,
                "velocity": 64,
                "duration": 0.0477273,
                "tempo": 120.0
            },
            {
                "start_time": 44.4795455,
                "end_time": 44.6795455,
                "pitch": 64,
                "velocity": 80,
                "duration": 0.2,
                "tempo": 120.0
            },
            {
                "start_time": 44.5795455,
                "end_time": 44.7795455,
                "pitch": 44,
                "velocity": 80,
                "duration": 0.2,
                "tempo": 120.0
            },
            {
                "start_time": 44.6795455,
                "end_time": 44.7795455,
                "pitch": 60,
                "velocity": 64,
                "duration": 0.1,
                "tempo": 120.0
            },
            {
                "start_time": 44.7795455,
                "end_time": 44.8318182,
                "pitch": 59,
                "velocity": 64,
                "duration": 0.0522727,
                "tempo": 120.0
            },
            {
                "start_time": 44.8318182,
                "end_time": 44.8795455,
                "pitch": 59,
                "velocity": 64,
                "duration": 0.0477273,
                "tempo": 120.0
            },
            {
                "start_time": 44.6795455,
                "end_time": 44.8795455,
                "pitch": 64,
                "velocity": 64,
                "duration": 0.2,
                "tempo": 120.0
            },
            {
                "start_time": 44.7795455,
                "end_time": 44.9795455,
                "pitch": 44,
                "velocity": 64,
                "duration": 0.2,
                "tempo": 120.0
            },
            {
                "start_time": 44.8795455,
                "end_time": 44.9795455,
                "pitch": 60,
                "velocity": 64,
                "duration": 0.1,
                "tempo": 120.0
            },
            {
                "start_time": 44.9795455,
                "end_time": 64.4090909,
                "pitch": 59,
                "velocity": 64,
                "duration": 19.4295455,
                "tempo": 120.0
            }
        ],
        "Flute": [
            {
                "start_time": 6.7295455,
                "end_time": 8.1272727,
                "pitch": 95,
                "velocity": 80,
                "duration": 1.3977273,
                "tempo": 120.0
            },
            {
                "start_time": 8.1272727,
                "end_time": 8.3272727,
                "pitch": 93,
                "velocity": 80,
                "duration": 0.2,
                "tempo": 120.0
            },
            {
                "start_time": 8.3272727,
                "end_time": 9.3340909,
                "pitch": 88,
                "velocity": 80,
                "duration": 1.0068182,
                "tempo": 120.0
            },
            {
                "start_time": 9.3340909,
                "end_time": 9.5363636,
                "pitch": 81,
                "velocity": 80,
                "duration": 0.2022727,
                "tempo": 120.0
            },
            {
                "start_time": 9.5363636,
                "end_time": 9.7363636,
                "pitch": 83,
                "velocity": 80,
                "duration": 0.2,
                "tempo": 120.0
            },
            {
                "start_time": 9.7363636,
                "end_time": 9.9363636,
                "pitch": 86,
                "velocity": 80,
                "duration": 0.2,
                "tempo": 120.0
            },
            {
                "start_time": 9.7363636,
                "end_time": 9.9363636,
                "pitch": 89,
                "velocity": 80,
                "duration": 0.2,
                "tempo": 120.0
            },
            {
                "start_time": 9.9363636,
                "end_time": 10.9431818,
                "pitch": 89,
                "velocity": 80,
                "duration": 1.0068182,
                "tempo": 120.0
            },
            {
                "start_time": 9.9363636,
                "end_time": 10.9431818,
                "pitch": 89,
                "velocity": 80,
                "duration": 1.0068182,
                "tempo": 120.0
            },
            {
                "start_time": 10.9454545,
                "end_time": 11.1454545,
                "pitch": 88,
                "velocity": 80,
                "duration": 0.2,
                "tempo": 120.0
            },
            {
                "start_time": 11.1454545,
                "end_time": 11.3477273,
                "pitch": 86,
                "velocity": 80,
                "duration": 0.2022727,
                "tempo": 120.0
            },
            {
                "start_time": 11.1454545,
                "end_time": 11.3477273,
                "pitch": 86,
                "velocity": 80,
                "duration": 0.2022727,
                "tempo": 120.0
            },
            {
                "start_time": 11.3477273,
                "end_time": 11.55,
                "pitch": 83,
                "velocity": 80,
                "duration": 0.2022727,
                "tempo": 120.0
            },
            {
                "start_time": 11.55,
                "end_time": 12.9568182,
                "pitch": 88,
                "velocity": 80,
                "duration": 1.4068182,
                "tempo": 120.0
            },
            {
                "start_time": 12.9590909,
                "end_time": 13.0590909,
                "pitch": 88,
                "velocity": 80,
                "duration": 0.1,
                "tempo": 120.0
            },
            {
                "start_time": 13.0590909,
                "end_time": 13.1590909,
                "pitch": 91,
                "velocity": 80,
                "duration": 0.1,
                "tempo": 120.0
            },
            {
                "start_time": 13.1590909,
                "end_time": 14.5681818,
                "pitch": 95,
                "velocity": 80,
                "duration": 1.4090909,
                "tempo": 120.0
            },
            {
                "start_time": 14.5681818,
                "end_time": 14.7704545,
                "pitch": 93,
                "velocity": 80,
                "duration": 0.2022727,
                "tempo": 120.0
            },
            {
                "start_time": 8.3272727,
                "end_time": 14.7704545,
                "pitch": 102,
                "velocity": 80,
                "duration": 6.4431818,
                "tempo": 120.0
            },
            {
                "start_time": 9.3340909,
                "end_time": 15.7772727,
                "pitch": 56,
                "velocity": 80,
                "duration": 6.4431818,
                "tempo": 120.0
            },
            {
                "start_time": 14.7704545,
                "end_time": 15.7772727,
                "pitch": 88,
                "velocity": 80,
                "duration": 1.0068182,
                "tempo": 120.0
            },
            {
                "start_time": 15.7772727,
                "end_time": 15.9772727,
                "pitch": 81,
                "velocity": 80,
                "duration": 0.2,
                "tempo": 120.0
            },
            {
                "start_time": 15.9772727,
                "end_time": 16.1795455,
                "pitch": 83,
                "velocity": 80,
                "duration": 0.2022727,
                "tempo": 120.0
            },
            {
                "start_time": 16.1795455,
                "end_time": 16.3863636,
                "pitch": 86,
                "velocity": 80,
                "duration": 0.2068182,
                "tempo": 120.0
            },
            {
                "start_time": 16.1795455,
                "end_time": 16.3863636,
                "pitch": 89,
                "velocity": 80,
                "duration": 0.2068182,
                "tempo": 120.0
            },
            {
                "start_time": 15.7772727,
                "end_time": 17.3931818,
                "pitch": 56,
                "velocity": 80,
                "duration": 1.6159091,
                "tempo": 120.0
            },
            {
                "start_time": 16.3863636,
                "end_time": 17.3931818,
                "pitch": 89,
                "velocity": 80,
                "duration": 1.0068182,
                "tempo": 120.0
            },
            {
                "start_time": 16.3863636,
                "end_time": 17.3931818,
                "pitch": 89,
                "velocity": 80,
                "duration": 1.0068182,
                "tempo": 120.0
            },
            {
                "start_time": 17.3931818,
                "end_time": 17.5931818,
                "pitch": 93,
                "velocity": 80,
                "duration": 0.2,
                "tempo": 120.0
            },
            {
                "start_time": 14.7704545,
                "end_time": 17.5931818,
                "pitch": 102,
                "velocity": 80,
                "duration": 2.8227273,
                "tempo": 120.0
            },
            {
                "start_time": 17.5931818,
                "end_time": 17.6954545,
                "pitch": 89,
                "velocity": 80,
                "duration": 0.1022727,
                "tempo": 120.0
            },
            {
                "start_time": 11.3477273,
                "end_time": 17.7931818,
                "pitch": 68,
                "velocity": 80,
                "duration": 6.4454545,
                "tempo": 120.0
            },
            {
                "start_time": 17.6954545,
                "end_time": 17.7931818,
                "pitch": 84,
                "velocity": 80,
                "duration": 0.0977273,
                "tempo": 120.0
            },
            {
                "start_time": 17.6954545,
                "end_time": 17.7931818,
                "pitch": 84,
                "velocity": 80,
                "duration": 0.0977273,
                "tempo": 120.0
            },
            {
                "start_time": 17.7931818,
                "end_time": 17.9954545,
                "pitch": 83,
                "velocity": 80,
                "duration": 0.2022727,
                "tempo": 120.0
            },
            {
                "start_time": 11.55,
                "end_time": 17.9954545,
                "pitch": 90,
                "velocity": 80,
                "duration": 6.4454545,
                "tempo": 120.0
            },
            {
                "start_time": 17.9954545,
                "end_time": 51.5727273,
                "pitch": 88,
                "velocity": 80,
                "duration": 33.5772727,
                "tempo": 120.0
            },
            {
                "start_time": 51.7590909,
                "end_time": 52.2613636,
                "pitch": 88,
                "velocity": 101,
                "duration": 0.5022727,
                "tempo": 120.0
            },
            {
                "start_time": 17.7931818,
                "end_time": 52.3590909,
                "pitch": 68,
                "velocity": 80,
                "duration": 34.5659091,
                "tempo": 120.0
            },
            {
                "start_time": 52.2613636,
                "end_time": 52.3590909,
                "pitch": 86,
                "velocity": 101,
                "duration": 0.0977273,
                "tempo": 120.0
            },
            {
                "start_time": 52.2613636,
                "end_time": 52.3590909,
                "pitch": 86,
                "velocity": 101,
                "duration": 0.0977273,
                "tempo": 120.0
            },
            {
                "start_time": 52.3590909,
                "end_time": 52.4613636,
                "pitch": 83,
                "velocity": 101,
                "duration": 0.1022727,
                "tempo": 120.0
            },
            {
                "start_time": 52.4613636,
                "end_time": 52.5613636,
                "pitch": 81,
                "velocity": 101,
                "duration": 0.1,
                "tempo": 120.0
            },
            {
                "start_time": 52.5613636,
                "end_time": 52.6613636,
                "pitch": 83,
                "velocity": 101,
                "duration": 0.1,
                "tempo": 120.0
            },
            {
                "start_time": 52.6613636,
                "end_time": 52.7590909,
                "pitch": 81,
                "velocity": 101,
                "duration": 0.0977273,
                "tempo": 120.0
            },
            {
                "start_time": 17.9954545,
                "end_time": 52.7590909,
                "pitch": 90,
                "velocity": 80,
                "duration": 34.7636364,
                "tempo": 120.0
            },
            {
                "start_time": 52.7590909,
                "end_time": 52.8613636,
                "pitch": 77,
                "velocity": 101,
                "duration": 0.1022727,
                "tempo": 120.0
            },
            {
                "start_time": 52.8613636,
                "end_time": 52.9613636,
                "pitch": 76,
                "velocity": 101,
                "duration": 0.1,
                "tempo": 120.0
            },
            {
                "start_time": 52.9613636,
                "end_time": 53.1590909,
                "pitch": 77,
                "velocity": 101,
                "duration": 0.1977273,
                "tempo": 120.0
            },
            {
                "start_time": 53.1590909,
                "end_time": 53.3613636,
                "pitch": 81,
                "velocity": 101,
                "duration": 0.2022727,
                "tempo": 120.0
            },
            {
                "start_time": 53.3613636,
                "end_time": 53.9636364,
                "pitch": 83,
                "velocity": 101,
                "duration": 0.6022727,
                "tempo": 120.0
            },
            {
                "start_time": 53.9636364,
                "end_time": 54.1636364,
                "pitch": 81,
                "velocity": 101,
                "duration": 0.2,
                "tempo": 120.0
            },
            {
                "start_time": 54.1636364,
                "end_time": 54.7681818,
                "pitch": 83,
                "velocity": 101,
                "duration": 0.6045455,
                "tempo": 120.0
            },
            {
                "start_time": 54.7681818,
                "end_time": 54.8704545,
                "pitch": 83,
                "velocity": 101,
                "duration": 0.1022727,
                "tempo": 120.0
            },
            {
                "start_time": 54.8704545,
                "end_time": 54.9204545,
                "pitch": 84,
                "velocity": 101,
                "duration": 0.05,
                "tempo": 120.0
            },
            {
                "start_time": 54.9204545,
                "end_time": 54.9727273,
                "pitch": 86,
                "velocity": 101,
                "duration": 0.0522727,
                "tempo": 120.0
            },
            {
                "start_time": 54.8704545,
                "end_time": 54.9727273,
                "pitch": 88,
                "velocity": 101,
                "duration": 0.1022727,
                "tempo": 120.0
            },
            {
                "start_time": 54.9727273,
                "end_time": 55.4704545,
                "pitch": 88,
                "velocity": 101,
                "duration": 0.4977273,
                "tempo": 120.0
            },
            {
                "start_time": 54.975,
                "end_time": 55.4704545,
                "pitch": 88,
                "velocity": 101,
                "duration": 0.4954545,
                "tempo": 120.0
            },
            {
                "start_time": 52.3590909,
                "end_time": 55.5704545,
                "pitch": 68,
                "velocity": 101,
                "duration": 3.2113636,
                "tempo": 120.0
            },
            {
                "start_time": 55.4704545,
                "end_time": 55.5704545,
                "pitch": 86,
                "velocity": 101,
                "duration": 0.1,
                "tempo": 120.0
            },
            {
                "start_time": 55.4704545,
                "end_time": 55.5704545,
                "pitch": 86,
                "velocity": 101,
                "duration": 0.1,
                "tempo": 120.0
            },
            {
                "start_time": 55.5704545,
                "end_time": 55.675,
                "pitch": 83,
                "velocity": 101,
                "duration": 0.1045455,
                "tempo": 120.0
            },
            {
                "start_time": 55.675,
                "end_time": 55.7772727,
                "pitch": 81,
                "velocity": 101,
                "duration": 0.1022727,
                "tempo": 120.0
            },
            {
                "start_time": 55.7772727,
                "end_time": 55.8818182,
                "pitch": 83,
                "velocity": 101,
                "duration": 0.1045455,
                "tempo": 120.0
            },
            {
                "start_time": 55.8818182,
                "end_time": 55.9772727,
                "pitch": 81,
                "velocity": 101,
                "duration": 0.0954545,
                "tempo": 120.0
            },
            {
                "start_time": 52.7590909,
                "end_time": 55.9772727,
                "pitch": 90,
                "velocity": 101,
                "duration": 3.2181818,
                "tempo": 120.0
            },
            {
                "start_time": 55.9772727,
                "end_time": 56.0772727,
                "pitch": 77,
                "velocity": 101,
                "duration": 0.1,
                "tempo": 120.0
            },
            {
                "start_time": 56.0772727,
                "end_time": 56.175,
                "pitch": 76,
                "velocity": 101,
                "duration": 0.0977273,
                "tempo": 120.0
            },
            {
                "start_time": 53.1590909,
                "end_time": 56.375,
                "pitch": 44,
                "velocity": 101,
                "duration": 3.2159091,
                "tempo": 120.0
            },
            {
                "start_time": 56.175,
                "end_time": 56.375,
                "pitch": 77,
                "velocity": 101,
                "duration": 0.2,
                "tempo": 120.0
            },
            {
                "start_time": 56.375,
                "end_time": 56.5818182,
                "pitch": 81,
                "velocity": 101,
                "duration": 0.2068182,
                "tempo": 120.0
            },
            {
                "start_time": 56.5818182,
                "end_time": 57.3863636,
                "pitch": 83,
                "velocity": 101,
                "duration": 0.8045455,
                "tempo": 120.0
            },
            {
                "start_time": 57.3863636,
                "end_time": 57.7886364,
                "pitch": 81,
                "velocity": 101,
                "duration": 0.4022727,
                "tempo": 120.0
            },
            {
                "start_time": 57.7886364,
                "end_time": 58.1886364,
                "pitch": 83,
                "velocity": 101,
                "duration": 0.4,
                "tempo": 120.0
            },
            {
                "start_time": 58.1886364,
                "end_time": 58.3886364,
                "pitch": 69,
                "velocity": 101,
                "duration": 0.2,
                "tempo": 120.0
            },
            {
                "start_time": 58.3886364,
                "end_time": 58.5886364,
                "pitch": 71,
                "velocity": 101,
                "duration": 0.2,
                "tempo": 120.0
            },
            {
                "start_time": 58.5886364,
                "end_time": 58.7886364,
                "pitch": 74,
                "velocity": 101,
                "duration": 0.2,
                "tempo": 120.0
            },
            {
                "start_time": 58.7886364,
                "end_time": 58.9886364,
                "pitch": 76,
                "velocity": 101,
                "duration": 0.2,
                "tempo": 120.0
            },
            {
                "start_time": 58.7886364,
                "end_time": 58.9886364,
                "pitch": 76,
                "velocity": 101,
                "duration": 0.2,
                "tempo": 120.0
            },
            {
                "start_time": 58.5886364,
                "end_time": 59.1909091,
                "pitch": 77,
                "velocity": 101,
                "duration": 0.6022727,
                "tempo": 120.0
            },
            {
                "start_time": 58.9886364,
                "end_time": 59.1909091,
                "pitch": 77,
                "velocity": 101,
                "duration": 0.2022727,
                "tempo": 120.0
            },
            {
                "start_time": 59.1909091,
                "end_time": 59.3931818,
                "pitch": 76,
                "velocity": 101,
                "duration": 0.2022727,
                "tempo": 120.0
            },
            {
                "start_time": 56.375,
                "end_time": 59.5931818,
                "pitch": 44,
                "velocity": 101,
                "duration": 3.2181818,
                "tempo": 120.0
            },
            {
                "start_time": 59.3931818,
                "end_time": 59.5931818,
                "pitch": 77,
                "velocity": 101,
                "duration": 0.2,
                "tempo": 120.0
            },
            {
                "start_time": 59.5931818,
                "end_time": 59.7931818,
                "pitch": 81,
                "velocity": 101,
                "duration": 0.2,
                "tempo": 120.0
            },
            {
                "start_time": 59.7931818,
                "end_time": 60.5954545,
                "pitch": 83,
                "velocity": 101,
                "duration": 0.8022727,
                "tempo": 120.0
            },
            {
                "start_time": 60.5954545,
                "end_time": 60.9954545,
                "pitch": 81,
                "velocity": 101,
                "duration": 0.4,
                "tempo": 120.0
            },
            {
                "start_time": 55.9772727,
                "end_time": 60.9954545,
                "pitch": 90,
                "velocity": 101,
                "duration": 5.0181818,
                "tempo": 120.0
            },
            {
                "start_time": 59.5931818,
                "end_time": 61.3977273,
                "pitch": 44,
                "velocity": 101,
                "duration": 1.8045455,
                "tempo": 120.0
            },
            {
                "start_time": 60.9954545,
                "end_time": 61.3977273,
                "pitch": 77,
                "velocity": 101,
                "duration": 0.4022727,
                "tempo": 120.0
            },
            {
                "start_time": 61.3977273,
                "end_time": 61.5977273,
                "pitch": 69,
                "velocity": 101,
                "duration": 0.2,
                "tempo": 120.0
            },
            {
                "start_time": 61.5977273,
                "end_time": 61.7977273,
                "pitch": 71,
                "velocity": 101,
                "duration": 0.2,
                "tempo": 120.0
            },
            {
                "start_time": 61.7977273,
                "end_time": 61.9977273,
                "pitch": 74,
                "velocity": 101,
                "duration": 0.2,
                "tempo": 120.0
            },
            {
                "start_time": 61.9977273,
                "end_time": 62.2,
                "pitch": 76,
                "velocity": 101,
                "duration": 0.2022727,
                "tempo": 120.0
            },
            {
                "start_time": 61.9977273,
                "end_time": 62.2,
                "pitch": 76,
                "velocity": 101,
                "duration": 0.2022727,
                "tempo": 120.0
            },
            {
                "start_time": 61.7977273,
                "end_time": 62.4,
                "pitch": 77,
                "velocity": 101,
                "duration": 0.6022727,
                "tempo": 120.0
            },
            {
                "start_time": 62.2,
                "end_time": 62.4,
                "pitch": 77,
                "velocity": 101,
                "duration": 0.2,
                "tempo": 120.0
            },
            {
                "start_time": 62.4,
                "end_time": 62.6,
                "pitch": 76,
                "velocity": 101,
                "duration": 0.2,
                "tempo": 120.0
            },
            {
                "start_time": 61.3977273,
                "end_time": 62.8,
                "pitch": 44,
                "velocity": 101,
                "duration": 1.4022727,
                "tempo": 120.0
            },
            {
                "start_time": 62.6,
                "end_time": 62.8,
                "pitch": 77,
                "velocity": 101,
                "duration": 0.2,
                "tempo": 120.0
            },
            {
                "start_time": 62.8,
                "end_time": 63.0,
                "pitch": 81,
                "velocity": 101,
                "duration": 0.2,
                "tempo": 120.0
            }
        ],
        "French Horn": [
            {
                "start_time": 45.1318182,
                "end_time": 45.3295455,
                "pitch": 62,
                "velocity": 101,
                "duration": 0.1977273,
                "tempo": 120.0
            },
            {
                "start_time": 45.3295455,
                "end_time": 45.5318182,
                "pitch": 62,
                "velocity": 101,
                "duration": 0.2022727,
                "tempo": 120.0
            },
            {
                "start_time": 45.5318182,
                "end_time": 45.7318182,
                "pitch": 50,
                "velocity": 101,
                "duration": 0.2,
                "tempo": 120.0
            },
            {
                "start_time": 45.7318182,
                "end_time": 45.9318182,
                "pitch": 50,
                "velocity": 101,
                "duration": 0.2,
                "tempo": 120.0
            },
            {
                "start_time": 45.9318182,
                "end_time": 46.1318182,
                "pitch": 64,
                "velocity": 101,
                "duration": 0.2,
                "tempo": 120.0
            },
            {
                "start_time": 46.1318182,
                "end_time": 46.3318182,
                "pitch": 64,
                "velocity": 101,
                "duration": 0.2,
                "tempo": 120.0
            },
            {
                "start_time": 46.3318182,
                "end_time": 46.5340909,
                "pitch": 52,
                "velocity": 101,
                "duration": 0.2022727,
                "tempo": 120.0
            },
            {
                "start_time": 46.5340909,
                "end_time": 46.7340909,
                "pitch": 52,
                "velocity": 101,
                "duration": 0.2,
                "tempo": 120.0
            },
            {
                "start_time": 46.7340909,
                "end_time": 46.9340909,
                "pitch": 65,
                "velocity": 101,
                "duration": 0.2,
                "tempo": 120.0
            },
            {
                "start_time": 46.9363636,
                "end_time": 47.1363636,
                "pitch": 65,
                "velocity": 101,
                "duration": 0.2,
                "tempo": 120.0
            },
            {
                "start_time": 47.1363636,
                "end_time": 47.3363636,
                "pitch": 53,
                "velocity": 101,
                "duration": 0.2,
                "tempo": 120.0
            },
            {
                "start_time": 47.3363636,
                "end_time": 47.5363636,
                "pitch": 53,
                "velocity": 101,
                "duration": 0.2,
                "tempo": 120.0
            },
            {
                "start_time": 47.5363636,
                "end_time": 47.7363636,
                "pitch": 64,
                "velocity": 101,
                "duration": 0.2,
                "tempo": 120.0
            },
            {
                "start_time": 47.7363636,
                "end_time": 47.9363636,
                "pitch": 64,
                "velocity": 101,
                "duration": 0.2,
                "tempo": 120.0
            },
            {
                "start_time": 47.9363636,
                "end_time": 48.1363636,
                "pitch": 52,
                "velocity": 101,
                "duration": 0.2,
                "tempo": 120.0
            },
            {
                "start_time": 48.1363636,
                "end_time": 48.3409091,
                "pitch": 52,
                "velocity": 101,
                "duration": 0.2045455,
                "tempo": 120.0
            },
            {
                "start_time": 48.3409091,
                "end_time": 48.5454545,
                "pitch": 62,
                "velocity": 101,
                "duration": 0.2045455,
                "tempo": 120.0
            },
            {
                "start_time": 48.5454545,
                "end_time": 48.7454545,
                "pitch": 62,
                "velocity": 101,
                "duration": 0.2,
                "tempo": 120.0
            },
            {
                "start_time": 48.7454545,
                "end_time": 48.9431818,
                "pitch": 50,
                "velocity": 101,
                "duration": 0.1977273,
                "tempo": 120.0
            },
            {
                "start_time": 48.9431818,
                "end_time": 49.1409091,
                "pitch": 50,
                "velocity": 101,
                "duration": 0.1977273,
                "tempo": 120.0
            },
            {
                "start_time": 49.1409091,
                "end_time": 49.3409091,
                "pitch": 64,
                "velocity": 101,
                "duration": 0.2,
                "tempo": 120.0
            },
            {
                "start_time": 49.3409091,
                "end_time": 49.5431818,
                "pitch": 64,
                "velocity": 101,
                "duration": 0.2022727,
                "tempo": 120.0
            },
            {
                "start_time": 49.5431818,
                "end_time": 49.75,
                "pitch": 52,
                "velocity": 101,
                "duration": 0.2068182,
                "tempo": 120.0
            },
            {
                "start_time": 49.75,
                "end_time": 49.9522727,
                "pitch": 52,
                "velocity": 101,
                "duration": 0.2022727,
                "tempo": 120.0
            },
            {
                "start_time": 49.9522727,
                "end_time": 50.1522727,
                "pitch": 65,
                "velocity": 101,
                "duration": 0.2,
                "tempo": 120.0
            },
            {
                "start_time": 50.1522727,
                "end_time": 50.3545455,
                "pitch": 65,
                "velocity": 101,
                "duration": 0.2022727,
                "tempo": 120.0
            },
            {
                "start_time": 50.3545455,
                "end_time": 50.5545455,
                "pitch": 53,
                "velocity": 101,
                "duration": 0.2,
                "tempo": 120.0
            },
            {
                "start_time": 50.5545455,
                "end_time": 50.7545455,
                "pitch": 53,
                "velocity": 101,
                "duration": 0.2,
                "tempo": 120.0
            },
            {
                "start_time": 50.7545455,
                "end_time": 50.9545455,
                "pitch": 64,
                "velocity": 101,
                "duration": 0.2,
                "tempo": 120.0
            },
            {
                "start_time": 50.9545455,
                "end_time": 51.1545455,
                "pitch": 64,
                "velocity": 101,
                "duration": 0.2,
                "tempo": 120.0
            },
            {
                "start_time": 51.1545455,
                "end_time": 51.3545455,
                "pitch": 52,
                "velocity": 101,
                "duration": 0.2,
                "tempo": 120.0
            }
        ],
        "Acoustic Bass": [
            {
                "start_time": 0.0068182,
                "end_time": 0.0659091,
                "pitch": 45,
                "velocity": 101,
                "duration": 0.0590909,
                "tempo": 120.0
            },
            {
                "start_time": 0.1,
                "end_time": 0.1659091,
                "pitch": 45,
                "velocity": 80,
                "duration": 0.0659091,
                "tempo": 120.0
            },
            {
                "start_time": 0.2,
                "end_time": 0.2659091,
                "pitch": 57,
                "velocity": 80,
                "duration": 0.0659091,
                "tempo": 120.0
            },
            {
                "start_time": 0.3,
                "end_time": 0.3659091,
                "pitch": 45,
                "velocity": 80,
                "duration": 0.0659091,
                "tempo": 120.0
            },
            {
                "start_time": 0.4022727,
                "end_time": 0.4636364,
                "pitch": 45,
                "velocity": 101,
                "duration": 0.0613636,
                "tempo": 120.0
            },
            {
                "start_time": 0.4954545,
                "end_time": 0.5590909,
                "pitch": 45,
                "velocity": 80,
                "duration": 0.0636364,
                "tempo": 120.0
            },
            {
                "start_time": 0.5909091,
                "end_time": 0.6545455,
                "pitch": 57,
                "velocity": 80,
                "duration": 0.0636364,
                "tempo": 120.0
            },
            {
                "start_time": 0.6886364,
                "end_time": 0.75,
                "pitch": 45,
                "velocity": 80,
                "duration": 0.0613636,
                "tempo": 120.0
            },
            {
                "start_time": 0.7840909,
                "end_time": 0.8477273,
                "pitch": 45,
                "velocity": 101,
                "duration": 0.0636364,
                "tempo": 120.0
            },
            {
                "start_time": 0.8840909,
                "end_time": 0.9477273,
                "pitch": 45,
                "velocity": 80,
                "duration": 0.0636364,
                "tempo": 120.0
            },
            {
                "start_time": 0.9840909,
                "end_time": 1.0477273,
                "pitch": 57,
                "velocity": 80,
                "duration": 0.0636364,
                "tempo": 120.0
            },
            {
                "start_time": 1.0840909,
                "end_time": 1.15,
                "pitch": 45,
                "velocity": 80,
                "duration": 0.0659091,
                "tempo": 120.0
            },
            {
                "start_time": 1.1840909,
                "end_time": 1.25,
                "pitch": 45,
                "velocity": 101,
                "duration": 0.0659091,
                "tempo": 120.0
            },
            {
                "start_time": 1.2863636,
                "end_time": 1.3545455,
                "pitch": 45,
                "velocity": 80,
                "duration": 0.0681818,
                "tempo": 120.0
            },
            {
                "start_time": 1.3886364,
                "end_time": 1.4568182,
                "pitch": 57,
                "velocity": 80,
                "duration": 0.0681818,
                "tempo": 120.0
            },
            {
                "start_time": 1.4931818,
                "end_time": 1.5590909,
                "pitch": 45,
                "velocity": 80,
                "duration": 0.0659091,
                "tempo": 120.0
            },
            {
                "start_time": 1.5977273,
                "end_time": 1.6590909,
                "pitch": 40,
                "velocity": 101,
                "duration": 0.0613636,
                "tempo": 120.0
            },
            {
                "start_time": 1.6931818,
                "end_time": 1.7568182,
                "pitch": 40,
                "velocity": 80,
                "duration": 0.0636364,
                "tempo": 120.0
            },
            {
                "start_time": 1.7909091,
                "end_time": 1.8545455,
                "pitch": 52,
                "velocity": 80,
                "duration": 0.0636364,
                "tempo": 120.0
            },
            {
                "start_time": 1.8886364,
                "end_time": 1.9545455,
                "pitch": 40,
                "velocity": 80,
                "duration": 0.0659091,
                "tempo": 120.0
            },
            {
                "start_time": 1.9886364,
                "end_time": 2.0522727,
                "pitch": 40,
                "velocity": 101,
                "duration": 0.0636364,
                "tempo": 120.0
            },
            {
                "start_time": 2.0886364,
                "end_time": 2.1522727,
                "pitch": 40,
                "velocity": 80,
                "duration": 0.0636364,
                "tempo": 120.0
            },
            {
                "start_time": 2.1886364,
                "end_time": 2.2522727,
                "pitch": 52,
                "velocity": 80,
                "duration": 0.0636364,
                "tempo": 120.0
            },
            {
                "start_time": 2.2886364,
                "end_time": 2.3522727,
                "pitch": 40,
                "velocity": 80,
                "duration": 0.0636364,
                "tempo": 120.0
            },
            {
                "start_time": 2.3886364,
                "end_time": 2.4545455,
                "pitch": 40,
                "velocity": 101,
                "duration": 0.0659091,
                "tempo": 120.0
            },
            {
                "start_time": 2.4909091,
                "end_time": 2.5568182,
                "pitch": 40,
                "velocity": 80,
                "duration": 0.0659091,
                "tempo": 120.0
            },
            {
                "start_time": 2.5931818,
                "end_time": 2.6613636,
                "pitch": 52,
                "velocity": 80,
                "duration": 0.0681818,
                "tempo": 120.0
            },
            {
                "start_time": 2.6954545,
                "end_time": 2.7636364,
                "pitch": 40,
                "velocity": 80,
                "duration": 0.0681818,
                "tempo": 120.0
            },
            {
                "start_time": 2.8,
                "end_time": 2.8636364,
                "pitch": 40,
                "velocity": 101,
                "duration": 0.0636364,
                "tempo": 120.0
            },
            {
                "start_time": 2.8977273,
                "end_time": 2.9613636,
                "pitch": 40,
                "velocity": 80,
                "duration": 0.0636364,
                "tempo": 120.0
            },
            {
                "start_time": 2.9954545,
                "end_time": 3.0590909,
                "pitch": 52,
                "velocity": 80,
                "duration": 0.0636364,
                "tempo": 120.0
            },
            {
                "start_time": 3.0931818,
                "end_time": 3.1568182,
                "pitch": 40,
                "velocity": 80,
                "duration": 0.0636364,
                "tempo": 120.0
            },
            {
                "start_time": 3.1931818,
                "end_time": 3.2568182,
                "pitch": 41,
                "velocity": 101,
                "duration": 0.0636364,
                "tempo": 120.0
            },
            {
                "start_time": 3.2931818,
                "end_time": 3.3590909,
                "pitch": 41,
                "velocity": 80,
                "duration": 0.0659091,
                "tempo": 120.0
            },
            {
                "start_time": 3.3931818,
                "end_time": 3.4590909,
                "pitch": 53,
                "velocity": 80,
                "duration": 0.0659091,
                "tempo": 120.0
            },
            {
                "start_time": 3.4954545,
                "end_time": 3.5590909,
                "pitch": 41,
                "velocity": 80,
                "duration": 0.0636364,
                "tempo": 120.0
            },
            {
                "start_time": 3.5954545,
                "end_time": 3.6613636,
                "pitch": 41,
                "velocity": 101,
                "duration": 0.0659091,
                "tempo": 120.0
            },
            {
                "start_time": 3.6954545,
                "end_time": 3.7613636,
                "pitch": 41,
                "velocity": 80,
                "duration": 0.0659091,
                "tempo": 120.0
            },
            {
                "start_time": 3.7954545,
                "end_time": 3.8613636,
                "pitch": 53,
                "velocity": 80,
                "duration": 0.0659091,
                "tempo": 120.0
            },
            {
                "start_time": 3.8954545,
                "end_time": 3.9613636,
                "pitch": 41,
                "velocity": 80,
                "duration": 0.0659091,
                "tempo": 120.0
            },
            {
                "start_time": 3.9977273,
                "end_time": 4.0613636,
                "pitch": 41,
                "velocity": 101,
                "duration": 0.0636364,
                "tempo": 120.0
            },
            {
                "start_time": 4.0954545,
                "end_time": 4.1613636,
                "pitch": 41,
                "velocity": 80,
                "duration": 0.0659091,
                "tempo": 120.0
            },
            {
                "start_time": 4.1954545,
                "end_time": 4.2613636,
                "pitch": 53,
                "velocity": 80,
                "duration": 0.0659091,
                "tempo": 120.0
            },
            {
                "start_time": 4.2954545,
                "end_time": 4.3613636,
                "pitch": 41,
                "velocity": 80,
                "duration": 0.0659091,
                "tempo": 120.0
            },
            {
                "start_time": 4.3977273,
                "end_time": 4.4636364,
                "pitch": 41,
                "velocity": 101,
                "duration": 0.0659091,
                "tempo": 120.0
            },
            {
                "start_time": 4.5,
                "end_time": 4.5659091,
                "pitch": 41,
                "velocity": 80,
                "duration": 0.0659091,
                "tempo": 120.0
            },
            {
                "start_time": 4.6022727,
                "end_time": 4.6681818,
                "pitch": 53,
                "velocity": 80,
                "duration": 0.0659091,
                "tempo": 120.0
            },
            {
                "start_time": 4.7045455,
                "end_time": 4.7727273,
                "pitch": 41,
                "velocity": 80,
                "duration": 0.0681818,
                "tempo": 120.0
            },
            {
                "start_time": 4.8090909,
                "end_time": 4.8727273,
                "pitch": 40,
                "velocity": 101,
                "duration": 0.0636364,
                "tempo": 120.0
            },
            {
                "start_time": 4.9090909,
                "end_time": 4.9727273,
                "pitch": 40,
                "velocity": 80,
                "duration": 0.0636364,
                "tempo": 120.0
            },
            {
                "start_time": 5.0090909,
                "end_time": 5.0727273,
                "pitch": 52,
                "velocity": 80,
                "duration": 0.0636364,
                "tempo": 120.0
            },
            {
                "start_time": 5.1090909,
                "end_time": 5.1727273,
                "pitch": 40,
                "velocity": 80,
                "duration": 0.0636364,
                "tempo": 120.0
            },
            {
                "start_time": 5.2090909,
                "end_time": 5.275,
                "pitch": 40,
                "velocity": 101,
                "duration": 0.0659091,
                "tempo": 120.0
            },
            {
                "start_time": 5.3090909,
                "end_time": 5.375,
                "pitch": 40,
                "velocity": 80,
                "duration": 0.0659091,
                "tempo": 120.0
            },
            {
                "start_time": 5.4090909,
                "end_time": 5.475,
                "pitch": 52,
                "velocity": 80,
                "duration": 0.0659091,
                "tempo": 120.0
            },
            {
                "start_time": 5.5113636,
                "end_time": 5.5772727,
                "pitch": 40,
                "velocity": 80,
                "duration": 0.0659091,
                "tempo": 120.0
            },
            {
                "start_time": 5.6136364,
                "end_time": 5.6772727,
                "pitch": 40,
                "velocity": 101,
                "duration": 0.0636364,
                "tempo": 120.0
            },
            {
                "start_time": 5.7113636,
                "end_time": 5.7772727,
                "pitch": 40,
                "velocity": 80,
                "duration": 0.0659091,
                "tempo": 120.0
            },
            {
                "start_time": 5.8136364,
                "end_time": 5.8795455,
                "pitch": 52,
                "velocity": 80,
                "duration": 0.0659091,
                "tempo": 120.0
            },
            {
                "start_time": 5.9136364,
                "end_time": 5.9795455,
                "pitch": 40,
                "velocity": 80,
                "duration": 0.0659091,
                "tempo": 120.0
            },
            {
                "start_time": 6.0159091,
                "end_time": 6.0818182,
                "pitch": 40,
                "velocity": 101,
                "duration": 0.0659091,
                "tempo": 120.0
            },
            {
                "start_time": 6.1181818,
                "end_time": 6.1840909,
                "pitch": 40,
                "velocity": 80,
                "duration": 0.0659091,
                "tempo": 120.0
            },
            {
                "start_time": 6.2204545,
                "end_time": 6.2863636,
                "pitch": 52,
                "velocity": 80,
                "duration": 0.0659091,
                "tempo": 120.0
            },
            {
                "start_time": 6.3227273,
                "end_time": 6.3909091,
                "pitch": 40,
                "velocity": 80,
                "duration": 0.0681818,
                "tempo": 120.0
            },
            {
                "start_time": 6.4295455,
                "end_time": 6.4909091,
                "pitch": 45,
                "velocity": 101,
                "duration": 0.0613636,
                "tempo": 120.0
            },
            {
                "start_time": 6.525,
                "end_time": 6.5931818,
                "pitch": 45,
                "velocity": 80,
                "duration": 0.0681818,
                "tempo": 120.0
            },
            {
                "start_time": 6.6272727,
                "end_time": 6.6931818,
                "pitch": 57,
                "velocity": 80,
                "duration": 0.0659091,
                "tempo": 120.0
            },
            {
                "start_time": 6.7272727,
                "end_time": 6.7931818,
                "pitch": 45,
                "velocity": 80,
                "duration": 0.0659091,
                "tempo": 120.0
            },
            {
                "start_time": 6.8295455,
                "end_time": 6.8909091,
                "pitch": 45,
                "velocity": 101,
                "duration": 0.0613636,
                "tempo": 120.0
            },
            {
                "start_time": 6.9227273,
                "end_time": 6.9863636,
                "pitch": 45,
                "velocity": 80,
                "duration": 0.0636364,
                "tempo": 120.0
            },
            {
                "start_time": 7.0204545,
                "end_time": 7.0818182,
                "pitch": 57,
                "velocity": 80,
                "duration": 0.0613636,
                "tempo": 120.0
            },
            {
                "start_time": 7.1159091,
                "end_time": 7.1772727,
                "pitch": 45,
                "velocity": 80,
                "duration": 0.0613636,
                "tempo": 120.0
            },
            {
                "start_time": 7.2113636,
                "end_time": 7.2795455,
                "pitch": 45,
                "velocity": 101,
                "duration": 0.0681818,
                "tempo": 120.0
            },
            {
                "start_time": 7.3136364,
                "end_time": 7.3818182,
                "pitch": 45,
                "velocity": 80,
                "duration": 0.0681818,
                "tempo": 120.0
            },
            {
                "start_time": 7.4159091,
                "end_time": 7.4840909,
                "pitch": 57,
                "velocity": 80,
                "duration": 0.0681818,
                "tempo": 120.0
            },
            {
                "start_time": 7.5181818,
                "end_time": 7.5863636,
                "pitch": 45,
                "velocity": 80,
                "duration": 0.0681818,
                "tempo": 120.0
            },
            {
                "start_time": 7.6227273,
                "end_time": 7.6886364,
                "pitch": 45,
                "velocity": 101,
                "duration": 0.0659091,
                "tempo": 120.0
            },
            {
                "start_time": 7.7227273,
                "end_time": 7.7886364,
                "pitch": 45,
                "velocity": 80,
                "duration": 0.0659091,
                "tempo": 120.0
            },
            {
                "start_time": 7.825,
                "end_time": 7.8909091,
                "pitch": 57,
                "velocity": 80,
                "duration": 0.0659091,
                "tempo": 120.0
            },
            {
                "start_time": 7.925,
                "end_time": 7.9909091,
                "pitch": 45,
                "velocity": 80,
                "duration": 0.0659091,
                "tempo": 120.0
            },
            {
                "start_time": 8.0272727,
                "end_time": 8.0909091,
                "pitch": 40,
                "velocity": 101,
                "duration": 0.0636364,
                "tempo": 120.0
            },
            {
                "start_time": 8.125,
                "end_time": 8.1909091,
                "pitch": 40,
                "velocity": 80,
                "duration": 0.0659091,
                "tempo": 120.0
            },
            {
                "start_time": 8.225,
                "end_time": 8.2909091,
                "pitch": 52,
                "velocity": 80,
                "duration": 0.0659091,
                "tempo": 120.0
            },
            {
                "start_time": 8.325,
                "end_time": 8.3909091,
                "pitch": 40,
                "velocity": 80,
                "duration": 0.0659091,
                "tempo": 120.0
            },
            {
                "start_time": 8.4272727,
                "end_time": 8.4931818,
                "pitch": 40,
                "velocity": 101,
                "duration": 0.0659091,
                "tempo": 120.0
            },
            {
                "start_time": 8.5272727,
                "end_time": 8.5931818,
                "pitch": 40,
                "velocity": 80,
                "duration": 0.0659091,
                "tempo": 120.0
            },
            {
                "start_time": 8.6272727,
                "end_time": 8.6931818,
                "pitch": 52,
                "velocity": 80,
                "duration": 0.0659091,
                "tempo": 120.0
            },
            {
                "start_time": 8.7272727,
                "end_time": 8.7954545,
                "pitch": 40,
                "velocity": 80,
                "duration": 0.0681818,
                "tempo": 120.0
            },
            {
                "start_time": 8.8295455,
                "end_time": 8.8954545,
                "pitch": 40,
                "velocity": 101,
                "duration": 0.0659091,
                "tempo": 120.0
            },
            {
                "start_time": 8.9295455,
                "end_time": 8.9954545,
                "pitch": 40,
                "velocity": 80,
                "duration": 0.0659091,
                "tempo": 120.0
            },
            {
                "start_time": 9.0318182,
                "end_time": 9.0977273,
                "pitch": 52,
                "velocity": 80,
                "duration": 0.0659091,
                "tempo": 120.0
            },
            {
                "start_time": 9.1318182,
                "end_time": 9.1977273,
                "pitch": 40,
                "velocity": 80,
                "duration": 0.0659091,
                "tempo": 120.0
            },
            {
                "start_time": 9.2340909,
                "end_time": 9.2977273,
                "pitch": 40,
                "velocity": 101,
                "duration": 0.0636364,
                "tempo": 120.0
            },
            {
                "start_time": 9.3340909,
                "end_time": 9.4,
                "pitch": 40,
                "velocity": 80,
                "duration": 0.0659091,
                "tempo": 120.0
            },
            {
                "start_time": 9.4340909,
                "end_time": 9.5,
                "pitch": 52,
                "velocity": 80,
                "duration": 0.0659091,
                "tempo": 120.0
            },
            {
                "start_time": 9.5340909,
                "end_time": 9.6022727,
                "pitch": 40,
                "velocity": 80,
                "duration": 0.0681818,
                "tempo": 120.0
            },
            {
                "start_time": 9.6386364,
                "end_time": 9.7022727,
                "pitch": 41,
                "velocity": 101,
                "duration": 0.0636364,
                "tempo": 120.0
            },
            {
                "start_time": 9.7363636,
                "end_time": 9.8022727,
                "pitch": 41,
                "velocity": 80,
                "duration": 0.0659091,
                "tempo": 120.0
            },
            {
                "start_time": 9.8363636,
                "end_time": 9.9022727,
                "pitch": 53,
                "velocity": 80,
                "duration": 0.0659091,
                "tempo": 120.0
            },
            {
                "start_time": 9.9363636,
                "end_time": 10.0022727,
                "pitch": 41,
                "velocity": 80,
                "duration": 0.0659091,
                "tempo": 120.0
            },
            {
                "start_time": 10.0363636,
                "end_time": 10.1022727,
                "pitch": 41,
                "velocity": 101,
                "duration": 0.0659091,
                "tempo": 120.0
            },
            {
                "start_time": 10.1363636,
                "end_time": 10.2022727,
                "pitch": 41,
                "velocity": 80,
                "duration": 0.0659091,
                "tempo": 120.0
            },
            {
                "start_time": 10.2386364,
                "end_time": 10.3045455,
                "pitch": 53,
                "velocity": 80,
                "duration": 0.0659091,
                "tempo": 120.0
            },
            {
                "start_time": 10.3386364,
                "end_time": 10.4045455,
                "pitch": 41,
                "velocity": 80,
                "duration": 0.0659091,
                "tempo": 120.0
            },
            {
                "start_time": 10.4409091,
                "end_time": 10.5068182,
                "pitch": 41,
                "velocity": 101,
                "duration": 0.0659091,
                "tempo": 120.0
            },
            {
                "start_time": 10.5409091,
                "end_time": 10.6068182,
                "pitch": 41,
                "velocity": 80,
                "duration": 0.0659091,
                "tempo": 120.0
            },
            {
                "start_time": 10.6409091,
                "end_time": 10.7068182,
                "pitch": 53,
                "velocity": 80,
                "duration": 0.0659091,
                "tempo": 120.0
            },
            {
                "start_time": 10.7409091,
                "end_time": 10.8090909,
                "pitch": 41,
                "velocity": 80,
                "duration": 0.0681818,
                "tempo": 120.0
            },
            {
                "start_time": 10.8431818,
                "end_time": 10.9090909,
                "pitch": 41,
                "velocity": 101,
                "duration": 0.0659091,
                "tempo": 120.0
            },
            {
                "start_time": 10.9431818,
                "end_time": 11.0090909,
                "pitch": 41,
                "velocity": 80,
                "duration": 0.0659091,
                "tempo": 120.0
            },
            {
                "start_time": 11.0454545,
                "end_time": 11.1113636,
                "pitch": 53,
                "velocity": 80,
                "duration": 0.0659091,
                "tempo": 120.0
            },
            {
                "start_time": 11.1454545,
                "end_time": 11.2113636,
                "pitch": 41,
                "velocity": 80,
                "duration": 0.0659091,
                "tempo": 120.0
            },
            {
                "start_time": 11.2477273,
                "end_time": 11.3113636,
                "pitch": 40,
                "velocity": 101,
                "duration": 0.0636364,
                "tempo": 120.0
            },
            {
                "start_time": 11.3454545,
                "end_time": 11.4136364,
                "pitch": 40,
                "velocity": 80,
                "duration": 0.0681818,
                "tempo": 120.0
            },
            {
                "start_time": 11.4477273,
                "end_time": 11.5136364,
                "pitch": 52,
                "velocity": 80,
                "duration": 0.0659091,
                "tempo": 120.0
            },
            {
                "start_time": 11.5477273,
                "end_time": 11.6136364,
                "pitch": 40,
                "velocity": 80,
                "duration": 0.0659091,
                "tempo": 120.0
            },
            {
                "start_time": 11.65,
                "end_time": 11.7159091,
                "pitch": 40,
                "velocity": 101,
                "duration": 0.0659091,
                "tempo": 120.0
            },
            {
                "start_time": 11.75,
                "end_time": 11.8159091,
                "pitch": 40,
                "velocity": 80,
                "duration": 0.0659091,
                "tempo": 120.0
            },
            {
                "start_time": 11.85,
                "end_time": 11.9159091,
                "pitch": 52,
                "velocity": 80,
                "duration": 0.0659091,
                "tempo": 120.0
            },
            {
                "start_time": 11.95,
                "end_time": 12.0159091,
                "pitch": 40,
                "velocity": 80,
                "duration": 0.0659091,
                "tempo": 120.0
            },
            {
                "start_time": 12.05,
                "end_time": 12.1159091,
                "pitch": 40,
                "velocity": 101,
                "duration": 0.0659091,
                "tempo": 120.0
            },
            {
                "start_time": 12.15,
                "end_time": 12.2159091,
                "pitch": 40,
                "velocity": 80,
                "duration": 0.0659091,
                "tempo": 120.0
            },
            {
                "start_time": 12.25,
                "end_time": 12.3181818,
                "pitch": 52,
                "velocity": 80,
                "duration": 0.0681818,
                "tempo": 120.0
            },
            {
                "start_time": 12.3522727,
                "end_time": 12.4181818,
                "pitch": 40,
                "velocity": 80,
                "duration": 0.0659091,
                "tempo": 120.0
            },
            {
                "start_time": 12.4522727,
                "end_time": 12.5181818,
                "pitch": 40,
                "velocity": 101,
                "duration": 0.0659091,
                "tempo": 120.0
            },
            {
                "start_time": 12.5522727,
                "end_time": 12.6204545,
                "pitch": 40,
                "velocity": 80,
                "duration": 0.0681818,
                "tempo": 120.0
            },
            {
                "start_time": 12.6545455,
                "end_time": 12.7204545,
                "pitch": 52,
                "velocity": 80,
                "duration": 0.0659091,
                "tempo": 120.0
            },
            {
                "start_time": 12.7545455,
                "end_time": 12.8204545,
                "pitch": 40,
                "velocity": 80,
                "duration": 0.0659091,
                "tempo": 120.0
            },
            {
                "start_time": 12.8590909,
                "end_time": 12.9227273,
                "pitch": 45,
                "velocity": 101,
                "duration": 0.0636364,
                "tempo": 120.0
            },
            {
                "start_time": 12.9568182,
                "end_time": 13.0227273,
                "pitch": 45,
                "velocity": 80,
                "duration": 0.0659091,
                "tempo": 120.0
            },
            {
                "start_time": 13.0568182,
                "end_time": 13.125,
                "pitch": 57,
                "velocity": 80,
                "duration": 0.0681818,
                "tempo": 120.0
            },
            {
                "start_time": 13.1590909,
                "end_time": 13.225,
                "pitch": 45,
                "velocity": 80,
                "duration": 0.0659091,
                "tempo": 120.0
            },
            {
                "start_time": 13.2590909,
                "end_time": 13.325,
                "pitch": 45,
                "velocity": 101,
                "duration": 0.0659091,
                "tempo": 120.0
            },
            {
                "start_time": 13.3590909,
                "end_time": 13.4272727,
                "pitch": 45,
                "velocity": 80,
                "duration": 0.0681818,
                "tempo": 120.0
            },
            {
                "start_time": 13.4613636,
                "end_time": 13.5272727,
                "pitch": 57,
                "velocity": 80,
                "duration": 0.0659091,
                "tempo": 120.0
            },
            {
                "start_time": 13.5613636,
                "end_time": 13.6272727,
                "pitch": 45,
                "velocity": 80,
                "duration": 0.0659091,
                "tempo": 120.0
            },
            {
                "start_time": 13.6636364,
                "end_time": 13.7272727,
                "pitch": 45,
                "velocity": 101,
                "duration": 0.0636364,
                "tempo": 120.0
            },
            {
                "start_time": 13.7613636,
                "end_time": 13.8272727,
                "pitch": 45,
                "velocity": 80,
                "duration": 0.0659091,
                "tempo": 120.0
            },
            {
                "start_time": 13.8613636,
                "end_time": 13.9295455,
                "pitch": 57,
                "velocity": 80,
                "duration": 0.0681818,
                "tempo": 120.0
            },
            {
                "start_time": 13.9636364,
                "end_time": 14.0295455,
                "pitch": 45,
                "velocity": 80,
                "duration": 0.0659091,
                "tempo": 120.0
            },
            {
                "start_time": 14.0636364,
                "end_time": 14.1295455,
                "pitch": 45,
                "velocity": 101,
                "duration": 0.0659091,
                "tempo": 120.0
            },
            {
                "start_time": 14.1636364,
                "end_time": 14.2295455,
                "pitch": 45,
                "velocity": 80,
                "duration": 0.0659091,
                "tempo": 120.0
            },
            {
                "start_time": 14.2659091,
                "end_time": 14.3318182,
                "pitch": 57,
                "velocity": 80,
                "duration": 0.0659091,
                "tempo": 120.0
            },
            {
                "start_time": 14.3659091,
                "end_time": 14.4318182,
                "pitch": 45,
                "velocity": 80,
                "duration": 0.0659091,
                "tempo": 120.0
            },
            {
                "start_time": 14.4681818,
                "end_time": 14.5318182,
                "pitch": 40,
                "velocity": 101,
                "duration": 0.0636364,
                "tempo": 120.0
            },
            {
                "start_time": 14.5659091,
                "end_time": 14.6340909,
                "pitch": 40,
                "velocity": 80,
                "duration": 0.0681818,
                "tempo": 120.0
            },
            {
                "start_time": 14.6681818,
                "end_time": 14.7340909,
                "pitch": 52,
                "velocity": 80,
                "duration": 0.0659091,
                "tempo": 120.0
            },
            {
                "start_time": 14.7681818,
                "end_time": 14.8340909,
                "pitch": 40,
                "velocity": 80,
                "duration": 0.0659091,
                "tempo": 120.0
            },
            {
                "start_time": 14.8704545,
                "end_time": 14.9363636,
                "pitch": 40,
                "velocity": 101,
                "duration": 0.0659091,
                "tempo": 120.0
            },
            {
                "start_time": 14.9704545,
                "end_time": 15.0363636,
                "pitch": 40,
                "velocity": 80,
                "duration": 0.0659091,
                "tempo": 120.0
            },
            {
                "start_time": 15.0704545,
                "end_time": 15.1363636,
                "pitch": 52,
                "velocity": 80,
                "duration": 0.0659091,
                "tempo": 120.0
            },
            {
                "start_time": 15.1704545,
                "end_time": 15.2386364,
                "pitch": 40,
                "velocity": 80,
                "duration": 0.0681818,
                "tempo": 120.0
            },
            {
                "start_time": 15.2727273,
                "end_time": 15.3386364,
                "pitch": 40,
                "velocity": 101,
                "duration": 0.0659091,
                "tempo": 120.0
            },
            {
                "start_time": 15.3727273,
                "end_time": 15.4386364,
                "pitch": 40,
                "velocity": 80,
                "duration": 0.0659091,
                "tempo": 120.0
            },
            {
                "start_time": 15.475,
                "end_time": 15.5409091,
                "pitch": 52,
                "velocity": 80,
                "duration": 0.0659091,
                "tempo": 120.0
            },
            {
                "start_time": 15.575,
                "end_time": 15.6409091,
                "pitch": 40,
                "velocity": 80,
                "duration": 0.0659091,
                "tempo": 120.0
            },
            {
                "start_time": 15.6772727,
                "end_time": 15.7409091,
                "pitch": 40,
                "velocity": 101,
                "duration": 0.0636364,
                "tempo": 120.0
            },
            {
                "start_time": 15.775,
                "end_time": 15.8409091,
                "pitch": 40,
                "velocity": 80,
                "duration": 0.0659091,
                "tempo": 120.0
            },
            {
                "start_time": 15.8772727,
                "end_time": 15.9409091,
                "pitch": 52,
                "velocity": 80,
                "duration": 0.0636364,
                "tempo": 120.0
            },
            {
                "start_time": 15.975,
                "end_time": 16.0409091,
                "pitch": 40,
                "velocity": 80,
                "duration": 0.0659091,
                "tempo": 120.0
            },
            {
                "start_time": 16.0772727,
                "end_time": 16.1431818,
                "pitch": 41,
                "velocity": 101,
                "duration": 0.0659091,
                "tempo": 120.0
            },
            {
                "start_time": 16.1795455,
                "end_time": 16.2477273,
                "pitch": 41,
                "velocity": 80,
                "duration": 0.0681818,
                "tempo": 120.0
            },
            {
                "start_time": 16.2818182,
                "end_time": 16.35,
                "pitch": 53,
                "velocity": 80,
                "duration": 0.0681818,
                "tempo": 120.0
            },
            {
                "start_time": 16.3840909,
                "end_time": 16.4522727,
                "pitch": 41,
                "velocity": 80,
                "duration": 0.0681818,
                "tempo": 120.0
            },
            {
                "start_time": 16.4886364,
                "end_time": 16.5545455,
                "pitch": 41,
                "velocity": 101,
                "duration": 0.0659091,
                "tempo": 120.0
            },
            {
                "start_time": 16.5886364,
                "end_time": 16.6545455,
                "pitch": 41,
                "velocity": 80,
                "duration": 0.0659091,
                "tempo": 120.0
            },
            {
                "start_time": 16.6886364,
                "end_time": 16.7545455,
                "pitch": 53,
                "velocity": 80,
                "duration": 0.0659091,
                "tempo": 120.0
            },
            {
                "start_time": 16.7909091,
                "end_time": 16.8568182,
                "pitch": 41,
                "velocity": 80,
                "duration": 0.0659091,
                "tempo": 120.0
            },
            {
                "start_time": 16.8909091,
                "end_time": 16.9568182,
                "pitch": 41,
                "velocity": 101,
                "duration": 0.0659091,
                "tempo": 120.0
            },
            {
                "start_time": 16.9909091,
                "end_time": 17.0568182,
                "pitch": 41,
                "velocity": 80,
                "duration": 0.0659091,
                "tempo": 120.0
            },
            {
                "start_time": 17.0909091,
                "end_time": 17.1568182,
                "pitch": 53,
                "velocity": 80,
                "duration": 0.0659091,
                "tempo": 120.0
            },
            {
                "start_time": 17.1909091,
                "end_time": 17.2568182,
                "pitch": 41,
                "velocity": 80,
                "duration": 0.0659091,
                "tempo": 120.0
            },
            {
                "start_time": 17.2931818,
                "end_time": 17.3568182,
                "pitch": 41,
                "velocity": 101,
                "duration": 0.0636364,
                "tempo": 120.0
            },
            {
                "start_time": 17.3931818,
                "end_time": 17.4568182,
                "pitch": 41,
                "velocity": 80,
                "duration": 0.0636364,
                "tempo": 120.0
            },
            {
                "start_time": 17.4931818,
                "end_time": 17.5568182,
                "pitch": 53,
                "velocity": 80,
                "duration": 0.0636364,
                "tempo": 120.0
            },
            {
                "start_time": 17.5909091,
                "end_time": 17.6568182,
                "pitch": 41,
                "velocity": 80,
                "duration": 0.0659091,
                "tempo": 120.0
            },
            {
                "start_time": 17.6931818,
                "end_time": 17.7590909,
                "pitch": 40,
                "velocity": 101,
                "duration": 0.0659091,
                "tempo": 120.0
            },
            {
                "start_time": 17.7931818,
                "end_time": 17.8590909,
                "pitch": 40,
                "velocity": 80,
                "duration": 0.0659091,
                "tempo": 120.0
            },
            {
                "start_time": 17.8931818,
                "end_time": 17.9590909,
                "pitch": 52,
                "velocity": 80,
                "duration": 0.0659091,
                "tempo": 120.0
            },
            {
                "start_time": 17.9931818,
                "end_time": 18.0613636,
                "pitch": 40,
                "velocity": 80,
                "duration": 0.0681818,
                "tempo": 120.0
            },
            {
                "start_time": 18.0954545,
                "end_time": 18.1613636,
                "pitch": 40,
                "velocity": 101,
                "duration": 0.0659091,
                "tempo": 120.0
            },
            {
                "start_time": 18.1954545,
                "end_time": 18.2613636,
                "pitch": 40,
                "velocity": 80,
                "duration": 0.0659091,
                "tempo": 120.0
            },
            {
                "start_time": 18.2954545,
                "end_time": 18.3613636,
                "pitch": 52,
                "velocity": 80,
                "duration": 0.0659091,
                "tempo": 120.0
            },
            {
                "start_time": 18.3954545,
                "end_time": 18.4613636,
                "pitch": 40,
                "velocity": 80,
                "duration": 0.0659091,
                "tempo": 120.0
            },
            {
                "start_time": 18.4954545,
                "end_time": 18.5613636,
                "pitch": 40,
                "velocity": 101,
                "duration": 0.0659091,
                "tempo": 120.0
            },
            {
                "start_time": 18.5954545,
                "end_time": 18.6636364,
                "pitch": 40,
                "velocity": 80,
                "duration": 0.0681818,
                "tempo": 120.0
            },
            {
                "start_time": 18.6977273,
                "end_time": 18.7636364,
                "pitch": 52,
                "velocity": 80,
                "duration": 0.0659091,
                "tempo": 120.0
            },
            {
                "start_time": 18.7977273,
                "end_time": 18.8636364,
                "pitch": 40,
                "velocity": 80,
                "duration": 0.0659091,
                "tempo": 120.0
            },
            {
                "start_time": 18.9,
                "end_time": 18.9636364,
                "pitch": 40,
                "velocity": 101,
                "duration": 0.0636364,
                "tempo": 120.0
            },
            {
                "start_time": 18.9977273,
                "end_time": 19.0659091,
                "pitch": 40,
                "velocity": 80,
                "duration": 0.0681818,
                "tempo": 120.0
            },
            {
                "start_time": 19.0977273,
                "end_time": 19.1659091,
                "pitch": 52,
                "velocity": 80,
                "duration": 0.0681818,
                "tempo": 120.0
            },
            {
                "start_time": 19.2,
                "end_time": 19.2659091,
                "pitch": 40,
                "velocity": 80,
                "duration": 0.0659091,
                "tempo": 120.0
            },
            {
                "start_time": 19.3022727,
                "end_time": 19.3659091,
                "pitch": 45,
                "velocity": 101,
                "duration": 0.0636364,
                "tempo": 120.0
            },
            {
                "start_time": 19.4022727,
                "end_time": 19.4704545,
                "pitch": 45,
                "velocity": 80,
                "duration": 0.0681818,
                "tempo": 120.0
            },
            {
                "start_time": 19.5045455,
                "end_time": 19.5727273,
                "pitch": 57,
                "velocity": 80,
                "duration": 0.0681818,
                "tempo": 120.0
            },
            {
                "start_time": 19.6068182,
                "end_time": 19.675,
                "pitch": 45,
                "velocity": 80,
                "duration": 0.0681818,
                "tempo": 120.0
            },
            {
                "start_time": 19.7113636,
                "end_time": 19.7772727,
                "pitch": 45,
                "velocity": 101,
                "duration": 0.0659091,
                "tempo": 120.0
            },
            {
                "start_time": 19.8113636,
                "end_time": 19.8772727,
                "pitch": 45,
                "velocity": 80,
                "duration": 0.0659091,
                "tempo": 120.0
            },
            {
                "start_time": 19.9113636,
                "end_time": 19.9772727,
                "pitch": 57,
                "velocity": 80,
                "duration": 0.0659091,
                "tempo": 120.0
            },
            {
                "start_time": 20.0113636,
                "end_time": 20.0772727,
                "pitch": 45,
                "velocity": 80,
                "duration": 0.0659091,
                "tempo": 120.0
            },
            {
                "start_time": 20.1136364,
                "end_time": 20.1772727,
                "pitch": 45,
                "velocity": 101,
                "duration": 0.0636364,
                "tempo": 120.0
            },
            {
                "start_time": 20.2113636,
                "end_time": 20.2795455,
                "pitch": 45,
                "velocity": 80,
                "duration": 0.0681818,
                "tempo": 120.0
            },
            {
                "start_time": 20.3136364,
                "end_time": 20.3795455,
                "pitch": 57,
                "velocity": 80,
                "duration": 0.0659091,
                "tempo": 120.0
            },
            {
                "start_time": 20.4136364,
                "end_time": 20.4795455,
                "pitch": 45,
                "velocity": 80,
                "duration": 0.0659091,
                "tempo": 120.0
            },
            {
                "start_time": 20.5159091,
                "end_time": 20.5795455,
                "pitch": 45,
                "velocity": 101,
                "duration": 0.0636364,
                "tempo": 120.0
            },
            {
                "start_time": 20.6136364,
                "end_time": 20.6795455,
                "pitch": 45,
                "velocity": 80,
                "duration": 0.0659091,
                "tempo": 120.0
            },
            {
                "start_time": 20.7159091,
                "end_time": 20.7795455,
                "pitch": 57,
                "velocity": 80,
                "duration": 0.0636364,
                "tempo": 120.0
            },
            {
                "start_time": 20.8136364,
                "end_time": 20.8818182,
                "pitch": 45,
                "velocity": 80,
                "duration": 0.0681818,
                "tempo": 120.0
            },
            {
                "start_time": 20.9159091,
                "end_time": 20.9818182,
                "pitch": 40,
                "velocity": 101,
                "duration": 0.0659091,
                "tempo": 120.0
            },
            {
                "start_time": 21.0159091,
                "end_time": 21.0818182,
                "pitch": 40,
                "velocity": 80,
                "duration": 0.0659091,
                "tempo": 120.0
            },
            {
                "start_time": 21.1159091,
                "end_time": 21.1818182,
                "pitch": 52,
                "velocity": 80,
                "duration": 0.0659091,
                "tempo": 120.0
            },
            {
                "start_time": 21.2159091,
                "end_time": 21.2818182,
                "pitch": 40,
                "velocity": 80,
                "duration": 0.0659091,
                "tempo": 120.0
            },
            {
                "start_time": 21.3159091,
                "end_time": 21.3818182,
                "pitch": 40,
                "velocity": 101,
                "duration": 0.0659091,
                "tempo": 120.0
            },
            {
                "start_time": 21.4159091,
                "end_time": 21.4818182,
                "pitch": 40,
                "velocity": 80,
                "duration": 0.0659091,
                "tempo": 120.0
            },
            {
                "start_time": 21.5181818,
                "end_time": 21.5840909,
                "pitch": 52,
                "velocity": 80,
                "duration": 0.0659091,
                "tempo": 120.0
            },
            {
                "start_time": 21.6181818,
                "end_time": 21.6840909,
                "pitch": 40,
                "velocity": 80,
                "duration": 0.0659091,
                "tempo": 120.0
            },
            {
                "start_time": 21.7204545,
                "end_time": 21.7840909,
                "pitch": 40,
                "velocity": 101,
                "duration": 0.0636364,
                "tempo": 120.0
            },
            {
                "start_time": 21.8181818,
                "end_time": 21.8840909,
                "pitch": 40,
                "velocity": 80,
                "duration": 0.0659091,
                "tempo": 120.0
            },
            {
                "start_time": 21.9204545,
                "end_time": 21.9840909,
                "pitch": 52,
                "velocity": 80,
                "duration": 0.0636364,
                "tempo": 120.0
            },
            {
                "start_time": 22.0181818,
                "end_time": 22.0840909,
                "pitch": 40,
                "velocity": 80,
                "duration": 0.0659091,
                "tempo": 120.0
            },
            {
                "start_time": 22.1204545,
                "end_time": 22.1863636,
                "pitch": 40,
                "velocity": 101,
                "duration": 0.0659091,
                "tempo": 120.0
            },
            {
                "start_time": 22.2204545,
                "end_time": 22.2863636,
                "pitch": 40,
                "velocity": 80,
                "duration": 0.0659091,
                "tempo": 120.0
            },
            {
                "start_time": 22.3204545,
                "end_time": 22.3863636,
                "pitch": 52,
                "velocity": 80,
                "duration": 0.0659091,
                "tempo": 120.0
            },
            {
                "start_time": 22.4204545,
                "end_time": 22.4886364,
                "pitch": 40,
                "velocity": 80,
                "duration": 0.0681818,
                "tempo": 120.0
            },
            {
                "start_time": 22.525,
                "end_time": 22.5886364,
                "pitch": 41,
                "velocity": 101,
                "duration": 0.0636364,
                "tempo": 120.0
            },
            {
                "start_time": 22.6227273,
                "end_time": 22.6886364,
                "pitch": 41,
                "velocity": 80,
                "duration": 0.0659091,
                "tempo": 120.0
            },
            {
                "start_time": 22.7227273,
                "end_time": 22.7886364,
                "pitch": 53,
                "velocity": 80,
                "duration": 0.0659091,
                "tempo": 120.0
            },
            {
                "start_time": 22.8227273,
                "end_time": 22.8886364,
                "pitch": 41,
                "velocity": 80,
                "duration": 0.0659091,
                "tempo": 120.0
            },
            {
                "start_time": 22.925,
                "end_time": 22.9886364,
                "pitch": 41,
                "velocity": 101,
                "duration": 0.0636364,
                "tempo": 120.0
            },
            {
                "start_time": 23.0227273,
                "end_time": 23.0886364,
                "pitch": 41,
                "velocity": 80,
                "duration": 0.0659091,
                "tempo": 120.0
            },
            {
                "start_time": 23.1227273,
                "end_time": 23.1886364,
                "pitch": 53,
                "velocity": 80,
                "duration": 0.0659091,
                "tempo": 120.0
            },
            {
                "start_time": 23.2227273,
                "end_time": 23.2886364,
                "pitch": 41,
                "velocity": 80,
                "duration": 0.0659091,
                "tempo": 120.0
            },
            {
                "start_time": 23.325,
                "end_time": 23.3909091,
                "pitch": 41,
                "velocity": 101,
                "duration": 0.0659091,
                "tempo": 120.0
            },
            {
                "start_time": 23.425,
                "end_time": 23.4909091,
                "pitch": 41,
                "velocity": 80,
                "duration": 0.0659091,
                "tempo": 120.0
            },
            {
                "start_time": 23.525,
                "end_time": 23.5909091,
                "pitch": 53,
                "velocity": 80,
                "duration": 0.0659091,
                "tempo": 120.0
            },
            {
                "start_time": 23.625,
                "end_time": 23.6931818,
                "pitch": 41,
                "velocity": 80,
                "duration": 0.0681818,
                "tempo": 120.0
            },
            {
                "start_time": 23.7272727,
                "end_time": 23.7931818,
                "pitch": 41,
                "velocity": 101,
                "duration": 0.0659091,
                "tempo": 120.0
            },
            {
                "start_time": 23.8272727,
                "end_time": 23.8931818,
                "pitch": 41,
                "velocity": 80,
                "duration": 0.0659091,
                "tempo": 120.0
            },
            {
                "start_time": 23.9272727,
                "end_time": 23.9931818,
                "pitch": 53,
                "velocity": 80,
                "duration": 0.0659091,
                "tempo": 120.0
            },
            {
                "start_time": 24.0272727,
                "end_time": 24.0931818,
                "pitch": 41,
                "velocity": 80,
                "duration": 0.0659091,
                "tempo": 120.0
            },
            {
                "start_time": 24.1295455,
                "end_time": 24.1931818,
                "pitch": 40,
                "velocity": 101,
                "duration": 0.0636364,
                "tempo": 120.0
            },
            {
                "start_time": 24.2272727,
                "end_time": 24.2954545,
                "pitch": 40,
                "velocity": 80,
                "duration": 0.0681818,
                "tempo": 120.0
            },
            {
                "start_time": 24.3295455,
                "end_time": 24.3954545,
                "pitch": 52,
                "velocity": 80,
                "duration": 0.0659091,
                "tempo": 120.0
            },
            {
                "start_time": 24.4295455,
                "end_time": 24.4954545,
                "pitch": 40,
                "velocity": 80,
                "duration": 0.0659091,
                "tempo": 120.0
            },
            {
                "start_time": 24.5318182,
                "end_time": 24.5954545,
                "pitch": 40,
                "velocity": 101,
                "duration": 0.0636364,
                "tempo": 120.0
            },
            {
                "start_time": 24.6295455,
                "end_time": 24.6954545,
                "pitch": 40,
                "velocity": 80,
                "duration": 0.0659091,
                "tempo": 120.0
            },
            {
                "start_time": 24.7295455,
                "end_time": 24.7954545,
                "pitch": 52,
                "velocity": 80,
                "duration": 0.0659091,
                "tempo": 120.0
            },
            {
                "start_time": 24.8295455,
                "end_time": 24.8977273,
                "pitch": 40,
                "velocity": 80,
                "duration": 0.0681818,
                "tempo": 120.0
            },
            {
                "start_time": 24.9318182,
                "end_time": 24.9977273,
                "pitch": 40,
                "velocity": 101,
                "duration": 0.0659091,
                "tempo": 120.0
            },
            {
                "start_time": 25.0318182,
                "end_time": 25.0977273,
                "pitch": 40,
                "velocity": 80,
                "duration": 0.0659091,
                "tempo": 120.0
            },
            {
                "start_time": 25.1318182,
                "end_time": 25.1977273,
                "pitch": 52,
                "velocity": 80,
                "duration": 0.0659091,
                "tempo": 120.0
            },
            {
                "start_time": 25.2318182,
                "end_time": 25.2977273,
                "pitch": 40,
                "velocity": 80,
                "duration": 0.0659091,
                "tempo": 120.0
            },
            {
                "start_time": 25.3318182,
                "end_time": 25.3977273,
                "pitch": 40,
                "velocity": 101,
                "duration": 0.0659091,
                "tempo": 120.0
            },
            {
                "start_time": 25.4318182,
                "end_time": 25.4977273,
                "pitch": 40,
                "velocity": 80,
                "duration": 0.0659091,
                "tempo": 120.0
            },
            {
                "start_time": 25.5318182,
                "end_time": 25.6,
                "pitch": 52,
                "velocity": 80,
                "duration": 0.0681818,
                "tempo": 120.0
            },
            {
                "start_time": 25.6340909,
                "end_time": 25.7,
                "pitch": 40,
                "velocity": 80,
                "duration": 0.0659091,
                "tempo": 120.0
            },
            {
                "start_time": 25.7363636,
                "end_time": 25.8,
                "pitch": 45,
                "velocity": 101,
                "duration": 0.0636364,
                "tempo": 120.0
            },
            {
                "start_time": 25.8340909,
                "end_time": 25.9,
                "pitch": 45,
                "velocity": 80,
                "duration": 0.0659091,
                "tempo": 120.0
            },
            {
                "start_time": 25.9363636,
                "end_time": 26.0,
                "pitch": 57,
                "velocity": 80,
                "duration": 0.0636364,
                "tempo": 120.0
            },
            {
                "start_time": 26.0340909,
                "end_time": 26.1,
                "pitch": 45,
                "velocity": 80,
                "duration": 0.0659091,
                "tempo": 120.0
            },
            {
                "start_time": 26.1363636,
                "end_time": 26.2022727,
                "pitch": 45,
                "velocity": 101,
                "duration": 0.0659091,
                "tempo": 120.0
            },
            {
                "start_time": 26.2363636,
                "end_time": 26.3022727,
                "pitch": 45,
                "velocity": 80,
                "duration": 0.0659091,
                "tempo": 120.0
            },
            {
                "start_time": 26.3363636,
                "end_time": 26.4022727,
                "pitch": 57,
                "velocity": 80,
                "duration": 0.0659091,
                "tempo": 120.0
            },
            {
                "start_time": 26.4363636,
                "end_time": 26.5045455,
                "pitch": 45,
                "velocity": 80,
                "duration": 0.0681818,
                "tempo": 120.0
            },
            {
                "start_time": 26.5386364,
                "end_time": 26.6045455,
                "pitch": 45,
                "velocity": 101,
                "duration": 0.0659091,
                "tempo": 120.0
            },
            {
                "start_time": 26.6386364,
                "end_time": 26.7045455,
                "pitch": 45,
                "velocity": 80,
                "duration": 0.0659091,
                "tempo": 120.0
            },
            {
                "start_time": 26.7386364,
                "end_time": 26.8045455,
                "pitch": 57,
                "velocity": 80,
                "duration": 0.0659091,
                "tempo": 120.0
            },
            {
                "start_time": 26.8386364,
                "end_time": 26.9045455,
                "pitch": 45,
                "velocity": 80,
                "duration": 0.0659091,
                "tempo": 120.0
            },
            {
                "start_time": 26.9409091,
                "end_time": 27.0045455,
                "pitch": 45,
                "velocity": 101,
                "duration": 0.0636364,
                "tempo": 120.0
            },
            {
                "start_time": 27.0386364,
                "end_time": 27.1045455,
                "pitch": 45,
                "velocity": 80,
                "duration": 0.0659091,
                "tempo": 120.0
            },
            {
                "start_time": 27.1386364,
                "end_time": 27.2045455,
                "pitch": 57,
                "velocity": 80,
                "duration": 0.0659091,
                "tempo": 120.0
            },
            {
                "start_time": 27.2386364,
                "end_time": 27.3045455,
                "pitch": 45,
                "velocity": 80,
                "duration": 0.0659091,
                "tempo": 120.0
            },
            {
                "start_time": 27.3409091,
                "end_time": 27.4068182,
                "pitch": 40,
                "velocity": 101,
                "duration": 0.0659091,
                "tempo": 120.0
            },
            {
                "start_time": 27.4409091,
                "end_time": 27.5090909,
                "pitch": 40,
                "velocity": 80,
                "duration": 0.0681818,
                "tempo": 120.0
            },
            {
                "start_time": 27.5454545,
                "end_time": 27.6136364,
                "pitch": 52,
                "velocity": 80,
                "duration": 0.0681818,
                "tempo": 120.0
            },
            {
                "start_time": 27.6477273,
                "end_time": 27.7159091,
                "pitch": 40,
                "velocity": 80,
                "duration": 0.0681818,
                "tempo": 120.0
            },
            {
                "start_time": 27.7522727,
                "end_time": 27.8181818,
                "pitch": 40,
                "velocity": 101,
                "duration": 0.0659091,
                "tempo": 120.0
            },
            {
                "start_time": 27.8522727,
                "end_time": 27.9181818,
                "pitch": 40,
                "velocity": 80,
                "duration": 0.0659091,
                "tempo": 120.0
            },
            {
                "start_time": 27.9522727,
                "end_time": 28.0181818,
                "pitch": 52,
                "velocity": 80,
                "duration": 0.0659091,
                "tempo": 120.0
            },
            {
                "start_time": 28.0522727,
                "end_time": 28.1204545,
                "pitch": 40,
                "velocity": 80,
                "duration": 0.0681818,
                "tempo": 120.0
            },
            {
                "start_time": 28.1545455,
                "end_time": 28.2204545,
                "pitch": 40,
                "velocity": 101,
                "duration": 0.0659091,
                "tempo": 120.0
            },
            {
                "start_time": 28.2545455,
                "end_time": 28.3204545,
                "pitch": 40,
                "velocity": 80,
                "duration": 0.0659091,
                "tempo": 120.0
            },
            {
                "start_time": 28.3545455,
                "end_time": 28.4204545,
                "pitch": 52,
                "velocity": 80,
                "duration": 0.0659091,
                "tempo": 120.0
            },
            {
                "start_time": 28.4545455,
                "end_time": 28.5204545,
                "pitch": 40,
                "velocity": 80,
                "duration": 0.0659091,
                "tempo": 120.0
            },
            {
                "start_time": 28.5568182,
                "end_time": 28.6204545,
                "pitch": 40,
                "velocity": 101,
                "duration": 0.0636364,
                "tempo": 120.0
            },
            {
                "start_time": 28.6545455,
                "end_time": 28.7227273,
                "pitch": 40,
                "velocity": 80,
                "duration": 0.0681818,
                "tempo": 120.0
            },
            {
                "start_time": 28.7568182,
                "end_time": 28.8227273,
                "pitch": 52,
                "velocity": 80,
                "duration": 0.0659091,
                "tempo": 120.0
            },
            {
                "start_time": 28.8568182,
                "end_time": 28.9227273,
                "pitch": 40,
                "velocity": 80,
                "duration": 0.0659091,
                "tempo": 120.0
            },
            {
                "start_time": 28.9590909,
                "end_time": 29.0227273,
                "pitch": 41,
                "velocity": 101,
                "duration": 0.0636364,
                "tempo": 120.0
            },
            {
                "start_time": 29.0568182,
                "end_time": 29.1227273,
                "pitch": 41,
                "velocity": 80,
                "duration": 0.0659091,
                "tempo": 120.0
            },
            {
                "start_time": 29.1590909,
                "end_time": 29.225,
                "pitch": 53,
                "velocity": 80,
                "duration": 0.0659091,
                "tempo": 120.0
            },
            {
                "start_time": 29.2568182,
                "end_time": 29.325,
                "pitch": 41,
                "velocity": 80,
                "duration": 0.0681818,
                "tempo": 120.0
            },
            {
                "start_time": 29.3590909,
                "end_time": 29.425,
                "pitch": 41,
                "velocity": 101,
                "duration": 0.0659091,
                "tempo": 120.0
            },
            {
                "start_time": 29.4590909,
                "end_time": 29.525,
                "pitch": 41,
                "velocity": 80,
                "duration": 0.0659091,
                "tempo": 120.0
            },
            {
                "start_time": 29.5590909,
                "end_time": 29.625,
                "pitch": 53,
                "velocity": 80,
                "duration": 0.0659091,
                "tempo": 120.0
            },
            {
                "start_time": 29.6590909,
                "end_time": 29.725,
                "pitch": 41,
                "velocity": 80,
                "duration": 0.0659091,
                "tempo": 120.0
            },
            {
                "start_time": 29.7590909,
                "end_time": 29.825,
                "pitch": 41,
                "velocity": 101,
                "duration": 0.0659091,
                "tempo": 120.0
            },
            {
                "start_time": 29.8590909,
                "end_time": 29.925,
                "pitch": 41,
                "velocity": 80,
                "duration": 0.0659091,
                "tempo": 120.0
            },
            {
                "start_time": 29.9613636,
                "end_time": 30.0272727,
                "pitch": 53,
                "velocity": 80,
                "duration": 0.0659091,
                "tempo": 120.0
            },
            {
                "start_time": 30.0613636,
                "end_time": 30.1272727,
                "pitch": 41,
                "velocity": 80,
                "duration": 0.0659091,
                "tempo": 120.0
            },
            {
                "start_time": 30.1636364,
                "end_time": 30.2272727,
                "pitch": 41,
                "velocity": 101,
                "duration": 0.0636364,
                "tempo": 120.0
            },
            {
                "start_time": 30.2613636,
                "end_time": 30.3272727,
                "pitch": 41,
                "velocity": 80,
                "duration": 0.0659091,
                "tempo": 120.0
            },
            {
                "start_time": 30.3636364,
                "end_time": 30.4272727,
                "pitch": 53,
                "velocity": 80,
                "duration": 0.0636364,
                "tempo": 120.0
            },
            {
                "start_time": 30.4613636,
                "end_time": 30.5272727,
                "pitch": 41,
                "velocity": 80,
                "duration": 0.0659091,
                "tempo": 120.0
            },
            {
                "start_time": 30.5636364,
                "end_time": 30.6295455,
                "pitch": 40,
                "velocity": 101,
                "duration": 0.0659091,
                "tempo": 120.0
            },
            {
                "start_time": 30.6636364,
                "end_time": 30.7295455,
                "pitch": 40,
                "velocity": 80,
                "duration": 0.0659091,
                "tempo": 120.0
            },
            {
                "start_time": 30.7636364,
                "end_time": 30.8295455,
                "pitch": 52,
                "velocity": 80,
                "duration": 0.0659091,
                "tempo": 120.0
            },
            {
                "start_time": 30.8636364,
                "end_time": 30.9318182,
                "pitch": 40,
                "velocity": 80,
                "duration": 0.0681818,
                "tempo": 120.0
            },
            {
                "start_time": 30.9659091,
                "end_time": 31.0318182,
                "pitch": 40,
                "velocity": 101,
                "duration": 0.0659091,
                "tempo": 120.0
            },
            {
                "start_time": 31.0659091,
                "end_time": 31.1318182,
                "pitch": 40,
                "velocity": 80,
                "duration": 0.0659091,
                "tempo": 120.0
            },
            {
                "start_time": 31.1659091,
                "end_time": 31.2318182,
                "pitch": 52,
                "velocity": 80,
                "duration": 0.0659091,
                "tempo": 120.0
            },
            {
                "start_time": 31.2659091,
                "end_time": 31.3318182,
                "pitch": 40,
                "velocity": 80,
                "duration": 0.0659091,
                "tempo": 120.0
            },
            {
                "start_time": 31.3659091,
                "end_time": 31.4318182,
                "pitch": 40,
                "velocity": 101,
                "duration": 0.0659091,
                "tempo": 120.0
            },
            {
                "start_time": 31.4659091,
                "end_time": 31.5318182,
                "pitch": 40,
                "velocity": 80,
                "duration": 0.0659091,
                "tempo": 120.0
            },
            {
                "start_time": 31.5659091,
                "end_time": 31.6318182,
                "pitch": 52,
                "velocity": 80,
                "duration": 0.0659091,
                "tempo": 120.0
            },
            {
                "start_time": 31.6659091,
                "end_time": 31.7318182,
                "pitch": 40,
                "velocity": 80,
                "duration": 0.0659091,
                "tempo": 120.0
            },
            {
                "start_time": 31.7681818,
                "end_time": 31.8340909,
                "pitch": 40,
                "velocity": 101,
                "duration": 0.0659091,
                "tempo": 120.0
            },
            {
                "start_time": 31.8681818,
                "end_time": 31.9340909,
                "pitch": 40,
                "velocity": 80,
                "duration": 0.0659091,
                "tempo": 120.0
            },
            {
                "start_time": 31.9681818,
                "end_time": 32.0340909,
                "pitch": 52,
                "velocity": 80,
                "duration": 0.0659091,
                "tempo": 120.0
            },
            {
                "start_time": 32.0681818,
                "end_time": 32.1363636,
                "pitch": 40,
                "velocity": 80,
                "duration": 0.0681818,
                "tempo": 120.0
            },
            {
                "start_time": 32.1727273,
                "end_time": 32.2363636,
                "pitch": 40,
                "velocity": 101,
                "duration": 0.0636364,
                "tempo": 120.0
            },
            {
                "start_time": 32.2727273,
                "end_time": 32.3409091,
                "pitch": 40,
                "velocity": 80,
                "duration": 0.0681818,
                "tempo": 120.0
            },
            {
                "start_time": 32.3772727,
                "end_time": 32.4431818,
                "pitch": 52,
                "velocity": 80,
                "duration": 0.0659091,
                "tempo": 120.0
            },
            {
                "start_time": 32.4795455,
                "end_time": 32.5454545,
                "pitch": 40,
                "velocity": 80,
                "duration": 0.0659091,
                "tempo": 120.0
            },
            {
                "start_time": 32.5818182,
                "end_time": 32.6477273,
                "pitch": 40,
                "velocity": 101,
                "duration": 0.0659091,
                "tempo": 120.0
            },
            {
                "start_time": 32.6818182,
                "end_time": 32.7477273,
                "pitch": 40,
                "velocity": 80,
                "duration": 0.0659091,
                "tempo": 120.0
            },
            {
                "start_time": 32.7840909,
                "end_time": 32.85,
                "pitch": 52,
                "velocity": 80,
                "duration": 0.0659091,
                "tempo": 120.0
            },
            {
                "start_time": 32.8840909,
                "end_time": 32.95,
                "pitch": 40,
                "velocity": 80,
                "duration": 0.0659091,
                "tempo": 120.0
            },
            {
                "start_time": 32.9863636,
                "end_time": 33.05,
                "pitch": 40,
                "velocity": 101,
                "duration": 0.0636364,
                "tempo": 120.0
            },
            {
                "start_time": 33.0863636,
                "end_time": 33.15,
                "pitch": 40,
                "velocity": 80,
                "duration": 0.0636364,
                "tempo": 120.0
            },
            {
                "start_time": 33.1863636,
                "end_time": 33.25,
                "pitch": 52,
                "velocity": 80,
                "duration": 0.0636364,
                "tempo": 120.0
            },
            {
                "start_time": 33.2863636,
                "end_time": 33.35,
                "pitch": 40,
                "velocity": 80,
                "duration": 0.0636364,
                "tempo": 120.0
            },
            {
                "start_time": 33.3863636,
                "end_time": 33.45,
                "pitch": 40,
                "velocity": 101,
                "duration": 0.0636364,
                "tempo": 120.0
            },
            {
                "start_time": 33.4863636,
                "end_time": 33.5522727,
                "pitch": 40,
                "velocity": 80,
                "duration": 0.0659091,
                "tempo": 120.0
            },
            {
                "start_time": 33.5863636,
                "end_time": 33.6522727,
                "pitch": 52,
                "velocity": 80,
                "duration": 0.0659091,
                "tempo": 120.0
            },
            {
                "start_time": 33.6863636,
                "end_time": 33.7522727,
                "pitch": 40,
                "velocity": 80,
                "duration": 0.0659091,
                "tempo": 120.0
            },
            {
                "start_time": 33.7886364,
                "end_time": 33.8522727,
                "pitch": 40,
                "velocity": 101,
                "duration": 0.0636364,
                "tempo": 120.0
            },
            {
                "start_time": 33.8863636,
                "end_time": 33.9522727,
                "pitch": 40,
                "velocity": 80,
                "duration": 0.0659091,
                "tempo": 120.0
            },
            {
                "start_time": 33.9863636,
                "end_time": 34.0522727,
                "pitch": 52,
                "velocity": 80,
                "duration": 0.0659091,
                "tempo": 120.0
            },
            {
                "start_time": 34.0863636,
                "end_time": 34.1522727,
                "pitch": 40,
                "velocity": 80,
                "duration": 0.0659091,
                "tempo": 120.0
            },
            {
                "start_time": 34.1886364,
                "end_time": 34.2522727,
                "pitch": 40,
                "velocity": 101,
                "duration": 0.0636364,
                "tempo": 120.0
            },
            {
                "start_time": 34.2863636,
                "end_time": 34.3522727,
                "pitch": 40,
                "velocity": 80,
                "duration": 0.0659091,
                "tempo": 120.0
            },
            {
                "start_time": 34.3863636,
                "end_time": 34.4522727,
                "pitch": 52,
                "velocity": 80,
                "duration": 0.0659091,
                "tempo": 120.0
            },
            {
                "start_time": 34.4863636,
                "end_time": 34.5522727,
                "pitch": 40,
                "velocity": 80,
                "duration": 0.0659091,
                "tempo": 120.0
            },
            {
                "start_time": 34.5886364,
                "end_time": 34.6522727,
                "pitch": 38,
                "velocity": 101,
                "duration": 0.0636364,
                "tempo": 120.0
            },
            {
                "start_time": 34.6886364,
                "end_time": 34.7545455,
                "pitch": 38,
                "velocity": 80,
                "duration": 0.0659091,
                "tempo": 120.0
            },
            {
                "start_time": 34.7886364,
                "end_time": 34.8545455,
                "pitch": 50,
                "velocity": 80,
                "duration": 0.0659091,
                "tempo": 120.0
            },
            {
                "start_time": 34.8886364,
                "end_time": 34.9545455,
                "pitch": 38,
                "velocity": 80,
                "duration": 0.0659091,
                "tempo": 120.0
            },
            {
                "start_time": 34.9909091,
                "end_time": 35.0568182,
                "pitch": 38,
                "velocity": 101,
                "duration": 0.0659091,
                "tempo": 120.0
            },
            {
                "start_time": 35.0909091,
                "end_time": 35.1568182,
                "pitch": 38,
                "velocity": 80,
                "duration": 0.0659091,
                "tempo": 120.0
            },
            {
                "start_time": 35.1909091,
                "end_time": 35.2568182,
                "pitch": 50,
                "velocity": 80,
                "duration": 0.0659091,
                "tempo": 120.0
            },
            {
                "start_time": 35.2909091,
                "end_time": 35.3568182,
                "pitch": 38,
                "velocity": 80,
                "duration": 0.0659091,
                "tempo": 120.0
            },
            {
                "start_time": 35.3931818,
                "end_time": 35.4568182,
                "pitch": 40,
                "velocity": 101,
                "duration": 0.0636364,
                "tempo": 120.0
            },
            {
                "start_time": 35.4909091,
                "end_time": 35.5568182,
                "pitch": 40,
                "velocity": 80,
                "duration": 0.0659091,
                "tempo": 120.0
            },
            {
                "start_time": 35.5909091,
                "end_time": 35.6568182,
                "pitch": 52,
                "velocity": 80,
                "duration": 0.0659091,
                "tempo": 120.0
            },
            {
                "start_time": 35.6909091,
                "end_time": 35.7568182,
                "pitch": 40,
                "velocity": 80,
                "duration": 0.0659091,
                "tempo": 120.0
            },
            {
                "start_time": 35.7909091,
                "end_time": 35.8568182,
                "pitch": 40,
                "velocity": 101,
                "duration": 0.0659091,
                "tempo": 120.0
            },
            {
                "start_time": 35.8909091,
                "end_time": 35.9568182,
                "pitch": 40,
                "velocity": 80,
                "duration": 0.0659091,
                "tempo": 120.0
            },
            {
                "start_time": 35.9909091,
                "end_time": 36.0568182,
                "pitch": 52,
                "velocity": 80,
                "duration": 0.0659091,
                "tempo": 120.0
            },
            {
                "start_time": 36.0909091,
                "end_time": 36.1568182,
                "pitch": 40,
                "velocity": 80,
                "duration": 0.0659091,
                "tempo": 120.0
            },
            {
                "start_time": 36.1931818,
                "end_time": 36.2568182,
                "pitch": 38,
                "velocity": 101,
                "duration": 0.0636364,
                "tempo": 120.0
            },
            {
                "start_time": 36.2931818,
                "end_time": 36.3568182,
                "pitch": 38,
                "velocity": 80,
                "duration": 0.0636364,
                "tempo": 120.0
            },
            {
                "start_time": 36.3931818,
                "end_time": 36.4568182,
                "pitch": 50,
                "velocity": 80,
                "duration": 0.0636364,
                "tempo": 120.0
            },
            {
                "start_time": 36.4909091,
                "end_time": 36.5568182,
                "pitch": 38,
                "velocity": 80,
                "duration": 0.0659091,
                "tempo": 120.0
            },
            {
                "start_time": 36.5931818,
                "end_time": 36.6590909,
                "pitch": 38,
                "velocity": 101,
                "duration": 0.0659091,
                "tempo": 120.0
            },
            {
                "start_time": 36.6931818,
                "end_time": 36.7590909,
                "pitch": 38,
                "velocity": 80,
                "duration": 0.0659091,
                "tempo": 120.0
            },
            {
                "start_time": 36.7954545,
                "end_time": 36.8590909,
                "pitch": 50,
                "velocity": 80,
                "duration": 0.0636364,
                "tempo": 120.0
            },
            {
                "start_time": 36.8931818,
                "end_time": 36.9613636,
                "pitch": 38,
                "velocity": 80,
                "duration": 0.0681818,
                "tempo": 120.0
            },
            {
                "start_time": 36.9977273,
                "end_time": 37.0636364,
                "pitch": 40,
                "velocity": 101,
                "duration": 0.0659091,
                "tempo": 120.0
            },
            {
                "start_time": 37.0977273,
                "end_time": 37.1659091,
                "pitch": 40,
                "velocity": 80,
                "duration": 0.0681818,
                "tempo": 120.0
            },
            {
                "start_time": 37.2022727,
                "end_time": 37.2681818,
                "pitch": 52,
                "velocity": 80,
                "duration": 0.0659091,
                "tempo": 120.0
            },
            {
                "start_time": 37.3022727,
                "end_time": 37.3704545,
                "pitch": 40,
                "velocity": 80,
                "duration": 0.0681818,
                "tempo": 120.0
            },
            {
                "start_time": 37.4068182,
                "end_time": 37.4704545,
                "pitch": 38,
                "velocity": 101,
                "duration": 0.0636364,
                "tempo": 120.0
            },
            {
                "start_time": 37.5045455,
                "end_time": 37.5704545,
                "pitch": 38,
                "velocity": 80,
                "duration": 0.0659091,
                "tempo": 120.0
            },
            {
                "start_time": 37.6045455,
                "end_time": 37.6681818,
                "pitch": 50,
                "velocity": 80,
                "duration": 0.0636364,
                "tempo": 120.0
            },
            {
                "start_time": 37.7,
                "end_time": 37.7659091,
                "pitch": 38,
                "velocity": 80,
                "duration": 0.0659091,
                "tempo": 120.0
            },
            {
                "start_time": 37.8,
                "end_time": 37.8659091,
                "pitch": 40,
                "velocity": 101,
                "duration": 0.0659091,
                "tempo": 120.0
            },
            {
                "start_time": 37.9,
                "end_time": 37.9659091,
                "pitch": 40,
                "velocity": 80,
                "duration": 0.0659091,
                "tempo": 120.0
            },
            {
                "start_time": 38.0,
                "end_time": 38.0659091,
                "pitch": 52,
                "velocity": 80,
                "duration": 0.0659091,
                "tempo": 120.0
            },
            {
                "start_time": 38.1,
                "end_time": 38.1659091,
                "pitch": 40,
                "velocity": 80,
                "duration": 0.0659091,
                "tempo": 120.0
            },
            {
                "start_time": 38.2,
                "end_time": 38.2659091,
                "pitch": 38,
                "velocity": 101,
                "duration": 0.0659091,
                "tempo": 120.0
            },
            {
                "start_time": 38.3,
                "end_time": 38.3659091,
                "pitch": 38,
                "velocity": 80,
                "duration": 0.0659091,
                "tempo": 120.0
            },
            {
                "start_time": 38.4,
                "end_time": 38.4659091,
                "pitch": 50,
                "velocity": 80,
                "duration": 0.0659091,
                "tempo": 120.0
            },
            {
                "start_time": 38.5,
                "end_time": 38.5659091,
                "pitch": 38,
                "velocity": 80,
                "duration": 0.0659091,
                "tempo": 120.0
            },
            {
                "start_time": 38.6022727,
                "end_time": 38.6681818,
                "pitch": 41,
                "velocity": 101,
                "duration": 0.0659091,
                "tempo": 120.0
            },
            {
                "start_time": 38.7022727,
                "end_time": 38.7704545,
                "pitch": 41,
                "velocity": 80,
                "duration": 0.0681818,
                "tempo": 120.0
            },
            {
                "start_time": 38.8068182,
                "end_time": 38.8727273,
                "pitch": 53,
                "velocity": 80,
                "duration": 0.0659091,
                "tempo": 120.0
            },
            {
                "start_time": 38.9090909,
                "end_time": 38.9772727,
                "pitch": 41,
                "velocity": 80,
                "duration": 0.0681818,
                "tempo": 120.0
            },
            {
                "start_time": 39.0136364,
                "end_time": 39.075,
                "pitch": 41,
                "velocity": 101,
                "duration": 0.0613636,
                "tempo": 120.0
            },
            {
                "start_time": 39.1090909,
                "end_time": 39.175,
                "pitch": 41,
                "velocity": 80,
                "duration": 0.0659091,
                "tempo": 120.0
            },
            {
                "start_time": 39.2090909,
                "end_time": 39.2727273,
                "pitch": 53,
                "velocity": 80,
                "duration": 0.0636364,
                "tempo": 120.0
            },
            {
                "start_time": 39.3068182,
                "end_time": 39.3704545,
                "pitch": 41,
                "velocity": 80,
                "duration": 0.0636364,
                "tempo": 120.0
            },
            {
                "start_time": 39.4068182,
                "end_time": 39.4704545,
                "pitch": 45,
                "velocity": 101,
                "duration": 0.0636364,
                "tempo": 120.0
            },
            {
                "start_time": 39.5068182,
                "end_time": 39.575,
                "pitch": 45,
                "velocity": 80,
                "duration": 0.0681818,
                "tempo": 120.0
            },
            {
                "start_time": 39.6090909,
                "end_time": 39.6772727,
                "pitch": 57,
                "velocity": 80,
                "duration": 0.0681818,
                "tempo": 120.0
            },
            {
                "start_time": 39.7136364,
                "end_time": 39.7795455,
                "pitch": 45,
                "velocity": 80,
                "duration": 0.0659091,
                "tempo": 120.0
            },
            {
                "start_time": 39.8159091,
                "end_time": 39.8795455,
                "pitch": 45,
                "velocity": 101,
                "duration": 0.0636364,
                "tempo": 120.0
            },
            {
                "start_time": 39.9136364,
                "end_time": 39.9772727,
                "pitch": 45,
                "velocity": 80,
                "duration": 0.0636364,
                "tempo": 120.0
            },
            {
                "start_time": 40.0113636,
                "end_time": 40.075,
                "pitch": 57,
                "velocity": 80,
                "duration": 0.0636364,
                "tempo": 120.0
            },
            {
                "start_time": 40.1090909,
                "end_time": 40.175,
                "pitch": 45,
                "velocity": 80,
                "duration": 0.0659091,
                "tempo": 120.0
            },
            {
                "start_time": 40.2090909,
                "end_time": 40.275,
                "pitch": 47,
                "velocity": 101,
                "duration": 0.0659091,
                "tempo": 120.0
            },
            {
                "start_time": 40.3090909,
                "end_time": 40.3772727,
                "pitch": 47,
                "velocity": 80,
                "duration": 0.0681818,
                "tempo": 120.0
            },
            {
                "start_time": 40.4136364,
                "end_time": 40.4818182,
                "pitch": 59,
                "velocity": 80,
                "duration": 0.0681818,
                "tempo": 120.0
            },
            {
                "start_time": 40.5159091,
                "end_time": 40.5840909,
                "pitch": 47,
                "velocity": 80,
                "duration": 0.0681818,
                "tempo": 120.0
            },
            {
                "start_time": 40.6204545,
                "end_time": 40.6840909,
                "pitch": 47,
                "velocity": 101,
                "duration": 0.0636364,
                "tempo": 120.0
            },
            {
                "start_time": 40.7181818,
                "end_time": 40.7840909,
                "pitch": 47,
                "velocity": 80,
                "duration": 0.0659091,
                "tempo": 120.0
            },
            {
                "start_time": 40.8204545,
                "end_time": 40.8863636,
                "pitch": 59,
                "velocity": 80,
                "duration": 0.0659091,
                "tempo": 120.0
            },
            {
                "start_time": 40.9181818,
                "end_time": 40.9863636,
                "pitch": 47,
                "velocity": 80,
                "duration": 0.0681818,
                "tempo": 120.0
            },
            {
                "start_time": 41.0204545,
                "end_time": 41.0863636,
                "pitch": 45,
                "velocity": 101,
                "duration": 0.0659091,
                "tempo": 120.0
            },
            {
                "start_time": 41.1204545,
                "end_time": 41.1863636,
                "pitch": 45,
                "velocity": 80,
                "duration": 0.0659091,
                "tempo": 120.0
            },
            {
                "start_time": 41.2204545,
                "end_time": 41.2863636,
                "pitch": 57,
                "velocity": 80,
                "duration": 0.0659091,
                "tempo": 120.0
            },
            {
                "start_time": 41.3204545,
                "end_time": 41.3863636,
                "pitch": 45,
                "velocity": 80,
                "duration": 0.0659091,
                "tempo": 120.0
            },
            {
                "start_time": 41.4204545,
                "end_time": 41.4863636,
                "pitch": 45,
                "velocity": 101,
                "duration": 0.0659091,
                "tempo": 120.0
            },
            {
                "start_time": 41.5204545,
                "end_time": 41.5863636,
                "pitch": 45,
                "velocity": 80,
                "duration": 0.0659091,
                "tempo": 120.0
            },
            {
                "start_time": 41.6204545,
                "end_time": 41.6863636,
                "pitch": 57,
                "velocity": 80,
                "duration": 0.0659091,
                "tempo": 120.0
            },
            {
                "start_time": 41.7204545,
                "end_time": 41.7863636,
                "pitch": 45,
                "velocity": 80,
                "duration": 0.0659091,
                "tempo": 120.0
            },
            {
                "start_time": 41.8227273,
                "end_time": 41.8863636,
                "pitch": 41,
                "velocity": 101,
                "duration": 0.0636364,
                "tempo": 120.0
            },
            {
                "start_time": 41.9204545,
                "end_time": 41.9863636,
                "pitch": 41,
                "velocity": 80,
                "duration": 0.0659091,
                "tempo": 120.0
            },
            {
                "start_time": 42.0204545,
                "end_time": 42.0863636,
                "pitch": 53,
                "velocity": 80,
                "duration": 0.0659091,
                "tempo": 120.0
            },
            {
                "start_time": 42.1204545,
                "end_time": 42.1863636,
                "pitch": 41,
                "velocity": 80,
                "duration": 0.0659091,
                "tempo": 120.0
            },
            {
                "start_time": 42.2227273,
                "end_time": 42.2886364,
                "pitch": 41,
                "velocity": 101,
                "duration": 0.0659091,
                "tempo": 120.0
            },
            {
                "start_time": 42.3227273,
                "end_time": 42.3886364,
                "pitch": 41,
                "velocity": 80,
                "duration": 0.0659091,
                "tempo": 120.0
            },
            {
                "start_time": 42.4227273,
                "end_time": 42.4886364,
                "pitch": 53,
                "velocity": 80,
                "duration": 0.0659091,
                "tempo": 120.0
            },
            {
                "start_time": 42.525,
                "end_time": 42.5909091,
                "pitch": 41,
                "velocity": 80,
                "duration": 0.0659091,
                "tempo": 120.0
            },
            {
                "start_time": 42.625,
                "end_time": 42.6909091,
                "pitch": 41,
                "velocity": 101,
                "duration": 0.0659091,
                "tempo": 120.0
            },
            {
                "start_time": 42.725,
                "end_time": 42.7909091,
                "pitch": 41,
                "velocity": 80,
                "duration": 0.0659091,
                "tempo": 120.0
            },
            {
                "start_time": 42.825,
                "end_time": 42.8909091,
                "pitch": 53,
                "velocity": 80,
                "duration": 0.0659091,
                "tempo": 120.0
            },
            {
                "start_time": 42.925,
                "end_time": 42.9909091,
                "pitch": 41,
                "velocity": 80,
                "duration": 0.0659091,
                "tempo": 120.0
            },
            {
                "start_time": 43.0272727,
                "end_time": 43.0909091,
                "pitch": 41,
                "velocity": 101,
                "duration": 0.0636364,
                "tempo": 120.0
            },
            {
                "start_time": 43.125,
                "end_time": 43.1909091,
                "pitch": 41,
                "velocity": 80,
                "duration": 0.0659091,
                "tempo": 120.0
            },
            {
                "start_time": 43.225,
                "end_time": 43.2909091,
                "pitch": 53,
                "velocity": 80,
                "duration": 0.0659091,
                "tempo": 120.0
            },
            {
                "start_time": 43.325,
                "end_time": 43.3909091,
                "pitch": 41,
                "velocity": 80,
                "duration": 0.0659091,
                "tempo": 120.0
            },
            {
                "start_time": 43.4272727,
                "end_time": 43.4909091,
                "pitch": 40,
                "velocity": 101,
                "duration": 0.0636364,
                "tempo": 120.0
            },
            {
                "start_time": 43.525,
                "end_time": 43.5909091,
                "pitch": 40,
                "velocity": 80,
                "duration": 0.0659091,
                "tempo": 120.0
            },
            {
                "start_time": 43.6272727,
                "end_time": 43.6909091,
                "pitch": 52,
                "velocity": 80,
                "duration": 0.0636364,
                "tempo": 120.0
            },
            {
                "start_time": 43.725,
                "end_time": 43.7909091,
                "pitch": 40,
                "velocity": 80,
                "duration": 0.0659091,
                "tempo": 120.0
            },
            {
                "start_time": 43.8272727,
                "end_time": 43.8909091,
                "pitch": 40,
                "velocity": 101,
                "duration": 0.0636364,
                "tempo": 120.0
            },
            {
                "start_time": 43.9272727,
                "end_time": 43.9909091,
                "pitch": 40,
                "velocity": 80,
                "duration": 0.0636364,
                "tempo": 120.0
            },
            {
                "start_time": 44.0272727,
                "end_time": 44.0909091,
                "pitch": 52,
                "velocity": 80,
                "duration": 0.0636364,
                "tempo": 120.0
            },
            {
                "start_time": 44.1272727,
                "end_time": 44.1931818,
                "pitch": 40,
                "velocity": 80,
                "duration": 0.0659091,
                "tempo": 120.0
            },
            {
                "start_time": 44.2272727,
                "end_time": 44.2931818,
                "pitch": 40,
                "velocity": 101,
                "duration": 0.0659091,
                "tempo": 120.0
            },
            {
                "start_time": 44.3272727,
                "end_time": 44.3931818,
                "pitch": 40,
                "velocity": 80,
                "duration": 0.0659091,
                "tempo": 120.0
            },
            {
                "start_time": 44.4295455,
                "end_time": 44.4931818,
                "pitch": 52,
                "velocity": 80,
                "duration": 0.0636364,
                "tempo": 120.0
            },
            {
                "start_time": 44.5295455,
                "end_time": 44.5954545,
                "pitch": 40,
                "velocity": 80,
                "duration": 0.0659091,
                "tempo": 120.0
            },
            {
                "start_time": 44.6318182,
                "end_time": 44.6954545,
                "pitch": 40,
                "velocity": 101,
                "duration": 0.0636364,
                "tempo": 120.0
            },
            {
                "start_time": 44.7295455,
                "end_time": 44.7954545,
                "pitch": 40,
                "velocity": 80,
                "duration": 0.0659091,
                "tempo": 120.0
            },
            {
                "start_time": 44.8295455,
                "end_time": 44.8954545,
                "pitch": 52,
                "velocity": 80,
                "duration": 0.0659091,
                "tempo": 120.0
            },
            {
                "start_time": 44.9295455,
                "end_time": 44.9954545,
                "pitch": 40,
                "velocity": 80,
                "duration": 0.0659091,
                "tempo": 120.0
            },
            {
                "start_time": 45.0340909,
                "end_time": 45.1636364,
                "pitch": 38,
                "velocity": 101,
                "duration": 0.1295455,
                "tempo": 120.0
            },
            {
                "start_time": 45.2318182,
                "end_time": 45.3636364,
                "pitch": 38,
                "velocity": 101,
                "duration": 0.1318182,
                "tempo": 120.0
            },
            {
                "start_time": 45.4318182,
                "end_time": 45.5636364,
                "pitch": 38,
                "velocity": 101,
                "duration": 0.1318182,
                "tempo": 120.0
            },
            {
                "start_time": 45.6318182,
                "end_time": 45.7636364,
                "pitch": 38,
                "velocity": 101,
                "duration": 0.1318182,
                "tempo": 120.0
            },
            {
                "start_time": 45.8318182,
                "end_time": 45.9636364,
                "pitch": 40,
                "velocity": 101,
                "duration": 0.1318182,
                "tempo": 120.0
            },
            {
                "start_time": 46.0318182,
                "end_time": 46.1636364,
                "pitch": 40,
                "velocity": 101,
                "duration": 0.1318182,
                "tempo": 120.0
            },
            {
                "start_time": 46.2318182,
                "end_time": 46.3659091,
                "pitch": 40,
                "velocity": 101,
                "duration": 0.1340909,
                "tempo": 120.0
            },
            {
                "start_time": 46.4340909,
                "end_time": 46.5659091,
                "pitch": 40,
                "velocity": 101,
                "duration": 0.1318182,
                "tempo": 120.0
            },
            {
                "start_time": 46.6363636,
                "end_time": 46.7681818,
                "pitch": 41,
                "velocity": 101,
                "duration": 0.1318182,
                "tempo": 120.0
            },
            {
                "start_time": 46.8363636,
                "end_time": 46.9681818,
                "pitch": 41,
                "velocity": 101,
                "duration": 0.1318182,
                "tempo": 120.0
            },
            {
                "start_time": 47.0363636,
                "end_time": 47.1681818,
                "pitch": 41,
                "velocity": 101,
                "duration": 0.1318182,
                "tempo": 120.0
            },
            {
                "start_time": 47.2363636,
                "end_time": 47.3681818,
                "pitch": 41,
                "velocity": 101,
                "duration": 0.1318182,
                "tempo": 120.0
            },
            {
                "start_time": 47.4363636,
                "end_time": 47.5681818,
                "pitch": 40,
                "velocity": 101,
                "duration": 0.1318182,
                "tempo": 120.0
            },
            {
                "start_time": 47.6363636,
                "end_time": 47.7681818,
                "pitch": 40,
                "velocity": 101,
                "duration": 0.1318182,
                "tempo": 120.0
            },
            {
                "start_time": 47.8363636,
                "end_time": 47.9681818,
                "pitch": 40,
                "velocity": 101,
                "duration": 0.1318182,
                "tempo": 120.0
            },
            {
                "start_time": 48.0363636,
                "end_time": 48.1681818,
                "pitch": 40,
                "velocity": 101,
                "duration": 0.1318182,
                "tempo": 120.0
            },
            {
                "start_time": 48.2386364,
                "end_time": 48.3727273,
                "pitch": 38,
                "velocity": 101,
                "duration": 0.1340909,
                "tempo": 120.0
            },
            {
                "start_time": 48.4431818,
                "end_time": 48.5795455,
                "pitch": 38,
                "velocity": 101,
                "duration": 0.1363636,
                "tempo": 120.0
            },
            {
                "start_time": 48.6477273,
                "end_time": 48.7772727,
                "pitch": 38,
                "velocity": 101,
                "duration": 0.1295455,
                "tempo": 120.0
            },
            {
                "start_time": 48.8454545,
                "end_time": 48.975,
                "pitch": 38,
                "velocity": 101,
                "duration": 0.1295455,
                "tempo": 120.0
            },
            {
                "start_time": 49.0409091,
                "end_time": 49.1727273,
                "pitch": 40,
                "velocity": 101,
                "duration": 0.1318182,
                "tempo": 120.0
            },
            {
                "start_time": 49.2409091,
                "end_time": 49.3727273,
                "pitch": 40,
                "velocity": 101,
                "duration": 0.1318182,
                "tempo": 120.0
            },
            {
                "start_time": 49.4409091,
                "end_time": 49.5772727,
                "pitch": 40,
                "velocity": 101,
                "duration": 0.1363636,
                "tempo": 120.0
            },
            {
                "start_time": 49.6477273,
                "end_time": 49.7840909,
                "pitch": 40,
                "velocity": 101,
                "duration": 0.1363636,
                "tempo": 120.0
            },
            {
                "start_time": 49.8522727,
                "end_time": 49.9863636,
                "pitch": 41,
                "velocity": 101,
                "duration": 0.1340909,
                "tempo": 120.0
            },
            {
                "start_time": 50.0545455,
                "end_time": 50.1863636,
                "pitch": 41,
                "velocity": 101,
                "duration": 0.1318182,
                "tempo": 120.0
            },
            {
                "start_time": 50.2545455,
                "end_time": 50.3863636,
                "pitch": 41,
                "velocity": 101,
                "duration": 0.1318182,
                "tempo": 120.0
            },
            {
                "start_time": 50.4545455,
                "end_time": 50.5863636,
                "pitch": 41,
                "velocity": 101,
                "duration": 0.1318182,
                "tempo": 120.0
            },
            {
                "start_time": 50.6545455,
                "end_time": 50.7863636,
                "pitch": 40,
                "velocity": 101,
                "duration": 0.1318182,
                "tempo": 120.0
            },
            {
                "start_time": 50.8545455,
                "end_time": 50.9863636,
                "pitch": 40,
                "velocity": 101,
                "duration": 0.1318182,
                "tempo": 120.0
            },
            {
                "start_time": 51.0545455,
                "end_time": 51.1863636,
                "pitch": 40,
                "velocity": 101,
                "duration": 0.1318182,
                "tempo": 120.0
            },
            {
                "start_time": 51.2545455,
                "end_time": 51.3863636,
                "pitch": 40,
                "velocity": 101,
                "duration": 0.1318182,
                "tempo": 120.0
            },
            {
                "start_time": 51.4590909,
                "end_time": 51.6227273,
                "pitch": 45,
                "velocity": 101,
                "duration": 0.1636364,
                "tempo": 120.0
            },
            {
                "start_time": 51.6568182,
                "end_time": 51.7227273,
                "pitch": 45,
                "velocity": 101,
                "duration": 0.0659091,
                "tempo": 120.0
            },
            {
                "start_time": 51.7568182,
                "end_time": 51.8227273,
                "pitch": 45,
                "velocity": 101,
                "duration": 0.0659091,
                "tempo": 120.0
            },
            {
                "start_time": 51.8590909,
                "end_time": 52.025,
                "pitch": 57,
                "velocity": 101,
                "duration": 0.1659091,
                "tempo": 120.0
            },
            {
                "start_time": 52.0590909,
                "end_time": 52.125,
                "pitch": 45,
                "velocity": 101,
                "duration": 0.0659091,
                "tempo": 120.0
            },
            {
                "start_time": 52.1590909,
                "end_time": 52.225,
                "pitch": 45,
                "velocity": 101,
                "duration": 0.0659091,
                "tempo": 120.0
            },
            {
                "start_time": 52.2590909,
                "end_time": 52.425,
                "pitch": 45,
                "velocity": 101,
                "duration": 0.1659091,
                "tempo": 120.0
            },
            {
                "start_time": 52.4590909,
                "end_time": 52.525,
                "pitch": 45,
                "velocity": 101,
                "duration": 0.0659091,
                "tempo": 120.0
            },
            {
                "start_time": 52.5590909,
                "end_time": 52.625,
                "pitch": 45,
                "velocity": 101,
                "duration": 0.0659091,
                "tempo": 120.0
            },
            {
                "start_time": 52.6590909,
                "end_time": 52.825,
                "pitch": 57,
                "velocity": 101,
                "duration": 0.1659091,
                "tempo": 120.0
            },
            {
                "start_time": 52.8590909,
                "end_time": 52.925,
                "pitch": 45,
                "velocity": 101,
                "duration": 0.0659091,
                "tempo": 120.0
            },
            {
                "start_time": 52.9590909,
                "end_time": 53.025,
                "pitch": 45,
                "velocity": 101,
                "duration": 0.0659091,
                "tempo": 120.0
            },
            {
                "start_time": 53.0613636,
                "end_time": 53.225,
                "pitch": 40,
                "velocity": 101,
                "duration": 0.1636364,
                "tempo": 120.0
            },
            {
                "start_time": 53.2590909,
                "end_time": 53.325,
                "pitch": 40,
                "velocity": 101,
                "duration": 0.0659091,
                "tempo": 120.0
            },
            {
                "start_time": 53.3590909,
                "end_time": 53.425,
                "pitch": 40,
                "velocity": 101,
                "duration": 0.0659091,
                "tempo": 120.0
            },
            {
                "start_time": 53.4590909,
                "end_time": 53.6272727,
                "pitch": 52,
                "velocity": 101,
                "duration": 0.1681818,
                "tempo": 120.0
            },
            {
                "start_time": 53.6613636,
                "end_time": 53.7272727,
                "pitch": 40,
                "velocity": 101,
                "duration": 0.0659091,
                "tempo": 120.0
            },
            {
                "start_time": 53.7613636,
                "end_time": 53.8295455,
                "pitch": 40,
                "velocity": 101,
                "duration": 0.0681818,
                "tempo": 120.0
            },
            {
                "start_time": 53.8659091,
                "end_time": 54.0295455,
                "pitch": 40,
                "velocity": 101,
                "duration": 0.1636364,
                "tempo": 120.0
            },
            {
                "start_time": 54.0636364,
                "end_time": 54.1295455,
                "pitch": 40,
                "velocity": 101,
                "duration": 0.0659091,
                "tempo": 120.0
            },
            {
                "start_time": 54.1636364,
                "end_time": 54.2295455,
                "pitch": 40,
                "velocity": 101,
                "duration": 0.0659091,
                "tempo": 120.0
            },
            {
                "start_time": 54.2636364,
                "end_time": 54.4295455,
                "pitch": 52,
                "velocity": 101,
                "duration": 0.1659091,
                "tempo": 120.0
            },
            {
                "start_time": 54.4659091,
                "end_time": 54.5295455,
                "pitch": 40,
                "velocity": 101,
                "duration": 0.0636364,
                "tempo": 120.0
            },
            {
                "start_time": 54.5636364,
                "end_time": 54.6295455,
                "pitch": 40,
                "velocity": 101,
                "duration": 0.0659091,
                "tempo": 120.0
            },
            {
                "start_time": 54.6659091,
                "end_time": 54.8340909,
                "pitch": 45,
                "velocity": 101,
                "duration": 0.1681818,
                "tempo": 120.0
            },
            {
                "start_time": 54.8704545,
                "end_time": 54.9363636,
                "pitch": 45,
                "velocity": 101,
                "duration": 0.0659091,
                "tempo": 120.0
            },
            {
                "start_time": 54.9727273,
                "end_time": 55.0409091,
                "pitch": 45,
                "velocity": 101,
                "duration": 0.0681818,
                "tempo": 120.0
            },
            {
                "start_time": 55.075,
                "end_time": 55.2386364,
                "pitch": 57,
                "velocity": 101,
                "duration": 0.1636364,
                "tempo": 120.0
            },
            {
                "start_time": 55.2727273,
                "end_time": 55.3363636,
                "pitch": 45,
                "velocity": 101,
                "duration": 0.0636364,
                "tempo": 120.0
            },
            {
                "start_time": 55.3704545,
                "end_time": 55.4340909,
                "pitch": 45,
                "velocity": 101,
                "duration": 0.0636364,
                "tempo": 120.0
            },
            {
                "start_time": 55.4704545,
                "end_time": 55.6386364,
                "pitch": 45,
                "velocity": 101,
                "duration": 0.1681818,
                "tempo": 120.0
            },
            {
                "start_time": 55.675,
                "end_time": 55.7409091,
                "pitch": 45,
                "velocity": 101,
                "duration": 0.0659091,
                "tempo": 120.0
            },
            {
                "start_time": 55.7772727,
                "end_time": 55.8431818,
                "pitch": 45,
                "velocity": 101,
                "duration": 0.0659091,
                "tempo": 120.0
            },
            {
                "start_time": 55.8795455,
                "end_time": 56.0409091,
                "pitch": 57,
                "velocity": 101,
                "duration": 0.1613636,
                "tempo": 120.0
            },
            {
                "start_time": 56.0772727,
                "end_time": 56.1409091,
                "pitch": 45,
                "velocity": 101,
                "duration": 0.0636364,
                "tempo": 120.0
            },
            {
                "start_time": 56.1727273,
                "end_time": 56.2386364,
                "pitch": 45,
                "velocity": 101,
                "duration": 0.0659091,
                "tempo": 120.0
            },
            {
                "start_time": 56.2727273,
                "end_time": 56.4409091,
                "pitch": 40,
                "velocity": 101,
                "duration": 0.1681818,
                "tempo": 120.0
            },
            {
                "start_time": 56.4772727,
                "end_time": 56.5454545,
                "pitch": 40,
                "velocity": 101,
                "duration": 0.0681818,
                "tempo": 120.0
            },
            {
                "start_time": 56.5795455,
                "end_time": 56.6477273,
                "pitch": 40,
                "velocity": 101,
                "duration": 0.0681818,
                "tempo": 120.0
            },
            {
                "start_time": 56.6818182,
                "end_time": 56.85,
                "pitch": 52,
                "velocity": 101,
                "duration": 0.1681818,
                "tempo": 120.0
            },
            {
                "start_time": 56.8840909,
                "end_time": 56.95,
                "pitch": 40,
                "velocity": 101,
                "duration": 0.0659091,
                "tempo": 120.0
            },
            {
                "start_time": 56.9840909,
                "end_time": 57.05,
                "pitch": 40,
                "velocity": 101,
                "duration": 0.0659091,
                "tempo": 120.0
            },
            {
                "start_time": 57.0840909,
                "end_time": 57.25,
                "pitch": 40,
                "velocity": 101,
                "duration": 0.1659091,
                "tempo": 120.0
            },
            {
                "start_time": 57.2840909,
                "end_time": 57.3522727,
                "pitch": 40,
                "velocity": 101,
                "duration": 0.0681818,
                "tempo": 120.0
            },
            {
                "start_time": 57.3863636,
                "end_time": 57.4522727,
                "pitch": 40,
                "velocity": 101,
                "duration": 0.0659091,
                "tempo": 120.0
            },
            {
                "start_time": 57.4886364,
                "end_time": 57.6522727,
                "pitch": 52,
                "velocity": 101,
                "duration": 0.1636364,
                "tempo": 120.0
            },
            {
                "start_time": 57.6863636,
                "end_time": 57.7522727,
                "pitch": 40,
                "velocity": 101,
                "duration": 0.0659091,
                "tempo": 120.0
            },
            {
                "start_time": 57.7863636,
                "end_time": 57.8522727,
                "pitch": 40,
                "velocity": 101,
                "duration": 0.0659091,
                "tempo": 120.0
            },
            {
                "start_time": 57.8886364,
                "end_time": 58.0522727,
                "pitch": 41,
                "velocity": 101,
                "duration": 0.1636364,
                "tempo": 120.0
            },
            {
                "start_time": 58.0886364,
                "end_time": 58.1545455,
                "pitch": 41,
                "velocity": 101,
                "duration": 0.0659091,
                "tempo": 120.0
            },
            {
                "start_time": 58.1863636,
                "end_time": 58.2545455,
                "pitch": 41,
                "velocity": 101,
                "duration": 0.0681818,
                "tempo": 120.0
            },
            {
                "start_time": 58.2886364,
                "end_time": 58.3545455,
                "pitch": 53,
                "velocity": 101,
                "duration": 0.0659091,
                "tempo": 120.0
            },
            {
                "start_time": 58.3886364,
                "end_time": 58.4545455,
                "pitch": 53,
                "velocity": 101,
                "duration": 0.0659091,
                "tempo": 120.0
            },
            {
                "start_time": 58.4886364,
                "end_time": 58.5545455,
                "pitch": 41,
                "velocity": 101,
                "duration": 0.0659091,
                "tempo": 120.0
            },
            {
                "start_time": 58.5886364,
                "end_time": 58.6545455,
                "pitch": 41,
                "velocity": 101,
                "duration": 0.0659091,
                "tempo": 120.0
            },
            {
                "start_time": 58.6886364,
                "end_time": 58.8545455,
                "pitch": 38,
                "velocity": 101,
                "duration": 0.1659091,
                "tempo": 120.0
            },
            {
                "start_time": 58.8886364,
                "end_time": 58.9545455,
                "pitch": 38,
                "velocity": 101,
                "duration": 0.0659091,
                "tempo": 120.0
            },
            {
                "start_time": 58.9886364,
                "end_time": 59.0545455,
                "pitch": 38,
                "velocity": 101,
                "duration": 0.0659091,
                "tempo": 120.0
            },
            {
                "start_time": 59.0886364,
                "end_time": 59.1545455,
                "pitch": 50,
                "velocity": 101,
                "duration": 0.0659091,
                "tempo": 120.0
            },
            {
                "start_time": 59.1886364,
                "end_time": 59.2568182,
                "pitch": 50,
                "velocity": 101,
                "duration": 0.0681818,
                "tempo": 120.0
            },
            {
                "start_time": 59.2909091,
                "end_time": 59.3568182,
                "pitch": 38,
                "velocity": 101,
                "duration": 0.0659091,
                "tempo": 120.0
            },
            {
                "start_time": 59.3909091,
                "end_time": 59.4568182,
                "pitch": 38,
                "velocity": 101,
                "duration": 0.0659091,
                "tempo": 120.0
            },
            {
                "start_time": 59.4931818,
                "end_time": 59.6590909,
                "pitch": 40,
                "velocity": 101,
                "duration": 0.1659091,
                "tempo": 120.0
            },
            {
                "start_time": 59.6931818,
                "end_time": 59.7590909,
                "pitch": 40,
                "velocity": 101,
                "duration": 0.0659091,
                "tempo": 120.0
            },
            {
                "start_time": 59.7931818,
                "end_time": 59.8590909,
                "pitch": 40,
                "velocity": 101,
                "duration": 0.0659091,
                "tempo": 120.0
            },
            {
                "start_time": 59.8931818,
                "end_time": 59.9590909,
                "pitch": 52,
                "velocity": 101,
                "duration": 0.0659091,
                "tempo": 120.0
            },
            {
                "start_time": 59.9931818,
                "end_time": 60.0590909,
                "pitch": 52,
                "velocity": 101,
                "duration": 0.0659091,
                "tempo": 120.0
            },
            {
                "start_time": 60.0931818,
                "end_time": 60.1590909,
                "pitch": 40,
                "velocity": 101,
                "duration": 0.0659091,
                "tempo": 120.0
            },
            {
                "start_time": 60.1931818,
                "end_time": 60.2590909,
                "pitch": 40,
                "velocity": 101,
                "duration": 0.0659091,
                "tempo": 120.0
            },
            {
                "start_time": 60.2954545,
                "end_time": 60.4590909,
                "pitch": 40,
                "velocity": 101,
                "duration": 0.1636364,
                "tempo": 120.0
            },
            {
                "start_time": 60.4931818,
                "end_time": 60.5590909,
                "pitch": 40,
                "velocity": 101,
                "duration": 0.0659091,
                "tempo": 120.0
            },
            {
                "start_time": 60.5931818,
                "end_time": 60.6590909,
                "pitch": 40,
                "velocity": 101,
                "duration": 0.0659091,
                "tempo": 120.0
            },
            {
                "start_time": 60.6954545,
                "end_time": 60.7590909,
                "pitch": 52,
                "velocity": 101,
                "duration": 0.0636364,
                "tempo": 120.0
            },
            {
                "start_time": 60.7931818,
                "end_time": 60.8590909,
                "pitch": 52,
                "velocity": 101,
                "duration": 0.0659091,
                "tempo": 120.0
            },
            {
                "start_time": 60.8931818,
                "end_time": 60.9590909,
                "pitch": 40,
                "velocity": 101,
                "duration": 0.0659091,
                "tempo": 120.0
            },
            {
                "start_time": 60.9931818,
                "end_time": 61.0590909,
                "pitch": 40,
                "velocity": 101,
                "duration": 0.0659091,
                "tempo": 120.0
            },
            {
                "start_time": 61.0954545,
                "end_time": 61.2613636,
                "pitch": 41,
                "velocity": 101,
                "duration": 0.1659091,
                "tempo": 120.0
            },
            {
                "start_time": 61.2954545,
                "end_time": 61.3613636,
                "pitch": 41,
                "velocity": 101,
                "duration": 0.0659091,
                "tempo": 120.0
            },
            {
                "start_time": 61.3954545,
                "end_time": 61.4636364,
                "pitch": 41,
                "velocity": 101,
                "duration": 0.0681818,
                "tempo": 120.0
            },
            {
                "start_time": 61.4977273,
                "end_time": 61.5636364,
                "pitch": 53,
                "velocity": 101,
                "duration": 0.0659091,
                "tempo": 120.0
            },
            {
                "start_time": 61.5977273,
                "end_time": 61.6636364,
                "pitch": 53,
                "velocity": 101,
                "duration": 0.0659091,
                "tempo": 120.0
            },
            {
                "start_time": 61.6977273,
                "end_time": 61.7636364,
                "pitch": 41,
                "velocity": 101,
                "duration": 0.0659091,
                "tempo": 120.0
            },
            {
                "start_time": 61.7977273,
                "end_time": 61.8636364,
                "pitch": 41,
                "velocity": 101,
                "duration": 0.0659091,
                "tempo": 120.0
            },
            {
                "start_time": 61.9,
                "end_time": 62.0636364,
                "pitch": 38,
                "velocity": 101,
                "duration": 0.1636364,
                "tempo": 120.0
            },
            {
                "start_time": 62.0977273,
                "end_time": 62.1636364,
                "pitch": 38,
                "velocity": 101,
                "duration": 0.0659091,
                "tempo": 120.0
            },
            {
                "start_time": 62.1977273,
                "end_time": 62.2636364,
                "pitch": 38,
                "velocity": 101,
                "duration": 0.0659091,
                "tempo": 120.0
            },
            {
                "start_time": 62.3,
                "end_time": 62.3636364,
                "pitch": 50,
                "velocity": 101,
                "duration": 0.0636364,
                "tempo": 120.0
            },
            {
                "start_time": 62.3977273,
                "end_time": 62.4636364,
                "pitch": 50,
                "velocity": 101,
                "duration": 0.0659091,
                "tempo": 120.0
            },
            {
                "start_time": 62.5,
                "end_time": 62.5636364,
                "pitch": 38,
                "velocity": 101,
                "duration": 0.0636364,
                "tempo": 120.0
            },
            {
                "start_time": 62.5977273,
                "end_time": 62.6636364,
                "pitch": 38,
                "velocity": 101,
                "duration": 0.0659091,
                "tempo": 120.0
            },
            {
                "start_time": 62.7,
                "end_time": 62.7659091,
                "pitch": 40,
                "velocity": 101,
                "duration": 0.0659091,
                "tempo": 120.0
            },
            {
                "start_time": 62.7977273,
                "end_time": 62.8659091,
                "pitch": 40,
                "velocity": 101,
                "duration": 0.0681818,
                "tempo": 120.0
            },
            {
                "start_time": 62.9,
                "end_time": 62.9659091,
                "pitch": 40,
                "velocity": 101,
                "duration": 0.0659091,
                "tempo": 120.0
            },
            {
                "start_time": 63.0,
                "end_time": 63.0659091,
                "pitch": 40,
                "velocity": 101,
                "duration": 0.0659091,
                "tempo": 120.0
            },
            {
                "start_time": 63.1,
                "end_time": 63.1659091,
                "pitch": 52,
                "velocity": 101,
                "duration": 0.0659091,
                "tempo": 120.0
            },
            {
                "start_time": 63.2,
                "end_time": 63.2659091,
                "pitch": 52,
                "velocity": 101,
                "duration": 0.0659091,
                "tempo": 120.0
            },
            {
                "start_time": 63.3,
                "end_time": 63.3681818,
                "pitch": 40,
                "velocity": 101,
                "duration": 0.0681818,
                "tempo": 120.0
            },
            {
                "start_time": 63.4022727,
                "end_time": 63.4681818,
                "pitch": 40,
                "velocity": 101,
                "duration": 0.0659091,
                "tempo": 120.0
            },
            {
                "start_time": 63.5022727,
                "end_time": 63.5681818,
                "pitch": 40,
                "velocity": 101,
                "duration": 0.0659091,
                "tempo": 120.0
            },
            {
                "start_time": 63.6022727,
                "end_time": 63.6681818,
                "pitch": 40,
                "velocity": 101,
                "duration": 0.0659091,
                "tempo": 120.0
            },
            {
                "start_time": 63.7022727,
                "end_time": 63.7681818,
                "pitch": 40,
                "velocity": 101,
                "duration": 0.0659091,
                "tempo": 120.0
            },
            {
                "start_time": 63.8022727,
                "end_time": 63.8681818,
                "pitch": 40,
                "velocity": 101,
                "duration": 0.0659091,
                "tempo": 120.0
            },
            {
                "start_time": 63.9022727,
                "end_time": 63.9681818,
                "pitch": 52,
                "velocity": 101,
                "duration": 0.0659091,
                "tempo": 120.0
            },
            {
                "start_time": 64.0022727,
                "end_time": 64.0681818,
                "pitch": 52,
                "velocity": 101,
                "duration": 0.0659091,
                "tempo": 120.0
            },
            {
                "start_time": 64.1022727,
                "end_time": 64.1704545,
                "pitch": 40,
                "velocity": 101,
                "duration": 0.0681818,
                "tempo": 120.0
            },
            {
                "start_time": 64.2022727,
                "end_time": 64.2704545,
                "pitch": 40,
                "velocity": 101,
                "duration": 0.0681818,
                "tempo": 120.0
            },
            {
                "start_time": 64.3090909,
                "end_time": 64.3704545,
                "pitch": 45,
                "velocity": 101,
                "duration": 0.0613636,
                "tempo": 120.0
            },
            {
                "start_time": 64.4068182,
                "end_time": 64.4090909,
                "pitch": 45,
                "velocity": 80,
                "duration": 0.0022727,
                "tempo": 120.0
            }
        ]
    }
}