{
    "mood": "angry",
    "instruments": {
        "Lead 2 (sawtooth)": [
            {
                "start_time": 0.0113636,
                "end_time": 0.9590909,
                "pitch": 78,
                "velocity": 51,
                "duration": 0.9477273,
                "tempo": 120.0
            },
            {
                "start_time": 1.0090909,
                "end_time": 2.375,
                "pitch": 78,
                "velocity": 51,
                "duration": 1.3659091,
                "tempo": 120.0
            },
            {
                "start_time": 2.425,
                "end_time": 3.475,
                "pitch": 77,
                "velocity": 51,
                "duration": 1.05,
                "tempo": 120.0
            },
            {
                "start_time": 3.5409091,
                "end_time": 4.9068182,
                "pitch": 76,
                "velocity": 51,
                "duration": 1.3659091,
                "tempo": 120.0
            },
            {
                "start_time": 4.9590909,
                "end_time": 6.1863636,
                "pitch": 75,
                "velocity": 51,
                "duration": 1.2272727,
                "tempo": 120.0
            },
            {
                "start_time": 6.2386364,
                "end_time": 7.4363636,
                "pitch": 76,
                "velocity": 51,
                "duration": 1.1977273,
                "tempo": 120.0
            },
            {
                "start_time": 7.5045455,
                "end_time": 9.9727273,
                "pitch": 71,
                "velocity": 51,
                "duration": 2.4681818,
                "tempo": 120.0
            },
            {
                "start_time": 10.0227273,
                "end_time": 10.2863636,
                "pitch": 83,
                "velocity": 51,
                "duration": 0.2636364,
                "tempo": 120.0
            },
            {
                "start_time": 10.3363636,
                "end_time": 10.4522727,
                "pitch": 78,
                "velocity": 51,
                "duration": 0.1159091,
                "tempo": 120.0
            },
            {
                "start_time": 10.5022727,
                "end_time": 10.7681818,
                "pitch": 80,
                "velocity": 51,
                "duration": 0.2659091,
                "tempo": 120.0
            },
            {
                "start_time": 10.8181818,
                "end_time": 10.9181818,
                "pitch": 76,
                "velocity": 51,
                "duration": 0.1,
                "tempo": 120.0
            },
            {
                "start_time": 10.9681818,
                "end_time": 11.8681818,
                "pitch": 78,
                "velocity": 51,
                "duration": 0.9,
                "tempo": 120.0
            },
            {
                "start_time": 10.9681818,
                "end_time": 12.1840909,
                "pitch": 76,
                "velocity": 51,
                "duration": 1.2159091,
                "tempo": 120.0
            },
            {
                "start_time": 11.9181818,
                "end_time": 12.1840909,
                "pitch": 76,
                "velocity": 51,
                "duration": 0.2659091,
                "tempo": 120.0
            },
            {
                "start_time": 11.9181818,
                "end_time": 12.5068182,
                "pitch": 78,
                "velocity": 51,
                "duration": 0.5886364,
                "tempo": 120.0
            },
            {
                "start_time": 12.2363636,
                "end_time": 12.5068182,
                "pitch": 78,
                "velocity": 51,
                "duration": 0.2704545,
                "tempo": 120.0
            },
            {
                "start_time": 12.5590909,
                "end_time": 15.0477273,
                "pitch": 71,
                "velocity": 51,
                "duration": 2.4886364,
                "tempo": 120.0
            },
            {
                "start_time": 15.0977273,
                "end_time": 15.3636364,
                "pitch": 83,
                "velocity": 51,
                "duration": 0.2659091,
                "tempo": 120.0
            },
            {
                "start_time": 10.3363636,
                "end_time": 15.4136364,
                "pitch": 69,
                "velocity": 51,
                "duration": 5.0772727,
                "tempo": 120.0
            },
            {
                "start_time": 12.5590909,
                "end_time": 15.5136364,
                "pitch": 78,
                "velocity": 51,
                "duration": 2.9545455,
                "tempo": 120.0
            },
            {
                "start_time": 15.4136364,
                "end_time": 15.5136364,
                "pitch": 78,
                "velocity": 51,
                "duration": 0.1,
                "tempo": 120.0
            },
            {
                "start_time": 15.5636364,
                "end_time": 15.8295455,
                "pitch": 80,
                "velocity": 51,
                "duration": 0.2659091,
                "tempo": 120.0
            },
            {
                "start_time": 12.2363636,
                "end_time": 15.9795455,
                "pitch": 76,
                "velocity": 51,
                "duration": 3.7431818,
                "tempo": 120.0
            },
            {
                "start_time": 15.8818182,
                "end_time": 15.9795455,
                "pitch": 76,
                "velocity": 51,
                "duration": 0.0977273,
                "tempo": 120.0
            },
            {
                "start_time": 16.0477273,
                "end_time": 16.9409091,
                "pitch": 78,
                "velocity": 51,
                "duration": 0.8931818,
                "tempo": 120.0
            },
            {
                "start_time": 16.9909091,
                "end_time": 17.2545455,
                "pitch": 76,
                "velocity": 51,
                "duration": 0.2636364,
                "tempo": 120.0
            },
            {
                "start_time": 16.9909091,
                "end_time": 17.5681818,
                "pitch": 78,
                "velocity": 51,
                "duration": 0.5772727,
                "tempo": 120.0
            },
            {
                "start_time": 17.3045455,
                "end_time": 17.5681818,
                "pitch": 78,
                "velocity": 51,
                "duration": 0.2636364,
                "tempo": 120.0
            },
            {
                "start_time": 17.6181818,
                "end_time": 20.1090909,
                "pitch": 71,
                "velocity": 51,
                "duration": 2.4909091,
                "tempo": 120.0
            },
            {
                "start_time": 17.6181818,
                "end_time": 30.525,
                "pitch": 78,
                "velocity": 51,
                "duration": 12.9068182,
                "tempo": 120.0
            },
            {
                "start_time": 30.2931818,
                "end_time": 30.525,
                "pitch": 78,
                "velocity": 51,
                "duration": 0.2318182,
                "tempo": 120.0
            }
        ],
        "Vibraphone": [
            {
                "start_time": 20.1590909,
                "end_time": 20.425,
                "pitch": 59,
                "velocity": 51,
                "duration": 0.2659091,
                "tempo": 120.0
            },
            {
                "start_time": 20.4772727,
                "end_time": 20.7431818,
                "pitch": 71,
                "velocity": 51,
                "duration": 0.2659091,
                "tempo": 120.0
            },
            {
                "start_time": 20.7931818,
                "end_time": 20.8931818,
                "pitch": 69,
                "velocity": 51,
                "duration": 0.1,
                "tempo": 120.0
            },
            {
                "start_time": 20.9590909,
                "end_time": 21.2090909,
                "pitch": 64,
                "velocity": 51,
                "duration": 0.25,
                "tempo": 120.0
            },
            {
                "start_time": 21.2590909,
                "end_time": 21.6909091,
                "pitch": 66,
                "velocity": 51,
                "duration": 0.4318182,
                "tempo": 120.0
            },
            {
                "start_time": 21.7431818,
                "end_time": 21.8409091,
                "pitch": 69,
                "velocity": 51,
                "duration": 0.0977273,
                "tempo": 120.0
            },
            {
                "start_time": 21.8931818,
                "end_time": 22.0090909,
                "pitch": 69,
                "velocity": 51,
                "duration": 0.1159091,
                "tempo": 120.0
            },
            {
                "start_time": 20.9590909,
                "end_time": 22.0590909,
                "pitch": 56,
                "velocity": 51,
                "duration": 1.1,
                "tempo": 120.0
            },
            {
                "start_time": 22.0590909,
                "end_time": 22.1590909,
                "pitch": 66,
                "velocity": 51,
                "duration": 0.1,
                "tempo": 120.0
            },
            {
                "start_time": 22.2090909,
                "end_time": 22.6409091,
                "pitch": 71,
                "velocity": 51,
                "duration": 0.4318182,
                "tempo": 120.0
            },
            {
                "start_time": 22.6909091,
                "end_time": 23.7409091,
                "pitch": 76,
                "velocity": 51,
                "duration": 1.05,
                "tempo": 120.0
            },
            {
                "start_time": 21.7431818,
                "end_time": 25.1613636,
                "pitch": 78,
                "velocity": 51,
                "duration": 3.4181818,
                "tempo": 120.0
            },
            {
                "start_time": 23.7909091,
                "end_time": 25.1613636,
                "pitch": 78,
                "velocity": 51,
                "duration": 1.3704545,
                "tempo": 120.0
            },
            {
                "start_time": 25.2318182,
                "end_time": 25.4863636,
                "pitch": 59,
                "velocity": 51,
                "duration": 0.2545455,
                "tempo": 120.0
            },
            {
                "start_time": 25.5363636,
                "end_time": 25.8,
                "pitch": 71,
                "velocity": 51,
                "duration": 0.2636364,
                "tempo": 120.0
            },
            {
                "start_time": 25.85,
                "end_time": 25.9659091,
                "pitch": 69,
                "velocity": 51,
                "duration": 0.1159091,
                "tempo": 120.0
            },
            {
                "start_time": 26.0159091,
                "end_time": 26.2795455,
                "pitch": 64,
                "velocity": 51,
                "duration": 0.2636364,
                "tempo": 120.0
            },
            {
                "start_time": 26.3295455,
                "end_time": 26.7409091,
                "pitch": 66,
                "velocity": 51,
                "duration": 0.4113636,
                "tempo": 120.0
            },
            {
                "start_time": 26.7909091,
                "end_time": 26.9090909,
                "pitch": 69,
                "velocity": 51,
                "duration": 0.1181818,
                "tempo": 120.0
            },
            {
                "start_time": 26.9613636,
                "end_time": 27.0613636,
                "pitch": 69,
                "velocity": 51,
                "duration": 0.1,
                "tempo": 120.0
            },
            {
                "start_time": 27.1136364,
                "end_time": 27.2318182,
                "pitch": 66,
                "velocity": 51,
                "duration": 0.1181818,
                "tempo": 120.0
            },
            {
                "start_time": 26.7909091,
                "end_time": 27.2840909,
                "pitch": 78,
                "velocity": 51,
                "duration": 0.4931818,
                "tempo": 120.0
            },
            {
                "start_time": 27.2840909,
                "end_time": 27.5522727,
                "pitch": 71,
                "velocity": 51,
                "duration": 0.2681818,
                "tempo": 120.0
            },
            {
                "start_time": 27.6045455,
                "end_time": 30.0704545,
                "pitch": 73,
                "velocity": 51,
                "duration": 2.4659091,
                "tempo": 120.0
            }
        ],
        "Acoustic Bass": [
            {
                "start_time": 0.0113636,
                "end_time": 0.1159091,
                "pitch": 45,
                "velocity": 64,
                "duration": 0.1045455,
                "tempo": 120.0
            },
            {
                "start_time": 0.1159091,
                "end_time": 0.2113636,
                "pitch": 47,
                "velocity": 64,
                "duration": 0.0954545,
                "tempo": 120.0
            },
            {
                "start_time": 0.2113636,
                "end_time": 0.3772727,
                "pitch": 47,
                "velocity": 64,
                "duration": 0.1659091,
                "tempo": 120.0
            },
            {
                "start_time": 0.1159091,
                "end_time": 0.5272727,
                "pitch": 45,
                "velocity": 64,
                "duration": 0.4113636,
                "tempo": 120.0
            },
            {
                "start_time": 0.3772727,
                "end_time": 0.5272727,
                "pitch": 45,
                "velocity": 64,
                "duration": 0.15,
                "tempo": 120.0
            },
            {
                "start_time": 0.3772727,
                "end_time": 0.6931818,
                "pitch": 47,
                "velocity": 64,
                "duration": 0.3159091,
                "tempo": 120.0
            },
            {
                "start_time": 0.5272727,
                "end_time": 0.6931818,
                "pitch": 47,
                "velocity": 64,
                "duration": 0.1659091,
                "tempo": 120.0
            },
            {
                "start_time": 0.6931818,
                "end_time": 0.8431818,
                "pitch": 47,
                "velocity": 64,
                "duration": 0.15,
                "tempo": 120.0
            },
            {
                "start_time": 0.8431818,
                "end_time": 1.0090909,
                "pitch": 40,
                "velocity": 64,
                "duration": 0.1659091,
                "tempo": 120.0
            },
            {
                "start_time": 1.0090909,
                "end_time": 1.1590909,
                "pitch": 40,
                "velocity": 64,
                "duration": 0.15,
                "tempo": 120.0
            },
            {
                "start_time": 0.5272727,
                "end_time": 1.325,
                "pitch": 45,
                "velocity": 64,
                "duration": 0.7977273,
                "tempo": 120.0
            },
            {
                "start_time": 1.1590909,
                "end_time": 1.325,
                "pitch": 45,
                "velocity": 64,
                "duration": 0.1659091,
                "tempo": 120.0
            },
            {
                "start_time": 1.325,
                "end_time": 1.475,
                "pitch": 47,
                "velocity": 64,
                "duration": 0.15,
                "tempo": 120.0
            },
            {
                "start_time": 1.475,
                "end_time": 1.6431818,
                "pitch": 47,
                "velocity": 64,
                "duration": 0.1681818,
                "tempo": 120.0
            },
            {
                "start_time": 1.325,
                "end_time": 1.7931818,
                "pitch": 45,
                "velocity": 64,
                "duration": 0.4681818,
                "tempo": 120.0
            },
            {
                "start_time": 1.6431818,
                "end_time": 1.7931818,
                "pitch": 45,
                "velocity": 64,
                "duration": 0.15,
                "tempo": 120.0
            },
            {
                "start_time": 1.7931818,
                "end_time": 1.9590909,
                "pitch": 47,
                "velocity": 64,
                "duration": 0.1659091,
                "tempo": 120.0
            },
            {
                "start_time": 0.8431818,
                "end_time": 2.1090909,
                "pitch": 35,
                "velocity": 64,
                "duration": 1.2659091,
                "tempo": 120.0
            },
            {
                "start_time": 1.9590909,
                "end_time": 2.1090909,
                "pitch": 47,
                "velocity": 64,
                "duration": 0.15,
                "tempo": 120.0
            },
            {
                "start_time": 2.1090909,
                "end_time": 2.275,
                "pitch": 40,
                "velocity": 64,
                "duration": 0.1659091,
                "tempo": 120.0
            },
            {
                "start_time": 2.275,
                "end_time": 2.425,
                "pitch": 40,
                "velocity": 64,
                "duration": 0.15,
                "tempo": 120.0
            },
            {
                "start_time": 1.1590909,
                "end_time": 2.425,
                "pitch": 54,
                "velocity": 64,
                "duration": 1.2659091,
                "tempo": 120.0
            },
            {
                "start_time": 1.7931818,
                "end_time": 2.5909091,
                "pitch": 45,
                "velocity": 64,
                "duration": 0.7977273,
                "tempo": 120.0
            },
            {
                "start_time": 2.425,
                "end_time": 2.5909091,
                "pitch": 45,
                "velocity": 64,
                "duration": 0.1659091,
                "tempo": 120.0
            },
            {
                "start_time": 2.5909091,
                "end_time": 2.7409091,
                "pitch": 47,
                "velocity": 64,
                "duration": 0.15,
                "tempo": 120.0
            },
            {
                "start_time": 2.7409091,
                "end_time": 2.9090909,
                "pitch": 47,
                "velocity": 64,
                "duration": 0.1681818,
                "tempo": 120.0
            },
            {
                "start_time": 2.5909091,
                "end_time": 3.0590909,
                "pitch": 45,
                "velocity": 64,
                "duration": 0.4681818,
                "tempo": 120.0
            },
            {
                "start_time": 2.9090909,
                "end_time": 3.0590909,
                "pitch": 45,
                "velocity": 64,
                "duration": 0.15,
                "tempo": 120.0
            },
            {
                "start_time": 3.0590909,
                "end_time": 3.225,
                "pitch": 47,
                "velocity": 64,
                "duration": 0.1659091,
                "tempo": 120.0
            },
            {
                "start_time": 2.1090909,
                "end_time": 3.375,
                "pitch": 35,
                "velocity": 64,
                "duration": 1.2659091,
                "tempo": 120.0
            },
            {
                "start_time": 3.225,
                "end_time": 3.375,
                "pitch": 47,
                "velocity": 64,
                "duration": 0.15,
                "tempo": 120.0
            },
            {
                "start_time": 3.375,
                "end_time": 3.5409091,
                "pitch": 40,
                "velocity": 64,
                "duration": 0.1659091,
                "tempo": 120.0
            },
            {
                "start_time": 3.5409091,
                "end_time": 3.6909091,
                "pitch": 40,
                "velocity": 64,
                "duration": 0.15,
                "tempo": 120.0
            },
            {
                "start_time": 3.0590909,
                "end_time": 3.8590909,
                "pitch": 45,
                "velocity": 64,
                "duration": 0.8,
                "tempo": 120.0
            },
            {
                "start_time": 3.6909091,
                "end_time": 3.8590909,
                "pitch": 45,
                "velocity": 64,
                "duration": 0.1681818,
                "tempo": 120.0
            },
            {
                "start_time": 3.8590909,
                "end_time": 4.0090909,
                "pitch": 47,
                "velocity": 64,
                "duration": 0.15,
                "tempo": 120.0
            },
            {
                "start_time": 4.0090909,
                "end_time": 4.1590909,
                "pitch": 47,
                "velocity": 64,
                "duration": 0.15,
                "tempo": 120.0
            },
            {
                "start_time": 4.1590909,
                "end_time": 4.325,
                "pitch": 45,
                "velocity": 64,
                "duration": 0.1659091,
                "tempo": 120.0
            },
            {
                "start_time": 4.1590909,
                "end_time": 4.475,
                "pitch": 47,
                "velocity": 64,
                "duration": 0.3159091,
                "tempo": 120.0
            },
            {
                "start_time": 4.325,
                "end_time": 4.475,
                "pitch": 47,
                "velocity": 64,
                "duration": 0.15,
                "tempo": 120.0
            },
            {
                "start_time": 3.375,
                "end_time": 4.6409091,
                "pitch": 35,
                "velocity": 64,
                "duration": 1.2659091,
                "tempo": 120.0
            },
            {
                "start_time": 4.475,
                "end_time": 4.6409091,
                "pitch": 47,
                "velocity": 64,
                "duration": 0.1659091,
                "tempo": 120.0
            },
            {
                "start_time": 4.6409091,
                "end_time": 4.7909091,
                "pitch": 40,
                "velocity": 64,
                "duration": 0.15,
                "tempo": 120.0
            },
            {
                "start_time": 4.7909091,
                "end_time": 4.9590909,
                "pitch": 40,
                "velocity": 64,
                "duration": 0.1681818,
                "tempo": 120.0
            },
            {
                "start_time": 2.425,
                "end_time": 4.9590909,
                "pitch": 54,
                "velocity": 64,
                "duration": 2.5340909,
                "tempo": 120.0
            },
            {
                "start_time": 4.9590909,
                "end_time": 5.1068182,
                "pitch": 43,
                "velocity": 64,
                "duration": 0.1477273,
                "tempo": 120.0
            },
            {
                "start_time": 5.1068182,
                "end_time": 5.275,
                "pitch": 43,
                "velocity": 64,
                "duration": 0.1681818,
                "tempo": 120.0
            },
            {
                "start_time": 5.275,
                "end_time": 5.4272727,
                "pitch": 43,
                "velocity": 64,
                "duration": 0.1522727,
                "tempo": 120.0
            },
            {
                "start_time": 5.4272727,
                "end_time": 5.5977273,
                "pitch": 43,
                "velocity": 64,
                "duration": 0.1704545,
                "tempo": 120.0
            },
            {
                "start_time": 5.5977273,
                "end_time": 5.75,
                "pitch": 43,
                "velocity": 64,
                "duration": 0.1522727,
                "tempo": 120.0
            },
            {
                "start_time": 5.75,
                "end_time": 5.9204545,
                "pitch": 43,
                "velocity": 64,
                "duration": 0.1704545,
                "tempo": 120.0
            },
            {
                "start_time": 5.9204545,
                "end_time": 6.0704545,
                "pitch": 43,
                "velocity": 64,
                "duration": 0.15,
                "tempo": 120.0
            },
            {
                "start_time": 6.0704545,
                "end_time": 6.2386364,
                "pitch": 43,
                "velocity": 64,
                "duration": 0.1681818,
                "tempo": 120.0
            },
            {
                "start_time": 6.2386364,
                "end_time": 6.3863636,
                "pitch": 42,
                "velocity": 64,
                "duration": 0.1477273,
                "tempo": 120.0
            },
            {
                "start_time": 6.3863636,
                "end_time": 6.5545455,
                "pitch": 42,
                "velocity": 64,
                "duration": 0.1681818,
                "tempo": 120.0
            },
            {
                "start_time": 6.5545455,
                "end_time": 6.7045455,
                "pitch": 42,
                "velocity": 64,
                "duration": 0.15,
                "tempo": 120.0
            },
            {
                "start_time": 6.7045455,
                "end_time": 6.8704545,
                "pitch": 42,
                "velocity": 64,
                "duration": 0.1659091,
                "tempo": 120.0
            },
            {
                "start_time": 6.8704545,
                "end_time": 7.0204545,
                "pitch": 42,
                "velocity": 64,
                "duration": 0.15,
                "tempo": 120.0
            },
            {
                "start_time": 7.0204545,
                "end_time": 7.1863636,
                "pitch": 42,
                "velocity": 64,
                "duration": 0.1659091,
                "tempo": 120.0
            },
            {
                "start_time": 4.9590909,
                "end_time": 7.1863636,
                "pitch": 54,
                "velocity": 64,
                "duration": 2.2272727,
                "tempo": 120.0
            },
            {
                "start_time": 7.1863636,
                "end_time": 7.3363636,
                "pitch": 43,
                "velocity": 64,
                "duration": 0.15,
                "tempo": 120.0
            },
            {
                "start_time": 7.3363636,
                "end_time": 7.5045455,
                "pitch": 43,
                "velocity": 64,
                "duration": 0.1681818,
                "tempo": 120.0
            },
            {
                "start_time": 7.5045455,
                "end_time": 7.6545455,
                "pitch": 44,
                "velocity": 64,
                "duration": 0.15,
                "tempo": 120.0
            },
            {
                "start_time": 7.6545455,
                "end_time": 7.8204545,
                "pitch": 47,
                "velocity": 64,
                "duration": 0.1659091,
                "tempo": 120.0
            },
            {
                "start_time": 7.8204545,
                "end_time": 7.9704545,
                "pitch": 47,
                "velocity": 64,
                "duration": 0.15,
                "tempo": 120.0
            },
            {
                "start_time": 4.325,
                "end_time": 8.1363636,
                "pitch": 45,
                "velocity": 64,
                "duration": 3.8113636,
                "tempo": 120.0
            },
            {
                "start_time": 7.9704545,
                "end_time": 8.1363636,
                "pitch": 45,
                "velocity": 64,
                "duration": 0.1659091,
                "tempo": 120.0
            },
            {
                "start_time": 7.9704545,
                "end_time": 8.2863636,
                "pitch": 47,
                "velocity": 64,
                "duration": 0.3159091,
                "tempo": 120.0
            },
            {
                "start_time": 8.1363636,
                "end_time": 8.2863636,
                "pitch": 47,
                "velocity": 64,
                "duration": 0.15,
                "tempo": 120.0
            },
            {
                "start_time": 4.6409091,
                "end_time": 8.4363636,
                "pitch": 35,
                "velocity": 64,
                "duration": 3.7954545,
                "tempo": 120.0
            },
            {
                "start_time": 8.2863636,
                "end_time": 8.4363636,
                "pitch": 47,
                "velocity": 64,
                "duration": 0.15,
                "tempo": 120.0
            },
            {
                "start_time": 8.4363636,
                "end_time": 8.6022727,
                "pitch": 40,
                "velocity": 64,
                "duration": 0.1659091,
                "tempo": 120.0
            },
            {
                "start_time": 8.6022727,
                "end_time": 8.75,
                "pitch": 40,
                "velocity": 64,
                "duration": 0.1477273,
                "tempo": 120.0
            },
            {
                "start_time": 7.1863636,
                "end_time": 8.75,
                "pitch": 54,
                "velocity": 64,
                "duration": 1.5636364,
                "tempo": 120.0
            },
            {
                "start_time": 8.75,
                "end_time": 8.9159091,
                "pitch": 45,
                "velocity": 64,
                "duration": 0.1659091,
                "tempo": 120.0
            },
            {
                "start_time": 8.9159091,
                "end_time": 9.0636364,
                "pitch": 47,
                "velocity": 64,
                "duration": 0.1477273,
                "tempo": 120.0
            },
            {
                "start_time": 9.0636364,
                "end_time": 9.2318182,
                "pitch": 47,
                "velocity": 64,
                "duration": 0.1681818,
                "tempo": 120.0
            },
            {
                "start_time": 9.2318182,
                "end_time": 9.3863636,
                "pitch": 45,
                "velocity": 64,
                "duration": 0.1545455,
                "tempo": 120.0
            },
            {
                "start_time": 9.3863636,
                "end_time": 9.5568182,
                "pitch": 47,
                "velocity": 64,
                "duration": 0.1704545,
                "tempo": 120.0
            },
            {
                "start_time": 8.4363636,
                "end_time": 9.7090909,
                "pitch": 35,
                "velocity": 64,
                "duration": 1.2727273,
                "tempo": 120.0
            },
            {
                "start_time": 9.5568182,
                "end_time": 9.7090909,
                "pitch": 47,
                "velocity": 64,
                "duration": 0.1522727,
                "tempo": 120.0
            },
            {
                "start_time": 9.7090909,
                "end_time": 9.875,
                "pitch": 40,
                "velocity": 64,
                "duration": 0.1659091,
                "tempo": 120.0
            },
            {
                "start_time": 9.875,
                "end_time": 10.0227273,
                "pitch": 40,
                "velocity": 64,
                "duration": 0.1477273,
                "tempo": 120.0
            },
            {
                "start_time": 10.0227273,
                "end_time": 10.1886364,
                "pitch": 45,
                "velocity": 64,
                "duration": 0.1659091,
                "tempo": 120.0
            },
            {
                "start_time": 10.1886364,
                "end_time": 10.3363636,
                "pitch": 47,
                "velocity": 64,
                "duration": 0.1477273,
                "tempo": 120.0
            },
            {
                "start_time": 10.3363636,
                "end_time": 10.5022727,
                "pitch": 47,
                "velocity": 64,
                "duration": 0.1659091,
                "tempo": 120.0
            },
            {
                "start_time": 10.1886364,
                "end_time": 10.6522727,
                "pitch": 45,
                "velocity": 64,
                "duration": 0.4636364,
                "tempo": 120.0
            },
            {
                "start_time": 10.5022727,
                "end_time": 10.6522727,
                "pitch": 45,
                "velocity": 64,
                "duration": 0.15,
                "tempo": 120.0
            },
            {
                "start_time": 10.5022727,
                "end_time": 10.8204545,
                "pitch": 47,
                "velocity": 64,
                "duration": 0.3181818,
                "tempo": 120.0
            },
            {
                "start_time": 10.6522727,
                "end_time": 10.8204545,
                "pitch": 47,
                "velocity": 64,
                "duration": 0.1681818,
                "tempo": 120.0
            },
            {
                "start_time": 9.7090909,
                "end_time": 10.9704545,
                "pitch": 35,
                "velocity": 64,
                "duration": 1.2613636,
                "tempo": 120.0
            },
            {
                "start_time": 10.8204545,
                "end_time": 10.9704545,
                "pitch": 47,
                "velocity": 64,
                "duration": 0.15,
                "tempo": 120.0
            },
            {
                "start_time": 10.9704545,
                "end_time": 11.1363636,
                "pitch": 40,
                "velocity": 64,
                "duration": 0.1659091,
                "tempo": 120.0
            },
            {
                "start_time": 11.1363636,
                "end_time": 11.2863636,
                "pitch": 40,
                "velocity": 64,
                "duration": 0.15,
                "tempo": 120.0
            },
            {
                "start_time": 8.75,
                "end_time": 11.2863636,
                "pitch": 54,
                "velocity": 64,
                "duration": 2.5363636,
                "tempo": 120.0
            },
            {
                "start_time": 10.6522727,
                "end_time": 11.4522727,
                "pitch": 45,
                "velocity": 64,
                "duration": 0.8,
                "tempo": 120.0
            },
            {
                "start_time": 11.2863636,
                "end_time": 11.4522727,
                "pitch": 45,
                "velocity": 64,
                "duration": 0.1659091,
                "tempo": 120.0
            },
            {
                "start_time": 11.4522727,
                "end_time": 11.6022727,
                "pitch": 47,
                "velocity": 64,
                "duration": 0.15,
                "tempo": 120.0
            },
            {
                "start_time": 11.6022727,
                "end_time": 11.7681818,
                "pitch": 47,
                "velocity": 64,
                "duration": 0.1659091,
                "tempo": 120.0
            },
            {
                "start_time": 11.7681818,
                "end_time": 11.9181818,
                "pitch": 45,
                "velocity": 64,
                "duration": 0.15,
                "tempo": 120.0
            },
            {
                "start_time": 11.7681818,
                "end_time": 12.0840909,
                "pitch": 47,
                "velocity": 64,
                "duration": 0.3159091,
                "tempo": 120.0
            },
            {
                "start_time": 11.9181818,
                "end_time": 12.0840909,
                "pitch": 47,
                "velocity": 64,
                "duration": 0.1659091,
                "tempo": 120.0
            },
            {
                "start_time": 10.9704545,
                "end_time": 12.2363636,
                "pitch": 35,
                "velocity": 64,
                "duration": 1.2659091,
                "tempo": 120.0
            },
            {
                "start_time": 12.0840909,
                "end_time": 12.2363636,
                "pitch": 47,
                "velocity": 64,
                "duration": 0.1522727,
                "tempo": 120.0
            },
            {
                "start_time": 12.2363636,
                "end_time": 12.4045455,
                "pitch": 40,
                "velocity": 64,
                "duration": 0.1681818,
                "tempo": 120.0
            },
            {
                "start_time": 12.4045455,
                "end_time": 12.5590909,
                "pitch": 40,
                "velocity": 64,
                "duration": 0.1545455,
                "tempo": 120.0
            },
            {
                "start_time": 11.2863636,
                "end_time": 12.5590909,
                "pitch": 54,
                "velocity": 64,
                "duration": 1.2727273,
                "tempo": 120.0
            },
            {
                "start_time": 11.9181818,
                "end_time": 12.7113636,
                "pitch": 45,
                "velocity": 64,
                "duration": 0.7931818,
                "tempo": 120.0
            },
            {
                "start_time": 12.5590909,
                "end_time": 12.7113636,
                "pitch": 45,
                "velocity": 64,
                "duration": 0.1522727,
                "tempo": 120.0
            },
            {
                "start_time": 12.7113636,
                "end_time": 12.8818182,
                "pitch": 47,
                "velocity": 64,
                "duration": 0.1704545,
                "tempo": 120.0
            },
            {
                "start_time": 12.8818182,
                "end_time": 13.0318182,
                "pitch": 47,
                "velocity": 64,
                "duration": 0.15,
                "tempo": 120.0
            },
            {
                "start_time": 13.0318182,
                "end_time": 13.1977273,
                "pitch": 45,
                "velocity": 64,
                "duration": 0.1659091,
                "tempo": 120.0
            },
            {
                "start_time": 13.0318182,
                "end_time": 13.3477273,
                "pitch": 47,
                "velocity": 64,
                "duration": 0.3159091,
                "tempo": 120.0
            },
            {
                "start_time": 13.1977273,
                "end_time": 13.3477273,
                "pitch": 47,
                "velocity": 64,
                "duration": 0.15,
                "tempo": 120.0
            },
            {
                "start_time": 12.2363636,
                "end_time": 13.5159091,
                "pitch": 35,
                "velocity": 64,
                "duration": 1.2795455,
                "tempo": 120.0
            },
            {
                "start_time": 13.3477273,
                "end_time": 13.5159091,
                "pitch": 47,
                "velocity": 64,
                "duration": 0.1681818,
                "tempo": 120.0
            },
            {
                "start_time": 13.5159091,
                "end_time": 13.6659091,
                "pitch": 40,
                "velocity": 64,
                "duration": 0.15,
                "tempo": 120.0
            },
            {
                "start_time": 13.6659091,
                "end_time": 13.8318182,
                "pitch": 40,
                "velocity": 64,
                "duration": 0.1659091,
                "tempo": 120.0
            },
            {
                "start_time": 13.1977273,
                "end_time": 13.9818182,
                "pitch": 45,
                "velocity": 64,
                "duration": 0.7840909,
                "tempo": 120.0
            },
            {
                "start_time": 13.8318182,
                "end_time": 13.9818182,
                "pitch": 45,
                "velocity": 64,
                "duration": 0.15,
                "tempo": 120.0
            },
            {
                "start_time": 13.9818182,
                "end_time": 14.1477273,
                "pitch": 47,
                "velocity": 64,
                "duration": 0.1659091,
                "tempo": 120.0
            },
            {
                "start_time": 14.1477273,
                "end_time": 14.2977273,
                "pitch": 47,
                "velocity": 64,
                "duration": 0.15,
                "tempo": 120.0
            },
            {
                "start_time": 14.2977273,
                "end_time": 14.4636364,
                "pitch": 45,
                "velocity": 64,
                "duration": 0.1659091,
                "tempo": 120.0
            },
            {
                "start_time": 14.4636364,
                "end_time": 14.6136364,
                "pitch": 47,
                "velocity": 64,
                "duration": 0.15,
                "tempo": 120.0
            },
            {
                "start_time": 14.6136364,
                "end_time": 14.7818182,
                "pitch": 47,
                "velocity": 64,
                "duration": 0.1681818,
                "tempo": 120.0
            },
            {
                "start_time": 14.7818182,
                "end_time": 14.9318182,
                "pitch": 40,
                "velocity": 64,
                "duration": 0.15,
                "tempo": 120.0
            },
            {
                "start_time": 14.9318182,
                "end_time": 15.0977273,
                "pitch": 40,
                "velocity": 64,
                "duration": 0.1659091,
                "tempo": 120.0
            },
            {
                "start_time": 12.5590909,
                "end_time": 15.0977273,
                "pitch": 54,
                "velocity": 64,
                "duration": 2.5386364,
                "tempo": 120.0
            },
            {
                "start_time": 14.4636364,
                "end_time": 15.2477273,
                "pitch": 45,
                "velocity": 64,
                "duration": 0.7840909,
                "tempo": 120.0
            },
            {
                "start_time": 15.0977273,
                "end_time": 15.2477273,
                "pitch": 45,
                "velocity": 64,
                "duration": 0.15,
                "tempo": 120.0
            },
            {
                "start_time": 15.2477273,
                "end_time": 15.4136364,
                "pitch": 47,
                "velocity": 64,
                "duration": 0.1659091,
                "tempo": 120.0
            },
            {
                "start_time": 15.4136364,
                "end_time": 15.5636364,
                "pitch": 47,
                "velocity": 64,
                "duration": 0.15,
                "tempo": 120.0
            },
            {
                "start_time": 15.5636364,
                "end_time": 15.7295455,
                "pitch": 45,
                "velocity": 64,
                "duration": 0.1659091,
                "tempo": 120.0
            },
            {
                "start_time": 15.7295455,
                "end_time": 15.7318182,
                "pitch": 45,
                "velocity": 64,
                "duration": 0.0022727,
                "tempo": 120.0
            },
            {
                "start_time": 15.5636364,
                "end_time": 15.8818182,
                "pitch": 47,
                "velocity": 64,
                "duration": 0.3181818,
                "tempo": 120.0
            },
            {
                "start_time": 15.7318182,
                "end_time": 15.8818182,
                "pitch": 47,
                "velocity": 64,
                "duration": 0.15,
                "tempo": 120.0
            },
            {
                "start_time": 13.5159091,
                "end_time": 16.0477273,
                "pitch": 35,
                "velocity": 64,
                "duration": 2.5318182,
                "tempo": 120.0
            },
            {
                "start_time": 15.8818182,
                "end_time": 16.0477273,
                "pitch": 47,
                "velocity": 64,
                "duration": 0.1659091,
                "tempo": 120.0
            },
            {
                "start_time": 16.0477273,
                "end_time": 16.2,
                "pitch": 40,
                "velocity": 64,
                "duration": 0.1522727,
                "tempo": 120.0
            },
            {
                "start_time": 16.2,
                "end_time": 16.3704545,
                "pitch": 40,
                "velocity": 64,
                "duration": 0.1704545,
                "tempo": 120.0
            },
            {
                "start_time": 15.0977273,
                "end_time": 16.3704545,
                "pitch": 54,
                "velocity": 64,
                "duration": 1.2727273,
                "tempo": 120.0
            },
            {
                "start_time": 16.3704545,
                "end_time": 16.5227273,
                "pitch": 45,
                "velocity": 64,
                "duration": 0.1522727,
                "tempo": 120.0
            },
            {
                "start_time": 16.5227273,
                "end_time": 16.6931818,
                "pitch": 47,
                "velocity": 64,
                "duration": 0.1704545,
                "tempo": 120.0
            },
            {
                "start_time": 16.6931818,
                "end_time": 16.8409091,
                "pitch": 47,
                "velocity": 64,
                "duration": 0.1477273,
                "tempo": 120.0
            },
            {
                "start_time": 16.5227273,
                "end_time": 16.9909091,
                "pitch": 45,
                "velocity": 64,
                "duration": 0.4681818,
                "tempo": 120.0
            },
            {
                "start_time": 16.8409091,
                "end_time": 16.9909091,
                "pitch": 45,
                "velocity": 64,
                "duration": 0.15,
                "tempo": 120.0
            },
            {
                "start_time": 16.8409091,
                "end_time": 17.1545455,
                "pitch": 47,
                "velocity": 64,
                "duration": 0.3136364,
                "tempo": 120.0
            },
            {
                "start_time": 16.9909091,
                "end_time": 17.1545455,
                "pitch": 47,
                "velocity": 64,
                "duration": 0.1636364,
                "tempo": 120.0
            },
            {
                "start_time": 16.0477273,
                "end_time": 17.3045455,
                "pitch": 35,
                "velocity": 64,
                "duration": 1.2568182,
                "tempo": 120.0
            },
            {
                "start_time": 17.1545455,
                "end_time": 17.3045455,
                "pitch": 47,
                "velocity": 64,
                "duration": 0.15,
                "tempo": 120.0
            },
            {
                "start_time": 17.3045455,
                "end_time": 17.4681818,
                "pitch": 40,
                "velocity": 64,
                "duration": 0.1636364,
                "tempo": 120.0
            },
            {
                "start_time": 17.4681818,
                "end_time": 17.6181818,
                "pitch": 40,
                "velocity": 64,
                "duration": 0.15,
                "tempo": 120.0
            },
            {
                "start_time": 16.3704545,
                "end_time": 17.6181818,
                "pitch": 54,
                "velocity": 64,
                "duration": 1.2477273,
                "tempo": 120.0
            },
            {
                "start_time": 17.6181818,
                "end_time": 17.7818182,
                "pitch": 45,
                "velocity": 64,
                "duration": 0.1636364,
                "tempo": 120.0
            },
            {
                "start_time": 17.7818182,
                "end_time": 17.9295455,
                "pitch": 47,
                "velocity": 64,
                "duration": 0.1477273,
                "tempo": 120.0
            },
            {
                "start_time": 17.9295455,
                "end_time": 18.0977273,
                "pitch": 47,
                "velocity": 64,
                "duration": 0.1681818,
                "tempo": 120.0
            },
            {
                "start_time": 17.7818182,
                "end_time": 18.2454545,
                "pitch": 45,
                "velocity": 64,
                "duration": 0.4636364,
                "tempo": 120.0
            },
            {
                "start_time": 18.0977273,
                "end_time": 18.2454545,
                "pitch": 45,
                "velocity": 64,
                "duration": 0.1477273,
                "tempo": 120.0
            },
            {
                "start_time": 18.2454545,
                "end_time": 18.4136364,
                "pitch": 47,
                "velocity": 64,
                "duration": 0.1681818,
                "tempo": 120.0
            },
            {
                "start_time": 18.4136364,
                "end_time": 18.5636364,
                "pitch": 47,
                "velocity": 64,
                "duration": 0.15,
                "tempo": 120.0
            },
            {
                "start_time": 18.5636364,
                "end_time": 18.7295455,
                "pitch": 40,
                "velocity": 64,
                "duration": 0.1659091,
                "tempo": 120.0
            },
            {
                "start_time": 18.7295455,
                "end_time": 18.8795455,
                "pitch": 40,
                "velocity": 64,
                "duration": 0.15,
                "tempo": 120.0
            },
            {
                "start_time": 18.8795455,
                "end_time": 19.0454545,
                "pitch": 45,
                "velocity": 64,
                "duration": 0.1659091,
                "tempo": 120.0
            },
            {
                "start_time": 19.0454545,
                "end_time": 19.1954545,
                "pitch": 47,
                "velocity": 64,
                "duration": 0.15,
                "tempo": 120.0
            },
            {
                "start_time": 19.1954545,
                "end_time": 19.3659091,
                "pitch": 47,
                "velocity": 64,
                "duration": 0.1704545,
                "tempo": 120.0
            },
            {
                "start_time": 19.0454545,
                "end_time": 19.5204545,
                "pitch": 45,
                "velocity": 64,
                "duration": 0.475,
                "tempo": 120.0
            },
            {
                "start_time": 19.3659091,
                "end_time": 19.5204545,
                "pitch": 45,
                "velocity": 64,
                "duration": 0.1545455,
                "tempo": 120.0
            },
            {
                "start_time": 19.3659091,
                "end_time": 19.6886364,
                "pitch": 47,
                "velocity": 64,
                "duration": 0.3227273,
                "tempo": 120.0
            },
            {
                "start_time": 19.5204545,
                "end_time": 19.6886364,
                "pitch": 47,
                "velocity": 64,
                "duration": 0.1681818,
                "tempo": 120.0
            },
            {
                "start_time": 17.3045455,
                "end_time": 19.8431818,
                "pitch": 35,
                "velocity": 64,
                "duration": 2.5386364,
                "tempo": 120.0
            },
            {
                "start_time": 19.6886364,
                "end_time": 19.8431818,
                "pitch": 47,
                "velocity": 64,
                "duration": 0.1545455,
                "tempo": 120.0
            },
            {
                "start_time": 19.8431818,
                "end_time": 20.0090909,
                "pitch": 40,
                "velocity": 64,
                "duration": 0.1659091,
                "tempo": 120.0
            },
            {
                "start_time": 20.0090909,
                "end_time": 20.1590909,
                "pitch": 40,
                "velocity": 64,
                "duration": 0.15,
                "tempo": 120.0
            },
            {
                "start_time": 20.1590909,
                "end_time": 20.325,
                "pitch": 50,
                "velocity": 64,
                "duration": 0.1659091,
                "tempo": 120.0
            },
            {
                "start_time": 20.325,
                "end_time": 20.4772727,
                "pitch": 50,
                "velocity": 64,
                "duration": 0.1522727,
                "tempo": 120.0
            },
            {
                "start_time": 20.4772727,
                "end_time": 20.6431818,
                "pitch": 50,
                "velocity": 64,
                "duration": 0.1659091,
                "tempo": 120.0
            },
            {
                "start_time": 20.6431818,
                "end_time": 20.7931818,
                "pitch": 50,
                "velocity": 64,
                "duration": 0.15,
                "tempo": 120.0
            },
            {
                "start_time": 20.7931818,
                "end_time": 20.9590909,
                "pitch": 50,
                "velocity": 64,
                "duration": 0.1659091,
                "tempo": 120.0
            },
            {
                "start_time": 20.9590909,
                "end_time": 21.1090909,
                "pitch": 50,
                "velocity": 64,
                "duration": 0.15,
                "tempo": 120.0
            },
            {
                "start_time": 21.1090909,
                "end_time": 21.2590909,
                "pitch": 50,
                "velocity": 64,
                "duration": 0.15,
                "tempo": 120.0
            },
            {
                "start_time": 21.2590909,
                "end_time": 21.425,
                "pitch": 50,
                "velocity": 64,
                "duration": 0.1659091,
                "tempo": 120.0
            },
            {
                "start_time": 21.425,
                "end_time": 21.575,
                "pitch": 40,
                "velocity": 64,
                "duration": 0.15,
                "tempo": 120.0
            },
            {
                "start_time": 21.575,
                "end_time": 21.7431818,
                "pitch": 40,
                "velocity": 64,
                "duration": 0.1681818,
                "tempo": 120.0
            },
            {
                "start_time": 21.7431818,
                "end_time": 21.8931818,
                "pitch": 40,
                "velocity": 64,
                "duration": 0.15,
                "tempo": 120.0
            },
            {
                "start_time": 21.8931818,
                "end_time": 22.0590909,
                "pitch": 40,
                "velocity": 64,
                "duration": 0.1659091,
                "tempo": 120.0
            },
            {
                "start_time": 22.0590909,
                "end_time": 22.2090909,
                "pitch": 40,
                "velocity": 64,
                "duration": 0.15,
                "tempo": 120.0
            },
            {
                "start_time": 22.2090909,
                "end_time": 22.375,
                "pitch": 40,
                "velocity": 64,
                "duration": 0.1659091,
                "tempo": 120.0
            },
            {
                "start_time": 22.375,
                "end_time": 22.525,
                "pitch": 40,
                "velocity": 64,
                "duration": 0.15,
                "tempo": 120.0
            },
            {
                "start_time": 22.525,
                "end_time": 22.6931818,
                "pitch": 40,
                "velocity": 64,
                "duration": 0.1681818,
                "tempo": 120.0
            },
            {
                "start_time": 22.6931818,
                "end_time": 22.8409091,
                "pitch": 59,
                "velocity": 64,
                "duration": 0.1477273,
                "tempo": 120.0
            },
            {
                "start_time": 22.8409091,
                "end_time": 23.0090909,
                "pitch": 47,
                "velocity": 64,
                "duration": 0.1681818,
                "tempo": 120.0
            },
            {
                "start_time": 23.0090909,
                "end_time": 23.1590909,
                "pitch": 47,
                "velocity": 64,
                "duration": 0.15,
                "tempo": 120.0
            },
            {
                "start_time": 23.1590909,
                "end_time": 23.325,
                "pitch": 59,
                "velocity": 64,
                "duration": 0.1659091,
                "tempo": 120.0
            },
            {
                "start_time": 23.325,
                "end_time": 23.475,
                "pitch": 47,
                "velocity": 64,
                "duration": 0.15,
                "tempo": 120.0
            },
            {
                "start_time": 23.475,
                "end_time": 23.6409091,
                "pitch": 47,
                "velocity": 64,
                "duration": 0.1659091,
                "tempo": 120.0
            },
            {
                "start_time": 23.6409091,
                "end_time": 23.7909091,
                "pitch": 59,
                "velocity": 64,
                "duration": 0.15,
                "tempo": 120.0
            },
            {
                "start_time": 23.7909091,
                "end_time": 23.9568182,
                "pitch": 47,
                "velocity": 64,
                "duration": 0.1659091,
                "tempo": 120.0
            },
            {
                "start_time": 23.9590909,
                "end_time": 24.1068182,
                "pitch": 47,
                "velocity": 64,
                "duration": 0.1477273,
                "tempo": 120.0
            },
            {
                "start_time": 24.1068182,
                "end_time": 24.275,
                "pitch": 47,
                "velocity": 64,
                "duration": 0.1681818,
                "tempo": 120.0
            },
            {
                "start_time": 24.275,
                "end_time": 24.425,
                "pitch": 59,
                "velocity": 64,
                "duration": 0.15,
                "tempo": 120.0
            },
            {
                "start_time": 24.425,
                "end_time": 24.5909091,
                "pitch": 47,
                "velocity": 64,
                "duration": 0.1659091,
                "tempo": 120.0
            },
            {
                "start_time": 24.5909091,
                "end_time": 24.7409091,
                "pitch": 47,
                "velocity": 64,
                "duration": 0.15,
                "tempo": 120.0
            },
            {
                "start_time": 24.7409091,
                "end_time": 24.9068182,
                "pitch": 59,
                "velocity": 64,
                "duration": 0.1659091,
                "tempo": 120.0
            },
            {
                "start_time": 24.9068182,
                "end_time": 25.0613636,
                "pitch": 47,
                "velocity": 64,
                "duration": 0.1545455,
                "tempo": 120.0
            },
            {
                "start_time": 25.0613636,
                "end_time": 25.2318182,
                "pitch": 47,
                "velocity": 64,
                "duration": 0.1704545,
                "tempo": 120.0
            },
            {
                "start_time": 25.2318182,
                "end_time": 25.3840909,
                "pitch": 50,
                "velocity": 64,
                "duration": 0.1522727,
                "tempo": 120.0
            },
            {
                "start_time": 25.3840909,
                "end_time": 25.5363636,
                "pitch": 50,
                "velocity": 64,
                "duration": 0.1522727,
                "tempo": 120.0
            },
            {
                "start_time": 25.5363636,
                "end_time": 25.7022727,
                "pitch": 50,
                "velocity": 64,
                "duration": 0.1659091,
                "tempo": 120.0
            },
            {
                "start_time": 25.7022727,
                "end_time": 25.85,
                "pitch": 50,
                "velocity": 64,
                "duration": 0.1477273,
                "tempo": 120.0
            },
            {
                "start_time": 25.85,
                "end_time": 26.0159091,
                "pitch": 50,
                "velocity": 64,
                "duration": 0.1659091,
                "tempo": 120.0
            },
            {
                "start_time": 26.0159091,
                "end_time": 26.1636364,
                "pitch": 50,
                "velocity": 64,
                "duration": 0.1477273,
                "tempo": 120.0
            },
            {
                "start_time": 26.1636364,
                "end_time": 26.3295455,
                "pitch": 50,
                "velocity": 64,
                "duration": 0.1659091,
                "tempo": 120.0
            },
            {
                "start_time": 21.425,
                "end_time": 26.4772727,
                "pitch": 38,
                "velocity": 64,
                "duration": 5.0522727,
                "tempo": 120.0
            },
            {
                "start_time": 26.3295455,
                "end_time": 26.4772727,
                "pitch": 50,
                "velocity": 64,
                "duration": 0.1477273,
                "tempo": 120.0
            },
            {
                "start_time": 26.4772727,
                "end_time": 26.6409091,
                "pitch": 40,
                "velocity": 64,
                "duration": 0.1636364,
                "tempo": 120.0
            },
            {
                "start_time": 26.6409091,
                "end_time": 26.7909091,
                "pitch": 40,
                "velocity": 64,
                "duration": 0.15,
                "tempo": 120.0
            },
            {
                "start_time": 26.7909091,
                "end_time": 26.9613636,
                "pitch": 40,
                "velocity": 64,
                "duration": 0.1704545,
                "tempo": 120.0
            },
            {
                "start_time": 26.9613636,
                "end_time": 27.1136364,
                "pitch": 40,
                "velocity": 64,
                "duration": 0.1522727,
                "tempo": 120.0
            },
            {
                "start_time": 27.1136364,
                "end_time": 27.2840909,
                "pitch": 40,
                "velocity": 64,
                "duration": 0.1704545,
                "tempo": 120.0
            },
            {
                "start_time": 27.2840909,
                "end_time": 27.4363636,
                "pitch": 40,
                "velocity": 64,
                "duration": 0.1522727,
                "tempo": 120.0
            },
            {
                "start_time": 27.4363636,
                "end_time": 27.6045455,
                "pitch": 40,
                "velocity": 64,
                "duration": 0.1681818,
                "tempo": 120.0
            },
            {
                "start_time": 27.6045455,
                "end_time": 27.7545455,
                "pitch": 40,
                "velocity": 64,
                "duration": 0.15,
                "tempo": 120.0
            },
            {
                "start_time": 27.7545455,
                "end_time": 27.9204545,
                "pitch": 40,
                "velocity": 64,
                "duration": 0.1659091,
                "tempo": 120.0
            },
            {
                "start_time": 27.9204545,
                "end_time": 28.0704545,
                "pitch": 42,
                "velocity": 64,
                "duration": 0.15,
                "tempo": 120.0
            },
            {
                "start_time": 28.0704545,
                "end_time": 28.2363636,
                "pitch": 42,
                "velocity": 64,
                "duration": 0.1659091,
                "tempo": 120.0
            },
            {
                "start_time": 17.6181818,
                "end_time": 28.5522727,
                "pitch": 54,
                "velocity": 64,
                "duration": 10.9340909,
                "tempo": 120.0
            },
            {
                "start_time": 28.2363636,
                "end_time": 28.5522727,
                "pitch": 54,
                "velocity": 64,
                "duration": 0.3159091,
                "tempo": 120.0
            },
            {
                "start_time": 28.5522727,
                "end_time": 28.7022727,
                "pitch": 42,
                "velocity": 64,
                "duration": 0.15,
                "tempo": 120.0
            },
            {
                "start_time": 28.7022727,
                "end_time": 28.8704545,
                "pitch": 42,
                "velocity": 64,
                "duration": 0.1681818,
                "tempo": 120.0
            },
            {
                "start_time": 28.8704545,
                "end_time": 29.0204545,
                "pitch": 40,
                "velocity": 64,
                "duration": 0.15,
                "tempo": 120.0
            },
            {
                "start_time": 29.0204545,
                "end_time": 29.1863636,
                "pitch": 49,
                "velocity": 64,
                "duration": 0.1659091,
                "tempo": 120.0
            },
            {
                "start_time": 29.1863636,
                "end_time": 29.3363636,
                "pitch": 49,
                "velocity": 64,
                "duration": 0.15,
                "tempo": 120.0
            },
            {
                "start_time": 29.3363636,
                "end_time": 29.5022727,
                "pitch": 54,
                "velocity": 64,
                "duration": 0.1659091,
                "tempo": 120.0
            },
            {
                "start_time": 29.5022727,
                "end_time": 29.6522727,
                "pitch": 42,
                "velocity": 64,
                "duration": 0.15,
                "tempo": 120.0
            },
            {
                "start_time": 29.0204545,
                "end_time": 29.8022727,
                "pitch": 52,
                "velocity": 64,
                "duration": 0.7818182,
                "tempo": 120.0
            },
            {
                "start_time": 29.6522727,
                "end_time": 29.8022727,
                "pitch": 52,
                "velocity": 64,
                "duration": 0.15,
                "tempo": 120.0
            },
            {
                "start_time": 29.8022727,
                "end_time": 29.9681818,
                "pitch": 40,
                "velocity": 64,
                "duration": 0.1659091,
                "tempo": 120.0
            },
            {
                "start_time": 29.3363636,
                "end_time": 30.1227273,
                "pitch": 49,
                "velocity": 64,
                "duration": 0.7863636,
                "tempo": 120.0
            },
            {
                "start_time": 29.9681818,
                "end_time": 30.1227273,
                "pitch": 49,
                "velocity": 64,
                "duration": 0.1545455,
                "tempo": 120.0
            },
            {
                "start_time": 30.1227273,
                "end_time": 30.2931818,
                "pitch": 49,
                "velocity": 64,
                "duration": 0.1704545,
                "tempo": 120.0
            },
            {
                "start_time": 30.2931818,
                "end_time": 30.4454545,
                "pitch": 45,
                "velocity": 64,
                "duration": 0.1522727,
                "tempo": 120.0
            },
            {
                "start_time": 25.2318182,
                "end_time": 30.525,
                "pitch": 47,
                "velocity": 64,
                "duration": 5.2931818,
                "tempo": 120.0
            },
            {
                "start_time": 30.4454545,
                "end_time": 30.525,
                "pitch": 47,
                "velocity": 64,
                "duration": 0.0795455,
                "tempo": 120.0
            }
        ]
    }
}