{
    "mood": "angry",
    "instruments": {
        "Acoustic Bass": [
            {
                "start_time": 0.0363636,
                "end_time": 0.2340909,
                "pitch": 33,
                "velocity": 80,
                "duration": 0.1977273,
                "tempo": 120.0
            },
            {
                "start_time": 0.2340909,
                "end_time": 0.4318182,
                "pitch": 33,
                "velocity": 80,
                "duration": 0.1977273,
                "tempo": 120.0
            },
            {
                "start_time": 0.8454545,
                "end_time": 1.0454545,
                "pitch": 33,
                "velocity": 80,
                "duration": 0.2,
                "tempo": 120.0
            },
            {
                "start_time": 1.0454545,
                "end_time": 1.2454545,
                "pitch": 33,
                "velocity": 80,
                "duration": 0.2,
                "tempo": 120.0
            },
            {
                "start_time": 1.6454545,
                "end_time": 1.8454545,
                "pitch": 33,
                "velocity": 80,
                "duration": 0.2,
                "tempo": 120.0
            },
            {
                "start_time": 1.8454545,
                "end_time": 2.0454545,
                "pitch": 33,
                "velocity": 80,
                "duration": 0.2,
                "tempo": 120.0
            },
            {
                "start_time": 2.4477273,
                "end_time": 2.6477273,
                "pitch": 33,
                "velocity": 80,
                "duration": 0.2,
                "tempo": 120.0
            },
            {
                "start_time": 2.65,
                "end_time": 2.85,
                "pitch": 33,
                "velocity": 80,
                "duration": 0.2,
                "tempo": 120.0
            },
            {
                "start_time": 3.05,
                "end_time": 3.15,
                "pitch": 38,
                "velocity": 80,
                "duration": 0.1,
                "tempo": 120.0
            },
            {
                "start_time": 3.15,
                "end_time": 3.2522727,
                "pitch": 40,
                "velocity": 80,
                "duration": 0.1022727,
                "tempo": 120.0
            },
            {
                "start_time": 3.2522727,
                "end_time": 3.4522727,
                "pitch": 33,
                "velocity": 80,
                "duration": 0.2,
                "tempo": 120.0
            },
            {
                "start_time": 3.4522727,
                "end_time": 3.65,
                "pitch": 33,
                "velocity": 80,
                "duration": 0.1977273,
                "tempo": 120.0
            },
            {
                "start_time": 4.0636364,
                "end_time": 4.2568182,
                "pitch": 33,
                "velocity": 80,
                "duration": 0.1931818,
                "tempo": 120.0
            },
            {
                "start_time": 4.2590909,
                "end_time": 4.4545455,
                "pitch": 33,
                "velocity": 80,
                "duration": 0.1954545,
                "tempo": 120.0
            },
            {
                "start_time": 4.8659091,
                "end_time": 5.0659091,
                "pitch": 33,
                "velocity": 80,
                "duration": 0.2,
                "tempo": 120.0
            },
            {
                "start_time": 5.0659091,
                "end_time": 5.2659091,
                "pitch": 33,
                "velocity": 80,
                "duration": 0.2,
                "tempo": 120.0
            },
            {
                "start_time": 5.6590909,
                "end_time": 5.7613636,
                "pitch": 33,
                "velocity": 80,
                "duration": 0.1022727,
                "tempo": 120.0
            },
            {
                "start_time": 5.7636364,
                "end_time": 5.8659091,
                "pitch": 45,
                "velocity": 80,
                "duration": 0.1022727,
                "tempo": 120.0
            },
            {
                "start_time": 5.8659091,
                "end_time": 5.9681818,
                "pitch": 43,
                "velocity": 80,
                "duration": 0.1022727,
                "tempo": 120.0
            },
            {
                "start_time": 5.9681818,
                "end_time": 6.0704545,
                "pitch": 40,
                "velocity": 80,
                "duration": 0.1022727,
                "tempo": 120.0
            },
            {
                "start_time": 6.0704545,
                "end_time": 6.1704545,
                "pitch": 38,
                "velocity": 80,
                "duration": 0.1,
                "tempo": 120.0
            },
            {
                "start_time": 6.1727273,
                "end_time": 6.2727273,
                "pitch": 36,
                "velocity": 80,
                "duration": 0.1,
                "tempo": 120.0
            },
            {
                "start_time": 6.2727273,
                "end_time": 6.3727273,
                "pitch": 33,
                "velocity": 80,
                "duration": 0.1,
                "tempo": 120.0
            },
            {
                "start_time": 6.3727273,
                "end_time": 6.475,
                "pitch": 31,
                "velocity": 80,
                "duration": 0.1022727,
                "tempo": 120.0
            },
            {
                "start_time": 6.4772727,
                "end_time": 6.675,
                "pitch": 33,
                "velocity": 80,
                "duration": 0.1977273,
                "tempo": 120.0
            },
            {
                "start_time": 6.6772727,
                "end_time": 6.875,
                "pitch": 33,
                "velocity": 80,
                "duration": 0.1977273,
                "tempo": 120.0
            },
            {
                "start_time": 7.2795455,
                "end_time": 7.4795455,
                "pitch": 33,
                "velocity": 80,
                "duration": 0.2,
                "tempo": 120.0
            },
            {
                "start_time": 7.4795455,
                "end_time": 7.6795455,
                "pitch": 33,
                "velocity": 80,
                "duration": 0.2,
                "tempo": 120.0
            },
            {
                "start_time": 8.0818182,
                "end_time": 8.2818182,
                "pitch": 33,
                "velocity": 80,
                "duration": 0.2,
                "tempo": 120.0
            },
            {
                "start_time": 8.2818182,
                "end_time": 8.4818182,
                "pitch": 33,
                "velocity": 80,
                "duration": 0.2,
                "tempo": 120.0
            },
            {
                "start_time": 8.8863636,
                "end_time": 9.0863636,
                "pitch": 33,
                "velocity": 80,
                "duration": 0.2,
                "tempo": 120.0
            },
            {
                "start_time": 9.0863636,
                "end_time": 9.2886364,
                "pitch": 33,
                "velocity": 80,
                "duration": 0.2022727,
                "tempo": 120.0
            },
            {
                "start_time": 9.4909091,
                "end_time": 9.5909091,
                "pitch": 38,
                "velocity": 80,
                "duration": 0.1,
                "tempo": 120.0
            },
            {
                "start_time": 9.5909091,
                "end_time": 9.6931818,
                "pitch": 40,
                "velocity": 80,
                "duration": 0.1022727,
                "tempo": 120.0
            },
            {
                "start_time": 9.6931818,
                "end_time": 9.8931818,
                "pitch": 33,
                "velocity": 80,
                "duration": 0.2,
                "tempo": 120.0
            },
            {
                "start_time": 9.8954545,
                "end_time": 10.0931818,
                "pitch": 33,
                "velocity": 80,
                "duration": 0.1977273,
                "tempo": 120.0
            },
            {
                "start_time": 10.4977273,
                "end_time": 10.6954545,
                "pitch": 33,
                "velocity": 80,
                "duration": 0.1977273,
                "tempo": 120.0
            },
            {
                "start_time": 10.6977273,
                "end_time": 10.8977273,
                "pitch": 33,
                "velocity": 80,
                "duration": 0.2,
                "tempo": 120.0
            },
            {
                "start_time": 11.3113636,
                "end_time": 11.5113636,
                "pitch": 33,
                "velocity": 80,
                "duration": 0.2,
                "tempo": 120.0
            },
            {
                "start_time": 11.5113636,
                "end_time": 11.7136364,
                "pitch": 33,
                "velocity": 80,
                "duration": 0.2022727,
                "tempo": 120.0
            },
            {
                "start_time": 12.1159091,
                "end_time": 12.2159091,
                "pitch": 33,
                "velocity": 80,
                "duration": 0.1,
                "tempo": 120.0
            },
            {
                "start_time": 12.2181818,
                "end_time": 12.3181818,
                "pitch": 45,
                "velocity": 80,
                "duration": 0.1,
                "tempo": 120.0
            },
            {
                "start_time": 12.3181818,
                "end_time": 12.4181818,
                "pitch": 43,
                "velocity": 80,
                "duration": 0.1,
                "tempo": 120.0
            },
            {
                "start_time": 12.4204545,
                "end_time": 12.5204545,
                "pitch": 40,
                "velocity": 80,
                "duration": 0.1,
                "tempo": 120.0
            },
            {
                "start_time": 12.5204545,
                "end_time": 12.6181818,
                "pitch": 38,
                "velocity": 80,
                "duration": 0.0977273,
                "tempo": 120.0
            },
            {
                "start_time": 12.6204545,
                "end_time": 12.7204545,
                "pitch": 36,
                "velocity": 80,
                "duration": 0.1,
                "tempo": 120.0
            },
            {
                "start_time": 12.7204545,
                "end_time": 12.8204545,
                "pitch": 33,
                "velocity": 80,
                "duration": 0.1,
                "tempo": 120.0
            },
            {
                "start_time": 12.8204545,
                "end_time": 12.9227273,
                "pitch": 31,
                "velocity": 80,
                "duration": 0.1022727,
                "tempo": 120.0
            },
            {
                "start_time": 12.9227273,
                "end_time": 13.1227273,
                "pitch": 33,
                "velocity": 80,
                "duration": 0.2,
                "tempo": 120.0
            },
            {
                "start_time": 13.1227273,
                "end_time": 13.325,
                "pitch": 33,
                "velocity": 80,
                "duration": 0.2022727,
                "tempo": 120.0
            },
            {
                "start_time": 13.7272727,
                "end_time": 13.9295455,
                "pitch": 33,
                "velocity": 80,
                "duration": 0.2022727,
                "tempo": 120.0
            },
            {
                "start_time": 13.9295455,
                "end_time": 14.1295455,
                "pitch": 33,
                "velocity": 80,
                "duration": 0.2,
                "tempo": 120.0
            },
            {
                "start_time": 14.5340909,
                "end_time": 14.7340909,
                "pitch": 33,
                "velocity": 80,
                "duration": 0.2,
                "tempo": 120.0
            },
            {
                "start_time": 14.7340909,
                "end_time": 14.9340909,
                "pitch": 33,
                "velocity": 80,
                "duration": 0.2,
                "tempo": 120.0
            },
            {
                "start_time": 15.3386364,
                "end_time": 15.5386364,
                "pitch": 33,
                "velocity": 80,
                "duration": 0.2,
                "tempo": 120.0
            },
            {
                "start_time": 15.5409091,
                "end_time": 15.7409091,
                "pitch": 33,
                "velocity": 80,
                "duration": 0.2,
                "tempo": 120.0
            },
            {
                "start_time": 15.9431818,
                "end_time": 16.0431818,
                "pitch": 38,
                "velocity": 80,
                "duration": 0.1,
                "tempo": 120.0
            },
            {
                "start_time": 16.0431818,
                "end_time": 16.1431818,
                "pitch": 40,
                "velocity": 80,
                "duration": 0.1,
                "tempo": 120.0
            },
            {
                "start_time": 16.1454545,
                "end_time": 16.3454545,
                "pitch": 33,
                "velocity": 80,
                "duration": 0.2,
                "tempo": 120.0
            },
            {
                "start_time": 16.3454545,
                "end_time": 16.5477273,
                "pitch": 33,
                "velocity": 80,
                "duration": 0.2022727,
                "tempo": 120.0
            },
            {
                "start_time": 16.9477273,
                "end_time": 17.15,
                "pitch": 33,
                "velocity": 80,
                "duration": 0.2022727,
                "tempo": 120.0
            },
            {
                "start_time": 17.15,
                "end_time": 17.35,
                "pitch": 33,
                "velocity": 80,
                "duration": 0.2,
                "tempo": 120.0
            },
            {
                "start_time": 17.7522727,
                "end_time": 17.9522727,
                "pitch": 33,
                "velocity": 80,
                "duration": 0.2,
                "tempo": 120.0
            },
            {
                "start_time": 17.9522727,
                "end_time": 18.1522727,
                "pitch": 33,
                "velocity": 80,
                "duration": 0.2,
                "tempo": 120.0
            },
            {
                "start_time": 18.5636364,
                "end_time": 18.6590909,
                "pitch": 33,
                "velocity": 80,
                "duration": 0.0954545,
                "tempo": 120.0
            },
            {
                "start_time": 18.6613636,
                "end_time": 18.7590909,
                "pitch": 45,
                "velocity": 80,
                "duration": 0.0977273,
                "tempo": 120.0
            },
            {
                "start_time": 18.7590909,
                "end_time": 18.8568182,
                "pitch": 43,
                "velocity": 80,
                "duration": 0.0977273,
                "tempo": 120.0
            },
            {
                "start_time": 18.8568182,
                "end_time": 18.9545455,
                "pitch": 40,
                "velocity": 80,
                "duration": 0.0977273,
                "tempo": 120.0
            },
            {
                "start_time": 18.9568182,
                "end_time": 19.0568182,
                "pitch": 38,
                "velocity": 80,
                "duration": 0.1,
                "tempo": 120.0
            },
            {
                "start_time": 19.0568182,
                "end_time": 19.1613636,
                "pitch": 36,
                "velocity": 80,
                "duration": 0.1045455,
                "tempo": 120.0
            },
            {
                "start_time": 19.1613636,
                "end_time": 19.2636364,
                "pitch": 33,
                "velocity": 80,
                "duration": 0.1022727,
                "tempo": 120.0
            },
            {
                "start_time": 19.2636364,
                "end_time": 19.3659091,
                "pitch": 31,
                "velocity": 80,
                "duration": 0.1022727,
                "tempo": 120.0
            },
            {
                "start_time": 19.3681818,
                "end_time": 19.5681818,
                "pitch": 29,
                "velocity": 80,
                "duration": 0.2,
                "tempo": 120.0
            },
            {
                "start_time": 19.5681818,
                "end_time": 19.7704545,
                "pitch": 29,
                "velocity": 80,
                "duration": 0.2022727,
                "tempo": 120.0
            },
            {
                "start_time": 20.1704545,
                "end_time": 20.3704545,
                "pitch": 29,
                "velocity": 80,
                "duration": 0.2,
                "tempo": 120.0
            },
            {
                "start_time": 20.3704545,
                "end_time": 20.5704545,
                "pitch": 29,
                "velocity": 80,
                "duration": 0.2,
                "tempo": 120.0
            },
            {
                "start_time": 20.975,
                "end_time": 21.1727273,
                "pitch": 31,
                "velocity": 80,
                "duration": 0.1977273,
                "tempo": 120.0
            },
            {
                "start_time": 21.175,
                "end_time": 21.375,
                "pitch": 31,
                "velocity": 80,
                "duration": 0.2,
                "tempo": 120.0
            },
            {
                "start_time": 21.7772727,
                "end_time": 21.9772727,
                "pitch": 31,
                "velocity": 80,
                "duration": 0.2,
                "tempo": 120.0
            },
            {
                "start_time": 21.9795455,
                "end_time": 22.1795455,
                "pitch": 31,
                "velocity": 80,
                "duration": 0.2,
                "tempo": 120.0
            },
            {
                "start_time": 22.3795455,
                "end_time": 22.4795455,
                "pitch": 36,
                "velocity": 80,
                "duration": 0.1,
                "tempo": 120.0
            },
            {
                "start_time": 22.4795455,
                "end_time": 22.5795455,
                "pitch": 38,
                "velocity": 80,
                "duration": 0.1,
                "tempo": 120.0
            },
            {
                "start_time": 22.5795455,
                "end_time": 22.7795455,
                "pitch": 33,
                "velocity": 80,
                "duration": 0.2,
                "tempo": 120.0
            },
            {
                "start_time": 22.7818182,
                "end_time": 22.9818182,
                "pitch": 33,
                "velocity": 80,
                "duration": 0.2,
                "tempo": 120.0
            },
            {
                "start_time": 23.3818182,
                "end_time": 23.5840909,
                "pitch": 33,
                "velocity": 80,
                "duration": 0.2022727,
                "tempo": 120.0
            },
            {
                "start_time": 23.5840909,
                "end_time": 23.7863636,
                "pitch": 33,
                "velocity": 80,
                "duration": 0.2022727,
                "tempo": 120.0
            },
            {
                "start_time": 24.1863636,
                "end_time": 24.3863636,
                "pitch": 34,
                "velocity": 80,
                "duration": 0.2,
                "tempo": 120.0
            },
            {
                "start_time": 24.3863636,
                "end_time": 24.5863636,
                "pitch": 34,
                "velocity": 80,
                "duration": 0.2,
                "tempo": 120.0
            },
            {
                "start_time": 24.9909091,
                "end_time": 25.1909091,
                "pitch": 35,
                "velocity": 80,
                "duration": 0.2,
                "tempo": 120.0
            },
            {
                "start_time": 25.1909091,
                "end_time": 25.3909091,
                "pitch": 35,
                "velocity": 80,
                "duration": 0.2,
                "tempo": 120.0
            },
            {
                "start_time": 25.3909091,
                "end_time": 25.4931818,
                "pitch": 38,
                "velocity": 80,
                "duration": 0.1022727,
                "tempo": 120.0
            },
            {
                "start_time": 25.4931818,
                "end_time": 25.5954545,
                "pitch": 40,
                "velocity": 80,
                "duration": 0.1022727,
                "tempo": 120.0
            },
            {
                "start_time": 25.5977273,
                "end_time": 25.7,
                "pitch": 35,
                "velocity": 80,
                "duration": 0.1022727,
                "tempo": 120.0
            },
            {
                "start_time": 25.7,
                "end_time": 25.8022727,
                "pitch": 36,
                "velocity": 80,
                "duration": 0.1022727,
                "tempo": 120.0
            },
            {
                "start_time": 25.8045455,
                "end_time": 26.0045455,
                "pitch": 33,
                "velocity": 80,
                "duration": 0.2,
                "tempo": 120.0
            },
            {
                "start_time": 26.0045455,
                "end_time": 26.2045455,
                "pitch": 33,
                "velocity": 80,
                "duration": 0.2,
                "tempo": 120.0
            },
            {
                "start_time": 26.5977273,
                "end_time": 26.8,
                "pitch": 33,
                "velocity": 80,
                "duration": 0.2022727,
                "tempo": 120.0
            },
            {
                "start_time": 26.8,
                "end_time": 27.0,
                "pitch": 33,
                "velocity": 80,
                "duration": 0.2,
                "tempo": 120.0
            },
            {
                "start_time": 27.4136364,
                "end_time": 27.6136364,
                "pitch": 33,
                "velocity": 80,
                "duration": 0.2,
                "tempo": 120.0
            },
            {
                "start_time": 27.6136364,
                "end_time": 27.8136364,
                "pitch": 33,
                "velocity": 80,
                "duration": 0.2,
                "tempo": 120.0
            },
            {
                "start_time": 28.2159091,
                "end_time": 28.4159091,
                "pitch": 33,
                "velocity": 80,
                "duration": 0.2,
                "tempo": 120.0
            },
            {
                "start_time": 28.4181818,
                "end_time": 28.6159091,
                "pitch": 33,
                "velocity": 80,
                "duration": 0.1977273,
                "tempo": 120.0
            },
            {
                "start_time": 28.8181818,
                "end_time": 28.9159091,
                "pitch": 38,
                "velocity": 80,
                "duration": 0.0977273,
                "tempo": 120.0
            },
            {
                "start_time": 28.9181818,
                "end_time": 29.0181818,
                "pitch": 40,
                "velocity": 80,
                "duration": 0.1,
                "tempo": 120.0
            },
            {
                "start_time": 29.0181818,
                "end_time": 29.2181818,
                "pitch": 33,
                "velocity": 80,
                "duration": 0.2,
                "tempo": 120.0
            },
            {
                "start_time": 29.2204545,
                "end_time": 29.4204545,
                "pitch": 33,
                "velocity": 80,
                "duration": 0.2,
                "tempo": 120.0
            },
            {
                "start_time": 29.8204545,
                "end_time": 30.0227273,
                "pitch": 33,
                "velocity": 80,
                "duration": 0.2022727,
                "tempo": 120.0
            },
            {
                "start_time": 30.0227273,
                "end_time": 30.2227273,
                "pitch": 33,
                "velocity": 80,
                "duration": 0.2,
                "tempo": 120.0
            },
            {
                "start_time": 30.625,
                "end_time": 30.825,
                "pitch": 33,
                "velocity": 80,
                "duration": 0.2,
                "tempo": 120.0
            },
            {
                "start_time": 30.825,
                "end_time": 31.025,
                "pitch": 33,
                "velocity": 80,
                "duration": 0.2,
                "tempo": 120.0
            },
            {
                "start_time": 31.4295455,
                "end_time": 31.5272727,
                "pitch": 33,
                "velocity": 80,
                "duration": 0.0977273,
                "tempo": 120.0
            },
            {
                "start_time": 31.5295455,
                "end_time": 31.6295455,
                "pitch": 45,
                "velocity": 80,
                "duration": 0.1,
                "tempo": 120.0
            },
            {
                "start_time": 31.6295455,
                "end_time": 31.7295455,
                "pitch": 43,
                "velocity": 80,
                "duration": 0.1,
                "tempo": 120.0
            },
            {
                "start_time": 31.7295455,
                "end_time": 31.8295455,
                "pitch": 40,
                "velocity": 80,
                "duration": 0.1,
                "tempo": 120.0
            },
            {
                "start_time": 31.8295455,
                "end_time": 31.9295455,
                "pitch": 38,
                "velocity": 80,
                "duration": 0.1,
                "tempo": 120.0
            },
            {
                "start_time": 31.9295455,
                "end_time": 32.0318182,
                "pitch": 36,
                "velocity": 80,
                "duration": 0.1022727,
                "tempo": 120.0
            },
            {
                "start_time": 32.0318182,
                "end_time": 32.1318182,
                "pitch": 33,
                "velocity": 80,
                "duration": 0.1,
                "tempo": 120.0
            },
            {
                "start_time": 32.1318182,
                "end_time": 32.2318182,
                "pitch": 31,
                "velocity": 80,
                "duration": 0.1,
                "tempo": 120.0
            },
            {
                "start_time": 32.2340909,
                "end_time": 32.4318182,
                "pitch": 29,
                "velocity": 80,
                "duration": 0.1977273,
                "tempo": 120.0
            },
            {
                "start_time": 32.4318182,
                "end_time": 32.6318182,
                "pitch": 29,
                "velocity": 80,
                "duration": 0.2,
                "tempo": 120.0
            },
            {
                "start_time": 33.0340909,
                "end_time": 33.2318182,
                "pitch": 29,
                "velocity": 80,
                "duration": 0.1977273,
                "tempo": 120.0
            },
            {
                "start_time": 33.2340909,
                "end_time": 33.4340909,
                "pitch": 29,
                "velocity": 80,
                "duration": 0.2,
                "tempo": 120.0
            },
            {
                "start_time": 33.8386364,
                "end_time": 34.0431818,
                "pitch": 31,
                "velocity": 80,
                "duration": 0.2045455,
                "tempo": 120.0
            },
            {
                "start_time": 34.0431818,
                "end_time": 34.2477273,
                "pitch": 31,
                "velocity": 80,
                "duration": 0.2045455,
                "tempo": 120.0
            },
            {
                "start_time": 34.65,
                "end_time": 34.8454545,
                "pitch": 31,
                "velocity": 80,
                "duration": 0.1954545,
                "tempo": 120.0
            },
            {
                "start_time": 34.8454545,
                "end_time": 35.0409091,
                "pitch": 31,
                "velocity": 80,
                "duration": 0.1954545,
                "tempo": 120.0
            },
            {
                "start_time": 35.2477273,
                "end_time": 35.35,
                "pitch": 36,
                "velocity": 80,
                "duration": 0.1022727,
                "tempo": 120.0
            },
            {
                "start_time": 35.35,
                "end_time": 35.4545455,
                "pitch": 38,
                "velocity": 80,
                "duration": 0.1045455,
                "tempo": 120.0
            },
            {
                "start_time": 35.4545455,
                "end_time": 35.6522727,
                "pitch": 33,
                "velocity": 80,
                "duration": 0.1977273,
                "tempo": 120.0
            },
            {
                "start_time": 35.6545455,
                "end_time": 35.8522727,
                "pitch": 33,
                "velocity": 80,
                "duration": 0.1977273,
                "tempo": 120.0
            },
            {
                "start_time": 36.2545455,
                "end_time": 36.4545455,
                "pitch": 33,
                "velocity": 80,
                "duration": 0.2,
                "tempo": 120.0
            },
            {
                "start_time": 36.4545455,
                "end_time": 36.6545455,
                "pitch": 33,
                "velocity": 80,
                "duration": 0.2,
                "tempo": 120.0
            },
            {
                "start_time": 37.0568182,
                "end_time": 37.2568182,
                "pitch": 33,
                "velocity": 80,
                "duration": 0.2,
                "tempo": 120.0
            },
            {
                "start_time": 37.2568182,
                "end_time": 37.4568182,
                "pitch": 33,
                "velocity": 80,
                "duration": 0.2,
                "tempo": 120.0
            },
            {
                "start_time": 37.8590909,
                "end_time": 38.0590909,
                "pitch": 33,
                "velocity": 80,
                "duration": 0.2,
                "tempo": 120.0
            },
            {
                "start_time": 38.0590909,
                "end_time": 38.2590909,
                "pitch": 33,
                "velocity": 80,
                "duration": 0.2,
                "tempo": 120.0
            },
            {
                "start_time": 38.2590909,
                "end_time": 38.3590909,
                "pitch": 43,
                "velocity": 80,
                "duration": 0.1,
                "tempo": 120.0
            },
            {
                "start_time": 38.3590909,
                "end_time": 38.4590909,
                "pitch": 45,
                "velocity": 80,
                "duration": 0.1,
                "tempo": 120.0
            },
            {
                "start_time": 38.4590909,
                "end_time": 38.5590909,
                "pitch": 40,
                "velocity": 80,
                "duration": 0.1,
                "tempo": 120.0
            },
            {
                "start_time": 38.5613636,
                "end_time": 38.6613636,
                "pitch": 43,
                "velocity": 80,
                "duration": 0.1,
                "tempo": 120.0
            },
            {
                "start_time": 38.6613636,
                "end_time": 38.8590909,
                "pitch": 29,
                "velocity": 80,
                "duration": 0.1977273,
                "tempo": 120.0
            },
            {
                "start_time": 38.8613636,
                "end_time": 39.0590909,
                "pitch": 29,
                "velocity": 80,
                "duration": 0.1977273,
                "tempo": 120.0
            },
            {
                "start_time": 39.4636364,
                "end_time": 39.6636364,
                "pitch": 29,
                "velocity": 80,
                "duration": 0.2,
                "tempo": 120.0
            },
            {
                "start_time": 39.6636364,
                "end_time": 39.8636364,
                "pitch": 29,
                "velocity": 80,
                "duration": 0.2,
                "tempo": 120.0
            },
            {
                "start_time": 40.2659091,
                "end_time": 40.4636364,
                "pitch": 39,
                "velocity": 80,
                "duration": 0.1977273,
                "tempo": 120.0
            },
            {
                "start_time": 40.4659091,
                "end_time": 40.6659091,
                "pitch": 39,
                "velocity": 80,
                "duration": 0.2,
                "tempo": 120.0
            },
            {
                "start_time": 41.0659091,
                "end_time": 41.2659091,
                "pitch": 39,
                "velocity": 80,
                "duration": 0.2,
                "tempo": 120.0
            },
            {
                "start_time": 41.2681818,
                "end_time": 41.4681818,
                "pitch": 39,
                "velocity": 80,
                "duration": 0.2,
                "tempo": 120.0
            },
            {
                "start_time": 41.8818182,
                "end_time": 42.0795455,
                "pitch": 38,
                "velocity": 80,
                "duration": 0.1977273,
                "tempo": 120.0
            },
            {
                "start_time": 42.0818182,
                "end_time": 42.2795455,
                "pitch": 38,
                "velocity": 80,
                "duration": 0.1977273,
                "tempo": 120.0
            },
            {
                "start_time": 42.6840909,
                "end_time": 42.8840909,
                "pitch": 38,
                "velocity": 80,
                "duration": 0.2,
                "tempo": 120.0
            },
            {
                "start_time": 42.8840909,
                "end_time": 43.0840909,
                "pitch": 38,
                "velocity": 80,
                "duration": 0.2,
                "tempo": 120.0
            },
            {
                "start_time": 43.4863636,
                "end_time": 43.6840909,
                "pitch": 31,
                "velocity": 80,
                "duration": 0.1977273,
                "tempo": 120.0
            },
            {
                "start_time": 43.6863636,
                "end_time": 43.8863636,
                "pitch": 31,
                "velocity": 80,
                "duration": 0.2,
                "tempo": 120.0
            },
            {
                "start_time": 44.2863636,
                "end_time": 44.4886364,
                "pitch": 36,
                "velocity": 80,
                "duration": 0.2022727,
                "tempo": 120.0
            },
            {
                "start_time": 44.4886364,
                "end_time": 44.6886364,
                "pitch": 36,
                "velocity": 80,
                "duration": 0.2,
                "tempo": 120.0
            },
            {
                "start_time": 45.0909091,
                "end_time": 45.2886364,
                "pitch": 31,
                "velocity": 80,
                "duration": 0.1977273,
                "tempo": 120.0
            },
            {
                "start_time": 45.2909091,
                "end_time": 45.4909091,
                "pitch": 31,
                "velocity": 80,
                "duration": 0.2,
                "tempo": 120.0
            },
            {
                "start_time": 45.8909091,
                "end_time": 46.0909091,
                "pitch": 31,
                "velocity": 80,
                "duration": 0.2,
                "tempo": 120.0
            },
            {
                "start_time": 46.0909091,
                "end_time": 46.2909091,
                "pitch": 31,
                "velocity": 80,
                "duration": 0.2,
                "tempo": 120.0
            },
            {
                "start_time": 46.6954545,
                "end_time": 46.8931818,
                "pitch": 36,
                "velocity": 80,
                "duration": 0.1977273,
                "tempo": 120.0
            },
            {
                "start_time": 46.8954545,
                "end_time": 47.0954545,
                "pitch": 36,
                "velocity": 80,
                "duration": 0.2,
                "tempo": 120.0
            },
            {
                "start_time": 47.4954545,
                "end_time": 47.6954545,
                "pitch": 36,
                "velocity": 80,
                "duration": 0.2,
                "tempo": 120.0
            },
            {
                "start_time": 47.6954545,
                "end_time": 47.8954545,
                "pitch": 36,
                "velocity": 80,
                "duration": 0.2,
                "tempo": 120.0
            },
            {
                "start_time": 48.2977273,
                "end_time": 48.4977273,
                "pitch": 28,
                "velocity": 80,
                "duration": 0.2,
                "tempo": 120.0
            },
            {
                "start_time": 48.4977273,
                "end_time": 48.7,
                "pitch": 28,
                "velocity": 80,
                "duration": 0.2022727,
                "tempo": 120.0
            },
            {
                "start_time": 49.1022727,
                "end_time": 49.3,
                "pitch": 28,
                "velocity": 80,
                "duration": 0.1977273,
                "tempo": 120.0
            },
            {
                "start_time": 49.3022727,
                "end_time": 49.5,
                "pitch": 28,
                "velocity": 80,
                "duration": 0.1977273,
                "tempo": 120.0
            },
            {
                "start_time": 49.9022727,
                "end_time": 50.1068182,
                "pitch": 28,
                "velocity": 80,
                "duration": 0.2045455,
                "tempo": 120.0
            },
            {
                "start_time": 50.1068182,
                "end_time": 50.3113636,
                "pitch": 28,
                "velocity": 80,
                "duration": 0.2045455,
                "tempo": 120.0
            },
            {
                "start_time": 50.7136364,
                "end_time": 50.9136364,
                "pitch": 28,
                "velocity": 80,
                "duration": 0.2,
                "tempo": 120.0
            },
            {
                "start_time": 50.9136364,
                "end_time": 51.1136364,
                "pitch": 28,
                "velocity": 80,
                "duration": 0.2,
                "tempo": 120.0
            }
        ],
        "Trumpet": [
            {
                "start_time": 0.0340909,
                "end_time": 0.1318182,
                "pitch": 60,
                "velocity": 80,
                "duration": 0.0977273,
                "tempo": 120.0
            },
            {
                "start_time": 0.1318182,
                "end_time": 0.2318182,
                "pitch": 60,
                "velocity": 80,
                "duration": 0.1,
                "tempo": 120.0
            },
            {
                "start_time": 0.2318182,
                "end_time": 0.3318182,
                "pitch": 60,
                "velocity": 80,
                "duration": 0.1,
                "tempo": 120.0
            },
            {
                "start_time": 0.8454545,
                "end_time": 1.4454545,
                "pitch": 60,
                "velocity": 80,
                "duration": 0.6,
                "tempo": 120.0
            },
            {
                "start_time": 1.4454545,
                "end_time": 3.25,
                "pitch": 59,
                "velocity": 80,
                "duration": 1.8045455,
                "tempo": 120.0
            },
            {
                "start_time": 3.25,
                "end_time": 3.35,
                "pitch": 60,
                "velocity": 80,
                "duration": 0.1,
                "tempo": 120.0
            },
            {
                "start_time": 3.35,
                "end_time": 3.45,
                "pitch": 60,
                "velocity": 80,
                "duration": 0.1,
                "tempo": 120.0
            },
            {
                "start_time": 3.45,
                "end_time": 3.55,
                "pitch": 60,
                "velocity": 80,
                "duration": 0.1,
                "tempo": 120.0
            },
            {
                "start_time": 4.0613636,
                "end_time": 4.6590909,
                "pitch": 60,
                "velocity": 80,
                "duration": 0.5977273,
                "tempo": 120.0
            },
            {
                "start_time": 4.6613636,
                "end_time": 5.4613636,
                "pitch": 62,
                "velocity": 80,
                "duration": 0.8,
                "tempo": 120.0
            },
            {
                "start_time": 5.4636364,
                "end_time": 6.4727273,
                "pitch": 59,
                "velocity": 80,
                "duration": 1.0090909,
                "tempo": 120.0
            },
            {
                "start_time": 6.475,
                "end_time": 6.5727273,
                "pitch": 60,
                "velocity": 80,
                "duration": 0.0977273,
                "tempo": 120.0
            },
            {
                "start_time": 6.575,
                "end_time": 6.675,
                "pitch": 60,
                "velocity": 80,
                "duration": 0.1,
                "tempo": 120.0
            },
            {
                "start_time": 6.675,
                "end_time": 6.775,
                "pitch": 60,
                "velocity": 80,
                "duration": 0.1,
                "tempo": 120.0
            },
            {
                "start_time": 7.2772727,
                "end_time": 7.8795455,
                "pitch": 60,
                "velocity": 80,
                "duration": 0.6022727,
                "tempo": 120.0
            },
            {
                "start_time": 7.8818182,
                "end_time": 9.6909091,
                "pitch": 59,
                "velocity": 80,
                "duration": 1.8090909,
                "tempo": 120.0
            },
            {
                "start_time": 9.6909091,
                "end_time": 9.7909091,
                "pitch": 60,
                "velocity": 80,
                "duration": 0.1,
                "tempo": 120.0
            },
            {
                "start_time": 9.7909091,
                "end_time": 9.8909091,
                "pitch": 60,
                "velocity": 80,
                "duration": 0.1,
                "tempo": 120.0
            },
            {
                "start_time": 9.8931818,
                "end_time": 9.9931818,
                "pitch": 60,
                "velocity": 80,
                "duration": 0.1,
                "tempo": 120.0
            },
            {
                "start_time": 10.4954545,
                "end_time": 11.1022727,
                "pitch": 60,
                "velocity": 80,
                "duration": 0.6068182,
                "tempo": 120.0
            },
            {
                "start_time": 11.1045455,
                "end_time": 11.9136364,
                "pitch": 62,
                "velocity": 80,
                "duration": 0.8090909,
                "tempo": 120.0
            },
            {
                "start_time": 11.9136364,
                "end_time": 12.9181818,
                "pitch": 59,
                "velocity": 80,
                "duration": 1.0045455,
                "tempo": 120.0
            },
            {
                "start_time": 12.9204545,
                "end_time": 13.0204545,
                "pitch": 60,
                "velocity": 101,
                "duration": 0.1,
                "tempo": 120.0
            },
            {
                "start_time": 13.0204545,
                "end_time": 13.1204545,
                "pitch": 52,
                "velocity": 101,
                "duration": 0.1,
                "tempo": 120.0
            },
            {
                "start_time": 13.1204545,
                "end_time": 13.2204545,
                "pitch": 57,
                "velocity": 101,
                "duration": 0.1,
                "tempo": 120.0
            },
            {
                "start_time": 13.2227273,
                "end_time": 13.3227273,
                "pitch": 59,
                "velocity": 101,
                "duration": 0.1,
                "tempo": 120.0
            },
            {
                "start_time": 13.3227273,
                "end_time": 13.5227273,
                "pitch": 60,
                "velocity": 101,
                "duration": 0.2,
                "tempo": 120.0
            },
            {
                "start_time": 13.525,
                "end_time": 13.9272727,
                "pitch": 62,
                "velocity": 101,
                "duration": 0.4022727,
                "tempo": 120.0
            },
            {
                "start_time": 13.9272727,
                "end_time": 14.3295455,
                "pitch": 60,
                "velocity": 101,
                "duration": 0.4022727,
                "tempo": 120.0
            },
            {
                "start_time": 14.3318182,
                "end_time": 14.6318182,
                "pitch": 59,
                "velocity": 101,
                "duration": 0.3,
                "tempo": 120.0
            },
            {
                "start_time": 14.6318182,
                "end_time": 14.7318182,
                "pitch": 50,
                "velocity": 101,
                "duration": 0.1,
                "tempo": 120.0
            },
            {
                "start_time": 14.7318182,
                "end_time": 14.8318182,
                "pitch": 55,
                "velocity": 101,
                "duration": 0.1,
                "tempo": 120.0
            },
            {
                "start_time": 14.8318182,
                "end_time": 14.9318182,
                "pitch": 57,
                "velocity": 101,
                "duration": 0.1,
                "tempo": 120.0
            },
            {
                "start_time": 14.9318182,
                "end_time": 15.1340909,
                "pitch": 59,
                "velocity": 101,
                "duration": 0.2022727,
                "tempo": 120.0
            },
            {
                "start_time": 15.1340909,
                "end_time": 15.5363636,
                "pitch": 60,
                "velocity": 101,
                "duration": 0.4022727,
                "tempo": 120.0
            },
            {
                "start_time": 15.5386364,
                "end_time": 15.9409091,
                "pitch": 59,
                "velocity": 101,
                "duration": 0.4022727,
                "tempo": 120.0
            },
            {
                "start_time": 15.9409091,
                "end_time": 16.1409091,
                "pitch": 55,
                "velocity": 101,
                "duration": 0.2,
                "tempo": 120.0
            },
            {
                "start_time": 16.1431818,
                "end_time": 16.2431818,
                "pitch": 60,
                "velocity": 101,
                "duration": 0.1,
                "tempo": 120.0
            },
            {
                "start_time": 16.2431818,
                "end_time": 16.3431818,
                "pitch": 52,
                "velocity": 101,
                "duration": 0.1,
                "tempo": 120.0
            },
            {
                "start_time": 16.3431818,
                "end_time": 16.4431818,
                "pitch": 57,
                "velocity": 101,
                "duration": 0.1,
                "tempo": 120.0
            },
            {
                "start_time": 16.4454545,
                "end_time": 16.5454545,
                "pitch": 59,
                "velocity": 101,
                "duration": 0.1,
                "tempo": 120.0
            },
            {
                "start_time": 16.5454545,
                "end_time": 16.7454545,
                "pitch": 60,
                "velocity": 101,
                "duration": 0.2,
                "tempo": 120.0
            },
            {
                "start_time": 16.7454545,
                "end_time": 17.1477273,
                "pitch": 62,
                "velocity": 101,
                "duration": 0.4022727,
                "tempo": 120.0
            },
            {
                "start_time": 17.1477273,
                "end_time": 17.55,
                "pitch": 60,
                "velocity": 101,
                "duration": 0.4022727,
                "tempo": 120.0
            },
            {
                "start_time": 17.55,
                "end_time": 17.85,
                "pitch": 59,
                "velocity": 101,
                "duration": 0.3,
                "tempo": 120.0
            },
            {
                "start_time": 17.85,
                "end_time": 17.95,
                "pitch": 50,
                "velocity": 101,
                "duration": 0.1,
                "tempo": 120.0
            },
            {
                "start_time": 17.95,
                "end_time": 18.05,
                "pitch": 55,
                "velocity": 101,
                "duration": 0.1,
                "tempo": 120.0
            },
            {
                "start_time": 18.05,
                "end_time": 18.15,
                "pitch": 57,
                "velocity": 101,
                "duration": 0.1,
                "tempo": 120.0
            },
            {
                "start_time": 18.15,
                "end_time": 18.3545455,
                "pitch": 59,
                "velocity": 101,
                "duration": 0.2045455,
                "tempo": 120.0
            },
            {
                "start_time": 18.3568182,
                "end_time": 18.7568182,
                "pitch": 60,
                "velocity": 101,
                "duration": 0.4,
                "tempo": 120.0
            },
            {
                "start_time": 18.7590909,
                "end_time": 19.1590909,
                "pitch": 62,
                "velocity": 101,
                "duration": 0.4,
                "tempo": 120.0
            },
            {
                "start_time": 19.1590909,
                "end_time": 19.3659091,
                "pitch": 64,
                "velocity": 101,
                "duration": 0.2068182,
                "tempo": 120.0
            },
            {
                "start_time": 19.3659091,
                "end_time": 19.9681818,
                "pitch": 60,
                "velocity": 101,
                "duration": 0.6022727,
                "tempo": 120.0
            },
            {
                "start_time": 19.9681818,
                "end_time": 20.5681818,
                "pitch": 60,
                "velocity": 101,
                "duration": 0.6,
                "tempo": 120.0
            },
            {
                "start_time": 20.5704545,
                "end_time": 20.6704545,
                "pitch": 57,
                "velocity": 101,
                "duration": 0.1,
                "tempo": 120.0
            },
            {
                "start_time": 20.6704545,
                "end_time": 20.7704545,
                "pitch": 59,
                "velocity": 101,
                "duration": 0.1,
                "tempo": 120.0
            },
            {
                "start_time": 20.7727273,
                "end_time": 20.9727273,
                "pitch": 60,
                "velocity": 101,
                "duration": 0.2,
                "tempo": 120.0
            },
            {
                "start_time": 20.9727273,
                "end_time": 21.575,
                "pitch": 62,
                "velocity": 101,
                "duration": 0.6022727,
                "tempo": 120.0
            },
            {
                "start_time": 21.575,
                "end_time": 22.1772727,
                "pitch": 62,
                "velocity": 101,
                "duration": 0.6022727,
                "tempo": 120.0
            },
            {
                "start_time": 22.1772727,
                "end_time": 22.2772727,
                "pitch": 65,
                "velocity": 101,
                "duration": 0.1,
                "tempo": 120.0
            },
            {
                "start_time": 22.2772727,
                "end_time": 22.3772727,
                "pitch": 64,
                "velocity": 101,
                "duration": 0.1,
                "tempo": 120.0
            },
            {
                "start_time": 22.3772727,
                "end_time": 22.5772727,
                "pitch": 62,
                "velocity": 101,
                "duration": 0.2,
                "tempo": 120.0
            },
            {
                "start_time": 22.5772727,
                "end_time": 22.9795455,
                "pitch": 60,
                "velocity": 101,
                "duration": 0.4022727,
                "tempo": 120.0
            },
            {
                "start_time": 22.9818182,
                "end_time": 23.0795455,
                "pitch": 59,
                "velocity": 101,
                "duration": 0.0977273,
                "tempo": 120.0
            },
            {
                "start_time": 23.0818182,
                "end_time": 23.1795455,
                "pitch": 60,
                "velocity": 101,
                "duration": 0.0977273,
                "tempo": 120.0
            },
            {
                "start_time": 23.1818182,
                "end_time": 23.5818182,
                "pitch": 62,
                "velocity": 101,
                "duration": 0.4,
                "tempo": 120.0
            },
            {
                "start_time": 23.5840909,
                "end_time": 23.9840909,
                "pitch": 59,
                "velocity": 101,
                "duration": 0.4,
                "tempo": 120.0
            },
            {
                "start_time": 23.9863636,
                "end_time": 24.2840909,
                "pitch": 64,
                "velocity": 101,
                "duration": 0.2977273,
                "tempo": 120.0
            },
            {
                "start_time": 24.2863636,
                "end_time": 24.3840909,
                "pitch": 65,
                "velocity": 101,
                "duration": 0.0977273,
                "tempo": 120.0
            },
            {
                "start_time": 24.3863636,
                "end_time": 24.4840909,
                "pitch": 64,
                "velocity": 101,
                "duration": 0.0977273,
                "tempo": 120.0
            },
            {
                "start_time": 24.4863636,
                "end_time": 24.5840909,
                "pitch": 62,
                "velocity": 101,
                "duration": 0.0977273,
                "tempo": 120.0
            },
            {
                "start_time": 24.5863636,
                "end_time": 24.7863636,
                "pitch": 59,
                "velocity": 101,
                "duration": 0.2,
                "tempo": 120.0
            },
            {
                "start_time": 24.7863636,
                "end_time": 25.1886364,
                "pitch": 60,
                "velocity": 101,
                "duration": 0.4022727,
                "tempo": 120.0
            },
            {
                "start_time": 25.1886364,
                "end_time": 25.5954545,
                "pitch": 62,
                "velocity": 101,
                "duration": 0.4068182,
                "tempo": 120.0
            },
            {
                "start_time": 25.5954545,
                "end_time": 25.8,
                "pitch": 64,
                "velocity": 101,
                "duration": 0.2045455,
                "tempo": 120.0
            },
            {
                "start_time": 25.8022727,
                "end_time": 25.9,
                "pitch": 60,
                "velocity": 101,
                "duration": 0.0977273,
                "tempo": 120.0
            },
            {
                "start_time": 25.9022727,
                "end_time": 26.0022727,
                "pitch": 52,
                "velocity": 101,
                "duration": 0.1,
                "tempo": 120.0
            },
            {
                "start_time": 26.0022727,
                "end_time": 26.1022727,
                "pitch": 57,
                "velocity": 101,
                "duration": 0.1,
                "tempo": 120.0
            },
            {
                "start_time": 26.1022727,
                "end_time": 26.2022727,
                "pitch": 59,
                "velocity": 101,
                "duration": 0.1,
                "tempo": 120.0
            },
            {
                "start_time": 26.2045455,
                "end_time": 26.4,
                "pitch": 60,
                "velocity": 101,
                "duration": 0.1954545,
                "tempo": 120.0
            },
            {
                "start_time": 26.4,
                "end_time": 26.7977273,
                "pitch": 62,
                "velocity": 101,
                "duration": 0.3977273,
                "tempo": 120.0
            },
            {
                "start_time": 26.7977273,
                "end_time": 27.2045455,
                "pitch": 60,
                "velocity": 101,
                "duration": 0.4068182,
                "tempo": 120.0
            },
            {
                "start_time": 27.2068182,
                "end_time": 27.5113636,
                "pitch": 59,
                "velocity": 101,
                "duration": 0.3045455,
                "tempo": 120.0
            },
            {
                "start_time": 27.5113636,
                "end_time": 27.6113636,
                "pitch": 50,
                "velocity": 101,
                "duration": 0.1,
                "tempo": 120.0
            },
            {
                "start_time": 27.6113636,
                "end_time": 27.7113636,
                "pitch": 55,
                "velocity": 101,
                "duration": 0.1,
                "tempo": 120.0
            },
            {
                "start_time": 27.7113636,
                "end_time": 27.8113636,
                "pitch": 57,
                "velocity": 101,
                "duration": 0.1,
                "tempo": 120.0
            },
            {
                "start_time": 27.8113636,
                "end_time": 28.0136364,
                "pitch": 59,
                "velocity": 101,
                "duration": 0.2022727,
                "tempo": 120.0
            },
            {
                "start_time": 28.0136364,
                "end_time": 28.4159091,
                "pitch": 60,
                "velocity": 101,
                "duration": 0.4022727,
                "tempo": 120.0
            },
            {
                "start_time": 28.4159091,
                "end_time": 28.8159091,
                "pitch": 59,
                "velocity": 101,
                "duration": 0.4,
                "tempo": 120.0
            },
            {
                "start_time": 28.8159091,
                "end_time": 29.0159091,
                "pitch": 55,
                "velocity": 101,
                "duration": 0.2,
                "tempo": 120.0
            },
            {
                "start_time": 29.0159091,
                "end_time": 29.1159091,
                "pitch": 60,
                "velocity": 101,
                "duration": 0.1,
                "tempo": 120.0
            },
            {
                "start_time": 29.1181818,
                "end_time": 29.2159091,
                "pitch": 52,
                "velocity": 101,
                "duration": 0.0977273,
                "tempo": 120.0
            },
            {
                "start_time": 29.2181818,
                "end_time": 29.3181818,
                "pitch": 57,
                "velocity": 101,
                "duration": 0.1,
                "tempo": 120.0
            },
            {
                "start_time": 29.3181818,
                "end_time": 29.4181818,
                "pitch": 59,
                "velocity": 101,
                "duration": 0.1,
                "tempo": 120.0
            },
            {
                "start_time": 29.4204545,
                "end_time": 29.6181818,
                "pitch": 60,
                "velocity": 101,
                "duration": 0.1977273,
                "tempo": 120.0
            },
            {
                "start_time": 29.6204545,
                "end_time": 30.0204545,
                "pitch": 62,
                "velocity": 101,
                "duration": 0.4,
                "tempo": 120.0
            },
            {
                "start_time": 30.0204545,
                "end_time": 30.4227273,
                "pitch": 60,
                "velocity": 101,
                "duration": 0.4022727,
                "tempo": 120.0
            },
            {
                "start_time": 30.4227273,
                "end_time": 30.7227273,
                "pitch": 59,
                "velocity": 101,
                "duration": 0.3,
                "tempo": 120.0
            },
            {
                "start_time": 30.7227273,
                "end_time": 30.8227273,
                "pitch": 50,
                "velocity": 101,
                "duration": 0.1,
                "tempo": 120.0
            },
            {
                "start_time": 30.825,
                "end_time": 30.9227273,
                "pitch": 55,
                "velocity": 101,
                "duration": 0.0977273,
                "tempo": 120.0
            },
            {
                "start_time": 30.925,
                "end_time": 31.0227273,
                "pitch": 57,
                "velocity": 101,
                "duration": 0.0977273,
                "tempo": 120.0
            },
            {
                "start_time": 31.025,
                "end_time": 31.225,
                "pitch": 59,
                "velocity": 101,
                "duration": 0.2,
                "tempo": 120.0
            },
            {
                "start_time": 31.225,
                "end_time": 31.6272727,
                "pitch": 60,
                "velocity": 101,
                "duration": 0.4022727,
                "tempo": 120.0
            },
            {
                "start_time": 31.6272727,
                "end_time": 32.0295455,
                "pitch": 62,
                "velocity": 101,
                "duration": 0.4022727,
                "tempo": 120.0
            },
            {
                "start_time": 32.0295455,
                "end_time": 32.2295455,
                "pitch": 64,
                "velocity": 101,
                "duration": 0.2,
                "tempo": 120.0
            },
            {
                "start_time": 32.2318182,
                "end_time": 32.8318182,
                "pitch": 60,
                "velocity": 101,
                "duration": 0.6,
                "tempo": 120.0
            },
            {
                "start_time": 32.8318182,
                "end_time": 33.4318182,
                "pitch": 60,
                "velocity": 101,
                "duration": 0.6,
                "tempo": 120.0
            },
            {
                "start_time": 33.4318182,
                "end_time": 33.5318182,
                "pitch": 57,
                "velocity": 101,
                "duration": 0.1,
                "tempo": 120.0
            },
            {
                "start_time": 33.5340909,
                "end_time": 33.6340909,
                "pitch": 59,
                "velocity": 101,
                "duration": 0.1,
                "tempo": 120.0
            },
            {
                "start_time": 33.6340909,
                "end_time": 33.8363636,
                "pitch": 60,
                "velocity": 101,
                "duration": 0.2022727,
                "tempo": 120.0
            },
            {
                "start_time": 33.8363636,
                "end_time": 34.4477273,
                "pitch": 62,
                "velocity": 101,
                "duration": 0.6113636,
                "tempo": 120.0
            },
            {
                "start_time": 34.4477273,
                "end_time": 35.0409091,
                "pitch": 62,
                "velocity": 101,
                "duration": 0.5931818,
                "tempo": 120.0
            },
            {
                "start_time": 35.0409091,
                "end_time": 35.1431818,
                "pitch": 65,
                "velocity": 101,
                "duration": 0.1022727,
                "tempo": 120.0
            },
            {
                "start_time": 35.1431818,
                "end_time": 35.2454545,
                "pitch": 64,
                "velocity": 101,
                "duration": 0.1022727,
                "tempo": 120.0
            },
            {
                "start_time": 35.2454545,
                "end_time": 35.4522727,
                "pitch": 62,
                "velocity": 101,
                "duration": 0.2068182,
                "tempo": 120.0
            },
            {
                "start_time": 35.4522727,
                "end_time": 35.5522727,
                "pitch": 60,
                "velocity": 101,
                "duration": 0.1,
                "tempo": 120.0
            },
            {
                "start_time": 35.5522727,
                "end_time": 35.6522727,
                "pitch": 59,
                "velocity": 101,
                "duration": 0.1,
                "tempo": 120.0
            },
            {
                "start_time": 35.6522727,
                "end_time": 38.6590909,
                "pitch": 57,
                "velocity": 101,
                "duration": 3.0068182,
                "tempo": 120.0
            },
            {
                "start_time": 38.6590909,
                "end_time": 39.8613636,
                "pitch": 60,
                "velocity": 101,
                "duration": 1.2022727,
                "tempo": 120.0
            },
            {
                "start_time": 40.0636364,
                "end_time": 40.1636364,
                "pitch": 65,
                "velocity": 101,
                "duration": 0.1,
                "tempo": 120.0
            },
            {
                "start_time": 40.1636364,
                "end_time": 40.2636364,
                "pitch": 67,
                "velocity": 101,
                "duration": 0.1,
                "tempo": 120.0
            },
            {
                "start_time": 40.2636364,
                "end_time": 40.6636364,
                "pitch": 70,
                "velocity": 101,
                "duration": 0.4,
                "tempo": 120.0
            },
            {
                "start_time": 40.6636364,
                "end_time": 41.0636364,
                "pitch": 69,
                "velocity": 101,
                "duration": 0.4,
                "tempo": 120.0
            },
            {
                "start_time": 41.0636364,
                "end_time": 41.4681818,
                "pitch": 67,
                "velocity": 101,
                "duration": 0.4045455,
                "tempo": 120.0
            },
            {
                "start_time": 41.4681818,
                "end_time": 41.8795455,
                "pitch": 69,
                "velocity": 101,
                "duration": 0.4113636,
                "tempo": 120.0
            },
            {
                "start_time": 41.8795455,
                "end_time": 43.4840909,
                "pitch": 65,
                "velocity": 101,
                "duration": 1.6045455,
                "tempo": 120.0
            },
            {
                "start_time": 43.4840909,
                "end_time": 43.8840909,
                "pitch": 67,
                "velocity": 101,
                "duration": 0.4,
                "tempo": 120.0
            },
            {
                "start_time": 43.8840909,
                "end_time": 44.2840909,
                "pitch": 69,
                "velocity": 101,
                "duration": 0.4,
                "tempo": 120.0
            },
            {
                "start_time": 44.2840909,
                "end_time": 44.6886364,
                "pitch": 67,
                "velocity": 101,
                "duration": 0.4045455,
                "tempo": 120.0
            },
            {
                "start_time": 44.6886364,
                "end_time": 45.0886364,
                "pitch": 64,
                "velocity": 101,
                "duration": 0.4,
                "tempo": 120.0
            },
            {
                "start_time": 45.0886364,
                "end_time": 46.2886364,
                "pitch": 65,
                "velocity": 101,
                "duration": 1.2,
                "tempo": 120.0
            },
            {
                "start_time": 46.4931818,
                "end_time": 46.5931818,
                "pitch": 67,
                "velocity": 101,
                "duration": 0.1,
                "tempo": 120.0
            },
            {
                "start_time": 46.5931818,
                "end_time": 46.6931818,
                "pitch": 69,
                "velocity": 101,
                "duration": 0.1,
                "tempo": 120.0
            },
            {
                "start_time": 46.6931818,
                "end_time": 47.0931818,
                "pitch": 67,
                "velocity": 101,
                "duration": 0.4,
                "tempo": 120.0
            },
            {
                "start_time": 47.0931818,
                "end_time": 47.4931818,
                "pitch": 65,
                "velocity": 101,
                "duration": 0.4,
                "tempo": 120.0
            },
            {
                "start_time": 47.4954545,
                "end_time": 47.8954545,
                "pitch": 64,
                "velocity": 101,
                "duration": 0.4,
                "tempo": 120.0
            },
            {
                "start_time": 47.8954545,
                "end_time": 48.2954545,
                "pitch": 67,
                "velocity": 101,
                "duration": 0.4,
                "tempo": 120.0
            },
            {
                "start_time": 48.2954545,
                "end_time": 49.0977273,
                "pitch": 64,
                "velocity": 101,
                "duration": 0.8022727,
                "tempo": 120.0
            },
            {
                "start_time": 49.1,
                "end_time": 49.4,
                "pitch": 68,
                "velocity": 101,
                "duration": 0.3,
                "tempo": 120.0
            },
            {
                "start_time": 49.4,
                "end_time": 49.6,
                "pitch": 71,
                "velocity": 101,
                "duration": 0.2,
                "tempo": 120.0
            },
            {
                "start_time": 49.6,
                "end_time": 49.9,
                "pitch": 73,
                "velocity": 101,
                "duration": 0.3,
                "tempo": 120.0
            },
            {
                "start_time": 49.9,
                "end_time": 51.5113636,
                "pitch": 76,
                "velocity": 101,
                "duration": 1.6113636,
                "tempo": 120.0
            },
            {
                "start_time": 51.5181818,
                "end_time": 51.5204545,
                "pitch": 60,
                "velocity": 80,
                "duration": 0.0022727,
                "tempo": 120.0
            }
        ],
        "Harpsichord": [
            {
                "start_time": 12.9227273,
                "end_time": 13.1204545,
                "pitch": 48,
                "velocity": 51,
                "duration": 0.1977273,
                "tempo": 120.0
            },
            {
                "start_time": 13.1227273,
                "end_time": 13.2227273,
                "pitch": 48,
                "velocity": 51,
                "duration": 0.1,
                "tempo": 120.0
            },
            {
                "start_time": 13.2227273,
                "end_time": 13.3227273,
                "pitch": 48,
                "velocity": 51,
                "duration": 0.1,
                "tempo": 120.0
            },
            {
                "start_time": 13.3227273,
                "end_time": 13.525,
                "pitch": 48,
                "velocity": 51,
                "duration": 0.2022727,
                "tempo": 120.0
            },
            {
                "start_time": 13.525,
                "end_time": 13.625,
                "pitch": 48,
                "velocity": 51,
                "duration": 0.1,
                "tempo": 120.0
            },
            {
                "start_time": 13.625,
                "end_time": 13.725,
                "pitch": 48,
                "velocity": 51,
                "duration": 0.1,
                "tempo": 120.0
            },
            {
                "start_time": 13.7272727,
                "end_time": 13.9272727,
                "pitch": 48,
                "velocity": 51,
                "duration": 0.2,
                "tempo": 120.0
            },
            {
                "start_time": 13.9295455,
                "end_time": 14.0272727,
                "pitch": 48,
                "velocity": 51,
                "duration": 0.0977273,
                "tempo": 120.0
            },
            {
                "start_time": 14.0295455,
                "end_time": 14.1295455,
                "pitch": 48,
                "velocity": 51,
                "duration": 0.1,
                "tempo": 120.0
            },
            {
                "start_time": 14.1295455,
                "end_time": 14.3318182,
                "pitch": 48,
                "velocity": 51,
                "duration": 0.2022727,
                "tempo": 120.0
            },
            {
                "start_time": 14.3318182,
                "end_time": 14.4318182,
                "pitch": 47,
                "velocity": 51,
                "duration": 0.1,
                "tempo": 120.0
            },
            {
                "start_time": 14.4318182,
                "end_time": 14.5318182,
                "pitch": 47,
                "velocity": 51,
                "duration": 0.1,
                "tempo": 120.0
            },
            {
                "start_time": 14.5340909,
                "end_time": 14.7318182,
                "pitch": 47,
                "velocity": 51,
                "duration": 0.1977273,
                "tempo": 120.0
            },
            {
                "start_time": 14.7340909,
                "end_time": 14.8318182,
                "pitch": 47,
                "velocity": 51,
                "duration": 0.0977273,
                "tempo": 120.0
            },
            {
                "start_time": 14.8340909,
                "end_time": 14.9340909,
                "pitch": 47,
                "velocity": 51,
                "duration": 0.1,
                "tempo": 120.0
            },
            {
                "start_time": 14.9340909,
                "end_time": 15.1340909,
                "pitch": 47,
                "velocity": 51,
                "duration": 0.2,
                "tempo": 120.0
            },
            {
                "start_time": 15.1363636,
                "end_time": 15.2340909,
                "pitch": 47,
                "velocity": 51,
                "duration": 0.0977273,
                "tempo": 120.0
            },
            {
                "start_time": 15.2363636,
                "end_time": 15.3363636,
                "pitch": 47,
                "velocity": 51,
                "duration": 0.1,
                "tempo": 120.0
            },
            {
                "start_time": 15.3363636,
                "end_time": 15.5386364,
                "pitch": 47,
                "velocity": 51,
                "duration": 0.2022727,
                "tempo": 120.0
            },
            {
                "start_time": 15.5386364,
                "end_time": 15.6386364,
                "pitch": 47,
                "velocity": 51,
                "duration": 0.1,
                "tempo": 120.0
            },
            {
                "start_time": 15.6386364,
                "end_time": 15.7386364,
                "pitch": 47,
                "velocity": 51,
                "duration": 0.1,
                "tempo": 120.0
            },
            {
                "start_time": 15.7409091,
                "end_time": 15.9409091,
                "pitch": 47,
                "velocity": 51,
                "duration": 0.2,
                "tempo": 120.0
            },
            {
                "start_time": 15.9431818,
                "end_time": 16.0409091,
                "pitch": 47,
                "velocity": 51,
                "duration": 0.0977273,
                "tempo": 120.0
            },
            {
                "start_time": 16.0431818,
                "end_time": 16.1431818,
                "pitch": 47,
                "velocity": 51,
                "duration": 0.1,
                "tempo": 120.0
            },
            {
                "start_time": 16.1431818,
                "end_time": 16.3431818,
                "pitch": 48,
                "velocity": 51,
                "duration": 0.2,
                "tempo": 120.0
            },
            {
                "start_time": 16.3454545,
                "end_time": 16.4454545,
                "pitch": 48,
                "velocity": 51,
                "duration": 0.1,
                "tempo": 120.0
            },
            {
                "start_time": 16.4454545,
                "end_time": 16.5454545,
                "pitch": 48,
                "velocity": 51,
                "duration": 0.1,
                "tempo": 120.0
            },
            {
                "start_time": 16.5477273,
                "end_time": 16.7454545,
                "pitch": 48,
                "velocity": 51,
                "duration": 0.1977273,
                "tempo": 120.0
            },
            {
                "start_time": 16.7477273,
                "end_time": 16.8454545,
                "pitch": 48,
                "velocity": 51,
                "duration": 0.0977273,
                "tempo": 120.0
            },
            {
                "start_time": 16.8454545,
                "end_time": 16.9454545,
                "pitch": 48,
                "velocity": 51,
                "duration": 0.1,
                "tempo": 120.0
            },
            {
                "start_time": 16.9477273,
                "end_time": 17.1477273,
                "pitch": 48,
                "velocity": 51,
                "duration": 0.2,
                "tempo": 120.0
            },
            {
                "start_time": 17.1477273,
                "end_time": 17.2477273,
                "pitch": 48,
                "velocity": 51,
                "duration": 0.1,
                "tempo": 120.0
            },
            {
                "start_time": 17.25,
                "end_time": 17.35,
                "pitch": 48,
                "velocity": 51,
                "duration": 0.1,
                "tempo": 120.0
            },
            {
                "start_time": 17.35,
                "end_time": 17.55,
                "pitch": 48,
                "velocity": 51,
                "duration": 0.2,
                "tempo": 120.0
            },
            {
                "start_time": 17.55,
                "end_time": 17.65,
                "pitch": 50,
                "velocity": 51,
                "duration": 0.1,
                "tempo": 120.0
            },
            {
                "start_time": 17.65,
                "end_time": 17.75,
                "pitch": 50,
                "velocity": 51,
                "duration": 0.1,
                "tempo": 120.0
            },
            {
                "start_time": 17.75,
                "end_time": 17.95,
                "pitch": 50,
                "velocity": 51,
                "duration": 0.2,
                "tempo": 120.0
            },
            {
                "start_time": 17.95,
                "end_time": 18.05,
                "pitch": 50,
                "velocity": 51,
                "duration": 0.1,
                "tempo": 120.0
            },
            {
                "start_time": 18.0522727,
                "end_time": 18.15,
                "pitch": 50,
                "velocity": 51,
                "duration": 0.0977273,
                "tempo": 120.0
            },
            {
                "start_time": 18.1522727,
                "end_time": 18.3568182,
                "pitch": 50,
                "velocity": 51,
                "duration": 0.2045455,
                "tempo": 120.0
            },
            {
                "start_time": 18.3568182,
                "end_time": 18.4590909,
                "pitch": 47,
                "velocity": 51,
                "duration": 0.1022727,
                "tempo": 120.0
            },
            {
                "start_time": 18.4590909,
                "end_time": 18.5613636,
                "pitch": 47,
                "velocity": 51,
                "duration": 0.1022727,
                "tempo": 120.0
            },
            {
                "start_time": 18.5613636,
                "end_time": 18.7590909,
                "pitch": 47,
                "velocity": 51,
                "duration": 0.1977273,
                "tempo": 120.0
            },
            {
                "start_time": 18.7590909,
                "end_time": 18.8568182,
                "pitch": 47,
                "velocity": 51,
                "duration": 0.0977273,
                "tempo": 120.0
            },
            {
                "start_time": 18.8568182,
                "end_time": 18.9545455,
                "pitch": 47,
                "velocity": 51,
                "duration": 0.0977273,
                "tempo": 120.0
            },
            {
                "start_time": 18.9545455,
                "end_time": 19.1590909,
                "pitch": 47,
                "velocity": 51,
                "duration": 0.2045455,
                "tempo": 120.0
            },
            {
                "start_time": 19.1613636,
                "end_time": 19.2636364,
                "pitch": 47,
                "velocity": 51,
                "duration": 0.1022727,
                "tempo": 120.0
            },
            {
                "start_time": 19.2636364,
                "end_time": 19.3659091,
                "pitch": 47,
                "velocity": 51,
                "duration": 0.1022727,
                "tempo": 120.0
            },
            {
                "start_time": 19.3659091,
                "end_time": 19.5659091,
                "pitch": 45,
                "velocity": 51,
                "duration": 0.2,
                "tempo": 120.0
            },
            {
                "start_time": 19.5681818,
                "end_time": 19.6681818,
                "pitch": 45,
                "velocity": 51,
                "duration": 0.1,
                "tempo": 120.0
            },
            {
                "start_time": 19.6681818,
                "end_time": 19.7681818,
                "pitch": 45,
                "velocity": 51,
                "duration": 0.1,
                "tempo": 120.0
            },
            {
                "start_time": 19.7681818,
                "end_time": 19.9681818,
                "pitch": 45,
                "velocity": 51,
                "duration": 0.2,
                "tempo": 120.0
            },
            {
                "start_time": 19.9704545,
                "end_time": 20.0681818,
                "pitch": 45,
                "velocity": 51,
                "duration": 0.0977273,
                "tempo": 120.0
            },
            {
                "start_time": 20.0704545,
                "end_time": 20.1681818,
                "pitch": 45,
                "velocity": 51,
                "duration": 0.0977273,
                "tempo": 120.0
            },
            {
                "start_time": 20.1704545,
                "end_time": 20.3681818,
                "pitch": 45,
                "velocity": 51,
                "duration": 0.1977273,
                "tempo": 120.0
            },
            {
                "start_time": 20.3704545,
                "end_time": 20.4704545,
                "pitch": 45,
                "velocity": 51,
                "duration": 0.1,
                "tempo": 120.0
            },
            {
                "start_time": 20.4704545,
                "end_time": 20.5704545,
                "pitch": 45,
                "velocity": 51,
                "duration": 0.1,
                "tempo": 120.0
            },
            {
                "start_time": 20.5704545,
                "end_time": 20.7727273,
                "pitch": 45,
                "velocity": 51,
                "duration": 0.2022727,
                "tempo": 120.0
            },
            {
                "start_time": 20.7727273,
                "end_time": 20.8727273,
                "pitch": 45,
                "velocity": 51,
                "duration": 0.1,
                "tempo": 120.0
            },
            {
                "start_time": 20.8727273,
                "end_time": 20.9727273,
                "pitch": 45,
                "velocity": 51,
                "duration": 0.1,
                "tempo": 120.0
            },
            {
                "start_time": 20.975,
                "end_time": 21.1727273,
                "pitch": 47,
                "velocity": 51,
                "duration": 0.1977273,
                "tempo": 120.0
            },
            {
                "start_time": 21.1727273,
                "end_time": 21.2727273,
                "pitch": 47,
                "velocity": 51,
                "duration": 0.1,
                "tempo": 120.0
            },
            {
                "start_time": 21.2727273,
                "end_time": 21.3727273,
                "pitch": 47,
                "velocity": 51,
                "duration": 0.1,
                "tempo": 120.0
            },
            {
                "start_time": 21.375,
                "end_time": 21.575,
                "pitch": 47,
                "velocity": 51,
                "duration": 0.2,
                "tempo": 120.0
            },
            {
                "start_time": 21.575,
                "end_time": 21.675,
                "pitch": 47,
                "velocity": 51,
                "duration": 0.1,
                "tempo": 120.0
            },
            {
                "start_time": 21.6772727,
                "end_time": 21.7772727,
                "pitch": 47,
                "velocity": 51,
                "duration": 0.1,
                "tempo": 120.0
            },
            {
                "start_time": 21.7772727,
                "end_time": 21.9772727,
                "pitch": 47,
                "velocity": 51,
                "duration": 0.2,
                "tempo": 120.0
            },
            {
                "start_time": 21.9772727,
                "end_time": 22.0772727,
                "pitch": 47,
                "velocity": 51,
                "duration": 0.1,
                "tempo": 120.0
            },
            {
                "start_time": 22.0772727,
                "end_time": 22.1772727,
                "pitch": 47,
                "velocity": 51,
                "duration": 0.1,
                "tempo": 120.0
            },
            {
                "start_time": 22.1795455,
                "end_time": 22.3772727,
                "pitch": 47,
                "velocity": 51,
                "duration": 0.1977273,
                "tempo": 120.0
            },
            {
                "start_time": 22.3795455,
                "end_time": 22.4772727,
                "pitch": 47,
                "velocity": 51,
                "duration": 0.0977273,
                "tempo": 120.0
            },
            {
                "start_time": 22.4795455,
                "end_time": 22.5772727,
                "pitch": 47,
                "velocity": 51,
                "duration": 0.0977273,
                "tempo": 120.0
            },
            {
                "start_time": 22.5795455,
                "end_time": 22.7795455,
                "pitch": 48,
                "velocity": 51,
                "duration": 0.2,
                "tempo": 120.0
            },
            {
                "start_time": 22.7795455,
                "end_time": 22.8795455,
                "pitch": 48,
                "velocity": 51,
                "duration": 0.1,
                "tempo": 120.0
            },
            {
                "start_time": 22.8795455,
                "end_time": 22.9818182,
                "pitch": 48,
                "velocity": 51,
                "duration": 0.1022727,
                "tempo": 120.0
            },
            {
                "start_time": 22.9818182,
                "end_time": 23.1818182,
                "pitch": 48,
                "velocity": 51,
                "duration": 0.2,
                "tempo": 120.0
            },
            {
                "start_time": 23.1818182,
                "end_time": 23.2818182,
                "pitch": 48,
                "velocity": 51,
                "duration": 0.1,
                "tempo": 120.0
            },
            {
                "start_time": 23.2818182,
                "end_time": 23.3818182,
                "pitch": 48,
                "velocity": 51,
                "duration": 0.1,
                "tempo": 120.0
            },
            {
                "start_time": 23.3818182,
                "end_time": 23.5840909,
                "pitch": 48,
                "velocity": 51,
                "duration": 0.2022727,
                "tempo": 120.0
            },
            {
                "start_time": 23.5840909,
                "end_time": 23.6840909,
                "pitch": 48,
                "velocity": 51,
                "duration": 0.1,
                "tempo": 120.0
            },
            {
                "start_time": 23.6840909,
                "end_time": 23.7840909,
                "pitch": 48,
                "velocity": 51,
                "duration": 0.1,
                "tempo": 120.0
            },
            {
                "start_time": 23.7840909,
                "end_time": 23.9863636,
                "pitch": 48,
                "velocity": 51,
                "duration": 0.2022727,
                "tempo": 120.0
            },
            {
                "start_time": 23.9863636,
                "end_time": 24.0840909,
                "pitch": 48,
                "velocity": 51,
                "duration": 0.0977273,
                "tempo": 120.0
            },
            {
                "start_time": 24.0863636,
                "end_time": 24.1863636,
                "pitch": 48,
                "velocity": 51,
                "duration": 0.1,
                "tempo": 120.0
            },
            {
                "start_time": 24.1863636,
                "end_time": 24.3863636,
                "pitch": 50,
                "velocity": 51,
                "duration": 0.2,
                "tempo": 120.0
            },
            {
                "start_time": 24.3863636,
                "end_time": 24.4863636,
                "pitch": 50,
                "velocity": 51,
                "duration": 0.1,
                "tempo": 120.0
            },
            {
                "start_time": 24.4863636,
                "end_time": 24.5863636,
                "pitch": 50,
                "velocity": 51,
                "duration": 0.1,
                "tempo": 120.0
            },
            {
                "start_time": 24.5863636,
                "end_time": 24.7886364,
                "pitch": 50,
                "velocity": 51,
                "duration": 0.2022727,
                "tempo": 120.0
            },
            {
                "start_time": 24.7886364,
                "end_time": 24.8886364,
                "pitch": 50,
                "velocity": 51,
                "duration": 0.1,
                "tempo": 120.0
            },
            {
                "start_time": 24.8886364,
                "end_time": 24.9886364,
                "pitch": 50,
                "velocity": 51,
                "duration": 0.1,
                "tempo": 120.0
            },
            {
                "start_time": 24.9886364,
                "end_time": 25.1886364,
                "pitch": 50,
                "velocity": 51,
                "duration": 0.2,
                "tempo": 120.0
            },
            {
                "start_time": 25.1909091,
                "end_time": 25.2886364,
                "pitch": 50,
                "velocity": 51,
                "duration": 0.0977273,
                "tempo": 120.0
            },
            {
                "start_time": 25.2909091,
                "end_time": 25.3886364,
                "pitch": 50,
                "velocity": 51,
                "duration": 0.0977273,
                "tempo": 120.0
            },
            {
                "start_time": 25.3909091,
                "end_time": 25.5954545,
                "pitch": 50,
                "velocity": 51,
                "duration": 0.2045455,
                "tempo": 120.0
            },
            {
                "start_time": 25.5954545,
                "end_time": 25.6977273,
                "pitch": 50,
                "velocity": 51,
                "duration": 0.1022727,
                "tempo": 120.0
            },
            {
                "start_time": 25.6977273,
                "end_time": 25.8022727,
                "pitch": 50,
                "velocity": 51,
                "duration": 0.1045455,
                "tempo": 120.0
            },
            {
                "start_time": 25.8022727,
                "end_time": 26.0022727,
                "pitch": 48,
                "velocity": 51,
                "duration": 0.2,
                "tempo": 120.0
            },
            {
                "start_time": 26.0045455,
                "end_time": 26.1045455,
                "pitch": 48,
                "velocity": 51,
                "duration": 0.1,
                "tempo": 120.0
            },
            {
                "start_time": 26.1045455,
                "end_time": 26.2045455,
                "pitch": 48,
                "velocity": 51,
                "duration": 0.1,
                "tempo": 120.0
            },
            {
                "start_time": 26.2045455,
                "end_time": 26.4,
                "pitch": 48,
                "velocity": 51,
                "duration": 0.1954545,
                "tempo": 120.0
            },
            {
                "start_time": 26.4022727,
                "end_time": 26.4977273,
                "pitch": 48,
                "velocity": 51,
                "duration": 0.0954545,
                "tempo": 120.0
            },
            {
                "start_time": 26.5,
                "end_time": 26.5954545,
                "pitch": 48,
                "velocity": 51,
                "duration": 0.0954545,
                "tempo": 120.0
            },
            {
                "start_time": 26.5977273,
                "end_time": 26.7977273,
                "pitch": 48,
                "velocity": 51,
                "duration": 0.2,
                "tempo": 120.0
            },
            {
                "start_time": 26.8,
                "end_time": 26.8977273,
                "pitch": 48,
                "velocity": 51,
                "duration": 0.0977273,
                "tempo": 120.0
            },
            {
                "start_time": 26.9,
                "end_time": 27.0,
                "pitch": 48,
                "velocity": 51,
                "duration": 0.1,
                "tempo": 120.0
            },
            {
                "start_time": 27.0,
                "end_time": 27.2068182,
                "pitch": 48,
                "velocity": 51,
                "duration": 0.2068182,
                "tempo": 120.0
            },
            {
                "start_time": 27.2068182,
                "end_time": 27.3090909,
                "pitch": 47,
                "velocity": 51,
                "duration": 0.1022727,
                "tempo": 120.0
            },
            {
                "start_time": 27.3090909,
                "end_time": 27.4113636,
                "pitch": 47,
                "velocity": 51,
                "duration": 0.1022727,
                "tempo": 120.0
            },
            {
                "start_time": 27.4113636,
                "end_time": 27.6113636,
                "pitch": 47,
                "velocity": 51,
                "duration": 0.2,
                "tempo": 120.0
            },
            {
                "start_time": 27.6136364,
                "end_time": 27.7113636,
                "pitch": 47,
                "velocity": 51,
                "duration": 0.0977273,
                "tempo": 120.0
            },
            {
                "start_time": 27.7136364,
                "end_time": 27.8113636,
                "pitch": 47,
                "velocity": 51,
                "duration": 0.0977273,
                "tempo": 120.0
            },
            {
                "start_time": 27.8136364,
                "end_time": 28.0136364,
                "pitch": 47,
                "velocity": 51,
                "duration": 0.2,
                "tempo": 120.0
            },
            {
                "start_time": 28.0136364,
                "end_time": 28.1136364,
                "pitch": 47,
                "velocity": 51,
                "duration": 0.1,
                "tempo": 120.0
            },
            {
                "start_time": 28.1159091,
                "end_time": 28.2159091,
                "pitch": 47,
                "velocity": 51,
                "duration": 0.1,
                "tempo": 120.0
            },
            {
                "start_time": 28.2159091,
                "end_time": 28.4159091,
                "pitch": 47,
                "velocity": 51,
                "duration": 0.2,
                "tempo": 120.0
            },
            {
                "start_time": 28.4159091,
                "end_time": 28.5159091,
                "pitch": 47,
                "velocity": 51,
                "duration": 0.1,
                "tempo": 120.0
            },
            {
                "start_time": 28.5159091,
                "end_time": 28.6159091,
                "pitch": 47,
                "velocity": 51,
                "duration": 0.1,
                "tempo": 120.0
            },
            {
                "start_time": 28.6159091,
                "end_time": 28.8159091,
                "pitch": 47,
                "velocity": 51,
                "duration": 0.2,
                "tempo": 120.0
            },
            {
                "start_time": 28.8181818,
                "end_time": 28.9159091,
                "pitch": 47,
                "velocity": 51,
                "duration": 0.0977273,
                "tempo": 120.0
            },
            {
                "start_time": 28.9159091,
                "end_time": 29.0159091,
                "pitch": 47,
                "velocity": 51,
                "duration": 0.1,
                "tempo": 120.0
            },
            {
                "start_time": 29.0181818,
                "end_time": 29.2181818,
                "pitch": 48,
                "velocity": 51,
                "duration": 0.2,
                "tempo": 120.0
            },
            {
                "start_time": 29.2181818,
                "end_time": 29.3181818,
                "pitch": 48,
                "velocity": 51,
                "duration": 0.1,
                "tempo": 120.0
            },
            {
                "start_time": 29.3204545,
                "end_time": 29.4204545,
                "pitch": 48,
                "velocity": 51,
                "duration": 0.1,
                "tempo": 120.0
            },
            {
                "start_time": 29.4204545,
                "end_time": 29.6204545,
                "pitch": 48,
                "velocity": 51,
                "duration": 0.2,
                "tempo": 120.0
            },
            {
                "start_time": 29.6204545,
                "end_time": 29.7204545,
                "pitch": 48,
                "velocity": 51,
                "duration": 0.1,
                "tempo": 120.0
            },
            {
                "start_time": 29.7204545,
                "end_time": 29.8204545,
                "pitch": 48,
                "velocity": 51,
                "duration": 0.1,
                "tempo": 120.0
            },
            {
                "start_time": 29.8204545,
                "end_time": 30.0227273,
                "pitch": 48,
                "velocity": 51,
                "duration": 0.2022727,
                "tempo": 120.0
            },
            {
                "start_time": 30.0227273,
                "end_time": 30.1227273,
                "pitch": 48,
                "velocity": 51,
                "duration": 0.1,
                "tempo": 120.0
            },
            {
                "start_time": 30.1227273,
                "end_time": 30.2227273,
                "pitch": 48,
                "velocity": 51,
                "duration": 0.1,
                "tempo": 120.0
            },
            {
                "start_time": 30.2227273,
                "end_time": 30.425,
                "pitch": 48,
                "velocity": 51,
                "duration": 0.2022727,
                "tempo": 120.0
            },
            {
                "start_time": 30.425,
                "end_time": 30.5227273,
                "pitch": 50,
                "velocity": 51,
                "duration": 0.0977273,
                "tempo": 120.0
            },
            {
                "start_time": 30.525,
                "end_time": 30.6227273,
                "pitch": 50,
                "velocity": 51,
                "duration": 0.0977273,
                "tempo": 120.0
            },
            {
                "start_time": 30.625,
                "end_time": 30.825,
                "pitch": 50,
                "velocity": 51,
                "duration": 0.2,
                "tempo": 120.0
            },
            {
                "start_time": 30.825,
                "end_time": 30.925,
                "pitch": 50,
                "velocity": 51,
                "duration": 0.1,
                "tempo": 120.0
            },
            {
                "start_time": 30.925,
                "end_time": 31.025,
                "pitch": 50,
                "velocity": 51,
                "duration": 0.1,
                "tempo": 120.0
            },
            {
                "start_time": 31.025,
                "end_time": 31.225,
                "pitch": 50,
                "velocity": 51,
                "duration": 0.2,
                "tempo": 120.0
            },
            {
                "start_time": 31.2272727,
                "end_time": 31.3272727,
                "pitch": 47,
                "velocity": 51,
                "duration": 0.1,
                "tempo": 120.0
            },
            {
                "start_time": 31.3272727,
                "end_time": 31.4272727,
                "pitch": 47,
                "velocity": 51,
                "duration": 0.1,
                "tempo": 120.0
            },
            {
                "start_time": 31.4272727,
                "end_time": 31.6272727,
                "pitch": 47,
                "velocity": 51,
                "duration": 0.2,
                "tempo": 120.0
            },
            {
                "start_time": 31.6295455,
                "end_time": 31.7272727,
                "pitch": 47,
                "velocity": 51,
                "duration": 0.0977273,
                "tempo": 120.0
            },
            {
                "start_time": 31.7295455,
                "end_time": 31.8272727,
                "pitch": 47,
                "velocity": 51,
                "duration": 0.0977273,
                "tempo": 120.0
            },
            {
                "start_time": 31.8295455,
                "end_time": 32.0295455,
                "pitch": 47,
                "velocity": 51,
                "duration": 0.2,
                "tempo": 120.0
            },
            {
                "start_time": 32.0318182,
                "end_time": 32.1295455,
                "pitch": 47,
                "velocity": 51,
                "duration": 0.0977273,
                "tempo": 120.0
            },
            {
                "start_time": 32.1318182,
                "end_time": 32.2318182,
                "pitch": 47,
                "velocity": 51,
                "duration": 0.1,
                "tempo": 120.0
            },
            {
                "start_time": 32.2318182,
                "end_time": 32.4318182,
                "pitch": 45,
                "velocity": 51,
                "duration": 0.2,
                "tempo": 120.0
            },
            {
                "start_time": 32.4318182,
                "end_time": 32.5318182,
                "pitch": 45,
                "velocity": 51,
                "duration": 0.1,
                "tempo": 120.0
            },
            {
                "start_time": 32.5318182,
                "end_time": 32.6318182,
                "pitch": 45,
                "velocity": 51,
                "duration": 0.1,
                "tempo": 120.0
            },
            {
                "start_time": 32.6318182,
                "end_time": 32.8318182,
                "pitch": 45,
                "velocity": 51,
                "duration": 0.2,
                "tempo": 120.0
            },
            {
                "start_time": 32.8318182,
                "end_time": 32.9318182,
                "pitch": 45,
                "velocity": 51,
                "duration": 0.1,
                "tempo": 120.0
            },
            {
                "start_time": 32.9318182,
                "end_time": 33.0318182,
                "pitch": 45,
                "velocity": 51,
                "duration": 0.1,
                "tempo": 120.0
            },
            {
                "start_time": 33.0318182,
                "end_time": 33.2318182,
                "pitch": 45,
                "velocity": 51,
                "duration": 0.2,
                "tempo": 120.0
            },
            {
                "start_time": 33.2318182,
                "end_time": 33.3318182,
                "pitch": 45,
                "velocity": 51,
                "duration": 0.1,
                "tempo": 120.0
            },
            {
                "start_time": 33.3318182,
                "end_time": 33.4318182,
                "pitch": 45,
                "velocity": 51,
                "duration": 0.1,
                "tempo": 120.0
            },
            {
                "start_time": 33.4340909,
                "end_time": 33.6340909,
                "pitch": 45,
                "velocity": 51,
                "duration": 0.2,
                "tempo": 120.0
            },
            {
                "start_time": 33.6363636,
                "end_time": 33.7340909,
                "pitch": 45,
                "velocity": 51,
                "duration": 0.0977273,
                "tempo": 120.0
            },
            {
                "start_time": 33.7363636,
                "end_time": 33.8363636,
                "pitch": 45,
                "velocity": 51,
                "duration": 0.1,
                "tempo": 120.0
            },
            {
                "start_time": 33.8363636,
                "end_time": 34.0409091,
                "pitch": 47,
                "velocity": 51,
                "duration": 0.2045455,
                "tempo": 120.0
            },
            {
                "start_time": 34.0409091,
                "end_time": 34.1431818,
                "pitch": 47,
                "velocity": 51,
                "duration": 0.1022727,
                "tempo": 120.0
            },
            {
                "start_time": 34.1454545,
                "end_time": 34.2477273,
                "pitch": 47,
                "velocity": 51,
                "duration": 0.1022727,
                "tempo": 120.0
            },
            {
                "start_time": 34.2477273,
                "end_time": 34.4477273,
                "pitch": 47,
                "velocity": 51,
                "duration": 0.2,
                "tempo": 120.0
            },
            {
                "start_time": 34.4477273,
                "end_time": 34.5477273,
                "pitch": 47,
                "velocity": 51,
                "duration": 0.1,
                "tempo": 120.0
            },
            {
                "start_time": 34.5477273,
                "end_time": 34.6477273,
                "pitch": 47,
                "velocity": 51,
                "duration": 0.1,
                "tempo": 120.0
            },
            {
                "start_time": 34.6477273,
                "end_time": 34.8431818,
                "pitch": 47,
                "velocity": 51,
                "duration": 0.1954545,
                "tempo": 120.0
            },
            {
                "start_time": 34.8454545,
                "end_time": 34.9431818,
                "pitch": 47,
                "velocity": 51,
                "duration": 0.0977273,
                "tempo": 120.0
            },
            {
                "start_time": 34.9431818,
                "end_time": 35.0409091,
                "pitch": 47,
                "velocity": 51,
                "duration": 0.0977273,
                "tempo": 120.0
            },
            {
                "start_time": 35.0409091,
                "end_time": 35.2454545,
                "pitch": 47,
                "velocity": 51,
                "duration": 0.2045455,
                "tempo": 120.0
            },
            {
                "start_time": 35.2477273,
                "end_time": 35.35,
                "pitch": 47,
                "velocity": 51,
                "duration": 0.1022727,
                "tempo": 120.0
            },
            {
                "start_time": 35.35,
                "end_time": 35.4522727,
                "pitch": 47,
                "velocity": 51,
                "duration": 0.1022727,
                "tempo": 120.0
            },
            {
                "start_time": 35.4522727,
                "end_time": 35.6522727,
                "pitch": 48,
                "velocity": 51,
                "duration": 0.2,
                "tempo": 120.0
            },
            {
                "start_time": 35.6522727,
                "end_time": 35.7522727,
                "pitch": 48,
                "velocity": 51,
                "duration": 0.1,
                "tempo": 120.0
            },
            {
                "start_time": 35.7522727,
                "end_time": 35.8522727,
                "pitch": 48,
                "velocity": 51,
                "duration": 0.1,
                "tempo": 120.0
            },
            {
                "start_time": 35.8522727,
                "end_time": 36.0522727,
                "pitch": 48,
                "velocity": 51,
                "duration": 0.2,
                "tempo": 120.0
            },
            {
                "start_time": 36.0522727,
                "end_time": 36.1522727,
                "pitch": 48,
                "velocity": 51,
                "duration": 0.1,
                "tempo": 120.0
            },
            {
                "start_time": 36.1522727,
                "end_time": 36.2522727,
                "pitch": 48,
                "velocity": 51,
                "duration": 0.1,
                "tempo": 120.0
            },
            {
                "start_time": 36.2522727,
                "end_time": 36.4522727,
                "pitch": 48,
                "velocity": 51,
                "duration": 0.2,
                "tempo": 120.0
            },
            {
                "start_time": 36.4545455,
                "end_time": 36.5522727,
                "pitch": 48,
                "velocity": 51,
                "duration": 0.0977273,
                "tempo": 120.0
            },
            {
                "start_time": 36.5545455,
                "end_time": 36.6522727,
                "pitch": 48,
                "velocity": 51,
                "duration": 0.0977273,
                "tempo": 120.0
            },
            {
                "start_time": 36.6545455,
                "end_time": 36.8545455,
                "pitch": 48,
                "velocity": 51,
                "duration": 0.2,
                "tempo": 120.0
            },
            {
                "start_time": 36.8545455,
                "end_time": 36.9545455,
                "pitch": 48,
                "velocity": 51,
                "duration": 0.1,
                "tempo": 120.0
            },
            {
                "start_time": 36.9545455,
                "end_time": 37.0545455,
                "pitch": 48,
                "velocity": 51,
                "duration": 0.1,
                "tempo": 120.0
            },
            {
                "start_time": 37.0545455,
                "end_time": 37.2545455,
                "pitch": 48,
                "velocity": 51,
                "duration": 0.2,
                "tempo": 120.0
            },
            {
                "start_time": 37.2568182,
                "end_time": 37.3568182,
                "pitch": 48,
                "velocity": 51,
                "duration": 0.1,
                "tempo": 120.0
            },
            {
                "start_time": 37.3568182,
                "end_time": 37.4568182,
                "pitch": 48,
                "velocity": 51,
                "duration": 0.1,
                "tempo": 120.0
            },
            {
                "start_time": 37.4568182,
                "end_time": 37.6568182,
                "pitch": 48,
                "velocity": 51,
                "duration": 0.2,
                "tempo": 120.0
            },
            {
                "start_time": 37.6568182,
                "end_time": 37.7568182,
                "pitch": 48,
                "velocity": 51,
                "duration": 0.1,
                "tempo": 120.0
            },
            {
                "start_time": 37.7568182,
                "end_time": 37.8568182,
                "pitch": 48,
                "velocity": 51,
                "duration": 0.1,
                "tempo": 120.0
            },
            {
                "start_time": 37.8590909,
                "end_time": 38.0568182,
                "pitch": 48,
                "velocity": 51,
                "duration": 0.1977273,
                "tempo": 120.0
            },
            {
                "start_time": 38.0590909,
                "end_time": 38.1590909,
                "pitch": 48,
                "velocity": 51,
                "duration": 0.1,
                "tempo": 120.0
            },
            {
                "start_time": 38.1590909,
                "end_time": 38.2590909,
                "pitch": 48,
                "velocity": 51,
                "duration": 0.1,
                "tempo": 120.0
            },
            {
                "start_time": 38.2590909,
                "end_time": 38.4590909,
                "pitch": 47,
                "velocity": 51,
                "duration": 0.2,
                "tempo": 120.0
            },
            {
                "start_time": 38.4590909,
                "end_time": 38.5590909,
                "pitch": 47,
                "velocity": 51,
                "duration": 0.1,
                "tempo": 120.0
            },
            {
                "start_time": 38.5590909,
                "end_time": 38.6590909,
                "pitch": 47,
                "velocity": 51,
                "duration": 0.1,
                "tempo": 120.0
            },
            {
                "start_time": 38.6590909,
                "end_time": 38.8590909,
                "pitch": 45,
                "velocity": 51,
                "duration": 0.2,
                "tempo": 120.0
            },
            {
                "start_time": 38.8590909,
                "end_time": 38.9590909,
                "pitch": 45,
                "velocity": 51,
                "duration": 0.1,
                "tempo": 120.0
            },
            {
                "start_time": 38.9590909,
                "end_time": 39.0590909,
                "pitch": 45,
                "velocity": 51,
                "duration": 0.1,
                "tempo": 120.0
            },
            {
                "start_time": 39.0590909,
                "end_time": 39.2613636,
                "pitch": 45,
                "velocity": 51,
                "duration": 0.2022727,
                "tempo": 120.0
            },
            {
                "start_time": 39.2613636,
                "end_time": 39.3613636,
                "pitch": 45,
                "velocity": 51,
                "duration": 0.1,
                "tempo": 120.0
            },
            {
                "start_time": 39.3613636,
                "end_time": 39.4613636,
                "pitch": 45,
                "velocity": 51,
                "duration": 0.1,
                "tempo": 120.0
            },
            {
                "start_time": 39.4636364,
                "end_time": 39.6613636,
                "pitch": 45,
                "velocity": 51,
                "duration": 0.1977273,
                "tempo": 120.0
            },
            {
                "start_time": 39.6636364,
                "end_time": 39.7613636,
                "pitch": 45,
                "velocity": 51,
                "duration": 0.0977273,
                "tempo": 120.0
            },
            {
                "start_time": 39.7636364,
                "end_time": 39.8613636,
                "pitch": 45,
                "velocity": 51,
                "duration": 0.0977273,
                "tempo": 120.0
            },
            {
                "start_time": 39.8636364,
                "end_time": 40.0636364,
                "pitch": 45,
                "velocity": 51,
                "duration": 0.2,
                "tempo": 120.0
            },
            {
                "start_time": 40.0636364,
                "end_time": 40.1636364,
                "pitch": 45,
                "velocity": 51,
                "duration": 0.1,
                "tempo": 120.0
            },
            {
                "start_time": 40.1636364,
                "end_time": 40.2636364,
                "pitch": 45,
                "velocity": 51,
                "duration": 0.1,
                "tempo": 120.0
            },
            {
                "start_time": 40.2636364,
                "end_time": 40.4636364,
                "pitch": 46,
                "velocity": 51,
                "duration": 0.2,
                "tempo": 120.0
            },
            {
                "start_time": 40.4636364,
                "end_time": 40.5636364,
                "pitch": 46,
                "velocity": 51,
                "duration": 0.1,
                "tempo": 120.0
            },
            {
                "start_time": 40.5636364,
                "end_time": 40.6636364,
                "pitch": 46,
                "velocity": 51,
                "duration": 0.1,
                "tempo": 120.0
            },
            {
                "start_time": 40.6659091,
                "end_time": 40.8636364,
                "pitch": 46,
                "velocity": 51,
                "duration": 0.1977273,
                "tempo": 120.0
            },
            {
                "start_time": 40.8636364,
                "end_time": 40.9636364,
                "pitch": 46,
                "velocity": 51,
                "duration": 0.1,
                "tempo": 120.0
            },
            {
                "start_time": 40.9636364,
                "end_time": 41.0636364,
                "pitch": 46,
                "velocity": 51,
                "duration": 0.1,
                "tempo": 120.0
            },
            {
                "start_time": 41.0659091,
                "end_time": 41.2659091,
                "pitch": 46,
                "velocity": 51,
                "duration": 0.2,
                "tempo": 120.0
            },
            {
                "start_time": 41.2659091,
                "end_time": 41.3659091,
                "pitch": 46,
                "velocity": 51,
                "duration": 0.1,
                "tempo": 120.0
            },
            {
                "start_time": 41.3681818,
                "end_time": 41.4681818,
                "pitch": 46,
                "velocity": 51,
                "duration": 0.1,
                "tempo": 120.0
            },
            {
                "start_time": 41.4681818,
                "end_time": 41.6727273,
                "pitch": 46,
                "velocity": 51,
                "duration": 0.2045455,
                "tempo": 120.0
            },
            {
                "start_time": 41.675,
                "end_time": 41.7772727,
                "pitch": 46,
                "velocity": 51,
                "duration": 0.1022727,
                "tempo": 120.0
            },
            {
                "start_time": 41.7772727,
                "end_time": 41.8795455,
                "pitch": 46,
                "velocity": 51,
                "duration": 0.1022727,
                "tempo": 120.0
            },
            {
                "start_time": 41.8795455,
                "end_time": 42.0795455,
                "pitch": 45,
                "velocity": 51,
                "duration": 0.2,
                "tempo": 120.0
            },
            {
                "start_time": 42.0795455,
                "end_time": 42.1795455,
                "pitch": 45,
                "velocity": 51,
                "duration": 0.1,
                "tempo": 120.0
            },
            {
                "start_time": 42.1795455,
                "end_time": 42.2795455,
                "pitch": 45,
                "velocity": 51,
                "duration": 0.1,
                "tempo": 120.0
            },
            {
                "start_time": 42.2795455,
                "end_time": 42.4818182,
                "pitch": 45,
                "velocity": 51,
                "duration": 0.2022727,
                "tempo": 120.0
            },
            {
                "start_time": 42.4818182,
                "end_time": 42.5818182,
                "pitch": 45,
                "velocity": 51,
                "duration": 0.1,
                "tempo": 120.0
            },
            {
                "start_time": 42.5818182,
                "end_time": 42.6818182,
                "pitch": 45,
                "velocity": 51,
                "duration": 0.1,
                "tempo": 120.0
            },
            {
                "start_time": 42.6840909,
                "end_time": 42.8818182,
                "pitch": 45,
                "velocity": 51,
                "duration": 0.1977273,
                "tempo": 120.0
            },
            {
                "start_time": 42.8840909,
                "end_time": 42.9818182,
                "pitch": 45,
                "velocity": 51,
                "duration": 0.0977273,
                "tempo": 120.0
            },
            {
                "start_time": 42.9840909,
                "end_time": 43.0840909,
                "pitch": 45,
                "velocity": 51,
                "duration": 0.1,
                "tempo": 120.0
            },
            {
                "start_time": 43.0840909,
                "end_time": 43.2840909,
                "pitch": 45,
                "velocity": 51,
                "duration": 0.2,
                "tempo": 120.0
            },
            {
                "start_time": 43.2840909,
                "end_time": 43.3840909,
                "pitch": 45,
                "velocity": 51,
                "duration": 0.1,
                "tempo": 120.0
            },
            {
                "start_time": 43.3840909,
                "end_time": 43.4840909,
                "pitch": 45,
                "velocity": 51,
                "duration": 0.1,
                "tempo": 120.0
            },
            {
                "start_time": 43.4863636,
                "end_time": 43.6840909,
                "pitch": 46,
                "velocity": 51,
                "duration": 0.1977273,
                "tempo": 120.0
            },
            {
                "start_time": 43.6840909,
                "end_time": 43.7840909,
                "pitch": 46,
                "velocity": 51,
                "duration": 0.1,
                "tempo": 120.0
            },
            {
                "start_time": 43.7840909,
                "end_time": 43.8840909,
                "pitch": 46,
                "velocity": 51,
                "duration": 0.1,
                "tempo": 120.0
            },
            {
                "start_time": 43.8863636,
                "end_time": 44.0840909,
                "pitch": 46,
                "velocity": 51,
                "duration": 0.1977273,
                "tempo": 120.0
            },
            {
                "start_time": 44.0840909,
                "end_time": 44.1840909,
                "pitch": 46,
                "velocity": 51,
                "duration": 0.1,
                "tempo": 120.0
            },
            {
                "start_time": 44.1863636,
                "end_time": 44.2840909,
                "pitch": 46,
                "velocity": 51,
                "duration": 0.0977273,
                "tempo": 120.0
            },
            {
                "start_time": 44.2863636,
                "end_time": 44.4863636,
                "pitch": 46,
                "velocity": 51,
                "duration": 0.2,
                "tempo": 120.0
            },
            {
                "start_time": 44.4863636,
                "end_time": 44.5863636,
                "pitch": 46,
                "velocity": 51,
                "duration": 0.1,
                "tempo": 120.0
            },
            {
                "start_time": 44.5886364,
                "end_time": 44.6886364,
                "pitch": 46,
                "velocity": 51,
                "duration": 0.1,
                "tempo": 120.0
            },
            {
                "start_time": 44.6886364,
                "end_time": 44.8886364,
                "pitch": 46,
                "velocity": 51,
                "duration": 0.2,
                "tempo": 120.0
            },
            {
                "start_time": 44.8886364,
                "end_time": 44.9886364,
                "pitch": 46,
                "velocity": 51,
                "duration": 0.1,
                "tempo": 120.0
            },
            {
                "start_time": 44.9886364,
                "end_time": 45.0886364,
                "pitch": 46,
                "velocity": 51,
                "duration": 0.1,
                "tempo": 120.0
            },
            {
                "start_time": 45.0909091,
                "end_time": 45.2886364,
                "pitch": 46,
                "velocity": 51,
                "duration": 0.1977273,
                "tempo": 120.0
            },
            {
                "start_time": 45.2886364,
                "end_time": 45.3886364,
                "pitch": 46,
                "velocity": 51,
                "duration": 0.1,
                "tempo": 120.0
            },
            {
                "start_time": 45.3886364,
                "end_time": 45.4886364,
                "pitch": 46,
                "velocity": 51,
                "duration": 0.1,
                "tempo": 120.0
            },
            {
                "start_time": 45.4886364,
                "end_time": 45.6886364,
                "pitch": 46,
                "velocity": 51,
                "duration": 0.2,
                "tempo": 120.0
            },
            {
                "start_time": 45.6909091,
                "end_time": 45.7886364,
                "pitch": 46,
                "velocity": 51,
                "duration": 0.0977273,
                "tempo": 120.0
            },
            {
                "start_time": 45.7909091,
                "end_time": 45.8886364,
                "pitch": 46,
                "velocity": 51,
                "duration": 0.0977273,
                "tempo": 120.0
            },
            {
                "start_time": 45.8909091,
                "end_time": 46.0886364,
                "pitch": 46,
                "velocity": 51,
                "duration": 0.1977273,
                "tempo": 120.0
            },
            {
                "start_time": 46.0909091,
                "end_time": 46.1886364,
                "pitch": 46,
                "velocity": 51,
                "duration": 0.0977273,
                "tempo": 120.0
            },
            {
                "start_time": 46.1909091,
                "end_time": 46.2886364,
                "pitch": 46,
                "velocity": 51,
                "duration": 0.0977273,
                "tempo": 120.0
            },
            {
                "start_time": 46.2909091,
                "end_time": 46.4931818,
                "pitch": 46,
                "velocity": 51,
                "duration": 0.2022727,
                "tempo": 120.0
            },
            {
                "start_time": 46.4931818,
                "end_time": 46.5931818,
                "pitch": 46,
                "velocity": 51,
                "duration": 0.1,
                "tempo": 120.0
            },
            {
                "start_time": 46.5931818,
                "end_time": 46.6931818,
                "pitch": 46,
                "velocity": 51,
                "duration": 0.1,
                "tempo": 120.0
            },
            {
                "start_time": 46.6954545,
                "end_time": 46.8931818,
                "pitch": 43,
                "velocity": 51,
                "duration": 0.1977273,
                "tempo": 120.0
            },
            {
                "start_time": 46.8931818,
                "end_time": 46.9931818,
                "pitch": 43,
                "velocity": 51,
                "duration": 0.1,
                "tempo": 120.0
            },
            {
                "start_time": 46.9931818,
                "end_time": 47.0931818,
                "pitch": 43,
                "velocity": 51,
                "duration": 0.1,
                "tempo": 120.0
            },
            {
                "start_time": 47.0954545,
                "end_time": 47.2931818,
                "pitch": 43,
                "velocity": 51,
                "duration": 0.1977273,
                "tempo": 120.0
            },
            {
                "start_time": 47.2954545,
                "end_time": 47.3931818,
                "pitch": 43,
                "velocity": 51,
                "duration": 0.0977273,
                "tempo": 120.0
            },
            {
                "start_time": 47.3954545,
                "end_time": 47.4954545,
                "pitch": 43,
                "velocity": 51,
                "duration": 0.1,
                "tempo": 120.0
            },
            {
                "start_time": 47.4954545,
                "end_time": 47.6954545,
                "pitch": 43,
                "velocity": 51,
                "duration": 0.2,
                "tempo": 120.0
            },
            {
                "start_time": 47.6954545,
                "end_time": 47.7954545,
                "pitch": 43,
                "velocity": 51,
                "duration": 0.1,
                "tempo": 120.0
            },
            {
                "start_time": 47.7954545,
                "end_time": 47.8954545,
                "pitch": 43,
                "velocity": 51,
                "duration": 0.1,
                "tempo": 120.0
            },
            {
                "start_time": 47.8954545,
                "end_time": 48.0954545,
                "pitch": 43,
                "velocity": 51,
                "duration": 0.2,
                "tempo": 120.0
            },
            {
                "start_time": 48.0954545,
                "end_time": 48.1954545,
                "pitch": 43,
                "velocity": 51,
                "duration": 0.1,
                "tempo": 120.0
            },
            {
                "start_time": 48.1954545,
                "end_time": 48.2954545,
                "pitch": 43,
                "velocity": 51,
                "duration": 0.1,
                "tempo": 120.0
            },
            {
                "start_time": 48.2977273,
                "end_time": 48.4977273,
                "pitch": 45,
                "velocity": 51,
                "duration": 0.2,
                "tempo": 120.0
            },
            {
                "start_time": 48.4977273,
                "end_time": 48.5977273,
                "pitch": 45,
                "velocity": 51,
                "duration": 0.1,
                "tempo": 120.0
            },
            {
                "start_time": 48.5977273,
                "end_time": 48.6977273,
                "pitch": 45,
                "velocity": 51,
                "duration": 0.1,
                "tempo": 120.0
            },
            {
                "start_time": 48.7,
                "end_time": 48.8977273,
                "pitch": 45,
                "velocity": 51,
                "duration": 0.1977273,
                "tempo": 120.0
            },
            {
                "start_time": 48.9,
                "end_time": 48.9977273,
                "pitch": 45,
                "velocity": 51,
                "duration": 0.0977273,
                "tempo": 120.0
            },
            {
                "start_time": 49.0,
                "end_time": 49.1,
                "pitch": 45,
                "velocity": 51,
                "duration": 0.1,
                "tempo": 120.0
            },
            {
                "start_time": 49.1,
                "end_time": 49.3,
                "pitch": 45,
                "velocity": 51,
                "duration": 0.2,
                "tempo": 120.0
            },
            {
                "start_time": 49.3,
                "end_time": 49.4,
                "pitch": 45,
                "velocity": 51,
                "duration": 0.1,
                "tempo": 120.0
            },
            {
                "start_time": 49.4,
                "end_time": 49.5,
                "pitch": 45,
                "velocity": 51,
                "duration": 0.1,
                "tempo": 120.0
            },
            {
                "start_time": 49.5,
                "end_time": 49.7,
                "pitch": 45,
                "velocity": 51,
                "duration": 0.2,
                "tempo": 120.0
            },
            {
                "start_time": 49.7022727,
                "end_time": 49.8,
                "pitch": 45,
                "velocity": 51,
                "duration": 0.0977273,
                "tempo": 120.0
            },
            {
                "start_time": 49.8022727,
                "end_time": 49.9,
                "pitch": 45,
                "velocity": 51,
                "duration": 0.0977273,
                "tempo": 120.0
            },
            {
                "start_time": 49.9022727,
                "end_time": 50.1045455,
                "pitch": 44,
                "velocity": 51,
                "duration": 0.2022727,
                "tempo": 120.0
            },
            {
                "start_time": 50.1068182,
                "end_time": 50.2090909,
                "pitch": 44,
                "velocity": 51,
                "duration": 0.1022727,
                "tempo": 120.0
            },
            {
                "start_time": 50.2090909,
                "end_time": 50.3113636,
                "pitch": 44,
                "velocity": 51,
                "duration": 0.1022727,
                "tempo": 120.0
            },
            {
                "start_time": 50.3113636,
                "end_time": 50.5113636,
                "pitch": 44,
                "velocity": 51,
                "duration": 0.2,
                "tempo": 120.0
            },
            {
                "start_time": 50.5113636,
                "end_time": 50.6113636,
                "pitch": 44,
                "velocity": 51,
                "duration": 0.1,
                "tempo": 120.0
            },
            {
                "start_time": 50.6136364,
                "end_time": 50.7113636,
                "pitch": 44,
                "velocity": 51,
                "duration": 0.0977273,
                "tempo": 120.0
            },
            {
                "start_time": 50.7136364,
                "end_time": 50.9136364,
                "pitch": 44,
                "velocity": 51,
                "duration": 0.2,
                "tempo": 120.0
            },
            {
                "start_time": 50.9136364,
                "end_time": 51.0136364,
                "pitch": 44,
                "velocity": 51,
                "duration": 0.1,
                "tempo": 120.0
            },
            {
                "start_time": 51.0136364,
                "end_time": 51.1136364,
                "pitch": 44,
                "velocity": 51,
                "duration": 0.1,
                "tempo": 120.0
            },
            {
                "start_time": 51.1136364,
                "end_time": 51.3136364,
                "pitch": 44,
                "velocity": 51,
                "duration": 0.2,
                "tempo": 120.0
            },
            {
                "start_time": 51.3136364,
                "end_time": 51.4136364,
                "pitch": 44,
                "velocity": 51,
                "duration": 0.1,
                "tempo": 120.0
            },
            {
                "start_time": 51.4136364,
                "end_time": 51.5136364,
                "pitch": 44,
                "velocity": 51,
                "duration": 0.1,
                "tempo": 120.0
            }
        ]
    }
}