{
    "mood": "angry",
    "instruments": {
        "Harpsichord": [
            {
                "start_time": 0.0227273,
                "end_time": 0.3045455,
                "pitch": 43,
                "velocity": 51,
                "duration": 0.2818182,
                "tempo": 120.0
            },
            {
                "start_time": 0.3045455,
                "end_time": 0.4045455,
                "pitch": 43,
                "velocity": 51,
                "duration": 0.1,
                "tempo": 120.0
            },
            {
                "start_time": 0.4045455,
                "end_time": 0.6386364,
                "pitch": 43,
                "velocity": 51,
                "duration": 0.2340909,
                "tempo": 120.0
            },
            {
                "start_time": 0.6386364,
                "end_time": 0.7386364,
                "pitch": 43,
                "velocity": 51,
                "duration": 0.1,
                "tempo": 120.0
            },
            {
                "start_time": 0.7386364,
                "end_time": 0.9704545,
                "pitch": 43,
                "velocity": 51,
                "duration": 0.2318182,
                "tempo": 120.0
            },
            {
                "start_time": 0.9704545,
                "end_time": 1.1931818,
                "pitch": 43,
                "velocity": 51,
                "duration": 0.2227273,
                "tempo": 120.0
            },
            {
                "start_time": 1.1931818,
                "end_time": 1.4136364,
                "pitch": 43,
                "velocity": 51,
                "duration": 0.2204545,
                "tempo": 120.0
            },
            {
                "start_time": 1.4136364,
                "end_time": 1.6477273,
                "pitch": 43,
                "velocity": 51,
                "duration": 0.2340909,
                "tempo": 120.0
            },
            {
                "start_time": 1.6477273,
                "end_time": 1.8659091,
                "pitch": 43,
                "velocity": 51,
                "duration": 0.2181818,
                "tempo": 120.0
            },
            {
                "start_time": 1.8659091,
                "end_time": 2.0863636,
                "pitch": 43,
                "velocity": 51,
                "duration": 0.2204545,
                "tempo": 120.0
            },
            {
                "start_time": 2.0863636,
                "end_time": 2.3090909,
                "pitch": 43,
                "velocity": 51,
                "duration": 0.2227273,
                "tempo": 120.0
            },
            {
                "start_time": 2.3090909,
                "end_time": 2.4227273,
                "pitch": 43,
                "velocity": 51,
                "duration": 0.1136364,
                "tempo": 120.0
            },
            {
                "start_time": 2.4227273,
                "end_time": 2.6318182,
                "pitch": 43,
                "velocity": 51,
                "duration": 0.2090909,
                "tempo": 120.0
            },
            {
                "start_time": 2.6318182,
                "end_time": 2.7477273,
                "pitch": 43,
                "velocity": 51,
                "duration": 0.1159091,
                "tempo": 120.0
            },
            {
                "start_time": 2.7477273,
                "end_time": 2.9659091,
                "pitch": 43,
                "velocity": 51,
                "duration": 0.2181818,
                "tempo": 120.0
            },
            {
                "start_time": 2.9659091,
                "end_time": 3.2,
                "pitch": 43,
                "velocity": 51,
                "duration": 0.2340909,
                "tempo": 120.0
            },
            {
                "start_time": 3.2,
                "end_time": 3.3,
                "pitch": 43,
                "velocity": 51,
                "duration": 0.1,
                "tempo": 120.0
            },
            {
                "start_time": 3.3,
                "end_time": 3.5318182,
                "pitch": 43,
                "velocity": 51,
                "duration": 0.2318182,
                "tempo": 120.0
            },
            {
                "start_time": 3.5318182,
                "end_time": 3.6340909,
                "pitch": 43,
                "velocity": 51,
                "duration": 0.1022727,
                "tempo": 120.0
            },
            {
                "start_time": 3.6340909,
                "end_time": 3.8659091,
                "pitch": 43,
                "velocity": 51,
                "duration": 0.2318182,
                "tempo": 120.0
            },
            {
                "start_time": 3.8659091,
                "end_time": 4.0840909,
                "pitch": 43,
                "velocity": 51,
                "duration": 0.2181818,
                "tempo": 120.0
            },
            {
                "start_time": 4.0840909,
                "end_time": 4.3,
                "pitch": 43,
                "velocity": 51,
                "duration": 0.2159091,
                "tempo": 120.0
            },
            {
                "start_time": 4.3,
                "end_time": 4.4204545,
                "pitch": 43,
                "velocity": 51,
                "duration": 0.1204545,
                "tempo": 120.0
            },
            {
                "start_time": 4.4204545,
                "end_time": 4.6431818,
                "pitch": 43,
                "velocity": 51,
                "duration": 0.2227273,
                "tempo": 120.0
            },
            {
                "start_time": 4.6431818,
                "end_time": 4.7568182,
                "pitch": 43,
                "velocity": 51,
                "duration": 0.1136364,
                "tempo": 120.0
            },
            {
                "start_time": 4.7568182,
                "end_time": 4.9659091,
                "pitch": 43,
                "velocity": 51,
                "duration": 0.2090909,
                "tempo": 120.0
            },
            {
                "start_time": 4.9659091,
                "end_time": 5.1886364,
                "pitch": 43,
                "velocity": 51,
                "duration": 0.2227273,
                "tempo": 120.0
            },
            {
                "start_time": 5.1886364,
                "end_time": 5.4272727,
                "pitch": 43,
                "velocity": 51,
                "duration": 0.2386364,
                "tempo": 120.0
            },
            {
                "start_time": 5.4272727,
                "end_time": 5.6431818,
                "pitch": 43,
                "velocity": 51,
                "duration": 0.2159091,
                "tempo": 120.0
            },
            {
                "start_time": 5.6431818,
                "end_time": 5.8613636,
                "pitch": 43,
                "velocity": 51,
                "duration": 0.2181818,
                "tempo": 120.0
            },
            {
                "start_time": 5.8613636,
                "end_time": 6.0954545,
                "pitch": 43,
                "velocity": 51,
                "duration": 0.2340909,
                "tempo": 120.0
            },
            {
                "start_time": 6.0954545,
                "end_time": 6.3113636,
                "pitch": 43,
                "velocity": 51,
                "duration": 0.2159091,
                "tempo": 120.0
            },
            {
                "start_time": 6.3113636,
                "end_time": 6.4318182,
                "pitch": 43,
                "velocity": 51,
                "duration": 0.1204545,
                "tempo": 120.0
            },
            {
                "start_time": 6.4318182,
                "end_time": 6.6545455,
                "pitch": 43,
                "velocity": 51,
                "duration": 0.2227273,
                "tempo": 120.0
            },
            {
                "start_time": 6.6545455,
                "end_time": 6.7545455,
                "pitch": 43,
                "velocity": 51,
                "duration": 0.1,
                "tempo": 120.0
            },
            {
                "start_time": 6.7545455,
                "end_time": 6.9886364,
                "pitch": 43,
                "velocity": 51,
                "duration": 0.2340909,
                "tempo": 120.0
            },
            {
                "start_time": 6.9886364,
                "end_time": 7.2113636,
                "pitch": 43,
                "velocity": 51,
                "duration": 0.2227273,
                "tempo": 120.0
            },
            {
                "start_time": 7.2113636,
                "end_time": 7.3318182,
                "pitch": 43,
                "velocity": 51,
                "duration": 0.1204545,
                "tempo": 120.0
            },
            {
                "start_time": 7.3318182,
                "end_time": 7.5409091,
                "pitch": 43,
                "velocity": 51,
                "duration": 0.2090909,
                "tempo": 120.0
            },
            {
                "start_time": 7.5409091,
                "end_time": 7.6545455,
                "pitch": 43,
                "velocity": 51,
                "duration": 0.1136364,
                "tempo": 120.0
            },
            {
                "start_time": 7.6545455,
                "end_time": 7.8772727,
                "pitch": 43,
                "velocity": 51,
                "duration": 0.2227273,
                "tempo": 120.0
            },
            {
                "start_time": 7.8772727,
                "end_time": 8.0977273,
                "pitch": 43,
                "velocity": 51,
                "duration": 0.2204545,
                "tempo": 120.0
            },
            {
                "start_time": 8.0977273,
                "end_time": 8.2136364,
                "pitch": 51,
                "velocity": 51,
                "duration": 0.1159091,
                "tempo": 120.0
            },
            {
                "start_time": 8.2136364,
                "end_time": 8.3318182,
                "pitch": 51,
                "velocity": 51,
                "duration": 0.1181818,
                "tempo": 120.0
            },
            {
                "start_time": 8.3318182,
                "end_time": 8.4340909,
                "pitch": 51,
                "velocity": 51,
                "duration": 0.1022727,
                "tempo": 120.0
            },
            {
                "start_time": 8.4340909,
                "end_time": 8.6568182,
                "pitch": 51,
                "velocity": 51,
                "duration": 0.2227273,
                "tempo": 120.0
            },
            {
                "start_time": 8.6568182,
                "end_time": 8.8772727,
                "pitch": 51,
                "velocity": 51,
                "duration": 0.2204545,
                "tempo": 120.0
            },
            {
                "start_time": 8.8772727,
                "end_time": 8.9704545,
                "pitch": 51,
                "velocity": 51,
                "duration": 0.0931818,
                "tempo": 120.0
            },
            {
                "start_time": 8.9704545,
                "end_time": 9.2045455,
                "pitch": 51,
                "velocity": 51,
                "duration": 0.2340909,
                "tempo": 120.0
            },
            {
                "start_time": 9.2045455,
                "end_time": 9.4204545,
                "pitch": 51,
                "velocity": 51,
                "duration": 0.2159091,
                "tempo": 120.0
            },
            {
                "start_time": 9.4204545,
                "end_time": 9.6386364,
                "pitch": 51,
                "velocity": 51,
                "duration": 0.2181818,
                "tempo": 120.0
            },
            {
                "start_time": 8.0977273,
                "end_time": 9.7568182,
                "pitch": 43,
                "velocity": 51,
                "duration": 1.6590909,
                "tempo": 120.0
            },
            {
                "start_time": 9.6386364,
                "end_time": 9.7568182,
                "pitch": 43,
                "velocity": 51,
                "duration": 0.1181818,
                "tempo": 120.0
            },
            {
                "start_time": 9.7568182,
                "end_time": 9.8772727,
                "pitch": 43,
                "velocity": 51,
                "duration": 0.1204545,
                "tempo": 120.0
            },
            {
                "start_time": 9.8772727,
                "end_time": 9.9818182,
                "pitch": 43,
                "velocity": 51,
                "duration": 0.1045455,
                "tempo": 120.0
            },
            {
                "start_time": 9.9818182,
                "end_time": 10.2136364,
                "pitch": 43,
                "velocity": 51,
                "duration": 0.2318182,
                "tempo": 120.0
            },
            {
                "start_time": 10.2136364,
                "end_time": 10.4318182,
                "pitch": 43,
                "velocity": 51,
                "duration": 0.2181818,
                "tempo": 120.0
            },
            {
                "start_time": 10.4318182,
                "end_time": 10.5477273,
                "pitch": 43,
                "velocity": 51,
                "duration": 0.1159091,
                "tempo": 120.0
            },
            {
                "start_time": 10.5477273,
                "end_time": 10.7659091,
                "pitch": 43,
                "velocity": 51,
                "duration": 0.2181818,
                "tempo": 120.0
            },
            {
                "start_time": 10.7659091,
                "end_time": 10.9818182,
                "pitch": 43,
                "velocity": 51,
                "duration": 0.2159091,
                "tempo": 120.0
            },
            {
                "start_time": 10.9818182,
                "end_time": 11.1,
                "pitch": 43,
                "velocity": 51,
                "duration": 0.1181818,
                "tempo": 120.0
            },
            {
                "start_time": 11.1,
                "end_time": 11.2,
                "pitch": 43,
                "velocity": 51,
                "duration": 0.1,
                "tempo": 120.0
            },
            {
                "start_time": 9.6386364,
                "end_time": 11.3159091,
                "pitch": 51,
                "velocity": 51,
                "duration": 1.6772727,
                "tempo": 120.0
            },
            {
                "start_time": 11.2,
                "end_time": 11.3159091,
                "pitch": 51,
                "velocity": 51,
                "duration": 0.1159091,
                "tempo": 120.0
            },
            {
                "start_time": 11.3159091,
                "end_time": 11.4318182,
                "pitch": 51,
                "velocity": 51,
                "duration": 0.1159091,
                "tempo": 120.0
            },
            {
                "start_time": 11.4318182,
                "end_time": 11.5340909,
                "pitch": 51,
                "velocity": 51,
                "duration": 0.1022727,
                "tempo": 120.0
            },
            {
                "start_time": 11.5340909,
                "end_time": 11.7704545,
                "pitch": 51,
                "velocity": 51,
                "duration": 0.2363636,
                "tempo": 120.0
            },
            {
                "start_time": 11.7704545,
                "end_time": 11.9931818,
                "pitch": 51,
                "velocity": 51,
                "duration": 0.2227273,
                "tempo": 120.0
            },
            {
                "start_time": 11.9931818,
                "end_time": 12.1090909,
                "pitch": 51,
                "velocity": 51,
                "duration": 0.1159091,
                "tempo": 120.0
            },
            {
                "start_time": 12.1090909,
                "end_time": 12.3272727,
                "pitch": 51,
                "velocity": 51,
                "duration": 0.2181818,
                "tempo": 120.0
            },
            {
                "start_time": 12.3272727,
                "end_time": 12.5431818,
                "pitch": 51,
                "velocity": 51,
                "duration": 0.2159091,
                "tempo": 120.0
            },
            {
                "start_time": 12.5431818,
                "end_time": 12.7772727,
                "pitch": 51,
                "velocity": 51,
                "duration": 0.2340909,
                "tempo": 120.0
            },
            {
                "start_time": 11.2,
                "end_time": 12.8772727,
                "pitch": 43,
                "velocity": 51,
                "duration": 1.6772727,
                "tempo": 120.0
            },
            {
                "start_time": 12.7772727,
                "end_time": 12.8772727,
                "pitch": 43,
                "velocity": 51,
                "duration": 0.1,
                "tempo": 120.0
            },
            {
                "start_time": 12.8772727,
                "end_time": 12.9954545,
                "pitch": 43,
                "velocity": 51,
                "duration": 0.1181818,
                "tempo": 120.0
            },
            {
                "start_time": 12.9954545,
                "end_time": 13.0977273,
                "pitch": 43,
                "velocity": 51,
                "duration": 0.1022727,
                "tempo": 120.0
            },
            {
                "start_time": 13.0977273,
                "end_time": 13.3386364,
                "pitch": 43,
                "velocity": 51,
                "duration": 0.2409091,
                "tempo": 120.0
            },
            {
                "start_time": 13.3386364,
                "end_time": 13.5545455,
                "pitch": 43,
                "velocity": 51,
                "duration": 0.2159091,
                "tempo": 120.0
            },
            {
                "start_time": 13.5545455,
                "end_time": 13.6704545,
                "pitch": 43,
                "velocity": 51,
                "duration": 0.1159091,
                "tempo": 120.0
            },
            {
                "start_time": 13.6704545,
                "end_time": 13.8931818,
                "pitch": 43,
                "velocity": 51,
                "duration": 0.2227273,
                "tempo": 120.0
            },
            {
                "start_time": 13.8931818,
                "end_time": 14.1113636,
                "pitch": 43,
                "velocity": 51,
                "duration": 0.2181818,
                "tempo": 120.0
            },
            {
                "start_time": 14.1113636,
                "end_time": 14.225,
                "pitch": 43,
                "velocity": 51,
                "duration": 0.1136364,
                "tempo": 120.0
            },
            {
                "start_time": 14.225,
                "end_time": 14.3386364,
                "pitch": 43,
                "velocity": 51,
                "duration": 0.1136364,
                "tempo": 120.0
            },
            {
                "start_time": 14.3386364,
                "end_time": 14.6704545,
                "pitch": 43,
                "velocity": 51,
                "duration": 0.3318182,
                "tempo": 120.0
            },
            {
                "start_time": 14.6704545,
                "end_time": 15.0136364,
                "pitch": 44,
                "velocity": 51,
                "duration": 0.3431818,
                "tempo": 120.0
            },
            {
                "start_time": 15.0136364,
                "end_time": 15.3318182,
                "pitch": 44,
                "velocity": 51,
                "duration": 0.3181818,
                "tempo": 120.0
            },
            {
                "start_time": 15.3318182,
                "end_time": 15.5590909,
                "pitch": 44,
                "velocity": 51,
                "duration": 0.2272727,
                "tempo": 120.0
            },
            {
                "start_time": 15.5590909,
                "end_time": 15.7704545,
                "pitch": 44,
                "velocity": 51,
                "duration": 0.2113636,
                "tempo": 120.0
            },
            {
                "start_time": 15.7704545,
                "end_time": 15.9886364,
                "pitch": 44,
                "velocity": 51,
                "duration": 0.2181818,
                "tempo": 120.0
            },
            {
                "start_time": 15.9886364,
                "end_time": 16.3227273,
                "pitch": 44,
                "velocity": 51,
                "duration": 0.3340909,
                "tempo": 120.0
            },
            {
                "start_time": 16.3227273,
                "end_time": 16.6568182,
                "pitch": 44,
                "velocity": 51,
                "duration": 0.3340909,
                "tempo": 120.0
            },
            {
                "start_time": 16.6568182,
                "end_time": 17.0,
                "pitch": 44,
                "velocity": 51,
                "duration": 0.3431818,
                "tempo": 120.0
            },
            {
                "start_time": 17.0,
                "end_time": 17.2159091,
                "pitch": 44,
                "velocity": 51,
                "duration": 0.2159091,
                "tempo": 120.0
            },
            {
                "start_time": 17.2159091,
                "end_time": 17.45,
                "pitch": 44,
                "velocity": 51,
                "duration": 0.2340909,
                "tempo": 120.0
            },
            {
                "start_time": 17.45,
                "end_time": 17.6659091,
                "pitch": 44,
                "velocity": 51,
                "duration": 0.2159091,
                "tempo": 120.0
            },
            {
                "start_time": 17.6659091,
                "end_time": 18.0,
                "pitch": 46,
                "velocity": 51,
                "duration": 0.3340909,
                "tempo": 120.0
            },
            {
                "start_time": 18.0,
                "end_time": 18.3340909,
                "pitch": 46,
                "velocity": 51,
                "duration": 0.3340909,
                "tempo": 120.0
            },
            {
                "start_time": 18.3340909,
                "end_time": 18.6772727,
                "pitch": 46,
                "velocity": 51,
                "duration": 0.3431818,
                "tempo": 120.0
            },
            {
                "start_time": 18.6772727,
                "end_time": 18.8931818,
                "pitch": 46,
                "velocity": 51,
                "duration": 0.2159091,
                "tempo": 120.0
            },
            {
                "start_time": 18.8931818,
                "end_time": 19.1272727,
                "pitch": 46,
                "velocity": 51,
                "duration": 0.2340909,
                "tempo": 120.0
            },
            {
                "start_time": 19.1272727,
                "end_time": 19.3454545,
                "pitch": 46,
                "velocity": 51,
                "duration": 0.2181818,
                "tempo": 120.0
            },
            {
                "start_time": 19.3454545,
                "end_time": 19.6795455,
                "pitch": 46,
                "velocity": 51,
                "duration": 0.3340909,
                "tempo": 120.0
            },
            {
                "start_time": 19.6795455,
                "end_time": 20.0113636,
                "pitch": 46,
                "velocity": 51,
                "duration": 0.3318182,
                "tempo": 120.0
            },
            {
                "start_time": 20.0113636,
                "end_time": 20.3545455,
                "pitch": 46,
                "velocity": 51,
                "duration": 0.3431818,
                "tempo": 120.0
            },
            {
                "start_time": 20.3545455,
                "end_time": 20.5727273,
                "pitch": 46,
                "velocity": 51,
                "duration": 0.2181818,
                "tempo": 120.0
            },
            {
                "start_time": 20.5727273,
                "end_time": 20.7886364,
                "pitch": 46,
                "velocity": 51,
                "duration": 0.2159091,
                "tempo": 120.0
            },
            {
                "start_time": 20.7886364,
                "end_time": 21.0227273,
                "pitch": 46,
                "velocity": 51,
                "duration": 0.2340909,
                "tempo": 120.0
            },
            {
                "start_time": 21.0227273,
                "end_time": 21.3568182,
                "pitch": 46,
                "velocity": 51,
                "duration": 0.3340909,
                "tempo": 120.0
            },
            {
                "start_time": 21.3568182,
                "end_time": 21.6727273,
                "pitch": 48,
                "velocity": 51,
                "duration": 0.3159091,
                "tempo": 120.0
            },
            {
                "start_time": 21.6727273,
                "end_time": 21.9977273,
                "pitch": 48,
                "velocity": 51,
                "duration": 0.325,
                "tempo": 120.0
            },
            {
                "start_time": 21.9977273,
                "end_time": 22.1136364,
                "pitch": 48,
                "velocity": 51,
                "duration": 0.1159091,
                "tempo": 120.0
            },
            {
                "start_time": 22.1136364,
                "end_time": 22.2295455,
                "pitch": 48,
                "velocity": 51,
                "duration": 0.1159091,
                "tempo": 120.0
            },
            {
                "start_time": 22.2295455,
                "end_time": 22.3318182,
                "pitch": 46,
                "velocity": 51,
                "duration": 0.1022727,
                "tempo": 120.0
            },
            {
                "start_time": 22.3318182,
                "end_time": 22.4477273,
                "pitch": 47,
                "velocity": 51,
                "duration": 0.1159091,
                "tempo": 120.0
            },
            {
                "start_time": 22.4477273,
                "end_time": 22.6636364,
                "pitch": 48,
                "velocity": 51,
                "duration": 0.2159091,
                "tempo": 120.0
            },
            {
                "start_time": 22.6636364,
                "end_time": 22.8977273,
                "pitch": 48,
                "velocity": 51,
                "duration": 0.2340909,
                "tempo": 120.0
            },
            {
                "start_time": 22.8977273,
                "end_time": 22.9977273,
                "pitch": 48,
                "velocity": 51,
                "duration": 0.1,
                "tempo": 120.0
            },
            {
                "start_time": 22.9977273,
                "end_time": 23.3409091,
                "pitch": 48,
                "velocity": 51,
                "duration": 0.3431818,
                "tempo": 120.0
            },
            {
                "start_time": 23.3409091,
                "end_time": 23.4590909,
                "pitch": 50,
                "velocity": 51,
                "duration": 0.1181818,
                "tempo": 120.0
            },
            {
                "start_time": 23.4590909,
                "end_time": 23.675,
                "pitch": 50,
                "velocity": 51,
                "duration": 0.2159091,
                "tempo": 120.0
            },
            {
                "start_time": 23.675,
                "end_time": 23.7954545,
                "pitch": 50,
                "velocity": 51,
                "duration": 0.1204545,
                "tempo": 120.0
            },
            {
                "start_time": 23.7954545,
                "end_time": 24.0181818,
                "pitch": 50,
                "velocity": 51,
                "duration": 0.2227273,
                "tempo": 120.0
            },
            {
                "start_time": 24.0181818,
                "end_time": 24.2340909,
                "pitch": 50,
                "velocity": 51,
                "duration": 0.2159091,
                "tempo": 120.0
            },
            {
                "start_time": 24.2340909,
                "end_time": 24.3522727,
                "pitch": 50,
                "velocity": 51,
                "duration": 0.1181818,
                "tempo": 120.0
            },
            {
                "start_time": 24.3522727,
                "end_time": 24.5681818,
                "pitch": 50,
                "velocity": 51,
                "duration": 0.2159091,
                "tempo": 120.0
            },
            {
                "start_time": 24.5681818,
                "end_time": 24.6863636,
                "pitch": 50,
                "velocity": 51,
                "duration": 0.1181818,
                "tempo": 120.0
            },
            {
                "start_time": 24.6863636,
                "end_time": 24.9022727,
                "pitch": 50,
                "velocity": 51,
                "duration": 0.2159091,
                "tempo": 120.0
            },
            {
                "start_time": 24.9022727,
                "end_time": 25.1363636,
                "pitch": 50,
                "velocity": 51,
                "duration": 0.2340909,
                "tempo": 120.0
            },
            {
                "start_time": 25.1363636,
                "end_time": 25.2363636,
                "pitch": 50,
                "velocity": 51,
                "duration": 0.1,
                "tempo": 120.0
            },
            {
                "start_time": 25.2363636,
                "end_time": 25.4704545,
                "pitch": 50,
                "velocity": 51,
                "duration": 0.2340909,
                "tempo": 120.0
            },
            {
                "start_time": 25.4704545,
                "end_time": 25.5704545,
                "pitch": 50,
                "velocity": 51,
                "duration": 0.1,
                "tempo": 120.0
            },
            {
                "start_time": 25.5704545,
                "end_time": 25.7863636,
                "pitch": 50,
                "velocity": 51,
                "duration": 0.2159091,
                "tempo": 120.0
            },
            {
                "start_time": 25.7863636,
                "end_time": 26.0204545,
                "pitch": 50,
                "velocity": 51,
                "duration": 0.2340909,
                "tempo": 120.0
            },
            {
                "start_time": 23.3409091,
                "end_time": 26.1227273,
                "pitch": 48,
                "velocity": 51,
                "duration": 2.7818182,
                "tempo": 120.0
            },
            {
                "start_time": 26.0204545,
                "end_time": 26.1227273,
                "pitch": 48,
                "velocity": 51,
                "duration": 0.1022727,
                "tempo": 120.0
            },
            {
                "start_time": 26.1227273,
                "end_time": 26.3636364,
                "pitch": 48,
                "velocity": 51,
                "duration": 0.2409091,
                "tempo": 120.0
            },
            {
                "start_time": 26.3636364,
                "end_time": 26.4636364,
                "pitch": 48,
                "velocity": 51,
                "duration": 0.1,
                "tempo": 120.0
            },
            {
                "start_time": 26.4636364,
                "end_time": 26.6977273,
                "pitch": 48,
                "velocity": 51,
                "duration": 0.2340909,
                "tempo": 120.0
            },
            {
                "start_time": 26.6977273,
                "end_time": 26.9159091,
                "pitch": 48,
                "velocity": 51,
                "duration": 0.2181818,
                "tempo": 120.0
            },
            {
                "start_time": 26.9159091,
                "end_time": 27.0318182,
                "pitch": 48,
                "velocity": 51,
                "duration": 0.1159091,
                "tempo": 120.0
            },
            {
                "start_time": 27.0318182,
                "end_time": 27.2545455,
                "pitch": 48,
                "velocity": 51,
                "duration": 0.2227273,
                "tempo": 120.0
            },
            {
                "start_time": 27.2545455,
                "end_time": 27.375,
                "pitch": 48,
                "velocity": 51,
                "duration": 0.1204545,
                "tempo": 120.0
            },
            {
                "start_time": 27.375,
                "end_time": 27.6136364,
                "pitch": 48,
                "velocity": 51,
                "duration": 0.2386364,
                "tempo": 120.0
            },
            {
                "start_time": 27.6136364,
                "end_time": 27.8545455,
                "pitch": 48,
                "velocity": 51,
                "duration": 0.2409091,
                "tempo": 120.0
            },
            {
                "start_time": 26.0204545,
                "end_time": 27.9931818,
                "pitch": 50,
                "velocity": 51,
                "duration": 1.9727273,
                "tempo": 120.0
            },
            {
                "start_time": 27.8545455,
                "end_time": 27.9931818,
                "pitch": 50,
                "velocity": 51,
                "duration": 0.1386364,
                "tempo": 120.0
            },
            {
                "start_time": 27.9931818,
                "end_time": 28.25,
                "pitch": 50,
                "velocity": 51,
                "duration": 0.2568182,
                "tempo": 120.0
            },
            {
                "start_time": 28.25,
                "end_time": 28.3659091,
                "pitch": 50,
                "velocity": 51,
                "duration": 0.1159091,
                "tempo": 120.0
            },
            {
                "start_time": 28.3659091,
                "end_time": 28.5840909,
                "pitch": 50,
                "velocity": 51,
                "duration": 0.2181818,
                "tempo": 120.0
            },
            {
                "start_time": 28.5840909,
                "end_time": 28.8068182,
                "pitch": 50,
                "velocity": 51,
                "duration": 0.2227273,
                "tempo": 120.0
            },
            {
                "start_time": 28.8068182,
                "end_time": 28.9272727,
                "pitch": 50,
                "velocity": 51,
                "duration": 0.1204545,
                "tempo": 120.0
            },
            {
                "start_time": 28.9272727,
                "end_time": 29.1363636,
                "pitch": 50,
                "velocity": 51,
                "duration": 0.2090909,
                "tempo": 120.0
            },
            {
                "start_time": 29.1363636,
                "end_time": 29.25,
                "pitch": 50,
                "velocity": 51,
                "duration": 0.1136364,
                "tempo": 120.0
            },
            {
                "start_time": 29.25,
                "end_time": 29.4727273,
                "pitch": 50,
                "velocity": 51,
                "duration": 0.2227273,
                "tempo": 120.0
            },
            {
                "start_time": 29.4727273,
                "end_time": 29.7090909,
                "pitch": 50,
                "velocity": 51,
                "duration": 0.2363636,
                "tempo": 120.0
            },
            {
                "start_time": 29.7090909,
                "end_time": 29.8090909,
                "pitch": 50,
                "velocity": 51,
                "duration": 0.1,
                "tempo": 120.0
            },
            {
                "start_time": 29.8090909,
                "end_time": 30.0431818,
                "pitch": 50,
                "velocity": 51,
                "duration": 0.2340909,
                "tempo": 120.0
            },
            {
                "start_time": 30.0431818,
                "end_time": 30.1431818,
                "pitch": 50,
                "velocity": 51,
                "duration": 0.1,
                "tempo": 120.0
            },
            {
                "start_time": 30.1431818,
                "end_time": 30.3613636,
                "pitch": 50,
                "velocity": 51,
                "duration": 0.2181818,
                "tempo": 120.0
            },
            {
                "start_time": 30.3613636,
                "end_time": 30.5954545,
                "pitch": 50,
                "velocity": 51,
                "duration": 0.2340909,
                "tempo": 120.0
            },
            {
                "start_time": 30.5954545,
                "end_time": 30.6931818,
                "pitch": 48,
                "velocity": 51,
                "duration": 0.0977273,
                "tempo": 120.0
            },
            {
                "start_time": 30.6931818,
                "end_time": 30.9272727,
                "pitch": 48,
                "velocity": 51,
                "duration": 0.2340909,
                "tempo": 120.0
            },
            {
                "start_time": 30.9272727,
                "end_time": 31.0295455,
                "pitch": 48,
                "velocity": 51,
                "duration": 0.1022727,
                "tempo": 120.0
            },
            {
                "start_time": 31.0295455,
                "end_time": 31.2704545,
                "pitch": 48,
                "velocity": 51,
                "duration": 0.2409091,
                "tempo": 120.0
            },
            {
                "start_time": 31.2704545,
                "end_time": 31.4886364,
                "pitch": 48,
                "velocity": 51,
                "duration": 0.2181818,
                "tempo": 120.0
            },
            {
                "start_time": 31.4886364,
                "end_time": 31.6045455,
                "pitch": 48,
                "velocity": 51,
                "duration": 0.1159091,
                "tempo": 120.0
            },
            {
                "start_time": 31.6045455,
                "end_time": 31.8272727,
                "pitch": 48,
                "velocity": 51,
                "duration": 0.2227273,
                "tempo": 120.0
            },
            {
                "start_time": 31.8272727,
                "end_time": 31.9477273,
                "pitch": 48,
                "velocity": 51,
                "duration": 0.1204545,
                "tempo": 120.0
            },
            {
                "start_time": 31.9477273,
                "end_time": 32.1659091,
                "pitch": 48,
                "velocity": 51,
                "duration": 0.2181818,
                "tempo": 120.0
            },
            {
                "start_time": 32.1659091,
                "end_time": 32.3795455,
                "pitch": 48,
                "velocity": 51,
                "duration": 0.2136364,
                "tempo": 120.0
            },
            {
                "start_time": 32.3795455,
                "end_time": 32.4909091,
                "pitch": 48,
                "velocity": 51,
                "duration": 0.1113636,
                "tempo": 120.0
            },
            {
                "start_time": 32.4909091,
                "end_time": 32.7022727,
                "pitch": 47,
                "velocity": 51,
                "duration": 0.2113636,
                "tempo": 120.0
            },
            {
                "start_time": 32.7022727,
                "end_time": 32.8136364,
                "pitch": 47,
                "velocity": 51,
                "duration": 0.1113636,
                "tempo": 120.0
            },
            {
                "start_time": 32.8136364,
                "end_time": 33.0295455,
                "pitch": 47,
                "velocity": 51,
                "duration": 0.2159091,
                "tempo": 120.0
            },
            {
                "start_time": 33.0295455,
                "end_time": 33.2454545,
                "pitch": 47,
                "velocity": 51,
                "duration": 0.2159091,
                "tempo": 120.0
            },
            {
                "start_time": 33.2454545,
                "end_time": 33.3659091,
                "pitch": 47,
                "velocity": 51,
                "duration": 0.1204545,
                "tempo": 120.0
            },
            {
                "start_time": 33.3659091,
                "end_time": 33.5886364,
                "pitch": 47,
                "velocity": 51,
                "duration": 0.2227273,
                "tempo": 120.0
            },
            {
                "start_time": 33.5886364,
                "end_time": 33.7045455,
                "pitch": 47,
                "velocity": 51,
                "duration": 0.1159091,
                "tempo": 120.0
            },
            {
                "start_time": 33.7045455,
                "end_time": 33.9227273,
                "pitch": 47,
                "velocity": 51,
                "duration": 0.2181818,
                "tempo": 120.0
            },
            {
                "start_time": 33.9227273,
                "end_time": 34.1568182,
                "pitch": 47,
                "velocity": 51,
                "duration": 0.2340909,
                "tempo": 120.0
            },
            {
                "start_time": 34.1568182,
                "end_time": 34.2568182,
                "pitch": 47,
                "velocity": 51,
                "duration": 0.1,
                "tempo": 120.0
            },
            {
                "start_time": 34.2568182,
                "end_time": 34.4727273,
                "pitch": 47,
                "velocity": 51,
                "duration": 0.2159091,
                "tempo": 120.0
            },
            {
                "start_time": 34.4727273,
                "end_time": 34.5886364,
                "pitch": 47,
                "velocity": 51,
                "duration": 0.1159091,
                "tempo": 120.0
            },
            {
                "start_time": 34.5886364,
                "end_time": 34.8136364,
                "pitch": 47,
                "velocity": 51,
                "duration": 0.225,
                "tempo": 120.0
            },
            {
                "start_time": 34.8136364,
                "end_time": 35.0454545,
                "pitch": 47,
                "velocity": 51,
                "duration": 0.2318182,
                "tempo": 120.0
            },
            {
                "start_time": 35.0454545,
                "end_time": 35.1431818,
                "pitch": 47,
                "velocity": 51,
                "duration": 0.0977273,
                "tempo": 120.0
            },
            {
                "start_time": 35.1431818,
                "end_time": 35.375,
                "pitch": 47,
                "velocity": 51,
                "duration": 0.2318182,
                "tempo": 120.0
            },
            {
                "start_time": 35.375,
                "end_time": 35.4795455,
                "pitch": 47,
                "velocity": 51,
                "duration": 0.1045455,
                "tempo": 120.0
            },
            {
                "start_time": 35.4795455,
                "end_time": 35.7159091,
                "pitch": 47,
                "velocity": 51,
                "duration": 0.2363636,
                "tempo": 120.0
            },
            {
                "start_time": 35.7159091,
                "end_time": 35.9340909,
                "pitch": 47,
                "velocity": 51,
                "duration": 0.2181818,
                "tempo": 120.0
            }
        ]
    }
}