{
    "mood": "angry",
    "instruments": {
        "Lead 2 (sawtooth)": [
            {
                "start_time": 0.0,
                "end_time": 0.1340909,
                "pitch": 57,
                "velocity": 127,
                "duration": 0.1340909,
                "tempo": 120.0
            },
            {
                "start_time": 0.1340909,
                "end_time": 0.2659091,
                "pitch": 64,
                "velocity": 127,
                "duration": 0.1318182,
                "tempo": 120.0
            },
            {
                "start_time": 0.2659091,
                "end_time": 0.4,
                "pitch": 66,
                "velocity": 127,
                "duration": 0.1340909,
                "tempo": 120.0
            },
            {
                "start_time": 0.4,
                "end_time": 0.5340909,
                "pitch": 67,
                "velocity": 127,
                "duration": 0.1340909,
                "tempo": 120.0
            },
            {
                "start_time": 0.5340909,
                "end_time": 0.6681818,
                "pitch": 66,
                "velocity": 127,
                "duration": 0.1340909,
                "tempo": 120.0
            },
            {
                "start_time": 0.2659091,
                "end_time": 0.8,
                "pitch": 64,
                "velocity": 127,
                "duration": 0.5340909,
                "tempo": 120.0
            },
            {
                "start_time": 0.6681818,
                "end_time": 0.8,
                "pitch": 64,
                "velocity": 127,
                "duration": 0.1318182,
                "tempo": 120.0
            },
            {
                "start_time": 0.1340909,
                "end_time": 0.9340909,
                "pitch": 59,
                "velocity": 127,
                "duration": 0.8,
                "tempo": 120.0
            },
            {
                "start_time": 0.8,
                "end_time": 0.9340909,
                "pitch": 59,
                "velocity": 127,
                "duration": 0.1340909,
                "tempo": 120.0
            },
            {
                "start_time": 0.8,
                "end_time": 1.0681818,
                "pitch": 64,
                "velocity": 127,
                "duration": 0.2681818,
                "tempo": 120.0
            },
            {
                "start_time": 0.9340909,
                "end_time": 1.0681818,
                "pitch": 64,
                "velocity": 127,
                "duration": 0.1340909,
                "tempo": 120.0
            },
            {
                "start_time": 0.6681818,
                "end_time": 1.2022727,
                "pitch": 66,
                "velocity": 127,
                "duration": 0.5340909,
                "tempo": 120.0
            },
            {
                "start_time": 1.0681818,
                "end_time": 1.2022727,
                "pitch": 66,
                "velocity": 127,
                "duration": 0.1340909,
                "tempo": 120.0
            },
            {
                "start_time": 0.4,
                "end_time": 1.2022727,
                "pitch": 78,
                "velocity": 127,
                "duration": 0.8022727,
                "tempo": 120.0
            },
            {
                "start_time": 0.5340909,
                "end_time": 1.3340909,
                "pitch": 55,
                "velocity": 127,
                "duration": 0.8,
                "tempo": 120.0
            },
            {
                "start_time": 1.2022727,
                "end_time": 1.3340909,
                "pitch": 67,
                "velocity": 127,
                "duration": 0.1318182,
                "tempo": 120.0
            },
            {
                "start_time": 1.3340909,
                "end_time": 1.4681818,
                "pitch": 66,
                "velocity": 127,
                "duration": 0.1340909,
                "tempo": 120.0
            },
            {
                "start_time": 1.0681818,
                "end_time": 1.6022727,
                "pitch": 64,
                "velocity": 127,
                "duration": 0.5340909,
                "tempo": 120.0
            },
            {
                "start_time": 1.4681818,
                "end_time": 1.6022727,
                "pitch": 64,
                "velocity": 127,
                "duration": 0.1340909,
                "tempo": 120.0
            },
            {
                "start_time": 0.9340909,
                "end_time": 1.7363636,
                "pitch": 59,
                "velocity": 127,
                "duration": 0.8022727,
                "tempo": 120.0
            },
            {
                "start_time": 1.6022727,
                "end_time": 1.7363636,
                "pitch": 59,
                "velocity": 127,
                "duration": 0.1340909,
                "tempo": 120.0
            },
            {
                "start_time": 1.6022727,
                "end_time": 1.8681818,
                "pitch": 64,
                "velocity": 127,
                "duration": 0.2659091,
                "tempo": 120.0
            },
            {
                "start_time": 1.7363636,
                "end_time": 1.8681818,
                "pitch": 64,
                "velocity": 127,
                "duration": 0.1318182,
                "tempo": 120.0
            },
            {
                "start_time": 1.4681818,
                "end_time": 2.0022727,
                "pitch": 66,
                "velocity": 127,
                "duration": 0.5340909,
                "tempo": 120.0
            },
            {
                "start_time": 1.8681818,
                "end_time": 2.0022727,
                "pitch": 66,
                "velocity": 127,
                "duration": 0.1340909,
                "tempo": 120.0
            },
            {
                "start_time": 1.2022727,
                "end_time": 2.0022727,
                "pitch": 78,
                "velocity": 127,
                "duration": 0.8,
                "tempo": 120.0
            },
            {
                "start_time": 1.3340909,
                "end_time": 2.1363636,
                "pitch": 55,
                "velocity": 127,
                "duration": 0.8022727,
                "tempo": 120.0
            },
            {
                "start_time": 2.0022727,
                "end_time": 2.1363636,
                "pitch": 67,
                "velocity": 127,
                "duration": 0.1340909,
                "tempo": 120.0
            },
            {
                "start_time": 2.1363636,
                "end_time": 2.2704545,
                "pitch": 66,
                "velocity": 127,
                "duration": 0.1340909,
                "tempo": 120.0
            },
            {
                "start_time": 1.8681818,
                "end_time": 2.4022727,
                "pitch": 64,
                "velocity": 127,
                "duration": 0.5340909,
                "tempo": 120.0
            },
            {
                "start_time": 2.2704545,
                "end_time": 2.4022727,
                "pitch": 64,
                "velocity": 127,
                "duration": 0.1318182,
                "tempo": 120.0
            },
            {
                "start_time": 1.7363636,
                "end_time": 2.5363636,
                "pitch": 59,
                "velocity": 127,
                "duration": 0.8,
                "tempo": 120.0
            },
            {
                "start_time": 2.4022727,
                "end_time": 2.5363636,
                "pitch": 59,
                "velocity": 127,
                "duration": 0.1340909,
                "tempo": 120.0
            },
            {
                "start_time": 2.4022727,
                "end_time": 2.6704545,
                "pitch": 64,
                "velocity": 127,
                "duration": 0.2681818,
                "tempo": 120.0
            },
            {
                "start_time": 2.5363636,
                "end_time": 2.6704545,
                "pitch": 64,
                "velocity": 127,
                "duration": 0.1340909,
                "tempo": 120.0
            },
            {
                "start_time": 2.2704545,
                "end_time": 2.8045455,
                "pitch": 66,
                "velocity": 127,
                "duration": 0.5340909,
                "tempo": 120.0
            },
            {
                "start_time": 2.6704545,
                "end_time": 2.8045455,
                "pitch": 66,
                "velocity": 127,
                "duration": 0.1340909,
                "tempo": 120.0
            },
            {
                "start_time": 2.0022727,
                "end_time": 2.8045455,
                "pitch": 78,
                "velocity": 127,
                "duration": 0.8022727,
                "tempo": 120.0
            },
            {
                "start_time": 2.1363636,
                "end_time": 2.9386364,
                "pitch": 55,
                "velocity": 127,
                "duration": 0.8022727,
                "tempo": 120.0
            },
            {
                "start_time": 2.8045455,
                "end_time": 2.9386364,
                "pitch": 67,
                "velocity": 127,
                "duration": 0.1340909,
                "tempo": 120.0
            },
            {
                "start_time": 2.9386364,
                "end_time": 3.0727273,
                "pitch": 66,
                "velocity": 127,
                "duration": 0.1340909,
                "tempo": 120.0
            },
            {
                "start_time": 2.6704545,
                "end_time": 3.2090909,
                "pitch": 64,
                "velocity": 127,
                "duration": 0.5386364,
                "tempo": 120.0
            },
            {
                "start_time": 3.0727273,
                "end_time": 3.2090909,
                "pitch": 64,
                "velocity": 127,
                "duration": 0.1363636,
                "tempo": 120.0
            },
            {
                "start_time": 2.5363636,
                "end_time": 3.3477273,
                "pitch": 59,
                "velocity": 127,
                "duration": 0.8113636,
                "tempo": 120.0
            },
            {
                "start_time": 3.2090909,
                "end_time": 3.3477273,
                "pitch": 59,
                "velocity": 127,
                "duration": 0.1386364,
                "tempo": 120.0
            },
            {
                "start_time": 3.2090909,
                "end_time": 3.4840909,
                "pitch": 64,
                "velocity": 127,
                "duration": 0.275,
                "tempo": 120.0
            },
            {
                "start_time": 3.3477273,
                "end_time": 3.4840909,
                "pitch": 64,
                "velocity": 127,
                "duration": 0.1363636,
                "tempo": 120.0
            },
            {
                "start_time": 3.0727273,
                "end_time": 3.6159091,
                "pitch": 66,
                "velocity": 127,
                "duration": 0.5431818,
                "tempo": 120.0
            },
            {
                "start_time": 3.4840909,
                "end_time": 3.6159091,
                "pitch": 66,
                "velocity": 127,
                "duration": 0.1318182,
                "tempo": 120.0
            },
            {
                "start_time": 2.8045455,
                "end_time": 3.6159091,
                "pitch": 78,
                "velocity": 127,
                "duration": 0.8113636,
                "tempo": 120.0
            },
            {
                "start_time": 2.9386364,
                "end_time": 3.7454545,
                "pitch": 55,
                "velocity": 127,
                "duration": 0.8068182,
                "tempo": 120.0
            },
            {
                "start_time": 3.6159091,
                "end_time": 3.7454545,
                "pitch": 67,
                "velocity": 127,
                "duration": 0.1295455,
                "tempo": 120.0
            },
            {
                "start_time": 3.7454545,
                "end_time": 3.8772727,
                "pitch": 66,
                "velocity": 127,
                "duration": 0.1318182,
                "tempo": 120.0
            },
            {
                "start_time": 3.4840909,
                "end_time": 4.0136364,
                "pitch": 64,
                "velocity": 127,
                "duration": 0.5295455,
                "tempo": 120.0
            },
            {
                "start_time": 3.8772727,
                "end_time": 4.0136364,
                "pitch": 64,
                "velocity": 127,
                "duration": 0.1363636,
                "tempo": 120.0
            },
            {
                "start_time": 3.3477273,
                "end_time": 4.15,
                "pitch": 59,
                "velocity": 127,
                "duration": 0.8022727,
                "tempo": 120.0
            },
            {
                "start_time": 4.0136364,
                "end_time": 4.15,
                "pitch": 59,
                "velocity": 127,
                "duration": 0.1363636,
                "tempo": 120.0
            },
            {
                "start_time": 4.0136364,
                "end_time": 4.2886364,
                "pitch": 64,
                "velocity": 127,
                "duration": 0.275,
                "tempo": 120.0
            },
            {
                "start_time": 4.15,
                "end_time": 4.2886364,
                "pitch": 64,
                "velocity": 127,
                "duration": 0.1386364,
                "tempo": 120.0
            },
            {
                "start_time": 3.8772727,
                "end_time": 4.4227273,
                "pitch": 66,
                "velocity": 127,
                "duration": 0.5454545,
                "tempo": 120.0
            },
            {
                "start_time": 4.2886364,
                "end_time": 4.4227273,
                "pitch": 66,
                "velocity": 127,
                "duration": 0.1340909,
                "tempo": 120.0
            },
            {
                "start_time": 3.6159091,
                "end_time": 4.4227273,
                "pitch": 78,
                "velocity": 127,
                "duration": 0.8068182,
                "tempo": 120.0
            },
            {
                "start_time": 3.7454545,
                "end_time": 4.5545455,
                "pitch": 55,
                "velocity": 127,
                "duration": 0.8090909,
                "tempo": 120.0
            },
            {
                "start_time": 4.4227273,
                "end_time": 4.5545455,
                "pitch": 67,
                "velocity": 127,
                "duration": 0.1318182,
                "tempo": 120.0
            },
            {
                "start_time": 4.5545455,
                "end_time": 4.6886364,
                "pitch": 66,
                "velocity": 127,
                "duration": 0.1340909,
                "tempo": 120.0
            },
            {
                "start_time": 4.2886364,
                "end_time": 4.8227273,
                "pitch": 64,
                "velocity": 127,
                "duration": 0.5340909,
                "tempo": 120.0
            },
            {
                "start_time": 4.6886364,
                "end_time": 4.8227273,
                "pitch": 64,
                "velocity": 127,
                "duration": 0.1340909,
                "tempo": 120.0
            },
            {
                "start_time": 4.15,
                "end_time": 4.9568182,
                "pitch": 59,
                "velocity": 127,
                "duration": 0.8068182,
                "tempo": 120.0
            },
            {
                "start_time": 4.8227273,
                "end_time": 4.9568182,
                "pitch": 59,
                "velocity": 127,
                "duration": 0.1340909,
                "tempo": 120.0
            },
            {
                "start_time": 4.8227273,
                "end_time": 5.0909091,
                "pitch": 64,
                "velocity": 127,
                "duration": 0.2681818,
                "tempo": 120.0
            },
            {
                "start_time": 4.9568182,
                "end_time": 5.0909091,
                "pitch": 64,
                "velocity": 127,
                "duration": 0.1340909,
                "tempo": 120.0
            },
            {
                "start_time": 4.6886364,
                "end_time": 5.225,
                "pitch": 66,
                "velocity": 127,
                "duration": 0.5363636,
                "tempo": 120.0
            },
            {
                "start_time": 5.0909091,
                "end_time": 5.225,
                "pitch": 66,
                "velocity": 127,
                "duration": 0.1340909,
                "tempo": 120.0
            },
            {
                "start_time": 4.4227273,
                "end_time": 5.225,
                "pitch": 78,
                "velocity": 127,
                "duration": 0.8022727,
                "tempo": 120.0
            },
            {
                "start_time": 4.5545455,
                "end_time": 5.3590909,
                "pitch": 55,
                "velocity": 127,
                "duration": 0.8045455,
                "tempo": 120.0
            },
            {
                "start_time": 5.225,
                "end_time": 5.3590909,
                "pitch": 67,
                "velocity": 127,
                "duration": 0.1340909,
                "tempo": 120.0
            },
            {
                "start_time": 5.3590909,
                "end_time": 5.4931818,
                "pitch": 66,
                "velocity": 127,
                "duration": 0.1340909,
                "tempo": 120.0
            },
            {
                "start_time": 5.0909091,
                "end_time": 5.6272727,
                "pitch": 64,
                "velocity": 127,
                "duration": 0.5363636,
                "tempo": 120.0
            },
            {
                "start_time": 5.4931818,
                "end_time": 5.6272727,
                "pitch": 64,
                "velocity": 127,
                "duration": 0.1340909,
                "tempo": 120.0
            },
            {
                "start_time": 4.9568182,
                "end_time": 5.7613636,
                "pitch": 59,
                "velocity": 127,
                "duration": 0.8045455,
                "tempo": 120.0
            },
            {
                "start_time": 5.6272727,
                "end_time": 5.7613636,
                "pitch": 59,
                "velocity": 127,
                "duration": 0.1340909,
                "tempo": 120.0
            },
            {
                "start_time": 5.6272727,
                "end_time": 5.8954545,
                "pitch": 64,
                "velocity": 127,
                "duration": 0.2681818,
                "tempo": 120.0
            },
            {
                "start_time": 5.7613636,
                "end_time": 5.8954545,
                "pitch": 64,
                "velocity": 127,
                "duration": 0.1340909,
                "tempo": 120.0
            },
            {
                "start_time": 5.4931818,
                "end_time": 6.0295455,
                "pitch": 66,
                "velocity": 127,
                "duration": 0.5363636,
                "tempo": 120.0
            },
            {
                "start_time": 5.8954545,
                "end_time": 6.0295455,
                "pitch": 66,
                "velocity": 127,
                "duration": 0.1340909,
                "tempo": 120.0
            },
            {
                "start_time": 5.225,
                "end_time": 6.0295455,
                "pitch": 78,
                "velocity": 127,
                "duration": 0.8045455,
                "tempo": 120.0
            },
            {
                "start_time": 5.3590909,
                "end_time": 6.1636364,
                "pitch": 55,
                "velocity": 127,
                "duration": 0.8045455,
                "tempo": 120.0
            },
            {
                "start_time": 6.0295455,
                "end_time": 6.1636364,
                "pitch": 67,
                "velocity": 127,
                "duration": 0.1340909,
                "tempo": 120.0
            },
            {
                "start_time": 6.1636364,
                "end_time": 6.2954545,
                "pitch": 66,
                "velocity": 127,
                "duration": 0.1318182,
                "tempo": 120.0
            },
            {
                "start_time": 5.8954545,
                "end_time": 6.4318182,
                "pitch": 64,
                "velocity": 127,
                "duration": 0.5363636,
                "tempo": 120.0
            },
            {
                "start_time": 6.2954545,
                "end_time": 6.4318182,
                "pitch": 64,
                "velocity": 127,
                "duration": 0.1363636,
                "tempo": 120.0
            },
            {
                "start_time": 6.4318182,
                "end_time": 6.5659091,
                "pitch": 57,
                "velocity": 127,
                "duration": 0.1340909,
                "tempo": 120.0
            },
            {
                "start_time": 6.5659091,
                "end_time": 6.7,
                "pitch": 62,
                "velocity": 127,
                "duration": 0.1340909,
                "tempo": 120.0
            },
            {
                "start_time": 6.4318182,
                "end_time": 6.8340909,
                "pitch": 64,
                "velocity": 127,
                "duration": 0.4022727,
                "tempo": 120.0
            },
            {
                "start_time": 6.7,
                "end_time": 6.8340909,
                "pitch": 64,
                "velocity": 127,
                "duration": 0.1340909,
                "tempo": 120.0
            },
            {
                "start_time": 6.8340909,
                "end_time": 6.9681818,
                "pitch": 64,
                "velocity": 127,
                "duration": 0.1340909,
                "tempo": 120.0
            },
            {
                "start_time": 6.9681818,
                "end_time": 7.1022727,
                "pitch": 65,
                "velocity": 127,
                "duration": 0.1340909,
                "tempo": 120.0
            },
            {
                "start_time": 6.7,
                "end_time": 7.2363636,
                "pitch": 62,
                "velocity": 127,
                "duration": 0.5363636,
                "tempo": 120.0
            },
            {
                "start_time": 7.1022727,
                "end_time": 7.2363636,
                "pitch": 62,
                "velocity": 127,
                "duration": 0.1340909,
                "tempo": 120.0
            },
            {
                "start_time": 6.5659091,
                "end_time": 7.3704545,
                "pitch": 57,
                "velocity": 127,
                "duration": 0.8045455,
                "tempo": 120.0
            },
            {
                "start_time": 7.2363636,
                "end_time": 7.3704545,
                "pitch": 57,
                "velocity": 127,
                "duration": 0.1340909,
                "tempo": 120.0
            },
            {
                "start_time": 7.2363636,
                "end_time": 7.5022727,
                "pitch": 62,
                "velocity": 127,
                "duration": 0.2659091,
                "tempo": 120.0
            },
            {
                "start_time": 7.3704545,
                "end_time": 7.5022727,
                "pitch": 62,
                "velocity": 127,
                "duration": 0.1318182,
                "tempo": 120.0
            },
            {
                "start_time": 7.1022727,
                "end_time": 7.6363636,
                "pitch": 64,
                "velocity": 127,
                "duration": 0.5340909,
                "tempo": 120.0
            },
            {
                "start_time": 7.5022727,
                "end_time": 7.6363636,
                "pitch": 64,
                "velocity": 127,
                "duration": 0.1340909,
                "tempo": 120.0
            },
            {
                "start_time": 7.6363636,
                "end_time": 7.7727273,
                "pitch": 64,
                "velocity": 127,
                "duration": 0.1363636,
                "tempo": 120.0
            },
            {
                "start_time": 7.7727273,
                "end_time": 7.9068182,
                "pitch": 65,
                "velocity": 127,
                "duration": 0.1340909,
                "tempo": 120.0
            },
            {
                "start_time": 7.5022727,
                "end_time": 8.0409091,
                "pitch": 62,
                "velocity": 127,
                "duration": 0.5386364,
                "tempo": 120.0
            },
            {
                "start_time": 7.9068182,
                "end_time": 8.0409091,
                "pitch": 62,
                "velocity": 127,
                "duration": 0.1340909,
                "tempo": 120.0
            },
            {
                "start_time": 7.3704545,
                "end_time": 8.1727273,
                "pitch": 57,
                "velocity": 127,
                "duration": 0.8022727,
                "tempo": 120.0
            },
            {
                "start_time": 8.0409091,
                "end_time": 8.1727273,
                "pitch": 57,
                "velocity": 127,
                "duration": 0.1318182,
                "tempo": 120.0
            },
            {
                "start_time": 8.0409091,
                "end_time": 8.3068182,
                "pitch": 62,
                "velocity": 127,
                "duration": 0.2659091,
                "tempo": 120.0
            },
            {
                "start_time": 8.1727273,
                "end_time": 8.3068182,
                "pitch": 62,
                "velocity": 127,
                "duration": 0.1340909,
                "tempo": 120.0
            },
            {
                "start_time": 7.9068182,
                "end_time": 8.4409091,
                "pitch": 64,
                "velocity": 127,
                "duration": 0.5340909,
                "tempo": 120.0
            },
            {
                "start_time": 8.3068182,
                "end_time": 8.4409091,
                "pitch": 64,
                "velocity": 127,
                "duration": 0.1340909,
                "tempo": 120.0
            },
            {
                "start_time": 8.4409091,
                "end_time": 8.575,
                "pitch": 64,
                "velocity": 127,
                "duration": 0.1340909,
                "tempo": 120.0
            },
            {
                "start_time": 8.575,
                "end_time": 8.7068182,
                "pitch": 65,
                "velocity": 127,
                "duration": 0.1318182,
                "tempo": 120.0
            },
            {
                "start_time": 8.3068182,
                "end_time": 8.8409091,
                "pitch": 62,
                "velocity": 127,
                "duration": 0.5340909,
                "tempo": 120.0
            },
            {
                "start_time": 8.7068182,
                "end_time": 8.8409091,
                "pitch": 62,
                "velocity": 127,
                "duration": 0.1340909,
                "tempo": 120.0
            },
            {
                "start_time": 8.1727273,
                "end_time": 8.975,
                "pitch": 57,
                "velocity": 127,
                "duration": 0.8022727,
                "tempo": 120.0
            },
            {
                "start_time": 8.8409091,
                "end_time": 8.975,
                "pitch": 57,
                "velocity": 127,
                "duration": 0.1340909,
                "tempo": 120.0
            },
            {
                "start_time": 8.975,
                "end_time": 8.9772727,
                "pitch": 57,
                "velocity": 127,
                "duration": 0.0022727,
                "tempo": 120.0
            },
            {
                "start_time": 8.8409091,
                "end_time": 9.1113636,
                "pitch": 62,
                "velocity": 127,
                "duration": 0.2704545,
                "tempo": 120.0
            },
            {
                "start_time": 8.9772727,
                "end_time": 9.1113636,
                "pitch": 62,
                "velocity": 127,
                "duration": 0.1340909,
                "tempo": 120.0
            },
            {
                "start_time": 8.7068182,
                "end_time": 9.2454545,
                "pitch": 64,
                "velocity": 127,
                "duration": 0.5386364,
                "tempo": 120.0
            },
            {
                "start_time": 9.1113636,
                "end_time": 9.2454545,
                "pitch": 64,
                "velocity": 127,
                "duration": 0.1340909,
                "tempo": 120.0
            },
            {
                "start_time": 9.2454545,
                "end_time": 9.3795455,
                "pitch": 64,
                "velocity": 127,
                "duration": 0.1340909,
                "tempo": 120.0
            },
            {
                "start_time": 9.3795455,
                "end_time": 9.5136364,
                "pitch": 65,
                "velocity": 127,
                "duration": 0.1340909,
                "tempo": 120.0
            },
            {
                "start_time": 9.1113636,
                "end_time": 9.65,
                "pitch": 62,
                "velocity": 127,
                "duration": 0.5386364,
                "tempo": 120.0
            },
            {
                "start_time": 9.5136364,
                "end_time": 9.65,
                "pitch": 62,
                "velocity": 127,
                "duration": 0.1363636,
                "tempo": 120.0
            },
            {
                "start_time": 9.65,
                "end_time": 9.7886364,
                "pitch": 57,
                "velocity": 127,
                "duration": 0.1386364,
                "tempo": 120.0
            },
            {
                "start_time": 9.65,
                "end_time": 9.925,
                "pitch": 62,
                "velocity": 127,
                "duration": 0.275,
                "tempo": 120.0
            },
            {
                "start_time": 9.7886364,
                "end_time": 9.925,
                "pitch": 62,
                "velocity": 127,
                "duration": 0.1363636,
                "tempo": 120.0
            },
            {
                "start_time": 9.5136364,
                "end_time": 10.0568182,
                "pitch": 64,
                "velocity": 127,
                "duration": 0.5431818,
                "tempo": 120.0
            },
            {
                "start_time": 9.925,
                "end_time": 10.0568182,
                "pitch": 64,
                "velocity": 127,
                "duration": 0.1318182,
                "tempo": 120.0
            },
            {
                "start_time": 10.0568182,
                "end_time": 10.1863636,
                "pitch": 64,
                "velocity": 127,
                "duration": 0.1295455,
                "tempo": 120.0
            },
            {
                "start_time": 10.1863636,
                "end_time": 10.3181818,
                "pitch": 65,
                "velocity": 127,
                "duration": 0.1318182,
                "tempo": 120.0
            },
            {
                "start_time": 9.925,
                "end_time": 10.4522727,
                "pitch": 62,
                "velocity": 127,
                "duration": 0.5272727,
                "tempo": 120.0
            },
            {
                "start_time": 10.3181818,
                "end_time": 10.4522727,
                "pitch": 62,
                "velocity": 127,
                "duration": 0.1340909,
                "tempo": 120.0
            },
            {
                "start_time": 9.7886364,
                "end_time": 10.5840909,
                "pitch": 57,
                "velocity": 127,
                "duration": 0.7954545,
                "tempo": 120.0
            },
            {
                "start_time": 10.4522727,
                "end_time": 10.5840909,
                "pitch": 57,
                "velocity": 127,
                "duration": 0.1318182,
                "tempo": 120.0
            },
            {
                "start_time": 10.4522727,
                "end_time": 10.7181818,
                "pitch": 62,
                "velocity": 127,
                "duration": 0.2659091,
                "tempo": 120.0
            },
            {
                "start_time": 10.5840909,
                "end_time": 10.7181818,
                "pitch": 62,
                "velocity": 127,
                "duration": 0.1340909,
                "tempo": 120.0
            },
            {
                "start_time": 10.3181818,
                "end_time": 10.8522727,
                "pitch": 64,
                "velocity": 127,
                "duration": 0.5340909,
                "tempo": 120.0
            },
            {
                "start_time": 10.7181818,
                "end_time": 10.8522727,
                "pitch": 64,
                "velocity": 127,
                "duration": 0.1340909,
                "tempo": 120.0
            },
            {
                "start_time": 10.8522727,
                "end_time": 10.9863636,
                "pitch": 64,
                "velocity": 127,
                "duration": 0.1340909,
                "tempo": 120.0
            },
            {
                "start_time": 10.9863636,
                "end_time": 11.1204545,
                "pitch": 65,
                "velocity": 127,
                "duration": 0.1340909,
                "tempo": 120.0
            },
            {
                "start_time": 10.7181818,
                "end_time": 11.2590909,
                "pitch": 62,
                "velocity": 127,
                "duration": 0.5409091,
                "tempo": 120.0
            },
            {
                "start_time": 11.1204545,
                "end_time": 11.2590909,
                "pitch": 62,
                "velocity": 127,
                "duration": 0.1386364,
                "tempo": 120.0
            },
            {
                "start_time": 10.5840909,
                "end_time": 11.3954545,
                "pitch": 57,
                "velocity": 127,
                "duration": 0.8113636,
                "tempo": 120.0
            },
            {
                "start_time": 11.2590909,
                "end_time": 11.3954545,
                "pitch": 57,
                "velocity": 127,
                "duration": 0.1363636,
                "tempo": 120.0
            },
            {
                "start_time": 11.2590909,
                "end_time": 11.5318182,
                "pitch": 62,
                "velocity": 127,
                "duration": 0.2727273,
                "tempo": 120.0
            },
            {
                "start_time": 11.3954545,
                "end_time": 11.5318182,
                "pitch": 62,
                "velocity": 127,
                "duration": 0.1363636,
                "tempo": 120.0
            },
            {
                "start_time": 11.1204545,
                "end_time": 11.6636364,
                "pitch": 64,
                "velocity": 127,
                "duration": 0.5431818,
                "tempo": 120.0
            },
            {
                "start_time": 11.5318182,
                "end_time": 11.6636364,
                "pitch": 64,
                "velocity": 127,
                "duration": 0.1318182,
                "tempo": 120.0
            },
            {
                "start_time": 11.6636364,
                "end_time": 11.7954545,
                "pitch": 64,
                "velocity": 127,
                "duration": 0.1318182,
                "tempo": 120.0
            },
            {
                "start_time": 11.7954545,
                "end_time": 11.925,
                "pitch": 65,
                "velocity": 127,
                "duration": 0.1295455,
                "tempo": 120.0
            },
            {
                "start_time": 11.5318182,
                "end_time": 12.0590909,
                "pitch": 62,
                "velocity": 127,
                "duration": 0.5272727,
                "tempo": 120.0
            },
            {
                "start_time": 11.925,
                "end_time": 12.0590909,
                "pitch": 62,
                "velocity": 127,
                "duration": 0.1340909,
                "tempo": 120.0
            },
            {
                "start_time": 11.3954545,
                "end_time": 12.1931818,
                "pitch": 57,
                "velocity": 127,
                "duration": 0.7977273,
                "tempo": 120.0
            },
            {
                "start_time": 12.0590909,
                "end_time": 12.1931818,
                "pitch": 57,
                "velocity": 127,
                "duration": 0.1340909,
                "tempo": 120.0
            },
            {
                "start_time": 12.0590909,
                "end_time": 12.3295455,
                "pitch": 62,
                "velocity": 127,
                "duration": 0.2704545,
                "tempo": 120.0
            },
            {
                "start_time": 12.1931818,
                "end_time": 12.3295455,
                "pitch": 62,
                "velocity": 127,
                "duration": 0.1363636,
                "tempo": 120.0
            },
            {
                "start_time": 11.925,
                "end_time": 12.4659091,
                "pitch": 64,
                "velocity": 127,
                "duration": 0.5409091,
                "tempo": 120.0
            },
            {
                "start_time": 12.3295455,
                "end_time": 12.4659091,
                "pitch": 64,
                "velocity": 127,
                "duration": 0.1363636,
                "tempo": 120.0
            },
            {
                "start_time": 12.4659091,
                "end_time": 12.6022727,
                "pitch": 64,
                "velocity": 127,
                "duration": 0.1363636,
                "tempo": 120.0
            },
            {
                "start_time": 12.6022727,
                "end_time": 12.7386364,
                "pitch": 65,
                "velocity": 127,
                "duration": 0.1363636,
                "tempo": 120.0
            },
            {
                "start_time": 12.3295455,
                "end_time": 12.875,
                "pitch": 62,
                "velocity": 127,
                "duration": 0.5454545,
                "tempo": 120.0
            },
            {
                "start_time": 12.7386364,
                "end_time": 12.875,
                "pitch": 62,
                "velocity": 127,
                "duration": 0.1363636,
                "tempo": 120.0
            },
            {
                "start_time": 5.7613636,
                "end_time": 13.0068182,
                "pitch": 59,
                "velocity": 127,
                "duration": 7.2454545,
                "tempo": 120.0
            },
            {
                "start_time": 12.875,
                "end_time": 13.0068182,
                "pitch": 59,
                "velocity": 127,
                "duration": 0.1318182,
                "tempo": 120.0
            },
            {
                "start_time": 12.7386364,
                "end_time": 13.0568182,
                "pitch": 64,
                "velocity": 127,
                "duration": 0.3181818,
                "tempo": 120.0
            },
            {
                "start_time": 13.0068182,
                "end_time": 13.0568182,
                "pitch": 64,
                "velocity": 127,
                "duration": 0.05,
                "tempo": 120.0
            }
        ],
        "Acoustic Bass": [
            {
                "start_time": 0.0,
                "end_time": 0.1340909,
                "pitch": 40,
                "velocity": 127,
                "duration": 0.1340909,
                "tempo": 120.0
            },
            {
                "start_time": 0.1340909,
                "end_time": 0.2659091,
                "pitch": 64,
                "velocity": 127,
                "duration": 0.1318182,
                "tempo": 120.0
            },
            {
                "start_time": 0.2659091,
                "end_time": 0.4,
                "pitch": 40,
                "velocity": 127,
                "duration": 0.1340909,
                "tempo": 120.0
            },
            {
                "start_time": 0.4,
                "end_time": 0.5340909,
                "pitch": 40,
                "velocity": 127,
                "duration": 0.1340909,
                "tempo": 120.0
            },
            {
                "start_time": 0.5340909,
                "end_time": 0.6681818,
                "pitch": 52,
                "velocity": 127,
                "duration": 0.1340909,
                "tempo": 120.0
            },
            {
                "start_time": 0.6681818,
                "end_time": 0.8,
                "pitch": 40,
                "velocity": 127,
                "duration": 0.1318182,
                "tempo": 120.0
            },
            {
                "start_time": 0.8,
                "end_time": 0.9340909,
                "pitch": 40,
                "velocity": 127,
                "duration": 0.1340909,
                "tempo": 120.0
            },
            {
                "start_time": 0.9340909,
                "end_time": 1.0681818,
                "pitch": 52,
                "velocity": 127,
                "duration": 0.1340909,
                "tempo": 120.0
            },
            {
                "start_time": 1.0681818,
                "end_time": 1.2022727,
                "pitch": 40,
                "velocity": 127,
                "duration": 0.1340909,
                "tempo": 120.0
            },
            {
                "start_time": 1.2022727,
                "end_time": 1.3340909,
                "pitch": 40,
                "velocity": 127,
                "duration": 0.1318182,
                "tempo": 120.0
            },
            {
                "start_time": 1.3340909,
                "end_time": 1.4681818,
                "pitch": 52,
                "velocity": 127,
                "duration": 0.1340909,
                "tempo": 120.0
            },
            {
                "start_time": 1.4681818,
                "end_time": 1.6022727,
                "pitch": 40,
                "velocity": 127,
                "duration": 0.1340909,
                "tempo": 120.0
            },
            {
                "start_time": 1.6022727,
                "end_time": 1.7363636,
                "pitch": 40,
                "velocity": 127,
                "duration": 0.1340909,
                "tempo": 120.0
            },
            {
                "start_time": 1.7363636,
                "end_time": 1.8681818,
                "pitch": 64,
                "velocity": 127,
                "duration": 0.1318182,
                "tempo": 120.0
            },
            {
                "start_time": 1.8681818,
                "end_time": 2.0022727,
                "pitch": 40,
                "velocity": 127,
                "duration": 0.1340909,
                "tempo": 120.0
            },
            {
                "start_time": 2.0022727,
                "end_time": 2.1363636,
                "pitch": 40,
                "velocity": 127,
                "duration": 0.1340909,
                "tempo": 120.0
            },
            {
                "start_time": 2.1363636,
                "end_time": 2.2704545,
                "pitch": 52,
                "velocity": 127,
                "duration": 0.1340909,
                "tempo": 120.0
            },
            {
                "start_time": 2.2704545,
                "end_time": 2.4022727,
                "pitch": 40,
                "velocity": 127,
                "duration": 0.1318182,
                "tempo": 120.0
            },
            {
                "start_time": 2.4022727,
                "end_time": 2.5363636,
                "pitch": 40,
                "velocity": 127,
                "duration": 0.1340909,
                "tempo": 120.0
            },
            {
                "start_time": 2.5363636,
                "end_time": 2.6704545,
                "pitch": 52,
                "velocity": 127,
                "duration": 0.1340909,
                "tempo": 120.0
            },
            {
                "start_time": 2.6704545,
                "end_time": 2.8045455,
                "pitch": 40,
                "velocity": 127,
                "duration": 0.1340909,
                "tempo": 120.0
            },
            {
                "start_time": 2.8045455,
                "end_time": 2.9386364,
                "pitch": 40,
                "velocity": 127,
                "duration": 0.1340909,
                "tempo": 120.0
            },
            {
                "start_time": 2.9386364,
                "end_time": 3.0727273,
                "pitch": 52,
                "velocity": 127,
                "duration": 0.1340909,
                "tempo": 120.0
            },
            {
                "start_time": 3.0727273,
                "end_time": 3.2113636,
                "pitch": 40,
                "velocity": 127,
                "duration": 0.1386364,
                "tempo": 120.0
            },
            {
                "start_time": 3.2113636,
                "end_time": 3.3477273,
                "pitch": 40,
                "velocity": 127,
                "duration": 0.1363636,
                "tempo": 120.0
            },
            {
                "start_time": 3.3477273,
                "end_time": 3.4840909,
                "pitch": 64,
                "velocity": 127,
                "duration": 0.1363636,
                "tempo": 120.0
            },
            {
                "start_time": 3.4840909,
                "end_time": 3.6159091,
                "pitch": 40,
                "velocity": 127,
                "duration": 0.1318182,
                "tempo": 120.0
            },
            {
                "start_time": 3.6159091,
                "end_time": 3.7454545,
                "pitch": 40,
                "velocity": 127,
                "duration": 0.1295455,
                "tempo": 120.0
            },
            {
                "start_time": 3.7454545,
                "end_time": 3.8772727,
                "pitch": 52,
                "velocity": 127,
                "duration": 0.1318182,
                "tempo": 120.0
            },
            {
                "start_time": 3.8772727,
                "end_time": 4.0136364,
                "pitch": 40,
                "velocity": 127,
                "duration": 0.1363636,
                "tempo": 120.0
            },
            {
                "start_time": 4.0136364,
                "end_time": 4.15,
                "pitch": 40,
                "velocity": 127,
                "duration": 0.1363636,
                "tempo": 120.0
            },
            {
                "start_time": 4.15,
                "end_time": 4.2886364,
                "pitch": 52,
                "velocity": 127,
                "duration": 0.1386364,
                "tempo": 120.0
            },
            {
                "start_time": 4.2886364,
                "end_time": 4.4227273,
                "pitch": 40,
                "velocity": 127,
                "duration": 0.1340909,
                "tempo": 120.0
            },
            {
                "start_time": 4.4227273,
                "end_time": 4.5545455,
                "pitch": 40,
                "velocity": 127,
                "duration": 0.1318182,
                "tempo": 120.0
            },
            {
                "start_time": 4.5545455,
                "end_time": 4.6886364,
                "pitch": 52,
                "velocity": 127,
                "duration": 0.1340909,
                "tempo": 120.0
            },
            {
                "start_time": 4.6886364,
                "end_time": 4.8227273,
                "pitch": 40,
                "velocity": 127,
                "duration": 0.1340909,
                "tempo": 120.0
            },
            {
                "start_time": 4.8227273,
                "end_time": 4.9568182,
                "pitch": 40,
                "velocity": 127,
                "duration": 0.1340909,
                "tempo": 120.0
            },
            {
                "start_time": 4.9568182,
                "end_time": 5.0909091,
                "pitch": 64,
                "velocity": 127,
                "duration": 0.1340909,
                "tempo": 120.0
            },
            {
                "start_time": 5.0931818,
                "end_time": 5.225,
                "pitch": 40,
                "velocity": 127,
                "duration": 0.1318182,
                "tempo": 120.0
            },
            {
                "start_time": 5.225,
                "end_time": 5.3590909,
                "pitch": 40,
                "velocity": 127,
                "duration": 0.1340909,
                "tempo": 120.0
            },
            {
                "start_time": 5.3590909,
                "end_time": 5.4931818,
                "pitch": 52,
                "velocity": 127,
                "duration": 0.1340909,
                "tempo": 120.0
            },
            {
                "start_time": 5.4931818,
                "end_time": 5.6272727,
                "pitch": 40,
                "velocity": 127,
                "duration": 0.1340909,
                "tempo": 120.0
            },
            {
                "start_time": 5.6272727,
                "end_time": 5.7613636,
                "pitch": 40,
                "velocity": 127,
                "duration": 0.1340909,
                "tempo": 120.0
            },
            {
                "start_time": 5.7613636,
                "end_time": 5.8954545,
                "pitch": 52,
                "velocity": 127,
                "duration": 0.1340909,
                "tempo": 120.0
            },
            {
                "start_time": 5.8954545,
                "end_time": 6.0295455,
                "pitch": 40,
                "velocity": 127,
                "duration": 0.1340909,
                "tempo": 120.0
            },
            {
                "start_time": 6.0295455,
                "end_time": 6.1636364,
                "pitch": 40,
                "velocity": 127,
                "duration": 0.1340909,
                "tempo": 120.0
            },
            {
                "start_time": 6.1636364,
                "end_time": 6.2954545,
                "pitch": 52,
                "velocity": 127,
                "duration": 0.1318182,
                "tempo": 120.0
            },
            {
                "start_time": 6.2954545,
                "end_time": 6.4318182,
                "pitch": 40,
                "velocity": 127,
                "duration": 0.1363636,
                "tempo": 120.0
            },
            {
                "start_time": 6.4318182,
                "end_time": 6.5659091,
                "pitch": 38,
                "velocity": 127,
                "duration": 0.1340909,
                "tempo": 120.0
            },
            {
                "start_time": 6.5659091,
                "end_time": 6.7,
                "pitch": 62,
                "velocity": 127,
                "duration": 0.1340909,
                "tempo": 120.0
            },
            {
                "start_time": 6.7,
                "end_time": 6.8340909,
                "pitch": 38,
                "velocity": 127,
                "duration": 0.1340909,
                "tempo": 120.0
            },
            {
                "start_time": 6.8340909,
                "end_time": 6.9681818,
                "pitch": 38,
                "velocity": 127,
                "duration": 0.1340909,
                "tempo": 120.0
            },
            {
                "start_time": 6.9681818,
                "end_time": 7.1022727,
                "pitch": 50,
                "velocity": 127,
                "duration": 0.1340909,
                "tempo": 120.0
            },
            {
                "start_time": 7.1022727,
                "end_time": 7.2363636,
                "pitch": 38,
                "velocity": 127,
                "duration": 0.1340909,
                "tempo": 120.0
            },
            {
                "start_time": 7.2363636,
                "end_time": 7.3704545,
                "pitch": 38,
                "velocity": 127,
                "duration": 0.1340909,
                "tempo": 120.0
            },
            {
                "start_time": 7.3704545,
                "end_time": 7.5022727,
                "pitch": 50,
                "velocity": 127,
                "duration": 0.1318182,
                "tempo": 120.0
            },
            {
                "start_time": 7.5022727,
                "end_time": 7.6386364,
                "pitch": 38,
                "velocity": 127,
                "duration": 0.1363636,
                "tempo": 120.0
            },
            {
                "start_time": 7.6386364,
                "end_time": 7.7727273,
                "pitch": 38,
                "velocity": 127,
                "duration": 0.1340909,
                "tempo": 120.0
            },
            {
                "start_time": 7.7727273,
                "end_time": 7.9068182,
                "pitch": 50,
                "velocity": 127,
                "duration": 0.1340909,
                "tempo": 120.0
            },
            {
                "start_time": 7.9068182,
                "end_time": 8.0409091,
                "pitch": 38,
                "velocity": 127,
                "duration": 0.1340909,
                "tempo": 120.0
            },
            {
                "start_time": 8.0409091,
                "end_time": 8.1727273,
                "pitch": 38,
                "velocity": 127,
                "duration": 0.1318182,
                "tempo": 120.0
            },
            {
                "start_time": 8.1727273,
                "end_time": 8.3068182,
                "pitch": 62,
                "velocity": 127,
                "duration": 0.1340909,
                "tempo": 120.0
            },
            {
                "start_time": 8.3068182,
                "end_time": 8.4409091,
                "pitch": 38,
                "velocity": 127,
                "duration": 0.1340909,
                "tempo": 120.0
            },
            {
                "start_time": 8.4409091,
                "end_time": 8.575,
                "pitch": 38,
                "velocity": 127,
                "duration": 0.1340909,
                "tempo": 120.0
            },
            {
                "start_time": 8.575,
                "end_time": 8.7068182,
                "pitch": 50,
                "velocity": 127,
                "duration": 0.1318182,
                "tempo": 120.0
            },
            {
                "start_time": 8.7068182,
                "end_time": 8.8409091,
                "pitch": 38,
                "velocity": 127,
                "duration": 0.1340909,
                "tempo": 120.0
            },
            {
                "start_time": 8.8409091,
                "end_time": 8.9772727,
                "pitch": 38,
                "velocity": 127,
                "duration": 0.1363636,
                "tempo": 120.0
            },
            {
                "start_time": 8.9772727,
                "end_time": 9.1113636,
                "pitch": 50,
                "velocity": 127,
                "duration": 0.1340909,
                "tempo": 120.0
            },
            {
                "start_time": 9.1113636,
                "end_time": 9.2454545,
                "pitch": 38,
                "velocity": 127,
                "duration": 0.1340909,
                "tempo": 120.0
            },
            {
                "start_time": 9.2454545,
                "end_time": 9.3795455,
                "pitch": 38,
                "velocity": 127,
                "duration": 0.1340909,
                "tempo": 120.0
            },
            {
                "start_time": 9.3795455,
                "end_time": 9.5136364,
                "pitch": 50,
                "velocity": 127,
                "duration": 0.1340909,
                "tempo": 120.0
            },
            {
                "start_time": 9.5136364,
                "end_time": 9.65,
                "pitch": 38,
                "velocity": 127,
                "duration": 0.1363636,
                "tempo": 120.0
            },
            {
                "start_time": 9.65,
                "end_time": 9.7886364,
                "pitch": 38,
                "velocity": 127,
                "duration": 0.1386364,
                "tempo": 120.0
            },
            {
                "start_time": 9.7886364,
                "end_time": 9.925,
                "pitch": 62,
                "velocity": 127,
                "duration": 0.1363636,
                "tempo": 120.0
            },
            {
                "start_time": 9.925,
                "end_time": 10.0568182,
                "pitch": 38,
                "velocity": 127,
                "duration": 0.1318182,
                "tempo": 120.0
            },
            {
                "start_time": 10.0568182,
                "end_time": 10.1863636,
                "pitch": 38,
                "velocity": 127,
                "duration": 0.1295455,
                "tempo": 120.0
            },
            {
                "start_time": 10.1863636,
                "end_time": 10.3181818,
                "pitch": 50,
                "velocity": 127,
                "duration": 0.1318182,
                "tempo": 120.0
            },
            {
                "start_time": 10.3181818,
                "end_time": 10.4522727,
                "pitch": 38,
                "velocity": 127,
                "duration": 0.1340909,
                "tempo": 120.0
            },
            {
                "start_time": 10.4522727,
                "end_time": 10.5840909,
                "pitch": 38,
                "velocity": 127,
                "duration": 0.1318182,
                "tempo": 120.0
            },
            {
                "start_time": 10.5840909,
                "end_time": 10.7181818,
                "pitch": 50,
                "velocity": 127,
                "duration": 0.1340909,
                "tempo": 120.0
            },
            {
                "start_time": 10.7181818,
                "end_time": 10.8522727,
                "pitch": 38,
                "velocity": 127,
                "duration": 0.1340909,
                "tempo": 120.0
            },
            {
                "start_time": 10.8522727,
                "end_time": 10.9863636,
                "pitch": 38,
                "velocity": 127,
                "duration": 0.1340909,
                "tempo": 120.0
            },
            {
                "start_time": 10.9863636,
                "end_time": 11.1204545,
                "pitch": 50,
                "velocity": 127,
                "duration": 0.1340909,
                "tempo": 120.0
            },
            {
                "start_time": 11.1204545,
                "end_time": 11.2590909,
                "pitch": 38,
                "velocity": 127,
                "duration": 0.1386364,
                "tempo": 120.0
            },
            {
                "start_time": 11.2590909,
                "end_time": 11.3954545,
                "pitch": 38,
                "velocity": 127,
                "duration": 0.1363636,
                "tempo": 120.0
            },
            {
                "start_time": 11.3954545,
                "end_time": 11.5318182,
                "pitch": 62,
                "velocity": 127,
                "duration": 0.1363636,
                "tempo": 120.0
            },
            {
                "start_time": 11.5318182,
                "end_time": 11.6636364,
                "pitch": 38,
                "velocity": 127,
                "duration": 0.1318182,
                "tempo": 120.0
            },
            {
                "start_time": 11.6636364,
                "end_time": 11.7954545,
                "pitch": 38,
                "velocity": 127,
                "duration": 0.1318182,
                "tempo": 120.0
            },
            {
                "start_time": 11.7954545,
                "end_time": 11.925,
                "pitch": 50,
                "velocity": 127,
                "duration": 0.1295455,
                "tempo": 120.0
            },
            {
                "start_time": 11.925,
                "end_time": 12.0590909,
                "pitch": 38,
                "velocity": 127,
                "duration": 0.1340909,
                "tempo": 120.0
            },
            {
                "start_time": 12.0590909,
                "end_time": 12.1931818,
                "pitch": 38,
                "velocity": 127,
                "duration": 0.1340909,
                "tempo": 120.0
            },
            {
                "start_time": 12.1931818,
                "end_time": 12.3295455,
                "pitch": 50,
                "velocity": 127,
                "duration": 0.1363636,
                "tempo": 120.0
            },
            {
                "start_time": 12.3295455,
                "end_time": 12.4659091,
                "pitch": 38,
                "velocity": 127,
                "duration": 0.1363636,
                "tempo": 120.0
            },
            {
                "start_time": 12.4659091,
                "end_time": 12.6022727,
                "pitch": 38,
                "velocity": 127,
                "duration": 0.1363636,
                "tempo": 120.0
            },
            {
                "start_time": 12.6022727,
                "end_time": 12.7409091,
                "pitch": 50,
                "velocity": 127,
                "duration": 0.1386364,
                "tempo": 120.0
            },
            {
                "start_time": 12.7409091,
                "end_time": 12.875,
                "pitch": 38,
                "velocity": 127,
                "duration": 0.1340909,
                "tempo": 120.0
            },
            {
                "start_time": 6.4318182,
                "end_time": 13.0068182,
                "pitch": 40,
                "velocity": 127,
                "duration": 6.575,
                "tempo": 120.0
            },
            {
                "start_time": 12.875,
                "end_time": 13.0068182,
                "pitch": 40,
                "velocity": 127,
                "duration": 0.1318182,
                "tempo": 120.0
            },
            {
                "start_time": 13.0068182,
                "end_time": 13.0568182,
                "pitch": 64,
                "velocity": 127,
                "duration": 0.05,
                "tempo": 120.0
            }
        ]
    }
}