{
    "mood": "angry",
    "instruments": {
        "Trumpet": [
            {
                "start_time": 32.7977273,
                "end_time": 32.9681818,
                "pitch": 67,
                "velocity": 101,
                "duration": 0.1704545,
                "tempo": 120.0
            },
            {
                "start_time": 32.9681818,
                "end_time": 33.1409091,
                "pitch": 65,
                "velocity": 101,
                "duration": 0.1727273,
                "tempo": 120.0
            },
            {
                "start_time": 33.1409091,
                "end_time": 33.3090909,
                "pitch": 65,
                "velocity": 101,
                "duration": 0.1681818,
                "tempo": 120.0
            },
            {
                "start_time": 33.3090909,
                "end_time": 33.6431818,
                "pitch": 63,
                "velocity": 101,
                "duration": 0.3340909,
                "tempo": 120.0
            },
            {
                "start_time": 33.6431818,
                "end_time": 33.6454545,
                "pitch": 62,
                "velocity": 101,
                "duration": 0.0022727,
                "tempo": 120.0
            },
            {
                "start_time": 33.6454545,
                "end_time": 34.1568182,
                "pitch": 60,
                "velocity": 101,
                "duration": 0.5113636,
                "tempo": 120.0
            },
            {
                "start_time": 34.1568182,
                "end_time": 34.325,
                "pitch": 65,
                "velocity": 101,
                "duration": 0.1681818,
                "tempo": 120.0
            },
            {
                "start_time": 34.325,
                "end_time": 34.4931818,
                "pitch": 65,
                "velocity": 101,
                "duration": 0.1681818,
                "tempo": 120.0
            },
            {
                "start_time": 34.4931818,
                "end_time": 34.6636364,
                "pitch": 63,
                "velocity": 101,
                "duration": 0.1704545,
                "tempo": 120.0
            },
            {
                "start_time": 34.1568182,
                "end_time": 35.0204545,
                "pitch": 60,
                "velocity": 101,
                "duration": 0.8636364,
                "tempo": 120.0
            },
            {
                "start_time": 34.6636364,
                "end_time": 35.0204545,
                "pitch": 60,
                "velocity": 101,
                "duration": 0.3568182,
                "tempo": 120.0
            },
            {
                "start_time": 35.0204545,
                "end_time": 35.5431818,
                "pitch": 58,
                "velocity": 101,
                "duration": 0.5227273,
                "tempo": 120.0
            },
            {
                "start_time": 35.5431818,
                "end_time": 35.7113636,
                "pitch": 63,
                "velocity": 101,
                "duration": 0.1681818,
                "tempo": 120.0
            },
            {
                "start_time": 34.6636364,
                "end_time": 35.8795455,
                "pitch": 62,
                "velocity": 101,
                "duration": 1.2159091,
                "tempo": 120.0
            },
            {
                "start_time": 35.7113636,
                "end_time": 35.8795455,
                "pitch": 63,
                "velocity": 101,
                "duration": 0.1681818,
                "tempo": 120.0
            },
            {
                "start_time": 35.0204545,
                "end_time": 36.0522727,
                "pitch": 60,
                "velocity": 101,
                "duration": 1.0318182,
                "tempo": 120.0
            },
            {
                "start_time": 35.8795455,
                "end_time": 36.0522727,
                "pitch": 60,
                "velocity": 101,
                "duration": 0.1727273,
                "tempo": 120.0
            },
            {
                "start_time": 35.5431818,
                "end_time": 36.3909091,
                "pitch": 58,
                "velocity": 101,
                "duration": 0.8477273,
                "tempo": 120.0
            },
            {
                "start_time": 36.0522727,
                "end_time": 36.3909091,
                "pitch": 58,
                "velocity": 101,
                "duration": 0.3386364,
                "tempo": 120.0
            },
            {
                "start_time": 36.3909091,
                "end_time": 36.8954545,
                "pitch": 58,
                "velocity": 101,
                "duration": 0.5045455,
                "tempo": 120.0
            },
            {
                "start_time": 36.0522727,
                "end_time": 37.4068182,
                "pitch": 60,
                "velocity": 101,
                "duration": 1.3545455,
                "tempo": 120.0
            },
            {
                "start_time": 36.8954545,
                "end_time": 37.4068182,
                "pitch": 60,
                "velocity": 101,
                "duration": 0.5113636,
                "tempo": 120.0
            },
            {
                "start_time": 35.8795455,
                "end_time": 38.2545455,
                "pitch": 62,
                "velocity": 101,
                "duration": 2.375,
                "tempo": 120.0
            },
            {
                "start_time": 37.4068182,
                "end_time": 38.2545455,
                "pitch": 62,
                "velocity": 101,
                "duration": 0.8477273,
                "tempo": 120.0
            },
            {
                "start_time": 32.7977273,
                "end_time": 38.2545455,
                "pitch": 74,
                "velocity": 101,
                "duration": 5.4568182,
                "tempo": 120.0
            },
            {
                "start_time": 32.9681818,
                "end_time": 38.4227273,
                "pitch": 55,
                "velocity": 101,
                "duration": 5.4545455,
                "tempo": 120.0
            },
            {
                "start_time": 38.2545455,
                "end_time": 38.4227273,
                "pitch": 67,
                "velocity": 101,
                "duration": 0.1681818,
                "tempo": 120.0
            },
            {
                "start_time": 38.4227273,
                "end_time": 38.5909091,
                "pitch": 65,
                "velocity": 101,
                "duration": 0.1681818,
                "tempo": 120.0
            },
            {
                "start_time": 38.5909091,
                "end_time": 38.7613636,
                "pitch": 65,
                "velocity": 101,
                "duration": 0.1704545,
                "tempo": 120.0
            },
            {
                "start_time": 38.7613636,
                "end_time": 39.1022727,
                "pitch": 63,
                "velocity": 101,
                "duration": 0.3409091,
                "tempo": 120.0
            },
            {
                "start_time": 37.4068182,
                "end_time": 39.6409091,
                "pitch": 60,
                "velocity": 101,
                "duration": 2.2340909,
                "tempo": 120.0
            },
            {
                "start_time": 39.1022727,
                "end_time": 39.6409091,
                "pitch": 60,
                "velocity": 101,
                "duration": 0.5386364,
                "tempo": 120.0
            },
            {
                "start_time": 39.6409091,
                "end_time": 39.8090909,
                "pitch": 65,
                "velocity": 101,
                "duration": 0.1681818,
                "tempo": 120.0
            },
            {
                "start_time": 39.8090909,
                "end_time": 39.9772727,
                "pitch": 65,
                "velocity": 101,
                "duration": 0.1681818,
                "tempo": 120.0
            },
            {
                "start_time": 39.1022727,
                "end_time": 40.15,
                "pitch": 62,
                "velocity": 101,
                "duration": 1.0477273,
                "tempo": 120.0
            },
            {
                "start_time": 39.9772727,
                "end_time": 40.15,
                "pitch": 63,
                "velocity": 101,
                "duration": 0.1727273,
                "tempo": 120.0
            },
            {
                "start_time": 39.6409091,
                "end_time": 40.4886364,
                "pitch": 60,
                "velocity": 101,
                "duration": 0.8477273,
                "tempo": 120.0
            },
            {
                "start_time": 40.15,
                "end_time": 40.4886364,
                "pitch": 60,
                "velocity": 101,
                "duration": 0.3386364,
                "tempo": 120.0
            },
            {
                "start_time": 40.4886364,
                "end_time": 41.0022727,
                "pitch": 58,
                "velocity": 101,
                "duration": 0.5136364,
                "tempo": 120.0
            },
            {
                "start_time": 41.0022727,
                "end_time": 41.1681818,
                "pitch": 63,
                "velocity": 101,
                "duration": 0.1659091,
                "tempo": 120.0
            },
            {
                "start_time": 40.15,
                "end_time": 41.3363636,
                "pitch": 62,
                "velocity": 101,
                "duration": 1.1863636,
                "tempo": 120.0
            },
            {
                "start_time": 41.1681818,
                "end_time": 41.3363636,
                "pitch": 63,
                "velocity": 101,
                "duration": 0.1681818,
                "tempo": 120.0
            },
            {
                "start_time": 40.4886364,
                "end_time": 41.5090909,
                "pitch": 60,
                "velocity": 101,
                "duration": 1.0204545,
                "tempo": 120.0
            },
            {
                "start_time": 41.3363636,
                "end_time": 41.5090909,
                "pitch": 60,
                "velocity": 101,
                "duration": 0.1727273,
                "tempo": 120.0
            },
            {
                "start_time": 41.0022727,
                "end_time": 41.85,
                "pitch": 58,
                "velocity": 101,
                "duration": 0.8477273,
                "tempo": 120.0
            },
            {
                "start_time": 41.5090909,
                "end_time": 41.85,
                "pitch": 58,
                "velocity": 101,
                "duration": 0.3409091,
                "tempo": 120.0
            },
            {
                "start_time": 41.85,
                "end_time": 42.3522727,
                "pitch": 58,
                "velocity": 101,
                "duration": 0.5022727,
                "tempo": 120.0
            },
            {
                "start_time": 36.8954545,
                "end_time": 42.5931818,
                "pitch": 57,
                "velocity": 101,
                "duration": 5.6977273,
                "tempo": 120.0
            },
            {
                "start_time": 42.3522727,
                "end_time": 42.5931818,
                "pitch": 57,
                "velocity": 101,
                "duration": 0.2409091,
                "tempo": 120.0
            },
            {
                "start_time": 42.5931818,
                "end_time": 42.8136364,
                "pitch": 57,
                "velocity": 101,
                "duration": 0.2204545,
                "tempo": 120.0
            },
            {
                "start_time": 42.8136364,
                "end_time": 43.0318182,
                "pitch": 53,
                "velocity": 101,
                "duration": 0.2181818,
                "tempo": 120.0
            },
            {
                "start_time": 43.0318182,
                "end_time": 43.2727273,
                "pitch": 51,
                "velocity": 101,
                "duration": 0.2409091,
                "tempo": 120.0
            },
            {
                "start_time": 43.2727273,
                "end_time": 43.4931818,
                "pitch": 51,
                "velocity": 101,
                "duration": 0.2204545,
                "tempo": 120.0
            }
        ],
        "Acoustic Bass": [
            {
                "start_time": 0.0,
                "end_time": 0.3522727,
                "pitch": 43,
                "velocity": 101,
                "duration": 0.3522727,
                "tempo": 120.0
            },
            {
                "start_time": 0.3522727,
                "end_time": 0.5295455,
                "pitch": 43,
                "velocity": 101,
                "duration": 0.1772727,
                "tempo": 120.0
            },
            {
                "start_time": 0.5295455,
                "end_time": 0.8727273,
                "pitch": 43,
                "velocity": 101,
                "duration": 0.3431818,
                "tempo": 120.0
            },
            {
                "start_time": 0.8727273,
                "end_time": 1.0409091,
                "pitch": 43,
                "velocity": 101,
                "duration": 0.1681818,
                "tempo": 120.0
            },
            {
                "start_time": 1.0409091,
                "end_time": 1.3863636,
                "pitch": 43,
                "velocity": 101,
                "duration": 0.3454545,
                "tempo": 120.0
            },
            {
                "start_time": 1.3863636,
                "end_time": 1.7318182,
                "pitch": 43,
                "velocity": 101,
                "duration": 0.3454545,
                "tempo": 120.0
            },
            {
                "start_time": 1.7318182,
                "end_time": 1.9,
                "pitch": 43,
                "velocity": 101,
                "duration": 0.1681818,
                "tempo": 120.0
            },
            {
                "start_time": 1.9,
                "end_time": 2.2340909,
                "pitch": 43,
                "velocity": 101,
                "duration": 0.3340909,
                "tempo": 120.0
            },
            {
                "start_time": 2.2340909,
                "end_time": 2.4022727,
                "pitch": 43,
                "velocity": 101,
                "duration": 0.1681818,
                "tempo": 120.0
            },
            {
                "start_time": 2.4022727,
                "end_time": 2.7477273,
                "pitch": 43,
                "velocity": 101,
                "duration": 0.3454545,
                "tempo": 120.0
            },
            {
                "start_time": 2.7477273,
                "end_time": 3.0818182,
                "pitch": 43,
                "velocity": 101,
                "duration": 0.3340909,
                "tempo": 120.0
            },
            {
                "start_time": 3.0818182,
                "end_time": 3.25,
                "pitch": 43,
                "velocity": 101,
                "duration": 0.1681818,
                "tempo": 120.0
            },
            {
                "start_time": 3.25,
                "end_time": 3.5886364,
                "pitch": 43,
                "velocity": 101,
                "duration": 0.3386364,
                "tempo": 120.0
            },
            {
                "start_time": 3.5886364,
                "end_time": 3.7613636,
                "pitch": 43,
                "velocity": 101,
                "duration": 0.1727273,
                "tempo": 120.0
            },
            {
                "start_time": 3.7613636,
                "end_time": 4.0977273,
                "pitch": 43,
                "velocity": 101,
                "duration": 0.3363636,
                "tempo": 120.0
            },
            {
                "start_time": 4.0977273,
                "end_time": 4.4590909,
                "pitch": 43,
                "velocity": 101,
                "duration": 0.3613636,
                "tempo": 120.0
            },
            {
                "start_time": 4.4590909,
                "end_time": 4.6363636,
                "pitch": 43,
                "velocity": 101,
                "duration": 0.1772727,
                "tempo": 120.0
            },
            {
                "start_time": 4.6363636,
                "end_time": 4.9818182,
                "pitch": 43,
                "velocity": 101,
                "duration": 0.3454545,
                "tempo": 120.0
            },
            {
                "start_time": 4.9818182,
                "end_time": 5.15,
                "pitch": 43,
                "velocity": 101,
                "duration": 0.1681818,
                "tempo": 120.0
            },
            {
                "start_time": 5.15,
                "end_time": 5.4863636,
                "pitch": 43,
                "velocity": 101,
                "duration": 0.3363636,
                "tempo": 120.0
            },
            {
                "start_time": 5.4863636,
                "end_time": 5.8204545,
                "pitch": 43,
                "velocity": 101,
                "duration": 0.3340909,
                "tempo": 120.0
            },
            {
                "start_time": 5.8204545,
                "end_time": 5.9931818,
                "pitch": 45,
                "velocity": 101,
                "duration": 0.1727273,
                "tempo": 120.0
            },
            {
                "start_time": 5.9931818,
                "end_time": 6.3318182,
                "pitch": 45,
                "velocity": 101,
                "duration": 0.3386364,
                "tempo": 120.0
            },
            {
                "start_time": 6.3318182,
                "end_time": 6.5,
                "pitch": 45,
                "velocity": 101,
                "duration": 0.1681818,
                "tempo": 120.0
            },
            {
                "start_time": 6.5,
                "end_time": 6.8454545,
                "pitch": 45,
                "velocity": 101,
                "duration": 0.3454545,
                "tempo": 120.0
            },
            {
                "start_time": 6.8454545,
                "end_time": 7.1795455,
                "pitch": 45,
                "velocity": 101,
                "duration": 0.3340909,
                "tempo": 120.0
            },
            {
                "start_time": 7.1795455,
                "end_time": 7.3522727,
                "pitch": 45,
                "velocity": 101,
                "duration": 0.1727273,
                "tempo": 120.0
            },
            {
                "start_time": 7.3522727,
                "end_time": 7.6931818,
                "pitch": 45,
                "velocity": 101,
                "duration": 0.3409091,
                "tempo": 120.0
            },
            {
                "start_time": 7.6931818,
                "end_time": 7.8613636,
                "pitch": 45,
                "velocity": 101,
                "duration": 0.1681818,
                "tempo": 120.0
            },
            {
                "start_time": 7.8613636,
                "end_time": 8.1977273,
                "pitch": 45,
                "velocity": 101,
                "duration": 0.3363636,
                "tempo": 120.0
            },
            {
                "start_time": 8.1977273,
                "end_time": 8.5409091,
                "pitch": 45,
                "velocity": 101,
                "duration": 0.3431818,
                "tempo": 120.0
            },
            {
                "start_time": 8.5409091,
                "end_time": 8.7090909,
                "pitch": 45,
                "velocity": 101,
                "duration": 0.1681818,
                "tempo": 120.0
            },
            {
                "start_time": 8.7090909,
                "end_time": 9.0659091,
                "pitch": 45,
                "velocity": 101,
                "duration": 0.3568182,
                "tempo": 120.0
            },
            {
                "start_time": 9.0659091,
                "end_time": 9.2386364,
                "pitch": 45,
                "velocity": 101,
                "duration": 0.1727273,
                "tempo": 120.0
            },
            {
                "start_time": 9.2386364,
                "end_time": 9.5840909,
                "pitch": 45,
                "velocity": 101,
                "duration": 0.3454545,
                "tempo": 120.0
            },
            {
                "start_time": 9.5840909,
                "end_time": 9.9272727,
                "pitch": 45,
                "velocity": 101,
                "duration": 0.3431818,
                "tempo": 120.0
            },
            {
                "start_time": 9.9272727,
                "end_time": 10.0954545,
                "pitch": 45,
                "velocity": 101,
                "duration": 0.1681818,
                "tempo": 120.0
            },
            {
                "start_time": 10.0954545,
                "end_time": 10.4295455,
                "pitch": 45,
                "velocity": 101,
                "duration": 0.3340909,
                "tempo": 120.0
            },
            {
                "start_time": 10.4295455,
                "end_time": 10.5977273,
                "pitch": 45,
                "velocity": 101,
                "duration": 0.1681818,
                "tempo": 120.0
            },
            {
                "start_time": 10.5977273,
                "end_time": 10.9431818,
                "pitch": 45,
                "velocity": 101,
                "duration": 0.3454545,
                "tempo": 120.0
            },
            {
                "start_time": 10.9431818,
                "end_time": 10.9454545,
                "pitch": 45,
                "velocity": 101,
                "duration": 0.0022727,
                "tempo": 120.0
            },
            {
                "start_time": 10.9454545,
                "end_time": 11.2772727,
                "pitch": 48,
                "velocity": 101,
                "duration": 0.3318182,
                "tempo": 120.0
            },
            {
                "start_time": 11.2772727,
                "end_time": 11.45,
                "pitch": 48,
                "velocity": 101,
                "duration": 0.1727273,
                "tempo": 120.0
            },
            {
                "start_time": 11.45,
                "end_time": 11.7909091,
                "pitch": 48,
                "velocity": 101,
                "duration": 0.3409091,
                "tempo": 120.0
            },
            {
                "start_time": 11.7909091,
                "end_time": 11.9590909,
                "pitch": 48,
                "velocity": 101,
                "duration": 0.1681818,
                "tempo": 120.0
            },
            {
                "start_time": 11.9590909,
                "end_time": 12.2954545,
                "pitch": 48,
                "velocity": 101,
                "duration": 0.3363636,
                "tempo": 120.0
            },
            {
                "start_time": 12.2954545,
                "end_time": 12.6386364,
                "pitch": 48,
                "velocity": 101,
                "duration": 0.3431818,
                "tempo": 120.0
            },
            {
                "start_time": 12.6386364,
                "end_time": 12.8068182,
                "pitch": 48,
                "velocity": 101,
                "duration": 0.1681818,
                "tempo": 120.0
            },
            {
                "start_time": 12.8068182,
                "end_time": 13.1636364,
                "pitch": 48,
                "velocity": 101,
                "duration": 0.3568182,
                "tempo": 120.0
            },
            {
                "start_time": 13.1636364,
                "end_time": 13.3363636,
                "pitch": 48,
                "velocity": 101,
                "duration": 0.1727273,
                "tempo": 120.0
            },
            {
                "start_time": 13.3363636,
                "end_time": 13.6909091,
                "pitch": 48,
                "velocity": 101,
                "duration": 0.3545455,
                "tempo": 120.0
            },
            {
                "start_time": 13.6909091,
                "end_time": 14.025,
                "pitch": 45,
                "velocity": 101,
                "duration": 0.3340909,
                "tempo": 120.0
            },
            {
                "start_time": 14.025,
                "end_time": 14.1931818,
                "pitch": 45,
                "velocity": 101,
                "duration": 0.1681818,
                "tempo": 120.0
            },
            {
                "start_time": 14.1931818,
                "end_time": 14.5295455,
                "pitch": 45,
                "velocity": 101,
                "duration": 0.3363636,
                "tempo": 120.0
            },
            {
                "start_time": 14.5295455,
                "end_time": 14.6977273,
                "pitch": 45,
                "velocity": 101,
                "duration": 0.1681818,
                "tempo": 120.0
            },
            {
                "start_time": 14.6977273,
                "end_time": 15.0431818,
                "pitch": 45,
                "velocity": 101,
                "duration": 0.3454545,
                "tempo": 120.0
            },
            {
                "start_time": 15.0431818,
                "end_time": 15.3772727,
                "pitch": 45,
                "velocity": 101,
                "duration": 0.3340909,
                "tempo": 120.0
            },
            {
                "start_time": 15.3772727,
                "end_time": 15.55,
                "pitch": 45,
                "velocity": 101,
                "duration": 0.1727273,
                "tempo": 120.0
            },
            {
                "start_time": 15.55,
                "end_time": 15.8886364,
                "pitch": 45,
                "velocity": 101,
                "duration": 0.3386364,
                "tempo": 120.0
            },
            {
                "start_time": 15.8886364,
                "end_time": 16.0568182,
                "pitch": 45,
                "velocity": 101,
                "duration": 0.1681818,
                "tempo": 120.0
            },
            {
                "start_time": 16.0568182,
                "end_time": 16.4022727,
                "pitch": 45,
                "velocity": 101,
                "duration": 0.3454545,
                "tempo": 120.0
            },
            {
                "start_time": 16.4022727,
                "end_time": 16.7363636,
                "pitch": 45,
                "velocity": 101,
                "duration": 0.3340909,
                "tempo": 120.0
            },
            {
                "start_time": 16.7363636,
                "end_time": 16.9090909,
                "pitch": 43,
                "velocity": 101,
                "duration": 0.1727273,
                "tempo": 120.0
            },
            {
                "start_time": 16.9090909,
                "end_time": 17.25,
                "pitch": 43,
                "velocity": 101,
                "duration": 0.3409091,
                "tempo": 120.0
            },
            {
                "start_time": 17.25,
                "end_time": 17.4181818,
                "pitch": 43,
                "velocity": 101,
                "duration": 0.1681818,
                "tempo": 120.0
            },
            {
                "start_time": 17.4181818,
                "end_time": 17.7704545,
                "pitch": 43,
                "velocity": 101,
                "duration": 0.3522727,
                "tempo": 120.0
            },
            {
                "start_time": 17.7704545,
                "end_time": 18.125,
                "pitch": 46,
                "velocity": 101,
                "duration": 0.3545455,
                "tempo": 120.0
            },
            {
                "start_time": 18.125,
                "end_time": 18.2977273,
                "pitch": 46,
                "velocity": 101,
                "duration": 0.1727273,
                "tempo": 120.0
            },
            {
                "start_time": 18.2977273,
                "end_time": 18.6363636,
                "pitch": 46,
                "velocity": 101,
                "duration": 0.3386364,
                "tempo": 120.0
            },
            {
                "start_time": 18.6363636,
                "end_time": 18.8045455,
                "pitch": 46,
                "velocity": 101,
                "duration": 0.1681818,
                "tempo": 120.0
            },
            {
                "start_time": 18.8045455,
                "end_time": 19.1409091,
                "pitch": 46,
                "velocity": 101,
                "duration": 0.3363636,
                "tempo": 120.0
            },
            {
                "start_time": 17.7704545,
                "end_time": 19.4840909,
                "pitch": 43,
                "velocity": 101,
                "duration": 1.7136364,
                "tempo": 120.0
            },
            {
                "start_time": 19.1409091,
                "end_time": 19.4840909,
                "pitch": 43,
                "velocity": 101,
                "duration": 0.3431818,
                "tempo": 120.0
            },
            {
                "start_time": 19.4840909,
                "end_time": 19.6522727,
                "pitch": 43,
                "velocity": 101,
                "duration": 0.1681818,
                "tempo": 120.0
            },
            {
                "start_time": 19.6522727,
                "end_time": 19.9886364,
                "pitch": 43,
                "velocity": 101,
                "duration": 0.3363636,
                "tempo": 120.0
            },
            {
                "start_time": 19.9886364,
                "end_time": 20.1568182,
                "pitch": 43,
                "velocity": 101,
                "duration": 0.1681818,
                "tempo": 120.0
            },
            {
                "start_time": 20.1568182,
                "end_time": 20.5,
                "pitch": 43,
                "velocity": 101,
                "duration": 0.3431818,
                "tempo": 120.0
            },
            {
                "start_time": 20.5,
                "end_time": 20.8363636,
                "pitch": 43,
                "velocity": 101,
                "duration": 0.3363636,
                "tempo": 120.0
            },
            {
                "start_time": 20.8363636,
                "end_time": 21.0090909,
                "pitch": 43,
                "velocity": 101,
                "duration": 0.1727273,
                "tempo": 120.0
            },
            {
                "start_time": 21.0090909,
                "end_time": 21.3477273,
                "pitch": 43,
                "velocity": 101,
                "duration": 0.3386364,
                "tempo": 120.0
            },
            {
                "start_time": 21.3477273,
                "end_time": 21.5159091,
                "pitch": 43,
                "velocity": 101,
                "duration": 0.1681818,
                "tempo": 120.0
            },
            {
                "start_time": 21.5159091,
                "end_time": 21.8704545,
                "pitch": 43,
                "velocity": 101,
                "duration": 0.3545455,
                "tempo": 120.0
            },
            {
                "start_time": 21.8704545,
                "end_time": 22.2227273,
                "pitch": 43,
                "velocity": 101,
                "duration": 0.3522727,
                "tempo": 120.0
            },
            {
                "start_time": 22.2227273,
                "end_time": 22.3954545,
                "pitch": 43,
                "velocity": 101,
                "duration": 0.1727273,
                "tempo": 120.0
            },
            {
                "start_time": 22.3954545,
                "end_time": 22.7363636,
                "pitch": 43,
                "velocity": 101,
                "duration": 0.3409091,
                "tempo": 120.0
            },
            {
                "start_time": 22.7363636,
                "end_time": 22.9045455,
                "pitch": 43,
                "velocity": 101,
                "duration": 0.1681818,
                "tempo": 120.0
            },
            {
                "start_time": 22.9045455,
                "end_time": 23.2386364,
                "pitch": 43,
                "velocity": 101,
                "duration": 0.3340909,
                "tempo": 120.0
            },
            {
                "start_time": 23.2386364,
                "end_time": 23.575,
                "pitch": 43,
                "velocity": 101,
                "duration": 0.3363636,
                "tempo": 120.0
            },
            {
                "start_time": 23.575,
                "end_time": 23.7477273,
                "pitch": 43,
                "velocity": 101,
                "duration": 0.1727273,
                "tempo": 120.0
            },
            {
                "start_time": 23.7477273,
                "end_time": 24.0863636,
                "pitch": 43,
                "velocity": 101,
                "duration": 0.3386364,
                "tempo": 120.0
            },
            {
                "start_time": 24.0863636,
                "end_time": 24.2545455,
                "pitch": 43,
                "velocity": 101,
                "duration": 0.1681818,
                "tempo": 120.0
            },
            {
                "start_time": 24.2545455,
                "end_time": 24.6,
                "pitch": 43,
                "velocity": 101,
                "duration": 0.3454545,
                "tempo": 120.0
            },
            {
                "start_time": 24.6,
                "end_time": 24.9340909,
                "pitch": 43,
                "velocity": 101,
                "duration": 0.3340909,
                "tempo": 120.0
            },
            {
                "start_time": 24.9340909,
                "end_time": 25.1068182,
                "pitch": 45,
                "velocity": 101,
                "duration": 0.1727273,
                "tempo": 120.0
            },
            {
                "start_time": 25.1068182,
                "end_time": 25.4454545,
                "pitch": 45,
                "velocity": 101,
                "duration": 0.3386364,
                "tempo": 120.0
            },
            {
                "start_time": 25.4477273,
                "end_time": 25.6136364,
                "pitch": 45,
                "velocity": 101,
                "duration": 0.1659091,
                "tempo": 120.0
            },
            {
                "start_time": 25.6136364,
                "end_time": 25.95,
                "pitch": 45,
                "velocity": 101,
                "duration": 0.3363636,
                "tempo": 120.0
            },
            {
                "start_time": 25.95,
                "end_time": 26.3113636,
                "pitch": 45,
                "velocity": 101,
                "duration": 0.3613636,
                "tempo": 120.0
            },
            {
                "start_time": 26.3113636,
                "end_time": 26.4886364,
                "pitch": 45,
                "velocity": 101,
                "duration": 0.1772727,
                "tempo": 120.0
            },
            {
                "start_time": 26.4886364,
                "end_time": 26.8340909,
                "pitch": 45,
                "velocity": 101,
                "duration": 0.3454545,
                "tempo": 120.0
            },
            {
                "start_time": 26.8340909,
                "end_time": 27.0022727,
                "pitch": 45,
                "velocity": 101,
                "duration": 0.1681818,
                "tempo": 120.0
            },
            {
                "start_time": 27.0022727,
                "end_time": 27.3386364,
                "pitch": 45,
                "velocity": 101,
                "duration": 0.3363636,
                "tempo": 120.0
            },
            {
                "start_time": 27.3386364,
                "end_time": 27.6818182,
                "pitch": 45,
                "velocity": 101,
                "duration": 0.3431818,
                "tempo": 120.0
            },
            {
                "start_time": 27.6818182,
                "end_time": 27.85,
                "pitch": 43,
                "velocity": 101,
                "duration": 0.1681818,
                "tempo": 120.0
            },
            {
                "start_time": 27.85,
                "end_time": 28.1840909,
                "pitch": 43,
                "velocity": 101,
                "duration": 0.3340909,
                "tempo": 120.0
            },
            {
                "start_time": 28.1840909,
                "end_time": 28.3522727,
                "pitch": 43,
                "velocity": 101,
                "duration": 0.1681818,
                "tempo": 120.0
            },
            {
                "start_time": 28.3522727,
                "end_time": 28.6977273,
                "pitch": 43,
                "velocity": 101,
                "duration": 0.3454545,
                "tempo": 120.0
            },
            {
                "start_time": 28.6977273,
                "end_time": 29.0318182,
                "pitch": 43,
                "velocity": 101,
                "duration": 0.3340909,
                "tempo": 120.0
            },
            {
                "start_time": 29.0318182,
                "end_time": 29.2045455,
                "pitch": 43,
                "velocity": 101,
                "duration": 0.1727273,
                "tempo": 120.0
            },
            {
                "start_time": 29.2045455,
                "end_time": 29.5454545,
                "pitch": 43,
                "velocity": 101,
                "duration": 0.3409091,
                "tempo": 120.0
            },
            {
                "start_time": 29.5454545,
                "end_time": 29.7136364,
                "pitch": 43,
                "velocity": 101,
                "duration": 0.1681818,
                "tempo": 120.0
            },
            {
                "start_time": 29.7136364,
                "end_time": 30.0590909,
                "pitch": 43,
                "velocity": 101,
                "duration": 0.3454545,
                "tempo": 120.0
            },
            {
                "start_time": 30.0590909,
                "end_time": 30.3931818,
                "pitch": 43,
                "velocity": 101,
                "duration": 0.3340909,
                "tempo": 120.0
            },
            {
                "start_time": 30.3931818,
                "end_time": 30.5772727,
                "pitch": 45,
                "velocity": 101,
                "duration": 0.1840909,
                "tempo": 120.0
            },
            {
                "start_time": 30.5772727,
                "end_time": 30.9227273,
                "pitch": 45,
                "velocity": 101,
                "duration": 0.3454545,
                "tempo": 120.0
            },
            {
                "start_time": 30.9227273,
                "end_time": 31.1,
                "pitch": 45,
                "velocity": 101,
                "duration": 0.1772727,
                "tempo": 120.0
            },
            {
                "start_time": 31.1,
                "end_time": 31.4454545,
                "pitch": 45,
                "velocity": 101,
                "duration": 0.3454545,
                "tempo": 120.0
            },
            {
                "start_time": 31.4454545,
                "end_time": 31.7795455,
                "pitch": 45,
                "velocity": 101,
                "duration": 0.3340909,
                "tempo": 120.0
            },
            {
                "start_time": 31.7795455,
                "end_time": 31.9477273,
                "pitch": 45,
                "velocity": 101,
                "duration": 0.1681818,
                "tempo": 120.0
            },
            {
                "start_time": 31.9477273,
                "end_time": 32.2886364,
                "pitch": 45,
                "velocity": 101,
                "duration": 0.3409091,
                "tempo": 120.0
            },
            {
                "start_time": 32.2886364,
                "end_time": 32.4613636,
                "pitch": 45,
                "velocity": 101,
                "duration": 0.1727273,
                "tempo": 120.0
            },
            {
                "start_time": 32.4613636,
                "end_time": 32.7977273,
                "pitch": 45,
                "velocity": 101,
                "duration": 0.3363636,
                "tempo": 120.0
            },
            {
                "start_time": 0.0,
                "end_time": 33.1409091,
                "pitch": 50,
                "velocity": 101,
                "duration": 33.1409091,
                "tempo": 120.0
            },
            {
                "start_time": 32.7977273,
                "end_time": 33.1409091,
                "pitch": 50,
                "velocity": 101,
                "duration": 0.3431818,
                "tempo": 120.0
            },
            {
                "start_time": 33.1409091,
                "end_time": 33.3090909,
                "pitch": 50,
                "velocity": 101,
                "duration": 0.1681818,
                "tempo": 120.0
            },
            {
                "start_time": 33.3090909,
                "end_time": 33.6454545,
                "pitch": 50,
                "velocity": 101,
                "duration": 0.3363636,
                "tempo": 120.0
            },
            {
                "start_time": 33.6454545,
                "end_time": 33.8113636,
                "pitch": 50,
                "velocity": 101,
                "duration": 0.1659091,
                "tempo": 120.0
            },
            {
                "start_time": 33.8113636,
                "end_time": 34.1568182,
                "pitch": 50,
                "velocity": 101,
                "duration": 0.3454545,
                "tempo": 120.0
            },
            {
                "start_time": 13.6909091,
                "end_time": 34.4931818,
                "pitch": 48,
                "velocity": 101,
                "duration": 20.8022727,
                "tempo": 120.0
            },
            {
                "start_time": 34.1568182,
                "end_time": 34.4931818,
                "pitch": 48,
                "velocity": 101,
                "duration": 0.3363636,
                "tempo": 120.0
            },
            {
                "start_time": 34.4931818,
                "end_time": 34.6636364,
                "pitch": 48,
                "velocity": 101,
                "duration": 0.1704545,
                "tempo": 120.0
            },
            {
                "start_time": 34.6636364,
                "end_time": 35.0204545,
                "pitch": 48,
                "velocity": 101,
                "duration": 0.3568182,
                "tempo": 120.0
            },
            {
                "start_time": 35.0204545,
                "end_time": 35.1886364,
                "pitch": 48,
                "velocity": 101,
                "duration": 0.1681818,
                "tempo": 120.0
            },
            {
                "start_time": 35.1886364,
                "end_time": 35.5431818,
                "pitch": 48,
                "velocity": 101,
                "duration": 0.3545455,
                "tempo": 120.0
            },
            {
                "start_time": 35.5431818,
                "end_time": 35.8795455,
                "pitch": 48,
                "velocity": 101,
                "duration": 0.3363636,
                "tempo": 120.0
            },
            {
                "start_time": 19.1409091,
                "end_time": 36.0522727,
                "pitch": 46,
                "velocity": 101,
                "duration": 16.9113636,
                "tempo": 120.0
            },
            {
                "start_time": 35.8795455,
                "end_time": 36.0522727,
                "pitch": 46,
                "velocity": 101,
                "duration": 0.1727273,
                "tempo": 120.0
            },
            {
                "start_time": 36.0522727,
                "end_time": 36.3909091,
                "pitch": 46,
                "velocity": 101,
                "duration": 0.3386364,
                "tempo": 120.0
            },
            {
                "start_time": 36.3909091,
                "end_time": 36.5590909,
                "pitch": 46,
                "velocity": 101,
                "duration": 0.1681818,
                "tempo": 120.0
            },
            {
                "start_time": 36.5590909,
                "end_time": 36.8954545,
                "pitch": 46,
                "velocity": 101,
                "duration": 0.3363636,
                "tempo": 120.0
            },
            {
                "start_time": 36.8954545,
                "end_time": 37.2386364,
                "pitch": 46,
                "velocity": 101,
                "duration": 0.3431818,
                "tempo": 120.0
            },
            {
                "start_time": 32.7977273,
                "end_time": 37.4068182,
                "pitch": 45,
                "velocity": 101,
                "duration": 4.6090909,
                "tempo": 120.0
            },
            {
                "start_time": 37.2386364,
                "end_time": 37.4068182,
                "pitch": 45,
                "velocity": 101,
                "duration": 0.1681818,
                "tempo": 120.0
            },
            {
                "start_time": 37.4068182,
                "end_time": 37.7409091,
                "pitch": 45,
                "velocity": 101,
                "duration": 0.3340909,
                "tempo": 120.0
            },
            {
                "start_time": 37.7409091,
                "end_time": 37.9090909,
                "pitch": 45,
                "velocity": 101,
                "duration": 0.1681818,
                "tempo": 120.0
            },
            {
                "start_time": 37.9090909,
                "end_time": 38.2545455,
                "pitch": 45,
                "velocity": 101,
                "duration": 0.3454545,
                "tempo": 120.0
            },
            {
                "start_time": 34.1568182,
                "end_time": 38.5909091,
                "pitch": 50,
                "velocity": 101,
                "duration": 4.4340909,
                "tempo": 120.0
            },
            {
                "start_time": 38.2545455,
                "end_time": 38.5909091,
                "pitch": 50,
                "velocity": 101,
                "duration": 0.3363636,
                "tempo": 120.0
            },
            {
                "start_time": 38.5909091,
                "end_time": 38.7613636,
                "pitch": 50,
                "velocity": 101,
                "duration": 0.1704545,
                "tempo": 120.0
            },
            {
                "start_time": 38.7636364,
                "end_time": 39.1022727,
                "pitch": 50,
                "velocity": 101,
                "duration": 0.3386364,
                "tempo": 120.0
            },
            {
                "start_time": 39.1022727,
                "end_time": 39.2863636,
                "pitch": 50,
                "velocity": 101,
                "duration": 0.1840909,
                "tempo": 120.0
            },
            {
                "start_time": 39.2863636,
                "end_time": 39.6431818,
                "pitch": 50,
                "velocity": 101,
                "duration": 0.3568182,
                "tempo": 120.0
            },
            {
                "start_time": 39.6431818,
                "end_time": 39.9772727,
                "pitch": 48,
                "velocity": 101,
                "duration": 0.3340909,
                "tempo": 120.0
            },
            {
                "start_time": 39.9772727,
                "end_time": 40.15,
                "pitch": 48,
                "velocity": 101,
                "duration": 0.1727273,
                "tempo": 120.0
            },
            {
                "start_time": 40.15,
                "end_time": 40.4886364,
                "pitch": 48,
                "velocity": 101,
                "duration": 0.3386364,
                "tempo": 120.0
            },
            {
                "start_time": 40.4886364,
                "end_time": 40.6568182,
                "pitch": 48,
                "velocity": 101,
                "duration": 0.1681818,
                "tempo": 120.0
            },
            {
                "start_time": 40.6568182,
                "end_time": 41.0022727,
                "pitch": 48,
                "velocity": 101,
                "duration": 0.3454545,
                "tempo": 120.0
            },
            {
                "start_time": 41.0022727,
                "end_time": 41.3363636,
                "pitch": 48,
                "velocity": 101,
                "duration": 0.3340909,
                "tempo": 120.0
            },
            {
                "start_time": 41.3363636,
                "end_time": 41.5090909,
                "pitch": 46,
                "velocity": 101,
                "duration": 0.1727273,
                "tempo": 120.0
            },
            {
                "start_time": 41.5090909,
                "end_time": 41.85,
                "pitch": 46,
                "velocity": 101,
                "duration": 0.3409091,
                "tempo": 120.0
            },
            {
                "start_time": 41.85,
                "end_time": 42.0159091,
                "pitch": 46,
                "velocity": 101,
                "duration": 0.1659091,
                "tempo": 120.0
            },
            {
                "start_time": 42.0159091,
                "end_time": 42.3522727,
                "pitch": 46,
                "velocity": 101,
                "duration": 0.3363636,
                "tempo": 120.0
            },
            {
                "start_time": 42.3522727,
                "end_time": 42.6954545,
                "pitch": 46,
                "velocity": 101,
                "duration": 0.3431818,
                "tempo": 120.0
            },
            {
                "start_time": 38.2545455,
                "end_time": 42.8636364,
                "pitch": 45,
                "velocity": 101,
                "duration": 4.6090909,
                "tempo": 120.0
            },
            {
                "start_time": 42.6954545,
                "end_time": 42.8636364,
                "pitch": 45,
                "velocity": 101,
                "duration": 0.1681818,
                "tempo": 120.0
            },
            {
                "start_time": 42.8636364,
                "end_time": 43.2045455,
                "pitch": 45,
                "velocity": 101,
                "duration": 0.3409091,
                "tempo": 120.0
            },
            {
                "start_time": 43.2045455,
                "end_time": 43.3772727,
                "pitch": 45,
                "velocity": 101,
                "duration": 0.1727273,
                "tempo": 120.0
            },
            {
                "start_time": 43.3772727,
                "end_time": 43.7295455,
                "pitch": 45,
                "velocity": 101,
                "duration": 0.3522727,
                "tempo": 120.0
            },
            {
                "start_time": 43.7295455,
                "end_time": 44.0931818,
                "pitch": 45,
                "velocity": 101,
                "duration": 0.3636364,
                "tempo": 120.0
            },
            {
                "start_time": 44.0931818,
                "end_time": 44.2545455,
                "pitch": 43,
                "velocity": 101,
                "duration": 0.1613636,
                "tempo": 120.0
            },
            {
                "start_time": 44.2545455,
                "end_time": 44.5863636,
                "pitch": 43,
                "velocity": 101,
                "duration": 0.3318182,
                "tempo": 120.0
            },
            {
                "start_time": 44.5863636,
                "end_time": 44.7545455,
                "pitch": 43,
                "velocity": 101,
                "duration": 0.1681818,
                "tempo": 120.0
            },
            {
                "start_time": 44.7545455,
                "end_time": 45.1,
                "pitch": 43,
                "velocity": 101,
                "duration": 0.3454545,
                "tempo": 120.0
            },
            {
                "start_time": 45.1,
                "end_time": 45.4340909,
                "pitch": 43,
                "velocity": 101,
                "duration": 0.3340909,
                "tempo": 120.0
            },
            {
                "start_time": 45.4340909,
                "end_time": 45.6068182,
                "pitch": 43,
                "velocity": 101,
                "duration": 0.1727273,
                "tempo": 120.0
            },
            {
                "start_time": 45.6068182,
                "end_time": 45.9454545,
                "pitch": 43,
                "velocity": 101,
                "duration": 0.3386364,
                "tempo": 120.0
            },
            {
                "start_time": 45.9454545,
                "end_time": 46.1136364,
                "pitch": 43,
                "velocity": 101,
                "duration": 0.1681818,
                "tempo": 120.0
            },
            {
                "start_time": 46.1136364,
                "end_time": 46.45,
                "pitch": 43,
                "velocity": 101,
                "duration": 0.3363636,
                "tempo": 120.0
            },
            {
                "start_time": 46.45,
                "end_time": 46.7931818,
                "pitch": 43,
                "velocity": 101,
                "duration": 0.3431818,
                "tempo": 120.0
            },
            {
                "start_time": 46.7931818,
                "end_time": 46.9613636,
                "pitch": 43,
                "velocity": 101,
                "duration": 0.1681818,
                "tempo": 120.0
            },
            {
                "start_time": 46.9613636,
                "end_time": 47.2954545,
                "pitch": 43,
                "velocity": 101,
                "duration": 0.3340909,
                "tempo": 120.0
            },
            {
                "start_time": 47.2954545,
                "end_time": 47.4636364,
                "pitch": 43,
                "velocity": 101,
                "duration": 0.1681818,
                "tempo": 120.0
            },
            {
                "start_time": 47.4636364,
                "end_time": 47.8090909,
                "pitch": 43,
                "velocity": 101,
                "duration": 0.3454545,
                "tempo": 120.0
            },
            {
                "start_time": 47.8090909,
                "end_time": 48.1704545,
                "pitch": 43,
                "velocity": 101,
                "duration": 0.3613636,
                "tempo": 120.0
            },
            {
                "start_time": 48.1704545,
                "end_time": 48.3431818,
                "pitch": 43,
                "velocity": 101,
                "duration": 0.1727273,
                "tempo": 120.0
            },
            {
                "start_time": 48.3431818,
                "end_time": 48.6840909,
                "pitch": 43,
                "velocity": 101,
                "duration": 0.3409091,
                "tempo": 120.0
            },
            {
                "start_time": 48.6840909,
                "end_time": 48.8522727,
                "pitch": 43,
                "velocity": 101,
                "duration": 0.1681818,
                "tempo": 120.0
            },
            {
                "start_time": 48.8522727,
                "end_time": 49.1977273,
                "pitch": 43,
                "velocity": 101,
                "duration": 0.3454545,
                "tempo": 120.0
            },
            {
                "start_time": 49.1977273,
                "end_time": 49.5318182,
                "pitch": 43,
                "velocity": 101,
                "duration": 0.3340909,
                "tempo": 120.0
            },
            {
                "start_time": 49.5318182,
                "end_time": 49.7045455,
                "pitch": 45,
                "velocity": 101,
                "duration": 0.1727273,
                "tempo": 120.0
            },
            {
                "start_time": 49.7045455,
                "end_time": 50.0431818,
                "pitch": 45,
                "velocity": 101,
                "duration": 0.3386364,
                "tempo": 120.0
            },
            {
                "start_time": 50.0431818,
                "end_time": 50.2113636,
                "pitch": 45,
                "velocity": 101,
                "duration": 0.1681818,
                "tempo": 120.0
            },
            {
                "start_time": 50.2113636,
                "end_time": 50.5477273,
                "pitch": 45,
                "velocity": 101,
                "duration": 0.3363636,
                "tempo": 120.0
            },
            {
                "start_time": 50.5477273,
                "end_time": 50.8909091,
                "pitch": 45,
                "velocity": 101,
                "duration": 0.3431818,
                "tempo": 120.0
            },
            {
                "start_time": 50.8909091,
                "end_time": 51.0590909,
                "pitch": 45,
                "velocity": 101,
                "duration": 0.1681818,
                "tempo": 120.0
            },
            {
                "start_time": 51.0590909,
                "end_time": 51.3954545,
                "pitch": 45,
                "velocity": 101,
                "duration": 0.3363636,
                "tempo": 120.0
            },
            {
                "start_time": 51.3954545,
                "end_time": 51.5636364,
                "pitch": 45,
                "velocity": 101,
                "duration": 0.1681818,
                "tempo": 120.0
            },
            {
                "start_time": 51.5636364,
                "end_time": 51.9090909,
                "pitch": 45,
                "velocity": 101,
                "duration": 0.3454545,
                "tempo": 120.0
            },
            {
                "start_time": 51.9090909,
                "end_time": 52.2522727,
                "pitch": 45,
                "velocity": 101,
                "duration": 0.3431818,
                "tempo": 120.0
            },
            {
                "start_time": 52.2522727,
                "end_time": 52.4363636,
                "pitch": 45,
                "velocity": 101,
                "duration": 0.1840909,
                "tempo": 120.0
            },
            {
                "start_time": 52.4363636,
                "end_time": 52.7772727,
                "pitch": 45,
                "velocity": 101,
                "duration": 0.3409091,
                "tempo": 120.0
            },
            {
                "start_time": 52.7772727,
                "end_time": 52.95,
                "pitch": 45,
                "velocity": 101,
                "duration": 0.1727273,
                "tempo": 120.0
            },
            {
                "start_time": 52.95,
                "end_time": 53.2954545,
                "pitch": 45,
                "velocity": 101,
                "duration": 0.3454545,
                "tempo": 120.0
            },
            {
                "start_time": 53.2954545,
                "end_time": 53.6295455,
                "pitch": 45,
                "velocity": 101,
                "duration": 0.3340909,
                "tempo": 120.0
            },
            {
                "start_time": 53.6295455,
                "end_time": 53.8022727,
                "pitch": 45,
                "velocity": 101,
                "duration": 0.1727273,
                "tempo": 120.0
            },
            {
                "start_time": 53.8022727,
                "end_time": 54.1409091,
                "pitch": 45,
                "velocity": 101,
                "duration": 0.3386364,
                "tempo": 120.0
            },
            {
                "start_time": 54.1409091,
                "end_time": 54.3090909,
                "pitch": 45,
                "velocity": 101,
                "duration": 0.1681818,
                "tempo": 120.0
            },
            {
                "start_time": 54.3090909,
                "end_time": 54.6545455,
                "pitch": 45,
                "velocity": 101,
                "duration": 0.3454545,
                "tempo": 120.0
            },
            {
                "start_time": 54.6545455,
                "end_time": 54.9886364,
                "pitch": 48,
                "velocity": 101,
                "duration": 0.3340909,
                "tempo": 120.0
            },
            {
                "start_time": 54.9886364,
                "end_time": 55.1613636,
                "pitch": 48,
                "velocity": 101,
                "duration": 0.1727273,
                "tempo": 120.0
            },
            {
                "start_time": 55.1613636,
                "end_time": 55.5022727,
                "pitch": 48,
                "velocity": 101,
                "duration": 0.3409091,
                "tempo": 120.0
            },
            {
                "start_time": 55.5022727,
                "end_time": 55.6704545,
                "pitch": 48,
                "velocity": 101,
                "duration": 0.1681818,
                "tempo": 120.0
            },
            {
                "start_time": 55.6704545,
                "end_time": 56.0068182,
                "pitch": 48,
                "velocity": 101,
                "duration": 0.3363636,
                "tempo": 120.0
            },
            {
                "start_time": 56.0068182,
                "end_time": 56.35,
                "pitch": 48,
                "velocity": 101,
                "duration": 0.3431818,
                "tempo": 120.0
            },
            {
                "start_time": 56.35,
                "end_time": 56.5181818,
                "pitch": 48,
                "velocity": 101,
                "duration": 0.1681818,
                "tempo": 120.0
            },
            {
                "start_time": 56.5181818,
                "end_time": 56.875,
                "pitch": 48,
                "velocity": 101,
                "duration": 0.3568182,
                "tempo": 120.0
            },
            {
                "start_time": 56.875,
                "end_time": 57.0477273,
                "pitch": 48,
                "velocity": 101,
                "duration": 0.1727273,
                "tempo": 120.0
            },
            {
                "start_time": 57.0477273,
                "end_time": 57.3931818,
                "pitch": 48,
                "velocity": 101,
                "duration": 0.3454545,
                "tempo": 120.0
            },
            {
                "start_time": 54.6545455,
                "end_time": 57.7363636,
                "pitch": 45,
                "velocity": 101,
                "duration": 3.0818182,
                "tempo": 120.0
            },
            {
                "start_time": 57.3931818,
                "end_time": 57.7363636,
                "pitch": 45,
                "velocity": 101,
                "duration": 0.3431818,
                "tempo": 120.0
            },
            {
                "start_time": 57.7363636,
                "end_time": 57.9045455,
                "pitch": 45,
                "velocity": 101,
                "duration": 0.1681818,
                "tempo": 120.0
            },
            {
                "start_time": 57.9045455,
                "end_time": 58.2386364,
                "pitch": 45,
                "velocity": 101,
                "duration": 0.3340909,
                "tempo": 120.0
            },
            {
                "start_time": 58.2386364,
                "end_time": 58.4068182,
                "pitch": 45,
                "velocity": 101,
                "duration": 0.1681818,
                "tempo": 120.0
            },
            {
                "start_time": 58.4068182,
                "end_time": 58.7522727,
                "pitch": 45,
                "velocity": 101,
                "duration": 0.3454545,
                "tempo": 120.0
            },
            {
                "start_time": 58.7522727,
                "end_time": 59.0863636,
                "pitch": 45,
                "velocity": 101,
                "duration": 0.3340909,
                "tempo": 120.0
            },
            {
                "start_time": 59.0863636,
                "end_time": 59.2590909,
                "pitch": 45,
                "velocity": 101,
                "duration": 0.1727273,
                "tempo": 120.0
            },
            {
                "start_time": 59.2590909,
                "end_time": 59.6,
                "pitch": 45,
                "velocity": 101,
                "duration": 0.3409091,
                "tempo": 120.0
            },
            {
                "start_time": 59.6,
                "end_time": 59.7681818,
                "pitch": 45,
                "velocity": 101,
                "duration": 0.1681818,
                "tempo": 120.0
            },
            {
                "start_time": 59.7681818,
                "end_time": 60.1045455,
                "pitch": 45,
                "velocity": 101,
                "duration": 0.3363636,
                "tempo": 120.0
            },
            {
                "start_time": 60.1045455,
                "end_time": 60.4477273,
                "pitch": 45,
                "velocity": 101,
                "duration": 0.3431818,
                "tempo": 120.0
            },
            {
                "start_time": 60.4477273,
                "end_time": 60.6159091,
                "pitch": 43,
                "velocity": 101,
                "duration": 0.1681818,
                "tempo": 120.0
            },
            {
                "start_time": 60.6159091,
                "end_time": 60.9545455,
                "pitch": 43,
                "velocity": 101,
                "duration": 0.3386364,
                "tempo": 120.0
            },
            {
                "start_time": 60.9545455,
                "end_time": 61.1454545,
                "pitch": 43,
                "velocity": 101,
                "duration": 0.1909091,
                "tempo": 120.0
            },
            {
                "start_time": 61.1454545,
                "end_time": 61.5,
                "pitch": 43,
                "velocity": 101,
                "duration": 0.3545455,
                "tempo": 120.0
            },
            {
                "start_time": 61.5,
                "end_time": 61.8340909,
                "pitch": 46,
                "velocity": 101,
                "duration": 0.3340909,
                "tempo": 120.0
            },
            {
                "start_time": 61.8340909,
                "end_time": 62.0045455,
                "pitch": 46,
                "velocity": 101,
                "duration": 0.1704545,
                "tempo": 120.0
            },
            {
                "start_time": 62.0045455,
                "end_time": 62.3386364,
                "pitch": 46,
                "velocity": 101,
                "duration": 0.3340909,
                "tempo": 120.0
            },
            {
                "start_time": 62.3386364,
                "end_time": 62.5068182,
                "pitch": 46,
                "velocity": 101,
                "duration": 0.1681818,
                "tempo": 120.0
            },
            {
                "start_time": 62.5068182,
                "end_time": 62.8522727,
                "pitch": 46,
                "velocity": 101,
                "duration": 0.3454545,
                "tempo": 120.0
            },
            {
                "start_time": 61.5,
                "end_time": 63.1863636,
                "pitch": 43,
                "velocity": 101,
                "duration": 1.6863636,
                "tempo": 120.0
            },
            {
                "start_time": 62.8522727,
                "end_time": 63.1863636,
                "pitch": 43,
                "velocity": 101,
                "duration": 0.3340909,
                "tempo": 120.0
            },
            {
                "start_time": 63.1863636,
                "end_time": 63.3590909,
                "pitch": 43,
                "velocity": 101,
                "duration": 0.1727273,
                "tempo": 120.0
            },
            {
                "start_time": 63.3590909,
                "end_time": 63.6977273,
                "pitch": 43,
                "velocity": 101,
                "duration": 0.3386364,
                "tempo": 120.0
            },
            {
                "start_time": 63.6977273,
                "end_time": 63.8659091,
                "pitch": 43,
                "velocity": 101,
                "duration": 0.1681818,
                "tempo": 120.0
            },
            {
                "start_time": 63.8659091,
                "end_time": 64.2113636,
                "pitch": 43,
                "velocity": 101,
                "duration": 0.3454545,
                "tempo": 120.0
            },
            {
                "start_time": 64.2113636,
                "end_time": 64.5454545,
                "pitch": 43,
                "velocity": 101,
                "duration": 0.3340909,
                "tempo": 120.0
            },
            {
                "start_time": 64.5454545,
                "end_time": 64.7136364,
                "pitch": 43,
                "velocity": 101,
                "duration": 0.1681818,
                "tempo": 120.0
            },
            {
                "start_time": 64.7136364,
                "end_time": 65.0545455,
                "pitch": 43,
                "velocity": 101,
                "duration": 0.3409091,
                "tempo": 120.0
            },
            {
                "start_time": 65.0545455,
                "end_time": 65.2272727,
                "pitch": 43,
                "velocity": 101,
                "duration": 0.1727273,
                "tempo": 120.0
            },
            {
                "start_time": 65.2272727,
                "end_time": 65.5613636,
                "pitch": 43,
                "velocity": 101,
                "duration": 0.3340909,
                "tempo": 120.0
            }
        ],
        "Harpsichord": [
            {
                "start_time": 0.0,
                "end_time": 1.3886364,
                "pitch": 62,
                "velocity": 101,
                "duration": 1.3886364,
                "tempo": 120.0
            },
            {
                "start_time": 1.3886364,
                "end_time": 1.9,
                "pitch": 67,
                "velocity": 101,
                "duration": 0.5113636,
                "tempo": 120.0
            },
            {
                "start_time": 1.9,
                "end_time": 2.4022727,
                "pitch": 65,
                "velocity": 101,
                "duration": 0.5022727,
                "tempo": 120.0
            },
            {
                "start_time": 2.4022727,
                "end_time": 2.7477273,
                "pitch": 65,
                "velocity": 101,
                "duration": 0.3454545,
                "tempo": 120.0
            },
            {
                "start_time": 2.7477273,
                "end_time": 5.4863636,
                "pitch": 63,
                "velocity": 101,
                "duration": 2.7386364,
                "tempo": 120.0
            },
            {
                "start_time": 1.3886364,
                "end_time": 5.4863636,
                "pitch": 74,
                "velocity": 101,
                "duration": 4.0977273,
                "tempo": 120.0
            },
            {
                "start_time": 5.4863636,
                "end_time": 6.8454545,
                "pitch": 69,
                "velocity": 101,
                "duration": 1.3590909,
                "tempo": 120.0
            },
            {
                "start_time": 6.8454545,
                "end_time": 7.3522727,
                "pitch": 69,
                "velocity": 101,
                "duration": 0.5068182,
                "tempo": 120.0
            },
            {
                "start_time": 7.3522727,
                "end_time": 7.8613636,
                "pitch": 70,
                "velocity": 101,
                "duration": 0.5090909,
                "tempo": 120.0
            },
            {
                "start_time": 7.8613636,
                "end_time": 8.1977273,
                "pitch": 72,
                "velocity": 101,
                "duration": 0.3363636,
                "tempo": 120.0
            },
            {
                "start_time": 8.1977273,
                "end_time": 10.9454545,
                "pitch": 72,
                "velocity": 101,
                "duration": 2.7477273,
                "tempo": 120.0
            },
            {
                "start_time": 5.4863636,
                "end_time": 12.2954545,
                "pitch": 74,
                "velocity": 101,
                "duration": 6.8090909,
                "tempo": 120.0
            },
            {
                "start_time": 10.9454545,
                "end_time": 12.2954545,
                "pitch": 74,
                "velocity": 101,
                "duration": 1.35,
                "tempo": 120.0
            },
            {
                "start_time": 12.2954545,
                "end_time": 12.8068182,
                "pitch": 75,
                "velocity": 101,
                "duration": 0.5113636,
                "tempo": 120.0
            },
            {
                "start_time": 12.8068182,
                "end_time": 13.3363636,
                "pitch": 75,
                "velocity": 101,
                "duration": 0.5295455,
                "tempo": 120.0
            },
            {
                "start_time": 13.3363636,
                "end_time": 13.6909091,
                "pitch": 70,
                "velocity": 101,
                "duration": 0.3545455,
                "tempo": 120.0
            },
            {
                "start_time": 7.8613636,
                "end_time": 15.0431818,
                "pitch": 69,
                "velocity": 101,
                "duration": 7.1818182,
                "tempo": 120.0
            },
            {
                "start_time": 13.6931818,
                "end_time": 15.0431818,
                "pitch": 70,
                "velocity": 101,
                "duration": 1.35,
                "tempo": 120.0
            },
            {
                "start_time": 12.2954545,
                "end_time": 16.4022727,
                "pitch": 72,
                "velocity": 101,
                "duration": 4.1068182,
                "tempo": 120.0
            },
            {
                "start_time": 15.0431818,
                "end_time": 16.4022727,
                "pitch": 72,
                "velocity": 101,
                "duration": 1.3590909,
                "tempo": 120.0
            },
            {
                "start_time": 16.4022727,
                "end_time": 17.7704545,
                "pitch": 67,
                "velocity": 101,
                "duration": 1.3681818,
                "tempo": 120.0
            },
            {
                "start_time": 17.7704545,
                "end_time": 18.2977273,
                "pitch": 70,
                "velocity": 101,
                "duration": 0.5272727,
                "tempo": 120.0
            },
            {
                "start_time": 18.2977273,
                "end_time": 18.8068182,
                "pitch": 70,
                "velocity": 101,
                "duration": 0.5090909,
                "tempo": 120.0
            },
            {
                "start_time": 18.8068182,
                "end_time": 19.1409091,
                "pitch": 65,
                "velocity": 101,
                "duration": 0.3340909,
                "tempo": 120.0
            },
            {
                "start_time": 17.7704545,
                "end_time": 21.8704545,
                "pitch": 67,
                "velocity": 101,
                "duration": 4.1,
                "tempo": 120.0
            },
            {
                "start_time": 19.1409091,
                "end_time": 21.8704545,
                "pitch": 67,
                "velocity": 101,
                "duration": 2.7295455,
                "tempo": 120.0
            },
            {
                "start_time": 13.3363636,
                "end_time": 22.3954545,
                "pitch": 74,
                "velocity": 101,
                "duration": 9.0590909,
                "tempo": 120.0
            },
            {
                "start_time": 21.8704545,
                "end_time": 22.3954545,
                "pitch": 74,
                "velocity": 127,
                "duration": 0.525,
                "tempo": 120.0
            },
            {
                "start_time": 16.4022727,
                "end_time": 22.9045455,
                "pitch": 72,
                "velocity": 101,
                "duration": 6.5022727,
                "tempo": 120.0
            },
            {
                "start_time": 22.3954545,
                "end_time": 22.9045455,
                "pitch": 74,
                "velocity": 127,
                "duration": 0.5090909,
                "tempo": 120.0
            },
            {
                "start_time": 22.9045455,
                "end_time": 23.2386364,
                "pitch": 75,
                "velocity": 127,
                "duration": 0.3340909,
                "tempo": 120.0
            },
            {
                "start_time": 23.2409091,
                "end_time": 23.7477273,
                "pitch": 75,
                "velocity": 127,
                "duration": 0.5068182,
                "tempo": 120.0
            },
            {
                "start_time": 22.9045455,
                "end_time": 24.2545455,
                "pitch": 72,
                "velocity": 127,
                "duration": 1.35,
                "tempo": 120.0
            },
            {
                "start_time": 23.7477273,
                "end_time": 24.2545455,
                "pitch": 74,
                "velocity": 127,
                "duration": 0.5068182,
                "tempo": 120.0
            },
            {
                "start_time": 24.2545455,
                "end_time": 24.6,
                "pitch": 70,
                "velocity": 127,
                "duration": 0.3454545,
                "tempo": 120.0
            },
            {
                "start_time": 15.0431818,
                "end_time": 25.95,
                "pitch": 69,
                "velocity": 101,
                "duration": 10.9068182,
                "tempo": 120.0
            },
            {
                "start_time": 24.6,
                "end_time": 25.95,
                "pitch": 70,
                "velocity": 127,
                "duration": 1.35,
                "tempo": 120.0
            },
            {
                "start_time": 24.2545455,
                "end_time": 27.3386364,
                "pitch": 72,
                "velocity": 127,
                "duration": 3.0840909,
                "tempo": 120.0
            },
            {
                "start_time": 25.95,
                "end_time": 27.3386364,
                "pitch": 72,
                "velocity": 127,
                "duration": 1.3886364,
                "tempo": 120.0
            },
            {
                "start_time": 27.3386364,
                "end_time": 27.85,
                "pitch": 72,
                "velocity": 127,
                "duration": 0.5113636,
                "tempo": 120.0
            },
            {
                "start_time": 27.85,
                "end_time": 28.3522727,
                "pitch": 74,
                "velocity": 127,
                "duration": 0.5022727,
                "tempo": 120.0
            },
            {
                "start_time": 28.3545455,
                "end_time": 28.6977273,
                "pitch": 75,
                "velocity": 127,
                "duration": 0.3431818,
                "tempo": 120.0
            },
            {
                "start_time": 28.6977273,
                "end_time": 29.2068182,
                "pitch": 75,
                "velocity": 127,
                "duration": 0.5090909,
                "tempo": 120.0
            },
            {
                "start_time": 28.3545455,
                "end_time": 29.7136364,
                "pitch": 72,
                "velocity": 127,
                "duration": 1.3590909,
                "tempo": 120.0
            },
            {
                "start_time": 29.2068182,
                "end_time": 29.7136364,
                "pitch": 74,
                "velocity": 127,
                "duration": 0.5068182,
                "tempo": 120.0
            },
            {
                "start_time": 19.1409091,
                "end_time": 30.0590909,
                "pitch": 77,
                "velocity": 101,
                "duration": 10.9181818,
                "tempo": 120.0
            },
            {
                "start_time": 29.7136364,
                "end_time": 30.0590909,
                "pitch": 77,
                "velocity": 127,
                "duration": 0.3454545,
                "tempo": 120.0
            },
            {
                "start_time": 30.0590909,
                "end_time": 31.4454545,
                "pitch": 77,
                "velocity": 127,
                "duration": 1.3863636,
                "tempo": 120.0
            }
        ]
    }
}