{
    "mood": "angry",
    "instruments": {
        "French Horn": [
            {
                "start_time": 0.1818182,
                "end_time": 0.2454545,
                "pitch": 63,
                "velocity": 51,
                "duration": 0.0636364,
                "tempo": 120.0
            },
            {
                "start_time": 0.2795455,
                "end_time": 0.3272727,
                "pitch": 63,
                "velocity": 51,
                "duration": 0.0477273,
                "tempo": 120.0
            },
            {
                "start_time": 0.3613636,
                "end_time": 0.6954545,
                "pitch": 62,
                "velocity": 51,
                "duration": 0.3340909,
                "tempo": 120.0
            },
            {
                "start_time": 0.7136364,
                "end_time": 0.8090909,
                "pitch": 69,
                "velocity": 51,
                "duration": 0.0954545,
                "tempo": 120.0
            },
            {
                "start_time": 3.0363636,
                "end_time": 3.1,
                "pitch": 63,
                "velocity": 51,
                "duration": 0.0636364,
                "tempo": 120.0
            },
            {
                "start_time": 3.1181818,
                "end_time": 3.1818182,
                "pitch": 63,
                "velocity": 51,
                "duration": 0.0636364,
                "tempo": 120.0
            },
            {
                "start_time": 3.2159091,
                "end_time": 3.5590909,
                "pitch": 62,
                "velocity": 51,
                "duration": 0.3431818,
                "tempo": 120.0
            },
            {
                "start_time": 3.5772727,
                "end_time": 3.675,
                "pitch": 69,
                "velocity": 51,
                "duration": 0.0977273,
                "tempo": 120.0
            },
            {
                "start_time": 5.9045455,
                "end_time": 5.9681818,
                "pitch": 64,
                "velocity": 51,
                "duration": 0.0636364,
                "tempo": 120.0
            },
            {
                "start_time": 5.9840909,
                "end_time": 6.0477273,
                "pitch": 64,
                "velocity": 51,
                "duration": 0.0636364,
                "tempo": 120.0
            },
            {
                "start_time": 6.0818182,
                "end_time": 6.4068182,
                "pitch": 64,
                "velocity": 51,
                "duration": 0.325,
                "tempo": 120.0
            },
            {
                "start_time": 6.4431818,
                "end_time": 6.5431818,
                "pitch": 63,
                "velocity": 51,
                "duration": 0.1,
                "tempo": 120.0
            },
            {
                "start_time": 8.7704545,
                "end_time": 8.8181818,
                "pitch": 64,
                "velocity": 51,
                "duration": 0.0477273,
                "tempo": 120.0
            },
            {
                "start_time": 8.85,
                "end_time": 8.9159091,
                "pitch": 64,
                "velocity": 51,
                "duration": 0.0659091,
                "tempo": 120.0
            },
            {
                "start_time": 8.95,
                "end_time": 9.2727273,
                "pitch": 64,
                "velocity": 51,
                "duration": 0.3227273,
                "tempo": 120.0
            },
            {
                "start_time": 9.3090909,
                "end_time": 9.3909091,
                "pitch": 63,
                "velocity": 51,
                "duration": 0.0818182,
                "tempo": 120.0
            },
            {
                "start_time": 23.0772727,
                "end_time": 23.1409091,
                "pitch": 63,
                "velocity": 51,
                "duration": 0.0636364,
                "tempo": 120.0
            },
            {
                "start_time": 23.1568182,
                "end_time": 23.2227273,
                "pitch": 63,
                "velocity": 51,
                "duration": 0.0659091,
                "tempo": 120.0
            },
            {
                "start_time": 23.2568182,
                "end_time": 23.5977273,
                "pitch": 62,
                "velocity": 51,
                "duration": 0.3409091,
                "tempo": 120.0
            }
        ],
        "Acoustic Bass": [
            {
                "start_time": 0.0045455,
                "end_time": 0.1477273,
                "pitch": 27,
                "velocity": 64,
                "duration": 0.1431818,
                "tempo": 120.0
            },
            {
                "start_time": 0.1818182,
                "end_time": 0.3272727,
                "pitch": 39,
                "velocity": 64,
                "duration": 0.1454545,
                "tempo": 120.0
            },
            {
                "start_time": 0.3590909,
                "end_time": 0.5090909,
                "pitch": 37,
                "velocity": 64,
                "duration": 0.15,
                "tempo": 120.0
            },
            {
                "start_time": 0.5431818,
                "end_time": 0.6931818,
                "pitch": 39,
                "velocity": 64,
                "duration": 0.15,
                "tempo": 120.0
            },
            {
                "start_time": 0.7113636,
                "end_time": 0.8568182,
                "pitch": 27,
                "velocity": 64,
                "duration": 0.1454545,
                "tempo": 120.0
            },
            {
                "start_time": 0.8909091,
                "end_time": 1.0363636,
                "pitch": 39,
                "velocity": 64,
                "duration": 0.1454545,
                "tempo": 120.0
            },
            {
                "start_time": 1.0681818,
                "end_time": 1.2227273,
                "pitch": 37,
                "velocity": 64,
                "duration": 0.1545455,
                "tempo": 120.0
            },
            {
                "start_time": 1.2568182,
                "end_time": 1.4113636,
                "pitch": 39,
                "velocity": 64,
                "duration": 0.1545455,
                "tempo": 120.0
            },
            {
                "start_time": 1.4295455,
                "end_time": 1.575,
                "pitch": 27,
                "velocity": 64,
                "duration": 0.1454545,
                "tempo": 120.0
            },
            {
                "start_time": 1.6068182,
                "end_time": 1.7545455,
                "pitch": 39,
                "velocity": 64,
                "duration": 0.1477273,
                "tempo": 120.0
            },
            {
                "start_time": 1.7863636,
                "end_time": 1.9363636,
                "pitch": 37,
                "velocity": 64,
                "duration": 0.15,
                "tempo": 120.0
            },
            {
                "start_time": 1.9704545,
                "end_time": 2.1204545,
                "pitch": 39,
                "velocity": 64,
                "duration": 0.15,
                "tempo": 120.0
            },
            {
                "start_time": 2.1386364,
                "end_time": 2.2840909,
                "pitch": 27,
                "velocity": 64,
                "duration": 0.1454545,
                "tempo": 120.0
            },
            {
                "start_time": 2.3181818,
                "end_time": 2.4636364,
                "pitch": 39,
                "velocity": 64,
                "duration": 0.1454545,
                "tempo": 120.0
            },
            {
                "start_time": 2.4954545,
                "end_time": 2.65,
                "pitch": 37,
                "velocity": 64,
                "duration": 0.1545455,
                "tempo": 120.0
            },
            {
                "start_time": 2.6840909,
                "end_time": 2.8386364,
                "pitch": 39,
                "velocity": 64,
                "duration": 0.1545455,
                "tempo": 120.0
            },
            {
                "start_time": 2.8568182,
                "end_time": 3.0022727,
                "pitch": 27,
                "velocity": 64,
                "duration": 0.1454545,
                "tempo": 120.0
            },
            {
                "start_time": 3.0363636,
                "end_time": 3.1818182,
                "pitch": 39,
                "velocity": 64,
                "duration": 0.1454545,
                "tempo": 120.0
            },
            {
                "start_time": 3.2159091,
                "end_time": 3.3681818,
                "pitch": 37,
                "velocity": 64,
                "duration": 0.1522727,
                "tempo": 120.0
            },
            {
                "start_time": 3.4022727,
                "end_time": 3.5568182,
                "pitch": 39,
                "velocity": 64,
                "duration": 0.1545455,
                "tempo": 120.0
            },
            {
                "start_time": 3.575,
                "end_time": 3.725,
                "pitch": 27,
                "velocity": 64,
                "duration": 0.15,
                "tempo": 120.0
            },
            {
                "start_time": 3.7590909,
                "end_time": 3.9090909,
                "pitch": 39,
                "velocity": 64,
                "duration": 0.15,
                "tempo": 120.0
            },
            {
                "start_time": 3.9431818,
                "end_time": 4.0931818,
                "pitch": 37,
                "velocity": 64,
                "duration": 0.15,
                "tempo": 120.0
            },
            {
                "start_time": 4.1272727,
                "end_time": 4.2613636,
                "pitch": 39,
                "velocity": 64,
                "duration": 0.1340909,
                "tempo": 120.0
            },
            {
                "start_time": 4.2954545,
                "end_time": 4.4409091,
                "pitch": 27,
                "velocity": 64,
                "duration": 0.1454545,
                "tempo": 120.0
            },
            {
                "start_time": 4.475,
                "end_time": 4.6204545,
                "pitch": 39,
                "velocity": 64,
                "duration": 0.1454545,
                "tempo": 120.0
            },
            {
                "start_time": 4.6522727,
                "end_time": 4.8045455,
                "pitch": 37,
                "velocity": 64,
                "duration": 0.1522727,
                "tempo": 120.0
            },
            {
                "start_time": 4.8204545,
                "end_time": 4.9704545,
                "pitch": 39,
                "velocity": 64,
                "duration": 0.15,
                "tempo": 120.0
            },
            {
                "start_time": 5.0045455,
                "end_time": 5.15,
                "pitch": 27,
                "velocity": 64,
                "duration": 0.1454545,
                "tempo": 120.0
            },
            {
                "start_time": 5.1840909,
                "end_time": 5.3295455,
                "pitch": 39,
                "velocity": 64,
                "duration": 0.1454545,
                "tempo": 120.0
            },
            {
                "start_time": 5.3636364,
                "end_time": 5.5159091,
                "pitch": 37,
                "velocity": 64,
                "duration": 0.1522727,
                "tempo": 120.0
            },
            {
                "start_time": 5.5340909,
                "end_time": 5.6886364,
                "pitch": 39,
                "velocity": 64,
                "duration": 0.1545455,
                "tempo": 120.0
            },
            {
                "start_time": 5.725,
                "end_time": 5.8704545,
                "pitch": 28,
                "velocity": 64,
                "duration": 0.1454545,
                "tempo": 120.0
            },
            {
                "start_time": 5.9022727,
                "end_time": 6.0477273,
                "pitch": 40,
                "velocity": 64,
                "duration": 0.1454545,
                "tempo": 120.0
            },
            {
                "start_time": 6.0818182,
                "end_time": 6.2340909,
                "pitch": 38,
                "velocity": 64,
                "duration": 0.1522727,
                "tempo": 120.0
            },
            {
                "start_time": 6.2522727,
                "end_time": 6.4068182,
                "pitch": 40,
                "velocity": 64,
                "duration": 0.1545455,
                "tempo": 120.0
            },
            {
                "start_time": 6.4431818,
                "end_time": 6.5931818,
                "pitch": 28,
                "velocity": 64,
                "duration": 0.15,
                "tempo": 120.0
            },
            {
                "start_time": 6.6272727,
                "end_time": 6.775,
                "pitch": 40,
                "velocity": 64,
                "duration": 0.1477273,
                "tempo": 120.0
            },
            {
                "start_time": 6.8090909,
                "end_time": 6.9613636,
                "pitch": 38,
                "velocity": 64,
                "duration": 0.1522727,
                "tempo": 120.0
            },
            {
                "start_time": 6.9772727,
                "end_time": 7.1272727,
                "pitch": 40,
                "velocity": 64,
                "duration": 0.15,
                "tempo": 120.0
            },
            {
                "start_time": 7.1613636,
                "end_time": 7.3068182,
                "pitch": 28,
                "velocity": 64,
                "duration": 0.1454545,
                "tempo": 120.0
            },
            {
                "start_time": 7.3409091,
                "end_time": 7.4863636,
                "pitch": 40,
                "velocity": 64,
                "duration": 0.1454545,
                "tempo": 120.0
            },
            {
                "start_time": 7.5204545,
                "end_time": 7.6704545,
                "pitch": 38,
                "velocity": 64,
                "duration": 0.15,
                "tempo": 120.0
            },
            {
                "start_time": 7.6863636,
                "end_time": 7.8386364,
                "pitch": 40,
                "velocity": 64,
                "duration": 0.1522727,
                "tempo": 120.0
            },
            {
                "start_time": 7.8704545,
                "end_time": 8.0181818,
                "pitch": 28,
                "velocity": 64,
                "duration": 0.1477273,
                "tempo": 120.0
            },
            {
                "start_time": 8.05,
                "end_time": 8.1954545,
                "pitch": 40,
                "velocity": 64,
                "duration": 0.1454545,
                "tempo": 120.0
            },
            {
                "start_time": 8.2295455,
                "end_time": 8.3840909,
                "pitch": 38,
                "velocity": 64,
                "duration": 0.1545455,
                "tempo": 120.0
            },
            {
                "start_time": 8.4,
                "end_time": 8.5545455,
                "pitch": 40,
                "velocity": 64,
                "duration": 0.1545455,
                "tempo": 120.0
            },
            {
                "start_time": 8.5909091,
                "end_time": 8.7363636,
                "pitch": 28,
                "velocity": 64,
                "duration": 0.1454545,
                "tempo": 120.0
            },
            {
                "start_time": 8.7681818,
                "end_time": 8.9159091,
                "pitch": 40,
                "velocity": 64,
                "duration": 0.1477273,
                "tempo": 120.0
            },
            {
                "start_time": 8.9477273,
                "end_time": 9.0840909,
                "pitch": 38,
                "velocity": 64,
                "duration": 0.1363636,
                "tempo": 120.0
            },
            {
                "start_time": 9.1181818,
                "end_time": 9.2727273,
                "pitch": 40,
                "velocity": 64,
                "duration": 0.1545455,
                "tempo": 120.0
            },
            {
                "start_time": 9.3090909,
                "end_time": 9.4590909,
                "pitch": 28,
                "velocity": 64,
                "duration": 0.15,
                "tempo": 120.0
            },
            {
                "start_time": 9.4931818,
                "end_time": 9.6431818,
                "pitch": 40,
                "velocity": 64,
                "duration": 0.15,
                "tempo": 120.0
            },
            {
                "start_time": 9.6772727,
                "end_time": 9.8090909,
                "pitch": 38,
                "velocity": 64,
                "duration": 0.1318182,
                "tempo": 120.0
            },
            {
                "start_time": 9.8431818,
                "end_time": 9.9954545,
                "pitch": 40,
                "velocity": 64,
                "duration": 0.1522727,
                "tempo": 120.0
            },
            {
                "start_time": 10.0272727,
                "end_time": 10.175,
                "pitch": 28,
                "velocity": 64,
                "duration": 0.1477273,
                "tempo": 120.0
            },
            {
                "start_time": 10.2068182,
                "end_time": 10.3522727,
                "pitch": 40,
                "velocity": 64,
                "duration": 0.1454545,
                "tempo": 120.0
            },
            {
                "start_time": 10.3704545,
                "end_time": 10.5159091,
                "pitch": 38,
                "velocity": 64,
                "duration": 0.1454545,
                "tempo": 120.0
            },
            {
                "start_time": 10.5477273,
                "end_time": 10.6954545,
                "pitch": 40,
                "velocity": 64,
                "duration": 0.1477273,
                "tempo": 120.0
            },
            {
                "start_time": 10.7272727,
                "end_time": 10.8772727,
                "pitch": 28,
                "velocity": 64,
                "duration": 0.15,
                "tempo": 120.0
            },
            {
                "start_time": 10.9113636,
                "end_time": 11.0613636,
                "pitch": 40,
                "velocity": 64,
                "duration": 0.15,
                "tempo": 120.0
            },
            {
                "start_time": 11.0795455,
                "end_time": 11.2295455,
                "pitch": 38,
                "velocity": 64,
                "duration": 0.15,
                "tempo": 120.0
            },
            {
                "start_time": 11.2636364,
                "end_time": 11.4136364,
                "pitch": 40,
                "velocity": 64,
                "duration": 0.15,
                "tempo": 120.0
            },
            {
                "start_time": 11.45,
                "end_time": 11.5977273,
                "pitch": 29,
                "velocity": 64,
                "duration": 0.1477273,
                "tempo": 120.0
            },
            {
                "start_time": 11.6340909,
                "end_time": 11.7840909,
                "pitch": 36,
                "velocity": 64,
                "duration": 0.15,
                "tempo": 120.0
            },
            {
                "start_time": 11.8,
                "end_time": 11.95,
                "pitch": 35,
                "velocity": 64,
                "duration": 0.15,
                "tempo": 120.0
            },
            {
                "start_time": 11.9840909,
                "end_time": 12.1340909,
                "pitch": 36,
                "velocity": 64,
                "duration": 0.15,
                "tempo": 120.0
            },
            {
                "start_time": 12.1704545,
                "end_time": 12.3181818,
                "pitch": 29,
                "velocity": 64,
                "duration": 0.1477273,
                "tempo": 120.0
            },
            {
                "start_time": 12.3522727,
                "end_time": 12.5022727,
                "pitch": 36,
                "velocity": 64,
                "duration": 0.15,
                "tempo": 120.0
            },
            {
                "start_time": 12.5204545,
                "end_time": 12.6659091,
                "pitch": 35,
                "velocity": 64,
                "duration": 0.1454545,
                "tempo": 120.0
            },
            {
                "start_time": 12.7,
                "end_time": 12.8454545,
                "pitch": 36,
                "velocity": 64,
                "duration": 0.1454545,
                "tempo": 120.0
            },
            {
                "start_time": 12.8772727,
                "end_time": 13.0318182,
                "pitch": 29,
                "velocity": 64,
                "duration": 0.1545455,
                "tempo": 120.0
            },
            {
                "start_time": 13.0681818,
                "end_time": 13.2204545,
                "pitch": 36,
                "velocity": 64,
                "duration": 0.1522727,
                "tempo": 120.0
            },
            {
                "start_time": 13.2386364,
                "end_time": 13.3840909,
                "pitch": 35,
                "velocity": 64,
                "duration": 0.1454545,
                "tempo": 120.0
            },
            {
                "start_time": 13.4181818,
                "end_time": 13.5636364,
                "pitch": 36,
                "velocity": 64,
                "duration": 0.1454545,
                "tempo": 120.0
            },
            {
                "start_time": 13.5977273,
                "end_time": 13.75,
                "pitch": 29,
                "velocity": 64,
                "duration": 0.1522727,
                "tempo": 120.0
            },
            {
                "start_time": 13.7863636,
                "end_time": 13.9386364,
                "pitch": 36,
                "velocity": 64,
                "duration": 0.1522727,
                "tempo": 120.0
            },
            {
                "start_time": 13.9568182,
                "end_time": 14.1022727,
                "pitch": 35,
                "velocity": 64,
                "duration": 0.1454545,
                "tempo": 120.0
            },
            {
                "start_time": 14.1363636,
                "end_time": 14.2818182,
                "pitch": 36,
                "velocity": 64,
                "duration": 0.1454545,
                "tempo": 120.0
            },
            {
                "start_time": 14.3159091,
                "end_time": 14.4659091,
                "pitch": 29,
                "velocity": 64,
                "duration": 0.15,
                "tempo": 120.0
            },
            {
                "start_time": 14.5,
                "end_time": 14.6318182,
                "pitch": 36,
                "velocity": 64,
                "duration": 0.1318182,
                "tempo": 120.0
            },
            {
                "start_time": 14.6659091,
                "end_time": 14.8159091,
                "pitch": 35,
                "velocity": 64,
                "duration": 0.15,
                "tempo": 120.0
            },
            {
                "start_time": 14.85,
                "end_time": 15.0,
                "pitch": 36,
                "velocity": 64,
                "duration": 0.15,
                "tempo": 120.0
            },
            {
                "start_time": 15.0363636,
                "end_time": 15.1863636,
                "pitch": 29,
                "velocity": 64,
                "duration": 0.15,
                "tempo": 120.0
            },
            {
                "start_time": 15.2022727,
                "end_time": 15.3522727,
                "pitch": 36,
                "velocity": 64,
                "duration": 0.15,
                "tempo": 120.0
            },
            {
                "start_time": 15.3863636,
                "end_time": 15.5318182,
                "pitch": 35,
                "velocity": 64,
                "duration": 0.1454545,
                "tempo": 120.0
            },
            {
                "start_time": 15.5659091,
                "end_time": 15.7113636,
                "pitch": 36,
                "velocity": 64,
                "duration": 0.1454545,
                "tempo": 120.0
            },
            {
                "start_time": 15.7431818,
                "end_time": 15.8977273,
                "pitch": 29,
                "velocity": 64,
                "duration": 0.1545455,
                "tempo": 120.0
            },
            {
                "start_time": 15.9159091,
                "end_time": 16.0704545,
                "pitch": 36,
                "velocity": 64,
                "duration": 0.1545455,
                "tempo": 120.0
            },
            {
                "start_time": 16.1045455,
                "end_time": 16.25,
                "pitch": 35,
                "velocity": 64,
                "duration": 0.1454545,
                "tempo": 120.0
            },
            {
                "start_time": 16.2840909,
                "end_time": 16.4295455,
                "pitch": 36,
                "velocity": 64,
                "duration": 0.1454545,
                "tempo": 120.0
            },
            {
                "start_time": 16.4636364,
                "end_time": 16.6159091,
                "pitch": 29,
                "velocity": 64,
                "duration": 0.1522727,
                "tempo": 120.0
            },
            {
                "start_time": 16.6340909,
                "end_time": 16.7886364,
                "pitch": 36,
                "velocity": 64,
                "duration": 0.1545455,
                "tempo": 120.0
            },
            {
                "start_time": 16.8227273,
                "end_time": 16.9681818,
                "pitch": 35,
                "velocity": 64,
                "duration": 0.1454545,
                "tempo": 120.0
            },
            {
                "start_time": 17.0022727,
                "end_time": 17.1477273,
                "pitch": 36,
                "velocity": 64,
                "duration": 0.1454545,
                "tempo": 120.0
            },
            {
                "start_time": 17.1818182,
                "end_time": 17.3318182,
                "pitch": 32,
                "velocity": 64,
                "duration": 0.15,
                "tempo": 120.0
            },
            {
                "start_time": 17.3477273,
                "end_time": 17.4977273,
                "pitch": 39,
                "velocity": 64,
                "duration": 0.15,
                "tempo": 120.0
            },
            {
                "start_time": 17.5340909,
                "end_time": 17.6840909,
                "pitch": 38,
                "velocity": 64,
                "duration": 0.15,
                "tempo": 120.0
            },
            {
                "start_time": 17.7181818,
                "end_time": 17.8681818,
                "pitch": 39,
                "velocity": 64,
                "duration": 0.15,
                "tempo": 120.0
            },
            {
                "start_time": 17.9022727,
                "end_time": 18.0522727,
                "pitch": 32,
                "velocity": 64,
                "duration": 0.15,
                "tempo": 120.0
            },
            {
                "start_time": 18.0681818,
                "end_time": 18.2181818,
                "pitch": 39,
                "velocity": 64,
                "duration": 0.15,
                "tempo": 120.0
            },
            {
                "start_time": 18.2545455,
                "end_time": 18.3977273,
                "pitch": 38,
                "velocity": 64,
                "duration": 0.1431818,
                "tempo": 120.0
            },
            {
                "start_time": 18.4318182,
                "end_time": 18.5772727,
                "pitch": 39,
                "velocity": 64,
                "duration": 0.1454545,
                "tempo": 120.0
            },
            {
                "start_time": 18.6113636,
                "end_time": 18.7636364,
                "pitch": 32,
                "velocity": 64,
                "duration": 0.1522727,
                "tempo": 120.0
            },
            {
                "start_time": 18.7818182,
                "end_time": 18.9363636,
                "pitch": 39,
                "velocity": 64,
                "duration": 0.1545455,
                "tempo": 120.0
            },
            {
                "start_time": 18.9727273,
                "end_time": 19.1159091,
                "pitch": 38,
                "velocity": 64,
                "duration": 0.1431818,
                "tempo": 120.0
            },
            {
                "start_time": 19.15,
                "end_time": 19.2954545,
                "pitch": 39,
                "velocity": 64,
                "duration": 0.1454545,
                "tempo": 120.0
            },
            {
                "start_time": 19.3295455,
                "end_time": 19.4659091,
                "pitch": 32,
                "velocity": 64,
                "duration": 0.1363636,
                "tempo": 120.0
            },
            {
                "start_time": 19.5,
                "end_time": 19.6545455,
                "pitch": 39,
                "velocity": 64,
                "duration": 0.1545455,
                "tempo": 120.0
            },
            {
                "start_time": 19.6886364,
                "end_time": 19.8340909,
                "pitch": 38,
                "velocity": 64,
                "duration": 0.1454545,
                "tempo": 120.0
            },
            {
                "start_time": 19.8681818,
                "end_time": 20.0136364,
                "pitch": 39,
                "velocity": 64,
                "duration": 0.1454545,
                "tempo": 120.0
            },
            {
                "start_time": 20.0477273,
                "end_time": 20.1840909,
                "pitch": 32,
                "velocity": 64,
                "duration": 0.1363636,
                "tempo": 120.0
            },
            {
                "start_time": 20.2181818,
                "end_time": 20.3727273,
                "pitch": 39,
                "velocity": 64,
                "duration": 0.1545455,
                "tempo": 120.0
            },
            {
                "start_time": 20.4068182,
                "end_time": 20.5522727,
                "pitch": 38,
                "velocity": 64,
                "duration": 0.1454545,
                "tempo": 120.0
            },
            {
                "start_time": 20.5863636,
                "end_time": 20.7318182,
                "pitch": 39,
                "velocity": 64,
                "duration": 0.1454545,
                "tempo": 120.0
            },
            {
                "start_time": 20.75,
                "end_time": 20.8954545,
                "pitch": 32,
                "velocity": 64,
                "duration": 0.1454545,
                "tempo": 120.0
            },
            {
                "start_time": 20.9272727,
                "end_time": 21.0727273,
                "pitch": 39,
                "velocity": 64,
                "duration": 0.1454545,
                "tempo": 120.0
            },
            {
                "start_time": 21.1068182,
                "end_time": 21.2568182,
                "pitch": 38,
                "velocity": 64,
                "duration": 0.15,
                "tempo": 120.0
            },
            {
                "start_time": 21.2909091,
                "end_time": 21.4409091,
                "pitch": 39,
                "velocity": 64,
                "duration": 0.15,
                "tempo": 120.0
            },
            {
                "start_time": 21.4590909,
                "end_time": 21.6090909,
                "pitch": 32,
                "velocity": 64,
                "duration": 0.15,
                "tempo": 120.0
            },
            {
                "start_time": 21.6431818,
                "end_time": 21.7931818,
                "pitch": 39,
                "velocity": 64,
                "duration": 0.15,
                "tempo": 120.0
            },
            {
                "start_time": 21.8272727,
                "end_time": 21.9772727,
                "pitch": 38,
                "velocity": 64,
                "duration": 0.15,
                "tempo": 120.0
            },
            {
                "start_time": 22.0113636,
                "end_time": 22.1613636,
                "pitch": 39,
                "velocity": 64,
                "duration": 0.15,
                "tempo": 120.0
            },
            {
                "start_time": 22.1795455,
                "end_time": 22.325,
                "pitch": 32,
                "velocity": 64,
                "duration": 0.1454545,
                "tempo": 120.0
            },
            {
                "start_time": 22.3590909,
                "end_time": 22.5045455,
                "pitch": 39,
                "velocity": 64,
                "duration": 0.1454545,
                "tempo": 120.0
            },
            {
                "start_time": 22.5363636,
                "end_time": 22.6909091,
                "pitch": 38,
                "velocity": 64,
                "duration": 0.1545455,
                "tempo": 120.0
            },
            {
                "start_time": 22.725,
                "end_time": 22.8795455,
                "pitch": 39,
                "velocity": 64,
                "duration": 0.1545455,
                "tempo": 120.0
            },
            {
                "start_time": 22.9,
                "end_time": 23.0431818,
                "pitch": 27,
                "velocity": 64,
                "duration": 0.1431818,
                "tempo": 120.0
            },
            {
                "start_time": 23.0772727,
                "end_time": 23.2227273,
                "pitch": 39,
                "velocity": 64,
                "duration": 0.1454545,
                "tempo": 120.0
            },
            {
                "start_time": 23.2545455,
                "end_time": 23.4090909,
                "pitch": 37,
                "velocity": 64,
                "duration": 0.1545455,
                "tempo": 120.0
            },
            {
                "start_time": 23.4431818,
                "end_time": 23.5977273,
                "pitch": 39,
                "velocity": 64,
                "duration": 0.1545455,
                "tempo": 120.0
            }
        ],
        "Vibraphone": [
            {
                "start_time": 0.1818182,
                "end_time": 0.2454545,
                "pitch": 94,
                "velocity": 51,
                "duration": 0.0636364,
                "tempo": 120.0
            },
            {
                "start_time": 0.2795455,
                "end_time": 0.3272727,
                "pitch": 94,
                "velocity": 51,
                "duration": 0.0477273,
                "tempo": 120.0
            },
            {
                "start_time": 0.3590909,
                "end_time": 0.6931818,
                "pitch": 94,
                "velocity": 51,
                "duration": 0.3340909,
                "tempo": 120.0
            },
            {
                "start_time": 0.7113636,
                "end_time": 0.8090909,
                "pitch": 93,
                "velocity": 51,
                "duration": 0.0977273,
                "tempo": 120.0
            },
            {
                "start_time": 3.0363636,
                "end_time": 3.1,
                "pitch": 94,
                "velocity": 51,
                "duration": 0.0636364,
                "tempo": 120.0
            },
            {
                "start_time": 3.1181818,
                "end_time": 3.1818182,
                "pitch": 94,
                "velocity": 51,
                "duration": 0.0636364,
                "tempo": 120.0
            },
            {
                "start_time": 3.2159091,
                "end_time": 3.5568182,
                "pitch": 94,
                "velocity": 51,
                "duration": 0.3409091,
                "tempo": 120.0
            },
            {
                "start_time": 3.5772727,
                "end_time": 3.675,
                "pitch": 93,
                "velocity": 51,
                "duration": 0.0977273,
                "tempo": 120.0
            },
            {
                "start_time": 5.9022727,
                "end_time": 5.9681818,
                "pitch": 95,
                "velocity": 51,
                "duration": 0.0659091,
                "tempo": 120.0
            },
            {
                "start_time": 5.9840909,
                "end_time": 6.0477273,
                "pitch": 95,
                "velocity": 51,
                "duration": 0.0636364,
                "tempo": 120.0
            },
            {
                "start_time": 6.0818182,
                "end_time": 6.4068182,
                "pitch": 95,
                "velocity": 51,
                "duration": 0.325,
                "tempo": 120.0
            },
            {
                "start_time": 6.4431818,
                "end_time": 6.5431818,
                "pitch": 94,
                "velocity": 51,
                "duration": 0.1,
                "tempo": 120.0
            },
            {
                "start_time": 8.7704545,
                "end_time": 8.8181818,
                "pitch": 95,
                "velocity": 51,
                "duration": 0.0477273,
                "tempo": 120.0
            },
            {
                "start_time": 8.85,
                "end_time": 8.9159091,
                "pitch": 95,
                "velocity": 51,
                "duration": 0.0659091,
                "tempo": 120.0
            },
            {
                "start_time": 8.9477273,
                "end_time": 9.2727273,
                "pitch": 95,
                "velocity": 51,
                "duration": 0.325,
                "tempo": 120.0
            },
            {
                "start_time": 9.3090909,
                "end_time": 9.3909091,
                "pitch": 94,
                "velocity": 51,
                "duration": 0.0818182,
                "tempo": 120.0
            },
            {
                "start_time": 11.6340909,
                "end_time": 11.7840909,
                "pitch": 77,
                "velocity": 51,
                "duration": 0.15,
                "tempo": 120.0
            },
            {
                "start_time": 11.8,
                "end_time": 11.95,
                "pitch": 80,
                "velocity": 51,
                "duration": 0.15,
                "tempo": 120.0
            },
            {
                "start_time": 11.9863636,
                "end_time": 12.1340909,
                "pitch": 84,
                "velocity": 51,
                "duration": 0.1477273,
                "tempo": 120.0
            },
            {
                "start_time": 12.1704545,
                "end_time": 12.3181818,
                "pitch": 83,
                "velocity": 51,
                "duration": 0.1477273,
                "tempo": 120.0
            },
            {
                "start_time": 12.3545455,
                "end_time": 12.5045455,
                "pitch": 79,
                "velocity": 51,
                "duration": 0.15,
                "tempo": 120.0
            },
            {
                "start_time": 12.7,
                "end_time": 13.0318182,
                "pitch": 83,
                "velocity": 51,
                "duration": 0.3318182,
                "tempo": 120.0
            },
            {
                "start_time": 13.0681818,
                "end_time": 13.2204545,
                "pitch": 84,
                "velocity": 51,
                "duration": 0.1522727,
                "tempo": 120.0
            },
            {
                "start_time": 13.2386364,
                "end_time": 13.3840909,
                "pitch": 83,
                "velocity": 51,
                "duration": 0.1454545,
                "tempo": 120.0
            },
            {
                "start_time": 13.4181818,
                "end_time": 13.5636364,
                "pitch": 79,
                "velocity": 51,
                "duration": 0.1454545,
                "tempo": 120.0
            },
            {
                "start_time": 13.5977273,
                "end_time": 13.75,
                "pitch": 82,
                "velocity": 51,
                "duration": 0.1522727,
                "tempo": 120.0
            },
            {
                "start_time": 13.7863636,
                "end_time": 13.9386364,
                "pitch": 79,
                "velocity": 51,
                "duration": 0.1522727,
                "tempo": 120.0
            },
            {
                "start_time": 14.5,
                "end_time": 14.6318182,
                "pitch": 77,
                "velocity": 51,
                "duration": 0.1318182,
                "tempo": 120.0
            },
            {
                "start_time": 14.6681818,
                "end_time": 14.8159091,
                "pitch": 80,
                "velocity": 51,
                "duration": 0.1477273,
                "tempo": 120.0
            },
            {
                "start_time": 14.8522727,
                "end_time": 15.0022727,
                "pitch": 84,
                "velocity": 51,
                "duration": 0.15,
                "tempo": 120.0
            },
            {
                "start_time": 15.0363636,
                "end_time": 15.1863636,
                "pitch": 83,
                "velocity": 51,
                "duration": 0.15,
                "tempo": 120.0
            },
            {
                "start_time": 15.2022727,
                "end_time": 15.3522727,
                "pitch": 79,
                "velocity": 51,
                "duration": 0.15,
                "tempo": 120.0
            },
            {
                "start_time": 15.5659091,
                "end_time": 15.8977273,
                "pitch": 83,
                "velocity": 51,
                "duration": 0.3318182,
                "tempo": 120.0
            },
            {
                "start_time": 15.9159091,
                "end_time": 16.0704545,
                "pitch": 84,
                "velocity": 51,
                "duration": 0.1545455,
                "tempo": 120.0
            },
            {
                "start_time": 16.1068182,
                "end_time": 16.25,
                "pitch": 83,
                "velocity": 51,
                "duration": 0.1431818,
                "tempo": 120.0
            },
            {
                "start_time": 16.2840909,
                "end_time": 16.4295455,
                "pitch": 79,
                "velocity": 51,
                "duration": 0.1454545,
                "tempo": 120.0
            },
            {
                "start_time": 16.4636364,
                "end_time": 16.6159091,
                "pitch": 82,
                "velocity": 51,
                "duration": 0.1522727,
                "tempo": 120.0
            },
            {
                "start_time": 16.6340909,
                "end_time": 16.7886364,
                "pitch": 79,
                "velocity": 51,
                "duration": 0.1545455,
                "tempo": 120.0
            },
            {
                "start_time": 17.1818182,
                "end_time": 17.3318182,
                "pitch": 87,
                "velocity": 51,
                "duration": 0.15,
                "tempo": 120.0
            },
            {
                "start_time": 17.35,
                "end_time": 17.5,
                "pitch": 83,
                "velocity": 51,
                "duration": 0.15,
                "tempo": 120.0
            },
            {
                "start_time": 17.5340909,
                "end_time": 17.6840909,
                "pitch": 87,
                "velocity": 40,
                "duration": 0.15,
                "tempo": 120.0
            },
            {
                "start_time": 17.7181818,
                "end_time": 17.8681818,
                "pitch": 83,
                "velocity": 40,
                "duration": 0.15,
                "tempo": 120.0
            },
            {
                "start_time": 17.9022727,
                "end_time": 18.0522727,
                "pitch": 87,
                "velocity": 32,
                "duration": 0.15,
                "tempo": 120.0
            },
            {
                "start_time": 18.0704545,
                "end_time": 18.2181818,
                "pitch": 83,
                "velocity": 32,
                "duration": 0.1477273,
                "tempo": 120.0
            },
            {
                "start_time": 18.2545455,
                "end_time": 18.4,
                "pitch": 87,
                "velocity": 25,
                "duration": 0.1454545,
                "tempo": 120.0
            },
            {
                "start_time": 18.4318182,
                "end_time": 18.5772727,
                "pitch": 83,
                "velocity": 25,
                "duration": 0.1454545,
                "tempo": 120.0
            },
            {
                "start_time": 18.6113636,
                "end_time": 18.7659091,
                "pitch": 86,
                "velocity": 51,
                "duration": 0.1545455,
                "tempo": 120.0
            },
            {
                "start_time": 18.7840909,
                "end_time": 18.9363636,
                "pitch": 82,
                "velocity": 51,
                "duration": 0.1522727,
                "tempo": 120.0
            },
            {
                "start_time": 18.9727273,
                "end_time": 19.1181818,
                "pitch": 86,
                "velocity": 40,
                "duration": 0.1454545,
                "tempo": 120.0
            },
            {
                "start_time": 19.15,
                "end_time": 19.2954545,
                "pitch": 82,
                "velocity": 40,
                "duration": 0.1454545,
                "tempo": 120.0
            },
            {
                "start_time": 19.3295455,
                "end_time": 19.4659091,
                "pitch": 86,
                "velocity": 32,
                "duration": 0.1363636,
                "tempo": 120.0
            },
            {
                "start_time": 19.5022727,
                "end_time": 19.6545455,
                "pitch": 82,
                "velocity": 32,
                "duration": 0.1522727,
                "tempo": 120.0
            },
            {
                "start_time": 19.6909091,
                "end_time": 19.8363636,
                "pitch": 86,
                "velocity": 25,
                "duration": 0.1454545,
                "tempo": 120.0
            },
            {
                "start_time": 19.8681818,
                "end_time": 20.0136364,
                "pitch": 82,
                "velocity": 25,
                "duration": 0.1454545,
                "tempo": 120.0
            },
            {
                "start_time": 20.0477273,
                "end_time": 20.1840909,
                "pitch": 87,
                "velocity": 51,
                "duration": 0.1363636,
                "tempo": 120.0
            },
            {
                "start_time": 20.2181818,
                "end_time": 20.3727273,
                "pitch": 83,
                "velocity": 51,
                "duration": 0.1545455,
                "tempo": 120.0
            },
            {
                "start_time": 20.4090909,
                "end_time": 20.5545455,
                "pitch": 87,
                "velocity": 40,
                "duration": 0.1454545,
                "tempo": 120.0
            },
            {
                "start_time": 20.5863636,
                "end_time": 20.7318182,
                "pitch": 83,
                "velocity": 40,
                "duration": 0.1454545,
                "tempo": 120.0
            },
            {
                "start_time": 20.75,
                "end_time": 20.8954545,
                "pitch": 87,
                "velocity": 32,
                "duration": 0.1454545,
                "tempo": 120.0
            },
            {
                "start_time": 20.9295455,
                "end_time": 21.075,
                "pitch": 83,
                "velocity": 32,
                "duration": 0.1454545,
                "tempo": 120.0
            },
            {
                "start_time": 21.1090909,
                "end_time": 21.2568182,
                "pitch": 87,
                "velocity": 25,
                "duration": 0.1477273,
                "tempo": 120.0
            },
            {
                "start_time": 21.2909091,
                "end_time": 21.4409091,
                "pitch": 83,
                "velocity": 25,
                "duration": 0.15,
                "tempo": 120.0
            },
            {
                "start_time": 21.4590909,
                "end_time": 21.6090909,
                "pitch": 86,
                "velocity": 51,
                "duration": 0.15,
                "tempo": 120.0
            },
            {
                "start_time": 21.6431818,
                "end_time": 21.7931818,
                "pitch": 82,
                "velocity": 51,
                "duration": 0.15,
                "tempo": 120.0
            },
            {
                "start_time": 21.8272727,
                "end_time": 21.9772727,
                "pitch": 86,
                "velocity": 40,
                "duration": 0.15,
                "tempo": 120.0
            },
            {
                "start_time": 22.0113636,
                "end_time": 22.1613636,
                "pitch": 82,
                "velocity": 40,
                "duration": 0.15,
                "tempo": 120.0
            },
            {
                "start_time": 22.1795455,
                "end_time": 22.325,
                "pitch": 86,
                "velocity": 32,
                "duration": 0.1454545,
                "tempo": 120.0
            },
            {
                "start_time": 22.3590909,
                "end_time": 22.5045455,
                "pitch": 82,
                "velocity": 32,
                "duration": 0.1454545,
                "tempo": 120.0
            },
            {
                "start_time": 22.5386364,
                "end_time": 22.6909091,
                "pitch": 86,
                "velocity": 25,
                "duration": 0.1522727,
                "tempo": 120.0
            },
            {
                "start_time": 22.725,
                "end_time": 22.8795455,
                "pitch": 82,
                "velocity": 25,
                "duration": 0.1545455,
                "tempo": 120.0
            },
            {
                "start_time": 23.0772727,
                "end_time": 23.1409091,
                "pitch": 94,
                "velocity": 51,
                "duration": 0.0636364,
                "tempo": 120.0
            },
            {
                "start_time": 23.1568182,
                "end_time": 23.2227273,
                "pitch": 94,
                "velocity": 51,
                "duration": 0.0659091,
                "tempo": 120.0
            },
            {
                "start_time": 23.2545455,
                "end_time": 23.5977273,
                "pitch": 94,
                "velocity": 51,
                "duration": 0.3431818,
                "tempo": 120.0
            }
        ],
        "Flute": [
            {
                "start_time": 0.7136364,
                "end_time": 0.775,
                "pitch": 57,
                "velocity": 101,
                "duration": 0.0613636,
                "tempo": 120.0
            },
            {
                "start_time": 0.8090909,
                "end_time": 0.8568182,
                "pitch": 57,
                "velocity": 101,
                "duration": 0.0477273,
                "tempo": 120.0
            },
            {
                "start_time": 0.8909091,
                "end_time": 0.9545455,
                "pitch": 57,
                "velocity": 80,
                "duration": 0.0636364,
                "tempo": 120.0
            },
            {
                "start_time": 0.9863636,
                "end_time": 1.0363636,
                "pitch": 57,
                "velocity": 80,
                "duration": 0.05,
                "tempo": 120.0
            },
            {
                "start_time": 1.0681818,
                "end_time": 1.1363636,
                "pitch": 57,
                "velocity": 64,
                "duration": 0.0681818,
                "tempo": 120.0
            },
            {
                "start_time": 1.1545455,
                "end_time": 1.2227273,
                "pitch": 57,
                "velocity": 64,
                "duration": 0.0681818,
                "tempo": 120.0
            },
            {
                "start_time": 1.2568182,
                "end_time": 1.3090909,
                "pitch": 57,
                "velocity": 51,
                "duration": 0.0522727,
                "tempo": 120.0
            },
            {
                "start_time": 1.3431818,
                "end_time": 1.4113636,
                "pitch": 57,
                "velocity": 51,
                "duration": 0.0681818,
                "tempo": 120.0
            },
            {
                "start_time": 2.1386364,
                "end_time": 2.2022727,
                "pitch": 57,
                "velocity": 101,
                "duration": 0.0636364,
                "tempo": 120.0
            },
            {
                "start_time": 2.2363636,
                "end_time": 2.2840909,
                "pitch": 57,
                "velocity": 101,
                "duration": 0.0477273,
                "tempo": 120.0
            },
            {
                "start_time": 2.3181818,
                "end_time": 2.3818182,
                "pitch": 57,
                "velocity": 80,
                "duration": 0.0636364,
                "tempo": 120.0
            },
            {
                "start_time": 2.3977273,
                "end_time": 2.4636364,
                "pitch": 57,
                "velocity": 80,
                "duration": 0.0659091,
                "tempo": 120.0
            },
            {
                "start_time": 2.4977273,
                "end_time": 2.5477273,
                "pitch": 57,
                "velocity": 64,
                "duration": 0.05,
                "tempo": 120.0
            },
            {
                "start_time": 2.5818182,
                "end_time": 2.65,
                "pitch": 57,
                "velocity": 64,
                "duration": 0.0681818,
                "tempo": 120.0
            },
            {
                "start_time": 2.6863636,
                "end_time": 2.7363636,
                "pitch": 57,
                "velocity": 51,
                "duration": 0.05,
                "tempo": 120.0
            },
            {
                "start_time": 2.7727273,
                "end_time": 2.8409091,
                "pitch": 57,
                "velocity": 51,
                "duration": 0.0681818,
                "tempo": 120.0
            },
            {
                "start_time": 3.5772727,
                "end_time": 3.6409091,
                "pitch": 57,
                "velocity": 101,
                "duration": 0.0636364,
                "tempo": 120.0
            },
            {
                "start_time": 3.6772727,
                "end_time": 3.7272727,
                "pitch": 57,
                "velocity": 101,
                "duration": 0.05,
                "tempo": 120.0
            },
            {
                "start_time": 3.7613636,
                "end_time": 3.8272727,
                "pitch": 57,
                "velocity": 80,
                "duration": 0.0659091,
                "tempo": 120.0
            },
            {
                "start_time": 3.8431818,
                "end_time": 3.9090909,
                "pitch": 57,
                "velocity": 80,
                "duration": 0.0659091,
                "tempo": 120.0
            },
            {
                "start_time": 3.9431818,
                "end_time": 3.9931818,
                "pitch": 57,
                "velocity": 64,
                "duration": 0.05,
                "tempo": 120.0
            },
            {
                "start_time": 4.0272727,
                "end_time": 4.0954545,
                "pitch": 57,
                "velocity": 64,
                "duration": 0.0681818,
                "tempo": 120.0
            },
            {
                "start_time": 4.1295455,
                "end_time": 4.1772727,
                "pitch": 57,
                "velocity": 51,
                "duration": 0.0477273,
                "tempo": 120.0
            },
            {
                "start_time": 4.2113636,
                "end_time": 4.2613636,
                "pitch": 57,
                "velocity": 51,
                "duration": 0.05,
                "tempo": 120.0
            },
            {
                "start_time": 5.0068182,
                "end_time": 5.0704545,
                "pitch": 57,
                "velocity": 101,
                "duration": 0.0636364,
                "tempo": 120.0
            },
            {
                "start_time": 5.1022727,
                "end_time": 5.1522727,
                "pitch": 57,
                "velocity": 101,
                "duration": 0.05,
                "tempo": 120.0
            },
            {
                "start_time": 5.1840909,
                "end_time": 5.2477273,
                "pitch": 57,
                "velocity": 80,
                "duration": 0.0636364,
                "tempo": 120.0
            },
            {
                "start_time": 5.2659091,
                "end_time": 5.3295455,
                "pitch": 57,
                "velocity": 80,
                "duration": 0.0636364,
                "tempo": 120.0
            },
            {
                "start_time": 5.3636364,
                "end_time": 5.4136364,
                "pitch": 57,
                "velocity": 64,
                "duration": 0.05,
                "tempo": 120.0
            },
            {
                "start_time": 5.4477273,
                "end_time": 5.5181818,
                "pitch": 57,
                "velocity": 64,
                "duration": 0.0704545,
                "tempo": 120.0
            },
            {
                "start_time": 5.5340909,
                "end_time": 5.6022727,
                "pitch": 57,
                "velocity": 51,
                "duration": 0.0681818,
                "tempo": 120.0
            },
            {
                "start_time": 5.6386364,
                "end_time": 5.6886364,
                "pitch": 57,
                "velocity": 51,
                "duration": 0.05,
                "tempo": 120.0
            },
            {
                "start_time": 6.4431818,
                "end_time": 6.5090909,
                "pitch": 58,
                "velocity": 101,
                "duration": 0.0659091,
                "tempo": 120.0
            },
            {
                "start_time": 6.5431818,
                "end_time": 6.5931818,
                "pitch": 58,
                "velocity": 101,
                "duration": 0.05,
                "tempo": 120.0
            },
            {
                "start_time": 6.6272727,
                "end_time": 6.675,
                "pitch": 58,
                "velocity": 80,
                "duration": 0.0477273,
                "tempo": 120.0
            },
            {
                "start_time": 6.7090909,
                "end_time": 6.7772727,
                "pitch": 58,
                "velocity": 80,
                "duration": 0.0681818,
                "tempo": 120.0
            },
            {
                "start_time": 6.8113636,
                "end_time": 6.8590909,
                "pitch": 58,
                "velocity": 64,
                "duration": 0.0477273,
                "tempo": 120.0
            },
            {
                "start_time": 6.8931818,
                "end_time": 6.9613636,
                "pitch": 58,
                "velocity": 64,
                "duration": 0.0681818,
                "tempo": 120.0
            },
            {
                "start_time": 6.9772727,
                "end_time": 7.0454545,
                "pitch": 58,
                "velocity": 51,
                "duration": 0.0681818,
                "tempo": 120.0
            },
            {
                "start_time": 7.0772727,
                "end_time": 7.1272727,
                "pitch": 58,
                "velocity": 51,
                "duration": 0.05,
                "tempo": 120.0
            },
            {
                "start_time": 7.8727273,
                "end_time": 7.9363636,
                "pitch": 58,
                "velocity": 101,
                "duration": 0.0636364,
                "tempo": 120.0
            },
            {
                "start_time": 7.9522727,
                "end_time": 8.0181818,
                "pitch": 58,
                "velocity": 101,
                "duration": 0.0659091,
                "tempo": 120.0
            },
            {
                "start_time": 8.05,
                "end_time": 8.1,
                "pitch": 58,
                "velocity": 80,
                "duration": 0.05,
                "tempo": 120.0
            },
            {
                "start_time": 8.1318182,
                "end_time": 8.1977273,
                "pitch": 58,
                "velocity": 80,
                "duration": 0.0659091,
                "tempo": 120.0
            },
            {
                "start_time": 8.2295455,
                "end_time": 8.2795455,
                "pitch": 58,
                "velocity": 64,
                "duration": 0.05,
                "tempo": 120.0
            },
            {
                "start_time": 8.3159091,
                "end_time": 8.3840909,
                "pitch": 58,
                "velocity": 64,
                "duration": 0.0681818,
                "tempo": 120.0
            },
            {
                "start_time": 8.4022727,
                "end_time": 8.4704545,
                "pitch": 58,
                "velocity": 51,
                "duration": 0.0681818,
                "tempo": 120.0
            },
            {
                "start_time": 8.5045455,
                "end_time": 8.5568182,
                "pitch": 58,
                "velocity": 51,
                "duration": 0.0522727,
                "tempo": 120.0
            },
            {
                "start_time": 9.3113636,
                "end_time": 9.375,
                "pitch": 58,
                "velocity": 101,
                "duration": 0.0636364,
                "tempo": 120.0
            },
            {
                "start_time": 9.3931818,
                "end_time": 9.4590909,
                "pitch": 58,
                "velocity": 101,
                "duration": 0.0659091,
                "tempo": 120.0
            },
            {
                "start_time": 9.4931818,
                "end_time": 9.5431818,
                "pitch": 58,
                "velocity": 80,
                "duration": 0.05,
                "tempo": 120.0
            },
            {
                "start_time": 9.575,
                "end_time": 9.6431818,
                "pitch": 58,
                "velocity": 80,
                "duration": 0.0681818,
                "tempo": 120.0
            },
            {
                "start_time": 9.6772727,
                "end_time": 9.7272727,
                "pitch": 58,
                "velocity": 64,
                "duration": 0.05,
                "tempo": 120.0
            },
            {
                "start_time": 9.7613636,
                "end_time": 9.8113636,
                "pitch": 58,
                "velocity": 64,
                "duration": 0.05,
                "tempo": 120.0
            },
            {
                "start_time": 9.8454545,
                "end_time": 9.9113636,
                "pitch": 58,
                "velocity": 51,
                "duration": 0.0659091,
                "tempo": 120.0
            },
            {
                "start_time": 9.9454545,
                "end_time": 9.9954545,
                "pitch": 58,
                "velocity": 51,
                "duration": 0.05,
                "tempo": 120.0
            },
            {
                "start_time": 10.7295455,
                "end_time": 10.7954545,
                "pitch": 58,
                "velocity": 101,
                "duration": 0.0659091,
                "tempo": 120.0
            },
            {
                "start_time": 10.8113636,
                "end_time": 10.8795455,
                "pitch": 58,
                "velocity": 101,
                "duration": 0.0681818,
                "tempo": 120.0
            },
            {
                "start_time": 10.9136364,
                "end_time": 10.9613636,
                "pitch": 58,
                "velocity": 80,
                "duration": 0.0477273,
                "tempo": 120.0
            },
            {
                "start_time": 10.9954545,
                "end_time": 11.0636364,
                "pitch": 58,
                "velocity": 80,
                "duration": 0.0681818,
                "tempo": 120.0
            },
            {
                "start_time": 11.0795455,
                "end_time": 11.1454545,
                "pitch": 58,
                "velocity": 64,
                "duration": 0.0659091,
                "tempo": 120.0
            },
            {
                "start_time": 11.1795455,
                "end_time": 11.2295455,
                "pitch": 58,
                "velocity": 64,
                "duration": 0.05,
                "tempo": 120.0
            },
            {
                "start_time": 11.2636364,
                "end_time": 11.3295455,
                "pitch": 58,
                "velocity": 51,
                "duration": 0.0659091,
                "tempo": 120.0
            },
            {
                "start_time": 11.3659091,
                "end_time": 11.4159091,
                "pitch": 58,
                "velocity": 51,
                "duration": 0.05,
                "tempo": 120.0
            },
            {
                "start_time": 11.4522727,
                "end_time": 12.1363636,
                "pitch": 56,
                "velocity": 64,
                "duration": 0.6840909,
                "tempo": 120.0
            },
            {
                "start_time": 12.1704545,
                "end_time": 12.8454545,
                "pitch": 55,
                "velocity": 64,
                "duration": 0.675,
                "tempo": 120.0
            },
            {
                "start_time": 12.8795455,
                "end_time": 13.5636364,
                "pitch": 56,
                "velocity": 64,
                "duration": 0.6840909,
                "tempo": 120.0
            },
            {
                "start_time": 13.5977273,
                "end_time": 14.2818182,
                "pitch": 55,
                "velocity": 64,
                "duration": 0.6840909,
                "tempo": 120.0
            },
            {
                "start_time": 14.3159091,
                "end_time": 15.0022727,
                "pitch": 56,
                "velocity": 64,
                "duration": 0.6863636,
                "tempo": 120.0
            },
            {
                "start_time": 15.0363636,
                "end_time": 15.7113636,
                "pitch": 55,
                "velocity": 64,
                "duration": 0.675,
                "tempo": 120.0
            },
            {
                "start_time": 15.7454545,
                "end_time": 16.4295455,
                "pitch": 56,
                "velocity": 64,
                "duration": 0.6840909,
                "tempo": 120.0
            },
            {
                "start_time": 16.4636364,
                "end_time": 17.1477273,
                "pitch": 55,
                "velocity": 64,
                "duration": 0.6840909,
                "tempo": 120.0
            },
            {
                "start_time": 17.1840909,
                "end_time": 17.8681818,
                "pitch": 63,
                "velocity": 40,
                "duration": 0.6840909,
                "tempo": 120.0
            },
            {
                "start_time": 17.9045455,
                "end_time": 18.5795455,
                "pitch": 71,
                "velocity": 64,
                "duration": 0.675,
                "tempo": 120.0
            },
            {
                "start_time": 18.6136364,
                "end_time": 19.2977273,
                "pitch": 62,
                "velocity": 40,
                "duration": 0.6840909,
                "tempo": 120.0
            },
            {
                "start_time": 19.3318182,
                "end_time": 20.0159091,
                "pitch": 70,
                "velocity": 64,
                "duration": 0.6840909,
                "tempo": 120.0
            },
            {
                "start_time": 20.05,
                "end_time": 20.7340909,
                "pitch": 63,
                "velocity": 40,
                "duration": 0.6840909,
                "tempo": 120.0
            },
            {
                "start_time": 20.7522727,
                "end_time": 21.4431818,
                "pitch": 71,
                "velocity": 64,
                "duration": 0.6909091,
                "tempo": 120.0
            },
            {
                "start_time": 21.4613636,
                "end_time": 22.1613636,
                "pitch": 62,
                "velocity": 40,
                "duration": 0.7,
                "tempo": 120.0
            },
            {
                "start_time": 22.1818182,
                "end_time": 22.8795455,
                "pitch": 70,
                "velocity": 64,
                "duration": 0.6977273,
                "tempo": 120.0
            }
        ]
    }
}