{
    "mood": "angry",
    "instruments": {
        "Acoustic Bass": [
            {
                "start_time": 0.0181818,
                "end_time": 0.2227273,
                "pitch": 37,
                "velocity": 101,
                "duration": 0.2045455,
                "tempo": 120.0
            },
            {
                "start_time": 0.2227273,
                "end_time": 0.4227273,
                "pitch": 37,
                "velocity": 101,
                "duration": 0.2,
                "tempo": 120.0
            },
            {
                "start_time": 0.4227273,
                "end_time": 0.6409091,
                "pitch": 37,
                "velocity": 101,
                "duration": 0.2181818,
                "tempo": 120.0
            },
            {
                "start_time": 0.6409091,
                "end_time": 0.8363636,
                "pitch": 38,
                "velocity": 101,
                "duration": 0.1954545,
                "tempo": 120.0
            },
            {
                "start_time": 0.8363636,
                "end_time": 1.0477273,
                "pitch": 38,
                "velocity": 101,
                "duration": 0.2113636,
                "tempo": 120.0
            },
            {
                "start_time": 1.0477273,
                "end_time": 1.2477273,
                "pitch": 37,
                "velocity": 101,
                "duration": 0.2,
                "tempo": 120.0
            },
            {
                "start_time": 1.2477273,
                "end_time": 1.4659091,
                "pitch": 37,
                "velocity": 101,
                "duration": 0.2181818,
                "tempo": 120.0
            },
            {
                "start_time": 1.4659091,
                "end_time": 1.6613636,
                "pitch": 38,
                "velocity": 101,
                "duration": 0.1954545,
                "tempo": 120.0
            },
            {
                "start_time": 1.6613636,
                "end_time": 1.8704545,
                "pitch": 38,
                "velocity": 101,
                "duration": 0.2090909,
                "tempo": 120.0
            },
            {
                "start_time": 1.8704545,
                "end_time": 2.0727273,
                "pitch": 37,
                "velocity": 101,
                "duration": 0.2022727,
                "tempo": 120.0
            },
            {
                "start_time": 2.0727273,
                "end_time": 2.2886364,
                "pitch": 37,
                "velocity": 101,
                "duration": 0.2159091,
                "tempo": 120.0
            },
            {
                "start_time": 2.2886364,
                "end_time": 2.4840909,
                "pitch": 38,
                "velocity": 101,
                "duration": 0.1954545,
                "tempo": 120.0
            },
            {
                "start_time": 2.4840909,
                "end_time": 2.6954545,
                "pitch": 38,
                "velocity": 101,
                "duration": 0.2113636,
                "tempo": 120.0
            },
            {
                "start_time": 2.6954545,
                "end_time": 2.8954545,
                "pitch": 37,
                "velocity": 101,
                "duration": 0.2,
                "tempo": 120.0
            },
            {
                "start_time": 2.8954545,
                "end_time": 3.1136364,
                "pitch": 37,
                "velocity": 101,
                "duration": 0.2181818,
                "tempo": 120.0
            },
            {
                "start_time": 3.1136364,
                "end_time": 3.3090909,
                "pitch": 38,
                "velocity": 101,
                "duration": 0.1954545,
                "tempo": 120.0
            },
            {
                "start_time": 3.3090909,
                "end_time": 3.5204545,
                "pitch": 38,
                "velocity": 101,
                "duration": 0.2113636,
                "tempo": 120.0
            },
            {
                "start_time": 3.5204545,
                "end_time": 3.7204545,
                "pitch": 37,
                "velocity": 101,
                "duration": 0.2,
                "tempo": 120.0
            },
            {
                "start_time": 3.7204545,
                "end_time": 3.9386364,
                "pitch": 37,
                "velocity": 101,
                "duration": 0.2181818,
                "tempo": 120.0
            },
            {
                "start_time": 3.9386364,
                "end_time": 4.1318182,
                "pitch": 38,
                "velocity": 101,
                "duration": 0.1931818,
                "tempo": 120.0
            },
            {
                "start_time": 4.1318182,
                "end_time": 4.3431818,
                "pitch": 38,
                "velocity": 101,
                "duration": 0.2113636,
                "tempo": 120.0
            },
            {
                "start_time": 4.3431818,
                "end_time": 4.5454545,
                "pitch": 37,
                "velocity": 101,
                "duration": 0.2022727,
                "tempo": 120.0
            },
            {
                "start_time": 4.5454545,
                "end_time": 4.7613636,
                "pitch": 37,
                "velocity": 101,
                "duration": 0.2159091,
                "tempo": 120.0
            },
            {
                "start_time": 4.7613636,
                "end_time": 4.9636364,
                "pitch": 38,
                "velocity": 101,
                "duration": 0.2022727,
                "tempo": 120.0
            },
            {
                "start_time": 4.9636364,
                "end_time": 5.1795455,
                "pitch": 38,
                "velocity": 101,
                "duration": 0.2159091,
                "tempo": 120.0
            },
            {
                "start_time": 5.1795455,
                "end_time": 5.375,
                "pitch": 37,
                "velocity": 101,
                "duration": 0.1954545,
                "tempo": 120.0
            },
            {
                "start_time": 5.375,
                "end_time": 5.5863636,
                "pitch": 37,
                "velocity": 101,
                "duration": 0.2113636,
                "tempo": 120.0
            },
            {
                "start_time": 5.5863636,
                "end_time": 5.7863636,
                "pitch": 38,
                "velocity": 101,
                "duration": 0.2,
                "tempo": 120.0
            },
            {
                "start_time": 5.7863636,
                "end_time": 6.0045455,
                "pitch": 38,
                "velocity": 101,
                "duration": 0.2181818,
                "tempo": 120.0
            },
            {
                "start_time": 6.0045455,
                "end_time": 6.2,
                "pitch": 37,
                "velocity": 101,
                "duration": 0.1954545,
                "tempo": 120.0
            },
            {
                "start_time": 6.2,
                "end_time": 6.4113636,
                "pitch": 37,
                "velocity": 101,
                "duration": 0.2113636,
                "tempo": 120.0
            },
            {
                "start_time": 6.4113636,
                "end_time": 6.6113636,
                "pitch": 38,
                "velocity": 101,
                "duration": 0.2,
                "tempo": 120.0
            },
            {
                "start_time": 6.6113636,
                "end_time": 6.8295455,
                "pitch": 34,
                "velocity": 101,
                "duration": 0.2181818,
                "tempo": 120.0
            },
            {
                "start_time": 6.8295455,
                "end_time": 7.0295455,
                "pitch": 34,
                "velocity": 101,
                "duration": 0.2,
                "tempo": 120.0
            },
            {
                "start_time": 7.0295455,
                "end_time": 7.2477273,
                "pitch": 34,
                "velocity": 101,
                "duration": 0.2181818,
                "tempo": 120.0
            },
            {
                "start_time": 7.2477273,
                "end_time": 7.4409091,
                "pitch": 35,
                "velocity": 101,
                "duration": 0.1931818,
                "tempo": 120.0
            },
            {
                "start_time": 7.4409091,
                "end_time": 7.6522727,
                "pitch": 35,
                "velocity": 101,
                "duration": 0.2113636,
                "tempo": 120.0
            },
            {
                "start_time": 7.6522727,
                "end_time": 7.8477273,
                "pitch": 34,
                "velocity": 101,
                "duration": 0.1954545,
                "tempo": 120.0
            },
            {
                "start_time": 7.8477273,
                "end_time": 8.0590909,
                "pitch": 34,
                "velocity": 101,
                "duration": 0.2113636,
                "tempo": 120.0
            },
            {
                "start_time": 8.0590909,
                "end_time": 8.2613636,
                "pitch": 35,
                "velocity": 101,
                "duration": 0.2022727,
                "tempo": 120.0
            },
            {
                "start_time": 8.2613636,
                "end_time": 8.4613636,
                "pitch": 35,
                "velocity": 101,
                "duration": 0.2,
                "tempo": 120.0
            },
            {
                "start_time": 8.4613636,
                "end_time": 8.6681818,
                "pitch": 34,
                "velocity": 101,
                "duration": 0.2068182,
                "tempo": 120.0
            },
            {
                "start_time": 8.6681818,
                "end_time": 8.8568182,
                "pitch": 34,
                "velocity": 101,
                "duration": 0.1886364,
                "tempo": 120.0
            },
            {
                "start_time": 8.8568182,
                "end_time": 9.0681818,
                "pitch": 35,
                "velocity": 101,
                "duration": 0.2113636,
                "tempo": 120.0
            },
            {
                "start_time": 9.0681818,
                "end_time": 9.2636364,
                "pitch": 35,
                "velocity": 101,
                "duration": 0.1954545,
                "tempo": 120.0
            },
            {
                "start_time": 9.2636364,
                "end_time": 9.4795455,
                "pitch": 34,
                "velocity": 101,
                "duration": 0.2159091,
                "tempo": 120.0
            },
            {
                "start_time": 9.4795455,
                "end_time": 9.6818182,
                "pitch": 34,
                "velocity": 101,
                "duration": 0.2022727,
                "tempo": 120.0
            },
            {
                "start_time": 9.6818182,
                "end_time": 9.9,
                "pitch": 35,
                "velocity": 101,
                "duration": 0.2181818,
                "tempo": 120.0
            },
            {
                "start_time": 9.9,
                "end_time": 10.1,
                "pitch": 35,
                "velocity": 101,
                "duration": 0.2,
                "tempo": 120.0
            },
            {
                "start_time": 10.1,
                "end_time": 10.3159091,
                "pitch": 34,
                "velocity": 101,
                "duration": 0.2159091,
                "tempo": 120.0
            },
            {
                "start_time": 10.3159091,
                "end_time": 10.5159091,
                "pitch": 34,
                "velocity": 101,
                "duration": 0.2,
                "tempo": 120.0
            },
            {
                "start_time": 10.5159091,
                "end_time": 10.7295455,
                "pitch": 35,
                "velocity": 101,
                "duration": 0.2136364,
                "tempo": 120.0
            },
            {
                "start_time": 10.7295455,
                "end_time": 10.9227273,
                "pitch": 35,
                "velocity": 101,
                "duration": 0.1931818,
                "tempo": 120.0
            },
            {
                "start_time": 10.9227273,
                "end_time": 11.1363636,
                "pitch": 34,
                "velocity": 101,
                "duration": 0.2136364,
                "tempo": 120.0
            },
            {
                "start_time": 11.1363636,
                "end_time": 11.3295455,
                "pitch": 34,
                "velocity": 101,
                "duration": 0.1931818,
                "tempo": 120.0
            },
            {
                "start_time": 11.3295455,
                "end_time": 11.5409091,
                "pitch": 35,
                "velocity": 101,
                "duration": 0.2113636,
                "tempo": 120.0
            },
            {
                "start_time": 11.5409091,
                "end_time": 11.7363636,
                "pitch": 35,
                "velocity": 101,
                "duration": 0.1954545,
                "tempo": 120.0
            },
            {
                "start_time": 11.7363636,
                "end_time": 11.9590909,
                "pitch": 34,
                "velocity": 101,
                "duration": 0.2227273,
                "tempo": 120.0
            },
            {
                "start_time": 11.9590909,
                "end_time": 12.1636364,
                "pitch": 34,
                "velocity": 101,
                "duration": 0.2045455,
                "tempo": 120.0
            },
            {
                "start_time": 12.1636364,
                "end_time": 12.375,
                "pitch": 35,
                "velocity": 101,
                "duration": 0.2113636,
                "tempo": 120.0
            },
            {
                "start_time": 12.375,
                "end_time": 12.5704545,
                "pitch": 35,
                "velocity": 101,
                "duration": 0.1954545,
                "tempo": 120.0
            },
            {
                "start_time": 12.5704545,
                "end_time": 12.7818182,
                "pitch": 34,
                "velocity": 101,
                "duration": 0.2113636,
                "tempo": 120.0
            },
            {
                "start_time": 12.7818182,
                "end_time": 12.9772727,
                "pitch": 34,
                "velocity": 101,
                "duration": 0.1954545,
                "tempo": 120.0
            },
            {
                "start_time": 12.9772727,
                "end_time": 13.1931818,
                "pitch": 35,
                "velocity": 101,
                "duration": 0.2159091,
                "tempo": 120.0
            },
            {
                "start_time": 13.1931818,
                "end_time": 13.3931818,
                "pitch": 37,
                "velocity": 101,
                "duration": 0.2,
                "tempo": 120.0
            },
            {
                "start_time": 13.3931818,
                "end_time": 13.6113636,
                "pitch": 37,
                "velocity": 101,
                "duration": 0.2181818,
                "tempo": 120.0
            },
            {
                "start_time": 13.6113636,
                "end_time": 13.8113636,
                "pitch": 37,
                "velocity": 101,
                "duration": 0.2,
                "tempo": 120.0
            },
            {
                "start_time": 6.6113636,
                "end_time": 14.0227273,
                "pitch": 38,
                "velocity": 101,
                "duration": 7.4113636,
                "tempo": 120.0
            },
            {
                "start_time": 13.8113636,
                "end_time": 14.0227273,
                "pitch": 38,
                "velocity": 101,
                "duration": 0.2113636,
                "tempo": 120.0
            },
            {
                "start_time": 14.0227273,
                "end_time": 14.2181818,
                "pitch": 38,
                "velocity": 101,
                "duration": 0.1954545,
                "tempo": 120.0
            },
            {
                "start_time": 14.2181818,
                "end_time": 14.4295455,
                "pitch": 37,
                "velocity": 101,
                "duration": 0.2113636,
                "tempo": 120.0
            },
            {
                "start_time": 14.4295455,
                "end_time": 14.625,
                "pitch": 37,
                "velocity": 101,
                "duration": 0.1954545,
                "tempo": 120.0
            },
            {
                "start_time": 14.625,
                "end_time": 14.8431818,
                "pitch": 38,
                "velocity": 101,
                "duration": 0.2181818,
                "tempo": 120.0
            },
            {
                "start_time": 14.8431818,
                "end_time": 15.0431818,
                "pitch": 38,
                "velocity": 101,
                "duration": 0.2,
                "tempo": 120.0
            },
            {
                "start_time": 15.0431818,
                "end_time": 15.2613636,
                "pitch": 37,
                "velocity": 101,
                "duration": 0.2181818,
                "tempo": 120.0
            },
            {
                "start_time": 15.2613636,
                "end_time": 15.4613636,
                "pitch": 37,
                "velocity": 101,
                "duration": 0.2,
                "tempo": 120.0
            },
            {
                "start_time": 15.4613636,
                "end_time": 15.6727273,
                "pitch": 38,
                "velocity": 101,
                "duration": 0.2113636,
                "tempo": 120.0
            },
            {
                "start_time": 15.6727273,
                "end_time": 15.8681818,
                "pitch": 38,
                "velocity": 101,
                "duration": 0.1954545,
                "tempo": 120.0
            },
            {
                "start_time": 15.8681818,
                "end_time": 16.0795455,
                "pitch": 37,
                "velocity": 101,
                "duration": 0.2113636,
                "tempo": 120.0
            },
            {
                "start_time": 16.0795455,
                "end_time": 16.275,
                "pitch": 37,
                "velocity": 101,
                "duration": 0.1954545,
                "tempo": 120.0
            },
            {
                "start_time": 16.275,
                "end_time": 16.4909091,
                "pitch": 38,
                "velocity": 101,
                "duration": 0.2159091,
                "tempo": 120.0
            },
            {
                "start_time": 16.4909091,
                "end_time": 16.6909091,
                "pitch": 38,
                "velocity": 101,
                "duration": 0.2,
                "tempo": 120.0
            },
            {
                "start_time": 16.6909091,
                "end_time": 16.8863636,
                "pitch": 37,
                "velocity": 101,
                "duration": 0.1954545,
                "tempo": 120.0
            },
            {
                "start_time": 16.8863636,
                "end_time": 17.0977273,
                "pitch": 37,
                "velocity": 101,
                "duration": 0.2113636,
                "tempo": 120.0
            },
            {
                "start_time": 17.0977273,
                "end_time": 17.3,
                "pitch": 38,
                "velocity": 101,
                "duration": 0.2022727,
                "tempo": 120.0
            },
            {
                "start_time": 17.3,
                "end_time": 17.5159091,
                "pitch": 38,
                "velocity": 101,
                "duration": 0.2159091,
                "tempo": 120.0
            },
            {
                "start_time": 17.5159091,
                "end_time": 17.7113636,
                "pitch": 37,
                "velocity": 101,
                "duration": 0.1954545,
                "tempo": 120.0
            },
            {
                "start_time": 17.7113636,
                "end_time": 17.9227273,
                "pitch": 37,
                "velocity": 101,
                "duration": 0.2113636,
                "tempo": 120.0
            },
            {
                "start_time": 17.9227273,
                "end_time": 18.125,
                "pitch": 38,
                "velocity": 101,
                "duration": 0.2022727,
                "tempo": 120.0
            },
            {
                "start_time": 18.125,
                "end_time": 18.3409091,
                "pitch": 38,
                "velocity": 101,
                "duration": 0.2159091,
                "tempo": 120.0
            },
            {
                "start_time": 18.3409091,
                "end_time": 18.5363636,
                "pitch": 37,
                "velocity": 101,
                "duration": 0.1954545,
                "tempo": 120.0
            },
            {
                "start_time": 18.5363636,
                "end_time": 18.7477273,
                "pitch": 37,
                "velocity": 101,
                "duration": 0.2113636,
                "tempo": 120.0
            },
            {
                "start_time": 18.7477273,
                "end_time": 18.9477273,
                "pitch": 38,
                "velocity": 101,
                "duration": 0.2,
                "tempo": 120.0
            },
            {
                "start_time": 18.9477273,
                "end_time": 19.1659091,
                "pitch": 38,
                "velocity": 101,
                "duration": 0.2181818,
                "tempo": 120.0
            },
            {
                "start_time": 19.1659091,
                "end_time": 19.3659091,
                "pitch": 37,
                "velocity": 101,
                "duration": 0.2,
                "tempo": 120.0
            },
            {
                "start_time": 19.3659091,
                "end_time": 19.5840909,
                "pitch": 37,
                "velocity": 101,
                "duration": 0.2181818,
                "tempo": 120.0
            },
            {
                "start_time": 19.5840909,
                "end_time": 19.7795455,
                "pitch": 38,
                "velocity": 101,
                "duration": 0.1954545,
                "tempo": 120.0
            },
            {
                "start_time": 19.7795455,
                "end_time": 19.9886364,
                "pitch": 34,
                "velocity": 101,
                "duration": 0.2090909,
                "tempo": 120.0
            },
            {
                "start_time": 19.9886364,
                "end_time": 20.1909091,
                "pitch": 34,
                "velocity": 101,
                "duration": 0.2022727,
                "tempo": 120.0
            },
            {
                "start_time": 20.1909091,
                "end_time": 20.4068182,
                "pitch": 34,
                "velocity": 101,
                "duration": 0.2159091,
                "tempo": 120.0
            },
            {
                "start_time": 13.1931818,
                "end_time": 20.6022727,
                "pitch": 35,
                "velocity": 101,
                "duration": 7.4090909,
                "tempo": 120.0
            },
            {
                "start_time": 20.4068182,
                "end_time": 20.6022727,
                "pitch": 35,
                "velocity": 101,
                "duration": 0.1954545,
                "tempo": 120.0
            },
            {
                "start_time": 20.6022727,
                "end_time": 20.8136364,
                "pitch": 35,
                "velocity": 101,
                "duration": 0.2113636,
                "tempo": 120.0
            },
            {
                "start_time": 20.8136364,
                "end_time": 21.0136364,
                "pitch": 34,
                "velocity": 101,
                "duration": 0.2,
                "tempo": 120.0
            },
            {
                "start_time": 21.0136364,
                "end_time": 21.2318182,
                "pitch": 34,
                "velocity": 101,
                "duration": 0.2181818,
                "tempo": 120.0
            },
            {
                "start_time": 21.2318182,
                "end_time": 21.4318182,
                "pitch": 35,
                "velocity": 101,
                "duration": 0.2,
                "tempo": 120.0
            },
            {
                "start_time": 21.4318182,
                "end_time": 21.65,
                "pitch": 35,
                "velocity": 101,
                "duration": 0.2181818,
                "tempo": 120.0
            },
            {
                "start_time": 21.65,
                "end_time": 21.8454545,
                "pitch": 34,
                "velocity": 101,
                "duration": 0.1954545,
                "tempo": 120.0
            },
            {
                "start_time": 21.8454545,
                "end_time": 22.0568182,
                "pitch": 34,
                "velocity": 101,
                "duration": 0.2113636,
                "tempo": 120.0
            },
            {
                "start_time": 22.0568182,
                "end_time": 22.2568182,
                "pitch": 35,
                "velocity": 101,
                "duration": 0.2,
                "tempo": 120.0
            },
            {
                "start_time": 22.2568182,
                "end_time": 22.475,
                "pitch": 35,
                "velocity": 101,
                "duration": 0.2181818,
                "tempo": 120.0
            },
            {
                "start_time": 22.475,
                "end_time": 22.6681818,
                "pitch": 34,
                "velocity": 101,
                "duration": 0.1931818,
                "tempo": 120.0
            },
            {
                "start_time": 22.6681818,
                "end_time": 22.8818182,
                "pitch": 34,
                "velocity": 101,
                "duration": 0.2136364,
                "tempo": 120.0
            },
            {
                "start_time": 22.8818182,
                "end_time": 23.0818182,
                "pitch": 35,
                "velocity": 101,
                "duration": 0.2,
                "tempo": 120.0
            },
            {
                "start_time": 23.0818182,
                "end_time": 23.2977273,
                "pitch": 35,
                "velocity": 101,
                "duration": 0.2159091,
                "tempo": 120.0
            },
            {
                "start_time": 23.2977273,
                "end_time": 23.4977273,
                "pitch": 34,
                "velocity": 101,
                "duration": 0.2,
                "tempo": 120.0
            },
            {
                "start_time": 23.4977273,
                "end_time": 23.7159091,
                "pitch": 34,
                "velocity": 101,
                "duration": 0.2181818,
                "tempo": 120.0
            },
            {
                "start_time": 23.7159091,
                "end_time": 23.9113636,
                "pitch": 35,
                "velocity": 101,
                "duration": 0.1954545,
                "tempo": 120.0
            },
            {
                "start_time": 23.9113636,
                "end_time": 24.1227273,
                "pitch": 35,
                "velocity": 101,
                "duration": 0.2113636,
                "tempo": 120.0
            },
            {
                "start_time": 24.1227273,
                "end_time": 24.3181818,
                "pitch": 34,
                "velocity": 101,
                "duration": 0.1954545,
                "tempo": 120.0
            },
            {
                "start_time": 24.3181818,
                "end_time": 24.5295455,
                "pitch": 34,
                "velocity": 101,
                "duration": 0.2113636,
                "tempo": 120.0
            },
            {
                "start_time": 24.5295455,
                "end_time": 24.7295455,
                "pitch": 35,
                "velocity": 101,
                "duration": 0.2,
                "tempo": 120.0
            },
            {
                "start_time": 24.7295455,
                "end_time": 24.9454545,
                "pitch": 35,
                "velocity": 101,
                "duration": 0.2159091,
                "tempo": 120.0
            },
            {
                "start_time": 24.9454545,
                "end_time": 25.1363636,
                "pitch": 34,
                "velocity": 101,
                "duration": 0.1909091,
                "tempo": 120.0
            },
            {
                "start_time": 25.1363636,
                "end_time": 25.3272727,
                "pitch": 34,
                "velocity": 101,
                "duration": 0.1909091,
                "tempo": 120.0
            },
            {
                "start_time": 25.3272727,
                "end_time": 25.5386364,
                "pitch": 35,
                "velocity": 101,
                "duration": 0.2113636,
                "tempo": 120.0
            },
            {
                "start_time": 25.5386364,
                "end_time": 25.7318182,
                "pitch": 35,
                "velocity": 101,
                "duration": 0.1931818,
                "tempo": 120.0
            },
            {
                "start_time": 25.7318182,
                "end_time": 25.95,
                "pitch": 34,
                "velocity": 101,
                "duration": 0.2181818,
                "tempo": 120.0
            },
            {
                "start_time": 25.95,
                "end_time": 26.15,
                "pitch": 34,
                "velocity": 101,
                "duration": 0.2,
                "tempo": 120.0
            },
            {
                "start_time": 26.15,
                "end_time": 26.3636364,
                "pitch": 35,
                "velocity": 101,
                "duration": 0.2136364,
                "tempo": 120.0
            },
            {
                "start_time": 26.3636364,
                "end_time": 26.5568182,
                "pitch": 37,
                "velocity": 101,
                "duration": 0.1931818,
                "tempo": 120.0
            },
            {
                "start_time": 26.5568182,
                "end_time": 26.775,
                "pitch": 37,
                "velocity": 101,
                "duration": 0.2181818,
                "tempo": 120.0
            },
            {
                "start_time": 26.775,
                "end_time": 26.9,
                "pitch": 37,
                "velocity": 101,
                "duration": 0.125,
                "tempo": 120.0
            }
        ]
    }
}