{
    "mood": "angry",
    "instruments": {
        "Harpsichord": [
            {
                "start_time": 0.0909091,
                "end_time": 0.1409091,
                "pitch": 33,
                "velocity": 80,
                "duration": 0.05,
                "tempo": 120.0
            },
            {
                "start_time": 0.1409091,
                "end_time": 0.2045455,
                "pitch": 36,
                "velocity": 80,
                "duration": 0.0636364,
                "tempo": 120.0
            },
            {
                "start_time": 0.1409091,
                "end_time": 0.2045455,
                "pitch": 40,
                "velocity": 80,
                "duration": 0.0636364,
                "tempo": 120.0
            },
            {
                "start_time": 0.2045455,
                "end_time": 0.2409091,
                "pitch": 40,
                "velocity": 80,
                "duration": 0.0363636,
                "tempo": 120.0
            },
            {
                "start_time": 0.2045455,
                "end_time": 0.2409091,
                "pitch": 40,
                "velocity": 80,
                "duration": 0.0363636,
                "tempo": 120.0
            },
            {
                "start_time": 0.2409091,
                "end_time": 0.2931818,
                "pitch": 45,
                "velocity": 80,
                "duration": 0.0522727,
                "tempo": 120.0
            },
            {
                "start_time": 0.2931818,
                "end_time": 1.6863636,
                "pitch": 48,
                "velocity": 80,
                "duration": 1.3931818,
                "tempo": 120.0
            },
            {
                "start_time": 1.6863636,
                "end_time": 1.7340909,
                "pitch": 31,
                "velocity": 80,
                "duration": 0.0477273,
                "tempo": 120.0
            },
            {
                "start_time": 1.7340909,
                "end_time": 1.7886364,
                "pitch": 35,
                "velocity": 80,
                "duration": 0.0545455,
                "tempo": 120.0
            },
            {
                "start_time": 1.7363636,
                "end_time": 1.7886364,
                "pitch": 35,
                "velocity": 80,
                "duration": 0.0522727,
                "tempo": 120.0
            },
            {
                "start_time": 1.7886364,
                "end_time": 1.8363636,
                "pitch": 38,
                "velocity": 80,
                "duration": 0.0477273,
                "tempo": 120.0
            },
            {
                "start_time": 1.8363636,
                "end_time": 1.8886364,
                "pitch": 43,
                "velocity": 80,
                "duration": 0.0522727,
                "tempo": 120.0
            },
            {
                "start_time": 1.8886364,
                "end_time": 3.3022727,
                "pitch": 47,
                "velocity": 80,
                "duration": 1.4136364,
                "tempo": 120.0
            },
            {
                "start_time": 1.8886364,
                "end_time": 3.3022727,
                "pitch": 47,
                "velocity": 80,
                "duration": 1.4136364,
                "tempo": 120.0
            },
            {
                "start_time": 3.3022727,
                "end_time": 3.35,
                "pitch": 35,
                "velocity": 80,
                "duration": 0.0477273,
                "tempo": 120.0
            },
            {
                "start_time": 1.7886364,
                "end_time": 3.35,
                "pitch": 41,
                "velocity": 80,
                "duration": 1.5613636,
                "tempo": 120.0
            },
            {
                "start_time": 3.35,
                "end_time": 3.4045455,
                "pitch": 38,
                "velocity": 80,
                "duration": 0.0545455,
                "tempo": 120.0
            },
            {
                "start_time": 3.35,
                "end_time": 3.4045455,
                "pitch": 41,
                "velocity": 80,
                "duration": 0.0545455,
                "tempo": 120.0
            },
            {
                "start_time": 3.4045455,
                "end_time": 3.45,
                "pitch": 41,
                "velocity": 80,
                "duration": 0.0454545,
                "tempo": 120.0
            },
            {
                "start_time": 3.4045455,
                "end_time": 3.45,
                "pitch": 41,
                "velocity": 80,
                "duration": 0.0454545,
                "tempo": 120.0
            },
            {
                "start_time": 3.45,
                "end_time": 3.5022727,
                "pitch": 47,
                "velocity": 80,
                "duration": 0.0522727,
                "tempo": 120.0
            },
            {
                "start_time": 3.5022727,
                "end_time": 4.9068182,
                "pitch": 50,
                "velocity": 80,
                "duration": 1.4045455,
                "tempo": 120.0
            },
            {
                "start_time": 4.9068182,
                "end_time": 4.9545455,
                "pitch": 33,
                "velocity": 80,
                "duration": 0.0477273,
                "tempo": 120.0
            },
            {
                "start_time": 4.9568182,
                "end_time": 5.0090909,
                "pitch": 36,
                "velocity": 80,
                "duration": 0.0522727,
                "tempo": 120.0
            },
            {
                "start_time": 4.9545455,
                "end_time": 5.0090909,
                "pitch": 40,
                "velocity": 80,
                "duration": 0.0545455,
                "tempo": 120.0
            },
            {
                "start_time": 0.2409091,
                "end_time": 5.0545455,
                "pitch": 7,
                "velocity": 80,
                "duration": 4.8136364,
                "tempo": 120.0
            },
            {
                "start_time": 5.0090909,
                "end_time": 5.0545455,
                "pitch": 40,
                "velocity": 80,
                "duration": 0.0454545,
                "tempo": 120.0
            },
            {
                "start_time": 5.0090909,
                "end_time": 5.0545455,
                "pitch": 40,
                "velocity": 80,
                "duration": 0.0454545,
                "tempo": 120.0
            },
            {
                "start_time": 5.0545455,
                "end_time": 5.1068182,
                "pitch": 45,
                "velocity": 80,
                "duration": 0.0522727,
                "tempo": 120.0
            },
            {
                "start_time": 0.2931818,
                "end_time": 5.1068182,
                "pitch": 52,
                "velocity": 80,
                "duration": 4.8136364,
                "tempo": 120.0
            },
            {
                "start_time": 4.9068182,
                "end_time": 6.5159091,
                "pitch": 19,
                "velocity": 80,
                "duration": 1.6090909,
                "tempo": 120.0
            },
            {
                "start_time": 5.1068182,
                "end_time": 6.5159091,
                "pitch": 48,
                "velocity": 80,
                "duration": 1.4090909,
                "tempo": 120.0
            },
            {
                "start_time": 6.5159091,
                "end_time": 6.5659091,
                "pitch": 33,
                "velocity": 80,
                "duration": 0.05,
                "tempo": 120.0
            },
            {
                "start_time": 6.5659091,
                "end_time": 6.6204545,
                "pitch": 36,
                "velocity": 80,
                "duration": 0.0545455,
                "tempo": 120.0
            },
            {
                "start_time": 6.5659091,
                "end_time": 6.6204545,
                "pitch": 40,
                "velocity": 80,
                "duration": 0.0545455,
                "tempo": 120.0
            },
            {
                "start_time": 5.0545455,
                "end_time": 6.6659091,
                "pitch": 7,
                "velocity": 80,
                "duration": 1.6113636,
                "tempo": 120.0
            },
            {
                "start_time": 6.6204545,
                "end_time": 6.6659091,
                "pitch": 40,
                "velocity": 80,
                "duration": 0.0454545,
                "tempo": 120.0
            },
            {
                "start_time": 6.6204545,
                "end_time": 6.6659091,
                "pitch": 40,
                "velocity": 80,
                "duration": 0.0454545,
                "tempo": 120.0
            },
            {
                "start_time": 6.6659091,
                "end_time": 6.7181818,
                "pitch": 45,
                "velocity": 80,
                "duration": 0.0522727,
                "tempo": 120.0
            },
            {
                "start_time": 5.1068182,
                "end_time": 6.7181818,
                "pitch": 52,
                "velocity": 80,
                "duration": 1.6113636,
                "tempo": 120.0
            },
            {
                "start_time": 6.7181818,
                "end_time": 8.125,
                "pitch": 48,
                "velocity": 80,
                "duration": 1.4068182,
                "tempo": 120.0
            },
            {
                "start_time": 8.125,
                "end_time": 8.1727273,
                "pitch": 31,
                "velocity": 80,
                "duration": 0.0477273,
                "tempo": 120.0
            },
            {
                "start_time": 8.1727273,
                "end_time": 8.2272727,
                "pitch": 35,
                "velocity": 80,
                "duration": 0.0545455,
                "tempo": 120.0
            },
            {
                "start_time": 8.1727273,
                "end_time": 8.2272727,
                "pitch": 35,
                "velocity": 80,
                "duration": 0.0545455,
                "tempo": 120.0
            },
            {
                "start_time": 8.2272727,
                "end_time": 8.275,
                "pitch": 38,
                "velocity": 80,
                "duration": 0.0477273,
                "tempo": 120.0
            },
            {
                "start_time": 8.275,
                "end_time": 8.3272727,
                "pitch": 43,
                "velocity": 80,
                "duration": 0.0522727,
                "tempo": 120.0
            },
            {
                "start_time": 8.3272727,
                "end_time": 9.7340909,
                "pitch": 47,
                "velocity": 80,
                "duration": 1.4068182,
                "tempo": 120.0
            },
            {
                "start_time": 8.3272727,
                "end_time": 9.7340909,
                "pitch": 47,
                "velocity": 80,
                "duration": 1.4068182,
                "tempo": 120.0
            },
            {
                "start_time": 9.7340909,
                "end_time": 9.7840909,
                "pitch": 35,
                "velocity": 80,
                "duration": 0.05,
                "tempo": 120.0
            },
            {
                "start_time": 8.2272727,
                "end_time": 9.7840909,
                "pitch": 41,
                "velocity": 80,
                "duration": 1.5568182,
                "tempo": 120.0
            },
            {
                "start_time": 9.7840909,
                "end_time": 9.8386364,
                "pitch": 38,
                "velocity": 80,
                "duration": 0.0545455,
                "tempo": 120.0
            },
            {
                "start_time": 9.7840909,
                "end_time": 9.8386364,
                "pitch": 41,
                "velocity": 80,
                "duration": 0.0545455,
                "tempo": 120.0
            },
            {
                "start_time": 3.45,
                "end_time": 9.8840909,
                "pitch": 20,
                "velocity": 80,
                "duration": 6.4340909,
                "tempo": 120.0
            },
            {
                "start_time": 9.8386364,
                "end_time": 9.8840909,
                "pitch": 41,
                "velocity": 80,
                "duration": 0.0454545,
                "tempo": 120.0
            },
            {
                "start_time": 9.8386364,
                "end_time": 9.8840909,
                "pitch": 41,
                "velocity": 80,
                "duration": 0.0454545,
                "tempo": 120.0
            },
            {
                "start_time": 9.8840909,
                "end_time": 9.9363636,
                "pitch": 47,
                "velocity": 80,
                "duration": 0.0522727,
                "tempo": 120.0
            },
            {
                "start_time": 3.5022727,
                "end_time": 9.9363636,
                "pitch": 53,
                "velocity": 80,
                "duration": 6.4340909,
                "tempo": 120.0
            },
            {
                "start_time": 6.5159091,
                "end_time": 11.3522727,
                "pitch": 19,
                "velocity": 80,
                "duration": 4.8363636,
                "tempo": 120.0
            },
            {
                "start_time": 9.9363636,
                "end_time": 11.3522727,
                "pitch": 50,
                "velocity": 80,
                "duration": 1.4159091,
                "tempo": 120.0
            },
            {
                "start_time": 11.3522727,
                "end_time": 11.4022727,
                "pitch": 33,
                "velocity": 80,
                "duration": 0.05,
                "tempo": 120.0
            },
            {
                "start_time": 11.4022727,
                "end_time": 11.4568182,
                "pitch": 36,
                "velocity": 80,
                "duration": 0.0545455,
                "tempo": 120.0
            },
            {
                "start_time": 11.4022727,
                "end_time": 11.4568182,
                "pitch": 40,
                "velocity": 80,
                "duration": 0.0545455,
                "tempo": 120.0
            },
            {
                "start_time": 6.6659091,
                "end_time": 11.5022727,
                "pitch": 7,
                "velocity": 80,
                "duration": 4.8363636,
                "tempo": 120.0
            },
            {
                "start_time": 11.4568182,
                "end_time": 11.5022727,
                "pitch": 40,
                "velocity": 80,
                "duration": 0.0454545,
                "tempo": 120.0
            },
            {
                "start_time": 11.4568182,
                "end_time": 11.5022727,
                "pitch": 40,
                "velocity": 80,
                "duration": 0.0454545,
                "tempo": 120.0
            },
            {
                "start_time": 11.5022727,
                "end_time": 11.5522727,
                "pitch": 45,
                "velocity": 80,
                "duration": 0.05,
                "tempo": 120.0
            },
            {
                "start_time": 6.7181818,
                "end_time": 11.5522727,
                "pitch": 52,
                "velocity": 80,
                "duration": 4.8340909,
                "tempo": 120.0
            },
            {
                "start_time": 11.5522727,
                "end_time": 51.5636364,
                "pitch": 48,
                "velocity": 80,
                "duration": 40.0113636,
                "tempo": 120.0
            },
            {
                "start_time": 51.5636364,
                "end_time": 51.6113636,
                "pitch": 33,
                "velocity": 80,
                "duration": 0.0477273,
                "tempo": 120.0
            },
            {
                "start_time": 51.6113636,
                "end_time": 51.6704545,
                "pitch": 36,
                "velocity": 80,
                "duration": 0.0590909,
                "tempo": 120.0
            },
            {
                "start_time": 51.6113636,
                "end_time": 51.6704545,
                "pitch": 40,
                "velocity": 80,
                "duration": 0.0590909,
                "tempo": 120.0
            },
            {
                "start_time": 11.5022727,
                "end_time": 51.7136364,
                "pitch": 7,
                "velocity": 80,
                "duration": 40.2113636,
                "tempo": 120.0
            },
            {
                "start_time": 51.6704545,
                "end_time": 51.7136364,
                "pitch": 40,
                "velocity": 80,
                "duration": 0.0431818,
                "tempo": 120.0
            },
            {
                "start_time": 51.6704545,
                "end_time": 51.7136364,
                "pitch": 40,
                "velocity": 80,
                "duration": 0.0431818,
                "tempo": 120.0
            },
            {
                "start_time": 51.7136364,
                "end_time": 51.7659091,
                "pitch": 45,
                "velocity": 80,
                "duration": 0.0522727,
                "tempo": 120.0
            },
            {
                "start_time": 11.5522727,
                "end_time": 51.7659091,
                "pitch": 52,
                "velocity": 80,
                "duration": 40.2136364,
                "tempo": 120.0
            },
            {
                "start_time": 51.7659091,
                "end_time": 53.1681818,
                "pitch": 48,
                "velocity": 80,
                "duration": 1.4022727,
                "tempo": 120.0
            },
            {
                "start_time": 53.1681818,
                "end_time": 53.2181818,
                "pitch": 31,
                "velocity": 80,
                "duration": 0.05,
                "tempo": 120.0
            },
            {
                "start_time": 53.2181818,
                "end_time": 53.2704545,
                "pitch": 35,
                "velocity": 80,
                "duration": 0.0522727,
                "tempo": 120.0
            },
            {
                "start_time": 53.2181818,
                "end_time": 53.2704545,
                "pitch": 35,
                "velocity": 80,
                "duration": 0.0522727,
                "tempo": 120.0
            },
            {
                "start_time": 53.2704545,
                "end_time": 53.3181818,
                "pitch": 38,
                "velocity": 80,
                "duration": 0.0477273,
                "tempo": 120.0
            },
            {
                "start_time": 53.3181818,
                "end_time": 53.3704545,
                "pitch": 43,
                "velocity": 80,
                "duration": 0.0522727,
                "tempo": 120.0
            },
            {
                "start_time": 53.3704545,
                "end_time": 54.7727273,
                "pitch": 47,
                "velocity": 80,
                "duration": 1.4022727,
                "tempo": 120.0
            },
            {
                "start_time": 53.3704545,
                "end_time": 54.7727273,
                "pitch": 47,
                "velocity": 80,
                "duration": 1.4022727,
                "tempo": 120.0
            },
            {
                "start_time": 54.7727273,
                "end_time": 54.8227273,
                "pitch": 35,
                "velocity": 80,
                "duration": 0.05,
                "tempo": 120.0
            },
            {
                "start_time": 53.2704545,
                "end_time": 54.8227273,
                "pitch": 41,
                "velocity": 80,
                "duration": 1.5522727,
                "tempo": 120.0
            },
            {
                "start_time": 54.8227273,
                "end_time": 54.875,
                "pitch": 38,
                "velocity": 80,
                "duration": 0.0522727,
                "tempo": 120.0
            },
            {
                "start_time": 54.8227273,
                "end_time": 54.875,
                "pitch": 41,
                "velocity": 80,
                "duration": 0.0522727,
                "tempo": 120.0
            },
            {
                "start_time": 9.8840909,
                "end_time": 54.9227273,
                "pitch": 20,
                "velocity": 80,
                "duration": 45.0386364,
                "tempo": 120.0
            },
            {
                "start_time": 54.875,
                "end_time": 54.9227273,
                "pitch": 41,
                "velocity": 80,
                "duration": 0.0477273,
                "tempo": 120.0
            },
            {
                "start_time": 54.875,
                "end_time": 54.9227273,
                "pitch": 41,
                "velocity": 80,
                "duration": 0.0477273,
                "tempo": 120.0
            },
            {
                "start_time": 54.9227273,
                "end_time": 54.975,
                "pitch": 47,
                "velocity": 80,
                "duration": 0.0522727,
                "tempo": 120.0
            },
            {
                "start_time": 9.9363636,
                "end_time": 54.975,
                "pitch": 53,
                "velocity": 80,
                "duration": 45.0386364,
                "tempo": 120.0
            },
            {
                "start_time": 11.3522727,
                "end_time": 56.3772727,
                "pitch": 19,
                "velocity": 80,
                "duration": 45.025,
                "tempo": 120.0
            },
            {
                "start_time": 54.975,
                "end_time": 56.3772727,
                "pitch": 50,
                "velocity": 80,
                "duration": 1.4022727,
                "tempo": 120.0
            },
            {
                "start_time": 56.3772727,
                "end_time": 56.4272727,
                "pitch": 33,
                "velocity": 80,
                "duration": 0.05,
                "tempo": 120.0
            },
            {
                "start_time": 56.4272727,
                "end_time": 56.4795455,
                "pitch": 36,
                "velocity": 80,
                "duration": 0.0522727,
                "tempo": 120.0
            },
            {
                "start_time": 56.4272727,
                "end_time": 56.4795455,
                "pitch": 40,
                "velocity": 80,
                "duration": 0.0522727,
                "tempo": 120.0
            },
            {
                "start_time": 51.7136364,
                "end_time": 56.5272727,
                "pitch": 7,
                "velocity": 80,
                "duration": 4.8136364,
                "tempo": 120.0
            },
            {
                "start_time": 56.4795455,
                "end_time": 56.5272727,
                "pitch": 40,
                "velocity": 80,
                "duration": 0.0477273,
                "tempo": 120.0
            },
            {
                "start_time": 56.4795455,
                "end_time": 56.5272727,
                "pitch": 40,
                "velocity": 80,
                "duration": 0.0477273,
                "tempo": 120.0
            },
            {
                "start_time": 56.5272727,
                "end_time": 56.5795455,
                "pitch": 45,
                "velocity": 80,
                "duration": 0.0522727,
                "tempo": 120.0
            },
            {
                "start_time": 51.7659091,
                "end_time": 56.5795455,
                "pitch": 52,
                "velocity": 80,
                "duration": 4.8136364,
                "tempo": 120.0
            },
            {
                "start_time": 56.3772727,
                "end_time": 57.9931818,
                "pitch": 19,
                "velocity": 80,
                "duration": 1.6159091,
                "tempo": 120.0
            },
            {
                "start_time": 56.5795455,
                "end_time": 57.9931818,
                "pitch": 48,
                "velocity": 80,
                "duration": 1.4136364,
                "tempo": 120.0
            },
            {
                "start_time": 57.9931818,
                "end_time": 58.0431818,
                "pitch": 33,
                "velocity": 80,
                "duration": 0.05,
                "tempo": 120.0
            },
            {
                "start_time": 58.0431818,
                "end_time": 58.0454545,
                "pitch": 40,
                "velocity": 80,
                "duration": 0.0022727,
                "tempo": 120.0
            },
            {
                "start_time": 58.0454545,
                "end_time": 58.1,
                "pitch": 36,
                "velocity": 80,
                "duration": 0.0545455,
                "tempo": 120.0
            },
            {
                "start_time": 56.5272727,
                "end_time": 58.1454545,
                "pitch": 7,
                "velocity": 80,
                "duration": 1.6181818,
                "tempo": 120.0
            },
            {
                "start_time": 58.1,
                "end_time": 58.1454545,
                "pitch": 40,
                "velocity": 80,
                "duration": 0.0454545,
                "tempo": 120.0
            },
            {
                "start_time": 58.1,
                "end_time": 58.1454545,
                "pitch": 40,
                "velocity": 80,
                "duration": 0.0454545,
                "tempo": 120.0
            },
            {
                "start_time": 58.1454545,
                "end_time": 58.1954545,
                "pitch": 45,
                "velocity": 80,
                "duration": 0.05,
                "tempo": 120.0
            },
            {
                "start_time": 56.5795455,
                "end_time": 58.1954545,
                "pitch": 52,
                "velocity": 80,
                "duration": 1.6159091,
                "tempo": 120.0
            },
            {
                "start_time": 58.1954545,
                "end_time": 59.6022727,
                "pitch": 48,
                "velocity": 80,
                "duration": 1.4068182,
                "tempo": 120.0
            },
            {
                "start_time": 59.6022727,
                "end_time": 59.65,
                "pitch": 31,
                "velocity": 80,
                "duration": 0.0477273,
                "tempo": 120.0
            },
            {
                "start_time": 59.65,
                "end_time": 59.7045455,
                "pitch": 35,
                "velocity": 80,
                "duration": 0.0545455,
                "tempo": 120.0
            },
            {
                "start_time": 59.65,
                "end_time": 59.7045455,
                "pitch": 35,
                "velocity": 80,
                "duration": 0.0545455,
                "tempo": 120.0
            },
            {
                "start_time": 59.7045455,
                "end_time": 59.75,
                "pitch": 38,
                "velocity": 80,
                "duration": 0.0454545,
                "tempo": 120.0
            },
            {
                "start_time": 59.75,
                "end_time": 59.8,
                "pitch": 43,
                "velocity": 80,
                "duration": 0.05,
                "tempo": 120.0
            },
            {
                "start_time": 59.8,
                "end_time": 61.2068182,
                "pitch": 47,
                "velocity": 80,
                "duration": 1.4068182,
                "tempo": 120.0
            },
            {
                "start_time": 59.8,
                "end_time": 61.2068182,
                "pitch": 47,
                "velocity": 80,
                "duration": 1.4068182,
                "tempo": 120.0
            },
            {
                "start_time": 61.2068182,
                "end_time": 61.2545455,
                "pitch": 35,
                "velocity": 80,
                "duration": 0.0477273,
                "tempo": 120.0
            },
            {
                "start_time": 59.7045455,
                "end_time": 61.2545455,
                "pitch": 41,
                "velocity": 80,
                "duration": 1.55,
                "tempo": 120.0
            },
            {
                "start_time": 61.2545455,
                "end_time": 61.3090909,
                "pitch": 38,
                "velocity": 80,
                "duration": 0.0545455,
                "tempo": 120.0
            },
            {
                "start_time": 61.2545455,
                "end_time": 61.3090909,
                "pitch": 41,
                "velocity": 80,
                "duration": 0.0545455,
                "tempo": 120.0
            },
            {
                "start_time": 54.9227273,
                "end_time": 61.3545455,
                "pitch": 20,
                "velocity": 80,
                "duration": 6.4318182,
                "tempo": 120.0
            },
            {
                "start_time": 61.3090909,
                "end_time": 61.3545455,
                "pitch": 41,
                "velocity": 80,
                "duration": 0.0454545,
                "tempo": 120.0
            },
            {
                "start_time": 61.3090909,
                "end_time": 61.3545455,
                "pitch": 41,
                "velocity": 80,
                "duration": 0.0454545,
                "tempo": 120.0
            },
            {
                "start_time": 61.3545455,
                "end_time": 61.4045455,
                "pitch": 47,
                "velocity": 80,
                "duration": 0.05,
                "tempo": 120.0
            },
            {
                "start_time": 54.975,
                "end_time": 61.4045455,
                "pitch": 53,
                "velocity": 80,
                "duration": 6.4295455,
                "tempo": 120.0
            },
            {
                "start_time": 61.4045455,
                "end_time": 62.8090909,
                "pitch": 50,
                "velocity": 80,
                "duration": 1.4045455,
                "tempo": 120.0
            },
            {
                "start_time": 57.9931818,
                "end_time": 62.8113636,
                "pitch": 19,
                "velocity": 80,
                "duration": 4.8181818,
                "tempo": 120.0
            },
            {
                "start_time": 62.8090909,
                "end_time": 62.8113636,
                "pitch": 19,
                "velocity": 80,
                "duration": 0.0022727,
                "tempo": 120.0
            },
            {
                "start_time": 62.8113636,
                "end_time": 62.8590909,
                "pitch": 33,
                "velocity": 80,
                "duration": 0.0477273,
                "tempo": 120.0
            },
            {
                "start_time": 62.8590909,
                "end_time": 62.9136364,
                "pitch": 36,
                "velocity": 80,
                "duration": 0.0545455,
                "tempo": 120.0
            },
            {
                "start_time": 62.8590909,
                "end_time": 62.9136364,
                "pitch": 40,
                "velocity": 80,
                "duration": 0.0545455,
                "tempo": 120.0
            },
            {
                "start_time": 58.1454545,
                "end_time": 62.9613636,
                "pitch": 7,
                "velocity": 80,
                "duration": 4.8159091,
                "tempo": 120.0
            },
            {
                "start_time": 62.9136364,
                "end_time": 62.9613636,
                "pitch": 40,
                "velocity": 80,
                "duration": 0.0477273,
                "tempo": 120.0
            },
            {
                "start_time": 62.9136364,
                "end_time": 62.9613636,
                "pitch": 40,
                "velocity": 80,
                "duration": 0.0477273,
                "tempo": 120.0
            },
            {
                "start_time": 62.9613636,
                "end_time": 63.0113636,
                "pitch": 45,
                "velocity": 80,
                "duration": 0.05,
                "tempo": 120.0
            },
            {
                "start_time": 58.1954545,
                "end_time": 63.0113636,
                "pitch": 52,
                "velocity": 80,
                "duration": 4.8159091,
                "tempo": 120.0
            },
            {
                "start_time": 63.0113636,
                "end_time": 103.0681818,
                "pitch": 48,
                "velocity": 80,
                "duration": 40.0568182,
                "tempo": 120.0
            },
            {
                "start_time": 103.0681818,
                "end_time": 103.1159091,
                "pitch": 33,
                "velocity": 80,
                "duration": 0.0477273,
                "tempo": 120.0
            },
            {
                "start_time": 103.1159091,
                "end_time": 103.1795455,
                "pitch": 36,
                "velocity": 80,
                "duration": 0.0636364,
                "tempo": 120.0
            },
            {
                "start_time": 103.1159091,
                "end_time": 103.1795455,
                "pitch": 40,
                "velocity": 80,
                "duration": 0.0636364,
                "tempo": 120.0
            },
            {
                "start_time": 62.9613636,
                "end_time": 103.2181818,
                "pitch": 7,
                "velocity": 80,
                "duration": 40.2568182,
                "tempo": 120.0
            },
            {
                "start_time": 103.1795455,
                "end_time": 103.2181818,
                "pitch": 40,
                "velocity": 80,
                "duration": 0.0386364,
                "tempo": 120.0
            },
            {
                "start_time": 103.1795455,
                "end_time": 103.2181818,
                "pitch": 40,
                "velocity": 80,
                "duration": 0.0386364,
                "tempo": 120.0
            },
            {
                "start_time": 103.2181818,
                "end_time": 103.2727273,
                "pitch": 45,
                "velocity": 80,
                "duration": 0.0545455,
                "tempo": 120.0
            },
            {
                "start_time": 63.0113636,
                "end_time": 103.2727273,
                "pitch": 52,
                "velocity": 80,
                "duration": 40.2613636,
                "tempo": 120.0
            },
            {
                "start_time": 103.275,
                "end_time": 104.6886364,
                "pitch": 48,
                "velocity": 80,
                "duration": 1.4136364,
                "tempo": 120.0
            },
            {
                "start_time": 104.6886364,
                "end_time": 104.7363636,
                "pitch": 31,
                "velocity": 80,
                "duration": 0.0477273,
                "tempo": 120.0
            },
            {
                "start_time": 104.7363636,
                "end_time": 104.7386364,
                "pitch": 35,
                "velocity": 80,
                "duration": 0.0022727,
                "tempo": 120.0
            },
            {
                "start_time": 104.7386364,
                "end_time": 104.7909091,
                "pitch": 35,
                "velocity": 80,
                "duration": 0.0522727,
                "tempo": 120.0
            },
            {
                "start_time": 104.7909091,
                "end_time": 104.8363636,
                "pitch": 38,
                "velocity": 80,
                "duration": 0.0454545,
                "tempo": 120.0
            },
            {
                "start_time": 104.8363636,
                "end_time": 104.8886364,
                "pitch": 43,
                "velocity": 80,
                "duration": 0.0522727,
                "tempo": 120.0
            },
            {
                "start_time": 104.8886364,
                "end_time": 106.2954545,
                "pitch": 47,
                "velocity": 80,
                "duration": 1.4068182,
                "tempo": 120.0
            },
            {
                "start_time": 104.8886364,
                "end_time": 106.2954545,
                "pitch": 47,
                "velocity": 80,
                "duration": 1.4068182,
                "tempo": 120.0
            },
            {
                "start_time": 106.2954545,
                "end_time": 106.3454545,
                "pitch": 35,
                "velocity": 80,
                "duration": 0.05,
                "tempo": 120.0
            },
            {
                "start_time": 104.7909091,
                "end_time": 106.3454545,
                "pitch": 41,
                "velocity": 80,
                "duration": 1.5545455,
                "tempo": 120.0
            },
            {
                "start_time": 106.3454545,
                "end_time": 106.3977273,
                "pitch": 38,
                "velocity": 80,
                "duration": 0.0522727,
                "tempo": 120.0
            },
            {
                "start_time": 106.3454545,
                "end_time": 106.3977273,
                "pitch": 41,
                "velocity": 80,
                "duration": 0.0522727,
                "tempo": 120.0
            },
            {
                "start_time": 61.3545455,
                "end_time": 106.4454545,
                "pitch": 20,
                "velocity": 80,
                "duration": 45.0909091,
                "tempo": 120.0
            },
            {
                "start_time": 106.3977273,
                "end_time": 106.4454545,
                "pitch": 41,
                "velocity": 80,
                "duration": 0.0477273,
                "tempo": 120.0
            },
            {
                "start_time": 106.3977273,
                "end_time": 106.4454545,
                "pitch": 41,
                "velocity": 80,
                "duration": 0.0477273,
                "tempo": 120.0
            },
            {
                "start_time": 106.4454545,
                "end_time": 106.4954545,
                "pitch": 47,
                "velocity": 80,
                "duration": 0.05,
                "tempo": 120.0
            },
            {
                "start_time": 61.4045455,
                "end_time": 106.4977273,
                "pitch": 53,
                "velocity": 80,
                "duration": 45.0931818,
                "tempo": 120.0
            },
            {
                "start_time": 106.4954545,
                "end_time": 106.4977273,
                "pitch": 53,
                "velocity": 80,
                "duration": 0.0022727,
                "tempo": 120.0
            },
            {
                "start_time": 106.4977273,
                "end_time": 107.9045455,
                "pitch": 50,
                "velocity": 80,
                "duration": 1.4068182,
                "tempo": 120.0
            },
            {
                "start_time": 107.9045455,
                "end_time": 107.9522727,
                "pitch": 33,
                "velocity": 80,
                "duration": 0.0477273,
                "tempo": 120.0
            },
            {
                "start_time": 107.9522727,
                "end_time": 108.0068182,
                "pitch": 36,
                "velocity": 80,
                "duration": 0.0545455,
                "tempo": 120.0
            },
            {
                "start_time": 107.9522727,
                "end_time": 108.0068182,
                "pitch": 40,
                "velocity": 80,
                "duration": 0.0545455,
                "tempo": 120.0
            },
            {
                "start_time": 103.2181818,
                "end_time": 108.0522727,
                "pitch": 7,
                "velocity": 80,
                "duration": 4.8340909,
                "tempo": 120.0
            },
            {
                "start_time": 108.0068182,
                "end_time": 108.0522727,
                "pitch": 40,
                "velocity": 80,
                "duration": 0.0454545,
                "tempo": 120.0
            },
            {
                "start_time": 108.0068182,
                "end_time": 108.0522727,
                "pitch": 40,
                "velocity": 80,
                "duration": 0.0454545,
                "tempo": 120.0
            },
            {
                "start_time": 108.0522727,
                "end_time": 108.1045455,
                "pitch": 45,
                "velocity": 80,
                "duration": 0.0522727,
                "tempo": 120.0
            },
            {
                "start_time": 103.2727273,
                "end_time": 108.1045455,
                "pitch": 52,
                "velocity": 80,
                "duration": 4.8318182,
                "tempo": 120.0
            },
            {
                "start_time": 107.9045455,
                "end_time": 109.5136364,
                "pitch": 19,
                "velocity": 80,
                "duration": 1.6090909,
                "tempo": 120.0
            },
            {
                "start_time": 108.1045455,
                "end_time": 109.5136364,
                "pitch": 48,
                "velocity": 80,
                "duration": 1.4090909,
                "tempo": 120.0
            },
            {
                "start_time": 109.5136364,
                "end_time": 109.5636364,
                "pitch": 33,
                "velocity": 80,
                "duration": 0.05,
                "tempo": 120.0
            },
            {
                "start_time": 109.5636364,
                "end_time": 109.6159091,
                "pitch": 36,
                "velocity": 80,
                "duration": 0.0522727,
                "tempo": 120.0
            },
            {
                "start_time": 109.5636364,
                "end_time": 109.6159091,
                "pitch": 40,
                "velocity": 80,
                "duration": 0.0522727,
                "tempo": 120.0
            },
            {
                "start_time": 108.0522727,
                "end_time": 109.6636364,
                "pitch": 7,
                "velocity": 80,
                "duration": 1.6113636,
                "tempo": 120.0
            },
            {
                "start_time": 109.6159091,
                "end_time": 109.6636364,
                "pitch": 40,
                "velocity": 80,
                "duration": 0.0477273,
                "tempo": 120.0
            },
            {
                "start_time": 109.6159091,
                "end_time": 109.6636364,
                "pitch": 40,
                "velocity": 80,
                "duration": 0.0477273,
                "tempo": 120.0
            },
            {
                "start_time": 109.6636364,
                "end_time": 109.7159091,
                "pitch": 45,
                "velocity": 80,
                "duration": 0.0522727,
                "tempo": 120.0
            },
            {
                "start_time": 108.1045455,
                "end_time": 109.7159091,
                "pitch": 52,
                "velocity": 80,
                "duration": 1.6113636,
                "tempo": 120.0
            },
            {
                "start_time": 109.7159091,
                "end_time": 111.1204545,
                "pitch": 48,
                "velocity": 80,
                "duration": 1.4045455,
                "tempo": 120.0
            },
            {
                "start_time": 111.1204545,
                "end_time": 111.1704545,
                "pitch": 31,
                "velocity": 80,
                "duration": 0.05,
                "tempo": 120.0
            },
            {
                "start_time": 111.1704545,
                "end_time": 111.2227273,
                "pitch": 35,
                "velocity": 80,
                "duration": 0.0522727,
                "tempo": 120.0
            },
            {
                "start_time": 111.1704545,
                "end_time": 111.2227273,
                "pitch": 35,
                "velocity": 80,
                "duration": 0.0522727,
                "tempo": 120.0
            },
            {
                "start_time": 111.2227273,
                "end_time": 111.2704545,
                "pitch": 38,
                "velocity": 80,
                "duration": 0.0477273,
                "tempo": 120.0
            },
            {
                "start_time": 111.2704545,
                "end_time": 111.3227273,
                "pitch": 43,
                "velocity": 80,
                "duration": 0.0522727,
                "tempo": 120.0
            },
            {
                "start_time": 111.3227273,
                "end_time": 112.7386364,
                "pitch": 47,
                "velocity": 80,
                "duration": 1.4159091,
                "tempo": 120.0
            },
            {
                "start_time": 111.3227273,
                "end_time": 112.7386364,
                "pitch": 47,
                "velocity": 80,
                "duration": 1.4159091,
                "tempo": 120.0
            },
            {
                "start_time": 112.7409091,
                "end_time": 112.7886364,
                "pitch": 35,
                "velocity": 80,
                "duration": 0.0477273,
                "tempo": 120.0
            },
            {
                "start_time": 111.2227273,
                "end_time": 112.7886364,
                "pitch": 41,
                "velocity": 80,
                "duration": 1.5659091,
                "tempo": 120.0
            },
            {
                "start_time": 112.7886364,
                "end_time": 112.8409091,
                "pitch": 38,
                "velocity": 80,
                "duration": 0.0522727,
                "tempo": 120.0
            },
            {
                "start_time": 112.7886364,
                "end_time": 112.8431818,
                "pitch": 41,
                "velocity": 80,
                "duration": 0.0545455,
                "tempo": 120.0
            },
            {
                "start_time": 112.8409091,
                "end_time": 112.8431818,
                "pitch": 41,
                "velocity": 80,
                "duration": 0.0022727,
                "tempo": 120.0
            },
            {
                "start_time": 106.4454545,
                "end_time": 112.8886364,
                "pitch": 20,
                "velocity": 80,
                "duration": 6.4431818,
                "tempo": 120.0
            },
            {
                "start_time": 112.8431818,
                "end_time": 112.8886364,
                "pitch": 41,
                "velocity": 80,
                "duration": 0.0454545,
                "tempo": 120.0
            },
            {
                "start_time": 112.8886364,
                "end_time": 112.9409091,
                "pitch": 47,
                "velocity": 80,
                "duration": 0.0522727,
                "tempo": 120.0
            },
            {
                "start_time": 109.5136364,
                "end_time": 114.35,
                "pitch": 19,
                "velocity": 80,
                "duration": 4.8363636,
                "tempo": 120.0
            },
            {
                "start_time": 112.9409091,
                "end_time": 114.35,
                "pitch": 50,
                "velocity": 80,
                "duration": 1.4090909,
                "tempo": 120.0
            },
            {
                "start_time": 114.35,
                "end_time": 114.3977273,
                "pitch": 33,
                "velocity": 80,
                "duration": 0.0477273,
                "tempo": 120.0
            },
            {
                "start_time": 114.3977273,
                "end_time": 114.4522727,
                "pitch": 36,
                "velocity": 80,
                "duration": 0.0545455,
                "tempo": 120.0
            },
            {
                "start_time": 114.3977273,
                "end_time": 114.4522727,
                "pitch": 40,
                "velocity": 80,
                "duration": 0.0545455,
                "tempo": 120.0
            },
            {
                "start_time": 109.6636364,
                "end_time": 114.4977273,
                "pitch": 7,
                "velocity": 80,
                "duration": 4.8340909,
                "tempo": 120.0
            },
            {
                "start_time": 114.4522727,
                "end_time": 114.4977273,
                "pitch": 40,
                "velocity": 80,
                "duration": 0.0454545,
                "tempo": 120.0
            },
            {
                "start_time": 114.4522727,
                "end_time": 114.4977273,
                "pitch": 40,
                "velocity": 80,
                "duration": 0.0454545,
                "tempo": 120.0
            },
            {
                "start_time": 114.4977273,
                "end_time": 114.55,
                "pitch": 45,
                "velocity": 80,
                "duration": 0.0522727,
                "tempo": 120.0
            },
            {
                "start_time": 109.7159091,
                "end_time": 114.55,
                "pitch": 52,
                "velocity": 80,
                "duration": 4.8340909,
                "tempo": 120.0
            },
            {
                "start_time": 114.55,
                "end_time": 154.6340909,
                "pitch": 48,
                "velocity": 80,
                "duration": 40.0840909,
                "tempo": 120.0
            },
            {
                "start_time": 154.6340909,
                "end_time": 154.6818182,
                "pitch": 33,
                "velocity": 80,
                "duration": 0.0477273,
                "tempo": 120.0
            },
            {
                "start_time": 154.6818182,
                "end_time": 154.7409091,
                "pitch": 36,
                "velocity": 80,
                "duration": 0.0590909,
                "tempo": 120.0
            },
            {
                "start_time": 154.6818182,
                "end_time": 154.7409091,
                "pitch": 40,
                "velocity": 80,
                "duration": 0.0590909,
                "tempo": 120.0
            },
            {
                "start_time": 114.4977273,
                "end_time": 154.7818182,
                "pitch": 7,
                "velocity": 80,
                "duration": 40.2840909,
                "tempo": 120.0
            },
            {
                "start_time": 154.7409091,
                "end_time": 154.7818182,
                "pitch": 40,
                "velocity": 80,
                "duration": 0.0409091,
                "tempo": 120.0
            },
            {
                "start_time": 154.7431818,
                "end_time": 154.7818182,
                "pitch": 40,
                "velocity": 80,
                "duration": 0.0386364,
                "tempo": 120.0
            },
            {
                "start_time": 154.7818182,
                "end_time": 154.8363636,
                "pitch": 45,
                "velocity": 80,
                "duration": 0.0545455,
                "tempo": 120.0
            },
            {
                "start_time": 114.55,
                "end_time": 154.8363636,
                "pitch": 52,
                "velocity": 80,
                "duration": 40.2863636,
                "tempo": 120.0
            },
            {
                "start_time": 154.8363636,
                "end_time": 156.2431818,
                "pitch": 48,
                "velocity": 80,
                "duration": 1.4068182,
                "tempo": 120.0
            },
            {
                "start_time": 156.2431818,
                "end_time": 156.2909091,
                "pitch": 31,
                "velocity": 80,
                "duration": 0.0477273,
                "tempo": 120.0
            },
            {
                "start_time": 156.2909091,
                "end_time": 156.3454545,
                "pitch": 35,
                "velocity": 80,
                "duration": 0.0545455,
                "tempo": 120.0
            },
            {
                "start_time": 156.2909091,
                "end_time": 156.3454545,
                "pitch": 35,
                "velocity": 80,
                "duration": 0.0545455,
                "tempo": 120.0
            },
            {
                "start_time": 156.3454545,
                "end_time": 156.3931818,
                "pitch": 38,
                "velocity": 80,
                "duration": 0.0477273,
                "tempo": 120.0
            },
            {
                "start_time": 156.3931818,
                "end_time": 156.4454545,
                "pitch": 43,
                "velocity": 80,
                "duration": 0.0522727,
                "tempo": 120.0
            },
            {
                "start_time": 156.4454545,
                "end_time": 157.85,
                "pitch": 47,
                "velocity": 80,
                "duration": 1.4045455,
                "tempo": 120.0
            },
            {
                "start_time": 156.4454545,
                "end_time": 157.85,
                "pitch": 47,
                "velocity": 80,
                "duration": 1.4045455,
                "tempo": 120.0
            },
            {
                "start_time": 157.85,
                "end_time": 157.9,
                "pitch": 35,
                "velocity": 80,
                "duration": 0.05,
                "tempo": 120.0
            },
            {
                "start_time": 156.3454545,
                "end_time": 157.9,
                "pitch": 41,
                "velocity": 80,
                "duration": 1.5545455,
                "tempo": 120.0
            },
            {
                "start_time": 157.9,
                "end_time": 157.9545455,
                "pitch": 38,
                "velocity": 80,
                "duration": 0.0545455,
                "tempo": 120.0
            },
            {
                "start_time": 157.9,
                "end_time": 157.9545455,
                "pitch": 41,
                "velocity": 80,
                "duration": 0.0545455,
                "tempo": 120.0
            },
            {
                "start_time": 112.8886364,
                "end_time": 158.0,
                "pitch": 20,
                "velocity": 80,
                "duration": 45.1113636,
                "tempo": 120.0
            },
            {
                "start_time": 157.9545455,
                "end_time": 158.0,
                "pitch": 41,
                "velocity": 80,
                "duration": 0.0454545,
                "tempo": 120.0
            },
            {
                "start_time": 157.9545455,
                "end_time": 158.0,
                "pitch": 41,
                "velocity": 80,
                "duration": 0.0454545,
                "tempo": 120.0
            },
            {
                "start_time": 158.0,
                "end_time": 158.0522727,
                "pitch": 47,
                "velocity": 80,
                "duration": 0.0522727,
                "tempo": 120.0
            },
            {
                "start_time": 112.9409091,
                "end_time": 158.0522727,
                "pitch": 53,
                "velocity": 80,
                "duration": 45.1113636,
                "tempo": 120.0
            },
            {
                "start_time": 114.35,
                "end_time": 159.4659091,
                "pitch": 19,
                "velocity": 80,
                "duration": 45.1159091,
                "tempo": 120.0
            },
            {
                "start_time": 158.0522727,
                "end_time": 159.4659091,
                "pitch": 50,
                "velocity": 80,
                "duration": 1.4136364,
                "tempo": 120.0
            },
            {
                "start_time": 159.4659091,
                "end_time": 159.5181818,
                "pitch": 33,
                "velocity": 80,
                "duration": 0.0522727,
                "tempo": 120.0
            },
            {
                "start_time": 159.5181818,
                "end_time": 159.5727273,
                "pitch": 36,
                "velocity": 80,
                "duration": 0.0545455,
                "tempo": 120.0
            },
            {
                "start_time": 159.5181818,
                "end_time": 159.5727273,
                "pitch": 40,
                "velocity": 80,
                "duration": 0.0545455,
                "tempo": 120.0
            },
            {
                "start_time": 154.7818182,
                "end_time": 159.6181818,
                "pitch": 7,
                "velocity": 80,
                "duration": 4.8363636,
                "tempo": 120.0
            },
            {
                "start_time": 159.5727273,
                "end_time": 159.6181818,
                "pitch": 40,
                "velocity": 80,
                "duration": 0.0454545,
                "tempo": 120.0
            },
            {
                "start_time": 159.5727273,
                "end_time": 159.6181818,
                "pitch": 40,
                "velocity": 80,
                "duration": 0.0454545,
                "tempo": 120.0
            },
            {
                "start_time": 159.6181818,
                "end_time": 159.6704545,
                "pitch": 45,
                "velocity": 80,
                "duration": 0.0522727,
                "tempo": 120.0
            },
            {
                "start_time": 154.8363636,
                "end_time": 159.6704545,
                "pitch": 52,
                "velocity": 80,
                "duration": 4.8340909,
                "tempo": 120.0
            },
            {
                "start_time": 159.4659091,
                "end_time": 161.0795455,
                "pitch": 19,
                "velocity": 80,
                "duration": 1.6136364,
                "tempo": 120.0
            },
            {
                "start_time": 159.6704545,
                "end_time": 161.0795455,
                "pitch": 48,
                "velocity": 80,
                "duration": 1.4090909,
                "tempo": 120.0
            },
            {
                "start_time": 161.0795455,
                "end_time": 161.1295455,
                "pitch": 33,
                "velocity": 80,
                "duration": 0.05,
                "tempo": 120.0
            },
            {
                "start_time": 161.1295455,
                "end_time": 161.1818182,
                "pitch": 36,
                "velocity": 80,
                "duration": 0.0522727,
                "tempo": 120.0
            },
            {
                "start_time": 161.1295455,
                "end_time": 161.1818182,
                "pitch": 40,
                "velocity": 80,
                "duration": 0.0522727,
                "tempo": 120.0
            },
            {
                "start_time": 159.6181818,
                "end_time": 161.2295455,
                "pitch": 7,
                "velocity": 80,
                "duration": 1.6113636,
                "tempo": 120.0
            },
            {
                "start_time": 161.1818182,
                "end_time": 161.2295455,
                "pitch": 40,
                "velocity": 80,
                "duration": 0.0477273,
                "tempo": 120.0
            },
            {
                "start_time": 161.1840909,
                "end_time": 161.2295455,
                "pitch": 40,
                "velocity": 80,
                "duration": 0.0454545,
                "tempo": 120.0
            },
            {
                "start_time": 161.2295455,
                "end_time": 161.2795455,
                "pitch": 45,
                "velocity": 80,
                "duration": 0.05,
                "tempo": 120.0
            },
            {
                "start_time": 159.6704545,
                "end_time": 161.2795455,
                "pitch": 52,
                "velocity": 80,
                "duration": 1.6090909,
                "tempo": 120.0
            },
            {
                "start_time": 161.2795455,
                "end_time": 162.6886364,
                "pitch": 48,
                "velocity": 80,
                "duration": 1.4090909,
                "tempo": 120.0
            },
            {
                "start_time": 162.6886364,
                "end_time": 162.7386364,
                "pitch": 31,
                "velocity": 80,
                "duration": 0.05,
                "tempo": 120.0
            },
            {
                "start_time": 162.7386364,
                "end_time": 162.7931818,
                "pitch": 35,
                "velocity": 80,
                "duration": 0.0545455,
                "tempo": 120.0
            },
            {
                "start_time": 162.7386364,
                "end_time": 162.7931818,
                "pitch": 35,
                "velocity": 80,
                "duration": 0.0545455,
                "tempo": 120.0
            },
            {
                "start_time": 162.7931818,
                "end_time": 162.8386364,
                "pitch": 38,
                "velocity": 80,
                "duration": 0.0454545,
                "tempo": 120.0
            },
            {
                "start_time": 162.8386364,
                "end_time": 162.8931818,
                "pitch": 43,
                "velocity": 80,
                "duration": 0.0545455,
                "tempo": 120.0
            },
            {
                "start_time": 162.8931818,
                "end_time": 164.2977273,
                "pitch": 47,
                "velocity": 80,
                "duration": 1.4045455,
                "tempo": 120.0
            },
            {
                "start_time": 162.8931818,
                "end_time": 164.2977273,
                "pitch": 47,
                "velocity": 80,
                "duration": 1.4045455,
                "tempo": 120.0
            },
            {
                "start_time": 164.2977273,
                "end_time": 164.3477273,
                "pitch": 35,
                "velocity": 80,
                "duration": 0.05,
                "tempo": 120.0
            },
            {
                "start_time": 162.7931818,
                "end_time": 164.3477273,
                "pitch": 41,
                "velocity": 80,
                "duration": 1.5545455,
                "tempo": 120.0
            },
            {
                "start_time": 164.3477273,
                "end_time": 164.4,
                "pitch": 38,
                "velocity": 80,
                "duration": 0.0522727,
                "tempo": 120.0
            },
            {
                "start_time": 164.3477273,
                "end_time": 164.4,
                "pitch": 41,
                "velocity": 80,
                "duration": 0.0522727,
                "tempo": 120.0
            },
            {
                "start_time": 158.0,
                "end_time": 164.4477273,
                "pitch": 20,
                "velocity": 80,
                "duration": 6.4477273,
                "tempo": 120.0
            },
            {
                "start_time": 164.4,
                "end_time": 164.4477273,
                "pitch": 41,
                "velocity": 80,
                "duration": 0.0477273,
                "tempo": 120.0
            },
            {
                "start_time": 164.4,
                "end_time": 164.4477273,
                "pitch": 41,
                "velocity": 80,
                "duration": 0.0477273,
                "tempo": 120.0
            },
            {
                "start_time": 164.4477273,
                "end_time": 164.5,
                "pitch": 47,
                "velocity": 80,
                "duration": 0.0522727,
                "tempo": 120.0
            },
            {
                "start_time": 158.0522727,
                "end_time": 164.5,
                "pitch": 53,
                "velocity": 80,
                "duration": 6.4477273,
                "tempo": 120.0
            },
            {
                "start_time": 161.0795455,
                "end_time": 165.9068182,
                "pitch": 19,
                "velocity": 80,
                "duration": 4.8272727,
                "tempo": 120.0
            },
            {
                "start_time": 164.5,
                "end_time": 165.9068182,
                "pitch": 50,
                "velocity": 80,
                "duration": 1.4068182,
                "tempo": 120.0
            },
            {
                "start_time": 165.9068182,
                "end_time": 165.9568182,
                "pitch": 33,
                "velocity": 80,
                "duration": 0.05,
                "tempo": 120.0
            },
            {
                "start_time": 165.9568182,
                "end_time": 166.0113636,
                "pitch": 36,
                "velocity": 80,
                "duration": 0.0545455,
                "tempo": 120.0
            },
            {
                "start_time": 165.9568182,
                "end_time": 166.0113636,
                "pitch": 40,
                "velocity": 80,
                "duration": 0.0545455,
                "tempo": 120.0
            },
            {
                "start_time": 161.2295455,
                "end_time": 166.0568182,
                "pitch": 7,
                "velocity": 80,
                "duration": 4.8272727,
                "tempo": 120.0
            },
            {
                "start_time": 166.0113636,
                "end_time": 166.0568182,
                "pitch": 40,
                "velocity": 80,
                "duration": 0.0454545,
                "tempo": 120.0
            },
            {
                "start_time": 166.0113636,
                "end_time": 166.0568182,
                "pitch": 40,
                "velocity": 80,
                "duration": 0.0454545,
                "tempo": 120.0
            },
            {
                "start_time": 166.0568182,
                "end_time": 166.1090909,
                "pitch": 45,
                "velocity": 80,
                "duration": 0.0522727,
                "tempo": 120.0
            },
            {
                "start_time": 161.2795455,
                "end_time": 166.1090909,
                "pitch": 52,
                "velocity": 80,
                "duration": 4.8295455,
                "tempo": 120.0
            }
        ],
        "Trumpet": [
            {
                "start_time": 13.1659091,
                "end_time": 13.3704545,
                "pitch": 57,
                "velocity": 80,
                "duration": 0.2045455,
                "tempo": 120.0
            },
            {
                "start_time": 13.3704545,
                "end_time": 13.5704545,
                "pitch": 59,
                "velocity": 80,
                "duration": 0.2,
                "tempo": 120.0
            },
            {
                "start_time": 13.5704545,
                "end_time": 14.7727273,
                "pitch": 60,
                "velocity": 80,
                "duration": 1.2022727,
                "tempo": 120.0
            },
            {
                "start_time": 14.7727273,
                "end_time": 14.9727273,
                "pitch": 55,
                "velocity": 80,
                "duration": 0.2,
                "tempo": 120.0
            },
            {
                "start_time": 14.9727273,
                "end_time": 15.1727273,
                "pitch": 57,
                "velocity": 80,
                "duration": 0.2,
                "tempo": 120.0
            },
            {
                "start_time": 15.1727273,
                "end_time": 16.3840909,
                "pitch": 59,
                "velocity": 80,
                "duration": 1.2113636,
                "tempo": 120.0
            },
            {
                "start_time": 16.3840909,
                "end_time": 16.5909091,
                "pitch": 59,
                "velocity": 80,
                "duration": 0.2068182,
                "tempo": 120.0
            },
            {
                "start_time": 13.5704545,
                "end_time": 16.5909091,
                "pitch": 64,
                "velocity": 80,
                "duration": 3.0204545,
                "tempo": 120.0
            },
            {
                "start_time": 16.5909091,
                "end_time": 16.7909091,
                "pitch": 60,
                "velocity": 80,
                "duration": 0.2,
                "tempo": 120.0
            },
            {
                "start_time": 16.7909091,
                "end_time": 17.9931818,
                "pitch": 62,
                "velocity": 80,
                "duration": 1.2022727,
                "tempo": 120.0
            },
            {
                "start_time": 16.7909091,
                "end_time": 17.9931818,
                "pitch": 62,
                "velocity": 80,
                "duration": 1.2022727,
                "tempo": 120.0
            },
            {
                "start_time": 17.9931818,
                "end_time": 18.2,
                "pitch": 60,
                "velocity": 80,
                "duration": 0.2068182,
                "tempo": 120.0
            },
            {
                "start_time": 17.9931818,
                "end_time": 18.2,
                "pitch": 60,
                "velocity": 80,
                "duration": 0.2068182,
                "tempo": 120.0
            },
            {
                "start_time": 18.2,
                "end_time": 18.4022727,
                "pitch": 59,
                "velocity": 80,
                "duration": 0.2022727,
                "tempo": 120.0
            },
            {
                "start_time": 18.4022727,
                "end_time": 19.6068182,
                "pitch": 57,
                "velocity": 80,
                "duration": 1.2045455,
                "tempo": 120.0
            },
            {
                "start_time": 19.6068182,
                "end_time": 19.8090909,
                "pitch": 57,
                "velocity": 80,
                "duration": 0.2022727,
                "tempo": 120.0
            },
            {
                "start_time": 19.8090909,
                "end_time": 20.0090909,
                "pitch": 59,
                "velocity": 80,
                "duration": 0.2,
                "tempo": 120.0
            },
            {
                "start_time": 16.5909091,
                "end_time": 20.0090909,
                "pitch": 64,
                "velocity": 80,
                "duration": 3.4181818,
                "tempo": 120.0
            },
            {
                "start_time": 20.0090909,
                "end_time": 21.2136364,
                "pitch": 60,
                "velocity": 80,
                "duration": 1.2045455,
                "tempo": 120.0
            },
            {
                "start_time": 21.2136364,
                "end_time": 21.4136364,
                "pitch": 55,
                "velocity": 80,
                "duration": 0.2,
                "tempo": 120.0
            },
            {
                "start_time": 21.4136364,
                "end_time": 21.6136364,
                "pitch": 57,
                "velocity": 80,
                "duration": 0.2,
                "tempo": 120.0
            },
            {
                "start_time": 21.6136364,
                "end_time": 22.8181818,
                "pitch": 59,
                "velocity": 80,
                "duration": 1.2045455,
                "tempo": 120.0
            },
            {
                "start_time": 22.8181818,
                "end_time": 23.0204545,
                "pitch": 59,
                "velocity": 80,
                "duration": 0.2022727,
                "tempo": 120.0
            },
            {
                "start_time": 20.0090909,
                "end_time": 23.0204545,
                "pitch": 64,
                "velocity": 80,
                "duration": 3.0113636,
                "tempo": 120.0
            },
            {
                "start_time": 23.0204545,
                "end_time": 23.2204545,
                "pitch": 60,
                "velocity": 80,
                "duration": 0.2,
                "tempo": 120.0
            },
            {
                "start_time": 23.2204545,
                "end_time": 24.4272727,
                "pitch": 62,
                "velocity": 80,
                "duration": 1.2068182,
                "tempo": 120.0
            },
            {
                "start_time": 23.2204545,
                "end_time": 24.4272727,
                "pitch": 62,
                "velocity": 80,
                "duration": 1.2068182,
                "tempo": 120.0
            },
            {
                "start_time": 23.0204545,
                "end_time": 24.6340909,
                "pitch": 64,
                "velocity": 80,
                "duration": 1.6136364,
                "tempo": 120.0
            },
            {
                "start_time": 24.4272727,
                "end_time": 24.6340909,
                "pitch": 64,
                "velocity": 80,
                "duration": 0.2068182,
                "tempo": 120.0
            },
            {
                "start_time": 24.6340909,
                "end_time": 24.8363636,
                "pitch": 62,
                "velocity": 80,
                "duration": 0.2022727,
                "tempo": 120.0
            },
            {
                "start_time": 24.8363636,
                "end_time": 38.9,
                "pitch": 60,
                "velocity": 80,
                "duration": 14.0636364,
                "tempo": 120.0
            },
            {
                "start_time": 24.8363636,
                "end_time": 38.9,
                "pitch": 60,
                "velocity": 80,
                "duration": 14.0636364,
                "tempo": 120.0
            },
            {
                "start_time": 18.2,
                "end_time": 39.1045455,
                "pitch": 44,
                "velocity": 80,
                "duration": 20.9045455,
                "tempo": 120.0
            },
            {
                "start_time": 38.9,
                "end_time": 39.1045455,
                "pitch": 60,
                "velocity": 80,
                "duration": 0.2045455,
                "tempo": 120.0
            },
            {
                "start_time": 39.1045455,
                "end_time": 39.3068182,
                "pitch": 59,
                "velocity": 80,
                "duration": 0.2022727,
                "tempo": 120.0
            },
            {
                "start_time": 39.3068182,
                "end_time": 39.9,
                "pitch": 57,
                "velocity": 80,
                "duration": 0.5931818,
                "tempo": 120.0
            },
            {
                "start_time": 39.9,
                "end_time": 40.1022727,
                "pitch": 57,
                "velocity": 80,
                "duration": 0.2022727,
                "tempo": 120.0
            },
            {
                "start_time": 40.1022727,
                "end_time": 40.3045455,
                "pitch": 59,
                "velocity": 80,
                "duration": 0.2022727,
                "tempo": 120.0
            },
            {
                "start_time": 39.1045455,
                "end_time": 40.5068182,
                "pitch": 44,
                "velocity": 80,
                "duration": 1.4022727,
                "tempo": 120.0
            },
            {
                "start_time": 40.3045455,
                "end_time": 40.5068182,
                "pitch": 60,
                "velocity": 80,
                "duration": 0.2022727,
                "tempo": 120.0
            },
            {
                "start_time": 40.5068182,
                "end_time": 40.7136364,
                "pitch": 59,
                "velocity": 80,
                "duration": 0.2068182,
                "tempo": 120.0
            },
            {
                "start_time": 40.7136364,
                "end_time": 40.9136364,
                "pitch": 57,
                "velocity": 80,
                "duration": 0.2,
                "tempo": 120.0
            },
            {
                "start_time": 40.9136364,
                "end_time": 41.5159091,
                "pitch": 55,
                "velocity": 80,
                "duration": 0.6022727,
                "tempo": 120.0
            },
            {
                "start_time": 41.5159091,
                "end_time": 41.7204545,
                "pitch": 55,
                "velocity": 80,
                "duration": 0.2045455,
                "tempo": 120.0
            },
            {
                "start_time": 41.7204545,
                "end_time": 41.9227273,
                "pitch": 57,
                "velocity": 80,
                "duration": 0.2022727,
                "tempo": 120.0
            },
            {
                "start_time": 41.9227273,
                "end_time": 42.1227273,
                "pitch": 59,
                "velocity": 80,
                "duration": 0.2,
                "tempo": 120.0
            },
            {
                "start_time": 42.1227273,
                "end_time": 42.3227273,
                "pitch": 62,
                "velocity": 80,
                "duration": 0.2,
                "tempo": 120.0
            },
            {
                "start_time": 40.5068182,
                "end_time": 42.5227273,
                "pitch": 44,
                "velocity": 80,
                "duration": 2.0159091,
                "tempo": 120.0
            },
            {
                "start_time": 42.3227273,
                "end_time": 42.5227273,
                "pitch": 60,
                "velocity": 80,
                "duration": 0.2,
                "tempo": 120.0
            },
            {
                "start_time": 42.3227273,
                "end_time": 42.5227273,
                "pitch": 60,
                "velocity": 80,
                "duration": 0.2,
                "tempo": 120.0
            },
            {
                "start_time": 42.5227273,
                "end_time": 43.125,
                "pitch": 59,
                "velocity": 80,
                "duration": 0.6022727,
                "tempo": 120.0
            },
            {
                "start_time": 43.125,
                "end_time": 43.325,
                "pitch": 59,
                "velocity": 80,
                "duration": 0.2,
                "tempo": 120.0
            },
            {
                "start_time": 40.3045455,
                "end_time": 43.325,
                "pitch": 64,
                "velocity": 80,
                "duration": 3.0204545,
                "tempo": 120.0
            },
            {
                "start_time": 43.325,
                "end_time": 43.525,
                "pitch": 60,
                "velocity": 80,
                "duration": 0.2,
                "tempo": 120.0
            },
            {
                "start_time": 43.525,
                "end_time": 43.725,
                "pitch": 62,
                "velocity": 80,
                "duration": 0.2,
                "tempo": 120.0
            },
            {
                "start_time": 43.525,
                "end_time": 43.725,
                "pitch": 62,
                "velocity": 80,
                "duration": 0.2,
                "tempo": 120.0
            },
            {
                "start_time": 42.5227273,
                "end_time": 43.9272727,
                "pitch": 44,
                "velocity": 80,
                "duration": 1.4045455,
                "tempo": 120.0
            },
            {
                "start_time": 43.725,
                "end_time": 43.9272727,
                "pitch": 60,
                "velocity": 80,
                "duration": 0.2022727,
                "tempo": 120.0
            },
            {
                "start_time": 43.725,
                "end_time": 43.9272727,
                "pitch": 60,
                "velocity": 80,
                "duration": 0.2022727,
                "tempo": 120.0
            },
            {
                "start_time": 43.9272727,
                "end_time": 44.1272727,
                "pitch": 59,
                "velocity": 80,
                "duration": 0.2,
                "tempo": 120.0
            },
            {
                "start_time": 44.1272727,
                "end_time": 45.3318182,
                "pitch": 57,
                "velocity": 80,
                "duration": 1.2045455,
                "tempo": 120.0
            },
            {
                "start_time": 43.325,
                "end_time": 45.3318182,
                "pitch": 64,
                "velocity": 80,
                "duration": 2.0068182,
                "tempo": 120.0
            },
            {
                "start_time": 43.9272727,
                "end_time": 45.5386364,
                "pitch": 44,
                "velocity": 80,
                "duration": 1.6113636,
                "tempo": 120.0
            },
            {
                "start_time": 45.3318182,
                "end_time": 45.5386364,
                "pitch": 60,
                "velocity": 80,
                "duration": 0.2068182,
                "tempo": 120.0
            },
            {
                "start_time": 45.5386364,
                "end_time": 45.7386364,
                "pitch": 59,
                "velocity": 80,
                "duration": 0.2,
                "tempo": 120.0
            },
            {
                "start_time": 45.7386364,
                "end_time": 46.3340909,
                "pitch": 57,
                "velocity": 80,
                "duration": 0.5954545,
                "tempo": 120.0
            },
            {
                "start_time": 46.3340909,
                "end_time": 46.5340909,
                "pitch": 57,
                "velocity": 80,
                "duration": 0.2,
                "tempo": 120.0
            },
            {
                "start_time": 46.5340909,
                "end_time": 46.7363636,
                "pitch": 59,
                "velocity": 80,
                "duration": 0.2022727,
                "tempo": 120.0
            },
            {
                "start_time": 45.3318182,
                "end_time": 46.7363636,
                "pitch": 64,
                "velocity": 80,
                "duration": 1.4045455,
                "tempo": 120.0
            },
            {
                "start_time": 45.5386364,
                "end_time": 46.9363636,
                "pitch": 44,
                "velocity": 80,
                "duration": 1.3977273,
                "tempo": 120.0
            },
            {
                "start_time": 46.7363636,
                "end_time": 46.9363636,
                "pitch": 60,
                "velocity": 80,
                "duration": 0.2,
                "tempo": 120.0
            },
            {
                "start_time": 46.9363636,
                "end_time": 47.1431818,
                "pitch": 59,
                "velocity": 80,
                "duration": 0.2068182,
                "tempo": 120.0
            },
            {
                "start_time": 47.1431818,
                "end_time": 47.3431818,
                "pitch": 57,
                "velocity": 80,
                "duration": 0.2,
                "tempo": 120.0
            },
            {
                "start_time": 47.3431818,
                "end_time": 47.9409091,
                "pitch": 55,
                "velocity": 80,
                "duration": 0.5977273,
                "tempo": 120.0
            },
            {
                "start_time": 47.9409091,
                "end_time": 48.1409091,
                "pitch": 55,
                "velocity": 80,
                "duration": 0.2,
                "tempo": 120.0
            },
            {
                "start_time": 48.1409091,
                "end_time": 48.3431818,
                "pitch": 57,
                "velocity": 80,
                "duration": 0.2022727,
                "tempo": 120.0
            },
            {
                "start_time": 48.3431818,
                "end_time": 48.5454545,
                "pitch": 59,
                "velocity": 80,
                "duration": 0.2022727,
                "tempo": 120.0
            },
            {
                "start_time": 42.1227273,
                "end_time": 48.5454545,
                "pitch": 65,
                "velocity": 80,
                "duration": 6.4227273,
                "tempo": 120.0
            },
            {
                "start_time": 48.5454545,
                "end_time": 48.75,
                "pitch": 62,
                "velocity": 80,
                "duration": 0.2045455,
                "tempo": 120.0
            },
            {
                "start_time": 46.9363636,
                "end_time": 48.9545455,
                "pitch": 44,
                "velocity": 80,
                "duration": 2.0181818,
                "tempo": 120.0
            },
            {
                "start_time": 48.75,
                "end_time": 48.9545455,
                "pitch": 60,
                "velocity": 80,
                "duration": 0.2045455,
                "tempo": 120.0
            },
            {
                "start_time": 48.75,
                "end_time": 48.9545455,
                "pitch": 60,
                "velocity": 80,
                "duration": 0.2045455,
                "tempo": 120.0
            },
            {
                "start_time": 48.9545455,
                "end_time": 49.5477273,
                "pitch": 59,
                "velocity": 80,
                "duration": 0.5931818,
                "tempo": 120.0
            },
            {
                "start_time": 49.5477273,
                "end_time": 49.75,
                "pitch": 59,
                "velocity": 80,
                "duration": 0.2022727,
                "tempo": 120.0
            },
            {
                "start_time": 46.7363636,
                "end_time": 49.75,
                "pitch": 64,
                "velocity": 80,
                "duration": 3.0136364,
                "tempo": 120.0
            },
            {
                "start_time": 49.75,
                "end_time": 49.9568182,
                "pitch": 60,
                "velocity": 80,
                "duration": 0.2068182,
                "tempo": 120.0
            },
            {
                "start_time": 49.9568182,
                "end_time": 50.1590909,
                "pitch": 62,
                "velocity": 80,
                "duration": 0.2022727,
                "tempo": 120.0
            },
            {
                "start_time": 49.9568182,
                "end_time": 50.1590909,
                "pitch": 62,
                "velocity": 80,
                "duration": 0.2022727,
                "tempo": 120.0
            },
            {
                "start_time": 48.9545455,
                "end_time": 50.3590909,
                "pitch": 44,
                "velocity": 80,
                "duration": 1.4045455,
                "tempo": 120.0
            },
            {
                "start_time": 50.1590909,
                "end_time": 50.3590909,
                "pitch": 60,
                "velocity": 80,
                "duration": 0.2,
                "tempo": 120.0
            },
            {
                "start_time": 50.1590909,
                "end_time": 50.3590909,
                "pitch": 60,
                "velocity": 80,
                "duration": 0.2,
                "tempo": 120.0
            },
            {
                "start_time": 50.3590909,
                "end_time": 50.5590909,
                "pitch": 59,
                "velocity": 80,
                "duration": 0.2,
                "tempo": 120.0
            },
            {
                "start_time": 50.5590909,
                "end_time": 64.6181818,
                "pitch": 57,
                "velocity": 80,
                "duration": 14.0590909,
                "tempo": 120.0
            },
            {
                "start_time": 64.6181818,
                "end_time": 64.8227273,
                "pitch": 57,
                "velocity": 80,
                "duration": 0.2045455,
                "tempo": 120.0
            },
            {
                "start_time": 64.8227273,
                "end_time": 65.0272727,
                "pitch": 59,
                "velocity": 80,
                "duration": 0.2045455,
                "tempo": 120.0
            },
            {
                "start_time": 49.75,
                "end_time": 65.0272727,
                "pitch": 64,
                "velocity": 80,
                "duration": 15.2772727,
                "tempo": 120.0
            },
            {
                "start_time": 65.0272727,
                "end_time": 66.2340909,
                "pitch": 60,
                "velocity": 80,
                "duration": 1.2068182,
                "tempo": 120.0
            },
            {
                "start_time": 66.2340909,
                "end_time": 66.4340909,
                "pitch": 55,
                "velocity": 80,
                "duration": 0.2,
                "tempo": 120.0
            },
            {
                "start_time": 66.4340909,
                "end_time": 66.6340909,
                "pitch": 57,
                "velocity": 80,
                "duration": 0.2,
                "tempo": 120.0
            },
            {
                "start_time": 66.6340909,
                "end_time": 67.8409091,
                "pitch": 59,
                "velocity": 80,
                "duration": 1.2068182,
                "tempo": 120.0
            },
            {
                "start_time": 67.8409091,
                "end_time": 68.0431818,
                "pitch": 59,
                "velocity": 80,
                "duration": 0.2022727,
                "tempo": 120.0
            },
            {
                "start_time": 65.0272727,
                "end_time": 68.0431818,
                "pitch": 64,
                "velocity": 80,
                "duration": 3.0159091,
                "tempo": 120.0
            },
            {
                "start_time": 68.0431818,
                "end_time": 68.2454545,
                "pitch": 60,
                "velocity": 80,
                "duration": 0.2022727,
                "tempo": 120.0
            },
            {
                "start_time": 68.2454545,
                "end_time": 69.4522727,
                "pitch": 62,
                "velocity": 80,
                "duration": 1.2068182,
                "tempo": 120.0
            },
            {
                "start_time": 68.2454545,
                "end_time": 69.4522727,
                "pitch": 62,
                "velocity": 80,
                "duration": 1.2068182,
                "tempo": 120.0
            },
            {
                "start_time": 50.3590909,
                "end_time": 69.6522727,
                "pitch": 44,
                "velocity": 80,
                "duration": 19.2931818,
                "tempo": 120.0
            },
            {
                "start_time": 69.4522727,
                "end_time": 69.6522727,
                "pitch": 60,
                "velocity": 80,
                "duration": 0.2,
                "tempo": 120.0
            },
            {
                "start_time": 69.4522727,
                "end_time": 69.6522727,
                "pitch": 60,
                "velocity": 80,
                "duration": 0.2,
                "tempo": 120.0
            },
            {
                "start_time": 69.6522727,
                "end_time": 69.8522727,
                "pitch": 59,
                "velocity": 80,
                "duration": 0.2,
                "tempo": 120.0
            },
            {
                "start_time": 69.8522727,
                "end_time": 71.0613636,
                "pitch": 57,
                "velocity": 80,
                "duration": 1.2090909,
                "tempo": 120.0
            },
            {
                "start_time": 71.0613636,
                "end_time": 71.2681818,
                "pitch": 57,
                "velocity": 80,
                "duration": 0.2068182,
                "tempo": 120.0
            },
            {
                "start_time": 71.2681818,
                "end_time": 71.4681818,
                "pitch": 59,
                "velocity": 80,
                "duration": 0.2,
                "tempo": 120.0
            },
            {
                "start_time": 68.0431818,
                "end_time": 71.4681818,
                "pitch": 64,
                "velocity": 80,
                "duration": 3.425,
                "tempo": 120.0
            },
            {
                "start_time": 71.4681818,
                "end_time": 72.6681818,
                "pitch": 60,
                "velocity": 80,
                "duration": 1.2,
                "tempo": 120.0
            },
            {
                "start_time": 72.6681818,
                "end_time": 72.875,
                "pitch": 55,
                "velocity": 80,
                "duration": 0.2068182,
                "tempo": 120.0
            },
            {
                "start_time": 72.875,
                "end_time": 73.0772727,
                "pitch": 57,
                "velocity": 80,
                "duration": 0.2022727,
                "tempo": 120.0
            },
            {
                "start_time": 73.0772727,
                "end_time": 74.2818182,
                "pitch": 59,
                "velocity": 80,
                "duration": 1.2045455,
                "tempo": 120.0
            },
            {
                "start_time": 74.2818182,
                "end_time": 74.4840909,
                "pitch": 59,
                "velocity": 80,
                "duration": 0.2022727,
                "tempo": 120.0
            },
            {
                "start_time": 71.4681818,
                "end_time": 74.4840909,
                "pitch": 64,
                "velocity": 80,
                "duration": 3.0159091,
                "tempo": 120.0
            },
            {
                "start_time": 74.4840909,
                "end_time": 74.6863636,
                "pitch": 60,
                "velocity": 80,
                "duration": 0.2022727,
                "tempo": 120.0
            },
            {
                "start_time": 74.6863636,
                "end_time": 75.8931818,
                "pitch": 62,
                "velocity": 80,
                "duration": 1.2068182,
                "tempo": 120.0
            },
            {
                "start_time": 74.6863636,
                "end_time": 75.8931818,
                "pitch": 62,
                "velocity": 80,
                "duration": 1.2068182,
                "tempo": 120.0
            },
            {
                "start_time": 74.4840909,
                "end_time": 76.0931818,
                "pitch": 64,
                "velocity": 80,
                "duration": 1.6090909,
                "tempo": 120.0
            },
            {
                "start_time": 75.8931818,
                "end_time": 76.0931818,
                "pitch": 64,
                "velocity": 80,
                "duration": 0.2,
                "tempo": 120.0
            },
            {
                "start_time": 76.0931818,
                "end_time": 76.2931818,
                "pitch": 62,
                "velocity": 80,
                "duration": 0.2,
                "tempo": 120.0
            },
            {
                "start_time": 76.2931818,
                "end_time": 90.3909091,
                "pitch": 60,
                "velocity": 80,
                "duration": 14.0977273,
                "tempo": 120.0
            },
            {
                "start_time": 76.2931818,
                "end_time": 90.3909091,
                "pitch": 60,
                "velocity": 80,
                "duration": 14.0977273,
                "tempo": 120.0
            },
            {
                "start_time": 69.6522727,
                "end_time": 90.5909091,
                "pitch": 44,
                "velocity": 80,
                "duration": 20.9386364,
                "tempo": 120.0
            },
            {
                "start_time": 90.3909091,
                "end_time": 90.5909091,
                "pitch": 60,
                "velocity": 80,
                "duration": 0.2,
                "tempo": 120.0
            },
            {
                "start_time": 90.5909091,
                "end_time": 90.7909091,
                "pitch": 59,
                "velocity": 80,
                "duration": 0.2,
                "tempo": 120.0
            },
            {
                "start_time": 90.7909091,
                "end_time": 91.3954545,
                "pitch": 57,
                "velocity": 80,
                "duration": 0.6045455,
                "tempo": 120.0
            },
            {
                "start_time": 91.3954545,
                "end_time": 91.5954545,
                "pitch": 57,
                "velocity": 80,
                "duration": 0.2,
                "tempo": 120.0
            },
            {
                "start_time": 91.5954545,
                "end_time": 91.7977273,
                "pitch": 59,
                "velocity": 80,
                "duration": 0.2022727,
                "tempo": 120.0
            },
            {
                "start_time": 90.5909091,
                "end_time": 91.9977273,
                "pitch": 44,
                "velocity": 80,
                "duration": 1.4068182,
                "tempo": 120.0
            },
            {
                "start_time": 91.7977273,
                "end_time": 91.9977273,
                "pitch": 60,
                "velocity": 80,
                "duration": 0.2,
                "tempo": 120.0
            },
            {
                "start_time": 91.9977273,
                "end_time": 92.2,
                "pitch": 59,
                "velocity": 80,
                "duration": 0.2022727,
                "tempo": 120.0
            },
            {
                "start_time": 92.2,
                "end_time": 92.4,
                "pitch": 57,
                "velocity": 80,
                "duration": 0.2,
                "tempo": 120.0
            },
            {
                "start_time": 92.4,
                "end_time": 93.0045455,
                "pitch": 55,
                "velocity": 80,
                "duration": 0.6045455,
                "tempo": 120.0
            },
            {
                "start_time": 93.0045455,
                "end_time": 93.2045455,
                "pitch": 55,
                "velocity": 80,
                "duration": 0.2,
                "tempo": 120.0
            },
            {
                "start_time": 93.2045455,
                "end_time": 93.4068182,
                "pitch": 57,
                "velocity": 80,
                "duration": 0.2022727,
                "tempo": 120.0
            },
            {
                "start_time": 93.4068182,
                "end_time": 93.6045455,
                "pitch": 59,
                "velocity": 80,
                "duration": 0.1977273,
                "tempo": 120.0
            },
            {
                "start_time": 48.5454545,
                "end_time": 93.6045455,
                "pitch": 65,
                "velocity": 80,
                "duration": 45.0590909,
                "tempo": 120.0
            },
            {
                "start_time": 93.6045455,
                "end_time": 93.8068182,
                "pitch": 62,
                "velocity": 80,
                "duration": 0.2022727,
                "tempo": 120.0
            },
            {
                "start_time": 91.9977273,
                "end_time": 94.0090909,
                "pitch": 44,
                "velocity": 80,
                "duration": 2.0113636,
                "tempo": 120.0
            },
            {
                "start_time": 93.8068182,
                "end_time": 94.0090909,
                "pitch": 60,
                "velocity": 80,
                "duration": 0.2022727,
                "tempo": 120.0
            },
            {
                "start_time": 93.8068182,
                "end_time": 94.0090909,
                "pitch": 60,
                "velocity": 80,
                "duration": 0.2022727,
                "tempo": 120.0
            },
            {
                "start_time": 94.0090909,
                "end_time": 94.6113636,
                "pitch": 59,
                "velocity": 80,
                "duration": 0.6022727,
                "tempo": 120.0
            },
            {
                "start_time": 94.6113636,
                "end_time": 94.8113636,
                "pitch": 59,
                "velocity": 80,
                "duration": 0.2,
                "tempo": 120.0
            },
            {
                "start_time": 91.7977273,
                "end_time": 94.8113636,
                "pitch": 64,
                "velocity": 80,
                "duration": 3.0136364,
                "tempo": 120.0
            },
            {
                "start_time": 94.8113636,
                "end_time": 95.0159091,
                "pitch": 60,
                "velocity": 80,
                "duration": 0.2045455,
                "tempo": 120.0
            },
            {
                "start_time": 95.0159091,
                "end_time": 95.2181818,
                "pitch": 62,
                "velocity": 80,
                "duration": 0.2022727,
                "tempo": 120.0
            },
            {
                "start_time": 95.0159091,
                "end_time": 95.2181818,
                "pitch": 62,
                "velocity": 80,
                "duration": 0.2022727,
                "tempo": 120.0
            },
            {
                "start_time": 94.0090909,
                "end_time": 95.425,
                "pitch": 44,
                "velocity": 80,
                "duration": 1.4159091,
                "tempo": 120.0
            },
            {
                "start_time": 95.2181818,
                "end_time": 95.425,
                "pitch": 60,
                "velocity": 80,
                "duration": 0.2068182,
                "tempo": 120.0
            },
            {
                "start_time": 95.2181818,
                "end_time": 95.425,
                "pitch": 60,
                "velocity": 80,
                "duration": 0.2068182,
                "tempo": 120.0
            },
            {
                "start_time": 95.425,
                "end_time": 95.625,
                "pitch": 59,
                "velocity": 80,
                "duration": 0.2,
                "tempo": 120.0
            },
            {
                "start_time": 95.625,
                "end_time": 96.8340909,
                "pitch": 57,
                "velocity": 80,
                "duration": 1.2090909,
                "tempo": 120.0
            },
            {
                "start_time": 94.8113636,
                "end_time": 96.8340909,
                "pitch": 64,
                "velocity": 80,
                "duration": 2.0227273,
                "tempo": 120.0
            },
            {
                "start_time": 95.425,
                "end_time": 97.0340909,
                "pitch": 44,
                "velocity": 80,
                "duration": 1.6090909,
                "tempo": 120.0
            },
            {
                "start_time": 96.8340909,
                "end_time": 97.0340909,
                "pitch": 60,
                "velocity": 80,
                "duration": 0.2,
                "tempo": 120.0
            },
            {
                "start_time": 97.0340909,
                "end_time": 97.2340909,
                "pitch": 59,
                "velocity": 80,
                "duration": 0.2,
                "tempo": 120.0
            },
            {
                "start_time": 97.2340909,
                "end_time": 97.8409091,
                "pitch": 57,
                "velocity": 80,
                "duration": 0.6068182,
                "tempo": 120.0
            },
            {
                "start_time": 97.8409091,
                "end_time": 98.0409091,
                "pitch": 57,
                "velocity": 80,
                "duration": 0.2,
                "tempo": 120.0
            },
            {
                "start_time": 98.0409091,
                "end_time": 98.2431818,
                "pitch": 59,
                "velocity": 80,
                "duration": 0.2022727,
                "tempo": 120.0
            },
            {
                "start_time": 96.8340909,
                "end_time": 98.2431818,
                "pitch": 64,
                "velocity": 80,
                "duration": 1.4090909,
                "tempo": 120.0
            },
            {
                "start_time": 97.0340909,
                "end_time": 98.4409091,
                "pitch": 44,
                "velocity": 80,
                "duration": 1.4068182,
                "tempo": 120.0
            },
            {
                "start_time": 98.2431818,
                "end_time": 98.4409091,
                "pitch": 60,
                "velocity": 80,
                "duration": 0.1977273,
                "tempo": 120.0
            },
            {
                "start_time": 98.4409091,
                "end_time": 98.6431818,
                "pitch": 59,
                "velocity": 80,
                "duration": 0.2022727,
                "tempo": 120.0
            },
            {
                "start_time": 98.6431818,
                "end_time": 98.8431818,
                "pitch": 57,
                "velocity": 80,
                "duration": 0.2,
                "tempo": 120.0
            },
            {
                "start_time": 98.8431818,
                "end_time": 99.4477273,
                "pitch": 55,
                "velocity": 80,
                "duration": 0.6045455,
                "tempo": 120.0
            },
            {
                "start_time": 99.4477273,
                "end_time": 99.6477273,
                "pitch": 55,
                "velocity": 80,
                "duration": 0.2,
                "tempo": 120.0
            },
            {
                "start_time": 99.6477273,
                "end_time": 99.8522727,
                "pitch": 57,
                "velocity": 80,
                "duration": 0.2045455,
                "tempo": 120.0
            },
            {
                "start_time": 99.8522727,
                "end_time": 100.05,
                "pitch": 59,
                "velocity": 80,
                "duration": 0.1977273,
                "tempo": 120.0
            },
            {
                "start_time": 93.6045455,
                "end_time": 100.05,
                "pitch": 65,
                "velocity": 80,
                "duration": 6.4454545,
                "tempo": 120.0
            },
            {
                "start_time": 100.05,
                "end_time": 100.2522727,
                "pitch": 62,
                "velocity": 80,
                "duration": 0.2022727,
                "tempo": 120.0
            },
            {
                "start_time": 98.4409091,
                "end_time": 100.4522727,
                "pitch": 44,
                "velocity": 80,
                "duration": 2.0113636,
                "tempo": 120.0
            },
            {
                "start_time": 100.2522727,
                "end_time": 100.4522727,
                "pitch": 60,
                "velocity": 80,
                "duration": 0.2,
                "tempo": 120.0
            },
            {
                "start_time": 100.2522727,
                "end_time": 100.4522727,
                "pitch": 60,
                "velocity": 80,
                "duration": 0.2,
                "tempo": 120.0
            },
            {
                "start_time": 100.4522727,
                "end_time": 101.0568182,
                "pitch": 59,
                "velocity": 80,
                "duration": 0.6045455,
                "tempo": 120.0
            },
            {
                "start_time": 101.0568182,
                "end_time": 101.2568182,
                "pitch": 59,
                "velocity": 80,
                "duration": 0.2,
                "tempo": 120.0
            },
            {
                "start_time": 98.2431818,
                "end_time": 101.2568182,
                "pitch": 64,
                "velocity": 80,
                "duration": 3.0136364,
                "tempo": 120.0
            },
            {
                "start_time": 101.2568182,
                "end_time": 101.4590909,
                "pitch": 60,
                "velocity": 80,
                "duration": 0.2022727,
                "tempo": 120.0
            },
            {
                "start_time": 101.4590909,
                "end_time": 101.6590909,
                "pitch": 62,
                "velocity": 80,
                "duration": 0.2,
                "tempo": 120.0
            },
            {
                "start_time": 101.4590909,
                "end_time": 101.6590909,
                "pitch": 62,
                "velocity": 80,
                "duration": 0.2,
                "tempo": 120.0
            },
            {
                "start_time": 100.4522727,
                "end_time": 101.8613636,
                "pitch": 44,
                "velocity": 80,
                "duration": 1.4090909,
                "tempo": 120.0
            },
            {
                "start_time": 101.6590909,
                "end_time": 101.8613636,
                "pitch": 60,
                "velocity": 80,
                "duration": 0.2022727,
                "tempo": 120.0
            },
            {
                "start_time": 101.6590909,
                "end_time": 101.8613636,
                "pitch": 60,
                "velocity": 80,
                "duration": 0.2022727,
                "tempo": 120.0
            },
            {
                "start_time": 101.8613636,
                "end_time": 102.0613636,
                "pitch": 59,
                "velocity": 80,
                "duration": 0.2,
                "tempo": 120.0
            },
            {
                "start_time": 64.6181818,
                "end_time": 116.1590909,
                "pitch": 19,
                "velocity": 80,
                "duration": 51.5409091,
                "tempo": 120.0
            },
            {
                "start_time": 102.0613636,
                "end_time": 116.1590909,
                "pitch": 57,
                "velocity": 80,
                "duration": 14.0977273,
                "tempo": 120.0
            },
            {
                "start_time": 116.1590909,
                "end_time": 116.3659091,
                "pitch": 57,
                "velocity": 80,
                "duration": 0.2068182,
                "tempo": 120.0
            },
            {
                "start_time": 116.3659091,
                "end_time": 116.5659091,
                "pitch": 59,
                "velocity": 80,
                "duration": 0.2,
                "tempo": 120.0
            },
            {
                "start_time": 101.2568182,
                "end_time": 116.5659091,
                "pitch": 64,
                "velocity": 80,
                "duration": 15.3090909,
                "tempo": 120.0
            },
            {
                "start_time": 116.5659091,
                "end_time": 117.7681818,
                "pitch": 60,
                "velocity": 80,
                "duration": 1.2022727,
                "tempo": 120.0
            },
            {
                "start_time": 117.7681818,
                "end_time": 117.9727273,
                "pitch": 55,
                "velocity": 80,
                "duration": 0.2045455,
                "tempo": 120.0
            },
            {
                "start_time": 117.9727273,
                "end_time": 118.1772727,
                "pitch": 57,
                "velocity": 80,
                "duration": 0.2045455,
                "tempo": 120.0
            },
            {
                "start_time": 118.1772727,
                "end_time": 119.375,
                "pitch": 59,
                "velocity": 80,
                "duration": 1.1977273,
                "tempo": 120.0
            },
            {
                "start_time": 119.375,
                "end_time": 119.5795455,
                "pitch": 59,
                "velocity": 80,
                "duration": 0.2045455,
                "tempo": 120.0
            },
            {
                "start_time": 116.5659091,
                "end_time": 119.5818182,
                "pitch": 64,
                "velocity": 80,
                "duration": 3.0159091,
                "tempo": 120.0
            },
            {
                "start_time": 119.5795455,
                "end_time": 119.5818182,
                "pitch": 64,
                "velocity": 80,
                "duration": 0.0022727,
                "tempo": 120.0
            },
            {
                "start_time": 119.5818182,
                "end_time": 119.7840909,
                "pitch": 60,
                "velocity": 80,
                "duration": 0.2022727,
                "tempo": 120.0
            },
            {
                "start_time": 119.7840909,
                "end_time": 120.9909091,
                "pitch": 62,
                "velocity": 80,
                "duration": 1.2068182,
                "tempo": 120.0
            },
            {
                "start_time": 119.7840909,
                "end_time": 120.9909091,
                "pitch": 62,
                "velocity": 80,
                "duration": 1.2068182,
                "tempo": 120.0
            },
            {
                "start_time": 101.8613636,
                "end_time": 121.1909091,
                "pitch": 44,
                "velocity": 80,
                "duration": 19.3295455,
                "tempo": 120.0
            },
            {
                "start_time": 120.9909091,
                "end_time": 121.1909091,
                "pitch": 60,
                "velocity": 80,
                "duration": 0.2,
                "tempo": 120.0
            },
            {
                "start_time": 120.9909091,
                "end_time": 121.1909091,
                "pitch": 60,
                "velocity": 80,
                "duration": 0.2,
                "tempo": 120.0
            },
            {
                "start_time": 121.1909091,
                "end_time": 121.3931818,
                "pitch": 59,
                "velocity": 80,
                "duration": 0.2022727,
                "tempo": 120.0
            },
            {
                "start_time": 121.3931818,
                "end_time": 122.6,
                "pitch": 57,
                "velocity": 80,
                "duration": 1.2068182,
                "tempo": 120.0
            },
            {
                "start_time": 122.6,
                "end_time": 122.8,
                "pitch": 57,
                "velocity": 80,
                "duration": 0.2,
                "tempo": 120.0
            },
            {
                "start_time": 122.8,
                "end_time": 123.0022727,
                "pitch": 59,
                "velocity": 80,
                "duration": 0.2022727,
                "tempo": 120.0
            },
            {
                "start_time": 123.0022727,
                "end_time": 124.2113636,
                "pitch": 60,
                "velocity": 80,
                "duration": 1.2090909,
                "tempo": 120.0
            },
            {
                "start_time": 124.2113636,
                "end_time": 124.4159091,
                "pitch": 55,
                "velocity": 80,
                "duration": 0.2045455,
                "tempo": 120.0
            },
            {
                "start_time": 124.4159091,
                "end_time": 124.6181818,
                "pitch": 57,
                "velocity": 80,
                "duration": 0.2022727,
                "tempo": 120.0
            },
            {
                "start_time": 124.6181818,
                "end_time": 125.8181818,
                "pitch": 59,
                "velocity": 80,
                "duration": 1.2,
                "tempo": 120.0
            },
            {
                "start_time": 125.8181818,
                "end_time": 126.025,
                "pitch": 59,
                "velocity": 80,
                "duration": 0.2068182,
                "tempo": 120.0
            },
            {
                "start_time": 123.0022727,
                "end_time": 126.025,
                "pitch": 64,
                "velocity": 80,
                "duration": 3.0227273,
                "tempo": 120.0
            },
            {
                "start_time": 126.025,
                "end_time": 126.225,
                "pitch": 60,
                "velocity": 80,
                "duration": 0.2,
                "tempo": 120.0
            },
            {
                "start_time": 126.225,
                "end_time": 127.4272727,
                "pitch": 62,
                "velocity": 80,
                "duration": 1.2022727,
                "tempo": 120.0
            },
            {
                "start_time": 126.225,
                "end_time": 127.4272727,
                "pitch": 62,
                "velocity": 80,
                "duration": 1.2022727,
                "tempo": 120.0
            },
            {
                "start_time": 126.025,
                "end_time": 127.6318182,
                "pitch": 64,
                "velocity": 80,
                "duration": 1.6068182,
                "tempo": 120.0
            },
            {
                "start_time": 127.4272727,
                "end_time": 127.6318182,
                "pitch": 64,
                "velocity": 80,
                "duration": 0.2045455,
                "tempo": 120.0
            },
            {
                "start_time": 127.6318182,
                "end_time": 127.8363636,
                "pitch": 62,
                "velocity": 80,
                "duration": 0.2045455,
                "tempo": 120.0
            },
            {
                "start_time": 127.8363636,
                "end_time": 141.9318182,
                "pitch": 60,
                "velocity": 80,
                "duration": 14.0954545,
                "tempo": 120.0
            },
            {
                "start_time": 127.8363636,
                "end_time": 141.9318182,
                "pitch": 60,
                "velocity": 80,
                "duration": 14.0954545,
                "tempo": 120.0
            },
            {
                "start_time": 121.1909091,
                "end_time": 142.1363636,
                "pitch": 44,
                "velocity": 80,
                "duration": 20.9454545,
                "tempo": 120.0
            },
            {
                "start_time": 141.9318182,
                "end_time": 142.1363636,
                "pitch": 60,
                "velocity": 80,
                "duration": 0.2045455,
                "tempo": 120.0
            },
            {
                "start_time": 142.1386364,
                "end_time": 142.3409091,
                "pitch": 59,
                "velocity": 80,
                "duration": 0.2022727,
                "tempo": 120.0
            },
            {
                "start_time": 142.3409091,
                "end_time": 142.9431818,
                "pitch": 57,
                "velocity": 80,
                "duration": 0.6022727,
                "tempo": 120.0
            },
            {
                "start_time": 142.9431818,
                "end_time": 143.1454545,
                "pitch": 57,
                "velocity": 80,
                "duration": 0.2022727,
                "tempo": 120.0
            },
            {
                "start_time": 143.1454545,
                "end_time": 143.3477273,
                "pitch": 59,
                "velocity": 80,
                "duration": 0.2022727,
                "tempo": 120.0
            },
            {
                "start_time": 142.1363636,
                "end_time": 143.5477273,
                "pitch": 44,
                "velocity": 80,
                "duration": 1.4113636,
                "tempo": 120.0
            },
            {
                "start_time": 143.3477273,
                "end_time": 143.5477273,
                "pitch": 60,
                "velocity": 80,
                "duration": 0.2,
                "tempo": 120.0
            },
            {
                "start_time": 143.5477273,
                "end_time": 143.75,
                "pitch": 59,
                "velocity": 80,
                "duration": 0.2022727,
                "tempo": 120.0
            },
            {
                "start_time": 143.75,
                "end_time": 143.9522727,
                "pitch": 57,
                "velocity": 80,
                "duration": 0.2022727,
                "tempo": 120.0
            },
            {
                "start_time": 143.9522727,
                "end_time": 144.5568182,
                "pitch": 55,
                "velocity": 80,
                "duration": 0.6045455,
                "tempo": 120.0
            },
            {
                "start_time": 144.5568182,
                "end_time": 144.7568182,
                "pitch": 55,
                "velocity": 80,
                "duration": 0.2,
                "tempo": 120.0
            },
            {
                "start_time": 144.7568182,
                "end_time": 144.9590909,
                "pitch": 57,
                "velocity": 80,
                "duration": 0.2022727,
                "tempo": 120.0
            },
            {
                "start_time": 144.9590909,
                "end_time": 145.1590909,
                "pitch": 59,
                "velocity": 80,
                "duration": 0.2,
                "tempo": 120.0
            },
            {
                "start_time": 100.05,
                "end_time": 145.1590909,
                "pitch": 65,
                "velocity": 80,
                "duration": 45.1090909,
                "tempo": 120.0
            },
            {
                "start_time": 145.1590909,
                "end_time": 145.3590909,
                "pitch": 62,
                "velocity": 80,
                "duration": 0.2,
                "tempo": 120.0
            },
            {
                "start_time": 143.5477273,
                "end_time": 145.5613636,
                "pitch": 44,
                "velocity": 80,
                "duration": 2.0136364,
                "tempo": 120.0
            },
            {
                "start_time": 145.3590909,
                "end_time": 145.5613636,
                "pitch": 60,
                "velocity": 80,
                "duration": 0.2022727,
                "tempo": 120.0
            },
            {
                "start_time": 145.3590909,
                "end_time": 145.5613636,
                "pitch": 60,
                "velocity": 80,
                "duration": 0.2022727,
                "tempo": 120.0
            },
            {
                "start_time": 145.5613636,
                "end_time": 146.1659091,
                "pitch": 59,
                "velocity": 80,
                "duration": 0.6045455,
                "tempo": 120.0
            },
            {
                "start_time": 146.1659091,
                "end_time": 146.3681818,
                "pitch": 59,
                "velocity": 80,
                "duration": 0.2022727,
                "tempo": 120.0
            },
            {
                "start_time": 143.3477273,
                "end_time": 146.3681818,
                "pitch": 64,
                "velocity": 80,
                "duration": 3.0204545,
                "tempo": 120.0
            },
            {
                "start_time": 146.3681818,
                "end_time": 146.5704545,
                "pitch": 60,
                "velocity": 80,
                "duration": 0.2022727,
                "tempo": 120.0
            },
            {
                "start_time": 146.5704545,
                "end_time": 146.7704545,
                "pitch": 62,
                "velocity": 80,
                "duration": 0.2,
                "tempo": 120.0
            },
            {
                "start_time": 146.5704545,
                "end_time": 146.7704545,
                "pitch": 62,
                "velocity": 80,
                "duration": 0.2,
                "tempo": 120.0
            },
            {
                "start_time": 145.5613636,
                "end_time": 146.9704545,
                "pitch": 44,
                "velocity": 80,
                "duration": 1.4090909,
                "tempo": 120.0
            },
            {
                "start_time": 146.7704545,
                "end_time": 146.9704545,
                "pitch": 60,
                "velocity": 80,
                "duration": 0.2,
                "tempo": 120.0
            },
            {
                "start_time": 146.7704545,
                "end_time": 146.9704545,
                "pitch": 60,
                "velocity": 80,
                "duration": 0.2,
                "tempo": 120.0
            },
            {
                "start_time": 146.9704545,
                "end_time": 147.1727273,
                "pitch": 59,
                "velocity": 80,
                "duration": 0.2022727,
                "tempo": 120.0
            },
            {
                "start_time": 147.1727273,
                "end_time": 148.3840909,
                "pitch": 57,
                "velocity": 80,
                "duration": 1.2113636,
                "tempo": 120.0
            },
            {
                "start_time": 146.3681818,
                "end_time": 148.3840909,
                "pitch": 64,
                "velocity": 80,
                "duration": 2.0159091,
                "tempo": 120.0
            },
            {
                "start_time": 146.9704545,
                "end_time": 148.5886364,
                "pitch": 44,
                "velocity": 80,
                "duration": 1.6181818,
                "tempo": 120.0
            },
            {
                "start_time": 148.3840909,
                "end_time": 148.5886364,
                "pitch": 60,
                "velocity": 80,
                "duration": 0.2045455,
                "tempo": 120.0
            },
            {
                "start_time": 148.5886364,
                "end_time": 148.7909091,
                "pitch": 59,
                "velocity": 80,
                "duration": 0.2022727,
                "tempo": 120.0
            },
            {
                "start_time": 148.7909091,
                "end_time": 149.3863636,
                "pitch": 57,
                "velocity": 80,
                "duration": 0.5954545,
                "tempo": 120.0
            },
            {
                "start_time": 149.3863636,
                "end_time": 149.5886364,
                "pitch": 57,
                "velocity": 80,
                "duration": 0.2022727,
                "tempo": 120.0
            },
            {
                "start_time": 149.5886364,
                "end_time": 149.7909091,
                "pitch": 59,
                "velocity": 80,
                "duration": 0.2022727,
                "tempo": 120.0
            },
            {
                "start_time": 148.3840909,
                "end_time": 149.7909091,
                "pitch": 64,
                "velocity": 80,
                "duration": 1.4068182,
                "tempo": 120.0
            },
            {
                "start_time": 148.5886364,
                "end_time": 149.9931818,
                "pitch": 44,
                "velocity": 80,
                "duration": 1.4045455,
                "tempo": 120.0
            },
            {
                "start_time": 149.7909091,
                "end_time": 149.9931818,
                "pitch": 60,
                "velocity": 80,
                "duration": 0.2022727,
                "tempo": 120.0
            },
            {
                "start_time": 149.9931818,
                "end_time": 150.2,
                "pitch": 59,
                "velocity": 80,
                "duration": 0.2068182,
                "tempo": 120.0
            },
            {
                "start_time": 150.2,
                "end_time": 150.4022727,
                "pitch": 57,
                "velocity": 80,
                "duration": 0.2022727,
                "tempo": 120.0
            },
            {
                "start_time": 150.4022727,
                "end_time": 151.0068182,
                "pitch": 55,
                "velocity": 80,
                "duration": 0.6045455,
                "tempo": 120.0
            },
            {
                "start_time": 151.0090909,
                "end_time": 151.2090909,
                "pitch": 55,
                "velocity": 80,
                "duration": 0.2,
                "tempo": 120.0
            },
            {
                "start_time": 151.2090909,
                "end_time": 151.4113636,
                "pitch": 57,
                "velocity": 80,
                "duration": 0.2022727,
                "tempo": 120.0
            },
            {
                "start_time": 151.4113636,
                "end_time": 151.6090909,
                "pitch": 59,
                "velocity": 80,
                "duration": 0.1977273,
                "tempo": 120.0
            },
            {
                "start_time": 145.1590909,
                "end_time": 151.6090909,
                "pitch": 65,
                "velocity": 80,
                "duration": 6.45,
                "tempo": 120.0
            },
            {
                "start_time": 151.6090909,
                "end_time": 151.8113636,
                "pitch": 62,
                "velocity": 80,
                "duration": 0.2022727,
                "tempo": 120.0
            },
            {
                "start_time": 149.9931818,
                "end_time": 152.0136364,
                "pitch": 44,
                "velocity": 80,
                "duration": 2.0204545,
                "tempo": 120.0
            },
            {
                "start_time": 151.8113636,
                "end_time": 152.0136364,
                "pitch": 60,
                "velocity": 80,
                "duration": 0.2022727,
                "tempo": 120.0
            },
            {
                "start_time": 151.8113636,
                "end_time": 152.0136364,
                "pitch": 60,
                "velocity": 80,
                "duration": 0.2022727,
                "tempo": 120.0
            },
            {
                "start_time": 152.0136364,
                "end_time": 152.6181818,
                "pitch": 59,
                "velocity": 80,
                "duration": 0.6045455,
                "tempo": 120.0
            },
            {
                "start_time": 152.6181818,
                "end_time": 152.8204545,
                "pitch": 59,
                "velocity": 80,
                "duration": 0.2022727,
                "tempo": 120.0
            },
            {
                "start_time": 149.7909091,
                "end_time": 152.8204545,
                "pitch": 64,
                "velocity": 80,
                "duration": 3.0295455,
                "tempo": 120.0
            },
            {
                "start_time": 152.8204545,
                "end_time": 153.0227273,
                "pitch": 60,
                "velocity": 80,
                "duration": 0.2022727,
                "tempo": 120.0
            },
            {
                "start_time": 153.0227273,
                "end_time": 153.2227273,
                "pitch": 62,
                "velocity": 80,
                "duration": 0.2,
                "tempo": 120.0
            },
            {
                "start_time": 153.0227273,
                "end_time": 153.2227273,
                "pitch": 62,
                "velocity": 80,
                "duration": 0.2,
                "tempo": 120.0
            },
            {
                "start_time": 152.0136364,
                "end_time": 153.4227273,
                "pitch": 44,
                "velocity": 80,
                "duration": 1.4090909,
                "tempo": 120.0
            },
            {
                "start_time": 153.2227273,
                "end_time": 153.4227273,
                "pitch": 60,
                "velocity": 80,
                "duration": 0.2,
                "tempo": 120.0
            },
            {
                "start_time": 153.2227273,
                "end_time": 153.4227273,
                "pitch": 60,
                "velocity": 80,
                "duration": 0.2,
                "tempo": 120.0
            },
            {
                "start_time": 153.4227273,
                "end_time": 153.6227273,
                "pitch": 59,
                "velocity": 80,
                "duration": 0.2,
                "tempo": 120.0
            },
            {
                "start_time": 153.6227273,
                "end_time": 167.725,
                "pitch": 57,
                "velocity": 80,
                "duration": 14.1022727,
                "tempo": 120.0
            },
            {
                "start_time": 116.1590909,
                "end_time": 167.7272727,
                "pitch": 19,
                "velocity": 80,
                "duration": 51.5681818,
                "tempo": 120.0
            },
            {
                "start_time": 167.725,
                "end_time": 167.7272727,
                "pitch": 19,
                "velocity": 80,
                "duration": 0.0022727,
                "tempo": 120.0
            },
            {
                "start_time": 167.7272727,
                "end_time": 167.9272727,
                "pitch": 57,
                "velocity": 80,
                "duration": 0.2,
                "tempo": 120.0
            },
            {
                "start_time": 167.9272727,
                "end_time": 168.1295455,
                "pitch": 59,
                "velocity": 80,
                "duration": 0.2022727,
                "tempo": 120.0
            },
            {
                "start_time": 152.8204545,
                "end_time": 168.1295455,
                "pitch": 64,
                "velocity": 80,
                "duration": 15.3090909,
                "tempo": 120.0
            },
            {
                "start_time": 168.1295455,
                "end_time": 169.3363636,
                "pitch": 60,
                "velocity": 80,
                "duration": 1.2068182,
                "tempo": 120.0
            },
            {
                "start_time": 169.3363636,
                "end_time": 169.5386364,
                "pitch": 55,
                "velocity": 80,
                "duration": 0.2022727,
                "tempo": 120.0
            },
            {
                "start_time": 169.5386364,
                "end_time": 169.7386364,
                "pitch": 57,
                "velocity": 80,
                "duration": 0.2,
                "tempo": 120.0
            },
            {
                "start_time": 169.7386364,
                "end_time": 170.9477273,
                "pitch": 59,
                "velocity": 80,
                "duration": 1.2090909,
                "tempo": 120.0
            },
            {
                "start_time": 170.9477273,
                "end_time": 171.1477273,
                "pitch": 59,
                "velocity": 80,
                "duration": 0.2,
                "tempo": 120.0
            },
            {
                "start_time": 168.1295455,
                "end_time": 171.15,
                "pitch": 64,
                "velocity": 80,
                "duration": 3.0204545,
                "tempo": 120.0
            },
            {
                "start_time": 171.1477273,
                "end_time": 171.15,
                "pitch": 64,
                "velocity": 80,
                "duration": 0.0022727,
                "tempo": 120.0
            },
            {
                "start_time": 171.15,
                "end_time": 171.35,
                "pitch": 60,
                "velocity": 80,
                "duration": 0.2,
                "tempo": 120.0
            },
            {
                "start_time": 171.35,
                "end_time": 172.5590909,
                "pitch": 62,
                "velocity": 80,
                "duration": 1.2090909,
                "tempo": 120.0
            },
            {
                "start_time": 171.35,
                "end_time": 172.5590909,
                "pitch": 62,
                "velocity": 80,
                "duration": 1.2090909,
                "tempo": 120.0
            },
            {
                "start_time": 153.4227273,
                "end_time": 172.7613636,
                "pitch": 44,
                "velocity": 80,
                "duration": 19.3386364,
                "tempo": 120.0
            },
            {
                "start_time": 172.5590909,
                "end_time": 172.7613636,
                "pitch": 60,
                "velocity": 80,
                "duration": 0.2022727,
                "tempo": 120.0
            },
            {
                "start_time": 172.5590909,
                "end_time": 172.7613636,
                "pitch": 60,
                "velocity": 80,
                "duration": 0.2022727,
                "tempo": 120.0
            },
            {
                "start_time": 172.7613636,
                "end_time": 172.9613636,
                "pitch": 59,
                "velocity": 80,
                "duration": 0.2,
                "tempo": 120.0
            },
            {
                "start_time": 172.9613636,
                "end_time": 174.1704545,
                "pitch": 57,
                "velocity": 80,
                "duration": 1.2090909,
                "tempo": 120.0
            },
            {
                "start_time": 174.1704545,
                "end_time": 174.3772727,
                "pitch": 57,
                "velocity": 80,
                "duration": 0.2068182,
                "tempo": 120.0
            },
            {
                "start_time": 174.3772727,
                "end_time": 174.5795455,
                "pitch": 59,
                "velocity": 80,
                "duration": 0.2022727,
                "tempo": 120.0
            },
            {
                "start_time": 174.5795455,
                "end_time": 175.7863636,
                "pitch": 60,
                "velocity": 80,
                "duration": 1.2068182,
                "tempo": 120.0
            },
            {
                "start_time": 175.7863636,
                "end_time": 175.9886364,
                "pitch": 55,
                "velocity": 80,
                "duration": 0.2022727,
                "tempo": 120.0
            },
            {
                "start_time": 175.9886364,
                "end_time": 176.1909091,
                "pitch": 57,
                "velocity": 80,
                "duration": 0.2022727,
                "tempo": 120.0
            },
            {
                "start_time": 176.1909091,
                "end_time": 177.4,
                "pitch": 59,
                "velocity": 80,
                "duration": 1.2090909,
                "tempo": 120.0
            },
            {
                "start_time": 177.4,
                "end_time": 177.6,
                "pitch": 59,
                "velocity": 80,
                "duration": 0.2,
                "tempo": 120.0
            },
            {
                "start_time": 174.5795455,
                "end_time": 177.6,
                "pitch": 64,
                "velocity": 80,
                "duration": 3.0204545,
                "tempo": 120.0
            },
            {
                "start_time": 177.6,
                "end_time": 177.8,
                "pitch": 60,
                "velocity": 80,
                "duration": 0.2,
                "tempo": 120.0
            },
            {
                "start_time": 177.8,
                "end_time": 179.0090909,
                "pitch": 62,
                "velocity": 80,
                "duration": 1.2090909,
                "tempo": 120.0
            },
            {
                "start_time": 177.8,
                "end_time": 179.0090909,
                "pitch": 62,
                "velocity": 80,
                "duration": 1.2090909,
                "tempo": 120.0
            },
            {
                "start_time": 177.6,
                "end_time": 179.2136364,
                "pitch": 64,
                "velocity": 80,
                "duration": 1.6136364,
                "tempo": 120.0
            },
            {
                "start_time": 179.0090909,
                "end_time": 179.2136364,
                "pitch": 64,
                "velocity": 80,
                "duration": 0.2045455,
                "tempo": 120.0
            },
            {
                "start_time": 179.2136364,
                "end_time": 179.4136364,
                "pitch": 62,
                "velocity": 80,
                "duration": 0.2,
                "tempo": 120.0
            }
        ],
        "Vibraphone": [
            {
                "start_time": 25.9318182,
                "end_time": 26.1386364,
                "pitch": 57,
                "velocity": 127,
                "duration": 0.2068182,
                "tempo": 120.0
            },
            {
                "start_time": 26.1386364,
                "end_time": 26.3431818,
                "pitch": 60,
                "velocity": 127,
                "duration": 0.2045455,
                "tempo": 120.0
            },
            {
                "start_time": 26.1386364,
                "end_time": 26.3431818,
                "pitch": 64,
                "velocity": 127,
                "duration": 0.2045455,
                "tempo": 120.0
            },
            {
                "start_time": 26.3431818,
                "end_time": 26.9477273,
                "pitch": 64,
                "velocity": 127,
                "duration": 0.6045455,
                "tempo": 120.0
            },
            {
                "start_time": 26.3431818,
                "end_time": 26.9477273,
                "pitch": 64,
                "velocity": 127,
                "duration": 0.6045455,
                "tempo": 120.0
            },
            {
                "start_time": 26.9477273,
                "end_time": 27.1477273,
                "pitch": 64,
                "velocity": 127,
                "duration": 0.2,
                "tempo": 120.0
            },
            {
                "start_time": 27.1477273,
                "end_time": 27.3477273,
                "pitch": 62,
                "velocity": 127,
                "duration": 0.2,
                "tempo": 120.0
            },
            {
                "start_time": 27.1477273,
                "end_time": 27.3477273,
                "pitch": 62,
                "velocity": 127,
                "duration": 0.2,
                "tempo": 120.0
            },
            {
                "start_time": 27.3477273,
                "end_time": 27.35,
                "pitch": 60,
                "velocity": 127,
                "duration": 0.0022727,
                "tempo": 120.0
            },
            {
                "start_time": 27.35,
                "end_time": 27.55,
                "pitch": 60,
                "velocity": 127,
                "duration": 0.2,
                "tempo": 120.0
            },
            {
                "start_time": 27.55,
                "end_time": 27.75,
                "pitch": 55,
                "velocity": 127,
                "duration": 0.2,
                "tempo": 120.0
            },
            {
                "start_time": 27.75,
                "end_time": 27.9522727,
                "pitch": 59,
                "velocity": 127,
                "duration": 0.2022727,
                "tempo": 120.0
            },
            {
                "start_time": 27.75,
                "end_time": 27.9522727,
                "pitch": 59,
                "velocity": 127,
                "duration": 0.2022727,
                "tempo": 120.0
            },
            {
                "start_time": 27.9522727,
                "end_time": 28.5522727,
                "pitch": 62,
                "velocity": 127,
                "duration": 0.6,
                "tempo": 120.0
            },
            {
                "start_time": 28.5522727,
                "end_time": 28.7545455,
                "pitch": 62,
                "velocity": 127,
                "duration": 0.2022727,
                "tempo": 120.0
            },
            {
                "start_time": 28.7545455,
                "end_time": 28.9545455,
                "pitch": 60,
                "velocity": 127,
                "duration": 0.2,
                "tempo": 120.0
            },
            {
                "start_time": 28.7545455,
                "end_time": 28.9545455,
                "pitch": 60,
                "velocity": 127,
                "duration": 0.2,
                "tempo": 120.0
            },
            {
                "start_time": 28.9545455,
                "end_time": 29.1545455,
                "pitch": 59,
                "velocity": 127,
                "duration": 0.2,
                "tempo": 120.0
            },
            {
                "start_time": 29.1545455,
                "end_time": 29.3568182,
                "pitch": 59,
                "velocity": 127,
                "duration": 0.2022727,
                "tempo": 120.0
            },
            {
                "start_time": 27.9522727,
                "end_time": 29.3568182,
                "pitch": 65,
                "velocity": 127,
                "duration": 1.4045455,
                "tempo": 120.0
            },
            {
                "start_time": 29.3568182,
                "end_time": 29.5590909,
                "pitch": 62,
                "velocity": 127,
                "duration": 0.2022727,
                "tempo": 120.0
            },
            {
                "start_time": 29.3568182,
                "end_time": 29.5590909,
                "pitch": 65,
                "velocity": 127,
                "duration": 0.2022727,
                "tempo": 120.0
            },
            {
                "start_time": 29.5590909,
                "end_time": 30.1590909,
                "pitch": 65,
                "velocity": 127,
                "duration": 0.6,
                "tempo": 120.0
            },
            {
                "start_time": 29.5590909,
                "end_time": 30.1590909,
                "pitch": 65,
                "velocity": 127,
                "duration": 0.6,
                "tempo": 120.0
            },
            {
                "start_time": 30.1590909,
                "end_time": 30.3590909,
                "pitch": 65,
                "velocity": 127,
                "duration": 0.2,
                "tempo": 120.0
            },
            {
                "start_time": 30.3590909,
                "end_time": 30.5613636,
                "pitch": 64,
                "velocity": 127,
                "duration": 0.2022727,
                "tempo": 120.0
            },
            {
                "start_time": 30.5613636,
                "end_time": 30.7636364,
                "pitch": 62,
                "velocity": 127,
                "duration": 0.2022727,
                "tempo": 120.0
            },
            {
                "start_time": 30.5613636,
                "end_time": 30.7636364,
                "pitch": 62,
                "velocity": 127,
                "duration": 0.2022727,
                "tempo": 120.0
            },
            {
                "start_time": 28.9545455,
                "end_time": 30.9681818,
                "pitch": 44,
                "velocity": 127,
                "duration": 2.0136364,
                "tempo": 120.0
            },
            {
                "start_time": 30.7636364,
                "end_time": 30.9681818,
                "pitch": 60,
                "velocity": 127,
                "duration": 0.2045455,
                "tempo": 120.0
            },
            {
                "start_time": 30.7636364,
                "end_time": 30.9681818,
                "pitch": 60,
                "velocity": 127,
                "duration": 0.2045455,
                "tempo": 120.0
            },
            {
                "start_time": 30.9681818,
                "end_time": 31.175,
                "pitch": 59,
                "velocity": 127,
                "duration": 0.2068182,
                "tempo": 120.0
            },
            {
                "start_time": 31.175,
                "end_time": 32.3681818,
                "pitch": 57,
                "velocity": 127,
                "duration": 1.1931818,
                "tempo": 120.0
            },
            {
                "start_time": 31.175,
                "end_time": 32.3681818,
                "pitch": 57,
                "velocity": 127,
                "duration": 1.1931818,
                "tempo": 120.0
            },
            {
                "start_time": 32.3681818,
                "end_time": 32.5727273,
                "pitch": 57,
                "velocity": 127,
                "duration": 0.2045455,
                "tempo": 120.0
            },
            {
                "start_time": 32.5727273,
                "end_time": 32.7795455,
                "pitch": 60,
                "velocity": 127,
                "duration": 0.2068182,
                "tempo": 120.0
            },
            {
                "start_time": 32.5727273,
                "end_time": 32.7795455,
                "pitch": 64,
                "velocity": 127,
                "duration": 0.2068182,
                "tempo": 120.0
            },
            {
                "start_time": 32.7795455,
                "end_time": 33.3795455,
                "pitch": 64,
                "velocity": 127,
                "duration": 0.6,
                "tempo": 120.0
            },
            {
                "start_time": 32.7795455,
                "end_time": 33.3795455,
                "pitch": 64,
                "velocity": 127,
                "duration": 0.6,
                "tempo": 120.0
            },
            {
                "start_time": 33.3795455,
                "end_time": 33.5795455,
                "pitch": 64,
                "velocity": 127,
                "duration": 0.2,
                "tempo": 120.0
            },
            {
                "start_time": 33.5795455,
                "end_time": 33.7795455,
                "pitch": 62,
                "velocity": 127,
                "duration": 0.2,
                "tempo": 120.0
            },
            {
                "start_time": 33.5795455,
                "end_time": 33.7795455,
                "pitch": 62,
                "velocity": 127,
                "duration": 0.2,
                "tempo": 120.0
            },
            {
                "start_time": 33.7795455,
                "end_time": 33.9818182,
                "pitch": 60,
                "velocity": 127,
                "duration": 0.2022727,
                "tempo": 120.0
            },
            {
                "start_time": 33.7795455,
                "end_time": 33.9818182,
                "pitch": 60,
                "velocity": 127,
                "duration": 0.2022727,
                "tempo": 120.0
            },
            {
                "start_time": 33.9818182,
                "end_time": 34.1818182,
                "pitch": 55,
                "velocity": 127,
                "duration": 0.2,
                "tempo": 120.0
            },
            {
                "start_time": 34.1818182,
                "end_time": 34.3840909,
                "pitch": 59,
                "velocity": 127,
                "duration": 0.2022727,
                "tempo": 120.0
            },
            {
                "start_time": 34.1818182,
                "end_time": 34.3840909,
                "pitch": 59,
                "velocity": 127,
                "duration": 0.2022727,
                "tempo": 120.0
            },
            {
                "start_time": 34.3840909,
                "end_time": 34.9840909,
                "pitch": 62,
                "velocity": 127,
                "duration": 0.6,
                "tempo": 120.0
            },
            {
                "start_time": 34.9840909,
                "end_time": 35.1840909,
                "pitch": 62,
                "velocity": 127,
                "duration": 0.2,
                "tempo": 120.0
            },
            {
                "start_time": 35.1840909,
                "end_time": 35.3840909,
                "pitch": 60,
                "velocity": 127,
                "duration": 0.2,
                "tempo": 120.0
            },
            {
                "start_time": 35.1840909,
                "end_time": 35.3840909,
                "pitch": 60,
                "velocity": 127,
                "duration": 0.2,
                "tempo": 120.0
            },
            {
                "start_time": 30.9681818,
                "end_time": 35.3863636,
                "pitch": 44,
                "velocity": 127,
                "duration": 4.4181818,
                "tempo": 120.0
            },
            {
                "start_time": 35.3840909,
                "end_time": 35.3863636,
                "pitch": 44,
                "velocity": 127,
                "duration": 0.0022727,
                "tempo": 120.0
            },
            {
                "start_time": 35.3863636,
                "end_time": 35.5863636,
                "pitch": 59,
                "velocity": 127,
                "duration": 0.2,
                "tempo": 120.0
            },
            {
                "start_time": 35.5863636,
                "end_time": 35.7863636,
                "pitch": 59,
                "velocity": 127,
                "duration": 0.2,
                "tempo": 120.0
            },
            {
                "start_time": 34.3840909,
                "end_time": 35.7863636,
                "pitch": 65,
                "velocity": 127,
                "duration": 1.4022727,
                "tempo": 120.0
            },
            {
                "start_time": 35.7863636,
                "end_time": 35.9863636,
                "pitch": 62,
                "velocity": 127,
                "duration": 0.2,
                "tempo": 120.0
            },
            {
                "start_time": 35.7863636,
                "end_time": 35.9863636,
                "pitch": 65,
                "velocity": 127,
                "duration": 0.2,
                "tempo": 120.0
            },
            {
                "start_time": 35.9863636,
                "end_time": 36.5886364,
                "pitch": 65,
                "velocity": 127,
                "duration": 0.6022727,
                "tempo": 120.0
            },
            {
                "start_time": 35.9863636,
                "end_time": 36.5886364,
                "pitch": 65,
                "velocity": 127,
                "duration": 0.6022727,
                "tempo": 120.0
            },
            {
                "start_time": 36.5886364,
                "end_time": 36.7886364,
                "pitch": 65,
                "velocity": 127,
                "duration": 0.2,
                "tempo": 120.0
            },
            {
                "start_time": 36.7909091,
                "end_time": 36.9909091,
                "pitch": 64,
                "velocity": 127,
                "duration": 0.2,
                "tempo": 120.0
            },
            {
                "start_time": 36.9909091,
                "end_time": 37.1909091,
                "pitch": 62,
                "velocity": 127,
                "duration": 0.2,
                "tempo": 120.0
            },
            {
                "start_time": 36.9909091,
                "end_time": 37.1909091,
                "pitch": 62,
                "velocity": 127,
                "duration": 0.2,
                "tempo": 120.0
            },
            {
                "start_time": 37.1909091,
                "end_time": 37.3909091,
                "pitch": 64,
                "velocity": 127,
                "duration": 0.2,
                "tempo": 120.0
            },
            {
                "start_time": 37.1909091,
                "end_time": 37.3909091,
                "pitch": 64,
                "velocity": 127,
                "duration": 0.2,
                "tempo": 120.0
            },
            {
                "start_time": 37.3909091,
                "end_time": 37.5909091,
                "pitch": 62,
                "velocity": 127,
                "duration": 0.2,
                "tempo": 120.0
            },
            {
                "start_time": 37.3909091,
                "end_time": 37.5909091,
                "pitch": 62,
                "velocity": 127,
                "duration": 0.2,
                "tempo": 120.0
            },
            {
                "start_time": 37.5909091,
                "end_time": 77.3977273,
                "pitch": 60,
                "velocity": 127,
                "duration": 39.8068182,
                "tempo": 120.0
            },
            {
                "start_time": 37.5909091,
                "end_time": 77.3977273,
                "pitch": 60,
                "velocity": 127,
                "duration": 39.8068182,
                "tempo": 120.0
            },
            {
                "start_time": 77.3977273,
                "end_time": 77.6022727,
                "pitch": 57,
                "velocity": 127,
                "duration": 0.2045455,
                "tempo": 120.0
            },
            {
                "start_time": 77.6022727,
                "end_time": 77.6045455,
                "pitch": 64,
                "velocity": 127,
                "duration": 0.0022727,
                "tempo": 120.0
            },
            {
                "start_time": 77.6045455,
                "end_time": 77.8090909,
                "pitch": 60,
                "velocity": 127,
                "duration": 0.2045455,
                "tempo": 120.0
            },
            {
                "start_time": 77.8090909,
                "end_time": 78.4045455,
                "pitch": 64,
                "velocity": 127,
                "duration": 0.5954545,
                "tempo": 120.0
            },
            {
                "start_time": 77.8090909,
                "end_time": 78.4045455,
                "pitch": 64,
                "velocity": 127,
                "duration": 0.5954545,
                "tempo": 120.0
            },
            {
                "start_time": 78.4045455,
                "end_time": 78.6045455,
                "pitch": 64,
                "velocity": 127,
                "duration": 0.2,
                "tempo": 120.0
            },
            {
                "start_time": 78.6045455,
                "end_time": 78.8068182,
                "pitch": 62,
                "velocity": 127,
                "duration": 0.2022727,
                "tempo": 120.0
            },
            {
                "start_time": 78.6045455,
                "end_time": 78.8068182,
                "pitch": 62,
                "velocity": 127,
                "duration": 0.2022727,
                "tempo": 120.0
            },
            {
                "start_time": 78.8068182,
                "end_time": 79.0090909,
                "pitch": 60,
                "velocity": 127,
                "duration": 0.2022727,
                "tempo": 120.0
            },
            {
                "start_time": 78.8068182,
                "end_time": 79.0090909,
                "pitch": 60,
                "velocity": 127,
                "duration": 0.2022727,
                "tempo": 120.0
            },
            {
                "start_time": 79.0090909,
                "end_time": 79.2136364,
                "pitch": 55,
                "velocity": 127,
                "duration": 0.2045455,
                "tempo": 120.0
            },
            {
                "start_time": 79.2136364,
                "end_time": 79.4204545,
                "pitch": 59,
                "velocity": 127,
                "duration": 0.2068182,
                "tempo": 120.0
            },
            {
                "start_time": 79.2136364,
                "end_time": 79.4204545,
                "pitch": 59,
                "velocity": 127,
                "duration": 0.2068182,
                "tempo": 120.0
            },
            {
                "start_time": 79.4204545,
                "end_time": 80.0113636,
                "pitch": 62,
                "velocity": 127,
                "duration": 0.5909091,
                "tempo": 120.0
            },
            {
                "start_time": 80.0113636,
                "end_time": 80.2136364,
                "pitch": 62,
                "velocity": 127,
                "duration": 0.2022727,
                "tempo": 120.0
            },
            {
                "start_time": 80.2136364,
                "end_time": 80.4136364,
                "pitch": 60,
                "velocity": 127,
                "duration": 0.2,
                "tempo": 120.0
            },
            {
                "start_time": 80.2136364,
                "end_time": 80.4136364,
                "pitch": 60,
                "velocity": 127,
                "duration": 0.2,
                "tempo": 120.0
            },
            {
                "start_time": 80.4136364,
                "end_time": 80.6159091,
                "pitch": 59,
                "velocity": 127,
                "duration": 0.2022727,
                "tempo": 120.0
            },
            {
                "start_time": 80.6159091,
                "end_time": 80.8181818,
                "pitch": 59,
                "velocity": 127,
                "duration": 0.2022727,
                "tempo": 120.0
            },
            {
                "start_time": 79.4204545,
                "end_time": 80.8181818,
                "pitch": 65,
                "velocity": 127,
                "duration": 1.3977273,
                "tempo": 120.0
            },
            {
                "start_time": 80.8181818,
                "end_time": 81.0181818,
                "pitch": 62,
                "velocity": 127,
                "duration": 0.2,
                "tempo": 120.0
            },
            {
                "start_time": 80.8181818,
                "end_time": 81.0181818,
                "pitch": 65,
                "velocity": 127,
                "duration": 0.2,
                "tempo": 120.0
            },
            {
                "start_time": 81.0181818,
                "end_time": 81.6204545,
                "pitch": 65,
                "velocity": 127,
                "duration": 0.6022727,
                "tempo": 120.0
            },
            {
                "start_time": 81.0181818,
                "end_time": 81.6204545,
                "pitch": 65,
                "velocity": 127,
                "duration": 0.6022727,
                "tempo": 120.0
            },
            {
                "start_time": 81.6204545,
                "end_time": 81.8227273,
                "pitch": 65,
                "velocity": 127,
                "duration": 0.2022727,
                "tempo": 120.0
            },
            {
                "start_time": 81.8227273,
                "end_time": 82.0272727,
                "pitch": 64,
                "velocity": 127,
                "duration": 0.2045455,
                "tempo": 120.0
            },
            {
                "start_time": 82.0272727,
                "end_time": 82.0295455,
                "pitch": 62,
                "velocity": 127,
                "duration": 0.0022727,
                "tempo": 120.0
            },
            {
                "start_time": 82.0295455,
                "end_time": 82.2340909,
                "pitch": 62,
                "velocity": 127,
                "duration": 0.2045455,
                "tempo": 120.0
            },
            {
                "start_time": 80.4136364,
                "end_time": 82.4363636,
                "pitch": 44,
                "velocity": 127,
                "duration": 2.0227273,
                "tempo": 120.0
            },
            {
                "start_time": 82.2340909,
                "end_time": 82.4363636,
                "pitch": 60,
                "velocity": 127,
                "duration": 0.2022727,
                "tempo": 120.0
            },
            {
                "start_time": 82.2340909,
                "end_time": 82.4363636,
                "pitch": 60,
                "velocity": 127,
                "duration": 0.2022727,
                "tempo": 120.0
            },
            {
                "start_time": 82.4363636,
                "end_time": 82.6363636,
                "pitch": 59,
                "velocity": 127,
                "duration": 0.2,
                "tempo": 120.0
            },
            {
                "start_time": 82.6363636,
                "end_time": 83.8431818,
                "pitch": 57,
                "velocity": 127,
                "duration": 1.2068182,
                "tempo": 120.0
            },
            {
                "start_time": 82.6386364,
                "end_time": 83.8431818,
                "pitch": 57,
                "velocity": 127,
                "duration": 1.2045455,
                "tempo": 120.0
            },
            {
                "start_time": 83.8431818,
                "end_time": 84.0431818,
                "pitch": 57,
                "velocity": 127,
                "duration": 0.2,
                "tempo": 120.0
            },
            {
                "start_time": 84.0431818,
                "end_time": 84.2454545,
                "pitch": 60,
                "velocity": 127,
                "duration": 0.2022727,
                "tempo": 120.0
            },
            {
                "start_time": 84.0431818,
                "end_time": 84.2454545,
                "pitch": 64,
                "velocity": 127,
                "duration": 0.2022727,
                "tempo": 120.0
            },
            {
                "start_time": 84.2454545,
                "end_time": 84.8431818,
                "pitch": 64,
                "velocity": 127,
                "duration": 0.5977273,
                "tempo": 120.0
            },
            {
                "start_time": 84.2454545,
                "end_time": 84.8431818,
                "pitch": 64,
                "velocity": 127,
                "duration": 0.5977273,
                "tempo": 120.0
            },
            {
                "start_time": 84.8431818,
                "end_time": 85.05,
                "pitch": 64,
                "velocity": 127,
                "duration": 0.2068182,
                "tempo": 120.0
            },
            {
                "start_time": 85.05,
                "end_time": 85.25,
                "pitch": 62,
                "velocity": 127,
                "duration": 0.2,
                "tempo": 120.0
            },
            {
                "start_time": 85.05,
                "end_time": 85.25,
                "pitch": 62,
                "velocity": 127,
                "duration": 0.2,
                "tempo": 120.0
            },
            {
                "start_time": 85.25,
                "end_time": 85.4522727,
                "pitch": 60,
                "velocity": 127,
                "duration": 0.2022727,
                "tempo": 120.0
            },
            {
                "start_time": 85.25,
                "end_time": 85.4522727,
                "pitch": 60,
                "velocity": 127,
                "duration": 0.2022727,
                "tempo": 120.0
            },
            {
                "start_time": 85.4522727,
                "end_time": 85.6568182,
                "pitch": 55,
                "velocity": 127,
                "duration": 0.2045455,
                "tempo": 120.0
            },
            {
                "start_time": 85.6568182,
                "end_time": 85.8636364,
                "pitch": 59,
                "velocity": 127,
                "duration": 0.2068182,
                "tempo": 120.0
            },
            {
                "start_time": 85.6590909,
                "end_time": 85.8636364,
                "pitch": 59,
                "velocity": 127,
                "duration": 0.2045455,
                "tempo": 120.0
            },
            {
                "start_time": 85.8636364,
                "end_time": 86.4568182,
                "pitch": 62,
                "velocity": 127,
                "duration": 0.5931818,
                "tempo": 120.0
            },
            {
                "start_time": 86.4590909,
                "end_time": 86.6590909,
                "pitch": 62,
                "velocity": 127,
                "duration": 0.2,
                "tempo": 120.0
            },
            {
                "start_time": 82.4363636,
                "end_time": 86.8659091,
                "pitch": 44,
                "velocity": 127,
                "duration": 4.4295455,
                "tempo": 120.0
            },
            {
                "start_time": 86.6590909,
                "end_time": 86.8659091,
                "pitch": 60,
                "velocity": 127,
                "duration": 0.2068182,
                "tempo": 120.0
            },
            {
                "start_time": 86.6590909,
                "end_time": 86.8659091,
                "pitch": 60,
                "velocity": 127,
                "duration": 0.2068182,
                "tempo": 120.0
            },
            {
                "start_time": 86.8659091,
                "end_time": 87.0704545,
                "pitch": 59,
                "velocity": 127,
                "duration": 0.2045455,
                "tempo": 120.0
            },
            {
                "start_time": 87.0704545,
                "end_time": 87.2704545,
                "pitch": 59,
                "velocity": 127,
                "duration": 0.2,
                "tempo": 120.0
            },
            {
                "start_time": 85.8636364,
                "end_time": 87.2704545,
                "pitch": 65,
                "velocity": 127,
                "duration": 1.4068182,
                "tempo": 120.0
            },
            {
                "start_time": 87.2704545,
                "end_time": 87.4727273,
                "pitch": 62,
                "velocity": 127,
                "duration": 0.2022727,
                "tempo": 120.0
            },
            {
                "start_time": 87.2704545,
                "end_time": 87.4727273,
                "pitch": 65,
                "velocity": 127,
                "duration": 0.2022727,
                "tempo": 120.0
            },
            {
                "start_time": 87.4727273,
                "end_time": 88.0704545,
                "pitch": 65,
                "velocity": 127,
                "duration": 0.5977273,
                "tempo": 120.0
            },
            {
                "start_time": 87.4727273,
                "end_time": 88.0704545,
                "pitch": 65,
                "velocity": 127,
                "duration": 0.5977273,
                "tempo": 120.0
            },
            {
                "start_time": 88.0704545,
                "end_time": 88.2681818,
                "pitch": 65,
                "velocity": 127,
                "duration": 0.1977273,
                "tempo": 120.0
            },
            {
                "start_time": 88.2681818,
                "end_time": 88.4727273,
                "pitch": 64,
                "velocity": 127,
                "duration": 0.2045455,
                "tempo": 120.0
            },
            {
                "start_time": 88.4727273,
                "end_time": 88.6795455,
                "pitch": 62,
                "velocity": 127,
                "duration": 0.2068182,
                "tempo": 120.0
            },
            {
                "start_time": 88.4727273,
                "end_time": 88.6795455,
                "pitch": 62,
                "velocity": 127,
                "duration": 0.2068182,
                "tempo": 120.0
            },
            {
                "start_time": 88.6795455,
                "end_time": 88.8795455,
                "pitch": 64,
                "velocity": 127,
                "duration": 0.2,
                "tempo": 120.0
            },
            {
                "start_time": 88.6795455,
                "end_time": 88.8795455,
                "pitch": 64,
                "velocity": 127,
                "duration": 0.2,
                "tempo": 120.0
            },
            {
                "start_time": 88.8795455,
                "end_time": 89.0818182,
                "pitch": 62,
                "velocity": 127,
                "duration": 0.2022727,
                "tempo": 120.0
            },
            {
                "start_time": 88.8795455,
                "end_time": 89.0818182,
                "pitch": 62,
                "velocity": 127,
                "duration": 0.2022727,
                "tempo": 120.0
            },
            {
                "start_time": 77.3977273,
                "end_time": 128.9386364,
                "pitch": 31,
                "velocity": 127,
                "duration": 51.5409091,
                "tempo": 120.0
            },
            {
                "start_time": 89.0818182,
                "end_time": 128.9386364,
                "pitch": 60,
                "velocity": 127,
                "duration": 39.8568182,
                "tempo": 120.0
            },
            {
                "start_time": 89.0818182,
                "end_time": 128.9386364,
                "pitch": 60,
                "velocity": 127,
                "duration": 39.8568182,
                "tempo": 120.0
            },
            {
                "start_time": 128.9386364,
                "end_time": 129.1386364,
                "pitch": 57,
                "velocity": 127,
                "duration": 0.2,
                "tempo": 120.0
            },
            {
                "start_time": 129.1386364,
                "end_time": 129.3409091,
                "pitch": 60,
                "velocity": 127,
                "duration": 0.2022727,
                "tempo": 120.0
            },
            {
                "start_time": 129.1386364,
                "end_time": 129.3409091,
                "pitch": 64,
                "velocity": 127,
                "duration": 0.2022727,
                "tempo": 120.0
            },
            {
                "start_time": 129.3409091,
                "end_time": 129.9431818,
                "pitch": 64,
                "velocity": 127,
                "duration": 0.6022727,
                "tempo": 120.0
            },
            {
                "start_time": 129.3409091,
                "end_time": 129.9431818,
                "pitch": 64,
                "velocity": 127,
                "duration": 0.6022727,
                "tempo": 120.0
            },
            {
                "start_time": 129.9431818,
                "end_time": 130.1454545,
                "pitch": 64,
                "velocity": 127,
                "duration": 0.2022727,
                "tempo": 120.0
            },
            {
                "start_time": 130.1454545,
                "end_time": 130.3454545,
                "pitch": 62,
                "velocity": 127,
                "duration": 0.2,
                "tempo": 120.0
            },
            {
                "start_time": 130.1454545,
                "end_time": 130.3454545,
                "pitch": 62,
                "velocity": 127,
                "duration": 0.2,
                "tempo": 120.0
            },
            {
                "start_time": 130.3454545,
                "end_time": 130.5477273,
                "pitch": 60,
                "velocity": 127,
                "duration": 0.2022727,
                "tempo": 120.0
            },
            {
                "start_time": 130.3454545,
                "end_time": 130.5477273,
                "pitch": 60,
                "velocity": 127,
                "duration": 0.2022727,
                "tempo": 120.0
            },
            {
                "start_time": 130.5477273,
                "end_time": 130.75,
                "pitch": 55,
                "velocity": 127,
                "duration": 0.2022727,
                "tempo": 120.0
            },
            {
                "start_time": 130.75,
                "end_time": 130.95,
                "pitch": 59,
                "velocity": 127,
                "duration": 0.2,
                "tempo": 120.0
            },
            {
                "start_time": 130.75,
                "end_time": 130.95,
                "pitch": 59,
                "velocity": 127,
                "duration": 0.2,
                "tempo": 120.0
            },
            {
                "start_time": 130.9522727,
                "end_time": 131.5545455,
                "pitch": 62,
                "velocity": 127,
                "duration": 0.6022727,
                "tempo": 120.0
            },
            {
                "start_time": 131.5545455,
                "end_time": 131.7545455,
                "pitch": 62,
                "velocity": 127,
                "duration": 0.2,
                "tempo": 120.0
            },
            {
                "start_time": 86.8659091,
                "end_time": 131.9568182,
                "pitch": 44,
                "velocity": 127,
                "duration": 45.0909091,
                "tempo": 120.0
            },
            {
                "start_time": 131.7545455,
                "end_time": 131.9568182,
                "pitch": 60,
                "velocity": 127,
                "duration": 0.2022727,
                "tempo": 120.0
            },
            {
                "start_time": 131.7545455,
                "end_time": 131.9568182,
                "pitch": 60,
                "velocity": 127,
                "duration": 0.2022727,
                "tempo": 120.0
            },
            {
                "start_time": 131.9568182,
                "end_time": 132.1568182,
                "pitch": 59,
                "velocity": 127,
                "duration": 0.2,
                "tempo": 120.0
            },
            {
                "start_time": 132.1568182,
                "end_time": 132.3636364,
                "pitch": 59,
                "velocity": 127,
                "duration": 0.2068182,
                "tempo": 120.0
            },
            {
                "start_time": 130.95,
                "end_time": 132.3636364,
                "pitch": 65,
                "velocity": 127,
                "duration": 1.4136364,
                "tempo": 120.0
            },
            {
                "start_time": 132.3636364,
                "end_time": 132.5681818,
                "pitch": 62,
                "velocity": 127,
                "duration": 0.2045455,
                "tempo": 120.0
            },
            {
                "start_time": 132.3636364,
                "end_time": 132.5681818,
                "pitch": 65,
                "velocity": 127,
                "duration": 0.2045455,
                "tempo": 120.0
            },
            {
                "start_time": 132.5681818,
                "end_time": 133.1636364,
                "pitch": 65,
                "velocity": 127,
                "duration": 0.5954545,
                "tempo": 120.0
            },
            {
                "start_time": 132.5704545,
                "end_time": 133.1636364,
                "pitch": 65,
                "velocity": 127,
                "duration": 0.5931818,
                "tempo": 120.0
            },
            {
                "start_time": 133.1636364,
                "end_time": 133.3659091,
                "pitch": 65,
                "velocity": 127,
                "duration": 0.2022727,
                "tempo": 120.0
            },
            {
                "start_time": 133.3659091,
                "end_time": 133.5659091,
                "pitch": 64,
                "velocity": 127,
                "duration": 0.2,
                "tempo": 120.0
            },
            {
                "start_time": 133.5659091,
                "end_time": 133.7659091,
                "pitch": 62,
                "velocity": 127,
                "duration": 0.2,
                "tempo": 120.0
            },
            {
                "start_time": 133.5659091,
                "end_time": 133.7659091,
                "pitch": 62,
                "velocity": 127,
                "duration": 0.2,
                "tempo": 120.0
            },
            {
                "start_time": 131.9568182,
                "end_time": 133.9704545,
                "pitch": 44,
                "velocity": 127,
                "duration": 2.0136364,
                "tempo": 120.0
            },
            {
                "start_time": 133.7659091,
                "end_time": 133.9704545,
                "pitch": 60,
                "velocity": 127,
                "duration": 0.2045455,
                "tempo": 120.0
            },
            {
                "start_time": 133.7659091,
                "end_time": 133.9704545,
                "pitch": 60,
                "velocity": 127,
                "duration": 0.2045455,
                "tempo": 120.0
            },
            {
                "start_time": 133.9704545,
                "end_time": 134.1772727,
                "pitch": 59,
                "velocity": 127,
                "duration": 0.2068182,
                "tempo": 120.0
            },
            {
                "start_time": 134.1772727,
                "end_time": 135.3840909,
                "pitch": 57,
                "velocity": 127,
                "duration": 1.2068182,
                "tempo": 120.0
            },
            {
                "start_time": 134.1772727,
                "end_time": 135.3840909,
                "pitch": 57,
                "velocity": 127,
                "duration": 1.2068182,
                "tempo": 120.0
            },
            {
                "start_time": 135.3840909,
                "end_time": 135.5863636,
                "pitch": 57,
                "velocity": 127,
                "duration": 0.2022727,
                "tempo": 120.0
            },
            {
                "start_time": 135.5863636,
                "end_time": 135.7863636,
                "pitch": 60,
                "velocity": 127,
                "duration": 0.2,
                "tempo": 120.0
            },
            {
                "start_time": 135.5863636,
                "end_time": 135.7863636,
                "pitch": 64,
                "velocity": 127,
                "duration": 0.2,
                "tempo": 120.0
            },
            {
                "start_time": 135.7863636,
                "end_time": 136.3886364,
                "pitch": 64,
                "velocity": 127,
                "duration": 0.6022727,
                "tempo": 120.0
            },
            {
                "start_time": 135.7863636,
                "end_time": 136.3886364,
                "pitch": 64,
                "velocity": 127,
                "duration": 0.6022727,
                "tempo": 120.0
            },
            {
                "start_time": 136.3886364,
                "end_time": 136.5909091,
                "pitch": 64,
                "velocity": 127,
                "duration": 0.2022727,
                "tempo": 120.0
            },
            {
                "start_time": 136.5909091,
                "end_time": 136.7931818,
                "pitch": 62,
                "velocity": 127,
                "duration": 0.2022727,
                "tempo": 120.0
            },
            {
                "start_time": 136.5909091,
                "end_time": 136.7931818,
                "pitch": 62,
                "velocity": 127,
                "duration": 0.2022727,
                "tempo": 120.0
            },
            {
                "start_time": 136.7931818,
                "end_time": 136.9931818,
                "pitch": 60,
                "velocity": 127,
                "duration": 0.2,
                "tempo": 120.0
            },
            {
                "start_time": 136.7931818,
                "end_time": 136.9931818,
                "pitch": 60,
                "velocity": 127,
                "duration": 0.2,
                "tempo": 120.0
            },
            {
                "start_time": 136.9931818,
                "end_time": 137.1954545,
                "pitch": 55,
                "velocity": 127,
                "duration": 0.2022727,
                "tempo": 120.0
            },
            {
                "start_time": 137.1954545,
                "end_time": 137.3977273,
                "pitch": 59,
                "velocity": 127,
                "duration": 0.2022727,
                "tempo": 120.0
            },
            {
                "start_time": 137.1954545,
                "end_time": 137.3977273,
                "pitch": 59,
                "velocity": 127,
                "duration": 0.2022727,
                "tempo": 120.0
            },
            {
                "start_time": 137.3977273,
                "end_time": 138.0,
                "pitch": 62,
                "velocity": 127,
                "duration": 0.6022727,
                "tempo": 120.0
            },
            {
                "start_time": 138.0,
                "end_time": 138.2,
                "pitch": 62,
                "velocity": 127,
                "duration": 0.2,
                "tempo": 120.0
            },
            {
                "start_time": 133.9704545,
                "end_time": 138.4022727,
                "pitch": 44,
                "velocity": 127,
                "duration": 4.4318182,
                "tempo": 120.0
            },
            {
                "start_time": 138.2,
                "end_time": 138.4022727,
                "pitch": 60,
                "velocity": 127,
                "duration": 0.2022727,
                "tempo": 120.0
            },
            {
                "start_time": 138.2022727,
                "end_time": 138.4022727,
                "pitch": 60,
                "velocity": 127,
                "duration": 0.2,
                "tempo": 120.0
            },
            {
                "start_time": 138.4022727,
                "end_time": 138.6045455,
                "pitch": 59,
                "velocity": 127,
                "duration": 0.2022727,
                "tempo": 120.0
            },
            {
                "start_time": 138.6045455,
                "end_time": 138.8068182,
                "pitch": 59,
                "velocity": 127,
                "duration": 0.2022727,
                "tempo": 120.0
            },
            {
                "start_time": 137.3977273,
                "end_time": 138.8068182,
                "pitch": 65,
                "velocity": 127,
                "duration": 1.4090909,
                "tempo": 120.0
            },
            {
                "start_time": 138.8068182,
                "end_time": 139.0068182,
                "pitch": 62,
                "velocity": 127,
                "duration": 0.2,
                "tempo": 120.0
            },
            {
                "start_time": 138.8068182,
                "end_time": 139.0068182,
                "pitch": 65,
                "velocity": 127,
                "duration": 0.2,
                "tempo": 120.0
            },
            {
                "start_time": 139.0068182,
                "end_time": 139.6113636,
                "pitch": 65,
                "velocity": 127,
                "duration": 0.6045455,
                "tempo": 120.0
            },
            {
                "start_time": 139.0068182,
                "end_time": 139.6113636,
                "pitch": 65,
                "velocity": 127,
                "duration": 0.6045455,
                "tempo": 120.0
            },
            {
                "start_time": 139.6113636,
                "end_time": 139.8136364,
                "pitch": 65,
                "velocity": 127,
                "duration": 0.2022727,
                "tempo": 120.0
            },
            {
                "start_time": 139.8136364,
                "end_time": 140.0136364,
                "pitch": 64,
                "velocity": 127,
                "duration": 0.2,
                "tempo": 120.0
            },
            {
                "start_time": 140.0136364,
                "end_time": 140.2136364,
                "pitch": 62,
                "velocity": 127,
                "duration": 0.2,
                "tempo": 120.0
            },
            {
                "start_time": 140.0136364,
                "end_time": 140.2136364,
                "pitch": 62,
                "velocity": 127,
                "duration": 0.2,
                "tempo": 120.0
            },
            {
                "start_time": 140.2136364,
                "end_time": 140.4159091,
                "pitch": 64,
                "velocity": 127,
                "duration": 0.2022727,
                "tempo": 120.0
            },
            {
                "start_time": 140.2136364,
                "end_time": 140.4159091,
                "pitch": 64,
                "velocity": 127,
                "duration": 0.2022727,
                "tempo": 120.0
            },
            {
                "start_time": 140.4159091,
                "end_time": 140.6181818,
                "pitch": 62,
                "velocity": 127,
                "duration": 0.2022727,
                "tempo": 120.0
            },
            {
                "start_time": 140.4159091,
                "end_time": 140.6181818,
                "pitch": 62,
                "velocity": 127,
                "duration": 0.2022727,
                "tempo": 120.0
            }
        ],
        "Lead 2 (sawtooth)": [
            {
                "start_time": 0.1954545,
                "end_time": 0.2727273,
                "pitch": 45,
                "velocity": 127,
                "duration": 0.0772727,
                "tempo": 120.0
            },
            {
                "start_time": 0.2909091,
                "end_time": 0.3727273,
                "pitch": 48,
                "velocity": 101,
                "duration": 0.0818182,
                "tempo": 120.0
            },
            {
                "start_time": 0.3909091,
                "end_time": 0.4727273,
                "pitch": 47,
                "velocity": 101,
                "duration": 0.0818182,
                "tempo": 120.0
            },
            {
                "start_time": 0.4909091,
                "end_time": 0.5727273,
                "pitch": 48,
                "velocity": 101,
                "duration": 0.0818182,
                "tempo": 120.0
            },
            {
                "start_time": 0.5909091,
                "end_time": 0.6727273,
                "pitch": 45,
                "velocity": 127,
                "duration": 0.0818182,
                "tempo": 120.0
            },
            {
                "start_time": 0.6886364,
                "end_time": 0.7704545,
                "pitch": 48,
                "velocity": 101,
                "duration": 0.0818182,
                "tempo": 120.0
            },
            {
                "start_time": 0.7863636,
                "end_time": 0.8681818,
                "pitch": 47,
                "velocity": 101,
                "duration": 0.0818182,
                "tempo": 120.0
            },
            {
                "start_time": 0.8840909,
                "end_time": 0.9659091,
                "pitch": 48,
                "velocity": 101,
                "duration": 0.0818182,
                "tempo": 120.0
            },
            {
                "start_time": 0.9840909,
                "end_time": 1.0659091,
                "pitch": 45,
                "velocity": 127,
                "duration": 0.0818182,
                "tempo": 120.0
            },
            {
                "start_time": 1.0840909,
                "end_time": 1.1659091,
                "pitch": 48,
                "velocity": 101,
                "duration": 0.0818182,
                "tempo": 120.0
            },
            {
                "start_time": 1.1840909,
                "end_time": 1.2659091,
                "pitch": 47,
                "velocity": 101,
                "duration": 0.0818182,
                "tempo": 120.0
            },
            {
                "start_time": 1.2840909,
                "end_time": 1.3659091,
                "pitch": 48,
                "velocity": 101,
                "duration": 0.0818182,
                "tempo": 120.0
            },
            {
                "start_time": 1.3840909,
                "end_time": 1.4659091,
                "pitch": 45,
                "velocity": 127,
                "duration": 0.0818182,
                "tempo": 120.0
            },
            {
                "start_time": 1.4840909,
                "end_time": 1.5659091,
                "pitch": 48,
                "velocity": 101,
                "duration": 0.0818182,
                "tempo": 120.0
            },
            {
                "start_time": 1.5840909,
                "end_time": 1.6659091,
                "pitch": 47,
                "velocity": 101,
                "duration": 0.0818182,
                "tempo": 120.0
            },
            {
                "start_time": 1.6840909,
                "end_time": 1.7659091,
                "pitch": 48,
                "velocity": 101,
                "duration": 0.0818182,
                "tempo": 120.0
            },
            {
                "start_time": 1.7863636,
                "end_time": 1.8681818,
                "pitch": 43,
                "velocity": 127,
                "duration": 0.0818182,
                "tempo": 120.0
            },
            {
                "start_time": 1.8863636,
                "end_time": 1.9727273,
                "pitch": 47,
                "velocity": 101,
                "duration": 0.0863636,
                "tempo": 120.0
            },
            {
                "start_time": 1.9886364,
                "end_time": 2.075,
                "pitch": 45,
                "velocity": 101,
                "duration": 0.0863636,
                "tempo": 120.0
            },
            {
                "start_time": 2.0931818,
                "end_time": 2.1772727,
                "pitch": 47,
                "velocity": 101,
                "duration": 0.0840909,
                "tempo": 120.0
            },
            {
                "start_time": 2.1954545,
                "end_time": 2.2795455,
                "pitch": 43,
                "velocity": 127,
                "duration": 0.0840909,
                "tempo": 120.0
            },
            {
                "start_time": 2.2954545,
                "end_time": 2.3795455,
                "pitch": 47,
                "velocity": 101,
                "duration": 0.0840909,
                "tempo": 120.0
            },
            {
                "start_time": 2.3977273,
                "end_time": 2.4795455,
                "pitch": 45,
                "velocity": 101,
                "duration": 0.0818182,
                "tempo": 120.0
            },
            {
                "start_time": 2.4977273,
                "end_time": 2.5818182,
                "pitch": 47,
                "velocity": 101,
                "duration": 0.0840909,
                "tempo": 120.0
            },
            {
                "start_time": 2.6,
                "end_time": 2.6818182,
                "pitch": 43,
                "velocity": 127,
                "duration": 0.0818182,
                "tempo": 120.0
            },
            {
                "start_time": 2.7,
                "end_time": 2.7818182,
                "pitch": 47,
                "velocity": 101,
                "duration": 0.0818182,
                "tempo": 120.0
            },
            {
                "start_time": 2.8,
                "end_time": 2.8818182,
                "pitch": 45,
                "velocity": 101,
                "duration": 0.0818182,
                "tempo": 120.0
            },
            {
                "start_time": 2.9,
                "end_time": 2.9818182,
                "pitch": 47,
                "velocity": 101,
                "duration": 0.0818182,
                "tempo": 120.0
            },
            {
                "start_time": 3.0,
                "end_time": 3.0818182,
                "pitch": 43,
                "velocity": 127,
                "duration": 0.0818182,
                "tempo": 120.0
            },
            {
                "start_time": 3.1,
                "end_time": 3.1818182,
                "pitch": 47,
                "velocity": 101,
                "duration": 0.0818182,
                "tempo": 120.0
            },
            {
                "start_time": 3.2,
                "end_time": 3.2818182,
                "pitch": 45,
                "velocity": 101,
                "duration": 0.0818182,
                "tempo": 120.0
            },
            {
                "start_time": 3.3,
                "end_time": 3.3818182,
                "pitch": 47,
                "velocity": 101,
                "duration": 0.0818182,
                "tempo": 120.0
            },
            {
                "start_time": 3.4022727,
                "end_time": 3.4818182,
                "pitch": 47,
                "velocity": 127,
                "duration": 0.0795455,
                "tempo": 120.0
            },
            {
                "start_time": 3.5,
                "end_time": 3.5818182,
                "pitch": 50,
                "velocity": 101,
                "duration": 0.0818182,
                "tempo": 120.0
            },
            {
                "start_time": 3.6,
                "end_time": 3.6818182,
                "pitch": 48,
                "velocity": 101,
                "duration": 0.0818182,
                "tempo": 120.0
            },
            {
                "start_time": 3.7,
                "end_time": 3.7840909,
                "pitch": 50,
                "velocity": 101,
                "duration": 0.0840909,
                "tempo": 120.0
            },
            {
                "start_time": 3.8022727,
                "end_time": 3.8840909,
                "pitch": 47,
                "velocity": 127,
                "duration": 0.0818182,
                "tempo": 120.0
            },
            {
                "start_time": 3.9,
                "end_time": 3.9840909,
                "pitch": 50,
                "velocity": 101,
                "duration": 0.0840909,
                "tempo": 120.0
            },
            {
                "start_time": 4.0,
                "end_time": 4.0840909,
                "pitch": 48,
                "velocity": 101,
                "duration": 0.0840909,
                "tempo": 120.0
            },
            {
                "start_time": 4.1,
                "end_time": 4.1840909,
                "pitch": 50,
                "velocity": 101,
                "duration": 0.0840909,
                "tempo": 120.0
            },
            {
                "start_time": 4.2022727,
                "end_time": 4.2840909,
                "pitch": 47,
                "velocity": 127,
                "duration": 0.0818182,
                "tempo": 120.0
            },
            {
                "start_time": 4.3022727,
                "end_time": 4.3840909,
                "pitch": 50,
                "velocity": 101,
                "duration": 0.0818182,
                "tempo": 120.0
            },
            {
                "start_time": 4.4022727,
                "end_time": 4.4863636,
                "pitch": 48,
                "velocity": 101,
                "duration": 0.0840909,
                "tempo": 120.0
            },
            {
                "start_time": 4.5022727,
                "end_time": 4.5863636,
                "pitch": 50,
                "velocity": 101,
                "duration": 0.0840909,
                "tempo": 120.0
            },
            {
                "start_time": 4.6045455,
                "end_time": 4.6863636,
                "pitch": 47,
                "velocity": 127,
                "duration": 0.0818182,
                "tempo": 120.0
            },
            {
                "start_time": 4.7045455,
                "end_time": 4.7863636,
                "pitch": 50,
                "velocity": 101,
                "duration": 0.0818182,
                "tempo": 120.0
            },
            {
                "start_time": 4.8045455,
                "end_time": 4.8863636,
                "pitch": 48,
                "velocity": 101,
                "duration": 0.0818182,
                "tempo": 120.0
            },
            {
                "start_time": 4.9045455,
                "end_time": 4.9863636,
                "pitch": 50,
                "velocity": 101,
                "duration": 0.0818182,
                "tempo": 120.0
            },
            {
                "start_time": 5.0068182,
                "end_time": 5.0886364,
                "pitch": 45,
                "velocity": 127,
                "duration": 0.0818182,
                "tempo": 120.0
            },
            {
                "start_time": 5.1045455,
                "end_time": 5.1886364,
                "pitch": 48,
                "velocity": 101,
                "duration": 0.0840909,
                "tempo": 120.0
            },
            {
                "start_time": 5.2068182,
                "end_time": 5.2886364,
                "pitch": 47,
                "velocity": 101,
                "duration": 0.0818182,
                "tempo": 120.0
            },
            {
                "start_time": 5.3068182,
                "end_time": 5.3909091,
                "pitch": 48,
                "velocity": 101,
                "duration": 0.0840909,
                "tempo": 120.0
            },
            {
                "start_time": 5.4090909,
                "end_time": 5.4909091,
                "pitch": 45,
                "velocity": 127,
                "duration": 0.0818182,
                "tempo": 120.0
            },
            {
                "start_time": 5.5090909,
                "end_time": 5.5909091,
                "pitch": 48,
                "velocity": 101,
                "duration": 0.0818182,
                "tempo": 120.0
            },
            {
                "start_time": 5.6090909,
                "end_time": 5.6931818,
                "pitch": 47,
                "velocity": 101,
                "duration": 0.0840909,
                "tempo": 120.0
            },
            {
                "start_time": 5.7090909,
                "end_time": 5.7931818,
                "pitch": 48,
                "velocity": 101,
                "duration": 0.0840909,
                "tempo": 120.0
            },
            {
                "start_time": 5.8113636,
                "end_time": 5.8931818,
                "pitch": 45,
                "velocity": 127,
                "duration": 0.0818182,
                "tempo": 120.0
            },
            {
                "start_time": 5.9113636,
                "end_time": 5.9931818,
                "pitch": 48,
                "velocity": 101,
                "duration": 0.0818182,
                "tempo": 120.0
            },
            {
                "start_time": 6.0113636,
                "end_time": 6.0931818,
                "pitch": 47,
                "velocity": 101,
                "duration": 0.0818182,
                "tempo": 120.0
            },
            {
                "start_time": 6.1113636,
                "end_time": 6.1931818,
                "pitch": 48,
                "velocity": 101,
                "duration": 0.0818182,
                "tempo": 120.0
            },
            {
                "start_time": 6.2113636,
                "end_time": 6.2954545,
                "pitch": 45,
                "velocity": 127,
                "duration": 0.0840909,
                "tempo": 120.0
            },
            {
                "start_time": 6.3113636,
                "end_time": 6.3954545,
                "pitch": 48,
                "velocity": 101,
                "duration": 0.0840909,
                "tempo": 120.0
            },
            {
                "start_time": 6.4136364,
                "end_time": 6.4954545,
                "pitch": 47,
                "velocity": 101,
                "duration": 0.0818182,
                "tempo": 120.0
            },
            {
                "start_time": 6.5136364,
                "end_time": 6.5977273,
                "pitch": 48,
                "velocity": 101,
                "duration": 0.0840909,
                "tempo": 120.0
            },
            {
                "start_time": 6.6181818,
                "end_time": 6.7,
                "pitch": 45,
                "velocity": 127,
                "duration": 0.0818182,
                "tempo": 120.0
            },
            {
                "start_time": 6.7181818,
                "end_time": 6.8022727,
                "pitch": 48,
                "velocity": 101,
                "duration": 0.0840909,
                "tempo": 120.0
            },
            {
                "start_time": 6.8204545,
                "end_time": 6.9045455,
                "pitch": 47,
                "velocity": 101,
                "duration": 0.0840909,
                "tempo": 120.0
            },
            {
                "start_time": 6.9227273,
                "end_time": 7.0090909,
                "pitch": 48,
                "velocity": 101,
                "duration": 0.0863636,
                "tempo": 120.0
            },
            {
                "start_time": 7.0272727,
                "end_time": 7.1068182,
                "pitch": 45,
                "velocity": 127,
                "duration": 0.0795455,
                "tempo": 120.0
            },
            {
                "start_time": 7.125,
                "end_time": 7.2045455,
                "pitch": 48,
                "velocity": 101,
                "duration": 0.0795455,
                "tempo": 120.0
            },
            {
                "start_time": 7.2227273,
                "end_time": 7.3045455,
                "pitch": 47,
                "velocity": 101,
                "duration": 0.0818182,
                "tempo": 120.0
            },
            {
                "start_time": 7.3204545,
                "end_time": 7.4022727,
                "pitch": 48,
                "velocity": 101,
                "duration": 0.0818182,
                "tempo": 120.0
            },
            {
                "start_time": 7.4204545,
                "end_time": 7.5022727,
                "pitch": 45,
                "velocity": 127,
                "duration": 0.0818182,
                "tempo": 120.0
            },
            {
                "start_time": 7.5204545,
                "end_time": 7.6022727,
                "pitch": 48,
                "velocity": 101,
                "duration": 0.0818182,
                "tempo": 120.0
            },
            {
                "start_time": 7.6204545,
                "end_time": 7.7045455,
                "pitch": 47,
                "velocity": 101,
                "duration": 0.0840909,
                "tempo": 120.0
            },
            {
                "start_time": 7.7204545,
                "end_time": 7.8045455,
                "pitch": 48,
                "velocity": 101,
                "duration": 0.0840909,
                "tempo": 120.0
            },
            {
                "start_time": 7.8227273,
                "end_time": 7.9045455,
                "pitch": 45,
                "velocity": 127,
                "duration": 0.0818182,
                "tempo": 120.0
            },
            {
                "start_time": 7.9227273,
                "end_time": 8.0045455,
                "pitch": 48,
                "velocity": 101,
                "duration": 0.0818182,
                "tempo": 120.0
            },
            {
                "start_time": 8.0227273,
                "end_time": 8.1045455,
                "pitch": 47,
                "velocity": 101,
                "duration": 0.0818182,
                "tempo": 120.0
            },
            {
                "start_time": 8.1227273,
                "end_time": 8.2045455,
                "pitch": 48,
                "velocity": 101,
                "duration": 0.0818182,
                "tempo": 120.0
            },
            {
                "start_time": 8.225,
                "end_time": 8.3068182,
                "pitch": 43,
                "velocity": 127,
                "duration": 0.0818182,
                "tempo": 120.0
            },
            {
                "start_time": 8.325,
                "end_time": 8.4090909,
                "pitch": 47,
                "velocity": 101,
                "duration": 0.0840909,
                "tempo": 120.0
            },
            {
                "start_time": 8.4272727,
                "end_time": 8.5136364,
                "pitch": 45,
                "velocity": 101,
                "duration": 0.0863636,
                "tempo": 120.0
            },
            {
                "start_time": 8.5295455,
                "end_time": 8.6159091,
                "pitch": 47,
                "velocity": 101,
                "duration": 0.0863636,
                "tempo": 120.0
            },
            {
                "start_time": 8.6340909,
                "end_time": 8.7159091,
                "pitch": 43,
                "velocity": 127,
                "duration": 0.0818182,
                "tempo": 120.0
            },
            {
                "start_time": 8.7318182,
                "end_time": 8.8136364,
                "pitch": 47,
                "velocity": 101,
                "duration": 0.0818182,
                "tempo": 120.0
            },
            {
                "start_time": 8.8295455,
                "end_time": 8.9113636,
                "pitch": 45,
                "velocity": 101,
                "duration": 0.0818182,
                "tempo": 120.0
            },
            {
                "start_time": 8.9272727,
                "end_time": 9.0090909,
                "pitch": 47,
                "velocity": 101,
                "duration": 0.0818182,
                "tempo": 120.0
            },
            {
                "start_time": 9.0272727,
                "end_time": 9.1090909,
                "pitch": 43,
                "velocity": 127,
                "duration": 0.0818182,
                "tempo": 120.0
            },
            {
                "start_time": 9.1272727,
                "end_time": 9.2113636,
                "pitch": 47,
                "velocity": 101,
                "duration": 0.0840909,
                "tempo": 120.0
            },
            {
                "start_time": 9.2272727,
                "end_time": 9.3113636,
                "pitch": 45,
                "velocity": 101,
                "duration": 0.0840909,
                "tempo": 120.0
            },
            {
                "start_time": 9.3295455,
                "end_time": 9.4113636,
                "pitch": 47,
                "velocity": 101,
                "duration": 0.0818182,
                "tempo": 120.0
            },
            {
                "start_time": 9.4295455,
                "end_time": 9.5136364,
                "pitch": 43,
                "velocity": 127,
                "duration": 0.0840909,
                "tempo": 120.0
            },
            {
                "start_time": 9.5295455,
                "end_time": 9.6136364,
                "pitch": 47,
                "velocity": 101,
                "duration": 0.0840909,
                "tempo": 120.0
            },
            {
                "start_time": 9.6318182,
                "end_time": 9.7136364,
                "pitch": 45,
                "velocity": 101,
                "duration": 0.0818182,
                "tempo": 120.0
            },
            {
                "start_time": 9.7318182,
                "end_time": 9.8159091,
                "pitch": 47,
                "velocity": 101,
                "duration": 0.0840909,
                "tempo": 120.0
            },
            {
                "start_time": 9.8340909,
                "end_time": 9.9181818,
                "pitch": 47,
                "velocity": 127,
                "duration": 0.0840909,
                "tempo": 120.0
            },
            {
                "start_time": 9.9363636,
                "end_time": 10.0204545,
                "pitch": 50,
                "velocity": 101,
                "duration": 0.0840909,
                "tempo": 120.0
            },
            {
                "start_time": 10.0386364,
                "end_time": 10.1227273,
                "pitch": 48,
                "velocity": 101,
                "duration": 0.0840909,
                "tempo": 120.0
            },
            {
                "start_time": 10.1409091,
                "end_time": 10.2272727,
                "pitch": 50,
                "velocity": 101,
                "duration": 0.0863636,
                "tempo": 120.0
            },
            {
                "start_time": 10.2454545,
                "end_time": 10.3272727,
                "pitch": 47,
                "velocity": 127,
                "duration": 0.0818182,
                "tempo": 120.0
            },
            {
                "start_time": 10.3454545,
                "end_time": 10.4272727,
                "pitch": 50,
                "velocity": 101,
                "duration": 0.0818182,
                "tempo": 120.0
            },
            {
                "start_time": 10.4454545,
                "end_time": 10.5295455,
                "pitch": 48,
                "velocity": 101,
                "duration": 0.0840909,
                "tempo": 120.0
            },
            {
                "start_time": 10.5454545,
                "end_time": 10.6295455,
                "pitch": 50,
                "velocity": 101,
                "duration": 0.0840909,
                "tempo": 120.0
            },
            {
                "start_time": 10.6477273,
                "end_time": 10.7295455,
                "pitch": 47,
                "velocity": 127,
                "duration": 0.0818182,
                "tempo": 120.0
            },
            {
                "start_time": 10.7477273,
                "end_time": 10.8295455,
                "pitch": 50,
                "velocity": 101,
                "duration": 0.0818182,
                "tempo": 120.0
            },
            {
                "start_time": 10.8477273,
                "end_time": 10.9295455,
                "pitch": 48,
                "velocity": 101,
                "duration": 0.0818182,
                "tempo": 120.0
            },
            {
                "start_time": 10.9477273,
                "end_time": 11.0295455,
                "pitch": 50,
                "velocity": 101,
                "duration": 0.0818182,
                "tempo": 120.0
            },
            {
                "start_time": 11.0477273,
                "end_time": 11.1318182,
                "pitch": 47,
                "velocity": 127,
                "duration": 0.0840909,
                "tempo": 120.0
            },
            {
                "start_time": 11.1477273,
                "end_time": 11.2318182,
                "pitch": 50,
                "velocity": 101,
                "duration": 0.0840909,
                "tempo": 120.0
            },
            {
                "start_time": 11.25,
                "end_time": 11.3318182,
                "pitch": 48,
                "velocity": 101,
                "duration": 0.0818182,
                "tempo": 120.0
            },
            {
                "start_time": 11.35,
                "end_time": 11.4340909,
                "pitch": 50,
                "velocity": 101,
                "duration": 0.0840909,
                "tempo": 120.0
            },
            {
                "start_time": 11.4522727,
                "end_time": 11.5340909,
                "pitch": 45,
                "velocity": 127,
                "duration": 0.0818182,
                "tempo": 120.0
            },
            {
                "start_time": 11.5522727,
                "end_time": 11.6363636,
                "pitch": 48,
                "velocity": 101,
                "duration": 0.0840909,
                "tempo": 120.0
            },
            {
                "start_time": 11.6522727,
                "end_time": 11.7363636,
                "pitch": 47,
                "velocity": 101,
                "duration": 0.0840909,
                "tempo": 120.0
            },
            {
                "start_time": 11.7545455,
                "end_time": 11.8363636,
                "pitch": 48,
                "velocity": 101,
                "duration": 0.0818182,
                "tempo": 120.0
            },
            {
                "start_time": 11.8545455,
                "end_time": 11.9386364,
                "pitch": 45,
                "velocity": 127,
                "duration": 0.0840909,
                "tempo": 120.0
            },
            {
                "start_time": 11.9545455,
                "end_time": 12.0386364,
                "pitch": 48,
                "velocity": 101,
                "duration": 0.0840909,
                "tempo": 120.0
            },
            {
                "start_time": 12.0568182,
                "end_time": 12.1386364,
                "pitch": 47,
                "velocity": 101,
                "duration": 0.0818182,
                "tempo": 120.0
            },
            {
                "start_time": 12.1568182,
                "end_time": 12.2409091,
                "pitch": 48,
                "velocity": 101,
                "duration": 0.0840909,
                "tempo": 120.0
            },
            {
                "start_time": 12.2590909,
                "end_time": 12.3409091,
                "pitch": 45,
                "velocity": 127,
                "duration": 0.0818182,
                "tempo": 120.0
            },
            {
                "start_time": 12.3590909,
                "end_time": 12.4409091,
                "pitch": 48,
                "velocity": 101,
                "duration": 0.0818182,
                "tempo": 120.0
            },
            {
                "start_time": 12.4590909,
                "end_time": 12.5431818,
                "pitch": 47,
                "velocity": 101,
                "duration": 0.0840909,
                "tempo": 120.0
            },
            {
                "start_time": 12.5590909,
                "end_time": 12.6431818,
                "pitch": 48,
                "velocity": 101,
                "duration": 0.0840909,
                "tempo": 120.0
            },
            {
                "start_time": 12.6613636,
                "end_time": 12.7431818,
                "pitch": 45,
                "velocity": 127,
                "duration": 0.0818182,
                "tempo": 120.0
            },
            {
                "start_time": 12.7613636,
                "end_time": 12.8431818,
                "pitch": 48,
                "velocity": 101,
                "duration": 0.0818182,
                "tempo": 120.0
            },
            {
                "start_time": 12.8613636,
                "end_time": 12.9431818,
                "pitch": 47,
                "velocity": 101,
                "duration": 0.0818182,
                "tempo": 120.0
            },
            {
                "start_time": 12.9613636,
                "end_time": 13.0431818,
                "pitch": 48,
                "velocity": 101,
                "duration": 0.0818182,
                "tempo": 120.0
            },
            {
                "start_time": 13.0636364,
                "end_time": 13.2477273,
                "pitch": 45,
                "velocity": 127,
                "duration": 0.1840909,
                "tempo": 120.0
            },
            {
                "start_time": 13.2681818,
                "end_time": 13.3522727,
                "pitch": 45,
                "velocity": 101,
                "duration": 0.0840909,
                "tempo": 120.0
            },
            {
                "start_time": 13.3704545,
                "end_time": 13.4545455,
                "pitch": 57,
                "velocity": 101,
                "duration": 0.0840909,
                "tempo": 120.0
            },
            {
                "start_time": 13.4727273,
                "end_time": 13.6522727,
                "pitch": 45,
                "velocity": 127,
                "duration": 0.1795455,
                "tempo": 120.0
            },
            {
                "start_time": 13.6681818,
                "end_time": 13.75,
                "pitch": 45,
                "velocity": 101,
                "duration": 0.0818182,
                "tempo": 120.0
            },
            {
                "start_time": 13.7659091,
                "end_time": 13.8477273,
                "pitch": 57,
                "velocity": 101,
                "duration": 0.0818182,
                "tempo": 120.0
            },
            {
                "start_time": 13.8659091,
                "end_time": 14.05,
                "pitch": 45,
                "velocity": 127,
                "duration": 0.1840909,
                "tempo": 120.0
            },
            {
                "start_time": 14.0659091,
                "end_time": 14.15,
                "pitch": 45,
                "velocity": 101,
                "duration": 0.0840909,
                "tempo": 120.0
            },
            {
                "start_time": 14.1681818,
                "end_time": 14.25,
                "pitch": 57,
                "velocity": 101,
                "duration": 0.0818182,
                "tempo": 120.0
            },
            {
                "start_time": 14.2681818,
                "end_time": 14.4522727,
                "pitch": 45,
                "velocity": 127,
                "duration": 0.1840909,
                "tempo": 120.0
            },
            {
                "start_time": 14.4704545,
                "end_time": 14.5522727,
                "pitch": 45,
                "velocity": 101,
                "duration": 0.0818182,
                "tempo": 120.0
            },
            {
                "start_time": 14.5704545,
                "end_time": 14.6545455,
                "pitch": 57,
                "velocity": 101,
                "duration": 0.0840909,
                "tempo": 120.0
            },
            {
                "start_time": 14.6727273,
                "end_time": 14.8545455,
                "pitch": 43,
                "velocity": 127,
                "duration": 0.1818182,
                "tempo": 120.0
            },
            {
                "start_time": 14.8727273,
                "end_time": 14.9545455,
                "pitch": 43,
                "velocity": 101,
                "duration": 0.0818182,
                "tempo": 120.0
            },
            {
                "start_time": 14.9727273,
                "end_time": 15.0545455,
                "pitch": 55,
                "velocity": 101,
                "duration": 0.0818182,
                "tempo": 120.0
            },
            {
                "start_time": 15.0727273,
                "end_time": 15.2568182,
                "pitch": 43,
                "velocity": 127,
                "duration": 0.1840909,
                "tempo": 120.0
            },
            {
                "start_time": 15.2727273,
                "end_time": 15.3568182,
                "pitch": 43,
                "velocity": 101,
                "duration": 0.0840909,
                "tempo": 120.0
            },
            {
                "start_time": 15.375,
                "end_time": 15.4568182,
                "pitch": 55,
                "velocity": 101,
                "duration": 0.0818182,
                "tempo": 120.0
            },
            {
                "start_time": 15.475,
                "end_time": 15.6590909,
                "pitch": 43,
                "velocity": 127,
                "duration": 0.1840909,
                "tempo": 120.0
            },
            {
                "start_time": 15.6772727,
                "end_time": 15.7590909,
                "pitch": 43,
                "velocity": 101,
                "duration": 0.0818182,
                "tempo": 120.0
            },
            {
                "start_time": 15.7772727,
                "end_time": 15.8613636,
                "pitch": 55,
                "velocity": 101,
                "duration": 0.0840909,
                "tempo": 120.0
            },
            {
                "start_time": 15.8795455,
                "end_time": 16.0636364,
                "pitch": 43,
                "velocity": 127,
                "duration": 0.1840909,
                "tempo": 120.0
            },
            {
                "start_time": 16.0795455,
                "end_time": 16.1636364,
                "pitch": 43,
                "velocity": 101,
                "duration": 0.0840909,
                "tempo": 120.0
            },
            {
                "start_time": 16.1818182,
                "end_time": 16.2636364,
                "pitch": 55,
                "velocity": 101,
                "duration": 0.0818182,
                "tempo": 120.0
            },
            {
                "start_time": 16.2818182,
                "end_time": 16.4704545,
                "pitch": 47,
                "velocity": 127,
                "duration": 0.1886364,
                "tempo": 120.0
            },
            {
                "start_time": 16.4886364,
                "end_time": 16.5727273,
                "pitch": 47,
                "velocity": 101,
                "duration": 0.0840909,
                "tempo": 120.0
            },
            {
                "start_time": 16.5909091,
                "end_time": 16.675,
                "pitch": 59,
                "velocity": 101,
                "duration": 0.0840909,
                "tempo": 120.0
            },
            {
                "start_time": 16.6931818,
                "end_time": 16.8727273,
                "pitch": 47,
                "velocity": 127,
                "duration": 0.1795455,
                "tempo": 120.0
            },
            {
                "start_time": 16.8886364,
                "end_time": 16.9704545,
                "pitch": 47,
                "velocity": 101,
                "duration": 0.0818182,
                "tempo": 120.0
            },
            {
                "start_time": 16.9863636,
                "end_time": 17.0681818,
                "pitch": 59,
                "velocity": 101,
                "duration": 0.0818182,
                "tempo": 120.0
            },
            {
                "start_time": 17.0863636,
                "end_time": 17.2704545,
                "pitch": 47,
                "velocity": 127,
                "duration": 0.1840909,
                "tempo": 120.0
            },
            {
                "start_time": 17.2863636,
                "end_time": 17.3704545,
                "pitch": 47,
                "velocity": 101,
                "duration": 0.0840909,
                "tempo": 120.0
            },
            {
                "start_time": 17.3886364,
                "end_time": 17.4704545,
                "pitch": 59,
                "velocity": 101,
                "duration": 0.0818182,
                "tempo": 120.0
            },
            {
                "start_time": 17.4886364,
                "end_time": 17.6727273,
                "pitch": 47,
                "velocity": 127,
                "duration": 0.1840909,
                "tempo": 120.0
            },
            {
                "start_time": 17.6886364,
                "end_time": 17.7727273,
                "pitch": 47,
                "velocity": 101,
                "duration": 0.0840909,
                "tempo": 120.0
            },
            {
                "start_time": 17.7886364,
                "end_time": 17.8727273,
                "pitch": 59,
                "velocity": 101,
                "duration": 0.0840909,
                "tempo": 120.0
            },
            {
                "start_time": 17.8909091,
                "end_time": 18.0772727,
                "pitch": 45,
                "velocity": 127,
                "duration": 0.1863636,
                "tempo": 120.0
            },
            {
                "start_time": 18.0954545,
                "end_time": 18.1795455,
                "pitch": 45,
                "velocity": 101,
                "duration": 0.0840909,
                "tempo": 120.0
            },
            {
                "start_time": 18.1977273,
                "end_time": 18.2818182,
                "pitch": 57,
                "velocity": 101,
                "duration": 0.0840909,
                "tempo": 120.0
            },
            {
                "start_time": 18.3022727,
                "end_time": 18.4840909,
                "pitch": 45,
                "velocity": 127,
                "duration": 0.1818182,
                "tempo": 120.0
            },
            {
                "start_time": 18.5,
                "end_time": 18.5840909,
                "pitch": 45,
                "velocity": 101,
                "duration": 0.0840909,
                "tempo": 120.0
            },
            {
                "start_time": 18.6,
                "end_time": 18.6840909,
                "pitch": 57,
                "velocity": 101,
                "duration": 0.0840909,
                "tempo": 120.0
            },
            {
                "start_time": 18.7022727,
                "end_time": 18.8863636,
                "pitch": 45,
                "velocity": 127,
                "duration": 0.1840909,
                "tempo": 120.0
            },
            {
                "start_time": 18.9022727,
                "end_time": 18.9863636,
                "pitch": 45,
                "velocity": 101,
                "duration": 0.0840909,
                "tempo": 120.0
            },
            {
                "start_time": 19.0045455,
                "end_time": 19.0863636,
                "pitch": 57,
                "velocity": 101,
                "duration": 0.0818182,
                "tempo": 120.0
            },
            {
                "start_time": 19.1045455,
                "end_time": 19.2863636,
                "pitch": 45,
                "velocity": 127,
                "duration": 0.1818182,
                "tempo": 120.0
            },
            {
                "start_time": 19.3045455,
                "end_time": 19.3886364,
                "pitch": 45,
                "velocity": 101,
                "duration": 0.0840909,
                "tempo": 120.0
            },
            {
                "start_time": 19.4045455,
                "end_time": 19.4886364,
                "pitch": 57,
                "velocity": 101,
                "duration": 0.0840909,
                "tempo": 120.0
            },
            {
                "start_time": 19.5068182,
                "end_time": 19.6886364,
                "pitch": 45,
                "velocity": 127,
                "duration": 0.1818182,
                "tempo": 120.0
            },
            {
                "start_time": 19.7068182,
                "end_time": 19.7909091,
                "pitch": 45,
                "velocity": 101,
                "duration": 0.0840909,
                "tempo": 120.0
            },
            {
                "start_time": 19.8068182,
                "end_time": 19.8909091,
                "pitch": 57,
                "velocity": 101,
                "duration": 0.0840909,
                "tempo": 120.0
            },
            {
                "start_time": 19.9090909,
                "end_time": 20.0909091,
                "pitch": 45,
                "velocity": 127,
                "duration": 0.1818182,
                "tempo": 120.0
            },
            {
                "start_time": 20.1090909,
                "end_time": 20.1909091,
                "pitch": 45,
                "velocity": 101,
                "duration": 0.0818182,
                "tempo": 120.0
            },
            {
                "start_time": 20.2090909,
                "end_time": 20.2909091,
                "pitch": 57,
                "velocity": 101,
                "duration": 0.0818182,
                "tempo": 120.0
            },
            {
                "start_time": 20.3090909,
                "end_time": 20.4909091,
                "pitch": 45,
                "velocity": 127,
                "duration": 0.1818182,
                "tempo": 120.0
            },
            {
                "start_time": 20.5090909,
                "end_time": 20.5909091,
                "pitch": 45,
                "velocity": 101,
                "duration": 0.0818182,
                "tempo": 120.0
            },
            {
                "start_time": 20.6090909,
                "end_time": 20.6909091,
                "pitch": 57,
                "velocity": 101,
                "duration": 0.0818182,
                "tempo": 120.0
            },
            {
                "start_time": 20.7090909,
                "end_time": 20.8931818,
                "pitch": 45,
                "velocity": 127,
                "duration": 0.1840909,
                "tempo": 120.0
            },
            {
                "start_time": 20.9113636,
                "end_time": 20.9931818,
                "pitch": 45,
                "velocity": 101,
                "duration": 0.0818182,
                "tempo": 120.0
            },
            {
                "start_time": 21.0113636,
                "end_time": 21.0954545,
                "pitch": 57,
                "velocity": 101,
                "duration": 0.0840909,
                "tempo": 120.0
            },
            {
                "start_time": 21.1136364,
                "end_time": 21.2954545,
                "pitch": 43,
                "velocity": 127,
                "duration": 0.1818182,
                "tempo": 120.0
            },
            {
                "start_time": 21.3136364,
                "end_time": 21.3954545,
                "pitch": 43,
                "velocity": 101,
                "duration": 0.0818182,
                "tempo": 120.0
            },
            {
                "start_time": 21.4136364,
                "end_time": 21.4954545,
                "pitch": 55,
                "velocity": 101,
                "duration": 0.0818182,
                "tempo": 120.0
            },
            {
                "start_time": 21.5136364,
                "end_time": 21.6977273,
                "pitch": 43,
                "velocity": 127,
                "duration": 0.1840909,
                "tempo": 120.0
            },
            {
                "start_time": 21.7136364,
                "end_time": 21.7977273,
                "pitch": 43,
                "velocity": 101,
                "duration": 0.0840909,
                "tempo": 120.0
            },
            {
                "start_time": 21.8159091,
                "end_time": 21.8977273,
                "pitch": 55,
                "velocity": 101,
                "duration": 0.0818182,
                "tempo": 120.0
            },
            {
                "start_time": 21.9159091,
                "end_time": 22.1,
                "pitch": 43,
                "velocity": 127,
                "duration": 0.1840909,
                "tempo": 120.0
            },
            {
                "start_time": 22.1159091,
                "end_time": 22.2,
                "pitch": 43,
                "velocity": 101,
                "duration": 0.0840909,
                "tempo": 120.0
            },
            {
                "start_time": 22.2159091,
                "end_time": 22.3,
                "pitch": 55,
                "velocity": 101,
                "duration": 0.0840909,
                "tempo": 120.0
            },
            {
                "start_time": 22.3181818,
                "end_time": 22.5,
                "pitch": 43,
                "velocity": 127,
                "duration": 0.1818182,
                "tempo": 120.0
            },
            {
                "start_time": 22.5159091,
                "end_time": 22.6,
                "pitch": 43,
                "velocity": 101,
                "duration": 0.0840909,
                "tempo": 120.0
            },
            {
                "start_time": 22.6159091,
                "end_time": 22.7,
                "pitch": 55,
                "velocity": 101,
                "duration": 0.0840909,
                "tempo": 120.0
            },
            {
                "start_time": 22.7181818,
                "end_time": 22.9022727,
                "pitch": 47,
                "velocity": 127,
                "duration": 0.1840909,
                "tempo": 120.0
            },
            {
                "start_time": 22.9204545,
                "end_time": 23.0022727,
                "pitch": 47,
                "velocity": 101,
                "duration": 0.0818182,
                "tempo": 120.0
            },
            {
                "start_time": 23.0204545,
                "end_time": 23.1022727,
                "pitch": 59,
                "velocity": 101,
                "duration": 0.0818182,
                "tempo": 120.0
            },
            {
                "start_time": 23.1227273,
                "end_time": 23.3022727,
                "pitch": 47,
                "velocity": 127,
                "duration": 0.1795455,
                "tempo": 120.0
            },
            {
                "start_time": 23.3204545,
                "end_time": 23.4045455,
                "pitch": 47,
                "velocity": 101,
                "duration": 0.0840909,
                "tempo": 120.0
            },
            {
                "start_time": 23.4204545,
                "end_time": 23.5045455,
                "pitch": 59,
                "velocity": 101,
                "duration": 0.0840909,
                "tempo": 120.0
            },
            {
                "start_time": 23.5204545,
                "end_time": 23.7045455,
                "pitch": 47,
                "velocity": 127,
                "duration": 0.1840909,
                "tempo": 120.0
            },
            {
                "start_time": 23.7227273,
                "end_time": 23.8068182,
                "pitch": 47,
                "velocity": 101,
                "duration": 0.0840909,
                "tempo": 120.0
            },
            {
                "start_time": 23.8227273,
                "end_time": 23.9068182,
                "pitch": 59,
                "velocity": 101,
                "duration": 0.0840909,
                "tempo": 120.0
            },
            {
                "start_time": 23.925,
                "end_time": 24.1068182,
                "pitch": 47,
                "velocity": 127,
                "duration": 0.1818182,
                "tempo": 120.0
            },
            {
                "start_time": 24.125,
                "end_time": 24.2068182,
                "pitch": 47,
                "velocity": 101,
                "duration": 0.0818182,
                "tempo": 120.0
            },
            {
                "start_time": 24.225,
                "end_time": 24.3068182,
                "pitch": 59,
                "velocity": 101,
                "duration": 0.0818182,
                "tempo": 120.0
            },
            {
                "start_time": 24.325,
                "end_time": 24.5113636,
                "pitch": 45,
                "velocity": 127,
                "duration": 0.1863636,
                "tempo": 120.0
            },
            {
                "start_time": 24.5318182,
                "end_time": 24.6159091,
                "pitch": 45,
                "velocity": 101,
                "duration": 0.0840909,
                "tempo": 120.0
            },
            {
                "start_time": 24.6340909,
                "end_time": 24.7181818,
                "pitch": 57,
                "velocity": 101,
                "duration": 0.0840909,
                "tempo": 120.0
            },
            {
                "start_time": 24.7363636,
                "end_time": 24.9181818,
                "pitch": 45,
                "velocity": 127,
                "duration": 0.1818182,
                "tempo": 120.0
            },
            {
                "start_time": 24.9363636,
                "end_time": 25.0181818,
                "pitch": 45,
                "velocity": 101,
                "duration": 0.0818182,
                "tempo": 120.0
            },
            {
                "start_time": 25.0363636,
                "end_time": 25.1181818,
                "pitch": 57,
                "velocity": 101,
                "duration": 0.0818182,
                "tempo": 120.0
            },
            {
                "start_time": 25.1363636,
                "end_time": 25.3159091,
                "pitch": 45,
                "velocity": 127,
                "duration": 0.1795455,
                "tempo": 120.0
            },
            {
                "start_time": 25.3318182,
                "end_time": 25.4136364,
                "pitch": 45,
                "velocity": 101,
                "duration": 0.0818182,
                "tempo": 120.0
            },
            {
                "start_time": 25.4318182,
                "end_time": 25.5113636,
                "pitch": 57,
                "velocity": 101,
                "duration": 0.0795455,
                "tempo": 120.0
            },
            {
                "start_time": 25.5295455,
                "end_time": 25.7136364,
                "pitch": 45,
                "velocity": 127,
                "duration": 0.1840909,
                "tempo": 120.0
            },
            {
                "start_time": 25.7318182,
                "end_time": 25.8136364,
                "pitch": 45,
                "velocity": 101,
                "duration": 0.0818182,
                "tempo": 120.0
            },
            {
                "start_time": 25.8318182,
                "end_time": 25.9159091,
                "pitch": 57,
                "velocity": 101,
                "duration": 0.0840909,
                "tempo": 120.0
            },
            {
                "start_time": 25.9340909,
                "end_time": 26.0181818,
                "pitch": 45,
                "velocity": 127,
                "duration": 0.0840909,
                "tempo": 120.0
            },
            {
                "start_time": 26.0363636,
                "end_time": 26.1204545,
                "pitch": 45,
                "velocity": 101,
                "duration": 0.0840909,
                "tempo": 120.0
            },
            {
                "start_time": 26.1386364,
                "end_time": 26.2227273,
                "pitch": 57,
                "velocity": 101,
                "duration": 0.0840909,
                "tempo": 120.0
            },
            {
                "start_time": 26.2409091,
                "end_time": 26.325,
                "pitch": 45,
                "velocity": 101,
                "duration": 0.0840909,
                "tempo": 120.0
            },
            {
                "start_time": 26.3454545,
                "end_time": 26.4272727,
                "pitch": 45,
                "velocity": 127,
                "duration": 0.0818182,
                "tempo": 120.0
            },
            {
                "start_time": 26.4454545,
                "end_time": 26.5272727,
                "pitch": 45,
                "velocity": 101,
                "duration": 0.0818182,
                "tempo": 120.0
            },
            {
                "start_time": 26.5454545,
                "end_time": 26.6295455,
                "pitch": 57,
                "velocity": 101,
                "duration": 0.0840909,
                "tempo": 120.0
            },
            {
                "start_time": 26.6454545,
                "end_time": 26.7295455,
                "pitch": 45,
                "velocity": 101,
                "duration": 0.0840909,
                "tempo": 120.0
            },
            {
                "start_time": 26.7477273,
                "end_time": 26.8295455,
                "pitch": 45,
                "velocity": 127,
                "duration": 0.0818182,
                "tempo": 120.0
            },
            {
                "start_time": 26.8477273,
                "end_time": 26.9295455,
                "pitch": 45,
                "velocity": 101,
                "duration": 0.0818182,
                "tempo": 120.0
            },
            {
                "start_time": 26.9477273,
                "end_time": 27.0295455,
                "pitch": 57,
                "velocity": 101,
                "duration": 0.0818182,
                "tempo": 120.0
            },
            {
                "start_time": 27.0477273,
                "end_time": 27.1295455,
                "pitch": 45,
                "velocity": 101,
                "duration": 0.0818182,
                "tempo": 120.0
            },
            {
                "start_time": 27.1477273,
                "end_time": 27.2318182,
                "pitch": 45,
                "velocity": 127,
                "duration": 0.0840909,
                "tempo": 120.0
            },
            {
                "start_time": 27.2477273,
                "end_time": 27.3318182,
                "pitch": 45,
                "velocity": 101,
                "duration": 0.0840909,
                "tempo": 120.0
            },
            {
                "start_time": 27.35,
                "end_time": 27.4318182,
                "pitch": 57,
                "velocity": 101,
                "duration": 0.0818182,
                "tempo": 120.0
            },
            {
                "start_time": 27.45,
                "end_time": 27.5340909,
                "pitch": 45,
                "velocity": 101,
                "duration": 0.0840909,
                "tempo": 120.0
            },
            {
                "start_time": 27.5522727,
                "end_time": 27.6340909,
                "pitch": 43,
                "velocity": 127,
                "duration": 0.0818182,
                "tempo": 120.0
            },
            {
                "start_time": 27.65,
                "end_time": 27.7340909,
                "pitch": 43,
                "velocity": 101,
                "duration": 0.0840909,
                "tempo": 120.0
            },
            {
                "start_time": 27.7522727,
                "end_time": 27.8340909,
                "pitch": 55,
                "velocity": 101,
                "duration": 0.0818182,
                "tempo": 120.0
            },
            {
                "start_time": 27.8522727,
                "end_time": 27.9340909,
                "pitch": 43,
                "velocity": 101,
                "duration": 0.0818182,
                "tempo": 120.0
            },
            {
                "start_time": 27.9522727,
                "end_time": 28.0340909,
                "pitch": 43,
                "velocity": 127,
                "duration": 0.0818182,
                "tempo": 120.0
            },
            {
                "start_time": 28.0522727,
                "end_time": 28.1340909,
                "pitch": 43,
                "velocity": 101,
                "duration": 0.0818182,
                "tempo": 120.0
            },
            {
                "start_time": 28.1522727,
                "end_time": 28.2340909,
                "pitch": 55,
                "velocity": 101,
                "duration": 0.0818182,
                "tempo": 120.0
            },
            {
                "start_time": 28.2522727,
                "end_time": 28.3340909,
                "pitch": 43,
                "velocity": 101,
                "duration": 0.0818182,
                "tempo": 120.0
            },
            {
                "start_time": 28.3522727,
                "end_time": 28.4363636,
                "pitch": 43,
                "velocity": 127,
                "duration": 0.0840909,
                "tempo": 120.0
            },
            {
                "start_time": 28.4522727,
                "end_time": 28.5363636,
                "pitch": 43,
                "velocity": 101,
                "duration": 0.0840909,
                "tempo": 120.0
            },
            {
                "start_time": 28.5545455,
                "end_time": 28.6363636,
                "pitch": 55,
                "velocity": 101,
                "duration": 0.0818182,
                "tempo": 120.0
            },
            {
                "start_time": 28.6545455,
                "end_time": 28.7386364,
                "pitch": 43,
                "velocity": 101,
                "duration": 0.0840909,
                "tempo": 120.0
            },
            {
                "start_time": 28.7568182,
                "end_time": 28.8386364,
                "pitch": 43,
                "velocity": 127,
                "duration": 0.0818182,
                "tempo": 120.0
            },
            {
                "start_time": 28.8545455,
                "end_time": 28.9386364,
                "pitch": 43,
                "velocity": 101,
                "duration": 0.0840909,
                "tempo": 120.0
            },
            {
                "start_time": 28.9568182,
                "end_time": 29.0386364,
                "pitch": 55,
                "velocity": 101,
                "duration": 0.0818182,
                "tempo": 120.0
            },
            {
                "start_time": 29.0545455,
                "end_time": 29.1386364,
                "pitch": 43,
                "velocity": 101,
                "duration": 0.0840909,
                "tempo": 120.0
            },
            {
                "start_time": 29.1568182,
                "end_time": 29.2386364,
                "pitch": 47,
                "velocity": 127,
                "duration": 0.0818182,
                "tempo": 120.0
            },
            {
                "start_time": 29.2568182,
                "end_time": 29.3409091,
                "pitch": 47,
                "velocity": 101,
                "duration": 0.0840909,
                "tempo": 120.0
            },
            {
                "start_time": 29.3590909,
                "end_time": 29.4409091,
                "pitch": 59,
                "velocity": 101,
                "duration": 0.0818182,
                "tempo": 120.0
            },
            {
                "start_time": 29.4590909,
                "end_time": 29.5409091,
                "pitch": 47,
                "velocity": 101,
                "duration": 0.0818182,
                "tempo": 120.0
            },
            {
                "start_time": 29.5590909,
                "end_time": 29.6409091,
                "pitch": 47,
                "velocity": 127,
                "duration": 0.0818182,
                "tempo": 120.0
            },
            {
                "start_time": 29.6590909,
                "end_time": 29.7409091,
                "pitch": 47,
                "velocity": 101,
                "duration": 0.0818182,
                "tempo": 120.0
            },
            {
                "start_time": 29.7590909,
                "end_time": 29.8409091,
                "pitch": 59,
                "velocity": 101,
                "duration": 0.0818182,
                "tempo": 120.0
            },
            {
                "start_time": 29.8590909,
                "end_time": 29.9431818,
                "pitch": 47,
                "velocity": 101,
                "duration": 0.0840909,
                "tempo": 120.0
            },
            {
                "start_time": 29.9590909,
                "end_time": 30.0431818,
                "pitch": 47,
                "velocity": 127,
                "duration": 0.0840909,
                "tempo": 120.0
            },
            {
                "start_time": 30.0590909,
                "end_time": 30.1431818,
                "pitch": 47,
                "velocity": 101,
                "duration": 0.0840909,
                "tempo": 120.0
            },
            {
                "start_time": 30.1613636,
                "end_time": 30.2431818,
                "pitch": 59,
                "velocity": 101,
                "duration": 0.0818182,
                "tempo": 120.0
            },
            {
                "start_time": 30.2590909,
                "end_time": 30.3431818,
                "pitch": 47,
                "velocity": 101,
                "duration": 0.0840909,
                "tempo": 120.0
            },
            {
                "start_time": 30.3613636,
                "end_time": 30.4431818,
                "pitch": 47,
                "velocity": 127,
                "duration": 0.0818182,
                "tempo": 120.0
            },
            {
                "start_time": 30.4613636,
                "end_time": 30.5431818,
                "pitch": 47,
                "velocity": 101,
                "duration": 0.0818182,
                "tempo": 120.0
            },
            {
                "start_time": 30.5613636,
                "end_time": 30.6454545,
                "pitch": 59,
                "velocity": 101,
                "duration": 0.0840909,
                "tempo": 120.0
            },
            {
                "start_time": 30.6613636,
                "end_time": 30.7454545,
                "pitch": 47,
                "velocity": 101,
                "duration": 0.0840909,
                "tempo": 120.0
            },
            {
                "start_time": 30.7636364,
                "end_time": 30.8477273,
                "pitch": 45,
                "velocity": 127,
                "duration": 0.0840909,
                "tempo": 120.0
            },
            {
                "start_time": 30.8659091,
                "end_time": 30.95,
                "pitch": 45,
                "velocity": 101,
                "duration": 0.0840909,
                "tempo": 120.0
            },
            {
                "start_time": 30.9704545,
                "end_time": 31.0545455,
                "pitch": 57,
                "velocity": 101,
                "duration": 0.0840909,
                "tempo": 120.0
            },
            {
                "start_time": 31.0704545,
                "end_time": 31.1568182,
                "pitch": 45,
                "velocity": 101,
                "duration": 0.0863636,
                "tempo": 120.0
            },
            {
                "start_time": 31.175,
                "end_time": 31.2545455,
                "pitch": 45,
                "velocity": 127,
                "duration": 0.0795455,
                "tempo": 120.0
            },
            {
                "start_time": 31.2727273,
                "end_time": 31.3545455,
                "pitch": 45,
                "velocity": 101,
                "duration": 0.0818182,
                "tempo": 120.0
            },
            {
                "start_time": 31.3704545,
                "end_time": 31.4522727,
                "pitch": 57,
                "velocity": 101,
                "duration": 0.0818182,
                "tempo": 120.0
            },
            {
                "start_time": 31.4681818,
                "end_time": 31.55,
                "pitch": 45,
                "velocity": 101,
                "duration": 0.0818182,
                "tempo": 120.0
            },
            {
                "start_time": 31.5681818,
                "end_time": 31.65,
                "pitch": 45,
                "velocity": 127,
                "duration": 0.0818182,
                "tempo": 120.0
            },
            {
                "start_time": 31.6681818,
                "end_time": 31.75,
                "pitch": 45,
                "velocity": 101,
                "duration": 0.0818182,
                "tempo": 120.0
            },
            {
                "start_time": 31.7681818,
                "end_time": 31.85,
                "pitch": 57,
                "velocity": 101,
                "duration": 0.0818182,
                "tempo": 120.0
            },
            {
                "start_time": 31.8681818,
                "end_time": 31.95,
                "pitch": 45,
                "velocity": 101,
                "duration": 0.0818182,
                "tempo": 120.0
            },
            {
                "start_time": 31.9681818,
                "end_time": 32.05,
                "pitch": 45,
                "velocity": 127,
                "duration": 0.0818182,
                "tempo": 120.0
            },
            {
                "start_time": 32.0681818,
                "end_time": 32.15,
                "pitch": 45,
                "velocity": 101,
                "duration": 0.0818182,
                "tempo": 120.0
            },
            {
                "start_time": 32.1681818,
                "end_time": 32.25,
                "pitch": 57,
                "velocity": 101,
                "duration": 0.0818182,
                "tempo": 120.0
            },
            {
                "start_time": 32.2681818,
                "end_time": 32.35,
                "pitch": 45,
                "velocity": 101,
                "duration": 0.0818182,
                "tempo": 120.0
            },
            {
                "start_time": 32.3704545,
                "end_time": 32.4522727,
                "pitch": 45,
                "velocity": 127,
                "duration": 0.0818182,
                "tempo": 120.0
            },
            {
                "start_time": 32.4704545,
                "end_time": 32.5568182,
                "pitch": 45,
                "velocity": 101,
                "duration": 0.0863636,
                "tempo": 120.0
            },
            {
                "start_time": 32.575,
                "end_time": 32.6590909,
                "pitch": 57,
                "velocity": 101,
                "duration": 0.0840909,
                "tempo": 120.0
            },
            {
                "start_time": 32.6772727,
                "end_time": 32.7613636,
                "pitch": 45,
                "velocity": 101,
                "duration": 0.0840909,
                "tempo": 120.0
            },
            {
                "start_time": 32.7795455,
                "end_time": 32.8613636,
                "pitch": 45,
                "velocity": 127,
                "duration": 0.0818182,
                "tempo": 120.0
            },
            {
                "start_time": 32.8795455,
                "end_time": 32.9636364,
                "pitch": 45,
                "velocity": 101,
                "duration": 0.0840909,
                "tempo": 120.0
            },
            {
                "start_time": 32.9795455,
                "end_time": 33.0636364,
                "pitch": 57,
                "velocity": 101,
                "duration": 0.0840909,
                "tempo": 120.0
            },
            {
                "start_time": 33.0795455,
                "end_time": 33.1636364,
                "pitch": 45,
                "velocity": 101,
                "duration": 0.0840909,
                "tempo": 120.0
            },
            {
                "start_time": 33.1795455,
                "end_time": 33.2636364,
                "pitch": 45,
                "velocity": 127,
                "duration": 0.0840909,
                "tempo": 120.0
            },
            {
                "start_time": 33.2795455,
                "end_time": 33.3636364,
                "pitch": 45,
                "velocity": 101,
                "duration": 0.0840909,
                "tempo": 120.0
            },
            {
                "start_time": 33.3818182,
                "end_time": 33.4636364,
                "pitch": 57,
                "velocity": 101,
                "duration": 0.0818182,
                "tempo": 120.0
            },
            {
                "start_time": 33.4795455,
                "end_time": 33.5636364,
                "pitch": 45,
                "velocity": 101,
                "duration": 0.0840909,
                "tempo": 120.0
            },
            {
                "start_time": 33.5818182,
                "end_time": 33.6636364,
                "pitch": 45,
                "velocity": 127,
                "duration": 0.0818182,
                "tempo": 120.0
            },
            {
                "start_time": 33.6818182,
                "end_time": 33.7636364,
                "pitch": 45,
                "velocity": 101,
                "duration": 0.0818182,
                "tempo": 120.0
            },
            {
                "start_time": 33.7818182,
                "end_time": 33.8636364,
                "pitch": 57,
                "velocity": 101,
                "duration": 0.0818182,
                "tempo": 120.0
            },
            {
                "start_time": 33.8818182,
                "end_time": 33.9636364,
                "pitch": 45,
                "velocity": 101,
                "duration": 0.0818182,
                "tempo": 120.0
            },
            {
                "start_time": 33.9818182,
                "end_time": 34.0636364,
                "pitch": 43,
                "velocity": 127,
                "duration": 0.0818182,
                "tempo": 120.0
            },
            {
                "start_time": 34.0818182,
                "end_time": 34.1659091,
                "pitch": 43,
                "velocity": 101,
                "duration": 0.0840909,
                "tempo": 120.0
            },
            {
                "start_time": 34.1840909,
                "end_time": 34.2659091,
                "pitch": 55,
                "velocity": 101,
                "duration": 0.0818182,
                "tempo": 120.0
            },
            {
                "start_time": 34.2840909,
                "end_time": 34.3659091,
                "pitch": 43,
                "velocity": 101,
                "duration": 0.0818182,
                "tempo": 120.0
            },
            {
                "start_time": 34.3863636,
                "end_time": 34.4681818,
                "pitch": 43,
                "velocity": 127,
                "duration": 0.0818182,
                "tempo": 120.0
            },
            {
                "start_time": 34.4840909,
                "end_time": 34.5681818,
                "pitch": 43,
                "velocity": 101,
                "duration": 0.0840909,
                "tempo": 120.0
            },
            {
                "start_time": 34.5840909,
                "end_time": 34.6681818,
                "pitch": 55,
                "velocity": 101,
                "duration": 0.0840909,
                "tempo": 120.0
            },
            {
                "start_time": 34.6840909,
                "end_time": 34.7681818,
                "pitch": 43,
                "velocity": 101,
                "duration": 0.0840909,
                "tempo": 120.0
            },
            {
                "start_time": 34.7840909,
                "end_time": 34.8681818,
                "pitch": 43,
                "velocity": 127,
                "duration": 0.0840909,
                "tempo": 120.0
            },
            {
                "start_time": 34.8840909,
                "end_time": 34.9681818,
                "pitch": 43,
                "velocity": 101,
                "duration": 0.0840909,
                "tempo": 120.0
            },
            {
                "start_time": 34.9863636,
                "end_time": 35.0681818,
                "pitch": 55,
                "velocity": 101,
                "duration": 0.0818182,
                "tempo": 120.0
            },
            {
                "start_time": 35.0840909,
                "end_time": 35.1681818,
                "pitch": 43,
                "velocity": 101,
                "duration": 0.0840909,
                "tempo": 120.0
            },
            {
                "start_time": 35.1863636,
                "end_time": 35.2681818,
                "pitch": 43,
                "velocity": 127,
                "duration": 0.0818182,
                "tempo": 120.0
            },
            {
                "start_time": 35.2863636,
                "end_time": 35.3681818,
                "pitch": 43,
                "velocity": 101,
                "duration": 0.0818182,
                "tempo": 120.0
            },
            {
                "start_time": 35.3863636,
                "end_time": 35.4681818,
                "pitch": 55,
                "velocity": 101,
                "duration": 0.0818182,
                "tempo": 120.0
            },
            {
                "start_time": 35.4863636,
                "end_time": 35.5681818,
                "pitch": 43,
                "velocity": 101,
                "duration": 0.0818182,
                "tempo": 120.0
            },
            {
                "start_time": 35.5863636,
                "end_time": 35.6681818,
                "pitch": 47,
                "velocity": 127,
                "duration": 0.0818182,
                "tempo": 120.0
            },
            {
                "start_time": 35.6863636,
                "end_time": 35.7681818,
                "pitch": 47,
                "velocity": 101,
                "duration": 0.0818182,
                "tempo": 120.0
            },
            {
                "start_time": 35.7863636,
                "end_time": 35.8681818,
                "pitch": 59,
                "velocity": 101,
                "duration": 0.0818182,
                "tempo": 120.0
            },
            {
                "start_time": 35.8863636,
                "end_time": 35.9681818,
                "pitch": 47,
                "velocity": 101,
                "duration": 0.0818182,
                "tempo": 120.0
            },
            {
                "start_time": 35.9886364,
                "end_time": 36.0704545,
                "pitch": 47,
                "velocity": 127,
                "duration": 0.0818182,
                "tempo": 120.0
            },
            {
                "start_time": 36.0863636,
                "end_time": 36.1704545,
                "pitch": 47,
                "velocity": 101,
                "duration": 0.0840909,
                "tempo": 120.0
            },
            {
                "start_time": 36.1886364,
                "end_time": 36.2704545,
                "pitch": 59,
                "velocity": 101,
                "duration": 0.0818182,
                "tempo": 120.0
            },
            {
                "start_time": 36.2886364,
                "end_time": 36.3727273,
                "pitch": 47,
                "velocity": 101,
                "duration": 0.0840909,
                "tempo": 120.0
            },
            {
                "start_time": 36.3909091,
                "end_time": 36.4727273,
                "pitch": 47,
                "velocity": 127,
                "duration": 0.0818182,
                "tempo": 120.0
            },
            {
                "start_time": 36.4886364,
                "end_time": 36.5727273,
                "pitch": 47,
                "velocity": 101,
                "duration": 0.0840909,
                "tempo": 120.0
            },
            {
                "start_time": 36.5909091,
                "end_time": 36.6727273,
                "pitch": 59,
                "velocity": 101,
                "duration": 0.0818182,
                "tempo": 120.0
            },
            {
                "start_time": 36.6909091,
                "end_time": 36.7727273,
                "pitch": 47,
                "velocity": 101,
                "duration": 0.0818182,
                "tempo": 120.0
            },
            {
                "start_time": 36.7909091,
                "end_time": 36.8727273,
                "pitch": 47,
                "velocity": 127,
                "duration": 0.0818182,
                "tempo": 120.0
            },
            {
                "start_time": 36.8909091,
                "end_time": 36.9727273,
                "pitch": 47,
                "velocity": 101,
                "duration": 0.0818182,
                "tempo": 120.0
            },
            {
                "start_time": 36.9909091,
                "end_time": 37.0727273,
                "pitch": 59,
                "velocity": 101,
                "duration": 0.0818182,
                "tempo": 120.0
            },
            {
                "start_time": 37.0909091,
                "end_time": 37.1727273,
                "pitch": 47,
                "velocity": 101,
                "duration": 0.0818182,
                "tempo": 120.0
            },
            {
                "start_time": 37.1909091,
                "end_time": 37.2727273,
                "pitch": 45,
                "velocity": 127,
                "duration": 0.0818182,
                "tempo": 120.0
            },
            {
                "start_time": 37.2909091,
                "end_time": 37.3727273,
                "pitch": 45,
                "velocity": 101,
                "duration": 0.0818182,
                "tempo": 120.0
            },
            {
                "start_time": 37.3909091,
                "end_time": 37.4727273,
                "pitch": 57,
                "velocity": 101,
                "duration": 0.0818182,
                "tempo": 120.0
            },
            {
                "start_time": 37.4909091,
                "end_time": 37.5727273,
                "pitch": 45,
                "velocity": 101,
                "duration": 0.0818182,
                "tempo": 120.0
            },
            {
                "start_time": 37.5931818,
                "end_time": 37.675,
                "pitch": 45,
                "velocity": 127,
                "duration": 0.0818182,
                "tempo": 120.0
            },
            {
                "start_time": 37.6909091,
                "end_time": 37.775,
                "pitch": 45,
                "velocity": 101,
                "duration": 0.0840909,
                "tempo": 120.0
            },
            {
                "start_time": 37.7909091,
                "end_time": 37.875,
                "pitch": 57,
                "velocity": 101,
                "duration": 0.0840909,
                "tempo": 120.0
            },
            {
                "start_time": 37.8909091,
                "end_time": 37.975,
                "pitch": 45,
                "velocity": 101,
                "duration": 0.0840909,
                "tempo": 120.0
            },
            {
                "start_time": 37.9909091,
                "end_time": 38.075,
                "pitch": 45,
                "velocity": 127,
                "duration": 0.0840909,
                "tempo": 120.0
            },
            {
                "start_time": 38.0931818,
                "end_time": 38.175,
                "pitch": 45,
                "velocity": 101,
                "duration": 0.0818182,
                "tempo": 120.0
            },
            {
                "start_time": 38.1931818,
                "end_time": 38.2772727,
                "pitch": 57,
                "velocity": 101,
                "duration": 0.0840909,
                "tempo": 120.0
            },
            {
                "start_time": 38.2931818,
                "end_time": 38.3772727,
                "pitch": 45,
                "velocity": 101,
                "duration": 0.0840909,
                "tempo": 120.0
            },
            {
                "start_time": 38.3954545,
                "end_time": 38.4772727,
                "pitch": 45,
                "velocity": 127,
                "duration": 0.0818182,
                "tempo": 120.0
            },
            {
                "start_time": 38.4954545,
                "end_time": 38.5772727,
                "pitch": 45,
                "velocity": 101,
                "duration": 0.0818182,
                "tempo": 120.0
            },
            {
                "start_time": 38.5954545,
                "end_time": 38.6772727,
                "pitch": 57,
                "velocity": 101,
                "duration": 0.0818182,
                "tempo": 120.0
            },
            {
                "start_time": 38.6954545,
                "end_time": 38.7772727,
                "pitch": 45,
                "velocity": 101,
                "duration": 0.0818182,
                "tempo": 120.0
            },
            {
                "start_time": 38.8,
                "end_time": 38.8795455,
                "pitch": 45,
                "velocity": 127,
                "duration": 0.0795455,
                "tempo": 120.0
            },
            {
                "start_time": 38.8977273,
                "end_time": 38.9840909,
                "pitch": 48,
                "velocity": 101,
                "duration": 0.0863636,
                "tempo": 120.0
            },
            {
                "start_time": 39.0022727,
                "end_time": 39.0863636,
                "pitch": 47,
                "velocity": 101,
                "duration": 0.0840909,
                "tempo": 120.0
            },
            {
                "start_time": 39.1045455,
                "end_time": 39.1886364,
                "pitch": 48,
                "velocity": 101,
                "duration": 0.0840909,
                "tempo": 120.0
            },
            {
                "start_time": 39.2090909,
                "end_time": 39.2886364,
                "pitch": 45,
                "velocity": 127,
                "duration": 0.0795455,
                "tempo": 120.0
            },
            {
                "start_time": 39.3045455,
                "end_time": 39.3863636,
                "pitch": 48,
                "velocity": 101,
                "duration": 0.0818182,
                "tempo": 120.0
            },
            {
                "start_time": 39.4022727,
                "end_time": 39.4840909,
                "pitch": 47,
                "velocity": 101,
                "duration": 0.0818182,
                "tempo": 120.0
            },
            {
                "start_time": 39.5,
                "end_time": 39.5818182,
                "pitch": 48,
                "velocity": 101,
                "duration": 0.0818182,
                "tempo": 120.0
            },
            {
                "start_time": 39.6,
                "end_time": 39.6818182,
                "pitch": 45,
                "velocity": 127,
                "duration": 0.0818182,
                "tempo": 120.0
            },
            {
                "start_time": 39.7,
                "end_time": 39.7818182,
                "pitch": 48,
                "velocity": 101,
                "duration": 0.0818182,
                "tempo": 120.0
            },
            {
                "start_time": 39.8,
                "end_time": 39.8818182,
                "pitch": 47,
                "velocity": 101,
                "duration": 0.0818182,
                "tempo": 120.0
            },
            {
                "start_time": 39.9,
                "end_time": 39.9818182,
                "pitch": 48,
                "velocity": 101,
                "duration": 0.0818182,
                "tempo": 120.0
            },
            {
                "start_time": 40.0022727,
                "end_time": 40.0840909,
                "pitch": 45,
                "velocity": 127,
                "duration": 0.0818182,
                "tempo": 120.0
            },
            {
                "start_time": 40.1,
                "end_time": 40.1840909,
                "pitch": 48,
                "velocity": 101,
                "duration": 0.0840909,
                "tempo": 120.0
            },
            {
                "start_time": 40.2022727,
                "end_time": 40.2840909,
                "pitch": 47,
                "velocity": 101,
                "duration": 0.0818182,
                "tempo": 120.0
            },
            {
                "start_time": 40.3022727,
                "end_time": 40.3863636,
                "pitch": 48,
                "velocity": 101,
                "duration": 0.0840909,
                "tempo": 120.0
            },
            {
                "start_time": 40.4045455,
                "end_time": 40.4886364,
                "pitch": 43,
                "velocity": 127,
                "duration": 0.0840909,
                "tempo": 120.0
            },
            {
                "start_time": 40.5068182,
                "end_time": 40.5909091,
                "pitch": 47,
                "velocity": 101,
                "duration": 0.0840909,
                "tempo": 120.0
            },
            {
                "start_time": 40.6090909,
                "end_time": 40.6931818,
                "pitch": 45,
                "velocity": 101,
                "duration": 0.0840909,
                "tempo": 120.0
            },
            {
                "start_time": 40.7113636,
                "end_time": 40.7954545,
                "pitch": 47,
                "velocity": 101,
                "duration": 0.0840909,
                "tempo": 120.0
            },
            {
                "start_time": 40.8159091,
                "end_time": 40.8954545,
                "pitch": 43,
                "velocity": 127,
                "duration": 0.0795455,
                "tempo": 120.0
            },
            {
                "start_time": 40.9113636,
                "end_time": 40.9931818,
                "pitch": 47,
                "velocity": 101,
                "duration": 0.0818182,
                "tempo": 120.0
            },
            {
                "start_time": 41.0113636,
                "end_time": 41.0909091,
                "pitch": 45,
                "velocity": 101,
                "duration": 0.0795455,
                "tempo": 120.0
            },
            {
                "start_time": 41.1090909,
                "end_time": 41.1909091,
                "pitch": 47,
                "velocity": 101,
                "duration": 0.0818182,
                "tempo": 120.0
            },
            {
                "start_time": 41.2068182,
                "end_time": 41.2909091,
                "pitch": 43,
                "velocity": 127,
                "duration": 0.0840909,
                "tempo": 120.0
            },
            {
                "start_time": 41.3090909,
                "end_time": 41.3954545,
                "pitch": 47,
                "velocity": 101,
                "duration": 0.0863636,
                "tempo": 120.0
            },
            {
                "start_time": 41.4136364,
                "end_time": 41.4977273,
                "pitch": 45,
                "velocity": 101,
                "duration": 0.0840909,
                "tempo": 120.0
            },
            {
                "start_time": 41.5159091,
                "end_time": 41.6,
                "pitch": 47,
                "velocity": 101,
                "duration": 0.0840909,
                "tempo": 120.0
            },
            {
                "start_time": 41.6204545,
                "end_time": 41.7022727,
                "pitch": 43,
                "velocity": 127,
                "duration": 0.0818182,
                "tempo": 120.0
            },
            {
                "start_time": 41.7181818,
                "end_time": 41.8022727,
                "pitch": 47,
                "velocity": 101,
                "duration": 0.0840909,
                "tempo": 120.0
            },
            {
                "start_time": 41.8204545,
                "end_time": 41.9022727,
                "pitch": 45,
                "velocity": 101,
                "duration": 0.0818182,
                "tempo": 120.0
            },
            {
                "start_time": 41.9204545,
                "end_time": 42.0045455,
                "pitch": 47,
                "velocity": 101,
                "duration": 0.0840909,
                "tempo": 120.0
            },
            {
                "start_time": 42.0227273,
                "end_time": 42.1045455,
                "pitch": 47,
                "velocity": 127,
                "duration": 0.0818182,
                "tempo": 120.0
            },
            {
                "start_time": 42.1227273,
                "end_time": 42.2045455,
                "pitch": 50,
                "velocity": 101,
                "duration": 0.0818182,
                "tempo": 120.0
            },
            {
                "start_time": 42.2227273,
                "end_time": 42.3045455,
                "pitch": 48,
                "velocity": 101,
                "duration": 0.0818182,
                "tempo": 120.0
            },
            {
                "start_time": 42.3227273,
                "end_time": 42.4045455,
                "pitch": 50,
                "velocity": 101,
                "duration": 0.0818182,
                "tempo": 120.0
            },
            {
                "start_time": 42.4227273,
                "end_time": 42.5045455,
                "pitch": 47,
                "velocity": 127,
                "duration": 0.0818182,
                "tempo": 120.0
            },
            {
                "start_time": 42.5227273,
                "end_time": 42.6045455,
                "pitch": 50,
                "velocity": 101,
                "duration": 0.0818182,
                "tempo": 120.0
            },
            {
                "start_time": 42.6227273,
                "end_time": 42.7045455,
                "pitch": 48,
                "velocity": 101,
                "duration": 0.0818182,
                "tempo": 120.0
            },
            {
                "start_time": 42.7227273,
                "end_time": 42.8045455,
                "pitch": 50,
                "velocity": 101,
                "duration": 0.0818182,
                "tempo": 120.0
            },
            {
                "start_time": 42.8227273,
                "end_time": 42.9045455,
                "pitch": 47,
                "velocity": 127,
                "duration": 0.0818182,
                "tempo": 120.0
            },
            {
                "start_time": 42.9227273,
                "end_time": 43.0045455,
                "pitch": 50,
                "velocity": 101,
                "duration": 0.0818182,
                "tempo": 120.0
            },
            {
                "start_time": 43.0227273,
                "end_time": 43.1045455,
                "pitch": 48,
                "velocity": 101,
                "duration": 0.0818182,
                "tempo": 120.0
            },
            {
                "start_time": 43.1227273,
                "end_time": 43.2045455,
                "pitch": 50,
                "velocity": 101,
                "duration": 0.0818182,
                "tempo": 120.0
            },
            {
                "start_time": 43.225,
                "end_time": 43.3068182,
                "pitch": 47,
                "velocity": 127,
                "duration": 0.0818182,
                "tempo": 120.0
            },
            {
                "start_time": 43.3227273,
                "end_time": 43.4068182,
                "pitch": 50,
                "velocity": 101,
                "duration": 0.0840909,
                "tempo": 120.0
            },
            {
                "start_time": 43.425,
                "end_time": 43.5068182,
                "pitch": 48,
                "velocity": 101,
                "duration": 0.0818182,
                "tempo": 120.0
            },
            {
                "start_time": 43.5227273,
                "end_time": 43.6068182,
                "pitch": 50,
                "velocity": 101,
                "duration": 0.0840909,
                "tempo": 120.0
            },
            {
                "start_time": 43.625,
                "end_time": 43.7068182,
                "pitch": 45,
                "velocity": 127,
                "duration": 0.0818182,
                "tempo": 120.0
            },
            {
                "start_time": 43.725,
                "end_time": 43.8068182,
                "pitch": 48,
                "velocity": 101,
                "duration": 0.0818182,
                "tempo": 120.0
            },
            {
                "start_time": 43.825,
                "end_time": 43.9090909,
                "pitch": 47,
                "velocity": 101,
                "duration": 0.0840909,
                "tempo": 120.0
            },
            {
                "start_time": 43.925,
                "end_time": 44.0090909,
                "pitch": 48,
                "velocity": 101,
                "duration": 0.0840909,
                "tempo": 120.0
            },
            {
                "start_time": 44.0272727,
                "end_time": 44.1090909,
                "pitch": 45,
                "velocity": 127,
                "duration": 0.0818182,
                "tempo": 120.0
            },
            {
                "start_time": 44.1272727,
                "end_time": 44.2090909,
                "pitch": 48,
                "velocity": 101,
                "duration": 0.0818182,
                "tempo": 120.0
            },
            {
                "start_time": 44.2272727,
                "end_time": 44.3090909,
                "pitch": 47,
                "velocity": 101,
                "duration": 0.0818182,
                "tempo": 120.0
            },
            {
                "start_time": 44.3272727,
                "end_time": 44.4090909,
                "pitch": 48,
                "velocity": 101,
                "duration": 0.0818182,
                "tempo": 120.0
            },
            {
                "start_time": 44.4272727,
                "end_time": 44.5090909,
                "pitch": 45,
                "velocity": 127,
                "duration": 0.0818182,
                "tempo": 120.0
            },
            {
                "start_time": 44.5272727,
                "end_time": 44.6090909,
                "pitch": 48,
                "velocity": 101,
                "duration": 0.0818182,
                "tempo": 120.0
            },
            {
                "start_time": 44.6272727,
                "end_time": 44.7090909,
                "pitch": 47,
                "velocity": 101,
                "duration": 0.0818182,
                "tempo": 120.0
            },
            {
                "start_time": 44.7272727,
                "end_time": 44.8113636,
                "pitch": 48,
                "velocity": 101,
                "duration": 0.0840909,
                "tempo": 120.0
            },
            {
                "start_time": 44.8295455,
                "end_time": 44.9113636,
                "pitch": 45,
                "velocity": 127,
                "duration": 0.0818182,
                "tempo": 120.0
            },
            {
                "start_time": 44.9272727,
                "end_time": 45.0113636,
                "pitch": 48,
                "velocity": 101,
                "duration": 0.0840909,
                "tempo": 120.0
            },
            {
                "start_time": 45.0272727,
                "end_time": 45.1113636,
                "pitch": 47,
                "velocity": 101,
                "duration": 0.0840909,
                "tempo": 120.0
            },
            {
                "start_time": 45.1272727,
                "end_time": 45.2113636,
                "pitch": 48,
                "velocity": 101,
                "duration": 0.0840909,
                "tempo": 120.0
            },
            {
                "start_time": 45.2295455,
                "end_time": 45.3136364,
                "pitch": 45,
                "velocity": 127,
                "duration": 0.0840909,
                "tempo": 120.0
            },
            {
                "start_time": 45.3318182,
                "end_time": 45.4159091,
                "pitch": 48,
                "velocity": 101,
                "duration": 0.0840909,
                "tempo": 120.0
            },
            {
                "start_time": 45.4340909,
                "end_time": 45.5181818,
                "pitch": 47,
                "velocity": 101,
                "duration": 0.0840909,
                "tempo": 120.0
            },
            {
                "start_time": 45.5363636,
                "end_time": 45.6204545,
                "pitch": 48,
                "velocity": 101,
                "duration": 0.0840909,
                "tempo": 120.0
            },
            {
                "start_time": 45.6409091,
                "end_time": 45.7204545,
                "pitch": 45,
                "velocity": 127,
                "duration": 0.0795455,
                "tempo": 120.0
            },
            {
                "start_time": 45.7386364,
                "end_time": 45.8181818,
                "pitch": 48,
                "velocity": 101,
                "duration": 0.0795455,
                "tempo": 120.0
            },
            {
                "start_time": 45.8363636,
                "end_time": 45.9159091,
                "pitch": 47,
                "velocity": 101,
                "duration": 0.0795455,
                "tempo": 120.0
            },
            {
                "start_time": 45.9340909,
                "end_time": 46.0159091,
                "pitch": 48,
                "velocity": 101,
                "duration": 0.0818182,
                "tempo": 120.0
            },
            {
                "start_time": 46.0318182,
                "end_time": 46.1159091,
                "pitch": 45,
                "velocity": 127,
                "duration": 0.0840909,
                "tempo": 120.0
            },
            {
                "start_time": 46.1318182,
                "end_time": 46.2159091,
                "pitch": 48,
                "velocity": 101,
                "duration": 0.0840909,
                "tempo": 120.0
            },
            {
                "start_time": 46.2340909,
                "end_time": 46.3159091,
                "pitch": 47,
                "velocity": 101,
                "duration": 0.0818182,
                "tempo": 120.0
            },
            {
                "start_time": 46.3318182,
                "end_time": 46.4159091,
                "pitch": 48,
                "velocity": 101,
                "duration": 0.0840909,
                "tempo": 120.0
            },
            {
                "start_time": 46.4340909,
                "end_time": 46.5159091,
                "pitch": 45,
                "velocity": 127,
                "duration": 0.0818182,
                "tempo": 120.0
            },
            {
                "start_time": 46.5318182,
                "end_time": 46.6159091,
                "pitch": 48,
                "velocity": 101,
                "duration": 0.0840909,
                "tempo": 120.0
            },
            {
                "start_time": 46.6340909,
                "end_time": 46.7159091,
                "pitch": 47,
                "velocity": 101,
                "duration": 0.0818182,
                "tempo": 120.0
            },
            {
                "start_time": 46.7318182,
                "end_time": 46.8159091,
                "pitch": 48,
                "velocity": 101,
                "duration": 0.0840909,
                "tempo": 120.0
            },
            {
                "start_time": 46.8340909,
                "end_time": 46.9181818,
                "pitch": 43,
                "velocity": 127,
                "duration": 0.0840909,
                "tempo": 120.0
            },
            {
                "start_time": 46.9363636,
                "end_time": 47.0204545,
                "pitch": 47,
                "velocity": 101,
                "duration": 0.0840909,
                "tempo": 120.0
            },
            {
                "start_time": 47.0386364,
                "end_time": 47.1227273,
                "pitch": 45,
                "velocity": 101,
                "duration": 0.0840909,
                "tempo": 120.0
            },
            {
                "start_time": 47.1409091,
                "end_time": 47.2272727,
                "pitch": 47,
                "velocity": 101,
                "duration": 0.0863636,
                "tempo": 120.0
            },
            {
                "start_time": 47.2454545,
                "end_time": 47.325,
                "pitch": 43,
                "velocity": 127,
                "duration": 0.0795455,
                "tempo": 120.0
            },
            {
                "start_time": 47.3431818,
                "end_time": 47.4227273,
                "pitch": 47,
                "velocity": 101,
                "duration": 0.0795455,
                "tempo": 120.0
            },
            {
                "start_time": 47.4409091,
                "end_time": 47.5227273,
                "pitch": 45,
                "velocity": 101,
                "duration": 0.0818182,
                "tempo": 120.0
            },
            {
                "start_time": 47.5386364,
                "end_time": 47.6204545,
                "pitch": 47,
                "velocity": 101,
                "duration": 0.0818182,
                "tempo": 120.0
            },
            {
                "start_time": 47.6386364,
                "end_time": 47.7204545,
                "pitch": 43,
                "velocity": 127,
                "duration": 0.0818182,
                "tempo": 120.0
            },
            {
                "start_time": 47.7386364,
                "end_time": 47.8204545,
                "pitch": 47,
                "velocity": 101,
                "duration": 0.0818182,
                "tempo": 120.0
            },
            {
                "start_time": 47.8386364,
                "end_time": 47.9227273,
                "pitch": 45,
                "velocity": 101,
                "duration": 0.0840909,
                "tempo": 120.0
            },
            {
                "start_time": 47.9386364,
                "end_time": 48.0227273,
                "pitch": 47,
                "velocity": 101,
                "duration": 0.0840909,
                "tempo": 120.0
            },
            {
                "start_time": 48.0409091,
                "end_time": 48.1227273,
                "pitch": 43,
                "velocity": 127,
                "duration": 0.0818182,
                "tempo": 120.0
            },
            {
                "start_time": 48.1409091,
                "end_time": 48.2227273,
                "pitch": 47,
                "velocity": 101,
                "duration": 0.0818182,
                "tempo": 120.0
            },
            {
                "start_time": 48.2409091,
                "end_time": 48.3227273,
                "pitch": 45,
                "velocity": 101,
                "duration": 0.0818182,
                "tempo": 120.0
            },
            {
                "start_time": 48.3409091,
                "end_time": 48.4227273,
                "pitch": 47,
                "velocity": 101,
                "duration": 0.0818182,
                "tempo": 120.0
            },
            {
                "start_time": 48.4431818,
                "end_time": 48.525,
                "pitch": 47,
                "velocity": 127,
                "duration": 0.0818182,
                "tempo": 120.0
            },
            {
                "start_time": 48.5431818,
                "end_time": 48.6295455,
                "pitch": 50,
                "velocity": 101,
                "duration": 0.0863636,
                "tempo": 120.0
            },
            {
                "start_time": 48.6477273,
                "end_time": 48.7318182,
                "pitch": 48,
                "velocity": 101,
                "duration": 0.0840909,
                "tempo": 120.0
            },
            {
                "start_time": 48.75,
                "end_time": 48.8340909,
                "pitch": 50,
                "velocity": 101,
                "duration": 0.0840909,
                "tempo": 120.0
            },
            {
                "start_time": 48.8545455,
                "end_time": 48.9340909,
                "pitch": 47,
                "velocity": 127,
                "duration": 0.0795455,
                "tempo": 120.0
            },
            {
                "start_time": 48.9522727,
                "end_time": 49.0340909,
                "pitch": 50,
                "velocity": 101,
                "duration": 0.0818182,
                "tempo": 120.0
            },
            {
                "start_time": 49.0522727,
                "end_time": 49.1340909,
                "pitch": 48,
                "velocity": 101,
                "duration": 0.0818182,
                "tempo": 120.0
            },
            {
                "start_time": 49.1522727,
                "end_time": 49.2363636,
                "pitch": 50,
                "velocity": 101,
                "duration": 0.0840909,
                "tempo": 120.0
            },
            {
                "start_time": 49.2522727,
                "end_time": 49.3340909,
                "pitch": 47,
                "velocity": 127,
                "duration": 0.0818182,
                "tempo": 120.0
            },
            {
                "start_time": 49.35,
                "end_time": 49.4318182,
                "pitch": 50,
                "velocity": 101,
                "duration": 0.0818182,
                "tempo": 120.0
            },
            {
                "start_time": 49.45,
                "end_time": 49.5295455,
                "pitch": 48,
                "velocity": 101,
                "duration": 0.0795455,
                "tempo": 120.0
            },
            {
                "start_time": 49.5477273,
                "end_time": 49.6272727,
                "pitch": 50,
                "velocity": 101,
                "duration": 0.0795455,
                "tempo": 120.0
            },
            {
                "start_time": 49.6477273,
                "end_time": 49.7295455,
                "pitch": 47,
                "velocity": 127,
                "duration": 0.0818182,
                "tempo": 120.0
            },
            {
                "start_time": 49.7477273,
                "end_time": 49.8318182,
                "pitch": 50,
                "velocity": 101,
                "duration": 0.0840909,
                "tempo": 120.0
            },
            {
                "start_time": 49.8522727,
                "end_time": 49.9363636,
                "pitch": 48,
                "velocity": 101,
                "duration": 0.0840909,
                "tempo": 120.0
            },
            {
                "start_time": 49.9545455,
                "end_time": 50.0386364,
                "pitch": 50,
                "velocity": 101,
                "duration": 0.0840909,
                "tempo": 120.0
            },
            {
                "start_time": 50.0590909,
                "end_time": 50.1386364,
                "pitch": 45,
                "velocity": 127,
                "duration": 0.0795455,
                "tempo": 120.0
            },
            {
                "start_time": 50.1568182,
                "end_time": 50.2386364,
                "pitch": 48,
                "velocity": 101,
                "duration": 0.0818182,
                "tempo": 120.0
            },
            {
                "start_time": 50.2568182,
                "end_time": 50.3386364,
                "pitch": 47,
                "velocity": 101,
                "duration": 0.0818182,
                "tempo": 120.0
            },
            {
                "start_time": 50.3568182,
                "end_time": 50.4409091,
                "pitch": 48,
                "velocity": 101,
                "duration": 0.0840909,
                "tempo": 120.0
            },
            {
                "start_time": 50.4590909,
                "end_time": 50.5409091,
                "pitch": 45,
                "velocity": 127,
                "duration": 0.0818182,
                "tempo": 120.0
            },
            {
                "start_time": 50.5568182,
                "end_time": 50.6409091,
                "pitch": 48,
                "velocity": 101,
                "duration": 0.0840909,
                "tempo": 120.0
            },
            {
                "start_time": 50.6568182,
                "end_time": 50.7409091,
                "pitch": 47,
                "velocity": 101,
                "duration": 0.0840909,
                "tempo": 120.0
            },
            {
                "start_time": 50.7568182,
                "end_time": 50.8409091,
                "pitch": 48,
                "velocity": 101,
                "duration": 0.0840909,
                "tempo": 120.0
            },
            {
                "start_time": 50.8590909,
                "end_time": 50.9409091,
                "pitch": 45,
                "velocity": 127,
                "duration": 0.0818182,
                "tempo": 120.0
            },
            {
                "start_time": 50.9568182,
                "end_time": 51.0409091,
                "pitch": 48,
                "velocity": 101,
                "duration": 0.0840909,
                "tempo": 120.0
            },
            {
                "start_time": 51.0568182,
                "end_time": 51.1409091,
                "pitch": 47,
                "velocity": 101,
                "duration": 0.0840909,
                "tempo": 120.0
            },
            {
                "start_time": 51.1590909,
                "end_time": 51.2409091,
                "pitch": 48,
                "velocity": 101,
                "duration": 0.0818182,
                "tempo": 120.0
            },
            {
                "start_time": 51.2590909,
                "end_time": 51.3409091,
                "pitch": 45,
                "velocity": 127,
                "duration": 0.0818182,
                "tempo": 120.0
            },
            {
                "start_time": 51.3590909,
                "end_time": 51.4431818,
                "pitch": 48,
                "velocity": 101,
                "duration": 0.0840909,
                "tempo": 120.0
            },
            {
                "start_time": 51.4613636,
                "end_time": 51.5431818,
                "pitch": 47,
                "velocity": 101,
                "duration": 0.0818182,
                "tempo": 120.0
            },
            {
                "start_time": 51.5613636,
                "end_time": 51.6431818,
                "pitch": 48,
                "velocity": 101,
                "duration": 0.0818182,
                "tempo": 120.0
            },
            {
                "start_time": 51.6659091,
                "end_time": 51.85,
                "pitch": 45,
                "velocity": 127,
                "duration": 0.1840909,
                "tempo": 120.0
            },
            {
                "start_time": 51.8659091,
                "end_time": 51.9522727,
                "pitch": 45,
                "velocity": 101,
                "duration": 0.0863636,
                "tempo": 120.0
            },
            {
                "start_time": 51.9704545,
                "end_time": 52.0545455,
                "pitch": 57,
                "velocity": 101,
                "duration": 0.0840909,
                "tempo": 120.0
            },
            {
                "start_time": 52.0727273,
                "end_time": 52.2522727,
                "pitch": 45,
                "velocity": 127,
                "duration": 0.1795455,
                "tempo": 120.0
            },
            {
                "start_time": 52.2681818,
                "end_time": 52.35,
                "pitch": 45,
                "velocity": 101,
                "duration": 0.0818182,
                "tempo": 120.0
            },
            {
                "start_time": 52.3681818,
                "end_time": 52.4477273,
                "pitch": 57,
                "velocity": 101,
                "duration": 0.0795455,
                "tempo": 120.0
            },
            {
                "start_time": 52.4659091,
                "end_time": 52.6477273,
                "pitch": 45,
                "velocity": 127,
                "duration": 0.1818182,
                "tempo": 120.0
            },
            {
                "start_time": 52.6659091,
                "end_time": 52.7477273,
                "pitch": 45,
                "velocity": 101,
                "duration": 0.0818182,
                "tempo": 120.0
            },
            {
                "start_time": 52.7659091,
                "end_time": 52.8477273,
                "pitch": 57,
                "velocity": 101,
                "duration": 0.0818182,
                "tempo": 120.0
            },
            {
                "start_time": 52.8659091,
                "end_time": 53.0477273,
                "pitch": 45,
                "velocity": 127,
                "duration": 0.1818182,
                "tempo": 120.0
            },
            {
                "start_time": 53.0681818,
                "end_time": 53.15,
                "pitch": 45,
                "velocity": 101,
                "duration": 0.0818182,
                "tempo": 120.0
            },
            {
                "start_time": 53.1659091,
                "end_time": 53.25,
                "pitch": 57,
                "velocity": 101,
                "duration": 0.0840909,
                "tempo": 120.0
            },
            {
                "start_time": 53.2681818,
                "end_time": 53.4545455,
                "pitch": 43,
                "velocity": 127,
                "duration": 0.1863636,
                "tempo": 120.0
            },
            {
                "start_time": 53.4727273,
                "end_time": 53.5568182,
                "pitch": 43,
                "velocity": 101,
                "duration": 0.0840909,
                "tempo": 120.0
            },
            {
                "start_time": 53.575,
                "end_time": 53.6590909,
                "pitch": 55,
                "velocity": 101,
                "duration": 0.0840909,
                "tempo": 120.0
            },
            {
                "start_time": 53.6772727,
                "end_time": 53.8568182,
                "pitch": 43,
                "velocity": 127,
                "duration": 0.1795455,
                "tempo": 120.0
            },
            {
                "start_time": 53.875,
                "end_time": 53.9545455,
                "pitch": 43,
                "velocity": 101,
                "duration": 0.0795455,
                "tempo": 120.0
            },
            {
                "start_time": 53.9727273,
                "end_time": 54.0522727,
                "pitch": 55,
                "velocity": 101,
                "duration": 0.0795455,
                "tempo": 120.0
            },
            {
                "start_time": 54.0704545,
                "end_time": 54.2522727,
                "pitch": 43,
                "velocity": 127,
                "duration": 0.1818182,
                "tempo": 120.0
            },
            {
                "start_time": 54.2704545,
                "end_time": 54.3522727,
                "pitch": 43,
                "velocity": 101,
                "duration": 0.0818182,
                "tempo": 120.0
            },
            {
                "start_time": 54.3704545,
                "end_time": 54.4545455,
                "pitch": 55,
                "velocity": 101,
                "duration": 0.0840909,
                "tempo": 120.0
            },
            {
                "start_time": 54.4704545,
                "end_time": 54.6545455,
                "pitch": 43,
                "velocity": 127,
                "duration": 0.1840909,
                "tempo": 120.0
            },
            {
                "start_time": 54.6727273,
                "end_time": 54.7545455,
                "pitch": 43,
                "velocity": 101,
                "duration": 0.0818182,
                "tempo": 120.0
            },
            {
                "start_time": 54.7727273,
                "end_time": 54.8545455,
                "pitch": 55,
                "velocity": 101,
                "duration": 0.0818182,
                "tempo": 120.0
            },
            {
                "start_time": 54.8727273,
                "end_time": 55.0590909,
                "pitch": 47,
                "velocity": 127,
                "duration": 0.1863636,
                "tempo": 120.0
            },
            {
                "start_time": 55.0772727,
                "end_time": 55.1613636,
                "pitch": 47,
                "velocity": 101,
                "duration": 0.0840909,
                "tempo": 120.0
            },
            {
                "start_time": 55.1795455,
                "end_time": 55.2636364,
                "pitch": 59,
                "velocity": 101,
                "duration": 0.0840909,
                "tempo": 120.0
            },
            {
                "start_time": 55.2818182,
                "end_time": 55.4613636,
                "pitch": 47,
                "velocity": 127,
                "duration": 0.1795455,
                "tempo": 120.0
            },
            {
                "start_time": 55.4795455,
                "end_time": 55.5590909,
                "pitch": 47,
                "velocity": 101,
                "duration": 0.0795455,
                "tempo": 120.0
            },
            {
                "start_time": 55.5772727,
                "end_time": 55.6590909,
                "pitch": 59,
                "velocity": 101,
                "duration": 0.0818182,
                "tempo": 120.0
            },
            {
                "start_time": 55.675,
                "end_time": 55.8590909,
                "pitch": 47,
                "velocity": 127,
                "duration": 0.1840909,
                "tempo": 120.0
            },
            {
                "start_time": 55.875,
                "end_time": 55.9590909,
                "pitch": 47,
                "velocity": 101,
                "duration": 0.0840909,
                "tempo": 120.0
            },
            {
                "start_time": 55.975,
                "end_time": 56.0590909,
                "pitch": 59,
                "velocity": 101,
                "duration": 0.0840909,
                "tempo": 120.0
            },
            {
                "start_time": 56.075,
                "end_time": 56.2590909,
                "pitch": 47,
                "velocity": 127,
                "duration": 0.1840909,
                "tempo": 120.0
            },
            {
                "start_time": 56.2772727,
                "end_time": 56.3590909,
                "pitch": 47,
                "velocity": 101,
                "duration": 0.0818182,
                "tempo": 120.0
            },
            {
                "start_time": 56.3772727,
                "end_time": 56.4590909,
                "pitch": 59,
                "velocity": 101,
                "duration": 0.0818182,
                "tempo": 120.0
            },
            {
                "start_time": 56.4772727,
                "end_time": 56.6636364,
                "pitch": 45,
                "velocity": 127,
                "duration": 0.1863636,
                "tempo": 120.0
            },
            {
                "start_time": 56.6818182,
                "end_time": 56.7659091,
                "pitch": 45,
                "velocity": 101,
                "duration": 0.0840909,
                "tempo": 120.0
            },
            {
                "start_time": 56.7840909,
                "end_time": 56.8704545,
                "pitch": 57,
                "velocity": 101,
                "duration": 0.0863636,
                "tempo": 120.0
            },
            {
                "start_time": 56.8886364,
                "end_time": 57.0659091,
                "pitch": 45,
                "velocity": 127,
                "duration": 0.1772727,
                "tempo": 120.0
            },
            {
                "start_time": 57.0840909,
                "end_time": 57.1659091,
                "pitch": 45,
                "velocity": 101,
                "duration": 0.0818182,
                "tempo": 120.0
            },
            {
                "start_time": 57.1818182,
                "end_time": 57.2636364,
                "pitch": 57,
                "velocity": 101,
                "duration": 0.0818182,
                "tempo": 120.0
            },
            {
                "start_time": 57.2795455,
                "end_time": 57.4636364,
                "pitch": 45,
                "velocity": 127,
                "duration": 0.1840909,
                "tempo": 120.0
            },
            {
                "start_time": 57.4818182,
                "end_time": 57.5659091,
                "pitch": 45,
                "velocity": 101,
                "duration": 0.0840909,
                "tempo": 120.0
            },
            {
                "start_time": 57.5818182,
                "end_time": 57.6659091,
                "pitch": 57,
                "velocity": 101,
                "duration": 0.0840909,
                "tempo": 120.0
            },
            {
                "start_time": 57.6840909,
                "end_time": 57.8704545,
                "pitch": 45,
                "velocity": 127,
                "duration": 0.1863636,
                "tempo": 120.0
            },
            {
                "start_time": 57.8909091,
                "end_time": 57.975,
                "pitch": 45,
                "velocity": 101,
                "duration": 0.0840909,
                "tempo": 120.0
            },
            {
                "start_time": 57.9931818,
                "end_time": 58.0772727,
                "pitch": 57,
                "velocity": 101,
                "duration": 0.0840909,
                "tempo": 120.0
            },
            {
                "start_time": 58.0977273,
                "end_time": 58.2772727,
                "pitch": 45,
                "velocity": 127,
                "duration": 0.1795455,
                "tempo": 120.0
            },
            {
                "start_time": 58.2954545,
                "end_time": 58.3772727,
                "pitch": 45,
                "velocity": 101,
                "duration": 0.0818182,
                "tempo": 120.0
            },
            {
                "start_time": 58.3954545,
                "end_time": 58.4772727,
                "pitch": 57,
                "velocity": 101,
                "duration": 0.0818182,
                "tempo": 120.0
            },
            {
                "start_time": 58.4954545,
                "end_time": 58.6795455,
                "pitch": 45,
                "velocity": 127,
                "duration": 0.1840909,
                "tempo": 120.0
            },
            {
                "start_time": 58.6977273,
                "end_time": 58.7795455,
                "pitch": 45,
                "velocity": 101,
                "duration": 0.0818182,
                "tempo": 120.0
            },
            {
                "start_time": 58.7977273,
                "end_time": 58.8818182,
                "pitch": 57,
                "velocity": 101,
                "duration": 0.0840909,
                "tempo": 120.0
            },
            {
                "start_time": 58.9,
                "end_time": 59.0818182,
                "pitch": 45,
                "velocity": 127,
                "duration": 0.1818182,
                "tempo": 120.0
            },
            {
                "start_time": 59.0977273,
                "end_time": 59.1818182,
                "pitch": 45,
                "velocity": 101,
                "duration": 0.0840909,
                "tempo": 120.0
            },
            {
                "start_time": 59.2,
                "end_time": 59.2818182,
                "pitch": 57,
                "velocity": 101,
                "duration": 0.0818182,
                "tempo": 120.0
            },
            {
                "start_time": 59.3,
                "end_time": 59.4818182,
                "pitch": 45,
                "velocity": 127,
                "duration": 0.1818182,
                "tempo": 120.0
            },
            {
                "start_time": 59.5,
                "end_time": 59.5818182,
                "pitch": 45,
                "velocity": 101,
                "duration": 0.0818182,
                "tempo": 120.0
            },
            {
                "start_time": 59.6,
                "end_time": 59.6818182,
                "pitch": 57,
                "velocity": 101,
                "duration": 0.0818182,
                "tempo": 120.0
            },
            {
                "start_time": 59.7,
                "end_time": 59.8818182,
                "pitch": 43,
                "velocity": 127,
                "duration": 0.1818182,
                "tempo": 120.0
            },
            {
                "start_time": 59.9,
                "end_time": 59.9818182,
                "pitch": 43,
                "velocity": 101,
                "duration": 0.0818182,
                "tempo": 120.0
            },
            {
                "start_time": 60.0,
                "end_time": 60.0818182,
                "pitch": 55,
                "velocity": 101,
                "duration": 0.0818182,
                "tempo": 120.0
            },
            {
                "start_time": 60.1,
                "end_time": 60.2840909,
                "pitch": 43,
                "velocity": 127,
                "duration": 0.1840909,
                "tempo": 120.0
            },
            {
                "start_time": 60.3,
                "end_time": 60.3840909,
                "pitch": 43,
                "velocity": 101,
                "duration": 0.0840909,
                "tempo": 120.0
            },
            {
                "start_time": 60.4,
                "end_time": 60.4840909,
                "pitch": 55,
                "velocity": 101,
                "duration": 0.0840909,
                "tempo": 120.0
            },
            {
                "start_time": 60.5,
                "end_time": 60.6840909,
                "pitch": 43,
                "velocity": 127,
                "duration": 0.1840909,
                "tempo": 120.0
            },
            {
                "start_time": 60.7022727,
                "end_time": 60.7863636,
                "pitch": 43,
                "velocity": 101,
                "duration": 0.0840909,
                "tempo": 120.0
            },
            {
                "start_time": 60.8022727,
                "end_time": 60.8863636,
                "pitch": 55,
                "velocity": 101,
                "duration": 0.0840909,
                "tempo": 120.0
            },
            {
                "start_time": 60.9045455,
                "end_time": 61.0863636,
                "pitch": 43,
                "velocity": 127,
                "duration": 0.1818182,
                "tempo": 120.0
            },
            {
                "start_time": 61.1045455,
                "end_time": 61.1863636,
                "pitch": 43,
                "velocity": 101,
                "duration": 0.0818182,
                "tempo": 120.0
            },
            {
                "start_time": 61.2045455,
                "end_time": 61.2863636,
                "pitch": 55,
                "velocity": 101,
                "duration": 0.0818182,
                "tempo": 120.0
            },
            {
                "start_time": 61.3068182,
                "end_time": 61.4863636,
                "pitch": 47,
                "velocity": 127,
                "duration": 0.1795455,
                "tempo": 120.0
            },
            {
                "start_time": 61.5045455,
                "end_time": 61.5863636,
                "pitch": 47,
                "velocity": 101,
                "duration": 0.0818182,
                "tempo": 120.0
            },
            {
                "start_time": 61.6045455,
                "end_time": 61.6886364,
                "pitch": 59,
                "velocity": 101,
                "duration": 0.0840909,
                "tempo": 120.0
            },
            {
                "start_time": 61.7045455,
                "end_time": 61.8886364,
                "pitch": 47,
                "velocity": 127,
                "duration": 0.1840909,
                "tempo": 120.0
            },
            {
                "start_time": 61.9045455,
                "end_time": 61.9886364,
                "pitch": 47,
                "velocity": 101,
                "duration": 0.0840909,
                "tempo": 120.0
            },
            {
                "start_time": 62.0045455,
                "end_time": 62.0886364,
                "pitch": 59,
                "velocity": 101,
                "duration": 0.0840909,
                "tempo": 120.0
            },
            {
                "start_time": 62.1068182,
                "end_time": 62.2886364,
                "pitch": 47,
                "velocity": 127,
                "duration": 0.1818182,
                "tempo": 120.0
            },
            {
                "start_time": 62.3045455,
                "end_time": 62.3886364,
                "pitch": 47,
                "velocity": 101,
                "duration": 0.0840909,
                "tempo": 120.0
            },
            {
                "start_time": 62.4068182,
                "end_time": 62.4886364,
                "pitch": 59,
                "velocity": 101,
                "duration": 0.0818182,
                "tempo": 120.0
            },
            {
                "start_time": 62.5068182,
                "end_time": 62.6909091,
                "pitch": 47,
                "velocity": 127,
                "duration": 0.1840909,
                "tempo": 120.0
            },
            {
                "start_time": 62.7090909,
                "end_time": 62.7909091,
                "pitch": 47,
                "velocity": 101,
                "duration": 0.0818182,
                "tempo": 120.0
            },
            {
                "start_time": 62.8090909,
                "end_time": 62.8909091,
                "pitch": 59,
                "velocity": 101,
                "duration": 0.0818182,
                "tempo": 120.0
            },
            {
                "start_time": 62.9113636,
                "end_time": 63.0977273,
                "pitch": 45,
                "velocity": 127,
                "duration": 0.1863636,
                "tempo": 120.0
            },
            {
                "start_time": 63.1136364,
                "end_time": 63.2,
                "pitch": 45,
                "velocity": 101,
                "duration": 0.0863636,
                "tempo": 120.0
            },
            {
                "start_time": 63.2181818,
                "end_time": 63.3022727,
                "pitch": 57,
                "velocity": 101,
                "duration": 0.0840909,
                "tempo": 120.0
            },
            {
                "start_time": 63.3204545,
                "end_time": 63.5,
                "pitch": 45,
                "velocity": 127,
                "duration": 0.1795455,
                "tempo": 120.0
            },
            {
                "start_time": 63.5159091,
                "end_time": 63.5977273,
                "pitch": 45,
                "velocity": 101,
                "duration": 0.0818182,
                "tempo": 120.0
            },
            {
                "start_time": 63.6136364,
                "end_time": 63.6954545,
                "pitch": 57,
                "velocity": 101,
                "duration": 0.0818182,
                "tempo": 120.0
            },
            {
                "start_time": 63.7136364,
                "end_time": 63.8954545,
                "pitch": 45,
                "velocity": 127,
                "duration": 0.1818182,
                "tempo": 120.0
            },
            {
                "start_time": 63.9136364,
                "end_time": 63.9954545,
                "pitch": 45,
                "velocity": 101,
                "duration": 0.0818182,
                "tempo": 120.0
            },
            {
                "start_time": 64.0136364,
                "end_time": 64.0954545,
                "pitch": 57,
                "velocity": 101,
                "duration": 0.0818182,
                "tempo": 120.0
            },
            {
                "start_time": 64.1136364,
                "end_time": 64.2954545,
                "pitch": 45,
                "velocity": 127,
                "duration": 0.1818182,
                "tempo": 120.0
            },
            {
                "start_time": 64.3136364,
                "end_time": 64.3954545,
                "pitch": 45,
                "velocity": 101,
                "duration": 0.0818182,
                "tempo": 120.0
            },
            {
                "start_time": 64.4136364,
                "end_time": 64.4977273,
                "pitch": 57,
                "velocity": 101,
                "duration": 0.0840909,
                "tempo": 120.0
            },
            {
                "start_time": 64.5159091,
                "end_time": 64.5977273,
                "pitch": 45,
                "velocity": 127,
                "duration": 0.0818182,
                "tempo": 120.0
            },
            {
                "start_time": 64.6159091,
                "end_time": 64.7022727,
                "pitch": 45,
                "velocity": 101,
                "duration": 0.0863636,
                "tempo": 120.0
            },
            {
                "start_time": 64.7204545,
                "end_time": 64.8045455,
                "pitch": 57,
                "velocity": 101,
                "duration": 0.0840909,
                "tempo": 120.0
            },
            {
                "start_time": 64.8227273,
                "end_time": 64.9068182,
                "pitch": 45,
                "velocity": 101,
                "duration": 0.0840909,
                "tempo": 120.0
            },
            {
                "start_time": 64.9272727,
                "end_time": 65.0090909,
                "pitch": 45,
                "velocity": 127,
                "duration": 0.0818182,
                "tempo": 120.0
            },
            {
                "start_time": 65.0272727,
                "end_time": 65.1090909,
                "pitch": 45,
                "velocity": 101,
                "duration": 0.0818182,
                "tempo": 120.0
            },
            {
                "start_time": 65.1272727,
                "end_time": 65.2113636,
                "pitch": 57,
                "velocity": 101,
                "duration": 0.0840909,
                "tempo": 120.0
            },
            {
                "start_time": 65.2272727,
                "end_time": 65.3113636,
                "pitch": 45,
                "velocity": 101,
                "duration": 0.0840909,
                "tempo": 120.0
            },
            {
                "start_time": 65.3295455,
                "end_time": 65.4113636,
                "pitch": 45,
                "velocity": 127,
                "duration": 0.0818182,
                "tempo": 120.0
            },
            {
                "start_time": 65.4295455,
                "end_time": 65.5113636,
                "pitch": 45,
                "velocity": 101,
                "duration": 0.0818182,
                "tempo": 120.0
            },
            {
                "start_time": 65.5295455,
                "end_time": 65.6113636,
                "pitch": 57,
                "velocity": 101,
                "duration": 0.0818182,
                "tempo": 120.0
            },
            {
                "start_time": 65.6295455,
                "end_time": 65.7113636,
                "pitch": 45,
                "velocity": 101,
                "duration": 0.0818182,
                "tempo": 120.0
            },
            {
                "start_time": 65.7295455,
                "end_time": 65.8136364,
                "pitch": 45,
                "velocity": 127,
                "duration": 0.0840909,
                "tempo": 120.0
            },
            {
                "start_time": 65.8295455,
                "end_time": 65.9136364,
                "pitch": 45,
                "velocity": 101,
                "duration": 0.0840909,
                "tempo": 120.0
            },
            {
                "start_time": 65.9318182,
                "end_time": 66.0136364,
                "pitch": 57,
                "velocity": 101,
                "duration": 0.0818182,
                "tempo": 120.0
            },
            {
                "start_time": 66.0318182,
                "end_time": 66.1159091,
                "pitch": 45,
                "velocity": 101,
                "duration": 0.0840909,
                "tempo": 120.0
            },
            {
                "start_time": 66.1340909,
                "end_time": 66.2159091,
                "pitch": 43,
                "velocity": 127,
                "duration": 0.0818182,
                "tempo": 120.0
            },
            {
                "start_time": 66.2318182,
                "end_time": 66.3159091,
                "pitch": 43,
                "velocity": 101,
                "duration": 0.0840909,
                "tempo": 120.0
            },
            {
                "start_time": 66.3340909,
                "end_time": 66.4159091,
                "pitch": 55,
                "velocity": 101,
                "duration": 0.0818182,
                "tempo": 120.0
            },
            {
                "start_time": 66.4318182,
                "end_time": 66.5159091,
                "pitch": 43,
                "velocity": 101,
                "duration": 0.0840909,
                "tempo": 120.0
            },
            {
                "start_time": 66.5340909,
                "end_time": 66.6159091,
                "pitch": 43,
                "velocity": 127,
                "duration": 0.0818182,
                "tempo": 120.0
            },
            {
                "start_time": 66.6340909,
                "end_time": 66.7159091,
                "pitch": 43,
                "velocity": 101,
                "duration": 0.0818182,
                "tempo": 120.0
            },
            {
                "start_time": 66.7340909,
                "end_time": 66.8181818,
                "pitch": 55,
                "velocity": 101,
                "duration": 0.0840909,
                "tempo": 120.0
            },
            {
                "start_time": 66.8363636,
                "end_time": 66.9181818,
                "pitch": 43,
                "velocity": 101,
                "duration": 0.0818182,
                "tempo": 120.0
            },
            {
                "start_time": 66.9363636,
                "end_time": 67.0204545,
                "pitch": 43,
                "velocity": 127,
                "duration": 0.0840909,
                "tempo": 120.0
            },
            {
                "start_time": 67.0363636,
                "end_time": 67.1204545,
                "pitch": 43,
                "velocity": 101,
                "duration": 0.0840909,
                "tempo": 120.0
            },
            {
                "start_time": 67.1386364,
                "end_time": 67.2204545,
                "pitch": 55,
                "velocity": 101,
                "duration": 0.0818182,
                "tempo": 120.0
            },
            {
                "start_time": 67.2386364,
                "end_time": 67.3227273,
                "pitch": 43,
                "velocity": 101,
                "duration": 0.0840909,
                "tempo": 120.0
            },
            {
                "start_time": 67.3386364,
                "end_time": 67.4227273,
                "pitch": 43,
                "velocity": 127,
                "duration": 0.0840909,
                "tempo": 120.0
            },
            {
                "start_time": 67.4386364,
                "end_time": 67.5227273,
                "pitch": 43,
                "velocity": 101,
                "duration": 0.0840909,
                "tempo": 120.0
            },
            {
                "start_time": 67.5386364,
                "end_time": 67.6227273,
                "pitch": 55,
                "velocity": 101,
                "duration": 0.0840909,
                "tempo": 120.0
            },
            {
                "start_time": 67.6386364,
                "end_time": 67.7227273,
                "pitch": 43,
                "velocity": 101,
                "duration": 0.0840909,
                "tempo": 120.0
            },
            {
                "start_time": 67.7409091,
                "end_time": 67.8227273,
                "pitch": 47,
                "velocity": 127,
                "duration": 0.0818182,
                "tempo": 120.0
            },
            {
                "start_time": 67.8409091,
                "end_time": 67.925,
                "pitch": 47,
                "velocity": 101,
                "duration": 0.0840909,
                "tempo": 120.0
            },
            {
                "start_time": 67.9431818,
                "end_time": 68.025,
                "pitch": 59,
                "velocity": 101,
                "duration": 0.0818182,
                "tempo": 120.0
            },
            {
                "start_time": 68.0431818,
                "end_time": 68.125,
                "pitch": 47,
                "velocity": 101,
                "duration": 0.0818182,
                "tempo": 120.0
            },
            {
                "start_time": 68.1431818,
                "end_time": 68.225,
                "pitch": 47,
                "velocity": 127,
                "duration": 0.0818182,
                "tempo": 120.0
            },
            {
                "start_time": 68.2431818,
                "end_time": 68.325,
                "pitch": 47,
                "velocity": 101,
                "duration": 0.0818182,
                "tempo": 120.0
            },
            {
                "start_time": 68.3431818,
                "end_time": 68.425,
                "pitch": 59,
                "velocity": 101,
                "duration": 0.0818182,
                "tempo": 120.0
            },
            {
                "start_time": 68.4431818,
                "end_time": 68.5272727,
                "pitch": 47,
                "velocity": 101,
                "duration": 0.0840909,
                "tempo": 120.0
            },
            {
                "start_time": 68.5431818,
                "end_time": 68.6272727,
                "pitch": 47,
                "velocity": 127,
                "duration": 0.0840909,
                "tempo": 120.0
            },
            {
                "start_time": 68.6454545,
                "end_time": 68.7272727,
                "pitch": 47,
                "velocity": 101,
                "duration": 0.0818182,
                "tempo": 120.0
            },
            {
                "start_time": 68.7454545,
                "end_time": 68.8295455,
                "pitch": 59,
                "velocity": 101,
                "duration": 0.0840909,
                "tempo": 120.0
            },
            {
                "start_time": 68.8454545,
                "end_time": 68.9295455,
                "pitch": 47,
                "velocity": 101,
                "duration": 0.0840909,
                "tempo": 120.0
            },
            {
                "start_time": 68.9477273,
                "end_time": 69.0295455,
                "pitch": 47,
                "velocity": 127,
                "duration": 0.0818182,
                "tempo": 120.0
            },
            {
                "start_time": 69.0477273,
                "end_time": 69.1318182,
                "pitch": 47,
                "velocity": 101,
                "duration": 0.0840909,
                "tempo": 120.0
            },
            {
                "start_time": 69.1477273,
                "end_time": 69.2318182,
                "pitch": 59,
                "velocity": 101,
                "duration": 0.0840909,
                "tempo": 120.0
            },
            {
                "start_time": 69.25,
                "end_time": 69.3318182,
                "pitch": 47,
                "velocity": 101,
                "duration": 0.0818182,
                "tempo": 120.0
            },
            {
                "start_time": 69.35,
                "end_time": 69.4318182,
                "pitch": 45,
                "velocity": 127,
                "duration": 0.0818182,
                "tempo": 120.0
            },
            {
                "start_time": 69.45,
                "end_time": 69.5318182,
                "pitch": 45,
                "velocity": 101,
                "duration": 0.0818182,
                "tempo": 120.0
            },
            {
                "start_time": 69.55,
                "end_time": 69.6340909,
                "pitch": 57,
                "velocity": 101,
                "duration": 0.0840909,
                "tempo": 120.0
            },
            {
                "start_time": 69.65,
                "end_time": 69.7340909,
                "pitch": 45,
                "velocity": 101,
                "duration": 0.0840909,
                "tempo": 120.0
            },
            {
                "start_time": 69.7522727,
                "end_time": 69.8340909,
                "pitch": 45,
                "velocity": 127,
                "duration": 0.0818182,
                "tempo": 120.0
            },
            {
                "start_time": 69.8522727,
                "end_time": 69.9340909,
                "pitch": 45,
                "velocity": 101,
                "duration": 0.0818182,
                "tempo": 120.0
            },
            {
                "start_time": 69.9522727,
                "end_time": 70.0363636,
                "pitch": 57,
                "velocity": 101,
                "duration": 0.0840909,
                "tempo": 120.0
            },
            {
                "start_time": 70.0522727,
                "end_time": 70.1363636,
                "pitch": 45,
                "velocity": 101,
                "duration": 0.0840909,
                "tempo": 120.0
            },
            {
                "start_time": 70.1545455,
                "end_time": 70.2363636,
                "pitch": 45,
                "velocity": 127,
                "duration": 0.0818182,
                "tempo": 120.0
            },
            {
                "start_time": 70.2545455,
                "end_time": 70.3363636,
                "pitch": 45,
                "velocity": 101,
                "duration": 0.0818182,
                "tempo": 120.0
            },
            {
                "start_time": 70.3545455,
                "end_time": 70.4363636,
                "pitch": 57,
                "velocity": 101,
                "duration": 0.0818182,
                "tempo": 120.0
            },
            {
                "start_time": 70.4545455,
                "end_time": 70.5363636,
                "pitch": 45,
                "velocity": 101,
                "duration": 0.0818182,
                "tempo": 120.0
            },
            {
                "start_time": 70.5545455,
                "end_time": 70.6386364,
                "pitch": 45,
                "velocity": 127,
                "duration": 0.0840909,
                "tempo": 120.0
            },
            {
                "start_time": 70.6545455,
                "end_time": 70.7386364,
                "pitch": 45,
                "velocity": 101,
                "duration": 0.0840909,
                "tempo": 120.0
            },
            {
                "start_time": 70.7568182,
                "end_time": 70.8386364,
                "pitch": 57,
                "velocity": 101,
                "duration": 0.0818182,
                "tempo": 120.0
            },
            {
                "start_time": 70.8568182,
                "end_time": 70.9409091,
                "pitch": 45,
                "velocity": 101,
                "duration": 0.0840909,
                "tempo": 120.0
            },
            {
                "start_time": 70.9590909,
                "end_time": 71.0431818,
                "pitch": 45,
                "velocity": 127,
                "duration": 0.0840909,
                "tempo": 120.0
            },
            {
                "start_time": 71.0590909,
                "end_time": 71.1454545,
                "pitch": 45,
                "velocity": 101,
                "duration": 0.0863636,
                "tempo": 120.0
            },
            {
                "start_time": 71.1636364,
                "end_time": 71.2477273,
                "pitch": 57,
                "velocity": 101,
                "duration": 0.0840909,
                "tempo": 120.0
            },
            {
                "start_time": 71.2659091,
                "end_time": 71.35,
                "pitch": 45,
                "velocity": 101,
                "duration": 0.0840909,
                "tempo": 120.0
            },
            {
                "start_time": 71.3704545,
                "end_time": 71.45,
                "pitch": 45,
                "velocity": 127,
                "duration": 0.0795455,
                "tempo": 120.0
            },
            {
                "start_time": 71.4659091,
                "end_time": 71.5477273,
                "pitch": 45,
                "velocity": 101,
                "duration": 0.0818182,
                "tempo": 120.0
            },
            {
                "start_time": 71.5659091,
                "end_time": 71.6454545,
                "pitch": 57,
                "velocity": 101,
                "duration": 0.0795455,
                "tempo": 120.0
            },
            {
                "start_time": 71.6636364,
                "end_time": 71.7431818,
                "pitch": 45,
                "velocity": 101,
                "duration": 0.0795455,
                "tempo": 120.0
            },
            {
                "start_time": 71.7613636,
                "end_time": 71.8454545,
                "pitch": 45,
                "velocity": 127,
                "duration": 0.0840909,
                "tempo": 120.0
            },
            {
                "start_time": 71.8613636,
                "end_time": 71.9454545,
                "pitch": 45,
                "velocity": 101,
                "duration": 0.0840909,
                "tempo": 120.0
            },
            {
                "start_time": 71.9636364,
                "end_time": 72.0454545,
                "pitch": 57,
                "velocity": 101,
                "duration": 0.0818182,
                "tempo": 120.0
            },
            {
                "start_time": 72.0636364,
                "end_time": 72.1477273,
                "pitch": 45,
                "velocity": 101,
                "duration": 0.0840909,
                "tempo": 120.0
            },
            {
                "start_time": 72.1636364,
                "end_time": 72.2477273,
                "pitch": 45,
                "velocity": 127,
                "duration": 0.0840909,
                "tempo": 120.0
            },
            {
                "start_time": 72.2636364,
                "end_time": 72.3477273,
                "pitch": 45,
                "velocity": 101,
                "duration": 0.0840909,
                "tempo": 120.0
            },
            {
                "start_time": 72.3636364,
                "end_time": 72.4477273,
                "pitch": 57,
                "velocity": 101,
                "duration": 0.0840909,
                "tempo": 120.0
            },
            {
                "start_time": 72.4659091,
                "end_time": 72.5477273,
                "pitch": 45,
                "velocity": 101,
                "duration": 0.0818182,
                "tempo": 120.0
            },
            {
                "start_time": 72.5659091,
                "end_time": 72.65,
                "pitch": 43,
                "velocity": 127,
                "duration": 0.0840909,
                "tempo": 120.0
            },
            {
                "start_time": 72.6681818,
                "end_time": 72.7522727,
                "pitch": 43,
                "velocity": 101,
                "duration": 0.0840909,
                "tempo": 120.0
            },
            {
                "start_time": 72.7704545,
                "end_time": 72.8545455,
                "pitch": 55,
                "velocity": 101,
                "duration": 0.0840909,
                "tempo": 120.0
            },
            {
                "start_time": 72.8727273,
                "end_time": 72.9590909,
                "pitch": 43,
                "velocity": 101,
                "duration": 0.0863636,
                "tempo": 120.0
            },
            {
                "start_time": 72.9772727,
                "end_time": 73.0590909,
                "pitch": 43,
                "velocity": 127,
                "duration": 0.0818182,
                "tempo": 120.0
            },
            {
                "start_time": 73.0772727,
                "end_time": 73.1590909,
                "pitch": 43,
                "velocity": 101,
                "duration": 0.0818182,
                "tempo": 120.0
            },
            {
                "start_time": 73.1772727,
                "end_time": 73.2590909,
                "pitch": 55,
                "velocity": 101,
                "duration": 0.0818182,
                "tempo": 120.0
            },
            {
                "start_time": 73.2772727,
                "end_time": 73.3590909,
                "pitch": 43,
                "velocity": 101,
                "duration": 0.0818182,
                "tempo": 120.0
            },
            {
                "start_time": 73.3772727,
                "end_time": 73.4613636,
                "pitch": 43,
                "velocity": 127,
                "duration": 0.0840909,
                "tempo": 120.0
            },
            {
                "start_time": 73.4772727,
                "end_time": 73.5613636,
                "pitch": 43,
                "velocity": 101,
                "duration": 0.0840909,
                "tempo": 120.0
            },
            {
                "start_time": 73.5795455,
                "end_time": 73.6613636,
                "pitch": 55,
                "velocity": 101,
                "duration": 0.0818182,
                "tempo": 120.0
            },
            {
                "start_time": 73.6795455,
                "end_time": 73.7636364,
                "pitch": 43,
                "velocity": 101,
                "duration": 0.0840909,
                "tempo": 120.0
            },
            {
                "start_time": 73.7795455,
                "end_time": 73.8636364,
                "pitch": 43,
                "velocity": 127,
                "duration": 0.0840909,
                "tempo": 120.0
            },
            {
                "start_time": 73.8795455,
                "end_time": 73.9636364,
                "pitch": 43,
                "velocity": 101,
                "duration": 0.0840909,
                "tempo": 120.0
            },
            {
                "start_time": 73.9795455,
                "end_time": 74.0636364,
                "pitch": 55,
                "velocity": 101,
                "duration": 0.0840909,
                "tempo": 120.0
            },
            {
                "start_time": 74.0795455,
                "end_time": 74.1636364,
                "pitch": 43,
                "velocity": 101,
                "duration": 0.0840909,
                "tempo": 120.0
            },
            {
                "start_time": 74.1818182,
                "end_time": 74.2636364,
                "pitch": 47,
                "velocity": 127,
                "duration": 0.0818182,
                "tempo": 120.0
            },
            {
                "start_time": 74.2818182,
                "end_time": 74.3659091,
                "pitch": 47,
                "velocity": 101,
                "duration": 0.0840909,
                "tempo": 120.0
            },
            {
                "start_time": 74.3840909,
                "end_time": 74.4659091,
                "pitch": 59,
                "velocity": 101,
                "duration": 0.0818182,
                "tempo": 120.0
            },
            {
                "start_time": 74.4840909,
                "end_time": 74.5659091,
                "pitch": 47,
                "velocity": 101,
                "duration": 0.0818182,
                "tempo": 120.0
            },
            {
                "start_time": 74.5840909,
                "end_time": 74.6681818,
                "pitch": 47,
                "velocity": 127,
                "duration": 0.0840909,
                "tempo": 120.0
            },
            {
                "start_time": 74.6840909,
                "end_time": 74.7681818,
                "pitch": 47,
                "velocity": 101,
                "duration": 0.0840909,
                "tempo": 120.0
            },
            {
                "start_time": 74.7863636,
                "end_time": 74.8681818,
                "pitch": 59,
                "velocity": 101,
                "duration": 0.0818182,
                "tempo": 120.0
            },
            {
                "start_time": 74.8863636,
                "end_time": 74.9704545,
                "pitch": 47,
                "velocity": 101,
                "duration": 0.0840909,
                "tempo": 120.0
            },
            {
                "start_time": 74.9863636,
                "end_time": 75.0704545,
                "pitch": 47,
                "velocity": 127,
                "duration": 0.0840909,
                "tempo": 120.0
            },
            {
                "start_time": 75.0863636,
                "end_time": 75.1704545,
                "pitch": 47,
                "velocity": 101,
                "duration": 0.0840909,
                "tempo": 120.0
            },
            {
                "start_time": 75.1863636,
                "end_time": 75.2704545,
                "pitch": 59,
                "velocity": 101,
                "duration": 0.0840909,
                "tempo": 120.0
            },
            {
                "start_time": 75.2886364,
                "end_time": 75.3704545,
                "pitch": 47,
                "velocity": 101,
                "duration": 0.0818182,
                "tempo": 120.0
            },
            {
                "start_time": 75.3886364,
                "end_time": 75.4704545,
                "pitch": 47,
                "velocity": 127,
                "duration": 0.0818182,
                "tempo": 120.0
            },
            {
                "start_time": 75.4886364,
                "end_time": 75.5727273,
                "pitch": 47,
                "velocity": 101,
                "duration": 0.0840909,
                "tempo": 120.0
            },
            {
                "start_time": 75.5886364,
                "end_time": 75.6727273,
                "pitch": 59,
                "velocity": 101,
                "duration": 0.0840909,
                "tempo": 120.0
            },
            {
                "start_time": 75.6909091,
                "end_time": 75.7727273,
                "pitch": 47,
                "velocity": 101,
                "duration": 0.0818182,
                "tempo": 120.0
            },
            {
                "start_time": 75.7909091,
                "end_time": 75.8727273,
                "pitch": 45,
                "velocity": 127,
                "duration": 0.0818182,
                "tempo": 120.0
            },
            {
                "start_time": 75.8909091,
                "end_time": 75.9727273,
                "pitch": 45,
                "velocity": 101,
                "duration": 0.0818182,
                "tempo": 120.0
            },
            {
                "start_time": 75.9909091,
                "end_time": 76.075,
                "pitch": 57,
                "velocity": 101,
                "duration": 0.0840909,
                "tempo": 120.0
            },
            {
                "start_time": 76.0909091,
                "end_time": 76.175,
                "pitch": 45,
                "velocity": 101,
                "duration": 0.0840909,
                "tempo": 120.0
            },
            {
                "start_time": 76.1931818,
                "end_time": 76.275,
                "pitch": 45,
                "velocity": 127,
                "duration": 0.0818182,
                "tempo": 120.0
            },
            {
                "start_time": 76.2931818,
                "end_time": 76.375,
                "pitch": 45,
                "velocity": 101,
                "duration": 0.0818182,
                "tempo": 120.0
            },
            {
                "start_time": 76.3931818,
                "end_time": 76.4772727,
                "pitch": 57,
                "velocity": 101,
                "duration": 0.0840909,
                "tempo": 120.0
            },
            {
                "start_time": 76.4931818,
                "end_time": 76.5772727,
                "pitch": 45,
                "velocity": 101,
                "duration": 0.0840909,
                "tempo": 120.0
            },
            {
                "start_time": 76.5954545,
                "end_time": 76.6772727,
                "pitch": 45,
                "velocity": 127,
                "duration": 0.0818182,
                "tempo": 120.0
            },
            {
                "start_time": 76.6954545,
                "end_time": 76.7795455,
                "pitch": 45,
                "velocity": 101,
                "duration": 0.0840909,
                "tempo": 120.0
            },
            {
                "start_time": 76.7954545,
                "end_time": 76.8795455,
                "pitch": 57,
                "velocity": 101,
                "duration": 0.0840909,
                "tempo": 120.0
            },
            {
                "start_time": 76.8977273,
                "end_time": 76.9795455,
                "pitch": 45,
                "velocity": 101,
                "duration": 0.0818182,
                "tempo": 120.0
            },
            {
                "start_time": 76.9977273,
                "end_time": 77.0795455,
                "pitch": 45,
                "velocity": 127,
                "duration": 0.0818182,
                "tempo": 120.0
            },
            {
                "start_time": 77.0977273,
                "end_time": 77.1818182,
                "pitch": 45,
                "velocity": 101,
                "duration": 0.0840909,
                "tempo": 120.0
            },
            {
                "start_time": 77.1977273,
                "end_time": 77.2818182,
                "pitch": 57,
                "velocity": 101,
                "duration": 0.0840909,
                "tempo": 120.0
            },
            {
                "start_time": 77.2977273,
                "end_time": 77.3818182,
                "pitch": 45,
                "velocity": 101,
                "duration": 0.0840909,
                "tempo": 120.0
            },
            {
                "start_time": 77.4022727,
                "end_time": 77.4840909,
                "pitch": 45,
                "velocity": 127,
                "duration": 0.0818182,
                "tempo": 120.0
            },
            {
                "start_time": 77.5,
                "end_time": 77.5863636,
                "pitch": 48,
                "velocity": 101,
                "duration": 0.0863636,
                "tempo": 120.0
            },
            {
                "start_time": 77.6045455,
                "end_time": 77.6886364,
                "pitch": 47,
                "velocity": 101,
                "duration": 0.0840909,
                "tempo": 120.0
            },
            {
                "start_time": 77.7068182,
                "end_time": 77.7909091,
                "pitch": 48,
                "velocity": 101,
                "duration": 0.0840909,
                "tempo": 120.0
            },
            {
                "start_time": 77.8113636,
                "end_time": 77.8909091,
                "pitch": 45,
                "velocity": 127,
                "duration": 0.0795455,
                "tempo": 120.0
            },
            {
                "start_time": 77.9068182,
                "end_time": 77.9886364,
                "pitch": 48,
                "velocity": 101,
                "duration": 0.0818182,
                "tempo": 120.0
            },
            {
                "start_time": 78.0068182,
                "end_time": 78.0863636,
                "pitch": 47,
                "velocity": 101,
                "duration": 0.0795455,
                "tempo": 120.0
            },
            {
                "start_time": 78.1045455,
                "end_time": 78.1840909,
                "pitch": 48,
                "velocity": 101,
                "duration": 0.0795455,
                "tempo": 120.0
            },
            {
                "start_time": 78.2022727,
                "end_time": 78.2863636,
                "pitch": 45,
                "velocity": 127,
                "duration": 0.0840909,
                "tempo": 120.0
            },
            {
                "start_time": 78.3022727,
                "end_time": 78.3863636,
                "pitch": 48,
                "velocity": 101,
                "duration": 0.0840909,
                "tempo": 120.0
            },
            {
                "start_time": 78.4045455,
                "end_time": 78.4863636,
                "pitch": 47,
                "velocity": 101,
                "duration": 0.0818182,
                "tempo": 120.0
            },
            {
                "start_time": 78.5045455,
                "end_time": 78.5886364,
                "pitch": 48,
                "velocity": 101,
                "duration": 0.0840909,
                "tempo": 120.0
            },
            {
                "start_time": 78.6068182,
                "end_time": 78.6886364,
                "pitch": 45,
                "velocity": 127,
                "duration": 0.0818182,
                "tempo": 120.0
            },
            {
                "start_time": 78.7068182,
                "end_time": 78.7886364,
                "pitch": 48,
                "velocity": 101,
                "duration": 0.0818182,
                "tempo": 120.0
            },
            {
                "start_time": 78.8068182,
                "end_time": 78.8909091,
                "pitch": 47,
                "velocity": 101,
                "duration": 0.0840909,
                "tempo": 120.0
            },
            {
                "start_time": 78.9068182,
                "end_time": 78.9909091,
                "pitch": 48,
                "velocity": 101,
                "duration": 0.0840909,
                "tempo": 120.0
            },
            {
                "start_time": 79.0113636,
                "end_time": 79.0931818,
                "pitch": 43,
                "velocity": 127,
                "duration": 0.0818182,
                "tempo": 120.0
            },
            {
                "start_time": 79.1113636,
                "end_time": 79.1954545,
                "pitch": 47,
                "velocity": 101,
                "duration": 0.0840909,
                "tempo": 120.0
            },
            {
                "start_time": 79.2159091,
                "end_time": 79.3,
                "pitch": 45,
                "velocity": 101,
                "duration": 0.0840909,
                "tempo": 120.0
            },
            {
                "start_time": 79.3159091,
                "end_time": 79.4022727,
                "pitch": 47,
                "velocity": 101,
                "duration": 0.0863636,
                "tempo": 120.0
            },
            {
                "start_time": 79.4204545,
                "end_time": 79.5,
                "pitch": 43,
                "velocity": 127,
                "duration": 0.0795455,
                "tempo": 120.0
            },
            {
                "start_time": 79.5181818,
                "end_time": 79.6,
                "pitch": 47,
                "velocity": 101,
                "duration": 0.0818182,
                "tempo": 120.0
            },
            {
                "start_time": 79.6159091,
                "end_time": 79.6977273,
                "pitch": 45,
                "velocity": 101,
                "duration": 0.0818182,
                "tempo": 120.0
            },
            {
                "start_time": 79.7136364,
                "end_time": 79.7954545,
                "pitch": 47,
                "velocity": 101,
                "duration": 0.0818182,
                "tempo": 120.0
            },
            {
                "start_time": 79.8136364,
                "end_time": 79.8954545,
                "pitch": 43,
                "velocity": 127,
                "duration": 0.0818182,
                "tempo": 120.0
            },
            {
                "start_time": 79.9136364,
                "end_time": 79.9954545,
                "pitch": 47,
                "velocity": 101,
                "duration": 0.0818182,
                "tempo": 120.0
            },
            {
                "start_time": 80.0136364,
                "end_time": 80.0954545,
                "pitch": 45,
                "velocity": 101,
                "duration": 0.0818182,
                "tempo": 120.0
            },
            {
                "start_time": 80.1136364,
                "end_time": 80.1954545,
                "pitch": 47,
                "velocity": 101,
                "duration": 0.0818182,
                "tempo": 120.0
            },
            {
                "start_time": 80.2136364,
                "end_time": 80.2954545,
                "pitch": 43,
                "velocity": 127,
                "duration": 0.0818182,
                "tempo": 120.0
            },
            {
                "start_time": 80.3136364,
                "end_time": 80.3977273,
                "pitch": 47,
                "velocity": 101,
                "duration": 0.0840909,
                "tempo": 120.0
            },
            {
                "start_time": 80.4159091,
                "end_time": 80.4977273,
                "pitch": 45,
                "velocity": 101,
                "duration": 0.0818182,
                "tempo": 120.0
            },
            {
                "start_time": 80.5159091,
                "end_time": 80.5977273,
                "pitch": 47,
                "velocity": 101,
                "duration": 0.0818182,
                "tempo": 120.0
            },
            {
                "start_time": 80.6181818,
                "end_time": 80.7,
                "pitch": 47,
                "velocity": 127,
                "duration": 0.0818182,
                "tempo": 120.0
            },
            {
                "start_time": 80.7181818,
                "end_time": 80.8,
                "pitch": 50,
                "velocity": 101,
                "duration": 0.0818182,
                "tempo": 120.0
            },
            {
                "start_time": 80.8181818,
                "end_time": 80.9022727,
                "pitch": 48,
                "velocity": 101,
                "duration": 0.0840909,
                "tempo": 120.0
            },
            {
                "start_time": 80.9181818,
                "end_time": 81.0022727,
                "pitch": 50,
                "velocity": 101,
                "duration": 0.0840909,
                "tempo": 120.0
            },
            {
                "start_time": 81.0204545,
                "end_time": 81.1022727,
                "pitch": 47,
                "velocity": 127,
                "duration": 0.0818182,
                "tempo": 120.0
            },
            {
                "start_time": 81.1204545,
                "end_time": 81.2022727,
                "pitch": 50,
                "velocity": 101,
                "duration": 0.0818182,
                "tempo": 120.0
            },
            {
                "start_time": 81.2204545,
                "end_time": 81.3022727,
                "pitch": 48,
                "velocity": 101,
                "duration": 0.0818182,
                "tempo": 120.0
            },
            {
                "start_time": 81.3204545,
                "end_time": 81.4022727,
                "pitch": 50,
                "velocity": 101,
                "duration": 0.0818182,
                "tempo": 120.0
            },
            {
                "start_time": 81.4204545,
                "end_time": 81.5022727,
                "pitch": 47,
                "velocity": 127,
                "duration": 0.0818182,
                "tempo": 120.0
            },
            {
                "start_time": 81.5204545,
                "end_time": 81.6045455,
                "pitch": 50,
                "velocity": 101,
                "duration": 0.0840909,
                "tempo": 120.0
            },
            {
                "start_time": 81.6227273,
                "end_time": 81.7045455,
                "pitch": 48,
                "velocity": 101,
                "duration": 0.0818182,
                "tempo": 120.0
            },
            {
                "start_time": 81.7227273,
                "end_time": 81.8068182,
                "pitch": 50,
                "velocity": 101,
                "duration": 0.0840909,
                "tempo": 120.0
            },
            {
                "start_time": 81.825,
                "end_time": 81.9090909,
                "pitch": 47,
                "velocity": 127,
                "duration": 0.0840909,
                "tempo": 120.0
            },
            {
                "start_time": 81.925,
                "end_time": 82.0113636,
                "pitch": 50,
                "velocity": 101,
                "duration": 0.0863636,
                "tempo": 120.0
            },
            {
                "start_time": 82.0295455,
                "end_time": 82.1136364,
                "pitch": 48,
                "velocity": 101,
                "duration": 0.0840909,
                "tempo": 120.0
            },
            {
                "start_time": 82.1318182,
                "end_time": 82.2159091,
                "pitch": 50,
                "velocity": 101,
                "duration": 0.0840909,
                "tempo": 120.0
            },
            {
                "start_time": 82.2363636,
                "end_time": 82.3181818,
                "pitch": 45,
                "velocity": 127,
                "duration": 0.0818182,
                "tempo": 120.0
            },
            {
                "start_time": 82.3363636,
                "end_time": 82.4181818,
                "pitch": 48,
                "velocity": 101,
                "duration": 0.0818182,
                "tempo": 120.0
            },
            {
                "start_time": 82.4363636,
                "end_time": 82.5204545,
                "pitch": 47,
                "velocity": 101,
                "duration": 0.0840909,
                "tempo": 120.0
            },
            {
                "start_time": 82.5363636,
                "end_time": 82.6204545,
                "pitch": 48,
                "velocity": 101,
                "duration": 0.0840909,
                "tempo": 120.0
            },
            {
                "start_time": 82.6386364,
                "end_time": 82.7181818,
                "pitch": 45,
                "velocity": 127,
                "duration": 0.0795455,
                "tempo": 120.0
            },
            {
                "start_time": 82.7363636,
                "end_time": 82.8181818,
                "pitch": 48,
                "velocity": 101,
                "duration": 0.0818182,
                "tempo": 120.0
            },
            {
                "start_time": 82.8340909,
                "end_time": 82.9159091,
                "pitch": 47,
                "velocity": 101,
                "duration": 0.0818182,
                "tempo": 120.0
            },
            {
                "start_time": 82.9318182,
                "end_time": 83.0136364,
                "pitch": 48,
                "velocity": 101,
                "duration": 0.0818182,
                "tempo": 120.0
            },
            {
                "start_time": 83.0318182,
                "end_time": 83.1136364,
                "pitch": 45,
                "velocity": 127,
                "duration": 0.0818182,
                "tempo": 120.0
            },
            {
                "start_time": 83.1318182,
                "end_time": 83.2136364,
                "pitch": 48,
                "velocity": 101,
                "duration": 0.0818182,
                "tempo": 120.0
            },
            {
                "start_time": 83.2318182,
                "end_time": 83.3136364,
                "pitch": 47,
                "velocity": 101,
                "duration": 0.0818182,
                "tempo": 120.0
            },
            {
                "start_time": 83.3318182,
                "end_time": 83.4136364,
                "pitch": 48,
                "velocity": 101,
                "duration": 0.0818182,
                "tempo": 120.0
            },
            {
                "start_time": 83.4318182,
                "end_time": 83.5159091,
                "pitch": 45,
                "velocity": 127,
                "duration": 0.0840909,
                "tempo": 120.0
            },
            {
                "start_time": 83.5340909,
                "end_time": 83.6181818,
                "pitch": 48,
                "velocity": 101,
                "duration": 0.0840909,
                "tempo": 120.0
            },
            {
                "start_time": 83.6363636,
                "end_time": 83.7227273,
                "pitch": 47,
                "velocity": 101,
                "duration": 0.0863636,
                "tempo": 120.0
            },
            {
                "start_time": 83.7386364,
                "end_time": 83.825,
                "pitch": 48,
                "velocity": 101,
                "duration": 0.0863636,
                "tempo": 120.0
            },
            {
                "start_time": 83.8454545,
                "end_time": 83.925,
                "pitch": 45,
                "velocity": 127,
                "duration": 0.0795455,
                "tempo": 120.0
            },
            {
                "start_time": 83.9431818,
                "end_time": 84.0272727,
                "pitch": 48,
                "velocity": 101,
                "duration": 0.0840909,
                "tempo": 120.0
            },
            {
                "start_time": 84.0454545,
                "end_time": 84.1272727,
                "pitch": 47,
                "velocity": 101,
                "duration": 0.0818182,
                "tempo": 120.0
            },
            {
                "start_time": 84.1454545,
                "end_time": 84.2272727,
                "pitch": 48,
                "velocity": 101,
                "duration": 0.0818182,
                "tempo": 120.0
            },
            {
                "start_time": 84.2477273,
                "end_time": 84.3272727,
                "pitch": 45,
                "velocity": 127,
                "duration": 0.0795455,
                "tempo": 120.0
            },
            {
                "start_time": 84.3431818,
                "end_time": 84.425,
                "pitch": 48,
                "velocity": 101,
                "duration": 0.0818182,
                "tempo": 120.0
            },
            {
                "start_time": 84.4409091,
                "end_time": 84.5227273,
                "pitch": 47,
                "velocity": 101,
                "duration": 0.0818182,
                "tempo": 120.0
            },
            {
                "start_time": 84.5409091,
                "end_time": 84.6204545,
                "pitch": 48,
                "velocity": 101,
                "duration": 0.0795455,
                "tempo": 120.0
            },
            {
                "start_time": 84.6386364,
                "end_time": 84.7227273,
                "pitch": 45,
                "velocity": 127,
                "duration": 0.0840909,
                "tempo": 120.0
            },
            {
                "start_time": 84.7409091,
                "end_time": 84.825,
                "pitch": 48,
                "velocity": 101,
                "duration": 0.0840909,
                "tempo": 120.0
            },
            {
                "start_time": 84.8454545,
                "end_time": 84.9295455,
                "pitch": 47,
                "velocity": 101,
                "duration": 0.0840909,
                "tempo": 120.0
            },
            {
                "start_time": 84.9477273,
                "end_time": 85.0318182,
                "pitch": 48,
                "velocity": 101,
                "duration": 0.0840909,
                "tempo": 120.0
            },
            {
                "start_time": 85.0522727,
                "end_time": 85.1318182,
                "pitch": 45,
                "velocity": 127,
                "duration": 0.0795455,
                "tempo": 120.0
            },
            {
                "start_time": 85.15,
                "end_time": 85.2340909,
                "pitch": 48,
                "velocity": 101,
                "duration": 0.0840909,
                "tempo": 120.0
            },
            {
                "start_time": 85.2522727,
                "end_time": 85.3340909,
                "pitch": 47,
                "velocity": 101,
                "duration": 0.0818182,
                "tempo": 120.0
            },
            {
                "start_time": 85.3522727,
                "end_time": 85.4363636,
                "pitch": 48,
                "velocity": 101,
                "duration": 0.0840909,
                "tempo": 120.0
            },
            {
                "start_time": 85.4545455,
                "end_time": 85.5386364,
                "pitch": 43,
                "velocity": 127,
                "duration": 0.0840909,
                "tempo": 120.0
            },
            {
                "start_time": 85.5545455,
                "end_time": 85.6409091,
                "pitch": 47,
                "velocity": 101,
                "duration": 0.0863636,
                "tempo": 120.0
            },
            {
                "start_time": 85.6590909,
                "end_time": 85.7431818,
                "pitch": 45,
                "velocity": 101,
                "duration": 0.0840909,
                "tempo": 120.0
            },
            {
                "start_time": 85.7613636,
                "end_time": 85.8454545,
                "pitch": 47,
                "velocity": 101,
                "duration": 0.0840909,
                "tempo": 120.0
            },
            {
                "start_time": 85.8659091,
                "end_time": 85.9454545,
                "pitch": 43,
                "velocity": 127,
                "duration": 0.0795455,
                "tempo": 120.0
            },
            {
                "start_time": 85.9613636,
                "end_time": 86.0431818,
                "pitch": 47,
                "velocity": 101,
                "duration": 0.0818182,
                "tempo": 120.0
            },
            {
                "start_time": 86.0613636,
                "end_time": 86.1409091,
                "pitch": 45,
                "velocity": 101,
                "duration": 0.0795455,
                "tempo": 120.0
            },
            {
                "start_time": 86.1590909,
                "end_time": 86.2386364,
                "pitch": 47,
                "velocity": 101,
                "duration": 0.0795455,
                "tempo": 120.0
            },
            {
                "start_time": 86.2568182,
                "end_time": 86.3409091,
                "pitch": 43,
                "velocity": 127,
                "duration": 0.0840909,
                "tempo": 120.0
            },
            {
                "start_time": 86.3568182,
                "end_time": 86.4409091,
                "pitch": 47,
                "velocity": 101,
                "duration": 0.0840909,
                "tempo": 120.0
            },
            {
                "start_time": 86.4590909,
                "end_time": 86.5409091,
                "pitch": 45,
                "velocity": 101,
                "duration": 0.0818182,
                "tempo": 120.0
            },
            {
                "start_time": 86.5590909,
                "end_time": 86.6431818,
                "pitch": 47,
                "velocity": 101,
                "duration": 0.0840909,
                "tempo": 120.0
            },
            {
                "start_time": 86.6613636,
                "end_time": 86.7454545,
                "pitch": 43,
                "velocity": 127,
                "duration": 0.0840909,
                "tempo": 120.0
            },
            {
                "start_time": 86.7636364,
                "end_time": 86.8477273,
                "pitch": 47,
                "velocity": 101,
                "duration": 0.0840909,
                "tempo": 120.0
            },
            {
                "start_time": 86.8659091,
                "end_time": 86.95,
                "pitch": 45,
                "velocity": 101,
                "duration": 0.0840909,
                "tempo": 120.0
            },
            {
                "start_time": 86.9681818,
                "end_time": 87.0545455,
                "pitch": 47,
                "velocity": 101,
                "duration": 0.0863636,
                "tempo": 120.0
            },
            {
                "start_time": 87.0727273,
                "end_time": 87.1545455,
                "pitch": 47,
                "velocity": 127,
                "duration": 0.0818182,
                "tempo": 120.0
            },
            {
                "start_time": 87.1727273,
                "end_time": 87.2545455,
                "pitch": 50,
                "velocity": 101,
                "duration": 0.0818182,
                "tempo": 120.0
            },
            {
                "start_time": 87.2727273,
                "end_time": 87.3545455,
                "pitch": 48,
                "velocity": 101,
                "duration": 0.0818182,
                "tempo": 120.0
            },
            {
                "start_time": 87.3727273,
                "end_time": 87.4545455,
                "pitch": 50,
                "velocity": 101,
                "duration": 0.0818182,
                "tempo": 120.0
            },
            {
                "start_time": 87.4727273,
                "end_time": 87.5545455,
                "pitch": 47,
                "velocity": 127,
                "duration": 0.0818182,
                "tempo": 120.0
            },
            {
                "start_time": 87.5727273,
                "end_time": 87.6568182,
                "pitch": 50,
                "velocity": 101,
                "duration": 0.0840909,
                "tempo": 120.0
            },
            {
                "start_time": 87.6727273,
                "end_time": 87.7568182,
                "pitch": 48,
                "velocity": 101,
                "duration": 0.0840909,
                "tempo": 120.0
            },
            {
                "start_time": 87.775,
                "end_time": 87.8568182,
                "pitch": 50,
                "velocity": 101,
                "duration": 0.0818182,
                "tempo": 120.0
            },
            {
                "start_time": 87.875,
                "end_time": 87.9568182,
                "pitch": 47,
                "velocity": 127,
                "duration": 0.0818182,
                "tempo": 120.0
            },
            {
                "start_time": 87.9727273,
                "end_time": 88.0545455,
                "pitch": 50,
                "velocity": 101,
                "duration": 0.0818182,
                "tempo": 120.0
            },
            {
                "start_time": 88.0727273,
                "end_time": 88.1522727,
                "pitch": 48,
                "velocity": 101,
                "duration": 0.0795455,
                "tempo": 120.0
            },
            {
                "start_time": 88.1704545,
                "end_time": 88.25,
                "pitch": 50,
                "velocity": 101,
                "duration": 0.0795455,
                "tempo": 120.0
            },
            {
                "start_time": 88.2681818,
                "end_time": 88.3522727,
                "pitch": 47,
                "velocity": 127,
                "duration": 0.0840909,
                "tempo": 120.0
            },
            {
                "start_time": 88.3704545,
                "end_time": 88.4545455,
                "pitch": 50,
                "velocity": 101,
                "duration": 0.0840909,
                "tempo": 120.0
            },
            {
                "start_time": 88.4727273,
                "end_time": 88.5590909,
                "pitch": 48,
                "velocity": 101,
                "duration": 0.0863636,
                "tempo": 120.0
            },
            {
                "start_time": 88.575,
                "end_time": 88.6613636,
                "pitch": 50,
                "velocity": 101,
                "duration": 0.0863636,
                "tempo": 120.0
            },
            {
                "start_time": 88.6818182,
                "end_time": 88.7613636,
                "pitch": 45,
                "velocity": 127,
                "duration": 0.0795455,
                "tempo": 120.0
            },
            {
                "start_time": 88.7795455,
                "end_time": 88.8636364,
                "pitch": 48,
                "velocity": 101,
                "duration": 0.0840909,
                "tempo": 120.0
            },
            {
                "start_time": 88.8818182,
                "end_time": 88.9636364,
                "pitch": 47,
                "velocity": 101,
                "duration": 0.0818182,
                "tempo": 120.0
            },
            {
                "start_time": 88.9818182,
                "end_time": 89.0659091,
                "pitch": 48,
                "velocity": 101,
                "duration": 0.0840909,
                "tempo": 120.0
            },
            {
                "start_time": 89.0840909,
                "end_time": 89.1659091,
                "pitch": 45,
                "velocity": 127,
                "duration": 0.0818182,
                "tempo": 120.0
            },
            {
                "start_time": 89.1818182,
                "end_time": 89.2659091,
                "pitch": 48,
                "velocity": 101,
                "duration": 0.0840909,
                "tempo": 120.0
            },
            {
                "start_time": 89.2818182,
                "end_time": 89.3659091,
                "pitch": 47,
                "velocity": 101,
                "duration": 0.0840909,
                "tempo": 120.0
            },
            {
                "start_time": 89.3818182,
                "end_time": 89.4659091,
                "pitch": 48,
                "velocity": 101,
                "duration": 0.0840909,
                "tempo": 120.0
            },
            {
                "start_time": 89.4840909,
                "end_time": 89.5659091,
                "pitch": 45,
                "velocity": 127,
                "duration": 0.0818182,
                "tempo": 120.0
            },
            {
                "start_time": 89.5840909,
                "end_time": 89.6659091,
                "pitch": 48,
                "velocity": 101,
                "duration": 0.0818182,
                "tempo": 120.0
            },
            {
                "start_time": 89.6840909,
                "end_time": 89.7681818,
                "pitch": 47,
                "velocity": 101,
                "duration": 0.0840909,
                "tempo": 120.0
            },
            {
                "start_time": 89.7840909,
                "end_time": 89.8681818,
                "pitch": 48,
                "velocity": 101,
                "duration": 0.0840909,
                "tempo": 120.0
            },
            {
                "start_time": 89.8863636,
                "end_time": 89.9681818,
                "pitch": 45,
                "velocity": 127,
                "duration": 0.0818182,
                "tempo": 120.0
            },
            {
                "start_time": 89.9863636,
                "end_time": 90.0704545,
                "pitch": 48,
                "velocity": 101,
                "duration": 0.0840909,
                "tempo": 120.0
            },
            {
                "start_time": 90.0886364,
                "end_time": 90.1704545,
                "pitch": 47,
                "velocity": 101,
                "duration": 0.0818182,
                "tempo": 120.0
            },
            {
                "start_time": 90.1886364,
                "end_time": 90.2727273,
                "pitch": 48,
                "velocity": 101,
                "duration": 0.0840909,
                "tempo": 120.0
            },
            {
                "start_time": 90.2909091,
                "end_time": 90.4727273,
                "pitch": 45,
                "velocity": 127,
                "duration": 0.1818182,
                "tempo": 120.0
            },
            {
                "start_time": 90.4909091,
                "end_time": 90.5727273,
                "pitch": 45,
                "velocity": 101,
                "duration": 0.0818182,
                "tempo": 120.0
            },
            {
                "start_time": 90.5886364,
                "end_time": 90.6727273,
                "pitch": 57,
                "velocity": 101,
                "duration": 0.0840909,
                "tempo": 120.0
            },
            {
                "start_time": 90.6909091,
                "end_time": 90.8727273,
                "pitch": 45,
                "velocity": 127,
                "duration": 0.1818182,
                "tempo": 120.0
            },
            {
                "start_time": 90.8909091,
                "end_time": 90.975,
                "pitch": 45,
                "velocity": 101,
                "duration": 0.0840909,
                "tempo": 120.0
            },
            {
                "start_time": 90.9931818,
                "end_time": 91.075,
                "pitch": 57,
                "velocity": 101,
                "duration": 0.0818182,
                "tempo": 120.0
            },
            {
                "start_time": 91.0931818,
                "end_time": 91.275,
                "pitch": 45,
                "velocity": 127,
                "duration": 0.1818182,
                "tempo": 120.0
            },
            {
                "start_time": 91.2931818,
                "end_time": 91.375,
                "pitch": 45,
                "velocity": 101,
                "duration": 0.0818182,
                "tempo": 120.0
            },
            {
                "start_time": 91.3931818,
                "end_time": 91.475,
                "pitch": 57,
                "velocity": 101,
                "duration": 0.0818182,
                "tempo": 120.0
            },
            {
                "start_time": 91.4954545,
                "end_time": 91.6772727,
                "pitch": 45,
                "velocity": 127,
                "duration": 0.1818182,
                "tempo": 120.0
            },
            {
                "start_time": 91.6954545,
                "end_time": 91.7772727,
                "pitch": 45,
                "velocity": 101,
                "duration": 0.0818182,
                "tempo": 120.0
            },
            {
                "start_time": 91.7954545,
                "end_time": 91.8795455,
                "pitch": 57,
                "velocity": 101,
                "duration": 0.0840909,
                "tempo": 120.0
            },
            {
                "start_time": 91.8977273,
                "end_time": 92.0818182,
                "pitch": 43,
                "velocity": 127,
                "duration": 0.1840909,
                "tempo": 120.0
            },
            {
                "start_time": 92.1,
                "end_time": 92.1818182,
                "pitch": 43,
                "velocity": 101,
                "duration": 0.0818182,
                "tempo": 120.0
            },
            {
                "start_time": 92.2,
                "end_time": 92.2818182,
                "pitch": 55,
                "velocity": 101,
                "duration": 0.0818182,
                "tempo": 120.0
            },
            {
                "start_time": 92.3022727,
                "end_time": 92.4818182,
                "pitch": 43,
                "velocity": 127,
                "duration": 0.1795455,
                "tempo": 120.0
            },
            {
                "start_time": 92.5,
                "end_time": 92.5818182,
                "pitch": 43,
                "velocity": 101,
                "duration": 0.0818182,
                "tempo": 120.0
            },
            {
                "start_time": 92.6,
                "end_time": 92.6840909,
                "pitch": 55,
                "velocity": 101,
                "duration": 0.0840909,
                "tempo": 120.0
            },
            {
                "start_time": 92.7,
                "end_time": 92.8840909,
                "pitch": 43,
                "velocity": 127,
                "duration": 0.1840909,
                "tempo": 120.0
            },
            {
                "start_time": 92.9022727,
                "end_time": 92.9863636,
                "pitch": 43,
                "velocity": 101,
                "duration": 0.0840909,
                "tempo": 120.0
            },
            {
                "start_time": 93.0022727,
                "end_time": 93.0863636,
                "pitch": 55,
                "velocity": 101,
                "duration": 0.0840909,
                "tempo": 120.0
            },
            {
                "start_time": 93.1045455,
                "end_time": 93.2863636,
                "pitch": 43,
                "velocity": 127,
                "duration": 0.1818182,
                "tempo": 120.0
            },
            {
                "start_time": 93.3045455,
                "end_time": 93.3863636,
                "pitch": 43,
                "velocity": 101,
                "duration": 0.0818182,
                "tempo": 120.0
            },
            {
                "start_time": 93.4045455,
                "end_time": 93.4863636,
                "pitch": 55,
                "velocity": 101,
                "duration": 0.0818182,
                "tempo": 120.0
            },
            {
                "start_time": 93.5045455,
                "end_time": 93.6886364,
                "pitch": 47,
                "velocity": 127,
                "duration": 0.1840909,
                "tempo": 120.0
            },
            {
                "start_time": 93.7068182,
                "end_time": 93.7886364,
                "pitch": 47,
                "velocity": 101,
                "duration": 0.0818182,
                "tempo": 120.0
            },
            {
                "start_time": 93.8068182,
                "end_time": 93.8909091,
                "pitch": 59,
                "velocity": 101,
                "duration": 0.0840909,
                "tempo": 120.0
            },
            {
                "start_time": 93.9090909,
                "end_time": 94.0909091,
                "pitch": 47,
                "velocity": 127,
                "duration": 0.1818182,
                "tempo": 120.0
            },
            {
                "start_time": 94.1090909,
                "end_time": 94.1931818,
                "pitch": 47,
                "velocity": 101,
                "duration": 0.0840909,
                "tempo": 120.0
            },
            {
                "start_time": 94.2090909,
                "end_time": 94.2931818,
                "pitch": 59,
                "velocity": 101,
                "duration": 0.0840909,
                "tempo": 120.0
            },
            {
                "start_time": 94.3113636,
                "end_time": 94.4931818,
                "pitch": 47,
                "velocity": 127,
                "duration": 0.1818182,
                "tempo": 120.0
            },
            {
                "start_time": 94.5113636,
                "end_time": 94.5931818,
                "pitch": 47,
                "velocity": 101,
                "duration": 0.0818182,
                "tempo": 120.0
            },
            {
                "start_time": 94.6113636,
                "end_time": 94.6931818,
                "pitch": 59,
                "velocity": 101,
                "duration": 0.0818182,
                "tempo": 120.0
            },
            {
                "start_time": 94.7113636,
                "end_time": 94.8954545,
                "pitch": 47,
                "velocity": 127,
                "duration": 0.1840909,
                "tempo": 120.0
            },
            {
                "start_time": 94.9136364,
                "end_time": 94.9954545,
                "pitch": 47,
                "velocity": 101,
                "duration": 0.0818182,
                "tempo": 120.0
            },
            {
                "start_time": 95.0136364,
                "end_time": 95.0977273,
                "pitch": 59,
                "velocity": 101,
                "duration": 0.0840909,
                "tempo": 120.0
            },
            {
                "start_time": 95.1159091,
                "end_time": 95.3022727,
                "pitch": 45,
                "velocity": 127,
                "duration": 0.1863636,
                "tempo": 120.0
            },
            {
                "start_time": 95.3204545,
                "end_time": 95.4045455,
                "pitch": 45,
                "velocity": 101,
                "duration": 0.0840909,
                "tempo": 120.0
            },
            {
                "start_time": 95.4227273,
                "end_time": 95.5068182,
                "pitch": 57,
                "velocity": 101,
                "duration": 0.0840909,
                "tempo": 120.0
            },
            {
                "start_time": 95.5272727,
                "end_time": 95.7045455,
                "pitch": 45,
                "velocity": 127,
                "duration": 0.1772727,
                "tempo": 120.0
            },
            {
                "start_time": 95.7227273,
                "end_time": 95.8022727,
                "pitch": 45,
                "velocity": 101,
                "duration": 0.0795455,
                "tempo": 120.0
            },
            {
                "start_time": 95.8204545,
                "end_time": 95.9,
                "pitch": 57,
                "velocity": 101,
                "duration": 0.0795455,
                "tempo": 120.0
            },
            {
                "start_time": 95.9181818,
                "end_time": 96.1022727,
                "pitch": 45,
                "velocity": 127,
                "duration": 0.1840909,
                "tempo": 120.0
            },
            {
                "start_time": 96.1204545,
                "end_time": 96.2022727,
                "pitch": 45,
                "velocity": 101,
                "duration": 0.0818182,
                "tempo": 120.0
            },
            {
                "start_time": 96.2204545,
                "end_time": 96.3045455,
                "pitch": 57,
                "velocity": 101,
                "duration": 0.0840909,
                "tempo": 120.0
            },
            {
                "start_time": 96.3227273,
                "end_time": 96.5090909,
                "pitch": 45,
                "velocity": 127,
                "duration": 0.1863636,
                "tempo": 120.0
            },
            {
                "start_time": 96.5272727,
                "end_time": 96.6113636,
                "pitch": 45,
                "velocity": 101,
                "duration": 0.0840909,
                "tempo": 120.0
            },
            {
                "start_time": 96.6295455,
                "end_time": 96.7159091,
                "pitch": 57,
                "velocity": 101,
                "duration": 0.0863636,
                "tempo": 120.0
            },
            {
                "start_time": 96.7340909,
                "end_time": 96.9159091,
                "pitch": 45,
                "velocity": 127,
                "duration": 0.1818182,
                "tempo": 120.0
            },
            {
                "start_time": 96.9340909,
                "end_time": 97.0159091,
                "pitch": 45,
                "velocity": 101,
                "duration": 0.0818182,
                "tempo": 120.0
            },
            {
                "start_time": 97.0340909,
                "end_time": 97.1159091,
                "pitch": 57,
                "velocity": 101,
                "duration": 0.0818182,
                "tempo": 120.0
            },
            {
                "start_time": 97.1340909,
                "end_time": 97.3181818,
                "pitch": 45,
                "velocity": 127,
                "duration": 0.1840909,
                "tempo": 120.0
            },
            {
                "start_time": 97.3340909,
                "end_time": 97.4181818,
                "pitch": 45,
                "velocity": 101,
                "duration": 0.0840909,
                "tempo": 120.0
            },
            {
                "start_time": 97.4363636,
                "end_time": 97.5181818,
                "pitch": 57,
                "velocity": 101,
                "duration": 0.0818182,
                "tempo": 120.0
            },
            {
                "start_time": 97.5363636,
                "end_time": 97.7204545,
                "pitch": 45,
                "velocity": 127,
                "duration": 0.1840909,
                "tempo": 120.0
            },
            {
                "start_time": 97.7386364,
                "end_time": 97.8204545,
                "pitch": 45,
                "velocity": 101,
                "duration": 0.0818182,
                "tempo": 120.0
            },
            {
                "start_time": 97.8386364,
                "end_time": 97.9227273,
                "pitch": 57,
                "velocity": 101,
                "duration": 0.0840909,
                "tempo": 120.0
            },
            {
                "start_time": 97.9409091,
                "end_time": 98.1227273,
                "pitch": 45,
                "velocity": 127,
                "duration": 0.1818182,
                "tempo": 120.0
            },
            {
                "start_time": 98.1409091,
                "end_time": 98.2227273,
                "pitch": 45,
                "velocity": 101,
                "duration": 0.0818182,
                "tempo": 120.0
            },
            {
                "start_time": 98.2409091,
                "end_time": 98.3227273,
                "pitch": 57,
                "velocity": 101,
                "duration": 0.0818182,
                "tempo": 120.0
            },
            {
                "start_time": 98.3409091,
                "end_time": 98.525,
                "pitch": 43,
                "velocity": 127,
                "duration": 0.1840909,
                "tempo": 120.0
            },
            {
                "start_time": 98.5431818,
                "end_time": 98.625,
                "pitch": 43,
                "velocity": 101,
                "duration": 0.0818182,
                "tempo": 120.0
            },
            {
                "start_time": 98.6431818,
                "end_time": 98.725,
                "pitch": 55,
                "velocity": 101,
                "duration": 0.0818182,
                "tempo": 120.0
            },
            {
                "start_time": 98.7454545,
                "end_time": 98.9272727,
                "pitch": 43,
                "velocity": 127,
                "duration": 0.1818182,
                "tempo": 120.0
            },
            {
                "start_time": 98.9431818,
                "end_time": 99.0272727,
                "pitch": 43,
                "velocity": 101,
                "duration": 0.0840909,
                "tempo": 120.0
            },
            {
                "start_time": 99.0431818,
                "end_time": 99.1272727,
                "pitch": 55,
                "velocity": 101,
                "duration": 0.0840909,
                "tempo": 120.0
            },
            {
                "start_time": 99.1454545,
                "end_time": 99.3272727,
                "pitch": 43,
                "velocity": 127,
                "duration": 0.1818182,
                "tempo": 120.0
            },
            {
                "start_time": 99.3454545,
                "end_time": 99.4295455,
                "pitch": 43,
                "velocity": 101,
                "duration": 0.0840909,
                "tempo": 120.0
            },
            {
                "start_time": 99.4454545,
                "end_time": 99.5295455,
                "pitch": 55,
                "velocity": 101,
                "duration": 0.0840909,
                "tempo": 120.0
            },
            {
                "start_time": 99.5477273,
                "end_time": 99.7318182,
                "pitch": 43,
                "velocity": 127,
                "duration": 0.1840909,
                "tempo": 120.0
            },
            {
                "start_time": 99.75,
                "end_time": 99.8318182,
                "pitch": 43,
                "velocity": 101,
                "duration": 0.0818182,
                "tempo": 120.0
            },
            {
                "start_time": 99.85,
                "end_time": 99.9318182,
                "pitch": 55,
                "velocity": 101,
                "duration": 0.0818182,
                "tempo": 120.0
            },
            {
                "start_time": 99.9522727,
                "end_time": 100.1340909,
                "pitch": 47,
                "velocity": 127,
                "duration": 0.1818182,
                "tempo": 120.0
            },
            {
                "start_time": 100.1522727,
                "end_time": 100.2340909,
                "pitch": 47,
                "velocity": 101,
                "duration": 0.0818182,
                "tempo": 120.0
            },
            {
                "start_time": 100.25,
                "end_time": 100.3340909,
                "pitch": 59,
                "velocity": 101,
                "duration": 0.0840909,
                "tempo": 120.0
            },
            {
                "start_time": 100.3522727,
                "end_time": 100.5340909,
                "pitch": 47,
                "velocity": 127,
                "duration": 0.1818182,
                "tempo": 120.0
            },
            {
                "start_time": 100.5522727,
                "end_time": 100.6363636,
                "pitch": 47,
                "velocity": 101,
                "duration": 0.0840909,
                "tempo": 120.0
            },
            {
                "start_time": 100.6522727,
                "end_time": 100.7363636,
                "pitch": 59,
                "velocity": 101,
                "duration": 0.0840909,
                "tempo": 120.0
            },
            {
                "start_time": 100.7545455,
                "end_time": 100.9363636,
                "pitch": 47,
                "velocity": 127,
                "duration": 0.1818182,
                "tempo": 120.0
            },
            {
                "start_time": 100.9545455,
                "end_time": 101.0363636,
                "pitch": 47,
                "velocity": 101,
                "duration": 0.0818182,
                "tempo": 120.0
            },
            {
                "start_time": 101.0545455,
                "end_time": 101.1363636,
                "pitch": 59,
                "velocity": 101,
                "duration": 0.0818182,
                "tempo": 120.0
            },
            {
                "start_time": 101.1568182,
                "end_time": 101.3386364,
                "pitch": 47,
                "velocity": 127,
                "duration": 0.1818182,
                "tempo": 120.0
            },
            {
                "start_time": 101.3568182,
                "end_time": 101.4386364,
                "pitch": 47,
                "velocity": 101,
                "duration": 0.0818182,
                "tempo": 120.0
            },
            {
                "start_time": 101.4568182,
                "end_time": 101.5409091,
                "pitch": 59,
                "velocity": 101,
                "duration": 0.0840909,
                "tempo": 120.0
            },
            {
                "start_time": 101.5590909,
                "end_time": 101.7409091,
                "pitch": 45,
                "velocity": 127,
                "duration": 0.1818182,
                "tempo": 120.0
            },
            {
                "start_time": 101.7613636,
                "end_time": 101.8431818,
                "pitch": 45,
                "velocity": 101,
                "duration": 0.0818182,
                "tempo": 120.0
            },
            {
                "start_time": 101.8613636,
                "end_time": 101.9431818,
                "pitch": 57,
                "velocity": 101,
                "duration": 0.0818182,
                "tempo": 120.0
            },
            {
                "start_time": 101.9636364,
                "end_time": 102.1431818,
                "pitch": 45,
                "velocity": 127,
                "duration": 0.1795455,
                "tempo": 120.0
            },
            {
                "start_time": 102.1613636,
                "end_time": 102.2431818,
                "pitch": 45,
                "velocity": 101,
                "duration": 0.0818182,
                "tempo": 120.0
            },
            {
                "start_time": 102.2613636,
                "end_time": 102.3431818,
                "pitch": 57,
                "velocity": 101,
                "duration": 0.0818182,
                "tempo": 120.0
            },
            {
                "start_time": 102.3613636,
                "end_time": 102.5454545,
                "pitch": 45,
                "velocity": 127,
                "duration": 0.1840909,
                "tempo": 120.0
            },
            {
                "start_time": 102.5636364,
                "end_time": 102.6454545,
                "pitch": 45,
                "velocity": 101,
                "duration": 0.0818182,
                "tempo": 120.0
            },
            {
                "start_time": 102.6636364,
                "end_time": 102.7477273,
                "pitch": 57,
                "velocity": 101,
                "duration": 0.0840909,
                "tempo": 120.0
            },
            {
                "start_time": 102.7659091,
                "end_time": 102.9477273,
                "pitch": 45,
                "velocity": 127,
                "duration": 0.1818182,
                "tempo": 120.0
            },
            {
                "start_time": 102.9681818,
                "end_time": 103.0477273,
                "pitch": 45,
                "velocity": 101,
                "duration": 0.0795455,
                "tempo": 120.0
            },
            {
                "start_time": 103.0659091,
                "end_time": 103.1477273,
                "pitch": 57,
                "velocity": 101,
                "duration": 0.0818182,
                "tempo": 120.0
            },
            {
                "start_time": 103.1704545,
                "end_time": 103.2522727,
                "pitch": 45,
                "velocity": 127,
                "duration": 0.0818182,
                "tempo": 120.0
            },
            {
                "start_time": 103.2704545,
                "end_time": 103.3568182,
                "pitch": 45,
                "velocity": 101,
                "duration": 0.0863636,
                "tempo": 120.0
            },
            {
                "start_time": 103.375,
                "end_time": 103.4636364,
                "pitch": 57,
                "velocity": 101,
                "duration": 0.0886364,
                "tempo": 120.0
            },
            {
                "start_time": 103.4818182,
                "end_time": 103.5681818,
                "pitch": 45,
                "velocity": 101,
                "duration": 0.0863636,
                "tempo": 120.0
            },
            {
                "start_time": 103.5886364,
                "end_time": 103.6681818,
                "pitch": 45,
                "velocity": 127,
                "duration": 0.0795455,
                "tempo": 120.0
            },
            {
                "start_time": 103.6863636,
                "end_time": 103.7681818,
                "pitch": 45,
                "velocity": 101,
                "duration": 0.0818182,
                "tempo": 120.0
            },
            {
                "start_time": 103.7840909,
                "end_time": 103.8659091,
                "pitch": 57,
                "velocity": 101,
                "duration": 0.0818182,
                "tempo": 120.0
            },
            {
                "start_time": 103.8818182,
                "end_time": 103.9636364,
                "pitch": 45,
                "velocity": 101,
                "duration": 0.0818182,
                "tempo": 120.0
            },
            {
                "start_time": 103.9818182,
                "end_time": 104.0636364,
                "pitch": 45,
                "velocity": 127,
                "duration": 0.0818182,
                "tempo": 120.0
            },
            {
                "start_time": 104.0818182,
                "end_time": 104.1636364,
                "pitch": 45,
                "velocity": 101,
                "duration": 0.0818182,
                "tempo": 120.0
            },
            {
                "start_time": 104.1818182,
                "end_time": 104.2659091,
                "pitch": 57,
                "velocity": 101,
                "duration": 0.0840909,
                "tempo": 120.0
            },
            {
                "start_time": 104.2818182,
                "end_time": 104.3659091,
                "pitch": 45,
                "velocity": 101,
                "duration": 0.0840909,
                "tempo": 120.0
            },
            {
                "start_time": 104.3840909,
                "end_time": 104.4659091,
                "pitch": 45,
                "velocity": 127,
                "duration": 0.0818182,
                "tempo": 120.0
            },
            {
                "start_time": 104.4840909,
                "end_time": 104.5681818,
                "pitch": 45,
                "velocity": 101,
                "duration": 0.0840909,
                "tempo": 120.0
            },
            {
                "start_time": 104.5863636,
                "end_time": 104.6681818,
                "pitch": 57,
                "velocity": 101,
                "duration": 0.0818182,
                "tempo": 120.0
            },
            {
                "start_time": 104.6863636,
                "end_time": 104.7704545,
                "pitch": 45,
                "velocity": 101,
                "duration": 0.0840909,
                "tempo": 120.0
            },
            {
                "start_time": 104.7886364,
                "end_time": 104.8704545,
                "pitch": 43,
                "velocity": 127,
                "duration": 0.0818182,
                "tempo": 120.0
            },
            {
                "start_time": 104.8863636,
                "end_time": 104.9704545,
                "pitch": 43,
                "velocity": 101,
                "duration": 0.0840909,
                "tempo": 120.0
            },
            {
                "start_time": 104.9863636,
                "end_time": 105.0704545,
                "pitch": 55,
                "velocity": 101,
                "duration": 0.0840909,
                "tempo": 120.0
            },
            {
                "start_time": 105.0863636,
                "end_time": 105.1704545,
                "pitch": 43,
                "velocity": 101,
                "duration": 0.0840909,
                "tempo": 120.0
            },
            {
                "start_time": 105.1886364,
                "end_time": 105.2704545,
                "pitch": 43,
                "velocity": 127,
                "duration": 0.0818182,
                "tempo": 120.0
            },
            {
                "start_time": 105.2886364,
                "end_time": 105.3704545,
                "pitch": 43,
                "velocity": 101,
                "duration": 0.0818182,
                "tempo": 120.0
            },
            {
                "start_time": 105.3886364,
                "end_time": 105.4727273,
                "pitch": 55,
                "velocity": 101,
                "duration": 0.0840909,
                "tempo": 120.0
            },
            {
                "start_time": 105.4886364,
                "end_time": 105.5727273,
                "pitch": 43,
                "velocity": 101,
                "duration": 0.0840909,
                "tempo": 120.0
            },
            {
                "start_time": 105.5909091,
                "end_time": 105.6727273,
                "pitch": 43,
                "velocity": 127,
                "duration": 0.0818182,
                "tempo": 120.0
            },
            {
                "start_time": 105.6909091,
                "end_time": 105.7727273,
                "pitch": 43,
                "velocity": 101,
                "duration": 0.0818182,
                "tempo": 120.0
            },
            {
                "start_time": 105.7909091,
                "end_time": 105.8727273,
                "pitch": 55,
                "velocity": 101,
                "duration": 0.0818182,
                "tempo": 120.0
            },
            {
                "start_time": 105.8909091,
                "end_time": 105.9727273,
                "pitch": 43,
                "velocity": 101,
                "duration": 0.0818182,
                "tempo": 120.0
            },
            {
                "start_time": 105.9909091,
                "end_time": 106.075,
                "pitch": 43,
                "velocity": 127,
                "duration": 0.0840909,
                "tempo": 120.0
            },
            {
                "start_time": 106.0909091,
                "end_time": 106.175,
                "pitch": 43,
                "velocity": 101,
                "duration": 0.0840909,
                "tempo": 120.0
            },
            {
                "start_time": 106.1931818,
                "end_time": 106.275,
                "pitch": 55,
                "velocity": 101,
                "duration": 0.0818182,
                "tempo": 120.0
            },
            {
                "start_time": 106.2931818,
                "end_time": 106.3772727,
                "pitch": 43,
                "velocity": 101,
                "duration": 0.0840909,
                "tempo": 120.0
            },
            {
                "start_time": 106.3954545,
                "end_time": 106.4772727,
                "pitch": 47,
                "velocity": 127,
                "duration": 0.0818182,
                "tempo": 120.0
            },
            {
                "start_time": 106.4954545,
                "end_time": 106.5795455,
                "pitch": 47,
                "velocity": 101,
                "duration": 0.0840909,
                "tempo": 120.0
            },
            {
                "start_time": 106.5954545,
                "end_time": 106.6795455,
                "pitch": 59,
                "velocity": 101,
                "duration": 0.0840909,
                "tempo": 120.0
            },
            {
                "start_time": 106.6977273,
                "end_time": 106.7795455,
                "pitch": 47,
                "velocity": 101,
                "duration": 0.0818182,
                "tempo": 120.0
            },
            {
                "start_time": 106.7977273,
                "end_time": 106.8795455,
                "pitch": 47,
                "velocity": 127,
                "duration": 0.0818182,
                "tempo": 120.0
            },
            {
                "start_time": 106.8977273,
                "end_time": 106.9795455,
                "pitch": 47,
                "velocity": 101,
                "duration": 0.0818182,
                "tempo": 120.0
            },
            {
                "start_time": 106.9977273,
                "end_time": 107.0795455,
                "pitch": 59,
                "velocity": 101,
                "duration": 0.0818182,
                "tempo": 120.0
            },
            {
                "start_time": 107.0977273,
                "end_time": 107.1795455,
                "pitch": 47,
                "velocity": 101,
                "duration": 0.0818182,
                "tempo": 120.0
            },
            {
                "start_time": 107.1977273,
                "end_time": 107.2818182,
                "pitch": 47,
                "velocity": 127,
                "duration": 0.0840909,
                "tempo": 120.0
            },
            {
                "start_time": 107.2977273,
                "end_time": 107.3818182,
                "pitch": 47,
                "velocity": 101,
                "duration": 0.0840909,
                "tempo": 120.0
            },
            {
                "start_time": 107.4,
                "end_time": 107.4818182,
                "pitch": 59,
                "velocity": 101,
                "duration": 0.0818182,
                "tempo": 120.0
            },
            {
                "start_time": 107.5,
                "end_time": 107.5840909,
                "pitch": 47,
                "velocity": 101,
                "duration": 0.0840909,
                "tempo": 120.0
            },
            {
                "start_time": 107.6022727,
                "end_time": 107.6840909,
                "pitch": 47,
                "velocity": 127,
                "duration": 0.0818182,
                "tempo": 120.0
            },
            {
                "start_time": 107.7022727,
                "end_time": 107.7840909,
                "pitch": 47,
                "velocity": 101,
                "duration": 0.0818182,
                "tempo": 120.0
            },
            {
                "start_time": 107.8022727,
                "end_time": 107.8840909,
                "pitch": 59,
                "velocity": 101,
                "duration": 0.0818182,
                "tempo": 120.0
            },
            {
                "start_time": 107.9022727,
                "end_time": 107.9840909,
                "pitch": 47,
                "velocity": 101,
                "duration": 0.0818182,
                "tempo": 120.0
            },
            {
                "start_time": 108.0022727,
                "end_time": 108.0840909,
                "pitch": 45,
                "velocity": 127,
                "duration": 0.0818182,
                "tempo": 120.0
            },
            {
                "start_time": 108.1022727,
                "end_time": 108.1863636,
                "pitch": 45,
                "velocity": 101,
                "duration": 0.0840909,
                "tempo": 120.0
            },
            {
                "start_time": 108.2022727,
                "end_time": 108.2863636,
                "pitch": 57,
                "velocity": 101,
                "duration": 0.0840909,
                "tempo": 120.0
            },
            {
                "start_time": 108.3045455,
                "end_time": 108.3863636,
                "pitch": 45,
                "velocity": 101,
                "duration": 0.0818182,
                "tempo": 120.0
            },
            {
                "start_time": 108.4045455,
                "end_time": 108.4886364,
                "pitch": 45,
                "velocity": 127,
                "duration": 0.0840909,
                "tempo": 120.0
            },
            {
                "start_time": 108.5068182,
                "end_time": 108.5886364,
                "pitch": 45,
                "velocity": 101,
                "duration": 0.0818182,
                "tempo": 120.0
            },
            {
                "start_time": 108.6068182,
                "end_time": 108.6909091,
                "pitch": 57,
                "velocity": 101,
                "duration": 0.0840909,
                "tempo": 120.0
            },
            {
                "start_time": 108.7068182,
                "end_time": 108.7909091,
                "pitch": 45,
                "velocity": 101,
                "duration": 0.0840909,
                "tempo": 120.0
            },
            {
                "start_time": 108.8090909,
                "end_time": 108.8909091,
                "pitch": 45,
                "velocity": 127,
                "duration": 0.0818182,
                "tempo": 120.0
            },
            {
                "start_time": 108.9090909,
                "end_time": 108.9909091,
                "pitch": 45,
                "velocity": 101,
                "duration": 0.0818182,
                "tempo": 120.0
            },
            {
                "start_time": 109.0090909,
                "end_time": 109.0909091,
                "pitch": 57,
                "velocity": 101,
                "duration": 0.0818182,
                "tempo": 120.0
            },
            {
                "start_time": 109.1090909,
                "end_time": 109.1909091,
                "pitch": 45,
                "velocity": 101,
                "duration": 0.0818182,
                "tempo": 120.0
            },
            {
                "start_time": 109.2090909,
                "end_time": 109.2909091,
                "pitch": 45,
                "velocity": 127,
                "duration": 0.0818182,
                "tempo": 120.0
            },
            {
                "start_time": 109.3090909,
                "end_time": 109.3931818,
                "pitch": 45,
                "velocity": 101,
                "duration": 0.0840909,
                "tempo": 120.0
            },
            {
                "start_time": 109.4113636,
                "end_time": 109.4931818,
                "pitch": 57,
                "velocity": 101,
                "duration": 0.0818182,
                "tempo": 120.0
            },
            {
                "start_time": 109.5113636,
                "end_time": 109.5954545,
                "pitch": 45,
                "velocity": 101,
                "duration": 0.0840909,
                "tempo": 120.0
            },
            {
                "start_time": 109.6136364,
                "end_time": 109.6977273,
                "pitch": 45,
                "velocity": 127,
                "duration": 0.0840909,
                "tempo": 120.0
            },
            {
                "start_time": 109.7136364,
                "end_time": 109.8,
                "pitch": 45,
                "velocity": 101,
                "duration": 0.0863636,
                "tempo": 120.0
            },
            {
                "start_time": 109.8181818,
                "end_time": 109.9022727,
                "pitch": 57,
                "velocity": 101,
                "duration": 0.0840909,
                "tempo": 120.0
            },
            {
                "start_time": 109.9204545,
                "end_time": 110.0045455,
                "pitch": 45,
                "velocity": 101,
                "duration": 0.0840909,
                "tempo": 120.0
            },
            {
                "start_time": 110.0227273,
                "end_time": 110.1045455,
                "pitch": 45,
                "velocity": 127,
                "duration": 0.0818182,
                "tempo": 120.0
            },
            {
                "start_time": 110.1204545,
                "end_time": 110.2022727,
                "pitch": 45,
                "velocity": 101,
                "duration": 0.0818182,
                "tempo": 120.0
            },
            {
                "start_time": 110.2204545,
                "end_time": 110.3,
                "pitch": 57,
                "velocity": 101,
                "duration": 0.0795455,
                "tempo": 120.0
            },
            {
                "start_time": 110.3181818,
                "end_time": 110.3977273,
                "pitch": 45,
                "velocity": 101,
                "duration": 0.0795455,
                "tempo": 120.0
            },
            {
                "start_time": 110.4159091,
                "end_time": 110.5,
                "pitch": 45,
                "velocity": 127,
                "duration": 0.0840909,
                "tempo": 120.0
            },
            {
                "start_time": 110.5159091,
                "end_time": 110.6,
                "pitch": 45,
                "velocity": 101,
                "duration": 0.0840909,
                "tempo": 120.0
            },
            {
                "start_time": 110.6181818,
                "end_time": 110.7,
                "pitch": 57,
                "velocity": 101,
                "duration": 0.0818182,
                "tempo": 120.0
            },
            {
                "start_time": 110.7181818,
                "end_time": 110.8022727,
                "pitch": 45,
                "velocity": 101,
                "duration": 0.0840909,
                "tempo": 120.0
            },
            {
                "start_time": 110.8181818,
                "end_time": 110.9022727,
                "pitch": 45,
                "velocity": 127,
                "duration": 0.0840909,
                "tempo": 120.0
            },
            {
                "start_time": 110.9181818,
                "end_time": 111.0022727,
                "pitch": 45,
                "velocity": 101,
                "duration": 0.0840909,
                "tempo": 120.0
            },
            {
                "start_time": 111.0204545,
                "end_time": 111.1022727,
                "pitch": 57,
                "velocity": 101,
                "duration": 0.0818182,
                "tempo": 120.0
            },
            {
                "start_time": 111.1204545,
                "end_time": 111.2022727,
                "pitch": 45,
                "velocity": 101,
                "duration": 0.0818182,
                "tempo": 120.0
            },
            {
                "start_time": 111.2204545,
                "end_time": 111.3045455,
                "pitch": 43,
                "velocity": 127,
                "duration": 0.0840909,
                "tempo": 120.0
            },
            {
                "start_time": 111.3227273,
                "end_time": 111.4068182,
                "pitch": 43,
                "velocity": 101,
                "duration": 0.0840909,
                "tempo": 120.0
            },
            {
                "start_time": 111.425,
                "end_time": 111.5090909,
                "pitch": 55,
                "velocity": 101,
                "duration": 0.0840909,
                "tempo": 120.0
            },
            {
                "start_time": 111.5272727,
                "end_time": 111.6136364,
                "pitch": 43,
                "velocity": 101,
                "duration": 0.0863636,
                "tempo": 120.0
            },
            {
                "start_time": 111.6318182,
                "end_time": 111.7136364,
                "pitch": 43,
                "velocity": 127,
                "duration": 0.0818182,
                "tempo": 120.0
            },
            {
                "start_time": 111.7318182,
                "end_time": 111.8159091,
                "pitch": 43,
                "velocity": 101,
                "duration": 0.0840909,
                "tempo": 120.0
            },
            {
                "start_time": 111.8318182,
                "end_time": 111.9159091,
                "pitch": 55,
                "velocity": 101,
                "duration": 0.0840909,
                "tempo": 120.0
            },
            {
                "start_time": 111.9340909,
                "end_time": 112.0159091,
                "pitch": 43,
                "velocity": 101,
                "duration": 0.0818182,
                "tempo": 120.0
            },
            {
                "start_time": 112.0340909,
                "end_time": 112.1181818,
                "pitch": 43,
                "velocity": 127,
                "duration": 0.0840909,
                "tempo": 120.0
            },
            {
                "start_time": 112.1340909,
                "end_time": 112.2181818,
                "pitch": 43,
                "velocity": 101,
                "duration": 0.0840909,
                "tempo": 120.0
            },
            {
                "start_time": 112.2363636,
                "end_time": 112.3181818,
                "pitch": 55,
                "velocity": 101,
                "duration": 0.0818182,
                "tempo": 120.0
            },
            {
                "start_time": 112.3363636,
                "end_time": 112.4204545,
                "pitch": 43,
                "velocity": 101,
                "duration": 0.0840909,
                "tempo": 120.0
            },
            {
                "start_time": 112.4386364,
                "end_time": 112.5204545,
                "pitch": 43,
                "velocity": 127,
                "duration": 0.0818182,
                "tempo": 120.0
            },
            {
                "start_time": 112.5386364,
                "end_time": 112.6204545,
                "pitch": 43,
                "velocity": 101,
                "duration": 0.0818182,
                "tempo": 120.0
            },
            {
                "start_time": 112.6386364,
                "end_time": 112.7204545,
                "pitch": 55,
                "velocity": 101,
                "duration": 0.0818182,
                "tempo": 120.0
            },
            {
                "start_time": 112.7386364,
                "end_time": 112.8204545,
                "pitch": 43,
                "velocity": 101,
                "duration": 0.0818182,
                "tempo": 120.0
            },
            {
                "start_time": 112.8386364,
                "end_time": 112.9204545,
                "pitch": 47,
                "velocity": 127,
                "duration": 0.0818182,
                "tempo": 120.0
            },
            {
                "start_time": 112.9386364,
                "end_time": 113.0227273,
                "pitch": 47,
                "velocity": 101,
                "duration": 0.0840909,
                "tempo": 120.0
            },
            {
                "start_time": 113.0386364,
                "end_time": 113.1227273,
                "pitch": 59,
                "velocity": 101,
                "duration": 0.0840909,
                "tempo": 120.0
            },
            {
                "start_time": 113.1409091,
                "end_time": 113.2227273,
                "pitch": 47,
                "velocity": 101,
                "duration": 0.0818182,
                "tempo": 120.0
            },
            {
                "start_time": 113.2409091,
                "end_time": 113.325,
                "pitch": 47,
                "velocity": 127,
                "duration": 0.0840909,
                "tempo": 120.0
            },
            {
                "start_time": 113.3409091,
                "end_time": 113.425,
                "pitch": 47,
                "velocity": 101,
                "duration": 0.0840909,
                "tempo": 120.0
            },
            {
                "start_time": 113.4409091,
                "end_time": 113.525,
                "pitch": 59,
                "velocity": 101,
                "duration": 0.0840909,
                "tempo": 120.0
            },
            {
                "start_time": 113.5409091,
                "end_time": 113.625,
                "pitch": 47,
                "velocity": 101,
                "duration": 0.0840909,
                "tempo": 120.0
            },
            {
                "start_time": 113.6409091,
                "end_time": 113.725,
                "pitch": 47,
                "velocity": 127,
                "duration": 0.0840909,
                "tempo": 120.0
            },
            {
                "start_time": 113.7431818,
                "end_time": 113.825,
                "pitch": 47,
                "velocity": 101,
                "duration": 0.0818182,
                "tempo": 120.0
            },
            {
                "start_time": 113.8431818,
                "end_time": 113.9272727,
                "pitch": 59,
                "velocity": 101,
                "duration": 0.0840909,
                "tempo": 120.0
            },
            {
                "start_time": 113.9431818,
                "end_time": 114.0272727,
                "pitch": 47,
                "velocity": 101,
                "duration": 0.0840909,
                "tempo": 120.0
            },
            {
                "start_time": 114.0454545,
                "end_time": 114.1272727,
                "pitch": 47,
                "velocity": 127,
                "duration": 0.0818182,
                "tempo": 120.0
            },
            {
                "start_time": 114.1454545,
                "end_time": 114.2295455,
                "pitch": 47,
                "velocity": 101,
                "duration": 0.0840909,
                "tempo": 120.0
            },
            {
                "start_time": 114.2477273,
                "end_time": 114.3295455,
                "pitch": 59,
                "velocity": 101,
                "duration": 0.0818182,
                "tempo": 120.0
            },
            {
                "start_time": 114.3477273,
                "end_time": 114.4295455,
                "pitch": 47,
                "velocity": 101,
                "duration": 0.0818182,
                "tempo": 120.0
            },
            {
                "start_time": 114.45,
                "end_time": 114.5318182,
                "pitch": 45,
                "velocity": 127,
                "duration": 0.0818182,
                "tempo": 120.0
            },
            {
                "start_time": 114.5477273,
                "end_time": 114.6318182,
                "pitch": 45,
                "velocity": 101,
                "duration": 0.0840909,
                "tempo": 120.0
            },
            {
                "start_time": 114.6477273,
                "end_time": 114.7318182,
                "pitch": 57,
                "velocity": 101,
                "duration": 0.0840909,
                "tempo": 120.0
            },
            {
                "start_time": 114.7477273,
                "end_time": 114.8318182,
                "pitch": 45,
                "velocity": 101,
                "duration": 0.0840909,
                "tempo": 120.0
            },
            {
                "start_time": 114.8477273,
                "end_time": 114.9318182,
                "pitch": 45,
                "velocity": 127,
                "duration": 0.0840909,
                "tempo": 120.0
            },
            {
                "start_time": 114.95,
                "end_time": 115.0318182,
                "pitch": 45,
                "velocity": 101,
                "duration": 0.0818182,
                "tempo": 120.0
            },
            {
                "start_time": 115.05,
                "end_time": 115.1340909,
                "pitch": 57,
                "velocity": 101,
                "duration": 0.0840909,
                "tempo": 120.0
            },
            {
                "start_time": 115.15,
                "end_time": 115.2340909,
                "pitch": 45,
                "velocity": 101,
                "duration": 0.0840909,
                "tempo": 120.0
            },
            {
                "start_time": 115.2522727,
                "end_time": 115.3340909,
                "pitch": 45,
                "velocity": 127,
                "duration": 0.0818182,
                "tempo": 120.0
            },
            {
                "start_time": 115.3522727,
                "end_time": 115.4340909,
                "pitch": 45,
                "velocity": 101,
                "duration": 0.0818182,
                "tempo": 120.0
            },
            {
                "start_time": 115.4522727,
                "end_time": 115.5340909,
                "pitch": 57,
                "velocity": 101,
                "duration": 0.0818182,
                "tempo": 120.0
            },
            {
                "start_time": 115.5522727,
                "end_time": 115.6340909,
                "pitch": 45,
                "velocity": 101,
                "duration": 0.0818182,
                "tempo": 120.0
            },
            {
                "start_time": 115.6522727,
                "end_time": 115.7363636,
                "pitch": 45,
                "velocity": 127,
                "duration": 0.0840909,
                "tempo": 120.0
            },
            {
                "start_time": 115.7522727,
                "end_time": 115.8363636,
                "pitch": 45,
                "velocity": 101,
                "duration": 0.0840909,
                "tempo": 120.0
            },
            {
                "start_time": 115.8545455,
                "end_time": 115.9363636,
                "pitch": 57,
                "velocity": 101,
                "duration": 0.0818182,
                "tempo": 120.0
            },
            {
                "start_time": 115.9545455,
                "end_time": 116.0386364,
                "pitch": 45,
                "velocity": 101,
                "duration": 0.0840909,
                "tempo": 120.0
            },
            {
                "start_time": 116.0613636,
                "end_time": 116.1409091,
                "pitch": 45,
                "velocity": 127,
                "duration": 0.0795455,
                "tempo": 120.0
            },
            {
                "start_time": 116.1590909,
                "end_time": 116.2431818,
                "pitch": 48,
                "velocity": 101,
                "duration": 0.0840909,
                "tempo": 120.0
            },
            {
                "start_time": 116.2613636,
                "end_time": 116.3454545,
                "pitch": 47,
                "velocity": 101,
                "duration": 0.0840909,
                "tempo": 120.0
            },
            {
                "start_time": 116.3636364,
                "end_time": 116.45,
                "pitch": 48,
                "velocity": 101,
                "duration": 0.0863636,
                "tempo": 120.0
            },
            {
                "start_time": 116.4681818,
                "end_time": 116.5477273,
                "pitch": 45,
                "velocity": 127,
                "duration": 0.0795455,
                "tempo": 120.0
            },
            {
                "start_time": 116.5659091,
                "end_time": 116.6454545,
                "pitch": 48,
                "velocity": 101,
                "duration": 0.0795455,
                "tempo": 120.0
            },
            {
                "start_time": 116.6636364,
                "end_time": 116.7431818,
                "pitch": 47,
                "velocity": 101,
                "duration": 0.0795455,
                "tempo": 120.0
            },
            {
                "start_time": 116.7613636,
                "end_time": 116.8431818,
                "pitch": 48,
                "velocity": 101,
                "duration": 0.0818182,
                "tempo": 120.0
            },
            {
                "start_time": 116.8590909,
                "end_time": 116.9431818,
                "pitch": 45,
                "velocity": 127,
                "duration": 0.0840909,
                "tempo": 120.0
            },
            {
                "start_time": 116.9613636,
                "end_time": 117.0431818,
                "pitch": 48,
                "velocity": 101,
                "duration": 0.0818182,
                "tempo": 120.0
            },
            {
                "start_time": 117.0613636,
                "end_time": 117.1454545,
                "pitch": 47,
                "velocity": 101,
                "duration": 0.0840909,
                "tempo": 120.0
            },
            {
                "start_time": 117.1613636,
                "end_time": 117.2454545,
                "pitch": 48,
                "velocity": 101,
                "duration": 0.0840909,
                "tempo": 120.0
            },
            {
                "start_time": 117.2636364,
                "end_time": 117.3454545,
                "pitch": 45,
                "velocity": 127,
                "duration": 0.0818182,
                "tempo": 120.0
            },
            {
                "start_time": 117.3636364,
                "end_time": 117.4454545,
                "pitch": 48,
                "velocity": 101,
                "duration": 0.0818182,
                "tempo": 120.0
            },
            {
                "start_time": 117.4636364,
                "end_time": 117.5454545,
                "pitch": 47,
                "velocity": 101,
                "duration": 0.0818182,
                "tempo": 120.0
            },
            {
                "start_time": 117.5636364,
                "end_time": 117.6454545,
                "pitch": 48,
                "velocity": 101,
                "duration": 0.0818182,
                "tempo": 120.0
            },
            {
                "start_time": 117.6659091,
                "end_time": 117.7477273,
                "pitch": 43,
                "velocity": 127,
                "duration": 0.0818182,
                "tempo": 120.0
            },
            {
                "start_time": 117.7659091,
                "end_time": 117.85,
                "pitch": 47,
                "velocity": 101,
                "duration": 0.0840909,
                "tempo": 120.0
            },
            {
                "start_time": 117.8681818,
                "end_time": 117.9545455,
                "pitch": 45,
                "velocity": 101,
                "duration": 0.0863636,
                "tempo": 120.0
            },
            {
                "start_time": 117.9704545,
                "end_time": 118.0568182,
                "pitch": 47,
                "velocity": 101,
                "duration": 0.0863636,
                "tempo": 120.0
            },
            {
                "start_time": 118.075,
                "end_time": 118.1568182,
                "pitch": 43,
                "velocity": 127,
                "duration": 0.0818182,
                "tempo": 120.0
            },
            {
                "start_time": 118.175,
                "end_time": 118.2568182,
                "pitch": 47,
                "velocity": 101,
                "duration": 0.0818182,
                "tempo": 120.0
            },
            {
                "start_time": 118.275,
                "end_time": 118.3568182,
                "pitch": 45,
                "velocity": 101,
                "duration": 0.0818182,
                "tempo": 120.0
            },
            {
                "start_time": 118.375,
                "end_time": 118.4568182,
                "pitch": 47,
                "velocity": 101,
                "duration": 0.0818182,
                "tempo": 120.0
            },
            {
                "start_time": 118.475,
                "end_time": 118.5568182,
                "pitch": 43,
                "velocity": 127,
                "duration": 0.0818182,
                "tempo": 120.0
            },
            {
                "start_time": 118.5727273,
                "end_time": 118.6545455,
                "pitch": 47,
                "velocity": 101,
                "duration": 0.0818182,
                "tempo": 120.0
            },
            {
                "start_time": 118.6704545,
                "end_time": 118.7522727,
                "pitch": 45,
                "velocity": 101,
                "duration": 0.0818182,
                "tempo": 120.0
            },
            {
                "start_time": 118.7704545,
                "end_time": 118.85,
                "pitch": 47,
                "velocity": 101,
                "duration": 0.0795455,
                "tempo": 120.0
            },
            {
                "start_time": 118.8681818,
                "end_time": 118.9522727,
                "pitch": 43,
                "velocity": 127,
                "duration": 0.0840909,
                "tempo": 120.0
            },
            {
                "start_time": 118.9681818,
                "end_time": 119.0522727,
                "pitch": 47,
                "velocity": 101,
                "duration": 0.0840909,
                "tempo": 120.0
            },
            {
                "start_time": 119.0681818,
                "end_time": 119.1522727,
                "pitch": 45,
                "velocity": 101,
                "duration": 0.0840909,
                "tempo": 120.0
            },
            {
                "start_time": 119.1704545,
                "end_time": 119.2545455,
                "pitch": 47,
                "velocity": 101,
                "duration": 0.0840909,
                "tempo": 120.0
            },
            {
                "start_time": 119.2727273,
                "end_time": 119.3568182,
                "pitch": 47,
                "velocity": 127,
                "duration": 0.0840909,
                "tempo": 120.0
            },
            {
                "start_time": 119.3727273,
                "end_time": 119.4590909,
                "pitch": 50,
                "velocity": 101,
                "duration": 0.0863636,
                "tempo": 120.0
            },
            {
                "start_time": 119.4772727,
                "end_time": 119.5613636,
                "pitch": 48,
                "velocity": 101,
                "duration": 0.0840909,
                "tempo": 120.0
            },
            {
                "start_time": 119.5795455,
                "end_time": 119.6636364,
                "pitch": 50,
                "velocity": 101,
                "duration": 0.0840909,
                "tempo": 120.0
            },
            {
                "start_time": 119.6840909,
                "end_time": 119.7659091,
                "pitch": 47,
                "velocity": 127,
                "duration": 0.0818182,
                "tempo": 120.0
            },
            {
                "start_time": 119.7840909,
                "end_time": 119.8659091,
                "pitch": 50,
                "velocity": 101,
                "duration": 0.0818182,
                "tempo": 120.0
            },
            {
                "start_time": 119.8840909,
                "end_time": 119.9681818,
                "pitch": 48,
                "velocity": 101,
                "duration": 0.0840909,
                "tempo": 120.0
            },
            {
                "start_time": 119.9840909,
                "end_time": 120.0681818,
                "pitch": 50,
                "velocity": 101,
                "duration": 0.0840909,
                "tempo": 120.0
            },
            {
                "start_time": 120.0863636,
                "end_time": 120.1681818,
                "pitch": 47,
                "velocity": 127,
                "duration": 0.0818182,
                "tempo": 120.0
            },
            {
                "start_time": 120.1863636,
                "end_time": 120.2681818,
                "pitch": 50,
                "velocity": 101,
                "duration": 0.0818182,
                "tempo": 120.0
            },
            {
                "start_time": 120.2863636,
                "end_time": 120.3681818,
                "pitch": 48,
                "velocity": 101,
                "duration": 0.0818182,
                "tempo": 120.0
            },
            {
                "start_time": 120.3863636,
                "end_time": 120.4681818,
                "pitch": 50,
                "velocity": 101,
                "duration": 0.0818182,
                "tempo": 120.0
            },
            {
                "start_time": 120.4863636,
                "end_time": 120.5704545,
                "pitch": 47,
                "velocity": 127,
                "duration": 0.0840909,
                "tempo": 120.0
            },
            {
                "start_time": 120.5863636,
                "end_time": 120.6704545,
                "pitch": 50,
                "velocity": 101,
                "duration": 0.0840909,
                "tempo": 120.0
            },
            {
                "start_time": 120.6886364,
                "end_time": 120.7704545,
                "pitch": 48,
                "velocity": 101,
                "duration": 0.0818182,
                "tempo": 120.0
            },
            {
                "start_time": 120.7886364,
                "end_time": 120.8727273,
                "pitch": 50,
                "velocity": 101,
                "duration": 0.0840909,
                "tempo": 120.0
            },
            {
                "start_time": 120.8909091,
                "end_time": 120.9727273,
                "pitch": 45,
                "velocity": 127,
                "duration": 0.0818182,
                "tempo": 120.0
            },
            {
                "start_time": 120.9886364,
                "end_time": 121.0727273,
                "pitch": 48,
                "velocity": 101,
                "duration": 0.0840909,
                "tempo": 120.0
            },
            {
                "start_time": 121.0909091,
                "end_time": 121.1727273,
                "pitch": 47,
                "velocity": 101,
                "duration": 0.0818182,
                "tempo": 120.0
            },
            {
                "start_time": 121.1909091,
                "end_time": 121.2727273,
                "pitch": 48,
                "velocity": 101,
                "duration": 0.0818182,
                "tempo": 120.0
            },
            {
                "start_time": 121.2909091,
                "end_time": 121.3727273,
                "pitch": 45,
                "velocity": 127,
                "duration": 0.0818182,
                "tempo": 120.0
            },
            {
                "start_time": 121.3909091,
                "end_time": 121.475,
                "pitch": 48,
                "velocity": 101,
                "duration": 0.0840909,
                "tempo": 120.0
            },
            {
                "start_time": 121.4909091,
                "end_time": 121.575,
                "pitch": 47,
                "velocity": 101,
                "duration": 0.0840909,
                "tempo": 120.0
            },
            {
                "start_time": 121.5931818,
                "end_time": 121.675,
                "pitch": 48,
                "velocity": 101,
                "duration": 0.0818182,
                "tempo": 120.0
            },
            {
                "start_time": 121.6931818,
                "end_time": 121.7772727,
                "pitch": 45,
                "velocity": 127,
                "duration": 0.0840909,
                "tempo": 120.0
            },
            {
                "start_time": 121.7931818,
                "end_time": 121.8772727,
                "pitch": 48,
                "velocity": 101,
                "duration": 0.0840909,
                "tempo": 120.0
            },
            {
                "start_time": 121.8954545,
                "end_time": 121.9772727,
                "pitch": 47,
                "velocity": 101,
                "duration": 0.0818182,
                "tempo": 120.0
            },
            {
                "start_time": 121.9954545,
                "end_time": 122.0795455,
                "pitch": 48,
                "velocity": 101,
                "duration": 0.0840909,
                "tempo": 120.0
            },
            {
                "start_time": 122.0977273,
                "end_time": 122.1795455,
                "pitch": 45,
                "velocity": 127,
                "duration": 0.0818182,
                "tempo": 120.0
            },
            {
                "start_time": 122.1954545,
                "end_time": 122.2795455,
                "pitch": 48,
                "velocity": 101,
                "duration": 0.0840909,
                "tempo": 120.0
            },
            {
                "start_time": 122.2954545,
                "end_time": 122.3795455,
                "pitch": 47,
                "velocity": 101,
                "duration": 0.0840909,
                "tempo": 120.0
            },
            {
                "start_time": 122.3977273,
                "end_time": 122.4795455,
                "pitch": 48,
                "velocity": 101,
                "duration": 0.0818182,
                "tempo": 120.0
            },
            {
                "start_time": 122.5,
                "end_time": 122.5795455,
                "pitch": 45,
                "velocity": 127,
                "duration": 0.0795455,
                "tempo": 120.0
            },
            {
                "start_time": 122.5977273,
                "end_time": 122.6818182,
                "pitch": 48,
                "velocity": 101,
                "duration": 0.0840909,
                "tempo": 120.0
            },
            {
                "start_time": 122.7,
                "end_time": 122.7818182,
                "pitch": 47,
                "velocity": 101,
                "duration": 0.0818182,
                "tempo": 120.0
            },
            {
                "start_time": 122.8,
                "end_time": 122.8818182,
                "pitch": 48,
                "velocity": 101,
                "duration": 0.0818182,
                "tempo": 120.0
            },
            {
                "start_time": 122.9022727,
                "end_time": 122.9818182,
                "pitch": 45,
                "velocity": 127,
                "duration": 0.0795455,
                "tempo": 120.0
            },
            {
                "start_time": 123.0,
                "end_time": 123.0840909,
                "pitch": 48,
                "velocity": 101,
                "duration": 0.0840909,
                "tempo": 120.0
            },
            {
                "start_time": 123.1,
                "end_time": 123.1840909,
                "pitch": 47,
                "velocity": 101,
                "duration": 0.0840909,
                "tempo": 120.0
            },
            {
                "start_time": 123.2,
                "end_time": 123.2840909,
                "pitch": 48,
                "velocity": 101,
                "duration": 0.0840909,
                "tempo": 120.0
            },
            {
                "start_time": 123.3022727,
                "end_time": 123.3840909,
                "pitch": 45,
                "velocity": 127,
                "duration": 0.0818182,
                "tempo": 120.0
            },
            {
                "start_time": 123.4022727,
                "end_time": 123.4840909,
                "pitch": 48,
                "velocity": 101,
                "duration": 0.0818182,
                "tempo": 120.0
            },
            {
                "start_time": 123.5022727,
                "end_time": 123.5863636,
                "pitch": 47,
                "velocity": 101,
                "duration": 0.0840909,
                "tempo": 120.0
            },
            {
                "start_time": 123.6022727,
                "end_time": 123.6863636,
                "pitch": 48,
                "velocity": 101,
                "duration": 0.0840909,
                "tempo": 120.0
            },
            {
                "start_time": 123.7045455,
                "end_time": 123.7863636,
                "pitch": 45,
                "velocity": 127,
                "duration": 0.0818182,
                "tempo": 120.0
            },
            {
                "start_time": 123.8045455,
                "end_time": 123.8886364,
                "pitch": 48,
                "velocity": 101,
                "duration": 0.0840909,
                "tempo": 120.0
            },
            {
                "start_time": 123.9045455,
                "end_time": 123.9886364,
                "pitch": 47,
                "velocity": 101,
                "duration": 0.0840909,
                "tempo": 120.0
            },
            {
                "start_time": 124.0068182,
                "end_time": 124.0886364,
                "pitch": 48,
                "velocity": 101,
                "duration": 0.0818182,
                "tempo": 120.0
            },
            {
                "start_time": 124.1090909,
                "end_time": 124.1909091,
                "pitch": 43,
                "velocity": 127,
                "duration": 0.0818182,
                "tempo": 120.0
            },
            {
                "start_time": 124.2090909,
                "end_time": 124.2954545,
                "pitch": 47,
                "velocity": 101,
                "duration": 0.0863636,
                "tempo": 120.0
            },
            {
                "start_time": 124.3136364,
                "end_time": 124.3977273,
                "pitch": 45,
                "velocity": 101,
                "duration": 0.0840909,
                "tempo": 120.0
            },
            {
                "start_time": 124.4159091,
                "end_time": 124.5,
                "pitch": 47,
                "velocity": 101,
                "duration": 0.0840909,
                "tempo": 120.0
            },
            {
                "start_time": 124.5204545,
                "end_time": 124.6,
                "pitch": 43,
                "velocity": 127,
                "duration": 0.0795455,
                "tempo": 120.0
            },
            {
                "start_time": 124.6159091,
                "end_time": 124.6977273,
                "pitch": 47,
                "velocity": 101,
                "duration": 0.0818182,
                "tempo": 120.0
            },
            {
                "start_time": 124.7136364,
                "end_time": 124.7954545,
                "pitch": 45,
                "velocity": 101,
                "duration": 0.0818182,
                "tempo": 120.0
            },
            {
                "start_time": 124.8136364,
                "end_time": 124.8931818,
                "pitch": 47,
                "velocity": 101,
                "duration": 0.0795455,
                "tempo": 120.0
            },
            {
                "start_time": 124.9113636,
                "end_time": 124.9931818,
                "pitch": 43,
                "velocity": 127,
                "duration": 0.0818182,
                "tempo": 120.0
            },
            {
                "start_time": 125.0113636,
                "end_time": 125.0931818,
                "pitch": 47,
                "velocity": 101,
                "duration": 0.0818182,
                "tempo": 120.0
            },
            {
                "start_time": 125.1113636,
                "end_time": 125.1931818,
                "pitch": 45,
                "velocity": 101,
                "duration": 0.0818182,
                "tempo": 120.0
            },
            {
                "start_time": 125.2113636,
                "end_time": 125.2931818,
                "pitch": 47,
                "velocity": 101,
                "duration": 0.0818182,
                "tempo": 120.0
            },
            {
                "start_time": 125.3113636,
                "end_time": 125.3954545,
                "pitch": 43,
                "velocity": 127,
                "duration": 0.0840909,
                "tempo": 120.0
            },
            {
                "start_time": 125.4113636,
                "end_time": 125.4954545,
                "pitch": 47,
                "velocity": 101,
                "duration": 0.0840909,
                "tempo": 120.0
            },
            {
                "start_time": 125.5136364,
                "end_time": 125.5954545,
                "pitch": 45,
                "velocity": 101,
                "duration": 0.0818182,
                "tempo": 120.0
            },
            {
                "start_time": 125.6136364,
                "end_time": 125.6977273,
                "pitch": 47,
                "velocity": 101,
                "duration": 0.0840909,
                "tempo": 120.0
            },
            {
                "start_time": 125.7159091,
                "end_time": 125.8,
                "pitch": 47,
                "velocity": 127,
                "duration": 0.0840909,
                "tempo": 120.0
            },
            {
                "start_time": 125.8181818,
                "end_time": 125.9022727,
                "pitch": 50,
                "velocity": 101,
                "duration": 0.0840909,
                "tempo": 120.0
            },
            {
                "start_time": 125.9204545,
                "end_time": 126.0045455,
                "pitch": 48,
                "velocity": 101,
                "duration": 0.0840909,
                "tempo": 120.0
            },
            {
                "start_time": 126.0227273,
                "end_time": 126.1090909,
                "pitch": 50,
                "velocity": 101,
                "duration": 0.0863636,
                "tempo": 120.0
            },
            {
                "start_time": 126.1272727,
                "end_time": 126.2068182,
                "pitch": 47,
                "velocity": 127,
                "duration": 0.0795455,
                "tempo": 120.0
            },
            {
                "start_time": 126.225,
                "end_time": 126.3045455,
                "pitch": 50,
                "velocity": 101,
                "duration": 0.0795455,
                "tempo": 120.0
            },
            {
                "start_time": 126.3227273,
                "end_time": 126.4022727,
                "pitch": 48,
                "velocity": 101,
                "duration": 0.0795455,
                "tempo": 120.0
            },
            {
                "start_time": 126.4204545,
                "end_time": 126.5022727,
                "pitch": 50,
                "velocity": 101,
                "duration": 0.0818182,
                "tempo": 120.0
            },
            {
                "start_time": 126.5204545,
                "end_time": 126.6022727,
                "pitch": 47,
                "velocity": 127,
                "duration": 0.0818182,
                "tempo": 120.0
            },
            {
                "start_time": 126.6204545,
                "end_time": 126.7022727,
                "pitch": 50,
                "velocity": 101,
                "duration": 0.0818182,
                "tempo": 120.0
            },
            {
                "start_time": 126.7204545,
                "end_time": 126.8045455,
                "pitch": 48,
                "velocity": 101,
                "duration": 0.0840909,
                "tempo": 120.0
            },
            {
                "start_time": 126.8204545,
                "end_time": 126.9045455,
                "pitch": 50,
                "velocity": 101,
                "duration": 0.0840909,
                "tempo": 120.0
            },
            {
                "start_time": 126.9227273,
                "end_time": 127.0045455,
                "pitch": 47,
                "velocity": 127,
                "duration": 0.0818182,
                "tempo": 120.0
            },
            {
                "start_time": 127.0227273,
                "end_time": 127.1045455,
                "pitch": 50,
                "velocity": 101,
                "duration": 0.0818182,
                "tempo": 120.0
            },
            {
                "start_time": 127.1227273,
                "end_time": 127.2045455,
                "pitch": 48,
                "velocity": 101,
                "duration": 0.0818182,
                "tempo": 120.0
            },
            {
                "start_time": 127.2227273,
                "end_time": 127.3045455,
                "pitch": 50,
                "velocity": 101,
                "duration": 0.0818182,
                "tempo": 120.0
            },
            {
                "start_time": 127.325,
                "end_time": 127.4068182,
                "pitch": 45,
                "velocity": 127,
                "duration": 0.0818182,
                "tempo": 120.0
            },
            {
                "start_time": 127.425,
                "end_time": 127.5090909,
                "pitch": 48,
                "velocity": 101,
                "duration": 0.0840909,
                "tempo": 120.0
            },
            {
                "start_time": 127.5295455,
                "end_time": 127.6136364,
                "pitch": 47,
                "velocity": 101,
                "duration": 0.0840909,
                "tempo": 120.0
            },
            {
                "start_time": 127.6318182,
                "end_time": 127.7159091,
                "pitch": 48,
                "velocity": 101,
                "duration": 0.0840909,
                "tempo": 120.0
            },
            {
                "start_time": 127.7363636,
                "end_time": 127.8159091,
                "pitch": 45,
                "velocity": 127,
                "duration": 0.0795455,
                "tempo": 120.0
            },
            {
                "start_time": 127.8340909,
                "end_time": 127.9159091,
                "pitch": 48,
                "velocity": 101,
                "duration": 0.0818182,
                "tempo": 120.0
            },
            {
                "start_time": 127.9340909,
                "end_time": 128.0159091,
                "pitch": 47,
                "velocity": 101,
                "duration": 0.0818182,
                "tempo": 120.0
            },
            {
                "start_time": 128.0340909,
                "end_time": 128.1159091,
                "pitch": 48,
                "velocity": 101,
                "duration": 0.0818182,
                "tempo": 120.0
            },
            {
                "start_time": 128.1340909,
                "end_time": 128.2181818,
                "pitch": 45,
                "velocity": 127,
                "duration": 0.0840909,
                "tempo": 120.0
            },
            {
                "start_time": 128.2340909,
                "end_time": 128.3181818,
                "pitch": 48,
                "velocity": 101,
                "duration": 0.0840909,
                "tempo": 120.0
            },
            {
                "start_time": 128.3363636,
                "end_time": 128.4181818,
                "pitch": 47,
                "velocity": 101,
                "duration": 0.0818182,
                "tempo": 120.0
            },
            {
                "start_time": 128.4363636,
                "end_time": 128.5204545,
                "pitch": 48,
                "velocity": 101,
                "duration": 0.0840909,
                "tempo": 120.0
            },
            {
                "start_time": 128.5386364,
                "end_time": 128.6204545,
                "pitch": 45,
                "velocity": 127,
                "duration": 0.0818182,
                "tempo": 120.0
            },
            {
                "start_time": 128.6386364,
                "end_time": 128.7204545,
                "pitch": 48,
                "velocity": 101,
                "duration": 0.0818182,
                "tempo": 120.0
            },
            {
                "start_time": 128.7386364,
                "end_time": 128.8204545,
                "pitch": 47,
                "velocity": 101,
                "duration": 0.0818182,
                "tempo": 120.0
            },
            {
                "start_time": 128.8386364,
                "end_time": 128.9204545,
                "pitch": 48,
                "velocity": 101,
                "duration": 0.0818182,
                "tempo": 120.0
            },
            {
                "start_time": 128.9409091,
                "end_time": 129.1227273,
                "pitch": 45,
                "velocity": 127,
                "duration": 0.1818182,
                "tempo": 120.0
            },
            {
                "start_time": 129.1409091,
                "end_time": 129.2227273,
                "pitch": 45,
                "velocity": 101,
                "duration": 0.0818182,
                "tempo": 120.0
            },
            {
                "start_time": 129.2409091,
                "end_time": 129.3227273,
                "pitch": 57,
                "velocity": 101,
                "duration": 0.0818182,
                "tempo": 120.0
            },
            {
                "start_time": 129.3431818,
                "end_time": 129.525,
                "pitch": 45,
                "velocity": 127,
                "duration": 0.1818182,
                "tempo": 120.0
            },
            {
                "start_time": 129.5409091,
                "end_time": 129.625,
                "pitch": 45,
                "velocity": 101,
                "duration": 0.0840909,
                "tempo": 120.0
            },
            {
                "start_time": 129.6409091,
                "end_time": 129.725,
                "pitch": 57,
                "velocity": 101,
                "duration": 0.0840909,
                "tempo": 120.0
            },
            {
                "start_time": 129.7431818,
                "end_time": 129.925,
                "pitch": 45,
                "velocity": 127,
                "duration": 0.1818182,
                "tempo": 120.0
            },
            {
                "start_time": 129.9431818,
                "end_time": 130.0272727,
                "pitch": 45,
                "velocity": 101,
                "duration": 0.0840909,
                "tempo": 120.0
            },
            {
                "start_time": 130.0431818,
                "end_time": 130.1272727,
                "pitch": 57,
                "velocity": 101,
                "duration": 0.0840909,
                "tempo": 120.0
            },
            {
                "start_time": 130.1454545,
                "end_time": 130.3295455,
                "pitch": 45,
                "velocity": 127,
                "duration": 0.1840909,
                "tempo": 120.0
            },
            {
                "start_time": 130.3477273,
                "end_time": 130.4295455,
                "pitch": 45,
                "velocity": 101,
                "duration": 0.0818182,
                "tempo": 120.0
            },
            {
                "start_time": 130.4477273,
                "end_time": 130.5318182,
                "pitch": 57,
                "velocity": 101,
                "duration": 0.0840909,
                "tempo": 120.0
            },
            {
                "start_time": 130.55,
                "end_time": 130.7318182,
                "pitch": 43,
                "velocity": 127,
                "duration": 0.1818182,
                "tempo": 120.0
            },
            {
                "start_time": 130.75,
                "end_time": 130.8340909,
                "pitch": 43,
                "velocity": 101,
                "duration": 0.0840909,
                "tempo": 120.0
            },
            {
                "start_time": 130.85,
                "end_time": 130.9340909,
                "pitch": 55,
                "velocity": 101,
                "duration": 0.0840909,
                "tempo": 120.0
            },
            {
                "start_time": 130.9522727,
                "end_time": 131.1363636,
                "pitch": 43,
                "velocity": 127,
                "duration": 0.1840909,
                "tempo": 120.0
            },
            {
                "start_time": 131.1522727,
                "end_time": 131.2363636,
                "pitch": 43,
                "velocity": 101,
                "duration": 0.0840909,
                "tempo": 120.0
            },
            {
                "start_time": 131.2545455,
                "end_time": 131.3363636,
                "pitch": 55,
                "velocity": 101,
                "duration": 0.0818182,
                "tempo": 120.0
            },
            {
                "start_time": 131.3545455,
                "end_time": 131.5386364,
                "pitch": 43,
                "velocity": 127,
                "duration": 0.1840909,
                "tempo": 120.0
            },
            {
                "start_time": 131.5545455,
                "end_time": 131.6386364,
                "pitch": 43,
                "velocity": 101,
                "duration": 0.0840909,
                "tempo": 120.0
            },
            {
                "start_time": 131.6545455,
                "end_time": 131.7386364,
                "pitch": 55,
                "velocity": 101,
                "duration": 0.0840909,
                "tempo": 120.0
            },
            {
                "start_time": 131.7568182,
                "end_time": 131.9386364,
                "pitch": 43,
                "velocity": 127,
                "duration": 0.1818182,
                "tempo": 120.0
            },
            {
                "start_time": 131.9568182,
                "end_time": 132.0409091,
                "pitch": 43,
                "velocity": 101,
                "duration": 0.0840909,
                "tempo": 120.0
            },
            {
                "start_time": 132.0568182,
                "end_time": 132.1409091,
                "pitch": 55,
                "velocity": 101,
                "duration": 0.0840909,
                "tempo": 120.0
            },
            {
                "start_time": 132.1590909,
                "end_time": 132.3454545,
                "pitch": 47,
                "velocity": 127,
                "duration": 0.1863636,
                "tempo": 120.0
            },
            {
                "start_time": 132.3636364,
                "end_time": 132.4477273,
                "pitch": 47,
                "velocity": 101,
                "duration": 0.0840909,
                "tempo": 120.0
            },
            {
                "start_time": 132.4659091,
                "end_time": 132.5522727,
                "pitch": 59,
                "velocity": 101,
                "duration": 0.0863636,
                "tempo": 120.0
            },
            {
                "start_time": 132.5704545,
                "end_time": 132.75,
                "pitch": 47,
                "velocity": 127,
                "duration": 0.1795455,
                "tempo": 120.0
            },
            {
                "start_time": 132.7659091,
                "end_time": 132.8477273,
                "pitch": 47,
                "velocity": 101,
                "duration": 0.0818182,
                "tempo": 120.0
            },
            {
                "start_time": 132.8636364,
                "end_time": 132.9454545,
                "pitch": 59,
                "velocity": 101,
                "duration": 0.0818182,
                "tempo": 120.0
            },
            {
                "start_time": 132.9636364,
                "end_time": 133.1454545,
                "pitch": 47,
                "velocity": 127,
                "duration": 0.1818182,
                "tempo": 120.0
            },
            {
                "start_time": 133.1636364,
                "end_time": 133.2477273,
                "pitch": 47,
                "velocity": 101,
                "duration": 0.0840909,
                "tempo": 120.0
            },
            {
                "start_time": 133.2636364,
                "end_time": 133.3477273,
                "pitch": 59,
                "velocity": 101,
                "duration": 0.0840909,
                "tempo": 120.0
            },
            {
                "start_time": 133.3659091,
                "end_time": 133.5477273,
                "pitch": 47,
                "velocity": 127,
                "duration": 0.1818182,
                "tempo": 120.0
            },
            {
                "start_time": 133.5659091,
                "end_time": 133.6477273,
                "pitch": 47,
                "velocity": 101,
                "duration": 0.0818182,
                "tempo": 120.0
            },
            {
                "start_time": 133.6659091,
                "end_time": 133.7477273,
                "pitch": 59,
                "velocity": 101,
                "duration": 0.0818182,
                "tempo": 120.0
            },
            {
                "start_time": 133.7681818,
                "end_time": 133.9545455,
                "pitch": 45,
                "velocity": 127,
                "duration": 0.1863636,
                "tempo": 120.0
            },
            {
                "start_time": 133.9727273,
                "end_time": 134.0568182,
                "pitch": 45,
                "velocity": 101,
                "duration": 0.0840909,
                "tempo": 120.0
            },
            {
                "start_time": 134.075,
                "end_time": 134.1590909,
                "pitch": 57,
                "velocity": 101,
                "duration": 0.0840909,
                "tempo": 120.0
            },
            {
                "start_time": 134.1795455,
                "end_time": 134.3613636,
                "pitch": 45,
                "velocity": 127,
                "duration": 0.1818182,
                "tempo": 120.0
            },
            {
                "start_time": 134.3795455,
                "end_time": 134.4613636,
                "pitch": 45,
                "velocity": 101,
                "duration": 0.0818182,
                "tempo": 120.0
            },
            {
                "start_time": 134.4795455,
                "end_time": 134.5636364,
                "pitch": 57,
                "velocity": 101,
                "duration": 0.0840909,
                "tempo": 120.0
            },
            {
                "start_time": 134.5818182,
                "end_time": 134.7590909,
                "pitch": 45,
                "velocity": 127,
                "duration": 0.1772727,
                "tempo": 120.0
            },
            {
                "start_time": 134.7772727,
                "end_time": 134.8590909,
                "pitch": 45,
                "velocity": 101,
                "duration": 0.0818182,
                "tempo": 120.0
            },
            {
                "start_time": 134.875,
                "end_time": 134.9568182,
                "pitch": 57,
                "velocity": 101,
                "duration": 0.0818182,
                "tempo": 120.0
            },
            {
                "start_time": 134.9727273,
                "end_time": 135.1613636,
                "pitch": 45,
                "velocity": 127,
                "duration": 0.1886364,
                "tempo": 120.0
            },
            {
                "start_time": 135.1795455,
                "end_time": 135.2636364,
                "pitch": 45,
                "velocity": 101,
                "duration": 0.0840909,
                "tempo": 120.0
            },
            {
                "start_time": 135.2818182,
                "end_time": 135.3659091,
                "pitch": 57,
                "velocity": 101,
                "duration": 0.0840909,
                "tempo": 120.0
            },
            {
                "start_time": 135.3863636,
                "end_time": 135.5681818,
                "pitch": 45,
                "velocity": 127,
                "duration": 0.1818182,
                "tempo": 120.0
            },
            {
                "start_time": 135.5863636,
                "end_time": 135.6704545,
                "pitch": 45,
                "velocity": 101,
                "duration": 0.0840909,
                "tempo": 120.0
            },
            {
                "start_time": 135.6863636,
                "end_time": 135.7704545,
                "pitch": 57,
                "velocity": 101,
                "duration": 0.0840909,
                "tempo": 120.0
            },
            {
                "start_time": 135.7886364,
                "end_time": 135.9704545,
                "pitch": 45,
                "velocity": 127,
                "duration": 0.1818182,
                "tempo": 120.0
            },
            {
                "start_time": 135.9886364,
                "end_time": 136.0704545,
                "pitch": 45,
                "velocity": 101,
                "duration": 0.0818182,
                "tempo": 120.0
            },
            {
                "start_time": 136.0886364,
                "end_time": 136.1704545,
                "pitch": 57,
                "velocity": 101,
                "duration": 0.0818182,
                "tempo": 120.0
            },
            {
                "start_time": 136.1886364,
                "end_time": 136.3727273,
                "pitch": 45,
                "velocity": 127,
                "duration": 0.1840909,
                "tempo": 120.0
            },
            {
                "start_time": 136.3909091,
                "end_time": 136.4727273,
                "pitch": 45,
                "velocity": 101,
                "duration": 0.0818182,
                "tempo": 120.0
            },
            {
                "start_time": 136.4909091,
                "end_time": 136.575,
                "pitch": 57,
                "velocity": 101,
                "duration": 0.0840909,
                "tempo": 120.0
            },
            {
                "start_time": 136.5931818,
                "end_time": 136.775,
                "pitch": 45,
                "velocity": 127,
                "duration": 0.1818182,
                "tempo": 120.0
            },
            {
                "start_time": 136.7931818,
                "end_time": 136.8772727,
                "pitch": 45,
                "velocity": 101,
                "duration": 0.0840909,
                "tempo": 120.0
            },
            {
                "start_time": 136.8931818,
                "end_time": 136.9772727,
                "pitch": 57,
                "velocity": 101,
                "duration": 0.0840909,
                "tempo": 120.0
            },
            {
                "start_time": 136.9954545,
                "end_time": 137.1795455,
                "pitch": 43,
                "velocity": 127,
                "duration": 0.1840909,
                "tempo": 120.0
            },
            {
                "start_time": 137.1977273,
                "end_time": 137.2795455,
                "pitch": 43,
                "velocity": 101,
                "duration": 0.0818182,
                "tempo": 120.0
            },
            {
                "start_time": 137.2977273,
                "end_time": 137.3795455,
                "pitch": 55,
                "velocity": 101,
                "duration": 0.0818182,
                "tempo": 120.0
            },
            {
                "start_time": 137.4,
                "end_time": 137.5818182,
                "pitch": 43,
                "velocity": 127,
                "duration": 0.1818182,
                "tempo": 120.0
            },
            {
                "start_time": 137.6,
                "end_time": 137.6818182,
                "pitch": 43,
                "velocity": 101,
                "duration": 0.0818182,
                "tempo": 120.0
            },
            {
                "start_time": 137.7,
                "end_time": 137.7840909,
                "pitch": 55,
                "velocity": 101,
                "duration": 0.0840909,
                "tempo": 120.0
            },
            {
                "start_time": 137.8022727,
                "end_time": 137.9840909,
                "pitch": 43,
                "velocity": 127,
                "duration": 0.1818182,
                "tempo": 120.0
            },
            {
                "start_time": 138.0022727,
                "end_time": 138.0840909,
                "pitch": 43,
                "velocity": 101,
                "duration": 0.0818182,
                "tempo": 120.0
            },
            {
                "start_time": 138.1022727,
                "end_time": 138.1840909,
                "pitch": 55,
                "velocity": 101,
                "duration": 0.0818182,
                "tempo": 120.0
            },
            {
                "start_time": 138.2022727,
                "end_time": 138.3863636,
                "pitch": 43,
                "velocity": 127,
                "duration": 0.1840909,
                "tempo": 120.0
            },
            {
                "start_time": 138.4045455,
                "end_time": 138.4863636,
                "pitch": 43,
                "velocity": 101,
                "duration": 0.0818182,
                "tempo": 120.0
            },
            {
                "start_time": 138.5045455,
                "end_time": 138.5863636,
                "pitch": 55,
                "velocity": 101,
                "duration": 0.0818182,
                "tempo": 120.0
            },
            {
                "start_time": 138.6068182,
                "end_time": 138.7886364,
                "pitch": 47,
                "velocity": 127,
                "duration": 0.1818182,
                "tempo": 120.0
            },
            {
                "start_time": 138.8068182,
                "end_time": 138.8886364,
                "pitch": 47,
                "velocity": 101,
                "duration": 0.0818182,
                "tempo": 120.0
            },
            {
                "start_time": 138.9068182,
                "end_time": 138.9909091,
                "pitch": 59,
                "velocity": 101,
                "duration": 0.0840909,
                "tempo": 120.0
            },
            {
                "start_time": 139.0090909,
                "end_time": 139.1909091,
                "pitch": 47,
                "velocity": 127,
                "duration": 0.1818182,
                "tempo": 120.0
            },
            {
                "start_time": 139.2090909,
                "end_time": 139.2931818,
                "pitch": 47,
                "velocity": 101,
                "duration": 0.0840909,
                "tempo": 120.0
            },
            {
                "start_time": 139.3113636,
                "end_time": 139.3931818,
                "pitch": 59,
                "velocity": 101,
                "duration": 0.0818182,
                "tempo": 120.0
            },
            {
                "start_time": 139.4113636,
                "end_time": 139.5954545,
                "pitch": 47,
                "velocity": 127,
                "duration": 0.1840909,
                "tempo": 120.0
            },
            {
                "start_time": 139.6136364,
                "end_time": 139.6954545,
                "pitch": 47,
                "velocity": 101,
                "duration": 0.0818182,
                "tempo": 120.0
            },
            {
                "start_time": 139.7136364,
                "end_time": 139.7977273,
                "pitch": 59,
                "velocity": 101,
                "duration": 0.0840909,
                "tempo": 120.0
            },
            {
                "start_time": 139.8159091,
                "end_time": 139.9977273,
                "pitch": 47,
                "velocity": 127,
                "duration": 0.1818182,
                "tempo": 120.0
            },
            {
                "start_time": 140.0159091,
                "end_time": 140.0977273,
                "pitch": 47,
                "velocity": 101,
                "duration": 0.0818182,
                "tempo": 120.0
            },
            {
                "start_time": 140.1136364,
                "end_time": 140.1977273,
                "pitch": 59,
                "velocity": 101,
                "duration": 0.0840909,
                "tempo": 120.0
            },
            {
                "start_time": 140.2159091,
                "end_time": 140.4,
                "pitch": 45,
                "velocity": 127,
                "duration": 0.1840909,
                "tempo": 120.0
            },
            {
                "start_time": 140.4181818,
                "end_time": 140.5,
                "pitch": 45,
                "velocity": 101,
                "duration": 0.0818182,
                "tempo": 120.0
            },
            {
                "start_time": 140.5181818,
                "end_time": 140.6,
                "pitch": 57,
                "velocity": 101,
                "duration": 0.0818182,
                "tempo": 120.0
            },
            {
                "start_time": 140.6204545,
                "end_time": 140.8022727,
                "pitch": 45,
                "velocity": 127,
                "duration": 0.1818182,
                "tempo": 120.0
            },
            {
                "start_time": 140.8204545,
                "end_time": 140.9022727,
                "pitch": 45,
                "velocity": 101,
                "duration": 0.0818182,
                "tempo": 120.0
            },
            {
                "start_time": 140.9204545,
                "end_time": 141.0045455,
                "pitch": 57,
                "velocity": 101,
                "duration": 0.0840909,
                "tempo": 120.0
            },
            {
                "start_time": 141.0227273,
                "end_time": 141.2045455,
                "pitch": 45,
                "velocity": 127,
                "duration": 0.1818182,
                "tempo": 120.0
            },
            {
                "start_time": 141.2227273,
                "end_time": 141.3068182,
                "pitch": 45,
                "velocity": 101,
                "duration": 0.0840909,
                "tempo": 120.0
            },
            {
                "start_time": 141.3227273,
                "end_time": 141.4068182,
                "pitch": 57,
                "velocity": 101,
                "duration": 0.0840909,
                "tempo": 120.0
            },
            {
                "start_time": 141.425,
                "end_time": 141.6090909,
                "pitch": 45,
                "velocity": 127,
                "duration": 0.1840909,
                "tempo": 120.0
            },
            {
                "start_time": 141.625,
                "end_time": 141.7090909,
                "pitch": 45,
                "velocity": 101,
                "duration": 0.0840909,
                "tempo": 120.0
            },
            {
                "start_time": 141.7272727,
                "end_time": 141.8090909,
                "pitch": 57,
                "velocity": 101,
                "duration": 0.0818182,
                "tempo": 120.0
            },
            {
                "start_time": 141.8295455,
                "end_time": 141.9136364,
                "pitch": 45,
                "velocity": 127,
                "duration": 0.0840909,
                "tempo": 120.0
            },
            {
                "start_time": 141.9295455,
                "end_time": 142.0159091,
                "pitch": 45,
                "velocity": 101,
                "duration": 0.0863636,
                "tempo": 120.0
            },
            {
                "start_time": 142.0340909,
                "end_time": 142.1181818,
                "pitch": 57,
                "velocity": 101,
                "duration": 0.0840909,
                "tempo": 120.0
            },
            {
                "start_time": 142.1363636,
                "end_time": 142.2204545,
                "pitch": 45,
                "velocity": 101,
                "duration": 0.0840909,
                "tempo": 120.0
            },
            {
                "start_time": 142.2409091,
                "end_time": 142.3227273,
                "pitch": 45,
                "velocity": 127,
                "duration": 0.0818182,
                "tempo": 120.0
            },
            {
                "start_time": 142.3409091,
                "end_time": 142.4227273,
                "pitch": 45,
                "velocity": 101,
                "duration": 0.0818182,
                "tempo": 120.0
            },
            {
                "start_time": 142.4409091,
                "end_time": 142.525,
                "pitch": 57,
                "velocity": 101,
                "duration": 0.0840909,
                "tempo": 120.0
            },
            {
                "start_time": 142.5409091,
                "end_time": 142.625,
                "pitch": 45,
                "velocity": 101,
                "duration": 0.0840909,
                "tempo": 120.0
            },
            {
                "start_time": 142.6431818,
                "end_time": 142.725,
                "pitch": 45,
                "velocity": 127,
                "duration": 0.0818182,
                "tempo": 120.0
            },
            {
                "start_time": 142.7431818,
                "end_time": 142.825,
                "pitch": 45,
                "velocity": 101,
                "duration": 0.0818182,
                "tempo": 120.0
            },
            {
                "start_time": 142.8431818,
                "end_time": 142.925,
                "pitch": 57,
                "velocity": 101,
                "duration": 0.0818182,
                "tempo": 120.0
            },
            {
                "start_time": 142.9431818,
                "end_time": 143.025,
                "pitch": 45,
                "velocity": 101,
                "duration": 0.0818182,
                "tempo": 120.0
            },
            {
                "start_time": 143.0431818,
                "end_time": 143.1272727,
                "pitch": 45,
                "velocity": 127,
                "duration": 0.0840909,
                "tempo": 120.0
            },
            {
                "start_time": 143.1431818,
                "end_time": 143.2272727,
                "pitch": 45,
                "velocity": 101,
                "duration": 0.0840909,
                "tempo": 120.0
            },
            {
                "start_time": 143.2454545,
                "end_time": 143.3272727,
                "pitch": 57,
                "velocity": 101,
                "duration": 0.0818182,
                "tempo": 120.0
            },
            {
                "start_time": 143.3454545,
                "end_time": 143.4295455,
                "pitch": 45,
                "velocity": 101,
                "duration": 0.0840909,
                "tempo": 120.0
            },
            {
                "start_time": 143.4477273,
                "end_time": 143.5295455,
                "pitch": 43,
                "velocity": 127,
                "duration": 0.0818182,
                "tempo": 120.0
            },
            {
                "start_time": 143.5477273,
                "end_time": 143.6295455,
                "pitch": 43,
                "velocity": 101,
                "duration": 0.0818182,
                "tempo": 120.0
            },
            {
                "start_time": 143.6477273,
                "end_time": 143.7318182,
                "pitch": 55,
                "velocity": 101,
                "duration": 0.0840909,
                "tempo": 120.0
            },
            {
                "start_time": 143.7477273,
                "end_time": 143.8318182,
                "pitch": 43,
                "velocity": 101,
                "duration": 0.0840909,
                "tempo": 120.0
            },
            {
                "start_time": 143.85,
                "end_time": 143.9318182,
                "pitch": 43,
                "velocity": 127,
                "duration": 0.0818182,
                "tempo": 120.0
            },
            {
                "start_time": 143.95,
                "end_time": 144.0340909,
                "pitch": 43,
                "velocity": 101,
                "duration": 0.0840909,
                "tempo": 120.0
            },
            {
                "start_time": 144.05,
                "end_time": 144.1340909,
                "pitch": 55,
                "velocity": 101,
                "duration": 0.0840909,
                "tempo": 120.0
            },
            {
                "start_time": 144.1522727,
                "end_time": 144.2340909,
                "pitch": 43,
                "velocity": 101,
                "duration": 0.0818182,
                "tempo": 120.0
            },
            {
                "start_time": 144.2522727,
                "end_time": 144.3363636,
                "pitch": 43,
                "velocity": 127,
                "duration": 0.0840909,
                "tempo": 120.0
            },
            {
                "start_time": 144.3522727,
                "end_time": 144.4363636,
                "pitch": 43,
                "velocity": 101,
                "duration": 0.0840909,
                "tempo": 120.0
            },
            {
                "start_time": 144.4545455,
                "end_time": 144.5363636,
                "pitch": 55,
                "velocity": 101,
                "duration": 0.0818182,
                "tempo": 120.0
            },
            {
                "start_time": 144.5545455,
                "end_time": 144.6386364,
                "pitch": 43,
                "velocity": 101,
                "duration": 0.0840909,
                "tempo": 120.0
            },
            {
                "start_time": 144.6568182,
                "end_time": 144.7386364,
                "pitch": 43,
                "velocity": 127,
                "duration": 0.0818182,
                "tempo": 120.0
            },
            {
                "start_time": 144.7568182,
                "end_time": 144.8386364,
                "pitch": 43,
                "velocity": 101,
                "duration": 0.0818182,
                "tempo": 120.0
            },
            {
                "start_time": 144.8568182,
                "end_time": 144.9386364,
                "pitch": 55,
                "velocity": 101,
                "duration": 0.0818182,
                "tempo": 120.0
            },
            {
                "start_time": 144.9568182,
                "end_time": 145.0386364,
                "pitch": 43,
                "velocity": 101,
                "duration": 0.0818182,
                "tempo": 120.0
            },
            {
                "start_time": 145.0568182,
                "end_time": 145.1386364,
                "pitch": 47,
                "velocity": 127,
                "duration": 0.0818182,
                "tempo": 120.0
            },
            {
                "start_time": 145.1568182,
                "end_time": 145.2409091,
                "pitch": 47,
                "velocity": 101,
                "duration": 0.0840909,
                "tempo": 120.0
            },
            {
                "start_time": 145.2590909,
                "end_time": 145.3409091,
                "pitch": 59,
                "velocity": 101,
                "duration": 0.0818182,
                "tempo": 120.0
            },
            {
                "start_time": 145.3590909,
                "end_time": 145.4409091,
                "pitch": 47,
                "velocity": 101,
                "duration": 0.0818182,
                "tempo": 120.0
            },
            {
                "start_time": 145.4613636,
                "end_time": 145.5431818,
                "pitch": 47,
                "velocity": 127,
                "duration": 0.0818182,
                "tempo": 120.0
            },
            {
                "start_time": 145.5590909,
                "end_time": 145.6431818,
                "pitch": 47,
                "velocity": 101,
                "duration": 0.0840909,
                "tempo": 120.0
            },
            {
                "start_time": 145.6613636,
                "end_time": 145.7454545,
                "pitch": 59,
                "velocity": 101,
                "duration": 0.0840909,
                "tempo": 120.0
            },
            {
                "start_time": 145.7613636,
                "end_time": 145.8454545,
                "pitch": 47,
                "velocity": 101,
                "duration": 0.0840909,
                "tempo": 120.0
            },
            {
                "start_time": 145.8636364,
                "end_time": 145.9454545,
                "pitch": 47,
                "velocity": 127,
                "duration": 0.0818182,
                "tempo": 120.0
            },
            {
                "start_time": 145.9636364,
                "end_time": 146.0477273,
                "pitch": 47,
                "velocity": 101,
                "duration": 0.0840909,
                "tempo": 120.0
            },
            {
                "start_time": 146.0659091,
                "end_time": 146.1477273,
                "pitch": 59,
                "velocity": 101,
                "duration": 0.0818182,
                "tempo": 120.0
            },
            {
                "start_time": 146.1659091,
                "end_time": 146.2477273,
                "pitch": 47,
                "velocity": 101,
                "duration": 0.0818182,
                "tempo": 120.0
            },
            {
                "start_time": 146.2659091,
                "end_time": 146.35,
                "pitch": 47,
                "velocity": 127,
                "duration": 0.0840909,
                "tempo": 120.0
            },
            {
                "start_time": 146.3659091,
                "end_time": 146.45,
                "pitch": 47,
                "velocity": 101,
                "duration": 0.0840909,
                "tempo": 120.0
            },
            {
                "start_time": 146.4681818,
                "end_time": 146.55,
                "pitch": 59,
                "velocity": 101,
                "duration": 0.0818182,
                "tempo": 120.0
            },
            {
                "start_time": 146.5681818,
                "end_time": 146.6522727,
                "pitch": 47,
                "velocity": 101,
                "duration": 0.0840909,
                "tempo": 120.0
            },
            {
                "start_time": 146.6704545,
                "end_time": 146.7522727,
                "pitch": 45,
                "velocity": 127,
                "duration": 0.0818182,
                "tempo": 120.0
            },
            {
                "start_time": 146.7681818,
                "end_time": 146.8522727,
                "pitch": 45,
                "velocity": 101,
                "duration": 0.0840909,
                "tempo": 120.0
            },
            {
                "start_time": 146.8704545,
                "end_time": 146.9522727,
                "pitch": 57,
                "velocity": 101,
                "duration": 0.0818182,
                "tempo": 120.0
            },
            {
                "start_time": 146.9704545,
                "end_time": 147.0522727,
                "pitch": 45,
                "velocity": 101,
                "duration": 0.0818182,
                "tempo": 120.0
            },
            {
                "start_time": 147.0704545,
                "end_time": 147.1522727,
                "pitch": 45,
                "velocity": 127,
                "duration": 0.0818182,
                "tempo": 120.0
            },
            {
                "start_time": 147.1704545,
                "end_time": 147.2545455,
                "pitch": 45,
                "velocity": 101,
                "duration": 0.0840909,
                "tempo": 120.0
            },
            {
                "start_time": 147.2704545,
                "end_time": 147.3545455,
                "pitch": 57,
                "velocity": 101,
                "duration": 0.0840909,
                "tempo": 120.0
            },
            {
                "start_time": 147.3727273,
                "end_time": 147.4545455,
                "pitch": 45,
                "velocity": 101,
                "duration": 0.0818182,
                "tempo": 120.0
            },
            {
                "start_time": 147.4727273,
                "end_time": 147.5568182,
                "pitch": 45,
                "velocity": 127,
                "duration": 0.0840909,
                "tempo": 120.0
            },
            {
                "start_time": 147.5727273,
                "end_time": 147.6568182,
                "pitch": 45,
                "velocity": 101,
                "duration": 0.0840909,
                "tempo": 120.0
            },
            {
                "start_time": 147.675,
                "end_time": 147.7568182,
                "pitch": 57,
                "velocity": 101,
                "duration": 0.0818182,
                "tempo": 120.0
            },
            {
                "start_time": 147.775,
                "end_time": 147.8590909,
                "pitch": 45,
                "velocity": 101,
                "duration": 0.0840909,
                "tempo": 120.0
            },
            {
                "start_time": 147.8772727,
                "end_time": 147.9590909,
                "pitch": 45,
                "velocity": 127,
                "duration": 0.0818182,
                "tempo": 120.0
            },
            {
                "start_time": 147.9772727,
                "end_time": 148.0590909,
                "pitch": 45,
                "velocity": 101,
                "duration": 0.0818182,
                "tempo": 120.0
            },
            {
                "start_time": 148.0772727,
                "end_time": 148.1613636,
                "pitch": 57,
                "velocity": 101,
                "duration": 0.0840909,
                "tempo": 120.0
            },
            {
                "start_time": 148.1772727,
                "end_time": 148.2613636,
                "pitch": 45,
                "velocity": 101,
                "duration": 0.0840909,
                "tempo": 120.0
            },
            {
                "start_time": 148.2795455,
                "end_time": 148.3636364,
                "pitch": 45,
                "velocity": 127,
                "duration": 0.0840909,
                "tempo": 120.0
            },
            {
                "start_time": 148.3818182,
                "end_time": 148.4659091,
                "pitch": 45,
                "velocity": 101,
                "duration": 0.0840909,
                "tempo": 120.0
            },
            {
                "start_time": 148.4863636,
                "end_time": 148.5704545,
                "pitch": 57,
                "velocity": 101,
                "duration": 0.0840909,
                "tempo": 120.0
            },
            {
                "start_time": 148.5886364,
                "end_time": 148.6727273,
                "pitch": 45,
                "velocity": 101,
                "duration": 0.0840909,
                "tempo": 120.0
            },
            {
                "start_time": 148.6909091,
                "end_time": 148.7704545,
                "pitch": 45,
                "velocity": 127,
                "duration": 0.0795455,
                "tempo": 120.0
            },
            {
                "start_time": 148.7886364,
                "end_time": 148.8704545,
                "pitch": 45,
                "velocity": 101,
                "duration": 0.0818182,
                "tempo": 120.0
            },
            {
                "start_time": 148.8863636,
                "end_time": 148.9681818,
                "pitch": 57,
                "velocity": 101,
                "duration": 0.0818182,
                "tempo": 120.0
            },
            {
                "start_time": 148.9840909,
                "end_time": 149.0659091,
                "pitch": 45,
                "velocity": 101,
                "duration": 0.0818182,
                "tempo": 120.0
            },
            {
                "start_time": 149.0840909,
                "end_time": 149.1659091,
                "pitch": 45,
                "velocity": 127,
                "duration": 0.0818182,
                "tempo": 120.0
            },
            {
                "start_time": 149.1840909,
                "end_time": 149.2681818,
                "pitch": 45,
                "velocity": 101,
                "duration": 0.0840909,
                "tempo": 120.0
            },
            {
                "start_time": 149.2863636,
                "end_time": 149.3681818,
                "pitch": 57,
                "velocity": 101,
                "duration": 0.0818182,
                "tempo": 120.0
            },
            {
                "start_time": 149.3863636,
                "end_time": 149.4681818,
                "pitch": 45,
                "velocity": 101,
                "duration": 0.0818182,
                "tempo": 120.0
            },
            {
                "start_time": 149.4863636,
                "end_time": 149.5704545,
                "pitch": 45,
                "velocity": 127,
                "duration": 0.0840909,
                "tempo": 120.0
            },
            {
                "start_time": 149.5863636,
                "end_time": 149.6704545,
                "pitch": 45,
                "velocity": 101,
                "duration": 0.0840909,
                "tempo": 120.0
            },
            {
                "start_time": 149.6886364,
                "end_time": 149.7704545,
                "pitch": 57,
                "velocity": 101,
                "duration": 0.0818182,
                "tempo": 120.0
            },
            {
                "start_time": 149.7886364,
                "end_time": 149.8727273,
                "pitch": 45,
                "velocity": 101,
                "duration": 0.0840909,
                "tempo": 120.0
            },
            {
                "start_time": 149.8909091,
                "end_time": 149.975,
                "pitch": 43,
                "velocity": 127,
                "duration": 0.0840909,
                "tempo": 120.0
            },
            {
                "start_time": 149.9931818,
                "end_time": 150.0772727,
                "pitch": 43,
                "velocity": 101,
                "duration": 0.0840909,
                "tempo": 120.0
            },
            {
                "start_time": 150.0954545,
                "end_time": 150.1795455,
                "pitch": 55,
                "velocity": 101,
                "duration": 0.0840909,
                "tempo": 120.0
            },
            {
                "start_time": 150.1977273,
                "end_time": 150.2840909,
                "pitch": 43,
                "velocity": 101,
                "duration": 0.0863636,
                "tempo": 120.0
            },
            {
                "start_time": 150.3022727,
                "end_time": 150.3840909,
                "pitch": 43,
                "velocity": 127,
                "duration": 0.0818182,
                "tempo": 120.0
            },
            {
                "start_time": 150.4022727,
                "end_time": 150.4840909,
                "pitch": 43,
                "velocity": 101,
                "duration": 0.0818182,
                "tempo": 120.0
            },
            {
                "start_time": 150.5022727,
                "end_time": 150.5863636,
                "pitch": 55,
                "velocity": 101,
                "duration": 0.0840909,
                "tempo": 120.0
            },
            {
                "start_time": 150.6022727,
                "end_time": 150.6863636,
                "pitch": 43,
                "velocity": 101,
                "duration": 0.0840909,
                "tempo": 120.0
            },
            {
                "start_time": 150.7045455,
                "end_time": 150.7886364,
                "pitch": 43,
                "velocity": 127,
                "duration": 0.0840909,
                "tempo": 120.0
            },
            {
                "start_time": 150.8045455,
                "end_time": 150.8886364,
                "pitch": 43,
                "velocity": 101,
                "duration": 0.0840909,
                "tempo": 120.0
            },
            {
                "start_time": 150.9068182,
                "end_time": 150.9886364,
                "pitch": 55,
                "velocity": 101,
                "duration": 0.0818182,
                "tempo": 120.0
            },
            {
                "start_time": 151.0068182,
                "end_time": 151.0909091,
                "pitch": 43,
                "velocity": 101,
                "duration": 0.0840909,
                "tempo": 120.0
            },
            {
                "start_time": 151.1090909,
                "end_time": 151.1909091,
                "pitch": 43,
                "velocity": 127,
                "duration": 0.0818182,
                "tempo": 120.0
            },
            {
                "start_time": 151.2068182,
                "end_time": 151.2909091,
                "pitch": 43,
                "velocity": 101,
                "duration": 0.0840909,
                "tempo": 120.0
            },
            {
                "start_time": 151.3090909,
                "end_time": 151.3909091,
                "pitch": 55,
                "velocity": 101,
                "duration": 0.0818182,
                "tempo": 120.0
            },
            {
                "start_time": 151.4068182,
                "end_time": 151.4909091,
                "pitch": 43,
                "velocity": 101,
                "duration": 0.0840909,
                "tempo": 120.0
            },
            {
                "start_time": 151.5090909,
                "end_time": 151.5909091,
                "pitch": 47,
                "velocity": 127,
                "duration": 0.0818182,
                "tempo": 120.0
            },
            {
                "start_time": 151.6090909,
                "end_time": 151.6931818,
                "pitch": 47,
                "velocity": 101,
                "duration": 0.0840909,
                "tempo": 120.0
            },
            {
                "start_time": 151.7113636,
                "end_time": 151.7931818,
                "pitch": 59,
                "velocity": 101,
                "duration": 0.0818182,
                "tempo": 120.0
            },
            {
                "start_time": 151.8113636,
                "end_time": 151.8931818,
                "pitch": 47,
                "velocity": 101,
                "duration": 0.0818182,
                "tempo": 120.0
            },
            {
                "start_time": 151.9113636,
                "end_time": 151.9954545,
                "pitch": 47,
                "velocity": 127,
                "duration": 0.0840909,
                "tempo": 120.0
            },
            {
                "start_time": 152.0113636,
                "end_time": 152.0954545,
                "pitch": 47,
                "velocity": 101,
                "duration": 0.0840909,
                "tempo": 120.0
            },
            {
                "start_time": 152.1136364,
                "end_time": 152.1954545,
                "pitch": 59,
                "velocity": 101,
                "duration": 0.0818182,
                "tempo": 120.0
            },
            {
                "start_time": 152.2136364,
                "end_time": 152.2977273,
                "pitch": 47,
                "velocity": 101,
                "duration": 0.0840909,
                "tempo": 120.0
            },
            {
                "start_time": 152.3136364,
                "end_time": 152.3977273,
                "pitch": 47,
                "velocity": 127,
                "duration": 0.0840909,
                "tempo": 120.0
            },
            {
                "start_time": 152.4159091,
                "end_time": 152.4977273,
                "pitch": 47,
                "velocity": 101,
                "duration": 0.0818182,
                "tempo": 120.0
            },
            {
                "start_time": 152.5159091,
                "end_time": 152.6,
                "pitch": 59,
                "velocity": 101,
                "duration": 0.0840909,
                "tempo": 120.0
            },
            {
                "start_time": 152.6159091,
                "end_time": 152.7,
                "pitch": 47,
                "velocity": 101,
                "duration": 0.0840909,
                "tempo": 120.0
            },
            {
                "start_time": 152.7181818,
                "end_time": 152.8,
                "pitch": 47,
                "velocity": 127,
                "duration": 0.0818182,
                "tempo": 120.0
            },
            {
                "start_time": 152.8181818,
                "end_time": 152.9022727,
                "pitch": 47,
                "velocity": 101,
                "duration": 0.0840909,
                "tempo": 120.0
            },
            {
                "start_time": 152.9204545,
                "end_time": 153.0022727,
                "pitch": 59,
                "velocity": 101,
                "duration": 0.0818182,
                "tempo": 120.0
            },
            {
                "start_time": 153.0204545,
                "end_time": 153.1022727,
                "pitch": 47,
                "velocity": 101,
                "duration": 0.0818182,
                "tempo": 120.0
            },
            {
                "start_time": 153.1227273,
                "end_time": 153.2045455,
                "pitch": 45,
                "velocity": 127,
                "duration": 0.0818182,
                "tempo": 120.0
            },
            {
                "start_time": 153.2204545,
                "end_time": 153.3045455,
                "pitch": 45,
                "velocity": 101,
                "duration": 0.0840909,
                "tempo": 120.0
            },
            {
                "start_time": 153.3227273,
                "end_time": 153.4045455,
                "pitch": 57,
                "velocity": 101,
                "duration": 0.0818182,
                "tempo": 120.0
            },
            {
                "start_time": 153.4204545,
                "end_time": 153.5045455,
                "pitch": 45,
                "velocity": 101,
                "duration": 0.0840909,
                "tempo": 120.0
            },
            {
                "start_time": 153.5227273,
                "end_time": 153.6045455,
                "pitch": 45,
                "velocity": 127,
                "duration": 0.0818182,
                "tempo": 120.0
            },
            {
                "start_time": 153.6227273,
                "end_time": 153.7045455,
                "pitch": 45,
                "velocity": 101,
                "duration": 0.0818182,
                "tempo": 120.0
            },
            {
                "start_time": 153.7227273,
                "end_time": 153.8068182,
                "pitch": 57,
                "velocity": 101,
                "duration": 0.0840909,
                "tempo": 120.0
            },
            {
                "start_time": 153.8227273,
                "end_time": 153.9068182,
                "pitch": 45,
                "velocity": 101,
                "duration": 0.0840909,
                "tempo": 120.0
            },
            {
                "start_time": 153.925,
                "end_time": 154.0068182,
                "pitch": 45,
                "velocity": 127,
                "duration": 0.0818182,
                "tempo": 120.0
            },
            {
                "start_time": 154.025,
                "end_time": 154.1090909,
                "pitch": 45,
                "velocity": 101,
                "duration": 0.0840909,
                "tempo": 120.0
            },
            {
                "start_time": 154.125,
                "end_time": 154.2090909,
                "pitch": 57,
                "velocity": 101,
                "duration": 0.0840909,
                "tempo": 120.0
            },
            {
                "start_time": 154.2272727,
                "end_time": 154.3090909,
                "pitch": 45,
                "velocity": 101,
                "duration": 0.0818182,
                "tempo": 120.0
            },
            {
                "start_time": 154.3272727,
                "end_time": 154.4113636,
                "pitch": 45,
                "velocity": 127,
                "duration": 0.0840909,
                "tempo": 120.0
            },
            {
                "start_time": 154.4295455,
                "end_time": 154.5113636,
                "pitch": 45,
                "velocity": 101,
                "duration": 0.0818182,
                "tempo": 120.0
            },
            {
                "start_time": 154.5318182,
                "end_time": 154.6136364,
                "pitch": 57,
                "velocity": 101,
                "duration": 0.0818182,
                "tempo": 120.0
            },
            {
                "start_time": 154.6318182,
                "end_time": 154.7136364,
                "pitch": 45,
                "velocity": 101,
                "duration": 0.0818182,
                "tempo": 120.0
            },
            {
                "start_time": 154.7363636,
                "end_time": 154.8159091,
                "pitch": 45,
                "velocity": 127,
                "duration": 0.0795455,
                "tempo": 120.0
            },
            {
                "start_time": 154.8340909,
                "end_time": 154.9181818,
                "pitch": 48,
                "velocity": 101,
                "duration": 0.0840909,
                "tempo": 120.0
            },
            {
                "start_time": 154.9363636,
                "end_time": 155.0204545,
                "pitch": 47,
                "velocity": 101,
                "duration": 0.0840909,
                "tempo": 120.0
            },
            {
                "start_time": 155.0386364,
                "end_time": 155.125,
                "pitch": 48,
                "velocity": 101,
                "duration": 0.0863636,
                "tempo": 120.0
            },
            {
                "start_time": 155.1431818,
                "end_time": 155.2227273,
                "pitch": 45,
                "velocity": 127,
                "duration": 0.0795455,
                "tempo": 120.0
            },
            {
                "start_time": 155.2409091,
                "end_time": 155.3204545,
                "pitch": 48,
                "velocity": 101,
                "duration": 0.0795455,
                "tempo": 120.0
            },
            {
                "start_time": 155.3386364,
                "end_time": 155.4204545,
                "pitch": 47,
                "velocity": 101,
                "duration": 0.0818182,
                "tempo": 120.0
            },
            {
                "start_time": 155.4363636,
                "end_time": 155.5181818,
                "pitch": 48,
                "velocity": 101,
                "duration": 0.0818182,
                "tempo": 120.0
            },
            {
                "start_time": 155.5363636,
                "end_time": 155.6181818,
                "pitch": 45,
                "velocity": 127,
                "duration": 0.0818182,
                "tempo": 120.0
            },
            {
                "start_time": 155.6363636,
                "end_time": 155.7181818,
                "pitch": 48,
                "velocity": 101,
                "duration": 0.0818182,
                "tempo": 120.0
            },
            {
                "start_time": 155.7363636,
                "end_time": 155.8204545,
                "pitch": 47,
                "velocity": 101,
                "duration": 0.0840909,
                "tempo": 120.0
            },
            {
                "start_time": 155.8363636,
                "end_time": 155.9204545,
                "pitch": 48,
                "velocity": 101,
                "duration": 0.0840909,
                "tempo": 120.0
            },
            {
                "start_time": 155.9386364,
                "end_time": 156.0204545,
                "pitch": 45,
                "velocity": 127,
                "duration": 0.0818182,
                "tempo": 120.0
            },
            {
                "start_time": 156.0386364,
                "end_time": 156.1227273,
                "pitch": 48,
                "velocity": 101,
                "duration": 0.0840909,
                "tempo": 120.0
            },
            {
                "start_time": 156.1409091,
                "end_time": 156.2227273,
                "pitch": 47,
                "velocity": 101,
                "duration": 0.0818182,
                "tempo": 120.0
            },
            {
                "start_time": 156.2409091,
                "end_time": 156.3227273,
                "pitch": 48,
                "velocity": 101,
                "duration": 0.0818182,
                "tempo": 120.0
            },
            {
                "start_time": 156.3431818,
                "end_time": 156.425,
                "pitch": 43,
                "velocity": 127,
                "duration": 0.0818182,
                "tempo": 120.0
            },
            {
                "start_time": 156.4431818,
                "end_time": 156.5295455,
                "pitch": 47,
                "velocity": 101,
                "duration": 0.0863636,
                "tempo": 120.0
            },
            {
                "start_time": 156.5477273,
                "end_time": 156.6318182,
                "pitch": 45,
                "velocity": 101,
                "duration": 0.0840909,
                "tempo": 120.0
            },
            {
                "start_time": 156.65,
                "end_time": 156.7340909,
                "pitch": 47,
                "velocity": 101,
                "duration": 0.0840909,
                "tempo": 120.0
            },
            {
                "start_time": 156.7522727,
                "end_time": 156.8340909,
                "pitch": 43,
                "velocity": 127,
                "duration": 0.0818182,
                "tempo": 120.0
            },
            {
                "start_time": 156.85,
                "end_time": 156.9318182,
                "pitch": 47,
                "velocity": 101,
                "duration": 0.0818182,
                "tempo": 120.0
            },
            {
                "start_time": 156.9477273,
                "end_time": 157.0295455,
                "pitch": 45,
                "velocity": 101,
                "duration": 0.0818182,
                "tempo": 120.0
            },
            {
                "start_time": 157.0477273,
                "end_time": 157.1272727,
                "pitch": 47,
                "velocity": 101,
                "duration": 0.0795455,
                "tempo": 120.0
            },
            {
                "start_time": 157.1454545,
                "end_time": 157.2272727,
                "pitch": 43,
                "velocity": 127,
                "duration": 0.0818182,
                "tempo": 120.0
            },
            {
                "start_time": 157.2454545,
                "end_time": 157.3272727,
                "pitch": 47,
                "velocity": 101,
                "duration": 0.0818182,
                "tempo": 120.0
            },
            {
                "start_time": 157.3454545,
                "end_time": 157.4272727,
                "pitch": 45,
                "velocity": 101,
                "duration": 0.0818182,
                "tempo": 120.0
            },
            {
                "start_time": 157.4454545,
                "end_time": 157.5272727,
                "pitch": 47,
                "velocity": 101,
                "duration": 0.0818182,
                "tempo": 120.0
            },
            {
                "start_time": 157.5454545,
                "end_time": 157.6295455,
                "pitch": 43,
                "velocity": 127,
                "duration": 0.0840909,
                "tempo": 120.0
            },
            {
                "start_time": 157.6454545,
                "end_time": 157.7295455,
                "pitch": 47,
                "velocity": 101,
                "duration": 0.0840909,
                "tempo": 120.0
            },
            {
                "start_time": 157.7477273,
                "end_time": 157.8295455,
                "pitch": 45,
                "velocity": 101,
                "duration": 0.0818182,
                "tempo": 120.0
            },
            {
                "start_time": 157.8477273,
                "end_time": 157.9318182,
                "pitch": 47,
                "velocity": 101,
                "duration": 0.0840909,
                "tempo": 120.0
            },
            {
                "start_time": 157.9522727,
                "end_time": 158.0340909,
                "pitch": 47,
                "velocity": 127,
                "duration": 0.0818182,
                "tempo": 120.0
            },
            {
                "start_time": 158.0522727,
                "end_time": 158.1363636,
                "pitch": 50,
                "velocity": 101,
                "duration": 0.0840909,
                "tempo": 120.0
            },
            {
                "start_time": 158.1545455,
                "end_time": 158.2386364,
                "pitch": 48,
                "velocity": 101,
                "duration": 0.0840909,
                "tempo": 120.0
            },
            {
                "start_time": 158.2568182,
                "end_time": 158.3431818,
                "pitch": 50,
                "velocity": 101,
                "duration": 0.0863636,
                "tempo": 120.0
            },
            {
                "start_time": 158.3613636,
                "end_time": 158.4409091,
                "pitch": 47,
                "velocity": 127,
                "duration": 0.0795455,
                "tempo": 120.0
            },
            {
                "start_time": 158.4590909,
                "end_time": 158.5386364,
                "pitch": 50,
                "velocity": 101,
                "duration": 0.0795455,
                "tempo": 120.0
            },
            {
                "start_time": 158.5568182,
                "end_time": 158.6386364,
                "pitch": 48,
                "velocity": 101,
                "duration": 0.0818182,
                "tempo": 120.0
            },
            {
                "start_time": 158.6545455,
                "end_time": 158.7363636,
                "pitch": 50,
                "velocity": 101,
                "duration": 0.0818182,
                "tempo": 120.0
            },
            {
                "start_time": 158.7545455,
                "end_time": 158.8363636,
                "pitch": 47,
                "velocity": 127,
                "duration": 0.0818182,
                "tempo": 120.0
            },
            {
                "start_time": 158.8545455,
                "end_time": 158.9363636,
                "pitch": 50,
                "velocity": 101,
                "duration": 0.0818182,
                "tempo": 120.0
            },
            {
                "start_time": 158.9545455,
                "end_time": 159.0386364,
                "pitch": 48,
                "velocity": 101,
                "duration": 0.0840909,
                "tempo": 120.0
            },
            {
                "start_time": 159.0545455,
                "end_time": 159.1386364,
                "pitch": 50,
                "velocity": 101,
                "duration": 0.0840909,
                "tempo": 120.0
            },
            {
                "start_time": 159.1568182,
                "end_time": 159.2409091,
                "pitch": 47,
                "velocity": 127,
                "duration": 0.0840909,
                "tempo": 120.0
            },
            {
                "start_time": 159.2590909,
                "end_time": 159.3431818,
                "pitch": 50,
                "velocity": 101,
                "duration": 0.0840909,
                "tempo": 120.0
            },
            {
                "start_time": 159.3613636,
                "end_time": 159.4477273,
                "pitch": 48,
                "velocity": 101,
                "duration": 0.0863636,
                "tempo": 120.0
            },
            {
                "start_time": 159.4659091,
                "end_time": 159.55,
                "pitch": 50,
                "velocity": 101,
                "duration": 0.0840909,
                "tempo": 120.0
            },
            {
                "start_time": 159.5704545,
                "end_time": 159.65,
                "pitch": 45,
                "velocity": 127,
                "duration": 0.0795455,
                "tempo": 120.0
            },
            {
                "start_time": 159.6681818,
                "end_time": 159.7522727,
                "pitch": 48,
                "velocity": 101,
                "duration": 0.0840909,
                "tempo": 120.0
            },
            {
                "start_time": 159.7681818,
                "end_time": 159.8522727,
                "pitch": 47,
                "velocity": 101,
                "duration": 0.0840909,
                "tempo": 120.0
            },
            {
                "start_time": 159.8704545,
                "end_time": 159.9522727,
                "pitch": 48,
                "velocity": 101,
                "duration": 0.0818182,
                "tempo": 120.0
            },
            {
                "start_time": 159.9704545,
                "end_time": 160.0522727,
                "pitch": 45,
                "velocity": 127,
                "duration": 0.0818182,
                "tempo": 120.0
            },
            {
                "start_time": 160.0681818,
                "end_time": 160.15,
                "pitch": 48,
                "velocity": 101,
                "duration": 0.0818182,
                "tempo": 120.0
            },
            {
                "start_time": 160.1659091,
                "end_time": 160.2477273,
                "pitch": 47,
                "velocity": 101,
                "duration": 0.0818182,
                "tempo": 120.0
            },
            {
                "start_time": 160.2659091,
                "end_time": 160.3454545,
                "pitch": 48,
                "velocity": 101,
                "duration": 0.0795455,
                "tempo": 120.0
            },
            {
                "start_time": 160.3636364,
                "end_time": 160.4477273,
                "pitch": 45,
                "velocity": 127,
                "duration": 0.0840909,
                "tempo": 120.0
            },
            {
                "start_time": 160.4659091,
                "end_time": 160.55,
                "pitch": 48,
                "velocity": 101,
                "duration": 0.0840909,
                "tempo": 120.0
            },
            {
                "start_time": 160.5681818,
                "end_time": 160.6545455,
                "pitch": 47,
                "velocity": 101,
                "duration": 0.0863636,
                "tempo": 120.0
            },
            {
                "start_time": 160.6727273,
                "end_time": 160.7568182,
                "pitch": 48,
                "velocity": 101,
                "duration": 0.0840909,
                "tempo": 120.0
            },
            {
                "start_time": 160.775,
                "end_time": 160.8590909,
                "pitch": 45,
                "velocity": 127,
                "duration": 0.0840909,
                "tempo": 120.0
            },
            {
                "start_time": 160.875,
                "end_time": 160.9590909,
                "pitch": 48,
                "velocity": 101,
                "duration": 0.0840909,
                "tempo": 120.0
            },
            {
                "start_time": 160.9772727,
                "end_time": 161.0590909,
                "pitch": 47,
                "velocity": 101,
                "duration": 0.0818182,
                "tempo": 120.0
            },
            {
                "start_time": 161.0772727,
                "end_time": 161.1613636,
                "pitch": 48,
                "velocity": 101,
                "duration": 0.0840909,
                "tempo": 120.0
            },
            {
                "start_time": 161.1795455,
                "end_time": 161.2613636,
                "pitch": 45,
                "velocity": 127,
                "duration": 0.0818182,
                "tempo": 120.0
            },
            {
                "start_time": 161.2795455,
                "end_time": 161.3613636,
                "pitch": 48,
                "velocity": 101,
                "duration": 0.0818182,
                "tempo": 120.0
            },
            {
                "start_time": 161.3795455,
                "end_time": 161.4636364,
                "pitch": 47,
                "velocity": 101,
                "duration": 0.0840909,
                "tempo": 120.0
            },
            {
                "start_time": 161.4795455,
                "end_time": 161.5636364,
                "pitch": 48,
                "velocity": 101,
                "duration": 0.0840909,
                "tempo": 120.0
            },
            {
                "start_time": 161.5818182,
                "end_time": 161.6636364,
                "pitch": 45,
                "velocity": 127,
                "duration": 0.0818182,
                "tempo": 120.0
            },
            {
                "start_time": 161.6818182,
                "end_time": 161.7659091,
                "pitch": 48,
                "velocity": 101,
                "duration": 0.0840909,
                "tempo": 120.0
            },
            {
                "start_time": 161.7818182,
                "end_time": 161.8659091,
                "pitch": 47,
                "velocity": 101,
                "duration": 0.0840909,
                "tempo": 120.0
            },
            {
                "start_time": 161.8840909,
                "end_time": 161.9659091,
                "pitch": 48,
                "velocity": 101,
                "duration": 0.0818182,
                "tempo": 120.0
            },
            {
                "start_time": 161.9840909,
                "end_time": 162.0659091,
                "pitch": 45,
                "velocity": 127,
                "duration": 0.0818182,
                "tempo": 120.0
            },
            {
                "start_time": 162.0840909,
                "end_time": 162.1681818,
                "pitch": 48,
                "velocity": 101,
                "duration": 0.0840909,
                "tempo": 120.0
            },
            {
                "start_time": 162.1840909,
                "end_time": 162.2681818,
                "pitch": 47,
                "velocity": 101,
                "duration": 0.0840909,
                "tempo": 120.0
            },
            {
                "start_time": 162.2840909,
                "end_time": 162.3681818,
                "pitch": 48,
                "velocity": 101,
                "duration": 0.0840909,
                "tempo": 120.0
            },
            {
                "start_time": 162.3863636,
                "end_time": 162.4681818,
                "pitch": 45,
                "velocity": 127,
                "duration": 0.0818182,
                "tempo": 120.0
            },
            {
                "start_time": 162.4863636,
                "end_time": 162.5681818,
                "pitch": 48,
                "velocity": 101,
                "duration": 0.0818182,
                "tempo": 120.0
            },
            {
                "start_time": 162.5863636,
                "end_time": 162.6704545,
                "pitch": 47,
                "velocity": 101,
                "duration": 0.0840909,
                "tempo": 120.0
            },
            {
                "start_time": 162.6886364,
                "end_time": 162.7704545,
                "pitch": 48,
                "velocity": 101,
                "duration": 0.0818182,
                "tempo": 120.0
            },
            {
                "start_time": 162.7909091,
                "end_time": 162.8727273,
                "pitch": 43,
                "velocity": 127,
                "duration": 0.0818182,
                "tempo": 120.0
            },
            {
                "start_time": 162.8909091,
                "end_time": 162.975,
                "pitch": 47,
                "velocity": 101,
                "duration": 0.0840909,
                "tempo": 120.0
            },
            {
                "start_time": 162.9931818,
                "end_time": 163.0795455,
                "pitch": 45,
                "velocity": 101,
                "duration": 0.0863636,
                "tempo": 120.0
            },
            {
                "start_time": 163.0954545,
                "end_time": 163.1818182,
                "pitch": 47,
                "velocity": 101,
                "duration": 0.0863636,
                "tempo": 120.0
            },
            {
                "start_time": 163.2,
                "end_time": 163.2795455,
                "pitch": 43,
                "velocity": 127,
                "duration": 0.0795455,
                "tempo": 120.0
            },
            {
                "start_time": 163.2977273,
                "end_time": 163.3795455,
                "pitch": 47,
                "velocity": 101,
                "duration": 0.0818182,
                "tempo": 120.0
            },
            {
                "start_time": 163.3954545,
                "end_time": 163.4772727,
                "pitch": 45,
                "velocity": 101,
                "duration": 0.0818182,
                "tempo": 120.0
            },
            {
                "start_time": 163.4931818,
                "end_time": 163.575,
                "pitch": 47,
                "velocity": 101,
                "duration": 0.0818182,
                "tempo": 120.0
            },
            {
                "start_time": 163.5931818,
                "end_time": 163.675,
                "pitch": 43,
                "velocity": 127,
                "duration": 0.0818182,
                "tempo": 120.0
            },
            {
                "start_time": 163.6931818,
                "end_time": 163.775,
                "pitch": 47,
                "velocity": 101,
                "duration": 0.0818182,
                "tempo": 120.0
            },
            {
                "start_time": 163.7931818,
                "end_time": 163.8772727,
                "pitch": 45,
                "velocity": 101,
                "duration": 0.0840909,
                "tempo": 120.0
            },
            {
                "start_time": 163.8931818,
                "end_time": 163.9772727,
                "pitch": 47,
                "velocity": 101,
                "duration": 0.0840909,
                "tempo": 120.0
            },
            {
                "start_time": 163.9954545,
                "end_time": 164.0772727,
                "pitch": 43,
                "velocity": 127,
                "duration": 0.0818182,
                "tempo": 120.0
            },
            {
                "start_time": 164.0954545,
                "end_time": 164.1772727,
                "pitch": 47,
                "velocity": 101,
                "duration": 0.0818182,
                "tempo": 120.0
            },
            {
                "start_time": 164.1954545,
                "end_time": 164.2772727,
                "pitch": 45,
                "velocity": 101,
                "duration": 0.0818182,
                "tempo": 120.0
            },
            {
                "start_time": 164.2954545,
                "end_time": 164.3772727,
                "pitch": 47,
                "velocity": 101,
                "duration": 0.0818182,
                "tempo": 120.0
            },
            {
                "start_time": 164.3977273,
                "end_time": 164.4795455,
                "pitch": 47,
                "velocity": 127,
                "duration": 0.0818182,
                "tempo": 120.0
            },
            {
                "start_time": 164.4977273,
                "end_time": 164.5840909,
                "pitch": 50,
                "velocity": 101,
                "duration": 0.0863636,
                "tempo": 120.0
            },
            {
                "start_time": 164.6,
                "end_time": 164.6863636,
                "pitch": 48,
                "velocity": 101,
                "duration": 0.0863636,
                "tempo": 120.0
            },
            {
                "start_time": 164.7045455,
                "end_time": 164.7886364,
                "pitch": 50,
                "velocity": 101,
                "duration": 0.0840909,
                "tempo": 120.0
            },
            {
                "start_time": 164.8068182,
                "end_time": 164.8886364,
                "pitch": 47,
                "velocity": 127,
                "duration": 0.0818182,
                "tempo": 120.0
            },
            {
                "start_time": 164.9045455,
                "end_time": 164.9863636,
                "pitch": 50,
                "velocity": 101,
                "duration": 0.0818182,
                "tempo": 120.0
            },
            {
                "start_time": 165.0022727,
                "end_time": 165.0840909,
                "pitch": 48,
                "velocity": 101,
                "duration": 0.0818182,
                "tempo": 120.0
            },
            {
                "start_time": 165.1022727,
                "end_time": 165.1818182,
                "pitch": 50,
                "velocity": 101,
                "duration": 0.0795455,
                "tempo": 120.0
            },
            {
                "start_time": 165.2,
                "end_time": 165.2818182,
                "pitch": 47,
                "velocity": 127,
                "duration": 0.0818182,
                "tempo": 120.0
            },
            {
                "start_time": 165.3,
                "end_time": 165.3840909,
                "pitch": 50,
                "velocity": 101,
                "duration": 0.0840909,
                "tempo": 120.0
            },
            {
                "start_time": 165.4,
                "end_time": 165.4840909,
                "pitch": 48,
                "velocity": 101,
                "duration": 0.0840909,
                "tempo": 120.0
            },
            {
                "start_time": 165.5022727,
                "end_time": 165.5863636,
                "pitch": 50,
                "velocity": 101,
                "duration": 0.0840909,
                "tempo": 120.0
            },
            {
                "start_time": 165.6045455,
                "end_time": 165.6863636,
                "pitch": 47,
                "velocity": 127,
                "duration": 0.0818182,
                "tempo": 120.0
            },
            {
                "start_time": 165.7045455,
                "end_time": 165.7863636,
                "pitch": 50,
                "velocity": 101,
                "duration": 0.0818182,
                "tempo": 120.0
            },
            {
                "start_time": 165.8045455,
                "end_time": 165.8886364,
                "pitch": 48,
                "velocity": 101,
                "duration": 0.0840909,
                "tempo": 120.0
            },
            {
                "start_time": 165.9068182,
                "end_time": 165.9886364,
                "pitch": 50,
                "velocity": 101,
                "duration": 0.0818182,
                "tempo": 120.0
            },
            {
                "start_time": 166.0090909,
                "end_time": 166.0909091,
                "pitch": 45,
                "velocity": 127,
                "duration": 0.0818182,
                "tempo": 120.0
            },
            {
                "start_time": 166.1090909,
                "end_time": 166.1931818,
                "pitch": 48,
                "velocity": 101,
                "duration": 0.0840909,
                "tempo": 120.0
            },
            {
                "start_time": 166.2113636,
                "end_time": 166.2954545,
                "pitch": 47,
                "velocity": 101,
                "duration": 0.0840909,
                "tempo": 120.0
            },
            {
                "start_time": 166.3136364,
                "end_time": 166.4,
                "pitch": 48,
                "velocity": 101,
                "duration": 0.0863636,
                "tempo": 120.0
            },
            {
                "start_time": 166.4181818,
                "end_time": 166.4977273,
                "pitch": 45,
                "velocity": 127,
                "duration": 0.0795455,
                "tempo": 120.0
            },
            {
                "start_time": 166.5159091,
                "end_time": 166.5954545,
                "pitch": 48,
                "velocity": 101,
                "duration": 0.0795455,
                "tempo": 120.0
            },
            {
                "start_time": 166.6136364,
                "end_time": 166.6954545,
                "pitch": 47,
                "velocity": 101,
                "duration": 0.0818182,
                "tempo": 120.0
            },
            {
                "start_time": 166.7113636,
                "end_time": 166.7931818,
                "pitch": 48,
                "velocity": 101,
                "duration": 0.0818182,
                "tempo": 120.0
            },
            {
                "start_time": 166.8113636,
                "end_time": 166.8954545,
                "pitch": 45,
                "velocity": 127,
                "duration": 0.0840909,
                "tempo": 120.0
            },
            {
                "start_time": 166.9113636,
                "end_time": 166.9977273,
                "pitch": 48,
                "velocity": 101,
                "duration": 0.0863636,
                "tempo": 120.0
            },
            {
                "start_time": 167.0159091,
                "end_time": 167.1,
                "pitch": 47,
                "velocity": 101,
                "duration": 0.0840909,
                "tempo": 120.0
            },
            {
                "start_time": 167.1181818,
                "end_time": 167.2022727,
                "pitch": 48,
                "velocity": 101,
                "duration": 0.0840909,
                "tempo": 120.0
            },
            {
                "start_time": 167.2227273,
                "end_time": 167.3045455,
                "pitch": 45,
                "velocity": 127,
                "duration": 0.0818182,
                "tempo": 120.0
            },
            {
                "start_time": 167.3227273,
                "end_time": 167.4045455,
                "pitch": 48,
                "velocity": 101,
                "duration": 0.0818182,
                "tempo": 120.0
            },
            {
                "start_time": 167.4227273,
                "end_time": 167.5068182,
                "pitch": 47,
                "velocity": 101,
                "duration": 0.0840909,
                "tempo": 120.0
            },
            {
                "start_time": 167.5227273,
                "end_time": 167.6068182,
                "pitch": 48,
                "velocity": 101,
                "duration": 0.0840909,
                "tempo": 120.0
            },
            {
                "start_time": 167.6272727,
                "end_time": 167.8090909,
                "pitch": 45,
                "velocity": 127,
                "duration": 0.1818182,
                "tempo": 120.0
            },
            {
                "start_time": 167.8272727,
                "end_time": 167.9090909,
                "pitch": 45,
                "velocity": 101,
                "duration": 0.0818182,
                "tempo": 120.0
            },
            {
                "start_time": 167.9272727,
                "end_time": 168.0090909,
                "pitch": 57,
                "velocity": 101,
                "duration": 0.0818182,
                "tempo": 120.0
            },
            {
                "start_time": 168.0295455,
                "end_time": 168.2113636,
                "pitch": 45,
                "velocity": 127,
                "duration": 0.1818182,
                "tempo": 120.0
            },
            {
                "start_time": 168.2295455,
                "end_time": 168.3113636,
                "pitch": 45,
                "velocity": 101,
                "duration": 0.0818182,
                "tempo": 120.0
            },
            {
                "start_time": 168.3295455,
                "end_time": 168.4136364,
                "pitch": 57,
                "velocity": 101,
                "duration": 0.0840909,
                "tempo": 120.0
            },
            {
                "start_time": 168.4318182,
                "end_time": 168.6159091,
                "pitch": 45,
                "velocity": 127,
                "duration": 0.1840909,
                "tempo": 120.0
            },
            {
                "start_time": 168.6318182,
                "end_time": 168.7159091,
                "pitch": 45,
                "velocity": 101,
                "duration": 0.0840909,
                "tempo": 120.0
            },
            {
                "start_time": 168.7340909,
                "end_time": 168.8159091,
                "pitch": 57,
                "velocity": 101,
                "duration": 0.0818182,
                "tempo": 120.0
            },
            {
                "start_time": 168.8340909,
                "end_time": 169.0159091,
                "pitch": 45,
                "velocity": 127,
                "duration": 0.1818182,
                "tempo": 120.0
            },
            {
                "start_time": 169.0340909,
                "end_time": 169.1159091,
                "pitch": 45,
                "velocity": 101,
                "duration": 0.0818182,
                "tempo": 120.0
            },
            {
                "start_time": 169.1340909,
                "end_time": 169.2181818,
                "pitch": 57,
                "velocity": 101,
                "duration": 0.0840909,
                "tempo": 120.0
            },
            {
                "start_time": 169.2363636,
                "end_time": 169.4181818,
                "pitch": 43,
                "velocity": 127,
                "duration": 0.1818182,
                "tempo": 120.0
            },
            {
                "start_time": 169.4363636,
                "end_time": 169.5204545,
                "pitch": 43,
                "velocity": 101,
                "duration": 0.0840909,
                "tempo": 120.0
            },
            {
                "start_time": 169.5363636,
                "end_time": 169.6204545,
                "pitch": 55,
                "velocity": 101,
                "duration": 0.0840909,
                "tempo": 120.0
            },
            {
                "start_time": 169.6386364,
                "end_time": 169.8227273,
                "pitch": 43,
                "velocity": 127,
                "duration": 0.1840909,
                "tempo": 120.0
            },
            {
                "start_time": 169.8386364,
                "end_time": 169.9227273,
                "pitch": 43,
                "velocity": 101,
                "duration": 0.0840909,
                "tempo": 120.0
            },
            {
                "start_time": 169.9409091,
                "end_time": 170.0227273,
                "pitch": 55,
                "velocity": 101,
                "duration": 0.0818182,
                "tempo": 120.0
            },
            {
                "start_time": 170.0409091,
                "end_time": 170.225,
                "pitch": 43,
                "velocity": 127,
                "duration": 0.1840909,
                "tempo": 120.0
            },
            {
                "start_time": 170.2431818,
                "end_time": 170.325,
                "pitch": 43,
                "velocity": 101,
                "duration": 0.0818182,
                "tempo": 120.0
            },
            {
                "start_time": 170.3431818,
                "end_time": 170.4272727,
                "pitch": 55,
                "velocity": 101,
                "duration": 0.0840909,
                "tempo": 120.0
            },
            {
                "start_time": 170.4454545,
                "end_time": 170.6272727,
                "pitch": 43,
                "velocity": 127,
                "duration": 0.1818182,
                "tempo": 120.0
            },
            {
                "start_time": 170.6454545,
                "end_time": 170.7295455,
                "pitch": 43,
                "velocity": 101,
                "duration": 0.0840909,
                "tempo": 120.0
            },
            {
                "start_time": 170.7454545,
                "end_time": 170.8295455,
                "pitch": 55,
                "velocity": 101,
                "duration": 0.0840909,
                "tempo": 120.0
            },
            {
                "start_time": 170.8477273,
                "end_time": 171.0295455,
                "pitch": 47,
                "velocity": 127,
                "duration": 0.1818182,
                "tempo": 120.0
            },
            {
                "start_time": 171.0477273,
                "end_time": 171.1295455,
                "pitch": 47,
                "velocity": 101,
                "duration": 0.0818182,
                "tempo": 120.0
            },
            {
                "start_time": 171.1477273,
                "end_time": 171.2295455,
                "pitch": 59,
                "velocity": 101,
                "duration": 0.0818182,
                "tempo": 120.0
            },
            {
                "start_time": 171.25,
                "end_time": 171.4318182,
                "pitch": 47,
                "velocity": 127,
                "duration": 0.1818182,
                "tempo": 120.0
            },
            {
                "start_time": 171.45,
                "end_time": 171.5318182,
                "pitch": 47,
                "velocity": 101,
                "duration": 0.0818182,
                "tempo": 120.0
            },
            {
                "start_time": 171.55,
                "end_time": 171.6340909,
                "pitch": 59,
                "velocity": 101,
                "duration": 0.0840909,
                "tempo": 120.0
            },
            {
                "start_time": 171.6522727,
                "end_time": 171.8340909,
                "pitch": 47,
                "velocity": 127,
                "duration": 0.1818182,
                "tempo": 120.0
            },
            {
                "start_time": 171.8522727,
                "end_time": 171.9363636,
                "pitch": 47,
                "velocity": 101,
                "duration": 0.0840909,
                "tempo": 120.0
            },
            {
                "start_time": 171.9522727,
                "end_time": 172.0363636,
                "pitch": 59,
                "velocity": 101,
                "duration": 0.0840909,
                "tempo": 120.0
            },
            {
                "start_time": 172.0545455,
                "end_time": 172.2386364,
                "pitch": 47,
                "velocity": 127,
                "duration": 0.1840909,
                "tempo": 120.0
            },
            {
                "start_time": 172.2568182,
                "end_time": 172.3386364,
                "pitch": 47,
                "velocity": 101,
                "duration": 0.0818182,
                "tempo": 120.0
            },
            {
                "start_time": 172.3568182,
                "end_time": 172.4409091,
                "pitch": 59,
                "velocity": 101,
                "duration": 0.0840909,
                "tempo": 120.0
            },
            {
                "start_time": 172.4590909,
                "end_time": 172.6409091,
                "pitch": 45,
                "velocity": 127,
                "duration": 0.1818182,
                "tempo": 120.0
            },
            {
                "start_time": 172.6590909,
                "end_time": 172.7431818,
                "pitch": 45,
                "velocity": 101,
                "duration": 0.0840909,
                "tempo": 120.0
            },
            {
                "start_time": 172.7590909,
                "end_time": 172.8431818,
                "pitch": 57,
                "velocity": 101,
                "duration": 0.0840909,
                "tempo": 120.0
            },
            {
                "start_time": 172.8613636,
                "end_time": 173.0431818,
                "pitch": 45,
                "velocity": 127,
                "duration": 0.1818182,
                "tempo": 120.0
            },
            {
                "start_time": 173.0613636,
                "end_time": 173.1431818,
                "pitch": 45,
                "velocity": 101,
                "duration": 0.0818182,
                "tempo": 120.0
            },
            {
                "start_time": 173.1613636,
                "end_time": 173.2431818,
                "pitch": 57,
                "velocity": 101,
                "duration": 0.0818182,
                "tempo": 120.0
            },
            {
                "start_time": 173.2613636,
                "end_time": 173.4454545,
                "pitch": 45,
                "velocity": 127,
                "duration": 0.1840909,
                "tempo": 120.0
            },
            {
                "start_time": 173.4636364,
                "end_time": 173.5454545,
                "pitch": 45,
                "velocity": 101,
                "duration": 0.0818182,
                "tempo": 120.0
            },
            {
                "start_time": 173.5636364,
                "end_time": 173.6477273,
                "pitch": 57,
                "velocity": 101,
                "duration": 0.0840909,
                "tempo": 120.0
            },
            {
                "start_time": 173.6636364,
                "end_time": 173.8477273,
                "pitch": 45,
                "velocity": 127,
                "duration": 0.1840909,
                "tempo": 120.0
            },
            {
                "start_time": 173.8659091,
                "end_time": 173.95,
                "pitch": 45,
                "velocity": 101,
                "duration": 0.0840909,
                "tempo": 120.0
            },
            {
                "start_time": 173.9659091,
                "end_time": 174.05,
                "pitch": 57,
                "velocity": 101,
                "duration": 0.0840909,
                "tempo": 120.0
            },
            {
                "start_time": 174.0681818,
                "end_time": 174.2545455,
                "pitch": 45,
                "velocity": 127,
                "duration": 0.1863636,
                "tempo": 120.0
            },
            {
                "start_time": 174.275,
                "end_time": 174.3590909,
                "pitch": 45,
                "velocity": 101,
                "duration": 0.0840909,
                "tempo": 120.0
            },
            {
                "start_time": 174.375,
                "end_time": 174.4613636,
                "pitch": 57,
                "velocity": 101,
                "duration": 0.0863636,
                "tempo": 120.0
            },
            {
                "start_time": 174.4795455,
                "end_time": 174.6636364,
                "pitch": 45,
                "velocity": 127,
                "duration": 0.1840909,
                "tempo": 120.0
            },
            {
                "start_time": 174.6795455,
                "end_time": 174.7636364,
                "pitch": 45,
                "velocity": 101,
                "duration": 0.0840909,
                "tempo": 120.0
            },
            {
                "start_time": 174.7818182,
                "end_time": 174.8636364,
                "pitch": 57,
                "velocity": 101,
                "duration": 0.0818182,
                "tempo": 120.0
            },
            {
                "start_time": 174.8818182,
                "end_time": 175.0659091,
                "pitch": 45,
                "velocity": 127,
                "duration": 0.1840909,
                "tempo": 120.0
            },
            {
                "start_time": 175.0840909,
                "end_time": 175.1681818,
                "pitch": 45,
                "velocity": 101,
                "duration": 0.0840909,
                "tempo": 120.0
            },
            {
                "start_time": 175.1840909,
                "end_time": 175.2681818,
                "pitch": 57,
                "velocity": 101,
                "duration": 0.0840909,
                "tempo": 120.0
            },
            {
                "start_time": 175.2863636,
                "end_time": 175.4681818,
                "pitch": 45,
                "velocity": 127,
                "duration": 0.1818182,
                "tempo": 120.0
            },
            {
                "start_time": 175.4863636,
                "end_time": 175.5681818,
                "pitch": 45,
                "velocity": 101,
                "duration": 0.0818182,
                "tempo": 120.0
            },
            {
                "start_time": 175.5863636,
                "end_time": 175.6681818,
                "pitch": 57,
                "velocity": 101,
                "duration": 0.0818182,
                "tempo": 120.0
            },
            {
                "start_time": 175.6863636,
                "end_time": 175.8704545,
                "pitch": 43,
                "velocity": 127,
                "duration": 0.1840909,
                "tempo": 120.0
            },
            {
                "start_time": 175.8886364,
                "end_time": 175.9704545,
                "pitch": 43,
                "velocity": 101,
                "duration": 0.0818182,
                "tempo": 120.0
            },
            {
                "start_time": 175.9886364,
                "end_time": 176.0727273,
                "pitch": 55,
                "velocity": 101,
                "duration": 0.0840909,
                "tempo": 120.0
            },
            {
                "start_time": 176.0909091,
                "end_time": 176.2727273,
                "pitch": 43,
                "velocity": 127,
                "duration": 0.1818182,
                "tempo": 120.0
            },
            {
                "start_time": 176.2909091,
                "end_time": 176.375,
                "pitch": 43,
                "velocity": 101,
                "duration": 0.0840909,
                "tempo": 120.0
            },
            {
                "start_time": 176.3909091,
                "end_time": 176.475,
                "pitch": 55,
                "velocity": 101,
                "duration": 0.0840909,
                "tempo": 120.0
            },
            {
                "start_time": 176.4931818,
                "end_time": 176.6772727,
                "pitch": 43,
                "velocity": 127,
                "duration": 0.1840909,
                "tempo": 120.0
            },
            {
                "start_time": 176.6931818,
                "end_time": 176.7772727,
                "pitch": 43,
                "velocity": 101,
                "duration": 0.0840909,
                "tempo": 120.0
            },
            {
                "start_time": 176.7954545,
                "end_time": 176.8772727,
                "pitch": 55,
                "velocity": 101,
                "duration": 0.0818182,
                "tempo": 120.0
            },
            {
                "start_time": 176.8954545,
                "end_time": 177.0795455,
                "pitch": 43,
                "velocity": 127,
                "duration": 0.1840909,
                "tempo": 120.0
            },
            {
                "start_time": 177.0977273,
                "end_time": 177.1795455,
                "pitch": 43,
                "velocity": 101,
                "duration": 0.0818182,
                "tempo": 120.0
            },
            {
                "start_time": 177.1977273,
                "end_time": 177.2818182,
                "pitch": 55,
                "velocity": 101,
                "duration": 0.0840909,
                "tempo": 120.0
            },
            {
                "start_time": 177.3,
                "end_time": 177.4818182,
                "pitch": 47,
                "velocity": 127,
                "duration": 0.1818182,
                "tempo": 120.0
            },
            {
                "start_time": 177.5,
                "end_time": 177.5818182,
                "pitch": 47,
                "velocity": 101,
                "duration": 0.0818182,
                "tempo": 120.0
            },
            {
                "start_time": 177.6,
                "end_time": 177.6818182,
                "pitch": 59,
                "velocity": 101,
                "duration": 0.0818182,
                "tempo": 120.0
            },
            {
                "start_time": 177.7,
                "end_time": 177.8840909,
                "pitch": 47,
                "velocity": 127,
                "duration": 0.1840909,
                "tempo": 120.0
            },
            {
                "start_time": 177.9,
                "end_time": 177.9840909,
                "pitch": 47,
                "velocity": 101,
                "duration": 0.0840909,
                "tempo": 120.0
            },
            {
                "start_time": 178.0022727,
                "end_time": 178.0840909,
                "pitch": 59,
                "velocity": 101,
                "duration": 0.0818182,
                "tempo": 120.0
            },
            {
                "start_time": 178.1022727,
                "end_time": 178.2863636,
                "pitch": 47,
                "velocity": 127,
                "duration": 0.1840909,
                "tempo": 120.0
            },
            {
                "start_time": 178.3045455,
                "end_time": 178.3863636,
                "pitch": 47,
                "velocity": 101,
                "duration": 0.0818182,
                "tempo": 120.0
            },
            {
                "start_time": 178.4045455,
                "end_time": 178.4886364,
                "pitch": 59,
                "velocity": 101,
                "duration": 0.0840909,
                "tempo": 120.0
            },
            {
                "start_time": 178.5068182,
                "end_time": 178.6909091,
                "pitch": 47,
                "velocity": 127,
                "duration": 0.1840909,
                "tempo": 120.0
            },
            {
                "start_time": 178.7068182,
                "end_time": 178.7909091,
                "pitch": 47,
                "velocity": 101,
                "duration": 0.0840909,
                "tempo": 120.0
            },
            {
                "start_time": 178.8090909,
                "end_time": 178.8909091,
                "pitch": 59,
                "velocity": 101,
                "duration": 0.0818182,
                "tempo": 120.0
            },
            {
                "start_time": 178.9090909,
                "end_time": 179.0931818,
                "pitch": 45,
                "velocity": 127,
                "duration": 0.1840909,
                "tempo": 120.0
            },
            {
                "start_time": 179.1113636,
                "end_time": 179.1931818,
                "pitch": 45,
                "velocity": 101,
                "duration": 0.0818182,
                "tempo": 120.0
            },
            {
                "start_time": 179.2113636,
                "end_time": 179.2954545,
                "pitch": 57,
                "velocity": 101,
                "duration": 0.0840909,
                "tempo": 120.0
            },
            {
                "start_time": 179.3136364,
                "end_time": 179.4954545,
                "pitch": 45,
                "velocity": 127,
                "duration": 0.1818182,
                "tempo": 120.0
            },
            {
                "start_time": 179.5113636,
                "end_time": 179.5954545,
                "pitch": 45,
                "velocity": 101,
                "duration": 0.0840909,
                "tempo": 120.0
            },
            {
                "start_time": 179.6113636,
                "end_time": 179.6954545,
                "pitch": 57,
                "velocity": 101,
                "duration": 0.0840909,
                "tempo": 120.0
            },
            {
                "start_time": 179.7136364,
                "end_time": 179.8977273,
                "pitch": 45,
                "velocity": 127,
                "duration": 0.1840909,
                "tempo": 120.0
            },
            {
                "start_time": 179.9136364,
                "end_time": 179.9977273,
                "pitch": 45,
                "velocity": 101,
                "duration": 0.0840909,
                "tempo": 120.0
            }
        ],
        "French Horn": [
            {
                "start_time": 0.2022727,
                "end_time": 1.7886364,
                "pitch": 48,
                "velocity": 127,
                "duration": 1.5863636,
                "tempo": 120.0
            },
            {
                "start_time": 1.7886364,
                "end_time": 3.4045455,
                "pitch": 47,
                "velocity": 127,
                "duration": 1.6159091,
                "tempo": 120.0
            },
            {
                "start_time": 3.4045455,
                "end_time": 5.0090909,
                "pitch": 50,
                "velocity": 127,
                "duration": 1.6045455,
                "tempo": 120.0
            },
            {
                "start_time": 5.0090909,
                "end_time": 6.6181818,
                "pitch": 48,
                "velocity": 127,
                "duration": 1.6090909,
                "tempo": 120.0
            },
            {
                "start_time": 5.0090909,
                "end_time": 6.6181818,
                "pitch": 48,
                "velocity": 127,
                "duration": 1.6090909,
                "tempo": 120.0
            },
            {
                "start_time": 1.7886364,
                "end_time": 8.2272727,
                "pitch": 32,
                "velocity": 127,
                "duration": 6.4386364,
                "tempo": 120.0
            },
            {
                "start_time": 6.6181818,
                "end_time": 8.2272727,
                "pitch": 48,
                "velocity": 127,
                "duration": 1.6090909,
                "tempo": 120.0
            },
            {
                "start_time": 8.2272727,
                "end_time": 9.8363636,
                "pitch": 47,
                "velocity": 127,
                "duration": 1.6090909,
                "tempo": 120.0
            },
            {
                "start_time": 3.4045455,
                "end_time": 9.8363636,
                "pitch": 53,
                "velocity": 127,
                "duration": 6.4318182,
                "tempo": 120.0
            },
            {
                "start_time": 9.8363636,
                "end_time": 11.4545455,
                "pitch": 50,
                "velocity": 127,
                "duration": 1.6181818,
                "tempo": 120.0
            },
            {
                "start_time": 11.4545455,
                "end_time": 13.0681818,
                "pitch": 48,
                "velocity": 127,
                "duration": 1.6136364,
                "tempo": 120.0
            },
            {
                "start_time": 11.4545455,
                "end_time": 13.0681818,
                "pitch": 48,
                "velocity": 127,
                "duration": 1.6136364,
                "tempo": 120.0
            },
            {
                "start_time": 13.0681818,
                "end_time": 14.4363636,
                "pitch": 57,
                "velocity": 127,
                "duration": 1.3681818,
                "tempo": 120.0
            },
            {
                "start_time": 14.4727273,
                "end_time": 14.5363636,
                "pitch": 57,
                "velocity": 127,
                "duration": 0.0636364,
                "tempo": 120.0
            },
            {
                "start_time": 14.5727273,
                "end_time": 14.6386364,
                "pitch": 57,
                "velocity": 127,
                "duration": 0.0659091,
                "tempo": 120.0
            },
            {
                "start_time": 14.675,
                "end_time": 16.0454545,
                "pitch": 55,
                "velocity": 127,
                "duration": 1.3704545,
                "tempo": 120.0
            },
            {
                "start_time": 16.0818182,
                "end_time": 16.1477273,
                "pitch": 55,
                "velocity": 127,
                "duration": 0.0659091,
                "tempo": 120.0
            },
            {
                "start_time": 16.1818182,
                "end_time": 16.2477273,
                "pitch": 55,
                "velocity": 127,
                "duration": 0.0659091,
                "tempo": 120.0
            },
            {
                "start_time": 16.2863636,
                "end_time": 17.6545455,
                "pitch": 59,
                "velocity": 127,
                "duration": 1.3681818,
                "tempo": 120.0
            },
            {
                "start_time": 17.6909091,
                "end_time": 17.7568182,
                "pitch": 59,
                "velocity": 127,
                "duration": 0.0659091,
                "tempo": 120.0
            },
            {
                "start_time": 17.7909091,
                "end_time": 17.8568182,
                "pitch": 59,
                "velocity": 127,
                "duration": 0.0659091,
                "tempo": 120.0
            },
            {
                "start_time": 17.8931818,
                "end_time": 19.4704545,
                "pitch": 60,
                "velocity": 127,
                "duration": 1.5772727,
                "tempo": 120.0
            },
            {
                "start_time": 19.5090909,
                "end_time": 20.8772727,
                "pitch": 57,
                "velocity": 127,
                "duration": 1.3681818,
                "tempo": 120.0
            },
            {
                "start_time": 20.9136364,
                "end_time": 20.9772727,
                "pitch": 57,
                "velocity": 127,
                "duration": 0.0636364,
                "tempo": 120.0
            },
            {
                "start_time": 21.0136364,
                "end_time": 21.0795455,
                "pitch": 57,
                "velocity": 127,
                "duration": 0.0659091,
                "tempo": 120.0
            },
            {
                "start_time": 21.1159091,
                "end_time": 22.4840909,
                "pitch": 55,
                "velocity": 127,
                "duration": 1.3681818,
                "tempo": 120.0
            },
            {
                "start_time": 22.5181818,
                "end_time": 22.5840909,
                "pitch": 55,
                "velocity": 127,
                "duration": 0.0659091,
                "tempo": 120.0
            },
            {
                "start_time": 22.6181818,
                "end_time": 22.6840909,
                "pitch": 55,
                "velocity": 127,
                "duration": 0.0659091,
                "tempo": 120.0
            },
            {
                "start_time": 22.7204545,
                "end_time": 24.0909091,
                "pitch": 59,
                "velocity": 127,
                "duration": 1.3704545,
                "tempo": 120.0
            },
            {
                "start_time": 24.1272727,
                "end_time": 24.1909091,
                "pitch": 60,
                "velocity": 127,
                "duration": 0.0636364,
                "tempo": 120.0
            },
            {
                "start_time": 24.2272727,
                "end_time": 24.2909091,
                "pitch": 59,
                "velocity": 127,
                "duration": 0.0636364,
                "tempo": 120.0
            },
            {
                "start_time": 24.3272727,
                "end_time": 25.8977273,
                "pitch": 57,
                "velocity": 127,
                "duration": 1.5704545,
                "tempo": 120.0
            },
            {
                "start_time": 25.9386364,
                "end_time": 27.35,
                "pitch": 48,
                "velocity": 127,
                "duration": 1.4113636,
                "tempo": 120.0
            },
            {
                "start_time": 27.5545455,
                "end_time": 28.9568182,
                "pitch": 47,
                "velocity": 127,
                "duration": 1.4022727,
                "tempo": 120.0
            },
            {
                "start_time": 29.1590909,
                "end_time": 30.5636364,
                "pitch": 50,
                "velocity": 127,
                "duration": 1.4045455,
                "tempo": 120.0
            },
            {
                "start_time": 30.7659091,
                "end_time": 32.1681818,
                "pitch": 48,
                "velocity": 127,
                "duration": 1.4022727,
                "tempo": 120.0
            },
            {
                "start_time": 32.3704545,
                "end_time": 33.7818182,
                "pitch": 48,
                "velocity": 127,
                "duration": 1.4113636,
                "tempo": 120.0
            },
            {
                "start_time": 33.9840909,
                "end_time": 35.3863636,
                "pitch": 47,
                "velocity": 127,
                "duration": 1.4022727,
                "tempo": 120.0
            },
            {
                "start_time": 35.5886364,
                "end_time": 36.9909091,
                "pitch": 50,
                "velocity": 127,
                "duration": 1.4022727,
                "tempo": 120.0
            },
            {
                "start_time": 37.1931818,
                "end_time": 38.5954545,
                "pitch": 48,
                "velocity": 127,
                "duration": 1.4022727,
                "tempo": 120.0
            },
            {
                "start_time": 38.8045455,
                "end_time": 40.1681818,
                "pitch": 57,
                "velocity": 127,
                "duration": 1.3636364,
                "tempo": 120.0
            },
            {
                "start_time": 40.2045455,
                "end_time": 40.2681818,
                "pitch": 57,
                "velocity": 127,
                "duration": 0.0636364,
                "tempo": 120.0
            },
            {
                "start_time": 40.3045455,
                "end_time": 40.3681818,
                "pitch": 57,
                "velocity": 127,
                "duration": 0.0636364,
                "tempo": 120.0
            },
            {
                "start_time": 40.4068182,
                "end_time": 41.7863636,
                "pitch": 55,
                "velocity": 127,
                "duration": 1.3795455,
                "tempo": 120.0
            },
            {
                "start_time": 41.8227273,
                "end_time": 41.8863636,
                "pitch": 55,
                "velocity": 127,
                "duration": 0.0636364,
                "tempo": 120.0
            },
            {
                "start_time": 41.9227273,
                "end_time": 41.9886364,
                "pitch": 55,
                "velocity": 127,
                "duration": 0.0659091,
                "tempo": 120.0
            },
            {
                "start_time": 42.025,
                "end_time": 43.3886364,
                "pitch": 59,
                "velocity": 127,
                "duration": 1.3636364,
                "tempo": 120.0
            },
            {
                "start_time": 43.425,
                "end_time": 43.4909091,
                "pitch": 59,
                "velocity": 127,
                "duration": 0.0659091,
                "tempo": 120.0
            },
            {
                "start_time": 43.525,
                "end_time": 43.5909091,
                "pitch": 59,
                "velocity": 127,
                "duration": 0.0659091,
                "tempo": 120.0
            },
            {
                "start_time": 43.6272727,
                "end_time": 45.1954545,
                "pitch": 60,
                "velocity": 127,
                "duration": 1.5681818,
                "tempo": 120.0
            },
            {
                "start_time": 45.2340909,
                "end_time": 46.6,
                "pitch": 57,
                "velocity": 127,
                "duration": 1.3659091,
                "tempo": 120.0
            },
            {
                "start_time": 46.6363636,
                "end_time": 46.7,
                "pitch": 57,
                "velocity": 127,
                "duration": 0.0636364,
                "tempo": 120.0
            },
            {
                "start_time": 46.7340909,
                "end_time": 46.8,
                "pitch": 57,
                "velocity": 127,
                "duration": 0.0659091,
                "tempo": 120.0
            },
            {
                "start_time": 46.8386364,
                "end_time": 48.2068182,
                "pitch": 55,
                "velocity": 127,
                "duration": 1.3681818,
                "tempo": 120.0
            },
            {
                "start_time": 48.2431818,
                "end_time": 48.3068182,
                "pitch": 55,
                "velocity": 127,
                "duration": 0.0636364,
                "tempo": 120.0
            },
            {
                "start_time": 48.3431818,
                "end_time": 48.4068182,
                "pitch": 55,
                "velocity": 127,
                "duration": 0.0636364,
                "tempo": 120.0
            },
            {
                "start_time": 48.4454545,
                "end_time": 49.8159091,
                "pitch": 59,
                "velocity": 127,
                "duration": 1.3704545,
                "tempo": 120.0
            },
            {
                "start_time": 49.8545455,
                "end_time": 49.9181818,
                "pitch": 60,
                "velocity": 127,
                "duration": 0.0636364,
                "tempo": 120.0
            },
            {
                "start_time": 49.9545455,
                "end_time": 50.0227273,
                "pitch": 59,
                "velocity": 127,
                "duration": 0.0681818,
                "tempo": 120.0
            },
            {
                "start_time": 50.0613636,
                "end_time": 51.6272727,
                "pitch": 57,
                "velocity": 127,
                "duration": 1.5659091,
                "tempo": 120.0
            },
            {
                "start_time": 51.6704545,
                "end_time": 53.2704545,
                "pitch": 60,
                "velocity": 127,
                "duration": 1.6,
                "tempo": 120.0
            },
            {
                "start_time": 53.2704545,
                "end_time": 54.875,
                "pitch": 59,
                "velocity": 127,
                "duration": 1.6045455,
                "tempo": 120.0
            },
            {
                "start_time": 54.875,
                "end_time": 56.4795455,
                "pitch": 62,
                "velocity": 127,
                "duration": 1.6045455,
                "tempo": 120.0
            },
            {
                "start_time": 56.4795455,
                "end_time": 58.0977273,
                "pitch": 60,
                "velocity": 127,
                "duration": 1.6181818,
                "tempo": 120.0
            },
            {
                "start_time": 56.4795455,
                "end_time": 58.0977273,
                "pitch": 60,
                "velocity": 127,
                "duration": 1.6181818,
                "tempo": 120.0
            },
            {
                "start_time": 53.2704545,
                "end_time": 59.7022727,
                "pitch": 44,
                "velocity": 127,
                "duration": 6.4318182,
                "tempo": 120.0
            },
            {
                "start_time": 58.0977273,
                "end_time": 59.7022727,
                "pitch": 60,
                "velocity": 127,
                "duration": 1.6045455,
                "tempo": 120.0
            },
            {
                "start_time": 59.7022727,
                "end_time": 61.3068182,
                "pitch": 59,
                "velocity": 127,
                "duration": 1.6045455,
                "tempo": 120.0
            },
            {
                "start_time": 54.875,
                "end_time": 61.3068182,
                "pitch": 65,
                "velocity": 127,
                "duration": 6.4318182,
                "tempo": 120.0
            },
            {
                "start_time": 61.3068182,
                "end_time": 62.9113636,
                "pitch": 62,
                "velocity": 127,
                "duration": 1.6045455,
                "tempo": 120.0
            },
            {
                "start_time": 8.2272727,
                "end_time": 64.5204545,
                "pitch": 32,
                "velocity": 127,
                "duration": 56.2931818,
                "tempo": 120.0
            },
            {
                "start_time": 62.9113636,
                "end_time": 64.5204545,
                "pitch": 60,
                "velocity": 127,
                "duration": 1.6090909,
                "tempo": 120.0
            },
            {
                "start_time": 62.9113636,
                "end_time": 64.5204545,
                "pitch": 60,
                "velocity": 127,
                "duration": 1.6090909,
                "tempo": 120.0
            },
            {
                "start_time": 64.5204545,
                "end_time": 65.8977273,
                "pitch": 69,
                "velocity": 127,
                "duration": 1.3772727,
                "tempo": 120.0
            },
            {
                "start_time": 65.9318182,
                "end_time": 65.9977273,
                "pitch": 69,
                "velocity": 127,
                "duration": 0.0659091,
                "tempo": 120.0
            },
            {
                "start_time": 66.0340909,
                "end_time": 66.0977273,
                "pitch": 69,
                "velocity": 127,
                "duration": 0.0636364,
                "tempo": 120.0
            },
            {
                "start_time": 66.1363636,
                "end_time": 67.5068182,
                "pitch": 67,
                "velocity": 127,
                "duration": 1.3704545,
                "tempo": 120.0
            },
            {
                "start_time": 67.5409091,
                "end_time": 67.6068182,
                "pitch": 67,
                "velocity": 127,
                "duration": 0.0659091,
                "tempo": 120.0
            },
            {
                "start_time": 67.6409091,
                "end_time": 67.7068182,
                "pitch": 67,
                "velocity": 127,
                "duration": 0.0659091,
                "tempo": 120.0
            },
            {
                "start_time": 67.7431818,
                "end_time": 69.1136364,
                "pitch": 71,
                "velocity": 127,
                "duration": 1.3704545,
                "tempo": 120.0
            },
            {
                "start_time": 69.15,
                "end_time": 69.2159091,
                "pitch": 71,
                "velocity": 127,
                "duration": 0.0659091,
                "tempo": 120.0
            },
            {
                "start_time": 69.25,
                "end_time": 69.3159091,
                "pitch": 71,
                "velocity": 127,
                "duration": 0.0659091,
                "tempo": 120.0
            },
            {
                "start_time": 69.3522727,
                "end_time": 70.9227273,
                "pitch": 72,
                "velocity": 127,
                "duration": 1.5704545,
                "tempo": 120.0
            },
            {
                "start_time": 70.9613636,
                "end_time": 72.3318182,
                "pitch": 69,
                "velocity": 127,
                "duration": 1.3704545,
                "tempo": 120.0
            },
            {
                "start_time": 72.3659091,
                "end_time": 72.4318182,
                "pitch": 69,
                "velocity": 127,
                "duration": 0.0659091,
                "tempo": 120.0
            },
            {
                "start_time": 72.4659091,
                "end_time": 72.5318182,
                "pitch": 69,
                "velocity": 127,
                "duration": 0.0659091,
                "tempo": 120.0
            },
            {
                "start_time": 72.5681818,
                "end_time": 73.9477273,
                "pitch": 67,
                "velocity": 127,
                "duration": 1.3795455,
                "tempo": 120.0
            },
            {
                "start_time": 73.9818182,
                "end_time": 74.0477273,
                "pitch": 67,
                "velocity": 127,
                "duration": 0.0659091,
                "tempo": 120.0
            },
            {
                "start_time": 74.0818182,
                "end_time": 74.1477273,
                "pitch": 67,
                "velocity": 127,
                "duration": 0.0659091,
                "tempo": 120.0
            },
            {
                "start_time": 74.1840909,
                "end_time": 75.5545455,
                "pitch": 71,
                "velocity": 127,
                "duration": 1.3704545,
                "tempo": 120.0
            },
            {
                "start_time": 75.5909091,
                "end_time": 75.6568182,
                "pitch": 72,
                "velocity": 127,
                "duration": 0.0659091,
                "tempo": 120.0
            },
            {
                "start_time": 75.6931818,
                "end_time": 75.7568182,
                "pitch": 71,
                "velocity": 127,
                "duration": 0.0636364,
                "tempo": 120.0
            },
            {
                "start_time": 75.7931818,
                "end_time": 77.3659091,
                "pitch": 69,
                "velocity": 127,
                "duration": 1.5727273,
                "tempo": 120.0
            },
            {
                "start_time": 77.4068182,
                "end_time": 78.8090909,
                "pitch": 60,
                "velocity": 127,
                "duration": 1.4022727,
                "tempo": 120.0
            },
            {
                "start_time": 79.0136364,
                "end_time": 80.4159091,
                "pitch": 59,
                "velocity": 127,
                "duration": 1.4022727,
                "tempo": 120.0
            },
            {
                "start_time": 80.6204545,
                "end_time": 82.0295455,
                "pitch": 62,
                "velocity": 127,
                "duration": 1.4090909,
                "tempo": 120.0
            },
            {
                "start_time": 82.2386364,
                "end_time": 83.6363636,
                "pitch": 60,
                "velocity": 127,
                "duration": 1.3977273,
                "tempo": 120.0
            },
            {
                "start_time": 83.8454545,
                "end_time": 85.2522727,
                "pitch": 60,
                "velocity": 127,
                "duration": 1.4068182,
                "tempo": 120.0
            },
            {
                "start_time": 85.4568182,
                "end_time": 86.8681818,
                "pitch": 59,
                "velocity": 127,
                "duration": 1.4113636,
                "tempo": 120.0
            },
            {
                "start_time": 87.075,
                "end_time": 88.475,
                "pitch": 62,
                "velocity": 127,
                "duration": 1.4,
                "tempo": 120.0
            },
            {
                "start_time": 88.6840909,
                "end_time": 90.0886364,
                "pitch": 60,
                "velocity": 127,
                "duration": 1.4045455,
                "tempo": 120.0
            },
            {
                "start_time": 90.2954545,
                "end_time": 91.6613636,
                "pitch": 69,
                "velocity": 127,
                "duration": 1.3659091,
                "tempo": 120.0
            },
            {
                "start_time": 91.6977273,
                "end_time": 91.7613636,
                "pitch": 69,
                "velocity": 127,
                "duration": 0.0636364,
                "tempo": 120.0
            },
            {
                "start_time": 91.7977273,
                "end_time": 91.8636364,
                "pitch": 69,
                "velocity": 127,
                "duration": 0.0659091,
                "tempo": 120.0
            },
            {
                "start_time": 91.9,
                "end_time": 93.2704545,
                "pitch": 67,
                "velocity": 127,
                "duration": 1.3704545,
                "tempo": 120.0
            },
            {
                "start_time": 93.3068182,
                "end_time": 93.3704545,
                "pitch": 67,
                "velocity": 127,
                "duration": 0.0636364,
                "tempo": 120.0
            },
            {
                "start_time": 93.4068182,
                "end_time": 93.4704545,
                "pitch": 67,
                "velocity": 127,
                "duration": 0.0636364,
                "tempo": 120.0
            },
            {
                "start_time": 93.5090909,
                "end_time": 94.8795455,
                "pitch": 71,
                "velocity": 127,
                "duration": 1.3704545,
                "tempo": 120.0
            },
            {
                "start_time": 94.9159091,
                "end_time": 94.9795455,
                "pitch": 71,
                "velocity": 127,
                "duration": 0.0636364,
                "tempo": 120.0
            },
            {
                "start_time": 95.0159091,
                "end_time": 95.0795455,
                "pitch": 71,
                "velocity": 127,
                "duration": 0.0636364,
                "tempo": 120.0
            },
            {
                "start_time": 95.1181818,
                "end_time": 96.6977273,
                "pitch": 72,
                "velocity": 127,
                "duration": 1.5795455,
                "tempo": 120.0
            },
            {
                "start_time": 96.7363636,
                "end_time": 98.1068182,
                "pitch": 69,
                "velocity": 127,
                "duration": 1.3704545,
                "tempo": 120.0
            },
            {
                "start_time": 98.1431818,
                "end_time": 98.2068182,
                "pitch": 69,
                "velocity": 127,
                "duration": 0.0636364,
                "tempo": 120.0
            },
            {
                "start_time": 98.2431818,
                "end_time": 98.3068182,
                "pitch": 69,
                "velocity": 127,
                "duration": 0.0636364,
                "tempo": 120.0
            },
            {
                "start_time": 98.3431818,
                "end_time": 99.7159091,
                "pitch": 67,
                "velocity": 127,
                "duration": 1.3727273,
                "tempo": 120.0
            },
            {
                "start_time": 99.7522727,
                "end_time": 99.8159091,
                "pitch": 67,
                "velocity": 127,
                "duration": 0.0636364,
                "tempo": 120.0
            },
            {
                "start_time": 99.8522727,
                "end_time": 99.9159091,
                "pitch": 67,
                "velocity": 127,
                "duration": 0.0636364,
                "tempo": 120.0
            },
            {
                "start_time": 99.9545455,
                "end_time": 101.3227273,
                "pitch": 71,
                "velocity": 127,
                "duration": 1.3681818,
                "tempo": 120.0
            },
            {
                "start_time": 101.3590909,
                "end_time": 101.4227273,
                "pitch": 72,
                "velocity": 127,
                "duration": 0.0636364,
                "tempo": 120.0
            },
            {
                "start_time": 101.4590909,
                "end_time": 101.525,
                "pitch": 71,
                "velocity": 127,
                "duration": 0.0659091,
                "tempo": 120.0
            },
            {
                "start_time": 101.5613636,
                "end_time": 103.1318182,
                "pitch": 69,
                "velocity": 127,
                "duration": 1.5704545,
                "tempo": 120.0
            },
            {
                "start_time": 64.5204545,
                "end_time": 104.7909091,
                "pitch": 32,
                "velocity": 127,
                "duration": 40.2704545,
                "tempo": 120.0
            },
            {
                "start_time": 103.1772727,
                "end_time": 104.7909091,
                "pitch": 48,
                "velocity": 127,
                "duration": 1.6136364,
                "tempo": 120.0
            },
            {
                "start_time": 104.7909091,
                "end_time": 106.3977273,
                "pitch": 47,
                "velocity": 127,
                "duration": 1.6068182,
                "tempo": 120.0
            },
            {
                "start_time": 9.8363636,
                "end_time": 106.3977273,
                "pitch": 53,
                "velocity": 127,
                "duration": 96.5613636,
                "tempo": 120.0
            },
            {
                "start_time": 106.3977273,
                "end_time": 108.0045455,
                "pitch": 50,
                "velocity": 127,
                "duration": 1.6068182,
                "tempo": 120.0
            },
            {
                "start_time": 108.0045455,
                "end_time": 109.6159091,
                "pitch": 48,
                "velocity": 127,
                "duration": 1.6113636,
                "tempo": 120.0
            },
            {
                "start_time": 108.0045455,
                "end_time": 109.6159091,
                "pitch": 48,
                "velocity": 127,
                "duration": 1.6113636,
                "tempo": 120.0
            },
            {
                "start_time": 104.7909091,
                "end_time": 111.2227273,
                "pitch": 32,
                "velocity": 127,
                "duration": 6.4318182,
                "tempo": 120.0
            },
            {
                "start_time": 109.6159091,
                "end_time": 111.2227273,
                "pitch": 48,
                "velocity": 127,
                "duration": 1.6068182,
                "tempo": 120.0
            },
            {
                "start_time": 111.2227273,
                "end_time": 112.8409091,
                "pitch": 47,
                "velocity": 127,
                "duration": 1.6181818,
                "tempo": 120.0
            },
            {
                "start_time": 106.3977273,
                "end_time": 112.8409091,
                "pitch": 53,
                "velocity": 127,
                "duration": 6.4431818,
                "tempo": 120.0
            },
            {
                "start_time": 112.8409091,
                "end_time": 114.45,
                "pitch": 50,
                "velocity": 127,
                "duration": 1.6090909,
                "tempo": 120.0
            },
            {
                "start_time": 13.0681818,
                "end_time": 116.0636364,
                "pitch": 19,
                "velocity": 127,
                "duration": 102.9954545,
                "tempo": 120.0
            },
            {
                "start_time": 114.45,
                "end_time": 116.0636364,
                "pitch": 48,
                "velocity": 127,
                "duration": 1.6136364,
                "tempo": 120.0
            },
            {
                "start_time": 114.45,
                "end_time": 116.0636364,
                "pitch": 48,
                "velocity": 127,
                "duration": 1.6136364,
                "tempo": 120.0
            },
            {
                "start_time": 116.0636364,
                "end_time": 117.4295455,
                "pitch": 57,
                "velocity": 127,
                "duration": 1.3659091,
                "tempo": 120.0
            },
            {
                "start_time": 117.4659091,
                "end_time": 117.5295455,
                "pitch": 57,
                "velocity": 127,
                "duration": 0.0636364,
                "tempo": 120.0
            },
            {
                "start_time": 117.5659091,
                "end_time": 117.6295455,
                "pitch": 57,
                "velocity": 127,
                "duration": 0.0636364,
                "tempo": 120.0
            },
            {
                "start_time": 117.6681818,
                "end_time": 119.0363636,
                "pitch": 55,
                "velocity": 127,
                "duration": 1.3681818,
                "tempo": 120.0
            },
            {
                "start_time": 119.0704545,
                "end_time": 119.1363636,
                "pitch": 55,
                "velocity": 127,
                "duration": 0.0659091,
                "tempo": 120.0
            },
            {
                "start_time": 119.1727273,
                "end_time": 119.2363636,
                "pitch": 55,
                "velocity": 127,
                "duration": 0.0636364,
                "tempo": 120.0
            },
            {
                "start_time": 119.275,
                "end_time": 120.6545455,
                "pitch": 59,
                "velocity": 127,
                "duration": 1.3795455,
                "tempo": 120.0
            },
            {
                "start_time": 120.6886364,
                "end_time": 120.7545455,
                "pitch": 59,
                "velocity": 127,
                "duration": 0.0659091,
                "tempo": 120.0
            },
            {
                "start_time": 120.7909091,
                "end_time": 120.8568182,
                "pitch": 59,
                "velocity": 127,
                "duration": 0.0659091,
                "tempo": 120.0
            },
            {
                "start_time": 120.8931818,
                "end_time": 122.4636364,
                "pitch": 60,
                "velocity": 127,
                "duration": 1.5704545,
                "tempo": 120.0
            },
            {
                "start_time": 122.5022727,
                "end_time": 123.8727273,
                "pitch": 57,
                "velocity": 127,
                "duration": 1.3704545,
                "tempo": 120.0
            },
            {
                "start_time": 123.9068182,
                "end_time": 123.9727273,
                "pitch": 57,
                "velocity": 127,
                "duration": 0.0659091,
                "tempo": 120.0
            },
            {
                "start_time": 124.0090909,
                "end_time": 124.0727273,
                "pitch": 57,
                "velocity": 127,
                "duration": 0.0636364,
                "tempo": 120.0
            },
            {
                "start_time": 124.1113636,
                "end_time": 125.4795455,
                "pitch": 55,
                "velocity": 127,
                "duration": 1.3681818,
                "tempo": 120.0
            },
            {
                "start_time": 125.5159091,
                "end_time": 125.5795455,
                "pitch": 55,
                "velocity": 127,
                "duration": 0.0636364,
                "tempo": 120.0
            },
            {
                "start_time": 125.6159091,
                "end_time": 125.6818182,
                "pitch": 55,
                "velocity": 127,
                "duration": 0.0659091,
                "tempo": 120.0
            },
            {
                "start_time": 125.7204545,
                "end_time": 127.0886364,
                "pitch": 59,
                "velocity": 127,
                "duration": 1.3681818,
                "tempo": 120.0
            },
            {
                "start_time": 127.125,
                "end_time": 127.1886364,
                "pitch": 60,
                "velocity": 127,
                "duration": 0.0636364,
                "tempo": 120.0
            },
            {
                "start_time": 127.225,
                "end_time": 127.2886364,
                "pitch": 59,
                "velocity": 127,
                "duration": 0.0636364,
                "tempo": 120.0
            },
            {
                "start_time": 127.3272727,
                "end_time": 128.9045455,
                "pitch": 57,
                "velocity": 127,
                "duration": 1.5772727,
                "tempo": 120.0
            },
            {
                "start_time": 128.9431818,
                "end_time": 130.3477273,
                "pitch": 48,
                "velocity": 127,
                "duration": 1.4045455,
                "tempo": 120.0
            },
            {
                "start_time": 130.5522727,
                "end_time": 131.9590909,
                "pitch": 47,
                "velocity": 127,
                "duration": 1.4068182,
                "tempo": 120.0
            },
            {
                "start_time": 132.1613636,
                "end_time": 133.5681818,
                "pitch": 50,
                "velocity": 127,
                "duration": 1.4068182,
                "tempo": 120.0
            },
            {
                "start_time": 133.7681818,
                "end_time": 135.1795455,
                "pitch": 48,
                "velocity": 127,
                "duration": 1.4113636,
                "tempo": 120.0
            },
            {
                "start_time": 135.3886364,
                "end_time": 136.7954545,
                "pitch": 48,
                "velocity": 127,
                "duration": 1.4068182,
                "tempo": 120.0
            },
            {
                "start_time": 136.9977273,
                "end_time": 138.4045455,
                "pitch": 47,
                "velocity": 127,
                "duration": 1.4068182,
                "tempo": 120.0
            },
            {
                "start_time": 138.6068182,
                "end_time": 140.0159091,
                "pitch": 50,
                "velocity": 127,
                "duration": 1.4090909,
                "tempo": 120.0
            },
            {
                "start_time": 140.2181818,
                "end_time": 141.6272727,
                "pitch": 48,
                "velocity": 127,
                "duration": 1.4090909,
                "tempo": 120.0
            },
            {
                "start_time": 141.8340909,
                "end_time": 143.2113636,
                "pitch": 57,
                "velocity": 127,
                "duration": 1.3772727,
                "tempo": 120.0
            },
            {
                "start_time": 143.2477273,
                "end_time": 143.3113636,
                "pitch": 57,
                "velocity": 127,
                "duration": 0.0636364,
                "tempo": 120.0
            },
            {
                "start_time": 143.3477273,
                "end_time": 143.4113636,
                "pitch": 57,
                "velocity": 127,
                "duration": 0.0636364,
                "tempo": 120.0
            },
            {
                "start_time": 143.45,
                "end_time": 144.8227273,
                "pitch": 55,
                "velocity": 127,
                "duration": 1.3727273,
                "tempo": 120.0
            },
            {
                "start_time": 144.8590909,
                "end_time": 144.9227273,
                "pitch": 55,
                "velocity": 127,
                "duration": 0.0636364,
                "tempo": 120.0
            },
            {
                "start_time": 144.9590909,
                "end_time": 145.0227273,
                "pitch": 55,
                "velocity": 127,
                "duration": 0.0636364,
                "tempo": 120.0
            },
            {
                "start_time": 145.0590909,
                "end_time": 146.4340909,
                "pitch": 59,
                "velocity": 127,
                "duration": 1.375,
                "tempo": 120.0
            },
            {
                "start_time": 146.4704545,
                "end_time": 146.5340909,
                "pitch": 59,
                "velocity": 127,
                "duration": 0.0636364,
                "tempo": 120.0
            },
            {
                "start_time": 146.5704545,
                "end_time": 146.6363636,
                "pitch": 59,
                "velocity": 127,
                "duration": 0.0659091,
                "tempo": 120.0
            },
            {
                "start_time": 146.6727273,
                "end_time": 148.2454545,
                "pitch": 60,
                "velocity": 127,
                "duration": 1.5727273,
                "tempo": 120.0
            },
            {
                "start_time": 148.2840909,
                "end_time": 149.6545455,
                "pitch": 57,
                "velocity": 127,
                "duration": 1.3704545,
                "tempo": 120.0
            },
            {
                "start_time": 149.6909091,
                "end_time": 149.7545455,
                "pitch": 57,
                "velocity": 127,
                "duration": 0.0636364,
                "tempo": 120.0
            },
            {
                "start_time": 149.7909091,
                "end_time": 149.8568182,
                "pitch": 57,
                "velocity": 127,
                "duration": 0.0659091,
                "tempo": 120.0
            },
            {
                "start_time": 149.8931818,
                "end_time": 151.275,
                "pitch": 55,
                "velocity": 127,
                "duration": 1.3818182,
                "tempo": 120.0
            },
            {
                "start_time": 151.3113636,
                "end_time": 151.375,
                "pitch": 55,
                "velocity": 127,
                "duration": 0.0636364,
                "tempo": 120.0
            },
            {
                "start_time": 151.4090909,
                "end_time": 151.475,
                "pitch": 55,
                "velocity": 127,
                "duration": 0.0659091,
                "tempo": 120.0
            },
            {
                "start_time": 151.5113636,
                "end_time": 152.8863636,
                "pitch": 59,
                "velocity": 127,
                "duration": 1.375,
                "tempo": 120.0
            },
            {
                "start_time": 152.9227273,
                "end_time": 152.9863636,
                "pitch": 60,
                "velocity": 127,
                "duration": 0.0636364,
                "tempo": 120.0
            },
            {
                "start_time": 153.0227273,
                "end_time": 153.0863636,
                "pitch": 59,
                "velocity": 127,
                "duration": 0.0636364,
                "tempo": 120.0
            },
            {
                "start_time": 153.125,
                "end_time": 154.6977273,
                "pitch": 57,
                "velocity": 127,
                "duration": 1.5727273,
                "tempo": 120.0
            },
            {
                "start_time": 59.7022727,
                "end_time": 156.3454545,
                "pitch": 44,
                "velocity": 127,
                "duration": 96.6431818,
                "tempo": 120.0
            },
            {
                "start_time": 154.7409091,
                "end_time": 156.3454545,
                "pitch": 60,
                "velocity": 127,
                "duration": 1.6045455,
                "tempo": 120.0
            },
            {
                "start_time": 156.3454545,
                "end_time": 157.9522727,
                "pitch": 59,
                "velocity": 127,
                "duration": 1.6068182,
                "tempo": 120.0
            },
            {
                "start_time": 61.3068182,
                "end_time": 157.9522727,
                "pitch": 65,
                "velocity": 127,
                "duration": 96.6454545,
                "tempo": 120.0
            },
            {
                "start_time": 157.9522727,
                "end_time": 159.5727273,
                "pitch": 62,
                "velocity": 127,
                "duration": 1.6204545,
                "tempo": 120.0
            },
            {
                "start_time": 159.5727273,
                "end_time": 161.1818182,
                "pitch": 60,
                "velocity": 127,
                "duration": 1.6090909,
                "tempo": 120.0
            },
            {
                "start_time": 159.5727273,
                "end_time": 161.1818182,
                "pitch": 60,
                "velocity": 127,
                "duration": 1.6090909,
                "tempo": 120.0
            },
            {
                "start_time": 156.3454545,
                "end_time": 162.7931818,
                "pitch": 44,
                "velocity": 127,
                "duration": 6.4477273,
                "tempo": 120.0
            },
            {
                "start_time": 161.1818182,
                "end_time": 162.7931818,
                "pitch": 60,
                "velocity": 127,
                "duration": 1.6113636,
                "tempo": 120.0
            },
            {
                "start_time": 162.7931818,
                "end_time": 164.4,
                "pitch": 59,
                "velocity": 127,
                "duration": 1.6068182,
                "tempo": 120.0
            },
            {
                "start_time": 157.9522727,
                "end_time": 164.4,
                "pitch": 65,
                "velocity": 127,
                "duration": 6.4477273,
                "tempo": 120.0
            },
            {
                "start_time": 164.4,
                "end_time": 166.0090909,
                "pitch": 62,
                "velocity": 127,
                "duration": 1.6090909,
                "tempo": 120.0
            },
            {
                "start_time": 111.2227273,
                "end_time": 167.6318182,
                "pitch": 32,
                "velocity": 127,
                "duration": 56.4090909,
                "tempo": 120.0
            },
            {
                "start_time": 166.0090909,
                "end_time": 167.6318182,
                "pitch": 60,
                "velocity": 127,
                "duration": 1.6227273,
                "tempo": 120.0
            },
            {
                "start_time": 166.0090909,
                "end_time": 167.6318182,
                "pitch": 60,
                "velocity": 127,
                "duration": 1.6227273,
                "tempo": 120.0
            },
            {
                "start_time": 167.6318182,
                "end_time": 169.0,
                "pitch": 69,
                "velocity": 127,
                "duration": 1.3681818,
                "tempo": 120.0
            },
            {
                "start_time": 169.0363636,
                "end_time": 169.1,
                "pitch": 69,
                "velocity": 127,
                "duration": 0.0636364,
                "tempo": 120.0
            },
            {
                "start_time": 169.1363636,
                "end_time": 169.2,
                "pitch": 69,
                "velocity": 127,
                "duration": 0.0636364,
                "tempo": 120.0
            },
            {
                "start_time": 169.2386364,
                "end_time": 170.6113636,
                "pitch": 67,
                "velocity": 127,
                "duration": 1.3727273,
                "tempo": 120.0
            },
            {
                "start_time": 170.6477273,
                "end_time": 170.7136364,
                "pitch": 67,
                "velocity": 127,
                "duration": 0.0659091,
                "tempo": 120.0
            },
            {
                "start_time": 170.7477273,
                "end_time": 170.8136364,
                "pitch": 67,
                "velocity": 127,
                "duration": 0.0659091,
                "tempo": 120.0
            },
            {
                "start_time": 170.85,
                "end_time": 172.2227273,
                "pitch": 71,
                "velocity": 127,
                "duration": 1.3727273,
                "tempo": 120.0
            },
            {
                "start_time": 172.2568182,
                "end_time": 172.3227273,
                "pitch": 71,
                "velocity": 127,
                "duration": 0.0659091,
                "tempo": 120.0
            },
            {
                "start_time": 172.3590909,
                "end_time": 172.4227273,
                "pitch": 71,
                "velocity": 127,
                "duration": 0.0636364,
                "tempo": 120.0
            },
            {
                "start_time": 172.4613636,
                "end_time": 174.0340909,
                "pitch": 72,
                "velocity": 127,
                "duration": 1.5727273,
                "tempo": 120.0
            },
            {
                "start_time": 174.0727273,
                "end_time": 175.4522727,
                "pitch": 69,
                "velocity": 127,
                "duration": 1.3795455,
                "tempo": 120.0
            },
            {
                "start_time": 175.4886364,
                "end_time": 175.5522727,
                "pitch": 69,
                "velocity": 127,
                "duration": 0.0636364,
                "tempo": 120.0
            },
            {
                "start_time": 175.5886364,
                "end_time": 175.6522727,
                "pitch": 69,
                "velocity": 127,
                "duration": 0.0636364,
                "tempo": 120.0
            },
            {
                "start_time": 175.6909091,
                "end_time": 177.0636364,
                "pitch": 67,
                "velocity": 127,
                "duration": 1.3727273,
                "tempo": 120.0
            },
            {
                "start_time": 177.1,
                "end_time": 177.1636364,
                "pitch": 67,
                "velocity": 127,
                "duration": 0.0636364,
                "tempo": 120.0
            },
            {
                "start_time": 177.2,
                "end_time": 177.2659091,
                "pitch": 67,
                "velocity": 127,
                "duration": 0.0659091,
                "tempo": 120.0
            },
            {
                "start_time": 177.3022727,
                "end_time": 178.6727273,
                "pitch": 71,
                "velocity": 127,
                "duration": 1.3704545,
                "tempo": 120.0
            },
            {
                "start_time": 178.7090909,
                "end_time": 178.775,
                "pitch": 72,
                "velocity": 127,
                "duration": 0.0659091,
                "tempo": 120.0
            },
            {
                "start_time": 178.8090909,
                "end_time": 178.875,
                "pitch": 71,
                "velocity": 127,
                "duration": 0.0659091,
                "tempo": 120.0
            }
        ],
        "Synth Bass 1": [
            {
                "start_time": 26.0363636,
                "end_time": 26.2431818,
                "pitch": 45,
                "velocity": 80,
                "duration": 0.2068182,
                "tempo": 120.0
            },
            {
                "start_time": 26.2431818,
                "end_time": 26.4454545,
                "pitch": 48,
                "velocity": 80,
                "duration": 0.2022727,
                "tempo": 120.0
            },
            {
                "start_time": 26.2431818,
                "end_time": 26.4454545,
                "pitch": 52,
                "velocity": 80,
                "duration": 0.2022727,
                "tempo": 120.0
            },
            {
                "start_time": 26.4454545,
                "end_time": 27.05,
                "pitch": 52,
                "velocity": 80,
                "duration": 0.6045455,
                "tempo": 120.0
            },
            {
                "start_time": 26.4454545,
                "end_time": 27.05,
                "pitch": 52,
                "velocity": 80,
                "duration": 0.6045455,
                "tempo": 120.0
            },
            {
                "start_time": 27.05,
                "end_time": 27.25,
                "pitch": 52,
                "velocity": 80,
                "duration": 0.2,
                "tempo": 120.0
            },
            {
                "start_time": 27.25,
                "end_time": 27.4522727,
                "pitch": 50,
                "velocity": 80,
                "duration": 0.2022727,
                "tempo": 120.0
            },
            {
                "start_time": 27.4522727,
                "end_time": 27.6522727,
                "pitch": 48,
                "velocity": 80,
                "duration": 0.2,
                "tempo": 120.0
            },
            {
                "start_time": 27.4522727,
                "end_time": 27.6522727,
                "pitch": 48,
                "velocity": 80,
                "duration": 0.2,
                "tempo": 120.0
            },
            {
                "start_time": 27.6522727,
                "end_time": 27.8522727,
                "pitch": 43,
                "velocity": 80,
                "duration": 0.2,
                "tempo": 120.0
            },
            {
                "start_time": 27.8522727,
                "end_time": 28.0522727,
                "pitch": 47,
                "velocity": 80,
                "duration": 0.2,
                "tempo": 120.0
            },
            {
                "start_time": 27.8522727,
                "end_time": 28.0522727,
                "pitch": 47,
                "velocity": 80,
                "duration": 0.2,
                "tempo": 120.0
            },
            {
                "start_time": 28.0522727,
                "end_time": 28.6545455,
                "pitch": 50,
                "velocity": 80,
                "duration": 0.6022727,
                "tempo": 120.0
            },
            {
                "start_time": 28.6545455,
                "end_time": 28.8568182,
                "pitch": 50,
                "velocity": 80,
                "duration": 0.2022727,
                "tempo": 120.0
            },
            {
                "start_time": 28.8568182,
                "end_time": 29.0568182,
                "pitch": 48,
                "velocity": 80,
                "duration": 0.2,
                "tempo": 120.0
            },
            {
                "start_time": 28.8568182,
                "end_time": 29.0568182,
                "pitch": 48,
                "velocity": 80,
                "duration": 0.2,
                "tempo": 120.0
            },
            {
                "start_time": 29.0568182,
                "end_time": 29.2568182,
                "pitch": 47,
                "velocity": 80,
                "duration": 0.2,
                "tempo": 120.0
            },
            {
                "start_time": 29.2568182,
                "end_time": 29.4590909,
                "pitch": 47,
                "velocity": 80,
                "duration": 0.2022727,
                "tempo": 120.0
            },
            {
                "start_time": 28.0522727,
                "end_time": 29.4590909,
                "pitch": 53,
                "velocity": 80,
                "duration": 1.4068182,
                "tempo": 120.0
            },
            {
                "start_time": 29.4590909,
                "end_time": 29.6613636,
                "pitch": 50,
                "velocity": 80,
                "duration": 0.2022727,
                "tempo": 120.0
            },
            {
                "start_time": 29.4590909,
                "end_time": 29.6613636,
                "pitch": 53,
                "velocity": 80,
                "duration": 0.2022727,
                "tempo": 120.0
            },
            {
                "start_time": 29.6613636,
                "end_time": 30.2613636,
                "pitch": 53,
                "velocity": 80,
                "duration": 0.6,
                "tempo": 120.0
            },
            {
                "start_time": 29.6613636,
                "end_time": 30.2613636,
                "pitch": 53,
                "velocity": 80,
                "duration": 0.6,
                "tempo": 120.0
            },
            {
                "start_time": 30.2613636,
                "end_time": 30.4613636,
                "pitch": 53,
                "velocity": 80,
                "duration": 0.2,
                "tempo": 120.0
            },
            {
                "start_time": 30.4613636,
                "end_time": 30.6636364,
                "pitch": 52,
                "velocity": 80,
                "duration": 0.2022727,
                "tempo": 120.0
            },
            {
                "start_time": 30.6636364,
                "end_time": 30.8681818,
                "pitch": 50,
                "velocity": 80,
                "duration": 0.2045455,
                "tempo": 120.0
            },
            {
                "start_time": 29.0568182,
                "end_time": 31.0727273,
                "pitch": 32,
                "velocity": 80,
                "duration": 2.0159091,
                "tempo": 120.0
            },
            {
                "start_time": 30.8681818,
                "end_time": 31.0727273,
                "pitch": 48,
                "velocity": 80,
                "duration": 0.2045455,
                "tempo": 120.0
            },
            {
                "start_time": 30.8681818,
                "end_time": 31.0727273,
                "pitch": 48,
                "velocity": 80,
                "duration": 0.2045455,
                "tempo": 120.0
            },
            {
                "start_time": 31.0727273,
                "end_time": 31.275,
                "pitch": 47,
                "velocity": 80,
                "duration": 0.2022727,
                "tempo": 120.0
            },
            {
                "start_time": 31.275,
                "end_time": 32.4727273,
                "pitch": 45,
                "velocity": 80,
                "duration": 1.1977273,
                "tempo": 120.0
            },
            {
                "start_time": 32.4727273,
                "end_time": 32.6772727,
                "pitch": 45,
                "velocity": 80,
                "duration": 0.2045455,
                "tempo": 120.0
            },
            {
                "start_time": 32.6772727,
                "end_time": 32.8818182,
                "pitch": 48,
                "velocity": 80,
                "duration": 0.2045455,
                "tempo": 120.0
            },
            {
                "start_time": 32.6772727,
                "end_time": 32.8818182,
                "pitch": 52,
                "velocity": 80,
                "duration": 0.2045455,
                "tempo": 120.0
            },
            {
                "start_time": 32.8818182,
                "end_time": 33.4818182,
                "pitch": 52,
                "velocity": 80,
                "duration": 0.6,
                "tempo": 120.0
            },
            {
                "start_time": 32.8818182,
                "end_time": 33.4818182,
                "pitch": 52,
                "velocity": 80,
                "duration": 0.6,
                "tempo": 120.0
            },
            {
                "start_time": 33.4818182,
                "end_time": 33.6818182,
                "pitch": 52,
                "velocity": 80,
                "duration": 0.2,
                "tempo": 120.0
            },
            {
                "start_time": 33.6818182,
                "end_time": 33.8818182,
                "pitch": 50,
                "velocity": 80,
                "duration": 0.2,
                "tempo": 120.0
            },
            {
                "start_time": 33.8818182,
                "end_time": 34.0840909,
                "pitch": 48,
                "velocity": 80,
                "duration": 0.2022727,
                "tempo": 120.0
            },
            {
                "start_time": 33.8818182,
                "end_time": 34.0840909,
                "pitch": 48,
                "velocity": 80,
                "duration": 0.2022727,
                "tempo": 120.0
            },
            {
                "start_time": 34.0840909,
                "end_time": 34.2840909,
                "pitch": 43,
                "velocity": 80,
                "duration": 0.2,
                "tempo": 120.0
            },
            {
                "start_time": 34.2840909,
                "end_time": 34.4863636,
                "pitch": 47,
                "velocity": 80,
                "duration": 0.2022727,
                "tempo": 120.0
            },
            {
                "start_time": 34.2840909,
                "end_time": 34.4863636,
                "pitch": 47,
                "velocity": 80,
                "duration": 0.2022727,
                "tempo": 120.0
            },
            {
                "start_time": 34.4863636,
                "end_time": 35.0863636,
                "pitch": 50,
                "velocity": 80,
                "duration": 0.6,
                "tempo": 120.0
            },
            {
                "start_time": 35.0863636,
                "end_time": 35.2863636,
                "pitch": 50,
                "velocity": 80,
                "duration": 0.2,
                "tempo": 120.0
            },
            {
                "start_time": 31.0727273,
                "end_time": 35.4863636,
                "pitch": 32,
                "velocity": 80,
                "duration": 4.4136364,
                "tempo": 120.0
            },
            {
                "start_time": 35.2863636,
                "end_time": 35.4863636,
                "pitch": 48,
                "velocity": 80,
                "duration": 0.2,
                "tempo": 120.0
            },
            {
                "start_time": 35.2863636,
                "end_time": 35.4863636,
                "pitch": 48,
                "velocity": 80,
                "duration": 0.2,
                "tempo": 120.0
            },
            {
                "start_time": 35.4863636,
                "end_time": 35.6863636,
                "pitch": 47,
                "velocity": 80,
                "duration": 0.2,
                "tempo": 120.0
            },
            {
                "start_time": 35.6863636,
                "end_time": 35.8863636,
                "pitch": 47,
                "velocity": 80,
                "duration": 0.2,
                "tempo": 120.0
            },
            {
                "start_time": 34.4863636,
                "end_time": 35.8886364,
                "pitch": 53,
                "velocity": 80,
                "duration": 1.4022727,
                "tempo": 120.0
            },
            {
                "start_time": 35.8863636,
                "end_time": 35.8886364,
                "pitch": 53,
                "velocity": 80,
                "duration": 0.0022727,
                "tempo": 120.0
            },
            {
                "start_time": 35.8886364,
                "end_time": 36.0886364,
                "pitch": 50,
                "velocity": 80,
                "duration": 0.2,
                "tempo": 120.0
            },
            {
                "start_time": 36.0886364,
                "end_time": 36.6909091,
                "pitch": 53,
                "velocity": 80,
                "duration": 0.6022727,
                "tempo": 120.0
            },
            {
                "start_time": 36.0886364,
                "end_time": 36.6909091,
                "pitch": 53,
                "velocity": 80,
                "duration": 0.6022727,
                "tempo": 120.0
            },
            {
                "start_time": 36.6909091,
                "end_time": 36.8909091,
                "pitch": 53,
                "velocity": 80,
                "duration": 0.2,
                "tempo": 120.0
            },
            {
                "start_time": 36.8909091,
                "end_time": 37.0909091,
                "pitch": 52,
                "velocity": 80,
                "duration": 0.2,
                "tempo": 120.0
            },
            {
                "start_time": 37.0909091,
                "end_time": 37.2909091,
                "pitch": 50,
                "velocity": 80,
                "duration": 0.2,
                "tempo": 120.0
            },
            {
                "start_time": 37.2931818,
                "end_time": 37.4931818,
                "pitch": 52,
                "velocity": 80,
                "duration": 0.2,
                "tempo": 120.0
            },
            {
                "start_time": 37.4931818,
                "end_time": 37.6931818,
                "pitch": 50,
                "velocity": 80,
                "duration": 0.2,
                "tempo": 120.0
            },
            {
                "start_time": 35.4863636,
                "end_time": 77.5022727,
                "pitch": 32,
                "velocity": 80,
                "duration": 42.0159091,
                "tempo": 120.0
            },
            {
                "start_time": 37.6931818,
                "end_time": 77.5022727,
                "pitch": 48,
                "velocity": 80,
                "duration": 39.8090909,
                "tempo": 120.0
            },
            {
                "start_time": 37.6931818,
                "end_time": 77.5022727,
                "pitch": 48,
                "velocity": 80,
                "duration": 39.8090909,
                "tempo": 120.0
            },
            {
                "start_time": 77.5022727,
                "end_time": 77.7068182,
                "pitch": 45,
                "velocity": 80,
                "duration": 0.2045455,
                "tempo": 120.0
            },
            {
                "start_time": 77.7068182,
                "end_time": 77.7090909,
                "pitch": 52,
                "velocity": 80,
                "duration": 0.0022727,
                "tempo": 120.0
            },
            {
                "start_time": 77.7090909,
                "end_time": 77.9090909,
                "pitch": 48,
                "velocity": 80,
                "duration": 0.2,
                "tempo": 120.0
            },
            {
                "start_time": 77.9090909,
                "end_time": 78.5068182,
                "pitch": 52,
                "velocity": 80,
                "duration": 0.5977273,
                "tempo": 120.0
            },
            {
                "start_time": 77.9090909,
                "end_time": 78.5068182,
                "pitch": 52,
                "velocity": 80,
                "duration": 0.5977273,
                "tempo": 120.0
            },
            {
                "start_time": 78.5068182,
                "end_time": 78.7068182,
                "pitch": 52,
                "velocity": 80,
                "duration": 0.2,
                "tempo": 120.0
            },
            {
                "start_time": 78.7068182,
                "end_time": 78.9090909,
                "pitch": 50,
                "velocity": 80,
                "duration": 0.2022727,
                "tempo": 120.0
            },
            {
                "start_time": 78.9090909,
                "end_time": 79.1136364,
                "pitch": 48,
                "velocity": 80,
                "duration": 0.2045455,
                "tempo": 120.0
            },
            {
                "start_time": 78.9090909,
                "end_time": 79.1136364,
                "pitch": 48,
                "velocity": 80,
                "duration": 0.2045455,
                "tempo": 120.0
            },
            {
                "start_time": 79.1136364,
                "end_time": 79.3181818,
                "pitch": 43,
                "velocity": 80,
                "duration": 0.2045455,
                "tempo": 120.0
            },
            {
                "start_time": 79.3181818,
                "end_time": 79.5204545,
                "pitch": 47,
                "velocity": 80,
                "duration": 0.2022727,
                "tempo": 120.0
            },
            {
                "start_time": 79.3181818,
                "end_time": 79.5204545,
                "pitch": 47,
                "velocity": 80,
                "duration": 0.2022727,
                "tempo": 120.0
            },
            {
                "start_time": 79.5204545,
                "end_time": 80.1136364,
                "pitch": 50,
                "velocity": 80,
                "duration": 0.5931818,
                "tempo": 120.0
            },
            {
                "start_time": 80.1136364,
                "end_time": 80.3159091,
                "pitch": 50,
                "velocity": 80,
                "duration": 0.2022727,
                "tempo": 120.0
            },
            {
                "start_time": 77.5022727,
                "end_time": 80.5159091,
                "pitch": 32,
                "velocity": 80,
                "duration": 3.0136364,
                "tempo": 120.0
            },
            {
                "start_time": 80.3159091,
                "end_time": 80.5159091,
                "pitch": 48,
                "velocity": 80,
                "duration": 0.2,
                "tempo": 120.0
            },
            {
                "start_time": 80.3159091,
                "end_time": 80.5159091,
                "pitch": 48,
                "velocity": 80,
                "duration": 0.2,
                "tempo": 120.0
            },
            {
                "start_time": 80.5159091,
                "end_time": 80.7181818,
                "pitch": 47,
                "velocity": 80,
                "duration": 0.2022727,
                "tempo": 120.0
            },
            {
                "start_time": 80.7181818,
                "end_time": 80.9204545,
                "pitch": 47,
                "velocity": 80,
                "duration": 0.2022727,
                "tempo": 120.0
            },
            {
                "start_time": 79.5204545,
                "end_time": 80.9204545,
                "pitch": 53,
                "velocity": 80,
                "duration": 1.4,
                "tempo": 120.0
            },
            {
                "start_time": 80.9204545,
                "end_time": 81.1204545,
                "pitch": 50,
                "velocity": 80,
                "duration": 0.2,
                "tempo": 120.0
            },
            {
                "start_time": 80.9204545,
                "end_time": 81.1204545,
                "pitch": 53,
                "velocity": 80,
                "duration": 0.2,
                "tempo": 120.0
            },
            {
                "start_time": 81.1204545,
                "end_time": 81.7227273,
                "pitch": 53,
                "velocity": 80,
                "duration": 0.6022727,
                "tempo": 120.0
            },
            {
                "start_time": 81.1204545,
                "end_time": 81.7227273,
                "pitch": 53,
                "velocity": 80,
                "duration": 0.6022727,
                "tempo": 120.0
            },
            {
                "start_time": 81.7227273,
                "end_time": 81.9272727,
                "pitch": 53,
                "velocity": 80,
                "duration": 0.2045455,
                "tempo": 120.0
            },
            {
                "start_time": 81.9272727,
                "end_time": 82.1318182,
                "pitch": 52,
                "velocity": 80,
                "duration": 0.2045455,
                "tempo": 120.0
            },
            {
                "start_time": 82.1318182,
                "end_time": 82.3363636,
                "pitch": 50,
                "velocity": 80,
                "duration": 0.2045455,
                "tempo": 120.0
            },
            {
                "start_time": 80.5159091,
                "end_time": 82.5386364,
                "pitch": 32,
                "velocity": 80,
                "duration": 2.0227273,
                "tempo": 120.0
            },
            {
                "start_time": 82.3363636,
                "end_time": 82.5386364,
                "pitch": 48,
                "velocity": 80,
                "duration": 0.2022727,
                "tempo": 120.0
            },
            {
                "start_time": 82.3363636,
                "end_time": 82.5386364,
                "pitch": 48,
                "velocity": 80,
                "duration": 0.2022727,
                "tempo": 120.0
            },
            {
                "start_time": 82.5386364,
                "end_time": 82.7363636,
                "pitch": 47,
                "velocity": 80,
                "duration": 0.1977273,
                "tempo": 120.0
            },
            {
                "start_time": 82.7363636,
                "end_time": 83.9454545,
                "pitch": 45,
                "velocity": 80,
                "duration": 1.2090909,
                "tempo": 120.0
            },
            {
                "start_time": 83.9454545,
                "end_time": 84.1454545,
                "pitch": 45,
                "velocity": 80,
                "duration": 0.2,
                "tempo": 120.0
            },
            {
                "start_time": 84.1454545,
                "end_time": 84.3454545,
                "pitch": 48,
                "velocity": 80,
                "duration": 0.2,
                "tempo": 120.0
            },
            {
                "start_time": 84.1454545,
                "end_time": 84.3454545,
                "pitch": 52,
                "velocity": 80,
                "duration": 0.2,
                "tempo": 120.0
            },
            {
                "start_time": 84.3454545,
                "end_time": 84.9477273,
                "pitch": 52,
                "velocity": 80,
                "duration": 0.6022727,
                "tempo": 120.0
            },
            {
                "start_time": 84.3454545,
                "end_time": 84.9477273,
                "pitch": 52,
                "velocity": 80,
                "duration": 0.6022727,
                "tempo": 120.0
            },
            {
                "start_time": 84.9477273,
                "end_time": 85.1522727,
                "pitch": 52,
                "velocity": 80,
                "duration": 0.2045455,
                "tempo": 120.0
            },
            {
                "start_time": 85.1522727,
                "end_time": 85.3522727,
                "pitch": 50,
                "velocity": 80,
                "duration": 0.2,
                "tempo": 120.0
            },
            {
                "start_time": 85.3522727,
                "end_time": 85.5568182,
                "pitch": 48,
                "velocity": 80,
                "duration": 0.2045455,
                "tempo": 120.0
            },
            {
                "start_time": 85.3522727,
                "end_time": 85.5568182,
                "pitch": 48,
                "velocity": 80,
                "duration": 0.2045455,
                "tempo": 120.0
            },
            {
                "start_time": 85.5568182,
                "end_time": 85.7613636,
                "pitch": 43,
                "velocity": 80,
                "duration": 0.2045455,
                "tempo": 120.0
            },
            {
                "start_time": 85.7613636,
                "end_time": 85.9636364,
                "pitch": 47,
                "velocity": 80,
                "duration": 0.2022727,
                "tempo": 120.0
            },
            {
                "start_time": 85.7613636,
                "end_time": 85.9636364,
                "pitch": 47,
                "velocity": 80,
                "duration": 0.2022727,
                "tempo": 120.0
            },
            {
                "start_time": 85.9636364,
                "end_time": 86.5613636,
                "pitch": 50,
                "velocity": 80,
                "duration": 0.5977273,
                "tempo": 120.0
            },
            {
                "start_time": 86.5613636,
                "end_time": 86.7636364,
                "pitch": 50,
                "velocity": 80,
                "duration": 0.2022727,
                "tempo": 120.0
            },
            {
                "start_time": 82.5386364,
                "end_time": 86.9704545,
                "pitch": 32,
                "velocity": 80,
                "duration": 4.4318182,
                "tempo": 120.0
            },
            {
                "start_time": 86.7636364,
                "end_time": 86.9704545,
                "pitch": 48,
                "velocity": 80,
                "duration": 0.2068182,
                "tempo": 120.0
            },
            {
                "start_time": 86.7636364,
                "end_time": 86.9704545,
                "pitch": 48,
                "velocity": 80,
                "duration": 0.2068182,
                "tempo": 120.0
            },
            {
                "start_time": 86.9704545,
                "end_time": 87.1727273,
                "pitch": 47,
                "velocity": 80,
                "duration": 0.2022727,
                "tempo": 120.0
            },
            {
                "start_time": 87.1727273,
                "end_time": 87.3727273,
                "pitch": 47,
                "velocity": 80,
                "duration": 0.2,
                "tempo": 120.0
            },
            {
                "start_time": 85.9636364,
                "end_time": 87.3727273,
                "pitch": 53,
                "velocity": 80,
                "duration": 1.4090909,
                "tempo": 120.0
            },
            {
                "start_time": 87.3727273,
                "end_time": 87.575,
                "pitch": 50,
                "velocity": 80,
                "duration": 0.2022727,
                "tempo": 120.0
            },
            {
                "start_time": 87.3727273,
                "end_time": 87.575,
                "pitch": 53,
                "velocity": 80,
                "duration": 0.2022727,
                "tempo": 120.0
            },
            {
                "start_time": 87.575,
                "end_time": 88.1704545,
                "pitch": 53,
                "velocity": 80,
                "duration": 0.5954545,
                "tempo": 120.0
            },
            {
                "start_time": 87.575,
                "end_time": 88.1704545,
                "pitch": 53,
                "velocity": 80,
                "duration": 0.5954545,
                "tempo": 120.0
            },
            {
                "start_time": 88.1704545,
                "end_time": 88.3727273,
                "pitch": 53,
                "velocity": 80,
                "duration": 0.2022727,
                "tempo": 120.0
            },
            {
                "start_time": 88.3727273,
                "end_time": 88.5772727,
                "pitch": 52,
                "velocity": 80,
                "duration": 0.2045455,
                "tempo": 120.0
            },
            {
                "start_time": 88.5772727,
                "end_time": 88.7818182,
                "pitch": 50,
                "velocity": 80,
                "duration": 0.2045455,
                "tempo": 120.0
            },
            {
                "start_time": 88.7818182,
                "end_time": 88.9818182,
                "pitch": 52,
                "velocity": 80,
                "duration": 0.2,
                "tempo": 120.0
            },
            {
                "start_time": 88.9818182,
                "end_time": 89.1840909,
                "pitch": 50,
                "velocity": 80,
                "duration": 0.2022727,
                "tempo": 120.0
            },
            {
                "start_time": 86.9704545,
                "end_time": 129.0386364,
                "pitch": 32,
                "velocity": 80,
                "duration": 42.0681818,
                "tempo": 120.0
            },
            {
                "start_time": 89.1840909,
                "end_time": 129.0386364,
                "pitch": 48,
                "velocity": 80,
                "duration": 39.8545455,
                "tempo": 120.0
            },
            {
                "start_time": 89.1840909,
                "end_time": 129.0386364,
                "pitch": 48,
                "velocity": 80,
                "duration": 39.8545455,
                "tempo": 120.0
            },
            {
                "start_time": 129.0409091,
                "end_time": 129.2409091,
                "pitch": 45,
                "velocity": 80,
                "duration": 0.2,
                "tempo": 120.0
            },
            {
                "start_time": 129.2409091,
                "end_time": 129.4409091,
                "pitch": 48,
                "velocity": 80,
                "duration": 0.2,
                "tempo": 120.0
            },
            {
                "start_time": 129.2409091,
                "end_time": 129.4409091,
                "pitch": 52,
                "velocity": 80,
                "duration": 0.2,
                "tempo": 120.0
            },
            {
                "start_time": 129.4409091,
                "end_time": 130.0454545,
                "pitch": 52,
                "velocity": 80,
                "duration": 0.6045455,
                "tempo": 120.0
            },
            {
                "start_time": 129.4409091,
                "end_time": 130.0454545,
                "pitch": 52,
                "velocity": 80,
                "duration": 0.6045455,
                "tempo": 120.0
            },
            {
                "start_time": 130.0454545,
                "end_time": 130.2454545,
                "pitch": 52,
                "velocity": 80,
                "duration": 0.2,
                "tempo": 120.0
            },
            {
                "start_time": 130.2454545,
                "end_time": 130.4477273,
                "pitch": 50,
                "velocity": 80,
                "duration": 0.2022727,
                "tempo": 120.0
            },
            {
                "start_time": 130.4477273,
                "end_time": 130.65,
                "pitch": 48,
                "velocity": 80,
                "duration": 0.2022727,
                "tempo": 120.0
            },
            {
                "start_time": 130.4477273,
                "end_time": 130.65,
                "pitch": 48,
                "velocity": 80,
                "duration": 0.2022727,
                "tempo": 120.0
            },
            {
                "start_time": 130.65,
                "end_time": 130.8522727,
                "pitch": 43,
                "velocity": 80,
                "duration": 0.2022727,
                "tempo": 120.0
            },
            {
                "start_time": 130.8522727,
                "end_time": 131.0522727,
                "pitch": 47,
                "velocity": 80,
                "duration": 0.2,
                "tempo": 120.0
            },
            {
                "start_time": 130.8522727,
                "end_time": 131.0522727,
                "pitch": 47,
                "velocity": 80,
                "duration": 0.2,
                "tempo": 120.0
            },
            {
                "start_time": 131.0522727,
                "end_time": 131.6568182,
                "pitch": 50,
                "velocity": 80,
                "duration": 0.6045455,
                "tempo": 120.0
            },
            {
                "start_time": 131.6568182,
                "end_time": 131.8568182,
                "pitch": 50,
                "velocity": 80,
                "duration": 0.2,
                "tempo": 120.0
            },
            {
                "start_time": 129.0386364,
                "end_time": 132.0590909,
                "pitch": 32,
                "velocity": 80,
                "duration": 3.0204545,
                "tempo": 120.0
            },
            {
                "start_time": 131.8568182,
                "end_time": 132.0590909,
                "pitch": 48,
                "velocity": 80,
                "duration": 0.2022727,
                "tempo": 120.0
            },
            {
                "start_time": 131.8568182,
                "end_time": 132.0590909,
                "pitch": 48,
                "velocity": 80,
                "duration": 0.2022727,
                "tempo": 120.0
            },
            {
                "start_time": 132.0590909,
                "end_time": 132.2613636,
                "pitch": 47,
                "velocity": 80,
                "duration": 0.2022727,
                "tempo": 120.0
            },
            {
                "start_time": 132.2613636,
                "end_time": 132.4681818,
                "pitch": 47,
                "velocity": 80,
                "duration": 0.2068182,
                "tempo": 120.0
            },
            {
                "start_time": 131.0522727,
                "end_time": 132.4681818,
                "pitch": 53,
                "velocity": 80,
                "duration": 1.4159091,
                "tempo": 120.0
            },
            {
                "start_time": 132.4681818,
                "end_time": 132.6681818,
                "pitch": 50,
                "velocity": 80,
                "duration": 0.2,
                "tempo": 120.0
            },
            {
                "start_time": 132.4681818,
                "end_time": 132.6681818,
                "pitch": 53,
                "velocity": 80,
                "duration": 0.2,
                "tempo": 120.0
            },
            {
                "start_time": 132.6681818,
                "end_time": 133.2659091,
                "pitch": 53,
                "velocity": 80,
                "duration": 0.5977273,
                "tempo": 120.0
            },
            {
                "start_time": 132.6681818,
                "end_time": 133.2659091,
                "pitch": 53,
                "velocity": 80,
                "duration": 0.5977273,
                "tempo": 120.0
            },
            {
                "start_time": 133.2659091,
                "end_time": 133.4659091,
                "pitch": 53,
                "velocity": 80,
                "duration": 0.2,
                "tempo": 120.0
            },
            {
                "start_time": 133.4659091,
                "end_time": 133.6659091,
                "pitch": 52,
                "velocity": 80,
                "duration": 0.2,
                "tempo": 120.0
            },
            {
                "start_time": 133.6659091,
                "end_time": 133.8681818,
                "pitch": 50,
                "velocity": 80,
                "duration": 0.2022727,
                "tempo": 120.0
            },
            {
                "start_time": 132.0590909,
                "end_time": 134.075,
                "pitch": 32,
                "velocity": 80,
                "duration": 2.0159091,
                "tempo": 120.0
            },
            {
                "start_time": 133.8681818,
                "end_time": 134.075,
                "pitch": 48,
                "velocity": 80,
                "duration": 0.2068182,
                "tempo": 120.0
            },
            {
                "start_time": 133.8681818,
                "end_time": 134.075,
                "pitch": 48,
                "velocity": 80,
                "duration": 0.2068182,
                "tempo": 120.0
            },
            {
                "start_time": 134.075,
                "end_time": 134.2795455,
                "pitch": 47,
                "velocity": 80,
                "duration": 0.2045455,
                "tempo": 120.0
            },
            {
                "start_time": 134.2795455,
                "end_time": 135.4863636,
                "pitch": 45,
                "velocity": 80,
                "duration": 1.2068182,
                "tempo": 120.0
            },
            {
                "start_time": 135.4863636,
                "end_time": 135.6886364,
                "pitch": 45,
                "velocity": 80,
                "duration": 0.2022727,
                "tempo": 120.0
            },
            {
                "start_time": 135.6886364,
                "end_time": 135.8886364,
                "pitch": 48,
                "velocity": 80,
                "duration": 0.2,
                "tempo": 120.0
            },
            {
                "start_time": 135.6886364,
                "end_time": 135.8886364,
                "pitch": 52,
                "velocity": 80,
                "duration": 0.2,
                "tempo": 120.0
            },
            {
                "start_time": 135.8886364,
                "end_time": 136.4909091,
                "pitch": 52,
                "velocity": 80,
                "duration": 0.6022727,
                "tempo": 120.0
            },
            {
                "start_time": 135.8886364,
                "end_time": 136.4909091,
                "pitch": 52,
                "velocity": 80,
                "duration": 0.6022727,
                "tempo": 120.0
            },
            {
                "start_time": 136.4909091,
                "end_time": 136.6931818,
                "pitch": 52,
                "velocity": 80,
                "duration": 0.2022727,
                "tempo": 120.0
            },
            {
                "start_time": 136.6931818,
                "end_time": 136.8954545,
                "pitch": 50,
                "velocity": 80,
                "duration": 0.2022727,
                "tempo": 120.0
            },
            {
                "start_time": 136.8954545,
                "end_time": 137.0954545,
                "pitch": 48,
                "velocity": 80,
                "duration": 0.2,
                "tempo": 120.0
            },
            {
                "start_time": 136.8954545,
                "end_time": 137.0954545,
                "pitch": 48,
                "velocity": 80,
                "duration": 0.2,
                "tempo": 120.0
            },
            {
                "start_time": 137.0954545,
                "end_time": 137.2977273,
                "pitch": 43,
                "velocity": 80,
                "duration": 0.2022727,
                "tempo": 120.0
            },
            {
                "start_time": 137.2977273,
                "end_time": 137.5,
                "pitch": 47,
                "velocity": 80,
                "duration": 0.2022727,
                "tempo": 120.0
            },
            {
                "start_time": 137.2977273,
                "end_time": 137.5,
                "pitch": 47,
                "velocity": 80,
                "duration": 0.2022727,
                "tempo": 120.0
            },
            {
                "start_time": 137.5,
                "end_time": 138.1022727,
                "pitch": 50,
                "velocity": 80,
                "duration": 0.6022727,
                "tempo": 120.0
            },
            {
                "start_time": 138.1022727,
                "end_time": 138.3022727,
                "pitch": 50,
                "velocity": 80,
                "duration": 0.2,
                "tempo": 120.0
            },
            {
                "start_time": 134.075,
                "end_time": 138.5045455,
                "pitch": 32,
                "velocity": 80,
                "duration": 4.4295455,
                "tempo": 120.0
            },
            {
                "start_time": 138.3022727,
                "end_time": 138.5045455,
                "pitch": 48,
                "velocity": 80,
                "duration": 0.2022727,
                "tempo": 120.0
            },
            {
                "start_time": 138.3022727,
                "end_time": 138.5045455,
                "pitch": 48,
                "velocity": 80,
                "duration": 0.2022727,
                "tempo": 120.0
            },
            {
                "start_time": 138.5045455,
                "end_time": 138.7068182,
                "pitch": 47,
                "velocity": 80,
                "duration": 0.2022727,
                "tempo": 120.0
            },
            {
                "start_time": 138.7068182,
                "end_time": 138.9090909,
                "pitch": 47,
                "velocity": 80,
                "duration": 0.2022727,
                "tempo": 120.0
            },
            {
                "start_time": 137.5,
                "end_time": 138.9090909,
                "pitch": 53,
                "velocity": 80,
                "duration": 1.4090909,
                "tempo": 120.0
            },
            {
                "start_time": 138.9090909,
                "end_time": 139.1090909,
                "pitch": 50,
                "velocity": 80,
                "duration": 0.2,
                "tempo": 120.0
            },
            {
                "start_time": 138.9090909,
                "end_time": 139.1090909,
                "pitch": 53,
                "velocity": 80,
                "duration": 0.2,
                "tempo": 120.0
            },
            {
                "start_time": 139.1090909,
                "end_time": 139.7136364,
                "pitch": 53,
                "velocity": 80,
                "duration": 0.6045455,
                "tempo": 120.0
            },
            {
                "start_time": 139.1090909,
                "end_time": 139.7136364,
                "pitch": 53,
                "velocity": 80,
                "duration": 0.6045455,
                "tempo": 120.0
            },
            {
                "start_time": 139.7159091,
                "end_time": 139.9159091,
                "pitch": 53,
                "velocity": 80,
                "duration": 0.2,
                "tempo": 120.0
            },
            {
                "start_time": 139.9159091,
                "end_time": 140.1159091,
                "pitch": 52,
                "velocity": 80,
                "duration": 0.2,
                "tempo": 120.0
            },
            {
                "start_time": 140.1159091,
                "end_time": 140.3159091,
                "pitch": 50,
                "velocity": 80,
                "duration": 0.2,
                "tempo": 120.0
            },
            {
                "start_time": 140.3159091,
                "end_time": 140.5181818,
                "pitch": 52,
                "velocity": 80,
                "duration": 0.2022727,
                "tempo": 120.0
            },
            {
                "start_time": 140.5181818,
                "end_time": 140.7181818,
                "pitch": 50,
                "velocity": 80,
                "duration": 0.2,
                "tempo": 120.0
            },
            {
                "start_time": 140.7181818,
                "end_time": 140.7204545,
                "pitch": 48,
                "velocity": 80,
                "duration": 0.0022727,
                "tempo": 120.0
            }
        ]
    }
}