{
    "mood": "angry",
    "instruments": {
        "Clarinet": [
            {
                "start_time": 11.65,
                "end_time": 12.375,
                "pitch": 63,
                "velocity": 80,
                "duration": 0.725,
                "tempo": 120.0
            },
            {
                "start_time": 12.375,
                "end_time": 12.7522727,
                "pitch": 67,
                "velocity": 80,
                "duration": 0.3772727,
                "tempo": 120.0
            },
            {
                "start_time": 12.7522727,
                "end_time": 13.1136364,
                "pitch": 63,
                "velocity": 80,
                "duration": 0.3613636,
                "tempo": 120.0
            },
            {
                "start_time": 13.1136364,
                "end_time": 13.2909091,
                "pitch": 65,
                "velocity": 80,
                "duration": 0.1772727,
                "tempo": 120.0
            },
            {
                "start_time": 13.2909091,
                "end_time": 13.4704545,
                "pitch": 63,
                "velocity": 80,
                "duration": 0.1795455,
                "tempo": 120.0
            },
            {
                "start_time": 13.4727273,
                "end_time": 13.6590909,
                "pitch": 62,
                "velocity": 80,
                "duration": 0.1863636,
                "tempo": 120.0
            },
            {
                "start_time": 13.6590909,
                "end_time": 13.8477273,
                "pitch": 60,
                "velocity": 80,
                "duration": 0.1886364,
                "tempo": 120.0
            },
            {
                "start_time": 13.85,
                "end_time": 14.5590909,
                "pitch": 62,
                "velocity": 80,
                "duration": 0.7090909,
                "tempo": 120.0
            },
            {
                "start_time": 14.5590909,
                "end_time": 15.1068182,
                "pitch": 60,
                "velocity": 80,
                "duration": 0.5477273,
                "tempo": 120.0
            },
            {
                "start_time": 15.1068182,
                "end_time": 15.2090909,
                "pitch": 59,
                "velocity": 80,
                "duration": 0.1022727,
                "tempo": 120.0
            },
            {
                "start_time": 15.2090909,
                "end_time": 15.2977273,
                "pitch": 60,
                "velocity": 80,
                "duration": 0.0886364,
                "tempo": 120.0
            },
            {
                "start_time": 15.2977273,
                "end_time": 15.8431818,
                "pitch": 62,
                "velocity": 80,
                "duration": 0.5454545,
                "tempo": 120.0
            },
            {
                "start_time": 15.8431818,
                "end_time": 15.9272727,
                "pitch": 60,
                "velocity": 80,
                "duration": 0.0840909,
                "tempo": 120.0
            },
            {
                "start_time": 15.9272727,
                "end_time": 16.0318182,
                "pitch": 62,
                "velocity": 80,
                "duration": 0.1045455,
                "tempo": 120.0
            },
            {
                "start_time": 16.0318182,
                "end_time": 16.7409091,
                "pitch": 63,
                "velocity": 80,
                "duration": 0.7090909,
                "tempo": 120.0
            },
            {
                "start_time": 16.7409091,
                "end_time": 17.1181818,
                "pitch": 60,
                "velocity": 80,
                "duration": 0.3772727,
                "tempo": 120.0
            },
            {
                "start_time": 17.1181818,
                "end_time": 17.4795455,
                "pitch": 62,
                "velocity": 80,
                "duration": 0.3613636,
                "tempo": 120.0
            },
            {
                "start_time": 17.4795455,
                "end_time": 18.2159091,
                "pitch": 63,
                "velocity": 80,
                "duration": 0.7363636,
                "tempo": 120.0
            },
            {
                "start_time": 18.2159091,
                "end_time": 18.5840909,
                "pitch": 67,
                "velocity": 80,
                "duration": 0.3681818,
                "tempo": 120.0
            },
            {
                "start_time": 18.5840909,
                "end_time": 18.9431818,
                "pitch": 63,
                "velocity": 80,
                "duration": 0.3590909,
                "tempo": 120.0
            },
            {
                "start_time": 18.9431818,
                "end_time": 19.1227273,
                "pitch": 65,
                "velocity": 80,
                "duration": 0.1795455,
                "tempo": 120.0
            },
            {
                "start_time": 19.1227273,
                "end_time": 19.3,
                "pitch": 63,
                "velocity": 80,
                "duration": 0.1772727,
                "tempo": 120.0
            },
            {
                "start_time": 19.3,
                "end_time": 19.4909091,
                "pitch": 62,
                "velocity": 80,
                "duration": 0.1909091,
                "tempo": 120.0
            },
            {
                "start_time": 19.4909091,
                "end_time": 19.6772727,
                "pitch": 60,
                "velocity": 80,
                "duration": 0.1863636,
                "tempo": 120.0
            },
            {
                "start_time": 19.6772727,
                "end_time": 20.0295455,
                "pitch": 62,
                "velocity": 80,
                "duration": 0.3522727,
                "tempo": 120.0
            },
            {
                "start_time": 20.0295455,
                "end_time": 20.4,
                "pitch": 67,
                "velocity": 80,
                "duration": 0.3704545,
                "tempo": 120.0
            },
            {
                "start_time": 20.4,
                "end_time": 21.1272727,
                "pitch": 63,
                "velocity": 80,
                "duration": 0.7272727,
                "tempo": 120.0
            },
            {
                "start_time": 21.1272727,
                "end_time": 21.3704545,
                "pitch": 67,
                "velocity": 80,
                "duration": 0.2431818,
                "tempo": 120.0
            },
            {
                "start_time": 21.3704545,
                "end_time": 21.6045455,
                "pitch": 65,
                "velocity": 80,
                "duration": 0.2340909,
                "tempo": 120.0
            },
            {
                "start_time": 21.6045455,
                "end_time": 21.8636364,
                "pitch": 62,
                "velocity": 80,
                "duration": 0.2590909,
                "tempo": 120.0
            },
            {
                "start_time": 21.8636364,
                "end_time": 23.3022727,
                "pitch": 59,
                "velocity": 80,
                "duration": 1.4386364,
                "tempo": 120.0
            }
        ],
        "French Horn": [
            {
                "start_time": 0.0068182,
                "end_time": 0.7113636,
                "pitch": 55,
                "velocity": 64,
                "duration": 0.7045455,
                "tempo": 120.0
            },
            {
                "start_time": 0.7113636,
                "end_time": 1.4409091,
                "pitch": 55,
                "velocity": 64,
                "duration": 0.7295455,
                "tempo": 120.0
            },
            {
                "start_time": 1.4409091,
                "end_time": 1.8090909,
                "pitch": 56,
                "velocity": 64,
                "duration": 0.3681818,
                "tempo": 120.0
            },
            {
                "start_time": 1.8090909,
                "end_time": 1.9931818,
                "pitch": 60,
                "velocity": 64,
                "duration": 0.1840909,
                "tempo": 120.0
            },
            {
                "start_time": 1.9931818,
                "end_time": 2.8954545,
                "pitch": 63,
                "velocity": 64,
                "duration": 0.9022727,
                "tempo": 120.0
            },
            {
                "start_time": 2.8954545,
                "end_time": 3.2727273,
                "pitch": 58,
                "velocity": 64,
                "duration": 0.3772727,
                "tempo": 120.0
            },
            {
                "start_time": 3.2727273,
                "end_time": 3.4590909,
                "pitch": 62,
                "velocity": 64,
                "duration": 0.1863636,
                "tempo": 120.0
            },
            {
                "start_time": 3.4590909,
                "end_time": 3.9931818,
                "pitch": 65,
                "velocity": 64,
                "duration": 0.5340909,
                "tempo": 120.0
            },
            {
                "start_time": 3.9931818,
                "end_time": 4.1772727,
                "pitch": 63,
                "velocity": 64,
                "duration": 0.1840909,
                "tempo": 120.0
            },
            {
                "start_time": 4.1795455,
                "end_time": 4.3636364,
                "pitch": 62,
                "velocity": 64,
                "duration": 0.1840909,
                "tempo": 120.0
            },
            {
                "start_time": 4.3636364,
                "end_time": 4.7227273,
                "pitch": 63,
                "velocity": 64,
                "duration": 0.3590909,
                "tempo": 120.0
            },
            {
                "start_time": 4.7227273,
                "end_time": 4.9022727,
                "pitch": 60,
                "velocity": 64,
                "duration": 0.1795455,
                "tempo": 120.0
            },
            {
                "start_time": 4.9022727,
                "end_time": 5.8113636,
                "pitch": 67,
                "velocity": 64,
                "duration": 0.9090909,
                "tempo": 120.0
            },
            {
                "start_time": 5.8113636,
                "end_time": 6.5454545,
                "pitch": 55,
                "velocity": 64,
                "duration": 0.7340909,
                "tempo": 120.0
            },
            {
                "start_time": 6.5454545,
                "end_time": 7.2840909,
                "pitch": 55,
                "velocity": 64,
                "duration": 0.7386364,
                "tempo": 120.0
            },
            {
                "start_time": 7.2840909,
                "end_time": 7.6409091,
                "pitch": 56,
                "velocity": 64,
                "duration": 0.3568182,
                "tempo": 120.0
            },
            {
                "start_time": 7.6409091,
                "end_time": 7.8272727,
                "pitch": 60,
                "velocity": 64,
                "duration": 0.1863636,
                "tempo": 120.0
            },
            {
                "start_time": 7.8272727,
                "end_time": 8.7295455,
                "pitch": 63,
                "velocity": 64,
                "duration": 0.9022727,
                "tempo": 120.0
            },
            {
                "start_time": 8.7295455,
                "end_time": 9.4659091,
                "pitch": 65,
                "velocity": 64,
                "duration": 0.7363636,
                "tempo": 120.0
            },
            {
                "start_time": 9.4659091,
                "end_time": 9.8227273,
                "pitch": 58,
                "velocity": 64,
                "duration": 0.3568182,
                "tempo": 120.0
            },
            {
                "start_time": 9.8227273,
                "end_time": 10.1931818,
                "pitch": 62,
                "velocity": 64,
                "duration": 0.3704545,
                "tempo": 120.0
            },
            {
                "start_time": 10.1931818,
                "end_time": 10.9113636,
                "pitch": 60,
                "velocity": 64,
                "duration": 0.7181818,
                "tempo": 120.0
            }
        ],
        "Trumpet": [
            {
                "start_time": 24.4159091,
                "end_time": 24.5,
                "pitch": 72,
                "velocity": 64,
                "duration": 0.0840909,
                "tempo": 120.0
            },
            {
                "start_time": 24.5022727,
                "end_time": 24.5886364,
                "pitch": 74,
                "velocity": 64,
                "duration": 0.0863636,
                "tempo": 120.0
            },
            {
                "start_time": 24.5886364,
                "end_time": 24.6909091,
                "pitch": 75,
                "velocity": 64,
                "duration": 0.1022727,
                "tempo": 120.0
            },
            {
                "start_time": 24.6909091,
                "end_time": 24.7772727,
                "pitch": 77,
                "velocity": 64,
                "duration": 0.0863636,
                "tempo": 120.0
            },
            {
                "start_time": 24.7772727,
                "end_time": 30.5909091,
                "pitch": 79,
                "velocity": 64,
                "duration": 5.8136364,
                "tempo": 120.0
            },
            {
                "start_time": 30.5909091,
                "end_time": 30.6931818,
                "pitch": 72,
                "velocity": 64,
                "duration": 0.1022727,
                "tempo": 120.0
            },
            {
                "start_time": 30.6931818,
                "end_time": 30.7795455,
                "pitch": 74,
                "velocity": 64,
                "duration": 0.0863636,
                "tempo": 120.0
            },
            {
                "start_time": 30.7795455,
                "end_time": 30.8636364,
                "pitch": 75,
                "velocity": 64,
                "duration": 0.0840909,
                "tempo": 120.0
            },
            {
                "start_time": 30.8636364,
                "end_time": 30.9681818,
                "pitch": 77,
                "velocity": 64,
                "duration": 0.1045455,
                "tempo": 120.0
            },
            {
                "start_time": 30.9681818,
                "end_time": 34.975,
                "pitch": 79,
                "velocity": 64,
                "duration": 4.0068182,
                "tempo": 120.0
            }
        ],
        "Acoustic Grand Piano": [
            {
                "start_time": 23.6704545,
                "end_time": 23.7681818,
                "pitch": 72,
                "velocity": 80,
                "duration": 0.0977273,
                "tempo": 120.0
            },
            {
                "start_time": 23.7704545,
                "end_time": 23.8545455,
                "pitch": 74,
                "velocity": 80,
                "duration": 0.0840909,
                "tempo": 120.0
            },
            {
                "start_time": 23.8545455,
                "end_time": 23.9363636,
                "pitch": 75,
                "velocity": 80,
                "duration": 0.0818182,
                "tempo": 120.0
            },
            {
                "start_time": 23.9363636,
                "end_time": 24.0386364,
                "pitch": 77,
                "velocity": 80,
                "duration": 0.1022727,
                "tempo": 120.0
            },
            {
                "start_time": 24.0386364,
                "end_time": 25.1340909,
                "pitch": 79,
                "velocity": 80,
                "duration": 1.0954545,
                "tempo": 120.0
            },
            {
                "start_time": 25.1340909,
                "end_time": 25.5113636,
                "pitch": 82,
                "velocity": 80,
                "duration": 0.3772727,
                "tempo": 120.0
            },
            {
                "start_time": 25.5136364,
                "end_time": 25.8636364,
                "pitch": 79,
                "velocity": 80,
                "duration": 0.35,
                "tempo": 120.0
            },
            {
                "start_time": 25.8636364,
                "end_time": 26.2318182,
                "pitch": 74,
                "velocity": 80,
                "duration": 0.3681818,
                "tempo": 120.0
            },
            {
                "start_time": 26.2318182,
                "end_time": 26.9613636,
                "pitch": 72,
                "velocity": 80,
                "duration": 0.7295455,
                "tempo": 120.0
            },
            {
                "start_time": 26.9613636,
                "end_time": 27.3204545,
                "pitch": 74,
                "velocity": 80,
                "duration": 0.3590909,
                "tempo": 120.0
            },
            {
                "start_time": 27.3204545,
                "end_time": 27.6977273,
                "pitch": 75,
                "velocity": 80,
                "duration": 0.3772727,
                "tempo": 120.0
            },
            {
                "start_time": 27.6977273,
                "end_time": 28.4159091,
                "pitch": 74,
                "velocity": 80,
                "duration": 0.7181818,
                "tempo": 120.0
            },
            {
                "start_time": 28.4159091,
                "end_time": 28.7840909,
                "pitch": 75,
                "velocity": 80,
                "duration": 0.3681818,
                "tempo": 120.0
            },
            {
                "start_time": 28.7840909,
                "end_time": 29.8818182,
                "pitch": 77,
                "velocity": 80,
                "duration": 1.0977273,
                "tempo": 120.0
            },
            {
                "start_time": 29.8818182,
                "end_time": 29.9636364,
                "pitch": 72,
                "velocity": 80,
                "duration": 0.0818182,
                "tempo": 120.0
            },
            {
                "start_time": 29.9636364,
                "end_time": 30.0659091,
                "pitch": 74,
                "velocity": 80,
                "duration": 0.1022727,
                "tempo": 120.0
            },
            {
                "start_time": 30.0659091,
                "end_time": 30.1477273,
                "pitch": 75,
                "velocity": 80,
                "duration": 0.0818182,
                "tempo": 120.0
            },
            {
                "start_time": 30.1477273,
                "end_time": 30.2318182,
                "pitch": 77,
                "velocity": 80,
                "duration": 0.0840909,
                "tempo": 120.0
            },
            {
                "start_time": 30.2318182,
                "end_time": 30.9681818,
                "pitch": 79,
                "velocity": 80,
                "duration": 0.7363636,
                "tempo": 120.0
            },
            {
                "start_time": 30.9681818,
                "end_time": 31.3454545,
                "pitch": 82,
                "velocity": 80,
                "duration": 0.3772727,
                "tempo": 120.0
            },
            {
                "start_time": 31.3454545,
                "end_time": 31.7068182,
                "pitch": 79,
                "velocity": 80,
                "duration": 0.3613636,
                "tempo": 120.0
            },
            {
                "start_time": 31.7068182,
                "end_time": 32.0659091,
                "pitch": 74,
                "velocity": 80,
                "duration": 0.3590909,
                "tempo": 120.0
            },
            {
                "start_time": 32.0659091,
                "end_time": 32.6045455,
                "pitch": 72,
                "velocity": 80,
                "duration": 0.5386364,
                "tempo": 120.0
            },
            {
                "start_time": 32.6045455,
                "end_time": 33.15,
                "pitch": 74,
                "velocity": 80,
                "duration": 0.5454545,
                "tempo": 120.0
            },
            {
                "start_time": 33.15,
                "end_time": 33.5295455,
                "pitch": 75,
                "velocity": 80,
                "duration": 0.3795455,
                "tempo": 120.0
            },
            {
                "start_time": 33.5295455,
                "end_time": 34.2386364,
                "pitch": 74,
                "velocity": 80,
                "duration": 0.7090909,
                "tempo": 120.0
            },
            {
                "start_time": 34.2386364,
                "end_time": 34.975,
                "pitch": 71,
                "velocity": 80,
                "duration": 0.7363636,
                "tempo": 120.0
            }
        ],
        "Lead 2 (sawtooth)": [
            {
                "start_time": 0.5363636,
                "end_time": 1.9931818,
                "pitch": 60,
                "velocity": 80,
                "duration": 1.4568182,
                "tempo": 120.0
            },
            {
                "start_time": 1.9931818,
                "end_time": 3.4568182,
                "pitch": 60,
                "velocity": 80,
                "duration": 1.4636364,
                "tempo": 120.0
            },
            {
                "start_time": 3.4568182,
                "end_time": 4.9022727,
                "pitch": 62,
                "velocity": 80,
                "duration": 1.4454545,
                "tempo": 120.0
            },
            {
                "start_time": 4.9022727,
                "end_time": 6.3545455,
                "pitch": 63,
                "velocity": 80,
                "duration": 1.4522727,
                "tempo": 120.0
            },
            {
                "start_time": 6.3545455,
                "end_time": 7.825,
                "pitch": 60,
                "velocity": 80,
                "duration": 1.4704545,
                "tempo": 120.0
            },
            {
                "start_time": 7.825,
                "end_time": 9.2931818,
                "pitch": 60,
                "velocity": 80,
                "duration": 1.4681818,
                "tempo": 120.0
            },
            {
                "start_time": 9.2931818,
                "end_time": 10.7318182,
                "pitch": 62,
                "velocity": 80,
                "duration": 1.4386364,
                "tempo": 120.0
            },
            {
                "start_time": 10.7318182,
                "end_time": 11.6477273,
                "pitch": 63,
                "velocity": 80,
                "duration": 0.9159091,
                "tempo": 120.0
            },
            {
                "start_time": 11.6477273,
                "end_time": 12.375,
                "pitch": 55,
                "velocity": 101,
                "duration": 0.7272727,
                "tempo": 120.0
            },
            {
                "start_time": 12.375,
                "end_time": 12.9227273,
                "pitch": 58,
                "velocity": 101,
                "duration": 0.5477273,
                "tempo": 120.0
            },
            {
                "start_time": 12.925,
                "end_time": 13.1136364,
                "pitch": 63,
                "velocity": 101,
                "duration": 0.1886364,
                "tempo": 120.0
            },
            {
                "start_time": 13.1136364,
                "end_time": 14.5568182,
                "pitch": 67,
                "velocity": 101,
                "duration": 1.4431818,
                "tempo": 120.0
            },
            {
                "start_time": 14.5568182,
                "end_time": 15.2954545,
                "pitch": 60,
                "velocity": 101,
                "duration": 0.7386364,
                "tempo": 120.0
            },
            {
                "start_time": 15.2954545,
                "end_time": 16.0318182,
                "pitch": 62,
                "velocity": 101,
                "duration": 0.7363636,
                "tempo": 120.0
            },
            {
                "start_time": 16.0318182,
                "end_time": 17.4795455,
                "pitch": 63,
                "velocity": 101,
                "duration": 1.4477273,
                "tempo": 120.0
            },
            {
                "start_time": 17.4795455,
                "end_time": 18.2136364,
                "pitch": 55,
                "velocity": 101,
                "duration": 0.7340909,
                "tempo": 120.0
            },
            {
                "start_time": 18.2136364,
                "end_time": 18.7545455,
                "pitch": 58,
                "velocity": 101,
                "duration": 0.5409091,
                "tempo": 120.0
            },
            {
                "start_time": 18.7545455,
                "end_time": 18.9431818,
                "pitch": 63,
                "velocity": 101,
                "duration": 0.1886364,
                "tempo": 120.0
            },
            {
                "start_time": 18.9431818,
                "end_time": 20.3977273,
                "pitch": 67,
                "velocity": 101,
                "duration": 1.4545455,
                "tempo": 120.0
            },
            {
                "start_time": 20.4,
                "end_time": 21.1272727,
                "pitch": 63,
                "velocity": 101,
                "duration": 0.7272727,
                "tempo": 120.0
            },
            {
                "start_time": 21.1272727,
                "end_time": 21.675,
                "pitch": 65,
                "velocity": 101,
                "duration": 0.5477273,
                "tempo": 120.0
            },
            {
                "start_time": 21.675,
                "end_time": 21.8613636,
                "pitch": 68,
                "velocity": 101,
                "duration": 0.1863636,
                "tempo": 120.0
            },
            {
                "start_time": 21.8613636,
                "end_time": 22.0954545,
                "pitch": 62,
                "velocity": 101,
                "duration": 0.2340909,
                "tempo": 120.0
            },
            {
                "start_time": 22.0954545,
                "end_time": 22.3431818,
                "pitch": 67,
                "velocity": 101,
                "duration": 0.2477273,
                "tempo": 120.0
            },
            {
                "start_time": 22.3431818,
                "end_time": 22.5727273,
                "pitch": 71,
                "velocity": 101,
                "duration": 0.2295455,
                "tempo": 120.0
            },
            {
                "start_time": 22.5727273,
                "end_time": 23.3,
                "pitch": 74,
                "velocity": 101,
                "duration": 0.7272727,
                "tempo": 120.0
            }
        ],
        "Electric Piano 1": [
            {
                "start_time": 0.0022727,
                "end_time": 0.1386364,
                "pitch": 31,
                "velocity": 64,
                "duration": 0.1363636,
                "tempo": 120.0
            },
            {
                "start_time": 0.175,
                "end_time": 0.3272727,
                "pitch": 31,
                "velocity": 64,
                "duration": 0.1522727,
                "tempo": 120.0
            },
            {
                "start_time": 0.3613636,
                "end_time": 0.5045455,
                "pitch": 31,
                "velocity": 64,
                "duration": 0.1431818,
                "tempo": 120.0
            },
            {
                "start_time": 0.5363636,
                "end_time": 0.6772727,
                "pitch": 31,
                "velocity": 64,
                "duration": 0.1409091,
                "tempo": 120.0
            },
            {
                "start_time": 0.7090909,
                "end_time": 0.8636364,
                "pitch": 31,
                "velocity": 64,
                "duration": 0.1545455,
                "tempo": 120.0
            },
            {
                "start_time": 0.9,
                "end_time": 1.0522727,
                "pitch": 31,
                "velocity": 64,
                "duration": 0.1522727,
                "tempo": 120.0
            },
            {
                "start_time": 1.0863636,
                "end_time": 1.2204545,
                "pitch": 31,
                "velocity": 64,
                "duration": 0.1340909,
                "tempo": 120.0
            },
            {
                "start_time": 1.2545455,
                "end_time": 1.4045455,
                "pitch": 31,
                "velocity": 64,
                "duration": 0.15,
                "tempo": 120.0
            },
            {
                "start_time": 1.4409091,
                "end_time": 1.5886364,
                "pitch": 32,
                "velocity": 64,
                "duration": 0.1477273,
                "tempo": 120.0
            },
            {
                "start_time": 1.6227273,
                "end_time": 1.7727273,
                "pitch": 32,
                "velocity": 64,
                "duration": 0.15,
                "tempo": 120.0
            },
            {
                "start_time": 1.8090909,
                "end_time": 1.9568182,
                "pitch": 32,
                "velocity": 64,
                "duration": 0.1477273,
                "tempo": 120.0
            },
            {
                "start_time": 1.9931818,
                "end_time": 2.1409091,
                "pitch": 32,
                "velocity": 64,
                "duration": 0.1477273,
                "tempo": 120.0
            },
            {
                "start_time": 2.1772727,
                "end_time": 2.3136364,
                "pitch": 32,
                "velocity": 64,
                "duration": 0.1363636,
                "tempo": 120.0
            },
            {
                "start_time": 2.3477273,
                "end_time": 2.5022727,
                "pitch": 32,
                "velocity": 64,
                "duration": 0.1545455,
                "tempo": 120.0
            },
            {
                "start_time": 2.5363636,
                "end_time": 2.6818182,
                "pitch": 32,
                "velocity": 64,
                "duration": 0.1454545,
                "tempo": 120.0
            },
            {
                "start_time": 2.7159091,
                "end_time": 2.8613636,
                "pitch": 32,
                "velocity": 64,
                "duration": 0.1454545,
                "tempo": 120.0
            },
            {
                "start_time": 2.8954545,
                "end_time": 3.0477273,
                "pitch": 34,
                "velocity": 64,
                "duration": 0.1522727,
                "tempo": 120.0
            },
            {
                "start_time": 3.0840909,
                "end_time": 3.2363636,
                "pitch": 34,
                "velocity": 64,
                "duration": 0.1522727,
                "tempo": 120.0
            },
            {
                "start_time": 3.2727273,
                "end_time": 3.4227273,
                "pitch": 34,
                "velocity": 64,
                "duration": 0.15,
                "tempo": 120.0
            },
            {
                "start_time": 3.4568182,
                "end_time": 3.5886364,
                "pitch": 34,
                "velocity": 64,
                "duration": 0.1318182,
                "tempo": 120.0
            },
            {
                "start_time": 3.625,
                "end_time": 3.7727273,
                "pitch": 34,
                "velocity": 64,
                "duration": 0.1477273,
                "tempo": 120.0
            },
            {
                "start_time": 3.8090909,
                "end_time": 3.9568182,
                "pitch": 34,
                "velocity": 64,
                "duration": 0.1477273,
                "tempo": 120.0
            },
            {
                "start_time": 3.9931818,
                "end_time": 4.1431818,
                "pitch": 34,
                "velocity": 64,
                "duration": 0.15,
                "tempo": 120.0
            },
            {
                "start_time": 4.1772727,
                "end_time": 4.3272727,
                "pitch": 34,
                "velocity": 64,
                "duration": 0.15,
                "tempo": 120.0
            },
            {
                "start_time": 4.3613636,
                "end_time": 4.5136364,
                "pitch": 36,
                "velocity": 64,
                "duration": 0.1522727,
                "tempo": 120.0
            },
            {
                "start_time": 4.55,
                "end_time": 4.6863636,
                "pitch": 36,
                "velocity": 64,
                "duration": 0.1363636,
                "tempo": 120.0
            },
            {
                "start_time": 4.7204545,
                "end_time": 4.8659091,
                "pitch": 36,
                "velocity": 64,
                "duration": 0.1454545,
                "tempo": 120.0
            },
            {
                "start_time": 4.9,
                "end_time": 5.0454545,
                "pitch": 36,
                "velocity": 64,
                "duration": 0.1454545,
                "tempo": 120.0
            },
            {
                "start_time": 5.0795455,
                "end_time": 5.2318182,
                "pitch": 36,
                "velocity": 64,
                "duration": 0.1522727,
                "tempo": 120.0
            },
            {
                "start_time": 5.2681818,
                "end_time": 5.4204545,
                "pitch": 36,
                "velocity": 64,
                "duration": 0.1522727,
                "tempo": 120.0
            },
            {
                "start_time": 5.4568182,
                "end_time": 5.6068182,
                "pitch": 36,
                "velocity": 64,
                "duration": 0.15,
                "tempo": 120.0
            },
            {
                "start_time": 5.6409091,
                "end_time": 5.775,
                "pitch": 36,
                "velocity": 64,
                "duration": 0.1340909,
                "tempo": 120.0
            },
            {
                "start_time": 5.8090909,
                "end_time": 5.9545455,
                "pitch": 31,
                "velocity": 64,
                "duration": 0.1454545,
                "tempo": 120.0
            },
            {
                "start_time": 5.9863636,
                "end_time": 6.1318182,
                "pitch": 31,
                "velocity": 64,
                "duration": 0.1454545,
                "tempo": 120.0
            },
            {
                "start_time": 6.1659091,
                "end_time": 6.3204545,
                "pitch": 31,
                "velocity": 64,
                "duration": 0.1545455,
                "tempo": 120.0
            },
            {
                "start_time": 6.3545455,
                "end_time": 6.5090909,
                "pitch": 31,
                "velocity": 64,
                "duration": 0.1545455,
                "tempo": 120.0
            },
            {
                "start_time": 6.5454545,
                "end_time": 6.6977273,
                "pitch": 31,
                "velocity": 64,
                "duration": 0.1522727,
                "tempo": 120.0
            },
            {
                "start_time": 6.7318182,
                "end_time": 6.8863636,
                "pitch": 31,
                "velocity": 64,
                "duration": 0.1545455,
                "tempo": 120.0
            },
            {
                "start_time": 6.9227273,
                "end_time": 7.0568182,
                "pitch": 31,
                "velocity": 64,
                "duration": 0.1340909,
                "tempo": 120.0
            },
            {
                "start_time": 7.0931818,
                "end_time": 7.2477273,
                "pitch": 31,
                "velocity": 64,
                "duration": 0.1545455,
                "tempo": 120.0
            },
            {
                "start_time": 7.2818182,
                "end_time": 7.4272727,
                "pitch": 32,
                "velocity": 64,
                "duration": 0.1454545,
                "tempo": 120.0
            },
            {
                "start_time": 7.4613636,
                "end_time": 7.6068182,
                "pitch": 32,
                "velocity": 64,
                "duration": 0.1454545,
                "tempo": 120.0
            },
            {
                "start_time": 7.6409091,
                "end_time": 7.7886364,
                "pitch": 32,
                "velocity": 64,
                "duration": 0.1477273,
                "tempo": 120.0
            },
            {
                "start_time": 7.825,
                "end_time": 7.975,
                "pitch": 32,
                "velocity": 64,
                "duration": 0.15,
                "tempo": 120.0
            },
            {
                "start_time": 8.0090909,
                "end_time": 8.1454545,
                "pitch": 32,
                "velocity": 64,
                "duration": 0.1363636,
                "tempo": 120.0
            },
            {
                "start_time": 8.1795455,
                "end_time": 8.3340909,
                "pitch": 32,
                "velocity": 64,
                "duration": 0.1545455,
                "tempo": 120.0
            },
            {
                "start_time": 8.3704545,
                "end_time": 8.5136364,
                "pitch": 32,
                "velocity": 64,
                "duration": 0.1431818,
                "tempo": 120.0
            },
            {
                "start_time": 8.5477273,
                "end_time": 8.6931818,
                "pitch": 32,
                "velocity": 64,
                "duration": 0.1454545,
                "tempo": 120.0
            },
            {
                "start_time": 8.7272727,
                "end_time": 8.8795455,
                "pitch": 34,
                "velocity": 64,
                "duration": 0.1522727,
                "tempo": 120.0
            },
            {
                "start_time": 8.9159091,
                "end_time": 9.0681818,
                "pitch": 34,
                "velocity": 64,
                "duration": 0.1522727,
                "tempo": 120.0
            },
            {
                "start_time": 9.1045455,
                "end_time": 9.2568182,
                "pitch": 34,
                "velocity": 64,
                "duration": 0.1522727,
                "tempo": 120.0
            },
            {
                "start_time": 9.2931818,
                "end_time": 9.4295455,
                "pitch": 34,
                "velocity": 64,
                "duration": 0.1363636,
                "tempo": 120.0
            },
            {
                "start_time": 9.4636364,
                "end_time": 9.6113636,
                "pitch": 34,
                "velocity": 64,
                "duration": 0.1477273,
                "tempo": 120.0
            },
            {
                "start_time": 9.6454545,
                "end_time": 9.7886364,
                "pitch": 34,
                "velocity": 64,
                "duration": 0.1431818,
                "tempo": 120.0
            },
            {
                "start_time": 9.8227273,
                "end_time": 9.9727273,
                "pitch": 34,
                "velocity": 64,
                "duration": 0.15,
                "tempo": 120.0
            },
            {
                "start_time": 10.0068182,
                "end_time": 10.1568182,
                "pitch": 34,
                "velocity": 64,
                "duration": 0.15,
                "tempo": 120.0
            },
            {
                "start_time": 10.1909091,
                "end_time": 10.3454545,
                "pitch": 36,
                "velocity": 64,
                "duration": 0.1545455,
                "tempo": 120.0
            },
            {
                "start_time": 10.3818182,
                "end_time": 10.5159091,
                "pitch": 36,
                "velocity": 64,
                "duration": 0.1340909,
                "tempo": 120.0
            },
            {
                "start_time": 10.5522727,
                "end_time": 10.6977273,
                "pitch": 36,
                "velocity": 64,
                "duration": 0.1454545,
                "tempo": 120.0
            },
            {
                "start_time": 10.7295455,
                "end_time": 10.875,
                "pitch": 36,
                "velocity": 64,
                "duration": 0.1454545,
                "tempo": 120.0
            },
            {
                "start_time": 10.9113636,
                "end_time": 11.0636364,
                "pitch": 36,
                "velocity": 64,
                "duration": 0.1522727,
                "tempo": 120.0
            },
            {
                "start_time": 11.0977273,
                "end_time": 11.2522727,
                "pitch": 36,
                "velocity": 64,
                "duration": 0.1545455,
                "tempo": 120.0
            },
            {
                "start_time": 11.2886364,
                "end_time": 11.4409091,
                "pitch": 36,
                "velocity": 64,
                "duration": 0.1522727,
                "tempo": 120.0
            },
            {
                "start_time": 11.475,
                "end_time": 11.6113636,
                "pitch": 36,
                "velocity": 64,
                "duration": 0.1363636,
                "tempo": 120.0
            },
            {
                "start_time": 11.6477273,
                "end_time": 11.7931818,
                "pitch": 39,
                "velocity": 64,
                "duration": 0.1454545,
                "tempo": 120.0
            },
            {
                "start_time": 11.8272727,
                "end_time": 11.9727273,
                "pitch": 39,
                "velocity": 64,
                "duration": 0.1454545,
                "tempo": 120.0
            },
            {
                "start_time": 12.0045455,
                "end_time": 12.1545455,
                "pitch": 39,
                "velocity": 64,
                "duration": 0.15,
                "tempo": 120.0
            },
            {
                "start_time": 12.1909091,
                "end_time": 12.3409091,
                "pitch": 39,
                "velocity": 64,
                "duration": 0.15,
                "tempo": 120.0
            },
            {
                "start_time": 12.375,
                "end_time": 12.5272727,
                "pitch": 39,
                "velocity": 64,
                "duration": 0.1522727,
                "tempo": 120.0
            },
            {
                "start_time": 12.5636364,
                "end_time": 12.7159091,
                "pitch": 39,
                "velocity": 64,
                "duration": 0.1522727,
                "tempo": 120.0
            },
            {
                "start_time": 12.7522727,
                "end_time": 12.8886364,
                "pitch": 39,
                "velocity": 64,
                "duration": 0.1363636,
                "tempo": 120.0
            },
            {
                "start_time": 12.9227273,
                "end_time": 13.0772727,
                "pitch": 39,
                "velocity": 64,
                "duration": 0.1545455,
                "tempo": 120.0
            },
            {
                "start_time": 13.1136364,
                "end_time": 13.2568182,
                "pitch": 34,
                "velocity": 64,
                "duration": 0.1431818,
                "tempo": 120.0
            },
            {
                "start_time": 13.2909091,
                "end_time": 13.4363636,
                "pitch": 34,
                "velocity": 64,
                "duration": 0.1454545,
                "tempo": 120.0
            },
            {
                "start_time": 13.4704545,
                "end_time": 13.6227273,
                "pitch": 34,
                "velocity": 64,
                "duration": 0.1522727,
                "tempo": 120.0
            },
            {
                "start_time": 13.6590909,
                "end_time": 13.8113636,
                "pitch": 34,
                "velocity": 64,
                "duration": 0.1522727,
                "tempo": 120.0
            },
            {
                "start_time": 13.8477273,
                "end_time": 13.9795455,
                "pitch": 34,
                "velocity": 64,
                "duration": 0.1318182,
                "tempo": 120.0
            },
            {
                "start_time": 14.0159091,
                "end_time": 14.1659091,
                "pitch": 34,
                "velocity": 64,
                "duration": 0.15,
                "tempo": 120.0
            },
            {
                "start_time": 14.2,
                "end_time": 14.3454545,
                "pitch": 34,
                "velocity": 64,
                "duration": 0.1454545,
                "tempo": 120.0
            },
            {
                "start_time": 14.3795455,
                "end_time": 14.5227273,
                "pitch": 34,
                "velocity": 64,
                "duration": 0.1431818,
                "tempo": 120.0
            },
            {
                "start_time": 14.5568182,
                "end_time": 14.7113636,
                "pitch": 36,
                "velocity": 64,
                "duration": 0.1545455,
                "tempo": 120.0
            },
            {
                "start_time": 14.7477273,
                "end_time": 14.9,
                "pitch": 36,
                "velocity": 64,
                "duration": 0.1522727,
                "tempo": 120.0
            },
            {
                "start_time": 14.9340909,
                "end_time": 15.0704545,
                "pitch": 36,
                "velocity": 64,
                "duration": 0.1363636,
                "tempo": 120.0
            },
            {
                "start_time": 15.1068182,
                "end_time": 15.2590909,
                "pitch": 36,
                "velocity": 64,
                "duration": 0.1522727,
                "tempo": 120.0
            },
            {
                "start_time": 15.2954545,
                "end_time": 15.4409091,
                "pitch": 38,
                "velocity": 64,
                "duration": 0.1454545,
                "tempo": 120.0
            },
            {
                "start_time": 15.475,
                "end_time": 15.6204545,
                "pitch": 38,
                "velocity": 64,
                "duration": 0.1454545,
                "tempo": 120.0
            },
            {
                "start_time": 15.6545455,
                "end_time": 15.8068182,
                "pitch": 38,
                "velocity": 64,
                "duration": 0.1522727,
                "tempo": 120.0
            },
            {
                "start_time": 15.8409091,
                "end_time": 15.9954545,
                "pitch": 38,
                "velocity": 64,
                "duration": 0.1545455,
                "tempo": 120.0
            },
            {
                "start_time": 16.0318182,
                "end_time": 16.1795455,
                "pitch": 39,
                "velocity": 64,
                "duration": 0.1477273,
                "tempo": 120.0
            },
            {
                "start_time": 16.2136364,
                "end_time": 16.3477273,
                "pitch": 39,
                "velocity": 64,
                "duration": 0.1340909,
                "tempo": 120.0
            },
            {
                "start_time": 16.3818182,
                "end_time": 16.5272727,
                "pitch": 39,
                "velocity": 64,
                "duration": 0.1454545,
                "tempo": 120.0
            },
            {
                "start_time": 16.5613636,
                "end_time": 16.7068182,
                "pitch": 39,
                "velocity": 64,
                "duration": 0.1454545,
                "tempo": 120.0
            },
            {
                "start_time": 16.7409091,
                "end_time": 16.8931818,
                "pitch": 39,
                "velocity": 64,
                "duration": 0.1522727,
                "tempo": 120.0
            },
            {
                "start_time": 16.9295455,
                "end_time": 17.0818182,
                "pitch": 39,
                "velocity": 64,
                "duration": 0.1522727,
                "tempo": 120.0
            },
            {
                "start_time": 17.1181818,
                "end_time": 17.2704545,
                "pitch": 39,
                "velocity": 64,
                "duration": 0.1522727,
                "tempo": 120.0
            },
            {
                "start_time": 17.3068182,
                "end_time": 17.4431818,
                "pitch": 39,
                "velocity": 64,
                "duration": 0.1363636,
                "tempo": 120.0
            },
            {
                "start_time": 17.4795455,
                "end_time": 17.6227273,
                "pitch": 39,
                "velocity": 64,
                "duration": 0.1431818,
                "tempo": 120.0
            },
            {
                "start_time": 17.6568182,
                "end_time": 17.8022727,
                "pitch": 39,
                "velocity": 64,
                "duration": 0.1454545,
                "tempo": 120.0
            },
            {
                "start_time": 17.8363636,
                "end_time": 17.9886364,
                "pitch": 39,
                "velocity": 64,
                "duration": 0.1522727,
                "tempo": 120.0
            },
            {
                "start_time": 18.025,
                "end_time": 18.1772727,
                "pitch": 39,
                "velocity": 64,
                "duration": 0.1522727,
                "tempo": 120.0
            },
            {
                "start_time": 18.2136364,
                "end_time": 18.3636364,
                "pitch": 39,
                "velocity": 64,
                "duration": 0.15,
                "tempo": 120.0
            },
            {
                "start_time": 18.3977273,
                "end_time": 18.5477273,
                "pitch": 39,
                "velocity": 64,
                "duration": 0.15,
                "tempo": 120.0
            },
            {
                "start_time": 18.5818182,
                "end_time": 18.7181818,
                "pitch": 39,
                "velocity": 64,
                "duration": 0.1363636,
                "tempo": 120.0
            },
            {
                "start_time": 18.7545455,
                "end_time": 18.9068182,
                "pitch": 39,
                "velocity": 64,
                "duration": 0.1522727,
                "tempo": 120.0
            },
            {
                "start_time": 18.9431818,
                "end_time": 19.0886364,
                "pitch": 34,
                "velocity": 64,
                "duration": 0.1454545,
                "tempo": 120.0
            },
            {
                "start_time": 19.1227273,
                "end_time": 19.2659091,
                "pitch": 34,
                "velocity": 64,
                "duration": 0.1431818,
                "tempo": 120.0
            },
            {
                "start_time": 19.3,
                "end_time": 19.4522727,
                "pitch": 34,
                "velocity": 64,
                "duration": 0.1522727,
                "tempo": 120.0
            },
            {
                "start_time": 19.4886364,
                "end_time": 19.6431818,
                "pitch": 34,
                "velocity": 64,
                "duration": 0.1545455,
                "tempo": 120.0
            },
            {
                "start_time": 19.6772727,
                "end_time": 19.8113636,
                "pitch": 34,
                "velocity": 64,
                "duration": 0.1340909,
                "tempo": 120.0
            },
            {
                "start_time": 19.8454545,
                "end_time": 19.9954545,
                "pitch": 34,
                "velocity": 64,
                "duration": 0.15,
                "tempo": 120.0
            },
            {
                "start_time": 20.0295455,
                "end_time": 20.1795455,
                "pitch": 34,
                "velocity": 64,
                "duration": 0.15,
                "tempo": 120.0
            },
            {
                "start_time": 20.2136364,
                "end_time": 20.3636364,
                "pitch": 34,
                "velocity": 64,
                "duration": 0.15,
                "tempo": 120.0
            },
            {
                "start_time": 20.3977273,
                "end_time": 20.5477273,
                "pitch": 39,
                "velocity": 64,
                "duration": 0.15,
                "tempo": 120.0
            },
            {
                "start_time": 20.5818182,
                "end_time": 20.7318182,
                "pitch": 39,
                "velocity": 64,
                "duration": 0.15,
                "tempo": 120.0
            },
            {
                "start_time": 20.7659091,
                "end_time": 20.9022727,
                "pitch": 39,
                "velocity": 64,
                "duration": 0.1363636,
                "tempo": 120.0
            },
            {
                "start_time": 20.9386364,
                "end_time": 21.0909091,
                "pitch": 39,
                "velocity": 64,
                "duration": 0.1522727,
                "tempo": 120.0
            },
            {
                "start_time": 21.1272727,
                "end_time": 21.2727273,
                "pitch": 39,
                "velocity": 64,
                "duration": 0.1454545,
                "tempo": 120.0
            },
            {
                "start_time": 21.3068182,
                "end_time": 21.45,
                "pitch": 39,
                "velocity": 64,
                "duration": 0.1431818,
                "tempo": 120.0
            },
            {
                "start_time": 21.4840909,
                "end_time": 21.6386364,
                "pitch": 39,
                "velocity": 64,
                "duration": 0.1545455,
                "tempo": 120.0
            },
            {
                "start_time": 21.675,
                "end_time": 21.8272727,
                "pitch": 39,
                "velocity": 64,
                "duration": 0.1522727,
                "tempo": 120.0
            },
            {
                "start_time": 21.8613636,
                "end_time": 22.0113636,
                "pitch": 38,
                "velocity": 64,
                "duration": 0.15,
                "tempo": 120.0
            },
            {
                "start_time": 22.0454545,
                "end_time": 22.1795455,
                "pitch": 38,
                "velocity": 64,
                "duration": 0.1340909,
                "tempo": 120.0
            },
            {
                "start_time": 22.2136364,
                "end_time": 22.3590909,
                "pitch": 38,
                "velocity": 64,
                "duration": 0.1454545,
                "tempo": 120.0
            },
            {
                "start_time": 22.3909091,
                "end_time": 22.5386364,
                "pitch": 38,
                "velocity": 64,
                "duration": 0.1477273,
                "tempo": 120.0
            },
            {
                "start_time": 22.5727273,
                "end_time": 22.725,
                "pitch": 38,
                "velocity": 64,
                "duration": 0.1522727,
                "tempo": 120.0
            },
            {
                "start_time": 22.7590909,
                "end_time": 22.9136364,
                "pitch": 38,
                "velocity": 64,
                "duration": 0.1545455,
                "tempo": 120.0
            },
            {
                "start_time": 22.95,
                "end_time": 23.0977273,
                "pitch": 38,
                "velocity": 64,
                "duration": 0.1477273,
                "tempo": 120.0
            },
            {
                "start_time": 23.1340909,
                "end_time": 23.2659091,
                "pitch": 38,
                "velocity": 64,
                "duration": 0.1318182,
                "tempo": 120.0
            },
            {
                "start_time": 23.3,
                "end_time": 23.45,
                "pitch": 36,
                "velocity": 64,
                "duration": 0.15,
                "tempo": 120.0
            },
            {
                "start_time": 23.4863636,
                "end_time": 23.6340909,
                "pitch": 36,
                "velocity": 64,
                "duration": 0.1477273,
                "tempo": 120.0
            },
            {
                "start_time": 23.6681818,
                "end_time": 23.8181818,
                "pitch": 36,
                "velocity": 64,
                "duration": 0.15,
                "tempo": 120.0
            },
            {
                "start_time": 23.8545455,
                "end_time": 24.0022727,
                "pitch": 36,
                "velocity": 64,
                "duration": 0.1477273,
                "tempo": 120.0
            },
            {
                "start_time": 24.0386364,
                "end_time": 24.1909091,
                "pitch": 36,
                "velocity": 64,
                "duration": 0.1522727,
                "tempo": 120.0
            },
            {
                "start_time": 24.2272727,
                "end_time": 24.3795455,
                "pitch": 36,
                "velocity": 64,
                "duration": 0.1522727,
                "tempo": 120.0
            },
            {
                "start_time": 24.4159091,
                "end_time": 24.5522727,
                "pitch": 36,
                "velocity": 64,
                "duration": 0.1363636,
                "tempo": 120.0
            },
            {
                "start_time": 24.5863636,
                "end_time": 24.7409091,
                "pitch": 36,
                "velocity": 64,
                "duration": 0.1545455,
                "tempo": 120.0
            },
            {
                "start_time": 24.7772727,
                "end_time": 24.9204545,
                "pitch": 34,
                "velocity": 64,
                "duration": 0.1431818,
                "tempo": 120.0
            },
            {
                "start_time": 24.9545455,
                "end_time": 25.1,
                "pitch": 34,
                "velocity": 64,
                "duration": 0.1454545,
                "tempo": 120.0
            },
            {
                "start_time": 25.1340909,
                "end_time": 25.2863636,
                "pitch": 34,
                "velocity": 64,
                "duration": 0.1522727,
                "tempo": 120.0
            },
            {
                "start_time": 25.3227273,
                "end_time": 25.475,
                "pitch": 34,
                "velocity": 64,
                "duration": 0.1522727,
                "tempo": 120.0
            },
            {
                "start_time": 25.5113636,
                "end_time": 25.6431818,
                "pitch": 34,
                "velocity": 64,
                "duration": 0.1318182,
                "tempo": 120.0
            },
            {
                "start_time": 25.6795455,
                "end_time": 25.8295455,
                "pitch": 34,
                "velocity": 64,
                "duration": 0.15,
                "tempo": 120.0
            },
            {
                "start_time": 25.8636364,
                "end_time": 26.0136364,
                "pitch": 34,
                "velocity": 64,
                "duration": 0.15,
                "tempo": 120.0
            },
            {
                "start_time": 26.0477273,
                "end_time": 26.1977273,
                "pitch": 34,
                "velocity": 64,
                "duration": 0.15,
                "tempo": 120.0
            },
            {
                "start_time": 26.2318182,
                "end_time": 26.3818182,
                "pitch": 32,
                "velocity": 64,
                "duration": 0.15,
                "tempo": 120.0
            },
            {
                "start_time": 26.4159091,
                "end_time": 26.5659091,
                "pitch": 32,
                "velocity": 64,
                "duration": 0.15,
                "tempo": 120.0
            },
            {
                "start_time": 26.6,
                "end_time": 26.7363636,
                "pitch": 32,
                "velocity": 64,
                "duration": 0.1363636,
                "tempo": 120.0
            },
            {
                "start_time": 26.7727273,
                "end_time": 26.925,
                "pitch": 32,
                "velocity": 64,
                "duration": 0.1522727,
                "tempo": 120.0
            },
            {
                "start_time": 26.9613636,
                "end_time": 27.1068182,
                "pitch": 32,
                "velocity": 64,
                "duration": 0.1454545,
                "tempo": 120.0
            },
            {
                "start_time": 27.1386364,
                "end_time": 27.2840909,
                "pitch": 32,
                "velocity": 64,
                "duration": 0.1454545,
                "tempo": 120.0
            },
            {
                "start_time": 27.3181818,
                "end_time": 27.4727273,
                "pitch": 32,
                "velocity": 64,
                "duration": 0.1545455,
                "tempo": 120.0
            },
            {
                "start_time": 27.5068182,
                "end_time": 27.6613636,
                "pitch": 32,
                "velocity": 64,
                "duration": 0.1545455,
                "tempo": 120.0
            },
            {
                "start_time": 27.6954545,
                "end_time": 27.8454545,
                "pitch": 31,
                "velocity": 64,
                "duration": 0.15,
                "tempo": 120.0
            },
            {
                "start_time": 27.8795455,
                "end_time": 28.0136364,
                "pitch": 31,
                "velocity": 64,
                "duration": 0.1340909,
                "tempo": 120.0
            },
            {
                "start_time": 28.0477273,
                "end_time": 28.1977273,
                "pitch": 31,
                "velocity": 64,
                "duration": 0.15,
                "tempo": 120.0
            },
            {
                "start_time": 28.2318182,
                "end_time": 28.3818182,
                "pitch": 31,
                "velocity": 64,
                "duration": 0.15,
                "tempo": 120.0
            },
            {
                "start_time": 28.4159091,
                "end_time": 28.5659091,
                "pitch": 31,
                "velocity": 64,
                "duration": 0.15,
                "tempo": 120.0
            },
            {
                "start_time": 28.6,
                "end_time": 28.75,
                "pitch": 31,
                "velocity": 64,
                "duration": 0.15,
                "tempo": 120.0
            },
            {
                "start_time": 28.7840909,
                "end_time": 28.9386364,
                "pitch": 31,
                "velocity": 64,
                "duration": 0.1545455,
                "tempo": 120.0
            },
            {
                "start_time": 28.975,
                "end_time": 29.1090909,
                "pitch": 31,
                "velocity": 64,
                "duration": 0.1340909,
                "tempo": 120.0
            },
            {
                "start_time": 29.1454545,
                "end_time": 29.2909091,
                "pitch": 36,
                "velocity": 64,
                "duration": 0.1454545,
                "tempo": 120.0
            },
            {
                "start_time": 29.3227273,
                "end_time": 29.4681818,
                "pitch": 36,
                "velocity": 64,
                "duration": 0.1454545,
                "tempo": 120.0
            },
            {
                "start_time": 29.5045455,
                "end_time": 29.6568182,
                "pitch": 36,
                "velocity": 64,
                "duration": 0.1522727,
                "tempo": 120.0
            },
            {
                "start_time": 29.6909091,
                "end_time": 29.8454545,
                "pitch": 36,
                "velocity": 64,
                "duration": 0.1545455,
                "tempo": 120.0
            },
            {
                "start_time": 29.8818182,
                "end_time": 30.0295455,
                "pitch": 36,
                "velocity": 64,
                "duration": 0.1477273,
                "tempo": 120.0
            },
            {
                "start_time": 30.0636364,
                "end_time": 30.1977273,
                "pitch": 36,
                "velocity": 64,
                "duration": 0.1340909,
                "tempo": 120.0
            },
            {
                "start_time": 30.2318182,
                "end_time": 30.3772727,
                "pitch": 36,
                "velocity": 64,
                "duration": 0.1454545,
                "tempo": 120.0
            },
            {
                "start_time": 30.4113636,
                "end_time": 30.5568182,
                "pitch": 36,
                "velocity": 64,
                "duration": 0.1454545,
                "tempo": 120.0
            },
            {
                "start_time": 30.5886364,
                "end_time": 30.7431818,
                "pitch": 34,
                "velocity": 64,
                "duration": 0.1545455,
                "tempo": 120.0
            },
            {
                "start_time": 30.7795455,
                "end_time": 30.9318182,
                "pitch": 34,
                "velocity": 64,
                "duration": 0.1522727,
                "tempo": 120.0
            },
            {
                "start_time": 30.9681818,
                "end_time": 31.1204545,
                "pitch": 34,
                "velocity": 64,
                "duration": 0.1522727,
                "tempo": 120.0
            },
            {
                "start_time": 31.1568182,
                "end_time": 31.3090909,
                "pitch": 34,
                "velocity": 64,
                "duration": 0.1522727,
                "tempo": 120.0
            },
            {
                "start_time": 31.3454545,
                "end_time": 31.4818182,
                "pitch": 34,
                "velocity": 64,
                "duration": 0.1363636,
                "tempo": 120.0
            },
            {
                "start_time": 31.5159091,
                "end_time": 31.6704545,
                "pitch": 34,
                "velocity": 64,
                "duration": 0.1545455,
                "tempo": 120.0
            },
            {
                "start_time": 31.7068182,
                "end_time": 31.85,
                "pitch": 34,
                "velocity": 64,
                "duration": 0.1431818,
                "tempo": 120.0
            },
            {
                "start_time": 31.8840909,
                "end_time": 32.0295455,
                "pitch": 34,
                "velocity": 64,
                "duration": 0.1454545,
                "tempo": 120.0
            },
            {
                "start_time": 32.0636364,
                "end_time": 32.2136364,
                "pitch": 32,
                "velocity": 64,
                "duration": 0.15,
                "tempo": 120.0
            },
            {
                "start_time": 32.2477273,
                "end_time": 32.3977273,
                "pitch": 32,
                "velocity": 64,
                "duration": 0.15,
                "tempo": 120.0
            },
            {
                "start_time": 32.4318182,
                "end_time": 32.5681818,
                "pitch": 32,
                "velocity": 64,
                "duration": 0.1363636,
                "tempo": 120.0
            },
            {
                "start_time": 32.6045455,
                "end_time": 32.7568182,
                "pitch": 32,
                "velocity": 64,
                "duration": 0.1522727,
                "tempo": 120.0
            },
            {
                "start_time": 32.7931818,
                "end_time": 32.9386364,
                "pitch": 32,
                "velocity": 64,
                "duration": 0.1454545,
                "tempo": 120.0
            },
            {
                "start_time": 32.9727273,
                "end_time": 33.1159091,
                "pitch": 32,
                "velocity": 64,
                "duration": 0.1431818,
                "tempo": 120.0
            },
            {
                "start_time": 33.15,
                "end_time": 33.3045455,
                "pitch": 32,
                "velocity": 64,
                "duration": 0.1545455,
                "tempo": 120.0
            },
            {
                "start_time": 33.3386364,
                "end_time": 33.4931818,
                "pitch": 32,
                "velocity": 64,
                "duration": 0.1545455,
                "tempo": 120.0
            },
            {
                "start_time": 33.5272727,
                "end_time": 33.6772727,
                "pitch": 31,
                "velocity": 64,
                "duration": 0.15,
                "tempo": 120.0
            },
            {
                "start_time": 33.7136364,
                "end_time": 33.8454545,
                "pitch": 31,
                "velocity": 64,
                "duration": 0.1318182,
                "tempo": 120.0
            },
            {
                "start_time": 33.8795455,
                "end_time": 34.025,
                "pitch": 31,
                "velocity": 64,
                "duration": 0.1454545,
                "tempo": 120.0
            },
            {
                "start_time": 34.0590909,
                "end_time": 34.2045455,
                "pitch": 31,
                "velocity": 64,
                "duration": 0.1454545,
                "tempo": 120.0
            },
            {
                "start_time": 34.2386364,
                "end_time": 34.3909091,
                "pitch": 31,
                "velocity": 64,
                "duration": 0.1522727,
                "tempo": 120.0
            },
            {
                "start_time": 34.425,
                "end_time": 34.5795455,
                "pitch": 31,
                "velocity": 64,
                "duration": 0.1545455,
                "tempo": 120.0
            },
            {
                "start_time": 34.6159091,
                "end_time": 34.7681818,
                "pitch": 31,
                "velocity": 64,
                "duration": 0.1522727,
                "tempo": 120.0
            },
            {
                "start_time": 34.8045455,
                "end_time": 34.9409091,
                "pitch": 31,
                "velocity": 64,
                "duration": 0.1363636,
                "tempo": 120.0
            }
        ]
    }
}