{
    "mood": "angry",
    "instruments": {
        "Acoustic Bass": [
            {
                "start_time": 0.0204545,
                "end_time": 0.2181818,
                "pitch": 36,
                "velocity": 80,
                "duration": 0.1977273,
                "tempo": 120.0
            },
            {
                "start_time": 0.2181818,
                "end_time": 0.3863636,
                "pitch": 41,
                "velocity": 80,
                "duration": 0.1681818,
                "tempo": 120.0
            },
            {
                "start_time": 0.3863636,
                "end_time": 0.5522727,
                "pitch": 44,
                "velocity": 80,
                "duration": 0.1659091,
                "tempo": 120.0
            },
            {
                "start_time": 0.5545455,
                "end_time": 0.8886364,
                "pitch": 48,
                "velocity": 80,
                "duration": 0.3340909,
                "tempo": 120.0
            },
            {
                "start_time": 0.8886364,
                "end_time": 1.0613636,
                "pitch": 41,
                "velocity": 80,
                "duration": 0.1727273,
                "tempo": 120.0
            },
            {
                "start_time": 1.0613636,
                "end_time": 1.2340909,
                "pitch": 44,
                "velocity": 80,
                "duration": 0.1727273,
                "tempo": 120.0
            },
            {
                "start_time": 1.2340909,
                "end_time": 1.5681818,
                "pitch": 48,
                "velocity": 80,
                "duration": 0.3340909,
                "tempo": 120.0
            },
            {
                "start_time": 1.5704545,
                "end_time": 1.7363636,
                "pitch": 41,
                "velocity": 80,
                "duration": 0.1659091,
                "tempo": 120.0
            },
            {
                "start_time": 1.7363636,
                "end_time": 1.9045455,
                "pitch": 44,
                "velocity": 80,
                "duration": 0.1681818,
                "tempo": 120.0
            },
            {
                "start_time": 1.9045455,
                "end_time": 2.0772727,
                "pitch": 48,
                "velocity": 80,
                "duration": 0.1727273,
                "tempo": 120.0
            },
            {
                "start_time": 2.0772727,
                "end_time": 2.2477273,
                "pitch": 44,
                "velocity": 80,
                "duration": 0.1704545,
                "tempo": 120.0
            },
            {
                "start_time": 2.25,
                "end_time": 2.3318182,
                "pitch": 41,
                "velocity": 80,
                "duration": 0.0818182,
                "tempo": 120.0
            },
            {
                "start_time": 2.4181818,
                "end_time": 2.5840909,
                "pitch": 36,
                "velocity": 80,
                "duration": 0.1659091,
                "tempo": 120.0
            },
            {
                "start_time": 2.5840909,
                "end_time": 2.7568182,
                "pitch": 41,
                "velocity": 80,
                "duration": 0.1727273,
                "tempo": 120.0
            },
            {
                "start_time": 2.7568182,
                "end_time": 2.9295455,
                "pitch": 44,
                "velocity": 80,
                "duration": 0.1727273,
                "tempo": 120.0
            },
            {
                "start_time": 2.9295455,
                "end_time": 3.2636364,
                "pitch": 48,
                "velocity": 80,
                "duration": 0.3340909,
                "tempo": 120.0
            },
            {
                "start_time": 3.2659091,
                "end_time": 3.4363636,
                "pitch": 41,
                "velocity": 80,
                "duration": 0.1704545,
                "tempo": 120.0
            },
            {
                "start_time": 3.4363636,
                "end_time": 3.6090909,
                "pitch": 44,
                "velocity": 80,
                "duration": 0.1727273,
                "tempo": 120.0
            },
            {
                "start_time": 3.6090909,
                "end_time": 3.9431818,
                "pitch": 48,
                "velocity": 80,
                "duration": 0.3340909,
                "tempo": 120.0
            },
            {
                "start_time": 3.9454545,
                "end_time": 4.1113636,
                "pitch": 41,
                "velocity": 80,
                "duration": 0.1659091,
                "tempo": 120.0
            },
            {
                "start_time": 4.1136364,
                "end_time": 4.2795455,
                "pitch": 44,
                "velocity": 80,
                "duration": 0.1659091,
                "tempo": 120.0
            },
            {
                "start_time": 4.2795455,
                "end_time": 4.4477273,
                "pitch": 48,
                "velocity": 80,
                "duration": 0.1681818,
                "tempo": 120.0
            },
            {
                "start_time": 4.4477273,
                "end_time": 4.6159091,
                "pitch": 44,
                "velocity": 80,
                "duration": 0.1681818,
                "tempo": 120.0
            },
            {
                "start_time": 4.6159091,
                "end_time": 4.7,
                "pitch": 41,
                "velocity": 80,
                "duration": 0.0840909,
                "tempo": 120.0
            },
            {
                "start_time": 4.7886364,
                "end_time": 4.9590909,
                "pitch": 36,
                "velocity": 80,
                "duration": 0.1704545,
                "tempo": 120.0
            },
            {
                "start_time": 4.9613636,
                "end_time": 5.1272727,
                "pitch": 41,
                "velocity": 80,
                "duration": 0.1659091,
                "tempo": 120.0
            },
            {
                "start_time": 5.1272727,
                "end_time": 5.2954545,
                "pitch": 44,
                "velocity": 80,
                "duration": 0.1681818,
                "tempo": 120.0
            },
            {
                "start_time": 5.2954545,
                "end_time": 5.6295455,
                "pitch": 48,
                "velocity": 80,
                "duration": 0.3340909,
                "tempo": 120.0
            },
            {
                "start_time": 5.6318182,
                "end_time": 5.8022727,
                "pitch": 41,
                "velocity": 80,
                "duration": 0.1704545,
                "tempo": 120.0
            },
            {
                "start_time": 5.8045455,
                "end_time": 5.975,
                "pitch": 44,
                "velocity": 80,
                "duration": 0.1704545,
                "tempo": 120.0
            },
            {
                "start_time": 5.975,
                "end_time": 6.3113636,
                "pitch": 48,
                "velocity": 80,
                "duration": 0.3363636,
                "tempo": 120.0
            },
            {
                "start_time": 6.3113636,
                "end_time": 6.4818182,
                "pitch": 41,
                "velocity": 80,
                "duration": 0.1704545,
                "tempo": 120.0
            },
            {
                "start_time": 6.4840909,
                "end_time": 6.6545455,
                "pitch": 44,
                "velocity": 80,
                "duration": 0.1704545,
                "tempo": 120.0
            },
            {
                "start_time": 6.6568182,
                "end_time": 6.8227273,
                "pitch": 48,
                "velocity": 80,
                "duration": 0.1659091,
                "tempo": 120.0
            },
            {
                "start_time": 6.8227273,
                "end_time": 6.9909091,
                "pitch": 44,
                "velocity": 80,
                "duration": 0.1681818,
                "tempo": 120.0
            },
            {
                "start_time": 6.9909091,
                "end_time": 7.0727273,
                "pitch": 41,
                "velocity": 80,
                "duration": 0.0818182,
                "tempo": 120.0
            },
            {
                "start_time": 7.1613636,
                "end_time": 7.325,
                "pitch": 36,
                "velocity": 80,
                "duration": 0.1636364,
                "tempo": 120.0
            },
            {
                "start_time": 7.3272727,
                "end_time": 7.4977273,
                "pitch": 41,
                "velocity": 80,
                "duration": 0.1704545,
                "tempo": 120.0
            },
            {
                "start_time": 7.5,
                "end_time": 7.6704545,
                "pitch": 44,
                "velocity": 80,
                "duration": 0.1704545,
                "tempo": 120.0
            },
            {
                "start_time": 7.6727273,
                "end_time": 8.0068182,
                "pitch": 48,
                "velocity": 80,
                "duration": 0.3340909,
                "tempo": 120.0
            },
            {
                "start_time": 8.0068182,
                "end_time": 8.1772727,
                "pitch": 41,
                "velocity": 80,
                "duration": 0.1704545,
                "tempo": 120.0
            },
            {
                "start_time": 8.1795455,
                "end_time": 8.35,
                "pitch": 44,
                "velocity": 80,
                "duration": 0.1704545,
                "tempo": 120.0
            },
            {
                "start_time": 8.3522727,
                "end_time": 8.6863636,
                "pitch": 48,
                "velocity": 80,
                "duration": 0.3340909,
                "tempo": 120.0
            },
            {
                "start_time": 8.6863636,
                "end_time": 8.8545455,
                "pitch": 41,
                "velocity": 80,
                "duration": 0.1681818,
                "tempo": 120.0
            },
            {
                "start_time": 8.8545455,
                "end_time": 9.0204545,
                "pitch": 44,
                "velocity": 80,
                "duration": 0.1659091,
                "tempo": 120.0
            },
            {
                "start_time": 9.0227273,
                "end_time": 9.1931818,
                "pitch": 48,
                "velocity": 80,
                "duration": 0.1704545,
                "tempo": 120.0
            },
            {
                "start_time": 9.1954545,
                "end_time": 9.3659091,
                "pitch": 44,
                "velocity": 80,
                "duration": 0.1704545,
                "tempo": 120.0
            },
            {
                "start_time": 9.3659091,
                "end_time": 9.4477273,
                "pitch": 41,
                "velocity": 80,
                "duration": 0.0818182,
                "tempo": 120.0
            },
            {
                "start_time": 9.5386364,
                "end_time": 9.7022727,
                "pitch": 36,
                "velocity": 80,
                "duration": 0.1636364,
                "tempo": 120.0
            },
            {
                "start_time": 9.7045455,
                "end_time": 9.8704545,
                "pitch": 41,
                "velocity": 80,
                "duration": 0.1659091,
                "tempo": 120.0
            },
            {
                "start_time": 9.8704545,
                "end_time": 10.0386364,
                "pitch": 44,
                "velocity": 80,
                "duration": 0.1681818,
                "tempo": 120.0
            },
            {
                "start_time": 10.0386364,
                "end_time": 10.3840909,
                "pitch": 48,
                "velocity": 80,
                "duration": 0.3454545,
                "tempo": 120.0
            },
            {
                "start_time": 10.3840909,
                "end_time": 10.5545455,
                "pitch": 41,
                "velocity": 80,
                "duration": 0.1704545,
                "tempo": 120.0
            },
            {
                "start_time": 10.5568182,
                "end_time": 10.7272727,
                "pitch": 44,
                "velocity": 80,
                "duration": 0.1704545,
                "tempo": 120.0
            },
            {
                "start_time": 10.7272727,
                "end_time": 11.0522727,
                "pitch": 48,
                "velocity": 80,
                "duration": 0.325,
                "tempo": 120.0
            },
            {
                "start_time": 11.0522727,
                "end_time": 11.225,
                "pitch": 41,
                "velocity": 80,
                "duration": 0.1727273,
                "tempo": 120.0
            },
            {
                "start_time": 11.225,
                "end_time": 11.3977273,
                "pitch": 44,
                "velocity": 80,
                "duration": 0.1727273,
                "tempo": 120.0
            },
            {
                "start_time": 11.3977273,
                "end_time": 11.5636364,
                "pitch": 48,
                "velocity": 80,
                "duration": 0.1659091,
                "tempo": 120.0
            },
            {
                "start_time": 11.5659091,
                "end_time": 11.7318182,
                "pitch": 44,
                "velocity": 80,
                "duration": 0.1659091,
                "tempo": 120.0
            },
            {
                "start_time": 11.7340909,
                "end_time": 11.8159091,
                "pitch": 41,
                "velocity": 80,
                "duration": 0.0818182,
                "tempo": 120.0
            },
            {
                "start_time": 11.9068182,
                "end_time": 12.0772727,
                "pitch": 36,
                "velocity": 80,
                "duration": 0.1704545,
                "tempo": 120.0
            },
            {
                "start_time": 12.0772727,
                "end_time": 12.2454545,
                "pitch": 41,
                "velocity": 80,
                "duration": 0.1681818,
                "tempo": 120.0
            },
            {
                "start_time": 12.2454545,
                "end_time": 12.4113636,
                "pitch": 44,
                "velocity": 80,
                "duration": 0.1659091,
                "tempo": 120.0
            },
            {
                "start_time": 12.4136364,
                "end_time": 12.7568182,
                "pitch": 48,
                "velocity": 80,
                "duration": 0.3431818,
                "tempo": 120.0
            },
            {
                "start_time": 12.7590909,
                "end_time": 12.925,
                "pitch": 41,
                "velocity": 80,
                "duration": 0.1659091,
                "tempo": 120.0
            },
            {
                "start_time": 12.925,
                "end_time": 13.0931818,
                "pitch": 44,
                "velocity": 80,
                "duration": 0.1681818,
                "tempo": 120.0
            },
            {
                "start_time": 13.0931818,
                "end_time": 13.4363636,
                "pitch": 48,
                "velocity": 80,
                "duration": 0.3431818,
                "tempo": 120.0
            },
            {
                "start_time": 13.4386364,
                "end_time": 13.6045455,
                "pitch": 41,
                "velocity": 80,
                "duration": 0.1659091,
                "tempo": 120.0
            },
            {
                "start_time": 13.6045455,
                "end_time": 13.7727273,
                "pitch": 44,
                "velocity": 80,
                "duration": 0.1681818,
                "tempo": 120.0
            },
            {
                "start_time": 13.7727273,
                "end_time": 13.9409091,
                "pitch": 48,
                "velocity": 80,
                "duration": 0.1681818,
                "tempo": 120.0
            },
            {
                "start_time": 13.9409091,
                "end_time": 14.1068182,
                "pitch": 44,
                "velocity": 80,
                "duration": 0.1659091,
                "tempo": 120.0
            },
            {
                "start_time": 14.1090909,
                "end_time": 14.1886364,
                "pitch": 41,
                "velocity": 80,
                "duration": 0.0795455,
                "tempo": 120.0
            },
            {
                "start_time": 14.2772727,
                "end_time": 14.4431818,
                "pitch": 36,
                "velocity": 80,
                "duration": 0.1659091,
                "tempo": 120.0
            },
            {
                "start_time": 14.4431818,
                "end_time": 14.6159091,
                "pitch": 41,
                "velocity": 80,
                "duration": 0.1727273,
                "tempo": 120.0
            },
            {
                "start_time": 14.6159091,
                "end_time": 14.7886364,
                "pitch": 44,
                "velocity": 80,
                "duration": 0.1727273,
                "tempo": 120.0
            },
            {
                "start_time": 14.7886364,
                "end_time": 15.1227273,
                "pitch": 48,
                "velocity": 80,
                "duration": 0.3340909,
                "tempo": 120.0
            },
            {
                "start_time": 15.125,
                "end_time": 15.2954545,
                "pitch": 41,
                "velocity": 80,
                "duration": 0.1704545,
                "tempo": 120.0
            },
            {
                "start_time": 15.2954545,
                "end_time": 15.4681818,
                "pitch": 44,
                "velocity": 80,
                "duration": 0.1727273,
                "tempo": 120.0
            },
            {
                "start_time": 15.4681818,
                "end_time": 15.8022727,
                "pitch": 48,
                "velocity": 80,
                "duration": 0.3340909,
                "tempo": 120.0
            },
            {
                "start_time": 15.8045455,
                "end_time": 15.975,
                "pitch": 41,
                "velocity": 80,
                "duration": 0.1704545,
                "tempo": 120.0
            },
            {
                "start_time": 15.9772727,
                "end_time": 16.1477273,
                "pitch": 44,
                "velocity": 80,
                "duration": 0.1704545,
                "tempo": 120.0
            },
            {
                "start_time": 16.15,
                "end_time": 16.3159091,
                "pitch": 48,
                "velocity": 80,
                "duration": 0.1659091,
                "tempo": 120.0
            },
            {
                "start_time": 16.3159091,
                "end_time": 16.4840909,
                "pitch": 44,
                "velocity": 80,
                "duration": 0.1681818,
                "tempo": 120.0
            },
            {
                "start_time": 16.4840909,
                "end_time": 16.5659091,
                "pitch": 41,
                "velocity": 80,
                "duration": 0.0818182,
                "tempo": 120.0
            },
            {
                "start_time": 16.6522727,
                "end_time": 16.8181818,
                "pitch": 36,
                "velocity": 80,
                "duration": 0.1659091,
                "tempo": 120.0
            },
            {
                "start_time": 16.8204545,
                "end_time": 16.9863636,
                "pitch": 41,
                "velocity": 80,
                "duration": 0.1659091,
                "tempo": 120.0
            },
            {
                "start_time": 16.9863636,
                "end_time": 17.1545455,
                "pitch": 44,
                "velocity": 80,
                "duration": 0.1681818,
                "tempo": 120.0
            },
            {
                "start_time": 17.1545455,
                "end_time": 17.5,
                "pitch": 48,
                "velocity": 80,
                "duration": 0.3454545,
                "tempo": 120.0
            },
            {
                "start_time": 17.5,
                "end_time": 17.6659091,
                "pitch": 41,
                "velocity": 80,
                "duration": 0.1659091,
                "tempo": 120.0
            },
            {
                "start_time": 17.6681818,
                "end_time": 17.8340909,
                "pitch": 44,
                "velocity": 80,
                "duration": 0.1659091,
                "tempo": 120.0
            },
            {
                "start_time": 17.8340909,
                "end_time": 18.1795455,
                "pitch": 48,
                "velocity": 80,
                "duration": 0.3454545,
                "tempo": 120.0
            },
            {
                "start_time": 18.1795455,
                "end_time": 18.3477273,
                "pitch": 41,
                "velocity": 80,
                "duration": 0.1681818,
                "tempo": 120.0
            },
            {
                "start_time": 18.3477273,
                "end_time": 18.5136364,
                "pitch": 44,
                "velocity": 80,
                "duration": 0.1659091,
                "tempo": 120.0
            },
            {
                "start_time": 18.5159091,
                "end_time": 18.6863636,
                "pitch": 48,
                "velocity": 80,
                "duration": 0.1704545,
                "tempo": 120.0
            },
            {
                "start_time": 18.6863636,
                "end_time": 18.8590909,
                "pitch": 44,
                "velocity": 80,
                "duration": 0.1727273,
                "tempo": 120.0
            },
            {
                "start_time": 18.8590909,
                "end_time": 18.9409091,
                "pitch": 41,
                "velocity": 80,
                "duration": 0.0818182,
                "tempo": 120.0
            },
            {
                "start_time": 19.0272727,
                "end_time": 19.1909091,
                "pitch": 36,
                "velocity": 80,
                "duration": 0.1636364,
                "tempo": 120.0
            },
            {
                "start_time": 19.1931818,
                "end_time": 19.3613636,
                "pitch": 41,
                "velocity": 80,
                "duration": 0.1681818,
                "tempo": 120.0
            },
            {
                "start_time": 19.3636364,
                "end_time": 19.5272727,
                "pitch": 44,
                "velocity": 80,
                "duration": 0.1636364,
                "tempo": 120.0
            },
            {
                "start_time": 19.5295455,
                "end_time": 19.8659091,
                "pitch": 48,
                "velocity": 80,
                "duration": 0.3363636,
                "tempo": 120.0
            },
            {
                "start_time": 19.8659091,
                "end_time": 20.0363636,
                "pitch": 41,
                "velocity": 80,
                "duration": 0.1704545,
                "tempo": 120.0
            },
            {
                "start_time": 20.0363636,
                "end_time": 20.2068182,
                "pitch": 44,
                "velocity": 80,
                "duration": 0.1704545,
                "tempo": 120.0
            },
            {
                "start_time": 20.2090909,
                "end_time": 20.5431818,
                "pitch": 48,
                "velocity": 80,
                "duration": 0.3340909,
                "tempo": 120.0
            },
            {
                "start_time": 20.5431818,
                "end_time": 20.7159091,
                "pitch": 41,
                "velocity": 80,
                "duration": 0.1727273,
                "tempo": 120.0
            },
            {
                "start_time": 20.7159091,
                "end_time": 20.8909091,
                "pitch": 44,
                "velocity": 80,
                "duration": 0.175,
                "tempo": 120.0
            },
            {
                "start_time": 20.8909091,
                "end_time": 21.0545455,
                "pitch": 48,
                "velocity": 80,
                "duration": 0.1636364,
                "tempo": 120.0
            },
            {
                "start_time": 21.0568182,
                "end_time": 21.225,
                "pitch": 44,
                "velocity": 80,
                "duration": 0.1681818,
                "tempo": 120.0
            },
            {
                "start_time": 21.225,
                "end_time": 21.3068182,
                "pitch": 41,
                "velocity": 80,
                "duration": 0.0818182,
                "tempo": 120.0
            },
            {
                "start_time": 21.3931818,
                "end_time": 21.5590909,
                "pitch": 36,
                "velocity": 80,
                "duration": 0.1659091,
                "tempo": 120.0
            },
            {
                "start_time": 21.5590909,
                "end_time": 21.7340909,
                "pitch": 41,
                "velocity": 80,
                "duration": 0.175,
                "tempo": 120.0
            },
            {
                "start_time": 21.7340909,
                "end_time": 21.9022727,
                "pitch": 44,
                "velocity": 80,
                "duration": 0.1681818,
                "tempo": 120.0
            },
            {
                "start_time": 21.9045455,
                "end_time": 22.2409091,
                "pitch": 48,
                "velocity": 80,
                "duration": 0.3363636,
                "tempo": 120.0
            },
            {
                "start_time": 22.2409091,
                "end_time": 22.4113636,
                "pitch": 41,
                "velocity": 80,
                "duration": 0.1704545,
                "tempo": 120.0
            },
            {
                "start_time": 22.4113636,
                "end_time": 22.5840909,
                "pitch": 44,
                "velocity": 80,
                "duration": 0.1727273,
                "tempo": 120.0
            },
            {
                "start_time": 22.5840909,
                "end_time": 22.9181818,
                "pitch": 48,
                "velocity": 80,
                "duration": 0.3340909,
                "tempo": 120.0
            },
            {
                "start_time": 22.9204545,
                "end_time": 23.0863636,
                "pitch": 41,
                "velocity": 80,
                "duration": 0.1659091,
                "tempo": 120.0
            },
            {
                "start_time": 23.0863636,
                "end_time": 23.2568182,
                "pitch": 44,
                "velocity": 80,
                "duration": 0.1704545,
                "tempo": 120.0
            },
            {
                "start_time": 23.2568182,
                "end_time": 23.4227273,
                "pitch": 48,
                "velocity": 80,
                "duration": 0.1659091,
                "tempo": 120.0
            },
            {
                "start_time": 23.4227273,
                "end_time": 23.5909091,
                "pitch": 44,
                "velocity": 80,
                "duration": 0.1681818,
                "tempo": 120.0
            },
            {
                "start_time": 23.5931818,
                "end_time": 23.675,
                "pitch": 41,
                "velocity": 80,
                "duration": 0.0818182,
                "tempo": 120.0
            },
            {
                "start_time": 23.7636364,
                "end_time": 23.9340909,
                "pitch": 36,
                "velocity": 80,
                "duration": 0.1704545,
                "tempo": 120.0
            },
            {
                "start_time": 23.9340909,
                "end_time": 24.1045455,
                "pitch": 41,
                "velocity": 80,
                "duration": 0.1704545,
                "tempo": 120.0
            },
            {
                "start_time": 24.1045455,
                "end_time": 24.2704545,
                "pitch": 44,
                "velocity": 80,
                "duration": 0.1659091,
                "tempo": 120.0
            },
            {
                "start_time": 24.2704545,
                "end_time": 24.6159091,
                "pitch": 48,
                "velocity": 80,
                "duration": 0.3454545,
                "tempo": 120.0
            },
            {
                "start_time": 24.6181818,
                "end_time": 24.7863636,
                "pitch": 41,
                "velocity": 80,
                "duration": 0.1681818,
                "tempo": 120.0
            },
            {
                "start_time": 24.7886364,
                "end_time": 24.9590909,
                "pitch": 44,
                "velocity": 80,
                "duration": 0.1704545,
                "tempo": 120.0
            },
            {
                "start_time": 24.9590909,
                "end_time": 25.2840909,
                "pitch": 48,
                "velocity": 80,
                "duration": 0.325,
                "tempo": 120.0
            },
            {
                "start_time": 25.2840909,
                "end_time": 25.4568182,
                "pitch": 41,
                "velocity": 80,
                "duration": 0.1727273,
                "tempo": 120.0
            },
            {
                "start_time": 25.4568182,
                "end_time": 25.6295455,
                "pitch": 44,
                "velocity": 80,
                "duration": 0.1727273,
                "tempo": 120.0
            },
            {
                "start_time": 25.6318182,
                "end_time": 25.7954545,
                "pitch": 48,
                "velocity": 80,
                "duration": 0.1636364,
                "tempo": 120.0
            },
            {
                "start_time": 25.7977273,
                "end_time": 25.9659091,
                "pitch": 44,
                "velocity": 80,
                "duration": 0.1681818,
                "tempo": 120.0
            },
            {
                "start_time": 25.9659091,
                "end_time": 26.05,
                "pitch": 41,
                "velocity": 80,
                "duration": 0.0840909,
                "tempo": 120.0
            },
            {
                "start_time": 26.1386364,
                "end_time": 26.3068182,
                "pitch": 36,
                "velocity": 80,
                "duration": 0.1681818,
                "tempo": 120.0
            },
            {
                "start_time": 26.3090909,
                "end_time": 26.4772727,
                "pitch": 41,
                "velocity": 80,
                "duration": 0.1681818,
                "tempo": 120.0
            },
            {
                "start_time": 26.4795455,
                "end_time": 26.6431818,
                "pitch": 44,
                "velocity": 80,
                "duration": 0.1636364,
                "tempo": 120.0
            },
            {
                "start_time": 26.6454545,
                "end_time": 26.9818182,
                "pitch": 48,
                "velocity": 80,
                "duration": 0.3363636,
                "tempo": 120.0
            },
            {
                "start_time": 26.9818182,
                "end_time": 27.1522727,
                "pitch": 41,
                "velocity": 80,
                "duration": 0.1704545,
                "tempo": 120.0
            },
            {
                "start_time": 27.1522727,
                "end_time": 27.3227273,
                "pitch": 44,
                "velocity": 80,
                "duration": 0.1704545,
                "tempo": 120.0
            },
            {
                "start_time": 27.325,
                "end_time": 27.6590909,
                "pitch": 48,
                "velocity": 80,
                "duration": 0.3340909,
                "tempo": 120.0
            },
            {
                "start_time": 27.6590909,
                "end_time": 27.8272727,
                "pitch": 41,
                "velocity": 80,
                "duration": 0.1681818,
                "tempo": 120.0
            },
            {
                "start_time": 27.8272727,
                "end_time": 27.9954545,
                "pitch": 44,
                "velocity": 80,
                "duration": 0.1681818,
                "tempo": 120.0
            },
            {
                "start_time": 27.9977273,
                "end_time": 28.1659091,
                "pitch": 48,
                "velocity": 80,
                "duration": 0.1681818,
                "tempo": 120.0
            },
            {
                "start_time": 28.1681818,
                "end_time": 28.3409091,
                "pitch": 44,
                "velocity": 80,
                "duration": 0.1727273,
                "tempo": 120.0
            },
            {
                "start_time": 28.3431818,
                "end_time": 28.4227273,
                "pitch": 41,
                "velocity": 80,
                "duration": 0.0795455,
                "tempo": 120.0
            },
            {
                "start_time": 28.5113636,
                "end_time": 28.6772727,
                "pitch": 36,
                "velocity": 80,
                "duration": 0.1659091,
                "tempo": 120.0
            },
            {
                "start_time": 28.6772727,
                "end_time": 28.8431818,
                "pitch": 41,
                "velocity": 80,
                "duration": 0.1659091,
                "tempo": 120.0
            },
            {
                "start_time": 28.8454545,
                "end_time": 29.0113636,
                "pitch": 44,
                "velocity": 80,
                "duration": 0.1659091,
                "tempo": 120.0
            },
            {
                "start_time": 29.0136364,
                "end_time": 29.3568182,
                "pitch": 48,
                "velocity": 80,
                "duration": 0.3431818,
                "tempo": 120.0
            },
            {
                "start_time": 29.3568182,
                "end_time": 29.525,
                "pitch": 41,
                "velocity": 80,
                "duration": 0.1681818,
                "tempo": 120.0
            },
            {
                "start_time": 29.525,
                "end_time": 29.6931818,
                "pitch": 44,
                "velocity": 80,
                "duration": 0.1681818,
                "tempo": 120.0
            },
            {
                "start_time": 29.6931818,
                "end_time": 30.0363636,
                "pitch": 48,
                "velocity": 80,
                "duration": 0.3431818,
                "tempo": 120.0
            },
            {
                "start_time": 30.0386364,
                "end_time": 30.2045455,
                "pitch": 41,
                "velocity": 80,
                "duration": 0.1659091,
                "tempo": 120.0
            },
            {
                "start_time": 30.2045455,
                "end_time": 30.3727273,
                "pitch": 44,
                "velocity": 80,
                "duration": 0.1681818,
                "tempo": 120.0
            },
            {
                "start_time": 30.3727273,
                "end_time": 30.5409091,
                "pitch": 48,
                "velocity": 80,
                "duration": 0.1681818,
                "tempo": 120.0
            },
            {
                "start_time": 30.5409091,
                "end_time": 30.7068182,
                "pitch": 44,
                "velocity": 80,
                "duration": 0.1659091,
                "tempo": 120.0
            },
            {
                "start_time": 30.7090909,
                "end_time": 30.7909091,
                "pitch": 41,
                "velocity": 80,
                "duration": 0.0818182,
                "tempo": 120.0
            },
            {
                "start_time": 30.8818182,
                "end_time": 31.0522727,
                "pitch": 36,
                "velocity": 80,
                "duration": 0.1704545,
                "tempo": 120.0
            },
            {
                "start_time": 31.0545455,
                "end_time": 31.2204545,
                "pitch": 41,
                "velocity": 80,
                "duration": 0.1659091,
                "tempo": 120.0
            },
            {
                "start_time": 31.2204545,
                "end_time": 31.3886364,
                "pitch": 44,
                "velocity": 80,
                "duration": 0.1681818,
                "tempo": 120.0
            },
            {
                "start_time": 31.3886364,
                "end_time": 31.7318182,
                "pitch": 48,
                "velocity": 80,
                "duration": 0.3431818,
                "tempo": 120.0
            },
            {
                "start_time": 31.7340909,
                "end_time": 31.9,
                "pitch": 41,
                "velocity": 80,
                "duration": 0.1659091,
                "tempo": 120.0
            },
            {
                "start_time": 31.9,
                "end_time": 32.0681818,
                "pitch": 44,
                "velocity": 80,
                "duration": 0.1681818,
                "tempo": 120.0
            },
            {
                "start_time": 32.0681818,
                "end_time": 32.4022727,
                "pitch": 48,
                "velocity": 80,
                "duration": 0.3340909,
                "tempo": 120.0
            },
            {
                "start_time": 32.4045455,
                "end_time": 32.575,
                "pitch": 41,
                "velocity": 80,
                "duration": 0.1704545,
                "tempo": 120.0
            },
            {
                "start_time": 32.5772727,
                "end_time": 32.7477273,
                "pitch": 44,
                "velocity": 80,
                "duration": 0.1704545,
                "tempo": 120.0
            },
            {
                "start_time": 32.7477273,
                "end_time": 32.9159091,
                "pitch": 48,
                "velocity": 80,
                "duration": 0.1681818,
                "tempo": 120.0
            },
            {
                "start_time": 32.9159091,
                "end_time": 33.0840909,
                "pitch": 44,
                "velocity": 80,
                "duration": 0.1681818,
                "tempo": 120.0
            },
            {
                "start_time": 33.0840909,
                "end_time": 33.1636364,
                "pitch": 41,
                "velocity": 80,
                "duration": 0.0795455,
                "tempo": 120.0
            },
            {
                "start_time": 33.2522727,
                "end_time": 33.4181818,
                "pitch": 36,
                "velocity": 80,
                "duration": 0.1659091,
                "tempo": 120.0
            },
            {
                "start_time": 33.4204545,
                "end_time": 33.5909091,
                "pitch": 41,
                "velocity": 80,
                "duration": 0.1704545,
                "tempo": 120.0
            },
            {
                "start_time": 33.5909091,
                "end_time": 33.7636364,
                "pitch": 44,
                "velocity": 80,
                "duration": 0.1727273,
                "tempo": 120.0
            },
            {
                "start_time": 33.7636364,
                "end_time": 34.0977273,
                "pitch": 48,
                "velocity": 80,
                "duration": 0.3340909,
                "tempo": 120.0
            },
            {
                "start_time": 34.1,
                "end_time": 34.2704545,
                "pitch": 41,
                "velocity": 80,
                "duration": 0.1704545,
                "tempo": 120.0
            },
            {
                "start_time": 34.2727273,
                "end_time": 34.4431818,
                "pitch": 44,
                "velocity": 80,
                "duration": 0.1704545,
                "tempo": 120.0
            },
            {
                "start_time": 34.4454545,
                "end_time": 34.7795455,
                "pitch": 48,
                "velocity": 80,
                "duration": 0.3340909,
                "tempo": 120.0
            },
            {
                "start_time": 34.7795455,
                "end_time": 34.95,
                "pitch": 41,
                "velocity": 80,
                "duration": 0.1704545,
                "tempo": 120.0
            },
            {
                "start_time": 34.9522727,
                "end_time": 35.1227273,
                "pitch": 44,
                "velocity": 80,
                "duration": 0.1704545,
                "tempo": 120.0
            },
            {
                "start_time": 35.125,
                "end_time": 35.2909091,
                "pitch": 48,
                "velocity": 80,
                "duration": 0.1659091,
                "tempo": 120.0
            },
            {
                "start_time": 35.2909091,
                "end_time": 35.4590909,
                "pitch": 44,
                "velocity": 80,
                "duration": 0.1681818,
                "tempo": 120.0
            },
            {
                "start_time": 35.4590909,
                "end_time": 35.5409091,
                "pitch": 41,
                "velocity": 80,
                "duration": 0.0818182,
                "tempo": 120.0
            },
            {
                "start_time": 35.6295455,
                "end_time": 35.7954545,
                "pitch": 36,
                "velocity": 80,
                "duration": 0.1659091,
                "tempo": 120.0
            },
            {
                "start_time": 35.7954545,
                "end_time": 35.9613636,
                "pitch": 41,
                "velocity": 80,
                "duration": 0.1659091,
                "tempo": 120.0
            },
            {
                "start_time": 35.9636364,
                "end_time": 36.1295455,
                "pitch": 44,
                "velocity": 80,
                "duration": 0.1659091,
                "tempo": 120.0
            },
            {
                "start_time": 36.1295455,
                "end_time": 36.475,
                "pitch": 48,
                "velocity": 80,
                "duration": 0.3454545,
                "tempo": 120.0
            },
            {
                "start_time": 36.475,
                "end_time": 36.6477273,
                "pitch": 41,
                "velocity": 80,
                "duration": 0.1727273,
                "tempo": 120.0
            },
            {
                "start_time": 36.6477273,
                "end_time": 36.8181818,
                "pitch": 44,
                "velocity": 80,
                "duration": 0.1704545,
                "tempo": 120.0
            },
            {
                "start_time": 36.8204545,
                "end_time": 37.1545455,
                "pitch": 48,
                "velocity": 80,
                "duration": 0.3340909,
                "tempo": 120.0
            },
            {
                "start_time": 37.1545455,
                "end_time": 37.3227273,
                "pitch": 41,
                "velocity": 80,
                "duration": 0.1681818,
                "tempo": 120.0
            },
            {
                "start_time": 37.3227273,
                "end_time": 37.4909091,
                "pitch": 44,
                "velocity": 80,
                "duration": 0.1681818,
                "tempo": 120.0
            },
            {
                "start_time": 37.4909091,
                "end_time": 37.6613636,
                "pitch": 48,
                "velocity": 80,
                "duration": 0.1704545,
                "tempo": 120.0
            },
            {
                "start_time": 37.6636364,
                "end_time": 37.8340909,
                "pitch": 44,
                "velocity": 80,
                "duration": 0.1704545,
                "tempo": 120.0
            },
            {
                "start_time": 37.8363636,
                "end_time": 37.9159091,
                "pitch": 41,
                "velocity": 80,
                "duration": 0.0795455,
                "tempo": 120.0
            },
            {
                "start_time": 38.0022727,
                "end_time": 38.1681818,
                "pitch": 36,
                "velocity": 80,
                "duration": 0.1659091,
                "tempo": 120.0
            },
            {
                "start_time": 38.1681818,
                "end_time": 38.3386364,
                "pitch": 41,
                "velocity": 80,
                "duration": 0.1704545,
                "tempo": 120.0
            },
            {
                "start_time": 38.3386364,
                "end_time": 38.5045455,
                "pitch": 44,
                "velocity": 80,
                "duration": 0.1659091,
                "tempo": 120.0
            },
            {
                "start_time": 38.5045455,
                "end_time": 38.8409091,
                "pitch": 48,
                "velocity": 80,
                "duration": 0.3363636,
                "tempo": 120.0
            },
            {
                "start_time": 38.8409091,
                "end_time": 39.0113636,
                "pitch": 41,
                "velocity": 80,
                "duration": 0.1704545,
                "tempo": 120.0
            },
            {
                "start_time": 39.0113636,
                "end_time": 39.1840909,
                "pitch": 44,
                "velocity": 80,
                "duration": 0.1727273,
                "tempo": 120.0
            },
            {
                "start_time": 39.1840909,
                "end_time": 39.5181818,
                "pitch": 48,
                "velocity": 80,
                "duration": 0.3340909,
                "tempo": 120.0
            },
            {
                "start_time": 39.5204545,
                "end_time": 39.6909091,
                "pitch": 41,
                "velocity": 80,
                "duration": 0.1704545,
                "tempo": 120.0
            },
            {
                "start_time": 39.6909091,
                "end_time": 39.8659091,
                "pitch": 44,
                "velocity": 80,
                "duration": 0.175,
                "tempo": 120.0
            },
            {
                "start_time": 39.8659091,
                "end_time": 40.0318182,
                "pitch": 48,
                "velocity": 80,
                "duration": 0.1659091,
                "tempo": 120.0
            },
            {
                "start_time": 40.0318182,
                "end_time": 40.2,
                "pitch": 44,
                "velocity": 80,
                "duration": 0.1681818,
                "tempo": 120.0
            },
            {
                "start_time": 40.2022727,
                "end_time": 40.2818182,
                "pitch": 41,
                "velocity": 80,
                "duration": 0.0795455,
                "tempo": 120.0
            },
            {
                "start_time": 40.3681818,
                "end_time": 40.5340909,
                "pitch": 36,
                "velocity": 80,
                "duration": 0.1659091,
                "tempo": 120.0
            },
            {
                "start_time": 40.5340909,
                "end_time": 40.7090909,
                "pitch": 41,
                "velocity": 80,
                "duration": 0.175,
                "tempo": 120.0
            },
            {
                "start_time": 40.7090909,
                "end_time": 40.8795455,
                "pitch": 44,
                "velocity": 80,
                "duration": 0.1704545,
                "tempo": 120.0
            },
            {
                "start_time": 40.8795455,
                "end_time": 41.2159091,
                "pitch": 48,
                "velocity": 80,
                "duration": 0.3363636,
                "tempo": 120.0
            },
            {
                "start_time": 41.2181818,
                "end_time": 41.3863636,
                "pitch": 41,
                "velocity": 80,
                "duration": 0.1681818,
                "tempo": 120.0
            },
            {
                "start_time": 41.3886364,
                "end_time": 41.5590909,
                "pitch": 44,
                "velocity": 80,
                "duration": 0.1704545,
                "tempo": 120.0
            },
            {
                "start_time": 41.5590909,
                "end_time": 41.8954545,
                "pitch": 48,
                "velocity": 80,
                "duration": 0.3363636,
                "tempo": 120.0
            },
            {
                "start_time": 41.8954545,
                "end_time": 42.0613636,
                "pitch": 41,
                "velocity": 80,
                "duration": 0.1659091,
                "tempo": 120.0
            },
            {
                "start_time": 42.0636364,
                "end_time": 42.2318182,
                "pitch": 44,
                "velocity": 80,
                "duration": 0.1681818,
                "tempo": 120.0
            },
            {
                "start_time": 42.2318182,
                "end_time": 42.4022727,
                "pitch": 48,
                "velocity": 80,
                "duration": 0.1704545,
                "tempo": 120.0
            },
            {
                "start_time": 42.4022727,
                "end_time": 42.5772727,
                "pitch": 44,
                "velocity": 80,
                "duration": 0.175,
                "tempo": 120.0
            },
            {
                "start_time": 42.5772727,
                "end_time": 42.6590909,
                "pitch": 41,
                "velocity": 80,
                "duration": 0.0818182,
                "tempo": 120.0
            },
            {
                "start_time": 42.7454545,
                "end_time": 42.9090909,
                "pitch": 36,
                "velocity": 80,
                "duration": 0.1636364,
                "tempo": 120.0
            },
            {
                "start_time": 42.9113636,
                "end_time": 43.0840909,
                "pitch": 41,
                "velocity": 80,
                "duration": 0.1727273,
                "tempo": 120.0
            },
            {
                "start_time": 43.0840909,
                "end_time": 43.2545455,
                "pitch": 44,
                "velocity": 80,
                "duration": 0.1704545,
                "tempo": 120.0
            },
            {
                "start_time": 43.2545455,
                "end_time": 43.5909091,
                "pitch": 48,
                "velocity": 80,
                "duration": 0.3363636,
                "tempo": 120.0
            },
            {
                "start_time": 43.5931818,
                "end_time": 43.7568182,
                "pitch": 41,
                "velocity": 80,
                "duration": 0.1636364,
                "tempo": 120.0
            },
            {
                "start_time": 43.7590909,
                "end_time": 43.925,
                "pitch": 44,
                "velocity": 80,
                "duration": 0.1659091,
                "tempo": 120.0
            },
            {
                "start_time": 43.925,
                "end_time": 44.2704545,
                "pitch": 48,
                "velocity": 80,
                "duration": 0.3454545,
                "tempo": 120.0
            },
            {
                "start_time": 44.2704545,
                "end_time": 44.4386364,
                "pitch": 41,
                "velocity": 80,
                "duration": 0.1681818,
                "tempo": 120.0
            },
            {
                "start_time": 44.4386364,
                "end_time": 44.6068182,
                "pitch": 44,
                "velocity": 80,
                "duration": 0.1681818,
                "tempo": 120.0
            },
            {
                "start_time": 44.6090909,
                "end_time": 44.7727273,
                "pitch": 48,
                "velocity": 80,
                "duration": 0.1636364,
                "tempo": 120.0
            },
            {
                "start_time": 44.775,
                "end_time": 44.9431818,
                "pitch": 44,
                "velocity": 80,
                "duration": 0.1681818,
                "tempo": 120.0
            },
            {
                "start_time": 44.9431818,
                "end_time": 45.0272727,
                "pitch": 41,
                "velocity": 80,
                "duration": 0.0840909,
                "tempo": 120.0
            },
            {
                "start_time": 45.1159091,
                "end_time": 45.2840909,
                "pitch": 36,
                "velocity": 80,
                "duration": 0.1681818,
                "tempo": 120.0
            },
            {
                "start_time": 45.2863636,
                "end_time": 45.4545455,
                "pitch": 41,
                "velocity": 80,
                "duration": 0.1681818,
                "tempo": 120.0
            },
            {
                "start_time": 45.4568182,
                "end_time": 45.6204545,
                "pitch": 44,
                "velocity": 80,
                "duration": 0.1636364,
                "tempo": 120.0
            },
            {
                "start_time": 45.6227273,
                "end_time": 45.9590909,
                "pitch": 48,
                "velocity": 80,
                "duration": 0.3363636,
                "tempo": 120.0
            },
            {
                "start_time": 45.9590909,
                "end_time": 46.1295455,
                "pitch": 41,
                "velocity": 80,
                "duration": 0.1704545,
                "tempo": 120.0
            },
            {
                "start_time": 46.1295455,
                "end_time": 46.3,
                "pitch": 44,
                "velocity": 80,
                "duration": 0.1704545,
                "tempo": 120.0
            },
            {
                "start_time": 46.3022727,
                "end_time": 46.6363636,
                "pitch": 48,
                "velocity": 80,
                "duration": 0.3340909,
                "tempo": 120.0
            },
            {
                "start_time": 46.6363636,
                "end_time": 46.8090909,
                "pitch": 41,
                "velocity": 80,
                "duration": 0.1727273,
                "tempo": 120.0
            },
            {
                "start_time": 46.8090909,
                "end_time": 46.9840909,
                "pitch": 44,
                "velocity": 80,
                "duration": 0.175,
                "tempo": 120.0
            },
            {
                "start_time": 46.9840909,
                "end_time": 47.15,
                "pitch": 48,
                "velocity": 80,
                "duration": 0.1659091,
                "tempo": 120.0
            },
            {
                "start_time": 47.15,
                "end_time": 47.4159091,
                "pitch": 44,
                "velocity": 80,
                "duration": 0.2659091,
                "tempo": 120.0
            }
        ],
        "Electric Piano 1": [
            {
                "start_time": 9.5363636,
                "end_time": 9.7,
                "pitch": 77,
                "velocity": 80,
                "duration": 0.1636364,
                "tempo": 120.0
            },
            {
                "start_time": 9.7022727,
                "end_time": 9.8681818,
                "pitch": 72,
                "velocity": 80,
                "duration": 0.1659091,
                "tempo": 120.0
            },
            {
                "start_time": 9.8681818,
                "end_time": 10.0363636,
                "pitch": 77,
                "velocity": 80,
                "duration": 0.1681818,
                "tempo": 120.0
            },
            {
                "start_time": 10.0363636,
                "end_time": 10.2068182,
                "pitch": 72,
                "velocity": 80,
                "duration": 0.1704545,
                "tempo": 120.0
            },
            {
                "start_time": 10.2090909,
                "end_time": 10.3795455,
                "pitch": 68,
                "velocity": 80,
                "duration": 0.1704545,
                "tempo": 120.0
            },
            {
                "start_time": 10.3818182,
                "end_time": 10.5522727,
                "pitch": 72,
                "velocity": 80,
                "duration": 0.1704545,
                "tempo": 120.0
            },
            {
                "start_time": 10.5545455,
                "end_time": 10.725,
                "pitch": 68,
                "velocity": 80,
                "duration": 0.1704545,
                "tempo": 120.0
            },
            {
                "start_time": 10.725,
                "end_time": 10.8863636,
                "pitch": 65,
                "velocity": 80,
                "duration": 0.1613636,
                "tempo": 120.0
            },
            {
                "start_time": 10.8886364,
                "end_time": 11.05,
                "pitch": 68,
                "velocity": 80,
                "duration": 0.1613636,
                "tempo": 120.0
            },
            {
                "start_time": 11.05,
                "end_time": 11.2227273,
                "pitch": 65,
                "velocity": 80,
                "duration": 0.1727273,
                "tempo": 120.0
            },
            {
                "start_time": 11.2227273,
                "end_time": 11.3931818,
                "pitch": 60,
                "velocity": 80,
                "duration": 0.1704545,
                "tempo": 120.0
            },
            {
                "start_time": 11.3954545,
                "end_time": 11.5613636,
                "pitch": 65,
                "velocity": 80,
                "duration": 0.1659091,
                "tempo": 120.0
            },
            {
                "start_time": 11.5636364,
                "end_time": 11.7295455,
                "pitch": 60,
                "velocity": 80,
                "duration": 0.1659091,
                "tempo": 120.0
            },
            {
                "start_time": 11.7295455,
                "end_time": 11.9022727,
                "pitch": 56,
                "velocity": 80,
                "duration": 0.1727273,
                "tempo": 120.0
            },
            {
                "start_time": 11.9045455,
                "end_time": 12.075,
                "pitch": 77,
                "velocity": 80,
                "duration": 0.1704545,
                "tempo": 120.0
            },
            {
                "start_time": 12.075,
                "end_time": 12.2409091,
                "pitch": 72,
                "velocity": 80,
                "duration": 0.1659091,
                "tempo": 120.0
            },
            {
                "start_time": 12.2431818,
                "end_time": 12.4090909,
                "pitch": 77,
                "velocity": 80,
                "duration": 0.1659091,
                "tempo": 120.0
            },
            {
                "start_time": 12.4113636,
                "end_time": 12.5818182,
                "pitch": 72,
                "velocity": 80,
                "duration": 0.1704545,
                "tempo": 120.0
            },
            {
                "start_time": 12.5840909,
                "end_time": 12.7545455,
                "pitch": 68,
                "velocity": 80,
                "duration": 0.1704545,
                "tempo": 120.0
            },
            {
                "start_time": 12.7545455,
                "end_time": 12.9227273,
                "pitch": 72,
                "velocity": 80,
                "duration": 0.1681818,
                "tempo": 120.0
            },
            {
                "start_time": 12.9227273,
                "end_time": 13.0886364,
                "pitch": 68,
                "velocity": 80,
                "duration": 0.1659091,
                "tempo": 120.0
            },
            {
                "start_time": 13.0909091,
                "end_time": 13.2613636,
                "pitch": 65,
                "velocity": 80,
                "duration": 0.1704545,
                "tempo": 120.0
            },
            {
                "start_time": 13.2636364,
                "end_time": 13.4340909,
                "pitch": 68,
                "velocity": 80,
                "duration": 0.1704545,
                "tempo": 120.0
            },
            {
                "start_time": 13.4363636,
                "end_time": 13.6022727,
                "pitch": 65,
                "velocity": 80,
                "duration": 0.1659091,
                "tempo": 120.0
            },
            {
                "start_time": 13.6022727,
                "end_time": 13.7704545,
                "pitch": 60,
                "velocity": 80,
                "duration": 0.1681818,
                "tempo": 120.0
            },
            {
                "start_time": 13.7704545,
                "end_time": 13.9363636,
                "pitch": 65,
                "velocity": 80,
                "duration": 0.1659091,
                "tempo": 120.0
            },
            {
                "start_time": 13.9386364,
                "end_time": 14.1045455,
                "pitch": 60,
                "velocity": 80,
                "duration": 0.1659091,
                "tempo": 120.0
            },
            {
                "start_time": 14.1068182,
                "end_time": 14.2727273,
                "pitch": 56,
                "velocity": 80,
                "duration": 0.1659091,
                "tempo": 120.0
            },
            {
                "start_time": 14.275,
                "end_time": 14.4409091,
                "pitch": 77,
                "velocity": 80,
                "duration": 0.1659091,
                "tempo": 120.0
            },
            {
                "start_time": 14.4409091,
                "end_time": 14.6136364,
                "pitch": 72,
                "velocity": 80,
                "duration": 0.1727273,
                "tempo": 120.0
            },
            {
                "start_time": 14.6136364,
                "end_time": 14.7840909,
                "pitch": 77,
                "velocity": 80,
                "duration": 0.1704545,
                "tempo": 120.0
            },
            {
                "start_time": 14.7863636,
                "end_time": 14.9522727,
                "pitch": 72,
                "velocity": 80,
                "duration": 0.1659091,
                "tempo": 120.0
            },
            {
                "start_time": 14.9545455,
                "end_time": 15.1204545,
                "pitch": 68,
                "velocity": 80,
                "duration": 0.1659091,
                "tempo": 120.0
            },
            {
                "start_time": 15.1227273,
                "end_time": 15.2931818,
                "pitch": 72,
                "velocity": 80,
                "duration": 0.1704545,
                "tempo": 120.0
            },
            {
                "start_time": 15.2931818,
                "end_time": 15.4659091,
                "pitch": 68,
                "velocity": 80,
                "duration": 0.1727273,
                "tempo": 120.0
            },
            {
                "start_time": 15.4659091,
                "end_time": 15.6318182,
                "pitch": 65,
                "velocity": 80,
                "duration": 0.1659091,
                "tempo": 120.0
            },
            {
                "start_time": 15.6340909,
                "end_time": 15.8,
                "pitch": 68,
                "velocity": 80,
                "duration": 0.1659091,
                "tempo": 120.0
            },
            {
                "start_time": 15.8022727,
                "end_time": 15.9727273,
                "pitch": 65,
                "velocity": 80,
                "duration": 0.1704545,
                "tempo": 120.0
            },
            {
                "start_time": 15.975,
                "end_time": 16.1454545,
                "pitch": 60,
                "velocity": 80,
                "duration": 0.1704545,
                "tempo": 120.0
            },
            {
                "start_time": 16.1454545,
                "end_time": 16.3136364,
                "pitch": 65,
                "velocity": 80,
                "duration": 0.1681818,
                "tempo": 120.0
            },
            {
                "start_time": 16.3136364,
                "end_time": 16.4818182,
                "pitch": 60,
                "velocity": 80,
                "duration": 0.1681818,
                "tempo": 120.0
            },
            {
                "start_time": 16.4818182,
                "end_time": 16.6477273,
                "pitch": 56,
                "velocity": 80,
                "duration": 0.1659091,
                "tempo": 120.0
            },
            {
                "start_time": 16.65,
                "end_time": 16.8159091,
                "pitch": 77,
                "velocity": 80,
                "duration": 0.1659091,
                "tempo": 120.0
            },
            {
                "start_time": 16.8181818,
                "end_time": 16.9840909,
                "pitch": 72,
                "velocity": 80,
                "duration": 0.1659091,
                "tempo": 120.0
            },
            {
                "start_time": 16.9840909,
                "end_time": 17.1522727,
                "pitch": 77,
                "velocity": 80,
                "duration": 0.1681818,
                "tempo": 120.0
            },
            {
                "start_time": 17.1522727,
                "end_time": 17.3227273,
                "pitch": 72,
                "velocity": 80,
                "duration": 0.1704545,
                "tempo": 120.0
            },
            {
                "start_time": 17.325,
                "end_time": 17.4954545,
                "pitch": 68,
                "velocity": 80,
                "duration": 0.1704545,
                "tempo": 120.0
            },
            {
                "start_time": 17.4977273,
                "end_time": 17.6636364,
                "pitch": 72,
                "velocity": 80,
                "duration": 0.1659091,
                "tempo": 120.0
            },
            {
                "start_time": 17.6659091,
                "end_time": 17.8318182,
                "pitch": 68,
                "velocity": 80,
                "duration": 0.1659091,
                "tempo": 120.0
            },
            {
                "start_time": 17.8318182,
                "end_time": 18.0045455,
                "pitch": 65,
                "velocity": 80,
                "duration": 0.1727273,
                "tempo": 120.0
            },
            {
                "start_time": 18.0045455,
                "end_time": 18.1772727,
                "pitch": 68,
                "velocity": 80,
                "duration": 0.1727273,
                "tempo": 120.0
            },
            {
                "start_time": 18.1772727,
                "end_time": 18.3431818,
                "pitch": 65,
                "velocity": 80,
                "duration": 0.1659091,
                "tempo": 120.0
            },
            {
                "start_time": 18.3454545,
                "end_time": 18.5113636,
                "pitch": 60,
                "velocity": 80,
                "duration": 0.1659091,
                "tempo": 120.0
            },
            {
                "start_time": 18.5136364,
                "end_time": 18.6840909,
                "pitch": 65,
                "velocity": 80,
                "duration": 0.1704545,
                "tempo": 120.0
            },
            {
                "start_time": 18.6840909,
                "end_time": 18.8568182,
                "pitch": 60,
                "velocity": 80,
                "duration": 0.1727273,
                "tempo": 120.0
            },
            {
                "start_time": 18.8568182,
                "end_time": 19.025,
                "pitch": 67,
                "velocity": 80,
                "duration": 0.1681818,
                "tempo": 120.0
            },
            {
                "start_time": 19.3613636,
                "end_time": 19.5272727,
                "pitch": 65,
                "velocity": 80,
                "duration": 0.1659091,
                "tempo": 120.0
            },
            {
                "start_time": 19.8636364,
                "end_time": 20.0340909,
                "pitch": 67,
                "velocity": 80,
                "duration": 0.1704545,
                "tempo": 120.0
            },
            {
                "start_time": 20.375,
                "end_time": 20.8863636,
                "pitch": 70,
                "velocity": 80,
                "duration": 0.5113636,
                "tempo": 120.0
            },
            {
                "start_time": 20.8886364,
                "end_time": 21.0545455,
                "pitch": 68,
                "velocity": 80,
                "duration": 0.1659091,
                "tempo": 120.0
            },
            {
                "start_time": 21.2227273,
                "end_time": 21.3909091,
                "pitch": 67,
                "velocity": 80,
                "duration": 0.1681818,
                "tempo": 120.0
            },
            {
                "start_time": 21.7318182,
                "end_time": 21.9022727,
                "pitch": 65,
                "velocity": 80,
                "duration": 0.1704545,
                "tempo": 120.0
            },
            {
                "start_time": 22.2386364,
                "end_time": 22.4113636,
                "pitch": 67,
                "velocity": 80,
                "duration": 0.1727273,
                "tempo": 120.0
            },
            {
                "start_time": 22.7522727,
                "end_time": 23.2545455,
                "pitch": 70,
                "velocity": 80,
                "duration": 0.5022727,
                "tempo": 120.0
            },
            {
                "start_time": 23.2545455,
                "end_time": 23.4204545,
                "pitch": 68,
                "velocity": 80,
                "duration": 0.1659091,
                "tempo": 120.0
            },
            {
                "start_time": 23.5909091,
                "end_time": 23.7613636,
                "pitch": 67,
                "velocity": 80,
                "duration": 0.1704545,
                "tempo": 120.0
            },
            {
                "start_time": 24.1022727,
                "end_time": 24.2681818,
                "pitch": 65,
                "velocity": 80,
                "duration": 0.1659091,
                "tempo": 120.0
            },
            {
                "start_time": 24.6159091,
                "end_time": 24.7863636,
                "pitch": 67,
                "velocity": 80,
                "duration": 0.1704545,
                "tempo": 120.0
            },
            {
                "start_time": 25.1227273,
                "end_time": 25.6272727,
                "pitch": 70,
                "velocity": 80,
                "duration": 0.5045455,
                "tempo": 120.0
            },
            {
                "start_time": 25.6295455,
                "end_time": 25.7954545,
                "pitch": 68,
                "velocity": 80,
                "duration": 0.1659091,
                "tempo": 120.0
            },
            {
                "start_time": 25.9636364,
                "end_time": 26.1363636,
                "pitch": 67,
                "velocity": 80,
                "duration": 0.1727273,
                "tempo": 120.0
            },
            {
                "start_time": 26.4772727,
                "end_time": 26.6431818,
                "pitch": 65,
                "velocity": 80,
                "duration": 0.1659091,
                "tempo": 120.0
            },
            {
                "start_time": 26.9795455,
                "end_time": 27.15,
                "pitch": 67,
                "velocity": 80,
                "duration": 0.1704545,
                "tempo": 120.0
            },
            {
                "start_time": 27.4909091,
                "end_time": 27.9931818,
                "pitch": 70,
                "velocity": 80,
                "duration": 0.5022727,
                "tempo": 120.0
            },
            {
                "start_time": 27.9954545,
                "end_time": 28.1659091,
                "pitch": 68,
                "velocity": 80,
                "duration": 0.1704545,
                "tempo": 120.0
            },
            {
                "start_time": 28.3386364,
                "end_time": 28.5068182,
                "pitch": 67,
                "velocity": 80,
                "duration": 0.1681818,
                "tempo": 120.0
            },
            {
                "start_time": 28.5090909,
                "end_time": 28.675,
                "pitch": 77,
                "velocity": 80,
                "duration": 0.1659091,
                "tempo": 120.0
            },
            {
                "start_time": 28.675,
                "end_time": 28.8409091,
                "pitch": 72,
                "velocity": 80,
                "duration": 0.1659091,
                "tempo": 120.0
            },
            {
                "start_time": 28.8431818,
                "end_time": 29.0090909,
                "pitch": 77,
                "velocity": 80,
                "duration": 0.1659091,
                "tempo": 120.0
            },
            {
                "start_time": 29.0113636,
                "end_time": 29.1818182,
                "pitch": 72,
                "velocity": 80,
                "duration": 0.1704545,
                "tempo": 120.0
            },
            {
                "start_time": 29.1818182,
                "end_time": 29.3545455,
                "pitch": 68,
                "velocity": 80,
                "duration": 0.1727273,
                "tempo": 120.0
            },
            {
                "start_time": 29.3545455,
                "end_time": 29.5227273,
                "pitch": 72,
                "velocity": 80,
                "duration": 0.1681818,
                "tempo": 120.0
            },
            {
                "start_time": 29.5227273,
                "end_time": 29.6886364,
                "pitch": 68,
                "velocity": 80,
                "duration": 0.1659091,
                "tempo": 120.0
            },
            {
                "start_time": 29.6909091,
                "end_time": 29.8613636,
                "pitch": 65,
                "velocity": 80,
                "duration": 0.1704545,
                "tempo": 120.0
            },
            {
                "start_time": 29.8636364,
                "end_time": 30.0340909,
                "pitch": 68,
                "velocity": 80,
                "duration": 0.1704545,
                "tempo": 120.0
            },
            {
                "start_time": 30.0340909,
                "end_time": 30.2022727,
                "pitch": 65,
                "velocity": 80,
                "duration": 0.1681818,
                "tempo": 120.0
            },
            {
                "start_time": 30.2022727,
                "end_time": 30.3704545,
                "pitch": 60,
                "velocity": 80,
                "duration": 0.1681818,
                "tempo": 120.0
            },
            {
                "start_time": 30.3704545,
                "end_time": 30.5363636,
                "pitch": 65,
                "velocity": 80,
                "duration": 0.1659091,
                "tempo": 120.0
            },
            {
                "start_time": 30.5386364,
                "end_time": 30.7045455,
                "pitch": 60,
                "velocity": 80,
                "duration": 0.1659091,
                "tempo": 120.0
            },
            {
                "start_time": 30.7068182,
                "end_time": 30.8772727,
                "pitch": 56,
                "velocity": 80,
                "duration": 0.1704545,
                "tempo": 120.0
            },
            {
                "start_time": 30.8795455,
                "end_time": 31.05,
                "pitch": 77,
                "velocity": 80,
                "duration": 0.1704545,
                "tempo": 120.0
            },
            {
                "start_time": 31.05,
                "end_time": 31.2181818,
                "pitch": 72,
                "velocity": 80,
                "duration": 0.1681818,
                "tempo": 120.0
            },
            {
                "start_time": 31.2181818,
                "end_time": 31.3840909,
                "pitch": 77,
                "velocity": 80,
                "duration": 0.1659091,
                "tempo": 120.0
            },
            {
                "start_time": 31.3863636,
                "end_time": 31.5568182,
                "pitch": 72,
                "velocity": 80,
                "duration": 0.1704545,
                "tempo": 120.0
            },
            {
                "start_time": 31.5590909,
                "end_time": 31.7295455,
                "pitch": 68,
                "velocity": 80,
                "duration": 0.1704545,
                "tempo": 120.0
            },
            {
                "start_time": 31.7318182,
                "end_time": 31.8977273,
                "pitch": 72,
                "velocity": 80,
                "duration": 0.1659091,
                "tempo": 120.0
            },
            {
                "start_time": 31.8977273,
                "end_time": 32.0659091,
                "pitch": 68,
                "velocity": 80,
                "duration": 0.1681818,
                "tempo": 120.0
            },
            {
                "start_time": 32.0659091,
                "end_time": 32.2318182,
                "pitch": 65,
                "velocity": 80,
                "duration": 0.1659091,
                "tempo": 120.0
            },
            {
                "start_time": 32.2340909,
                "end_time": 32.4,
                "pitch": 68,
                "velocity": 80,
                "duration": 0.1659091,
                "tempo": 120.0
            },
            {
                "start_time": 32.4022727,
                "end_time": 32.5727273,
                "pitch": 65,
                "velocity": 80,
                "duration": 0.1704545,
                "tempo": 120.0
            },
            {
                "start_time": 32.5727273,
                "end_time": 32.7454545,
                "pitch": 60,
                "velocity": 80,
                "duration": 0.1727273,
                "tempo": 120.0
            },
            {
                "start_time": 32.7454545,
                "end_time": 32.9136364,
                "pitch": 65,
                "velocity": 80,
                "duration": 0.1681818,
                "tempo": 120.0
            },
            {
                "start_time": 32.9136364,
                "end_time": 33.0795455,
                "pitch": 60,
                "velocity": 80,
                "duration": 0.1659091,
                "tempo": 120.0
            },
            {
                "start_time": 33.0818182,
                "end_time": 33.2477273,
                "pitch": 56,
                "velocity": 80,
                "duration": 0.1659091,
                "tempo": 120.0
            },
            {
                "start_time": 33.25,
                "end_time": 33.4159091,
                "pitch": 77,
                "velocity": 80,
                "duration": 0.1659091,
                "tempo": 120.0
            },
            {
                "start_time": 33.4159091,
                "end_time": 33.5886364,
                "pitch": 72,
                "velocity": 80,
                "duration": 0.1727273,
                "tempo": 120.0
            },
            {
                "start_time": 33.5886364,
                "end_time": 33.7613636,
                "pitch": 77,
                "velocity": 80,
                "duration": 0.1727273,
                "tempo": 120.0
            },
            {
                "start_time": 33.7613636,
                "end_time": 33.9272727,
                "pitch": 72,
                "velocity": 80,
                "duration": 0.1659091,
                "tempo": 120.0
            },
            {
                "start_time": 33.9295455,
                "end_time": 34.0954545,
                "pitch": 68,
                "velocity": 80,
                "duration": 0.1659091,
                "tempo": 120.0
            },
            {
                "start_time": 34.0977273,
                "end_time": 34.2681818,
                "pitch": 72,
                "velocity": 80,
                "duration": 0.1704545,
                "tempo": 120.0
            },
            {
                "start_time": 34.2704545,
                "end_time": 34.4409091,
                "pitch": 68,
                "velocity": 80,
                "duration": 0.1704545,
                "tempo": 120.0
            },
            {
                "start_time": 34.4409091,
                "end_time": 34.6090909,
                "pitch": 65,
                "velocity": 80,
                "duration": 0.1681818,
                "tempo": 120.0
            },
            {
                "start_time": 34.6090909,
                "end_time": 34.775,
                "pitch": 68,
                "velocity": 80,
                "duration": 0.1659091,
                "tempo": 120.0
            },
            {
                "start_time": 34.7772727,
                "end_time": 34.9477273,
                "pitch": 65,
                "velocity": 80,
                "duration": 0.1704545,
                "tempo": 120.0
            },
            {
                "start_time": 34.95,
                "end_time": 35.1204545,
                "pitch": 60,
                "velocity": 80,
                "duration": 0.1704545,
                "tempo": 120.0
            },
            {
                "start_time": 35.1227273,
                "end_time": 35.2886364,
                "pitch": 65,
                "velocity": 80,
                "duration": 0.1659091,
                "tempo": 120.0
            },
            {
                "start_time": 35.2886364,
                "end_time": 35.4568182,
                "pitch": 60,
                "velocity": 80,
                "duration": 0.1681818,
                "tempo": 120.0
            },
            {
                "start_time": 35.4568182,
                "end_time": 35.625,
                "pitch": 56,
                "velocity": 80,
                "duration": 0.1681818,
                "tempo": 120.0
            },
            {
                "start_time": 35.625,
                "end_time": 35.7909091,
                "pitch": 77,
                "velocity": 80,
                "duration": 0.1659091,
                "tempo": 120.0
            },
            {
                "start_time": 35.7931818,
                "end_time": 35.9590909,
                "pitch": 72,
                "velocity": 80,
                "duration": 0.1659091,
                "tempo": 120.0
            },
            {
                "start_time": 35.9590909,
                "end_time": 36.1272727,
                "pitch": 77,
                "velocity": 80,
                "duration": 0.1681818,
                "tempo": 120.0
            },
            {
                "start_time": 36.1272727,
                "end_time": 36.3,
                "pitch": 72,
                "velocity": 80,
                "duration": 0.1727273,
                "tempo": 120.0
            },
            {
                "start_time": 36.3,
                "end_time": 36.4704545,
                "pitch": 68,
                "velocity": 80,
                "duration": 0.1704545,
                "tempo": 120.0
            },
            {
                "start_time": 36.4727273,
                "end_time": 36.6431818,
                "pitch": 72,
                "velocity": 80,
                "duration": 0.1704545,
                "tempo": 120.0
            },
            {
                "start_time": 36.6454545,
                "end_time": 36.8159091,
                "pitch": 68,
                "velocity": 80,
                "duration": 0.1704545,
                "tempo": 120.0
            },
            {
                "start_time": 36.8181818,
                "end_time": 36.9840909,
                "pitch": 65,
                "velocity": 80,
                "duration": 0.1659091,
                "tempo": 120.0
            },
            {
                "start_time": 36.9863636,
                "end_time": 37.1522727,
                "pitch": 68,
                "velocity": 80,
                "duration": 0.1659091,
                "tempo": 120.0
            },
            {
                "start_time": 37.1522727,
                "end_time": 37.3204545,
                "pitch": 65,
                "velocity": 80,
                "duration": 0.1681818,
                "tempo": 120.0
            },
            {
                "start_time": 37.3204545,
                "end_time": 37.4863636,
                "pitch": 60,
                "velocity": 80,
                "duration": 0.1659091,
                "tempo": 120.0
            },
            {
                "start_time": 37.4886364,
                "end_time": 37.6590909,
                "pitch": 65,
                "velocity": 80,
                "duration": 0.1704545,
                "tempo": 120.0
            },
            {
                "start_time": 37.6613636,
                "end_time": 37.8318182,
                "pitch": 60,
                "velocity": 80,
                "duration": 0.1704545,
                "tempo": 120.0
            },
            {
                "start_time": 37.8340909,
                "end_time": 38.0,
                "pitch": 67,
                "velocity": 80,
                "duration": 0.1659091,
                "tempo": 120.0
            },
            {
                "start_time": 38.3363636,
                "end_time": 38.5022727,
                "pitch": 65,
                "velocity": 80,
                "duration": 0.1659091,
                "tempo": 120.0
            },
            {
                "start_time": 38.8386364,
                "end_time": 39.0113636,
                "pitch": 67,
                "velocity": 80,
                "duration": 0.1727273,
                "tempo": 120.0
            },
            {
                "start_time": 39.3522727,
                "end_time": 39.8636364,
                "pitch": 70,
                "velocity": 80,
                "duration": 0.5113636,
                "tempo": 120.0
            },
            {
                "start_time": 39.8636364,
                "end_time": 40.0295455,
                "pitch": 68,
                "velocity": 80,
                "duration": 0.1659091,
                "tempo": 120.0
            },
            {
                "start_time": 40.2,
                "end_time": 40.3659091,
                "pitch": 67,
                "velocity": 80,
                "duration": 0.1659091,
                "tempo": 120.0
            },
            {
                "start_time": 40.7068182,
                "end_time": 40.8772727,
                "pitch": 65,
                "velocity": 80,
                "duration": 0.1704545,
                "tempo": 120.0
            },
            {
                "start_time": 41.2159091,
                "end_time": 41.3863636,
                "pitch": 67,
                "velocity": 80,
                "duration": 0.1704545,
                "tempo": 120.0
            },
            {
                "start_time": 41.7272727,
                "end_time": 42.2295455,
                "pitch": 70,
                "velocity": 80,
                "duration": 0.5022727,
                "tempo": 120.0
            },
            {
                "start_time": 42.2295455,
                "end_time": 42.4022727,
                "pitch": 68,
                "velocity": 80,
                "duration": 0.1727273,
                "tempo": 120.0
            },
            {
                "start_time": 42.575,
                "end_time": 42.7409091,
                "pitch": 67,
                "velocity": 80,
                "duration": 0.1659091,
                "tempo": 120.0
            },
            {
                "start_time": 43.0818182,
                "end_time": 43.2545455,
                "pitch": 65,
                "velocity": 80,
                "duration": 0.1727273,
                "tempo": 120.0
            },
            {
                "start_time": 43.5909091,
                "end_time": 43.7568182,
                "pitch": 67,
                "velocity": 80,
                "duration": 0.1659091,
                "tempo": 120.0
            },
            {
                "start_time": 44.0977273,
                "end_time": 44.6045455,
                "pitch": 70,
                "velocity": 80,
                "duration": 0.5068182,
                "tempo": 120.0
            },
            {
                "start_time": 44.6068182,
                "end_time": 44.7727273,
                "pitch": 68,
                "velocity": 80,
                "duration": 0.1659091,
                "tempo": 120.0
            },
            {
                "start_time": 44.9409091,
                "end_time": 45.1136364,
                "pitch": 67,
                "velocity": 80,
                "duration": 0.1727273,
                "tempo": 120.0
            },
            {
                "start_time": 45.4545455,
                "end_time": 45.6204545,
                "pitch": 65,
                "velocity": 80,
                "duration": 0.1659091,
                "tempo": 120.0
            },
            {
                "start_time": 45.9568182,
                "end_time": 46.1272727,
                "pitch": 67,
                "velocity": 80,
                "duration": 0.1704545,
                "tempo": 120.0
            },
            {
                "start_time": 46.4681818,
                "end_time": 46.9795455,
                "pitch": 70,
                "velocity": 80,
                "duration": 0.5113636,
                "tempo": 120.0
            },
            {
                "start_time": 46.9818182,
                "end_time": 47.1477273,
                "pitch": 68,
                "velocity": 80,
                "duration": 0.1659091,
                "tempo": 120.0
            }
        ]
    }
}