{
    "mood": "angry",
    "instruments": {
        "Electric Piano 1": [
            {
                "start_time": 0.0863636,
                "end_time": 1.4,
                "pitch": 55,
                "velocity": 20,
                "duration": 1.3136364,
                "tempo": 120.0
            },
            {
                "start_time": 1.4318182,
                "end_time": 2.7613636,
                "pitch": 62,
                "velocity": 20,
                "duration": 1.3295455,
                "tempo": 120.0
            },
            {
                "start_time": 2.7795455,
                "end_time": 4.1181818,
                "pitch": 65,
                "velocity": 20,
                "duration": 1.3386364,
                "tempo": 120.0
            },
            {
                "start_time": 4.1522727,
                "end_time": 5.4818182,
                "pitch": 70,
                "velocity": 20,
                "duration": 1.3295455,
                "tempo": 120.0
            },
            {
                "start_time": 5.4977273,
                "end_time": 5.5659091,
                "pitch": 74,
                "velocity": 20,
                "duration": 0.0681818,
                "tempo": 120.0
            },
            {
                "start_time": 5.6659091,
                "end_time": 5.7318182,
                "pitch": 74,
                "velocity": 16,
                "duration": 0.0659091,
                "tempo": 120.0
            },
            {
                "start_time": 5.8522727,
                "end_time": 5.9045455,
                "pitch": 74,
                "velocity": 13,
                "duration": 0.0522727,
                "tempo": 120.0
            },
            {
                "start_time": 6.025,
                "end_time": 6.075,
                "pitch": 74,
                "velocity": 10,
                "duration": 0.05,
                "tempo": 120.0
            },
            {
                "start_time": 6.1931818,
                "end_time": 6.2409091,
                "pitch": 74,
                "velocity": 8,
                "duration": 0.0477273,
                "tempo": 120.0
            },
            {
                "start_time": 6.3545455,
                "end_time": 6.4045455,
                "pitch": 74,
                "velocity": 6,
                "duration": 0.05,
                "tempo": 120.0
            },
            {
                "start_time": 6.5204545,
                "end_time": 6.5863636,
                "pitch": 74,
                "velocity": 5,
                "duration": 0.0659091,
                "tempo": 120.0
            },
            {
                "start_time": 6.6863636,
                "end_time": 6.7545455,
                "pitch": 74,
                "velocity": 4,
                "duration": 0.0681818,
                "tempo": 120.0
            },
            {
                "start_time": 10.95,
                "end_time": 11.5977273,
                "pitch": 69,
                "velocity": 25,
                "duration": 0.6477273,
                "tempo": 120.0
            },
            {
                "start_time": 11.6159091,
                "end_time": 12.2681818,
                "pitch": 70,
                "velocity": 25,
                "duration": 0.6522727,
                "tempo": 120.0
            },
            {
                "start_time": 12.3022727,
                "end_time": 12.6181818,
                "pitch": 72,
                "velocity": 25,
                "duration": 0.3159091,
                "tempo": 120.0
            },
            {
                "start_time": 12.6340909,
                "end_time": 12.7795455,
                "pitch": 70,
                "velocity": 25,
                "duration": 0.1454545,
                "tempo": 120.0
            },
            {
                "start_time": 12.8136364,
                "end_time": 13.1181818,
                "pitch": 72,
                "velocity": 25,
                "duration": 0.3045455,
                "tempo": 120.0
            },
            {
                "start_time": 13.1522727,
                "end_time": 13.2886364,
                "pitch": 70,
                "velocity": 25,
                "duration": 0.1363636,
                "tempo": 120.0
            },
            {
                "start_time": 13.3227273,
                "end_time": 13.4727273,
                "pitch": 69,
                "velocity": 25,
                "duration": 0.15,
                "tempo": 120.0
            },
            {
                "start_time": 13.4909091,
                "end_time": 13.5909091,
                "pitch": 67,
                "velocity": 25,
                "duration": 0.1,
                "tempo": 120.0
            },
            {
                "start_time": 13.5909091,
                "end_time": 13.6386364,
                "pitch": 67,
                "velocity": 25,
                "duration": 0.0477273,
                "tempo": 120.0
            },
            {
                "start_time": 13.6727273,
                "end_time": 13.8022727,
                "pitch": 70,
                "velocity": 25,
                "duration": 0.1295455,
                "tempo": 120.0
            },
            {
                "start_time": 13.8340909,
                "end_time": 13.9659091,
                "pitch": 62,
                "velocity": 25,
                "duration": 0.1318182,
                "tempo": 120.0
            },
            {
                "start_time": 14.1727273,
                "end_time": 14.325,
                "pitch": 70,
                "velocity": 20,
                "duration": 0.1522727,
                "tempo": 120.0
            },
            {
                "start_time": 14.3409091,
                "end_time": 14.4886364,
                "pitch": 62,
                "velocity": 20,
                "duration": 0.1477273,
                "tempo": 120.0
            },
            {
                "start_time": 14.6863636,
                "end_time": 14.8204545,
                "pitch": 70,
                "velocity": 16,
                "duration": 0.1340909,
                "tempo": 120.0
            },
            {
                "start_time": 14.8522727,
                "end_time": 14.9886364,
                "pitch": 62,
                "velocity": 16,
                "duration": 0.1363636,
                "tempo": 120.0
            },
            {
                "start_time": 15.1954545,
                "end_time": 15.3454545,
                "pitch": 70,
                "velocity": 13,
                "duration": 0.15,
                "tempo": 120.0
            },
            {
                "start_time": 15.3613636,
                "end_time": 15.5090909,
                "pitch": 62,
                "velocity": 13,
                "duration": 0.1477273,
                "tempo": 120.0
            },
            {
                "start_time": 15.7068182,
                "end_time": 15.8409091,
                "pitch": 70,
                "velocity": 10,
                "duration": 0.1340909,
                "tempo": 120.0
            },
            {
                "start_time": 15.875,
                "end_time": 16.0090909,
                "pitch": 62,
                "velocity": 10,
                "duration": 0.1340909,
                "tempo": 120.0
            },
            {
                "start_time": 16.3840909,
                "end_time": 17.0363636,
                "pitch": 69,
                "velocity": 25,
                "duration": 0.6522727,
                "tempo": 120.0
            },
            {
                "start_time": 17.0704545,
                "end_time": 17.7159091,
                "pitch": 70,
                "velocity": 25,
                "duration": 0.6454545,
                "tempo": 120.0
            },
            {
                "start_time": 17.7522727,
                "end_time": 18.0590909,
                "pitch": 72,
                "velocity": 25,
                "duration": 0.3068182,
                "tempo": 120.0
            },
            {
                "start_time": 18.0909091,
                "end_time": 18.2204545,
                "pitch": 70,
                "velocity": 25,
                "duration": 0.1295455,
                "tempo": 120.0
            },
            {
                "start_time": 18.2545455,
                "end_time": 18.5681818,
                "pitch": 72,
                "velocity": 25,
                "duration": 0.3136364,
                "tempo": 120.0
            },
            {
                "start_time": 18.6022727,
                "end_time": 18.7386364,
                "pitch": 70,
                "velocity": 25,
                "duration": 0.1363636,
                "tempo": 120.0
            },
            {
                "start_time": 18.7727273,
                "end_time": 18.9113636,
                "pitch": 69,
                "velocity": 25,
                "duration": 0.1386364,
                "tempo": 120.0
            },
            {
                "start_time": 18.9454545,
                "end_time": 19.0477273,
                "pitch": 67,
                "velocity": 25,
                "duration": 0.1022727,
                "tempo": 120.0
            },
            {
                "start_time": 13.5909091,
                "end_time": 19.0477273,
                "pitch": 79,
                "velocity": 25,
                "duration": 5.4568182,
                "tempo": 120.0
            },
            {
                "start_time": 19.0477273,
                "end_time": 19.0795455,
                "pitch": 67,
                "velocity": 25,
                "duration": 0.0318182,
                "tempo": 120.0
            },
            {
                "start_time": 19.1113636,
                "end_time": 19.2431818,
                "pitch": 70,
                "velocity": 25,
                "duration": 0.1318182,
                "tempo": 120.0
            },
            {
                "start_time": 19.275,
                "end_time": 19.4227273,
                "pitch": 62,
                "velocity": 25,
                "duration": 0.1477273,
                "tempo": 120.0
            },
            {
                "start_time": 19.6181818,
                "end_time": 19.75,
                "pitch": 70,
                "velocity": 20,
                "duration": 0.1318182,
                "tempo": 120.0
            },
            {
                "start_time": 19.7840909,
                "end_time": 19.9227273,
                "pitch": 62,
                "velocity": 20,
                "duration": 0.1386364,
                "tempo": 120.0
            },
            {
                "start_time": 20.1272727,
                "end_time": 20.2772727,
                "pitch": 70,
                "velocity": 16,
                "duration": 0.15,
                "tempo": 120.0
            },
            {
                "start_time": 20.2931818,
                "end_time": 20.4431818,
                "pitch": 62,
                "velocity": 16,
                "duration": 0.15,
                "tempo": 120.0
            },
            {
                "start_time": 20.6386364,
                "end_time": 20.7704545,
                "pitch": 70,
                "velocity": 13,
                "duration": 0.1318182,
                "tempo": 120.0
            },
            {
                "start_time": 20.8045455,
                "end_time": 20.9431818,
                "pitch": 62,
                "velocity": 13,
                "duration": 0.1386364,
                "tempo": 120.0
            },
            {
                "start_time": 21.1477273,
                "end_time": 21.2977273,
                "pitch": 70,
                "velocity": 10,
                "duration": 0.15,
                "tempo": 120.0
            },
            {
                "start_time": 21.3159091,
                "end_time": 21.4636364,
                "pitch": 62,
                "velocity": 10,
                "duration": 0.1477273,
                "tempo": 120.0
            },
            {
                "start_time": 21.8272727,
                "end_time": 22.4863636,
                "pitch": 63,
                "velocity": 25,
                "duration": 0.6590909,
                "tempo": 120.0
            },
            {
                "start_time": 22.5022727,
                "end_time": 22.6,
                "pitch": 67,
                "velocity": 25,
                "duration": 0.0977273,
                "tempo": 120.0
            },
            {
                "start_time": 19.0477273,
                "end_time": 22.6,
                "pitch": 79,
                "velocity": 25,
                "duration": 3.5522727,
                "tempo": 120.0
            },
            {
                "start_time": 22.6,
                "end_time": 22.6795455,
                "pitch": 67,
                "velocity": 25,
                "duration": 0.0795455,
                "tempo": 120.0
            },
            {
                "start_time": 22.6795455,
                "end_time": 22.6818182,
                "pitch": 0,
                "velocity": 25,
                "duration": 0.0022727,
                "tempo": 120.0
            },
            {
                "start_time": 22.6818182,
                "end_time": 22.7954545,
                "pitch": 67,
                "velocity": 25,
                "duration": 0.1136364,
                "tempo": 120.0
            },
            {
                "start_time": 22.6,
                "end_time": 22.7954545,
                "pitch": 79,
                "velocity": 25,
                "duration": 0.1954545,
                "tempo": 120.0
            },
            {
                "start_time": 22.7954545,
                "end_time": 22.8818182,
                "pitch": 67,
                "velocity": 25,
                "duration": 0.0863636,
                "tempo": 120.0
            },
            {
                "start_time": 22.8818182,
                "end_time": 23.0022727,
                "pitch": 67,
                "velocity": 25,
                "duration": 0.1204545,
                "tempo": 120.0
            },
            {
                "start_time": 22.7954545,
                "end_time": 23.0022727,
                "pitch": 79,
                "velocity": 25,
                "duration": 0.2068182,
                "tempo": 120.0
            },
            {
                "start_time": 22.8818182,
                "end_time": 23.0886364,
                "pitch": 0,
                "velocity": 25,
                "duration": 0.2068182,
                "tempo": 120.0
            },
            {
                "start_time": 23.0022727,
                "end_time": 23.0886364,
                "pitch": 67,
                "velocity": 25,
                "duration": 0.0863636,
                "tempo": 120.0
            },
            {
                "start_time": 23.0886364,
                "end_time": 23.1545455,
                "pitch": 67,
                "velocity": 25,
                "duration": 0.0659091,
                "tempo": 120.0
            },
            {
                "start_time": 23.1886364,
                "end_time": 23.8340909,
                "pitch": 70,
                "velocity": 25,
                "duration": 0.6454545,
                "tempo": 120.0
            },
            {
                "start_time": 24.0340909,
                "end_time": 24.1340909,
                "pitch": 67,
                "velocity": 25,
                "duration": 0.1,
                "tempo": 120.0
            },
            {
                "start_time": 23.0022727,
                "end_time": 24.1340909,
                "pitch": 79,
                "velocity": 25,
                "duration": 1.1318182,
                "tempo": 120.0
            },
            {
                "start_time": 24.1340909,
                "end_time": 24.1681818,
                "pitch": 67,
                "velocity": 25,
                "duration": 0.0340909,
                "tempo": 120.0
            },
            {
                "start_time": 24.2022727,
                "end_time": 24.3522727,
                "pitch": 69,
                "velocity": 25,
                "duration": 0.15,
                "tempo": 120.0
            },
            {
                "start_time": 24.3681818,
                "end_time": 24.5204545,
                "pitch": 70,
                "velocity": 25,
                "duration": 0.1522727,
                "tempo": 120.0
            },
            {
                "start_time": 24.5545455,
                "end_time": 24.6863636,
                "pitch": 72,
                "velocity": 25,
                "duration": 0.1318182,
                "tempo": 120.0
            },
            {
                "start_time": 26.7636364,
                "end_time": 26.8977273,
                "pitch": 70,
                "velocity": 25,
                "duration": 0.1340909,
                "tempo": 120.0
            },
            {
                "start_time": 26.9295455,
                "end_time": 27.0636364,
                "pitch": 69,
                "velocity": 25,
                "duration": 0.1340909,
                "tempo": 120.0
            },
            {
                "start_time": 27.0977273,
                "end_time": 27.1977273,
                "pitch": 67,
                "velocity": 25,
                "duration": 0.1,
                "tempo": 120.0
            },
            {
                "start_time": 24.1340909,
                "end_time": 27.1977273,
                "pitch": 79,
                "velocity": 25,
                "duration": 3.0636364,
                "tempo": 120.0
            },
            {
                "start_time": 27.1977273,
                "end_time": 27.2477273,
                "pitch": 67,
                "velocity": 25,
                "duration": 0.05,
                "tempo": 120.0
            },
            {
                "start_time": 27.2659091,
                "end_time": 27.4159091,
                "pitch": 70,
                "velocity": 25,
                "duration": 0.15,
                "tempo": 120.0
            },
            {
                "start_time": 27.4318182,
                "end_time": 27.5340909,
                "pitch": 67,
                "velocity": 25,
                "duration": 0.1022727,
                "tempo": 120.0
            },
            {
                "start_time": 27.1977273,
                "end_time": 27.5340909,
                "pitch": 79,
                "velocity": 25,
                "duration": 0.3363636,
                "tempo": 120.0
            },
            {
                "start_time": 27.5340909,
                "end_time": 27.5840909,
                "pitch": 67,
                "velocity": 25,
                "duration": 0.05,
                "tempo": 120.0
            },
            {
                "start_time": 27.7909091,
                "end_time": 27.9272727,
                "pitch": 70,
                "velocity": 20,
                "duration": 0.1363636,
                "tempo": 120.0
            },
            {
                "start_time": 27.9590909,
                "end_time": 28.0568182,
                "pitch": 67,
                "velocity": 20,
                "duration": 0.0977273,
                "tempo": 120.0
            },
            {
                "start_time": 27.5340909,
                "end_time": 28.0568182,
                "pitch": 79,
                "velocity": 25,
                "duration": 0.5227273,
                "tempo": 120.0
            },
            {
                "start_time": 28.0568182,
                "end_time": 28.0886364,
                "pitch": 67,
                "velocity": 20,
                "duration": 0.0318182,
                "tempo": 120.0
            },
            {
                "start_time": 28.2840909,
                "end_time": 28.4295455,
                "pitch": 70,
                "velocity": 16,
                "duration": 0.1454545,
                "tempo": 120.0
            },
            {
                "start_time": 28.4477273,
                "end_time": 28.5454545,
                "pitch": 67,
                "velocity": 16,
                "duration": 0.0977273,
                "tempo": 120.0
            },
            {
                "start_time": 28.0568182,
                "end_time": 28.5454545,
                "pitch": 79,
                "velocity": 20,
                "duration": 0.4886364,
                "tempo": 120.0
            },
            {
                "start_time": 28.5454545,
                "end_time": 28.5954545,
                "pitch": 67,
                "velocity": 16,
                "duration": 0.05,
                "tempo": 120.0
            },
            {
                "start_time": 28.8022727,
                "end_time": 28.9386364,
                "pitch": 70,
                "velocity": 13,
                "duration": 0.1363636,
                "tempo": 120.0
            },
            {
                "start_time": 28.9727273,
                "end_time": 29.0727273,
                "pitch": 67,
                "velocity": 13,
                "duration": 0.1,
                "tempo": 120.0
            },
            {
                "start_time": 28.5454545,
                "end_time": 29.0727273,
                "pitch": 79,
                "velocity": 16,
                "duration": 0.5272727,
                "tempo": 120.0
            },
            {
                "start_time": 29.0727273,
                "end_time": 29.1068182,
                "pitch": 67,
                "velocity": 13,
                "duration": 0.0340909,
                "tempo": 120.0
            },
            {
                "start_time": 29.3045455,
                "end_time": 29.4522727,
                "pitch": 70,
                "velocity": 10,
                "duration": 0.1477273,
                "tempo": 120.0
            },
            {
                "start_time": 29.4840909,
                "end_time": 29.5818182,
                "pitch": 67,
                "velocity": 10,
                "duration": 0.0977273,
                "tempo": 120.0
            },
            {
                "start_time": 29.0727273,
                "end_time": 29.5818182,
                "pitch": 79,
                "velocity": 13,
                "duration": 0.5090909,
                "tempo": 120.0
            },
            {
                "start_time": 29.5818182,
                "end_time": 29.6181818,
                "pitch": 67,
                "velocity": 10,
                "duration": 0.0363636,
                "tempo": 120.0
            },
            {
                "start_time": 29.9954545,
                "end_time": 30.1454545,
                "pitch": 70,
                "velocity": 25,
                "duration": 0.15,
                "tempo": 120.0
            },
            {
                "start_time": 30.1613636,
                "end_time": 30.2613636,
                "pitch": 67,
                "velocity": 25,
                "duration": 0.1,
                "tempo": 120.0
            },
            {
                "start_time": 29.5818182,
                "end_time": 30.2613636,
                "pitch": 79,
                "velocity": 10,
                "duration": 0.6795455,
                "tempo": 120.0
            },
            {
                "start_time": 30.2613636,
                "end_time": 30.3113636,
                "pitch": 67,
                "velocity": 25,
                "duration": 0.05,
                "tempo": 120.0
            },
            {
                "start_time": 30.5068182,
                "end_time": 30.6386364,
                "pitch": 70,
                "velocity": 20,
                "duration": 0.1318182,
                "tempo": 120.0
            },
            {
                "start_time": 30.6727273,
                "end_time": 30.7772727,
                "pitch": 67,
                "velocity": 20,
                "duration": 0.1045455,
                "tempo": 120.0
            },
            {
                "start_time": 30.2613636,
                "end_time": 30.7772727,
                "pitch": 79,
                "velocity": 25,
                "duration": 0.5159091,
                "tempo": 120.0
            },
            {
                "start_time": 30.7772727,
                "end_time": 30.8113636,
                "pitch": 67,
                "velocity": 20,
                "duration": 0.0340909,
                "tempo": 120.0
            },
            {
                "start_time": 31.0136364,
                "end_time": 31.1590909,
                "pitch": 70,
                "velocity": 16,
                "duration": 0.1454545,
                "tempo": 120.0
            },
            {
                "start_time": 31.175,
                "end_time": 31.2727273,
                "pitch": 67,
                "velocity": 16,
                "duration": 0.0977273,
                "tempo": 120.0
            },
            {
                "start_time": 30.7772727,
                "end_time": 31.2727273,
                "pitch": 79,
                "velocity": 20,
                "duration": 0.4954545,
                "tempo": 120.0
            },
            {
                "start_time": 31.2727273,
                "end_time": 31.3227273,
                "pitch": 67,
                "velocity": 16,
                "duration": 0.05,
                "tempo": 120.0
            },
            {
                "start_time": 31.525,
                "end_time": 31.6590909,
                "pitch": 70,
                "velocity": 13,
                "duration": 0.1340909,
                "tempo": 120.0
            },
            {
                "start_time": 31.6931818,
                "end_time": 31.7977273,
                "pitch": 67,
                "velocity": 13,
                "duration": 0.1045455,
                "tempo": 120.0
            },
            {
                "start_time": 31.2727273,
                "end_time": 31.7977273,
                "pitch": 79,
                "velocity": 16,
                "duration": 0.525,
                "tempo": 120.0
            },
            {
                "start_time": 31.7977273,
                "end_time": 31.8318182,
                "pitch": 67,
                "velocity": 13,
                "duration": 0.0340909,
                "tempo": 120.0
            },
            {
                "start_time": 32.0340909,
                "end_time": 32.1795455,
                "pitch": 70,
                "velocity": 10,
                "duration": 0.1454545,
                "tempo": 120.0
            },
            {
                "start_time": 32.1977273,
                "end_time": 32.2954545,
                "pitch": 67,
                "velocity": 10,
                "duration": 0.0977273,
                "tempo": 120.0
            },
            {
                "start_time": 31.7977273,
                "end_time": 32.2954545,
                "pitch": 79,
                "velocity": 13,
                "duration": 0.4977273,
                "tempo": 120.0
            },
            {
                "start_time": 32.2954545,
                "end_time": 32.3431818,
                "pitch": 67,
                "velocity": 10,
                "duration": 0.0477273,
                "tempo": 120.0
            },
            {
                "start_time": 32.7068182,
                "end_time": 33.3659091,
                "pitch": 69,
                "velocity": 25,
                "duration": 0.6590909,
                "tempo": 120.0
            },
            {
                "start_time": 33.3840909,
                "end_time": 34.0363636,
                "pitch": 70,
                "velocity": 25,
                "duration": 0.6522727,
                "tempo": 120.0
            },
            {
                "start_time": 34.0704545,
                "end_time": 34.3863636,
                "pitch": 72,
                "velocity": 25,
                "duration": 0.3159091,
                "tempo": 120.0
            },
            {
                "start_time": 34.4181818,
                "end_time": 34.5477273,
                "pitch": 70,
                "velocity": 25,
                "duration": 0.1295455,
                "tempo": 120.0
            },
            {
                "start_time": 34.5818182,
                "end_time": 34.8863636,
                "pitch": 72,
                "velocity": 25,
                "duration": 0.3045455,
                "tempo": 120.0
            },
            {
                "start_time": 34.9204545,
                "end_time": 35.0704545,
                "pitch": 70,
                "velocity": 25,
                "duration": 0.15,
                "tempo": 120.0
            },
            {
                "start_time": 35.0886364,
                "end_time": 35.2340909,
                "pitch": 69,
                "velocity": 25,
                "duration": 0.1454545,
                "tempo": 120.0
            },
            {
                "start_time": 35.25,
                "end_time": 35.35,
                "pitch": 67,
                "velocity": 25,
                "duration": 0.1,
                "tempo": 120.0
            },
            {
                "start_time": 32.2954545,
                "end_time": 35.35,
                "pitch": 79,
                "velocity": 10,
                "duration": 3.0545455,
                "tempo": 120.0
            },
            {
                "start_time": 35.35,
                "end_time": 35.3977273,
                "pitch": 67,
                "velocity": 25,
                "duration": 0.0477273,
                "tempo": 120.0
            },
            {
                "start_time": 35.4318182,
                "end_time": 35.5659091,
                "pitch": 70,
                "velocity": 25,
                "duration": 0.1340909,
                "tempo": 120.0
            },
            {
                "start_time": 35.6,
                "end_time": 35.7340909,
                "pitch": 62,
                "velocity": 25,
                "duration": 0.1340909,
                "tempo": 120.0
            },
            {
                "start_time": 35.9409091,
                "end_time": 36.0931818,
                "pitch": 70,
                "velocity": 20,
                "duration": 0.1522727,
                "tempo": 120.0
            },
            {
                "start_time": 36.1090909,
                "end_time": 36.2568182,
                "pitch": 62,
                "velocity": 20,
                "duration": 0.1477273,
                "tempo": 120.0
            },
            {
                "start_time": 36.4545455,
                "end_time": 36.5886364,
                "pitch": 70,
                "velocity": 16,
                "duration": 0.1340909,
                "tempo": 120.0
            },
            {
                "start_time": 36.6204545,
                "end_time": 36.7545455,
                "pitch": 62,
                "velocity": 16,
                "duration": 0.1340909,
                "tempo": 120.0
            },
            {
                "start_time": 36.9568182,
                "end_time": 37.1068182,
                "pitch": 70,
                "velocity": 13,
                "duration": 0.15,
                "tempo": 120.0
            },
            {
                "start_time": 37.1227273,
                "end_time": 37.275,
                "pitch": 62,
                "velocity": 13,
                "duration": 0.1522727,
                "tempo": 120.0
            },
            {
                "start_time": 37.4772727,
                "end_time": 37.6159091,
                "pitch": 70,
                "velocity": 10,
                "duration": 0.1386364,
                "tempo": 120.0
            },
            {
                "start_time": 37.65,
                "end_time": 37.7840909,
                "pitch": 62,
                "velocity": 10,
                "duration": 0.1340909,
                "tempo": 120.0
            },
            {
                "start_time": 38.1454545,
                "end_time": 38.8045455,
                "pitch": 69,
                "velocity": 25,
                "duration": 0.6590909,
                "tempo": 120.0
            },
            {
                "start_time": 38.8386364,
                "end_time": 39.4840909,
                "pitch": 70,
                "velocity": 25,
                "duration": 0.6454545,
                "tempo": 120.0
            },
            {
                "start_time": 39.5204545,
                "end_time": 39.8272727,
                "pitch": 72,
                "velocity": 25,
                "duration": 0.3068182,
                "tempo": 120.0
            },
            {
                "start_time": 39.8590909,
                "end_time": 40.0045455,
                "pitch": 70,
                "velocity": 25,
                "duration": 0.1454545,
                "tempo": 120.0
            },
            {
                "start_time": 40.0227273,
                "end_time": 40.3363636,
                "pitch": 72,
                "velocity": 25,
                "duration": 0.3136364,
                "tempo": 120.0
            },
            {
                "start_time": 40.3704545,
                "end_time": 40.5045455,
                "pitch": 70,
                "velocity": 25,
                "duration": 0.1340909,
                "tempo": 120.0
            },
            {
                "start_time": 40.5386364,
                "end_time": 40.6727273,
                "pitch": 69,
                "velocity": 25,
                "duration": 0.1340909,
                "tempo": 120.0
            },
            {
                "start_time": 40.7068182,
                "end_time": 40.8068182,
                "pitch": 67,
                "velocity": 25,
                "duration": 0.1,
                "tempo": 120.0
            },
            {
                "start_time": 35.35,
                "end_time": 40.8068182,
                "pitch": 79,
                "velocity": 25,
                "duration": 5.4568182,
                "tempo": 120.0
            },
            {
                "start_time": 40.8068182,
                "end_time": 40.8409091,
                "pitch": 67,
                "velocity": 25,
                "duration": 0.0340909,
                "tempo": 120.0
            },
            {
                "start_time": 40.8727273,
                "end_time": 41.0227273,
                "pitch": 70,
                "velocity": 25,
                "duration": 0.15,
                "tempo": 120.0
            },
            {
                "start_time": 41.0409091,
                "end_time": 41.1886364,
                "pitch": 62,
                "velocity": 25,
                "duration": 0.1477273,
                "tempo": 120.0
            },
            {
                "start_time": 41.3840909,
                "end_time": 41.5181818,
                "pitch": 70,
                "velocity": 20,
                "duration": 0.1340909,
                "tempo": 120.0
            },
            {
                "start_time": 41.5522727,
                "end_time": 41.6886364,
                "pitch": 62,
                "velocity": 20,
                "duration": 0.1363636,
                "tempo": 120.0
            },
            {
                "start_time": 41.8954545,
                "end_time": 42.0454545,
                "pitch": 70,
                "velocity": 16,
                "duration": 0.15,
                "tempo": 120.0
            },
            {
                "start_time": 42.0613636,
                "end_time": 42.2113636,
                "pitch": 62,
                "velocity": 16,
                "duration": 0.15,
                "tempo": 120.0
            },
            {
                "start_time": 42.4068182,
                "end_time": 42.5386364,
                "pitch": 70,
                "velocity": 13,
                "duration": 0.1318182,
                "tempo": 120.0
            },
            {
                "start_time": 42.5727273,
                "end_time": 42.7113636,
                "pitch": 62,
                "velocity": 13,
                "duration": 0.1386364,
                "tempo": 120.0
            },
            {
                "start_time": 42.9136364,
                "end_time": 43.0590909,
                "pitch": 70,
                "velocity": 10,
                "duration": 0.1454545,
                "tempo": 120.0
            },
            {
                "start_time": 43.075,
                "end_time": 43.225,
                "pitch": 62,
                "velocity": 10,
                "duration": 0.15,
                "tempo": 120.0
            },
            {
                "start_time": 43.5954545,
                "end_time": 44.2454545,
                "pitch": 63,
                "velocity": 25,
                "duration": 0.65,
                "tempo": 120.0
            },
            {
                "start_time": 44.2795455,
                "end_time": 44.3795455,
                "pitch": 67,
                "velocity": 25,
                "duration": 0.1,
                "tempo": 120.0
            },
            {
                "start_time": 40.8068182,
                "end_time": 44.3795455,
                "pitch": 79,
                "velocity": 25,
                "duration": 3.5727273,
                "tempo": 120.0
            },
            {
                "start_time": 44.3795455,
                "end_time": 44.4613636,
                "pitch": 67,
                "velocity": 25,
                "duration": 0.0818182,
                "tempo": 120.0
            },
            {
                "start_time": 23.0886364,
                "end_time": 44.4636364,
                "pitch": 0,
                "velocity": 25,
                "duration": 21.375,
                "tempo": 120.0
            },
            {
                "start_time": 44.4613636,
                "end_time": 44.4636364,
                "pitch": 0,
                "velocity": 25,
                "duration": 0.0022727,
                "tempo": 120.0
            },
            {
                "start_time": 44.4636364,
                "end_time": 44.5818182,
                "pitch": 67,
                "velocity": 25,
                "duration": 0.1181818,
                "tempo": 120.0
            },
            {
                "start_time": 44.3795455,
                "end_time": 44.5818182,
                "pitch": 79,
                "velocity": 25,
                "duration": 0.2022727,
                "tempo": 120.0
            },
            {
                "start_time": 44.5818182,
                "end_time": 44.6681818,
                "pitch": 67,
                "velocity": 25,
                "duration": 0.0863636,
                "tempo": 120.0
            },
            {
                "start_time": 44.6681818,
                "end_time": 44.7886364,
                "pitch": 67,
                "velocity": 25,
                "duration": 0.1204545,
                "tempo": 120.0
            },
            {
                "start_time": 44.5818182,
                "end_time": 44.7886364,
                "pitch": 79,
                "velocity": 25,
                "duration": 0.2068182,
                "tempo": 120.0
            },
            {
                "start_time": 44.6681818,
                "end_time": 44.875,
                "pitch": 0,
                "velocity": 25,
                "duration": 0.2068182,
                "tempo": 120.0
            },
            {
                "start_time": 44.7886364,
                "end_time": 44.875,
                "pitch": 67,
                "velocity": 25,
                "duration": 0.0863636,
                "tempo": 120.0
            },
            {
                "start_time": 44.875,
                "end_time": 44.9227273,
                "pitch": 67,
                "velocity": 25,
                "duration": 0.0477273,
                "tempo": 120.0
            },
            {
                "start_time": 44.9545455,
                "end_time": 45.5931818,
                "pitch": 70,
                "velocity": 25,
                "duration": 0.6386364,
                "tempo": 120.0
            },
            {
                "start_time": 45.8,
                "end_time": 45.9022727,
                "pitch": 67,
                "velocity": 25,
                "duration": 0.1022727,
                "tempo": 120.0
            },
            {
                "start_time": 44.7886364,
                "end_time": 45.9022727,
                "pitch": 79,
                "velocity": 25,
                "duration": 1.1136364,
                "tempo": 120.0
            },
            {
                "start_time": 45.9022727,
                "end_time": 45.9522727,
                "pitch": 67,
                "velocity": 25,
                "duration": 0.05,
                "tempo": 120.0
            },
            {
                "start_time": 45.9704545,
                "end_time": 46.1204545,
                "pitch": 69,
                "velocity": 25,
                "duration": 0.15,
                "tempo": 120.0
            },
            {
                "start_time": 46.1363636,
                "end_time": 46.2886364,
                "pitch": 70,
                "velocity": 25,
                "duration": 0.1522727,
                "tempo": 120.0
            },
            {
                "start_time": 46.3227273,
                "end_time": 46.4545455,
                "pitch": 72,
                "velocity": 25,
                "duration": 0.1318182,
                "tempo": 120.0
            },
            {
                "start_time": 48.5295455,
                "end_time": 48.6659091,
                "pitch": 70,
                "velocity": 25,
                "duration": 0.1363636,
                "tempo": 120.0
            },
            {
                "start_time": 48.7,
                "end_time": 48.8340909,
                "pitch": 69,
                "velocity": 25,
                "duration": 0.1340909,
                "tempo": 120.0
            },
            {
                "start_time": 48.8659091,
                "end_time": 48.9659091,
                "pitch": 67,
                "velocity": 25,
                "duration": 0.1,
                "tempo": 120.0
            },
            {
                "start_time": 45.9022727,
                "end_time": 48.9659091,
                "pitch": 79,
                "velocity": 25,
                "duration": 3.0636364,
                "tempo": 120.0
            },
            {
                "start_time": 48.9659091,
                "end_time": 49.0159091,
                "pitch": 67,
                "velocity": 25,
                "duration": 0.05,
                "tempo": 120.0
            },
            {
                "start_time": 49.0318182,
                "end_time": 49.1772727,
                "pitch": 70,
                "velocity": 25,
                "duration": 0.1454545,
                "tempo": 120.0
            },
            {
                "start_time": 49.1954545,
                "end_time": 49.2931818,
                "pitch": 67,
                "velocity": 25,
                "duration": 0.0977273,
                "tempo": 120.0
            },
            {
                "start_time": 48.9659091,
                "end_time": 49.2931818,
                "pitch": 79,
                "velocity": 25,
                "duration": 0.3272727,
                "tempo": 120.0
            },
            {
                "start_time": 49.2931818,
                "end_time": 49.3431818,
                "pitch": 67,
                "velocity": 25,
                "duration": 0.05,
                "tempo": 120.0
            },
            {
                "start_time": 49.55,
                "end_time": 49.6840909,
                "pitch": 70,
                "velocity": 20,
                "duration": 0.1340909,
                "tempo": 120.0
            },
            {
                "start_time": 49.7181818,
                "end_time": 49.8159091,
                "pitch": 67,
                "velocity": 20,
                "duration": 0.0977273,
                "tempo": 120.0
            },
            {
                "start_time": 49.2931818,
                "end_time": 49.8159091,
                "pitch": 79,
                "velocity": 25,
                "duration": 0.5227273,
                "tempo": 120.0
            },
            {
                "start_time": 49.8159091,
                "end_time": 49.8477273,
                "pitch": 67,
                "velocity": 20,
                "duration": 0.0318182,
                "tempo": 120.0
            },
            {
                "start_time": 50.0454545,
                "end_time": 50.1954545,
                "pitch": 70,
                "velocity": 16,
                "duration": 0.15,
                "tempo": 120.0
            },
            {
                "start_time": 50.2295455,
                "end_time": 50.3295455,
                "pitch": 67,
                "velocity": 16,
                "duration": 0.1,
                "tempo": 120.0
            },
            {
                "start_time": 49.8159091,
                "end_time": 50.3295455,
                "pitch": 79,
                "velocity": 20,
                "duration": 0.5136364,
                "tempo": 120.0
            },
            {
                "start_time": 50.3295455,
                "end_time": 50.3636364,
                "pitch": 67,
                "velocity": 16,
                "duration": 0.0340909,
                "tempo": 120.0
            },
            {
                "start_time": 50.5704545,
                "end_time": 50.7068182,
                "pitch": 70,
                "velocity": 13,
                "duration": 0.1363636,
                "tempo": 120.0
            },
            {
                "start_time": 50.7386364,
                "end_time": 50.8363636,
                "pitch": 67,
                "velocity": 13,
                "duration": 0.0977273,
                "tempo": 120.0
            },
            {
                "start_time": 50.3295455,
                "end_time": 50.8363636,
                "pitch": 79,
                "velocity": 16,
                "duration": 0.5068182,
                "tempo": 120.0
            },
            {
                "start_time": 50.8363636,
                "end_time": 50.8863636,
                "pitch": 67,
                "velocity": 13,
                "duration": 0.05,
                "tempo": 120.0
            },
            {
                "start_time": 51.0659091,
                "end_time": 51.2159091,
                "pitch": 70,
                "velocity": 10,
                "duration": 0.15,
                "tempo": 120.0
            },
            {
                "start_time": 51.25,
                "end_time": 51.35,
                "pitch": 67,
                "velocity": 10,
                "duration": 0.1,
                "tempo": 120.0
            },
            {
                "start_time": 50.8363636,
                "end_time": 51.35,
                "pitch": 79,
                "velocity": 13,
                "duration": 0.5136364,
                "tempo": 120.0
            },
            {
                "start_time": 51.35,
                "end_time": 51.3863636,
                "pitch": 67,
                "velocity": 10,
                "duration": 0.0363636,
                "tempo": 120.0
            },
            {
                "start_time": 51.7613636,
                "end_time": 51.9068182,
                "pitch": 70,
                "velocity": 25,
                "duration": 0.1454545,
                "tempo": 120.0
            },
            {
                "start_time": 51.9227273,
                "end_time": 52.0204545,
                "pitch": 67,
                "velocity": 25,
                "duration": 0.0977273,
                "tempo": 120.0
            },
            {
                "start_time": 51.35,
                "end_time": 52.0204545,
                "pitch": 79,
                "velocity": 10,
                "duration": 0.6704545,
                "tempo": 120.0
            },
            {
                "start_time": 52.0204545,
                "end_time": 52.0704545,
                "pitch": 67,
                "velocity": 25,
                "duration": 0.05,
                "tempo": 120.0
            },
            {
                "start_time": 52.2727273,
                "end_time": 52.4068182,
                "pitch": 70,
                "velocity": 20,
                "duration": 0.1340909,
                "tempo": 120.0
            },
            {
                "start_time": 52.4386364,
                "end_time": 52.5386364,
                "pitch": 67,
                "velocity": 20,
                "duration": 0.1,
                "tempo": 120.0
            },
            {
                "start_time": 52.0204545,
                "end_time": 52.5386364,
                "pitch": 79,
                "velocity": 25,
                "duration": 0.5181818,
                "tempo": 120.0
            },
            {
                "start_time": 52.5386364,
                "end_time": 52.5727273,
                "pitch": 67,
                "velocity": 20,
                "duration": 0.0340909,
                "tempo": 120.0
            },
            {
                "start_time": 52.775,
                "end_time": 52.925,
                "pitch": 70,
                "velocity": 16,
                "duration": 0.15,
                "tempo": 120.0
            },
            {
                "start_time": 52.9409091,
                "end_time": 53.0409091,
                "pitch": 67,
                "velocity": 16,
                "duration": 0.1,
                "tempo": 120.0
            },
            {
                "start_time": 52.5386364,
                "end_time": 53.0409091,
                "pitch": 79,
                "velocity": 20,
                "duration": 0.5022727,
                "tempo": 120.0
            },
            {
                "start_time": 53.0409091,
                "end_time": 53.0909091,
                "pitch": 67,
                "velocity": 16,
                "duration": 0.05,
                "tempo": 120.0
            },
            {
                "start_time": 53.2931818,
                "end_time": 53.4272727,
                "pitch": 70,
                "velocity": 13,
                "duration": 0.1340909,
                "tempo": 120.0
            },
            {
                "start_time": 53.4590909,
                "end_time": 53.5613636,
                "pitch": 67,
                "velocity": 13,
                "duration": 0.1022727,
                "tempo": 120.0
            },
            {
                "start_time": 53.0409091,
                "end_time": 53.5613636,
                "pitch": 79,
                "velocity": 16,
                "duration": 0.5204545,
                "tempo": 120.0
            },
            {
                "start_time": 53.5613636,
                "end_time": 53.5931818,
                "pitch": 67,
                "velocity": 13,
                "duration": 0.0318182,
                "tempo": 120.0
            },
            {
                "start_time": 53.7954545,
                "end_time": 53.9454545,
                "pitch": 70,
                "velocity": 10,
                "duration": 0.15,
                "tempo": 120.0
            },
            {
                "start_time": 53.9613636,
                "end_time": 54.0613636,
                "pitch": 67,
                "velocity": 10,
                "duration": 0.1,
                "tempo": 120.0
            },
            {
                "start_time": 53.5613636,
                "end_time": 54.0613636,
                "pitch": 79,
                "velocity": 13,
                "duration": 0.5,
                "tempo": 120.0
            },
            {
                "start_time": 54.0613636,
                "end_time": 54.1113636,
                "pitch": 67,
                "velocity": 10,
                "duration": 0.05,
                "tempo": 120.0
            },
            {
                "start_time": 54.475,
                "end_time": 55.1318182,
                "pitch": 63,
                "velocity": 25,
                "duration": 0.6568182,
                "tempo": 120.0
            },
            {
                "start_time": 55.1659091,
                "end_time": 55.2613636,
                "pitch": 67,
                "velocity": 25,
                "duration": 0.0954545,
                "tempo": 120.0
            },
            {
                "start_time": 54.0613636,
                "end_time": 55.2613636,
                "pitch": 79,
                "velocity": 10,
                "duration": 1.2,
                "tempo": 120.0
            },
            {
                "start_time": 44.875,
                "end_time": 55.3431818,
                "pitch": 0,
                "velocity": 25,
                "duration": 10.4681818,
                "tempo": 120.0
            },
            {
                "start_time": 55.2613636,
                "end_time": 55.3431818,
                "pitch": 67,
                "velocity": 25,
                "duration": 0.0818182,
                "tempo": 120.0
            },
            {
                "start_time": 55.3431818,
                "end_time": 55.4613636,
                "pitch": 67,
                "velocity": 25,
                "duration": 0.1181818,
                "tempo": 120.0
            },
            {
                "start_time": 55.2613636,
                "end_time": 55.4613636,
                "pitch": 79,
                "velocity": 25,
                "duration": 0.2,
                "tempo": 120.0
            },
            {
                "start_time": 55.4613636,
                "end_time": 55.5454545,
                "pitch": 67,
                "velocity": 25,
                "duration": 0.0840909,
                "tempo": 120.0
            },
            {
                "start_time": 55.3431818,
                "end_time": 55.5477273,
                "pitch": 0,
                "velocity": 25,
                "duration": 0.2045455,
                "tempo": 120.0
            },
            {
                "start_time": 55.5454545,
                "end_time": 55.5477273,
                "pitch": 0,
                "velocity": 25,
                "duration": 0.0022727,
                "tempo": 120.0
            },
            {
                "start_time": 55.5477273,
                "end_time": 55.6659091,
                "pitch": 67,
                "velocity": 25,
                "duration": 0.1181818,
                "tempo": 120.0
            },
            {
                "start_time": 55.4613636,
                "end_time": 55.6681818,
                "pitch": 79,
                "velocity": 25,
                "duration": 0.2068182,
                "tempo": 120.0
            },
            {
                "start_time": 55.6659091,
                "end_time": 55.6681818,
                "pitch": 79,
                "velocity": 25,
                "duration": 0.0022727,
                "tempo": 120.0
            },
            {
                "start_time": 55.6681818,
                "end_time": 55.7545455,
                "pitch": 67,
                "velocity": 25,
                "duration": 0.0863636,
                "tempo": 120.0
            },
            {
                "start_time": 55.7545455,
                "end_time": 55.8204545,
                "pitch": 67,
                "velocity": 25,
                "duration": 0.0659091,
                "tempo": 120.0
            },
            {
                "start_time": 55.8363636,
                "end_time": 56.4818182,
                "pitch": 70,
                "velocity": 25,
                "duration": 0.6454545,
                "tempo": 120.0
            },
            {
                "start_time": 56.5159091,
                "end_time": 56.6545455,
                "pitch": 69,
                "velocity": 25,
                "duration": 0.1386364,
                "tempo": 120.0
            },
            {
                "start_time": 56.6886364,
                "end_time": 56.8386364,
                "pitch": 70,
                "velocity": 25,
                "duration": 0.15,
                "tempo": 120.0
            },
            {
                "start_time": 56.8568182,
                "end_time": 57.0022727,
                "pitch": 72,
                "velocity": 25,
                "duration": 0.1454545,
                "tempo": 120.0
            },
            {
                "start_time": 57.0181818,
                "end_time": 57.1181818,
                "pitch": 67,
                "velocity": 25,
                "duration": 0.1,
                "tempo": 120.0
            },
            {
                "start_time": 57.1181818,
                "end_time": 57.1681818,
                "pitch": 67,
                "velocity": 25,
                "duration": 0.05,
                "tempo": 120.0
            },
            {
                "start_time": 57.2022727,
                "end_time": 58.5295455,
                "pitch": 69,
                "velocity": 25,
                "duration": 1.3272727,
                "tempo": 120.0
            },
            {
                "start_time": 59.4159091,
                "end_time": 59.5522727,
                "pitch": 69,
                "velocity": 25,
                "duration": 0.1363636,
                "tempo": 120.0
            },
            {
                "start_time": 59.5840909,
                "end_time": 59.7159091,
                "pitch": 68,
                "velocity": 25,
                "duration": 0.1318182,
                "tempo": 120.0
            },
            {
                "start_time": 59.7477273,
                "end_time": 59.8454545,
                "pitch": 67,
                "velocity": 25,
                "duration": 0.0977273,
                "tempo": 120.0
            },
            {
                "start_time": 57.1181818,
                "end_time": 59.8454545,
                "pitch": 79,
                "velocity": 25,
                "duration": 2.7272727,
                "tempo": 120.0
            },
            {
                "start_time": 59.8454545,
                "end_time": 59.8954545,
                "pitch": 67,
                "velocity": 25,
                "duration": 0.05,
                "tempo": 120.0
            },
            {
                "start_time": 59.9136364,
                "end_time": 61.2431818,
                "pitch": 66,
                "velocity": 25,
                "duration": 1.3295455,
                "tempo": 120.0
            },
            {
                "start_time": 61.45,
                "end_time": 61.5863636,
                "pitch": 62,
                "velocity": 25,
                "duration": 0.1363636,
                "tempo": 120.0
            },
            {
                "start_time": 61.6204545,
                "end_time": 61.7704545,
                "pitch": 63,
                "velocity": 25,
                "duration": 0.15,
                "tempo": 120.0
            },
            {
                "start_time": 61.7886364,
                "end_time": 61.9363636,
                "pitch": 66,
                "velocity": 25,
                "duration": 0.1477273,
                "tempo": 120.0
            },
            {
                "start_time": 62.1318182,
                "end_time": 62.2659091,
                "pitch": 72,
                "velocity": 25,
                "duration": 0.1340909,
                "tempo": 120.0
            },
            {
                "start_time": 62.3,
                "end_time": 62.4363636,
                "pitch": 70,
                "velocity": 25,
                "duration": 0.1363636,
                "tempo": 120.0
            },
            {
                "start_time": 62.4704545,
                "end_time": 62.6090909,
                "pitch": 69,
                "velocity": 25,
                "duration": 0.1386364,
                "tempo": 120.0
            },
            {
                "start_time": 62.6409091,
                "end_time": 62.7909091,
                "pitch": 69,
                "velocity": 25,
                "duration": 0.15,
                "tempo": 120.0
            },
            {
                "start_time": 62.8090909,
                "end_time": 62.9568182,
                "pitch": 70,
                "velocity": 25,
                "duration": 0.1477273,
                "tempo": 120.0
            },
            {
                "start_time": 63.1522727,
                "end_time": 63.2522727,
                "pitch": 67,
                "velocity": 25,
                "duration": 0.1,
                "tempo": 120.0
            },
            {
                "start_time": 59.8454545,
                "end_time": 63.2522727,
                "pitch": 79,
                "velocity": 25,
                "duration": 3.4068182,
                "tempo": 120.0
            },
            {
                "start_time": 55.7545455,
                "end_time": 63.3363636,
                "pitch": 0,
                "velocity": 25,
                "duration": 7.5818182,
                "tempo": 120.0
            },
            {
                "start_time": 63.2522727,
                "end_time": 63.3363636,
                "pitch": 67,
                "velocity": 25,
                "duration": 0.0840909,
                "tempo": 120.0
            },
            {
                "start_time": 63.3363636,
                "end_time": 63.4590909,
                "pitch": 67,
                "velocity": 25,
                "duration": 0.1227273,
                "tempo": 120.0
            },
            {
                "start_time": 63.2522727,
                "end_time": 63.4590909,
                "pitch": 79,
                "velocity": 25,
                "duration": 0.2068182,
                "tempo": 120.0
            },
            {
                "start_time": 63.4590909,
                "end_time": 63.5431818,
                "pitch": 67,
                "velocity": 25,
                "duration": 0.0840909,
                "tempo": 120.0
            },
            {
                "start_time": 63.3363636,
                "end_time": 63.5454545,
                "pitch": 0,
                "velocity": 25,
                "duration": 0.2090909,
                "tempo": 120.0
            },
            {
                "start_time": 63.5431818,
                "end_time": 63.5454545,
                "pitch": 0,
                "velocity": 25,
                "duration": 0.0022727,
                "tempo": 120.0
            },
            {
                "start_time": 63.5454545,
                "end_time": 63.6613636,
                "pitch": 67,
                "velocity": 25,
                "duration": 0.1159091,
                "tempo": 120.0
            },
            {
                "start_time": 63.4590909,
                "end_time": 63.6613636,
                "pitch": 79,
                "velocity": 25,
                "duration": 0.2022727,
                "tempo": 120.0
            },
            {
                "start_time": 63.6613636,
                "end_time": 63.7409091,
                "pitch": 67,
                "velocity": 25,
                "duration": 0.0795455,
                "tempo": 120.0
            },
            {
                "start_time": 63.7409091,
                "end_time": 63.8545455,
                "pitch": 67,
                "velocity": 25,
                "duration": 0.1136364,
                "tempo": 120.0
            },
            {
                "start_time": 63.6613636,
                "end_time": 63.8545455,
                "pitch": 79,
                "velocity": 25,
                "duration": 0.1931818,
                "tempo": 120.0
            },
            {
                "start_time": 63.7409091,
                "end_time": 63.9386364,
                "pitch": 0,
                "velocity": 25,
                "duration": 0.1977273,
                "tempo": 120.0
            },
            {
                "start_time": 63.8545455,
                "end_time": 63.9386364,
                "pitch": 67,
                "velocity": 25,
                "duration": 0.0840909,
                "tempo": 120.0
            },
            {
                "start_time": 63.9386364,
                "end_time": 63.9704545,
                "pitch": 67,
                "velocity": 25,
                "duration": 0.0318182,
                "tempo": 120.0
            },
            {
                "start_time": 63.9886364,
                "end_time": 65.3272727,
                "pitch": 62,
                "velocity": 25,
                "duration": 1.3386364,
                "tempo": 120.0
            },
            {
                "start_time": 65.3613636,
                "end_time": 66.0113636,
                "pitch": 63,
                "velocity": 25,
                "duration": 0.65,
                "tempo": 120.0
            },
            {
                "start_time": 66.0431818,
                "end_time": 66.1409091,
                "pitch": 67,
                "velocity": 25,
                "duration": 0.0977273,
                "tempo": 120.0
            },
            {
                "start_time": 63.8545455,
                "end_time": 66.1409091,
                "pitch": 79,
                "velocity": 25,
                "duration": 2.2863636,
                "tempo": 120.0
            },
            {
                "start_time": 63.9386364,
                "end_time": 66.2227273,
                "pitch": 0,
                "velocity": 25,
                "duration": 2.2840909,
                "tempo": 120.0
            },
            {
                "start_time": 66.1409091,
                "end_time": 66.2227273,
                "pitch": 67,
                "velocity": 25,
                "duration": 0.0818182,
                "tempo": 120.0
            },
            {
                "start_time": 66.2227273,
                "end_time": 66.3386364,
                "pitch": 67,
                "velocity": 25,
                "duration": 0.1159091,
                "tempo": 120.0
            },
            {
                "start_time": 66.1409091,
                "end_time": 66.3386364,
                "pitch": 79,
                "velocity": 25,
                "duration": 0.1977273,
                "tempo": 120.0
            },
            {
                "start_time": 66.2227273,
                "end_time": 66.425,
                "pitch": 0,
                "velocity": 25,
                "duration": 0.2022727,
                "tempo": 120.0
            },
            {
                "start_time": 66.3386364,
                "end_time": 66.425,
                "pitch": 67,
                "velocity": 25,
                "duration": 0.0863636,
                "tempo": 120.0
            },
            {
                "start_time": 66.425,
                "end_time": 66.5454545,
                "pitch": 67,
                "velocity": 25,
                "duration": 0.1204545,
                "tempo": 120.0
            },
            {
                "start_time": 66.3386364,
                "end_time": 66.5454545,
                "pitch": 79,
                "velocity": 25,
                "duration": 0.2068182,
                "tempo": 120.0
            },
            {
                "start_time": 66.425,
                "end_time": 66.6340909,
                "pitch": 0,
                "velocity": 25,
                "duration": 0.2090909,
                "tempo": 120.0
            },
            {
                "start_time": 66.5454545,
                "end_time": 66.6340909,
                "pitch": 67,
                "velocity": 25,
                "duration": 0.0886364,
                "tempo": 120.0
            },
            {
                "start_time": 66.6340909,
                "end_time": 66.7,
                "pitch": 67,
                "velocity": 25,
                "duration": 0.0659091,
                "tempo": 120.0
            },
            {
                "start_time": 66.7159091,
                "end_time": 67.3613636,
                "pitch": 70,
                "velocity": 25,
                "duration": 0.6454545,
                "tempo": 120.0
            },
            {
                "start_time": 67.5681818,
                "end_time": 67.6704545,
                "pitch": 67,
                "velocity": 25,
                "duration": 0.1022727,
                "tempo": 120.0
            },
            {
                "start_time": 66.5454545,
                "end_time": 67.6704545,
                "pitch": 79,
                "velocity": 25,
                "duration": 1.125,
                "tempo": 120.0
            },
            {
                "start_time": 67.6704545,
                "end_time": 67.7204545,
                "pitch": 67,
                "velocity": 25,
                "duration": 0.05,
                "tempo": 120.0
            },
            {
                "start_time": 67.7386364,
                "end_time": 67.8886364,
                "pitch": 69,
                "velocity": 25,
                "duration": 0.15,
                "tempo": 120.0
            },
            {
                "start_time": 67.9045455,
                "end_time": 68.0568182,
                "pitch": 70,
                "velocity": 25,
                "duration": 0.1522727,
                "tempo": 120.0
            },
            {
                "start_time": 68.0909091,
                "end_time": 68.2295455,
                "pitch": 72,
                "velocity": 25,
                "duration": 0.1386364,
                "tempo": 120.0
            },
            {
                "start_time": 70.2954545,
                "end_time": 70.4340909,
                "pitch": 69,
                "velocity": 25,
                "duration": 0.1386364,
                "tempo": 120.0
            },
            {
                "start_time": 70.4659091,
                "end_time": 70.6,
                "pitch": 70,
                "velocity": 25,
                "duration": 0.1340909,
                "tempo": 120.0
            },
            {
                "start_time": 70.6340909,
                "end_time": 70.7818182,
                "pitch": 72,
                "velocity": 25,
                "duration": 0.1477273,
                "tempo": 120.0
            },
            {
                "start_time": 70.8,
                "end_time": 74.8568182,
                "pitch": 74,
                "velocity": 25,
                "duration": 4.0568182,
                "tempo": 120.0
            }
        ],
        "Church Organ": [
            {
                "start_time": 0.0068182,
                "end_time": 1.3159091,
                "pitch": 50,
                "velocity": 64,
                "duration": 1.3090909,
                "tempo": 120.0
            },
            {
                "start_time": 1.35,
                "end_time": 2.6795455,
                "pitch": 57,
                "velocity": 64,
                "duration": 1.3295455,
                "tempo": 120.0
            },
            {
                "start_time": 2.6954545,
                "end_time": 4.0340909,
                "pitch": 60,
                "velocity": 64,
                "duration": 1.3386364,
                "tempo": 120.0
            },
            {
                "start_time": 4.0681818,
                "end_time": 5.3795455,
                "pitch": 65,
                "velocity": 64,
                "duration": 1.3113636,
                "tempo": 120.0
            },
            {
                "start_time": 5.4136364,
                "end_time": 5.4818182,
                "pitch": 69,
                "velocity": 64,
                "duration": 0.0681818,
                "tempo": 120.0
            },
            {
                "start_time": 5.5818182,
                "end_time": 5.6477273,
                "pitch": 69,
                "velocity": 51,
                "duration": 0.0659091,
                "tempo": 120.0
            },
            {
                "start_time": 5.7659091,
                "end_time": 5.8159091,
                "pitch": 69,
                "velocity": 40,
                "duration": 0.05,
                "tempo": 120.0
            },
            {
                "start_time": 5.9386364,
                "end_time": 5.9886364,
                "pitch": 69,
                "velocity": 32,
                "duration": 0.05,
                "tempo": 120.0
            },
            {
                "start_time": 6.1113636,
                "end_time": 6.1590909,
                "pitch": 69,
                "velocity": 25,
                "duration": 0.0477273,
                "tempo": 120.0
            },
            {
                "start_time": 6.2727273,
                "end_time": 6.3204545,
                "pitch": 69,
                "velocity": 20,
                "duration": 0.0477273,
                "tempo": 120.0
            },
            {
                "start_time": 6.4363636,
                "end_time": 6.5022727,
                "pitch": 69,
                "velocity": 16,
                "duration": 0.0659091,
                "tempo": 120.0
            },
            {
                "start_time": 6.6022727,
                "end_time": 6.6681818,
                "pitch": 69,
                "velocity": 13,
                "duration": 0.0659091,
                "tempo": 120.0
            }
        ],
        "Vibraphone": [
            {
                "start_time": 10.5113636,
                "end_time": 10.5772727,
                "pitch": 67,
                "velocity": 80,
                "duration": 0.0659091,
                "tempo": 120.0
            },
            {
                "start_time": 10.5931818,
                "end_time": 10.6590909,
                "pitch": 70,
                "velocity": 80,
                "duration": 0.0659091,
                "tempo": 120.0
            },
            {
                "start_time": 10.6772727,
                "end_time": 10.7431818,
                "pitch": 74,
                "velocity": 80,
                "duration": 0.0659091,
                "tempo": 120.0
            },
            {
                "start_time": 10.7772727,
                "end_time": 10.8272727,
                "pitch": 79,
                "velocity": 80,
                "duration": 0.05,
                "tempo": 120.0
            },
            {
                "start_time": 10.8636364,
                "end_time": 10.9136364,
                "pitch": 67,
                "velocity": 80,
                "duration": 0.05,
                "tempo": 120.0
            },
            {
                "start_time": 10.9477273,
                "end_time": 10.9977273,
                "pitch": 70,
                "velocity": 80,
                "duration": 0.05,
                "tempo": 120.0
            },
            {
                "start_time": 11.0340909,
                "end_time": 11.0840909,
                "pitch": 74,
                "velocity": 80,
                "duration": 0.05,
                "tempo": 120.0
            },
            {
                "start_time": 11.1204545,
                "end_time": 11.1704545,
                "pitch": 79,
                "velocity": 80,
                "duration": 0.05,
                "tempo": 120.0
            },
            {
                "start_time": 15.9568182,
                "end_time": 16.0090909,
                "pitch": 67,
                "velocity": 80,
                "duration": 0.0522727,
                "tempo": 120.0
            },
            {
                "start_time": 16.0431818,
                "end_time": 16.0954545,
                "pitch": 70,
                "velocity": 80,
                "duration": 0.0522727,
                "tempo": 120.0
            },
            {
                "start_time": 16.1295455,
                "end_time": 16.1818182,
                "pitch": 74,
                "velocity": 80,
                "duration": 0.0522727,
                "tempo": 120.0
            },
            {
                "start_time": 16.2159091,
                "end_time": 16.2681818,
                "pitch": 79,
                "velocity": 80,
                "duration": 0.0522727,
                "tempo": 120.0
            },
            {
                "start_time": 16.3022727,
                "end_time": 16.3659091,
                "pitch": 67,
                "velocity": 80,
                "duration": 0.0636364,
                "tempo": 120.0
            },
            {
                "start_time": 16.3840909,
                "end_time": 16.4477273,
                "pitch": 70,
                "velocity": 80,
                "duration": 0.0636364,
                "tempo": 120.0
            },
            {
                "start_time": 16.4659091,
                "end_time": 16.5295455,
                "pitch": 74,
                "velocity": 80,
                "duration": 0.0636364,
                "tempo": 120.0
            },
            {
                "start_time": 16.5454545,
                "end_time": 16.6113636,
                "pitch": 79,
                "velocity": 80,
                "duration": 0.0659091,
                "tempo": 120.0
            },
            {
                "start_time": 21.4,
                "end_time": 21.4636364,
                "pitch": 67,
                "velocity": 80,
                "duration": 0.0636364,
                "tempo": 120.0
            },
            {
                "start_time": 21.4795455,
                "end_time": 21.5454545,
                "pitch": 70,
                "velocity": 80,
                "duration": 0.0659091,
                "tempo": 120.0
            },
            {
                "start_time": 21.5772727,
                "end_time": 21.6272727,
                "pitch": 75,
                "velocity": 80,
                "duration": 0.05,
                "tempo": 120.0
            },
            {
                "start_time": 21.6590909,
                "end_time": 21.7068182,
                "pitch": 79,
                "velocity": 80,
                "duration": 0.0477273,
                "tempo": 120.0
            },
            {
                "start_time": 21.7409091,
                "end_time": 21.7909091,
                "pitch": 67,
                "velocity": 80,
                "duration": 0.05,
                "tempo": 120.0
            },
            {
                "start_time": 21.8272727,
                "end_time": 21.8772727,
                "pitch": 70,
                "velocity": 80,
                "duration": 0.05,
                "tempo": 120.0
            },
            {
                "start_time": 21.9136364,
                "end_time": 21.9636364,
                "pitch": 75,
                "velocity": 80,
                "duration": 0.05,
                "tempo": 120.0
            },
            {
                "start_time": 22.0,
                "end_time": 22.05,
                "pitch": 79,
                "velocity": 80,
                "duration": 0.05,
                "tempo": 120.0
            },
            {
                "start_time": 26.8454545,
                "end_time": 26.8954545,
                "pitch": 67,
                "velocity": 80,
                "duration": 0.05,
                "tempo": 120.0
            },
            {
                "start_time": 26.9295455,
                "end_time": 26.9795455,
                "pitch": 70,
                "velocity": 80,
                "duration": 0.05,
                "tempo": 120.0
            },
            {
                "start_time": 27.0136364,
                "end_time": 27.0636364,
                "pitch": 74,
                "velocity": 80,
                "duration": 0.05,
                "tempo": 120.0
            },
            {
                "start_time": 27.0977273,
                "end_time": 27.1636364,
                "pitch": 79,
                "velocity": 80,
                "duration": 0.0659091,
                "tempo": 120.0
            },
            {
                "start_time": 27.1818182,
                "end_time": 27.2477273,
                "pitch": 67,
                "velocity": 80,
                "duration": 0.0659091,
                "tempo": 120.0
            },
            {
                "start_time": 27.2636364,
                "end_time": 27.3318182,
                "pitch": 70,
                "velocity": 80,
                "duration": 0.0681818,
                "tempo": 120.0
            },
            {
                "start_time": 27.3477273,
                "end_time": 27.4159091,
                "pitch": 74,
                "velocity": 80,
                "duration": 0.0681818,
                "tempo": 120.0
            },
            {
                "start_time": 27.4318182,
                "end_time": 27.5,
                "pitch": 79,
                "velocity": 80,
                "duration": 0.0681818,
                "tempo": 120.0
            },
            {
                "start_time": 32.2772727,
                "end_time": 32.3431818,
                "pitch": 67,
                "velocity": 80,
                "duration": 0.0659091,
                "tempo": 120.0
            },
            {
                "start_time": 32.3590909,
                "end_time": 32.425,
                "pitch": 70,
                "velocity": 80,
                "duration": 0.0659091,
                "tempo": 120.0
            },
            {
                "start_time": 32.4568182,
                "end_time": 32.5045455,
                "pitch": 74,
                "velocity": 80,
                "duration": 0.0477273,
                "tempo": 120.0
            },
            {
                "start_time": 32.5386364,
                "end_time": 32.5863636,
                "pitch": 79,
                "velocity": 80,
                "duration": 0.0477273,
                "tempo": 120.0
            },
            {
                "start_time": 32.6204545,
                "end_time": 32.6704545,
                "pitch": 67,
                "velocity": 80,
                "duration": 0.05,
                "tempo": 120.0
            },
            {
                "start_time": 32.7068182,
                "end_time": 32.7568182,
                "pitch": 70,
                "velocity": 80,
                "duration": 0.05,
                "tempo": 120.0
            },
            {
                "start_time": 32.7931818,
                "end_time": 32.8431818,
                "pitch": 74,
                "velocity": 80,
                "duration": 0.05,
                "tempo": 120.0
            },
            {
                "start_time": 32.8772727,
                "end_time": 32.9295455,
                "pitch": 79,
                "velocity": 80,
                "duration": 0.0522727,
                "tempo": 120.0
            },
            {
                "start_time": 37.7363636,
                "end_time": 37.7840909,
                "pitch": 67,
                "velocity": 80,
                "duration": 0.0477273,
                "tempo": 120.0
            },
            {
                "start_time": 37.8159091,
                "end_time": 37.8659091,
                "pitch": 70,
                "velocity": 80,
                "duration": 0.05,
                "tempo": 120.0
            },
            {
                "start_time": 37.8977273,
                "end_time": 37.9454545,
                "pitch": 74,
                "velocity": 80,
                "duration": 0.0477273,
                "tempo": 120.0
            },
            {
                "start_time": 37.9795455,
                "end_time": 38.0431818,
                "pitch": 79,
                "velocity": 80,
                "duration": 0.0636364,
                "tempo": 120.0
            },
            {
                "start_time": 38.0613636,
                "end_time": 38.1272727,
                "pitch": 67,
                "velocity": 80,
                "duration": 0.0659091,
                "tempo": 120.0
            },
            {
                "start_time": 38.1431818,
                "end_time": 38.2113636,
                "pitch": 70,
                "velocity": 80,
                "duration": 0.0681818,
                "tempo": 120.0
            },
            {
                "start_time": 38.2272727,
                "end_time": 38.2954545,
                "pitch": 74,
                "velocity": 80,
                "duration": 0.0681818,
                "tempo": 120.0
            },
            {
                "start_time": 38.3113636,
                "end_time": 38.3772727,
                "pitch": 79,
                "velocity": 80,
                "duration": 0.0659091,
                "tempo": 120.0
            },
            {
                "start_time": 43.1568182,
                "end_time": 43.2227273,
                "pitch": 67,
                "velocity": 80,
                "duration": 0.0659091,
                "tempo": 120.0
            },
            {
                "start_time": 43.2409091,
                "end_time": 43.3068182,
                "pitch": 70,
                "velocity": 80,
                "duration": 0.0659091,
                "tempo": 120.0
            },
            {
                "start_time": 43.3409091,
                "end_time": 43.3909091,
                "pitch": 75,
                "velocity": 80,
                "duration": 0.05,
                "tempo": 120.0
            },
            {
                "start_time": 43.425,
                "end_time": 43.475,
                "pitch": 79,
                "velocity": 80,
                "duration": 0.05,
                "tempo": 120.0
            },
            {
                "start_time": 43.5090909,
                "end_time": 43.5590909,
                "pitch": 67,
                "velocity": 80,
                "duration": 0.05,
                "tempo": 120.0
            },
            {
                "start_time": 43.5931818,
                "end_time": 43.6454545,
                "pitch": 70,
                "velocity": 80,
                "duration": 0.0522727,
                "tempo": 120.0
            },
            {
                "start_time": 43.6795455,
                "end_time": 43.7318182,
                "pitch": 75,
                "velocity": 80,
                "duration": 0.0522727,
                "tempo": 120.0
            },
            {
                "start_time": 43.7659091,
                "end_time": 43.8181818,
                "pitch": 79,
                "velocity": 80,
                "duration": 0.0522727,
                "tempo": 120.0
            },
            {
                "start_time": 48.6159091,
                "end_time": 48.6659091,
                "pitch": 67,
                "velocity": 80,
                "duration": 0.05,
                "tempo": 120.0
            },
            {
                "start_time": 48.6977273,
                "end_time": 48.7477273,
                "pitch": 70,
                "velocity": 80,
                "duration": 0.05,
                "tempo": 120.0
            },
            {
                "start_time": 48.7818182,
                "end_time": 48.8318182,
                "pitch": 74,
                "velocity": 80,
                "duration": 0.05,
                "tempo": 120.0
            },
            {
                "start_time": 48.8659091,
                "end_time": 48.9340909,
                "pitch": 79,
                "velocity": 80,
                "duration": 0.0681818,
                "tempo": 120.0
            },
            {
                "start_time": 48.95,
                "end_time": 49.0136364,
                "pitch": 67,
                "velocity": 80,
                "duration": 0.0636364,
                "tempo": 120.0
            },
            {
                "start_time": 49.0318182,
                "end_time": 49.0954545,
                "pitch": 70,
                "velocity": 80,
                "duration": 0.0636364,
                "tempo": 120.0
            },
            {
                "start_time": 49.1136364,
                "end_time": 49.1772727,
                "pitch": 74,
                "velocity": 80,
                "duration": 0.0636364,
                "tempo": 120.0
            },
            {
                "start_time": 49.1931818,
                "end_time": 49.2590909,
                "pitch": 79,
                "velocity": 80,
                "duration": 0.0659091,
                "tempo": 120.0
            },
            {
                "start_time": 54.0454545,
                "end_time": 54.1113636,
                "pitch": 67,
                "velocity": 80,
                "duration": 0.0659091,
                "tempo": 120.0
            },
            {
                "start_time": 54.1272727,
                "end_time": 54.1909091,
                "pitch": 70,
                "velocity": 80,
                "duration": 0.0636364,
                "tempo": 120.0
            },
            {
                "start_time": 54.225,
                "end_time": 54.2727273,
                "pitch": 75,
                "velocity": 80,
                "duration": 0.0477273,
                "tempo": 120.0
            },
            {
                "start_time": 54.3068182,
                "end_time": 54.3545455,
                "pitch": 79,
                "velocity": 80,
                "duration": 0.0477273,
                "tempo": 120.0
            },
            {
                "start_time": 54.3886364,
                "end_time": 54.4386364,
                "pitch": 67,
                "velocity": 80,
                "duration": 0.05,
                "tempo": 120.0
            },
            {
                "start_time": 54.4727273,
                "end_time": 54.525,
                "pitch": 70,
                "velocity": 80,
                "duration": 0.0522727,
                "tempo": 120.0
            },
            {
                "start_time": 54.5590909,
                "end_time": 54.6113636,
                "pitch": 75,
                "velocity": 80,
                "duration": 0.0522727,
                "tempo": 120.0
            },
            {
                "start_time": 54.6454545,
                "end_time": 54.6977273,
                "pitch": 79,
                "velocity": 80,
                "duration": 0.0522727,
                "tempo": 120.0
            },
            {
                "start_time": 59.5022727,
                "end_time": 59.5522727,
                "pitch": 66,
                "velocity": 80,
                "duration": 0.05,
                "tempo": 120.0
            },
            {
                "start_time": 59.5840909,
                "end_time": 59.6340909,
                "pitch": 69,
                "velocity": 80,
                "duration": 0.05,
                "tempo": 120.0
            },
            {
                "start_time": 59.6659091,
                "end_time": 59.7136364,
                "pitch": 74,
                "velocity": 80,
                "duration": 0.0477273,
                "tempo": 120.0
            },
            {
                "start_time": 59.7477273,
                "end_time": 59.8113636,
                "pitch": 78,
                "velocity": 80,
                "duration": 0.0636364,
                "tempo": 120.0
            },
            {
                "start_time": 59.8295455,
                "end_time": 59.8954545,
                "pitch": 65,
                "velocity": 80,
                "duration": 0.0659091,
                "tempo": 120.0
            },
            {
                "start_time": 59.9113636,
                "end_time": 59.9795455,
                "pitch": 70,
                "velocity": 80,
                "duration": 0.0681818,
                "tempo": 120.0
            },
            {
                "start_time": 59.9954545,
                "end_time": 60.0613636,
                "pitch": 74,
                "velocity": 80,
                "duration": 0.0659091,
                "tempo": 120.0
            },
            {
                "start_time": 60.0954545,
                "end_time": 60.1454545,
                "pitch": 78,
                "velocity": 80,
                "duration": 0.05,
                "tempo": 120.0
            },
            {
                "start_time": 64.925,
                "end_time": 64.9909091,
                "pitch": 67,
                "velocity": 80,
                "duration": 0.0659091,
                "tempo": 120.0
            },
            {
                "start_time": 65.025,
                "end_time": 65.075,
                "pitch": 70,
                "velocity": 80,
                "duration": 0.05,
                "tempo": 120.0
            },
            {
                "start_time": 65.1090909,
                "end_time": 65.1590909,
                "pitch": 75,
                "velocity": 80,
                "duration": 0.05,
                "tempo": 120.0
            },
            {
                "start_time": 65.1931818,
                "end_time": 65.2431818,
                "pitch": 79,
                "velocity": 80,
                "duration": 0.05,
                "tempo": 120.0
            },
            {
                "start_time": 65.2772727,
                "end_time": 65.3272727,
                "pitch": 67,
                "velocity": 80,
                "duration": 0.05,
                "tempo": 120.0
            },
            {
                "start_time": 65.3590909,
                "end_time": 65.4090909,
                "pitch": 70,
                "velocity": 80,
                "duration": 0.05,
                "tempo": 120.0
            },
            {
                "start_time": 65.4431818,
                "end_time": 65.4931818,
                "pitch": 75,
                "velocity": 80,
                "duration": 0.05,
                "tempo": 120.0
            },
            {
                "start_time": 65.5272727,
                "end_time": 65.5772727,
                "pitch": 79,
                "velocity": 80,
                "duration": 0.05,
                "tempo": 120.0
            },
            {
                "start_time": 70.3818182,
                "end_time": 70.4318182,
                "pitch": 66,
                "velocity": 80,
                "duration": 0.05,
                "tempo": 120.0
            },
            {
                "start_time": 70.4659091,
                "end_time": 70.5159091,
                "pitch": 69,
                "velocity": 80,
                "duration": 0.05,
                "tempo": 120.0
            },
            {
                "start_time": 70.55,
                "end_time": 70.6,
                "pitch": 74,
                "velocity": 80,
                "duration": 0.05,
                "tempo": 120.0
            },
            {
                "start_time": 70.6340909,
                "end_time": 70.7,
                "pitch": 78,
                "velocity": 80,
                "duration": 0.0659091,
                "tempo": 120.0
            },
            {
                "start_time": 70.7181818,
                "end_time": 70.7818182,
                "pitch": 65,
                "velocity": 80,
                "duration": 0.0636364,
                "tempo": 120.0
            },
            {
                "start_time": 70.7977273,
                "end_time": 70.8636364,
                "pitch": 70,
                "velocity": 80,
                "duration": 0.0659091,
                "tempo": 120.0
            },
            {
                "start_time": 70.8795455,
                "end_time": 70.9454545,
                "pitch": 74,
                "velocity": 80,
                "duration": 0.0659091,
                "tempo": 120.0
            },
            {
                "start_time": 70.9772727,
                "end_time": 71.0272727,
                "pitch": 78,
                "velocity": 80,
                "duration": 0.05,
                "tempo": 120.0
            },
            {
                "start_time": 75.8045455,
                "end_time": 75.8704545,
                "pitch": 67,
                "velocity": 80,
                "duration": 0.0659091,
                "tempo": 120.0
            },
            {
                "start_time": 75.9045455,
                "end_time": 75.9545455,
                "pitch": 70,
                "velocity": 80,
                "duration": 0.05,
                "tempo": 120.0
            },
            {
                "start_time": 75.9886364,
                "end_time": 76.0386364,
                "pitch": 74,
                "velocity": 80,
                "duration": 0.05,
                "tempo": 120.0
            },
            {
                "start_time": 76.0704545,
                "end_time": 76.1204545,
                "pitch": 79,
                "velocity": 80,
                "duration": 0.05,
                "tempo": 120.0
            },
            {
                "start_time": 76.1568182,
                "end_time": 76.2068182,
                "pitch": 67,
                "velocity": 80,
                "duration": 0.05,
                "tempo": 120.0
            },
            {
                "start_time": 76.2409091,
                "end_time": 76.2431818,
                "pitch": 70,
                "velocity": 80,
                "duration": 0.0022727,
                "tempo": 120.0
            }
        ],
        "Acoustic Bass": [
            {
                "start_time": 0.0068182,
                "end_time": 0.1363636,
                "pitch": 31,
                "velocity": 51,
                "duration": 0.1295455,
                "tempo": 120.0
            },
            {
                "start_time": 0.1704545,
                "end_time": 0.3045455,
                "pitch": 31,
                "velocity": 51,
                "duration": 0.1340909,
                "tempo": 120.0
            },
            {
                "start_time": 0.3363636,
                "end_time": 0.4704545,
                "pitch": 31,
                "velocity": 51,
                "duration": 0.1340909,
                "tempo": 120.0
            },
            {
                "start_time": 0.5045455,
                "end_time": 0.6545455,
                "pitch": 31,
                "velocity": 51,
                "duration": 0.15,
                "tempo": 120.0
            },
            {
                "start_time": 0.6727273,
                "end_time": 0.8181818,
                "pitch": 31,
                "velocity": 51,
                "duration": 0.1454545,
                "tempo": 120.0
            },
            {
                "start_time": 0.8522727,
                "end_time": 0.9818182,
                "pitch": 31,
                "velocity": 51,
                "duration": 0.1295455,
                "tempo": 120.0
            },
            {
                "start_time": 1.0136364,
                "end_time": 1.1477273,
                "pitch": 31,
                "velocity": 51,
                "duration": 0.1340909,
                "tempo": 120.0
            },
            {
                "start_time": 1.1818182,
                "end_time": 1.3159091,
                "pitch": 31,
                "velocity": 51,
                "duration": 0.1340909,
                "tempo": 120.0
            },
            {
                "start_time": 1.35,
                "end_time": 1.5,
                "pitch": 31,
                "velocity": 64,
                "duration": 0.15,
                "tempo": 120.0
            },
            {
                "start_time": 1.5159091,
                "end_time": 1.6659091,
                "pitch": 31,
                "velocity": 64,
                "duration": 0.15,
                "tempo": 120.0
            },
            {
                "start_time": 1.6840909,
                "end_time": 1.8295455,
                "pitch": 31,
                "velocity": 64,
                "duration": 0.1454545,
                "tempo": 120.0
            },
            {
                "start_time": 1.8636364,
                "end_time": 1.9931818,
                "pitch": 31,
                "velocity": 64,
                "duration": 0.1295455,
                "tempo": 120.0
            },
            {
                "start_time": 2.025,
                "end_time": 2.1613636,
                "pitch": 31,
                "velocity": 64,
                "duration": 0.1363636,
                "tempo": 120.0
            },
            {
                "start_time": 2.1977273,
                "end_time": 2.3340909,
                "pitch": 31,
                "velocity": 64,
                "duration": 0.1363636,
                "tempo": 120.0
            },
            {
                "start_time": 2.3704545,
                "end_time": 2.5159091,
                "pitch": 31,
                "velocity": 64,
                "duration": 0.1454545,
                "tempo": 120.0
            },
            {
                "start_time": 2.5318182,
                "end_time": 2.6795455,
                "pitch": 31,
                "velocity": 64,
                "duration": 0.1477273,
                "tempo": 120.0
            },
            {
                "start_time": 2.6977273,
                "end_time": 2.8454545,
                "pitch": 31,
                "velocity": 80,
                "duration": 0.1477273,
                "tempo": 120.0
            },
            {
                "start_time": 2.8795455,
                "end_time": 3.0136364,
                "pitch": 31,
                "velocity": 80,
                "duration": 0.1340909,
                "tempo": 120.0
            },
            {
                "start_time": 3.0477273,
                "end_time": 3.1795455,
                "pitch": 31,
                "velocity": 80,
                "duration": 0.1318182,
                "tempo": 120.0
            },
            {
                "start_time": 3.2136364,
                "end_time": 3.3477273,
                "pitch": 31,
                "velocity": 80,
                "duration": 0.1340909,
                "tempo": 120.0
            },
            {
                "start_time": 3.3818182,
                "end_time": 3.5318182,
                "pitch": 31,
                "velocity": 80,
                "duration": 0.15,
                "tempo": 120.0
            },
            {
                "start_time": 3.5477273,
                "end_time": 3.7,
                "pitch": 31,
                "velocity": 80,
                "duration": 0.1522727,
                "tempo": 120.0
            },
            {
                "start_time": 3.7159091,
                "end_time": 3.8659091,
                "pitch": 31,
                "velocity": 80,
                "duration": 0.15,
                "tempo": 120.0
            },
            {
                "start_time": 3.9,
                "end_time": 4.0340909,
                "pitch": 31,
                "velocity": 80,
                "duration": 0.1340909,
                "tempo": 120.0
            },
            {
                "start_time": 4.0681818,
                "end_time": 4.2022727,
                "pitch": 31,
                "velocity": 101,
                "duration": 0.1340909,
                "tempo": 120.0
            },
            {
                "start_time": 4.2340909,
                "end_time": 4.3681818,
                "pitch": 31,
                "velocity": 101,
                "duration": 0.1340909,
                "tempo": 120.0
            },
            {
                "start_time": 4.4022727,
                "end_time": 4.5522727,
                "pitch": 31,
                "velocity": 101,
                "duration": 0.15,
                "tempo": 120.0
            },
            {
                "start_time": 4.5704545,
                "end_time": 4.7204545,
                "pitch": 31,
                "velocity": 101,
                "duration": 0.15,
                "tempo": 120.0
            },
            {
                "start_time": 4.7363636,
                "end_time": 4.8840909,
                "pitch": 31,
                "velocity": 101,
                "duration": 0.1477273,
                "tempo": 120.0
            },
            {
                "start_time": 4.9159091,
                "end_time": 5.0454545,
                "pitch": 31,
                "velocity": 101,
                "duration": 0.1295455,
                "tempo": 120.0
            },
            {
                "start_time": 5.0795455,
                "end_time": 5.2136364,
                "pitch": 31,
                "velocity": 101,
                "duration": 0.1340909,
                "tempo": 120.0
            },
            {
                "start_time": 5.2454545,
                "end_time": 5.3795455,
                "pitch": 31,
                "velocity": 101,
                "duration": 0.1340909,
                "tempo": 120.0
            },
            {
                "start_time": 5.4159091,
                "end_time": 5.5636364,
                "pitch": 31,
                "velocity": 101,
                "duration": 0.1477273,
                "tempo": 120.0
            },
            {
                "start_time": 5.5818182,
                "end_time": 5.7318182,
                "pitch": 38,
                "velocity": 101,
                "duration": 0.15,
                "tempo": 120.0
            },
            {
                "start_time": 5.7659091,
                "end_time": 5.9022727,
                "pitch": 43,
                "velocity": 101,
                "duration": 0.1363636,
                "tempo": 120.0
            },
            {
                "start_time": 5.9386364,
                "end_time": 6.2409091,
                "pitch": 36,
                "velocity": 101,
                "duration": 0.3022727,
                "tempo": 120.0
            },
            {
                "start_time": 6.2727273,
                "end_time": 6.4022727,
                "pitch": 41,
                "velocity": 101,
                "duration": 0.1295455,
                "tempo": 120.0
            },
            {
                "start_time": 6.4363636,
                "end_time": 6.5863636,
                "pitch": 39,
                "velocity": 101,
                "duration": 0.15,
                "tempo": 120.0
            },
            {
                "start_time": 6.6045455,
                "end_time": 6.7522727,
                "pitch": 38,
                "velocity": 101,
                "duration": 0.1477273,
                "tempo": 120.0
            },
            {
                "start_time": 6.7886364,
                "end_time": 6.9204545,
                "pitch": 31,
                "velocity": 101,
                "duration": 0.1318182,
                "tempo": 120.0
            },
            {
                "start_time": 6.9545455,
                "end_time": 7.0886364,
                "pitch": 38,
                "velocity": 101,
                "duration": 0.1340909,
                "tempo": 120.0
            },
            {
                "start_time": 7.1204545,
                "end_time": 7.2545455,
                "pitch": 43,
                "velocity": 101,
                "duration": 0.1340909,
                "tempo": 120.0
            },
            {
                "start_time": 7.2886364,
                "end_time": 7.6022727,
                "pitch": 36,
                "velocity": 101,
                "duration": 0.3136364,
                "tempo": 120.0
            },
            {
                "start_time": 7.6181818,
                "end_time": 7.7659091,
                "pitch": 41,
                "velocity": 101,
                "duration": 0.1477273,
                "tempo": 120.0
            },
            {
                "start_time": 7.7977273,
                "end_time": 7.9363636,
                "pitch": 39,
                "velocity": 101,
                "duration": 0.1386364,
                "tempo": 120.0
            },
            {
                "start_time": 7.9704545,
                "end_time": 8.1068182,
                "pitch": 38,
                "velocity": 101,
                "duration": 0.1363636,
                "tempo": 120.0
            },
            {
                "start_time": 8.1431818,
                "end_time": 8.2727273,
                "pitch": 31,
                "velocity": 101,
                "duration": 0.1295455,
                "tempo": 120.0
            },
            {
                "start_time": 8.3045455,
                "end_time": 8.4522727,
                "pitch": 38,
                "velocity": 101,
                "duration": 0.1477273,
                "tempo": 120.0
            },
            {
                "start_time": 8.4681818,
                "end_time": 8.6181818,
                "pitch": 43,
                "velocity": 101,
                "duration": 0.15,
                "tempo": 120.0
            },
            {
                "start_time": 8.6340909,
                "end_time": 8.9522727,
                "pitch": 36,
                "velocity": 101,
                "duration": 0.3181818,
                "tempo": 120.0
            },
            {
                "start_time": 8.9863636,
                "end_time": 9.1204545,
                "pitch": 41,
                "velocity": 101,
                "duration": 0.1340909,
                "tempo": 120.0
            },
            {
                "start_time": 9.1545455,
                "end_time": 9.2863636,
                "pitch": 39,
                "velocity": 101,
                "duration": 0.1318182,
                "tempo": 120.0
            },
            {
                "start_time": 9.3204545,
                "end_time": 9.4727273,
                "pitch": 38,
                "velocity": 101,
                "duration": 0.1522727,
                "tempo": 120.0
            },
            {
                "start_time": 9.4886364,
                "end_time": 9.6386364,
                "pitch": 31,
                "velocity": 101,
                "duration": 0.15,
                "tempo": 120.0
            },
            {
                "start_time": 9.6568182,
                "end_time": 9.8068182,
                "pitch": 38,
                "velocity": 101,
                "duration": 0.15,
                "tempo": 120.0
            },
            {
                "start_time": 9.8409091,
                "end_time": 9.9772727,
                "pitch": 43,
                "velocity": 101,
                "duration": 0.1363636,
                "tempo": 120.0
            },
            {
                "start_time": 10.0113636,
                "end_time": 10.3136364,
                "pitch": 36,
                "velocity": 101,
                "duration": 0.3022727,
                "tempo": 120.0
            },
            {
                "start_time": 10.3477273,
                "end_time": 10.4931818,
                "pitch": 41,
                "velocity": 101,
                "duration": 0.1454545,
                "tempo": 120.0
            },
            {
                "start_time": 10.5113636,
                "end_time": 10.6613636,
                "pitch": 39,
                "velocity": 101,
                "duration": 0.15,
                "tempo": 120.0
            },
            {
                "start_time": 10.6772727,
                "end_time": 10.8272727,
                "pitch": 38,
                "velocity": 101,
                "duration": 0.15,
                "tempo": 120.0
            },
            {
                "start_time": 10.8636364,
                "end_time": 11.0,
                "pitch": 31,
                "velocity": 101,
                "duration": 0.1363636,
                "tempo": 120.0
            },
            {
                "start_time": 11.0340909,
                "end_time": 11.1704545,
                "pitch": 38,
                "velocity": 101,
                "duration": 0.1363636,
                "tempo": 120.0
            },
            {
                "start_time": 11.2068182,
                "end_time": 11.3363636,
                "pitch": 43,
                "velocity": 101,
                "duration": 0.1295455,
                "tempo": 120.0
            },
            {
                "start_time": 11.3681818,
                "end_time": 11.6818182,
                "pitch": 36,
                "velocity": 101,
                "duration": 0.3136364,
                "tempo": 120.0
            },
            {
                "start_time": 11.7159091,
                "end_time": 11.85,
                "pitch": 41,
                "velocity": 101,
                "duration": 0.1340909,
                "tempo": 120.0
            },
            {
                "start_time": 11.8818182,
                "end_time": 12.0159091,
                "pitch": 39,
                "velocity": 101,
                "duration": 0.1340909,
                "tempo": 120.0
            },
            {
                "start_time": 12.05,
                "end_time": 12.1840909,
                "pitch": 38,
                "velocity": 101,
                "duration": 0.1340909,
                "tempo": 120.0
            },
            {
                "start_time": 12.2181818,
                "end_time": 12.3681818,
                "pitch": 31,
                "velocity": 101,
                "duration": 0.15,
                "tempo": 120.0
            },
            {
                "start_time": 12.3840909,
                "end_time": 12.5363636,
                "pitch": 38,
                "velocity": 101,
                "duration": 0.1522727,
                "tempo": 120.0
            },
            {
                "start_time": 12.5522727,
                "end_time": 12.6977273,
                "pitch": 43,
                "velocity": 101,
                "duration": 0.1454545,
                "tempo": 120.0
            },
            {
                "start_time": 12.7318182,
                "end_time": 13.0318182,
                "pitch": 36,
                "velocity": 101,
                "duration": 0.3,
                "tempo": 120.0
            },
            {
                "start_time": 13.0659091,
                "end_time": 13.2045455,
                "pitch": 41,
                "velocity": 101,
                "duration": 0.1386364,
                "tempo": 120.0
            },
            {
                "start_time": 13.2386364,
                "end_time": 13.3886364,
                "pitch": 39,
                "velocity": 101,
                "duration": 0.15,
                "tempo": 120.0
            },
            {
                "start_time": 13.4068182,
                "end_time": 13.5568182,
                "pitch": 38,
                "velocity": 101,
                "duration": 0.15,
                "tempo": 120.0
            },
            {
                "start_time": 13.575,
                "end_time": 13.7204545,
                "pitch": 31,
                "velocity": 101,
                "duration": 0.1454545,
                "tempo": 120.0
            },
            {
                "start_time": 13.7522727,
                "end_time": 13.8818182,
                "pitch": 38,
                "velocity": 101,
                "duration": 0.1295455,
                "tempo": 120.0
            },
            {
                "start_time": 13.9159091,
                "end_time": 14.0522727,
                "pitch": 43,
                "velocity": 101,
                "duration": 0.1363636,
                "tempo": 120.0
            },
            {
                "start_time": 14.0886364,
                "end_time": 14.4068182,
                "pitch": 36,
                "velocity": 101,
                "duration": 0.3181818,
                "tempo": 120.0
            },
            {
                "start_time": 14.4227273,
                "end_time": 14.5681818,
                "pitch": 41,
                "velocity": 101,
                "duration": 0.1454545,
                "tempo": 120.0
            },
            {
                "start_time": 14.5863636,
                "end_time": 14.7363636,
                "pitch": 39,
                "velocity": 101,
                "duration": 0.15,
                "tempo": 120.0
            },
            {
                "start_time": 14.7681818,
                "end_time": 14.9022727,
                "pitch": 38,
                "velocity": 101,
                "duration": 0.1340909,
                "tempo": 120.0
            },
            {
                "start_time": 14.9363636,
                "end_time": 15.075,
                "pitch": 31,
                "velocity": 101,
                "duration": 0.1386364,
                "tempo": 120.0
            },
            {
                "start_time": 15.1090909,
                "end_time": 15.2454545,
                "pitch": 38,
                "velocity": 101,
                "duration": 0.1363636,
                "tempo": 120.0
            },
            {
                "start_time": 15.2818182,
                "end_time": 15.4272727,
                "pitch": 43,
                "velocity": 101,
                "duration": 0.1454545,
                "tempo": 120.0
            },
            {
                "start_time": 15.4431818,
                "end_time": 15.7568182,
                "pitch": 36,
                "velocity": 101,
                "duration": 0.3136364,
                "tempo": 120.0
            },
            {
                "start_time": 15.7909091,
                "end_time": 15.925,
                "pitch": 41,
                "velocity": 101,
                "duration": 0.1340909,
                "tempo": 120.0
            },
            {
                "start_time": 15.9590909,
                "end_time": 16.0954545,
                "pitch": 39,
                "velocity": 101,
                "duration": 0.1363636,
                "tempo": 120.0
            },
            {
                "start_time": 16.1295455,
                "end_time": 16.2681818,
                "pitch": 38,
                "velocity": 101,
                "duration": 0.1386364,
                "tempo": 120.0
            },
            {
                "start_time": 16.3045455,
                "end_time": 16.4477273,
                "pitch": 31,
                "velocity": 101,
                "duration": 0.1431818,
                "tempo": 120.0
            },
            {
                "start_time": 16.4659091,
                "end_time": 16.6113636,
                "pitch": 38,
                "velocity": 101,
                "duration": 0.1454545,
                "tempo": 120.0
            },
            {
                "start_time": 16.6431818,
                "end_time": 16.7818182,
                "pitch": 43,
                "velocity": 101,
                "duration": 0.1386364,
                "tempo": 120.0
            },
            {
                "start_time": 16.8159091,
                "end_time": 17.1181818,
                "pitch": 36,
                "velocity": 101,
                "duration": 0.3022727,
                "tempo": 120.0
            },
            {
                "start_time": 17.15,
                "end_time": 17.2977273,
                "pitch": 41,
                "velocity": 101,
                "duration": 0.1477273,
                "tempo": 120.0
            },
            {
                "start_time": 17.3136364,
                "end_time": 17.4636364,
                "pitch": 39,
                "velocity": 101,
                "duration": 0.15,
                "tempo": 120.0
            },
            {
                "start_time": 17.4818182,
                "end_time": 17.6318182,
                "pitch": 38,
                "velocity": 101,
                "duration": 0.15,
                "tempo": 120.0
            },
            {
                "start_time": 17.6659091,
                "end_time": 17.8022727,
                "pitch": 31,
                "velocity": 101,
                "duration": 0.1363636,
                "tempo": 120.0
            },
            {
                "start_time": 17.8363636,
                "end_time": 17.975,
                "pitch": 38,
                "velocity": 101,
                "duration": 0.1386364,
                "tempo": 120.0
            },
            {
                "start_time": 18.0090909,
                "end_time": 18.1409091,
                "pitch": 43,
                "velocity": 101,
                "duration": 0.1318182,
                "tempo": 120.0
            },
            {
                "start_time": 18.1727273,
                "end_time": 18.4863636,
                "pitch": 36,
                "velocity": 101,
                "duration": 0.3136364,
                "tempo": 120.0
            },
            {
                "start_time": 18.5022727,
                "end_time": 18.6522727,
                "pitch": 41,
                "velocity": 101,
                "duration": 0.15,
                "tempo": 120.0
            },
            {
                "start_time": 18.6863636,
                "end_time": 18.825,
                "pitch": 39,
                "velocity": 101,
                "duration": 0.1386364,
                "tempo": 120.0
            },
            {
                "start_time": 18.8590909,
                "end_time": 18.9954545,
                "pitch": 38,
                "velocity": 101,
                "duration": 0.1363636,
                "tempo": 120.0
            },
            {
                "start_time": 19.0318182,
                "end_time": 19.1613636,
                "pitch": 31,
                "velocity": 101,
                "duration": 0.1295455,
                "tempo": 120.0
            },
            {
                "start_time": 19.1931818,
                "end_time": 19.3409091,
                "pitch": 38,
                "velocity": 101,
                "duration": 0.1477273,
                "tempo": 120.0
            },
            {
                "start_time": 19.3568182,
                "end_time": 19.5022727,
                "pitch": 43,
                "velocity": 101,
                "duration": 0.1454545,
                "tempo": 120.0
            },
            {
                "start_time": 19.5204545,
                "end_time": 19.8363636,
                "pitch": 36,
                "velocity": 101,
                "duration": 0.3159091,
                "tempo": 120.0
            },
            {
                "start_time": 19.8704545,
                "end_time": 20.0090909,
                "pitch": 41,
                "velocity": 101,
                "duration": 0.1386364,
                "tempo": 120.0
            },
            {
                "start_time": 20.0431818,
                "end_time": 20.1772727,
                "pitch": 39,
                "velocity": 101,
                "duration": 0.1340909,
                "tempo": 120.0
            },
            {
                "start_time": 20.2113636,
                "end_time": 20.3613636,
                "pitch": 38,
                "velocity": 101,
                "duration": 0.15,
                "tempo": 120.0
            },
            {
                "start_time": 20.3772727,
                "end_time": 20.525,
                "pitch": 31,
                "velocity": 101,
                "duration": 0.1477273,
                "tempo": 120.0
            },
            {
                "start_time": 20.5409091,
                "end_time": 20.6863636,
                "pitch": 38,
                "velocity": 101,
                "duration": 0.1454545,
                "tempo": 120.0
            },
            {
                "start_time": 20.7204545,
                "end_time": 20.8568182,
                "pitch": 43,
                "velocity": 101,
                "duration": 0.1363636,
                "tempo": 120.0
            },
            {
                "start_time": 20.8909091,
                "end_time": 21.1977273,
                "pitch": 36,
                "velocity": 101,
                "duration": 0.3068182,
                "tempo": 120.0
            },
            {
                "start_time": 21.2318182,
                "end_time": 21.3818182,
                "pitch": 41,
                "velocity": 101,
                "duration": 0.15,
                "tempo": 120.0
            },
            {
                "start_time": 21.4,
                "end_time": 21.5454545,
                "pitch": 39,
                "velocity": 101,
                "duration": 0.1454545,
                "tempo": 120.0
            },
            {
                "start_time": 21.5772727,
                "end_time": 21.7090909,
                "pitch": 38,
                "velocity": 101,
                "duration": 0.1318182,
                "tempo": 120.0
            },
            {
                "start_time": 21.7431818,
                "end_time": 21.8772727,
                "pitch": 27,
                "velocity": 101,
                "duration": 0.1340909,
                "tempo": 120.0
            },
            {
                "start_time": 21.9136364,
                "end_time": 22.05,
                "pitch": 34,
                "velocity": 101,
                "duration": 0.1363636,
                "tempo": 120.0
            },
            {
                "start_time": 22.0863636,
                "end_time": 22.2363636,
                "pitch": 39,
                "velocity": 101,
                "duration": 0.15,
                "tempo": 120.0
            },
            {
                "start_time": 22.2522727,
                "end_time": 22.5659091,
                "pitch": 31,
                "velocity": 101,
                "duration": 0.3136364,
                "tempo": 120.0
            },
            {
                "start_time": 22.6,
                "end_time": 22.7295455,
                "pitch": 36,
                "velocity": 101,
                "duration": 0.1295455,
                "tempo": 120.0
            },
            {
                "start_time": 22.7613636,
                "end_time": 22.9,
                "pitch": 34,
                "velocity": 101,
                "duration": 0.1386364,
                "tempo": 120.0
            },
            {
                "start_time": 22.9340909,
                "end_time": 23.0727273,
                "pitch": 33,
                "velocity": 101,
                "duration": 0.1386364,
                "tempo": 120.0
            },
            {
                "start_time": 23.1068182,
                "end_time": 23.2522727,
                "pitch": 27,
                "velocity": 101,
                "duration": 0.1454545,
                "tempo": 120.0
            },
            {
                "start_time": 23.2681818,
                "end_time": 23.4159091,
                "pitch": 34,
                "velocity": 101,
                "duration": 0.1477273,
                "tempo": 120.0
            },
            {
                "start_time": 23.4318182,
                "end_time": 23.5818182,
                "pitch": 39,
                "velocity": 101,
                "duration": 0.15,
                "tempo": 120.0
            },
            {
                "start_time": 23.6159091,
                "end_time": 23.9159091,
                "pitch": 31,
                "velocity": 101,
                "duration": 0.3,
                "tempo": 120.0
            },
            {
                "start_time": 23.95,
                "end_time": 24.0840909,
                "pitch": 36,
                "velocity": 101,
                "duration": 0.1340909,
                "tempo": 120.0
            },
            {
                "start_time": 24.1181818,
                "end_time": 24.2681818,
                "pitch": 34,
                "velocity": 101,
                "duration": 0.15,
                "tempo": 120.0
            },
            {
                "start_time": 24.2863636,
                "end_time": 24.4363636,
                "pitch": 33,
                "velocity": 101,
                "duration": 0.15,
                "tempo": 120.0
            },
            {
                "start_time": 24.4522727,
                "end_time": 24.6022727,
                "pitch": 27,
                "velocity": 101,
                "duration": 0.15,
                "tempo": 120.0
            },
            {
                "start_time": 24.6363636,
                "end_time": 24.7704545,
                "pitch": 34,
                "velocity": 101,
                "duration": 0.1340909,
                "tempo": 120.0
            },
            {
                "start_time": 24.8045455,
                "end_time": 24.9386364,
                "pitch": 39,
                "velocity": 101,
                "duration": 0.1340909,
                "tempo": 120.0
            },
            {
                "start_time": 24.9704545,
                "end_time": 25.2886364,
                "pitch": 31,
                "velocity": 101,
                "duration": 0.3181818,
                "tempo": 120.0
            },
            {
                "start_time": 25.3068182,
                "end_time": 25.4568182,
                "pitch": 36,
                "velocity": 101,
                "duration": 0.15,
                "tempo": 120.0
            },
            {
                "start_time": 25.4727273,
                "end_time": 25.6204545,
                "pitch": 34,
                "velocity": 101,
                "duration": 0.1477273,
                "tempo": 120.0
            },
            {
                "start_time": 25.6522727,
                "end_time": 25.7818182,
                "pitch": 33,
                "velocity": 101,
                "duration": 0.1295455,
                "tempo": 120.0
            },
            {
                "start_time": 25.8159091,
                "end_time": 25.9522727,
                "pitch": 27,
                "velocity": 101,
                "duration": 0.1363636,
                "tempo": 120.0
            },
            {
                "start_time": 25.9863636,
                "end_time": 26.125,
                "pitch": 34,
                "velocity": 101,
                "duration": 0.1386364,
                "tempo": 120.0
            },
            {
                "start_time": 26.1590909,
                "end_time": 26.3113636,
                "pitch": 39,
                "velocity": 101,
                "duration": 0.1522727,
                "tempo": 120.0
            },
            {
                "start_time": 26.3272727,
                "end_time": 26.6454545,
                "pitch": 31,
                "velocity": 101,
                "duration": 0.3181818,
                "tempo": 120.0
            },
            {
                "start_time": 26.6795455,
                "end_time": 26.8136364,
                "pitch": 36,
                "velocity": 101,
                "duration": 0.1340909,
                "tempo": 120.0
            },
            {
                "start_time": 26.8477273,
                "end_time": 26.9795455,
                "pitch": 34,
                "velocity": 101,
                "duration": 0.1318182,
                "tempo": 120.0
            },
            {
                "start_time": 27.0136364,
                "end_time": 27.1636364,
                "pitch": 33,
                "velocity": 101,
                "duration": 0.15,
                "tempo": 120.0
            },
            {
                "start_time": 27.1818182,
                "end_time": 27.3318182,
                "pitch": 31,
                "velocity": 101,
                "duration": 0.15,
                "tempo": 120.0
            },
            {
                "start_time": 27.35,
                "end_time": 27.5,
                "pitch": 38,
                "velocity": 101,
                "duration": 0.15,
                "tempo": 120.0
            },
            {
                "start_time": 27.5340909,
                "end_time": 27.6704545,
                "pitch": 43,
                "velocity": 101,
                "duration": 0.1363636,
                "tempo": 120.0
            },
            {
                "start_time": 27.7045455,
                "end_time": 28.0068182,
                "pitch": 36,
                "velocity": 101,
                "duration": 0.3022727,
                "tempo": 120.0
            },
            {
                "start_time": 28.0409091,
                "end_time": 28.1863636,
                "pitch": 41,
                "velocity": 101,
                "duration": 0.1454545,
                "tempo": 120.0
            },
            {
                "start_time": 28.2022727,
                "end_time": 28.35,
                "pitch": 39,
                "velocity": 101,
                "duration": 0.1477273,
                "tempo": 120.0
            },
            {
                "start_time": 28.3659091,
                "end_time": 28.5113636,
                "pitch": 38,
                "velocity": 101,
                "duration": 0.1454545,
                "tempo": 120.0
            },
            {
                "start_time": 28.5454545,
                "end_time": 28.6818182,
                "pitch": 31,
                "velocity": 101,
                "duration": 0.1363636,
                "tempo": 120.0
            },
            {
                "start_time": 28.7181818,
                "end_time": 28.8545455,
                "pitch": 38,
                "velocity": 101,
                "duration": 0.1363636,
                "tempo": 120.0
            },
            {
                "start_time": 28.8886364,
                "end_time": 29.0227273,
                "pitch": 43,
                "velocity": 101,
                "duration": 0.1340909,
                "tempo": 120.0
            },
            {
                "start_time": 29.0568182,
                "end_time": 29.3704545,
                "pitch": 36,
                "velocity": 101,
                "duration": 0.3136364,
                "tempo": 120.0
            },
            {
                "start_time": 29.3863636,
                "end_time": 29.5340909,
                "pitch": 41,
                "velocity": 101,
                "duration": 0.1477273,
                "tempo": 120.0
            },
            {
                "start_time": 29.5659091,
                "end_time": 29.7022727,
                "pitch": 39,
                "velocity": 101,
                "duration": 0.1363636,
                "tempo": 120.0
            },
            {
                "start_time": 29.7386364,
                "end_time": 29.875,
                "pitch": 38,
                "velocity": 101,
                "duration": 0.1363636,
                "tempo": 120.0
            },
            {
                "start_time": 29.9113636,
                "end_time": 30.0431818,
                "pitch": 31,
                "velocity": 101,
                "duration": 0.1318182,
                "tempo": 120.0
            },
            {
                "start_time": 30.0772727,
                "end_time": 30.2295455,
                "pitch": 38,
                "velocity": 101,
                "duration": 0.1522727,
                "tempo": 120.0
            },
            {
                "start_time": 30.2454545,
                "end_time": 30.3909091,
                "pitch": 43,
                "velocity": 101,
                "duration": 0.1454545,
                "tempo": 120.0
            },
            {
                "start_time": 30.4090909,
                "end_time": 30.725,
                "pitch": 36,
                "velocity": 101,
                "duration": 0.3159091,
                "tempo": 120.0
            },
            {
                "start_time": 30.7590909,
                "end_time": 30.8977273,
                "pitch": 41,
                "velocity": 101,
                "duration": 0.1386364,
                "tempo": 120.0
            },
            {
                "start_time": 30.9318182,
                "end_time": 31.0613636,
                "pitch": 39,
                "velocity": 101,
                "duration": 0.1295455,
                "tempo": 120.0
            },
            {
                "start_time": 31.0931818,
                "end_time": 31.2409091,
                "pitch": 38,
                "velocity": 101,
                "duration": 0.1477273,
                "tempo": 120.0
            },
            {
                "start_time": 31.2568182,
                "end_time": 31.4068182,
                "pitch": 31,
                "velocity": 101,
                "duration": 0.15,
                "tempo": 120.0
            },
            {
                "start_time": 31.4409091,
                "end_time": 31.575,
                "pitch": 38,
                "velocity": 101,
                "duration": 0.1340909,
                "tempo": 120.0
            },
            {
                "start_time": 31.6090909,
                "end_time": 31.7454545,
                "pitch": 43,
                "velocity": 101,
                "duration": 0.1363636,
                "tempo": 120.0
            },
            {
                "start_time": 31.7795455,
                "end_time": 32.0818182,
                "pitch": 36,
                "velocity": 101,
                "duration": 0.3022727,
                "tempo": 120.0
            },
            {
                "start_time": 32.1159091,
                "end_time": 32.2613636,
                "pitch": 41,
                "velocity": 101,
                "duration": 0.1454545,
                "tempo": 120.0
            },
            {
                "start_time": 32.2795455,
                "end_time": 32.425,
                "pitch": 39,
                "velocity": 101,
                "duration": 0.1454545,
                "tempo": 120.0
            },
            {
                "start_time": 32.4568182,
                "end_time": 32.5863636,
                "pitch": 38,
                "velocity": 101,
                "duration": 0.1295455,
                "tempo": 120.0
            },
            {
                "start_time": 32.6227273,
                "end_time": 32.7568182,
                "pitch": 31,
                "velocity": 101,
                "duration": 0.1340909,
                "tempo": 120.0
            },
            {
                "start_time": 32.7931818,
                "end_time": 32.9295455,
                "pitch": 38,
                "velocity": 101,
                "duration": 0.1363636,
                "tempo": 120.0
            },
            {
                "start_time": 32.9659091,
                "end_time": 33.1159091,
                "pitch": 43,
                "velocity": 101,
                "duration": 0.15,
                "tempo": 120.0
            },
            {
                "start_time": 33.1318182,
                "end_time": 33.45,
                "pitch": 36,
                "velocity": 101,
                "duration": 0.3181818,
                "tempo": 120.0
            },
            {
                "start_time": 33.4840909,
                "end_time": 33.6159091,
                "pitch": 41,
                "velocity": 101,
                "duration": 0.1318182,
                "tempo": 120.0
            },
            {
                "start_time": 33.65,
                "end_time": 33.7840909,
                "pitch": 39,
                "velocity": 101,
                "duration": 0.1340909,
                "tempo": 120.0
            },
            {
                "start_time": 33.8181818,
                "end_time": 33.9522727,
                "pitch": 38,
                "velocity": 101,
                "duration": 0.1340909,
                "tempo": 120.0
            },
            {
                "start_time": 33.9863636,
                "end_time": 34.1363636,
                "pitch": 31,
                "velocity": 101,
                "duration": 0.15,
                "tempo": 120.0
            },
            {
                "start_time": 34.1522727,
                "end_time": 34.3045455,
                "pitch": 38,
                "velocity": 101,
                "duration": 0.1522727,
                "tempo": 120.0
            },
            {
                "start_time": 34.3204545,
                "end_time": 34.4659091,
                "pitch": 43,
                "velocity": 101,
                "duration": 0.1454545,
                "tempo": 120.0
            },
            {
                "start_time": 34.5,
                "end_time": 34.8,
                "pitch": 36,
                "velocity": 101,
                "duration": 0.3,
                "tempo": 120.0
            },
            {
                "start_time": 34.8340909,
                "end_time": 34.9727273,
                "pitch": 41,
                "velocity": 101,
                "duration": 0.1386364,
                "tempo": 120.0
            },
            {
                "start_time": 35.0068182,
                "end_time": 35.1522727,
                "pitch": 39,
                "velocity": 101,
                "duration": 0.1454545,
                "tempo": 120.0
            },
            {
                "start_time": 35.1704545,
                "end_time": 35.3159091,
                "pitch": 38,
                "velocity": 101,
                "duration": 0.1454545,
                "tempo": 120.0
            },
            {
                "start_time": 35.3318182,
                "end_time": 35.4818182,
                "pitch": 31,
                "velocity": 101,
                "duration": 0.15,
                "tempo": 120.0
            },
            {
                "start_time": 35.5159091,
                "end_time": 35.65,
                "pitch": 38,
                "velocity": 101,
                "duration": 0.1340909,
                "tempo": 120.0
            },
            {
                "start_time": 35.6840909,
                "end_time": 35.8204545,
                "pitch": 43,
                "velocity": 101,
                "duration": 0.1363636,
                "tempo": 120.0
            },
            {
                "start_time": 35.8568182,
                "end_time": 36.175,
                "pitch": 36,
                "velocity": 101,
                "duration": 0.3181818,
                "tempo": 120.0
            },
            {
                "start_time": 36.1909091,
                "end_time": 36.3363636,
                "pitch": 41,
                "velocity": 101,
                "duration": 0.1454545,
                "tempo": 120.0
            },
            {
                "start_time": 36.3545455,
                "end_time": 36.5045455,
                "pitch": 39,
                "velocity": 101,
                "duration": 0.15,
                "tempo": 120.0
            },
            {
                "start_time": 36.5363636,
                "end_time": 36.6704545,
                "pitch": 38,
                "velocity": 101,
                "duration": 0.1340909,
                "tempo": 120.0
            },
            {
                "start_time": 36.7045455,
                "end_time": 36.8386364,
                "pitch": 31,
                "velocity": 101,
                "duration": 0.1340909,
                "tempo": 120.0
            },
            {
                "start_time": 36.8727273,
                "end_time": 37.0068182,
                "pitch": 38,
                "velocity": 101,
                "duration": 0.1340909,
                "tempo": 120.0
            },
            {
                "start_time": 37.0386364,
                "end_time": 37.1909091,
                "pitch": 43,
                "velocity": 101,
                "duration": 0.1522727,
                "tempo": 120.0
            },
            {
                "start_time": 37.2068182,
                "end_time": 37.5295455,
                "pitch": 36,
                "velocity": 101,
                "duration": 0.3227273,
                "tempo": 120.0
            },
            {
                "start_time": 37.5636364,
                "end_time": 37.7,
                "pitch": 41,
                "velocity": 101,
                "duration": 0.1363636,
                "tempo": 120.0
            },
            {
                "start_time": 37.7363636,
                "end_time": 37.8659091,
                "pitch": 39,
                "velocity": 101,
                "duration": 0.1295455,
                "tempo": 120.0
            },
            {
                "start_time": 37.8977273,
                "end_time": 38.0454545,
                "pitch": 38,
                "velocity": 101,
                "duration": 0.1477273,
                "tempo": 120.0
            },
            {
                "start_time": 38.0613636,
                "end_time": 38.2113636,
                "pitch": 31,
                "velocity": 101,
                "duration": 0.15,
                "tempo": 120.0
            },
            {
                "start_time": 38.2272727,
                "end_time": 38.3772727,
                "pitch": 38,
                "velocity": 101,
                "duration": 0.15,
                "tempo": 120.0
            },
            {
                "start_time": 38.4113636,
                "end_time": 38.55,
                "pitch": 43,
                "velocity": 101,
                "duration": 0.1386364,
                "tempo": 120.0
            },
            {
                "start_time": 38.5840909,
                "end_time": 38.8863636,
                "pitch": 36,
                "velocity": 101,
                "duration": 0.3022727,
                "tempo": 120.0
            },
            {
                "start_time": 38.9181818,
                "end_time": 39.0659091,
                "pitch": 41,
                "velocity": 101,
                "duration": 0.1477273,
                "tempo": 120.0
            },
            {
                "start_time": 39.0818182,
                "end_time": 39.2318182,
                "pitch": 39,
                "velocity": 101,
                "duration": 0.15,
                "tempo": 120.0
            },
            {
                "start_time": 39.25,
                "end_time": 39.4,
                "pitch": 38,
                "velocity": 101,
                "duration": 0.15,
                "tempo": 120.0
            },
            {
                "start_time": 39.4340909,
                "end_time": 39.5704545,
                "pitch": 31,
                "velocity": 101,
                "duration": 0.1363636,
                "tempo": 120.0
            },
            {
                "start_time": 39.6045455,
                "end_time": 39.7431818,
                "pitch": 38,
                "velocity": 101,
                "duration": 0.1386364,
                "tempo": 120.0
            },
            {
                "start_time": 39.7772727,
                "end_time": 39.9090909,
                "pitch": 43,
                "velocity": 101,
                "duration": 0.1318182,
                "tempo": 120.0
            },
            {
                "start_time": 39.9409091,
                "end_time": 40.2545455,
                "pitch": 36,
                "velocity": 101,
                "duration": 0.3136364,
                "tempo": 120.0
            },
            {
                "start_time": 40.2704545,
                "end_time": 40.4204545,
                "pitch": 41,
                "velocity": 101,
                "duration": 0.15,
                "tempo": 120.0
            },
            {
                "start_time": 40.4545455,
                "end_time": 40.5886364,
                "pitch": 39,
                "velocity": 101,
                "duration": 0.1340909,
                "tempo": 120.0
            },
            {
                "start_time": 40.6227273,
                "end_time": 40.7568182,
                "pitch": 38,
                "velocity": 101,
                "duration": 0.1340909,
                "tempo": 120.0
            },
            {
                "start_time": 40.7909091,
                "end_time": 40.9227273,
                "pitch": 31,
                "velocity": 101,
                "duration": 0.1318182,
                "tempo": 120.0
            },
            {
                "start_time": 40.9568182,
                "end_time": 41.1068182,
                "pitch": 38,
                "velocity": 101,
                "duration": 0.15,
                "tempo": 120.0
            },
            {
                "start_time": 41.125,
                "end_time": 41.2704545,
                "pitch": 43,
                "velocity": 101,
                "duration": 0.1454545,
                "tempo": 120.0
            },
            {
                "start_time": 41.2863636,
                "end_time": 41.6022727,
                "pitch": 36,
                "velocity": 101,
                "duration": 0.3159091,
                "tempo": 120.0
            },
            {
                "start_time": 41.6386364,
                "end_time": 41.775,
                "pitch": 41,
                "velocity": 101,
                "duration": 0.1363636,
                "tempo": 120.0
            },
            {
                "start_time": 41.8113636,
                "end_time": 41.9454545,
                "pitch": 39,
                "velocity": 101,
                "duration": 0.1340909,
                "tempo": 120.0
            },
            {
                "start_time": 41.9772727,
                "end_time": 42.1272727,
                "pitch": 38,
                "velocity": 101,
                "duration": 0.15,
                "tempo": 120.0
            },
            {
                "start_time": 42.1454545,
                "end_time": 42.2909091,
                "pitch": 31,
                "velocity": 101,
                "duration": 0.1454545,
                "tempo": 120.0
            },
            {
                "start_time": 42.325,
                "end_time": 42.4545455,
                "pitch": 38,
                "velocity": 101,
                "duration": 0.1295455,
                "tempo": 120.0
            },
            {
                "start_time": 42.4863636,
                "end_time": 42.625,
                "pitch": 43,
                "velocity": 101,
                "duration": 0.1386364,
                "tempo": 120.0
            },
            {
                "start_time": 42.6590909,
                "end_time": 42.9772727,
                "pitch": 36,
                "velocity": 101,
                "duration": 0.3181818,
                "tempo": 120.0
            },
            {
                "start_time": 42.9954545,
                "end_time": 43.1409091,
                "pitch": 41,
                "velocity": 101,
                "duration": 0.1454545,
                "tempo": 120.0
            },
            {
                "start_time": 43.1568182,
                "end_time": 43.3068182,
                "pitch": 39,
                "velocity": 101,
                "duration": 0.15,
                "tempo": 120.0
            },
            {
                "start_time": 43.3409091,
                "end_time": 43.475,
                "pitch": 38,
                "velocity": 101,
                "duration": 0.1340909,
                "tempo": 120.0
            },
            {
                "start_time": 43.5090909,
                "end_time": 43.6454545,
                "pitch": 27,
                "velocity": 101,
                "duration": 0.1363636,
                "tempo": 120.0
            },
            {
                "start_time": 43.6818182,
                "end_time": 43.8181818,
                "pitch": 34,
                "velocity": 101,
                "duration": 0.1363636,
                "tempo": 120.0
            },
            {
                "start_time": 43.8522727,
                "end_time": 43.9977273,
                "pitch": 39,
                "velocity": 101,
                "duration": 0.1454545,
                "tempo": 120.0
            },
            {
                "start_time": 44.0159091,
                "end_time": 44.3295455,
                "pitch": 31,
                "velocity": 101,
                "duration": 0.3136364,
                "tempo": 120.0
            },
            {
                "start_time": 44.3613636,
                "end_time": 44.4954545,
                "pitch": 36,
                "velocity": 101,
                "duration": 0.1340909,
                "tempo": 120.0
            },
            {
                "start_time": 44.5295455,
                "end_time": 44.6659091,
                "pitch": 34,
                "velocity": 101,
                "duration": 0.1363636,
                "tempo": 120.0
            },
            {
                "start_time": 44.7022727,
                "end_time": 44.8386364,
                "pitch": 33,
                "velocity": 101,
                "duration": 0.1363636,
                "tempo": 120.0
            },
            {
                "start_time": 44.875,
                "end_time": 45.0204545,
                "pitch": 27,
                "velocity": 101,
                "duration": 0.1454545,
                "tempo": 120.0
            },
            {
                "start_time": 45.0363636,
                "end_time": 45.1818182,
                "pitch": 34,
                "velocity": 101,
                "duration": 0.1454545,
                "tempo": 120.0
            },
            {
                "start_time": 45.2,
                "end_time": 45.3454545,
                "pitch": 39,
                "velocity": 101,
                "duration": 0.1454545,
                "tempo": 120.0
            },
            {
                "start_time": 45.3795455,
                "end_time": 45.6795455,
                "pitch": 31,
                "velocity": 101,
                "duration": 0.3,
                "tempo": 120.0
            },
            {
                "start_time": 45.7136364,
                "end_time": 45.8522727,
                "pitch": 36,
                "velocity": 101,
                "duration": 0.1386364,
                "tempo": 120.0
            },
            {
                "start_time": 45.8863636,
                "end_time": 46.0363636,
                "pitch": 34,
                "velocity": 101,
                "duration": 0.15,
                "tempo": 120.0
            },
            {
                "start_time": 46.0545455,
                "end_time": 46.2045455,
                "pitch": 33,
                "velocity": 101,
                "duration": 0.15,
                "tempo": 120.0
            },
            {
                "start_time": 46.2204545,
                "end_time": 46.3704545,
                "pitch": 27,
                "velocity": 101,
                "duration": 0.15,
                "tempo": 120.0
            },
            {
                "start_time": 46.4045455,
                "end_time": 46.5386364,
                "pitch": 34,
                "velocity": 101,
                "duration": 0.1340909,
                "tempo": 120.0
            },
            {
                "start_time": 46.5727273,
                "end_time": 46.7068182,
                "pitch": 39,
                "velocity": 101,
                "duration": 0.1340909,
                "tempo": 120.0
            },
            {
                "start_time": 46.7386364,
                "end_time": 47.0568182,
                "pitch": 31,
                "velocity": 101,
                "duration": 0.3181818,
                "tempo": 120.0
            },
            {
                "start_time": 47.075,
                "end_time": 47.225,
                "pitch": 36,
                "velocity": 101,
                "duration": 0.15,
                "tempo": 120.0
            },
            {
                "start_time": 47.2590909,
                "end_time": 47.3954545,
                "pitch": 34,
                "velocity": 101,
                "duration": 0.1363636,
                "tempo": 120.0
            },
            {
                "start_time": 47.4295455,
                "end_time": 47.5681818,
                "pitch": 33,
                "velocity": 101,
                "duration": 0.1386364,
                "tempo": 120.0
            },
            {
                "start_time": 47.6022727,
                "end_time": 47.7340909,
                "pitch": 27,
                "velocity": 101,
                "duration": 0.1318182,
                "tempo": 120.0
            },
            {
                "start_time": 47.7659091,
                "end_time": 47.9113636,
                "pitch": 34,
                "velocity": 101,
                "duration": 0.1454545,
                "tempo": 120.0
            },
            {
                "start_time": 47.9295455,
                "end_time": 48.075,
                "pitch": 39,
                "velocity": 101,
                "duration": 0.1454545,
                "tempo": 120.0
            },
            {
                "start_time": 48.0909091,
                "end_time": 48.4090909,
                "pitch": 31,
                "velocity": 101,
                "duration": 0.3181818,
                "tempo": 120.0
            },
            {
                "start_time": 48.4431818,
                "end_time": 48.5795455,
                "pitch": 36,
                "velocity": 101,
                "duration": 0.1363636,
                "tempo": 120.0
            },
            {
                "start_time": 48.6159091,
                "end_time": 48.75,
                "pitch": 34,
                "velocity": 101,
                "duration": 0.1340909,
                "tempo": 120.0
            },
            {
                "start_time": 48.7840909,
                "end_time": 48.9340909,
                "pitch": 33,
                "velocity": 101,
                "duration": 0.15,
                "tempo": 120.0
            },
            {
                "start_time": 48.95,
                "end_time": 49.0954545,
                "pitch": 31,
                "velocity": 101,
                "duration": 0.1454545,
                "tempo": 120.0
            },
            {
                "start_time": 49.1136364,
                "end_time": 49.2590909,
                "pitch": 38,
                "velocity": 101,
                "duration": 0.1454545,
                "tempo": 120.0
            },
            {
                "start_time": 49.2931818,
                "end_time": 49.4295455,
                "pitch": 43,
                "velocity": 101,
                "duration": 0.1363636,
                "tempo": 120.0
            },
            {
                "start_time": 49.4636364,
                "end_time": 49.7659091,
                "pitch": 36,
                "velocity": 101,
                "duration": 0.3022727,
                "tempo": 120.0
            },
            {
                "start_time": 49.7977273,
                "end_time": 49.9454545,
                "pitch": 41,
                "velocity": 101,
                "duration": 0.1477273,
                "tempo": 120.0
            },
            {
                "start_time": 49.9613636,
                "end_time": 50.1113636,
                "pitch": 39,
                "velocity": 101,
                "duration": 0.15,
                "tempo": 120.0
            },
            {
                "start_time": 50.1295455,
                "end_time": 50.2795455,
                "pitch": 38,
                "velocity": 101,
                "duration": 0.15,
                "tempo": 120.0
            },
            {
                "start_time": 50.3136364,
                "end_time": 50.45,
                "pitch": 31,
                "velocity": 101,
                "duration": 0.1363636,
                "tempo": 120.0
            },
            {
                "start_time": 50.4863636,
                "end_time": 50.6227273,
                "pitch": 38,
                "velocity": 101,
                "duration": 0.1363636,
                "tempo": 120.0
            },
            {
                "start_time": 50.6568182,
                "end_time": 50.7863636,
                "pitch": 43,
                "velocity": 101,
                "duration": 0.1295455,
                "tempo": 120.0
            },
            {
                "start_time": 50.8204545,
                "end_time": 51.1340909,
                "pitch": 36,
                "velocity": 101,
                "duration": 0.3136364,
                "tempo": 120.0
            },
            {
                "start_time": 51.15,
                "end_time": 51.3,
                "pitch": 41,
                "velocity": 101,
                "duration": 0.15,
                "tempo": 120.0
            },
            {
                "start_time": 51.3340909,
                "end_time": 51.4704545,
                "pitch": 39,
                "velocity": 101,
                "duration": 0.1363636,
                "tempo": 120.0
            },
            {
                "start_time": 51.5068182,
                "end_time": 51.6431818,
                "pitch": 38,
                "velocity": 101,
                "duration": 0.1363636,
                "tempo": 120.0
            },
            {
                "start_time": 51.6795455,
                "end_time": 51.8090909,
                "pitch": 31,
                "velocity": 101,
                "duration": 0.1295455,
                "tempo": 120.0
            },
            {
                "start_time": 51.8409091,
                "end_time": 51.9886364,
                "pitch": 38,
                "velocity": 101,
                "duration": 0.1477273,
                "tempo": 120.0
            },
            {
                "start_time": 52.0045455,
                "end_time": 52.1545455,
                "pitch": 43,
                "velocity": 101,
                "duration": 0.15,
                "tempo": 120.0
            },
            {
                "start_time": 52.1886364,
                "end_time": 52.4886364,
                "pitch": 36,
                "velocity": 101,
                "duration": 0.3,
                "tempo": 120.0
            },
            {
                "start_time": 52.5227273,
                "end_time": 52.6568182,
                "pitch": 41,
                "velocity": 101,
                "duration": 0.1340909,
                "tempo": 120.0
            },
            {
                "start_time": 52.6909091,
                "end_time": 52.8409091,
                "pitch": 39,
                "velocity": 101,
                "duration": 0.15,
                "tempo": 120.0
            },
            {
                "start_time": 52.8568182,
                "end_time": 53.0090909,
                "pitch": 38,
                "velocity": 101,
                "duration": 0.1522727,
                "tempo": 120.0
            },
            {
                "start_time": 53.025,
                "end_time": 53.175,
                "pitch": 31,
                "velocity": 101,
                "duration": 0.15,
                "tempo": 120.0
            },
            {
                "start_time": 53.2090909,
                "end_time": 53.3431818,
                "pitch": 38,
                "velocity": 101,
                "duration": 0.1340909,
                "tempo": 120.0
            },
            {
                "start_time": 53.3772727,
                "end_time": 53.5090909,
                "pitch": 43,
                "velocity": 101,
                "duration": 0.1318182,
                "tempo": 120.0
            },
            {
                "start_time": 53.5431818,
                "end_time": 53.8613636,
                "pitch": 36,
                "velocity": 101,
                "duration": 0.3181818,
                "tempo": 120.0
            },
            {
                "start_time": 53.8795455,
                "end_time": 54.0295455,
                "pitch": 41,
                "velocity": 101,
                "duration": 0.15,
                "tempo": 120.0
            },
            {
                "start_time": 54.0454545,
                "end_time": 54.1909091,
                "pitch": 39,
                "velocity": 101,
                "duration": 0.1454545,
                "tempo": 120.0
            },
            {
                "start_time": 54.225,
                "end_time": 54.3545455,
                "pitch": 38,
                "velocity": 101,
                "duration": 0.1295455,
                "tempo": 120.0
            },
            {
                "start_time": 54.3886364,
                "end_time": 54.525,
                "pitch": 36,
                "velocity": 101,
                "duration": 0.1363636,
                "tempo": 120.0
            },
            {
                "start_time": 54.5590909,
                "end_time": 54.6977273,
                "pitch": 43,
                "velocity": 101,
                "duration": 0.1386364,
                "tempo": 120.0
            },
            {
                "start_time": 54.7318182,
                "end_time": 54.8818182,
                "pitch": 48,
                "velocity": 101,
                "duration": 0.15,
                "tempo": 120.0
            },
            {
                "start_time": 54.9,
                "end_time": 55.2136364,
                "pitch": 39,
                "velocity": 101,
                "duration": 0.3136364,
                "tempo": 120.0
            },
            {
                "start_time": 55.2454545,
                "end_time": 55.375,
                "pitch": 43,
                "velocity": 101,
                "duration": 0.1295455,
                "tempo": 120.0
            },
            {
                "start_time": 55.4090909,
                "end_time": 55.5454545,
                "pitch": 48,
                "velocity": 101,
                "duration": 0.1363636,
                "tempo": 120.0
            },
            {
                "start_time": 55.5818182,
                "end_time": 55.7181818,
                "pitch": 43,
                "velocity": 101,
                "duration": 0.1363636,
                "tempo": 120.0
            },
            {
                "start_time": 55.7545455,
                "end_time": 55.9045455,
                "pitch": 36,
                "velocity": 101,
                "duration": 0.15,
                "tempo": 120.0
            },
            {
                "start_time": 55.9204545,
                "end_time": 56.0704545,
                "pitch": 43,
                "velocity": 101,
                "duration": 0.15,
                "tempo": 120.0
            },
            {
                "start_time": 56.0886364,
                "end_time": 56.2340909,
                "pitch": 48,
                "velocity": 101,
                "duration": 0.1454545,
                "tempo": 120.0
            },
            {
                "start_time": 56.2681818,
                "end_time": 56.5681818,
                "pitch": 39,
                "velocity": 101,
                "duration": 0.3,
                "tempo": 120.0
            },
            {
                "start_time": 56.6022727,
                "end_time": 56.7409091,
                "pitch": 43,
                "velocity": 101,
                "duration": 0.1386364,
                "tempo": 120.0
            },
            {
                "start_time": 56.775,
                "end_time": 56.9204545,
                "pitch": 48,
                "velocity": 101,
                "duration": 0.1454545,
                "tempo": 120.0
            },
            {
                "start_time": 56.9386364,
                "end_time": 57.0840909,
                "pitch": 43,
                "velocity": 101,
                "duration": 0.1454545,
                "tempo": 120.0
            },
            {
                "start_time": 57.1159091,
                "end_time": 57.2545455,
                "pitch": 29,
                "velocity": 101,
                "duration": 0.1386364,
                "tempo": 120.0
            },
            {
                "start_time": 57.2886364,
                "end_time": 57.4272727,
                "pitch": 36,
                "velocity": 101,
                "duration": 0.1386364,
                "tempo": 120.0
            },
            {
                "start_time": 57.4613636,
                "end_time": 57.5954545,
                "pitch": 41,
                "velocity": 101,
                "duration": 0.1340909,
                "tempo": 120.0
            },
            {
                "start_time": 57.6272727,
                "end_time": 57.9409091,
                "pitch": 33,
                "velocity": 101,
                "duration": 0.3136364,
                "tempo": 120.0
            },
            {
                "start_time": 57.9590909,
                "end_time": 58.1045455,
                "pitch": 36,
                "velocity": 101,
                "duration": 0.1454545,
                "tempo": 120.0
            },
            {
                "start_time": 58.1363636,
                "end_time": 58.275,
                "pitch": 39,
                "velocity": 101,
                "duration": 0.1386364,
                "tempo": 120.0
            },
            {
                "start_time": 58.3090909,
                "end_time": 58.4477273,
                "pitch": 36,
                "velocity": 101,
                "duration": 0.1386364,
                "tempo": 120.0
            },
            {
                "start_time": 58.4818182,
                "end_time": 58.6113636,
                "pitch": 29,
                "velocity": 101,
                "duration": 0.1295455,
                "tempo": 120.0
            },
            {
                "start_time": 58.6454545,
                "end_time": 58.7909091,
                "pitch": 36,
                "velocity": 101,
                "duration": 0.1454545,
                "tempo": 120.0
            },
            {
                "start_time": 58.8068182,
                "end_time": 58.9568182,
                "pitch": 41,
                "velocity": 101,
                "duration": 0.15,
                "tempo": 120.0
            },
            {
                "start_time": 58.975,
                "end_time": 59.2954545,
                "pitch": 33,
                "velocity": 101,
                "duration": 0.3204545,
                "tempo": 120.0
            },
            {
                "start_time": 59.3318182,
                "end_time": 59.4681818,
                "pitch": 36,
                "velocity": 101,
                "duration": 0.1363636,
                "tempo": 120.0
            },
            {
                "start_time": 59.5045455,
                "end_time": 59.6340909,
                "pitch": 39,
                "velocity": 101,
                "duration": 0.1295455,
                "tempo": 120.0
            },
            {
                "start_time": 59.6659091,
                "end_time": 59.8136364,
                "pitch": 36,
                "velocity": 101,
                "duration": 0.1477273,
                "tempo": 120.0
            },
            {
                "start_time": 59.8295455,
                "end_time": 59.9795455,
                "pitch": 38,
                "velocity": 101,
                "duration": 0.15,
                "tempo": 120.0
            },
            {
                "start_time": 59.9954545,
                "end_time": 60.1454545,
                "pitch": 45,
                "velocity": 101,
                "duration": 0.15,
                "tempo": 120.0
            },
            {
                "start_time": 60.1795455,
                "end_time": 60.3181818,
                "pitch": 50,
                "velocity": 101,
                "duration": 0.1386364,
                "tempo": 120.0
            },
            {
                "start_time": 60.3522727,
                "end_time": 60.6545455,
                "pitch": 42,
                "velocity": 101,
                "duration": 0.3022727,
                "tempo": 120.0
            },
            {
                "start_time": 60.6863636,
                "end_time": 60.8340909,
                "pitch": 48,
                "velocity": 101,
                "duration": 0.1477273,
                "tempo": 120.0
            },
            {
                "start_time": 60.85,
                "end_time": 60.9954545,
                "pitch": 46,
                "velocity": 101,
                "duration": 0.1454545,
                "tempo": 120.0
            },
            {
                "start_time": 61.0136364,
                "end_time": 61.1590909,
                "pitch": 45,
                "velocity": 101,
                "duration": 0.1454545,
                "tempo": 120.0
            },
            {
                "start_time": 61.1931818,
                "end_time": 61.3295455,
                "pitch": 38,
                "velocity": 101,
                "duration": 0.1363636,
                "tempo": 120.0
            },
            {
                "start_time": 61.3636364,
                "end_time": 61.5022727,
                "pitch": 45,
                "velocity": 101,
                "duration": 0.1386364,
                "tempo": 120.0
            },
            {
                "start_time": 61.5363636,
                "end_time": 61.6704545,
                "pitch": 50,
                "velocity": 101,
                "duration": 0.1340909,
                "tempo": 120.0
            },
            {
                "start_time": 61.7045455,
                "end_time": 62.0181818,
                "pitch": 42,
                "velocity": 101,
                "duration": 0.3136364,
                "tempo": 120.0
            },
            {
                "start_time": 62.0340909,
                "end_time": 62.1795455,
                "pitch": 48,
                "velocity": 101,
                "duration": 0.1454545,
                "tempo": 120.0
            },
            {
                "start_time": 62.2136364,
                "end_time": 62.35,
                "pitch": 46,
                "velocity": 101,
                "duration": 0.1363636,
                "tempo": 120.0
            },
            {
                "start_time": 62.3863636,
                "end_time": 62.5227273,
                "pitch": 45,
                "velocity": 101,
                "duration": 0.1363636,
                "tempo": 120.0
            },
            {
                "start_time": 62.5590909,
                "end_time": 62.6909091,
                "pitch": 31,
                "velocity": 101,
                "duration": 0.1318182,
                "tempo": 120.0
            },
            {
                "start_time": 62.725,
                "end_time": 62.875,
                "pitch": 38,
                "velocity": 101,
                "duration": 0.15,
                "tempo": 120.0
            },
            {
                "start_time": 62.8931818,
                "end_time": 63.0386364,
                "pitch": 43,
                "velocity": 101,
                "duration": 0.1454545,
                "tempo": 120.0
            },
            {
                "start_time": 63.0727273,
                "end_time": 63.3727273,
                "pitch": 34,
                "velocity": 101,
                "duration": 0.3,
                "tempo": 120.0
            },
            {
                "start_time": 63.4068182,
                "end_time": 63.5431818,
                "pitch": 39,
                "velocity": 101,
                "duration": 0.1363636,
                "tempo": 120.0
            },
            {
                "start_time": 63.5795455,
                "end_time": 63.725,
                "pitch": 34,
                "velocity": 101,
                "duration": 0.1454545,
                "tempo": 120.0
            },
            {
                "start_time": 63.7409091,
                "end_time": 63.8886364,
                "pitch": 31,
                "velocity": 101,
                "duration": 0.1477273,
                "tempo": 120.0
            },
            {
                "start_time": 63.9045455,
                "end_time": 64.0545455,
                "pitch": 31,
                "velocity": 101,
                "duration": 0.15,
                "tempo": 120.0
            },
            {
                "start_time": 64.0886364,
                "end_time": 64.2204545,
                "pitch": 38,
                "velocity": 101,
                "duration": 0.1318182,
                "tempo": 120.0
            },
            {
                "start_time": 64.2545455,
                "end_time": 64.3931818,
                "pitch": 43,
                "velocity": 101,
                "duration": 0.1386364,
                "tempo": 120.0
            },
            {
                "start_time": 64.4272727,
                "end_time": 64.7454545,
                "pitch": 34,
                "velocity": 101,
                "duration": 0.3181818,
                "tempo": 120.0
            },
            {
                "start_time": 64.7636364,
                "end_time": 64.9090909,
                "pitch": 39,
                "velocity": 101,
                "duration": 0.1454545,
                "tempo": 120.0
            },
            {
                "start_time": 64.925,
                "end_time": 65.075,
                "pitch": 34,
                "velocity": 101,
                "duration": 0.15,
                "tempo": 120.0
            },
            {
                "start_time": 65.1090909,
                "end_time": 65.2431818,
                "pitch": 31,
                "velocity": 101,
                "duration": 0.1340909,
                "tempo": 120.0
            },
            {
                "start_time": 65.2772727,
                "end_time": 65.4113636,
                "pitch": 36,
                "velocity": 101,
                "duration": 0.1340909,
                "tempo": 120.0
            },
            {
                "start_time": 65.4454545,
                "end_time": 65.5772727,
                "pitch": 43,
                "velocity": 101,
                "duration": 0.1318182,
                "tempo": 120.0
            },
            {
                "start_time": 65.6113636,
                "end_time": 65.7613636,
                "pitch": 48,
                "velocity": 101,
                "duration": 0.15,
                "tempo": 120.0
            },
            {
                "start_time": 65.7795455,
                "end_time": 66.0931818,
                "pitch": 39,
                "velocity": 101,
                "duration": 0.3136364,
                "tempo": 120.0
            },
            {
                "start_time": 66.125,
                "end_time": 66.2545455,
                "pitch": 43,
                "velocity": 101,
                "duration": 0.1295455,
                "tempo": 120.0
            },
            {
                "start_time": 66.2886364,
                "end_time": 66.425,
                "pitch": 48,
                "velocity": 101,
                "duration": 0.1363636,
                "tempo": 120.0
            },
            {
                "start_time": 66.4590909,
                "end_time": 66.5977273,
                "pitch": 43,
                "velocity": 101,
                "duration": 0.1386364,
                "tempo": 120.0
            },
            {
                "start_time": 66.6340909,
                "end_time": 66.7840909,
                "pitch": 36,
                "velocity": 101,
                "duration": 0.15,
                "tempo": 120.0
            },
            {
                "start_time": 66.8,
                "end_time": 66.95,
                "pitch": 43,
                "velocity": 101,
                "duration": 0.15,
                "tempo": 120.0
            },
            {
                "start_time": 66.9681818,
                "end_time": 67.1136364,
                "pitch": 48,
                "velocity": 101,
                "duration": 0.1454545,
                "tempo": 120.0
            },
            {
                "start_time": 67.1454545,
                "end_time": 67.4477273,
                "pitch": 39,
                "velocity": 101,
                "duration": 0.3022727,
                "tempo": 120.0
            },
            {
                "start_time": 67.4818182,
                "end_time": 67.6181818,
                "pitch": 43,
                "velocity": 101,
                "duration": 0.1363636,
                "tempo": 120.0
            },
            {
                "start_time": 67.6545455,
                "end_time": 67.8045455,
                "pitch": 48,
                "velocity": 101,
                "duration": 0.15,
                "tempo": 120.0
            },
            {
                "start_time": 67.8204545,
                "end_time": 67.9727273,
                "pitch": 43,
                "velocity": 101,
                "duration": 0.1522727,
                "tempo": 120.0
            },
            {
                "start_time": 68.0068182,
                "end_time": 68.1431818,
                "pitch": 29,
                "velocity": 101,
                "duration": 0.1363636,
                "tempo": 120.0
            },
            {
                "start_time": 68.1772727,
                "end_time": 68.3159091,
                "pitch": 36,
                "velocity": 101,
                "duration": 0.1386364,
                "tempo": 120.0
            },
            {
                "start_time": 68.35,
                "end_time": 68.4795455,
                "pitch": 41,
                "velocity": 101,
                "duration": 0.1295455,
                "tempo": 120.0
            },
            {
                "start_time": 68.5136364,
                "end_time": 68.825,
                "pitch": 33,
                "velocity": 101,
                "duration": 0.3113636,
                "tempo": 120.0
            },
            {
                "start_time": 68.8431818,
                "end_time": 68.9931818,
                "pitch": 36,
                "velocity": 101,
                "duration": 0.15,
                "tempo": 120.0
            },
            {
                "start_time": 69.0272727,
                "end_time": 69.1590909,
                "pitch": 39,
                "velocity": 101,
                "duration": 0.1318182,
                "tempo": 120.0
            },
            {
                "start_time": 69.1931818,
                "end_time": 69.3272727,
                "pitch": 36,
                "velocity": 101,
                "duration": 0.1340909,
                "tempo": 120.0
            },
            {
                "start_time": 69.3613636,
                "end_time": 69.4954545,
                "pitch": 29,
                "velocity": 101,
                "duration": 0.1340909,
                "tempo": 120.0
            },
            {
                "start_time": 69.5295455,
                "end_time": 69.6795455,
                "pitch": 36,
                "velocity": 101,
                "duration": 0.15,
                "tempo": 120.0
            },
            {
                "start_time": 69.6954545,
                "end_time": 69.8431818,
                "pitch": 41,
                "velocity": 101,
                "duration": 0.1477273,
                "tempo": 120.0
            },
            {
                "start_time": 69.8590909,
                "end_time": 70.175,
                "pitch": 33,
                "velocity": 101,
                "duration": 0.3159091,
                "tempo": 120.0
            },
            {
                "start_time": 70.2113636,
                "end_time": 70.3477273,
                "pitch": 36,
                "velocity": 101,
                "duration": 0.1363636,
                "tempo": 120.0
            },
            {
                "start_time": 70.3840909,
                "end_time": 70.5159091,
                "pitch": 39,
                "velocity": 101,
                "duration": 0.1318182,
                "tempo": 120.0
            },
            {
                "start_time": 70.55,
                "end_time": 70.7,
                "pitch": 36,
                "velocity": 101,
                "duration": 0.15,
                "tempo": 120.0
            },
            {
                "start_time": 70.7181818,
                "end_time": 70.8636364,
                "pitch": 38,
                "velocity": 101,
                "duration": 0.1454545,
                "tempo": 120.0
            },
            {
                "start_time": 70.8795455,
                "end_time": 71.0272727,
                "pitch": 45,
                "velocity": 101,
                "duration": 0.1477273,
                "tempo": 120.0
            },
            {
                "start_time": 71.0590909,
                "end_time": 71.1954545,
                "pitch": 50,
                "velocity": 101,
                "duration": 0.1363636,
                "tempo": 120.0
            },
            {
                "start_time": 71.2318182,
                "end_time": 71.5340909,
                "pitch": 42,
                "velocity": 101,
                "duration": 0.3022727,
                "tempo": 120.0
            },
            {
                "start_time": 71.5659091,
                "end_time": 71.7113636,
                "pitch": 48,
                "velocity": 101,
                "duration": 0.1454545,
                "tempo": 120.0
            },
            {
                "start_time": 71.7295455,
                "end_time": 71.8795455,
                "pitch": 46,
                "velocity": 101,
                "duration": 0.15,
                "tempo": 120.0
            },
            {
                "start_time": 71.8954545,
                "end_time": 72.0454545,
                "pitch": 45,
                "velocity": 101,
                "duration": 0.15,
                "tempo": 120.0
            },
            {
                "start_time": 72.0795455,
                "end_time": 72.2181818,
                "pitch": 38,
                "velocity": 101,
                "duration": 0.1386364,
                "tempo": 120.0
            },
            {
                "start_time": 72.2522727,
                "end_time": 72.3909091,
                "pitch": 45,
                "velocity": 101,
                "duration": 0.1386364,
                "tempo": 120.0
            },
            {
                "start_time": 72.425,
                "end_time": 72.5545455,
                "pitch": 50,
                "velocity": 101,
                "duration": 0.1295455,
                "tempo": 120.0
            },
            {
                "start_time": 72.5863636,
                "end_time": 72.9,
                "pitch": 42,
                "velocity": 101,
                "duration": 0.3136364,
                "tempo": 120.0
            },
            {
                "start_time": 72.9340909,
                "end_time": 73.0681818,
                "pitch": 48,
                "velocity": 101,
                "duration": 0.1340909,
                "tempo": 120.0
            },
            {
                "start_time": 73.1022727,
                "end_time": 73.2386364,
                "pitch": 46,
                "velocity": 101,
                "duration": 0.1363636,
                "tempo": 120.0
            },
            {
                "start_time": 73.2727273,
                "end_time": 73.4113636,
                "pitch": 45,
                "velocity": 101,
                "duration": 0.1386364,
                "tempo": 120.0
            },
            {
                "start_time": 73.4454545,
                "end_time": 73.5931818,
                "pitch": 38,
                "velocity": 101,
                "duration": 0.1477273,
                "tempo": 120.0
            },
            {
                "start_time": 73.6090909,
                "end_time": 73.7545455,
                "pitch": 45,
                "velocity": 101,
                "duration": 0.1454545,
                "tempo": 120.0
            },
            {
                "start_time": 73.7727273,
                "end_time": 73.9227273,
                "pitch": 50,
                "velocity": 101,
                "duration": 0.15,
                "tempo": 120.0
            },
            {
                "start_time": 73.9545455,
                "end_time": 74.2568182,
                "pitch": 42,
                "velocity": 101,
                "duration": 0.3022727,
                "tempo": 120.0
            },
            {
                "start_time": 74.2909091,
                "end_time": 74.425,
                "pitch": 48,
                "velocity": 101,
                "duration": 0.1340909,
                "tempo": 120.0
            },
            {
                "start_time": 74.4568182,
                "end_time": 74.6068182,
                "pitch": 46,
                "velocity": 101,
                "duration": 0.15,
                "tempo": 120.0
            },
            {
                "start_time": 74.625,
                "end_time": 74.775,
                "pitch": 45,
                "velocity": 101,
                "duration": 0.15,
                "tempo": 120.0
            },
            {
                "start_time": 74.7931818,
                "end_time": 74.9386364,
                "pitch": 38,
                "velocity": 101,
                "duration": 0.1454545,
                "tempo": 120.0
            },
            {
                "start_time": 74.9704545,
                "end_time": 75.1022727,
                "pitch": 45,
                "velocity": 101,
                "duration": 0.1318182,
                "tempo": 120.0
            },
            {
                "start_time": 75.1340909,
                "end_time": 75.2704545,
                "pitch": 50,
                "velocity": 101,
                "duration": 0.1363636,
                "tempo": 120.0
            },
            {
                "start_time": 75.3068182,
                "end_time": 75.625,
                "pitch": 42,
                "velocity": 101,
                "duration": 0.3181818,
                "tempo": 120.0
            },
            {
                "start_time": 75.6409091,
                "end_time": 75.7863636,
                "pitch": 48,
                "velocity": 101,
                "duration": 0.1454545,
                "tempo": 120.0
            },
            {
                "start_time": 75.8045455,
                "end_time": 75.9545455,
                "pitch": 46,
                "velocity": 101,
                "duration": 0.15,
                "tempo": 120.0
            },
            {
                "start_time": 75.9886364,
                "end_time": 76.1227273,
                "pitch": 45,
                "velocity": 101,
                "duration": 0.1340909,
                "tempo": 120.0
            },
            {
                "start_time": 76.1568182,
                "end_time": 76.2431818,
                "pitch": 31,
                "velocity": 101,
                "duration": 0.0863636,
                "tempo": 120.0
            }
        ]
    }
}