{
    "mood": "angry",
    "instruments": {
        "Acoustic Grand Piano": [
            {
                "start_time": 12.8977273,
                "end_time": 13.0977273,
                "pitch": 69,
                "velocity": 80,
                "duration": 0.2,
                "tempo": 120.0
            },
            {
                "start_time": 13.2,
                "end_time": 13.4,
                "pitch": 67,
                "velocity": 80,
                "duration": 0.2,
                "tempo": 120.0
            },
            {
                "start_time": 13.5022727,
                "end_time": 13.7022727,
                "pitch": 69,
                "velocity": 80,
                "duration": 0.2,
                "tempo": 120.0
            },
            {
                "start_time": 14.7090909,
                "end_time": 14.8090909,
                "pitch": 81,
                "velocity": 101,
                "duration": 0.1,
                "tempo": 120.0
            },
            {
                "start_time": 14.8090909,
                "end_time": 14.9090909,
                "pitch": 81,
                "velocity": 101,
                "duration": 0.1,
                "tempo": 120.0
            },
            {
                "start_time": 16.1204545,
                "end_time": 16.3204545,
                "pitch": 69,
                "velocity": 80,
                "duration": 0.2,
                "tempo": 120.0
            },
            {
                "start_time": 16.4227273,
                "end_time": 16.6227273,
                "pitch": 67,
                "velocity": 80,
                "duration": 0.2,
                "tempo": 120.0
            },
            {
                "start_time": 16.7227273,
                "end_time": 16.9227273,
                "pitch": 69,
                "velocity": 80,
                "duration": 0.2,
                "tempo": 120.0
            },
            {
                "start_time": 17.9272727,
                "end_time": 18.0272727,
                "pitch": 81,
                "velocity": 101,
                "duration": 0.1,
                "tempo": 120.0
            },
            {
                "start_time": 18.0272727,
                "end_time": 18.1272727,
                "pitch": 81,
                "velocity": 101,
                "duration": 0.1,
                "tempo": 120.0
            }
        ],
        "Acoustic Bass": [
            {
                "start_time": 0.0181818,
                "end_time": 0.3136364,
                "pitch": 43,
                "velocity": 80,
                "duration": 0.2954545,
                "tempo": 120.0
            },
            {
                "start_time": 0.3159091,
                "end_time": 0.4136364,
                "pitch": 45,
                "velocity": 80,
                "duration": 0.0977273,
                "tempo": 120.0
            },
            {
                "start_time": 0.6159091,
                "end_time": 0.8159091,
                "pitch": 40,
                "velocity": 80,
                "duration": 0.2,
                "tempo": 120.0
            },
            {
                "start_time": 0.8159091,
                "end_time": 1.0159091,
                "pitch": 43,
                "velocity": 80,
                "duration": 0.2,
                "tempo": 120.0
            },
            {
                "start_time": 1.0181818,
                "end_time": 1.2204545,
                "pitch": 43,
                "velocity": 80,
                "duration": 0.2022727,
                "tempo": 120.0
            },
            {
                "start_time": 1.2204545,
                "end_time": 1.3181818,
                "pitch": 43,
                "velocity": 80,
                "duration": 0.0977273,
                "tempo": 120.0
            },
            {
                "start_time": 1.3181818,
                "end_time": 1.4204545,
                "pitch": 45,
                "velocity": 80,
                "duration": 0.1022727,
                "tempo": 120.0
            },
            {
                "start_time": 1.5181818,
                "end_time": 1.6204545,
                "pitch": 40,
                "velocity": 80,
                "duration": 0.1022727,
                "tempo": 120.0
            },
            {
                "start_time": 1.6204545,
                "end_time": 1.9227273,
                "pitch": 43,
                "velocity": 80,
                "duration": 0.3022727,
                "tempo": 120.0
            },
            {
                "start_time": 1.9227273,
                "end_time": 2.0204545,
                "pitch": 45,
                "velocity": 80,
                "duration": 0.0977273,
                "tempo": 120.0
            },
            {
                "start_time": 2.2227273,
                "end_time": 2.4227273,
                "pitch": 40,
                "velocity": 80,
                "duration": 0.2,
                "tempo": 120.0
            },
            {
                "start_time": 2.425,
                "end_time": 2.625,
                "pitch": 43,
                "velocity": 80,
                "duration": 0.2,
                "tempo": 120.0
            },
            {
                "start_time": 2.6272727,
                "end_time": 2.825,
                "pitch": 43,
                "velocity": 80,
                "duration": 0.1977273,
                "tempo": 120.0
            },
            {
                "start_time": 2.8272727,
                "end_time": 2.9272727,
                "pitch": 43,
                "velocity": 80,
                "duration": 0.1,
                "tempo": 120.0
            },
            {
                "start_time": 2.9272727,
                "end_time": 3.025,
                "pitch": 45,
                "velocity": 80,
                "duration": 0.0977273,
                "tempo": 120.0
            },
            {
                "start_time": 3.1272727,
                "end_time": 3.2272727,
                "pitch": 40,
                "velocity": 80,
                "duration": 0.1,
                "tempo": 120.0
            },
            {
                "start_time": 3.2295455,
                "end_time": 3.5272727,
                "pitch": 43,
                "velocity": 80,
                "duration": 0.2977273,
                "tempo": 120.0
            },
            {
                "start_time": 3.5272727,
                "end_time": 3.6272727,
                "pitch": 45,
                "velocity": 80,
                "duration": 0.1,
                "tempo": 120.0
            },
            {
                "start_time": 3.8295455,
                "end_time": 4.0272727,
                "pitch": 40,
                "velocity": 80,
                "duration": 0.1977273,
                "tempo": 120.0
            },
            {
                "start_time": 4.0295455,
                "end_time": 4.2272727,
                "pitch": 43,
                "velocity": 80,
                "duration": 0.1977273,
                "tempo": 120.0
            },
            {
                "start_time": 4.2272727,
                "end_time": 4.4272727,
                "pitch": 43,
                "velocity": 80,
                "duration": 0.2,
                "tempo": 120.0
            },
            {
                "start_time": 4.4272727,
                "end_time": 4.5272727,
                "pitch": 43,
                "velocity": 80,
                "duration": 0.1,
                "tempo": 120.0
            },
            {
                "start_time": 4.5295455,
                "end_time": 4.6295455,
                "pitch": 45,
                "velocity": 80,
                "duration": 0.1,
                "tempo": 120.0
            },
            {
                "start_time": 4.7295455,
                "end_time": 4.8318182,
                "pitch": 40,
                "velocity": 80,
                "duration": 0.1022727,
                "tempo": 120.0
            },
            {
                "start_time": 4.8340909,
                "end_time": 5.1409091,
                "pitch": 43,
                "velocity": 80,
                "duration": 0.3068182,
                "tempo": 120.0
            },
            {
                "start_time": 5.1409091,
                "end_time": 5.2409091,
                "pitch": 45,
                "velocity": 80,
                "duration": 0.1,
                "tempo": 120.0
            },
            {
                "start_time": 5.4409091,
                "end_time": 5.6363636,
                "pitch": 40,
                "velocity": 80,
                "duration": 0.1954545,
                "tempo": 120.0
            },
            {
                "start_time": 5.6363636,
                "end_time": 5.8363636,
                "pitch": 43,
                "velocity": 80,
                "duration": 0.2,
                "tempo": 120.0
            },
            {
                "start_time": 5.8363636,
                "end_time": 6.0386364,
                "pitch": 43,
                "velocity": 80,
                "duration": 0.2022727,
                "tempo": 120.0
            },
            {
                "start_time": 6.0386364,
                "end_time": 6.1409091,
                "pitch": 43,
                "velocity": 80,
                "duration": 0.1022727,
                "tempo": 120.0
            },
            {
                "start_time": 6.1409091,
                "end_time": 6.2454545,
                "pitch": 45,
                "velocity": 80,
                "duration": 0.1045455,
                "tempo": 120.0
            },
            {
                "start_time": 6.3454545,
                "end_time": 6.4522727,
                "pitch": 40,
                "velocity": 80,
                "duration": 0.1068182,
                "tempo": 120.0
            },
            {
                "start_time": 6.4522727,
                "end_time": 6.7522727,
                "pitch": 43,
                "velocity": 80,
                "duration": 0.3,
                "tempo": 120.0
            },
            {
                "start_time": 6.7545455,
                "end_time": 6.8522727,
                "pitch": 45,
                "velocity": 80,
                "duration": 0.0977273,
                "tempo": 120.0
            },
            {
                "start_time": 7.0545455,
                "end_time": 7.2568182,
                "pitch": 40,
                "velocity": 80,
                "duration": 0.2022727,
                "tempo": 120.0
            },
            {
                "start_time": 7.2568182,
                "end_time": 7.4568182,
                "pitch": 43,
                "velocity": 80,
                "duration": 0.2,
                "tempo": 120.0
            },
            {
                "start_time": 7.4568182,
                "end_time": 7.6568182,
                "pitch": 43,
                "velocity": 80,
                "duration": 0.2,
                "tempo": 120.0
            },
            {
                "start_time": 7.6568182,
                "end_time": 7.7568182,
                "pitch": 43,
                "velocity": 80,
                "duration": 0.1,
                "tempo": 120.0
            },
            {
                "start_time": 7.7568182,
                "end_time": 7.8590909,
                "pitch": 45,
                "velocity": 80,
                "duration": 0.1022727,
                "tempo": 120.0
            },
            {
                "start_time": 7.9590909,
                "end_time": 8.0613636,
                "pitch": 40,
                "velocity": 80,
                "duration": 0.1022727,
                "tempo": 120.0
            },
            {
                "start_time": 8.0613636,
                "end_time": 8.3613636,
                "pitch": 43,
                "velocity": 80,
                "duration": 0.3,
                "tempo": 120.0
            },
            {
                "start_time": 8.3613636,
                "end_time": 8.4590909,
                "pitch": 45,
                "velocity": 80,
                "duration": 0.0977273,
                "tempo": 120.0
            },
            {
                "start_time": 8.6636364,
                "end_time": 8.8636364,
                "pitch": 40,
                "velocity": 80,
                "duration": 0.2,
                "tempo": 120.0
            },
            {
                "start_time": 8.8659091,
                "end_time": 9.0659091,
                "pitch": 43,
                "velocity": 80,
                "duration": 0.2,
                "tempo": 120.0
            },
            {
                "start_time": 9.0659091,
                "end_time": 9.2659091,
                "pitch": 43,
                "velocity": 80,
                "duration": 0.2,
                "tempo": 120.0
            },
            {
                "start_time": 9.2681818,
                "end_time": 9.3681818,
                "pitch": 43,
                "velocity": 80,
                "duration": 0.1,
                "tempo": 120.0
            },
            {
                "start_time": 9.3681818,
                "end_time": 9.4681818,
                "pitch": 45,
                "velocity": 80,
                "duration": 0.1,
                "tempo": 120.0
            },
            {
                "start_time": 9.5704545,
                "end_time": 9.6704545,
                "pitch": 40,
                "velocity": 80,
                "duration": 0.1,
                "tempo": 120.0
            },
            {
                "start_time": 9.6727273,
                "end_time": 9.9704545,
                "pitch": 43,
                "velocity": 80,
                "duration": 0.2977273,
                "tempo": 120.0
            },
            {
                "start_time": 9.9727273,
                "end_time": 10.0704545,
                "pitch": 45,
                "velocity": 80,
                "duration": 0.0977273,
                "tempo": 120.0
            },
            {
                "start_time": 10.2727273,
                "end_time": 10.475,
                "pitch": 40,
                "velocity": 80,
                "duration": 0.2022727,
                "tempo": 120.0
            },
            {
                "start_time": 10.475,
                "end_time": 10.6772727,
                "pitch": 43,
                "velocity": 80,
                "duration": 0.2022727,
                "tempo": 120.0
            },
            {
                "start_time": 10.6772727,
                "end_time": 10.8772727,
                "pitch": 43,
                "velocity": 80,
                "duration": 0.2,
                "tempo": 120.0
            },
            {
                "start_time": 10.8795455,
                "end_time": 10.9795455,
                "pitch": 43,
                "velocity": 80,
                "duration": 0.1,
                "tempo": 120.0
            },
            {
                "start_time": 10.9795455,
                "end_time": 11.0795455,
                "pitch": 45,
                "velocity": 80,
                "duration": 0.1,
                "tempo": 120.0
            },
            {
                "start_time": 11.1818182,
                "end_time": 11.2818182,
                "pitch": 40,
                "velocity": 80,
                "duration": 0.1,
                "tempo": 120.0
            },
            {
                "start_time": 11.2818182,
                "end_time": 11.5886364,
                "pitch": 43,
                "velocity": 80,
                "duration": 0.3068182,
                "tempo": 120.0
            },
            {
                "start_time": 11.5909091,
                "end_time": 11.6931818,
                "pitch": 45,
                "velocity": 80,
                "duration": 0.1022727,
                "tempo": 120.0
            },
            {
                "start_time": 11.8886364,
                "end_time": 12.0840909,
                "pitch": 40,
                "velocity": 80,
                "duration": 0.1954545,
                "tempo": 120.0
            },
            {
                "start_time": 12.0840909,
                "end_time": 12.2840909,
                "pitch": 43,
                "velocity": 80,
                "duration": 0.2,
                "tempo": 120.0
            },
            {
                "start_time": 12.2863636,
                "end_time": 12.4886364,
                "pitch": 43,
                "velocity": 80,
                "duration": 0.2022727,
                "tempo": 120.0
            },
            {
                "start_time": 12.4886364,
                "end_time": 12.5886364,
                "pitch": 43,
                "velocity": 80,
                "duration": 0.1,
                "tempo": 120.0
            },
            {
                "start_time": 12.5909091,
                "end_time": 12.6931818,
                "pitch": 45,
                "velocity": 80,
                "duration": 0.1022727,
                "tempo": 120.0
            },
            {
                "start_time": 12.7954545,
                "end_time": 12.9,
                "pitch": 40,
                "velocity": 80,
                "duration": 0.1045455,
                "tempo": 120.0
            },
            {
                "start_time": 12.9022727,
                "end_time": 13.0,
                "pitch": 36,
                "velocity": 80,
                "duration": 0.0977273,
                "tempo": 120.0
            },
            {
                "start_time": 13.0,
                "end_time": 13.0977273,
                "pitch": 43,
                "velocity": 80,
                "duration": 0.0977273,
                "tempo": 120.0
            },
            {
                "start_time": 13.1,
                "end_time": 13.3022727,
                "pitch": 36,
                "velocity": 80,
                "duration": 0.2022727,
                "tempo": 120.0
            },
            {
                "start_time": 13.3022727,
                "end_time": 13.4,
                "pitch": 38,
                "velocity": 80,
                "duration": 0.0977273,
                "tempo": 120.0
            },
            {
                "start_time": 13.4,
                "end_time": 13.6045455,
                "pitch": 41,
                "velocity": 80,
                "duration": 0.2045455,
                "tempo": 120.0
            },
            {
                "start_time": 13.6045455,
                "end_time": 13.7068182,
                "pitch": 43,
                "velocity": 80,
                "duration": 0.1022727,
                "tempo": 120.0
            },
            {
                "start_time": 13.7068182,
                "end_time": 13.8045455,
                "pitch": 47,
                "velocity": 80,
                "duration": 0.0977273,
                "tempo": 120.0
            },
            {
                "start_time": 13.8068182,
                "end_time": 14.0068182,
                "pitch": 48,
                "velocity": 80,
                "duration": 0.2,
                "tempo": 120.0
            },
            {
                "start_time": 14.0068182,
                "end_time": 14.3068182,
                "pitch": 41,
                "velocity": 80,
                "duration": 0.3,
                "tempo": 120.0
            },
            {
                "start_time": 14.3090909,
                "end_time": 14.5068182,
                "pitch": 43,
                "velocity": 80,
                "duration": 0.1977273,
                "tempo": 120.0
            },
            {
                "start_time": 14.5068182,
                "end_time": 14.7090909,
                "pitch": 45,
                "velocity": 80,
                "duration": 0.2022727,
                "tempo": 120.0
            },
            {
                "start_time": 14.9113636,
                "end_time": 15.0090909,
                "pitch": 50,
                "velocity": 80,
                "duration": 0.0977273,
                "tempo": 120.0
            },
            {
                "start_time": 15.0113636,
                "end_time": 15.2113636,
                "pitch": 43,
                "velocity": 80,
                "duration": 0.2,
                "tempo": 120.0
            },
            {
                "start_time": 15.2113636,
                "end_time": 15.3159091,
                "pitch": 45,
                "velocity": 80,
                "duration": 0.1045455,
                "tempo": 120.0
            },
            {
                "start_time": 15.3181818,
                "end_time": 15.5159091,
                "pitch": 38,
                "velocity": 80,
                "duration": 0.1977273,
                "tempo": 120.0
            },
            {
                "start_time": 15.5181818,
                "end_time": 15.6159091,
                "pitch": 33,
                "velocity": 80,
                "duration": 0.0977273,
                "tempo": 120.0
            },
            {
                "start_time": 15.6181818,
                "end_time": 15.8181818,
                "pitch": 41,
                "velocity": 80,
                "duration": 0.2,
                "tempo": 120.0
            },
            {
                "start_time": 15.8181818,
                "end_time": 15.9204545,
                "pitch": 33,
                "velocity": 80,
                "duration": 0.1022727,
                "tempo": 120.0
            },
            {
                "start_time": 15.9204545,
                "end_time": 16.1227273,
                "pitch": 43,
                "velocity": 80,
                "duration": 0.2022727,
                "tempo": 120.0
            },
            {
                "start_time": 16.1227273,
                "end_time": 16.2204545,
                "pitch": 36,
                "velocity": 80,
                "duration": 0.0977273,
                "tempo": 120.0
            },
            {
                "start_time": 16.2204545,
                "end_time": 16.3204545,
                "pitch": 43,
                "velocity": 80,
                "duration": 0.1,
                "tempo": 120.0
            },
            {
                "start_time": 16.3227273,
                "end_time": 16.5227273,
                "pitch": 36,
                "velocity": 80,
                "duration": 0.2,
                "tempo": 120.0
            },
            {
                "start_time": 16.5227273,
                "end_time": 16.6227273,
                "pitch": 38,
                "velocity": 80,
                "duration": 0.1,
                "tempo": 120.0
            },
            {
                "start_time": 16.6227273,
                "end_time": 16.8227273,
                "pitch": 41,
                "velocity": 80,
                "duration": 0.2,
                "tempo": 120.0
            },
            {
                "start_time": 16.8227273,
                "end_time": 16.9272727,
                "pitch": 43,
                "velocity": 80,
                "duration": 0.1045455,
                "tempo": 120.0
            },
            {
                "start_time": 16.9272727,
                "end_time": 17.025,
                "pitch": 47,
                "velocity": 80,
                "duration": 0.0977273,
                "tempo": 120.0
            },
            {
                "start_time": 17.025,
                "end_time": 17.225,
                "pitch": 48,
                "velocity": 80,
                "duration": 0.2,
                "tempo": 120.0
            },
            {
                "start_time": 17.225,
                "end_time": 17.5272727,
                "pitch": 41,
                "velocity": 80,
                "duration": 0.3022727,
                "tempo": 120.0
            },
            {
                "start_time": 17.5272727,
                "end_time": 17.7272727,
                "pitch": 43,
                "velocity": 80,
                "duration": 0.2,
                "tempo": 120.0
            },
            {
                "start_time": 17.7272727,
                "end_time": 17.9295455,
                "pitch": 45,
                "velocity": 80,
                "duration": 0.2022727,
                "tempo": 120.0
            },
            {
                "start_time": 18.1295455,
                "end_time": 18.2272727,
                "pitch": 50,
                "velocity": 80,
                "duration": 0.0977273,
                "tempo": 120.0
            },
            {
                "start_time": 18.2295455,
                "end_time": 18.4295455,
                "pitch": 43,
                "velocity": 80,
                "duration": 0.2,
                "tempo": 120.0
            },
            {
                "start_time": 18.4295455,
                "end_time": 18.5340909,
                "pitch": 45,
                "velocity": 80,
                "duration": 0.1045455,
                "tempo": 120.0
            },
            {
                "start_time": 18.5340909,
                "end_time": 18.7318182,
                "pitch": 38,
                "velocity": 80,
                "duration": 0.1977273,
                "tempo": 120.0
            },
            {
                "start_time": 18.7340909,
                "end_time": 18.8318182,
                "pitch": 33,
                "velocity": 80,
                "duration": 0.0977273,
                "tempo": 120.0
            },
            {
                "start_time": 18.8340909,
                "end_time": 19.0318182,
                "pitch": 41,
                "velocity": 80,
                "duration": 0.1977273,
                "tempo": 120.0
            },
            {
                "start_time": 19.0340909,
                "end_time": 19.1318182,
                "pitch": 33,
                "velocity": 80,
                "duration": 0.0977273,
                "tempo": 120.0
            },
            {
                "start_time": 19.1340909,
                "end_time": 19.3318182,
                "pitch": 43,
                "velocity": 80,
                "duration": 0.1977273,
                "tempo": 120.0
            }
        ],
        "Electric Piano 1": [
            {
                "start_time": 0.0159091,
                "end_time": 0.1113636,
                "pitch": 60,
                "velocity": 101,
                "duration": 0.0954545,
                "tempo": 120.0
            },
            {
                "start_time": 0.1136364,
                "end_time": 0.2113636,
                "pitch": 62,
                "velocity": 101,
                "duration": 0.0977273,
                "tempo": 120.0
            },
            {
                "start_time": 0.2136364,
                "end_time": 0.4113636,
                "pitch": 69,
                "velocity": 101,
                "duration": 0.1977273,
                "tempo": 120.0
            },
            {
                "start_time": 0.6136364,
                "end_time": 0.9318182,
                "pitch": 67,
                "velocity": 101,
                "duration": 0.3181818,
                "tempo": 120.0
            },
            {
                "start_time": 0.9318182,
                "end_time": 0.9477273,
                "pitch": 67,
                "velocity": 101,
                "duration": 0.0159091,
                "tempo": 120.0
            },
            {
                "start_time": 0.9477273,
                "end_time": 1.0136364,
                "pitch": 67,
                "velocity": 101,
                "duration": 0.0659091,
                "tempo": 120.0
            },
            {
                "start_time": 1.0159091,
                "end_time": 1.2159091,
                "pitch": 65,
                "velocity": 101,
                "duration": 0.2,
                "tempo": 120.0
            },
            {
                "start_time": 1.2181818,
                "end_time": 1.6,
                "pitch": 67,
                "velocity": 101,
                "duration": 0.3818182,
                "tempo": 120.0
            },
            {
                "start_time": 0.9318182,
                "end_time": 1.6,
                "pitch": 79,
                "velocity": 101,
                "duration": 0.6681818,
                "tempo": 120.0
            },
            {
                "start_time": 1.6,
                "end_time": 1.6159091,
                "pitch": 67,
                "velocity": 101,
                "duration": 0.0159091,
                "tempo": 120.0
            },
            {
                "start_time": 1.6181818,
                "end_time": 1.7159091,
                "pitch": 65,
                "velocity": 101,
                "duration": 0.0977273,
                "tempo": 120.0
            },
            {
                "start_time": 1.7181818,
                "end_time": 1.8181818,
                "pitch": 64,
                "velocity": 101,
                "duration": 0.1,
                "tempo": 120.0
            },
            {
                "start_time": 1.9204545,
                "end_time": 2.1181818,
                "pitch": 65,
                "velocity": 101,
                "duration": 0.1977273,
                "tempo": 120.0
            },
            {
                "start_time": 2.1204545,
                "end_time": 2.2204545,
                "pitch": 65,
                "velocity": 101,
                "duration": 0.1,
                "tempo": 120.0
            },
            {
                "start_time": 2.2204545,
                "end_time": 2.4204545,
                "pitch": 67,
                "velocity": 101,
                "duration": 0.2,
                "tempo": 120.0
            },
            {
                "start_time": 2.4204545,
                "end_time": 2.5204545,
                "pitch": 65,
                "velocity": 101,
                "duration": 0.1,
                "tempo": 120.0
            },
            {
                "start_time": 2.5227273,
                "end_time": 2.6204545,
                "pitch": 65,
                "velocity": 101,
                "duration": 0.0977273,
                "tempo": 120.0
            },
            {
                "start_time": 2.6227273,
                "end_time": 2.7227273,
                "pitch": 64,
                "velocity": 101,
                "duration": 0.1,
                "tempo": 120.0
            },
            {
                "start_time": 2.7227273,
                "end_time": 2.8227273,
                "pitch": 62,
                "velocity": 101,
                "duration": 0.1,
                "tempo": 120.0
            },
            {
                "start_time": 2.925,
                "end_time": 3.0227273,
                "pitch": 60,
                "velocity": 101,
                "duration": 0.0977273,
                "tempo": 120.0
            },
            {
                "start_time": 3.025,
                "end_time": 3.2227273,
                "pitch": 62,
                "velocity": 101,
                "duration": 0.1977273,
                "tempo": 120.0
            },
            {
                "start_time": 3.225,
                "end_time": 3.3227273,
                "pitch": 62,
                "velocity": 101,
                "duration": 0.0977273,
                "tempo": 120.0
            },
            {
                "start_time": 3.325,
                "end_time": 3.4227273,
                "pitch": 60,
                "velocity": 101,
                "duration": 0.0977273,
                "tempo": 120.0
            },
            {
                "start_time": 3.425,
                "end_time": 3.5227273,
                "pitch": 57,
                "velocity": 101,
                "duration": 0.0977273,
                "tempo": 120.0
            },
            {
                "start_time": 3.525,
                "end_time": 3.625,
                "pitch": 62,
                "velocity": 101,
                "duration": 0.1,
                "tempo": 120.0
            },
            {
                "start_time": 3.625,
                "end_time": 3.7227273,
                "pitch": 60,
                "velocity": 101,
                "duration": 0.0977273,
                "tempo": 120.0
            },
            {
                "start_time": 3.725,
                "end_time": 3.825,
                "pitch": 57,
                "velocity": 101,
                "duration": 0.1,
                "tempo": 120.0
            },
            {
                "start_time": 3.825,
                "end_time": 3.925,
                "pitch": 62,
                "velocity": 101,
                "duration": 0.1,
                "tempo": 120.0
            },
            {
                "start_time": 3.925,
                "end_time": 4.025,
                "pitch": 60,
                "velocity": 101,
                "duration": 0.1,
                "tempo": 120.0
            },
            {
                "start_time": 4.025,
                "end_time": 4.125,
                "pitch": 62,
                "velocity": 101,
                "duration": 0.1,
                "tempo": 120.0
            },
            {
                "start_time": 4.1272727,
                "end_time": 4.225,
                "pitch": 62,
                "velocity": 101,
                "duration": 0.0977273,
                "tempo": 120.0
            },
            {
                "start_time": 4.325,
                "end_time": 4.425,
                "pitch": 64,
                "velocity": 101,
                "duration": 0.1,
                "tempo": 120.0
            },
            {
                "start_time": 4.4272727,
                "end_time": 4.525,
                "pitch": 64,
                "velocity": 101,
                "duration": 0.0977273,
                "tempo": 120.0
            },
            {
                "start_time": 4.6272727,
                "end_time": 4.8295455,
                "pitch": 65,
                "velocity": 101,
                "duration": 0.2022727,
                "tempo": 120.0
            },
            {
                "start_time": 4.8295455,
                "end_time": 4.9318182,
                "pitch": 67,
                "velocity": 101,
                "duration": 0.1022727,
                "tempo": 120.0
            },
            {
                "start_time": 4.9318182,
                "end_time": 5.0340909,
                "pitch": 69,
                "velocity": 101,
                "duration": 0.1022727,
                "tempo": 120.0
            },
            {
                "start_time": 5.1386364,
                "end_time": 5.2386364,
                "pitch": 67,
                "velocity": 101,
                "duration": 0.1,
                "tempo": 120.0
            },
            {
                "start_time": 5.2409091,
                "end_time": 5.3363636,
                "pitch": 69,
                "velocity": 101,
                "duration": 0.0954545,
                "tempo": 120.0
            },
            {
                "start_time": 5.4363636,
                "end_time": 5.6318182,
                "pitch": 67,
                "velocity": 101,
                "duration": 0.1954545,
                "tempo": 120.0
            },
            {
                "start_time": 5.6340909,
                "end_time": 5.7340909,
                "pitch": 72,
                "velocity": 101,
                "duration": 0.1,
                "tempo": 120.0
            },
            {
                "start_time": 5.7340909,
                "end_time": 5.8340909,
                "pitch": 72,
                "velocity": 101,
                "duration": 0.1,
                "tempo": 120.0
            },
            {
                "start_time": 5.9363636,
                "end_time": 6.0363636,
                "pitch": 74,
                "velocity": 101,
                "duration": 0.1,
                "tempo": 120.0
            },
            {
                "start_time": 6.0363636,
                "end_time": 6.1386364,
                "pitch": 74,
                "velocity": 101,
                "duration": 0.1022727,
                "tempo": 120.0
            },
            {
                "start_time": 6.2431818,
                "end_time": 6.4477273,
                "pitch": 69,
                "velocity": 101,
                "duration": 0.2045455,
                "tempo": 120.0
            },
            {
                "start_time": 6.45,
                "end_time": 6.5477273,
                "pitch": 74,
                "velocity": 101,
                "duration": 0.0977273,
                "tempo": 120.0
            },
            {
                "start_time": 6.55,
                "end_time": 6.6477273,
                "pitch": 72,
                "velocity": 101,
                "duration": 0.0977273,
                "tempo": 120.0
            },
            {
                "start_time": 6.65,
                "end_time": 6.75,
                "pitch": 69,
                "velocity": 101,
                "duration": 0.1,
                "tempo": 120.0
            },
            {
                "start_time": 6.75,
                "end_time": 6.95,
                "pitch": 67,
                "velocity": 101,
                "duration": 0.2,
                "tempo": 120.0
            },
            {
                "start_time": 6.9522727,
                "end_time": 7.0522727,
                "pitch": 67,
                "velocity": 101,
                "duration": 0.1,
                "tempo": 120.0
            },
            {
                "start_time": 7.0522727,
                "end_time": 7.2522727,
                "pitch": 69,
                "velocity": 101,
                "duration": 0.2,
                "tempo": 120.0
            },
            {
                "start_time": 7.2545455,
                "end_time": 7.4545455,
                "pitch": 67,
                "velocity": 101,
                "duration": 0.2,
                "tempo": 120.0
            },
            {
                "start_time": 7.5545455,
                "end_time": 7.7545455,
                "pitch": 65,
                "velocity": 101,
                "duration": 0.2,
                "tempo": 120.0
            },
            {
                "start_time": 7.8568182,
                "end_time": 8.0568182,
                "pitch": 67,
                "velocity": 101,
                "duration": 0.2,
                "tempo": 120.0
            },
            {
                "start_time": 8.0590909,
                "end_time": 8.1568182,
                "pitch": 65,
                "velocity": 101,
                "duration": 0.0977273,
                "tempo": 120.0
            },
            {
                "start_time": 8.1590909,
                "end_time": 8.2568182,
                "pitch": 64,
                "velocity": 101,
                "duration": 0.0977273,
                "tempo": 120.0
            },
            {
                "start_time": 8.3590909,
                "end_time": 8.5590909,
                "pitch": 65,
                "velocity": 101,
                "duration": 0.2,
                "tempo": 120.0
            },
            {
                "start_time": 8.5590909,
                "end_time": 8.6590909,
                "pitch": 65,
                "velocity": 101,
                "duration": 0.1,
                "tempo": 120.0
            },
            {
                "start_time": 8.6613636,
                "end_time": 8.8613636,
                "pitch": 67,
                "velocity": 101,
                "duration": 0.2,
                "tempo": 120.0
            },
            {
                "start_time": 8.8613636,
                "end_time": 8.9613636,
                "pitch": 65,
                "velocity": 101,
                "duration": 0.1,
                "tempo": 120.0
            },
            {
                "start_time": 8.9636364,
                "end_time": 9.0613636,
                "pitch": 65,
                "velocity": 101,
                "duration": 0.0977273,
                "tempo": 120.0
            },
            {
                "start_time": 9.0636364,
                "end_time": 9.1636364,
                "pitch": 64,
                "velocity": 101,
                "duration": 0.1,
                "tempo": 120.0
            },
            {
                "start_time": 9.1636364,
                "end_time": 9.2636364,
                "pitch": 62,
                "velocity": 101,
                "duration": 0.1,
                "tempo": 120.0
            },
            {
                "start_time": 9.3659091,
                "end_time": 9.4659091,
                "pitch": 60,
                "velocity": 101,
                "duration": 0.1,
                "tempo": 120.0
            },
            {
                "start_time": 9.4681818,
                "end_time": 9.6681818,
                "pitch": 62,
                "velocity": 101,
                "duration": 0.2,
                "tempo": 120.0
            },
            {
                "start_time": 9.6681818,
                "end_time": 9.7659091,
                "pitch": 62,
                "velocity": 101,
                "duration": 0.0977273,
                "tempo": 120.0
            },
            {
                "start_time": 9.7681818,
                "end_time": 9.8681818,
                "pitch": 64,
                "velocity": 101,
                "duration": 0.1,
                "tempo": 120.0
            },
            {
                "start_time": 9.9681818,
                "end_time": 10.0681818,
                "pitch": 62,
                "velocity": 101,
                "duration": 0.1,
                "tempo": 120.0
            },
            {
                "start_time": 10.0681818,
                "end_time": 10.1681818,
                "pitch": 64,
                "velocity": 101,
                "duration": 0.1,
                "tempo": 120.0
            },
            {
                "start_time": 10.2704545,
                "end_time": 10.4704545,
                "pitch": 57,
                "velocity": 101,
                "duration": 0.2,
                "tempo": 120.0
            },
            {
                "start_time": 10.4727273,
                "end_time": 10.5727273,
                "pitch": 65,
                "velocity": 101,
                "duration": 0.1,
                "tempo": 120.0
            },
            {
                "start_time": 10.5727273,
                "end_time": 10.6727273,
                "pitch": 62,
                "velocity": 101,
                "duration": 0.1,
                "tempo": 120.0
            },
            {
                "start_time": 10.675,
                "end_time": 10.7727273,
                "pitch": 57,
                "velocity": 101,
                "duration": 0.0977273,
                "tempo": 120.0
            },
            {
                "start_time": 10.775,
                "end_time": 10.875,
                "pitch": 67,
                "velocity": 101,
                "duration": 0.1,
                "tempo": 120.0
            },
            {
                "start_time": 10.875,
                "end_time": 10.975,
                "pitch": 62,
                "velocity": 101,
                "duration": 0.1,
                "tempo": 120.0
            },
            {
                "start_time": 10.9772727,
                "end_time": 11.075,
                "pitch": 57,
                "velocity": 101,
                "duration": 0.0977273,
                "tempo": 120.0
            },
            {
                "start_time": 11.0772727,
                "end_time": 11.2772727,
                "pitch": 69,
                "velocity": 101,
                "duration": 0.2,
                "tempo": 120.0
            },
            {
                "start_time": 11.2795455,
                "end_time": 11.3795455,
                "pitch": 71,
                "velocity": 101,
                "duration": 0.1,
                "tempo": 120.0
            },
            {
                "start_time": 11.3818182,
                "end_time": 11.4818182,
                "pitch": 72,
                "velocity": 101,
                "duration": 0.1,
                "tempo": 120.0
            },
            {
                "start_time": 11.4840909,
                "end_time": 11.5863636,
                "pitch": 71,
                "velocity": 101,
                "duration": 0.1022727,
                "tempo": 120.0
            },
            {
                "start_time": 11.5863636,
                "end_time": 11.6886364,
                "pitch": 72,
                "velocity": 101,
                "duration": 0.1022727,
                "tempo": 120.0
            },
            {
                "start_time": 11.6909091,
                "end_time": 11.8840909,
                "pitch": 74,
                "velocity": 101,
                "duration": 0.1931818,
                "tempo": 120.0
            },
            {
                "start_time": 11.8863636,
                "end_time": 11.9818182,
                "pitch": 76,
                "velocity": 101,
                "duration": 0.0954545,
                "tempo": 120.0
            },
            {
                "start_time": 11.9840909,
                "end_time": 12.0818182,
                "pitch": 64,
                "velocity": 101,
                "duration": 0.0977273,
                "tempo": 120.0
            },
            {
                "start_time": 12.1840909,
                "end_time": 12.2818182,
                "pitch": 64,
                "velocity": 101,
                "duration": 0.0977273,
                "tempo": 120.0
            },
            {
                "start_time": 12.2840909,
                "end_time": 12.4840909,
                "pitch": 67,
                "velocity": 101,
                "duration": 0.2,
                "tempo": 120.0
            },
            {
                "start_time": 12.4863636,
                "end_time": 12.6909091,
                "pitch": 69,
                "velocity": 101,
                "duration": 0.2045455,
                "tempo": 120.0
            },
            {
                "start_time": 13.7045455,
                "end_time": 13.8045455,
                "pitch": 67,
                "velocity": 40,
                "duration": 0.1,
                "tempo": 120.0
            },
            {
                "start_time": 13.8045455,
                "end_time": 13.9045455,
                "pitch": 65,
                "velocity": 40,
                "duration": 0.1,
                "tempo": 120.0
            },
            {
                "start_time": 13.9045455,
                "end_time": 14.0045455,
                "pitch": 64,
                "velocity": 40,
                "duration": 0.1,
                "tempo": 120.0
            },
            {
                "start_time": 14.0045455,
                "end_time": 14.1068182,
                "pitch": 62,
                "velocity": 40,
                "duration": 0.1022727,
                "tempo": 120.0
            },
            {
                "start_time": 14.1068182,
                "end_time": 14.3068182,
                "pitch": 60,
                "velocity": 40,
                "duration": 0.2,
                "tempo": 120.0
            },
            {
                "start_time": 14.3068182,
                "end_time": 14.4045455,
                "pitch": 62,
                "velocity": 40,
                "duration": 0.0977273,
                "tempo": 120.0
            },
            {
                "start_time": 14.4068182,
                "end_time": 14.7068182,
                "pitch": 57,
                "velocity": 40,
                "duration": 0.3,
                "tempo": 120.0
            },
            {
                "start_time": 15.3136364,
                "end_time": 15.5136364,
                "pitch": 48,
                "velocity": 40,
                "duration": 0.2,
                "tempo": 120.0
            },
            {
                "start_time": 15.5159091,
                "end_time": 15.6136364,
                "pitch": 67,
                "velocity": 40,
                "duration": 0.0977273,
                "tempo": 120.0
            },
            {
                "start_time": 15.6159091,
                "end_time": 15.7159091,
                "pitch": 71,
                "velocity": 40,
                "duration": 0.1,
                "tempo": 120.0
            },
            {
                "start_time": 15.7181818,
                "end_time": 15.8159091,
                "pitch": 65,
                "velocity": 40,
                "duration": 0.0977273,
                "tempo": 120.0
            },
            {
                "start_time": 15.8181818,
                "end_time": 15.9181818,
                "pitch": 69,
                "velocity": 40,
                "duration": 0.1,
                "tempo": 120.0
            },
            {
                "start_time": 15.9181818,
                "end_time": 16.0181818,
                "pitch": 64,
                "velocity": 40,
                "duration": 0.1,
                "tempo": 120.0
            },
            {
                "start_time": 16.0181818,
                "end_time": 16.1181818,
                "pitch": 67,
                "velocity": 40,
                "duration": 0.1,
                "tempo": 120.0
            },
            {
                "start_time": 16.925,
                "end_time": 17.0227273,
                "pitch": 67,
                "velocity": 40,
                "duration": 0.0977273,
                "tempo": 120.0
            },
            {
                "start_time": 17.025,
                "end_time": 17.1227273,
                "pitch": 65,
                "velocity": 40,
                "duration": 0.0977273,
                "tempo": 120.0
            },
            {
                "start_time": 17.125,
                "end_time": 17.2227273,
                "pitch": 64,
                "velocity": 40,
                "duration": 0.0977273,
                "tempo": 120.0
            },
            {
                "start_time": 17.2227273,
                "end_time": 17.3227273,
                "pitch": 62,
                "velocity": 40,
                "duration": 0.1,
                "tempo": 120.0
            },
            {
                "start_time": 17.325,
                "end_time": 17.525,
                "pitch": 60,
                "velocity": 40,
                "duration": 0.2,
                "tempo": 120.0
            },
            {
                "start_time": 17.525,
                "end_time": 17.625,
                "pitch": 62,
                "velocity": 40,
                "duration": 0.1,
                "tempo": 120.0
            },
            {
                "start_time": 17.6272727,
                "end_time": 17.9272727,
                "pitch": 57,
                "velocity": 40,
                "duration": 0.3,
                "tempo": 120.0
            },
            {
                "start_time": 18.5318182,
                "end_time": 18.7295455,
                "pitch": 48,
                "velocity": 40,
                "duration": 0.1977273,
                "tempo": 120.0
            },
            {
                "start_time": 18.7318182,
                "end_time": 18.8295455,
                "pitch": 67,
                "velocity": 40,
                "duration": 0.0977273,
                "tempo": 120.0
            },
            {
                "start_time": 18.8318182,
                "end_time": 18.9295455,
                "pitch": 71,
                "velocity": 40,
                "duration": 0.0977273,
                "tempo": 120.0
            },
            {
                "start_time": 18.9318182,
                "end_time": 19.0295455,
                "pitch": 65,
                "velocity": 40,
                "duration": 0.0977273,
                "tempo": 120.0
            },
            {
                "start_time": 19.0318182,
                "end_time": 19.1318182,
                "pitch": 69,
                "velocity": 40,
                "duration": 0.1,
                "tempo": 120.0
            },
            {
                "start_time": 19.1318182,
                "end_time": 19.2295455,
                "pitch": 64,
                "velocity": 40,
                "duration": 0.0977273,
                "tempo": 120.0
            },
            {
                "start_time": 19.2318182,
                "end_time": 19.3318182,
                "pitch": 67,
                "velocity": 40,
                "duration": 0.1,
                "tempo": 120.0
            },
            {
                "start_time": 19.3386364,
                "end_time": 19.3431818,
                "pitch": 60,
                "velocity": 101,
                "duration": 0.0045455,
                "tempo": 120.0
            }
        ]
    }
}