{
    "mood": "angry",
    "instruments": {
        "Violin": [
            {
                "start_time": 0.2477273,
                "end_time": 4.0159091,
                "pitch": 85,
                "velocity": 40,
                "duration": 3.7681818,
                "tempo": 120.0
            },
            {
                "start_time": 4.0159091,
                "end_time": 7.7795455,
                "pitch": 91,
                "velocity": 40,
                "duration": 3.7636364,
                "tempo": 120.0
            },
            {
                "start_time": 4.0159091,
                "end_time": 11.5454545,
                "pitch": 14,
                "velocity": 40,
                "duration": 7.5295455,
                "tempo": 120.0
            },
            {
                "start_time": 7.7795455,
                "end_time": 11.5454545,
                "pitch": 85,
                "velocity": 40,
                "duration": 3.7659091,
                "tempo": 120.0
            },
            {
                "start_time": 11.5454545,
                "end_time": 15.3227273,
                "pitch": 91,
                "velocity": 40,
                "duration": 3.7772727,
                "tempo": 120.0
            },
            {
                "start_time": 15.3227273,
                "end_time": 19.0840909,
                "pitch": 84,
                "velocity": 40,
                "duration": 3.7613636,
                "tempo": 120.0
            },
            {
                "start_time": 19.0840909,
                "end_time": 22.85,
                "pitch": 90,
                "velocity": 40,
                "duration": 3.7659091,
                "tempo": 120.0
            },
            {
                "start_time": 22.85,
                "end_time": 26.6159091,
                "pitch": 84,
                "velocity": 40,
                "duration": 3.7659091,
                "tempo": 120.0
            },
            {
                "start_time": 26.6159091,
                "end_time": 30.3931818,
                "pitch": 90,
                "velocity": 40,
                "duration": 3.7772727,
                "tempo": 120.0
            },
            {
                "start_time": 30.3931818,
                "end_time": 30.6431818,
                "pitch": 85,
                "velocity": 40,
                "duration": 0.25,
                "tempo": 120.0
            }
        ],
        "Electric Piano 1": [
            {
                "start_time": 0.2522727,
                "end_time": 2.15,
                "pitch": 76,
                "velocity": 25,
                "duration": 1.8977273,
                "tempo": 120.0
            },
            {
                "start_time": 2.15,
                "end_time": 4.0181818,
                "pitch": 82,
                "velocity": 25,
                "duration": 1.8681818,
                "tempo": 120.0
            },
            {
                "start_time": 4.0181818,
                "end_time": 5.9090909,
                "pitch": 76,
                "velocity": 25,
                "duration": 1.8909091,
                "tempo": 120.0
            },
            {
                "start_time": 5.9090909,
                "end_time": 7.7818182,
                "pitch": 76,
                "velocity": 25,
                "duration": 1.8727273,
                "tempo": 120.0
            },
            {
                "start_time": 7.7818182,
                "end_time": 9.6727273,
                "pitch": 76,
                "velocity": 25,
                "duration": 1.8909091,
                "tempo": 120.0
            },
            {
                "start_time": 9.6727273,
                "end_time": 11.5477273,
                "pitch": 82,
                "velocity": 25,
                "duration": 1.875,
                "tempo": 120.0
            },
            {
                "start_time": 11.5477273,
                "end_time": 13.4431818,
                "pitch": 76,
                "velocity": 25,
                "duration": 1.8954545,
                "tempo": 120.0
            },
            {
                "start_time": 13.4431818,
                "end_time": 15.325,
                "pitch": 76,
                "velocity": 25,
                "duration": 1.8818182,
                "tempo": 120.0
            },
            {
                "start_time": 15.325,
                "end_time": 17.2113636,
                "pitch": 75,
                "velocity": 25,
                "duration": 1.8863636,
                "tempo": 120.0
            },
            {
                "start_time": 17.2113636,
                "end_time": 19.0840909,
                "pitch": 81,
                "velocity": 25,
                "duration": 1.8727273,
                "tempo": 120.0
            },
            {
                "start_time": 19.0863636,
                "end_time": 20.9795455,
                "pitch": 75,
                "velocity": 25,
                "duration": 1.8931818,
                "tempo": 120.0
            },
            {
                "start_time": 20.9795455,
                "end_time": 22.8522727,
                "pitch": 75,
                "velocity": 25,
                "duration": 1.8727273,
                "tempo": 120.0
            },
            {
                "start_time": 22.8522727,
                "end_time": 24.75,
                "pitch": 75,
                "velocity": 25,
                "duration": 1.8977273,
                "tempo": 120.0
            },
            {
                "start_time": 24.75,
                "end_time": 26.6181818,
                "pitch": 81,
                "velocity": 25,
                "duration": 1.8681818,
                "tempo": 120.0
            },
            {
                "start_time": 26.6181818,
                "end_time": 28.5136364,
                "pitch": 75,
                "velocity": 25,
                "duration": 1.8954545,
                "tempo": 120.0
            },
            {
                "start_time": 28.5136364,
                "end_time": 29.4454545,
                "pitch": 78,
                "velocity": 25,
                "duration": 0.9318182,
                "tempo": 120.0
            },
            {
                "start_time": 29.4454545,
                "end_time": 30.3954545,
                "pitch": 75,
                "velocity": 25,
                "duration": 0.95,
                "tempo": 120.0
            },
            {
                "start_time": 30.3977273,
                "end_time": 30.6431818,
                "pitch": 76,
                "velocity": 25,
                "duration": 0.2454545,
                "tempo": 120.0
            }
        ],
        "Acoustic Bass": [
            {
                "start_time": 0.2522727,
                "end_time": 0.3454545,
                "pitch": 25,
                "velocity": 51,
                "duration": 0.0931818,
                "tempo": 120.0
            },
            {
                "start_time": 0.4977273,
                "end_time": 0.5818182,
                "pitch": 25,
                "velocity": 51,
                "duration": 0.0840909,
                "tempo": 120.0
            },
            {
                "start_time": 4.0204545,
                "end_time": 4.1159091,
                "pitch": 25,
                "velocity": 51,
                "duration": 0.0954545,
                "tempo": 120.0
            },
            {
                "start_time": 4.2681818,
                "end_time": 4.3522727,
                "pitch": 25,
                "velocity": 51,
                "duration": 0.0840909,
                "tempo": 120.0
            },
            {
                "start_time": 7.7818182,
                "end_time": 7.875,
                "pitch": 25,
                "velocity": 51,
                "duration": 0.0931818,
                "tempo": 120.0
            },
            {
                "start_time": 8.025,
                "end_time": 8.1090909,
                "pitch": 25,
                "velocity": 51,
                "duration": 0.0840909,
                "tempo": 120.0
            },
            {
                "start_time": 11.55,
                "end_time": 11.6477273,
                "pitch": 25,
                "velocity": 51,
                "duration": 0.0977273,
                "tempo": 120.0
            },
            {
                "start_time": 11.7977273,
                "end_time": 11.8840909,
                "pitch": 25,
                "velocity": 51,
                "duration": 0.0863636,
                "tempo": 120.0
            },
            {
                "start_time": 15.0863636,
                "end_time": 15.325,
                "pitch": 23,
                "velocity": 51,
                "duration": 0.2386364,
                "tempo": 120.0
            },
            {
                "start_time": 15.325,
                "end_time": 15.4204545,
                "pitch": 24,
                "velocity": 51,
                "duration": 0.0954545,
                "tempo": 120.0
            },
            {
                "start_time": 15.5727273,
                "end_time": 15.6545455,
                "pitch": 24,
                "velocity": 51,
                "duration": 0.0818182,
                "tempo": 120.0
            },
            {
                "start_time": 19.0863636,
                "end_time": 19.1840909,
                "pitch": 24,
                "velocity": 51,
                "duration": 0.0977273,
                "tempo": 120.0
            },
            {
                "start_time": 19.3363636,
                "end_time": 19.4204545,
                "pitch": 24,
                "velocity": 51,
                "duration": 0.0840909,
                "tempo": 120.0
            },
            {
                "start_time": 22.8522727,
                "end_time": 22.9454545,
                "pitch": 24,
                "velocity": 51,
                "duration": 0.0931818,
                "tempo": 120.0
            },
            {
                "start_time": 23.0954545,
                "end_time": 23.1795455,
                "pitch": 24,
                "velocity": 51,
                "duration": 0.0840909,
                "tempo": 120.0
            },
            {
                "start_time": 26.6204545,
                "end_time": 26.7181818,
                "pitch": 24,
                "velocity": 51,
                "duration": 0.0977273,
                "tempo": 120.0
            },
            {
                "start_time": 26.8681818,
                "end_time": 26.9545455,
                "pitch": 24,
                "velocity": 51,
                "duration": 0.0863636,
                "tempo": 120.0
            },
            {
                "start_time": 30.1568182,
                "end_time": 30.2568182,
                "pitch": 26,
                "velocity": 51,
                "duration": 0.1,
                "tempo": 120.0
            },
            {
                "start_time": 30.3977273,
                "end_time": 30.4909091,
                "pitch": 25,
                "velocity": 51,
                "duration": 0.0931818,
                "tempo": 120.0
            }
        ]
    }
}