{
    "mood": "angry",
    "instruments": {
        "Lead 2 (sawtooth)": [
            {
                "start_time": 0.4272727,
                "end_time": 0.5090909,
                "pitch": 38,
                "velocity": 80,
                "duration": 0.0818182,
                "tempo": 120.0
            },
            {
                "start_time": 0.5090909,
                "end_time": 4.5704545,
                "pitch": 40,
                "velocity": 80,
                "duration": 4.0613636,
                "tempo": 120.0
            },
            {
                "start_time": 4.5704545,
                "end_time": 7.6295455,
                "pitch": 40,
                "velocity": 80,
                "duration": 3.0590909,
                "tempo": 120.0
            },
            {
                "start_time": 49.7,
                "end_time": 51.8636364,
                "pitch": 47,
                "velocity": 64,
                "duration": 2.1636364,
                "tempo": 120.0
            },
            {
                "start_time": 51.8636364,
                "end_time": 53.9022727,
                "pitch": 48,
                "velocity": 64,
                "duration": 2.0386364,
                "tempo": 120.0
            },
            {
                "start_time": 53.9022727,
                "end_time": 55.9659091,
                "pitch": 47,
                "velocity": 64,
                "duration": 2.0636364,
                "tempo": 120.0
            },
            {
                "start_time": 55.9659091,
                "end_time": 57.9954545,
                "pitch": 48,
                "velocity": 64,
                "duration": 2.0295455,
                "tempo": 120.0
            },
            {
                "start_time": 57.9954545,
                "end_time": 60.0636364,
                "pitch": 47,
                "velocity": 64,
                "duration": 2.0681818,
                "tempo": 120.0
            },
            {
                "start_time": 60.0636364,
                "end_time": 62.0931818,
                "pitch": 48,
                "velocity": 64,
                "duration": 2.0295455,
                "tempo": 120.0
            },
            {
                "start_time": 62.0931818,
                "end_time": 64.1568182,
                "pitch": 47,
                "velocity": 64,
                "duration": 2.0636364,
                "tempo": 120.0
            },
            {
                "start_time": 64.1568182,
                "end_time": 66.1136364,
                "pitch": 48,
                "velocity": 64,
                "duration": 1.9568182,
                "tempo": 120.0
            },
            {
                "start_time": 66.1159091,
                "end_time": 69.1613636,
                "pitch": 47,
                "velocity": 64,
                "duration": 3.0454545,
                "tempo": 120.0
            }
        ],
        "Violin": [
            {
                "start_time": 3.0136364,
                "end_time": 3.1477273,
                "pitch": 64,
                "velocity": 51,
                "duration": 0.1340909,
                "tempo": 120.0
            },
            {
                "start_time": 3.1477273,
                "end_time": 3.2136364,
                "pitch": 67,
                "velocity": 51,
                "duration": 0.0659091,
                "tempo": 120.0
            },
            {
                "start_time": 3.2136364,
                "end_time": 3.2659091,
                "pitch": 67,
                "velocity": 51,
                "duration": 0.0522727,
                "tempo": 120.0
            },
            {
                "start_time": 3.2659091,
                "end_time": 3.3977273,
                "pitch": 69,
                "velocity": 51,
                "duration": 0.1318182,
                "tempo": 120.0
            },
            {
                "start_time": 3.4,
                "end_time": 3.5318182,
                "pitch": 70,
                "velocity": 51,
                "duration": 0.1318182,
                "tempo": 120.0
            },
            {
                "start_time": 3.5340909,
                "end_time": 3.6681818,
                "pitch": 71,
                "velocity": 51,
                "duration": 0.1340909,
                "tempo": 120.0
            },
            {
                "start_time": 3.6681818,
                "end_time": 3.7886364,
                "pitch": 70,
                "velocity": 51,
                "duration": 0.1204545,
                "tempo": 120.0
            },
            {
                "start_time": 3.7886364,
                "end_time": 3.925,
                "pitch": 71,
                "velocity": 51,
                "duration": 0.1363636,
                "tempo": 120.0
            },
            {
                "start_time": 3.925,
                "end_time": 3.9568182,
                "pitch": 67,
                "velocity": 51,
                "duration": 0.0318182,
                "tempo": 120.0
            },
            {
                "start_time": 3.2136364,
                "end_time": 3.9568182,
                "pitch": 79,
                "velocity": 51,
                "duration": 0.7431818,
                "tempo": 120.0
            },
            {
                "start_time": 3.9568182,
                "end_time": 4.0613636,
                "pitch": 67,
                "velocity": 51,
                "duration": 0.1045455,
                "tempo": 120.0
            },
            {
                "start_time": 4.0613636,
                "end_time": 4.175,
                "pitch": 71,
                "velocity": 51,
                "duration": 0.1136364,
                "tempo": 120.0
            },
            {
                "start_time": 4.1772727,
                "end_time": 4.3068182,
                "pitch": 66,
                "velocity": 51,
                "duration": 0.1295455,
                "tempo": 120.0
            },
            {
                "start_time": 4.3090909,
                "end_time": 4.4386364,
                "pitch": 71,
                "velocity": 51,
                "duration": 0.1295455,
                "tempo": 120.0
            },
            {
                "start_time": 4.4386364,
                "end_time": 4.5727273,
                "pitch": 64,
                "velocity": 51,
                "duration": 0.1340909,
                "tempo": 120.0
            },
            {
                "start_time": 4.5727273,
                "end_time": 5.5636364,
                "pitch": 70,
                "velocity": 51,
                "duration": 0.9909091,
                "tempo": 120.0
            },
            {
                "start_time": 5.5636364,
                "end_time": 6.6,
                "pitch": 71,
                "velocity": 51,
                "duration": 1.0363636,
                "tempo": 120.0
            },
            {
                "start_time": 6.6,
                "end_time": 7.6295455,
                "pitch": 64,
                "velocity": 51,
                "duration": 1.0295455,
                "tempo": 120.0
            },
            {
                "start_time": 8.6727273,
                "end_time": 10.6977273,
                "pitch": 52,
                "velocity": 51,
                "duration": 2.025,
                "tempo": 120.0
            },
            {
                "start_time": 10.7,
                "end_time": 11.7363636,
                "pitch": 50,
                "velocity": 51,
                "duration": 1.0363636,
                "tempo": 120.0
            },
            {
                "start_time": 11.7363636,
                "end_time": 12.7659091,
                "pitch": 45,
                "velocity": 51,
                "duration": 1.0295455,
                "tempo": 120.0
            },
            {
                "start_time": 12.7659091,
                "end_time": 14.7977273,
                "pitch": 49,
                "velocity": 51,
                "duration": 2.0318182,
                "tempo": 120.0
            },
            {
                "start_time": 14.8,
                "end_time": 16.8681818,
                "pitch": 49,
                "velocity": 51,
                "duration": 2.0681818,
                "tempo": 120.0
            },
            {
                "start_time": 16.8681818,
                "end_time": 18.8954545,
                "pitch": 52,
                "velocity": 51,
                "duration": 2.0272727,
                "tempo": 120.0
            },
            {
                "start_time": 18.8977273,
                "end_time": 19.9340909,
                "pitch": 50,
                "velocity": 51,
                "duration": 1.0363636,
                "tempo": 120.0
            },
            {
                "start_time": 19.9340909,
                "end_time": 20.9727273,
                "pitch": 45,
                "velocity": 51,
                "duration": 1.0386364,
                "tempo": 120.0
            },
            {
                "start_time": 20.9727273,
                "end_time": 22.0022727,
                "pitch": 47,
                "velocity": 51,
                "duration": 1.0295455,
                "tempo": 120.0
            },
            {
                "start_time": 22.0022727,
                "end_time": 25.0704545,
                "pitch": 46,
                "velocity": 51,
                "duration": 3.0681818,
                "tempo": 120.0
            },
            {
                "start_time": 25.0704545,
                "end_time": 27.1,
                "pitch": 52,
                "velocity": 51,
                "duration": 2.0295455,
                "tempo": 120.0
            },
            {
                "start_time": 27.1,
                "end_time": 28.1272727,
                "pitch": 50,
                "velocity": 51,
                "duration": 1.0272727,
                "tempo": 120.0
            },
            {
                "start_time": 28.1295455,
                "end_time": 29.1659091,
                "pitch": 45,
                "velocity": 51,
                "duration": 1.0363636,
                "tempo": 120.0
            },
            {
                "start_time": 29.1659091,
                "end_time": 31.2159091,
                "pitch": 49,
                "velocity": 51,
                "duration": 2.05,
                "tempo": 120.0
            },
            {
                "start_time": 31.2181818,
                "end_time": 33.2636364,
                "pitch": 49,
                "velocity": 51,
                "duration": 2.0454545,
                "tempo": 120.0
            },
            {
                "start_time": 33.2636364,
                "end_time": 35.3136364,
                "pitch": 52,
                "velocity": 51,
                "duration": 2.05,
                "tempo": 120.0
            },
            {
                "start_time": 35.3136364,
                "end_time": 36.3318182,
                "pitch": 50,
                "velocity": 51,
                "duration": 1.0181818,
                "tempo": 120.0
            },
            {
                "start_time": 36.3318182,
                "end_time": 37.3590909,
                "pitch": 45,
                "velocity": 51,
                "duration": 1.0272727,
                "tempo": 120.0
            },
            {
                "start_time": 37.3613636,
                "end_time": 38.3977273,
                "pitch": 47,
                "velocity": 51,
                "duration": 1.0363636,
                "tempo": 120.0
            },
            {
                "start_time": 38.4,
                "end_time": 41.4659091,
                "pitch": 46,
                "velocity": 51,
                "duration": 3.0659091,
                "tempo": 120.0
            },
            {
                "start_time": 70.1795455,
                "end_time": 70.4386364,
                "pitch": 52,
                "velocity": 51,
                "duration": 0.2590909,
                "tempo": 120.0
            }
        ],
        "Acoustic Guitar (nylon)": [
            {
                "start_time": 8.9181818,
                "end_time": 8.9363636,
                "pitch": 55,
                "velocity": 64,
                "duration": 0.0181818,
                "tempo": 120.0
            },
            {
                "start_time": 8.9363636,
                "end_time": 8.9863636,
                "pitch": 54,
                "velocity": 64,
                "duration": 0.05,
                "tempo": 120.0
            },
            {
                "start_time": 8.9863636,
                "end_time": 9.0522727,
                "pitch": 52,
                "velocity": 64,
                "duration": 0.0659091,
                "tempo": 120.0
            },
            {
                "start_time": 9.0522727,
                "end_time": 9.1022727,
                "pitch": 49,
                "velocity": 64,
                "duration": 0.05,
                "tempo": 120.0
            },
            {
                "start_time": 9.1022727,
                "end_time": 9.1363636,
                "pitch": 46,
                "velocity": 64,
                "duration": 0.0340909,
                "tempo": 120.0
            },
            {
                "start_time": 9.1363636,
                "end_time": 9.1704545,
                "pitch": 44,
                "velocity": 64,
                "duration": 0.0340909,
                "tempo": 120.0
            },
            {
                "start_time": 9.1704545,
                "end_time": 9.2181818,
                "pitch": 48,
                "velocity": 64,
                "duration": 0.0477273,
                "tempo": 120.0
            },
            {
                "start_time": 9.2181818,
                "end_time": 9.25,
                "pitch": 46,
                "velocity": 64,
                "duration": 0.0318182,
                "tempo": 120.0
            },
            {
                "start_time": 9.25,
                "end_time": 9.2818182,
                "pitch": 43,
                "velocity": 64,
                "duration": 0.0318182,
                "tempo": 120.0
            },
            {
                "start_time": 9.2818182,
                "end_time": 9.2977273,
                "pitch": 41,
                "velocity": 64,
                "duration": 0.0159091,
                "tempo": 120.0
            },
            {
                "start_time": 9.2977273,
                "end_time": 9.3295455,
                "pitch": 48,
                "velocity": 64,
                "duration": 0.0318182,
                "tempo": 120.0
            },
            {
                "start_time": 9.3295455,
                "end_time": 9.3795455,
                "pitch": 46,
                "velocity": 64,
                "duration": 0.05,
                "tempo": 120.0
            },
            {
                "start_time": 9.3795455,
                "end_time": 9.4113636,
                "pitch": 43,
                "velocity": 64,
                "duration": 0.0318182,
                "tempo": 120.0
            },
            {
                "start_time": 9.4113636,
                "end_time": 9.4431818,
                "pitch": 41,
                "velocity": 64,
                "duration": 0.0318182,
                "tempo": 120.0
            },
            {
                "start_time": 9.4431818,
                "end_time": 9.4590909,
                "pitch": 37,
                "velocity": 64,
                "duration": 0.0159091,
                "tempo": 120.0
            },
            {
                "start_time": 9.4590909,
                "end_time": 9.475,
                "pitch": 35,
                "velocity": 64,
                "duration": 0.0159091,
                "tempo": 120.0
            },
            {
                "start_time": 9.475,
                "end_time": 9.4909091,
                "pitch": 33,
                "velocity": 64,
                "duration": 0.0159091,
                "tempo": 120.0
            },
            {
                "start_time": 9.4909091,
                "end_time": 9.5068182,
                "pitch": 30,
                "velocity": 64,
                "duration": 0.0159091,
                "tempo": 120.0
            },
            {
                "start_time": 9.5068182,
                "end_time": 9.5386364,
                "pitch": 27,
                "velocity": 64,
                "duration": 0.0318182,
                "tempo": 120.0
            },
            {
                "start_time": 9.5386364,
                "end_time": 9.5545455,
                "pitch": 24,
                "velocity": 64,
                "duration": 0.0159091,
                "tempo": 120.0
            },
            {
                "start_time": 9.6681818,
                "end_time": 9.7181818,
                "pitch": 48,
                "velocity": 64,
                "duration": 0.05,
                "tempo": 120.0
            },
            {
                "start_time": 9.7181818,
                "end_time": 9.75,
                "pitch": 46,
                "velocity": 64,
                "duration": 0.0318182,
                "tempo": 120.0
            },
            {
                "start_time": 9.75,
                "end_time": 9.7840909,
                "pitch": 43,
                "velocity": 64,
                "duration": 0.0340909,
                "tempo": 120.0
            },
            {
                "start_time": 9.7840909,
                "end_time": 9.8181818,
                "pitch": 41,
                "velocity": 64,
                "duration": 0.0340909,
                "tempo": 120.0
            },
            {
                "start_time": 9.8181818,
                "end_time": 9.8340909,
                "pitch": 37,
                "velocity": 64,
                "duration": 0.0159091,
                "tempo": 120.0
            },
            {
                "start_time": 9.8340909,
                "end_time": 9.8522727,
                "pitch": 35,
                "velocity": 64,
                "duration": 0.0181818,
                "tempo": 120.0
            },
            {
                "start_time": 9.8522727,
                "end_time": 9.8840909,
                "pitch": 33,
                "velocity": 64,
                "duration": 0.0318182,
                "tempo": 120.0
            },
            {
                "start_time": 9.8840909,
                "end_time": 9.9022727,
                "pitch": 30,
                "velocity": 64,
                "duration": 0.0181818,
                "tempo": 120.0
            },
            {
                "start_time": 9.9022727,
                "end_time": 9.9181818,
                "pitch": 27,
                "velocity": 64,
                "duration": 0.0159091,
                "tempo": 120.0
            },
            {
                "start_time": 9.9181818,
                "end_time": 9.9340909,
                "pitch": 24,
                "velocity": 64,
                "duration": 0.0159091,
                "tempo": 120.0
            },
            {
                "start_time": 9.9340909,
                "end_time": 9.9363636,
                "pitch": 21,
                "velocity": 64,
                "duration": 0.0022727,
                "tempo": 120.0
            },
            {
                "start_time": 10.45,
                "end_time": 10.5,
                "pitch": 52,
                "velocity": 64,
                "duration": 0.05,
                "tempo": 120.0
            },
            {
                "start_time": 10.5,
                "end_time": 10.5477273,
                "pitch": 49,
                "velocity": 64,
                "duration": 0.0477273,
                "tempo": 120.0
            },
            {
                "start_time": 10.5477273,
                "end_time": 10.5977273,
                "pitch": 46,
                "velocity": 64,
                "duration": 0.05,
                "tempo": 120.0
            },
            {
                "start_time": 10.5977273,
                "end_time": 10.6295455,
                "pitch": 44,
                "velocity": 64,
                "duration": 0.0318182,
                "tempo": 120.0
            },
            {
                "start_time": 10.6295455,
                "end_time": 10.6636364,
                "pitch": 41,
                "velocity": 64,
                "duration": 0.0340909,
                "tempo": 120.0
            },
            {
                "start_time": 10.6636364,
                "end_time": 10.6795455,
                "pitch": 39,
                "velocity": 64,
                "duration": 0.0159091,
                "tempo": 120.0
            },
            {
                "start_time": 10.6795455,
                "end_time": 10.6977273,
                "pitch": 36,
                "velocity": 64,
                "duration": 0.0181818,
                "tempo": 120.0
            },
            {
                "start_time": 10.9659091,
                "end_time": 10.9818182,
                "pitch": 55,
                "velocity": 64,
                "duration": 0.0159091,
                "tempo": 120.0
            },
            {
                "start_time": 8.9363636,
                "end_time": 10.9818182,
                "pitch": 67,
                "velocity": 64,
                "duration": 2.0454545,
                "tempo": 120.0
            },
            {
                "start_time": 10.9818182,
                "end_time": 11.0318182,
                "pitch": 54,
                "velocity": 64,
                "duration": 0.05,
                "tempo": 120.0
            },
            {
                "start_time": 11.0318182,
                "end_time": 11.0818182,
                "pitch": 52,
                "velocity": 64,
                "duration": 0.05,
                "tempo": 120.0
            },
            {
                "start_time": 11.0818182,
                "end_time": 11.1477273,
                "pitch": 49,
                "velocity": 64,
                "duration": 0.0659091,
                "tempo": 120.0
            },
            {
                "start_time": 11.1477273,
                "end_time": 11.1818182,
                "pitch": 46,
                "velocity": 64,
                "duration": 0.0340909,
                "tempo": 120.0
            },
            {
                "start_time": 11.1818182,
                "end_time": 11.2159091,
                "pitch": 44,
                "velocity": 64,
                "duration": 0.0340909,
                "tempo": 120.0
            },
            {
                "start_time": 11.2159091,
                "end_time": 11.25,
                "pitch": 48,
                "velocity": 64,
                "duration": 0.0340909,
                "tempo": 120.0
            },
            {
                "start_time": 11.25,
                "end_time": 11.2818182,
                "pitch": 46,
                "velocity": 64,
                "duration": 0.0318182,
                "tempo": 120.0
            },
            {
                "start_time": 11.2818182,
                "end_time": 11.3318182,
                "pitch": 43,
                "velocity": 64,
                "duration": 0.05,
                "tempo": 120.0
            },
            {
                "start_time": 11.3318182,
                "end_time": 11.35,
                "pitch": 41,
                "velocity": 64,
                "duration": 0.0181818,
                "tempo": 120.0
            },
            {
                "start_time": 11.35,
                "end_time": 11.3840909,
                "pitch": 48,
                "velocity": 64,
                "duration": 0.0340909,
                "tempo": 120.0
            },
            {
                "start_time": 11.3840909,
                "end_time": 11.4159091,
                "pitch": 46,
                "velocity": 64,
                "duration": 0.0318182,
                "tempo": 120.0
            },
            {
                "start_time": 11.4159091,
                "end_time": 11.45,
                "pitch": 43,
                "velocity": 64,
                "duration": 0.0340909,
                "tempo": 120.0
            },
            {
                "start_time": 11.45,
                "end_time": 11.5,
                "pitch": 41,
                "velocity": 64,
                "duration": 0.05,
                "tempo": 120.0
            },
            {
                "start_time": 11.5,
                "end_time": 11.5159091,
                "pitch": 37,
                "velocity": 64,
                "duration": 0.0159091,
                "tempo": 120.0
            },
            {
                "start_time": 11.5159091,
                "end_time": 11.5340909,
                "pitch": 35,
                "velocity": 64,
                "duration": 0.0181818,
                "tempo": 120.0
            },
            {
                "start_time": 11.5340909,
                "end_time": 11.55,
                "pitch": 33,
                "velocity": 64,
                "duration": 0.0159091,
                "tempo": 120.0
            },
            {
                "start_time": 11.55,
                "end_time": 11.5681818,
                "pitch": 30,
                "velocity": 64,
                "duration": 0.0181818,
                "tempo": 120.0
            },
            {
                "start_time": 11.5681818,
                "end_time": 11.5840909,
                "pitch": 27,
                "velocity": 64,
                "duration": 0.0159091,
                "tempo": 120.0
            },
            {
                "start_time": 11.5840909,
                "end_time": 11.6,
                "pitch": 24,
                "velocity": 64,
                "duration": 0.0159091,
                "tempo": 120.0
            },
            {
                "start_time": 11.7363636,
                "end_time": 11.7681818,
                "pitch": 48,
                "velocity": 64,
                "duration": 0.0318182,
                "tempo": 120.0
            },
            {
                "start_time": 11.7681818,
                "end_time": 11.8022727,
                "pitch": 46,
                "velocity": 64,
                "duration": 0.0340909,
                "tempo": 120.0
            },
            {
                "start_time": 11.8022727,
                "end_time": 11.8522727,
                "pitch": 43,
                "velocity": 64,
                "duration": 0.05,
                "tempo": 120.0
            },
            {
                "start_time": 11.8522727,
                "end_time": 11.8863636,
                "pitch": 41,
                "velocity": 64,
                "duration": 0.0340909,
                "tempo": 120.0
            },
            {
                "start_time": 11.8863636,
                "end_time": 11.9022727,
                "pitch": 37,
                "velocity": 64,
                "duration": 0.0159091,
                "tempo": 120.0
            },
            {
                "start_time": 11.9022727,
                "end_time": 11.9181818,
                "pitch": 35,
                "velocity": 64,
                "duration": 0.0159091,
                "tempo": 120.0
            },
            {
                "start_time": 11.9181818,
                "end_time": 11.9363636,
                "pitch": 33,
                "velocity": 64,
                "duration": 0.0181818,
                "tempo": 120.0
            },
            {
                "start_time": 11.9363636,
                "end_time": 11.9522727,
                "pitch": 30,
                "velocity": 64,
                "duration": 0.0159091,
                "tempo": 120.0
            },
            {
                "start_time": 11.9522727,
                "end_time": 11.9681818,
                "pitch": 27,
                "velocity": 64,
                "duration": 0.0159091,
                "tempo": 120.0
            },
            {
                "start_time": 11.9681818,
                "end_time": 11.9863636,
                "pitch": 24,
                "velocity": 64,
                "duration": 0.0181818,
                "tempo": 120.0
            },
            {
                "start_time": 12.5022727,
                "end_time": 12.5340909,
                "pitch": 52,
                "velocity": 64,
                "duration": 0.0318182,
                "tempo": 120.0
            },
            {
                "start_time": 12.5340909,
                "end_time": 12.6,
                "pitch": 52,
                "velocity": 64,
                "duration": 0.0659091,
                "tempo": 120.0
            },
            {
                "start_time": 12.6,
                "end_time": 12.6318182,
                "pitch": 49,
                "velocity": 64,
                "duration": 0.0318182,
                "tempo": 120.0
            },
            {
                "start_time": 12.6318182,
                "end_time": 12.6818182,
                "pitch": 52,
                "velocity": 64,
                "duration": 0.05,
                "tempo": 120.0
            },
            {
                "start_time": 12.6818182,
                "end_time": 12.7136364,
                "pitch": 50,
                "velocity": 64,
                "duration": 0.0318182,
                "tempo": 120.0
            },
            {
                "start_time": 12.7136364,
                "end_time": 12.7659091,
                "pitch": 47,
                "velocity": 64,
                "duration": 0.0522727,
                "tempo": 120.0
            },
            {
                "start_time": 13.0159091,
                "end_time": 13.0318182,
                "pitch": 55,
                "velocity": 64,
                "duration": 0.0159091,
                "tempo": 120.0
            },
            {
                "start_time": 10.9818182,
                "end_time": 13.0318182,
                "pitch": 67,
                "velocity": 64,
                "duration": 2.05,
                "tempo": 120.0
            },
            {
                "start_time": 13.0318182,
                "end_time": 13.1,
                "pitch": 55,
                "velocity": 64,
                "duration": 0.0681818,
                "tempo": 120.0
            },
            {
                "start_time": 13.1,
                "end_time": 13.15,
                "pitch": 52,
                "velocity": 64,
                "duration": 0.05,
                "tempo": 120.0
            },
            {
                "start_time": 13.15,
                "end_time": 13.2,
                "pitch": 49,
                "velocity": 64,
                "duration": 0.05,
                "tempo": 120.0
            },
            {
                "start_time": 13.2,
                "end_time": 13.2318182,
                "pitch": 46,
                "velocity": 64,
                "duration": 0.0318182,
                "tempo": 120.0
            },
            {
                "start_time": 13.2318182,
                "end_time": 13.2840909,
                "pitch": 44,
                "velocity": 64,
                "duration": 0.0522727,
                "tempo": 120.0
            },
            {
                "start_time": 13.2840909,
                "end_time": 13.3159091,
                "pitch": 48,
                "velocity": 64,
                "duration": 0.0318182,
                "tempo": 120.0
            },
            {
                "start_time": 13.3159091,
                "end_time": 13.35,
                "pitch": 46,
                "velocity": 64,
                "duration": 0.0340909,
                "tempo": 120.0
            },
            {
                "start_time": 13.35,
                "end_time": 13.3818182,
                "pitch": 43,
                "velocity": 64,
                "duration": 0.0318182,
                "tempo": 120.0
            },
            {
                "start_time": 13.3818182,
                "end_time": 13.3977273,
                "pitch": 41,
                "velocity": 64,
                "duration": 0.0159091,
                "tempo": 120.0
            },
            {
                "start_time": 13.3977273,
                "end_time": 13.4318182,
                "pitch": 48,
                "velocity": 64,
                "duration": 0.0340909,
                "tempo": 120.0
            },
            {
                "start_time": 13.4318182,
                "end_time": 13.4795455,
                "pitch": 46,
                "velocity": 64,
                "duration": 0.0477273,
                "tempo": 120.0
            },
            {
                "start_time": 13.4795455,
                "end_time": 13.5136364,
                "pitch": 43,
                "velocity": 64,
                "duration": 0.0340909,
                "tempo": 120.0
            },
            {
                "start_time": 13.5136364,
                "end_time": 13.5454545,
                "pitch": 41,
                "velocity": 64,
                "duration": 0.0318182,
                "tempo": 120.0
            },
            {
                "start_time": 13.5454545,
                "end_time": 13.5636364,
                "pitch": 37,
                "velocity": 64,
                "duration": 0.0181818,
                "tempo": 120.0
            },
            {
                "start_time": 13.5636364,
                "end_time": 13.5795455,
                "pitch": 35,
                "velocity": 64,
                "duration": 0.0159091,
                "tempo": 120.0
            },
            {
                "start_time": 13.5795455,
                "end_time": 13.5954545,
                "pitch": 33,
                "velocity": 64,
                "duration": 0.0159091,
                "tempo": 120.0
            },
            {
                "start_time": 13.5954545,
                "end_time": 13.6295455,
                "pitch": 30,
                "velocity": 64,
                "duration": 0.0340909,
                "tempo": 120.0
            },
            {
                "start_time": 13.6295455,
                "end_time": 13.6454545,
                "pitch": 27,
                "velocity": 64,
                "duration": 0.0159091,
                "tempo": 120.0
            },
            {
                "start_time": 13.6454545,
                "end_time": 13.6613636,
                "pitch": 24,
                "velocity": 64,
                "duration": 0.0159091,
                "tempo": 120.0
            },
            {
                "start_time": 13.7772727,
                "end_time": 13.8272727,
                "pitch": 48,
                "velocity": 64,
                "duration": 0.05,
                "tempo": 120.0
            },
            {
                "start_time": 13.8272727,
                "end_time": 13.8590909,
                "pitch": 46,
                "velocity": 64,
                "duration": 0.0318182,
                "tempo": 120.0
            },
            {
                "start_time": 13.8590909,
                "end_time": 13.8909091,
                "pitch": 43,
                "velocity": 64,
                "duration": 0.0318182,
                "tempo": 120.0
            },
            {
                "start_time": 13.8909091,
                "end_time": 13.925,
                "pitch": 41,
                "velocity": 64,
                "duration": 0.0340909,
                "tempo": 120.0
            },
            {
                "start_time": 13.925,
                "end_time": 13.9409091,
                "pitch": 37,
                "velocity": 64,
                "duration": 0.0159091,
                "tempo": 120.0
            },
            {
                "start_time": 13.9409091,
                "end_time": 13.9568182,
                "pitch": 35,
                "velocity": 64,
                "duration": 0.0159091,
                "tempo": 120.0
            },
            {
                "start_time": 13.9568182,
                "end_time": 13.9909091,
                "pitch": 33,
                "velocity": 64,
                "duration": 0.0340909,
                "tempo": 120.0
            },
            {
                "start_time": 13.9909091,
                "end_time": 14.0068182,
                "pitch": 30,
                "velocity": 64,
                "duration": 0.0159091,
                "tempo": 120.0
            },
            {
                "start_time": 14.0068182,
                "end_time": 14.0227273,
                "pitch": 27,
                "velocity": 64,
                "duration": 0.0159091,
                "tempo": 120.0
            },
            {
                "start_time": 14.0227273,
                "end_time": 14.0409091,
                "pitch": 24,
                "velocity": 64,
                "duration": 0.0181818,
                "tempo": 120.0
            },
            {
                "start_time": 14.55,
                "end_time": 14.6,
                "pitch": 52,
                "velocity": 64,
                "duration": 0.05,
                "tempo": 120.0
            },
            {
                "start_time": 14.6,
                "end_time": 14.65,
                "pitch": 49,
                "velocity": 64,
                "duration": 0.05,
                "tempo": 120.0
            },
            {
                "start_time": 14.65,
                "end_time": 14.6977273,
                "pitch": 46,
                "velocity": 64,
                "duration": 0.0477273,
                "tempo": 120.0
            },
            {
                "start_time": 14.6977273,
                "end_time": 14.7318182,
                "pitch": 44,
                "velocity": 64,
                "duration": 0.0340909,
                "tempo": 120.0
            },
            {
                "start_time": 14.7318182,
                "end_time": 14.7636364,
                "pitch": 41,
                "velocity": 64,
                "duration": 0.0318182,
                "tempo": 120.0
            },
            {
                "start_time": 14.7636364,
                "end_time": 14.7818182,
                "pitch": 38,
                "velocity": 64,
                "duration": 0.0181818,
                "tempo": 120.0
            },
            {
                "start_time": 14.7818182,
                "end_time": 14.7977273,
                "pitch": 36,
                "velocity": 64,
                "duration": 0.0159091,
                "tempo": 120.0
            },
            {
                "start_time": 13.0318182,
                "end_time": 15.0659091,
                "pitch": 67,
                "velocity": 64,
                "duration": 2.0340909,
                "tempo": 120.0
            },
            {
                "start_time": 15.0659091,
                "end_time": 15.1318182,
                "pitch": 55,
                "velocity": 64,
                "duration": 0.0659091,
                "tempo": 120.0
            },
            {
                "start_time": 15.0659091,
                "end_time": 15.1318182,
                "pitch": 55,
                "velocity": 64,
                "duration": 0.0659091,
                "tempo": 120.0
            },
            {
                "start_time": 15.1318182,
                "end_time": 15.1818182,
                "pitch": 52,
                "velocity": 64,
                "duration": 0.05,
                "tempo": 120.0
            },
            {
                "start_time": 15.1818182,
                "end_time": 15.25,
                "pitch": 49,
                "velocity": 64,
                "duration": 0.0681818,
                "tempo": 120.0
            },
            {
                "start_time": 15.25,
                "end_time": 15.2818182,
                "pitch": 47,
                "velocity": 64,
                "duration": 0.0318182,
                "tempo": 120.0
            },
            {
                "start_time": 15.2818182,
                "end_time": 15.3159091,
                "pitch": 44,
                "velocity": 64,
                "duration": 0.0340909,
                "tempo": 120.0
            },
            {
                "start_time": 15.3159091,
                "end_time": 15.35,
                "pitch": 48,
                "velocity": 64,
                "duration": 0.0340909,
                "tempo": 120.0
            },
            {
                "start_time": 15.35,
                "end_time": 15.3840909,
                "pitch": 46,
                "velocity": 64,
                "duration": 0.0340909,
                "tempo": 120.0
            },
            {
                "start_time": 15.3840909,
                "end_time": 15.4340909,
                "pitch": 43,
                "velocity": 64,
                "duration": 0.05,
                "tempo": 120.0
            },
            {
                "start_time": 15.4340909,
                "end_time": 15.45,
                "pitch": 41,
                "velocity": 64,
                "duration": 0.0159091,
                "tempo": 120.0
            },
            {
                "start_time": 15.45,
                "end_time": 15.4840909,
                "pitch": 48,
                "velocity": 64,
                "duration": 0.0340909,
                "tempo": 120.0
            },
            {
                "start_time": 15.4840909,
                "end_time": 15.5181818,
                "pitch": 46,
                "velocity": 64,
                "duration": 0.0340909,
                "tempo": 120.0
            },
            {
                "start_time": 15.5181818,
                "end_time": 15.55,
                "pitch": 43,
                "velocity": 64,
                "duration": 0.0318182,
                "tempo": 120.0
            },
            {
                "start_time": 15.55,
                "end_time": 15.6,
                "pitch": 41,
                "velocity": 64,
                "duration": 0.05,
                "tempo": 120.0
            },
            {
                "start_time": 15.6,
                "end_time": 15.6181818,
                "pitch": 37,
                "velocity": 64,
                "duration": 0.0181818,
                "tempo": 120.0
            },
            {
                "start_time": 15.6181818,
                "end_time": 15.6340909,
                "pitch": 35,
                "velocity": 64,
                "duration": 0.0159091,
                "tempo": 120.0
            },
            {
                "start_time": 15.6340909,
                "end_time": 15.6522727,
                "pitch": 33,
                "velocity": 64,
                "duration": 0.0181818,
                "tempo": 120.0
            },
            {
                "start_time": 15.6522727,
                "end_time": 15.6681818,
                "pitch": 30,
                "velocity": 64,
                "duration": 0.0159091,
                "tempo": 120.0
            },
            {
                "start_time": 15.6681818,
                "end_time": 15.6840909,
                "pitch": 27,
                "velocity": 64,
                "duration": 0.0159091,
                "tempo": 120.0
            },
            {
                "start_time": 15.6840909,
                "end_time": 15.7022727,
                "pitch": 24,
                "velocity": 64,
                "duration": 0.0181818,
                "tempo": 120.0
            },
            {
                "start_time": 15.8363636,
                "end_time": 15.8681818,
                "pitch": 48,
                "velocity": 64,
                "duration": 0.0318182,
                "tempo": 120.0
            },
            {
                "start_time": 15.8681818,
                "end_time": 15.9022727,
                "pitch": 46,
                "velocity": 64,
                "duration": 0.0340909,
                "tempo": 120.0
            },
            {
                "start_time": 15.9022727,
                "end_time": 15.9522727,
                "pitch": 43,
                "velocity": 64,
                "duration": 0.05,
                "tempo": 120.0
            },
            {
                "start_time": 15.9522727,
                "end_time": 15.9863636,
                "pitch": 41,
                "velocity": 64,
                "duration": 0.0340909,
                "tempo": 120.0
            },
            {
                "start_time": 15.9863636,
                "end_time": 16.0022727,
                "pitch": 38,
                "velocity": 64,
                "duration": 0.0159091,
                "tempo": 120.0
            },
            {
                "start_time": 16.0022727,
                "end_time": 16.0204545,
                "pitch": 35,
                "velocity": 64,
                "duration": 0.0181818,
                "tempo": 120.0
            },
            {
                "start_time": 16.0204545,
                "end_time": 16.0363636,
                "pitch": 33,
                "velocity": 64,
                "duration": 0.0159091,
                "tempo": 120.0
            },
            {
                "start_time": 16.0363636,
                "end_time": 16.0522727,
                "pitch": 30,
                "velocity": 64,
                "duration": 0.0159091,
                "tempo": 120.0
            },
            {
                "start_time": 16.0522727,
                "end_time": 16.0704545,
                "pitch": 27,
                "velocity": 64,
                "duration": 0.0181818,
                "tempo": 120.0
            },
            {
                "start_time": 16.0704545,
                "end_time": 16.0863636,
                "pitch": 24,
                "velocity": 64,
                "duration": 0.0159091,
                "tempo": 120.0
            },
            {
                "start_time": 16.6022727,
                "end_time": 16.6340909,
                "pitch": 52,
                "velocity": 64,
                "duration": 0.0318182,
                "tempo": 120.0
            },
            {
                "start_time": 16.6340909,
                "end_time": 16.7,
                "pitch": 52,
                "velocity": 64,
                "duration": 0.0659091,
                "tempo": 120.0
            },
            {
                "start_time": 16.7,
                "end_time": 16.7340909,
                "pitch": 49,
                "velocity": 64,
                "duration": 0.0340909,
                "tempo": 120.0
            },
            {
                "start_time": 16.7340909,
                "end_time": 16.7818182,
                "pitch": 52,
                "velocity": 64,
                "duration": 0.0477273,
                "tempo": 120.0
            },
            {
                "start_time": 16.7818182,
                "end_time": 16.8477273,
                "pitch": 49,
                "velocity": 64,
                "duration": 0.0659091,
                "tempo": 120.0
            },
            {
                "start_time": 16.8477273,
                "end_time": 16.8659091,
                "pitch": 46,
                "velocity": 64,
                "duration": 0.0181818,
                "tempo": 120.0
            },
            {
                "start_time": 17.1159091,
                "end_time": 17.1318182,
                "pitch": 55,
                "velocity": 64,
                "duration": 0.0159091,
                "tempo": 120.0
            },
            {
                "start_time": 15.0659091,
                "end_time": 17.1318182,
                "pitch": 67,
                "velocity": 64,
                "duration": 2.0659091,
                "tempo": 120.0
            },
            {
                "start_time": 17.1318182,
                "end_time": 17.2,
                "pitch": 54,
                "velocity": 64,
                "duration": 0.0681818,
                "tempo": 120.0
            },
            {
                "start_time": 17.2,
                "end_time": 17.25,
                "pitch": 52,
                "velocity": 64,
                "duration": 0.05,
                "tempo": 120.0
            },
            {
                "start_time": 17.25,
                "end_time": 17.3,
                "pitch": 49,
                "velocity": 64,
                "duration": 0.05,
                "tempo": 120.0
            },
            {
                "start_time": 17.3,
                "end_time": 17.3340909,
                "pitch": 46,
                "velocity": 64,
                "duration": 0.0340909,
                "tempo": 120.0
            },
            {
                "start_time": 17.3340909,
                "end_time": 17.3840909,
                "pitch": 44,
                "velocity": 64,
                "duration": 0.05,
                "tempo": 120.0
            },
            {
                "start_time": 17.3840909,
                "end_time": 17.4181818,
                "pitch": 48,
                "velocity": 64,
                "duration": 0.0340909,
                "tempo": 120.0
            },
            {
                "start_time": 17.4181818,
                "end_time": 17.45,
                "pitch": 46,
                "velocity": 64,
                "duration": 0.0318182,
                "tempo": 120.0
            },
            {
                "start_time": 17.45,
                "end_time": 17.4840909,
                "pitch": 43,
                "velocity": 64,
                "duration": 0.0340909,
                "tempo": 120.0
            },
            {
                "start_time": 17.4840909,
                "end_time": 17.5,
                "pitch": 41,
                "velocity": 64,
                "duration": 0.0159091,
                "tempo": 120.0
            },
            {
                "start_time": 17.5022727,
                "end_time": 17.5522727,
                "pitch": 48,
                "velocity": 64,
                "duration": 0.05,
                "tempo": 120.0
            },
            {
                "start_time": 17.5522727,
                "end_time": 17.5840909,
                "pitch": 46,
                "velocity": 64,
                "duration": 0.0318182,
                "tempo": 120.0
            },
            {
                "start_time": 17.5840909,
                "end_time": 17.6181818,
                "pitch": 43,
                "velocity": 64,
                "duration": 0.0340909,
                "tempo": 120.0
            },
            {
                "start_time": 17.6181818,
                "end_time": 17.6522727,
                "pitch": 41,
                "velocity": 64,
                "duration": 0.0340909,
                "tempo": 120.0
            },
            {
                "start_time": 17.6522727,
                "end_time": 17.6681818,
                "pitch": 37,
                "velocity": 64,
                "duration": 0.0159091,
                "tempo": 120.0
            },
            {
                "start_time": 17.6681818,
                "end_time": 17.6863636,
                "pitch": 35,
                "velocity": 64,
                "duration": 0.0181818,
                "tempo": 120.0
            },
            {
                "start_time": 17.6863636,
                "end_time": 17.7022727,
                "pitch": 33,
                "velocity": 64,
                "duration": 0.0159091,
                "tempo": 120.0
            },
            {
                "start_time": 17.7022727,
                "end_time": 17.7363636,
                "pitch": 30,
                "velocity": 64,
                "duration": 0.0340909,
                "tempo": 120.0
            },
            {
                "start_time": 17.7363636,
                "end_time": 17.7522727,
                "pitch": 27,
                "velocity": 64,
                "duration": 0.0159091,
                "tempo": 120.0
            },
            {
                "start_time": 17.7522727,
                "end_time": 17.7681818,
                "pitch": 24,
                "velocity": 64,
                "duration": 0.0159091,
                "tempo": 120.0
            },
            {
                "start_time": 17.8863636,
                "end_time": 17.9340909,
                "pitch": 48,
                "velocity": 64,
                "duration": 0.0477273,
                "tempo": 120.0
            },
            {
                "start_time": 17.9340909,
                "end_time": 17.9659091,
                "pitch": 46,
                "velocity": 64,
                "duration": 0.0318182,
                "tempo": 120.0
            },
            {
                "start_time": 17.9659091,
                "end_time": 17.9977273,
                "pitch": 43,
                "velocity": 64,
                "duration": 0.0318182,
                "tempo": 120.0
            },
            {
                "start_time": 17.9977273,
                "end_time": 18.0318182,
                "pitch": 41,
                "velocity": 64,
                "duration": 0.0340909,
                "tempo": 120.0
            },
            {
                "start_time": 18.0318182,
                "end_time": 18.0477273,
                "pitch": 37,
                "velocity": 64,
                "duration": 0.0159091,
                "tempo": 120.0
            },
            {
                "start_time": 18.0477273,
                "end_time": 18.0795455,
                "pitch": 35,
                "velocity": 64,
                "duration": 0.0318182,
                "tempo": 120.0
            },
            {
                "start_time": 18.0795455,
                "end_time": 18.0954545,
                "pitch": 33,
                "velocity": 64,
                "duration": 0.0159091,
                "tempo": 120.0
            },
            {
                "start_time": 18.0954545,
                "end_time": 18.1113636,
                "pitch": 30,
                "velocity": 64,
                "duration": 0.0159091,
                "tempo": 120.0
            },
            {
                "start_time": 18.1113636,
                "end_time": 18.1272727,
                "pitch": 27,
                "velocity": 64,
                "duration": 0.0159091,
                "tempo": 120.0
            },
            {
                "start_time": 18.1272727,
                "end_time": 18.1431818,
                "pitch": 24,
                "velocity": 64,
                "duration": 0.0159091,
                "tempo": 120.0
            },
            {
                "start_time": 18.6477273,
                "end_time": 18.6977273,
                "pitch": 52,
                "velocity": 64,
                "duration": 0.05,
                "tempo": 120.0
            },
            {
                "start_time": 18.6977273,
                "end_time": 18.7454545,
                "pitch": 49,
                "velocity": 64,
                "duration": 0.0477273,
                "tempo": 120.0
            },
            {
                "start_time": 18.7454545,
                "end_time": 18.7954545,
                "pitch": 46,
                "velocity": 64,
                "duration": 0.05,
                "tempo": 120.0
            },
            {
                "start_time": 18.7954545,
                "end_time": 18.8272727,
                "pitch": 44,
                "velocity": 64,
                "duration": 0.0318182,
                "tempo": 120.0
            },
            {
                "start_time": 18.8272727,
                "end_time": 18.8613636,
                "pitch": 41,
                "velocity": 64,
                "duration": 0.0340909,
                "tempo": 120.0
            },
            {
                "start_time": 18.8613636,
                "end_time": 18.8772727,
                "pitch": 38,
                "velocity": 64,
                "duration": 0.0159091,
                "tempo": 120.0
            },
            {
                "start_time": 18.8772727,
                "end_time": 18.8954545,
                "pitch": 36,
                "velocity": 64,
                "duration": 0.0181818,
                "tempo": 120.0
            },
            {
                "start_time": 19.1636364,
                "end_time": 19.1795455,
                "pitch": 55,
                "velocity": 64,
                "duration": 0.0159091,
                "tempo": 120.0
            },
            {
                "start_time": 17.1318182,
                "end_time": 19.1795455,
                "pitch": 67,
                "velocity": 64,
                "duration": 2.0477273,
                "tempo": 120.0
            },
            {
                "start_time": 19.1795455,
                "end_time": 19.2295455,
                "pitch": 54,
                "velocity": 64,
                "duration": 0.05,
                "tempo": 120.0
            },
            {
                "start_time": 19.2295455,
                "end_time": 19.2795455,
                "pitch": 52,
                "velocity": 64,
                "duration": 0.05,
                "tempo": 120.0
            },
            {
                "start_time": 19.2795455,
                "end_time": 19.3454545,
                "pitch": 49,
                "velocity": 64,
                "duration": 0.0659091,
                "tempo": 120.0
            },
            {
                "start_time": 19.3454545,
                "end_time": 19.3795455,
                "pitch": 46,
                "velocity": 64,
                "duration": 0.0340909,
                "tempo": 120.0
            },
            {
                "start_time": 19.3795455,
                "end_time": 19.4136364,
                "pitch": 44,
                "velocity": 64,
                "duration": 0.0340909,
                "tempo": 120.0
            },
            {
                "start_time": 19.4136364,
                "end_time": 19.4477273,
                "pitch": 48,
                "velocity": 64,
                "duration": 0.0340909,
                "tempo": 120.0
            },
            {
                "start_time": 19.4477273,
                "end_time": 19.4977273,
                "pitch": 46,
                "velocity": 64,
                "duration": 0.05,
                "tempo": 120.0
            },
            {
                "start_time": 19.4977273,
                "end_time": 19.5295455,
                "pitch": 43,
                "velocity": 64,
                "duration": 0.0318182,
                "tempo": 120.0
            },
            {
                "start_time": 19.5295455,
                "end_time": 19.5477273,
                "pitch": 41,
                "velocity": 64,
                "duration": 0.0181818,
                "tempo": 120.0
            },
            {
                "start_time": 19.5477273,
                "end_time": 19.5818182,
                "pitch": 48,
                "velocity": 64,
                "duration": 0.0340909,
                "tempo": 120.0
            },
            {
                "start_time": 19.5818182,
                "end_time": 19.6136364,
                "pitch": 46,
                "velocity": 64,
                "duration": 0.0318182,
                "tempo": 120.0
            },
            {
                "start_time": 19.6136364,
                "end_time": 19.6477273,
                "pitch": 43,
                "velocity": 64,
                "duration": 0.0340909,
                "tempo": 120.0
            },
            {
                "start_time": 19.6477273,
                "end_time": 19.6977273,
                "pitch": 41,
                "velocity": 64,
                "duration": 0.05,
                "tempo": 120.0
            },
            {
                "start_time": 19.6977273,
                "end_time": 19.7136364,
                "pitch": 37,
                "velocity": 64,
                "duration": 0.0159091,
                "tempo": 120.0
            },
            {
                "start_time": 19.7136364,
                "end_time": 19.7318182,
                "pitch": 35,
                "velocity": 64,
                "duration": 0.0181818,
                "tempo": 120.0
            },
            {
                "start_time": 19.7318182,
                "end_time": 19.7477273,
                "pitch": 33,
                "velocity": 64,
                "duration": 0.0159091,
                "tempo": 120.0
            },
            {
                "start_time": 19.7477273,
                "end_time": 19.7659091,
                "pitch": 30,
                "velocity": 64,
                "duration": 0.0181818,
                "tempo": 120.0
            },
            {
                "start_time": 19.7659091,
                "end_time": 19.7818182,
                "pitch": 27,
                "velocity": 64,
                "duration": 0.0159091,
                "tempo": 120.0
            },
            {
                "start_time": 19.7818182,
                "end_time": 19.7977273,
                "pitch": 24,
                "velocity": 64,
                "duration": 0.0159091,
                "tempo": 120.0
            },
            {
                "start_time": 19.9340909,
                "end_time": 19.9659091,
                "pitch": 48,
                "velocity": 64,
                "duration": 0.0318182,
                "tempo": 120.0
            },
            {
                "start_time": 19.9659091,
                "end_time": 20.0,
                "pitch": 46,
                "velocity": 64,
                "duration": 0.0340909,
                "tempo": 120.0
            },
            {
                "start_time": 20.0,
                "end_time": 20.05,
                "pitch": 43,
                "velocity": 64,
                "duration": 0.05,
                "tempo": 120.0
            },
            {
                "start_time": 20.05,
                "end_time": 20.0840909,
                "pitch": 41,
                "velocity": 64,
                "duration": 0.0340909,
                "tempo": 120.0
            },
            {
                "start_time": 20.0840909,
                "end_time": 20.1,
                "pitch": 37,
                "velocity": 64,
                "duration": 0.0159091,
                "tempo": 120.0
            },
            {
                "start_time": 20.1,
                "end_time": 20.1159091,
                "pitch": 35,
                "velocity": 64,
                "duration": 0.0159091,
                "tempo": 120.0
            },
            {
                "start_time": 20.1159091,
                "end_time": 20.1340909,
                "pitch": 33,
                "velocity": 64,
                "duration": 0.0181818,
                "tempo": 120.0
            },
            {
                "start_time": 20.1340909,
                "end_time": 20.15,
                "pitch": 30,
                "velocity": 64,
                "duration": 0.0159091,
                "tempo": 120.0
            },
            {
                "start_time": 20.15,
                "end_time": 20.1659091,
                "pitch": 27,
                "velocity": 64,
                "duration": 0.0159091,
                "tempo": 120.0
            },
            {
                "start_time": 20.1659091,
                "end_time": 20.1840909,
                "pitch": 24,
                "velocity": 64,
                "duration": 0.0181818,
                "tempo": 120.0
            },
            {
                "start_time": 20.7022727,
                "end_time": 20.7522727,
                "pitch": 52,
                "velocity": 64,
                "duration": 0.05,
                "tempo": 120.0
            },
            {
                "start_time": 20.7522727,
                "end_time": 20.8022727,
                "pitch": 52,
                "velocity": 64,
                "duration": 0.05,
                "tempo": 120.0
            },
            {
                "start_time": 20.8022727,
                "end_time": 20.8363636,
                "pitch": 49,
                "velocity": 64,
                "duration": 0.0340909,
                "tempo": 120.0
            },
            {
                "start_time": 20.8363636,
                "end_time": 20.8863636,
                "pitch": 52,
                "velocity": 64,
                "duration": 0.05,
                "tempo": 120.0
            },
            {
                "start_time": 20.8863636,
                "end_time": 20.9545455,
                "pitch": 49,
                "velocity": 64,
                "duration": 0.0681818,
                "tempo": 120.0
            },
            {
                "start_time": 20.9545455,
                "end_time": 20.9727273,
                "pitch": 47,
                "velocity": 64,
                "duration": 0.0181818,
                "tempo": 120.0
            },
            {
                "start_time": 21.2181818,
                "end_time": 21.2340909,
                "pitch": 55,
                "velocity": 64,
                "duration": 0.0159091,
                "tempo": 120.0
            },
            {
                "start_time": 19.1795455,
                "end_time": 21.2340909,
                "pitch": 67,
                "velocity": 64,
                "duration": 2.0545455,
                "tempo": 120.0
            },
            {
                "start_time": 21.2340909,
                "end_time": 21.3,
                "pitch": 54,
                "velocity": 64,
                "duration": 0.0659091,
                "tempo": 120.0
            },
            {
                "start_time": 21.3,
                "end_time": 21.35,
                "pitch": 52,
                "velocity": 64,
                "duration": 0.05,
                "tempo": 120.0
            },
            {
                "start_time": 21.35,
                "end_time": 21.3977273,
                "pitch": 49,
                "velocity": 64,
                "duration": 0.0477273,
                "tempo": 120.0
            },
            {
                "start_time": 21.3977273,
                "end_time": 21.4318182,
                "pitch": 46,
                "velocity": 64,
                "duration": 0.0340909,
                "tempo": 120.0
            },
            {
                "start_time": 21.4318182,
                "end_time": 21.4818182,
                "pitch": 44,
                "velocity": 64,
                "duration": 0.05,
                "tempo": 120.0
            },
            {
                "start_time": 21.4818182,
                "end_time": 21.5136364,
                "pitch": 48,
                "velocity": 64,
                "duration": 0.0318182,
                "tempo": 120.0
            },
            {
                "start_time": 21.5136364,
                "end_time": 21.5477273,
                "pitch": 46,
                "velocity": 64,
                "duration": 0.0340909,
                "tempo": 120.0
            },
            {
                "start_time": 21.5477273,
                "end_time": 21.5818182,
                "pitch": 43,
                "velocity": 64,
                "duration": 0.0340909,
                "tempo": 120.0
            },
            {
                "start_time": 21.5818182,
                "end_time": 21.5977273,
                "pitch": 41,
                "velocity": 64,
                "duration": 0.0159091,
                "tempo": 120.0
            },
            {
                "start_time": 21.5977273,
                "end_time": 21.6477273,
                "pitch": 48,
                "velocity": 64,
                "duration": 0.05,
                "tempo": 120.0
            },
            {
                "start_time": 21.6477273,
                "end_time": 21.6818182,
                "pitch": 46,
                "velocity": 64,
                "duration": 0.0340909,
                "tempo": 120.0
            },
            {
                "start_time": 21.6818182,
                "end_time": 21.7159091,
                "pitch": 43,
                "velocity": 64,
                "duration": 0.0340909,
                "tempo": 120.0
            },
            {
                "start_time": 21.7159091,
                "end_time": 21.7477273,
                "pitch": 41,
                "velocity": 64,
                "duration": 0.0318182,
                "tempo": 120.0
            },
            {
                "start_time": 21.7477273,
                "end_time": 21.7659091,
                "pitch": 37,
                "velocity": 64,
                "duration": 0.0181818,
                "tempo": 120.0
            },
            {
                "start_time": 21.7659091,
                "end_time": 21.7818182,
                "pitch": 35,
                "velocity": 64,
                "duration": 0.0159091,
                "tempo": 120.0
            },
            {
                "start_time": 21.7818182,
                "end_time": 21.8159091,
                "pitch": 33,
                "velocity": 64,
                "duration": 0.0340909,
                "tempo": 120.0
            },
            {
                "start_time": 21.8159091,
                "end_time": 21.8318182,
                "pitch": 30,
                "velocity": 64,
                "duration": 0.0159091,
                "tempo": 120.0
            },
            {
                "start_time": 21.8318182,
                "end_time": 21.85,
                "pitch": 27,
                "velocity": 64,
                "duration": 0.0181818,
                "tempo": 120.0
            },
            {
                "start_time": 21.85,
                "end_time": 21.8659091,
                "pitch": 24,
                "velocity": 64,
                "duration": 0.0159091,
                "tempo": 120.0
            },
            {
                "start_time": 22.0022727,
                "end_time": 22.0340909,
                "pitch": 48,
                "velocity": 64,
                "duration": 0.0318182,
                "tempo": 120.0
            },
            {
                "start_time": 22.0340909,
                "end_time": 22.0659091,
                "pitch": 46,
                "velocity": 64,
                "duration": 0.0318182,
                "tempo": 120.0
            },
            {
                "start_time": 22.0659091,
                "end_time": 22.1,
                "pitch": 43,
                "velocity": 64,
                "duration": 0.0340909,
                "tempo": 120.0
            },
            {
                "start_time": 22.1,
                "end_time": 22.1340909,
                "pitch": 41,
                "velocity": 64,
                "duration": 0.0340909,
                "tempo": 120.0
            },
            {
                "start_time": 22.1340909,
                "end_time": 22.15,
                "pitch": 37,
                "velocity": 64,
                "duration": 0.0159091,
                "tempo": 120.0
            },
            {
                "start_time": 22.15,
                "end_time": 22.1840909,
                "pitch": 35,
                "velocity": 64,
                "duration": 0.0340909,
                "tempo": 120.0
            },
            {
                "start_time": 22.1840909,
                "end_time": 22.2,
                "pitch": 33,
                "velocity": 64,
                "duration": 0.0159091,
                "tempo": 120.0
            },
            {
                "start_time": 22.2,
                "end_time": 22.2181818,
                "pitch": 30,
                "velocity": 64,
                "duration": 0.0181818,
                "tempo": 120.0
            },
            {
                "start_time": 22.2181818,
                "end_time": 22.2340909,
                "pitch": 27,
                "velocity": 64,
                "duration": 0.0159091,
                "tempo": 120.0
            },
            {
                "start_time": 22.2340909,
                "end_time": 22.2522727,
                "pitch": 24,
                "velocity": 64,
                "duration": 0.0181818,
                "tempo": 120.0
            },
            {
                "start_time": 22.7590909,
                "end_time": 22.8068182,
                "pitch": 52,
                "velocity": 64,
                "duration": 0.0477273,
                "tempo": 120.0
            },
            {
                "start_time": 22.8068182,
                "end_time": 22.8545455,
                "pitch": 49,
                "velocity": 64,
                "duration": 0.0477273,
                "tempo": 120.0
            },
            {
                "start_time": 22.8545455,
                "end_time": 22.9045455,
                "pitch": 46,
                "velocity": 64,
                "duration": 0.05,
                "tempo": 120.0
            },
            {
                "start_time": 22.9045455,
                "end_time": 22.9363636,
                "pitch": 44,
                "velocity": 64,
                "duration": 0.0318182,
                "tempo": 120.0
            },
            {
                "start_time": 22.9363636,
                "end_time": 22.9681818,
                "pitch": 41,
                "velocity": 64,
                "duration": 0.0318182,
                "tempo": 120.0
            },
            {
                "start_time": 22.9681818,
                "end_time": 22.9840909,
                "pitch": 38,
                "velocity": 64,
                "duration": 0.0159091,
                "tempo": 120.0
            },
            {
                "start_time": 22.9840909,
                "end_time": 23.0,
                "pitch": 36,
                "velocity": 64,
                "duration": 0.0159091,
                "tempo": 120.0
            },
            {
                "start_time": 23.2636364,
                "end_time": 23.2795455,
                "pitch": 55,
                "velocity": 64,
                "duration": 0.0159091,
                "tempo": 120.0
            },
            {
                "start_time": 21.2340909,
                "end_time": 23.2795455,
                "pitch": 67,
                "velocity": 64,
                "duration": 2.0454545,
                "tempo": 120.0
            },
            {
                "start_time": 23.2795455,
                "end_time": 23.3295455,
                "pitch": 55,
                "velocity": 64,
                "duration": 0.05,
                "tempo": 120.0
            },
            {
                "start_time": 23.3295455,
                "end_time": 23.3795455,
                "pitch": 52,
                "velocity": 64,
                "duration": 0.05,
                "tempo": 120.0
            },
            {
                "start_time": 23.3795455,
                "end_time": 23.4454545,
                "pitch": 49,
                "velocity": 64,
                "duration": 0.0659091,
                "tempo": 120.0
            },
            {
                "start_time": 23.4454545,
                "end_time": 23.4772727,
                "pitch": 46,
                "velocity": 64,
                "duration": 0.0318182,
                "tempo": 120.0
            },
            {
                "start_time": 23.4772727,
                "end_time": 23.5113636,
                "pitch": 44,
                "velocity": 64,
                "duration": 0.0340909,
                "tempo": 120.0
            },
            {
                "start_time": 23.5113636,
                "end_time": 23.5431818,
                "pitch": 48,
                "velocity": 64,
                "duration": 0.0318182,
                "tempo": 120.0
            },
            {
                "start_time": 23.5431818,
                "end_time": 23.5931818,
                "pitch": 46,
                "velocity": 64,
                "duration": 0.05,
                "tempo": 120.0
            },
            {
                "start_time": 23.5931818,
                "end_time": 23.6272727,
                "pitch": 43,
                "velocity": 64,
                "duration": 0.0340909,
                "tempo": 120.0
            },
            {
                "start_time": 23.6272727,
                "end_time": 23.6431818,
                "pitch": 41,
                "velocity": 64,
                "duration": 0.0159091,
                "tempo": 120.0
            },
            {
                "start_time": 23.6454545,
                "end_time": 23.6772727,
                "pitch": 48,
                "velocity": 64,
                "duration": 0.0318182,
                "tempo": 120.0
            },
            {
                "start_time": 23.6772727,
                "end_time": 23.7113636,
                "pitch": 46,
                "velocity": 64,
                "duration": 0.0340909,
                "tempo": 120.0
            },
            {
                "start_time": 23.7113636,
                "end_time": 23.7613636,
                "pitch": 43,
                "velocity": 64,
                "duration": 0.05,
                "tempo": 120.0
            },
            {
                "start_time": 23.7613636,
                "end_time": 23.7954545,
                "pitch": 41,
                "velocity": 64,
                "duration": 0.0340909,
                "tempo": 120.0
            },
            {
                "start_time": 23.7954545,
                "end_time": 23.8113636,
                "pitch": 37,
                "velocity": 64,
                "duration": 0.0159091,
                "tempo": 120.0
            },
            {
                "start_time": 23.8113636,
                "end_time": 23.8295455,
                "pitch": 35,
                "velocity": 64,
                "duration": 0.0181818,
                "tempo": 120.0
            },
            {
                "start_time": 23.8295455,
                "end_time": 23.8454545,
                "pitch": 33,
                "velocity": 64,
                "duration": 0.0159091,
                "tempo": 120.0
            },
            {
                "start_time": 23.8454545,
                "end_time": 23.8613636,
                "pitch": 30,
                "velocity": 64,
                "duration": 0.0159091,
                "tempo": 120.0
            },
            {
                "start_time": 23.8613636,
                "end_time": 23.8795455,
                "pitch": 27,
                "velocity": 64,
                "duration": 0.0181818,
                "tempo": 120.0
            },
            {
                "start_time": 23.8795455,
                "end_time": 23.8954545,
                "pitch": 24,
                "velocity": 64,
                "duration": 0.0159091,
                "tempo": 120.0
            },
            {
                "start_time": 24.0295455,
                "end_time": 24.0636364,
                "pitch": 48,
                "velocity": 64,
                "duration": 0.0340909,
                "tempo": 120.0
            },
            {
                "start_time": 24.0636364,
                "end_time": 24.0954545,
                "pitch": 46,
                "velocity": 64,
                "duration": 0.0318182,
                "tempo": 120.0
            },
            {
                "start_time": 24.0954545,
                "end_time": 24.1454545,
                "pitch": 43,
                "velocity": 64,
                "duration": 0.05,
                "tempo": 120.0
            },
            {
                "start_time": 24.1454545,
                "end_time": 24.1795455,
                "pitch": 41,
                "velocity": 64,
                "duration": 0.0340909,
                "tempo": 120.0
            },
            {
                "start_time": 24.1795455,
                "end_time": 24.1977273,
                "pitch": 37,
                "velocity": 64,
                "duration": 0.0181818,
                "tempo": 120.0
            },
            {
                "start_time": 24.1977273,
                "end_time": 24.2136364,
                "pitch": 35,
                "velocity": 64,
                "duration": 0.0159091,
                "tempo": 120.0
            },
            {
                "start_time": 24.2136364,
                "end_time": 24.2295455,
                "pitch": 33,
                "velocity": 64,
                "duration": 0.0159091,
                "tempo": 120.0
            },
            {
                "start_time": 24.2295455,
                "end_time": 24.2477273,
                "pitch": 30,
                "velocity": 64,
                "duration": 0.0181818,
                "tempo": 120.0
            },
            {
                "start_time": 24.2477273,
                "end_time": 24.2636364,
                "pitch": 27,
                "velocity": 64,
                "duration": 0.0159091,
                "tempo": 120.0
            },
            {
                "start_time": 24.2636364,
                "end_time": 24.2977273,
                "pitch": 24,
                "velocity": 64,
                "duration": 0.0340909,
                "tempo": 120.0
            },
            {
                "start_time": 24.8,
                "end_time": 24.85,
                "pitch": 52,
                "velocity": 64,
                "duration": 0.05,
                "tempo": 120.0
            },
            {
                "start_time": 24.85,
                "end_time": 24.9,
                "pitch": 52,
                "velocity": 64,
                "duration": 0.05,
                "tempo": 120.0
            },
            {
                "start_time": 24.9,
                "end_time": 24.9340909,
                "pitch": 49,
                "velocity": 64,
                "duration": 0.0340909,
                "tempo": 120.0
            },
            {
                "start_time": 24.9340909,
                "end_time": 24.9840909,
                "pitch": 52,
                "velocity": 64,
                "duration": 0.05,
                "tempo": 120.0
            },
            {
                "start_time": 24.9840909,
                "end_time": 25.05,
                "pitch": 49,
                "velocity": 64,
                "duration": 0.0659091,
                "tempo": 120.0
            },
            {
                "start_time": 25.05,
                "end_time": 25.0681818,
                "pitch": 46,
                "velocity": 64,
                "duration": 0.0181818,
                "tempo": 120.0
            },
            {
                "start_time": 23.2795455,
                "end_time": 25.3204545,
                "pitch": 67,
                "velocity": 64,
                "duration": 2.0409091,
                "tempo": 120.0
            },
            {
                "start_time": 25.3204545,
                "end_time": 25.4022727,
                "pitch": 55,
                "velocity": 64,
                "duration": 0.0818182,
                "tempo": 120.0
            },
            {
                "start_time": 25.3204545,
                "end_time": 25.4022727,
                "pitch": 55,
                "velocity": 64,
                "duration": 0.0818182,
                "tempo": 120.0
            },
            {
                "start_time": 25.4022727,
                "end_time": 25.4522727,
                "pitch": 52,
                "velocity": 64,
                "duration": 0.05,
                "tempo": 120.0
            },
            {
                "start_time": 25.4522727,
                "end_time": 25.5022727,
                "pitch": 49,
                "velocity": 64,
                "duration": 0.05,
                "tempo": 120.0
            },
            {
                "start_time": 25.5022727,
                "end_time": 25.5522727,
                "pitch": 47,
                "velocity": 64,
                "duration": 0.05,
                "tempo": 120.0
            },
            {
                "start_time": 25.5522727,
                "end_time": 25.5863636,
                "pitch": 44,
                "velocity": 64,
                "duration": 0.0340909,
                "tempo": 120.0
            },
            {
                "start_time": 25.5863636,
                "end_time": 25.6204545,
                "pitch": 48,
                "velocity": 64,
                "duration": 0.0340909,
                "tempo": 120.0
            },
            {
                "start_time": 25.6204545,
                "end_time": 25.6522727,
                "pitch": 46,
                "velocity": 64,
                "duration": 0.0318182,
                "tempo": 120.0
            },
            {
                "start_time": 25.6522727,
                "end_time": 25.6863636,
                "pitch": 43,
                "velocity": 64,
                "duration": 0.0340909,
                "tempo": 120.0
            },
            {
                "start_time": 25.6863636,
                "end_time": 25.7022727,
                "pitch": 41,
                "velocity": 64,
                "duration": 0.0159091,
                "tempo": 120.0
            },
            {
                "start_time": 25.7022727,
                "end_time": 25.7522727,
                "pitch": 48,
                "velocity": 64,
                "duration": 0.05,
                "tempo": 120.0
            },
            {
                "start_time": 25.7522727,
                "end_time": 25.7840909,
                "pitch": 46,
                "velocity": 64,
                "duration": 0.0318182,
                "tempo": 120.0
            },
            {
                "start_time": 25.7840909,
                "end_time": 25.8181818,
                "pitch": 43,
                "velocity": 64,
                "duration": 0.0340909,
                "tempo": 120.0
            },
            {
                "start_time": 25.8181818,
                "end_time": 25.85,
                "pitch": 41,
                "velocity": 64,
                "duration": 0.0318182,
                "tempo": 120.0
            },
            {
                "start_time": 25.85,
                "end_time": 25.8659091,
                "pitch": 37,
                "velocity": 64,
                "duration": 0.0159091,
                "tempo": 120.0
            },
            {
                "start_time": 25.8659091,
                "end_time": 25.8840909,
                "pitch": 35,
                "velocity": 64,
                "duration": 0.0181818,
                "tempo": 120.0
            },
            {
                "start_time": 25.8840909,
                "end_time": 25.9159091,
                "pitch": 33,
                "velocity": 64,
                "duration": 0.0318182,
                "tempo": 120.0
            },
            {
                "start_time": 25.9159091,
                "end_time": 25.9318182,
                "pitch": 30,
                "velocity": 64,
                "duration": 0.0159091,
                "tempo": 120.0
            },
            {
                "start_time": 25.9318182,
                "end_time": 25.9477273,
                "pitch": 27,
                "velocity": 64,
                "duration": 0.0159091,
                "tempo": 120.0
            },
            {
                "start_time": 25.9477273,
                "end_time": 25.9659091,
                "pitch": 24,
                "velocity": 64,
                "duration": 0.0181818,
                "tempo": 120.0
            },
            {
                "start_time": 26.0977273,
                "end_time": 26.1295455,
                "pitch": 48,
                "velocity": 64,
                "duration": 0.0318182,
                "tempo": 120.0
            },
            {
                "start_time": 26.1295455,
                "end_time": 26.1636364,
                "pitch": 46,
                "velocity": 64,
                "duration": 0.0340909,
                "tempo": 120.0
            },
            {
                "start_time": 26.1636364,
                "end_time": 26.1977273,
                "pitch": 43,
                "velocity": 64,
                "duration": 0.0340909,
                "tempo": 120.0
            },
            {
                "start_time": 26.1977273,
                "end_time": 26.2318182,
                "pitch": 41,
                "velocity": 64,
                "duration": 0.0340909,
                "tempo": 120.0
            },
            {
                "start_time": 26.2318182,
                "end_time": 26.2636364,
                "pitch": 38,
                "velocity": 64,
                "duration": 0.0318182,
                "tempo": 120.0
            },
            {
                "start_time": 26.2636364,
                "end_time": 26.2818182,
                "pitch": 35,
                "velocity": 64,
                "duration": 0.0181818,
                "tempo": 120.0
            },
            {
                "start_time": 26.2818182,
                "end_time": 26.2977273,
                "pitch": 33,
                "velocity": 64,
                "duration": 0.0159091,
                "tempo": 120.0
            },
            {
                "start_time": 26.2977273,
                "end_time": 26.3136364,
                "pitch": 30,
                "velocity": 64,
                "duration": 0.0159091,
                "tempo": 120.0
            },
            {
                "start_time": 26.3136364,
                "end_time": 26.3318182,
                "pitch": 27,
                "velocity": 64,
                "duration": 0.0181818,
                "tempo": 120.0
            },
            {
                "start_time": 26.3318182,
                "end_time": 26.3477273,
                "pitch": 24,
                "velocity": 64,
                "duration": 0.0159091,
                "tempo": 120.0
            },
            {
                "start_time": 26.8568182,
                "end_time": 26.9045455,
                "pitch": 52,
                "velocity": 64,
                "duration": 0.0477273,
                "tempo": 120.0
            },
            {
                "start_time": 26.9045455,
                "end_time": 26.9681818,
                "pitch": 49,
                "velocity": 64,
                "duration": 0.0636364,
                "tempo": 120.0
            },
            {
                "start_time": 26.9681818,
                "end_time": 27.0,
                "pitch": 47,
                "velocity": 64,
                "duration": 0.0318182,
                "tempo": 120.0
            },
            {
                "start_time": 27.0,
                "end_time": 27.0318182,
                "pitch": 44,
                "velocity": 64,
                "duration": 0.0318182,
                "tempo": 120.0
            },
            {
                "start_time": 27.0318182,
                "end_time": 27.0636364,
                "pitch": 41,
                "velocity": 64,
                "duration": 0.0318182,
                "tempo": 120.0
            },
            {
                "start_time": 27.0636364,
                "end_time": 27.0818182,
                "pitch": 38,
                "velocity": 64,
                "duration": 0.0181818,
                "tempo": 120.0
            },
            {
                "start_time": 27.0818182,
                "end_time": 27.0977273,
                "pitch": 36,
                "velocity": 64,
                "duration": 0.0159091,
                "tempo": 120.0
            },
            {
                "start_time": 27.3659091,
                "end_time": 27.3818182,
                "pitch": 55,
                "velocity": 64,
                "duration": 0.0159091,
                "tempo": 120.0
            },
            {
                "start_time": 25.3204545,
                "end_time": 27.3818182,
                "pitch": 67,
                "velocity": 64,
                "duration": 2.0613636,
                "tempo": 120.0
            },
            {
                "start_time": 27.3818182,
                "end_time": 27.4318182,
                "pitch": 54,
                "velocity": 64,
                "duration": 0.05,
                "tempo": 120.0
            },
            {
                "start_time": 27.4318182,
                "end_time": 27.4977273,
                "pitch": 52,
                "velocity": 64,
                "duration": 0.0659091,
                "tempo": 120.0
            },
            {
                "start_time": 27.4977273,
                "end_time": 27.5477273,
                "pitch": 49,
                "velocity": 64,
                "duration": 0.05,
                "tempo": 120.0
            },
            {
                "start_time": 27.5477273,
                "end_time": 27.5818182,
                "pitch": 46,
                "velocity": 64,
                "duration": 0.0340909,
                "tempo": 120.0
            },
            {
                "start_time": 27.5818182,
                "end_time": 27.6159091,
                "pitch": 44,
                "velocity": 64,
                "duration": 0.0340909,
                "tempo": 120.0
            },
            {
                "start_time": 27.6159091,
                "end_time": 27.6477273,
                "pitch": 48,
                "velocity": 64,
                "duration": 0.0318182,
                "tempo": 120.0
            },
            {
                "start_time": 27.6477273,
                "end_time": 27.6977273,
                "pitch": 46,
                "velocity": 64,
                "duration": 0.05,
                "tempo": 120.0
            },
            {
                "start_time": 27.6977273,
                "end_time": 27.7318182,
                "pitch": 43,
                "velocity": 64,
                "duration": 0.0340909,
                "tempo": 120.0
            },
            {
                "start_time": 27.7318182,
                "end_time": 27.7477273,
                "pitch": 41,
                "velocity": 64,
                "duration": 0.0159091,
                "tempo": 120.0
            },
            {
                "start_time": 27.7477273,
                "end_time": 27.7795455,
                "pitch": 48,
                "velocity": 64,
                "duration": 0.0318182,
                "tempo": 120.0
            },
            {
                "start_time": 27.7795455,
                "end_time": 27.8136364,
                "pitch": 46,
                "velocity": 64,
                "duration": 0.0340909,
                "tempo": 120.0
            },
            {
                "start_time": 27.8136364,
                "end_time": 27.8636364,
                "pitch": 43,
                "velocity": 64,
                "duration": 0.05,
                "tempo": 120.0
            },
            {
                "start_time": 27.8636364,
                "end_time": 27.8954545,
                "pitch": 41,
                "velocity": 64,
                "duration": 0.0318182,
                "tempo": 120.0
            },
            {
                "start_time": 27.8954545,
                "end_time": 27.9113636,
                "pitch": 37,
                "velocity": 64,
                "duration": 0.0159091,
                "tempo": 120.0
            },
            {
                "start_time": 27.9113636,
                "end_time": 27.9295455,
                "pitch": 35,
                "velocity": 64,
                "duration": 0.0181818,
                "tempo": 120.0
            },
            {
                "start_time": 27.9295455,
                "end_time": 27.9454545,
                "pitch": 33,
                "velocity": 64,
                "duration": 0.0159091,
                "tempo": 120.0
            },
            {
                "start_time": 27.9454545,
                "end_time": 27.9613636,
                "pitch": 30,
                "velocity": 64,
                "duration": 0.0159091,
                "tempo": 120.0
            },
            {
                "start_time": 27.9613636,
                "end_time": 27.9772727,
                "pitch": 27,
                "velocity": 64,
                "duration": 0.0159091,
                "tempo": 120.0
            },
            {
                "start_time": 27.9772727,
                "end_time": 27.9954545,
                "pitch": 24,
                "velocity": 64,
                "duration": 0.0181818,
                "tempo": 120.0
            },
            {
                "start_time": 28.1272727,
                "end_time": 28.1590909,
                "pitch": 48,
                "velocity": 64,
                "duration": 0.0318182,
                "tempo": 120.0
            },
            {
                "start_time": 28.1590909,
                "end_time": 28.2090909,
                "pitch": 46,
                "velocity": 64,
                "duration": 0.05,
                "tempo": 120.0
            },
            {
                "start_time": 28.2090909,
                "end_time": 28.2431818,
                "pitch": 43,
                "velocity": 64,
                "duration": 0.0340909,
                "tempo": 120.0
            },
            {
                "start_time": 28.2431818,
                "end_time": 28.2772727,
                "pitch": 41,
                "velocity": 64,
                "duration": 0.0340909,
                "tempo": 120.0
            },
            {
                "start_time": 28.2772727,
                "end_time": 28.2931818,
                "pitch": 37,
                "velocity": 64,
                "duration": 0.0159091,
                "tempo": 120.0
            },
            {
                "start_time": 28.2931818,
                "end_time": 28.3090909,
                "pitch": 35,
                "velocity": 64,
                "duration": 0.0159091,
                "tempo": 120.0
            },
            {
                "start_time": 28.3090909,
                "end_time": 28.3272727,
                "pitch": 33,
                "velocity": 64,
                "duration": 0.0181818,
                "tempo": 120.0
            },
            {
                "start_time": 28.3272727,
                "end_time": 28.3431818,
                "pitch": 30,
                "velocity": 64,
                "duration": 0.0159091,
                "tempo": 120.0
            },
            {
                "start_time": 28.3431818,
                "end_time": 28.3613636,
                "pitch": 27,
                "velocity": 64,
                "duration": 0.0181818,
                "tempo": 120.0
            },
            {
                "start_time": 28.3613636,
                "end_time": 28.3931818,
                "pitch": 24,
                "velocity": 64,
                "duration": 0.0318182,
                "tempo": 120.0
            },
            {
                "start_time": 28.8977273,
                "end_time": 28.9454545,
                "pitch": 52,
                "velocity": 64,
                "duration": 0.0477273,
                "tempo": 120.0
            },
            {
                "start_time": 28.9477273,
                "end_time": 28.9977273,
                "pitch": 52,
                "velocity": 64,
                "duration": 0.05,
                "tempo": 120.0
            },
            {
                "start_time": 28.9977273,
                "end_time": 29.0295455,
                "pitch": 49,
                "velocity": 64,
                "duration": 0.0318182,
                "tempo": 120.0
            },
            {
                "start_time": 29.0295455,
                "end_time": 29.0795455,
                "pitch": 52,
                "velocity": 64,
                "duration": 0.05,
                "tempo": 120.0
            },
            {
                "start_time": 29.0795455,
                "end_time": 29.1477273,
                "pitch": 49,
                "velocity": 64,
                "duration": 0.0681818,
                "tempo": 120.0
            },
            {
                "start_time": 29.1477273,
                "end_time": 29.1659091,
                "pitch": 47,
                "velocity": 64,
                "duration": 0.0181818,
                "tempo": 120.0
            },
            {
                "start_time": 29.4159091,
                "end_time": 29.4318182,
                "pitch": 55,
                "velocity": 64,
                "duration": 0.0159091,
                "tempo": 120.0
            },
            {
                "start_time": 27.3818182,
                "end_time": 29.4318182,
                "pitch": 67,
                "velocity": 64,
                "duration": 2.05,
                "tempo": 120.0
            },
            {
                "start_time": 29.4318182,
                "end_time": 29.5,
                "pitch": 54,
                "velocity": 64,
                "duration": 0.0681818,
                "tempo": 120.0
            },
            {
                "start_time": 29.5,
                "end_time": 29.55,
                "pitch": 52,
                "velocity": 64,
                "duration": 0.05,
                "tempo": 120.0
            },
            {
                "start_time": 29.55,
                "end_time": 29.6,
                "pitch": 49,
                "velocity": 64,
                "duration": 0.05,
                "tempo": 120.0
            },
            {
                "start_time": 29.6,
                "end_time": 29.65,
                "pitch": 46,
                "velocity": 64,
                "duration": 0.05,
                "tempo": 120.0
            },
            {
                "start_time": 29.65,
                "end_time": 29.6840909,
                "pitch": 44,
                "velocity": 64,
                "duration": 0.0340909,
                "tempo": 120.0
            },
            {
                "start_time": 29.6840909,
                "end_time": 29.7159091,
                "pitch": 48,
                "velocity": 64,
                "duration": 0.0318182,
                "tempo": 120.0
            },
            {
                "start_time": 29.7159091,
                "end_time": 29.75,
                "pitch": 46,
                "velocity": 64,
                "duration": 0.0340909,
                "tempo": 120.0
            },
            {
                "start_time": 29.75,
                "end_time": 29.7818182,
                "pitch": 43,
                "velocity": 64,
                "duration": 0.0318182,
                "tempo": 120.0
            },
            {
                "start_time": 29.7818182,
                "end_time": 29.8159091,
                "pitch": 41,
                "velocity": 64,
                "duration": 0.0340909,
                "tempo": 120.0
            },
            {
                "start_time": 29.8159091,
                "end_time": 29.8477273,
                "pitch": 48,
                "velocity": 64,
                "duration": 0.0318182,
                "tempo": 120.0
            },
            {
                "start_time": 29.8477273,
                "end_time": 29.8818182,
                "pitch": 46,
                "velocity": 64,
                "duration": 0.0340909,
                "tempo": 120.0
            },
            {
                "start_time": 29.8818182,
                "end_time": 29.9136364,
                "pitch": 43,
                "velocity": 64,
                "duration": 0.0318182,
                "tempo": 120.0
            },
            {
                "start_time": 29.9136364,
                "end_time": 29.9454545,
                "pitch": 41,
                "velocity": 64,
                "duration": 0.0318182,
                "tempo": 120.0
            },
            {
                "start_time": 29.9454545,
                "end_time": 29.9636364,
                "pitch": 37,
                "velocity": 64,
                "duration": 0.0181818,
                "tempo": 120.0
            },
            {
                "start_time": 29.9636364,
                "end_time": 29.9954545,
                "pitch": 35,
                "velocity": 64,
                "duration": 0.0318182,
                "tempo": 120.0
            },
            {
                "start_time": 29.9954545,
                "end_time": 30.0113636,
                "pitch": 33,
                "velocity": 64,
                "duration": 0.0159091,
                "tempo": 120.0
            },
            {
                "start_time": 30.0113636,
                "end_time": 30.0295455,
                "pitch": 30,
                "velocity": 64,
                "duration": 0.0181818,
                "tempo": 120.0
            },
            {
                "start_time": 30.0295455,
                "end_time": 30.0454545,
                "pitch": 27,
                "velocity": 64,
                "duration": 0.0159091,
                "tempo": 120.0
            },
            {
                "start_time": 30.0454545,
                "end_time": 30.0613636,
                "pitch": 24,
                "velocity": 64,
                "duration": 0.0159091,
                "tempo": 120.0
            },
            {
                "start_time": 30.1931818,
                "end_time": 30.2272727,
                "pitch": 48,
                "velocity": 64,
                "duration": 0.0340909,
                "tempo": 120.0
            },
            {
                "start_time": 30.2272727,
                "end_time": 30.2613636,
                "pitch": 46,
                "velocity": 64,
                "duration": 0.0340909,
                "tempo": 120.0
            },
            {
                "start_time": 30.2613636,
                "end_time": 30.2954545,
                "pitch": 43,
                "velocity": 64,
                "duration": 0.0340909,
                "tempo": 120.0
            },
            {
                "start_time": 30.2954545,
                "end_time": 30.3295455,
                "pitch": 41,
                "velocity": 64,
                "duration": 0.0340909,
                "tempo": 120.0
            },
            {
                "start_time": 30.3295455,
                "end_time": 30.3636364,
                "pitch": 37,
                "velocity": 64,
                "duration": 0.0340909,
                "tempo": 120.0
            },
            {
                "start_time": 30.3636364,
                "end_time": 30.3795455,
                "pitch": 35,
                "velocity": 64,
                "duration": 0.0159091,
                "tempo": 120.0
            },
            {
                "start_time": 30.3795455,
                "end_time": 30.3977273,
                "pitch": 33,
                "velocity": 64,
                "duration": 0.0181818,
                "tempo": 120.0
            },
            {
                "start_time": 30.3977273,
                "end_time": 30.4136364,
                "pitch": 30,
                "velocity": 64,
                "duration": 0.0159091,
                "tempo": 120.0
            },
            {
                "start_time": 30.4136364,
                "end_time": 30.4318182,
                "pitch": 27,
                "velocity": 64,
                "duration": 0.0181818,
                "tempo": 120.0
            },
            {
                "start_time": 20.1840909,
                "end_time": 30.4477273,
                "pitch": 21,
                "velocity": 64,
                "duration": 10.2636364,
                "tempo": 120.0
            },
            {
                "start_time": 30.4318182,
                "end_time": 30.4477273,
                "pitch": 24,
                "velocity": 64,
                "duration": 0.0159091,
                "tempo": 120.0
            },
            {
                "start_time": 30.9681818,
                "end_time": 31.0181818,
                "pitch": 52,
                "velocity": 64,
                "duration": 0.05,
                "tempo": 120.0
            },
            {
                "start_time": 31.0181818,
                "end_time": 31.0840909,
                "pitch": 49,
                "velocity": 64,
                "duration": 0.0659091,
                "tempo": 120.0
            },
            {
                "start_time": 31.0840909,
                "end_time": 31.1159091,
                "pitch": 46,
                "velocity": 64,
                "duration": 0.0318182,
                "tempo": 120.0
            },
            {
                "start_time": 31.1159091,
                "end_time": 31.15,
                "pitch": 44,
                "velocity": 64,
                "duration": 0.0340909,
                "tempo": 120.0
            },
            {
                "start_time": 31.15,
                "end_time": 31.1818182,
                "pitch": 41,
                "velocity": 64,
                "duration": 0.0318182,
                "tempo": 120.0
            },
            {
                "start_time": 31.1818182,
                "end_time": 31.1977273,
                "pitch": 39,
                "velocity": 64,
                "duration": 0.0159091,
                "tempo": 120.0
            },
            {
                "start_time": 31.1977273,
                "end_time": 31.2159091,
                "pitch": 36,
                "velocity": 64,
                "duration": 0.0181818,
                "tempo": 120.0
            },
            {
                "start_time": 31.4727273,
                "end_time": 31.4886364,
                "pitch": 55,
                "velocity": 64,
                "duration": 0.0159091,
                "tempo": 120.0
            },
            {
                "start_time": 29.4318182,
                "end_time": 31.4886364,
                "pitch": 67,
                "velocity": 64,
                "duration": 2.0568182,
                "tempo": 120.0
            },
            {
                "start_time": 31.4886364,
                "end_time": 31.5363636,
                "pitch": 54,
                "velocity": 64,
                "duration": 0.0477273,
                "tempo": 120.0
            },
            {
                "start_time": 31.5363636,
                "end_time": 31.6,
                "pitch": 52,
                "velocity": 64,
                "duration": 0.0636364,
                "tempo": 120.0
            },
            {
                "start_time": 31.6,
                "end_time": 31.6477273,
                "pitch": 49,
                "velocity": 64,
                "duration": 0.0477273,
                "tempo": 120.0
            },
            {
                "start_time": 31.6477273,
                "end_time": 31.6818182,
                "pitch": 46,
                "velocity": 64,
                "duration": 0.0340909,
                "tempo": 120.0
            },
            {
                "start_time": 31.6818182,
                "end_time": 31.7136364,
                "pitch": 44,
                "velocity": 64,
                "duration": 0.0318182,
                "tempo": 120.0
            },
            {
                "start_time": 31.7136364,
                "end_time": 31.7636364,
                "pitch": 48,
                "velocity": 64,
                "duration": 0.05,
                "tempo": 120.0
            },
            {
                "start_time": 31.7636364,
                "end_time": 31.7954545,
                "pitch": 46,
                "velocity": 64,
                "duration": 0.0318182,
                "tempo": 120.0
            },
            {
                "start_time": 31.7954545,
                "end_time": 31.8295455,
                "pitch": 43,
                "velocity": 64,
                "duration": 0.0340909,
                "tempo": 120.0
            },
            {
                "start_time": 31.8295455,
                "end_time": 31.8454545,
                "pitch": 41,
                "velocity": 64,
                "duration": 0.0159091,
                "tempo": 120.0
            },
            {
                "start_time": 31.8477273,
                "end_time": 31.8795455,
                "pitch": 48,
                "velocity": 64,
                "duration": 0.0318182,
                "tempo": 120.0
            },
            {
                "start_time": 31.8795455,
                "end_time": 31.9136364,
                "pitch": 46,
                "velocity": 64,
                "duration": 0.0340909,
                "tempo": 120.0
            },
            {
                "start_time": 31.9136364,
                "end_time": 31.9636364,
                "pitch": 43,
                "velocity": 64,
                "duration": 0.05,
                "tempo": 120.0
            },
            {
                "start_time": 31.9636364,
                "end_time": 31.9977273,
                "pitch": 41,
                "velocity": 64,
                "duration": 0.0340909,
                "tempo": 120.0
            },
            {
                "start_time": 31.9977273,
                "end_time": 32.0136364,
                "pitch": 37,
                "velocity": 64,
                "duration": 0.0159091,
                "tempo": 120.0
            },
            {
                "start_time": 32.0136364,
                "end_time": 32.0318182,
                "pitch": 35,
                "velocity": 64,
                "duration": 0.0181818,
                "tempo": 120.0
            },
            {
                "start_time": 32.0318182,
                "end_time": 32.0477273,
                "pitch": 33,
                "velocity": 64,
                "duration": 0.0159091,
                "tempo": 120.0
            },
            {
                "start_time": 32.0477273,
                "end_time": 32.0636364,
                "pitch": 30,
                "velocity": 64,
                "duration": 0.0159091,
                "tempo": 120.0
            },
            {
                "start_time": 32.0636364,
                "end_time": 32.0818182,
                "pitch": 27,
                "velocity": 64,
                "duration": 0.0181818,
                "tempo": 120.0
            },
            {
                "start_time": 32.0818182,
                "end_time": 32.0977273,
                "pitch": 24,
                "velocity": 64,
                "duration": 0.0159091,
                "tempo": 120.0
            },
            {
                "start_time": 32.2318182,
                "end_time": 32.2659091,
                "pitch": 48,
                "velocity": 64,
                "duration": 0.0340909,
                "tempo": 120.0
            },
            {
                "start_time": 32.2659091,
                "end_time": 32.3159091,
                "pitch": 46,
                "velocity": 64,
                "duration": 0.05,
                "tempo": 120.0
            },
            {
                "start_time": 32.3159091,
                "end_time": 32.35,
                "pitch": 43,
                "velocity": 64,
                "duration": 0.0340909,
                "tempo": 120.0
            },
            {
                "start_time": 32.35,
                "end_time": 32.3818182,
                "pitch": 41,
                "velocity": 64,
                "duration": 0.0318182,
                "tempo": 120.0
            },
            {
                "start_time": 32.3818182,
                "end_time": 32.4,
                "pitch": 37,
                "velocity": 64,
                "duration": 0.0181818,
                "tempo": 120.0
            },
            {
                "start_time": 32.4,
                "end_time": 32.4159091,
                "pitch": 35,
                "velocity": 64,
                "duration": 0.0159091,
                "tempo": 120.0
            },
            {
                "start_time": 32.4159091,
                "end_time": 32.4318182,
                "pitch": 33,
                "velocity": 64,
                "duration": 0.0159091,
                "tempo": 120.0
            },
            {
                "start_time": 32.4318182,
                "end_time": 32.45,
                "pitch": 30,
                "velocity": 64,
                "duration": 0.0181818,
                "tempo": 120.0
            },
            {
                "start_time": 32.45,
                "end_time": 32.4818182,
                "pitch": 27,
                "velocity": 64,
                "duration": 0.0318182,
                "tempo": 120.0
            },
            {
                "start_time": 32.4818182,
                "end_time": 32.5,
                "pitch": 24,
                "velocity": 64,
                "duration": 0.0181818,
                "tempo": 120.0
            },
            {
                "start_time": 33.0136364,
                "end_time": 33.0477273,
                "pitch": 52,
                "velocity": 64,
                "duration": 0.0340909,
                "tempo": 120.0
            },
            {
                "start_time": 33.0477273,
                "end_time": 33.0954545,
                "pitch": 52,
                "velocity": 64,
                "duration": 0.0477273,
                "tempo": 120.0
            },
            {
                "start_time": 33.0954545,
                "end_time": 33.1295455,
                "pitch": 49,
                "velocity": 64,
                "duration": 0.0340909,
                "tempo": 120.0
            },
            {
                "start_time": 33.1295455,
                "end_time": 33.1954545,
                "pitch": 52,
                "velocity": 64,
                "duration": 0.0659091,
                "tempo": 120.0
            },
            {
                "start_time": 33.1954545,
                "end_time": 33.2272727,
                "pitch": 50,
                "velocity": 64,
                "duration": 0.0318182,
                "tempo": 120.0
            },
            {
                "start_time": 33.2272727,
                "end_time": 33.2613636,
                "pitch": 47,
                "velocity": 64,
                "duration": 0.0340909,
                "tempo": 120.0
            },
            {
                "start_time": 33.5136364,
                "end_time": 33.5454545,
                "pitch": 55,
                "velocity": 64,
                "duration": 0.0318182,
                "tempo": 120.0
            },
            {
                "start_time": 31.4886364,
                "end_time": 33.5454545,
                "pitch": 67,
                "velocity": 64,
                "duration": 2.0568182,
                "tempo": 120.0
            },
            {
                "start_time": 33.5454545,
                "end_time": 33.5954545,
                "pitch": 55,
                "velocity": 64,
                "duration": 0.05,
                "tempo": 120.0
            },
            {
                "start_time": 33.5954545,
                "end_time": 33.6454545,
                "pitch": 52,
                "velocity": 64,
                "duration": 0.05,
                "tempo": 120.0
            },
            {
                "start_time": 33.6454545,
                "end_time": 33.6954545,
                "pitch": 49,
                "velocity": 64,
                "duration": 0.05,
                "tempo": 120.0
            },
            {
                "start_time": 33.6954545,
                "end_time": 33.7477273,
                "pitch": 46,
                "velocity": 64,
                "duration": 0.0522727,
                "tempo": 120.0
            },
            {
                "start_time": 33.7477273,
                "end_time": 33.7795455,
                "pitch": 44,
                "velocity": 64,
                "duration": 0.0318182,
                "tempo": 120.0
            },
            {
                "start_time": 33.7818182,
                "end_time": 33.8136364,
                "pitch": 48,
                "velocity": 64,
                "duration": 0.0318182,
                "tempo": 120.0
            },
            {
                "start_time": 33.8136364,
                "end_time": 33.8477273,
                "pitch": 46,
                "velocity": 64,
                "duration": 0.0340909,
                "tempo": 120.0
            },
            {
                "start_time": 33.8477273,
                "end_time": 33.8795455,
                "pitch": 43,
                "velocity": 64,
                "duration": 0.0318182,
                "tempo": 120.0
            },
            {
                "start_time": 33.8795455,
                "end_time": 33.9136364,
                "pitch": 41,
                "velocity": 64,
                "duration": 0.0340909,
                "tempo": 120.0
            },
            {
                "start_time": 33.9136364,
                "end_time": 33.9477273,
                "pitch": 48,
                "velocity": 64,
                "duration": 0.0340909,
                "tempo": 120.0
            },
            {
                "start_time": 33.9477273,
                "end_time": 33.9818182,
                "pitch": 46,
                "velocity": 64,
                "duration": 0.0340909,
                "tempo": 120.0
            },
            {
                "start_time": 33.9818182,
                "end_time": 34.0136364,
                "pitch": 43,
                "velocity": 64,
                "duration": 0.0318182,
                "tempo": 120.0
            },
            {
                "start_time": 34.0136364,
                "end_time": 34.0477273,
                "pitch": 41,
                "velocity": 64,
                "duration": 0.0340909,
                "tempo": 120.0
            },
            {
                "start_time": 34.0477273,
                "end_time": 34.0659091,
                "pitch": 37,
                "velocity": 64,
                "duration": 0.0181818,
                "tempo": 120.0
            },
            {
                "start_time": 34.0659091,
                "end_time": 34.0977273,
                "pitch": 35,
                "velocity": 64,
                "duration": 0.0318182,
                "tempo": 120.0
            },
            {
                "start_time": 34.0977273,
                "end_time": 34.1159091,
                "pitch": 33,
                "velocity": 64,
                "duration": 0.0181818,
                "tempo": 120.0
            },
            {
                "start_time": 34.1159091,
                "end_time": 34.1318182,
                "pitch": 30,
                "velocity": 64,
                "duration": 0.0159091,
                "tempo": 120.0
            },
            {
                "start_time": 34.1318182,
                "end_time": 34.1477273,
                "pitch": 27,
                "velocity": 64,
                "duration": 0.0159091,
                "tempo": 120.0
            },
            {
                "start_time": 34.1477273,
                "end_time": 34.1659091,
                "pitch": 24,
                "velocity": 64,
                "duration": 0.0181818,
                "tempo": 120.0
            },
            {
                "start_time": 34.3,
                "end_time": 34.3318182,
                "pitch": 48,
                "velocity": 64,
                "duration": 0.0318182,
                "tempo": 120.0
            },
            {
                "start_time": 34.3318182,
                "end_time": 34.3659091,
                "pitch": 46,
                "velocity": 64,
                "duration": 0.0340909,
                "tempo": 120.0
            },
            {
                "start_time": 34.3659091,
                "end_time": 34.4,
                "pitch": 43,
                "velocity": 64,
                "duration": 0.0340909,
                "tempo": 120.0
            },
            {
                "start_time": 34.4,
                "end_time": 34.45,
                "pitch": 41,
                "velocity": 64,
                "duration": 0.05,
                "tempo": 120.0
            },
            {
                "start_time": 34.45,
                "end_time": 34.4659091,
                "pitch": 37,
                "velocity": 64,
                "duration": 0.0159091,
                "tempo": 120.0
            },
            {
                "start_time": 34.4659091,
                "end_time": 34.4840909,
                "pitch": 35,
                "velocity": 64,
                "duration": 0.0181818,
                "tempo": 120.0
            },
            {
                "start_time": 34.4840909,
                "end_time": 34.5,
                "pitch": 33,
                "velocity": 64,
                "duration": 0.0159091,
                "tempo": 120.0
            },
            {
                "start_time": 34.5,
                "end_time": 34.5159091,
                "pitch": 30,
                "velocity": 64,
                "duration": 0.0159091,
                "tempo": 120.0
            },
            {
                "start_time": 34.5159091,
                "end_time": 34.5340909,
                "pitch": 27,
                "velocity": 64,
                "duration": 0.0181818,
                "tempo": 120.0
            },
            {
                "start_time": 34.5340909,
                "end_time": 34.55,
                "pitch": 24,
                "velocity": 64,
                "duration": 0.0159091,
                "tempo": 120.0
            },
            {
                "start_time": 35.0659091,
                "end_time": 35.1136364,
                "pitch": 52,
                "velocity": 64,
                "duration": 0.0477273,
                "tempo": 120.0
            },
            {
                "start_time": 35.1136364,
                "end_time": 35.1795455,
                "pitch": 49,
                "velocity": 64,
                "duration": 0.0659091,
                "tempo": 120.0
            },
            {
                "start_time": 35.1795455,
                "end_time": 35.2136364,
                "pitch": 46,
                "velocity": 64,
                "duration": 0.0340909,
                "tempo": 120.0
            },
            {
                "start_time": 35.2136364,
                "end_time": 35.2454545,
                "pitch": 44,
                "velocity": 64,
                "duration": 0.0318182,
                "tempo": 120.0
            },
            {
                "start_time": 35.2454545,
                "end_time": 35.2795455,
                "pitch": 41,
                "velocity": 64,
                "duration": 0.0340909,
                "tempo": 120.0
            },
            {
                "start_time": 35.2795455,
                "end_time": 35.2954545,
                "pitch": 38,
                "velocity": 64,
                "duration": 0.0159091,
                "tempo": 120.0
            },
            {
                "start_time": 35.2954545,
                "end_time": 35.3136364,
                "pitch": 36,
                "velocity": 64,
                "duration": 0.0181818,
                "tempo": 120.0
            },
            {
                "start_time": 33.5454545,
                "end_time": 35.5704545,
                "pitch": 67,
                "velocity": 64,
                "duration": 2.025,
                "tempo": 120.0
            },
            {
                "start_time": 35.5704545,
                "end_time": 35.6340909,
                "pitch": 55,
                "velocity": 64,
                "duration": 0.0636364,
                "tempo": 120.0
            },
            {
                "start_time": 35.5704545,
                "end_time": 35.6340909,
                "pitch": 55,
                "velocity": 64,
                "duration": 0.0636364,
                "tempo": 120.0
            },
            {
                "start_time": 35.6340909,
                "end_time": 35.6977273,
                "pitch": 52,
                "velocity": 64,
                "duration": 0.0636364,
                "tempo": 120.0
            },
            {
                "start_time": 35.6977273,
                "end_time": 35.7454545,
                "pitch": 49,
                "velocity": 64,
                "duration": 0.0477273,
                "tempo": 120.0
            },
            {
                "start_time": 35.7454545,
                "end_time": 35.7772727,
                "pitch": 47,
                "velocity": 64,
                "duration": 0.0318182,
                "tempo": 120.0
            },
            {
                "start_time": 35.7772727,
                "end_time": 35.8090909,
                "pitch": 44,
                "velocity": 64,
                "duration": 0.0318182,
                "tempo": 120.0
            },
            {
                "start_time": 35.8113636,
                "end_time": 35.8590909,
                "pitch": 48,
                "velocity": 64,
                "duration": 0.0477273,
                "tempo": 120.0
            },
            {
                "start_time": 35.8590909,
                "end_time": 35.8931818,
                "pitch": 46,
                "velocity": 64,
                "duration": 0.0340909,
                "tempo": 120.0
            },
            {
                "start_time": 35.8931818,
                "end_time": 35.9272727,
                "pitch": 43,
                "velocity": 64,
                "duration": 0.0340909,
                "tempo": 120.0
            },
            {
                "start_time": 35.9272727,
                "end_time": 35.9431818,
                "pitch": 41,
                "velocity": 64,
                "duration": 0.0159091,
                "tempo": 120.0
            },
            {
                "start_time": 35.9431818,
                "end_time": 35.9772727,
                "pitch": 48,
                "velocity": 64,
                "duration": 0.0340909,
                "tempo": 120.0
            },
            {
                "start_time": 35.9772727,
                "end_time": 36.0272727,
                "pitch": 46,
                "velocity": 64,
                "duration": 0.05,
                "tempo": 120.0
            },
            {
                "start_time": 36.0272727,
                "end_time": 36.0613636,
                "pitch": 43,
                "velocity": 64,
                "duration": 0.0340909,
                "tempo": 120.0
            },
            {
                "start_time": 36.0613636,
                "end_time": 36.0931818,
                "pitch": 41,
                "velocity": 64,
                "duration": 0.0318182,
                "tempo": 120.0
            },
            {
                "start_time": 36.0931818,
                "end_time": 36.1113636,
                "pitch": 37,
                "velocity": 64,
                "duration": 0.0181818,
                "tempo": 120.0
            },
            {
                "start_time": 36.1113636,
                "end_time": 36.1272727,
                "pitch": 35,
                "velocity": 64,
                "duration": 0.0159091,
                "tempo": 120.0
            },
            {
                "start_time": 36.1272727,
                "end_time": 36.1454545,
                "pitch": 33,
                "velocity": 64,
                "duration": 0.0181818,
                "tempo": 120.0
            },
            {
                "start_time": 36.1454545,
                "end_time": 36.1613636,
                "pitch": 30,
                "velocity": 64,
                "duration": 0.0159091,
                "tempo": 120.0
            },
            {
                "start_time": 36.1613636,
                "end_time": 36.1772727,
                "pitch": 27,
                "velocity": 64,
                "duration": 0.0159091,
                "tempo": 120.0
            },
            {
                "start_time": 36.1772727,
                "end_time": 36.2113636,
                "pitch": 24,
                "velocity": 64,
                "duration": 0.0340909,
                "tempo": 120.0
            },
            {
                "start_time": 36.3295455,
                "end_time": 36.3613636,
                "pitch": 48,
                "velocity": 64,
                "duration": 0.0318182,
                "tempo": 120.0
            },
            {
                "start_time": 36.3613636,
                "end_time": 36.4113636,
                "pitch": 46,
                "velocity": 64,
                "duration": 0.05,
                "tempo": 120.0
            },
            {
                "start_time": 36.4113636,
                "end_time": 36.4454545,
                "pitch": 43,
                "velocity": 64,
                "duration": 0.0340909,
                "tempo": 120.0
            },
            {
                "start_time": 36.4454545,
                "end_time": 36.4795455,
                "pitch": 41,
                "velocity": 64,
                "duration": 0.0340909,
                "tempo": 120.0
            },
            {
                "start_time": 36.4795455,
                "end_time": 36.4954545,
                "pitch": 38,
                "velocity": 64,
                "duration": 0.0159091,
                "tempo": 120.0
            },
            {
                "start_time": 36.4954545,
                "end_time": 36.5136364,
                "pitch": 35,
                "velocity": 64,
                "duration": 0.0181818,
                "tempo": 120.0
            },
            {
                "start_time": 36.5136364,
                "end_time": 36.5295455,
                "pitch": 33,
                "velocity": 64,
                "duration": 0.0159091,
                "tempo": 120.0
            },
            {
                "start_time": 36.5295455,
                "end_time": 36.5454545,
                "pitch": 30,
                "velocity": 64,
                "duration": 0.0159091,
                "tempo": 120.0
            },
            {
                "start_time": 36.5454545,
                "end_time": 36.5795455,
                "pitch": 27,
                "velocity": 64,
                "duration": 0.0340909,
                "tempo": 120.0
            },
            {
                "start_time": 36.5795455,
                "end_time": 36.5977273,
                "pitch": 24,
                "velocity": 64,
                "duration": 0.0181818,
                "tempo": 120.0
            },
            {
                "start_time": 37.1113636,
                "end_time": 37.1431818,
                "pitch": 52,
                "velocity": 64,
                "duration": 0.0318182,
                "tempo": 120.0
            },
            {
                "start_time": 37.1454545,
                "end_time": 37.1931818,
                "pitch": 52,
                "velocity": 64,
                "duration": 0.0477273,
                "tempo": 120.0
            },
            {
                "start_time": 37.1931818,
                "end_time": 37.2272727,
                "pitch": 49,
                "velocity": 64,
                "duration": 0.0340909,
                "tempo": 120.0
            },
            {
                "start_time": 37.2272727,
                "end_time": 37.2931818,
                "pitch": 52,
                "velocity": 64,
                "duration": 0.0659091,
                "tempo": 120.0
            },
            {
                "start_time": 37.2931818,
                "end_time": 37.3409091,
                "pitch": 49,
                "velocity": 64,
                "duration": 0.0477273,
                "tempo": 120.0
            },
            {
                "start_time": 37.3409091,
                "end_time": 37.3590909,
                "pitch": 46,
                "velocity": 64,
                "duration": 0.0181818,
                "tempo": 120.0
            },
            {
                "start_time": 37.6090909,
                "end_time": 37.6431818,
                "pitch": 55,
                "velocity": 64,
                "duration": 0.0340909,
                "tempo": 120.0
            },
            {
                "start_time": 35.5704545,
                "end_time": 37.6431818,
                "pitch": 67,
                "velocity": 64,
                "duration": 2.0727273,
                "tempo": 120.0
            },
            {
                "start_time": 37.6431818,
                "end_time": 37.6931818,
                "pitch": 54,
                "velocity": 64,
                "duration": 0.05,
                "tempo": 120.0
            },
            {
                "start_time": 37.6931818,
                "end_time": 37.7431818,
                "pitch": 52,
                "velocity": 64,
                "duration": 0.05,
                "tempo": 120.0
            },
            {
                "start_time": 37.7431818,
                "end_time": 37.7931818,
                "pitch": 49,
                "velocity": 64,
                "duration": 0.05,
                "tempo": 120.0
            },
            {
                "start_time": 37.7931818,
                "end_time": 37.8431818,
                "pitch": 46,
                "velocity": 64,
                "duration": 0.05,
                "tempo": 120.0
            },
            {
                "start_time": 37.8431818,
                "end_time": 37.8772727,
                "pitch": 44,
                "velocity": 64,
                "duration": 0.0340909,
                "tempo": 120.0
            },
            {
                "start_time": 37.8772727,
                "end_time": 37.9113636,
                "pitch": 48,
                "velocity": 64,
                "duration": 0.0340909,
                "tempo": 120.0
            },
            {
                "start_time": 37.9113636,
                "end_time": 37.9431818,
                "pitch": 46,
                "velocity": 64,
                "duration": 0.0318182,
                "tempo": 120.0
            },
            {
                "start_time": 37.9431818,
                "end_time": 37.9931818,
                "pitch": 43,
                "velocity": 64,
                "duration": 0.05,
                "tempo": 120.0
            },
            {
                "start_time": 37.9931818,
                "end_time": 38.0113636,
                "pitch": 41,
                "velocity": 64,
                "duration": 0.0181818,
                "tempo": 120.0
            },
            {
                "start_time": 38.0113636,
                "end_time": 38.0454545,
                "pitch": 48,
                "velocity": 64,
                "duration": 0.0340909,
                "tempo": 120.0
            },
            {
                "start_time": 38.0454545,
                "end_time": 38.0772727,
                "pitch": 46,
                "velocity": 64,
                "duration": 0.0318182,
                "tempo": 120.0
            },
            {
                "start_time": 38.0772727,
                "end_time": 38.1113636,
                "pitch": 43,
                "velocity": 64,
                "duration": 0.0340909,
                "tempo": 120.0
            },
            {
                "start_time": 38.1113636,
                "end_time": 38.1454545,
                "pitch": 41,
                "velocity": 64,
                "duration": 0.0340909,
                "tempo": 120.0
            },
            {
                "start_time": 38.1454545,
                "end_time": 38.1795455,
                "pitch": 37,
                "velocity": 64,
                "duration": 0.0340909,
                "tempo": 120.0
            },
            {
                "start_time": 38.1795455,
                "end_time": 38.1954545,
                "pitch": 35,
                "velocity": 64,
                "duration": 0.0159091,
                "tempo": 120.0
            },
            {
                "start_time": 38.1954545,
                "end_time": 38.2113636,
                "pitch": 33,
                "velocity": 64,
                "duration": 0.0159091,
                "tempo": 120.0
            },
            {
                "start_time": 38.2113636,
                "end_time": 38.2295455,
                "pitch": 30,
                "velocity": 64,
                "duration": 0.0181818,
                "tempo": 120.0
            },
            {
                "start_time": 38.2295455,
                "end_time": 38.2454545,
                "pitch": 27,
                "velocity": 64,
                "duration": 0.0159091,
                "tempo": 120.0
            },
            {
                "start_time": 38.2454545,
                "end_time": 38.2613636,
                "pitch": 24,
                "velocity": 64,
                "duration": 0.0159091,
                "tempo": 120.0
            },
            {
                "start_time": 38.3977273,
                "end_time": 38.4295455,
                "pitch": 48,
                "velocity": 64,
                "duration": 0.0318182,
                "tempo": 120.0
            },
            {
                "start_time": 38.4295455,
                "end_time": 38.4636364,
                "pitch": 46,
                "velocity": 64,
                "duration": 0.0340909,
                "tempo": 120.0
            },
            {
                "start_time": 38.4636364,
                "end_time": 38.4954545,
                "pitch": 43,
                "velocity": 64,
                "duration": 0.0318182,
                "tempo": 120.0
            },
            {
                "start_time": 38.4954545,
                "end_time": 38.5477273,
                "pitch": 41,
                "velocity": 64,
                "duration": 0.0522727,
                "tempo": 120.0
            },
            {
                "start_time": 38.5477273,
                "end_time": 38.5636364,
                "pitch": 37,
                "velocity": 64,
                "duration": 0.0159091,
                "tempo": 120.0
            },
            {
                "start_time": 38.5636364,
                "end_time": 38.5795455,
                "pitch": 35,
                "velocity": 64,
                "duration": 0.0159091,
                "tempo": 120.0
            },
            {
                "start_time": 38.5795455,
                "end_time": 38.5977273,
                "pitch": 33,
                "velocity": 64,
                "duration": 0.0181818,
                "tempo": 120.0
            },
            {
                "start_time": 38.5977273,
                "end_time": 38.6136364,
                "pitch": 30,
                "velocity": 64,
                "duration": 0.0159091,
                "tempo": 120.0
            },
            {
                "start_time": 38.6136364,
                "end_time": 38.6295455,
                "pitch": 27,
                "velocity": 64,
                "duration": 0.0159091,
                "tempo": 120.0
            },
            {
                "start_time": 38.6295455,
                "end_time": 38.6477273,
                "pitch": 24,
                "velocity": 64,
                "duration": 0.0181818,
                "tempo": 120.0
            },
            {
                "start_time": 39.1613636,
                "end_time": 39.2113636,
                "pitch": 52,
                "velocity": 64,
                "duration": 0.05,
                "tempo": 120.0
            },
            {
                "start_time": 39.2113636,
                "end_time": 39.2772727,
                "pitch": 49,
                "velocity": 64,
                "duration": 0.0659091,
                "tempo": 120.0
            },
            {
                "start_time": 39.2772727,
                "end_time": 39.3113636,
                "pitch": 46,
                "velocity": 64,
                "duration": 0.0340909,
                "tempo": 120.0
            },
            {
                "start_time": 39.3113636,
                "end_time": 39.3431818,
                "pitch": 44,
                "velocity": 64,
                "duration": 0.0318182,
                "tempo": 120.0
            },
            {
                "start_time": 39.3431818,
                "end_time": 39.375,
                "pitch": 41,
                "velocity": 64,
                "duration": 0.0318182,
                "tempo": 120.0
            },
            {
                "start_time": 39.375,
                "end_time": 39.3931818,
                "pitch": 38,
                "velocity": 64,
                "duration": 0.0181818,
                "tempo": 120.0
            },
            {
                "start_time": 39.3931818,
                "end_time": 39.425,
                "pitch": 36,
                "velocity": 64,
                "duration": 0.0318182,
                "tempo": 120.0
            },
            {
                "start_time": 39.6772727,
                "end_time": 39.6931818,
                "pitch": 55,
                "velocity": 64,
                "duration": 0.0159091,
                "tempo": 120.0
            },
            {
                "start_time": 37.6431818,
                "end_time": 39.6931818,
                "pitch": 67,
                "velocity": 64,
                "duration": 2.05,
                "tempo": 120.0
            },
            {
                "start_time": 39.6931818,
                "end_time": 39.7431818,
                "pitch": 54,
                "velocity": 64,
                "duration": 0.05,
                "tempo": 120.0
            },
            {
                "start_time": 39.7431818,
                "end_time": 39.8113636,
                "pitch": 52,
                "velocity": 64,
                "duration": 0.0681818,
                "tempo": 120.0
            },
            {
                "start_time": 39.8113636,
                "end_time": 39.8613636,
                "pitch": 49,
                "velocity": 64,
                "duration": 0.05,
                "tempo": 120.0
            },
            {
                "start_time": 39.8613636,
                "end_time": 39.8931818,
                "pitch": 46,
                "velocity": 64,
                "duration": 0.0318182,
                "tempo": 120.0
            },
            {
                "start_time": 39.8931818,
                "end_time": 39.9272727,
                "pitch": 44,
                "velocity": 64,
                "duration": 0.0340909,
                "tempo": 120.0
            },
            {
                "start_time": 39.9272727,
                "end_time": 39.975,
                "pitch": 48,
                "velocity": 64,
                "duration": 0.0477273,
                "tempo": 120.0
            },
            {
                "start_time": 39.975,
                "end_time": 40.0090909,
                "pitch": 46,
                "velocity": 64,
                "duration": 0.0340909,
                "tempo": 120.0
            },
            {
                "start_time": 40.0090909,
                "end_time": 40.0409091,
                "pitch": 43,
                "velocity": 64,
                "duration": 0.0318182,
                "tempo": 120.0
            },
            {
                "start_time": 40.0409091,
                "end_time": 40.0568182,
                "pitch": 41,
                "velocity": 64,
                "duration": 0.0159091,
                "tempo": 120.0
            },
            {
                "start_time": 40.0568182,
                "end_time": 40.0886364,
                "pitch": 48,
                "velocity": 64,
                "duration": 0.0318182,
                "tempo": 120.0
            },
            {
                "start_time": 40.0886364,
                "end_time": 40.1363636,
                "pitch": 46,
                "velocity": 64,
                "duration": 0.0477273,
                "tempo": 120.0
            },
            {
                "start_time": 40.1363636,
                "end_time": 40.1681818,
                "pitch": 43,
                "velocity": 64,
                "duration": 0.0318182,
                "tempo": 120.0
            },
            {
                "start_time": 40.1681818,
                "end_time": 40.2,
                "pitch": 41,
                "velocity": 64,
                "duration": 0.0318182,
                "tempo": 120.0
            },
            {
                "start_time": 40.2,
                "end_time": 40.2159091,
                "pitch": 37,
                "velocity": 64,
                "duration": 0.0159091,
                "tempo": 120.0
            },
            {
                "start_time": 40.2159091,
                "end_time": 40.2318182,
                "pitch": 35,
                "velocity": 64,
                "duration": 0.0159091,
                "tempo": 120.0
            },
            {
                "start_time": 40.2318182,
                "end_time": 40.2477273,
                "pitch": 33,
                "velocity": 64,
                "duration": 0.0159091,
                "tempo": 120.0
            },
            {
                "start_time": 40.2477273,
                "end_time": 40.2659091,
                "pitch": 30,
                "velocity": 64,
                "duration": 0.0181818,
                "tempo": 120.0
            },
            {
                "start_time": 40.2659091,
                "end_time": 40.2818182,
                "pitch": 27,
                "velocity": 64,
                "duration": 0.0159091,
                "tempo": 120.0
            },
            {
                "start_time": 40.2818182,
                "end_time": 40.3136364,
                "pitch": 24,
                "velocity": 64,
                "duration": 0.0318182,
                "tempo": 120.0
            },
            {
                "start_time": 40.425,
                "end_time": 40.475,
                "pitch": 48,
                "velocity": 64,
                "duration": 0.05,
                "tempo": 120.0
            },
            {
                "start_time": 40.475,
                "end_time": 40.5090909,
                "pitch": 46,
                "velocity": 64,
                "duration": 0.0340909,
                "tempo": 120.0
            },
            {
                "start_time": 40.5090909,
                "end_time": 40.5431818,
                "pitch": 43,
                "velocity": 64,
                "duration": 0.0340909,
                "tempo": 120.0
            },
            {
                "start_time": 40.5431818,
                "end_time": 40.5772727,
                "pitch": 41,
                "velocity": 64,
                "duration": 0.0340909,
                "tempo": 120.0
            },
            {
                "start_time": 40.5772727,
                "end_time": 40.5954545,
                "pitch": 37,
                "velocity": 64,
                "duration": 0.0181818,
                "tempo": 120.0
            },
            {
                "start_time": 40.5954545,
                "end_time": 40.6113636,
                "pitch": 35,
                "velocity": 64,
                "duration": 0.0159091,
                "tempo": 120.0
            },
            {
                "start_time": 40.6113636,
                "end_time": 40.6295455,
                "pitch": 33,
                "velocity": 64,
                "duration": 0.0181818,
                "tempo": 120.0
            },
            {
                "start_time": 40.6295455,
                "end_time": 40.6636364,
                "pitch": 30,
                "velocity": 64,
                "duration": 0.0340909,
                "tempo": 120.0
            },
            {
                "start_time": 40.6636364,
                "end_time": 40.6795455,
                "pitch": 27,
                "velocity": 64,
                "duration": 0.0159091,
                "tempo": 120.0
            },
            {
                "start_time": 30.4477273,
                "end_time": 40.6977273,
                "pitch": 21,
                "velocity": 64,
                "duration": 10.25,
                "tempo": 120.0
            },
            {
                "start_time": 40.6795455,
                "end_time": 40.6977273,
                "pitch": 24,
                "velocity": 64,
                "duration": 0.0181818,
                "tempo": 120.0
            },
            {
                "start_time": 41.2159091,
                "end_time": 41.25,
                "pitch": 52,
                "velocity": 64,
                "duration": 0.0340909,
                "tempo": 120.0
            },
            {
                "start_time": 41.25,
                "end_time": 41.2977273,
                "pitch": 52,
                "velocity": 64,
                "duration": 0.0477273,
                "tempo": 120.0
            },
            {
                "start_time": 41.2977273,
                "end_time": 41.3318182,
                "pitch": 49,
                "velocity": 64,
                "duration": 0.0340909,
                "tempo": 120.0
            },
            {
                "start_time": 41.3318182,
                "end_time": 41.3977273,
                "pitch": 52,
                "velocity": 64,
                "duration": 0.0659091,
                "tempo": 120.0
            },
            {
                "start_time": 41.3977273,
                "end_time": 41.4477273,
                "pitch": 49,
                "velocity": 64,
                "duration": 0.05,
                "tempo": 120.0
            },
            {
                "start_time": 41.4477273,
                "end_time": 41.4659091,
                "pitch": 47,
                "velocity": 64,
                "duration": 0.0181818,
                "tempo": 120.0
            }
        ],
        "Electric Piano 1": [
            {
                "start_time": 0.4590909,
                "end_time": 0.5090909,
                "pitch": 115,
                "velocity": 4,
                "duration": 0.05,
                "tempo": 120.0
            },
            {
                "start_time": 0.6431818,
                "end_time": 0.6931818,
                "pitch": 115,
                "velocity": 4,
                "duration": 0.05,
                "tempo": 120.0
            },
            {
                "start_time": 0.5090909,
                "end_time": 0.6954545,
                "pitch": 103,
                "velocity": 4,
                "duration": 0.1863636,
                "tempo": 120.0
            },
            {
                "start_time": 0.6931818,
                "end_time": 0.6954545,
                "pitch": 103,
                "velocity": 4,
                "duration": 0.0022727,
                "tempo": 120.0
            },
            {
                "start_time": 0.8272727,
                "end_time": 0.8772727,
                "pitch": 115,
                "velocity": 4,
                "duration": 0.05,
                "tempo": 120.0
            },
            {
                "start_time": 0.8772727,
                "end_time": 1.0613636,
                "pitch": 103,
                "velocity": 4,
                "duration": 0.1840909,
                "tempo": 120.0
            },
            {
                "start_time": 1.0113636,
                "end_time": 1.0613636,
                "pitch": 115,
                "velocity": 4,
                "duration": 0.05,
                "tempo": 120.0
            },
            {
                "start_time": 1.0613636,
                "end_time": 1.2477273,
                "pitch": 103,
                "velocity": 4,
                "duration": 0.1863636,
                "tempo": 120.0
            },
            {
                "start_time": 1.1954545,
                "end_time": 1.2477273,
                "pitch": 115,
                "velocity": 4,
                "duration": 0.0522727,
                "tempo": 120.0
            },
            {
                "start_time": 1.2477273,
                "end_time": 1.4318182,
                "pitch": 103,
                "velocity": 4,
                "duration": 0.1840909,
                "tempo": 120.0
            },
            {
                "start_time": 1.3795455,
                "end_time": 1.4318182,
                "pitch": 115,
                "velocity": 4,
                "duration": 0.0522727,
                "tempo": 120.0
            },
            {
                "start_time": 1.4318182,
                "end_time": 1.6159091,
                "pitch": 103,
                "velocity": 4,
                "duration": 0.1840909,
                "tempo": 120.0
            },
            {
                "start_time": 1.5659091,
                "end_time": 1.6159091,
                "pitch": 115,
                "velocity": 4,
                "duration": 0.05,
                "tempo": 120.0
            },
            {
                "start_time": 1.6159091,
                "end_time": 1.8,
                "pitch": 103,
                "velocity": 4,
                "duration": 0.1840909,
                "tempo": 120.0
            },
            {
                "start_time": 1.75,
                "end_time": 1.8,
                "pitch": 115,
                "velocity": 4,
                "duration": 0.05,
                "tempo": 120.0
            },
            {
                "start_time": 1.8,
                "end_time": 1.9840909,
                "pitch": 103,
                "velocity": 4,
                "duration": 0.1840909,
                "tempo": 120.0
            },
            {
                "start_time": 1.9340909,
                "end_time": 1.9840909,
                "pitch": 115,
                "velocity": 4,
                "duration": 0.05,
                "tempo": 120.0
            },
            {
                "start_time": 1.9840909,
                "end_time": 2.1681818,
                "pitch": 103,
                "velocity": 4,
                "duration": 0.1840909,
                "tempo": 120.0
            },
            {
                "start_time": 2.1181818,
                "end_time": 2.1681818,
                "pitch": 115,
                "velocity": 4,
                "duration": 0.05,
                "tempo": 120.0
            },
            {
                "start_time": 2.1681818,
                "end_time": 2.3522727,
                "pitch": 103,
                "velocity": 4,
                "duration": 0.1840909,
                "tempo": 120.0
            },
            {
                "start_time": 2.3022727,
                "end_time": 2.3522727,
                "pitch": 115,
                "velocity": 4,
                "duration": 0.05,
                "tempo": 120.0
            },
            {
                "start_time": 2.3522727,
                "end_time": 2.5363636,
                "pitch": 103,
                "velocity": 4,
                "duration": 0.1840909,
                "tempo": 120.0
            },
            {
                "start_time": 2.4863636,
                "end_time": 2.5363636,
                "pitch": 115,
                "velocity": 4,
                "duration": 0.05,
                "tempo": 120.0
            },
            {
                "start_time": 2.5363636,
                "end_time": 2.7159091,
                "pitch": 103,
                "velocity": 4,
                "duration": 0.1795455,
                "tempo": 120.0
            },
            {
                "start_time": 2.6681818,
                "end_time": 2.7159091,
                "pitch": 115,
                "velocity": 4,
                "duration": 0.0477273,
                "tempo": 120.0
            },
            {
                "start_time": 2.7159091,
                "end_time": 2.8977273,
                "pitch": 103,
                "velocity": 4,
                "duration": 0.1818182,
                "tempo": 120.0
            },
            {
                "start_time": 2.8477273,
                "end_time": 2.8977273,
                "pitch": 115,
                "velocity": 4,
                "duration": 0.05,
                "tempo": 120.0
            },
            {
                "start_time": 49.8659091,
                "end_time": 51.7477273,
                "pitch": 71,
                "velocity": 80,
                "duration": 1.8818182,
                "tempo": 120.0
            },
            {
                "start_time": 51.7477273,
                "end_time": 51.8795455,
                "pitch": 70,
                "velocity": 80,
                "duration": 0.1318182,
                "tempo": 120.0
            },
            {
                "start_time": 51.8795455,
                "end_time": 52.0113636,
                "pitch": 71,
                "velocity": 80,
                "duration": 0.1318182,
                "tempo": 120.0
            },
            {
                "start_time": 52.0113636,
                "end_time": 53.5340909,
                "pitch": 72,
                "velocity": 80,
                "duration": 1.5227273,
                "tempo": 120.0
            },
            {
                "start_time": 53.5340909,
                "end_time": 53.8022727,
                "pitch": 74,
                "velocity": 80,
                "duration": 0.2681818,
                "tempo": 120.0
            },
            {
                "start_time": 53.8022727,
                "end_time": 54.0522727,
                "pitch": 72,
                "velocity": 80,
                "duration": 0.25,
                "tempo": 120.0
            },
            {
                "start_time": 54.0545455,
                "end_time": 55.5977273,
                "pitch": 75,
                "velocity": 80,
                "duration": 1.5431818,
                "tempo": 120.0
            },
            {
                "start_time": 55.5977273,
                "end_time": 55.7159091,
                "pitch": 75,
                "velocity": 80,
                "duration": 0.1181818,
                "tempo": 120.0
            },
            {
                "start_time": 55.7159091,
                "end_time": 55.85,
                "pitch": 76,
                "velocity": 80,
                "duration": 0.1340909,
                "tempo": 120.0
            },
            {
                "start_time": 55.85,
                "end_time": 55.9818182,
                "pitch": 77,
                "velocity": 80,
                "duration": 0.1318182,
                "tempo": 120.0
            },
            {
                "start_time": 55.9840909,
                "end_time": 56.1159091,
                "pitch": 78,
                "velocity": 80,
                "duration": 0.1318182,
                "tempo": 120.0
            },
            {
                "start_time": 56.1181818,
                "end_time": 56.2,
                "pitch": 79,
                "velocity": 80,
                "duration": 0.0818182,
                "tempo": 120.0
            },
            {
                "start_time": 56.2,
                "end_time": 56.3840909,
                "pitch": 79,
                "velocity": 80,
                "duration": 0.1840909,
                "tempo": 120.0
            },
            {
                "start_time": 56.2,
                "end_time": 56.3840909,
                "pitch": 91,
                "velocity": 80,
                "duration": 0.1840909,
                "tempo": 120.0
            },
            {
                "start_time": 56.3840909,
                "end_time": 56.5681818,
                "pitch": 79,
                "velocity": 80,
                "duration": 0.1840909,
                "tempo": 120.0
            },
            {
                "start_time": 56.3840909,
                "end_time": 56.5681818,
                "pitch": 91,
                "velocity": 80,
                "duration": 0.1840909,
                "tempo": 120.0
            },
            {
                "start_time": 56.5681818,
                "end_time": 56.7431818,
                "pitch": 79,
                "velocity": 80,
                "duration": 0.175,
                "tempo": 120.0
            },
            {
                "start_time": 56.5681818,
                "end_time": 56.7454545,
                "pitch": 91,
                "velocity": 80,
                "duration": 0.1772727,
                "tempo": 120.0
            },
            {
                "start_time": 56.7431818,
                "end_time": 56.7454545,
                "pitch": 91,
                "velocity": 80,
                "duration": 0.0022727,
                "tempo": 120.0
            },
            {
                "start_time": 56.7454545,
                "end_time": 56.9181818,
                "pitch": 79,
                "velocity": 80,
                "duration": 0.1727273,
                "tempo": 120.0
            },
            {
                "start_time": 56.9181818,
                "end_time": 57.0909091,
                "pitch": 79,
                "velocity": 80,
                "duration": 0.1727273,
                "tempo": 120.0
            },
            {
                "start_time": 56.9181818,
                "end_time": 57.0909091,
                "pitch": 91,
                "velocity": 80,
                "duration": 0.1727273,
                "tempo": 120.0
            },
            {
                "start_time": 57.0909091,
                "end_time": 57.1090909,
                "pitch": 79,
                "velocity": 80,
                "duration": 0.0181818,
                "tempo": 120.0
            },
            {
                "start_time": 57.1090909,
                "end_time": 57.6272727,
                "pitch": 81,
                "velocity": 80,
                "duration": 0.5181818,
                "tempo": 120.0
            },
            {
                "start_time": 57.6272727,
                "end_time": 58.1454545,
                "pitch": 84,
                "velocity": 80,
                "duration": 0.5181818,
                "tempo": 120.0
            },
            {
                "start_time": 58.1477273,
                "end_time": 59.4272727,
                "pitch": 83,
                "velocity": 80,
                "duration": 1.2795455,
                "tempo": 120.0
            },
            {
                "start_time": 59.4272727,
                "end_time": 59.5613636,
                "pitch": 87,
                "velocity": 80,
                "duration": 0.1340909,
                "tempo": 120.0
            },
            {
                "start_time": 59.5613636,
                "end_time": 59.6954545,
                "pitch": 83,
                "velocity": 80,
                "duration": 0.1340909,
                "tempo": 120.0
            },
            {
                "start_time": 59.6954545,
                "end_time": 59.8295455,
                "pitch": 88,
                "velocity": 80,
                "duration": 0.1340909,
                "tempo": 120.0
            },
            {
                "start_time": 59.8295455,
                "end_time": 59.9454545,
                "pitch": 83,
                "velocity": 80,
                "duration": 0.1159091,
                "tempo": 120.0
            },
            {
                "start_time": 59.9454545,
                "end_time": 60.0795455,
                "pitch": 90,
                "velocity": 80,
                "duration": 0.1340909,
                "tempo": 120.0
            },
            {
                "start_time": 60.0795455,
                "end_time": 60.2136364,
                "pitch": 83,
                "velocity": 80,
                "duration": 0.1340909,
                "tempo": 120.0
            },
            {
                "start_time": 57.0909091,
                "end_time": 60.2318182,
                "pitch": 91,
                "velocity": 80,
                "duration": 3.1409091,
                "tempo": 120.0
            },
            {
                "start_time": 60.2136364,
                "end_time": 60.2318182,
                "pitch": 91,
                "velocity": 80,
                "duration": 0.0181818,
                "tempo": 120.0
            },
            {
                "start_time": 2.8977273,
                "end_time": 60.2318182,
                "pitch": 103,
                "velocity": 4,
                "duration": 57.3340909,
                "tempo": 120.0
            },
            {
                "start_time": 60.2318182,
                "end_time": 60.4136364,
                "pitch": 91,
                "velocity": 80,
                "duration": 0.1818182,
                "tempo": 120.0
            },
            {
                "start_time": 60.2318182,
                "end_time": 60.4136364,
                "pitch": 103,
                "velocity": 80,
                "duration": 0.1818182,
                "tempo": 120.0
            },
            {
                "start_time": 60.4136364,
                "end_time": 60.6,
                "pitch": 91,
                "velocity": 80,
                "duration": 0.1863636,
                "tempo": 120.0
            },
            {
                "start_time": 60.4136364,
                "end_time": 60.6,
                "pitch": 103,
                "velocity": 80,
                "duration": 0.1863636,
                "tempo": 120.0
            },
            {
                "start_time": 60.6,
                "end_time": 60.7772727,
                "pitch": 91,
                "velocity": 80,
                "duration": 0.1772727,
                "tempo": 120.0
            },
            {
                "start_time": 60.6,
                "end_time": 60.7772727,
                "pitch": 103,
                "velocity": 80,
                "duration": 0.1772727,
                "tempo": 120.0
            },
            {
                "start_time": 60.7772727,
                "end_time": 60.9522727,
                "pitch": 91,
                "velocity": 80,
                "duration": 0.175,
                "tempo": 120.0
            },
            {
                "start_time": 60.7772727,
                "end_time": 60.9522727,
                "pitch": 103,
                "velocity": 80,
                "duration": 0.175,
                "tempo": 120.0
            },
            {
                "start_time": 60.9522727,
                "end_time": 61.125,
                "pitch": 91,
                "velocity": 80,
                "duration": 0.1727273,
                "tempo": 120.0
            },
            {
                "start_time": 60.9522727,
                "end_time": 61.125,
                "pitch": 103,
                "velocity": 80,
                "duration": 0.1727273,
                "tempo": 120.0
            },
            {
                "start_time": 61.125,
                "end_time": 61.2045455,
                "pitch": 91,
                "velocity": 80,
                "duration": 0.0795455,
                "tempo": 120.0
            },
            {
                "start_time": 61.2068182,
                "end_time": 61.4727273,
                "pitch": 93,
                "velocity": 80,
                "duration": 0.2659091,
                "tempo": 120.0
            },
            {
                "start_time": 61.4727273,
                "end_time": 61.4909091,
                "pitch": 91,
                "velocity": 80,
                "duration": 0.0181818,
                "tempo": 120.0
            },
            {
                "start_time": 61.125,
                "end_time": 61.4909091,
                "pitch": 103,
                "velocity": 80,
                "duration": 0.3659091,
                "tempo": 120.0
            },
            {
                "start_time": 61.4909091,
                "end_time": 61.675,
                "pitch": 91,
                "velocity": 80,
                "duration": 0.1840909,
                "tempo": 120.0
            },
            {
                "start_time": 61.4909091,
                "end_time": 61.675,
                "pitch": 103,
                "velocity": 80,
                "duration": 0.1840909,
                "tempo": 120.0
            },
            {
                "start_time": 61.675,
                "end_time": 61.725,
                "pitch": 91,
                "velocity": 80,
                "duration": 0.05,
                "tempo": 120.0
            },
            {
                "start_time": 61.725,
                "end_time": 61.9931818,
                "pitch": 90,
                "velocity": 80,
                "duration": 0.2681818,
                "tempo": 120.0
            },
            {
                "start_time": 61.9931818,
                "end_time": 62.2431818,
                "pitch": 88,
                "velocity": 80,
                "duration": 0.25,
                "tempo": 120.0
            },
            {
                "start_time": 62.2431818,
                "end_time": 63.0272727,
                "pitch": 87,
                "velocity": 80,
                "duration": 0.7840909,
                "tempo": 120.0
            },
            {
                "start_time": 63.0272727,
                "end_time": 63.1409091,
                "pitch": 87,
                "velocity": 80,
                "duration": 0.1136364,
                "tempo": 120.0
            },
            {
                "start_time": 63.1409091,
                "end_time": 63.2681818,
                "pitch": 88,
                "velocity": 80,
                "duration": 0.1272727,
                "tempo": 120.0
            },
            {
                "start_time": 63.2704545,
                "end_time": 64.3068182,
                "pitch": 90,
                "velocity": 80,
                "duration": 1.0363636,
                "tempo": 120.0
            },
            {
                "start_time": 64.3068182,
                "end_time": 65.075,
                "pitch": 88,
                "velocity": 80,
                "duration": 0.7681818,
                "tempo": 120.0
            },
            {
                "start_time": 65.075,
                "end_time": 65.2045455,
                "pitch": 88,
                "velocity": 80,
                "duration": 0.1295455,
                "tempo": 120.0
            },
            {
                "start_time": 65.2045455,
                "end_time": 65.3159091,
                "pitch": 90,
                "velocity": 80,
                "duration": 0.1113636,
                "tempo": 120.0
            },
            {
                "start_time": 65.3159091,
                "end_time": 65.3477273,
                "pitch": 91,
                "velocity": 80,
                "duration": 0.0318182,
                "tempo": 120.0
            },
            {
                "start_time": 61.675,
                "end_time": 65.3477273,
                "pitch": 103,
                "velocity": 80,
                "duration": 3.6727273,
                "tempo": 120.0
            },
            {
                "start_time": 65.3477273,
                "end_time": 65.525,
                "pitch": 91,
                "velocity": 80,
                "duration": 0.1772727,
                "tempo": 120.0
            },
            {
                "start_time": 65.3477273,
                "end_time": 65.525,
                "pitch": 103,
                "velocity": 80,
                "duration": 0.1772727,
                "tempo": 120.0
            },
            {
                "start_time": 65.525,
                "end_time": 65.7,
                "pitch": 91,
                "velocity": 80,
                "duration": 0.175,
                "tempo": 120.0
            },
            {
                "start_time": 65.525,
                "end_time": 65.7022727,
                "pitch": 103,
                "velocity": 80,
                "duration": 0.1772727,
                "tempo": 120.0
            },
            {
                "start_time": 65.7,
                "end_time": 65.7022727,
                "pitch": 103,
                "velocity": 80,
                "duration": 0.0022727,
                "tempo": 120.0
            },
            {
                "start_time": 65.7022727,
                "end_time": 65.8022727,
                "pitch": 91,
                "velocity": 80,
                "duration": 0.1,
                "tempo": 120.0
            },
            {
                "start_time": 65.8022727,
                "end_time": 66.25,
                "pitch": 96,
                "velocity": 80,
                "duration": 0.4477273,
                "tempo": 120.0
            },
            {
                "start_time": 66.25,
                "end_time": 68.325,
                "pitch": 99,
                "velocity": 80,
                "duration": 2.075,
                "tempo": 120.0
            },
            {
                "start_time": 68.325,
                "end_time": 68.8772727,
                "pitch": 97,
                "velocity": 80,
                "duration": 0.5522727,
                "tempo": 120.0
            },
            {
                "start_time": 68.8772727,
                "end_time": 69.1613636,
                "pitch": 95,
                "velocity": 80,
                "duration": 0.2840909,
                "tempo": 120.0
            }
        ],
        "Harpsichord": [
            {
                "start_time": 41.4681818,
                "end_time": 41.5977273,
                "pitch": 40,
                "velocity": 32,
                "duration": 0.1295455,
                "tempo": 120.0
            },
            {
                "start_time": 41.5977273,
                "end_time": 41.7340909,
                "pitch": 35,
                "velocity": 32,
                "duration": 0.1363636,
                "tempo": 120.0
            },
            {
                "start_time": 41.7340909,
                "end_time": 41.85,
                "pitch": 42,
                "velocity": 32,
                "duration": 0.1159091,
                "tempo": 120.0
            },
            {
                "start_time": 41.85,
                "end_time": 41.9840909,
                "pitch": 35,
                "velocity": 32,
                "duration": 0.1340909,
                "tempo": 120.0
            },
            {
                "start_time": 41.9840909,
                "end_time": 42.1159091,
                "pitch": 43,
                "velocity": 32,
                "duration": 0.1318182,
                "tempo": 120.0
            },
            {
                "start_time": 42.1159091,
                "end_time": 42.2318182,
                "pitch": 35,
                "velocity": 32,
                "duration": 0.1159091,
                "tempo": 120.0
            },
            {
                "start_time": 42.2318182,
                "end_time": 42.3613636,
                "pitch": 40,
                "velocity": 40,
                "duration": 0.1295455,
                "tempo": 120.0
            },
            {
                "start_time": 42.3613636,
                "end_time": 42.4954545,
                "pitch": 35,
                "velocity": 40,
                "duration": 0.1340909,
                "tempo": 120.0
            },
            {
                "start_time": 42.4954545,
                "end_time": 42.6272727,
                "pitch": 42,
                "velocity": 40,
                "duration": 0.1318182,
                "tempo": 120.0
            },
            {
                "start_time": 42.6272727,
                "end_time": 42.7454545,
                "pitch": 35,
                "velocity": 40,
                "duration": 0.1181818,
                "tempo": 120.0
            },
            {
                "start_time": 42.7454545,
                "end_time": 42.8795455,
                "pitch": 45,
                "velocity": 40,
                "duration": 0.1340909,
                "tempo": 120.0
            },
            {
                "start_time": 42.8795455,
                "end_time": 43.0136364,
                "pitch": 35,
                "velocity": 40,
                "duration": 0.1340909,
                "tempo": 120.0
            },
            {
                "start_time": 43.0136364,
                "end_time": 43.1272727,
                "pitch": 40,
                "velocity": 51,
                "duration": 0.1136364,
                "tempo": 120.0
            },
            {
                "start_time": 43.1272727,
                "end_time": 43.2613636,
                "pitch": 35,
                "velocity": 51,
                "duration": 0.1340909,
                "tempo": 120.0
            },
            {
                "start_time": 43.2613636,
                "end_time": 43.3909091,
                "pitch": 42,
                "velocity": 51,
                "duration": 0.1295455,
                "tempo": 120.0
            },
            {
                "start_time": 43.3909091,
                "end_time": 43.5227273,
                "pitch": 35,
                "velocity": 51,
                "duration": 0.1318182,
                "tempo": 120.0
            },
            {
                "start_time": 43.525,
                "end_time": 43.6409091,
                "pitch": 46,
                "velocity": 51,
                "duration": 0.1159091,
                "tempo": 120.0
            },
            {
                "start_time": 43.6409091,
                "end_time": 43.775,
                "pitch": 35,
                "velocity": 51,
                "duration": 0.1340909,
                "tempo": 120.0
            },
            {
                "start_time": 43.775,
                "end_time": 43.9068182,
                "pitch": 40,
                "velocity": 64,
                "duration": 0.1318182,
                "tempo": 120.0
            },
            {
                "start_time": 43.9090909,
                "end_time": 44.025,
                "pitch": 35,
                "velocity": 64,
                "duration": 0.1159091,
                "tempo": 120.0
            },
            {
                "start_time": 44.0272727,
                "end_time": 44.1522727,
                "pitch": 42,
                "velocity": 64,
                "duration": 0.125,
                "tempo": 120.0
            },
            {
                "start_time": 44.1545455,
                "end_time": 44.2818182,
                "pitch": 35,
                "velocity": 64,
                "duration": 0.1272727,
                "tempo": 120.0
            },
            {
                "start_time": 44.2840909,
                "end_time": 44.4090909,
                "pitch": 47,
                "velocity": 64,
                "duration": 0.125,
                "tempo": 120.0
            },
            {
                "start_time": 44.4113636,
                "end_time": 44.5227273,
                "pitch": 35,
                "velocity": 64,
                "duration": 0.1113636,
                "tempo": 120.0
            },
            {
                "start_time": 44.7931818,
                "end_time": 45.5727273,
                "pitch": 39,
                "velocity": 51,
                "duration": 0.7795455,
                "tempo": 120.0
            },
            {
                "start_time": 45.5727273,
                "end_time": 45.7022727,
                "pitch": 40,
                "velocity": 32,
                "duration": 0.1295455,
                "tempo": 120.0
            },
            {
                "start_time": 45.7022727,
                "end_time": 45.8340909,
                "pitch": 35,
                "velocity": 32,
                "duration": 0.1318182,
                "tempo": 120.0
            },
            {
                "start_time": 45.8340909,
                "end_time": 45.9477273,
                "pitch": 42,
                "velocity": 32,
                "duration": 0.1136364,
                "tempo": 120.0
            },
            {
                "start_time": 45.9477273,
                "end_time": 46.0818182,
                "pitch": 35,
                "velocity": 32,
                "duration": 0.1340909,
                "tempo": 120.0
            },
            {
                "start_time": 46.0818182,
                "end_time": 46.2113636,
                "pitch": 43,
                "velocity": 32,
                "duration": 0.1295455,
                "tempo": 120.0
            },
            {
                "start_time": 46.2113636,
                "end_time": 46.3272727,
                "pitch": 35,
                "velocity": 32,
                "duration": 0.1159091,
                "tempo": 120.0
            },
            {
                "start_time": 46.3295455,
                "end_time": 46.4590909,
                "pitch": 40,
                "velocity": 40,
                "duration": 0.1295455,
                "tempo": 120.0
            },
            {
                "start_time": 46.4590909,
                "end_time": 46.5909091,
                "pitch": 35,
                "velocity": 40,
                "duration": 0.1318182,
                "tempo": 120.0
            },
            {
                "start_time": 46.5909091,
                "end_time": 46.725,
                "pitch": 42,
                "velocity": 40,
                "duration": 0.1340909,
                "tempo": 120.0
            },
            {
                "start_time": 46.725,
                "end_time": 46.8431818,
                "pitch": 35,
                "velocity": 40,
                "duration": 0.1181818,
                "tempo": 120.0
            },
            {
                "start_time": 46.8431818,
                "end_time": 46.975,
                "pitch": 45,
                "velocity": 40,
                "duration": 0.1318182,
                "tempo": 120.0
            },
            {
                "start_time": 46.975,
                "end_time": 47.1113636,
                "pitch": 35,
                "velocity": 40,
                "duration": 0.1363636,
                "tempo": 120.0
            },
            {
                "start_time": 47.1113636,
                "end_time": 47.2431818,
                "pitch": 40,
                "velocity": 51,
                "duration": 0.1318182,
                "tempo": 120.0
            },
            {
                "start_time": 47.2431818,
                "end_time": 47.3613636,
                "pitch": 35,
                "velocity": 51,
                "duration": 0.1181818,
                "tempo": 120.0
            },
            {
                "start_time": 47.3613636,
                "end_time": 47.4954545,
                "pitch": 42,
                "velocity": 51,
                "duration": 0.1340909,
                "tempo": 120.0
            },
            {
                "start_time": 47.4954545,
                "end_time": 47.6295455,
                "pitch": 35,
                "velocity": 51,
                "duration": 0.1340909,
                "tempo": 120.0
            },
            {
                "start_time": 47.6295455,
                "end_time": 47.7431818,
                "pitch": 46,
                "velocity": 51,
                "duration": 0.1136364,
                "tempo": 120.0
            },
            {
                "start_time": 47.7431818,
                "end_time": 47.8772727,
                "pitch": 35,
                "velocity": 51,
                "duration": 0.1340909,
                "tempo": 120.0
            },
            {
                "start_time": 47.8772727,
                "end_time": 48.0068182,
                "pitch": 40,
                "velocity": 64,
                "duration": 0.1295455,
                "tempo": 120.0
            },
            {
                "start_time": 48.0068182,
                "end_time": 48.1409091,
                "pitch": 35,
                "velocity": 64,
                "duration": 0.1340909,
                "tempo": 120.0
            },
            {
                "start_time": 48.1409091,
                "end_time": 48.2568182,
                "pitch": 42,
                "velocity": 64,
                "duration": 0.1159091,
                "tempo": 120.0
            },
            {
                "start_time": 48.2568182,
                "end_time": 48.3909091,
                "pitch": 35,
                "velocity": 64,
                "duration": 0.1340909,
                "tempo": 120.0
            },
            {
                "start_time": 48.3909091,
                "end_time": 48.5227273,
                "pitch": 47,
                "velocity": 64,
                "duration": 0.1318182,
                "tempo": 120.0
            },
            {
                "start_time": 48.525,
                "end_time": 48.6409091,
                "pitch": 35,
                "velocity": 64,
                "duration": 0.1159091,
                "tempo": 120.0
            },
            {
                "start_time": 48.9,
                "end_time": 49.7022727,
                "pitch": 39,
                "velocity": 51,
                "duration": 0.8022727,
                "tempo": 120.0
            }
        ],
        "Synth Bass 1": [
            {
                "start_time": 0.4295455,
                "end_time": 0.6431818,
                "pitch": 40,
                "velocity": 51,
                "duration": 0.2136364,
                "tempo": 120.0
            },
            {
                "start_time": 0.6954545,
                "end_time": 0.8113636,
                "pitch": 40,
                "velocity": 51,
                "duration": 0.1159091,
                "tempo": 120.0
            },
            {
                "start_time": 0.8295455,
                "end_time": 0.9295455,
                "pitch": 40,
                "velocity": 51,
                "duration": 0.1,
                "tempo": 120.0
            },
            {
                "start_time": 0.9454545,
                "end_time": 1.0636364,
                "pitch": 40,
                "velocity": 51,
                "duration": 0.1181818,
                "tempo": 120.0
            },
            {
                "start_time": 1.0795455,
                "end_time": 1.1954545,
                "pitch": 40,
                "velocity": 51,
                "duration": 0.1159091,
                "tempo": 120.0
            },
            {
                "start_time": 1.2136364,
                "end_time": 1.3136364,
                "pitch": 40,
                "velocity": 20,
                "duration": 0.1,
                "tempo": 120.0
            },
            {
                "start_time": 1.3477273,
                "end_time": 1.4477273,
                "pitch": 40,
                "velocity": 51,
                "duration": 0.1,
                "tempo": 120.0
            },
            {
                "start_time": 1.4659091,
                "end_time": 1.5818182,
                "pitch": 40,
                "velocity": 20,
                "duration": 0.1159091,
                "tempo": 120.0
            },
            {
                "start_time": 1.5977273,
                "end_time": 1.7159091,
                "pitch": 40,
                "velocity": 10,
                "duration": 0.1181818,
                "tempo": 120.0
            },
            {
                "start_time": 2.2522727,
                "end_time": 2.3681818,
                "pitch": 50,
                "velocity": 51,
                "duration": 0.1159091,
                "tempo": 120.0
            },
            {
                "start_time": 2.3681818,
                "end_time": 2.5022727,
                "pitch": 52,
                "velocity": 51,
                "duration": 0.1340909,
                "tempo": 120.0
            },
            {
                "start_time": 2.5045455,
                "end_time": 2.7,
                "pitch": 40,
                "velocity": 51,
                "duration": 0.1954545,
                "tempo": 120.0
            },
            {
                "start_time": 2.75,
                "end_time": 2.8636364,
                "pitch": 40,
                "velocity": 51,
                "duration": 0.1136364,
                "tempo": 120.0
            },
            {
                "start_time": 2.8818182,
                "end_time": 2.9954545,
                "pitch": 40,
                "velocity": 51,
                "duration": 0.1136364,
                "tempo": 120.0
            },
            {
                "start_time": 3.0136364,
                "end_time": 3.1295455,
                "pitch": 40,
                "velocity": 51,
                "duration": 0.1159091,
                "tempo": 120.0
            },
            {
                "start_time": 3.1477273,
                "end_time": 3.2477273,
                "pitch": 40,
                "velocity": 51,
                "duration": 0.1,
                "tempo": 120.0
            },
            {
                "start_time": 3.2659091,
                "end_time": 3.3818182,
                "pitch": 40,
                "velocity": 20,
                "duration": 0.1159091,
                "tempo": 120.0
            },
            {
                "start_time": 3.4,
                "end_time": 3.5159091,
                "pitch": 40,
                "velocity": 51,
                "duration": 0.1159091,
                "tempo": 120.0
            },
            {
                "start_time": 3.5340909,
                "end_time": 3.6340909,
                "pitch": 40,
                "velocity": 20,
                "duration": 0.1,
                "tempo": 120.0
            },
            {
                "start_time": 3.6704545,
                "end_time": 3.7704545,
                "pitch": 40,
                "velocity": 10,
                "duration": 0.1,
                "tempo": 120.0
            },
            {
                "start_time": 4.0613636,
                "end_time": 4.1590909,
                "pitch": 52,
                "velocity": 51,
                "duration": 0.0977273,
                "tempo": 120.0
            },
            {
                "start_time": 4.1772727,
                "end_time": 4.2909091,
                "pitch": 52,
                "velocity": 51,
                "duration": 0.1136364,
                "tempo": 120.0
            },
            {
                "start_time": 4.3090909,
                "end_time": 4.4227273,
                "pitch": 47,
                "velocity": 51,
                "duration": 0.1136364,
                "tempo": 120.0
            },
            {
                "start_time": 4.4409091,
                "end_time": 4.5386364,
                "pitch": 40,
                "velocity": 51,
                "duration": 0.0977273,
                "tempo": 120.0
            },
            {
                "start_time": 4.5727273,
                "end_time": 4.7704545,
                "pitch": 40,
                "velocity": 51,
                "duration": 0.1977273,
                "tempo": 120.0
            },
            {
                "start_time": 4.8227273,
                "end_time": 4.9386364,
                "pitch": 40,
                "velocity": 51,
                "duration": 0.1159091,
                "tempo": 120.0
            },
            {
                "start_time": 4.9568182,
                "end_time": 5.0568182,
                "pitch": 40,
                "velocity": 51,
                "duration": 0.1,
                "tempo": 120.0
            },
            {
                "start_time": 5.0727273,
                "end_time": 5.1840909,
                "pitch": 40,
                "velocity": 51,
                "duration": 0.1113636,
                "tempo": 120.0
            },
            {
                "start_time": 5.2,
                "end_time": 5.3090909,
                "pitch": 40,
                "velocity": 51,
                "duration": 0.1090909,
                "tempo": 120.0
            },
            {
                "start_time": 5.325,
                "end_time": 5.4204545,
                "pitch": 40,
                "velocity": 20,
                "duration": 0.0954545,
                "tempo": 120.0
            },
            {
                "start_time": 5.4522727,
                "end_time": 5.5454545,
                "pitch": 40,
                "velocity": 51,
                "duration": 0.0931818,
                "tempo": 120.0
            },
            {
                "start_time": 5.5636364,
                "end_time": 5.6795455,
                "pitch": 40,
                "velocity": 20,
                "duration": 0.1159091,
                "tempo": 120.0
            },
            {
                "start_time": 5.6977273,
                "end_time": 5.8159091,
                "pitch": 40,
                "velocity": 10,
                "duration": 0.1181818,
                "tempo": 120.0
            },
            {
                "start_time": 6.3545455,
                "end_time": 6.4681818,
                "pitch": 50,
                "velocity": 51,
                "duration": 0.1136364,
                "tempo": 120.0
            },
            {
                "start_time": 6.4681818,
                "end_time": 6.6,
                "pitch": 52,
                "velocity": 51,
                "duration": 0.1318182,
                "tempo": 120.0
            },
            {
                "start_time": 6.6022727,
                "end_time": 6.8,
                "pitch": 40,
                "velocity": 51,
                "duration": 0.1977273,
                "tempo": 120.0
            },
            {
                "start_time": 6.8681818,
                "end_time": 6.9681818,
                "pitch": 40,
                "velocity": 51,
                "duration": 0.1,
                "tempo": 120.0
            },
            {
                "start_time": 6.9863636,
                "end_time": 7.1022727,
                "pitch": 40,
                "velocity": 51,
                "duration": 0.1159091,
                "tempo": 120.0
            },
            {
                "start_time": 7.1204545,
                "end_time": 7.2340909,
                "pitch": 40,
                "velocity": 51,
                "duration": 0.1136364,
                "tempo": 120.0
            },
            {
                "start_time": 7.25,
                "end_time": 7.35,
                "pitch": 40,
                "velocity": 51,
                "duration": 0.1,
                "tempo": 120.0
            },
            {
                "start_time": 7.3659091,
                "end_time": 7.4818182,
                "pitch": 40,
                "velocity": 20,
                "duration": 0.1159091,
                "tempo": 120.0
            },
            {
                "start_time": 7.4977273,
                "end_time": 7.6136364,
                "pitch": 40,
                "velocity": 51,
                "duration": 0.1159091,
                "tempo": 120.0
            },
            {
                "start_time": 7.6295455,
                "end_time": 7.7272727,
                "pitch": 40,
                "velocity": 20,
                "duration": 0.0977273,
                "tempo": 120.0
            },
            {
                "start_time": 7.7613636,
                "end_time": 7.8590909,
                "pitch": 40,
                "velocity": 10,
                "duration": 0.0977273,
                "tempo": 120.0
            },
            {
                "start_time": 8.1409091,
                "end_time": 8.2409091,
                "pitch": 52,
                "velocity": 51,
                "duration": 0.1,
                "tempo": 120.0
            },
            {
                "start_time": 8.2590909,
                "end_time": 8.3772727,
                "pitch": 52,
                "velocity": 51,
                "duration": 0.1181818,
                "tempo": 120.0
            },
            {
                "start_time": 8.3954545,
                "end_time": 8.5136364,
                "pitch": 47,
                "velocity": 51,
                "duration": 0.1181818,
                "tempo": 120.0
            },
            {
                "start_time": 8.5318182,
                "end_time": 8.65,
                "pitch": 40,
                "velocity": 51,
                "duration": 0.1181818,
                "tempo": 120.0
            },
            {
                "start_time": 8.6727273,
                "end_time": 8.8681818,
                "pitch": 40,
                "velocity": 51,
                "duration": 0.1954545,
                "tempo": 120.0
            },
            {
                "start_time": 8.9204545,
                "end_time": 9.0363636,
                "pitch": 40,
                "velocity": 51,
                "duration": 0.1159091,
                "tempo": 120.0
            },
            {
                "start_time": 9.0522727,
                "end_time": 9.1522727,
                "pitch": 40,
                "velocity": 51,
                "duration": 0.1,
                "tempo": 120.0
            },
            {
                "start_time": 9.1704545,
                "end_time": 9.2818182,
                "pitch": 40,
                "velocity": 51,
                "duration": 0.1113636,
                "tempo": 120.0
            },
            {
                "start_time": 9.3,
                "end_time": 9.4113636,
                "pitch": 40,
                "velocity": 51,
                "duration": 0.1113636,
                "tempo": 120.0
            },
            {
                "start_time": 9.4272727,
                "end_time": 9.5386364,
                "pitch": 40,
                "velocity": 20,
                "duration": 0.1113636,
                "tempo": 120.0
            },
            {
                "start_time": 9.5568182,
                "end_time": 9.6522727,
                "pitch": 40,
                "velocity": 51,
                "duration": 0.0954545,
                "tempo": 120.0
            },
            {
                "start_time": 9.6681818,
                "end_time": 9.7840909,
                "pitch": 40,
                "velocity": 20,
                "duration": 0.1159091,
                "tempo": 120.0
            },
            {
                "start_time": 9.8022727,
                "end_time": 9.9181818,
                "pitch": 40,
                "velocity": 10,
                "duration": 0.1159091,
                "tempo": 120.0
            },
            {
                "start_time": 10.45,
                "end_time": 10.5659091,
                "pitch": 50,
                "velocity": 51,
                "duration": 0.1159091,
                "tempo": 120.0
            },
            {
                "start_time": 10.5659091,
                "end_time": 10.7,
                "pitch": 52,
                "velocity": 51,
                "duration": 0.1340909,
                "tempo": 120.0
            },
            {
                "start_time": 10.7,
                "end_time": 10.8977273,
                "pitch": 40,
                "velocity": 51,
                "duration": 0.1977273,
                "tempo": 120.0
            },
            {
                "start_time": 10.9659091,
                "end_time": 11.0659091,
                "pitch": 40,
                "velocity": 51,
                "duration": 0.1,
                "tempo": 120.0
            },
            {
                "start_time": 11.0818182,
                "end_time": 11.2,
                "pitch": 40,
                "velocity": 51,
                "duration": 0.1181818,
                "tempo": 120.0
            },
            {
                "start_time": 11.2159091,
                "end_time": 11.3340909,
                "pitch": 40,
                "velocity": 51,
                "duration": 0.1181818,
                "tempo": 120.0
            },
            {
                "start_time": 11.35,
                "end_time": 11.45,
                "pitch": 40,
                "velocity": 51,
                "duration": 0.1,
                "tempo": 120.0
            },
            {
                "start_time": 11.4681818,
                "end_time": 11.5840909,
                "pitch": 40,
                "velocity": 20,
                "duration": 0.1159091,
                "tempo": 120.0
            },
            {
                "start_time": 11.6022727,
                "end_time": 11.7181818,
                "pitch": 40,
                "velocity": 51,
                "duration": 0.1159091,
                "tempo": 120.0
            },
            {
                "start_time": 11.7386364,
                "end_time": 11.8522727,
                "pitch": 40,
                "velocity": 20,
                "duration": 0.1136364,
                "tempo": 120.0
            },
            {
                "start_time": 11.8681818,
                "end_time": 11.9704545,
                "pitch": 40,
                "velocity": 10,
                "duration": 0.1022727,
                "tempo": 120.0
            },
            {
                "start_time": 12.2545455,
                "end_time": 12.3522727,
                "pitch": 52,
                "velocity": 51,
                "duration": 0.0977273,
                "tempo": 120.0
            },
            {
                "start_time": 12.3863636,
                "end_time": 12.4840909,
                "pitch": 52,
                "velocity": 51,
                "duration": 0.0977273,
                "tempo": 120.0
            },
            {
                "start_time": 12.5022727,
                "end_time": 12.6159091,
                "pitch": 47,
                "velocity": 51,
                "duration": 0.1136364,
                "tempo": 120.0
            },
            {
                "start_time": 12.6340909,
                "end_time": 12.7477273,
                "pitch": 40,
                "velocity": 51,
                "duration": 0.1136364,
                "tempo": 120.0
            },
            {
                "start_time": 12.7681818,
                "end_time": 12.9659091,
                "pitch": 40,
                "velocity": 51,
                "duration": 0.1977273,
                "tempo": 120.0
            },
            {
                "start_time": 13.0159091,
                "end_time": 13.1318182,
                "pitch": 40,
                "velocity": 51,
                "duration": 0.1159091,
                "tempo": 120.0
            },
            {
                "start_time": 13.15,
                "end_time": 13.25,
                "pitch": 40,
                "velocity": 51,
                "duration": 0.1,
                "tempo": 120.0
            },
            {
                "start_time": 13.2840909,
                "end_time": 13.3818182,
                "pitch": 40,
                "velocity": 51,
                "duration": 0.0977273,
                "tempo": 120.0
            },
            {
                "start_time": 13.4,
                "end_time": 13.5136364,
                "pitch": 40,
                "velocity": 51,
                "duration": 0.1136364,
                "tempo": 120.0
            },
            {
                "start_time": 13.5318182,
                "end_time": 13.6454545,
                "pitch": 40,
                "velocity": 20,
                "duration": 0.1136364,
                "tempo": 120.0
            },
            {
                "start_time": 13.6613636,
                "end_time": 13.7613636,
                "pitch": 40,
                "velocity": 51,
                "duration": 0.1,
                "tempo": 120.0
            },
            {
                "start_time": 13.7772727,
                "end_time": 13.8931818,
                "pitch": 40,
                "velocity": 20,
                "duration": 0.1159091,
                "tempo": 120.0
            },
            {
                "start_time": 13.9090909,
                "end_time": 14.025,
                "pitch": 40,
                "velocity": 10,
                "duration": 0.1159091,
                "tempo": 120.0
            },
            {
                "start_time": 14.5522727,
                "end_time": 14.6659091,
                "pitch": 50,
                "velocity": 51,
                "duration": 0.1136364,
                "tempo": 120.0
            },
            {
                "start_time": 14.6659091,
                "end_time": 14.8,
                "pitch": 52,
                "velocity": 51,
                "duration": 0.1340909,
                "tempo": 120.0
            },
            {
                "start_time": 14.8,
                "end_time": 14.9977273,
                "pitch": 40,
                "velocity": 51,
                "duration": 0.1977273,
                "tempo": 120.0
            },
            {
                "start_time": 15.0659091,
                "end_time": 15.1659091,
                "pitch": 40,
                "velocity": 51,
                "duration": 0.1,
                "tempo": 120.0
            },
            {
                "start_time": 15.1818182,
                "end_time": 15.3,
                "pitch": 40,
                "velocity": 51,
                "duration": 0.1181818,
                "tempo": 120.0
            },
            {
                "start_time": 15.3181818,
                "end_time": 15.4340909,
                "pitch": 40,
                "velocity": 51,
                "duration": 0.1159091,
                "tempo": 120.0
            },
            {
                "start_time": 15.4522727,
                "end_time": 15.55,
                "pitch": 40,
                "velocity": 51,
                "duration": 0.0977273,
                "tempo": 120.0
            },
            {
                "start_time": 15.5840909,
                "end_time": 15.6840909,
                "pitch": 40,
                "velocity": 20,
                "duration": 0.1,
                "tempo": 120.0
            },
            {
                "start_time": 15.7022727,
                "end_time": 15.8181818,
                "pitch": 40,
                "velocity": 51,
                "duration": 0.1159091,
                "tempo": 120.0
            },
            {
                "start_time": 15.8363636,
                "end_time": 15.9522727,
                "pitch": 40,
                "velocity": 20,
                "duration": 0.1159091,
                "tempo": 120.0
            },
            {
                "start_time": 15.9704545,
                "end_time": 16.0704545,
                "pitch": 40,
                "velocity": 10,
                "duration": 0.1,
                "tempo": 120.0
            },
            {
                "start_time": 16.3545455,
                "end_time": 16.4545455,
                "pitch": 52,
                "velocity": 51,
                "duration": 0.1,
                "tempo": 120.0
            },
            {
                "start_time": 16.4863636,
                "end_time": 16.5840909,
                "pitch": 52,
                "velocity": 51,
                "duration": 0.0977273,
                "tempo": 120.0
            },
            {
                "start_time": 16.6022727,
                "end_time": 16.7159091,
                "pitch": 47,
                "velocity": 51,
                "duration": 0.1136364,
                "tempo": 120.0
            },
            {
                "start_time": 16.7340909,
                "end_time": 16.8477273,
                "pitch": 40,
                "velocity": 51,
                "duration": 0.1136364,
                "tempo": 120.0
            },
            {
                "start_time": 16.8681818,
                "end_time": 17.0659091,
                "pitch": 40,
                "velocity": 51,
                "duration": 0.1977273,
                "tempo": 120.0
            },
            {
                "start_time": 17.1181818,
                "end_time": 17.2340909,
                "pitch": 40,
                "velocity": 51,
                "duration": 0.1159091,
                "tempo": 120.0
            },
            {
                "start_time": 17.25,
                "end_time": 17.3681818,
                "pitch": 40,
                "velocity": 51,
                "duration": 0.1181818,
                "tempo": 120.0
            },
            {
                "start_time": 17.3840909,
                "end_time": 17.4840909,
                "pitch": 40,
                "velocity": 51,
                "duration": 0.1,
                "tempo": 120.0
            },
            {
                "start_time": 17.5022727,
                "end_time": 17.6181818,
                "pitch": 40,
                "velocity": 51,
                "duration": 0.1159091,
                "tempo": 120.0
            },
            {
                "start_time": 17.6363636,
                "end_time": 17.7522727,
                "pitch": 40,
                "velocity": 20,
                "duration": 0.1159091,
                "tempo": 120.0
            },
            {
                "start_time": 17.7704545,
                "end_time": 17.8704545,
                "pitch": 40,
                "velocity": 51,
                "duration": 0.1,
                "tempo": 120.0
            },
            {
                "start_time": 17.8886364,
                "end_time": 18.0,
                "pitch": 40,
                "velocity": 20,
                "duration": 0.1113636,
                "tempo": 120.0
            },
            {
                "start_time": 18.0159091,
                "end_time": 18.1272727,
                "pitch": 40,
                "velocity": 10,
                "duration": 0.1113636,
                "tempo": 120.0
            },
            {
                "start_time": 18.6477273,
                "end_time": 18.7795455,
                "pitch": 50,
                "velocity": 51,
                "duration": 0.1318182,
                "tempo": 120.0
            },
            {
                "start_time": 18.7795455,
                "end_time": 18.8977273,
                "pitch": 52,
                "velocity": 51,
                "duration": 0.1181818,
                "tempo": 120.0
            },
            {
                "start_time": 18.8977273,
                "end_time": 19.0954545,
                "pitch": 40,
                "velocity": 51,
                "duration": 0.1977273,
                "tempo": 120.0
            },
            {
                "start_time": 19.1636364,
                "end_time": 19.2636364,
                "pitch": 40,
                "velocity": 51,
                "duration": 0.1,
                "tempo": 120.0
            },
            {
                "start_time": 19.2795455,
                "end_time": 19.3977273,
                "pitch": 40,
                "velocity": 51,
                "duration": 0.1181818,
                "tempo": 120.0
            },
            {
                "start_time": 19.4136364,
                "end_time": 19.5318182,
                "pitch": 40,
                "velocity": 51,
                "duration": 0.1181818,
                "tempo": 120.0
            },
            {
                "start_time": 19.5477273,
                "end_time": 19.6477273,
                "pitch": 40,
                "velocity": 51,
                "duration": 0.1,
                "tempo": 120.0
            },
            {
                "start_time": 19.6818182,
                "end_time": 19.7818182,
                "pitch": 40,
                "velocity": 20,
                "duration": 0.1,
                "tempo": 120.0
            },
            {
                "start_time": 19.8,
                "end_time": 19.9159091,
                "pitch": 40,
                "velocity": 51,
                "duration": 0.1159091,
                "tempo": 120.0
            },
            {
                "start_time": 19.9363636,
                "end_time": 20.05,
                "pitch": 40,
                "velocity": 20,
                "duration": 0.1136364,
                "tempo": 120.0
            },
            {
                "start_time": 20.0659091,
                "end_time": 20.1681818,
                "pitch": 40,
                "velocity": 10,
                "duration": 0.1022727,
                "tempo": 120.0
            },
            {
                "start_time": 20.4522727,
                "end_time": 20.5681818,
                "pitch": 52,
                "velocity": 51,
                "duration": 0.1159091,
                "tempo": 120.0
            },
            {
                "start_time": 20.5863636,
                "end_time": 20.6863636,
                "pitch": 52,
                "velocity": 51,
                "duration": 0.1,
                "tempo": 120.0
            },
            {
                "start_time": 20.7045455,
                "end_time": 20.8204545,
                "pitch": 47,
                "velocity": 51,
                "duration": 0.1159091,
                "tempo": 120.0
            },
            {
                "start_time": 20.8386364,
                "end_time": 20.9545455,
                "pitch": 40,
                "velocity": 51,
                "duration": 0.1159091,
                "tempo": 120.0
            },
            {
                "start_time": 20.975,
                "end_time": 21.1681818,
                "pitch": 40,
                "velocity": 51,
                "duration": 0.1931818,
                "tempo": 120.0
            },
            {
                "start_time": 21.2181818,
                "end_time": 21.3340909,
                "pitch": 40,
                "velocity": 51,
                "duration": 0.1159091,
                "tempo": 120.0
            },
            {
                "start_time": 21.35,
                "end_time": 21.4636364,
                "pitch": 40,
                "velocity": 51,
                "duration": 0.1136364,
                "tempo": 120.0
            },
            {
                "start_time": 21.4818182,
                "end_time": 21.5818182,
                "pitch": 40,
                "velocity": 51,
                "duration": 0.1,
                "tempo": 120.0
            },
            {
                "start_time": 21.6,
                "end_time": 21.7159091,
                "pitch": 40,
                "velocity": 51,
                "duration": 0.1159091,
                "tempo": 120.0
            },
            {
                "start_time": 21.7318182,
                "end_time": 21.85,
                "pitch": 40,
                "velocity": 20,
                "duration": 0.1181818,
                "tempo": 120.0
            },
            {
                "start_time": 21.8659091,
                "end_time": 21.9659091,
                "pitch": 40,
                "velocity": 51,
                "duration": 0.1,
                "tempo": 120.0
            },
            {
                "start_time": 22.0045455,
                "end_time": 22.1,
                "pitch": 40,
                "velocity": 20,
                "duration": 0.0954545,
                "tempo": 120.0
            },
            {
                "start_time": 22.1181818,
                "end_time": 22.2340909,
                "pitch": 40,
                "velocity": 10,
                "duration": 0.1159091,
                "tempo": 120.0
            },
            {
                "start_time": 22.7613636,
                "end_time": 22.8886364,
                "pitch": 50,
                "velocity": 51,
                "duration": 0.1272727,
                "tempo": 120.0
            },
            {
                "start_time": 22.8886364,
                "end_time": 23.0,
                "pitch": 52,
                "velocity": 51,
                "duration": 0.1113636,
                "tempo": 120.0
            },
            {
                "start_time": 23.0,
                "end_time": 23.1977273,
                "pitch": 40,
                "velocity": 51,
                "duration": 0.1977273,
                "tempo": 120.0
            },
            {
                "start_time": 23.2636364,
                "end_time": 23.3613636,
                "pitch": 40,
                "velocity": 51,
                "duration": 0.0977273,
                "tempo": 120.0
            },
            {
                "start_time": 23.3795455,
                "end_time": 23.4931818,
                "pitch": 40,
                "velocity": 51,
                "duration": 0.1136364,
                "tempo": 120.0
            },
            {
                "start_time": 23.5113636,
                "end_time": 23.6272727,
                "pitch": 40,
                "velocity": 51,
                "duration": 0.1159091,
                "tempo": 120.0
            },
            {
                "start_time": 23.6454545,
                "end_time": 23.7613636,
                "pitch": 40,
                "velocity": 51,
                "duration": 0.1159091,
                "tempo": 120.0
            },
            {
                "start_time": 23.7795455,
                "end_time": 23.8795455,
                "pitch": 40,
                "velocity": 20,
                "duration": 0.1,
                "tempo": 120.0
            },
            {
                "start_time": 23.8954545,
                "end_time": 24.0136364,
                "pitch": 40,
                "velocity": 51,
                "duration": 0.1181818,
                "tempo": 120.0
            },
            {
                "start_time": 24.0318182,
                "end_time": 24.1477273,
                "pitch": 40,
                "velocity": 20,
                "duration": 0.1159091,
                "tempo": 120.0
            },
            {
                "start_time": 24.1636364,
                "end_time": 24.2636364,
                "pitch": 40,
                "velocity": 10,
                "duration": 0.1,
                "tempo": 120.0
            },
            {
                "start_time": 24.55,
                "end_time": 24.6659091,
                "pitch": 52,
                "velocity": 51,
                "duration": 0.1159091,
                "tempo": 120.0
            },
            {
                "start_time": 24.6840909,
                "end_time": 24.7840909,
                "pitch": 52,
                "velocity": 51,
                "duration": 0.1,
                "tempo": 120.0
            },
            {
                "start_time": 24.8,
                "end_time": 24.9181818,
                "pitch": 47,
                "velocity": 51,
                "duration": 0.1181818,
                "tempo": 120.0
            },
            {
                "start_time": 24.9340909,
                "end_time": 25.05,
                "pitch": 40,
                "velocity": 51,
                "duration": 0.1159091,
                "tempo": 120.0
            },
            {
                "start_time": 25.0704545,
                "end_time": 25.2681818,
                "pitch": 40,
                "velocity": 51,
                "duration": 0.1977273,
                "tempo": 120.0
            },
            {
                "start_time": 25.3204545,
                "end_time": 25.4363636,
                "pitch": 40,
                "velocity": 51,
                "duration": 0.1159091,
                "tempo": 120.0
            },
            {
                "start_time": 25.4522727,
                "end_time": 25.5704545,
                "pitch": 40,
                "velocity": 51,
                "duration": 0.1181818,
                "tempo": 120.0
            },
            {
                "start_time": 25.5886364,
                "end_time": 25.6863636,
                "pitch": 40,
                "velocity": 51,
                "duration": 0.0977273,
                "tempo": 120.0
            },
            {
                "start_time": 25.7022727,
                "end_time": 25.8181818,
                "pitch": 40,
                "velocity": 51,
                "duration": 0.1159091,
                "tempo": 120.0
            },
            {
                "start_time": 25.8340909,
                "end_time": 25.95,
                "pitch": 40,
                "velocity": 20,
                "duration": 0.1159091,
                "tempo": 120.0
            },
            {
                "start_time": 25.9659091,
                "end_time": 26.0795455,
                "pitch": 40,
                "velocity": 51,
                "duration": 0.1136364,
                "tempo": 120.0
            },
            {
                "start_time": 26.0977273,
                "end_time": 26.1977273,
                "pitch": 40,
                "velocity": 20,
                "duration": 0.1,
                "tempo": 120.0
            },
            {
                "start_time": 26.2136364,
                "end_time": 26.3318182,
                "pitch": 40,
                "velocity": 10,
                "duration": 0.1181818,
                "tempo": 120.0
            },
            {
                "start_time": 26.8568182,
                "end_time": 26.9840909,
                "pitch": 50,
                "velocity": 51,
                "duration": 0.1272727,
                "tempo": 120.0
            },
            {
                "start_time": 26.9840909,
                "end_time": 27.1,
                "pitch": 52,
                "velocity": 51,
                "duration": 0.1159091,
                "tempo": 120.0
            },
            {
                "start_time": 27.1,
                "end_time": 27.3136364,
                "pitch": 40,
                "velocity": 51,
                "duration": 0.2136364,
                "tempo": 120.0
            },
            {
                "start_time": 27.3659091,
                "end_time": 27.4659091,
                "pitch": 40,
                "velocity": 51,
                "duration": 0.1,
                "tempo": 120.0
            },
            {
                "start_time": 27.5,
                "end_time": 27.6,
                "pitch": 40,
                "velocity": 51,
                "duration": 0.1,
                "tempo": 120.0
            },
            {
                "start_time": 27.6159091,
                "end_time": 27.7318182,
                "pitch": 40,
                "velocity": 51,
                "duration": 0.1159091,
                "tempo": 120.0
            },
            {
                "start_time": 27.7477273,
                "end_time": 27.8636364,
                "pitch": 40,
                "velocity": 51,
                "duration": 0.1159091,
                "tempo": 120.0
            },
            {
                "start_time": 27.8795455,
                "end_time": 27.9772727,
                "pitch": 40,
                "velocity": 20,
                "duration": 0.0977273,
                "tempo": 120.0
            },
            {
                "start_time": 27.9954545,
                "end_time": 28.1090909,
                "pitch": 40,
                "velocity": 51,
                "duration": 0.1136364,
                "tempo": 120.0
            },
            {
                "start_time": 28.1295455,
                "end_time": 28.2431818,
                "pitch": 40,
                "velocity": 20,
                "duration": 0.1136364,
                "tempo": 120.0
            },
            {
                "start_time": 28.2613636,
                "end_time": 28.3613636,
                "pitch": 40,
                "velocity": 10,
                "duration": 0.1,
                "tempo": 120.0
            },
            {
                "start_time": 28.6454545,
                "end_time": 28.7613636,
                "pitch": 52,
                "velocity": 51,
                "duration": 0.1159091,
                "tempo": 120.0
            },
            {
                "start_time": 28.7795455,
                "end_time": 28.8795455,
                "pitch": 52,
                "velocity": 51,
                "duration": 0.1,
                "tempo": 120.0
            },
            {
                "start_time": 28.8977273,
                "end_time": 29.0136364,
                "pitch": 47,
                "velocity": 51,
                "duration": 0.1159091,
                "tempo": 120.0
            },
            {
                "start_time": 29.0318182,
                "end_time": 29.1477273,
                "pitch": 40,
                "velocity": 51,
                "duration": 0.1159091,
                "tempo": 120.0
            },
            {
                "start_time": 29.1681818,
                "end_time": 29.3659091,
                "pitch": 40,
                "velocity": 51,
                "duration": 0.1977273,
                "tempo": 120.0
            },
            {
                "start_time": 29.4159091,
                "end_time": 29.5318182,
                "pitch": 40,
                "velocity": 51,
                "duration": 0.1159091,
                "tempo": 120.0
            },
            {
                "start_time": 29.55,
                "end_time": 29.6659091,
                "pitch": 40,
                "velocity": 51,
                "duration": 0.1159091,
                "tempo": 120.0
            },
            {
                "start_time": 29.6840909,
                "end_time": 29.7818182,
                "pitch": 40,
                "velocity": 51,
                "duration": 0.0977273,
                "tempo": 120.0
            },
            {
                "start_time": 29.8159091,
                "end_time": 29.9136364,
                "pitch": 40,
                "velocity": 51,
                "duration": 0.0977273,
                "tempo": 120.0
            },
            {
                "start_time": 29.9318182,
                "end_time": 30.0454545,
                "pitch": 40,
                "velocity": 20,
                "duration": 0.1136364,
                "tempo": 120.0
            },
            {
                "start_time": 30.0636364,
                "end_time": 30.1772727,
                "pitch": 40,
                "velocity": 51,
                "duration": 0.1136364,
                "tempo": 120.0
            },
            {
                "start_time": 30.1954545,
                "end_time": 30.2954545,
                "pitch": 40,
                "velocity": 20,
                "duration": 0.1,
                "tempo": 120.0
            },
            {
                "start_time": 30.3136364,
                "end_time": 30.4318182,
                "pitch": 40,
                "velocity": 10,
                "duration": 0.1181818,
                "tempo": 120.0
            },
            {
                "start_time": 30.9704545,
                "end_time": 31.1,
                "pitch": 50,
                "velocity": 51,
                "duration": 0.1295455,
                "tempo": 120.0
            },
            {
                "start_time": 31.1,
                "end_time": 31.2181818,
                "pitch": 52,
                "velocity": 51,
                "duration": 0.1181818,
                "tempo": 120.0
            },
            {
                "start_time": 31.2181818,
                "end_time": 31.425,
                "pitch": 40,
                "velocity": 51,
                "duration": 0.2068182,
                "tempo": 120.0
            },
            {
                "start_time": 31.4727273,
                "end_time": 31.5681818,
                "pitch": 40,
                "velocity": 51,
                "duration": 0.0954545,
                "tempo": 120.0
            },
            {
                "start_time": 31.6,
                "end_time": 31.6977273,
                "pitch": 40,
                "velocity": 51,
                "duration": 0.0977273,
                "tempo": 120.0
            },
            {
                "start_time": 31.7136364,
                "end_time": 31.8295455,
                "pitch": 40,
                "velocity": 51,
                "duration": 0.1159091,
                "tempo": 120.0
            },
            {
                "start_time": 31.8477273,
                "end_time": 31.9636364,
                "pitch": 40,
                "velocity": 51,
                "duration": 0.1159091,
                "tempo": 120.0
            },
            {
                "start_time": 31.9818182,
                "end_time": 32.0818182,
                "pitch": 40,
                "velocity": 20,
                "duration": 0.1,
                "tempo": 120.0
            },
            {
                "start_time": 32.0977273,
                "end_time": 32.2159091,
                "pitch": 40,
                "velocity": 51,
                "duration": 0.1181818,
                "tempo": 120.0
            },
            {
                "start_time": 32.2340909,
                "end_time": 32.35,
                "pitch": 40,
                "velocity": 20,
                "duration": 0.1159091,
                "tempo": 120.0
            },
            {
                "start_time": 32.3659091,
                "end_time": 32.4840909,
                "pitch": 40,
                "velocity": 10,
                "duration": 0.1181818,
                "tempo": 120.0
            },
            {
                "start_time": 32.7522727,
                "end_time": 32.8659091,
                "pitch": 52,
                "velocity": 51,
                "duration": 0.1136364,
                "tempo": 120.0
            },
            {
                "start_time": 32.8818182,
                "end_time": 32.9818182,
                "pitch": 52,
                "velocity": 51,
                "duration": 0.1,
                "tempo": 120.0
            },
            {
                "start_time": 33.0159091,
                "end_time": 33.1136364,
                "pitch": 47,
                "velocity": 51,
                "duration": 0.0977273,
                "tempo": 120.0
            },
            {
                "start_time": 33.1295455,
                "end_time": 33.2454545,
                "pitch": 40,
                "velocity": 51,
                "duration": 0.1159091,
                "tempo": 120.0
            },
            {
                "start_time": 33.2636364,
                "end_time": 33.4613636,
                "pitch": 40,
                "velocity": 51,
                "duration": 0.1977273,
                "tempo": 120.0
            },
            {
                "start_time": 33.5136364,
                "end_time": 33.6295455,
                "pitch": 40,
                "velocity": 51,
                "duration": 0.1159091,
                "tempo": 120.0
            },
            {
                "start_time": 33.6477273,
                "end_time": 33.7636364,
                "pitch": 40,
                "velocity": 51,
                "duration": 0.1159091,
                "tempo": 120.0
            },
            {
                "start_time": 33.7818182,
                "end_time": 33.8818182,
                "pitch": 40,
                "velocity": 51,
                "duration": 0.1,
                "tempo": 120.0
            },
            {
                "start_time": 33.9159091,
                "end_time": 34.0136364,
                "pitch": 40,
                "velocity": 51,
                "duration": 0.0977273,
                "tempo": 120.0
            },
            {
                "start_time": 34.0318182,
                "end_time": 34.1477273,
                "pitch": 40,
                "velocity": 20,
                "duration": 0.1159091,
                "tempo": 120.0
            },
            {
                "start_time": 34.1659091,
                "end_time": 34.2818182,
                "pitch": 40,
                "velocity": 51,
                "duration": 0.1159091,
                "tempo": 120.0
            },
            {
                "start_time": 34.3,
                "end_time": 34.4,
                "pitch": 40,
                "velocity": 20,
                "duration": 0.1,
                "tempo": 120.0
            },
            {
                "start_time": 34.4159091,
                "end_time": 34.5340909,
                "pitch": 40,
                "velocity": 10,
                "duration": 0.1181818,
                "tempo": 120.0
            },
            {
                "start_time": 35.0659091,
                "end_time": 35.1977273,
                "pitch": 50,
                "velocity": 51,
                "duration": 0.1318182,
                "tempo": 120.0
            },
            {
                "start_time": 35.1977273,
                "end_time": 35.3159091,
                "pitch": 52,
                "velocity": 51,
                "duration": 0.1181818,
                "tempo": 120.0
            },
            {
                "start_time": 35.3159091,
                "end_time": 35.5204545,
                "pitch": 40,
                "velocity": 51,
                "duration": 0.2045455,
                "tempo": 120.0
            },
            {
                "start_time": 35.5704545,
                "end_time": 35.6818182,
                "pitch": 40,
                "velocity": 51,
                "duration": 0.1113636,
                "tempo": 120.0
            },
            {
                "start_time": 35.6977273,
                "end_time": 35.7931818,
                "pitch": 40,
                "velocity": 51,
                "duration": 0.0954545,
                "tempo": 120.0
            },
            {
                "start_time": 35.8113636,
                "end_time": 35.9272727,
                "pitch": 40,
                "velocity": 51,
                "duration": 0.1159091,
                "tempo": 120.0
            },
            {
                "start_time": 35.9454545,
                "end_time": 36.0613636,
                "pitch": 40,
                "velocity": 51,
                "duration": 0.1159091,
                "tempo": 120.0
            },
            {
                "start_time": 36.0772727,
                "end_time": 36.1772727,
                "pitch": 40,
                "velocity": 20,
                "duration": 0.1,
                "tempo": 120.0
            },
            {
                "start_time": 36.2113636,
                "end_time": 36.3113636,
                "pitch": 40,
                "velocity": 51,
                "duration": 0.1,
                "tempo": 120.0
            },
            {
                "start_time": 36.3318182,
                "end_time": 36.4454545,
                "pitch": 40,
                "velocity": 20,
                "duration": 0.1136364,
                "tempo": 120.0
            },
            {
                "start_time": 36.4636364,
                "end_time": 36.5795455,
                "pitch": 40,
                "velocity": 10,
                "duration": 0.1159091,
                "tempo": 120.0
            },
            {
                "start_time": 36.8477273,
                "end_time": 36.9636364,
                "pitch": 52,
                "velocity": 51,
                "duration": 0.1159091,
                "tempo": 120.0
            },
            {
                "start_time": 36.9795455,
                "end_time": 37.0772727,
                "pitch": 52,
                "velocity": 51,
                "duration": 0.0977273,
                "tempo": 120.0
            },
            {
                "start_time": 37.1113636,
                "end_time": 37.2090909,
                "pitch": 47,
                "velocity": 51,
                "duration": 0.0977273,
                "tempo": 120.0
            },
            {
                "start_time": 37.2272727,
                "end_time": 37.3409091,
                "pitch": 40,
                "velocity": 51,
                "duration": 0.1136364,
                "tempo": 120.0
            },
            {
                "start_time": 37.3613636,
                "end_time": 37.5590909,
                "pitch": 40,
                "velocity": 51,
                "duration": 0.1977273,
                "tempo": 120.0
            },
            {
                "start_time": 37.6113636,
                "end_time": 37.7272727,
                "pitch": 40,
                "velocity": 51,
                "duration": 0.1159091,
                "tempo": 120.0
            },
            {
                "start_time": 37.7431818,
                "end_time": 37.8613636,
                "pitch": 40,
                "velocity": 51,
                "duration": 0.1181818,
                "tempo": 120.0
            },
            {
                "start_time": 37.8772727,
                "end_time": 37.9954545,
                "pitch": 40,
                "velocity": 51,
                "duration": 0.1181818,
                "tempo": 120.0
            },
            {
                "start_time": 38.0113636,
                "end_time": 38.1113636,
                "pitch": 40,
                "velocity": 51,
                "duration": 0.1,
                "tempo": 120.0
            },
            {
                "start_time": 38.1295455,
                "end_time": 38.2454545,
                "pitch": 40,
                "velocity": 20,
                "duration": 0.1159091,
                "tempo": 120.0
            },
            {
                "start_time": 38.2636364,
                "end_time": 38.3795455,
                "pitch": 40,
                "velocity": 51,
                "duration": 0.1159091,
                "tempo": 120.0
            },
            {
                "start_time": 38.4,
                "end_time": 38.4977273,
                "pitch": 40,
                "velocity": 20,
                "duration": 0.0977273,
                "tempo": 120.0
            },
            {
                "start_time": 38.5295455,
                "end_time": 38.6318182,
                "pitch": 40,
                "velocity": 10,
                "duration": 0.1022727,
                "tempo": 120.0
            },
            {
                "start_time": 39.1636364,
                "end_time": 39.2931818,
                "pitch": 50,
                "velocity": 51,
                "duration": 0.1295455,
                "tempo": 120.0
            },
            {
                "start_time": 39.2931818,
                "end_time": 39.425,
                "pitch": 52,
                "velocity": 51,
                "duration": 0.1318182,
                "tempo": 120.0
            },
            {
                "start_time": 39.4272727,
                "end_time": 39.6272727,
                "pitch": 40,
                "velocity": 51,
                "duration": 0.2,
                "tempo": 120.0
            },
            {
                "start_time": 39.6772727,
                "end_time": 39.7931818,
                "pitch": 40,
                "velocity": 51,
                "duration": 0.1159091,
                "tempo": 120.0
            },
            {
                "start_time": 39.8113636,
                "end_time": 39.9113636,
                "pitch": 40,
                "velocity": 51,
                "duration": 0.1,
                "tempo": 120.0
            },
            {
                "start_time": 39.9295455,
                "end_time": 40.0409091,
                "pitch": 40,
                "velocity": 51,
                "duration": 0.1113636,
                "tempo": 120.0
            },
            {
                "start_time": 40.0568182,
                "end_time": 40.1681818,
                "pitch": 40,
                "velocity": 51,
                "duration": 0.1113636,
                "tempo": 120.0
            },
            {
                "start_time": 40.1863636,
                "end_time": 40.2818182,
                "pitch": 40,
                "velocity": 20,
                "duration": 0.0954545,
                "tempo": 120.0
            },
            {
                "start_time": 40.3136364,
                "end_time": 40.4090909,
                "pitch": 40,
                "velocity": 51,
                "duration": 0.0954545,
                "tempo": 120.0
            },
            {
                "start_time": 40.4272727,
                "end_time": 40.5431818,
                "pitch": 40,
                "velocity": 20,
                "duration": 0.1159091,
                "tempo": 120.0
            },
            {
                "start_time": 40.5613636,
                "end_time": 40.6795455,
                "pitch": 40,
                "velocity": 10,
                "duration": 0.1181818,
                "tempo": 120.0
            },
            {
                "start_time": 40.9522727,
                "end_time": 41.0681818,
                "pitch": 52,
                "velocity": 51,
                "duration": 0.1159091,
                "tempo": 120.0
            },
            {
                "start_time": 41.0863636,
                "end_time": 41.2,
                "pitch": 52,
                "velocity": 51,
                "duration": 0.1136364,
                "tempo": 120.0
            },
            {
                "start_time": 41.2181818,
                "end_time": 41.3159091,
                "pitch": 47,
                "velocity": 51,
                "duration": 0.0977273,
                "tempo": 120.0
            },
            {
                "start_time": 41.3318182,
                "end_time": 41.4477273,
                "pitch": 40,
                "velocity": 51,
                "duration": 0.1159091,
                "tempo": 120.0
            },
            {
                "start_time": 41.4681818,
                "end_time": 44.5227273,
                "pitch": 40,
                "velocity": 51,
                "duration": 3.0545455,
                "tempo": 120.0
            },
            {
                "start_time": 44.7931818,
                "end_time": 45.5727273,
                "pitch": 39,
                "velocity": 51,
                "duration": 0.7795455,
                "tempo": 120.0
            },
            {
                "start_time": 45.5727273,
                "end_time": 48.6409091,
                "pitch": 40,
                "velocity": 51,
                "duration": 3.0681818,
                "tempo": 120.0
            },
            {
                "start_time": 48.9,
                "end_time": 49.7045455,
                "pitch": 39,
                "velocity": 51,
                "duration": 0.8045455,
                "tempo": 120.0
            },
            {
                "start_time": 49.7045455,
                "end_time": 49.8272727,
                "pitch": 47,
                "velocity": 32,
                "duration": 0.1227273,
                "tempo": 120.0
            },
            {
                "start_time": 49.8454545,
                "end_time": 49.9818182,
                "pitch": 47,
                "velocity": 32,
                "duration": 0.1363636,
                "tempo": 120.0
            },
            {
                "start_time": 50.0022727,
                "end_time": 50.1204545,
                "pitch": 59,
                "velocity": 32,
                "duration": 0.1181818,
                "tempo": 120.0
            },
            {
                "start_time": 50.1409091,
                "end_time": 50.2772727,
                "pitch": 47,
                "velocity": 32,
                "duration": 0.1363636,
                "tempo": 120.0
            },
            {
                "start_time": 50.2977273,
                "end_time": 50.4340909,
                "pitch": 47,
                "velocity": 32,
                "duration": 0.1363636,
                "tempo": 120.0
            },
            {
                "start_time": 50.4545455,
                "end_time": 50.5545455,
                "pitch": 59,
                "velocity": 32,
                "duration": 0.1,
                "tempo": 120.0
            },
            {
                "start_time": 50.5863636,
                "end_time": 50.6840909,
                "pitch": 47,
                "velocity": 32,
                "duration": 0.0977273,
                "tempo": 120.0
            },
            {
                "start_time": 50.7022727,
                "end_time": 50.8159091,
                "pitch": 47,
                "velocity": 32,
                "duration": 0.1136364,
                "tempo": 120.0
            },
            {
                "start_time": 50.8340909,
                "end_time": 50.9477273,
                "pitch": 47,
                "velocity": 32,
                "duration": 0.1136364,
                "tempo": 120.0
            },
            {
                "start_time": 50.9659091,
                "end_time": 51.0818182,
                "pitch": 45,
                "velocity": 32,
                "duration": 0.1159091,
                "tempo": 120.0
            },
            {
                "start_time": 51.0818182,
                "end_time": 51.2159091,
                "pitch": 47,
                "velocity": 32,
                "duration": 0.1340909,
                "tempo": 120.0
            },
            {
                "start_time": 51.2159091,
                "end_time": 51.3340909,
                "pitch": 59,
                "velocity": 32,
                "duration": 0.1181818,
                "tempo": 120.0
            },
            {
                "start_time": 51.35,
                "end_time": 51.45,
                "pitch": 47,
                "velocity": 32,
                "duration": 0.1,
                "tempo": 120.0
            },
            {
                "start_time": 51.4840909,
                "end_time": 51.5818182,
                "pitch": 47,
                "velocity": 32,
                "duration": 0.0977273,
                "tempo": 120.0
            },
            {
                "start_time": 51.6,
                "end_time": 51.7318182,
                "pitch": 57,
                "velocity": 32,
                "duration": 0.1318182,
                "tempo": 120.0
            },
            {
                "start_time": 51.7318182,
                "end_time": 51.8659091,
                "pitch": 59,
                "velocity": 32,
                "duration": 0.1340909,
                "tempo": 120.0
            },
            {
                "start_time": 51.8659091,
                "end_time": 51.9613636,
                "pitch": 48,
                "velocity": 32,
                "duration": 0.0954545,
                "tempo": 120.0
            },
            {
                "start_time": 51.9772727,
                "end_time": 52.0931818,
                "pitch": 48,
                "velocity": 32,
                "duration": 0.1159091,
                "tempo": 120.0
            },
            {
                "start_time": 52.1090909,
                "end_time": 52.225,
                "pitch": 60,
                "velocity": 32,
                "duration": 0.1159091,
                "tempo": 120.0
            },
            {
                "start_time": 52.2409091,
                "end_time": 52.3568182,
                "pitch": 48,
                "velocity": 32,
                "duration": 0.1159091,
                "tempo": 120.0
            },
            {
                "start_time": 52.3727273,
                "end_time": 52.4704545,
                "pitch": 48,
                "velocity": 32,
                "duration": 0.0977273,
                "tempo": 120.0
            },
            {
                "start_time": 52.4886364,
                "end_time": 52.6022727,
                "pitch": 60,
                "velocity": 32,
                "duration": 0.1136364,
                "tempo": 120.0
            },
            {
                "start_time": 52.6204545,
                "end_time": 52.7340909,
                "pitch": 48,
                "velocity": 32,
                "duration": 0.1136364,
                "tempo": 120.0
            },
            {
                "start_time": 52.7522727,
                "end_time": 52.85,
                "pitch": 48,
                "velocity": 32,
                "duration": 0.0977273,
                "tempo": 120.0
            },
            {
                "start_time": 52.8681818,
                "end_time": 52.9818182,
                "pitch": 60,
                "velocity": 32,
                "duration": 0.1136364,
                "tempo": 120.0
            },
            {
                "start_time": 53.0,
                "end_time": 53.1159091,
                "pitch": 48,
                "velocity": 32,
                "duration": 0.1159091,
                "tempo": 120.0
            },
            {
                "start_time": 53.1318182,
                "end_time": 53.25,
                "pitch": 60,
                "velocity": 32,
                "duration": 0.1181818,
                "tempo": 120.0
            },
            {
                "start_time": 53.2659091,
                "end_time": 53.3659091,
                "pitch": 48,
                "velocity": 32,
                "duration": 0.1,
                "tempo": 120.0
            },
            {
                "start_time": 53.3840909,
                "end_time": 53.5,
                "pitch": 55,
                "velocity": 32,
                "duration": 0.1159091,
                "tempo": 120.0
            },
            {
                "start_time": 53.5181818,
                "end_time": 53.6340909,
                "pitch": 48,
                "velocity": 32,
                "duration": 0.1159091,
                "tempo": 120.0
            },
            {
                "start_time": 53.6522727,
                "end_time": 53.7522727,
                "pitch": 60,
                "velocity": 32,
                "duration": 0.1,
                "tempo": 120.0
            },
            {
                "start_time": 53.7863636,
                "end_time": 53.8863636,
                "pitch": 48,
                "velocity": 32,
                "duration": 0.1,
                "tempo": 120.0
            },
            {
                "start_time": 53.9045455,
                "end_time": 54.0204545,
                "pitch": 47,
                "velocity": 32,
                "duration": 0.1159091,
                "tempo": 120.0
            },
            {
                "start_time": 54.0363636,
                "end_time": 54.1545455,
                "pitch": 47,
                "velocity": 32,
                "duration": 0.1181818,
                "tempo": 120.0
            },
            {
                "start_time": 54.1727273,
                "end_time": 54.275,
                "pitch": 59,
                "velocity": 32,
                "duration": 0.1022727,
                "tempo": 120.0
            },
            {
                "start_time": 54.2931818,
                "end_time": 54.4113636,
                "pitch": 47,
                "velocity": 32,
                "duration": 0.1181818,
                "tempo": 120.0
            },
            {
                "start_time": 54.4295455,
                "end_time": 54.5477273,
                "pitch": 47,
                "velocity": 32,
                "duration": 0.1181818,
                "tempo": 120.0
            },
            {
                "start_time": 54.5659091,
                "end_time": 54.6613636,
                "pitch": 59,
                "velocity": 32,
                "duration": 0.0954545,
                "tempo": 120.0
            },
            {
                "start_time": 54.6931818,
                "end_time": 54.7886364,
                "pitch": 47,
                "velocity": 32,
                "duration": 0.0954545,
                "tempo": 120.0
            },
            {
                "start_time": 54.8068182,
                "end_time": 54.9181818,
                "pitch": 47,
                "velocity": 32,
                "duration": 0.1113636,
                "tempo": 120.0
            },
            {
                "start_time": 54.9340909,
                "end_time": 55.0454545,
                "pitch": 47,
                "velocity": 32,
                "duration": 0.1113636,
                "tempo": 120.0
            },
            {
                "start_time": 55.0636364,
                "end_time": 55.1795455,
                "pitch": 45,
                "velocity": 32,
                "duration": 0.1159091,
                "tempo": 120.0
            },
            {
                "start_time": 55.1795455,
                "end_time": 55.3136364,
                "pitch": 47,
                "velocity": 32,
                "duration": 0.1340909,
                "tempo": 120.0
            },
            {
                "start_time": 55.3136364,
                "end_time": 55.4295455,
                "pitch": 59,
                "velocity": 32,
                "duration": 0.1159091,
                "tempo": 120.0
            },
            {
                "start_time": 55.4477273,
                "end_time": 55.5636364,
                "pitch": 47,
                "velocity": 32,
                "duration": 0.1159091,
                "tempo": 120.0
            },
            {
                "start_time": 55.5818182,
                "end_time": 55.6818182,
                "pitch": 47,
                "velocity": 32,
                "duration": 0.1,
                "tempo": 120.0
            },
            {
                "start_time": 55.7,
                "end_time": 55.8318182,
                "pitch": 57,
                "velocity": 32,
                "duration": 0.1318182,
                "tempo": 120.0
            },
            {
                "start_time": 55.8318182,
                "end_time": 55.9681818,
                "pitch": 59,
                "velocity": 32,
                "duration": 0.1363636,
                "tempo": 120.0
            },
            {
                "start_time": 55.9681818,
                "end_time": 56.0659091,
                "pitch": 48,
                "velocity": 32,
                "duration": 0.0977273,
                "tempo": 120.0
            },
            {
                "start_time": 56.1,
                "end_time": 56.2,
                "pitch": 48,
                "velocity": 32,
                "duration": 0.1,
                "tempo": 120.0
            },
            {
                "start_time": 56.2181818,
                "end_time": 56.3340909,
                "pitch": 60,
                "velocity": 32,
                "duration": 0.1159091,
                "tempo": 120.0
            },
            {
                "start_time": 56.3522727,
                "end_time": 56.4681818,
                "pitch": 48,
                "velocity": 32,
                "duration": 0.1159091,
                "tempo": 120.0
            },
            {
                "start_time": 56.4863636,
                "end_time": 56.5863636,
                "pitch": 48,
                "velocity": 32,
                "duration": 0.1,
                "tempo": 120.0
            },
            {
                "start_time": 56.6022727,
                "end_time": 56.7136364,
                "pitch": 60,
                "velocity": 32,
                "duration": 0.1113636,
                "tempo": 120.0
            },
            {
                "start_time": 56.7295455,
                "end_time": 56.8386364,
                "pitch": 48,
                "velocity": 32,
                "duration": 0.1090909,
                "tempo": 120.0
            },
            {
                "start_time": 56.8545455,
                "end_time": 56.95,
                "pitch": 48,
                "velocity": 32,
                "duration": 0.0954545,
                "tempo": 120.0
            },
            {
                "start_time": 56.9818182,
                "end_time": 57.075,
                "pitch": 60,
                "velocity": 32,
                "duration": 0.0931818,
                "tempo": 120.0
            },
            {
                "start_time": 57.0931818,
                "end_time": 57.2090909,
                "pitch": 48,
                "velocity": 32,
                "duration": 0.1159091,
                "tempo": 120.0
            },
            {
                "start_time": 57.2272727,
                "end_time": 57.3431818,
                "pitch": 60,
                "velocity": 32,
                "duration": 0.1159091,
                "tempo": 120.0
            },
            {
                "start_time": 57.3590909,
                "end_time": 57.4590909,
                "pitch": 48,
                "velocity": 32,
                "duration": 0.1,
                "tempo": 120.0
            },
            {
                "start_time": 57.4772727,
                "end_time": 57.5931818,
                "pitch": 55,
                "velocity": 32,
                "duration": 0.1159091,
                "tempo": 120.0
            },
            {
                "start_time": 57.6113636,
                "end_time": 57.7272727,
                "pitch": 48,
                "velocity": 32,
                "duration": 0.1159091,
                "tempo": 120.0
            },
            {
                "start_time": 57.7454545,
                "end_time": 57.8454545,
                "pitch": 60,
                "velocity": 32,
                "duration": 0.1,
                "tempo": 120.0
            },
            {
                "start_time": 57.8795455,
                "end_time": 57.9795455,
                "pitch": 48,
                "velocity": 32,
                "duration": 0.1,
                "tempo": 120.0
            },
            {
                "start_time": 57.9977273,
                "end_time": 58.1136364,
                "pitch": 47,
                "velocity": 32,
                "duration": 0.1159091,
                "tempo": 120.0
            },
            {
                "start_time": 58.1295455,
                "end_time": 58.2477273,
                "pitch": 47,
                "velocity": 32,
                "duration": 0.1181818,
                "tempo": 120.0
            },
            {
                "start_time": 58.2636364,
                "end_time": 58.3636364,
                "pitch": 59,
                "velocity": 32,
                "duration": 0.1,
                "tempo": 120.0
            },
            {
                "start_time": 58.3818182,
                "end_time": 58.4977273,
                "pitch": 47,
                "velocity": 32,
                "duration": 0.1159091,
                "tempo": 120.0
            },
            {
                "start_time": 58.5159091,
                "end_time": 58.6318182,
                "pitch": 47,
                "velocity": 32,
                "duration": 0.1159091,
                "tempo": 120.0
            },
            {
                "start_time": 58.65,
                "end_time": 58.7636364,
                "pitch": 59,
                "velocity": 32,
                "duration": 0.1136364,
                "tempo": 120.0
            },
            {
                "start_time": 58.7818182,
                "end_time": 58.8795455,
                "pitch": 47,
                "velocity": 32,
                "duration": 0.0977273,
                "tempo": 120.0
            },
            {
                "start_time": 58.8954545,
                "end_time": 59.0113636,
                "pitch": 47,
                "velocity": 32,
                "duration": 0.1159091,
                "tempo": 120.0
            },
            {
                "start_time": 59.0272727,
                "end_time": 59.1431818,
                "pitch": 47,
                "velocity": 32,
                "duration": 0.1159091,
                "tempo": 120.0
            },
            {
                "start_time": 59.1590909,
                "end_time": 59.2931818,
                "pitch": 45,
                "velocity": 32,
                "duration": 0.1340909,
                "tempo": 120.0
            },
            {
                "start_time": 59.2931818,
                "end_time": 59.4113636,
                "pitch": 47,
                "velocity": 32,
                "duration": 0.1181818,
                "tempo": 120.0
            },
            {
                "start_time": 59.4113636,
                "end_time": 59.5272727,
                "pitch": 59,
                "velocity": 32,
                "duration": 0.1159091,
                "tempo": 120.0
            },
            {
                "start_time": 59.5454545,
                "end_time": 59.6613636,
                "pitch": 47,
                "velocity": 32,
                "duration": 0.1159091,
                "tempo": 120.0
            },
            {
                "start_time": 59.6795455,
                "end_time": 59.7795455,
                "pitch": 47,
                "velocity": 32,
                "duration": 0.1,
                "tempo": 120.0
            },
            {
                "start_time": 59.7977273,
                "end_time": 59.9295455,
                "pitch": 57,
                "velocity": 32,
                "duration": 0.1318182,
                "tempo": 120.0
            },
            {
                "start_time": 59.9295455,
                "end_time": 60.0659091,
                "pitch": 59,
                "velocity": 32,
                "duration": 0.1363636,
                "tempo": 120.0
            },
            {
                "start_time": 60.0659091,
                "end_time": 60.1636364,
                "pitch": 48,
                "velocity": 32,
                "duration": 0.0977273,
                "tempo": 120.0
            },
            {
                "start_time": 60.1977273,
                "end_time": 60.2977273,
                "pitch": 48,
                "velocity": 32,
                "duration": 0.1,
                "tempo": 120.0
            },
            {
                "start_time": 60.3159091,
                "end_time": 60.4318182,
                "pitch": 60,
                "velocity": 32,
                "duration": 0.1159091,
                "tempo": 120.0
            },
            {
                "start_time": 60.45,
                "end_time": 60.5659091,
                "pitch": 48,
                "velocity": 32,
                "duration": 0.1159091,
                "tempo": 120.0
            },
            {
                "start_time": 60.5840909,
                "end_time": 60.6818182,
                "pitch": 48,
                "velocity": 32,
                "duration": 0.0977273,
                "tempo": 120.0
            },
            {
                "start_time": 60.7,
                "end_time": 60.8090909,
                "pitch": 60,
                "velocity": 32,
                "duration": 0.1090909,
                "tempo": 120.0
            },
            {
                "start_time": 60.8272727,
                "end_time": 60.9363636,
                "pitch": 48,
                "velocity": 32,
                "duration": 0.1090909,
                "tempo": 120.0
            },
            {
                "start_time": 60.9522727,
                "end_time": 61.0636364,
                "pitch": 48,
                "velocity": 32,
                "duration": 0.1113636,
                "tempo": 120.0
            },
            {
                "start_time": 61.0795455,
                "end_time": 61.1727273,
                "pitch": 60,
                "velocity": 32,
                "duration": 0.0931818,
                "tempo": 120.0
            },
            {
                "start_time": 61.1886364,
                "end_time": 61.3068182,
                "pitch": 48,
                "velocity": 32,
                "duration": 0.1181818,
                "tempo": 120.0
            },
            {
                "start_time": 61.325,
                "end_time": 61.4409091,
                "pitch": 60,
                "velocity": 32,
                "duration": 0.1159091,
                "tempo": 120.0
            },
            {
                "start_time": 61.4568182,
                "end_time": 61.5568182,
                "pitch": 48,
                "velocity": 32,
                "duration": 0.1,
                "tempo": 120.0
            },
            {
                "start_time": 61.575,
                "end_time": 61.6909091,
                "pitch": 55,
                "velocity": 32,
                "duration": 0.1159091,
                "tempo": 120.0
            },
            {
                "start_time": 61.7090909,
                "end_time": 61.825,
                "pitch": 48,
                "velocity": 32,
                "duration": 0.1159091,
                "tempo": 120.0
            },
            {
                "start_time": 61.8431818,
                "end_time": 61.9590909,
                "pitch": 60,
                "velocity": 32,
                "duration": 0.1159091,
                "tempo": 120.0
            },
            {
                "start_time": 61.9772727,
                "end_time": 62.0772727,
                "pitch": 48,
                "velocity": 32,
                "duration": 0.1,
                "tempo": 120.0
            },
            {
                "start_time": 62.0954545,
                "end_time": 62.2113636,
                "pitch": 47,
                "velocity": 32,
                "duration": 0.1159091,
                "tempo": 120.0
            },
            {
                "start_time": 62.2272727,
                "end_time": 62.3454545,
                "pitch": 47,
                "velocity": 32,
                "duration": 0.1181818,
                "tempo": 120.0
            },
            {
                "start_time": 62.3636364,
                "end_time": 62.4659091,
                "pitch": 59,
                "velocity": 32,
                "duration": 0.1022727,
                "tempo": 120.0
            },
            {
                "start_time": 62.5,
                "end_time": 62.6022727,
                "pitch": 47,
                "velocity": 32,
                "duration": 0.1022727,
                "tempo": 120.0
            },
            {
                "start_time": 62.6181818,
                "end_time": 62.7386364,
                "pitch": 47,
                "velocity": 32,
                "duration": 0.1204545,
                "tempo": 120.0
            },
            {
                "start_time": 62.7545455,
                "end_time": 62.8681818,
                "pitch": 59,
                "velocity": 32,
                "duration": 0.1136364,
                "tempo": 120.0
            },
            {
                "start_time": 62.8840909,
                "end_time": 62.9795455,
                "pitch": 47,
                "velocity": 32,
                "duration": 0.0954545,
                "tempo": 120.0
            },
            {
                "start_time": 62.9977273,
                "end_time": 63.1090909,
                "pitch": 47,
                "velocity": 32,
                "duration": 0.1113636,
                "tempo": 120.0
            },
            {
                "start_time": 63.125,
                "end_time": 63.2363636,
                "pitch": 47,
                "velocity": 32,
                "duration": 0.1113636,
                "tempo": 120.0
            },
            {
                "start_time": 63.2522727,
                "end_time": 63.3863636,
                "pitch": 45,
                "velocity": 32,
                "duration": 0.1340909,
                "tempo": 120.0
            },
            {
                "start_time": 63.3863636,
                "end_time": 63.5045455,
                "pitch": 47,
                "velocity": 32,
                "duration": 0.1181818,
                "tempo": 120.0
            },
            {
                "start_time": 63.5045455,
                "end_time": 63.6204545,
                "pitch": 59,
                "velocity": 32,
                "duration": 0.1159091,
                "tempo": 120.0
            },
            {
                "start_time": 63.6386364,
                "end_time": 63.7545455,
                "pitch": 47,
                "velocity": 32,
                "duration": 0.1159091,
                "tempo": 120.0
            },
            {
                "start_time": 63.7727273,
                "end_time": 63.8727273,
                "pitch": 47,
                "velocity": 32,
                "duration": 0.1,
                "tempo": 120.0
            },
            {
                "start_time": 63.8886364,
                "end_time": 64.0227273,
                "pitch": 57,
                "velocity": 32,
                "duration": 0.1340909,
                "tempo": 120.0
            },
            {
                "start_time": 64.0227273,
                "end_time": 64.1590909,
                "pitch": 59,
                "velocity": 32,
                "duration": 0.1363636,
                "tempo": 120.0
            },
            {
                "start_time": 64.1590909,
                "end_time": 64.2727273,
                "pitch": 48,
                "velocity": 32,
                "duration": 0.1136364,
                "tempo": 120.0
            },
            {
                "start_time": 64.2909091,
                "end_time": 64.3931818,
                "pitch": 48,
                "velocity": 32,
                "duration": 0.1022727,
                "tempo": 120.0
            },
            {
                "start_time": 64.4090909,
                "end_time": 64.5295455,
                "pitch": 60,
                "velocity": 32,
                "duration": 0.1204545,
                "tempo": 120.0
            },
            {
                "start_time": 64.5454545,
                "end_time": 64.6659091,
                "pitch": 48,
                "velocity": 32,
                "duration": 0.1204545,
                "tempo": 120.0
            },
            {
                "start_time": 64.6818182,
                "end_time": 64.7840909,
                "pitch": 48,
                "velocity": 32,
                "duration": 0.1022727,
                "tempo": 120.0
            },
            {
                "start_time": 64.8181818,
                "end_time": 64.9159091,
                "pitch": 60,
                "velocity": 32,
                "duration": 0.0977273,
                "tempo": 120.0
            },
            {
                "start_time": 64.9318182,
                "end_time": 65.0431818,
                "pitch": 48,
                "velocity": 32,
                "duration": 0.1113636,
                "tempo": 120.0
            },
            {
                "start_time": 65.0613636,
                "end_time": 65.1727273,
                "pitch": 48,
                "velocity": 32,
                "duration": 0.1113636,
                "tempo": 120.0
            },
            {
                "start_time": 65.1886364,
                "end_time": 65.2840909,
                "pitch": 60,
                "velocity": 32,
                "duration": 0.0954545,
                "tempo": 120.0
            },
            {
                "start_time": 65.3,
                "end_time": 65.4113636,
                "pitch": 48,
                "velocity": 32,
                "duration": 0.1113636,
                "tempo": 120.0
            },
            {
                "start_time": 65.4295455,
                "end_time": 65.5409091,
                "pitch": 60,
                "velocity": 32,
                "duration": 0.1113636,
                "tempo": 120.0
            },
            {
                "start_time": 65.5568182,
                "end_time": 65.6522727,
                "pitch": 48,
                "velocity": 32,
                "duration": 0.0954545,
                "tempo": 120.0
            },
            {
                "start_time": 65.6863636,
                "end_time": 65.775,
                "pitch": 55,
                "velocity": 32,
                "duration": 0.0886364,
                "tempo": 120.0
            },
            {
                "start_time": 65.7886364,
                "end_time": 65.8886364,
                "pitch": 48,
                "velocity": 32,
                "duration": 0.1,
                "tempo": 120.0
            },
            {
                "start_time": 65.9022727,
                "end_time": 66.0,
                "pitch": 60,
                "velocity": 32,
                "duration": 0.0977273,
                "tempo": 120.0
            },
            {
                "start_time": 66.0159091,
                "end_time": 66.1,
                "pitch": 48,
                "velocity": 32,
                "duration": 0.0840909,
                "tempo": 120.0
            },
            {
                "start_time": 66.1181818,
                "end_time": 69.1636364,
                "pitch": 47,
                "velocity": 32,
                "duration": 3.0454545,
                "tempo": 120.0
            },
            {
                "start_time": 70.1795455,
                "end_time": 70.3886364,
                "pitch": 40,
                "velocity": 51,
                "duration": 0.2090909,
                "tempo": 120.0
            }
        ]
    }
}