{
    "mood": "angry",
    "instruments": {
        "Electric Guitar (clean)": [
            {
                "start_time": 3.8681818,
                "end_time": 4.0977273,
                "pitch": 41,
                "velocity": 40,
                "duration": 0.2295455,
                "tempo": 120.0
            },
            {
                "start_time": 4.1159091,
                "end_time": 4.2045455,
                "pitch": 41,
                "velocity": 40,
                "duration": 0.0886364,
                "tempo": 120.0
            },
            {
                "start_time": 4.2227273,
                "end_time": 4.3454545,
                "pitch": 41,
                "velocity": 40,
                "duration": 0.1227273,
                "tempo": 120.0
            },
            {
                "start_time": 4.3636364,
                "end_time": 4.4477273,
                "pitch": 53,
                "velocity": 40,
                "duration": 0.0840909,
                "tempo": 120.0
            },
            {
                "start_time": 4.4977273,
                "end_time": 4.5818182,
                "pitch": 41,
                "velocity": 40,
                "duration": 0.0840909,
                "tempo": 120.0
            },
            {
                "start_time": 4.7318182,
                "end_time": 4.8159091,
                "pitch": 41,
                "velocity": 40,
                "duration": 0.0840909,
                "tempo": 120.0
            },
            {
                "start_time": 4.8318182,
                "end_time": 5.05,
                "pitch": 41,
                "velocity": 40,
                "duration": 0.2181818,
                "tempo": 120.0
            },
            {
                "start_time": 5.1,
                "end_time": 5.1840909,
                "pitch": 41,
                "velocity": 40,
                "duration": 0.0840909,
                "tempo": 120.0
            },
            {
                "start_time": 5.2,
                "end_time": 5.3181818,
                "pitch": 41,
                "velocity": 40,
                "duration": 0.1181818,
                "tempo": 120.0
            },
            {
                "start_time": 5.3363636,
                "end_time": 5.4227273,
                "pitch": 51,
                "velocity": 40,
                "duration": 0.0863636,
                "tempo": 120.0
            },
            {
                "start_time": 5.4409091,
                "end_time": 5.5636364,
                "pitch": 41,
                "velocity": 40,
                "duration": 0.1227273,
                "tempo": 120.0
            },
            {
                "start_time": 5.7204545,
                "end_time": 5.8068182,
                "pitch": 41,
                "velocity": 40,
                "duration": 0.0863636,
                "tempo": 120.0
            },
            {
                "start_time": 5.8227273,
                "end_time": 6.0409091,
                "pitch": 41,
                "velocity": 40,
                "duration": 0.2181818,
                "tempo": 120.0
            },
            {
                "start_time": 6.0568182,
                "end_time": 6.175,
                "pitch": 41,
                "velocity": 40,
                "duration": 0.1181818,
                "tempo": 120.0
            },
            {
                "start_time": 6.1909091,
                "end_time": 6.275,
                "pitch": 41,
                "velocity": 40,
                "duration": 0.0840909,
                "tempo": 120.0
            },
            {
                "start_time": 6.3272727,
                "end_time": 6.4159091,
                "pitch": 53,
                "velocity": 40,
                "duration": 0.0886364,
                "tempo": 120.0
            },
            {
                "start_time": 6.4340909,
                "end_time": 6.5568182,
                "pitch": 41,
                "velocity": 40,
                "duration": 0.1227273,
                "tempo": 120.0
            },
            {
                "start_time": 6.6818182,
                "end_time": 6.9022727,
                "pitch": 41,
                "velocity": 40,
                "duration": 0.2204545,
                "tempo": 120.0
            },
            {
                "start_time": 6.9522727,
                "end_time": 7.0340909,
                "pitch": 51,
                "velocity": 40,
                "duration": 0.0818182,
                "tempo": 120.0
            },
            {
                "start_time": 7.05,
                "end_time": 7.1659091,
                "pitch": 41,
                "velocity": 40,
                "duration": 0.1159091,
                "tempo": 120.0
            },
            {
                "start_time": 7.1818182,
                "end_time": 7.2636364,
                "pitch": 41,
                "velocity": 40,
                "duration": 0.0818182,
                "tempo": 120.0
            },
            {
                "start_time": 7.2795455,
                "end_time": 7.4,
                "pitch": 48,
                "velocity": 40,
                "duration": 0.1204545,
                "tempo": 120.0
            },
            {
                "start_time": 7.4181818,
                "end_time": 7.5022727,
                "pitch": 41,
                "velocity": 40,
                "duration": 0.0840909,
                "tempo": 120.0
            },
            {
                "start_time": 7.5545455,
                "end_time": 7.6409091,
                "pitch": 39,
                "velocity": 40,
                "duration": 0.0863636,
                "tempo": 120.0
            },
            {
                "start_time": 7.6568182,
                "end_time": 7.7772727,
                "pitch": 41,
                "velocity": 40,
                "duration": 0.1204545,
                "tempo": 120.0
            },
            {
                "start_time": 7.7954545,
                "end_time": 8.0227273,
                "pitch": 41,
                "velocity": 40,
                "duration": 0.2272727,
                "tempo": 120.0
            },
            {
                "start_time": 8.0386364,
                "end_time": 8.1272727,
                "pitch": 41,
                "velocity": 40,
                "duration": 0.0886364,
                "tempo": 120.0
            },
            {
                "start_time": 8.1795455,
                "end_time": 8.2659091,
                "pitch": 41,
                "velocity": 40,
                "duration": 0.0863636,
                "tempo": 120.0
            },
            {
                "start_time": 8.2818182,
                "end_time": 8.4,
                "pitch": 53,
                "velocity": 40,
                "duration": 0.1181818,
                "tempo": 120.0
            },
            {
                "start_time": 8.4159091,
                "end_time": 8.5,
                "pitch": 41,
                "velocity": 40,
                "duration": 0.0840909,
                "tempo": 120.0
            },
            {
                "start_time": 8.65,
                "end_time": 8.7340909,
                "pitch": 41,
                "velocity": 40,
                "duration": 0.0840909,
                "tempo": 120.0
            },
            {
                "start_time": 8.7863636,
                "end_time": 9.0159091,
                "pitch": 41,
                "velocity": 40,
                "duration": 0.2295455,
                "tempo": 120.0
            },
            {
                "start_time": 9.0340909,
                "end_time": 9.1227273,
                "pitch": 41,
                "velocity": 40,
                "duration": 0.0886364,
                "tempo": 120.0
            },
            {
                "start_time": 9.1409091,
                "end_time": 9.2636364,
                "pitch": 41,
                "velocity": 40,
                "duration": 0.1227273,
                "tempo": 120.0
            },
            {
                "start_time": 9.2818182,
                "end_time": 9.3659091,
                "pitch": 51,
                "velocity": 40,
                "duration": 0.0840909,
                "tempo": 120.0
            },
            {
                "start_time": 9.4159091,
                "end_time": 9.5,
                "pitch": 41,
                "velocity": 40,
                "duration": 0.0840909,
                "tempo": 120.0
            },
            {
                "start_time": 9.65,
                "end_time": 9.7340909,
                "pitch": 41,
                "velocity": 40,
                "duration": 0.0840909,
                "tempo": 120.0
            },
            {
                "start_time": 9.75,
                "end_time": 9.9681818,
                "pitch": 41,
                "velocity": 40,
                "duration": 0.2181818,
                "tempo": 120.0
            },
            {
                "start_time": 10.0181818,
                "end_time": 10.1022727,
                "pitch": 41,
                "velocity": 40,
                "duration": 0.0840909,
                "tempo": 120.0
            },
            {
                "start_time": 10.1181818,
                "end_time": 10.2363636,
                "pitch": 41,
                "velocity": 40,
                "duration": 0.1181818,
                "tempo": 120.0
            },
            {
                "start_time": 10.2545455,
                "end_time": 10.3409091,
                "pitch": 63,
                "velocity": 40,
                "duration": 0.0863636,
                "tempo": 120.0
            },
            {
                "start_time": 10.3590909,
                "end_time": 10.4818182,
                "pitch": 65,
                "velocity": 40,
                "duration": 0.1227273,
                "tempo": 120.0
            },
            {
                "start_time": 10.4977273,
                "end_time": 10.5863636,
                "pitch": 41,
                "velocity": 40,
                "duration": 0.0886364,
                "tempo": 120.0
            },
            {
                "start_time": 10.6386364,
                "end_time": 10.725,
                "pitch": 41,
                "velocity": 40,
                "duration": 0.0863636,
                "tempo": 120.0
            },
            {
                "start_time": 10.7409091,
                "end_time": 10.8590909,
                "pitch": 61,
                "velocity": 40,
                "duration": 0.1181818,
                "tempo": 120.0
            },
            {
                "start_time": 10.875,
                "end_time": 10.9590909,
                "pitch": 63,
                "velocity": 40,
                "duration": 0.0840909,
                "tempo": 120.0
            },
            {
                "start_time": 10.9772727,
                "end_time": 11.0931818,
                "pitch": 41,
                "velocity": 40,
                "duration": 0.1159091,
                "tempo": 120.0
            },
            {
                "start_time": 11.1090909,
                "end_time": 11.1931818,
                "pitch": 41,
                "velocity": 40,
                "duration": 0.0840909,
                "tempo": 120.0
            },
            {
                "start_time": 11.2454545,
                "end_time": 11.3340909,
                "pitch": 60,
                "velocity": 40,
                "duration": 0.0886364,
                "tempo": 120.0
            },
            {
                "start_time": 11.3522727,
                "end_time": 11.475,
                "pitch": 61,
                "velocity": 40,
                "duration": 0.1227273,
                "tempo": 120.0
            },
            {
                "start_time": 11.4931818,
                "end_time": 11.7227273,
                "pitch": 39,
                "velocity": 40,
                "duration": 0.2295455,
                "tempo": 120.0
            },
            {
                "start_time": 11.7386364,
                "end_time": 11.9522727,
                "pitch": 41,
                "velocity": 40,
                "duration": 0.2136364,
                "tempo": 120.0
            },
            {
                "start_time": 11.9681818,
                "end_time": 12.0840909,
                "pitch": 41,
                "velocity": 40,
                "duration": 0.1159091,
                "tempo": 120.0
            },
            {
                "start_time": 12.1,
                "end_time": 12.1818182,
                "pitch": 41,
                "velocity": 40,
                "duration": 0.0818182,
                "tempo": 120.0
            },
            {
                "start_time": 12.1977273,
                "end_time": 12.3181818,
                "pitch": 53,
                "velocity": 40,
                "duration": 0.1204545,
                "tempo": 120.0
            },
            {
                "start_time": 12.3363636,
                "end_time": 12.4204545,
                "pitch": 41,
                "velocity": 40,
                "duration": 0.0840909,
                "tempo": 120.0
            },
            {
                "start_time": 12.575,
                "end_time": 12.6954545,
                "pitch": 41,
                "velocity": 40,
                "duration": 0.1204545,
                "tempo": 120.0
            },
            {
                "start_time": 12.7136364,
                "end_time": 12.9409091,
                "pitch": 41,
                "velocity": 40,
                "duration": 0.2272727,
                "tempo": 120.0
            },
            {
                "start_time": 12.9568182,
                "end_time": 13.0454545,
                "pitch": 41,
                "velocity": 40,
                "duration": 0.0886364,
                "tempo": 120.0
            },
            {
                "start_time": 13.0977273,
                "end_time": 13.1840909,
                "pitch": 41,
                "velocity": 40,
                "duration": 0.0863636,
                "tempo": 120.0
            },
            {
                "start_time": 13.2,
                "end_time": 13.3181818,
                "pitch": 51,
                "velocity": 40,
                "duration": 0.1181818,
                "tempo": 120.0
            },
            {
                "start_time": 13.3340909,
                "end_time": 13.4181818,
                "pitch": 41,
                "velocity": 40,
                "duration": 0.0840909,
                "tempo": 120.0
            },
            {
                "start_time": 13.5704545,
                "end_time": 13.6522727,
                "pitch": 41,
                "velocity": 40,
                "duration": 0.0818182,
                "tempo": 120.0
            },
            {
                "start_time": 13.7045455,
                "end_time": 13.9340909,
                "pitch": 41,
                "velocity": 40,
                "duration": 0.2295455,
                "tempo": 120.0
            },
            {
                "start_time": 13.9522727,
                "end_time": 14.0409091,
                "pitch": 41,
                "velocity": 40,
                "duration": 0.0886364,
                "tempo": 120.0
            },
            {
                "start_time": 14.0590909,
                "end_time": 14.1840909,
                "pitch": 41,
                "velocity": 40,
                "duration": 0.125,
                "tempo": 120.0
            },
            {
                "start_time": 14.2,
                "end_time": 14.2840909,
                "pitch": 53,
                "velocity": 40,
                "duration": 0.0840909,
                "tempo": 120.0
            },
            {
                "start_time": 14.3340909,
                "end_time": 14.4181818,
                "pitch": 41,
                "velocity": 40,
                "duration": 0.0840909,
                "tempo": 120.0
            },
            {
                "start_time": 14.5681818,
                "end_time": 14.7863636,
                "pitch": 41,
                "velocity": 40,
                "duration": 0.2181818,
                "tempo": 120.0
            },
            {
                "start_time": 14.8022727,
                "end_time": 14.8863636,
                "pitch": 51,
                "velocity": 40,
                "duration": 0.0840909,
                "tempo": 120.0
            },
            {
                "start_time": 14.9363636,
                "end_time": 15.0204545,
                "pitch": 41,
                "velocity": 40,
                "duration": 0.0840909,
                "tempo": 120.0
            },
            {
                "start_time": 15.0386364,
                "end_time": 15.1545455,
                "pitch": 41,
                "velocity": 40,
                "duration": 0.1159091,
                "tempo": 120.0
            },
            {
                "start_time": 15.1727273,
                "end_time": 15.2590909,
                "pitch": 48,
                "velocity": 40,
                "duration": 0.0863636,
                "tempo": 120.0
            },
            {
                "start_time": 15.2772727,
                "end_time": 15.4,
                "pitch": 41,
                "velocity": 40,
                "duration": 0.1227273,
                "tempo": 120.0
            },
            {
                "start_time": 15.4159091,
                "end_time": 15.5045455,
                "pitch": 39,
                "velocity": 40,
                "duration": 0.0886364,
                "tempo": 120.0
            },
            {
                "start_time": 15.5568182,
                "end_time": 15.6431818,
                "pitch": 41,
                "velocity": 40,
                "duration": 0.0863636,
                "tempo": 120.0
            },
            {
                "start_time": 15.6590909,
                "end_time": 15.8772727,
                "pitch": 41,
                "velocity": 40,
                "duration": 0.2181818,
                "tempo": 120.0
            },
            {
                "start_time": 15.8954545,
                "end_time": 16.0113636,
                "pitch": 41,
                "velocity": 40,
                "duration": 0.1159091,
                "tempo": 120.0
            },
            {
                "start_time": 16.0295455,
                "end_time": 16.1113636,
                "pitch": 41,
                "velocity": 40,
                "duration": 0.0818182,
                "tempo": 120.0
            },
            {
                "start_time": 16.1636364,
                "end_time": 16.2522727,
                "pitch": 53,
                "velocity": 40,
                "duration": 0.0886364,
                "tempo": 120.0
            },
            {
                "start_time": 16.2704545,
                "end_time": 16.3931818,
                "pitch": 41,
                "velocity": 40,
                "duration": 0.1227273,
                "tempo": 120.0
            },
            {
                "start_time": 16.5181818,
                "end_time": 16.6409091,
                "pitch": 41,
                "velocity": 40,
                "duration": 0.1227273,
                "tempo": 120.0
            },
            {
                "start_time": 16.6568182,
                "end_time": 16.8704545,
                "pitch": 41,
                "velocity": 40,
                "duration": 0.2136364,
                "tempo": 120.0
            },
            {
                "start_time": 16.8863636,
                "end_time": 17.0022727,
                "pitch": 41,
                "velocity": 40,
                "duration": 0.1159091,
                "tempo": 120.0
            },
            {
                "start_time": 17.0181818,
                "end_time": 17.1,
                "pitch": 41,
                "velocity": 40,
                "duration": 0.0818182,
                "tempo": 120.0
            },
            {
                "start_time": 17.1159091,
                "end_time": 17.2363636,
                "pitch": 51,
                "velocity": 40,
                "duration": 0.1204545,
                "tempo": 120.0
            },
            {
                "start_time": 17.2545455,
                "end_time": 17.3386364,
                "pitch": 41,
                "velocity": 40,
                "duration": 0.0840909,
                "tempo": 120.0
            },
            {
                "start_time": 17.4931818,
                "end_time": 17.6136364,
                "pitch": 41,
                "velocity": 40,
                "duration": 0.1204545,
                "tempo": 120.0
            },
            {
                "start_time": 17.6318182,
                "end_time": 17.8590909,
                "pitch": 41,
                "velocity": 40,
                "duration": 0.2272727,
                "tempo": 120.0
            },
            {
                "start_time": 17.875,
                "end_time": 17.9636364,
                "pitch": 41,
                "velocity": 40,
                "duration": 0.0886364,
                "tempo": 120.0
            },
            {
                "start_time": 18.0159091,
                "end_time": 18.1022727,
                "pitch": 41,
                "velocity": 40,
                "duration": 0.0863636,
                "tempo": 120.0
            },
            {
                "start_time": 18.1181818,
                "end_time": 18.2363636,
                "pitch": 63,
                "velocity": 40,
                "duration": 0.1181818,
                "tempo": 120.0
            },
            {
                "start_time": 18.2522727,
                "end_time": 18.3363636,
                "pitch": 65,
                "velocity": 40,
                "duration": 0.0840909,
                "tempo": 120.0
            },
            {
                "start_time": 18.3545455,
                "end_time": 18.4704545,
                "pitch": 41,
                "velocity": 40,
                "duration": 0.1159091,
                "tempo": 120.0
            },
            {
                "start_time": 18.4886364,
                "end_time": 18.5704545,
                "pitch": 41,
                "velocity": 40,
                "duration": 0.0818182,
                "tempo": 120.0
            },
            {
                "start_time": 18.6227273,
                "end_time": 18.7113636,
                "pitch": 61,
                "velocity": 40,
                "duration": 0.0886364,
                "tempo": 120.0
            },
            {
                "start_time": 18.7295455,
                "end_time": 18.8522727,
                "pitch": 63,
                "velocity": 40,
                "duration": 0.1227273,
                "tempo": 120.0
            },
            {
                "start_time": 18.8704545,
                "end_time": 18.9590909,
                "pitch": 41,
                "velocity": 40,
                "duration": 0.0886364,
                "tempo": 120.0
            },
            {
                "start_time": 18.9772727,
                "end_time": 19.1,
                "pitch": 41,
                "velocity": 40,
                "duration": 0.1227273,
                "tempo": 120.0
            },
            {
                "start_time": 19.1181818,
                "end_time": 19.2,
                "pitch": 60,
                "velocity": 40,
                "duration": 0.0818182,
                "tempo": 120.0
            },
            {
                "start_time": 19.2477273,
                "end_time": 19.3295455,
                "pitch": 61,
                "velocity": 40,
                "duration": 0.0818182,
                "tempo": 120.0
            },
            {
                "start_time": 19.3454545,
                "end_time": 19.5590909,
                "pitch": 39,
                "velocity": 40,
                "duration": 0.2136364,
                "tempo": 120.0
            },
            {
                "start_time": 19.575,
                "end_time": 19.7977273,
                "pitch": 41,
                "velocity": 40,
                "duration": 0.2227273,
                "tempo": 120.0
            },
            {
                "start_time": 19.85,
                "end_time": 19.9363636,
                "pitch": 41,
                "velocity": 40,
                "duration": 0.0863636,
                "tempo": 120.0
            },
            {
                "start_time": 19.9522727,
                "end_time": 20.0727273,
                "pitch": 41,
                "velocity": 40,
                "duration": 0.1204545,
                "tempo": 120.0
            },
            {
                "start_time": 20.0909091,
                "end_time": 20.1772727,
                "pitch": 53,
                "velocity": 40,
                "duration": 0.0863636,
                "tempo": 120.0
            },
            {
                "start_time": 20.1954545,
                "end_time": 20.3181818,
                "pitch": 41,
                "velocity": 40,
                "duration": 0.1227273,
                "tempo": 120.0
            },
            {
                "start_time": 20.475,
                "end_time": 20.5613636,
                "pitch": 41,
                "velocity": 40,
                "duration": 0.0863636,
                "tempo": 120.0
            },
            {
                "start_time": 20.5772727,
                "end_time": 20.7954545,
                "pitch": 41,
                "velocity": 40,
                "duration": 0.2181818,
                "tempo": 120.0
            },
            {
                "start_time": 20.8136364,
                "end_time": 20.9295455,
                "pitch": 41,
                "velocity": 40,
                "duration": 0.1159091,
                "tempo": 120.0
            },
            {
                "start_time": 20.9477273,
                "end_time": 21.0295455,
                "pitch": 41,
                "velocity": 40,
                "duration": 0.0818182,
                "tempo": 120.0
            },
            {
                "start_time": 21.0818182,
                "end_time": 21.1704545,
                "pitch": 51,
                "velocity": 40,
                "duration": 0.0886364,
                "tempo": 120.0
            },
            {
                "start_time": 21.1886364,
                "end_time": 21.3113636,
                "pitch": 41,
                "velocity": 40,
                "duration": 0.1227273,
                "tempo": 120.0
            },
            {
                "start_time": 21.4363636,
                "end_time": 21.5590909,
                "pitch": 41,
                "velocity": 40,
                "duration": 0.1227273,
                "tempo": 120.0
            },
            {
                "start_time": 21.5772727,
                "end_time": 21.7886364,
                "pitch": 41,
                "velocity": 40,
                "duration": 0.2113636,
                "tempo": 120.0
            },
            {
                "start_time": 21.8045455,
                "end_time": 21.9204545,
                "pitch": 41,
                "velocity": 40,
                "duration": 0.1159091,
                "tempo": 120.0
            },
            {
                "start_time": 21.9363636,
                "end_time": 22.0181818,
                "pitch": 41,
                "velocity": 40,
                "duration": 0.0818182,
                "tempo": 120.0
            },
            {
                "start_time": 22.0340909,
                "end_time": 22.1545455,
                "pitch": 53,
                "velocity": 40,
                "duration": 0.1204545,
                "tempo": 120.0
            },
            {
                "start_time": 22.1727273,
                "end_time": 22.2590909,
                "pitch": 41,
                "velocity": 40,
                "duration": 0.0863636,
                "tempo": 120.0
            },
            {
                "start_time": 22.4113636,
                "end_time": 22.6363636,
                "pitch": 41,
                "velocity": 40,
                "duration": 0.225,
                "tempo": 120.0
            },
            {
                "start_time": 22.6545455,
                "end_time": 22.7772727,
                "pitch": 51,
                "velocity": 40,
                "duration": 0.1227273,
                "tempo": 120.0
            },
            {
                "start_time": 22.7931818,
                "end_time": 22.8818182,
                "pitch": 41,
                "velocity": 40,
                "duration": 0.0886364,
                "tempo": 120.0
            },
            {
                "start_time": 22.9340909,
                "end_time": 23.0204545,
                "pitch": 41,
                "velocity": 40,
                "duration": 0.0863636,
                "tempo": 120.0
            },
            {
                "start_time": 23.0386364,
                "end_time": 23.1545455,
                "pitch": 48,
                "velocity": 40,
                "duration": 0.1159091,
                "tempo": 120.0
            },
            {
                "start_time": 23.1704545,
                "end_time": 23.2545455,
                "pitch": 41,
                "velocity": 40,
                "duration": 0.0840909,
                "tempo": 120.0
            },
            {
                "start_time": 23.2727273,
                "end_time": 23.3886364,
                "pitch": 39,
                "velocity": 40,
                "duration": 0.1159091,
                "tempo": 120.0
            },
            {
                "start_time": 23.4068182,
                "end_time": 23.4909091,
                "pitch": 41,
                "velocity": 40,
                "duration": 0.0840909,
                "tempo": 120.0
            },
            {
                "start_time": 23.5409091,
                "end_time": 23.7704545,
                "pitch": 41,
                "velocity": 40,
                "duration": 0.2295455,
                "tempo": 120.0
            },
            {
                "start_time": 23.7886364,
                "end_time": 23.8772727,
                "pitch": 41,
                "velocity": 40,
                "duration": 0.0886364,
                "tempo": 120.0
            },
            {
                "start_time": 23.8954545,
                "end_time": 24.0204545,
                "pitch": 41,
                "velocity": 40,
                "duration": 0.125,
                "tempo": 120.0
            },
            {
                "start_time": 24.0363636,
                "end_time": 24.1204545,
                "pitch": 53,
                "velocity": 40,
                "duration": 0.0840909,
                "tempo": 120.0
            },
            {
                "start_time": 24.1704545,
                "end_time": 24.2545455,
                "pitch": 41,
                "velocity": 40,
                "duration": 0.0840909,
                "tempo": 120.0
            },
            {
                "start_time": 24.4045455,
                "end_time": 24.4886364,
                "pitch": 41,
                "velocity": 40,
                "duration": 0.0840909,
                "tempo": 120.0
            },
            {
                "start_time": 24.5068182,
                "end_time": 24.7227273,
                "pitch": 41,
                "velocity": 40,
                "duration": 0.2159091,
                "tempo": 120.0
            },
            {
                "start_time": 24.7727273,
                "end_time": 24.8568182,
                "pitch": 41,
                "velocity": 40,
                "duration": 0.0840909,
                "tempo": 120.0
            },
            {
                "start_time": 24.875,
                "end_time": 24.9909091,
                "pitch": 41,
                "velocity": 40,
                "duration": 0.1159091,
                "tempo": 120.0
            },
            {
                "start_time": 25.0090909,
                "end_time": 25.0954545,
                "pitch": 51,
                "velocity": 40,
                "duration": 0.0863636,
                "tempo": 120.0
            },
            {
                "start_time": 25.1136364,
                "end_time": 25.2363636,
                "pitch": 41,
                "velocity": 40,
                "duration": 0.1227273,
                "tempo": 120.0
            },
            {
                "start_time": 25.3931818,
                "end_time": 25.4795455,
                "pitch": 41,
                "velocity": 40,
                "duration": 0.0863636,
                "tempo": 120.0
            },
            {
                "start_time": 25.4977273,
                "end_time": 25.7136364,
                "pitch": 41,
                "velocity": 40,
                "duration": 0.2159091,
                "tempo": 120.0
            },
            {
                "start_time": 25.7318182,
                "end_time": 25.8477273,
                "pitch": 41,
                "velocity": 40,
                "duration": 0.1159091,
                "tempo": 120.0
            },
            {
                "start_time": 25.8659091,
                "end_time": 25.95,
                "pitch": 41,
                "velocity": 40,
                "duration": 0.0840909,
                "tempo": 120.0
            },
            {
                "start_time": 26.0,
                "end_time": 26.0886364,
                "pitch": 63,
                "velocity": 40,
                "duration": 0.0886364,
                "tempo": 120.0
            },
            {
                "start_time": 26.1068182,
                "end_time": 26.2295455,
                "pitch": 65,
                "velocity": 40,
                "duration": 0.1227273,
                "tempo": 120.0
            },
            {
                "start_time": 26.2477273,
                "end_time": 26.3363636,
                "pitch": 41,
                "velocity": 40,
                "duration": 0.0886364,
                "tempo": 120.0
            },
            {
                "start_time": 26.3545455,
                "end_time": 26.4772727,
                "pitch": 41,
                "velocity": 40,
                "duration": 0.1227273,
                "tempo": 120.0
            },
            {
                "start_time": 26.4954545,
                "end_time": 26.5772727,
                "pitch": 61,
                "velocity": 40,
                "duration": 0.0818182,
                "tempo": 120.0
            },
            {
                "start_time": 26.625,
                "end_time": 26.7068182,
                "pitch": 63,
                "velocity": 40,
                "duration": 0.0818182,
                "tempo": 120.0
            },
            {
                "start_time": 26.7227273,
                "end_time": 26.8386364,
                "pitch": 41,
                "velocity": 40,
                "duration": 0.1159091,
                "tempo": 120.0
            },
            {
                "start_time": 26.8545455,
                "end_time": 26.9363636,
                "pitch": 41,
                "velocity": 40,
                "duration": 0.0818182,
                "tempo": 120.0
            },
            {
                "start_time": 26.9522727,
                "end_time": 27.0727273,
                "pitch": 60,
                "velocity": 40,
                "duration": 0.1204545,
                "tempo": 120.0
            },
            {
                "start_time": 27.0909091,
                "end_time": 27.1772727,
                "pitch": 61,
                "velocity": 40,
                "duration": 0.0863636,
                "tempo": 120.0
            },
            {
                "start_time": 27.2272727,
                "end_time": 27.45,
                "pitch": 39,
                "velocity": 40,
                "duration": 0.2227273,
                "tempo": 120.0
            },
            {
                "start_time": 27.4681818,
                "end_time": 27.6954545,
                "pitch": 41,
                "velocity": 40,
                "duration": 0.2272727,
                "tempo": 120.0
            },
            {
                "start_time": 27.7113636,
                "end_time": 27.8,
                "pitch": 41,
                "velocity": 40,
                "duration": 0.0886364,
                "tempo": 120.0
            },
            {
                "start_time": 27.8522727,
                "end_time": 27.9386364,
                "pitch": 41,
                "velocity": 40,
                "duration": 0.0863636,
                "tempo": 120.0
            },
            {
                "start_time": 27.9568182,
                "end_time": 28.0727273,
                "pitch": 53,
                "velocity": 40,
                "duration": 0.1159091,
                "tempo": 120.0
            },
            {
                "start_time": 28.0909091,
                "end_time": 28.1727273,
                "pitch": 41,
                "velocity": 40,
                "duration": 0.0818182,
                "tempo": 120.0
            },
            {
                "start_time": 28.325,
                "end_time": 28.4090909,
                "pitch": 41,
                "velocity": 40,
                "duration": 0.0840909,
                "tempo": 120.0
            },
            {
                "start_time": 28.4590909,
                "end_time": 28.6909091,
                "pitch": 41,
                "velocity": 40,
                "duration": 0.2318182,
                "tempo": 120.0
            },
            {
                "start_time": 28.7068182,
                "end_time": 28.7954545,
                "pitch": 41,
                "velocity": 40,
                "duration": 0.0886364,
                "tempo": 120.0
            },
            {
                "start_time": 28.8136364,
                "end_time": 28.9363636,
                "pitch": 41,
                "velocity": 40,
                "duration": 0.1227273,
                "tempo": 120.0
            },
            {
                "start_time": 28.9545455,
                "end_time": 29.0363636,
                "pitch": 51,
                "velocity": 40,
                "duration": 0.0818182,
                "tempo": 120.0
            },
            {
                "start_time": 29.0840909,
                "end_time": 29.1659091,
                "pitch": 41,
                "velocity": 40,
                "duration": 0.0818182,
                "tempo": 120.0
            },
            {
                "start_time": 29.3136364,
                "end_time": 29.3954545,
                "pitch": 41,
                "velocity": 40,
                "duration": 0.0818182,
                "tempo": 120.0
            },
            {
                "start_time": 29.4113636,
                "end_time": 29.6363636,
                "pitch": 41,
                "velocity": 40,
                "duration": 0.225,
                "tempo": 120.0
            },
            {
                "start_time": 29.6863636,
                "end_time": 29.7727273,
                "pitch": 41,
                "velocity": 40,
                "duration": 0.0863636,
                "tempo": 120.0
            },
            {
                "start_time": 29.7909091,
                "end_time": 29.9090909,
                "pitch": 41,
                "velocity": 40,
                "duration": 0.1181818,
                "tempo": 120.0
            },
            {
                "start_time": 29.9272727,
                "end_time": 30.0136364,
                "pitch": 53,
                "velocity": 40,
                "duration": 0.0863636,
                "tempo": 120.0
            },
            {
                "start_time": 30.0318182,
                "end_time": 30.1545455,
                "pitch": 41,
                "velocity": 40,
                "duration": 0.1227273,
                "tempo": 120.0
            },
            {
                "start_time": 30.3113636,
                "end_time": 30.5318182,
                "pitch": 41,
                "velocity": 40,
                "duration": 0.2204545,
                "tempo": 120.0
            },
            {
                "start_time": 30.55,
                "end_time": 30.6318182,
                "pitch": 51,
                "velocity": 40,
                "duration": 0.0818182,
                "tempo": 120.0
            },
            {
                "start_time": 30.65,
                "end_time": 30.7659091,
                "pitch": 41,
                "velocity": 40,
                "duration": 0.1159091,
                "tempo": 120.0
            },
            {
                "start_time": 30.7840909,
                "end_time": 30.8681818,
                "pitch": 41,
                "velocity": 40,
                "duration": 0.0840909,
                "tempo": 120.0
            },
            {
                "start_time": 30.9181818,
                "end_time": 31.0068182,
                "pitch": 48,
                "velocity": 40,
                "duration": 0.0886364,
                "tempo": 120.0
            },
            {
                "start_time": 31.025,
                "end_time": 31.15,
                "pitch": 41,
                "velocity": 40,
                "duration": 0.125,
                "tempo": 120.0
            },
            {
                "start_time": 31.1659091,
                "end_time": 31.2545455,
                "pitch": 39,
                "velocity": 40,
                "duration": 0.0886364,
                "tempo": 120.0
            },
            {
                "start_time": 31.2727273,
                "end_time": 31.3977273,
                "pitch": 41,
                "velocity": 40,
                "duration": 0.125,
                "tempo": 120.0
            },
            {
                "start_time": 31.4136364,
                "end_time": 31.6318182,
                "pitch": 41,
                "velocity": 40,
                "duration": 0.2181818,
                "tempo": 120.0
            },
            {
                "start_time": 31.6477273,
                "end_time": 31.7659091,
                "pitch": 41,
                "velocity": 40,
                "duration": 0.1181818,
                "tempo": 120.0
            },
            {
                "start_time": 31.7818182,
                "end_time": 31.8659091,
                "pitch": 41,
                "velocity": 40,
                "duration": 0.0840909,
                "tempo": 120.0
            },
            {
                "start_time": 31.8840909,
                "end_time": 32.0,
                "pitch": 53,
                "velocity": 40,
                "duration": 0.1159091,
                "tempo": 120.0
            },
            {
                "start_time": 32.0181818,
                "end_time": 32.1,
                "pitch": 41,
                "velocity": 40,
                "duration": 0.0818182,
                "tempo": 120.0
            },
            {
                "start_time": 32.2522727,
                "end_time": 32.3681818,
                "pitch": 41,
                "velocity": 40,
                "duration": 0.1159091,
                "tempo": 120.0
            },
            {
                "start_time": 32.3863636,
                "end_time": 32.6136364,
                "pitch": 41,
                "velocity": 40,
                "duration": 0.2272727,
                "tempo": 120.0
            },
            {
                "start_time": 32.6295455,
                "end_time": 32.7181818,
                "pitch": 41,
                "velocity": 40,
                "duration": 0.0886364,
                "tempo": 120.0
            },
            {
                "start_time": 32.7704545,
                "end_time": 32.8568182,
                "pitch": 41,
                "velocity": 40,
                "duration": 0.0863636,
                "tempo": 120.0
            },
            {
                "start_time": 32.875,
                "end_time": 32.9909091,
                "pitch": 51,
                "velocity": 40,
                "duration": 0.1159091,
                "tempo": 120.0
            },
            {
                "start_time": 33.0090909,
                "end_time": 33.0909091,
                "pitch": 41,
                "velocity": 40,
                "duration": 0.0818182,
                "tempo": 120.0
            },
            {
                "start_time": 33.2431818,
                "end_time": 33.3272727,
                "pitch": 41,
                "velocity": 40,
                "duration": 0.0840909,
                "tempo": 120.0
            },
            {
                "start_time": 33.3772727,
                "end_time": 33.6090909,
                "pitch": 41,
                "velocity": 40,
                "duration": 0.2318182,
                "tempo": 120.0
            },
            {
                "start_time": 33.625,
                "end_time": 33.7136364,
                "pitch": 41,
                "velocity": 40,
                "duration": 0.0886364,
                "tempo": 120.0
            },
            {
                "start_time": 33.7318182,
                "end_time": 33.8568182,
                "pitch": 41,
                "velocity": 40,
                "duration": 0.125,
                "tempo": 120.0
            },
            {
                "start_time": 33.8727273,
                "end_time": 33.9568182,
                "pitch": 63,
                "velocity": 40,
                "duration": 0.0840909,
                "tempo": 120.0
            },
            {
                "start_time": 34.0068182,
                "end_time": 34.0909091,
                "pitch": 65,
                "velocity": 40,
                "duration": 0.0840909,
                "tempo": 120.0
            },
            {
                "start_time": 34.1068182,
                "end_time": 34.225,
                "pitch": 41,
                "velocity": 40,
                "duration": 0.1181818,
                "tempo": 120.0
            },
            {
                "start_time": 34.2409091,
                "end_time": 34.325,
                "pitch": 41,
                "velocity": 40,
                "duration": 0.0840909,
                "tempo": 120.0
            },
            {
                "start_time": 34.3431818,
                "end_time": 34.4590909,
                "pitch": 61,
                "velocity": 40,
                "duration": 0.1159091,
                "tempo": 120.0
            },
            {
                "start_time": 34.4772727,
                "end_time": 34.5590909,
                "pitch": 63,
                "velocity": 40,
                "duration": 0.0818182,
                "tempo": 120.0
            },
            {
                "start_time": 34.6090909,
                "end_time": 34.6931818,
                "pitch": 41,
                "velocity": 40,
                "duration": 0.0840909,
                "tempo": 120.0
            },
            {
                "start_time": 34.7113636,
                "end_time": 34.8272727,
                "pitch": 41,
                "velocity": 40,
                "duration": 0.1159091,
                "tempo": 120.0
            },
            {
                "start_time": 34.8454545,
                "end_time": 34.9340909,
                "pitch": 60,
                "velocity": 40,
                "duration": 0.0886364,
                "tempo": 120.0
            },
            {
                "start_time": 34.9522727,
                "end_time": 35.075,
                "pitch": 61,
                "velocity": 40,
                "duration": 0.1227273,
                "tempo": 120.0
            },
            {
                "start_time": 35.0931818,
                "end_time": 35.325,
                "pitch": 39,
                "velocity": 40,
                "duration": 0.2318182,
                "tempo": 120.0
            },
            {
                "start_time": 35.3409091,
                "end_time": 35.5522727,
                "pitch": 41,
                "velocity": 40,
                "duration": 0.2113636,
                "tempo": 120.0
            },
            {
                "start_time": 35.5704545,
                "end_time": 35.6840909,
                "pitch": 41,
                "velocity": 40,
                "duration": 0.1136364,
                "tempo": 120.0
            },
            {
                "start_time": 35.7,
                "end_time": 35.7818182,
                "pitch": 41,
                "velocity": 40,
                "duration": 0.0818182,
                "tempo": 120.0
            },
            {
                "start_time": 35.8318182,
                "end_time": 35.9204545,
                "pitch": 53,
                "velocity": 40,
                "duration": 0.0886364,
                "tempo": 120.0
            },
            {
                "start_time": 35.9386364,
                "end_time": 36.0636364,
                "pitch": 41,
                "velocity": 40,
                "duration": 0.125,
                "tempo": 120.0
            },
            {
                "start_time": 36.1863636,
                "end_time": 36.3113636,
                "pitch": 41,
                "velocity": 40,
                "duration": 0.125,
                "tempo": 120.0
            },
            {
                "start_time": 36.3272727,
                "end_time": 36.5454545,
                "pitch": 41,
                "velocity": 40,
                "duration": 0.2181818,
                "tempo": 120.0
            },
            {
                "start_time": 36.5636364,
                "end_time": 36.6795455,
                "pitch": 41,
                "velocity": 40,
                "duration": 0.1159091,
                "tempo": 120.0
            },
            {
                "start_time": 36.6977273,
                "end_time": 36.7795455,
                "pitch": 41,
                "velocity": 40,
                "duration": 0.0818182,
                "tempo": 120.0
            },
            {
                "start_time": 36.7977273,
                "end_time": 36.9136364,
                "pitch": 51,
                "velocity": 40,
                "duration": 0.1159091,
                "tempo": 120.0
            },
            {
                "start_time": 36.9318182,
                "end_time": 37.0159091,
                "pitch": 41,
                "velocity": 40,
                "duration": 0.0840909,
                "tempo": 120.0
            },
            {
                "start_time": 37.1659091,
                "end_time": 37.2840909,
                "pitch": 41,
                "velocity": 40,
                "duration": 0.1181818,
                "tempo": 120.0
            },
            {
                "start_time": 37.3,
                "end_time": 37.5272727,
                "pitch": 41,
                "velocity": 40,
                "duration": 0.2272727,
                "tempo": 120.0
            },
            {
                "start_time": 37.5454545,
                "end_time": 37.6318182,
                "pitch": 41,
                "velocity": 40,
                "duration": 0.0863636,
                "tempo": 120.0
            },
            {
                "start_time": 37.6840909,
                "end_time": 37.7704545,
                "pitch": 41,
                "velocity": 40,
                "duration": 0.0863636,
                "tempo": 120.0
            },
            {
                "start_time": 37.7886364,
                "end_time": 37.9045455,
                "pitch": 53,
                "velocity": 40,
                "duration": 0.1159091,
                "tempo": 120.0
            },
            {
                "start_time": 37.9227273,
                "end_time": 38.0068182,
                "pitch": 41,
                "velocity": 40,
                "duration": 0.0840909,
                "tempo": 120.0
            },
            {
                "start_time": 38.1568182,
                "end_time": 38.3795455,
                "pitch": 41,
                "velocity": 40,
                "duration": 0.2227273,
                "tempo": 120.0
            },
            {
                "start_time": 38.3977273,
                "end_time": 38.5227273,
                "pitch": 51,
                "velocity": 40,
                "duration": 0.125,
                "tempo": 120.0
            },
            {
                "start_time": 38.5409091,
                "end_time": 38.6295455,
                "pitch": 41,
                "velocity": 40,
                "duration": 0.0886364,
                "tempo": 120.0
            },
            {
                "start_time": 38.6454545,
                "end_time": 38.7704545,
                "pitch": 41,
                "velocity": 40,
                "duration": 0.125,
                "tempo": 120.0
            },
            {
                "start_time": 38.7863636,
                "end_time": 38.8681818,
                "pitch": 48,
                "velocity": 40,
                "duration": 0.0818182,
                "tempo": 120.0
            },
            {
                "start_time": 38.9159091,
                "end_time": 38.9977273,
                "pitch": 41,
                "velocity": 40,
                "duration": 0.0818182,
                "tempo": 120.0
            },
            {
                "start_time": 39.0159091,
                "end_time": 39.1295455,
                "pitch": 39,
                "velocity": 40,
                "duration": 0.1136364,
                "tempo": 120.0
            },
            {
                "start_time": 39.1454545,
                "end_time": 39.2272727,
                "pitch": 41,
                "velocity": 40,
                "duration": 0.0818182,
                "tempo": 120.0
            },
            {
                "start_time": 39.2454545,
                "end_time": 39.4681818,
                "pitch": 41,
                "velocity": 40,
                "duration": 0.2227273,
                "tempo": 120.0
            },
            {
                "start_time": 39.5181818,
                "end_time": 39.6045455,
                "pitch": 41,
                "velocity": 40,
                "duration": 0.0863636,
                "tempo": 120.0
            },
            {
                "start_time": 39.6227273,
                "end_time": 39.7431818,
                "pitch": 41,
                "velocity": 40,
                "duration": 0.1204545,
                "tempo": 120.0
            },
            {
                "start_time": 39.7590909,
                "end_time": 39.8477273,
                "pitch": 53,
                "velocity": 40,
                "duration": 0.0886364,
                "tempo": 120.0
            },
            {
                "start_time": 39.8636364,
                "end_time": 39.9863636,
                "pitch": 41,
                "velocity": 40,
                "duration": 0.1227273,
                "tempo": 120.0
            },
            {
                "start_time": 40.1431818,
                "end_time": 40.2295455,
                "pitch": 41,
                "velocity": 40,
                "duration": 0.0863636,
                "tempo": 120.0
            },
            {
                "start_time": 40.2477273,
                "end_time": 40.4659091,
                "pitch": 41,
                "velocity": 40,
                "duration": 0.2181818,
                "tempo": 120.0
            },
            {
                "start_time": 40.4818182,
                "end_time": 40.6,
                "pitch": 41,
                "velocity": 40,
                "duration": 0.1181818,
                "tempo": 120.0
            },
            {
                "start_time": 40.6159091,
                "end_time": 40.7,
                "pitch": 41,
                "velocity": 40,
                "duration": 0.0840909,
                "tempo": 120.0
            },
            {
                "start_time": 40.75,
                "end_time": 40.8386364,
                "pitch": 51,
                "velocity": 40,
                "duration": 0.0886364,
                "tempo": 120.0
            },
            {
                "start_time": 40.8568182,
                "end_time": 40.9818182,
                "pitch": 41,
                "velocity": 40,
                "duration": 0.125,
                "tempo": 120.0
            },
            {
                "start_time": 41.1045455,
                "end_time": 41.2295455,
                "pitch": 41,
                "velocity": 40,
                "duration": 0.125,
                "tempo": 120.0
            },
            {
                "start_time": 41.2454545,
                "end_time": 41.4636364,
                "pitch": 41,
                "velocity": 40,
                "duration": 0.2181818,
                "tempo": 120.0
            },
            {
                "start_time": 41.4818182,
                "end_time": 41.5977273,
                "pitch": 41,
                "velocity": 40,
                "duration": 0.1159091,
                "tempo": 120.0
            },
            {
                "start_time": 41.6159091,
                "end_time": 41.6977273,
                "pitch": 41,
                "velocity": 40,
                "duration": 0.0818182,
                "tempo": 120.0
            },
            {
                "start_time": 41.7159091,
                "end_time": 41.8318182,
                "pitch": 63,
                "velocity": 40,
                "duration": 0.1159091,
                "tempo": 120.0
            },
            {
                "start_time": 41.85,
                "end_time": 41.9340909,
                "pitch": 65,
                "velocity": 40,
                "duration": 0.0840909,
                "tempo": 120.0
            },
            {
                "start_time": 41.9840909,
                "end_time": 42.0681818,
                "pitch": 41,
                "velocity": 40,
                "duration": 0.0840909,
                "tempo": 120.0
            },
            {
                "start_time": 42.0840909,
                "end_time": 42.2022727,
                "pitch": 41,
                "velocity": 40,
                "duration": 0.1181818,
                "tempo": 120.0
            },
            {
                "start_time": 42.2181818,
                "end_time": 42.3068182,
                "pitch": 61,
                "velocity": 40,
                "duration": 0.0886364,
                "tempo": 120.0
            },
            {
                "start_time": 42.3227273,
                "end_time": 42.4454545,
                "pitch": 63,
                "velocity": 40,
                "duration": 0.1227273,
                "tempo": 120.0
            },
            {
                "start_time": 42.4636364,
                "end_time": 42.55,
                "pitch": 41,
                "velocity": 40,
                "duration": 0.0863636,
                "tempo": 120.0
            },
            {
                "start_time": 42.6022727,
                "end_time": 42.6886364,
                "pitch": 41,
                "velocity": 40,
                "duration": 0.0863636,
                "tempo": 120.0
            },
            {
                "start_time": 42.7068182,
                "end_time": 42.8227273,
                "pitch": 60,
                "velocity": 40,
                "duration": 0.1159091,
                "tempo": 120.0
            },
            {
                "start_time": 42.8409091,
                "end_time": 42.925,
                "pitch": 61,
                "velocity": 40,
                "duration": 0.0840909,
                "tempo": 120.0
            },
            {
                "start_time": 42.9409091,
                "end_time": 43.1590909,
                "pitch": 39,
                "velocity": 40,
                "duration": 0.2181818,
                "tempo": 120.0
            },
            {
                "start_time": 43.2090909,
                "end_time": 43.4409091,
                "pitch": 41,
                "velocity": 40,
                "duration": 0.2318182,
                "tempo": 120.0
            },
            {
                "start_time": 43.4590909,
                "end_time": 43.5477273,
                "pitch": 41,
                "velocity": 40,
                "duration": 0.0886364,
                "tempo": 120.0
            },
            {
                "start_time": 43.5636364,
                "end_time": 43.6886364,
                "pitch": 41,
                "velocity": 40,
                "duration": 0.125,
                "tempo": 120.0
            },
            {
                "start_time": 43.7045455,
                "end_time": 43.7886364,
                "pitch": 53,
                "velocity": 40,
                "duration": 0.0840909,
                "tempo": 120.0
            },
            {
                "start_time": 43.8386364,
                "end_time": 43.9227273,
                "pitch": 41,
                "velocity": 40,
                "duration": 0.0840909,
                "tempo": 120.0
            },
            {
                "start_time": 44.075,
                "end_time": 44.1568182,
                "pitch": 41,
                "velocity": 40,
                "duration": 0.0818182,
                "tempo": 120.0
            },
            {
                "start_time": 44.175,
                "end_time": 44.3931818,
                "pitch": 41,
                "velocity": 40,
                "duration": 0.2181818,
                "tempo": 120.0
            },
            {
                "start_time": 44.4431818,
                "end_time": 44.5272727,
                "pitch": 41,
                "velocity": 40,
                "duration": 0.0840909,
                "tempo": 120.0
            },
            {
                "start_time": 44.5431818,
                "end_time": 44.6613636,
                "pitch": 41,
                "velocity": 40,
                "duration": 0.1181818,
                "tempo": 120.0
            },
            {
                "start_time": 44.6772727,
                "end_time": 44.7659091,
                "pitch": 51,
                "velocity": 40,
                "duration": 0.0886364,
                "tempo": 120.0
            },
            {
                "start_time": 44.7818182,
                "end_time": 44.9045455,
                "pitch": 41,
                "velocity": 40,
                "duration": 0.1227273,
                "tempo": 120.0
            },
            {
                "start_time": 45.0613636,
                "end_time": 45.1477273,
                "pitch": 41,
                "velocity": 40,
                "duration": 0.0863636,
                "tempo": 120.0
            },
            {
                "start_time": 45.1659091,
                "end_time": 45.3840909,
                "pitch": 41,
                "velocity": 40,
                "duration": 0.2181818,
                "tempo": 120.0
            },
            {
                "start_time": 45.4,
                "end_time": 45.5181818,
                "pitch": 41,
                "velocity": 40,
                "duration": 0.1181818,
                "tempo": 120.0
            },
            {
                "start_time": 45.5340909,
                "end_time": 45.6181818,
                "pitch": 41,
                "velocity": 40,
                "duration": 0.0840909,
                "tempo": 120.0
            },
            {
                "start_time": 45.6681818,
                "end_time": 45.7568182,
                "pitch": 53,
                "velocity": 40,
                "duration": 0.0886364,
                "tempo": 120.0
            },
            {
                "start_time": 45.775,
                "end_time": 45.9,
                "pitch": 41,
                "velocity": 40,
                "duration": 0.125,
                "tempo": 120.0
            },
            {
                "start_time": 46.0227273,
                "end_time": 46.2477273,
                "pitch": 41,
                "velocity": 40,
                "duration": 0.225,
                "tempo": 120.0
            },
            {
                "start_time": 46.2977273,
                "end_time": 46.3818182,
                "pitch": 51,
                "velocity": 40,
                "duration": 0.0840909,
                "tempo": 120.0
            },
            {
                "start_time": 46.4,
                "end_time": 46.5159091,
                "pitch": 41,
                "velocity": 40,
                "duration": 0.1159091,
                "tempo": 120.0
            },
            {
                "start_time": 46.5340909,
                "end_time": 46.6159091,
                "pitch": 41,
                "velocity": 40,
                "duration": 0.0818182,
                "tempo": 120.0
            },
            {
                "start_time": 46.6340909,
                "end_time": 46.75,
                "pitch": 48,
                "velocity": 40,
                "duration": 0.1159091,
                "tempo": 120.0
            },
            {
                "start_time": 46.7681818,
                "end_time": 46.8522727,
                "pitch": 41,
                "velocity": 40,
                "duration": 0.0840909,
                "tempo": 120.0
            },
            {
                "start_time": 46.9022727,
                "end_time": 46.9863636,
                "pitch": 39,
                "velocity": 40,
                "duration": 0.0840909,
                "tempo": 120.0
            },
            {
                "start_time": 47.0022727,
                "end_time": 47.1204545,
                "pitch": 41,
                "velocity": 40,
                "duration": 0.1181818,
                "tempo": 120.0
            },
            {
                "start_time": 47.1363636,
                "end_time": 47.3636364,
                "pitch": 41,
                "velocity": 40,
                "duration": 0.2272727,
                "tempo": 120.0
            },
            {
                "start_time": 47.3818182,
                "end_time": 47.4681818,
                "pitch": 41,
                "velocity": 40,
                "duration": 0.0863636,
                "tempo": 120.0
            },
            {
                "start_time": 47.5204545,
                "end_time": 47.6068182,
                "pitch": 41,
                "velocity": 40,
                "duration": 0.0863636,
                "tempo": 120.0
            },
            {
                "start_time": 47.625,
                "end_time": 47.7409091,
                "pitch": 53,
                "velocity": 40,
                "duration": 0.1159091,
                "tempo": 120.0
            },
            {
                "start_time": 47.7590909,
                "end_time": 47.8431818,
                "pitch": 41,
                "velocity": 40,
                "duration": 0.0840909,
                "tempo": 120.0
            },
            {
                "start_time": 47.9931818,
                "end_time": 48.0772727,
                "pitch": 41,
                "velocity": 40,
                "duration": 0.0840909,
                "tempo": 120.0
            },
            {
                "start_time": 48.1272727,
                "end_time": 48.3590909,
                "pitch": 41,
                "velocity": 40,
                "duration": 0.2318182,
                "tempo": 120.0
            },
            {
                "start_time": 48.3772727,
                "end_time": 48.4659091,
                "pitch": 41,
                "velocity": 40,
                "duration": 0.0886364,
                "tempo": 120.0
            },
            {
                "start_time": 48.4818182,
                "end_time": 48.6068182,
                "pitch": 41,
                "velocity": 40,
                "duration": 0.125,
                "tempo": 120.0
            },
            {
                "start_time": 48.6227273,
                "end_time": 48.7045455,
                "pitch": 51,
                "velocity": 40,
                "duration": 0.0818182,
                "tempo": 120.0
            },
            {
                "start_time": 48.7522727,
                "end_time": 48.8340909,
                "pitch": 41,
                "velocity": 40,
                "duration": 0.0818182,
                "tempo": 120.0
            },
            {
                "start_time": 48.9818182,
                "end_time": 49.0636364,
                "pitch": 41,
                "velocity": 40,
                "duration": 0.0818182,
                "tempo": 120.0
            },
            {
                "start_time": 49.0818182,
                "end_time": 49.3045455,
                "pitch": 41,
                "velocity": 40,
                "duration": 0.2227273,
                "tempo": 120.0
            },
            {
                "start_time": 49.3545455,
                "end_time": 49.4409091,
                "pitch": 41,
                "velocity": 40,
                "duration": 0.0863636,
                "tempo": 120.0
            },
            {
                "start_time": 49.4590909,
                "end_time": 49.5795455,
                "pitch": 41,
                "velocity": 40,
                "duration": 0.1204545,
                "tempo": 120.0
            },
            {
                "start_time": 49.5954545,
                "end_time": 49.6840909,
                "pitch": 63,
                "velocity": 40,
                "duration": 0.0886364,
                "tempo": 120.0
            },
            {
                "start_time": 49.7,
                "end_time": 49.8227273,
                "pitch": 65,
                "velocity": 40,
                "duration": 0.1227273,
                "tempo": 120.0
            },
            {
                "start_time": 49.8409091,
                "end_time": 49.9272727,
                "pitch": 41,
                "velocity": 40,
                "duration": 0.0863636,
                "tempo": 120.0
            },
            {
                "start_time": 49.9795455,
                "end_time": 50.0659091,
                "pitch": 41,
                "velocity": 40,
                "duration": 0.0863636,
                "tempo": 120.0
            },
            {
                "start_time": 50.0840909,
                "end_time": 50.2,
                "pitch": 61,
                "velocity": 40,
                "duration": 0.1159091,
                "tempo": 120.0
            },
            {
                "start_time": 50.2181818,
                "end_time": 50.3022727,
                "pitch": 63,
                "velocity": 40,
                "duration": 0.0840909,
                "tempo": 120.0
            },
            {
                "start_time": 50.3181818,
                "end_time": 50.4363636,
                "pitch": 41,
                "velocity": 40,
                "duration": 0.1181818,
                "tempo": 120.0
            },
            {
                "start_time": 50.4522727,
                "end_time": 50.5363636,
                "pitch": 41,
                "velocity": 40,
                "duration": 0.0840909,
                "tempo": 120.0
            },
            {
                "start_time": 50.5863636,
                "end_time": 50.675,
                "pitch": 60,
                "velocity": 40,
                "duration": 0.0886364,
                "tempo": 120.0
            },
            {
                "start_time": 50.6931818,
                "end_time": 50.8181818,
                "pitch": 61,
                "velocity": 40,
                "duration": 0.125,
                "tempo": 120.0
            },
            {
                "start_time": 50.8363636,
                "end_time": 51.0659091,
                "pitch": 39,
                "velocity": 40,
                "duration": 0.2295455,
                "tempo": 120.0
            },
            {
                "start_time": 51.0818182,
                "end_time": 53.9931818,
                "pitch": 41,
                "velocity": 40,
                "duration": 2.9113636,
                "tempo": 120.0
            },
            {
                "start_time": 54.5136364,
                "end_time": 54.8454545,
                "pitch": 39,
                "velocity": 51,
                "duration": 0.3318182,
                "tempo": 120.0
            },
            {
                "start_time": 54.8977273,
                "end_time": 57.9090909,
                "pitch": 41,
                "velocity": 51,
                "duration": 3.0113636,
                "tempo": 120.0
            },
            {
                "start_time": 58.4545455,
                "end_time": 58.7977273,
                "pitch": 32,
                "velocity": 51,
                "duration": 0.3431818,
                "tempo": 120.0
            },
            {
                "start_time": 58.8159091,
                "end_time": 61.8659091,
                "pitch": 34,
                "velocity": 51,
                "duration": 3.05,
                "tempo": 120.0
            },
            {
                "start_time": 62.3727273,
                "end_time": 62.7227273,
                "pitch": 32,
                "velocity": 51,
                "duration": 0.35,
                "tempo": 120.0
            },
            {
                "start_time": 62.7409091,
                "end_time": 65.8136364,
                "pitch": 34,
                "velocity": 51,
                "duration": 3.0727273,
                "tempo": 120.0
            },
            {
                "start_time": 66.2886364,
                "end_time": 66.6477273,
                "pitch": 39,
                "velocity": 51,
                "duration": 0.3590909,
                "tempo": 120.0
            },
            {
                "start_time": 66.6659091,
                "end_time": 69.7295455,
                "pitch": 41,
                "velocity": 51,
                "duration": 3.0636364,
                "tempo": 120.0
            },
            {
                "start_time": 70.25,
                "end_time": 70.5795455,
                "pitch": 39,
                "velocity": 51,
                "duration": 0.3295455,
                "tempo": 120.0
            },
            {
                "start_time": 70.5977273,
                "end_time": 73.6590909,
                "pitch": 41,
                "velocity": 51,
                "duration": 3.0613636,
                "tempo": 120.0
            },
            {
                "start_time": 74.1795455,
                "end_time": 74.5113636,
                "pitch": 32,
                "velocity": 51,
                "duration": 0.3318182,
                "tempo": 120.0
            },
            {
                "start_time": 74.5636364,
                "end_time": 77.5795455,
                "pitch": 34,
                "velocity": 51,
                "duration": 3.0159091,
                "tempo": 120.0
            },
            {
                "start_time": 78.125,
                "end_time": 78.4681818,
                "pitch": 32,
                "velocity": 51,
                "duration": 0.3431818,
                "tempo": 120.0
            },
            {
                "start_time": 78.4840909,
                "end_time": 81.5409091,
                "pitch": 34,
                "velocity": 51,
                "duration": 3.0568182,
                "tempo": 120.0
            },
            {
                "start_time": 82.0454545,
                "end_time": 82.3977273,
                "pitch": 34,
                "velocity": 51,
                "duration": 0.3522727,
                "tempo": 120.0
            },
            {
                "start_time": 82.4136364,
                "end_time": 82.775,
                "pitch": 48,
                "velocity": 51,
                "duration": 0.3613636,
                "tempo": 120.0
            },
            {
                "start_time": 82.7931818,
                "end_time": 82.8795455,
                "pitch": 48,
                "velocity": 51,
                "duration": 0.0863636,
                "tempo": 120.0
            },
            {
                "start_time": 82.8977273,
                "end_time": 83.0204545,
                "pitch": 48,
                "velocity": 51,
                "duration": 0.1227273,
                "tempo": 120.0
            },
            {
                "start_time": 83.0363636,
                "end_time": 83.1227273,
                "pitch": 60,
                "velocity": 51,
                "duration": 0.0863636,
                "tempo": 120.0
            },
            {
                "start_time": 83.175,
                "end_time": 83.2590909,
                "pitch": 48,
                "velocity": 51,
                "duration": 0.0840909,
                "tempo": 120.0
            },
            {
                "start_time": 83.4136364,
                "end_time": 83.5,
                "pitch": 48,
                "velocity": 51,
                "duration": 0.0863636,
                "tempo": 120.0
            },
            {
                "start_time": 83.5159091,
                "end_time": 83.6340909,
                "pitch": 48,
                "velocity": 51,
                "duration": 0.1181818,
                "tempo": 120.0
            },
            {
                "start_time": 83.65,
                "end_time": 83.7340909,
                "pitch": 48,
                "velocity": 51,
                "duration": 0.0840909,
                "tempo": 120.0
            },
            {
                "start_time": 83.7840909,
                "end_time": 83.8681818,
                "pitch": 48,
                "velocity": 51,
                "duration": 0.0840909,
                "tempo": 120.0
            },
            {
                "start_time": 83.8863636,
                "end_time": 84.0022727,
                "pitch": 48,
                "velocity": 51,
                "duration": 0.1159091,
                "tempo": 120.0
            },
            {
                "start_time": 84.0204545,
                "end_time": 84.1068182,
                "pitch": 60,
                "velocity": 51,
                "duration": 0.0863636,
                "tempo": 120.0
            },
            {
                "start_time": 84.125,
                "end_time": 84.2477273,
                "pitch": 48,
                "velocity": 51,
                "duration": 0.1227273,
                "tempo": 120.0
            },
            {
                "start_time": 84.4045455,
                "end_time": 84.4909091,
                "pitch": 48,
                "velocity": 51,
                "duration": 0.0863636,
                "tempo": 120.0
            },
            {
                "start_time": 84.5068182,
                "end_time": 84.725,
                "pitch": 46,
                "velocity": 51,
                "duration": 0.2181818,
                "tempo": 120.0
            },
            {
                "start_time": 84.7431818,
                "end_time": 84.8590909,
                "pitch": 46,
                "velocity": 51,
                "duration": 0.1159091,
                "tempo": 120.0
            },
            {
                "start_time": 84.8772727,
                "end_time": 84.9590909,
                "pitch": 46,
                "velocity": 51,
                "duration": 0.0818182,
                "tempo": 120.0
            },
            {
                "start_time": 85.0113636,
                "end_time": 85.0977273,
                "pitch": 58,
                "velocity": 51,
                "duration": 0.0863636,
                "tempo": 120.0
            },
            {
                "start_time": 85.1159091,
                "end_time": 85.2386364,
                "pitch": 46,
                "velocity": 51,
                "duration": 0.1227273,
                "tempo": 120.0
            },
            {
                "start_time": 85.3590909,
                "end_time": 85.4818182,
                "pitch": 46,
                "velocity": 51,
                "duration": 0.1227273,
                "tempo": 120.0
            },
            {
                "start_time": 85.4977273,
                "end_time": 85.5818182,
                "pitch": 44,
                "velocity": 51,
                "duration": 0.0840909,
                "tempo": 120.0
            },
            {
                "start_time": 85.6318182,
                "end_time": 85.7159091,
                "pitch": 56,
                "velocity": 51,
                "duration": 0.0840909,
                "tempo": 120.0
            },
            {
                "start_time": 85.7340909,
                "end_time": 85.85,
                "pitch": 44,
                "velocity": 51,
                "duration": 0.1159091,
                "tempo": 120.0
            },
            {
                "start_time": 85.8681818,
                "end_time": 85.95,
                "pitch": 44,
                "velocity": 51,
                "duration": 0.0818182,
                "tempo": 120.0
            },
            {
                "start_time": 85.9681818,
                "end_time": 86.0840909,
                "pitch": 56,
                "velocity": 51,
                "duration": 0.1159091,
                "tempo": 120.0
            },
            {
                "start_time": 86.1022727,
                "end_time": 86.1863636,
                "pitch": 44,
                "velocity": 51,
                "duration": 0.0840909,
                "tempo": 120.0
            },
            {
                "start_time": 86.3363636,
                "end_time": 86.4545455,
                "pitch": 44,
                "velocity": 51,
                "duration": 0.1181818,
                "tempo": 120.0
            },
            {
                "start_time": 86.4704545,
                "end_time": 86.7022727,
                "pitch": 41,
                "velocity": 51,
                "duration": 0.2318182,
                "tempo": 120.0
            },
            {
                "start_time": 86.7204545,
                "end_time": 86.8090909,
                "pitch": 41,
                "velocity": 51,
                "duration": 0.0886364,
                "tempo": 120.0
            },
            {
                "start_time": 86.8613636,
                "end_time": 86.95,
                "pitch": 41,
                "velocity": 51,
                "duration": 0.0886364,
                "tempo": 120.0
            },
            {
                "start_time": 86.9659091,
                "end_time": 87.0840909,
                "pitch": 44,
                "velocity": 51,
                "duration": 0.1181818,
                "tempo": 120.0
            },
            {
                "start_time": 87.1,
                "end_time": 87.1840909,
                "pitch": 41,
                "velocity": 51,
                "duration": 0.0840909,
                "tempo": 120.0
            },
            {
                "start_time": 87.3363636,
                "end_time": 87.4181818,
                "pitch": 41,
                "velocity": 51,
                "duration": 0.0818182,
                "tempo": 120.0
            },
            {
                "start_time": 87.4704545,
                "end_time": 87.5568182,
                "pitch": 41,
                "velocity": 51,
                "duration": 0.0863636,
                "tempo": 120.0
            },
            {
                "start_time": 87.575,
                "end_time": 87.6977273,
                "pitch": 61,
                "velocity": 51,
                "duration": 0.1227273,
                "tempo": 120.0
            },
            {
                "start_time": 87.7136364,
                "end_time": 87.8022727,
                "pitch": 41,
                "velocity": 51,
                "duration": 0.0886364,
                "tempo": 120.0
            },
            {
                "start_time": 87.8181818,
                "end_time": 87.9409091,
                "pitch": 41,
                "velocity": 51,
                "duration": 0.1227273,
                "tempo": 120.0
            },
            {
                "start_time": 87.9568182,
                "end_time": 88.0409091,
                "pitch": 46,
                "velocity": 51,
                "duration": 0.0840909,
                "tempo": 120.0
            },
            {
                "start_time": 88.0909091,
                "end_time": 88.175,
                "pitch": 41,
                "velocity": 51,
                "duration": 0.0840909,
                "tempo": 120.0
            },
            {
                "start_time": 88.3272727,
                "end_time": 88.4090909,
                "pitch": 41,
                "velocity": 51,
                "duration": 0.0818182,
                "tempo": 120.0
            },
            {
                "start_time": 88.4272727,
                "end_time": 88.65,
                "pitch": 41,
                "velocity": 51,
                "duration": 0.2227273,
                "tempo": 120.0
            },
            {
                "start_time": 88.7022727,
                "end_time": 88.7863636,
                "pitch": 41,
                "velocity": 51,
                "duration": 0.0840909,
                "tempo": 120.0
            },
            {
                "start_time": 88.8045455,
                "end_time": 88.925,
                "pitch": 41,
                "velocity": 51,
                "duration": 0.1204545,
                "tempo": 120.0
            },
            {
                "start_time": 88.9409091,
                "end_time": 89.0295455,
                "pitch": 48,
                "velocity": 51,
                "duration": 0.0886364,
                "tempo": 120.0
            },
            {
                "start_time": 89.0477273,
                "end_time": 89.1681818,
                "pitch": 41,
                "velocity": 51,
                "duration": 0.1204545,
                "tempo": 120.0
            },
            {
                "start_time": 89.325,
                "end_time": 89.4136364,
                "pitch": 41,
                "velocity": 51,
                "duration": 0.0886364,
                "tempo": 120.0
            },
            {
                "start_time": 89.5636364,
                "end_time": 89.6477273,
                "pitch": 41,
                "velocity": 51,
                "duration": 0.0840909,
                "tempo": 120.0
            },
            {
                "start_time": 89.6636364,
                "end_time": 89.7818182,
                "pitch": 41,
                "velocity": 51,
                "duration": 0.1181818,
                "tempo": 120.0
            },
            {
                "start_time": 89.7977273,
                "end_time": 89.8818182,
                "pitch": 41,
                "velocity": 51,
                "duration": 0.0840909,
                "tempo": 120.0
            },
            {
                "start_time": 89.9340909,
                "end_time": 90.0204545,
                "pitch": 51,
                "velocity": 51,
                "duration": 0.0863636,
                "tempo": 120.0
            },
            {
                "start_time": 90.0386364,
                "end_time": 90.4045455,
                "pitch": 53,
                "velocity": 51,
                "duration": 0.3659091,
                "tempo": 120.0
            },
            {
                "start_time": 90.4204545,
                "end_time": 90.6386364,
                "pitch": 48,
                "velocity": 51,
                "duration": 0.2181818,
                "tempo": 120.0
            },
            {
                "start_time": 90.6545455,
                "end_time": 90.7727273,
                "pitch": 48,
                "velocity": 51,
                "duration": 0.1181818,
                "tempo": 120.0
            },
            {
                "start_time": 90.7886364,
                "end_time": 90.8727273,
                "pitch": 48,
                "velocity": 51,
                "duration": 0.0840909,
                "tempo": 120.0
            },
            {
                "start_time": 90.8886364,
                "end_time": 91.0068182,
                "pitch": 60,
                "velocity": 51,
                "duration": 0.1181818,
                "tempo": 120.0
            },
            {
                "start_time": 91.0227273,
                "end_time": 91.1068182,
                "pitch": 48,
                "velocity": 51,
                "duration": 0.0840909,
                "tempo": 120.0
            },
            {
                "start_time": 91.2590909,
                "end_time": 91.375,
                "pitch": 48,
                "velocity": 51,
                "duration": 0.1159091,
                "tempo": 120.0
            },
            {
                "start_time": 91.3931818,
                "end_time": 91.4818182,
                "pitch": 48,
                "velocity": 51,
                "duration": 0.0886364,
                "tempo": 120.0
            },
            {
                "start_time": 91.5,
                "end_time": 91.6227273,
                "pitch": 48,
                "velocity": 51,
                "duration": 0.1227273,
                "tempo": 120.0
            },
            {
                "start_time": 91.6409091,
                "end_time": 91.7295455,
                "pitch": 48,
                "velocity": 51,
                "duration": 0.0886364,
                "tempo": 120.0
            },
            {
                "start_time": 91.7840909,
                "end_time": 91.8727273,
                "pitch": 48,
                "velocity": 51,
                "duration": 0.0886364,
                "tempo": 120.0
            },
            {
                "start_time": 91.8886364,
                "end_time": 92.0068182,
                "pitch": 60,
                "velocity": 51,
                "duration": 0.1181818,
                "tempo": 120.0
            },
            {
                "start_time": 92.0227273,
                "end_time": 92.1068182,
                "pitch": 48,
                "velocity": 51,
                "duration": 0.0840909,
                "tempo": 120.0
            },
            {
                "start_time": 92.2568182,
                "end_time": 92.3409091,
                "pitch": 48,
                "velocity": 51,
                "duration": 0.0840909,
                "tempo": 120.0
            },
            {
                "start_time": 92.3931818,
                "end_time": 92.6181818,
                "pitch": 46,
                "velocity": 51,
                "duration": 0.225,
                "tempo": 120.0
            },
            {
                "start_time": 92.6363636,
                "end_time": 92.7227273,
                "pitch": 46,
                "velocity": 51,
                "duration": 0.0863636,
                "tempo": 120.0
            },
            {
                "start_time": 92.7409091,
                "end_time": 92.8636364,
                "pitch": 46,
                "velocity": 51,
                "duration": 0.1227273,
                "tempo": 120.0
            },
            {
                "start_time": 92.8795455,
                "end_time": 92.9659091,
                "pitch": 58,
                "velocity": 51,
                "duration": 0.0863636,
                "tempo": 120.0
            },
            {
                "start_time": 93.0181818,
                "end_time": 93.1022727,
                "pitch": 46,
                "velocity": 51,
                "duration": 0.0840909,
                "tempo": 120.0
            },
            {
                "start_time": 93.2568182,
                "end_time": 93.3431818,
                "pitch": 46,
                "velocity": 51,
                "duration": 0.0863636,
                "tempo": 120.0
            },
            {
                "start_time": 93.3613636,
                "end_time": 93.4772727,
                "pitch": 44,
                "velocity": 51,
                "duration": 0.1159091,
                "tempo": 120.0
            },
            {
                "start_time": 93.4954545,
                "end_time": 93.5772727,
                "pitch": 56,
                "velocity": 51,
                "duration": 0.0818182,
                "tempo": 120.0
            },
            {
                "start_time": 93.6272727,
                "end_time": 93.7113636,
                "pitch": 44,
                "velocity": 51,
                "duration": 0.0840909,
                "tempo": 120.0
            },
            {
                "start_time": 93.7295455,
                "end_time": 93.8454545,
                "pitch": 44,
                "velocity": 51,
                "duration": 0.1159091,
                "tempo": 120.0
            },
            {
                "start_time": 93.8636364,
                "end_time": 93.95,
                "pitch": 56,
                "velocity": 51,
                "duration": 0.0863636,
                "tempo": 120.0
            },
            {
                "start_time": 93.9681818,
                "end_time": 94.0909091,
                "pitch": 44,
                "velocity": 51,
                "duration": 0.1227273,
                "tempo": 120.0
            },
            {
                "start_time": 94.2477273,
                "end_time": 94.3340909,
                "pitch": 44,
                "velocity": 51,
                "duration": 0.0863636,
                "tempo": 120.0
            },
            {
                "start_time": 94.3522727,
                "end_time": 94.5681818,
                "pitch": 41,
                "velocity": 51,
                "duration": 0.2159091,
                "tempo": 120.0
            },
            {
                "start_time": 94.5863636,
                "end_time": 94.7022727,
                "pitch": 41,
                "velocity": 51,
                "duration": 0.1159091,
                "tempo": 120.0
            },
            {
                "start_time": 94.7204545,
                "end_time": 94.8045455,
                "pitch": 41,
                "velocity": 51,
                "duration": 0.0840909,
                "tempo": 120.0
            },
            {
                "start_time": 94.8545455,
                "end_time": 94.9431818,
                "pitch": 44,
                "velocity": 51,
                "duration": 0.0886364,
                "tempo": 120.0
            },
            {
                "start_time": 94.9590909,
                "end_time": 95.0818182,
                "pitch": 41,
                "velocity": 51,
                "duration": 0.1227273,
                "tempo": 120.0
            },
            {
                "start_time": 95.2045455,
                "end_time": 95.325,
                "pitch": 41,
                "velocity": 51,
                "duration": 0.1204545,
                "tempo": 120.0
            },
            {
                "start_time": 95.3431818,
                "end_time": 95.4295455,
                "pitch": 41,
                "velocity": 51,
                "duration": 0.0863636,
                "tempo": 120.0
            },
            {
                "start_time": 95.4795455,
                "end_time": 95.5659091,
                "pitch": 61,
                "velocity": 51,
                "duration": 0.0863636,
                "tempo": 120.0
            },
            {
                "start_time": 95.5840909,
                "end_time": 95.7022727,
                "pitch": 41,
                "velocity": 51,
                "duration": 0.1181818,
                "tempo": 120.0
            },
            {
                "start_time": 95.7204545,
                "end_time": 95.8068182,
                "pitch": 41,
                "velocity": 51,
                "duration": 0.0863636,
                "tempo": 120.0
            },
            {
                "start_time": 95.8227273,
                "end_time": 95.9363636,
                "pitch": 46,
                "velocity": 51,
                "duration": 0.1136364,
                "tempo": 120.0
            },
            {
                "start_time": 95.9522727,
                "end_time": 96.0340909,
                "pitch": 41,
                "velocity": 51,
                "duration": 0.0818182,
                "tempo": 120.0
            },
            {
                "start_time": 96.1818182,
                "end_time": 96.2977273,
                "pitch": 41,
                "velocity": 51,
                "duration": 0.1159091,
                "tempo": 120.0
            },
            {
                "start_time": 96.3159091,
                "end_time": 96.5454545,
                "pitch": 41,
                "velocity": 51,
                "duration": 0.2295455,
                "tempo": 120.0
            },
            {
                "start_time": 96.5636364,
                "end_time": 96.6522727,
                "pitch": 41,
                "velocity": 51,
                "duration": 0.0886364,
                "tempo": 120.0
            },
            {
                "start_time": 96.7045455,
                "end_time": 96.7931818,
                "pitch": 41,
                "velocity": 51,
                "duration": 0.0886364,
                "tempo": 120.0
            },
            {
                "start_time": 96.8113636,
                "end_time": 96.9272727,
                "pitch": 48,
                "velocity": 51,
                "duration": 0.1159091,
                "tempo": 120.0
            },
            {
                "start_time": 96.9431818,
                "end_time": 97.0272727,
                "pitch": 41,
                "velocity": 51,
                "duration": 0.0840909,
                "tempo": 120.0
            },
            {
                "start_time": 97.1795455,
                "end_time": 97.2636364,
                "pitch": 41,
                "velocity": 51,
                "duration": 0.0840909,
                "tempo": 120.0
            },
            {
                "start_time": 97.4181818,
                "end_time": 97.5409091,
                "pitch": 41,
                "velocity": 51,
                "duration": 0.1227273,
                "tempo": 120.0
            },
            {
                "start_time": 97.5590909,
                "end_time": 97.6454545,
                "pitch": 41,
                "velocity": 51,
                "duration": 0.0863636,
                "tempo": 120.0
            },
            {
                "start_time": 97.6636364,
                "end_time": 97.7840909,
                "pitch": 41,
                "velocity": 51,
                "duration": 0.1204545,
                "tempo": 120.0
            },
            {
                "start_time": 97.8022727,
                "end_time": 97.8840909,
                "pitch": 51,
                "velocity": 51,
                "duration": 0.0818182,
                "tempo": 120.0
            },
            {
                "start_time": 97.9340909,
                "end_time": 98.2545455,
                "pitch": 53,
                "velocity": 51,
                "duration": 0.3204545,
                "tempo": 120.0
            },
            {
                "start_time": 98.2704545,
                "end_time": 98.4909091,
                "pitch": 41,
                "velocity": 51,
                "duration": 0.2204545,
                "tempo": 120.0
            },
            {
                "start_time": 98.5431818,
                "end_time": 98.6272727,
                "pitch": 41,
                "velocity": 40,
                "duration": 0.0840909,
                "tempo": 120.0
            },
            {
                "start_time": 98.6454545,
                "end_time": 98.7636364,
                "pitch": 41,
                "velocity": 40,
                "duration": 0.1181818,
                "tempo": 120.0
            },
            {
                "start_time": 98.7818182,
                "end_time": 98.8681818,
                "pitch": 53,
                "velocity": 40,
                "duration": 0.0863636,
                "tempo": 120.0
            },
            {
                "start_time": 98.8863636,
                "end_time": 99.0090909,
                "pitch": 41,
                "velocity": 40,
                "duration": 0.1227273,
                "tempo": 120.0
            },
            {
                "start_time": 99.1659091,
                "end_time": 99.2522727,
                "pitch": 41,
                "velocity": 40,
                "duration": 0.0863636,
                "tempo": 120.0
            },
            {
                "start_time": 99.2681818,
                "end_time": 99.4863636,
                "pitch": 41,
                "velocity": 40,
                "duration": 0.2181818,
                "tempo": 120.0
            },
            {
                "start_time": 99.5045455,
                "end_time": 99.6204545,
                "pitch": 41,
                "velocity": 40,
                "duration": 0.1159091,
                "tempo": 120.0
            },
            {
                "start_time": 99.6386364,
                "end_time": 99.7204545,
                "pitch": 41,
                "velocity": 40,
                "duration": 0.0818182,
                "tempo": 120.0
            },
            {
                "start_time": 99.7727273,
                "end_time": 99.8613636,
                "pitch": 51,
                "velocity": 40,
                "duration": 0.0886364,
                "tempo": 120.0
            },
            {
                "start_time": 99.8795455,
                "end_time": 100.0022727,
                "pitch": 41,
                "velocity": 40,
                "duration": 0.1227273,
                "tempo": 120.0
            },
            {
                "start_time": 100.1272727,
                "end_time": 100.25,
                "pitch": 41,
                "velocity": 40,
                "duration": 0.1227273,
                "tempo": 120.0
            }
        ],
        "Lead 2 (sawtooth)": [
            {
                "start_time": 2.7386364,
                "end_time": 5.8068182,
                "pitch": 66,
                "velocity": 64,
                "duration": 3.0681818,
                "tempo": 120.0
            },
            {
                "start_time": 5.8068182,
                "end_time": 17.6318182,
                "pitch": 0,
                "velocity": 64,
                "duration": 11.825,
                "tempo": 120.0
            }
        ],
        "Clarinet": [
            {
                "start_time": 2.9818182,
                "end_time": 3.0522727,
                "pitch": 66,
                "velocity": 40,
                "duration": 0.0704545,
                "tempo": 120.0
            },
            {
                "start_time": 3.0522727,
                "end_time": 3.1204545,
                "pitch": 63,
                "velocity": 40,
                "duration": 0.0681818,
                "tempo": 120.0
            },
            {
                "start_time": 3.6,
                "end_time": 3.8681818,
                "pitch": 60,
                "velocity": 40,
                "duration": 0.2681818,
                "tempo": 120.0
            }
        ],
        "Church Organ": [
            {
                "start_time": 21.5772727,
                "end_time": 23.4909091,
                "pitch": 67,
                "velocity": 64,
                "duration": 1.9136364,
                "tempo": 120.0
            },
            {
                "start_time": 23.5409091,
                "end_time": 25.2363636,
                "pitch": 65,
                "velocity": 64,
                "duration": 1.6954545,
                "tempo": 120.0
            },
            {
                "start_time": 25.2522727,
                "end_time": 29.3954545,
                "pitch": 75,
                "velocity": 64,
                "duration": 4.1431818,
                "tempo": 120.0
            },
            {
                "start_time": 29.4113636,
                "end_time": 31.3977273,
                "pitch": 67,
                "velocity": 64,
                "duration": 1.9863636,
                "tempo": 120.0
            },
            {
                "start_time": 31.4136364,
                "end_time": 33.0909091,
                "pitch": 65,
                "velocity": 64,
                "duration": 1.6772727,
                "tempo": 120.0
            },
            {
                "start_time": 33.1090909,
                "end_time": 37.2840909,
                "pitch": 75,
                "velocity": 64,
                "duration": 4.175,
                "tempo": 120.0
            },
            {
                "start_time": 37.3,
                "end_time": 39.2272727,
                "pitch": 67,
                "velocity": 64,
                "duration": 1.9272727,
                "tempo": 120.0
            },
            {
                "start_time": 39.2454545,
                "end_time": 40.9818182,
                "pitch": 65,
                "velocity": 64,
                "duration": 1.7363636,
                "tempo": 120.0
            },
            {
                "start_time": 41.0,
                "end_time": 45.1477273,
                "pitch": 75,
                "velocity": 64,
                "duration": 4.1477273,
                "tempo": 120.0
            },
            {
                "start_time": 45.1659091,
                "end_time": 47.1204545,
                "pitch": 67,
                "velocity": 64,
                "duration": 1.9545455,
                "tempo": 120.0
            },
            {
                "start_time": 47.1363636,
                "end_time": 48.8340909,
                "pitch": 65,
                "velocity": 64,
                "duration": 1.6977273,
                "tempo": 120.0
            },
            {
                "start_time": 48.8522727,
                "end_time": 83.3977273,
                "pitch": 75,
                "velocity": 64,
                "duration": 34.5454545,
                "tempo": 120.0
            },
            {
                "start_time": 83.4136364,
                "end_time": 83.5,
                "pitch": 84,
                "velocity": 64,
                "duration": 0.0863636,
                "tempo": 120.0
            },
            {
                "start_time": 83.7840909,
                "end_time": 83.8681818,
                "pitch": 84,
                "velocity": 64,
                "duration": 0.0840909,
                "tempo": 120.0
            },
            {
                "start_time": 83.8863636,
                "end_time": 84.0022727,
                "pitch": 84,
                "velocity": 64,
                "duration": 0.1159091,
                "tempo": 120.0
            },
            {
                "start_time": 84.5068182,
                "end_time": 85.2386364,
                "pitch": 82,
                "velocity": 64,
                "duration": 0.7318182,
                "tempo": 120.0
            },
            {
                "start_time": 85.4977273,
                "end_time": 85.95,
                "pitch": 80,
                "velocity": 64,
                "duration": 0.4522727,
                "tempo": 120.0
            },
            {
                "start_time": 85.9681818,
                "end_time": 86.1863636,
                "pitch": 80,
                "velocity": 64,
                "duration": 0.2181818,
                "tempo": 120.0
            },
            {
                "start_time": 86.4704545,
                "end_time": 87.4181818,
                "pitch": 77,
                "velocity": 64,
                "duration": 0.9477273,
                "tempo": 120.0
            },
            {
                "start_time": 88.0909091,
                "end_time": 88.4090909,
                "pitch": 82,
                "velocity": 64,
                "duration": 0.3181818,
                "tempo": 120.0
            },
            {
                "start_time": 89.0477273,
                "end_time": 89.4136364,
                "pitch": 84,
                "velocity": 64,
                "duration": 0.3659091,
                "tempo": 120.0
            },
            {
                "start_time": 89.9340909,
                "end_time": 90.0204545,
                "pitch": 87,
                "velocity": 64,
                "duration": 0.0863636,
                "tempo": 120.0
            },
            {
                "start_time": 90.0386364,
                "end_time": 90.4045455,
                "pitch": 89,
                "velocity": 64,
                "duration": 0.3659091,
                "tempo": 120.0
            },
            {
                "start_time": 90.4204545,
                "end_time": 91.2409091,
                "pitch": 84,
                "velocity": 64,
                "duration": 0.8204545,
                "tempo": 120.0
            },
            {
                "start_time": 91.2590909,
                "end_time": 91.375,
                "pitch": 84,
                "velocity": 64,
                "duration": 0.1159091,
                "tempo": 120.0
            },
            {
                "start_time": 91.6409091,
                "end_time": 91.7295455,
                "pitch": 84,
                "velocity": 64,
                "duration": 0.0886364,
                "tempo": 120.0
            },
            {
                "start_time": 91.7840909,
                "end_time": 91.8727273,
                "pitch": 84,
                "velocity": 64,
                "duration": 0.0886364,
                "tempo": 120.0
            },
            {
                "start_time": 92.3931818,
                "end_time": 93.1022727,
                "pitch": 82,
                "velocity": 64,
                "duration": 0.7090909,
                "tempo": 120.0
            },
            {
                "start_time": 93.3613636,
                "end_time": 93.8454545,
                "pitch": 80,
                "velocity": 64,
                "duration": 0.4840909,
                "tempo": 120.0
            },
            {
                "start_time": 93.8636364,
                "end_time": 94.0909091,
                "pitch": 80,
                "velocity": 64,
                "duration": 0.2272727,
                "tempo": 120.0
            },
            {
                "start_time": 94.3522727,
                "end_time": 95.325,
                "pitch": 77,
                "velocity": 64,
                "duration": 0.9727273,
                "tempo": 120.0
            },
            {
                "start_time": 95.9522727,
                "end_time": 96.2977273,
                "pitch": 82,
                "velocity": 64,
                "duration": 0.3454545,
                "tempo": 120.0
            },
            {
                "start_time": 96.9431818,
                "end_time": 97.2636364,
                "pitch": 84,
                "velocity": 64,
                "duration": 0.3204545,
                "tempo": 120.0
            },
            {
                "start_time": 97.8022727,
                "end_time": 97.8840909,
                "pitch": 87,
                "velocity": 64,
                "duration": 0.0818182,
                "tempo": 120.0
            },
            {
                "start_time": 97.9340909,
                "end_time": 98.2545455,
                "pitch": 89,
                "velocity": 64,
                "duration": 0.3204545,
                "tempo": 120.0
            }
        ],
        "Violin": [
            {
                "start_time": 0.0840909,
                "end_time": 1.9522727,
                "pitch": 53,
                "velocity": 40,
                "duration": 1.8681818,
                "tempo": 120.0
            },
            {
                "start_time": 1.9681818,
                "end_time": 3.9204545,
                "pitch": 53,
                "velocity": 40,
                "duration": 1.9522727,
                "tempo": 120.0
            },
            {
                "start_time": 3.9386364,
                "end_time": 21.625,
                "pitch": 53,
                "velocity": 40,
                "duration": 17.6863636,
                "tempo": 120.0
            },
            {
                "start_time": 21.6409091,
                "end_time": 23.5931818,
                "pitch": 74,
                "velocity": 40,
                "duration": 1.9522727,
                "tempo": 120.0
            },
            {
                "start_time": 23.6113636,
                "end_time": 25.5477273,
                "pitch": 72,
                "velocity": 40,
                "duration": 1.9363636,
                "tempo": 120.0
            },
            {
                "start_time": 25.5977273,
                "end_time": 27.5204545,
                "pitch": 65,
                "velocity": 40,
                "duration": 1.9227273,
                "tempo": 120.0
            },
            {
                "start_time": 27.5386364,
                "end_time": 29.4977273,
                "pitch": 75,
                "velocity": 40,
                "duration": 1.9590909,
                "tempo": 120.0
            },
            {
                "start_time": 29.5159091,
                "end_time": 31.4636364,
                "pitch": 74,
                "velocity": 40,
                "duration": 1.9477273,
                "tempo": 120.0
            },
            {
                "start_time": 31.4818182,
                "end_time": 33.4318182,
                "pitch": 72,
                "velocity": 40,
                "duration": 1.95,
                "tempo": 120.0
            },
            {
                "start_time": 33.4477273,
                "end_time": 35.3886364,
                "pitch": 65,
                "velocity": 40,
                "duration": 1.9409091,
                "tempo": 120.0
            },
            {
                "start_time": 35.4386364,
                "end_time": 37.3522727,
                "pitch": 75,
                "velocity": 40,
                "duration": 1.9136364,
                "tempo": 120.0
            },
            {
                "start_time": 37.3704545,
                "end_time": 39.3295455,
                "pitch": 74,
                "velocity": 40,
                "duration": 1.9590909,
                "tempo": 120.0
            },
            {
                "start_time": 39.3477273,
                "end_time": 41.2977273,
                "pitch": 72,
                "velocity": 40,
                "duration": 1.95,
                "tempo": 120.0
            },
            {
                "start_time": 41.3136364,
                "end_time": 43.2636364,
                "pitch": 65,
                "velocity": 40,
                "duration": 1.95,
                "tempo": 120.0
            },
            {
                "start_time": 43.2818182,
                "end_time": 45.2159091,
                "pitch": 75,
                "velocity": 40,
                "duration": 1.9340909,
                "tempo": 120.0
            },
            {
                "start_time": 45.2659091,
                "end_time": 47.1886364,
                "pitch": 74,
                "velocity": 40,
                "duration": 1.9227273,
                "tempo": 120.0
            },
            {
                "start_time": 47.2068182,
                "end_time": 49.1659091,
                "pitch": 72,
                "velocity": 40,
                "duration": 1.9590909,
                "tempo": 120.0
            },
            {
                "start_time": 49.1840909,
                "end_time": 51.1340909,
                "pitch": 65,
                "velocity": 40,
                "duration": 1.95,
                "tempo": 120.0
            },
            {
                "start_time": 51.15,
                "end_time": 54.0954545,
                "pitch": 53,
                "velocity": 40,
                "duration": 2.9454545,
                "tempo": 120.0
            },
            {
                "start_time": 54.5840909,
                "end_time": 54.95,
                "pitch": 51,
                "velocity": 40,
                "duration": 0.3659091,
                "tempo": 120.0
            },
            {
                "start_time": 54.9681818,
                "end_time": 58.0136364,
                "pitch": 53,
                "velocity": 40,
                "duration": 3.0454545,
                "tempo": 120.0
            },
            {
                "start_time": 58.5204545,
                "end_time": 58.8636364,
                "pitch": 56,
                "velocity": 40,
                "duration": 0.3431818,
                "tempo": 120.0
            },
            {
                "start_time": 58.8795455,
                "end_time": 61.9363636,
                "pitch": 58,
                "velocity": 40,
                "duration": 3.0568182,
                "tempo": 120.0
            },
            {
                "start_time": 62.4727273,
                "end_time": 62.7909091,
                "pitch": 56,
                "velocity": 40,
                "duration": 0.3181818,
                "tempo": 120.0
            },
            {
                "start_time": 62.8068182,
                "end_time": 65.8772727,
                "pitch": 58,
                "velocity": 40,
                "duration": 3.0704545,
                "tempo": 120.0
            },
            {
                "start_time": 66.3909091,
                "end_time": 66.7159091,
                "pitch": 51,
                "velocity": 40,
                "duration": 0.325,
                "tempo": 120.0
            },
            {
                "start_time": 66.7681818,
                "end_time": 69.7954545,
                "pitch": 53,
                "velocity": 40,
                "duration": 3.0272727,
                "tempo": 120.0
            },
            {
                "start_time": 70.3181818,
                "end_time": 70.6840909,
                "pitch": 51,
                "velocity": 40,
                "duration": 0.3659091,
                "tempo": 120.0
            },
            {
                "start_time": 70.7022727,
                "end_time": 73.7590909,
                "pitch": 53,
                "velocity": 40,
                "duration": 3.0568182,
                "tempo": 120.0
            },
            {
                "start_time": 74.25,
                "end_time": 74.6159091,
                "pitch": 56,
                "velocity": 40,
                "duration": 0.3659091,
                "tempo": 120.0
            },
            {
                "start_time": 74.6340909,
                "end_time": 77.6840909,
                "pitch": 58,
                "velocity": 40,
                "duration": 3.05,
                "tempo": 120.0
            },
            {
                "start_time": 78.1909091,
                "end_time": 78.5340909,
                "pitch": 56,
                "velocity": 40,
                "duration": 0.3431818,
                "tempo": 120.0
            },
            {
                "start_time": 78.55,
                "end_time": 81.6090909,
                "pitch": 58,
                "velocity": 40,
                "duration": 3.0590909,
                "tempo": 120.0
            },
            {
                "start_time": 82.1454545,
                "end_time": 82.6,
                "pitch": 58,
                "velocity": 40,
                "duration": 0.4545455,
                "tempo": 120.0
            }
        ],
        "Harpsichord": [
            {
                "start_time": 51.3181818,
                "end_time": 51.4340909,
                "pitch": 84,
                "velocity": 80,
                "duration": 0.1159091,
                "tempo": 120.0
            },
            {
                "start_time": 51.4522727,
                "end_time": 51.6681818,
                "pitch": 79,
                "velocity": 80,
                "duration": 0.2159091,
                "tempo": 120.0
            },
            {
                "start_time": 51.6863636,
                "end_time": 51.9045455,
                "pitch": 82,
                "velocity": 80,
                "duration": 0.2181818,
                "tempo": 120.0
            },
            {
                "start_time": 51.9204545,
                "end_time": 52.1431818,
                "pitch": 77,
                "velocity": 80,
                "duration": 0.2227273,
                "tempo": 120.0
            },
            {
                "start_time": 52.1590909,
                "end_time": 52.3863636,
                "pitch": 80,
                "velocity": 80,
                "duration": 0.2272727,
                "tempo": 120.0
            },
            {
                "start_time": 52.4386364,
                "end_time": 52.525,
                "pitch": 77,
                "velocity": 80,
                "duration": 0.0863636,
                "tempo": 120.0
            },
            {
                "start_time": 52.5431818,
                "end_time": 52.7613636,
                "pitch": 79,
                "velocity": 80,
                "duration": 0.2181818,
                "tempo": 120.0
            },
            {
                "start_time": 52.7772727,
                "end_time": 52.8954545,
                "pitch": 77,
                "velocity": 80,
                "duration": 0.1181818,
                "tempo": 120.0
            },
            {
                "start_time": 52.9113636,
                "end_time": 52.9954545,
                "pitch": 75,
                "velocity": 80,
                "duration": 0.0840909,
                "tempo": 120.0
            },
            {
                "start_time": 53.0454545,
                "end_time": 53.2772727,
                "pitch": 80,
                "velocity": 80,
                "duration": 0.2318182,
                "tempo": 120.0
            },
            {
                "start_time": 53.2954545,
                "end_time": 53.3840909,
                "pitch": 84,
                "velocity": 80,
                "duration": 0.0886364,
                "tempo": 120.0
            },
            {
                "start_time": 53.4,
                "end_time": 53.625,
                "pitch": 79,
                "velocity": 80,
                "duration": 0.225,
                "tempo": 120.0
            },
            {
                "start_time": 53.675,
                "end_time": 53.8931818,
                "pitch": 82,
                "velocity": 80,
                "duration": 0.2181818,
                "tempo": 120.0
            },
            {
                "start_time": 53.9113636,
                "end_time": 53.9931818,
                "pitch": 80,
                "velocity": 80,
                "duration": 0.0818182,
                "tempo": 120.0
            },
            {
                "start_time": 55.0022727,
                "end_time": 55.2227273,
                "pitch": 80,
                "velocity": 80,
                "duration": 0.2204545,
                "tempo": 120.0
            },
            {
                "start_time": 55.2409091,
                "end_time": 55.3590909,
                "pitch": 84,
                "velocity": 80,
                "duration": 0.1181818,
                "tempo": 120.0
            },
            {
                "start_time": 55.3772727,
                "end_time": 55.6,
                "pitch": 79,
                "velocity": 80,
                "duration": 0.2227273,
                "tempo": 120.0
            },
            {
                "start_time": 55.6181818,
                "end_time": 55.8454545,
                "pitch": 82,
                "velocity": 80,
                "duration": 0.2272727,
                "tempo": 120.0
            },
            {
                "start_time": 55.8613636,
                "end_time": 56.0818182,
                "pitch": 77,
                "velocity": 80,
                "duration": 0.2204545,
                "tempo": 120.0
            },
            {
                "start_time": 56.1318182,
                "end_time": 56.3431818,
                "pitch": 80,
                "velocity": 80,
                "duration": 0.2113636,
                "tempo": 120.0
            },
            {
                "start_time": 56.3590909,
                "end_time": 56.4409091,
                "pitch": 77,
                "velocity": 80,
                "duration": 0.0818182,
                "tempo": 120.0
            },
            {
                "start_time": 56.4590909,
                "end_time": 56.6795455,
                "pitch": 79,
                "velocity": 80,
                "duration": 0.2204545,
                "tempo": 120.0
            },
            {
                "start_time": 56.7318182,
                "end_time": 56.8159091,
                "pitch": 77,
                "velocity": 80,
                "duration": 0.0840909,
                "tempo": 120.0
            },
            {
                "start_time": 56.8340909,
                "end_time": 56.9522727,
                "pitch": 75,
                "velocity": 80,
                "duration": 0.1181818,
                "tempo": 120.0
            },
            {
                "start_time": 56.9704545,
                "end_time": 57.1954545,
                "pitch": 80,
                "velocity": 80,
                "duration": 0.225,
                "tempo": 120.0
            },
            {
                "start_time": 57.2136364,
                "end_time": 57.3,
                "pitch": 84,
                "velocity": 80,
                "duration": 0.0863636,
                "tempo": 120.0
            },
            {
                "start_time": 57.3522727,
                "end_time": 57.575,
                "pitch": 79,
                "velocity": 80,
                "duration": 0.2227273,
                "tempo": 120.0
            },
            {
                "start_time": 57.5909091,
                "end_time": 57.8090909,
                "pitch": 82,
                "velocity": 80,
                "duration": 0.2181818,
                "tempo": 120.0
            },
            {
                "start_time": 57.825,
                "end_time": 57.9090909,
                "pitch": 80,
                "velocity": 80,
                "duration": 0.0840909,
                "tempo": 120.0
            },
            {
                "start_time": 58.9136364,
                "end_time": 59.1363636,
                "pitch": 82,
                "velocity": 80,
                "duration": 0.2227273,
                "tempo": 120.0
            },
            {
                "start_time": 59.1886364,
                "end_time": 59.275,
                "pitch": 85,
                "velocity": 80,
                "duration": 0.0863636,
                "tempo": 120.0
            },
            {
                "start_time": 59.2909091,
                "end_time": 59.5181818,
                "pitch": 80,
                "velocity": 80,
                "duration": 0.2272727,
                "tempo": 120.0
            },
            {
                "start_time": 59.5363636,
                "end_time": 59.7659091,
                "pitch": 84,
                "velocity": 80,
                "duration": 0.2295455,
                "tempo": 120.0
            },
            {
                "start_time": 59.8181818,
                "end_time": 60.0386364,
                "pitch": 79,
                "velocity": 80,
                "duration": 0.2204545,
                "tempo": 120.0
            },
            {
                "start_time": 60.0545455,
                "end_time": 60.2681818,
                "pitch": 82,
                "velocity": 80,
                "duration": 0.2136364,
                "tempo": 120.0
            },
            {
                "start_time": 60.2840909,
                "end_time": 60.3659091,
                "pitch": 77,
                "velocity": 80,
                "duration": 0.0818182,
                "tempo": 120.0
            },
            {
                "start_time": 60.4159091,
                "end_time": 60.6477273,
                "pitch": 80,
                "velocity": 80,
                "duration": 0.2318182,
                "tempo": 120.0
            },
            {
                "start_time": 60.6636364,
                "end_time": 60.7522727,
                "pitch": 79,
                "velocity": 80,
                "duration": 0.0886364,
                "tempo": 120.0
            },
            {
                "start_time": 60.7704545,
                "end_time": 60.8931818,
                "pitch": 77,
                "velocity": 80,
                "duration": 0.1227273,
                "tempo": 120.0
            },
            {
                "start_time": 60.9113636,
                "end_time": 61.1227273,
                "pitch": 82,
                "velocity": 80,
                "duration": 0.2113636,
                "tempo": 120.0
            },
            {
                "start_time": 61.1386364,
                "end_time": 61.2545455,
                "pitch": 85,
                "velocity": 80,
                "duration": 0.1159091,
                "tempo": 120.0
            },
            {
                "start_time": 61.2704545,
                "end_time": 61.4886364,
                "pitch": 80,
                "velocity": 80,
                "duration": 0.2181818,
                "tempo": 120.0
            },
            {
                "start_time": 61.5068182,
                "end_time": 61.7295455,
                "pitch": 84,
                "velocity": 80,
                "duration": 0.2227273,
                "tempo": 120.0
            },
            {
                "start_time": 61.7477273,
                "end_time": 61.8659091,
                "pitch": 82,
                "velocity": 80,
                "duration": 0.1181818,
                "tempo": 120.0
            },
            {
                "start_time": 62.875,
                "end_time": 63.1068182,
                "pitch": 82,
                "velocity": 80,
                "duration": 0.2318182,
                "tempo": 120.0
            },
            {
                "start_time": 63.1227273,
                "end_time": 63.2113636,
                "pitch": 85,
                "velocity": 80,
                "duration": 0.0886364,
                "tempo": 120.0
            },
            {
                "start_time": 63.2295455,
                "end_time": 63.4545455,
                "pitch": 80,
                "velocity": 80,
                "duration": 0.225,
                "tempo": 120.0
            },
            {
                "start_time": 63.5045455,
                "end_time": 63.7227273,
                "pitch": 84,
                "velocity": 80,
                "duration": 0.2181818,
                "tempo": 120.0
            },
            {
                "start_time": 63.7386364,
                "end_time": 63.9568182,
                "pitch": 79,
                "velocity": 80,
                "duration": 0.2181818,
                "tempo": 120.0
            },
            {
                "start_time": 63.975,
                "end_time": 64.1909091,
                "pitch": 82,
                "velocity": 80,
                "duration": 0.2159091,
                "tempo": 120.0
            },
            {
                "start_time": 64.2090909,
                "end_time": 64.325,
                "pitch": 77,
                "velocity": 80,
                "duration": 0.1159091,
                "tempo": 120.0
            },
            {
                "start_time": 64.3431818,
                "end_time": 64.5704545,
                "pitch": 80,
                "velocity": 80,
                "duration": 0.2272727,
                "tempo": 120.0
            },
            {
                "start_time": 64.5886364,
                "end_time": 64.675,
                "pitch": 79,
                "velocity": 80,
                "duration": 0.0863636,
                "tempo": 120.0
            },
            {
                "start_time": 64.7272727,
                "end_time": 64.8136364,
                "pitch": 77,
                "velocity": 80,
                "duration": 0.0863636,
                "tempo": 120.0
            },
            {
                "start_time": 64.8318182,
                "end_time": 65.0477273,
                "pitch": 82,
                "velocity": 80,
                "duration": 0.2159091,
                "tempo": 120.0
            },
            {
                "start_time": 65.0659091,
                "end_time": 65.1818182,
                "pitch": 85,
                "velocity": 80,
                "duration": 0.1159091,
                "tempo": 120.0
            },
            {
                "start_time": 65.2,
                "end_time": 65.4227273,
                "pitch": 80,
                "velocity": 80,
                "duration": 0.2227273,
                "tempo": 120.0
            },
            {
                "start_time": 65.4409091,
                "end_time": 65.6704545,
                "pitch": 84,
                "velocity": 80,
                "duration": 0.2295455,
                "tempo": 120.0
            },
            {
                "start_time": 65.6886364,
                "end_time": 65.8136364,
                "pitch": 82,
                "velocity": 80,
                "duration": 0.125,
                "tempo": 120.0
            },
            {
                "start_time": 66.8022727,
                "end_time": 67.0340909,
                "pitch": 80,
                "velocity": 80,
                "duration": 0.2318182,
                "tempo": 120.0
            },
            {
                "start_time": 67.05,
                "end_time": 67.1386364,
                "pitch": 84,
                "velocity": 80,
                "duration": 0.0886364,
                "tempo": 120.0
            },
            {
                "start_time": 67.1931818,
                "end_time": 67.4113636,
                "pitch": 79,
                "velocity": 80,
                "duration": 0.2181818,
                "tempo": 120.0
            },
            {
                "start_time": 67.4295455,
                "end_time": 67.6409091,
                "pitch": 82,
                "velocity": 80,
                "duration": 0.2113636,
                "tempo": 120.0
            },
            {
                "start_time": 67.6568182,
                "end_time": 67.8795455,
                "pitch": 77,
                "velocity": 80,
                "duration": 0.2227273,
                "tempo": 120.0
            },
            {
                "start_time": 67.8954545,
                "end_time": 68.1272727,
                "pitch": 80,
                "velocity": 80,
                "duration": 0.2318182,
                "tempo": 120.0
            },
            {
                "start_time": 68.1454545,
                "end_time": 68.2681818,
                "pitch": 77,
                "velocity": 80,
                "duration": 0.1227273,
                "tempo": 120.0
            },
            {
                "start_time": 68.2863636,
                "end_time": 68.5022727,
                "pitch": 79,
                "velocity": 80,
                "duration": 0.2159091,
                "tempo": 120.0
            },
            {
                "start_time": 68.5204545,
                "end_time": 68.6363636,
                "pitch": 77,
                "velocity": 80,
                "duration": 0.1159091,
                "tempo": 120.0
            },
            {
                "start_time": 68.6545455,
                "end_time": 68.7386364,
                "pitch": 75,
                "velocity": 80,
                "duration": 0.0840909,
                "tempo": 120.0
            },
            {
                "start_time": 68.7545455,
                "end_time": 68.9727273,
                "pitch": 80,
                "velocity": 80,
                "duration": 0.2181818,
                "tempo": 120.0
            },
            {
                "start_time": 69.0227273,
                "end_time": 69.1068182,
                "pitch": 84,
                "velocity": 80,
                "duration": 0.0840909,
                "tempo": 120.0
            },
            {
                "start_time": 69.1227273,
                "end_time": 69.3454545,
                "pitch": 79,
                "velocity": 80,
                "duration": 0.2227273,
                "tempo": 120.0
            },
            {
                "start_time": 69.3636364,
                "end_time": 69.5886364,
                "pitch": 82,
                "velocity": 80,
                "duration": 0.225,
                "tempo": 120.0
            },
            {
                "start_time": 69.6409091,
                "end_time": 69.7295455,
                "pitch": 80,
                "velocity": 80,
                "duration": 0.0886364,
                "tempo": 120.0
            },
            {
                "start_time": 70.7363636,
                "end_time": 70.9590909,
                "pitch": 80,
                "velocity": 80,
                "duration": 0.2227273,
                "tempo": 120.0
            },
            {
                "start_time": 70.9772727,
                "end_time": 71.0977273,
                "pitch": 84,
                "velocity": 80,
                "duration": 0.1204545,
                "tempo": 120.0
            },
            {
                "start_time": 71.1136364,
                "end_time": 71.3340909,
                "pitch": 79,
                "velocity": 80,
                "duration": 0.2204545,
                "tempo": 120.0
            },
            {
                "start_time": 71.3522727,
                "end_time": 71.5681818,
                "pitch": 82,
                "velocity": 80,
                "duration": 0.2159091,
                "tempo": 120.0
            },
            {
                "start_time": 71.5863636,
                "end_time": 71.8068182,
                "pitch": 77,
                "velocity": 80,
                "duration": 0.2204545,
                "tempo": 120.0
            },
            {
                "start_time": 71.825,
                "end_time": 72.0522727,
                "pitch": 80,
                "velocity": 80,
                "duration": 0.2272727,
                "tempo": 120.0
            },
            {
                "start_time": 72.1045455,
                "end_time": 72.1909091,
                "pitch": 77,
                "velocity": 80,
                "duration": 0.0863636,
                "tempo": 120.0
            },
            {
                "start_time": 72.2090909,
                "end_time": 72.425,
                "pitch": 79,
                "velocity": 80,
                "duration": 0.2159091,
                "tempo": 120.0
            },
            {
                "start_time": 72.4431818,
                "end_time": 72.5590909,
                "pitch": 77,
                "velocity": 80,
                "duration": 0.1159091,
                "tempo": 120.0
            },
            {
                "start_time": 72.5772727,
                "end_time": 72.6613636,
                "pitch": 75,
                "velocity": 80,
                "duration": 0.0840909,
                "tempo": 120.0
            },
            {
                "start_time": 72.7113636,
                "end_time": 72.9431818,
                "pitch": 80,
                "velocity": 80,
                "duration": 0.2318182,
                "tempo": 120.0
            },
            {
                "start_time": 72.9590909,
                "end_time": 73.0477273,
                "pitch": 84,
                "velocity": 80,
                "duration": 0.0886364,
                "tempo": 120.0
            },
            {
                "start_time": 73.0659091,
                "end_time": 73.2909091,
                "pitch": 79,
                "velocity": 80,
                "duration": 0.225,
                "tempo": 120.0
            },
            {
                "start_time": 73.3409091,
                "end_time": 73.5590909,
                "pitch": 82,
                "velocity": 80,
                "duration": 0.2181818,
                "tempo": 120.0
            },
            {
                "start_time": 73.575,
                "end_time": 73.6590909,
                "pitch": 80,
                "velocity": 80,
                "duration": 0.0840909,
                "tempo": 120.0
            },
            {
                "start_time": 74.6681818,
                "end_time": 74.8886364,
                "pitch": 82,
                "velocity": 80,
                "duration": 0.2204545,
                "tempo": 120.0
            },
            {
                "start_time": 74.9068182,
                "end_time": 75.025,
                "pitch": 85,
                "velocity": 80,
                "duration": 0.1181818,
                "tempo": 120.0
            },
            {
                "start_time": 75.0431818,
                "end_time": 75.2659091,
                "pitch": 80,
                "velocity": 80,
                "duration": 0.2227273,
                "tempo": 120.0
            },
            {
                "start_time": 75.2840909,
                "end_time": 75.5090909,
                "pitch": 84,
                "velocity": 80,
                "duration": 0.225,
                "tempo": 120.0
            },
            {
                "start_time": 75.5272727,
                "end_time": 75.7477273,
                "pitch": 79,
                "velocity": 80,
                "duration": 0.2204545,
                "tempo": 120.0
            },
            {
                "start_time": 75.7954545,
                "end_time": 76.0090909,
                "pitch": 82,
                "velocity": 80,
                "duration": 0.2136364,
                "tempo": 120.0
            },
            {
                "start_time": 76.025,
                "end_time": 76.1068182,
                "pitch": 77,
                "velocity": 80,
                "duration": 0.0818182,
                "tempo": 120.0
            },
            {
                "start_time": 76.125,
                "end_time": 76.3477273,
                "pitch": 80,
                "velocity": 80,
                "duration": 0.2227273,
                "tempo": 120.0
            },
            {
                "start_time": 76.3977273,
                "end_time": 76.4840909,
                "pitch": 79,
                "velocity": 80,
                "duration": 0.0863636,
                "tempo": 120.0
            },
            {
                "start_time": 76.5022727,
                "end_time": 76.6227273,
                "pitch": 77,
                "velocity": 80,
                "duration": 0.1204545,
                "tempo": 120.0
            },
            {
                "start_time": 76.6386364,
                "end_time": 76.8659091,
                "pitch": 82,
                "velocity": 80,
                "duration": 0.2272727,
                "tempo": 120.0
            },
            {
                "start_time": 76.8840909,
                "end_time": 76.9704545,
                "pitch": 85,
                "velocity": 80,
                "duration": 0.0863636,
                "tempo": 120.0
            },
            {
                "start_time": 77.0227273,
                "end_time": 77.2431818,
                "pitch": 80,
                "velocity": 80,
                "duration": 0.2204545,
                "tempo": 120.0
            },
            {
                "start_time": 77.2613636,
                "end_time": 77.4795455,
                "pitch": 84,
                "velocity": 80,
                "duration": 0.2181818,
                "tempo": 120.0
            },
            {
                "start_time": 77.4954545,
                "end_time": 77.5795455,
                "pitch": 82,
                "velocity": 80,
                "duration": 0.0840909,
                "tempo": 120.0
            },
            {
                "start_time": 78.5840909,
                "end_time": 78.8068182,
                "pitch": 82,
                "velocity": 80,
                "duration": 0.2227273,
                "tempo": 120.0
            },
            {
                "start_time": 78.8568182,
                "end_time": 78.9431818,
                "pitch": 85,
                "velocity": 80,
                "duration": 0.0863636,
                "tempo": 120.0
            },
            {
                "start_time": 78.9613636,
                "end_time": 79.1863636,
                "pitch": 80,
                "velocity": 80,
                "duration": 0.225,
                "tempo": 120.0
            },
            {
                "start_time": 79.2045455,
                "end_time": 79.4340909,
                "pitch": 84,
                "velocity": 80,
                "duration": 0.2295455,
                "tempo": 120.0
            },
            {
                "start_time": 79.4886364,
                "end_time": 79.7068182,
                "pitch": 79,
                "velocity": 80,
                "duration": 0.2181818,
                "tempo": 120.0
            },
            {
                "start_time": 79.725,
                "end_time": 79.9363636,
                "pitch": 82,
                "velocity": 80,
                "duration": 0.2113636,
                "tempo": 120.0
            },
            {
                "start_time": 79.9522727,
                "end_time": 80.0340909,
                "pitch": 77,
                "velocity": 80,
                "duration": 0.0818182,
                "tempo": 120.0
            },
            {
                "start_time": 80.0863636,
                "end_time": 80.3136364,
                "pitch": 80,
                "velocity": 80,
                "duration": 0.2272727,
                "tempo": 120.0
            },
            {
                "start_time": 80.3295455,
                "end_time": 80.4181818,
                "pitch": 79,
                "velocity": 80,
                "duration": 0.0886364,
                "tempo": 120.0
            },
            {
                "start_time": 80.4340909,
                "end_time": 80.5568182,
                "pitch": 77,
                "velocity": 80,
                "duration": 0.1227273,
                "tempo": 120.0
            },
            {
                "start_time": 80.5727273,
                "end_time": 80.7909091,
                "pitch": 82,
                "velocity": 80,
                "duration": 0.2181818,
                "tempo": 120.0
            },
            {
                "start_time": 80.8068182,
                "end_time": 80.925,
                "pitch": 85,
                "velocity": 80,
                "duration": 0.1181818,
                "tempo": 120.0
            },
            {
                "start_time": 80.9409091,
                "end_time": 81.1636364,
                "pitch": 80,
                "velocity": 80,
                "duration": 0.2227273,
                "tempo": 120.0
            },
            {
                "start_time": 81.1795455,
                "end_time": 81.4022727,
                "pitch": 84,
                "velocity": 80,
                "duration": 0.2227273,
                "tempo": 120.0
            },
            {
                "start_time": 81.4204545,
                "end_time": 81.5409091,
                "pitch": 82,
                "velocity": 80,
                "duration": 0.1204545,
                "tempo": 120.0
            }
        ],
        "Trumpet": [
            {
                "start_time": 82.4136364,
                "end_time": 83.0204545,
                "pitch": 84,
                "velocity": 80,
                "duration": 0.6068182,
                "tempo": 120.0
            },
            {
                "start_time": 83.0363636,
                "end_time": 84.9590909,
                "pitch": 84,
                "velocity": 64,
                "duration": 1.9227273,
                "tempo": 120.0
            },
            {
                "start_time": 85.0113636,
                "end_time": 87.0840909,
                "pitch": 82,
                "velocity": 64,
                "duration": 2.0727273,
                "tempo": 120.0
            },
            {
                "start_time": 87.1,
                "end_time": 90.8727273,
                "pitch": 80,
                "velocity": 64,
                "duration": 3.7727273,
                "tempo": 120.0
            },
            {
                "start_time": 90.8886364,
                "end_time": 92.8636364,
                "pitch": 84,
                "velocity": 64,
                "duration": 1.975,
                "tempo": 120.0
            },
            {
                "start_time": 92.8795455,
                "end_time": 94.9431818,
                "pitch": 82,
                "velocity": 64,
                "duration": 2.0636364,
                "tempo": 120.0
            }
        ]
    }
}