{
    "mood": "angry",
    "instruments": {
        "Electric Guitar (clean)": [
            {
                "start_time": 0.0,
                "end_time": 0.3568182,
                "pitch": 29,
                "velocity": 64,
                "duration": 0.3568182,
                "tempo": 120.0
            },
            {
                "start_time": 0.3727273,
                "end_time": 0.5727273,
                "pitch": 41,
                "velocity": 64,
                "duration": 0.2,
                "tempo": 120.0
            },
            {
                "start_time": 0.5886364,
                "end_time": 0.7909091,
                "pitch": 36,
                "velocity": 64,
                "duration": 0.2022727,
                "tempo": 120.0
            },
            {
                "start_time": 0.8068182,
                "end_time": 0.9954545,
                "pitch": 39,
                "velocity": 64,
                "duration": 0.1886364,
                "tempo": 120.0
            },
            {
                "start_time": 1.0113636,
                "end_time": 1.2181818,
                "pitch": 39,
                "velocity": 64,
                "duration": 0.2068182,
                "tempo": 120.0
            },
            {
                "start_time": 1.2340909,
                "end_time": 1.4318182,
                "pitch": 40,
                "velocity": 64,
                "duration": 0.1977273,
                "tempo": 120.0
            },
            {
                "start_time": 1.4477273,
                "end_time": 1.6454545,
                "pitch": 41,
                "velocity": 64,
                "duration": 0.1977273,
                "tempo": 120.0
            },
            {
                "start_time": 1.6613636,
                "end_time": 2.0613636,
                "pitch": 29,
                "velocity": 64,
                "duration": 0.4,
                "tempo": 120.0
            },
            {
                "start_time": 2.0795455,
                "end_time": 2.275,
                "pitch": 41,
                "velocity": 64,
                "duration": 0.1954545,
                "tempo": 120.0
            },
            {
                "start_time": 2.2931818,
                "end_time": 2.4886364,
                "pitch": 36,
                "velocity": 64,
                "duration": 0.1954545,
                "tempo": 120.0
            },
            {
                "start_time": 2.5045455,
                "end_time": 2.7068182,
                "pitch": 39,
                "velocity": 64,
                "duration": 0.2022727,
                "tempo": 120.0
            },
            {
                "start_time": 2.7227273,
                "end_time": 2.9227273,
                "pitch": 39,
                "velocity": 64,
                "duration": 0.2,
                "tempo": 120.0
            },
            {
                "start_time": 2.9409091,
                "end_time": 3.1272727,
                "pitch": 40,
                "velocity": 64,
                "duration": 0.1863636,
                "tempo": 120.0
            },
            {
                "start_time": 3.1454545,
                "end_time": 3.35,
                "pitch": 41,
                "velocity": 64,
                "duration": 0.2045455,
                "tempo": 120.0
            },
            {
                "start_time": 3.3681818,
                "end_time": 3.7659091,
                "pitch": 29,
                "velocity": 64,
                "duration": 0.3977273,
                "tempo": 120.0
            },
            {
                "start_time": 3.7818182,
                "end_time": 3.9863636,
                "pitch": 41,
                "velocity": 64,
                "duration": 0.2045455,
                "tempo": 120.0
            },
            {
                "start_time": 4.0045455,
                "end_time": 4.1909091,
                "pitch": 36,
                "velocity": 64,
                "duration": 0.1863636,
                "tempo": 120.0
            },
            {
                "start_time": 4.2090909,
                "end_time": 4.4068182,
                "pitch": 39,
                "velocity": 64,
                "duration": 0.1977273,
                "tempo": 120.0
            },
            {
                "start_time": 4.4227273,
                "end_time": 4.6181818,
                "pitch": 39,
                "velocity": 64,
                "duration": 0.1954545,
                "tempo": 120.0
            },
            {
                "start_time": 4.6363636,
                "end_time": 4.8363636,
                "pitch": 40,
                "velocity": 64,
                "duration": 0.2,
                "tempo": 120.0
            },
            {
                "start_time": 4.8522727,
                "end_time": 5.0522727,
                "pitch": 41,
                "velocity": 64,
                "duration": 0.2,
                "tempo": 120.0
            },
            {
                "start_time": 5.0704545,
                "end_time": 5.4727273,
                "pitch": 29,
                "velocity": 64,
                "duration": 0.4022727,
                "tempo": 120.0
            },
            {
                "start_time": 5.4886364,
                "end_time": 5.6863636,
                "pitch": 41,
                "velocity": 64,
                "duration": 0.1977273,
                "tempo": 120.0
            },
            {
                "start_time": 5.7022727,
                "end_time": 5.8977273,
                "pitch": 36,
                "velocity": 64,
                "duration": 0.1954545,
                "tempo": 120.0
            },
            {
                "start_time": 5.9136364,
                "end_time": 6.1159091,
                "pitch": 39,
                "velocity": 64,
                "duration": 0.2022727,
                "tempo": 120.0
            },
            {
                "start_time": 6.1318182,
                "end_time": 6.3159091,
                "pitch": 39,
                "velocity": 64,
                "duration": 0.1840909,
                "tempo": 120.0
            },
            {
                "start_time": 6.3318182,
                "end_time": 6.5295455,
                "pitch": 40,
                "velocity": 64,
                "duration": 0.1977273,
                "tempo": 120.0
            },
            {
                "start_time": 6.5454545,
                "end_time": 6.7431818,
                "pitch": 41,
                "velocity": 64,
                "duration": 0.1977273,
                "tempo": 120.0
            },
            {
                "start_time": 6.7590909,
                "end_time": 7.1772727,
                "pitch": 29,
                "velocity": 64,
                "duration": 0.4181818,
                "tempo": 120.0
            },
            {
                "start_time": 7.1931818,
                "end_time": 7.3772727,
                "pitch": 41,
                "velocity": 64,
                "duration": 0.1840909,
                "tempo": 120.0
            },
            {
                "start_time": 7.3954545,
                "end_time": 7.5954545,
                "pitch": 36,
                "velocity": 64,
                "duration": 0.2,
                "tempo": 120.0
            },
            {
                "start_time": 7.6113636,
                "end_time": 7.8090909,
                "pitch": 39,
                "velocity": 64,
                "duration": 0.1977273,
                "tempo": 120.0
            },
            {
                "start_time": 7.825,
                "end_time": 8.0227273,
                "pitch": 39,
                "velocity": 64,
                "duration": 0.1977273,
                "tempo": 120.0
            },
            {
                "start_time": 8.0386364,
                "end_time": 8.2386364,
                "pitch": 40,
                "velocity": 64,
                "duration": 0.2,
                "tempo": 120.0
            },
            {
                "start_time": 8.2545455,
                "end_time": 8.4386364,
                "pitch": 41,
                "velocity": 64,
                "duration": 0.1840909,
                "tempo": 120.0
            },
            {
                "start_time": 8.4568182,
                "end_time": 8.8659091,
                "pitch": 29,
                "velocity": 64,
                "duration": 0.4090909,
                "tempo": 120.0
            },
            {
                "start_time": 8.8818182,
                "end_time": 9.0840909,
                "pitch": 41,
                "velocity": 64,
                "duration": 0.2022727,
                "tempo": 120.0
            },
            {
                "start_time": 9.1,
                "end_time": 9.3,
                "pitch": 36,
                "velocity": 64,
                "duration": 0.2,
                "tempo": 120.0
            },
            {
                "start_time": 9.3181818,
                "end_time": 9.5022727,
                "pitch": 39,
                "velocity": 64,
                "duration": 0.1840909,
                "tempo": 120.0
            },
            {
                "start_time": 9.5181818,
                "end_time": 9.7181818,
                "pitch": 39,
                "velocity": 64,
                "duration": 0.2,
                "tempo": 120.0
            },
            {
                "start_time": 9.7363636,
                "end_time": 9.9318182,
                "pitch": 40,
                "velocity": 64,
                "duration": 0.1954545,
                "tempo": 120.0
            },
            {
                "start_time": 9.9477273,
                "end_time": 10.1454545,
                "pitch": 41,
                "velocity": 64,
                "duration": 0.1977273,
                "tempo": 120.0
            },
            {
                "start_time": 10.1613636,
                "end_time": 10.5636364,
                "pitch": 34,
                "velocity": 64,
                "duration": 0.4022727,
                "tempo": 120.0
            },
            {
                "start_time": 10.5795455,
                "end_time": 10.7772727,
                "pitch": 46,
                "velocity": 64,
                "duration": 0.1977273,
                "tempo": 120.0
            },
            {
                "start_time": 10.7931818,
                "end_time": 10.9886364,
                "pitch": 41,
                "velocity": 64,
                "duration": 0.1954545,
                "tempo": 120.0
            },
            {
                "start_time": 11.0068182,
                "end_time": 11.2068182,
                "pitch": 44,
                "velocity": 64,
                "duration": 0.2,
                "tempo": 120.0
            },
            {
                "start_time": 11.2227273,
                "end_time": 11.425,
                "pitch": 44,
                "velocity": 64,
                "duration": 0.2022727,
                "tempo": 120.0
            },
            {
                "start_time": 11.4409091,
                "end_time": 11.6295455,
                "pitch": 45,
                "velocity": 64,
                "duration": 0.1886364,
                "tempo": 120.0
            },
            {
                "start_time": 11.6454545,
                "end_time": 11.8522727,
                "pitch": 46,
                "velocity": 64,
                "duration": 0.2068182,
                "tempo": 120.0
            },
            {
                "start_time": 11.8681818,
                "end_time": 12.2795455,
                "pitch": 34,
                "velocity": 64,
                "duration": 0.4113636,
                "tempo": 120.0
            },
            {
                "start_time": 12.2954545,
                "end_time": 12.4954545,
                "pitch": 46,
                "velocity": 64,
                "duration": 0.2,
                "tempo": 120.0
            },
            {
                "start_time": 12.5113636,
                "end_time": 12.6954545,
                "pitch": 41,
                "velocity": 64,
                "duration": 0.1840909,
                "tempo": 120.0
            },
            {
                "start_time": 12.7136364,
                "end_time": 12.9045455,
                "pitch": 44,
                "velocity": 64,
                "duration": 0.1909091,
                "tempo": 120.0
            },
            {
                "start_time": 12.9204545,
                "end_time": 13.1113636,
                "pitch": 44,
                "velocity": 64,
                "duration": 0.1909091,
                "tempo": 120.0
            },
            {
                "start_time": 13.1272727,
                "end_time": 13.3318182,
                "pitch": 45,
                "velocity": 64,
                "duration": 0.2045455,
                "tempo": 120.0
            },
            {
                "start_time": 13.35,
                "end_time": 13.5545455,
                "pitch": 46,
                "velocity": 64,
                "duration": 0.2045455,
                "tempo": 120.0
            },
            {
                "start_time": 13.5704545,
                "end_time": 13.9727273,
                "pitch": 29,
                "velocity": 64,
                "duration": 0.4022727,
                "tempo": 120.0
            },
            {
                "start_time": 13.9909091,
                "end_time": 14.1863636,
                "pitch": 41,
                "velocity": 64,
                "duration": 0.1954545,
                "tempo": 120.0
            },
            {
                "start_time": 14.2022727,
                "end_time": 14.4,
                "pitch": 36,
                "velocity": 64,
                "duration": 0.1977273,
                "tempo": 120.0
            },
            {
                "start_time": 14.4159091,
                "end_time": 14.6204545,
                "pitch": 39,
                "velocity": 64,
                "duration": 0.2045455,
                "tempo": 120.0
            },
            {
                "start_time": 14.6363636,
                "end_time": 14.825,
                "pitch": 39,
                "velocity": 64,
                "duration": 0.1886364,
                "tempo": 120.0
            },
            {
                "start_time": 14.8431818,
                "end_time": 15.0340909,
                "pitch": 40,
                "velocity": 64,
                "duration": 0.1909091,
                "tempo": 120.0
            },
            {
                "start_time": 15.05,
                "end_time": 15.2409091,
                "pitch": 41,
                "velocity": 64,
                "duration": 0.1909091,
                "tempo": 120.0
            },
            {
                "start_time": 15.2568182,
                "end_time": 15.675,
                "pitch": 29,
                "velocity": 64,
                "duration": 0.4181818,
                "tempo": 120.0
            },
            {
                "start_time": 15.6931818,
                "end_time": 15.8795455,
                "pitch": 41,
                "velocity": 64,
                "duration": 0.1863636,
                "tempo": 120.0
            },
            {
                "start_time": 15.8977273,
                "end_time": 16.1022727,
                "pitch": 36,
                "velocity": 64,
                "duration": 0.2045455,
                "tempo": 120.0
            },
            {
                "start_time": 16.1204545,
                "end_time": 16.3159091,
                "pitch": 39,
                "velocity": 64,
                "duration": 0.1954545,
                "tempo": 120.0
            },
            {
                "start_time": 16.3340909,
                "end_time": 16.5295455,
                "pitch": 39,
                "velocity": 64,
                "duration": 0.1954545,
                "tempo": 120.0
            },
            {
                "start_time": 16.5454545,
                "end_time": 16.7477273,
                "pitch": 40,
                "velocity": 64,
                "duration": 0.2022727,
                "tempo": 120.0
            },
            {
                "start_time": 16.7636364,
                "end_time": 16.9477273,
                "pitch": 41,
                "velocity": 64,
                "duration": 0.1840909,
                "tempo": 120.0
            },
            {
                "start_time": 16.9636364,
                "end_time": 17.1568182,
                "pitch": 32,
                "velocity": 64,
                "duration": 0.1931818,
                "tempo": 120.0
            },
            {
                "start_time": 17.1727273,
                "end_time": 17.3636364,
                "pitch": 32,
                "velocity": 64,
                "duration": 0.1909091,
                "tempo": 120.0
            },
            {
                "start_time": 17.3795455,
                "end_time": 17.5840909,
                "pitch": 44,
                "velocity": 64,
                "duration": 0.2045455,
                "tempo": 120.0
            },
            {
                "start_time": 17.6,
                "end_time": 17.8045455,
                "pitch": 32,
                "velocity": 64,
                "duration": 0.2045455,
                "tempo": 120.0
            },
            {
                "start_time": 17.8227273,
                "end_time": 18.0068182,
                "pitch": 32,
                "velocity": 64,
                "duration": 0.1840909,
                "tempo": 120.0
            },
            {
                "start_time": 18.0227273,
                "end_time": 18.225,
                "pitch": 32,
                "velocity": 64,
                "duration": 0.2022727,
                "tempo": 120.0
            },
            {
                "start_time": 18.2409091,
                "end_time": 18.4318182,
                "pitch": 44,
                "velocity": 64,
                "duration": 0.1909091,
                "tempo": 120.0
            },
            {
                "start_time": 18.4477273,
                "end_time": 18.6386364,
                "pitch": 32,
                "velocity": 64,
                "duration": 0.1909091,
                "tempo": 120.0
            },
            {
                "start_time": 18.6545455,
                "end_time": 18.8590909,
                "pitch": 31,
                "velocity": 64,
                "duration": 0.2045455,
                "tempo": 120.0
            },
            {
                "start_time": 18.8772727,
                "end_time": 19.0659091,
                "pitch": 31,
                "velocity": 64,
                "duration": 0.1886364,
                "tempo": 120.0
            },
            {
                "start_time": 19.0818182,
                "end_time": 19.2795455,
                "pitch": 43,
                "velocity": 64,
                "duration": 0.1977273,
                "tempo": 120.0
            },
            {
                "start_time": 19.2954545,
                "end_time": 19.4931818,
                "pitch": 31,
                "velocity": 64,
                "duration": 0.1977273,
                "tempo": 120.0
            },
            {
                "start_time": 19.5090909,
                "end_time": 19.7090909,
                "pitch": 30,
                "velocity": 64,
                "duration": 0.2,
                "tempo": 120.0
            },
            {
                "start_time": 19.725,
                "end_time": 19.9272727,
                "pitch": 30,
                "velocity": 64,
                "duration": 0.2022727,
                "tempo": 120.0
            },
            {
                "start_time": 19.9431818,
                "end_time": 20.1272727,
                "pitch": 42,
                "velocity": 64,
                "duration": 0.1840909,
                "tempo": 120.0
            },
            {
                "start_time": 20.1454545,
                "end_time": 20.3454545,
                "pitch": 30,
                "velocity": 64,
                "duration": 0.2,
                "tempo": 120.0
            },
            {
                "start_time": 20.3613636,
                "end_time": 20.7727273,
                "pitch": 29,
                "velocity": 64,
                "duration": 0.4113636,
                "tempo": 120.0
            },
            {
                "start_time": 20.7886364,
                "end_time": 20.9931818,
                "pitch": 41,
                "velocity": 64,
                "duration": 0.2045455,
                "tempo": 120.0
            },
            {
                "start_time": 21.0090909,
                "end_time": 21.1977273,
                "pitch": 36,
                "velocity": 64,
                "duration": 0.1886364,
                "tempo": 120.0
            },
            {
                "start_time": 21.2159091,
                "end_time": 21.4068182,
                "pitch": 39,
                "velocity": 64,
                "duration": 0.1909091,
                "tempo": 120.0
            },
            {
                "start_time": 21.4227273,
                "end_time": 21.6136364,
                "pitch": 39,
                "velocity": 64,
                "duration": 0.1909091,
                "tempo": 120.0
            },
            {
                "start_time": 21.6295455,
                "end_time": 21.8295455,
                "pitch": 40,
                "velocity": 64,
                "duration": 0.2,
                "tempo": 120.0
            },
            {
                "start_time": 21.8477273,
                "end_time": 22.0477273,
                "pitch": 41,
                "velocity": 64,
                "duration": 0.2,
                "tempo": 120.0
            },
            {
                "start_time": 22.0636364,
                "end_time": 22.4659091,
                "pitch": 29,
                "velocity": 64,
                "duration": 0.4022727,
                "tempo": 120.0
            },
            {
                "start_time": 22.4818182,
                "end_time": 22.6840909,
                "pitch": 41,
                "velocity": 64,
                "duration": 0.2022727,
                "tempo": 120.0
            },
            {
                "start_time": 22.7,
                "end_time": 22.9022727,
                "pitch": 36,
                "velocity": 64,
                "duration": 0.2022727,
                "tempo": 120.0
            },
            {
                "start_time": 22.9181818,
                "end_time": 23.1181818,
                "pitch": 39,
                "velocity": 64,
                "duration": 0.2,
                "tempo": 120.0
            },
            {
                "start_time": 23.1363636,
                "end_time": 23.3204545,
                "pitch": 39,
                "velocity": 64,
                "duration": 0.1840909,
                "tempo": 120.0
            },
            {
                "start_time": 23.3363636,
                "end_time": 23.5272727,
                "pitch": 40,
                "velocity": 64,
                "duration": 0.1909091,
                "tempo": 120.0
            },
            {
                "start_time": 23.5431818,
                "end_time": 23.7340909,
                "pitch": 41,
                "velocity": 64,
                "duration": 0.1909091,
                "tempo": 120.0
            },
            {
                "start_time": 23.75,
                "end_time": 24.1772727,
                "pitch": 29,
                "velocity": 64,
                "duration": 0.4272727,
                "tempo": 120.0
            },
            {
                "start_time": 24.1954545,
                "end_time": 24.3795455,
                "pitch": 41,
                "velocity": 64,
                "duration": 0.1840909,
                "tempo": 120.0
            },
            {
                "start_time": 24.3954545,
                "end_time": 24.5954545,
                "pitch": 36,
                "velocity": 64,
                "duration": 0.2,
                "tempo": 120.0
            },
            {
                "start_time": 24.6136364,
                "end_time": 24.8090909,
                "pitch": 39,
                "velocity": 64,
                "duration": 0.1954545,
                "tempo": 120.0
            },
            {
                "start_time": 24.8272727,
                "end_time": 25.0227273,
                "pitch": 39,
                "velocity": 64,
                "duration": 0.1954545,
                "tempo": 120.0
            },
            {
                "start_time": 25.0386364,
                "end_time": 25.2409091,
                "pitch": 40,
                "velocity": 64,
                "duration": 0.2022727,
                "tempo": 120.0
            },
            {
                "start_time": 25.2568182,
                "end_time": 25.4409091,
                "pitch": 41,
                "velocity": 64,
                "duration": 0.1840909,
                "tempo": 120.0
            },
            {
                "start_time": 25.4568182,
                "end_time": 25.8681818,
                "pitch": 29,
                "velocity": 64,
                "duration": 0.4113636,
                "tempo": 120.0
            },
            {
                "start_time": 25.8840909,
                "end_time": 26.0840909,
                "pitch": 41,
                "velocity": 64,
                "duration": 0.2,
                "tempo": 120.0
            },
            {
                "start_time": 26.1,
                "end_time": 26.3022727,
                "pitch": 36,
                "velocity": 64,
                "duration": 0.2022727,
                "tempo": 120.0
            },
            {
                "start_time": 26.3181818,
                "end_time": 26.5022727,
                "pitch": 39,
                "velocity": 64,
                "duration": 0.1840909,
                "tempo": 120.0
            },
            {
                "start_time": 26.5181818,
                "end_time": 26.7204545,
                "pitch": 39,
                "velocity": 64,
                "duration": 0.2022727,
                "tempo": 120.0
            },
            {
                "start_time": 26.7363636,
                "end_time": 26.9340909,
                "pitch": 40,
                "velocity": 64,
                "duration": 0.1977273,
                "tempo": 120.0
            },
            {
                "start_time": 26.95,
                "end_time": 27.1454545,
                "pitch": 41,
                "velocity": 64,
                "duration": 0.1954545,
                "tempo": 120.0
            },
            {
                "start_time": 27.1636364,
                "end_time": 27.5636364,
                "pitch": 34,
                "velocity": 64,
                "duration": 0.4,
                "tempo": 120.0
            },
            {
                "start_time": 27.5818182,
                "end_time": 27.7772727,
                "pitch": 46,
                "velocity": 64,
                "duration": 0.1954545,
                "tempo": 120.0
            },
            {
                "start_time": 27.7931818,
                "end_time": 27.9909091,
                "pitch": 41,
                "velocity": 64,
                "duration": 0.1977273,
                "tempo": 120.0
            },
            {
                "start_time": 28.0068182,
                "end_time": 28.2068182,
                "pitch": 44,
                "velocity": 64,
                "duration": 0.2,
                "tempo": 120.0
            },
            {
                "start_time": 28.225,
                "end_time": 28.425,
                "pitch": 44,
                "velocity": 64,
                "duration": 0.2,
                "tempo": 120.0
            },
            {
                "start_time": 28.4431818,
                "end_time": 28.6272727,
                "pitch": 45,
                "velocity": 64,
                "duration": 0.1840909,
                "tempo": 120.0
            },
            {
                "start_time": 28.6431818,
                "end_time": 28.8431818,
                "pitch": 46,
                "velocity": 64,
                "duration": 0.2,
                "tempo": 120.0
            },
            {
                "start_time": 28.8613636,
                "end_time": 29.2704545,
                "pitch": 34,
                "velocity": 64,
                "duration": 0.4090909,
                "tempo": 120.0
            },
            {
                "start_time": 29.2863636,
                "end_time": 29.4909091,
                "pitch": 46,
                "velocity": 64,
                "duration": 0.2045455,
                "tempo": 120.0
            },
            {
                "start_time": 29.5090909,
                "end_time": 29.6954545,
                "pitch": 41,
                "velocity": 64,
                "duration": 0.1863636,
                "tempo": 120.0
            },
            {
                "start_time": 29.7136364,
                "end_time": 29.9045455,
                "pitch": 44,
                "velocity": 64,
                "duration": 0.1909091,
                "tempo": 120.0
            },
            {
                "start_time": 29.9204545,
                "end_time": 30.1113636,
                "pitch": 44,
                "velocity": 64,
                "duration": 0.1909091,
                "tempo": 120.0
            },
            {
                "start_time": 30.1272727,
                "end_time": 30.3318182,
                "pitch": 45,
                "velocity": 64,
                "duration": 0.2045455,
                "tempo": 120.0
            },
            {
                "start_time": 30.35,
                "end_time": 30.5545455,
                "pitch": 46,
                "velocity": 64,
                "duration": 0.2045455,
                "tempo": 120.0
            },
            {
                "start_time": 30.5727273,
                "end_time": 30.9727273,
                "pitch": 29,
                "velocity": 64,
                "duration": 0.4,
                "tempo": 120.0
            },
            {
                "start_time": 30.9909091,
                "end_time": 31.1863636,
                "pitch": 41,
                "velocity": 64,
                "duration": 0.1954545,
                "tempo": 120.0
            },
            {
                "start_time": 31.2045455,
                "end_time": 31.4,
                "pitch": 36,
                "velocity": 64,
                "duration": 0.1954545,
                "tempo": 120.0
            },
            {
                "start_time": 31.4159091,
                "end_time": 31.6181818,
                "pitch": 39,
                "velocity": 64,
                "duration": 0.2022727,
                "tempo": 120.0
            },
            {
                "start_time": 31.6340909,
                "end_time": 31.8181818,
                "pitch": 39,
                "velocity": 64,
                "duration": 0.1840909,
                "tempo": 120.0
            },
            {
                "start_time": 31.8340909,
                "end_time": 32.0318182,
                "pitch": 40,
                "velocity": 64,
                "duration": 0.1977273,
                "tempo": 120.0
            },
            {
                "start_time": 32.0477273,
                "end_time": 32.2454545,
                "pitch": 41,
                "velocity": 64,
                "duration": 0.1977273,
                "tempo": 120.0
            },
            {
                "start_time": 32.2613636,
                "end_time": 32.6795455,
                "pitch": 29,
                "velocity": 64,
                "duration": 0.4181818,
                "tempo": 120.0
            },
            {
                "start_time": 32.6954545,
                "end_time": 32.8795455,
                "pitch": 41,
                "velocity": 64,
                "duration": 0.1840909,
                "tempo": 120.0
            },
            {
                "start_time": 32.8954545,
                "end_time": 33.0977273,
                "pitch": 36,
                "velocity": 64,
                "duration": 0.2022727,
                "tempo": 120.0
            },
            {
                "start_time": 33.1136364,
                "end_time": 33.3113636,
                "pitch": 39,
                "velocity": 64,
                "duration": 0.1977273,
                "tempo": 120.0
            },
            {
                "start_time": 33.3272727,
                "end_time": 33.5227273,
                "pitch": 39,
                "velocity": 64,
                "duration": 0.1954545,
                "tempo": 120.0
            },
            {
                "start_time": 33.5409091,
                "end_time": 33.7409091,
                "pitch": 40,
                "velocity": 64,
                "duration": 0.2,
                "tempo": 120.0
            },
            {
                "start_time": 33.7568182,
                "end_time": 33.9409091,
                "pitch": 41,
                "velocity": 64,
                "duration": 0.1840909,
                "tempo": 120.0
            },
            {
                "start_time": 33.9590909,
                "end_time": 34.1545455,
                "pitch": 32,
                "velocity": 64,
                "duration": 0.1954545,
                "tempo": 120.0
            },
            {
                "start_time": 34.1704545,
                "end_time": 34.3681818,
                "pitch": 32,
                "velocity": 64,
                "duration": 0.1977273,
                "tempo": 120.0
            },
            {
                "start_time": 34.3840909,
                "end_time": 34.5840909,
                "pitch": 44,
                "velocity": 64,
                "duration": 0.2,
                "tempo": 120.0
            },
            {
                "start_time": 34.6022727,
                "end_time": 34.8022727,
                "pitch": 32,
                "velocity": 64,
                "duration": 0.2,
                "tempo": 120.0
            },
            {
                "start_time": 34.8204545,
                "end_time": 35.0068182,
                "pitch": 32,
                "velocity": 64,
                "duration": 0.1863636,
                "tempo": 120.0
            },
            {
                "start_time": 35.025,
                "end_time": 35.2295455,
                "pitch": 32,
                "velocity": 64,
                "duration": 0.2045455,
                "tempo": 120.0
            },
            {
                "start_time": 35.2477273,
                "end_time": 35.4386364,
                "pitch": 44,
                "velocity": 64,
                "duration": 0.1909091,
                "tempo": 120.0
            },
            {
                "start_time": 35.4545455,
                "end_time": 35.6454545,
                "pitch": 32,
                "velocity": 64,
                "duration": 0.1909091,
                "tempo": 120.0
            },
            {
                "start_time": 35.6613636,
                "end_time": 35.8613636,
                "pitch": 31,
                "velocity": 64,
                "duration": 0.2,
                "tempo": 120.0
            },
            {
                "start_time": 35.8795455,
                "end_time": 36.0636364,
                "pitch": 31,
                "velocity": 64,
                "duration": 0.1840909,
                "tempo": 120.0
            },
            {
                "start_time": 36.0795455,
                "end_time": 36.2772727,
                "pitch": 43,
                "velocity": 64,
                "duration": 0.1977273,
                "tempo": 120.0
            },
            {
                "start_time": 36.2931818,
                "end_time": 36.4886364,
                "pitch": 31,
                "velocity": 64,
                "duration": 0.1954545,
                "tempo": 120.0
            },
            {
                "start_time": 36.5045455,
                "end_time": 36.7068182,
                "pitch": 30,
                "velocity": 64,
                "duration": 0.2022727,
                "tempo": 120.0
            },
            {
                "start_time": 36.7227273,
                "end_time": 36.9227273,
                "pitch": 30,
                "velocity": 64,
                "duration": 0.2,
                "tempo": 120.0
            },
            {
                "start_time": 36.9409091,
                "end_time": 37.1272727,
                "pitch": 42,
                "velocity": 64,
                "duration": 0.1863636,
                "tempo": 120.0
            },
            {
                "start_time": 37.1454545,
                "end_time": 37.35,
                "pitch": 30,
                "velocity": 64,
                "duration": 0.2045455,
                "tempo": 120.0
            }
        ],
        "Oboe": [
            {
                "start_time": 1.6613636,
                "end_time": 1.7454545,
                "pitch": 53,
                "velocity": 51,
                "duration": 0.0840909,
                "tempo": 120.0
            },
            {
                "start_time": 1.7613636,
                "end_time": 1.8613636,
                "pitch": 56,
                "velocity": 51,
                "duration": 0.1,
                "tempo": 120.0
            },
            {
                "start_time": 1.8772727,
                "end_time": 1.9613636,
                "pitch": 58,
                "velocity": 51,
                "duration": 0.0840909,
                "tempo": 120.0
            },
            {
                "start_time": 1.9795455,
                "end_time": 2.0613636,
                "pitch": 56,
                "velocity": 51,
                "duration": 0.0818182,
                "tempo": 120.0
            },
            {
                "start_time": 2.0795455,
                "end_time": 2.275,
                "pitch": 53,
                "velocity": 51,
                "duration": 0.1954545,
                "tempo": 120.0
            },
            {
                "start_time": 2.2931818,
                "end_time": 2.3909091,
                "pitch": 53,
                "velocity": 51,
                "duration": 0.0977273,
                "tempo": 120.0
            },
            {
                "start_time": 2.4068182,
                "end_time": 2.4886364,
                "pitch": 56,
                "velocity": 51,
                "duration": 0.0818182,
                "tempo": 120.0
            },
            {
                "start_time": 2.5045455,
                "end_time": 2.5886364,
                "pitch": 58,
                "velocity": 51,
                "duration": 0.0840909,
                "tempo": 120.0
            },
            {
                "start_time": 2.6045455,
                "end_time": 2.8068182,
                "pitch": 56,
                "velocity": 51,
                "duration": 0.2022727,
                "tempo": 120.0
            },
            {
                "start_time": 2.8227273,
                "end_time": 2.9227273,
                "pitch": 53,
                "velocity": 51,
                "duration": 0.1,
                "tempo": 120.0
            },
            {
                "start_time": 2.9409091,
                "end_time": 3.35,
                "pitch": 51,
                "velocity": 51,
                "duration": 0.4090909,
                "tempo": 120.0
            },
            {
                "start_time": 3.3681818,
                "end_time": 3.4636364,
                "pitch": 53,
                "velocity": 51,
                "duration": 0.0954545,
                "tempo": 120.0
            },
            {
                "start_time": 3.4795455,
                "end_time": 3.5590909,
                "pitch": 56,
                "velocity": 51,
                "duration": 0.0795455,
                "tempo": 120.0
            },
            {
                "start_time": 3.575,
                "end_time": 3.6545455,
                "pitch": 58,
                "velocity": 51,
                "duration": 0.0795455,
                "tempo": 120.0
            },
            {
                "start_time": 3.6704545,
                "end_time": 3.7659091,
                "pitch": 56,
                "velocity": 51,
                "duration": 0.0954545,
                "tempo": 120.0
            },
            {
                "start_time": 3.7818182,
                "end_time": 3.9863636,
                "pitch": 53,
                "velocity": 51,
                "duration": 0.2045455,
                "tempo": 120.0
            },
            {
                "start_time": 4.0045455,
                "end_time": 4.0886364,
                "pitch": 53,
                "velocity": 51,
                "duration": 0.0840909,
                "tempo": 120.0
            },
            {
                "start_time": 4.1068182,
                "end_time": 4.1909091,
                "pitch": 56,
                "velocity": 51,
                "duration": 0.0840909,
                "tempo": 120.0
            },
            {
                "start_time": 4.2090909,
                "end_time": 4.3068182,
                "pitch": 58,
                "velocity": 51,
                "duration": 0.0977273,
                "tempo": 120.0
            },
            {
                "start_time": 4.325,
                "end_time": 4.5204545,
                "pitch": 56,
                "velocity": 51,
                "duration": 0.1954545,
                "tempo": 120.0
            },
            {
                "start_time": 4.5363636,
                "end_time": 4.6181818,
                "pitch": 53,
                "velocity": 51,
                "duration": 0.0818182,
                "tempo": 120.0
            },
            {
                "start_time": 4.6363636,
                "end_time": 5.0522727,
                "pitch": 51,
                "velocity": 51,
                "duration": 0.4159091,
                "tempo": 120.0
            },
            {
                "start_time": 5.0704545,
                "end_time": 5.1545455,
                "pitch": 53,
                "velocity": 51,
                "duration": 0.0840909,
                "tempo": 120.0
            },
            {
                "start_time": 5.1704545,
                "end_time": 5.2545455,
                "pitch": 56,
                "velocity": 51,
                "duration": 0.0840909,
                "tempo": 120.0
            },
            {
                "start_time": 5.2704545,
                "end_time": 5.3704545,
                "pitch": 58,
                "velocity": 51,
                "duration": 0.1,
                "tempo": 120.0
            },
            {
                "start_time": 5.3886364,
                "end_time": 5.4727273,
                "pitch": 56,
                "velocity": 51,
                "duration": 0.0840909,
                "tempo": 120.0
            },
            {
                "start_time": 5.4886364,
                "end_time": 5.6863636,
                "pitch": 53,
                "velocity": 51,
                "duration": 0.1977273,
                "tempo": 120.0
            },
            {
                "start_time": 5.7022727,
                "end_time": 5.7840909,
                "pitch": 53,
                "velocity": 51,
                "duration": 0.0818182,
                "tempo": 120.0
            },
            {
                "start_time": 5.8,
                "end_time": 5.8977273,
                "pitch": 56,
                "velocity": 51,
                "duration": 0.0977273,
                "tempo": 120.0
            },
            {
                "start_time": 5.9136364,
                "end_time": 5.9977273,
                "pitch": 58,
                "velocity": 51,
                "duration": 0.0840909,
                "tempo": 120.0
            },
            {
                "start_time": 6.0159091,
                "end_time": 6.2159091,
                "pitch": 56,
                "velocity": 51,
                "duration": 0.2,
                "tempo": 120.0
            },
            {
                "start_time": 6.2318182,
                "end_time": 6.3159091,
                "pitch": 53,
                "velocity": 51,
                "duration": 0.0840909,
                "tempo": 120.0
            },
            {
                "start_time": 6.3318182,
                "end_time": 6.7431818,
                "pitch": 51,
                "velocity": 51,
                "duration": 0.4113636,
                "tempo": 120.0
            },
            {
                "start_time": 6.7590909,
                "end_time": 6.8431818,
                "pitch": 53,
                "velocity": 51,
                "duration": 0.0840909,
                "tempo": 120.0
            },
            {
                "start_time": 6.8590909,
                "end_time": 6.9590909,
                "pitch": 56,
                "velocity": 51,
                "duration": 0.1,
                "tempo": 120.0
            },
            {
                "start_time": 6.9772727,
                "end_time": 7.0590909,
                "pitch": 58,
                "velocity": 51,
                "duration": 0.0818182,
                "tempo": 120.0
            },
            {
                "start_time": 7.0772727,
                "end_time": 7.1772727,
                "pitch": 56,
                "velocity": 51,
                "duration": 0.1,
                "tempo": 120.0
            },
            {
                "start_time": 7.1931818,
                "end_time": 7.3772727,
                "pitch": 53,
                "velocity": 51,
                "duration": 0.1840909,
                "tempo": 120.0
            },
            {
                "start_time": 7.3954545,
                "end_time": 7.4954545,
                "pitch": 53,
                "velocity": 51,
                "duration": 0.1,
                "tempo": 120.0
            },
            {
                "start_time": 7.5113636,
                "end_time": 7.5954545,
                "pitch": 56,
                "velocity": 51,
                "duration": 0.0840909,
                "tempo": 120.0
            },
            {
                "start_time": 7.6113636,
                "end_time": 7.7113636,
                "pitch": 58,
                "velocity": 51,
                "duration": 0.1,
                "tempo": 120.0
            },
            {
                "start_time": 7.7272727,
                "end_time": 7.9068182,
                "pitch": 56,
                "velocity": 51,
                "duration": 0.1795455,
                "tempo": 120.0
            },
            {
                "start_time": 7.9227273,
                "end_time": 8.0227273,
                "pitch": 53,
                "velocity": 51,
                "duration": 0.1,
                "tempo": 120.0
            },
            {
                "start_time": 8.0386364,
                "end_time": 8.4386364,
                "pitch": 51,
                "velocity": 51,
                "duration": 0.4,
                "tempo": 120.0
            },
            {
                "start_time": 8.4568182,
                "end_time": 8.5545455,
                "pitch": 53,
                "velocity": 51,
                "duration": 0.0977273,
                "tempo": 120.0
            },
            {
                "start_time": 8.5704545,
                "end_time": 8.6522727,
                "pitch": 56,
                "velocity": 51,
                "duration": 0.0818182,
                "tempo": 120.0
            },
            {
                "start_time": 8.6704545,
                "end_time": 8.7681818,
                "pitch": 58,
                "velocity": 51,
                "duration": 0.0977273,
                "tempo": 120.0
            },
            {
                "start_time": 8.7840909,
                "end_time": 8.8659091,
                "pitch": 56,
                "velocity": 51,
                "duration": 0.0818182,
                "tempo": 120.0
            },
            {
                "start_time": 8.8818182,
                "end_time": 9.0840909,
                "pitch": 53,
                "velocity": 51,
                "duration": 0.2022727,
                "tempo": 120.0
            },
            {
                "start_time": 9.1,
                "end_time": 9.1840909,
                "pitch": 53,
                "velocity": 51,
                "duration": 0.0840909,
                "tempo": 120.0
            },
            {
                "start_time": 9.2,
                "end_time": 9.3,
                "pitch": 56,
                "velocity": 51,
                "duration": 0.1,
                "tempo": 120.0
            },
            {
                "start_time": 9.3181818,
                "end_time": 9.4,
                "pitch": 58,
                "velocity": 51,
                "duration": 0.0818182,
                "tempo": 120.0
            },
            {
                "start_time": 9.4181818,
                "end_time": 9.6181818,
                "pitch": 56,
                "velocity": 51,
                "duration": 0.2,
                "tempo": 120.0
            },
            {
                "start_time": 9.6363636,
                "end_time": 9.7181818,
                "pitch": 53,
                "velocity": 51,
                "duration": 0.0818182,
                "tempo": 120.0
            },
            {
                "start_time": 9.7363636,
                "end_time": 10.1454545,
                "pitch": 51,
                "velocity": 51,
                "duration": 0.4090909,
                "tempo": 120.0
            },
            {
                "start_time": 10.1613636,
                "end_time": 10.2454545,
                "pitch": 53,
                "velocity": 51,
                "duration": 0.0840909,
                "tempo": 120.0
            },
            {
                "start_time": 10.2613636,
                "end_time": 10.3613636,
                "pitch": 56,
                "velocity": 51,
                "duration": 0.1,
                "tempo": 120.0
            },
            {
                "start_time": 10.3795455,
                "end_time": 10.4636364,
                "pitch": 58,
                "velocity": 51,
                "duration": 0.0840909,
                "tempo": 120.0
            },
            {
                "start_time": 10.4795455,
                "end_time": 10.5636364,
                "pitch": 56,
                "velocity": 51,
                "duration": 0.0840909,
                "tempo": 120.0
            },
            {
                "start_time": 10.5795455,
                "end_time": 10.7772727,
                "pitch": 53,
                "velocity": 51,
                "duration": 0.1977273,
                "tempo": 120.0
            },
            {
                "start_time": 10.7931818,
                "end_time": 10.8909091,
                "pitch": 53,
                "velocity": 51,
                "duration": 0.0977273,
                "tempo": 120.0
            },
            {
                "start_time": 10.9068182,
                "end_time": 10.9886364,
                "pitch": 56,
                "velocity": 51,
                "duration": 0.0818182,
                "tempo": 120.0
            },
            {
                "start_time": 11.0068182,
                "end_time": 11.0886364,
                "pitch": 58,
                "velocity": 51,
                "duration": 0.0818182,
                "tempo": 120.0
            },
            {
                "start_time": 11.1068182,
                "end_time": 11.3068182,
                "pitch": 56,
                "velocity": 51,
                "duration": 0.2,
                "tempo": 120.0
            },
            {
                "start_time": 11.325,
                "end_time": 11.425,
                "pitch": 53,
                "velocity": 51,
                "duration": 0.1,
                "tempo": 120.0
            },
            {
                "start_time": 11.4409091,
                "end_time": 11.8522727,
                "pitch": 51,
                "velocity": 51,
                "duration": 0.4113636,
                "tempo": 120.0
            },
            {
                "start_time": 11.8681818,
                "end_time": 11.9681818,
                "pitch": 53,
                "velocity": 51,
                "duration": 0.1,
                "tempo": 120.0
            },
            {
                "start_time": 11.9840909,
                "end_time": 12.0659091,
                "pitch": 56,
                "velocity": 51,
                "duration": 0.0818182,
                "tempo": 120.0
            },
            {
                "start_time": 12.0818182,
                "end_time": 12.1636364,
                "pitch": 58,
                "velocity": 51,
                "duration": 0.0818182,
                "tempo": 120.0
            },
            {
                "start_time": 12.1795455,
                "end_time": 12.2795455,
                "pitch": 56,
                "velocity": 51,
                "duration": 0.1,
                "tempo": 120.0
            },
            {
                "start_time": 12.2954545,
                "end_time": 12.4954545,
                "pitch": 53,
                "velocity": 51,
                "duration": 0.2,
                "tempo": 120.0
            },
            {
                "start_time": 12.5113636,
                "end_time": 12.5954545,
                "pitch": 53,
                "velocity": 51,
                "duration": 0.0840909,
                "tempo": 120.0
            },
            {
                "start_time": 12.6136364,
                "end_time": 12.6954545,
                "pitch": 56,
                "velocity": 51,
                "duration": 0.0818182,
                "tempo": 120.0
            },
            {
                "start_time": 12.7136364,
                "end_time": 12.8090909,
                "pitch": 58,
                "velocity": 51,
                "duration": 0.0954545,
                "tempo": 120.0
            },
            {
                "start_time": 12.825,
                "end_time": 13.0159091,
                "pitch": 56,
                "velocity": 51,
                "duration": 0.1909091,
                "tempo": 120.0
            },
            {
                "start_time": 13.0318182,
                "end_time": 13.1113636,
                "pitch": 53,
                "velocity": 51,
                "duration": 0.0795455,
                "tempo": 120.0
            },
            {
                "start_time": 13.1272727,
                "end_time": 13.5545455,
                "pitch": 51,
                "velocity": 51,
                "duration": 0.4272727,
                "tempo": 120.0
            },
            {
                "start_time": 13.5704545,
                "end_time": 13.6545455,
                "pitch": 53,
                "velocity": 51,
                "duration": 0.0840909,
                "tempo": 120.0
            },
            {
                "start_time": 13.6727273,
                "end_time": 13.7545455,
                "pitch": 56,
                "velocity": 51,
                "duration": 0.0818182,
                "tempo": 120.0
            },
            {
                "start_time": 13.7727273,
                "end_time": 13.8727273,
                "pitch": 58,
                "velocity": 51,
                "duration": 0.1,
                "tempo": 120.0
            },
            {
                "start_time": 13.8886364,
                "end_time": 13.9727273,
                "pitch": 56,
                "velocity": 51,
                "duration": 0.0840909,
                "tempo": 120.0
            },
            {
                "start_time": 13.9909091,
                "end_time": 14.1863636,
                "pitch": 53,
                "velocity": 51,
                "duration": 0.1954545,
                "tempo": 120.0
            },
            {
                "start_time": 14.2022727,
                "end_time": 14.2840909,
                "pitch": 53,
                "velocity": 51,
                "duration": 0.0818182,
                "tempo": 120.0
            },
            {
                "start_time": 14.3022727,
                "end_time": 14.4,
                "pitch": 56,
                "velocity": 51,
                "duration": 0.0977273,
                "tempo": 120.0
            },
            {
                "start_time": 14.4159091,
                "end_time": 14.5,
                "pitch": 58,
                "velocity": 51,
                "duration": 0.0840909,
                "tempo": 120.0
            },
            {
                "start_time": 14.5181818,
                "end_time": 14.7227273,
                "pitch": 56,
                "velocity": 51,
                "duration": 0.2045455,
                "tempo": 120.0
            },
            {
                "start_time": 14.7409091,
                "end_time": 14.825,
                "pitch": 53,
                "velocity": 51,
                "duration": 0.0840909,
                "tempo": 120.0
            },
            {
                "start_time": 14.8431818,
                "end_time": 15.2409091,
                "pitch": 51,
                "velocity": 51,
                "duration": 0.3977273,
                "tempo": 120.0
            },
            {
                "start_time": 15.2568182,
                "end_time": 15.3409091,
                "pitch": 53,
                "velocity": 51,
                "duration": 0.0840909,
                "tempo": 120.0
            },
            {
                "start_time": 15.3568182,
                "end_time": 15.4590909,
                "pitch": 56,
                "velocity": 51,
                "duration": 0.1022727,
                "tempo": 120.0
            },
            {
                "start_time": 15.475,
                "end_time": 15.5590909,
                "pitch": 58,
                "velocity": 51,
                "duration": 0.0840909,
                "tempo": 120.0
            },
            {
                "start_time": 15.575,
                "end_time": 15.675,
                "pitch": 56,
                "velocity": 51,
                "duration": 0.1,
                "tempo": 120.0
            },
            {
                "start_time": 15.6931818,
                "end_time": 15.8795455,
                "pitch": 53,
                "velocity": 51,
                "duration": 0.1863636,
                "tempo": 120.0
            },
            {
                "start_time": 15.8977273,
                "end_time": 16.0,
                "pitch": 53,
                "velocity": 51,
                "duration": 0.1022727,
                "tempo": 120.0
            },
            {
                "start_time": 16.0159091,
                "end_time": 16.1022727,
                "pitch": 56,
                "velocity": 51,
                "duration": 0.0863636,
                "tempo": 120.0
            },
            {
                "start_time": 16.1204545,
                "end_time": 16.2181818,
                "pitch": 58,
                "velocity": 51,
                "duration": 0.0977273,
                "tempo": 120.0
            },
            {
                "start_time": 16.2340909,
                "end_time": 16.4159091,
                "pitch": 56,
                "velocity": 51,
                "duration": 0.1818182,
                "tempo": 120.0
            },
            {
                "start_time": 16.4318182,
                "end_time": 16.5295455,
                "pitch": 53,
                "velocity": 51,
                "duration": 0.0977273,
                "tempo": 120.0
            },
            {
                "start_time": 16.5454545,
                "end_time": 16.9477273,
                "pitch": 51,
                "velocity": 51,
                "duration": 0.4022727,
                "tempo": 120.0
            },
            {
                "start_time": 16.9636364,
                "end_time": 17.0590909,
                "pitch": 53,
                "velocity": 51,
                "duration": 0.0954545,
                "tempo": 120.0
            },
            {
                "start_time": 17.0772727,
                "end_time": 17.1568182,
                "pitch": 56,
                "velocity": 51,
                "duration": 0.0795455,
                "tempo": 120.0
            },
            {
                "start_time": 17.1727273,
                "end_time": 17.2681818,
                "pitch": 58,
                "velocity": 51,
                "duration": 0.0954545,
                "tempo": 120.0
            },
            {
                "start_time": 17.2840909,
                "end_time": 17.3636364,
                "pitch": 56,
                "velocity": 51,
                "duration": 0.0795455,
                "tempo": 120.0
            },
            {
                "start_time": 17.3795455,
                "end_time": 17.5840909,
                "pitch": 53,
                "velocity": 51,
                "duration": 0.2045455,
                "tempo": 120.0
            },
            {
                "start_time": 17.6,
                "end_time": 17.6863636,
                "pitch": 53,
                "velocity": 51,
                "duration": 0.0863636,
                "tempo": 120.0
            },
            {
                "start_time": 17.7022727,
                "end_time": 17.8045455,
                "pitch": 56,
                "velocity": 51,
                "duration": 0.1022727,
                "tempo": 120.0
            },
            {
                "start_time": 17.8227273,
                "end_time": 17.9068182,
                "pitch": 58,
                "velocity": 51,
                "duration": 0.0840909,
                "tempo": 120.0
            },
            {
                "start_time": 17.9227273,
                "end_time": 18.125,
                "pitch": 56,
                "velocity": 51,
                "duration": 0.2022727,
                "tempo": 120.0
            },
            {
                "start_time": 18.1409091,
                "end_time": 18.225,
                "pitch": 53,
                "velocity": 51,
                "duration": 0.0840909,
                "tempo": 120.0
            },
            {
                "start_time": 18.2409091,
                "end_time": 18.6386364,
                "pitch": 51,
                "velocity": 51,
                "duration": 0.3977273,
                "tempo": 120.0
            },
            {
                "start_time": 18.6545455,
                "end_time": 18.7409091,
                "pitch": 53,
                "velocity": 51,
                "duration": 0.0863636,
                "tempo": 120.0
            },
            {
                "start_time": 18.7568182,
                "end_time": 18.8590909,
                "pitch": 56,
                "velocity": 51,
                "duration": 0.1022727,
                "tempo": 120.0
            },
            {
                "start_time": 18.8772727,
                "end_time": 18.9636364,
                "pitch": 58,
                "velocity": 51,
                "duration": 0.0863636,
                "tempo": 120.0
            },
            {
                "start_time": 18.9795455,
                "end_time": 19.0659091,
                "pitch": 56,
                "velocity": 51,
                "duration": 0.0863636,
                "tempo": 120.0
            },
            {
                "start_time": 19.0818182,
                "end_time": 19.2795455,
                "pitch": 53,
                "velocity": 51,
                "duration": 0.1977273,
                "tempo": 120.0
            },
            {
                "start_time": 19.2954545,
                "end_time": 19.3931818,
                "pitch": 53,
                "velocity": 51,
                "duration": 0.0977273,
                "tempo": 120.0
            },
            {
                "start_time": 19.4113636,
                "end_time": 19.4931818,
                "pitch": 56,
                "velocity": 51,
                "duration": 0.0818182,
                "tempo": 120.0
            },
            {
                "start_time": 19.5090909,
                "end_time": 19.5931818,
                "pitch": 58,
                "velocity": 51,
                "duration": 0.0840909,
                "tempo": 120.0
            },
            {
                "start_time": 19.6090909,
                "end_time": 19.8090909,
                "pitch": 56,
                "velocity": 51,
                "duration": 0.2,
                "tempo": 120.0
            },
            {
                "start_time": 19.8272727,
                "end_time": 19.9272727,
                "pitch": 53,
                "velocity": 51,
                "duration": 0.1,
                "tempo": 120.0
            },
            {
                "start_time": 19.9431818,
                "end_time": 20.3454545,
                "pitch": 51,
                "velocity": 51,
                "duration": 0.4022727,
                "tempo": 120.0
            },
            {
                "start_time": 20.3613636,
                "end_time": 20.4613636,
                "pitch": 53,
                "velocity": 51,
                "duration": 0.1,
                "tempo": 120.0
            },
            {
                "start_time": 20.4772727,
                "end_time": 20.5590909,
                "pitch": 56,
                "velocity": 51,
                "duration": 0.0818182,
                "tempo": 120.0
            },
            {
                "start_time": 20.575,
                "end_time": 20.6568182,
                "pitch": 58,
                "velocity": 51,
                "duration": 0.0818182,
                "tempo": 120.0
            },
            {
                "start_time": 20.6727273,
                "end_time": 20.7727273,
                "pitch": 56,
                "velocity": 51,
                "duration": 0.1,
                "tempo": 120.0
            },
            {
                "start_time": 20.7886364,
                "end_time": 20.9931818,
                "pitch": 53,
                "velocity": 51,
                "duration": 0.2045455,
                "tempo": 120.0
            },
            {
                "start_time": 21.0090909,
                "end_time": 21.0954545,
                "pitch": 53,
                "velocity": 51,
                "duration": 0.0863636,
                "tempo": 120.0
            },
            {
                "start_time": 21.1113636,
                "end_time": 21.1977273,
                "pitch": 56,
                "velocity": 51,
                "duration": 0.0863636,
                "tempo": 120.0
            },
            {
                "start_time": 21.2159091,
                "end_time": 21.3113636,
                "pitch": 58,
                "velocity": 51,
                "duration": 0.0954545,
                "tempo": 120.0
            },
            {
                "start_time": 21.3272727,
                "end_time": 21.5181818,
                "pitch": 56,
                "velocity": 51,
                "duration": 0.1909091,
                "tempo": 120.0
            },
            {
                "start_time": 21.5340909,
                "end_time": 21.6136364,
                "pitch": 53,
                "velocity": 51,
                "duration": 0.0795455,
                "tempo": 120.0
            },
            {
                "start_time": 21.6295455,
                "end_time": 22.0477273,
                "pitch": 51,
                "velocity": 51,
                "duration": 0.4181818,
                "tempo": 120.0
            },
            {
                "start_time": 22.0636364,
                "end_time": 22.1477273,
                "pitch": 53,
                "velocity": 51,
                "duration": 0.0840909,
                "tempo": 120.0
            },
            {
                "start_time": 22.1659091,
                "end_time": 22.2477273,
                "pitch": 56,
                "velocity": 51,
                "duration": 0.0818182,
                "tempo": 120.0
            },
            {
                "start_time": 22.2659091,
                "end_time": 22.3659091,
                "pitch": 58,
                "velocity": 51,
                "duration": 0.1,
                "tempo": 120.0
            },
            {
                "start_time": 22.3818182,
                "end_time": 22.4659091,
                "pitch": 56,
                "velocity": 51,
                "duration": 0.0840909,
                "tempo": 120.0
            },
            {
                "start_time": 22.4818182,
                "end_time": 22.6840909,
                "pitch": 53,
                "velocity": 51,
                "duration": 0.2022727,
                "tempo": 120.0
            },
            {
                "start_time": 22.7,
                "end_time": 22.7840909,
                "pitch": 53,
                "velocity": 51,
                "duration": 0.0840909,
                "tempo": 120.0
            },
            {
                "start_time": 22.8,
                "end_time": 22.9022727,
                "pitch": 56,
                "velocity": 51,
                "duration": 0.1022727,
                "tempo": 120.0
            },
            {
                "start_time": 22.9181818,
                "end_time": 23.0022727,
                "pitch": 58,
                "velocity": 51,
                "duration": 0.0840909,
                "tempo": 120.0
            },
            {
                "start_time": 23.0181818,
                "end_time": 23.2181818,
                "pitch": 56,
                "velocity": 51,
                "duration": 0.2,
                "tempo": 120.0
            },
            {
                "start_time": 23.2363636,
                "end_time": 23.3204545,
                "pitch": 53,
                "velocity": 51,
                "duration": 0.0840909,
                "tempo": 120.0
            },
            {
                "start_time": 23.3363636,
                "end_time": 23.7340909,
                "pitch": 51,
                "velocity": 51,
                "duration": 0.3977273,
                "tempo": 120.0
            },
            {
                "start_time": 23.75,
                "end_time": 23.8363636,
                "pitch": 53,
                "velocity": 51,
                "duration": 0.0863636,
                "tempo": 120.0
            },
            {
                "start_time": 23.8522727,
                "end_time": 23.9545455,
                "pitch": 56,
                "velocity": 51,
                "duration": 0.1022727,
                "tempo": 120.0
            },
            {
                "start_time": 23.9727273,
                "end_time": 24.0568182,
                "pitch": 58,
                "velocity": 51,
                "duration": 0.0840909,
                "tempo": 120.0
            },
            {
                "start_time": 24.075,
                "end_time": 24.1772727,
                "pitch": 56,
                "velocity": 51,
                "duration": 0.1022727,
                "tempo": 120.0
            },
            {
                "start_time": 24.1954545,
                "end_time": 24.3795455,
                "pitch": 53,
                "velocity": 51,
                "duration": 0.1840909,
                "tempo": 120.0
            },
            {
                "start_time": 24.3954545,
                "end_time": 24.4954545,
                "pitch": 53,
                "velocity": 51,
                "duration": 0.1,
                "tempo": 120.0
            },
            {
                "start_time": 24.5136364,
                "end_time": 24.5954545,
                "pitch": 56,
                "velocity": 51,
                "duration": 0.0818182,
                "tempo": 120.0
            },
            {
                "start_time": 24.6136364,
                "end_time": 24.7113636,
                "pitch": 58,
                "velocity": 51,
                "duration": 0.0977273,
                "tempo": 120.0
            },
            {
                "start_time": 24.7272727,
                "end_time": 24.9090909,
                "pitch": 56,
                "velocity": 51,
                "duration": 0.1818182,
                "tempo": 120.0
            },
            {
                "start_time": 24.925,
                "end_time": 25.0227273,
                "pitch": 53,
                "velocity": 51,
                "duration": 0.0977273,
                "tempo": 120.0
            },
            {
                "start_time": 25.0386364,
                "end_time": 25.4409091,
                "pitch": 51,
                "velocity": 51,
                "duration": 0.4022727,
                "tempo": 120.0
            },
            {
                "start_time": 25.4568182,
                "end_time": 25.5568182,
                "pitch": 53,
                "velocity": 51,
                "duration": 0.1,
                "tempo": 120.0
            },
            {
                "start_time": 25.5727273,
                "end_time": 25.6545455,
                "pitch": 56,
                "velocity": 51,
                "duration": 0.0818182,
                "tempo": 120.0
            },
            {
                "start_time": 25.6704545,
                "end_time": 25.7681818,
                "pitch": 58,
                "velocity": 51,
                "duration": 0.0977273,
                "tempo": 120.0
            },
            {
                "start_time": 25.7863636,
                "end_time": 25.8681818,
                "pitch": 56,
                "velocity": 51,
                "duration": 0.0818182,
                "tempo": 120.0
            },
            {
                "start_time": 25.8840909,
                "end_time": 26.0840909,
                "pitch": 53,
                "velocity": 51,
                "duration": 0.2,
                "tempo": 120.0
            },
            {
                "start_time": 26.1,
                "end_time": 26.1840909,
                "pitch": 53,
                "velocity": 51,
                "duration": 0.0840909,
                "tempo": 120.0
            },
            {
                "start_time": 26.2022727,
                "end_time": 26.3022727,
                "pitch": 56,
                "velocity": 51,
                "duration": 0.1,
                "tempo": 120.0
            },
            {
                "start_time": 26.3181818,
                "end_time": 26.4022727,
                "pitch": 58,
                "velocity": 51,
                "duration": 0.0840909,
                "tempo": 120.0
            },
            {
                "start_time": 26.4181818,
                "end_time": 26.6204545,
                "pitch": 56,
                "velocity": 51,
                "duration": 0.2022727,
                "tempo": 120.0
            },
            {
                "start_time": 26.6363636,
                "end_time": 26.7204545,
                "pitch": 53,
                "velocity": 51,
                "duration": 0.0840909,
                "tempo": 120.0
            },
            {
                "start_time": 26.7363636,
                "end_time": 27.1454545,
                "pitch": 51,
                "velocity": 51,
                "duration": 0.4090909,
                "tempo": 120.0
            },
            {
                "start_time": 27.1636364,
                "end_time": 27.2454545,
                "pitch": 53,
                "velocity": 51,
                "duration": 0.0818182,
                "tempo": 120.0
            },
            {
                "start_time": 27.2636364,
                "end_time": 27.3636364,
                "pitch": 56,
                "velocity": 51,
                "duration": 0.1,
                "tempo": 120.0
            },
            {
                "start_time": 27.3795455,
                "end_time": 27.4636364,
                "pitch": 58,
                "velocity": 51,
                "duration": 0.0840909,
                "tempo": 120.0
            },
            {
                "start_time": 27.4818182,
                "end_time": 27.5636364,
                "pitch": 56,
                "velocity": 51,
                "duration": 0.0818182,
                "tempo": 120.0
            },
            {
                "start_time": 27.5818182,
                "end_time": 27.7772727,
                "pitch": 53,
                "velocity": 51,
                "duration": 0.1954545,
                "tempo": 120.0
            },
            {
                "start_time": 27.7931818,
                "end_time": 27.8931818,
                "pitch": 53,
                "velocity": 51,
                "duration": 0.1,
                "tempo": 120.0
            },
            {
                "start_time": 27.9090909,
                "end_time": 27.9909091,
                "pitch": 56,
                "velocity": 51,
                "duration": 0.0818182,
                "tempo": 120.0
            },
            {
                "start_time": 28.0068182,
                "end_time": 28.0909091,
                "pitch": 58,
                "velocity": 51,
                "duration": 0.0840909,
                "tempo": 120.0
            },
            {
                "start_time": 28.1068182,
                "end_time": 28.3090909,
                "pitch": 56,
                "velocity": 51,
                "duration": 0.2022727,
                "tempo": 120.0
            },
            {
                "start_time": 28.325,
                "end_time": 28.425,
                "pitch": 53,
                "velocity": 51,
                "duration": 0.1,
                "tempo": 120.0
            },
            {
                "start_time": 28.4431818,
                "end_time": 28.8431818,
                "pitch": 51,
                "velocity": 51,
                "duration": 0.4,
                "tempo": 120.0
            },
            {
                "start_time": 28.8613636,
                "end_time": 28.9590909,
                "pitch": 53,
                "velocity": 51,
                "duration": 0.0977273,
                "tempo": 120.0
            },
            {
                "start_time": 28.975,
                "end_time": 29.0568182,
                "pitch": 56,
                "velocity": 51,
                "duration": 0.0818182,
                "tempo": 120.0
            },
            {
                "start_time": 29.0727273,
                "end_time": 29.1545455,
                "pitch": 58,
                "velocity": 51,
                "duration": 0.0818182,
                "tempo": 120.0
            },
            {
                "start_time": 29.1727273,
                "end_time": 29.2704545,
                "pitch": 56,
                "velocity": 51,
                "duration": 0.0977273,
                "tempo": 120.0
            },
            {
                "start_time": 29.2863636,
                "end_time": 29.4909091,
                "pitch": 53,
                "velocity": 51,
                "duration": 0.2045455,
                "tempo": 120.0
            },
            {
                "start_time": 29.5090909,
                "end_time": 29.5931818,
                "pitch": 53,
                "velocity": 51,
                "duration": 0.0840909,
                "tempo": 120.0
            },
            {
                "start_time": 29.6113636,
                "end_time": 29.6954545,
                "pitch": 56,
                "velocity": 51,
                "duration": 0.0840909,
                "tempo": 120.0
            },
            {
                "start_time": 29.7136364,
                "end_time": 29.8090909,
                "pitch": 58,
                "velocity": 51,
                "duration": 0.0954545,
                "tempo": 120.0
            },
            {
                "start_time": 29.825,
                "end_time": 30.0159091,
                "pitch": 56,
                "velocity": 51,
                "duration": 0.1909091,
                "tempo": 120.0
            },
            {
                "start_time": 30.0318182,
                "end_time": 30.1113636,
                "pitch": 53,
                "velocity": 51,
                "duration": 0.0795455,
                "tempo": 120.0
            },
            {
                "start_time": 30.1272727,
                "end_time": 30.5545455,
                "pitch": 51,
                "velocity": 51,
                "duration": 0.4272727,
                "tempo": 120.0
            },
            {
                "start_time": 30.5727273,
                "end_time": 30.6568182,
                "pitch": 53,
                "velocity": 51,
                "duration": 0.0840909,
                "tempo": 120.0
            },
            {
                "start_time": 30.6727273,
                "end_time": 30.7568182,
                "pitch": 56,
                "velocity": 51,
                "duration": 0.0840909,
                "tempo": 120.0
            },
            {
                "start_time": 30.7727273,
                "end_time": 30.8727273,
                "pitch": 58,
                "velocity": 51,
                "duration": 0.1,
                "tempo": 120.0
            },
            {
                "start_time": 30.8909091,
                "end_time": 30.9727273,
                "pitch": 56,
                "velocity": 51,
                "duration": 0.0818182,
                "tempo": 120.0
            },
            {
                "start_time": 30.9909091,
                "end_time": 31.1863636,
                "pitch": 53,
                "velocity": 51,
                "duration": 0.1954545,
                "tempo": 120.0
            },
            {
                "start_time": 31.2045455,
                "end_time": 31.2863636,
                "pitch": 53,
                "velocity": 51,
                "duration": 0.0818182,
                "tempo": 120.0
            },
            {
                "start_time": 31.3022727,
                "end_time": 31.4,
                "pitch": 56,
                "velocity": 51,
                "duration": 0.0977273,
                "tempo": 120.0
            },
            {
                "start_time": 31.4159091,
                "end_time": 31.5,
                "pitch": 58,
                "velocity": 51,
                "duration": 0.0840909,
                "tempo": 120.0
            },
            {
                "start_time": 31.5159091,
                "end_time": 31.7181818,
                "pitch": 56,
                "velocity": 51,
                "duration": 0.2022727,
                "tempo": 120.0
            },
            {
                "start_time": 31.7340909,
                "end_time": 31.8181818,
                "pitch": 53,
                "velocity": 51,
                "duration": 0.0840909,
                "tempo": 120.0
            },
            {
                "start_time": 31.8340909,
                "end_time": 32.2454545,
                "pitch": 51,
                "velocity": 51,
                "duration": 0.4113636,
                "tempo": 120.0
            },
            {
                "start_time": 32.2613636,
                "end_time": 32.3431818,
                "pitch": 53,
                "velocity": 51,
                "duration": 0.0818182,
                "tempo": 120.0
            },
            {
                "start_time": 32.3613636,
                "end_time": 32.4613636,
                "pitch": 56,
                "velocity": 51,
                "duration": 0.1,
                "tempo": 120.0
            },
            {
                "start_time": 32.4772727,
                "end_time": 32.5613636,
                "pitch": 58,
                "velocity": 51,
                "duration": 0.0840909,
                "tempo": 120.0
            },
            {
                "start_time": 32.5795455,
                "end_time": 32.6795455,
                "pitch": 56,
                "velocity": 51,
                "duration": 0.1,
                "tempo": 120.0
            },
            {
                "start_time": 32.6954545,
                "end_time": 32.8795455,
                "pitch": 53,
                "velocity": 51,
                "duration": 0.1840909,
                "tempo": 120.0
            },
            {
                "start_time": 32.8954545,
                "end_time": 32.9977273,
                "pitch": 53,
                "velocity": 51,
                "duration": 0.1022727,
                "tempo": 120.0
            },
            {
                "start_time": 33.0136364,
                "end_time": 33.0977273,
                "pitch": 56,
                "velocity": 51,
                "duration": 0.0840909,
                "tempo": 120.0
            },
            {
                "start_time": 33.1136364,
                "end_time": 33.2136364,
                "pitch": 58,
                "velocity": 51,
                "duration": 0.1,
                "tempo": 120.0
            },
            {
                "start_time": 33.2295455,
                "end_time": 33.4090909,
                "pitch": 56,
                "velocity": 51,
                "duration": 0.1795455,
                "tempo": 120.0
            },
            {
                "start_time": 33.425,
                "end_time": 33.5227273,
                "pitch": 53,
                "velocity": 51,
                "duration": 0.0977273,
                "tempo": 120.0
            },
            {
                "start_time": 33.5409091,
                "end_time": 33.9409091,
                "pitch": 51,
                "velocity": 51,
                "duration": 0.4,
                "tempo": 120.0
            },
            {
                "start_time": 33.9590909,
                "end_time": 34.0568182,
                "pitch": 53,
                "velocity": 51,
                "duration": 0.0977273,
                "tempo": 120.0
            },
            {
                "start_time": 34.0727273,
                "end_time": 34.1545455,
                "pitch": 56,
                "velocity": 51,
                "duration": 0.0818182,
                "tempo": 120.0
            },
            {
                "start_time": 34.1704545,
                "end_time": 34.2704545,
                "pitch": 58,
                "velocity": 51,
                "duration": 0.1,
                "tempo": 120.0
            },
            {
                "start_time": 34.2863636,
                "end_time": 34.3681818,
                "pitch": 56,
                "velocity": 51,
                "duration": 0.0818182,
                "tempo": 120.0
            },
            {
                "start_time": 34.3840909,
                "end_time": 34.5840909,
                "pitch": 53,
                "velocity": 51,
                "duration": 0.2,
                "tempo": 120.0
            },
            {
                "start_time": 34.6022727,
                "end_time": 34.6863636,
                "pitch": 53,
                "velocity": 51,
                "duration": 0.0840909,
                "tempo": 120.0
            },
            {
                "start_time": 34.7022727,
                "end_time": 34.8022727,
                "pitch": 56,
                "velocity": 51,
                "duration": 0.1,
                "tempo": 120.0
            },
            {
                "start_time": 34.8204545,
                "end_time": 34.9045455,
                "pitch": 58,
                "velocity": 51,
                "duration": 0.0840909,
                "tempo": 120.0
            },
            {
                "start_time": 34.9227273,
                "end_time": 35.1272727,
                "pitch": 56,
                "velocity": 51,
                "duration": 0.2045455,
                "tempo": 120.0
            },
            {
                "start_time": 35.1431818,
                "end_time": 35.2295455,
                "pitch": 53,
                "velocity": 51,
                "duration": 0.0863636,
                "tempo": 120.0
            },
            {
                "start_time": 35.2477273,
                "end_time": 35.6454545,
                "pitch": 51,
                "velocity": 51,
                "duration": 0.3977273,
                "tempo": 120.0
            },
            {
                "start_time": 35.6613636,
                "end_time": 35.7454545,
                "pitch": 53,
                "velocity": 51,
                "duration": 0.0840909,
                "tempo": 120.0
            },
            {
                "start_time": 35.7613636,
                "end_time": 35.8613636,
                "pitch": 56,
                "velocity": 51,
                "duration": 0.1,
                "tempo": 120.0
            },
            {
                "start_time": 35.8795455,
                "end_time": 35.9613636,
                "pitch": 58,
                "velocity": 51,
                "duration": 0.0818182,
                "tempo": 120.0
            },
            {
                "start_time": 35.9795455,
                "end_time": 36.0636364,
                "pitch": 56,
                "velocity": 51,
                "duration": 0.0840909,
                "tempo": 120.0
            },
            {
                "start_time": 36.0795455,
                "end_time": 36.2772727,
                "pitch": 53,
                "velocity": 51,
                "duration": 0.1977273,
                "tempo": 120.0
            },
            {
                "start_time": 36.2931818,
                "end_time": 36.3909091,
                "pitch": 53,
                "velocity": 51,
                "duration": 0.0977273,
                "tempo": 120.0
            },
            {
                "start_time": 36.4068182,
                "end_time": 36.4886364,
                "pitch": 56,
                "velocity": 51,
                "duration": 0.0818182,
                "tempo": 120.0
            },
            {
                "start_time": 36.5045455,
                "end_time": 36.5886364,
                "pitch": 58,
                "velocity": 51,
                "duration": 0.0840909,
                "tempo": 120.0
            },
            {
                "start_time": 36.6068182,
                "end_time": 36.8068182,
                "pitch": 56,
                "velocity": 51,
                "duration": 0.2,
                "tempo": 120.0
            },
            {
                "start_time": 36.8227273,
                "end_time": 36.9227273,
                "pitch": 53,
                "velocity": 51,
                "duration": 0.1,
                "tempo": 120.0
            },
            {
                "start_time": 36.9409091,
                "end_time": 37.35,
                "pitch": 51,
                "velocity": 51,
                "duration": 0.4090909,
                "tempo": 120.0
            }
        ],
        "Clarinet": [
            {
                "start_time": 0.0159091,
                "end_time": 0.0318182,
                "pitch": 81,
                "velocity": 64,
                "duration": 0.0159091,
                "tempo": 120.0
            },
            {
                "start_time": 3.4477273,
                "end_time": 4.0545455,
                "pitch": 53,
                "velocity": 64,
                "duration": 0.6068182,
                "tempo": 120.0
            },
            {
                "start_time": 4.0727273,
                "end_time": 4.4704545,
                "pitch": 53,
                "velocity": 64,
                "duration": 0.3977273,
                "tempo": 120.0
            },
            {
                "start_time": 4.5045455,
                "end_time": 4.5863636,
                "pitch": 51,
                "velocity": 64,
                "duration": 0.0818182,
                "tempo": 120.0
            },
            {
                "start_time": 4.6022727,
                "end_time": 4.6863636,
                "pitch": 51,
                "velocity": 64,
                "duration": 0.0840909,
                "tempo": 120.0
            },
            {
                "start_time": 4.7022727,
                "end_time": 4.9022727,
                "pitch": 53,
                "velocity": 64,
                "duration": 0.2,
                "tempo": 120.0
            },
            {
                "start_time": 4.9204545,
                "end_time": 5.1204545,
                "pitch": 56,
                "velocity": 64,
                "duration": 0.2,
                "tempo": 120.0
            },
            {
                "start_time": 5.1363636,
                "end_time": 5.75,
                "pitch": 53,
                "velocity": 64,
                "duration": 0.6136364,
                "tempo": 120.0
            },
            {
                "start_time": 5.7681818,
                "end_time": 6.1818182,
                "pitch": 53,
                "velocity": 64,
                "duration": 0.4136364,
                "tempo": 120.0
            },
            {
                "start_time": 6.2,
                "end_time": 6.2818182,
                "pitch": 51,
                "velocity": 64,
                "duration": 0.0818182,
                "tempo": 120.0
            },
            {
                "start_time": 6.3,
                "end_time": 6.3977273,
                "pitch": 51,
                "velocity": 64,
                "duration": 0.0977273,
                "tempo": 120.0
            },
            {
                "start_time": 6.4159091,
                "end_time": 6.5954545,
                "pitch": 53,
                "velocity": 64,
                "duration": 0.1795455,
                "tempo": 120.0
            },
            {
                "start_time": 6.6272727,
                "end_time": 6.8090909,
                "pitch": 56,
                "velocity": 64,
                "duration": 0.1818182,
                "tempo": 120.0
            },
            {
                "start_time": 6.825,
                "end_time": 7.4613636,
                "pitch": 53,
                "velocity": 64,
                "duration": 0.6363636,
                "tempo": 120.0
            },
            {
                "start_time": 7.4772727,
                "end_time": 7.875,
                "pitch": 53,
                "velocity": 64,
                "duration": 0.3977273,
                "tempo": 120.0
            },
            {
                "start_time": 7.8909091,
                "end_time": 7.9886364,
                "pitch": 51,
                "velocity": 64,
                "duration": 0.0977273,
                "tempo": 120.0
            },
            {
                "start_time": 8.0045455,
                "end_time": 8.0886364,
                "pitch": 51,
                "velocity": 64,
                "duration": 0.0840909,
                "tempo": 120.0
            },
            {
                "start_time": 8.1045455,
                "end_time": 8.3068182,
                "pitch": 53,
                "velocity": 64,
                "duration": 0.2022727,
                "tempo": 120.0
            },
            {
                "start_time": 8.3227273,
                "end_time": 8.5227273,
                "pitch": 56,
                "velocity": 64,
                "duration": 0.2,
                "tempo": 120.0
            },
            {
                "start_time": 8.5386364,
                "end_time": 9.15,
                "pitch": 53,
                "velocity": 64,
                "duration": 0.6113636,
                "tempo": 120.0
            },
            {
                "start_time": 9.1659091,
                "end_time": 9.5840909,
                "pitch": 53,
                "velocity": 64,
                "duration": 0.4181818,
                "tempo": 120.0
            },
            {
                "start_time": 9.6022727,
                "end_time": 9.6863636,
                "pitch": 51,
                "velocity": 64,
                "duration": 0.0840909,
                "tempo": 120.0
            },
            {
                "start_time": 9.7022727,
                "end_time": 9.7840909,
                "pitch": 51,
                "velocity": 64,
                "duration": 0.0818182,
                "tempo": 120.0
            },
            {
                "start_time": 9.8181818,
                "end_time": 9.9977273,
                "pitch": 53,
                "velocity": 64,
                "duration": 0.1795455,
                "tempo": 120.0
            },
            {
                "start_time": 10.0136364,
                "end_time": 10.2113636,
                "pitch": 56,
                "velocity": 64,
                "duration": 0.1977273,
                "tempo": 120.0
            },
            {
                "start_time": 10.2295455,
                "end_time": 10.8431818,
                "pitch": 53,
                "velocity": 64,
                "duration": 0.6136364,
                "tempo": 120.0
            },
            {
                "start_time": 10.875,
                "end_time": 11.2727273,
                "pitch": 53,
                "velocity": 64,
                "duration": 0.3977273,
                "tempo": 120.0
            },
            {
                "start_time": 11.2909091,
                "end_time": 11.375,
                "pitch": 51,
                "velocity": 64,
                "duration": 0.0840909,
                "tempo": 120.0
            },
            {
                "start_time": 11.4068182,
                "end_time": 11.4931818,
                "pitch": 51,
                "velocity": 64,
                "duration": 0.0863636,
                "tempo": 120.0
            },
            {
                "start_time": 11.5090909,
                "end_time": 11.7136364,
                "pitch": 53,
                "velocity": 64,
                "duration": 0.2045455,
                "tempo": 120.0
            },
            {
                "start_time": 11.7318182,
                "end_time": 11.9181818,
                "pitch": 56,
                "velocity": 64,
                "duration": 0.1863636,
                "tempo": 120.0
            },
            {
                "start_time": 11.95,
                "end_time": 12.5613636,
                "pitch": 53,
                "velocity": 64,
                "duration": 0.6113636,
                "tempo": 120.0
            },
            {
                "start_time": 12.5795455,
                "end_time": 12.9681818,
                "pitch": 53,
                "velocity": 64,
                "duration": 0.3886364,
                "tempo": 120.0
            },
            {
                "start_time": 13.0,
                "end_time": 13.0795455,
                "pitch": 51,
                "velocity": 64,
                "duration": 0.0795455,
                "tempo": 120.0
            },
            {
                "start_time": 13.0954545,
                "end_time": 13.1772727,
                "pitch": 51,
                "velocity": 64,
                "duration": 0.0818182,
                "tempo": 120.0
            },
            {
                "start_time": 13.1954545,
                "end_time": 13.4,
                "pitch": 53,
                "velocity": 64,
                "duration": 0.2045455,
                "tempo": 120.0
            },
            {
                "start_time": 13.4181818,
                "end_time": 13.6227273,
                "pitch": 56,
                "velocity": 64,
                "duration": 0.2045455,
                "tempo": 120.0
            },
            {
                "start_time": 13.6386364,
                "end_time": 14.2522727,
                "pitch": 53,
                "velocity": 64,
                "duration": 0.6136364,
                "tempo": 120.0
            },
            {
                "start_time": 14.2681818,
                "end_time": 14.6886364,
                "pitch": 53,
                "velocity": 64,
                "duration": 0.4204545,
                "tempo": 120.0
            },
            {
                "start_time": 14.7068182,
                "end_time": 14.7909091,
                "pitch": 51,
                "velocity": 64,
                "duration": 0.0840909,
                "tempo": 120.0
            },
            {
                "start_time": 14.8090909,
                "end_time": 14.9068182,
                "pitch": 51,
                "velocity": 64,
                "duration": 0.0977273,
                "tempo": 120.0
            },
            {
                "start_time": 14.9227273,
                "end_time": 15.0977273,
                "pitch": 53,
                "velocity": 64,
                "duration": 0.175,
                "tempo": 120.0
            },
            {
                "start_time": 15.1295455,
                "end_time": 15.3068182,
                "pitch": 56,
                "velocity": 64,
                "duration": 0.1772727,
                "tempo": 120.0
            },
            {
                "start_time": 15.325,
                "end_time": 15.9659091,
                "pitch": 53,
                "velocity": 64,
                "duration": 0.6409091,
                "tempo": 120.0
            },
            {
                "start_time": 15.9818182,
                "end_time": 16.3818182,
                "pitch": 53,
                "velocity": 64,
                "duration": 0.4,
                "tempo": 120.0
            },
            {
                "start_time": 16.3977273,
                "end_time": 16.4977273,
                "pitch": 51,
                "velocity": 64,
                "duration": 0.1,
                "tempo": 120.0
            },
            {
                "start_time": 16.5136364,
                "end_time": 16.5954545,
                "pitch": 51,
                "velocity": 64,
                "duration": 0.0818182,
                "tempo": 120.0
            },
            {
                "start_time": 16.6136364,
                "end_time": 16.8136364,
                "pitch": 53,
                "velocity": 64,
                "duration": 0.2,
                "tempo": 120.0
            },
            {
                "start_time": 16.8295455,
                "end_time": 17.0272727,
                "pitch": 56,
                "velocity": 64,
                "duration": 0.1977273,
                "tempo": 120.0
            },
            {
                "start_time": 17.0431818,
                "end_time": 18.7068182,
                "pitch": 53,
                "velocity": 64,
                "duration": 1.6636364,
                "tempo": 120.0
            },
            {
                "start_time": 18.7227273,
                "end_time": 19.5590909,
                "pitch": 59,
                "velocity": 64,
                "duration": 0.8363636,
                "tempo": 120.0
            },
            {
                "start_time": 19.575,
                "end_time": 20.4113636,
                "pitch": 58,
                "velocity": 64,
                "duration": 0.8363636,
                "tempo": 120.0
            },
            {
                "start_time": 20.4431818,
                "end_time": 20.8386364,
                "pitch": 53,
                "velocity": 64,
                "duration": 0.3954545,
                "tempo": 120.0
            },
            {
                "start_time": 21.5022727,
                "end_time": 21.5818182,
                "pitch": 51,
                "velocity": 64,
                "duration": 0.0795455,
                "tempo": 120.0
            },
            {
                "start_time": 21.5977273,
                "end_time": 21.6795455,
                "pitch": 51,
                "velocity": 64,
                "duration": 0.0818182,
                "tempo": 120.0
            },
            {
                "start_time": 21.6954545,
                "end_time": 21.8977273,
                "pitch": 53,
                "velocity": 64,
                "duration": 0.2022727,
                "tempo": 120.0
            },
            {
                "start_time": 21.9136364,
                "end_time": 22.1159091,
                "pitch": 56,
                "velocity": 64,
                "duration": 0.2022727,
                "tempo": 120.0
            },
            {
                "start_time": 22.1318182,
                "end_time": 22.5340909,
                "pitch": 53,
                "velocity": 64,
                "duration": 0.4022727,
                "tempo": 120.0
            },
            {
                "start_time": 23.2022727,
                "end_time": 23.2863636,
                "pitch": 51,
                "velocity": 64,
                "duration": 0.0840909,
                "tempo": 120.0
            },
            {
                "start_time": 23.3022727,
                "end_time": 23.4,
                "pitch": 51,
                "velocity": 64,
                "duration": 0.0977273,
                "tempo": 120.0
            },
            {
                "start_time": 23.4159091,
                "end_time": 23.5909091,
                "pitch": 53,
                "velocity": 64,
                "duration": 0.175,
                "tempo": 120.0
            },
            {
                "start_time": 23.6227273,
                "end_time": 23.8022727,
                "pitch": 56,
                "velocity": 64,
                "duration": 0.1795455,
                "tempo": 120.0
            },
            {
                "start_time": 23.8181818,
                "end_time": 24.2454545,
                "pitch": 53,
                "velocity": 64,
                "duration": 0.4272727,
                "tempo": 120.0
            },
            {
                "start_time": 24.8909091,
                "end_time": 24.9909091,
                "pitch": 51,
                "velocity": 64,
                "duration": 0.1,
                "tempo": 120.0
            },
            {
                "start_time": 25.0068182,
                "end_time": 25.0886364,
                "pitch": 51,
                "velocity": 64,
                "duration": 0.0818182,
                "tempo": 120.0
            },
            {
                "start_time": 25.1068182,
                "end_time": 25.3068182,
                "pitch": 53,
                "velocity": 64,
                "duration": 0.2,
                "tempo": 120.0
            },
            {
                "start_time": 25.3227273,
                "end_time": 25.5227273,
                "pitch": 56,
                "velocity": 64,
                "duration": 0.2,
                "tempo": 120.0
            },
            {
                "start_time": 25.5386364,
                "end_time": 25.9340909,
                "pitch": 53,
                "velocity": 64,
                "duration": 0.3954545,
                "tempo": 120.0
            },
            {
                "start_time": 26.6022727,
                "end_time": 26.6863636,
                "pitch": 51,
                "velocity": 64,
                "duration": 0.0840909,
                "tempo": 120.0
            },
            {
                "start_time": 26.7022727,
                "end_time": 26.7863636,
                "pitch": 51,
                "velocity": 64,
                "duration": 0.0840909,
                "tempo": 120.0
            },
            {
                "start_time": 26.8181818,
                "end_time": 27.0,
                "pitch": 53,
                "velocity": 64,
                "duration": 0.1818182,
                "tempo": 120.0
            },
            {
                "start_time": 27.0159091,
                "end_time": 27.2136364,
                "pitch": 56,
                "velocity": 64,
                "duration": 0.1977273,
                "tempo": 120.0
            },
            {
                "start_time": 27.2295455,
                "end_time": 27.6477273,
                "pitch": 53,
                "velocity": 64,
                "duration": 0.4181818,
                "tempo": 120.0
            },
            {
                "start_time": 28.2909091,
                "end_time": 28.375,
                "pitch": 51,
                "velocity": 64,
                "duration": 0.0840909,
                "tempo": 120.0
            },
            {
                "start_time": 28.4090909,
                "end_time": 28.4931818,
                "pitch": 51,
                "velocity": 64,
                "duration": 0.0840909,
                "tempo": 120.0
            },
            {
                "start_time": 28.5090909,
                "end_time": 28.7090909,
                "pitch": 53,
                "velocity": 64,
                "duration": 0.2,
                "tempo": 120.0
            },
            {
                "start_time": 28.7272727,
                "end_time": 28.9090909,
                "pitch": 56,
                "velocity": 64,
                "duration": 0.1818182,
                "tempo": 120.0
            },
            {
                "start_time": 28.9431818,
                "end_time": 29.3363636,
                "pitch": 53,
                "velocity": 64,
                "duration": 0.3931818,
                "tempo": 120.0
            },
            {
                "start_time": 30.0,
                "end_time": 30.0795455,
                "pitch": 51,
                "velocity": 64,
                "duration": 0.0795455,
                "tempo": 120.0
            },
            {
                "start_time": 30.0954545,
                "end_time": 30.1795455,
                "pitch": 51,
                "velocity": 64,
                "duration": 0.0840909,
                "tempo": 120.0
            },
            {
                "start_time": 30.1954545,
                "end_time": 30.4,
                "pitch": 53,
                "velocity": 64,
                "duration": 0.2045455,
                "tempo": 120.0
            },
            {
                "start_time": 30.4181818,
                "end_time": 30.6227273,
                "pitch": 56,
                "velocity": 64,
                "duration": 0.2045455,
                "tempo": 120.0
            },
            {
                "start_time": 30.6386364,
                "end_time": 31.0409091,
                "pitch": 53,
                "velocity": 64,
                "duration": 0.4022727,
                "tempo": 120.0
            },
            {
                "start_time": 31.7,
                "end_time": 31.7840909,
                "pitch": 51,
                "velocity": 64,
                "duration": 0.0840909,
                "tempo": 120.0
            },
            {
                "start_time": 31.8022727,
                "end_time": 31.9,
                "pitch": 51,
                "velocity": 64,
                "duration": 0.0977273,
                "tempo": 120.0
            },
            {
                "start_time": 31.9159091,
                "end_time": 32.0977273,
                "pitch": 53,
                "velocity": 64,
                "duration": 0.1818182,
                "tempo": 120.0
            },
            {
                "start_time": 32.1295455,
                "end_time": 32.3113636,
                "pitch": 56,
                "velocity": 64,
                "duration": 0.1818182,
                "tempo": 120.0
            },
            {
                "start_time": 32.3272727,
                "end_time": 32.7454545,
                "pitch": 53,
                "velocity": 64,
                "duration": 0.4181818,
                "tempo": 120.0
            },
            {
                "start_time": 33.3931818,
                "end_time": 33.4909091,
                "pitch": 51,
                "velocity": 64,
                "duration": 0.0977273,
                "tempo": 120.0
            },
            {
                "start_time": 33.5068182,
                "end_time": 33.5909091,
                "pitch": 51,
                "velocity": 64,
                "duration": 0.0840909,
                "tempo": 120.0
            },
            {
                "start_time": 33.6068182,
                "end_time": 33.8068182,
                "pitch": 53,
                "velocity": 64,
                "duration": 0.2,
                "tempo": 120.0
            },
            {
                "start_time": 33.825,
                "end_time": 34.025,
                "pitch": 56,
                "velocity": 64,
                "duration": 0.2,
                "tempo": 120.0
            },
            {
                "start_time": 34.0409091,
                "end_time": 35.7113636,
                "pitch": 53,
                "velocity": 64,
                "duration": 1.6704545,
                "tempo": 120.0
            },
            {
                "start_time": 35.7272727,
                "end_time": 36.5545455,
                "pitch": 59,
                "velocity": 64,
                "duration": 0.8272727,
                "tempo": 120.0
            },
            {
                "start_time": 36.5727273,
                "end_time": 37.3681818,
                "pitch": 58,
                "velocity": 64,
                "duration": 0.7954545,
                "tempo": 120.0
            }
        ]
    }
}