{
    "mood": "angry",
    "instruments": {
        "Acoustic Grand Piano": [
            {
                "start_time": 4.6931818,
                "end_time": 5.1227273,
                "pitch": 84,
                "velocity": 80,
                "duration": 0.4295455,
                "tempo": 120.0
            },
            {
                "start_time": 5.1409091,
                "end_time": 5.5909091,
                "pitch": 83,
                "velocity": 80,
                "duration": 0.45,
                "tempo": 120.0
            },
            {
                "start_time": 5.6068182,
                "end_time": 6.0272727,
                "pitch": 82,
                "velocity": 80,
                "duration": 0.4204545,
                "tempo": 120.0
            },
            {
                "start_time": 6.0454545,
                "end_time": 6.4840909,
                "pitch": 81,
                "velocity": 80,
                "duration": 0.4386364,
                "tempo": 120.0
            },
            {
                "start_time": 6.5022727,
                "end_time": 6.7977273,
                "pitch": 80,
                "velocity": 80,
                "duration": 0.2954545,
                "tempo": 120.0
            },
            {
                "start_time": 6.8136364,
                "end_time": 7.0886364,
                "pitch": 79,
                "velocity": 80,
                "duration": 0.275,
                "tempo": 120.0
            },
            {
                "start_time": 7.1045455,
                "end_time": 7.5340909,
                "pitch": 84,
                "velocity": 80,
                "duration": 0.4295455,
                "tempo": 120.0
            },
            {
                "start_time": 7.5522727,
                "end_time": 8.0045455,
                "pitch": 83,
                "velocity": 80,
                "duration": 0.4522727,
                "tempo": 120.0
            },
            {
                "start_time": 8.0204545,
                "end_time": 8.45,
                "pitch": 82,
                "velocity": 80,
                "duration": 0.4295455,
                "tempo": 120.0
            },
            {
                "start_time": 8.4659091,
                "end_time": 8.9045455,
                "pitch": 81,
                "velocity": 80,
                "duration": 0.4386364,
                "tempo": 120.0
            },
            {
                "start_time": 8.9204545,
                "end_time": 9.2090909,
                "pitch": 80,
                "velocity": 80,
                "duration": 0.2886364,
                "tempo": 120.0
            },
            {
                "start_time": 9.2272727,
                "end_time": 9.5090909,
                "pitch": 79,
                "velocity": 80,
                "duration": 0.2818182,
                "tempo": 120.0
            },
            {
                "start_time": 9.5272727,
                "end_time": 9.9590909,
                "pitch": 84,
                "velocity": 80,
                "duration": 0.4318182,
                "tempo": 120.0
            },
            {
                "start_time": 9.9772727,
                "end_time": 10.4090909,
                "pitch": 83,
                "velocity": 80,
                "duration": 0.4318182,
                "tempo": 120.0
            },
            {
                "start_time": 10.4272727,
                "end_time": 10.8636364,
                "pitch": 82,
                "velocity": 80,
                "duration": 0.4363636,
                "tempo": 120.0
            },
            {
                "start_time": 10.8818182,
                "end_time": 11.3159091,
                "pitch": 81,
                "velocity": 80,
                "duration": 0.4340909,
                "tempo": 120.0
            },
            {
                "start_time": 11.3318182,
                "end_time": 11.6159091,
                "pitch": 80,
                "velocity": 80,
                "duration": 0.2840909,
                "tempo": 120.0
            },
            {
                "start_time": 11.6318182,
                "end_time": 11.9136364,
                "pitch": 79,
                "velocity": 80,
                "duration": 0.2818182,
                "tempo": 120.0
            },
            {
                "start_time": 11.9295455,
                "end_time": 11.9795455,
                "pitch": 72,
                "velocity": 80,
                "duration": 0.05,
                "tempo": 120.0
            },
            {
                "start_time": 12.0113636,
                "end_time": 12.0613636,
                "pitch": 84,
                "velocity": 80,
                "duration": 0.05,
                "tempo": 120.0
            },
            {
                "start_time": 12.0772727,
                "end_time": 12.1272727,
                "pitch": 72,
                "velocity": 80,
                "duration": 0.05,
                "tempo": 120.0
            },
            {
                "start_time": 12.1613636,
                "end_time": 12.2113636,
                "pitch": 84,
                "velocity": 80,
                "duration": 0.05,
                "tempo": 120.0
            },
            {
                "start_time": 12.2272727,
                "end_time": 12.5068182,
                "pitch": 72,
                "velocity": 80,
                "duration": 0.2795455,
                "tempo": 120.0
            },
            {
                "start_time": 12.5227273,
                "end_time": 12.5727273,
                "pitch": 72,
                "velocity": 80,
                "duration": 0.05,
                "tempo": 120.0
            },
            {
                "start_time": 12.6068182,
                "end_time": 12.6568182,
                "pitch": 72,
                "velocity": 80,
                "duration": 0.05,
                "tempo": 120.0
            },
            {
                "start_time": 12.6727273,
                "end_time": 12.7227273,
                "pitch": 72,
                "velocity": 80,
                "duration": 0.05,
                "tempo": 120.0
            },
            {
                "start_time": 12.7545455,
                "end_time": 12.8045455,
                "pitch": 72,
                "velocity": 80,
                "duration": 0.05,
                "tempo": 120.0
            },
            {
                "start_time": 12.8204545,
                "end_time": 13.1045455,
                "pitch": 72,
                "velocity": 80,
                "duration": 0.2840909,
                "tempo": 120.0
            },
            {
                "start_time": 13.1204545,
                "end_time": 13.1704545,
                "pitch": 72,
                "velocity": 80,
                "duration": 0.05,
                "tempo": 120.0
            },
            {
                "start_time": 13.2045455,
                "end_time": 13.2545455,
                "pitch": 84,
                "velocity": 80,
                "duration": 0.05,
                "tempo": 120.0
            },
            {
                "start_time": 13.2704545,
                "end_time": 13.3204545,
                "pitch": 72,
                "velocity": 80,
                "duration": 0.05,
                "tempo": 120.0
            },
            {
                "start_time": 13.3545455,
                "end_time": 13.4045455,
                "pitch": 84,
                "velocity": 80,
                "duration": 0.05,
                "tempo": 120.0
            },
            {
                "start_time": 13.4204545,
                "end_time": 13.7045455,
                "pitch": 72,
                "velocity": 80,
                "duration": 0.2840909,
                "tempo": 120.0
            },
            {
                "start_time": 13.7204545,
                "end_time": 13.7704545,
                "pitch": 72,
                "velocity": 80,
                "duration": 0.05,
                "tempo": 120.0
            },
            {
                "start_time": 13.8045455,
                "end_time": 13.8545455,
                "pitch": 72,
                "velocity": 80,
                "duration": 0.05,
                "tempo": 120.0
            },
            {
                "start_time": 13.8704545,
                "end_time": 13.9204545,
                "pitch": 72,
                "velocity": 80,
                "duration": 0.05,
                "tempo": 120.0
            },
            {
                "start_time": 13.9545455,
                "end_time": 14.0045455,
                "pitch": 72,
                "velocity": 80,
                "duration": 0.05,
                "tempo": 120.0
            },
            {
                "start_time": 14.0204545,
                "end_time": 14.3113636,
                "pitch": 72,
                "velocity": 80,
                "duration": 0.2909091,
                "tempo": 120.0
            },
            {
                "start_time": 14.3272727,
                "end_time": 14.3772727,
                "pitch": 72,
                "velocity": 80,
                "duration": 0.05,
                "tempo": 120.0
            },
            {
                "start_time": 14.4113636,
                "end_time": 14.4636364,
                "pitch": 84,
                "velocity": 80,
                "duration": 0.0522727,
                "tempo": 120.0
            },
            {
                "start_time": 14.4795455,
                "end_time": 14.5318182,
                "pitch": 72,
                "velocity": 80,
                "duration": 0.0522727,
                "tempo": 120.0
            },
            {
                "start_time": 14.5659091,
                "end_time": 14.6159091,
                "pitch": 84,
                "velocity": 80,
                "duration": 0.05,
                "tempo": 120.0
            },
            {
                "start_time": 14.6318182,
                "end_time": 14.9136364,
                "pitch": 72,
                "velocity": 80,
                "duration": 0.2818182,
                "tempo": 120.0
            },
            {
                "start_time": 14.9295455,
                "end_time": 14.9795455,
                "pitch": 72,
                "velocity": 80,
                "duration": 0.05,
                "tempo": 120.0
            },
            {
                "start_time": 15.0113636,
                "end_time": 15.0613636,
                "pitch": 72,
                "velocity": 80,
                "duration": 0.05,
                "tempo": 120.0
            },
            {
                "start_time": 15.0795455,
                "end_time": 15.1272727,
                "pitch": 72,
                "velocity": 80,
                "duration": 0.0477273,
                "tempo": 120.0
            },
            {
                "start_time": 15.1613636,
                "end_time": 15.2113636,
                "pitch": 72,
                "velocity": 80,
                "duration": 0.05,
                "tempo": 120.0
            },
            {
                "start_time": 15.2272727,
                "end_time": 15.5113636,
                "pitch": 72,
                "velocity": 80,
                "duration": 0.2840909,
                "tempo": 120.0
            },
            {
                "start_time": 15.5272727,
                "end_time": 15.5772727,
                "pitch": 72,
                "velocity": 80,
                "duration": 0.05,
                "tempo": 120.0
            },
            {
                "start_time": 15.6113636,
                "end_time": 15.6613636,
                "pitch": 84,
                "velocity": 80,
                "duration": 0.05,
                "tempo": 120.0
            },
            {
                "start_time": 15.6772727,
                "end_time": 15.7272727,
                "pitch": 72,
                "velocity": 80,
                "duration": 0.05,
                "tempo": 120.0
            },
            {
                "start_time": 15.7613636,
                "end_time": 15.8113636,
                "pitch": 84,
                "velocity": 80,
                "duration": 0.05,
                "tempo": 120.0
            },
            {
                "start_time": 15.8272727,
                "end_time": 16.1113636,
                "pitch": 72,
                "velocity": 80,
                "duration": 0.2840909,
                "tempo": 120.0
            },
            {
                "start_time": 16.1272727,
                "end_time": 16.1772727,
                "pitch": 72,
                "velocity": 80,
                "duration": 0.05,
                "tempo": 120.0
            },
            {
                "start_time": 16.2113636,
                "end_time": 16.2613636,
                "pitch": 72,
                "velocity": 80,
                "duration": 0.05,
                "tempo": 120.0
            },
            {
                "start_time": 16.2772727,
                "end_time": 16.3272727,
                "pitch": 72,
                "velocity": 80,
                "duration": 0.05,
                "tempo": 120.0
            },
            {
                "start_time": 16.3613636,
                "end_time": 16.4113636,
                "pitch": 72,
                "velocity": 80,
                "duration": 0.05,
                "tempo": 120.0
            },
            {
                "start_time": 16.4272727,
                "end_time": 16.7159091,
                "pitch": 72,
                "velocity": 80,
                "duration": 0.2886364,
                "tempo": 120.0
            },
            {
                "start_time": 16.7340909,
                "end_time": 21.7227273,
                "pitch": 72,
                "velocity": 80,
                "duration": 4.9886364,
                "tempo": 120.0
            },
            {
                "start_time": 21.7227273,
                "end_time": 21.9931818,
                "pitch": 84,
                "velocity": 80,
                "duration": 0.2704545,
                "tempo": 120.0
            },
            {
                "start_time": 22.0113636,
                "end_time": 22.4522727,
                "pitch": 83,
                "velocity": 80,
                "duration": 0.4409091,
                "tempo": 120.0
            },
            {
                "start_time": 22.4704545,
                "end_time": 22.8909091,
                "pitch": 82,
                "velocity": 80,
                "duration": 0.4204545,
                "tempo": 120.0
            },
            {
                "start_time": 22.9068182,
                "end_time": 23.3477273,
                "pitch": 81,
                "velocity": 80,
                "duration": 0.4409091,
                "tempo": 120.0
            },
            {
                "start_time": 23.3636364,
                "end_time": 23.6590909,
                "pitch": 80,
                "velocity": 80,
                "duration": 0.2954545,
                "tempo": 120.0
            },
            {
                "start_time": 23.675,
                "end_time": 23.95,
                "pitch": 79,
                "velocity": 80,
                "duration": 0.275,
                "tempo": 120.0
            },
            {
                "start_time": 23.9659091,
                "end_time": 24.3977273,
                "pitch": 84,
                "velocity": 80,
                "duration": 0.4318182,
                "tempo": 120.0
            },
            {
                "start_time": 24.4136364,
                "end_time": 24.8659091,
                "pitch": 83,
                "velocity": 80,
                "duration": 0.4522727,
                "tempo": 120.0
            },
            {
                "start_time": 24.8818182,
                "end_time": 25.3204545,
                "pitch": 82,
                "velocity": 80,
                "duration": 0.4386364,
                "tempo": 120.0
            },
            {
                "start_time": 25.3363636,
                "end_time": 25.7727273,
                "pitch": 81,
                "velocity": 80,
                "duration": 0.4363636,
                "tempo": 120.0
            },
            {
                "start_time": 25.7886364,
                "end_time": 26.0727273,
                "pitch": 80,
                "velocity": 80,
                "duration": 0.2840909,
                "tempo": 120.0
            },
            {
                "start_time": 26.0886364,
                "end_time": 26.375,
                "pitch": 79,
                "velocity": 80,
                "duration": 0.2863636,
                "tempo": 120.0
            },
            {
                "start_time": 26.3909091,
                "end_time": 26.8295455,
                "pitch": 84,
                "velocity": 80,
                "duration": 0.4386364,
                "tempo": 120.0
            },
            {
                "start_time": 26.8454545,
                "end_time": 27.2840909,
                "pitch": 83,
                "velocity": 80,
                "duration": 0.4386364,
                "tempo": 120.0
            },
            {
                "start_time": 27.3,
                "end_time": 27.7340909,
                "pitch": 82,
                "velocity": 80,
                "duration": 0.4340909,
                "tempo": 120.0
            },
            {
                "start_time": 27.75,
                "end_time": 28.1863636,
                "pitch": 81,
                "velocity": 80,
                "duration": 0.4363636,
                "tempo": 120.0
            },
            {
                "start_time": 28.2045455,
                "end_time": 28.4909091,
                "pitch": 80,
                "velocity": 80,
                "duration": 0.2863636,
                "tempo": 120.0
            },
            {
                "start_time": 28.5068182,
                "end_time": 28.7909091,
                "pitch": 79,
                "velocity": 80,
                "duration": 0.2840909,
                "tempo": 120.0
            },
            {
                "start_time": 28.8068182,
                "end_time": 28.8568182,
                "pitch": 72,
                "velocity": 80,
                "duration": 0.05,
                "tempo": 120.0
            },
            {
                "start_time": 28.8909091,
                "end_time": 28.9409091,
                "pitch": 84,
                "velocity": 80,
                "duration": 0.05,
                "tempo": 120.0
            },
            {
                "start_time": 28.9568182,
                "end_time": 29.0068182,
                "pitch": 72,
                "velocity": 80,
                "duration": 0.05,
                "tempo": 120.0
            },
            {
                "start_time": 29.0409091,
                "end_time": 29.0909091,
                "pitch": 84,
                "velocity": 80,
                "duration": 0.05,
                "tempo": 120.0
            },
            {
                "start_time": 29.1068182,
                "end_time": 29.3818182,
                "pitch": 72,
                "velocity": 80,
                "duration": 0.275,
                "tempo": 120.0
            },
            {
                "start_time": 29.3977273,
                "end_time": 29.4454545,
                "pitch": 72,
                "velocity": 80,
                "duration": 0.0477273,
                "tempo": 120.0
            },
            {
                "start_time": 29.4795455,
                "end_time": 29.5272727,
                "pitch": 72,
                "velocity": 80,
                "duration": 0.0477273,
                "tempo": 120.0
            },
            {
                "start_time": 29.5431818,
                "end_time": 29.5931818,
                "pitch": 72,
                "velocity": 80,
                "duration": 0.05,
                "tempo": 120.0
            },
            {
                "start_time": 29.625,
                "end_time": 29.6727273,
                "pitch": 72,
                "velocity": 80,
                "duration": 0.0477273,
                "tempo": 120.0
            },
            {
                "start_time": 29.6886364,
                "end_time": 29.9727273,
                "pitch": 72,
                "velocity": 80,
                "duration": 0.2840909,
                "tempo": 120.0
            },
            {
                "start_time": 29.9886364,
                "end_time": 30.0386364,
                "pitch": 72,
                "velocity": 80,
                "duration": 0.05,
                "tempo": 120.0
            },
            {
                "start_time": 30.0727273,
                "end_time": 30.1227273,
                "pitch": 84,
                "velocity": 80,
                "duration": 0.05,
                "tempo": 120.0
            },
            {
                "start_time": 30.1386364,
                "end_time": 30.1886364,
                "pitch": 72,
                "velocity": 80,
                "duration": 0.05,
                "tempo": 120.0
            },
            {
                "start_time": 30.2227273,
                "end_time": 30.2727273,
                "pitch": 84,
                "velocity": 80,
                "duration": 0.05,
                "tempo": 120.0
            },
            {
                "start_time": 30.2909091,
                "end_time": 30.575,
                "pitch": 72,
                "velocity": 80,
                "duration": 0.2840909,
                "tempo": 120.0
            },
            {
                "start_time": 30.5931818,
                "end_time": 30.6431818,
                "pitch": 72,
                "velocity": 80,
                "duration": 0.05,
                "tempo": 120.0
            },
            {
                "start_time": 30.6772727,
                "end_time": 30.7272727,
                "pitch": 72,
                "velocity": 80,
                "duration": 0.05,
                "tempo": 120.0
            },
            {
                "start_time": 30.7454545,
                "end_time": 30.7954545,
                "pitch": 72,
                "velocity": 80,
                "duration": 0.05,
                "tempo": 120.0
            },
            {
                "start_time": 30.8295455,
                "end_time": 30.8795455,
                "pitch": 72,
                "velocity": 80,
                "duration": 0.05,
                "tempo": 120.0
            },
            {
                "start_time": 30.8954545,
                "end_time": 31.1818182,
                "pitch": 72,
                "velocity": 80,
                "duration": 0.2863636,
                "tempo": 120.0
            },
            {
                "start_time": 31.2,
                "end_time": 31.25,
                "pitch": 72,
                "velocity": 80,
                "duration": 0.05,
                "tempo": 120.0
            },
            {
                "start_time": 31.2840909,
                "end_time": 31.3340909,
                "pitch": 84,
                "velocity": 80,
                "duration": 0.05,
                "tempo": 120.0
            },
            {
                "start_time": 31.35,
                "end_time": 31.4,
                "pitch": 72,
                "velocity": 80,
                "duration": 0.05,
                "tempo": 120.0
            },
            {
                "start_time": 31.4340909,
                "end_time": 31.4840909,
                "pitch": 84,
                "velocity": 80,
                "duration": 0.05,
                "tempo": 120.0
            },
            {
                "start_time": 31.5022727,
                "end_time": 31.7840909,
                "pitch": 72,
                "velocity": 80,
                "duration": 0.2818182,
                "tempo": 120.0
            },
            {
                "start_time": 31.8022727,
                "end_time": 31.8522727,
                "pitch": 72,
                "velocity": 80,
                "duration": 0.05,
                "tempo": 120.0
            },
            {
                "start_time": 31.8840909,
                "end_time": 31.9340909,
                "pitch": 72,
                "velocity": 80,
                "duration": 0.05,
                "tempo": 120.0
            },
            {
                "start_time": 31.9522727,
                "end_time": 32.0022727,
                "pitch": 72,
                "velocity": 80,
                "duration": 0.05,
                "tempo": 120.0
            },
            {
                "start_time": 32.0340909,
                "end_time": 32.0840909,
                "pitch": 72,
                "velocity": 80,
                "duration": 0.05,
                "tempo": 120.0
            },
            {
                "start_time": 32.1022727,
                "end_time": 32.3909091,
                "pitch": 72,
                "velocity": 80,
                "duration": 0.2886364,
                "tempo": 120.0
            },
            {
                "start_time": 32.4090909,
                "end_time": 32.4590909,
                "pitch": 72,
                "velocity": 80,
                "duration": 0.05,
                "tempo": 120.0
            },
            {
                "start_time": 32.4931818,
                "end_time": 32.5431818,
                "pitch": 84,
                "velocity": 80,
                "duration": 0.05,
                "tempo": 120.0
            },
            {
                "start_time": 32.5613636,
                "end_time": 32.6113636,
                "pitch": 72,
                "velocity": 80,
                "duration": 0.05,
                "tempo": 120.0
            },
            {
                "start_time": 32.6454545,
                "end_time": 32.6977273,
                "pitch": 84,
                "velocity": 80,
                "duration": 0.0522727,
                "tempo": 120.0
            },
            {
                "start_time": 32.7136364,
                "end_time": 32.9977273,
                "pitch": 72,
                "velocity": 80,
                "duration": 0.2840909,
                "tempo": 120.0
            },
            {
                "start_time": 33.0136364,
                "end_time": 33.0636364,
                "pitch": 72,
                "velocity": 80,
                "duration": 0.05,
                "tempo": 120.0
            },
            {
                "start_time": 33.0977273,
                "end_time": 33.1477273,
                "pitch": 72,
                "velocity": 80,
                "duration": 0.05,
                "tempo": 120.0
            },
            {
                "start_time": 33.1636364,
                "end_time": 33.2136364,
                "pitch": 72,
                "velocity": 80,
                "duration": 0.05,
                "tempo": 120.0
            },
            {
                "start_time": 33.2477273,
                "end_time": 33.2977273,
                "pitch": 72,
                "velocity": 80,
                "duration": 0.05,
                "tempo": 120.0
            },
            {
                "start_time": 33.3136364,
                "end_time": 33.6,
                "pitch": 72,
                "velocity": 80,
                "duration": 0.2863636,
                "tempo": 120.0
            },
            {
                "start_time": 33.6181818,
                "end_time": 34.0522727,
                "pitch": 75,
                "velocity": 80,
                "duration": 0.4340909,
                "tempo": 120.0
            },
            {
                "start_time": 34.0681818,
                "end_time": 34.4977273,
                "pitch": 74,
                "velocity": 80,
                "duration": 0.4295455,
                "tempo": 120.0
            },
            {
                "start_time": 34.5136364,
                "end_time": 34.9522727,
                "pitch": 73,
                "velocity": 80,
                "duration": 0.4386364,
                "tempo": 120.0
            },
            {
                "start_time": 34.9681818,
                "end_time": 35.4045455,
                "pitch": 72,
                "velocity": 80,
                "duration": 0.4363636,
                "tempo": 120.0
            },
            {
                "start_time": 35.4204545,
                "end_time": 35.7045455,
                "pitch": 71,
                "velocity": 80,
                "duration": 0.2840909,
                "tempo": 120.0
            },
            {
                "start_time": 35.7204545,
                "end_time": 36.0068182,
                "pitch": 70,
                "velocity": 80,
                "duration": 0.2863636,
                "tempo": 120.0
            },
            {
                "start_time": 36.0227273,
                "end_time": 36.4613636,
                "pitch": 71,
                "velocity": 80,
                "duration": 0.4386364,
                "tempo": 120.0
            },
            {
                "start_time": 36.4772727,
                "end_time": 36.9159091,
                "pitch": 70,
                "velocity": 80,
                "duration": 0.4386364,
                "tempo": 120.0
            },
            {
                "start_time": 36.9318182,
                "end_time": 37.3840909,
                "pitch": 69,
                "velocity": 80,
                "duration": 0.4522727,
                "tempo": 120.0
            },
            {
                "start_time": 37.4,
                "end_time": 37.8431818,
                "pitch": 68,
                "velocity": 80,
                "duration": 0.4431818,
                "tempo": 120.0
            },
            {
                "start_time": 37.8613636,
                "end_time": 38.1477273,
                "pitch": 67,
                "velocity": 80,
                "duration": 0.2863636,
                "tempo": 120.0
            },
            {
                "start_time": 38.1636364,
                "end_time": 38.45,
                "pitch": 66,
                "velocity": 80,
                "duration": 0.2863636,
                "tempo": 120.0
            },
            {
                "start_time": 38.4659091,
                "end_time": 38.9022727,
                "pitch": 67,
                "velocity": 80,
                "duration": 0.4363636,
                "tempo": 120.0
            },
            {
                "start_time": 38.9181818,
                "end_time": 39.3477273,
                "pitch": 66,
                "velocity": 80,
                "duration": 0.4295455,
                "tempo": 120.0
            },
            {
                "start_time": 39.3636364,
                "end_time": 39.8022727,
                "pitch": 65,
                "velocity": 80,
                "duration": 0.4386364,
                "tempo": 120.0
            },
            {
                "start_time": 39.8181818,
                "end_time": 40.2590909,
                "pitch": 64,
                "velocity": 80,
                "duration": 0.4409091,
                "tempo": 120.0
            },
            {
                "start_time": 40.275,
                "end_time": 40.5659091,
                "pitch": 63,
                "velocity": 80,
                "duration": 0.2909091,
                "tempo": 120.0
            },
            {
                "start_time": 40.5818182,
                "end_time": 40.8568182,
                "pitch": 62,
                "velocity": 80,
                "duration": 0.275,
                "tempo": 120.0
            },
            {
                "start_time": 40.8727273,
                "end_time": 41.0659091,
                "pitch": 62,
                "velocity": 80,
                "duration": 0.1931818,
                "tempo": 120.0
            },
            {
                "start_time": 42.0795455,
                "end_time": 42.3545455,
                "pitch": 67,
                "velocity": 80,
                "duration": 0.275,
                "tempo": 120.0
            }
        ],
        "Trumpet": [
            {
                "start_time": 16.8863636,
                "end_time": 17.0227273,
                "pitch": 67,
                "velocity": 80,
                "duration": 0.1363636,
                "tempo": 120.0
            },
            {
                "start_time": 17.0386364,
                "end_time": 17.1727273,
                "pitch": 72,
                "velocity": 80,
                "duration": 0.1340909,
                "tempo": 120.0
            },
            {
                "start_time": 17.1886364,
                "end_time": 17.3227273,
                "pitch": 71,
                "velocity": 80,
                "duration": 0.1340909,
                "tempo": 120.0
            },
            {
                "start_time": 17.4886364,
                "end_time": 17.6227273,
                "pitch": 67,
                "velocity": 80,
                "duration": 0.1340909,
                "tempo": 120.0
            },
            {
                "start_time": 17.7886364,
                "end_time": 17.9204545,
                "pitch": 70,
                "velocity": 80,
                "duration": 0.1318182,
                "tempo": 120.0
            },
            {
                "start_time": 18.3863636,
                "end_time": 18.5227273,
                "pitch": 68,
                "velocity": 80,
                "duration": 0.1363636,
                "tempo": 120.0
            },
            {
                "start_time": 19.1454545,
                "end_time": 19.2795455,
                "pitch": 72,
                "velocity": 80,
                "duration": 0.1340909,
                "tempo": 120.0
            },
            {
                "start_time": 19.2954545,
                "end_time": 19.4295455,
                "pitch": 67,
                "velocity": 80,
                "duration": 0.1340909,
                "tempo": 120.0
            },
            {
                "start_time": 19.4454545,
                "end_time": 19.5818182,
                "pitch": 72,
                "velocity": 80,
                "duration": 0.1363636,
                "tempo": 120.0
            },
            {
                "start_time": 19.5977273,
                "end_time": 19.7340909,
                "pitch": 71,
                "velocity": 80,
                "duration": 0.1363636,
                "tempo": 120.0
            },
            {
                "start_time": 19.9045455,
                "end_time": 20.0409091,
                "pitch": 67,
                "velocity": 80,
                "duration": 0.1363636,
                "tempo": 120.0
            },
            {
                "start_time": 20.2022727,
                "end_time": 20.3318182,
                "pitch": 70,
                "velocity": 80,
                "duration": 0.1295455,
                "tempo": 120.0
            },
            {
                "start_time": 20.3477273,
                "end_time": 20.4772727,
                "pitch": 69,
                "velocity": 80,
                "duration": 0.1295455,
                "tempo": 120.0
            },
            {
                "start_time": 20.7931818,
                "end_time": 20.9295455,
                "pitch": 68,
                "velocity": 80,
                "duration": 0.1363636,
                "tempo": 120.0
            }
        ],
        "Harpsichord": [
            {
                "start_time": 0.0,
                "end_time": 0.0659091,
                "pitch": 36,
                "velocity": 51,
                "duration": 0.0659091,
                "tempo": 120.0
            },
            {
                "start_time": 0.0772727,
                "end_time": 0.1659091,
                "pitch": 43,
                "velocity": 51,
                "duration": 0.0886364,
                "tempo": 120.0
            },
            {
                "start_time": 0.1772727,
                "end_time": 0.3113636,
                "pitch": 36,
                "velocity": 51,
                "duration": 0.1340909,
                "tempo": 120.0
            },
            {
                "start_time": 0.3272727,
                "end_time": 0.4636364,
                "pitch": 43,
                "velocity": 51,
                "duration": 0.1363636,
                "tempo": 120.0
            },
            {
                "start_time": 0.4795455,
                "end_time": 0.6136364,
                "pitch": 36,
                "velocity": 51,
                "duration": 0.1340909,
                "tempo": 120.0
            },
            {
                "start_time": 0.6318182,
                "end_time": 0.7659091,
                "pitch": 43,
                "velocity": 51,
                "duration": 0.1340909,
                "tempo": 120.0
            },
            {
                "start_time": 0.7818182,
                "end_time": 0.9159091,
                "pitch": 36,
                "velocity": 51,
                "duration": 0.1340909,
                "tempo": 120.0
            },
            {
                "start_time": 0.9318182,
                "end_time": 1.0659091,
                "pitch": 43,
                "velocity": 51,
                "duration": 0.1340909,
                "tempo": 120.0
            },
            {
                "start_time": 1.0818182,
                "end_time": 1.2159091,
                "pitch": 36,
                "velocity": 51,
                "duration": 0.1340909,
                "tempo": 120.0
            },
            {
                "start_time": 1.2318182,
                "end_time": 1.3659091,
                "pitch": 43,
                "velocity": 51,
                "duration": 0.1340909,
                "tempo": 120.0
            },
            {
                "start_time": 1.3818182,
                "end_time": 1.5159091,
                "pitch": 36,
                "velocity": 51,
                "duration": 0.1340909,
                "tempo": 120.0
            },
            {
                "start_time": 1.5318182,
                "end_time": 1.6659091,
                "pitch": 43,
                "velocity": 51,
                "duration": 0.1340909,
                "tempo": 120.0
            },
            {
                "start_time": 1.6818182,
                "end_time": 1.8159091,
                "pitch": 42,
                "velocity": 51,
                "duration": 0.1340909,
                "tempo": 120.0
            },
            {
                "start_time": 1.8318182,
                "end_time": 1.9659091,
                "pitch": 42,
                "velocity": 51,
                "duration": 0.1340909,
                "tempo": 120.0
            },
            {
                "start_time": 1.9818182,
                "end_time": 2.1113636,
                "pitch": 42,
                "velocity": 51,
                "duration": 0.1295455,
                "tempo": 120.0
            },
            {
                "start_time": 2.1272727,
                "end_time": 2.2568182,
                "pitch": 40,
                "velocity": 51,
                "duration": 0.1295455,
                "tempo": 120.0
            },
            {
                "start_time": 2.2727273,
                "end_time": 2.4022727,
                "pitch": 36,
                "velocity": 51,
                "duration": 0.1295455,
                "tempo": 120.0
            },
            {
                "start_time": 2.4204545,
                "end_time": 2.5477273,
                "pitch": 43,
                "velocity": 51,
                "duration": 0.1272727,
                "tempo": 120.0
            },
            {
                "start_time": 2.5659091,
                "end_time": 2.7045455,
                "pitch": 36,
                "velocity": 51,
                "duration": 0.1386364,
                "tempo": 120.0
            },
            {
                "start_time": 2.7204545,
                "end_time": 2.8590909,
                "pitch": 43,
                "velocity": 51,
                "duration": 0.1386364,
                "tempo": 120.0
            },
            {
                "start_time": 2.8772727,
                "end_time": 3.0159091,
                "pitch": 36,
                "velocity": 51,
                "duration": 0.1386364,
                "tempo": 120.0
            },
            {
                "start_time": 3.0340909,
                "end_time": 3.1727273,
                "pitch": 43,
                "velocity": 51,
                "duration": 0.1386364,
                "tempo": 120.0
            },
            {
                "start_time": 3.1886364,
                "end_time": 3.325,
                "pitch": 36,
                "velocity": 51,
                "duration": 0.1363636,
                "tempo": 120.0
            },
            {
                "start_time": 3.3409091,
                "end_time": 3.475,
                "pitch": 43,
                "velocity": 51,
                "duration": 0.1340909,
                "tempo": 120.0
            },
            {
                "start_time": 3.4931818,
                "end_time": 3.6272727,
                "pitch": 36,
                "velocity": 51,
                "duration": 0.1340909,
                "tempo": 120.0
            },
            {
                "start_time": 3.6454545,
                "end_time": 3.7795455,
                "pitch": 43,
                "velocity": 51,
                "duration": 0.1340909,
                "tempo": 120.0
            },
            {
                "start_time": 3.7954545,
                "end_time": 3.9295455,
                "pitch": 36,
                "velocity": 51,
                "duration": 0.1340909,
                "tempo": 120.0
            },
            {
                "start_time": 3.9477273,
                "end_time": 4.0818182,
                "pitch": 43,
                "velocity": 51,
                "duration": 0.1340909,
                "tempo": 120.0
            },
            {
                "start_time": 4.1,
                "end_time": 4.2340909,
                "pitch": 42,
                "velocity": 51,
                "duration": 0.1340909,
                "tempo": 120.0
            },
            {
                "start_time": 4.25,
                "end_time": 4.3840909,
                "pitch": 42,
                "velocity": 51,
                "duration": 0.1340909,
                "tempo": 120.0
            },
            {
                "start_time": 4.4022727,
                "end_time": 4.5318182,
                "pitch": 42,
                "velocity": 51,
                "duration": 0.1295455,
                "tempo": 120.0
            },
            {
                "start_time": 4.5477273,
                "end_time": 4.6772727,
                "pitch": 40,
                "velocity": 51,
                "duration": 0.1295455,
                "tempo": 120.0
            },
            {
                "start_time": 4.6931818,
                "end_time": 4.8227273,
                "pitch": 36,
                "velocity": 51,
                "duration": 0.1295455,
                "tempo": 120.0
            },
            {
                "start_time": 4.8386364,
                "end_time": 4.9681818,
                "pitch": 43,
                "velocity": 51,
                "duration": 0.1295455,
                "tempo": 120.0
            },
            {
                "start_time": 4.9840909,
                "end_time": 5.1227273,
                "pitch": 36,
                "velocity": 51,
                "duration": 0.1386364,
                "tempo": 120.0
            },
            {
                "start_time": 5.1409091,
                "end_time": 5.2795455,
                "pitch": 43,
                "velocity": 51,
                "duration": 0.1386364,
                "tempo": 120.0
            },
            {
                "start_time": 5.2954545,
                "end_time": 5.4340909,
                "pitch": 36,
                "velocity": 51,
                "duration": 0.1386364,
                "tempo": 120.0
            },
            {
                "start_time": 5.4522727,
                "end_time": 5.5909091,
                "pitch": 43,
                "velocity": 51,
                "duration": 0.1386364,
                "tempo": 120.0
            },
            {
                "start_time": 5.6068182,
                "end_time": 5.7363636,
                "pitch": 36,
                "velocity": 51,
                "duration": 0.1295455,
                "tempo": 120.0
            },
            {
                "start_time": 5.7522727,
                "end_time": 5.8818182,
                "pitch": 43,
                "velocity": 51,
                "duration": 0.1295455,
                "tempo": 120.0
            },
            {
                "start_time": 5.8977273,
                "end_time": 6.0272727,
                "pitch": 36,
                "velocity": 51,
                "duration": 0.1295455,
                "tempo": 120.0
            },
            {
                "start_time": 6.0454545,
                "end_time": 6.1727273,
                "pitch": 43,
                "velocity": 51,
                "duration": 0.1272727,
                "tempo": 120.0
            },
            {
                "start_time": 6.1909091,
                "end_time": 6.3295455,
                "pitch": 36,
                "velocity": 51,
                "duration": 0.1386364,
                "tempo": 120.0
            },
            {
                "start_time": 6.3454545,
                "end_time": 6.4840909,
                "pitch": 43,
                "velocity": 51,
                "duration": 0.1386364,
                "tempo": 120.0
            },
            {
                "start_time": 6.5022727,
                "end_time": 6.6409091,
                "pitch": 42,
                "velocity": 51,
                "duration": 0.1386364,
                "tempo": 120.0
            },
            {
                "start_time": 6.6590909,
                "end_time": 6.7977273,
                "pitch": 42,
                "velocity": 51,
                "duration": 0.1386364,
                "tempo": 120.0
            },
            {
                "start_time": 6.8136364,
                "end_time": 6.9431818,
                "pitch": 42,
                "velocity": 51,
                "duration": 0.1295455,
                "tempo": 120.0
            },
            {
                "start_time": 6.9590909,
                "end_time": 7.0886364,
                "pitch": 40,
                "velocity": 51,
                "duration": 0.1295455,
                "tempo": 120.0
            },
            {
                "start_time": 7.1045455,
                "end_time": 7.2340909,
                "pitch": 36,
                "velocity": 51,
                "duration": 0.1295455,
                "tempo": 120.0
            },
            {
                "start_time": 7.25,
                "end_time": 7.3795455,
                "pitch": 43,
                "velocity": 51,
                "duration": 0.1295455,
                "tempo": 120.0
            },
            {
                "start_time": 7.3954545,
                "end_time": 7.5340909,
                "pitch": 36,
                "velocity": 51,
                "duration": 0.1386364,
                "tempo": 120.0
            },
            {
                "start_time": 7.5522727,
                "end_time": 7.6909091,
                "pitch": 43,
                "velocity": 51,
                "duration": 0.1386364,
                "tempo": 120.0
            },
            {
                "start_time": 7.7090909,
                "end_time": 7.8477273,
                "pitch": 36,
                "velocity": 51,
                "duration": 0.1386364,
                "tempo": 120.0
            },
            {
                "start_time": 7.8636364,
                "end_time": 8.0045455,
                "pitch": 43,
                "velocity": 51,
                "duration": 0.1409091,
                "tempo": 120.0
            },
            {
                "start_time": 8.0204545,
                "end_time": 8.1522727,
                "pitch": 36,
                "velocity": 51,
                "duration": 0.1318182,
                "tempo": 120.0
            },
            {
                "start_time": 8.1681818,
                "end_time": 8.3,
                "pitch": 43,
                "velocity": 51,
                "duration": 0.1318182,
                "tempo": 120.0
            },
            {
                "start_time": 8.3181818,
                "end_time": 8.45,
                "pitch": 36,
                "velocity": 51,
                "duration": 0.1318182,
                "tempo": 120.0
            },
            {
                "start_time": 8.4659091,
                "end_time": 8.5977273,
                "pitch": 43,
                "velocity": 51,
                "duration": 0.1318182,
                "tempo": 120.0
            },
            {
                "start_time": 8.6136364,
                "end_time": 8.75,
                "pitch": 36,
                "velocity": 51,
                "duration": 0.1363636,
                "tempo": 120.0
            },
            {
                "start_time": 8.7681818,
                "end_time": 8.9045455,
                "pitch": 43,
                "velocity": 51,
                "duration": 0.1363636,
                "tempo": 120.0
            },
            {
                "start_time": 8.9204545,
                "end_time": 9.0568182,
                "pitch": 42,
                "velocity": 51,
                "duration": 0.1363636,
                "tempo": 120.0
            },
            {
                "start_time": 9.0727273,
                "end_time": 9.2090909,
                "pitch": 42,
                "velocity": 51,
                "duration": 0.1363636,
                "tempo": 120.0
            },
            {
                "start_time": 9.2272727,
                "end_time": 9.3590909,
                "pitch": 42,
                "velocity": 51,
                "duration": 0.1318182,
                "tempo": 120.0
            },
            {
                "start_time": 9.3772727,
                "end_time": 9.5090909,
                "pitch": 40,
                "velocity": 51,
                "duration": 0.1318182,
                "tempo": 120.0
            },
            {
                "start_time": 9.5272727,
                "end_time": 9.6590909,
                "pitch": 36,
                "velocity": 51,
                "duration": 0.1318182,
                "tempo": 120.0
            },
            {
                "start_time": 9.6772727,
                "end_time": 9.8090909,
                "pitch": 43,
                "velocity": 51,
                "duration": 0.1318182,
                "tempo": 120.0
            },
            {
                "start_time": 9.8272727,
                "end_time": 9.9590909,
                "pitch": 36,
                "velocity": 51,
                "duration": 0.1318182,
                "tempo": 120.0
            },
            {
                "start_time": 9.9772727,
                "end_time": 10.1090909,
                "pitch": 43,
                "velocity": 51,
                "duration": 0.1318182,
                "tempo": 120.0
            },
            {
                "start_time": 10.1272727,
                "end_time": 10.2590909,
                "pitch": 36,
                "velocity": 51,
                "duration": 0.1318182,
                "tempo": 120.0
            },
            {
                "start_time": 10.2772727,
                "end_time": 10.4090909,
                "pitch": 43,
                "velocity": 51,
                "duration": 0.1318182,
                "tempo": 120.0
            },
            {
                "start_time": 10.4272727,
                "end_time": 10.5613636,
                "pitch": 36,
                "velocity": 51,
                "duration": 0.1340909,
                "tempo": 120.0
            },
            {
                "start_time": 10.5772727,
                "end_time": 10.7136364,
                "pitch": 43,
                "velocity": 51,
                "duration": 0.1363636,
                "tempo": 120.0
            },
            {
                "start_time": 10.7295455,
                "end_time": 10.8636364,
                "pitch": 36,
                "velocity": 51,
                "duration": 0.1340909,
                "tempo": 120.0
            },
            {
                "start_time": 10.8818182,
                "end_time": 11.0159091,
                "pitch": 43,
                "velocity": 51,
                "duration": 0.1340909,
                "tempo": 120.0
            },
            {
                "start_time": 11.0318182,
                "end_time": 11.1659091,
                "pitch": 36,
                "velocity": 51,
                "duration": 0.1340909,
                "tempo": 120.0
            },
            {
                "start_time": 11.1818182,
                "end_time": 11.3159091,
                "pitch": 43,
                "velocity": 51,
                "duration": 0.1340909,
                "tempo": 120.0
            },
            {
                "start_time": 11.3318182,
                "end_time": 11.4659091,
                "pitch": 42,
                "velocity": 51,
                "duration": 0.1340909,
                "tempo": 120.0
            },
            {
                "start_time": 11.4818182,
                "end_time": 11.6159091,
                "pitch": 42,
                "velocity": 51,
                "duration": 0.1340909,
                "tempo": 120.0
            },
            {
                "start_time": 11.6318182,
                "end_time": 11.7636364,
                "pitch": 42,
                "velocity": 51,
                "duration": 0.1318182,
                "tempo": 120.0
            },
            {
                "start_time": 11.7818182,
                "end_time": 11.9136364,
                "pitch": 40,
                "velocity": 51,
                "duration": 0.1318182,
                "tempo": 120.0
            },
            {
                "start_time": 11.9295455,
                "end_time": 12.0613636,
                "pitch": 36,
                "velocity": 51,
                "duration": 0.1318182,
                "tempo": 120.0
            },
            {
                "start_time": 12.0772727,
                "end_time": 12.2113636,
                "pitch": 43,
                "velocity": 51,
                "duration": 0.1340909,
                "tempo": 120.0
            },
            {
                "start_time": 12.2272727,
                "end_time": 12.5068182,
                "pitch": 36,
                "velocity": 51,
                "duration": 0.2795455,
                "tempo": 120.0
            },
            {
                "start_time": 12.5227273,
                "end_time": 12.8045455,
                "pitch": 36,
                "velocity": 51,
                "duration": 0.2818182,
                "tempo": 120.0
            },
            {
                "start_time": 12.8204545,
                "end_time": 13.1045455,
                "pitch": 36,
                "velocity": 51,
                "duration": 0.2840909,
                "tempo": 120.0
            },
            {
                "start_time": 13.1204545,
                "end_time": 13.2545455,
                "pitch": 36,
                "velocity": 51,
                "duration": 0.1340909,
                "tempo": 120.0
            },
            {
                "start_time": 13.2704545,
                "end_time": 13.4045455,
                "pitch": 43,
                "velocity": 51,
                "duration": 0.1340909,
                "tempo": 120.0
            },
            {
                "start_time": 13.4204545,
                "end_time": 13.7045455,
                "pitch": 36,
                "velocity": 51,
                "duration": 0.2840909,
                "tempo": 120.0
            },
            {
                "start_time": 13.7204545,
                "end_time": 14.0045455,
                "pitch": 36,
                "velocity": 51,
                "duration": 0.2840909,
                "tempo": 120.0
            },
            {
                "start_time": 14.0204545,
                "end_time": 14.3113636,
                "pitch": 36,
                "velocity": 51,
                "duration": 0.2909091,
                "tempo": 120.0
            },
            {
                "start_time": 14.3272727,
                "end_time": 14.4636364,
                "pitch": 36,
                "velocity": 51,
                "duration": 0.1363636,
                "tempo": 120.0
            },
            {
                "start_time": 14.4795455,
                "end_time": 14.6159091,
                "pitch": 43,
                "velocity": 51,
                "duration": 0.1363636,
                "tempo": 120.0
            },
            {
                "start_time": 14.6318182,
                "end_time": 14.9136364,
                "pitch": 36,
                "velocity": 51,
                "duration": 0.2818182,
                "tempo": 120.0
            },
            {
                "start_time": 14.9295455,
                "end_time": 15.2113636,
                "pitch": 36,
                "velocity": 51,
                "duration": 0.2818182,
                "tempo": 120.0
            },
            {
                "start_time": 15.2272727,
                "end_time": 15.5113636,
                "pitch": 36,
                "velocity": 51,
                "duration": 0.2840909,
                "tempo": 120.0
            },
            {
                "start_time": 15.5272727,
                "end_time": 15.6613636,
                "pitch": 36,
                "velocity": 51,
                "duration": 0.1340909,
                "tempo": 120.0
            },
            {
                "start_time": 15.6772727,
                "end_time": 15.8113636,
                "pitch": 43,
                "velocity": 51,
                "duration": 0.1340909,
                "tempo": 120.0
            },
            {
                "start_time": 15.8272727,
                "end_time": 16.1113636,
                "pitch": 36,
                "velocity": 51,
                "duration": 0.2840909,
                "tempo": 120.0
            },
            {
                "start_time": 16.1272727,
                "end_time": 16.4113636,
                "pitch": 36,
                "velocity": 51,
                "duration": 0.2840909,
                "tempo": 120.0
            },
            {
                "start_time": 16.4272727,
                "end_time": 16.7159091,
                "pitch": 36,
                "velocity": 51,
                "duration": 0.2886364,
                "tempo": 120.0
            },
            {
                "start_time": 16.7340909,
                "end_time": 17.0227273,
                "pitch": 48,
                "velocity": 51,
                "duration": 0.2886364,
                "tempo": 120.0
            },
            {
                "start_time": 17.0386364,
                "end_time": 17.3227273,
                "pitch": 48,
                "velocity": 51,
                "duration": 0.2840909,
                "tempo": 120.0
            },
            {
                "start_time": 17.3386364,
                "end_time": 17.6227273,
                "pitch": 48,
                "velocity": 51,
                "duration": 0.2840909,
                "tempo": 120.0
            },
            {
                "start_time": 17.6386364,
                "end_time": 17.9204545,
                "pitch": 48,
                "velocity": 51,
                "duration": 0.2818182,
                "tempo": 120.0
            },
            {
                "start_time": 17.9363636,
                "end_time": 18.2159091,
                "pitch": 48,
                "velocity": 51,
                "duration": 0.2795455,
                "tempo": 120.0
            },
            {
                "start_time": 18.2340909,
                "end_time": 18.5227273,
                "pitch": 48,
                "velocity": 51,
                "duration": 0.2886364,
                "tempo": 120.0
            },
            {
                "start_time": 18.5386364,
                "end_time": 18.8295455,
                "pitch": 48,
                "velocity": 51,
                "duration": 0.2909091,
                "tempo": 120.0
            },
            {
                "start_time": 18.8454545,
                "end_time": 19.1295455,
                "pitch": 48,
                "velocity": 51,
                "duration": 0.2840909,
                "tempo": 120.0
            },
            {
                "start_time": 19.1454545,
                "end_time": 19.4295455,
                "pitch": 48,
                "velocity": 51,
                "duration": 0.2840909,
                "tempo": 120.0
            },
            {
                "start_time": 19.4454545,
                "end_time": 19.7340909,
                "pitch": 48,
                "velocity": 51,
                "duration": 0.2886364,
                "tempo": 120.0
            },
            {
                "start_time": 19.7522727,
                "end_time": 20.0409091,
                "pitch": 48,
                "velocity": 51,
                "duration": 0.2886364,
                "tempo": 120.0
            },
            {
                "start_time": 20.0568182,
                "end_time": 20.3318182,
                "pitch": 48,
                "velocity": 51,
                "duration": 0.275,
                "tempo": 120.0
            },
            {
                "start_time": 20.3477273,
                "end_time": 20.6227273,
                "pitch": 48,
                "velocity": 51,
                "duration": 0.275,
                "tempo": 120.0
            },
            {
                "start_time": 20.6409091,
                "end_time": 20.9295455,
                "pitch": 48,
                "velocity": 51,
                "duration": 0.2886364,
                "tempo": 120.0
            },
            {
                "start_time": 20.9454545,
                "end_time": 21.2340909,
                "pitch": 48,
                "velocity": 51,
                "duration": 0.2886364,
                "tempo": 120.0
            },
            {
                "start_time": 21.2522727,
                "end_time": 21.5386364,
                "pitch": 48,
                "velocity": 51,
                "duration": 0.2863636,
                "tempo": 120.0
            },
            {
                "start_time": 21.5545455,
                "end_time": 21.6886364,
                "pitch": 36,
                "velocity": 51,
                "duration": 0.1340909,
                "tempo": 120.0
            },
            {
                "start_time": 21.7068182,
                "end_time": 21.8409091,
                "pitch": 43,
                "velocity": 51,
                "duration": 0.1340909,
                "tempo": 120.0
            },
            {
                "start_time": 21.8590909,
                "end_time": 21.9931818,
                "pitch": 36,
                "velocity": 51,
                "duration": 0.1340909,
                "tempo": 120.0
            },
            {
                "start_time": 22.0113636,
                "end_time": 22.1477273,
                "pitch": 43,
                "velocity": 51,
                "duration": 0.1363636,
                "tempo": 120.0
            },
            {
                "start_time": 22.1636364,
                "end_time": 22.3,
                "pitch": 36,
                "velocity": 51,
                "duration": 0.1363636,
                "tempo": 120.0
            },
            {
                "start_time": 22.3181818,
                "end_time": 22.4522727,
                "pitch": 43,
                "velocity": 51,
                "duration": 0.1340909,
                "tempo": 120.0
            },
            {
                "start_time": 22.4704545,
                "end_time": 22.5977273,
                "pitch": 36,
                "velocity": 51,
                "duration": 0.1272727,
                "tempo": 120.0
            },
            {
                "start_time": 22.6159091,
                "end_time": 22.7454545,
                "pitch": 43,
                "velocity": 51,
                "duration": 0.1295455,
                "tempo": 120.0
            },
            {
                "start_time": 22.7613636,
                "end_time": 22.8909091,
                "pitch": 36,
                "velocity": 51,
                "duration": 0.1295455,
                "tempo": 120.0
            },
            {
                "start_time": 22.9068182,
                "end_time": 23.0363636,
                "pitch": 43,
                "velocity": 51,
                "duration": 0.1295455,
                "tempo": 120.0
            },
            {
                "start_time": 23.0522727,
                "end_time": 23.1909091,
                "pitch": 36,
                "velocity": 51,
                "duration": 0.1386364,
                "tempo": 120.0
            },
            {
                "start_time": 23.2090909,
                "end_time": 23.3477273,
                "pitch": 43,
                "velocity": 51,
                "duration": 0.1386364,
                "tempo": 120.0
            },
            {
                "start_time": 23.3636364,
                "end_time": 23.5022727,
                "pitch": 42,
                "velocity": 51,
                "duration": 0.1386364,
                "tempo": 120.0
            },
            {
                "start_time": 23.5204545,
                "end_time": 23.6590909,
                "pitch": 42,
                "velocity": 51,
                "duration": 0.1386364,
                "tempo": 120.0
            },
            {
                "start_time": 23.675,
                "end_time": 23.8045455,
                "pitch": 42,
                "velocity": 51,
                "duration": 0.1295455,
                "tempo": 120.0
            },
            {
                "start_time": 23.8204545,
                "end_time": 23.95,
                "pitch": 40,
                "velocity": 51,
                "duration": 0.1295455,
                "tempo": 120.0
            },
            {
                "start_time": 23.9659091,
                "end_time": 24.0954545,
                "pitch": 36,
                "velocity": 51,
                "duration": 0.1295455,
                "tempo": 120.0
            },
            {
                "start_time": 24.1113636,
                "end_time": 24.2409091,
                "pitch": 43,
                "velocity": 51,
                "duration": 0.1295455,
                "tempo": 120.0
            },
            {
                "start_time": 24.2590909,
                "end_time": 24.3977273,
                "pitch": 36,
                "velocity": 51,
                "duration": 0.1386364,
                "tempo": 120.0
            },
            {
                "start_time": 24.4136364,
                "end_time": 24.5522727,
                "pitch": 43,
                "velocity": 51,
                "duration": 0.1386364,
                "tempo": 120.0
            },
            {
                "start_time": 24.5704545,
                "end_time": 24.7090909,
                "pitch": 36,
                "velocity": 51,
                "duration": 0.1386364,
                "tempo": 120.0
            },
            {
                "start_time": 24.7272727,
                "end_time": 24.8659091,
                "pitch": 43,
                "velocity": 51,
                "duration": 0.1386364,
                "tempo": 120.0
            },
            {
                "start_time": 24.8818182,
                "end_time": 25.0181818,
                "pitch": 36,
                "velocity": 51,
                "duration": 0.1363636,
                "tempo": 120.0
            },
            {
                "start_time": 25.0340909,
                "end_time": 25.1681818,
                "pitch": 43,
                "velocity": 51,
                "duration": 0.1340909,
                "tempo": 120.0
            },
            {
                "start_time": 25.1863636,
                "end_time": 25.3204545,
                "pitch": 36,
                "velocity": 51,
                "duration": 0.1340909,
                "tempo": 120.0
            },
            {
                "start_time": 25.3363636,
                "end_time": 25.4727273,
                "pitch": 43,
                "velocity": 51,
                "duration": 0.1363636,
                "tempo": 120.0
            },
            {
                "start_time": 25.4886364,
                "end_time": 25.6227273,
                "pitch": 36,
                "velocity": 51,
                "duration": 0.1340909,
                "tempo": 120.0
            },
            {
                "start_time": 25.6386364,
                "end_time": 25.7727273,
                "pitch": 43,
                "velocity": 51,
                "duration": 0.1340909,
                "tempo": 120.0
            },
            {
                "start_time": 25.7886364,
                "end_time": 25.9227273,
                "pitch": 42,
                "velocity": 51,
                "duration": 0.1340909,
                "tempo": 120.0
            },
            {
                "start_time": 25.9386364,
                "end_time": 26.0727273,
                "pitch": 42,
                "velocity": 51,
                "duration": 0.1340909,
                "tempo": 120.0
            },
            {
                "start_time": 26.0886364,
                "end_time": 26.2227273,
                "pitch": 42,
                "velocity": 51,
                "duration": 0.1340909,
                "tempo": 120.0
            },
            {
                "start_time": 26.2409091,
                "end_time": 26.375,
                "pitch": 40,
                "velocity": 51,
                "duration": 0.1340909,
                "tempo": 120.0
            },
            {
                "start_time": 26.3909091,
                "end_time": 26.5272727,
                "pitch": 36,
                "velocity": 51,
                "duration": 0.1363636,
                "tempo": 120.0
            },
            {
                "start_time": 26.5431818,
                "end_time": 26.6772727,
                "pitch": 43,
                "velocity": 51,
                "duration": 0.1340909,
                "tempo": 120.0
            },
            {
                "start_time": 26.6954545,
                "end_time": 26.8295455,
                "pitch": 36,
                "velocity": 51,
                "duration": 0.1340909,
                "tempo": 120.0
            },
            {
                "start_time": 26.8454545,
                "end_time": 26.9818182,
                "pitch": 43,
                "velocity": 51,
                "duration": 0.1363636,
                "tempo": 120.0
            },
            {
                "start_time": 26.9977273,
                "end_time": 27.1318182,
                "pitch": 36,
                "velocity": 51,
                "duration": 0.1340909,
                "tempo": 120.0
            },
            {
                "start_time": 27.15,
                "end_time": 27.2840909,
                "pitch": 43,
                "velocity": 51,
                "duration": 0.1340909,
                "tempo": 120.0
            },
            {
                "start_time": 27.3,
                "end_time": 27.4340909,
                "pitch": 36,
                "velocity": 51,
                "duration": 0.1340909,
                "tempo": 120.0
            },
            {
                "start_time": 27.45,
                "end_time": 27.5840909,
                "pitch": 43,
                "velocity": 51,
                "duration": 0.1340909,
                "tempo": 120.0
            },
            {
                "start_time": 27.6,
                "end_time": 27.7340909,
                "pitch": 36,
                "velocity": 51,
                "duration": 0.1340909,
                "tempo": 120.0
            },
            {
                "start_time": 27.75,
                "end_time": 27.8840909,
                "pitch": 43,
                "velocity": 51,
                "duration": 0.1340909,
                "tempo": 120.0
            },
            {
                "start_time": 27.9,
                "end_time": 28.0363636,
                "pitch": 36,
                "velocity": 51,
                "duration": 0.1363636,
                "tempo": 120.0
            },
            {
                "start_time": 28.0522727,
                "end_time": 28.1863636,
                "pitch": 43,
                "velocity": 51,
                "duration": 0.1340909,
                "tempo": 120.0
            },
            {
                "start_time": 28.2045455,
                "end_time": 28.3386364,
                "pitch": 42,
                "velocity": 51,
                "duration": 0.1340909,
                "tempo": 120.0
            },
            {
                "start_time": 28.3545455,
                "end_time": 28.4909091,
                "pitch": 42,
                "velocity": 51,
                "duration": 0.1363636,
                "tempo": 120.0
            },
            {
                "start_time": 28.5068182,
                "end_time": 28.6409091,
                "pitch": 42,
                "velocity": 51,
                "duration": 0.1340909,
                "tempo": 120.0
            },
            {
                "start_time": 28.6568182,
                "end_time": 28.7909091,
                "pitch": 40,
                "velocity": 51,
                "duration": 0.1340909,
                "tempo": 120.0
            },
            {
                "start_time": 28.8068182,
                "end_time": 28.9409091,
                "pitch": 36,
                "velocity": 51,
                "duration": 0.1340909,
                "tempo": 120.0
            },
            {
                "start_time": 28.9568182,
                "end_time": 29.0909091,
                "pitch": 43,
                "velocity": 51,
                "duration": 0.1340909,
                "tempo": 120.0
            },
            {
                "start_time": 29.1068182,
                "end_time": 29.3818182,
                "pitch": 36,
                "velocity": 51,
                "duration": 0.275,
                "tempo": 120.0
            },
            {
                "start_time": 29.3977273,
                "end_time": 29.6727273,
                "pitch": 36,
                "velocity": 51,
                "duration": 0.275,
                "tempo": 120.0
            },
            {
                "start_time": 29.6886364,
                "end_time": 29.9727273,
                "pitch": 36,
                "velocity": 51,
                "duration": 0.2840909,
                "tempo": 120.0
            },
            {
                "start_time": 29.9886364,
                "end_time": 30.1227273,
                "pitch": 36,
                "velocity": 51,
                "duration": 0.1340909,
                "tempo": 120.0
            },
            {
                "start_time": 30.1386364,
                "end_time": 30.2727273,
                "pitch": 43,
                "velocity": 51,
                "duration": 0.1340909,
                "tempo": 120.0
            },
            {
                "start_time": 30.2909091,
                "end_time": 30.575,
                "pitch": 36,
                "velocity": 51,
                "duration": 0.2840909,
                "tempo": 120.0
            },
            {
                "start_time": 30.5931818,
                "end_time": 30.8795455,
                "pitch": 36,
                "velocity": 51,
                "duration": 0.2863636,
                "tempo": 120.0
            },
            {
                "start_time": 30.8954545,
                "end_time": 31.1818182,
                "pitch": 36,
                "velocity": 51,
                "duration": 0.2863636,
                "tempo": 120.0
            },
            {
                "start_time": 31.2,
                "end_time": 31.3340909,
                "pitch": 36,
                "velocity": 51,
                "duration": 0.1340909,
                "tempo": 120.0
            },
            {
                "start_time": 31.35,
                "end_time": 31.4840909,
                "pitch": 43,
                "velocity": 51,
                "duration": 0.1340909,
                "tempo": 120.0
            },
            {
                "start_time": 31.5022727,
                "end_time": 31.7840909,
                "pitch": 36,
                "velocity": 51,
                "duration": 0.2818182,
                "tempo": 120.0
            },
            {
                "start_time": 31.8022727,
                "end_time": 32.0840909,
                "pitch": 36,
                "velocity": 51,
                "duration": 0.2818182,
                "tempo": 120.0
            },
            {
                "start_time": 32.1022727,
                "end_time": 32.3909091,
                "pitch": 36,
                "velocity": 51,
                "duration": 0.2886364,
                "tempo": 120.0
            },
            {
                "start_time": 32.4090909,
                "end_time": 32.5431818,
                "pitch": 36,
                "velocity": 51,
                "duration": 0.1340909,
                "tempo": 120.0
            },
            {
                "start_time": 32.5613636,
                "end_time": 32.6977273,
                "pitch": 43,
                "velocity": 51,
                "duration": 0.1363636,
                "tempo": 120.0
            },
            {
                "start_time": 32.7136364,
                "end_time": 32.9977273,
                "pitch": 36,
                "velocity": 51,
                "duration": 0.2840909,
                "tempo": 120.0
            },
            {
                "start_time": 33.0136364,
                "end_time": 33.2977273,
                "pitch": 36,
                "velocity": 51,
                "duration": 0.2840909,
                "tempo": 120.0
            },
            {
                "start_time": 33.3136364,
                "end_time": 33.6,
                "pitch": 36,
                "velocity": 51,
                "duration": 0.2863636,
                "tempo": 120.0
            },
            {
                "start_time": 33.6181818,
                "end_time": 33.7522727,
                "pitch": 51,
                "velocity": 51,
                "duration": 0.1340909,
                "tempo": 120.0
            },
            {
                "start_time": 33.7681818,
                "end_time": 33.9022727,
                "pitch": 58,
                "velocity": 51,
                "duration": 0.1340909,
                "tempo": 120.0
            },
            {
                "start_time": 33.9204545,
                "end_time": 34.0522727,
                "pitch": 51,
                "velocity": 51,
                "duration": 0.1318182,
                "tempo": 120.0
            },
            {
                "start_time": 34.0681818,
                "end_time": 34.2,
                "pitch": 58,
                "velocity": 51,
                "duration": 0.1318182,
                "tempo": 120.0
            },
            {
                "start_time": 34.2159091,
                "end_time": 34.35,
                "pitch": 51,
                "velocity": 51,
                "duration": 0.1340909,
                "tempo": 120.0
            },
            {
                "start_time": 34.3659091,
                "end_time": 34.4977273,
                "pitch": 58,
                "velocity": 51,
                "duration": 0.1318182,
                "tempo": 120.0
            },
            {
                "start_time": 34.5136364,
                "end_time": 34.65,
                "pitch": 51,
                "velocity": 51,
                "duration": 0.1363636,
                "tempo": 120.0
            },
            {
                "start_time": 34.6659091,
                "end_time": 34.8,
                "pitch": 58,
                "velocity": 51,
                "duration": 0.1340909,
                "tempo": 120.0
            },
            {
                "start_time": 34.8181818,
                "end_time": 34.9522727,
                "pitch": 51,
                "velocity": 51,
                "duration": 0.1340909,
                "tempo": 120.0
            },
            {
                "start_time": 34.9681818,
                "end_time": 35.1045455,
                "pitch": 58,
                "velocity": 51,
                "duration": 0.1363636,
                "tempo": 120.0
            },
            {
                "start_time": 35.1204545,
                "end_time": 35.2545455,
                "pitch": 51,
                "velocity": 51,
                "duration": 0.1340909,
                "tempo": 120.0
            },
            {
                "start_time": 35.2704545,
                "end_time": 35.4045455,
                "pitch": 58,
                "velocity": 51,
                "duration": 0.1340909,
                "tempo": 120.0
            },
            {
                "start_time": 35.4204545,
                "end_time": 35.5545455,
                "pitch": 51,
                "velocity": 51,
                "duration": 0.1340909,
                "tempo": 120.0
            },
            {
                "start_time": 35.5704545,
                "end_time": 35.7045455,
                "pitch": 58,
                "velocity": 51,
                "duration": 0.1340909,
                "tempo": 120.0
            },
            {
                "start_time": 35.7204545,
                "end_time": 35.8545455,
                "pitch": 51,
                "velocity": 51,
                "duration": 0.1340909,
                "tempo": 120.0
            },
            {
                "start_time": 35.8727273,
                "end_time": 36.0068182,
                "pitch": 58,
                "velocity": 51,
                "duration": 0.1340909,
                "tempo": 120.0
            },
            {
                "start_time": 36.0227273,
                "end_time": 36.1590909,
                "pitch": 47,
                "velocity": 51,
                "duration": 0.1363636,
                "tempo": 120.0
            },
            {
                "start_time": 36.175,
                "end_time": 36.3090909,
                "pitch": 54,
                "velocity": 51,
                "duration": 0.1340909,
                "tempo": 120.0
            },
            {
                "start_time": 36.3272727,
                "end_time": 36.4613636,
                "pitch": 47,
                "velocity": 51,
                "duration": 0.1340909,
                "tempo": 120.0
            },
            {
                "start_time": 36.4772727,
                "end_time": 36.6136364,
                "pitch": 54,
                "velocity": 51,
                "duration": 0.1363636,
                "tempo": 120.0
            },
            {
                "start_time": 36.6295455,
                "end_time": 36.7636364,
                "pitch": 47,
                "velocity": 51,
                "duration": 0.1340909,
                "tempo": 120.0
            },
            {
                "start_time": 36.7818182,
                "end_time": 36.9159091,
                "pitch": 54,
                "velocity": 51,
                "duration": 0.1340909,
                "tempo": 120.0
            },
            {
                "start_time": 36.9318182,
                "end_time": 37.0704545,
                "pitch": 47,
                "velocity": 51,
                "duration": 0.1386364,
                "tempo": 120.0
            },
            {
                "start_time": 37.0886364,
                "end_time": 37.2272727,
                "pitch": 54,
                "velocity": 51,
                "duration": 0.1386364,
                "tempo": 120.0
            },
            {
                "start_time": 37.2454545,
                "end_time": 37.3840909,
                "pitch": 47,
                "velocity": 51,
                "duration": 0.1386364,
                "tempo": 120.0
            },
            {
                "start_time": 37.4,
                "end_time": 37.5409091,
                "pitch": 54,
                "velocity": 51,
                "duration": 0.1409091,
                "tempo": 120.0
            },
            {
                "start_time": 37.5568182,
                "end_time": 37.6931818,
                "pitch": 47,
                "velocity": 51,
                "duration": 0.1363636,
                "tempo": 120.0
            },
            {
                "start_time": 37.7090909,
                "end_time": 37.8431818,
                "pitch": 54,
                "velocity": 51,
                "duration": 0.1340909,
                "tempo": 120.0
            },
            {
                "start_time": 37.8613636,
                "end_time": 37.9954545,
                "pitch": 47,
                "velocity": 51,
                "duration": 0.1340909,
                "tempo": 120.0
            },
            {
                "start_time": 38.0113636,
                "end_time": 38.1477273,
                "pitch": 54,
                "velocity": 51,
                "duration": 0.1363636,
                "tempo": 120.0
            },
            {
                "start_time": 38.1636364,
                "end_time": 38.2977273,
                "pitch": 47,
                "velocity": 51,
                "duration": 0.1340909,
                "tempo": 120.0
            },
            {
                "start_time": 38.3159091,
                "end_time": 38.45,
                "pitch": 54,
                "velocity": 51,
                "duration": 0.1340909,
                "tempo": 120.0
            },
            {
                "start_time": 38.4659091,
                "end_time": 38.6022727,
                "pitch": 43,
                "velocity": 51,
                "duration": 0.1363636,
                "tempo": 120.0
            },
            {
                "start_time": 38.6181818,
                "end_time": 38.7522727,
                "pitch": 50,
                "velocity": 51,
                "duration": 0.1340909,
                "tempo": 120.0
            },
            {
                "start_time": 38.7704545,
                "end_time": 38.9022727,
                "pitch": 43,
                "velocity": 51,
                "duration": 0.1318182,
                "tempo": 120.0
            },
            {
                "start_time": 38.9181818,
                "end_time": 39.05,
                "pitch": 50,
                "velocity": 51,
                "duration": 0.1318182,
                "tempo": 120.0
            },
            {
                "start_time": 39.0659091,
                "end_time": 39.1977273,
                "pitch": 43,
                "velocity": 51,
                "duration": 0.1318182,
                "tempo": 120.0
            },
            {
                "start_time": 39.2159091,
                "end_time": 39.3477273,
                "pitch": 50,
                "velocity": 51,
                "duration": 0.1318182,
                "tempo": 120.0
            },
            {
                "start_time": 39.3636364,
                "end_time": 39.4977273,
                "pitch": 43,
                "velocity": 51,
                "duration": 0.1340909,
                "tempo": 120.0
            },
            {
                "start_time": 39.5159091,
                "end_time": 39.65,
                "pitch": 50,
                "velocity": 51,
                "duration": 0.1340909,
                "tempo": 120.0
            },
            {
                "start_time": 39.6659091,
                "end_time": 39.8022727,
                "pitch": 43,
                "velocity": 51,
                "duration": 0.1363636,
                "tempo": 120.0
            },
            {
                "start_time": 39.8181818,
                "end_time": 39.9522727,
                "pitch": 50,
                "velocity": 51,
                "duration": 0.1340909,
                "tempo": 120.0
            },
            {
                "start_time": 39.9704545,
                "end_time": 40.1068182,
                "pitch": 43,
                "velocity": 51,
                "duration": 0.1363636,
                "tempo": 120.0
            },
            {
                "start_time": 40.1227273,
                "end_time": 40.2590909,
                "pitch": 50,
                "velocity": 51,
                "duration": 0.1363636,
                "tempo": 120.0
            },
            {
                "start_time": 40.275,
                "end_time": 40.4113636,
                "pitch": 43,
                "velocity": 51,
                "duration": 0.1363636,
                "tempo": 120.0
            },
            {
                "start_time": 40.4295455,
                "end_time": 40.5659091,
                "pitch": 50,
                "velocity": 51,
                "duration": 0.1363636,
                "tempo": 120.0
            },
            {
                "start_time": 40.5818182,
                "end_time": 40.7113636,
                "pitch": 43,
                "velocity": 51,
                "duration": 0.1295455,
                "tempo": 120.0
            },
            {
                "start_time": 40.7272727,
                "end_time": 40.8568182,
                "pitch": 50,
                "velocity": 51,
                "duration": 0.1295455,
                "tempo": 120.0
            },
            {
                "start_time": 40.8727273,
                "end_time": 41.0022727,
                "pitch": 38,
                "velocity": 51,
                "duration": 0.1295455,
                "tempo": 120.0
            },
            {
                "start_time": 41.0181818,
                "end_time": 41.1477273,
                "pitch": 38,
                "velocity": 51,
                "duration": 0.1295455,
                "tempo": 120.0
            },
            {
                "start_time": 41.1636364,
                "end_time": 41.3022727,
                "pitch": 38,
                "velocity": 51,
                "duration": 0.1386364,
                "tempo": 120.0
            },
            {
                "start_time": 41.3204545,
                "end_time": 41.4590909,
                "pitch": 38,
                "velocity": 51,
                "duration": 0.1386364,
                "tempo": 120.0
            },
            {
                "start_time": 41.475,
                "end_time": 41.6136364,
                "pitch": 38,
                "velocity": 51,
                "duration": 0.1386364,
                "tempo": 120.0
            },
            {
                "start_time": 41.6318182,
                "end_time": 41.7704545,
                "pitch": 38,
                "velocity": 51,
                "duration": 0.1386364,
                "tempo": 120.0
            },
            {
                "start_time": 41.7863636,
                "end_time": 41.9159091,
                "pitch": 38,
                "velocity": 51,
                "duration": 0.1295455,
                "tempo": 120.0
            },
            {
                "start_time": 41.9318182,
                "end_time": 42.0613636,
                "pitch": 38,
                "velocity": 51,
                "duration": 0.1295455,
                "tempo": 120.0
            },
            {
                "start_time": 42.0795455,
                "end_time": 42.2068182,
                "pitch": 43,
                "velocity": 51,
                "duration": 0.1272727,
                "tempo": 120.0
            },
            {
                "start_time": 42.225,
                "end_time": 42.3545455,
                "pitch": 43,
                "velocity": 51,
                "duration": 0.1295455,
                "tempo": 120.0
            },
            {
                "start_time": 42.3704545,
                "end_time": 42.5090909,
                "pitch": 43,
                "velocity": 51,
                "duration": 0.1386364,
                "tempo": 120.0
            },
            {
                "start_time": 42.525,
                "end_time": 42.6636364,
                "pitch": 43,
                "velocity": 51,
                "duration": 0.1386364,
                "tempo": 120.0
            },
            {
                "start_time": 42.6818182,
                "end_time": 42.8204545,
                "pitch": 43,
                "velocity": 51,
                "duration": 0.1386364,
                "tempo": 120.0
            },
            {
                "start_time": 42.8386364,
                "end_time": 42.9772727,
                "pitch": 43,
                "velocity": 51,
                "duration": 0.1386364,
                "tempo": 120.0
            },
            {
                "start_time": 42.9954545,
                "end_time": 43.1272727,
                "pitch": 43,
                "velocity": 51,
                "duration": 0.1318182,
                "tempo": 120.0
            },
            {
                "start_time": 43.1454545,
                "end_time": 43.2772727,
                "pitch": 43,
                "velocity": 51,
                "duration": 0.1318182,
                "tempo": 120.0
            },
            {
                "start_time": 43.2954545,
                "end_time": 43.4272727,
                "pitch": 36,
                "velocity": 51,
                "duration": 0.1318182,
                "tempo": 120.0
            },
            {
                "start_time": 43.4454545,
                "end_time": 43.5772727,
                "pitch": 43,
                "velocity": 51,
                "duration": 0.1318182,
                "tempo": 120.0
            },
            {
                "start_time": 43.5954545,
                "end_time": 43.7295455,
                "pitch": 36,
                "velocity": 51,
                "duration": 0.1340909,
                "tempo": 120.0
            },
            {
                "start_time": 43.7454545,
                "end_time": 43.8818182,
                "pitch": 43,
                "velocity": 51,
                "duration": 0.1363636,
                "tempo": 120.0
            },
            {
                "start_time": 43.8977273,
                "end_time": 44.0318182,
                "pitch": 36,
                "velocity": 51,
                "duration": 0.1340909,
                "tempo": 120.0
            },
            {
                "start_time": 44.05,
                "end_time": 44.1840909,
                "pitch": 43,
                "velocity": 51,
                "duration": 0.1340909,
                "tempo": 120.0
            },
            {
                "start_time": 44.2,
                "end_time": 44.3363636,
                "pitch": 36,
                "velocity": 51,
                "duration": 0.1363636,
                "tempo": 120.0
            },
            {
                "start_time": 44.3522727,
                "end_time": 44.4863636,
                "pitch": 43,
                "velocity": 51,
                "duration": 0.1340909,
                "tempo": 120.0
            }
        ],
        "Vibraphone": [
            {
                "start_time": 0.0772727,
                "end_time": 0.1113636,
                "pitch": 84,
                "velocity": 51,
                "duration": 0.0340909,
                "tempo": 120.0
            },
            {
                "start_time": 0.1340909,
                "end_time": 0.3113636,
                "pitch": 84,
                "velocity": 51,
                "duration": 0.1772727,
                "tempo": 120.0
            },
            {
                "start_time": 0.3272727,
                "end_time": 0.3795455,
                "pitch": 84,
                "velocity": 51,
                "duration": 0.0522727,
                "tempo": 120.0
            },
            {
                "start_time": 0.4136364,
                "end_time": 0.6136364,
                "pitch": 84,
                "velocity": 51,
                "duration": 0.2,
                "tempo": 120.0
            },
            {
                "start_time": 0.6318182,
                "end_time": 0.6818182,
                "pitch": 84,
                "velocity": 51,
                "duration": 0.05,
                "tempo": 120.0
            },
            {
                "start_time": 0.7159091,
                "end_time": 0.9159091,
                "pitch": 84,
                "velocity": 51,
                "duration": 0.2,
                "tempo": 120.0
            },
            {
                "start_time": 0.9318182,
                "end_time": 0.9818182,
                "pitch": 84,
                "velocity": 51,
                "duration": 0.05,
                "tempo": 120.0
            },
            {
                "start_time": 1.0159091,
                "end_time": 1.0818182,
                "pitch": 84,
                "velocity": 51,
                "duration": 0.0659091,
                "tempo": 120.0
            },
            {
                "start_time": 1.0818182,
                "end_time": 1.2159091,
                "pitch": 84,
                "velocity": 51,
                "duration": 0.1340909,
                "tempo": 120.0
            },
            {
                "start_time": 1.2318182,
                "end_time": 1.2818182,
                "pitch": 84,
                "velocity": 51,
                "duration": 0.05,
                "tempo": 120.0
            },
            {
                "start_time": 1.3159091,
                "end_time": 1.5159091,
                "pitch": 84,
                "velocity": 51,
                "duration": 0.2,
                "tempo": 120.0
            },
            {
                "start_time": 1.5318182,
                "end_time": 1.5818182,
                "pitch": 84,
                "velocity": 51,
                "duration": 0.05,
                "tempo": 120.0
            },
            {
                "start_time": 1.6159091,
                "end_time": 1.8159091,
                "pitch": 84,
                "velocity": 51,
                "duration": 0.2,
                "tempo": 120.0
            },
            {
                "start_time": 1.8318182,
                "end_time": 1.8818182,
                "pitch": 84,
                "velocity": 51,
                "duration": 0.05,
                "tempo": 120.0
            },
            {
                "start_time": 1.9159091,
                "end_time": 1.9659091,
                "pitch": 84,
                "velocity": 51,
                "duration": 0.05,
                "tempo": 120.0
            },
            {
                "start_time": 1.9818182,
                "end_time": 2.0318182,
                "pitch": 84,
                "velocity": 51,
                "duration": 0.05,
                "tempo": 120.0
            },
            {
                "start_time": 2.0636364,
                "end_time": 2.1113636,
                "pitch": 84,
                "velocity": 51,
                "duration": 0.0477273,
                "tempo": 120.0
            },
            {
                "start_time": 2.1272727,
                "end_time": 2.1772727,
                "pitch": 84,
                "velocity": 51,
                "duration": 0.05,
                "tempo": 120.0
            },
            {
                "start_time": 2.2090909,
                "end_time": 2.4022727,
                "pitch": 84,
                "velocity": 51,
                "duration": 0.1931818,
                "tempo": 120.0
            },
            {
                "start_time": 2.4204545,
                "end_time": 2.4681818,
                "pitch": 84,
                "velocity": 51,
                "duration": 0.0477273,
                "tempo": 120.0
            },
            {
                "start_time": 2.5,
                "end_time": 2.7045455,
                "pitch": 84,
                "velocity": 51,
                "duration": 0.2045455,
                "tempo": 120.0
            },
            {
                "start_time": 2.7204545,
                "end_time": 2.7727273,
                "pitch": 84,
                "velocity": 51,
                "duration": 0.0522727,
                "tempo": 120.0
            },
            {
                "start_time": 2.8068182,
                "end_time": 3.0159091,
                "pitch": 84,
                "velocity": 51,
                "duration": 0.2090909,
                "tempo": 120.0
            },
            {
                "start_time": 3.0340909,
                "end_time": 3.0863636,
                "pitch": 84,
                "velocity": 51,
                "duration": 0.0522727,
                "tempo": 120.0
            },
            {
                "start_time": 3.1204545,
                "end_time": 3.325,
                "pitch": 84,
                "velocity": 51,
                "duration": 0.2045455,
                "tempo": 120.0
            },
            {
                "start_time": 3.3409091,
                "end_time": 3.3909091,
                "pitch": 84,
                "velocity": 51,
                "duration": 0.05,
                "tempo": 120.0
            },
            {
                "start_time": 3.425,
                "end_time": 3.6272727,
                "pitch": 84,
                "velocity": 51,
                "duration": 0.2022727,
                "tempo": 120.0
            },
            {
                "start_time": 3.6454545,
                "end_time": 3.6954545,
                "pitch": 84,
                "velocity": 51,
                "duration": 0.05,
                "tempo": 120.0
            },
            {
                "start_time": 3.7295455,
                "end_time": 3.9295455,
                "pitch": 84,
                "velocity": 51,
                "duration": 0.2,
                "tempo": 120.0
            },
            {
                "start_time": 3.9477273,
                "end_time": 3.9977273,
                "pitch": 84,
                "velocity": 51,
                "duration": 0.05,
                "tempo": 120.0
            },
            {
                "start_time": 4.0318182,
                "end_time": 4.2340909,
                "pitch": 84,
                "velocity": 51,
                "duration": 0.2022727,
                "tempo": 120.0
            },
            {
                "start_time": 4.25,
                "end_time": 4.3,
                "pitch": 84,
                "velocity": 51,
                "duration": 0.05,
                "tempo": 120.0
            },
            {
                "start_time": 4.3340909,
                "end_time": 4.3840909,
                "pitch": 84,
                "velocity": 51,
                "duration": 0.05,
                "tempo": 120.0
            },
            {
                "start_time": 4.4022727,
                "end_time": 4.45,
                "pitch": 84,
                "velocity": 51,
                "duration": 0.0477273,
                "tempo": 120.0
            },
            {
                "start_time": 4.4818182,
                "end_time": 4.5318182,
                "pitch": 84,
                "velocity": 51,
                "duration": 0.05,
                "tempo": 120.0
            },
            {
                "start_time": 4.5477273,
                "end_time": 4.5954545,
                "pitch": 84,
                "velocity": 51,
                "duration": 0.0477273,
                "tempo": 120.0
            },
            {
                "start_time": 4.6272727,
                "end_time": 4.8227273,
                "pitch": 84,
                "velocity": 51,
                "duration": 0.1954545,
                "tempo": 120.0
            },
            {
                "start_time": 4.8386364,
                "end_time": 4.8863636,
                "pitch": 84,
                "velocity": 51,
                "duration": 0.0477273,
                "tempo": 120.0
            },
            {
                "start_time": 4.9181818,
                "end_time": 5.1227273,
                "pitch": 84,
                "velocity": 51,
                "duration": 0.2045455,
                "tempo": 120.0
            },
            {
                "start_time": 5.1409091,
                "end_time": 5.1909091,
                "pitch": 84,
                "velocity": 51,
                "duration": 0.05,
                "tempo": 120.0
            },
            {
                "start_time": 5.2272727,
                "end_time": 5.4340909,
                "pitch": 84,
                "velocity": 51,
                "duration": 0.2068182,
                "tempo": 120.0
            },
            {
                "start_time": 5.4522727,
                "end_time": 5.5045455,
                "pitch": 84,
                "velocity": 51,
                "duration": 0.0522727,
                "tempo": 120.0
            },
            {
                "start_time": 5.5386364,
                "end_time": 5.7363636,
                "pitch": 84,
                "velocity": 51,
                "duration": 0.1977273,
                "tempo": 120.0
            },
            {
                "start_time": 5.7522727,
                "end_time": 5.8022727,
                "pitch": 84,
                "velocity": 51,
                "duration": 0.05,
                "tempo": 120.0
            },
            {
                "start_time": 5.8340909,
                "end_time": 6.0272727,
                "pitch": 84,
                "velocity": 51,
                "duration": 0.1931818,
                "tempo": 120.0
            },
            {
                "start_time": 6.0454545,
                "end_time": 6.0931818,
                "pitch": 84,
                "velocity": 51,
                "duration": 0.0477273,
                "tempo": 120.0
            },
            {
                "start_time": 6.125,
                "end_time": 6.3295455,
                "pitch": 84,
                "velocity": 51,
                "duration": 0.2045455,
                "tempo": 120.0
            },
            {
                "start_time": 6.3454545,
                "end_time": 6.3977273,
                "pitch": 84,
                "velocity": 51,
                "duration": 0.0522727,
                "tempo": 120.0
            },
            {
                "start_time": 6.4318182,
                "end_time": 6.6409091,
                "pitch": 84,
                "velocity": 51,
                "duration": 0.2090909,
                "tempo": 120.0
            },
            {
                "start_time": 6.6590909,
                "end_time": 6.7113636,
                "pitch": 84,
                "velocity": 51,
                "duration": 0.0522727,
                "tempo": 120.0
            },
            {
                "start_time": 6.7454545,
                "end_time": 6.7977273,
                "pitch": 84,
                "velocity": 51,
                "duration": 0.0522727,
                "tempo": 120.0
            },
            {
                "start_time": 6.8136364,
                "end_time": 6.8613636,
                "pitch": 84,
                "velocity": 51,
                "duration": 0.0477273,
                "tempo": 120.0
            },
            {
                "start_time": 6.8954545,
                "end_time": 6.9431818,
                "pitch": 84,
                "velocity": 51,
                "duration": 0.0477273,
                "tempo": 120.0
            },
            {
                "start_time": 6.9590909,
                "end_time": 7.0068182,
                "pitch": 84,
                "velocity": 51,
                "duration": 0.0477273,
                "tempo": 120.0
            },
            {
                "start_time": 7.0409091,
                "end_time": 7.2340909,
                "pitch": 84,
                "velocity": 51,
                "duration": 0.1931818,
                "tempo": 120.0
            },
            {
                "start_time": 7.25,
                "end_time": 7.3,
                "pitch": 84,
                "velocity": 51,
                "duration": 0.05,
                "tempo": 120.0
            },
            {
                "start_time": 7.3318182,
                "end_time": 7.5340909,
                "pitch": 84,
                "velocity": 51,
                "duration": 0.2022727,
                "tempo": 120.0
            },
            {
                "start_time": 7.5522727,
                "end_time": 7.6045455,
                "pitch": 84,
                "velocity": 51,
                "duration": 0.0522727,
                "tempo": 120.0
            },
            {
                "start_time": 7.6386364,
                "end_time": 7.8477273,
                "pitch": 84,
                "velocity": 51,
                "duration": 0.2090909,
                "tempo": 120.0
            },
            {
                "start_time": 7.8636364,
                "end_time": 7.9159091,
                "pitch": 84,
                "velocity": 51,
                "duration": 0.0522727,
                "tempo": 120.0
            },
            {
                "start_time": 7.9522727,
                "end_time": 8.1522727,
                "pitch": 84,
                "velocity": 51,
                "duration": 0.2,
                "tempo": 120.0
            },
            {
                "start_time": 8.1681818,
                "end_time": 8.2181818,
                "pitch": 84,
                "velocity": 51,
                "duration": 0.05,
                "tempo": 120.0
            },
            {
                "start_time": 8.2522727,
                "end_time": 8.45,
                "pitch": 84,
                "velocity": 51,
                "duration": 0.1977273,
                "tempo": 120.0
            },
            {
                "start_time": 8.4659091,
                "end_time": 8.5159091,
                "pitch": 84,
                "velocity": 51,
                "duration": 0.05,
                "tempo": 120.0
            },
            {
                "start_time": 8.5477273,
                "end_time": 8.75,
                "pitch": 84,
                "velocity": 51,
                "duration": 0.2022727,
                "tempo": 120.0
            },
            {
                "start_time": 8.7681818,
                "end_time": 8.8181818,
                "pitch": 84,
                "velocity": 51,
                "duration": 0.05,
                "tempo": 120.0
            },
            {
                "start_time": 8.8522727,
                "end_time": 9.0568182,
                "pitch": 84,
                "velocity": 51,
                "duration": 0.2045455,
                "tempo": 120.0
            },
            {
                "start_time": 9.0727273,
                "end_time": 9.125,
                "pitch": 84,
                "velocity": 51,
                "duration": 0.0522727,
                "tempo": 120.0
            },
            {
                "start_time": 9.1590909,
                "end_time": 9.2090909,
                "pitch": 84,
                "velocity": 51,
                "duration": 0.05,
                "tempo": 120.0
            },
            {
                "start_time": 9.2272727,
                "end_time": 9.2772727,
                "pitch": 84,
                "velocity": 51,
                "duration": 0.05,
                "tempo": 120.0
            },
            {
                "start_time": 9.3090909,
                "end_time": 9.3590909,
                "pitch": 84,
                "velocity": 51,
                "duration": 0.05,
                "tempo": 120.0
            },
            {
                "start_time": 9.3772727,
                "end_time": 9.4272727,
                "pitch": 84,
                "velocity": 51,
                "duration": 0.05,
                "tempo": 120.0
            },
            {
                "start_time": 9.4590909,
                "end_time": 9.6590909,
                "pitch": 84,
                "velocity": 51,
                "duration": 0.2,
                "tempo": 120.0
            },
            {
                "start_time": 9.6772727,
                "end_time": 9.7272727,
                "pitch": 84,
                "velocity": 51,
                "duration": 0.05,
                "tempo": 120.0
            },
            {
                "start_time": 9.7590909,
                "end_time": 9.9590909,
                "pitch": 84,
                "velocity": 51,
                "duration": 0.2,
                "tempo": 120.0
            },
            {
                "start_time": 9.9772727,
                "end_time": 10.0272727,
                "pitch": 84,
                "velocity": 51,
                "duration": 0.05,
                "tempo": 120.0
            },
            {
                "start_time": 10.0590909,
                "end_time": 10.2590909,
                "pitch": 84,
                "velocity": 51,
                "duration": 0.2,
                "tempo": 120.0
            },
            {
                "start_time": 10.2772727,
                "end_time": 10.3272727,
                "pitch": 84,
                "velocity": 51,
                "duration": 0.05,
                "tempo": 120.0
            },
            {
                "start_time": 10.3590909,
                "end_time": 10.5613636,
                "pitch": 84,
                "velocity": 51,
                "duration": 0.2022727,
                "tempo": 120.0
            },
            {
                "start_time": 10.5772727,
                "end_time": 10.6295455,
                "pitch": 84,
                "velocity": 51,
                "duration": 0.0522727,
                "tempo": 120.0
            },
            {
                "start_time": 10.6613636,
                "end_time": 10.8636364,
                "pitch": 84,
                "velocity": 51,
                "duration": 0.2022727,
                "tempo": 120.0
            },
            {
                "start_time": 10.8818182,
                "end_time": 10.9318182,
                "pitch": 84,
                "velocity": 51,
                "duration": 0.05,
                "tempo": 120.0
            },
            {
                "start_time": 10.9659091,
                "end_time": 11.1659091,
                "pitch": 84,
                "velocity": 51,
                "duration": 0.2,
                "tempo": 120.0
            },
            {
                "start_time": 11.1818182,
                "end_time": 11.2318182,
                "pitch": 84,
                "velocity": 51,
                "duration": 0.05,
                "tempo": 120.0
            },
            {
                "start_time": 11.2659091,
                "end_time": 11.4659091,
                "pitch": 84,
                "velocity": 51,
                "duration": 0.2,
                "tempo": 120.0
            },
            {
                "start_time": 11.4818182,
                "end_time": 11.5318182,
                "pitch": 84,
                "velocity": 51,
                "duration": 0.05,
                "tempo": 120.0
            },
            {
                "start_time": 11.5659091,
                "end_time": 11.6159091,
                "pitch": 84,
                "velocity": 51,
                "duration": 0.05,
                "tempo": 120.0
            },
            {
                "start_time": 11.6318182,
                "end_time": 11.6818182,
                "pitch": 84,
                "velocity": 51,
                "duration": 0.05,
                "tempo": 120.0
            },
            {
                "start_time": 11.7159091,
                "end_time": 11.7636364,
                "pitch": 84,
                "velocity": 51,
                "duration": 0.0477273,
                "tempo": 120.0
            },
            {
                "start_time": 11.7818182,
                "end_time": 11.8318182,
                "pitch": 84,
                "velocity": 51,
                "duration": 0.05,
                "tempo": 120.0
            },
            {
                "start_time": 11.8636364,
                "end_time": 11.9136364,
                "pitch": 84,
                "velocity": 51,
                "duration": 0.05,
                "tempo": 120.0
            },
            {
                "start_time": 11.9295455,
                "end_time": 11.9795455,
                "pitch": 84,
                "velocity": 51,
                "duration": 0.05,
                "tempo": 120.0
            },
            {
                "start_time": 12.0113636,
                "end_time": 12.0613636,
                "pitch": 84,
                "velocity": 51,
                "duration": 0.05,
                "tempo": 120.0
            },
            {
                "start_time": 12.0772727,
                "end_time": 12.1272727,
                "pitch": 84,
                "velocity": 51,
                "duration": 0.05,
                "tempo": 120.0
            },
            {
                "start_time": 12.1613636,
                "end_time": 12.2113636,
                "pitch": 84,
                "velocity": 51,
                "duration": 0.05,
                "tempo": 120.0
            },
            {
                "start_time": 12.2272727,
                "end_time": 12.3590909,
                "pitch": 84,
                "velocity": 51,
                "duration": 0.1318182,
                "tempo": 120.0
            },
            {
                "start_time": 12.375,
                "end_time": 12.5068182,
                "pitch": 84,
                "velocity": 51,
                "duration": 0.1318182,
                "tempo": 120.0
            },
            {
                "start_time": 12.5227273,
                "end_time": 12.5727273,
                "pitch": 84,
                "velocity": 51,
                "duration": 0.05,
                "tempo": 120.0
            },
            {
                "start_time": 12.6068182,
                "end_time": 12.6568182,
                "pitch": 84,
                "velocity": 51,
                "duration": 0.05,
                "tempo": 120.0
            },
            {
                "start_time": 12.6727273,
                "end_time": 12.7227273,
                "pitch": 84,
                "velocity": 51,
                "duration": 0.05,
                "tempo": 120.0
            },
            {
                "start_time": 12.7545455,
                "end_time": 12.8045455,
                "pitch": 84,
                "velocity": 51,
                "duration": 0.05,
                "tempo": 120.0
            },
            {
                "start_time": 12.8204545,
                "end_time": 12.9545455,
                "pitch": 84,
                "velocity": 51,
                "duration": 0.1340909,
                "tempo": 120.0
            },
            {
                "start_time": 12.9704545,
                "end_time": 13.1045455,
                "pitch": 84,
                "velocity": 51,
                "duration": 0.1340909,
                "tempo": 120.0
            },
            {
                "start_time": 13.1204545,
                "end_time": 13.1704545,
                "pitch": 84,
                "velocity": 51,
                "duration": 0.05,
                "tempo": 120.0
            },
            {
                "start_time": 13.2045455,
                "end_time": 13.2545455,
                "pitch": 84,
                "velocity": 51,
                "duration": 0.05,
                "tempo": 120.0
            },
            {
                "start_time": 13.2704545,
                "end_time": 13.3204545,
                "pitch": 84,
                "velocity": 51,
                "duration": 0.05,
                "tempo": 120.0
            },
            {
                "start_time": 13.3545455,
                "end_time": 13.4045455,
                "pitch": 84,
                "velocity": 51,
                "duration": 0.05,
                "tempo": 120.0
            },
            {
                "start_time": 13.4204545,
                "end_time": 13.5545455,
                "pitch": 84,
                "velocity": 51,
                "duration": 0.1340909,
                "tempo": 120.0
            },
            {
                "start_time": 13.5704545,
                "end_time": 13.7045455,
                "pitch": 84,
                "velocity": 51,
                "duration": 0.1340909,
                "tempo": 120.0
            },
            {
                "start_time": 13.7204545,
                "end_time": 13.7704545,
                "pitch": 84,
                "velocity": 51,
                "duration": 0.05,
                "tempo": 120.0
            },
            {
                "start_time": 13.8045455,
                "end_time": 13.8545455,
                "pitch": 79,
                "velocity": 51,
                "duration": 0.05,
                "tempo": 120.0
            },
            {
                "start_time": 13.8704545,
                "end_time": 13.9045455,
                "pitch": 84,
                "velocity": 51,
                "duration": 0.0340909,
                "tempo": 120.0
            },
            {
                "start_time": 13.9204545,
                "end_time": 14.0045455,
                "pitch": 84,
                "velocity": 51,
                "duration": 0.0840909,
                "tempo": 120.0
            },
            {
                "start_time": 14.0204545,
                "end_time": 14.0727273,
                "pitch": 84,
                "velocity": 51,
                "duration": 0.0522727,
                "tempo": 120.0
            },
            {
                "start_time": 14.1068182,
                "end_time": 14.1568182,
                "pitch": 79,
                "velocity": 51,
                "duration": 0.05,
                "tempo": 120.0
            },
            {
                "start_time": 14.175,
                "end_time": 14.225,
                "pitch": 84,
                "velocity": 51,
                "duration": 0.05,
                "tempo": 120.0
            },
            {
                "start_time": 14.2590909,
                "end_time": 14.3113636,
                "pitch": 79,
                "velocity": 51,
                "duration": 0.0522727,
                "tempo": 120.0
            },
            {
                "start_time": 14.3272727,
                "end_time": 14.3772727,
                "pitch": 84,
                "velocity": 51,
                "duration": 0.05,
                "tempo": 120.0
            },
            {
                "start_time": 14.4113636,
                "end_time": 14.4636364,
                "pitch": 84,
                "velocity": 51,
                "duration": 0.0522727,
                "tempo": 120.0
            },
            {
                "start_time": 14.4795455,
                "end_time": 14.5318182,
                "pitch": 84,
                "velocity": 51,
                "duration": 0.0522727,
                "tempo": 120.0
            },
            {
                "start_time": 14.5659091,
                "end_time": 14.6159091,
                "pitch": 84,
                "velocity": 51,
                "duration": 0.05,
                "tempo": 120.0
            },
            {
                "start_time": 14.6318182,
                "end_time": 14.7659091,
                "pitch": 84,
                "velocity": 51,
                "duration": 0.1340909,
                "tempo": 120.0
            },
            {
                "start_time": 14.7818182,
                "end_time": 14.9136364,
                "pitch": 84,
                "velocity": 51,
                "duration": 0.1318182,
                "tempo": 120.0
            },
            {
                "start_time": 14.9295455,
                "end_time": 14.9795455,
                "pitch": 84,
                "velocity": 51,
                "duration": 0.05,
                "tempo": 120.0
            },
            {
                "start_time": 15.0113636,
                "end_time": 15.0613636,
                "pitch": 84,
                "velocity": 51,
                "duration": 0.05,
                "tempo": 120.0
            },
            {
                "start_time": 15.0795455,
                "end_time": 15.1272727,
                "pitch": 84,
                "velocity": 51,
                "duration": 0.0477273,
                "tempo": 120.0
            },
            {
                "start_time": 15.1613636,
                "end_time": 15.2113636,
                "pitch": 84,
                "velocity": 51,
                "duration": 0.05,
                "tempo": 120.0
            },
            {
                "start_time": 15.2272727,
                "end_time": 15.3613636,
                "pitch": 84,
                "velocity": 51,
                "duration": 0.1340909,
                "tempo": 120.0
            },
            {
                "start_time": 15.3772727,
                "end_time": 15.5113636,
                "pitch": 84,
                "velocity": 51,
                "duration": 0.1340909,
                "tempo": 120.0
            },
            {
                "start_time": 15.5272727,
                "end_time": 15.5772727,
                "pitch": 84,
                "velocity": 51,
                "duration": 0.05,
                "tempo": 120.0
            },
            {
                "start_time": 15.6113636,
                "end_time": 15.6613636,
                "pitch": 84,
                "velocity": 51,
                "duration": 0.05,
                "tempo": 120.0
            },
            {
                "start_time": 15.6772727,
                "end_time": 15.7272727,
                "pitch": 84,
                "velocity": 51,
                "duration": 0.05,
                "tempo": 120.0
            },
            {
                "start_time": 15.7613636,
                "end_time": 15.8113636,
                "pitch": 84,
                "velocity": 51,
                "duration": 0.05,
                "tempo": 120.0
            },
            {
                "start_time": 15.8272727,
                "end_time": 15.9613636,
                "pitch": 84,
                "velocity": 51,
                "duration": 0.1340909,
                "tempo": 120.0
            },
            {
                "start_time": 15.9772727,
                "end_time": 16.1113636,
                "pitch": 84,
                "velocity": 51,
                "duration": 0.1340909,
                "tempo": 120.0
            },
            {
                "start_time": 16.1272727,
                "end_time": 16.1772727,
                "pitch": 84,
                "velocity": 51,
                "duration": 0.05,
                "tempo": 120.0
            },
            {
                "start_time": 16.2113636,
                "end_time": 16.2613636,
                "pitch": 79,
                "velocity": 51,
                "duration": 0.05,
                "tempo": 120.0
            },
            {
                "start_time": 16.2772727,
                "end_time": 16.3272727,
                "pitch": 84,
                "velocity": 51,
                "duration": 0.05,
                "tempo": 120.0
            },
            {
                "start_time": 16.3613636,
                "end_time": 16.4113636,
                "pitch": 79,
                "velocity": 51,
                "duration": 0.05,
                "tempo": 120.0
            },
            {
                "start_time": 16.4272727,
                "end_time": 16.4772727,
                "pitch": 84,
                "velocity": 51,
                "duration": 0.05,
                "tempo": 120.0
            },
            {
                "start_time": 16.5113636,
                "end_time": 16.5636364,
                "pitch": 79,
                "velocity": 51,
                "duration": 0.0522727,
                "tempo": 120.0
            },
            {
                "start_time": 16.5795455,
                "end_time": 16.6318182,
                "pitch": 87,
                "velocity": 51,
                "duration": 0.0522727,
                "tempo": 120.0
            },
            {
                "start_time": 16.6659091,
                "end_time": 16.8704545,
                "pitch": 84,
                "velocity": 51,
                "duration": 0.2045455,
                "tempo": 120.0
            },
            {
                "start_time": 16.8863636,
                "end_time": 16.9363636,
                "pitch": 84,
                "velocity": 51,
                "duration": 0.05,
                "tempo": 120.0
            },
            {
                "start_time": 16.9704545,
                "end_time": 17.1727273,
                "pitch": 84,
                "velocity": 51,
                "duration": 0.2022727,
                "tempo": 120.0
            },
            {
                "start_time": 17.1886364,
                "end_time": 17.2386364,
                "pitch": 84,
                "velocity": 51,
                "duration": 0.05,
                "tempo": 120.0
            },
            {
                "start_time": 17.2727273,
                "end_time": 17.4386364,
                "pitch": 84,
                "velocity": 51,
                "duration": 0.1659091,
                "tempo": 120.0
            },
            {
                "start_time": 17.4727273,
                "end_time": 17.5386364,
                "pitch": 84,
                "velocity": 51,
                "duration": 0.0659091,
                "tempo": 120.0
            },
            {
                "start_time": 17.5727273,
                "end_time": 17.7704545,
                "pitch": 84,
                "velocity": 51,
                "duration": 0.1977273,
                "tempo": 120.0
            },
            {
                "start_time": 17.7886364,
                "end_time": 17.8363636,
                "pitch": 84,
                "velocity": 51,
                "duration": 0.0477273,
                "tempo": 120.0
            },
            {
                "start_time": 17.8704545,
                "end_time": 18.0681818,
                "pitch": 84,
                "velocity": 51,
                "duration": 0.1977273,
                "tempo": 120.0
            },
            {
                "start_time": 18.0840909,
                "end_time": 18.1340909,
                "pitch": 84,
                "velocity": 51,
                "duration": 0.05,
                "tempo": 120.0
            },
            {
                "start_time": 18.1681818,
                "end_time": 18.3704545,
                "pitch": 84,
                "velocity": 51,
                "duration": 0.2022727,
                "tempo": 120.0
            },
            {
                "start_time": 18.3863636,
                "end_time": 18.4386364,
                "pitch": 84,
                "velocity": 51,
                "duration": 0.0522727,
                "tempo": 120.0
            },
            {
                "start_time": 18.4704545,
                "end_time": 18.675,
                "pitch": 84,
                "velocity": 51,
                "duration": 0.2045455,
                "tempo": 120.0
            },
            {
                "start_time": 18.6931818,
                "end_time": 18.7431818,
                "pitch": 84,
                "velocity": 51,
                "duration": 0.05,
                "tempo": 120.0
            },
            {
                "start_time": 18.7772727,
                "end_time": 18.9795455,
                "pitch": 84,
                "velocity": 51,
                "duration": 0.2022727,
                "tempo": 120.0
            },
            {
                "start_time": 18.9954545,
                "end_time": 19.0454545,
                "pitch": 84,
                "velocity": 51,
                "duration": 0.05,
                "tempo": 120.0
            },
            {
                "start_time": 19.0795455,
                "end_time": 19.2795455,
                "pitch": 84,
                "velocity": 51,
                "duration": 0.2,
                "tempo": 120.0
            },
            {
                "start_time": 19.2954545,
                "end_time": 19.3454545,
                "pitch": 84,
                "velocity": 51,
                "duration": 0.05,
                "tempo": 120.0
            },
            {
                "start_time": 19.3795455,
                "end_time": 19.5818182,
                "pitch": 84,
                "velocity": 51,
                "duration": 0.2022727,
                "tempo": 120.0
            },
            {
                "start_time": 19.5977273,
                "end_time": 19.65,
                "pitch": 84,
                "velocity": 51,
                "duration": 0.0522727,
                "tempo": 120.0
            },
            {
                "start_time": 19.6840909,
                "end_time": 19.8886364,
                "pitch": 84,
                "velocity": 51,
                "duration": 0.2045455,
                "tempo": 120.0
            },
            {
                "start_time": 19.9045455,
                "end_time": 19.9568182,
                "pitch": 84,
                "velocity": 51,
                "duration": 0.0522727,
                "tempo": 120.0
            },
            {
                "start_time": 19.9886364,
                "end_time": 20.1863636,
                "pitch": 84,
                "velocity": 51,
                "duration": 0.1977273,
                "tempo": 120.0
            },
            {
                "start_time": 20.2022727,
                "end_time": 20.25,
                "pitch": 84,
                "velocity": 51,
                "duration": 0.0477273,
                "tempo": 120.0
            },
            {
                "start_time": 20.2840909,
                "end_time": 20.4772727,
                "pitch": 84,
                "velocity": 51,
                "duration": 0.1931818,
                "tempo": 120.0
            },
            {
                "start_time": 20.4931818,
                "end_time": 20.5431818,
                "pitch": 84,
                "velocity": 51,
                "duration": 0.05,
                "tempo": 120.0
            },
            {
                "start_time": 20.575,
                "end_time": 20.775,
                "pitch": 84,
                "velocity": 51,
                "duration": 0.2,
                "tempo": 120.0
            },
            {
                "start_time": 20.7931818,
                "end_time": 20.8431818,
                "pitch": 84,
                "velocity": 51,
                "duration": 0.05,
                "tempo": 120.0
            },
            {
                "start_time": 20.8772727,
                "end_time": 21.0818182,
                "pitch": 84,
                "velocity": 51,
                "duration": 0.2045455,
                "tempo": 120.0
            },
            {
                "start_time": 21.1,
                "end_time": 21.15,
                "pitch": 84,
                "velocity": 51,
                "duration": 0.05,
                "tempo": 120.0
            },
            {
                "start_time": 21.1840909,
                "end_time": 21.3863636,
                "pitch": 84,
                "velocity": 51,
                "duration": 0.2022727,
                "tempo": 120.0
            },
            {
                "start_time": 21.4045455,
                "end_time": 21.4545455,
                "pitch": 84,
                "velocity": 51,
                "duration": 0.05,
                "tempo": 120.0
            },
            {
                "start_time": 21.4886364,
                "end_time": 21.6886364,
                "pitch": 84,
                "velocity": 51,
                "duration": 0.2,
                "tempo": 120.0
            },
            {
                "start_time": 21.7068182,
                "end_time": 21.7568182,
                "pitch": 84,
                "velocity": 51,
                "duration": 0.05,
                "tempo": 120.0
            },
            {
                "start_time": 21.7909091,
                "end_time": 21.9931818,
                "pitch": 84,
                "velocity": 51,
                "duration": 0.2022727,
                "tempo": 120.0
            },
            {
                "start_time": 22.0113636,
                "end_time": 22.0613636,
                "pitch": 84,
                "velocity": 51,
                "duration": 0.05,
                "tempo": 120.0
            },
            {
                "start_time": 22.0954545,
                "end_time": 22.3,
                "pitch": 84,
                "velocity": 51,
                "duration": 0.2045455,
                "tempo": 120.0
            },
            {
                "start_time": 22.3181818,
                "end_time": 22.3681818,
                "pitch": 84,
                "velocity": 51,
                "duration": 0.05,
                "tempo": 120.0
            },
            {
                "start_time": 22.4022727,
                "end_time": 22.5977273,
                "pitch": 84,
                "velocity": 51,
                "duration": 0.1954545,
                "tempo": 120.0
            },
            {
                "start_time": 22.6159091,
                "end_time": 22.6636364,
                "pitch": 84,
                "velocity": 51,
                "duration": 0.0477273,
                "tempo": 120.0
            },
            {
                "start_time": 22.6954545,
                "end_time": 22.8909091,
                "pitch": 84,
                "velocity": 51,
                "duration": 0.1954545,
                "tempo": 120.0
            },
            {
                "start_time": 22.9068182,
                "end_time": 22.9545455,
                "pitch": 84,
                "velocity": 51,
                "duration": 0.0477273,
                "tempo": 120.0
            },
            {
                "start_time": 22.9863636,
                "end_time": 23.1909091,
                "pitch": 84,
                "velocity": 51,
                "duration": 0.2045455,
                "tempo": 120.0
            },
            {
                "start_time": 23.2090909,
                "end_time": 23.2590909,
                "pitch": 84,
                "velocity": 51,
                "duration": 0.05,
                "tempo": 120.0
            },
            {
                "start_time": 23.2954545,
                "end_time": 23.5022727,
                "pitch": 84,
                "velocity": 51,
                "duration": 0.2068182,
                "tempo": 120.0
            },
            {
                "start_time": 23.5204545,
                "end_time": 23.5727273,
                "pitch": 84,
                "velocity": 51,
                "duration": 0.0522727,
                "tempo": 120.0
            },
            {
                "start_time": 23.6068182,
                "end_time": 23.6590909,
                "pitch": 84,
                "velocity": 51,
                "duration": 0.0522727,
                "tempo": 120.0
            },
            {
                "start_time": 23.675,
                "end_time": 23.725,
                "pitch": 84,
                "velocity": 51,
                "duration": 0.05,
                "tempo": 120.0
            },
            {
                "start_time": 23.7568182,
                "end_time": 23.8045455,
                "pitch": 84,
                "velocity": 51,
                "duration": 0.0477273,
                "tempo": 120.0
            },
            {
                "start_time": 23.8204545,
                "end_time": 23.8704545,
                "pitch": 84,
                "velocity": 51,
                "duration": 0.05,
                "tempo": 120.0
            },
            {
                "start_time": 23.9022727,
                "end_time": 24.0954545,
                "pitch": 84,
                "velocity": 51,
                "duration": 0.1931818,
                "tempo": 120.0
            },
            {
                "start_time": 24.1113636,
                "end_time": 24.1613636,
                "pitch": 84,
                "velocity": 51,
                "duration": 0.05,
                "tempo": 120.0
            },
            {
                "start_time": 24.1931818,
                "end_time": 24.3977273,
                "pitch": 84,
                "velocity": 51,
                "duration": 0.2045455,
                "tempo": 120.0
            },
            {
                "start_time": 24.4136364,
                "end_time": 24.4659091,
                "pitch": 84,
                "velocity": 51,
                "duration": 0.0522727,
                "tempo": 120.0
            },
            {
                "start_time": 24.5,
                "end_time": 24.7090909,
                "pitch": 84,
                "velocity": 51,
                "duration": 0.2090909,
                "tempo": 120.0
            },
            {
                "start_time": 24.7272727,
                "end_time": 24.7795455,
                "pitch": 84,
                "velocity": 51,
                "duration": 0.0522727,
                "tempo": 120.0
            },
            {
                "start_time": 24.8136364,
                "end_time": 25.0181818,
                "pitch": 84,
                "velocity": 51,
                "duration": 0.2045455,
                "tempo": 120.0
            },
            {
                "start_time": 25.0340909,
                "end_time": 25.0840909,
                "pitch": 84,
                "velocity": 51,
                "duration": 0.05,
                "tempo": 120.0
            },
            {
                "start_time": 25.1181818,
                "end_time": 25.3204545,
                "pitch": 84,
                "velocity": 51,
                "duration": 0.2022727,
                "tempo": 120.0
            },
            {
                "start_time": 25.3363636,
                "end_time": 25.3886364,
                "pitch": 84,
                "velocity": 51,
                "duration": 0.0522727,
                "tempo": 120.0
            },
            {
                "start_time": 25.4227273,
                "end_time": 25.6227273,
                "pitch": 84,
                "velocity": 51,
                "duration": 0.2,
                "tempo": 120.0
            },
            {
                "start_time": 25.6386364,
                "end_time": 25.6886364,
                "pitch": 84,
                "velocity": 51,
                "duration": 0.05,
                "tempo": 120.0
            },
            {
                "start_time": 25.7227273,
                "end_time": 25.9227273,
                "pitch": 84,
                "velocity": 51,
                "duration": 0.2,
                "tempo": 120.0
            },
            {
                "start_time": 25.9386364,
                "end_time": 25.9886364,
                "pitch": 84,
                "velocity": 51,
                "duration": 0.05,
                "tempo": 120.0
            },
            {
                "start_time": 26.0227273,
                "end_time": 26.0727273,
                "pitch": 84,
                "velocity": 51,
                "duration": 0.05,
                "tempo": 120.0
            },
            {
                "start_time": 26.0886364,
                "end_time": 26.1386364,
                "pitch": 84,
                "velocity": 51,
                "duration": 0.05,
                "tempo": 120.0
            },
            {
                "start_time": 26.1727273,
                "end_time": 26.2227273,
                "pitch": 84,
                "velocity": 51,
                "duration": 0.05,
                "tempo": 120.0
            },
            {
                "start_time": 26.2409091,
                "end_time": 26.2909091,
                "pitch": 84,
                "velocity": 51,
                "duration": 0.05,
                "tempo": 120.0
            },
            {
                "start_time": 26.325,
                "end_time": 26.5272727,
                "pitch": 84,
                "velocity": 51,
                "duration": 0.2022727,
                "tempo": 120.0
            },
            {
                "start_time": 26.5431818,
                "end_time": 26.5931818,
                "pitch": 84,
                "velocity": 51,
                "duration": 0.05,
                "tempo": 120.0
            },
            {
                "start_time": 26.6272727,
                "end_time": 26.8295455,
                "pitch": 84,
                "velocity": 51,
                "duration": 0.2022727,
                "tempo": 120.0
            },
            {
                "start_time": 26.8454545,
                "end_time": 26.8977273,
                "pitch": 84,
                "velocity": 51,
                "duration": 0.0522727,
                "tempo": 120.0
            },
            {
                "start_time": 26.9318182,
                "end_time": 27.1318182,
                "pitch": 84,
                "velocity": 51,
                "duration": 0.2,
                "tempo": 120.0
            },
            {
                "start_time": 27.15,
                "end_time": 27.2,
                "pitch": 84,
                "velocity": 51,
                "duration": 0.05,
                "tempo": 120.0
            },
            {
                "start_time": 27.2340909,
                "end_time": 27.4340909,
                "pitch": 84,
                "velocity": 51,
                "duration": 0.2,
                "tempo": 120.0
            },
            {
                "start_time": 27.45,
                "end_time": 27.5,
                "pitch": 84,
                "velocity": 51,
                "duration": 0.05,
                "tempo": 120.0
            },
            {
                "start_time": 27.5340909,
                "end_time": 27.7340909,
                "pitch": 84,
                "velocity": 51,
                "duration": 0.2,
                "tempo": 120.0
            },
            {
                "start_time": 27.75,
                "end_time": 27.8,
                "pitch": 84,
                "velocity": 51,
                "duration": 0.05,
                "tempo": 120.0
            },
            {
                "start_time": 27.8340909,
                "end_time": 28.0363636,
                "pitch": 84,
                "velocity": 51,
                "duration": 0.2022727,
                "tempo": 120.0
            },
            {
                "start_time": 28.0522727,
                "end_time": 28.1022727,
                "pitch": 84,
                "velocity": 51,
                "duration": 0.05,
                "tempo": 120.0
            },
            {
                "start_time": 28.1363636,
                "end_time": 28.3386364,
                "pitch": 84,
                "velocity": 51,
                "duration": 0.2022727,
                "tempo": 120.0
            },
            {
                "start_time": 28.3545455,
                "end_time": 28.4068182,
                "pitch": 84,
                "velocity": 51,
                "duration": 0.0522727,
                "tempo": 120.0
            },
            {
                "start_time": 28.4409091,
                "end_time": 28.4909091,
                "pitch": 84,
                "velocity": 51,
                "duration": 0.05,
                "tempo": 120.0
            },
            {
                "start_time": 28.5068182,
                "end_time": 28.5568182,
                "pitch": 84,
                "velocity": 51,
                "duration": 0.05,
                "tempo": 120.0
            },
            {
                "start_time": 28.5909091,
                "end_time": 28.6409091,
                "pitch": 84,
                "velocity": 51,
                "duration": 0.05,
                "tempo": 120.0
            },
            {
                "start_time": 28.6568182,
                "end_time": 28.7068182,
                "pitch": 84,
                "velocity": 51,
                "duration": 0.05,
                "tempo": 120.0
            },
            {
                "start_time": 28.7409091,
                "end_time": 28.7909091,
                "pitch": 84,
                "velocity": 51,
                "duration": 0.05,
                "tempo": 120.0
            },
            {
                "start_time": 28.8068182,
                "end_time": 28.8568182,
                "pitch": 84,
                "velocity": 51,
                "duration": 0.05,
                "tempo": 120.0
            },
            {
                "start_time": 28.8909091,
                "end_time": 28.9409091,
                "pitch": 84,
                "velocity": 51,
                "duration": 0.05,
                "tempo": 120.0
            },
            {
                "start_time": 28.9568182,
                "end_time": 29.0068182,
                "pitch": 84,
                "velocity": 51,
                "duration": 0.05,
                "tempo": 120.0
            },
            {
                "start_time": 29.0409091,
                "end_time": 29.0909091,
                "pitch": 84,
                "velocity": 51,
                "duration": 0.05,
                "tempo": 120.0
            },
            {
                "start_time": 29.1068182,
                "end_time": 29.2363636,
                "pitch": 84,
                "velocity": 51,
                "duration": 0.1295455,
                "tempo": 120.0
            },
            {
                "start_time": 29.2522727,
                "end_time": 29.3818182,
                "pitch": 84,
                "velocity": 51,
                "duration": 0.1295455,
                "tempo": 120.0
            },
            {
                "start_time": 29.3977273,
                "end_time": 29.4454545,
                "pitch": 84,
                "velocity": 51,
                "duration": 0.0477273,
                "tempo": 120.0
            },
            {
                "start_time": 29.4795455,
                "end_time": 29.5272727,
                "pitch": 84,
                "velocity": 51,
                "duration": 0.0477273,
                "tempo": 120.0
            },
            {
                "start_time": 29.5431818,
                "end_time": 29.5931818,
                "pitch": 84,
                "velocity": 51,
                "duration": 0.05,
                "tempo": 120.0
            },
            {
                "start_time": 29.625,
                "end_time": 29.6727273,
                "pitch": 84,
                "velocity": 51,
                "duration": 0.0477273,
                "tempo": 120.0
            },
            {
                "start_time": 29.6886364,
                "end_time": 29.8227273,
                "pitch": 84,
                "velocity": 51,
                "duration": 0.1340909,
                "tempo": 120.0
            },
            {
                "start_time": 29.8386364,
                "end_time": 29.9727273,
                "pitch": 84,
                "velocity": 51,
                "duration": 0.1340909,
                "tempo": 120.0
            },
            {
                "start_time": 29.9886364,
                "end_time": 30.0386364,
                "pitch": 84,
                "velocity": 51,
                "duration": 0.05,
                "tempo": 120.0
            },
            {
                "start_time": 30.0727273,
                "end_time": 30.1227273,
                "pitch": 84,
                "velocity": 51,
                "duration": 0.05,
                "tempo": 120.0
            },
            {
                "start_time": 30.1386364,
                "end_time": 30.1886364,
                "pitch": 84,
                "velocity": 51,
                "duration": 0.05,
                "tempo": 120.0
            },
            {
                "start_time": 30.2227273,
                "end_time": 30.2727273,
                "pitch": 84,
                "velocity": 51,
                "duration": 0.05,
                "tempo": 120.0
            },
            {
                "start_time": 30.2909091,
                "end_time": 30.425,
                "pitch": 84,
                "velocity": 51,
                "duration": 0.1340909,
                "tempo": 120.0
            },
            {
                "start_time": 30.4409091,
                "end_time": 30.575,
                "pitch": 84,
                "velocity": 51,
                "duration": 0.1340909,
                "tempo": 120.0
            },
            {
                "start_time": 30.5931818,
                "end_time": 30.6431818,
                "pitch": 84,
                "velocity": 51,
                "duration": 0.05,
                "tempo": 120.0
            },
            {
                "start_time": 30.6772727,
                "end_time": 30.7272727,
                "pitch": 79,
                "velocity": 51,
                "duration": 0.05,
                "tempo": 120.0
            },
            {
                "start_time": 30.7454545,
                "end_time": 30.7954545,
                "pitch": 84,
                "velocity": 51,
                "duration": 0.05,
                "tempo": 120.0
            },
            {
                "start_time": 30.8295455,
                "end_time": 30.8795455,
                "pitch": 79,
                "velocity": 51,
                "duration": 0.05,
                "tempo": 120.0
            },
            {
                "start_time": 30.8954545,
                "end_time": 30.9454545,
                "pitch": 84,
                "velocity": 51,
                "duration": 0.05,
                "tempo": 120.0
            },
            {
                "start_time": 30.9795455,
                "end_time": 31.0295455,
                "pitch": 79,
                "velocity": 51,
                "duration": 0.05,
                "tempo": 120.0
            },
            {
                "start_time": 31.0477273,
                "end_time": 31.0977273,
                "pitch": 84,
                "velocity": 51,
                "duration": 0.05,
                "tempo": 120.0
            },
            {
                "start_time": 31.1318182,
                "end_time": 31.1818182,
                "pitch": 79,
                "velocity": 51,
                "duration": 0.05,
                "tempo": 120.0
            },
            {
                "start_time": 31.2,
                "end_time": 31.25,
                "pitch": 84,
                "velocity": 51,
                "duration": 0.05,
                "tempo": 120.0
            },
            {
                "start_time": 31.2840909,
                "end_time": 31.3340909,
                "pitch": 84,
                "velocity": 51,
                "duration": 0.05,
                "tempo": 120.0
            },
            {
                "start_time": 31.35,
                "end_time": 31.4,
                "pitch": 84,
                "velocity": 51,
                "duration": 0.05,
                "tempo": 120.0
            },
            {
                "start_time": 31.4340909,
                "end_time": 31.4522727,
                "pitch": 84,
                "velocity": 51,
                "duration": 0.0181818,
                "tempo": 120.0
            },
            {
                "start_time": 31.4840909,
                "end_time": 31.6340909,
                "pitch": 84,
                "velocity": 51,
                "duration": 0.15,
                "tempo": 120.0
            },
            {
                "start_time": 31.6522727,
                "end_time": 31.7840909,
                "pitch": 84,
                "velocity": 51,
                "duration": 0.1318182,
                "tempo": 120.0
            },
            {
                "start_time": 31.8022727,
                "end_time": 31.8522727,
                "pitch": 84,
                "velocity": 51,
                "duration": 0.05,
                "tempo": 120.0
            },
            {
                "start_time": 31.8840909,
                "end_time": 31.9340909,
                "pitch": 84,
                "velocity": 51,
                "duration": 0.05,
                "tempo": 120.0
            },
            {
                "start_time": 31.9522727,
                "end_time": 32.0022727,
                "pitch": 84,
                "velocity": 51,
                "duration": 0.05,
                "tempo": 120.0
            },
            {
                "start_time": 32.0340909,
                "end_time": 32.0840909,
                "pitch": 84,
                "velocity": 51,
                "duration": 0.05,
                "tempo": 120.0
            },
            {
                "start_time": 32.1022727,
                "end_time": 32.2386364,
                "pitch": 84,
                "velocity": 51,
                "duration": 0.1363636,
                "tempo": 120.0
            },
            {
                "start_time": 32.2545455,
                "end_time": 32.3909091,
                "pitch": 84,
                "velocity": 51,
                "duration": 0.1363636,
                "tempo": 120.0
            },
            {
                "start_time": 32.4090909,
                "end_time": 32.4590909,
                "pitch": 84,
                "velocity": 51,
                "duration": 0.05,
                "tempo": 120.0
            },
            {
                "start_time": 32.4931818,
                "end_time": 32.5431818,
                "pitch": 84,
                "velocity": 51,
                "duration": 0.05,
                "tempo": 120.0
            },
            {
                "start_time": 32.5613636,
                "end_time": 32.6113636,
                "pitch": 84,
                "velocity": 51,
                "duration": 0.05,
                "tempo": 120.0
            },
            {
                "start_time": 32.6454545,
                "end_time": 32.6977273,
                "pitch": 84,
                "velocity": 51,
                "duration": 0.0522727,
                "tempo": 120.0
            },
            {
                "start_time": 32.7136364,
                "end_time": 32.8477273,
                "pitch": 84,
                "velocity": 51,
                "duration": 0.1340909,
                "tempo": 120.0
            },
            {
                "start_time": 32.8636364,
                "end_time": 32.9977273,
                "pitch": 84,
                "velocity": 51,
                "duration": 0.1340909,
                "tempo": 120.0
            },
            {
                "start_time": 33.0136364,
                "end_time": 33.0636364,
                "pitch": 84,
                "velocity": 51,
                "duration": 0.05,
                "tempo": 120.0
            },
            {
                "start_time": 33.0977273,
                "end_time": 33.1477273,
                "pitch": 79,
                "velocity": 51,
                "duration": 0.05,
                "tempo": 120.0
            },
            {
                "start_time": 33.1636364,
                "end_time": 33.2136364,
                "pitch": 84,
                "velocity": 51,
                "duration": 0.05,
                "tempo": 120.0
            },
            {
                "start_time": 33.2477273,
                "end_time": 33.2977273,
                "pitch": 79,
                "velocity": 51,
                "duration": 0.05,
                "tempo": 120.0
            },
            {
                "start_time": 33.3136364,
                "end_time": 33.3636364,
                "pitch": 84,
                "velocity": 51,
                "duration": 0.05,
                "tempo": 120.0
            },
            {
                "start_time": 33.3977273,
                "end_time": 33.4477273,
                "pitch": 79,
                "velocity": 51,
                "duration": 0.05,
                "tempo": 120.0
            },
            {
                "start_time": 33.4659091,
                "end_time": 33.5159091,
                "pitch": 87,
                "velocity": 51,
                "duration": 0.05,
                "tempo": 120.0
            },
            {
                "start_time": 33.55,
                "end_time": 33.7522727,
                "pitch": 84,
                "velocity": 51,
                "duration": 0.2022727,
                "tempo": 120.0
            },
            {
                "start_time": 33.7681818,
                "end_time": 33.8181818,
                "pitch": 87,
                "velocity": 51,
                "duration": 0.05,
                "tempo": 120.0
            },
            {
                "start_time": 33.8522727,
                "end_time": 33.9022727,
                "pitch": 87,
                "velocity": 51,
                "duration": 0.05,
                "tempo": 120.0
            },
            {
                "start_time": 33.9204545,
                "end_time": 34.0181818,
                "pitch": 87,
                "velocity": 51,
                "duration": 0.0977273,
                "tempo": 120.0
            },
            {
                "start_time": 34.0522727,
                "end_time": 34.1181818,
                "pitch": 87,
                "velocity": 51,
                "duration": 0.0659091,
                "tempo": 120.0
            },
            {
                "start_time": 34.15,
                "end_time": 34.2,
                "pitch": 87,
                "velocity": 51,
                "duration": 0.05,
                "tempo": 120.0
            },
            {
                "start_time": 34.2159091,
                "end_time": 34.35,
                "pitch": 87,
                "velocity": 51,
                "duration": 0.1340909,
                "tempo": 120.0
            },
            {
                "start_time": 34.3659091,
                "end_time": 34.4159091,
                "pitch": 87,
                "velocity": 51,
                "duration": 0.05,
                "tempo": 120.0
            },
            {
                "start_time": 34.4477273,
                "end_time": 34.4977273,
                "pitch": 87,
                "velocity": 51,
                "duration": 0.05,
                "tempo": 120.0
            },
            {
                "start_time": 34.5136364,
                "end_time": 34.65,
                "pitch": 87,
                "velocity": 51,
                "duration": 0.1363636,
                "tempo": 120.0
            },
            {
                "start_time": 34.6659091,
                "end_time": 34.7159091,
                "pitch": 87,
                "velocity": 51,
                "duration": 0.05,
                "tempo": 120.0
            },
            {
                "start_time": 34.75,
                "end_time": 34.8,
                "pitch": 87,
                "velocity": 51,
                "duration": 0.05,
                "tempo": 120.0
            },
            {
                "start_time": 34.8181818,
                "end_time": 34.9522727,
                "pitch": 87,
                "velocity": 51,
                "duration": 0.1340909,
                "tempo": 120.0
            },
            {
                "start_time": 34.9681818,
                "end_time": 35.0204545,
                "pitch": 87,
                "velocity": 51,
                "duration": 0.0522727,
                "tempo": 120.0
            },
            {
                "start_time": 35.0522727,
                "end_time": 35.1045455,
                "pitch": 87,
                "velocity": 51,
                "duration": 0.0522727,
                "tempo": 120.0
            },
            {
                "start_time": 35.1204545,
                "end_time": 35.2545455,
                "pitch": 87,
                "velocity": 51,
                "duration": 0.1340909,
                "tempo": 120.0
            },
            {
                "start_time": 35.2704545,
                "end_time": 35.3204545,
                "pitch": 87,
                "velocity": 51,
                "duration": 0.05,
                "tempo": 120.0
            },
            {
                "start_time": 35.3545455,
                "end_time": 35.4045455,
                "pitch": 87,
                "velocity": 51,
                "duration": 0.05,
                "tempo": 120.0
            },
            {
                "start_time": 35.4204545,
                "end_time": 35.5545455,
                "pitch": 87,
                "velocity": 51,
                "duration": 0.1340909,
                "tempo": 120.0
            },
            {
                "start_time": 35.5704545,
                "end_time": 35.6204545,
                "pitch": 87,
                "velocity": 51,
                "duration": 0.05,
                "tempo": 120.0
            },
            {
                "start_time": 35.6545455,
                "end_time": 35.7045455,
                "pitch": 87,
                "velocity": 51,
                "duration": 0.05,
                "tempo": 120.0
            },
            {
                "start_time": 35.7204545,
                "end_time": 35.8545455,
                "pitch": 87,
                "velocity": 51,
                "duration": 0.1340909,
                "tempo": 120.0
            },
            {
                "start_time": 35.8727273,
                "end_time": 35.9227273,
                "pitch": 87,
                "velocity": 51,
                "duration": 0.05,
                "tempo": 120.0
            },
            {
                "start_time": 35.9568182,
                "end_time": 36.0068182,
                "pitch": 87,
                "velocity": 51,
                "duration": 0.05,
                "tempo": 120.0
            },
            {
                "start_time": 36.0227273,
                "end_time": 36.1590909,
                "pitch": 83,
                "velocity": 51,
                "duration": 0.1363636,
                "tempo": 120.0
            },
            {
                "start_time": 36.175,
                "end_time": 36.225,
                "pitch": 83,
                "velocity": 51,
                "duration": 0.05,
                "tempo": 120.0
            },
            {
                "start_time": 36.2590909,
                "end_time": 36.3090909,
                "pitch": 83,
                "velocity": 51,
                "duration": 0.05,
                "tempo": 120.0
            },
            {
                "start_time": 36.3272727,
                "end_time": 36.4613636,
                "pitch": 83,
                "velocity": 51,
                "duration": 0.1340909,
                "tempo": 120.0
            },
            {
                "start_time": 36.4772727,
                "end_time": 36.5295455,
                "pitch": 83,
                "velocity": 51,
                "duration": 0.0522727,
                "tempo": 120.0
            },
            {
                "start_time": 36.5613636,
                "end_time": 36.6136364,
                "pitch": 83,
                "velocity": 51,
                "duration": 0.0522727,
                "tempo": 120.0
            },
            {
                "start_time": 36.6295455,
                "end_time": 36.7636364,
                "pitch": 83,
                "velocity": 51,
                "duration": 0.1340909,
                "tempo": 120.0
            },
            {
                "start_time": 36.7818182,
                "end_time": 36.8318182,
                "pitch": 83,
                "velocity": 51,
                "duration": 0.05,
                "tempo": 120.0
            },
            {
                "start_time": 36.8659091,
                "end_time": 36.9159091,
                "pitch": 83,
                "velocity": 51,
                "duration": 0.05,
                "tempo": 120.0
            },
            {
                "start_time": 36.9318182,
                "end_time": 37.0704545,
                "pitch": 83,
                "velocity": 51,
                "duration": 0.1386364,
                "tempo": 120.0
            },
            {
                "start_time": 37.0886364,
                "end_time": 37.1409091,
                "pitch": 83,
                "velocity": 51,
                "duration": 0.0522727,
                "tempo": 120.0
            },
            {
                "start_time": 37.175,
                "end_time": 37.2272727,
                "pitch": 83,
                "velocity": 51,
                "duration": 0.0522727,
                "tempo": 120.0
            },
            {
                "start_time": 37.2454545,
                "end_time": 37.3840909,
                "pitch": 83,
                "velocity": 51,
                "duration": 0.1386364,
                "tempo": 120.0
            },
            {
                "start_time": 37.4,
                "end_time": 37.4522727,
                "pitch": 83,
                "velocity": 51,
                "duration": 0.0522727,
                "tempo": 120.0
            },
            {
                "start_time": 37.4886364,
                "end_time": 37.5409091,
                "pitch": 83,
                "velocity": 51,
                "duration": 0.0522727,
                "tempo": 120.0
            },
            {
                "start_time": 37.5568182,
                "end_time": 37.6931818,
                "pitch": 83,
                "velocity": 51,
                "duration": 0.1363636,
                "tempo": 120.0
            },
            {
                "start_time": 37.7090909,
                "end_time": 37.7590909,
                "pitch": 83,
                "velocity": 51,
                "duration": 0.05,
                "tempo": 120.0
            },
            {
                "start_time": 37.7931818,
                "end_time": 37.8431818,
                "pitch": 83,
                "velocity": 51,
                "duration": 0.05,
                "tempo": 120.0
            },
            {
                "start_time": 37.8613636,
                "end_time": 37.9954545,
                "pitch": 83,
                "velocity": 51,
                "duration": 0.1340909,
                "tempo": 120.0
            },
            {
                "start_time": 38.0113636,
                "end_time": 38.0636364,
                "pitch": 83,
                "velocity": 51,
                "duration": 0.0522727,
                "tempo": 120.0
            },
            {
                "start_time": 38.0954545,
                "end_time": 38.1477273,
                "pitch": 83,
                "velocity": 51,
                "duration": 0.0522727,
                "tempo": 120.0
            },
            {
                "start_time": 38.1636364,
                "end_time": 38.2977273,
                "pitch": 83,
                "velocity": 51,
                "duration": 0.1340909,
                "tempo": 120.0
            },
            {
                "start_time": 38.3159091,
                "end_time": 38.3659091,
                "pitch": 83,
                "velocity": 51,
                "duration": 0.05,
                "tempo": 120.0
            },
            {
                "start_time": 38.4,
                "end_time": 38.45,
                "pitch": 83,
                "velocity": 51,
                "duration": 0.05,
                "tempo": 120.0
            },
            {
                "start_time": 38.4659091,
                "end_time": 38.6022727,
                "pitch": 79,
                "velocity": 51,
                "duration": 0.1363636,
                "tempo": 120.0
            },
            {
                "start_time": 38.6181818,
                "end_time": 38.6681818,
                "pitch": 79,
                "velocity": 51,
                "duration": 0.05,
                "tempo": 120.0
            },
            {
                "start_time": 38.7022727,
                "end_time": 38.7522727,
                "pitch": 79,
                "velocity": 51,
                "duration": 0.05,
                "tempo": 120.0
            },
            {
                "start_time": 38.7704545,
                "end_time": 38.9022727,
                "pitch": 79,
                "velocity": 51,
                "duration": 0.1318182,
                "tempo": 120.0
            },
            {
                "start_time": 38.9181818,
                "end_time": 38.9681818,
                "pitch": 79,
                "velocity": 51,
                "duration": 0.05,
                "tempo": 120.0
            },
            {
                "start_time": 39.0,
                "end_time": 39.05,
                "pitch": 79,
                "velocity": 51,
                "duration": 0.05,
                "tempo": 120.0
            },
            {
                "start_time": 39.0659091,
                "end_time": 39.1977273,
                "pitch": 79,
                "velocity": 51,
                "duration": 0.1318182,
                "tempo": 120.0
            },
            {
                "start_time": 39.2159091,
                "end_time": 39.2636364,
                "pitch": 79,
                "velocity": 51,
                "duration": 0.0477273,
                "tempo": 120.0
            },
            {
                "start_time": 39.2977273,
                "end_time": 39.3477273,
                "pitch": 79,
                "velocity": 51,
                "duration": 0.05,
                "tempo": 120.0
            },
            {
                "start_time": 39.3636364,
                "end_time": 39.4977273,
                "pitch": 79,
                "velocity": 51,
                "duration": 0.1340909,
                "tempo": 120.0
            },
            {
                "start_time": 39.5159091,
                "end_time": 39.5659091,
                "pitch": 79,
                "velocity": 51,
                "duration": 0.05,
                "tempo": 120.0
            },
            {
                "start_time": 39.6,
                "end_time": 39.65,
                "pitch": 79,
                "velocity": 51,
                "duration": 0.05,
                "tempo": 120.0
            },
            {
                "start_time": 39.6659091,
                "end_time": 39.8022727,
                "pitch": 79,
                "velocity": 51,
                "duration": 0.1363636,
                "tempo": 120.0
            },
            {
                "start_time": 39.8181818,
                "end_time": 39.8681818,
                "pitch": 79,
                "velocity": 51,
                "duration": 0.05,
                "tempo": 120.0
            },
            {
                "start_time": 39.9022727,
                "end_time": 39.9522727,
                "pitch": 79,
                "velocity": 51,
                "duration": 0.05,
                "tempo": 120.0
            },
            {
                "start_time": 39.9704545,
                "end_time": 40.1068182,
                "pitch": 79,
                "velocity": 51,
                "duration": 0.1363636,
                "tempo": 120.0
            },
            {
                "start_time": 40.1227273,
                "end_time": 40.1727273,
                "pitch": 79,
                "velocity": 51,
                "duration": 0.05,
                "tempo": 120.0
            },
            {
                "start_time": 40.2068182,
                "end_time": 40.2590909,
                "pitch": 79,
                "velocity": 51,
                "duration": 0.0522727,
                "tempo": 120.0
            },
            {
                "start_time": 40.275,
                "end_time": 40.4113636,
                "pitch": 79,
                "velocity": 51,
                "duration": 0.1363636,
                "tempo": 120.0
            },
            {
                "start_time": 40.4295455,
                "end_time": 40.4795455,
                "pitch": 79,
                "velocity": 51,
                "duration": 0.05,
                "tempo": 120.0
            },
            {
                "start_time": 40.5136364,
                "end_time": 40.5659091,
                "pitch": 79,
                "velocity": 51,
                "duration": 0.0522727,
                "tempo": 120.0
            },
            {
                "start_time": 40.5818182,
                "end_time": 40.7113636,
                "pitch": 79,
                "velocity": 51,
                "duration": 0.1295455,
                "tempo": 120.0
            },
            {
                "start_time": 40.7272727,
                "end_time": 40.775,
                "pitch": 79,
                "velocity": 51,
                "duration": 0.0477273,
                "tempo": 120.0
            },
            {
                "start_time": 40.8068182,
                "end_time": 40.8568182,
                "pitch": 79,
                "velocity": 51,
                "duration": 0.05,
                "tempo": 120.0
            },
            {
                "start_time": 40.8727273,
                "end_time": 40.9204545,
                "pitch": 83,
                "velocity": 51,
                "duration": 0.0477273,
                "tempo": 120.0
            },
            {
                "start_time": 40.9522727,
                "end_time": 41.0022727,
                "pitch": 86,
                "velocity": 51,
                "duration": 0.05,
                "tempo": 120.0
            },
            {
                "start_time": 41.0181818,
                "end_time": 41.0659091,
                "pitch": 83,
                "velocity": 51,
                "duration": 0.0477273,
                "tempo": 120.0
            },
            {
                "start_time": 41.1,
                "end_time": 41.1477273,
                "pitch": 86,
                "velocity": 51,
                "duration": 0.0477273,
                "tempo": 120.0
            },
            {
                "start_time": 41.1636364,
                "end_time": 41.2159091,
                "pitch": 83,
                "velocity": 51,
                "duration": 0.0522727,
                "tempo": 120.0
            },
            {
                "start_time": 41.25,
                "end_time": 41.3022727,
                "pitch": 86,
                "velocity": 51,
                "duration": 0.0522727,
                "tempo": 120.0
            },
            {
                "start_time": 41.3204545,
                "end_time": 41.3727273,
                "pitch": 83,
                "velocity": 51,
                "duration": 0.0522727,
                "tempo": 120.0
            },
            {
                "start_time": 41.4068182,
                "end_time": 41.4590909,
                "pitch": 86,
                "velocity": 51,
                "duration": 0.0522727,
                "tempo": 120.0
            },
            {
                "start_time": 41.475,
                "end_time": 41.5272727,
                "pitch": 83,
                "velocity": 51,
                "duration": 0.0522727,
                "tempo": 120.0
            },
            {
                "start_time": 41.5636364,
                "end_time": 41.6136364,
                "pitch": 86,
                "velocity": 51,
                "duration": 0.05,
                "tempo": 120.0
            },
            {
                "start_time": 41.6318182,
                "end_time": 41.6840909,
                "pitch": 83,
                "velocity": 51,
                "duration": 0.0522727,
                "tempo": 120.0
            },
            {
                "start_time": 41.7181818,
                "end_time": 41.7704545,
                "pitch": 86,
                "velocity": 51,
                "duration": 0.0522727,
                "tempo": 120.0
            },
            {
                "start_time": 41.7863636,
                "end_time": 41.8363636,
                "pitch": 83,
                "velocity": 51,
                "duration": 0.05,
                "tempo": 120.0
            },
            {
                "start_time": 41.8681818,
                "end_time": 41.9159091,
                "pitch": 86,
                "velocity": 51,
                "duration": 0.0477273,
                "tempo": 120.0
            },
            {
                "start_time": 41.9318182,
                "end_time": 41.9818182,
                "pitch": 83,
                "velocity": 51,
                "duration": 0.05,
                "tempo": 120.0
            },
            {
                "start_time": 42.0136364,
                "end_time": 42.0613636,
                "pitch": 86,
                "velocity": 51,
                "duration": 0.0477273,
                "tempo": 120.0
            },
            {
                "start_time": 42.0795455,
                "end_time": 42.1272727,
                "pitch": 79,
                "velocity": 51,
                "duration": 0.0477273,
                "tempo": 120.0
            },
            {
                "start_time": 42.1590909,
                "end_time": 42.2068182,
                "pitch": 86,
                "velocity": 51,
                "duration": 0.0477273,
                "tempo": 120.0
            },
            {
                "start_time": 42.225,
                "end_time": 42.2727273,
                "pitch": 79,
                "velocity": 51,
                "duration": 0.0477273,
                "tempo": 120.0
            },
            {
                "start_time": 42.3045455,
                "end_time": 42.3545455,
                "pitch": 86,
                "velocity": 51,
                "duration": 0.05,
                "tempo": 120.0
            },
            {
                "start_time": 42.3704545,
                "end_time": 42.4204545,
                "pitch": 79,
                "velocity": 51,
                "duration": 0.05,
                "tempo": 120.0
            },
            {
                "start_time": 42.4568182,
                "end_time": 42.5090909,
                "pitch": 86,
                "velocity": 51,
                "duration": 0.0522727,
                "tempo": 120.0
            },
            {
                "start_time": 42.525,
                "end_time": 42.5772727,
                "pitch": 79,
                "velocity": 51,
                "duration": 0.0522727,
                "tempo": 120.0
            },
            {
                "start_time": 42.6136364,
                "end_time": 42.6636364,
                "pitch": 86,
                "velocity": 51,
                "duration": 0.05,
                "tempo": 120.0
            },
            {
                "start_time": 42.6818182,
                "end_time": 42.7340909,
                "pitch": 79,
                "velocity": 51,
                "duration": 0.0522727,
                "tempo": 120.0
            },
            {
                "start_time": 42.7681818,
                "end_time": 42.8204545,
                "pitch": 86,
                "velocity": 51,
                "duration": 0.0522727,
                "tempo": 120.0
            },
            {
                "start_time": 42.8386364,
                "end_time": 42.8909091,
                "pitch": 79,
                "velocity": 51,
                "duration": 0.0522727,
                "tempo": 120.0
            },
            {
                "start_time": 42.925,
                "end_time": 42.9772727,
                "pitch": 86,
                "velocity": 51,
                "duration": 0.0522727,
                "tempo": 120.0
            },
            {
                "start_time": 42.9954545,
                "end_time": 43.0454545,
                "pitch": 79,
                "velocity": 51,
                "duration": 0.05,
                "tempo": 120.0
            },
            {
                "start_time": 43.0772727,
                "end_time": 43.1272727,
                "pitch": 86,
                "velocity": 51,
                "duration": 0.05,
                "tempo": 120.0
            },
            {
                "start_time": 43.1454545,
                "end_time": 43.1954545,
                "pitch": 79,
                "velocity": 51,
                "duration": 0.05,
                "tempo": 120.0
            },
            {
                "start_time": 43.2272727,
                "end_time": 43.2772727,
                "pitch": 86,
                "velocity": 51,
                "duration": 0.05,
                "tempo": 120.0
            },
            {
                "start_time": 43.4454545,
                "end_time": 43.4954545,
                "pitch": 84,
                "velocity": 51,
                "duration": 0.05,
                "tempo": 120.0
            },
            {
                "start_time": 43.5272727,
                "end_time": 43.7295455,
                "pitch": 84,
                "velocity": 51,
                "duration": 0.2022727,
                "tempo": 120.0
            },
            {
                "start_time": 43.7454545,
                "end_time": 43.7977273,
                "pitch": 84,
                "velocity": 51,
                "duration": 0.0522727,
                "tempo": 120.0
            },
            {
                "start_time": 43.8295455,
                "end_time": 44.0318182,
                "pitch": 84,
                "velocity": 51,
                "duration": 0.2022727,
                "tempo": 120.0
            },
            {
                "start_time": 44.05,
                "end_time": 44.1,
                "pitch": 84,
                "velocity": 51,
                "duration": 0.05,
                "tempo": 120.0
            },
            {
                "start_time": 44.1340909,
                "end_time": 44.3363636,
                "pitch": 84,
                "velocity": 51,
                "duration": 0.2022727,
                "tempo": 120.0
            },
            {
                "start_time": 44.3522727,
                "end_time": 44.4022727,
                "pitch": 84,
                "velocity": 51,
                "duration": 0.05,
                "tempo": 120.0
            },
            {
                "start_time": 44.4363636,
                "end_time": 44.5045455,
                "pitch": 84,
                "velocity": 51,
                "duration": 0.0681818,
                "tempo": 120.0
            }
        ],
        "Flute": [
            {
                "start_time": 0.0,
                "end_time": 0.0772727,
                "pitch": 48,
                "velocity": 25,
                "duration": 0.0772727,
                "tempo": 120.0
            },
            {
                "start_time": 0.1,
                "end_time": 0.1772727,
                "pitch": 55,
                "velocity": 25,
                "duration": 0.0772727,
                "tempo": 120.0
            },
            {
                "start_time": 0.2113636,
                "end_time": 0.3272727,
                "pitch": 48,
                "velocity": 25,
                "duration": 0.1159091,
                "tempo": 120.0
            },
            {
                "start_time": 0.3613636,
                "end_time": 0.4795455,
                "pitch": 55,
                "velocity": 25,
                "duration": 0.1181818,
                "tempo": 120.0
            },
            {
                "start_time": 0.5136364,
                "end_time": 0.6318182,
                "pitch": 48,
                "velocity": 25,
                "duration": 0.1181818,
                "tempo": 120.0
            },
            {
                "start_time": 0.6659091,
                "end_time": 0.7818182,
                "pitch": 55,
                "velocity": 25,
                "duration": 0.1159091,
                "tempo": 120.0
            },
            {
                "start_time": 0.8159091,
                "end_time": 0.9318182,
                "pitch": 48,
                "velocity": 25,
                "duration": 0.1159091,
                "tempo": 120.0
            },
            {
                "start_time": 0.9659091,
                "end_time": 1.0818182,
                "pitch": 55,
                "velocity": 25,
                "duration": 0.1159091,
                "tempo": 120.0
            },
            {
                "start_time": 1.1159091,
                "end_time": 1.2318182,
                "pitch": 48,
                "velocity": 25,
                "duration": 0.1159091,
                "tempo": 120.0
            },
            {
                "start_time": 1.2659091,
                "end_time": 1.3818182,
                "pitch": 55,
                "velocity": 25,
                "duration": 0.1159091,
                "tempo": 120.0
            },
            {
                "start_time": 1.4159091,
                "end_time": 1.5318182,
                "pitch": 48,
                "velocity": 25,
                "duration": 0.1159091,
                "tempo": 120.0
            },
            {
                "start_time": 1.5659091,
                "end_time": 1.6818182,
                "pitch": 55,
                "velocity": 25,
                "duration": 0.1159091,
                "tempo": 120.0
            },
            {
                "start_time": 1.7159091,
                "end_time": 1.8318182,
                "pitch": 54,
                "velocity": 25,
                "duration": 0.1159091,
                "tempo": 120.0
            },
            {
                "start_time": 1.8659091,
                "end_time": 1.9818182,
                "pitch": 54,
                "velocity": 25,
                "duration": 0.1159091,
                "tempo": 120.0
            },
            {
                "start_time": 2.0159091,
                "end_time": 2.1272727,
                "pitch": 54,
                "velocity": 25,
                "duration": 0.1113636,
                "tempo": 120.0
            },
            {
                "start_time": 2.1613636,
                "end_time": 2.2727273,
                "pitch": 52,
                "velocity": 25,
                "duration": 0.1113636,
                "tempo": 120.0
            },
            {
                "start_time": 2.3068182,
                "end_time": 2.4204545,
                "pitch": 48,
                "velocity": 25,
                "duration": 0.1136364,
                "tempo": 120.0
            },
            {
                "start_time": 2.4522727,
                "end_time": 2.5659091,
                "pitch": 55,
                "velocity": 25,
                "duration": 0.1136364,
                "tempo": 120.0
            },
            {
                "start_time": 2.6,
                "end_time": 2.7204545,
                "pitch": 48,
                "velocity": 25,
                "duration": 0.1204545,
                "tempo": 120.0
            },
            {
                "start_time": 2.7568182,
                "end_time": 2.8772727,
                "pitch": 55,
                "velocity": 25,
                "duration": 0.1204545,
                "tempo": 120.0
            },
            {
                "start_time": 2.9113636,
                "end_time": 3.0340909,
                "pitch": 48,
                "velocity": 25,
                "duration": 0.1227273,
                "tempo": 120.0
            },
            {
                "start_time": 3.0681818,
                "end_time": 3.1886364,
                "pitch": 55,
                "velocity": 25,
                "duration": 0.1204545,
                "tempo": 120.0
            },
            {
                "start_time": 3.2227273,
                "end_time": 3.3409091,
                "pitch": 48,
                "velocity": 25,
                "duration": 0.1181818,
                "tempo": 120.0
            },
            {
                "start_time": 3.375,
                "end_time": 3.4931818,
                "pitch": 55,
                "velocity": 25,
                "duration": 0.1181818,
                "tempo": 120.0
            },
            {
                "start_time": 3.5272727,
                "end_time": 3.6454545,
                "pitch": 48,
                "velocity": 25,
                "duration": 0.1181818,
                "tempo": 120.0
            },
            {
                "start_time": 3.6772727,
                "end_time": 3.7954545,
                "pitch": 55,
                "velocity": 25,
                "duration": 0.1181818,
                "tempo": 120.0
            },
            {
                "start_time": 3.8295455,
                "end_time": 3.9477273,
                "pitch": 48,
                "velocity": 25,
                "duration": 0.1181818,
                "tempo": 120.0
            },
            {
                "start_time": 3.9818182,
                "end_time": 4.1,
                "pitch": 55,
                "velocity": 25,
                "duration": 0.1181818,
                "tempo": 120.0
            },
            {
                "start_time": 4.1318182,
                "end_time": 4.25,
                "pitch": 54,
                "velocity": 25,
                "duration": 0.1181818,
                "tempo": 120.0
            },
            {
                "start_time": 4.2840909,
                "end_time": 4.4022727,
                "pitch": 54,
                "velocity": 25,
                "duration": 0.1181818,
                "tempo": 120.0
            },
            {
                "start_time": 4.4340909,
                "end_time": 4.5477273,
                "pitch": 54,
                "velocity": 25,
                "duration": 0.1136364,
                "tempo": 120.0
            },
            {
                "start_time": 4.5795455,
                "end_time": 4.6931818,
                "pitch": 52,
                "velocity": 25,
                "duration": 0.1136364,
                "tempo": 120.0
            },
            {
                "start_time": 4.725,
                "end_time": 4.8386364,
                "pitch": 48,
                "velocity": 25,
                "duration": 0.1136364,
                "tempo": 120.0
            },
            {
                "start_time": 4.8704545,
                "end_time": 4.9840909,
                "pitch": 55,
                "velocity": 25,
                "duration": 0.1136364,
                "tempo": 120.0
            },
            {
                "start_time": 5.0181818,
                "end_time": 5.1409091,
                "pitch": 48,
                "velocity": 25,
                "duration": 0.1227273,
                "tempo": 120.0
            },
            {
                "start_time": 5.175,
                "end_time": 5.2954545,
                "pitch": 55,
                "velocity": 25,
                "duration": 0.1204545,
                "tempo": 120.0
            },
            {
                "start_time": 5.3318182,
                "end_time": 5.4522727,
                "pitch": 48,
                "velocity": 25,
                "duration": 0.1204545,
                "tempo": 120.0
            },
            {
                "start_time": 5.4863636,
                "end_time": 5.6068182,
                "pitch": 55,
                "velocity": 25,
                "duration": 0.1204545,
                "tempo": 120.0
            },
            {
                "start_time": 5.6409091,
                "end_time": 5.7522727,
                "pitch": 48,
                "velocity": 25,
                "duration": 0.1113636,
                "tempo": 120.0
            },
            {
                "start_time": 5.7863636,
                "end_time": 5.8977273,
                "pitch": 55,
                "velocity": 25,
                "duration": 0.1113636,
                "tempo": 120.0
            },
            {
                "start_time": 5.9318182,
                "end_time": 6.0454545,
                "pitch": 48,
                "velocity": 25,
                "duration": 0.1136364,
                "tempo": 120.0
            },
            {
                "start_time": 6.0772727,
                "end_time": 6.1909091,
                "pitch": 55,
                "velocity": 25,
                "duration": 0.1136364,
                "tempo": 120.0
            },
            {
                "start_time": 6.225,
                "end_time": 6.3454545,
                "pitch": 48,
                "velocity": 25,
                "duration": 0.1204545,
                "tempo": 120.0
            },
            {
                "start_time": 6.3818182,
                "end_time": 6.5022727,
                "pitch": 55,
                "velocity": 25,
                "duration": 0.1204545,
                "tempo": 120.0
            },
            {
                "start_time": 6.5363636,
                "end_time": 6.6590909,
                "pitch": 54,
                "velocity": 25,
                "duration": 0.1227273,
                "tempo": 120.0
            },
            {
                "start_time": 6.6931818,
                "end_time": 6.8136364,
                "pitch": 54,
                "velocity": 25,
                "duration": 0.1204545,
                "tempo": 120.0
            },
            {
                "start_time": 6.8454545,
                "end_time": 6.9590909,
                "pitch": 54,
                "velocity": 25,
                "duration": 0.1136364,
                "tempo": 120.0
            },
            {
                "start_time": 6.9909091,
                "end_time": 7.1045455,
                "pitch": 52,
                "velocity": 25,
                "duration": 0.1136364,
                "tempo": 120.0
            },
            {
                "start_time": 7.1363636,
                "end_time": 7.25,
                "pitch": 48,
                "velocity": 25,
                "duration": 0.1136364,
                "tempo": 120.0
            },
            {
                "start_time": 7.2818182,
                "end_time": 7.3954545,
                "pitch": 55,
                "velocity": 25,
                "duration": 0.1136364,
                "tempo": 120.0
            },
            {
                "start_time": 7.4295455,
                "end_time": 7.5522727,
                "pitch": 48,
                "velocity": 25,
                "duration": 0.1227273,
                "tempo": 120.0
            },
            {
                "start_time": 7.5863636,
                "end_time": 7.7090909,
                "pitch": 55,
                "velocity": 25,
                "duration": 0.1227273,
                "tempo": 120.0
            },
            {
                "start_time": 7.7431818,
                "end_time": 7.8636364,
                "pitch": 48,
                "velocity": 25,
                "duration": 0.1204545,
                "tempo": 120.0
            },
            {
                "start_time": 7.9,
                "end_time": 8.0204545,
                "pitch": 55,
                "velocity": 25,
                "duration": 0.1204545,
                "tempo": 120.0
            },
            {
                "start_time": 8.0545455,
                "end_time": 8.1681818,
                "pitch": 48,
                "velocity": 25,
                "duration": 0.1136364,
                "tempo": 120.0
            },
            {
                "start_time": 8.2022727,
                "end_time": 8.3181818,
                "pitch": 55,
                "velocity": 25,
                "duration": 0.1159091,
                "tempo": 120.0
            },
            {
                "start_time": 8.35,
                "end_time": 8.4659091,
                "pitch": 48,
                "velocity": 25,
                "duration": 0.1159091,
                "tempo": 120.0
            },
            {
                "start_time": 8.5,
                "end_time": 8.6136364,
                "pitch": 55,
                "velocity": 25,
                "duration": 0.1136364,
                "tempo": 120.0
            },
            {
                "start_time": 8.6477273,
                "end_time": 8.7681818,
                "pitch": 48,
                "velocity": 25,
                "duration": 0.1204545,
                "tempo": 120.0
            },
            {
                "start_time": 8.8022727,
                "end_time": 8.9204545,
                "pitch": 55,
                "velocity": 25,
                "duration": 0.1181818,
                "tempo": 120.0
            },
            {
                "start_time": 8.9545455,
                "end_time": 9.0727273,
                "pitch": 54,
                "velocity": 25,
                "duration": 0.1181818,
                "tempo": 120.0
            },
            {
                "start_time": 9.1068182,
                "end_time": 9.2272727,
                "pitch": 54,
                "velocity": 25,
                "duration": 0.1204545,
                "tempo": 120.0
            },
            {
                "start_time": 9.2590909,
                "end_time": 9.3772727,
                "pitch": 54,
                "velocity": 25,
                "duration": 0.1181818,
                "tempo": 120.0
            },
            {
                "start_time": 9.4090909,
                "end_time": 9.5272727,
                "pitch": 52,
                "velocity": 25,
                "duration": 0.1181818,
                "tempo": 120.0
            },
            {
                "start_time": 9.5590909,
                "end_time": 9.6772727,
                "pitch": 48,
                "velocity": 25,
                "duration": 0.1181818,
                "tempo": 120.0
            },
            {
                "start_time": 9.7090909,
                "end_time": 9.8272727,
                "pitch": 55,
                "velocity": 25,
                "duration": 0.1181818,
                "tempo": 120.0
            },
            {
                "start_time": 9.8590909,
                "end_time": 9.9772727,
                "pitch": 48,
                "velocity": 25,
                "duration": 0.1181818,
                "tempo": 120.0
            },
            {
                "start_time": 10.0090909,
                "end_time": 10.1272727,
                "pitch": 55,
                "velocity": 25,
                "duration": 0.1181818,
                "tempo": 120.0
            },
            {
                "start_time": 10.1590909,
                "end_time": 10.2772727,
                "pitch": 48,
                "velocity": 25,
                "duration": 0.1181818,
                "tempo": 120.0
            },
            {
                "start_time": 10.3090909,
                "end_time": 10.4272727,
                "pitch": 55,
                "velocity": 25,
                "duration": 0.1181818,
                "tempo": 120.0
            },
            {
                "start_time": 10.4613636,
                "end_time": 10.5772727,
                "pitch": 48,
                "velocity": 25,
                "duration": 0.1159091,
                "tempo": 120.0
            },
            {
                "start_time": 10.6113636,
                "end_time": 10.7295455,
                "pitch": 55,
                "velocity": 25,
                "duration": 0.1181818,
                "tempo": 120.0
            },
            {
                "start_time": 10.7636364,
                "end_time": 10.8818182,
                "pitch": 48,
                "velocity": 25,
                "duration": 0.1181818,
                "tempo": 120.0
            },
            {
                "start_time": 10.9159091,
                "end_time": 11.0318182,
                "pitch": 55,
                "velocity": 25,
                "duration": 0.1159091,
                "tempo": 120.0
            },
            {
                "start_time": 11.0659091,
                "end_time": 11.1818182,
                "pitch": 48,
                "velocity": 25,
                "duration": 0.1159091,
                "tempo": 120.0
            },
            {
                "start_time": 11.2159091,
                "end_time": 11.3318182,
                "pitch": 55,
                "velocity": 25,
                "duration": 0.1159091,
                "tempo": 120.0
            },
            {
                "start_time": 11.3659091,
                "end_time": 11.4818182,
                "pitch": 54,
                "velocity": 25,
                "duration": 0.1159091,
                "tempo": 120.0
            },
            {
                "start_time": 11.5159091,
                "end_time": 11.6318182,
                "pitch": 54,
                "velocity": 25,
                "duration": 0.1159091,
                "tempo": 120.0
            },
            {
                "start_time": 11.6659091,
                "end_time": 11.7818182,
                "pitch": 54,
                "velocity": 25,
                "duration": 0.1159091,
                "tempo": 120.0
            },
            {
                "start_time": 11.8136364,
                "end_time": 11.9295455,
                "pitch": 52,
                "velocity": 25,
                "duration": 0.1159091,
                "tempo": 120.0
            },
            {
                "start_time": 11.9636364,
                "end_time": 12.0772727,
                "pitch": 48,
                "velocity": 25,
                "duration": 0.1136364,
                "tempo": 120.0
            },
            {
                "start_time": 12.1113636,
                "end_time": 12.2272727,
                "pitch": 55,
                "velocity": 25,
                "duration": 0.1159091,
                "tempo": 120.0
            },
            {
                "start_time": 12.2590909,
                "end_time": 12.5227273,
                "pitch": 48,
                "velocity": 25,
                "duration": 0.2636364,
                "tempo": 120.0
            },
            {
                "start_time": 12.5568182,
                "end_time": 12.8204545,
                "pitch": 48,
                "velocity": 25,
                "duration": 0.2636364,
                "tempo": 120.0
            },
            {
                "start_time": 12.8545455,
                "end_time": 13.1204545,
                "pitch": 48,
                "velocity": 25,
                "duration": 0.2659091,
                "tempo": 120.0
            },
            {
                "start_time": 13.1545455,
                "end_time": 13.2704545,
                "pitch": 48,
                "velocity": 25,
                "duration": 0.1159091,
                "tempo": 120.0
            },
            {
                "start_time": 13.3045455,
                "end_time": 13.4204545,
                "pitch": 55,
                "velocity": 25,
                "duration": 0.1159091,
                "tempo": 120.0
            },
            {
                "start_time": 13.4545455,
                "end_time": 13.7204545,
                "pitch": 48,
                "velocity": 25,
                "duration": 0.2659091,
                "tempo": 120.0
            },
            {
                "start_time": 13.7545455,
                "end_time": 14.0204545,
                "pitch": 48,
                "velocity": 25,
                "duration": 0.2659091,
                "tempo": 120.0
            },
            {
                "start_time": 14.0545455,
                "end_time": 14.3272727,
                "pitch": 48,
                "velocity": 25,
                "duration": 0.2727273,
                "tempo": 120.0
            },
            {
                "start_time": 14.3613636,
                "end_time": 14.4795455,
                "pitch": 48,
                "velocity": 25,
                "duration": 0.1181818,
                "tempo": 120.0
            },
            {
                "start_time": 14.5136364,
                "end_time": 14.6318182,
                "pitch": 55,
                "velocity": 25,
                "duration": 0.1181818,
                "tempo": 120.0
            },
            {
                "start_time": 14.6659091,
                "end_time": 14.9295455,
                "pitch": 48,
                "velocity": 25,
                "duration": 0.2636364,
                "tempo": 120.0
            },
            {
                "start_time": 14.9636364,
                "end_time": 15.2272727,
                "pitch": 48,
                "velocity": 25,
                "duration": 0.2636364,
                "tempo": 120.0
            },
            {
                "start_time": 15.2613636,
                "end_time": 15.5272727,
                "pitch": 48,
                "velocity": 25,
                "duration": 0.2659091,
                "tempo": 120.0
            },
            {
                "start_time": 15.5613636,
                "end_time": 15.6772727,
                "pitch": 48,
                "velocity": 25,
                "duration": 0.1159091,
                "tempo": 120.0
            },
            {
                "start_time": 15.7113636,
                "end_time": 15.8272727,
                "pitch": 55,
                "velocity": 25,
                "duration": 0.1159091,
                "tempo": 120.0
            },
            {
                "start_time": 15.8613636,
                "end_time": 16.1272727,
                "pitch": 48,
                "velocity": 25,
                "duration": 0.2659091,
                "tempo": 120.0
            },
            {
                "start_time": 16.1613636,
                "end_time": 16.4272727,
                "pitch": 48,
                "velocity": 25,
                "duration": 0.2659091,
                "tempo": 120.0
            },
            {
                "start_time": 16.4613636,
                "end_time": 16.7340909,
                "pitch": 48,
                "velocity": 25,
                "duration": 0.2727273,
                "tempo": 120.0
            },
            {
                "start_time": 16.7681818,
                "end_time": 17.0386364,
                "pitch": 60,
                "velocity": 25,
                "duration": 0.2704545,
                "tempo": 120.0
            },
            {
                "start_time": 17.0727273,
                "end_time": 17.3386364,
                "pitch": 60,
                "velocity": 25,
                "duration": 0.2659091,
                "tempo": 120.0
            },
            {
                "start_time": 17.3727273,
                "end_time": 17.6386364,
                "pitch": 60,
                "velocity": 25,
                "duration": 0.2659091,
                "tempo": 120.0
            },
            {
                "start_time": 17.6727273,
                "end_time": 17.9363636,
                "pitch": 60,
                "velocity": 25,
                "duration": 0.2636364,
                "tempo": 120.0
            },
            {
                "start_time": 17.9681818,
                "end_time": 18.2340909,
                "pitch": 60,
                "velocity": 25,
                "duration": 0.2659091,
                "tempo": 120.0
            },
            {
                "start_time": 18.2681818,
                "end_time": 18.5386364,
                "pitch": 60,
                "velocity": 25,
                "duration": 0.2704545,
                "tempo": 120.0
            },
            {
                "start_time": 18.5727273,
                "end_time": 18.8454545,
                "pitch": 60,
                "velocity": 25,
                "duration": 0.2727273,
                "tempo": 120.0
            },
            {
                "start_time": 18.8795455,
                "end_time": 19.1454545,
                "pitch": 60,
                "velocity": 25,
                "duration": 0.2659091,
                "tempo": 120.0
            },
            {
                "start_time": 19.1795455,
                "end_time": 19.4454545,
                "pitch": 60,
                "velocity": 25,
                "duration": 0.2659091,
                "tempo": 120.0
            },
            {
                "start_time": 19.4795455,
                "end_time": 19.7522727,
                "pitch": 60,
                "velocity": 25,
                "duration": 0.2727273,
                "tempo": 120.0
            },
            {
                "start_time": 19.7863636,
                "end_time": 20.0568182,
                "pitch": 60,
                "velocity": 25,
                "duration": 0.2704545,
                "tempo": 120.0
            },
            {
                "start_time": 20.0886364,
                "end_time": 20.3477273,
                "pitch": 60,
                "velocity": 25,
                "duration": 0.2590909,
                "tempo": 120.0
            },
            {
                "start_time": 20.3795455,
                "end_time": 20.6409091,
                "pitch": 60,
                "velocity": 25,
                "duration": 0.2613636,
                "tempo": 120.0
            },
            {
                "start_time": 20.6727273,
                "end_time": 20.9454545,
                "pitch": 60,
                "velocity": 25,
                "duration": 0.2727273,
                "tempo": 120.0
            },
            {
                "start_time": 20.9795455,
                "end_time": 21.2522727,
                "pitch": 60,
                "velocity": 25,
                "duration": 0.2727273,
                "tempo": 120.0
            },
            {
                "start_time": 21.2863636,
                "end_time": 21.5545455,
                "pitch": 60,
                "velocity": 25,
                "duration": 0.2681818,
                "tempo": 120.0
            },
            {
                "start_time": 21.5886364,
                "end_time": 21.7068182,
                "pitch": 48,
                "velocity": 25,
                "duration": 0.1181818,
                "tempo": 120.0
            },
            {
                "start_time": 21.7409091,
                "end_time": 21.8590909,
                "pitch": 55,
                "velocity": 25,
                "duration": 0.1181818,
                "tempo": 120.0
            },
            {
                "start_time": 21.8909091,
                "end_time": 22.0113636,
                "pitch": 48,
                "velocity": 25,
                "duration": 0.1204545,
                "tempo": 120.0
            },
            {
                "start_time": 22.0454545,
                "end_time": 22.1636364,
                "pitch": 55,
                "velocity": 25,
                "duration": 0.1181818,
                "tempo": 120.0
            },
            {
                "start_time": 22.1977273,
                "end_time": 22.3181818,
                "pitch": 48,
                "velocity": 25,
                "duration": 0.1204545,
                "tempo": 120.0
            },
            {
                "start_time": 22.3522727,
                "end_time": 22.4704545,
                "pitch": 55,
                "velocity": 25,
                "duration": 0.1181818,
                "tempo": 120.0
            },
            {
                "start_time": 22.5022727,
                "end_time": 22.6159091,
                "pitch": 48,
                "velocity": 25,
                "duration": 0.1136364,
                "tempo": 120.0
            },
            {
                "start_time": 22.6477273,
                "end_time": 22.7613636,
                "pitch": 55,
                "velocity": 25,
                "duration": 0.1136364,
                "tempo": 120.0
            },
            {
                "start_time": 22.7931818,
                "end_time": 22.9068182,
                "pitch": 48,
                "velocity": 25,
                "duration": 0.1136364,
                "tempo": 120.0
            },
            {
                "start_time": 22.9386364,
                "end_time": 23.0522727,
                "pitch": 55,
                "velocity": 25,
                "duration": 0.1136364,
                "tempo": 120.0
            },
            {
                "start_time": 23.0863636,
                "end_time": 23.2090909,
                "pitch": 48,
                "velocity": 25,
                "duration": 0.1227273,
                "tempo": 120.0
            },
            {
                "start_time": 23.2431818,
                "end_time": 23.3636364,
                "pitch": 55,
                "velocity": 25,
                "duration": 0.1204545,
                "tempo": 120.0
            },
            {
                "start_time": 23.4,
                "end_time": 23.5204545,
                "pitch": 54,
                "velocity": 25,
                "duration": 0.1204545,
                "tempo": 120.0
            },
            {
                "start_time": 23.5545455,
                "end_time": 23.675,
                "pitch": 54,
                "velocity": 25,
                "duration": 0.1204545,
                "tempo": 120.0
            },
            {
                "start_time": 23.7068182,
                "end_time": 23.8204545,
                "pitch": 54,
                "velocity": 25,
                "duration": 0.1136364,
                "tempo": 120.0
            },
            {
                "start_time": 23.8545455,
                "end_time": 23.9659091,
                "pitch": 52,
                "velocity": 25,
                "duration": 0.1113636,
                "tempo": 120.0
            },
            {
                "start_time": 24.0,
                "end_time": 24.1113636,
                "pitch": 48,
                "velocity": 25,
                "duration": 0.1113636,
                "tempo": 120.0
            },
            {
                "start_time": 24.1454545,
                "end_time": 24.2590909,
                "pitch": 55,
                "velocity": 25,
                "duration": 0.1136364,
                "tempo": 120.0
            },
            {
                "start_time": 24.2931818,
                "end_time": 24.4136364,
                "pitch": 48,
                "velocity": 25,
                "duration": 0.1204545,
                "tempo": 120.0
            },
            {
                "start_time": 24.4477273,
                "end_time": 24.5704545,
                "pitch": 55,
                "velocity": 25,
                "duration": 0.1227273,
                "tempo": 120.0
            },
            {
                "start_time": 24.6045455,
                "end_time": 24.7272727,
                "pitch": 48,
                "velocity": 25,
                "duration": 0.1227273,
                "tempo": 120.0
            },
            {
                "start_time": 24.7613636,
                "end_time": 24.8818182,
                "pitch": 55,
                "velocity": 25,
                "duration": 0.1204545,
                "tempo": 120.0
            },
            {
                "start_time": 24.9159091,
                "end_time": 25.0340909,
                "pitch": 48,
                "velocity": 25,
                "duration": 0.1181818,
                "tempo": 120.0
            },
            {
                "start_time": 25.0681818,
                "end_time": 25.1863636,
                "pitch": 55,
                "velocity": 25,
                "duration": 0.1181818,
                "tempo": 120.0
            },
            {
                "start_time": 25.2204545,
                "end_time": 25.3363636,
                "pitch": 48,
                "velocity": 25,
                "duration": 0.1159091,
                "tempo": 120.0
            },
            {
                "start_time": 25.3704545,
                "end_time": 25.4886364,
                "pitch": 55,
                "velocity": 25,
                "duration": 0.1181818,
                "tempo": 120.0
            },
            {
                "start_time": 25.5227273,
                "end_time": 25.6386364,
                "pitch": 48,
                "velocity": 25,
                "duration": 0.1159091,
                "tempo": 120.0
            },
            {
                "start_time": 25.6727273,
                "end_time": 25.7886364,
                "pitch": 55,
                "velocity": 25,
                "duration": 0.1159091,
                "tempo": 120.0
            },
            {
                "start_time": 25.8227273,
                "end_time": 25.9386364,
                "pitch": 54,
                "velocity": 25,
                "duration": 0.1159091,
                "tempo": 120.0
            },
            {
                "start_time": 25.9727273,
                "end_time": 26.0886364,
                "pitch": 54,
                "velocity": 25,
                "duration": 0.1159091,
                "tempo": 120.0
            },
            {
                "start_time": 26.1227273,
                "end_time": 26.2409091,
                "pitch": 54,
                "velocity": 25,
                "duration": 0.1181818,
                "tempo": 120.0
            },
            {
                "start_time": 26.275,
                "end_time": 26.3909091,
                "pitch": 52,
                "velocity": 25,
                "duration": 0.1159091,
                "tempo": 120.0
            },
            {
                "start_time": 26.425,
                "end_time": 26.5431818,
                "pitch": 48,
                "velocity": 25,
                "duration": 0.1181818,
                "tempo": 120.0
            },
            {
                "start_time": 26.5772727,
                "end_time": 26.6954545,
                "pitch": 55,
                "velocity": 25,
                "duration": 0.1181818,
                "tempo": 120.0
            },
            {
                "start_time": 26.7295455,
                "end_time": 26.8454545,
                "pitch": 48,
                "velocity": 25,
                "duration": 0.1159091,
                "tempo": 120.0
            },
            {
                "start_time": 26.8795455,
                "end_time": 26.9977273,
                "pitch": 55,
                "velocity": 25,
                "duration": 0.1181818,
                "tempo": 120.0
            },
            {
                "start_time": 27.0318182,
                "end_time": 27.15,
                "pitch": 48,
                "velocity": 25,
                "duration": 0.1181818,
                "tempo": 120.0
            },
            {
                "start_time": 27.1840909,
                "end_time": 27.3,
                "pitch": 55,
                "velocity": 25,
                "duration": 0.1159091,
                "tempo": 120.0
            },
            {
                "start_time": 27.3340909,
                "end_time": 27.45,
                "pitch": 48,
                "velocity": 25,
                "duration": 0.1159091,
                "tempo": 120.0
            },
            {
                "start_time": 27.4840909,
                "end_time": 27.6,
                "pitch": 55,
                "velocity": 25,
                "duration": 0.1159091,
                "tempo": 120.0
            },
            {
                "start_time": 27.6340909,
                "end_time": 27.75,
                "pitch": 48,
                "velocity": 25,
                "duration": 0.1159091,
                "tempo": 120.0
            },
            {
                "start_time": 27.7840909,
                "end_time": 27.9,
                "pitch": 55,
                "velocity": 25,
                "duration": 0.1159091,
                "tempo": 120.0
            },
            {
                "start_time": 27.9340909,
                "end_time": 28.0522727,
                "pitch": 48,
                "velocity": 25,
                "duration": 0.1181818,
                "tempo": 120.0
            },
            {
                "start_time": 28.0863636,
                "end_time": 28.2045455,
                "pitch": 55,
                "velocity": 25,
                "duration": 0.1181818,
                "tempo": 120.0
            },
            {
                "start_time": 28.2386364,
                "end_time": 28.3545455,
                "pitch": 54,
                "velocity": 25,
                "duration": 0.1159091,
                "tempo": 120.0
            },
            {
                "start_time": 28.3886364,
                "end_time": 28.5068182,
                "pitch": 54,
                "velocity": 25,
                "duration": 0.1181818,
                "tempo": 120.0
            },
            {
                "start_time": 28.5409091,
                "end_time": 28.6568182,
                "pitch": 54,
                "velocity": 25,
                "duration": 0.1159091,
                "tempo": 120.0
            },
            {
                "start_time": 28.6909091,
                "end_time": 28.8068182,
                "pitch": 52,
                "velocity": 25,
                "duration": 0.1159091,
                "tempo": 120.0
            },
            {
                "start_time": 28.8409091,
                "end_time": 28.9568182,
                "pitch": 48,
                "velocity": 25,
                "duration": 0.1159091,
                "tempo": 120.0
            },
            {
                "start_time": 28.9909091,
                "end_time": 29.1068182,
                "pitch": 55,
                "velocity": 25,
                "duration": 0.1159091,
                "tempo": 120.0
            },
            {
                "start_time": 29.1386364,
                "end_time": 29.3977273,
                "pitch": 48,
                "velocity": 25,
                "duration": 0.2590909,
                "tempo": 120.0
            },
            {
                "start_time": 29.4295455,
                "end_time": 29.6886364,
                "pitch": 48,
                "velocity": 25,
                "duration": 0.2590909,
                "tempo": 120.0
            },
            {
                "start_time": 29.7227273,
                "end_time": 29.9886364,
                "pitch": 48,
                "velocity": 25,
                "duration": 0.2659091,
                "tempo": 120.0
            },
            {
                "start_time": 30.0227273,
                "end_time": 30.1386364,
                "pitch": 48,
                "velocity": 25,
                "duration": 0.1159091,
                "tempo": 120.0
            },
            {
                "start_time": 30.1727273,
                "end_time": 30.2909091,
                "pitch": 55,
                "velocity": 25,
                "duration": 0.1181818,
                "tempo": 120.0
            },
            {
                "start_time": 30.3227273,
                "end_time": 30.5931818,
                "pitch": 48,
                "velocity": 25,
                "duration": 0.2704545,
                "tempo": 120.0
            },
            {
                "start_time": 30.6272727,
                "end_time": 30.8954545,
                "pitch": 48,
                "velocity": 25,
                "duration": 0.2681818,
                "tempo": 120.0
            },
            {
                "start_time": 30.9295455,
                "end_time": 31.2,
                "pitch": 48,
                "velocity": 25,
                "duration": 0.2704545,
                "tempo": 120.0
            },
            {
                "start_time": 31.2318182,
                "end_time": 31.35,
                "pitch": 48,
                "velocity": 25,
                "duration": 0.1181818,
                "tempo": 120.0
            },
            {
                "start_time": 31.3840909,
                "end_time": 31.5022727,
                "pitch": 55,
                "velocity": 25,
                "duration": 0.1181818,
                "tempo": 120.0
            },
            {
                "start_time": 31.5340909,
                "end_time": 31.8022727,
                "pitch": 48,
                "velocity": 25,
                "duration": 0.2681818,
                "tempo": 120.0
            },
            {
                "start_time": 31.8340909,
                "end_time": 32.1022727,
                "pitch": 48,
                "velocity": 25,
                "duration": 0.2681818,
                "tempo": 120.0
            },
            {
                "start_time": 32.1363636,
                "end_time": 32.4090909,
                "pitch": 48,
                "velocity": 25,
                "duration": 0.2727273,
                "tempo": 120.0
            },
            {
                "start_time": 32.4431818,
                "end_time": 32.5613636,
                "pitch": 48,
                "velocity": 25,
                "duration": 0.1181818,
                "tempo": 120.0
            },
            {
                "start_time": 32.5954545,
                "end_time": 32.7136364,
                "pitch": 55,
                "velocity": 25,
                "duration": 0.1181818,
                "tempo": 120.0
            },
            {
                "start_time": 32.7477273,
                "end_time": 33.0136364,
                "pitch": 48,
                "velocity": 25,
                "duration": 0.2659091,
                "tempo": 120.0
            },
            {
                "start_time": 33.0477273,
                "end_time": 33.3136364,
                "pitch": 48,
                "velocity": 25,
                "duration": 0.2659091,
                "tempo": 120.0
            },
            {
                "start_time": 33.3477273,
                "end_time": 33.6181818,
                "pitch": 48,
                "velocity": 25,
                "duration": 0.2704545,
                "tempo": 120.0
            },
            {
                "start_time": 33.65,
                "end_time": 33.7681818,
                "pitch": 63,
                "velocity": 25,
                "duration": 0.1181818,
                "tempo": 120.0
            },
            {
                "start_time": 33.8022727,
                "end_time": 33.9204545,
                "pitch": 70,
                "velocity": 25,
                "duration": 0.1181818,
                "tempo": 120.0
            },
            {
                "start_time": 33.9522727,
                "end_time": 34.0681818,
                "pitch": 63,
                "velocity": 25,
                "duration": 0.1159091,
                "tempo": 120.0
            },
            {
                "start_time": 34.1022727,
                "end_time": 34.2159091,
                "pitch": 70,
                "velocity": 25,
                "duration": 0.1136364,
                "tempo": 120.0
            },
            {
                "start_time": 34.25,
                "end_time": 34.3659091,
                "pitch": 63,
                "velocity": 25,
                "duration": 0.1159091,
                "tempo": 120.0
            },
            {
                "start_time": 34.3977273,
                "end_time": 34.5136364,
                "pitch": 70,
                "velocity": 25,
                "duration": 0.1159091,
                "tempo": 120.0
            },
            {
                "start_time": 34.5477273,
                "end_time": 34.6659091,
                "pitch": 63,
                "velocity": 25,
                "duration": 0.1181818,
                "tempo": 120.0
            },
            {
                "start_time": 34.7,
                "end_time": 34.8181818,
                "pitch": 70,
                "velocity": 25,
                "duration": 0.1181818,
                "tempo": 120.0
            },
            {
                "start_time": 34.85,
                "end_time": 34.9681818,
                "pitch": 63,
                "velocity": 25,
                "duration": 0.1181818,
                "tempo": 120.0
            },
            {
                "start_time": 35.0022727,
                "end_time": 35.1204545,
                "pitch": 70,
                "velocity": 25,
                "duration": 0.1181818,
                "tempo": 120.0
            },
            {
                "start_time": 35.1545455,
                "end_time": 35.2704545,
                "pitch": 63,
                "velocity": 25,
                "duration": 0.1159091,
                "tempo": 120.0
            },
            {
                "start_time": 35.3045455,
                "end_time": 35.4204545,
                "pitch": 70,
                "velocity": 25,
                "duration": 0.1159091,
                "tempo": 120.0
            },
            {
                "start_time": 35.4545455,
                "end_time": 35.5704545,
                "pitch": 63,
                "velocity": 25,
                "duration": 0.1159091,
                "tempo": 120.0
            },
            {
                "start_time": 35.6045455,
                "end_time": 35.7204545,
                "pitch": 70,
                "velocity": 25,
                "duration": 0.1159091,
                "tempo": 120.0
            },
            {
                "start_time": 35.7545455,
                "end_time": 35.8727273,
                "pitch": 63,
                "velocity": 25,
                "duration": 0.1181818,
                "tempo": 120.0
            },
            {
                "start_time": 35.9045455,
                "end_time": 36.0227273,
                "pitch": 70,
                "velocity": 25,
                "duration": 0.1181818,
                "tempo": 120.0
            },
            {
                "start_time": 36.0568182,
                "end_time": 36.175,
                "pitch": 59,
                "velocity": 25,
                "duration": 0.1181818,
                "tempo": 120.0
            },
            {
                "start_time": 36.2090909,
                "end_time": 36.3272727,
                "pitch": 66,
                "velocity": 25,
                "duration": 0.1181818,
                "tempo": 120.0
            },
            {
                "start_time": 36.3590909,
                "end_time": 36.4772727,
                "pitch": 59,
                "velocity": 25,
                "duration": 0.1181818,
                "tempo": 120.0
            },
            {
                "start_time": 36.5113636,
                "end_time": 36.6295455,
                "pitch": 66,
                "velocity": 25,
                "duration": 0.1181818,
                "tempo": 120.0
            },
            {
                "start_time": 36.6636364,
                "end_time": 36.7818182,
                "pitch": 59,
                "velocity": 25,
                "duration": 0.1181818,
                "tempo": 120.0
            },
            {
                "start_time": 36.8136364,
                "end_time": 36.9318182,
                "pitch": 66,
                "velocity": 25,
                "duration": 0.1181818,
                "tempo": 120.0
            },
            {
                "start_time": 36.9681818,
                "end_time": 37.0886364,
                "pitch": 59,
                "velocity": 25,
                "duration": 0.1204545,
                "tempo": 120.0
            },
            {
                "start_time": 37.1227273,
                "end_time": 37.2454545,
                "pitch": 66,
                "velocity": 25,
                "duration": 0.1227273,
                "tempo": 120.0
            },
            {
                "start_time": 37.2795455,
                "end_time": 37.4,
                "pitch": 59,
                "velocity": 25,
                "duration": 0.1204545,
                "tempo": 120.0
            },
            {
                "start_time": 37.4363636,
                "end_time": 37.5568182,
                "pitch": 66,
                "velocity": 25,
                "duration": 0.1204545,
                "tempo": 120.0
            },
            {
                "start_time": 37.5909091,
                "end_time": 37.7090909,
                "pitch": 59,
                "velocity": 25,
                "duration": 0.1181818,
                "tempo": 120.0
            },
            {
                "start_time": 37.7431818,
                "end_time": 37.8613636,
                "pitch": 66,
                "velocity": 25,
                "duration": 0.1181818,
                "tempo": 120.0
            },
            {
                "start_time": 37.8931818,
                "end_time": 38.0113636,
                "pitch": 59,
                "velocity": 25,
                "duration": 0.1181818,
                "tempo": 120.0
            },
            {
                "start_time": 38.0454545,
                "end_time": 38.1636364,
                "pitch": 66,
                "velocity": 25,
                "duration": 0.1181818,
                "tempo": 120.0
            },
            {
                "start_time": 38.1977273,
                "end_time": 38.3159091,
                "pitch": 59,
                "velocity": 25,
                "duration": 0.1181818,
                "tempo": 120.0
            },
            {
                "start_time": 38.3477273,
                "end_time": 38.4659091,
                "pitch": 66,
                "velocity": 25,
                "duration": 0.1181818,
                "tempo": 120.0
            },
            {
                "start_time": 38.5,
                "end_time": 38.6181818,
                "pitch": 55,
                "velocity": 25,
                "duration": 0.1181818,
                "tempo": 120.0
            },
            {
                "start_time": 38.6522727,
                "end_time": 38.7704545,
                "pitch": 62,
                "velocity": 25,
                "duration": 0.1181818,
                "tempo": 120.0
            },
            {
                "start_time": 38.8022727,
                "end_time": 38.9181818,
                "pitch": 55,
                "velocity": 25,
                "duration": 0.1159091,
                "tempo": 120.0
            },
            {
                "start_time": 38.95,
                "end_time": 39.0659091,
                "pitch": 62,
                "velocity": 25,
                "duration": 0.1159091,
                "tempo": 120.0
            },
            {
                "start_time": 39.1,
                "end_time": 39.2159091,
                "pitch": 55,
                "velocity": 25,
                "duration": 0.1159091,
                "tempo": 120.0
            },
            {
                "start_time": 39.2477273,
                "end_time": 39.3636364,
                "pitch": 62,
                "velocity": 25,
                "duration": 0.1159091,
                "tempo": 120.0
            },
            {
                "start_time": 39.3977273,
                "end_time": 39.5159091,
                "pitch": 55,
                "velocity": 25,
                "duration": 0.1181818,
                "tempo": 120.0
            },
            {
                "start_time": 39.5477273,
                "end_time": 39.6659091,
                "pitch": 62,
                "velocity": 25,
                "duration": 0.1181818,
                "tempo": 120.0
            },
            {
                "start_time": 39.7,
                "end_time": 39.8181818,
                "pitch": 55,
                "velocity": 25,
                "duration": 0.1181818,
                "tempo": 120.0
            },
            {
                "start_time": 39.8522727,
                "end_time": 39.9704545,
                "pitch": 62,
                "velocity": 25,
                "duration": 0.1181818,
                "tempo": 120.0
            },
            {
                "start_time": 40.0045455,
                "end_time": 40.1227273,
                "pitch": 55,
                "velocity": 25,
                "duration": 0.1181818,
                "tempo": 120.0
            },
            {
                "start_time": 40.1568182,
                "end_time": 40.275,
                "pitch": 62,
                "velocity": 25,
                "duration": 0.1181818,
                "tempo": 120.0
            },
            {
                "start_time": 40.3090909,
                "end_time": 40.4295455,
                "pitch": 55,
                "velocity": 25,
                "duration": 0.1204545,
                "tempo": 120.0
            },
            {
                "start_time": 40.4636364,
                "end_time": 40.5818182,
                "pitch": 62,
                "velocity": 25,
                "duration": 0.1181818,
                "tempo": 120.0
            },
            {
                "start_time": 40.6136364,
                "end_time": 40.7272727,
                "pitch": 55,
                "velocity": 25,
                "duration": 0.1136364,
                "tempo": 120.0
            },
            {
                "start_time": 40.7590909,
                "end_time": 40.8727273,
                "pitch": 62,
                "velocity": 25,
                "duration": 0.1136364,
                "tempo": 120.0
            },
            {
                "start_time": 40.9045455,
                "end_time": 41.0181818,
                "pitch": 50,
                "velocity": 25,
                "duration": 0.1136364,
                "tempo": 120.0
            },
            {
                "start_time": 41.05,
                "end_time": 41.1636364,
                "pitch": 50,
                "velocity": 25,
                "duration": 0.1136364,
                "tempo": 120.0
            },
            {
                "start_time": 41.1977273,
                "end_time": 41.3204545,
                "pitch": 50,
                "velocity": 25,
                "duration": 0.1227273,
                "tempo": 120.0
            },
            {
                "start_time": 41.3545455,
                "end_time": 41.475,
                "pitch": 50,
                "velocity": 25,
                "duration": 0.1204545,
                "tempo": 120.0
            },
            {
                "start_time": 41.5113636,
                "end_time": 41.6318182,
                "pitch": 50,
                "velocity": 25,
                "duration": 0.1204545,
                "tempo": 120.0
            },
            {
                "start_time": 41.6659091,
                "end_time": 41.7863636,
                "pitch": 50,
                "velocity": 25,
                "duration": 0.1204545,
                "tempo": 120.0
            },
            {
                "start_time": 41.8204545,
                "end_time": 41.9318182,
                "pitch": 50,
                "velocity": 25,
                "duration": 0.1113636,
                "tempo": 120.0
            },
            {
                "start_time": 41.9659091,
                "end_time": 42.0795455,
                "pitch": 50,
                "velocity": 25,
                "duration": 0.1136364,
                "tempo": 120.0
            },
            {
                "start_time": 42.1113636,
                "end_time": 42.225,
                "pitch": 55,
                "velocity": 25,
                "duration": 0.1136364,
                "tempo": 120.0
            },
            {
                "start_time": 42.2568182,
                "end_time": 42.3704545,
                "pitch": 55,
                "velocity": 25,
                "duration": 0.1136364,
                "tempo": 120.0
            },
            {
                "start_time": 42.4045455,
                "end_time": 42.525,
                "pitch": 55,
                "velocity": 25,
                "duration": 0.1204545,
                "tempo": 120.0
            },
            {
                "start_time": 42.5613636,
                "end_time": 42.6818182,
                "pitch": 55,
                "velocity": 25,
                "duration": 0.1204545,
                "tempo": 120.0
            },
            {
                "start_time": 42.7159091,
                "end_time": 42.8386364,
                "pitch": 55,
                "velocity": 25,
                "duration": 0.1227273,
                "tempo": 120.0
            },
            {
                "start_time": 42.8727273,
                "end_time": 42.9954545,
                "pitch": 55,
                "velocity": 25,
                "duration": 0.1227273,
                "tempo": 120.0
            },
            {
                "start_time": 43.0272727,
                "end_time": 43.1454545,
                "pitch": 55,
                "velocity": 25,
                "duration": 0.1181818,
                "tempo": 120.0
            },
            {
                "start_time": 43.1772727,
                "end_time": 43.2954545,
                "pitch": 55,
                "velocity": 25,
                "duration": 0.1181818,
                "tempo": 120.0
            },
            {
                "start_time": 43.3272727,
                "end_time": 43.4454545,
                "pitch": 48,
                "velocity": 25,
                "duration": 0.1181818,
                "tempo": 120.0
            },
            {
                "start_time": 43.4772727,
                "end_time": 43.5954545,
                "pitch": 55,
                "velocity": 25,
                "duration": 0.1181818,
                "tempo": 120.0
            },
            {
                "start_time": 43.6272727,
                "end_time": 43.7454545,
                "pitch": 48,
                "velocity": 25,
                "duration": 0.1181818,
                "tempo": 120.0
            },
            {
                "start_time": 43.7795455,
                "end_time": 43.8977273,
                "pitch": 55,
                "velocity": 25,
                "duration": 0.1181818,
                "tempo": 120.0
            },
            {
                "start_time": 43.9318182,
                "end_time": 44.05,
                "pitch": 48,
                "velocity": 25,
                "duration": 0.1181818,
                "tempo": 120.0
            },
            {
                "start_time": 44.0818182,
                "end_time": 44.2,
                "pitch": 55,
                "velocity": 25,
                "duration": 0.1181818,
                "tempo": 120.0
            },
            {
                "start_time": 44.2340909,
                "end_time": 44.3522727,
                "pitch": 48,
                "velocity": 25,
                "duration": 0.1181818,
                "tempo": 120.0
            },
            {
                "start_time": 44.3863636,
                "end_time": 44.5045455,
                "pitch": 55,
                "velocity": 25,
                "duration": 0.1181818,
                "tempo": 120.0
            }
        ]
    }
}