{
    "mood": "angry",
    "instruments": {
        "Clarinet": [
            {
                "start_time": 10.65,
                "end_time": 10.7545455,
                "pitch": 79,
                "velocity": 51,
                "duration": 0.1045455,
                "tempo": 120.0
            },
            {
                "start_time": 10.7704545,
                "end_time": 10.8659091,
                "pitch": 75,
                "velocity": 51,
                "duration": 0.0954545,
                "tempo": 120.0
            },
            {
                "start_time": 10.9,
                "end_time": 10.9954545,
                "pitch": 84,
                "velocity": 51,
                "duration": 0.0954545,
                "tempo": 120.0
            },
            {
                "start_time": 11.0113636,
                "end_time": 11.1068182,
                "pitch": 79,
                "velocity": 51,
                "duration": 0.0954545,
                "tempo": 120.0
            },
            {
                "start_time": 11.1227273,
                "end_time": 11.2204545,
                "pitch": 75,
                "velocity": 51,
                "duration": 0.0977273,
                "tempo": 120.0
            },
            {
                "start_time": 11.2363636,
                "end_time": 11.4545455,
                "pitch": 63,
                "velocity": 51,
                "duration": 0.2181818,
                "tempo": 120.0
            },
            {
                "start_time": 11.4886364,
                "end_time": 11.5886364,
                "pitch": 84,
                "velocity": 51,
                "duration": 0.1,
                "tempo": 120.0
            },
            {
                "start_time": 11.6045455,
                "end_time": 11.7068182,
                "pitch": 79,
                "velocity": 51,
                "duration": 0.1022727,
                "tempo": 120.0
            },
            {
                "start_time": 11.7227273,
                "end_time": 11.825,
                "pitch": 75,
                "velocity": 51,
                "duration": 0.1022727,
                "tempo": 120.0
            },
            {
                "start_time": 11.8409091,
                "end_time": 11.9409091,
                "pitch": 84,
                "velocity": 51,
                "duration": 0.1,
                "tempo": 120.0
            },
            {
                "start_time": 11.9590909,
                "end_time": 12.0590909,
                "pitch": 79,
                "velocity": 51,
                "duration": 0.1,
                "tempo": 120.0
            },
            {
                "start_time": 12.0931818,
                "end_time": 12.1931818,
                "pitch": 75,
                "velocity": 51,
                "duration": 0.1,
                "tempo": 120.0
            },
            {
                "start_time": 12.2090909,
                "end_time": 12.4272727,
                "pitch": 63,
                "velocity": 51,
                "duration": 0.2181818,
                "tempo": 120.0
            },
            {
                "start_time": 12.4431818,
                "end_time": 13.2886364,
                "pitch": 60,
                "velocity": 51,
                "duration": 0.8454545,
                "tempo": 120.0
            },
            {
                "start_time": 14.1340909,
                "end_time": 14.3568182,
                "pitch": 75,
                "velocity": 51,
                "duration": 0.2227273,
                "tempo": 120.0
            },
            {
                "start_time": 14.3727273,
                "end_time": 14.9568182,
                "pitch": 77,
                "velocity": 51,
                "duration": 0.5840909,
                "tempo": 120.0
            },
            {
                "start_time": 14.9727273,
                "end_time": 15.0727273,
                "pitch": 76,
                "velocity": 51,
                "duration": 0.1,
                "tempo": 120.0
            },
            {
                "start_time": 15.1045455,
                "end_time": 15.2022727,
                "pitch": 76,
                "velocity": 51,
                "duration": 0.0977273,
                "tempo": 120.0
            },
            {
                "start_time": 15.2204545,
                "end_time": 15.3181818,
                "pitch": 73,
                "velocity": 51,
                "duration": 0.0977273,
                "tempo": 120.0
            },
            {
                "start_time": 15.35,
                "end_time": 15.9181818,
                "pitch": 73,
                "velocity": 51,
                "duration": 0.5681818,
                "tempo": 120.0
            },
            {
                "start_time": 15.95,
                "end_time": 16.0340909,
                "pitch": 76,
                "velocity": 51,
                "duration": 0.0840909,
                "tempo": 120.0
            },
            {
                "start_time": 16.0522727,
                "end_time": 16.1522727,
                "pitch": 76,
                "velocity": 51,
                "duration": 0.1,
                "tempo": 120.0
            },
            {
                "start_time": 16.1704545,
                "end_time": 16.2704545,
                "pitch": 73,
                "velocity": 51,
                "duration": 0.1,
                "tempo": 120.0
            },
            {
                "start_time": 16.3045455,
                "end_time": 17.2522727,
                "pitch": 73,
                "velocity": 51,
                "duration": 0.9477273,
                "tempo": 120.0
            },
            {
                "start_time": 18.2318182,
                "end_time": 18.8204545,
                "pitch": 73,
                "velocity": 51,
                "duration": 0.5886364,
                "tempo": 120.0
            },
            {
                "start_time": 18.8363636,
                "end_time": 18.9386364,
                "pitch": 76,
                "velocity": 51,
                "duration": 0.1022727,
                "tempo": 120.0
            },
            {
                "start_time": 18.9545455,
                "end_time": 19.0545455,
                "pitch": 76,
                "velocity": 51,
                "duration": 0.1,
                "tempo": 120.0
            },
            {
                "start_time": 19.0727273,
                "end_time": 19.1727273,
                "pitch": 73,
                "velocity": 51,
                "duration": 0.1,
                "tempo": 120.0
            },
            {
                "start_time": 19.1909091,
                "end_time": 19.7840909,
                "pitch": 73,
                "velocity": 51,
                "duration": 0.5931818,
                "tempo": 120.0
            },
            {
                "start_time": 19.8,
                "end_time": 19.9022727,
                "pitch": 76,
                "velocity": 51,
                "duration": 0.1022727,
                "tempo": 120.0
            },
            {
                "start_time": 19.9363636,
                "end_time": 20.0340909,
                "pitch": 76,
                "velocity": 51,
                "duration": 0.0977273,
                "tempo": 120.0
            },
            {
                "start_time": 20.05,
                "end_time": 20.15,
                "pitch": 73,
                "velocity": 51,
                "duration": 0.1,
                "tempo": 120.0
            },
            {
                "start_time": 20.1659091,
                "end_time": 21.05,
                "pitch": 73,
                "velocity": 51,
                "duration": 0.8840909,
                "tempo": 120.0
            }
        ],
        "Acoustic Grand Piano": [
            {
                "start_time": 0.0,
                "end_time": 0.1659091,
                "pitch": 36,
                "velocity": 51,
                "duration": 0.1659091,
                "tempo": 120.0
            },
            {
                "start_time": 0.1818182,
                "end_time": 0.2818182,
                "pitch": 48,
                "velocity": 51,
                "duration": 0.1,
                "tempo": 120.0
            },
            {
                "start_time": 0.3,
                "end_time": 0.4,
                "pitch": 36,
                "velocity": 51,
                "duration": 0.1,
                "tempo": 120.0
            },
            {
                "start_time": 0.4159091,
                "end_time": 0.6363636,
                "pitch": 36,
                "velocity": 51,
                "duration": 0.2204545,
                "tempo": 120.0
            },
            {
                "start_time": 0.6681818,
                "end_time": 0.8909091,
                "pitch": 48,
                "velocity": 51,
                "duration": 0.2227273,
                "tempo": 120.0
            },
            {
                "start_time": 0.9090909,
                "end_time": 1.1295455,
                "pitch": 36,
                "velocity": 51,
                "duration": 0.2204545,
                "tempo": 120.0
            },
            {
                "start_time": 1.1477273,
                "end_time": 1.2454545,
                "pitch": 48,
                "velocity": 51,
                "duration": 0.0977273,
                "tempo": 120.0
            },
            {
                "start_time": 1.2772727,
                "end_time": 1.3772727,
                "pitch": 36,
                "velocity": 51,
                "duration": 0.1,
                "tempo": 120.0
            },
            {
                "start_time": 1.3931818,
                "end_time": 1.6068182,
                "pitch": 36,
                "velocity": 51,
                "duration": 0.2136364,
                "tempo": 120.0
            },
            {
                "start_time": 1.6227273,
                "end_time": 1.8386364,
                "pitch": 48,
                "velocity": 51,
                "duration": 0.2159091,
                "tempo": 120.0
            },
            {
                "start_time": 1.8727273,
                "end_time": 2.0886364,
                "pitch": 36,
                "velocity": 51,
                "duration": 0.2159091,
                "tempo": 120.0
            },
            {
                "start_time": 2.1068182,
                "end_time": 2.2045455,
                "pitch": 48,
                "velocity": 51,
                "duration": 0.0977273,
                "tempo": 120.0
            },
            {
                "start_time": 2.2204545,
                "end_time": 2.5659091,
                "pitch": 43,
                "velocity": 51,
                "duration": 0.3454545,
                "tempo": 120.0
            },
            {
                "start_time": 2.5818182,
                "end_time": 2.7977273,
                "pitch": 46,
                "velocity": 51,
                "duration": 0.2159091,
                "tempo": 120.0
            },
            {
                "start_time": 2.8159091,
                "end_time": 3.0318182,
                "pitch": 48,
                "velocity": 51,
                "duration": 0.2159091,
                "tempo": 120.0
            },
            {
                "start_time": 3.0659091,
                "end_time": 3.1681818,
                "pitch": 48,
                "velocity": 51,
                "duration": 0.1022727,
                "tempo": 120.0
            },
            {
                "start_time": 3.1863636,
                "end_time": 3.5340909,
                "pitch": 43,
                "velocity": 51,
                "duration": 0.3477273,
                "tempo": 120.0
            },
            {
                "start_time": 3.55,
                "end_time": 3.775,
                "pitch": 46,
                "velocity": 51,
                "duration": 0.225,
                "tempo": 120.0
            },
            {
                "start_time": 3.7909091,
                "end_time": 4.0,
                "pitch": 48,
                "velocity": 51,
                "duration": 0.2090909,
                "tempo": 120.0
            },
            {
                "start_time": 4.0159091,
                "end_time": 4.1181818,
                "pitch": 44,
                "velocity": 51,
                "duration": 0.1022727,
                "tempo": 120.0
            },
            {
                "start_time": 4.1363636,
                "end_time": 4.5,
                "pitch": 43,
                "velocity": 51,
                "duration": 0.3636364,
                "tempo": 120.0
            },
            {
                "start_time": 4.5159091,
                "end_time": 4.725,
                "pitch": 46,
                "velocity": 51,
                "duration": 0.2090909,
                "tempo": 120.0
            },
            {
                "start_time": 4.7409091,
                "end_time": 4.9340909,
                "pitch": 48,
                "velocity": 51,
                "duration": 0.1931818,
                "tempo": 120.0
            },
            {
                "start_time": 4.9659091,
                "end_time": 5.0840909,
                "pitch": 48,
                "velocity": 51,
                "duration": 0.1181818,
                "tempo": 120.0
            },
            {
                "start_time": 5.1,
                "end_time": 5.4181818,
                "pitch": 43,
                "velocity": 51,
                "duration": 0.3181818,
                "tempo": 120.0
            },
            {
                "start_time": 5.4363636,
                "end_time": 5.6886364,
                "pitch": 46,
                "velocity": 51,
                "duration": 0.2522727,
                "tempo": 120.0
            },
            {
                "start_time": 5.7045455,
                "end_time": 5.9227273,
                "pitch": 36,
                "velocity": 51,
                "duration": 0.2181818,
                "tempo": 120.0
            },
            {
                "start_time": 5.9409091,
                "end_time": 6.0409091,
                "pitch": 48,
                "velocity": 51,
                "duration": 0.1,
                "tempo": 120.0
            },
            {
                "start_time": 6.0727273,
                "end_time": 6.1727273,
                "pitch": 36,
                "velocity": 51,
                "duration": 0.1,
                "tempo": 120.0
            },
            {
                "start_time": 6.1909091,
                "end_time": 6.4068182,
                "pitch": 36,
                "velocity": 51,
                "duration": 0.2159091,
                "tempo": 120.0
            },
            {
                "start_time": 6.4227273,
                "end_time": 6.6454545,
                "pitch": 48,
                "velocity": 51,
                "duration": 0.2227273,
                "tempo": 120.0
            },
            {
                "start_time": 6.6795455,
                "end_time": 6.9022727,
                "pitch": 36,
                "velocity": 51,
                "duration": 0.2227273,
                "tempo": 120.0
            },
            {
                "start_time": 6.9181818,
                "end_time": 7.0159091,
                "pitch": 48,
                "velocity": 51,
                "duration": 0.0977273,
                "tempo": 120.0
            },
            {
                "start_time": 7.0318182,
                "end_time": 7.3772727,
                "pitch": 43,
                "velocity": 51,
                "duration": 0.3454545,
                "tempo": 120.0
            },
            {
                "start_time": 7.3931818,
                "end_time": 7.6113636,
                "pitch": 46,
                "velocity": 51,
                "duration": 0.2181818,
                "tempo": 120.0
            },
            {
                "start_time": 7.6295455,
                "end_time": 7.8477273,
                "pitch": 48,
                "velocity": 51,
                "duration": 0.2181818,
                "tempo": 120.0
            },
            {
                "start_time": 7.8818182,
                "end_time": 7.9863636,
                "pitch": 48,
                "velocity": 51,
                "duration": 0.1045455,
                "tempo": 120.0
            },
            {
                "start_time": 8.0022727,
                "end_time": 8.35,
                "pitch": 43,
                "velocity": 51,
                "duration": 0.3477273,
                "tempo": 120.0
            },
            {
                "start_time": 8.3659091,
                "end_time": 8.5909091,
                "pitch": 46,
                "velocity": 51,
                "duration": 0.225,
                "tempo": 120.0
            },
            {
                "start_time": 8.6068182,
                "end_time": 8.8159091,
                "pitch": 48,
                "velocity": 51,
                "duration": 0.2090909,
                "tempo": 120.0
            },
            {
                "start_time": 8.8318182,
                "end_time": 8.9340909,
                "pitch": 44,
                "velocity": 51,
                "duration": 0.1022727,
                "tempo": 120.0
            },
            {
                "start_time": 8.9522727,
                "end_time": 9.3159091,
                "pitch": 43,
                "velocity": 51,
                "duration": 0.3636364,
                "tempo": 120.0
            },
            {
                "start_time": 9.3340909,
                "end_time": 9.5522727,
                "pitch": 46,
                "velocity": 51,
                "duration": 0.2181818,
                "tempo": 120.0
            },
            {
                "start_time": 9.5704545,
                "end_time": 9.8045455,
                "pitch": 48,
                "velocity": 51,
                "duration": 0.2340909,
                "tempo": 120.0
            },
            {
                "start_time": 9.8204545,
                "end_time": 9.9159091,
                "pitch": 48,
                "velocity": 51,
                "duration": 0.0954545,
                "tempo": 120.0
            },
            {
                "start_time": 9.9318182,
                "end_time": 10.2522727,
                "pitch": 43,
                "velocity": 51,
                "duration": 0.3204545,
                "tempo": 120.0
            },
            {
                "start_time": 10.2863636,
                "end_time": 10.5113636,
                "pitch": 46,
                "velocity": 51,
                "duration": 0.225,
                "tempo": 120.0
            },
            {
                "start_time": 10.5272727,
                "end_time": 10.6318182,
                "pitch": 44,
                "velocity": 51,
                "duration": 0.1045455,
                "tempo": 120.0
            },
            {
                "start_time": 10.65,
                "end_time": 10.7545455,
                "pitch": 48,
                "velocity": 51,
                "duration": 0.1045455,
                "tempo": 120.0
            },
            {
                "start_time": 10.7704545,
                "end_time": 10.8659091,
                "pitch": 44,
                "velocity": 51,
                "duration": 0.0954545,
                "tempo": 120.0
            },
            {
                "start_time": 10.9,
                "end_time": 10.9954545,
                "pitch": 48,
                "velocity": 51,
                "duration": 0.0954545,
                "tempo": 120.0
            },
            {
                "start_time": 11.0113636,
                "end_time": 11.1068182,
                "pitch": 44,
                "velocity": 51,
                "duration": 0.0954545,
                "tempo": 120.0
            },
            {
                "start_time": 11.1227273,
                "end_time": 11.2204545,
                "pitch": 48,
                "velocity": 51,
                "duration": 0.0977273,
                "tempo": 120.0
            },
            {
                "start_time": 11.2363636,
                "end_time": 11.3363636,
                "pitch": 44,
                "velocity": 51,
                "duration": 0.1,
                "tempo": 120.0
            },
            {
                "start_time": 11.3545455,
                "end_time": 11.4545455,
                "pitch": 48,
                "velocity": 51,
                "duration": 0.1,
                "tempo": 120.0
            },
            {
                "start_time": 11.4886364,
                "end_time": 11.5886364,
                "pitch": 46,
                "velocity": 51,
                "duration": 0.1,
                "tempo": 120.0
            },
            {
                "start_time": 11.6045455,
                "end_time": 11.7068182,
                "pitch": 50,
                "velocity": 51,
                "duration": 0.1022727,
                "tempo": 120.0
            },
            {
                "start_time": 11.7227273,
                "end_time": 11.825,
                "pitch": 46,
                "velocity": 51,
                "duration": 0.1022727,
                "tempo": 120.0
            },
            {
                "start_time": 11.8409091,
                "end_time": 11.9409091,
                "pitch": 50,
                "velocity": 51,
                "duration": 0.1,
                "tempo": 120.0
            },
            {
                "start_time": 11.9590909,
                "end_time": 12.0590909,
                "pitch": 46,
                "velocity": 51,
                "duration": 0.1,
                "tempo": 120.0
            },
            {
                "start_time": 12.0931818,
                "end_time": 12.1931818,
                "pitch": 50,
                "velocity": 51,
                "duration": 0.1,
                "tempo": 120.0
            },
            {
                "start_time": 12.2090909,
                "end_time": 12.3090909,
                "pitch": 46,
                "velocity": 51,
                "duration": 0.1,
                "tempo": 120.0
            },
            {
                "start_time": 12.3272727,
                "end_time": 12.4272727,
                "pitch": 50,
                "velocity": 51,
                "duration": 0.1,
                "tempo": 120.0
            },
            {
                "start_time": 12.4431818,
                "end_time": 12.6590909,
                "pitch": 48,
                "velocity": 51,
                "duration": 0.2159091,
                "tempo": 120.0
            },
            {
                "start_time": 12.6931818,
                "end_time": 12.9068182,
                "pitch": 48,
                "velocity": 51,
                "duration": 0.2136364,
                "tempo": 120.0
            },
            {
                "start_time": 12.9227273,
                "end_time": 13.1363636,
                "pitch": 48,
                "velocity": 51,
                "duration": 0.2136364,
                "tempo": 120.0
            },
            {
                "start_time": 13.1522727,
                "end_time": 13.3909091,
                "pitch": 48,
                "velocity": 51,
                "duration": 0.2386364,
                "tempo": 120.0
            },
            {
                "start_time": 13.4090909,
                "end_time": 13.6295455,
                "pitch": 48,
                "velocity": 51,
                "duration": 0.2204545,
                "tempo": 120.0
            },
            {
                "start_time": 13.6477273,
                "end_time": 13.8659091,
                "pitch": 48,
                "velocity": 51,
                "duration": 0.2181818,
                "tempo": 120.0
            },
            {
                "start_time": 13.9,
                "end_time": 14.1181818,
                "pitch": 48,
                "velocity": 51,
                "duration": 0.2181818,
                "tempo": 120.0
            },
            {
                "start_time": 14.1340909,
                "end_time": 14.3568182,
                "pitch": 48,
                "velocity": 51,
                "duration": 0.2227273,
                "tempo": 120.0
            },
            {
                "start_time": 14.3727273,
                "end_time": 14.4772727,
                "pitch": 43,
                "velocity": 51,
                "duration": 0.1045455,
                "tempo": 120.0
            },
            {
                "start_time": 14.5113636,
                "end_time": 14.6136364,
                "pitch": 55,
                "velocity": 51,
                "duration": 0.1022727,
                "tempo": 120.0
            },
            {
                "start_time": 14.6295455,
                "end_time": 14.7272727,
                "pitch": 55,
                "velocity": 51,
                "duration": 0.0977273,
                "tempo": 120.0
            },
            {
                "start_time": 14.7431818,
                "end_time": 14.8590909,
                "pitch": 55,
                "velocity": 51,
                "duration": 0.1159091,
                "tempo": 120.0
            },
            {
                "start_time": 14.8590909,
                "end_time": 14.9568182,
                "pitch": 43,
                "velocity": 51,
                "duration": 0.0977273,
                "tempo": 120.0
            },
            {
                "start_time": 14.9727273,
                "end_time": 15.0727273,
                "pitch": 55,
                "velocity": 51,
                "duration": 0.1,
                "tempo": 120.0
            },
            {
                "start_time": 15.1045455,
                "end_time": 15.2022727,
                "pitch": 55,
                "velocity": 51,
                "duration": 0.0977273,
                "tempo": 120.0
            },
            {
                "start_time": 15.2204545,
                "end_time": 15.3181818,
                "pitch": 55,
                "velocity": 51,
                "duration": 0.0977273,
                "tempo": 120.0
            },
            {
                "start_time": 15.35,
                "end_time": 15.4340909,
                "pitch": 43,
                "velocity": 51,
                "duration": 0.0840909,
                "tempo": 120.0
            },
            {
                "start_time": 15.45,
                "end_time": 15.5477273,
                "pitch": 55,
                "velocity": 51,
                "duration": 0.0977273,
                "tempo": 120.0
            },
            {
                "start_time": 15.5818182,
                "end_time": 15.6659091,
                "pitch": 55,
                "velocity": 51,
                "duration": 0.0840909,
                "tempo": 120.0
            },
            {
                "start_time": 15.7,
                "end_time": 15.8,
                "pitch": 55,
                "velocity": 51,
                "duration": 0.1,
                "tempo": 120.0
            },
            {
                "start_time": 15.8159091,
                "end_time": 15.9181818,
                "pitch": 43,
                "velocity": 51,
                "duration": 0.1022727,
                "tempo": 120.0
            },
            {
                "start_time": 15.95,
                "end_time": 16.0340909,
                "pitch": 55,
                "velocity": 51,
                "duration": 0.0840909,
                "tempo": 120.0
            },
            {
                "start_time": 16.0522727,
                "end_time": 16.1522727,
                "pitch": 55,
                "velocity": 51,
                "duration": 0.1,
                "tempo": 120.0
            },
            {
                "start_time": 16.1704545,
                "end_time": 16.2704545,
                "pitch": 55,
                "velocity": 51,
                "duration": 0.1,
                "tempo": 120.0
            },
            {
                "start_time": 16.3045455,
                "end_time": 16.4045455,
                "pitch": 41,
                "velocity": 51,
                "duration": 0.1,
                "tempo": 120.0
            },
            {
                "start_time": 16.4204545,
                "end_time": 16.5227273,
                "pitch": 53,
                "velocity": 51,
                "duration": 0.1022727,
                "tempo": 120.0
            },
            {
                "start_time": 16.5386364,
                "end_time": 16.6409091,
                "pitch": 53,
                "velocity": 51,
                "duration": 0.1022727,
                "tempo": 120.0
            },
            {
                "start_time": 16.6590909,
                "end_time": 16.7613636,
                "pitch": 53,
                "velocity": 51,
                "duration": 0.1022727,
                "tempo": 120.0
            },
            {
                "start_time": 16.7772727,
                "end_time": 16.8818182,
                "pitch": 41,
                "velocity": 51,
                "duration": 0.1045455,
                "tempo": 120.0
            },
            {
                "start_time": 16.9159091,
                "end_time": 17.0181818,
                "pitch": 53,
                "velocity": 51,
                "duration": 0.1022727,
                "tempo": 120.0
            },
            {
                "start_time": 17.0340909,
                "end_time": 17.1340909,
                "pitch": 53,
                "velocity": 51,
                "duration": 0.1,
                "tempo": 120.0
            },
            {
                "start_time": 17.1522727,
                "end_time": 17.2522727,
                "pitch": 53,
                "velocity": 51,
                "duration": 0.1,
                "tempo": 120.0
            },
            {
                "start_time": 17.2704545,
                "end_time": 17.3704545,
                "pitch": 41,
                "velocity": 51,
                "duration": 0.1,
                "tempo": 120.0
            },
            {
                "start_time": 17.3863636,
                "end_time": 17.4886364,
                "pitch": 53,
                "velocity": 51,
                "duration": 0.1022727,
                "tempo": 120.0
            },
            {
                "start_time": 17.5204545,
                "end_time": 17.6181818,
                "pitch": 53,
                "velocity": 51,
                "duration": 0.0977273,
                "tempo": 120.0
            },
            {
                "start_time": 17.6363636,
                "end_time": 17.7340909,
                "pitch": 53,
                "velocity": 51,
                "duration": 0.0977273,
                "tempo": 120.0
            },
            {
                "start_time": 17.75,
                "end_time": 17.8477273,
                "pitch": 41,
                "velocity": 51,
                "duration": 0.0977273,
                "tempo": 120.0
            },
            {
                "start_time": 17.8659091,
                "end_time": 17.9636364,
                "pitch": 53,
                "velocity": 51,
                "duration": 0.0977273,
                "tempo": 120.0
            },
            {
                "start_time": 17.9795455,
                "end_time": 18.0818182,
                "pitch": 53,
                "velocity": 51,
                "duration": 0.1022727,
                "tempo": 120.0
            },
            {
                "start_time": 18.1136364,
                "end_time": 18.2159091,
                "pitch": 53,
                "velocity": 51,
                "duration": 0.1022727,
                "tempo": 120.0
            },
            {
                "start_time": 18.2318182,
                "end_time": 18.3340909,
                "pitch": 37,
                "velocity": 51,
                "duration": 0.1022727,
                "tempo": 120.0
            },
            {
                "start_time": 18.35,
                "end_time": 18.45,
                "pitch": 49,
                "velocity": 51,
                "duration": 0.1,
                "tempo": 120.0
            },
            {
                "start_time": 18.4681818,
                "end_time": 18.5681818,
                "pitch": 49,
                "velocity": 51,
                "duration": 0.1,
                "tempo": 120.0
            },
            {
                "start_time": 18.5840909,
                "end_time": 18.6863636,
                "pitch": 49,
                "velocity": 51,
                "duration": 0.1022727,
                "tempo": 120.0
            },
            {
                "start_time": 18.7204545,
                "end_time": 18.8204545,
                "pitch": 37,
                "velocity": 51,
                "duration": 0.1,
                "tempo": 120.0
            },
            {
                "start_time": 18.8363636,
                "end_time": 18.9386364,
                "pitch": 49,
                "velocity": 51,
                "duration": 0.1022727,
                "tempo": 120.0
            },
            {
                "start_time": 18.9545455,
                "end_time": 19.0545455,
                "pitch": 49,
                "velocity": 51,
                "duration": 0.1,
                "tempo": 120.0
            },
            {
                "start_time": 19.0727273,
                "end_time": 19.1727273,
                "pitch": 49,
                "velocity": 51,
                "duration": 0.1,
                "tempo": 120.0
            },
            {
                "start_time": 19.1909091,
                "end_time": 19.2909091,
                "pitch": 37,
                "velocity": 51,
                "duration": 0.1,
                "tempo": 120.0
            },
            {
                "start_time": 19.325,
                "end_time": 19.425,
                "pitch": 49,
                "velocity": 51,
                "duration": 0.1,
                "tempo": 120.0
            },
            {
                "start_time": 19.4431818,
                "end_time": 19.5454545,
                "pitch": 49,
                "velocity": 51,
                "duration": 0.1022727,
                "tempo": 120.0
            },
            {
                "start_time": 19.5613636,
                "end_time": 19.6636364,
                "pitch": 49,
                "velocity": 51,
                "duration": 0.1022727,
                "tempo": 120.0
            },
            {
                "start_time": 19.6818182,
                "end_time": 19.7840909,
                "pitch": 37,
                "velocity": 51,
                "duration": 0.1022727,
                "tempo": 120.0
            },
            {
                "start_time": 19.8,
                "end_time": 19.9022727,
                "pitch": 49,
                "velocity": 51,
                "duration": 0.1022727,
                "tempo": 120.0
            },
            {
                "start_time": 19.9363636,
                "end_time": 20.0340909,
                "pitch": 49,
                "velocity": 51,
                "duration": 0.0977273,
                "tempo": 120.0
            },
            {
                "start_time": 20.05,
                "end_time": 20.15,
                "pitch": 49,
                "velocity": 51,
                "duration": 0.1,
                "tempo": 120.0
            },
            {
                "start_time": 20.1659091,
                "end_time": 20.2636364,
                "pitch": 37,
                "velocity": 51,
                "duration": 0.0977273,
                "tempo": 120.0
            },
            {
                "start_time": 20.2795455,
                "end_time": 20.3795455,
                "pitch": 49,
                "velocity": 51,
                "duration": 0.1,
                "tempo": 120.0
            },
            {
                "start_time": 20.3954545,
                "end_time": 20.4954545,
                "pitch": 49,
                "velocity": 51,
                "duration": 0.1,
                "tempo": 120.0
            },
            {
                "start_time": 20.5295455,
                "end_time": 20.6318182,
                "pitch": 49,
                "velocity": 51,
                "duration": 0.1022727,
                "tempo": 120.0
            },
            {
                "start_time": 20.6477273,
                "end_time": 20.7477273,
                "pitch": 37,
                "velocity": 51,
                "duration": 0.1,
                "tempo": 120.0
            },
            {
                "start_time": 20.7659091,
                "end_time": 20.8659091,
                "pitch": 49,
                "velocity": 51,
                "duration": 0.1,
                "tempo": 120.0
            },
            {
                "start_time": 20.8818182,
                "end_time": 20.9818182,
                "pitch": 49,
                "velocity": 51,
                "duration": 0.1,
                "tempo": 120.0
            },
            {
                "start_time": 21.0,
                "end_time": 21.1,
                "pitch": 49,
                "velocity": 51,
                "duration": 0.1,
                "tempo": 120.0
            },
            {
                "start_time": 21.1318182,
                "end_time": 21.2318182,
                "pitch": 36,
                "velocity": 51,
                "duration": 0.1,
                "tempo": 120.0
            },
            {
                "start_time": 21.25,
                "end_time": 21.35,
                "pitch": 48,
                "velocity": 51,
                "duration": 0.1,
                "tempo": 120.0
            },
            {
                "start_time": 21.3659091,
                "end_time": 21.4681818,
                "pitch": 48,
                "velocity": 51,
                "duration": 0.1022727,
                "tempo": 120.0
            },
            {
                "start_time": 21.4863636,
                "end_time": 21.5886364,
                "pitch": 48,
                "velocity": 51,
                "duration": 0.1022727,
                "tempo": 120.0
            },
            {
                "start_time": 21.6045455,
                "end_time": 21.7068182,
                "pitch": 36,
                "velocity": 51,
                "duration": 0.1022727,
                "tempo": 120.0
            },
            {
                "start_time": 21.7409091,
                "end_time": 21.8454545,
                "pitch": 48,
                "velocity": 51,
                "duration": 0.1045455,
                "tempo": 120.0
            },
            {
                "start_time": 21.8613636,
                "end_time": 21.9613636,
                "pitch": 48,
                "velocity": 51,
                "duration": 0.1,
                "tempo": 120.0
            },
            {
                "start_time": 21.9795455,
                "end_time": 22.0795455,
                "pitch": 48,
                "velocity": 51,
                "duration": 0.1,
                "tempo": 120.0
            },
            {
                "start_time": 22.0954545,
                "end_time": 22.1977273,
                "pitch": 36,
                "velocity": 51,
                "duration": 0.1022727,
                "tempo": 120.0
            },
            {
                "start_time": 22.2136364,
                "end_time": 22.3159091,
                "pitch": 36,
                "velocity": 51,
                "duration": 0.1022727,
                "tempo": 120.0
            },
            {
                "start_time": 22.3477273,
                "end_time": 22.45,
                "pitch": 36,
                "velocity": 51,
                "duration": 0.1022727,
                "tempo": 120.0
            },
            {
                "start_time": 22.4659091,
                "end_time": 22.5659091,
                "pitch": 36,
                "velocity": 51,
                "duration": 0.1,
                "tempo": 120.0
            },
            {
                "start_time": 22.5840909,
                "end_time": 22.6840909,
                "pitch": 32,
                "velocity": 51,
                "duration": 0.1,
                "tempo": 120.0
            },
            {
                "start_time": 22.7022727,
                "end_time": 22.8022727,
                "pitch": 32,
                "velocity": 51,
                "duration": 0.1,
                "tempo": 120.0
            },
            {
                "start_time": 22.8181818,
                "end_time": 22.9204545,
                "pitch": 32,
                "velocity": 51,
                "duration": 0.1022727,
                "tempo": 120.0
            },
            {
                "start_time": 22.9522727,
                "end_time": 23.0545455,
                "pitch": 32,
                "velocity": 51,
                "duration": 0.1022727,
                "tempo": 120.0
            },
            {
                "start_time": 23.0704545,
                "end_time": 23.1727273,
                "pitch": 31,
                "velocity": 51,
                "duration": 0.1022727,
                "tempo": 120.0
            },
            {
                "start_time": 23.1886364,
                "end_time": 23.2886364,
                "pitch": 31,
                "velocity": 51,
                "duration": 0.1,
                "tempo": 120.0
            },
            {
                "start_time": 23.3045455,
                "end_time": 23.4045455,
                "pitch": 31,
                "velocity": 51,
                "duration": 0.1,
                "tempo": 120.0
            },
            {
                "start_time": 23.4204545,
                "end_time": 23.5181818,
                "pitch": 31,
                "velocity": 51,
                "duration": 0.0977273,
                "tempo": 120.0
            },
            {
                "start_time": 23.5522727,
                "end_time": 23.65,
                "pitch": 32,
                "velocity": 51,
                "duration": 0.0977273,
                "tempo": 120.0
            },
            {
                "start_time": 23.6659091,
                "end_time": 23.7659091,
                "pitch": 32,
                "velocity": 51,
                "duration": 0.1,
                "tempo": 120.0
            },
            {
                "start_time": 23.7818182,
                "end_time": 23.8840909,
                "pitch": 32,
                "velocity": 51,
                "duration": 0.1022727,
                "tempo": 120.0
            },
            {
                "start_time": 23.9022727,
                "end_time": 24.0045455,
                "pitch": 32,
                "velocity": 51,
                "duration": 0.1022727,
                "tempo": 120.0
            },
            {
                "start_time": 24.0204545,
                "end_time": 24.1227273,
                "pitch": 36,
                "velocity": 51,
                "duration": 0.1022727,
                "tempo": 120.0
            },
            {
                "start_time": 24.1568182,
                "end_time": 24.2590909,
                "pitch": 36,
                "velocity": 51,
                "duration": 0.1022727,
                "tempo": 120.0
            },
            {
                "start_time": 24.2772727,
                "end_time": 24.3772727,
                "pitch": 36,
                "velocity": 51,
                "duration": 0.1,
                "tempo": 120.0
            },
            {
                "start_time": 24.3931818,
                "end_time": 24.4954545,
                "pitch": 36,
                "velocity": 51,
                "duration": 0.1022727,
                "tempo": 120.0
            },
            {
                "start_time": 24.5113636,
                "end_time": 24.6136364,
                "pitch": 32,
                "velocity": 51,
                "duration": 0.1022727,
                "tempo": 120.0
            },
            {
                "start_time": 24.6295455,
                "end_time": 24.7295455,
                "pitch": 32,
                "velocity": 51,
                "duration": 0.1,
                "tempo": 120.0
            },
            {
                "start_time": 24.7636364,
                "end_time": 24.8659091,
                "pitch": 32,
                "velocity": 51,
                "duration": 0.1022727,
                "tempo": 120.0
            },
            {
                "start_time": 24.8840909,
                "end_time": 24.9863636,
                "pitch": 32,
                "velocity": 51,
                "duration": 0.1022727,
                "tempo": 120.0
            },
            {
                "start_time": 25.0022727,
                "end_time": 25.1045455,
                "pitch": 36,
                "velocity": 51,
                "duration": 0.1022727,
                "tempo": 120.0
            },
            {
                "start_time": 25.1227273,
                "end_time": 25.225,
                "pitch": 36,
                "velocity": 51,
                "duration": 0.1022727,
                "tempo": 120.0
            },
            {
                "start_time": 25.2409091,
                "end_time": 25.3363636,
                "pitch": 36,
                "velocity": 51,
                "duration": 0.0954545,
                "tempo": 120.0
            },
            {
                "start_time": 25.3681818,
                "end_time": 25.4659091,
                "pitch": 36,
                "velocity": 51,
                "duration": 0.0977273,
                "tempo": 120.0
            },
            {
                "start_time": 25.4818182,
                "end_time": 25.5772727,
                "pitch": 36,
                "velocity": 51,
                "duration": 0.0954545,
                "tempo": 120.0
            },
            {
                "start_time": 25.5931818,
                "end_time": 25.6886364,
                "pitch": 36,
                "velocity": 51,
                "duration": 0.0954545,
                "tempo": 120.0
            },
            {
                "start_time": 25.7068182,
                "end_time": 25.8090909,
                "pitch": 36,
                "velocity": 51,
                "duration": 0.1022727,
                "tempo": 120.0
            },
            {
                "start_time": 25.825,
                "end_time": 25.9272727,
                "pitch": 36,
                "velocity": 51,
                "duration": 0.1022727,
                "tempo": 120.0
            },
            {
                "start_time": 25.9636364,
                "end_time": 26.1840909,
                "pitch": 36,
                "velocity": 51,
                "duration": 0.2204545,
                "tempo": 120.0
            },
            {
                "start_time": 26.2022727,
                "end_time": 26.3045455,
                "pitch": 48,
                "velocity": 51,
                "duration": 0.1022727,
                "tempo": 120.0
            },
            {
                "start_time": 26.3204545,
                "end_time": 26.4227273,
                "pitch": 36,
                "velocity": 51,
                "duration": 0.1022727,
                "tempo": 120.0
            },
            {
                "start_time": 26.4409091,
                "end_time": 26.6954545,
                "pitch": 36,
                "velocity": 51,
                "duration": 0.2545455,
                "tempo": 120.0
            }
        ],
        "Flute": [
            {
                "start_time": 1.8727273,
                "end_time": 2.0886364,
                "pitch": 72,
                "velocity": 51,
                "duration": 0.2159091,
                "tempo": 120.0
            },
            {
                "start_time": 2.1068182,
                "end_time": 2.2045455,
                "pitch": 72,
                "velocity": 51,
                "duration": 0.0977273,
                "tempo": 120.0
            },
            {
                "start_time": 2.2204545,
                "end_time": 2.3181818,
                "pitch": 67,
                "velocity": 51,
                "duration": 0.0977273,
                "tempo": 120.0
            },
            {
                "start_time": 2.3363636,
                "end_time": 2.4340909,
                "pitch": 70,
                "velocity": 51,
                "duration": 0.0977273,
                "tempo": 120.0
            },
            {
                "start_time": 2.4659091,
                "end_time": 2.5659091,
                "pitch": 67,
                "velocity": 51,
                "duration": 0.1,
                "tempo": 120.0
            },
            {
                "start_time": 2.5818182,
                "end_time": 2.6818182,
                "pitch": 70,
                "velocity": 51,
                "duration": 0.1,
                "tempo": 120.0
            },
            {
                "start_time": 2.6977273,
                "end_time": 2.7977273,
                "pitch": 67,
                "velocity": 51,
                "duration": 0.1,
                "tempo": 120.0
            },
            {
                "start_time": 2.8159091,
                "end_time": 3.0318182,
                "pitch": 72,
                "velocity": 51,
                "duration": 0.2159091,
                "tempo": 120.0
            },
            {
                "start_time": 3.0659091,
                "end_time": 3.1681818,
                "pitch": 72,
                "velocity": 51,
                "duration": 0.1022727,
                "tempo": 120.0
            },
            {
                "start_time": 3.1863636,
                "end_time": 3.2909091,
                "pitch": 67,
                "velocity": 51,
                "duration": 0.1045455,
                "tempo": 120.0
            },
            {
                "start_time": 3.3090909,
                "end_time": 3.4113636,
                "pitch": 70,
                "velocity": 51,
                "duration": 0.1022727,
                "tempo": 120.0
            },
            {
                "start_time": 3.4295455,
                "end_time": 3.5340909,
                "pitch": 67,
                "velocity": 51,
                "duration": 0.1045455,
                "tempo": 120.0
            },
            {
                "start_time": 3.55,
                "end_time": 3.6477273,
                "pitch": 70,
                "velocity": 51,
                "duration": 0.0977273,
                "tempo": 120.0
            },
            {
                "start_time": 3.6795455,
                "end_time": 3.775,
                "pitch": 67,
                "velocity": 51,
                "duration": 0.0954545,
                "tempo": 120.0
            },
            {
                "start_time": 3.7909091,
                "end_time": 4.0,
                "pitch": 72,
                "velocity": 51,
                "duration": 0.2090909,
                "tempo": 120.0
            },
            {
                "start_time": 4.0159091,
                "end_time": 4.1181818,
                "pitch": 72,
                "velocity": 51,
                "duration": 0.1022727,
                "tempo": 120.0
            },
            {
                "start_time": 4.1363636,
                "end_time": 4.2409091,
                "pitch": 67,
                "velocity": 51,
                "duration": 0.1045455,
                "tempo": 120.0
            },
            {
                "start_time": 4.275,
                "end_time": 4.3795455,
                "pitch": 70,
                "velocity": 51,
                "duration": 0.1045455,
                "tempo": 120.0
            },
            {
                "start_time": 4.3954545,
                "end_time": 4.4840909,
                "pitch": 67,
                "velocity": 51,
                "duration": 0.0886364,
                "tempo": 120.0
            },
            {
                "start_time": 4.5,
                "end_time": 4.6136364,
                "pitch": 70,
                "velocity": 51,
                "duration": 0.1136364,
                "tempo": 120.0
            },
            {
                "start_time": 4.6295455,
                "end_time": 4.725,
                "pitch": 67,
                "velocity": 51,
                "duration": 0.0954545,
                "tempo": 120.0
            },
            {
                "start_time": 4.7409091,
                "end_time": 5.4863636,
                "pitch": 72,
                "velocity": 51,
                "duration": 0.7454545,
                "tempo": 120.0
            },
            {
                "start_time": 6.6795455,
                "end_time": 6.9022727,
                "pitch": 72,
                "velocity": 51,
                "duration": 0.2227273,
                "tempo": 120.0
            },
            {
                "start_time": 6.9181818,
                "end_time": 7.0159091,
                "pitch": 72,
                "velocity": 51,
                "duration": 0.0977273,
                "tempo": 120.0
            },
            {
                "start_time": 7.0318182,
                "end_time": 7.1318182,
                "pitch": 67,
                "velocity": 51,
                "duration": 0.1,
                "tempo": 120.0
            },
            {
                "start_time": 7.1477273,
                "end_time": 7.2454545,
                "pitch": 70,
                "velocity": 51,
                "duration": 0.0977273,
                "tempo": 120.0
            },
            {
                "start_time": 7.2795455,
                "end_time": 7.3772727,
                "pitch": 67,
                "velocity": 51,
                "duration": 0.0977273,
                "tempo": 120.0
            },
            {
                "start_time": 7.3931818,
                "end_time": 7.4954545,
                "pitch": 70,
                "velocity": 51,
                "duration": 0.1022727,
                "tempo": 120.0
            },
            {
                "start_time": 7.5113636,
                "end_time": 7.6113636,
                "pitch": 67,
                "velocity": 51,
                "duration": 0.1,
                "tempo": 120.0
            },
            {
                "start_time": 7.6295455,
                "end_time": 7.8477273,
                "pitch": 72,
                "velocity": 51,
                "duration": 0.2181818,
                "tempo": 120.0
            },
            {
                "start_time": 7.8818182,
                "end_time": 7.9863636,
                "pitch": 72,
                "velocity": 51,
                "duration": 0.1045455,
                "tempo": 120.0
            },
            {
                "start_time": 8.0022727,
                "end_time": 8.1068182,
                "pitch": 67,
                "velocity": 51,
                "duration": 0.1045455,
                "tempo": 120.0
            },
            {
                "start_time": 8.125,
                "end_time": 8.2272727,
                "pitch": 70,
                "velocity": 51,
                "duration": 0.1022727,
                "tempo": 120.0
            },
            {
                "start_time": 8.2454545,
                "end_time": 8.35,
                "pitch": 67,
                "velocity": 51,
                "duration": 0.1045455,
                "tempo": 120.0
            },
            {
                "start_time": 8.3659091,
                "end_time": 8.4636364,
                "pitch": 70,
                "velocity": 51,
                "duration": 0.0977273,
                "tempo": 120.0
            },
            {
                "start_time": 8.4954545,
                "end_time": 8.5909091,
                "pitch": 67,
                "velocity": 51,
                "duration": 0.0954545,
                "tempo": 120.0
            },
            {
                "start_time": 8.6068182,
                "end_time": 8.8159091,
                "pitch": 72,
                "velocity": 51,
                "duration": 0.2090909,
                "tempo": 120.0
            },
            {
                "start_time": 8.8318182,
                "end_time": 8.9340909,
                "pitch": 72,
                "velocity": 51,
                "duration": 0.1022727,
                "tempo": 120.0
            },
            {
                "start_time": 8.9522727,
                "end_time": 9.0568182,
                "pitch": 67,
                "velocity": 51,
                "duration": 0.1045455,
                "tempo": 120.0
            },
            {
                "start_time": 9.0909091,
                "end_time": 9.1613636,
                "pitch": 70,
                "velocity": 51,
                "duration": 0.0704545,
                "tempo": 120.0
            },
            {
                "start_time": 9.1954545,
                "end_time": 9.3,
                "pitch": 70,
                "velocity": 51,
                "duration": 0.1045455,
                "tempo": 120.0
            },
            {
                "start_time": 9.3159091,
                "end_time": 9.4181818,
                "pitch": 70,
                "velocity": 51,
                "duration": 0.1022727,
                "tempo": 120.0
            },
            {
                "start_time": 9.4340909,
                "end_time": 9.5522727,
                "pitch": 67,
                "velocity": 51,
                "duration": 0.1181818,
                "tempo": 120.0
            },
            {
                "start_time": 9.5704545,
                "end_time": 10.5113636,
                "pitch": 72,
                "velocity": 51,
                "duration": 0.9409091,
                "tempo": 120.0
            },
            {
                "start_time": 10.5272727,
                "end_time": 22.5659091,
                "pitch": 84,
                "velocity": 51,
                "duration": 12.0386364,
                "tempo": 120.0
            },
            {
                "start_time": 22.5840909,
                "end_time": 23.0545455,
                "pitch": 56,
                "velocity": 51,
                "duration": 0.4704545,
                "tempo": 120.0
            },
            {
                "start_time": 23.0704545,
                "end_time": 23.5181818,
                "pitch": 55,
                "velocity": 51,
                "duration": 0.4477273,
                "tempo": 120.0
            },
            {
                "start_time": 23.5522727,
                "end_time": 24.0045455,
                "pitch": 56,
                "velocity": 51,
                "duration": 0.4522727,
                "tempo": 120.0
            },
            {
                "start_time": 24.0204545,
                "end_time": 24.4954545,
                "pitch": 60,
                "velocity": 51,
                "duration": 0.475,
                "tempo": 120.0
            },
            {
                "start_time": 24.5113636,
                "end_time": 24.9863636,
                "pitch": 55,
                "velocity": 51,
                "duration": 0.475,
                "tempo": 120.0
            },
            {
                "start_time": 25.0022727,
                "end_time": 25.225,
                "pitch": 60,
                "velocity": 51,
                "duration": 0.2227273,
                "tempo": 120.0
            },
            {
                "start_time": 25.2409091,
                "end_time": 25.3363636,
                "pitch": 60,
                "velocity": 51,
                "duration": 0.0954545,
                "tempo": 120.0
            },
            {
                "start_time": 25.3681818,
                "end_time": 25.6886364,
                "pitch": 55,
                "velocity": 51,
                "duration": 0.3204545,
                "tempo": 120.0
            },
            {
                "start_time": 25.7068182,
                "end_time": 25.9272727,
                "pitch": 58,
                "velocity": 51,
                "duration": 0.2204545,
                "tempo": 120.0
            }
        ]
    }
}