{
    "mood": "angry",
    "instruments": {
        "Lead 2 (sawtooth)": [
            {
                "start_time": 0.0,
                "end_time": 0.0772727,
                "pitch": 63,
                "velocity": 80,
                "duration": 0.0772727,
                "tempo": 120.0
            },
            {
                "start_time": 0.0931818,
                "end_time": 0.1704545,
                "pitch": 63,
                "velocity": 80,
                "duration": 0.0772727,
                "tempo": 120.0
            },
            {
                "start_time": 0.1863636,
                "end_time": 0.2863636,
                "pitch": 66,
                "velocity": 80,
                "duration": 0.1,
                "tempo": 120.0
            },
            {
                "start_time": 0.3022727,
                "end_time": 0.3863636,
                "pitch": 70,
                "velocity": 80,
                "duration": 0.0840909,
                "tempo": 120.0
            },
            {
                "start_time": 0.4045455,
                "end_time": 0.6045455,
                "pitch": 73,
                "velocity": 80,
                "duration": 0.2,
                "tempo": 120.0
            },
            {
                "start_time": 0.6204545,
                "end_time": 0.7068182,
                "pitch": 63,
                "velocity": 80,
                "duration": 0.0863636,
                "tempo": 120.0
            },
            {
                "start_time": 0.7227273,
                "end_time": 0.9295455,
                "pitch": 73,
                "velocity": 80,
                "duration": 0.2068182,
                "tempo": 120.0
            },
            {
                "start_time": 0.9454545,
                "end_time": 1.0477273,
                "pitch": 63,
                "velocity": 80,
                "duration": 0.1022727,
                "tempo": 120.0
            },
            {
                "start_time": 1.0659091,
                "end_time": 1.2659091,
                "pitch": 73,
                "velocity": 80,
                "duration": 0.2,
                "tempo": 120.0
            },
            {
                "start_time": 1.2840909,
                "end_time": 1.4681818,
                "pitch": 72,
                "velocity": 80,
                "duration": 0.1840909,
                "tempo": 120.0
            },
            {
                "start_time": 1.4840909,
                "end_time": 1.6818182,
                "pitch": 66,
                "velocity": 80,
                "duration": 0.1977273,
                "tempo": 120.0
            },
            {
                "start_time": 1.6977273,
                "end_time": 1.7954545,
                "pitch": 63,
                "velocity": 80,
                "duration": 0.0977273,
                "tempo": 120.0
            },
            {
                "start_time": 1.8113636,
                "end_time": 1.8931818,
                "pitch": 63,
                "velocity": 80,
                "duration": 0.0818182,
                "tempo": 120.0
            },
            {
                "start_time": 1.9090909,
                "end_time": 2.0113636,
                "pitch": 66,
                "velocity": 80,
                "duration": 0.1022727,
                "tempo": 120.0
            },
            {
                "start_time": 2.0272727,
                "end_time": 2.1113636,
                "pitch": 70,
                "velocity": 80,
                "duration": 0.0840909,
                "tempo": 120.0
            },
            {
                "start_time": 2.1272727,
                "end_time": 2.3272727,
                "pitch": 73,
                "velocity": 80,
                "duration": 0.2,
                "tempo": 120.0
            },
            {
                "start_time": 2.3454545,
                "end_time": 2.4295455,
                "pitch": 63,
                "velocity": 80,
                "duration": 0.0840909,
                "tempo": 120.0
            },
            {
                "start_time": 2.4454545,
                "end_time": 2.6454545,
                "pitch": 73,
                "velocity": 80,
                "duration": 0.2,
                "tempo": 120.0
            },
            {
                "start_time": 2.6636364,
                "end_time": 2.7636364,
                "pitch": 72,
                "velocity": 80,
                "duration": 0.1,
                "tempo": 120.0
            },
            {
                "start_time": 2.7795455,
                "end_time": 2.8659091,
                "pitch": 73,
                "velocity": 80,
                "duration": 0.0863636,
                "tempo": 120.0
            },
            {
                "start_time": 2.8818182,
                "end_time": 2.9681818,
                "pitch": 74,
                "velocity": 80,
                "duration": 0.0863636,
                "tempo": 120.0
            },
            {
                "start_time": 2.9863636,
                "end_time": 3.0886364,
                "pitch": 75,
                "velocity": 80,
                "duration": 0.1022727,
                "tempo": 120.0
            },
            {
                "start_time": 3.4136364,
                "end_time": 3.5113636,
                "pitch": 63,
                "velocity": 80,
                "duration": 0.0977273,
                "tempo": 120.0
            },
            {
                "start_time": 3.5272727,
                "end_time": 3.6068182,
                "pitch": 63,
                "velocity": 80,
                "duration": 0.0795455,
                "tempo": 120.0
            },
            {
                "start_time": 3.6227273,
                "end_time": 3.7068182,
                "pitch": 66,
                "velocity": 80,
                "duration": 0.0840909,
                "tempo": 120.0
            },
            {
                "start_time": 3.725,
                "end_time": 3.8272727,
                "pitch": 70,
                "velocity": 80,
                "duration": 0.1022727,
                "tempo": 120.0
            },
            {
                "start_time": 3.8431818,
                "end_time": 4.05,
                "pitch": 73,
                "velocity": 80,
                "duration": 0.2068182,
                "tempo": 120.0
            },
            {
                "start_time": 4.0659091,
                "end_time": 4.15,
                "pitch": 63,
                "velocity": 80,
                "duration": 0.0840909,
                "tempo": 120.0
            },
            {
                "start_time": 4.1659091,
                "end_time": 4.3681818,
                "pitch": 73,
                "velocity": 80,
                "duration": 0.2022727,
                "tempo": 120.0
            },
            {
                "start_time": 4.3840909,
                "end_time": 4.4681818,
                "pitch": 63,
                "velocity": 80,
                "duration": 0.0840909,
                "tempo": 120.0
            },
            {
                "start_time": 4.4840909,
                "end_time": 4.6818182,
                "pitch": 73,
                "velocity": 80,
                "duration": 0.1977273,
                "tempo": 120.0
            },
            {
                "start_time": 4.6977273,
                "end_time": 4.8931818,
                "pitch": 72,
                "velocity": 80,
                "duration": 0.1954545,
                "tempo": 120.0
            },
            {
                "start_time": 4.9113636,
                "end_time": 5.1113636,
                "pitch": 66,
                "velocity": 80,
                "duration": 0.2,
                "tempo": 120.0
            },
            {
                "start_time": 5.1272727,
                "end_time": 5.2113636,
                "pitch": 63,
                "velocity": 80,
                "duration": 0.0840909,
                "tempo": 120.0
            },
            {
                "start_time": 5.2272727,
                "end_time": 5.3295455,
                "pitch": 63,
                "velocity": 80,
                "duration": 0.1022727,
                "tempo": 120.0
            },
            {
                "start_time": 5.3454545,
                "end_time": 5.4295455,
                "pitch": 66,
                "velocity": 80,
                "duration": 0.0840909,
                "tempo": 120.0
            },
            {
                "start_time": 5.4454545,
                "end_time": 5.5454545,
                "pitch": 70,
                "velocity": 80,
                "duration": 0.1,
                "tempo": 120.0
            },
            {
                "start_time": 5.5636364,
                "end_time": 5.7636364,
                "pitch": 73,
                "velocity": 80,
                "duration": 0.2,
                "tempo": 120.0
            },
            {
                "start_time": 5.7795455,
                "end_time": 5.8659091,
                "pitch": 63,
                "velocity": 80,
                "duration": 0.0863636,
                "tempo": 120.0
            },
            {
                "start_time": 5.8818182,
                "end_time": 6.0886364,
                "pitch": 73,
                "velocity": 80,
                "duration": 0.2068182,
                "tempo": 120.0
            },
            {
                "start_time": 6.1045455,
                "end_time": 6.1909091,
                "pitch": 72,
                "velocity": 80,
                "duration": 0.0863636,
                "tempo": 120.0
            },
            {
                "start_time": 6.2068182,
                "end_time": 6.3045455,
                "pitch": 73,
                "velocity": 80,
                "duration": 0.0977273,
                "tempo": 120.0
            },
            {
                "start_time": 6.3204545,
                "end_time": 6.4,
                "pitch": 74,
                "velocity": 80,
                "duration": 0.0795455,
                "tempo": 120.0
            },
            {
                "start_time": 6.4159091,
                "end_time": 6.5113636,
                "pitch": 75,
                "velocity": 80,
                "duration": 0.0954545,
                "tempo": 120.0
            },
            {
                "start_time": 6.8431818,
                "end_time": 6.9295455,
                "pitch": 63,
                "velocity": 80,
                "duration": 0.0863636,
                "tempo": 120.0
            },
            {
                "start_time": 6.9477273,
                "end_time": 7.05,
                "pitch": 63,
                "velocity": 80,
                "duration": 0.1022727,
                "tempo": 120.0
            },
            {
                "start_time": 7.0659091,
                "end_time": 7.15,
                "pitch": 66,
                "velocity": 80,
                "duration": 0.0840909,
                "tempo": 120.0
            },
            {
                "start_time": 7.1659091,
                "end_time": 7.2681818,
                "pitch": 70,
                "velocity": 80,
                "duration": 0.1022727,
                "tempo": 120.0
            },
            {
                "start_time": 7.2840909,
                "end_time": 7.4681818,
                "pitch": 73,
                "velocity": 80,
                "duration": 0.1840909,
                "tempo": 120.0
            },
            {
                "start_time": 7.4840909,
                "end_time": 7.5840909,
                "pitch": 63,
                "velocity": 80,
                "duration": 0.1,
                "tempo": 120.0
            },
            {
                "start_time": 7.6,
                "end_time": 7.7954545,
                "pitch": 73,
                "velocity": 80,
                "duration": 0.1954545,
                "tempo": 120.0
            },
            {
                "start_time": 7.8113636,
                "end_time": 7.8954545,
                "pitch": 63,
                "velocity": 80,
                "duration": 0.0840909,
                "tempo": 120.0
            },
            {
                "start_time": 7.9113636,
                "end_time": 8.1113636,
                "pitch": 73,
                "velocity": 80,
                "duration": 0.2,
                "tempo": 120.0
            },
            {
                "start_time": 8.1272727,
                "end_time": 8.3295455,
                "pitch": 72,
                "velocity": 80,
                "duration": 0.2022727,
                "tempo": 120.0
            },
            {
                "start_time": 8.3454545,
                "end_time": 8.55,
                "pitch": 66,
                "velocity": 80,
                "duration": 0.2045455,
                "tempo": 120.0
            },
            {
                "start_time": 8.5681818,
                "end_time": 8.6522727,
                "pitch": 63,
                "velocity": 80,
                "duration": 0.0840909,
                "tempo": 120.0
            },
            {
                "start_time": 8.6704545,
                "end_time": 8.7727273,
                "pitch": 63,
                "velocity": 80,
                "duration": 0.1022727,
                "tempo": 120.0
            },
            {
                "start_time": 8.7909091,
                "end_time": 8.875,
                "pitch": 66,
                "velocity": 80,
                "duration": 0.0840909,
                "tempo": 120.0
            },
            {
                "start_time": 8.8909091,
                "end_time": 8.975,
                "pitch": 70,
                "velocity": 80,
                "duration": 0.0840909,
                "tempo": 120.0
            },
            {
                "start_time": 8.9909091,
                "end_time": 9.1909091,
                "pitch": 73,
                "velocity": 80,
                "duration": 0.2,
                "tempo": 120.0
            },
            {
                "start_time": 9.2090909,
                "end_time": 9.3045455,
                "pitch": 63,
                "velocity": 80,
                "duration": 0.0954545,
                "tempo": 120.0
            },
            {
                "start_time": 9.3204545,
                "end_time": 9.5113636,
                "pitch": 73,
                "velocity": 80,
                "duration": 0.1909091,
                "tempo": 120.0
            },
            {
                "start_time": 9.5272727,
                "end_time": 9.6068182,
                "pitch": 72,
                "velocity": 80,
                "duration": 0.0795455,
                "tempo": 120.0
            },
            {
                "start_time": 9.6227273,
                "end_time": 9.7068182,
                "pitch": 73,
                "velocity": 80,
                "duration": 0.0840909,
                "tempo": 120.0
            },
            {
                "start_time": 9.725,
                "end_time": 9.8272727,
                "pitch": 74,
                "velocity": 80,
                "duration": 0.1022727,
                "tempo": 120.0
            },
            {
                "start_time": 9.8454545,
                "end_time": 9.9295455,
                "pitch": 75,
                "velocity": 80,
                "duration": 0.0840909,
                "tempo": 120.0
            },
            {
                "start_time": 10.2840909,
                "end_time": 10.3681818,
                "pitch": 63,
                "velocity": 80,
                "duration": 0.0840909,
                "tempo": 120.0
            },
            {
                "start_time": 10.3840909,
                "end_time": 10.4681818,
                "pitch": 63,
                "velocity": 80,
                "duration": 0.0840909,
                "tempo": 120.0
            },
            {
                "start_time": 10.4863636,
                "end_time": 10.5840909,
                "pitch": 66,
                "velocity": 80,
                "duration": 0.0977273,
                "tempo": 120.0
            },
            {
                "start_time": 10.6,
                "end_time": 10.6818182,
                "pitch": 70,
                "velocity": 80,
                "duration": 0.0818182,
                "tempo": 120.0
            },
            {
                "start_time": 10.6977273,
                "end_time": 10.8954545,
                "pitch": 73,
                "velocity": 80,
                "duration": 0.1977273,
                "tempo": 120.0
            },
            {
                "start_time": 10.9113636,
                "end_time": 11.0113636,
                "pitch": 63,
                "velocity": 80,
                "duration": 0.1,
                "tempo": 120.0
            },
            {
                "start_time": 11.0295455,
                "end_time": 11.2136364,
                "pitch": 73,
                "velocity": 80,
                "duration": 0.1840909,
                "tempo": 120.0
            },
            {
                "start_time": 11.2295455,
                "end_time": 11.3295455,
                "pitch": 63,
                "velocity": 80,
                "duration": 0.1,
                "tempo": 120.0
            },
            {
                "start_time": 11.3454545,
                "end_time": 11.5477273,
                "pitch": 73,
                "velocity": 80,
                "duration": 0.2022727,
                "tempo": 120.0
            },
            {
                "start_time": 11.5636364,
                "end_time": 11.7659091,
                "pitch": 72,
                "velocity": 80,
                "duration": 0.2022727,
                "tempo": 120.0
            },
            {
                "start_time": 11.7818182,
                "end_time": 11.9704545,
                "pitch": 66,
                "velocity": 80,
                "duration": 0.1886364,
                "tempo": 120.0
            },
            {
                "start_time": 11.9863636,
                "end_time": 12.0886364,
                "pitch": 63,
                "velocity": 80,
                "duration": 0.1022727,
                "tempo": 120.0
            },
            {
                "start_time": 12.1068182,
                "end_time": 12.1909091,
                "pitch": 63,
                "velocity": 80,
                "duration": 0.0840909,
                "tempo": 120.0
            },
            {
                "start_time": 12.2090909,
                "end_time": 12.3045455,
                "pitch": 66,
                "velocity": 80,
                "duration": 0.0954545,
                "tempo": 120.0
            },
            {
                "start_time": 12.3204545,
                "end_time": 12.4,
                "pitch": 70,
                "velocity": 80,
                "duration": 0.0795455,
                "tempo": 120.0
            },
            {
                "start_time": 12.4159091,
                "end_time": 12.5113636,
                "pitch": 73,
                "velocity": 80,
                "duration": 0.0954545,
                "tempo": 120.0
            },
            {
                "start_time": 12.5272727,
                "end_time": 12.6409091,
                "pitch": 63,
                "velocity": 80,
                "duration": 0.1136364,
                "tempo": 120.0
            },
            {
                "start_time": 12.725,
                "end_time": 12.8272727,
                "pitch": 72,
                "velocity": 80,
                "duration": 0.1022727,
                "tempo": 120.0
            },
            {
                "start_time": 12.8454545,
                "end_time": 12.9659091,
                "pitch": 63,
                "velocity": 80,
                "duration": 0.1204545,
                "tempo": 120.0
            },
            {
                "start_time": 13.0681818,
                "end_time": 13.1522727,
                "pitch": 71,
                "velocity": 80,
                "duration": 0.0840909,
                "tempo": 120.0
            },
            {
                "start_time": 13.1681818,
                "end_time": 13.2681818,
                "pitch": 66,
                "velocity": 80,
                "duration": 0.1,
                "tempo": 120.0
            },
            {
                "start_time": 13.2840909,
                "end_time": 13.3681818,
                "pitch": 70,
                "velocity": 80,
                "duration": 0.0840909,
                "tempo": 120.0
            },
            {
                "start_time": 13.3863636,
                "end_time": 13.4681818,
                "pitch": 66,
                "velocity": 80,
                "duration": 0.0818182,
                "tempo": 120.0
            },
            {
                "start_time": 13.6931818,
                "end_time": 13.7886364,
                "pitch": 63,
                "velocity": 80,
                "duration": 0.0954545,
                "tempo": 120.0
            },
            {
                "start_time": 13.8045455,
                "end_time": 13.8840909,
                "pitch": 63,
                "velocity": 80,
                "duration": 0.0795455,
                "tempo": 120.0
            },
            {
                "start_time": 13.9,
                "end_time": 14.0022727,
                "pitch": 66,
                "velocity": 80,
                "duration": 0.1022727,
                "tempo": 120.0
            },
            {
                "start_time": 14.0204545,
                "end_time": 14.1045455,
                "pitch": 70,
                "velocity": 80,
                "duration": 0.0840909,
                "tempo": 120.0
            },
            {
                "start_time": 14.1227273,
                "end_time": 14.3272727,
                "pitch": 73,
                "velocity": 80,
                "duration": 0.2045455,
                "tempo": 120.0
            },
            {
                "start_time": 14.3431818,
                "end_time": 14.4272727,
                "pitch": 63,
                "velocity": 80,
                "duration": 0.0840909,
                "tempo": 120.0
            },
            {
                "start_time": 14.4454545,
                "end_time": 14.6454545,
                "pitch": 73,
                "velocity": 80,
                "duration": 0.2,
                "tempo": 120.0
            },
            {
                "start_time": 14.6613636,
                "end_time": 14.7636364,
                "pitch": 63,
                "velocity": 80,
                "duration": 0.1022727,
                "tempo": 120.0
            },
            {
                "start_time": 14.7795455,
                "end_time": 14.9636364,
                "pitch": 73,
                "velocity": 80,
                "duration": 0.1840909,
                "tempo": 120.0
            },
            {
                "start_time": 14.9795455,
                "end_time": 15.1818182,
                "pitch": 72,
                "velocity": 80,
                "duration": 0.2022727,
                "tempo": 120.0
            },
            {
                "start_time": 15.1977273,
                "end_time": 15.3977273,
                "pitch": 66,
                "velocity": 80,
                "duration": 0.2,
                "tempo": 120.0
            },
            {
                "start_time": 15.4159091,
                "end_time": 15.5159091,
                "pitch": 63,
                "velocity": 80,
                "duration": 0.1,
                "tempo": 120.0
            },
            {
                "start_time": 15.5318182,
                "end_time": 15.6159091,
                "pitch": 63,
                "velocity": 80,
                "duration": 0.0840909,
                "tempo": 120.0
            },
            {
                "start_time": 15.6318182,
                "end_time": 15.7159091,
                "pitch": 66,
                "velocity": 80,
                "duration": 0.0840909,
                "tempo": 120.0
            },
            {
                "start_time": 15.7340909,
                "end_time": 15.8340909,
                "pitch": 70,
                "velocity": 80,
                "duration": 0.1,
                "tempo": 120.0
            },
            {
                "start_time": 15.85,
                "end_time": 16.05,
                "pitch": 73,
                "velocity": 80,
                "duration": 0.2,
                "tempo": 120.0
            },
            {
                "start_time": 16.0681818,
                "end_time": 16.1522727,
                "pitch": 63,
                "velocity": 80,
                "duration": 0.0840909,
                "tempo": 120.0
            },
            {
                "start_time": 16.1681818,
                "end_time": 16.3681818,
                "pitch": 73,
                "velocity": 80,
                "duration": 0.2,
                "tempo": 120.0
            },
            {
                "start_time": 16.3863636,
                "end_time": 16.4704545,
                "pitch": 72,
                "velocity": 80,
                "duration": 0.0840909,
                "tempo": 120.0
            },
            {
                "start_time": 16.4863636,
                "end_time": 16.5840909,
                "pitch": 73,
                "velocity": 80,
                "duration": 0.0977273,
                "tempo": 120.0
            },
            {
                "start_time": 16.6,
                "end_time": 16.6818182,
                "pitch": 74,
                "velocity": 80,
                "duration": 0.0818182,
                "tempo": 120.0
            },
            {
                "start_time": 16.7,
                "end_time": 16.7977273,
                "pitch": 75,
                "velocity": 80,
                "duration": 0.0977273,
                "tempo": 120.0
            },
            {
                "start_time": 17.1295455,
                "end_time": 17.2136364,
                "pitch": 63,
                "velocity": 80,
                "duration": 0.0840909,
                "tempo": 120.0
            },
            {
                "start_time": 17.2295455,
                "end_time": 17.3295455,
                "pitch": 63,
                "velocity": 80,
                "duration": 0.1,
                "tempo": 120.0
            },
            {
                "start_time": 17.3477273,
                "end_time": 17.4318182,
                "pitch": 66,
                "velocity": 80,
                "duration": 0.0840909,
                "tempo": 120.0
            },
            {
                "start_time": 17.4477273,
                "end_time": 17.5477273,
                "pitch": 70,
                "velocity": 80,
                "duration": 0.1,
                "tempo": 120.0
            },
            {
                "start_time": 17.5636364,
                "end_time": 17.7659091,
                "pitch": 73,
                "velocity": 80,
                "duration": 0.2022727,
                "tempo": 120.0
            },
            {
                "start_time": 17.7818182,
                "end_time": 17.8681818,
                "pitch": 63,
                "velocity": 80,
                "duration": 0.0863636,
                "tempo": 120.0
            },
            {
                "start_time": 17.8840909,
                "end_time": 18.0909091,
                "pitch": 73,
                "velocity": 80,
                "duration": 0.2068182,
                "tempo": 120.0
            },
            {
                "start_time": 18.1068182,
                "end_time": 18.1931818,
                "pitch": 63,
                "velocity": 80,
                "duration": 0.0863636,
                "tempo": 120.0
            },
            {
                "start_time": 18.2090909,
                "end_time": 18.4,
                "pitch": 73,
                "velocity": 80,
                "duration": 0.1909091,
                "tempo": 120.0
            },
            {
                "start_time": 18.4159091,
                "end_time": 18.6090909,
                "pitch": 72,
                "velocity": 80,
                "duration": 0.1931818,
                "tempo": 120.0
            },
            {
                "start_time": 18.625,
                "end_time": 18.8295455,
                "pitch": 66,
                "velocity": 80,
                "duration": 0.2045455,
                "tempo": 120.0
            },
            {
                "start_time": 18.8454545,
                "end_time": 18.9318182,
                "pitch": 63,
                "velocity": 80,
                "duration": 0.0863636,
                "tempo": 120.0
            },
            {
                "start_time": 18.9477273,
                "end_time": 19.05,
                "pitch": 63,
                "velocity": 80,
                "duration": 0.1022727,
                "tempo": 120.0
            },
            {
                "start_time": 19.0681818,
                "end_time": 19.1522727,
                "pitch": 66,
                "velocity": 80,
                "duration": 0.0840909,
                "tempo": 120.0
            },
            {
                "start_time": 19.1681818,
                "end_time": 19.2681818,
                "pitch": 70,
                "velocity": 80,
                "duration": 0.1,
                "tempo": 120.0
            },
            {
                "start_time": 19.2863636,
                "end_time": 19.4704545,
                "pitch": 73,
                "velocity": 80,
                "duration": 0.1840909,
                "tempo": 120.0
            },
            {
                "start_time": 19.4863636,
                "end_time": 19.5840909,
                "pitch": 63,
                "velocity": 80,
                "duration": 0.0977273,
                "tempo": 120.0
            },
            {
                "start_time": 19.6022727,
                "end_time": 19.7977273,
                "pitch": 73,
                "velocity": 80,
                "duration": 0.1954545,
                "tempo": 120.0
            },
            {
                "start_time": 19.8136364,
                "end_time": 19.8954545,
                "pitch": 72,
                "velocity": 80,
                "duration": 0.0818182,
                "tempo": 120.0
            },
            {
                "start_time": 19.9136364,
                "end_time": 20.0136364,
                "pitch": 73,
                "velocity": 80,
                "duration": 0.1,
                "tempo": 120.0
            },
            {
                "start_time": 20.0295455,
                "end_time": 20.1136364,
                "pitch": 74,
                "velocity": 80,
                "duration": 0.0840909,
                "tempo": 120.0
            },
            {
                "start_time": 20.1295455,
                "end_time": 20.2136364,
                "pitch": 75,
                "velocity": 80,
                "duration": 0.0840909,
                "tempo": 120.0
            },
            {
                "start_time": 20.5659091,
                "end_time": 20.6477273,
                "pitch": 63,
                "velocity": 80,
                "duration": 0.0818182,
                "tempo": 120.0
            },
            {
                "start_time": 20.6659091,
                "end_time": 20.7659091,
                "pitch": 63,
                "velocity": 80,
                "duration": 0.1,
                "tempo": 120.0
            },
            {
                "start_time": 20.7818182,
                "end_time": 20.8681818,
                "pitch": 66,
                "velocity": 80,
                "duration": 0.0863636,
                "tempo": 120.0
            },
            {
                "start_time": 20.8840909,
                "end_time": 20.9704545,
                "pitch": 70,
                "velocity": 80,
                "duration": 0.0863636,
                "tempo": 120.0
            },
            {
                "start_time": 20.9886364,
                "end_time": 21.1931818,
                "pitch": 73,
                "velocity": 80,
                "duration": 0.2045455,
                "tempo": 120.0
            },
            {
                "start_time": 21.2090909,
                "end_time": 21.3045455,
                "pitch": 63,
                "velocity": 80,
                "duration": 0.0954545,
                "tempo": 120.0
            },
            {
                "start_time": 21.3204545,
                "end_time": 21.5136364,
                "pitch": 73,
                "velocity": 80,
                "duration": 0.1931818,
                "tempo": 120.0
            },
            {
                "start_time": 21.5295455,
                "end_time": 21.6090909,
                "pitch": 63,
                "velocity": 80,
                "duration": 0.0795455,
                "tempo": 120.0
            },
            {
                "start_time": 21.625,
                "end_time": 21.8295455,
                "pitch": 73,
                "velocity": 80,
                "duration": 0.2045455,
                "tempo": 120.0
            },
            {
                "start_time": 21.8454545,
                "end_time": 22.0522727,
                "pitch": 72,
                "velocity": 80,
                "duration": 0.2068182,
                "tempo": 120.0
            },
            {
                "start_time": 22.0681818,
                "end_time": 22.2681818,
                "pitch": 66,
                "velocity": 80,
                "duration": 0.2,
                "tempo": 120.0
            },
            {
                "start_time": 22.2863636,
                "end_time": 22.3704545,
                "pitch": 63,
                "velocity": 80,
                "duration": 0.0840909,
                "tempo": 120.0
            },
            {
                "start_time": 22.3863636,
                "end_time": 22.4704545,
                "pitch": 63,
                "velocity": 80,
                "duration": 0.0840909,
                "tempo": 120.0
            },
            {
                "start_time": 22.4863636,
                "end_time": 22.5863636,
                "pitch": 66,
                "velocity": 80,
                "duration": 0.1,
                "tempo": 120.0
            },
            {
                "start_time": 22.6022727,
                "end_time": 22.6840909,
                "pitch": 70,
                "velocity": 80,
                "duration": 0.0818182,
                "tempo": 120.0
            },
            {
                "start_time": 22.7,
                "end_time": 22.8954545,
                "pitch": 73,
                "velocity": 80,
                "duration": 0.1954545,
                "tempo": 120.0
            },
            {
                "start_time": 22.9136364,
                "end_time": 23.0136364,
                "pitch": 63,
                "velocity": 80,
                "duration": 0.1,
                "tempo": 120.0
            },
            {
                "start_time": 23.0295455,
                "end_time": 23.2136364,
                "pitch": 73,
                "velocity": 80,
                "duration": 0.1840909,
                "tempo": 120.0
            },
            {
                "start_time": 23.2318182,
                "end_time": 23.3318182,
                "pitch": 72,
                "velocity": 80,
                "duration": 0.1,
                "tempo": 120.0
            },
            {
                "start_time": 23.3477273,
                "end_time": 23.4318182,
                "pitch": 73,
                "velocity": 80,
                "duration": 0.0840909,
                "tempo": 120.0
            },
            {
                "start_time": 23.4477273,
                "end_time": 23.5477273,
                "pitch": 74,
                "velocity": 80,
                "duration": 0.1,
                "tempo": 120.0
            },
            {
                "start_time": 23.5659091,
                "end_time": 23.65,
                "pitch": 75,
                "velocity": 80,
                "duration": 0.0840909,
                "tempo": 120.0
            },
            {
                "start_time": 23.9886364,
                "end_time": 24.0909091,
                "pitch": 63,
                "velocity": 80,
                "duration": 0.1022727,
                "tempo": 120.0
            },
            {
                "start_time": 24.1068182,
                "end_time": 24.1931818,
                "pitch": 63,
                "velocity": 80,
                "duration": 0.0863636,
                "tempo": 120.0
            },
            {
                "start_time": 24.2113636,
                "end_time": 24.3068182,
                "pitch": 66,
                "velocity": 80,
                "duration": 0.0954545,
                "tempo": 120.0
            },
            {
                "start_time": 24.3227273,
                "end_time": 24.4022727,
                "pitch": 70,
                "velocity": 80,
                "duration": 0.0795455,
                "tempo": 120.0
            },
            {
                "start_time": 24.4181818,
                "end_time": 24.6090909,
                "pitch": 73,
                "velocity": 80,
                "duration": 0.1909091,
                "tempo": 120.0
            },
            {
                "start_time": 24.625,
                "end_time": 24.7090909,
                "pitch": 63,
                "velocity": 80,
                "duration": 0.0840909,
                "tempo": 120.0
            },
            {
                "start_time": 24.7272727,
                "end_time": 24.9318182,
                "pitch": 73,
                "velocity": 80,
                "duration": 0.2045455,
                "tempo": 120.0
            },
            {
                "start_time": 24.95,
                "end_time": 25.0522727,
                "pitch": 63,
                "velocity": 80,
                "duration": 0.1022727,
                "tempo": 120.0
            },
            {
                "start_time": 25.0681818,
                "end_time": 25.2704545,
                "pitch": 73,
                "velocity": 80,
                "duration": 0.2022727,
                "tempo": 120.0
            },
            {
                "start_time": 25.2863636,
                "end_time": 25.4704545,
                "pitch": 72,
                "velocity": 80,
                "duration": 0.1840909,
                "tempo": 120.0
            },
            {
                "start_time": 25.4863636,
                "end_time": 25.6840909,
                "pitch": 66,
                "velocity": 80,
                "duration": 0.1977273,
                "tempo": 120.0
            },
            {
                "start_time": 25.7,
                "end_time": 25.7977273,
                "pitch": 63,
                "velocity": 80,
                "duration": 0.0977273,
                "tempo": 120.0
            },
            {
                "start_time": 25.8159091,
                "end_time": 25.8977273,
                "pitch": 63,
                "velocity": 80,
                "duration": 0.0818182,
                "tempo": 120.0
            },
            {
                "start_time": 25.9136364,
                "end_time": 26.0136364,
                "pitch": 66,
                "velocity": 80,
                "duration": 0.1,
                "tempo": 120.0
            },
            {
                "start_time": 26.0295455,
                "end_time": 26.1136364,
                "pitch": 70,
                "velocity": 80,
                "duration": 0.0840909,
                "tempo": 120.0
            },
            {
                "start_time": 26.1295455,
                "end_time": 26.2136364,
                "pitch": 73,
                "velocity": 80,
                "duration": 0.0840909,
                "tempo": 120.0
            },
            {
                "start_time": 26.2318182,
                "end_time": 26.3477273,
                "pitch": 63,
                "velocity": 80,
                "duration": 0.1159091,
                "tempo": 120.0
            },
            {
                "start_time": 26.4454545,
                "end_time": 26.5454545,
                "pitch": 72,
                "velocity": 80,
                "duration": 0.1,
                "tempo": 120.0
            },
            {
                "start_time": 26.5613636,
                "end_time": 26.675,
                "pitch": 63,
                "velocity": 80,
                "duration": 0.1136364,
                "tempo": 120.0
            },
            {
                "start_time": 26.775,
                "end_time": 26.8590909,
                "pitch": 71,
                "velocity": 80,
                "duration": 0.0840909,
                "tempo": 120.0
            },
            {
                "start_time": 26.8772727,
                "end_time": 26.9613636,
                "pitch": 66,
                "velocity": 80,
                "duration": 0.0840909,
                "tempo": 120.0
            },
            {
                "start_time": 26.9795455,
                "end_time": 27.0818182,
                "pitch": 70,
                "velocity": 80,
                "duration": 0.1022727,
                "tempo": 120.0
            },
            {
                "start_time": 27.1,
                "end_time": 27.1840909,
                "pitch": 66,
                "velocity": 80,
                "duration": 0.0840909,
                "tempo": 120.0
            },
            {
                "start_time": 27.4181818,
                "end_time": 27.7204545,
                "pitch": 68,
                "velocity": 80,
                "duration": 0.3022727,
                "tempo": 120.0
            },
            {
                "start_time": 27.7363636,
                "end_time": 27.8045455,
                "pitch": 66,
                "velocity": 80,
                "duration": 0.0681818,
                "tempo": 120.0
            },
            {
                "start_time": 28.3909091,
                "end_time": 28.4727273,
                "pitch": 63,
                "velocity": 80,
                "duration": 0.0818182,
                "tempo": 120.0
            },
            {
                "start_time": 28.4909091,
                "end_time": 28.5886364,
                "pitch": 68,
                "velocity": 80,
                "duration": 0.0977273,
                "tempo": 120.0
            },
            {
                "start_time": 28.6045455,
                "end_time": 28.6863636,
                "pitch": 66,
                "velocity": 80,
                "duration": 0.0818182,
                "tempo": 120.0
            },
            {
                "start_time": 28.7022727,
                "end_time": 28.8022727,
                "pitch": 73,
                "velocity": 80,
                "duration": 0.1,
                "tempo": 120.0
            },
            {
                "start_time": 28.8181818,
                "end_time": 28.9,
                "pitch": 71,
                "velocity": 80,
                "duration": 0.0818182,
                "tempo": 120.0
            },
            {
                "start_time": 28.9159091,
                "end_time": 29.0159091,
                "pitch": 70,
                "velocity": 80,
                "duration": 0.1,
                "tempo": 120.0
            },
            {
                "start_time": 29.0340909,
                "end_time": 29.1159091,
                "pitch": 66,
                "velocity": 80,
                "duration": 0.0818182,
                "tempo": 120.0
            },
            {
                "start_time": 29.1340909,
                "end_time": 29.4340909,
                "pitch": 68,
                "velocity": 80,
                "duration": 0.3,
                "tempo": 120.0
            },
            {
                "start_time": 29.4522727,
                "end_time": 29.5181818,
                "pitch": 66,
                "velocity": 80,
                "duration": 0.0659091,
                "tempo": 120.0
            },
            {
                "start_time": 29.7863636,
                "end_time": 30.0886364,
                "pitch": 63,
                "velocity": 80,
                "duration": 0.3022727,
                "tempo": 120.0
            },
            {
                "start_time": 30.1045455,
                "end_time": 30.1886364,
                "pitch": 68,
                "velocity": 80,
                "duration": 0.0840909,
                "tempo": 120.0
            },
            {
                "start_time": 30.2045455,
                "end_time": 30.3045455,
                "pitch": 70,
                "velocity": 80,
                "duration": 0.1,
                "tempo": 120.0
            },
            {
                "start_time": 30.3227273,
                "end_time": 30.4045455,
                "pitch": 63,
                "velocity": 80,
                "duration": 0.0818182,
                "tempo": 120.0
            },
            {
                "start_time": 30.4227273,
                "end_time": 30.5227273,
                "pitch": 71,
                "velocity": 80,
                "duration": 0.1,
                "tempo": 120.0
            },
            {
                "start_time": 30.5386364,
                "end_time": 30.6227273,
                "pitch": 68,
                "velocity": 80,
                "duration": 0.0840909,
                "tempo": 120.0
            },
            {
                "start_time": 30.6386364,
                "end_time": 30.7227273,
                "pitch": 73,
                "velocity": 80,
                "duration": 0.0840909,
                "tempo": 120.0
            },
            {
                "start_time": 30.7409091,
                "end_time": 30.8409091,
                "pitch": 70,
                "velocity": 80,
                "duration": 0.1,
                "tempo": 120.0
            },
            {
                "start_time": 30.8568182,
                "end_time": 31.0590909,
                "pitch": 77,
                "velocity": 80,
                "duration": 0.2022727,
                "tempo": 120.0
            },
            {
                "start_time": 31.075,
                "end_time": 31.125,
                "pitch": 75,
                "velocity": 80,
                "duration": 0.05,
                "tempo": 120.0
            },
            {
                "start_time": 31.8204545,
                "end_time": 32.0204545,
                "pitch": 77,
                "velocity": 80,
                "duration": 0.2,
                "tempo": 120.0
            },
            {
                "start_time": 32.0363636,
                "end_time": 32.0863636,
                "pitch": 75,
                "velocity": 80,
                "duration": 0.05,
                "tempo": 120.0
            },
            {
                "start_time": 32.7886364,
                "end_time": 32.8727273,
                "pitch": 77,
                "velocity": 80,
                "duration": 0.0840909,
                "tempo": 120.0
            },
            {
                "start_time": 32.8886364,
                "end_time": 32.9409091,
                "pitch": 75,
                "velocity": 80,
                "duration": 0.0522727,
                "tempo": 120.0
            },
            {
                "start_time": 33.5340909,
                "end_time": 33.5840909,
                "pitch": 77,
                "velocity": 80,
                "duration": 0.05,
                "tempo": 120.0
            },
            {
                "start_time": 33.7363636,
                "end_time": 33.8045455,
                "pitch": 75,
                "velocity": 80,
                "duration": 0.0681818,
                "tempo": 120.0
            },
            {
                "start_time": 34.2954545,
                "end_time": 34.5954545,
                "pitch": 68,
                "velocity": 80,
                "duration": 0.3,
                "tempo": 120.0
            },
            {
                "start_time": 34.6113636,
                "end_time": 34.6590909,
                "pitch": 66,
                "velocity": 80,
                "duration": 0.0477273,
                "tempo": 120.0
            },
            {
                "start_time": 35.2409091,
                "end_time": 35.3409091,
                "pitch": 63,
                "velocity": 80,
                "duration": 0.1,
                "tempo": 120.0
            },
            {
                "start_time": 35.3568182,
                "end_time": 35.4409091,
                "pitch": 68,
                "velocity": 80,
                "duration": 0.0840909,
                "tempo": 120.0
            },
            {
                "start_time": 35.4568182,
                "end_time": 35.5590909,
                "pitch": 66,
                "velocity": 80,
                "duration": 0.1022727,
                "tempo": 120.0
            },
            {
                "start_time": 35.575,
                "end_time": 35.6590909,
                "pitch": 73,
                "velocity": 80,
                "duration": 0.0840909,
                "tempo": 120.0
            },
            {
                "start_time": 35.675,
                "end_time": 35.775,
                "pitch": 71,
                "velocity": 80,
                "duration": 0.1,
                "tempo": 120.0
            },
            {
                "start_time": 35.7931818,
                "end_time": 35.8772727,
                "pitch": 70,
                "velocity": 80,
                "duration": 0.0840909,
                "tempo": 120.0
            },
            {
                "start_time": 35.8954545,
                "end_time": 35.9795455,
                "pitch": 66,
                "velocity": 80,
                "duration": 0.0840909,
                "tempo": 120.0
            },
            {
                "start_time": 35.9977273,
                "end_time": 36.3159091,
                "pitch": 68,
                "velocity": 80,
                "duration": 0.3181818,
                "tempo": 120.0
            },
            {
                "start_time": 36.3318182,
                "end_time": 36.3795455,
                "pitch": 66,
                "velocity": 80,
                "duration": 0.0477273,
                "tempo": 120.0
            },
            {
                "start_time": 36.6340909,
                "end_time": 36.9409091,
                "pitch": 63,
                "velocity": 80,
                "duration": 0.3068182,
                "tempo": 120.0
            },
            {
                "start_time": 36.9590909,
                "end_time": 37.0613636,
                "pitch": 68,
                "velocity": 80,
                "duration": 0.1022727,
                "tempo": 120.0
            },
            {
                "start_time": 37.0772727,
                "end_time": 37.1613636,
                "pitch": 70,
                "velocity": 80,
                "duration": 0.0840909,
                "tempo": 120.0
            },
            {
                "start_time": 37.1795455,
                "end_time": 37.2795455,
                "pitch": 63,
                "velocity": 80,
                "duration": 0.1,
                "tempo": 120.0
            },
            {
                "start_time": 37.2954545,
                "end_time": 37.3795455,
                "pitch": 71,
                "velocity": 80,
                "duration": 0.0840909,
                "tempo": 120.0
            },
            {
                "start_time": 37.3954545,
                "end_time": 37.4795455,
                "pitch": 68,
                "velocity": 80,
                "duration": 0.0840909,
                "tempo": 120.0
            },
            {
                "start_time": 37.4954545,
                "end_time": 37.5954545,
                "pitch": 73,
                "velocity": 80,
                "duration": 0.1,
                "tempo": 120.0
            },
            {
                "start_time": 37.6113636,
                "end_time": 37.6931818,
                "pitch": 70,
                "velocity": 80,
                "duration": 0.0818182,
                "tempo": 120.0
            },
            {
                "start_time": 37.7090909,
                "end_time": 37.9068182,
                "pitch": 77,
                "velocity": 80,
                "duration": 0.1977273,
                "tempo": 120.0
            },
            {
                "start_time": 37.9227273,
                "end_time": 37.9727273,
                "pitch": 75,
                "velocity": 80,
                "duration": 0.05,
                "tempo": 120.0
            },
            {
                "start_time": 38.675,
                "end_time": 38.8772727,
                "pitch": 77,
                "velocity": 80,
                "duration": 0.2022727,
                "tempo": 120.0
            },
            {
                "start_time": 38.8954545,
                "end_time": 38.9454545,
                "pitch": 75,
                "velocity": 80,
                "duration": 0.05,
                "tempo": 120.0
            },
            {
                "start_time": 39.6340909,
                "end_time": 39.7181818,
                "pitch": 77,
                "velocity": 80,
                "duration": 0.0840909,
                "tempo": 120.0
            },
            {
                "start_time": 39.7363636,
                "end_time": 39.8045455,
                "pitch": 75,
                "velocity": 80,
                "duration": 0.0681818,
                "tempo": 120.0
            },
            {
                "start_time": 40.3954545,
                "end_time": 40.4477273,
                "pitch": 77,
                "velocity": 80,
                "duration": 0.0522727,
                "tempo": 120.0
            },
            {
                "start_time": 40.6113636,
                "end_time": 40.6613636,
                "pitch": 75,
                "velocity": 80,
                "duration": 0.05,
                "tempo": 120.0
            },
            {
                "start_time": 41.1409091,
                "end_time": 41.225,
                "pitch": 63,
                "velocity": 80,
                "duration": 0.0840909,
                "tempo": 120.0
            },
            {
                "start_time": 41.2409091,
                "end_time": 41.3409091,
                "pitch": 63,
                "velocity": 80,
                "duration": 0.1,
                "tempo": 120.0
            },
            {
                "start_time": 41.3568182,
                "end_time": 41.4409091,
                "pitch": 66,
                "velocity": 80,
                "duration": 0.0840909,
                "tempo": 120.0
            },
            {
                "start_time": 41.4590909,
                "end_time": 41.5590909,
                "pitch": 70,
                "velocity": 80,
                "duration": 0.1,
                "tempo": 120.0
            },
            {
                "start_time": 41.575,
                "end_time": 41.7772727,
                "pitch": 73,
                "velocity": 80,
                "duration": 0.2022727,
                "tempo": 120.0
            },
            {
                "start_time": 41.7931818,
                "end_time": 41.8772727,
                "pitch": 63,
                "velocity": 80,
                "duration": 0.0840909,
                "tempo": 120.0
            },
            {
                "start_time": 41.8954545,
                "end_time": 42.1,
                "pitch": 73,
                "velocity": 80,
                "duration": 0.2045455,
                "tempo": 120.0
            },
            {
                "start_time": 42.1181818,
                "end_time": 42.2022727,
                "pitch": 63,
                "velocity": 80,
                "duration": 0.0840909,
                "tempo": 120.0
            },
            {
                "start_time": 42.2204545,
                "end_time": 42.4113636,
                "pitch": 73,
                "velocity": 80,
                "duration": 0.1909091,
                "tempo": 120.0
            },
            {
                "start_time": 42.4272727,
                "end_time": 42.6181818,
                "pitch": 72,
                "velocity": 80,
                "duration": 0.1909091,
                "tempo": 120.0
            },
            {
                "start_time": 42.6340909,
                "end_time": 42.8386364,
                "pitch": 66,
                "velocity": 80,
                "duration": 0.2045455,
                "tempo": 120.0
            },
            {
                "start_time": 42.8568182,
                "end_time": 42.9409091,
                "pitch": 63,
                "velocity": 80,
                "duration": 0.0840909,
                "tempo": 120.0
            },
            {
                "start_time": 42.9590909,
                "end_time": 43.0613636,
                "pitch": 63,
                "velocity": 80,
                "duration": 0.1022727,
                "tempo": 120.0
            },
            {
                "start_time": 43.0795455,
                "end_time": 43.1636364,
                "pitch": 66,
                "velocity": 80,
                "duration": 0.0840909,
                "tempo": 120.0
            },
            {
                "start_time": 43.1795455,
                "end_time": 43.2795455,
                "pitch": 70,
                "velocity": 80,
                "duration": 0.1,
                "tempo": 120.0
            },
            {
                "start_time": 43.2954545,
                "end_time": 43.4795455,
                "pitch": 73,
                "velocity": 80,
                "duration": 0.1840909,
                "tempo": 120.0
            },
            {
                "start_time": 43.4977273,
                "end_time": 43.5954545,
                "pitch": 63,
                "velocity": 80,
                "duration": 0.0977273,
                "tempo": 120.0
            },
            {
                "start_time": 43.6113636,
                "end_time": 43.8090909,
                "pitch": 73,
                "velocity": 80,
                "duration": 0.1977273,
                "tempo": 120.0
            },
            {
                "start_time": 43.825,
                "end_time": 43.9068182,
                "pitch": 72,
                "velocity": 80,
                "duration": 0.0818182,
                "tempo": 120.0
            },
            {
                "start_time": 43.9227273,
                "end_time": 44.0227273,
                "pitch": 73,
                "velocity": 80,
                "duration": 0.1,
                "tempo": 120.0
            },
            {
                "start_time": 44.0409091,
                "end_time": 44.125,
                "pitch": 74,
                "velocity": 80,
                "duration": 0.0840909,
                "tempo": 120.0
            },
            {
                "start_time": 44.1409091,
                "end_time": 44.225,
                "pitch": 75,
                "velocity": 80,
                "duration": 0.0840909,
                "tempo": 120.0
            },
            {
                "start_time": 44.575,
                "end_time": 44.6590909,
                "pitch": 63,
                "velocity": 80,
                "duration": 0.0840909,
                "tempo": 120.0
            },
            {
                "start_time": 44.6772727,
                "end_time": 44.7772727,
                "pitch": 63,
                "velocity": 80,
                "duration": 0.1,
                "tempo": 120.0
            },
            {
                "start_time": 44.7931818,
                "end_time": 44.8795455,
                "pitch": 66,
                "velocity": 80,
                "duration": 0.0863636,
                "tempo": 120.0
            },
            {
                "start_time": 44.8954545,
                "end_time": 44.9818182,
                "pitch": 70,
                "velocity": 80,
                "duration": 0.0863636,
                "tempo": 120.0
            },
            {
                "start_time": 44.9977273,
                "end_time": 45.2045455,
                "pitch": 73,
                "velocity": 80,
                "duration": 0.2068182,
                "tempo": 120.0
            },
            {
                "start_time": 45.2204545,
                "end_time": 45.3159091,
                "pitch": 63,
                "velocity": 80,
                "duration": 0.0954545,
                "tempo": 120.0
            },
            {
                "start_time": 45.3318182,
                "end_time": 45.5227273,
                "pitch": 73,
                "velocity": 80,
                "duration": 0.1909091,
                "tempo": 120.0
            },
            {
                "start_time": 45.5386364,
                "end_time": 45.6181818,
                "pitch": 63,
                "velocity": 80,
                "duration": 0.0795455,
                "tempo": 120.0
            },
            {
                "start_time": 45.6340909,
                "end_time": 45.8386364,
                "pitch": 73,
                "velocity": 80,
                "duration": 0.2045455,
                "tempo": 120.0
            },
            {
                "start_time": 45.8568182,
                "end_time": 46.0613636,
                "pitch": 72,
                "velocity": 80,
                "duration": 0.2045455,
                "tempo": 120.0
            },
            {
                "start_time": 46.0795455,
                "end_time": 46.2795455,
                "pitch": 66,
                "velocity": 80,
                "duration": 0.2,
                "tempo": 120.0
            },
            {
                "start_time": 46.2977273,
                "end_time": 46.3795455,
                "pitch": 63,
                "velocity": 80,
                "duration": 0.0818182,
                "tempo": 120.0
            },
            {
                "start_time": 46.3977273,
                "end_time": 46.4818182,
                "pitch": 63,
                "velocity": 80,
                "duration": 0.0840909,
                "tempo": 120.0
            },
            {
                "start_time": 46.4977273,
                "end_time": 46.5954545,
                "pitch": 66,
                "velocity": 80,
                "duration": 0.0977273,
                "tempo": 120.0
            },
            {
                "start_time": 46.6113636,
                "end_time": 46.6931818,
                "pitch": 70,
                "velocity": 80,
                "duration": 0.0818182,
                "tempo": 120.0
            },
            {
                "start_time": 46.7113636,
                "end_time": 46.8090909,
                "pitch": 73,
                "velocity": 80,
                "duration": 0.0977273,
                "tempo": 120.0
            },
            {
                "start_time": 46.825,
                "end_time": 46.9409091,
                "pitch": 63,
                "velocity": 80,
                "duration": 0.1159091,
                "tempo": 120.0
            },
            {
                "start_time": 47.0409091,
                "end_time": 47.125,
                "pitch": 72,
                "velocity": 80,
                "duration": 0.0840909,
                "tempo": 120.0
            },
            {
                "start_time": 47.1409091,
                "end_time": 47.2590909,
                "pitch": 63,
                "velocity": 80,
                "duration": 0.1181818,
                "tempo": 120.0
            },
            {
                "start_time": 47.3590909,
                "end_time": 47.4431818,
                "pitch": 71,
                "velocity": 80,
                "duration": 0.0840909,
                "tempo": 120.0
            },
            {
                "start_time": 47.4590909,
                "end_time": 47.5590909,
                "pitch": 66,
                "velocity": 80,
                "duration": 0.1,
                "tempo": 120.0
            },
            {
                "start_time": 47.575,
                "end_time": 47.6590909,
                "pitch": 70,
                "velocity": 80,
                "duration": 0.0840909,
                "tempo": 120.0
            },
            {
                "start_time": 47.6772727,
                "end_time": 47.7772727,
                "pitch": 66,
                "velocity": 80,
                "duration": 0.1,
                "tempo": 120.0
            },
            {
                "start_time": 47.9909091,
                "end_time": 48.3022727,
                "pitch": 68,
                "velocity": 80,
                "duration": 0.3113636,
                "tempo": 120.0
            },
            {
                "start_time": 48.3204545,
                "end_time": 48.3704545,
                "pitch": 66,
                "velocity": 80,
                "duration": 0.05,
                "tempo": 120.0
            },
            {
                "start_time": 48.9636364,
                "end_time": 49.0659091,
                "pitch": 63,
                "velocity": 80,
                "duration": 0.1022727,
                "tempo": 120.0
            },
            {
                "start_time": 49.0818182,
                "end_time": 49.1659091,
                "pitch": 68,
                "velocity": 80,
                "duration": 0.0840909,
                "tempo": 120.0
            },
            {
                "start_time": 49.1818182,
                "end_time": 49.2840909,
                "pitch": 66,
                "velocity": 80,
                "duration": 0.1022727,
                "tempo": 120.0
            },
            {
                "start_time": 49.3,
                "end_time": 49.3840909,
                "pitch": 73,
                "velocity": 80,
                "duration": 0.0840909,
                "tempo": 120.0
            },
            {
                "start_time": 49.4,
                "end_time": 49.4840909,
                "pitch": 71,
                "velocity": 80,
                "duration": 0.0840909,
                "tempo": 120.0
            },
            {
                "start_time": 49.5,
                "end_time": 49.6,
                "pitch": 70,
                "velocity": 80,
                "duration": 0.1,
                "tempo": 120.0
            },
            {
                "start_time": 49.6159091,
                "end_time": 49.6977273,
                "pitch": 66,
                "velocity": 80,
                "duration": 0.0818182,
                "tempo": 120.0
            },
            {
                "start_time": 49.7136364,
                "end_time": 50.0272727,
                "pitch": 68,
                "velocity": 80,
                "duration": 0.3136364,
                "tempo": 120.0
            },
            {
                "start_time": 50.0431818,
                "end_time": 50.0931818,
                "pitch": 66,
                "velocity": 80,
                "duration": 0.05,
                "tempo": 120.0
            },
            {
                "start_time": 50.3613636,
                "end_time": 50.6636364,
                "pitch": 63,
                "velocity": 80,
                "duration": 0.3022727,
                "tempo": 120.0
            },
            {
                "start_time": 50.6795455,
                "end_time": 50.7795455,
                "pitch": 68,
                "velocity": 80,
                "duration": 0.1,
                "tempo": 120.0
            },
            {
                "start_time": 50.7977273,
                "end_time": 50.8818182,
                "pitch": 70,
                "velocity": 80,
                "duration": 0.0840909,
                "tempo": 120.0
            },
            {
                "start_time": 50.9,
                "end_time": 50.9840909,
                "pitch": 63,
                "velocity": 80,
                "duration": 0.0840909,
                "tempo": 120.0
            },
            {
                "start_time": 51.0022727,
                "end_time": 51.1045455,
                "pitch": 71,
                "velocity": 80,
                "duration": 0.1022727,
                "tempo": 120.0
            },
            {
                "start_time": 51.1227273,
                "end_time": 51.2068182,
                "pitch": 68,
                "velocity": 80,
                "duration": 0.0840909,
                "tempo": 120.0
            },
            {
                "start_time": 51.225,
                "end_time": 51.3227273,
                "pitch": 73,
                "velocity": 80,
                "duration": 0.0977273,
                "tempo": 120.0
            },
            {
                "start_time": 51.3386364,
                "end_time": 51.4204545,
                "pitch": 70,
                "velocity": 80,
                "duration": 0.0818182,
                "tempo": 120.0
            },
            {
                "start_time": 51.4386364,
                "end_time": 51.6340909,
                "pitch": 77,
                "velocity": 80,
                "duration": 0.1954545,
                "tempo": 120.0
            },
            {
                "start_time": 51.65,
                "end_time": 51.7,
                "pitch": 75,
                "velocity": 80,
                "duration": 0.05,
                "tempo": 120.0
            },
            {
                "start_time": 52.4045455,
                "end_time": 52.6022727,
                "pitch": 77,
                "velocity": 80,
                "duration": 0.1977273,
                "tempo": 120.0
            },
            {
                "start_time": 52.6181818,
                "end_time": 52.6681818,
                "pitch": 75,
                "velocity": 80,
                "duration": 0.05,
                "tempo": 120.0
            },
            {
                "start_time": 53.3659091,
                "end_time": 53.4477273,
                "pitch": 77,
                "velocity": 80,
                "duration": 0.0818182,
                "tempo": 120.0
            },
            {
                "start_time": 53.4659091,
                "end_time": 53.5318182,
                "pitch": 75,
                "velocity": 80,
                "duration": 0.0659091,
                "tempo": 120.0
            },
            {
                "start_time": 54.1181818,
                "end_time": 54.1681818,
                "pitch": 77,
                "velocity": 80,
                "duration": 0.05,
                "tempo": 120.0
            },
            {
                "start_time": 54.3340909,
                "end_time": 54.3818182,
                "pitch": 75,
                "velocity": 80,
                "duration": 0.0477273,
                "tempo": 120.0
            },
            {
                "start_time": 54.8659091,
                "end_time": 55.1727273,
                "pitch": 68,
                "velocity": 80,
                "duration": 0.3068182,
                "tempo": 120.0
            },
            {
                "start_time": 55.1886364,
                "end_time": 55.2386364,
                "pitch": 66,
                "velocity": 80,
                "duration": 0.05,
                "tempo": 120.0
            },
            {
                "start_time": 55.8340909,
                "end_time": 55.9159091,
                "pitch": 63,
                "velocity": 80,
                "duration": 0.0818182,
                "tempo": 120.0
            },
            {
                "start_time": 55.9340909,
                "end_time": 56.0340909,
                "pitch": 68,
                "velocity": 80,
                "duration": 0.1,
                "tempo": 120.0
            },
            {
                "start_time": 56.05,
                "end_time": 56.1340909,
                "pitch": 66,
                "velocity": 80,
                "duration": 0.0840909,
                "tempo": 120.0
            },
            {
                "start_time": 56.15,
                "end_time": 56.2340909,
                "pitch": 73,
                "velocity": 80,
                "duration": 0.0840909,
                "tempo": 120.0
            },
            {
                "start_time": 56.25,
                "end_time": 56.3522727,
                "pitch": 71,
                "velocity": 80,
                "duration": 0.1022727,
                "tempo": 120.0
            },
            {
                "start_time": 56.3681818,
                "end_time": 56.4522727,
                "pitch": 70,
                "velocity": 80,
                "duration": 0.0840909,
                "tempo": 120.0
            },
            {
                "start_time": 56.4704545,
                "end_time": 56.5727273,
                "pitch": 66,
                "velocity": 80,
                "duration": 0.1022727,
                "tempo": 120.0
            },
            {
                "start_time": 56.5909091,
                "end_time": 56.8954545,
                "pitch": 68,
                "velocity": 80,
                "duration": 0.3045455,
                "tempo": 120.0
            },
            {
                "start_time": 56.9136364,
                "end_time": 56.9636364,
                "pitch": 66,
                "velocity": 80,
                "duration": 0.05,
                "tempo": 120.0
            },
            {
                "start_time": 57.2318182,
                "end_time": 57.5340909,
                "pitch": 63,
                "velocity": 80,
                "duration": 0.3022727,
                "tempo": 120.0
            },
            {
                "start_time": 57.55,
                "end_time": 57.6295455,
                "pitch": 68,
                "velocity": 80,
                "duration": 0.0795455,
                "tempo": 120.0
            },
            {
                "start_time": 57.6454545,
                "end_time": 57.7295455,
                "pitch": 70,
                "velocity": 80,
                "duration": 0.0840909,
                "tempo": 120.0
            },
            {
                "start_time": 57.7477273,
                "end_time": 57.85,
                "pitch": 63,
                "velocity": 80,
                "duration": 0.1022727,
                "tempo": 120.0
            },
            {
                "start_time": 57.8659091,
                "end_time": 57.9522727,
                "pitch": 71,
                "velocity": 80,
                "duration": 0.0863636,
                "tempo": 120.0
            },
            {
                "start_time": 57.9704545,
                "end_time": 58.0727273,
                "pitch": 68,
                "velocity": 80,
                "duration": 0.1022727,
                "tempo": 120.0
            },
            {
                "start_time": 58.0886364,
                "end_time": 58.1727273,
                "pitch": 73,
                "velocity": 80,
                "duration": 0.0840909,
                "tempo": 120.0
            },
            {
                "start_time": 58.1909091,
                "end_time": 58.2909091,
                "pitch": 70,
                "velocity": 80,
                "duration": 0.1,
                "tempo": 120.0
            },
            {
                "start_time": 58.3068182,
                "end_time": 58.4909091,
                "pitch": 77,
                "velocity": 80,
                "duration": 0.1840909,
                "tempo": 120.0
            },
            {
                "start_time": 58.5068182,
                "end_time": 58.5727273,
                "pitch": 75,
                "velocity": 80,
                "duration": 0.0659091,
                "tempo": 120.0
            },
            {
                "start_time": 59.2522727,
                "end_time": 59.4522727,
                "pitch": 77,
                "velocity": 80,
                "duration": 0.2,
                "tempo": 120.0
            },
            {
                "start_time": 59.4681818,
                "end_time": 59.5363636,
                "pitch": 75,
                "velocity": 80,
                "duration": 0.0681818,
                "tempo": 120.0
            },
            {
                "start_time": 60.2227273,
                "end_time": 60.3204545,
                "pitch": 77,
                "velocity": 80,
                "duration": 0.0977273,
                "tempo": 120.0
            },
            {
                "start_time": 60.3363636,
                "end_time": 60.3863636,
                "pitch": 75,
                "velocity": 80,
                "duration": 0.05,
                "tempo": 120.0
            },
            {
                "start_time": 60.9727273,
                "end_time": 61.0409091,
                "pitch": 77,
                "velocity": 80,
                "duration": 0.0681818,
                "tempo": 120.0
            },
            {
                "start_time": 61.1931818,
                "end_time": 61.2431818,
                "pitch": 75,
                "velocity": 80,
                "duration": 0.05,
                "tempo": 120.0
            },
            {
                "start_time": 61.725,
                "end_time": 62.0363636,
                "pitch": 68,
                "velocity": 80,
                "duration": 0.3113636,
                "tempo": 120.0
            },
            {
                "start_time": 62.0545455,
                "end_time": 62.3545455,
                "pitch": 66,
                "velocity": 80,
                "duration": 0.3,
                "tempo": 120.0
            },
            {
                "start_time": 62.3727273,
                "end_time": 62.7909091,
                "pitch": 71,
                "velocity": 80,
                "duration": 0.4181818,
                "tempo": 120.0
            },
            {
                "start_time": 62.8068182,
                "end_time": 62.9909091,
                "pitch": 70,
                "velocity": 80,
                "duration": 0.1840909,
                "tempo": 120.0
            },
            {
                "start_time": 63.0068182,
                "end_time": 63.1090909,
                "pitch": 71,
                "velocity": 80,
                "duration": 0.1022727,
                "tempo": 120.0
            },
            {
                "start_time": 63.125,
                "end_time": 63.2090909,
                "pitch": 73,
                "velocity": 80,
                "duration": 0.0840909,
                "tempo": 120.0
            },
            {
                "start_time": 63.225,
                "end_time": 63.3227273,
                "pitch": 71,
                "velocity": 80,
                "duration": 0.0977273,
                "tempo": 120.0
            },
            {
                "start_time": 63.3409091,
                "end_time": 63.4227273,
                "pitch": 73,
                "velocity": 80,
                "duration": 0.0818182,
                "tempo": 120.0
            },
            {
                "start_time": 63.4386364,
                "end_time": 63.7363636,
                "pitch": 68,
                "velocity": 80,
                "duration": 0.2977273,
                "tempo": 120.0
            },
            {
                "start_time": 63.7545455,
                "end_time": 64.0795455,
                "pitch": 66,
                "velocity": 80,
                "duration": 0.325,
                "tempo": 120.0
            },
            {
                "start_time": 64.0954545,
                "end_time": 64.4977273,
                "pitch": 71,
                "velocity": 80,
                "duration": 0.4022727,
                "tempo": 120.0
            },
            {
                "start_time": 64.5136364,
                "end_time": 64.7045455,
                "pitch": 70,
                "velocity": 80,
                "duration": 0.1909091,
                "tempo": 120.0
            },
            {
                "start_time": 64.7204545,
                "end_time": 64.8159091,
                "pitch": 71,
                "velocity": 80,
                "duration": 0.0954545,
                "tempo": 120.0
            },
            {
                "start_time": 64.8318182,
                "end_time": 64.9113636,
                "pitch": 73,
                "velocity": 80,
                "duration": 0.0795455,
                "tempo": 120.0
            },
            {
                "start_time": 64.9272727,
                "end_time": 65.0295455,
                "pitch": 71,
                "velocity": 80,
                "duration": 0.1022727,
                "tempo": 120.0
            },
            {
                "start_time": 65.0477273,
                "end_time": 65.1340909,
                "pitch": 73,
                "velocity": 80,
                "duration": 0.0863636,
                "tempo": 120.0
            },
            {
                "start_time": 65.15,
                "end_time": 65.4568182,
                "pitch": 68,
                "velocity": 80,
                "duration": 0.3068182,
                "tempo": 120.0
            },
            {
                "start_time": 65.4727273,
                "end_time": 65.7909091,
                "pitch": 66,
                "velocity": 80,
                "duration": 0.3181818,
                "tempo": 120.0
            },
            {
                "start_time": 65.8068182,
                "end_time": 66.2090909,
                "pitch": 71,
                "velocity": 80,
                "duration": 0.4022727,
                "tempo": 120.0
            },
            {
                "start_time": 66.225,
                "end_time": 66.4227273,
                "pitch": 70,
                "velocity": 80,
                "duration": 0.1977273,
                "tempo": 120.0
            },
            {
                "start_time": 66.4386364,
                "end_time": 66.5363636,
                "pitch": 71,
                "velocity": 80,
                "duration": 0.0977273,
                "tempo": 120.0
            },
            {
                "start_time": 66.5545455,
                "end_time": 66.6363636,
                "pitch": 73,
                "velocity": 80,
                "duration": 0.0818182,
                "tempo": 120.0
            },
            {
                "start_time": 66.6522727,
                "end_time": 66.7363636,
                "pitch": 71,
                "velocity": 80,
                "duration": 0.0840909,
                "tempo": 120.0
            },
            {
                "start_time": 66.7545455,
                "end_time": 66.8568182,
                "pitch": 73,
                "velocity": 80,
                "duration": 0.1022727,
                "tempo": 120.0
            },
            {
                "start_time": 66.8727273,
                "end_time": 67.1795455,
                "pitch": 68,
                "velocity": 80,
                "duration": 0.3068182,
                "tempo": 120.0
            },
            {
                "start_time": 67.1954545,
                "end_time": 67.4977273,
                "pitch": 66,
                "velocity": 80,
                "duration": 0.3022727,
                "tempo": 120.0
            },
            {
                "start_time": 67.5136364,
                "end_time": 67.7113636,
                "pitch": 75,
                "velocity": 80,
                "duration": 0.1977273,
                "tempo": 120.0
            },
            {
                "start_time": 67.7272727,
                "end_time": 68.5772727,
                "pitch": 77,
                "velocity": 80,
                "duration": 0.85,
                "tempo": 120.0
            },
            {
                "start_time": 68.5931818,
                "end_time": 68.8931818,
                "pitch": 68,
                "velocity": 80,
                "duration": 0.3,
                "tempo": 120.0
            },
            {
                "start_time": 68.9113636,
                "end_time": 69.2113636,
                "pitch": 66,
                "velocity": 80,
                "duration": 0.3,
                "tempo": 120.0
            },
            {
                "start_time": 69.2295455,
                "end_time": 69.6386364,
                "pitch": 71,
                "velocity": 80,
                "duration": 0.4090909,
                "tempo": 120.0
            },
            {
                "start_time": 69.6545455,
                "end_time": 69.8545455,
                "pitch": 70,
                "velocity": 80,
                "duration": 0.2,
                "tempo": 120.0
            },
            {
                "start_time": 69.8727273,
                "end_time": 69.9568182,
                "pitch": 71,
                "velocity": 80,
                "duration": 0.0840909,
                "tempo": 120.0
            },
            {
                "start_time": 69.9727273,
                "end_time": 70.0727273,
                "pitch": 73,
                "velocity": 80,
                "duration": 0.1,
                "tempo": 120.0
            },
            {
                "start_time": 70.0909091,
                "end_time": 70.175,
                "pitch": 71,
                "velocity": 80,
                "duration": 0.0840909,
                "tempo": 120.0
            },
            {
                "start_time": 70.1931818,
                "end_time": 70.2954545,
                "pitch": 73,
                "velocity": 80,
                "duration": 0.1022727,
                "tempo": 120.0
            },
            {
                "start_time": 70.3113636,
                "end_time": 70.6136364,
                "pitch": 68,
                "velocity": 80,
                "duration": 0.3022727,
                "tempo": 120.0
            },
            {
                "start_time": 70.6295455,
                "end_time": 70.9159091,
                "pitch": 66,
                "velocity": 80,
                "duration": 0.2863636,
                "tempo": 120.0
            },
            {
                "start_time": 70.9318182,
                "end_time": 71.3590909,
                "pitch": 71,
                "velocity": 80,
                "duration": 0.4272727,
                "tempo": 120.0
            },
            {
                "start_time": 71.375,
                "end_time": 71.5772727,
                "pitch": 70,
                "velocity": 80,
                "duration": 0.2022727,
                "tempo": 120.0
            },
            {
                "start_time": 71.5931818,
                "end_time": 71.6772727,
                "pitch": 71,
                "velocity": 80,
                "duration": 0.0840909,
                "tempo": 120.0
            },
            {
                "start_time": 71.6931818,
                "end_time": 71.7931818,
                "pitch": 73,
                "velocity": 80,
                "duration": 0.1,
                "tempo": 120.0
            },
            {
                "start_time": 71.8113636,
                "end_time": 71.8954545,
                "pitch": 71,
                "velocity": 80,
                "duration": 0.0840909,
                "tempo": 120.0
            },
            {
                "start_time": 71.9136364,
                "end_time": 72.0,
                "pitch": 73,
                "velocity": 80,
                "duration": 0.0863636,
                "tempo": 120.0
            },
            {
                "start_time": 72.0159091,
                "end_time": 72.3340909,
                "pitch": 68,
                "velocity": 80,
                "duration": 0.3181818,
                "tempo": 120.0
            },
            {
                "start_time": 72.35,
                "end_time": 72.6363636,
                "pitch": 66,
                "velocity": 80,
                "duration": 0.2863636,
                "tempo": 120.0
            },
            {
                "start_time": 72.6522727,
                "end_time": 73.0795455,
                "pitch": 71,
                "velocity": 80,
                "duration": 0.4272727,
                "tempo": 120.0
            },
            {
                "start_time": 73.0977273,
                "end_time": 73.2977273,
                "pitch": 70,
                "velocity": 80,
                "duration": 0.2,
                "tempo": 120.0
            },
            {
                "start_time": 73.3136364,
                "end_time": 73.3977273,
                "pitch": 71,
                "velocity": 80,
                "duration": 0.0840909,
                "tempo": 120.0
            },
            {
                "start_time": 73.4136364,
                "end_time": 73.4977273,
                "pitch": 73,
                "velocity": 80,
                "duration": 0.0840909,
                "tempo": 120.0
            },
            {
                "start_time": 73.5159091,
                "end_time": 73.6136364,
                "pitch": 71,
                "velocity": 80,
                "duration": 0.0977273,
                "tempo": 120.0
            },
            {
                "start_time": 73.6295455,
                "end_time": 73.7113636,
                "pitch": 73,
                "velocity": 80,
                "duration": 0.0818182,
                "tempo": 120.0
            },
            {
                "start_time": 73.7272727,
                "end_time": 73.8272727,
                "pitch": 59,
                "velocity": 80,
                "duration": 0.1,
                "tempo": 120.0
            },
            {
                "start_time": 73.8431818,
                "end_time": 73.925,
                "pitch": 63,
                "velocity": 80,
                "duration": 0.0818182,
                "tempo": 120.0
            },
            {
                "start_time": 73.9409091,
                "end_time": 74.0409091,
                "pitch": 66,
                "velocity": 80,
                "duration": 0.1,
                "tempo": 120.0
            },
            {
                "start_time": 74.0590909,
                "end_time": 74.2431818,
                "pitch": 71,
                "velocity": 80,
                "duration": 0.1840909,
                "tempo": 120.0
            },
            {
                "start_time": 74.2590909,
                "end_time": 74.4590909,
                "pitch": 70,
                "velocity": 80,
                "duration": 0.2,
                "tempo": 120.0
            },
            {
                "start_time": 74.4772727,
                "end_time": 74.5772727,
                "pitch": 71,
                "velocity": 80,
                "duration": 0.1,
                "tempo": 120.0
            },
            {
                "start_time": 74.5931818,
                "end_time": 74.8954545,
                "pitch": 75,
                "velocity": 80,
                "duration": 0.3022727,
                "tempo": 120.0
            },
            {
                "start_time": 74.9136364,
                "end_time": 75.4363636,
                "pitch": 73,
                "velocity": 80,
                "duration": 0.5227273,
                "tempo": 120.0
            },
            {
                "start_time": 75.4522727,
                "end_time": 75.55,
                "pitch": 75,
                "velocity": 80,
                "duration": 0.0977273,
                "tempo": 120.0
            },
            {
                "start_time": 75.5659091,
                "end_time": 75.6477273,
                "pitch": 78,
                "velocity": 80,
                "duration": 0.0818182,
                "tempo": 120.0
            },
            {
                "start_time": 75.6659091,
                "end_time": 75.7477273,
                "pitch": 77,
                "velocity": 80,
                "duration": 0.0818182,
                "tempo": 120.0
            },
            {
                "start_time": 75.7659091,
                "end_time": 75.8659091,
                "pitch": 75,
                "velocity": 80,
                "duration": 0.1,
                "tempo": 120.0
            },
            {
                "start_time": 75.8818182,
                "end_time": 75.9659091,
                "pitch": 77,
                "velocity": 80,
                "duration": 0.0840909,
                "tempo": 120.0
            },
            {
                "start_time": 75.9818182,
                "end_time": 76.0840909,
                "pitch": 75,
                "velocity": 80,
                "duration": 0.1022727,
                "tempo": 120.0
            },
            {
                "start_time": 76.1,
                "end_time": 76.1840909,
                "pitch": 73,
                "velocity": 80,
                "duration": 0.0840909,
                "tempo": 120.0
            },
            {
                "start_time": 76.2,
                "end_time": 76.3,
                "pitch": 75,
                "velocity": 80,
                "duration": 0.1,
                "tempo": 120.0
            },
            {
                "start_time": 76.3181818,
                "end_time": 76.4,
                "pitch": 73,
                "velocity": 80,
                "duration": 0.0818182,
                "tempo": 120.0
            },
            {
                "start_time": 76.4181818,
                "end_time": 76.5022727,
                "pitch": 71,
                "velocity": 80,
                "duration": 0.0840909,
                "tempo": 120.0
            },
            {
                "start_time": 76.5181818,
                "end_time": 76.6159091,
                "pitch": 73,
                "velocity": 80,
                "duration": 0.0977273,
                "tempo": 120.0
            },
            {
                "start_time": 76.6340909,
                "end_time": 76.7159091,
                "pitch": 71,
                "velocity": 80,
                "duration": 0.0818182,
                "tempo": 120.0
            },
            {
                "start_time": 76.7318182,
                "end_time": 76.8295455,
                "pitch": 70,
                "velocity": 80,
                "duration": 0.0977273,
                "tempo": 120.0
            },
            {
                "start_time": 76.8454545,
                "end_time": 76.9272727,
                "pitch": 71,
                "velocity": 80,
                "duration": 0.0818182,
                "tempo": 120.0
            },
            {
                "start_time": 76.9431818,
                "end_time": 77.0454545,
                "pitch": 70,
                "velocity": 80,
                "duration": 0.1022727,
                "tempo": 120.0
            },
            {
                "start_time": 77.0613636,
                "end_time": 77.1454545,
                "pitch": 68,
                "velocity": 80,
                "duration": 0.0840909,
                "tempo": 120.0
            },
            {
                "start_time": 77.1613636,
                "end_time": 77.2454545,
                "pitch": 70,
                "velocity": 80,
                "duration": 0.0840909,
                "tempo": 120.0
            },
            {
                "start_time": 77.2613636,
                "end_time": 77.3636364,
                "pitch": 68,
                "velocity": 80,
                "duration": 0.1022727,
                "tempo": 120.0
            },
            {
                "start_time": 77.3795455,
                "end_time": 77.4636364,
                "pitch": 66,
                "velocity": 80,
                "duration": 0.0840909,
                "tempo": 120.0
            },
            {
                "start_time": 77.4818182,
                "end_time": 77.5840909,
                "pitch": 68,
                "velocity": 80,
                "duration": 0.1022727,
                "tempo": 120.0
            },
            {
                "start_time": 77.6022727,
                "end_time": 77.6863636,
                "pitch": 66,
                "velocity": 80,
                "duration": 0.0840909,
                "tempo": 120.0
            },
            {
                "start_time": 77.7045455,
                "end_time": 77.8068182,
                "pitch": 65,
                "velocity": 80,
                "duration": 0.1022727,
                "tempo": 120.0
            },
            {
                "start_time": 77.8227273,
                "end_time": 77.9068182,
                "pitch": 66,
                "velocity": 80,
                "duration": 0.0840909,
                "tempo": 120.0
            },
            {
                "start_time": 77.925,
                "end_time": 78.0068182,
                "pitch": 65,
                "velocity": 80,
                "duration": 0.0818182,
                "tempo": 120.0
            },
            {
                "start_time": 78.025,
                "end_time": 78.125,
                "pitch": 63,
                "velocity": 80,
                "duration": 0.1,
                "tempo": 120.0
            },
            {
                "start_time": 78.1409091,
                "end_time": 78.225,
                "pitch": 65,
                "velocity": 80,
                "duration": 0.0840909,
                "tempo": 120.0
            },
            {
                "start_time": 78.2431818,
                "end_time": 78.3409091,
                "pitch": 63,
                "velocity": 80,
                "duration": 0.0977273,
                "tempo": 120.0
            },
            {
                "start_time": 78.3568182,
                "end_time": 78.4386364,
                "pitch": 61,
                "velocity": 80,
                "duration": 0.0818182,
                "tempo": 120.0
            },
            {
                "start_time": 78.4545455,
                "end_time": 78.5545455,
                "pitch": 63,
                "velocity": 80,
                "duration": 0.1,
                "tempo": 120.0
            },
            {
                "start_time": 78.5704545,
                "end_time": 78.6522727,
                "pitch": 61,
                "velocity": 80,
                "duration": 0.0818182,
                "tempo": 120.0
            },
            {
                "start_time": 78.6681818,
                "end_time": 78.7522727,
                "pitch": 59,
                "velocity": 80,
                "duration": 0.0840909,
                "tempo": 120.0
            },
            {
                "start_time": 78.7681818,
                "end_time": 78.8681818,
                "pitch": 65,
                "velocity": 80,
                "duration": 0.1,
                "tempo": 120.0
            },
            {
                "start_time": 78.8863636,
                "end_time": 78.9681818,
                "pitch": 63,
                "velocity": 80,
                "duration": 0.0818182,
                "tempo": 120.0
            },
            {
                "start_time": 78.9863636,
                "end_time": 79.0863636,
                "pitch": 61,
                "velocity": 80,
                "duration": 0.1,
                "tempo": 120.0
            },
            {
                "start_time": 79.1022727,
                "end_time": 79.1863636,
                "pitch": 66,
                "velocity": 80,
                "duration": 0.0840909,
                "tempo": 120.0
            },
            {
                "start_time": 79.2045455,
                "end_time": 79.3045455,
                "pitch": 65,
                "velocity": 80,
                "duration": 0.1,
                "tempo": 120.0
            },
            {
                "start_time": 79.3204545,
                "end_time": 79.4045455,
                "pitch": 63,
                "velocity": 80,
                "duration": 0.0840909,
                "tempo": 120.0
            },
            {
                "start_time": 79.4204545,
                "end_time": 79.5045455,
                "pitch": 65,
                "velocity": 80,
                "duration": 0.0840909,
                "tempo": 120.0
            },
            {
                "start_time": 79.5204545,
                "end_time": 79.6204545,
                "pitch": 63,
                "velocity": 80,
                "duration": 0.1,
                "tempo": 120.0
            },
            {
                "start_time": 79.6363636,
                "end_time": 79.7181818,
                "pitch": 61,
                "velocity": 80,
                "duration": 0.0818182,
                "tempo": 120.0
            },
            {
                "start_time": 79.7340909,
                "end_time": 79.8318182,
                "pitch": 66,
                "velocity": 80,
                "duration": 0.0977273,
                "tempo": 120.0
            },
            {
                "start_time": 79.85,
                "end_time": 79.9318182,
                "pitch": 65,
                "velocity": 80,
                "duration": 0.0818182,
                "tempo": 120.0
            },
            {
                "start_time": 79.9477273,
                "end_time": 80.0477273,
                "pitch": 63,
                "velocity": 80,
                "duration": 0.1,
                "tempo": 120.0
            },
            {
                "start_time": 80.0636364,
                "end_time": 80.1477273,
                "pitch": 68,
                "velocity": 80,
                "duration": 0.0840909,
                "tempo": 120.0
            },
            {
                "start_time": 80.1659091,
                "end_time": 80.2477273,
                "pitch": 66,
                "velocity": 80,
                "duration": 0.0818182,
                "tempo": 120.0
            },
            {
                "start_time": 80.2659091,
                "end_time": 80.3659091,
                "pitch": 65,
                "velocity": 80,
                "duration": 0.1,
                "tempo": 120.0
            },
            {
                "start_time": 80.3818182,
                "end_time": 80.4659091,
                "pitch": 70,
                "velocity": 80,
                "duration": 0.0840909,
                "tempo": 120.0
            },
            {
                "start_time": 80.4818182,
                "end_time": 80.5840909,
                "pitch": 68,
                "velocity": 80,
                "duration": 0.1022727,
                "tempo": 120.0
            },
            {
                "start_time": 80.6,
                "end_time": 80.6840909,
                "pitch": 66,
                "velocity": 80,
                "duration": 0.0840909,
                "tempo": 120.0
            },
            {
                "start_time": 80.7,
                "end_time": 80.8,
                "pitch": 68,
                "velocity": 80,
                "duration": 0.1,
                "tempo": 120.0
            },
            {
                "start_time": 80.8181818,
                "end_time": 80.9022727,
                "pitch": 66,
                "velocity": 80,
                "duration": 0.0840909,
                "tempo": 120.0
            },
            {
                "start_time": 80.9204545,
                "end_time": 81.0045455,
                "pitch": 65,
                "velocity": 80,
                "duration": 0.0840909,
                "tempo": 120.0
            },
            {
                "start_time": 81.0227273,
                "end_time": 81.125,
                "pitch": 70,
                "velocity": 80,
                "duration": 0.1022727,
                "tempo": 120.0
            },
            {
                "start_time": 81.1431818,
                "end_time": 81.2272727,
                "pitch": 68,
                "velocity": 80,
                "duration": 0.0840909,
                "tempo": 120.0
            },
            {
                "start_time": 81.2454545,
                "end_time": 81.3431818,
                "pitch": 66,
                "velocity": 80,
                "duration": 0.0977273,
                "tempo": 120.0
            },
            {
                "start_time": 81.3590909,
                "end_time": 81.4409091,
                "pitch": 71,
                "velocity": 80,
                "duration": 0.0818182,
                "tempo": 120.0
            },
            {
                "start_time": 81.4590909,
                "end_time": 81.5568182,
                "pitch": 70,
                "velocity": 80,
                "duration": 0.0977273,
                "tempo": 120.0
            },
            {
                "start_time": 81.5727273,
                "end_time": 81.6545455,
                "pitch": 68,
                "velocity": 80,
                "duration": 0.0818182,
                "tempo": 120.0
            },
            {
                "start_time": 81.6704545,
                "end_time": 81.7545455,
                "pitch": 73,
                "velocity": 80,
                "duration": 0.0840909,
                "tempo": 120.0
            },
            {
                "start_time": 81.7727273,
                "end_time": 81.8727273,
                "pitch": 71,
                "velocity": 80,
                "duration": 0.1,
                "tempo": 120.0
            },
            {
                "start_time": 81.8886364,
                "end_time": 81.9727273,
                "pitch": 70,
                "velocity": 80,
                "duration": 0.0840909,
                "tempo": 120.0
            },
            {
                "start_time": 81.9886364,
                "end_time": 82.0886364,
                "pitch": 75,
                "velocity": 80,
                "duration": 0.1,
                "tempo": 120.0
            },
            {
                "start_time": 82.1068182,
                "end_time": 82.1909091,
                "pitch": 73,
                "velocity": 80,
                "duration": 0.0840909,
                "tempo": 120.0
            },
            {
                "start_time": 82.2068182,
                "end_time": 82.3068182,
                "pitch": 71,
                "velocity": 80,
                "duration": 0.1,
                "tempo": 120.0
            },
            {
                "start_time": 82.3227273,
                "end_time": 82.6204545,
                "pitch": 77,
                "velocity": 80,
                "duration": 0.2977273,
                "tempo": 120.0
            },
            {
                "start_time": 82.6363636,
                "end_time": 83.3659091,
                "pitch": 78,
                "velocity": 80,
                "duration": 0.7295455,
                "tempo": 120.0
            },
            {
                "start_time": 83.3840909,
                "end_time": 83.8022727,
                "pitch": 71,
                "velocity": 80,
                "duration": 0.4181818,
                "tempo": 120.0
            },
            {
                "start_time": 83.8181818,
                "end_time": 84.0022727,
                "pitch": 70,
                "velocity": 80,
                "duration": 0.1840909,
                "tempo": 120.0
            },
            {
                "start_time": 84.0181818,
                "end_time": 84.1204545,
                "pitch": 77,
                "velocity": 80,
                "duration": 0.1022727,
                "tempo": 120.0
            },
            {
                "start_time": 84.1363636,
                "end_time": 84.3340909,
                "pitch": 77,
                "velocity": 80,
                "duration": 0.1977273,
                "tempo": 120.0
            },
            {
                "start_time": 84.3522727,
                "end_time": 85.0886364,
                "pitch": 78,
                "velocity": 80,
                "duration": 0.7363636,
                "tempo": 120.0
            },
            {
                "start_time": 85.1068182,
                "end_time": 85.1909091,
                "pitch": 71,
                "velocity": 80,
                "duration": 0.0840909,
                "tempo": 120.0
            },
            {
                "start_time": 85.2068182,
                "end_time": 85.5090909,
                "pitch": 71,
                "velocity": 80,
                "duration": 0.3022727,
                "tempo": 120.0
            },
            {
                "start_time": 85.525,
                "end_time": 85.7227273,
                "pitch": 70,
                "velocity": 80,
                "duration": 0.1977273,
                "tempo": 120.0
            },
            {
                "start_time": 85.7386364,
                "end_time": 86.0522727,
                "pitch": 75,
                "velocity": 80,
                "duration": 0.3136364,
                "tempo": 120.0
            },
            {
                "start_time": 86.0681818,
                "end_time": 86.3704545,
                "pitch": 75,
                "velocity": 80,
                "duration": 0.3022727,
                "tempo": 120.0
            },
            {
                "start_time": 86.3863636,
                "end_time": 87.2318182,
                "pitch": 77,
                "velocity": 80,
                "duration": 0.8454545,
                "tempo": 120.0
            },
            {
                "start_time": 87.2477273,
                "end_time": 87.4454545,
                "pitch": 73,
                "velocity": 80,
                "duration": 0.1977273,
                "tempo": 120.0
            },
            {
                "start_time": 87.4613636,
                "end_time": 88.3113636,
                "pitch": 75,
                "velocity": 80,
                "duration": 0.85,
                "tempo": 120.0
            },
            {
                "start_time": 88.3272727,
                "end_time": 88.4113636,
                "pitch": 75,
                "velocity": 80,
                "duration": 0.0840909,
                "tempo": 120.0
            },
            {
                "start_time": 88.4272727,
                "end_time": 88.5113636,
                "pitch": 71,
                "velocity": 80,
                "duration": 0.0840909,
                "tempo": 120.0
            },
            {
                "start_time": 88.5272727,
                "end_time": 88.6272727,
                "pitch": 73,
                "velocity": 80,
                "duration": 0.1,
                "tempo": 120.0
            },
            {
                "start_time": 88.6431818,
                "end_time": 88.725,
                "pitch": 75,
                "velocity": 80,
                "duration": 0.0818182,
                "tempo": 120.0
            },
            {
                "start_time": 88.7409091,
                "end_time": 88.8386364,
                "pitch": 77,
                "velocity": 80,
                "duration": 0.0977273,
                "tempo": 120.0
            },
            {
                "start_time": 88.8568182,
                "end_time": 88.9386364,
                "pitch": 73,
                "velocity": 80,
                "duration": 0.0818182,
                "tempo": 120.0
            },
            {
                "start_time": 88.9545455,
                "end_time": 89.0545455,
                "pitch": 75,
                "velocity": 80,
                "duration": 0.1,
                "tempo": 120.0
            },
            {
                "start_time": 89.0704545,
                "end_time": 89.1545455,
                "pitch": 77,
                "velocity": 80,
                "duration": 0.0840909,
                "tempo": 120.0
            },
            {
                "start_time": 89.1727273,
                "end_time": 89.2545455,
                "pitch": 75,
                "velocity": 80,
                "duration": 0.0818182,
                "tempo": 120.0
            },
            {
                "start_time": 89.2727273,
                "end_time": 89.3727273,
                "pitch": 78,
                "velocity": 80,
                "duration": 0.1,
                "tempo": 120.0
            },
            {
                "start_time": 89.3886364,
                "end_time": 89.4727273,
                "pitch": 77,
                "velocity": 80,
                "duration": 0.0840909,
                "tempo": 120.0
            },
            {
                "start_time": 89.4886364,
                "end_time": 89.5909091,
                "pitch": 75,
                "velocity": 80,
                "duration": 0.1022727,
                "tempo": 120.0
            },
            {
                "start_time": 89.6068182,
                "end_time": 89.6909091,
                "pitch": 77,
                "velocity": 80,
                "duration": 0.0840909,
                "tempo": 120.0
            },
            {
                "start_time": 89.7068182,
                "end_time": 89.8068182,
                "pitch": 75,
                "velocity": 80,
                "duration": 0.1,
                "tempo": 120.0
            },
            {
                "start_time": 89.825,
                "end_time": 89.9090909,
                "pitch": 73,
                "velocity": 80,
                "duration": 0.0840909,
                "tempo": 120.0
            },
            {
                "start_time": 89.9272727,
                "end_time": 90.0113636,
                "pitch": 75,
                "velocity": 80,
                "duration": 0.0840909,
                "tempo": 120.0
            },
            {
                "start_time": 90.0295455,
                "end_time": 90.1318182,
                "pitch": 73,
                "velocity": 80,
                "duration": 0.1022727,
                "tempo": 120.0
            },
            {
                "start_time": 90.15,
                "end_time": 90.2340909,
                "pitch": 71,
                "velocity": 80,
                "duration": 0.0840909,
                "tempo": 120.0
            },
            {
                "start_time": 90.2522727,
                "end_time": 90.35,
                "pitch": 73,
                "velocity": 80,
                "duration": 0.0977273,
                "tempo": 120.0
            },
            {
                "start_time": 90.3659091,
                "end_time": 90.4477273,
                "pitch": 71,
                "velocity": 80,
                "duration": 0.0818182,
                "tempo": 120.0
            },
            {
                "start_time": 90.4659091,
                "end_time": 90.5636364,
                "pitch": 70,
                "velocity": 80,
                "duration": 0.0977273,
                "tempo": 120.0
            },
            {
                "start_time": 90.5795455,
                "end_time": 90.6613636,
                "pitch": 71,
                "velocity": 80,
                "duration": 0.0818182,
                "tempo": 120.0
            },
            {
                "start_time": 90.6772727,
                "end_time": 90.7613636,
                "pitch": 70,
                "velocity": 80,
                "duration": 0.0840909,
                "tempo": 120.0
            },
            {
                "start_time": 90.7772727,
                "end_time": 90.8795455,
                "pitch": 68,
                "velocity": 80,
                "duration": 0.1022727,
                "tempo": 120.0
            },
            {
                "start_time": 90.8954545,
                "end_time": 90.9795455,
                "pitch": 70,
                "velocity": 80,
                "duration": 0.0840909,
                "tempo": 120.0
            },
            {
                "start_time": 90.9954545,
                "end_time": 91.0954545,
                "pitch": 68,
                "velocity": 80,
                "duration": 0.1,
                "tempo": 120.0
            },
            {
                "start_time": 91.1136364,
                "end_time": 91.1977273,
                "pitch": 66,
                "velocity": 80,
                "duration": 0.0840909,
                "tempo": 120.0
            },
            {
                "start_time": 91.2136364,
                "end_time": 91.3136364,
                "pitch": 68,
                "velocity": 80,
                "duration": 0.1,
                "tempo": 120.0
            },
            {
                "start_time": 91.3295455,
                "end_time": 91.4136364,
                "pitch": 66,
                "velocity": 80,
                "duration": 0.0840909,
                "tempo": 120.0
            },
            {
                "start_time": 91.4318182,
                "end_time": 91.5136364,
                "pitch": 65,
                "velocity": 80,
                "duration": 0.0818182,
                "tempo": 120.0
            },
            {
                "start_time": 91.5318182,
                "end_time": 91.6295455,
                "pitch": 66,
                "velocity": 80,
                "duration": 0.0977273,
                "tempo": 120.0
            },
            {
                "start_time": 91.6454545,
                "end_time": 91.7272727,
                "pitch": 65,
                "velocity": 80,
                "duration": 0.0818182,
                "tempo": 120.0
            },
            {
                "start_time": 91.7454545,
                "end_time": 91.8431818,
                "pitch": 63,
                "velocity": 80,
                "duration": 0.0977273,
                "tempo": 120.0
            },
            {
                "start_time": 91.8590909,
                "end_time": 91.9409091,
                "pitch": 65,
                "velocity": 80,
                "duration": 0.0818182,
                "tempo": 120.0
            },
            {
                "start_time": 91.9568182,
                "end_time": 92.0568182,
                "pitch": 63,
                "velocity": 80,
                "duration": 0.1,
                "tempo": 120.0
            },
            {
                "start_time": 92.075,
                "end_time": 92.1590909,
                "pitch": 61,
                "velocity": 80,
                "duration": 0.0840909,
                "tempo": 120.0
            },
            {
                "start_time": 92.175,
                "end_time": 92.2590909,
                "pitch": 63,
                "velocity": 80,
                "duration": 0.0840909,
                "tempo": 120.0
            },
            {
                "start_time": 92.275,
                "end_time": 92.375,
                "pitch": 61,
                "velocity": 80,
                "duration": 0.1,
                "tempo": 120.0
            },
            {
                "start_time": 92.3931818,
                "end_time": 92.475,
                "pitch": 59,
                "velocity": 80,
                "duration": 0.0818182,
                "tempo": 120.0
            },
            {
                "start_time": 92.4931818,
                "end_time": 92.5931818,
                "pitch": 65,
                "velocity": 80,
                "duration": 0.1,
                "tempo": 120.0
            },
            {
                "start_time": 92.6090909,
                "end_time": 92.6931818,
                "pitch": 63,
                "velocity": 80,
                "duration": 0.0840909,
                "tempo": 120.0
            },
            {
                "start_time": 92.7113636,
                "end_time": 92.8113636,
                "pitch": 61,
                "velocity": 80,
                "duration": 0.1,
                "tempo": 120.0
            },
            {
                "start_time": 92.8272727,
                "end_time": 92.9136364,
                "pitch": 66,
                "velocity": 80,
                "duration": 0.0863636,
                "tempo": 120.0
            },
            {
                "start_time": 92.9295455,
                "end_time": 93.0159091,
                "pitch": 65,
                "velocity": 80,
                "duration": 0.0863636,
                "tempo": 120.0
            },
            {
                "start_time": 93.0318182,
                "end_time": 93.1340909,
                "pitch": 63,
                "velocity": 80,
                "duration": 0.1022727,
                "tempo": 120.0
            },
            {
                "start_time": 93.1522727,
                "end_time": 93.2386364,
                "pitch": 65,
                "velocity": 80,
                "duration": 0.0863636,
                "tempo": 120.0
            },
            {
                "start_time": 93.2545455,
                "end_time": 93.3545455,
                "pitch": 63,
                "velocity": 80,
                "duration": 0.1,
                "tempo": 120.0
            },
            {
                "start_time": 93.3704545,
                "end_time": 93.4522727,
                "pitch": 61,
                "velocity": 80,
                "duration": 0.0818182,
                "tempo": 120.0
            },
            {
                "start_time": 93.4681818,
                "end_time": 93.5659091,
                "pitch": 66,
                "velocity": 80,
                "duration": 0.0977273,
                "tempo": 120.0
            },
            {
                "start_time": 93.5818182,
                "end_time": 93.6636364,
                "pitch": 65,
                "velocity": 80,
                "duration": 0.0818182,
                "tempo": 120.0
            },
            {
                "start_time": 93.6818182,
                "end_time": 93.7636364,
                "pitch": 63,
                "velocity": 80,
                "duration": 0.0818182,
                "tempo": 120.0
            },
            {
                "start_time": 93.7818182,
                "end_time": 93.8818182,
                "pitch": 68,
                "velocity": 80,
                "duration": 0.1,
                "tempo": 120.0
            },
            {
                "start_time": 93.8977273,
                "end_time": 93.9818182,
                "pitch": 66,
                "velocity": 80,
                "duration": 0.0840909,
                "tempo": 120.0
            },
            {
                "start_time": 94.0,
                "end_time": 94.1,
                "pitch": 65,
                "velocity": 80,
                "duration": 0.1,
                "tempo": 120.0
            },
            {
                "start_time": 94.1159091,
                "end_time": 94.2,
                "pitch": 70,
                "velocity": 80,
                "duration": 0.0840909,
                "tempo": 120.0
            },
            {
                "start_time": 94.2159091,
                "end_time": 94.3159091,
                "pitch": 68,
                "velocity": 80,
                "duration": 0.1,
                "tempo": 120.0
            },
            {
                "start_time": 94.3340909,
                "end_time": 94.4181818,
                "pitch": 66,
                "velocity": 80,
                "duration": 0.0840909,
                "tempo": 120.0
            },
            {
                "start_time": 94.4340909,
                "end_time": 94.5181818,
                "pitch": 68,
                "velocity": 80,
                "duration": 0.0840909,
                "tempo": 120.0
            },
            {
                "start_time": 94.5340909,
                "end_time": 94.6318182,
                "pitch": 66,
                "velocity": 80,
                "duration": 0.0977273,
                "tempo": 120.0
            },
            {
                "start_time": 94.65,
                "end_time": 94.7318182,
                "pitch": 65,
                "velocity": 80,
                "duration": 0.0818182,
                "tempo": 120.0
            },
            {
                "start_time": 94.7477273,
                "end_time": 94.8454545,
                "pitch": 70,
                "velocity": 80,
                "duration": 0.0977273,
                "tempo": 120.0
            },
            {
                "start_time": 94.8613636,
                "end_time": 94.9431818,
                "pitch": 68,
                "velocity": 80,
                "duration": 0.0818182,
                "tempo": 120.0
            },
            {
                "start_time": 94.9613636,
                "end_time": 95.0613636,
                "pitch": 66,
                "velocity": 80,
                "duration": 0.1,
                "tempo": 120.0
            },
            {
                "start_time": 95.0772727,
                "end_time": 95.1613636,
                "pitch": 71,
                "velocity": 80,
                "duration": 0.0840909,
                "tempo": 120.0
            },
            {
                "start_time": 95.1772727,
                "end_time": 95.2613636,
                "pitch": 70,
                "velocity": 80,
                "duration": 0.0840909,
                "tempo": 120.0
            },
            {
                "start_time": 95.2772727,
                "end_time": 95.3795455,
                "pitch": 68,
                "velocity": 80,
                "duration": 0.1022727,
                "tempo": 120.0
            },
            {
                "start_time": 95.3954545,
                "end_time": 95.4795455,
                "pitch": 73,
                "velocity": 80,
                "duration": 0.0840909,
                "tempo": 120.0
            },
            {
                "start_time": 95.4954545,
                "end_time": 95.5954545,
                "pitch": 71,
                "velocity": 80,
                "duration": 0.1,
                "tempo": 120.0
            },
            {
                "start_time": 95.6136364,
                "end_time": 95.6977273,
                "pitch": 70,
                "velocity": 80,
                "duration": 0.0840909,
                "tempo": 120.0
            },
            {
                "start_time": 95.7136364,
                "end_time": 95.8136364,
                "pitch": 75,
                "velocity": 80,
                "duration": 0.1,
                "tempo": 120.0
            },
            {
                "start_time": 95.8295455,
                "end_time": 95.9136364,
                "pitch": 73,
                "velocity": 80,
                "duration": 0.0840909,
                "tempo": 120.0
            },
            {
                "start_time": 95.9318182,
                "end_time": 96.0136364,
                "pitch": 71,
                "velocity": 80,
                "duration": 0.0818182,
                "tempo": 120.0
            },
            {
                "start_time": 96.0318182,
                "end_time": 96.3477273,
                "pitch": 77,
                "velocity": 80,
                "duration": 0.3159091,
                "tempo": 120.0
            },
            {
                "start_time": 96.3636364,
                "end_time": 97.1022727,
                "pitch": 78,
                "velocity": 80,
                "duration": 0.7386364,
                "tempo": 120.0
            },
            {
                "start_time": 97.1181818,
                "end_time": 97.5204545,
                "pitch": 71,
                "velocity": 80,
                "duration": 0.4022727,
                "tempo": 120.0
            },
            {
                "start_time": 97.5363636,
                "end_time": 97.7340909,
                "pitch": 70,
                "velocity": 80,
                "duration": 0.1977273,
                "tempo": 120.0
            },
            {
                "start_time": 97.75,
                "end_time": 97.8477273,
                "pitch": 77,
                "velocity": 80,
                "duration": 0.0977273,
                "tempo": 120.0
            },
            {
                "start_time": 97.8659091,
                "end_time": 98.0636364,
                "pitch": 77,
                "velocity": 80,
                "duration": 0.1977273,
                "tempo": 120.0
            },
            {
                "start_time": 98.0795455,
                "end_time": 98.8159091,
                "pitch": 78,
                "velocity": 80,
                "duration": 0.7363636,
                "tempo": 120.0
            },
            {
                "start_time": 98.8340909,
                "end_time": 98.9181818,
                "pitch": 71,
                "velocity": 80,
                "duration": 0.0840909,
                "tempo": 120.0
            },
            {
                "start_time": 98.9363636,
                "end_time": 99.2431818,
                "pitch": 71,
                "velocity": 80,
                "duration": 0.3068182,
                "tempo": 120.0
            },
            {
                "start_time": 99.2613636,
                "end_time": 99.4590909,
                "pitch": 70,
                "velocity": 80,
                "duration": 0.1977273,
                "tempo": 120.0
            },
            {
                "start_time": 99.475,
                "end_time": 99.7704545,
                "pitch": 75,
                "velocity": 80,
                "duration": 0.2954545,
                "tempo": 120.0
            },
            {
                "start_time": 99.7886364,
                "end_time": 100.1045455,
                "pitch": 75,
                "velocity": 80,
                "duration": 0.3159091,
                "tempo": 120.0
            },
            {
                "start_time": 100.1227273,
                "end_time": 100.95,
                "pitch": 77,
                "velocity": 80,
                "duration": 0.8272727,
                "tempo": 120.0
            },
            {
                "start_time": 100.9659091,
                "end_time": 101.1681818,
                "pitch": 73,
                "velocity": 80,
                "duration": 0.2022727,
                "tempo": 120.0
            },
            {
                "start_time": 101.1840909,
                "end_time": 102.025,
                "pitch": 75,
                "velocity": 80,
                "duration": 0.8409091,
                "tempo": 120.0
            },
            {
                "start_time": 102.0409091,
                "end_time": 102.1454545,
                "pitch": 75,
                "velocity": 80,
                "duration": 0.1045455,
                "tempo": 120.0
            },
            {
                "start_time": 102.1613636,
                "end_time": 102.2477273,
                "pitch": 71,
                "velocity": 80,
                "duration": 0.0863636,
                "tempo": 120.0
            },
            {
                "start_time": 102.2636364,
                "end_time": 102.3590909,
                "pitch": 73,
                "velocity": 80,
                "duration": 0.0954545,
                "tempo": 120.0
            },
            {
                "start_time": 102.375,
                "end_time": 102.4545455,
                "pitch": 75,
                "velocity": 80,
                "duration": 0.0795455,
                "tempo": 120.0
            },
            {
                "start_time": 102.4704545,
                "end_time": 102.5659091,
                "pitch": 77,
                "velocity": 80,
                "duration": 0.0954545,
                "tempo": 120.0
            },
            {
                "start_time": 102.5818182,
                "end_time": 102.6613636,
                "pitch": 73,
                "velocity": 80,
                "duration": 0.0795455,
                "tempo": 120.0
            },
            {
                "start_time": 102.6772727,
                "end_time": 102.7636364,
                "pitch": 75,
                "velocity": 80,
                "duration": 0.0863636,
                "tempo": 120.0
            },
            {
                "start_time": 102.7795455,
                "end_time": 102.8840909,
                "pitch": 77,
                "velocity": 80,
                "duration": 0.1045455,
                "tempo": 120.0
            },
            {
                "start_time": 102.9,
                "end_time": 102.9681818,
                "pitch": 63,
                "velocity": 80,
                "duration": 0.0681818,
                "tempo": 120.0
            }
        ],
        "Trumpet": [
            {
                "start_time": 0.0159091,
                "end_time": 1.2659091,
                "pitch": 58,
                "velocity": 80,
                "duration": 1.25,
                "tempo": 120.0
            },
            {
                "start_time": 1.2840909,
                "end_time": 1.4681818,
                "pitch": 56,
                "velocity": 80,
                "duration": 0.1840909,
                "tempo": 120.0
            },
            {
                "start_time": 1.4840909,
                "end_time": 1.6818182,
                "pitch": 58,
                "velocity": 80,
                "duration": 0.1977273,
                "tempo": 120.0
            },
            {
                "start_time": 1.6977273,
                "end_time": 2.9681818,
                "pitch": 54,
                "velocity": 80,
                "duration": 1.2704545,
                "tempo": 120.0
            },
            {
                "start_time": 2.9863636,
                "end_time": 3.0886364,
                "pitch": 56,
                "velocity": 80,
                "duration": 0.1022727,
                "tempo": 120.0
            },
            {
                "start_time": 3.1045455,
                "end_time": 3.1909091,
                "pitch": 58,
                "velocity": 80,
                "duration": 0.0863636,
                "tempo": 120.0
            },
            {
                "start_time": 3.2068182,
                "end_time": 3.3022727,
                "pitch": 59,
                "velocity": 80,
                "duration": 0.0954545,
                "tempo": 120.0
            },
            {
                "start_time": 3.3181818,
                "end_time": 3.3977273,
                "pitch": 56,
                "velocity": 80,
                "duration": 0.0795455,
                "tempo": 120.0
            },
            {
                "start_time": 3.4136364,
                "end_time": 4.6818182,
                "pitch": 58,
                "velocity": 80,
                "duration": 1.2681818,
                "tempo": 120.0
            },
            {
                "start_time": 4.6977273,
                "end_time": 4.8931818,
                "pitch": 56,
                "velocity": 80,
                "duration": 0.1954545,
                "tempo": 120.0
            },
            {
                "start_time": 4.9113636,
                "end_time": 5.1113636,
                "pitch": 58,
                "velocity": 80,
                "duration": 0.2,
                "tempo": 120.0
            },
            {
                "start_time": 5.1272727,
                "end_time": 6.4,
                "pitch": 54,
                "velocity": 80,
                "duration": 1.2727273,
                "tempo": 120.0
            },
            {
                "start_time": 6.4159091,
                "end_time": 6.5113636,
                "pitch": 56,
                "velocity": 80,
                "duration": 0.0954545,
                "tempo": 120.0
            },
            {
                "start_time": 6.5272727,
                "end_time": 6.6068182,
                "pitch": 58,
                "velocity": 80,
                "duration": 0.0795455,
                "tempo": 120.0
            },
            {
                "start_time": 6.6227273,
                "end_time": 6.7068182,
                "pitch": 59,
                "velocity": 80,
                "duration": 0.0840909,
                "tempo": 120.0
            },
            {
                "start_time": 6.725,
                "end_time": 6.8272727,
                "pitch": 56,
                "velocity": 80,
                "duration": 0.1022727,
                "tempo": 120.0
            },
            {
                "start_time": 6.8431818,
                "end_time": 8.1113636,
                "pitch": 58,
                "velocity": 80,
                "duration": 1.2681818,
                "tempo": 120.0
            },
            {
                "start_time": 8.1272727,
                "end_time": 8.3295455,
                "pitch": 56,
                "velocity": 80,
                "duration": 0.2022727,
                "tempo": 120.0
            },
            {
                "start_time": 8.3454545,
                "end_time": 8.55,
                "pitch": 58,
                "velocity": 80,
                "duration": 0.2045455,
                "tempo": 120.0
            },
            {
                "start_time": 8.5681818,
                "end_time": 9.8272727,
                "pitch": 54,
                "velocity": 80,
                "duration": 1.2590909,
                "tempo": 120.0
            },
            {
                "start_time": 9.8454545,
                "end_time": 9.9295455,
                "pitch": 56,
                "velocity": 80,
                "duration": 0.0840909,
                "tempo": 120.0
            },
            {
                "start_time": 9.9477273,
                "end_time": 10.05,
                "pitch": 58,
                "velocity": 80,
                "duration": 0.1022727,
                "tempo": 120.0
            },
            {
                "start_time": 10.0681818,
                "end_time": 10.15,
                "pitch": 59,
                "velocity": 80,
                "duration": 0.0818182,
                "tempo": 120.0
            },
            {
                "start_time": 10.1681818,
                "end_time": 10.2681818,
                "pitch": 56,
                "velocity": 80,
                "duration": 0.1,
                "tempo": 120.0
            },
            {
                "start_time": 10.2840909,
                "end_time": 11.5477273,
                "pitch": 58,
                "velocity": 80,
                "duration": 1.2636364,
                "tempo": 120.0
            },
            {
                "start_time": 11.5636364,
                "end_time": 11.7659091,
                "pitch": 56,
                "velocity": 80,
                "duration": 0.2022727,
                "tempo": 120.0
            },
            {
                "start_time": 11.7818182,
                "end_time": 11.9704545,
                "pitch": 58,
                "velocity": 80,
                "duration": 0.1886364,
                "tempo": 120.0
            },
            {
                "start_time": 11.9863636,
                "end_time": 12.4,
                "pitch": 54,
                "velocity": 80,
                "duration": 0.4136364,
                "tempo": 120.0
            },
            {
                "start_time": 12.4159091,
                "end_time": 12.5113636,
                "pitch": 61,
                "velocity": 80,
                "duration": 0.0954545,
                "tempo": 120.0
            },
            {
                "start_time": 12.5272727,
                "end_time": 12.6409091,
                "pitch": 61,
                "velocity": 80,
                "duration": 0.1136364,
                "tempo": 120.0
            },
            {
                "start_time": 12.725,
                "end_time": 12.8272727,
                "pitch": 60,
                "velocity": 80,
                "duration": 0.1022727,
                "tempo": 120.0
            },
            {
                "start_time": 12.8454545,
                "end_time": 12.9659091,
                "pitch": 60,
                "velocity": 80,
                "duration": 0.1204545,
                "tempo": 120.0
            },
            {
                "start_time": 13.0681818,
                "end_time": 13.1522727,
                "pitch": 59,
                "velocity": 80,
                "duration": 0.0840909,
                "tempo": 120.0
            },
            {
                "start_time": 13.1681818,
                "end_time": 13.2681818,
                "pitch": 59,
                "velocity": 80,
                "duration": 0.1,
                "tempo": 120.0
            },
            {
                "start_time": 13.2840909,
                "end_time": 13.3681818,
                "pitch": 58,
                "velocity": 80,
                "duration": 0.0840909,
                "tempo": 120.0
            },
            {
                "start_time": 13.3863636,
                "end_time": 13.4681818,
                "pitch": 58,
                "velocity": 80,
                "duration": 0.0818182,
                "tempo": 120.0
            },
            {
                "start_time": 13.6931818,
                "end_time": 14.9636364,
                "pitch": 58,
                "velocity": 80,
                "duration": 1.2704545,
                "tempo": 120.0
            },
            {
                "start_time": 14.9795455,
                "end_time": 15.1818182,
                "pitch": 56,
                "velocity": 80,
                "duration": 0.2022727,
                "tempo": 120.0
            },
            {
                "start_time": 15.1977273,
                "end_time": 15.3977273,
                "pitch": 58,
                "velocity": 80,
                "duration": 0.2,
                "tempo": 120.0
            },
            {
                "start_time": 15.4159091,
                "end_time": 16.6818182,
                "pitch": 54,
                "velocity": 80,
                "duration": 1.2659091,
                "tempo": 120.0
            },
            {
                "start_time": 16.7,
                "end_time": 16.7977273,
                "pitch": 56,
                "velocity": 80,
                "duration": 0.0977273,
                "tempo": 120.0
            },
            {
                "start_time": 16.8136364,
                "end_time": 16.8954545,
                "pitch": 58,
                "velocity": 80,
                "duration": 0.0818182,
                "tempo": 120.0
            },
            {
                "start_time": 16.9113636,
                "end_time": 17.0136364,
                "pitch": 59,
                "velocity": 80,
                "duration": 0.1022727,
                "tempo": 120.0
            },
            {
                "start_time": 17.0295455,
                "end_time": 17.1136364,
                "pitch": 56,
                "velocity": 80,
                "duration": 0.0840909,
                "tempo": 120.0
            },
            {
                "start_time": 17.1295455,
                "end_time": 18.4,
                "pitch": 58,
                "velocity": 80,
                "duration": 1.2704545,
                "tempo": 120.0
            },
            {
                "start_time": 18.4159091,
                "end_time": 18.6090909,
                "pitch": 56,
                "velocity": 80,
                "duration": 0.1931818,
                "tempo": 120.0
            },
            {
                "start_time": 18.625,
                "end_time": 18.8295455,
                "pitch": 58,
                "velocity": 80,
                "duration": 0.2045455,
                "tempo": 120.0
            },
            {
                "start_time": 18.8454545,
                "end_time": 20.1136364,
                "pitch": 54,
                "velocity": 80,
                "duration": 1.2681818,
                "tempo": 120.0
            },
            {
                "start_time": 20.1295455,
                "end_time": 20.2136364,
                "pitch": 56,
                "velocity": 80,
                "duration": 0.0840909,
                "tempo": 120.0
            },
            {
                "start_time": 20.2295455,
                "end_time": 20.3318182,
                "pitch": 58,
                "velocity": 80,
                "duration": 0.1022727,
                "tempo": 120.0
            },
            {
                "start_time": 20.3477273,
                "end_time": 20.4318182,
                "pitch": 59,
                "velocity": 80,
                "duration": 0.0840909,
                "tempo": 120.0
            },
            {
                "start_time": 20.4477273,
                "end_time": 20.5477273,
                "pitch": 56,
                "velocity": 80,
                "duration": 0.1,
                "tempo": 120.0
            },
            {
                "start_time": 20.5659091,
                "end_time": 21.8295455,
                "pitch": 58,
                "velocity": 80,
                "duration": 1.2636364,
                "tempo": 120.0
            },
            {
                "start_time": 21.8454545,
                "end_time": 22.0522727,
                "pitch": 56,
                "velocity": 80,
                "duration": 0.2068182,
                "tempo": 120.0
            },
            {
                "start_time": 22.0681818,
                "end_time": 22.2681818,
                "pitch": 58,
                "velocity": 80,
                "duration": 0.2,
                "tempo": 120.0
            },
            {
                "start_time": 22.2863636,
                "end_time": 23.5477273,
                "pitch": 54,
                "velocity": 80,
                "duration": 1.2613636,
                "tempo": 120.0
            },
            {
                "start_time": 23.5659091,
                "end_time": 23.65,
                "pitch": 56,
                "velocity": 80,
                "duration": 0.0840909,
                "tempo": 120.0
            },
            {
                "start_time": 23.6659091,
                "end_time": 23.7659091,
                "pitch": 58,
                "velocity": 80,
                "duration": 0.1,
                "tempo": 120.0
            },
            {
                "start_time": 23.7818182,
                "end_time": 23.8681818,
                "pitch": 59,
                "velocity": 80,
                "duration": 0.0863636,
                "tempo": 120.0
            },
            {
                "start_time": 23.8863636,
                "end_time": 23.9704545,
                "pitch": 56,
                "velocity": 80,
                "duration": 0.0840909,
                "tempo": 120.0
            },
            {
                "start_time": 23.9886364,
                "end_time": 25.2704545,
                "pitch": 58,
                "velocity": 80,
                "duration": 1.2818182,
                "tempo": 120.0
            },
            {
                "start_time": 25.2863636,
                "end_time": 25.4704545,
                "pitch": 56,
                "velocity": 80,
                "duration": 0.1840909,
                "tempo": 120.0
            },
            {
                "start_time": 25.4863636,
                "end_time": 25.6840909,
                "pitch": 58,
                "velocity": 80,
                "duration": 0.1977273,
                "tempo": 120.0
            },
            {
                "start_time": 25.7,
                "end_time": 26.1136364,
                "pitch": 54,
                "velocity": 80,
                "duration": 0.4136364,
                "tempo": 120.0
            },
            {
                "start_time": 26.1295455,
                "end_time": 26.2136364,
                "pitch": 61,
                "velocity": 80,
                "duration": 0.0840909,
                "tempo": 120.0
            },
            {
                "start_time": 26.2318182,
                "end_time": 26.3477273,
                "pitch": 61,
                "velocity": 80,
                "duration": 0.1159091,
                "tempo": 120.0
            },
            {
                "start_time": 26.4454545,
                "end_time": 26.5454545,
                "pitch": 60,
                "velocity": 80,
                "duration": 0.1,
                "tempo": 120.0
            },
            {
                "start_time": 26.5613636,
                "end_time": 26.675,
                "pitch": 60,
                "velocity": 80,
                "duration": 0.1136364,
                "tempo": 120.0
            },
            {
                "start_time": 26.775,
                "end_time": 26.8590909,
                "pitch": 59,
                "velocity": 80,
                "duration": 0.0840909,
                "tempo": 120.0
            },
            {
                "start_time": 26.8772727,
                "end_time": 26.9613636,
                "pitch": 71,
                "velocity": 80,
                "duration": 0.0840909,
                "tempo": 120.0
            },
            {
                "start_time": 26.9795455,
                "end_time": 27.0818182,
                "pitch": 58,
                "velocity": 80,
                "duration": 0.1022727,
                "tempo": 120.0
            },
            {
                "start_time": 27.1,
                "end_time": 27.1840909,
                "pitch": 58,
                "velocity": 80,
                "duration": 0.0840909,
                "tempo": 120.0
            },
            {
                "start_time": 27.4181818,
                "end_time": 27.7204545,
                "pitch": 61,
                "velocity": 80,
                "duration": 0.3022727,
                "tempo": 120.0
            },
            {
                "start_time": 27.7363636,
                "end_time": 27.8045455,
                "pitch": 63,
                "velocity": 80,
                "duration": 0.0681818,
                "tempo": 120.0
            },
            {
                "start_time": 28.0727273,
                "end_time": 28.4727273,
                "pitch": 59,
                "velocity": 80,
                "duration": 0.4,
                "tempo": 120.0
            },
            {
                "start_time": 28.4909091,
                "end_time": 28.6863636,
                "pitch": 61,
                "velocity": 80,
                "duration": 0.1954545,
                "tempo": 120.0
            },
            {
                "start_time": 28.7022727,
                "end_time": 28.9,
                "pitch": 63,
                "velocity": 80,
                "duration": 0.1977273,
                "tempo": 120.0
            },
            {
                "start_time": 28.9159091,
                "end_time": 29.1159091,
                "pitch": 59,
                "velocity": 80,
                "duration": 0.2,
                "tempo": 120.0
            },
            {
                "start_time": 29.1340909,
                "end_time": 29.4340909,
                "pitch": 61,
                "velocity": 80,
                "duration": 0.3,
                "tempo": 120.0
            },
            {
                "start_time": 29.4522727,
                "end_time": 29.5181818,
                "pitch": 63,
                "velocity": 80,
                "duration": 0.0659091,
                "tempo": 120.0
            },
            {
                "start_time": 29.7863636,
                "end_time": 30.4045455,
                "pitch": 63,
                "velocity": 80,
                "duration": 0.6181818,
                "tempo": 120.0
            },
            {
                "start_time": 30.4227273,
                "end_time": 30.5227273,
                "pitch": 63,
                "velocity": 80,
                "duration": 0.1,
                "tempo": 120.0
            },
            {
                "start_time": 30.5386364,
                "end_time": 30.6227273,
                "pitch": 59,
                "velocity": 80,
                "duration": 0.0840909,
                "tempo": 120.0
            },
            {
                "start_time": 30.6386364,
                "end_time": 30.7227273,
                "pitch": 65,
                "velocity": 80,
                "duration": 0.0840909,
                "tempo": 120.0
            },
            {
                "start_time": 30.7409091,
                "end_time": 30.8409091,
                "pitch": 61,
                "velocity": 80,
                "duration": 0.1,
                "tempo": 120.0
            },
            {
                "start_time": 30.8568182,
                "end_time": 31.0590909,
                "pitch": 68,
                "velocity": 80,
                "duration": 0.2022727,
                "tempo": 120.0
            },
            {
                "start_time": 31.075,
                "end_time": 31.125,
                "pitch": 66,
                "velocity": 80,
                "duration": 0.05,
                "tempo": 120.0
            },
            {
                "start_time": 31.8204545,
                "end_time": 32.0204545,
                "pitch": 68,
                "velocity": 80,
                "duration": 0.2,
                "tempo": 120.0
            },
            {
                "start_time": 32.0363636,
                "end_time": 32.0863636,
                "pitch": 66,
                "velocity": 80,
                "duration": 0.05,
                "tempo": 120.0
            },
            {
                "start_time": 32.7886364,
                "end_time": 32.8727273,
                "pitch": 68,
                "velocity": 80,
                "duration": 0.0840909,
                "tempo": 120.0
            },
            {
                "start_time": 32.8886364,
                "end_time": 32.9409091,
                "pitch": 66,
                "velocity": 80,
                "duration": 0.0522727,
                "tempo": 120.0
            },
            {
                "start_time": 33.5340909,
                "end_time": 33.5840909,
                "pitch": 68,
                "velocity": 80,
                "duration": 0.05,
                "tempo": 120.0
            },
            {
                "start_time": 33.7363636,
                "end_time": 33.8045455,
                "pitch": 66,
                "velocity": 80,
                "duration": 0.0681818,
                "tempo": 120.0
            },
            {
                "start_time": 34.2954545,
                "end_time": 34.5954545,
                "pitch": 61,
                "velocity": 80,
                "duration": 0.3,
                "tempo": 120.0
            },
            {
                "start_time": 34.6113636,
                "end_time": 34.6590909,
                "pitch": 63,
                "velocity": 80,
                "duration": 0.0477273,
                "tempo": 120.0
            },
            {
                "start_time": 34.9227273,
                "end_time": 35.3409091,
                "pitch": 59,
                "velocity": 80,
                "duration": 0.4181818,
                "tempo": 120.0
            },
            {
                "start_time": 35.3568182,
                "end_time": 35.5590909,
                "pitch": 61,
                "velocity": 80,
                "duration": 0.2022727,
                "tempo": 120.0
            },
            {
                "start_time": 35.575,
                "end_time": 35.775,
                "pitch": 63,
                "velocity": 80,
                "duration": 0.2,
                "tempo": 120.0
            },
            {
                "start_time": 35.7931818,
                "end_time": 35.9795455,
                "pitch": 59,
                "velocity": 80,
                "duration": 0.1863636,
                "tempo": 120.0
            },
            {
                "start_time": 35.9977273,
                "end_time": 36.3159091,
                "pitch": 61,
                "velocity": 80,
                "duration": 0.3181818,
                "tempo": 120.0
            },
            {
                "start_time": 36.3318182,
                "end_time": 36.3795455,
                "pitch": 63,
                "velocity": 80,
                "duration": 0.0477273,
                "tempo": 120.0
            },
            {
                "start_time": 36.6340909,
                "end_time": 37.2795455,
                "pitch": 63,
                "velocity": 80,
                "duration": 0.6454545,
                "tempo": 120.0
            },
            {
                "start_time": 37.2954545,
                "end_time": 37.3795455,
                "pitch": 63,
                "velocity": 80,
                "duration": 0.0840909,
                "tempo": 120.0
            },
            {
                "start_time": 37.3954545,
                "end_time": 37.4795455,
                "pitch": 59,
                "velocity": 80,
                "duration": 0.0840909,
                "tempo": 120.0
            },
            {
                "start_time": 37.4954545,
                "end_time": 37.5954545,
                "pitch": 65,
                "velocity": 80,
                "duration": 0.1,
                "tempo": 120.0
            },
            {
                "start_time": 37.6113636,
                "end_time": 37.6931818,
                "pitch": 61,
                "velocity": 80,
                "duration": 0.0818182,
                "tempo": 120.0
            },
            {
                "start_time": 37.7090909,
                "end_time": 37.9068182,
                "pitch": 68,
                "velocity": 80,
                "duration": 0.1977273,
                "tempo": 120.0
            },
            {
                "start_time": 37.9227273,
                "end_time": 37.9727273,
                "pitch": 66,
                "velocity": 80,
                "duration": 0.05,
                "tempo": 120.0
            },
            {
                "start_time": 38.675,
                "end_time": 38.8772727,
                "pitch": 68,
                "velocity": 80,
                "duration": 0.2022727,
                "tempo": 120.0
            },
            {
                "start_time": 38.8954545,
                "end_time": 38.9454545,
                "pitch": 66,
                "velocity": 80,
                "duration": 0.05,
                "tempo": 120.0
            },
            {
                "start_time": 39.6340909,
                "end_time": 39.7181818,
                "pitch": 68,
                "velocity": 80,
                "duration": 0.0840909,
                "tempo": 120.0
            },
            {
                "start_time": 39.7363636,
                "end_time": 39.8045455,
                "pitch": 66,
                "velocity": 80,
                "duration": 0.0681818,
                "tempo": 120.0
            },
            {
                "start_time": 40.3954545,
                "end_time": 40.4477273,
                "pitch": 68,
                "velocity": 80,
                "duration": 0.0522727,
                "tempo": 120.0
            },
            {
                "start_time": 40.6113636,
                "end_time": 40.6613636,
                "pitch": 66,
                "velocity": 80,
                "duration": 0.05,
                "tempo": 120.0
            },
            {
                "start_time": 41.1409091,
                "end_time": 42.4113636,
                "pitch": 58,
                "velocity": 80,
                "duration": 1.2704545,
                "tempo": 120.0
            },
            {
                "start_time": 42.4272727,
                "end_time": 42.6181818,
                "pitch": 56,
                "velocity": 80,
                "duration": 0.1909091,
                "tempo": 120.0
            },
            {
                "start_time": 42.6340909,
                "end_time": 42.8386364,
                "pitch": 58,
                "velocity": 80,
                "duration": 0.2045455,
                "tempo": 120.0
            },
            {
                "start_time": 42.8568182,
                "end_time": 44.125,
                "pitch": 54,
                "velocity": 80,
                "duration": 1.2681818,
                "tempo": 120.0
            },
            {
                "start_time": 44.1409091,
                "end_time": 44.225,
                "pitch": 56,
                "velocity": 80,
                "duration": 0.0840909,
                "tempo": 120.0
            },
            {
                "start_time": 44.2409091,
                "end_time": 44.3409091,
                "pitch": 58,
                "velocity": 80,
                "duration": 0.1,
                "tempo": 120.0
            },
            {
                "start_time": 44.3590909,
                "end_time": 44.4409091,
                "pitch": 59,
                "velocity": 80,
                "duration": 0.0818182,
                "tempo": 120.0
            },
            {
                "start_time": 44.4590909,
                "end_time": 44.5590909,
                "pitch": 56,
                "velocity": 80,
                "duration": 0.1,
                "tempo": 120.0
            },
            {
                "start_time": 44.575,
                "end_time": 45.8386364,
                "pitch": 58,
                "velocity": 80,
                "duration": 1.2636364,
                "tempo": 120.0
            },
            {
                "start_time": 45.8568182,
                "end_time": 46.0613636,
                "pitch": 56,
                "velocity": 80,
                "duration": 0.2045455,
                "tempo": 120.0
            },
            {
                "start_time": 46.0795455,
                "end_time": 46.2795455,
                "pitch": 58,
                "velocity": 80,
                "duration": 0.2,
                "tempo": 120.0
            },
            {
                "start_time": 46.2977273,
                "end_time": 46.6931818,
                "pitch": 54,
                "velocity": 80,
                "duration": 0.3954545,
                "tempo": 120.0
            },
            {
                "start_time": 46.7113636,
                "end_time": 46.8090909,
                "pitch": 61,
                "velocity": 80,
                "duration": 0.0977273,
                "tempo": 120.0
            },
            {
                "start_time": 46.825,
                "end_time": 46.9409091,
                "pitch": 61,
                "velocity": 80,
                "duration": 0.1159091,
                "tempo": 120.0
            },
            {
                "start_time": 47.0409091,
                "end_time": 47.125,
                "pitch": 60,
                "velocity": 80,
                "duration": 0.0840909,
                "tempo": 120.0
            },
            {
                "start_time": 47.1409091,
                "end_time": 47.2590909,
                "pitch": 60,
                "velocity": 80,
                "duration": 0.1181818,
                "tempo": 120.0
            },
            {
                "start_time": 47.3590909,
                "end_time": 47.4431818,
                "pitch": 59,
                "velocity": 80,
                "duration": 0.0840909,
                "tempo": 120.0
            },
            {
                "start_time": 47.4590909,
                "end_time": 47.5590909,
                "pitch": 59,
                "velocity": 80,
                "duration": 0.1,
                "tempo": 120.0
            },
            {
                "start_time": 47.575,
                "end_time": 47.6590909,
                "pitch": 58,
                "velocity": 80,
                "duration": 0.0840909,
                "tempo": 120.0
            },
            {
                "start_time": 47.6772727,
                "end_time": 47.7772727,
                "pitch": 58,
                "velocity": 80,
                "duration": 0.1,
                "tempo": 120.0
            },
            {
                "start_time": 47.9909091,
                "end_time": 48.3022727,
                "pitch": 61,
                "velocity": 80,
                "duration": 0.3113636,
                "tempo": 120.0
            },
            {
                "start_time": 48.3204545,
                "end_time": 48.3704545,
                "pitch": 63,
                "velocity": 80,
                "duration": 0.05,
                "tempo": 120.0
            },
            {
                "start_time": 48.6386364,
                "end_time": 49.0659091,
                "pitch": 59,
                "velocity": 80,
                "duration": 0.4272727,
                "tempo": 120.0
            },
            {
                "start_time": 49.0818182,
                "end_time": 49.2840909,
                "pitch": 61,
                "velocity": 80,
                "duration": 0.2022727,
                "tempo": 120.0
            },
            {
                "start_time": 49.3,
                "end_time": 49.4840909,
                "pitch": 63,
                "velocity": 80,
                "duration": 0.1840909,
                "tempo": 120.0
            },
            {
                "start_time": 49.5,
                "end_time": 49.6977273,
                "pitch": 59,
                "velocity": 80,
                "duration": 0.1977273,
                "tempo": 120.0
            },
            {
                "start_time": 49.7136364,
                "end_time": 50.0272727,
                "pitch": 61,
                "velocity": 80,
                "duration": 0.3136364,
                "tempo": 120.0
            },
            {
                "start_time": 50.0431818,
                "end_time": 50.0931818,
                "pitch": 63,
                "velocity": 80,
                "duration": 0.05,
                "tempo": 120.0
            },
            {
                "start_time": 50.3613636,
                "end_time": 50.9840909,
                "pitch": 63,
                "velocity": 80,
                "duration": 0.6227273,
                "tempo": 120.0
            },
            {
                "start_time": 51.0022727,
                "end_time": 51.1045455,
                "pitch": 63,
                "velocity": 80,
                "duration": 0.1022727,
                "tempo": 120.0
            },
            {
                "start_time": 51.1227273,
                "end_time": 51.2068182,
                "pitch": 59,
                "velocity": 80,
                "duration": 0.0840909,
                "tempo": 120.0
            },
            {
                "start_time": 51.225,
                "end_time": 51.3227273,
                "pitch": 65,
                "velocity": 80,
                "duration": 0.0977273,
                "tempo": 120.0
            },
            {
                "start_time": 51.3386364,
                "end_time": 51.4204545,
                "pitch": 61,
                "velocity": 80,
                "duration": 0.0818182,
                "tempo": 120.0
            },
            {
                "start_time": 51.4386364,
                "end_time": 51.6340909,
                "pitch": 68,
                "velocity": 80,
                "duration": 0.1954545,
                "tempo": 120.0
            },
            {
                "start_time": 51.65,
                "end_time": 51.7,
                "pitch": 66,
                "velocity": 80,
                "duration": 0.05,
                "tempo": 120.0
            },
            {
                "start_time": 52.4045455,
                "end_time": 52.6022727,
                "pitch": 68,
                "velocity": 80,
                "duration": 0.1977273,
                "tempo": 120.0
            },
            {
                "start_time": 52.6181818,
                "end_time": 52.6681818,
                "pitch": 66,
                "velocity": 80,
                "duration": 0.05,
                "tempo": 120.0
            },
            {
                "start_time": 53.3659091,
                "end_time": 53.4477273,
                "pitch": 68,
                "velocity": 80,
                "duration": 0.0818182,
                "tempo": 120.0
            },
            {
                "start_time": 53.4659091,
                "end_time": 53.5318182,
                "pitch": 66,
                "velocity": 80,
                "duration": 0.0659091,
                "tempo": 120.0
            },
            {
                "start_time": 54.1181818,
                "end_time": 54.1681818,
                "pitch": 68,
                "velocity": 80,
                "duration": 0.05,
                "tempo": 120.0
            },
            {
                "start_time": 54.3340909,
                "end_time": 54.3818182,
                "pitch": 66,
                "velocity": 80,
                "duration": 0.0477273,
                "tempo": 120.0
            },
            {
                "start_time": 54.8659091,
                "end_time": 55.1727273,
                "pitch": 61,
                "velocity": 80,
                "duration": 0.3068182,
                "tempo": 120.0
            },
            {
                "start_time": 55.1886364,
                "end_time": 55.2386364,
                "pitch": 63,
                "velocity": 80,
                "duration": 0.05,
                "tempo": 120.0
            },
            {
                "start_time": 55.5068182,
                "end_time": 55.9159091,
                "pitch": 59,
                "velocity": 80,
                "duration": 0.4090909,
                "tempo": 120.0
            },
            {
                "start_time": 55.9340909,
                "end_time": 56.1340909,
                "pitch": 61,
                "velocity": 80,
                "duration": 0.2,
                "tempo": 120.0
            },
            {
                "start_time": 56.15,
                "end_time": 56.3522727,
                "pitch": 63,
                "velocity": 80,
                "duration": 0.2022727,
                "tempo": 120.0
            },
            {
                "start_time": 56.3681818,
                "end_time": 56.5727273,
                "pitch": 59,
                "velocity": 80,
                "duration": 0.2045455,
                "tempo": 120.0
            },
            {
                "start_time": 56.5909091,
                "end_time": 56.8954545,
                "pitch": 61,
                "velocity": 80,
                "duration": 0.3045455,
                "tempo": 120.0
            },
            {
                "start_time": 56.9136364,
                "end_time": 56.9636364,
                "pitch": 63,
                "velocity": 80,
                "duration": 0.05,
                "tempo": 120.0
            },
            {
                "start_time": 57.2318182,
                "end_time": 57.85,
                "pitch": 63,
                "velocity": 80,
                "duration": 0.6181818,
                "tempo": 120.0
            },
            {
                "start_time": 57.8659091,
                "end_time": 57.9522727,
                "pitch": 63,
                "velocity": 80,
                "duration": 0.0863636,
                "tempo": 120.0
            },
            {
                "start_time": 57.9704545,
                "end_time": 58.0727273,
                "pitch": 59,
                "velocity": 80,
                "duration": 0.1022727,
                "tempo": 120.0
            },
            {
                "start_time": 58.0886364,
                "end_time": 58.1727273,
                "pitch": 65,
                "velocity": 80,
                "duration": 0.0840909,
                "tempo": 120.0
            },
            {
                "start_time": 58.1909091,
                "end_time": 58.2909091,
                "pitch": 61,
                "velocity": 80,
                "duration": 0.1,
                "tempo": 120.0
            },
            {
                "start_time": 58.3068182,
                "end_time": 58.4909091,
                "pitch": 68,
                "velocity": 80,
                "duration": 0.1840909,
                "tempo": 120.0
            },
            {
                "start_time": 58.5068182,
                "end_time": 58.5727273,
                "pitch": 66,
                "velocity": 80,
                "duration": 0.0659091,
                "tempo": 120.0
            },
            {
                "start_time": 59.2522727,
                "end_time": 59.4522727,
                "pitch": 68,
                "velocity": 80,
                "duration": 0.2,
                "tempo": 120.0
            },
            {
                "start_time": 59.4681818,
                "end_time": 59.5363636,
                "pitch": 66,
                "velocity": 80,
                "duration": 0.0681818,
                "tempo": 120.0
            },
            {
                "start_time": 60.2227273,
                "end_time": 60.3204545,
                "pitch": 68,
                "velocity": 80,
                "duration": 0.0977273,
                "tempo": 120.0
            },
            {
                "start_time": 60.3363636,
                "end_time": 60.3863636,
                "pitch": 66,
                "velocity": 80,
                "duration": 0.05,
                "tempo": 120.0
            },
            {
                "start_time": 60.9727273,
                "end_time": 61.0409091,
                "pitch": 68,
                "velocity": 80,
                "duration": 0.0681818,
                "tempo": 120.0
            },
            {
                "start_time": 61.1931818,
                "end_time": 61.2431818,
                "pitch": 66,
                "velocity": 80,
                "duration": 0.05,
                "tempo": 120.0
            },
            {
                "start_time": 61.725,
                "end_time": 62.0363636,
                "pitch": 59,
                "velocity": 80,
                "duration": 0.3113636,
                "tempo": 120.0
            },
            {
                "start_time": 62.0545455,
                "end_time": 62.3545455,
                "pitch": 58,
                "velocity": 80,
                "duration": 0.3,
                "tempo": 120.0
            },
            {
                "start_time": 62.3727273,
                "end_time": 63.4227273,
                "pitch": 49,
                "velocity": 80,
                "duration": 1.05,
                "tempo": 120.0
            },
            {
                "start_time": 63.4386364,
                "end_time": 63.7363636,
                "pitch": 59,
                "velocity": 80,
                "duration": 0.2977273,
                "tempo": 120.0
            },
            {
                "start_time": 63.7545455,
                "end_time": 64.0795455,
                "pitch": 58,
                "velocity": 80,
                "duration": 0.325,
                "tempo": 120.0
            },
            {
                "start_time": 64.0954545,
                "end_time": 65.1340909,
                "pitch": 56,
                "velocity": 80,
                "duration": 1.0386364,
                "tempo": 120.0
            },
            {
                "start_time": 65.15,
                "end_time": 65.4568182,
                "pitch": 59,
                "velocity": 80,
                "duration": 0.3068182,
                "tempo": 120.0
            },
            {
                "start_time": 65.4727273,
                "end_time": 65.7909091,
                "pitch": 58,
                "velocity": 80,
                "duration": 0.3181818,
                "tempo": 120.0
            },
            {
                "start_time": 65.8068182,
                "end_time": 66.8568182,
                "pitch": 63,
                "velocity": 80,
                "duration": 1.05,
                "tempo": 120.0
            },
            {
                "start_time": 66.8727273,
                "end_time": 67.1795455,
                "pitch": 59,
                "velocity": 80,
                "duration": 0.3068182,
                "tempo": 120.0
            },
            {
                "start_time": 67.1954545,
                "end_time": 67.4977273,
                "pitch": 58,
                "velocity": 80,
                "duration": 0.3022727,
                "tempo": 120.0
            },
            {
                "start_time": 67.5136364,
                "end_time": 67.7113636,
                "pitch": 54,
                "velocity": 80,
                "duration": 0.1977273,
                "tempo": 120.0
            },
            {
                "start_time": 67.7272727,
                "end_time": 68.5772727,
                "pitch": 56,
                "velocity": 80,
                "duration": 0.85,
                "tempo": 120.0
            },
            {
                "start_time": 68.5931818,
                "end_time": 68.8931818,
                "pitch": 59,
                "velocity": 80,
                "duration": 0.3,
                "tempo": 120.0
            },
            {
                "start_time": 68.9113636,
                "end_time": 69.2113636,
                "pitch": 58,
                "velocity": 80,
                "duration": 0.3,
                "tempo": 120.0
            },
            {
                "start_time": 69.2295455,
                "end_time": 70.2954545,
                "pitch": 49,
                "velocity": 80,
                "duration": 1.0659091,
                "tempo": 120.0
            },
            {
                "start_time": 70.3113636,
                "end_time": 70.6136364,
                "pitch": 59,
                "velocity": 80,
                "duration": 0.3022727,
                "tempo": 120.0
            },
            {
                "start_time": 70.6295455,
                "end_time": 70.9159091,
                "pitch": 58,
                "velocity": 80,
                "duration": 0.2863636,
                "tempo": 120.0
            },
            {
                "start_time": 70.9318182,
                "end_time": 72.0,
                "pitch": 56,
                "velocity": 80,
                "duration": 1.0681818,
                "tempo": 120.0
            },
            {
                "start_time": 72.0159091,
                "end_time": 72.3340909,
                "pitch": 59,
                "velocity": 80,
                "duration": 0.3181818,
                "tempo": 120.0
            },
            {
                "start_time": 72.35,
                "end_time": 72.6363636,
                "pitch": 58,
                "velocity": 80,
                "duration": 0.2863636,
                "tempo": 120.0
            },
            {
                "start_time": 72.6522727,
                "end_time": 73.7113636,
                "pitch": 63,
                "velocity": 80,
                "duration": 1.0590909,
                "tempo": 120.0
            },
            {
                "start_time": 73.7272727,
                "end_time": 74.0409091,
                "pitch": 59,
                "velocity": 80,
                "duration": 0.3136364,
                "tempo": 120.0
            },
            {
                "start_time": 74.0590909,
                "end_time": 74.3590909,
                "pitch": 58,
                "velocity": 80,
                "duration": 0.3,
                "tempo": 120.0
            },
            {
                "start_time": 74.3772727,
                "end_time": 74.5772727,
                "pitch": 54,
                "velocity": 80,
                "duration": 0.2,
                "tempo": 120.0
            },
            {
                "start_time": 74.5931818,
                "end_time": 74.8954545,
                "pitch": 66,
                "velocity": 80,
                "duration": 0.3022727,
                "tempo": 120.0
            },
            {
                "start_time": 74.9136364,
                "end_time": 75.4363636,
                "pitch": 65,
                "velocity": 80,
                "duration": 0.5227273,
                "tempo": 120.0
            },
            {
                "start_time": 75.4522727,
                "end_time": 75.55,
                "pitch": 78,
                "velocity": 80,
                "duration": 0.0977273,
                "tempo": 120.0
            },
            {
                "start_time": 75.5659091,
                "end_time": 75.6477273,
                "pitch": 82,
                "velocity": 80,
                "duration": 0.0818182,
                "tempo": 120.0
            },
            {
                "start_time": 75.6659091,
                "end_time": 75.7477273,
                "pitch": 80,
                "velocity": 80,
                "duration": 0.0818182,
                "tempo": 120.0
            },
            {
                "start_time": 75.7659091,
                "end_time": 75.8659091,
                "pitch": 78,
                "velocity": 80,
                "duration": 0.1,
                "tempo": 120.0
            },
            {
                "start_time": 75.8818182,
                "end_time": 75.9659091,
                "pitch": 80,
                "velocity": 80,
                "duration": 0.0840909,
                "tempo": 120.0
            },
            {
                "start_time": 75.9818182,
                "end_time": 76.0840909,
                "pitch": 78,
                "velocity": 80,
                "duration": 0.1022727,
                "tempo": 120.0
            },
            {
                "start_time": 76.1,
                "end_time": 76.1840909,
                "pitch": 77,
                "velocity": 80,
                "duration": 0.0840909,
                "tempo": 120.0
            },
            {
                "start_time": 76.2,
                "end_time": 76.3,
                "pitch": 78,
                "velocity": 80,
                "duration": 0.1,
                "tempo": 120.0
            },
            {
                "start_time": 76.3181818,
                "end_time": 76.4,
                "pitch": 77,
                "velocity": 80,
                "duration": 0.0818182,
                "tempo": 120.0
            },
            {
                "start_time": 76.4181818,
                "end_time": 76.5022727,
                "pitch": 75,
                "velocity": 80,
                "duration": 0.0840909,
                "tempo": 120.0
            },
            {
                "start_time": 76.5181818,
                "end_time": 76.6159091,
                "pitch": 77,
                "velocity": 80,
                "duration": 0.0977273,
                "tempo": 120.0
            },
            {
                "start_time": 76.6340909,
                "end_time": 76.7159091,
                "pitch": 75,
                "velocity": 80,
                "duration": 0.0818182,
                "tempo": 120.0
            },
            {
                "start_time": 76.7318182,
                "end_time": 76.8295455,
                "pitch": 73,
                "velocity": 80,
                "duration": 0.0977273,
                "tempo": 120.0
            },
            {
                "start_time": 76.8454545,
                "end_time": 76.9272727,
                "pitch": 75,
                "velocity": 80,
                "duration": 0.0818182,
                "tempo": 120.0
            },
            {
                "start_time": 76.9431818,
                "end_time": 77.0454545,
                "pitch": 73,
                "velocity": 80,
                "duration": 0.1022727,
                "tempo": 120.0
            },
            {
                "start_time": 77.0613636,
                "end_time": 77.1454545,
                "pitch": 71,
                "velocity": 80,
                "duration": 0.0840909,
                "tempo": 120.0
            },
            {
                "start_time": 77.1613636,
                "end_time": 77.2454545,
                "pitch": 73,
                "velocity": 80,
                "duration": 0.0840909,
                "tempo": 120.0
            },
            {
                "start_time": 77.2613636,
                "end_time": 77.3636364,
                "pitch": 71,
                "velocity": 80,
                "duration": 0.1022727,
                "tempo": 120.0
            },
            {
                "start_time": 77.3795455,
                "end_time": 77.4636364,
                "pitch": 70,
                "velocity": 80,
                "duration": 0.0840909,
                "tempo": 120.0
            },
            {
                "start_time": 77.4818182,
                "end_time": 77.5840909,
                "pitch": 71,
                "velocity": 80,
                "duration": 0.1022727,
                "tempo": 120.0
            },
            {
                "start_time": 77.6022727,
                "end_time": 77.6863636,
                "pitch": 70,
                "velocity": 80,
                "duration": 0.0840909,
                "tempo": 120.0
            },
            {
                "start_time": 77.7045455,
                "end_time": 77.8068182,
                "pitch": 68,
                "velocity": 80,
                "duration": 0.1022727,
                "tempo": 120.0
            },
            {
                "start_time": 77.8227273,
                "end_time": 77.9068182,
                "pitch": 70,
                "velocity": 80,
                "duration": 0.0840909,
                "tempo": 120.0
            },
            {
                "start_time": 77.925,
                "end_time": 78.0068182,
                "pitch": 68,
                "velocity": 80,
                "duration": 0.0818182,
                "tempo": 120.0
            },
            {
                "start_time": 78.025,
                "end_time": 78.125,
                "pitch": 66,
                "velocity": 80,
                "duration": 0.1,
                "tempo": 120.0
            },
            {
                "start_time": 78.1409091,
                "end_time": 78.225,
                "pitch": 68,
                "velocity": 80,
                "duration": 0.0840909,
                "tempo": 120.0
            },
            {
                "start_time": 78.2431818,
                "end_time": 78.3409091,
                "pitch": 66,
                "velocity": 80,
                "duration": 0.0977273,
                "tempo": 120.0
            },
            {
                "start_time": 78.3568182,
                "end_time": 78.4386364,
                "pitch": 65,
                "velocity": 80,
                "duration": 0.0818182,
                "tempo": 120.0
            },
            {
                "start_time": 78.4545455,
                "end_time": 78.5545455,
                "pitch": 66,
                "velocity": 80,
                "duration": 0.1,
                "tempo": 120.0
            },
            {
                "start_time": 78.5704545,
                "end_time": 78.6522727,
                "pitch": 65,
                "velocity": 80,
                "duration": 0.0818182,
                "tempo": 120.0
            },
            {
                "start_time": 78.6681818,
                "end_time": 78.7522727,
                "pitch": 63,
                "velocity": 80,
                "duration": 0.0840909,
                "tempo": 120.0
            },
            {
                "start_time": 78.7681818,
                "end_time": 78.8681818,
                "pitch": 68,
                "velocity": 80,
                "duration": 0.1,
                "tempo": 120.0
            },
            {
                "start_time": 78.8863636,
                "end_time": 78.9681818,
                "pitch": 66,
                "velocity": 80,
                "duration": 0.0818182,
                "tempo": 120.0
            },
            {
                "start_time": 78.9863636,
                "end_time": 79.0863636,
                "pitch": 65,
                "velocity": 80,
                "duration": 0.1,
                "tempo": 120.0
            },
            {
                "start_time": 79.1022727,
                "end_time": 79.1863636,
                "pitch": 70,
                "velocity": 80,
                "duration": 0.0840909,
                "tempo": 120.0
            },
            {
                "start_time": 79.2045455,
                "end_time": 79.3045455,
                "pitch": 68,
                "velocity": 80,
                "duration": 0.1,
                "tempo": 120.0
            },
            {
                "start_time": 79.3204545,
                "end_time": 79.4045455,
                "pitch": 66,
                "velocity": 80,
                "duration": 0.0840909,
                "tempo": 120.0
            },
            {
                "start_time": 79.4204545,
                "end_time": 79.5045455,
                "pitch": 68,
                "velocity": 80,
                "duration": 0.0840909,
                "tempo": 120.0
            },
            {
                "start_time": 79.5204545,
                "end_time": 79.6204545,
                "pitch": 66,
                "velocity": 80,
                "duration": 0.1,
                "tempo": 120.0
            },
            {
                "start_time": 79.6363636,
                "end_time": 79.7181818,
                "pitch": 65,
                "velocity": 80,
                "duration": 0.0818182,
                "tempo": 120.0
            },
            {
                "start_time": 79.7340909,
                "end_time": 79.8318182,
                "pitch": 70,
                "velocity": 80,
                "duration": 0.0977273,
                "tempo": 120.0
            },
            {
                "start_time": 79.85,
                "end_time": 79.9318182,
                "pitch": 68,
                "velocity": 80,
                "duration": 0.0818182,
                "tempo": 120.0
            },
            {
                "start_time": 79.9477273,
                "end_time": 80.0477273,
                "pitch": 66,
                "velocity": 80,
                "duration": 0.1,
                "tempo": 120.0
            },
            {
                "start_time": 80.0636364,
                "end_time": 80.1477273,
                "pitch": 71,
                "velocity": 80,
                "duration": 0.0840909,
                "tempo": 120.0
            },
            {
                "start_time": 80.1659091,
                "end_time": 80.2477273,
                "pitch": 70,
                "velocity": 80,
                "duration": 0.0818182,
                "tempo": 120.0
            },
            {
                "start_time": 80.2659091,
                "end_time": 80.3659091,
                "pitch": 68,
                "velocity": 80,
                "duration": 0.1,
                "tempo": 120.0
            },
            {
                "start_time": 80.3818182,
                "end_time": 80.4659091,
                "pitch": 73,
                "velocity": 80,
                "duration": 0.0840909,
                "tempo": 120.0
            },
            {
                "start_time": 80.4818182,
                "end_time": 80.5840909,
                "pitch": 71,
                "velocity": 80,
                "duration": 0.1022727,
                "tempo": 120.0
            },
            {
                "start_time": 80.6,
                "end_time": 80.6840909,
                "pitch": 70,
                "velocity": 80,
                "duration": 0.0840909,
                "tempo": 120.0
            },
            {
                "start_time": 80.7,
                "end_time": 80.8,
                "pitch": 71,
                "velocity": 80,
                "duration": 0.1,
                "tempo": 120.0
            },
            {
                "start_time": 80.8181818,
                "end_time": 80.9022727,
                "pitch": 70,
                "velocity": 80,
                "duration": 0.0840909,
                "tempo": 120.0
            },
            {
                "start_time": 80.9204545,
                "end_time": 81.0045455,
                "pitch": 68,
                "velocity": 80,
                "duration": 0.0840909,
                "tempo": 120.0
            },
            {
                "start_time": 81.0227273,
                "end_time": 81.125,
                "pitch": 73,
                "velocity": 80,
                "duration": 0.1022727,
                "tempo": 120.0
            },
            {
                "start_time": 81.1431818,
                "end_time": 81.2272727,
                "pitch": 71,
                "velocity": 80,
                "duration": 0.0840909,
                "tempo": 120.0
            },
            {
                "start_time": 81.2454545,
                "end_time": 81.3431818,
                "pitch": 70,
                "velocity": 80,
                "duration": 0.0977273,
                "tempo": 120.0
            },
            {
                "start_time": 81.3590909,
                "end_time": 81.4409091,
                "pitch": 75,
                "velocity": 80,
                "duration": 0.0818182,
                "tempo": 120.0
            },
            {
                "start_time": 81.4590909,
                "end_time": 81.5568182,
                "pitch": 73,
                "velocity": 80,
                "duration": 0.0977273,
                "tempo": 120.0
            },
            {
                "start_time": 81.5727273,
                "end_time": 81.6545455,
                "pitch": 71,
                "velocity": 80,
                "duration": 0.0818182,
                "tempo": 120.0
            },
            {
                "start_time": 81.6704545,
                "end_time": 81.7545455,
                "pitch": 77,
                "velocity": 80,
                "duration": 0.0840909,
                "tempo": 120.0
            },
            {
                "start_time": 81.7727273,
                "end_time": 81.8727273,
                "pitch": 75,
                "velocity": 80,
                "duration": 0.1,
                "tempo": 120.0
            },
            {
                "start_time": 81.8886364,
                "end_time": 81.9727273,
                "pitch": 73,
                "velocity": 80,
                "duration": 0.0840909,
                "tempo": 120.0
            },
            {
                "start_time": 81.9886364,
                "end_time": 82.0886364,
                "pitch": 78,
                "velocity": 80,
                "duration": 0.1,
                "tempo": 120.0
            },
            {
                "start_time": 82.1068182,
                "end_time": 82.1909091,
                "pitch": 77,
                "velocity": 80,
                "duration": 0.0840909,
                "tempo": 120.0
            },
            {
                "start_time": 82.2068182,
                "end_time": 82.3068182,
                "pitch": 75,
                "velocity": 80,
                "duration": 0.1,
                "tempo": 120.0
            },
            {
                "start_time": 82.3227273,
                "end_time": 82.6204545,
                "pitch": 80,
                "velocity": 80,
                "duration": 0.2977273,
                "tempo": 120.0
            },
            {
                "start_time": 82.6363636,
                "end_time": 83.3659091,
                "pitch": 82,
                "velocity": 80,
                "duration": 0.7295455,
                "tempo": 120.0
            },
            {
                "start_time": 83.3840909,
                "end_time": 83.8022727,
                "pitch": 75,
                "velocity": 80,
                "duration": 0.4181818,
                "tempo": 120.0
            },
            {
                "start_time": 83.8181818,
                "end_time": 84.0022727,
                "pitch": 73,
                "velocity": 80,
                "duration": 0.1840909,
                "tempo": 120.0
            },
            {
                "start_time": 84.0181818,
                "end_time": 84.1204545,
                "pitch": 80,
                "velocity": 80,
                "duration": 0.1022727,
                "tempo": 120.0
            },
            {
                "start_time": 84.1363636,
                "end_time": 84.3340909,
                "pitch": 80,
                "velocity": 80,
                "duration": 0.1977273,
                "tempo": 120.0
            },
            {
                "start_time": 84.3522727,
                "end_time": 85.0886364,
                "pitch": 82,
                "velocity": 80,
                "duration": 0.7363636,
                "tempo": 120.0
            },
            {
                "start_time": 85.1068182,
                "end_time": 85.1909091,
                "pitch": 75,
                "velocity": 80,
                "duration": 0.0840909,
                "tempo": 120.0
            },
            {
                "start_time": 85.2068182,
                "end_time": 85.5090909,
                "pitch": 75,
                "velocity": 80,
                "duration": 0.3022727,
                "tempo": 120.0
            },
            {
                "start_time": 85.525,
                "end_time": 85.7227273,
                "pitch": 73,
                "velocity": 80,
                "duration": 0.1977273,
                "tempo": 120.0
            },
            {
                "start_time": 85.7386364,
                "end_time": 86.0522727,
                "pitch": 78,
                "velocity": 80,
                "duration": 0.3136364,
                "tempo": 120.0
            },
            {
                "start_time": 86.0681818,
                "end_time": 86.3704545,
                "pitch": 78,
                "velocity": 80,
                "duration": 0.3022727,
                "tempo": 120.0
            },
            {
                "start_time": 86.3863636,
                "end_time": 87.2318182,
                "pitch": 80,
                "velocity": 80,
                "duration": 0.8454545,
                "tempo": 120.0
            },
            {
                "start_time": 87.2477273,
                "end_time": 87.4454545,
                "pitch": 77,
                "velocity": 80,
                "duration": 0.1977273,
                "tempo": 120.0
            },
            {
                "start_time": 87.4613636,
                "end_time": 88.3113636,
                "pitch": 78,
                "velocity": 80,
                "duration": 0.85,
                "tempo": 120.0
            },
            {
                "start_time": 88.3272727,
                "end_time": 88.4113636,
                "pitch": 78,
                "velocity": 80,
                "duration": 0.0840909,
                "tempo": 120.0
            },
            {
                "start_time": 88.4272727,
                "end_time": 88.5113636,
                "pitch": 75,
                "velocity": 80,
                "duration": 0.0840909,
                "tempo": 120.0
            },
            {
                "start_time": 88.5272727,
                "end_time": 88.6272727,
                "pitch": 77,
                "velocity": 80,
                "duration": 0.1,
                "tempo": 120.0
            },
            {
                "start_time": 88.6431818,
                "end_time": 88.725,
                "pitch": 78,
                "velocity": 80,
                "duration": 0.0818182,
                "tempo": 120.0
            },
            {
                "start_time": 88.7409091,
                "end_time": 88.8386364,
                "pitch": 80,
                "velocity": 80,
                "duration": 0.0977273,
                "tempo": 120.0
            },
            {
                "start_time": 88.8568182,
                "end_time": 88.9386364,
                "pitch": 77,
                "velocity": 80,
                "duration": 0.0818182,
                "tempo": 120.0
            },
            {
                "start_time": 88.9545455,
                "end_time": 89.0545455,
                "pitch": 78,
                "velocity": 80,
                "duration": 0.1,
                "tempo": 120.0
            },
            {
                "start_time": 89.0704545,
                "end_time": 89.1545455,
                "pitch": 80,
                "velocity": 80,
                "duration": 0.0840909,
                "tempo": 120.0
            },
            {
                "start_time": 89.1727273,
                "end_time": 89.2545455,
                "pitch": 78,
                "velocity": 80,
                "duration": 0.0818182,
                "tempo": 120.0
            },
            {
                "start_time": 89.2727273,
                "end_time": 89.3727273,
                "pitch": 82,
                "velocity": 80,
                "duration": 0.1,
                "tempo": 120.0
            },
            {
                "start_time": 89.3886364,
                "end_time": 89.4727273,
                "pitch": 80,
                "velocity": 80,
                "duration": 0.0840909,
                "tempo": 120.0
            },
            {
                "start_time": 89.4886364,
                "end_time": 89.5909091,
                "pitch": 78,
                "velocity": 80,
                "duration": 0.1022727,
                "tempo": 120.0
            },
            {
                "start_time": 89.6068182,
                "end_time": 89.6909091,
                "pitch": 80,
                "velocity": 80,
                "duration": 0.0840909,
                "tempo": 120.0
            },
            {
                "start_time": 89.7068182,
                "end_time": 89.8068182,
                "pitch": 78,
                "velocity": 80,
                "duration": 0.1,
                "tempo": 120.0
            },
            {
                "start_time": 89.825,
                "end_time": 89.9090909,
                "pitch": 77,
                "velocity": 80,
                "duration": 0.0840909,
                "tempo": 120.0
            },
            {
                "start_time": 89.9272727,
                "end_time": 90.0113636,
                "pitch": 78,
                "velocity": 80,
                "duration": 0.0840909,
                "tempo": 120.0
            },
            {
                "start_time": 90.0295455,
                "end_time": 90.1318182,
                "pitch": 77,
                "velocity": 80,
                "duration": 0.1022727,
                "tempo": 120.0
            },
            {
                "start_time": 90.15,
                "end_time": 90.2340909,
                "pitch": 75,
                "velocity": 80,
                "duration": 0.0840909,
                "tempo": 120.0
            },
            {
                "start_time": 90.2522727,
                "end_time": 90.35,
                "pitch": 77,
                "velocity": 80,
                "duration": 0.0977273,
                "tempo": 120.0
            },
            {
                "start_time": 90.3659091,
                "end_time": 90.4477273,
                "pitch": 75,
                "velocity": 80,
                "duration": 0.0818182,
                "tempo": 120.0
            },
            {
                "start_time": 90.4659091,
                "end_time": 90.5636364,
                "pitch": 73,
                "velocity": 80,
                "duration": 0.0977273,
                "tempo": 120.0
            },
            {
                "start_time": 90.5795455,
                "end_time": 90.6613636,
                "pitch": 75,
                "velocity": 80,
                "duration": 0.0818182,
                "tempo": 120.0
            },
            {
                "start_time": 90.6772727,
                "end_time": 90.7613636,
                "pitch": 73,
                "velocity": 80,
                "duration": 0.0840909,
                "tempo": 120.0
            },
            {
                "start_time": 90.7772727,
                "end_time": 90.8795455,
                "pitch": 71,
                "velocity": 80,
                "duration": 0.1022727,
                "tempo": 120.0
            },
            {
                "start_time": 90.8954545,
                "end_time": 90.9795455,
                "pitch": 73,
                "velocity": 80,
                "duration": 0.0840909,
                "tempo": 120.0
            },
            {
                "start_time": 90.9954545,
                "end_time": 91.0954545,
                "pitch": 71,
                "velocity": 80,
                "duration": 0.1,
                "tempo": 120.0
            },
            {
                "start_time": 91.1136364,
                "end_time": 91.1977273,
                "pitch": 70,
                "velocity": 80,
                "duration": 0.0840909,
                "tempo": 120.0
            },
            {
                "start_time": 91.2136364,
                "end_time": 91.3136364,
                "pitch": 71,
                "velocity": 80,
                "duration": 0.1,
                "tempo": 120.0
            },
            {
                "start_time": 91.3295455,
                "end_time": 91.4136364,
                "pitch": 70,
                "velocity": 80,
                "duration": 0.0840909,
                "tempo": 120.0
            },
            {
                "start_time": 91.4318182,
                "end_time": 91.5136364,
                "pitch": 68,
                "velocity": 80,
                "duration": 0.0818182,
                "tempo": 120.0
            },
            {
                "start_time": 91.5318182,
                "end_time": 91.6295455,
                "pitch": 70,
                "velocity": 80,
                "duration": 0.0977273,
                "tempo": 120.0
            },
            {
                "start_time": 91.6454545,
                "end_time": 91.7272727,
                "pitch": 68,
                "velocity": 80,
                "duration": 0.0818182,
                "tempo": 120.0
            },
            {
                "start_time": 91.7454545,
                "end_time": 91.8431818,
                "pitch": 66,
                "velocity": 80,
                "duration": 0.0977273,
                "tempo": 120.0
            },
            {
                "start_time": 91.8590909,
                "end_time": 91.9409091,
                "pitch": 68,
                "velocity": 80,
                "duration": 0.0818182,
                "tempo": 120.0
            },
            {
                "start_time": 91.9568182,
                "end_time": 92.0568182,
                "pitch": 66,
                "velocity": 80,
                "duration": 0.1,
                "tempo": 120.0
            },
            {
                "start_time": 92.075,
                "end_time": 92.1590909,
                "pitch": 65,
                "velocity": 80,
                "duration": 0.0840909,
                "tempo": 120.0
            },
            {
                "start_time": 92.175,
                "end_time": 92.2590909,
                "pitch": 66,
                "velocity": 80,
                "duration": 0.0840909,
                "tempo": 120.0
            },
            {
                "start_time": 92.275,
                "end_time": 92.375,
                "pitch": 65,
                "velocity": 80,
                "duration": 0.1,
                "tempo": 120.0
            },
            {
                "start_time": 92.3931818,
                "end_time": 92.475,
                "pitch": 63,
                "velocity": 80,
                "duration": 0.0818182,
                "tempo": 120.0
            },
            {
                "start_time": 92.4931818,
                "end_time": 92.5931818,
                "pitch": 68,
                "velocity": 80,
                "duration": 0.1,
                "tempo": 120.0
            },
            {
                "start_time": 92.6090909,
                "end_time": 92.6931818,
                "pitch": 66,
                "velocity": 80,
                "duration": 0.0840909,
                "tempo": 120.0
            },
            {
                "start_time": 92.7113636,
                "end_time": 92.8113636,
                "pitch": 65,
                "velocity": 80,
                "duration": 0.1,
                "tempo": 120.0
            },
            {
                "start_time": 92.8272727,
                "end_time": 92.9136364,
                "pitch": 70,
                "velocity": 80,
                "duration": 0.0863636,
                "tempo": 120.0
            },
            {
                "start_time": 92.9295455,
                "end_time": 93.0159091,
                "pitch": 68,
                "velocity": 80,
                "duration": 0.0863636,
                "tempo": 120.0
            },
            {
                "start_time": 93.0318182,
                "end_time": 93.1340909,
                "pitch": 66,
                "velocity": 80,
                "duration": 0.1022727,
                "tempo": 120.0
            },
            {
                "start_time": 93.1522727,
                "end_time": 93.2386364,
                "pitch": 68,
                "velocity": 80,
                "duration": 0.0863636,
                "tempo": 120.0
            },
            {
                "start_time": 93.2545455,
                "end_time": 93.3545455,
                "pitch": 66,
                "velocity": 80,
                "duration": 0.1,
                "tempo": 120.0
            },
            {
                "start_time": 93.3704545,
                "end_time": 93.4522727,
                "pitch": 65,
                "velocity": 80,
                "duration": 0.0818182,
                "tempo": 120.0
            },
            {
                "start_time": 93.4681818,
                "end_time": 93.5659091,
                "pitch": 70,
                "velocity": 80,
                "duration": 0.0977273,
                "tempo": 120.0
            },
            {
                "start_time": 93.5818182,
                "end_time": 93.6636364,
                "pitch": 68,
                "velocity": 80,
                "duration": 0.0818182,
                "tempo": 120.0
            },
            {
                "start_time": 93.6818182,
                "end_time": 93.7636364,
                "pitch": 66,
                "velocity": 80,
                "duration": 0.0818182,
                "tempo": 120.0
            },
            {
                "start_time": 93.7818182,
                "end_time": 93.8818182,
                "pitch": 71,
                "velocity": 80,
                "duration": 0.1,
                "tempo": 120.0
            },
            {
                "start_time": 93.8977273,
                "end_time": 93.9818182,
                "pitch": 70,
                "velocity": 80,
                "duration": 0.0840909,
                "tempo": 120.0
            },
            {
                "start_time": 94.0,
                "end_time": 94.1,
                "pitch": 68,
                "velocity": 80,
                "duration": 0.1,
                "tempo": 120.0
            },
            {
                "start_time": 94.1159091,
                "end_time": 94.2,
                "pitch": 73,
                "velocity": 80,
                "duration": 0.0840909,
                "tempo": 120.0
            },
            {
                "start_time": 94.2159091,
                "end_time": 94.3159091,
                "pitch": 71,
                "velocity": 80,
                "duration": 0.1,
                "tempo": 120.0
            },
            {
                "start_time": 94.3340909,
                "end_time": 94.4181818,
                "pitch": 70,
                "velocity": 80,
                "duration": 0.0840909,
                "tempo": 120.0
            },
            {
                "start_time": 94.4340909,
                "end_time": 94.5181818,
                "pitch": 71,
                "velocity": 80,
                "duration": 0.0840909,
                "tempo": 120.0
            },
            {
                "start_time": 94.5340909,
                "end_time": 94.6318182,
                "pitch": 70,
                "velocity": 80,
                "duration": 0.0977273,
                "tempo": 120.0
            },
            {
                "start_time": 94.65,
                "end_time": 94.7318182,
                "pitch": 68,
                "velocity": 80,
                "duration": 0.0818182,
                "tempo": 120.0
            },
            {
                "start_time": 94.7477273,
                "end_time": 94.8454545,
                "pitch": 73,
                "velocity": 80,
                "duration": 0.0977273,
                "tempo": 120.0
            },
            {
                "start_time": 94.8613636,
                "end_time": 94.9431818,
                "pitch": 71,
                "velocity": 80,
                "duration": 0.0818182,
                "tempo": 120.0
            },
            {
                "start_time": 94.9613636,
                "end_time": 95.0613636,
                "pitch": 70,
                "velocity": 80,
                "duration": 0.1,
                "tempo": 120.0
            },
            {
                "start_time": 95.0772727,
                "end_time": 95.1613636,
                "pitch": 75,
                "velocity": 80,
                "duration": 0.0840909,
                "tempo": 120.0
            },
            {
                "start_time": 95.1772727,
                "end_time": 95.2613636,
                "pitch": 73,
                "velocity": 80,
                "duration": 0.0840909,
                "tempo": 120.0
            },
            {
                "start_time": 95.2772727,
                "end_time": 95.3795455,
                "pitch": 71,
                "velocity": 80,
                "duration": 0.1022727,
                "tempo": 120.0
            },
            {
                "start_time": 95.3954545,
                "end_time": 95.4795455,
                "pitch": 77,
                "velocity": 80,
                "duration": 0.0840909,
                "tempo": 120.0
            },
            {
                "start_time": 95.4954545,
                "end_time": 95.5954545,
                "pitch": 75,
                "velocity": 80,
                "duration": 0.1,
                "tempo": 120.0
            },
            {
                "start_time": 95.6136364,
                "end_time": 95.6977273,
                "pitch": 73,
                "velocity": 80,
                "duration": 0.0840909,
                "tempo": 120.0
            },
            {
                "start_time": 95.7136364,
                "end_time": 95.8136364,
                "pitch": 78,
                "velocity": 80,
                "duration": 0.1,
                "tempo": 120.0
            },
            {
                "start_time": 95.8295455,
                "end_time": 95.9136364,
                "pitch": 77,
                "velocity": 80,
                "duration": 0.0840909,
                "tempo": 120.0
            },
            {
                "start_time": 95.9318182,
                "end_time": 96.0136364,
                "pitch": 75,
                "velocity": 80,
                "duration": 0.0818182,
                "tempo": 120.0
            },
            {
                "start_time": 96.0318182,
                "end_time": 96.3477273,
                "pitch": 80,
                "velocity": 80,
                "duration": 0.3159091,
                "tempo": 120.0
            },
            {
                "start_time": 96.3636364,
                "end_time": 97.1022727,
                "pitch": 82,
                "velocity": 80,
                "duration": 0.7386364,
                "tempo": 120.0
            },
            {
                "start_time": 97.1181818,
                "end_time": 97.5204545,
                "pitch": 75,
                "velocity": 80,
                "duration": 0.4022727,
                "tempo": 120.0
            },
            {
                "start_time": 97.5363636,
                "end_time": 97.7340909,
                "pitch": 73,
                "velocity": 80,
                "duration": 0.1977273,
                "tempo": 120.0
            },
            {
                "start_time": 97.75,
                "end_time": 97.8477273,
                "pitch": 80,
                "velocity": 80,
                "duration": 0.0977273,
                "tempo": 120.0
            },
            {
                "start_time": 97.8659091,
                "end_time": 98.0636364,
                "pitch": 80,
                "velocity": 80,
                "duration": 0.1977273,
                "tempo": 120.0
            },
            {
                "start_time": 98.0795455,
                "end_time": 98.8159091,
                "pitch": 82,
                "velocity": 80,
                "duration": 0.7363636,
                "tempo": 120.0
            },
            {
                "start_time": 98.8340909,
                "end_time": 98.9181818,
                "pitch": 75,
                "velocity": 80,
                "duration": 0.0840909,
                "tempo": 120.0
            },
            {
                "start_time": 98.9363636,
                "end_time": 99.2431818,
                "pitch": 75,
                "velocity": 80,
                "duration": 0.3068182,
                "tempo": 120.0
            },
            {
                "start_time": 99.2613636,
                "end_time": 99.4590909,
                "pitch": 73,
                "velocity": 80,
                "duration": 0.1977273,
                "tempo": 120.0
            },
            {
                "start_time": 99.475,
                "end_time": 99.7704545,
                "pitch": 78,
                "velocity": 80,
                "duration": 0.2954545,
                "tempo": 120.0
            },
            {
                "start_time": 99.7886364,
                "end_time": 100.1045455,
                "pitch": 78,
                "velocity": 80,
                "duration": 0.3159091,
                "tempo": 120.0
            },
            {
                "start_time": 100.1227273,
                "end_time": 100.95,
                "pitch": 80,
                "velocity": 80,
                "duration": 0.8272727,
                "tempo": 120.0
            },
            {
                "start_time": 100.9659091,
                "end_time": 101.1681818,
                "pitch": 77,
                "velocity": 80,
                "duration": 0.2022727,
                "tempo": 120.0
            },
            {
                "start_time": 101.1840909,
                "end_time": 102.025,
                "pitch": 78,
                "velocity": 80,
                "duration": 0.8409091,
                "tempo": 120.0
            },
            {
                "start_time": 102.0409091,
                "end_time": 102.1454545,
                "pitch": 78,
                "velocity": 80,
                "duration": 0.1045455,
                "tempo": 120.0
            },
            {
                "start_time": 102.1613636,
                "end_time": 102.2477273,
                "pitch": 75,
                "velocity": 80,
                "duration": 0.0863636,
                "tempo": 120.0
            },
            {
                "start_time": 102.2636364,
                "end_time": 102.3590909,
                "pitch": 77,
                "velocity": 80,
                "duration": 0.0954545,
                "tempo": 120.0
            },
            {
                "start_time": 102.375,
                "end_time": 102.4545455,
                "pitch": 78,
                "velocity": 80,
                "duration": 0.0795455,
                "tempo": 120.0
            },
            {
                "start_time": 102.4704545,
                "end_time": 102.5659091,
                "pitch": 80,
                "velocity": 80,
                "duration": 0.0954545,
                "tempo": 120.0
            },
            {
                "start_time": 102.5818182,
                "end_time": 102.6613636,
                "pitch": 77,
                "velocity": 80,
                "duration": 0.0795455,
                "tempo": 120.0
            },
            {
                "start_time": 102.6772727,
                "end_time": 102.7636364,
                "pitch": 78,
                "velocity": 80,
                "duration": 0.0863636,
                "tempo": 120.0
            },
            {
                "start_time": 102.7795455,
                "end_time": 102.8840909,
                "pitch": 80,
                "velocity": 80,
                "duration": 0.1045455,
                "tempo": 120.0
            },
            {
                "start_time": 102.9,
                "end_time": 102.9681818,
                "pitch": 58,
                "velocity": 80,
                "duration": 0.0681818,
                "tempo": 120.0
            }
        ],
        "Vibraphone": [
            {
                "start_time": 0.0159091,
                "end_time": 0.0772727,
                "pitch": 51,
                "velocity": 64,
                "duration": 0.0613636,
                "tempo": 120.0
            },
            {
                "start_time": 0.0931818,
                "end_time": 0.1704545,
                "pitch": 51,
                "velocity": 64,
                "duration": 0.0772727,
                "tempo": 120.0
            },
            {
                "start_time": 0.1863636,
                "end_time": 0.2863636,
                "pitch": 51,
                "velocity": 64,
                "duration": 0.1,
                "tempo": 120.0
            },
            {
                "start_time": 0.3022727,
                "end_time": 0.3863636,
                "pitch": 51,
                "velocity": 64,
                "duration": 0.0840909,
                "tempo": 120.0
            },
            {
                "start_time": 0.4045455,
                "end_time": 0.5045455,
                "pitch": 51,
                "velocity": 64,
                "duration": 0.1,
                "tempo": 120.0
            },
            {
                "start_time": 0.5204545,
                "end_time": 0.6045455,
                "pitch": 51,
                "velocity": 64,
                "duration": 0.0840909,
                "tempo": 120.0
            },
            {
                "start_time": 0.6204545,
                "end_time": 0.7068182,
                "pitch": 51,
                "velocity": 64,
                "duration": 0.0863636,
                "tempo": 120.0
            },
            {
                "start_time": 0.7227273,
                "end_time": 0.8272727,
                "pitch": 51,
                "velocity": 64,
                "duration": 0.1045455,
                "tempo": 120.0
            },
            {
                "start_time": 0.8431818,
                "end_time": 0.9295455,
                "pitch": 51,
                "velocity": 64,
                "duration": 0.0863636,
                "tempo": 120.0
            },
            {
                "start_time": 0.9454545,
                "end_time": 1.0477273,
                "pitch": 51,
                "velocity": 64,
                "duration": 0.1022727,
                "tempo": 120.0
            },
            {
                "start_time": 1.0659091,
                "end_time": 1.15,
                "pitch": 51,
                "velocity": 64,
                "duration": 0.0840909,
                "tempo": 120.0
            },
            {
                "start_time": 1.1659091,
                "end_time": 1.2659091,
                "pitch": 51,
                "velocity": 64,
                "duration": 0.1,
                "tempo": 120.0
            },
            {
                "start_time": 1.2840909,
                "end_time": 1.3659091,
                "pitch": 51,
                "velocity": 64,
                "duration": 0.0818182,
                "tempo": 120.0
            },
            {
                "start_time": 1.3840909,
                "end_time": 1.4681818,
                "pitch": 44,
                "velocity": 64,
                "duration": 0.0840909,
                "tempo": 120.0
            },
            {
                "start_time": 1.4840909,
                "end_time": 1.6818182,
                "pitch": 46,
                "velocity": 64,
                "duration": 0.1977273,
                "tempo": 120.0
            },
            {
                "start_time": 1.6977273,
                "end_time": 1.7954545,
                "pitch": 51,
                "velocity": 64,
                "duration": 0.0977273,
                "tempo": 120.0
            },
            {
                "start_time": 1.8113636,
                "end_time": 1.8931818,
                "pitch": 51,
                "velocity": 64,
                "duration": 0.0818182,
                "tempo": 120.0
            },
            {
                "start_time": 1.9090909,
                "end_time": 2.0113636,
                "pitch": 51,
                "velocity": 64,
                "duration": 0.1022727,
                "tempo": 120.0
            },
            {
                "start_time": 2.0272727,
                "end_time": 2.1113636,
                "pitch": 51,
                "velocity": 64,
                "duration": 0.0840909,
                "tempo": 120.0
            },
            {
                "start_time": 2.1272727,
                "end_time": 2.2113636,
                "pitch": 51,
                "velocity": 64,
                "duration": 0.0840909,
                "tempo": 120.0
            },
            {
                "start_time": 2.2272727,
                "end_time": 2.3272727,
                "pitch": 51,
                "velocity": 64,
                "duration": 0.1,
                "tempo": 120.0
            },
            {
                "start_time": 2.3454545,
                "end_time": 2.4295455,
                "pitch": 51,
                "velocity": 64,
                "duration": 0.0840909,
                "tempo": 120.0
            },
            {
                "start_time": 2.4454545,
                "end_time": 2.5454545,
                "pitch": 51,
                "velocity": 64,
                "duration": 0.1,
                "tempo": 120.0
            },
            {
                "start_time": 2.5636364,
                "end_time": 2.6454545,
                "pitch": 51,
                "velocity": 64,
                "duration": 0.0818182,
                "tempo": 120.0
            },
            {
                "start_time": 2.6636364,
                "end_time": 2.7636364,
                "pitch": 51,
                "velocity": 64,
                "duration": 0.1,
                "tempo": 120.0
            },
            {
                "start_time": 2.7795455,
                "end_time": 2.8659091,
                "pitch": 51,
                "velocity": 64,
                "duration": 0.0863636,
                "tempo": 120.0
            },
            {
                "start_time": 2.8818182,
                "end_time": 3.1909091,
                "pitch": 48,
                "velocity": 64,
                "duration": 0.3090909,
                "tempo": 120.0
            },
            {
                "start_time": 3.2068182,
                "end_time": 3.3977273,
                "pitch": 49,
                "velocity": 64,
                "duration": 0.1909091,
                "tempo": 120.0
            },
            {
                "start_time": 3.4136364,
                "end_time": 3.5113636,
                "pitch": 51,
                "velocity": 64,
                "duration": 0.0977273,
                "tempo": 120.0
            },
            {
                "start_time": 3.5272727,
                "end_time": 3.6068182,
                "pitch": 51,
                "velocity": 64,
                "duration": 0.0795455,
                "tempo": 120.0
            },
            {
                "start_time": 3.6227273,
                "end_time": 3.7068182,
                "pitch": 51,
                "velocity": 64,
                "duration": 0.0840909,
                "tempo": 120.0
            },
            {
                "start_time": 3.725,
                "end_time": 3.8272727,
                "pitch": 51,
                "velocity": 64,
                "duration": 0.1022727,
                "tempo": 120.0
            },
            {
                "start_time": 3.8431818,
                "end_time": 3.9295455,
                "pitch": 51,
                "velocity": 64,
                "duration": 0.0863636,
                "tempo": 120.0
            },
            {
                "start_time": 3.9454545,
                "end_time": 4.05,
                "pitch": 51,
                "velocity": 64,
                "duration": 0.1045455,
                "tempo": 120.0
            },
            {
                "start_time": 4.0659091,
                "end_time": 4.15,
                "pitch": 51,
                "velocity": 64,
                "duration": 0.0840909,
                "tempo": 120.0
            },
            {
                "start_time": 4.1659091,
                "end_time": 4.2659091,
                "pitch": 51,
                "velocity": 64,
                "duration": 0.1,
                "tempo": 120.0
            },
            {
                "start_time": 4.2840909,
                "end_time": 4.3681818,
                "pitch": 51,
                "velocity": 64,
                "duration": 0.0840909,
                "tempo": 120.0
            },
            {
                "start_time": 4.3840909,
                "end_time": 4.4681818,
                "pitch": 51,
                "velocity": 64,
                "duration": 0.0840909,
                "tempo": 120.0
            },
            {
                "start_time": 4.4840909,
                "end_time": 4.5818182,
                "pitch": 51,
                "velocity": 64,
                "duration": 0.0977273,
                "tempo": 120.0
            },
            {
                "start_time": 4.6,
                "end_time": 4.6818182,
                "pitch": 51,
                "velocity": 64,
                "duration": 0.0818182,
                "tempo": 120.0
            },
            {
                "start_time": 4.6977273,
                "end_time": 4.7954545,
                "pitch": 51,
                "velocity": 64,
                "duration": 0.0977273,
                "tempo": 120.0
            },
            {
                "start_time": 4.8113636,
                "end_time": 4.8931818,
                "pitch": 44,
                "velocity": 64,
                "duration": 0.0818182,
                "tempo": 120.0
            },
            {
                "start_time": 4.9113636,
                "end_time": 5.1113636,
                "pitch": 46,
                "velocity": 64,
                "duration": 0.2,
                "tempo": 120.0
            },
            {
                "start_time": 5.1272727,
                "end_time": 5.2113636,
                "pitch": 51,
                "velocity": 64,
                "duration": 0.0840909,
                "tempo": 120.0
            },
            {
                "start_time": 5.2272727,
                "end_time": 5.3295455,
                "pitch": 51,
                "velocity": 64,
                "duration": 0.1022727,
                "tempo": 120.0
            },
            {
                "start_time": 5.3454545,
                "end_time": 5.4295455,
                "pitch": 51,
                "velocity": 64,
                "duration": 0.0840909,
                "tempo": 120.0
            },
            {
                "start_time": 5.4454545,
                "end_time": 5.5454545,
                "pitch": 51,
                "velocity": 64,
                "duration": 0.1,
                "tempo": 120.0
            },
            {
                "start_time": 5.5636364,
                "end_time": 5.6477273,
                "pitch": 51,
                "velocity": 64,
                "duration": 0.0840909,
                "tempo": 120.0
            },
            {
                "start_time": 5.6636364,
                "end_time": 5.7636364,
                "pitch": 51,
                "velocity": 64,
                "duration": 0.1,
                "tempo": 120.0
            },
            {
                "start_time": 5.7795455,
                "end_time": 5.8659091,
                "pitch": 51,
                "velocity": 64,
                "duration": 0.0863636,
                "tempo": 120.0
            },
            {
                "start_time": 5.8818182,
                "end_time": 5.9681818,
                "pitch": 51,
                "velocity": 64,
                "duration": 0.0863636,
                "tempo": 120.0
            },
            {
                "start_time": 5.9863636,
                "end_time": 6.0886364,
                "pitch": 51,
                "velocity": 64,
                "duration": 0.1022727,
                "tempo": 120.0
            },
            {
                "start_time": 6.1045455,
                "end_time": 6.1909091,
                "pitch": 51,
                "velocity": 64,
                "duration": 0.0863636,
                "tempo": 120.0
            },
            {
                "start_time": 6.2068182,
                "end_time": 6.3045455,
                "pitch": 51,
                "velocity": 64,
                "duration": 0.0977273,
                "tempo": 120.0
            },
            {
                "start_time": 6.3204545,
                "end_time": 6.6068182,
                "pitch": 48,
                "velocity": 64,
                "duration": 0.2863636,
                "tempo": 120.0
            },
            {
                "start_time": 6.6227273,
                "end_time": 6.8272727,
                "pitch": 49,
                "velocity": 64,
                "duration": 0.2045455,
                "tempo": 120.0
            },
            {
                "start_time": 6.8431818,
                "end_time": 6.9295455,
                "pitch": 51,
                "velocity": 64,
                "duration": 0.0863636,
                "tempo": 120.0
            },
            {
                "start_time": 6.9477273,
                "end_time": 7.05,
                "pitch": 51,
                "velocity": 64,
                "duration": 0.1022727,
                "tempo": 120.0
            },
            {
                "start_time": 7.0659091,
                "end_time": 7.15,
                "pitch": 51,
                "velocity": 64,
                "duration": 0.0840909,
                "tempo": 120.0
            },
            {
                "start_time": 7.1659091,
                "end_time": 7.2681818,
                "pitch": 51,
                "velocity": 64,
                "duration": 0.1022727,
                "tempo": 120.0
            },
            {
                "start_time": 7.2840909,
                "end_time": 7.3681818,
                "pitch": 51,
                "velocity": 64,
                "duration": 0.0840909,
                "tempo": 120.0
            },
            {
                "start_time": 7.3840909,
                "end_time": 7.4681818,
                "pitch": 51,
                "velocity": 64,
                "duration": 0.0840909,
                "tempo": 120.0
            },
            {
                "start_time": 7.4840909,
                "end_time": 7.5840909,
                "pitch": 51,
                "velocity": 64,
                "duration": 0.1,
                "tempo": 120.0
            },
            {
                "start_time": 7.6,
                "end_time": 7.6818182,
                "pitch": 51,
                "velocity": 64,
                "duration": 0.0818182,
                "tempo": 120.0
            },
            {
                "start_time": 7.6977273,
                "end_time": 7.7954545,
                "pitch": 51,
                "velocity": 64,
                "duration": 0.0977273,
                "tempo": 120.0
            },
            {
                "start_time": 7.8113636,
                "end_time": 7.8954545,
                "pitch": 51,
                "velocity": 64,
                "duration": 0.0840909,
                "tempo": 120.0
            },
            {
                "start_time": 7.9113636,
                "end_time": 8.0113636,
                "pitch": 51,
                "velocity": 64,
                "duration": 0.1,
                "tempo": 120.0
            },
            {
                "start_time": 8.0272727,
                "end_time": 8.1113636,
                "pitch": 51,
                "velocity": 64,
                "duration": 0.0840909,
                "tempo": 120.0
            },
            {
                "start_time": 8.1272727,
                "end_time": 8.2113636,
                "pitch": 51,
                "velocity": 64,
                "duration": 0.0840909,
                "tempo": 120.0
            },
            {
                "start_time": 8.2295455,
                "end_time": 8.3295455,
                "pitch": 44,
                "velocity": 64,
                "duration": 0.1,
                "tempo": 120.0
            },
            {
                "start_time": 8.3454545,
                "end_time": 8.55,
                "pitch": 46,
                "velocity": 64,
                "duration": 0.2045455,
                "tempo": 120.0
            },
            {
                "start_time": 8.5681818,
                "end_time": 8.6522727,
                "pitch": 51,
                "velocity": 64,
                "duration": 0.0840909,
                "tempo": 120.0
            },
            {
                "start_time": 8.6704545,
                "end_time": 8.7727273,
                "pitch": 51,
                "velocity": 64,
                "duration": 0.1022727,
                "tempo": 120.0
            },
            {
                "start_time": 8.7909091,
                "end_time": 8.875,
                "pitch": 51,
                "velocity": 64,
                "duration": 0.0840909,
                "tempo": 120.0
            },
            {
                "start_time": 8.8909091,
                "end_time": 8.975,
                "pitch": 51,
                "velocity": 64,
                "duration": 0.0840909,
                "tempo": 120.0
            },
            {
                "start_time": 8.9909091,
                "end_time": 9.0909091,
                "pitch": 51,
                "velocity": 64,
                "duration": 0.1,
                "tempo": 120.0
            },
            {
                "start_time": 9.1090909,
                "end_time": 9.1909091,
                "pitch": 51,
                "velocity": 64,
                "duration": 0.0818182,
                "tempo": 120.0
            },
            {
                "start_time": 9.2090909,
                "end_time": 9.3045455,
                "pitch": 51,
                "velocity": 64,
                "duration": 0.0954545,
                "tempo": 120.0
            },
            {
                "start_time": 9.3204545,
                "end_time": 9.4,
                "pitch": 51,
                "velocity": 64,
                "duration": 0.0795455,
                "tempo": 120.0
            },
            {
                "start_time": 9.4159091,
                "end_time": 9.5113636,
                "pitch": 51,
                "velocity": 64,
                "duration": 0.0954545,
                "tempo": 120.0
            },
            {
                "start_time": 9.5272727,
                "end_time": 9.6068182,
                "pitch": 51,
                "velocity": 64,
                "duration": 0.0795455,
                "tempo": 120.0
            },
            {
                "start_time": 9.6227273,
                "end_time": 9.7068182,
                "pitch": 51,
                "velocity": 64,
                "duration": 0.0840909,
                "tempo": 120.0
            },
            {
                "start_time": 9.725,
                "end_time": 10.05,
                "pitch": 48,
                "velocity": 64,
                "duration": 0.325,
                "tempo": 120.0
            },
            {
                "start_time": 10.0681818,
                "end_time": 10.2681818,
                "pitch": 49,
                "velocity": 64,
                "duration": 0.2,
                "tempo": 120.0
            },
            {
                "start_time": 10.2840909,
                "end_time": 10.3681818,
                "pitch": 51,
                "velocity": 64,
                "duration": 0.0840909,
                "tempo": 120.0
            },
            {
                "start_time": 10.3840909,
                "end_time": 10.4681818,
                "pitch": 51,
                "velocity": 64,
                "duration": 0.0840909,
                "tempo": 120.0
            },
            {
                "start_time": 10.4863636,
                "end_time": 10.5840909,
                "pitch": 51,
                "velocity": 64,
                "duration": 0.0977273,
                "tempo": 120.0
            },
            {
                "start_time": 10.6,
                "end_time": 10.6818182,
                "pitch": 51,
                "velocity": 64,
                "duration": 0.0818182,
                "tempo": 120.0
            },
            {
                "start_time": 10.6977273,
                "end_time": 10.7977273,
                "pitch": 51,
                "velocity": 64,
                "duration": 0.1,
                "tempo": 120.0
            },
            {
                "start_time": 10.8136364,
                "end_time": 10.8954545,
                "pitch": 51,
                "velocity": 64,
                "duration": 0.0818182,
                "tempo": 120.0
            },
            {
                "start_time": 10.9113636,
                "end_time": 11.0113636,
                "pitch": 51,
                "velocity": 64,
                "duration": 0.1,
                "tempo": 120.0
            },
            {
                "start_time": 11.0295455,
                "end_time": 11.1113636,
                "pitch": 51,
                "velocity": 64,
                "duration": 0.0818182,
                "tempo": 120.0
            },
            {
                "start_time": 11.1295455,
                "end_time": 11.2136364,
                "pitch": 51,
                "velocity": 64,
                "duration": 0.0840909,
                "tempo": 120.0
            },
            {
                "start_time": 11.2295455,
                "end_time": 11.3295455,
                "pitch": 51,
                "velocity": 64,
                "duration": 0.1,
                "tempo": 120.0
            },
            {
                "start_time": 11.3454545,
                "end_time": 11.4295455,
                "pitch": 51,
                "velocity": 64,
                "duration": 0.0840909,
                "tempo": 120.0
            },
            {
                "start_time": 11.4477273,
                "end_time": 11.5477273,
                "pitch": 51,
                "velocity": 64,
                "duration": 0.1,
                "tempo": 120.0
            },
            {
                "start_time": 11.5636364,
                "end_time": 11.6477273,
                "pitch": 51,
                "velocity": 64,
                "duration": 0.0840909,
                "tempo": 120.0
            },
            {
                "start_time": 11.6636364,
                "end_time": 11.7659091,
                "pitch": 44,
                "velocity": 64,
                "duration": 0.1022727,
                "tempo": 120.0
            },
            {
                "start_time": 11.7818182,
                "end_time": 11.9704545,
                "pitch": 46,
                "velocity": 64,
                "duration": 0.1886364,
                "tempo": 120.0
            },
            {
                "start_time": 11.9863636,
                "end_time": 12.0886364,
                "pitch": 51,
                "velocity": 64,
                "duration": 0.1022727,
                "tempo": 120.0
            },
            {
                "start_time": 12.1068182,
                "end_time": 12.1909091,
                "pitch": 51,
                "velocity": 64,
                "duration": 0.0840909,
                "tempo": 120.0
            },
            {
                "start_time": 12.2090909,
                "end_time": 12.3045455,
                "pitch": 51,
                "velocity": 64,
                "duration": 0.0954545,
                "tempo": 120.0
            },
            {
                "start_time": 12.3204545,
                "end_time": 12.4,
                "pitch": 51,
                "velocity": 64,
                "duration": 0.0795455,
                "tempo": 120.0
            },
            {
                "start_time": 12.4159091,
                "end_time": 12.5113636,
                "pitch": 46,
                "velocity": 64,
                "duration": 0.0954545,
                "tempo": 120.0
            },
            {
                "start_time": 12.5272727,
                "end_time": 12.6409091,
                "pitch": 46,
                "velocity": 64,
                "duration": 0.1136364,
                "tempo": 120.0
            },
            {
                "start_time": 12.725,
                "end_time": 12.8272727,
                "pitch": 44,
                "velocity": 64,
                "duration": 0.1022727,
                "tempo": 120.0
            },
            {
                "start_time": 12.8454545,
                "end_time": 12.9659091,
                "pitch": 44,
                "velocity": 64,
                "duration": 0.1204545,
                "tempo": 120.0
            },
            {
                "start_time": 13.0681818,
                "end_time": 13.1522727,
                "pitch": 54,
                "velocity": 64,
                "duration": 0.0840909,
                "tempo": 120.0
            },
            {
                "start_time": 13.1681818,
                "end_time": 13.2681818,
                "pitch": 54,
                "velocity": 64,
                "duration": 0.1,
                "tempo": 120.0
            },
            {
                "start_time": 13.2840909,
                "end_time": 13.3681818,
                "pitch": 49,
                "velocity": 64,
                "duration": 0.0840909,
                "tempo": 120.0
            },
            {
                "start_time": 13.3863636,
                "end_time": 13.4681818,
                "pitch": 49,
                "velocity": 64,
                "duration": 0.0818182,
                "tempo": 120.0
            },
            {
                "start_time": 13.6931818,
                "end_time": 13.7886364,
                "pitch": 51,
                "velocity": 64,
                "duration": 0.0954545,
                "tempo": 120.0
            },
            {
                "start_time": 13.8045455,
                "end_time": 13.8840909,
                "pitch": 51,
                "velocity": 64,
                "duration": 0.0795455,
                "tempo": 120.0
            },
            {
                "start_time": 13.9,
                "end_time": 14.0022727,
                "pitch": 51,
                "velocity": 64,
                "duration": 0.1022727,
                "tempo": 120.0
            },
            {
                "start_time": 14.0204545,
                "end_time": 14.1045455,
                "pitch": 51,
                "velocity": 64,
                "duration": 0.0840909,
                "tempo": 120.0
            },
            {
                "start_time": 14.1227273,
                "end_time": 14.2068182,
                "pitch": 51,
                "velocity": 64,
                "duration": 0.0840909,
                "tempo": 120.0
            },
            {
                "start_time": 14.225,
                "end_time": 14.3272727,
                "pitch": 51,
                "velocity": 64,
                "duration": 0.1022727,
                "tempo": 120.0
            },
            {
                "start_time": 14.3431818,
                "end_time": 14.4272727,
                "pitch": 51,
                "velocity": 64,
                "duration": 0.0840909,
                "tempo": 120.0
            },
            {
                "start_time": 14.4454545,
                "end_time": 14.5454545,
                "pitch": 51,
                "velocity": 64,
                "duration": 0.1,
                "tempo": 120.0
            },
            {
                "start_time": 14.5613636,
                "end_time": 14.6454545,
                "pitch": 51,
                "velocity": 64,
                "duration": 0.0840909,
                "tempo": 120.0
            },
            {
                "start_time": 14.6613636,
                "end_time": 14.7636364,
                "pitch": 51,
                "velocity": 64,
                "duration": 0.1022727,
                "tempo": 120.0
            },
            {
                "start_time": 14.7795455,
                "end_time": 14.8636364,
                "pitch": 51,
                "velocity": 64,
                "duration": 0.0840909,
                "tempo": 120.0
            },
            {
                "start_time": 14.8795455,
                "end_time": 14.9636364,
                "pitch": 51,
                "velocity": 64,
                "duration": 0.0840909,
                "tempo": 120.0
            },
            {
                "start_time": 14.9795455,
                "end_time": 15.0795455,
                "pitch": 51,
                "velocity": 64,
                "duration": 0.1,
                "tempo": 120.0
            },
            {
                "start_time": 15.0977273,
                "end_time": 15.1818182,
                "pitch": 44,
                "velocity": 64,
                "duration": 0.0840909,
                "tempo": 120.0
            },
            {
                "start_time": 15.1977273,
                "end_time": 15.3977273,
                "pitch": 46,
                "velocity": 64,
                "duration": 0.2,
                "tempo": 120.0
            },
            {
                "start_time": 15.4159091,
                "end_time": 15.5159091,
                "pitch": 51,
                "velocity": 64,
                "duration": 0.1,
                "tempo": 120.0
            },
            {
                "start_time": 15.5318182,
                "end_time": 15.6159091,
                "pitch": 51,
                "velocity": 64,
                "duration": 0.0840909,
                "tempo": 120.0
            },
            {
                "start_time": 15.6318182,
                "end_time": 15.7159091,
                "pitch": 51,
                "velocity": 64,
                "duration": 0.0840909,
                "tempo": 120.0
            },
            {
                "start_time": 15.7340909,
                "end_time": 15.8340909,
                "pitch": 51,
                "velocity": 64,
                "duration": 0.1,
                "tempo": 120.0
            },
            {
                "start_time": 15.85,
                "end_time": 15.9340909,
                "pitch": 51,
                "velocity": 64,
                "duration": 0.0840909,
                "tempo": 120.0
            },
            {
                "start_time": 15.95,
                "end_time": 16.05,
                "pitch": 51,
                "velocity": 64,
                "duration": 0.1,
                "tempo": 120.0
            },
            {
                "start_time": 16.0681818,
                "end_time": 16.1522727,
                "pitch": 51,
                "velocity": 64,
                "duration": 0.0840909,
                "tempo": 120.0
            },
            {
                "start_time": 16.1681818,
                "end_time": 16.2681818,
                "pitch": 51,
                "velocity": 64,
                "duration": 0.1,
                "tempo": 120.0
            },
            {
                "start_time": 16.2863636,
                "end_time": 16.3681818,
                "pitch": 51,
                "velocity": 64,
                "duration": 0.0818182,
                "tempo": 120.0
            },
            {
                "start_time": 16.3863636,
                "end_time": 16.4704545,
                "pitch": 51,
                "velocity": 64,
                "duration": 0.0840909,
                "tempo": 120.0
            },
            {
                "start_time": 16.4863636,
                "end_time": 16.5840909,
                "pitch": 51,
                "velocity": 64,
                "duration": 0.0977273,
                "tempo": 120.0
            },
            {
                "start_time": 16.6,
                "end_time": 16.8954545,
                "pitch": 48,
                "velocity": 64,
                "duration": 0.2954545,
                "tempo": 120.0
            },
            {
                "start_time": 16.9113636,
                "end_time": 17.1136364,
                "pitch": 49,
                "velocity": 64,
                "duration": 0.2022727,
                "tempo": 120.0
            },
            {
                "start_time": 17.1295455,
                "end_time": 17.2136364,
                "pitch": 51,
                "velocity": 64,
                "duration": 0.0840909,
                "tempo": 120.0
            },
            {
                "start_time": 17.2295455,
                "end_time": 17.3295455,
                "pitch": 51,
                "velocity": 64,
                "duration": 0.1,
                "tempo": 120.0
            },
            {
                "start_time": 17.3477273,
                "end_time": 17.4318182,
                "pitch": 51,
                "velocity": 64,
                "duration": 0.0840909,
                "tempo": 120.0
            },
            {
                "start_time": 17.4477273,
                "end_time": 17.5477273,
                "pitch": 51,
                "velocity": 64,
                "duration": 0.1,
                "tempo": 120.0
            },
            {
                "start_time": 17.5636364,
                "end_time": 17.6477273,
                "pitch": 51,
                "velocity": 64,
                "duration": 0.0840909,
                "tempo": 120.0
            },
            {
                "start_time": 17.6659091,
                "end_time": 17.7659091,
                "pitch": 51,
                "velocity": 64,
                "duration": 0.1,
                "tempo": 120.0
            },
            {
                "start_time": 17.7818182,
                "end_time": 17.8681818,
                "pitch": 51,
                "velocity": 64,
                "duration": 0.0863636,
                "tempo": 120.0
            },
            {
                "start_time": 17.8840909,
                "end_time": 17.9704545,
                "pitch": 51,
                "velocity": 64,
                "duration": 0.0863636,
                "tempo": 120.0
            },
            {
                "start_time": 17.9863636,
                "end_time": 18.0909091,
                "pitch": 51,
                "velocity": 64,
                "duration": 0.1045455,
                "tempo": 120.0
            },
            {
                "start_time": 18.1068182,
                "end_time": 18.1931818,
                "pitch": 51,
                "velocity": 64,
                "duration": 0.0863636,
                "tempo": 120.0
            },
            {
                "start_time": 18.2090909,
                "end_time": 18.3045455,
                "pitch": 51,
                "velocity": 64,
                "duration": 0.0954545,
                "tempo": 120.0
            },
            {
                "start_time": 18.3204545,
                "end_time": 18.4,
                "pitch": 51,
                "velocity": 64,
                "duration": 0.0795455,
                "tempo": 120.0
            },
            {
                "start_time": 18.4159091,
                "end_time": 18.5113636,
                "pitch": 51,
                "velocity": 64,
                "duration": 0.0954545,
                "tempo": 120.0
            },
            {
                "start_time": 18.5272727,
                "end_time": 18.6090909,
                "pitch": 44,
                "velocity": 64,
                "duration": 0.0818182,
                "tempo": 120.0
            },
            {
                "start_time": 18.625,
                "end_time": 18.8295455,
                "pitch": 46,
                "velocity": 64,
                "duration": 0.2045455,
                "tempo": 120.0
            },
            {
                "start_time": 18.8454545,
                "end_time": 18.9318182,
                "pitch": 51,
                "velocity": 64,
                "duration": 0.0863636,
                "tempo": 120.0
            },
            {
                "start_time": 18.9477273,
                "end_time": 19.05,
                "pitch": 51,
                "velocity": 64,
                "duration": 0.1022727,
                "tempo": 120.0
            },
            {
                "start_time": 19.0681818,
                "end_time": 19.1522727,
                "pitch": 51,
                "velocity": 64,
                "duration": 0.0840909,
                "tempo": 120.0
            },
            {
                "start_time": 19.1681818,
                "end_time": 19.2681818,
                "pitch": 51,
                "velocity": 64,
                "duration": 0.1,
                "tempo": 120.0
            },
            {
                "start_time": 19.2863636,
                "end_time": 19.3704545,
                "pitch": 51,
                "velocity": 64,
                "duration": 0.0840909,
                "tempo": 120.0
            },
            {
                "start_time": 19.3863636,
                "end_time": 19.4704545,
                "pitch": 51,
                "velocity": 64,
                "duration": 0.0840909,
                "tempo": 120.0
            },
            {
                "start_time": 19.4863636,
                "end_time": 19.5840909,
                "pitch": 51,
                "velocity": 64,
                "duration": 0.0977273,
                "tempo": 120.0
            },
            {
                "start_time": 19.6022727,
                "end_time": 19.6840909,
                "pitch": 51,
                "velocity": 64,
                "duration": 0.0818182,
                "tempo": 120.0
            },
            {
                "start_time": 19.7,
                "end_time": 19.7977273,
                "pitch": 51,
                "velocity": 64,
                "duration": 0.0977273,
                "tempo": 120.0
            },
            {
                "start_time": 19.8136364,
                "end_time": 19.8954545,
                "pitch": 51,
                "velocity": 64,
                "duration": 0.0818182,
                "tempo": 120.0
            },
            {
                "start_time": 19.9136364,
                "end_time": 20.0136364,
                "pitch": 51,
                "velocity": 64,
                "duration": 0.1,
                "tempo": 120.0
            },
            {
                "start_time": 20.0295455,
                "end_time": 20.3318182,
                "pitch": 48,
                "velocity": 64,
                "duration": 0.3022727,
                "tempo": 120.0
            },
            {
                "start_time": 20.3477273,
                "end_time": 20.5477273,
                "pitch": 49,
                "velocity": 64,
                "duration": 0.2,
                "tempo": 120.0
            },
            {
                "start_time": 20.5659091,
                "end_time": 20.6477273,
                "pitch": 51,
                "velocity": 64,
                "duration": 0.0818182,
                "tempo": 120.0
            },
            {
                "start_time": 20.6659091,
                "end_time": 20.7659091,
                "pitch": 51,
                "velocity": 64,
                "duration": 0.1,
                "tempo": 120.0
            },
            {
                "start_time": 20.7818182,
                "end_time": 20.8681818,
                "pitch": 51,
                "velocity": 64,
                "duration": 0.0863636,
                "tempo": 120.0
            },
            {
                "start_time": 20.8840909,
                "end_time": 20.9704545,
                "pitch": 51,
                "velocity": 64,
                "duration": 0.0863636,
                "tempo": 120.0
            },
            {
                "start_time": 20.9886364,
                "end_time": 21.0909091,
                "pitch": 51,
                "velocity": 64,
                "duration": 0.1022727,
                "tempo": 120.0
            },
            {
                "start_time": 21.1068182,
                "end_time": 21.1931818,
                "pitch": 51,
                "velocity": 64,
                "duration": 0.0863636,
                "tempo": 120.0
            },
            {
                "start_time": 21.2090909,
                "end_time": 21.3045455,
                "pitch": 51,
                "velocity": 64,
                "duration": 0.0954545,
                "tempo": 120.0
            },
            {
                "start_time": 21.3204545,
                "end_time": 21.4022727,
                "pitch": 51,
                "velocity": 64,
                "duration": 0.0818182,
                "tempo": 120.0
            },
            {
                "start_time": 21.4181818,
                "end_time": 21.5136364,
                "pitch": 51,
                "velocity": 64,
                "duration": 0.0954545,
                "tempo": 120.0
            },
            {
                "start_time": 21.5295455,
                "end_time": 21.6090909,
                "pitch": 51,
                "velocity": 64,
                "duration": 0.0795455,
                "tempo": 120.0
            },
            {
                "start_time": 21.625,
                "end_time": 21.7090909,
                "pitch": 51,
                "velocity": 64,
                "duration": 0.0840909,
                "tempo": 120.0
            },
            {
                "start_time": 21.7272727,
                "end_time": 21.8295455,
                "pitch": 51,
                "velocity": 64,
                "duration": 0.1022727,
                "tempo": 120.0
            },
            {
                "start_time": 21.8454545,
                "end_time": 21.9318182,
                "pitch": 51,
                "velocity": 64,
                "duration": 0.0863636,
                "tempo": 120.0
            },
            {
                "start_time": 21.9477273,
                "end_time": 22.0522727,
                "pitch": 44,
                "velocity": 64,
                "duration": 0.1045455,
                "tempo": 120.0
            },
            {
                "start_time": 22.0681818,
                "end_time": 22.2681818,
                "pitch": 46,
                "velocity": 64,
                "duration": 0.2,
                "tempo": 120.0
            },
            {
                "start_time": 22.2863636,
                "end_time": 22.3704545,
                "pitch": 51,
                "velocity": 64,
                "duration": 0.0840909,
                "tempo": 120.0
            },
            {
                "start_time": 22.3863636,
                "end_time": 22.4704545,
                "pitch": 51,
                "velocity": 64,
                "duration": 0.0840909,
                "tempo": 120.0
            },
            {
                "start_time": 22.4863636,
                "end_time": 22.5863636,
                "pitch": 51,
                "velocity": 64,
                "duration": 0.1,
                "tempo": 120.0
            },
            {
                "start_time": 22.6022727,
                "end_time": 22.6840909,
                "pitch": 51,
                "velocity": 64,
                "duration": 0.0818182,
                "tempo": 120.0
            },
            {
                "start_time": 22.7,
                "end_time": 22.7977273,
                "pitch": 51,
                "velocity": 64,
                "duration": 0.0977273,
                "tempo": 120.0
            },
            {
                "start_time": 22.8136364,
                "end_time": 22.8954545,
                "pitch": 51,
                "velocity": 64,
                "duration": 0.0818182,
                "tempo": 120.0
            },
            {
                "start_time": 22.9136364,
                "end_time": 23.0136364,
                "pitch": 51,
                "velocity": 64,
                "duration": 0.1,
                "tempo": 120.0
            },
            {
                "start_time": 23.0295455,
                "end_time": 23.1136364,
                "pitch": 51,
                "velocity": 64,
                "duration": 0.0840909,
                "tempo": 120.0
            },
            {
                "start_time": 23.1295455,
                "end_time": 23.2136364,
                "pitch": 51,
                "velocity": 64,
                "duration": 0.0840909,
                "tempo": 120.0
            },
            {
                "start_time": 23.2318182,
                "end_time": 23.3318182,
                "pitch": 51,
                "velocity": 64,
                "duration": 0.1,
                "tempo": 120.0
            },
            {
                "start_time": 23.3477273,
                "end_time": 23.4318182,
                "pitch": 51,
                "velocity": 64,
                "duration": 0.0840909,
                "tempo": 120.0
            },
            {
                "start_time": 23.4477273,
                "end_time": 23.7659091,
                "pitch": 48,
                "velocity": 64,
                "duration": 0.3181818,
                "tempo": 120.0
            },
            {
                "start_time": 23.7818182,
                "end_time": 23.9704545,
                "pitch": 49,
                "velocity": 64,
                "duration": 0.1886364,
                "tempo": 120.0
            },
            {
                "start_time": 23.9886364,
                "end_time": 24.0909091,
                "pitch": 51,
                "velocity": 64,
                "duration": 0.1022727,
                "tempo": 120.0
            },
            {
                "start_time": 24.1068182,
                "end_time": 24.1931818,
                "pitch": 51,
                "velocity": 64,
                "duration": 0.0863636,
                "tempo": 120.0
            },
            {
                "start_time": 24.2113636,
                "end_time": 24.3068182,
                "pitch": 51,
                "velocity": 64,
                "duration": 0.0954545,
                "tempo": 120.0
            },
            {
                "start_time": 24.3227273,
                "end_time": 24.4022727,
                "pitch": 51,
                "velocity": 64,
                "duration": 0.0795455,
                "tempo": 120.0
            },
            {
                "start_time": 24.4181818,
                "end_time": 24.5136364,
                "pitch": 51,
                "velocity": 64,
                "duration": 0.0954545,
                "tempo": 120.0
            },
            {
                "start_time": 24.5295455,
                "end_time": 24.6090909,
                "pitch": 51,
                "velocity": 64,
                "duration": 0.0795455,
                "tempo": 120.0
            },
            {
                "start_time": 24.625,
                "end_time": 24.7090909,
                "pitch": 51,
                "velocity": 64,
                "duration": 0.0840909,
                "tempo": 120.0
            },
            {
                "start_time": 24.7272727,
                "end_time": 24.8295455,
                "pitch": 51,
                "velocity": 64,
                "duration": 0.1022727,
                "tempo": 120.0
            },
            {
                "start_time": 24.8454545,
                "end_time": 24.9318182,
                "pitch": 51,
                "velocity": 64,
                "duration": 0.0863636,
                "tempo": 120.0
            },
            {
                "start_time": 24.95,
                "end_time": 25.0522727,
                "pitch": 51,
                "velocity": 64,
                "duration": 0.1022727,
                "tempo": 120.0
            },
            {
                "start_time": 25.0681818,
                "end_time": 25.1522727,
                "pitch": 51,
                "velocity": 64,
                "duration": 0.0840909,
                "tempo": 120.0
            },
            {
                "start_time": 25.1681818,
                "end_time": 25.2704545,
                "pitch": 51,
                "velocity": 64,
                "duration": 0.1022727,
                "tempo": 120.0
            },
            {
                "start_time": 25.2863636,
                "end_time": 25.3704545,
                "pitch": 51,
                "velocity": 64,
                "duration": 0.0840909,
                "tempo": 120.0
            },
            {
                "start_time": 25.3863636,
                "end_time": 25.4704545,
                "pitch": 44,
                "velocity": 64,
                "duration": 0.0840909,
                "tempo": 120.0
            },
            {
                "start_time": 25.4863636,
                "end_time": 25.6840909,
                "pitch": 46,
                "velocity": 64,
                "duration": 0.1977273,
                "tempo": 120.0
            },
            {
                "start_time": 25.7,
                "end_time": 25.7977273,
                "pitch": 51,
                "velocity": 64,
                "duration": 0.0977273,
                "tempo": 120.0
            },
            {
                "start_time": 25.8159091,
                "end_time": 25.8977273,
                "pitch": 51,
                "velocity": 64,
                "duration": 0.0818182,
                "tempo": 120.0
            },
            {
                "start_time": 25.9136364,
                "end_time": 26.0136364,
                "pitch": 51,
                "velocity": 64,
                "duration": 0.1,
                "tempo": 120.0
            },
            {
                "start_time": 26.0295455,
                "end_time": 26.1136364,
                "pitch": 51,
                "velocity": 64,
                "duration": 0.0840909,
                "tempo": 120.0
            },
            {
                "start_time": 26.1295455,
                "end_time": 26.2136364,
                "pitch": 46,
                "velocity": 64,
                "duration": 0.0840909,
                "tempo": 120.0
            },
            {
                "start_time": 26.2318182,
                "end_time": 26.3477273,
                "pitch": 46,
                "velocity": 64,
                "duration": 0.1159091,
                "tempo": 120.0
            },
            {
                "start_time": 26.4454545,
                "end_time": 26.5454545,
                "pitch": 44,
                "velocity": 64,
                "duration": 0.1,
                "tempo": 120.0
            },
            {
                "start_time": 26.5613636,
                "end_time": 26.675,
                "pitch": 44,
                "velocity": 64,
                "duration": 0.1136364,
                "tempo": 120.0
            },
            {
                "start_time": 26.775,
                "end_time": 26.8590909,
                "pitch": 54,
                "velocity": 64,
                "duration": 0.0840909,
                "tempo": 120.0
            },
            {
                "start_time": 26.8772727,
                "end_time": 26.9613636,
                "pitch": 54,
                "velocity": 64,
                "duration": 0.0840909,
                "tempo": 120.0
            },
            {
                "start_time": 26.9795455,
                "end_time": 27.0818182,
                "pitch": 49,
                "velocity": 64,
                "duration": 0.1022727,
                "tempo": 120.0
            },
            {
                "start_time": 27.1,
                "end_time": 27.1840909,
                "pitch": 49,
                "velocity": 64,
                "duration": 0.0840909,
                "tempo": 120.0
            },
            {
                "start_time": 27.4181818,
                "end_time": 27.5204545,
                "pitch": 47,
                "velocity": 64,
                "duration": 0.1022727,
                "tempo": 120.0
            },
            {
                "start_time": 27.5363636,
                "end_time": 27.6204545,
                "pitch": 47,
                "velocity": 64,
                "duration": 0.0840909,
                "tempo": 120.0
            },
            {
                "start_time": 27.6363636,
                "end_time": 27.7204545,
                "pitch": 47,
                "velocity": 64,
                "duration": 0.0840909,
                "tempo": 120.0
            },
            {
                "start_time": 27.7363636,
                "end_time": 27.8386364,
                "pitch": 47,
                "velocity": 64,
                "duration": 0.1022727,
                "tempo": 120.0
            },
            {
                "start_time": 27.8545455,
                "end_time": 27.9386364,
                "pitch": 47,
                "velocity": 64,
                "duration": 0.0840909,
                "tempo": 120.0
            },
            {
                "start_time": 27.9545455,
                "end_time": 28.0545455,
                "pitch": 47,
                "velocity": 64,
                "duration": 0.1,
                "tempo": 120.0
            },
            {
                "start_time": 28.0727273,
                "end_time": 28.1545455,
                "pitch": 47,
                "velocity": 64,
                "duration": 0.0818182,
                "tempo": 120.0
            },
            {
                "start_time": 28.1727273,
                "end_time": 28.2727273,
                "pitch": 47,
                "velocity": 64,
                "duration": 0.1,
                "tempo": 120.0
            },
            {
                "start_time": 28.2886364,
                "end_time": 28.3727273,
                "pitch": 47,
                "velocity": 64,
                "duration": 0.0840909,
                "tempo": 120.0
            },
            {
                "start_time": 28.3909091,
                "end_time": 28.4727273,
                "pitch": 47,
                "velocity": 64,
                "duration": 0.0818182,
                "tempo": 120.0
            },
            {
                "start_time": 28.4909091,
                "end_time": 28.5886364,
                "pitch": 47,
                "velocity": 64,
                "duration": 0.0977273,
                "tempo": 120.0
            },
            {
                "start_time": 28.6045455,
                "end_time": 28.6863636,
                "pitch": 47,
                "velocity": 64,
                "duration": 0.0818182,
                "tempo": 120.0
            },
            {
                "start_time": 28.7022727,
                "end_time": 28.8022727,
                "pitch": 47,
                "velocity": 64,
                "duration": 0.1,
                "tempo": 120.0
            },
            {
                "start_time": 28.8181818,
                "end_time": 28.9,
                "pitch": 47,
                "velocity": 64,
                "duration": 0.0818182,
                "tempo": 120.0
            },
            {
                "start_time": 28.9159091,
                "end_time": 29.0159091,
                "pitch": 47,
                "velocity": 64,
                "duration": 0.1,
                "tempo": 120.0
            },
            {
                "start_time": 29.0340909,
                "end_time": 29.1159091,
                "pitch": 47,
                "velocity": 64,
                "duration": 0.0818182,
                "tempo": 120.0
            },
            {
                "start_time": 29.1340909,
                "end_time": 29.2181818,
                "pitch": 47,
                "velocity": 64,
                "duration": 0.0840909,
                "tempo": 120.0
            },
            {
                "start_time": 29.2340909,
                "end_time": 29.3340909,
                "pitch": 47,
                "velocity": 64,
                "duration": 0.1,
                "tempo": 120.0
            },
            {
                "start_time": 29.3522727,
                "end_time": 29.4340909,
                "pitch": 47,
                "velocity": 64,
                "duration": 0.0818182,
                "tempo": 120.0
            },
            {
                "start_time": 29.4522727,
                "end_time": 29.5522727,
                "pitch": 47,
                "velocity": 64,
                "duration": 0.1,
                "tempo": 120.0
            },
            {
                "start_time": 29.5681818,
                "end_time": 29.6522727,
                "pitch": 47,
                "velocity": 64,
                "duration": 0.0840909,
                "tempo": 120.0
            },
            {
                "start_time": 29.6681818,
                "end_time": 29.7704545,
                "pitch": 47,
                "velocity": 64,
                "duration": 0.1022727,
                "tempo": 120.0
            },
            {
                "start_time": 29.7863636,
                "end_time": 29.8704545,
                "pitch": 47,
                "velocity": 64,
                "duration": 0.0840909,
                "tempo": 120.0
            },
            {
                "start_time": 29.8863636,
                "end_time": 29.9704545,
                "pitch": 47,
                "velocity": 64,
                "duration": 0.0840909,
                "tempo": 120.0
            },
            {
                "start_time": 29.9863636,
                "end_time": 30.0886364,
                "pitch": 47,
                "velocity": 64,
                "duration": 0.1022727,
                "tempo": 120.0
            },
            {
                "start_time": 30.1045455,
                "end_time": 30.1886364,
                "pitch": 47,
                "velocity": 64,
                "duration": 0.0840909,
                "tempo": 120.0
            },
            {
                "start_time": 30.2045455,
                "end_time": 30.6227273,
                "pitch": 53,
                "velocity": 64,
                "duration": 0.4181818,
                "tempo": 120.0
            },
            {
                "start_time": 30.6386364,
                "end_time": 30.8409091,
                "pitch": 49,
                "velocity": 64,
                "duration": 0.2022727,
                "tempo": 120.0
            },
            {
                "start_time": 30.8568182,
                "end_time": 30.9409091,
                "pitch": 51,
                "velocity": 64,
                "duration": 0.0840909,
                "tempo": 120.0
            },
            {
                "start_time": 30.9568182,
                "end_time": 31.0590909,
                "pitch": 51,
                "velocity": 64,
                "duration": 0.1022727,
                "tempo": 120.0
            },
            {
                "start_time": 31.075,
                "end_time": 31.1590909,
                "pitch": 51,
                "velocity": 64,
                "duration": 0.0840909,
                "tempo": 120.0
            },
            {
                "start_time": 31.175,
                "end_time": 31.275,
                "pitch": 51,
                "velocity": 64,
                "duration": 0.1,
                "tempo": 120.0
            },
            {
                "start_time": 31.2931818,
                "end_time": 31.375,
                "pitch": 51,
                "velocity": 64,
                "duration": 0.0818182,
                "tempo": 120.0
            },
            {
                "start_time": 31.3931818,
                "end_time": 31.4772727,
                "pitch": 51,
                "velocity": 64,
                "duration": 0.0840909,
                "tempo": 120.0
            },
            {
                "start_time": 31.4931818,
                "end_time": 31.5909091,
                "pitch": 51,
                "velocity": 64,
                "duration": 0.0977273,
                "tempo": 120.0
            },
            {
                "start_time": 31.6068182,
                "end_time": 31.6909091,
                "pitch": 51,
                "velocity": 64,
                "duration": 0.0840909,
                "tempo": 120.0
            },
            {
                "start_time": 31.7068182,
                "end_time": 31.8045455,
                "pitch": 51,
                "velocity": 64,
                "duration": 0.0977273,
                "tempo": 120.0
            },
            {
                "start_time": 31.8204545,
                "end_time": 31.9022727,
                "pitch": 51,
                "velocity": 64,
                "duration": 0.0818182,
                "tempo": 120.0
            },
            {
                "start_time": 31.9181818,
                "end_time": 32.0204545,
                "pitch": 51,
                "velocity": 64,
                "duration": 0.1022727,
                "tempo": 120.0
            },
            {
                "start_time": 32.0363636,
                "end_time": 32.1204545,
                "pitch": 51,
                "velocity": 64,
                "duration": 0.0840909,
                "tempo": 120.0
            },
            {
                "start_time": 32.1363636,
                "end_time": 32.2204545,
                "pitch": 51,
                "velocity": 64,
                "duration": 0.0840909,
                "tempo": 120.0
            },
            {
                "start_time": 32.2363636,
                "end_time": 32.3363636,
                "pitch": 51,
                "velocity": 64,
                "duration": 0.1,
                "tempo": 120.0
            },
            {
                "start_time": 32.3545455,
                "end_time": 32.4386364,
                "pitch": 51,
                "velocity": 64,
                "duration": 0.0840909,
                "tempo": 120.0
            },
            {
                "start_time": 32.4545455,
                "end_time": 32.5545455,
                "pitch": 51,
                "velocity": 64,
                "duration": 0.1,
                "tempo": 120.0
            },
            {
                "start_time": 32.5727273,
                "end_time": 32.6545455,
                "pitch": 51,
                "velocity": 64,
                "duration": 0.0818182,
                "tempo": 120.0
            },
            {
                "start_time": 32.6727273,
                "end_time": 32.7727273,
                "pitch": 51,
                "velocity": 64,
                "duration": 0.1,
                "tempo": 120.0
            },
            {
                "start_time": 32.7886364,
                "end_time": 32.8727273,
                "pitch": 51,
                "velocity": 64,
                "duration": 0.0840909,
                "tempo": 120.0
            },
            {
                "start_time": 32.8886364,
                "end_time": 32.9727273,
                "pitch": 51,
                "velocity": 64,
                "duration": 0.0840909,
                "tempo": 120.0
            },
            {
                "start_time": 32.9909091,
                "end_time": 33.0909091,
                "pitch": 51,
                "velocity": 64,
                "duration": 0.1,
                "tempo": 120.0
            },
            {
                "start_time": 33.1068182,
                "end_time": 33.1909091,
                "pitch": 51,
                "velocity": 64,
                "duration": 0.0840909,
                "tempo": 120.0
            },
            {
                "start_time": 33.2068182,
                "end_time": 33.3068182,
                "pitch": 51,
                "velocity": 64,
                "duration": 0.1,
                "tempo": 120.0
            },
            {
                "start_time": 33.3227273,
                "end_time": 33.4045455,
                "pitch": 51,
                "velocity": 64,
                "duration": 0.0818182,
                "tempo": 120.0
            },
            {
                "start_time": 33.4204545,
                "end_time": 33.5181818,
                "pitch": 51,
                "velocity": 64,
                "duration": 0.0977273,
                "tempo": 120.0
            },
            {
                "start_time": 33.5340909,
                "end_time": 33.6181818,
                "pitch": 51,
                "velocity": 64,
                "duration": 0.0840909,
                "tempo": 120.0
            },
            {
                "start_time": 33.6340909,
                "end_time": 33.7181818,
                "pitch": 51,
                "velocity": 64,
                "duration": 0.0840909,
                "tempo": 120.0
            },
            {
                "start_time": 33.7363636,
                "end_time": 33.8386364,
                "pitch": 51,
                "velocity": 64,
                "duration": 0.1022727,
                "tempo": 120.0
            },
            {
                "start_time": 33.8545455,
                "end_time": 33.9409091,
                "pitch": 51,
                "velocity": 64,
                "duration": 0.0863636,
                "tempo": 120.0
            },
            {
                "start_time": 33.9590909,
                "end_time": 34.0613636,
                "pitch": 51,
                "velocity": 64,
                "duration": 0.1022727,
                "tempo": 120.0
            },
            {
                "start_time": 34.0772727,
                "end_time": 34.1613636,
                "pitch": 51,
                "velocity": 64,
                "duration": 0.0840909,
                "tempo": 120.0
            },
            {
                "start_time": 34.1772727,
                "end_time": 34.2795455,
                "pitch": 51,
                "velocity": 64,
                "duration": 0.1022727,
                "tempo": 120.0
            },
            {
                "start_time": 34.2954545,
                "end_time": 34.3795455,
                "pitch": 47,
                "velocity": 64,
                "duration": 0.0840909,
                "tempo": 120.0
            },
            {
                "start_time": 34.3954545,
                "end_time": 34.4795455,
                "pitch": 47,
                "velocity": 64,
                "duration": 0.0840909,
                "tempo": 120.0
            },
            {
                "start_time": 34.4954545,
                "end_time": 34.5954545,
                "pitch": 47,
                "velocity": 64,
                "duration": 0.1,
                "tempo": 120.0
            },
            {
                "start_time": 34.6113636,
                "end_time": 34.6931818,
                "pitch": 47,
                "velocity": 64,
                "duration": 0.0818182,
                "tempo": 120.0
            },
            {
                "start_time": 34.7090909,
                "end_time": 34.8068182,
                "pitch": 47,
                "velocity": 64,
                "duration": 0.0977273,
                "tempo": 120.0
            },
            {
                "start_time": 34.825,
                "end_time": 34.9068182,
                "pitch": 47,
                "velocity": 64,
                "duration": 0.0818182,
                "tempo": 120.0
            },
            {
                "start_time": 34.9227273,
                "end_time": 35.0227273,
                "pitch": 47,
                "velocity": 64,
                "duration": 0.1,
                "tempo": 120.0
            },
            {
                "start_time": 35.0386364,
                "end_time": 35.1227273,
                "pitch": 47,
                "velocity": 64,
                "duration": 0.0840909,
                "tempo": 120.0
            },
            {
                "start_time": 35.1386364,
                "end_time": 35.2227273,
                "pitch": 47,
                "velocity": 64,
                "duration": 0.0840909,
                "tempo": 120.0
            },
            {
                "start_time": 35.2409091,
                "end_time": 35.3409091,
                "pitch": 47,
                "velocity": 64,
                "duration": 0.1,
                "tempo": 120.0
            },
            {
                "start_time": 35.3568182,
                "end_time": 35.4409091,
                "pitch": 47,
                "velocity": 64,
                "duration": 0.0840909,
                "tempo": 120.0
            },
            {
                "start_time": 35.4568182,
                "end_time": 35.5590909,
                "pitch": 47,
                "velocity": 64,
                "duration": 0.1022727,
                "tempo": 120.0
            },
            {
                "start_time": 35.575,
                "end_time": 35.6590909,
                "pitch": 47,
                "velocity": 64,
                "duration": 0.0840909,
                "tempo": 120.0
            },
            {
                "start_time": 35.675,
                "end_time": 35.775,
                "pitch": 47,
                "velocity": 64,
                "duration": 0.1,
                "tempo": 120.0
            },
            {
                "start_time": 35.7931818,
                "end_time": 35.8772727,
                "pitch": 47,
                "velocity": 64,
                "duration": 0.0840909,
                "tempo": 120.0
            },
            {
                "start_time": 35.8954545,
                "end_time": 35.9795455,
                "pitch": 47,
                "velocity": 64,
                "duration": 0.0840909,
                "tempo": 120.0
            },
            {
                "start_time": 35.9977273,
                "end_time": 36.1,
                "pitch": 47,
                "velocity": 64,
                "duration": 0.1022727,
                "tempo": 120.0
            },
            {
                "start_time": 36.1181818,
                "end_time": 36.2022727,
                "pitch": 47,
                "velocity": 64,
                "duration": 0.0840909,
                "tempo": 120.0
            },
            {
                "start_time": 36.2204545,
                "end_time": 36.3159091,
                "pitch": 47,
                "velocity": 64,
                "duration": 0.0954545,
                "tempo": 120.0
            },
            {
                "start_time": 36.3318182,
                "end_time": 36.4113636,
                "pitch": 47,
                "velocity": 64,
                "duration": 0.0795455,
                "tempo": 120.0
            },
            {
                "start_time": 36.4272727,
                "end_time": 36.5227273,
                "pitch": 47,
                "velocity": 64,
                "duration": 0.0954545,
                "tempo": 120.0
            },
            {
                "start_time": 36.5386364,
                "end_time": 36.6181818,
                "pitch": 47,
                "velocity": 64,
                "duration": 0.0795455,
                "tempo": 120.0
            },
            {
                "start_time": 36.6340909,
                "end_time": 36.7181818,
                "pitch": 47,
                "velocity": 64,
                "duration": 0.0840909,
                "tempo": 120.0
            },
            {
                "start_time": 36.7363636,
                "end_time": 36.8386364,
                "pitch": 47,
                "velocity": 64,
                "duration": 0.1022727,
                "tempo": 120.0
            },
            {
                "start_time": 36.8568182,
                "end_time": 36.9409091,
                "pitch": 47,
                "velocity": 64,
                "duration": 0.0840909,
                "tempo": 120.0
            },
            {
                "start_time": 36.9590909,
                "end_time": 37.0613636,
                "pitch": 47,
                "velocity": 64,
                "duration": 0.1022727,
                "tempo": 120.0
            },
            {
                "start_time": 37.0772727,
                "end_time": 37.4795455,
                "pitch": 53,
                "velocity": 64,
                "duration": 0.4022727,
                "tempo": 120.0
            },
            {
                "start_time": 37.4954545,
                "end_time": 37.6931818,
                "pitch": 49,
                "velocity": 64,
                "duration": 0.1977273,
                "tempo": 120.0
            },
            {
                "start_time": 37.7090909,
                "end_time": 37.8068182,
                "pitch": 51,
                "velocity": 64,
                "duration": 0.0977273,
                "tempo": 120.0
            },
            {
                "start_time": 37.825,
                "end_time": 37.9068182,
                "pitch": 51,
                "velocity": 64,
                "duration": 0.0818182,
                "tempo": 120.0
            },
            {
                "start_time": 37.9227273,
                "end_time": 38.0227273,
                "pitch": 51,
                "velocity": 64,
                "duration": 0.1,
                "tempo": 120.0
            },
            {
                "start_time": 38.0386364,
                "end_time": 38.1227273,
                "pitch": 51,
                "velocity": 64,
                "duration": 0.0840909,
                "tempo": 120.0
            },
            {
                "start_time": 38.1409091,
                "end_time": 38.2227273,
                "pitch": 51,
                "velocity": 64,
                "duration": 0.0818182,
                "tempo": 120.0
            },
            {
                "start_time": 38.2409091,
                "end_time": 38.3409091,
                "pitch": 51,
                "velocity": 64,
                "duration": 0.1,
                "tempo": 120.0
            },
            {
                "start_time": 38.3568182,
                "end_time": 38.4409091,
                "pitch": 51,
                "velocity": 64,
                "duration": 0.0840909,
                "tempo": 120.0
            },
            {
                "start_time": 38.4590909,
                "end_time": 38.5590909,
                "pitch": 51,
                "velocity": 64,
                "duration": 0.1,
                "tempo": 120.0
            },
            {
                "start_time": 38.575,
                "end_time": 38.6590909,
                "pitch": 51,
                "velocity": 64,
                "duration": 0.0840909,
                "tempo": 120.0
            },
            {
                "start_time": 38.675,
                "end_time": 38.775,
                "pitch": 51,
                "velocity": 64,
                "duration": 0.1,
                "tempo": 120.0
            },
            {
                "start_time": 38.7931818,
                "end_time": 38.8772727,
                "pitch": 51,
                "velocity": 64,
                "duration": 0.0840909,
                "tempo": 120.0
            },
            {
                "start_time": 38.8954545,
                "end_time": 38.9795455,
                "pitch": 51,
                "velocity": 64,
                "duration": 0.0840909,
                "tempo": 120.0
            },
            {
                "start_time": 38.9977273,
                "end_time": 39.1,
                "pitch": 51,
                "velocity": 64,
                "duration": 0.1022727,
                "tempo": 120.0
            },
            {
                "start_time": 39.1181818,
                "end_time": 39.2022727,
                "pitch": 51,
                "velocity": 64,
                "duration": 0.0840909,
                "tempo": 120.0
            },
            {
                "start_time": 39.2204545,
                "end_time": 39.3159091,
                "pitch": 51,
                "velocity": 64,
                "duration": 0.0954545,
                "tempo": 120.0
            },
            {
                "start_time": 39.3318182,
                "end_time": 39.4113636,
                "pitch": 51,
                "velocity": 64,
                "duration": 0.0795455,
                "tempo": 120.0
            },
            {
                "start_time": 39.4272727,
                "end_time": 39.5227273,
                "pitch": 51,
                "velocity": 64,
                "duration": 0.0954545,
                "tempo": 120.0
            },
            {
                "start_time": 39.5386364,
                "end_time": 39.6181818,
                "pitch": 51,
                "velocity": 64,
                "duration": 0.0795455,
                "tempo": 120.0
            },
            {
                "start_time": 39.6340909,
                "end_time": 39.7181818,
                "pitch": 51,
                "velocity": 64,
                "duration": 0.0840909,
                "tempo": 120.0
            },
            {
                "start_time": 39.7363636,
                "end_time": 39.8386364,
                "pitch": 51,
                "velocity": 64,
                "duration": 0.1022727,
                "tempo": 120.0
            },
            {
                "start_time": 39.8568182,
                "end_time": 39.9409091,
                "pitch": 51,
                "velocity": 64,
                "duration": 0.0840909,
                "tempo": 120.0
            },
            {
                "start_time": 39.9590909,
                "end_time": 40.0613636,
                "pitch": 51,
                "velocity": 64,
                "duration": 0.1022727,
                "tempo": 120.0
            },
            {
                "start_time": 40.0795455,
                "end_time": 40.1613636,
                "pitch": 51,
                "velocity": 64,
                "duration": 0.0818182,
                "tempo": 120.0
            },
            {
                "start_time": 40.1795455,
                "end_time": 40.2795455,
                "pitch": 51,
                "velocity": 64,
                "duration": 0.1,
                "tempo": 120.0
            },
            {
                "start_time": 40.2954545,
                "end_time": 40.3795455,
                "pitch": 51,
                "velocity": 64,
                "duration": 0.0840909,
                "tempo": 120.0
            },
            {
                "start_time": 40.3954545,
                "end_time": 40.4795455,
                "pitch": 51,
                "velocity": 64,
                "duration": 0.0840909,
                "tempo": 120.0
            },
            {
                "start_time": 40.4977273,
                "end_time": 40.5954545,
                "pitch": 51,
                "velocity": 64,
                "duration": 0.0977273,
                "tempo": 120.0
            },
            {
                "start_time": 40.6113636,
                "end_time": 40.6931818,
                "pitch": 51,
                "velocity": 64,
                "duration": 0.0818182,
                "tempo": 120.0
            },
            {
                "start_time": 40.7090909,
                "end_time": 40.8090909,
                "pitch": 51,
                "velocity": 64,
                "duration": 0.1,
                "tempo": 120.0
            },
            {
                "start_time": 40.825,
                "end_time": 40.9068182,
                "pitch": 51,
                "velocity": 64,
                "duration": 0.0818182,
                "tempo": 120.0
            },
            {
                "start_time": 40.9227273,
                "end_time": 41.0227273,
                "pitch": 51,
                "velocity": 64,
                "duration": 0.1,
                "tempo": 120.0
            },
            {
                "start_time": 41.0409091,
                "end_time": 41.1227273,
                "pitch": 51,
                "velocity": 64,
                "duration": 0.0818182,
                "tempo": 120.0
            },
            {
                "start_time": 41.1409091,
                "end_time": 41.225,
                "pitch": 51,
                "velocity": 64,
                "duration": 0.0840909,
                "tempo": 120.0
            },
            {
                "start_time": 41.2409091,
                "end_time": 41.3409091,
                "pitch": 51,
                "velocity": 64,
                "duration": 0.1,
                "tempo": 120.0
            },
            {
                "start_time": 41.3568182,
                "end_time": 41.4409091,
                "pitch": 51,
                "velocity": 64,
                "duration": 0.0840909,
                "tempo": 120.0
            },
            {
                "start_time": 41.4590909,
                "end_time": 41.5590909,
                "pitch": 51,
                "velocity": 64,
                "duration": 0.1,
                "tempo": 120.0
            },
            {
                "start_time": 41.575,
                "end_time": 41.6590909,
                "pitch": 51,
                "velocity": 64,
                "duration": 0.0840909,
                "tempo": 120.0
            },
            {
                "start_time": 41.675,
                "end_time": 41.7772727,
                "pitch": 51,
                "velocity": 64,
                "duration": 0.1022727,
                "tempo": 120.0
            },
            {
                "start_time": 41.7931818,
                "end_time": 41.8772727,
                "pitch": 51,
                "velocity": 64,
                "duration": 0.0840909,
                "tempo": 120.0
            },
            {
                "start_time": 41.8954545,
                "end_time": 41.9818182,
                "pitch": 51,
                "velocity": 64,
                "duration": 0.0863636,
                "tempo": 120.0
            },
            {
                "start_time": 41.9977273,
                "end_time": 42.1,
                "pitch": 51,
                "velocity": 64,
                "duration": 0.1022727,
                "tempo": 120.0
            },
            {
                "start_time": 42.1181818,
                "end_time": 42.2022727,
                "pitch": 51,
                "velocity": 64,
                "duration": 0.0840909,
                "tempo": 120.0
            },
            {
                "start_time": 42.2204545,
                "end_time": 42.3159091,
                "pitch": 51,
                "velocity": 64,
                "duration": 0.0954545,
                "tempo": 120.0
            },
            {
                "start_time": 42.3318182,
                "end_time": 42.4113636,
                "pitch": 51,
                "velocity": 64,
                "duration": 0.0795455,
                "tempo": 120.0
            },
            {
                "start_time": 42.4272727,
                "end_time": 42.5227273,
                "pitch": 51,
                "velocity": 64,
                "duration": 0.0954545,
                "tempo": 120.0
            },
            {
                "start_time": 42.5386364,
                "end_time": 42.6181818,
                "pitch": 44,
                "velocity": 64,
                "duration": 0.0795455,
                "tempo": 120.0
            },
            {
                "start_time": 42.6340909,
                "end_time": 42.8386364,
                "pitch": 46,
                "velocity": 64,
                "duration": 0.2045455,
                "tempo": 120.0
            },
            {
                "start_time": 42.8568182,
                "end_time": 42.9409091,
                "pitch": 51,
                "velocity": 64,
                "duration": 0.0840909,
                "tempo": 120.0
            },
            {
                "start_time": 42.9590909,
                "end_time": 43.0613636,
                "pitch": 51,
                "velocity": 64,
                "duration": 0.1022727,
                "tempo": 120.0
            },
            {
                "start_time": 43.0795455,
                "end_time": 43.1636364,
                "pitch": 51,
                "velocity": 64,
                "duration": 0.0840909,
                "tempo": 120.0
            },
            {
                "start_time": 43.1795455,
                "end_time": 43.2795455,
                "pitch": 51,
                "velocity": 64,
                "duration": 0.1,
                "tempo": 120.0
            },
            {
                "start_time": 43.2954545,
                "end_time": 43.3795455,
                "pitch": 51,
                "velocity": 64,
                "duration": 0.0840909,
                "tempo": 120.0
            },
            {
                "start_time": 43.3977273,
                "end_time": 43.4795455,
                "pitch": 51,
                "velocity": 64,
                "duration": 0.0818182,
                "tempo": 120.0
            },
            {
                "start_time": 43.4977273,
                "end_time": 43.5954545,
                "pitch": 51,
                "velocity": 64,
                "duration": 0.0977273,
                "tempo": 120.0
            },
            {
                "start_time": 43.6113636,
                "end_time": 43.6931818,
                "pitch": 51,
                "velocity": 64,
                "duration": 0.0818182,
                "tempo": 120.0
            },
            {
                "start_time": 43.7113636,
                "end_time": 43.8090909,
                "pitch": 51,
                "velocity": 64,
                "duration": 0.0977273,
                "tempo": 120.0
            },
            {
                "start_time": 43.825,
                "end_time": 43.9068182,
                "pitch": 51,
                "velocity": 64,
                "duration": 0.0818182,
                "tempo": 120.0
            },
            {
                "start_time": 43.9227273,
                "end_time": 44.0227273,
                "pitch": 51,
                "velocity": 64,
                "duration": 0.1,
                "tempo": 120.0
            },
            {
                "start_time": 44.0409091,
                "end_time": 44.3409091,
                "pitch": 48,
                "velocity": 64,
                "duration": 0.3,
                "tempo": 120.0
            },
            {
                "start_time": 44.3590909,
                "end_time": 44.5590909,
                "pitch": 49,
                "velocity": 64,
                "duration": 0.2,
                "tempo": 120.0
            },
            {
                "start_time": 44.575,
                "end_time": 44.6590909,
                "pitch": 51,
                "velocity": 64,
                "duration": 0.0840909,
                "tempo": 120.0
            },
            {
                "start_time": 44.6772727,
                "end_time": 44.7772727,
                "pitch": 51,
                "velocity": 64,
                "duration": 0.1,
                "tempo": 120.0
            },
            {
                "start_time": 44.7931818,
                "end_time": 44.8795455,
                "pitch": 51,
                "velocity": 64,
                "duration": 0.0863636,
                "tempo": 120.0
            },
            {
                "start_time": 44.8954545,
                "end_time": 44.9818182,
                "pitch": 51,
                "velocity": 64,
                "duration": 0.0863636,
                "tempo": 120.0
            },
            {
                "start_time": 44.9977273,
                "end_time": 45.1,
                "pitch": 51,
                "velocity": 64,
                "duration": 0.1022727,
                "tempo": 120.0
            },
            {
                "start_time": 45.1181818,
                "end_time": 45.2045455,
                "pitch": 51,
                "velocity": 64,
                "duration": 0.0863636,
                "tempo": 120.0
            },
            {
                "start_time": 45.2204545,
                "end_time": 45.3159091,
                "pitch": 51,
                "velocity": 64,
                "duration": 0.0954545,
                "tempo": 120.0
            },
            {
                "start_time": 45.3318182,
                "end_time": 45.4113636,
                "pitch": 51,
                "velocity": 64,
                "duration": 0.0795455,
                "tempo": 120.0
            },
            {
                "start_time": 45.4272727,
                "end_time": 45.5227273,
                "pitch": 51,
                "velocity": 64,
                "duration": 0.0954545,
                "tempo": 120.0
            },
            {
                "start_time": 45.5386364,
                "end_time": 45.6181818,
                "pitch": 51,
                "velocity": 64,
                "duration": 0.0795455,
                "tempo": 120.0
            },
            {
                "start_time": 45.6340909,
                "end_time": 45.7204545,
                "pitch": 51,
                "velocity": 64,
                "duration": 0.0863636,
                "tempo": 120.0
            },
            {
                "start_time": 45.7363636,
                "end_time": 45.8386364,
                "pitch": 51,
                "velocity": 64,
                "duration": 0.1022727,
                "tempo": 120.0
            },
            {
                "start_time": 45.8568182,
                "end_time": 45.9431818,
                "pitch": 51,
                "velocity": 64,
                "duration": 0.0863636,
                "tempo": 120.0
            },
            {
                "start_time": 45.9590909,
                "end_time": 46.0613636,
                "pitch": 44,
                "velocity": 64,
                "duration": 0.1022727,
                "tempo": 120.0
            },
            {
                "start_time": 46.0795455,
                "end_time": 46.2795455,
                "pitch": 46,
                "velocity": 64,
                "duration": 0.2,
                "tempo": 120.0
            },
            {
                "start_time": 46.2977273,
                "end_time": 46.3795455,
                "pitch": 51,
                "velocity": 64,
                "duration": 0.0818182,
                "tempo": 120.0
            },
            {
                "start_time": 46.3977273,
                "end_time": 46.4818182,
                "pitch": 51,
                "velocity": 64,
                "duration": 0.0840909,
                "tempo": 120.0
            },
            {
                "start_time": 46.4977273,
                "end_time": 46.5954545,
                "pitch": 51,
                "velocity": 64,
                "duration": 0.0977273,
                "tempo": 120.0
            },
            {
                "start_time": 46.6113636,
                "end_time": 46.6931818,
                "pitch": 51,
                "velocity": 64,
                "duration": 0.0818182,
                "tempo": 120.0
            },
            {
                "start_time": 46.7113636,
                "end_time": 46.8090909,
                "pitch": 46,
                "velocity": 64,
                "duration": 0.0977273,
                "tempo": 120.0
            },
            {
                "start_time": 46.825,
                "end_time": 46.9409091,
                "pitch": 46,
                "velocity": 64,
                "duration": 0.1159091,
                "tempo": 120.0
            },
            {
                "start_time": 47.0409091,
                "end_time": 47.125,
                "pitch": 44,
                "velocity": 64,
                "duration": 0.0840909,
                "tempo": 120.0
            },
            {
                "start_time": 47.1409091,
                "end_time": 47.2590909,
                "pitch": 44,
                "velocity": 64,
                "duration": 0.1181818,
                "tempo": 120.0
            },
            {
                "start_time": 47.3590909,
                "end_time": 47.4431818,
                "pitch": 54,
                "velocity": 64,
                "duration": 0.0840909,
                "tempo": 120.0
            },
            {
                "start_time": 47.4590909,
                "end_time": 47.5590909,
                "pitch": 54,
                "velocity": 64,
                "duration": 0.1,
                "tempo": 120.0
            },
            {
                "start_time": 47.575,
                "end_time": 47.6590909,
                "pitch": 49,
                "velocity": 64,
                "duration": 0.0840909,
                "tempo": 120.0
            },
            {
                "start_time": 47.6772727,
                "end_time": 47.7772727,
                "pitch": 49,
                "velocity": 64,
                "duration": 0.1,
                "tempo": 120.0
            },
            {
                "start_time": 47.9909091,
                "end_time": 48.0886364,
                "pitch": 47,
                "velocity": 64,
                "duration": 0.0977273,
                "tempo": 120.0
            },
            {
                "start_time": 48.1045455,
                "end_time": 48.1863636,
                "pitch": 47,
                "velocity": 64,
                "duration": 0.0818182,
                "tempo": 120.0
            },
            {
                "start_time": 48.2022727,
                "end_time": 48.3022727,
                "pitch": 47,
                "velocity": 64,
                "duration": 0.1,
                "tempo": 120.0
            },
            {
                "start_time": 48.3204545,
                "end_time": 48.4045455,
                "pitch": 47,
                "velocity": 64,
                "duration": 0.0840909,
                "tempo": 120.0
            },
            {
                "start_time": 48.4204545,
                "end_time": 48.5204545,
                "pitch": 47,
                "velocity": 64,
                "duration": 0.1,
                "tempo": 120.0
            },
            {
                "start_time": 48.5363636,
                "end_time": 48.6204545,
                "pitch": 47,
                "velocity": 64,
                "duration": 0.0840909,
                "tempo": 120.0
            },
            {
                "start_time": 48.6386364,
                "end_time": 48.7227273,
                "pitch": 47,
                "velocity": 64,
                "duration": 0.0840909,
                "tempo": 120.0
            },
            {
                "start_time": 48.7409091,
                "end_time": 48.8431818,
                "pitch": 47,
                "velocity": 64,
                "duration": 0.1022727,
                "tempo": 120.0
            },
            {
                "start_time": 48.8590909,
                "end_time": 48.9454545,
                "pitch": 47,
                "velocity": 64,
                "duration": 0.0863636,
                "tempo": 120.0
            },
            {
                "start_time": 48.9636364,
                "end_time": 49.0659091,
                "pitch": 47,
                "velocity": 64,
                "duration": 0.1022727,
                "tempo": 120.0
            },
            {
                "start_time": 49.0818182,
                "end_time": 49.1659091,
                "pitch": 47,
                "velocity": 64,
                "duration": 0.0840909,
                "tempo": 120.0
            },
            {
                "start_time": 49.1818182,
                "end_time": 49.2840909,
                "pitch": 47,
                "velocity": 64,
                "duration": 0.1022727,
                "tempo": 120.0
            },
            {
                "start_time": 49.3,
                "end_time": 49.3840909,
                "pitch": 47,
                "velocity": 64,
                "duration": 0.0840909,
                "tempo": 120.0
            },
            {
                "start_time": 49.4,
                "end_time": 49.4840909,
                "pitch": 47,
                "velocity": 64,
                "duration": 0.0840909,
                "tempo": 120.0
            },
            {
                "start_time": 49.5,
                "end_time": 49.6,
                "pitch": 47,
                "velocity": 64,
                "duration": 0.1,
                "tempo": 120.0
            },
            {
                "start_time": 49.6159091,
                "end_time": 49.6977273,
                "pitch": 47,
                "velocity": 64,
                "duration": 0.0818182,
                "tempo": 120.0
            },
            {
                "start_time": 49.7136364,
                "end_time": 49.8113636,
                "pitch": 47,
                "velocity": 64,
                "duration": 0.0977273,
                "tempo": 120.0
            },
            {
                "start_time": 49.8295455,
                "end_time": 49.9113636,
                "pitch": 47,
                "velocity": 64,
                "duration": 0.0818182,
                "tempo": 120.0
            },
            {
                "start_time": 49.9272727,
                "end_time": 50.0272727,
                "pitch": 47,
                "velocity": 64,
                "duration": 0.1,
                "tempo": 120.0
            },
            {
                "start_time": 50.0431818,
                "end_time": 50.1272727,
                "pitch": 47,
                "velocity": 64,
                "duration": 0.0840909,
                "tempo": 120.0
            },
            {
                "start_time": 50.1431818,
                "end_time": 50.2272727,
                "pitch": 47,
                "velocity": 64,
                "duration": 0.0840909,
                "tempo": 120.0
            },
            {
                "start_time": 50.2454545,
                "end_time": 50.3454545,
                "pitch": 47,
                "velocity": 64,
                "duration": 0.1,
                "tempo": 120.0
            },
            {
                "start_time": 50.3613636,
                "end_time": 50.4454545,
                "pitch": 47,
                "velocity": 64,
                "duration": 0.0840909,
                "tempo": 120.0
            },
            {
                "start_time": 50.4613636,
                "end_time": 50.5636364,
                "pitch": 47,
                "velocity": 64,
                "duration": 0.1022727,
                "tempo": 120.0
            },
            {
                "start_time": 50.5795455,
                "end_time": 50.6636364,
                "pitch": 47,
                "velocity": 64,
                "duration": 0.0840909,
                "tempo": 120.0
            },
            {
                "start_time": 50.6795455,
                "end_time": 50.7795455,
                "pitch": 47,
                "velocity": 64,
                "duration": 0.1,
                "tempo": 120.0
            },
            {
                "start_time": 50.7977273,
                "end_time": 51.2068182,
                "pitch": 53,
                "velocity": 64,
                "duration": 0.4090909,
                "tempo": 120.0
            },
            {
                "start_time": 51.225,
                "end_time": 51.4204545,
                "pitch": 49,
                "velocity": 64,
                "duration": 0.1954545,
                "tempo": 120.0
            },
            {
                "start_time": 51.4386364,
                "end_time": 51.5363636,
                "pitch": 51,
                "velocity": 64,
                "duration": 0.0977273,
                "tempo": 120.0
            },
            {
                "start_time": 51.5522727,
                "end_time": 51.6340909,
                "pitch": 51,
                "velocity": 64,
                "duration": 0.0818182,
                "tempo": 120.0
            },
            {
                "start_time": 51.65,
                "end_time": 51.7340909,
                "pitch": 51,
                "velocity": 64,
                "duration": 0.0840909,
                "tempo": 120.0
            },
            {
                "start_time": 51.75,
                "end_time": 51.8522727,
                "pitch": 51,
                "velocity": 64,
                "duration": 0.1022727,
                "tempo": 120.0
            },
            {
                "start_time": 51.8681818,
                "end_time": 51.9522727,
                "pitch": 51,
                "velocity": 64,
                "duration": 0.0840909,
                "tempo": 120.0
            },
            {
                "start_time": 51.9681818,
                "end_time": 52.0681818,
                "pitch": 51,
                "velocity": 64,
                "duration": 0.1,
                "tempo": 120.0
            },
            {
                "start_time": 52.0863636,
                "end_time": 52.1681818,
                "pitch": 51,
                "velocity": 64,
                "duration": 0.0818182,
                "tempo": 120.0
            },
            {
                "start_time": 52.1863636,
                "end_time": 52.2863636,
                "pitch": 51,
                "velocity": 64,
                "duration": 0.1,
                "tempo": 120.0
            },
            {
                "start_time": 52.3022727,
                "end_time": 52.3863636,
                "pitch": 51,
                "velocity": 64,
                "duration": 0.0840909,
                "tempo": 120.0
            },
            {
                "start_time": 52.4045455,
                "end_time": 52.4863636,
                "pitch": 51,
                "velocity": 64,
                "duration": 0.0818182,
                "tempo": 120.0
            },
            {
                "start_time": 52.5045455,
                "end_time": 52.6022727,
                "pitch": 51,
                "velocity": 64,
                "duration": 0.0977273,
                "tempo": 120.0
            },
            {
                "start_time": 52.6181818,
                "end_time": 52.7,
                "pitch": 51,
                "velocity": 64,
                "duration": 0.0818182,
                "tempo": 120.0
            },
            {
                "start_time": 52.7159091,
                "end_time": 52.8159091,
                "pitch": 51,
                "velocity": 64,
                "duration": 0.1,
                "tempo": 120.0
            },
            {
                "start_time": 52.8318182,
                "end_time": 52.9136364,
                "pitch": 51,
                "velocity": 64,
                "duration": 0.0818182,
                "tempo": 120.0
            },
            {
                "start_time": 52.9295455,
                "end_time": 53.0295455,
                "pitch": 51,
                "velocity": 64,
                "duration": 0.1,
                "tempo": 120.0
            },
            {
                "start_time": 53.0477273,
                "end_time": 53.1295455,
                "pitch": 51,
                "velocity": 64,
                "duration": 0.0818182,
                "tempo": 120.0
            },
            {
                "start_time": 53.1477273,
                "end_time": 53.2318182,
                "pitch": 51,
                "velocity": 64,
                "duration": 0.0840909,
                "tempo": 120.0
            },
            {
                "start_time": 53.2477273,
                "end_time": 53.3477273,
                "pitch": 51,
                "velocity": 64,
                "duration": 0.1,
                "tempo": 120.0
            },
            {
                "start_time": 53.3659091,
                "end_time": 53.4477273,
                "pitch": 51,
                "velocity": 64,
                "duration": 0.0818182,
                "tempo": 120.0
            },
            {
                "start_time": 53.4659091,
                "end_time": 53.5659091,
                "pitch": 51,
                "velocity": 64,
                "duration": 0.1,
                "tempo": 120.0
            },
            {
                "start_time": 53.5818182,
                "end_time": 53.6659091,
                "pitch": 51,
                "velocity": 64,
                "duration": 0.0840909,
                "tempo": 120.0
            },
            {
                "start_time": 53.6818182,
                "end_time": 53.7840909,
                "pitch": 51,
                "velocity": 64,
                "duration": 0.1022727,
                "tempo": 120.0
            },
            {
                "start_time": 53.8,
                "end_time": 53.8840909,
                "pitch": 51,
                "velocity": 64,
                "duration": 0.0840909,
                "tempo": 120.0
            },
            {
                "start_time": 53.9,
                "end_time": 53.9840909,
                "pitch": 51,
                "velocity": 64,
                "duration": 0.0840909,
                "tempo": 120.0
            },
            {
                "start_time": 54.0,
                "end_time": 54.1022727,
                "pitch": 51,
                "velocity": 64,
                "duration": 0.1022727,
                "tempo": 120.0
            },
            {
                "start_time": 54.1181818,
                "end_time": 54.2022727,
                "pitch": 51,
                "velocity": 64,
                "duration": 0.0840909,
                "tempo": 120.0
            },
            {
                "start_time": 54.2181818,
                "end_time": 54.3159091,
                "pitch": 51,
                "velocity": 64,
                "duration": 0.0977273,
                "tempo": 120.0
            },
            {
                "start_time": 54.3340909,
                "end_time": 54.4159091,
                "pitch": 51,
                "velocity": 64,
                "duration": 0.0818182,
                "tempo": 120.0
            },
            {
                "start_time": 54.4318182,
                "end_time": 54.5295455,
                "pitch": 51,
                "velocity": 64,
                "duration": 0.0977273,
                "tempo": 120.0
            },
            {
                "start_time": 54.5454545,
                "end_time": 54.6272727,
                "pitch": 51,
                "velocity": 64,
                "duration": 0.0818182,
                "tempo": 120.0
            },
            {
                "start_time": 54.6431818,
                "end_time": 54.7295455,
                "pitch": 51,
                "velocity": 64,
                "duration": 0.0863636,
                "tempo": 120.0
            },
            {
                "start_time": 54.7454545,
                "end_time": 54.85,
                "pitch": 51,
                "velocity": 64,
                "duration": 0.1045455,
                "tempo": 120.0
            },
            {
                "start_time": 54.8659091,
                "end_time": 54.9522727,
                "pitch": 47,
                "velocity": 64,
                "duration": 0.0863636,
                "tempo": 120.0
            },
            {
                "start_time": 54.9681818,
                "end_time": 55.0704545,
                "pitch": 47,
                "velocity": 64,
                "duration": 0.1022727,
                "tempo": 120.0
            },
            {
                "start_time": 55.0886364,
                "end_time": 55.1727273,
                "pitch": 47,
                "velocity": 64,
                "duration": 0.0840909,
                "tempo": 120.0
            },
            {
                "start_time": 55.1886364,
                "end_time": 55.2886364,
                "pitch": 47,
                "velocity": 64,
                "duration": 0.1,
                "tempo": 120.0
            },
            {
                "start_time": 55.3068182,
                "end_time": 55.3909091,
                "pitch": 47,
                "velocity": 64,
                "duration": 0.0840909,
                "tempo": 120.0
            },
            {
                "start_time": 55.4068182,
                "end_time": 55.4909091,
                "pitch": 47,
                "velocity": 64,
                "duration": 0.0840909,
                "tempo": 120.0
            },
            {
                "start_time": 55.5068182,
                "end_time": 55.6045455,
                "pitch": 47,
                "velocity": 64,
                "duration": 0.0977273,
                "tempo": 120.0
            },
            {
                "start_time": 55.6227273,
                "end_time": 55.7045455,
                "pitch": 47,
                "velocity": 64,
                "duration": 0.0818182,
                "tempo": 120.0
            },
            {
                "start_time": 55.7204545,
                "end_time": 55.8181818,
                "pitch": 47,
                "velocity": 64,
                "duration": 0.0977273,
                "tempo": 120.0
            },
            {
                "start_time": 55.8340909,
                "end_time": 55.9159091,
                "pitch": 47,
                "velocity": 64,
                "duration": 0.0818182,
                "tempo": 120.0
            },
            {
                "start_time": 55.9340909,
                "end_time": 56.0340909,
                "pitch": 47,
                "velocity": 64,
                "duration": 0.1,
                "tempo": 120.0
            },
            {
                "start_time": 56.05,
                "end_time": 56.1340909,
                "pitch": 47,
                "velocity": 64,
                "duration": 0.0840909,
                "tempo": 120.0
            },
            {
                "start_time": 56.15,
                "end_time": 56.2340909,
                "pitch": 47,
                "velocity": 64,
                "duration": 0.0840909,
                "tempo": 120.0
            },
            {
                "start_time": 56.25,
                "end_time": 56.3522727,
                "pitch": 47,
                "velocity": 64,
                "duration": 0.1022727,
                "tempo": 120.0
            },
            {
                "start_time": 56.3681818,
                "end_time": 56.4522727,
                "pitch": 47,
                "velocity": 64,
                "duration": 0.0840909,
                "tempo": 120.0
            },
            {
                "start_time": 56.4704545,
                "end_time": 56.5727273,
                "pitch": 47,
                "velocity": 64,
                "duration": 0.1022727,
                "tempo": 120.0
            },
            {
                "start_time": 56.5909091,
                "end_time": 56.675,
                "pitch": 47,
                "velocity": 64,
                "duration": 0.0840909,
                "tempo": 120.0
            },
            {
                "start_time": 56.6931818,
                "end_time": 56.7954545,
                "pitch": 47,
                "velocity": 64,
                "duration": 0.1022727,
                "tempo": 120.0
            },
            {
                "start_time": 56.8113636,
                "end_time": 56.8954545,
                "pitch": 47,
                "velocity": 64,
                "duration": 0.0840909,
                "tempo": 120.0
            },
            {
                "start_time": 56.9136364,
                "end_time": 56.9977273,
                "pitch": 47,
                "velocity": 64,
                "duration": 0.0840909,
                "tempo": 120.0
            },
            {
                "start_time": 57.0136364,
                "end_time": 57.1136364,
                "pitch": 47,
                "velocity": 64,
                "duration": 0.1,
                "tempo": 120.0
            },
            {
                "start_time": 57.1295455,
                "end_time": 57.2136364,
                "pitch": 47,
                "velocity": 64,
                "duration": 0.0840909,
                "tempo": 120.0
            },
            {
                "start_time": 57.2318182,
                "end_time": 57.3272727,
                "pitch": 47,
                "velocity": 64,
                "duration": 0.0954545,
                "tempo": 120.0
            },
            {
                "start_time": 57.3431818,
                "end_time": 57.4227273,
                "pitch": 47,
                "velocity": 64,
                "duration": 0.0795455,
                "tempo": 120.0
            },
            {
                "start_time": 57.4386364,
                "end_time": 57.5340909,
                "pitch": 47,
                "velocity": 64,
                "duration": 0.0954545,
                "tempo": 120.0
            },
            {
                "start_time": 57.55,
                "end_time": 57.6295455,
                "pitch": 47,
                "velocity": 64,
                "duration": 0.0795455,
                "tempo": 120.0
            },
            {
                "start_time": 57.6454545,
                "end_time": 58.0727273,
                "pitch": 53,
                "velocity": 64,
                "duration": 0.4272727,
                "tempo": 120.0
            },
            {
                "start_time": 58.0886364,
                "end_time": 58.2909091,
                "pitch": 49,
                "velocity": 64,
                "duration": 0.2022727,
                "tempo": 120.0
            },
            {
                "start_time": 58.3068182,
                "end_time": 58.3909091,
                "pitch": 51,
                "velocity": 64,
                "duration": 0.0840909,
                "tempo": 120.0
            },
            {
                "start_time": 58.4068182,
                "end_time": 58.4909091,
                "pitch": 51,
                "velocity": 64,
                "duration": 0.0840909,
                "tempo": 120.0
            },
            {
                "start_time": 58.5068182,
                "end_time": 58.6068182,
                "pitch": 51,
                "velocity": 64,
                "duration": 0.1,
                "tempo": 120.0
            },
            {
                "start_time": 58.6227273,
                "end_time": 58.7045455,
                "pitch": 51,
                "velocity": 64,
                "duration": 0.0818182,
                "tempo": 120.0
            },
            {
                "start_time": 58.7204545,
                "end_time": 58.8181818,
                "pitch": 51,
                "velocity": 64,
                "duration": 0.0977273,
                "tempo": 120.0
            },
            {
                "start_time": 58.8363636,
                "end_time": 58.9181818,
                "pitch": 51,
                "velocity": 64,
                "duration": 0.0818182,
                "tempo": 120.0
            },
            {
                "start_time": 58.9340909,
                "end_time": 59.0340909,
                "pitch": 51,
                "velocity": 64,
                "duration": 0.1,
                "tempo": 120.0
            },
            {
                "start_time": 59.05,
                "end_time": 59.1340909,
                "pitch": 51,
                "velocity": 64,
                "duration": 0.0840909,
                "tempo": 120.0
            },
            {
                "start_time": 59.1522727,
                "end_time": 59.2340909,
                "pitch": 51,
                "velocity": 64,
                "duration": 0.0818182,
                "tempo": 120.0
            },
            {
                "start_time": 59.2522727,
                "end_time": 59.3522727,
                "pitch": 51,
                "velocity": 64,
                "duration": 0.1,
                "tempo": 120.0
            },
            {
                "start_time": 59.3681818,
                "end_time": 59.4522727,
                "pitch": 51,
                "velocity": 64,
                "duration": 0.0840909,
                "tempo": 120.0
            },
            {
                "start_time": 59.4681818,
                "end_time": 59.5704545,
                "pitch": 51,
                "velocity": 64,
                "duration": 0.1022727,
                "tempo": 120.0
            },
            {
                "start_time": 59.5863636,
                "end_time": 59.6704545,
                "pitch": 51,
                "velocity": 64,
                "duration": 0.0840909,
                "tempo": 120.0
            },
            {
                "start_time": 59.6863636,
                "end_time": 59.7863636,
                "pitch": 51,
                "velocity": 64,
                "duration": 0.1,
                "tempo": 120.0
            },
            {
                "start_time": 59.8045455,
                "end_time": 59.8886364,
                "pitch": 51,
                "velocity": 64,
                "duration": 0.0840909,
                "tempo": 120.0
            },
            {
                "start_time": 59.9045455,
                "end_time": 59.9886364,
                "pitch": 51,
                "velocity": 64,
                "duration": 0.0840909,
                "tempo": 120.0
            },
            {
                "start_time": 60.0045455,
                "end_time": 60.1045455,
                "pitch": 51,
                "velocity": 64,
                "duration": 0.1,
                "tempo": 120.0
            },
            {
                "start_time": 60.1227273,
                "end_time": 60.2045455,
                "pitch": 51,
                "velocity": 64,
                "duration": 0.0818182,
                "tempo": 120.0
            },
            {
                "start_time": 60.2227273,
                "end_time": 60.3204545,
                "pitch": 51,
                "velocity": 64,
                "duration": 0.0977273,
                "tempo": 120.0
            },
            {
                "start_time": 60.3363636,
                "end_time": 60.4181818,
                "pitch": 51,
                "velocity": 64,
                "duration": 0.0818182,
                "tempo": 120.0
            },
            {
                "start_time": 60.4340909,
                "end_time": 60.5340909,
                "pitch": 51,
                "velocity": 64,
                "duration": 0.1,
                "tempo": 120.0
            },
            {
                "start_time": 60.55,
                "end_time": 60.6318182,
                "pitch": 51,
                "velocity": 64,
                "duration": 0.0818182,
                "tempo": 120.0
            },
            {
                "start_time": 60.6477273,
                "end_time": 60.7340909,
                "pitch": 51,
                "velocity": 64,
                "duration": 0.0863636,
                "tempo": 120.0
            },
            {
                "start_time": 60.75,
                "end_time": 60.8522727,
                "pitch": 51,
                "velocity": 64,
                "duration": 0.1022727,
                "tempo": 120.0
            },
            {
                "start_time": 60.8704545,
                "end_time": 60.9545455,
                "pitch": 51,
                "velocity": 64,
                "duration": 0.0840909,
                "tempo": 120.0
            },
            {
                "start_time": 60.9727273,
                "end_time": 61.075,
                "pitch": 51,
                "velocity": 64,
                "duration": 0.1022727,
                "tempo": 120.0
            },
            {
                "start_time": 61.0931818,
                "end_time": 61.1772727,
                "pitch": 51,
                "velocity": 64,
                "duration": 0.0840909,
                "tempo": 120.0
            },
            {
                "start_time": 61.1931818,
                "end_time": 61.2931818,
                "pitch": 51,
                "velocity": 64,
                "duration": 0.1,
                "tempo": 120.0
            },
            {
                "start_time": 61.3090909,
                "end_time": 61.3931818,
                "pitch": 51,
                "velocity": 64,
                "duration": 0.0840909,
                "tempo": 120.0
            },
            {
                "start_time": 61.4113636,
                "end_time": 61.4931818,
                "pitch": 51,
                "velocity": 64,
                "duration": 0.0818182,
                "tempo": 120.0
            },
            {
                "start_time": 61.5113636,
                "end_time": 61.6090909,
                "pitch": 51,
                "velocity": 64,
                "duration": 0.0977273,
                "tempo": 120.0
            },
            {
                "start_time": 61.625,
                "end_time": 61.7068182,
                "pitch": 51,
                "velocity": 64,
                "duration": 0.0818182,
                "tempo": 120.0
            },
            {
                "start_time": 61.725,
                "end_time": 61.8227273,
                "pitch": 54,
                "velocity": 64,
                "duration": 0.0977273,
                "tempo": 120.0
            },
            {
                "start_time": 61.8386364,
                "end_time": 61.9204545,
                "pitch": 54,
                "velocity": 64,
                "duration": 0.0818182,
                "tempo": 120.0
            },
            {
                "start_time": 61.9363636,
                "end_time": 62.0363636,
                "pitch": 54,
                "velocity": 64,
                "duration": 0.1,
                "tempo": 120.0
            },
            {
                "start_time": 62.0545455,
                "end_time": 62.1386364,
                "pitch": 54,
                "velocity": 64,
                "duration": 0.0840909,
                "tempo": 120.0
            },
            {
                "start_time": 62.1545455,
                "end_time": 62.2386364,
                "pitch": 54,
                "velocity": 64,
                "duration": 0.0840909,
                "tempo": 120.0
            },
            {
                "start_time": 62.2545455,
                "end_time": 62.3545455,
                "pitch": 54,
                "velocity": 64,
                "duration": 0.1,
                "tempo": 120.0
            },
            {
                "start_time": 62.3727273,
                "end_time": 62.4545455,
                "pitch": 54,
                "velocity": 64,
                "duration": 0.0818182,
                "tempo": 120.0
            },
            {
                "start_time": 62.4727273,
                "end_time": 62.5727273,
                "pitch": 54,
                "velocity": 64,
                "duration": 0.1,
                "tempo": 120.0
            },
            {
                "start_time": 62.5886364,
                "end_time": 62.6727273,
                "pitch": 54,
                "velocity": 64,
                "duration": 0.0840909,
                "tempo": 120.0
            },
            {
                "start_time": 62.6909091,
                "end_time": 62.7909091,
                "pitch": 54,
                "velocity": 64,
                "duration": 0.1,
                "tempo": 120.0
            },
            {
                "start_time": 62.8068182,
                "end_time": 62.8909091,
                "pitch": 54,
                "velocity": 64,
                "duration": 0.0840909,
                "tempo": 120.0
            },
            {
                "start_time": 62.9068182,
                "end_time": 62.9909091,
                "pitch": 54,
                "velocity": 64,
                "duration": 0.0840909,
                "tempo": 120.0
            },
            {
                "start_time": 63.0068182,
                "end_time": 63.1090909,
                "pitch": 54,
                "velocity": 64,
                "duration": 0.1022727,
                "tempo": 120.0
            },
            {
                "start_time": 63.125,
                "end_time": 63.2090909,
                "pitch": 54,
                "velocity": 64,
                "duration": 0.0840909,
                "tempo": 120.0
            },
            {
                "start_time": 63.225,
                "end_time": 63.3227273,
                "pitch": 54,
                "velocity": 64,
                "duration": 0.0977273,
                "tempo": 120.0
            },
            {
                "start_time": 63.3409091,
                "end_time": 63.4227273,
                "pitch": 54,
                "velocity": 64,
                "duration": 0.0818182,
                "tempo": 120.0
            },
            {
                "start_time": 63.4386364,
                "end_time": 63.5363636,
                "pitch": 53,
                "velocity": 64,
                "duration": 0.0977273,
                "tempo": 120.0
            },
            {
                "start_time": 63.5522727,
                "end_time": 63.6340909,
                "pitch": 53,
                "velocity": 64,
                "duration": 0.0818182,
                "tempo": 120.0
            },
            {
                "start_time": 63.6522727,
                "end_time": 63.7363636,
                "pitch": 53,
                "velocity": 64,
                "duration": 0.0840909,
                "tempo": 120.0
            },
            {
                "start_time": 63.7545455,
                "end_time": 63.8568182,
                "pitch": 53,
                "velocity": 64,
                "duration": 0.1022727,
                "tempo": 120.0
            },
            {
                "start_time": 63.8727273,
                "end_time": 63.9590909,
                "pitch": 53,
                "velocity": 64,
                "duration": 0.0863636,
                "tempo": 120.0
            },
            {
                "start_time": 63.975,
                "end_time": 64.0795455,
                "pitch": 53,
                "velocity": 64,
                "duration": 0.1045455,
                "tempo": 120.0
            },
            {
                "start_time": 64.0954545,
                "end_time": 64.1795455,
                "pitch": 53,
                "velocity": 64,
                "duration": 0.0840909,
                "tempo": 120.0
            },
            {
                "start_time": 64.1954545,
                "end_time": 64.2954545,
                "pitch": 53,
                "velocity": 64,
                "duration": 0.1,
                "tempo": 120.0
            },
            {
                "start_time": 64.3136364,
                "end_time": 64.3977273,
                "pitch": 53,
                "velocity": 64,
                "duration": 0.0840909,
                "tempo": 120.0
            },
            {
                "start_time": 64.4136364,
                "end_time": 64.4977273,
                "pitch": 53,
                "velocity": 64,
                "duration": 0.0840909,
                "tempo": 120.0
            },
            {
                "start_time": 64.5136364,
                "end_time": 64.6090909,
                "pitch": 53,
                "velocity": 64,
                "duration": 0.0954545,
                "tempo": 120.0
            },
            {
                "start_time": 64.625,
                "end_time": 64.7045455,
                "pitch": 53,
                "velocity": 64,
                "duration": 0.0795455,
                "tempo": 120.0
            },
            {
                "start_time": 64.7204545,
                "end_time": 64.8159091,
                "pitch": 53,
                "velocity": 64,
                "duration": 0.0954545,
                "tempo": 120.0
            },
            {
                "start_time": 64.8318182,
                "end_time": 64.9113636,
                "pitch": 53,
                "velocity": 64,
                "duration": 0.0795455,
                "tempo": 120.0
            },
            {
                "start_time": 64.9272727,
                "end_time": 65.0295455,
                "pitch": 53,
                "velocity": 64,
                "duration": 0.1022727,
                "tempo": 120.0
            },
            {
                "start_time": 65.0477273,
                "end_time": 65.1340909,
                "pitch": 53,
                "velocity": 64,
                "duration": 0.0863636,
                "tempo": 120.0
            },
            {
                "start_time": 65.15,
                "end_time": 65.2363636,
                "pitch": 51,
                "velocity": 64,
                "duration": 0.0863636,
                "tempo": 120.0
            },
            {
                "start_time": 65.2522727,
                "end_time": 65.3545455,
                "pitch": 51,
                "velocity": 64,
                "duration": 0.1022727,
                "tempo": 120.0
            },
            {
                "start_time": 65.3727273,
                "end_time": 65.4568182,
                "pitch": 51,
                "velocity": 64,
                "duration": 0.0840909,
                "tempo": 120.0
            },
            {
                "start_time": 65.4727273,
                "end_time": 65.5727273,
                "pitch": 51,
                "velocity": 64,
                "duration": 0.1,
                "tempo": 120.0
            },
            {
                "start_time": 65.5909091,
                "end_time": 65.6727273,
                "pitch": 51,
                "velocity": 64,
                "duration": 0.0818182,
                "tempo": 120.0
            },
            {
                "start_time": 65.6909091,
                "end_time": 65.7909091,
                "pitch": 51,
                "velocity": 64,
                "duration": 0.1,
                "tempo": 120.0
            },
            {
                "start_time": 65.8068182,
                "end_time": 65.8909091,
                "pitch": 51,
                "velocity": 64,
                "duration": 0.0840909,
                "tempo": 120.0
            },
            {
                "start_time": 65.9068182,
                "end_time": 65.9909091,
                "pitch": 51,
                "velocity": 64,
                "duration": 0.0840909,
                "tempo": 120.0
            },
            {
                "start_time": 66.0090909,
                "end_time": 66.1090909,
                "pitch": 51,
                "velocity": 64,
                "duration": 0.1,
                "tempo": 120.0
            },
            {
                "start_time": 66.125,
                "end_time": 66.2090909,
                "pitch": 51,
                "velocity": 64,
                "duration": 0.0840909,
                "tempo": 120.0
            },
            {
                "start_time": 66.225,
                "end_time": 66.325,
                "pitch": 51,
                "velocity": 64,
                "duration": 0.1,
                "tempo": 120.0
            },
            {
                "start_time": 66.3409091,
                "end_time": 66.4227273,
                "pitch": 51,
                "velocity": 64,
                "duration": 0.0818182,
                "tempo": 120.0
            },
            {
                "start_time": 66.4386364,
                "end_time": 66.5363636,
                "pitch": 51,
                "velocity": 64,
                "duration": 0.0977273,
                "tempo": 120.0
            },
            {
                "start_time": 66.5545455,
                "end_time": 66.6363636,
                "pitch": 51,
                "velocity": 64,
                "duration": 0.0818182,
                "tempo": 120.0
            },
            {
                "start_time": 66.6522727,
                "end_time": 66.7363636,
                "pitch": 51,
                "velocity": 64,
                "duration": 0.0840909,
                "tempo": 120.0
            },
            {
                "start_time": 66.7545455,
                "end_time": 66.8568182,
                "pitch": 51,
                "velocity": 64,
                "duration": 0.1022727,
                "tempo": 120.0
            },
            {
                "start_time": 66.8727273,
                "end_time": 66.9590909,
                "pitch": 47,
                "velocity": 64,
                "duration": 0.0863636,
                "tempo": 120.0
            },
            {
                "start_time": 66.9772727,
                "end_time": 67.0795455,
                "pitch": 47,
                "velocity": 64,
                "duration": 0.1022727,
                "tempo": 120.0
            },
            {
                "start_time": 67.0954545,
                "end_time": 67.1795455,
                "pitch": 47,
                "velocity": 64,
                "duration": 0.0840909,
                "tempo": 120.0
            },
            {
                "start_time": 67.1954545,
                "end_time": 67.2977273,
                "pitch": 47,
                "velocity": 64,
                "duration": 0.1022727,
                "tempo": 120.0
            },
            {
                "start_time": 67.3136364,
                "end_time": 67.3977273,
                "pitch": 47,
                "velocity": 64,
                "duration": 0.0840909,
                "tempo": 120.0
            },
            {
                "start_time": 67.4136364,
                "end_time": 67.4977273,
                "pitch": 47,
                "velocity": 64,
                "duration": 0.0840909,
                "tempo": 120.0
            },
            {
                "start_time": 67.5136364,
                "end_time": 67.6136364,
                "pitch": 47,
                "velocity": 64,
                "duration": 0.1,
                "tempo": 120.0
            },
            {
                "start_time": 67.6295455,
                "end_time": 67.7113636,
                "pitch": 47,
                "velocity": 64,
                "duration": 0.0818182,
                "tempo": 120.0
            },
            {
                "start_time": 67.7272727,
                "end_time": 67.825,
                "pitch": 49,
                "velocity": 64,
                "duration": 0.0977273,
                "tempo": 120.0
            },
            {
                "start_time": 67.8431818,
                "end_time": 67.925,
                "pitch": 49,
                "velocity": 64,
                "duration": 0.0818182,
                "tempo": 120.0
            },
            {
                "start_time": 67.9409091,
                "end_time": 68.0409091,
                "pitch": 49,
                "velocity": 64,
                "duration": 0.1,
                "tempo": 120.0
            },
            {
                "start_time": 68.0568182,
                "end_time": 68.1409091,
                "pitch": 49,
                "velocity": 64,
                "duration": 0.0840909,
                "tempo": 120.0
            },
            {
                "start_time": 68.1590909,
                "end_time": 68.2409091,
                "pitch": 49,
                "velocity": 64,
                "duration": 0.0818182,
                "tempo": 120.0
            },
            {
                "start_time": 68.2590909,
                "end_time": 68.3590909,
                "pitch": 49,
                "velocity": 64,
                "duration": 0.1,
                "tempo": 120.0
            },
            {
                "start_time": 68.375,
                "end_time": 68.4590909,
                "pitch": 49,
                "velocity": 64,
                "duration": 0.0840909,
                "tempo": 120.0
            },
            {
                "start_time": 68.475,
                "end_time": 68.5772727,
                "pitch": 49,
                "velocity": 64,
                "duration": 0.1022727,
                "tempo": 120.0
            },
            {
                "start_time": 68.5931818,
                "end_time": 68.6772727,
                "pitch": 54,
                "velocity": 64,
                "duration": 0.0840909,
                "tempo": 120.0
            },
            {
                "start_time": 68.6931818,
                "end_time": 68.7931818,
                "pitch": 54,
                "velocity": 64,
                "duration": 0.1,
                "tempo": 120.0
            },
            {
                "start_time": 68.8113636,
                "end_time": 68.8931818,
                "pitch": 54,
                "velocity": 64,
                "duration": 0.0818182,
                "tempo": 120.0
            },
            {
                "start_time": 68.9113636,
                "end_time": 68.9954545,
                "pitch": 54,
                "velocity": 64,
                "duration": 0.0840909,
                "tempo": 120.0
            },
            {
                "start_time": 69.0113636,
                "end_time": 69.1113636,
                "pitch": 54,
                "velocity": 64,
                "duration": 0.1,
                "tempo": 120.0
            },
            {
                "start_time": 69.1295455,
                "end_time": 69.2113636,
                "pitch": 54,
                "velocity": 64,
                "duration": 0.0818182,
                "tempo": 120.0
            },
            {
                "start_time": 69.2295455,
                "end_time": 69.3272727,
                "pitch": 54,
                "velocity": 64,
                "duration": 0.0977273,
                "tempo": 120.0
            },
            {
                "start_time": 69.3431818,
                "end_time": 69.425,
                "pitch": 54,
                "velocity": 64,
                "duration": 0.0818182,
                "tempo": 120.0
            },
            {
                "start_time": 69.4409091,
                "end_time": 69.5409091,
                "pitch": 54,
                "velocity": 64,
                "duration": 0.1,
                "tempo": 120.0
            },
            {
                "start_time": 69.5568182,
                "end_time": 69.6386364,
                "pitch": 54,
                "velocity": 64,
                "duration": 0.0818182,
                "tempo": 120.0
            },
            {
                "start_time": 69.6545455,
                "end_time": 69.7386364,
                "pitch": 54,
                "velocity": 64,
                "duration": 0.0840909,
                "tempo": 120.0
            },
            {
                "start_time": 69.7545455,
                "end_time": 69.8545455,
                "pitch": 54,
                "velocity": 64,
                "duration": 0.1,
                "tempo": 120.0
            },
            {
                "start_time": 69.8727273,
                "end_time": 69.9568182,
                "pitch": 54,
                "velocity": 64,
                "duration": 0.0840909,
                "tempo": 120.0
            },
            {
                "start_time": 69.9727273,
                "end_time": 70.0727273,
                "pitch": 54,
                "velocity": 64,
                "duration": 0.1,
                "tempo": 120.0
            },
            {
                "start_time": 70.0909091,
                "end_time": 70.175,
                "pitch": 54,
                "velocity": 64,
                "duration": 0.0840909,
                "tempo": 120.0
            },
            {
                "start_time": 70.1931818,
                "end_time": 70.2954545,
                "pitch": 54,
                "velocity": 64,
                "duration": 0.1022727,
                "tempo": 120.0
            },
            {
                "start_time": 70.3113636,
                "end_time": 70.3977273,
                "pitch": 53,
                "velocity": 64,
                "duration": 0.0863636,
                "tempo": 120.0
            },
            {
                "start_time": 70.4159091,
                "end_time": 70.5,
                "pitch": 53,
                "velocity": 64,
                "duration": 0.0840909,
                "tempo": 120.0
            },
            {
                "start_time": 70.5181818,
                "end_time": 70.6136364,
                "pitch": 53,
                "velocity": 64,
                "duration": 0.0954545,
                "tempo": 120.0
            },
            {
                "start_time": 70.6295455,
                "end_time": 70.7090909,
                "pitch": 53,
                "velocity": 64,
                "duration": 0.0795455,
                "tempo": 120.0
            },
            {
                "start_time": 70.725,
                "end_time": 70.8204545,
                "pitch": 53,
                "velocity": 64,
                "duration": 0.0954545,
                "tempo": 120.0
            },
            {
                "start_time": 70.8363636,
                "end_time": 70.9159091,
                "pitch": 53,
                "velocity": 64,
                "duration": 0.0795455,
                "tempo": 120.0
            },
            {
                "start_time": 70.9318182,
                "end_time": 71.0340909,
                "pitch": 53,
                "velocity": 64,
                "duration": 0.1022727,
                "tempo": 120.0
            },
            {
                "start_time": 71.05,
                "end_time": 71.1363636,
                "pitch": 53,
                "velocity": 64,
                "duration": 0.0863636,
                "tempo": 120.0
            },
            {
                "start_time": 71.1545455,
                "end_time": 71.2386364,
                "pitch": 53,
                "velocity": 64,
                "duration": 0.0840909,
                "tempo": 120.0
            },
            {
                "start_time": 71.2568182,
                "end_time": 71.3590909,
                "pitch": 53,
                "velocity": 64,
                "duration": 0.1022727,
                "tempo": 120.0
            },
            {
                "start_time": 71.375,
                "end_time": 71.4590909,
                "pitch": 53,
                "velocity": 64,
                "duration": 0.0840909,
                "tempo": 120.0
            },
            {
                "start_time": 71.4772727,
                "end_time": 71.5772727,
                "pitch": 53,
                "velocity": 64,
                "duration": 0.1,
                "tempo": 120.0
            },
            {
                "start_time": 71.5931818,
                "end_time": 71.6772727,
                "pitch": 53,
                "velocity": 64,
                "duration": 0.0840909,
                "tempo": 120.0
            },
            {
                "start_time": 71.6931818,
                "end_time": 71.7931818,
                "pitch": 53,
                "velocity": 64,
                "duration": 0.1,
                "tempo": 120.0
            },
            {
                "start_time": 71.8113636,
                "end_time": 71.8954545,
                "pitch": 53,
                "velocity": 64,
                "duration": 0.0840909,
                "tempo": 120.0
            },
            {
                "start_time": 71.9136364,
                "end_time": 72.0,
                "pitch": 53,
                "velocity": 64,
                "duration": 0.0863636,
                "tempo": 120.0
            },
            {
                "start_time": 72.0159091,
                "end_time": 72.1181818,
                "pitch": 51,
                "velocity": 64,
                "duration": 0.1022727,
                "tempo": 120.0
            },
            {
                "start_time": 72.1363636,
                "end_time": 72.2204545,
                "pitch": 51,
                "velocity": 64,
                "duration": 0.0840909,
                "tempo": 120.0
            },
            {
                "start_time": 72.2386364,
                "end_time": 72.3340909,
                "pitch": 51,
                "velocity": 64,
                "duration": 0.0954545,
                "tempo": 120.0
            },
            {
                "start_time": 72.35,
                "end_time": 72.4295455,
                "pitch": 51,
                "velocity": 64,
                "duration": 0.0795455,
                "tempo": 120.0
            },
            {
                "start_time": 72.4454545,
                "end_time": 72.5409091,
                "pitch": 51,
                "velocity": 64,
                "duration": 0.0954545,
                "tempo": 120.0
            },
            {
                "start_time": 72.5568182,
                "end_time": 72.6363636,
                "pitch": 51,
                "velocity": 64,
                "duration": 0.0795455,
                "tempo": 120.0
            },
            {
                "start_time": 72.6522727,
                "end_time": 72.7386364,
                "pitch": 51,
                "velocity": 64,
                "duration": 0.0863636,
                "tempo": 120.0
            },
            {
                "start_time": 72.7545455,
                "end_time": 72.8568182,
                "pitch": 51,
                "velocity": 64,
                "duration": 0.1022727,
                "tempo": 120.0
            },
            {
                "start_time": 72.875,
                "end_time": 72.9590909,
                "pitch": 51,
                "velocity": 64,
                "duration": 0.0840909,
                "tempo": 120.0
            },
            {
                "start_time": 72.9772727,
                "end_time": 73.0795455,
                "pitch": 51,
                "velocity": 64,
                "duration": 0.1022727,
                "tempo": 120.0
            },
            {
                "start_time": 73.0977273,
                "end_time": 73.1795455,
                "pitch": 51,
                "velocity": 64,
                "duration": 0.0818182,
                "tempo": 120.0
            },
            {
                "start_time": 73.1977273,
                "end_time": 73.2977273,
                "pitch": 51,
                "velocity": 64,
                "duration": 0.1,
                "tempo": 120.0
            },
            {
                "start_time": 73.3136364,
                "end_time": 73.3977273,
                "pitch": 51,
                "velocity": 64,
                "duration": 0.0840909,
                "tempo": 120.0
            },
            {
                "start_time": 73.4136364,
                "end_time": 73.4977273,
                "pitch": 51,
                "velocity": 64,
                "duration": 0.0840909,
                "tempo": 120.0
            },
            {
                "start_time": 73.5159091,
                "end_time": 73.6136364,
                "pitch": 51,
                "velocity": 64,
                "duration": 0.0977273,
                "tempo": 120.0
            },
            {
                "start_time": 73.6295455,
                "end_time": 73.7113636,
                "pitch": 51,
                "velocity": 64,
                "duration": 0.0818182,
                "tempo": 120.0
            },
            {
                "start_time": 73.7272727,
                "end_time": 73.8272727,
                "pitch": 47,
                "velocity": 64,
                "duration": 0.1,
                "tempo": 120.0
            },
            {
                "start_time": 73.8431818,
                "end_time": 73.925,
                "pitch": 47,
                "velocity": 64,
                "duration": 0.0818182,
                "tempo": 120.0
            },
            {
                "start_time": 73.9409091,
                "end_time": 74.0409091,
                "pitch": 47,
                "velocity": 64,
                "duration": 0.1,
                "tempo": 120.0
            },
            {
                "start_time": 74.0590909,
                "end_time": 74.1409091,
                "pitch": 47,
                "velocity": 64,
                "duration": 0.0818182,
                "tempo": 120.0
            },
            {
                "start_time": 74.1590909,
                "end_time": 74.2431818,
                "pitch": 47,
                "velocity": 64,
                "duration": 0.0840909,
                "tempo": 120.0
            },
            {
                "start_time": 74.2590909,
                "end_time": 74.3590909,
                "pitch": 47,
                "velocity": 64,
                "duration": 0.1,
                "tempo": 120.0
            },
            {
                "start_time": 74.3772727,
                "end_time": 74.4590909,
                "pitch": 47,
                "velocity": 64,
                "duration": 0.0818182,
                "tempo": 120.0
            },
            {
                "start_time": 74.4772727,
                "end_time": 74.5772727,
                "pitch": 47,
                "velocity": 64,
                "duration": 0.1,
                "tempo": 120.0
            },
            {
                "start_time": 74.5931818,
                "end_time": 74.6772727,
                "pitch": 49,
                "velocity": 64,
                "duration": 0.0840909,
                "tempo": 120.0
            },
            {
                "start_time": 74.6931818,
                "end_time": 74.7954545,
                "pitch": 49,
                "velocity": 64,
                "duration": 0.1022727,
                "tempo": 120.0
            },
            {
                "start_time": 74.8113636,
                "end_time": 74.8954545,
                "pitch": 49,
                "velocity": 64,
                "duration": 0.0840909,
                "tempo": 120.0
            },
            {
                "start_time": 74.9136364,
                "end_time": 75.0,
                "pitch": 49,
                "velocity": 64,
                "duration": 0.0863636,
                "tempo": 120.0
            },
            {
                "start_time": 75.0159091,
                "end_time": 75.1181818,
                "pitch": 49,
                "velocity": 64,
                "duration": 0.1022727,
                "tempo": 120.0
            },
            {
                "start_time": 75.1363636,
                "end_time": 75.2204545,
                "pitch": 49,
                "velocity": 64,
                "duration": 0.0840909,
                "tempo": 120.0
            },
            {
                "start_time": 75.2386364,
                "end_time": 75.3363636,
                "pitch": 49,
                "velocity": 64,
                "duration": 0.0977273,
                "tempo": 120.0
            },
            {
                "start_time": 75.3545455,
                "end_time": 75.4363636,
                "pitch": 49,
                "velocity": 64,
                "duration": 0.0818182,
                "tempo": 120.0
            },
            {
                "start_time": 75.4522727,
                "end_time": 75.55,
                "pitch": 51,
                "velocity": 64,
                "duration": 0.0977273,
                "tempo": 120.0
            },
            {
                "start_time": 75.5659091,
                "end_time": 75.6477273,
                "pitch": 51,
                "velocity": 64,
                "duration": 0.0818182,
                "tempo": 120.0
            },
            {
                "start_time": 75.6659091,
                "end_time": 75.7477273,
                "pitch": 51,
                "velocity": 64,
                "duration": 0.0818182,
                "tempo": 120.0
            },
            {
                "start_time": 75.7659091,
                "end_time": 75.8659091,
                "pitch": 51,
                "velocity": 64,
                "duration": 0.1,
                "tempo": 120.0
            },
            {
                "start_time": 75.8818182,
                "end_time": 75.9659091,
                "pitch": 51,
                "velocity": 64,
                "duration": 0.0840909,
                "tempo": 120.0
            },
            {
                "start_time": 75.9818182,
                "end_time": 76.0840909,
                "pitch": 51,
                "velocity": 64,
                "duration": 0.1022727,
                "tempo": 120.0
            },
            {
                "start_time": 76.1,
                "end_time": 76.1840909,
                "pitch": 51,
                "velocity": 64,
                "duration": 0.0840909,
                "tempo": 120.0
            },
            {
                "start_time": 76.2,
                "end_time": 76.3,
                "pitch": 51,
                "velocity": 64,
                "duration": 0.1,
                "tempo": 120.0
            },
            {
                "start_time": 76.3181818,
                "end_time": 76.4,
                "pitch": 51,
                "velocity": 64,
                "duration": 0.0818182,
                "tempo": 120.0
            },
            {
                "start_time": 76.4181818,
                "end_time": 76.5022727,
                "pitch": 51,
                "velocity": 64,
                "duration": 0.0840909,
                "tempo": 120.0
            },
            {
                "start_time": 76.5181818,
                "end_time": 76.6159091,
                "pitch": 51,
                "velocity": 64,
                "duration": 0.0977273,
                "tempo": 120.0
            },
            {
                "start_time": 76.6340909,
                "end_time": 76.7159091,
                "pitch": 51,
                "velocity": 64,
                "duration": 0.0818182,
                "tempo": 120.0
            },
            {
                "start_time": 76.7318182,
                "end_time": 76.8295455,
                "pitch": 51,
                "velocity": 64,
                "duration": 0.0977273,
                "tempo": 120.0
            },
            {
                "start_time": 76.8454545,
                "end_time": 76.9272727,
                "pitch": 51,
                "velocity": 64,
                "duration": 0.0818182,
                "tempo": 120.0
            },
            {
                "start_time": 76.9431818,
                "end_time": 77.0454545,
                "pitch": 51,
                "velocity": 64,
                "duration": 0.1022727,
                "tempo": 120.0
            },
            {
                "start_time": 77.0613636,
                "end_time": 77.1454545,
                "pitch": 51,
                "velocity": 64,
                "duration": 0.0840909,
                "tempo": 120.0
            },
            {
                "start_time": 77.1613636,
                "end_time": 77.2454545,
                "pitch": 49,
                "velocity": 64,
                "duration": 0.0840909,
                "tempo": 120.0
            },
            {
                "start_time": 77.2613636,
                "end_time": 77.3636364,
                "pitch": 49,
                "velocity": 64,
                "duration": 0.1022727,
                "tempo": 120.0
            },
            {
                "start_time": 77.3795455,
                "end_time": 77.4636364,
                "pitch": 49,
                "velocity": 64,
                "duration": 0.0840909,
                "tempo": 120.0
            },
            {
                "start_time": 77.4818182,
                "end_time": 77.5840909,
                "pitch": 49,
                "velocity": 64,
                "duration": 0.1022727,
                "tempo": 120.0
            },
            {
                "start_time": 77.6022727,
                "end_time": 77.6863636,
                "pitch": 49,
                "velocity": 64,
                "duration": 0.0840909,
                "tempo": 120.0
            },
            {
                "start_time": 77.7045455,
                "end_time": 77.8068182,
                "pitch": 49,
                "velocity": 64,
                "duration": 0.1022727,
                "tempo": 120.0
            },
            {
                "start_time": 77.8227273,
                "end_time": 77.9068182,
                "pitch": 49,
                "velocity": 64,
                "duration": 0.0840909,
                "tempo": 120.0
            },
            {
                "start_time": 77.925,
                "end_time": 78.0068182,
                "pitch": 49,
                "velocity": 64,
                "duration": 0.0818182,
                "tempo": 120.0
            },
            {
                "start_time": 78.025,
                "end_time": 78.125,
                "pitch": 49,
                "velocity": 64,
                "duration": 0.1,
                "tempo": 120.0
            },
            {
                "start_time": 78.1409091,
                "end_time": 78.225,
                "pitch": 49,
                "velocity": 64,
                "duration": 0.0840909,
                "tempo": 120.0
            },
            {
                "start_time": 78.2431818,
                "end_time": 78.3409091,
                "pitch": 49,
                "velocity": 64,
                "duration": 0.0977273,
                "tempo": 120.0
            },
            {
                "start_time": 78.3568182,
                "end_time": 78.4386364,
                "pitch": 49,
                "velocity": 64,
                "duration": 0.0818182,
                "tempo": 120.0
            },
            {
                "start_time": 78.4545455,
                "end_time": 78.5545455,
                "pitch": 49,
                "velocity": 64,
                "duration": 0.1,
                "tempo": 120.0
            },
            {
                "start_time": 78.5704545,
                "end_time": 78.6522727,
                "pitch": 49,
                "velocity": 64,
                "duration": 0.0818182,
                "tempo": 120.0
            },
            {
                "start_time": 78.6681818,
                "end_time": 78.7522727,
                "pitch": 49,
                "velocity": 64,
                "duration": 0.0840909,
                "tempo": 120.0
            },
            {
                "start_time": 78.7681818,
                "end_time": 78.8681818,
                "pitch": 49,
                "velocity": 64,
                "duration": 0.1,
                "tempo": 120.0
            },
            {
                "start_time": 78.8863636,
                "end_time": 78.9681818,
                "pitch": 47,
                "velocity": 64,
                "duration": 0.0818182,
                "tempo": 120.0
            },
            {
                "start_time": 78.9863636,
                "end_time": 79.0863636,
                "pitch": 47,
                "velocity": 64,
                "duration": 0.1,
                "tempo": 120.0
            },
            {
                "start_time": 79.1022727,
                "end_time": 79.1863636,
                "pitch": 47,
                "velocity": 64,
                "duration": 0.0840909,
                "tempo": 120.0
            },
            {
                "start_time": 79.2045455,
                "end_time": 79.3045455,
                "pitch": 47,
                "velocity": 64,
                "duration": 0.1,
                "tempo": 120.0
            },
            {
                "start_time": 79.3204545,
                "end_time": 79.4045455,
                "pitch": 47,
                "velocity": 64,
                "duration": 0.0840909,
                "tempo": 120.0
            },
            {
                "start_time": 79.4204545,
                "end_time": 79.5045455,
                "pitch": 47,
                "velocity": 64,
                "duration": 0.0840909,
                "tempo": 120.0
            },
            {
                "start_time": 79.5204545,
                "end_time": 79.6204545,
                "pitch": 47,
                "velocity": 64,
                "duration": 0.1,
                "tempo": 120.0
            },
            {
                "start_time": 79.6363636,
                "end_time": 79.7181818,
                "pitch": 47,
                "velocity": 64,
                "duration": 0.0818182,
                "tempo": 120.0
            },
            {
                "start_time": 79.7340909,
                "end_time": 79.8318182,
                "pitch": 47,
                "velocity": 64,
                "duration": 0.0977273,
                "tempo": 120.0
            },
            {
                "start_time": 79.85,
                "end_time": 79.9318182,
                "pitch": 47,
                "velocity": 64,
                "duration": 0.0818182,
                "tempo": 120.0
            },
            {
                "start_time": 79.9477273,
                "end_time": 80.0477273,
                "pitch": 47,
                "velocity": 64,
                "duration": 0.1,
                "tempo": 120.0
            },
            {
                "start_time": 80.0636364,
                "end_time": 80.1477273,
                "pitch": 47,
                "velocity": 64,
                "duration": 0.0840909,
                "tempo": 120.0
            },
            {
                "start_time": 80.1659091,
                "end_time": 80.2477273,
                "pitch": 47,
                "velocity": 64,
                "duration": 0.0818182,
                "tempo": 120.0
            },
            {
                "start_time": 80.2659091,
                "end_time": 80.3659091,
                "pitch": 47,
                "velocity": 64,
                "duration": 0.1,
                "tempo": 120.0
            },
            {
                "start_time": 80.3818182,
                "end_time": 80.4659091,
                "pitch": 47,
                "velocity": 64,
                "duration": 0.0840909,
                "tempo": 120.0
            },
            {
                "start_time": 80.4818182,
                "end_time": 80.5840909,
                "pitch": 47,
                "velocity": 64,
                "duration": 0.1022727,
                "tempo": 120.0
            },
            {
                "start_time": 80.6,
                "end_time": 80.6840909,
                "pitch": 47,
                "velocity": 64,
                "duration": 0.0840909,
                "tempo": 120.0
            },
            {
                "start_time": 80.7,
                "end_time": 80.8,
                "pitch": 47,
                "velocity": 64,
                "duration": 0.1,
                "tempo": 120.0
            },
            {
                "start_time": 80.8181818,
                "end_time": 80.9022727,
                "pitch": 47,
                "velocity": 64,
                "duration": 0.0840909,
                "tempo": 120.0
            },
            {
                "start_time": 80.9204545,
                "end_time": 81.0045455,
                "pitch": 47,
                "velocity": 64,
                "duration": 0.0840909,
                "tempo": 120.0
            },
            {
                "start_time": 81.0227273,
                "end_time": 81.125,
                "pitch": 47,
                "velocity": 64,
                "duration": 0.1022727,
                "tempo": 120.0
            },
            {
                "start_time": 81.1431818,
                "end_time": 81.2272727,
                "pitch": 47,
                "velocity": 64,
                "duration": 0.0840909,
                "tempo": 120.0
            },
            {
                "start_time": 81.2454545,
                "end_time": 81.3431818,
                "pitch": 47,
                "velocity": 64,
                "duration": 0.0977273,
                "tempo": 120.0
            },
            {
                "start_time": 81.3590909,
                "end_time": 81.4409091,
                "pitch": 47,
                "velocity": 64,
                "duration": 0.0818182,
                "tempo": 120.0
            },
            {
                "start_time": 81.4590909,
                "end_time": 81.5568182,
                "pitch": 47,
                "velocity": 64,
                "duration": 0.0977273,
                "tempo": 120.0
            },
            {
                "start_time": 81.5727273,
                "end_time": 81.6545455,
                "pitch": 44,
                "velocity": 64,
                "duration": 0.0818182,
                "tempo": 120.0
            },
            {
                "start_time": 81.6704545,
                "end_time": 81.7545455,
                "pitch": 46,
                "velocity": 64,
                "duration": 0.0840909,
                "tempo": 120.0
            },
            {
                "start_time": 81.7727273,
                "end_time": 81.8727273,
                "pitch": 47,
                "velocity": 64,
                "duration": 0.1,
                "tempo": 120.0
            },
            {
                "start_time": 81.8886364,
                "end_time": 81.9727273,
                "pitch": 49,
                "velocity": 64,
                "duration": 0.0840909,
                "tempo": 120.0
            },
            {
                "start_time": 81.9886364,
                "end_time": 82.0886364,
                "pitch": 54,
                "velocity": 64,
                "duration": 0.1,
                "tempo": 120.0
            },
            {
                "start_time": 82.1068182,
                "end_time": 82.1909091,
                "pitch": 53,
                "velocity": 64,
                "duration": 0.0840909,
                "tempo": 120.0
            },
            {
                "start_time": 82.2068182,
                "end_time": 82.3068182,
                "pitch": 49,
                "velocity": 64,
                "duration": 0.1,
                "tempo": 120.0
            },
            {
                "start_time": 82.3227273,
                "end_time": 82.4068182,
                "pitch": 51,
                "velocity": 64,
                "duration": 0.0840909,
                "tempo": 120.0
            },
            {
                "start_time": 82.425,
                "end_time": 82.5068182,
                "pitch": 51,
                "velocity": 64,
                "duration": 0.0818182,
                "tempo": 120.0
            },
            {
                "start_time": 82.525,
                "end_time": 82.6204545,
                "pitch": 51,
                "velocity": 64,
                "duration": 0.0954545,
                "tempo": 120.0
            },
            {
                "start_time": 82.6363636,
                "end_time": 82.7159091,
                "pitch": 51,
                "velocity": 64,
                "duration": 0.0795455,
                "tempo": 120.0
            },
            {
                "start_time": 82.7318182,
                "end_time": 82.8272727,
                "pitch": 51,
                "velocity": 64,
                "duration": 0.0954545,
                "tempo": 120.0
            },
            {
                "start_time": 82.8431818,
                "end_time": 82.9227273,
                "pitch": 51,
                "velocity": 64,
                "duration": 0.0795455,
                "tempo": 120.0
            },
            {
                "start_time": 82.9386364,
                "end_time": 83.0409091,
                "pitch": 51,
                "velocity": 64,
                "duration": 0.1022727,
                "tempo": 120.0
            },
            {
                "start_time": 83.0590909,
                "end_time": 83.1431818,
                "pitch": 51,
                "velocity": 64,
                "duration": 0.0840909,
                "tempo": 120.0
            },
            {
                "start_time": 83.1613636,
                "end_time": 83.2454545,
                "pitch": 51,
                "velocity": 64,
                "duration": 0.0840909,
                "tempo": 120.0
            },
            {
                "start_time": 83.2636364,
                "end_time": 83.3659091,
                "pitch": 51,
                "velocity": 64,
                "duration": 0.1022727,
                "tempo": 120.0
            },
            {
                "start_time": 83.3840909,
                "end_time": 83.4659091,
                "pitch": 51,
                "velocity": 64,
                "duration": 0.0818182,
                "tempo": 120.0
            },
            {
                "start_time": 83.4840909,
                "end_time": 83.5840909,
                "pitch": 51,
                "velocity": 64,
                "duration": 0.1,
                "tempo": 120.0
            },
            {
                "start_time": 83.6,
                "end_time": 83.6840909,
                "pitch": 51,
                "velocity": 64,
                "duration": 0.0840909,
                "tempo": 120.0
            },
            {
                "start_time": 83.7,
                "end_time": 83.8022727,
                "pitch": 51,
                "velocity": 64,
                "duration": 0.1022727,
                "tempo": 120.0
            },
            {
                "start_time": 83.8181818,
                "end_time": 83.9022727,
                "pitch": 51,
                "velocity": 64,
                "duration": 0.0840909,
                "tempo": 120.0
            },
            {
                "start_time": 83.9181818,
                "end_time": 84.0022727,
                "pitch": 51,
                "velocity": 64,
                "duration": 0.0840909,
                "tempo": 120.0
            },
            {
                "start_time": 84.0181818,
                "end_time": 84.1204545,
                "pitch": 49,
                "velocity": 64,
                "duration": 0.1022727,
                "tempo": 120.0
            },
            {
                "start_time": 84.1363636,
                "end_time": 84.2204545,
                "pitch": 49,
                "velocity": 64,
                "duration": 0.0840909,
                "tempo": 120.0
            },
            {
                "start_time": 84.2363636,
                "end_time": 84.3340909,
                "pitch": 49,
                "velocity": 64,
                "duration": 0.0977273,
                "tempo": 120.0
            },
            {
                "start_time": 84.3522727,
                "end_time": 84.4340909,
                "pitch": 49,
                "velocity": 64,
                "duration": 0.0818182,
                "tempo": 120.0
            },
            {
                "start_time": 84.45,
                "end_time": 84.5477273,
                "pitch": 49,
                "velocity": 64,
                "duration": 0.0977273,
                "tempo": 120.0
            },
            {
                "start_time": 84.5636364,
                "end_time": 84.6454545,
                "pitch": 49,
                "velocity": 64,
                "duration": 0.0818182,
                "tempo": 120.0
            },
            {
                "start_time": 84.6613636,
                "end_time": 84.7477273,
                "pitch": 49,
                "velocity": 64,
                "duration": 0.0863636,
                "tempo": 120.0
            },
            {
                "start_time": 84.7636364,
                "end_time": 84.8681818,
                "pitch": 49,
                "velocity": 64,
                "duration": 0.1045455,
                "tempo": 120.0
            },
            {
                "start_time": 84.8840909,
                "end_time": 84.9704545,
                "pitch": 49,
                "velocity": 64,
                "duration": 0.0863636,
                "tempo": 120.0
            },
            {
                "start_time": 84.9863636,
                "end_time": 85.0886364,
                "pitch": 49,
                "velocity": 64,
                "duration": 0.1022727,
                "tempo": 120.0
            },
            {
                "start_time": 85.1068182,
                "end_time": 85.1909091,
                "pitch": 49,
                "velocity": 64,
                "duration": 0.0840909,
                "tempo": 120.0
            },
            {
                "start_time": 85.2068182,
                "end_time": 85.3068182,
                "pitch": 49,
                "velocity": 64,
                "duration": 0.1,
                "tempo": 120.0
            },
            {
                "start_time": 85.325,
                "end_time": 85.4090909,
                "pitch": 49,
                "velocity": 64,
                "duration": 0.0840909,
                "tempo": 120.0
            },
            {
                "start_time": 85.425,
                "end_time": 85.5090909,
                "pitch": 49,
                "velocity": 64,
                "duration": 0.0840909,
                "tempo": 120.0
            },
            {
                "start_time": 85.525,
                "end_time": 85.6227273,
                "pitch": 49,
                "velocity": 64,
                "duration": 0.0977273,
                "tempo": 120.0
            },
            {
                "start_time": 85.6409091,
                "end_time": 85.7227273,
                "pitch": 49,
                "velocity": 64,
                "duration": 0.0818182,
                "tempo": 120.0
            },
            {
                "start_time": 85.7386364,
                "end_time": 85.8363636,
                "pitch": 47,
                "velocity": 64,
                "duration": 0.0977273,
                "tempo": 120.0
            },
            {
                "start_time": 85.8522727,
                "end_time": 85.9340909,
                "pitch": 47,
                "velocity": 64,
                "duration": 0.0818182,
                "tempo": 120.0
            },
            {
                "start_time": 85.9522727,
                "end_time": 86.0522727,
                "pitch": 47,
                "velocity": 64,
                "duration": 0.1,
                "tempo": 120.0
            },
            {
                "start_time": 86.0681818,
                "end_time": 86.1522727,
                "pitch": 47,
                "velocity": 64,
                "duration": 0.0840909,
                "tempo": 120.0
            },
            {
                "start_time": 86.1681818,
                "end_time": 86.2522727,
                "pitch": 47,
                "velocity": 64,
                "duration": 0.0840909,
                "tempo": 120.0
            },
            {
                "start_time": 86.2681818,
                "end_time": 86.3704545,
                "pitch": 47,
                "velocity": 64,
                "duration": 0.1022727,
                "tempo": 120.0
            },
            {
                "start_time": 86.3863636,
                "end_time": 86.4704545,
                "pitch": 47,
                "velocity": 64,
                "duration": 0.0840909,
                "tempo": 120.0
            },
            {
                "start_time": 86.4863636,
                "end_time": 86.5863636,
                "pitch": 47,
                "velocity": 64,
                "duration": 0.1,
                "tempo": 120.0
            },
            {
                "start_time": 86.6045455,
                "end_time": 86.6863636,
                "pitch": 47,
                "velocity": 64,
                "duration": 0.0818182,
                "tempo": 120.0
            },
            {
                "start_time": 86.7045455,
                "end_time": 86.8045455,
                "pitch": 47,
                "velocity": 64,
                "duration": 0.1,
                "tempo": 120.0
            },
            {
                "start_time": 86.8204545,
                "end_time": 86.9068182,
                "pitch": 47,
                "velocity": 64,
                "duration": 0.0863636,
                "tempo": 120.0
            },
            {
                "start_time": 86.9227273,
                "end_time": 87.0090909,
                "pitch": 47,
                "velocity": 64,
                "duration": 0.0863636,
                "tempo": 120.0
            },
            {
                "start_time": 87.0272727,
                "end_time": 87.1295455,
                "pitch": 47,
                "velocity": 64,
                "duration": 0.1022727,
                "tempo": 120.0
            },
            {
                "start_time": 87.1454545,
                "end_time": 87.2318182,
                "pitch": 47,
                "velocity": 64,
                "duration": 0.0863636,
                "tempo": 120.0
            },
            {
                "start_time": 87.2477273,
                "end_time": 87.3477273,
                "pitch": 47,
                "velocity": 64,
                "duration": 0.1,
                "tempo": 120.0
            },
            {
                "start_time": 87.3636364,
                "end_time": 87.4454545,
                "pitch": 47,
                "velocity": 64,
                "duration": 0.0818182,
                "tempo": 120.0
            },
            {
                "start_time": 87.4613636,
                "end_time": 87.5613636,
                "pitch": 47,
                "velocity": 64,
                "duration": 0.1,
                "tempo": 120.0
            },
            {
                "start_time": 87.5772727,
                "end_time": 87.6590909,
                "pitch": 47,
                "velocity": 64,
                "duration": 0.0818182,
                "tempo": 120.0
            },
            {
                "start_time": 87.675,
                "end_time": 87.7590909,
                "pitch": 47,
                "velocity": 64,
                "duration": 0.0840909,
                "tempo": 120.0
            },
            {
                "start_time": 87.775,
                "end_time": 87.875,
                "pitch": 47,
                "velocity": 64,
                "duration": 0.1,
                "tempo": 120.0
            },
            {
                "start_time": 87.8931818,
                "end_time": 87.975,
                "pitch": 47,
                "velocity": 64,
                "duration": 0.0818182,
                "tempo": 120.0
            },
            {
                "start_time": 87.9931818,
                "end_time": 88.0931818,
                "pitch": 47,
                "velocity": 64,
                "duration": 0.1,
                "tempo": 120.0
            },
            {
                "start_time": 88.1090909,
                "end_time": 88.1931818,
                "pitch": 47,
                "velocity": 64,
                "duration": 0.0840909,
                "tempo": 120.0
            },
            {
                "start_time": 88.2113636,
                "end_time": 88.3113636,
                "pitch": 47,
                "velocity": 64,
                "duration": 0.1,
                "tempo": 120.0
            },
            {
                "start_time": 88.3272727,
                "end_time": 88.4113636,
                "pitch": 47,
                "velocity": 64,
                "duration": 0.0840909,
                "tempo": 120.0
            },
            {
                "start_time": 88.4272727,
                "end_time": 88.5113636,
                "pitch": 44,
                "velocity": 64,
                "duration": 0.0840909,
                "tempo": 120.0
            },
            {
                "start_time": 88.5272727,
                "end_time": 88.6272727,
                "pitch": 46,
                "velocity": 64,
                "duration": 0.1,
                "tempo": 120.0
            },
            {
                "start_time": 88.6431818,
                "end_time": 88.725,
                "pitch": 47,
                "velocity": 64,
                "duration": 0.0818182,
                "tempo": 120.0
            },
            {
                "start_time": 88.7409091,
                "end_time": 88.8386364,
                "pitch": 49,
                "velocity": 64,
                "duration": 0.0977273,
                "tempo": 120.0
            },
            {
                "start_time": 88.8568182,
                "end_time": 88.9386364,
                "pitch": 54,
                "velocity": 64,
                "duration": 0.0818182,
                "tempo": 120.0
            },
            {
                "start_time": 88.9545455,
                "end_time": 89.0545455,
                "pitch": 53,
                "velocity": 64,
                "duration": 0.1,
                "tempo": 120.0
            },
            {
                "start_time": 89.0704545,
                "end_time": 89.1545455,
                "pitch": 49,
                "velocity": 64,
                "duration": 0.0840909,
                "tempo": 120.0
            },
            {
                "start_time": 89.1727273,
                "end_time": 89.2545455,
                "pitch": 51,
                "velocity": 64,
                "duration": 0.0818182,
                "tempo": 120.0
            },
            {
                "start_time": 89.2727273,
                "end_time": 89.3727273,
                "pitch": 51,
                "velocity": 64,
                "duration": 0.1,
                "tempo": 120.0
            },
            {
                "start_time": 89.3886364,
                "end_time": 89.4727273,
                "pitch": 51,
                "velocity": 64,
                "duration": 0.0840909,
                "tempo": 120.0
            },
            {
                "start_time": 89.4886364,
                "end_time": 89.5909091,
                "pitch": 51,
                "velocity": 64,
                "duration": 0.1022727,
                "tempo": 120.0
            },
            {
                "start_time": 89.6068182,
                "end_time": 89.6909091,
                "pitch": 51,
                "velocity": 64,
                "duration": 0.0840909,
                "tempo": 120.0
            },
            {
                "start_time": 89.7068182,
                "end_time": 89.8068182,
                "pitch": 51,
                "velocity": 64,
                "duration": 0.1,
                "tempo": 120.0
            },
            {
                "start_time": 89.825,
                "end_time": 89.9090909,
                "pitch": 51,
                "velocity": 64,
                "duration": 0.0840909,
                "tempo": 120.0
            },
            {
                "start_time": 89.9272727,
                "end_time": 90.0113636,
                "pitch": 51,
                "velocity": 64,
                "duration": 0.0840909,
                "tempo": 120.0
            },
            {
                "start_time": 90.0295455,
                "end_time": 90.1318182,
                "pitch": 51,
                "velocity": 64,
                "duration": 0.1022727,
                "tempo": 120.0
            },
            {
                "start_time": 90.15,
                "end_time": 90.2340909,
                "pitch": 51,
                "velocity": 64,
                "duration": 0.0840909,
                "tempo": 120.0
            },
            {
                "start_time": 90.2522727,
                "end_time": 90.35,
                "pitch": 51,
                "velocity": 64,
                "duration": 0.0977273,
                "tempo": 120.0
            },
            {
                "start_time": 90.3659091,
                "end_time": 90.4477273,
                "pitch": 51,
                "velocity": 64,
                "duration": 0.0818182,
                "tempo": 120.0
            },
            {
                "start_time": 90.4659091,
                "end_time": 90.5636364,
                "pitch": 51,
                "velocity": 64,
                "duration": 0.0977273,
                "tempo": 120.0
            },
            {
                "start_time": 90.5795455,
                "end_time": 90.6613636,
                "pitch": 51,
                "velocity": 64,
                "duration": 0.0818182,
                "tempo": 120.0
            },
            {
                "start_time": 90.6772727,
                "end_time": 90.7613636,
                "pitch": 51,
                "velocity": 64,
                "duration": 0.0840909,
                "tempo": 120.0
            },
            {
                "start_time": 90.7772727,
                "end_time": 90.8795455,
                "pitch": 51,
                "velocity": 64,
                "duration": 0.1022727,
                "tempo": 120.0
            },
            {
                "start_time": 90.8954545,
                "end_time": 90.9795455,
                "pitch": 49,
                "velocity": 64,
                "duration": 0.0840909,
                "tempo": 120.0
            },
            {
                "start_time": 90.9954545,
                "end_time": 91.0954545,
                "pitch": 49,
                "velocity": 64,
                "duration": 0.1,
                "tempo": 120.0
            },
            {
                "start_time": 91.1136364,
                "end_time": 91.1977273,
                "pitch": 49,
                "velocity": 64,
                "duration": 0.0840909,
                "tempo": 120.0
            },
            {
                "start_time": 91.2136364,
                "end_time": 91.3136364,
                "pitch": 49,
                "velocity": 64,
                "duration": 0.1,
                "tempo": 120.0
            },
            {
                "start_time": 91.3295455,
                "end_time": 91.4136364,
                "pitch": 49,
                "velocity": 64,
                "duration": 0.0840909,
                "tempo": 120.0
            },
            {
                "start_time": 91.4318182,
                "end_time": 91.5136364,
                "pitch": 49,
                "velocity": 64,
                "duration": 0.0818182,
                "tempo": 120.0
            },
            {
                "start_time": 91.5318182,
                "end_time": 91.6295455,
                "pitch": 49,
                "velocity": 64,
                "duration": 0.0977273,
                "tempo": 120.0
            },
            {
                "start_time": 91.6454545,
                "end_time": 91.7272727,
                "pitch": 49,
                "velocity": 64,
                "duration": 0.0818182,
                "tempo": 120.0
            },
            {
                "start_time": 91.7454545,
                "end_time": 91.8431818,
                "pitch": 49,
                "velocity": 64,
                "duration": 0.0977273,
                "tempo": 120.0
            },
            {
                "start_time": 91.8590909,
                "end_time": 91.9409091,
                "pitch": 49,
                "velocity": 64,
                "duration": 0.0818182,
                "tempo": 120.0
            },
            {
                "start_time": 91.9568182,
                "end_time": 92.0568182,
                "pitch": 49,
                "velocity": 64,
                "duration": 0.1,
                "tempo": 120.0
            },
            {
                "start_time": 92.075,
                "end_time": 92.1590909,
                "pitch": 49,
                "velocity": 64,
                "duration": 0.0840909,
                "tempo": 120.0
            },
            {
                "start_time": 92.175,
                "end_time": 92.2590909,
                "pitch": 49,
                "velocity": 64,
                "duration": 0.0840909,
                "tempo": 120.0
            },
            {
                "start_time": 92.275,
                "end_time": 92.375,
                "pitch": 49,
                "velocity": 64,
                "duration": 0.1,
                "tempo": 120.0
            },
            {
                "start_time": 92.3931818,
                "end_time": 92.475,
                "pitch": 49,
                "velocity": 64,
                "duration": 0.0818182,
                "tempo": 120.0
            },
            {
                "start_time": 92.4931818,
                "end_time": 92.5931818,
                "pitch": 49,
                "velocity": 64,
                "duration": 0.1,
                "tempo": 120.0
            },
            {
                "start_time": 92.6090909,
                "end_time": 92.6931818,
                "pitch": 47,
                "velocity": 64,
                "duration": 0.0840909,
                "tempo": 120.0
            },
            {
                "start_time": 92.7113636,
                "end_time": 92.8113636,
                "pitch": 47,
                "velocity": 64,
                "duration": 0.1,
                "tempo": 120.0
            },
            {
                "start_time": 92.8272727,
                "end_time": 92.9136364,
                "pitch": 47,
                "velocity": 64,
                "duration": 0.0863636,
                "tempo": 120.0
            },
            {
                "start_time": 92.9295455,
                "end_time": 93.0159091,
                "pitch": 47,
                "velocity": 64,
                "duration": 0.0863636,
                "tempo": 120.0
            },
            {
                "start_time": 93.0318182,
                "end_time": 93.1340909,
                "pitch": 47,
                "velocity": 64,
                "duration": 0.1022727,
                "tempo": 120.0
            },
            {
                "start_time": 93.1522727,
                "end_time": 93.2386364,
                "pitch": 47,
                "velocity": 64,
                "duration": 0.0863636,
                "tempo": 120.0
            },
            {
                "start_time": 93.2545455,
                "end_time": 93.3545455,
                "pitch": 47,
                "velocity": 64,
                "duration": 0.1,
                "tempo": 120.0
            },
            {
                "start_time": 93.3704545,
                "end_time": 93.4522727,
                "pitch": 47,
                "velocity": 64,
                "duration": 0.0818182,
                "tempo": 120.0
            },
            {
                "start_time": 93.4681818,
                "end_time": 93.5659091,
                "pitch": 47,
                "velocity": 64,
                "duration": 0.0977273,
                "tempo": 120.0
            },
            {
                "start_time": 93.5818182,
                "end_time": 93.6636364,
                "pitch": 47,
                "velocity": 64,
                "duration": 0.0818182,
                "tempo": 120.0
            },
            {
                "start_time": 93.6818182,
                "end_time": 93.7636364,
                "pitch": 47,
                "velocity": 64,
                "duration": 0.0818182,
                "tempo": 120.0
            },
            {
                "start_time": 93.7818182,
                "end_time": 93.8818182,
                "pitch": 47,
                "velocity": 64,
                "duration": 0.1,
                "tempo": 120.0
            },
            {
                "start_time": 93.8977273,
                "end_time": 93.9818182,
                "pitch": 47,
                "velocity": 64,
                "duration": 0.0840909,
                "tempo": 120.0
            },
            {
                "start_time": 94.0,
                "end_time": 94.1,
                "pitch": 47,
                "velocity": 64,
                "duration": 0.1,
                "tempo": 120.0
            },
            {
                "start_time": 94.1159091,
                "end_time": 94.2,
                "pitch": 47,
                "velocity": 64,
                "duration": 0.0840909,
                "tempo": 120.0
            },
            {
                "start_time": 94.2159091,
                "end_time": 94.3159091,
                "pitch": 47,
                "velocity": 64,
                "duration": 0.1,
                "tempo": 120.0
            },
            {
                "start_time": 94.3340909,
                "end_time": 94.4181818,
                "pitch": 47,
                "velocity": 64,
                "duration": 0.0840909,
                "tempo": 120.0
            },
            {
                "start_time": 94.4340909,
                "end_time": 94.5181818,
                "pitch": 47,
                "velocity": 64,
                "duration": 0.0840909,
                "tempo": 120.0
            },
            {
                "start_time": 94.5340909,
                "end_time": 94.6318182,
                "pitch": 47,
                "velocity": 64,
                "duration": 0.0977273,
                "tempo": 120.0
            },
            {
                "start_time": 94.65,
                "end_time": 94.7318182,
                "pitch": 47,
                "velocity": 64,
                "duration": 0.0818182,
                "tempo": 120.0
            },
            {
                "start_time": 94.7477273,
                "end_time": 94.8454545,
                "pitch": 47,
                "velocity": 64,
                "duration": 0.0977273,
                "tempo": 120.0
            },
            {
                "start_time": 94.8613636,
                "end_time": 94.9431818,
                "pitch": 47,
                "velocity": 64,
                "duration": 0.0818182,
                "tempo": 120.0
            },
            {
                "start_time": 94.9613636,
                "end_time": 95.0613636,
                "pitch": 47,
                "velocity": 64,
                "duration": 0.1,
                "tempo": 120.0
            },
            {
                "start_time": 95.0772727,
                "end_time": 95.1613636,
                "pitch": 47,
                "velocity": 64,
                "duration": 0.0840909,
                "tempo": 120.0
            },
            {
                "start_time": 95.1772727,
                "end_time": 95.2613636,
                "pitch": 47,
                "velocity": 64,
                "duration": 0.0840909,
                "tempo": 120.0
            },
            {
                "start_time": 95.2772727,
                "end_time": 95.3795455,
                "pitch": 44,
                "velocity": 64,
                "duration": 0.1022727,
                "tempo": 120.0
            },
            {
                "start_time": 95.3954545,
                "end_time": 95.4795455,
                "pitch": 46,
                "velocity": 64,
                "duration": 0.0840909,
                "tempo": 120.0
            },
            {
                "start_time": 95.4954545,
                "end_time": 95.5954545,
                "pitch": 47,
                "velocity": 64,
                "duration": 0.1,
                "tempo": 120.0
            },
            {
                "start_time": 95.6136364,
                "end_time": 95.6977273,
                "pitch": 49,
                "velocity": 64,
                "duration": 0.0840909,
                "tempo": 120.0
            },
            {
                "start_time": 95.7136364,
                "end_time": 95.8136364,
                "pitch": 54,
                "velocity": 64,
                "duration": 0.1,
                "tempo": 120.0
            },
            {
                "start_time": 95.8295455,
                "end_time": 95.9136364,
                "pitch": 53,
                "velocity": 64,
                "duration": 0.0840909,
                "tempo": 120.0
            },
            {
                "start_time": 95.9318182,
                "end_time": 96.0136364,
                "pitch": 49,
                "velocity": 64,
                "duration": 0.0818182,
                "tempo": 120.0
            },
            {
                "start_time": 96.0318182,
                "end_time": 96.1318182,
                "pitch": 51,
                "velocity": 64,
                "duration": 0.1,
                "tempo": 120.0
            },
            {
                "start_time": 96.1477273,
                "end_time": 96.2318182,
                "pitch": 51,
                "velocity": 64,
                "duration": 0.0840909,
                "tempo": 120.0
            },
            {
                "start_time": 96.2477273,
                "end_time": 96.3477273,
                "pitch": 51,
                "velocity": 64,
                "duration": 0.1,
                "tempo": 120.0
            },
            {
                "start_time": 96.3636364,
                "end_time": 96.4454545,
                "pitch": 51,
                "velocity": 64,
                "duration": 0.0818182,
                "tempo": 120.0
            },
            {
                "start_time": 96.4613636,
                "end_time": 96.5590909,
                "pitch": 51,
                "velocity": 64,
                "duration": 0.0977273,
                "tempo": 120.0
            },
            {
                "start_time": 96.5772727,
                "end_time": 96.6590909,
                "pitch": 51,
                "velocity": 64,
                "duration": 0.0818182,
                "tempo": 120.0
            },
            {
                "start_time": 96.675,
                "end_time": 96.7590909,
                "pitch": 51,
                "velocity": 64,
                "duration": 0.0840909,
                "tempo": 120.0
            },
            {
                "start_time": 96.7772727,
                "end_time": 96.8795455,
                "pitch": 51,
                "velocity": 64,
                "duration": 0.1022727,
                "tempo": 120.0
            },
            {
                "start_time": 96.8977273,
                "end_time": 96.9818182,
                "pitch": 51,
                "velocity": 64,
                "duration": 0.0840909,
                "tempo": 120.0
            },
            {
                "start_time": 97.0,
                "end_time": 97.1022727,
                "pitch": 51,
                "velocity": 64,
                "duration": 0.1022727,
                "tempo": 120.0
            },
            {
                "start_time": 97.1181818,
                "end_time": 97.2022727,
                "pitch": 51,
                "velocity": 64,
                "duration": 0.0840909,
                "tempo": 120.0
            },
            {
                "start_time": 97.2204545,
                "end_time": 97.3204545,
                "pitch": 51,
                "velocity": 64,
                "duration": 0.1,
                "tempo": 120.0
            },
            {
                "start_time": 97.3363636,
                "end_time": 97.4204545,
                "pitch": 51,
                "velocity": 64,
                "duration": 0.0840909,
                "tempo": 120.0
            },
            {
                "start_time": 97.4363636,
                "end_time": 97.5204545,
                "pitch": 51,
                "velocity": 64,
                "duration": 0.0840909,
                "tempo": 120.0
            },
            {
                "start_time": 97.5363636,
                "end_time": 97.6363636,
                "pitch": 51,
                "velocity": 64,
                "duration": 0.1,
                "tempo": 120.0
            },
            {
                "start_time": 97.6522727,
                "end_time": 97.7340909,
                "pitch": 51,
                "velocity": 64,
                "duration": 0.0818182,
                "tempo": 120.0
            },
            {
                "start_time": 97.75,
                "end_time": 97.8477273,
                "pitch": 49,
                "velocity": 64,
                "duration": 0.0977273,
                "tempo": 120.0
            },
            {
                "start_time": 97.8659091,
                "end_time": 97.9477273,
                "pitch": 49,
                "velocity": 64,
                "duration": 0.0818182,
                "tempo": 120.0
            },
            {
                "start_time": 97.9636364,
                "end_time": 98.0636364,
                "pitch": 49,
                "velocity": 64,
                "duration": 0.1,
                "tempo": 120.0
            },
            {
                "start_time": 98.0795455,
                "end_time": 98.1636364,
                "pitch": 49,
                "velocity": 64,
                "duration": 0.0840909,
                "tempo": 120.0
            },
            {
                "start_time": 98.1818182,
                "end_time": 98.2636364,
                "pitch": 49,
                "velocity": 64,
                "duration": 0.0818182,
                "tempo": 120.0
            },
            {
                "start_time": 98.2818182,
                "end_time": 98.3818182,
                "pitch": 49,
                "velocity": 64,
                "duration": 0.1,
                "tempo": 120.0
            },
            {
                "start_time": 98.3977273,
                "end_time": 98.4818182,
                "pitch": 49,
                "velocity": 64,
                "duration": 0.0840909,
                "tempo": 120.0
            },
            {
                "start_time": 98.5,
                "end_time": 98.6,
                "pitch": 49,
                "velocity": 64,
                "duration": 0.1,
                "tempo": 120.0
            },
            {
                "start_time": 98.6159091,
                "end_time": 98.7,
                "pitch": 49,
                "velocity": 64,
                "duration": 0.0840909,
                "tempo": 120.0
            },
            {
                "start_time": 98.7159091,
                "end_time": 98.8159091,
                "pitch": 49,
                "velocity": 64,
                "duration": 0.1,
                "tempo": 120.0
            },
            {
                "start_time": 98.8340909,
                "end_time": 98.9181818,
                "pitch": 49,
                "velocity": 64,
                "duration": 0.0840909,
                "tempo": 120.0
            },
            {
                "start_time": 98.9363636,
                "end_time": 99.0204545,
                "pitch": 49,
                "velocity": 64,
                "duration": 0.0840909,
                "tempo": 120.0
            },
            {
                "start_time": 99.0386364,
                "end_time": 99.1409091,
                "pitch": 49,
                "velocity": 64,
                "duration": 0.1022727,
                "tempo": 120.0
            },
            {
                "start_time": 99.1590909,
                "end_time": 99.2431818,
                "pitch": 49,
                "velocity": 64,
                "duration": 0.0840909,
                "tempo": 120.0
            },
            {
                "start_time": 99.2613636,
                "end_time": 99.3590909,
                "pitch": 49,
                "velocity": 64,
                "duration": 0.0977273,
                "tempo": 120.0
            },
            {
                "start_time": 99.375,
                "end_time": 99.4590909,
                "pitch": 49,
                "velocity": 64,
                "duration": 0.0840909,
                "tempo": 120.0
            },
            {
                "start_time": 99.475,
                "end_time": 99.5727273,
                "pitch": 47,
                "velocity": 64,
                "duration": 0.0977273,
                "tempo": 120.0
            },
            {
                "start_time": 99.5886364,
                "end_time": 99.6704545,
                "pitch": 47,
                "velocity": 64,
                "duration": 0.0818182,
                "tempo": 120.0
            },
            {
                "start_time": 99.6863636,
                "end_time": 99.7704545,
                "pitch": 47,
                "velocity": 64,
                "duration": 0.0840909,
                "tempo": 120.0
            },
            {
                "start_time": 99.7886364,
                "end_time": 99.8886364,
                "pitch": 47,
                "velocity": 64,
                "duration": 0.1,
                "tempo": 120.0
            },
            {
                "start_time": 99.9045455,
                "end_time": 99.9886364,
                "pitch": 47,
                "velocity": 64,
                "duration": 0.0840909,
                "tempo": 120.0
            },
            {
                "start_time": 100.0045455,
                "end_time": 100.1045455,
                "pitch": 47,
                "velocity": 64,
                "duration": 0.1,
                "tempo": 120.0
            },
            {
                "start_time": 100.1227273,
                "end_time": 100.2068182,
                "pitch": 47,
                "velocity": 64,
                "duration": 0.0840909,
                "tempo": 120.0
            },
            {
                "start_time": 100.2227273,
                "end_time": 100.3227273,
                "pitch": 47,
                "velocity": 64,
                "duration": 0.1,
                "tempo": 120.0
            },
            {
                "start_time": 100.3386364,
                "end_time": 100.4227273,
                "pitch": 47,
                "velocity": 64,
                "duration": 0.0840909,
                "tempo": 120.0
            },
            {
                "start_time": 100.4409091,
                "end_time": 100.5227273,
                "pitch": 47,
                "velocity": 64,
                "duration": 0.0818182,
                "tempo": 120.0
            },
            {
                "start_time": 100.5409091,
                "end_time": 100.6386364,
                "pitch": 47,
                "velocity": 64,
                "duration": 0.0977273,
                "tempo": 120.0
            },
            {
                "start_time": 100.6545455,
                "end_time": 100.7363636,
                "pitch": 47,
                "velocity": 64,
                "duration": 0.0818182,
                "tempo": 120.0
            },
            {
                "start_time": 100.7545455,
                "end_time": 100.8522727,
                "pitch": 47,
                "velocity": 64,
                "duration": 0.0977273,
                "tempo": 120.0
            },
            {
                "start_time": 100.8681818,
                "end_time": 100.95,
                "pitch": 47,
                "velocity": 64,
                "duration": 0.0818182,
                "tempo": 120.0
            },
            {
                "start_time": 100.9659091,
                "end_time": 101.0659091,
                "pitch": 47,
                "velocity": 64,
                "duration": 0.1,
                "tempo": 120.0
            },
            {
                "start_time": 101.0840909,
                "end_time": 101.1681818,
                "pitch": 47,
                "velocity": 64,
                "duration": 0.0840909,
                "tempo": 120.0
            },
            {
                "start_time": 101.1840909,
                "end_time": 101.2681818,
                "pitch": 47,
                "velocity": 64,
                "duration": 0.0840909,
                "tempo": 120.0
            },
            {
                "start_time": 101.2840909,
                "end_time": 101.3840909,
                "pitch": 47,
                "velocity": 64,
                "duration": 0.1,
                "tempo": 120.0
            },
            {
                "start_time": 101.4022727,
                "end_time": 101.4863636,
                "pitch": 47,
                "velocity": 64,
                "duration": 0.0840909,
                "tempo": 120.0
            },
            {
                "start_time": 101.5022727,
                "end_time": 101.6022727,
                "pitch": 47,
                "velocity": 64,
                "duration": 0.1,
                "tempo": 120.0
            },
            {
                "start_time": 101.6181818,
                "end_time": 101.7022727,
                "pitch": 47,
                "velocity": 64,
                "duration": 0.0840909,
                "tempo": 120.0
            },
            {
                "start_time": 101.7204545,
                "end_time": 101.8204545,
                "pitch": 47,
                "velocity": 64,
                "duration": 0.1,
                "tempo": 120.0
            },
            {
                "start_time": 101.8363636,
                "end_time": 101.9227273,
                "pitch": 47,
                "velocity": 64,
                "duration": 0.0863636,
                "tempo": 120.0
            },
            {
                "start_time": 101.9386364,
                "end_time": 102.025,
                "pitch": 47,
                "velocity": 64,
                "duration": 0.0863636,
                "tempo": 120.0
            },
            {
                "start_time": 102.0409091,
                "end_time": 102.1454545,
                "pitch": 47,
                "velocity": 64,
                "duration": 0.1045455,
                "tempo": 120.0
            },
            {
                "start_time": 102.1613636,
                "end_time": 102.2477273,
                "pitch": 44,
                "velocity": 64,
                "duration": 0.0863636,
                "tempo": 120.0
            },
            {
                "start_time": 102.2636364,
                "end_time": 102.3590909,
                "pitch": 46,
                "velocity": 64,
                "duration": 0.0954545,
                "tempo": 120.0
            },
            {
                "start_time": 102.375,
                "end_time": 102.4545455,
                "pitch": 47,
                "velocity": 64,
                "duration": 0.0795455,
                "tempo": 120.0
            },
            {
                "start_time": 102.4704545,
                "end_time": 102.5659091,
                "pitch": 49,
                "velocity": 64,
                "duration": 0.0954545,
                "tempo": 120.0
            },
            {
                "start_time": 102.5818182,
                "end_time": 102.6613636,
                "pitch": 54,
                "velocity": 64,
                "duration": 0.0795455,
                "tempo": 120.0
            },
            {
                "start_time": 102.6772727,
                "end_time": 102.7636364,
                "pitch": 53,
                "velocity": 64,
                "duration": 0.0863636,
                "tempo": 120.0
            },
            {
                "start_time": 102.7795455,
                "end_time": 102.8840909,
                "pitch": 49,
                "velocity": 64,
                "duration": 0.1045455,
                "tempo": 120.0
            },
            {
                "start_time": 102.9,
                "end_time": 102.9681818,
                "pitch": 51,
                "velocity": 64,
                "duration": 0.0681818,
                "tempo": 120.0
            }
        ]
    }
}