{
    "mood": "angry",
    "instruments": {
        "Trumpet": [
            {
                "start_time": 0.0136364,
                "end_time": 0.1931818,
                "pitch": 44,
                "velocity": 80,
                "duration": 0.1795455,
                "tempo": 120.0
            },
            {
                "start_time": 0.2113636,
                "end_time": 0.4227273,
                "pitch": 45,
                "velocity": 80,
                "duration": 0.2113636,
                "tempo": 120.0
            },
            {
                "start_time": 0.4386364,
                "end_time": 0.6272727,
                "pitch": 44,
                "velocity": 80,
                "duration": 0.1886364,
                "tempo": 120.0
            },
            {
                "start_time": 0.6590909,
                "end_time": 0.8454545,
                "pitch": 43,
                "velocity": 80,
                "duration": 0.1863636,
                "tempo": 120.0
            },
            {
                "start_time": 0.8613636,
                "end_time": 1.075,
                "pitch": 45,
                "velocity": 80,
                "duration": 0.2136364,
                "tempo": 120.0
            },
            {
                "start_time": 1.0909091,
                "end_time": 1.1886364,
                "pitch": 44,
                "velocity": 80,
                "duration": 0.0977273,
                "tempo": 120.0
            },
            {
                "start_time": 1.3204545,
                "end_time": 1.4022727,
                "pitch": 44,
                "velocity": 80,
                "duration": 0.0818182,
                "tempo": 120.0
            },
            {
                "start_time": 1.5363636,
                "end_time": 1.6363636,
                "pitch": 44,
                "velocity": 80,
                "duration": 0.1,
                "tempo": 120.0
            },
            {
                "start_time": 1.7704545,
                "end_time": 1.9886364,
                "pitch": 44,
                "velocity": 80,
                "duration": 0.2181818,
                "tempo": 120.0
            },
            {
                "start_time": 2.0045455,
                "end_time": 2.2068182,
                "pitch": 45,
                "velocity": 80,
                "duration": 0.2022727,
                "tempo": 120.0
            },
            {
                "start_time": 2.2386364,
                "end_time": 2.4409091,
                "pitch": 58,
                "velocity": 80,
                "duration": 0.2022727,
                "tempo": 120.0
            },
            {
                "start_time": 2.4568182,
                "end_time": 2.675,
                "pitch": 57,
                "velocity": 80,
                "duration": 0.2181818,
                "tempo": 120.0
            },
            {
                "start_time": 2.6909091,
                "end_time": 2.9090909,
                "pitch": 56,
                "velocity": 80,
                "duration": 0.2181818,
                "tempo": 120.0
            },
            {
                "start_time": 2.925,
                "end_time": 3.125,
                "pitch": 50,
                "velocity": 80,
                "duration": 0.2,
                "tempo": 120.0
            },
            {
                "start_time": 3.1431818,
                "end_time": 3.3545455,
                "pitch": 51,
                "velocity": 80,
                "duration": 0.2113636,
                "tempo": 120.0
            },
            {
                "start_time": 3.3727273,
                "end_time": 3.5840909,
                "pitch": 52,
                "velocity": 80,
                "duration": 0.2113636,
                "tempo": 120.0
            },
            {
                "start_time": 3.6,
                "end_time": 3.8022727,
                "pitch": 44,
                "velocity": 80,
                "duration": 0.2022727,
                "tempo": 120.0
            },
            {
                "start_time": 3.8340909,
                "end_time": 4.0363636,
                "pitch": 45,
                "velocity": 80,
                "duration": 0.2022727,
                "tempo": 120.0
            },
            {
                "start_time": 4.0522727,
                "end_time": 4.2659091,
                "pitch": 44,
                "velocity": 80,
                "duration": 0.2136364,
                "tempo": 120.0
            },
            {
                "start_time": 4.2818182,
                "end_time": 4.4931818,
                "pitch": 43,
                "velocity": 80,
                "duration": 0.2113636,
                "tempo": 120.0
            },
            {
                "start_time": 4.5113636,
                "end_time": 4.7159091,
                "pitch": 45,
                "velocity": 80,
                "duration": 0.2045455,
                "tempo": 120.0
            },
            {
                "start_time": 4.7318182,
                "end_time": 4.8363636,
                "pitch": 44,
                "velocity": 80,
                "duration": 0.1045455,
                "tempo": 120.0
            },
            {
                "start_time": 4.9727273,
                "end_time": 5.0681818,
                "pitch": 44,
                "velocity": 80,
                "duration": 0.0954545,
                "tempo": 120.0
            },
            {
                "start_time": 5.1954545,
                "end_time": 5.2909091,
                "pitch": 44,
                "velocity": 80,
                "duration": 0.0954545,
                "tempo": 120.0
            },
            {
                "start_time": 5.4204545,
                "end_time": 5.625,
                "pitch": 44,
                "velocity": 80,
                "duration": 0.2045455,
                "tempo": 120.0
            },
            {
                "start_time": 5.6431818,
                "end_time": 5.8659091,
                "pitch": 45,
                "velocity": 80,
                "duration": 0.2227273,
                "tempo": 120.0
            },
            {
                "start_time": 5.8818182,
                "end_time": 6.0954545,
                "pitch": 58,
                "velocity": 80,
                "duration": 0.2136364,
                "tempo": 120.0
            },
            {
                "start_time": 6.1113636,
                "end_time": 6.3068182,
                "pitch": 57,
                "velocity": 80,
                "duration": 0.1954545,
                "tempo": 120.0
            },
            {
                "start_time": 6.3227273,
                "end_time": 6.5409091,
                "pitch": 56,
                "velocity": 80,
                "duration": 0.2181818,
                "tempo": 120.0
            },
            {
                "start_time": 6.5568182,
                "end_time": 6.775,
                "pitch": 50,
                "velocity": 80,
                "duration": 0.2181818,
                "tempo": 120.0
            },
            {
                "start_time": 6.7909091,
                "end_time": 6.9977273,
                "pitch": 51,
                "velocity": 80,
                "duration": 0.2068182,
                "tempo": 120.0
            },
            {
                "start_time": 7.0318182,
                "end_time": 7.2363636,
                "pitch": 52,
                "velocity": 80,
                "duration": 0.2045455,
                "tempo": 120.0
            },
            {
                "start_time": 7.2545455,
                "end_time": 7.4613636,
                "pitch": 44,
                "velocity": 80,
                "duration": 0.2068182,
                "tempo": 120.0
            },
            {
                "start_time": 7.4772727,
                "end_time": 7.6863636,
                "pitch": 45,
                "velocity": 80,
                "duration": 0.2090909,
                "tempo": 120.0
            },
            {
                "start_time": 7.7022727,
                "end_time": 7.9068182,
                "pitch": 44,
                "velocity": 80,
                "duration": 0.2045455,
                "tempo": 120.0
            },
            {
                "start_time": 7.9227273,
                "end_time": 8.1454545,
                "pitch": 43,
                "velocity": 80,
                "duration": 0.2227273,
                "tempo": 120.0
            },
            {
                "start_time": 8.1636364,
                "end_time": 8.3772727,
                "pitch": 45,
                "velocity": 80,
                "duration": 0.2136364,
                "tempo": 120.0
            },
            {
                "start_time": 8.3931818,
                "end_time": 8.4909091,
                "pitch": 44,
                "velocity": 80,
                "duration": 0.0977273,
                "tempo": 120.0
            },
            {
                "start_time": 8.6204545,
                "end_time": 8.7045455,
                "pitch": 44,
                "velocity": 80,
                "duration": 0.0840909,
                "tempo": 120.0
            },
            {
                "start_time": 8.8386364,
                "end_time": 8.9386364,
                "pitch": 44,
                "velocity": 80,
                "duration": 0.1,
                "tempo": 120.0
            },
            {
                "start_time": 9.0727273,
                "end_time": 9.2863636,
                "pitch": 44,
                "velocity": 80,
                "duration": 0.2136364,
                "tempo": 120.0
            },
            {
                "start_time": 9.3022727,
                "end_time": 9.4977273,
                "pitch": 45,
                "velocity": 80,
                "duration": 0.1954545,
                "tempo": 120.0
            },
            {
                "start_time": 9.5136364,
                "end_time": 9.7272727,
                "pitch": 58,
                "velocity": 80,
                "duration": 0.2136364,
                "tempo": 120.0
            },
            {
                "start_time": 9.7431818,
                "end_time": 9.9568182,
                "pitch": 57,
                "velocity": 80,
                "duration": 0.2136364,
                "tempo": 120.0
            },
            {
                "start_time": 9.9727273,
                "end_time": 10.1818182,
                "pitch": 56,
                "velocity": 80,
                "duration": 0.2090909,
                "tempo": 120.0
            },
            {
                "start_time": 10.2181818,
                "end_time": 10.4272727,
                "pitch": 50,
                "velocity": 80,
                "duration": 0.2090909,
                "tempo": 120.0
            },
            {
                "start_time": 10.4454545,
                "end_time": 10.6590909,
                "pitch": 51,
                "velocity": 80,
                "duration": 0.2136364,
                "tempo": 120.0
            },
            {
                "start_time": 10.675,
                "end_time": 10.8863636,
                "pitch": 52,
                "velocity": 80,
                "duration": 0.2113636,
                "tempo": 120.0
            },
            {
                "start_time": 10.9045455,
                "end_time": 11.1045455,
                "pitch": 44,
                "velocity": 80,
                "duration": 0.2,
                "tempo": 120.0
            },
            {
                "start_time": 11.1204545,
                "end_time": 11.3386364,
                "pitch": 45,
                "velocity": 80,
                "duration": 0.2181818,
                "tempo": 120.0
            },
            {
                "start_time": 11.3545455,
                "end_time": 11.5681818,
                "pitch": 44,
                "velocity": 80,
                "duration": 0.2136364,
                "tempo": 120.0
            },
            {
                "start_time": 11.5840909,
                "end_time": 11.7795455,
                "pitch": 43,
                "velocity": 80,
                "duration": 0.1954545,
                "tempo": 120.0
            },
            {
                "start_time": 11.8136364,
                "end_time": 12.0136364,
                "pitch": 45,
                "velocity": 80,
                "duration": 0.2,
                "tempo": 120.0
            },
            {
                "start_time": 12.0295455,
                "end_time": 12.1318182,
                "pitch": 44,
                "velocity": 80,
                "duration": 0.1022727,
                "tempo": 120.0
            },
            {
                "start_time": 12.2636364,
                "end_time": 12.3636364,
                "pitch": 44,
                "velocity": 80,
                "duration": 0.1,
                "tempo": 120.0
            },
            {
                "start_time": 12.4931818,
                "end_time": 12.575,
                "pitch": 44,
                "velocity": 80,
                "duration": 0.0818182,
                "tempo": 120.0
            },
            {
                "start_time": 12.7068182,
                "end_time": 12.9181818,
                "pitch": 44,
                "velocity": 80,
                "duration": 0.2113636,
                "tempo": 120.0
            },
            {
                "start_time": 12.9340909,
                "end_time": 13.1477273,
                "pitch": 45,
                "velocity": 80,
                "duration": 0.2136364,
                "tempo": 120.0
            },
            {
                "start_time": 13.1636364,
                "end_time": 13.3704545,
                "pitch": 58,
                "velocity": 80,
                "duration": 0.2068182,
                "tempo": 120.0
            },
            {
                "start_time": 13.4045455,
                "end_time": 13.6090909,
                "pitch": 57,
                "velocity": 80,
                "duration": 0.2045455,
                "tempo": 120.0
            },
            {
                "start_time": 13.6272727,
                "end_time": 13.8431818,
                "pitch": 56,
                "velocity": 80,
                "duration": 0.2159091,
                "tempo": 120.0
            },
            {
                "start_time": 13.8613636,
                "end_time": 14.0772727,
                "pitch": 50,
                "velocity": 80,
                "duration": 0.2159091,
                "tempo": 120.0
            },
            {
                "start_time": 14.0954545,
                "end_time": 14.2954545,
                "pitch": 51,
                "velocity": 80,
                "duration": 0.2,
                "tempo": 120.0
            },
            {
                "start_time": 14.3113636,
                "end_time": 14.5295455,
                "pitch": 52,
                "velocity": 80,
                "duration": 0.2181818,
                "tempo": 120.0
            },
            {
                "start_time": 14.5454545,
                "end_time": 14.6454545,
                "pitch": 69,
                "velocity": 80,
                "duration": 0.1,
                "tempo": 120.0
            },
            {
                "start_time": 15.0045455,
                "end_time": 15.0886364,
                "pitch": 64,
                "velocity": 80,
                "duration": 0.0840909,
                "tempo": 120.0
            },
            {
                "start_time": 15.4568182,
                "end_time": 15.5568182,
                "pitch": 69,
                "velocity": 80,
                "duration": 0.1,
                "tempo": 120.0
            },
            {
                "start_time": 15.9068182,
                "end_time": 16.0068182,
                "pitch": 64,
                "velocity": 80,
                "duration": 0.1,
                "tempo": 120.0
            },
            {
                "start_time": 16.3659091,
                "end_time": 16.4681818,
                "pitch": 71,
                "velocity": 80,
                "duration": 0.1022727,
                "tempo": 120.0
            },
            {
                "start_time": 16.8272727,
                "end_time": 16.9227273,
                "pitch": 64,
                "velocity": 80,
                "duration": 0.0954545,
                "tempo": 120.0
            },
            {
                "start_time": 17.275,
                "end_time": 17.3613636,
                "pitch": 71,
                "velocity": 80,
                "duration": 0.0863636,
                "tempo": 120.0
            },
            {
                "start_time": 17.7477273,
                "end_time": 17.8431818,
                "pitch": 64,
                "velocity": 80,
                "duration": 0.0954545,
                "tempo": 120.0
            },
            {
                "start_time": 18.1954545,
                "end_time": 18.2795455,
                "pitch": 69,
                "velocity": 80,
                "duration": 0.0840909,
                "tempo": 120.0
            },
            {
                "start_time": 18.6477273,
                "end_time": 18.7454545,
                "pitch": 64,
                "velocity": 80,
                "duration": 0.0977273,
                "tempo": 120.0
            },
            {
                "start_time": 19.0886364,
                "end_time": 19.1886364,
                "pitch": 69,
                "velocity": 80,
                "duration": 0.1,
                "tempo": 120.0
            },
            {
                "start_time": 19.5568182,
                "end_time": 19.6568182,
                "pitch": 64,
                "velocity": 80,
                "duration": 0.1,
                "tempo": 120.0
            },
            {
                "start_time": 20.0090909,
                "end_time": 20.1090909,
                "pitch": 71,
                "velocity": 80,
                "duration": 0.1,
                "tempo": 120.0
            },
            {
                "start_time": 20.4772727,
                "end_time": 20.5613636,
                "pitch": 64,
                "velocity": 80,
                "duration": 0.0840909,
                "tempo": 120.0
            },
            {
                "start_time": 20.9295455,
                "end_time": 21.0295455,
                "pitch": 71,
                "velocity": 80,
                "duration": 0.1,
                "tempo": 120.0
            },
            {
                "start_time": 21.3977273,
                "end_time": 21.4795455,
                "pitch": 64,
                "velocity": 80,
                "duration": 0.0818182,
                "tempo": 120.0
            },
            {
                "start_time": 21.8477273,
                "end_time": 21.9454545,
                "pitch": 69,
                "velocity": 80,
                "duration": 0.0977273,
                "tempo": 120.0
            },
            {
                "start_time": 22.2795455,
                "end_time": 22.3772727,
                "pitch": 64,
                "velocity": 80,
                "duration": 0.0977273,
                "tempo": 120.0
            },
            {
                "start_time": 22.7386364,
                "end_time": 22.8431818,
                "pitch": 69,
                "velocity": 80,
                "duration": 0.1045455,
                "tempo": 120.0
            },
            {
                "start_time": 23.2113636,
                "end_time": 23.3090909,
                "pitch": 64,
                "velocity": 80,
                "duration": 0.0977273,
                "tempo": 120.0
            },
            {
                "start_time": 23.6681818,
                "end_time": 23.7522727,
                "pitch": 71,
                "velocity": 80,
                "duration": 0.0840909,
                "tempo": 120.0
            },
            {
                "start_time": 24.1204545,
                "end_time": 24.2181818,
                "pitch": 64,
                "velocity": 80,
                "duration": 0.0977273,
                "tempo": 120.0
            },
            {
                "start_time": 24.5795455,
                "end_time": 24.6636364,
                "pitch": 71,
                "velocity": 80,
                "duration": 0.0840909,
                "tempo": 120.0
            },
            {
                "start_time": 25.0409091,
                "end_time": 25.1386364,
                "pitch": 64,
                "velocity": 80,
                "duration": 0.0977273,
                "tempo": 120.0
            },
            {
                "start_time": 25.4818182,
                "end_time": 25.5772727,
                "pitch": 69,
                "velocity": 80,
                "duration": 0.0954545,
                "tempo": 120.0
            },
            {
                "start_time": 25.9295455,
                "end_time": 26.0318182,
                "pitch": 64,
                "velocity": 80,
                "duration": 0.1022727,
                "tempo": 120.0
            },
            {
                "start_time": 26.3931818,
                "end_time": 26.4931818,
                "pitch": 69,
                "velocity": 80,
                "duration": 0.1,
                "tempo": 120.0
            },
            {
                "start_time": 26.8613636,
                "end_time": 26.9454545,
                "pitch": 64,
                "velocity": 80,
                "duration": 0.0840909,
                "tempo": 120.0
            },
            {
                "start_time": 27.3136364,
                "end_time": 27.4113636,
                "pitch": 71,
                "velocity": 80,
                "duration": 0.0977273,
                "tempo": 120.0
            },
            {
                "start_time": 27.7704545,
                "end_time": 27.8568182,
                "pitch": 64,
                "velocity": 80,
                "duration": 0.0863636,
                "tempo": 120.0
            },
            {
                "start_time": 28.2318182,
                "end_time": 28.3318182,
                "pitch": 71,
                "velocity": 80,
                "duration": 0.1,
                "tempo": 120.0
            },
            {
                "start_time": 28.675,
                "end_time": 28.7727273,
                "pitch": 64,
                "velocity": 80,
                "duration": 0.0977273,
                "tempo": 120.0
            },
            {
                "start_time": 29.1318182,
                "end_time": 29.1659091,
                "pitch": 44,
                "velocity": 80,
                "duration": 0.0340909,
                "tempo": 120.0
            }
        ],
        "Acoustic Bass": [
            {
                "start_time": 0.0136364,
                "end_time": 0.4227273,
                "pitch": 37,
                "velocity": 64,
                "duration": 0.4090909,
                "tempo": 120.0
            },
            {
                "start_time": 0.4386364,
                "end_time": 0.8454545,
                "pitch": 43,
                "velocity": 64,
                "duration": 0.4068182,
                "tempo": 120.0
            },
            {
                "start_time": 0.8613636,
                "end_time": 1.3022727,
                "pitch": 42,
                "velocity": 64,
                "duration": 0.4409091,
                "tempo": 120.0
            },
            {
                "start_time": 1.3204545,
                "end_time": 1.7545455,
                "pitch": 37,
                "velocity": 64,
                "duration": 0.4340909,
                "tempo": 120.0
            },
            {
                "start_time": 1.7704545,
                "end_time": 2.2068182,
                "pitch": 38,
                "velocity": 64,
                "duration": 0.4363636,
                "tempo": 120.0
            },
            {
                "start_time": 2.2386364,
                "end_time": 2.675,
                "pitch": 39,
                "velocity": 64,
                "duration": 0.4363636,
                "tempo": 120.0
            },
            {
                "start_time": 2.6909091,
                "end_time": 3.125,
                "pitch": 40,
                "velocity": 64,
                "duration": 0.4340909,
                "tempo": 120.0
            },
            {
                "start_time": 3.1431818,
                "end_time": 3.5840909,
                "pitch": 41,
                "velocity": 64,
                "duration": 0.4409091,
                "tempo": 120.0
            },
            {
                "start_time": 3.6,
                "end_time": 4.0363636,
                "pitch": 37,
                "velocity": 64,
                "duration": 0.4363636,
                "tempo": 120.0
            },
            {
                "start_time": 4.0522727,
                "end_time": 4.4931818,
                "pitch": 43,
                "velocity": 64,
                "duration": 0.4409091,
                "tempo": 120.0
            },
            {
                "start_time": 4.5113636,
                "end_time": 4.9545455,
                "pitch": 42,
                "velocity": 64,
                "duration": 0.4431818,
                "tempo": 120.0
            },
            {
                "start_time": 4.9727273,
                "end_time": 5.3886364,
                "pitch": 37,
                "velocity": 64,
                "duration": 0.4159091,
                "tempo": 120.0
            },
            {
                "start_time": 5.4204545,
                "end_time": 5.8659091,
                "pitch": 38,
                "velocity": 64,
                "duration": 0.4454545,
                "tempo": 120.0
            },
            {
                "start_time": 5.8818182,
                "end_time": 6.3068182,
                "pitch": 39,
                "velocity": 64,
                "duration": 0.425,
                "tempo": 120.0
            },
            {
                "start_time": 6.3227273,
                "end_time": 6.775,
                "pitch": 40,
                "velocity": 64,
                "duration": 0.4522727,
                "tempo": 120.0
            },
            {
                "start_time": 6.7909091,
                "end_time": 7.2363636,
                "pitch": 41,
                "velocity": 64,
                "duration": 0.4454545,
                "tempo": 120.0
            },
            {
                "start_time": 7.2545455,
                "end_time": 7.6863636,
                "pitch": 37,
                "velocity": 64,
                "duration": 0.4318182,
                "tempo": 120.0
            },
            {
                "start_time": 7.7022727,
                "end_time": 8.1454545,
                "pitch": 43,
                "velocity": 64,
                "duration": 0.4431818,
                "tempo": 120.0
            },
            {
                "start_time": 8.1636364,
                "end_time": 8.5886364,
                "pitch": 42,
                "velocity": 64,
                "duration": 0.425,
                "tempo": 120.0
            },
            {
                "start_time": 8.6204545,
                "end_time": 9.0568182,
                "pitch": 37,
                "velocity": 64,
                "duration": 0.4363636,
                "tempo": 120.0
            },
            {
                "start_time": 9.0727273,
                "end_time": 9.4977273,
                "pitch": 38,
                "velocity": 64,
                "duration": 0.425,
                "tempo": 120.0
            },
            {
                "start_time": 9.5136364,
                "end_time": 9.9568182,
                "pitch": 39,
                "velocity": 64,
                "duration": 0.4431818,
                "tempo": 120.0
            },
            {
                "start_time": 9.9727273,
                "end_time": 10.4272727,
                "pitch": 40,
                "velocity": 64,
                "duration": 0.4545455,
                "tempo": 120.0
            },
            {
                "start_time": 10.4454545,
                "end_time": 10.8863636,
                "pitch": 41,
                "velocity": 64,
                "duration": 0.4409091,
                "tempo": 120.0
            },
            {
                "start_time": 10.9045455,
                "end_time": 11.3386364,
                "pitch": 37,
                "velocity": 64,
                "duration": 0.4340909,
                "tempo": 120.0
            },
            {
                "start_time": 11.3545455,
                "end_time": 11.7795455,
                "pitch": 43,
                "velocity": 64,
                "duration": 0.425,
                "tempo": 120.0
            },
            {
                "start_time": 11.8136364,
                "end_time": 12.2477273,
                "pitch": 42,
                "velocity": 64,
                "duration": 0.4340909,
                "tempo": 120.0
            },
            {
                "start_time": 12.2636364,
                "end_time": 12.6909091,
                "pitch": 37,
                "velocity": 64,
                "duration": 0.4272727,
                "tempo": 120.0
            },
            {
                "start_time": 12.7068182,
                "end_time": 13.1477273,
                "pitch": 38,
                "velocity": 64,
                "duration": 0.4409091,
                "tempo": 120.0
            },
            {
                "start_time": 13.1636364,
                "end_time": 13.6090909,
                "pitch": 39,
                "velocity": 64,
                "duration": 0.4454545,
                "tempo": 120.0
            },
            {
                "start_time": 13.6272727,
                "end_time": 14.0772727,
                "pitch": 40,
                "velocity": 64,
                "duration": 0.45,
                "tempo": 120.0
            },
            {
                "start_time": 14.0954545,
                "end_time": 14.5295455,
                "pitch": 41,
                "velocity": 64,
                "duration": 0.4340909,
                "tempo": 120.0
            },
            {
                "start_time": 14.5454545,
                "end_time": 14.9727273,
                "pitch": 42,
                "velocity": 64,
                "duration": 0.4272727,
                "tempo": 120.0
            },
            {
                "start_time": 15.0045455,
                "end_time": 15.4386364,
                "pitch": 43,
                "velocity": 64,
                "duration": 0.4340909,
                "tempo": 120.0
            },
            {
                "start_time": 15.4568182,
                "end_time": 15.8909091,
                "pitch": 46,
                "velocity": 64,
                "duration": 0.4340909,
                "tempo": 120.0
            },
            {
                "start_time": 15.9068182,
                "end_time": 16.35,
                "pitch": 45,
                "velocity": 64,
                "duration": 0.4431818,
                "tempo": 120.0
            },
            {
                "start_time": 16.3659091,
                "end_time": 16.8113636,
                "pitch": 44,
                "velocity": 64,
                "duration": 0.4454545,
                "tempo": 120.0
            },
            {
                "start_time": 16.8272727,
                "end_time": 17.2590909,
                "pitch": 43,
                "velocity": 64,
                "duration": 0.4318182,
                "tempo": 120.0
            },
            {
                "start_time": 17.275,
                "end_time": 17.7295455,
                "pitch": 42,
                "velocity": 64,
                "duration": 0.4545455,
                "tempo": 120.0
            },
            {
                "start_time": 17.7477273,
                "end_time": 18.1636364,
                "pitch": 41,
                "velocity": 64,
                "duration": 0.4159091,
                "tempo": 120.0
            },
            {
                "start_time": 18.1954545,
                "end_time": 18.6295455,
                "pitch": 42,
                "velocity": 64,
                "duration": 0.4340909,
                "tempo": 120.0
            },
            {
                "start_time": 18.6477273,
                "end_time": 19.0727273,
                "pitch": 43,
                "velocity": 64,
                "duration": 0.425,
                "tempo": 120.0
            },
            {
                "start_time": 19.0886364,
                "end_time": 19.5409091,
                "pitch": 46,
                "velocity": 64,
                "duration": 0.4522727,
                "tempo": 120.0
            },
            {
                "start_time": 19.5568182,
                "end_time": 19.9909091,
                "pitch": 45,
                "velocity": 64,
                "duration": 0.4340909,
                "tempo": 120.0
            },
            {
                "start_time": 20.0090909,
                "end_time": 20.4590909,
                "pitch": 44,
                "velocity": 64,
                "duration": 0.45,
                "tempo": 120.0
            },
            {
                "start_time": 20.4772727,
                "end_time": 20.9113636,
                "pitch": 43,
                "velocity": 64,
                "duration": 0.4340909,
                "tempo": 120.0
            },
            {
                "start_time": 20.9295455,
                "end_time": 21.3636364,
                "pitch": 42,
                "velocity": 64,
                "duration": 0.4340909,
                "tempo": 120.0
            },
            {
                "start_time": 21.3977273,
                "end_time": 21.8318182,
                "pitch": 41,
                "velocity": 64,
                "duration": 0.4340909,
                "tempo": 120.0
            },
            {
                "start_time": 21.8477273,
                "end_time": 22.2636364,
                "pitch": 42,
                "velocity": 64,
                "duration": 0.4159091,
                "tempo": 120.0
            },
            {
                "start_time": 22.2795455,
                "end_time": 22.7227273,
                "pitch": 43,
                "velocity": 64,
                "duration": 0.4431818,
                "tempo": 120.0
            },
            {
                "start_time": 22.7386364,
                "end_time": 23.1931818,
                "pitch": 46,
                "velocity": 64,
                "duration": 0.4545455,
                "tempo": 120.0
            },
            {
                "start_time": 23.2113636,
                "end_time": 23.6522727,
                "pitch": 45,
                "velocity": 64,
                "duration": 0.4409091,
                "tempo": 120.0
            },
            {
                "start_time": 23.6681818,
                "end_time": 24.1045455,
                "pitch": 44,
                "velocity": 64,
                "duration": 0.4363636,
                "tempo": 120.0
            },
            {
                "start_time": 24.1204545,
                "end_time": 24.5454545,
                "pitch": 43,
                "velocity": 64,
                "duration": 0.425,
                "tempo": 120.0
            },
            {
                "start_time": 24.5795455,
                "end_time": 25.0227273,
                "pitch": 42,
                "velocity": 64,
                "duration": 0.4431818,
                "tempo": 120.0
            },
            {
                "start_time": 25.0409091,
                "end_time": 25.4659091,
                "pitch": 41,
                "velocity": 64,
                "duration": 0.425,
                "tempo": 120.0
            },
            {
                "start_time": 25.4818182,
                "end_time": 25.9136364,
                "pitch": 42,
                "velocity": 64,
                "duration": 0.4318182,
                "tempo": 120.0
            },
            {
                "start_time": 25.9295455,
                "end_time": 26.375,
                "pitch": 43,
                "velocity": 64,
                "duration": 0.4454545,
                "tempo": 120.0
            },
            {
                "start_time": 26.3931818,
                "end_time": 26.8454545,
                "pitch": 46,
                "velocity": 64,
                "duration": 0.4522727,
                "tempo": 120.0
            },
            {
                "start_time": 26.8613636,
                "end_time": 27.2954545,
                "pitch": 45,
                "velocity": 64,
                "duration": 0.4340909,
                "tempo": 120.0
            },
            {
                "start_time": 27.3136364,
                "end_time": 27.7386364,
                "pitch": 44,
                "velocity": 64,
                "duration": 0.425,
                "tempo": 120.0
            },
            {
                "start_time": 27.7704545,
                "end_time": 28.2159091,
                "pitch": 43,
                "velocity": 64,
                "duration": 0.4454545,
                "tempo": 120.0
            },
            {
                "start_time": 28.2318182,
                "end_time": 28.6590909,
                "pitch": 42,
                "velocity": 64,
                "duration": 0.4272727,
                "tempo": 120.0
            },
            {
                "start_time": 28.675,
                "end_time": 29.1159091,
                "pitch": 41,
                "velocity": 64,
                "duration": 0.4409091,
                "tempo": 120.0
            },
            {
                "start_time": 29.1318182,
                "end_time": 29.1659091,
                "pitch": 37,
                "velocity": 64,
                "duration": 0.0340909,
                "tempo": 120.0
            }
        ]
    }
}