{
    "mood": "angry",
    "instruments": {
        "Trumpet": [
            {
                "start_time": 0.9886364,
                "end_time": 1.1772727,
                "pitch": 60,
                "velocity": 51,
                "duration": 0.1886364,
                "tempo": 120.0
            },
            {
                "start_time": 1.1954545,
                "end_time": 1.375,
                "pitch": 59,
                "velocity": 51,
                "duration": 0.1795455,
                "tempo": 120.0
            },
            {
                "start_time": 1.5863636,
                "end_time": 1.775,
                "pitch": 60,
                "velocity": 51,
                "duration": 0.1886364,
                "tempo": 120.0
            },
            {
                "start_time": 1.7931818,
                "end_time": 1.9795455,
                "pitch": 59,
                "velocity": 51,
                "duration": 0.1863636,
                "tempo": 120.0
            },
            {
                "start_time": 2.1931818,
                "end_time": 2.3727273,
                "pitch": 60,
                "velocity": 51,
                "duration": 0.1795455,
                "tempo": 120.0
            },
            {
                "start_time": 2.5954545,
                "end_time": 2.7840909,
                "pitch": 60,
                "velocity": 51,
                "duration": 0.1886364,
                "tempo": 120.0
            },
            {
                "start_time": 2.8,
                "end_time": 2.9795455,
                "pitch": 59,
                "velocity": 51,
                "duration": 0.1795455,
                "tempo": 120.0
            },
            {
                "start_time": 2.9954545,
                "end_time": 3.5772727,
                "pitch": 62,
                "velocity": 51,
                "duration": 0.5818182,
                "tempo": 120.0
            },
            {
                "start_time": 3.5954545,
                "end_time": 3.9795455,
                "pitch": 62,
                "velocity": 51,
                "duration": 0.3840909,
                "tempo": 120.0
            },
            {
                "start_time": 4.2,
                "end_time": 4.3886364,
                "pitch": 60,
                "velocity": 51,
                "duration": 0.1886364,
                "tempo": 120.0
            },
            {
                "start_time": 4.4068182,
                "end_time": 4.5863636,
                "pitch": 59,
                "velocity": 51,
                "duration": 0.1795455,
                "tempo": 120.0
            },
            {
                "start_time": 4.7977273,
                "end_time": 4.9863636,
                "pitch": 60,
                "velocity": 51,
                "duration": 0.1886364,
                "tempo": 120.0
            },
            {
                "start_time": 5.0022727,
                "end_time": 5.1909091,
                "pitch": 59,
                "velocity": 51,
                "duration": 0.1886364,
                "tempo": 120.0
            },
            {
                "start_time": 5.4045455,
                "end_time": 5.5840909,
                "pitch": 60,
                "velocity": 51,
                "duration": 0.1795455,
                "tempo": 120.0
            },
            {
                "start_time": 5.8045455,
                "end_time": 5.9931818,
                "pitch": 60,
                "velocity": 51,
                "duration": 0.1886364,
                "tempo": 120.0
            },
            {
                "start_time": 6.0113636,
                "end_time": 6.1909091,
                "pitch": 59,
                "velocity": 51,
                "duration": 0.1795455,
                "tempo": 120.0
            },
            {
                "start_time": 6.2068182,
                "end_time": 6.7886364,
                "pitch": 62,
                "velocity": 51,
                "duration": 0.5818182,
                "tempo": 120.0
            },
            {
                "start_time": 6.8068182,
                "end_time": 7.1886364,
                "pitch": 64,
                "velocity": 51,
                "duration": 0.3818182,
                "tempo": 120.0
            },
            {
                "start_time": 7.4113636,
                "end_time": 7.6,
                "pitch": 60,
                "velocity": 51,
                "duration": 0.1886364,
                "tempo": 120.0
            },
            {
                "start_time": 7.6159091,
                "end_time": 7.7954545,
                "pitch": 59,
                "velocity": 51,
                "duration": 0.1795455,
                "tempo": 120.0
            },
            {
                "start_time": 8.0090909,
                "end_time": 8.1977273,
                "pitch": 60,
                "velocity": 51,
                "duration": 0.1886364,
                "tempo": 120.0
            },
            {
                "start_time": 8.2136364,
                "end_time": 8.4022727,
                "pitch": 59,
                "velocity": 51,
                "duration": 0.1886364,
                "tempo": 120.0
            },
            {
                "start_time": 8.6159091,
                "end_time": 8.7954545,
                "pitch": 60,
                "velocity": 51,
                "duration": 0.1795455,
                "tempo": 120.0
            },
            {
                "start_time": 9.0159091,
                "end_time": 9.2045455,
                "pitch": 60,
                "velocity": 51,
                "duration": 0.1886364,
                "tempo": 120.0
            },
            {
                "start_time": 9.2227273,
                "end_time": 9.4022727,
                "pitch": 59,
                "velocity": 51,
                "duration": 0.1795455,
                "tempo": 120.0
            },
            {
                "start_time": 9.4181818,
                "end_time": 10.0,
                "pitch": 62,
                "velocity": 51,
                "duration": 0.5818182,
                "tempo": 120.0
            },
            {
                "start_time": 10.0159091,
                "end_time": 10.4022727,
                "pitch": 62,
                "velocity": 51,
                "duration": 0.3863636,
                "tempo": 120.0
            },
            {
                "start_time": 10.625,
                "end_time": 10.8136364,
                "pitch": 60,
                "velocity": 51,
                "duration": 0.1886364,
                "tempo": 120.0
            },
            {
                "start_time": 10.8295455,
                "end_time": 11.0090909,
                "pitch": 59,
                "velocity": 51,
                "duration": 0.1795455,
                "tempo": 120.0
            },
            {
                "start_time": 11.2227273,
                "end_time": 11.4113636,
                "pitch": 60,
                "velocity": 51,
                "duration": 0.1886364,
                "tempo": 120.0
            },
            {
                "start_time": 11.4272727,
                "end_time": 11.6159091,
                "pitch": 59,
                "velocity": 51,
                "duration": 0.1886364,
                "tempo": 120.0
            },
            {
                "start_time": 11.8295455,
                "end_time": 12.0090909,
                "pitch": 64,
                "velocity": 51,
                "duration": 0.1795455,
                "tempo": 120.0
            },
            {
                "start_time": 12.2295455,
                "end_time": 12.4181818,
                "pitch": 65,
                "velocity": 51,
                "duration": 0.1886364,
                "tempo": 120.0
            },
            {
                "start_time": 12.6363636,
                "end_time": 12.8227273,
                "pitch": 48,
                "velocity": 51,
                "duration": 0.1863636,
                "tempo": 120.0
            },
            {
                "start_time": 12.8386364,
                "end_time": 13.0181818,
                "pitch": 50,
                "velocity": 51,
                "duration": 0.1795455,
                "tempo": 120.0
            },
            {
                "start_time": 13.0340909,
                "end_time": 13.2136364,
                "pitch": 52,
                "velocity": 51,
                "duration": 0.1795455,
                "tempo": 120.0
            },
            {
                "start_time": 13.2295455,
                "end_time": 13.4136364,
                "pitch": 55,
                "velocity": 51,
                "duration": 0.1840909,
                "tempo": 120.0
            },
            {
                "start_time": 13.4295455,
                "end_time": 13.6136364,
                "pitch": 57,
                "velocity": 51,
                "duration": 0.1840909,
                "tempo": 120.0
            },
            {
                "start_time": 13.8363636,
                "end_time": 14.025,
                "pitch": 60,
                "velocity": 51,
                "duration": 0.1886364,
                "tempo": 120.0
            },
            {
                "start_time": 14.0409091,
                "end_time": 14.2204545,
                "pitch": 59,
                "velocity": 51,
                "duration": 0.1795455,
                "tempo": 120.0
            },
            {
                "start_time": 14.4340909,
                "end_time": 14.6204545,
                "pitch": 60,
                "velocity": 51,
                "duration": 0.1863636,
                "tempo": 120.0
            },
            {
                "start_time": 14.6386364,
                "end_time": 14.8272727,
                "pitch": 59,
                "velocity": 51,
                "duration": 0.1886364,
                "tempo": 120.0
            },
            {
                "start_time": 15.0409091,
                "end_time": 15.2204545,
                "pitch": 60,
                "velocity": 51,
                "duration": 0.1795455,
                "tempo": 120.0
            },
            {
                "start_time": 15.4409091,
                "end_time": 15.6295455,
                "pitch": 60,
                "velocity": 51,
                "duration": 0.1886364,
                "tempo": 120.0
            },
            {
                "start_time": 15.6454545,
                "end_time": 15.8272727,
                "pitch": 59,
                "velocity": 51,
                "duration": 0.1818182,
                "tempo": 120.0
            },
            {
                "start_time": 15.8431818,
                "end_time": 16.425,
                "pitch": 62,
                "velocity": 51,
                "duration": 0.5818182,
                "tempo": 120.0
            },
            {
                "start_time": 16.4409091,
                "end_time": 16.825,
                "pitch": 62,
                "velocity": 51,
                "duration": 0.3840909,
                "tempo": 120.0
            },
            {
                "start_time": 17.0454545,
                "end_time": 17.2340909,
                "pitch": 60,
                "velocity": 51,
                "duration": 0.1886364,
                "tempo": 120.0
            },
            {
                "start_time": 17.2522727,
                "end_time": 17.4318182,
                "pitch": 59,
                "velocity": 51,
                "duration": 0.1795455,
                "tempo": 120.0
            },
            {
                "start_time": 17.6431818,
                "end_time": 17.8318182,
                "pitch": 60,
                "velocity": 51,
                "duration": 0.1886364,
                "tempo": 120.0
            },
            {
                "start_time": 17.85,
                "end_time": 18.0386364,
                "pitch": 59,
                "velocity": 51,
                "duration": 0.1886364,
                "tempo": 120.0
            },
            {
                "start_time": 18.25,
                "end_time": 18.4295455,
                "pitch": 60,
                "velocity": 51,
                "duration": 0.1795455,
                "tempo": 120.0
            },
            {
                "start_time": 18.6522727,
                "end_time": 18.8409091,
                "pitch": 60,
                "velocity": 51,
                "duration": 0.1886364,
                "tempo": 120.0
            },
            {
                "start_time": 18.8568182,
                "end_time": 19.0363636,
                "pitch": 59,
                "velocity": 51,
                "duration": 0.1795455,
                "tempo": 120.0
            },
            {
                "start_time": 19.0545455,
                "end_time": 19.6318182,
                "pitch": 62,
                "velocity": 51,
                "duration": 0.5772727,
                "tempo": 120.0
            },
            {
                "start_time": 19.65,
                "end_time": 20.0363636,
                "pitch": 64,
                "velocity": 51,
                "duration": 0.3863636,
                "tempo": 120.0
            },
            {
                "start_time": 20.2568182,
                "end_time": 20.4454545,
                "pitch": 60,
                "velocity": 51,
                "duration": 0.1886364,
                "tempo": 120.0
            },
            {
                "start_time": 20.4636364,
                "end_time": 20.6431818,
                "pitch": 59,
                "velocity": 51,
                "duration": 0.1795455,
                "tempo": 120.0
            },
            {
                "start_time": 20.8545455,
                "end_time": 21.0431818,
                "pitch": 60,
                "velocity": 51,
                "duration": 0.1886364,
                "tempo": 120.0
            },
            {
                "start_time": 21.0590909,
                "end_time": 21.2477273,
                "pitch": 59,
                "velocity": 51,
                "duration": 0.1886364,
                "tempo": 120.0
            },
            {
                "start_time": 21.4613636,
                "end_time": 21.6409091,
                "pitch": 60,
                "velocity": 51,
                "duration": 0.1795455,
                "tempo": 120.0
            },
            {
                "start_time": 21.8636364,
                "end_time": 22.05,
                "pitch": 60,
                "velocity": 51,
                "duration": 0.1863636,
                "tempo": 120.0
            },
            {
                "start_time": 22.0681818,
                "end_time": 22.2477273,
                "pitch": 59,
                "velocity": 51,
                "duration": 0.1795455,
                "tempo": 120.0
            },
            {
                "start_time": 22.2636364,
                "end_time": 22.8431818,
                "pitch": 62,
                "velocity": 51,
                "duration": 0.5795455,
                "tempo": 120.0
            },
            {
                "start_time": 22.8613636,
                "end_time": 23.2454545,
                "pitch": 62,
                "velocity": 51,
                "duration": 0.3840909,
                "tempo": 120.0
            },
            {
                "start_time": 23.4681818,
                "end_time": 23.6568182,
                "pitch": 60,
                "velocity": 51,
                "duration": 0.1886364,
                "tempo": 120.0
            },
            {
                "start_time": 23.6727273,
                "end_time": 23.8545455,
                "pitch": 59,
                "velocity": 51,
                "duration": 0.1818182,
                "tempo": 120.0
            },
            {
                "start_time": 24.0659091,
                "end_time": 24.2545455,
                "pitch": 60,
                "velocity": 51,
                "duration": 0.1886364,
                "tempo": 120.0
            },
            {
                "start_time": 24.2704545,
                "end_time": 24.4590909,
                "pitch": 59,
                "velocity": 51,
                "duration": 0.1886364,
                "tempo": 120.0
            },
            {
                "start_time": 24.6727273,
                "end_time": 24.8522727,
                "pitch": 64,
                "velocity": 51,
                "duration": 0.1795455,
                "tempo": 120.0
            },
            {
                "start_time": 25.0727273,
                "end_time": 25.2613636,
                "pitch": 65,
                "velocity": 51,
                "duration": 0.1886364,
                "tempo": 120.0
            },
            {
                "start_time": 25.4795455,
                "end_time": 25.6659091,
                "pitch": 48,
                "velocity": 51,
                "duration": 0.1863636,
                "tempo": 120.0
            },
            {
                "start_time": 25.6818182,
                "end_time": 25.8659091,
                "pitch": 50,
                "velocity": 51,
                "duration": 0.1840909,
                "tempo": 120.0
            },
            {
                "start_time": 25.8818182,
                "end_time": 26.0659091,
                "pitch": 52,
                "velocity": 51,
                "duration": 0.1840909,
                "tempo": 120.0
            },
            {
                "start_time": 26.0818182,
                "end_time": 26.2613636,
                "pitch": 55,
                "velocity": 51,
                "duration": 0.1795455,
                "tempo": 120.0
            },
            {
                "start_time": 26.2772727,
                "end_time": 26.4568182,
                "pitch": 57,
                "velocity": 51,
                "duration": 0.1795455,
                "tempo": 120.0
            },
            {
                "start_time": 26.4909091,
                "end_time": 28.0636364,
                "pitch": 57,
                "velocity": 51,
                "duration": 1.5727273,
                "tempo": 120.0
            },
            {
                "start_time": 28.0795455,
                "end_time": 29.6681818,
                "pitch": 59,
                "velocity": 51,
                "duration": 1.5886364,
                "tempo": 120.0
            },
            {
                "start_time": 29.6840909,
                "end_time": 31.2727273,
                "pitch": 60,
                "velocity": 51,
                "duration": 1.5886364,
                "tempo": 120.0
            },
            {
                "start_time": 31.2909091,
                "end_time": 32.8795455,
                "pitch": 62,
                "velocity": 51,
                "duration": 1.5886364,
                "tempo": 120.0
            },
            {
                "start_time": 32.8954545,
                "end_time": 34.4840909,
                "pitch": 64,
                "velocity": 51,
                "duration": 1.5886364,
                "tempo": 120.0
            },
            {
                "start_time": 34.5,
                "end_time": 36.0886364,
                "pitch": 65,
                "velocity": 51,
                "duration": 1.5886364,
                "tempo": 120.0
            },
            {
                "start_time": 36.1068182,
                "end_time": 37.6954545,
                "pitch": 67,
                "velocity": 51,
                "duration": 1.5886364,
                "tempo": 120.0
            },
            {
                "start_time": 37.9159091,
                "end_time": 38.1045455,
                "pitch": 60,
                "velocity": 51,
                "duration": 0.1886364,
                "tempo": 120.0
            },
            {
                "start_time": 38.1227273,
                "end_time": 38.3022727,
                "pitch": 59,
                "velocity": 51,
                "duration": 0.1795455,
                "tempo": 120.0
            },
            {
                "start_time": 38.3181818,
                "end_time": 38.4977273,
                "pitch": 60,
                "velocity": 51,
                "duration": 0.1795455,
                "tempo": 120.0
            },
            {
                "start_time": 38.5136364,
                "end_time": 38.7022727,
                "pitch": 61,
                "velocity": 51,
                "duration": 0.1886364,
                "tempo": 120.0
            },
            {
                "start_time": 38.7181818,
                "end_time": 38.9068182,
                "pitch": 62,
                "velocity": 51,
                "duration": 0.1886364,
                "tempo": 120.0
            },
            {
                "start_time": 38.925,
                "end_time": 39.1045455,
                "pitch": 63,
                "velocity": 51,
                "duration": 0.1795455,
                "tempo": 120.0
            },
            {
                "start_time": 39.1204545,
                "end_time": 39.3,
                "pitch": 64,
                "velocity": 51,
                "duration": 0.1795455,
                "tempo": 120.0
            },
            {
                "start_time": 39.5204545,
                "end_time": 39.7090909,
                "pitch": 60,
                "velocity": 51,
                "duration": 0.1886364,
                "tempo": 120.0
            },
            {
                "start_time": 39.7272727,
                "end_time": 39.9068182,
                "pitch": 59,
                "velocity": 51,
                "duration": 0.1795455,
                "tempo": 120.0
            },
            {
                "start_time": 40.1181818,
                "end_time": 40.3068182,
                "pitch": 60,
                "velocity": 51,
                "duration": 0.1886364,
                "tempo": 120.0
            },
            {
                "start_time": 40.325,
                "end_time": 40.5136364,
                "pitch": 59,
                "velocity": 51,
                "duration": 0.1886364,
                "tempo": 120.0
            },
            {
                "start_time": 40.725,
                "end_time": 40.9045455,
                "pitch": 60,
                "velocity": 51,
                "duration": 0.1795455,
                "tempo": 120.0
            },
            {
                "start_time": 41.1272727,
                "end_time": 41.3159091,
                "pitch": 60,
                "velocity": 51,
                "duration": 0.1886364,
                "tempo": 120.0
            },
            {
                "start_time": 41.3318182,
                "end_time": 41.5113636,
                "pitch": 59,
                "velocity": 51,
                "duration": 0.1795455,
                "tempo": 120.0
            },
            {
                "start_time": 41.5295455,
                "end_time": 42.1068182,
                "pitch": 62,
                "velocity": 51,
                "duration": 0.5772727,
                "tempo": 120.0
            },
            {
                "start_time": 42.125,
                "end_time": 42.5068182,
                "pitch": 62,
                "velocity": 51,
                "duration": 0.3818182,
                "tempo": 120.0
            },
            {
                "start_time": 42.7295455,
                "end_time": 42.9181818,
                "pitch": 60,
                "velocity": 51,
                "duration": 0.1886364,
                "tempo": 120.0
            },
            {
                "start_time": 42.9340909,
                "end_time": 43.1159091,
                "pitch": 59,
                "velocity": 51,
                "duration": 0.1818182,
                "tempo": 120.0
            },
            {
                "start_time": 43.3272727,
                "end_time": 43.5159091,
                "pitch": 60,
                "velocity": 51,
                "duration": 0.1886364,
                "tempo": 120.0
            },
            {
                "start_time": 43.5318182,
                "end_time": 43.7204545,
                "pitch": 59,
                "velocity": 51,
                "duration": 0.1886364,
                "tempo": 120.0
            },
            {
                "start_time": 43.9340909,
                "end_time": 44.1136364,
                "pitch": 60,
                "velocity": 51,
                "duration": 0.1795455,
                "tempo": 120.0
            },
            {
                "start_time": 44.3340909,
                "end_time": 44.5227273,
                "pitch": 60,
                "velocity": 51,
                "duration": 0.1886364,
                "tempo": 120.0
            },
            {
                "start_time": 44.5409091,
                "end_time": 44.7204545,
                "pitch": 59,
                "velocity": 51,
                "duration": 0.1795455,
                "tempo": 120.0
            },
            {
                "start_time": 44.7363636,
                "end_time": 45.3159091,
                "pitch": 62,
                "velocity": 51,
                "duration": 0.5795455,
                "tempo": 120.0
            },
            {
                "start_time": 45.3318182,
                "end_time": 45.7181818,
                "pitch": 64,
                "velocity": 51,
                "duration": 0.3863636,
                "tempo": 120.0
            },
            {
                "start_time": 45.9409091,
                "end_time": 46.1295455,
                "pitch": 60,
                "velocity": 51,
                "duration": 0.1886364,
                "tempo": 120.0
            },
            {
                "start_time": 46.1454545,
                "end_time": 46.325,
                "pitch": 59,
                "velocity": 51,
                "duration": 0.1795455,
                "tempo": 120.0
            },
            {
                "start_time": 46.5386364,
                "end_time": 46.725,
                "pitch": 60,
                "velocity": 51,
                "duration": 0.1863636,
                "tempo": 120.0
            },
            {
                "start_time": 46.7431818,
                "end_time": 46.9318182,
                "pitch": 59,
                "velocity": 51,
                "duration": 0.1886364,
                "tempo": 120.0
            },
            {
                "start_time": 47.1454545,
                "end_time": 47.325,
                "pitch": 60,
                "velocity": 51,
                "duration": 0.1795455,
                "tempo": 120.0
            },
            {
                "start_time": 47.5454545,
                "end_time": 47.7340909,
                "pitch": 60,
                "velocity": 51,
                "duration": 0.1886364,
                "tempo": 120.0
            },
            {
                "start_time": 47.7522727,
                "end_time": 47.9318182,
                "pitch": 59,
                "velocity": 51,
                "duration": 0.1795455,
                "tempo": 120.0
            },
            {
                "start_time": 47.9477273,
                "end_time": 48.5272727,
                "pitch": 62,
                "velocity": 51,
                "duration": 0.5795455,
                "tempo": 120.0
            },
            {
                "start_time": 48.5431818,
                "end_time": 48.9272727,
                "pitch": 62,
                "velocity": 51,
                "duration": 0.3840909,
                "tempo": 120.0
            },
            {
                "start_time": 49.1477273,
                "end_time": 49.3363636,
                "pitch": 60,
                "velocity": 51,
                "duration": 0.1886364,
                "tempo": 120.0
            },
            {
                "start_time": 49.3545455,
                "end_time": 49.5340909,
                "pitch": 59,
                "velocity": 51,
                "duration": 0.1795455,
                "tempo": 120.0
            },
            {
                "start_time": 49.7454545,
                "end_time": 49.9340909,
                "pitch": 60,
                "velocity": 51,
                "duration": 0.1886364,
                "tempo": 120.0
            },
            {
                "start_time": 49.9522727,
                "end_time": 50.1386364,
                "pitch": 59,
                "velocity": 51,
                "duration": 0.1863636,
                "tempo": 120.0
            },
            {
                "start_time": 50.3522727,
                "end_time": 50.5318182,
                "pitch": 64,
                "velocity": 51,
                "duration": 0.1795455,
                "tempo": 120.0
            },
            {
                "start_time": 50.7545455,
                "end_time": 50.9431818,
                "pitch": 65,
                "velocity": 51,
                "duration": 0.1886364,
                "tempo": 120.0
            },
            {
                "start_time": 51.1613636,
                "end_time": 51.3454545,
                "pitch": 48,
                "velocity": 51,
                "duration": 0.1840909,
                "tempo": 120.0
            },
            {
                "start_time": 51.3613636,
                "end_time": 51.5431818,
                "pitch": 50,
                "velocity": 51,
                "duration": 0.1818182,
                "tempo": 120.0
            },
            {
                "start_time": 51.5590909,
                "end_time": 51.7386364,
                "pitch": 52,
                "velocity": 51,
                "duration": 0.1795455,
                "tempo": 120.0
            },
            {
                "start_time": 51.7545455,
                "end_time": 51.9386364,
                "pitch": 55,
                "velocity": 51,
                "duration": 0.1840909,
                "tempo": 120.0
            },
            {
                "start_time": 51.9545455,
                "end_time": 52.1386364,
                "pitch": 57,
                "velocity": 51,
                "duration": 0.1840909,
                "tempo": 120.0
            },
            {
                "start_time": 52.3590909,
                "end_time": 52.5477273,
                "pitch": 60,
                "velocity": 51,
                "duration": 0.1886364,
                "tempo": 120.0
            },
            {
                "start_time": 52.5659091,
                "end_time": 52.7454545,
                "pitch": 59,
                "velocity": 51,
                "duration": 0.1795455,
                "tempo": 120.0
            },
            {
                "start_time": 52.9568182,
                "end_time": 53.1454545,
                "pitch": 60,
                "velocity": 51,
                "duration": 0.1886364,
                "tempo": 120.0
            },
            {
                "start_time": 53.1613636,
                "end_time": 53.35,
                "pitch": 59,
                "velocity": 51,
                "duration": 0.1886364,
                "tempo": 120.0
            },
            {
                "start_time": 53.5636364,
                "end_time": 53.7431818,
                "pitch": 60,
                "velocity": 51,
                "duration": 0.1795455,
                "tempo": 120.0
            },
            {
                "start_time": 53.9659091,
                "end_time": 54.1522727,
                "pitch": 60,
                "velocity": 51,
                "duration": 0.1863636,
                "tempo": 120.0
            },
            {
                "start_time": 54.1704545,
                "end_time": 54.35,
                "pitch": 59,
                "velocity": 51,
                "duration": 0.1795455,
                "tempo": 120.0
            },
            {
                "start_time": 54.3659091,
                "end_time": 54.9454545,
                "pitch": 62,
                "velocity": 51,
                "duration": 0.5795455,
                "tempo": 120.0
            },
            {
                "start_time": 54.9636364,
                "end_time": 55.3454545,
                "pitch": 62,
                "velocity": 51,
                "duration": 0.3818182,
                "tempo": 120.0
            },
            {
                "start_time": 55.5681818,
                "end_time": 55.7568182,
                "pitch": 60,
                "velocity": 51,
                "duration": 0.1886364,
                "tempo": 120.0
            },
            {
                "start_time": 55.7727273,
                "end_time": 55.9522727,
                "pitch": 59,
                "velocity": 51,
                "duration": 0.1795455,
                "tempo": 120.0
            },
            {
                "start_time": 56.1659091,
                "end_time": 56.3545455,
                "pitch": 60,
                "velocity": 51,
                "duration": 0.1886364,
                "tempo": 120.0
            },
            {
                "start_time": 56.3704545,
                "end_time": 56.5590909,
                "pitch": 59,
                "velocity": 51,
                "duration": 0.1886364,
                "tempo": 120.0
            },
            {
                "start_time": 56.7727273,
                "end_time": 56.9522727,
                "pitch": 60,
                "velocity": 51,
                "duration": 0.1795455,
                "tempo": 120.0
            },
            {
                "start_time": 57.1727273,
                "end_time": 57.3613636,
                "pitch": 60,
                "velocity": 51,
                "duration": 0.1886364,
                "tempo": 120.0
            },
            {
                "start_time": 57.3795455,
                "end_time": 57.5590909,
                "pitch": 59,
                "velocity": 51,
                "duration": 0.1795455,
                "tempo": 120.0
            },
            {
                "start_time": 57.575,
                "end_time": 58.1545455,
                "pitch": 62,
                "velocity": 51,
                "duration": 0.5795455,
                "tempo": 120.0
            },
            {
                "start_time": 58.1704545,
                "end_time": 58.5545455,
                "pitch": 64,
                "velocity": 51,
                "duration": 0.3840909,
                "tempo": 120.0
            },
            {
                "start_time": 58.775,
                "end_time": 58.9636364,
                "pitch": 60,
                "velocity": 51,
                "duration": 0.1886364,
                "tempo": 120.0
            },
            {
                "start_time": 58.9818182,
                "end_time": 59.1613636,
                "pitch": 59,
                "velocity": 51,
                "duration": 0.1795455,
                "tempo": 120.0
            },
            {
                "start_time": 59.3727273,
                "end_time": 59.5613636,
                "pitch": 60,
                "velocity": 51,
                "duration": 0.1886364,
                "tempo": 120.0
            },
            {
                "start_time": 59.5795455,
                "end_time": 59.7659091,
                "pitch": 59,
                "velocity": 51,
                "duration": 0.1863636,
                "tempo": 120.0
            },
            {
                "start_time": 59.9795455,
                "end_time": 60.1590909,
                "pitch": 60,
                "velocity": 51,
                "duration": 0.1795455,
                "tempo": 120.0
            },
            {
                "start_time": 60.3818182,
                "end_time": 60.5704545,
                "pitch": 60,
                "velocity": 51,
                "duration": 0.1886364,
                "tempo": 120.0
            },
            {
                "start_time": 60.5863636,
                "end_time": 60.7659091,
                "pitch": 59,
                "velocity": 51,
                "duration": 0.1795455,
                "tempo": 120.0
            },
            {
                "start_time": 60.7818182,
                "end_time": 61.3613636,
                "pitch": 62,
                "velocity": 51,
                "duration": 0.5795455,
                "tempo": 120.0
            },
            {
                "start_time": 61.3795455,
                "end_time": 61.7659091,
                "pitch": 62,
                "velocity": 51,
                "duration": 0.3863636,
                "tempo": 120.0
            },
            {
                "start_time": 61.9863636,
                "end_time": 62.175,
                "pitch": 60,
                "velocity": 51,
                "duration": 0.1886364,
                "tempo": 120.0
            },
            {
                "start_time": 62.1931818,
                "end_time": 62.3727273,
                "pitch": 59,
                "velocity": 51,
                "duration": 0.1795455,
                "tempo": 120.0
            },
            {
                "start_time": 62.5840909,
                "end_time": 62.7727273,
                "pitch": 60,
                "velocity": 51,
                "duration": 0.1886364,
                "tempo": 120.0
            },
            {
                "start_time": 62.7886364,
                "end_time": 62.9772727,
                "pitch": 59,
                "velocity": 51,
                "duration": 0.1886364,
                "tempo": 120.0
            },
            {
                "start_time": 63.1909091,
                "end_time": 63.3704545,
                "pitch": 64,
                "velocity": 51,
                "duration": 0.1795455,
                "tempo": 120.0
            },
            {
                "start_time": 63.5931818,
                "end_time": 63.7795455,
                "pitch": 65,
                "velocity": 51,
                "duration": 0.1863636,
                "tempo": 120.0
            },
            {
                "start_time": 63.9977273,
                "end_time": 64.1818182,
                "pitch": 48,
                "velocity": 51,
                "duration": 0.1840909,
                "tempo": 120.0
            },
            {
                "start_time": 64.1977273,
                "end_time": 64.3818182,
                "pitch": 50,
                "velocity": 51,
                "duration": 0.1840909,
                "tempo": 120.0
            },
            {
                "start_time": 64.4,
                "end_time": 64.5840909,
                "pitch": 52,
                "velocity": 51,
                "duration": 0.1840909,
                "tempo": 120.0
            },
            {
                "start_time": 64.6,
                "end_time": 64.7795455,
                "pitch": 55,
                "velocity": 51,
                "duration": 0.1795455,
                "tempo": 120.0
            },
            {
                "start_time": 64.7977273,
                "end_time": 64.9772727,
                "pitch": 57,
                "velocity": 51,
                "duration": 0.1795455,
                "tempo": 120.0
            },
            {
                "start_time": 64.9931818,
                "end_time": 66.5818182,
                "pitch": 57,
                "velocity": 51,
                "duration": 1.5886364,
                "tempo": 120.0
            },
            {
                "start_time": 66.5977273,
                "end_time": 68.1863636,
                "pitch": 59,
                "velocity": 51,
                "duration": 1.5886364,
                "tempo": 120.0
            },
            {
                "start_time": 68.2022727,
                "end_time": 69.7931818,
                "pitch": 60,
                "velocity": 51,
                "duration": 1.5909091,
                "tempo": 120.0
            },
            {
                "start_time": 69.8090909,
                "end_time": 71.3977273,
                "pitch": 62,
                "velocity": 51,
                "duration": 1.5886364,
                "tempo": 120.0
            },
            {
                "start_time": 71.4136364,
                "end_time": 73.0022727,
                "pitch": 64,
                "velocity": 51,
                "duration": 1.5886364,
                "tempo": 120.0
            },
            {
                "start_time": 73.0181818,
                "end_time": 74.6090909,
                "pitch": 65,
                "velocity": 51,
                "duration": 1.5909091,
                "tempo": 120.0
            },
            {
                "start_time": 74.625,
                "end_time": 76.2136364,
                "pitch": 67,
                "velocity": 51,
                "duration": 1.5886364,
                "tempo": 120.0
            },
            {
                "start_time": 77.4454545,
                "end_time": 77.5318182,
                "pitch": 63,
                "velocity": 51,
                "duration": 0.0863636,
                "tempo": 120.0
            },
            {
                "start_time": 77.5477273,
                "end_time": 77.6340909,
                "pitch": 64,
                "velocity": 51,
                "duration": 0.0863636,
                "tempo": 120.0
            },
            {
                "start_time": 77.6522727,
                "end_time": 77.7363636,
                "pitch": 65,
                "velocity": 51,
                "duration": 0.0840909,
                "tempo": 120.0
            },
            {
                "start_time": 77.7545455,
                "end_time": 77.8386364,
                "pitch": 66,
                "velocity": 51,
                "duration": 0.0840909,
                "tempo": 120.0
            }
        ],
        "Acoustic Bass": [
            {
                "start_time": 0.7840909,
                "end_time": 0.9727273,
                "pitch": 33,
                "velocity": 80,
                "duration": 0.1886364,
                "tempo": 120.0
            },
            {
                "start_time": 0.9886364,
                "end_time": 1.1772727,
                "pitch": 33,
                "velocity": 80,
                "duration": 0.1886364,
                "tempo": 120.0
            },
            {
                "start_time": 1.1954545,
                "end_time": 1.375,
                "pitch": 33,
                "velocity": 80,
                "duration": 0.1795455,
                "tempo": 120.0
            },
            {
                "start_time": 1.3909091,
                "end_time": 1.5704545,
                "pitch": 33,
                "velocity": 80,
                "duration": 0.1795455,
                "tempo": 120.0
            },
            {
                "start_time": 1.5863636,
                "end_time": 1.775,
                "pitch": 33,
                "velocity": 80,
                "duration": 0.1886364,
                "tempo": 120.0
            },
            {
                "start_time": 1.7931818,
                "end_time": 1.9795455,
                "pitch": 33,
                "velocity": 80,
                "duration": 0.1863636,
                "tempo": 120.0
            },
            {
                "start_time": 1.9977273,
                "end_time": 2.1772727,
                "pitch": 33,
                "velocity": 80,
                "duration": 0.1795455,
                "tempo": 120.0
            },
            {
                "start_time": 2.1931818,
                "end_time": 2.3727273,
                "pitch": 33,
                "velocity": 80,
                "duration": 0.1795455,
                "tempo": 120.0
            },
            {
                "start_time": 2.3909091,
                "end_time": 2.5772727,
                "pitch": 33,
                "velocity": 80,
                "duration": 0.1863636,
                "tempo": 120.0
            },
            {
                "start_time": 2.5954545,
                "end_time": 2.7840909,
                "pitch": 33,
                "velocity": 80,
                "duration": 0.1886364,
                "tempo": 120.0
            },
            {
                "start_time": 2.8,
                "end_time": 2.9795455,
                "pitch": 33,
                "velocity": 80,
                "duration": 0.1795455,
                "tempo": 120.0
            },
            {
                "start_time": 2.9954545,
                "end_time": 3.3772727,
                "pitch": 36,
                "velocity": 80,
                "duration": 0.3818182,
                "tempo": 120.0
            },
            {
                "start_time": 3.3931818,
                "end_time": 3.5772727,
                "pitch": 36,
                "velocity": 80,
                "duration": 0.1840909,
                "tempo": 120.0
            },
            {
                "start_time": 3.5954545,
                "end_time": 3.7795455,
                "pitch": 35,
                "velocity": 80,
                "duration": 0.1840909,
                "tempo": 120.0
            },
            {
                "start_time": 3.7954545,
                "end_time": 3.9795455,
                "pitch": 35,
                "velocity": 80,
                "duration": 0.1840909,
                "tempo": 120.0
            },
            {
                "start_time": 3.9954545,
                "end_time": 4.1840909,
                "pitch": 33,
                "velocity": 80,
                "duration": 0.1886364,
                "tempo": 120.0
            },
            {
                "start_time": 4.2,
                "end_time": 4.3886364,
                "pitch": 33,
                "velocity": 80,
                "duration": 0.1886364,
                "tempo": 120.0
            },
            {
                "start_time": 4.4068182,
                "end_time": 4.5863636,
                "pitch": 33,
                "velocity": 80,
                "duration": 0.1795455,
                "tempo": 120.0
            },
            {
                "start_time": 4.6022727,
                "end_time": 4.7818182,
                "pitch": 33,
                "velocity": 80,
                "duration": 0.1795455,
                "tempo": 120.0
            },
            {
                "start_time": 4.7977273,
                "end_time": 4.9863636,
                "pitch": 33,
                "velocity": 80,
                "duration": 0.1886364,
                "tempo": 120.0
            },
            {
                "start_time": 5.0022727,
                "end_time": 5.1909091,
                "pitch": 33,
                "velocity": 80,
                "duration": 0.1886364,
                "tempo": 120.0
            },
            {
                "start_time": 5.2090909,
                "end_time": 5.3886364,
                "pitch": 33,
                "velocity": 80,
                "duration": 0.1795455,
                "tempo": 120.0
            },
            {
                "start_time": 5.4045455,
                "end_time": 5.5840909,
                "pitch": 33,
                "velocity": 80,
                "duration": 0.1795455,
                "tempo": 120.0
            },
            {
                "start_time": 5.6,
                "end_time": 5.7886364,
                "pitch": 33,
                "velocity": 80,
                "duration": 0.1886364,
                "tempo": 120.0
            },
            {
                "start_time": 5.8045455,
                "end_time": 5.9931818,
                "pitch": 33,
                "velocity": 80,
                "duration": 0.1886364,
                "tempo": 120.0
            },
            {
                "start_time": 6.0113636,
                "end_time": 6.1909091,
                "pitch": 33,
                "velocity": 80,
                "duration": 0.1795455,
                "tempo": 120.0
            },
            {
                "start_time": 6.2068182,
                "end_time": 6.5886364,
                "pitch": 38,
                "velocity": 80,
                "duration": 0.3818182,
                "tempo": 120.0
            },
            {
                "start_time": 6.6045455,
                "end_time": 6.7886364,
                "pitch": 38,
                "velocity": 80,
                "duration": 0.1840909,
                "tempo": 120.0
            },
            {
                "start_time": 6.8068182,
                "end_time": 6.9886364,
                "pitch": 40,
                "velocity": 80,
                "duration": 0.1818182,
                "tempo": 120.0
            },
            {
                "start_time": 7.0068182,
                "end_time": 7.1886364,
                "pitch": 40,
                "velocity": 80,
                "duration": 0.1818182,
                "tempo": 120.0
            },
            {
                "start_time": 7.2068182,
                "end_time": 7.3931818,
                "pitch": 33,
                "velocity": 80,
                "duration": 0.1863636,
                "tempo": 120.0
            },
            {
                "start_time": 7.4113636,
                "end_time": 7.6,
                "pitch": 33,
                "velocity": 80,
                "duration": 0.1886364,
                "tempo": 120.0
            },
            {
                "start_time": 7.6159091,
                "end_time": 7.7954545,
                "pitch": 33,
                "velocity": 80,
                "duration": 0.1795455,
                "tempo": 120.0
            },
            {
                "start_time": 7.8136364,
                "end_time": 7.9931818,
                "pitch": 33,
                "velocity": 80,
                "duration": 0.1795455,
                "tempo": 120.0
            },
            {
                "start_time": 8.0090909,
                "end_time": 8.1977273,
                "pitch": 33,
                "velocity": 80,
                "duration": 0.1886364,
                "tempo": 120.0
            },
            {
                "start_time": 8.2136364,
                "end_time": 8.4022727,
                "pitch": 33,
                "velocity": 80,
                "duration": 0.1886364,
                "tempo": 120.0
            },
            {
                "start_time": 8.4181818,
                "end_time": 8.6,
                "pitch": 33,
                "velocity": 80,
                "duration": 0.1818182,
                "tempo": 120.0
            },
            {
                "start_time": 8.6159091,
                "end_time": 8.7954545,
                "pitch": 33,
                "velocity": 80,
                "duration": 0.1795455,
                "tempo": 120.0
            },
            {
                "start_time": 8.8113636,
                "end_time": 9.0,
                "pitch": 33,
                "velocity": 80,
                "duration": 0.1886364,
                "tempo": 120.0
            },
            {
                "start_time": 9.0159091,
                "end_time": 9.2045455,
                "pitch": 33,
                "velocity": 80,
                "duration": 0.1886364,
                "tempo": 120.0
            },
            {
                "start_time": 9.2227273,
                "end_time": 9.4022727,
                "pitch": 33,
                "velocity": 80,
                "duration": 0.1795455,
                "tempo": 120.0
            },
            {
                "start_time": 9.4181818,
                "end_time": 9.7977273,
                "pitch": 36,
                "velocity": 80,
                "duration": 0.3795455,
                "tempo": 120.0
            },
            {
                "start_time": 9.8159091,
                "end_time": 10.0,
                "pitch": 36,
                "velocity": 80,
                "duration": 0.1840909,
                "tempo": 120.0
            },
            {
                "start_time": 10.0159091,
                "end_time": 10.2022727,
                "pitch": 35,
                "velocity": 80,
                "duration": 0.1863636,
                "tempo": 120.0
            },
            {
                "start_time": 10.2181818,
                "end_time": 10.4022727,
                "pitch": 35,
                "velocity": 80,
                "duration": 0.1840909,
                "tempo": 120.0
            },
            {
                "start_time": 10.4204545,
                "end_time": 10.6068182,
                "pitch": 33,
                "velocity": 80,
                "duration": 0.1863636,
                "tempo": 120.0
            },
            {
                "start_time": 10.625,
                "end_time": 10.8136364,
                "pitch": 33,
                "velocity": 80,
                "duration": 0.1886364,
                "tempo": 120.0
            },
            {
                "start_time": 10.8295455,
                "end_time": 11.0090909,
                "pitch": 33,
                "velocity": 80,
                "duration": 0.1795455,
                "tempo": 120.0
            },
            {
                "start_time": 11.0272727,
                "end_time": 11.2068182,
                "pitch": 33,
                "velocity": 80,
                "duration": 0.1795455,
                "tempo": 120.0
            },
            {
                "start_time": 11.2227273,
                "end_time": 11.4113636,
                "pitch": 33,
                "velocity": 80,
                "duration": 0.1886364,
                "tempo": 120.0
            },
            {
                "start_time": 11.4272727,
                "end_time": 11.6159091,
                "pitch": 33,
                "velocity": 80,
                "duration": 0.1886364,
                "tempo": 120.0
            },
            {
                "start_time": 11.6318182,
                "end_time": 11.8136364,
                "pitch": 33,
                "velocity": 80,
                "duration": 0.1818182,
                "tempo": 120.0
            },
            {
                "start_time": 11.8295455,
                "end_time": 12.0090909,
                "pitch": 33,
                "velocity": 80,
                "duration": 0.1795455,
                "tempo": 120.0
            },
            {
                "start_time": 12.025,
                "end_time": 12.2136364,
                "pitch": 33,
                "velocity": 80,
                "duration": 0.1886364,
                "tempo": 120.0
            },
            {
                "start_time": 12.2295455,
                "end_time": 12.4181818,
                "pitch": 33,
                "velocity": 80,
                "duration": 0.1886364,
                "tempo": 120.0
            },
            {
                "start_time": 12.4363636,
                "end_time": 12.6204545,
                "pitch": 33,
                "velocity": 80,
                "duration": 0.1840909,
                "tempo": 120.0
            },
            {
                "start_time": 12.6363636,
                "end_time": 12.8227273,
                "pitch": 36,
                "velocity": 80,
                "duration": 0.1863636,
                "tempo": 120.0
            },
            {
                "start_time": 12.8386364,
                "end_time": 13.0181818,
                "pitch": 38,
                "velocity": 80,
                "duration": 0.1795455,
                "tempo": 120.0
            },
            {
                "start_time": 13.0340909,
                "end_time": 13.2136364,
                "pitch": 40,
                "velocity": 80,
                "duration": 0.1795455,
                "tempo": 120.0
            },
            {
                "start_time": 13.2295455,
                "end_time": 13.4136364,
                "pitch": 43,
                "velocity": 80,
                "duration": 0.1840909,
                "tempo": 120.0
            },
            {
                "start_time": 13.4295455,
                "end_time": 13.6136364,
                "pitch": 45,
                "velocity": 80,
                "duration": 0.1840909,
                "tempo": 120.0
            },
            {
                "start_time": 13.6295455,
                "end_time": 13.8181818,
                "pitch": 33,
                "velocity": 80,
                "duration": 0.1886364,
                "tempo": 120.0
            },
            {
                "start_time": 13.8363636,
                "end_time": 14.025,
                "pitch": 33,
                "velocity": 80,
                "duration": 0.1886364,
                "tempo": 120.0
            },
            {
                "start_time": 14.0409091,
                "end_time": 14.2204545,
                "pitch": 33,
                "velocity": 80,
                "duration": 0.1795455,
                "tempo": 120.0
            },
            {
                "start_time": 14.2363636,
                "end_time": 14.4181818,
                "pitch": 33,
                "velocity": 80,
                "duration": 0.1818182,
                "tempo": 120.0
            },
            {
                "start_time": 14.4340909,
                "end_time": 14.6204545,
                "pitch": 33,
                "velocity": 80,
                "duration": 0.1863636,
                "tempo": 120.0
            },
            {
                "start_time": 14.6386364,
                "end_time": 14.8272727,
                "pitch": 33,
                "velocity": 80,
                "duration": 0.1886364,
                "tempo": 120.0
            },
            {
                "start_time": 14.8431818,
                "end_time": 15.0227273,
                "pitch": 33,
                "velocity": 80,
                "duration": 0.1795455,
                "tempo": 120.0
            },
            {
                "start_time": 15.0409091,
                "end_time": 15.2204545,
                "pitch": 33,
                "velocity": 80,
                "duration": 0.1795455,
                "tempo": 120.0
            },
            {
                "start_time": 15.2363636,
                "end_time": 15.425,
                "pitch": 33,
                "velocity": 80,
                "duration": 0.1886364,
                "tempo": 120.0
            },
            {
                "start_time": 15.4409091,
                "end_time": 15.6295455,
                "pitch": 33,
                "velocity": 80,
                "duration": 0.1886364,
                "tempo": 120.0
            },
            {
                "start_time": 15.6454545,
                "end_time": 15.8272727,
                "pitch": 33,
                "velocity": 80,
                "duration": 0.1818182,
                "tempo": 120.0
            },
            {
                "start_time": 15.8431818,
                "end_time": 16.2227273,
                "pitch": 36,
                "velocity": 80,
                "duration": 0.3795455,
                "tempo": 120.0
            },
            {
                "start_time": 16.2409091,
                "end_time": 16.425,
                "pitch": 36,
                "velocity": 80,
                "duration": 0.1840909,
                "tempo": 120.0
            },
            {
                "start_time": 16.4409091,
                "end_time": 16.625,
                "pitch": 35,
                "velocity": 80,
                "duration": 0.1840909,
                "tempo": 120.0
            },
            {
                "start_time": 16.6409091,
                "end_time": 16.825,
                "pitch": 35,
                "velocity": 80,
                "duration": 0.1840909,
                "tempo": 120.0
            },
            {
                "start_time": 16.8409091,
                "end_time": 17.0295455,
                "pitch": 33,
                "velocity": 80,
                "duration": 0.1886364,
                "tempo": 120.0
            },
            {
                "start_time": 17.0454545,
                "end_time": 17.2340909,
                "pitch": 33,
                "velocity": 80,
                "duration": 0.1886364,
                "tempo": 120.0
            },
            {
                "start_time": 17.2522727,
                "end_time": 17.4318182,
                "pitch": 33,
                "velocity": 80,
                "duration": 0.1795455,
                "tempo": 120.0
            },
            {
                "start_time": 17.4477273,
                "end_time": 17.6272727,
                "pitch": 33,
                "velocity": 80,
                "duration": 0.1795455,
                "tempo": 120.0
            },
            {
                "start_time": 17.6431818,
                "end_time": 17.8318182,
                "pitch": 33,
                "velocity": 80,
                "duration": 0.1886364,
                "tempo": 120.0
            },
            {
                "start_time": 17.85,
                "end_time": 18.0386364,
                "pitch": 33,
                "velocity": 80,
                "duration": 0.1886364,
                "tempo": 120.0
            },
            {
                "start_time": 18.0545455,
                "end_time": 18.2340909,
                "pitch": 33,
                "velocity": 80,
                "duration": 0.1795455,
                "tempo": 120.0
            },
            {
                "start_time": 18.25,
                "end_time": 18.4295455,
                "pitch": 33,
                "velocity": 80,
                "duration": 0.1795455,
                "tempo": 120.0
            },
            {
                "start_time": 18.4477273,
                "end_time": 18.6340909,
                "pitch": 33,
                "velocity": 80,
                "duration": 0.1863636,
                "tempo": 120.0
            },
            {
                "start_time": 18.6522727,
                "end_time": 18.8409091,
                "pitch": 33,
                "velocity": 80,
                "duration": 0.1886364,
                "tempo": 120.0
            },
            {
                "start_time": 18.8568182,
                "end_time": 19.0363636,
                "pitch": 33,
                "velocity": 80,
                "duration": 0.1795455,
                "tempo": 120.0
            },
            {
                "start_time": 19.0545455,
                "end_time": 19.4318182,
                "pitch": 38,
                "velocity": 80,
                "duration": 0.3772727,
                "tempo": 120.0
            },
            {
                "start_time": 19.45,
                "end_time": 19.6318182,
                "pitch": 38,
                "velocity": 80,
                "duration": 0.1818182,
                "tempo": 120.0
            },
            {
                "start_time": 19.65,
                "end_time": 19.8340909,
                "pitch": 40,
                "velocity": 80,
                "duration": 0.1840909,
                "tempo": 120.0
            },
            {
                "start_time": 19.85,
                "end_time": 20.0363636,
                "pitch": 40,
                "velocity": 80,
                "duration": 0.1863636,
                "tempo": 120.0
            },
            {
                "start_time": 20.0522727,
                "end_time": 20.2409091,
                "pitch": 33,
                "velocity": 80,
                "duration": 0.1886364,
                "tempo": 120.0
            },
            {
                "start_time": 20.2568182,
                "end_time": 20.4454545,
                "pitch": 33,
                "velocity": 80,
                "duration": 0.1886364,
                "tempo": 120.0
            },
            {
                "start_time": 20.4636364,
                "end_time": 20.6431818,
                "pitch": 33,
                "velocity": 80,
                "duration": 0.1795455,
                "tempo": 120.0
            },
            {
                "start_time": 20.6590909,
                "end_time": 20.8386364,
                "pitch": 33,
                "velocity": 80,
                "duration": 0.1795455,
                "tempo": 120.0
            },
            {
                "start_time": 20.8545455,
                "end_time": 21.0431818,
                "pitch": 33,
                "velocity": 80,
                "duration": 0.1886364,
                "tempo": 120.0
            },
            {
                "start_time": 21.0590909,
                "end_time": 21.2477273,
                "pitch": 33,
                "velocity": 80,
                "duration": 0.1886364,
                "tempo": 120.0
            },
            {
                "start_time": 21.2659091,
                "end_time": 21.4454545,
                "pitch": 33,
                "velocity": 80,
                "duration": 0.1795455,
                "tempo": 120.0
            },
            {
                "start_time": 21.4613636,
                "end_time": 21.6409091,
                "pitch": 33,
                "velocity": 80,
                "duration": 0.1795455,
                "tempo": 120.0
            },
            {
                "start_time": 21.6568182,
                "end_time": 21.8454545,
                "pitch": 33,
                "velocity": 80,
                "duration": 0.1886364,
                "tempo": 120.0
            },
            {
                "start_time": 21.8636364,
                "end_time": 22.05,
                "pitch": 33,
                "velocity": 80,
                "duration": 0.1863636,
                "tempo": 120.0
            },
            {
                "start_time": 22.0681818,
                "end_time": 22.2477273,
                "pitch": 33,
                "velocity": 80,
                "duration": 0.1795455,
                "tempo": 120.0
            },
            {
                "start_time": 22.2636364,
                "end_time": 22.6431818,
                "pitch": 36,
                "velocity": 80,
                "duration": 0.3795455,
                "tempo": 120.0
            },
            {
                "start_time": 22.6613636,
                "end_time": 22.8431818,
                "pitch": 36,
                "velocity": 80,
                "duration": 0.1818182,
                "tempo": 120.0
            },
            {
                "start_time": 22.8613636,
                "end_time": 23.0454545,
                "pitch": 35,
                "velocity": 80,
                "duration": 0.1840909,
                "tempo": 120.0
            },
            {
                "start_time": 23.0613636,
                "end_time": 23.2454545,
                "pitch": 35,
                "velocity": 80,
                "duration": 0.1840909,
                "tempo": 120.0
            },
            {
                "start_time": 23.2636364,
                "end_time": 23.4522727,
                "pitch": 33,
                "velocity": 80,
                "duration": 0.1886364,
                "tempo": 120.0
            },
            {
                "start_time": 23.4681818,
                "end_time": 23.6568182,
                "pitch": 33,
                "velocity": 80,
                "duration": 0.1886364,
                "tempo": 120.0
            },
            {
                "start_time": 23.6727273,
                "end_time": 23.8545455,
                "pitch": 33,
                "velocity": 80,
                "duration": 0.1818182,
                "tempo": 120.0
            },
            {
                "start_time": 23.8704545,
                "end_time": 24.05,
                "pitch": 33,
                "velocity": 80,
                "duration": 0.1795455,
                "tempo": 120.0
            },
            {
                "start_time": 24.0659091,
                "end_time": 24.2545455,
                "pitch": 33,
                "velocity": 80,
                "duration": 0.1886364,
                "tempo": 120.0
            },
            {
                "start_time": 24.2704545,
                "end_time": 24.4590909,
                "pitch": 33,
                "velocity": 80,
                "duration": 0.1886364,
                "tempo": 120.0
            },
            {
                "start_time": 24.4772727,
                "end_time": 24.6568182,
                "pitch": 33,
                "velocity": 80,
                "duration": 0.1795455,
                "tempo": 120.0
            },
            {
                "start_time": 24.6727273,
                "end_time": 24.8522727,
                "pitch": 33,
                "velocity": 80,
                "duration": 0.1795455,
                "tempo": 120.0
            },
            {
                "start_time": 24.8681818,
                "end_time": 25.0568182,
                "pitch": 33,
                "velocity": 80,
                "duration": 0.1886364,
                "tempo": 120.0
            },
            {
                "start_time": 25.0727273,
                "end_time": 25.2613636,
                "pitch": 33,
                "velocity": 80,
                "duration": 0.1886364,
                "tempo": 120.0
            },
            {
                "start_time": 25.2795455,
                "end_time": 25.4636364,
                "pitch": 33,
                "velocity": 80,
                "duration": 0.1840909,
                "tempo": 120.0
            },
            {
                "start_time": 25.4795455,
                "end_time": 25.6659091,
                "pitch": 36,
                "velocity": 80,
                "duration": 0.1863636,
                "tempo": 120.0
            },
            {
                "start_time": 25.6818182,
                "end_time": 25.8659091,
                "pitch": 38,
                "velocity": 80,
                "duration": 0.1840909,
                "tempo": 120.0
            },
            {
                "start_time": 25.8818182,
                "end_time": 26.0659091,
                "pitch": 40,
                "velocity": 80,
                "duration": 0.1840909,
                "tempo": 120.0
            },
            {
                "start_time": 26.0818182,
                "end_time": 26.2613636,
                "pitch": 43,
                "velocity": 80,
                "duration": 0.1795455,
                "tempo": 120.0
            },
            {
                "start_time": 26.2772727,
                "end_time": 26.4568182,
                "pitch": 45,
                "velocity": 80,
                "duration": 0.1795455,
                "tempo": 120.0
            },
            {
                "start_time": 26.475,
                "end_time": 26.6613636,
                "pitch": 29,
                "velocity": 80,
                "duration": 0.1863636,
                "tempo": 120.0
            },
            {
                "start_time": 26.6795455,
                "end_time": 26.8681818,
                "pitch": 29,
                "velocity": 80,
                "duration": 0.1886364,
                "tempo": 120.0
            },
            {
                "start_time": 26.8840909,
                "end_time": 27.0636364,
                "pitch": 29,
                "velocity": 80,
                "duration": 0.1795455,
                "tempo": 120.0
            },
            {
                "start_time": 27.0818182,
                "end_time": 27.2613636,
                "pitch": 29,
                "velocity": 80,
                "duration": 0.1795455,
                "tempo": 120.0
            },
            {
                "start_time": 27.2772727,
                "end_time": 27.4636364,
                "pitch": 29,
                "velocity": 80,
                "duration": 0.1863636,
                "tempo": 120.0
            },
            {
                "start_time": 27.4818182,
                "end_time": 27.6704545,
                "pitch": 29,
                "velocity": 80,
                "duration": 0.1886364,
                "tempo": 120.0
            },
            {
                "start_time": 27.6863636,
                "end_time": 27.8681818,
                "pitch": 29,
                "velocity": 80,
                "duration": 0.1818182,
                "tempo": 120.0
            },
            {
                "start_time": 27.8840909,
                "end_time": 28.0636364,
                "pitch": 29,
                "velocity": 80,
                "duration": 0.1795455,
                "tempo": 120.0
            },
            {
                "start_time": 28.0795455,
                "end_time": 28.2681818,
                "pitch": 29,
                "velocity": 80,
                "duration": 0.1886364,
                "tempo": 120.0
            },
            {
                "start_time": 28.2840909,
                "end_time": 28.4727273,
                "pitch": 29,
                "velocity": 80,
                "duration": 0.1886364,
                "tempo": 120.0
            },
            {
                "start_time": 28.4909091,
                "end_time": 28.6704545,
                "pitch": 29,
                "velocity": 80,
                "duration": 0.1795455,
                "tempo": 120.0
            },
            {
                "start_time": 28.6863636,
                "end_time": 28.8659091,
                "pitch": 29,
                "velocity": 80,
                "duration": 0.1795455,
                "tempo": 120.0
            },
            {
                "start_time": 28.8818182,
                "end_time": 29.0704545,
                "pitch": 29,
                "velocity": 80,
                "duration": 0.1886364,
                "tempo": 120.0
            },
            {
                "start_time": 29.0863636,
                "end_time": 29.275,
                "pitch": 29,
                "velocity": 80,
                "duration": 0.1886364,
                "tempo": 120.0
            },
            {
                "start_time": 29.2931818,
                "end_time": 29.4727273,
                "pitch": 29,
                "velocity": 80,
                "duration": 0.1795455,
                "tempo": 120.0
            },
            {
                "start_time": 29.4886364,
                "end_time": 29.6681818,
                "pitch": 29,
                "velocity": 80,
                "duration": 0.1795455,
                "tempo": 120.0
            },
            {
                "start_time": 29.6840909,
                "end_time": 29.8727273,
                "pitch": 29,
                "velocity": 80,
                "duration": 0.1886364,
                "tempo": 120.0
            },
            {
                "start_time": 29.8909091,
                "end_time": 30.0772727,
                "pitch": 29,
                "velocity": 80,
                "duration": 0.1863636,
                "tempo": 120.0
            },
            {
                "start_time": 30.0954545,
                "end_time": 30.275,
                "pitch": 29,
                "velocity": 80,
                "duration": 0.1795455,
                "tempo": 120.0
            },
            {
                "start_time": 30.2909091,
                "end_time": 30.4704545,
                "pitch": 29,
                "velocity": 80,
                "duration": 0.1795455,
                "tempo": 120.0
            },
            {
                "start_time": 30.4863636,
                "end_time": 30.675,
                "pitch": 29,
                "velocity": 80,
                "duration": 0.1886364,
                "tempo": 120.0
            },
            {
                "start_time": 30.6931818,
                "end_time": 30.8818182,
                "pitch": 29,
                "velocity": 80,
                "duration": 0.1886364,
                "tempo": 120.0
            },
            {
                "start_time": 30.8977273,
                "end_time": 31.0772727,
                "pitch": 29,
                "velocity": 80,
                "duration": 0.1795455,
                "tempo": 120.0
            },
            {
                "start_time": 31.0931818,
                "end_time": 31.2727273,
                "pitch": 29,
                "velocity": 80,
                "duration": 0.1795455,
                "tempo": 120.0
            },
            {
                "start_time": 31.2909091,
                "end_time": 31.4772727,
                "pitch": 29,
                "velocity": 80,
                "duration": 0.1863636,
                "tempo": 120.0
            },
            {
                "start_time": 31.4954545,
                "end_time": 31.6840909,
                "pitch": 29,
                "velocity": 80,
                "duration": 0.1886364,
                "tempo": 120.0
            },
            {
                "start_time": 31.7,
                "end_time": 31.8795455,
                "pitch": 29,
                "velocity": 80,
                "duration": 0.1795455,
                "tempo": 120.0
            },
            {
                "start_time": 31.8977273,
                "end_time": 32.0772727,
                "pitch": 29,
                "velocity": 80,
                "duration": 0.1795455,
                "tempo": 120.0
            },
            {
                "start_time": 32.0931818,
                "end_time": 32.2795455,
                "pitch": 29,
                "velocity": 80,
                "duration": 0.1863636,
                "tempo": 120.0
            },
            {
                "start_time": 32.2977273,
                "end_time": 32.4863636,
                "pitch": 29,
                "velocity": 80,
                "duration": 0.1886364,
                "tempo": 120.0
            },
            {
                "start_time": 32.5022727,
                "end_time": 32.6840909,
                "pitch": 29,
                "velocity": 80,
                "duration": 0.1818182,
                "tempo": 120.0
            },
            {
                "start_time": 32.7,
                "end_time": 32.8795455,
                "pitch": 29,
                "velocity": 80,
                "duration": 0.1795455,
                "tempo": 120.0
            },
            {
                "start_time": 32.8954545,
                "end_time": 33.0840909,
                "pitch": 29,
                "velocity": 80,
                "duration": 0.1886364,
                "tempo": 120.0
            },
            {
                "start_time": 33.1,
                "end_time": 33.2886364,
                "pitch": 29,
                "velocity": 80,
                "duration": 0.1886364,
                "tempo": 120.0
            },
            {
                "start_time": 33.3068182,
                "end_time": 33.4863636,
                "pitch": 29,
                "velocity": 80,
                "duration": 0.1795455,
                "tempo": 120.0
            },
            {
                "start_time": 33.5022727,
                "end_time": 33.6818182,
                "pitch": 29,
                "velocity": 80,
                "duration": 0.1795455,
                "tempo": 120.0
            },
            {
                "start_time": 33.6977273,
                "end_time": 33.8863636,
                "pitch": 29,
                "velocity": 80,
                "duration": 0.1886364,
                "tempo": 120.0
            },
            {
                "start_time": 33.9022727,
                "end_time": 34.0909091,
                "pitch": 29,
                "velocity": 80,
                "duration": 0.1886364,
                "tempo": 120.0
            },
            {
                "start_time": 34.1090909,
                "end_time": 34.2886364,
                "pitch": 29,
                "velocity": 80,
                "duration": 0.1795455,
                "tempo": 120.0
            },
            {
                "start_time": 34.3045455,
                "end_time": 34.4840909,
                "pitch": 29,
                "velocity": 80,
                "duration": 0.1795455,
                "tempo": 120.0
            },
            {
                "start_time": 34.5,
                "end_time": 34.6886364,
                "pitch": 29,
                "velocity": 80,
                "duration": 0.1886364,
                "tempo": 120.0
            },
            {
                "start_time": 34.7068182,
                "end_time": 34.8931818,
                "pitch": 29,
                "velocity": 80,
                "duration": 0.1863636,
                "tempo": 120.0
            },
            {
                "start_time": 34.9113636,
                "end_time": 35.0909091,
                "pitch": 29,
                "velocity": 80,
                "duration": 0.1795455,
                "tempo": 120.0
            },
            {
                "start_time": 35.1068182,
                "end_time": 35.2863636,
                "pitch": 29,
                "velocity": 80,
                "duration": 0.1795455,
                "tempo": 120.0
            },
            {
                "start_time": 35.3022727,
                "end_time": 35.4909091,
                "pitch": 29,
                "velocity": 80,
                "duration": 0.1886364,
                "tempo": 120.0
            },
            {
                "start_time": 35.5090909,
                "end_time": 35.6977273,
                "pitch": 29,
                "velocity": 80,
                "duration": 0.1886364,
                "tempo": 120.0
            },
            {
                "start_time": 35.7136364,
                "end_time": 35.8931818,
                "pitch": 29,
                "velocity": 80,
                "duration": 0.1795455,
                "tempo": 120.0
            },
            {
                "start_time": 35.9090909,
                "end_time": 36.0886364,
                "pitch": 29,
                "velocity": 80,
                "duration": 0.1795455,
                "tempo": 120.0
            },
            {
                "start_time": 36.1068182,
                "end_time": 36.2931818,
                "pitch": 29,
                "velocity": 80,
                "duration": 0.1863636,
                "tempo": 120.0
            },
            {
                "start_time": 36.3113636,
                "end_time": 36.5,
                "pitch": 29,
                "velocity": 80,
                "duration": 0.1886364,
                "tempo": 120.0
            },
            {
                "start_time": 36.5159091,
                "end_time": 36.6954545,
                "pitch": 29,
                "velocity": 80,
                "duration": 0.1795455,
                "tempo": 120.0
            },
            {
                "start_time": 36.7136364,
                "end_time": 36.8931818,
                "pitch": 29,
                "velocity": 80,
                "duration": 0.1795455,
                "tempo": 120.0
            },
            {
                "start_time": 36.9090909,
                "end_time": 37.0954545,
                "pitch": 29,
                "velocity": 80,
                "duration": 0.1863636,
                "tempo": 120.0
            },
            {
                "start_time": 37.1136364,
                "end_time": 37.3022727,
                "pitch": 29,
                "velocity": 80,
                "duration": 0.1886364,
                "tempo": 120.0
            },
            {
                "start_time": 37.3181818,
                "end_time": 37.4977273,
                "pitch": 29,
                "velocity": 80,
                "duration": 0.1795455,
                "tempo": 120.0
            },
            {
                "start_time": 37.5159091,
                "end_time": 37.6954545,
                "pitch": 29,
                "velocity": 80,
                "duration": 0.1795455,
                "tempo": 120.0
            },
            {
                "start_time": 37.7113636,
                "end_time": 37.9,
                "pitch": 36,
                "velocity": 80,
                "duration": 0.1886364,
                "tempo": 120.0
            },
            {
                "start_time": 37.9159091,
                "end_time": 38.1045455,
                "pitch": 36,
                "velocity": 80,
                "duration": 0.1886364,
                "tempo": 120.0
            },
            {
                "start_time": 38.1227273,
                "end_time": 38.3022727,
                "pitch": 35,
                "velocity": 80,
                "duration": 0.1795455,
                "tempo": 120.0
            },
            {
                "start_time": 38.3181818,
                "end_time": 38.4977273,
                "pitch": 36,
                "velocity": 80,
                "duration": 0.1795455,
                "tempo": 120.0
            },
            {
                "start_time": 38.5136364,
                "end_time": 38.7022727,
                "pitch": 37,
                "velocity": 80,
                "duration": 0.1886364,
                "tempo": 120.0
            },
            {
                "start_time": 38.7181818,
                "end_time": 38.9068182,
                "pitch": 38,
                "velocity": 80,
                "duration": 0.1886364,
                "tempo": 120.0
            },
            {
                "start_time": 38.925,
                "end_time": 39.1045455,
                "pitch": 39,
                "velocity": 80,
                "duration": 0.1795455,
                "tempo": 120.0
            },
            {
                "start_time": 39.1204545,
                "end_time": 39.3,
                "pitch": 40,
                "velocity": 80,
                "duration": 0.1795455,
                "tempo": 120.0
            },
            {
                "start_time": 39.3159091,
                "end_time": 39.5045455,
                "pitch": 33,
                "velocity": 80,
                "duration": 0.1886364,
                "tempo": 120.0
            },
            {
                "start_time": 39.5204545,
                "end_time": 39.7090909,
                "pitch": 33,
                "velocity": 80,
                "duration": 0.1886364,
                "tempo": 120.0
            },
            {
                "start_time": 39.7272727,
                "end_time": 39.9068182,
                "pitch": 33,
                "velocity": 80,
                "duration": 0.1795455,
                "tempo": 120.0
            },
            {
                "start_time": 39.9227273,
                "end_time": 40.1022727,
                "pitch": 33,
                "velocity": 80,
                "duration": 0.1795455,
                "tempo": 120.0
            },
            {
                "start_time": 40.1181818,
                "end_time": 40.3068182,
                "pitch": 33,
                "velocity": 80,
                "duration": 0.1886364,
                "tempo": 120.0
            },
            {
                "start_time": 40.325,
                "end_time": 40.5136364,
                "pitch": 33,
                "velocity": 80,
                "duration": 0.1886364,
                "tempo": 120.0
            },
            {
                "start_time": 40.5295455,
                "end_time": 40.7090909,
                "pitch": 33,
                "velocity": 80,
                "duration": 0.1795455,
                "tempo": 120.0
            },
            {
                "start_time": 40.725,
                "end_time": 40.9045455,
                "pitch": 33,
                "velocity": 80,
                "duration": 0.1795455,
                "tempo": 120.0
            },
            {
                "start_time": 40.9227273,
                "end_time": 41.1090909,
                "pitch": 33,
                "velocity": 80,
                "duration": 0.1863636,
                "tempo": 120.0
            },
            {
                "start_time": 41.1272727,
                "end_time": 41.3159091,
                "pitch": 33,
                "velocity": 80,
                "duration": 0.1886364,
                "tempo": 120.0
            },
            {
                "start_time": 41.3318182,
                "end_time": 41.5113636,
                "pitch": 33,
                "velocity": 80,
                "duration": 0.1795455,
                "tempo": 120.0
            },
            {
                "start_time": 41.5295455,
                "end_time": 41.9068182,
                "pitch": 36,
                "velocity": 80,
                "duration": 0.3772727,
                "tempo": 120.0
            },
            {
                "start_time": 41.925,
                "end_time": 42.1068182,
                "pitch": 36,
                "velocity": 80,
                "duration": 0.1818182,
                "tempo": 120.0
            },
            {
                "start_time": 42.125,
                "end_time": 42.3068182,
                "pitch": 35,
                "velocity": 80,
                "duration": 0.1818182,
                "tempo": 120.0
            },
            {
                "start_time": 42.325,
                "end_time": 42.5068182,
                "pitch": 35,
                "velocity": 80,
                "duration": 0.1818182,
                "tempo": 120.0
            },
            {
                "start_time": 42.525,
                "end_time": 42.7136364,
                "pitch": 33,
                "velocity": 80,
                "duration": 0.1886364,
                "tempo": 120.0
            },
            {
                "start_time": 42.7295455,
                "end_time": 42.9181818,
                "pitch": 33,
                "velocity": 80,
                "duration": 0.1886364,
                "tempo": 120.0
            },
            {
                "start_time": 42.9340909,
                "end_time": 43.1159091,
                "pitch": 33,
                "velocity": 80,
                "duration": 0.1818182,
                "tempo": 120.0
            },
            {
                "start_time": 43.1318182,
                "end_time": 43.3113636,
                "pitch": 33,
                "velocity": 80,
                "duration": 0.1795455,
                "tempo": 120.0
            },
            {
                "start_time": 43.3272727,
                "end_time": 43.5159091,
                "pitch": 33,
                "velocity": 80,
                "duration": 0.1886364,
                "tempo": 120.0
            },
            {
                "start_time": 43.5318182,
                "end_time": 43.7204545,
                "pitch": 33,
                "velocity": 80,
                "duration": 0.1886364,
                "tempo": 120.0
            },
            {
                "start_time": 43.7386364,
                "end_time": 43.9181818,
                "pitch": 33,
                "velocity": 80,
                "duration": 0.1795455,
                "tempo": 120.0
            },
            {
                "start_time": 43.9340909,
                "end_time": 44.1136364,
                "pitch": 33,
                "velocity": 80,
                "duration": 0.1795455,
                "tempo": 120.0
            },
            {
                "start_time": 44.1295455,
                "end_time": 44.3181818,
                "pitch": 33,
                "velocity": 80,
                "duration": 0.1886364,
                "tempo": 120.0
            },
            {
                "start_time": 44.3340909,
                "end_time": 44.5227273,
                "pitch": 33,
                "velocity": 80,
                "duration": 0.1886364,
                "tempo": 120.0
            },
            {
                "start_time": 44.5409091,
                "end_time": 44.7204545,
                "pitch": 33,
                "velocity": 80,
                "duration": 0.1795455,
                "tempo": 120.0
            },
            {
                "start_time": 44.7363636,
                "end_time": 45.1159091,
                "pitch": 38,
                "velocity": 80,
                "duration": 0.3795455,
                "tempo": 120.0
            },
            {
                "start_time": 45.1318182,
                "end_time": 45.3159091,
                "pitch": 38,
                "velocity": 80,
                "duration": 0.1840909,
                "tempo": 120.0
            },
            {
                "start_time": 45.3318182,
                "end_time": 45.5181818,
                "pitch": 40,
                "velocity": 80,
                "duration": 0.1863636,
                "tempo": 120.0
            },
            {
                "start_time": 45.5340909,
                "end_time": 45.7181818,
                "pitch": 40,
                "velocity": 80,
                "duration": 0.1840909,
                "tempo": 120.0
            },
            {
                "start_time": 45.7363636,
                "end_time": 45.9227273,
                "pitch": 33,
                "velocity": 80,
                "duration": 0.1863636,
                "tempo": 120.0
            },
            {
                "start_time": 45.9409091,
                "end_time": 46.1295455,
                "pitch": 33,
                "velocity": 80,
                "duration": 0.1886364,
                "tempo": 120.0
            },
            {
                "start_time": 46.1454545,
                "end_time": 46.325,
                "pitch": 33,
                "velocity": 80,
                "duration": 0.1795455,
                "tempo": 120.0
            },
            {
                "start_time": 46.3431818,
                "end_time": 46.5227273,
                "pitch": 33,
                "velocity": 80,
                "duration": 0.1795455,
                "tempo": 120.0
            },
            {
                "start_time": 46.5386364,
                "end_time": 46.725,
                "pitch": 33,
                "velocity": 80,
                "duration": 0.1863636,
                "tempo": 120.0
            },
            {
                "start_time": 46.7431818,
                "end_time": 46.9318182,
                "pitch": 33,
                "velocity": 80,
                "duration": 0.1886364,
                "tempo": 120.0
            },
            {
                "start_time": 46.9477273,
                "end_time": 47.1295455,
                "pitch": 33,
                "velocity": 80,
                "duration": 0.1818182,
                "tempo": 120.0
            },
            {
                "start_time": 47.1454545,
                "end_time": 47.325,
                "pitch": 33,
                "velocity": 80,
                "duration": 0.1795455,
                "tempo": 120.0
            },
            {
                "start_time": 47.3409091,
                "end_time": 47.5295455,
                "pitch": 33,
                "velocity": 80,
                "duration": 0.1886364,
                "tempo": 120.0
            },
            {
                "start_time": 47.5454545,
                "end_time": 47.7340909,
                "pitch": 33,
                "velocity": 80,
                "duration": 0.1886364,
                "tempo": 120.0
            },
            {
                "start_time": 47.7522727,
                "end_time": 47.9318182,
                "pitch": 33,
                "velocity": 80,
                "duration": 0.1795455,
                "tempo": 120.0
            },
            {
                "start_time": 47.9477273,
                "end_time": 48.3272727,
                "pitch": 36,
                "velocity": 80,
                "duration": 0.3795455,
                "tempo": 120.0
            },
            {
                "start_time": 48.3431818,
                "end_time": 48.5272727,
                "pitch": 36,
                "velocity": 80,
                "duration": 0.1840909,
                "tempo": 120.0
            },
            {
                "start_time": 48.5431818,
                "end_time": 48.7272727,
                "pitch": 35,
                "velocity": 80,
                "duration": 0.1840909,
                "tempo": 120.0
            },
            {
                "start_time": 48.7431818,
                "end_time": 48.9272727,
                "pitch": 35,
                "velocity": 80,
                "duration": 0.1840909,
                "tempo": 120.0
            },
            {
                "start_time": 48.9431818,
                "end_time": 49.1318182,
                "pitch": 33,
                "velocity": 80,
                "duration": 0.1886364,
                "tempo": 120.0
            },
            {
                "start_time": 49.1477273,
                "end_time": 49.3363636,
                "pitch": 33,
                "velocity": 80,
                "duration": 0.1886364,
                "tempo": 120.0
            },
            {
                "start_time": 49.3545455,
                "end_time": 49.5340909,
                "pitch": 33,
                "velocity": 80,
                "duration": 0.1795455,
                "tempo": 120.0
            },
            {
                "start_time": 49.55,
                "end_time": 49.7295455,
                "pitch": 33,
                "velocity": 80,
                "duration": 0.1795455,
                "tempo": 120.0
            },
            {
                "start_time": 49.7454545,
                "end_time": 49.9340909,
                "pitch": 33,
                "velocity": 80,
                "duration": 0.1886364,
                "tempo": 120.0
            },
            {
                "start_time": 49.9522727,
                "end_time": 50.1386364,
                "pitch": 33,
                "velocity": 80,
                "duration": 0.1863636,
                "tempo": 120.0
            },
            {
                "start_time": 50.1568182,
                "end_time": 50.3363636,
                "pitch": 33,
                "velocity": 80,
                "duration": 0.1795455,
                "tempo": 120.0
            },
            {
                "start_time": 50.3522727,
                "end_time": 50.5318182,
                "pitch": 33,
                "velocity": 80,
                "duration": 0.1795455,
                "tempo": 120.0
            },
            {
                "start_time": 50.55,
                "end_time": 50.7363636,
                "pitch": 33,
                "velocity": 80,
                "duration": 0.1863636,
                "tempo": 120.0
            },
            {
                "start_time": 50.7545455,
                "end_time": 50.9431818,
                "pitch": 33,
                "velocity": 80,
                "duration": 0.1886364,
                "tempo": 120.0
            },
            {
                "start_time": 50.9590909,
                "end_time": 51.1431818,
                "pitch": 33,
                "velocity": 80,
                "duration": 0.1840909,
                "tempo": 120.0
            },
            {
                "start_time": 51.1613636,
                "end_time": 51.3454545,
                "pitch": 36,
                "velocity": 80,
                "duration": 0.1840909,
                "tempo": 120.0
            },
            {
                "start_time": 51.3613636,
                "end_time": 51.5431818,
                "pitch": 38,
                "velocity": 80,
                "duration": 0.1818182,
                "tempo": 120.0
            },
            {
                "start_time": 51.5590909,
                "end_time": 51.7386364,
                "pitch": 40,
                "velocity": 80,
                "duration": 0.1795455,
                "tempo": 120.0
            },
            {
                "start_time": 51.7545455,
                "end_time": 51.9386364,
                "pitch": 43,
                "velocity": 80,
                "duration": 0.1840909,
                "tempo": 120.0
            },
            {
                "start_time": 51.9545455,
                "end_time": 52.1386364,
                "pitch": 45,
                "velocity": 80,
                "duration": 0.1840909,
                "tempo": 120.0
            },
            {
                "start_time": 52.1545455,
                "end_time": 52.3431818,
                "pitch": 33,
                "velocity": 80,
                "duration": 0.1886364,
                "tempo": 120.0
            },
            {
                "start_time": 52.3590909,
                "end_time": 52.5477273,
                "pitch": 33,
                "velocity": 80,
                "duration": 0.1886364,
                "tempo": 120.0
            },
            {
                "start_time": 52.5659091,
                "end_time": 52.7454545,
                "pitch": 33,
                "velocity": 80,
                "duration": 0.1795455,
                "tempo": 120.0
            },
            {
                "start_time": 52.7613636,
                "end_time": 52.9409091,
                "pitch": 33,
                "velocity": 80,
                "duration": 0.1795455,
                "tempo": 120.0
            },
            {
                "start_time": 52.9568182,
                "end_time": 53.1454545,
                "pitch": 33,
                "velocity": 80,
                "duration": 0.1886364,
                "tempo": 120.0
            },
            {
                "start_time": 53.1613636,
                "end_time": 53.35,
                "pitch": 33,
                "velocity": 80,
                "duration": 0.1886364,
                "tempo": 120.0
            },
            {
                "start_time": 53.3681818,
                "end_time": 53.5477273,
                "pitch": 33,
                "velocity": 80,
                "duration": 0.1795455,
                "tempo": 120.0
            },
            {
                "start_time": 53.5636364,
                "end_time": 53.7431818,
                "pitch": 33,
                "velocity": 80,
                "duration": 0.1795455,
                "tempo": 120.0
            },
            {
                "start_time": 53.7590909,
                "end_time": 53.9477273,
                "pitch": 33,
                "velocity": 80,
                "duration": 0.1886364,
                "tempo": 120.0
            },
            {
                "start_time": 53.9659091,
                "end_time": 54.1522727,
                "pitch": 33,
                "velocity": 80,
                "duration": 0.1863636,
                "tempo": 120.0
            },
            {
                "start_time": 54.1704545,
                "end_time": 54.35,
                "pitch": 33,
                "velocity": 80,
                "duration": 0.1795455,
                "tempo": 120.0
            },
            {
                "start_time": 54.3659091,
                "end_time": 54.7454545,
                "pitch": 36,
                "velocity": 80,
                "duration": 0.3795455,
                "tempo": 120.0
            },
            {
                "start_time": 54.7636364,
                "end_time": 54.9454545,
                "pitch": 36,
                "velocity": 80,
                "duration": 0.1818182,
                "tempo": 120.0
            },
            {
                "start_time": 54.9636364,
                "end_time": 55.1454545,
                "pitch": 35,
                "velocity": 80,
                "duration": 0.1818182,
                "tempo": 120.0
            },
            {
                "start_time": 55.1636364,
                "end_time": 55.3454545,
                "pitch": 35,
                "velocity": 80,
                "duration": 0.1818182,
                "tempo": 120.0
            },
            {
                "start_time": 55.3636364,
                "end_time": 55.55,
                "pitch": 33,
                "velocity": 80,
                "duration": 0.1863636,
                "tempo": 120.0
            },
            {
                "start_time": 55.5681818,
                "end_time": 55.7568182,
                "pitch": 33,
                "velocity": 80,
                "duration": 0.1886364,
                "tempo": 120.0
            },
            {
                "start_time": 55.7727273,
                "end_time": 55.9522727,
                "pitch": 33,
                "velocity": 80,
                "duration": 0.1795455,
                "tempo": 120.0
            },
            {
                "start_time": 55.9704545,
                "end_time": 56.15,
                "pitch": 33,
                "velocity": 80,
                "duration": 0.1795455,
                "tempo": 120.0
            },
            {
                "start_time": 56.1659091,
                "end_time": 56.3545455,
                "pitch": 33,
                "velocity": 80,
                "duration": 0.1886364,
                "tempo": 120.0
            },
            {
                "start_time": 56.3704545,
                "end_time": 56.5590909,
                "pitch": 33,
                "velocity": 80,
                "duration": 0.1886364,
                "tempo": 120.0
            },
            {
                "start_time": 56.575,
                "end_time": 56.7568182,
                "pitch": 33,
                "velocity": 80,
                "duration": 0.1818182,
                "tempo": 120.0
            },
            {
                "start_time": 56.7727273,
                "end_time": 56.9522727,
                "pitch": 33,
                "velocity": 80,
                "duration": 0.1795455,
                "tempo": 120.0
            },
            {
                "start_time": 56.9681818,
                "end_time": 57.1568182,
                "pitch": 33,
                "velocity": 80,
                "duration": 0.1886364,
                "tempo": 120.0
            },
            {
                "start_time": 57.1727273,
                "end_time": 57.3613636,
                "pitch": 33,
                "velocity": 80,
                "duration": 0.1886364,
                "tempo": 120.0
            },
            {
                "start_time": 57.3795455,
                "end_time": 57.5590909,
                "pitch": 33,
                "velocity": 80,
                "duration": 0.1795455,
                "tempo": 120.0
            },
            {
                "start_time": 57.575,
                "end_time": 57.9545455,
                "pitch": 38,
                "velocity": 80,
                "duration": 0.3795455,
                "tempo": 120.0
            },
            {
                "start_time": 57.9704545,
                "end_time": 58.1545455,
                "pitch": 38,
                "velocity": 80,
                "duration": 0.1840909,
                "tempo": 120.0
            },
            {
                "start_time": 58.1704545,
                "end_time": 58.3545455,
                "pitch": 40,
                "velocity": 80,
                "duration": 0.1840909,
                "tempo": 120.0
            },
            {
                "start_time": 58.3704545,
                "end_time": 58.5545455,
                "pitch": 40,
                "velocity": 80,
                "duration": 0.1840909,
                "tempo": 120.0
            },
            {
                "start_time": 58.5704545,
                "end_time": 58.7590909,
                "pitch": 33,
                "velocity": 80,
                "duration": 0.1886364,
                "tempo": 120.0
            },
            {
                "start_time": 58.775,
                "end_time": 58.9636364,
                "pitch": 33,
                "velocity": 80,
                "duration": 0.1886364,
                "tempo": 120.0
            },
            {
                "start_time": 58.9818182,
                "end_time": 59.1613636,
                "pitch": 33,
                "velocity": 80,
                "duration": 0.1795455,
                "tempo": 120.0
            },
            {
                "start_time": 59.1772727,
                "end_time": 59.3568182,
                "pitch": 33,
                "velocity": 80,
                "duration": 0.1795455,
                "tempo": 120.0
            },
            {
                "start_time": 59.3727273,
                "end_time": 59.5613636,
                "pitch": 33,
                "velocity": 80,
                "duration": 0.1886364,
                "tempo": 120.0
            },
            {
                "start_time": 59.5795455,
                "end_time": 59.7659091,
                "pitch": 33,
                "velocity": 80,
                "duration": 0.1863636,
                "tempo": 120.0
            },
            {
                "start_time": 59.7840909,
                "end_time": 59.9636364,
                "pitch": 33,
                "velocity": 80,
                "duration": 0.1795455,
                "tempo": 120.0
            },
            {
                "start_time": 59.9795455,
                "end_time": 60.1590909,
                "pitch": 33,
                "velocity": 80,
                "duration": 0.1795455,
                "tempo": 120.0
            },
            {
                "start_time": 60.1772727,
                "end_time": 60.3636364,
                "pitch": 33,
                "velocity": 80,
                "duration": 0.1863636,
                "tempo": 120.0
            },
            {
                "start_time": 60.3818182,
                "end_time": 60.5704545,
                "pitch": 33,
                "velocity": 80,
                "duration": 0.1886364,
                "tempo": 120.0
            },
            {
                "start_time": 60.5863636,
                "end_time": 60.7659091,
                "pitch": 33,
                "velocity": 80,
                "duration": 0.1795455,
                "tempo": 120.0
            },
            {
                "start_time": 60.7818182,
                "end_time": 61.1613636,
                "pitch": 36,
                "velocity": 80,
                "duration": 0.3795455,
                "tempo": 120.0
            },
            {
                "start_time": 61.1795455,
                "end_time": 61.3613636,
                "pitch": 36,
                "velocity": 80,
                "duration": 0.1818182,
                "tempo": 120.0
            },
            {
                "start_time": 61.3795455,
                "end_time": 61.5636364,
                "pitch": 35,
                "velocity": 80,
                "duration": 0.1840909,
                "tempo": 120.0
            },
            {
                "start_time": 61.5795455,
                "end_time": 61.7659091,
                "pitch": 35,
                "velocity": 80,
                "duration": 0.1863636,
                "tempo": 120.0
            },
            {
                "start_time": 61.7818182,
                "end_time": 61.9704545,
                "pitch": 33,
                "velocity": 80,
                "duration": 0.1886364,
                "tempo": 120.0
            },
            {
                "start_time": 61.9863636,
                "end_time": 62.175,
                "pitch": 33,
                "velocity": 80,
                "duration": 0.1886364,
                "tempo": 120.0
            },
            {
                "start_time": 62.1931818,
                "end_time": 62.3727273,
                "pitch": 33,
                "velocity": 80,
                "duration": 0.1795455,
                "tempo": 120.0
            },
            {
                "start_time": 62.3886364,
                "end_time": 62.5681818,
                "pitch": 33,
                "velocity": 80,
                "duration": 0.1795455,
                "tempo": 120.0
            },
            {
                "start_time": 62.5840909,
                "end_time": 62.7727273,
                "pitch": 33,
                "velocity": 80,
                "duration": 0.1886364,
                "tempo": 120.0
            },
            {
                "start_time": 62.7886364,
                "end_time": 62.9772727,
                "pitch": 33,
                "velocity": 80,
                "duration": 0.1886364,
                "tempo": 120.0
            },
            {
                "start_time": 62.9954545,
                "end_time": 63.175,
                "pitch": 33,
                "velocity": 80,
                "duration": 0.1795455,
                "tempo": 120.0
            },
            {
                "start_time": 63.1909091,
                "end_time": 63.3704545,
                "pitch": 33,
                "velocity": 80,
                "duration": 0.1795455,
                "tempo": 120.0
            },
            {
                "start_time": 63.3863636,
                "end_time": 63.575,
                "pitch": 33,
                "velocity": 80,
                "duration": 0.1886364,
                "tempo": 120.0
            },
            {
                "start_time": 63.5931818,
                "end_time": 63.7795455,
                "pitch": 33,
                "velocity": 80,
                "duration": 0.1863636,
                "tempo": 120.0
            },
            {
                "start_time": 63.7977273,
                "end_time": 63.9818182,
                "pitch": 33,
                "velocity": 80,
                "duration": 0.1840909,
                "tempo": 120.0
            },
            {
                "start_time": 63.9977273,
                "end_time": 64.1818182,
                "pitch": 36,
                "velocity": 80,
                "duration": 0.1840909,
                "tempo": 120.0
            },
            {
                "start_time": 64.1977273,
                "end_time": 64.3818182,
                "pitch": 38,
                "velocity": 80,
                "duration": 0.1840909,
                "tempo": 120.0
            },
            {
                "start_time": 64.4,
                "end_time": 64.5840909,
                "pitch": 40,
                "velocity": 80,
                "duration": 0.1840909,
                "tempo": 120.0
            },
            {
                "start_time": 64.6,
                "end_time": 64.7795455,
                "pitch": 43,
                "velocity": 80,
                "duration": 0.1795455,
                "tempo": 120.0
            },
            {
                "start_time": 64.7977273,
                "end_time": 64.9772727,
                "pitch": 45,
                "velocity": 80,
                "duration": 0.1795455,
                "tempo": 120.0
            },
            {
                "start_time": 64.9931818,
                "end_time": 65.1795455,
                "pitch": 29,
                "velocity": 80,
                "duration": 0.1863636,
                "tempo": 120.0
            },
            {
                "start_time": 65.1977273,
                "end_time": 65.3863636,
                "pitch": 29,
                "velocity": 80,
                "duration": 0.1886364,
                "tempo": 120.0
            },
            {
                "start_time": 65.4022727,
                "end_time": 65.5840909,
                "pitch": 29,
                "velocity": 80,
                "duration": 0.1818182,
                "tempo": 120.0
            },
            {
                "start_time": 65.6,
                "end_time": 65.7795455,
                "pitch": 29,
                "velocity": 80,
                "duration": 0.1795455,
                "tempo": 120.0
            },
            {
                "start_time": 65.7954545,
                "end_time": 65.9840909,
                "pitch": 29,
                "velocity": 80,
                "duration": 0.1886364,
                "tempo": 120.0
            },
            {
                "start_time": 66.0,
                "end_time": 66.1886364,
                "pitch": 29,
                "velocity": 80,
                "duration": 0.1886364,
                "tempo": 120.0
            },
            {
                "start_time": 66.2068182,
                "end_time": 66.3863636,
                "pitch": 29,
                "velocity": 80,
                "duration": 0.1795455,
                "tempo": 120.0
            },
            {
                "start_time": 66.4022727,
                "end_time": 66.5818182,
                "pitch": 29,
                "velocity": 80,
                "duration": 0.1795455,
                "tempo": 120.0
            },
            {
                "start_time": 66.5977273,
                "end_time": 66.7863636,
                "pitch": 29,
                "velocity": 80,
                "duration": 0.1886364,
                "tempo": 120.0
            },
            {
                "start_time": 66.8022727,
                "end_time": 66.9909091,
                "pitch": 29,
                "velocity": 80,
                "duration": 0.1886364,
                "tempo": 120.0
            },
            {
                "start_time": 67.0090909,
                "end_time": 67.1886364,
                "pitch": 29,
                "velocity": 80,
                "duration": 0.1795455,
                "tempo": 120.0
            },
            {
                "start_time": 67.2045455,
                "end_time": 67.3840909,
                "pitch": 29,
                "velocity": 80,
                "duration": 0.1795455,
                "tempo": 120.0
            },
            {
                "start_time": 67.4,
                "end_time": 67.5886364,
                "pitch": 29,
                "velocity": 80,
                "duration": 0.1886364,
                "tempo": 120.0
            },
            {
                "start_time": 67.6045455,
                "end_time": 67.7931818,
                "pitch": 29,
                "velocity": 80,
                "duration": 0.1886364,
                "tempo": 120.0
            },
            {
                "start_time": 67.8113636,
                "end_time": 67.9909091,
                "pitch": 29,
                "velocity": 80,
                "duration": 0.1795455,
                "tempo": 120.0
            },
            {
                "start_time": 68.0068182,
                "end_time": 68.1863636,
                "pitch": 29,
                "velocity": 80,
                "duration": 0.1795455,
                "tempo": 120.0
            },
            {
                "start_time": 68.2022727,
                "end_time": 68.3909091,
                "pitch": 29,
                "velocity": 80,
                "duration": 0.1886364,
                "tempo": 120.0
            },
            {
                "start_time": 68.4090909,
                "end_time": 68.5977273,
                "pitch": 29,
                "velocity": 80,
                "duration": 0.1886364,
                "tempo": 120.0
            },
            {
                "start_time": 68.6136364,
                "end_time": 68.7931818,
                "pitch": 29,
                "velocity": 80,
                "duration": 0.1795455,
                "tempo": 120.0
            },
            {
                "start_time": 68.8090909,
                "end_time": 68.9886364,
                "pitch": 29,
                "velocity": 80,
                "duration": 0.1795455,
                "tempo": 120.0
            },
            {
                "start_time": 69.0068182,
                "end_time": 69.1931818,
                "pitch": 29,
                "velocity": 80,
                "duration": 0.1863636,
                "tempo": 120.0
            },
            {
                "start_time": 69.2113636,
                "end_time": 69.4,
                "pitch": 29,
                "velocity": 80,
                "duration": 0.1886364,
                "tempo": 120.0
            },
            {
                "start_time": 69.4159091,
                "end_time": 69.5954545,
                "pitch": 29,
                "velocity": 80,
                "duration": 0.1795455,
                "tempo": 120.0
            },
            {
                "start_time": 69.6136364,
                "end_time": 69.7931818,
                "pitch": 29,
                "velocity": 80,
                "duration": 0.1795455,
                "tempo": 120.0
            },
            {
                "start_time": 69.8090909,
                "end_time": 69.9954545,
                "pitch": 29,
                "velocity": 80,
                "duration": 0.1863636,
                "tempo": 120.0
            },
            {
                "start_time": 70.0136364,
                "end_time": 70.2022727,
                "pitch": 29,
                "velocity": 80,
                "duration": 0.1886364,
                "tempo": 120.0
            },
            {
                "start_time": 70.2181818,
                "end_time": 70.3977273,
                "pitch": 29,
                "velocity": 80,
                "duration": 0.1795455,
                "tempo": 120.0
            },
            {
                "start_time": 70.4159091,
                "end_time": 70.5954545,
                "pitch": 29,
                "velocity": 80,
                "duration": 0.1795455,
                "tempo": 120.0
            },
            {
                "start_time": 70.6113636,
                "end_time": 70.8,
                "pitch": 29,
                "velocity": 80,
                "duration": 0.1886364,
                "tempo": 120.0
            },
            {
                "start_time": 70.8159091,
                "end_time": 71.0045455,
                "pitch": 29,
                "velocity": 80,
                "duration": 0.1886364,
                "tempo": 120.0
            },
            {
                "start_time": 71.0227273,
                "end_time": 71.2022727,
                "pitch": 29,
                "velocity": 80,
                "duration": 0.1795455,
                "tempo": 120.0
            },
            {
                "start_time": 71.2181818,
                "end_time": 71.3977273,
                "pitch": 29,
                "velocity": 80,
                "duration": 0.1795455,
                "tempo": 120.0
            },
            {
                "start_time": 71.4136364,
                "end_time": 71.6022727,
                "pitch": 29,
                "velocity": 80,
                "duration": 0.1886364,
                "tempo": 120.0
            },
            {
                "start_time": 71.6181818,
                "end_time": 71.8068182,
                "pitch": 29,
                "velocity": 80,
                "duration": 0.1886364,
                "tempo": 120.0
            },
            {
                "start_time": 71.825,
                "end_time": 72.0045455,
                "pitch": 29,
                "velocity": 80,
                "duration": 0.1795455,
                "tempo": 120.0
            },
            {
                "start_time": 72.0204545,
                "end_time": 72.2,
                "pitch": 29,
                "velocity": 80,
                "duration": 0.1795455,
                "tempo": 120.0
            },
            {
                "start_time": 72.2159091,
                "end_time": 72.4045455,
                "pitch": 29,
                "velocity": 80,
                "duration": 0.1886364,
                "tempo": 120.0
            },
            {
                "start_time": 72.4204545,
                "end_time": 72.6090909,
                "pitch": 29,
                "velocity": 80,
                "duration": 0.1886364,
                "tempo": 120.0
            },
            {
                "start_time": 72.6272727,
                "end_time": 72.8068182,
                "pitch": 29,
                "velocity": 80,
                "duration": 0.1795455,
                "tempo": 120.0
            },
            {
                "start_time": 72.8227273,
                "end_time": 73.0022727,
                "pitch": 29,
                "velocity": 80,
                "duration": 0.1795455,
                "tempo": 120.0
            },
            {
                "start_time": 73.0181818,
                "end_time": 73.2068182,
                "pitch": 29,
                "velocity": 80,
                "duration": 0.1886364,
                "tempo": 120.0
            },
            {
                "start_time": 73.225,
                "end_time": 73.4136364,
                "pitch": 29,
                "velocity": 80,
                "duration": 0.1886364,
                "tempo": 120.0
            },
            {
                "start_time": 73.4295455,
                "end_time": 73.6090909,
                "pitch": 29,
                "velocity": 80,
                "duration": 0.1795455,
                "tempo": 120.0
            },
            {
                "start_time": 73.625,
                "end_time": 73.8045455,
                "pitch": 29,
                "velocity": 80,
                "duration": 0.1795455,
                "tempo": 120.0
            },
            {
                "start_time": 73.8227273,
                "end_time": 74.0090909,
                "pitch": 29,
                "velocity": 80,
                "duration": 0.1863636,
                "tempo": 120.0
            },
            {
                "start_time": 74.0272727,
                "end_time": 74.2159091,
                "pitch": 29,
                "velocity": 80,
                "duration": 0.1886364,
                "tempo": 120.0
            },
            {
                "start_time": 74.2318182,
                "end_time": 74.4113636,
                "pitch": 29,
                "velocity": 80,
                "duration": 0.1795455,
                "tempo": 120.0
            },
            {
                "start_time": 74.4272727,
                "end_time": 74.6090909,
                "pitch": 29,
                "velocity": 80,
                "duration": 0.1818182,
                "tempo": 120.0
            },
            {
                "start_time": 74.625,
                "end_time": 74.8113636,
                "pitch": 29,
                "velocity": 80,
                "duration": 0.1863636,
                "tempo": 120.0
            },
            {
                "start_time": 74.8295455,
                "end_time": 75.0181818,
                "pitch": 29,
                "velocity": 80,
                "duration": 0.1886364,
                "tempo": 120.0
            },
            {
                "start_time": 75.0340909,
                "end_time": 75.2136364,
                "pitch": 29,
                "velocity": 80,
                "duration": 0.1795455,
                "tempo": 120.0
            },
            {
                "start_time": 75.2318182,
                "end_time": 75.4113636,
                "pitch": 29,
                "velocity": 80,
                "duration": 0.1795455,
                "tempo": 120.0
            },
            {
                "start_time": 75.4272727,
                "end_time": 75.6159091,
                "pitch": 29,
                "velocity": 80,
                "duration": 0.1886364,
                "tempo": 120.0
            },
            {
                "start_time": 75.6318182,
                "end_time": 75.8204545,
                "pitch": 29,
                "velocity": 80,
                "duration": 0.1886364,
                "tempo": 120.0
            },
            {
                "start_time": 75.8386364,
                "end_time": 76.0181818,
                "pitch": 29,
                "velocity": 80,
                "duration": 0.1795455,
                "tempo": 120.0
            },
            {
                "start_time": 76.0340909,
                "end_time": 76.2136364,
                "pitch": 29,
                "velocity": 80,
                "duration": 0.1795455,
                "tempo": 120.0
            },
            {
                "start_time": 76.2295455,
                "end_time": 76.4227273,
                "pitch": 31,
                "velocity": 80,
                "duration": 0.1931818,
                "tempo": 120.0
            },
            {
                "start_time": 76.4386364,
                "end_time": 76.6340909,
                "pitch": 31,
                "velocity": 80,
                "duration": 0.1954545,
                "tempo": 120.0
            },
            {
                "start_time": 76.65,
                "end_time": 76.8318182,
                "pitch": 32,
                "velocity": 80,
                "duration": 0.1818182,
                "tempo": 120.0
            },
            {
                "start_time": 76.8477273,
                "end_time": 77.0272727,
                "pitch": 32,
                "velocity": 80,
                "duration": 0.1795455,
                "tempo": 120.0
            },
            {
                "start_time": 77.0431818,
                "end_time": 77.2272727,
                "pitch": 33,
                "velocity": 80,
                "duration": 0.1840909,
                "tempo": 120.0
            },
            {
                "start_time": 77.2454545,
                "end_time": 77.4295455,
                "pitch": 33,
                "velocity": 80,
                "duration": 0.1840909,
                "tempo": 120.0
            },
            {
                "start_time": 77.4454545,
                "end_time": 77.6340909,
                "pitch": 34,
                "velocity": 80,
                "duration": 0.1886364,
                "tempo": 120.0
            },
            {
                "start_time": 77.6522727,
                "end_time": 77.8386364,
                "pitch": 34,
                "velocity": 80,
                "duration": 0.1863636,
                "tempo": 120.0
            },
            {
                "start_time": 77.8568182,
                "end_time": 78.0409091,
                "pitch": 36,
                "velocity": 80,
                "duration": 0.1840909,
                "tempo": 120.0
            },
            {
                "start_time": 78.0590909,
                "end_time": 78.2431818,
                "pitch": 36,
                "velocity": 80,
                "duration": 0.1840909,
                "tempo": 120.0
            },
            {
                "start_time": 78.2590909,
                "end_time": 78.4340909,
                "pitch": 36,
                "velocity": 80,
                "duration": 0.175,
                "tempo": 120.0
            },
            {
                "start_time": 78.45,
                "end_time": 78.625,
                "pitch": 36,
                "velocity": 80,
                "duration": 0.175,
                "tempo": 120.0
            },
            {
                "start_time": 78.6409091,
                "end_time": 78.8295455,
                "pitch": 36,
                "velocity": 80,
                "duration": 0.1886364,
                "tempo": 120.0
            },
            {
                "start_time": 78.8477273,
                "end_time": 79.0340909,
                "pitch": 36,
                "velocity": 80,
                "duration": 0.1863636,
                "tempo": 120.0
            },
            {
                "start_time": 79.0522727,
                "end_time": 79.2318182,
                "pitch": 36,
                "velocity": 80,
                "duration": 0.1795455,
                "tempo": 120.0
            },
            {
                "start_time": 79.2477273,
                "end_time": 79.4272727,
                "pitch": 36,
                "velocity": 80,
                "duration": 0.1795455,
                "tempo": 120.0
            },
            {
                "start_time": 79.4454545,
                "end_time": 79.6318182,
                "pitch": 36,
                "velocity": 80,
                "duration": 0.1863636,
                "tempo": 120.0
            },
            {
                "start_time": 79.65,
                "end_time": 79.8386364,
                "pitch": 36,
                "velocity": 80,
                "duration": 0.1886364,
                "tempo": 120.0
            },
            {
                "start_time": 79.8545455,
                "end_time": 80.0340909,
                "pitch": 36,
                "velocity": 80,
                "duration": 0.1795455,
                "tempo": 120.0
            },
            {
                "start_time": 80.05,
                "end_time": 80.2295455,
                "pitch": 36,
                "velocity": 80,
                "duration": 0.1795455,
                "tempo": 120.0
            },
            {
                "start_time": 80.2477273,
                "end_time": 80.4340909,
                "pitch": 36,
                "velocity": 80,
                "duration": 0.1863636,
                "tempo": 120.0
            },
            {
                "start_time": 80.4522727,
                "end_time": 80.6409091,
                "pitch": 36,
                "velocity": 80,
                "duration": 0.1886364,
                "tempo": 120.0
            },
            {
                "start_time": 80.6568182,
                "end_time": 80.8363636,
                "pitch": 36,
                "velocity": 80,
                "duration": 0.1795455,
                "tempo": 120.0
            },
            {
                "start_time": 80.8545455,
                "end_time": 81.0340909,
                "pitch": 36,
                "velocity": 80,
                "duration": 0.1795455,
                "tempo": 120.0
            },
            {
                "start_time": 81.05,
                "end_time": 81.2386364,
                "pitch": 34,
                "velocity": 80,
                "duration": 0.1886364,
                "tempo": 120.0
            },
            {
                "start_time": 81.2545455,
                "end_time": 81.4431818,
                "pitch": 34,
                "velocity": 80,
                "duration": 0.1886364,
                "tempo": 120.0
            },
            {
                "start_time": 81.4590909,
                "end_time": 81.6409091,
                "pitch": 34,
                "velocity": 80,
                "duration": 0.1818182,
                "tempo": 120.0
            },
            {
                "start_time": 81.6568182,
                "end_time": 81.8363636,
                "pitch": 34,
                "velocity": 80,
                "duration": 0.1795455,
                "tempo": 120.0
            },
            {
                "start_time": 81.8522727,
                "end_time": 82.0409091,
                "pitch": 34,
                "velocity": 80,
                "duration": 0.1886364,
                "tempo": 120.0
            },
            {
                "start_time": 82.0568182,
                "end_time": 82.2454545,
                "pitch": 34,
                "velocity": 80,
                "duration": 0.1886364,
                "tempo": 120.0
            },
            {
                "start_time": 82.2636364,
                "end_time": 82.4431818,
                "pitch": 34,
                "velocity": 80,
                "duration": 0.1795455,
                "tempo": 120.0
            },
            {
                "start_time": 82.4590909,
                "end_time": 82.6386364,
                "pitch": 34,
                "velocity": 80,
                "duration": 0.1795455,
                "tempo": 120.0
            },
            {
                "start_time": 82.6545455,
                "end_time": 82.8431818,
                "pitch": 34,
                "velocity": 80,
                "duration": 0.1886364,
                "tempo": 120.0
            },
            {
                "start_time": 82.8590909,
                "end_time": 83.0477273,
                "pitch": 34,
                "velocity": 80,
                "duration": 0.1886364,
                "tempo": 120.0
            },
            {
                "start_time": 83.0659091,
                "end_time": 83.2454545,
                "pitch": 34,
                "velocity": 80,
                "duration": 0.1795455,
                "tempo": 120.0
            },
            {
                "start_time": 83.2613636,
                "end_time": 83.4409091,
                "pitch": 34,
                "velocity": 80,
                "duration": 0.1795455,
                "tempo": 120.0
            },
            {
                "start_time": 83.4568182,
                "end_time": 83.6454545,
                "pitch": 34,
                "velocity": 80,
                "duration": 0.1886364,
                "tempo": 120.0
            },
            {
                "start_time": 83.6636364,
                "end_time": 83.85,
                "pitch": 34,
                "velocity": 80,
                "duration": 0.1863636,
                "tempo": 120.0
            },
            {
                "start_time": 83.8681818,
                "end_time": 84.0477273,
                "pitch": 34,
                "velocity": 80,
                "duration": 0.1795455,
                "tempo": 120.0
            },
            {
                "start_time": 84.0636364,
                "end_time": 84.2431818,
                "pitch": 34,
                "velocity": 80,
                "duration": 0.1795455,
                "tempo": 120.0
            },
            {
                "start_time": 84.2590909,
                "end_time": 84.4477273,
                "pitch": 32,
                "velocity": 80,
                "duration": 0.1886364,
                "tempo": 120.0
            },
            {
                "start_time": 84.4659091,
                "end_time": 84.6545455,
                "pitch": 32,
                "velocity": 80,
                "duration": 0.1886364,
                "tempo": 120.0
            },
            {
                "start_time": 84.6704545,
                "end_time": 84.85,
                "pitch": 32,
                "velocity": 80,
                "duration": 0.1795455,
                "tempo": 120.0
            },
            {
                "start_time": 84.8659091,
                "end_time": 85.0454545,
                "pitch": 32,
                "velocity": 80,
                "duration": 0.1795455,
                "tempo": 120.0
            },
            {
                "start_time": 85.0636364,
                "end_time": 85.25,
                "pitch": 32,
                "velocity": 80,
                "duration": 0.1863636,
                "tempo": 120.0
            },
            {
                "start_time": 85.2681818,
                "end_time": 85.4568182,
                "pitch": 32,
                "velocity": 80,
                "duration": 0.1886364,
                "tempo": 120.0
            },
            {
                "start_time": 85.4727273,
                "end_time": 85.6522727,
                "pitch": 32,
                "velocity": 80,
                "duration": 0.1795455,
                "tempo": 120.0
            },
            {
                "start_time": 85.6704545,
                "end_time": 85.85,
                "pitch": 32,
                "velocity": 80,
                "duration": 0.1795455,
                "tempo": 120.0
            },
            {
                "start_time": 85.8659091,
                "end_time": 86.0522727,
                "pitch": 32,
                "velocity": 80,
                "duration": 0.1863636,
                "tempo": 120.0
            },
            {
                "start_time": 86.0704545,
                "end_time": 86.2590909,
                "pitch": 32,
                "velocity": 80,
                "duration": 0.1886364,
                "tempo": 120.0
            },
            {
                "start_time": 86.275,
                "end_time": 86.4568182,
                "pitch": 32,
                "velocity": 80,
                "duration": 0.1818182,
                "tempo": 120.0
            },
            {
                "start_time": 86.4727273,
                "end_time": 86.6522727,
                "pitch": 32,
                "velocity": 80,
                "duration": 0.1795455,
                "tempo": 120.0
            },
            {
                "start_time": 86.6681818,
                "end_time": 86.8568182,
                "pitch": 32,
                "velocity": 80,
                "duration": 0.1886364,
                "tempo": 120.0
            },
            {
                "start_time": 86.8727273,
                "end_time": 87.0613636,
                "pitch": 32,
                "velocity": 80,
                "duration": 0.1886364,
                "tempo": 120.0
            },
            {
                "start_time": 87.0795455,
                "end_time": 87.2590909,
                "pitch": 32,
                "velocity": 80,
                "duration": 0.1795455,
                "tempo": 120.0
            },
            {
                "start_time": 87.275,
                "end_time": 87.4545455,
                "pitch": 32,
                "velocity": 80,
                "duration": 0.1795455,
                "tempo": 120.0
            },
            {
                "start_time": 87.4704545,
                "end_time": 87.6590909,
                "pitch": 31,
                "velocity": 80,
                "duration": 0.1886364,
                "tempo": 120.0
            },
            {
                "start_time": 87.675,
                "end_time": 87.8636364,
                "pitch": 31,
                "velocity": 80,
                "duration": 0.1886364,
                "tempo": 120.0
            },
            {
                "start_time": 87.8818182,
                "end_time": 88.0613636,
                "pitch": 31,
                "velocity": 80,
                "duration": 0.1795455,
                "tempo": 120.0
            },
            {
                "start_time": 88.0772727,
                "end_time": 88.2568182,
                "pitch": 31,
                "velocity": 80,
                "duration": 0.1795455,
                "tempo": 120.0
            },
            {
                "start_time": 88.2727273,
                "end_time": 88.4613636,
                "pitch": 31,
                "velocity": 80,
                "duration": 0.1886364,
                "tempo": 120.0
            },
            {
                "start_time": 88.4795455,
                "end_time": 88.6659091,
                "pitch": 31,
                "velocity": 80,
                "duration": 0.1863636,
                "tempo": 120.0
            },
            {
                "start_time": 88.6840909,
                "end_time": 88.8636364,
                "pitch": 31,
                "velocity": 80,
                "duration": 0.1795455,
                "tempo": 120.0
            },
            {
                "start_time": 88.8795455,
                "end_time": 89.0590909,
                "pitch": 31,
                "velocity": 80,
                "duration": 0.1795455,
                "tempo": 120.0
            },
            {
                "start_time": 89.275,
                "end_time": 89.4590909,
                "pitch": 31,
                "velocity": 80,
                "duration": 0.1840909,
                "tempo": 120.0
            },
            {
                "start_time": 89.8795455,
                "end_time": 90.2613636,
                "pitch": 31,
                "velocity": 80,
                "duration": 0.3818182,
                "tempo": 120.0
            },
            {
                "start_time": 90.6818182,
                "end_time": 90.8704545,
                "pitch": 33,
                "velocity": 80,
                "duration": 0.1886364,
                "tempo": 120.0
            },
            {
                "start_time": 90.8863636,
                "end_time": 91.075,
                "pitch": 33,
                "velocity": 80,
                "duration": 0.1886364,
                "tempo": 120.0
            },
            {
                "start_time": 91.0931818,
                "end_time": 91.2727273,
                "pitch": 33,
                "velocity": 80,
                "duration": 0.1795455,
                "tempo": 120.0
            },
            {
                "start_time": 91.2886364,
                "end_time": 91.4681818,
                "pitch": 33,
                "velocity": 80,
                "duration": 0.1795455,
                "tempo": 120.0
            },
            {
                "start_time": 91.4840909,
                "end_time": 91.6727273,
                "pitch": 33,
                "velocity": 80,
                "duration": 0.1886364,
                "tempo": 120.0
            },
            {
                "start_time": 91.6886364,
                "end_time": 91.8772727,
                "pitch": 33,
                "velocity": 80,
                "duration": 0.1886364,
                "tempo": 120.0
            },
            {
                "start_time": 91.8954545,
                "end_time": 92.075,
                "pitch": 33,
                "velocity": 80,
                "duration": 0.1795455,
                "tempo": 120.0
            },
            {
                "start_time": 92.0909091,
                "end_time": 92.2704545,
                "pitch": 33,
                "velocity": 80,
                "duration": 0.1795455,
                "tempo": 120.0
            },
            {
                "start_time": 92.2863636,
                "end_time": 92.475,
                "pitch": 33,
                "velocity": 80,
                "duration": 0.1886364,
                "tempo": 120.0
            },
            {
                "start_time": 92.4909091,
                "end_time": 92.6795455,
                "pitch": 33,
                "velocity": 80,
                "duration": 0.1886364,
                "tempo": 120.0
            },
            {
                "start_time": 92.6977273,
                "end_time": 92.8772727,
                "pitch": 33,
                "velocity": 80,
                "duration": 0.1795455,
                "tempo": 120.0
            },
            {
                "start_time": 92.8931818,
                "end_time": 93.0727273,
                "pitch": 33,
                "velocity": 80,
                "duration": 0.1795455,
                "tempo": 120.0
            },
            {
                "start_time": 93.0886364,
                "end_time": 93.2772727,
                "pitch": 33,
                "velocity": 80,
                "duration": 0.1886364,
                "tempo": 120.0
            },
            {
                "start_time": 93.2954545,
                "end_time": 93.4840909,
                "pitch": 33,
                "velocity": 80,
                "duration": 0.1886364,
                "tempo": 120.0
            },
            {
                "start_time": 93.5,
                "end_time": 93.6795455,
                "pitch": 33,
                "velocity": 80,
                "duration": 0.1795455,
                "tempo": 120.0
            },
            {
                "start_time": 93.6954545,
                "end_time": 93.875,
                "pitch": 33,
                "velocity": 80,
                "duration": 0.1795455,
                "tempo": 120.0
            },
            {
                "start_time": 93.8931818,
                "end_time": 94.0795455,
                "pitch": 31,
                "velocity": 80,
                "duration": 0.1863636,
                "tempo": 120.0
            },
            {
                "start_time": 94.0977273,
                "end_time": 94.2863636,
                "pitch": 31,
                "velocity": 80,
                "duration": 0.1886364,
                "tempo": 120.0
            },
            {
                "start_time": 94.3022727,
                "end_time": 94.4818182,
                "pitch": 31,
                "velocity": 80,
                "duration": 0.1795455,
                "tempo": 120.0
            },
            {
                "start_time": 94.5,
                "end_time": 94.6795455,
                "pitch": 31,
                "velocity": 80,
                "duration": 0.1795455,
                "tempo": 120.0
            },
            {
                "start_time": 94.6954545,
                "end_time": 94.8818182,
                "pitch": 31,
                "velocity": 80,
                "duration": 0.1863636,
                "tempo": 120.0
            },
            {
                "start_time": 94.9,
                "end_time": 95.0886364,
                "pitch": 31,
                "velocity": 80,
                "duration": 0.1886364,
                "tempo": 120.0
            },
            {
                "start_time": 95.1045455,
                "end_time": 95.2840909,
                "pitch": 31,
                "velocity": 80,
                "duration": 0.1795455,
                "tempo": 120.0
            },
            {
                "start_time": 95.3022727,
                "end_time": 95.4818182,
                "pitch": 31,
                "velocity": 80,
                "duration": 0.1795455,
                "tempo": 120.0
            },
            {
                "start_time": 95.4977273,
                "end_time": 95.6863636,
                "pitch": 31,
                "velocity": 80,
                "duration": 0.1886364,
                "tempo": 120.0
            },
            {
                "start_time": 95.7022727,
                "end_time": 95.8909091,
                "pitch": 31,
                "velocity": 80,
                "duration": 0.1886364,
                "tempo": 120.0
            },
            {
                "start_time": 95.9090909,
                "end_time": 96.0886364,
                "pitch": 31,
                "velocity": 80,
                "duration": 0.1795455,
                "tempo": 120.0
            },
            {
                "start_time": 96.1045455,
                "end_time": 96.2840909,
                "pitch": 31,
                "velocity": 80,
                "duration": 0.1795455,
                "tempo": 120.0
            },
            {
                "start_time": 96.3,
                "end_time": 96.4886364,
                "pitch": 31,
                "velocity": 80,
                "duration": 0.1886364,
                "tempo": 120.0
            },
            {
                "start_time": 96.5045455,
                "end_time": 96.6931818,
                "pitch": 31,
                "velocity": 80,
                "duration": 0.1886364,
                "tempo": 120.0
            },
            {
                "start_time": 96.7113636,
                "end_time": 96.8909091,
                "pitch": 31,
                "velocity": 80,
                "duration": 0.1795455,
                "tempo": 120.0
            },
            {
                "start_time": 96.9068182,
                "end_time": 97.0863636,
                "pitch": 31,
                "velocity": 80,
                "duration": 0.1795455,
                "tempo": 120.0
            },
            {
                "start_time": 97.1022727,
                "end_time": 97.2909091,
                "pitch": 29,
                "velocity": 80,
                "duration": 0.1886364,
                "tempo": 120.0
            },
            {
                "start_time": 97.3068182,
                "end_time": 97.4954545,
                "pitch": 29,
                "velocity": 80,
                "duration": 0.1886364,
                "tempo": 120.0
            },
            {
                "start_time": 97.5136364,
                "end_time": 97.6931818,
                "pitch": 29,
                "velocity": 80,
                "duration": 0.1795455,
                "tempo": 120.0
            },
            {
                "start_time": 97.7090909,
                "end_time": 97.8886364,
                "pitch": 29,
                "velocity": 80,
                "duration": 0.1795455,
                "tempo": 120.0
            },
            {
                "start_time": 97.9045455,
                "end_time": 98.0931818,
                "pitch": 29,
                "velocity": 80,
                "duration": 0.1886364,
                "tempo": 120.0
            },
            {
                "start_time": 98.1113636,
                "end_time": 98.3,
                "pitch": 29,
                "velocity": 80,
                "duration": 0.1886364,
                "tempo": 120.0
            },
            {
                "start_time": 98.3159091,
                "end_time": 98.4954545,
                "pitch": 29,
                "velocity": 80,
                "duration": 0.1795455,
                "tempo": 120.0
            },
            {
                "start_time": 98.5113636,
                "end_time": 98.6909091,
                "pitch": 29,
                "velocity": 80,
                "duration": 0.1795455,
                "tempo": 120.0
            },
            {
                "start_time": 98.7090909,
                "end_time": 98.8954545,
                "pitch": 29,
                "velocity": 80,
                "duration": 0.1863636,
                "tempo": 120.0
            },
            {
                "start_time": 98.9136364,
                "end_time": 99.1022727,
                "pitch": 29,
                "velocity": 80,
                "duration": 0.1886364,
                "tempo": 120.0
            },
            {
                "start_time": 99.1181818,
                "end_time": 99.2977273,
                "pitch": 29,
                "velocity": 80,
                "duration": 0.1795455,
                "tempo": 120.0
            },
            {
                "start_time": 99.3136364,
                "end_time": 99.4954545,
                "pitch": 29,
                "velocity": 80,
                "duration": 0.1818182,
                "tempo": 120.0
            },
            {
                "start_time": 99.5113636,
                "end_time": 99.6977273,
                "pitch": 29,
                "velocity": 80,
                "duration": 0.1863636,
                "tempo": 120.0
            },
            {
                "start_time": 99.7159091,
                "end_time": 99.9045455,
                "pitch": 29,
                "velocity": 80,
                "duration": 0.1886364,
                "tempo": 120.0
            },
            {
                "start_time": 99.9204545,
                "end_time": 100.1,
                "pitch": 29,
                "velocity": 80,
                "duration": 0.1795455,
                "tempo": 120.0
            },
            {
                "start_time": 100.1181818,
                "end_time": 100.2977273,
                "pitch": 29,
                "velocity": 80,
                "duration": 0.1795455,
                "tempo": 120.0
            },
            {
                "start_time": 100.5159091,
                "end_time": 100.7,
                "pitch": 28,
                "velocity": 80,
                "duration": 0.1840909,
                "tempo": 120.0
            },
            {
                "start_time": 101.1272727,
                "end_time": 101.5022727,
                "pitch": 28,
                "velocity": 80,
                "duration": 0.375,
                "tempo": 120.0
            },
            {
                "start_time": 102.1272727,
                "end_time": 102.3159091,
                "pitch": 28,
                "velocity": 80,
                "duration": 0.1886364,
                "tempo": 120.0
            },
            {
                "start_time": 102.5295455,
                "end_time": 102.9090909,
                "pitch": 28,
                "velocity": 80,
                "duration": 0.3795455,
                "tempo": 120.0
            },
            {
                "start_time": 102.925,
                "end_time": 103.1113636,
                "pitch": 31,
                "velocity": 80,
                "duration": 0.1863636,
                "tempo": 120.0
            },
            {
                "start_time": 103.1272727,
                "end_time": 103.3113636,
                "pitch": 32,
                "velocity": 80,
                "duration": 0.1840909,
                "tempo": 120.0
            },
            {
                "start_time": 103.3272727,
                "end_time": 103.5113636,
                "pitch": 33,
                "velocity": 80,
                "duration": 0.1840909,
                "tempo": 120.0
            },
            {
                "start_time": 103.5272727,
                "end_time": 103.5613636,
                "pitch": 33,
                "velocity": 80,
                "duration": 0.0340909,
                "tempo": 120.0
            }
        ],
        "Violin": [
            {
                "start_time": 0.9886364,
                "end_time": 1.1772727,
                "pitch": 64,
                "velocity": 80,
                "duration": 0.1886364,
                "tempo": 120.0
            },
            {
                "start_time": 1.1954545,
                "end_time": 1.375,
                "pitch": 62,
                "velocity": 80,
                "duration": 0.1795455,
                "tempo": 120.0
            },
            {
                "start_time": 1.5863636,
                "end_time": 1.775,
                "pitch": 64,
                "velocity": 80,
                "duration": 0.1886364,
                "tempo": 120.0
            },
            {
                "start_time": 1.7931818,
                "end_time": 1.9795455,
                "pitch": 62,
                "velocity": 80,
                "duration": 0.1863636,
                "tempo": 120.0
            },
            {
                "start_time": 2.1931818,
                "end_time": 2.3727273,
                "pitch": 64,
                "velocity": 80,
                "duration": 0.1795455,
                "tempo": 120.0
            },
            {
                "start_time": 2.5954545,
                "end_time": 2.7840909,
                "pitch": 64,
                "velocity": 80,
                "duration": 0.1886364,
                "tempo": 120.0
            },
            {
                "start_time": 2.8,
                "end_time": 2.9795455,
                "pitch": 62,
                "velocity": 80,
                "duration": 0.1795455,
                "tempo": 120.0
            },
            {
                "start_time": 2.9954545,
                "end_time": 3.5772727,
                "pitch": 67,
                "velocity": 80,
                "duration": 0.5818182,
                "tempo": 120.0
            },
            {
                "start_time": 3.5954545,
                "end_time": 3.9795455,
                "pitch": 65,
                "velocity": 80,
                "duration": 0.3840909,
                "tempo": 120.0
            },
            {
                "start_time": 4.2,
                "end_time": 4.3886364,
                "pitch": 64,
                "velocity": 80,
                "duration": 0.1886364,
                "tempo": 120.0
            },
            {
                "start_time": 4.4068182,
                "end_time": 4.5863636,
                "pitch": 62,
                "velocity": 80,
                "duration": 0.1795455,
                "tempo": 120.0
            },
            {
                "start_time": 4.7977273,
                "end_time": 4.9863636,
                "pitch": 64,
                "velocity": 80,
                "duration": 0.1886364,
                "tempo": 120.0
            },
            {
                "start_time": 5.0022727,
                "end_time": 5.1909091,
                "pitch": 62,
                "velocity": 80,
                "duration": 0.1886364,
                "tempo": 120.0
            },
            {
                "start_time": 5.4045455,
                "end_time": 5.5840909,
                "pitch": 64,
                "velocity": 80,
                "duration": 0.1795455,
                "tempo": 120.0
            },
            {
                "start_time": 5.8045455,
                "end_time": 5.9931818,
                "pitch": 64,
                "velocity": 80,
                "duration": 0.1886364,
                "tempo": 120.0
            },
            {
                "start_time": 6.0113636,
                "end_time": 6.1909091,
                "pitch": 62,
                "velocity": 80,
                "duration": 0.1795455,
                "tempo": 120.0
            },
            {
                "start_time": 6.2068182,
                "end_time": 6.7886364,
                "pitch": 65,
                "velocity": 80,
                "duration": 0.5818182,
                "tempo": 120.0
            },
            {
                "start_time": 6.8068182,
                "end_time": 7.1886364,
                "pitch": 67,
                "velocity": 80,
                "duration": 0.3818182,
                "tempo": 120.0
            },
            {
                "start_time": 7.4113636,
                "end_time": 7.6,
                "pitch": 64,
                "velocity": 80,
                "duration": 0.1886364,
                "tempo": 120.0
            },
            {
                "start_time": 7.6159091,
                "end_time": 7.7954545,
                "pitch": 62,
                "velocity": 80,
                "duration": 0.1795455,
                "tempo": 120.0
            },
            {
                "start_time": 8.0090909,
                "end_time": 8.1977273,
                "pitch": 64,
                "velocity": 80,
                "duration": 0.1886364,
                "tempo": 120.0
            },
            {
                "start_time": 8.2136364,
                "end_time": 8.4022727,
                "pitch": 62,
                "velocity": 80,
                "duration": 0.1886364,
                "tempo": 120.0
            },
            {
                "start_time": 8.6159091,
                "end_time": 8.7954545,
                "pitch": 64,
                "velocity": 80,
                "duration": 0.1795455,
                "tempo": 120.0
            },
            {
                "start_time": 9.0159091,
                "end_time": 9.2045455,
                "pitch": 64,
                "velocity": 80,
                "duration": 0.1886364,
                "tempo": 120.0
            },
            {
                "start_time": 9.2227273,
                "end_time": 9.4022727,
                "pitch": 62,
                "velocity": 80,
                "duration": 0.1795455,
                "tempo": 120.0
            },
            {
                "start_time": 9.4181818,
                "end_time": 10.0,
                "pitch": 67,
                "velocity": 80,
                "duration": 0.5818182,
                "tempo": 120.0
            },
            {
                "start_time": 10.0159091,
                "end_time": 10.4022727,
                "pitch": 65,
                "velocity": 80,
                "duration": 0.3863636,
                "tempo": 120.0
            },
            {
                "start_time": 10.625,
                "end_time": 10.8136364,
                "pitch": 64,
                "velocity": 80,
                "duration": 0.1886364,
                "tempo": 120.0
            },
            {
                "start_time": 10.8295455,
                "end_time": 11.0090909,
                "pitch": 62,
                "velocity": 80,
                "duration": 0.1795455,
                "tempo": 120.0
            },
            {
                "start_time": 11.2227273,
                "end_time": 11.4113636,
                "pitch": 64,
                "velocity": 80,
                "duration": 0.1886364,
                "tempo": 120.0
            },
            {
                "start_time": 11.4272727,
                "end_time": 11.6159091,
                "pitch": 62,
                "velocity": 80,
                "duration": 0.1886364,
                "tempo": 120.0
            },
            {
                "start_time": 11.8295455,
                "end_time": 12.0090909,
                "pitch": 67,
                "velocity": 80,
                "duration": 0.1795455,
                "tempo": 120.0
            },
            {
                "start_time": 12.2295455,
                "end_time": 12.4181818,
                "pitch": 69,
                "velocity": 80,
                "duration": 0.1886364,
                "tempo": 120.0
            },
            {
                "start_time": 12.6363636,
                "end_time": 12.8227273,
                "pitch": 60,
                "velocity": 80,
                "duration": 0.1863636,
                "tempo": 120.0
            },
            {
                "start_time": 12.8386364,
                "end_time": 13.0181818,
                "pitch": 62,
                "velocity": 80,
                "duration": 0.1795455,
                "tempo": 120.0
            },
            {
                "start_time": 13.0340909,
                "end_time": 13.2136364,
                "pitch": 64,
                "velocity": 80,
                "duration": 0.1795455,
                "tempo": 120.0
            },
            {
                "start_time": 13.2295455,
                "end_time": 13.4136364,
                "pitch": 67,
                "velocity": 80,
                "duration": 0.1840909,
                "tempo": 120.0
            },
            {
                "start_time": 13.4295455,
                "end_time": 13.6136364,
                "pitch": 69,
                "velocity": 80,
                "duration": 0.1840909,
                "tempo": 120.0
            },
            {
                "start_time": 13.8363636,
                "end_time": 16.8590909,
                "pitch": 79,
                "velocity": 80,
                "duration": 3.0227273,
                "tempo": 120.0
            },
            {
                "start_time": 17.0454545,
                "end_time": 20.0681818,
                "pitch": 79,
                "velocity": 80,
                "duration": 3.0227273,
                "tempo": 120.0
            },
            {
                "start_time": 20.2568182,
                "end_time": 23.2636364,
                "pitch": 79,
                "velocity": 80,
                "duration": 3.0068182,
                "tempo": 120.0
            },
            {
                "start_time": 23.4681818,
                "end_time": 24.8522727,
                "pitch": 79,
                "velocity": 80,
                "duration": 1.3840909,
                "tempo": 120.0
            },
            {
                "start_time": 25.4795455,
                "end_time": 25.6659091,
                "pitch": 48,
                "velocity": 80,
                "duration": 0.1863636,
                "tempo": 120.0
            },
            {
                "start_time": 25.6818182,
                "end_time": 25.8659091,
                "pitch": 50,
                "velocity": 80,
                "duration": 0.1840909,
                "tempo": 120.0
            },
            {
                "start_time": 25.8818182,
                "end_time": 26.0659091,
                "pitch": 52,
                "velocity": 80,
                "duration": 0.1840909,
                "tempo": 120.0
            },
            {
                "start_time": 26.0818182,
                "end_time": 26.2613636,
                "pitch": 55,
                "velocity": 80,
                "duration": 0.1795455,
                "tempo": 120.0
            },
            {
                "start_time": 26.2772727,
                "end_time": 26.4568182,
                "pitch": 57,
                "velocity": 80,
                "duration": 0.1795455,
                "tempo": 120.0
            },
            {
                "start_time": 26.4909091,
                "end_time": 26.6613636,
                "pitch": 65,
                "velocity": 80,
                "duration": 0.1704545,
                "tempo": 120.0
            },
            {
                "start_time": 26.6795455,
                "end_time": 26.8681818,
                "pitch": 72,
                "velocity": 80,
                "duration": 0.1886364,
                "tempo": 120.0
            },
            {
                "start_time": 26.8840909,
                "end_time": 27.0636364,
                "pitch": 67,
                "velocity": 80,
                "duration": 0.1795455,
                "tempo": 120.0
            },
            {
                "start_time": 27.0818182,
                "end_time": 27.2613636,
                "pitch": 65,
                "velocity": 80,
                "duration": 0.1795455,
                "tempo": 120.0
            },
            {
                "start_time": 27.2772727,
                "end_time": 27.4636364,
                "pitch": 72,
                "velocity": 80,
                "duration": 0.1863636,
                "tempo": 120.0
            },
            {
                "start_time": 27.4818182,
                "end_time": 27.6704545,
                "pitch": 65,
                "velocity": 80,
                "duration": 0.1886364,
                "tempo": 120.0
            },
            {
                "start_time": 27.6863636,
                "end_time": 27.8681818,
                "pitch": 67,
                "velocity": 80,
                "duration": 0.1818182,
                "tempo": 120.0
            },
            {
                "start_time": 27.8840909,
                "end_time": 28.0636364,
                "pitch": 65,
                "velocity": 80,
                "duration": 0.1795455,
                "tempo": 120.0
            },
            {
                "start_time": 28.0795455,
                "end_time": 28.2681818,
                "pitch": 67,
                "velocity": 80,
                "duration": 0.1886364,
                "tempo": 120.0
            },
            {
                "start_time": 28.2840909,
                "end_time": 28.4727273,
                "pitch": 74,
                "velocity": 80,
                "duration": 0.1886364,
                "tempo": 120.0
            },
            {
                "start_time": 28.4909091,
                "end_time": 28.6704545,
                "pitch": 69,
                "velocity": 80,
                "duration": 0.1795455,
                "tempo": 120.0
            },
            {
                "start_time": 28.6863636,
                "end_time": 28.8659091,
                "pitch": 67,
                "velocity": 80,
                "duration": 0.1795455,
                "tempo": 120.0
            },
            {
                "start_time": 28.8818182,
                "end_time": 29.0704545,
                "pitch": 74,
                "velocity": 80,
                "duration": 0.1886364,
                "tempo": 120.0
            },
            {
                "start_time": 29.0863636,
                "end_time": 29.275,
                "pitch": 67,
                "velocity": 80,
                "duration": 0.1886364,
                "tempo": 120.0
            },
            {
                "start_time": 29.2931818,
                "end_time": 29.4727273,
                "pitch": 69,
                "velocity": 80,
                "duration": 0.1795455,
                "tempo": 120.0
            },
            {
                "start_time": 29.4886364,
                "end_time": 29.6681818,
                "pitch": 67,
                "velocity": 80,
                "duration": 0.1795455,
                "tempo": 120.0
            },
            {
                "start_time": 29.6840909,
                "end_time": 29.8727273,
                "pitch": 69,
                "velocity": 80,
                "duration": 0.1886364,
                "tempo": 120.0
            },
            {
                "start_time": 29.8909091,
                "end_time": 30.0772727,
                "pitch": 76,
                "velocity": 80,
                "duration": 0.1863636,
                "tempo": 120.0
            },
            {
                "start_time": 30.0954545,
                "end_time": 30.275,
                "pitch": 72,
                "velocity": 80,
                "duration": 0.1795455,
                "tempo": 120.0
            },
            {
                "start_time": 30.2909091,
                "end_time": 30.4704545,
                "pitch": 81,
                "velocity": 80,
                "duration": 0.1795455,
                "tempo": 120.0
            },
            {
                "start_time": 30.4863636,
                "end_time": 30.675,
                "pitch": 76,
                "velocity": 80,
                "duration": 0.1886364,
                "tempo": 120.0
            },
            {
                "start_time": 30.6931818,
                "end_time": 30.8818182,
                "pitch": 69,
                "velocity": 80,
                "duration": 0.1886364,
                "tempo": 120.0
            },
            {
                "start_time": 30.8977273,
                "end_time": 31.0772727,
                "pitch": 72,
                "velocity": 80,
                "duration": 0.1795455,
                "tempo": 120.0
            },
            {
                "start_time": 31.0931818,
                "end_time": 31.2727273,
                "pitch": 76,
                "velocity": 80,
                "duration": 0.1795455,
                "tempo": 120.0
            },
            {
                "start_time": 31.2909091,
                "end_time": 31.4772727,
                "pitch": 81,
                "velocity": 80,
                "duration": 0.1863636,
                "tempo": 120.0
            },
            {
                "start_time": 31.4954545,
                "end_time": 31.6840909,
                "pitch": 77,
                "velocity": 80,
                "duration": 0.1886364,
                "tempo": 120.0
            },
            {
                "start_time": 31.7,
                "end_time": 31.8795455,
                "pitch": 79,
                "velocity": 80,
                "duration": 0.1795455,
                "tempo": 120.0
            },
            {
                "start_time": 31.8977273,
                "end_time": 32.0772727,
                "pitch": 76,
                "velocity": 80,
                "duration": 0.1795455,
                "tempo": 120.0
            },
            {
                "start_time": 32.0931818,
                "end_time": 32.2795455,
                "pitch": 77,
                "velocity": 80,
                "duration": 0.1863636,
                "tempo": 120.0
            },
            {
                "start_time": 32.2977273,
                "end_time": 32.4863636,
                "pitch": 74,
                "velocity": 80,
                "duration": 0.1886364,
                "tempo": 120.0
            },
            {
                "start_time": 32.5022727,
                "end_time": 32.6840909,
                "pitch": 76,
                "velocity": 80,
                "duration": 0.1818182,
                "tempo": 120.0
            },
            {
                "start_time": 32.7,
                "end_time": 32.8795455,
                "pitch": 72,
                "velocity": 80,
                "duration": 0.1795455,
                "tempo": 120.0
            },
            {
                "start_time": 32.8954545,
                "end_time": 33.0840909,
                "pitch": 65,
                "velocity": 80,
                "duration": 0.1886364,
                "tempo": 120.0
            },
            {
                "start_time": 33.1,
                "end_time": 33.2886364,
                "pitch": 72,
                "velocity": 80,
                "duration": 0.1886364,
                "tempo": 120.0
            },
            {
                "start_time": 33.3068182,
                "end_time": 33.4863636,
                "pitch": 67,
                "velocity": 80,
                "duration": 0.1795455,
                "tempo": 120.0
            },
            {
                "start_time": 33.5022727,
                "end_time": 33.6818182,
                "pitch": 65,
                "velocity": 80,
                "duration": 0.1795455,
                "tempo": 120.0
            },
            {
                "start_time": 33.6977273,
                "end_time": 33.8863636,
                "pitch": 72,
                "velocity": 80,
                "duration": 0.1886364,
                "tempo": 120.0
            },
            {
                "start_time": 33.9022727,
                "end_time": 34.0909091,
                "pitch": 65,
                "velocity": 80,
                "duration": 0.1886364,
                "tempo": 120.0
            },
            {
                "start_time": 34.1090909,
                "end_time": 34.2886364,
                "pitch": 67,
                "velocity": 80,
                "duration": 0.1795455,
                "tempo": 120.0
            },
            {
                "start_time": 34.3045455,
                "end_time": 34.4840909,
                "pitch": 65,
                "velocity": 80,
                "duration": 0.1795455,
                "tempo": 120.0
            },
            {
                "start_time": 34.5,
                "end_time": 34.6886364,
                "pitch": 67,
                "velocity": 80,
                "duration": 0.1886364,
                "tempo": 120.0
            },
            {
                "start_time": 34.7068182,
                "end_time": 34.8931818,
                "pitch": 74,
                "velocity": 80,
                "duration": 0.1863636,
                "tempo": 120.0
            },
            {
                "start_time": 34.9113636,
                "end_time": 35.0909091,
                "pitch": 69,
                "velocity": 80,
                "duration": 0.1795455,
                "tempo": 120.0
            },
            {
                "start_time": 35.1068182,
                "end_time": 35.2863636,
                "pitch": 67,
                "velocity": 80,
                "duration": 0.1795455,
                "tempo": 120.0
            },
            {
                "start_time": 35.3022727,
                "end_time": 35.4909091,
                "pitch": 74,
                "velocity": 80,
                "duration": 0.1886364,
                "tempo": 120.0
            },
            {
                "start_time": 35.5090909,
                "end_time": 35.6977273,
                "pitch": 67,
                "velocity": 80,
                "duration": 0.1886364,
                "tempo": 120.0
            },
            {
                "start_time": 35.7136364,
                "end_time": 35.8931818,
                "pitch": 69,
                "velocity": 80,
                "duration": 0.1795455,
                "tempo": 120.0
            },
            {
                "start_time": 35.9090909,
                "end_time": 36.0886364,
                "pitch": 67,
                "velocity": 80,
                "duration": 0.1795455,
                "tempo": 120.0
            },
            {
                "start_time": 36.1068182,
                "end_time": 36.2931818,
                "pitch": 69,
                "velocity": 80,
                "duration": 0.1863636,
                "tempo": 120.0
            },
            {
                "start_time": 36.3113636,
                "end_time": 36.5,
                "pitch": 76,
                "velocity": 80,
                "duration": 0.1886364,
                "tempo": 120.0
            },
            {
                "start_time": 36.5159091,
                "end_time": 36.6954545,
                "pitch": 72,
                "velocity": 80,
                "duration": 0.1795455,
                "tempo": 120.0
            },
            {
                "start_time": 36.7136364,
                "end_time": 36.8931818,
                "pitch": 81,
                "velocity": 80,
                "duration": 0.1795455,
                "tempo": 120.0
            },
            {
                "start_time": 36.9090909,
                "end_time": 37.0954545,
                "pitch": 76,
                "velocity": 80,
                "duration": 0.1863636,
                "tempo": 120.0
            },
            {
                "start_time": 37.1136364,
                "end_time": 37.3022727,
                "pitch": 69,
                "velocity": 80,
                "duration": 0.1886364,
                "tempo": 120.0
            },
            {
                "start_time": 37.3181818,
                "end_time": 37.4977273,
                "pitch": 72,
                "velocity": 80,
                "duration": 0.1795455,
                "tempo": 120.0
            },
            {
                "start_time": 37.5159091,
                "end_time": 37.6954545,
                "pitch": 76,
                "velocity": 80,
                "duration": 0.1795455,
                "tempo": 120.0
            },
            {
                "start_time": 37.7113636,
                "end_time": 37.9,
                "pitch": 72,
                "velocity": 80,
                "duration": 0.1886364,
                "tempo": 120.0
            },
            {
                "start_time": 37.9159091,
                "end_time": 38.1045455,
                "pitch": 72,
                "velocity": 80,
                "duration": 0.1886364,
                "tempo": 120.0
            },
            {
                "start_time": 38.1227273,
                "end_time": 38.3022727,
                "pitch": 71,
                "velocity": 80,
                "duration": 0.1795455,
                "tempo": 120.0
            },
            {
                "start_time": 38.3181818,
                "end_time": 38.4977273,
                "pitch": 72,
                "velocity": 80,
                "duration": 0.1795455,
                "tempo": 120.0
            },
            {
                "start_time": 38.5136364,
                "end_time": 38.7022727,
                "pitch": 73,
                "velocity": 80,
                "duration": 0.1886364,
                "tempo": 120.0
            },
            {
                "start_time": 38.7181818,
                "end_time": 38.9068182,
                "pitch": 74,
                "velocity": 80,
                "duration": 0.1886364,
                "tempo": 120.0
            },
            {
                "start_time": 38.925,
                "end_time": 39.1045455,
                "pitch": 75,
                "velocity": 80,
                "duration": 0.1795455,
                "tempo": 120.0
            },
            {
                "start_time": 39.1204545,
                "end_time": 39.3,
                "pitch": 76,
                "velocity": 80,
                "duration": 0.1795455,
                "tempo": 120.0
            },
            {
                "start_time": 39.5204545,
                "end_time": 39.7090909,
                "pitch": 64,
                "velocity": 80,
                "duration": 0.1886364,
                "tempo": 120.0
            },
            {
                "start_time": 39.7272727,
                "end_time": 39.9068182,
                "pitch": 62,
                "velocity": 80,
                "duration": 0.1795455,
                "tempo": 120.0
            },
            {
                "start_time": 40.1181818,
                "end_time": 40.3068182,
                "pitch": 64,
                "velocity": 80,
                "duration": 0.1886364,
                "tempo": 120.0
            },
            {
                "start_time": 40.325,
                "end_time": 40.5136364,
                "pitch": 62,
                "velocity": 80,
                "duration": 0.1886364,
                "tempo": 120.0
            },
            {
                "start_time": 40.725,
                "end_time": 40.9045455,
                "pitch": 64,
                "velocity": 80,
                "duration": 0.1795455,
                "tempo": 120.0
            },
            {
                "start_time": 41.1272727,
                "end_time": 41.3159091,
                "pitch": 64,
                "velocity": 80,
                "duration": 0.1886364,
                "tempo": 120.0
            },
            {
                "start_time": 41.3318182,
                "end_time": 41.5113636,
                "pitch": 62,
                "velocity": 80,
                "duration": 0.1795455,
                "tempo": 120.0
            },
            {
                "start_time": 41.5295455,
                "end_time": 42.1068182,
                "pitch": 67,
                "velocity": 80,
                "duration": 0.5772727,
                "tempo": 120.0
            },
            {
                "start_time": 42.125,
                "end_time": 42.5068182,
                "pitch": 65,
                "velocity": 80,
                "duration": 0.3818182,
                "tempo": 120.0
            },
            {
                "start_time": 42.7295455,
                "end_time": 42.9181818,
                "pitch": 64,
                "velocity": 80,
                "duration": 0.1886364,
                "tempo": 120.0
            },
            {
                "start_time": 42.9340909,
                "end_time": 43.1159091,
                "pitch": 62,
                "velocity": 80,
                "duration": 0.1818182,
                "tempo": 120.0
            },
            {
                "start_time": 43.3272727,
                "end_time": 43.5159091,
                "pitch": 64,
                "velocity": 80,
                "duration": 0.1886364,
                "tempo": 120.0
            },
            {
                "start_time": 43.5318182,
                "end_time": 43.7204545,
                "pitch": 62,
                "velocity": 80,
                "duration": 0.1886364,
                "tempo": 120.0
            },
            {
                "start_time": 43.9340909,
                "end_time": 44.1136364,
                "pitch": 64,
                "velocity": 80,
                "duration": 0.1795455,
                "tempo": 120.0
            },
            {
                "start_time": 44.3340909,
                "end_time": 44.5227273,
                "pitch": 64,
                "velocity": 80,
                "duration": 0.1886364,
                "tempo": 120.0
            },
            {
                "start_time": 44.5409091,
                "end_time": 44.7204545,
                "pitch": 62,
                "velocity": 80,
                "duration": 0.1795455,
                "tempo": 120.0
            },
            {
                "start_time": 44.7363636,
                "end_time": 45.3159091,
                "pitch": 65,
                "velocity": 80,
                "duration": 0.5795455,
                "tempo": 120.0
            },
            {
                "start_time": 45.3318182,
                "end_time": 45.7181818,
                "pitch": 67,
                "velocity": 80,
                "duration": 0.3863636,
                "tempo": 120.0
            },
            {
                "start_time": 45.9409091,
                "end_time": 46.1295455,
                "pitch": 64,
                "velocity": 80,
                "duration": 0.1886364,
                "tempo": 120.0
            },
            {
                "start_time": 46.1454545,
                "end_time": 46.325,
                "pitch": 62,
                "velocity": 80,
                "duration": 0.1795455,
                "tempo": 120.0
            },
            {
                "start_time": 46.5386364,
                "end_time": 46.725,
                "pitch": 64,
                "velocity": 80,
                "duration": 0.1863636,
                "tempo": 120.0
            },
            {
                "start_time": 46.7431818,
                "end_time": 46.9318182,
                "pitch": 62,
                "velocity": 80,
                "duration": 0.1886364,
                "tempo": 120.0
            },
            {
                "start_time": 47.1454545,
                "end_time": 47.325,
                "pitch": 64,
                "velocity": 80,
                "duration": 0.1795455,
                "tempo": 120.0
            },
            {
                "start_time": 47.5454545,
                "end_time": 47.7340909,
                "pitch": 64,
                "velocity": 80,
                "duration": 0.1886364,
                "tempo": 120.0
            },
            {
                "start_time": 47.7522727,
                "end_time": 47.9318182,
                "pitch": 62,
                "velocity": 80,
                "duration": 0.1795455,
                "tempo": 120.0
            },
            {
                "start_time": 47.9477273,
                "end_time": 48.5272727,
                "pitch": 67,
                "velocity": 80,
                "duration": 0.5795455,
                "tempo": 120.0
            },
            {
                "start_time": 48.5431818,
                "end_time": 48.9272727,
                "pitch": 65,
                "velocity": 80,
                "duration": 0.3840909,
                "tempo": 120.0
            },
            {
                "start_time": 49.1477273,
                "end_time": 49.3363636,
                "pitch": 64,
                "velocity": 80,
                "duration": 0.1886364,
                "tempo": 120.0
            },
            {
                "start_time": 49.3545455,
                "end_time": 49.5340909,
                "pitch": 62,
                "velocity": 80,
                "duration": 0.1795455,
                "tempo": 120.0
            },
            {
                "start_time": 49.7454545,
                "end_time": 49.9340909,
                "pitch": 64,
                "velocity": 80,
                "duration": 0.1886364,
                "tempo": 120.0
            },
            {
                "start_time": 49.9522727,
                "end_time": 50.1386364,
                "pitch": 62,
                "velocity": 80,
                "duration": 0.1863636,
                "tempo": 120.0
            },
            {
                "start_time": 50.3522727,
                "end_time": 50.5318182,
                "pitch": 67,
                "velocity": 80,
                "duration": 0.1795455,
                "tempo": 120.0
            },
            {
                "start_time": 50.7545455,
                "end_time": 50.9431818,
                "pitch": 69,
                "velocity": 80,
                "duration": 0.1886364,
                "tempo": 120.0
            },
            {
                "start_time": 51.1613636,
                "end_time": 51.3454545,
                "pitch": 60,
                "velocity": 80,
                "duration": 0.1840909,
                "tempo": 120.0
            },
            {
                "start_time": 51.3613636,
                "end_time": 51.5431818,
                "pitch": 62,
                "velocity": 80,
                "duration": 0.1818182,
                "tempo": 120.0
            },
            {
                "start_time": 51.5590909,
                "end_time": 51.7386364,
                "pitch": 64,
                "velocity": 80,
                "duration": 0.1795455,
                "tempo": 120.0
            },
            {
                "start_time": 51.7545455,
                "end_time": 51.9386364,
                "pitch": 67,
                "velocity": 80,
                "duration": 0.1840909,
                "tempo": 120.0
            },
            {
                "start_time": 51.9545455,
                "end_time": 52.1386364,
                "pitch": 69,
                "velocity": 80,
                "duration": 0.1840909,
                "tempo": 120.0
            },
            {
                "start_time": 52.3590909,
                "end_time": 55.3795455,
                "pitch": 79,
                "velocity": 80,
                "duration": 3.0204545,
                "tempo": 120.0
            },
            {
                "start_time": 55.5681818,
                "end_time": 58.5886364,
                "pitch": 79,
                "velocity": 80,
                "duration": 3.0204545,
                "tempo": 120.0
            },
            {
                "start_time": 58.775,
                "end_time": 61.7818182,
                "pitch": 79,
                "velocity": 80,
                "duration": 3.0068182,
                "tempo": 120.0
            },
            {
                "start_time": 61.9863636,
                "end_time": 63.3704545,
                "pitch": 79,
                "velocity": 80,
                "duration": 1.3840909,
                "tempo": 120.0
            },
            {
                "start_time": 63.9977273,
                "end_time": 64.1818182,
                "pitch": 48,
                "velocity": 80,
                "duration": 0.1840909,
                "tempo": 120.0
            },
            {
                "start_time": 64.1977273,
                "end_time": 64.3818182,
                "pitch": 50,
                "velocity": 80,
                "duration": 0.1840909,
                "tempo": 120.0
            },
            {
                "start_time": 64.4,
                "end_time": 64.5840909,
                "pitch": 52,
                "velocity": 80,
                "duration": 0.1840909,
                "tempo": 120.0
            },
            {
                "start_time": 64.6,
                "end_time": 64.7795455,
                "pitch": 55,
                "velocity": 80,
                "duration": 0.1795455,
                "tempo": 120.0
            },
            {
                "start_time": 64.7977273,
                "end_time": 64.9772727,
                "pitch": 57,
                "velocity": 80,
                "duration": 0.1795455,
                "tempo": 120.0
            },
            {
                "start_time": 65.0090909,
                "end_time": 65.1795455,
                "pitch": 65,
                "velocity": 80,
                "duration": 0.1704545,
                "tempo": 120.0
            },
            {
                "start_time": 65.1977273,
                "end_time": 65.3863636,
                "pitch": 65,
                "velocity": 80,
                "duration": 0.1886364,
                "tempo": 120.0
            },
            {
                "start_time": 65.4022727,
                "end_time": 65.5840909,
                "pitch": 72,
                "velocity": 80,
                "duration": 0.1818182,
                "tempo": 120.0
            },
            {
                "start_time": 65.6,
                "end_time": 65.7795455,
                "pitch": 67,
                "velocity": 80,
                "duration": 0.1795455,
                "tempo": 120.0
            },
            {
                "start_time": 65.7954545,
                "end_time": 65.9840909,
                "pitch": 65,
                "velocity": 80,
                "duration": 0.1886364,
                "tempo": 120.0
            },
            {
                "start_time": 66.0,
                "end_time": 66.1886364,
                "pitch": 72,
                "velocity": 80,
                "duration": 0.1886364,
                "tempo": 120.0
            },
            {
                "start_time": 66.2068182,
                "end_time": 66.3863636,
                "pitch": 65,
                "velocity": 80,
                "duration": 0.1795455,
                "tempo": 120.0
            },
            {
                "start_time": 66.4022727,
                "end_time": 66.5818182,
                "pitch": 67,
                "velocity": 80,
                "duration": 0.1795455,
                "tempo": 120.0
            },
            {
                "start_time": 66.5977273,
                "end_time": 66.7863636,
                "pitch": 65,
                "velocity": 80,
                "duration": 0.1886364,
                "tempo": 120.0
            },
            {
                "start_time": 66.8022727,
                "end_time": 66.9909091,
                "pitch": 67,
                "velocity": 80,
                "duration": 0.1886364,
                "tempo": 120.0
            },
            {
                "start_time": 67.0090909,
                "end_time": 67.1886364,
                "pitch": 74,
                "velocity": 80,
                "duration": 0.1795455,
                "tempo": 120.0
            },
            {
                "start_time": 67.2045455,
                "end_time": 67.3840909,
                "pitch": 69,
                "velocity": 80,
                "duration": 0.1795455,
                "tempo": 120.0
            },
            {
                "start_time": 67.4,
                "end_time": 67.5886364,
                "pitch": 67,
                "velocity": 80,
                "duration": 0.1886364,
                "tempo": 120.0
            },
            {
                "start_time": 67.6045455,
                "end_time": 67.7931818,
                "pitch": 74,
                "velocity": 80,
                "duration": 0.1886364,
                "tempo": 120.0
            },
            {
                "start_time": 67.8113636,
                "end_time": 67.9909091,
                "pitch": 67,
                "velocity": 80,
                "duration": 0.1795455,
                "tempo": 120.0
            },
            {
                "start_time": 68.0068182,
                "end_time": 68.1863636,
                "pitch": 69,
                "velocity": 80,
                "duration": 0.1795455,
                "tempo": 120.0
            },
            {
                "start_time": 68.2022727,
                "end_time": 68.3909091,
                "pitch": 67,
                "velocity": 80,
                "duration": 0.1886364,
                "tempo": 120.0
            },
            {
                "start_time": 68.4090909,
                "end_time": 68.5977273,
                "pitch": 69,
                "velocity": 80,
                "duration": 0.1886364,
                "tempo": 120.0
            },
            {
                "start_time": 68.6136364,
                "end_time": 68.7931818,
                "pitch": 76,
                "velocity": 80,
                "duration": 0.1795455,
                "tempo": 120.0
            },
            {
                "start_time": 68.8090909,
                "end_time": 68.9886364,
                "pitch": 72,
                "velocity": 80,
                "duration": 0.1795455,
                "tempo": 120.0
            },
            {
                "start_time": 69.0068182,
                "end_time": 69.1931818,
                "pitch": 69,
                "velocity": 80,
                "duration": 0.1863636,
                "tempo": 120.0
            },
            {
                "start_time": 69.2113636,
                "end_time": 69.4,
                "pitch": 76,
                "velocity": 80,
                "duration": 0.1886364,
                "tempo": 120.0
            },
            {
                "start_time": 69.4159091,
                "end_time": 69.5954545,
                "pitch": 72,
                "velocity": 80,
                "duration": 0.1795455,
                "tempo": 120.0
            },
            {
                "start_time": 69.6136364,
                "end_time": 69.7931818,
                "pitch": 76,
                "velocity": 80,
                "duration": 0.1795455,
                "tempo": 120.0
            },
            {
                "start_time": 69.8090909,
                "end_time": 69.9954545,
                "pitch": 76,
                "velocity": 80,
                "duration": 0.1863636,
                "tempo": 120.0
            },
            {
                "start_time": 70.0136364,
                "end_time": 70.2022727,
                "pitch": 81,
                "velocity": 80,
                "duration": 0.1886364,
                "tempo": 120.0
            },
            {
                "start_time": 70.2181818,
                "end_time": 70.3977273,
                "pitch": 77,
                "velocity": 80,
                "duration": 0.1795455,
                "tempo": 120.0
            },
            {
                "start_time": 70.4159091,
                "end_time": 70.5954545,
                "pitch": 79,
                "velocity": 80,
                "duration": 0.1795455,
                "tempo": 120.0
            },
            {
                "start_time": 70.6113636,
                "end_time": 70.8,
                "pitch": 76,
                "velocity": 80,
                "duration": 0.1886364,
                "tempo": 120.0
            },
            {
                "start_time": 70.8159091,
                "end_time": 71.0045455,
                "pitch": 77,
                "velocity": 80,
                "duration": 0.1886364,
                "tempo": 120.0
            },
            {
                "start_time": 71.0227273,
                "end_time": 71.2022727,
                "pitch": 74,
                "velocity": 80,
                "duration": 0.1795455,
                "tempo": 120.0
            },
            {
                "start_time": 71.2181818,
                "end_time": 71.3977273,
                "pitch": 76,
                "velocity": 80,
                "duration": 0.1795455,
                "tempo": 120.0
            },
            {
                "start_time": 71.4136364,
                "end_time": 71.6022727,
                "pitch": 72,
                "velocity": 80,
                "duration": 0.1886364,
                "tempo": 120.0
            },
            {
                "start_time": 71.6181818,
                "end_time": 71.8068182,
                "pitch": 65,
                "velocity": 80,
                "duration": 0.1886364,
                "tempo": 120.0
            },
            {
                "start_time": 71.825,
                "end_time": 72.0045455,
                "pitch": 72,
                "velocity": 80,
                "duration": 0.1795455,
                "tempo": 120.0
            },
            {
                "start_time": 72.0204545,
                "end_time": 72.2,
                "pitch": 67,
                "velocity": 80,
                "duration": 0.1795455,
                "tempo": 120.0
            },
            {
                "start_time": 72.2159091,
                "end_time": 72.4045455,
                "pitch": 65,
                "velocity": 80,
                "duration": 0.1886364,
                "tempo": 120.0
            },
            {
                "start_time": 72.4204545,
                "end_time": 72.6090909,
                "pitch": 72,
                "velocity": 80,
                "duration": 0.1886364,
                "tempo": 120.0
            },
            {
                "start_time": 72.6272727,
                "end_time": 72.8068182,
                "pitch": 65,
                "velocity": 80,
                "duration": 0.1795455,
                "tempo": 120.0
            },
            {
                "start_time": 72.8227273,
                "end_time": 73.0022727,
                "pitch": 67,
                "velocity": 80,
                "duration": 0.1795455,
                "tempo": 120.0
            },
            {
                "start_time": 73.0181818,
                "end_time": 73.2068182,
                "pitch": 65,
                "velocity": 80,
                "duration": 0.1886364,
                "tempo": 120.0
            },
            {
                "start_time": 73.225,
                "end_time": 73.4136364,
                "pitch": 67,
                "velocity": 80,
                "duration": 0.1886364,
                "tempo": 120.0
            },
            {
                "start_time": 73.4295455,
                "end_time": 73.6090909,
                "pitch": 74,
                "velocity": 80,
                "duration": 0.1795455,
                "tempo": 120.0
            },
            {
                "start_time": 73.625,
                "end_time": 73.8045455,
                "pitch": 69,
                "velocity": 80,
                "duration": 0.1795455,
                "tempo": 120.0
            },
            {
                "start_time": 73.8227273,
                "end_time": 74.0090909,
                "pitch": 67,
                "velocity": 80,
                "duration": 0.1863636,
                "tempo": 120.0
            },
            {
                "start_time": 74.0272727,
                "end_time": 74.2159091,
                "pitch": 74,
                "velocity": 80,
                "duration": 0.1886364,
                "tempo": 120.0
            },
            {
                "start_time": 74.2318182,
                "end_time": 74.4113636,
                "pitch": 67,
                "velocity": 80,
                "duration": 0.1795455,
                "tempo": 120.0
            },
            {
                "start_time": 74.4272727,
                "end_time": 74.6090909,
                "pitch": 69,
                "velocity": 80,
                "duration": 0.1818182,
                "tempo": 120.0
            },
            {
                "start_time": 74.625,
                "end_time": 74.8113636,
                "pitch": 67,
                "velocity": 80,
                "duration": 0.1863636,
                "tempo": 120.0
            },
            {
                "start_time": 74.8295455,
                "end_time": 75.0181818,
                "pitch": 69,
                "velocity": 80,
                "duration": 0.1886364,
                "tempo": 120.0
            },
            {
                "start_time": 75.0340909,
                "end_time": 75.2136364,
                "pitch": 76,
                "velocity": 80,
                "duration": 0.1795455,
                "tempo": 120.0
            },
            {
                "start_time": 75.2318182,
                "end_time": 75.4113636,
                "pitch": 72,
                "velocity": 80,
                "duration": 0.1795455,
                "tempo": 120.0
            },
            {
                "start_time": 75.4272727,
                "end_time": 75.6159091,
                "pitch": 69,
                "velocity": 80,
                "duration": 0.1886364,
                "tempo": 120.0
            },
            {
                "start_time": 75.6318182,
                "end_time": 75.8204545,
                "pitch": 76,
                "velocity": 80,
                "duration": 0.1886364,
                "tempo": 120.0
            },
            {
                "start_time": 75.8386364,
                "end_time": 76.0181818,
                "pitch": 72,
                "velocity": 80,
                "duration": 0.1795455,
                "tempo": 120.0
            },
            {
                "start_time": 76.0340909,
                "end_time": 76.2136364,
                "pitch": 76,
                "velocity": 80,
                "duration": 0.1795455,
                "tempo": 120.0
            },
            {
                "start_time": 76.2295455,
                "end_time": 76.3159091,
                "pitch": 67,
                "velocity": 80,
                "duration": 0.0863636,
                "tempo": 120.0
            },
            {
                "start_time": 76.3340909,
                "end_time": 76.4227273,
                "pitch": 62,
                "velocity": 80,
                "duration": 0.0886364,
                "tempo": 120.0
            },
            {
                "start_time": 76.4386364,
                "end_time": 76.5272727,
                "pitch": 65,
                "velocity": 80,
                "duration": 0.0886364,
                "tempo": 120.0
            },
            {
                "start_time": 76.5454545,
                "end_time": 76.6340909,
                "pitch": 67,
                "velocity": 80,
                "duration": 0.0886364,
                "tempo": 120.0
            },
            {
                "start_time": 76.65,
                "end_time": 76.7340909,
                "pitch": 62,
                "velocity": 80,
                "duration": 0.0840909,
                "tempo": 120.0
            },
            {
                "start_time": 76.75,
                "end_time": 76.8318182,
                "pitch": 65,
                "velocity": 80,
                "duration": 0.0818182,
                "tempo": 120.0
            },
            {
                "start_time": 76.8477273,
                "end_time": 76.9295455,
                "pitch": 67,
                "velocity": 80,
                "duration": 0.0818182,
                "tempo": 120.0
            },
            {
                "start_time": 76.9454545,
                "end_time": 77.0272727,
                "pitch": 62,
                "velocity": 80,
                "duration": 0.0818182,
                "tempo": 120.0
            },
            {
                "start_time": 77.0431818,
                "end_time": 77.1272727,
                "pitch": 65,
                "velocity": 80,
                "duration": 0.0840909,
                "tempo": 120.0
            },
            {
                "start_time": 77.1431818,
                "end_time": 77.2272727,
                "pitch": 67,
                "velocity": 80,
                "duration": 0.0840909,
                "tempo": 120.0
            },
            {
                "start_time": 77.2454545,
                "end_time": 77.3295455,
                "pitch": 62,
                "velocity": 80,
                "duration": 0.0840909,
                "tempo": 120.0
            },
            {
                "start_time": 77.3454545,
                "end_time": 77.4295455,
                "pitch": 65,
                "velocity": 80,
                "duration": 0.0840909,
                "tempo": 120.0
            },
            {
                "start_time": 77.4454545,
                "end_time": 77.5318182,
                "pitch": 67,
                "velocity": 80,
                "duration": 0.0863636,
                "tempo": 120.0
            },
            {
                "start_time": 77.5477273,
                "end_time": 77.6340909,
                "pitch": 62,
                "velocity": 80,
                "duration": 0.0863636,
                "tempo": 120.0
            },
            {
                "start_time": 77.6522727,
                "end_time": 77.7363636,
                "pitch": 65,
                "velocity": 80,
                "duration": 0.0840909,
                "tempo": 120.0
            },
            {
                "start_time": 77.7545455,
                "end_time": 77.8386364,
                "pitch": 67,
                "velocity": 80,
                "duration": 0.0840909,
                "tempo": 120.0
            },
            {
                "start_time": 77.8568182,
                "end_time": 79.4272727,
                "pitch": 48,
                "velocity": 80,
                "duration": 1.5704545,
                "tempo": 120.0
            },
            {
                "start_time": 79.4454545,
                "end_time": 81.0340909,
                "pitch": 48,
                "velocity": 80,
                "duration": 1.5886364,
                "tempo": 120.0
            },
            {
                "start_time": 81.05,
                "end_time": 82.6386364,
                "pitch": 53,
                "velocity": 80,
                "duration": 1.5886364,
                "tempo": 120.0
            },
            {
                "start_time": 82.6545455,
                "end_time": 84.2431818,
                "pitch": 53,
                "velocity": 80,
                "duration": 1.5886364,
                "tempo": 120.0
            },
            {
                "start_time": 84.2590909,
                "end_time": 85.85,
                "pitch": 48,
                "velocity": 80,
                "duration": 1.5909091,
                "tempo": 120.0
            },
            {
                "start_time": 85.8659091,
                "end_time": 87.4545455,
                "pitch": 48,
                "velocity": 80,
                "duration": 1.5886364,
                "tempo": 120.0
            },
            {
                "start_time": 87.4704545,
                "end_time": 89.0590909,
                "pitch": 47,
                "velocity": 80,
                "duration": 1.5886364,
                "tempo": 120.0
            },
            {
                "start_time": 89.275,
                "end_time": 89.4590909,
                "pitch": 47,
                "velocity": 80,
                "duration": 0.1840909,
                "tempo": 120.0
            },
            {
                "start_time": 89.8795455,
                "end_time": 90.6636364,
                "pitch": 47,
                "velocity": 80,
                "duration": 0.7840909,
                "tempo": 120.0
            },
            {
                "start_time": 90.6818182,
                "end_time": 92.2704545,
                "pitch": 48,
                "velocity": 80,
                "duration": 1.5886364,
                "tempo": 120.0
            },
            {
                "start_time": 92.2863636,
                "end_time": 93.875,
                "pitch": 48,
                "velocity": 80,
                "duration": 1.5886364,
                "tempo": 120.0
            },
            {
                "start_time": 93.8931818,
                "end_time": 95.4818182,
                "pitch": 50,
                "velocity": 80,
                "duration": 1.5886364,
                "tempo": 120.0
            },
            {
                "start_time": 95.4977273,
                "end_time": 97.0863636,
                "pitch": 50,
                "velocity": 80,
                "duration": 1.5886364,
                "tempo": 120.0
            },
            {
                "start_time": 97.1022727,
                "end_time": 98.6909091,
                "pitch": 48,
                "velocity": 80,
                "duration": 1.5886364,
                "tempo": 120.0
            },
            {
                "start_time": 98.7090909,
                "end_time": 100.2977273,
                "pitch": 48,
                "velocity": 80,
                "duration": 1.5886364,
                "tempo": 120.0
            },
            {
                "start_time": 100.5159091,
                "end_time": 100.7,
                "pitch": 52,
                "velocity": 80,
                "duration": 0.1840909,
                "tempo": 120.0
            },
            {
                "start_time": 101.1272727,
                "end_time": 101.9045455,
                "pitch": 52,
                "velocity": 80,
                "duration": 0.7772727,
                "tempo": 120.0
            },
            {
                "start_time": 102.1272727,
                "end_time": 102.7090909,
                "pitch": 52,
                "velocity": 80,
                "duration": 0.5818182,
                "tempo": 120.0
            },
            {
                "start_time": 102.725,
                "end_time": 103.5113636,
                "pitch": 56,
                "velocity": 80,
                "duration": 0.7863636,
                "tempo": 120.0
            }
        ],
        "Harpsichord": [
            {
                "start_time": 12.6704545,
                "end_time": 12.8545455,
                "pitch": 60,
                "velocity": 51,
                "duration": 0.1840909,
                "tempo": 120.0
            },
            {
                "start_time": 12.8704545,
                "end_time": 13.05,
                "pitch": 62,
                "velocity": 51,
                "duration": 0.1795455,
                "tempo": 120.0
            },
            {
                "start_time": 13.0681818,
                "end_time": 13.2477273,
                "pitch": 64,
                "velocity": 51,
                "duration": 0.1795455,
                "tempo": 120.0
            },
            {
                "start_time": 13.2636364,
                "end_time": 13.4477273,
                "pitch": 67,
                "velocity": 51,
                "duration": 0.1840909,
                "tempo": 120.0
            },
            {
                "start_time": 13.4636364,
                "end_time": 13.6477273,
                "pitch": 69,
                "velocity": 51,
                "duration": 0.1840909,
                "tempo": 120.0
            },
            {
                "start_time": 25.5136364,
                "end_time": 25.6977273,
                "pitch": 60,
                "velocity": 51,
                "duration": 0.1840909,
                "tempo": 120.0
            },
            {
                "start_time": 25.7159091,
                "end_time": 25.8977273,
                "pitch": 62,
                "velocity": 51,
                "duration": 0.1818182,
                "tempo": 120.0
            },
            {
                "start_time": 25.9159091,
                "end_time": 26.0977273,
                "pitch": 64,
                "velocity": 51,
                "duration": 0.1818182,
                "tempo": 120.0
            },
            {
                "start_time": 26.1136364,
                "end_time": 26.2954545,
                "pitch": 67,
                "velocity": 51,
                "duration": 0.1818182,
                "tempo": 120.0
            },
            {
                "start_time": 26.3113636,
                "end_time": 26.4909091,
                "pitch": 69,
                "velocity": 51,
                "duration": 0.1795455,
                "tempo": 120.0
            },
            {
                "start_time": 26.5090909,
                "end_time": 26.6954545,
                "pitch": 65,
                "velocity": 51,
                "duration": 0.1863636,
                "tempo": 120.0
            },
            {
                "start_time": 26.7136364,
                "end_time": 26.9,
                "pitch": 72,
                "velocity": 51,
                "duration": 0.1863636,
                "tempo": 120.0
            },
            {
                "start_time": 26.9181818,
                "end_time": 27.0977273,
                "pitch": 67,
                "velocity": 51,
                "duration": 0.1795455,
                "tempo": 120.0
            },
            {
                "start_time": 27.1136364,
                "end_time": 27.2931818,
                "pitch": 65,
                "velocity": 51,
                "duration": 0.1795455,
                "tempo": 120.0
            },
            {
                "start_time": 27.3113636,
                "end_time": 27.5,
                "pitch": 72,
                "velocity": 51,
                "duration": 0.1886364,
                "tempo": 120.0
            },
            {
                "start_time": 27.5159091,
                "end_time": 27.7045455,
                "pitch": 65,
                "velocity": 51,
                "duration": 0.1886364,
                "tempo": 120.0
            },
            {
                "start_time": 27.7204545,
                "end_time": 27.9,
                "pitch": 67,
                "velocity": 51,
                "duration": 0.1795455,
                "tempo": 120.0
            },
            {
                "start_time": 27.9159091,
                "end_time": 28.0954545,
                "pitch": 65,
                "velocity": 51,
                "duration": 0.1795455,
                "tempo": 120.0
            },
            {
                "start_time": 28.1136364,
                "end_time": 28.3022727,
                "pitch": 67,
                "velocity": 51,
                "duration": 0.1886364,
                "tempo": 120.0
            },
            {
                "start_time": 28.3181818,
                "end_time": 28.5068182,
                "pitch": 74,
                "velocity": 51,
                "duration": 0.1886364,
                "tempo": 120.0
            },
            {
                "start_time": 28.5227273,
                "end_time": 28.7022727,
                "pitch": 69,
                "velocity": 51,
                "duration": 0.1795455,
                "tempo": 120.0
            },
            {
                "start_time": 28.7181818,
                "end_time": 28.8977273,
                "pitch": 67,
                "velocity": 51,
                "duration": 0.1795455,
                "tempo": 120.0
            },
            {
                "start_time": 28.9159091,
                "end_time": 29.1045455,
                "pitch": 74,
                "velocity": 51,
                "duration": 0.1886364,
                "tempo": 120.0
            },
            {
                "start_time": 29.1204545,
                "end_time": 29.3090909,
                "pitch": 67,
                "velocity": 51,
                "duration": 0.1886364,
                "tempo": 120.0
            },
            {
                "start_time": 29.325,
                "end_time": 29.5045455,
                "pitch": 69,
                "velocity": 51,
                "duration": 0.1795455,
                "tempo": 120.0
            },
            {
                "start_time": 29.5204545,
                "end_time": 29.7022727,
                "pitch": 67,
                "velocity": 51,
                "duration": 0.1818182,
                "tempo": 120.0
            },
            {
                "start_time": 29.7181818,
                "end_time": 29.9068182,
                "pitch": 69,
                "velocity": 51,
                "duration": 0.1886364,
                "tempo": 120.0
            },
            {
                "start_time": 29.925,
                "end_time": 30.1113636,
                "pitch": 76,
                "velocity": 51,
                "duration": 0.1863636,
                "tempo": 120.0
            },
            {
                "start_time": 30.1272727,
                "end_time": 30.3068182,
                "pitch": 72,
                "velocity": 51,
                "duration": 0.1795455,
                "tempo": 120.0
            },
            {
                "start_time": 30.325,
                "end_time": 30.5045455,
                "pitch": 81,
                "velocity": 51,
                "duration": 0.1795455,
                "tempo": 120.0
            },
            {
                "start_time": 30.5204545,
                "end_time": 30.7090909,
                "pitch": 76,
                "velocity": 51,
                "duration": 0.1886364,
                "tempo": 120.0
            },
            {
                "start_time": 30.7272727,
                "end_time": 30.9136364,
                "pitch": 69,
                "velocity": 51,
                "duration": 0.1863636,
                "tempo": 120.0
            },
            {
                "start_time": 30.9295455,
                "end_time": 31.1113636,
                "pitch": 72,
                "velocity": 51,
                "duration": 0.1818182,
                "tempo": 120.0
            },
            {
                "start_time": 31.1272727,
                "end_time": 31.3068182,
                "pitch": 76,
                "velocity": 51,
                "duration": 0.1795455,
                "tempo": 120.0
            },
            {
                "start_time": 31.325,
                "end_time": 31.5113636,
                "pitch": 81,
                "velocity": 51,
                "duration": 0.1863636,
                "tempo": 120.0
            },
            {
                "start_time": 31.5295455,
                "end_time": 31.7159091,
                "pitch": 77,
                "velocity": 51,
                "duration": 0.1863636,
                "tempo": 120.0
            },
            {
                "start_time": 31.7340909,
                "end_time": 31.9136364,
                "pitch": 79,
                "velocity": 51,
                "duration": 0.1795455,
                "tempo": 120.0
            },
            {
                "start_time": 31.9295455,
                "end_time": 32.1090909,
                "pitch": 76,
                "velocity": 51,
                "duration": 0.1795455,
                "tempo": 120.0
            },
            {
                "start_time": 32.1272727,
                "end_time": 32.3159091,
                "pitch": 77,
                "velocity": 51,
                "duration": 0.1886364,
                "tempo": 120.0
            },
            {
                "start_time": 32.3318182,
                "end_time": 32.5204545,
                "pitch": 74,
                "velocity": 51,
                "duration": 0.1886364,
                "tempo": 120.0
            },
            {
                "start_time": 32.5363636,
                "end_time": 32.7159091,
                "pitch": 76,
                "velocity": 51,
                "duration": 0.1795455,
                "tempo": 120.0
            },
            {
                "start_time": 32.7318182,
                "end_time": 32.9113636,
                "pitch": 72,
                "velocity": 51,
                "duration": 0.1795455,
                "tempo": 120.0
            },
            {
                "start_time": 32.9295455,
                "end_time": 33.1181818,
                "pitch": 65,
                "velocity": 51,
                "duration": 0.1886364,
                "tempo": 120.0
            },
            {
                "start_time": 33.1340909,
                "end_time": 33.3227273,
                "pitch": 72,
                "velocity": 51,
                "duration": 0.1886364,
                "tempo": 120.0
            },
            {
                "start_time": 33.3386364,
                "end_time": 33.5181818,
                "pitch": 67,
                "velocity": 51,
                "duration": 0.1795455,
                "tempo": 120.0
            },
            {
                "start_time": 33.5340909,
                "end_time": 33.7136364,
                "pitch": 65,
                "velocity": 51,
                "duration": 0.1795455,
                "tempo": 120.0
            },
            {
                "start_time": 33.7318182,
                "end_time": 33.9204545,
                "pitch": 72,
                "velocity": 51,
                "duration": 0.1886364,
                "tempo": 120.0
            },
            {
                "start_time": 33.9363636,
                "end_time": 34.125,
                "pitch": 65,
                "velocity": 51,
                "duration": 0.1886364,
                "tempo": 120.0
            },
            {
                "start_time": 34.1409091,
                "end_time": 34.3204545,
                "pitch": 67,
                "velocity": 51,
                "duration": 0.1795455,
                "tempo": 120.0
            },
            {
                "start_time": 34.3363636,
                "end_time": 34.5181818,
                "pitch": 65,
                "velocity": 51,
                "duration": 0.1818182,
                "tempo": 120.0
            },
            {
                "start_time": 34.5340909,
                "end_time": 34.7227273,
                "pitch": 67,
                "velocity": 51,
                "duration": 0.1886364,
                "tempo": 120.0
            },
            {
                "start_time": 34.7409091,
                "end_time": 34.9272727,
                "pitch": 74,
                "velocity": 51,
                "duration": 0.1863636,
                "tempo": 120.0
            },
            {
                "start_time": 34.9431818,
                "end_time": 35.1227273,
                "pitch": 69,
                "velocity": 51,
                "duration": 0.1795455,
                "tempo": 120.0
            },
            {
                "start_time": 35.1409091,
                "end_time": 35.3204545,
                "pitch": 67,
                "velocity": 51,
                "duration": 0.1795455,
                "tempo": 120.0
            },
            {
                "start_time": 35.3363636,
                "end_time": 35.525,
                "pitch": 74,
                "velocity": 51,
                "duration": 0.1886364,
                "tempo": 120.0
            },
            {
                "start_time": 35.5431818,
                "end_time": 35.7295455,
                "pitch": 67,
                "velocity": 51,
                "duration": 0.1863636,
                "tempo": 120.0
            },
            {
                "start_time": 35.7454545,
                "end_time": 35.9272727,
                "pitch": 69,
                "velocity": 51,
                "duration": 0.1818182,
                "tempo": 120.0
            },
            {
                "start_time": 35.9431818,
                "end_time": 36.1227273,
                "pitch": 67,
                "velocity": 51,
                "duration": 0.1795455,
                "tempo": 120.0
            },
            {
                "start_time": 36.1386364,
                "end_time": 36.3272727,
                "pitch": 69,
                "velocity": 51,
                "duration": 0.1886364,
                "tempo": 120.0
            },
            {
                "start_time": 36.3454545,
                "end_time": 36.5318182,
                "pitch": 76,
                "velocity": 51,
                "duration": 0.1863636,
                "tempo": 120.0
            },
            {
                "start_time": 36.55,
                "end_time": 36.7295455,
                "pitch": 72,
                "velocity": 51,
                "duration": 0.1795455,
                "tempo": 120.0
            },
            {
                "start_time": 36.7454545,
                "end_time": 36.925,
                "pitch": 81,
                "velocity": 51,
                "duration": 0.1795455,
                "tempo": 120.0
            },
            {
                "start_time": 36.9431818,
                "end_time": 37.1318182,
                "pitch": 76,
                "velocity": 51,
                "duration": 0.1886364,
                "tempo": 120.0
            },
            {
                "start_time": 37.1477273,
                "end_time": 37.3363636,
                "pitch": 69,
                "velocity": 51,
                "duration": 0.1886364,
                "tempo": 120.0
            },
            {
                "start_time": 37.3522727,
                "end_time": 37.5318182,
                "pitch": 72,
                "velocity": 51,
                "duration": 0.1795455,
                "tempo": 120.0
            },
            {
                "start_time": 37.5477273,
                "end_time": 37.7272727,
                "pitch": 76,
                "velocity": 51,
                "duration": 0.1795455,
                "tempo": 120.0
            },
            {
                "start_time": 37.7454545,
                "end_time": 37.9340909,
                "pitch": 72,
                "velocity": 51,
                "duration": 0.1886364,
                "tempo": 120.0
            },
            {
                "start_time": 37.95,
                "end_time": 38.1386364,
                "pitch": 72,
                "velocity": 51,
                "duration": 0.1886364,
                "tempo": 120.0
            },
            {
                "start_time": 38.1545455,
                "end_time": 38.3340909,
                "pitch": 71,
                "velocity": 51,
                "duration": 0.1795455,
                "tempo": 120.0
            },
            {
                "start_time": 38.35,
                "end_time": 38.5295455,
                "pitch": 72,
                "velocity": 51,
                "duration": 0.1795455,
                "tempo": 120.0
            },
            {
                "start_time": 38.5477273,
                "end_time": 38.7363636,
                "pitch": 73,
                "velocity": 51,
                "duration": 0.1886364,
                "tempo": 120.0
            },
            {
                "start_time": 38.7522727,
                "end_time": 38.9409091,
                "pitch": 74,
                "velocity": 51,
                "duration": 0.1886364,
                "tempo": 120.0
            },
            {
                "start_time": 38.9568182,
                "end_time": 39.1363636,
                "pitch": 75,
                "velocity": 51,
                "duration": 0.1795455,
                "tempo": 120.0
            },
            {
                "start_time": 39.1522727,
                "end_time": 39.3340909,
                "pitch": 76,
                "velocity": 51,
                "duration": 0.1818182,
                "tempo": 120.0
            },
            {
                "start_time": 51.1954545,
                "end_time": 51.3795455,
                "pitch": 60,
                "velocity": 51,
                "duration": 0.1840909,
                "tempo": 120.0
            },
            {
                "start_time": 51.3954545,
                "end_time": 51.575,
                "pitch": 62,
                "velocity": 51,
                "duration": 0.1795455,
                "tempo": 120.0
            },
            {
                "start_time": 51.5909091,
                "end_time": 51.7704545,
                "pitch": 64,
                "velocity": 51,
                "duration": 0.1795455,
                "tempo": 120.0
            },
            {
                "start_time": 51.7886364,
                "end_time": 51.9704545,
                "pitch": 67,
                "velocity": 51,
                "duration": 0.1818182,
                "tempo": 120.0
            },
            {
                "start_time": 51.9886364,
                "end_time": 52.1704545,
                "pitch": 69,
                "velocity": 51,
                "duration": 0.1818182,
                "tempo": 120.0
            },
            {
                "start_time": 64.0318182,
                "end_time": 64.2136364,
                "pitch": 60,
                "velocity": 51,
                "duration": 0.1818182,
                "tempo": 120.0
            },
            {
                "start_time": 64.2318182,
                "end_time": 64.4159091,
                "pitch": 62,
                "velocity": 51,
                "duration": 0.1840909,
                "tempo": 120.0
            },
            {
                "start_time": 64.4318182,
                "end_time": 64.6159091,
                "pitch": 64,
                "velocity": 51,
                "duration": 0.1840909,
                "tempo": 120.0
            },
            {
                "start_time": 64.6340909,
                "end_time": 64.8136364,
                "pitch": 67,
                "velocity": 51,
                "duration": 0.1795455,
                "tempo": 120.0
            },
            {
                "start_time": 64.8295455,
                "end_time": 65.0090909,
                "pitch": 69,
                "velocity": 51,
                "duration": 0.1795455,
                "tempo": 120.0
            },
            {
                "start_time": 65.0272727,
                "end_time": 65.2159091,
                "pitch": 65,
                "velocity": 51,
                "duration": 0.1886364,
                "tempo": 120.0
            },
            {
                "start_time": 65.2318182,
                "end_time": 65.4204545,
                "pitch": 65,
                "velocity": 51,
                "duration": 0.1886364,
                "tempo": 120.0
            },
            {
                "start_time": 65.4363636,
                "end_time": 65.6159091,
                "pitch": 72,
                "velocity": 51,
                "duration": 0.1795455,
                "tempo": 120.0
            },
            {
                "start_time": 65.6318182,
                "end_time": 65.8113636,
                "pitch": 67,
                "velocity": 51,
                "duration": 0.1795455,
                "tempo": 120.0
            },
            {
                "start_time": 65.8295455,
                "end_time": 66.0181818,
                "pitch": 65,
                "velocity": 51,
                "duration": 0.1886364,
                "tempo": 120.0
            },
            {
                "start_time": 66.0340909,
                "end_time": 66.2227273,
                "pitch": 72,
                "velocity": 51,
                "duration": 0.1886364,
                "tempo": 120.0
            },
            {
                "start_time": 66.2386364,
                "end_time": 66.4181818,
                "pitch": 65,
                "velocity": 51,
                "duration": 0.1795455,
                "tempo": 120.0
            },
            {
                "start_time": 66.4340909,
                "end_time": 66.6136364,
                "pitch": 67,
                "velocity": 51,
                "duration": 0.1795455,
                "tempo": 120.0
            },
            {
                "start_time": 66.6318182,
                "end_time": 66.8204545,
                "pitch": 65,
                "velocity": 51,
                "duration": 0.1886364,
                "tempo": 120.0
            },
            {
                "start_time": 66.8363636,
                "end_time": 67.025,
                "pitch": 67,
                "velocity": 51,
                "duration": 0.1886364,
                "tempo": 120.0
            },
            {
                "start_time": 67.0409091,
                "end_time": 67.2204545,
                "pitch": 74,
                "velocity": 51,
                "duration": 0.1795455,
                "tempo": 120.0
            },
            {
                "start_time": 67.2363636,
                "end_time": 67.4181818,
                "pitch": 69,
                "velocity": 51,
                "duration": 0.1818182,
                "tempo": 120.0
            },
            {
                "start_time": 67.4340909,
                "end_time": 67.6227273,
                "pitch": 67,
                "velocity": 51,
                "duration": 0.1886364,
                "tempo": 120.0
            },
            {
                "start_time": 67.6409091,
                "end_time": 67.8272727,
                "pitch": 74,
                "velocity": 51,
                "duration": 0.1863636,
                "tempo": 120.0
            },
            {
                "start_time": 67.8431818,
                "end_time": 68.0227273,
                "pitch": 67,
                "velocity": 51,
                "duration": 0.1795455,
                "tempo": 120.0
            },
            {
                "start_time": 68.0409091,
                "end_time": 68.2204545,
                "pitch": 69,
                "velocity": 51,
                "duration": 0.1795455,
                "tempo": 120.0
            },
            {
                "start_time": 68.2363636,
                "end_time": 68.425,
                "pitch": 67,
                "velocity": 51,
                "duration": 0.1886364,
                "tempo": 120.0
            },
            {
                "start_time": 68.4431818,
                "end_time": 68.6295455,
                "pitch": 69,
                "velocity": 51,
                "duration": 0.1863636,
                "tempo": 120.0
            },
            {
                "start_time": 68.6454545,
                "end_time": 68.8272727,
                "pitch": 76,
                "velocity": 51,
                "duration": 0.1818182,
                "tempo": 120.0
            },
            {
                "start_time": 68.8431818,
                "end_time": 69.0227273,
                "pitch": 72,
                "velocity": 51,
                "duration": 0.1795455,
                "tempo": 120.0
            },
            {
                "start_time": 69.0386364,
                "end_time": 69.2272727,
                "pitch": 69,
                "velocity": 51,
                "duration": 0.1886364,
                "tempo": 120.0
            },
            {
                "start_time": 69.2454545,
                "end_time": 69.4318182,
                "pitch": 76,
                "velocity": 51,
                "duration": 0.1863636,
                "tempo": 120.0
            },
            {
                "start_time": 69.45,
                "end_time": 69.6295455,
                "pitch": 72,
                "velocity": 51,
                "duration": 0.1795455,
                "tempo": 120.0
            },
            {
                "start_time": 69.6454545,
                "end_time": 69.825,
                "pitch": 76,
                "velocity": 51,
                "duration": 0.1795455,
                "tempo": 120.0
            },
            {
                "start_time": 69.8431818,
                "end_time": 70.0318182,
                "pitch": 76,
                "velocity": 51,
                "duration": 0.1886364,
                "tempo": 120.0
            },
            {
                "start_time": 70.0477273,
                "end_time": 70.2363636,
                "pitch": 81,
                "velocity": 51,
                "duration": 0.1886364,
                "tempo": 120.0
            },
            {
                "start_time": 70.2522727,
                "end_time": 70.4318182,
                "pitch": 77,
                "velocity": 51,
                "duration": 0.1795455,
                "tempo": 120.0
            },
            {
                "start_time": 70.4477273,
                "end_time": 70.6272727,
                "pitch": 79,
                "velocity": 51,
                "duration": 0.1795455,
                "tempo": 120.0
            },
            {
                "start_time": 70.6454545,
                "end_time": 70.8340909,
                "pitch": 76,
                "velocity": 51,
                "duration": 0.1886364,
                "tempo": 120.0
            },
            {
                "start_time": 70.85,
                "end_time": 71.0386364,
                "pitch": 77,
                "velocity": 51,
                "duration": 0.1886364,
                "tempo": 120.0
            },
            {
                "start_time": 71.0545455,
                "end_time": 71.2340909,
                "pitch": 74,
                "velocity": 51,
                "duration": 0.1795455,
                "tempo": 120.0
            },
            {
                "start_time": 71.25,
                "end_time": 71.4295455,
                "pitch": 76,
                "velocity": 51,
                "duration": 0.1795455,
                "tempo": 120.0
            },
            {
                "start_time": 71.4477273,
                "end_time": 71.6363636,
                "pitch": 72,
                "velocity": 51,
                "duration": 0.1886364,
                "tempo": 120.0
            },
            {
                "start_time": 71.6522727,
                "end_time": 71.8409091,
                "pitch": 65,
                "velocity": 51,
                "duration": 0.1886364,
                "tempo": 120.0
            },
            {
                "start_time": 71.8568182,
                "end_time": 72.0363636,
                "pitch": 72,
                "velocity": 51,
                "duration": 0.1795455,
                "tempo": 120.0
            },
            {
                "start_time": 72.0522727,
                "end_time": 72.2340909,
                "pitch": 67,
                "velocity": 51,
                "duration": 0.1818182,
                "tempo": 120.0
            },
            {
                "start_time": 72.25,
                "end_time": 72.4386364,
                "pitch": 65,
                "velocity": 51,
                "duration": 0.1886364,
                "tempo": 120.0
            },
            {
                "start_time": 72.4568182,
                "end_time": 72.6431818,
                "pitch": 72,
                "velocity": 51,
                "duration": 0.1863636,
                "tempo": 120.0
            },
            {
                "start_time": 72.6590909,
                "end_time": 72.8386364,
                "pitch": 65,
                "velocity": 51,
                "duration": 0.1795455,
                "tempo": 120.0
            },
            {
                "start_time": 72.8568182,
                "end_time": 73.0363636,
                "pitch": 67,
                "velocity": 51,
                "duration": 0.1795455,
                "tempo": 120.0
            },
            {
                "start_time": 73.0522727,
                "end_time": 73.2409091,
                "pitch": 65,
                "velocity": 51,
                "duration": 0.1886364,
                "tempo": 120.0
            },
            {
                "start_time": 73.2590909,
                "end_time": 73.4454545,
                "pitch": 67,
                "velocity": 51,
                "duration": 0.1863636,
                "tempo": 120.0
            },
            {
                "start_time": 73.4613636,
                "end_time": 73.6431818,
                "pitch": 74,
                "velocity": 51,
                "duration": 0.1818182,
                "tempo": 120.0
            },
            {
                "start_time": 73.6590909,
                "end_time": 73.8386364,
                "pitch": 69,
                "velocity": 51,
                "duration": 0.1795455,
                "tempo": 120.0
            },
            {
                "start_time": 73.8545455,
                "end_time": 74.0431818,
                "pitch": 67,
                "velocity": 51,
                "duration": 0.1886364,
                "tempo": 120.0
            },
            {
                "start_time": 74.0613636,
                "end_time": 74.2477273,
                "pitch": 74,
                "velocity": 51,
                "duration": 0.1863636,
                "tempo": 120.0
            },
            {
                "start_time": 74.2659091,
                "end_time": 74.4454545,
                "pitch": 67,
                "velocity": 51,
                "duration": 0.1795455,
                "tempo": 120.0
            },
            {
                "start_time": 74.4613636,
                "end_time": 74.6409091,
                "pitch": 69,
                "velocity": 51,
                "duration": 0.1795455,
                "tempo": 120.0
            },
            {
                "start_time": 74.6590909,
                "end_time": 74.8477273,
                "pitch": 67,
                "velocity": 51,
                "duration": 0.1886364,
                "tempo": 120.0
            },
            {
                "start_time": 74.8636364,
                "end_time": 75.0522727,
                "pitch": 69,
                "velocity": 51,
                "duration": 0.1886364,
                "tempo": 120.0
            },
            {
                "start_time": 75.0681818,
                "end_time": 75.2477273,
                "pitch": 76,
                "velocity": 51,
                "duration": 0.1795455,
                "tempo": 120.0
            },
            {
                "start_time": 75.2636364,
                "end_time": 75.4431818,
                "pitch": 72,
                "velocity": 51,
                "duration": 0.1795455,
                "tempo": 120.0
            },
            {
                "start_time": 75.4613636,
                "end_time": 75.65,
                "pitch": 69,
                "velocity": 51,
                "duration": 0.1886364,
                "tempo": 120.0
            },
            {
                "start_time": 75.6659091,
                "end_time": 75.8545455,
                "pitch": 76,
                "velocity": 51,
                "duration": 0.1886364,
                "tempo": 120.0
            },
            {
                "start_time": 75.8704545,
                "end_time": 76.05,
                "pitch": 72,
                "velocity": 51,
                "duration": 0.1795455,
                "tempo": 120.0
            },
            {
                "start_time": 76.0659091,
                "end_time": 76.2454545,
                "pitch": 76,
                "velocity": 51,
                "duration": 0.1795455,
                "tempo": 120.0
            },
            {
                "start_time": 76.2636364,
                "end_time": 76.3522727,
                "pitch": 67,
                "velocity": 51,
                "duration": 0.0886364,
                "tempo": 120.0
            },
            {
                "start_time": 76.3681818,
                "end_time": 76.4568182,
                "pitch": 62,
                "velocity": 51,
                "duration": 0.0886364,
                "tempo": 120.0
            },
            {
                "start_time": 76.475,
                "end_time": 76.5636364,
                "pitch": 65,
                "velocity": 51,
                "duration": 0.0886364,
                "tempo": 120.0
            },
            {
                "start_time": 76.5795455,
                "end_time": 76.6681818,
                "pitch": 67,
                "velocity": 51,
                "duration": 0.0886364,
                "tempo": 120.0
            },
            {
                "start_time": 76.6840909,
                "end_time": 76.7659091,
                "pitch": 62,
                "velocity": 51,
                "duration": 0.0818182,
                "tempo": 120.0
            },
            {
                "start_time": 76.7818182,
                "end_time": 76.8636364,
                "pitch": 65,
                "velocity": 51,
                "duration": 0.0818182,
                "tempo": 120.0
            },
            {
                "start_time": 76.8795455,
                "end_time": 76.9613636,
                "pitch": 67,
                "velocity": 51,
                "duration": 0.0818182,
                "tempo": 120.0
            },
            {
                "start_time": 76.9772727,
                "end_time": 77.0590909,
                "pitch": 62,
                "velocity": 51,
                "duration": 0.0818182,
                "tempo": 120.0
            },
            {
                "start_time": 77.0772727,
                "end_time": 77.1613636,
                "pitch": 65,
                "velocity": 51,
                "duration": 0.0840909,
                "tempo": 120.0
            },
            {
                "start_time": 77.1772727,
                "end_time": 77.2613636,
                "pitch": 67,
                "velocity": 51,
                "duration": 0.0840909,
                "tempo": 120.0
            },
            {
                "start_time": 77.2772727,
                "end_time": 77.3613636,
                "pitch": 62,
                "velocity": 51,
                "duration": 0.0840909,
                "tempo": 120.0
            },
            {
                "start_time": 77.3795455,
                "end_time": 77.4636364,
                "pitch": 65,
                "velocity": 51,
                "duration": 0.0840909,
                "tempo": 120.0
            },
            {
                "start_time": 77.4795455,
                "end_time": 77.5659091,
                "pitch": 67,
                "velocity": 51,
                "duration": 0.0863636,
                "tempo": 120.0
            },
            {
                "start_time": 77.5818182,
                "end_time": 77.6681818,
                "pitch": 62,
                "velocity": 51,
                "duration": 0.0863636,
                "tempo": 120.0
            },
            {
                "start_time": 77.6863636,
                "end_time": 77.7704545,
                "pitch": 65,
                "velocity": 51,
                "duration": 0.0840909,
                "tempo": 120.0
            },
            {
                "start_time": 77.7886364,
                "end_time": 77.8727273,
                "pitch": 67,
                "velocity": 51,
                "duration": 0.0840909,
                "tempo": 120.0
            },
            {
                "start_time": 77.8909091,
                "end_time": 79.4613636,
                "pitch": 67,
                "velocity": 51,
                "duration": 1.5704545,
                "tempo": 120.0
            },
            {
                "start_time": 79.6840909,
                "end_time": 79.7340909,
                "pitch": 63,
                "velocity": 51,
                "duration": 0.05,
                "tempo": 120.0
            },
            {
                "start_time": 79.7522727,
                "end_time": 79.8045455,
                "pitch": 64,
                "velocity": 51,
                "duration": 0.0522727,
                "tempo": 120.0
            },
            {
                "start_time": 79.8204545,
                "end_time": 79.8704545,
                "pitch": 65,
                "velocity": 51,
                "duration": 0.05,
                "tempo": 120.0
            },
            {
                "start_time": 79.8886364,
                "end_time": 80.0681818,
                "pitch": 67,
                "velocity": 51,
                "duration": 0.1795455,
                "tempo": 120.0
            },
            {
                "start_time": 80.0840909,
                "end_time": 80.2636364,
                "pitch": 72,
                "velocity": 51,
                "duration": 0.1795455,
                "tempo": 120.0
            },
            {
                "start_time": 80.2818182,
                "end_time": 80.4681818,
                "pitch": 70,
                "velocity": 51,
                "duration": 0.1863636,
                "tempo": 120.0
            },
            {
                "start_time": 80.4863636,
                "end_time": 80.6727273,
                "pitch": 67,
                "velocity": 51,
                "duration": 0.1863636,
                "tempo": 120.0
            },
            {
                "start_time": 80.6909091,
                "end_time": 80.8704545,
                "pitch": 65,
                "velocity": 51,
                "duration": 0.1795455,
                "tempo": 120.0
            },
            {
                "start_time": 80.8863636,
                "end_time": 81.0659091,
                "pitch": 67,
                "velocity": 51,
                "duration": 0.1795455,
                "tempo": 120.0
            },
            {
                "start_time": 81.0840909,
                "end_time": 81.1340909,
                "pitch": 75,
                "velocity": 51,
                "duration": 0.05,
                "tempo": 120.0
            },
            {
                "start_time": 81.1522727,
                "end_time": 81.4772727,
                "pitch": 77,
                "velocity": 51,
                "duration": 0.325,
                "tempo": 120.0
            },
            {
                "start_time": 81.4931818,
                "end_time": 81.8681818,
                "pitch": 75,
                "velocity": 51,
                "duration": 0.375,
                "tempo": 120.0
            },
            {
                "start_time": 81.8863636,
                "end_time": 81.9727273,
                "pitch": 74,
                "velocity": 51,
                "duration": 0.0863636,
                "tempo": 120.0
            },
            {
                "start_time": 81.9886364,
                "end_time": 82.075,
                "pitch": 75,
                "velocity": 51,
                "duration": 0.0863636,
                "tempo": 120.0
            },
            {
                "start_time": 82.0909091,
                "end_time": 82.1772727,
                "pitch": 74,
                "velocity": 51,
                "duration": 0.0863636,
                "tempo": 120.0
            },
            {
                "start_time": 82.1931818,
                "end_time": 82.2795455,
                "pitch": 70,
                "velocity": 51,
                "duration": 0.0863636,
                "tempo": 120.0
            },
            {
                "start_time": 82.2954545,
                "end_time": 82.475,
                "pitch": 65,
                "velocity": 51,
                "duration": 0.1795455,
                "tempo": 120.0
            },
            {
                "start_time": 82.4909091,
                "end_time": 82.6704545,
                "pitch": 63,
                "velocity": 51,
                "duration": 0.1795455,
                "tempo": 120.0
            },
            {
                "start_time": 82.6886364,
                "end_time": 82.8772727,
                "pitch": 62,
                "velocity": 51,
                "duration": 0.1886364,
                "tempo": 120.0
            },
            {
                "start_time": 82.8931818,
                "end_time": 83.0818182,
                "pitch": 58,
                "velocity": 51,
                "duration": 0.1886364,
                "tempo": 120.0
            },
            {
                "start_time": 83.0977273,
                "end_time": 83.1477273,
                "pitch": 65,
                "velocity": 51,
                "duration": 0.05,
                "tempo": 120.0
            },
            {
                "start_time": 83.1636364,
                "end_time": 83.8840909,
                "pitch": 67,
                "velocity": 51,
                "duration": 0.7204545,
                "tempo": 120.0
            },
            {
                "start_time": 83.9,
                "end_time": 84.0795455,
                "pitch": 60,
                "velocity": 51,
                "duration": 0.1795455,
                "tempo": 120.0
            },
            {
                "start_time": 84.0977273,
                "end_time": 84.2772727,
                "pitch": 63,
                "velocity": 51,
                "duration": 0.1795455,
                "tempo": 120.0
            },
            {
                "start_time": 84.2931818,
                "end_time": 84.4818182,
                "pitch": 65,
                "velocity": 51,
                "duration": 0.1886364,
                "tempo": 120.0
            },
            {
                "start_time": 84.5,
                "end_time": 84.5840909,
                "pitch": 63,
                "velocity": 51,
                "duration": 0.0840909,
                "tempo": 120.0
            },
            {
                "start_time": 84.6022727,
                "end_time": 84.6863636,
                "pitch": 65,
                "velocity": 51,
                "duration": 0.0840909,
                "tempo": 120.0
            },
            {
                "start_time": 84.7022727,
                "end_time": 84.8840909,
                "pitch": 67,
                "velocity": 51,
                "duration": 0.1818182,
                "tempo": 120.0
            },
            {
                "start_time": 84.9,
                "end_time": 84.9818182,
                "pitch": 65,
                "velocity": 51,
                "duration": 0.0818182,
                "tempo": 120.0
            },
            {
                "start_time": 84.9977273,
                "end_time": 85.0795455,
                "pitch": 67,
                "velocity": 51,
                "duration": 0.0818182,
                "tempo": 120.0
            },
            {
                "start_time": 85.0977273,
                "end_time": 85.1818182,
                "pitch": 68,
                "velocity": 51,
                "duration": 0.0840909,
                "tempo": 120.0
            },
            {
                "start_time": 85.2,
                "end_time": 85.2840909,
                "pitch": 67,
                "velocity": 51,
                "duration": 0.0840909,
                "tempo": 120.0
            },
            {
                "start_time": 85.3022727,
                "end_time": 85.3886364,
                "pitch": 68,
                "velocity": 51,
                "duration": 0.0863636,
                "tempo": 120.0
            },
            {
                "start_time": 85.4045455,
                "end_time": 85.4886364,
                "pitch": 70,
                "velocity": 51,
                "duration": 0.0840909,
                "tempo": 120.0
            },
            {
                "start_time": 85.5068182,
                "end_time": 85.5886364,
                "pitch": 72,
                "velocity": 51,
                "duration": 0.0818182,
                "tempo": 120.0
            },
            {
                "start_time": 85.6045455,
                "end_time": 85.6863636,
                "pitch": 74,
                "velocity": 51,
                "duration": 0.0818182,
                "tempo": 120.0
            },
            {
                "start_time": 85.7022727,
                "end_time": 85.75,
                "pitch": 75,
                "velocity": 51,
                "duration": 0.0477273,
                "tempo": 120.0
            },
            {
                "start_time": 85.7681818,
                "end_time": 85.8159091,
                "pitch": 77,
                "velocity": 51,
                "duration": 0.0477273,
                "tempo": 120.0
            },
            {
                "start_time": 85.8318182,
                "end_time": 85.8818182,
                "pitch": 79,
                "velocity": 51,
                "duration": 0.05,
                "tempo": 120.0
            },
            {
                "start_time": 85.9,
                "end_time": 85.95,
                "pitch": 80,
                "velocity": 51,
                "duration": 0.05,
                "tempo": 120.0
            },
            {
                "start_time": 85.9681818,
                "end_time": 86.0181818,
                "pitch": 75,
                "velocity": 51,
                "duration": 0.05,
                "tempo": 120.0
            },
            {
                "start_time": 86.0363636,
                "end_time": 86.0886364,
                "pitch": 72,
                "velocity": 51,
                "duration": 0.0522727,
                "tempo": 120.0
            },
            {
                "start_time": 86.1045455,
                "end_time": 86.1568182,
                "pitch": 79,
                "velocity": 51,
                "duration": 0.0522727,
                "tempo": 120.0
            },
            {
                "start_time": 86.1727273,
                "end_time": 86.225,
                "pitch": 75,
                "velocity": 51,
                "duration": 0.0522727,
                "tempo": 120.0
            },
            {
                "start_time": 86.2409091,
                "end_time": 86.2931818,
                "pitch": 72,
                "velocity": 51,
                "duration": 0.0522727,
                "tempo": 120.0
            },
            {
                "start_time": 86.3090909,
                "end_time": 86.3568182,
                "pitch": 80,
                "velocity": 51,
                "duration": 0.0477273,
                "tempo": 120.0
            },
            {
                "start_time": 86.375,
                "end_time": 86.4227273,
                "pitch": 75,
                "velocity": 51,
                "duration": 0.0477273,
                "tempo": 120.0
            },
            {
                "start_time": 86.4386364,
                "end_time": 86.4886364,
                "pitch": 72,
                "velocity": 51,
                "duration": 0.05,
                "tempo": 120.0
            },
            {
                "start_time": 86.5045455,
                "end_time": 86.5545455,
                "pitch": 82,
                "velocity": 51,
                "duration": 0.05,
                "tempo": 120.0
            },
            {
                "start_time": 86.5704545,
                "end_time": 86.6181818,
                "pitch": 75,
                "velocity": 51,
                "duration": 0.0477273,
                "tempo": 120.0
            },
            {
                "start_time": 86.6363636,
                "end_time": 86.6840909,
                "pitch": 72,
                "velocity": 51,
                "duration": 0.0477273,
                "tempo": 120.0
            },
            {
                "start_time": 86.7022727,
                "end_time": 86.7522727,
                "pitch": 80,
                "velocity": 51,
                "duration": 0.05,
                "tempo": 120.0
            },
            {
                "start_time": 86.7704545,
                "end_time": 86.8227273,
                "pitch": 75,
                "velocity": 51,
                "duration": 0.0522727,
                "tempo": 120.0
            },
            {
                "start_time": 86.8386364,
                "end_time": 86.8909091,
                "pitch": 72,
                "velocity": 51,
                "duration": 0.0522727,
                "tempo": 120.0
            },
            {
                "start_time": 86.9068182,
                "end_time": 86.9590909,
                "pitch": 79,
                "velocity": 51,
                "duration": 0.0522727,
                "tempo": 120.0
            },
            {
                "start_time": 86.975,
                "end_time": 87.0272727,
                "pitch": 75,
                "velocity": 51,
                "duration": 0.0522727,
                "tempo": 120.0
            },
            {
                "start_time": 87.0454545,
                "end_time": 87.0954545,
                "pitch": 72,
                "velocity": 51,
                "duration": 0.05,
                "tempo": 120.0
            },
            {
                "start_time": 87.1113636,
                "end_time": 87.1613636,
                "pitch": 80,
                "velocity": 51,
                "duration": 0.05,
                "tempo": 120.0
            },
            {
                "start_time": 87.1772727,
                "end_time": 87.225,
                "pitch": 75,
                "velocity": 51,
                "duration": 0.0477273,
                "tempo": 120.0
            },
            {
                "start_time": 87.2409091,
                "end_time": 87.2909091,
                "pitch": 72,
                "velocity": 51,
                "duration": 0.05,
                "tempo": 120.0
            },
            {
                "start_time": 87.3068182,
                "end_time": 87.3568182,
                "pitch": 82,
                "velocity": 51,
                "duration": 0.05,
                "tempo": 120.0
            },
            {
                "start_time": 87.3727273,
                "end_time": 87.4227273,
                "pitch": 75,
                "velocity": 51,
                "duration": 0.05,
                "tempo": 120.0
            },
            {
                "start_time": 87.4386364,
                "end_time": 87.4863636,
                "pitch": 72,
                "velocity": 51,
                "duration": 0.0477273,
                "tempo": 120.0
            },
            {
                "start_time": 87.5045455,
                "end_time": 87.5568182,
                "pitch": 79,
                "velocity": 51,
                "duration": 0.0522727,
                "tempo": 120.0
            },
            {
                "start_time": 87.5727273,
                "end_time": 87.625,
                "pitch": 74,
                "velocity": 51,
                "duration": 0.0522727,
                "tempo": 120.0
            },
            {
                "start_time": 87.6409091,
                "end_time": 87.6931818,
                "pitch": 71,
                "velocity": 51,
                "duration": 0.0522727,
                "tempo": 120.0
            },
            {
                "start_time": 87.7090909,
                "end_time": 87.7613636,
                "pitch": 79,
                "velocity": 51,
                "duration": 0.0522727,
                "tempo": 120.0
            },
            {
                "start_time": 87.7795455,
                "end_time": 87.8295455,
                "pitch": 74,
                "velocity": 51,
                "duration": 0.05,
                "tempo": 120.0
            },
            {
                "start_time": 87.8477273,
                "end_time": 87.8977273,
                "pitch": 71,
                "velocity": 51,
                "duration": 0.05,
                "tempo": 120.0
            },
            {
                "start_time": 87.9136364,
                "end_time": 87.9636364,
                "pitch": 79,
                "velocity": 51,
                "duration": 0.05,
                "tempo": 120.0
            },
            {
                "start_time": 87.9795455,
                "end_time": 88.0272727,
                "pitch": 74,
                "velocity": 51,
                "duration": 0.0477273,
                "tempo": 120.0
            },
            {
                "start_time": 88.0454545,
                "end_time": 88.0931818,
                "pitch": 71,
                "velocity": 51,
                "duration": 0.0477273,
                "tempo": 120.0
            },
            {
                "start_time": 88.1090909,
                "end_time": 88.1590909,
                "pitch": 79,
                "velocity": 51,
                "duration": 0.05,
                "tempo": 120.0
            },
            {
                "start_time": 88.175,
                "end_time": 88.225,
                "pitch": 74,
                "velocity": 51,
                "duration": 0.05,
                "tempo": 120.0
            },
            {
                "start_time": 88.2409091,
                "end_time": 88.2909091,
                "pitch": 71,
                "velocity": 51,
                "duration": 0.05,
                "tempo": 120.0
            },
            {
                "start_time": 88.3068182,
                "end_time": 88.3590909,
                "pitch": 79,
                "velocity": 51,
                "duration": 0.0522727,
                "tempo": 120.0
            },
            {
                "start_time": 88.375,
                "end_time": 88.4272727,
                "pitch": 74,
                "velocity": 51,
                "duration": 0.0522727,
                "tempo": 120.0
            },
            {
                "start_time": 88.4431818,
                "end_time": 88.4954545,
                "pitch": 71,
                "velocity": 51,
                "duration": 0.0522727,
                "tempo": 120.0
            },
            {
                "start_time": 88.5136364,
                "end_time": 88.5636364,
                "pitch": 79,
                "velocity": 51,
                "duration": 0.05,
                "tempo": 120.0
            },
            {
                "start_time": 88.5818182,
                "end_time": 88.6318182,
                "pitch": 74,
                "velocity": 51,
                "duration": 0.05,
                "tempo": 120.0
            },
            {
                "start_time": 88.65,
                "end_time": 88.7,
                "pitch": 71,
                "velocity": 51,
                "duration": 0.05,
                "tempo": 120.0
            },
            {
                "start_time": 88.7159091,
                "end_time": 88.7659091,
                "pitch": 79,
                "velocity": 51,
                "duration": 0.05,
                "tempo": 120.0
            },
            {
                "start_time": 88.7818182,
                "end_time": 88.8318182,
                "pitch": 74,
                "velocity": 51,
                "duration": 0.05,
                "tempo": 120.0
            },
            {
                "start_time": 88.8477273,
                "end_time": 88.8954545,
                "pitch": 71,
                "velocity": 51,
                "duration": 0.0477273,
                "tempo": 120.0
            },
            {
                "start_time": 88.9136364,
                "end_time": 88.9613636,
                "pitch": 79,
                "velocity": 51,
                "duration": 0.0477273,
                "tempo": 120.0
            },
            {
                "start_time": 88.9772727,
                "end_time": 89.0272727,
                "pitch": 74,
                "velocity": 51,
                "duration": 0.05,
                "tempo": 120.0
            },
            {
                "start_time": 89.0431818,
                "end_time": 89.0931818,
                "pitch": 71,
                "velocity": 51,
                "duration": 0.05,
                "tempo": 120.0
            },
            {
                "start_time": 89.1090909,
                "end_time": 89.1590909,
                "pitch": 74,
                "velocity": 51,
                "duration": 0.05,
                "tempo": 120.0
            },
            {
                "start_time": 89.175,
                "end_time": 89.225,
                "pitch": 77,
                "velocity": 51,
                "duration": 0.05,
                "tempo": 120.0
            },
            {
                "start_time": 89.2431818,
                "end_time": 90.2954545,
                "pitch": 84,
                "velocity": 51,
                "duration": 1.0522727,
                "tempo": 120.0
            },
            {
                "start_time": 90.3113636,
                "end_time": 90.4977273,
                "pitch": 84,
                "velocity": 51,
                "duration": 0.1863636,
                "tempo": 120.0
            },
            {
                "start_time": 90.5136364,
                "end_time": 90.6977273,
                "pitch": 82,
                "velocity": 51,
                "duration": 0.1840909,
                "tempo": 120.0
            },
            {
                "start_time": 90.7159091,
                "end_time": 90.9045455,
                "pitch": 81,
                "velocity": 51,
                "duration": 0.1886364,
                "tempo": 120.0
            },
            {
                "start_time": 91.3204545,
                "end_time": 91.5,
                "pitch": 83,
                "velocity": 51,
                "duration": 0.1795455,
                "tempo": 120.0
            },
            {
                "start_time": 91.5181818,
                "end_time": 91.7068182,
                "pitch": 79,
                "velocity": 51,
                "duration": 0.1886364,
                "tempo": 120.0
            },
            {
                "start_time": 91.7227273,
                "end_time": 91.9113636,
                "pitch": 76,
                "velocity": 51,
                "duration": 0.1886364,
                "tempo": 120.0
            },
            {
                "start_time": 91.9272727,
                "end_time": 92.1068182,
                "pitch": 72,
                "velocity": 51,
                "duration": 0.1795455,
                "tempo": 120.0
            },
            {
                "start_time": 92.1227273,
                "end_time": 92.3045455,
                "pitch": 71,
                "velocity": 51,
                "duration": 0.1818182,
                "tempo": 120.0
            },
            {
                "start_time": 92.3204545,
                "end_time": 92.5090909,
                "pitch": 69,
                "velocity": 51,
                "duration": 0.1886364,
                "tempo": 120.0
            },
            {
                "start_time": 92.5272727,
                "end_time": 92.7136364,
                "pitch": 67,
                "velocity": 51,
                "duration": 0.1863636,
                "tempo": 120.0
            },
            {
                "start_time": 92.7295455,
                "end_time": 92.9090909,
                "pitch": 72,
                "velocity": 51,
                "duration": 0.1795455,
                "tempo": 120.0
            },
            {
                "start_time": 92.9272727,
                "end_time": 93.1068182,
                "pitch": 76,
                "velocity": 51,
                "duration": 0.1795455,
                "tempo": 120.0
            },
            {
                "start_time": 93.1227273,
                "end_time": 93.3113636,
                "pitch": 79,
                "velocity": 51,
                "duration": 0.1886364,
                "tempo": 120.0
            },
            {
                "start_time": 93.3295455,
                "end_time": 93.5159091,
                "pitch": 83,
                "velocity": 51,
                "duration": 0.1863636,
                "tempo": 120.0
            },
            {
                "start_time": 93.5318182,
                "end_time": 93.7136364,
                "pitch": 84,
                "velocity": 51,
                "duration": 0.1818182,
                "tempo": 120.0
            },
            {
                "start_time": 93.7295455,
                "end_time": 93.9090909,
                "pitch": 86,
                "velocity": 51,
                "duration": 0.1795455,
                "tempo": 120.0
            },
            {
                "start_time": 93.925,
                "end_time": 94.0113636,
                "pitch": 83,
                "velocity": 51,
                "duration": 0.0863636,
                "tempo": 120.0
            },
            {
                "start_time": 94.0295455,
                "end_time": 94.1136364,
                "pitch": 84,
                "velocity": 51,
                "duration": 0.0840909,
                "tempo": 120.0
            },
            {
                "start_time": 94.1318182,
                "end_time": 95.3181818,
                "pitch": 83,
                "velocity": 51,
                "duration": 1.1863636,
                "tempo": 120.0
            },
            {
                "start_time": 95.3340909,
                "end_time": 95.4159091,
                "pitch": 81,
                "velocity": 51,
                "duration": 0.0818182,
                "tempo": 120.0
            },
            {
                "start_time": 95.4318182,
                "end_time": 95.5136364,
                "pitch": 83,
                "velocity": 51,
                "duration": 0.0818182,
                "tempo": 120.0
            },
            {
                "start_time": 95.5318182,
                "end_time": 97.1204545,
                "pitch": 79,
                "velocity": 51,
                "duration": 1.5886364,
                "tempo": 120.0
            },
            {
                "start_time": 97.3431818,
                "end_time": 97.5295455,
                "pitch": 76,
                "velocity": 51,
                "duration": 0.1863636,
                "tempo": 120.0
            },
            {
                "start_time": 97.5454545,
                "end_time": 97.725,
                "pitch": 81,
                "velocity": 51,
                "duration": 0.1795455,
                "tempo": 120.0
            },
            {
                "start_time": 97.7431818,
                "end_time": 97.9227273,
                "pitch": 88,
                "velocity": 51,
                "duration": 0.1795455,
                "tempo": 120.0
            },
            {
                "start_time": 98.1454545,
                "end_time": 98.3318182,
                "pitch": 76,
                "velocity": 51,
                "duration": 0.1863636,
                "tempo": 120.0
            },
            {
                "start_time": 98.3477273,
                "end_time": 98.5295455,
                "pitch": 81,
                "velocity": 51,
                "duration": 0.1818182,
                "tempo": 120.0
            },
            {
                "start_time": 98.5454545,
                "end_time": 98.725,
                "pitch": 88,
                "velocity": 51,
                "duration": 0.1795455,
                "tempo": 120.0
            },
            {
                "start_time": 98.9477273,
                "end_time": 99.1340909,
                "pitch": 76,
                "velocity": 51,
                "duration": 0.1863636,
                "tempo": 120.0
            },
            {
                "start_time": 99.1522727,
                "end_time": 99.3318182,
                "pitch": 81,
                "velocity": 51,
                "duration": 0.1795455,
                "tempo": 120.0
            },
            {
                "start_time": 99.3477273,
                "end_time": 99.5272727,
                "pitch": 88,
                "velocity": 51,
                "duration": 0.1795455,
                "tempo": 120.0
            },
            {
                "start_time": 99.75,
                "end_time": 99.9386364,
                "pitch": 76,
                "velocity": 51,
                "duration": 0.1886364,
                "tempo": 120.0
            },
            {
                "start_time": 99.9545455,
                "end_time": 100.1340909,
                "pitch": 81,
                "velocity": 51,
                "duration": 0.1795455,
                "tempo": 120.0
            },
            {
                "start_time": 100.15,
                "end_time": 100.3295455,
                "pitch": 88,
                "velocity": 51,
                "duration": 0.1795455,
                "tempo": 120.0
            },
            {
                "start_time": 100.3477273,
                "end_time": 100.4318182,
                "pitch": 89,
                "velocity": 51,
                "duration": 0.0840909,
                "tempo": 120.0
            },
            {
                "start_time": 100.4477273,
                "end_time": 100.5318182,
                "pitch": 84,
                "velocity": 51,
                "duration": 0.0840909,
                "tempo": 120.0
            },
            {
                "start_time": 100.5477273,
                "end_time": 100.6318182,
                "pitch": 89,
                "velocity": 51,
                "duration": 0.0840909,
                "tempo": 120.0
            },
            {
                "start_time": 100.65,
                "end_time": 100.7340909,
                "pitch": 84,
                "velocity": 51,
                "duration": 0.0840909,
                "tempo": 120.0
            },
            {
                "start_time": 100.75,
                "end_time": 100.8363636,
                "pitch": 89,
                "velocity": 51,
                "duration": 0.0863636,
                "tempo": 120.0
            },
            {
                "start_time": 100.8522727,
                "end_time": 100.9386364,
                "pitch": 84,
                "velocity": 51,
                "duration": 0.0863636,
                "tempo": 120.0
            },
            {
                "start_time": 100.9545455,
                "end_time": 101.0409091,
                "pitch": 89,
                "velocity": 51,
                "duration": 0.0863636,
                "tempo": 120.0
            },
            {
                "start_time": 101.0590909,
                "end_time": 101.1431818,
                "pitch": 84,
                "velocity": 51,
                "duration": 0.0840909,
                "tempo": 120.0
            },
            {
                "start_time": 101.1590909,
                "end_time": 101.2409091,
                "pitch": 89,
                "velocity": 51,
                "duration": 0.0818182,
                "tempo": 120.0
            },
            {
                "start_time": 101.2568182,
                "end_time": 101.3386364,
                "pitch": 88,
                "velocity": 51,
                "duration": 0.0818182,
                "tempo": 120.0
            },
            {
                "start_time": 101.3545455,
                "end_time": 101.4363636,
                "pitch": 86,
                "velocity": 51,
                "duration": 0.0818182,
                "tempo": 120.0
            },
            {
                "start_time": 101.4545455,
                "end_time": 101.5363636,
                "pitch": 84,
                "velocity": 51,
                "duration": 0.0818182,
                "tempo": 120.0
            },
            {
                "start_time": 101.5522727,
                "end_time": 101.6363636,
                "pitch": 86,
                "velocity": 51,
                "duration": 0.0840909,
                "tempo": 120.0
            },
            {
                "start_time": 101.6522727,
                "end_time": 101.7363636,
                "pitch": 84,
                "velocity": 51,
                "duration": 0.0840909,
                "tempo": 120.0
            },
            {
                "start_time": 101.7545455,
                "end_time": 101.8386364,
                "pitch": 83,
                "velocity": 51,
                "duration": 0.0840909,
                "tempo": 120.0
            },
            {
                "start_time": 101.8545455,
                "end_time": 101.9386364,
                "pitch": 81,
                "velocity": 51,
                "duration": 0.0840909,
                "tempo": 120.0
            },
            {
                "start_time": 101.9568182,
                "end_time": 102.0409091,
                "pitch": 79,
                "velocity": 51,
                "duration": 0.0840909,
                "tempo": 120.0
            },
            {
                "start_time": 102.0590909,
                "end_time": 102.1431818,
                "pitch": 77,
                "velocity": 51,
                "duration": 0.0840909,
                "tempo": 120.0
            },
            {
                "start_time": 102.1613636,
                "end_time": 102.2477273,
                "pitch": 76,
                "velocity": 51,
                "duration": 0.0863636,
                "tempo": 120.0
            },
            {
                "start_time": 102.2636364,
                "end_time": 102.3477273,
                "pitch": 74,
                "velocity": 51,
                "duration": 0.0840909,
                "tempo": 120.0
            },
            {
                "start_time": 102.3659091,
                "end_time": 102.4477273,
                "pitch": 72,
                "velocity": 51,
                "duration": 0.0818182,
                "tempo": 120.0
            },
            {
                "start_time": 102.4636364,
                "end_time": 102.5454545,
                "pitch": 71,
                "velocity": 51,
                "duration": 0.0818182,
                "tempo": 120.0
            },
            {
                "start_time": 102.5613636,
                "end_time": 102.6431818,
                "pitch": 69,
                "velocity": 51,
                "duration": 0.0818182,
                "tempo": 120.0
            },
            {
                "start_time": 102.6590909,
                "end_time": 102.7409091,
                "pitch": 67,
                "velocity": 51,
                "duration": 0.0818182,
                "tempo": 120.0
            },
            {
                "start_time": 102.7590909,
                "end_time": 102.8431818,
                "pitch": 65,
                "velocity": 51,
                "duration": 0.0840909,
                "tempo": 120.0
            },
            {
                "start_time": 102.8590909,
                "end_time": 102.9431818,
                "pitch": 67,
                "velocity": 51,
                "duration": 0.0840909,
                "tempo": 120.0
            },
            {
                "start_time": 102.9590909,
                "end_time": 103.0431818,
                "pitch": 64,
                "velocity": 51,
                "duration": 0.0840909,
                "tempo": 120.0
            },
            {
                "start_time": 103.0613636,
                "end_time": 103.1431818,
                "pitch": 65,
                "velocity": 51,
                "duration": 0.0818182,
                "tempo": 120.0
            },
            {
                "start_time": 103.1613636,
                "end_time": 103.2431818,
                "pitch": 64,
                "velocity": 51,
                "duration": 0.0818182,
                "tempo": 120.0
            },
            {
                "start_time": 103.2613636,
                "end_time": 103.3431818,
                "pitch": 62,
                "velocity": 51,
                "duration": 0.0818182,
                "tempo": 120.0
            },
            {
                "start_time": 103.3613636,
                "end_time": 103.4431818,
                "pitch": 60,
                "velocity": 51,
                "duration": 0.0818182,
                "tempo": 120.0
            },
            {
                "start_time": 103.4613636,
                "end_time": 103.5431818,
                "pitch": 59,
                "velocity": 51,
                "duration": 0.0818182,
                "tempo": 120.0
            }
        ],
        "Lead 2 (sawtooth)": [
            {
                "start_time": 1.0227273,
                "end_time": 1.2113636,
                "pitch": 60,
                "velocity": 51,
                "duration": 0.1886364,
                "tempo": 120.0
            },
            {
                "start_time": 1.2272727,
                "end_time": 1.4068182,
                "pitch": 59,
                "velocity": 51,
                "duration": 0.1795455,
                "tempo": 120.0
            },
            {
                "start_time": 1.6204545,
                "end_time": 1.8090909,
                "pitch": 60,
                "velocity": 51,
                "duration": 0.1886364,
                "tempo": 120.0
            },
            {
                "start_time": 1.8272727,
                "end_time": 2.0136364,
                "pitch": 59,
                "velocity": 51,
                "duration": 0.1863636,
                "tempo": 120.0
            },
            {
                "start_time": 2.2272727,
                "end_time": 2.4068182,
                "pitch": 60,
                "velocity": 51,
                "duration": 0.1795455,
                "tempo": 120.0
            },
            {
                "start_time": 2.6295455,
                "end_time": 2.8159091,
                "pitch": 60,
                "velocity": 51,
                "duration": 0.1863636,
                "tempo": 120.0
            },
            {
                "start_time": 2.8340909,
                "end_time": 3.0136364,
                "pitch": 59,
                "velocity": 51,
                "duration": 0.1795455,
                "tempo": 120.0
            },
            {
                "start_time": 3.0295455,
                "end_time": 3.6113636,
                "pitch": 62,
                "velocity": 51,
                "duration": 0.5818182,
                "tempo": 120.0
            },
            {
                "start_time": 3.6295455,
                "end_time": 4.0113636,
                "pitch": 62,
                "velocity": 51,
                "duration": 0.3818182,
                "tempo": 120.0
            },
            {
                "start_time": 4.2340909,
                "end_time": 4.4227273,
                "pitch": 60,
                "velocity": 51,
                "duration": 0.1886364,
                "tempo": 120.0
            },
            {
                "start_time": 4.4386364,
                "end_time": 4.6181818,
                "pitch": 59,
                "velocity": 51,
                "duration": 0.1795455,
                "tempo": 120.0
            },
            {
                "start_time": 4.8318182,
                "end_time": 5.0204545,
                "pitch": 60,
                "velocity": 51,
                "duration": 0.1886364,
                "tempo": 120.0
            },
            {
                "start_time": 5.0363636,
                "end_time": 5.225,
                "pitch": 59,
                "velocity": 51,
                "duration": 0.1886364,
                "tempo": 120.0
            },
            {
                "start_time": 5.4363636,
                "end_time": 5.6181818,
                "pitch": 60,
                "velocity": 51,
                "duration": 0.1818182,
                "tempo": 120.0
            },
            {
                "start_time": 5.8409091,
                "end_time": 6.0272727,
                "pitch": 60,
                "velocity": 51,
                "duration": 0.1863636,
                "tempo": 120.0
            },
            {
                "start_time": 6.0431818,
                "end_time": 6.2227273,
                "pitch": 59,
                "velocity": 51,
                "duration": 0.1795455,
                "tempo": 120.0
            },
            {
                "start_time": 6.2409091,
                "end_time": 6.8227273,
                "pitch": 62,
                "velocity": 51,
                "duration": 0.5818182,
                "tempo": 120.0
            },
            {
                "start_time": 6.8386364,
                "end_time": 7.2227273,
                "pitch": 64,
                "velocity": 51,
                "duration": 0.3840909,
                "tempo": 120.0
            },
            {
                "start_time": 7.4454545,
                "end_time": 7.6340909,
                "pitch": 60,
                "velocity": 51,
                "duration": 0.1886364,
                "tempo": 120.0
            },
            {
                "start_time": 7.65,
                "end_time": 7.8295455,
                "pitch": 59,
                "velocity": 51,
                "duration": 0.1795455,
                "tempo": 120.0
            },
            {
                "start_time": 8.0431818,
                "end_time": 8.2318182,
                "pitch": 60,
                "velocity": 51,
                "duration": 0.1886364,
                "tempo": 120.0
            },
            {
                "start_time": 8.2477273,
                "end_time": 8.4363636,
                "pitch": 59,
                "velocity": 51,
                "duration": 0.1886364,
                "tempo": 120.0
            },
            {
                "start_time": 8.6477273,
                "end_time": 8.8272727,
                "pitch": 60,
                "velocity": 51,
                "duration": 0.1795455,
                "tempo": 120.0
            },
            {
                "start_time": 9.05,
                "end_time": 9.2386364,
                "pitch": 60,
                "velocity": 51,
                "duration": 0.1886364,
                "tempo": 120.0
            },
            {
                "start_time": 9.2545455,
                "end_time": 9.4340909,
                "pitch": 59,
                "velocity": 51,
                "duration": 0.1795455,
                "tempo": 120.0
            },
            {
                "start_time": 9.45,
                "end_time": 10.0340909,
                "pitch": 62,
                "velocity": 51,
                "duration": 0.5840909,
                "tempo": 120.0
            },
            {
                "start_time": 10.05,
                "end_time": 10.4363636,
                "pitch": 62,
                "velocity": 51,
                "duration": 0.3863636,
                "tempo": 120.0
            },
            {
                "start_time": 10.6590909,
                "end_time": 10.8454545,
                "pitch": 60,
                "velocity": 51,
                "duration": 0.1863636,
                "tempo": 120.0
            },
            {
                "start_time": 10.8636364,
                "end_time": 11.0431818,
                "pitch": 59,
                "velocity": 51,
                "duration": 0.1795455,
                "tempo": 120.0
            },
            {
                "start_time": 11.2568182,
                "end_time": 11.4454545,
                "pitch": 60,
                "velocity": 51,
                "duration": 0.1886364,
                "tempo": 120.0
            },
            {
                "start_time": 11.4613636,
                "end_time": 11.65,
                "pitch": 59,
                "velocity": 51,
                "duration": 0.1886364,
                "tempo": 120.0
            },
            {
                "start_time": 11.8613636,
                "end_time": 12.0409091,
                "pitch": 64,
                "velocity": 51,
                "duration": 0.1795455,
                "tempo": 120.0
            },
            {
                "start_time": 12.2636364,
                "end_time": 12.4522727,
                "pitch": 65,
                "velocity": 51,
                "duration": 0.1886364,
                "tempo": 120.0
            },
            {
                "start_time": 13.8704545,
                "end_time": 14.0568182,
                "pitch": 60,
                "velocity": 51,
                "duration": 0.1863636,
                "tempo": 120.0
            },
            {
                "start_time": 14.075,
                "end_time": 14.2545455,
                "pitch": 59,
                "velocity": 51,
                "duration": 0.1795455,
                "tempo": 120.0
            },
            {
                "start_time": 14.4681818,
                "end_time": 14.6545455,
                "pitch": 60,
                "velocity": 51,
                "duration": 0.1863636,
                "tempo": 120.0
            },
            {
                "start_time": 14.6727273,
                "end_time": 14.8590909,
                "pitch": 59,
                "velocity": 51,
                "duration": 0.1863636,
                "tempo": 120.0
            },
            {
                "start_time": 15.0727273,
                "end_time": 15.2522727,
                "pitch": 60,
                "velocity": 51,
                "duration": 0.1795455,
                "tempo": 120.0
            },
            {
                "start_time": 15.475,
                "end_time": 15.6636364,
                "pitch": 60,
                "velocity": 51,
                "duration": 0.1886364,
                "tempo": 120.0
            },
            {
                "start_time": 15.6795455,
                "end_time": 15.8590909,
                "pitch": 59,
                "velocity": 51,
                "duration": 0.1795455,
                "tempo": 120.0
            },
            {
                "start_time": 15.875,
                "end_time": 16.4590909,
                "pitch": 62,
                "velocity": 51,
                "duration": 0.5840909,
                "tempo": 120.0
            },
            {
                "start_time": 16.475,
                "end_time": 16.8590909,
                "pitch": 62,
                "velocity": 51,
                "duration": 0.3840909,
                "tempo": 120.0
            },
            {
                "start_time": 17.0818182,
                "end_time": 17.2681818,
                "pitch": 60,
                "velocity": 51,
                "duration": 0.1863636,
                "tempo": 120.0
            },
            {
                "start_time": 17.2840909,
                "end_time": 17.4636364,
                "pitch": 59,
                "velocity": 51,
                "duration": 0.1795455,
                "tempo": 120.0
            },
            {
                "start_time": 17.6772727,
                "end_time": 17.8659091,
                "pitch": 60,
                "velocity": 51,
                "duration": 0.1886364,
                "tempo": 120.0
            },
            {
                "start_time": 17.8840909,
                "end_time": 18.0704545,
                "pitch": 59,
                "velocity": 51,
                "duration": 0.1863636,
                "tempo": 120.0
            },
            {
                "start_time": 18.2840909,
                "end_time": 18.4636364,
                "pitch": 60,
                "velocity": 51,
                "duration": 0.1795455,
                "tempo": 120.0
            },
            {
                "start_time": 18.6863636,
                "end_time": 18.8727273,
                "pitch": 60,
                "velocity": 51,
                "duration": 0.1863636,
                "tempo": 120.0
            },
            {
                "start_time": 18.8909091,
                "end_time": 19.0704545,
                "pitch": 59,
                "velocity": 51,
                "duration": 0.1795455,
                "tempo": 120.0
            },
            {
                "start_time": 19.0863636,
                "end_time": 19.6659091,
                "pitch": 62,
                "velocity": 51,
                "duration": 0.5795455,
                "tempo": 120.0
            },
            {
                "start_time": 19.6840909,
                "end_time": 20.0681818,
                "pitch": 64,
                "velocity": 51,
                "duration": 0.3840909,
                "tempo": 120.0
            },
            {
                "start_time": 20.2909091,
                "end_time": 20.4795455,
                "pitch": 60,
                "velocity": 51,
                "duration": 0.1886364,
                "tempo": 120.0
            },
            {
                "start_time": 20.4954545,
                "end_time": 20.675,
                "pitch": 59,
                "velocity": 51,
                "duration": 0.1795455,
                "tempo": 120.0
            },
            {
                "start_time": 20.8886364,
                "end_time": 21.0772727,
                "pitch": 60,
                "velocity": 51,
                "duration": 0.1886364,
                "tempo": 120.0
            },
            {
                "start_time": 21.0954545,
                "end_time": 21.2818182,
                "pitch": 59,
                "velocity": 51,
                "duration": 0.1863636,
                "tempo": 120.0
            },
            {
                "start_time": 21.4954545,
                "end_time": 21.675,
                "pitch": 60,
                "velocity": 51,
                "duration": 0.1795455,
                "tempo": 120.0
            },
            {
                "start_time": 21.8977273,
                "end_time": 22.0840909,
                "pitch": 60,
                "velocity": 51,
                "duration": 0.1863636,
                "tempo": 120.0
            },
            {
                "start_time": 22.1,
                "end_time": 22.2795455,
                "pitch": 59,
                "velocity": 51,
                "duration": 0.1795455,
                "tempo": 120.0
            },
            {
                "start_time": 22.2977273,
                "end_time": 22.8772727,
                "pitch": 62,
                "velocity": 51,
                "duration": 0.5795455,
                "tempo": 120.0
            },
            {
                "start_time": 22.8931818,
                "end_time": 23.2795455,
                "pitch": 62,
                "velocity": 51,
                "duration": 0.3863636,
                "tempo": 120.0
            },
            {
                "start_time": 23.5022727,
                "end_time": 23.6909091,
                "pitch": 60,
                "velocity": 51,
                "duration": 0.1886364,
                "tempo": 120.0
            },
            {
                "start_time": 23.7068182,
                "end_time": 23.8863636,
                "pitch": 59,
                "velocity": 51,
                "duration": 0.1795455,
                "tempo": 120.0
            },
            {
                "start_time": 24.1,
                "end_time": 24.2886364,
                "pitch": 60,
                "velocity": 51,
                "duration": 0.1886364,
                "tempo": 120.0
            },
            {
                "start_time": 24.3045455,
                "end_time": 24.4931818,
                "pitch": 59,
                "velocity": 51,
                "duration": 0.1886364,
                "tempo": 120.0
            },
            {
                "start_time": 24.7045455,
                "end_time": 24.8863636,
                "pitch": 64,
                "velocity": 51,
                "duration": 0.1818182,
                "tempo": 120.0
            },
            {
                "start_time": 25.1068182,
                "end_time": 25.2954545,
                "pitch": 65,
                "velocity": 51,
                "duration": 0.1886364,
                "tempo": 120.0
            },
            {
                "start_time": 39.5568182,
                "end_time": 39.7431818,
                "pitch": 60,
                "velocity": 51,
                "duration": 0.1863636,
                "tempo": 120.0
            },
            {
                "start_time": 39.7590909,
                "end_time": 39.9386364,
                "pitch": 59,
                "velocity": 51,
                "duration": 0.1795455,
                "tempo": 120.0
            },
            {
                "start_time": 40.1522727,
                "end_time": 40.3409091,
                "pitch": 60,
                "velocity": 51,
                "duration": 0.1886364,
                "tempo": 120.0
            },
            {
                "start_time": 40.3590909,
                "end_time": 40.5454545,
                "pitch": 59,
                "velocity": 51,
                "duration": 0.1863636,
                "tempo": 120.0
            },
            {
                "start_time": 40.7590909,
                "end_time": 40.9386364,
                "pitch": 60,
                "velocity": 51,
                "duration": 0.1795455,
                "tempo": 120.0
            },
            {
                "start_time": 41.1613636,
                "end_time": 41.3477273,
                "pitch": 60,
                "velocity": 51,
                "duration": 0.1863636,
                "tempo": 120.0
            },
            {
                "start_time": 41.3659091,
                "end_time": 41.5454545,
                "pitch": 59,
                "velocity": 51,
                "duration": 0.1795455,
                "tempo": 120.0
            },
            {
                "start_time": 41.5613636,
                "end_time": 42.1409091,
                "pitch": 62,
                "velocity": 51,
                "duration": 0.5795455,
                "tempo": 120.0
            },
            {
                "start_time": 42.1568182,
                "end_time": 42.5409091,
                "pitch": 62,
                "velocity": 51,
                "duration": 0.3840909,
                "tempo": 120.0
            },
            {
                "start_time": 42.7636364,
                "end_time": 42.9522727,
                "pitch": 60,
                "velocity": 51,
                "duration": 0.1886364,
                "tempo": 120.0
            },
            {
                "start_time": 42.9681818,
                "end_time": 43.1477273,
                "pitch": 59,
                "velocity": 51,
                "duration": 0.1795455,
                "tempo": 120.0
            },
            {
                "start_time": 43.3613636,
                "end_time": 43.55,
                "pitch": 60,
                "velocity": 51,
                "duration": 0.1886364,
                "tempo": 120.0
            },
            {
                "start_time": 43.5659091,
                "end_time": 43.7545455,
                "pitch": 59,
                "velocity": 51,
                "duration": 0.1886364,
                "tempo": 120.0
            },
            {
                "start_time": 43.9659091,
                "end_time": 44.1477273,
                "pitch": 60,
                "velocity": 51,
                "duration": 0.1818182,
                "tempo": 120.0
            },
            {
                "start_time": 44.3681818,
                "end_time": 44.5568182,
                "pitch": 60,
                "velocity": 51,
                "duration": 0.1886364,
                "tempo": 120.0
            },
            {
                "start_time": 44.5727273,
                "end_time": 44.7522727,
                "pitch": 59,
                "velocity": 51,
                "duration": 0.1795455,
                "tempo": 120.0
            },
            {
                "start_time": 44.7681818,
                "end_time": 45.35,
                "pitch": 62,
                "velocity": 51,
                "duration": 0.5818182,
                "tempo": 120.0
            },
            {
                "start_time": 45.3659091,
                "end_time": 45.7522727,
                "pitch": 64,
                "velocity": 51,
                "duration": 0.3863636,
                "tempo": 120.0
            },
            {
                "start_time": 45.975,
                "end_time": 46.1613636,
                "pitch": 60,
                "velocity": 51,
                "duration": 0.1863636,
                "tempo": 120.0
            },
            {
                "start_time": 46.1795455,
                "end_time": 46.3590909,
                "pitch": 59,
                "velocity": 51,
                "duration": 0.1795455,
                "tempo": 120.0
            },
            {
                "start_time": 46.5727273,
                "end_time": 46.7613636,
                "pitch": 60,
                "velocity": 51,
                "duration": 0.1886364,
                "tempo": 120.0
            },
            {
                "start_time": 46.7772727,
                "end_time": 46.9659091,
                "pitch": 59,
                "velocity": 51,
                "duration": 0.1886364,
                "tempo": 120.0
            },
            {
                "start_time": 47.1772727,
                "end_time": 47.3568182,
                "pitch": 60,
                "velocity": 51,
                "duration": 0.1795455,
                "tempo": 120.0
            },
            {
                "start_time": 47.5795455,
                "end_time": 47.7681818,
                "pitch": 60,
                "velocity": 51,
                "duration": 0.1886364,
                "tempo": 120.0
            },
            {
                "start_time": 47.7840909,
                "end_time": 47.9636364,
                "pitch": 59,
                "velocity": 51,
                "duration": 0.1795455,
                "tempo": 120.0
            },
            {
                "start_time": 47.9795455,
                "end_time": 48.5590909,
                "pitch": 62,
                "velocity": 51,
                "duration": 0.5795455,
                "tempo": 120.0
            },
            {
                "start_time": 48.5772727,
                "end_time": 48.9613636,
                "pitch": 62,
                "velocity": 51,
                "duration": 0.3840909,
                "tempo": 120.0
            },
            {
                "start_time": 49.1840909,
                "end_time": 49.3704545,
                "pitch": 60,
                "velocity": 51,
                "duration": 0.1863636,
                "tempo": 120.0
            },
            {
                "start_time": 49.3863636,
                "end_time": 49.5659091,
                "pitch": 59,
                "velocity": 51,
                "duration": 0.1795455,
                "tempo": 120.0
            },
            {
                "start_time": 49.7795455,
                "end_time": 49.9681818,
                "pitch": 60,
                "velocity": 51,
                "duration": 0.1886364,
                "tempo": 120.0
            },
            {
                "start_time": 49.9863636,
                "end_time": 50.1727273,
                "pitch": 59,
                "velocity": 51,
                "duration": 0.1863636,
                "tempo": 120.0
            },
            {
                "start_time": 50.3863636,
                "end_time": 50.5659091,
                "pitch": 64,
                "velocity": 51,
                "duration": 0.1795455,
                "tempo": 120.0
            },
            {
                "start_time": 50.7886364,
                "end_time": 50.9772727,
                "pitch": 65,
                "velocity": 51,
                "duration": 0.1886364,
                "tempo": 120.0
            },
            {
                "start_time": 52.3931818,
                "end_time": 52.5818182,
                "pitch": 60,
                "velocity": 51,
                "duration": 0.1886364,
                "tempo": 120.0
            },
            {
                "start_time": 52.5977273,
                "end_time": 52.7772727,
                "pitch": 59,
                "velocity": 51,
                "duration": 0.1795455,
                "tempo": 120.0
            },
            {
                "start_time": 52.9909091,
                "end_time": 53.1795455,
                "pitch": 60,
                "velocity": 51,
                "duration": 0.1886364,
                "tempo": 120.0
            },
            {
                "start_time": 53.1977273,
                "end_time": 53.3840909,
                "pitch": 59,
                "velocity": 51,
                "duration": 0.1863636,
                "tempo": 120.0
            },
            {
                "start_time": 53.5977273,
                "end_time": 53.7772727,
                "pitch": 60,
                "velocity": 51,
                "duration": 0.1795455,
                "tempo": 120.0
            },
            {
                "start_time": 54.0,
                "end_time": 54.1863636,
                "pitch": 60,
                "velocity": 51,
                "duration": 0.1863636,
                "tempo": 120.0
            },
            {
                "start_time": 54.2022727,
                "end_time": 54.3818182,
                "pitch": 59,
                "velocity": 51,
                "duration": 0.1795455,
                "tempo": 120.0
            },
            {
                "start_time": 54.4,
                "end_time": 54.9795455,
                "pitch": 62,
                "velocity": 51,
                "duration": 0.5795455,
                "tempo": 120.0
            },
            {
                "start_time": 54.9954545,
                "end_time": 55.3795455,
                "pitch": 62,
                "velocity": 51,
                "duration": 0.3840909,
                "tempo": 120.0
            },
            {
                "start_time": 55.6022727,
                "end_time": 55.7886364,
                "pitch": 60,
                "velocity": 51,
                "duration": 0.1863636,
                "tempo": 120.0
            },
            {
                "start_time": 55.8068182,
                "end_time": 55.9863636,
                "pitch": 59,
                "velocity": 51,
                "duration": 0.1795455,
                "tempo": 120.0
            },
            {
                "start_time": 56.2,
                "end_time": 56.3886364,
                "pitch": 60,
                "velocity": 51,
                "duration": 0.1886364,
                "tempo": 120.0
            },
            {
                "start_time": 56.4045455,
                "end_time": 56.5931818,
                "pitch": 59,
                "velocity": 51,
                "duration": 0.1886364,
                "tempo": 120.0
            },
            {
                "start_time": 56.8045455,
                "end_time": 56.9840909,
                "pitch": 60,
                "velocity": 51,
                "duration": 0.1795455,
                "tempo": 120.0
            },
            {
                "start_time": 57.2068182,
                "end_time": 57.3954545,
                "pitch": 60,
                "velocity": 51,
                "duration": 0.1886364,
                "tempo": 120.0
            },
            {
                "start_time": 57.4113636,
                "end_time": 57.5909091,
                "pitch": 59,
                "velocity": 51,
                "duration": 0.1795455,
                "tempo": 120.0
            },
            {
                "start_time": 57.6068182,
                "end_time": 58.1863636,
                "pitch": 62,
                "velocity": 51,
                "duration": 0.5795455,
                "tempo": 120.0
            },
            {
                "start_time": 58.2045455,
                "end_time": 58.5886364,
                "pitch": 64,
                "velocity": 51,
                "duration": 0.3840909,
                "tempo": 120.0
            },
            {
                "start_time": 58.8113636,
                "end_time": 58.9977273,
                "pitch": 60,
                "velocity": 51,
                "duration": 0.1863636,
                "tempo": 120.0
            },
            {
                "start_time": 59.0136364,
                "end_time": 59.1931818,
                "pitch": 59,
                "velocity": 51,
                "duration": 0.1795455,
                "tempo": 120.0
            },
            {
                "start_time": 59.4068182,
                "end_time": 59.5954545,
                "pitch": 60,
                "velocity": 51,
                "duration": 0.1886364,
                "tempo": 120.0
            },
            {
                "start_time": 59.6136364,
                "end_time": 59.8,
                "pitch": 59,
                "velocity": 51,
                "duration": 0.1863636,
                "tempo": 120.0
            },
            {
                "start_time": 60.0136364,
                "end_time": 60.1931818,
                "pitch": 60,
                "velocity": 51,
                "duration": 0.1795455,
                "tempo": 120.0
            },
            {
                "start_time": 60.4159091,
                "end_time": 60.6022727,
                "pitch": 60,
                "velocity": 51,
                "duration": 0.1863636,
                "tempo": 120.0
            },
            {
                "start_time": 60.6204545,
                "end_time": 60.8,
                "pitch": 59,
                "velocity": 51,
                "duration": 0.1795455,
                "tempo": 120.0
            },
            {
                "start_time": 60.8159091,
                "end_time": 61.3954545,
                "pitch": 62,
                "velocity": 51,
                "duration": 0.5795455,
                "tempo": 120.0
            },
            {
                "start_time": 61.4136364,
                "end_time": 61.7977273,
                "pitch": 62,
                "velocity": 51,
                "duration": 0.3840909,
                "tempo": 120.0
            },
            {
                "start_time": 62.0204545,
                "end_time": 62.2090909,
                "pitch": 60,
                "velocity": 51,
                "duration": 0.1886364,
                "tempo": 120.0
            },
            {
                "start_time": 62.225,
                "end_time": 62.4045455,
                "pitch": 59,
                "velocity": 51,
                "duration": 0.1795455,
                "tempo": 120.0
            },
            {
                "start_time": 62.6181818,
                "end_time": 62.8068182,
                "pitch": 60,
                "velocity": 51,
                "duration": 0.1886364,
                "tempo": 120.0
            },
            {
                "start_time": 62.8227273,
                "end_time": 63.0113636,
                "pitch": 59,
                "velocity": 51,
                "duration": 0.1886364,
                "tempo": 120.0
            },
            {
                "start_time": 63.2227273,
                "end_time": 63.4045455,
                "pitch": 64,
                "velocity": 51,
                "duration": 0.1818182,
                "tempo": 120.0
            },
            {
                "start_time": 63.6272727,
                "end_time": 63.8136364,
                "pitch": 65,
                "velocity": 51,
                "duration": 0.1863636,
                "tempo": 120.0
            },
            {
                "start_time": 77.8909091,
                "end_time": 79.4613636,
                "pitch": 51,
                "velocity": 51,
                "duration": 1.5704545,
                "tempo": 120.0
            },
            {
                "start_time": 79.4772727,
                "end_time": 81.0659091,
                "pitch": 51,
                "velocity": 51,
                "duration": 1.5886364,
                "tempo": 120.0
            },
            {
                "start_time": 81.0840909,
                "end_time": 82.6704545,
                "pitch": 50,
                "velocity": 51,
                "duration": 1.5863636,
                "tempo": 120.0
            },
            {
                "start_time": 82.6886364,
                "end_time": 84.2772727,
                "pitch": 50,
                "velocity": 51,
                "duration": 1.5886364,
                "tempo": 120.0
            },
            {
                "start_time": 84.2931818,
                "end_time": 85.8818182,
                "pitch": 51,
                "velocity": 51,
                "duration": 1.5886364,
                "tempo": 120.0
            },
            {
                "start_time": 85.9,
                "end_time": 87.4863636,
                "pitch": 51,
                "velocity": 51,
                "duration": 1.5863636,
                "tempo": 120.0
            },
            {
                "start_time": 87.5045455,
                "end_time": 89.0931818,
                "pitch": 50,
                "velocity": 51,
                "duration": 1.5886364,
                "tempo": 120.0
            },
            {
                "start_time": 89.3090909,
                "end_time": 89.4931818,
                "pitch": 50,
                "velocity": 51,
                "duration": 0.1840909,
                "tempo": 120.0
            },
            {
                "start_time": 89.9113636,
                "end_time": 90.6977273,
                "pitch": 50,
                "velocity": 51,
                "duration": 0.7863636,
                "tempo": 120.0
            },
            {
                "start_time": 90.7159091,
                "end_time": 92.3045455,
                "pitch": 52,
                "velocity": 51,
                "duration": 1.5886364,
                "tempo": 120.0
            },
            {
                "start_time": 92.3204545,
                "end_time": 93.9090909,
                "pitch": 52,
                "velocity": 51,
                "duration": 1.5886364,
                "tempo": 120.0
            },
            {
                "start_time": 93.925,
                "end_time": 95.5136364,
                "pitch": 55,
                "velocity": 51,
                "duration": 1.5886364,
                "tempo": 120.0
            },
            {
                "start_time": 95.5318182,
                "end_time": 97.1204545,
                "pitch": 55,
                "velocity": 51,
                "duration": 1.5886364,
                "tempo": 120.0
            },
            {
                "start_time": 97.1363636,
                "end_time": 98.725,
                "pitch": 53,
                "velocity": 51,
                "duration": 1.5886364,
                "tempo": 120.0
            },
            {
                "start_time": 98.7409091,
                "end_time": 100.3295455,
                "pitch": 53,
                "velocity": 51,
                "duration": 1.5886364,
                "tempo": 120.0
            },
            {
                "start_time": 100.5477273,
                "end_time": 100.7340909,
                "pitch": 56,
                "velocity": 51,
                "duration": 0.1863636,
                "tempo": 120.0
            },
            {
                "start_time": 101.1590909,
                "end_time": 101.9386364,
                "pitch": 56,
                "velocity": 51,
                "duration": 0.7795455,
                "tempo": 120.0
            },
            {
                "start_time": 102.1613636,
                "end_time": 102.5454545,
                "pitch": 56,
                "velocity": 51,
                "duration": 0.3840909,
                "tempo": 120.0
            },
            {
                "start_time": 102.5613636,
                "end_time": 102.7409091,
                "pitch": 57,
                "velocity": 51,
                "duration": 0.1795455,
                "tempo": 120.0
            },
            {
                "start_time": 102.7590909,
                "end_time": 103.5431818,
                "pitch": 59,
                "velocity": 51,
                "duration": 0.7840909,
                "tempo": 120.0
            }
        ]
    }
}