{
    "mood": "angry",
    "instruments": {
        "Acoustic Grand Piano": [
            {
                "start_time": 0.0113636,
                "end_time": 0.0931818,
                "pitch": 59,
                "velocity": 80,
                "duration": 0.0818182,
                "tempo": 120.0
            },
            {
                "start_time": 0.1068182,
                "end_time": 0.3386364,
                "pitch": 52,
                "velocity": 80,
                "duration": 0.2318182,
                "tempo": 120.0
            },
            {
                "start_time": 0.3568182,
                "end_time": 0.4568182,
                "pitch": 52,
                "velocity": 80,
                "duration": 0.1,
                "tempo": 120.0
            },
            {
                "start_time": 0.4727273,
                "end_time": 0.5886364,
                "pitch": 58,
                "velocity": 80,
                "duration": 0.1159091,
                "tempo": 120.0
            },
            {
                "start_time": 0.6045455,
                "end_time": 0.8295455,
                "pitch": 52,
                "velocity": 80,
                "duration": 0.225,
                "tempo": 120.0
            },
            {
                "start_time": 0.8454545,
                "end_time": 0.9409091,
                "pitch": 52,
                "velocity": 80,
                "duration": 0.0954545,
                "tempo": 120.0
            },
            {
                "start_time": 0.9568182,
                "end_time": 1.0704545,
                "pitch": 62,
                "velocity": 80,
                "duration": 0.1136364,
                "tempo": 120.0
            },
            {
                "start_time": 1.0863636,
                "end_time": 1.1863636,
                "pitch": 52,
                "velocity": 80,
                "duration": 0.1,
                "tempo": 120.0
            },
            {
                "start_time": 1.2045455,
                "end_time": 1.3204545,
                "pitch": 61,
                "velocity": 80,
                "duration": 0.1159091,
                "tempo": 120.0
            },
            {
                "start_time": 1.3386364,
                "end_time": 1.4386364,
                "pitch": 52,
                "velocity": 80,
                "duration": 0.1,
                "tempo": 120.0
            },
            {
                "start_time": 1.4568182,
                "end_time": 1.5727273,
                "pitch": 59,
                "velocity": 80,
                "duration": 0.1159091,
                "tempo": 120.0
            },
            {
                "start_time": 1.5909091,
                "end_time": 1.6909091,
                "pitch": 52,
                "velocity": 80,
                "duration": 0.1,
                "tempo": 120.0
            },
            {
                "start_time": 1.7068182,
                "end_time": 1.8227273,
                "pitch": 58,
                "velocity": 80,
                "duration": 0.1159091,
                "tempo": 120.0
            },
            {
                "start_time": 1.8409091,
                "end_time": 1.9409091,
                "pitch": 52,
                "velocity": 80,
                "duration": 0.1,
                "tempo": 120.0
            },
            {
                "start_time": 1.9568182,
                "end_time": 2.0727273,
                "pitch": 59,
                "velocity": 80,
                "duration": 0.1159091,
                "tempo": 120.0
            },
            {
                "start_time": 2.0909091,
                "end_time": 2.3227273,
                "pitch": 52,
                "velocity": 80,
                "duration": 0.2318182,
                "tempo": 120.0
            },
            {
                "start_time": 2.3409091,
                "end_time": 2.4409091,
                "pitch": 52,
                "velocity": 80,
                "duration": 0.1,
                "tempo": 120.0
            },
            {
                "start_time": 2.4568182,
                "end_time": 2.5727273,
                "pitch": 58,
                "velocity": 80,
                "duration": 0.1159091,
                "tempo": 120.0
            },
            {
                "start_time": 2.5909091,
                "end_time": 2.8227273,
                "pitch": 52,
                "velocity": 80,
                "duration": 0.2318182,
                "tempo": 120.0
            },
            {
                "start_time": 2.8409091,
                "end_time": 2.9409091,
                "pitch": 52,
                "velocity": 80,
                "duration": 0.1,
                "tempo": 120.0
            },
            {
                "start_time": 2.9568182,
                "end_time": 3.0727273,
                "pitch": 62,
                "velocity": 80,
                "duration": 0.1159091,
                "tempo": 120.0
            },
            {
                "start_time": 3.0909091,
                "end_time": 3.1909091,
                "pitch": 52,
                "velocity": 80,
                "duration": 0.1,
                "tempo": 120.0
            },
            {
                "start_time": 3.2068182,
                "end_time": 3.3227273,
                "pitch": 61,
                "velocity": 80,
                "duration": 0.1159091,
                "tempo": 120.0
            },
            {
                "start_time": 3.3409091,
                "end_time": 3.4409091,
                "pitch": 52,
                "velocity": 80,
                "duration": 0.1,
                "tempo": 120.0
            },
            {
                "start_time": 3.4568182,
                "end_time": 3.5727273,
                "pitch": 59,
                "velocity": 80,
                "duration": 0.1159091,
                "tempo": 120.0
            },
            {
                "start_time": 3.5909091,
                "end_time": 3.6909091,
                "pitch": 52,
                "velocity": 80,
                "duration": 0.1,
                "tempo": 120.0
            },
            {
                "start_time": 3.7068182,
                "end_time": 3.8227273,
                "pitch": 58,
                "velocity": 80,
                "duration": 0.1159091,
                "tempo": 120.0
            },
            {
                "start_time": 3.8409091,
                "end_time": 3.9409091,
                "pitch": 52,
                "velocity": 80,
                "duration": 0.1,
                "tempo": 120.0
            },
            {
                "start_time": 3.9568182,
                "end_time": 4.0727273,
                "pitch": 59,
                "velocity": 80,
                "duration": 0.1159091,
                "tempo": 120.0
            },
            {
                "start_time": 4.0909091,
                "end_time": 4.325,
                "pitch": 52,
                "velocity": 80,
                "duration": 0.2340909,
                "tempo": 120.0
            },
            {
                "start_time": 4.3431818,
                "end_time": 4.4431818,
                "pitch": 52,
                "velocity": 80,
                "duration": 0.1,
                "tempo": 120.0
            },
            {
                "start_time": 4.4590909,
                "end_time": 4.5772727,
                "pitch": 58,
                "velocity": 80,
                "duration": 0.1181818,
                "tempo": 120.0
            },
            {
                "start_time": 4.5954545,
                "end_time": 4.8272727,
                "pitch": 52,
                "velocity": 80,
                "duration": 0.2318182,
                "tempo": 120.0
            },
            {
                "start_time": 4.8454545,
                "end_time": 4.9454545,
                "pitch": 52,
                "velocity": 80,
                "duration": 0.1,
                "tempo": 120.0
            },
            {
                "start_time": 4.9613636,
                "end_time": 5.0772727,
                "pitch": 62,
                "velocity": 80,
                "duration": 0.1159091,
                "tempo": 120.0
            },
            {
                "start_time": 5.0954545,
                "end_time": 5.1954545,
                "pitch": 52,
                "velocity": 80,
                "duration": 0.1,
                "tempo": 120.0
            },
            {
                "start_time": 5.2113636,
                "end_time": 5.3272727,
                "pitch": 61,
                "velocity": 80,
                "duration": 0.1159091,
                "tempo": 120.0
            },
            {
                "start_time": 5.3454545,
                "end_time": 5.4454545,
                "pitch": 52,
                "velocity": 80,
                "duration": 0.1,
                "tempo": 120.0
            },
            {
                "start_time": 5.4613636,
                "end_time": 5.5772727,
                "pitch": 59,
                "velocity": 80,
                "duration": 0.1159091,
                "tempo": 120.0
            },
            {
                "start_time": 5.5954545,
                "end_time": 5.6954545,
                "pitch": 52,
                "velocity": 80,
                "duration": 0.1,
                "tempo": 120.0
            },
            {
                "start_time": 5.7113636,
                "end_time": 5.8272727,
                "pitch": 58,
                "velocity": 80,
                "duration": 0.1159091,
                "tempo": 120.0
            },
            {
                "start_time": 5.8454545,
                "end_time": 5.9454545,
                "pitch": 52,
                "velocity": 80,
                "duration": 0.1,
                "tempo": 120.0
            },
            {
                "start_time": 5.9613636,
                "end_time": 6.0772727,
                "pitch": 59,
                "velocity": 80,
                "duration": 0.1159091,
                "tempo": 120.0
            },
            {
                "start_time": 6.0954545,
                "end_time": 6.3272727,
                "pitch": 52,
                "velocity": 80,
                "duration": 0.2318182,
                "tempo": 120.0
            },
            {
                "start_time": 6.3454545,
                "end_time": 6.4454545,
                "pitch": 52,
                "velocity": 80,
                "duration": 0.1,
                "tempo": 120.0
            },
            {
                "start_time": 6.4613636,
                "end_time": 6.5772727,
                "pitch": 58,
                "velocity": 80,
                "duration": 0.1159091,
                "tempo": 120.0
            },
            {
                "start_time": 6.5954545,
                "end_time": 6.8272727,
                "pitch": 52,
                "velocity": 80,
                "duration": 0.2318182,
                "tempo": 120.0
            },
            {
                "start_time": 6.8454545,
                "end_time": 6.9454545,
                "pitch": 52,
                "velocity": 80,
                "duration": 0.1,
                "tempo": 120.0
            },
            {
                "start_time": 6.9613636,
                "end_time": 7.0772727,
                "pitch": 62,
                "velocity": 80,
                "duration": 0.1159091,
                "tempo": 120.0
            },
            {
                "start_time": 7.0954545,
                "end_time": 7.1954545,
                "pitch": 52,
                "velocity": 80,
                "duration": 0.1,
                "tempo": 120.0
            },
            {
                "start_time": 7.2113636,
                "end_time": 7.3272727,
                "pitch": 61,
                "velocity": 80,
                "duration": 0.1159091,
                "tempo": 120.0
            },
            {
                "start_time": 7.3454545,
                "end_time": 7.4454545,
                "pitch": 52,
                "velocity": 80,
                "duration": 0.1,
                "tempo": 120.0
            },
            {
                "start_time": 7.4613636,
                "end_time": 7.5727273,
                "pitch": 59,
                "velocity": 80,
                "duration": 0.1113636,
                "tempo": 120.0
            },
            {
                "start_time": 7.5863636,
                "end_time": 7.6772727,
                "pitch": 52,
                "velocity": 80,
                "duration": 0.0909091,
                "tempo": 120.0
            },
            {
                "start_time": 7.6931818,
                "end_time": 7.7977273,
                "pitch": 58,
                "velocity": 80,
                "duration": 0.1045455,
                "tempo": 120.0
            },
            {
                "start_time": 7.8136364,
                "end_time": 7.9022727,
                "pitch": 52,
                "velocity": 80,
                "duration": 0.0886364,
                "tempo": 120.0
            },
            {
                "start_time": 7.9181818,
                "end_time": 8.0204545,
                "pitch": 59,
                "velocity": 80,
                "duration": 0.1022727,
                "tempo": 120.0
            },
            {
                "start_time": 8.0363636,
                "end_time": 8.2409091,
                "pitch": 52,
                "velocity": 80,
                "duration": 0.2045455,
                "tempo": 120.0
            },
            {
                "start_time": 8.2568182,
                "end_time": 8.3454545,
                "pitch": 52,
                "velocity": 80,
                "duration": 0.0886364,
                "tempo": 120.0
            },
            {
                "start_time": 8.3590909,
                "end_time": 8.475,
                "pitch": 58,
                "velocity": 80,
                "duration": 0.1159091,
                "tempo": 120.0
            },
            {
                "start_time": 8.4931818,
                "end_time": 8.725,
                "pitch": 52,
                "velocity": 80,
                "duration": 0.2318182,
                "tempo": 120.0
            },
            {
                "start_time": 8.7431818,
                "end_time": 8.8431818,
                "pitch": 52,
                "velocity": 80,
                "duration": 0.1,
                "tempo": 120.0
            },
            {
                "start_time": 8.8590909,
                "end_time": 8.9795455,
                "pitch": 62,
                "velocity": 80,
                "duration": 0.1204545,
                "tempo": 120.0
            },
            {
                "start_time": 8.9954545,
                "end_time": 9.0977273,
                "pitch": 52,
                "velocity": 80,
                "duration": 0.1022727,
                "tempo": 120.0
            },
            {
                "start_time": 9.1159091,
                "end_time": 9.2340909,
                "pitch": 61,
                "velocity": 80,
                "duration": 0.1181818,
                "tempo": 120.0
            },
            {
                "start_time": 9.2522727,
                "end_time": 9.3545455,
                "pitch": 52,
                "velocity": 80,
                "duration": 0.1022727,
                "tempo": 120.0
            },
            {
                "start_time": 9.3727273,
                "end_time": 9.4863636,
                "pitch": 59,
                "velocity": 80,
                "duration": 0.1136364,
                "tempo": 120.0
            },
            {
                "start_time": 9.5022727,
                "end_time": 9.6022727,
                "pitch": 52,
                "velocity": 80,
                "duration": 0.1,
                "tempo": 120.0
            },
            {
                "start_time": 9.6181818,
                "end_time": 9.7318182,
                "pitch": 58,
                "velocity": 80,
                "duration": 0.1136364,
                "tempo": 120.0
            },
            {
                "start_time": 9.75,
                "end_time": 9.8477273,
                "pitch": 52,
                "velocity": 80,
                "duration": 0.0977273,
                "tempo": 120.0
            },
            {
                "start_time": 9.8636364,
                "end_time": 9.9818182,
                "pitch": 59,
                "velocity": 80,
                "duration": 0.1181818,
                "tempo": 120.0
            },
            {
                "start_time": 10.0,
                "end_time": 10.2386364,
                "pitch": 52,
                "velocity": 80,
                "duration": 0.2386364,
                "tempo": 120.0
            },
            {
                "start_time": 10.2568182,
                "end_time": 10.3590909,
                "pitch": 52,
                "velocity": 80,
                "duration": 0.1022727,
                "tempo": 120.0
            },
            {
                "start_time": 10.375,
                "end_time": 10.4909091,
                "pitch": 58,
                "velocity": 80,
                "duration": 0.1159091,
                "tempo": 120.0
            },
            {
                "start_time": 10.5068182,
                "end_time": 10.7363636,
                "pitch": 52,
                "velocity": 80,
                "duration": 0.2295455,
                "tempo": 120.0
            },
            {
                "start_time": 10.7522727,
                "end_time": 10.8522727,
                "pitch": 52,
                "velocity": 80,
                "duration": 0.1,
                "tempo": 120.0
            },
            {
                "start_time": 10.8681818,
                "end_time": 10.9863636,
                "pitch": 62,
                "velocity": 80,
                "duration": 0.1181818,
                "tempo": 120.0
            },
            {
                "start_time": 11.0045455,
                "end_time": 11.1068182,
                "pitch": 52,
                "velocity": 80,
                "duration": 0.1022727,
                "tempo": 120.0
            },
            {
                "start_time": 11.1227273,
                "end_time": 11.2431818,
                "pitch": 61,
                "velocity": 80,
                "duration": 0.1204545,
                "tempo": 120.0
            },
            {
                "start_time": 11.2613636,
                "end_time": 11.3636364,
                "pitch": 52,
                "velocity": 80,
                "duration": 0.1022727,
                "tempo": 120.0
            },
            {
                "start_time": 11.3795455,
                "end_time": 11.4954545,
                "pitch": 59,
                "velocity": 80,
                "duration": 0.1159091,
                "tempo": 120.0
            },
            {
                "start_time": 11.5113636,
                "end_time": 11.6090909,
                "pitch": 52,
                "velocity": 80,
                "duration": 0.0977273,
                "tempo": 120.0
            },
            {
                "start_time": 11.6272727,
                "end_time": 11.7409091,
                "pitch": 58,
                "velocity": 80,
                "duration": 0.1136364,
                "tempo": 120.0
            },
            {
                "start_time": 11.7568182,
                "end_time": 11.8568182,
                "pitch": 52,
                "velocity": 80,
                "duration": 0.1,
                "tempo": 120.0
            },
            {
                "start_time": 11.8727273,
                "end_time": 11.9909091,
                "pitch": 59,
                "velocity": 80,
                "duration": 0.1181818,
                "tempo": 120.0
            },
            {
                "start_time": 12.0090909,
                "end_time": 12.2477273,
                "pitch": 52,
                "velocity": 80,
                "duration": 0.2386364,
                "tempo": 120.0
            },
            {
                "start_time": 12.2659091,
                "end_time": 12.3681818,
                "pitch": 52,
                "velocity": 80,
                "duration": 0.1022727,
                "tempo": 120.0
            },
            {
                "start_time": 12.3840909,
                "end_time": 12.5,
                "pitch": 58,
                "velocity": 80,
                "duration": 0.1159091,
                "tempo": 120.0
            },
            {
                "start_time": 12.5159091,
                "end_time": 12.7454545,
                "pitch": 52,
                "velocity": 80,
                "duration": 0.2295455,
                "tempo": 120.0
            },
            {
                "start_time": 12.7613636,
                "end_time": 12.8590909,
                "pitch": 52,
                "velocity": 80,
                "duration": 0.0977273,
                "tempo": 120.0
            },
            {
                "start_time": 12.8772727,
                "end_time": 12.9954545,
                "pitch": 62,
                "velocity": 80,
                "duration": 0.1181818,
                "tempo": 120.0
            },
            {
                "start_time": 13.0136364,
                "end_time": 13.1159091,
                "pitch": 52,
                "velocity": 80,
                "duration": 0.1022727,
                "tempo": 120.0
            },
            {
                "start_time": 13.1318182,
                "end_time": 13.2522727,
                "pitch": 61,
                "velocity": 80,
                "duration": 0.1204545,
                "tempo": 120.0
            },
            {
                "start_time": 13.2681818,
                "end_time": 13.3704545,
                "pitch": 52,
                "velocity": 80,
                "duration": 0.1022727,
                "tempo": 120.0
            },
            {
                "start_time": 13.3886364,
                "end_time": 13.5045455,
                "pitch": 59,
                "velocity": 80,
                "duration": 0.1159091,
                "tempo": 120.0
            },
            {
                "start_time": 13.5204545,
                "end_time": 13.6181818,
                "pitch": 52,
                "velocity": 80,
                "duration": 0.0977273,
                "tempo": 120.0
            },
            {
                "start_time": 13.6340909,
                "end_time": 13.75,
                "pitch": 58,
                "velocity": 80,
                "duration": 0.1159091,
                "tempo": 120.0
            },
            {
                "start_time": 13.7659091,
                "end_time": 13.8636364,
                "pitch": 52,
                "velocity": 80,
                "duration": 0.0977273,
                "tempo": 120.0
            },
            {
                "start_time": 13.8795455,
                "end_time": 14.0,
                "pitch": 59,
                "velocity": 80,
                "duration": 0.1204545,
                "tempo": 120.0
            },
            {
                "start_time": 14.0159091,
                "end_time": 14.2568182,
                "pitch": 52,
                "velocity": 80,
                "duration": 0.2409091,
                "tempo": 120.0
            },
            {
                "start_time": 14.2727273,
                "end_time": 14.375,
                "pitch": 52,
                "velocity": 80,
                "duration": 0.1022727,
                "tempo": 120.0
            },
            {
                "start_time": 14.3931818,
                "end_time": 14.5068182,
                "pitch": 58,
                "velocity": 80,
                "duration": 0.1136364,
                "tempo": 120.0
            },
            {
                "start_time": 14.525,
                "end_time": 14.7545455,
                "pitch": 52,
                "velocity": 80,
                "duration": 0.2295455,
                "tempo": 120.0
            },
            {
                "start_time": 14.7704545,
                "end_time": 14.8681818,
                "pitch": 52,
                "velocity": 80,
                "duration": 0.0977273,
                "tempo": 120.0
            },
            {
                "start_time": 14.8840909,
                "end_time": 15.0045455,
                "pitch": 62,
                "velocity": 80,
                "duration": 0.1204545,
                "tempo": 120.0
            },
            {
                "start_time": 15.0204545,
                "end_time": 15.1227273,
                "pitch": 52,
                "velocity": 80,
                "duration": 0.1022727,
                "tempo": 120.0
            },
            {
                "start_time": 15.1409091,
                "end_time": 15.2613636,
                "pitch": 61,
                "velocity": 80,
                "duration": 0.1204545,
                "tempo": 120.0
            },
            {
                "start_time": 15.2772727,
                "end_time": 15.3795455,
                "pitch": 52,
                "velocity": 80,
                "duration": 0.1022727,
                "tempo": 120.0
            },
            {
                "start_time": 15.3977273,
                "end_time": 15.5113636,
                "pitch": 59,
                "velocity": 80,
                "duration": 0.1136364,
                "tempo": 120.0
            },
            {
                "start_time": 15.5272727,
                "end_time": 15.6272727,
                "pitch": 52,
                "velocity": 80,
                "duration": 0.1,
                "tempo": 120.0
            },
            {
                "start_time": 15.6431818,
                "end_time": 15.7568182,
                "pitch": 58,
                "velocity": 80,
                "duration": 0.1136364,
                "tempo": 120.0
            },
            {
                "start_time": 15.775,
                "end_time": 15.8727273,
                "pitch": 52,
                "velocity": 80,
                "duration": 0.0977273,
                "tempo": 120.0
            },
            {
                "start_time": 15.8886364,
                "end_time": 16.0090909,
                "pitch": 59,
                "velocity": 80,
                "duration": 0.1204545,
                "tempo": 120.0
            },
            {
                "start_time": 16.025,
                "end_time": 16.2636364,
                "pitch": 52,
                "velocity": 80,
                "duration": 0.2386364,
                "tempo": 120.0
            },
            {
                "start_time": 16.2818182,
                "end_time": 16.3840909,
                "pitch": 52,
                "velocity": 80,
                "duration": 0.1022727,
                "tempo": 120.0
            },
            {
                "start_time": 16.4022727,
                "end_time": 16.5159091,
                "pitch": 58,
                "velocity": 80,
                "duration": 0.1136364,
                "tempo": 120.0
            },
            {
                "start_time": 16.5318182,
                "end_time": 16.7613636,
                "pitch": 52,
                "velocity": 80,
                "duration": 0.2295455,
                "tempo": 120.0
            },
            {
                "start_time": 16.7772727,
                "end_time": 16.8772727,
                "pitch": 52,
                "velocity": 80,
                "duration": 0.1,
                "tempo": 120.0
            },
            {
                "start_time": 16.8931818,
                "end_time": 17.0113636,
                "pitch": 62,
                "velocity": 80,
                "duration": 0.1181818,
                "tempo": 120.0
            },
            {
                "start_time": 17.0295455,
                "end_time": 17.1318182,
                "pitch": 52,
                "velocity": 80,
                "duration": 0.1022727,
                "tempo": 120.0
            },
            {
                "start_time": 17.15,
                "end_time": 17.2681818,
                "pitch": 61,
                "velocity": 80,
                "duration": 0.1181818,
                "tempo": 120.0
            },
            {
                "start_time": 17.2863636,
                "end_time": 17.3886364,
                "pitch": 52,
                "velocity": 80,
                "duration": 0.1022727,
                "tempo": 120.0
            },
            {
                "start_time": 17.4045455,
                "end_time": 17.5204545,
                "pitch": 59,
                "velocity": 80,
                "duration": 0.1159091,
                "tempo": 120.0
            },
            {
                "start_time": 17.5363636,
                "end_time": 17.6340909,
                "pitch": 52,
                "velocity": 80,
                "duration": 0.0977273,
                "tempo": 120.0
            },
            {
                "start_time": 17.6522727,
                "end_time": 17.7659091,
                "pitch": 58,
                "velocity": 80,
                "duration": 0.1136364,
                "tempo": 120.0
            },
            {
                "start_time": 17.7818182,
                "end_time": 17.8818182,
                "pitch": 52,
                "velocity": 80,
                "duration": 0.1,
                "tempo": 120.0
            },
            {
                "start_time": 17.8977273,
                "end_time": 18.0159091,
                "pitch": 59,
                "velocity": 80,
                "duration": 0.1181818,
                "tempo": 120.0
            },
            {
                "start_time": 18.0340909,
                "end_time": 18.2727273,
                "pitch": 52,
                "velocity": 80,
                "duration": 0.2386364,
                "tempo": 120.0
            },
            {
                "start_time": 18.2909091,
                "end_time": 18.3931818,
                "pitch": 52,
                "velocity": 80,
                "duration": 0.1022727,
                "tempo": 120.0
            },
            {
                "start_time": 18.4090909,
                "end_time": 18.525,
                "pitch": 58,
                "velocity": 80,
                "duration": 0.1159091,
                "tempo": 120.0
            },
            {
                "start_time": 18.5409091,
                "end_time": 18.7704545,
                "pitch": 52,
                "velocity": 80,
                "duration": 0.2295455,
                "tempo": 120.0
            },
            {
                "start_time": 18.7863636,
                "end_time": 18.8840909,
                "pitch": 52,
                "velocity": 80,
                "duration": 0.0977273,
                "tempo": 120.0
            },
            {
                "start_time": 18.9022727,
                "end_time": 19.0204545,
                "pitch": 62,
                "velocity": 80,
                "duration": 0.1181818,
                "tempo": 120.0
            },
            {
                "start_time": 19.0386364,
                "end_time": 19.1409091,
                "pitch": 52,
                "velocity": 80,
                "duration": 0.1022727,
                "tempo": 120.0
            },
            {
                "start_time": 19.1568182,
                "end_time": 19.2772727,
                "pitch": 61,
                "velocity": 80,
                "duration": 0.1204545,
                "tempo": 120.0
            },
            {
                "start_time": 19.2931818,
                "end_time": 19.3977273,
                "pitch": 52,
                "velocity": 80,
                "duration": 0.1045455,
                "tempo": 120.0
            },
            {
                "start_time": 19.4136364,
                "end_time": 19.5295455,
                "pitch": 59,
                "velocity": 80,
                "duration": 0.1159091,
                "tempo": 120.0
            },
            {
                "start_time": 19.5454545,
                "end_time": 19.6431818,
                "pitch": 52,
                "velocity": 80,
                "duration": 0.0977273,
                "tempo": 120.0
            },
            {
                "start_time": 19.6590909,
                "end_time": 19.775,
                "pitch": 58,
                "velocity": 80,
                "duration": 0.1159091,
                "tempo": 120.0
            },
            {
                "start_time": 19.7909091,
                "end_time": 19.8886364,
                "pitch": 52,
                "velocity": 80,
                "duration": 0.0977273,
                "tempo": 120.0
            },
            {
                "start_time": 19.9068182,
                "end_time": 20.025,
                "pitch": 59,
                "velocity": 80,
                "duration": 0.1181818,
                "tempo": 120.0
            },
            {
                "start_time": 20.0409091,
                "end_time": 20.2818182,
                "pitch": 52,
                "velocity": 80,
                "duration": 0.2409091,
                "tempo": 120.0
            },
            {
                "start_time": 20.2977273,
                "end_time": 20.4,
                "pitch": 52,
                "velocity": 80,
                "duration": 0.1022727,
                "tempo": 120.0
            },
            {
                "start_time": 20.4181818,
                "end_time": 20.5318182,
                "pitch": 58,
                "velocity": 80,
                "duration": 0.1136364,
                "tempo": 120.0
            },
            {
                "start_time": 20.55,
                "end_time": 20.7795455,
                "pitch": 52,
                "velocity": 80,
                "duration": 0.2295455,
                "tempo": 120.0
            },
            {
                "start_time": 20.7954545,
                "end_time": 20.8931818,
                "pitch": 52,
                "velocity": 80,
                "duration": 0.0977273,
                "tempo": 120.0
            },
            {
                "start_time": 20.9090909,
                "end_time": 21.0295455,
                "pitch": 62,
                "velocity": 80,
                "duration": 0.1204545,
                "tempo": 120.0
            },
            {
                "start_time": 21.0454545,
                "end_time": 21.1477273,
                "pitch": 52,
                "velocity": 80,
                "duration": 0.1022727,
                "tempo": 120.0
            },
            {
                "start_time": 21.1659091,
                "end_time": 21.2863636,
                "pitch": 61,
                "velocity": 80,
                "duration": 0.1204545,
                "tempo": 120.0
            },
            {
                "start_time": 21.3022727,
                "end_time": 21.4045455,
                "pitch": 52,
                "velocity": 80,
                "duration": 0.1022727,
                "tempo": 120.0
            },
            {
                "start_time": 21.4227273,
                "end_time": 21.5363636,
                "pitch": 59,
                "velocity": 80,
                "duration": 0.1136364,
                "tempo": 120.0
            },
            {
                "start_time": 21.5545455,
                "end_time": 21.6522727,
                "pitch": 52,
                "velocity": 80,
                "duration": 0.0977273,
                "tempo": 120.0
            },
            {
                "start_time": 21.6681818,
                "end_time": 21.7840909,
                "pitch": 58,
                "velocity": 80,
                "duration": 0.1159091,
                "tempo": 120.0
            },
            {
                "start_time": 21.8,
                "end_time": 21.8977273,
                "pitch": 52,
                "velocity": 80,
                "duration": 0.0977273,
                "tempo": 120.0
            },
            {
                "start_time": 21.9136364,
                "end_time": 22.0340909,
                "pitch": 59,
                "velocity": 80,
                "duration": 0.1204545,
                "tempo": 120.0
            },
            {
                "start_time": 22.05,
                "end_time": 22.2886364,
                "pitch": 52,
                "velocity": 80,
                "duration": 0.2386364,
                "tempo": 120.0
            },
            {
                "start_time": 22.3068182,
                "end_time": 22.4090909,
                "pitch": 52,
                "velocity": 80,
                "duration": 0.1022727,
                "tempo": 120.0
            },
            {
                "start_time": 22.4272727,
                "end_time": 22.5409091,
                "pitch": 58,
                "velocity": 80,
                "duration": 0.1136364,
                "tempo": 120.0
            },
            {
                "start_time": 22.5568182,
                "end_time": 22.7863636,
                "pitch": 52,
                "velocity": 80,
                "duration": 0.2295455,
                "tempo": 120.0
            },
            {
                "start_time": 22.8045455,
                "end_time": 22.9022727,
                "pitch": 52,
                "velocity": 80,
                "duration": 0.0977273,
                "tempo": 120.0
            },
            {
                "start_time": 22.9181818,
                "end_time": 23.0386364,
                "pitch": 62,
                "velocity": 80,
                "duration": 0.1204545,
                "tempo": 120.0
            },
            {
                "start_time": 23.0545455,
                "end_time": 23.1568182,
                "pitch": 52,
                "velocity": 80,
                "duration": 0.1022727,
                "tempo": 120.0
            },
            {
                "start_time": 23.175,
                "end_time": 23.2931818,
                "pitch": 61,
                "velocity": 80,
                "duration": 0.1181818,
                "tempo": 120.0
            },
            {
                "start_time": 23.3113636,
                "end_time": 23.4136364,
                "pitch": 52,
                "velocity": 80,
                "duration": 0.1022727,
                "tempo": 120.0
            },
            {
                "start_time": 23.4318182,
                "end_time": 23.5454545,
                "pitch": 59,
                "velocity": 80,
                "duration": 0.1136364,
                "tempo": 120.0
            },
            {
                "start_time": 23.5613636,
                "end_time": 23.6613636,
                "pitch": 52,
                "velocity": 80,
                "duration": 0.1,
                "tempo": 120.0
            },
            {
                "start_time": 23.6772727,
                "end_time": 23.7909091,
                "pitch": 58,
                "velocity": 80,
                "duration": 0.1136364,
                "tempo": 120.0
            },
            {
                "start_time": 23.8068182,
                "end_time": 23.9068182,
                "pitch": 52,
                "velocity": 80,
                "duration": 0.1,
                "tempo": 120.0
            },
            {
                "start_time": 23.9227273,
                "end_time": 24.0409091,
                "pitch": 59,
                "velocity": 80,
                "duration": 0.1181818,
                "tempo": 120.0
            },
            {
                "start_time": 24.0590909,
                "end_time": 24.2977273,
                "pitch": 52,
                "velocity": 80,
                "duration": 0.2386364,
                "tempo": 120.0
            },
            {
                "start_time": 24.3159091,
                "end_time": 24.4181818,
                "pitch": 52,
                "velocity": 80,
                "duration": 0.1022727,
                "tempo": 120.0
            },
            {
                "start_time": 24.4340909,
                "end_time": 24.5454545,
                "pitch": 58,
                "velocity": 80,
                "duration": 0.1113636,
                "tempo": 120.0
            },
            {
                "start_time": 24.5613636,
                "end_time": 24.7863636,
                "pitch": 52,
                "velocity": 80,
                "duration": 0.225,
                "tempo": 120.0
            },
            {
                "start_time": 24.8022727,
                "end_time": 24.8977273,
                "pitch": 52,
                "velocity": 80,
                "duration": 0.0954545,
                "tempo": 120.0
            },
            {
                "start_time": 24.9136364,
                "end_time": 25.0318182,
                "pitch": 62,
                "velocity": 80,
                "duration": 0.1181818,
                "tempo": 120.0
            },
            {
                "start_time": 25.0477273,
                "end_time": 25.1477273,
                "pitch": 52,
                "velocity": 80,
                "duration": 0.1,
                "tempo": 120.0
            },
            {
                "start_time": 25.1636364,
                "end_time": 25.2818182,
                "pitch": 61,
                "velocity": 80,
                "duration": 0.1181818,
                "tempo": 120.0
            },
            {
                "start_time": 25.2977273,
                "end_time": 25.3977273,
                "pitch": 52,
                "velocity": 80,
                "duration": 0.1,
                "tempo": 120.0
            },
            {
                "start_time": 25.4136364,
                "end_time": 25.5340909,
                "pitch": 59,
                "velocity": 80,
                "duration": 0.1204545,
                "tempo": 120.0
            },
            {
                "start_time": 25.5522727,
                "end_time": 25.6545455,
                "pitch": 52,
                "velocity": 80,
                "duration": 0.1022727,
                "tempo": 120.0
            },
            {
                "start_time": 25.6704545,
                "end_time": 25.7909091,
                "pitch": 58,
                "velocity": 80,
                "duration": 0.1204545,
                "tempo": 120.0
            },
            {
                "start_time": 25.8068182,
                "end_time": 25.9113636,
                "pitch": 52,
                "velocity": 80,
                "duration": 0.1045455,
                "tempo": 120.0
            },
            {
                "start_time": 25.9272727,
                "end_time": 26.0409091,
                "pitch": 59,
                "velocity": 80,
                "duration": 0.1136364,
                "tempo": 120.0
            },
            {
                "start_time": 26.0590909,
                "end_time": 26.2886364,
                "pitch": 52,
                "velocity": 80,
                "duration": 0.2295455,
                "tempo": 120.0
            },
            {
                "start_time": 26.3045455,
                "end_time": 26.4022727,
                "pitch": 52,
                "velocity": 80,
                "duration": 0.0977273,
                "tempo": 120.0
            },
            {
                "start_time": 26.4181818,
                "end_time": 26.5340909,
                "pitch": 58,
                "velocity": 80,
                "duration": 0.1159091,
                "tempo": 120.0
            },
            {
                "start_time": 26.55,
                "end_time": 26.7795455,
                "pitch": 52,
                "velocity": 80,
                "duration": 0.2295455,
                "tempo": 120.0
            },
            {
                "start_time": 26.7954545,
                "end_time": 26.8954545,
                "pitch": 52,
                "velocity": 80,
                "duration": 0.1,
                "tempo": 120.0
            },
            {
                "start_time": 26.9113636,
                "end_time": 27.0272727,
                "pitch": 62,
                "velocity": 80,
                "duration": 0.1159091,
                "tempo": 120.0
            },
            {
                "start_time": 27.0454545,
                "end_time": 27.1454545,
                "pitch": 52,
                "velocity": 80,
                "duration": 0.1,
                "tempo": 120.0
            },
            {
                "start_time": 27.1613636,
                "end_time": 27.2772727,
                "pitch": 61,
                "velocity": 80,
                "duration": 0.1159091,
                "tempo": 120.0
            },
            {
                "start_time": 27.2954545,
                "end_time": 27.3954545,
                "pitch": 52,
                "velocity": 80,
                "duration": 0.1,
                "tempo": 120.0
            },
            {
                "start_time": 27.4113636,
                "end_time": 27.5318182,
                "pitch": 59,
                "velocity": 80,
                "duration": 0.1204545,
                "tempo": 120.0
            },
            {
                "start_time": 27.5477273,
                "end_time": 27.65,
                "pitch": 52,
                "velocity": 80,
                "duration": 0.1022727,
                "tempo": 120.0
            },
            {
                "start_time": 27.6681818,
                "end_time": 27.7863636,
                "pitch": 58,
                "velocity": 80,
                "duration": 0.1181818,
                "tempo": 120.0
            },
            {
                "start_time": 27.8045455,
                "end_time": 27.9068182,
                "pitch": 52,
                "velocity": 80,
                "duration": 0.1022727,
                "tempo": 120.0
            },
            {
                "start_time": 27.925,
                "end_time": 28.0431818,
                "pitch": 59,
                "velocity": 80,
                "duration": 0.1181818,
                "tempo": 120.0
            },
            {
                "start_time": 28.0613636,
                "end_time": 28.3,
                "pitch": 52,
                "velocity": 80,
                "duration": 0.2386364,
                "tempo": 120.0
            },
            {
                "start_time": 28.3181818,
                "end_time": 28.4204545,
                "pitch": 52,
                "velocity": 80,
                "duration": 0.1022727,
                "tempo": 120.0
            },
            {
                "start_time": 28.4363636,
                "end_time": 28.5545455,
                "pitch": 58,
                "velocity": 80,
                "duration": 0.1181818,
                "tempo": 120.0
            },
            {
                "start_time": 28.5704545,
                "end_time": 28.8045455,
                "pitch": 52,
                "velocity": 80,
                "duration": 0.2340909,
                "tempo": 120.0
            },
            {
                "start_time": 28.8204545,
                "end_time": 28.9204545,
                "pitch": 52,
                "velocity": 80,
                "duration": 0.1,
                "tempo": 120.0
            },
            {
                "start_time": 28.9363636,
                "end_time": 29.0568182,
                "pitch": 62,
                "velocity": 80,
                "duration": 0.1204545,
                "tempo": 120.0
            },
            {
                "start_time": 29.0727273,
                "end_time": 29.175,
                "pitch": 52,
                "velocity": 80,
                "duration": 0.1022727,
                "tempo": 120.0
            },
            {
                "start_time": 29.1931818,
                "end_time": 29.3136364,
                "pitch": 61,
                "velocity": 80,
                "duration": 0.1204545,
                "tempo": 120.0
            },
            {
                "start_time": 29.3295455,
                "end_time": 29.4318182,
                "pitch": 52,
                "velocity": 80,
                "duration": 0.1022727,
                "tempo": 120.0
            },
            {
                "start_time": 29.45,
                "end_time": 29.5636364,
                "pitch": 59,
                "velocity": 80,
                "duration": 0.1136364,
                "tempo": 120.0
            },
            {
                "start_time": 29.5795455,
                "end_time": 29.6795455,
                "pitch": 52,
                "velocity": 80,
                "duration": 0.1,
                "tempo": 120.0
            },
            {
                "start_time": 29.6954545,
                "end_time": 29.8090909,
                "pitch": 58,
                "velocity": 80,
                "duration": 0.1136364,
                "tempo": 120.0
            },
            {
                "start_time": 29.8272727,
                "end_time": 29.925,
                "pitch": 52,
                "velocity": 80,
                "duration": 0.0977273,
                "tempo": 120.0
            },
            {
                "start_time": 29.9409091,
                "end_time": 30.0590909,
                "pitch": 59,
                "velocity": 80,
                "duration": 0.1181818,
                "tempo": 120.0
            },
            {
                "start_time": 30.075,
                "end_time": 30.3090909,
                "pitch": 52,
                "velocity": 80,
                "duration": 0.2340909,
                "tempo": 120.0
            },
            {
                "start_time": 30.325,
                "end_time": 30.425,
                "pitch": 52,
                "velocity": 80,
                "duration": 0.1,
                "tempo": 120.0
            },
            {
                "start_time": 30.4409091,
                "end_time": 30.5545455,
                "pitch": 58,
                "velocity": 80,
                "duration": 0.1136364,
                "tempo": 120.0
            },
            {
                "start_time": 30.5704545,
                "end_time": 30.7954545,
                "pitch": 52,
                "velocity": 80,
                "duration": 0.225,
                "tempo": 120.0
            },
            {
                "start_time": 30.8113636,
                "end_time": 30.9090909,
                "pitch": 52,
                "velocity": 80,
                "duration": 0.0977273,
                "tempo": 120.0
            },
            {
                "start_time": 30.925,
                "end_time": 31.0409091,
                "pitch": 62,
                "velocity": 80,
                "duration": 0.1159091,
                "tempo": 120.0
            },
            {
                "start_time": 31.0590909,
                "end_time": 31.1590909,
                "pitch": 52,
                "velocity": 80,
                "duration": 0.1,
                "tempo": 120.0
            },
            {
                "start_time": 31.175,
                "end_time": 31.2909091,
                "pitch": 61,
                "velocity": 80,
                "duration": 0.1159091,
                "tempo": 120.0
            },
            {
                "start_time": 31.3090909,
                "end_time": 31.4090909,
                "pitch": 52,
                "velocity": 80,
                "duration": 0.1,
                "tempo": 120.0
            },
            {
                "start_time": 31.425,
                "end_time": 31.5454545,
                "pitch": 59,
                "velocity": 80,
                "duration": 0.1204545,
                "tempo": 120.0
            },
            {
                "start_time": 31.5613636,
                "end_time": 31.6636364,
                "pitch": 52,
                "velocity": 80,
                "duration": 0.1022727,
                "tempo": 120.0
            },
            {
                "start_time": 31.6818182,
                "end_time": 31.8022727,
                "pitch": 58,
                "velocity": 80,
                "duration": 0.1204545,
                "tempo": 120.0
            },
            {
                "start_time": 31.8181818,
                "end_time": 31.9204545,
                "pitch": 52,
                "velocity": 80,
                "duration": 0.1022727,
                "tempo": 120.0
            },
            {
                "start_time": 31.9386364,
                "end_time": 32.0568182,
                "pitch": 59,
                "velocity": 80,
                "duration": 0.1181818,
                "tempo": 120.0
            },
            {
                "start_time": 32.075,
                "end_time": 32.3136364,
                "pitch": 52,
                "velocity": 80,
                "duration": 0.2386364,
                "tempo": 120.0
            },
            {
                "start_time": 32.3318182,
                "end_time": 32.4340909,
                "pitch": 52,
                "velocity": 80,
                "duration": 0.1022727,
                "tempo": 120.0
            },
            {
                "start_time": 32.45,
                "end_time": 32.5681818,
                "pitch": 58,
                "velocity": 80,
                "duration": 0.1181818,
                "tempo": 120.0
            },
            {
                "start_time": 32.5840909,
                "end_time": 32.8181818,
                "pitch": 52,
                "velocity": 80,
                "duration": 0.2340909,
                "tempo": 120.0
            },
            {
                "start_time": 32.8340909,
                "end_time": 32.9340909,
                "pitch": 52,
                "velocity": 80,
                "duration": 0.1,
                "tempo": 120.0
            },
            {
                "start_time": 32.95,
                "end_time": 33.0704545,
                "pitch": 62,
                "velocity": 80,
                "duration": 0.1204545,
                "tempo": 120.0
            },
            {
                "start_time": 33.0886364,
                "end_time": 33.1909091,
                "pitch": 52,
                "velocity": 80,
                "duration": 0.1022727,
                "tempo": 120.0
            },
            {
                "start_time": 33.2068182,
                "end_time": 33.3272727,
                "pitch": 61,
                "velocity": 80,
                "duration": 0.1204545,
                "tempo": 120.0
            },
            {
                "start_time": 33.3431818,
                "end_time": 33.4454545,
                "pitch": 52,
                "velocity": 80,
                "duration": 0.1022727,
                "tempo": 120.0
            },
            {
                "start_time": 33.4636364,
                "end_time": 33.5772727,
                "pitch": 59,
                "velocity": 80,
                "duration": 0.1136364,
                "tempo": 120.0
            },
            {
                "start_time": 33.5954545,
                "end_time": 33.6931818,
                "pitch": 52,
                "velocity": 80,
                "duration": 0.0977273,
                "tempo": 120.0
            },
            {
                "start_time": 33.7090909,
                "end_time": 33.825,
                "pitch": 58,
                "velocity": 80,
                "duration": 0.1159091,
                "tempo": 120.0
            },
            {
                "start_time": 33.8409091,
                "end_time": 33.9386364,
                "pitch": 52,
                "velocity": 80,
                "duration": 0.0977273,
                "tempo": 120.0
            },
            {
                "start_time": 33.9545455,
                "end_time": 34.0727273,
                "pitch": 59,
                "velocity": 80,
                "duration": 0.1181818,
                "tempo": 120.0
            },
            {
                "start_time": 34.0886364,
                "end_time": 34.3227273,
                "pitch": 52,
                "velocity": 80,
                "duration": 0.2340909,
                "tempo": 120.0
            },
            {
                "start_time": 34.3386364,
                "end_time": 34.4386364,
                "pitch": 52,
                "velocity": 80,
                "duration": 0.1,
                "tempo": 120.0
            },
            {
                "start_time": 34.4545455,
                "end_time": 34.5659091,
                "pitch": 58,
                "velocity": 80,
                "duration": 0.1113636,
                "tempo": 120.0
            },
            {
                "start_time": 34.5818182,
                "end_time": 34.8068182,
                "pitch": 52,
                "velocity": 80,
                "duration": 0.225,
                "tempo": 120.0
            },
            {
                "start_time": 34.8227273,
                "end_time": 34.9181818,
                "pitch": 52,
                "velocity": 80,
                "duration": 0.0954545,
                "tempo": 120.0
            },
            {
                "start_time": 34.9363636,
                "end_time": 35.0522727,
                "pitch": 62,
                "velocity": 80,
                "duration": 0.1159091,
                "tempo": 120.0
            },
            {
                "start_time": 35.0681818,
                "end_time": 35.1681818,
                "pitch": 52,
                "velocity": 80,
                "duration": 0.1,
                "tempo": 120.0
            },
            {
                "start_time": 35.1863636,
                "end_time": 35.3022727,
                "pitch": 61,
                "velocity": 80,
                "duration": 0.1159091,
                "tempo": 120.0
            },
            {
                "start_time": 35.3181818,
                "end_time": 35.4181818,
                "pitch": 52,
                "velocity": 80,
                "duration": 0.1,
                "tempo": 120.0
            },
            {
                "start_time": 35.4363636,
                "end_time": 35.5545455,
                "pitch": 59,
                "velocity": 80,
                "duration": 0.1181818,
                "tempo": 120.0
            },
            {
                "start_time": 35.5727273,
                "end_time": 35.675,
                "pitch": 52,
                "velocity": 80,
                "duration": 0.1022727,
                "tempo": 120.0
            },
            {
                "start_time": 35.6931818,
                "end_time": 35.8113636,
                "pitch": 58,
                "velocity": 80,
                "duration": 0.1181818,
                "tempo": 120.0
            },
            {
                "start_time": 35.8295455,
                "end_time": 35.9318182,
                "pitch": 52,
                "velocity": 80,
                "duration": 0.1022727,
                "tempo": 120.0
            },
            {
                "start_time": 35.9477273,
                "end_time": 36.0681818,
                "pitch": 59,
                "velocity": 80,
                "duration": 0.1204545,
                "tempo": 120.0
            },
            {
                "start_time": 36.0840909,
                "end_time": 36.325,
                "pitch": 52,
                "velocity": 80,
                "duration": 0.2409091,
                "tempo": 120.0
            },
            {
                "start_time": 36.3409091,
                "end_time": 36.4431818,
                "pitch": 52,
                "velocity": 80,
                "duration": 0.1022727,
                "tempo": 120.0
            },
            {
                "start_time": 36.4613636,
                "end_time": 36.5772727,
                "pitch": 58,
                "velocity": 80,
                "duration": 0.1159091,
                "tempo": 120.0
            },
            {
                "start_time": 36.5954545,
                "end_time": 36.8272727,
                "pitch": 52,
                "velocity": 80,
                "duration": 0.2318182,
                "tempo": 120.0
            },
            {
                "start_time": 36.8454545,
                "end_time": 36.9454545,
                "pitch": 52,
                "velocity": 80,
                "duration": 0.1,
                "tempo": 120.0
            },
            {
                "start_time": 36.9613636,
                "end_time": 37.0818182,
                "pitch": 62,
                "velocity": 80,
                "duration": 0.1204545,
                "tempo": 120.0
            },
            {
                "start_time": 37.0977273,
                "end_time": 37.2,
                "pitch": 52,
                "velocity": 80,
                "duration": 0.1022727,
                "tempo": 120.0
            },
            {
                "start_time": 37.2181818,
                "end_time": 37.3363636,
                "pitch": 61,
                "velocity": 80,
                "duration": 0.1181818,
                "tempo": 120.0
            },
            {
                "start_time": 37.3545455,
                "end_time": 37.4568182,
                "pitch": 52,
                "velocity": 80,
                "duration": 0.1022727,
                "tempo": 120.0
            },
            {
                "start_time": 37.4727273,
                "end_time": 37.5886364,
                "pitch": 59,
                "velocity": 80,
                "duration": 0.1159091,
                "tempo": 120.0
            },
            {
                "start_time": 37.6045455,
                "end_time": 37.7045455,
                "pitch": 52,
                "velocity": 80,
                "duration": 0.1,
                "tempo": 120.0
            },
            {
                "start_time": 37.7204545,
                "end_time": 37.8340909,
                "pitch": 58,
                "velocity": 80,
                "duration": 0.1136364,
                "tempo": 120.0
            },
            {
                "start_time": 37.85,
                "end_time": 37.95,
                "pitch": 52,
                "velocity": 80,
                "duration": 0.1,
                "tempo": 120.0
            },
            {
                "start_time": 37.9659091,
                "end_time": 38.0818182,
                "pitch": 59,
                "velocity": 80,
                "duration": 0.1159091,
                "tempo": 120.0
            },
            {
                "start_time": 38.1,
                "end_time": 38.3318182,
                "pitch": 52,
                "velocity": 80,
                "duration": 0.2318182,
                "tempo": 120.0
            },
            {
                "start_time": 38.35,
                "end_time": 38.45,
                "pitch": 52,
                "velocity": 80,
                "duration": 0.1,
                "tempo": 120.0
            },
            {
                "start_time": 38.4659091,
                "end_time": 38.5772727,
                "pitch": 58,
                "velocity": 80,
                "duration": 0.1113636,
                "tempo": 120.0
            },
            {
                "start_time": 38.5931818,
                "end_time": 38.8159091,
                "pitch": 52,
                "velocity": 80,
                "duration": 0.2227273,
                "tempo": 120.0
            },
            {
                "start_time": 38.8318182,
                "end_time": 38.9295455,
                "pitch": 52,
                "velocity": 80,
                "duration": 0.0977273,
                "tempo": 120.0
            },
            {
                "start_time": 38.9454545,
                "end_time": 39.0613636,
                "pitch": 62,
                "velocity": 80,
                "duration": 0.1159091,
                "tempo": 120.0
            },
            {
                "start_time": 39.0795455,
                "end_time": 39.1795455,
                "pitch": 52,
                "velocity": 80,
                "duration": 0.1,
                "tempo": 120.0
            },
            {
                "start_time": 39.1954545,
                "end_time": 39.3113636,
                "pitch": 61,
                "velocity": 80,
                "duration": 0.1159091,
                "tempo": 120.0
            },
            {
                "start_time": 39.3295455,
                "end_time": 39.4295455,
                "pitch": 52,
                "velocity": 80,
                "duration": 0.1,
                "tempo": 120.0
            },
            {
                "start_time": 39.4454545,
                "end_time": 39.5659091,
                "pitch": 59,
                "velocity": 80,
                "duration": 0.1204545,
                "tempo": 120.0
            },
            {
                "start_time": 39.5818182,
                "end_time": 39.6863636,
                "pitch": 52,
                "velocity": 80,
                "duration": 0.1045455,
                "tempo": 120.0
            },
            {
                "start_time": 39.7022727,
                "end_time": 39.8227273,
                "pitch": 58,
                "velocity": 80,
                "duration": 0.1204545,
                "tempo": 120.0
            },
            {
                "start_time": 39.8386364,
                "end_time": 39.9409091,
                "pitch": 52,
                "velocity": 80,
                "duration": 0.1022727,
                "tempo": 120.0
            },
            {
                "start_time": 39.9590909,
                "end_time": 40.0772727,
                "pitch": 59,
                "velocity": 80,
                "duration": 0.1181818,
                "tempo": 120.0
            },
            {
                "start_time": 40.0954545,
                "end_time": 40.3340909,
                "pitch": 52,
                "velocity": 80,
                "duration": 0.2386364,
                "tempo": 120.0
            },
            {
                "start_time": 40.3522727,
                "end_time": 40.4545455,
                "pitch": 52,
                "velocity": 80,
                "duration": 0.1022727,
                "tempo": 120.0
            },
            {
                "start_time": 40.4704545,
                "end_time": 40.5886364,
                "pitch": 58,
                "velocity": 80,
                "duration": 0.1181818,
                "tempo": 120.0
            },
            {
                "start_time": 40.6045455,
                "end_time": 40.8386364,
                "pitch": 52,
                "velocity": 80,
                "duration": 0.2340909,
                "tempo": 120.0
            },
            {
                "start_time": 40.8545455,
                "end_time": 40.9545455,
                "pitch": 52,
                "velocity": 80,
                "duration": 0.1,
                "tempo": 120.0
            },
            {
                "start_time": 40.9704545,
                "end_time": 41.0909091,
                "pitch": 62,
                "velocity": 80,
                "duration": 0.1204545,
                "tempo": 120.0
            },
            {
                "start_time": 41.1090909,
                "end_time": 41.2113636,
                "pitch": 52,
                "velocity": 80,
                "duration": 0.1022727,
                "tempo": 120.0
            },
            {
                "start_time": 41.2272727,
                "end_time": 41.3477273,
                "pitch": 61,
                "velocity": 80,
                "duration": 0.1204545,
                "tempo": 120.0
            },
            {
                "start_time": 41.3636364,
                "end_time": 41.4659091,
                "pitch": 52,
                "velocity": 80,
                "duration": 0.1022727,
                "tempo": 120.0
            },
            {
                "start_time": 41.4840909,
                "end_time": 41.6,
                "pitch": 59,
                "velocity": 80,
                "duration": 0.1159091,
                "tempo": 120.0
            },
            {
                "start_time": 41.6159091,
                "end_time": 41.7136364,
                "pitch": 52,
                "velocity": 80,
                "duration": 0.0977273,
                "tempo": 120.0
            },
            {
                "start_time": 41.7295455,
                "end_time": 41.8454545,
                "pitch": 58,
                "velocity": 80,
                "duration": 0.1159091,
                "tempo": 120.0
            },
            {
                "start_time": 41.8613636,
                "end_time": 41.9590909,
                "pitch": 52,
                "velocity": 80,
                "duration": 0.0977273,
                "tempo": 120.0
            },
            {
                "start_time": 41.975,
                "end_time": 42.0909091,
                "pitch": 59,
                "velocity": 80,
                "duration": 0.1159091,
                "tempo": 120.0
            },
            {
                "start_time": 42.1068182,
                "end_time": 42.3363636,
                "pitch": 52,
                "velocity": 80,
                "duration": 0.2295455,
                "tempo": 120.0
            },
            {
                "start_time": 42.3522727,
                "end_time": 42.4522727,
                "pitch": 52,
                "velocity": 80,
                "duration": 0.1,
                "tempo": 120.0
            },
            {
                "start_time": 42.4681818,
                "end_time": 42.5818182,
                "pitch": 58,
                "velocity": 80,
                "duration": 0.1136364,
                "tempo": 120.0
            },
            {
                "start_time": 42.6,
                "end_time": 42.8295455,
                "pitch": 52,
                "velocity": 80,
                "duration": 0.2295455,
                "tempo": 120.0
            },
            {
                "start_time": 42.8454545,
                "end_time": 42.9431818,
                "pitch": 52,
                "velocity": 80,
                "duration": 0.0977273,
                "tempo": 120.0
            },
            {
                "start_time": 42.9590909,
                "end_time": 43.0772727,
                "pitch": 62,
                "velocity": 80,
                "duration": 0.1181818,
                "tempo": 120.0
            },
            {
                "start_time": 43.0931818,
                "end_time": 43.1931818,
                "pitch": 52,
                "velocity": 80,
                "duration": 0.1,
                "tempo": 120.0
            },
            {
                "start_time": 43.2090909,
                "end_time": 43.3272727,
                "pitch": 61,
                "velocity": 80,
                "duration": 0.1181818,
                "tempo": 120.0
            },
            {
                "start_time": 43.3431818,
                "end_time": 43.4431818,
                "pitch": 52,
                "velocity": 80,
                "duration": 0.1,
                "tempo": 120.0
            },
            {
                "start_time": 43.4590909,
                "end_time": 43.5795455,
                "pitch": 59,
                "velocity": 80,
                "duration": 0.1204545,
                "tempo": 120.0
            },
            {
                "start_time": 43.5977273,
                "end_time": 43.7,
                "pitch": 52,
                "velocity": 80,
                "duration": 0.1022727,
                "tempo": 120.0
            },
            {
                "start_time": 43.7159091,
                "end_time": 43.8363636,
                "pitch": 58,
                "velocity": 80,
                "duration": 0.1204545,
                "tempo": 120.0
            },
            {
                "start_time": 43.8522727,
                "end_time": 43.9568182,
                "pitch": 52,
                "velocity": 80,
                "duration": 0.1045455,
                "tempo": 120.0
            },
            {
                "start_time": 43.9727273,
                "end_time": 44.0931818,
                "pitch": 59,
                "velocity": 80,
                "duration": 0.1204545,
                "tempo": 120.0
            },
            {
                "start_time": 44.1090909,
                "end_time": 44.35,
                "pitch": 52,
                "velocity": 80,
                "duration": 0.2409091,
                "tempo": 120.0
            },
            {
                "start_time": 44.3659091,
                "end_time": 44.4681818,
                "pitch": 52,
                "velocity": 80,
                "duration": 0.1022727,
                "tempo": 120.0
            },
            {
                "start_time": 44.4863636,
                "end_time": 44.6022727,
                "pitch": 58,
                "velocity": 80,
                "duration": 0.1159091,
                "tempo": 120.0
            },
            {
                "start_time": 44.6181818,
                "end_time": 44.8522727,
                "pitch": 52,
                "velocity": 80,
                "duration": 0.2340909,
                "tempo": 120.0
            },
            {
                "start_time": 44.8681818,
                "end_time": 44.9681818,
                "pitch": 52,
                "velocity": 80,
                "duration": 0.1,
                "tempo": 120.0
            },
            {
                "start_time": 44.9863636,
                "end_time": 45.1045455,
                "pitch": 62,
                "velocity": 80,
                "duration": 0.1181818,
                "tempo": 120.0
            },
            {
                "start_time": 45.1227273,
                "end_time": 45.225,
                "pitch": 52,
                "velocity": 80,
                "duration": 0.1022727,
                "tempo": 120.0
            },
            {
                "start_time": 45.2409091,
                "end_time": 45.3613636,
                "pitch": 61,
                "velocity": 80,
                "duration": 0.1204545,
                "tempo": 120.0
            },
            {
                "start_time": 45.3795455,
                "end_time": 45.4818182,
                "pitch": 52,
                "velocity": 80,
                "duration": 0.1022727,
                "tempo": 120.0
            },
            {
                "start_time": 45.4977273,
                "end_time": 45.6136364,
                "pitch": 59,
                "velocity": 80,
                "duration": 0.1159091,
                "tempo": 120.0
            },
            {
                "start_time": 45.6295455,
                "end_time": 45.7272727,
                "pitch": 52,
                "velocity": 80,
                "duration": 0.0977273,
                "tempo": 120.0
            },
            {
                "start_time": 45.7431818,
                "end_time": 45.8590909,
                "pitch": 58,
                "velocity": 80,
                "duration": 0.1159091,
                "tempo": 120.0
            },
            {
                "start_time": 45.875,
                "end_time": 45.9727273,
                "pitch": 52,
                "velocity": 80,
                "duration": 0.0977273,
                "tempo": 120.0
            },
            {
                "start_time": 45.9909091,
                "end_time": 46.1090909,
                "pitch": 59,
                "velocity": 80,
                "duration": 0.1181818,
                "tempo": 120.0
            },
            {
                "start_time": 46.1272727,
                "end_time": 46.3659091,
                "pitch": 52,
                "velocity": 80,
                "duration": 0.2386364,
                "tempo": 120.0
            },
            {
                "start_time": 46.3818182,
                "end_time": 46.4863636,
                "pitch": 52,
                "velocity": 80,
                "duration": 0.1045455,
                "tempo": 120.0
            },
            {
                "start_time": 46.5022727,
                "end_time": 46.6181818,
                "pitch": 58,
                "velocity": 80,
                "duration": 0.1159091,
                "tempo": 120.0
            },
            {
                "start_time": 46.6340909,
                "end_time": 46.8636364,
                "pitch": 52,
                "velocity": 80,
                "duration": 0.2295455,
                "tempo": 120.0
            },
            {
                "start_time": 46.8795455,
                "end_time": 46.9772727,
                "pitch": 52,
                "velocity": 80,
                "duration": 0.0977273,
                "tempo": 120.0
            },
            {
                "start_time": 46.9954545,
                "end_time": 47.1136364,
                "pitch": 62,
                "velocity": 80,
                "duration": 0.1181818,
                "tempo": 120.0
            },
            {
                "start_time": 47.1295455,
                "end_time": 47.2340909,
                "pitch": 52,
                "velocity": 80,
                "duration": 0.1045455,
                "tempo": 120.0
            },
            {
                "start_time": 47.25,
                "end_time": 47.3704545,
                "pitch": 61,
                "velocity": 80,
                "duration": 0.1204545,
                "tempo": 120.0
            },
            {
                "start_time": 47.3863636,
                "end_time": 47.4886364,
                "pitch": 52,
                "velocity": 80,
                "duration": 0.1022727,
                "tempo": 120.0
            },
            {
                "start_time": 47.5068182,
                "end_time": 47.6204545,
                "pitch": 59,
                "velocity": 80,
                "duration": 0.1136364,
                "tempo": 120.0
            },
            {
                "start_time": 47.6386364,
                "end_time": 47.7363636,
                "pitch": 52,
                "velocity": 80,
                "duration": 0.0977273,
                "tempo": 120.0
            },
            {
                "start_time": 47.7522727,
                "end_time": 47.8681818,
                "pitch": 58,
                "velocity": 80,
                "duration": 0.1159091,
                "tempo": 120.0
            },
            {
                "start_time": 47.8840909,
                "end_time": 47.9818182,
                "pitch": 52,
                "velocity": 80,
                "duration": 0.0977273,
                "tempo": 120.0
            },
            {
                "start_time": 47.9977273,
                "end_time": 48.1181818,
                "pitch": 59,
                "velocity": 80,
                "duration": 0.1204545,
                "tempo": 120.0
            },
            {
                "start_time": 48.1340909,
                "end_time": 48.375,
                "pitch": 52,
                "velocity": 80,
                "duration": 0.2409091,
                "tempo": 120.0
            },
            {
                "start_time": 48.3909091,
                "end_time": 48.4931818,
                "pitch": 52,
                "velocity": 80,
                "duration": 0.1022727,
                "tempo": 120.0
            },
            {
                "start_time": 48.5113636,
                "end_time": 48.625,
                "pitch": 58,
                "velocity": 80,
                "duration": 0.1136364,
                "tempo": 120.0
            },
            {
                "start_time": 48.6431818,
                "end_time": 48.8727273,
                "pitch": 52,
                "velocity": 80,
                "duration": 0.2295455,
                "tempo": 120.0
            },
            {
                "start_time": 48.8886364,
                "end_time": 48.9863636,
                "pitch": 52,
                "velocity": 80,
                "duration": 0.0977273,
                "tempo": 120.0
            },
            {
                "start_time": 49.0022727,
                "end_time": 49.1227273,
                "pitch": 62,
                "velocity": 80,
                "duration": 0.1204545,
                "tempo": 120.0
            },
            {
                "start_time": 49.1386364,
                "end_time": 49.2409091,
                "pitch": 52,
                "velocity": 80,
                "duration": 0.1022727,
                "tempo": 120.0
            },
            {
                "start_time": 49.2590909,
                "end_time": 49.3772727,
                "pitch": 61,
                "velocity": 80,
                "duration": 0.1181818,
                "tempo": 120.0
            },
            {
                "start_time": 49.3954545,
                "end_time": 49.4977273,
                "pitch": 52,
                "velocity": 80,
                "duration": 0.1022727,
                "tempo": 120.0
            },
            {
                "start_time": 49.5159091,
                "end_time": 49.6295455,
                "pitch": 59,
                "velocity": 80,
                "duration": 0.1136364,
                "tempo": 120.0
            },
            {
                "start_time": 49.6454545,
                "end_time": 49.7454545,
                "pitch": 52,
                "velocity": 80,
                "duration": 0.1,
                "tempo": 120.0
            },
            {
                "start_time": 49.7613636,
                "end_time": 49.875,
                "pitch": 58,
                "velocity": 80,
                "duration": 0.1136364,
                "tempo": 120.0
            },
            {
                "start_time": 49.8931818,
                "end_time": 49.9909091,
                "pitch": 52,
                "velocity": 80,
                "duration": 0.0977273,
                "tempo": 120.0
            },
            {
                "start_time": 50.0068182,
                "end_time": 50.1272727,
                "pitch": 59,
                "velocity": 80,
                "duration": 0.1204545,
                "tempo": 120.0
            },
            {
                "start_time": 50.1431818,
                "end_time": 50.3818182,
                "pitch": 52,
                "velocity": 80,
                "duration": 0.2386364,
                "tempo": 120.0
            },
            {
                "start_time": 50.4,
                "end_time": 50.5022727,
                "pitch": 52,
                "velocity": 80,
                "duration": 0.1022727,
                "tempo": 120.0
            },
            {
                "start_time": 50.5204545,
                "end_time": 50.6340909,
                "pitch": 58,
                "velocity": 80,
                "duration": 0.1136364,
                "tempo": 120.0
            },
            {
                "start_time": 50.65,
                "end_time": 50.8795455,
                "pitch": 52,
                "velocity": 80,
                "duration": 0.2295455,
                "tempo": 120.0
            },
            {
                "start_time": 50.8954545,
                "end_time": 50.9954545,
                "pitch": 52,
                "velocity": 80,
                "duration": 0.1,
                "tempo": 120.0
            },
            {
                "start_time": 51.0113636,
                "end_time": 51.1295455,
                "pitch": 62,
                "velocity": 80,
                "duration": 0.1181818,
                "tempo": 120.0
            },
            {
                "start_time": 51.1477273,
                "end_time": 51.25,
                "pitch": 52,
                "velocity": 80,
                "duration": 0.1022727,
                "tempo": 120.0
            },
            {
                "start_time": 51.2681818,
                "end_time": 51.3863636,
                "pitch": 61,
                "velocity": 80,
                "duration": 0.1181818,
                "tempo": 120.0
            },
            {
                "start_time": 51.4045455,
                "end_time": 51.5068182,
                "pitch": 52,
                "velocity": 80,
                "duration": 0.1022727,
                "tempo": 120.0
            },
            {
                "start_time": 51.5227273,
                "end_time": 51.6386364,
                "pitch": 59,
                "velocity": 80,
                "duration": 0.1159091,
                "tempo": 120.0
            },
            {
                "start_time": 51.6545455,
                "end_time": 51.7522727,
                "pitch": 52,
                "velocity": 80,
                "duration": 0.0977273,
                "tempo": 120.0
            },
            {
                "start_time": 51.7704545,
                "end_time": 51.8840909,
                "pitch": 58,
                "velocity": 80,
                "duration": 0.1136364,
                "tempo": 120.0
            },
            {
                "start_time": 51.9,
                "end_time": 52.0,
                "pitch": 52,
                "velocity": 80,
                "duration": 0.1,
                "tempo": 120.0
            },
            {
                "start_time": 52.0159091,
                "end_time": 52.1340909,
                "pitch": 59,
                "velocity": 80,
                "duration": 0.1181818,
                "tempo": 120.0
            },
            {
                "start_time": 52.1522727,
                "end_time": 52.3909091,
                "pitch": 52,
                "velocity": 80,
                "duration": 0.2386364,
                "tempo": 120.0
            },
            {
                "start_time": 52.4090909,
                "end_time": 52.5113636,
                "pitch": 52,
                "velocity": 80,
                "duration": 0.1022727,
                "tempo": 120.0
            },
            {
                "start_time": 52.5272727,
                "end_time": 52.6431818,
                "pitch": 58,
                "velocity": 80,
                "duration": 0.1159091,
                "tempo": 120.0
            },
            {
                "start_time": 52.6590909,
                "end_time": 52.8886364,
                "pitch": 52,
                "velocity": 80,
                "duration": 0.2295455,
                "tempo": 120.0
            },
            {
                "start_time": 52.9045455,
                "end_time": 53.0022727,
                "pitch": 52,
                "velocity": 80,
                "duration": 0.0977273,
                "tempo": 120.0
            },
            {
                "start_time": 53.0204545,
                "end_time": 53.1386364,
                "pitch": 62,
                "velocity": 80,
                "duration": 0.1181818,
                "tempo": 120.0
            },
            {
                "start_time": 53.1568182,
                "end_time": 53.2590909,
                "pitch": 52,
                "velocity": 80,
                "duration": 0.1022727,
                "tempo": 120.0
            },
            {
                "start_time": 53.275,
                "end_time": 53.3954545,
                "pitch": 61,
                "velocity": 80,
                "duration": 0.1204545,
                "tempo": 120.0
            },
            {
                "start_time": 53.4113636,
                "end_time": 53.5159091,
                "pitch": 52,
                "velocity": 80,
                "duration": 0.1045455,
                "tempo": 120.0
            },
            {
                "start_time": 53.5318182,
                "end_time": 53.6477273,
                "pitch": 59,
                "velocity": 80,
                "duration": 0.1159091,
                "tempo": 120.0
            },
            {
                "start_time": 53.6636364,
                "end_time": 53.7613636,
                "pitch": 52,
                "velocity": 80,
                "duration": 0.0977273,
                "tempo": 120.0
            },
            {
                "start_time": 53.7772727,
                "end_time": 53.8931818,
                "pitch": 58,
                "velocity": 80,
                "duration": 0.1159091,
                "tempo": 120.0
            },
            {
                "start_time": 53.9090909,
                "end_time": 54.0068182,
                "pitch": 52,
                "velocity": 80,
                "duration": 0.0977273,
                "tempo": 120.0
            },
            {
                "start_time": 54.0227273,
                "end_time": 54.1431818,
                "pitch": 59,
                "velocity": 80,
                "duration": 0.1204545,
                "tempo": 120.0
            },
            {
                "start_time": 54.1590909,
                "end_time": 54.4,
                "pitch": 52,
                "velocity": 80,
                "duration": 0.2409091,
                "tempo": 120.0
            },
            {
                "start_time": 54.4159091,
                "end_time": 54.5181818,
                "pitch": 52,
                "velocity": 80,
                "duration": 0.1022727,
                "tempo": 120.0
            },
            {
                "start_time": 54.5363636,
                "end_time": 54.65,
                "pitch": 58,
                "velocity": 80,
                "duration": 0.1136364,
                "tempo": 120.0
            },
            {
                "start_time": 54.6681818,
                "end_time": 54.8977273,
                "pitch": 52,
                "velocity": 80,
                "duration": 0.2295455,
                "tempo": 120.0
            },
            {
                "start_time": 54.9136364,
                "end_time": 55.0113636,
                "pitch": 52,
                "velocity": 80,
                "duration": 0.0977273,
                "tempo": 120.0
            },
            {
                "start_time": 55.0272727,
                "end_time": 55.1477273,
                "pitch": 62,
                "velocity": 80,
                "duration": 0.1204545,
                "tempo": 120.0
            },
            {
                "start_time": 55.1636364,
                "end_time": 55.2659091,
                "pitch": 52,
                "velocity": 80,
                "duration": 0.1022727,
                "tempo": 120.0
            },
            {
                "start_time": 55.2840909,
                "end_time": 55.4045455,
                "pitch": 61,
                "velocity": 80,
                "duration": 0.1204545,
                "tempo": 120.0
            },
            {
                "start_time": 55.4204545,
                "end_time": 55.5227273,
                "pitch": 52,
                "velocity": 80,
                "duration": 0.1022727,
                "tempo": 120.0
            },
            {
                "start_time": 55.5409091,
                "end_time": 55.6545455,
                "pitch": 59,
                "velocity": 80,
                "duration": 0.1136364,
                "tempo": 120.0
            },
            {
                "start_time": 55.6704545,
                "end_time": 55.7704545,
                "pitch": 52,
                "velocity": 80,
                "duration": 0.1,
                "tempo": 120.0
            },
            {
                "start_time": 55.7863636,
                "end_time": 55.9,
                "pitch": 58,
                "velocity": 80,
                "duration": 0.1136364,
                "tempo": 120.0
            },
            {
                "start_time": 55.9181818,
                "end_time": 56.0159091,
                "pitch": 52,
                "velocity": 80,
                "duration": 0.0977273,
                "tempo": 120.0
            },
            {
                "start_time": 56.0318182,
                "end_time": 56.1522727,
                "pitch": 59,
                "velocity": 80,
                "duration": 0.1204545,
                "tempo": 120.0
            },
            {
                "start_time": 56.1681818,
                "end_time": 56.4068182,
                "pitch": 52,
                "velocity": 80,
                "duration": 0.2386364,
                "tempo": 120.0
            },
            {
                "start_time": 56.425,
                "end_time": 56.5272727,
                "pitch": 52,
                "velocity": 80,
                "duration": 0.1022727,
                "tempo": 120.0
            },
            {
                "start_time": 56.5454545,
                "end_time": 56.6590909,
                "pitch": 58,
                "velocity": 80,
                "duration": 0.1136364,
                "tempo": 120.0
            },
            {
                "start_time": 56.675,
                "end_time": 56.9045455,
                "pitch": 52,
                "velocity": 80,
                "duration": 0.2295455,
                "tempo": 120.0
            },
            {
                "start_time": 56.9227273,
                "end_time": 57.0204545,
                "pitch": 52,
                "velocity": 80,
                "duration": 0.0977273,
                "tempo": 120.0
            },
            {
                "start_time": 57.0363636,
                "end_time": 57.1545455,
                "pitch": 62,
                "velocity": 80,
                "duration": 0.1181818,
                "tempo": 120.0
            },
            {
                "start_time": 57.1727273,
                "end_time": 57.275,
                "pitch": 52,
                "velocity": 80,
                "duration": 0.1022727,
                "tempo": 120.0
            },
            {
                "start_time": 57.2931818,
                "end_time": 57.4113636,
                "pitch": 61,
                "velocity": 80,
                "duration": 0.1181818,
                "tempo": 120.0
            },
            {
                "start_time": 57.4295455,
                "end_time": 57.5318182,
                "pitch": 52,
                "velocity": 80,
                "duration": 0.1022727,
                "tempo": 120.0
            },
            {
                "start_time": 57.5477273,
                "end_time": 57.6636364,
                "pitch": 59,
                "velocity": 80,
                "duration": 0.1159091,
                "tempo": 120.0
            },
            {
                "start_time": 57.6795455,
                "end_time": 57.7772727,
                "pitch": 52,
                "velocity": 80,
                "duration": 0.0977273,
                "tempo": 120.0
            },
            {
                "start_time": 57.7954545,
                "end_time": 57.9090909,
                "pitch": 58,
                "velocity": 80,
                "duration": 0.1136364,
                "tempo": 120.0
            },
            {
                "start_time": 57.925,
                "end_time": 58.025,
                "pitch": 52,
                "velocity": 80,
                "duration": 0.1,
                "tempo": 120.0
            },
            {
                "start_time": 58.0409091,
                "end_time": 58.1590909,
                "pitch": 59,
                "velocity": 80,
                "duration": 0.1181818,
                "tempo": 120.0
            },
            {
                "start_time": 58.1772727,
                "end_time": 58.4159091,
                "pitch": 52,
                "velocity": 80,
                "duration": 0.2386364,
                "tempo": 120.0
            },
            {
                "start_time": 58.4340909,
                "end_time": 58.5363636,
                "pitch": 52,
                "velocity": 80,
                "duration": 0.1022727,
                "tempo": 120.0
            },
            {
                "start_time": 58.5522727,
                "end_time": 58.6681818,
                "pitch": 58,
                "velocity": 80,
                "duration": 0.1159091,
                "tempo": 120.0
            },
            {
                "start_time": 58.6840909,
                "end_time": 58.9136364,
                "pitch": 52,
                "velocity": 80,
                "duration": 0.2295455,
                "tempo": 120.0
            },
            {
                "start_time": 58.9295455,
                "end_time": 59.0295455,
                "pitch": 52,
                "velocity": 80,
                "duration": 0.1,
                "tempo": 120.0
            },
            {
                "start_time": 59.0454545,
                "end_time": 59.1636364,
                "pitch": 62,
                "velocity": 80,
                "duration": 0.1181818,
                "tempo": 120.0
            },
            {
                "start_time": 59.1818182,
                "end_time": 59.2840909,
                "pitch": 52,
                "velocity": 80,
                "duration": 0.1022727,
                "tempo": 120.0
            },
            {
                "start_time": 59.3,
                "end_time": 59.4204545,
                "pitch": 61,
                "velocity": 80,
                "duration": 0.1204545,
                "tempo": 120.0
            },
            {
                "start_time": 59.4386364,
                "end_time": 59.5409091,
                "pitch": 52,
                "velocity": 80,
                "duration": 0.1022727,
                "tempo": 120.0
            },
            {
                "start_time": 59.5568182,
                "end_time": 59.6727273,
                "pitch": 59,
                "velocity": 80,
                "duration": 0.1159091,
                "tempo": 120.0
            },
            {
                "start_time": 59.6886364,
                "end_time": 59.7863636,
                "pitch": 52,
                "velocity": 80,
                "duration": 0.0977273,
                "tempo": 120.0
            },
            {
                "start_time": 59.8022727,
                "end_time": 59.9181818,
                "pitch": 58,
                "velocity": 80,
                "duration": 0.1159091,
                "tempo": 120.0
            },
            {
                "start_time": 59.9340909,
                "end_time": 60.0340909,
                "pitch": 52,
                "velocity": 80,
                "duration": 0.1,
                "tempo": 120.0
            }
        ],
        "French Horn": [
            {
                "start_time": 8.2568182,
                "end_time": 8.3454545,
                "pitch": 64,
                "velocity": 51,
                "duration": 0.0886364,
                "tempo": 120.0
            },
            {
                "start_time": 8.6090909,
                "end_time": 8.8431818,
                "pitch": 63,
                "velocity": 51,
                "duration": 0.2340909,
                "tempo": 120.0
            },
            {
                "start_time": 9.2522727,
                "end_time": 9.3545455,
                "pitch": 64,
                "velocity": 51,
                "duration": 0.1022727,
                "tempo": 120.0
            },
            {
                "start_time": 9.6181818,
                "end_time": 9.8477273,
                "pitch": 63,
                "velocity": 51,
                "duration": 0.2295455,
                "tempo": 120.0
            },
            {
                "start_time": 10.2568182,
                "end_time": 10.3590909,
                "pitch": 64,
                "velocity": 51,
                "duration": 0.1022727,
                "tempo": 120.0
            },
            {
                "start_time": 10.6227273,
                "end_time": 10.8522727,
                "pitch": 63,
                "velocity": 51,
                "duration": 0.2295455,
                "tempo": 120.0
            },
            {
                "start_time": 11.2613636,
                "end_time": 11.3636364,
                "pitch": 64,
                "velocity": 51,
                "duration": 0.1022727,
                "tempo": 120.0
            },
            {
                "start_time": 11.6272727,
                "end_time": 11.8568182,
                "pitch": 63,
                "velocity": 51,
                "duration": 0.2295455,
                "tempo": 120.0
            },
            {
                "start_time": 12.2659091,
                "end_time": 12.3681818,
                "pitch": 67,
                "velocity": 51,
                "duration": 0.1022727,
                "tempo": 120.0
            },
            {
                "start_time": 12.6295455,
                "end_time": 12.8590909,
                "pitch": 66,
                "velocity": 51,
                "duration": 0.2295455,
                "tempo": 120.0
            },
            {
                "start_time": 13.2681818,
                "end_time": 13.3704545,
                "pitch": 67,
                "velocity": 51,
                "duration": 0.1022727,
                "tempo": 120.0
            },
            {
                "start_time": 13.6340909,
                "end_time": 13.8636364,
                "pitch": 66,
                "velocity": 51,
                "duration": 0.2295455,
                "tempo": 120.0
            },
            {
                "start_time": 14.2727273,
                "end_time": 14.375,
                "pitch": 67,
                "velocity": 51,
                "duration": 0.1022727,
                "tempo": 120.0
            },
            {
                "start_time": 14.6386364,
                "end_time": 14.8681818,
                "pitch": 66,
                "velocity": 51,
                "duration": 0.2295455,
                "tempo": 120.0
            },
            {
                "start_time": 15.2772727,
                "end_time": 15.3795455,
                "pitch": 67,
                "velocity": 51,
                "duration": 0.1022727,
                "tempo": 120.0
            },
            {
                "start_time": 15.6431818,
                "end_time": 15.8727273,
                "pitch": 66,
                "velocity": 51,
                "duration": 0.2295455,
                "tempo": 120.0
            },
            {
                "start_time": 16.2818182,
                "end_time": 16.3840909,
                "pitch": 64,
                "velocity": 51,
                "duration": 0.1022727,
                "tempo": 120.0
            },
            {
                "start_time": 16.6477273,
                "end_time": 16.8772727,
                "pitch": 63,
                "velocity": 51,
                "duration": 0.2295455,
                "tempo": 120.0
            },
            {
                "start_time": 17.2863636,
                "end_time": 17.3886364,
                "pitch": 64,
                "velocity": 51,
                "duration": 0.1022727,
                "tempo": 120.0
            },
            {
                "start_time": 17.6522727,
                "end_time": 17.8818182,
                "pitch": 63,
                "velocity": 51,
                "duration": 0.2295455,
                "tempo": 120.0
            },
            {
                "start_time": 18.2909091,
                "end_time": 18.3931818,
                "pitch": 64,
                "velocity": 51,
                "duration": 0.1022727,
                "tempo": 120.0
            },
            {
                "start_time": 18.6545455,
                "end_time": 18.8840909,
                "pitch": 63,
                "velocity": 51,
                "duration": 0.2295455,
                "tempo": 120.0
            },
            {
                "start_time": 19.2931818,
                "end_time": 19.3977273,
                "pitch": 64,
                "velocity": 51,
                "duration": 0.1045455,
                "tempo": 120.0
            },
            {
                "start_time": 19.6590909,
                "end_time": 19.8886364,
                "pitch": 63,
                "velocity": 51,
                "duration": 0.2295455,
                "tempo": 120.0
            },
            {
                "start_time": 20.2977273,
                "end_time": 20.4,
                "pitch": 67,
                "velocity": 51,
                "duration": 0.1022727,
                "tempo": 120.0
            },
            {
                "start_time": 20.6636364,
                "end_time": 20.8931818,
                "pitch": 66,
                "velocity": 51,
                "duration": 0.2295455,
                "tempo": 120.0
            },
            {
                "start_time": 21.3022727,
                "end_time": 21.4045455,
                "pitch": 67,
                "velocity": 51,
                "duration": 0.1022727,
                "tempo": 120.0
            },
            {
                "start_time": 21.6681818,
                "end_time": 21.8977273,
                "pitch": 66,
                "velocity": 51,
                "duration": 0.2295455,
                "tempo": 120.0
            },
            {
                "start_time": 22.3068182,
                "end_time": 22.4090909,
                "pitch": 67,
                "velocity": 51,
                "duration": 0.1022727,
                "tempo": 120.0
            },
            {
                "start_time": 22.6727273,
                "end_time": 22.9022727,
                "pitch": 66,
                "velocity": 51,
                "duration": 0.2295455,
                "tempo": 120.0
            },
            {
                "start_time": 23.3113636,
                "end_time": 23.4136364,
                "pitch": 67,
                "velocity": 51,
                "duration": 0.1022727,
                "tempo": 120.0
            },
            {
                "start_time": 23.6772727,
                "end_time": 23.9068182,
                "pitch": 66,
                "velocity": 51,
                "duration": 0.2295455,
                "tempo": 120.0
            },
            {
                "start_time": 27.925,
                "end_time": 28.1636364,
                "pitch": 52,
                "velocity": 51,
                "duration": 0.2386364,
                "tempo": 120.0
            },
            {
                "start_time": 28.1795455,
                "end_time": 28.3,
                "pitch": 52,
                "velocity": 51,
                "duration": 0.1204545,
                "tempo": 120.0
            },
            {
                "start_time": 28.3181818,
                "end_time": 28.4204545,
                "pitch": 52,
                "velocity": 51,
                "duration": 0.1022727,
                "tempo": 120.0
            },
            {
                "start_time": 28.4363636,
                "end_time": 28.6704545,
                "pitch": 52,
                "velocity": 51,
                "duration": 0.2340909,
                "tempo": 120.0
            },
            {
                "start_time": 28.6863636,
                "end_time": 28.9204545,
                "pitch": 50,
                "velocity": 51,
                "duration": 0.2340909,
                "tempo": 120.0
            },
            {
                "start_time": 28.9363636,
                "end_time": 29.175,
                "pitch": 52,
                "velocity": 51,
                "duration": 0.2386364,
                "tempo": 120.0
            },
            {
                "start_time": 29.1931818,
                "end_time": 29.3136364,
                "pitch": 52,
                "velocity": 51,
                "duration": 0.1204545,
                "tempo": 120.0
            },
            {
                "start_time": 29.3295455,
                "end_time": 29.4318182,
                "pitch": 52,
                "velocity": 51,
                "duration": 0.1022727,
                "tempo": 120.0
            },
            {
                "start_time": 29.45,
                "end_time": 29.6795455,
                "pitch": 52,
                "velocity": 51,
                "duration": 0.2295455,
                "tempo": 120.0
            },
            {
                "start_time": 29.6954545,
                "end_time": 29.925,
                "pitch": 50,
                "velocity": 51,
                "duration": 0.2295455,
                "tempo": 120.0
            },
            {
                "start_time": 29.9409091,
                "end_time": 30.175,
                "pitch": 52,
                "velocity": 51,
                "duration": 0.2340909,
                "tempo": 120.0
            },
            {
                "start_time": 30.1909091,
                "end_time": 30.3090909,
                "pitch": 52,
                "velocity": 51,
                "duration": 0.1181818,
                "tempo": 120.0
            },
            {
                "start_time": 30.325,
                "end_time": 30.425,
                "pitch": 52,
                "velocity": 51,
                "duration": 0.1,
                "tempo": 120.0
            },
            {
                "start_time": 30.4409091,
                "end_time": 30.6659091,
                "pitch": 52,
                "velocity": 51,
                "duration": 0.225,
                "tempo": 120.0
            },
            {
                "start_time": 30.6818182,
                "end_time": 30.9090909,
                "pitch": 50,
                "velocity": 51,
                "duration": 0.2272727,
                "tempo": 120.0
            },
            {
                "start_time": 30.925,
                "end_time": 31.1590909,
                "pitch": 52,
                "velocity": 51,
                "duration": 0.2340909,
                "tempo": 120.0
            },
            {
                "start_time": 31.175,
                "end_time": 31.2909091,
                "pitch": 52,
                "velocity": 51,
                "duration": 0.1159091,
                "tempo": 120.0
            },
            {
                "start_time": 31.3090909,
                "end_time": 31.4090909,
                "pitch": 52,
                "velocity": 51,
                "duration": 0.1,
                "tempo": 120.0
            },
            {
                "start_time": 31.425,
                "end_time": 31.6636364,
                "pitch": 52,
                "velocity": 51,
                "duration": 0.2386364,
                "tempo": 120.0
            },
            {
                "start_time": 31.6818182,
                "end_time": 31.9204545,
                "pitch": 50,
                "velocity": 51,
                "duration": 0.2386364,
                "tempo": 120.0
            },
            {
                "start_time": 31.9386364,
                "end_time": 32.1772727,
                "pitch": 52,
                "velocity": 51,
                "duration": 0.2386364,
                "tempo": 120.0
            },
            {
                "start_time": 32.1954545,
                "end_time": 32.3136364,
                "pitch": 52,
                "velocity": 51,
                "duration": 0.1181818,
                "tempo": 120.0
            },
            {
                "start_time": 32.3318182,
                "end_time": 32.4340909,
                "pitch": 52,
                "velocity": 51,
                "duration": 0.1022727,
                "tempo": 120.0
            },
            {
                "start_time": 32.45,
                "end_time": 32.6840909,
                "pitch": 52,
                "velocity": 51,
                "duration": 0.2340909,
                "tempo": 120.0
            },
            {
                "start_time": 32.7,
                "end_time": 32.9340909,
                "pitch": 50,
                "velocity": 51,
                "duration": 0.2340909,
                "tempo": 120.0
            },
            {
                "start_time": 32.95,
                "end_time": 33.1909091,
                "pitch": 52,
                "velocity": 51,
                "duration": 0.2409091,
                "tempo": 120.0
            },
            {
                "start_time": 33.2068182,
                "end_time": 33.3272727,
                "pitch": 52,
                "velocity": 51,
                "duration": 0.1204545,
                "tempo": 120.0
            },
            {
                "start_time": 33.3431818,
                "end_time": 33.4454545,
                "pitch": 52,
                "velocity": 51,
                "duration": 0.1022727,
                "tempo": 120.0
            },
            {
                "start_time": 33.4636364,
                "end_time": 33.6931818,
                "pitch": 52,
                "velocity": 51,
                "duration": 0.2295455,
                "tempo": 120.0
            },
            {
                "start_time": 33.7090909,
                "end_time": 33.9386364,
                "pitch": 50,
                "velocity": 51,
                "duration": 0.2295455,
                "tempo": 120.0
            },
            {
                "start_time": 33.9545455,
                "end_time": 34.1886364,
                "pitch": 52,
                "velocity": 51,
                "duration": 0.2340909,
                "tempo": 120.0
            },
            {
                "start_time": 34.2045455,
                "end_time": 34.3227273,
                "pitch": 52,
                "velocity": 51,
                "duration": 0.1181818,
                "tempo": 120.0
            },
            {
                "start_time": 34.3386364,
                "end_time": 34.4386364,
                "pitch": 52,
                "velocity": 51,
                "duration": 0.1,
                "tempo": 120.0
            },
            {
                "start_time": 34.4545455,
                "end_time": 34.6795455,
                "pitch": 52,
                "velocity": 51,
                "duration": 0.225,
                "tempo": 120.0
            },
            {
                "start_time": 34.6954545,
                "end_time": 34.9181818,
                "pitch": 50,
                "velocity": 51,
                "duration": 0.2227273,
                "tempo": 120.0
            },
            {
                "start_time": 34.9363636,
                "end_time": 35.1681818,
                "pitch": 52,
                "velocity": 51,
                "duration": 0.2318182,
                "tempo": 120.0
            },
            {
                "start_time": 35.1863636,
                "end_time": 35.3022727,
                "pitch": 52,
                "velocity": 51,
                "duration": 0.1159091,
                "tempo": 120.0
            },
            {
                "start_time": 35.3181818,
                "end_time": 35.4181818,
                "pitch": 52,
                "velocity": 51,
                "duration": 0.1,
                "tempo": 120.0
            },
            {
                "start_time": 35.4363636,
                "end_time": 35.675,
                "pitch": 52,
                "velocity": 51,
                "duration": 0.2386364,
                "tempo": 120.0
            },
            {
                "start_time": 35.6931818,
                "end_time": 35.9318182,
                "pitch": 50,
                "velocity": 51,
                "duration": 0.2386364,
                "tempo": 120.0
            },
            {
                "start_time": 35.9477273,
                "end_time": 36.1886364,
                "pitch": 52,
                "velocity": 51,
                "duration": 0.2409091,
                "tempo": 120.0
            },
            {
                "start_time": 36.2045455,
                "end_time": 36.325,
                "pitch": 52,
                "velocity": 51,
                "duration": 0.1204545,
                "tempo": 120.0
            },
            {
                "start_time": 36.3409091,
                "end_time": 36.4431818,
                "pitch": 52,
                "velocity": 51,
                "duration": 0.1022727,
                "tempo": 120.0
            },
            {
                "start_time": 36.4613636,
                "end_time": 36.6954545,
                "pitch": 52,
                "velocity": 51,
                "duration": 0.2340909,
                "tempo": 120.0
            },
            {
                "start_time": 36.7113636,
                "end_time": 36.9454545,
                "pitch": 50,
                "velocity": 51,
                "duration": 0.2340909,
                "tempo": 120.0
            },
            {
                "start_time": 36.9613636,
                "end_time": 37.2,
                "pitch": 52,
                "velocity": 51,
                "duration": 0.2386364,
                "tempo": 120.0
            },
            {
                "start_time": 37.2181818,
                "end_time": 37.3363636,
                "pitch": 52,
                "velocity": 51,
                "duration": 0.1181818,
                "tempo": 120.0
            },
            {
                "start_time": 37.3545455,
                "end_time": 37.4568182,
                "pitch": 52,
                "velocity": 51,
                "duration": 0.1022727,
                "tempo": 120.0
            },
            {
                "start_time": 37.4727273,
                "end_time": 37.7045455,
                "pitch": 52,
                "velocity": 51,
                "duration": 0.2318182,
                "tempo": 120.0
            },
            {
                "start_time": 37.7204545,
                "end_time": 37.95,
                "pitch": 50,
                "velocity": 51,
                "duration": 0.2295455,
                "tempo": 120.0
            },
            {
                "start_time": 37.9659091,
                "end_time": 38.2,
                "pitch": 52,
                "velocity": 51,
                "duration": 0.2340909,
                "tempo": 120.0
            },
            {
                "start_time": 38.2159091,
                "end_time": 38.3318182,
                "pitch": 52,
                "velocity": 51,
                "duration": 0.1159091,
                "tempo": 120.0
            },
            {
                "start_time": 38.35,
                "end_time": 38.45,
                "pitch": 52,
                "velocity": 51,
                "duration": 0.1,
                "tempo": 120.0
            },
            {
                "start_time": 38.4659091,
                "end_time": 38.6886364,
                "pitch": 52,
                "velocity": 51,
                "duration": 0.2227273,
                "tempo": 120.0
            },
            {
                "start_time": 38.7045455,
                "end_time": 38.9295455,
                "pitch": 50,
                "velocity": 51,
                "duration": 0.225,
                "tempo": 120.0
            },
            {
                "start_time": 38.9454545,
                "end_time": 39.1795455,
                "pitch": 52,
                "velocity": 51,
                "duration": 0.2340909,
                "tempo": 120.0
            },
            {
                "start_time": 39.1954545,
                "end_time": 39.3113636,
                "pitch": 52,
                "velocity": 51,
                "duration": 0.1159091,
                "tempo": 120.0
            },
            {
                "start_time": 39.3295455,
                "end_time": 39.4295455,
                "pitch": 52,
                "velocity": 51,
                "duration": 0.1,
                "tempo": 120.0
            },
            {
                "start_time": 39.4454545,
                "end_time": 39.6863636,
                "pitch": 52,
                "velocity": 51,
                "duration": 0.2409091,
                "tempo": 120.0
            },
            {
                "start_time": 39.7022727,
                "end_time": 39.9409091,
                "pitch": 50,
                "velocity": 51,
                "duration": 0.2386364,
                "tempo": 120.0
            },
            {
                "start_time": 39.9590909,
                "end_time": 40.1977273,
                "pitch": 52,
                "velocity": 51,
                "duration": 0.2386364,
                "tempo": 120.0
            },
            {
                "start_time": 40.2159091,
                "end_time": 40.3340909,
                "pitch": 52,
                "velocity": 51,
                "duration": 0.1181818,
                "tempo": 120.0
            },
            {
                "start_time": 40.3522727,
                "end_time": 40.4545455,
                "pitch": 52,
                "velocity": 51,
                "duration": 0.1022727,
                "tempo": 120.0
            },
            {
                "start_time": 40.4704545,
                "end_time": 40.7045455,
                "pitch": 52,
                "velocity": 51,
                "duration": 0.2340909,
                "tempo": 120.0
            },
            {
                "start_time": 40.7204545,
                "end_time": 40.9545455,
                "pitch": 50,
                "velocity": 51,
                "duration": 0.2340909,
                "tempo": 120.0
            },
            {
                "start_time": 40.9704545,
                "end_time": 41.2113636,
                "pitch": 52,
                "velocity": 51,
                "duration": 0.2409091,
                "tempo": 120.0
            },
            {
                "start_time": 41.2272727,
                "end_time": 41.3477273,
                "pitch": 52,
                "velocity": 51,
                "duration": 0.1204545,
                "tempo": 120.0
            },
            {
                "start_time": 41.3636364,
                "end_time": 41.4659091,
                "pitch": 52,
                "velocity": 51,
                "duration": 0.1022727,
                "tempo": 120.0
            },
            {
                "start_time": 41.4840909,
                "end_time": 41.7136364,
                "pitch": 52,
                "velocity": 51,
                "duration": 0.2295455,
                "tempo": 120.0
            },
            {
                "start_time": 41.7295455,
                "end_time": 41.9590909,
                "pitch": 50,
                "velocity": 51,
                "duration": 0.2295455,
                "tempo": 120.0
            },
            {
                "start_time": 41.975,
                "end_time": 42.2045455,
                "pitch": 52,
                "velocity": 51,
                "duration": 0.2295455,
                "tempo": 120.0
            },
            {
                "start_time": 42.2227273,
                "end_time": 42.3363636,
                "pitch": 52,
                "velocity": 51,
                "duration": 0.1136364,
                "tempo": 120.0
            },
            {
                "start_time": 42.3522727,
                "end_time": 42.4522727,
                "pitch": 52,
                "velocity": 51,
                "duration": 0.1,
                "tempo": 120.0
            },
            {
                "start_time": 42.4681818,
                "end_time": 42.6977273,
                "pitch": 52,
                "velocity": 51,
                "duration": 0.2295455,
                "tempo": 120.0
            },
            {
                "start_time": 42.7136364,
                "end_time": 42.9431818,
                "pitch": 50,
                "velocity": 51,
                "duration": 0.2295455,
                "tempo": 120.0
            },
            {
                "start_time": 42.9590909,
                "end_time": 43.1931818,
                "pitch": 52,
                "velocity": 51,
                "duration": 0.2340909,
                "tempo": 120.0
            },
            {
                "start_time": 43.2090909,
                "end_time": 43.3272727,
                "pitch": 52,
                "velocity": 51,
                "duration": 0.1181818,
                "tempo": 120.0
            },
            {
                "start_time": 43.3431818,
                "end_time": 43.4431818,
                "pitch": 52,
                "velocity": 51,
                "duration": 0.1,
                "tempo": 120.0
            },
            {
                "start_time": 43.4590909,
                "end_time": 43.7,
                "pitch": 52,
                "velocity": 51,
                "duration": 0.2409091,
                "tempo": 120.0
            },
            {
                "start_time": 43.7159091,
                "end_time": 43.9568182,
                "pitch": 50,
                "velocity": 51,
                "duration": 0.2409091,
                "tempo": 120.0
            },
            {
                "start_time": 44.3659091,
                "end_time": 44.4681818,
                "pitch": 64,
                "velocity": 51,
                "duration": 0.1022727,
                "tempo": 120.0
            },
            {
                "start_time": 44.7363636,
                "end_time": 44.9681818,
                "pitch": 63,
                "velocity": 51,
                "duration": 0.2318182,
                "tempo": 120.0
            },
            {
                "start_time": 45.3795455,
                "end_time": 45.4818182,
                "pitch": 64,
                "velocity": 51,
                "duration": 0.1022727,
                "tempo": 120.0
            },
            {
                "start_time": 45.7431818,
                "end_time": 45.9727273,
                "pitch": 63,
                "velocity": 51,
                "duration": 0.2295455,
                "tempo": 120.0
            },
            {
                "start_time": 46.3818182,
                "end_time": 46.4863636,
                "pitch": 64,
                "velocity": 51,
                "duration": 0.1045455,
                "tempo": 120.0
            },
            {
                "start_time": 46.7477273,
                "end_time": 46.9772727,
                "pitch": 63,
                "velocity": 51,
                "duration": 0.2295455,
                "tempo": 120.0
            },
            {
                "start_time": 47.3863636,
                "end_time": 47.4886364,
                "pitch": 64,
                "velocity": 51,
                "duration": 0.1022727,
                "tempo": 120.0
            },
            {
                "start_time": 47.7522727,
                "end_time": 47.9818182,
                "pitch": 63,
                "velocity": 51,
                "duration": 0.2295455,
                "tempo": 120.0
            },
            {
                "start_time": 48.3909091,
                "end_time": 48.4931818,
                "pitch": 67,
                "velocity": 51,
                "duration": 0.1022727,
                "tempo": 120.0
            },
            {
                "start_time": 48.7568182,
                "end_time": 48.9863636,
                "pitch": 66,
                "velocity": 51,
                "duration": 0.2295455,
                "tempo": 120.0
            },
            {
                "start_time": 49.3954545,
                "end_time": 49.4977273,
                "pitch": 67,
                "velocity": 51,
                "duration": 0.1022727,
                "tempo": 120.0
            },
            {
                "start_time": 49.7613636,
                "end_time": 49.9909091,
                "pitch": 66,
                "velocity": 51,
                "duration": 0.2295455,
                "tempo": 120.0
            },
            {
                "start_time": 50.4,
                "end_time": 50.5022727,
                "pitch": 67,
                "velocity": 51,
                "duration": 0.1022727,
                "tempo": 120.0
            },
            {
                "start_time": 50.7659091,
                "end_time": 50.9954545,
                "pitch": 66,
                "velocity": 51,
                "duration": 0.2295455,
                "tempo": 120.0
            },
            {
                "start_time": 51.4045455,
                "end_time": 51.5068182,
                "pitch": 67,
                "velocity": 51,
                "duration": 0.1022727,
                "tempo": 120.0
            },
            {
                "start_time": 51.7704545,
                "end_time": 52.0,
                "pitch": 66,
                "velocity": 51,
                "duration": 0.2295455,
                "tempo": 120.0
            },
            {
                "start_time": 52.4090909,
                "end_time": 52.5113636,
                "pitch": 64,
                "velocity": 51,
                "duration": 0.1022727,
                "tempo": 120.0
            },
            {
                "start_time": 52.7727273,
                "end_time": 53.0022727,
                "pitch": 63,
                "velocity": 51,
                "duration": 0.2295455,
                "tempo": 120.0
            },
            {
                "start_time": 53.4113636,
                "end_time": 53.5159091,
                "pitch": 64,
                "velocity": 51,
                "duration": 0.1045455,
                "tempo": 120.0
            },
            {
                "start_time": 53.7772727,
                "end_time": 54.0068182,
                "pitch": 63,
                "velocity": 51,
                "duration": 0.2295455,
                "tempo": 120.0
            },
            {
                "start_time": 54.4159091,
                "end_time": 54.5181818,
                "pitch": 64,
                "velocity": 51,
                "duration": 0.1022727,
                "tempo": 120.0
            },
            {
                "start_time": 54.7818182,
                "end_time": 55.0113636,
                "pitch": 63,
                "velocity": 51,
                "duration": 0.2295455,
                "tempo": 120.0
            },
            {
                "start_time": 55.4204545,
                "end_time": 55.5227273,
                "pitch": 64,
                "velocity": 51,
                "duration": 0.1022727,
                "tempo": 120.0
            },
            {
                "start_time": 55.7863636,
                "end_time": 56.0159091,
                "pitch": 63,
                "velocity": 51,
                "duration": 0.2295455,
                "tempo": 120.0
            },
            {
                "start_time": 56.425,
                "end_time": 56.5272727,
                "pitch": 67,
                "velocity": 51,
                "duration": 0.1022727,
                "tempo": 120.0
            },
            {
                "start_time": 56.7909091,
                "end_time": 57.0204545,
                "pitch": 66,
                "velocity": 51,
                "duration": 0.2295455,
                "tempo": 120.0
            },
            {
                "start_time": 57.4295455,
                "end_time": 57.5318182,
                "pitch": 67,
                "velocity": 51,
                "duration": 0.1022727,
                "tempo": 120.0
            },
            {
                "start_time": 57.7954545,
                "end_time": 58.025,
                "pitch": 66,
                "velocity": 51,
                "duration": 0.2295455,
                "tempo": 120.0
            },
            {
                "start_time": 58.4340909,
                "end_time": 58.5363636,
                "pitch": 67,
                "velocity": 51,
                "duration": 0.1022727,
                "tempo": 120.0
            },
            {
                "start_time": 58.8,
                "end_time": 59.0295455,
                "pitch": 66,
                "velocity": 51,
                "duration": 0.2295455,
                "tempo": 120.0
            },
            {
                "start_time": 59.4386364,
                "end_time": 59.5409091,
                "pitch": 67,
                "velocity": 51,
                "duration": 0.1022727,
                "tempo": 120.0
            },
            {
                "start_time": 59.8022727,
                "end_time": 60.0340909,
                "pitch": 66,
                "velocity": 51,
                "duration": 0.2318182,
                "tempo": 120.0
            }
        ],
        "Synth Bass 1": [
            {
                "start_time": 7.9181818,
                "end_time": 8.125,
                "pitch": 40,
                "velocity": 51,
                "duration": 0.2068182,
                "tempo": 120.0
            },
            {
                "start_time": 8.1386364,
                "end_time": 8.3454545,
                "pitch": 40,
                "velocity": 51,
                "duration": 0.2068182,
                "tempo": 120.0
            },
            {
                "start_time": 8.3590909,
                "end_time": 8.5931818,
                "pitch": 46,
                "velocity": 51,
                "duration": 0.2340909,
                "tempo": 120.0
            },
            {
                "start_time": 8.6090909,
                "end_time": 8.8431818,
                "pitch": 46,
                "velocity": 51,
                "duration": 0.2340909,
                "tempo": 120.0
            },
            {
                "start_time": 8.8590909,
                "end_time": 9.0977273,
                "pitch": 43,
                "velocity": 51,
                "duration": 0.2386364,
                "tempo": 120.0
            },
            {
                "start_time": 9.1159091,
                "end_time": 9.3545455,
                "pitch": 43,
                "velocity": 51,
                "duration": 0.2386364,
                "tempo": 120.0
            },
            {
                "start_time": 9.3727273,
                "end_time": 9.6022727,
                "pitch": 45,
                "velocity": 51,
                "duration": 0.2295455,
                "tempo": 120.0
            },
            {
                "start_time": 9.6181818,
                "end_time": 9.8477273,
                "pitch": 43,
                "velocity": 51,
                "duration": 0.2295455,
                "tempo": 120.0
            },
            {
                "start_time": 9.8636364,
                "end_time": 10.1022727,
                "pitch": 40,
                "velocity": 51,
                "duration": 0.2386364,
                "tempo": 120.0
            },
            {
                "start_time": 10.1204545,
                "end_time": 10.3590909,
                "pitch": 40,
                "velocity": 51,
                "duration": 0.2386364,
                "tempo": 120.0
            },
            {
                "start_time": 10.375,
                "end_time": 10.6045455,
                "pitch": 46,
                "velocity": 51,
                "duration": 0.2295455,
                "tempo": 120.0
            },
            {
                "start_time": 10.6227273,
                "end_time": 10.8522727,
                "pitch": 46,
                "velocity": 51,
                "duration": 0.2295455,
                "tempo": 120.0
            },
            {
                "start_time": 10.8681818,
                "end_time": 11.1068182,
                "pitch": 43,
                "velocity": 51,
                "duration": 0.2386364,
                "tempo": 120.0
            },
            {
                "start_time": 11.1227273,
                "end_time": 11.3636364,
                "pitch": 43,
                "velocity": 51,
                "duration": 0.2409091,
                "tempo": 120.0
            },
            {
                "start_time": 11.3795455,
                "end_time": 11.6090909,
                "pitch": 45,
                "velocity": 51,
                "duration": 0.2295455,
                "tempo": 120.0
            },
            {
                "start_time": 11.6272727,
                "end_time": 11.8568182,
                "pitch": 43,
                "velocity": 51,
                "duration": 0.2295455,
                "tempo": 120.0
            },
            {
                "start_time": 11.8727273,
                "end_time": 12.1113636,
                "pitch": 40,
                "velocity": 51,
                "duration": 0.2386364,
                "tempo": 120.0
            },
            {
                "start_time": 12.1272727,
                "end_time": 12.3681818,
                "pitch": 40,
                "velocity": 51,
                "duration": 0.2409091,
                "tempo": 120.0
            },
            {
                "start_time": 12.3840909,
                "end_time": 12.6136364,
                "pitch": 46,
                "velocity": 51,
                "duration": 0.2295455,
                "tempo": 120.0
            },
            {
                "start_time": 12.6295455,
                "end_time": 12.8590909,
                "pitch": 46,
                "velocity": 51,
                "duration": 0.2295455,
                "tempo": 120.0
            },
            {
                "start_time": 12.8772727,
                "end_time": 13.1159091,
                "pitch": 43,
                "velocity": 51,
                "duration": 0.2386364,
                "tempo": 120.0
            },
            {
                "start_time": 13.1318182,
                "end_time": 13.3704545,
                "pitch": 43,
                "velocity": 51,
                "duration": 0.2386364,
                "tempo": 120.0
            },
            {
                "start_time": 13.3886364,
                "end_time": 13.6181818,
                "pitch": 45,
                "velocity": 51,
                "duration": 0.2295455,
                "tempo": 120.0
            },
            {
                "start_time": 13.6340909,
                "end_time": 13.8636364,
                "pitch": 43,
                "velocity": 51,
                "duration": 0.2295455,
                "tempo": 120.0
            },
            {
                "start_time": 13.8795455,
                "end_time": 14.1204545,
                "pitch": 40,
                "velocity": 51,
                "duration": 0.2409091,
                "tempo": 120.0
            },
            {
                "start_time": 14.1363636,
                "end_time": 14.375,
                "pitch": 40,
                "velocity": 51,
                "duration": 0.2386364,
                "tempo": 120.0
            },
            {
                "start_time": 14.3931818,
                "end_time": 14.6227273,
                "pitch": 46,
                "velocity": 51,
                "duration": 0.2295455,
                "tempo": 120.0
            },
            {
                "start_time": 14.6386364,
                "end_time": 14.8681818,
                "pitch": 46,
                "velocity": 51,
                "duration": 0.2295455,
                "tempo": 120.0
            },
            {
                "start_time": 14.8840909,
                "end_time": 15.1227273,
                "pitch": 43,
                "velocity": 51,
                "duration": 0.2386364,
                "tempo": 120.0
            },
            {
                "start_time": 15.1409091,
                "end_time": 15.3795455,
                "pitch": 43,
                "velocity": 51,
                "duration": 0.2386364,
                "tempo": 120.0
            },
            {
                "start_time": 15.3977273,
                "end_time": 15.6272727,
                "pitch": 45,
                "velocity": 51,
                "duration": 0.2295455,
                "tempo": 120.0
            },
            {
                "start_time": 15.6431818,
                "end_time": 15.8727273,
                "pitch": 43,
                "velocity": 51,
                "duration": 0.2295455,
                "tempo": 120.0
            },
            {
                "start_time": 15.8886364,
                "end_time": 16.1272727,
                "pitch": 40,
                "velocity": 51,
                "duration": 0.2386364,
                "tempo": 120.0
            },
            {
                "start_time": 16.1454545,
                "end_time": 16.3840909,
                "pitch": 40,
                "velocity": 51,
                "duration": 0.2386364,
                "tempo": 120.0
            },
            {
                "start_time": 16.4022727,
                "end_time": 16.6318182,
                "pitch": 46,
                "velocity": 51,
                "duration": 0.2295455,
                "tempo": 120.0
            },
            {
                "start_time": 16.6477273,
                "end_time": 16.8772727,
                "pitch": 46,
                "velocity": 51,
                "duration": 0.2295455,
                "tempo": 120.0
            },
            {
                "start_time": 16.8931818,
                "end_time": 17.1318182,
                "pitch": 43,
                "velocity": 51,
                "duration": 0.2386364,
                "tempo": 120.0
            },
            {
                "start_time": 17.15,
                "end_time": 17.3886364,
                "pitch": 43,
                "velocity": 51,
                "duration": 0.2386364,
                "tempo": 120.0
            },
            {
                "start_time": 17.4045455,
                "end_time": 17.6340909,
                "pitch": 45,
                "velocity": 51,
                "duration": 0.2295455,
                "tempo": 120.0
            },
            {
                "start_time": 17.6522727,
                "end_time": 17.8818182,
                "pitch": 43,
                "velocity": 51,
                "duration": 0.2295455,
                "tempo": 120.0
            },
            {
                "start_time": 17.8977273,
                "end_time": 18.1363636,
                "pitch": 40,
                "velocity": 51,
                "duration": 0.2386364,
                "tempo": 120.0
            },
            {
                "start_time": 18.1522727,
                "end_time": 18.3931818,
                "pitch": 40,
                "velocity": 51,
                "duration": 0.2409091,
                "tempo": 120.0
            },
            {
                "start_time": 18.4090909,
                "end_time": 18.6386364,
                "pitch": 46,
                "velocity": 51,
                "duration": 0.2295455,
                "tempo": 120.0
            },
            {
                "start_time": 18.6545455,
                "end_time": 18.8840909,
                "pitch": 46,
                "velocity": 51,
                "duration": 0.2295455,
                "tempo": 120.0
            },
            {
                "start_time": 18.9022727,
                "end_time": 19.1409091,
                "pitch": 43,
                "velocity": 51,
                "duration": 0.2386364,
                "tempo": 120.0
            },
            {
                "start_time": 19.1568182,
                "end_time": 19.3977273,
                "pitch": 43,
                "velocity": 51,
                "duration": 0.2409091,
                "tempo": 120.0
            },
            {
                "start_time": 19.4136364,
                "end_time": 19.6431818,
                "pitch": 45,
                "velocity": 51,
                "duration": 0.2295455,
                "tempo": 120.0
            },
            {
                "start_time": 19.6590909,
                "end_time": 19.8886364,
                "pitch": 43,
                "velocity": 51,
                "duration": 0.2295455,
                "tempo": 120.0
            },
            {
                "start_time": 19.9068182,
                "end_time": 20.1454545,
                "pitch": 40,
                "velocity": 51,
                "duration": 0.2386364,
                "tempo": 120.0
            },
            {
                "start_time": 20.1613636,
                "end_time": 20.4,
                "pitch": 40,
                "velocity": 51,
                "duration": 0.2386364,
                "tempo": 120.0
            },
            {
                "start_time": 20.4181818,
                "end_time": 20.6477273,
                "pitch": 46,
                "velocity": 51,
                "duration": 0.2295455,
                "tempo": 120.0
            },
            {
                "start_time": 20.6636364,
                "end_time": 20.8931818,
                "pitch": 46,
                "velocity": 51,
                "duration": 0.2295455,
                "tempo": 120.0
            },
            {
                "start_time": 20.9090909,
                "end_time": 21.1477273,
                "pitch": 43,
                "velocity": 51,
                "duration": 0.2386364,
                "tempo": 120.0
            },
            {
                "start_time": 21.1659091,
                "end_time": 21.4045455,
                "pitch": 43,
                "velocity": 51,
                "duration": 0.2386364,
                "tempo": 120.0
            },
            {
                "start_time": 21.4227273,
                "end_time": 21.6522727,
                "pitch": 45,
                "velocity": 51,
                "duration": 0.2295455,
                "tempo": 120.0
            },
            {
                "start_time": 21.6681818,
                "end_time": 21.8977273,
                "pitch": 43,
                "velocity": 51,
                "duration": 0.2295455,
                "tempo": 120.0
            },
            {
                "start_time": 21.9136364,
                "end_time": 22.1522727,
                "pitch": 40,
                "velocity": 51,
                "duration": 0.2386364,
                "tempo": 120.0
            },
            {
                "start_time": 22.1704545,
                "end_time": 22.4090909,
                "pitch": 40,
                "velocity": 51,
                "duration": 0.2386364,
                "tempo": 120.0
            },
            {
                "start_time": 22.4272727,
                "end_time": 22.6568182,
                "pitch": 46,
                "velocity": 51,
                "duration": 0.2295455,
                "tempo": 120.0
            },
            {
                "start_time": 22.6727273,
                "end_time": 22.9022727,
                "pitch": 46,
                "velocity": 51,
                "duration": 0.2295455,
                "tempo": 120.0
            },
            {
                "start_time": 22.9181818,
                "end_time": 23.1568182,
                "pitch": 43,
                "velocity": 51,
                "duration": 0.2386364,
                "tempo": 120.0
            },
            {
                "start_time": 23.175,
                "end_time": 23.4136364,
                "pitch": 43,
                "velocity": 51,
                "duration": 0.2386364,
                "tempo": 120.0
            },
            {
                "start_time": 23.4318182,
                "end_time": 23.6613636,
                "pitch": 45,
                "velocity": 51,
                "duration": 0.2295455,
                "tempo": 120.0
            },
            {
                "start_time": 23.6772727,
                "end_time": 23.9068182,
                "pitch": 43,
                "velocity": 51,
                "duration": 0.2295455,
                "tempo": 120.0
            },
            {
                "start_time": 23.9227273,
                "end_time": 27.9068182,
                "pitch": 40,
                "velocity": 51,
                "duration": 3.9840909,
                "tempo": 120.0
            },
            {
                "start_time": 27.925,
                "end_time": 28.1636364,
                "pitch": 40,
                "velocity": 80,
                "duration": 0.2386364,
                "tempo": 120.0
            },
            {
                "start_time": 28.1795455,
                "end_time": 28.4204545,
                "pitch": 40,
                "velocity": 51,
                "duration": 0.2409091,
                "tempo": 120.0
            },
            {
                "start_time": 28.4363636,
                "end_time": 28.6704545,
                "pitch": 46,
                "velocity": 51,
                "duration": 0.2340909,
                "tempo": 120.0
            },
            {
                "start_time": 28.6863636,
                "end_time": 28.9204545,
                "pitch": 46,
                "velocity": 51,
                "duration": 0.2340909,
                "tempo": 120.0
            },
            {
                "start_time": 28.9363636,
                "end_time": 29.175,
                "pitch": 43,
                "velocity": 51,
                "duration": 0.2386364,
                "tempo": 120.0
            },
            {
                "start_time": 29.1931818,
                "end_time": 29.4318182,
                "pitch": 43,
                "velocity": 51,
                "duration": 0.2386364,
                "tempo": 120.0
            },
            {
                "start_time": 29.45,
                "end_time": 29.6795455,
                "pitch": 45,
                "velocity": 51,
                "duration": 0.2295455,
                "tempo": 120.0
            },
            {
                "start_time": 29.6954545,
                "end_time": 29.925,
                "pitch": 43,
                "velocity": 51,
                "duration": 0.2295455,
                "tempo": 120.0
            },
            {
                "start_time": 29.9409091,
                "end_time": 29.975,
                "pitch": 82,
                "velocity": 51,
                "duration": 0.0340909,
                "tempo": 120.0
            },
            {
                "start_time": 29.9909091,
                "end_time": 31.9204545,
                "pitch": 83,
                "velocity": 51,
                "duration": 1.9295455,
                "tempo": 120.0
            },
            {
                "start_time": 31.9386364,
                "end_time": 32.1772727,
                "pitch": 40,
                "velocity": 51,
                "duration": 0.2386364,
                "tempo": 120.0
            },
            {
                "start_time": 32.1954545,
                "end_time": 32.4340909,
                "pitch": 40,
                "velocity": 51,
                "duration": 0.2386364,
                "tempo": 120.0
            },
            {
                "start_time": 32.45,
                "end_time": 32.6840909,
                "pitch": 46,
                "velocity": 51,
                "duration": 0.2340909,
                "tempo": 120.0
            },
            {
                "start_time": 32.7,
                "end_time": 32.9340909,
                "pitch": 46,
                "velocity": 51,
                "duration": 0.2340909,
                "tempo": 120.0
            },
            {
                "start_time": 32.95,
                "end_time": 33.1909091,
                "pitch": 43,
                "velocity": 51,
                "duration": 0.2409091,
                "tempo": 120.0
            },
            {
                "start_time": 33.2068182,
                "end_time": 33.4454545,
                "pitch": 43,
                "velocity": 51,
                "duration": 0.2386364,
                "tempo": 120.0
            },
            {
                "start_time": 33.4636364,
                "end_time": 33.6931818,
                "pitch": 45,
                "velocity": 51,
                "duration": 0.2295455,
                "tempo": 120.0
            },
            {
                "start_time": 33.7090909,
                "end_time": 33.9386364,
                "pitch": 43,
                "velocity": 51,
                "duration": 0.2295455,
                "tempo": 120.0
            },
            {
                "start_time": 33.9545455,
                "end_time": 33.9886364,
                "pitch": 85,
                "velocity": 51,
                "duration": 0.0340909,
                "tempo": 120.0
            },
            {
                "start_time": 34.0045455,
                "end_time": 35.9318182,
                "pitch": 86,
                "velocity": 51,
                "duration": 1.9272727,
                "tempo": 120.0
            },
            {
                "start_time": 35.9477273,
                "end_time": 36.1886364,
                "pitch": 40,
                "velocity": 51,
                "duration": 0.2409091,
                "tempo": 120.0
            },
            {
                "start_time": 36.2045455,
                "end_time": 36.4431818,
                "pitch": 40,
                "velocity": 51,
                "duration": 0.2386364,
                "tempo": 120.0
            },
            {
                "start_time": 36.4613636,
                "end_time": 36.6954545,
                "pitch": 46,
                "velocity": 51,
                "duration": 0.2340909,
                "tempo": 120.0
            },
            {
                "start_time": 36.7113636,
                "end_time": 36.9454545,
                "pitch": 46,
                "velocity": 51,
                "duration": 0.2340909,
                "tempo": 120.0
            },
            {
                "start_time": 36.9613636,
                "end_time": 37.2,
                "pitch": 43,
                "velocity": 51,
                "duration": 0.2386364,
                "tempo": 120.0
            },
            {
                "start_time": 37.2181818,
                "end_time": 37.4568182,
                "pitch": 43,
                "velocity": 51,
                "duration": 0.2386364,
                "tempo": 120.0
            },
            {
                "start_time": 37.4727273,
                "end_time": 37.7045455,
                "pitch": 45,
                "velocity": 51,
                "duration": 0.2318182,
                "tempo": 120.0
            },
            {
                "start_time": 37.7204545,
                "end_time": 37.95,
                "pitch": 43,
                "velocity": 51,
                "duration": 0.2295455,
                "tempo": 120.0
            },
            {
                "start_time": 39.9590909,
                "end_time": 40.1977273,
                "pitch": 40,
                "velocity": 51,
                "duration": 0.2386364,
                "tempo": 120.0
            },
            {
                "start_time": 40.2159091,
                "end_time": 40.4545455,
                "pitch": 40,
                "velocity": 51,
                "duration": 0.2386364,
                "tempo": 120.0
            },
            {
                "start_time": 40.4704545,
                "end_time": 40.7045455,
                "pitch": 46,
                "velocity": 51,
                "duration": 0.2340909,
                "tempo": 120.0
            },
            {
                "start_time": 40.7204545,
                "end_time": 40.9545455,
                "pitch": 46,
                "velocity": 51,
                "duration": 0.2340909,
                "tempo": 120.0
            },
            {
                "start_time": 40.9704545,
                "end_time": 41.2113636,
                "pitch": 43,
                "velocity": 51,
                "duration": 0.2409091,
                "tempo": 120.0
            },
            {
                "start_time": 41.2272727,
                "end_time": 41.4659091,
                "pitch": 43,
                "velocity": 51,
                "duration": 0.2386364,
                "tempo": 120.0
            },
            {
                "start_time": 41.4840909,
                "end_time": 41.7136364,
                "pitch": 45,
                "velocity": 51,
                "duration": 0.2295455,
                "tempo": 120.0
            },
            {
                "start_time": 41.7295455,
                "end_time": 41.9590909,
                "pitch": 43,
                "velocity": 51,
                "duration": 0.2295455,
                "tempo": 120.0
            },
            {
                "start_time": 43.9727273,
                "end_time": 44.2113636,
                "pitch": 40,
                "velocity": 51,
                "duration": 0.2386364,
                "tempo": 120.0
            },
            {
                "start_time": 44.2295455,
                "end_time": 44.4681818,
                "pitch": 40,
                "velocity": 51,
                "duration": 0.2386364,
                "tempo": 120.0
            },
            {
                "start_time": 44.4863636,
                "end_time": 44.7181818,
                "pitch": 46,
                "velocity": 51,
                "duration": 0.2318182,
                "tempo": 120.0
            },
            {
                "start_time": 44.7363636,
                "end_time": 44.9681818,
                "pitch": 46,
                "velocity": 51,
                "duration": 0.2318182,
                "tempo": 120.0
            },
            {
                "start_time": 44.9863636,
                "end_time": 45.225,
                "pitch": 43,
                "velocity": 51,
                "duration": 0.2386364,
                "tempo": 120.0
            },
            {
                "start_time": 45.2409091,
                "end_time": 45.4818182,
                "pitch": 43,
                "velocity": 51,
                "duration": 0.2409091,
                "tempo": 120.0
            },
            {
                "start_time": 45.4977273,
                "end_time": 45.7272727,
                "pitch": 45,
                "velocity": 51,
                "duration": 0.2295455,
                "tempo": 120.0
            },
            {
                "start_time": 45.7431818,
                "end_time": 45.9727273,
                "pitch": 43,
                "velocity": 51,
                "duration": 0.2295455,
                "tempo": 120.0
            },
            {
                "start_time": 45.9909091,
                "end_time": 46.2295455,
                "pitch": 40,
                "velocity": 51,
                "duration": 0.2386364,
                "tempo": 120.0
            },
            {
                "start_time": 46.2454545,
                "end_time": 46.4863636,
                "pitch": 40,
                "velocity": 51,
                "duration": 0.2409091,
                "tempo": 120.0
            },
            {
                "start_time": 46.5022727,
                "end_time": 46.7318182,
                "pitch": 46,
                "velocity": 51,
                "duration": 0.2295455,
                "tempo": 120.0
            },
            {
                "start_time": 46.7477273,
                "end_time": 46.9772727,
                "pitch": 46,
                "velocity": 51,
                "duration": 0.2295455,
                "tempo": 120.0
            },
            {
                "start_time": 46.9954545,
                "end_time": 47.2340909,
                "pitch": 43,
                "velocity": 51,
                "duration": 0.2386364,
                "tempo": 120.0
            },
            {
                "start_time": 47.25,
                "end_time": 47.4886364,
                "pitch": 43,
                "velocity": 51,
                "duration": 0.2386364,
                "tempo": 120.0
            },
            {
                "start_time": 47.5068182,
                "end_time": 47.7363636,
                "pitch": 45,
                "velocity": 51,
                "duration": 0.2295455,
                "tempo": 120.0
            },
            {
                "start_time": 47.7522727,
                "end_time": 47.9818182,
                "pitch": 43,
                "velocity": 51,
                "duration": 0.2295455,
                "tempo": 120.0
            },
            {
                "start_time": 47.9977273,
                "end_time": 48.2363636,
                "pitch": 40,
                "velocity": 51,
                "duration": 0.2386364,
                "tempo": 120.0
            },
            {
                "start_time": 48.2545455,
                "end_time": 48.4931818,
                "pitch": 40,
                "velocity": 51,
                "duration": 0.2386364,
                "tempo": 120.0
            },
            {
                "start_time": 48.5113636,
                "end_time": 48.7409091,
                "pitch": 46,
                "velocity": 51,
                "duration": 0.2295455,
                "tempo": 120.0
            },
            {
                "start_time": 48.7568182,
                "end_time": 48.9863636,
                "pitch": 46,
                "velocity": 51,
                "duration": 0.2295455,
                "tempo": 120.0
            },
            {
                "start_time": 49.0022727,
                "end_time": 49.2409091,
                "pitch": 43,
                "velocity": 51,
                "duration": 0.2386364,
                "tempo": 120.0
            },
            {
                "start_time": 49.2590909,
                "end_time": 49.4977273,
                "pitch": 43,
                "velocity": 51,
                "duration": 0.2386364,
                "tempo": 120.0
            },
            {
                "start_time": 49.5159091,
                "end_time": 49.7454545,
                "pitch": 45,
                "velocity": 51,
                "duration": 0.2295455,
                "tempo": 120.0
            },
            {
                "start_time": 49.7613636,
                "end_time": 49.9909091,
                "pitch": 43,
                "velocity": 51,
                "duration": 0.2295455,
                "tempo": 120.0
            },
            {
                "start_time": 50.0068182,
                "end_time": 50.2454545,
                "pitch": 40,
                "velocity": 51,
                "duration": 0.2386364,
                "tempo": 120.0
            },
            {
                "start_time": 50.2636364,
                "end_time": 50.5022727,
                "pitch": 40,
                "velocity": 51,
                "duration": 0.2386364,
                "tempo": 120.0
            },
            {
                "start_time": 50.5204545,
                "end_time": 50.75,
                "pitch": 46,
                "velocity": 51,
                "duration": 0.2295455,
                "tempo": 120.0
            },
            {
                "start_time": 50.7659091,
                "end_time": 50.9954545,
                "pitch": 46,
                "velocity": 51,
                "duration": 0.2295455,
                "tempo": 120.0
            },
            {
                "start_time": 51.0113636,
                "end_time": 51.25,
                "pitch": 43,
                "velocity": 51,
                "duration": 0.2386364,
                "tempo": 120.0
            },
            {
                "start_time": 51.2681818,
                "end_time": 51.5068182,
                "pitch": 43,
                "velocity": 51,
                "duration": 0.2386364,
                "tempo": 120.0
            },
            {
                "start_time": 51.5227273,
                "end_time": 51.7522727,
                "pitch": 45,
                "velocity": 51,
                "duration": 0.2295455,
                "tempo": 120.0
            },
            {
                "start_time": 51.7704545,
                "end_time": 52.0,
                "pitch": 43,
                "velocity": 51,
                "duration": 0.2295455,
                "tempo": 120.0
            },
            {
                "start_time": 52.0159091,
                "end_time": 52.2545455,
                "pitch": 40,
                "velocity": 51,
                "duration": 0.2386364,
                "tempo": 120.0
            },
            {
                "start_time": 52.2704545,
                "end_time": 52.5113636,
                "pitch": 40,
                "velocity": 51,
                "duration": 0.2409091,
                "tempo": 120.0
            },
            {
                "start_time": 52.5272727,
                "end_time": 52.7568182,
                "pitch": 46,
                "velocity": 51,
                "duration": 0.2295455,
                "tempo": 120.0
            },
            {
                "start_time": 52.7727273,
                "end_time": 53.0022727,
                "pitch": 46,
                "velocity": 51,
                "duration": 0.2295455,
                "tempo": 120.0
            },
            {
                "start_time": 53.0204545,
                "end_time": 53.2590909,
                "pitch": 43,
                "velocity": 51,
                "duration": 0.2386364,
                "tempo": 120.0
            },
            {
                "start_time": 53.275,
                "end_time": 53.5159091,
                "pitch": 43,
                "velocity": 51,
                "duration": 0.2409091,
                "tempo": 120.0
            },
            {
                "start_time": 53.5318182,
                "end_time": 53.7613636,
                "pitch": 45,
                "velocity": 51,
                "duration": 0.2295455,
                "tempo": 120.0
            },
            {
                "start_time": 53.7772727,
                "end_time": 54.0068182,
                "pitch": 43,
                "velocity": 51,
                "duration": 0.2295455,
                "tempo": 120.0
            },
            {
                "start_time": 54.0227273,
                "end_time": 54.2636364,
                "pitch": 40,
                "velocity": 51,
                "duration": 0.2409091,
                "tempo": 120.0
            },
            {
                "start_time": 54.2795455,
                "end_time": 54.5181818,
                "pitch": 40,
                "velocity": 51,
                "duration": 0.2386364,
                "tempo": 120.0
            },
            {
                "start_time": 54.5363636,
                "end_time": 54.7659091,
                "pitch": 46,
                "velocity": 51,
                "duration": 0.2295455,
                "tempo": 120.0
            },
            {
                "start_time": 54.7818182,
                "end_time": 55.0113636,
                "pitch": 46,
                "velocity": 51,
                "duration": 0.2295455,
                "tempo": 120.0
            },
            {
                "start_time": 55.0272727,
                "end_time": 55.2659091,
                "pitch": 43,
                "velocity": 51,
                "duration": 0.2386364,
                "tempo": 120.0
            },
            {
                "start_time": 55.2840909,
                "end_time": 55.5227273,
                "pitch": 43,
                "velocity": 51,
                "duration": 0.2386364,
                "tempo": 120.0
            },
            {
                "start_time": 55.5409091,
                "end_time": 55.7704545,
                "pitch": 45,
                "velocity": 51,
                "duration": 0.2295455,
                "tempo": 120.0
            },
            {
                "start_time": 55.7863636,
                "end_time": 56.0159091,
                "pitch": 43,
                "velocity": 51,
                "duration": 0.2295455,
                "tempo": 120.0
            },
            {
                "start_time": 56.0318182,
                "end_time": 56.2704545,
                "pitch": 40,
                "velocity": 51,
                "duration": 0.2386364,
                "tempo": 120.0
            },
            {
                "start_time": 56.2886364,
                "end_time": 56.5272727,
                "pitch": 40,
                "velocity": 51,
                "duration": 0.2386364,
                "tempo": 120.0
            },
            {
                "start_time": 56.5454545,
                "end_time": 56.775,
                "pitch": 46,
                "velocity": 51,
                "duration": 0.2295455,
                "tempo": 120.0
            },
            {
                "start_time": 56.7909091,
                "end_time": 57.0204545,
                "pitch": 46,
                "velocity": 51,
                "duration": 0.2295455,
                "tempo": 120.0
            },
            {
                "start_time": 57.0363636,
                "end_time": 57.275,
                "pitch": 43,
                "velocity": 51,
                "duration": 0.2386364,
                "tempo": 120.0
            },
            {
                "start_time": 57.2931818,
                "end_time": 57.5318182,
                "pitch": 43,
                "velocity": 51,
                "duration": 0.2386364,
                "tempo": 120.0
            },
            {
                "start_time": 57.5477273,
                "end_time": 57.7772727,
                "pitch": 45,
                "velocity": 51,
                "duration": 0.2295455,
                "tempo": 120.0
            },
            {
                "start_time": 57.7954545,
                "end_time": 58.025,
                "pitch": 43,
                "velocity": 51,
                "duration": 0.2295455,
                "tempo": 120.0
            },
            {
                "start_time": 58.0409091,
                "end_time": 58.2795455,
                "pitch": 40,
                "velocity": 51,
                "duration": 0.2386364,
                "tempo": 120.0
            },
            {
                "start_time": 58.2954545,
                "end_time": 58.5363636,
                "pitch": 40,
                "velocity": 51,
                "duration": 0.2409091,
                "tempo": 120.0
            },
            {
                "start_time": 58.5522727,
                "end_time": 58.7818182,
                "pitch": 46,
                "velocity": 51,
                "duration": 0.2295455,
                "tempo": 120.0
            },
            {
                "start_time": 58.8,
                "end_time": 59.0295455,
                "pitch": 46,
                "velocity": 51,
                "duration": 0.2295455,
                "tempo": 120.0
            },
            {
                "start_time": 59.0454545,
                "end_time": 59.2840909,
                "pitch": 43,
                "velocity": 51,
                "duration": 0.2386364,
                "tempo": 120.0
            },
            {
                "start_time": 59.3,
                "end_time": 59.5409091,
                "pitch": 43,
                "velocity": 51,
                "duration": 0.2409091,
                "tempo": 120.0
            },
            {
                "start_time": 59.5568182,
                "end_time": 59.7863636,
                "pitch": 45,
                "velocity": 51,
                "duration": 0.2295455,
                "tempo": 120.0
            },
            {
                "start_time": 59.8022727,
                "end_time": 60.0340909,
                "pitch": 43,
                "velocity": 51,
                "duration": 0.2318182,
                "tempo": 120.0
            }
        ]
    }
}