{
    "mood": "angry",
    "instruments": {
        "Acoustic Bass": [
            {
                "start_time": 2.7704545,
                "end_time": 2.9590909,
                "pitch": 43,
                "velocity": 80,
                "duration": 0.1886364,
                "tempo": 120.0
            },
            {
                "start_time": 2.9977273,
                "end_time": 3.1863636,
                "pitch": 45,
                "velocity": 80,
                "duration": 0.1886364,
                "tempo": 120.0
            },
            {
                "start_time": 3.225,
                "end_time": 3.4136364,
                "pitch": 40,
                "velocity": 80,
                "duration": 0.1886364,
                "tempo": 120.0
            },
            {
                "start_time": 3.4522727,
                "end_time": 3.6409091,
                "pitch": 43,
                "velocity": 80,
                "duration": 0.1886364,
                "tempo": 120.0
            },
            {
                "start_time": 3.9068182,
                "end_time": 4.0954545,
                "pitch": 36,
                "velocity": 80,
                "duration": 0.1886364,
                "tempo": 120.0
            },
            {
                "start_time": 4.3613636,
                "end_time": 5.4590909,
                "pitch": 33,
                "velocity": 80,
                "duration": 1.0977273,
                "tempo": 120.0
            },
            {
                "start_time": 5.9545455,
                "end_time": 5.9613636,
                "pitch": 33,
                "velocity": 80,
                "duration": 0.0068182,
                "tempo": 120.0
            },
            {
                "start_time": 5.9613636,
                "end_time": 6.1409091,
                "pitch": 33,
                "velocity": 80,
                "duration": 0.1795455,
                "tempo": 120.0
            },
            {
                "start_time": 6.1795455,
                "end_time": 6.3454545,
                "pitch": 33,
                "velocity": 80,
                "duration": 0.1659091,
                "tempo": 120.0
            },
            {
                "start_time": 7.7795455,
                "end_time": 7.9477273,
                "pitch": 33,
                "velocity": 80,
                "duration": 0.1681818,
                "tempo": 120.0
            },
            {
                "start_time": 8.1840909,
                "end_time": 8.3545455,
                "pitch": 33,
                "velocity": 80,
                "duration": 0.1704545,
                "tempo": 120.0
            },
            {
                "start_time": 8.3886364,
                "end_time": 8.5568182,
                "pitch": 45,
                "velocity": 80,
                "duration": 0.1681818,
                "tempo": 120.0
            },
            {
                "start_time": 8.5909091,
                "end_time": 8.7590909,
                "pitch": 33,
                "velocity": 80,
                "duration": 0.1681818,
                "tempo": 120.0
            },
            {
                "start_time": 9.4022727,
                "end_time": 9.5681818,
                "pitch": 33,
                "velocity": 80,
                "duration": 0.1659091,
                "tempo": 120.0
            },
            {
                "start_time": 9.8022727,
                "end_time": 9.9681818,
                "pitch": 33,
                "velocity": 80,
                "duration": 0.1659091,
                "tempo": 120.0
            },
            {
                "start_time": 10.0022727,
                "end_time": 10.1681818,
                "pitch": 33,
                "velocity": 80,
                "duration": 0.1659091,
                "tempo": 120.0
            },
            {
                "start_time": 10.4022727,
                "end_time": 10.7681818,
                "pitch": 33,
                "velocity": 80,
                "duration": 0.3659091,
                "tempo": 120.0
            },
            {
                "start_time": 10.8022727,
                "end_time": 10.9681818,
                "pitch": 35,
                "velocity": 80,
                "duration": 0.1659091,
                "tempo": 120.0
            },
            {
                "start_time": 11.0022727,
                "end_time": 11.9681818,
                "pitch": 36,
                "velocity": 80,
                "duration": 0.9659091,
                "tempo": 120.0
            },
            {
                "start_time": 12.4022727,
                "end_time": 12.5681818,
                "pitch": 36,
                "velocity": 80,
                "duration": 0.1659091,
                "tempo": 120.0
            },
            {
                "start_time": 12.6022727,
                "end_time": 12.7704545,
                "pitch": 36,
                "velocity": 80,
                "duration": 0.1681818,
                "tempo": 120.0
            },
            {
                "start_time": 14.2227273,
                "end_time": 15.7886364,
                "pitch": 38,
                "velocity": 80,
                "duration": 1.5659091,
                "tempo": 120.0
            },
            {
                "start_time": 15.8227273,
                "end_time": 15.9886364,
                "pitch": 38,
                "velocity": 80,
                "duration": 0.1659091,
                "tempo": 120.0
            },
            {
                "start_time": 16.2227273,
                "end_time": 16.3886364,
                "pitch": 38,
                "velocity": 80,
                "duration": 0.1659091,
                "tempo": 120.0
            },
            {
                "start_time": 16.4227273,
                "end_time": 16.5886364,
                "pitch": 43,
                "velocity": 80,
                "duration": 0.1659091,
                "tempo": 120.0
            },
            {
                "start_time": 16.6227273,
                "end_time": 16.7886364,
                "pitch": 38,
                "velocity": 80,
                "duration": 0.1659091,
                "tempo": 120.0
            },
            {
                "start_time": 17.625,
                "end_time": 17.7931818,
                "pitch": 43,
                "velocity": 80,
                "duration": 0.1681818,
                "tempo": 120.0
            },
            {
                "start_time": 17.8272727,
                "end_time": 17.9954545,
                "pitch": 45,
                "velocity": 80,
                "duration": 0.1681818,
                "tempo": 120.0
            },
            {
                "start_time": 18.0318182,
                "end_time": 18.2,
                "pitch": 40,
                "velocity": 80,
                "duration": 0.1681818,
                "tempo": 120.0
            },
            {
                "start_time": 18.2340909,
                "end_time": 18.4022727,
                "pitch": 43,
                "velocity": 80,
                "duration": 0.1681818,
                "tempo": 120.0
            },
            {
                "start_time": 18.6386364,
                "end_time": 18.8068182,
                "pitch": 36,
                "velocity": 80,
                "duration": 0.1681818,
                "tempo": 120.0
            },
            {
                "start_time": 19.0454545,
                "end_time": 20.4113636,
                "pitch": 33,
                "velocity": 80,
                "duration": 1.3659091,
                "tempo": 120.0
            },
            {
                "start_time": 20.4454545,
                "end_time": 20.8113636,
                "pitch": 33,
                "velocity": 80,
                "duration": 0.3659091,
                "tempo": 120.0
            },
            {
                "start_time": 22.2454545,
                "end_time": 22.4136364,
                "pitch": 33,
                "velocity": 80,
                "duration": 0.1681818,
                "tempo": 120.0
            },
            {
                "start_time": 22.65,
                "end_time": 22.8181818,
                "pitch": 33,
                "velocity": 80,
                "duration": 0.1681818,
                "tempo": 120.0
            },
            {
                "start_time": 22.8522727,
                "end_time": 23.0204545,
                "pitch": 36,
                "velocity": 80,
                "duration": 0.1681818,
                "tempo": 120.0
            },
            {
                "start_time": 23.0545455,
                "end_time": 23.2227273,
                "pitch": 33,
                "velocity": 80,
                "duration": 0.1681818,
                "tempo": 120.0
            },
            {
                "start_time": 23.8659091,
                "end_time": 24.0340909,
                "pitch": 33,
                "velocity": 80,
                "duration": 0.1681818,
                "tempo": 120.0
            },
            {
                "start_time": 24.2704545,
                "end_time": 24.4409091,
                "pitch": 33,
                "velocity": 80,
                "duration": 0.1704545,
                "tempo": 120.0
            },
            {
                "start_time": 24.475,
                "end_time": 24.6431818,
                "pitch": 33,
                "velocity": 80,
                "duration": 0.1681818,
                "tempo": 120.0
            },
            {
                "start_time": 25.2863636,
                "end_time": 25.4545455,
                "pitch": 35,
                "velocity": 80,
                "duration": 0.1681818,
                "tempo": 120.0
            },
            {
                "start_time": 25.4886364,
                "end_time": 27.075,
                "pitch": 36,
                "velocity": 80,
                "duration": 1.5863636,
                "tempo": 120.0
            },
            {
                "start_time": 27.1090909,
                "end_time": 27.275,
                "pitch": 36,
                "velocity": 80,
                "duration": 0.1659091,
                "tempo": 120.0
            },
            {
                "start_time": 28.7090909,
                "end_time": 30.2977273,
                "pitch": 38,
                "velocity": 80,
                "duration": 1.5886364,
                "tempo": 120.0
            },
            {
                "start_time": 30.3318182,
                "end_time": 30.4977273,
                "pitch": 38,
                "velocity": 80,
                "duration": 0.1659091,
                "tempo": 120.0
            },
            {
                "start_time": 30.7318182,
                "end_time": 30.8977273,
                "pitch": 38,
                "velocity": 80,
                "duration": 0.1659091,
                "tempo": 120.0
            },
            {
                "start_time": 30.9318182,
                "end_time": 31.6977273,
                "pitch": 43,
                "velocity": 80,
                "duration": 0.7659091,
                "tempo": 120.0
            },
            {
                "start_time": 32.1340909,
                "end_time": 32.3022727,
                "pitch": 43,
                "velocity": 80,
                "duration": 0.1681818,
                "tempo": 120.0
            },
            {
                "start_time": 32.3363636,
                "end_time": 32.5045455,
                "pitch": 45,
                "velocity": 80,
                "duration": 0.1681818,
                "tempo": 120.0
            },
            {
                "start_time": 32.5386364,
                "end_time": 32.7068182,
                "pitch": 40,
                "velocity": 80,
                "duration": 0.1681818,
                "tempo": 120.0
            },
            {
                "start_time": 32.7409091,
                "end_time": 32.9090909,
                "pitch": 43,
                "velocity": 80,
                "duration": 0.1681818,
                "tempo": 120.0
            },
            {
                "start_time": 33.1477273,
                "end_time": 33.3159091,
                "pitch": 36,
                "velocity": 80,
                "duration": 0.1681818,
                "tempo": 120.0
            },
            {
                "start_time": 33.5522727,
                "end_time": 35.1409091,
                "pitch": 33,
                "velocity": 80,
                "duration": 1.5886364,
                "tempo": 120.0
            },
            {
                "start_time": 35.175,
                "end_time": 35.3431818,
                "pitch": 33,
                "velocity": 80,
                "duration": 0.1681818,
                "tempo": 120.0
            },
            {
                "start_time": 35.5795455,
                "end_time": 35.7477273,
                "pitch": 33,
                "velocity": 80,
                "duration": 0.1681818,
                "tempo": 120.0
            },
            {
                "start_time": 35.7818182,
                "end_time": 35.95,
                "pitch": 33,
                "velocity": 80,
                "duration": 0.1681818,
                "tempo": 120.0
            },
            {
                "start_time": 36.7954545,
                "end_time": 36.9613636,
                "pitch": 33,
                "velocity": 80,
                "duration": 0.1659091,
                "tempo": 120.0
            },
            {
                "start_time": 38.3954545,
                "end_time": 38.5636364,
                "pitch": 33,
                "velocity": 80,
                "duration": 0.1681818,
                "tempo": 120.0
            },
            {
                "start_time": 39.4090909,
                "end_time": 39.7795455,
                "pitch": 33,
                "velocity": 80,
                "duration": 0.3704545,
                "tempo": 120.0
            },
            {
                "start_time": 39.8159091,
                "end_time": 39.9840909,
                "pitch": 35,
                "velocity": 80,
                "duration": 0.1681818,
                "tempo": 120.0
            },
            {
                "start_time": 40.0181818,
                "end_time": 41.4022727,
                "pitch": 36,
                "velocity": 80,
                "duration": 1.3840909,
                "tempo": 120.0
            },
            {
                "start_time": 41.4363636,
                "end_time": 41.8045455,
                "pitch": 36,
                "velocity": 80,
                "duration": 0.3681818,
                "tempo": 120.0
            },
            {
                "start_time": 42.8386364,
                "end_time": 43.0045455,
                "pitch": 36,
                "velocity": 80,
                "duration": 0.1659091,
                "tempo": 120.0
            },
            {
                "start_time": 43.2386364,
                "end_time": 44.8272727,
                "pitch": 38,
                "velocity": 80,
                "duration": 1.5886364,
                "tempo": 120.0
            },
            {
                "start_time": 44.8613636,
                "end_time": 45.025,
                "pitch": 38,
                "velocity": 80,
                "duration": 0.1636364,
                "tempo": 120.0
            },
            {
                "start_time": 45.2545455,
                "end_time": 46.6068182,
                "pitch": 40,
                "velocity": 80,
                "duration": 1.3522727,
                "tempo": 120.0
            },
            {
                "start_time": 46.6431818,
                "end_time": 46.8090909,
                "pitch": 43,
                "velocity": 80,
                "duration": 0.1659091,
                "tempo": 120.0
            },
            {
                "start_time": 46.8454545,
                "end_time": 47.0136364,
                "pitch": 45,
                "velocity": 80,
                "duration": 0.1681818,
                "tempo": 120.0
            },
            {
                "start_time": 47.0477273,
                "end_time": 47.2159091,
                "pitch": 40,
                "velocity": 80,
                "duration": 0.1681818,
                "tempo": 120.0
            },
            {
                "start_time": 47.25,
                "end_time": 47.4181818,
                "pitch": 43,
                "velocity": 80,
                "duration": 0.1681818,
                "tempo": 120.0
            },
            {
                "start_time": 47.6545455,
                "end_time": 47.8227273,
                "pitch": 36,
                "velocity": 80,
                "duration": 0.1681818,
                "tempo": 120.0
            },
            {
                "start_time": 48.0613636,
                "end_time": 49.6272727,
                "pitch": 33,
                "velocity": 80,
                "duration": 1.5659091,
                "tempo": 120.0
            },
            {
                "start_time": 49.6613636,
                "end_time": 49.8272727,
                "pitch": 33,
                "velocity": 80,
                "duration": 0.1659091,
                "tempo": 120.0
            },
            {
                "start_time": 51.2613636,
                "end_time": 51.4295455,
                "pitch": 33,
                "velocity": 80,
                "duration": 0.1681818,
                "tempo": 120.0
            },
            {
                "start_time": 51.6659091,
                "end_time": 51.8340909,
                "pitch": 33,
                "velocity": 80,
                "duration": 0.1681818,
                "tempo": 120.0
            },
            {
                "start_time": 51.8681818,
                "end_time": 52.0363636,
                "pitch": 33,
                "velocity": 80,
                "duration": 0.1681818,
                "tempo": 120.0
            },
            {
                "start_time": 52.8818182,
                "end_time": 53.8477273,
                "pitch": 33,
                "velocity": 80,
                "duration": 0.9659091,
                "tempo": 120.0
            },
            {
                "start_time": 53.8818182,
                "end_time": 54.2477273,
                "pitch": 33,
                "velocity": 80,
                "duration": 0.3659091,
                "tempo": 120.0
            },
            {
                "start_time": 54.2818182,
                "end_time": 54.4477273,
                "pitch": 40,
                "velocity": 80,
                "duration": 0.1659091,
                "tempo": 120.0
            },
            {
                "start_time": 54.4818182,
                "end_time": 55.6636364,
                "pitch": 38,
                "velocity": 80,
                "duration": 1.1818182,
                "tempo": 120.0
            },
            {
                "start_time": 55.7,
                "end_time": 56.2704545,
                "pitch": 38,
                "velocity": 80,
                "duration": 0.5704545,
                "tempo": 120.0
            },
            {
                "start_time": 56.3045455,
                "end_time": 57.6704545,
                "pitch": 40,
                "velocity": 80,
                "duration": 1.3659091,
                "tempo": 120.0
            },
            {
                "start_time": 57.7045455,
                "end_time": 59.2909091,
                "pitch": 43,
                "velocity": 80,
                "duration": 1.5863636,
                "tempo": 120.0
            },
            {
                "start_time": 59.325,
                "end_time": 59.4931818,
                "pitch": 47,
                "velocity": 80,
                "duration": 0.1681818,
                "tempo": 120.0
            },
            {
                "start_time": 59.7318182,
                "end_time": 60.9136364,
                "pitch": 45,
                "velocity": 80,
                "duration": 1.1818182,
                "tempo": 120.0
            },
            {
                "start_time": 60.9477273,
                "end_time": 62.7363636,
                "pitch": 40,
                "velocity": 80,
                "duration": 1.7886364,
                "tempo": 120.0
            },
            {
                "start_time": 62.7727273,
                "end_time": 63.4068182,
                "pitch": 39,
                "velocity": 80,
                "duration": 0.6340909,
                "tempo": 120.0
            },
            {
                "start_time": 63.4431818,
                "end_time": 64.3022727,
                "pitch": 40,
                "velocity": 80,
                "duration": 0.8590909,
                "tempo": 120.0
            },
            {
                "start_time": 64.3386364,
                "end_time": 65.7454545,
                "pitch": 35,
                "velocity": 80,
                "duration": 1.4068182,
                "tempo": 120.0
            },
            {
                "start_time": 65.7818182,
                "end_time": 66.1522727,
                "pitch": 38,
                "velocity": 80,
                "duration": 0.3704545,
                "tempo": 120.0
            },
            {
                "start_time": 66.1863636,
                "end_time": 66.9522727,
                "pitch": 36,
                "velocity": 80,
                "duration": 0.7659091,
                "tempo": 120.0
            },
            {
                "start_time": 66.9863636,
                "end_time": 67.5522727,
                "pitch": 38,
                "velocity": 80,
                "duration": 0.5659091,
                "tempo": 120.0
            },
            {
                "start_time": 67.5863636,
                "end_time": 69.3727273,
                "pitch": 40,
                "velocity": 80,
                "duration": 1.7863636,
                "tempo": 120.0
            },
            {
                "start_time": 69.4068182,
                "end_time": 69.9727273,
                "pitch": 39,
                "velocity": 80,
                "duration": 0.5659091,
                "tempo": 120.0
            },
            {
                "start_time": 70.0068182,
                "end_time": 70.9727273,
                "pitch": 40,
                "velocity": 80,
                "duration": 0.9659091,
                "tempo": 120.0
            },
            {
                "start_time": 71.0068182,
                "end_time": 71.7840909,
                "pitch": 35,
                "velocity": 80,
                "duration": 0.7772727,
                "tempo": 120.0
            },
            {
                "start_time": 71.8181818,
                "end_time": 72.3909091,
                "pitch": 35,
                "velocity": 80,
                "duration": 0.5727273,
                "tempo": 120.0
            },
            {
                "start_time": 72.4272727,
                "end_time": 73.9954545,
                "pitch": 33,
                "velocity": 80,
                "duration": 1.5681818,
                "tempo": 120.0
            },
            {
                "start_time": 74.0295455,
                "end_time": 77.2159091,
                "pitch": 38,
                "velocity": 80,
                "duration": 3.1863636,
                "tempo": 120.0
            },
            {
                "start_time": 77.25,
                "end_time": 77.8159091,
                "pitch": 40,
                "velocity": 80,
                "duration": 0.5659091,
                "tempo": 120.0
            },
            {
                "start_time": 77.85,
                "end_time": 80.2318182,
                "pitch": 43,
                "velocity": 80,
                "duration": 2.3818182,
                "tempo": 120.0
            },
            {
                "start_time": 80.6727273,
                "end_time": 82.0568182,
                "pitch": 41,
                "velocity": 80,
                "duration": 1.3840909,
                "tempo": 120.0
            },
            {
                "start_time": 82.0909091,
                "end_time": 83.6772727,
                "pitch": 43,
                "velocity": 80,
                "duration": 1.5863636,
                "tempo": 120.0
            },
            {
                "start_time": 83.7136364,
                "end_time": 86.0659091,
                "pitch": 45,
                "velocity": 80,
                "duration": 2.3522727,
                "tempo": 120.0
            },
            {
                "start_time": 86.8772727,
                "end_time": 87.2136364,
                "pitch": 45,
                "velocity": 80,
                "duration": 0.3363636,
                "tempo": 120.0
            },
            {
                "start_time": 87.2454545,
                "end_time": 87.3954545,
                "pitch": 55,
                "velocity": 80,
                "duration": 0.15,
                "tempo": 120.0
            },
            {
                "start_time": 87.4272727,
                "end_time": 87.5795455,
                "pitch": 57,
                "velocity": 80,
                "duration": 0.1522727,
                "tempo": 120.0
            },
            {
                "start_time": 87.6090909,
                "end_time": 87.7613636,
                "pitch": 52,
                "velocity": 80,
                "duration": 0.1522727,
                "tempo": 120.0
            },
            {
                "start_time": 87.7931818,
                "end_time": 87.9454545,
                "pitch": 55,
                "velocity": 80,
                "duration": 0.1522727,
                "tempo": 120.0
            },
            {
                "start_time": 87.975,
                "end_time": 88.1272727,
                "pitch": 48,
                "velocity": 80,
                "duration": 0.1522727,
                "tempo": 120.0
            },
            {
                "start_time": 88.3431818,
                "end_time": 88.7090909,
                "pitch": 45,
                "velocity": 80,
                "duration": 0.3659091,
                "tempo": 120.0
            },
            {
                "start_time": 88.7431818,
                "end_time": 88.9090909,
                "pitch": 50,
                "velocity": 80,
                "duration": 0.1659091,
                "tempo": 120.0
            },
            {
                "start_time": 88.9431818,
                "end_time": 89.1090909,
                "pitch": 52,
                "velocity": 80,
                "duration": 0.1659091,
                "tempo": 120.0
            },
            {
                "start_time": 89.1431818,
                "end_time": 89.3090909,
                "pitch": 48,
                "velocity": 80,
                "duration": 0.1659091,
                "tempo": 120.0
            },
            {
                "start_time": 89.3431818,
                "end_time": 89.5090909,
                "pitch": 50,
                "velocity": 80,
                "duration": 0.1659091,
                "tempo": 120.0
            },
            {
                "start_time": 89.5431818,
                "end_time": 89.7090909,
                "pitch": 47,
                "velocity": 80,
                "duration": 0.1659091,
                "tempo": 120.0
            },
            {
                "start_time": 89.9431818,
                "end_time": 90.3136364,
                "pitch": 45,
                "velocity": 80,
                "duration": 0.3704545,
                "tempo": 120.0
            },
            {
                "start_time": 90.3477273,
                "end_time": 90.5159091,
                "pitch": 43,
                "velocity": 80,
                "duration": 0.1681818,
                "tempo": 120.0
            },
            {
                "start_time": 90.55,
                "end_time": 90.7181818,
                "pitch": 45,
                "velocity": 80,
                "duration": 0.1681818,
                "tempo": 120.0
            },
            {
                "start_time": 90.7522727,
                "end_time": 90.9227273,
                "pitch": 40,
                "velocity": 80,
                "duration": 0.1704545,
                "tempo": 120.0
            },
            {
                "start_time": 90.9568182,
                "end_time": 91.125,
                "pitch": 43,
                "velocity": 80,
                "duration": 0.1681818,
                "tempo": 120.0
            },
            {
                "start_time": 91.1590909,
                "end_time": 91.3272727,
                "pitch": 36,
                "velocity": 80,
                "duration": 0.1681818,
                "tempo": 120.0
            },
            {
                "start_time": 91.5636364,
                "end_time": 92.5295455,
                "pitch": 33,
                "velocity": 80,
                "duration": 0.9659091,
                "tempo": 120.0
            },
            {
                "start_time": 92.9636364,
                "end_time": 93.1295455,
                "pitch": 33,
                "velocity": 80,
                "duration": 0.1659091,
                "tempo": 120.0
            },
            {
                "start_time": 93.1636364,
                "end_time": 93.3318182,
                "pitch": 33,
                "velocity": 80,
                "duration": 0.1681818,
                "tempo": 120.0
            },
            {
                "start_time": 94.7863636,
                "end_time": 94.9522727,
                "pitch": 33,
                "velocity": 80,
                "duration": 0.1659091,
                "tempo": 120.0
            },
            {
                "start_time": 95.1863636,
                "end_time": 95.3522727,
                "pitch": 33,
                "velocity": 80,
                "duration": 0.1659091,
                "tempo": 120.0
            },
            {
                "start_time": 95.3863636,
                "end_time": 95.5522727,
                "pitch": 45,
                "velocity": 80,
                "duration": 0.1659091,
                "tempo": 120.0
            },
            {
                "start_time": 95.5863636,
                "end_time": 95.7522727,
                "pitch": 33,
                "velocity": 80,
                "duration": 0.1659091,
                "tempo": 120.0
            },
            {
                "start_time": 96.3863636,
                "end_time": 96.5522727,
                "pitch": 33,
                "velocity": 80,
                "duration": 0.1659091,
                "tempo": 120.0
            },
            {
                "start_time": 96.7863636,
                "end_time": 96.9522727,
                "pitch": 33,
                "velocity": 80,
                "duration": 0.1659091,
                "tempo": 120.0
            },
            {
                "start_time": 96.9863636,
                "end_time": 97.1522727,
                "pitch": 33,
                "velocity": 80,
                "duration": 0.1659091,
                "tempo": 120.0
            },
            {
                "start_time": 97.3863636,
                "end_time": 97.7522727,
                "pitch": 33,
                "velocity": 80,
                "duration": 0.3659091,
                "tempo": 120.0
            },
            {
                "start_time": 97.7863636,
                "end_time": 97.9522727,
                "pitch": 35,
                "velocity": 80,
                "duration": 0.1659091,
                "tempo": 120.0
            },
            {
                "start_time": 97.9863636,
                "end_time": 98.9659091,
                "pitch": 36,
                "velocity": 80,
                "duration": 0.9795455,
                "tempo": 120.0
            },
            {
                "start_time": 99.4045455,
                "end_time": 99.5727273,
                "pitch": 36,
                "velocity": 80,
                "duration": 0.1681818,
                "tempo": 120.0
            },
            {
                "start_time": 99.6068182,
                "end_time": 99.775,
                "pitch": 36,
                "velocity": 80,
                "duration": 0.1681818,
                "tempo": 120.0
            },
            {
                "start_time": 101.2295455,
                "end_time": 102.7954545,
                "pitch": 38,
                "velocity": 80,
                "duration": 1.5659091,
                "tempo": 120.0
            },
            {
                "start_time": 102.8295455,
                "end_time": 102.9954545,
                "pitch": 38,
                "velocity": 80,
                "duration": 0.1659091,
                "tempo": 120.0
            },
            {
                "start_time": 103.2295455,
                "end_time": 103.3954545,
                "pitch": 38,
                "velocity": 80,
                "duration": 0.1659091,
                "tempo": 120.0
            },
            {
                "start_time": 103.4295455,
                "end_time": 103.5954545,
                "pitch": 43,
                "velocity": 80,
                "duration": 0.1659091,
                "tempo": 120.0
            },
            {
                "start_time": 103.6295455,
                "end_time": 103.7954545,
                "pitch": 38,
                "velocity": 80,
                "duration": 0.1659091,
                "tempo": 120.0
            },
            {
                "start_time": 104.6318182,
                "end_time": 104.8,
                "pitch": 43,
                "velocity": 80,
                "duration": 0.1681818,
                "tempo": 120.0
            },
            {
                "start_time": 104.8340909,
                "end_time": 105.0022727,
                "pitch": 45,
                "velocity": 80,
                "duration": 0.1681818,
                "tempo": 120.0
            },
            {
                "start_time": 105.0363636,
                "end_time": 105.2045455,
                "pitch": 40,
                "velocity": 80,
                "duration": 0.1681818,
                "tempo": 120.0
            },
            {
                "start_time": 105.2409091,
                "end_time": 105.4090909,
                "pitch": 43,
                "velocity": 80,
                "duration": 0.1681818,
                "tempo": 120.0
            },
            {
                "start_time": 105.6454545,
                "end_time": 105.8136364,
                "pitch": 36,
                "velocity": 80,
                "duration": 0.1681818,
                "tempo": 120.0
            },
            {
                "start_time": 106.0522727,
                "end_time": 107.4181818,
                "pitch": 33,
                "velocity": 80,
                "duration": 1.3659091,
                "tempo": 120.0
            },
            {
                "start_time": 107.4522727,
                "end_time": 107.8181818,
                "pitch": 33,
                "velocity": 80,
                "duration": 0.3659091,
                "tempo": 120.0
            },
            {
                "start_time": 109.2522727,
                "end_time": 109.4204545,
                "pitch": 33,
                "velocity": 80,
                "duration": 0.1681818,
                "tempo": 120.0
            },
            {
                "start_time": 109.6568182,
                "end_time": 109.825,
                "pitch": 33,
                "velocity": 80,
                "duration": 0.1681818,
                "tempo": 120.0
            },
            {
                "start_time": 109.8590909,
                "end_time": 110.0272727,
                "pitch": 36,
                "velocity": 80,
                "duration": 0.1681818,
                "tempo": 120.0
            },
            {
                "start_time": 110.0613636,
                "end_time": 110.2295455,
                "pitch": 33,
                "velocity": 80,
                "duration": 0.1681818,
                "tempo": 120.0
            },
            {
                "start_time": 110.8727273,
                "end_time": 111.0386364,
                "pitch": 33,
                "velocity": 80,
                "duration": 0.1659091,
                "tempo": 120.0
            },
            {
                "start_time": 111.2727273,
                "end_time": 111.4386364,
                "pitch": 33,
                "velocity": 80,
                "duration": 0.1659091,
                "tempo": 120.0
            },
            {
                "start_time": 111.4727273,
                "end_time": 111.6386364,
                "pitch": 33,
                "velocity": 80,
                "duration": 0.1659091,
                "tempo": 120.0
            },
            {
                "start_time": 112.2727273,
                "end_time": 112.4386364,
                "pitch": 35,
                "velocity": 80,
                "duration": 0.1659091,
                "tempo": 120.0
            },
            {
                "start_time": 112.4727273,
                "end_time": 114.0386364,
                "pitch": 36,
                "velocity": 80,
                "duration": 1.5659091,
                "tempo": 120.0
            },
            {
                "start_time": 114.0727273,
                "end_time": 114.2409091,
                "pitch": 36,
                "velocity": 80,
                "duration": 0.1681818,
                "tempo": 120.0
            },
            {
                "start_time": 115.6954545,
                "end_time": 117.2590909,
                "pitch": 38,
                "velocity": 80,
                "duration": 1.5636364,
                "tempo": 120.0
            },
            {
                "start_time": 117.2931818,
                "end_time": 117.4613636,
                "pitch": 38,
                "velocity": 80,
                "duration": 0.1681818,
                "tempo": 120.0
            },
            {
                "start_time": 117.7,
                "end_time": 117.8681818,
                "pitch": 38,
                "velocity": 80,
                "duration": 0.1681818,
                "tempo": 120.0
            },
            {
                "start_time": 117.9022727,
                "end_time": 118.6795455,
                "pitch": 43,
                "velocity": 80,
                "duration": 0.7772727,
                "tempo": 120.0
            },
            {
                "start_time": 119.1159091,
                "end_time": 119.2818182,
                "pitch": 43,
                "velocity": 80,
                "duration": 0.1659091,
                "tempo": 120.0
            },
            {
                "start_time": 119.3159091,
                "end_time": 119.4818182,
                "pitch": 45,
                "velocity": 80,
                "duration": 0.1659091,
                "tempo": 120.0
            },
            {
                "start_time": 119.5159091,
                "end_time": 119.6818182,
                "pitch": 40,
                "velocity": 80,
                "duration": 0.1659091,
                "tempo": 120.0
            },
            {
                "start_time": 119.7159091,
                "end_time": 119.8818182,
                "pitch": 43,
                "velocity": 80,
                "duration": 0.1659091,
                "tempo": 120.0
            },
            {
                "start_time": 120.1159091,
                "end_time": 120.2818182,
                "pitch": 36,
                "velocity": 80,
                "duration": 0.1659091,
                "tempo": 120.0
            },
            {
                "start_time": 120.5159091,
                "end_time": 122.125,
                "pitch": 33,
                "velocity": 80,
                "duration": 1.6090909,
                "tempo": 120.0
            },
            {
                "start_time": 122.1590909,
                "end_time": 122.325,
                "pitch": 33,
                "velocity": 80,
                "duration": 0.1659091,
                "tempo": 120.0
            },
            {
                "start_time": 122.5590909,
                "end_time": 122.725,
                "pitch": 33,
                "velocity": 80,
                "duration": 0.1659091,
                "tempo": 120.0
            },
            {
                "start_time": 122.7590909,
                "end_time": 122.925,
                "pitch": 33,
                "velocity": 80,
                "duration": 0.1659091,
                "tempo": 120.0
            },
            {
                "start_time": 123.7590909,
                "end_time": 123.925,
                "pitch": 33,
                "velocity": 80,
                "duration": 0.1659091,
                "tempo": 120.0
            },
            {
                "start_time": 125.3590909,
                "end_time": 125.5272727,
                "pitch": 33,
                "velocity": 80,
                "duration": 0.1681818,
                "tempo": 120.0
            },
            {
                "start_time": 126.3727273,
                "end_time": 126.7431818,
                "pitch": 33,
                "velocity": 80,
                "duration": 0.3704545,
                "tempo": 120.0
            },
            {
                "start_time": 126.7772727,
                "end_time": 126.9454545,
                "pitch": 35,
                "velocity": 80,
                "duration": 0.1681818,
                "tempo": 120.0
            },
            {
                "start_time": 126.9795455,
                "end_time": 128.3477273,
                "pitch": 36,
                "velocity": 80,
                "duration": 1.3681818,
                "tempo": 120.0
            },
            {
                "start_time": 128.3818182,
                "end_time": 128.7477273,
                "pitch": 36,
                "velocity": 80,
                "duration": 0.3659091,
                "tempo": 120.0
            },
            {
                "start_time": 129.7954545,
                "end_time": 129.9659091,
                "pitch": 36,
                "velocity": 80,
                "duration": 0.1704545,
                "tempo": 120.0
            },
            {
                "start_time": 130.2022727,
                "end_time": 131.7681818,
                "pitch": 38,
                "velocity": 80,
                "duration": 1.5659091,
                "tempo": 120.0
            },
            {
                "start_time": 131.8022727,
                "end_time": 131.9681818,
                "pitch": 38,
                "velocity": 80,
                "duration": 0.1659091,
                "tempo": 120.0
            },
            {
                "start_time": 132.2022727,
                "end_time": 133.5704545,
                "pitch": 40,
                "velocity": 80,
                "duration": 1.3681818,
                "tempo": 120.0
            },
            {
                "start_time": 133.6045455,
                "end_time": 133.7727273,
                "pitch": 43,
                "velocity": 80,
                "duration": 0.1681818,
                "tempo": 120.0
            },
            {
                "start_time": 133.8068182,
                "end_time": 133.975,
                "pitch": 45,
                "velocity": 80,
                "duration": 0.1681818,
                "tempo": 120.0
            },
            {
                "start_time": 134.0090909,
                "end_time": 134.1772727,
                "pitch": 40,
                "velocity": 80,
                "duration": 0.1681818,
                "tempo": 120.0
            },
            {
                "start_time": 134.2136364,
                "end_time": 134.3818182,
                "pitch": 43,
                "velocity": 80,
                "duration": 0.1681818,
                "tempo": 120.0
            },
            {
                "start_time": 134.6181818,
                "end_time": 134.7863636,
                "pitch": 36,
                "velocity": 80,
                "duration": 0.1681818,
                "tempo": 120.0
            },
            {
                "start_time": 135.0227273,
                "end_time": 136.5886364,
                "pitch": 33,
                "velocity": 80,
                "duration": 1.5659091,
                "tempo": 120.0
            },
            {
                "start_time": 136.625,
                "end_time": 136.7931818,
                "pitch": 33,
                "velocity": 80,
                "duration": 0.1681818,
                "tempo": 120.0
            },
            {
                "start_time": 138.2659091,
                "end_time": 138.4318182,
                "pitch": 33,
                "velocity": 80,
                "duration": 0.1659091,
                "tempo": 120.0
            },
            {
                "start_time": 138.6659091,
                "end_time": 138.8318182,
                "pitch": 33,
                "velocity": 80,
                "duration": 0.1659091,
                "tempo": 120.0
            },
            {
                "start_time": 138.8659091,
                "end_time": 139.0318182,
                "pitch": 33,
                "velocity": 80,
                "duration": 0.1659091,
                "tempo": 120.0
            },
            {
                "start_time": 139.8659091,
                "end_time": 140.8340909,
                "pitch": 33,
                "velocity": 80,
                "duration": 0.9681818,
                "tempo": 120.0
            },
            {
                "start_time": 140.8681818,
                "end_time": 141.2340909,
                "pitch": 33,
                "velocity": 80,
                "duration": 0.3659091,
                "tempo": 120.0
            },
            {
                "start_time": 141.2681818,
                "end_time": 141.4318182,
                "pitch": 40,
                "velocity": 80,
                "duration": 0.1636364,
                "tempo": 120.0
            },
            {
                "start_time": 141.4659091,
                "end_time": 142.6477273,
                "pitch": 38,
                "velocity": 80,
                "duration": 1.1818182,
                "tempo": 120.0
            },
            {
                "start_time": 142.6818182,
                "end_time": 143.2545455,
                "pitch": 38,
                "velocity": 80,
                "duration": 0.5727273,
                "tempo": 120.0
            },
            {
                "start_time": 143.2886364,
                "end_time": 144.6545455,
                "pitch": 40,
                "velocity": 80,
                "duration": 1.3659091,
                "tempo": 120.0
            },
            {
                "start_time": 144.6886364,
                "end_time": 146.275,
                "pitch": 43,
                "velocity": 80,
                "duration": 1.5863636,
                "tempo": 120.0
            },
            {
                "start_time": 146.3090909,
                "end_time": 146.4772727,
                "pitch": 47,
                "velocity": 80,
                "duration": 0.1681818,
                "tempo": 120.0
            },
            {
                "start_time": 146.7159091,
                "end_time": 147.8977273,
                "pitch": 45,
                "velocity": 80,
                "duration": 1.1818182,
                "tempo": 120.0
            },
            {
                "start_time": 147.9318182,
                "end_time": 149.6977273,
                "pitch": 40,
                "velocity": 80,
                "duration": 1.7659091,
                "tempo": 120.0
            },
            {
                "start_time": 149.7318182,
                "end_time": 150.3659091,
                "pitch": 39,
                "velocity": 80,
                "duration": 0.6340909,
                "tempo": 120.0
            },
            {
                "start_time": 150.4045455,
                "end_time": 151.2613636,
                "pitch": 40,
                "velocity": 80,
                "duration": 0.8568182,
                "tempo": 120.0
            },
            {
                "start_time": 151.3,
                "end_time": 152.7068182,
                "pitch": 35,
                "velocity": 80,
                "duration": 1.4068182,
                "tempo": 120.0
            },
            {
                "start_time": 152.7409091,
                "end_time": 153.1113636,
                "pitch": 38,
                "velocity": 80,
                "duration": 0.3704545,
                "tempo": 120.0
            },
            {
                "start_time": 153.1477273,
                "end_time": 153.9136364,
                "pitch": 36,
                "velocity": 80,
                "duration": 0.7659091,
                "tempo": 120.0
            },
            {
                "start_time": 153.9454545,
                "end_time": 154.5136364,
                "pitch": 38,
                "velocity": 80,
                "duration": 0.5681818,
                "tempo": 120.0
            },
            {
                "start_time": 154.5454545,
                "end_time": 156.3136364,
                "pitch": 40,
                "velocity": 80,
                "duration": 1.7681818,
                "tempo": 120.0
            },
            {
                "start_time": 156.3454545,
                "end_time": 156.9136364,
                "pitch": 39,
                "velocity": 80,
                "duration": 0.5681818,
                "tempo": 120.0
            },
            {
                "start_time": 156.9454545,
                "end_time": 157.9136364,
                "pitch": 40,
                "velocity": 80,
                "duration": 0.9681818,
                "tempo": 120.0
            },
            {
                "start_time": 157.9454545,
                "end_time": 158.7227273,
                "pitch": 35,
                "velocity": 80,
                "duration": 0.7772727,
                "tempo": 120.0
            },
            {
                "start_time": 158.7568182,
                "end_time": 159.3318182,
                "pitch": 35,
                "velocity": 80,
                "duration": 0.575,
                "tempo": 120.0
            },
            {
                "start_time": 159.3659091,
                "end_time": 160.9340909,
                "pitch": 33,
                "velocity": 80,
                "duration": 1.5681818,
                "tempo": 120.0
            },
            {
                "start_time": 160.9681818,
                "end_time": 164.1568182,
                "pitch": 38,
                "velocity": 80,
                "duration": 3.1886364,
                "tempo": 120.0
            },
            {
                "start_time": 164.1886364,
                "end_time": 164.7568182,
                "pitch": 40,
                "velocity": 80,
                "duration": 0.5681818,
                "tempo": 120.0
            },
            {
                "start_time": 164.7886364,
                "end_time": 167.1568182,
                "pitch": 43,
                "velocity": 80,
                "duration": 2.3681818,
                "tempo": 120.0
            },
            {
                "start_time": 167.5886364,
                "end_time": 168.975,
                "pitch": 41,
                "velocity": 80,
                "duration": 1.3863636,
                "tempo": 120.0
            },
            {
                "start_time": 169.0090909,
                "end_time": 170.5954545,
                "pitch": 43,
                "velocity": 80,
                "duration": 1.5863636,
                "tempo": 120.0
            },
            {
                "start_time": 170.6295455,
                "end_time": 172.9840909,
                "pitch": 45,
                "velocity": 80,
                "duration": 2.3545455,
                "tempo": 120.0
            },
            {
                "start_time": 173.7954545,
                "end_time": 174.1318182,
                "pitch": 45,
                "velocity": 80,
                "duration": 0.3363636,
                "tempo": 120.0
            },
            {
                "start_time": 174.1613636,
                "end_time": 174.3136364,
                "pitch": 55,
                "velocity": 80,
                "duration": 0.1522727,
                "tempo": 120.0
            },
            {
                "start_time": 174.3454545,
                "end_time": 174.4977273,
                "pitch": 57,
                "velocity": 80,
                "duration": 0.1522727,
                "tempo": 120.0
            },
            {
                "start_time": 174.5272727,
                "end_time": 174.6795455,
                "pitch": 52,
                "velocity": 80,
                "duration": 0.1522727,
                "tempo": 120.0
            },
            {
                "start_time": 174.7113636,
                "end_time": 174.8636364,
                "pitch": 55,
                "velocity": 80,
                "duration": 0.1522727,
                "tempo": 120.0
            },
            {
                "start_time": 174.8931818,
                "end_time": 175.0454545,
                "pitch": 48,
                "velocity": 80,
                "duration": 0.1522727,
                "tempo": 120.0
            },
            {
                "start_time": 175.2590909,
                "end_time": 175.6272727,
                "pitch": 45,
                "velocity": 80,
                "duration": 0.3681818,
                "tempo": 120.0
            },
            {
                "start_time": 175.6590909,
                "end_time": 175.8272727,
                "pitch": 50,
                "velocity": 80,
                "duration": 0.1681818,
                "tempo": 120.0
            },
            {
                "start_time": 175.8590909,
                "end_time": 176.0272727,
                "pitch": 52,
                "velocity": 80,
                "duration": 0.1681818,
                "tempo": 120.0
            },
            {
                "start_time": 176.0590909,
                "end_time": 176.2272727,
                "pitch": 48,
                "velocity": 80,
                "duration": 0.1681818,
                "tempo": 120.0
            },
            {
                "start_time": 176.2590909,
                "end_time": 176.4272727,
                "pitch": 50,
                "velocity": 80,
                "duration": 0.1681818,
                "tempo": 120.0
            },
            {
                "start_time": 176.4590909,
                "end_time": 176.6272727,
                "pitch": 47,
                "velocity": 80,
                "duration": 0.1681818,
                "tempo": 120.0
            },
            {
                "start_time": 176.8590909,
                "end_time": 177.2272727,
                "pitch": 45,
                "velocity": 80,
                "duration": 0.3681818,
                "tempo": 120.0
            },
            {
                "start_time": 177.2590909,
                "end_time": 177.4272727,
                "pitch": 43,
                "velocity": 80,
                "duration": 0.1681818,
                "tempo": 120.0
            },
            {
                "start_time": 177.4590909,
                "end_time": 177.6272727,
                "pitch": 45,
                "velocity": 80,
                "duration": 0.1681818,
                "tempo": 120.0
            },
            {
                "start_time": 177.6590909,
                "end_time": 177.8272727,
                "pitch": 40,
                "velocity": 80,
                "duration": 0.1681818,
                "tempo": 120.0
            },
            {
                "start_time": 177.8590909,
                "end_time": 178.0272727,
                "pitch": 43,
                "velocity": 80,
                "duration": 0.1681818,
                "tempo": 120.0
            },
            {
                "start_time": 178.0590909,
                "end_time": 178.2272727,
                "pitch": 36,
                "velocity": 80,
                "duration": 0.1681818,
                "tempo": 120.0
            },
            {
                "start_time": 178.4590909,
                "end_time": 179.4272727,
                "pitch": 33,
                "velocity": 80,
                "duration": 0.9681818,
                "tempo": 120.0
            }
        ],
        "Harpsichord": [
            {
                "start_time": 0.2090909,
                "end_time": 0.4954545,
                "pitch": 77,
                "velocity": 64,
                "duration": 0.2863636,
                "tempo": 120.0
            },
            {
                "start_time": 0.5181818,
                "end_time": 1.0818182,
                "pitch": 75,
                "velocity": 64,
                "duration": 0.5636364,
                "tempo": 120.0
            },
            {
                "start_time": 1.1181818,
                "end_time": 1.2818182,
                "pitch": 74,
                "velocity": 64,
                "duration": 0.1636364,
                "tempo": 120.0
            },
            {
                "start_time": 1.3181818,
                "end_time": 1.4818182,
                "pitch": 74,
                "velocity": 64,
                "duration": 0.1636364,
                "tempo": 120.0
            },
            {
                "start_time": 2.3181818,
                "end_time": 3.1886364,
                "pitch": 74,
                "velocity": 64,
                "duration": 0.8704545,
                "tempo": 120.0
            },
            {
                "start_time": 5.5022727,
                "end_time": 5.9613636,
                "pitch": 74,
                "velocity": 64,
                "duration": 0.4590909,
                "tempo": 120.0
            },
            {
                "start_time": 5.9613636,
                "end_time": 6.3454545,
                "pitch": 74,
                "velocity": 64,
                "duration": 0.3840909,
                "tempo": 120.0
            },
            {
                "start_time": 6.3818182,
                "end_time": 7.1454545,
                "pitch": 74,
                "velocity": 64,
                "duration": 0.7636364,
                "tempo": 120.0
            },
            {
                "start_time": 7.1818182,
                "end_time": 7.7454545,
                "pitch": 71,
                "velocity": 64,
                "duration": 0.5636364,
                "tempo": 120.0
            },
            {
                "start_time": 7.7818182,
                "end_time": 8.3545455,
                "pitch": 74,
                "velocity": 64,
                "duration": 0.5727273,
                "tempo": 120.0
            },
            {
                "start_time": 12.0045455,
                "end_time": 12.5681818,
                "pitch": 74,
                "velocity": 64,
                "duration": 0.5636364,
                "tempo": 120.0
            },
            {
                "start_time": 12.6022727,
                "end_time": 14.5886364,
                "pitch": 78,
                "velocity": 64,
                "duration": 1.9863636,
                "tempo": 120.0
            },
            {
                "start_time": 15.225,
                "end_time": 15.7886364,
                "pitch": 81,
                "velocity": 64,
                "duration": 0.5636364,
                "tempo": 120.0
            },
            {
                "start_time": 15.825,
                "end_time": 16.3886364,
                "pitch": 81,
                "velocity": 64,
                "duration": 0.5636364,
                "tempo": 120.0
            },
            {
                "start_time": 16.425,
                "end_time": 16.9886364,
                "pitch": 74,
                "velocity": 64,
                "duration": 0.5636364,
                "tempo": 120.0
            },
            {
                "start_time": 17.025,
                "end_time": 17.5909091,
                "pitch": 74,
                "velocity": 64,
                "duration": 0.5659091,
                "tempo": 120.0
            },
            {
                "start_time": 17.6272727,
                "end_time": 17.7954545,
                "pitch": 67,
                "velocity": 64,
                "duration": 0.1681818,
                "tempo": 120.0
            },
            {
                "start_time": 17.8295455,
                "end_time": 17.9977273,
                "pitch": 69,
                "velocity": 64,
                "duration": 0.1681818,
                "tempo": 120.0
            },
            {
                "start_time": 18.0340909,
                "end_time": 18.2,
                "pitch": 64,
                "velocity": 64,
                "duration": 0.1659091,
                "tempo": 120.0
            },
            {
                "start_time": 18.2363636,
                "end_time": 18.4022727,
                "pitch": 67,
                "velocity": 64,
                "duration": 0.1659091,
                "tempo": 120.0
            },
            {
                "start_time": 18.6409091,
                "end_time": 18.8068182,
                "pitch": 60,
                "velocity": 64,
                "duration": 0.1659091,
                "tempo": 120.0
            },
            {
                "start_time": 19.0454545,
                "end_time": 20.0113636,
                "pitch": 57,
                "velocity": 64,
                "duration": 0.9659091,
                "tempo": 120.0
            },
            {
                "start_time": 20.0454545,
                "end_time": 20.8113636,
                "pitch": 74,
                "velocity": 64,
                "duration": 0.7659091,
                "tempo": 120.0
            },
            {
                "start_time": 20.8477273,
                "end_time": 21.6113636,
                "pitch": 74,
                "velocity": 64,
                "duration": 0.7636364,
                "tempo": 120.0
            },
            {
                "start_time": 21.6454545,
                "end_time": 22.2113636,
                "pitch": 71,
                "velocity": 64,
                "duration": 0.5659091,
                "tempo": 120.0
            },
            {
                "start_time": 22.2477273,
                "end_time": 22.8181818,
                "pitch": 74,
                "velocity": 64,
                "duration": 0.5704545,
                "tempo": 120.0
            },
            {
                "start_time": 26.5022727,
                "end_time": 27.075,
                "pitch": 74,
                "velocity": 64,
                "duration": 0.5727273,
                "tempo": 120.0
            },
            {
                "start_time": 27.1113636,
                "end_time": 29.0818182,
                "pitch": 78,
                "velocity": 64,
                "duration": 1.9704545,
                "tempo": 120.0
            },
            {
                "start_time": 29.725,
                "end_time": 30.2977273,
                "pitch": 81,
                "velocity": 64,
                "duration": 0.5727273,
                "tempo": 120.0
            },
            {
                "start_time": 30.3340909,
                "end_time": 30.4977273,
                "pitch": 81,
                "velocity": 64,
                "duration": 0.1636364,
                "tempo": 120.0
            },
            {
                "start_time": 30.7340909,
                "end_time": 30.8977273,
                "pitch": 74,
                "velocity": 64,
                "duration": 0.1636364,
                "tempo": 120.0
            },
            {
                "start_time": 31.1318182,
                "end_time": 31.8977273,
                "pitch": 74,
                "velocity": 64,
                "duration": 0.7659091,
                "tempo": 120.0
            },
            {
                "start_time": 32.1363636,
                "end_time": 32.3022727,
                "pitch": 67,
                "velocity": 64,
                "duration": 0.1659091,
                "tempo": 120.0
            },
            {
                "start_time": 32.3386364,
                "end_time": 32.5045455,
                "pitch": 69,
                "velocity": 64,
                "duration": 0.1659091,
                "tempo": 120.0
            },
            {
                "start_time": 32.5409091,
                "end_time": 32.7090909,
                "pitch": 64,
                "velocity": 64,
                "duration": 0.1681818,
                "tempo": 120.0
            },
            {
                "start_time": 32.7431818,
                "end_time": 32.9113636,
                "pitch": 67,
                "velocity": 64,
                "duration": 0.1681818,
                "tempo": 120.0
            },
            {
                "start_time": 33.15,
                "end_time": 33.3159091,
                "pitch": 60,
                "velocity": 64,
                "duration": 0.1659091,
                "tempo": 120.0
            },
            {
                "start_time": 33.5545455,
                "end_time": 34.5318182,
                "pitch": 57,
                "velocity": 64,
                "duration": 0.9772727,
                "tempo": 120.0
            },
            {
                "start_time": 34.5681818,
                "end_time": 35.3431818,
                "pitch": 74,
                "velocity": 64,
                "duration": 0.775,
                "tempo": 120.0
            },
            {
                "start_time": 35.3795455,
                "end_time": 36.1545455,
                "pitch": 74,
                "velocity": 64,
                "duration": 0.775,
                "tempo": 120.0
            },
            {
                "start_time": 36.1886364,
                "end_time": 36.7613636,
                "pitch": 71,
                "velocity": 64,
                "duration": 0.5727273,
                "tempo": 120.0
            },
            {
                "start_time": 36.7977273,
                "end_time": 37.3613636,
                "pitch": 74,
                "velocity": 64,
                "duration": 0.5636364,
                "tempo": 120.0
            },
            {
                "start_time": 41.0318182,
                "end_time": 41.6045455,
                "pitch": 74,
                "velocity": 64,
                "duration": 0.5727273,
                "tempo": 120.0
            },
            {
                "start_time": 41.6409091,
                "end_time": 43.6113636,
                "pitch": 78,
                "velocity": 64,
                "duration": 1.9704545,
                "tempo": 120.0
            },
            {
                "start_time": 44.2545455,
                "end_time": 44.8272727,
                "pitch": 81,
                "velocity": 64,
                "duration": 0.5727273,
                "tempo": 120.0
            },
            {
                "start_time": 44.8636364,
                "end_time": 45.4204545,
                "pitch": 81,
                "velocity": 64,
                "duration": 0.5568182,
                "tempo": 120.0
            },
            {
                "start_time": 45.4545455,
                "end_time": 46.0113636,
                "pitch": 74,
                "velocity": 64,
                "duration": 0.5568182,
                "tempo": 120.0
            },
            {
                "start_time": 46.0454545,
                "end_time": 46.6090909,
                "pitch": 74,
                "velocity": 64,
                "duration": 0.5636364,
                "tempo": 120.0
            },
            {
                "start_time": 46.6431818,
                "end_time": 46.8113636,
                "pitch": 67,
                "velocity": 64,
                "duration": 0.1681818,
                "tempo": 120.0
            },
            {
                "start_time": 46.8454545,
                "end_time": 47.0136364,
                "pitch": 69,
                "velocity": 64,
                "duration": 0.1681818,
                "tempo": 120.0
            },
            {
                "start_time": 47.05,
                "end_time": 47.2159091,
                "pitch": 64,
                "velocity": 64,
                "duration": 0.1659091,
                "tempo": 120.0
            },
            {
                "start_time": 47.2522727,
                "end_time": 47.4181818,
                "pitch": 67,
                "velocity": 64,
                "duration": 0.1659091,
                "tempo": 120.0
            },
            {
                "start_time": 47.6568182,
                "end_time": 47.825,
                "pitch": 60,
                "velocity": 64,
                "duration": 0.1681818,
                "tempo": 120.0
            },
            {
                "start_time": 48.0613636,
                "end_time": 49.0272727,
                "pitch": 57,
                "velocity": 64,
                "duration": 0.9659091,
                "tempo": 120.0
            },
            {
                "start_time": 49.0613636,
                "end_time": 49.8272727,
                "pitch": 74,
                "velocity": 64,
                "duration": 0.7659091,
                "tempo": 120.0
            },
            {
                "start_time": 49.8636364,
                "end_time": 50.6272727,
                "pitch": 74,
                "velocity": 64,
                "duration": 0.7636364,
                "tempo": 120.0
            },
            {
                "start_time": 50.6613636,
                "end_time": 51.2272727,
                "pitch": 71,
                "velocity": 64,
                "duration": 0.5659091,
                "tempo": 120.0
            },
            {
                "start_time": 51.2636364,
                "end_time": 51.8340909,
                "pitch": 74,
                "velocity": 64,
                "duration": 0.5704545,
                "tempo": 120.0
            },
            {
                "start_time": 55.7,
                "end_time": 56.2704545,
                "pitch": 77,
                "velocity": 64,
                "duration": 0.5704545,
                "tempo": 120.0
            },
            {
                "start_time": 56.3068182,
                "end_time": 57.8727273,
                "pitch": 76,
                "velocity": 64,
                "duration": 1.5659091,
                "tempo": 120.0
            },
            {
                "start_time": 58.7181818,
                "end_time": 59.2909091,
                "pitch": 79,
                "velocity": 64,
                "duration": 0.5727273,
                "tempo": 120.0
            },
            {
                "start_time": 59.3272727,
                "end_time": 59.4954545,
                "pitch": 79,
                "velocity": 64,
                "duration": 0.1681818,
                "tempo": 120.0
            },
            {
                "start_time": 59.7340909,
                "end_time": 60.9136364,
                "pitch": 78,
                "velocity": 64,
                "duration": 1.1795455,
                "tempo": 120.0
            },
            {
                "start_time": 60.95,
                "end_time": 63.1818182,
                "pitch": 80,
                "velocity": 64,
                "duration": 2.2318182,
                "tempo": 120.0
            },
            {
                "start_time": 63.2204545,
                "end_time": 63.4068182,
                "pitch": 75,
                "velocity": 64,
                "duration": 0.1863636,
                "tempo": 120.0
            },
            {
                "start_time": 63.4454545,
                "end_time": 63.6295455,
                "pitch": 78,
                "velocity": 64,
                "duration": 0.1840909,
                "tempo": 120.0
            },
            {
                "start_time": 63.8931818,
                "end_time": 64.0772727,
                "pitch": 78,
                "velocity": 64,
                "duration": 0.1840909,
                "tempo": 120.0
            },
            {
                "start_time": 64.3409091,
                "end_time": 66.1522727,
                "pitch": 78,
                "velocity": 64,
                "duration": 1.8113636,
                "tempo": 120.0
            },
            {
                "start_time": 66.1886364,
                "end_time": 66.7522727,
                "pitch": 78,
                "velocity": 64,
                "duration": 0.5636364,
                "tempo": 120.0
            },
            {
                "start_time": 66.7863636,
                "end_time": 67.5522727,
                "pitch": 78,
                "velocity": 64,
                "duration": 0.7659091,
                "tempo": 120.0
            },
            {
                "start_time": 67.5886364,
                "end_time": 69.775,
                "pitch": 78,
                "velocity": 64,
                "duration": 2.1863636,
                "tempo": 120.0
            },
            {
                "start_time": 70.0090909,
                "end_time": 71.7840909,
                "pitch": 80,
                "velocity": 64,
                "duration": 1.775,
                "tempo": 120.0
            },
            {
                "start_time": 71.8204545,
                "end_time": 71.9863636,
                "pitch": 75,
                "velocity": 64,
                "duration": 0.1659091,
                "tempo": 120.0
            },
            {
                "start_time": 72.4295455,
                "end_time": 73.5954545,
                "pitch": 73,
                "velocity": 64,
                "duration": 1.1659091,
                "tempo": 120.0
            },
            {
                "start_time": 73.8295455,
                "end_time": 74.1954545,
                "pitch": 73,
                "velocity": 64,
                "duration": 0.3659091,
                "tempo": 120.0
            },
            {
                "start_time": 74.2295455,
                "end_time": 75.2090909,
                "pitch": 72,
                "velocity": 64,
                "duration": 0.9795455,
                "tempo": 120.0
            },
            {
                "start_time": 75.2431818,
                "end_time": 75.8159091,
                "pitch": 72,
                "velocity": 64,
                "duration": 0.5727273,
                "tempo": 120.0
            },
            {
                "start_time": 75.8522727,
                "end_time": 76.4159091,
                "pitch": 76,
                "velocity": 64,
                "duration": 0.5636364,
                "tempo": 120.0
            },
            {
                "start_time": 76.4522727,
                "end_time": 76.8159091,
                "pitch": 76,
                "velocity": 64,
                "duration": 0.3636364,
                "tempo": 120.0
            },
            {
                "start_time": 76.8522727,
                "end_time": 77.4159091,
                "pitch": 72,
                "velocity": 64,
                "duration": 0.5636364,
                "tempo": 120.0
            },
            {
                "start_time": 77.4522727,
                "end_time": 79.0159091,
                "pitch": 79,
                "velocity": 64,
                "duration": 1.5636364,
                "tempo": 120.0
            },
            {
                "start_time": 79.0522727,
                "end_time": 79.625,
                "pitch": 76,
                "velocity": 64,
                "duration": 0.5727273,
                "tempo": 120.0
            },
            {
                "start_time": 79.6590909,
                "end_time": 80.0295455,
                "pitch": 76,
                "velocity": 64,
                "duration": 0.3704545,
                "tempo": 120.0
            },
            {
                "start_time": 80.0659091,
                "end_time": 80.6386364,
                "pitch": 76,
                "velocity": 64,
                "duration": 0.5727273,
                "tempo": 120.0
            },
            {
                "start_time": 80.675,
                "end_time": 82.0568182,
                "pitch": 79,
                "velocity": 64,
                "duration": 1.3818182,
                "tempo": 120.0
            },
            {
                "start_time": 82.0931818,
                "end_time": 83.6795455,
                "pitch": 81,
                "velocity": 64,
                "duration": 1.5863636,
                "tempo": 120.0
            },
            {
                "start_time": 83.7159091,
                "end_time": 86.8454545,
                "pitch": 83,
                "velocity": 64,
                "duration": 3.1295455,
                "tempo": 120.0
            },
            {
                "start_time": 86.8795455,
                "end_time": 87.0318182,
                "pitch": 86,
                "velocity": 64,
                "duration": 0.1522727,
                "tempo": 120.0
            },
            {
                "start_time": 87.2477273,
                "end_time": 87.3977273,
                "pitch": 67,
                "velocity": 64,
                "duration": 0.15,
                "tempo": 120.0
            },
            {
                "start_time": 87.4295455,
                "end_time": 87.5795455,
                "pitch": 69,
                "velocity": 64,
                "duration": 0.15,
                "tempo": 120.0
            },
            {
                "start_time": 87.6113636,
                "end_time": 87.7613636,
                "pitch": 64,
                "velocity": 64,
                "duration": 0.15,
                "tempo": 120.0
            },
            {
                "start_time": 87.7954545,
                "end_time": 87.9454545,
                "pitch": 67,
                "velocity": 64,
                "duration": 0.15,
                "tempo": 120.0
            },
            {
                "start_time": 87.9772727,
                "end_time": 88.1272727,
                "pitch": 60,
                "velocity": 64,
                "duration": 0.15,
                "tempo": 120.0
            },
            {
                "start_time": 88.3431818,
                "end_time": 88.7090909,
                "pitch": 57,
                "velocity": 64,
                "duration": 0.3659091,
                "tempo": 120.0
            },
            {
                "start_time": 88.7431818,
                "end_time": 88.9090909,
                "pitch": 62,
                "velocity": 64,
                "duration": 0.1659091,
                "tempo": 120.0
            },
            {
                "start_time": 88.9454545,
                "end_time": 89.1090909,
                "pitch": 64,
                "velocity": 64,
                "duration": 0.1636364,
                "tempo": 120.0
            },
            {
                "start_time": 89.1431818,
                "end_time": 89.3090909,
                "pitch": 60,
                "velocity": 64,
                "duration": 0.1659091,
                "tempo": 120.0
            },
            {
                "start_time": 89.3431818,
                "end_time": 89.5090909,
                "pitch": 62,
                "velocity": 64,
                "duration": 0.1659091,
                "tempo": 120.0
            },
            {
                "start_time": 89.5431818,
                "end_time": 89.7090909,
                "pitch": 59,
                "velocity": 64,
                "duration": 0.1659091,
                "tempo": 120.0
            },
            {
                "start_time": 89.9431818,
                "end_time": 90.3136364,
                "pitch": 57,
                "velocity": 64,
                "duration": 0.3704545,
                "tempo": 120.0
            },
            {
                "start_time": 90.35,
                "end_time": 90.5159091,
                "pitch": 55,
                "velocity": 64,
                "duration": 0.1659091,
                "tempo": 120.0
            },
            {
                "start_time": 90.5522727,
                "end_time": 90.7204545,
                "pitch": 57,
                "velocity": 64,
                "duration": 0.1681818,
                "tempo": 120.0
            },
            {
                "start_time": 90.7545455,
                "end_time": 90.9227273,
                "pitch": 52,
                "velocity": 64,
                "duration": 0.1681818,
                "tempo": 120.0
            },
            {
                "start_time": 90.9568182,
                "end_time": 91.125,
                "pitch": 55,
                "velocity": 64,
                "duration": 0.1681818,
                "tempo": 120.0
            },
            {
                "start_time": 91.1613636,
                "end_time": 91.3272727,
                "pitch": 48,
                "velocity": 64,
                "duration": 0.1659091,
                "tempo": 120.0
            },
            {
                "start_time": 91.5659091,
                "end_time": 92.5295455,
                "pitch": 45,
                "velocity": 64,
                "duration": 0.9636364,
                "tempo": 120.0
            },
            {
                "start_time": 92.5659091,
                "end_time": 93.3340909,
                "pitch": 74,
                "velocity": 64,
                "duration": 0.7681818,
                "tempo": 120.0
            },
            {
                "start_time": 93.3704545,
                "end_time": 94.1431818,
                "pitch": 74,
                "velocity": 64,
                "duration": 0.7727273,
                "tempo": 120.0
            },
            {
                "start_time": 94.1795455,
                "end_time": 94.7522727,
                "pitch": 71,
                "velocity": 64,
                "duration": 0.5727273,
                "tempo": 120.0
            },
            {
                "start_time": 94.7886364,
                "end_time": 95.3522727,
                "pitch": 74,
                "velocity": 64,
                "duration": 0.5636364,
                "tempo": 120.0
            },
            {
                "start_time": 99.0022727,
                "end_time": 99.5727273,
                "pitch": 74,
                "velocity": 64,
                "duration": 0.5704545,
                "tempo": 120.0
            },
            {
                "start_time": 99.6090909,
                "end_time": 101.5954545,
                "pitch": 78,
                "velocity": 64,
                "duration": 1.9863636,
                "tempo": 120.0
            },
            {
                "start_time": 102.2318182,
                "end_time": 102.7954545,
                "pitch": 81,
                "velocity": 64,
                "duration": 0.5636364,
                "tempo": 120.0
            },
            {
                "start_time": 102.8318182,
                "end_time": 103.3954545,
                "pitch": 81,
                "velocity": 64,
                "duration": 0.5636364,
                "tempo": 120.0
            },
            {
                "start_time": 103.4318182,
                "end_time": 103.9954545,
                "pitch": 74,
                "velocity": 64,
                "duration": 0.5636364,
                "tempo": 120.0
            },
            {
                "start_time": 104.0295455,
                "end_time": 104.5977273,
                "pitch": 74,
                "velocity": 64,
                "duration": 0.5681818,
                "tempo": 120.0
            },
            {
                "start_time": 104.6340909,
                "end_time": 104.8,
                "pitch": 67,
                "velocity": 64,
                "duration": 0.1659091,
                "tempo": 120.0
            },
            {
                "start_time": 104.8363636,
                "end_time": 105.0045455,
                "pitch": 69,
                "velocity": 64,
                "duration": 0.1681818,
                "tempo": 120.0
            },
            {
                "start_time": 105.0386364,
                "end_time": 105.2068182,
                "pitch": 64,
                "velocity": 64,
                "duration": 0.1681818,
                "tempo": 120.0
            },
            {
                "start_time": 105.2409091,
                "end_time": 105.4090909,
                "pitch": 67,
                "velocity": 64,
                "duration": 0.1681818,
                "tempo": 120.0
            },
            {
                "start_time": 105.6477273,
                "end_time": 105.8136364,
                "pitch": 60,
                "velocity": 64,
                "duration": 0.1659091,
                "tempo": 120.0
            },
            {
                "start_time": 106.0545455,
                "end_time": 107.0181818,
                "pitch": 57,
                "velocity": 64,
                "duration": 0.9636364,
                "tempo": 120.0
            },
            {
                "start_time": 107.0522727,
                "end_time": 107.8181818,
                "pitch": 74,
                "velocity": 64,
                "duration": 0.7659091,
                "tempo": 120.0
            },
            {
                "start_time": 107.8545455,
                "end_time": 108.6181818,
                "pitch": 74,
                "velocity": 64,
                "duration": 0.7636364,
                "tempo": 120.0
            },
            {
                "start_time": 108.6522727,
                "end_time": 109.2181818,
                "pitch": 71,
                "velocity": 64,
                "duration": 0.5659091,
                "tempo": 120.0
            },
            {
                "start_time": 109.2545455,
                "end_time": 109.825,
                "pitch": 74,
                "velocity": 64,
                "duration": 0.5704545,
                "tempo": 120.0
            },
            {
                "start_time": 113.475,
                "end_time": 114.0386364,
                "pitch": 74,
                "velocity": 64,
                "duration": 0.5636364,
                "tempo": 120.0
            },
            {
                "start_time": 114.075,
                "end_time": 116.0613636,
                "pitch": 78,
                "velocity": 64,
                "duration": 1.9863636,
                "tempo": 120.0
            },
            {
                "start_time": 116.6954545,
                "end_time": 117.2613636,
                "pitch": 81,
                "velocity": 64,
                "duration": 0.5659091,
                "tempo": 120.0
            },
            {
                "start_time": 117.2954545,
                "end_time": 117.4636364,
                "pitch": 81,
                "velocity": 64,
                "duration": 0.1681818,
                "tempo": 120.0
            },
            {
                "start_time": 117.7022727,
                "end_time": 117.8681818,
                "pitch": 74,
                "velocity": 64,
                "duration": 0.1659091,
                "tempo": 120.0
            },
            {
                "start_time": 118.1068182,
                "end_time": 118.8818182,
                "pitch": 74,
                "velocity": 64,
                "duration": 0.775,
                "tempo": 120.0
            },
            {
                "start_time": 119.1181818,
                "end_time": 119.2818182,
                "pitch": 67,
                "velocity": 64,
                "duration": 0.1636364,
                "tempo": 120.0
            },
            {
                "start_time": 119.3181818,
                "end_time": 119.4818182,
                "pitch": 69,
                "velocity": 64,
                "duration": 0.1636364,
                "tempo": 120.0
            },
            {
                "start_time": 119.5181818,
                "end_time": 119.6818182,
                "pitch": 64,
                "velocity": 64,
                "duration": 0.1636364,
                "tempo": 120.0
            },
            {
                "start_time": 119.7181818,
                "end_time": 119.8818182,
                "pitch": 67,
                "velocity": 64,
                "duration": 0.1636364,
                "tempo": 120.0
            },
            {
                "start_time": 120.1181818,
                "end_time": 120.2818182,
                "pitch": 60,
                "velocity": 64,
                "duration": 0.1636364,
                "tempo": 120.0
            },
            {
                "start_time": 120.5181818,
                "end_time": 121.5090909,
                "pitch": 57,
                "velocity": 64,
                "duration": 0.9909091,
                "tempo": 120.0
            },
            {
                "start_time": 121.5454545,
                "end_time": 122.325,
                "pitch": 74,
                "velocity": 64,
                "duration": 0.7795455,
                "tempo": 120.0
            },
            {
                "start_time": 122.3613636,
                "end_time": 123.125,
                "pitch": 74,
                "velocity": 64,
                "duration": 0.7636364,
                "tempo": 120.0
            },
            {
                "start_time": 123.1590909,
                "end_time": 123.725,
                "pitch": 71,
                "velocity": 64,
                "duration": 0.5659091,
                "tempo": 120.0
            },
            {
                "start_time": 123.7613636,
                "end_time": 124.325,
                "pitch": 74,
                "velocity": 64,
                "duration": 0.5636364,
                "tempo": 120.0
            },
            {
                "start_time": 127.9818182,
                "end_time": 128.5477273,
                "pitch": 74,
                "velocity": 64,
                "duration": 0.5659091,
                "tempo": 120.0
            },
            {
                "start_time": 128.5818182,
                "end_time": 130.5681818,
                "pitch": 78,
                "velocity": 64,
                "duration": 1.9863636,
                "tempo": 120.0
            },
            {
                "start_time": 131.2045455,
                "end_time": 131.7681818,
                "pitch": 81,
                "velocity": 64,
                "duration": 0.5636364,
                "tempo": 120.0
            },
            {
                "start_time": 131.8045455,
                "end_time": 132.3681818,
                "pitch": 81,
                "velocity": 64,
                "duration": 0.5636364,
                "tempo": 120.0
            },
            {
                "start_time": 132.4022727,
                "end_time": 132.9681818,
                "pitch": 74,
                "velocity": 64,
                "duration": 0.5659091,
                "tempo": 120.0
            },
            {
                "start_time": 133.0022727,
                "end_time": 133.5704545,
                "pitch": 74,
                "velocity": 64,
                "duration": 0.5681818,
                "tempo": 120.0
            },
            {
                "start_time": 133.6068182,
                "end_time": 133.7727273,
                "pitch": 67,
                "velocity": 64,
                "duration": 0.1659091,
                "tempo": 120.0
            },
            {
                "start_time": 133.8090909,
                "end_time": 133.9772727,
                "pitch": 69,
                "velocity": 64,
                "duration": 0.1681818,
                "tempo": 120.0
            },
            {
                "start_time": 134.0113636,
                "end_time": 134.1795455,
                "pitch": 64,
                "velocity": 64,
                "duration": 0.1681818,
                "tempo": 120.0
            },
            {
                "start_time": 134.2136364,
                "end_time": 134.3818182,
                "pitch": 67,
                "velocity": 64,
                "duration": 0.1681818,
                "tempo": 120.0
            },
            {
                "start_time": 134.6204545,
                "end_time": 134.7863636,
                "pitch": 60,
                "velocity": 64,
                "duration": 0.1659091,
                "tempo": 120.0
            },
            {
                "start_time": 135.025,
                "end_time": 135.9909091,
                "pitch": 57,
                "velocity": 64,
                "duration": 0.9659091,
                "tempo": 120.0
            },
            {
                "start_time": 136.025,
                "end_time": 136.7931818,
                "pitch": 74,
                "velocity": 64,
                "duration": 0.7681818,
                "tempo": 120.0
            },
            {
                "start_time": 136.8318182,
                "end_time": 137.6159091,
                "pitch": 74,
                "velocity": 64,
                "duration": 0.7840909,
                "tempo": 120.0
            },
            {
                "start_time": 137.6522727,
                "end_time": 138.2318182,
                "pitch": 71,
                "velocity": 64,
                "duration": 0.5795455,
                "tempo": 120.0
            },
            {
                "start_time": 138.2704545,
                "end_time": 138.8340909,
                "pitch": 74,
                "velocity": 64,
                "duration": 0.5636364,
                "tempo": 120.0
            },
            {
                "start_time": 142.6840909,
                "end_time": 143.2545455,
                "pitch": 77,
                "velocity": 64,
                "duration": 0.5704545,
                "tempo": 120.0
            },
            {
                "start_time": 143.2909091,
                "end_time": 144.8568182,
                "pitch": 76,
                "velocity": 64,
                "duration": 1.5659091,
                "tempo": 120.0
            },
            {
                "start_time": 145.7022727,
                "end_time": 146.275,
                "pitch": 79,
                "velocity": 64,
                "duration": 0.5727273,
                "tempo": 120.0
            },
            {
                "start_time": 146.3113636,
                "end_time": 146.4795455,
                "pitch": 79,
                "velocity": 64,
                "duration": 0.1681818,
                "tempo": 120.0
            },
            {
                "start_time": 146.7159091,
                "end_time": 147.8977273,
                "pitch": 78,
                "velocity": 64,
                "duration": 1.1818182,
                "tempo": 120.0
            },
            {
                "start_time": 147.9340909,
                "end_time": 150.1431818,
                "pitch": 80,
                "velocity": 64,
                "duration": 2.2090909,
                "tempo": 120.0
            },
            {
                "start_time": 150.1818182,
                "end_time": 150.3659091,
                "pitch": 75,
                "velocity": 64,
                "duration": 0.1840909,
                "tempo": 120.0
            },
            {
                "start_time": 150.4068182,
                "end_time": 150.5909091,
                "pitch": 78,
                "velocity": 64,
                "duration": 0.1840909,
                "tempo": 120.0
            },
            {
                "start_time": 150.8522727,
                "end_time": 151.0386364,
                "pitch": 78,
                "velocity": 64,
                "duration": 0.1863636,
                "tempo": 120.0
            },
            {
                "start_time": 151.3022727,
                "end_time": 153.1136364,
                "pitch": 78,
                "velocity": 64,
                "duration": 1.8113636,
                "tempo": 120.0
            },
            {
                "start_time": 153.1477273,
                "end_time": 153.7136364,
                "pitch": 78,
                "velocity": 64,
                "duration": 0.5659091,
                "tempo": 120.0
            },
            {
                "start_time": 153.7477273,
                "end_time": 154.5136364,
                "pitch": 78,
                "velocity": 64,
                "duration": 0.7659091,
                "tempo": 120.0
            },
            {
                "start_time": 154.5477273,
                "end_time": 156.7136364,
                "pitch": 78,
                "velocity": 64,
                "duration": 2.1659091,
                "tempo": 120.0
            },
            {
                "start_time": 156.9477273,
                "end_time": 158.7227273,
                "pitch": 80,
                "velocity": 64,
                "duration": 1.775,
                "tempo": 120.0
            },
            {
                "start_time": 158.7590909,
                "end_time": 158.925,
                "pitch": 75,
                "velocity": 64,
                "duration": 0.1659091,
                "tempo": 120.0
            },
            {
                "start_time": 159.3681818,
                "end_time": 160.5340909,
                "pitch": 73,
                "velocity": 64,
                "duration": 1.1659091,
                "tempo": 120.0
            },
            {
                "start_time": 160.7681818,
                "end_time": 161.1340909,
                "pitch": 73,
                "velocity": 64,
                "duration": 0.3659091,
                "tempo": 120.0
            },
            {
                "start_time": 161.1704545,
                "end_time": 162.1477273,
                "pitch": 72,
                "velocity": 64,
                "duration": 0.9772727,
                "tempo": 120.0
            },
            {
                "start_time": 162.1818182,
                "end_time": 162.7568182,
                "pitch": 72,
                "velocity": 64,
                "duration": 0.575,
                "tempo": 120.0
            },
            {
                "start_time": 162.7909091,
                "end_time": 163.3568182,
                "pitch": 76,
                "velocity": 64,
                "duration": 0.5659091,
                "tempo": 120.0
            },
            {
                "start_time": 163.3909091,
                "end_time": 163.7568182,
                "pitch": 76,
                "velocity": 64,
                "duration": 0.3659091,
                "tempo": 120.0
            },
            {
                "start_time": 163.7909091,
                "end_time": 164.3568182,
                "pitch": 72,
                "velocity": 64,
                "duration": 0.5659091,
                "tempo": 120.0
            },
            {
                "start_time": 164.3909091,
                "end_time": 165.9568182,
                "pitch": 79,
                "velocity": 64,
                "duration": 1.5659091,
                "tempo": 120.0
            },
            {
                "start_time": 165.9909091,
                "end_time": 166.5568182,
                "pitch": 76,
                "velocity": 64,
                "duration": 0.5659091,
                "tempo": 120.0
            },
            {
                "start_time": 166.5909091,
                "end_time": 166.9568182,
                "pitch": 76,
                "velocity": 64,
                "duration": 0.3659091,
                "tempo": 120.0
            },
            {
                "start_time": 166.9909091,
                "end_time": 167.5568182,
                "pitch": 76,
                "velocity": 64,
                "duration": 0.5659091,
                "tempo": 120.0
            },
            {
                "start_time": 167.5909091,
                "end_time": 168.975,
                "pitch": 79,
                "velocity": 64,
                "duration": 1.3840909,
                "tempo": 120.0
            },
            {
                "start_time": 169.0113636,
                "end_time": 170.5954545,
                "pitch": 81,
                "velocity": 64,
                "duration": 1.5840909,
                "tempo": 120.0
            },
            {
                "start_time": 170.6318182,
                "end_time": 173.7636364,
                "pitch": 83,
                "velocity": 64,
                "duration": 3.1318182,
                "tempo": 120.0
            },
            {
                "start_time": 173.7977273,
                "end_time": 173.9477273,
                "pitch": 86,
                "velocity": 64,
                "duration": 0.15,
                "tempo": 120.0
            },
            {
                "start_time": 174.1636364,
                "end_time": 174.3136364,
                "pitch": 67,
                "velocity": 64,
                "duration": 0.15,
                "tempo": 120.0
            },
            {
                "start_time": 174.3454545,
                "end_time": 174.4977273,
                "pitch": 69,
                "velocity": 64,
                "duration": 0.1522727,
                "tempo": 120.0
            },
            {
                "start_time": 174.5295455,
                "end_time": 174.6795455,
                "pitch": 64,
                "velocity": 64,
                "duration": 0.15,
                "tempo": 120.0
            },
            {
                "start_time": 174.7113636,
                "end_time": 174.8636364,
                "pitch": 67,
                "velocity": 64,
                "duration": 0.1522727,
                "tempo": 120.0
            },
            {
                "start_time": 174.8954545,
                "end_time": 175.0454545,
                "pitch": 60,
                "velocity": 64,
                "duration": 0.15,
                "tempo": 120.0
            },
            {
                "start_time": 175.2613636,
                "end_time": 175.6272727,
                "pitch": 57,
                "velocity": 64,
                "duration": 0.3659091,
                "tempo": 120.0
            },
            {
                "start_time": 175.6613636,
                "end_time": 175.8272727,
                "pitch": 62,
                "velocity": 64,
                "duration": 0.1659091,
                "tempo": 120.0
            },
            {
                "start_time": 175.8613636,
                "end_time": 176.0272727,
                "pitch": 64,
                "velocity": 64,
                "duration": 0.1659091,
                "tempo": 120.0
            },
            {
                "start_time": 176.0613636,
                "end_time": 176.2272727,
                "pitch": 60,
                "velocity": 64,
                "duration": 0.1659091,
                "tempo": 120.0
            },
            {
                "start_time": 176.2613636,
                "end_time": 176.4272727,
                "pitch": 62,
                "velocity": 64,
                "duration": 0.1659091,
                "tempo": 120.0
            },
            {
                "start_time": 176.4613636,
                "end_time": 176.6272727,
                "pitch": 59,
                "velocity": 64,
                "duration": 0.1659091,
                "tempo": 120.0
            },
            {
                "start_time": 176.8613636,
                "end_time": 177.2272727,
                "pitch": 57,
                "velocity": 64,
                "duration": 0.3659091,
                "tempo": 120.0
            },
            {
                "start_time": 177.2613636,
                "end_time": 177.4272727,
                "pitch": 55,
                "velocity": 64,
                "duration": 0.1659091,
                "tempo": 120.0
            },
            {
                "start_time": 177.4613636,
                "end_time": 177.6272727,
                "pitch": 57,
                "velocity": 64,
                "duration": 0.1659091,
                "tempo": 120.0
            },
            {
                "start_time": 177.6613636,
                "end_time": 177.8272727,
                "pitch": 52,
                "velocity": 64,
                "duration": 0.1659091,
                "tempo": 120.0
            },
            {
                "start_time": 177.8613636,
                "end_time": 178.0272727,
                "pitch": 55,
                "velocity": 64,
                "duration": 0.1659091,
                "tempo": 120.0
            },
            {
                "start_time": 178.0613636,
                "end_time": 178.2272727,
                "pitch": 48,
                "velocity": 64,
                "duration": 0.1659091,
                "tempo": 120.0
            },
            {
                "start_time": 178.4613636,
                "end_time": 179.4272727,
                "pitch": 45,
                "velocity": 64,
                "duration": 0.9659091,
                "tempo": 120.0
            }
        ],
        "Lead 2 (sawtooth)": [
            {
                "start_time": 0.0,
                "end_time": 0.1954545,
                "pitch": 64,
                "velocity": 64,
                "duration": 0.1954545,
                "tempo": 120.0
            },
            {
                "start_time": 5.9545455,
                "end_time": 5.9613636,
                "pitch": 76,
                "velocity": 64,
                "duration": 0.0068182,
                "tempo": 120.0
            },
            {
                "start_time": 5.9613636,
                "end_time": 6.1431818,
                "pitch": 76,
                "velocity": 64,
                "duration": 0.1818182,
                "tempo": 120.0
            },
            {
                "start_time": 6.1818182,
                "end_time": 6.3454545,
                "pitch": 79,
                "velocity": 64,
                "duration": 0.1636364,
                "tempo": 120.0
            },
            {
                "start_time": 6.3818182,
                "end_time": 6.5454545,
                "pitch": 76,
                "velocity": 64,
                "duration": 0.1636364,
                "tempo": 120.0
            },
            {
                "start_time": 6.5795455,
                "end_time": 7.7454545,
                "pitch": 83,
                "velocity": 64,
                "duration": 1.1659091,
                "tempo": 120.0
            },
            {
                "start_time": 7.7818182,
                "end_time": 7.9477273,
                "pitch": 81,
                "velocity": 64,
                "duration": 0.1659091,
                "tempo": 120.0
            },
            {
                "start_time": 7.9840909,
                "end_time": 8.15,
                "pitch": 79,
                "velocity": 64,
                "duration": 0.1659091,
                "tempo": 120.0
            },
            {
                "start_time": 8.3886364,
                "end_time": 9.5681818,
                "pitch": 78,
                "velocity": 64,
                "duration": 1.1795455,
                "tempo": 120.0
            },
            {
                "start_time": 9.6022727,
                "end_time": 9.7681818,
                "pitch": 74,
                "velocity": 64,
                "duration": 0.1659091,
                "tempo": 120.0
            },
            {
                "start_time": 9.8022727,
                "end_time": 10.7681818,
                "pitch": 69,
                "velocity": 64,
                "duration": 0.9659091,
                "tempo": 120.0
            },
            {
                "start_time": 10.8022727,
                "end_time": 11.3681818,
                "pitch": 76,
                "velocity": 64,
                "duration": 0.5659091,
                "tempo": 120.0
            },
            {
                "start_time": 11.4022727,
                "end_time": 11.5681818,
                "pitch": 74,
                "velocity": 64,
                "duration": 0.1659091,
                "tempo": 120.0
            },
            {
                "start_time": 11.8022727,
                "end_time": 11.9681818,
                "pitch": 72,
                "velocity": 64,
                "duration": 0.1659091,
                "tempo": 120.0
            },
            {
                "start_time": 12.2022727,
                "end_time": 13.9863636,
                "pitch": 69,
                "velocity": 64,
                "duration": 1.7840909,
                "tempo": 120.0
            },
            {
                "start_time": 14.0204545,
                "end_time": 14.3886364,
                "pitch": 67,
                "velocity": 64,
                "duration": 0.3681818,
                "tempo": 120.0
            },
            {
                "start_time": 14.4227273,
                "end_time": 14.5886364,
                "pitch": 69,
                "velocity": 64,
                "duration": 0.1659091,
                "tempo": 120.0
            },
            {
                "start_time": 14.625,
                "end_time": 15.5886364,
                "pitch": 72,
                "velocity": 64,
                "duration": 0.9636364,
                "tempo": 120.0
            },
            {
                "start_time": 15.6227273,
                "end_time": 16.1886364,
                "pitch": 76,
                "velocity": 64,
                "duration": 0.5659091,
                "tempo": 120.0
            },
            {
                "start_time": 16.225,
                "end_time": 17.9977273,
                "pitch": 74,
                "velocity": 64,
                "duration": 1.7727273,
                "tempo": 120.0
            },
            {
                "start_time": 20.4454545,
                "end_time": 20.6113636,
                "pitch": 76,
                "velocity": 64,
                "duration": 0.1659091,
                "tempo": 120.0
            },
            {
                "start_time": 20.6454545,
                "end_time": 20.8113636,
                "pitch": 79,
                "velocity": 64,
                "duration": 0.1659091,
                "tempo": 120.0
            },
            {
                "start_time": 20.8454545,
                "end_time": 21.0113636,
                "pitch": 76,
                "velocity": 64,
                "duration": 0.1659091,
                "tempo": 120.0
            },
            {
                "start_time": 21.0454545,
                "end_time": 22.2113636,
                "pitch": 83,
                "velocity": 64,
                "duration": 1.1659091,
                "tempo": 120.0
            },
            {
                "start_time": 22.2454545,
                "end_time": 22.4136364,
                "pitch": 81,
                "velocity": 64,
                "duration": 0.1681818,
                "tempo": 120.0
            },
            {
                "start_time": 22.4477273,
                "end_time": 22.8181818,
                "pitch": 79,
                "velocity": 64,
                "duration": 0.3704545,
                "tempo": 120.0
            },
            {
                "start_time": 22.8545455,
                "end_time": 24.0340909,
                "pitch": 78,
                "velocity": 64,
                "duration": 1.1795455,
                "tempo": 120.0
            },
            {
                "start_time": 24.0704545,
                "end_time": 24.2363636,
                "pitch": 74,
                "velocity": 64,
                "duration": 0.1659091,
                "tempo": 120.0
            },
            {
                "start_time": 24.2727273,
                "end_time": 25.25,
                "pitch": 76,
                "velocity": 64,
                "duration": 0.9772727,
                "tempo": 120.0
            },
            {
                "start_time": 25.2863636,
                "end_time": 25.4545455,
                "pitch": 76,
                "velocity": 64,
                "duration": 0.1681818,
                "tempo": 120.0
            },
            {
                "start_time": 25.4886364,
                "end_time": 25.6568182,
                "pitch": 74,
                "velocity": 64,
                "duration": 0.1681818,
                "tempo": 120.0
            },
            {
                "start_time": 25.6909091,
                "end_time": 25.8590909,
                "pitch": 72,
                "velocity": 64,
                "duration": 0.1681818,
                "tempo": 120.0
            },
            {
                "start_time": 25.8931818,
                "end_time": 26.4681818,
                "pitch": 76,
                "velocity": 64,
                "duration": 0.575,
                "tempo": 120.0
            },
            {
                "start_time": 26.5022727,
                "end_time": 28.475,
                "pitch": 74,
                "velocity": 64,
                "duration": 1.9727273,
                "tempo": 120.0
            },
            {
                "start_time": 28.5113636,
                "end_time": 28.675,
                "pitch": 69,
                "velocity": 64,
                "duration": 0.1636364,
                "tempo": 120.0
            },
            {
                "start_time": 28.7113636,
                "end_time": 28.8772727,
                "pitch": 72,
                "velocity": 64,
                "duration": 0.1659091,
                "tempo": 120.0
            },
            {
                "start_time": 28.9136364,
                "end_time": 29.0818182,
                "pitch": 69,
                "velocity": 64,
                "duration": 0.1681818,
                "tempo": 120.0
            },
            {
                "start_time": 29.1159091,
                "end_time": 29.6886364,
                "pitch": 75,
                "velocity": 64,
                "duration": 0.5727273,
                "tempo": 120.0
            },
            {
                "start_time": 29.725,
                "end_time": 30.0931818,
                "pitch": 74,
                "velocity": 64,
                "duration": 0.3681818,
                "tempo": 120.0
            },
            {
                "start_time": 30.1295455,
                "end_time": 30.4977273,
                "pitch": 72,
                "velocity": 64,
                "duration": 0.3681818,
                "tempo": 120.0
            },
            {
                "start_time": 30.5340909,
                "end_time": 30.6977273,
                "pitch": 69,
                "velocity": 64,
                "duration": 0.1636364,
                "tempo": 120.0
            },
            {
                "start_time": 30.7340909,
                "end_time": 30.8977273,
                "pitch": 72,
                "velocity": 64,
                "duration": 0.1636364,
                "tempo": 120.0
            },
            {
                "start_time": 31.1318182,
                "end_time": 32.5045455,
                "pitch": 69,
                "velocity": 64,
                "duration": 1.3727273,
                "tempo": 120.0
            },
            {
                "start_time": 34.9727273,
                "end_time": 35.1409091,
                "pitch": 76,
                "velocity": 64,
                "duration": 0.1681818,
                "tempo": 120.0
            },
            {
                "start_time": 35.175,
                "end_time": 35.3431818,
                "pitch": 79,
                "velocity": 64,
                "duration": 0.1681818,
                "tempo": 120.0
            },
            {
                "start_time": 35.3795455,
                "end_time": 35.5454545,
                "pitch": 76,
                "velocity": 64,
                "duration": 0.1659091,
                "tempo": 120.0
            },
            {
                "start_time": 35.5818182,
                "end_time": 36.7613636,
                "pitch": 83,
                "velocity": 64,
                "duration": 1.1795455,
                "tempo": 120.0
            },
            {
                "start_time": 36.7977273,
                "end_time": 36.9613636,
                "pitch": 81,
                "velocity": 64,
                "duration": 0.1636364,
                "tempo": 120.0
            },
            {
                "start_time": 36.9977273,
                "end_time": 37.1613636,
                "pitch": 79,
                "velocity": 64,
                "duration": 0.1636364,
                "tempo": 120.0
            },
            {
                "start_time": 37.3977273,
                "end_time": 38.7681818,
                "pitch": 78,
                "velocity": 64,
                "duration": 1.3704545,
                "tempo": 120.0
            },
            {
                "start_time": 38.8022727,
                "end_time": 39.375,
                "pitch": 86,
                "velocity": 64,
                "duration": 0.5727273,
                "tempo": 120.0
            },
            {
                "start_time": 39.8159091,
                "end_time": 40.3886364,
                "pitch": 88,
                "velocity": 64,
                "duration": 0.5727273,
                "tempo": 120.0
            },
            {
                "start_time": 40.425,
                "end_time": 40.5909091,
                "pitch": 86,
                "velocity": 64,
                "duration": 0.1659091,
                "tempo": 120.0
            },
            {
                "start_time": 40.8295455,
                "end_time": 40.9977273,
                "pitch": 84,
                "velocity": 64,
                "duration": 0.1681818,
                "tempo": 120.0
            },
            {
                "start_time": 41.2340909,
                "end_time": 43.4068182,
                "pitch": 81,
                "velocity": 64,
                "duration": 2.1727273,
                "tempo": 120.0
            },
            {
                "start_time": 43.4431818,
                "end_time": 43.8136364,
                "pitch": 79,
                "velocity": 64,
                "duration": 0.3704545,
                "tempo": 120.0
            },
            {
                "start_time": 43.8477273,
                "end_time": 44.6227273,
                "pitch": 81,
                "velocity": 64,
                "duration": 0.775,
                "tempo": 120.0
            },
            {
                "start_time": 44.6590909,
                "end_time": 45.2227273,
                "pitch": 88,
                "velocity": 64,
                "duration": 0.5636364,
                "tempo": 120.0
            },
            {
                "start_time": 45.2568182,
                "end_time": 47.0136364,
                "pitch": 86,
                "velocity": 64,
                "duration": 1.7568182,
                "tempo": 120.0
            },
            {
                "start_time": 49.4613636,
                "end_time": 49.6272727,
                "pitch": 76,
                "velocity": 64,
                "duration": 0.1659091,
                "tempo": 120.0
            },
            {
                "start_time": 49.6613636,
                "end_time": 49.8272727,
                "pitch": 79,
                "velocity": 64,
                "duration": 0.1659091,
                "tempo": 120.0
            },
            {
                "start_time": 49.8613636,
                "end_time": 50.0272727,
                "pitch": 76,
                "velocity": 64,
                "duration": 0.1659091,
                "tempo": 120.0
            },
            {
                "start_time": 50.0613636,
                "end_time": 51.2272727,
                "pitch": 83,
                "velocity": 64,
                "duration": 1.1659091,
                "tempo": 120.0
            },
            {
                "start_time": 51.2636364,
                "end_time": 51.4295455,
                "pitch": 81,
                "velocity": 64,
                "duration": 0.1659091,
                "tempo": 120.0
            },
            {
                "start_time": 51.4659091,
                "end_time": 51.6318182,
                "pitch": 79,
                "velocity": 64,
                "duration": 0.1659091,
                "tempo": 120.0
            },
            {
                "start_time": 51.8704545,
                "end_time": 53.0477273,
                "pitch": 78,
                "velocity": 64,
                "duration": 1.1772727,
                "tempo": 120.0
            },
            {
                "start_time": 53.0840909,
                "end_time": 53.2477273,
                "pitch": 74,
                "velocity": 64,
                "duration": 0.1636364,
                "tempo": 120.0
            },
            {
                "start_time": 53.2818182,
                "end_time": 53.8477273,
                "pitch": 69,
                "velocity": 64,
                "duration": 0.5659091,
                "tempo": 120.0
            },
            {
                "start_time": 55.9022727,
                "end_time": 56.0704545,
                "pitch": 69,
                "velocity": 64,
                "duration": 0.1681818,
                "tempo": 120.0
            },
            {
                "start_time": 56.1045455,
                "end_time": 56.2704545,
                "pitch": 72,
                "velocity": 64,
                "duration": 0.1659091,
                "tempo": 120.0
            },
            {
                "start_time": 56.5045455,
                "end_time": 59.0886364,
                "pitch": 76,
                "velocity": 64,
                "duration": 2.5840909,
                "tempo": 120.0
            },
            {
                "start_time": 59.1227273,
                "end_time": 59.2909091,
                "pitch": 79,
                "velocity": 64,
                "duration": 0.1681818,
                "tempo": 120.0
            },
            {
                "start_time": 59.5295455,
                "end_time": 59.6977273,
                "pitch": 81,
                "velocity": 64,
                "duration": 0.1681818,
                "tempo": 120.0
            },
            {
                "start_time": 59.9340909,
                "end_time": 60.5068182,
                "pitch": 83,
                "velocity": 64,
                "duration": 0.5727273,
                "tempo": 120.0
            },
            {
                "start_time": 60.5431818,
                "end_time": 61.3181818,
                "pitch": 81,
                "velocity": 64,
                "duration": 0.775,
                "tempo": 120.0
            },
            {
                "start_time": 61.3522727,
                "end_time": 64.525,
                "pitch": 83,
                "velocity": 64,
                "duration": 3.1727273,
                "tempo": 120.0
            },
            {
                "start_time": 64.5636364,
                "end_time": 64.9363636,
                "pitch": 81,
                "velocity": 64,
                "duration": 0.3727273,
                "tempo": 120.0
            },
            {
                "start_time": 64.9704545,
                "end_time": 65.5431818,
                "pitch": 80,
                "velocity": 64,
                "duration": 0.5727273,
                "tempo": 120.0
            },
            {
                "start_time": 65.5795455,
                "end_time": 66.5522727,
                "pitch": 81,
                "velocity": 64,
                "duration": 0.9727273,
                "tempo": 120.0
            },
            {
                "start_time": 66.5863636,
                "end_time": 67.1522727,
                "pitch": 88,
                "velocity": 64,
                "duration": 0.5659091,
                "tempo": 120.0
            },
            {
                "start_time": 67.1863636,
                "end_time": 67.7522727,
                "pitch": 87,
                "velocity": 64,
                "duration": 0.5659091,
                "tempo": 120.0
            },
            {
                "start_time": 67.7863636,
                "end_time": 68.1568182,
                "pitch": 88,
                "velocity": 64,
                "duration": 0.3704545,
                "tempo": 120.0
            },
            {
                "start_time": 68.1909091,
                "end_time": 68.7659091,
                "pitch": 81,
                "velocity": 64,
                "duration": 0.575,
                "tempo": 120.0
            },
            {
                "start_time": 68.8,
                "end_time": 72.1886364,
                "pitch": 83,
                "velocity": 64,
                "duration": 3.3886364,
                "tempo": 120.0
            },
            {
                "start_time": 72.225,
                "end_time": 72.7954545,
                "pitch": 81,
                "velocity": 64,
                "duration": 0.5704545,
                "tempo": 120.0
            },
            {
                "start_time": 72.8295455,
                "end_time": 73.7954545,
                "pitch": 80,
                "velocity": 64,
                "duration": 0.9659091,
                "tempo": 120.0
            },
            {
                "start_time": 75.4454545,
                "end_time": 76.0159091,
                "pitch": 79,
                "velocity": 64,
                "duration": 0.5704545,
                "tempo": 120.0
            },
            {
                "start_time": 76.0522727,
                "end_time": 76.2159091,
                "pitch": 78,
                "velocity": 64,
                "duration": 0.1636364,
                "tempo": 120.0
            },
            {
                "start_time": 76.4522727,
                "end_time": 76.6159091,
                "pitch": 76,
                "velocity": 64,
                "duration": 0.1636364,
                "tempo": 120.0
            },
            {
                "start_time": 77.8522727,
                "end_time": 78.4159091,
                "pitch": 83,
                "velocity": 64,
                "duration": 0.5636364,
                "tempo": 120.0
            },
            {
                "start_time": 78.4522727,
                "end_time": 78.6159091,
                "pitch": 81,
                "velocity": 64,
                "duration": 0.1636364,
                "tempo": 120.0
            },
            {
                "start_time": 78.85,
                "end_time": 79.0159091,
                "pitch": 79,
                "velocity": 64,
                "duration": 0.1659091,
                "tempo": 120.0
            },
            {
                "start_time": 79.4568182,
                "end_time": 80.0295455,
                "pitch": 78,
                "velocity": 64,
                "duration": 0.5727273,
                "tempo": 120.0
            },
            {
                "start_time": 80.0636364,
                "end_time": 80.6386364,
                "pitch": 79,
                "velocity": 64,
                "duration": 0.575,
                "tempo": 120.0
            },
            {
                "start_time": 81.8886364,
                "end_time": 82.0568182,
                "pitch": 79,
                "velocity": 64,
                "duration": 0.1681818,
                "tempo": 120.0
            },
            {
                "start_time": 82.0931818,
                "end_time": 82.2590909,
                "pitch": 78,
                "velocity": 64,
                "duration": 0.1659091,
                "tempo": 120.0
            },
            {
                "start_time": 82.2931818,
                "end_time": 82.4613636,
                "pitch": 76,
                "velocity": 64,
                "duration": 0.1681818,
                "tempo": 120.0
            },
            {
                "start_time": 82.4954545,
                "end_time": 83.475,
                "pitch": 81,
                "velocity": 64,
                "duration": 0.9795455,
                "tempo": 120.0
            },
            {
                "start_time": 83.5113636,
                "end_time": 83.6795455,
                "pitch": 81,
                "velocity": 64,
                "duration": 0.1681818,
                "tempo": 120.0
            },
            {
                "start_time": 83.7136364,
                "end_time": 83.8818182,
                "pitch": 79,
                "velocity": 64,
                "duration": 0.1681818,
                "tempo": 120.0
            },
            {
                "start_time": 83.9159091,
                "end_time": 84.0818182,
                "pitch": 78,
                "velocity": 64,
                "duration": 0.1659091,
                "tempo": 120.0
            },
            {
                "start_time": 84.1159091,
                "end_time": 85.8704545,
                "pitch": 86,
                "velocity": 64,
                "duration": 1.7545455,
                "tempo": 120.0
            },
            {
                "start_time": 86.1,
                "end_time": 86.2613636,
                "pitch": 81,
                "velocity": 64,
                "duration": 0.1613636,
                "tempo": 120.0
            },
            {
                "start_time": 86.2931818,
                "end_time": 86.4545455,
                "pitch": 84,
                "velocity": 64,
                "duration": 0.1613636,
                "tempo": 120.0
            },
            {
                "start_time": 86.4886364,
                "end_time": 86.65,
                "pitch": 81,
                "velocity": 64,
                "duration": 0.1613636,
                "tempo": 120.0
            },
            {
                "start_time": 86.6840909,
                "end_time": 86.8454545,
                "pitch": 86,
                "velocity": 64,
                "duration": 0.1613636,
                "tempo": 120.0
            },
            {
                "start_time": 86.8795455,
                "end_time": 87.0295455,
                "pitch": 81,
                "velocity": 64,
                "duration": 0.15,
                "tempo": 120.0
            },
            {
                "start_time": 87.2454545,
                "end_time": 87.5795455,
                "pitch": 88,
                "velocity": 64,
                "duration": 0.3340909,
                "tempo": 120.0
            },
            {
                "start_time": 93.1659091,
                "end_time": 93.3340909,
                "pitch": 78,
                "velocity": 64,
                "duration": 0.1681818,
                "tempo": 120.0
            },
            {
                "start_time": 93.7727273,
                "end_time": 93.9409091,
                "pitch": 79,
                "velocity": 64,
                "duration": 0.1681818,
                "tempo": 120.0
            },
            {
                "start_time": 94.1795455,
                "end_time": 94.3454545,
                "pitch": 81,
                "velocity": 64,
                "duration": 0.1659091,
                "tempo": 120.0
            },
            {
                "start_time": 94.5840909,
                "end_time": 95.1522727,
                "pitch": 76,
                "velocity": 64,
                "duration": 0.5681818,
                "tempo": 120.0
            },
            {
                "start_time": 95.1863636,
                "end_time": 95.3522727,
                "pitch": 74,
                "velocity": 64,
                "duration": 0.1659091,
                "tempo": 120.0
            },
            {
                "start_time": 96.3863636,
                "end_time": 96.5522727,
                "pitch": 71,
                "velocity": 64,
                "duration": 0.1659091,
                "tempo": 120.0
            },
            {
                "start_time": 96.5863636,
                "end_time": 96.7522727,
                "pitch": 72,
                "velocity": 64,
                "duration": 0.1659091,
                "tempo": 120.0
            },
            {
                "start_time": 96.9863636,
                "end_time": 97.1522727,
                "pitch": 79,
                "velocity": 64,
                "duration": 0.1659091,
                "tempo": 120.0
            },
            {
                "start_time": 97.3863636,
                "end_time": 97.5522727,
                "pitch": 76,
                "velocity": 64,
                "duration": 0.1659091,
                "tempo": 120.0
            },
            {
                "start_time": 97.7863636,
                "end_time": 97.9522727,
                "pitch": 81,
                "velocity": 64,
                "duration": 0.1659091,
                "tempo": 120.0
            },
            {
                "start_time": 97.9863636,
                "end_time": 100.5863636,
                "pitch": 83,
                "velocity": 64,
                "duration": 2.6,
                "tempo": 120.0
            },
            {
                "start_time": 100.6227273,
                "end_time": 100.7886364,
                "pitch": 81,
                "velocity": 64,
                "duration": 0.1659091,
                "tempo": 120.0
            },
            {
                "start_time": 101.0272727,
                "end_time": 101.1954545,
                "pitch": 84,
                "velocity": 64,
                "duration": 0.1681818,
                "tempo": 120.0
            },
            {
                "start_time": 101.2295455,
                "end_time": 101.3954545,
                "pitch": 81,
                "velocity": 64,
                "duration": 0.1659091,
                "tempo": 120.0
            },
            {
                "start_time": 101.6295455,
                "end_time": 102.1954545,
                "pitch": 88,
                "velocity": 64,
                "duration": 0.5659091,
                "tempo": 120.0
            },
            {
                "start_time": 102.2318182,
                "end_time": 102.5954545,
                "pitch": 86,
                "velocity": 64,
                "duration": 0.3636364,
                "tempo": 120.0
            },
            {
                "start_time": 102.6295455,
                "end_time": 102.7954545,
                "pitch": 81,
                "velocity": 64,
                "duration": 0.1659091,
                "tempo": 120.0
            },
            {
                "start_time": 102.8318182,
                "end_time": 103.1954545,
                "pitch": 84,
                "velocity": 64,
                "duration": 0.3636364,
                "tempo": 120.0
            },
            {
                "start_time": 103.2295455,
                "end_time": 103.7954545,
                "pitch": 88,
                "velocity": 64,
                "duration": 0.5659091,
                "tempo": 120.0
            },
            {
                "start_time": 103.8295455,
                "end_time": 105.0022727,
                "pitch": 86,
                "velocity": 64,
                "duration": 1.1727273,
                "tempo": 120.0
            },
            {
                "start_time": 106.0522727,
                "end_time": 106.2181818,
                "pitch": 78,
                "velocity": 64,
                "duration": 0.1659091,
                "tempo": 120.0
            },
            {
                "start_time": 106.2522727,
                "end_time": 106.4181818,
                "pitch": 79,
                "velocity": 64,
                "duration": 0.1659091,
                "tempo": 120.0
            },
            {
                "start_time": 106.4522727,
                "end_time": 106.6181818,
                "pitch": 83,
                "velocity": 64,
                "duration": 0.1659091,
                "tempo": 120.0
            },
            {
                "start_time": 106.6522727,
                "end_time": 106.8181818,
                "pitch": 86,
                "velocity": 64,
                "duration": 0.1659091,
                "tempo": 120.0
            },
            {
                "start_time": 107.0522727,
                "end_time": 107.2181818,
                "pitch": 84,
                "velocity": 64,
                "duration": 0.1659091,
                "tempo": 120.0
            },
            {
                "start_time": 107.4522727,
                "end_time": 107.6181818,
                "pitch": 83,
                "velocity": 64,
                "duration": 0.1659091,
                "tempo": 120.0
            },
            {
                "start_time": 107.6522727,
                "end_time": 107.8181818,
                "pitch": 86,
                "velocity": 64,
                "duration": 0.1659091,
                "tempo": 120.0
            },
            {
                "start_time": 108.0522727,
                "end_time": 108.2181818,
                "pitch": 84,
                "velocity": 64,
                "duration": 0.1659091,
                "tempo": 120.0
            },
            {
                "start_time": 109.2522727,
                "end_time": 109.4204545,
                "pitch": 83,
                "velocity": 64,
                "duration": 0.1681818,
                "tempo": 120.0
            },
            {
                "start_time": 109.4545455,
                "end_time": 109.6227273,
                "pitch": 84,
                "velocity": 64,
                "duration": 0.1681818,
                "tempo": 120.0
            },
            {
                "start_time": 109.6590909,
                "end_time": 109.825,
                "pitch": 83,
                "velocity": 64,
                "duration": 0.1659091,
                "tempo": 120.0
            },
            {
                "start_time": 109.8613636,
                "end_time": 110.0272727,
                "pitch": 82,
                "velocity": 64,
                "duration": 0.1659091,
                "tempo": 120.0
            },
            {
                "start_time": 110.0636364,
                "end_time": 110.2295455,
                "pitch": 81,
                "velocity": 64,
                "duration": 0.1659091,
                "tempo": 120.0
            },
            {
                "start_time": 110.2659091,
                "end_time": 110.4340909,
                "pitch": 80,
                "velocity": 64,
                "duration": 0.1681818,
                "tempo": 120.0
            },
            {
                "start_time": 110.4681818,
                "end_time": 110.6363636,
                "pitch": 79,
                "velocity": 64,
                "duration": 0.1681818,
                "tempo": 120.0
            },
            {
                "start_time": 110.6704545,
                "end_time": 110.8386364,
                "pitch": 78,
                "velocity": 64,
                "duration": 0.1681818,
                "tempo": 120.0
            },
            {
                "start_time": 110.875,
                "end_time": 111.0386364,
                "pitch": 76,
                "velocity": 64,
                "duration": 0.1636364,
                "tempo": 120.0
            },
            {
                "start_time": 111.2727273,
                "end_time": 111.4386364,
                "pitch": 81,
                "velocity": 64,
                "duration": 0.1659091,
                "tempo": 120.0
            },
            {
                "start_time": 112.4727273,
                "end_time": 113.0386364,
                "pitch": 79,
                "velocity": 64,
                "duration": 0.5659091,
                "tempo": 120.0
            },
            {
                "start_time": 113.0727273,
                "end_time": 113.2386364,
                "pitch": 78,
                "velocity": 64,
                "duration": 0.1659091,
                "tempo": 120.0
            },
            {
                "start_time": 113.8727273,
                "end_time": 114.4431818,
                "pitch": 83,
                "velocity": 64,
                "duration": 0.5704545,
                "tempo": 120.0
            },
            {
                "start_time": 114.4772727,
                "end_time": 115.6590909,
                "pitch": 81,
                "velocity": 64,
                "duration": 1.1818182,
                "tempo": 120.0
            },
            {
                "start_time": 115.6954545,
                "end_time": 115.8613636,
                "pitch": 78,
                "velocity": 64,
                "duration": 0.1659091,
                "tempo": 120.0
            },
            {
                "start_time": 115.8954545,
                "end_time": 116.0613636,
                "pitch": 79,
                "velocity": 64,
                "duration": 0.1659091,
                "tempo": 120.0
            },
            {
                "start_time": 116.2954545,
                "end_time": 116.8613636,
                "pitch": 88,
                "velocity": 64,
                "duration": 0.5659091,
                "tempo": 120.0
            },
            {
                "start_time": 116.8954545,
                "end_time": 119.4818182,
                "pitch": 86,
                "velocity": 64,
                "duration": 2.5863636,
                "tempo": 120.0
            },
            {
                "start_time": 120.5181818,
                "end_time": 120.6863636,
                "pitch": 78,
                "velocity": 64,
                "duration": 0.1681818,
                "tempo": 120.0
            },
            {
                "start_time": 120.7227273,
                "end_time": 120.8909091,
                "pitch": 79,
                "velocity": 64,
                "duration": 0.1681818,
                "tempo": 120.0
            },
            {
                "start_time": 120.9272727,
                "end_time": 121.0977273,
                "pitch": 78,
                "velocity": 64,
                "duration": 0.1704545,
                "tempo": 120.0
            },
            {
                "start_time": 121.1318182,
                "end_time": 121.3022727,
                "pitch": 76,
                "velocity": 64,
                "duration": 0.1704545,
                "tempo": 120.0
            },
            {
                "start_time": 121.3386364,
                "end_time": 121.5090909,
                "pitch": 74,
                "velocity": 64,
                "duration": 0.1704545,
                "tempo": 120.0
            },
            {
                "start_time": 121.5431818,
                "end_time": 121.7136364,
                "pitch": 72,
                "velocity": 64,
                "duration": 0.1704545,
                "tempo": 120.0
            },
            {
                "start_time": 121.75,
                "end_time": 121.9181818,
                "pitch": 71,
                "velocity": 64,
                "duration": 0.1681818,
                "tempo": 120.0
            },
            {
                "start_time": 121.9545455,
                "end_time": 122.125,
                "pitch": 74,
                "velocity": 64,
                "duration": 0.1704545,
                "tempo": 120.0
            },
            {
                "start_time": 122.1613636,
                "end_time": 122.325,
                "pitch": 72,
                "velocity": 64,
                "duration": 0.1636364,
                "tempo": 120.0
            },
            {
                "start_time": 122.5590909,
                "end_time": 122.725,
                "pitch": 69,
                "velocity": 64,
                "duration": 0.1659091,
                "tempo": 120.0
            },
            {
                "start_time": 123.7613636,
                "end_time": 123.925,
                "pitch": 69,
                "velocity": 64,
                "duration": 0.1636364,
                "tempo": 120.0
            },
            {
                "start_time": 123.9613636,
                "end_time": 124.125,
                "pitch": 72,
                "velocity": 64,
                "duration": 0.1636364,
                "tempo": 120.0
            },
            {
                "start_time": 124.1590909,
                "end_time": 124.325,
                "pitch": 69,
                "velocity": 64,
                "duration": 0.1659091,
                "tempo": 120.0
            },
            {
                "start_time": 124.3613636,
                "end_time": 124.725,
                "pitch": 76,
                "velocity": 64,
                "duration": 0.3636364,
                "tempo": 120.0
            },
            {
                "start_time": 124.9590909,
                "end_time": 125.125,
                "pitch": 74,
                "velocity": 64,
                "duration": 0.1659091,
                "tempo": 120.0
            },
            {
                "start_time": 125.1590909,
                "end_time": 125.5272727,
                "pitch": 72,
                "velocity": 64,
                "duration": 0.3681818,
                "tempo": 120.0
            },
            {
                "start_time": 125.5636364,
                "end_time": 125.7295455,
                "pitch": 74,
                "velocity": 64,
                "duration": 0.1659091,
                "tempo": 120.0
            },
            {
                "start_time": 125.7659091,
                "end_time": 127.5477273,
                "pitch": 81,
                "velocity": 64,
                "duration": 1.7818182,
                "tempo": 120.0
            },
            {
                "start_time": 128.5818182,
                "end_time": 128.75,
                "pitch": 84,
                "velocity": 64,
                "duration": 0.1681818,
                "tempo": 120.0
            },
            {
                "start_time": 128.7840909,
                "end_time": 128.9522727,
                "pitch": 83,
                "velocity": 64,
                "duration": 0.1681818,
                "tempo": 120.0
            },
            {
                "start_time": 128.9863636,
                "end_time": 129.1545455,
                "pitch": 81,
                "velocity": 64,
                "duration": 0.1681818,
                "tempo": 120.0
            },
            {
                "start_time": 129.1886364,
                "end_time": 129.3568182,
                "pitch": 79,
                "velocity": 64,
                "duration": 0.1681818,
                "tempo": 120.0
            },
            {
                "start_time": 130.0,
                "end_time": 130.5681818,
                "pitch": 76,
                "velocity": 64,
                "duration": 0.5681818,
                "tempo": 120.0
            },
            {
                "start_time": 130.6045455,
                "end_time": 130.7681818,
                "pitch": 79,
                "velocity": 64,
                "duration": 0.1636364,
                "tempo": 120.0
            },
            {
                "start_time": 131.0022727,
                "end_time": 131.5681818,
                "pitch": 83,
                "velocity": 64,
                "duration": 0.5659091,
                "tempo": 120.0
            },
            {
                "start_time": 131.6022727,
                "end_time": 133.975,
                "pitch": 81,
                "velocity": 64,
                "duration": 2.3727273,
                "tempo": 120.0
            },
            {
                "start_time": 136.625,
                "end_time": 136.7931818,
                "pitch": 71,
                "velocity": 64,
                "duration": 0.1681818,
                "tempo": 120.0
            },
            {
                "start_time": 136.8295455,
                "end_time": 137.0,
                "pitch": 72,
                "velocity": 64,
                "duration": 0.1704545,
                "tempo": 120.0
            },
            {
                "start_time": 137.0340909,
                "end_time": 137.2045455,
                "pitch": 69,
                "velocity": 64,
                "duration": 0.1704545,
                "tempo": 120.0
            },
            {
                "start_time": 137.2409091,
                "end_time": 137.4090909,
                "pitch": 74,
                "velocity": 64,
                "duration": 0.1681818,
                "tempo": 120.0
            },
            {
                "start_time": 137.6522727,
                "end_time": 137.8204545,
                "pitch": 76,
                "velocity": 64,
                "duration": 0.1681818,
                "tempo": 120.0
            },
            {
                "start_time": 138.0613636,
                "end_time": 138.2318182,
                "pitch": 72,
                "velocity": 64,
                "duration": 0.1704545,
                "tempo": 120.0
            },
            {
                "start_time": 138.2681818,
                "end_time": 138.4340909,
                "pitch": 79,
                "velocity": 64,
                "duration": 0.1659091,
                "tempo": 120.0
            },
            {
                "start_time": 138.6681818,
                "end_time": 139.6340909,
                "pitch": 83,
                "velocity": 64,
                "duration": 0.9659091,
                "tempo": 120.0
            },
            {
                "start_time": 141.2681818,
                "end_time": 141.4340909,
                "pitch": 84,
                "velocity": 64,
                "duration": 0.1659091,
                "tempo": 120.0
            },
            {
                "start_time": 141.4681818,
                "end_time": 141.6363636,
                "pitch": 81,
                "velocity": 64,
                "duration": 0.1681818,
                "tempo": 120.0
            },
            {
                "start_time": 142.075,
                "end_time": 144.4545455,
                "pitch": 88,
                "velocity": 64,
                "duration": 2.3795455,
                "tempo": 120.0
            },
            {
                "start_time": 144.4886364,
                "end_time": 144.6545455,
                "pitch": 88,
                "velocity": 64,
                "duration": 0.1659091,
                "tempo": 120.0
            },
            {
                "start_time": 144.6886364,
                "end_time": 144.8568182,
                "pitch": 86,
                "velocity": 64,
                "duration": 0.1681818,
                "tempo": 120.0
            },
            {
                "start_time": 144.8909091,
                "end_time": 145.0590909,
                "pitch": 81,
                "velocity": 64,
                "duration": 0.1681818,
                "tempo": 120.0
            },
            {
                "start_time": 145.0931818,
                "end_time": 145.6681818,
                "pitch": 84,
                "velocity": 64,
                "duration": 0.575,
                "tempo": 120.0
            },
            {
                "start_time": 145.7022727,
                "end_time": 145.8704545,
                "pitch": 86,
                "velocity": 64,
                "duration": 0.1681818,
                "tempo": 120.0
            },
            {
                "start_time": 146.9181818,
                "end_time": 147.4909091,
                "pitch": 84,
                "velocity": 64,
                "duration": 0.5727273,
                "tempo": 120.0
            },
            {
                "start_time": 147.5272727,
                "end_time": 148.2977273,
                "pitch": 83,
                "velocity": 64,
                "duration": 0.7704545,
                "tempo": 120.0
            },
            {
                "start_time": 148.3318182,
                "end_time": 151.4863636,
                "pitch": 83,
                "velocity": 64,
                "duration": 3.1545455,
                "tempo": 120.0
            },
            {
                "start_time": 151.525,
                "end_time": 151.8954545,
                "pitch": 81,
                "velocity": 64,
                "duration": 0.3704545,
                "tempo": 120.0
            },
            {
                "start_time": 151.9295455,
                "end_time": 152.5045455,
                "pitch": 80,
                "velocity": 64,
                "duration": 0.575,
                "tempo": 120.0
            },
            {
                "start_time": 152.5386364,
                "end_time": 153.5136364,
                "pitch": 81,
                "velocity": 64,
                "duration": 0.975,
                "tempo": 120.0
            },
            {
                "start_time": 153.5477273,
                "end_time": 154.1136364,
                "pitch": 88,
                "velocity": 64,
                "duration": 0.5659091,
                "tempo": 120.0
            },
            {
                "start_time": 154.1477273,
                "end_time": 154.7136364,
                "pitch": 87,
                "velocity": 64,
                "duration": 0.5659091,
                "tempo": 120.0
            },
            {
                "start_time": 154.7477273,
                "end_time": 155.1136364,
                "pitch": 88,
                "velocity": 64,
                "duration": 0.3659091,
                "tempo": 120.0
            },
            {
                "start_time": 155.1477273,
                "end_time": 155.7136364,
                "pitch": 81,
                "velocity": 64,
                "duration": 0.5659091,
                "tempo": 120.0
            },
            {
                "start_time": 155.7477273,
                "end_time": 159.1295455,
                "pitch": 83,
                "velocity": 64,
                "duration": 3.3818182,
                "tempo": 120.0
            },
            {
                "start_time": 159.1636364,
                "end_time": 159.7340909,
                "pitch": 81,
                "velocity": 64,
                "duration": 0.5704545,
                "tempo": 120.0
            },
            {
                "start_time": 159.7681818,
                "end_time": 160.7340909,
                "pitch": 80,
                "velocity": 64,
                "duration": 0.9659091,
                "tempo": 120.0
            },
            {
                "start_time": 162.3840909,
                "end_time": 162.9568182,
                "pitch": 79,
                "velocity": 64,
                "duration": 0.5727273,
                "tempo": 120.0
            },
            {
                "start_time": 162.9909091,
                "end_time": 163.1568182,
                "pitch": 78,
                "velocity": 64,
                "duration": 0.1659091,
                "tempo": 120.0
            },
            {
                "start_time": 163.3909091,
                "end_time": 163.5568182,
                "pitch": 76,
                "velocity": 64,
                "duration": 0.1659091,
                "tempo": 120.0
            },
            {
                "start_time": 164.7909091,
                "end_time": 165.3568182,
                "pitch": 83,
                "velocity": 64,
                "duration": 0.5659091,
                "tempo": 120.0
            },
            {
                "start_time": 165.3909091,
                "end_time": 165.5568182,
                "pitch": 81,
                "velocity": 64,
                "duration": 0.1659091,
                "tempo": 120.0
            },
            {
                "start_time": 165.7909091,
                "end_time": 165.9568182,
                "pitch": 79,
                "velocity": 64,
                "duration": 0.1659091,
                "tempo": 120.0
            },
            {
                "start_time": 166.3909091,
                "end_time": 166.9568182,
                "pitch": 78,
                "velocity": 64,
                "duration": 0.5659091,
                "tempo": 120.0
            },
            {
                "start_time": 166.9909091,
                "end_time": 167.5568182,
                "pitch": 79,
                "velocity": 64,
                "duration": 0.5659091,
                "tempo": 120.0
            },
            {
                "start_time": 168.8068182,
                "end_time": 168.975,
                "pitch": 79,
                "velocity": 64,
                "duration": 0.1681818,
                "tempo": 120.0
            },
            {
                "start_time": 169.0113636,
                "end_time": 169.1772727,
                "pitch": 78,
                "velocity": 64,
                "duration": 0.1659091,
                "tempo": 120.0
            },
            {
                "start_time": 169.2113636,
                "end_time": 169.3795455,
                "pitch": 76,
                "velocity": 64,
                "duration": 0.1681818,
                "tempo": 120.0
            },
            {
                "start_time": 169.4136364,
                "end_time": 170.3931818,
                "pitch": 81,
                "velocity": 64,
                "duration": 0.9795455,
                "tempo": 120.0
            },
            {
                "start_time": 170.4272727,
                "end_time": 170.5954545,
                "pitch": 81,
                "velocity": 64,
                "duration": 0.1681818,
                "tempo": 120.0
            },
            {
                "start_time": 170.6318182,
                "end_time": 170.7977273,
                "pitch": 79,
                "velocity": 64,
                "duration": 0.1659091,
                "tempo": 120.0
            },
            {
                "start_time": 170.8340909,
                "end_time": 171.0,
                "pitch": 78,
                "velocity": 64,
                "duration": 0.1659091,
                "tempo": 120.0
            },
            {
                "start_time": 171.0340909,
                "end_time": 172.7886364,
                "pitch": 86,
                "velocity": 64,
                "duration": 1.7545455,
                "tempo": 120.0
            },
            {
                "start_time": 173.0181818,
                "end_time": 173.1772727,
                "pitch": 81,
                "velocity": 64,
                "duration": 0.1590909,
                "tempo": 120.0
            },
            {
                "start_time": 173.2113636,
                "end_time": 173.3727273,
                "pitch": 84,
                "velocity": 64,
                "duration": 0.1613636,
                "tempo": 120.0
            },
            {
                "start_time": 173.4068182,
                "end_time": 173.5681818,
                "pitch": 81,
                "velocity": 64,
                "duration": 0.1613636,
                "tempo": 120.0
            },
            {
                "start_time": 173.6022727,
                "end_time": 173.7636364,
                "pitch": 86,
                "velocity": 64,
                "duration": 0.1613636,
                "tempo": 120.0
            },
            {
                "start_time": 173.7977273,
                "end_time": 173.9477273,
                "pitch": 81,
                "velocity": 64,
                "duration": 0.15,
                "tempo": 120.0
            },
            {
                "start_time": 174.1636364,
                "end_time": 174.4977273,
                "pitch": 88,
                "velocity": 64,
                "duration": 0.3340909,
                "tempo": 120.0
            }
        ]
    }
}