{
    "mood": "angry",
    "instruments": {
        "Acoustic Bass": [
            {
                "start_time": 0.0318182,
                "end_time": 0.2340909,
                "pitch": 43,
                "velocity": 101,
                "duration": 0.2022727,
                "tempo": 120.0
            },
            {
                "start_time": 0.2340909,
                "end_time": 0.4340909,
                "pitch": 43,
                "velocity": 101,
                "duration": 0.2,
                "tempo": 120.0
            },
            {
                "start_time": 0.4340909,
                "end_time": 0.6340909,
                "pitch": 55,
                "velocity": 101,
                "duration": 0.2,
                "tempo": 120.0
            },
            {
                "start_time": 0.6340909,
                "end_time": 0.8522727,
                "pitch": 55,
                "velocity": 101,
                "duration": 0.2181818,
                "tempo": 120.0
            },
            {
                "start_time": 0.8522727,
                "end_time": 1.0522727,
                "pitch": 43,
                "velocity": 101,
                "duration": 0.2,
                "tempo": 120.0
            },
            {
                "start_time": 1.0522727,
                "end_time": 1.2522727,
                "pitch": 43,
                "velocity": 101,
                "duration": 0.2,
                "tempo": 120.0
            },
            {
                "start_time": 1.2522727,
                "end_time": 1.475,
                "pitch": 55,
                "velocity": 101,
                "duration": 0.2227273,
                "tempo": 120.0
            },
            {
                "start_time": 1.475,
                "end_time": 1.6818182,
                "pitch": 43,
                "velocity": 101,
                "duration": 0.2068182,
                "tempo": 120.0
            },
            {
                "start_time": 1.6818182,
                "end_time": 1.8818182,
                "pitch": 39,
                "velocity": 101,
                "duration": 0.2,
                "tempo": 120.0
            },
            {
                "start_time": 1.8818182,
                "end_time": 2.0818182,
                "pitch": 39,
                "velocity": 101,
                "duration": 0.2,
                "tempo": 120.0
            },
            {
                "start_time": 2.0818182,
                "end_time": 2.2909091,
                "pitch": 51,
                "velocity": 101,
                "duration": 0.2090909,
                "tempo": 120.0
            },
            {
                "start_time": 2.2909091,
                "end_time": 2.4818182,
                "pitch": 51,
                "velocity": 101,
                "duration": 0.1909091,
                "tempo": 120.0
            },
            {
                "start_time": 2.4818182,
                "end_time": 2.6909091,
                "pitch": 39,
                "velocity": 101,
                "duration": 0.2090909,
                "tempo": 120.0
            },
            {
                "start_time": 2.6909091,
                "end_time": 2.9181818,
                "pitch": 39,
                "velocity": 101,
                "duration": 0.2272727,
                "tempo": 120.0
            },
            {
                "start_time": 2.9181818,
                "end_time": 3.1136364,
                "pitch": 51,
                "velocity": 101,
                "duration": 0.1954545,
                "tempo": 120.0
            },
            {
                "start_time": 3.1136364,
                "end_time": 3.3090909,
                "pitch": 39,
                "velocity": 101,
                "duration": 0.1954545,
                "tempo": 120.0
            },
            {
                "start_time": 3.3090909,
                "end_time": 3.5090909,
                "pitch": 31,
                "velocity": 101,
                "duration": 0.2,
                "tempo": 120.0
            },
            {
                "start_time": 3.5090909,
                "end_time": 3.725,
                "pitch": 31,
                "velocity": 101,
                "duration": 0.2159091,
                "tempo": 120.0
            },
            {
                "start_time": 3.725,
                "end_time": 3.9272727,
                "pitch": 31,
                "velocity": 101,
                "duration": 0.2022727,
                "tempo": 120.0
            },
            {
                "start_time": 3.9272727,
                "end_time": 4.1272727,
                "pitch": 31,
                "velocity": 101,
                "duration": 0.2,
                "tempo": 120.0
            },
            {
                "start_time": 4.1272727,
                "end_time": 4.3431818,
                "pitch": 31,
                "velocity": 101,
                "duration": 0.2159091,
                "tempo": 120.0
            },
            {
                "start_time": 4.3431818,
                "end_time": 4.5454545,
                "pitch": 31,
                "velocity": 101,
                "duration": 0.2022727,
                "tempo": 120.0
            },
            {
                "start_time": 4.5454545,
                "end_time": 4.7409091,
                "pitch": 31,
                "velocity": 101,
                "duration": 0.1954545,
                "tempo": 120.0
            },
            {
                "start_time": 4.7409091,
                "end_time": 4.9363636,
                "pitch": 31,
                "velocity": 101,
                "duration": 0.1954545,
                "tempo": 120.0
            },
            {
                "start_time": 4.9363636,
                "end_time": 5.1772727,
                "pitch": 39,
                "velocity": 101,
                "duration": 0.2409091,
                "tempo": 120.0
            },
            {
                "start_time": 5.1772727,
                "end_time": 5.5659091,
                "pitch": 39,
                "velocity": 101,
                "duration": 0.3886364,
                "tempo": 120.0
            },
            {
                "start_time": 5.5659091,
                "end_time": 5.7840909,
                "pitch": 39,
                "velocity": 101,
                "duration": 0.2181818,
                "tempo": 120.0
            },
            {
                "start_time": 5.7840909,
                "end_time": 5.9886364,
                "pitch": 41,
                "velocity": 101,
                "duration": 0.2045455,
                "tempo": 120.0
            },
            {
                "start_time": 5.9886364,
                "end_time": 6.3909091,
                "pitch": 41,
                "velocity": 101,
                "duration": 0.4022727,
                "tempo": 120.0
            },
            {
                "start_time": 6.3909091,
                "end_time": 6.6181818,
                "pitch": 41,
                "velocity": 101,
                "duration": 0.2272727,
                "tempo": 120.0
            },
            {
                "start_time": 6.6181818,
                "end_time": 6.8090909,
                "pitch": 43,
                "velocity": 101,
                "duration": 0.1909091,
                "tempo": 120.0
            },
            {
                "start_time": 6.8090909,
                "end_time": 7.0136364,
                "pitch": 43,
                "velocity": 101,
                "duration": 0.2045455,
                "tempo": 120.0
            },
            {
                "start_time": 7.0136364,
                "end_time": 7.2272727,
                "pitch": 55,
                "velocity": 101,
                "duration": 0.2136364,
                "tempo": 120.0
            },
            {
                "start_time": 7.2272727,
                "end_time": 7.425,
                "pitch": 55,
                "velocity": 101,
                "duration": 0.1977273,
                "tempo": 120.0
            },
            {
                "start_time": 7.425,
                "end_time": 7.6204545,
                "pitch": 43,
                "velocity": 101,
                "duration": 0.1954545,
                "tempo": 120.0
            },
            {
                "start_time": 7.6204545,
                "end_time": 7.8181818,
                "pitch": 43,
                "velocity": 101,
                "duration": 0.1977273,
                "tempo": 120.0
            },
            {
                "start_time": 7.8181818,
                "end_time": 8.0295455,
                "pitch": 55,
                "velocity": 101,
                "duration": 0.2113636,
                "tempo": 120.0
            },
            {
                "start_time": 8.0295455,
                "end_time": 8.2227273,
                "pitch": 43,
                "velocity": 101,
                "duration": 0.1931818,
                "tempo": 120.0
            },
            {
                "start_time": 8.2227273,
                "end_time": 8.4295455,
                "pitch": 39,
                "velocity": 101,
                "duration": 0.2068182,
                "tempo": 120.0
            },
            {
                "start_time": 8.4295455,
                "end_time": 8.6522727,
                "pitch": 39,
                "velocity": 101,
                "duration": 0.2227273,
                "tempo": 120.0
            },
            {
                "start_time": 8.6522727,
                "end_time": 8.8590909,
                "pitch": 51,
                "velocity": 101,
                "duration": 0.2068182,
                "tempo": 120.0
            },
            {
                "start_time": 8.8590909,
                "end_time": 9.0659091,
                "pitch": 51,
                "velocity": 101,
                "duration": 0.2068182,
                "tempo": 120.0
            },
            {
                "start_time": 9.0659091,
                "end_time": 9.2613636,
                "pitch": 39,
                "velocity": 101,
                "duration": 0.1954545,
                "tempo": 120.0
            },
            {
                "start_time": 9.2613636,
                "end_time": 9.4727273,
                "pitch": 39,
                "velocity": 101,
                "duration": 0.2113636,
                "tempo": 120.0
            },
            {
                "start_time": 9.4727273,
                "end_time": 9.6727273,
                "pitch": 51,
                "velocity": 101,
                "duration": 0.2,
                "tempo": 120.0
            },
            {
                "start_time": 9.6727273,
                "end_time": 9.8727273,
                "pitch": 39,
                "velocity": 101,
                "duration": 0.2,
                "tempo": 120.0
            },
            {
                "start_time": 9.8727273,
                "end_time": 10.0909091,
                "pitch": 41,
                "velocity": 101,
                "duration": 0.2181818,
                "tempo": 120.0
            },
            {
                "start_time": 10.0909091,
                "end_time": 10.2909091,
                "pitch": 41,
                "velocity": 101,
                "duration": 0.2,
                "tempo": 120.0
            },
            {
                "start_time": 10.2909091,
                "end_time": 10.4909091,
                "pitch": 53,
                "velocity": 101,
                "duration": 0.2,
                "tempo": 120.0
            },
            {
                "start_time": 10.4909091,
                "end_time": 10.6909091,
                "pitch": 53,
                "velocity": 101,
                "duration": 0.2,
                "tempo": 120.0
            },
            {
                "start_time": 10.6909091,
                "end_time": 10.9045455,
                "pitch": 41,
                "velocity": 101,
                "duration": 0.2136364,
                "tempo": 120.0
            },
            {
                "start_time": 10.9045455,
                "end_time": 11.1,
                "pitch": 41,
                "velocity": 101,
                "duration": 0.1954545,
                "tempo": 120.0
            },
            {
                "start_time": 11.1,
                "end_time": 11.3068182,
                "pitch": 53,
                "velocity": 101,
                "duration": 0.2068182,
                "tempo": 120.0
            },
            {
                "start_time": 11.3068182,
                "end_time": 11.5295455,
                "pitch": 41,
                "velocity": 101,
                "duration": 0.2227273,
                "tempo": 120.0
            },
            {
                "start_time": 11.5295455,
                "end_time": 11.7363636,
                "pitch": 39,
                "velocity": 101,
                "duration": 0.2068182,
                "tempo": 120.0
            },
            {
                "start_time": 11.7363636,
                "end_time": 11.9431818,
                "pitch": 39,
                "velocity": 101,
                "duration": 0.2068182,
                "tempo": 120.0
            },
            {
                "start_time": 11.9431818,
                "end_time": 12.3409091,
                "pitch": 39,
                "velocity": 101,
                "duration": 0.3977273,
                "tempo": 120.0
            },
            {
                "start_time": 12.3409091,
                "end_time": 12.55,
                "pitch": 41,
                "velocity": 101,
                "duration": 0.2090909,
                "tempo": 120.0
            },
            {
                "start_time": 12.55,
                "end_time": 12.7613636,
                "pitch": 41,
                "velocity": 101,
                "duration": 0.2113636,
                "tempo": 120.0
            },
            {
                "start_time": 12.7613636,
                "end_time": 13.1704545,
                "pitch": 41,
                "velocity": 101,
                "duration": 0.4090909,
                "tempo": 120.0
            },
            {
                "start_time": 13.1704545,
                "end_time": 13.3772727,
                "pitch": 41,
                "velocity": 101,
                "duration": 0.2068182,
                "tempo": 120.0
            },
            {
                "start_time": 13.3772727,
                "end_time": 13.6,
                "pitch": 42,
                "velocity": 101,
                "duration": 0.2227273,
                "tempo": 120.0
            },
            {
                "start_time": 13.6,
                "end_time": 13.8,
                "pitch": 42,
                "velocity": 101,
                "duration": 0.2,
                "tempo": 120.0
            },
            {
                "start_time": 13.8,
                "end_time": 14.0,
                "pitch": 42,
                "velocity": 101,
                "duration": 0.2,
                "tempo": 120.0
            },
            {
                "start_time": 14.0,
                "end_time": 14.1977273,
                "pitch": 42,
                "velocity": 101,
                "duration": 0.1977273,
                "tempo": 120.0
            },
            {
                "start_time": 14.1977273,
                "end_time": 14.4113636,
                "pitch": 42,
                "velocity": 101,
                "duration": 0.2136364,
                "tempo": 120.0
            },
            {
                "start_time": 14.4113636,
                "end_time": 14.6113636,
                "pitch": 42,
                "velocity": 101,
                "duration": 0.2,
                "tempo": 120.0
            },
            {
                "start_time": 14.6113636,
                "end_time": 14.8113636,
                "pitch": 42,
                "velocity": 101,
                "duration": 0.2,
                "tempo": 120.0
            },
            {
                "start_time": 14.8113636,
                "end_time": 14.8272727,
                "pitch": 42,
                "velocity": 101,
                "duration": 0.0159091,
                "tempo": 120.0
            },
            {
                "start_time": 14.8272727,
                "end_time": 15.0340909,
                "pitch": 39,
                "velocity": 101,
                "duration": 0.2068182,
                "tempo": 120.0
            },
            {
                "start_time": 15.0340909,
                "end_time": 15.2409091,
                "pitch": 39,
                "velocity": 101,
                "duration": 0.2068182,
                "tempo": 120.0
            },
            {
                "start_time": 15.2409091,
                "end_time": 15.4363636,
                "pitch": 39,
                "velocity": 101,
                "duration": 0.1954545,
                "tempo": 120.0
            },
            {
                "start_time": 15.4363636,
                "end_time": 15.6340909,
                "pitch": 39,
                "velocity": 101,
                "duration": 0.1977273,
                "tempo": 120.0
            },
            {
                "start_time": 15.6340909,
                "end_time": 15.85,
                "pitch": 39,
                "velocity": 101,
                "duration": 0.2159091,
                "tempo": 120.0
            },
            {
                "start_time": 15.85,
                "end_time": 16.05,
                "pitch": 39,
                "velocity": 101,
                "duration": 0.2,
                "tempo": 120.0
            },
            {
                "start_time": 16.05,
                "end_time": 16.25,
                "pitch": 39,
                "velocity": 101,
                "duration": 0.2,
                "tempo": 120.0
            },
            {
                "start_time": 16.25,
                "end_time": 16.4840909,
                "pitch": 39,
                "velocity": 101,
                "duration": 0.2340909,
                "tempo": 120.0
            },
            {
                "start_time": 16.4840909,
                "end_time": 16.675,
                "pitch": 39,
                "velocity": 101,
                "duration": 0.1909091,
                "tempo": 120.0
            },
            {
                "start_time": 16.675,
                "end_time": 16.8795455,
                "pitch": 38,
                "velocity": 101,
                "duration": 0.2045455,
                "tempo": 120.0
            },
            {
                "start_time": 16.8795455,
                "end_time": 17.0727273,
                "pitch": 38,
                "velocity": 101,
                "duration": 0.1931818,
                "tempo": 120.0
            },
            {
                "start_time": 17.0727273,
                "end_time": 17.2795455,
                "pitch": 38,
                "velocity": 101,
                "duration": 0.2068182,
                "tempo": 120.0
            },
            {
                "start_time": 17.2795455,
                "end_time": 17.4840909,
                "pitch": 38,
                "velocity": 101,
                "duration": 0.2045455,
                "tempo": 120.0
            },
            {
                "start_time": 17.4840909,
                "end_time": 17.6909091,
                "pitch": 38,
                "velocity": 101,
                "duration": 0.2068182,
                "tempo": 120.0
            },
            {
                "start_time": 17.6909091,
                "end_time": 17.9045455,
                "pitch": 38,
                "velocity": 101,
                "duration": 0.2136364,
                "tempo": 120.0
            },
            {
                "start_time": 17.9045455,
                "end_time": 18.1159091,
                "pitch": 38,
                "velocity": 101,
                "duration": 0.2113636,
                "tempo": 120.0
            },
            {
                "start_time": 18.1159091,
                "end_time": 18.3090909,
                "pitch": 38,
                "velocity": 101,
                "duration": 0.1931818,
                "tempo": 120.0
            },
            {
                "start_time": 18.3090909,
                "end_time": 18.5204545,
                "pitch": 37,
                "velocity": 101,
                "duration": 0.2113636,
                "tempo": 120.0
            },
            {
                "start_time": 18.5204545,
                "end_time": 18.7272727,
                "pitch": 37,
                "velocity": 101,
                "duration": 0.2068182,
                "tempo": 120.0
            },
            {
                "start_time": 18.7272727,
                "end_time": 18.9204545,
                "pitch": 37,
                "velocity": 101,
                "duration": 0.1931818,
                "tempo": 120.0
            },
            {
                "start_time": 18.9204545,
                "end_time": 19.1204545,
                "pitch": 37,
                "velocity": 101,
                "duration": 0.2,
                "tempo": 120.0
            },
            {
                "start_time": 19.1204545,
                "end_time": 19.3363636,
                "pitch": 37,
                "velocity": 101,
                "duration": 0.2159091,
                "tempo": 120.0
            },
            {
                "start_time": 19.3363636,
                "end_time": 19.5431818,
                "pitch": 37,
                "velocity": 101,
                "duration": 0.2068182,
                "tempo": 120.0
            },
            {
                "start_time": 19.5431818,
                "end_time": 19.7659091,
                "pitch": 37,
                "velocity": 101,
                "duration": 0.2227273,
                "tempo": 120.0
            },
            {
                "start_time": 19.7659091,
                "end_time": 19.95,
                "pitch": 37,
                "velocity": 101,
                "duration": 0.1840909,
                "tempo": 120.0
            },
            {
                "start_time": 19.95,
                "end_time": 20.1681818,
                "pitch": 36,
                "velocity": 101,
                "duration": 0.2181818,
                "tempo": 120.0
            },
            {
                "start_time": 20.1681818,
                "end_time": 20.3681818,
                "pitch": 36,
                "velocity": 101,
                "duration": 0.2,
                "tempo": 120.0
            },
            {
                "start_time": 20.3681818,
                "end_time": 20.5681818,
                "pitch": 36,
                "velocity": 101,
                "duration": 0.2,
                "tempo": 120.0
            },
            {
                "start_time": 20.5681818,
                "end_time": 20.7818182,
                "pitch": 36,
                "velocity": 101,
                "duration": 0.2136364,
                "tempo": 120.0
            },
            {
                "start_time": 20.7818182,
                "end_time": 20.9772727,
                "pitch": 36,
                "velocity": 101,
                "duration": 0.1954545,
                "tempo": 120.0
            },
            {
                "start_time": 20.9772727,
                "end_time": 21.1863636,
                "pitch": 36,
                "velocity": 101,
                "duration": 0.2090909,
                "tempo": 120.0
            },
            {
                "start_time": 21.1863636,
                "end_time": 21.4136364,
                "pitch": 36,
                "velocity": 101,
                "duration": 0.2272727,
                "tempo": 120.0
            },
            {
                "start_time": 21.4136364,
                "end_time": 21.6113636,
                "pitch": 36,
                "velocity": 101,
                "duration": 0.1977273,
                "tempo": 120.0
            },
            {
                "start_time": 21.6113636,
                "end_time": 21.8045455,
                "pitch": 36,
                "velocity": 101,
                "duration": 0.1931818,
                "tempo": 120.0
            },
            {
                "start_time": 21.8045455,
                "end_time": 22.0,
                "pitch": 36,
                "velocity": 101,
                "duration": 0.1954545,
                "tempo": 120.0
            },
            {
                "start_time": 22.0,
                "end_time": 22.2113636,
                "pitch": 36,
                "velocity": 101,
                "duration": 0.2113636,
                "tempo": 120.0
            },
            {
                "start_time": 22.2113636,
                "end_time": 22.4204545,
                "pitch": 36,
                "velocity": 101,
                "duration": 0.2090909,
                "tempo": 120.0
            },
            {
                "start_time": 22.4204545,
                "end_time": 22.6318182,
                "pitch": 36,
                "velocity": 101,
                "duration": 0.2113636,
                "tempo": 120.0
            },
            {
                "start_time": 22.6318182,
                "end_time": 22.8272727,
                "pitch": 36,
                "velocity": 101,
                "duration": 0.1954545,
                "tempo": 120.0
            },
            {
                "start_time": 22.8272727,
                "end_time": 23.0568182,
                "pitch": 36,
                "velocity": 101,
                "duration": 0.2295455,
                "tempo": 120.0
            },
            {
                "start_time": 23.0568182,
                "end_time": 23.0727273,
                "pitch": 43,
                "velocity": 101,
                "duration": 0.0159091,
                "tempo": 120.0
            }
        ]
    }
}