{
    "mood": "angry",
    "instruments": {
        "Acoustic Bass": [
            {
                "start_time": 0.0340909,
                "end_time": 0.1159091,
                "pitch": 35,
                "velocity": 64,
                "duration": 0.0818182,
                "tempo": 120.0
            },
            {
                "start_time": 0.1159091,
                "end_time": 0.2340909,
                "pitch": 35,
                "velocity": 64,
                "duration": 0.1181818,
                "tempo": 120.0
            },
            {
                "start_time": 0.2340909,
                "end_time": 0.3159091,
                "pitch": 47,
                "velocity": 64,
                "duration": 0.0818182,
                "tempo": 120.0
            },
            {
                "start_time": 0.3159091,
                "end_time": 0.4340909,
                "pitch": 47,
                "velocity": 64,
                "duration": 0.1181818,
                "tempo": 120.0
            },
            {
                "start_time": 0.4340909,
                "end_time": 0.5159091,
                "pitch": 35,
                "velocity": 64,
                "duration": 0.0818182,
                "tempo": 120.0
            },
            {
                "start_time": 0.5159091,
                "end_time": 0.6340909,
                "pitch": 35,
                "velocity": 64,
                "duration": 0.1181818,
                "tempo": 120.0
            },
            {
                "start_time": 0.6340909,
                "end_time": 0.7159091,
                "pitch": 47,
                "velocity": 64,
                "duration": 0.0818182,
                "tempo": 120.0
            },
            {
                "start_time": 0.7159091,
                "end_time": 0.8340909,
                "pitch": 47,
                "velocity": 64,
                "duration": 0.1181818,
                "tempo": 120.0
            },
            {
                "start_time": 0.8340909,
                "end_time": 0.9159091,
                "pitch": 35,
                "velocity": 64,
                "duration": 0.0818182,
                "tempo": 120.0
            },
            {
                "start_time": 0.9159091,
                "end_time": 1.0340909,
                "pitch": 35,
                "velocity": 64,
                "duration": 0.1181818,
                "tempo": 120.0
            },
            {
                "start_time": 1.0340909,
                "end_time": 1.1159091,
                "pitch": 47,
                "velocity": 64,
                "duration": 0.0818182,
                "tempo": 120.0
            },
            {
                "start_time": 1.1159091,
                "end_time": 1.2340909,
                "pitch": 47,
                "velocity": 64,
                "duration": 0.1181818,
                "tempo": 120.0
            },
            {
                "start_time": 1.2340909,
                "end_time": 1.3159091,
                "pitch": 35,
                "velocity": 64,
                "duration": 0.0818182,
                "tempo": 120.0
            },
            {
                "start_time": 1.3159091,
                "end_time": 1.4340909,
                "pitch": 47,
                "velocity": 64,
                "duration": 0.1181818,
                "tempo": 120.0
            },
            {
                "start_time": 1.4340909,
                "end_time": 1.5159091,
                "pitch": 35,
                "velocity": 64,
                "duration": 0.0818182,
                "tempo": 120.0
            },
            {
                "start_time": 1.5159091,
                "end_time": 1.6340909,
                "pitch": 47,
                "velocity": 64,
                "duration": 0.1181818,
                "tempo": 120.0
            },
            {
                "start_time": 1.6340909,
                "end_time": 1.7159091,
                "pitch": 35,
                "velocity": 64,
                "duration": 0.0818182,
                "tempo": 120.0
            },
            {
                "start_time": 1.7159091,
                "end_time": 1.8340909,
                "pitch": 35,
                "velocity": 64,
                "duration": 0.1181818,
                "tempo": 120.0
            },
            {
                "start_time": 1.8340909,
                "end_time": 1.9159091,
                "pitch": 47,
                "velocity": 64,
                "duration": 0.0818182,
                "tempo": 120.0
            },
            {
                "start_time": 1.9159091,
                "end_time": 2.0340909,
                "pitch": 47,
                "velocity": 64,
                "duration": 0.1181818,
                "tempo": 120.0
            },
            {
                "start_time": 2.0340909,
                "end_time": 2.1181818,
                "pitch": 35,
                "velocity": 64,
                "duration": 0.0840909,
                "tempo": 120.0
            },
            {
                "start_time": 2.1181818,
                "end_time": 2.2386364,
                "pitch": 35,
                "velocity": 64,
                "duration": 0.1204545,
                "tempo": 120.0
            },
            {
                "start_time": 2.2386364,
                "end_time": 2.325,
                "pitch": 47,
                "velocity": 64,
                "duration": 0.0863636,
                "tempo": 120.0
            },
            {
                "start_time": 2.325,
                "end_time": 2.4431818,
                "pitch": 47,
                "velocity": 64,
                "duration": 0.1181818,
                "tempo": 120.0
            },
            {
                "start_time": 2.4431818,
                "end_time": 2.525,
                "pitch": 35,
                "velocity": 64,
                "duration": 0.0818182,
                "tempo": 120.0
            },
            {
                "start_time": 2.525,
                "end_time": 2.6409091,
                "pitch": 35,
                "velocity": 64,
                "duration": 0.1159091,
                "tempo": 120.0
            },
            {
                "start_time": 2.6409091,
                "end_time": 2.7227273,
                "pitch": 47,
                "velocity": 64,
                "duration": 0.0818182,
                "tempo": 120.0
            },
            {
                "start_time": 2.7227273,
                "end_time": 2.8363636,
                "pitch": 47,
                "velocity": 64,
                "duration": 0.1136364,
                "tempo": 120.0
            },
            {
                "start_time": 2.8363636,
                "end_time": 2.9204545,
                "pitch": 35,
                "velocity": 64,
                "duration": 0.0840909,
                "tempo": 120.0
            },
            {
                "start_time": 2.9204545,
                "end_time": 3.0363636,
                "pitch": 47,
                "velocity": 64,
                "duration": 0.1159091,
                "tempo": 120.0
            },
            {
                "start_time": 3.0363636,
                "end_time": 3.1204545,
                "pitch": 35,
                "velocity": 64,
                "duration": 0.0840909,
                "tempo": 120.0
            },
            {
                "start_time": 3.1204545,
                "end_time": 3.2363636,
                "pitch": 47,
                "velocity": 64,
                "duration": 0.1159091,
                "tempo": 120.0
            },
            {
                "start_time": 3.2363636,
                "end_time": 3.3204545,
                "pitch": 35,
                "velocity": 64,
                "duration": 0.0840909,
                "tempo": 120.0
            },
            {
                "start_time": 3.3204545,
                "end_time": 3.4363636,
                "pitch": 35,
                "velocity": 64,
                "duration": 0.1159091,
                "tempo": 120.0
            },
            {
                "start_time": 3.4363636,
                "end_time": 3.5204545,
                "pitch": 47,
                "velocity": 64,
                "duration": 0.0840909,
                "tempo": 120.0
            },
            {
                "start_time": 3.5204545,
                "end_time": 3.6363636,
                "pitch": 47,
                "velocity": 64,
                "duration": 0.1159091,
                "tempo": 120.0
            },
            {
                "start_time": 3.6363636,
                "end_time": 3.7204545,
                "pitch": 35,
                "velocity": 64,
                "duration": 0.0840909,
                "tempo": 120.0
            },
            {
                "start_time": 3.7204545,
                "end_time": 3.8363636,
                "pitch": 35,
                "velocity": 64,
                "duration": 0.1159091,
                "tempo": 120.0
            },
            {
                "start_time": 3.8363636,
                "end_time": 3.9204545,
                "pitch": 47,
                "velocity": 64,
                "duration": 0.0840909,
                "tempo": 120.0
            },
            {
                "start_time": 3.9204545,
                "end_time": 4.0363636,
                "pitch": 47,
                "velocity": 64,
                "duration": 0.1159091,
                "tempo": 120.0
            },
            {
                "start_time": 4.0363636,
                "end_time": 4.1204545,
                "pitch": 35,
                "velocity": 64,
                "duration": 0.0840909,
                "tempo": 120.0
            },
            {
                "start_time": 4.1204545,
                "end_time": 4.2386364,
                "pitch": 35,
                "velocity": 64,
                "duration": 0.1181818,
                "tempo": 120.0
            },
            {
                "start_time": 4.2386364,
                "end_time": 4.3204545,
                "pitch": 47,
                "velocity": 64,
                "duration": 0.0818182,
                "tempo": 120.0
            },
            {
                "start_time": 4.3204545,
                "end_time": 4.4386364,
                "pitch": 47,
                "velocity": 64,
                "duration": 0.1181818,
                "tempo": 120.0
            },
            {
                "start_time": 4.4386364,
                "end_time": 4.525,
                "pitch": 35,
                "velocity": 64,
                "duration": 0.0863636,
                "tempo": 120.0
            },
            {
                "start_time": 4.525,
                "end_time": 4.6431818,
                "pitch": 47,
                "velocity": 64,
                "duration": 0.1181818,
                "tempo": 120.0
            },
            {
                "start_time": 4.6431818,
                "end_time": 4.7295455,
                "pitch": 35,
                "velocity": 64,
                "duration": 0.0863636,
                "tempo": 120.0
            },
            {
                "start_time": 4.7295455,
                "end_time": 4.85,
                "pitch": 47,
                "velocity": 64,
                "duration": 0.1204545,
                "tempo": 120.0
            },
            {
                "start_time": 4.85,
                "end_time": 4.9318182,
                "pitch": 40,
                "velocity": 64,
                "duration": 0.0818182,
                "tempo": 120.0
            },
            {
                "start_time": 4.9318182,
                "end_time": 5.0454545,
                "pitch": 40,
                "velocity": 64,
                "duration": 0.1136364,
                "tempo": 120.0
            },
            {
                "start_time": 5.0454545,
                "end_time": 5.1272727,
                "pitch": 52,
                "velocity": 64,
                "duration": 0.0818182,
                "tempo": 120.0
            },
            {
                "start_time": 5.1272727,
                "end_time": 5.2409091,
                "pitch": 52,
                "velocity": 64,
                "duration": 0.1136364,
                "tempo": 120.0
            },
            {
                "start_time": 5.2409091,
                "end_time": 5.325,
                "pitch": 40,
                "velocity": 64,
                "duration": 0.0840909,
                "tempo": 120.0
            },
            {
                "start_time": 5.325,
                "end_time": 5.4272727,
                "pitch": 39,
                "velocity": 64,
                "duration": 0.1022727,
                "tempo": 120.0
            },
            {
                "start_time": 5.4431818,
                "end_time": 5.5272727,
                "pitch": 51,
                "velocity": 64,
                "duration": 0.0840909,
                "tempo": 120.0
            },
            {
                "start_time": 5.5272727,
                "end_time": 5.6454545,
                "pitch": 51,
                "velocity": 64,
                "duration": 0.1181818,
                "tempo": 120.0
            },
            {
                "start_time": 5.6454545,
                "end_time": 5.7272727,
                "pitch": 39,
                "velocity": 64,
                "duration": 0.0818182,
                "tempo": 120.0
            },
            {
                "start_time": 5.7272727,
                "end_time": 5.8454545,
                "pitch": 38,
                "velocity": 64,
                "duration": 0.1181818,
                "tempo": 120.0
            },
            {
                "start_time": 5.8454545,
                "end_time": 5.9272727,
                "pitch": 50,
                "velocity": 64,
                "duration": 0.0818182,
                "tempo": 120.0
            },
            {
                "start_time": 5.9272727,
                "end_time": 6.0454545,
                "pitch": 50,
                "velocity": 64,
                "duration": 0.1181818,
                "tempo": 120.0
            },
            {
                "start_time": 6.0454545,
                "end_time": 6.1272727,
                "pitch": 38,
                "velocity": 64,
                "duration": 0.0818182,
                "tempo": 120.0
            },
            {
                "start_time": 6.1272727,
                "end_time": 6.2295455,
                "pitch": 37,
                "velocity": 64,
                "duration": 0.1022727,
                "tempo": 120.0
            },
            {
                "start_time": 6.2295455,
                "end_time": 6.3295455,
                "pitch": 49,
                "velocity": 64,
                "duration": 0.1,
                "tempo": 120.0
            },
            {
                "start_time": 6.3295455,
                "end_time": 6.4477273,
                "pitch": 49,
                "velocity": 64,
                "duration": 0.1181818,
                "tempo": 120.0
            },
            {
                "start_time": 6.4477273,
                "end_time": 6.5318182,
                "pitch": 35,
                "velocity": 64,
                "duration": 0.0840909,
                "tempo": 120.0
            },
            {
                "start_time": 6.5318182,
                "end_time": 6.6522727,
                "pitch": 35,
                "velocity": 64,
                "duration": 0.1204545,
                "tempo": 120.0
            },
            {
                "start_time": 6.6522727,
                "end_time": 6.7386364,
                "pitch": 47,
                "velocity": 64,
                "duration": 0.0863636,
                "tempo": 120.0
            },
            {
                "start_time": 6.7386364,
                "end_time": 6.8568182,
                "pitch": 47,
                "velocity": 64,
                "duration": 0.1181818,
                "tempo": 120.0
            },
            {
                "start_time": 6.8568182,
                "end_time": 6.9386364,
                "pitch": 35,
                "velocity": 64,
                "duration": 0.0818182,
                "tempo": 120.0
            },
            {
                "start_time": 6.9386364,
                "end_time": 7.0545455,
                "pitch": 35,
                "velocity": 64,
                "duration": 0.1159091,
                "tempo": 120.0
            },
            {
                "start_time": 7.0545455,
                "end_time": 7.1363636,
                "pitch": 47,
                "velocity": 64,
                "duration": 0.0818182,
                "tempo": 120.0
            },
            {
                "start_time": 7.1363636,
                "end_time": 7.25,
                "pitch": 47,
                "velocity": 64,
                "duration": 0.1136364,
                "tempo": 120.0
            },
            {
                "start_time": 7.25,
                "end_time": 7.3340909,
                "pitch": 35,
                "velocity": 64,
                "duration": 0.0840909,
                "tempo": 120.0
            },
            {
                "start_time": 7.3340909,
                "end_time": 7.4522727,
                "pitch": 35,
                "velocity": 64,
                "duration": 0.1181818,
                "tempo": 120.0
            },
            {
                "start_time": 7.4522727,
                "end_time": 7.5363636,
                "pitch": 47,
                "velocity": 64,
                "duration": 0.0840909,
                "tempo": 120.0
            },
            {
                "start_time": 7.5363636,
                "end_time": 7.6522727,
                "pitch": 47,
                "velocity": 64,
                "duration": 0.1159091,
                "tempo": 120.0
            },
            {
                "start_time": 7.6522727,
                "end_time": 7.7363636,
                "pitch": 35,
                "velocity": 64,
                "duration": 0.0840909,
                "tempo": 120.0
            },
            {
                "start_time": 7.7363636,
                "end_time": 7.8522727,
                "pitch": 47,
                "velocity": 64,
                "duration": 0.1159091,
                "tempo": 120.0
            },
            {
                "start_time": 7.8522727,
                "end_time": 7.9363636,
                "pitch": 35,
                "velocity": 64,
                "duration": 0.0840909,
                "tempo": 120.0
            },
            {
                "start_time": 7.9363636,
                "end_time": 8.0522727,
                "pitch": 47,
                "velocity": 64,
                "duration": 0.1159091,
                "tempo": 120.0
            },
            {
                "start_time": 8.0522727,
                "end_time": 8.1363636,
                "pitch": 35,
                "velocity": 64,
                "duration": 0.0840909,
                "tempo": 120.0
            },
            {
                "start_time": 8.1363636,
                "end_time": 8.2363636,
                "pitch": 35,
                "velocity": 64,
                "duration": 0.1,
                "tempo": 120.0
            },
            {
                "start_time": 8.2522727,
                "end_time": 8.3363636,
                "pitch": 47,
                "velocity": 64,
                "duration": 0.0840909,
                "tempo": 120.0
            },
            {
                "start_time": 8.3363636,
                "end_time": 8.4522727,
                "pitch": 47,
                "velocity": 64,
                "duration": 0.1159091,
                "tempo": 120.0
            },
            {
                "start_time": 8.4522727,
                "end_time": 8.5363636,
                "pitch": 35,
                "velocity": 64,
                "duration": 0.0840909,
                "tempo": 120.0
            },
            {
                "start_time": 8.5363636,
                "end_time": 8.6545455,
                "pitch": 35,
                "velocity": 64,
                "duration": 0.1181818,
                "tempo": 120.0
            },
            {
                "start_time": 8.6545455,
                "end_time": 8.7386364,
                "pitch": 47,
                "velocity": 64,
                "duration": 0.0840909,
                "tempo": 120.0
            },
            {
                "start_time": 8.7386364,
                "end_time": 8.8545455,
                "pitch": 47,
                "velocity": 64,
                "duration": 0.1159091,
                "tempo": 120.0
            },
            {
                "start_time": 8.8545455,
                "end_time": 8.9386364,
                "pitch": 35,
                "velocity": 64,
                "duration": 0.0840909,
                "tempo": 120.0
            },
            {
                "start_time": 8.9386364,
                "end_time": 9.0568182,
                "pitch": 35,
                "velocity": 64,
                "duration": 0.1181818,
                "tempo": 120.0
            },
            {
                "start_time": 9.0568182,
                "end_time": 9.1409091,
                "pitch": 47,
                "velocity": 64,
                "duration": 0.0840909,
                "tempo": 120.0
            },
            {
                "start_time": 9.1409091,
                "end_time": 9.2590909,
                "pitch": 47,
                "velocity": 64,
                "duration": 0.1181818,
                "tempo": 120.0
            },
            {
                "start_time": 9.2590909,
                "end_time": 9.3409091,
                "pitch": 35,
                "velocity": 64,
                "duration": 0.0818182,
                "tempo": 120.0
            },
            {
                "start_time": 9.3409091,
                "end_time": 9.4590909,
                "pitch": 47,
                "velocity": 64,
                "duration": 0.1181818,
                "tempo": 120.0
            },
            {
                "start_time": 9.4590909,
                "end_time": 9.5431818,
                "pitch": 35,
                "velocity": 64,
                "duration": 0.0840909,
                "tempo": 120.0
            },
            {
                "start_time": 9.5431818,
                "end_time": 9.6613636,
                "pitch": 47,
                "velocity": 64,
                "duration": 0.1181818,
                "tempo": 120.0
            },
            {
                "start_time": 9.6613636,
                "end_time": 9.7454545,
                "pitch": 35,
                "velocity": 64,
                "duration": 0.0840909,
                "tempo": 120.0
            },
            {
                "start_time": 9.7454545,
                "end_time": 9.8613636,
                "pitch": 35,
                "velocity": 64,
                "duration": 0.1159091,
                "tempo": 120.0
            },
            {
                "start_time": 9.8613636,
                "end_time": 9.9454545,
                "pitch": 47,
                "velocity": 64,
                "duration": 0.0840909,
                "tempo": 120.0
            },
            {
                "start_time": 9.9454545,
                "end_time": 10.0636364,
                "pitch": 47,
                "velocity": 64,
                "duration": 0.1181818,
                "tempo": 120.0
            },
            {
                "start_time": 10.0636364,
                "end_time": 10.1477273,
                "pitch": 35,
                "velocity": 64,
                "duration": 0.0840909,
                "tempo": 120.0
            },
            {
                "start_time": 10.1477273,
                "end_time": 10.2636364,
                "pitch": 35,
                "velocity": 64,
                "duration": 0.1159091,
                "tempo": 120.0
            },
            {
                "start_time": 10.2636364,
                "end_time": 10.3477273,
                "pitch": 47,
                "velocity": 64,
                "duration": 0.0840909,
                "tempo": 120.0
            },
            {
                "start_time": 10.3477273,
                "end_time": 10.4636364,
                "pitch": 47,
                "velocity": 64,
                "duration": 0.1159091,
                "tempo": 120.0
            },
            {
                "start_time": 10.4636364,
                "end_time": 10.5477273,
                "pitch": 35,
                "velocity": 64,
                "duration": 0.0840909,
                "tempo": 120.0
            },
            {
                "start_time": 10.5477273,
                "end_time": 10.6659091,
                "pitch": 35,
                "velocity": 64,
                "duration": 0.1181818,
                "tempo": 120.0
            },
            {
                "start_time": 10.6659091,
                "end_time": 10.7477273,
                "pitch": 47,
                "velocity": 64,
                "duration": 0.0818182,
                "tempo": 120.0
            },
            {
                "start_time": 10.7477273,
                "end_time": 10.8659091,
                "pitch": 47,
                "velocity": 64,
                "duration": 0.1181818,
                "tempo": 120.0
            },
            {
                "start_time": 10.8659091,
                "end_time": 10.95,
                "pitch": 35,
                "velocity": 64,
                "duration": 0.0840909,
                "tempo": 120.0
            },
            {
                "start_time": 10.95,
                "end_time": 11.0681818,
                "pitch": 47,
                "velocity": 64,
                "duration": 0.1181818,
                "tempo": 120.0
            },
            {
                "start_time": 11.0681818,
                "end_time": 11.1522727,
                "pitch": 35,
                "velocity": 64,
                "duration": 0.0840909,
                "tempo": 120.0
            },
            {
                "start_time": 11.1522727,
                "end_time": 11.2681818,
                "pitch": 47,
                "velocity": 64,
                "duration": 0.1159091,
                "tempo": 120.0
            },
            {
                "start_time": 11.2681818,
                "end_time": 11.3522727,
                "pitch": 40,
                "velocity": 64,
                "duration": 0.0840909,
                "tempo": 120.0
            },
            {
                "start_time": 11.3522727,
                "end_time": 11.4545455,
                "pitch": 40,
                "velocity": 64,
                "duration": 0.1022727,
                "tempo": 120.0
            },
            {
                "start_time": 11.4545455,
                "end_time": 11.5545455,
                "pitch": 52,
                "velocity": 64,
                "duration": 0.1,
                "tempo": 120.0
            },
            {
                "start_time": 11.5545455,
                "end_time": 11.6545455,
                "pitch": 52,
                "velocity": 64,
                "duration": 0.1,
                "tempo": 120.0
            },
            {
                "start_time": 11.6545455,
                "end_time": 11.7568182,
                "pitch": 40,
                "velocity": 64,
                "duration": 0.1022727,
                "tempo": 120.0
            },
            {
                "start_time": 11.7568182,
                "end_time": 11.8590909,
                "pitch": 39,
                "velocity": 64,
                "duration": 0.1022727,
                "tempo": 120.0
            },
            {
                "start_time": 11.8590909,
                "end_time": 11.9636364,
                "pitch": 51,
                "velocity": 64,
                "duration": 0.1045455,
                "tempo": 120.0
            },
            {
                "start_time": 11.9636364,
                "end_time": 12.0818182,
                "pitch": 51,
                "velocity": 64,
                "duration": 0.1181818,
                "tempo": 120.0
            },
            {
                "start_time": 12.0818182,
                "end_time": 12.1659091,
                "pitch": 39,
                "velocity": 64,
                "duration": 0.0840909,
                "tempo": 120.0
            },
            {
                "start_time": 12.1659091,
                "end_time": 12.2659091,
                "pitch": 38,
                "velocity": 64,
                "duration": 0.1,
                "tempo": 120.0
            },
            {
                "start_time": 12.2659091,
                "end_time": 12.3659091,
                "pitch": 50,
                "velocity": 64,
                "duration": 0.1,
                "tempo": 120.0
            },
            {
                "start_time": 12.3659091,
                "end_time": 12.4659091,
                "pitch": 50,
                "velocity": 64,
                "duration": 0.1,
                "tempo": 120.0
            },
            {
                "start_time": 12.4659091,
                "end_time": 12.5636364,
                "pitch": 38,
                "velocity": 64,
                "duration": 0.0977273,
                "tempo": 120.0
            },
            {
                "start_time": 12.5636364,
                "end_time": 12.6613636,
                "pitch": 37,
                "velocity": 64,
                "duration": 0.0977273,
                "tempo": 120.0
            },
            {
                "start_time": 12.6613636,
                "end_time": 12.7613636,
                "pitch": 49,
                "velocity": 64,
                "duration": 0.1,
                "tempo": 120.0
            },
            {
                "start_time": 12.7613636,
                "end_time": 12.8590909,
                "pitch": 49,
                "velocity": 64,
                "duration": 0.0977273,
                "tempo": 120.0
            },
            {
                "start_time": 12.875,
                "end_time": 12.975,
                "pitch": 35,
                "velocity": 64,
                "duration": 0.1,
                "tempo": 120.0
            },
            {
                "start_time": 12.975,
                "end_time": 13.0590909,
                "pitch": 35,
                "velocity": 64,
                "duration": 0.0840909,
                "tempo": 120.0
            },
            {
                "start_time": 13.0590909,
                "end_time": 13.1590909,
                "pitch": 35,
                "velocity": 64,
                "duration": 0.1,
                "tempo": 120.0
            },
            {
                "start_time": 13.1590909,
                "end_time": 13.2613636,
                "pitch": 35,
                "velocity": 64,
                "duration": 0.1022727,
                "tempo": 120.0
            },
            {
                "start_time": 13.2613636,
                "end_time": 13.3795455,
                "pitch": 35,
                "velocity": 64,
                "duration": 0.1181818,
                "tempo": 120.0
            },
            {
                "start_time": 13.3795455,
                "end_time": 13.4659091,
                "pitch": 35,
                "velocity": 64,
                "duration": 0.0863636,
                "tempo": 120.0
            },
            {
                "start_time": 13.4659091,
                "end_time": 13.5681818,
                "pitch": 47,
                "velocity": 64,
                "duration": 0.1022727,
                "tempo": 120.0
            },
            {
                "start_time": 13.5681818,
                "end_time": 13.6704545,
                "pitch": 47,
                "velocity": 64,
                "duration": 0.1022727,
                "tempo": 120.0
            },
            {
                "start_time": 13.6704545,
                "end_time": 13.7659091,
                "pitch": 47,
                "velocity": 64,
                "duration": 0.0954545,
                "tempo": 120.0
            },
            {
                "start_time": 13.7659091,
                "end_time": 13.8613636,
                "pitch": 47,
                "velocity": 64,
                "duration": 0.0954545,
                "tempo": 120.0
            },
            {
                "start_time": 13.8613636,
                "end_time": 13.9590909,
                "pitch": 47,
                "velocity": 64,
                "duration": 0.0977273,
                "tempo": 120.0
            },
            {
                "start_time": 13.9590909,
                "end_time": 14.0545455,
                "pitch": 47,
                "velocity": 64,
                "duration": 0.0954545,
                "tempo": 120.0
            },
            {
                "start_time": 14.0545455,
                "end_time": 14.1545455,
                "pitch": 47,
                "velocity": 64,
                "duration": 0.1,
                "tempo": 120.0
            },
            {
                "start_time": 14.1545455,
                "end_time": 14.2545455,
                "pitch": 47,
                "velocity": 64,
                "duration": 0.1,
                "tempo": 120.0
            },
            {
                "start_time": 14.2545455,
                "end_time": 14.3545455,
                "pitch": 47,
                "velocity": 64,
                "duration": 0.1,
                "tempo": 120.0
            },
            {
                "start_time": 14.3545455,
                "end_time": 14.4568182,
                "pitch": 47,
                "velocity": 64,
                "duration": 0.1022727,
                "tempo": 120.0
            },
            {
                "start_time": 14.4568182,
                "end_time": 14.5545455,
                "pitch": 40,
                "velocity": 64,
                "duration": 0.0977273,
                "tempo": 120.0
            },
            {
                "start_time": 14.5545455,
                "end_time": 14.6522727,
                "pitch": 40,
                "velocity": 64,
                "duration": 0.0977273,
                "tempo": 120.0
            },
            {
                "start_time": 14.6522727,
                "end_time": 14.75,
                "pitch": 40,
                "velocity": 64,
                "duration": 0.0977273,
                "tempo": 120.0
            },
            {
                "start_time": 14.75,
                "end_time": 14.8477273,
                "pitch": 40,
                "velocity": 64,
                "duration": 0.0977273,
                "tempo": 120.0
            },
            {
                "start_time": 14.8477273,
                "end_time": 14.95,
                "pitch": 40,
                "velocity": 64,
                "duration": 0.1022727,
                "tempo": 120.0
            },
            {
                "start_time": 14.95,
                "end_time": 15.0522727,
                "pitch": 39,
                "velocity": 64,
                "duration": 0.1022727,
                "tempo": 120.0
            },
            {
                "start_time": 15.0522727,
                "end_time": 15.1568182,
                "pitch": 39,
                "velocity": 64,
                "duration": 0.1045455,
                "tempo": 120.0
            },
            {
                "start_time": 15.1568182,
                "end_time": 15.2590909,
                "pitch": 39,
                "velocity": 64,
                "duration": 0.1022727,
                "tempo": 120.0
            },
            {
                "start_time": 15.2590909,
                "end_time": 15.3590909,
                "pitch": 39,
                "velocity": 64,
                "duration": 0.1,
                "tempo": 120.0
            },
            {
                "start_time": 15.3590909,
                "end_time": 15.4613636,
                "pitch": 38,
                "velocity": 64,
                "duration": 0.1022727,
                "tempo": 120.0
            },
            {
                "start_time": 15.4613636,
                "end_time": 15.5613636,
                "pitch": 38,
                "velocity": 64,
                "duration": 0.1,
                "tempo": 120.0
            },
            {
                "start_time": 15.5613636,
                "end_time": 15.6613636,
                "pitch": 38,
                "velocity": 64,
                "duration": 0.1,
                "tempo": 120.0
            },
            {
                "start_time": 15.6613636,
                "end_time": 15.7613636,
                "pitch": 38,
                "velocity": 64,
                "duration": 0.1,
                "tempo": 120.0
            },
            {
                "start_time": 15.7613636,
                "end_time": 15.8613636,
                "pitch": 37,
                "velocity": 64,
                "duration": 0.1,
                "tempo": 120.0
            },
            {
                "start_time": 15.8613636,
                "end_time": 15.9613636,
                "pitch": 37,
                "velocity": 64,
                "duration": 0.1,
                "tempo": 120.0
            },
            {
                "start_time": 15.9613636,
                "end_time": 16.0772727,
                "pitch": 37,
                "velocity": 64,
                "duration": 0.1159091,
                "tempo": 120.0
            },
            {
                "start_time": 16.0772727,
                "end_time": 16.1659091,
                "pitch": 37,
                "velocity": 64,
                "duration": 0.0886364,
                "tempo": 120.0
            },
            {
                "start_time": 16.1659091,
                "end_time": 16.2886364,
                "pitch": 38,
                "velocity": 64,
                "duration": 0.1227273,
                "tempo": 120.0
            },
            {
                "start_time": 16.2886364,
                "end_time": 16.3772727,
                "pitch": 50,
                "velocity": 64,
                "duration": 0.0886364,
                "tempo": 120.0
            },
            {
                "start_time": 16.3772727,
                "end_time": 16.5,
                "pitch": 50,
                "velocity": 64,
                "duration": 0.1227273,
                "tempo": 120.0
            },
            {
                "start_time": 16.5,
                "end_time": 16.5818182,
                "pitch": 38,
                "velocity": 64,
                "duration": 0.0818182,
                "tempo": 120.0
            },
            {
                "start_time": 16.5818182,
                "end_time": 16.6954545,
                "pitch": 38,
                "velocity": 64,
                "duration": 0.1136364,
                "tempo": 120.0
            },
            {
                "start_time": 16.6954545,
                "end_time": 16.7772727,
                "pitch": 50,
                "velocity": 64,
                "duration": 0.0818182,
                "tempo": 120.0
            },
            {
                "start_time": 16.7772727,
                "end_time": 16.8931818,
                "pitch": 50,
                "velocity": 64,
                "duration": 0.1159091,
                "tempo": 120.0
            },
            {
                "start_time": 16.8931818,
                "end_time": 16.975,
                "pitch": 38,
                "velocity": 64,
                "duration": 0.0818182,
                "tempo": 120.0
            },
            {
                "start_time": 16.975,
                "end_time": 17.0931818,
                "pitch": 38,
                "velocity": 64,
                "duration": 0.1181818,
                "tempo": 120.0
            },
            {
                "start_time": 17.0931818,
                "end_time": 17.175,
                "pitch": 50,
                "velocity": 64,
                "duration": 0.0818182,
                "tempo": 120.0
            },
            {
                "start_time": 17.175,
                "end_time": 17.2931818,
                "pitch": 50,
                "velocity": 64,
                "duration": 0.1181818,
                "tempo": 120.0
            },
            {
                "start_time": 17.2931818,
                "end_time": 17.3772727,
                "pitch": 38,
                "velocity": 64,
                "duration": 0.0840909,
                "tempo": 120.0
            },
            {
                "start_time": 17.3772727,
                "end_time": 17.4931818,
                "pitch": 50,
                "velocity": 64,
                "duration": 0.1159091,
                "tempo": 120.0
            },
            {
                "start_time": 17.4931818,
                "end_time": 17.5772727,
                "pitch": 38,
                "velocity": 64,
                "duration": 0.0840909,
                "tempo": 120.0
            },
            {
                "start_time": 17.5772727,
                "end_time": 17.6954545,
                "pitch": 50,
                "velocity": 64,
                "duration": 0.1181818,
                "tempo": 120.0
            },
            {
                "start_time": 17.6954545,
                "end_time": 17.7795455,
                "pitch": 38,
                "velocity": 64,
                "duration": 0.0840909,
                "tempo": 120.0
            },
            {
                "start_time": 17.7795455,
                "end_time": 17.8795455,
                "pitch": 38,
                "velocity": 64,
                "duration": 0.1,
                "tempo": 120.0
            },
            {
                "start_time": 17.8954545,
                "end_time": 17.9795455,
                "pitch": 50,
                "velocity": 64,
                "duration": 0.0840909,
                "tempo": 120.0
            },
            {
                "start_time": 17.9795455,
                "end_time": 18.0954545,
                "pitch": 50,
                "velocity": 64,
                "duration": 0.1159091,
                "tempo": 120.0
            },
            {
                "start_time": 18.0954545,
                "end_time": 18.1795455,
                "pitch": 38,
                "velocity": 64,
                "duration": 0.0840909,
                "tempo": 120.0
            },
            {
                "start_time": 18.1795455,
                "end_time": 18.2954545,
                "pitch": 38,
                "velocity": 64,
                "duration": 0.1159091,
                "tempo": 120.0
            },
            {
                "start_time": 18.2954545,
                "end_time": 18.3795455,
                "pitch": 50,
                "velocity": 64,
                "duration": 0.0840909,
                "tempo": 120.0
            },
            {
                "start_time": 18.3795455,
                "end_time": 18.4977273,
                "pitch": 50,
                "velocity": 64,
                "duration": 0.1181818,
                "tempo": 120.0
            },
            {
                "start_time": 18.4977273,
                "end_time": 18.5818182,
                "pitch": 38,
                "velocity": 64,
                "duration": 0.0840909,
                "tempo": 120.0
            },
            {
                "start_time": 18.5818182,
                "end_time": 18.6977273,
                "pitch": 38,
                "velocity": 64,
                "duration": 0.1159091,
                "tempo": 120.0
            },
            {
                "start_time": 18.6977273,
                "end_time": 18.7818182,
                "pitch": 50,
                "velocity": 64,
                "duration": 0.0840909,
                "tempo": 120.0
            },
            {
                "start_time": 18.7818182,
                "end_time": 18.8977273,
                "pitch": 50,
                "velocity": 64,
                "duration": 0.1159091,
                "tempo": 120.0
            },
            {
                "start_time": 18.8977273,
                "end_time": 18.9818182,
                "pitch": 38,
                "velocity": 64,
                "duration": 0.0840909,
                "tempo": 120.0
            },
            {
                "start_time": 18.9818182,
                "end_time": 19.0977273,
                "pitch": 50,
                "velocity": 64,
                "duration": 0.1159091,
                "tempo": 120.0
            },
            {
                "start_time": 19.0977273,
                "end_time": 19.1818182,
                "pitch": 38,
                "velocity": 64,
                "duration": 0.0840909,
                "tempo": 120.0
            },
            {
                "start_time": 19.1818182,
                "end_time": 19.2977273,
                "pitch": 50,
                "velocity": 64,
                "duration": 0.1159091,
                "tempo": 120.0
            },
            {
                "start_time": 19.2977273,
                "end_time": 19.3818182,
                "pitch": 38,
                "velocity": 64,
                "duration": 0.0840909,
                "tempo": 120.0
            },
            {
                "start_time": 19.3818182,
                "end_time": 19.5,
                "pitch": 38,
                "velocity": 64,
                "duration": 0.1181818,
                "tempo": 120.0
            },
            {
                "start_time": 19.5,
                "end_time": 19.5840909,
                "pitch": 50,
                "velocity": 64,
                "duration": 0.0840909,
                "tempo": 120.0
            },
            {
                "start_time": 19.5840909,
                "end_time": 19.7,
                "pitch": 50,
                "velocity": 64,
                "duration": 0.1159091,
                "tempo": 120.0
            },
            {
                "start_time": 19.7,
                "end_time": 19.7840909,
                "pitch": 38,
                "velocity": 64,
                "duration": 0.0840909,
                "tempo": 120.0
            },
            {
                "start_time": 19.7840909,
                "end_time": 19.9,
                "pitch": 38,
                "velocity": 64,
                "duration": 0.1159091,
                "tempo": 120.0
            },
            {
                "start_time": 19.9,
                "end_time": 19.9840909,
                "pitch": 50,
                "velocity": 64,
                "duration": 0.0840909,
                "tempo": 120.0
            },
            {
                "start_time": 19.9840909,
                "end_time": 20.1,
                "pitch": 50,
                "velocity": 64,
                "duration": 0.1159091,
                "tempo": 120.0
            },
            {
                "start_time": 20.1,
                "end_time": 20.1840909,
                "pitch": 38,
                "velocity": 64,
                "duration": 0.0840909,
                "tempo": 120.0
            },
            {
                "start_time": 20.1840909,
                "end_time": 20.3022727,
                "pitch": 38,
                "velocity": 64,
                "duration": 0.1181818,
                "tempo": 120.0
            },
            {
                "start_time": 20.3022727,
                "end_time": 20.3863636,
                "pitch": 50,
                "velocity": 64,
                "duration": 0.0840909,
                "tempo": 120.0
            },
            {
                "start_time": 20.3863636,
                "end_time": 20.5022727,
                "pitch": 50,
                "velocity": 64,
                "duration": 0.1159091,
                "tempo": 120.0
            },
            {
                "start_time": 20.5022727,
                "end_time": 20.5863636,
                "pitch": 38,
                "velocity": 64,
                "duration": 0.0840909,
                "tempo": 120.0
            },
            {
                "start_time": 20.5863636,
                "end_time": 20.7022727,
                "pitch": 50,
                "velocity": 64,
                "duration": 0.1159091,
                "tempo": 120.0
            },
            {
                "start_time": 20.7022727,
                "end_time": 20.7863636,
                "pitch": 38,
                "velocity": 64,
                "duration": 0.0840909,
                "tempo": 120.0
            },
            {
                "start_time": 20.7863636,
                "end_time": 20.9022727,
                "pitch": 50,
                "velocity": 64,
                "duration": 0.1159091,
                "tempo": 120.0
            },
            {
                "start_time": 20.9022727,
                "end_time": 20.9863636,
                "pitch": 43,
                "velocity": 64,
                "duration": 0.0840909,
                "tempo": 120.0
            },
            {
                "start_time": 20.9863636,
                "end_time": 21.1022727,
                "pitch": 43,
                "velocity": 64,
                "duration": 0.1159091,
                "tempo": 120.0
            },
            {
                "start_time": 21.1022727,
                "end_time": 21.1863636,
                "pitch": 55,
                "velocity": 64,
                "duration": 0.0840909,
                "tempo": 120.0
            },
            {
                "start_time": 21.1863636,
                "end_time": 21.3022727,
                "pitch": 55,
                "velocity": 64,
                "duration": 0.1159091,
                "tempo": 120.0
            },
            {
                "start_time": 21.3022727,
                "end_time": 21.3863636,
                "pitch": 42,
                "velocity": 64,
                "duration": 0.0840909,
                "tempo": 120.0
            },
            {
                "start_time": 21.3863636,
                "end_time": 21.4886364,
                "pitch": 42,
                "velocity": 64,
                "duration": 0.1022727,
                "tempo": 120.0
            },
            {
                "start_time": 21.5045455,
                "end_time": 21.5886364,
                "pitch": 54,
                "velocity": 64,
                "duration": 0.0840909,
                "tempo": 120.0
            },
            {
                "start_time": 21.5886364,
                "end_time": 21.7068182,
                "pitch": 54,
                "velocity": 64,
                "duration": 0.1181818,
                "tempo": 120.0
            },
            {
                "start_time": 21.7068182,
                "end_time": 21.7886364,
                "pitch": 42,
                "velocity": 64,
                "duration": 0.0818182,
                "tempo": 120.0
            },
            {
                "start_time": 21.7886364,
                "end_time": 21.9068182,
                "pitch": 41,
                "velocity": 64,
                "duration": 0.1181818,
                "tempo": 120.0
            },
            {
                "start_time": 21.9068182,
                "end_time": 21.9886364,
                "pitch": 53,
                "velocity": 64,
                "duration": 0.0818182,
                "tempo": 120.0
            },
            {
                "start_time": 21.9886364,
                "end_time": 22.1068182,
                "pitch": 53,
                "velocity": 64,
                "duration": 0.1181818,
                "tempo": 120.0
            },
            {
                "start_time": 22.1068182,
                "end_time": 22.1886364,
                "pitch": 41,
                "velocity": 64,
                "duration": 0.0818182,
                "tempo": 120.0
            },
            {
                "start_time": 22.1886364,
                "end_time": 22.2909091,
                "pitch": 40,
                "velocity": 64,
                "duration": 0.1022727,
                "tempo": 120.0
            },
            {
                "start_time": 22.2909091,
                "end_time": 22.3909091,
                "pitch": 52,
                "velocity": 64,
                "duration": 0.1,
                "tempo": 120.0
            },
            {
                "start_time": 22.3909091,
                "end_time": 22.5090909,
                "pitch": 52,
                "velocity": 64,
                "duration": 0.1181818,
                "tempo": 120.0
            },
            {
                "start_time": 22.5090909,
                "end_time": 22.5931818,
                "pitch": 38,
                "velocity": 64,
                "duration": 0.0840909,
                "tempo": 120.0
            },
            {
                "start_time": 22.5931818,
                "end_time": 22.7136364,
                "pitch": 38,
                "velocity": 64,
                "duration": 0.1204545,
                "tempo": 120.0
            },
            {
                "start_time": 22.7136364,
                "end_time": 22.8,
                "pitch": 50,
                "velocity": 64,
                "duration": 0.0863636,
                "tempo": 120.0
            },
            {
                "start_time": 22.8,
                "end_time": 22.9181818,
                "pitch": 50,
                "velocity": 64,
                "duration": 0.1181818,
                "tempo": 120.0
            },
            {
                "start_time": 22.9181818,
                "end_time": 23.0,
                "pitch": 38,
                "velocity": 64,
                "duration": 0.0818182,
                "tempo": 120.0
            },
            {
                "start_time": 23.0,
                "end_time": 23.1159091,
                "pitch": 38,
                "velocity": 64,
                "duration": 0.1159091,
                "tempo": 120.0
            },
            {
                "start_time": 23.1159091,
                "end_time": 23.1977273,
                "pitch": 50,
                "velocity": 64,
                "duration": 0.0818182,
                "tempo": 120.0
            },
            {
                "start_time": 23.1977273,
                "end_time": 23.3113636,
                "pitch": 50,
                "velocity": 64,
                "duration": 0.1136364,
                "tempo": 120.0
            },
            {
                "start_time": 23.3113636,
                "end_time": 23.3954545,
                "pitch": 38,
                "velocity": 64,
                "duration": 0.0840909,
                "tempo": 120.0
            },
            {
                "start_time": 23.3954545,
                "end_time": 23.5136364,
                "pitch": 38,
                "velocity": 64,
                "duration": 0.1181818,
                "tempo": 120.0
            },
            {
                "start_time": 23.5136364,
                "end_time": 23.5977273,
                "pitch": 50,
                "velocity": 64,
                "duration": 0.0840909,
                "tempo": 120.0
            },
            {
                "start_time": 23.5977273,
                "end_time": 23.7136364,
                "pitch": 50,
                "velocity": 64,
                "duration": 0.1159091,
                "tempo": 120.0
            },
            {
                "start_time": 23.7136364,
                "end_time": 23.7977273,
                "pitch": 38,
                "velocity": 64,
                "duration": 0.0840909,
                "tempo": 120.0
            },
            {
                "start_time": 23.7977273,
                "end_time": 23.9136364,
                "pitch": 50,
                "velocity": 64,
                "duration": 0.1159091,
                "tempo": 120.0
            },
            {
                "start_time": 23.9136364,
                "end_time": 23.9977273,
                "pitch": 38,
                "velocity": 64,
                "duration": 0.0840909,
                "tempo": 120.0
            },
            {
                "start_time": 23.9977273,
                "end_time": 24.1136364,
                "pitch": 50,
                "velocity": 64,
                "duration": 0.1159091,
                "tempo": 120.0
            },
            {
                "start_time": 24.1136364,
                "end_time": 24.2,
                "pitch": 38,
                "velocity": 64,
                "duration": 0.0863636,
                "tempo": 120.0
            },
            {
                "start_time": 24.2,
                "end_time": 24.3022727,
                "pitch": 38,
                "velocity": 64,
                "duration": 0.1022727,
                "tempo": 120.0
            },
            {
                "start_time": 24.3204545,
                "end_time": 24.4045455,
                "pitch": 50,
                "velocity": 64,
                "duration": 0.0840909,
                "tempo": 120.0
            },
            {
                "start_time": 24.4045455,
                "end_time": 24.525,
                "pitch": 50,
                "velocity": 64,
                "duration": 0.1204545,
                "tempo": 120.0
            },
            {
                "start_time": 24.525,
                "end_time": 24.6068182,
                "pitch": 38,
                "velocity": 64,
                "duration": 0.0818182,
                "tempo": 120.0
            },
            {
                "start_time": 24.6068182,
                "end_time": 24.7204545,
                "pitch": 38,
                "velocity": 64,
                "duration": 0.1136364,
                "tempo": 120.0
            },
            {
                "start_time": 24.7204545,
                "end_time": 24.8022727,
                "pitch": 50,
                "velocity": 64,
                "duration": 0.0818182,
                "tempo": 120.0
            },
            {
                "start_time": 24.8022727,
                "end_time": 24.9159091,
                "pitch": 50,
                "velocity": 64,
                "duration": 0.1136364,
                "tempo": 120.0
            },
            {
                "start_time": 24.9159091,
                "end_time": 25.0,
                "pitch": 38,
                "velocity": 64,
                "duration": 0.0840909,
                "tempo": 120.0
            },
            {
                "start_time": 25.0,
                "end_time": 25.1159091,
                "pitch": 38,
                "velocity": 64,
                "duration": 0.1159091,
                "tempo": 120.0
            },
            {
                "start_time": 25.1159091,
                "end_time": 25.2,
                "pitch": 50,
                "velocity": 64,
                "duration": 0.0840909,
                "tempo": 120.0
            },
            {
                "start_time": 25.2,
                "end_time": 25.3159091,
                "pitch": 50,
                "velocity": 64,
                "duration": 0.1159091,
                "tempo": 120.0
            },
            {
                "start_time": 25.3159091,
                "end_time": 25.4,
                "pitch": 38,
                "velocity": 64,
                "duration": 0.0840909,
                "tempo": 120.0
            },
            {
                "start_time": 25.4,
                "end_time": 25.5181818,
                "pitch": 50,
                "velocity": 64,
                "duration": 0.1181818,
                "tempo": 120.0
            },
            {
                "start_time": 25.5181818,
                "end_time": 25.6022727,
                "pitch": 38,
                "velocity": 64,
                "duration": 0.0840909,
                "tempo": 120.0
            },
            {
                "start_time": 25.6022727,
                "end_time": 25.7204545,
                "pitch": 50,
                "velocity": 64,
                "duration": 0.1181818,
                "tempo": 120.0
            },
            {
                "start_time": 25.7204545,
                "end_time": 25.8022727,
                "pitch": 38,
                "velocity": 64,
                "duration": 0.0818182,
                "tempo": 120.0
            },
            {
                "start_time": 25.8022727,
                "end_time": 25.9204545,
                "pitch": 38,
                "velocity": 64,
                "duration": 0.1181818,
                "tempo": 120.0
            },
            {
                "start_time": 25.9204545,
                "end_time": 26.0022727,
                "pitch": 50,
                "velocity": 64,
                "duration": 0.0818182,
                "tempo": 120.0
            },
            {
                "start_time": 26.0022727,
                "end_time": 26.1204545,
                "pitch": 50,
                "velocity": 64,
                "duration": 0.1181818,
                "tempo": 120.0
            },
            {
                "start_time": 26.1204545,
                "end_time": 26.2045455,
                "pitch": 38,
                "velocity": 64,
                "duration": 0.0840909,
                "tempo": 120.0
            },
            {
                "start_time": 26.2045455,
                "end_time": 26.3204545,
                "pitch": 38,
                "velocity": 64,
                "duration": 0.1159091,
                "tempo": 120.0
            },
            {
                "start_time": 26.3204545,
                "end_time": 26.4045455,
                "pitch": 50,
                "velocity": 64,
                "duration": 0.0840909,
                "tempo": 120.0
            },
            {
                "start_time": 26.4045455,
                "end_time": 26.5227273,
                "pitch": 50,
                "velocity": 64,
                "duration": 0.1181818,
                "tempo": 120.0
            },
            {
                "start_time": 26.5227273,
                "end_time": 26.6045455,
                "pitch": 38,
                "velocity": 64,
                "duration": 0.0818182,
                "tempo": 120.0
            },
            {
                "start_time": 26.6045455,
                "end_time": 26.7227273,
                "pitch": 38,
                "velocity": 64,
                "duration": 0.1181818,
                "tempo": 120.0
            },
            {
                "start_time": 26.7227273,
                "end_time": 26.8045455,
                "pitch": 50,
                "velocity": 64,
                "duration": 0.0818182,
                "tempo": 120.0
            },
            {
                "start_time": 26.8045455,
                "end_time": 26.9227273,
                "pitch": 50,
                "velocity": 64,
                "duration": 0.1181818,
                "tempo": 120.0
            },
            {
                "start_time": 26.9227273,
                "end_time": 27.0045455,
                "pitch": 38,
                "velocity": 64,
                "duration": 0.0818182,
                "tempo": 120.0
            },
            {
                "start_time": 27.0045455,
                "end_time": 27.1227273,
                "pitch": 50,
                "velocity": 64,
                "duration": 0.1181818,
                "tempo": 120.0
            },
            {
                "start_time": 27.1227273,
                "end_time": 27.2045455,
                "pitch": 38,
                "velocity": 64,
                "duration": 0.0818182,
                "tempo": 120.0
            },
            {
                "start_time": 27.2045455,
                "end_time": 27.3227273,
                "pitch": 50,
                "velocity": 64,
                "duration": 0.1181818,
                "tempo": 120.0
            },
            {
                "start_time": 27.3227273,
                "end_time": 27.4068182,
                "pitch": 43,
                "velocity": 64,
                "duration": 0.0840909,
                "tempo": 120.0
            },
            {
                "start_time": 27.4068182,
                "end_time": 27.5068182,
                "pitch": 43,
                "velocity": 64,
                "duration": 0.1,
                "tempo": 120.0
            },
            {
                "start_time": 27.5068182,
                "end_time": 27.6068182,
                "pitch": 55,
                "velocity": 64,
                "duration": 0.1,
                "tempo": 120.0
            },
            {
                "start_time": 27.6068182,
                "end_time": 27.7090909,
                "pitch": 55,
                "velocity": 64,
                "duration": 0.1022727,
                "tempo": 120.0
            },
            {
                "start_time": 27.7090909,
                "end_time": 27.725,
                "pitch": 31,
                "velocity": 64,
                "duration": 0.0159091,
                "tempo": 120.0
            },
            {
                "start_time": 27.725,
                "end_time": 27.8090909,
                "pitch": 42,
                "velocity": 64,
                "duration": 0.0840909,
                "tempo": 120.0
            },
            {
                "start_time": 27.8090909,
                "end_time": 27.9090909,
                "pitch": 42,
                "velocity": 64,
                "duration": 0.1,
                "tempo": 120.0
            },
            {
                "start_time": 27.9090909,
                "end_time": 28.0090909,
                "pitch": 54,
                "velocity": 64,
                "duration": 0.1,
                "tempo": 120.0
            },
            {
                "start_time": 28.0090909,
                "end_time": 28.125,
                "pitch": 54,
                "velocity": 64,
                "duration": 0.1159091,
                "tempo": 120.0
            },
            {
                "start_time": 28.125,
                "end_time": 28.2113636,
                "pitch": 42,
                "velocity": 64,
                "duration": 0.0863636,
                "tempo": 120.0
            },
            {
                "start_time": 28.2113636,
                "end_time": 28.3136364,
                "pitch": 41,
                "velocity": 64,
                "duration": 0.1022727,
                "tempo": 120.0
            },
            {
                "start_time": 28.3136364,
                "end_time": 28.4159091,
                "pitch": 53,
                "velocity": 64,
                "duration": 0.1022727,
                "tempo": 120.0
            },
            {
                "start_time": 28.4159091,
                "end_time": 28.5181818,
                "pitch": 53,
                "velocity": 64,
                "duration": 0.1022727,
                "tempo": 120.0
            },
            {
                "start_time": 28.5181818,
                "end_time": 28.6181818,
                "pitch": 41,
                "velocity": 64,
                "duration": 0.1,
                "tempo": 120.0
            },
            {
                "start_time": 28.6181818,
                "end_time": 28.7159091,
                "pitch": 40,
                "velocity": 64,
                "duration": 0.0977273,
                "tempo": 120.0
            },
            {
                "start_time": 28.7159091,
                "end_time": 28.8136364,
                "pitch": 52,
                "velocity": 64,
                "duration": 0.0977273,
                "tempo": 120.0
            },
            {
                "start_time": 28.8136364,
                "end_time": 28.9272727,
                "pitch": 52,
                "velocity": 64,
                "duration": 0.1136364,
                "tempo": 120.0
            },
            {
                "start_time": 28.9272727,
                "end_time": 29.0272727,
                "pitch": 35,
                "velocity": 64,
                "duration": 0.1,
                "tempo": 120.0
            },
            {
                "start_time": 29.0272727,
                "end_time": 29.1113636,
                "pitch": 35,
                "velocity": 64,
                "duration": 0.0840909,
                "tempo": 120.0
            },
            {
                "start_time": 29.1113636,
                "end_time": 29.2113636,
                "pitch": 35,
                "velocity": 64,
                "duration": 0.1,
                "tempo": 120.0
            },
            {
                "start_time": 29.2113636,
                "end_time": 29.3113636,
                "pitch": 35,
                "velocity": 64,
                "duration": 0.1,
                "tempo": 120.0
            },
            {
                "start_time": 29.3113636,
                "end_time": 29.4295455,
                "pitch": 35,
                "velocity": 64,
                "duration": 0.1181818,
                "tempo": 120.0
            },
            {
                "start_time": 29.4295455,
                "end_time": 29.5159091,
                "pitch": 35,
                "velocity": 64,
                "duration": 0.0863636,
                "tempo": 120.0
            },
            {
                "start_time": 29.5159091,
                "end_time": 29.6181818,
                "pitch": 47,
                "velocity": 64,
                "duration": 0.1022727,
                "tempo": 120.0
            },
            {
                "start_time": 29.6181818,
                "end_time": 29.7204545,
                "pitch": 47,
                "velocity": 64,
                "duration": 0.1022727,
                "tempo": 120.0
            },
            {
                "start_time": 29.7204545,
                "end_time": 29.8181818,
                "pitch": 47,
                "velocity": 64,
                "duration": 0.0977273,
                "tempo": 120.0
            },
            {
                "start_time": 29.8181818,
                "end_time": 29.9136364,
                "pitch": 47,
                "velocity": 64,
                "duration": 0.0954545,
                "tempo": 120.0
            },
            {
                "start_time": 29.9136364,
                "end_time": 30.0090909,
                "pitch": 47,
                "velocity": 64,
                "duration": 0.0954545,
                "tempo": 120.0
            },
            {
                "start_time": 30.0090909,
                "end_time": 30.1045455,
                "pitch": 47,
                "velocity": 64,
                "duration": 0.0954545,
                "tempo": 120.0
            },
            {
                "start_time": 30.1045455,
                "end_time": 30.2022727,
                "pitch": 47,
                "velocity": 64,
                "duration": 0.0977273,
                "tempo": 120.0
            },
            {
                "start_time": 30.2022727,
                "end_time": 30.3,
                "pitch": 47,
                "velocity": 64,
                "duration": 0.0977273,
                "tempo": 120.0
            },
            {
                "start_time": 30.3,
                "end_time": 30.3977273,
                "pitch": 47,
                "velocity": 64,
                "duration": 0.0977273,
                "tempo": 120.0
            },
            {
                "start_time": 30.3977273,
                "end_time": 30.4954545,
                "pitch": 47,
                "velocity": 64,
                "duration": 0.0977273,
                "tempo": 120.0
            },
            {
                "start_time": 30.4954545,
                "end_time": 30.5977273,
                "pitch": 40,
                "velocity": 64,
                "duration": 0.1022727,
                "tempo": 120.0
            },
            {
                "start_time": 30.5977273,
                "end_time": 30.7022727,
                "pitch": 40,
                "velocity": 64,
                "duration": 0.1045455,
                "tempo": 120.0
            },
            {
                "start_time": 30.7022727,
                "end_time": 30.8045455,
                "pitch": 40,
                "velocity": 64,
                "duration": 0.1022727,
                "tempo": 120.0
            },
            {
                "start_time": 30.8045455,
                "end_time": 30.9068182,
                "pitch": 40,
                "velocity": 64,
                "duration": 0.1022727,
                "tempo": 120.0
            },
            {
                "start_time": 30.9068182,
                "end_time": 31.0068182,
                "pitch": 40,
                "velocity": 64,
                "duration": 0.1,
                "tempo": 120.0
            },
            {
                "start_time": 31.0068182,
                "end_time": 31.1068182,
                "pitch": 39,
                "velocity": 64,
                "duration": 0.1,
                "tempo": 120.0
            },
            {
                "start_time": 31.1068182,
                "end_time": 31.2068182,
                "pitch": 39,
                "velocity": 64,
                "duration": 0.1,
                "tempo": 120.0
            },
            {
                "start_time": 31.2068182,
                "end_time": 31.3068182,
                "pitch": 39,
                "velocity": 64,
                "duration": 0.1,
                "tempo": 120.0
            },
            {
                "start_time": 31.3068182,
                "end_time": 31.4068182,
                "pitch": 39,
                "velocity": 64,
                "duration": 0.1,
                "tempo": 120.0
            },
            {
                "start_time": 31.4068182,
                "end_time": 31.5068182,
                "pitch": 38,
                "velocity": 64,
                "duration": 0.1,
                "tempo": 120.0
            },
            {
                "start_time": 31.5068182,
                "end_time": 31.6068182,
                "pitch": 38,
                "velocity": 64,
                "duration": 0.1,
                "tempo": 120.0
            },
            {
                "start_time": 31.6068182,
                "end_time": 31.7068182,
                "pitch": 38,
                "velocity": 64,
                "duration": 0.1,
                "tempo": 120.0
            },
            {
                "start_time": 31.7068182,
                "end_time": 31.8068182,
                "pitch": 38,
                "velocity": 64,
                "duration": 0.1,
                "tempo": 120.0
            },
            {
                "start_time": 31.8068182,
                "end_time": 31.9090909,
                "pitch": 37,
                "velocity": 64,
                "duration": 0.1022727,
                "tempo": 120.0
            },
            {
                "start_time": 31.9090909,
                "end_time": 32.0090909,
                "pitch": 37,
                "velocity": 64,
                "duration": 0.1,
                "tempo": 120.0
            },
            {
                "start_time": 32.0090909,
                "end_time": 32.1272727,
                "pitch": 37,
                "velocity": 64,
                "duration": 0.1181818,
                "tempo": 120.0
            },
            {
                "start_time": 32.1272727,
                "end_time": 32.2136364,
                "pitch": 35,
                "velocity": 64,
                "duration": 0.0863636,
                "tempo": 120.0
            },
            {
                "start_time": 32.2136364,
                "end_time": 32.3363636,
                "pitch": 35,
                "velocity": 64,
                "duration": 0.1227273,
                "tempo": 120.0
            },
            {
                "start_time": 32.3363636,
                "end_time": 32.425,
                "pitch": 47,
                "velocity": 64,
                "duration": 0.0886364,
                "tempo": 120.0
            },
            {
                "start_time": 32.425,
                "end_time": 32.5477273,
                "pitch": 47,
                "velocity": 64,
                "duration": 0.1227273,
                "tempo": 120.0
            },
            {
                "start_time": 32.5477273,
                "end_time": 32.6295455,
                "pitch": 35,
                "velocity": 64,
                "duration": 0.0818182,
                "tempo": 120.0
            },
            {
                "start_time": 32.6295455,
                "end_time": 32.7454545,
                "pitch": 35,
                "velocity": 64,
                "duration": 0.1159091,
                "tempo": 120.0
            },
            {
                "start_time": 32.7454545,
                "end_time": 32.8272727,
                "pitch": 47,
                "velocity": 64,
                "duration": 0.0818182,
                "tempo": 120.0
            },
            {
                "start_time": 32.8272727,
                "end_time": 32.9409091,
                "pitch": 47,
                "velocity": 64,
                "duration": 0.1136364,
                "tempo": 120.0
            },
            {
                "start_time": 32.9409091,
                "end_time": 33.025,
                "pitch": 35,
                "velocity": 64,
                "duration": 0.0840909,
                "tempo": 120.0
            },
            {
                "start_time": 33.025,
                "end_time": 33.1454545,
                "pitch": 35,
                "velocity": 64,
                "duration": 0.1204545,
                "tempo": 120.0
            },
            {
                "start_time": 33.1454545,
                "end_time": 33.2318182,
                "pitch": 47,
                "velocity": 64,
                "duration": 0.0863636,
                "tempo": 120.0
            },
            {
                "start_time": 33.2318182,
                "end_time": 33.3522727,
                "pitch": 47,
                "velocity": 64,
                "duration": 0.1204545,
                "tempo": 120.0
            },
            {
                "start_time": 33.3522727,
                "end_time": 33.4340909,
                "pitch": 35,
                "velocity": 64,
                "duration": 0.0818182,
                "tempo": 120.0
            },
            {
                "start_time": 33.4340909,
                "end_time": 33.5522727,
                "pitch": 47,
                "velocity": 64,
                "duration": 0.1181818,
                "tempo": 120.0
            },
            {
                "start_time": 33.5522727,
                "end_time": 33.6340909,
                "pitch": 35,
                "velocity": 64,
                "duration": 0.0818182,
                "tempo": 120.0
            },
            {
                "start_time": 33.6340909,
                "end_time": 33.7522727,
                "pitch": 47,
                "velocity": 64,
                "duration": 0.1181818,
                "tempo": 120.0
            },
            {
                "start_time": 33.7522727,
                "end_time": 33.8340909,
                "pitch": 35,
                "velocity": 64,
                "duration": 0.0818182,
                "tempo": 120.0
            },
            {
                "start_time": 33.8340909,
                "end_time": 33.9318182,
                "pitch": 35,
                "velocity": 64,
                "duration": 0.0977273,
                "tempo": 120.0
            },
            {
                "start_time": 33.9477273,
                "end_time": 34.0295455,
                "pitch": 47,
                "velocity": 64,
                "duration": 0.0818182,
                "tempo": 120.0
            },
            {
                "start_time": 34.0295455,
                "end_time": 34.1431818,
                "pitch": 47,
                "velocity": 64,
                "duration": 0.1136364,
                "tempo": 120.0
            },
            {
                "start_time": 34.1431818,
                "end_time": 34.2295455,
                "pitch": 35,
                "velocity": 64,
                "duration": 0.0863636,
                "tempo": 120.0
            },
            {
                "start_time": 34.2295455,
                "end_time": 34.3477273,
                "pitch": 35,
                "velocity": 64,
                "duration": 0.1181818,
                "tempo": 120.0
            },
            {
                "start_time": 34.3477273,
                "end_time": 34.4340909,
                "pitch": 47,
                "velocity": 64,
                "duration": 0.0863636,
                "tempo": 120.0
            },
            {
                "start_time": 34.4340909,
                "end_time": 34.5545455,
                "pitch": 47,
                "velocity": 64,
                "duration": 0.1204545,
                "tempo": 120.0
            },
            {
                "start_time": 34.5545455,
                "end_time": 34.6363636,
                "pitch": 35,
                "velocity": 64,
                "duration": 0.0818182,
                "tempo": 120.0
            },
            {
                "start_time": 34.6363636,
                "end_time": 34.75,
                "pitch": 35,
                "velocity": 64,
                "duration": 0.1136364,
                "tempo": 120.0
            },
            {
                "start_time": 34.75,
                "end_time": 34.8318182,
                "pitch": 47,
                "velocity": 64,
                "duration": 0.0818182,
                "tempo": 120.0
            },
            {
                "start_time": 34.8318182,
                "end_time": 34.9454545,
                "pitch": 47,
                "velocity": 64,
                "duration": 0.1136364,
                "tempo": 120.0
            },
            {
                "start_time": 34.9454545,
                "end_time": 35.0295455,
                "pitch": 35,
                "velocity": 64,
                "duration": 0.0840909,
                "tempo": 120.0
            },
            {
                "start_time": 35.0295455,
                "end_time": 35.1454545,
                "pitch": 47,
                "velocity": 64,
                "duration": 0.1159091,
                "tempo": 120.0
            },
            {
                "start_time": 35.1454545,
                "end_time": 35.2295455,
                "pitch": 35,
                "velocity": 64,
                "duration": 0.0840909,
                "tempo": 120.0
            },
            {
                "start_time": 35.2295455,
                "end_time": 35.3454545,
                "pitch": 47,
                "velocity": 64,
                "duration": 0.1159091,
                "tempo": 120.0
            },
            {
                "start_time": 35.3454545,
                "end_time": 35.4295455,
                "pitch": 35,
                "velocity": 64,
                "duration": 0.0840909,
                "tempo": 120.0
            },
            {
                "start_time": 35.4295455,
                "end_time": 35.5454545,
                "pitch": 35,
                "velocity": 64,
                "duration": 0.1159091,
                "tempo": 120.0
            },
            {
                "start_time": 35.5454545,
                "end_time": 35.6295455,
                "pitch": 47,
                "velocity": 64,
                "duration": 0.0840909,
                "tempo": 120.0
            },
            {
                "start_time": 35.6295455,
                "end_time": 35.7454545,
                "pitch": 47,
                "velocity": 64,
                "duration": 0.1159091,
                "tempo": 120.0
            },
            {
                "start_time": 35.7454545,
                "end_time": 35.8318182,
                "pitch": 35,
                "velocity": 64,
                "duration": 0.0863636,
                "tempo": 120.0
            },
            {
                "start_time": 35.8318182,
                "end_time": 35.9522727,
                "pitch": 35,
                "velocity": 64,
                "duration": 0.1204545,
                "tempo": 120.0
            },
            {
                "start_time": 35.9522727,
                "end_time": 36.0363636,
                "pitch": 47,
                "velocity": 64,
                "duration": 0.0840909,
                "tempo": 120.0
            },
            {
                "start_time": 36.0363636,
                "end_time": 36.1568182,
                "pitch": 47,
                "velocity": 64,
                "duration": 0.1204545,
                "tempo": 120.0
            },
            {
                "start_time": 36.1568182,
                "end_time": 36.2386364,
                "pitch": 35,
                "velocity": 64,
                "duration": 0.0818182,
                "tempo": 120.0
            },
            {
                "start_time": 36.2386364,
                "end_time": 36.3522727,
                "pitch": 35,
                "velocity": 64,
                "duration": 0.1136364,
                "tempo": 120.0
            },
            {
                "start_time": 36.3522727,
                "end_time": 36.4340909,
                "pitch": 47,
                "velocity": 64,
                "duration": 0.0818182,
                "tempo": 120.0
            },
            {
                "start_time": 36.4340909,
                "end_time": 36.55,
                "pitch": 47,
                "velocity": 64,
                "duration": 0.1159091,
                "tempo": 120.0
            },
            {
                "start_time": 36.55,
                "end_time": 36.6318182,
                "pitch": 35,
                "velocity": 64,
                "duration": 0.0818182,
                "tempo": 120.0
            },
            {
                "start_time": 36.6318182,
                "end_time": 36.75,
                "pitch": 47,
                "velocity": 64,
                "duration": 0.1181818,
                "tempo": 120.0
            },
            {
                "start_time": 36.75,
                "end_time": 36.8318182,
                "pitch": 35,
                "velocity": 64,
                "duration": 0.0818182,
                "tempo": 120.0
            },
            {
                "start_time": 36.8318182,
                "end_time": 36.95,
                "pitch": 47,
                "velocity": 64,
                "duration": 0.1181818,
                "tempo": 120.0
            },
            {
                "start_time": 36.95,
                "end_time": 37.0318182,
                "pitch": 40,
                "velocity": 64,
                "duration": 0.0818182,
                "tempo": 120.0
            },
            {
                "start_time": 37.0318182,
                "end_time": 37.15,
                "pitch": 40,
                "velocity": 64,
                "duration": 0.1181818,
                "tempo": 120.0
            },
            {
                "start_time": 37.15,
                "end_time": 37.2318182,
                "pitch": 52,
                "velocity": 64,
                "duration": 0.0818182,
                "tempo": 120.0
            },
            {
                "start_time": 37.2318182,
                "end_time": 37.35,
                "pitch": 52,
                "velocity": 64,
                "duration": 0.1181818,
                "tempo": 120.0
            },
            {
                "start_time": 37.35,
                "end_time": 37.4340909,
                "pitch": 40,
                "velocity": 64,
                "duration": 0.0840909,
                "tempo": 120.0
            },
            {
                "start_time": 37.4340909,
                "end_time": 37.5363636,
                "pitch": 39,
                "velocity": 64,
                "duration": 0.1022727,
                "tempo": 120.0
            },
            {
                "start_time": 37.5545455,
                "end_time": 37.6409091,
                "pitch": 51,
                "velocity": 64,
                "duration": 0.0863636,
                "tempo": 120.0
            },
            {
                "start_time": 37.6409091,
                "end_time": 37.7590909,
                "pitch": 51,
                "velocity": 64,
                "duration": 0.1181818,
                "tempo": 120.0
            },
            {
                "start_time": 37.7590909,
                "end_time": 37.8409091,
                "pitch": 39,
                "velocity": 64,
                "duration": 0.0818182,
                "tempo": 120.0
            },
            {
                "start_time": 37.8409091,
                "end_time": 37.9568182,
                "pitch": 38,
                "velocity": 64,
                "duration": 0.1159091,
                "tempo": 120.0
            },
            {
                "start_time": 37.9568182,
                "end_time": 38.0386364,
                "pitch": 50,
                "velocity": 64,
                "duration": 0.0818182,
                "tempo": 120.0
            },
            {
                "start_time": 38.0386364,
                "end_time": 38.1522727,
                "pitch": 50,
                "velocity": 64,
                "duration": 0.1136364,
                "tempo": 120.0
            },
            {
                "start_time": 38.1522727,
                "end_time": 38.2363636,
                "pitch": 38,
                "velocity": 64,
                "duration": 0.0840909,
                "tempo": 120.0
            },
            {
                "start_time": 38.2363636,
                "end_time": 38.3363636,
                "pitch": 37,
                "velocity": 64,
                "duration": 0.1,
                "tempo": 120.0
            },
            {
                "start_time": 38.3363636,
                "end_time": 38.4363636,
                "pitch": 49,
                "velocity": 64,
                "duration": 0.1,
                "tempo": 120.0
            },
            {
                "start_time": 38.4363636,
                "end_time": 38.5522727,
                "pitch": 49,
                "velocity": 64,
                "duration": 0.1159091,
                "tempo": 120.0
            },
            {
                "start_time": 38.5522727,
                "end_time": 38.6363636,
                "pitch": 35,
                "velocity": 64,
                "duration": 0.0840909,
                "tempo": 120.0
            },
            {
                "start_time": 38.6363636,
                "end_time": 38.7568182,
                "pitch": 35,
                "velocity": 64,
                "duration": 0.1204545,
                "tempo": 120.0
            },
            {
                "start_time": 38.7568182,
                "end_time": 38.8431818,
                "pitch": 47,
                "velocity": 64,
                "duration": 0.0863636,
                "tempo": 120.0
            },
            {
                "start_time": 38.8431818,
                "end_time": 38.9636364,
                "pitch": 47,
                "velocity": 64,
                "duration": 0.1204545,
                "tempo": 120.0
            },
            {
                "start_time": 38.9636364,
                "end_time": 39.0431818,
                "pitch": 35,
                "velocity": 64,
                "duration": 0.0795455,
                "tempo": 120.0
            },
            {
                "start_time": 39.0431818,
                "end_time": 39.1590909,
                "pitch": 35,
                "velocity": 64,
                "duration": 0.1159091,
                "tempo": 120.0
            },
            {
                "start_time": 39.1590909,
                "end_time": 39.2409091,
                "pitch": 47,
                "velocity": 64,
                "duration": 0.0818182,
                "tempo": 120.0
            },
            {
                "start_time": 39.2409091,
                "end_time": 39.3545455,
                "pitch": 47,
                "velocity": 64,
                "duration": 0.1136364,
                "tempo": 120.0
            },
            {
                "start_time": 39.3545455,
                "end_time": 39.4409091,
                "pitch": 35,
                "velocity": 64,
                "duration": 0.0863636,
                "tempo": 120.0
            },
            {
                "start_time": 39.4409091,
                "end_time": 39.5590909,
                "pitch": 35,
                "velocity": 64,
                "duration": 0.1181818,
                "tempo": 120.0
            },
            {
                "start_time": 39.5590909,
                "end_time": 39.6454545,
                "pitch": 47,
                "velocity": 64,
                "duration": 0.0863636,
                "tempo": 120.0
            },
            {
                "start_time": 39.6454545,
                "end_time": 39.7659091,
                "pitch": 47,
                "velocity": 64,
                "duration": 0.1204545,
                "tempo": 120.0
            },
            {
                "start_time": 39.7659091,
                "end_time": 39.8477273,
                "pitch": 35,
                "velocity": 64,
                "duration": 0.0818182,
                "tempo": 120.0
            },
            {
                "start_time": 39.8477273,
                "end_time": 39.9613636,
                "pitch": 47,
                "velocity": 64,
                "duration": 0.1136364,
                "tempo": 120.0
            },
            {
                "start_time": 39.9613636,
                "end_time": 40.0431818,
                "pitch": 35,
                "velocity": 64,
                "duration": 0.0818182,
                "tempo": 120.0
            },
            {
                "start_time": 40.0431818,
                "end_time": 40.1568182,
                "pitch": 47,
                "velocity": 64,
                "duration": 0.1136364,
                "tempo": 120.0
            },
            {
                "start_time": 40.1568182,
                "end_time": 40.2409091,
                "pitch": 35,
                "velocity": 64,
                "duration": 0.0840909,
                "tempo": 120.0
            },
            {
                "start_time": 40.2409091,
                "end_time": 40.3409091,
                "pitch": 35,
                "velocity": 64,
                "duration": 0.1,
                "tempo": 120.0
            },
            {
                "start_time": 40.3568182,
                "end_time": 40.4409091,
                "pitch": 47,
                "velocity": 64,
                "duration": 0.0840909,
                "tempo": 120.0
            },
            {
                "start_time": 40.4409091,
                "end_time": 40.5568182,
                "pitch": 47,
                "velocity": 64,
                "duration": 0.1159091,
                "tempo": 120.0
            },
            {
                "start_time": 40.5568182,
                "end_time": 40.6409091,
                "pitch": 35,
                "velocity": 64,
                "duration": 0.0840909,
                "tempo": 120.0
            },
            {
                "start_time": 40.6409091,
                "end_time": 40.7568182,
                "pitch": 35,
                "velocity": 64,
                "duration": 0.1159091,
                "tempo": 120.0
            },
            {
                "start_time": 40.7568182,
                "end_time": 40.8409091,
                "pitch": 47,
                "velocity": 64,
                "duration": 0.0840909,
                "tempo": 120.0
            },
            {
                "start_time": 40.8409091,
                "end_time": 40.9568182,
                "pitch": 47,
                "velocity": 64,
                "duration": 0.1159091,
                "tempo": 120.0
            },
            {
                "start_time": 40.9568182,
                "end_time": 41.0431818,
                "pitch": 35,
                "velocity": 64,
                "duration": 0.0863636,
                "tempo": 120.0
            },
            {
                "start_time": 41.0431818,
                "end_time": 41.1636364,
                "pitch": 35,
                "velocity": 64,
                "duration": 0.1204545,
                "tempo": 120.0
            },
            {
                "start_time": 41.1636364,
                "end_time": 41.2477273,
                "pitch": 47,
                "velocity": 64,
                "duration": 0.0840909,
                "tempo": 120.0
            },
            {
                "start_time": 41.2477273,
                "end_time": 41.3681818,
                "pitch": 47,
                "velocity": 64,
                "duration": 0.1204545,
                "tempo": 120.0
            },
            {
                "start_time": 41.3681818,
                "end_time": 41.45,
                "pitch": 35,
                "velocity": 64,
                "duration": 0.0818182,
                "tempo": 120.0
            },
            {
                "start_time": 41.45,
                "end_time": 41.5636364,
                "pitch": 47,
                "velocity": 64,
                "duration": 0.1136364,
                "tempo": 120.0
            },
            {
                "start_time": 41.5636364,
                "end_time": 41.6454545,
                "pitch": 35,
                "velocity": 64,
                "duration": 0.0818182,
                "tempo": 120.0
            },
            {
                "start_time": 41.6454545,
                "end_time": 41.7613636,
                "pitch": 47,
                "velocity": 64,
                "duration": 0.1159091,
                "tempo": 120.0
            },
            {
                "start_time": 41.7613636,
                "end_time": 41.8431818,
                "pitch": 35,
                "velocity": 64,
                "duration": 0.0818182,
                "tempo": 120.0
            },
            {
                "start_time": 41.8431818,
                "end_time": 41.9613636,
                "pitch": 35,
                "velocity": 64,
                "duration": 0.1181818,
                "tempo": 120.0
            },
            {
                "start_time": 41.9613636,
                "end_time": 42.0454545,
                "pitch": 47,
                "velocity": 64,
                "duration": 0.0840909,
                "tempo": 120.0
            },
            {
                "start_time": 42.0454545,
                "end_time": 42.1636364,
                "pitch": 47,
                "velocity": 64,
                "duration": 0.1181818,
                "tempo": 120.0
            },
            {
                "start_time": 42.1636364,
                "end_time": 42.2454545,
                "pitch": 35,
                "velocity": 64,
                "duration": 0.0818182,
                "tempo": 120.0
            },
            {
                "start_time": 42.2454545,
                "end_time": 42.3636364,
                "pitch": 35,
                "velocity": 64,
                "duration": 0.1181818,
                "tempo": 120.0
            },
            {
                "start_time": 42.3636364,
                "end_time": 42.4454545,
                "pitch": 47,
                "velocity": 64,
                "duration": 0.0818182,
                "tempo": 120.0
            },
            {
                "start_time": 42.4454545,
                "end_time": 42.5636364,
                "pitch": 47,
                "velocity": 64,
                "duration": 0.1181818,
                "tempo": 120.0
            },
            {
                "start_time": 42.5636364,
                "end_time": 42.6454545,
                "pitch": 35,
                "velocity": 64,
                "duration": 0.0818182,
                "tempo": 120.0
            },
            {
                "start_time": 42.6454545,
                "end_time": 42.7636364,
                "pitch": 35,
                "velocity": 64,
                "duration": 0.1181818,
                "tempo": 120.0
            },
            {
                "start_time": 42.7636364,
                "end_time": 42.8454545,
                "pitch": 47,
                "velocity": 64,
                "duration": 0.0818182,
                "tempo": 120.0
            },
            {
                "start_time": 42.8454545,
                "end_time": 42.9636364,
                "pitch": 47,
                "velocity": 64,
                "duration": 0.1181818,
                "tempo": 120.0
            },
            {
                "start_time": 42.9636364,
                "end_time": 43.0477273,
                "pitch": 35,
                "velocity": 64,
                "duration": 0.0840909,
                "tempo": 120.0
            },
            {
                "start_time": 43.0477273,
                "end_time": 43.1681818,
                "pitch": 47,
                "velocity": 64,
                "duration": 0.1204545,
                "tempo": 120.0
            },
            {
                "start_time": 43.1681818,
                "end_time": 43.2545455,
                "pitch": 35,
                "velocity": 64,
                "duration": 0.0863636,
                "tempo": 120.0
            },
            {
                "start_time": 43.2545455,
                "end_time": 43.3727273,
                "pitch": 47,
                "velocity": 64,
                "duration": 0.1181818,
                "tempo": 120.0
            },
            {
                "start_time": 43.3727273,
                "end_time": 43.4545455,
                "pitch": 40,
                "velocity": 64,
                "duration": 0.0818182,
                "tempo": 120.0
            },
            {
                "start_time": 43.4545455,
                "end_time": 43.5522727,
                "pitch": 40,
                "velocity": 64,
                "duration": 0.0977273,
                "tempo": 120.0
            },
            {
                "start_time": 43.5522727,
                "end_time": 43.6522727,
                "pitch": 52,
                "velocity": 64,
                "duration": 0.1,
                "tempo": 120.0
            },
            {
                "start_time": 43.6522727,
                "end_time": 43.75,
                "pitch": 52,
                "velocity": 64,
                "duration": 0.0977273,
                "tempo": 120.0
            },
            {
                "start_time": 43.75,
                "end_time": 43.85,
                "pitch": 40,
                "velocity": 64,
                "duration": 0.1,
                "tempo": 120.0
            },
            {
                "start_time": 43.85,
                "end_time": 43.9545455,
                "pitch": 39,
                "velocity": 64,
                "duration": 0.1045455,
                "tempo": 120.0
            },
            {
                "start_time": 43.9545455,
                "end_time": 44.0568182,
                "pitch": 51,
                "velocity": 64,
                "duration": 0.1022727,
                "tempo": 120.0
            },
            {
                "start_time": 44.0568182,
                "end_time": 44.1772727,
                "pitch": 51,
                "velocity": 64,
                "duration": 0.1204545,
                "tempo": 120.0
            },
            {
                "start_time": 44.1772727,
                "end_time": 44.2590909,
                "pitch": 39,
                "velocity": 64,
                "duration": 0.0818182,
                "tempo": 120.0
            },
            {
                "start_time": 44.2590909,
                "end_time": 44.3590909,
                "pitch": 38,
                "velocity": 64,
                "duration": 0.1,
                "tempo": 120.0
            },
            {
                "start_time": 44.3590909,
                "end_time": 44.4590909,
                "pitch": 50,
                "velocity": 64,
                "duration": 0.1,
                "tempo": 120.0
            },
            {
                "start_time": 44.4590909,
                "end_time": 44.5590909,
                "pitch": 50,
                "velocity": 64,
                "duration": 0.1,
                "tempo": 120.0
            },
            {
                "start_time": 44.5590909,
                "end_time": 44.6590909,
                "pitch": 38,
                "velocity": 64,
                "duration": 0.1,
                "tempo": 120.0
            },
            {
                "start_time": 44.6590909,
                "end_time": 44.7568182,
                "pitch": 37,
                "velocity": 64,
                "duration": 0.0977273,
                "tempo": 120.0
            },
            {
                "start_time": 44.7568182,
                "end_time": 44.8545455,
                "pitch": 49,
                "velocity": 64,
                "duration": 0.0977273,
                "tempo": 120.0
            },
            {
                "start_time": 44.8545455,
                "end_time": 44.9522727,
                "pitch": 49,
                "velocity": 64,
                "duration": 0.0977273,
                "tempo": 120.0
            },
            {
                "start_time": 44.9681818,
                "end_time": 45.0681818,
                "pitch": 35,
                "velocity": 64,
                "duration": 0.1,
                "tempo": 120.0
            },
            {
                "start_time": 45.0681818,
                "end_time": 45.1522727,
                "pitch": 35,
                "velocity": 64,
                "duration": 0.0840909,
                "tempo": 120.0
            },
            {
                "start_time": 45.1522727,
                "end_time": 45.2522727,
                "pitch": 35,
                "velocity": 64,
                "duration": 0.1,
                "tempo": 120.0
            },
            {
                "start_time": 45.2522727,
                "end_time": 45.3522727,
                "pitch": 35,
                "velocity": 64,
                "duration": 0.1,
                "tempo": 120.0
            },
            {
                "start_time": 45.3522727,
                "end_time": 45.4681818,
                "pitch": 35,
                "velocity": 64,
                "duration": 0.1159091,
                "tempo": 120.0
            },
            {
                "start_time": 45.4681818,
                "end_time": 45.5522727,
                "pitch": 35,
                "velocity": 64,
                "duration": 0.0840909,
                "tempo": 120.0
            },
            {
                "start_time": 45.5522727,
                "end_time": 45.6522727,
                "pitch": 47,
                "velocity": 64,
                "duration": 0.1,
                "tempo": 120.0
            },
            {
                "start_time": 45.6522727,
                "end_time": 45.7522727,
                "pitch": 47,
                "velocity": 64,
                "duration": 0.1,
                "tempo": 120.0
            },
            {
                "start_time": 45.7522727,
                "end_time": 45.85,
                "pitch": 47,
                "velocity": 64,
                "duration": 0.0977273,
                "tempo": 120.0
            },
            {
                "start_time": 45.85,
                "end_time": 45.9477273,
                "pitch": 47,
                "velocity": 64,
                "duration": 0.0977273,
                "tempo": 120.0
            },
            {
                "start_time": 45.9477273,
                "end_time": 46.0454545,
                "pitch": 47,
                "velocity": 64,
                "duration": 0.0977273,
                "tempo": 120.0
            },
            {
                "start_time": 46.0454545,
                "end_time": 46.1431818,
                "pitch": 47,
                "velocity": 64,
                "duration": 0.0977273,
                "tempo": 120.0
            },
            {
                "start_time": 46.1431818,
                "end_time": 46.2454545,
                "pitch": 47,
                "velocity": 64,
                "duration": 0.1022727,
                "tempo": 120.0
            },
            {
                "start_time": 46.2454545,
                "end_time": 46.3454545,
                "pitch": 47,
                "velocity": 64,
                "duration": 0.1,
                "tempo": 120.0
            },
            {
                "start_time": 46.3454545,
                "end_time": 46.4454545,
                "pitch": 47,
                "velocity": 64,
                "duration": 0.1,
                "tempo": 120.0
            },
            {
                "start_time": 46.4454545,
                "end_time": 46.5477273,
                "pitch": 47,
                "velocity": 64,
                "duration": 0.1022727,
                "tempo": 120.0
            },
            {
                "start_time": 46.5477273,
                "end_time": 46.6477273,
                "pitch": 40,
                "velocity": 64,
                "duration": 0.1,
                "tempo": 120.0
            },
            {
                "start_time": 46.6477273,
                "end_time": 46.7477273,
                "pitch": 40,
                "velocity": 64,
                "duration": 0.1,
                "tempo": 120.0
            },
            {
                "start_time": 46.7477273,
                "end_time": 46.8477273,
                "pitch": 40,
                "velocity": 64,
                "duration": 0.1,
                "tempo": 120.0
            },
            {
                "start_time": 46.8477273,
                "end_time": 46.9477273,
                "pitch": 40,
                "velocity": 64,
                "duration": 0.1,
                "tempo": 120.0
            },
            {
                "start_time": 46.9477273,
                "end_time": 47.0477273,
                "pitch": 40,
                "velocity": 64,
                "duration": 0.1,
                "tempo": 120.0
            },
            {
                "start_time": 47.0477273,
                "end_time": 47.1477273,
                "pitch": 39,
                "velocity": 64,
                "duration": 0.1,
                "tempo": 120.0
            },
            {
                "start_time": 47.1477273,
                "end_time": 47.2477273,
                "pitch": 39,
                "velocity": 64,
                "duration": 0.1,
                "tempo": 120.0
            },
            {
                "start_time": 47.2477273,
                "end_time": 47.3477273,
                "pitch": 39,
                "velocity": 64,
                "duration": 0.1,
                "tempo": 120.0
            },
            {
                "start_time": 47.3477273,
                "end_time": 47.4477273,
                "pitch": 39,
                "velocity": 64,
                "duration": 0.1,
                "tempo": 120.0
            },
            {
                "start_time": 47.4477273,
                "end_time": 47.5477273,
                "pitch": 38,
                "velocity": 64,
                "duration": 0.1,
                "tempo": 120.0
            },
            {
                "start_time": 47.5477273,
                "end_time": 47.6477273,
                "pitch": 38,
                "velocity": 64,
                "duration": 0.1,
                "tempo": 120.0
            },
            {
                "start_time": 47.6477273,
                "end_time": 47.7477273,
                "pitch": 38,
                "velocity": 64,
                "duration": 0.1,
                "tempo": 120.0
            },
            {
                "start_time": 47.7477273,
                "end_time": 47.8477273,
                "pitch": 38,
                "velocity": 64,
                "duration": 0.1,
                "tempo": 120.0
            },
            {
                "start_time": 47.8477273,
                "end_time": 47.9477273,
                "pitch": 37,
                "velocity": 64,
                "duration": 0.1,
                "tempo": 120.0
            },
            {
                "start_time": 47.9477273,
                "end_time": 48.0477273,
                "pitch": 37,
                "velocity": 64,
                "duration": 0.1,
                "tempo": 120.0
            },
            {
                "start_time": 48.0477273,
                "end_time": 48.1636364,
                "pitch": 37,
                "velocity": 64,
                "duration": 0.1159091,
                "tempo": 120.0
            },
            {
                "start_time": 48.1636364,
                "end_time": 48.1818182,
                "pitch": 37,
                "velocity": 64,
                "duration": 0.0181818,
                "tempo": 120.0
            }
        ]
    }
}