{
    "mood": "angry",
    "instruments": {
        "Flute": [
            {
                "start_time": 0.0,
                "end_time": 0.2,
                "pitch": 76,
                "velocity": 101,
                "duration": 0.2,
                "tempo": 120.0
            },
            {
                "start_time": 0.2,
                "end_time": 0.4,
                "pitch": 81,
                "velocity": 101,
                "duration": 0.2,
                "tempo": 120.0
            },
            {
                "start_time": 0.4,
                "end_time": 0.4977273,
                "pitch": 86,
                "velocity": 101,
                "duration": 0.0977273,
                "tempo": 120.0
            },
            {
                "start_time": 0.4977273,
                "end_time": 3.2204545,
                "pitch": 88,
                "velocity": 101,
                "duration": 2.7227273,
                "tempo": 120.0
            },
            {
                "start_time": 3.2204545,
                "end_time": 3.3181818,
                "pitch": 86,
                "velocity": 101,
                "duration": 0.0977273,
                "tempo": 120.0
            },
            {
                "start_time": 3.3181818,
                "end_time": 3.4159091,
                "pitch": 88,
                "velocity": 101,
                "duration": 0.0977273,
                "tempo": 120.0
            },
            {
                "start_time": 3.4159091,
                "end_time": 3.6113636,
                "pitch": 76,
                "velocity": 101,
                "duration": 0.1954545,
                "tempo": 120.0
            },
            {
                "start_time": 3.6113636,
                "end_time": 4.8227273,
                "pitch": 81,
                "velocity": 101,
                "duration": 1.2113636,
                "tempo": 120.0
            },
            {
                "start_time": 4.8227273,
                "end_time": 4.9568182,
                "pitch": 83,
                "velocity": 101,
                "duration": 0.1340909,
                "tempo": 120.0
            },
            {
                "start_time": 4.9568182,
                "end_time": 5.0909091,
                "pitch": 85,
                "velocity": 101,
                "duration": 0.1340909,
                "tempo": 120.0
            },
            {
                "start_time": 5.0909091,
                "end_time": 6.4340909,
                "pitch": 83,
                "velocity": 101,
                "duration": 1.3431818,
                "tempo": 120.0
            },
            {
                "start_time": 6.4340909,
                "end_time": 6.6295455,
                "pitch": 76,
                "velocity": 101,
                "duration": 0.1954545,
                "tempo": 120.0
            },
            {
                "start_time": 6.6295455,
                "end_time": 6.8272727,
                "pitch": 81,
                "velocity": 101,
                "duration": 0.1977273,
                "tempo": 120.0
            },
            {
                "start_time": 6.8272727,
                "end_time": 6.925,
                "pitch": 86,
                "velocity": 101,
                "duration": 0.0977273,
                "tempo": 120.0
            },
            {
                "start_time": 6.925,
                "end_time": 9.6477273,
                "pitch": 88,
                "velocity": 101,
                "duration": 2.7227273,
                "tempo": 120.0
            },
            {
                "start_time": 9.6477273,
                "end_time": 9.7477273,
                "pitch": 86,
                "velocity": 101,
                "duration": 0.1,
                "tempo": 120.0
            },
            {
                "start_time": 9.7477273,
                "end_time": 9.8454545,
                "pitch": 88,
                "velocity": 101,
                "duration": 0.0977273,
                "tempo": 120.0
            },
            {
                "start_time": 9.8454545,
                "end_time": 10.0409091,
                "pitch": 76,
                "velocity": 101,
                "duration": 0.1954545,
                "tempo": 120.0
            },
            {
                "start_time": 10.0409091,
                "end_time": 11.2522727,
                "pitch": 81,
                "velocity": 101,
                "duration": 1.2113636,
                "tempo": 120.0
            },
            {
                "start_time": 11.2522727,
                "end_time": 11.3863636,
                "pitch": 83,
                "velocity": 101,
                "duration": 0.1340909,
                "tempo": 120.0
            },
            {
                "start_time": 11.3863636,
                "end_time": 11.5204545,
                "pitch": 85,
                "velocity": 101,
                "duration": 0.1340909,
                "tempo": 120.0
            },
            {
                "start_time": 11.5204545,
                "end_time": 12.5181818,
                "pitch": 83,
                "velocity": 101,
                "duration": 0.9977273,
                "tempo": 120.0
            }
        ],
        "Electric Guitar (clean)": [
            {
                "start_time": 0.0,
                "end_time": 0.0840909,
                "pitch": 28,
                "velocity": 80,
                "duration": 0.0840909,
                "tempo": 120.0
            },
            {
                "start_time": 0.5636364,
                "end_time": 0.775,
                "pitch": 28,
                "velocity": 80,
                "duration": 0.2113636,
                "tempo": 120.0
            },
            {
                "start_time": 0.7909091,
                "end_time": 0.8772727,
                "pitch": 28,
                "velocity": 80,
                "duration": 0.0863636,
                "tempo": 120.0
            },
            {
                "start_time": 0.8954545,
                "end_time": 0.9795455,
                "pitch": 31,
                "velocity": 80,
                "duration": 0.0840909,
                "tempo": 120.0
            },
            {
                "start_time": 0.9977273,
                "end_time": 1.0840909,
                "pitch": 33,
                "velocity": 80,
                "duration": 0.0863636,
                "tempo": 120.0
            },
            {
                "start_time": 1.1,
                "end_time": 1.1863636,
                "pitch": 35,
                "velocity": 80,
                "duration": 0.0863636,
                "tempo": 120.0
            },
            {
                "start_time": 1.2022727,
                "end_time": 1.4795455,
                "pitch": 40,
                "velocity": 80,
                "duration": 0.2772727,
                "tempo": 120.0
            },
            {
                "start_time": 1.4954545,
                "end_time": 1.7840909,
                "pitch": 38,
                "velocity": 80,
                "duration": 0.2886364,
                "tempo": 120.0
            },
            {
                "start_time": 1.8,
                "end_time": 1.9886364,
                "pitch": 37,
                "velocity": 80,
                "duration": 0.1886364,
                "tempo": 120.0
            },
            {
                "start_time": 2.0045455,
                "end_time": 2.1931818,
                "pitch": 37,
                "velocity": 80,
                "duration": 0.1886364,
                "tempo": 120.0
            },
            {
                "start_time": 2.2113636,
                "end_time": 2.5909091,
                "pitch": 37,
                "velocity": 80,
                "duration": 0.3795455,
                "tempo": 120.0
            },
            {
                "start_time": 2.6068182,
                "end_time": 2.7818182,
                "pitch": 35,
                "velocity": 80,
                "duration": 0.175,
                "tempo": 120.0
            },
            {
                "start_time": 2.7977273,
                "end_time": 3.2022727,
                "pitch": 33,
                "velocity": 80,
                "duration": 0.4045455,
                "tempo": 120.0
            },
            {
                "start_time": 3.2204545,
                "end_time": 3.3022727,
                "pitch": 28,
                "velocity": 80,
                "duration": 0.0818182,
                "tempo": 120.0
            },
            {
                "start_time": 3.775,
                "end_time": 3.9863636,
                "pitch": 28,
                "velocity": 80,
                "duration": 0.2113636,
                "tempo": 120.0
            },
            {
                "start_time": 4.0045455,
                "end_time": 4.0886364,
                "pitch": 28,
                "velocity": 80,
                "duration": 0.0840909,
                "tempo": 120.0
            },
            {
                "start_time": 4.1068182,
                "end_time": 4.1931818,
                "pitch": 31,
                "velocity": 80,
                "duration": 0.0863636,
                "tempo": 120.0
            },
            {
                "start_time": 4.2090909,
                "end_time": 4.2954545,
                "pitch": 33,
                "velocity": 80,
                "duration": 0.0863636,
                "tempo": 120.0
            },
            {
                "start_time": 4.3113636,
                "end_time": 4.3977273,
                "pitch": 35,
                "velocity": 80,
                "duration": 0.0863636,
                "tempo": 120.0
            },
            {
                "start_time": 4.4136364,
                "end_time": 4.6931818,
                "pitch": 40,
                "velocity": 80,
                "duration": 0.2795455,
                "tempo": 120.0
            },
            {
                "start_time": 4.7090909,
                "end_time": 4.9909091,
                "pitch": 38,
                "velocity": 80,
                "duration": 0.2818182,
                "tempo": 120.0
            },
            {
                "start_time": 5.0090909,
                "end_time": 5.1931818,
                "pitch": 37,
                "velocity": 80,
                "duration": 0.1840909,
                "tempo": 120.0
            },
            {
                "start_time": 5.2090909,
                "end_time": 5.4022727,
                "pitch": 37,
                "velocity": 80,
                "duration": 0.1931818,
                "tempo": 120.0
            },
            {
                "start_time": 5.4204545,
                "end_time": 5.8045455,
                "pitch": 45,
                "velocity": 80,
                "duration": 0.3840909,
                "tempo": 120.0
            },
            {
                "start_time": 5.8204545,
                "end_time": 5.9977273,
                "pitch": 43,
                "velocity": 80,
                "duration": 0.1772727,
                "tempo": 120.0
            },
            {
                "start_time": 6.0136364,
                "end_time": 6.4159091,
                "pitch": 42,
                "velocity": 80,
                "duration": 0.4022727,
                "tempo": 120.0
            },
            {
                "start_time": 6.4340909,
                "end_time": 6.5159091,
                "pitch": 28,
                "velocity": 80,
                "duration": 0.0818182,
                "tempo": 120.0
            },
            {
                "start_time": 6.9886364,
                "end_time": 7.2022727,
                "pitch": 28,
                "velocity": 80,
                "duration": 0.2136364,
                "tempo": 120.0
            },
            {
                "start_time": 7.2181818,
                "end_time": 7.3045455,
                "pitch": 28,
                "velocity": 80,
                "duration": 0.0863636,
                "tempo": 120.0
            },
            {
                "start_time": 7.3204545,
                "end_time": 7.4068182,
                "pitch": 31,
                "velocity": 80,
                "duration": 0.0863636,
                "tempo": 120.0
            },
            {
                "start_time": 7.425,
                "end_time": 7.5090909,
                "pitch": 33,
                "velocity": 80,
                "duration": 0.0840909,
                "tempo": 120.0
            },
            {
                "start_time": 7.5272727,
                "end_time": 7.6113636,
                "pitch": 35,
                "velocity": 80,
                "duration": 0.0840909,
                "tempo": 120.0
            },
            {
                "start_time": 7.6295455,
                "end_time": 7.9068182,
                "pitch": 40,
                "velocity": 80,
                "duration": 0.2772727,
                "tempo": 120.0
            },
            {
                "start_time": 7.9227273,
                "end_time": 8.2068182,
                "pitch": 38,
                "velocity": 80,
                "duration": 0.2840909,
                "tempo": 120.0
            },
            {
                "start_time": 8.2227273,
                "end_time": 8.4068182,
                "pitch": 37,
                "velocity": 80,
                "duration": 0.1840909,
                "tempo": 120.0
            },
            {
                "start_time": 8.425,
                "end_time": 8.6181818,
                "pitch": 37,
                "velocity": 80,
                "duration": 0.1931818,
                "tempo": 120.0
            },
            {
                "start_time": 8.6340909,
                "end_time": 9.025,
                "pitch": 37,
                "velocity": 80,
                "duration": 0.3909091,
                "tempo": 120.0
            },
            {
                "start_time": 9.0431818,
                "end_time": 9.2227273,
                "pitch": 35,
                "velocity": 80,
                "duration": 0.1795455,
                "tempo": 120.0
            },
            {
                "start_time": 9.2386364,
                "end_time": 9.6318182,
                "pitch": 33,
                "velocity": 80,
                "duration": 0.3931818,
                "tempo": 120.0
            },
            {
                "start_time": 9.6477273,
                "end_time": 9.7295455,
                "pitch": 28,
                "velocity": 80,
                "duration": 0.0818182,
                "tempo": 120.0
            },
            {
                "start_time": 10.2090909,
                "end_time": 10.4272727,
                "pitch": 28,
                "velocity": 80,
                "duration": 0.2181818,
                "tempo": 120.0
            },
            {
                "start_time": 10.4431818,
                "end_time": 10.5295455,
                "pitch": 28,
                "velocity": 80,
                "duration": 0.0863636,
                "tempo": 120.0
            },
            {
                "start_time": 10.5454545,
                "end_time": 10.6318182,
                "pitch": 31,
                "velocity": 80,
                "duration": 0.0863636,
                "tempo": 120.0
            },
            {
                "start_time": 10.6477273,
                "end_time": 10.7340909,
                "pitch": 33,
                "velocity": 80,
                "duration": 0.0863636,
                "tempo": 120.0
            },
            {
                "start_time": 10.7522727,
                "end_time": 10.8363636,
                "pitch": 35,
                "velocity": 80,
                "duration": 0.0840909,
                "tempo": 120.0
            },
            {
                "start_time": 10.8545455,
                "end_time": 11.125,
                "pitch": 40,
                "velocity": 80,
                "duration": 0.2704545,
                "tempo": 120.0
            },
            {
                "start_time": 11.1409091,
                "end_time": 11.4204545,
                "pitch": 38,
                "velocity": 80,
                "duration": 0.2795455,
                "tempo": 120.0
            },
            {
                "start_time": 11.4386364,
                "end_time": 11.6227273,
                "pitch": 37,
                "velocity": 80,
                "duration": 0.1840909,
                "tempo": 120.0
            },
            {
                "start_time": 11.6386364,
                "end_time": 11.8318182,
                "pitch": 37,
                "velocity": 80,
                "duration": 0.1931818,
                "tempo": 120.0
            },
            {
                "start_time": 11.85,
                "end_time": 12.2409091,
                "pitch": 45,
                "velocity": 80,
                "duration": 0.3909091,
                "tempo": 120.0
            },
            {
                "start_time": 12.2568182,
                "end_time": 12.4363636,
                "pitch": 43,
                "velocity": 80,
                "duration": 0.1795455,
                "tempo": 120.0
            },
            {
                "start_time": 12.4522727,
                "end_time": 12.8295455,
                "pitch": 42,
                "velocity": 80,
                "duration": 0.3772727,
                "tempo": 120.0
            },
            {
                "start_time": 12.8454545,
                "end_time": 13.0295455,
                "pitch": 45,
                "velocity": 80,
                "duration": 0.1840909,
                "tempo": 120.0
            },
            {
                "start_time": 13.0454545,
                "end_time": 13.2295455,
                "pitch": 45,
                "velocity": 80,
                "duration": 0.1840909,
                "tempo": 120.0
            },
            {
                "start_time": 13.2454545,
                "end_time": 13.3318182,
                "pitch": 45,
                "velocity": 80,
                "duration": 0.0863636,
                "tempo": 120.0
            },
            {
                "start_time": 13.3477273,
                "end_time": 13.5363636,
                "pitch": 43,
                "velocity": 80,
                "duration": 0.1886364,
                "tempo": 120.0
            },
            {
                "start_time": 13.5545455,
                "end_time": 13.7409091,
                "pitch": 42,
                "velocity": 80,
                "duration": 0.1863636,
                "tempo": 120.0
            },
            {
                "start_time": 13.7568182,
                "end_time": 13.9409091,
                "pitch": 43,
                "velocity": 80,
                "duration": 0.1840909,
                "tempo": 120.0
            },
            {
                "start_time": 13.9590909,
                "end_time": 14.0431818,
                "pitch": 42,
                "velocity": 80,
                "duration": 0.0840909,
                "tempo": 120.0
            },
            {
                "start_time": 14.0590909,
                "end_time": 14.2386364,
                "pitch": 38,
                "velocity": 80,
                "duration": 0.1795455,
                "tempo": 120.0
            },
            {
                "start_time": 14.2545455,
                "end_time": 14.4340909,
                "pitch": 40,
                "velocity": 80,
                "duration": 0.1795455,
                "tempo": 120.0
            },
            {
                "start_time": 14.4522727,
                "end_time": 14.6363636,
                "pitch": 45,
                "velocity": 80,
                "duration": 0.1840909,
                "tempo": 120.0
            },
            {
                "start_time": 14.6522727,
                "end_time": 14.8363636,
                "pitch": 45,
                "velocity": 80,
                "duration": 0.1840909,
                "tempo": 120.0
            },
            {
                "start_time": 14.8545455,
                "end_time": 14.9386364,
                "pitch": 45,
                "velocity": 80,
                "duration": 0.0840909,
                "tempo": 120.0
            },
            {
                "start_time": 14.9568182,
                "end_time": 15.1454545,
                "pitch": 43,
                "velocity": 80,
                "duration": 0.1886364,
                "tempo": 120.0
            },
            {
                "start_time": 15.1613636,
                "end_time": 15.3454545,
                "pitch": 42,
                "velocity": 80,
                "duration": 0.1840909,
                "tempo": 120.0
            },
            {
                "start_time": 15.3636364,
                "end_time": 15.4431818,
                "pitch": 43,
                "velocity": 80,
                "duration": 0.0795455,
                "tempo": 120.0
            },
            {
                "start_time": 15.4613636,
                "end_time": 16.0431818,
                "pitch": 50,
                "velocity": 80,
                "duration": 0.5818182,
                "tempo": 120.0
            },
            {
                "start_time": 16.0590909,
                "end_time": 16.2431818,
                "pitch": 45,
                "velocity": 80,
                "duration": 0.1840909,
                "tempo": 120.0
            },
            {
                "start_time": 16.2613636,
                "end_time": 16.4454545,
                "pitch": 45,
                "velocity": 80,
                "duration": 0.1840909,
                "tempo": 120.0
            },
            {
                "start_time": 16.4613636,
                "end_time": 16.5477273,
                "pitch": 45,
                "velocity": 80,
                "duration": 0.0863636,
                "tempo": 120.0
            },
            {
                "start_time": 16.5659091,
                "end_time": 16.7522727,
                "pitch": 43,
                "velocity": 80,
                "duration": 0.1863636,
                "tempo": 120.0
            },
            {
                "start_time": 16.7704545,
                "end_time": 16.9568182,
                "pitch": 42,
                "velocity": 80,
                "duration": 0.1863636,
                "tempo": 120.0
            },
            {
                "start_time": 16.975,
                "end_time": 17.1590909,
                "pitch": 43,
                "velocity": 80,
                "duration": 0.1840909,
                "tempo": 120.0
            },
            {
                "start_time": 17.175,
                "end_time": 17.2590909,
                "pitch": 42,
                "velocity": 80,
                "duration": 0.0840909,
                "tempo": 120.0
            },
            {
                "start_time": 17.275,
                "end_time": 17.4545455,
                "pitch": 38,
                "velocity": 80,
                "duration": 0.1795455,
                "tempo": 120.0
            },
            {
                "start_time": 17.4727273,
                "end_time": 17.6522727,
                "pitch": 40,
                "velocity": 80,
                "duration": 0.1795455,
                "tempo": 120.0
            },
            {
                "start_time": 17.6681818,
                "end_time": 17.8568182,
                "pitch": 45,
                "velocity": 80,
                "duration": 0.1886364,
                "tempo": 120.0
            },
            {
                "start_time": 17.8727273,
                "end_time": 18.0613636,
                "pitch": 45,
                "velocity": 80,
                "duration": 0.1886364,
                "tempo": 120.0
            },
            {
                "start_time": 18.0795455,
                "end_time": 18.1613636,
                "pitch": 45,
                "velocity": 80,
                "duration": 0.0818182,
                "tempo": 120.0
            },
            {
                "start_time": 18.1795455,
                "end_time": 18.3613636,
                "pitch": 43,
                "velocity": 80,
                "duration": 0.1818182,
                "tempo": 120.0
            },
            {
                "start_time": 18.3795455,
                "end_time": 18.5613636,
                "pitch": 42,
                "velocity": 80,
                "duration": 0.1818182,
                "tempo": 120.0
            },
            {
                "start_time": 18.5772727,
                "end_time": 18.6590909,
                "pitch": 43,
                "velocity": 80,
                "duration": 0.0818182,
                "tempo": 120.0
            },
            {
                "start_time": 18.675,
                "end_time": 19.2545455,
                "pitch": 50,
                "velocity": 80,
                "duration": 0.5795455,
                "tempo": 120.0
            }
        ],
        "Harpsichord": [
            {
                "start_time": 0.0,
                "end_time": 0.0840909,
                "pitch": 52,
                "velocity": 64,
                "duration": 0.0840909,
                "tempo": 120.0
            },
            {
                "start_time": 0.5636364,
                "end_time": 0.775,
                "pitch": 52,
                "velocity": 64,
                "duration": 0.2113636,
                "tempo": 120.0
            },
            {
                "start_time": 0.7909091,
                "end_time": 0.8772727,
                "pitch": 52,
                "velocity": 64,
                "duration": 0.0863636,
                "tempo": 120.0
            },
            {
                "start_time": 0.8954545,
                "end_time": 0.9795455,
                "pitch": 55,
                "velocity": 64,
                "duration": 0.0840909,
                "tempo": 120.0
            },
            {
                "start_time": 0.9977273,
                "end_time": 1.0840909,
                "pitch": 57,
                "velocity": 64,
                "duration": 0.0863636,
                "tempo": 120.0
            },
            {
                "start_time": 1.1,
                "end_time": 1.1863636,
                "pitch": 59,
                "velocity": 64,
                "duration": 0.0863636,
                "tempo": 120.0
            },
            {
                "start_time": 1.2022727,
                "end_time": 1.4795455,
                "pitch": 64,
                "velocity": 64,
                "duration": 0.2772727,
                "tempo": 120.0
            },
            {
                "start_time": 1.4954545,
                "end_time": 1.7840909,
                "pitch": 62,
                "velocity": 64,
                "duration": 0.2886364,
                "tempo": 120.0
            },
            {
                "start_time": 1.8,
                "end_time": 1.9886364,
                "pitch": 61,
                "velocity": 64,
                "duration": 0.1886364,
                "tempo": 120.0
            },
            {
                "start_time": 2.0045455,
                "end_time": 2.1931818,
                "pitch": 61,
                "velocity": 64,
                "duration": 0.1886364,
                "tempo": 120.0
            },
            {
                "start_time": 2.2113636,
                "end_time": 2.5909091,
                "pitch": 61,
                "velocity": 64,
                "duration": 0.3795455,
                "tempo": 120.0
            },
            {
                "start_time": 2.6068182,
                "end_time": 2.7818182,
                "pitch": 59,
                "velocity": 64,
                "duration": 0.175,
                "tempo": 120.0
            },
            {
                "start_time": 2.7977273,
                "end_time": 3.2022727,
                "pitch": 57,
                "velocity": 64,
                "duration": 0.4045455,
                "tempo": 120.0
            },
            {
                "start_time": 3.2204545,
                "end_time": 3.3022727,
                "pitch": 52,
                "velocity": 64,
                "duration": 0.0818182,
                "tempo": 120.0
            },
            {
                "start_time": 3.775,
                "end_time": 3.9863636,
                "pitch": 52,
                "velocity": 64,
                "duration": 0.2113636,
                "tempo": 120.0
            },
            {
                "start_time": 4.0045455,
                "end_time": 4.0886364,
                "pitch": 52,
                "velocity": 64,
                "duration": 0.0840909,
                "tempo": 120.0
            },
            {
                "start_time": 4.1068182,
                "end_time": 4.1931818,
                "pitch": 55,
                "velocity": 64,
                "duration": 0.0863636,
                "tempo": 120.0
            },
            {
                "start_time": 4.2090909,
                "end_time": 4.2954545,
                "pitch": 57,
                "velocity": 64,
                "duration": 0.0863636,
                "tempo": 120.0
            },
            {
                "start_time": 4.3113636,
                "end_time": 4.3977273,
                "pitch": 59,
                "velocity": 64,
                "duration": 0.0863636,
                "tempo": 120.0
            },
            {
                "start_time": 4.4136364,
                "end_time": 4.6931818,
                "pitch": 64,
                "velocity": 64,
                "duration": 0.2795455,
                "tempo": 120.0
            },
            {
                "start_time": 4.7090909,
                "end_time": 4.9909091,
                "pitch": 62,
                "velocity": 64,
                "duration": 0.2818182,
                "tempo": 120.0
            },
            {
                "start_time": 5.0090909,
                "end_time": 5.1931818,
                "pitch": 61,
                "velocity": 64,
                "duration": 0.1840909,
                "tempo": 120.0
            },
            {
                "start_time": 5.2090909,
                "end_time": 5.4022727,
                "pitch": 61,
                "velocity": 64,
                "duration": 0.1931818,
                "tempo": 120.0
            },
            {
                "start_time": 5.4204545,
                "end_time": 5.8045455,
                "pitch": 69,
                "velocity": 64,
                "duration": 0.3840909,
                "tempo": 120.0
            },
            {
                "start_time": 5.8204545,
                "end_time": 5.9977273,
                "pitch": 67,
                "velocity": 64,
                "duration": 0.1772727,
                "tempo": 120.0
            },
            {
                "start_time": 6.0136364,
                "end_time": 6.4159091,
                "pitch": 66,
                "velocity": 64,
                "duration": 0.4022727,
                "tempo": 120.0
            },
            {
                "start_time": 6.4340909,
                "end_time": 6.5159091,
                "pitch": 52,
                "velocity": 64,
                "duration": 0.0818182,
                "tempo": 120.0
            },
            {
                "start_time": 6.9886364,
                "end_time": 7.2022727,
                "pitch": 52,
                "velocity": 64,
                "duration": 0.2136364,
                "tempo": 120.0
            },
            {
                "start_time": 7.2181818,
                "end_time": 7.3045455,
                "pitch": 52,
                "velocity": 64,
                "duration": 0.0863636,
                "tempo": 120.0
            },
            {
                "start_time": 7.3204545,
                "end_time": 7.4068182,
                "pitch": 55,
                "velocity": 64,
                "duration": 0.0863636,
                "tempo": 120.0
            },
            {
                "start_time": 7.425,
                "end_time": 7.5090909,
                "pitch": 57,
                "velocity": 64,
                "duration": 0.0840909,
                "tempo": 120.0
            },
            {
                "start_time": 7.5272727,
                "end_time": 7.6113636,
                "pitch": 59,
                "velocity": 64,
                "duration": 0.0840909,
                "tempo": 120.0
            },
            {
                "start_time": 7.6295455,
                "end_time": 7.9068182,
                "pitch": 64,
                "velocity": 64,
                "duration": 0.2772727,
                "tempo": 120.0
            },
            {
                "start_time": 7.9227273,
                "end_time": 8.2068182,
                "pitch": 62,
                "velocity": 64,
                "duration": 0.2840909,
                "tempo": 120.0
            },
            {
                "start_time": 8.2227273,
                "end_time": 8.4068182,
                "pitch": 61,
                "velocity": 64,
                "duration": 0.1840909,
                "tempo": 120.0
            },
            {
                "start_time": 8.425,
                "end_time": 8.6181818,
                "pitch": 61,
                "velocity": 64,
                "duration": 0.1931818,
                "tempo": 120.0
            },
            {
                "start_time": 8.6340909,
                "end_time": 9.025,
                "pitch": 61,
                "velocity": 64,
                "duration": 0.3909091,
                "tempo": 120.0
            },
            {
                "start_time": 9.0431818,
                "end_time": 9.2227273,
                "pitch": 59,
                "velocity": 64,
                "duration": 0.1795455,
                "tempo": 120.0
            },
            {
                "start_time": 9.2386364,
                "end_time": 9.6318182,
                "pitch": 57,
                "velocity": 64,
                "duration": 0.3931818,
                "tempo": 120.0
            },
            {
                "start_time": 9.6477273,
                "end_time": 9.7295455,
                "pitch": 52,
                "velocity": 64,
                "duration": 0.0818182,
                "tempo": 120.0
            },
            {
                "start_time": 10.2090909,
                "end_time": 10.4272727,
                "pitch": 52,
                "velocity": 64,
                "duration": 0.2181818,
                "tempo": 120.0
            },
            {
                "start_time": 10.4431818,
                "end_time": 10.5295455,
                "pitch": 52,
                "velocity": 64,
                "duration": 0.0863636,
                "tempo": 120.0
            },
            {
                "start_time": 10.5454545,
                "end_time": 10.6318182,
                "pitch": 55,
                "velocity": 64,
                "duration": 0.0863636,
                "tempo": 120.0
            },
            {
                "start_time": 10.6477273,
                "end_time": 10.7340909,
                "pitch": 57,
                "velocity": 64,
                "duration": 0.0863636,
                "tempo": 120.0
            },
            {
                "start_time": 10.7522727,
                "end_time": 10.8363636,
                "pitch": 59,
                "velocity": 64,
                "duration": 0.0840909,
                "tempo": 120.0
            },
            {
                "start_time": 10.8545455,
                "end_time": 11.125,
                "pitch": 64,
                "velocity": 64,
                "duration": 0.2704545,
                "tempo": 120.0
            },
            {
                "start_time": 11.1409091,
                "end_time": 11.4204545,
                "pitch": 62,
                "velocity": 64,
                "duration": 0.2795455,
                "tempo": 120.0
            },
            {
                "start_time": 11.4386364,
                "end_time": 11.6227273,
                "pitch": 61,
                "velocity": 64,
                "duration": 0.1840909,
                "tempo": 120.0
            },
            {
                "start_time": 11.6386364,
                "end_time": 11.8318182,
                "pitch": 61,
                "velocity": 64,
                "duration": 0.1931818,
                "tempo": 120.0
            },
            {
                "start_time": 11.85,
                "end_time": 12.2409091,
                "pitch": 69,
                "velocity": 64,
                "duration": 0.3909091,
                "tempo": 120.0
            },
            {
                "start_time": 12.2568182,
                "end_time": 12.4363636,
                "pitch": 67,
                "velocity": 64,
                "duration": 0.1795455,
                "tempo": 120.0
            },
            {
                "start_time": 12.4522727,
                "end_time": 12.8295455,
                "pitch": 66,
                "velocity": 64,
                "duration": 0.3772727,
                "tempo": 120.0
            },
            {
                "start_time": 12.8454545,
                "end_time": 13.0295455,
                "pitch": 69,
                "velocity": 64,
                "duration": 0.1840909,
                "tempo": 120.0
            },
            {
                "start_time": 13.0454545,
                "end_time": 13.2295455,
                "pitch": 69,
                "velocity": 64,
                "duration": 0.1840909,
                "tempo": 120.0
            },
            {
                "start_time": 13.2454545,
                "end_time": 13.3318182,
                "pitch": 69,
                "velocity": 64,
                "duration": 0.0863636,
                "tempo": 120.0
            },
            {
                "start_time": 13.3477273,
                "end_time": 13.5363636,
                "pitch": 67,
                "velocity": 64,
                "duration": 0.1886364,
                "tempo": 120.0
            },
            {
                "start_time": 13.5545455,
                "end_time": 13.7409091,
                "pitch": 66,
                "velocity": 64,
                "duration": 0.1863636,
                "tempo": 120.0
            },
            {
                "start_time": 13.7568182,
                "end_time": 13.9409091,
                "pitch": 67,
                "velocity": 64,
                "duration": 0.1840909,
                "tempo": 120.0
            },
            {
                "start_time": 13.9590909,
                "end_time": 14.0431818,
                "pitch": 66,
                "velocity": 64,
                "duration": 0.0840909,
                "tempo": 120.0
            },
            {
                "start_time": 14.0590909,
                "end_time": 14.2386364,
                "pitch": 62,
                "velocity": 64,
                "duration": 0.1795455,
                "tempo": 120.0
            },
            {
                "start_time": 14.2545455,
                "end_time": 14.4340909,
                "pitch": 64,
                "velocity": 64,
                "duration": 0.1795455,
                "tempo": 120.0
            },
            {
                "start_time": 14.4522727,
                "end_time": 14.6363636,
                "pitch": 69,
                "velocity": 64,
                "duration": 0.1840909,
                "tempo": 120.0
            },
            {
                "start_time": 14.6522727,
                "end_time": 14.8363636,
                "pitch": 69,
                "velocity": 64,
                "duration": 0.1840909,
                "tempo": 120.0
            },
            {
                "start_time": 14.8545455,
                "end_time": 14.9386364,
                "pitch": 69,
                "velocity": 64,
                "duration": 0.0840909,
                "tempo": 120.0
            },
            {
                "start_time": 14.9568182,
                "end_time": 15.1454545,
                "pitch": 67,
                "velocity": 64,
                "duration": 0.1886364,
                "tempo": 120.0
            },
            {
                "start_time": 15.1613636,
                "end_time": 15.3454545,
                "pitch": 66,
                "velocity": 64,
                "duration": 0.1840909,
                "tempo": 120.0
            },
            {
                "start_time": 15.3636364,
                "end_time": 15.4431818,
                "pitch": 67,
                "velocity": 64,
                "duration": 0.0795455,
                "tempo": 120.0
            },
            {
                "start_time": 15.4613636,
                "end_time": 16.0431818,
                "pitch": 74,
                "velocity": 64,
                "duration": 0.5818182,
                "tempo": 120.0
            },
            {
                "start_time": 16.0590909,
                "end_time": 16.2431818,
                "pitch": 69,
                "velocity": 64,
                "duration": 0.1840909,
                "tempo": 120.0
            },
            {
                "start_time": 16.2613636,
                "end_time": 16.4454545,
                "pitch": 69,
                "velocity": 64,
                "duration": 0.1840909,
                "tempo": 120.0
            },
            {
                "start_time": 16.4613636,
                "end_time": 16.5477273,
                "pitch": 69,
                "velocity": 64,
                "duration": 0.0863636,
                "tempo": 120.0
            },
            {
                "start_time": 16.5659091,
                "end_time": 16.7522727,
                "pitch": 67,
                "velocity": 64,
                "duration": 0.1863636,
                "tempo": 120.0
            },
            {
                "start_time": 16.7704545,
                "end_time": 16.9568182,
                "pitch": 66,
                "velocity": 64,
                "duration": 0.1863636,
                "tempo": 120.0
            },
            {
                "start_time": 16.975,
                "end_time": 17.1590909,
                "pitch": 67,
                "velocity": 64,
                "duration": 0.1840909,
                "tempo": 120.0
            },
            {
                "start_time": 17.175,
                "end_time": 17.2590909,
                "pitch": 66,
                "velocity": 64,
                "duration": 0.0840909,
                "tempo": 120.0
            },
            {
                "start_time": 17.275,
                "end_time": 17.4545455,
                "pitch": 62,
                "velocity": 64,
                "duration": 0.1795455,
                "tempo": 120.0
            },
            {
                "start_time": 17.4727273,
                "end_time": 17.6522727,
                "pitch": 64,
                "velocity": 64,
                "duration": 0.1795455,
                "tempo": 120.0
            },
            {
                "start_time": 17.6681818,
                "end_time": 17.8568182,
                "pitch": 69,
                "velocity": 64,
                "duration": 0.1886364,
                "tempo": 120.0
            },
            {
                "start_time": 17.8727273,
                "end_time": 18.0613636,
                "pitch": 69,
                "velocity": 64,
                "duration": 0.1886364,
                "tempo": 120.0
            },
            {
                "start_time": 18.0795455,
                "end_time": 18.1613636,
                "pitch": 69,
                "velocity": 64,
                "duration": 0.0818182,
                "tempo": 120.0
            },
            {
                "start_time": 18.1795455,
                "end_time": 18.3613636,
                "pitch": 67,
                "velocity": 64,
                "duration": 0.1818182,
                "tempo": 120.0
            },
            {
                "start_time": 18.3795455,
                "end_time": 18.5613636,
                "pitch": 66,
                "velocity": 64,
                "duration": 0.1818182,
                "tempo": 120.0
            },
            {
                "start_time": 18.5772727,
                "end_time": 18.6590909,
                "pitch": 67,
                "velocity": 64,
                "duration": 0.0818182,
                "tempo": 120.0
            },
            {
                "start_time": 18.675,
                "end_time": 19.2704545,
                "pitch": 74,
                "velocity": 64,
                "duration": 0.5954545,
                "tempo": 120.0
            }
        ]
    }
}