{
    "mood": "angry",
    "instruments": {
        "Acoustic Bass": [
            {
                "start_time": 0.0,
                "end_time": 2.5954545,
                "pitch": 24,
                "velocity": 101,
                "duration": 2.5954545,
                "tempo": 120.0
            },
            {
                "start_time": 2.6136364,
                "end_time": 3.0568182,
                "pitch": 25,
                "velocity": 101,
                "duration": 0.4431818,
                "tempo": 120.0
            },
            {
                "start_time": 3.075,
                "end_time": 6.6,
                "pitch": 32,
                "velocity": 101,
                "duration": 3.525,
                "tempo": 120.0
            },
            {
                "start_time": 6.6181818,
                "end_time": 7.1295455,
                "pitch": 31,
                "velocity": 101,
                "duration": 0.5113636,
                "tempo": 120.0
            },
            {
                "start_time": 7.1477273,
                "end_time": 10.2795455,
                "pitch": 36,
                "velocity": 101,
                "duration": 3.1318182,
                "tempo": 120.0
            },
            {
                "start_time": 10.2954545,
                "end_time": 10.7409091,
                "pitch": 32,
                "velocity": 101,
                "duration": 0.4454545,
                "tempo": 120.0
            },
            {
                "start_time": 10.7568182,
                "end_time": 14.3409091,
                "pitch": 24,
                "velocity": 101,
                "duration": 3.5840909,
                "tempo": 120.0
            },
            {
                "start_time": 14.3568182,
                "end_time": 16.6068182,
                "pitch": 24,
                "velocity": 101,
                "duration": 2.25,
                "tempo": 120.0
            },
            {
                "start_time": 16.625,
                "end_time": 17.0590909,
                "pitch": 25,
                "velocity": 101,
                "duration": 0.4340909,
                "tempo": 120.0
            },
            {
                "start_time": 17.075,
                "end_time": 17.5,
                "pitch": 31,
                "velocity": 101,
                "duration": 0.425,
                "tempo": 120.0
            },
            {
                "start_time": 17.5159091,
                "end_time": 20.2181818,
                "pitch": 32,
                "velocity": 101,
                "duration": 2.7022727,
                "tempo": 120.0
            },
            {
                "start_time": 20.2340909,
                "end_time": 21.1113636,
                "pitch": 36,
                "velocity": 101,
                "duration": 0.8772727,
                "tempo": 120.0
            },
            {
                "start_time": 21.1272727,
                "end_time": 21.5727273,
                "pitch": 31,
                "velocity": 101,
                "duration": 0.4454545,
                "tempo": 120.0
            },
            {
                "start_time": 21.5886364,
                "end_time": 25.1727273,
                "pitch": 32,
                "velocity": 101,
                "duration": 3.5840909,
                "tempo": 120.0
            },
            {
                "start_time": 25.1886364,
                "end_time": 28.7818182,
                "pitch": 24,
                "velocity": 101,
                "duration": 3.5931818,
                "tempo": 120.0
            },
            {
                "start_time": 28.8,
                "end_time": 31.05,
                "pitch": 24,
                "velocity": 101,
                "duration": 2.25,
                "tempo": 120.0
            },
            {
                "start_time": 31.0659091,
                "end_time": 31.5,
                "pitch": 25,
                "velocity": 101,
                "duration": 0.4340909,
                "tempo": 120.0
            },
            {
                "start_time": 31.5181818,
                "end_time": 31.9431818,
                "pitch": 31,
                "velocity": 101,
                "duration": 0.425,
                "tempo": 120.0
            },
            {
                "start_time": 31.9590909,
                "end_time": 34.6590909,
                "pitch": 32,
                "velocity": 101,
                "duration": 2.7,
                "tempo": 120.0
            },
            {
                "start_time": 34.6772727,
                "end_time": 35.5522727,
                "pitch": 36,
                "velocity": 101,
                "duration": 0.875,
                "tempo": 120.0
            },
            {
                "start_time": 35.5704545,
                "end_time": 36.0136364,
                "pitch": 32,
                "velocity": 101,
                "duration": 0.4431818,
                "tempo": 120.0
            },
            {
                "start_time": 36.0295455,
                "end_time": 38.2704545,
                "pitch": 31,
                "velocity": 101,
                "duration": 2.2409091,
                "tempo": 120.0
            },
            {
                "start_time": 38.2863636,
                "end_time": 39.1636364,
                "pitch": 32,
                "velocity": 101,
                "duration": 0.8772727,
                "tempo": 120.0
            },
            {
                "start_time": 39.1795455,
                "end_time": 39.625,
                "pitch": 25,
                "velocity": 101,
                "duration": 0.4454545,
                "tempo": 120.0
            },
            {
                "start_time": 39.6409091,
                "end_time": 43.225,
                "pitch": 24,
                "velocity": 101,
                "duration": 3.5840909,
                "tempo": 120.0
            }
        ],
        "Synth Bass 1": [
            {
                "start_time": 0.0,
                "end_time": 2.5954545,
                "pitch": 48,
                "velocity": 80,
                "duration": 2.5954545,
                "tempo": 120.0
            },
            {
                "start_time": 2.6136364,
                "end_time": 3.0568182,
                "pitch": 49,
                "velocity": 80,
                "duration": 0.4431818,
                "tempo": 120.0
            },
            {
                "start_time": 3.075,
                "end_time": 6.6681818,
                "pitch": 56,
                "velocity": 80,
                "duration": 3.5931818,
                "tempo": 120.0
            },
            {
                "start_time": 6.6863636,
                "end_time": 7.1295455,
                "pitch": 55,
                "velocity": 80,
                "duration": 0.4431818,
                "tempo": 120.0
            },
            {
                "start_time": 7.1477273,
                "end_time": 10.2795455,
                "pitch": 60,
                "velocity": 80,
                "duration": 3.1318182,
                "tempo": 120.0
            },
            {
                "start_time": 10.2954545,
                "end_time": 10.7409091,
                "pitch": 56,
                "velocity": 80,
                "duration": 0.4454545,
                "tempo": 120.0
            },
            {
                "start_time": 10.7568182,
                "end_time": 14.3409091,
                "pitch": 48,
                "velocity": 80,
                "duration": 3.5840909,
                "tempo": 120.0
            },
            {
                "start_time": 14.3568182,
                "end_time": 16.6068182,
                "pitch": 48,
                "velocity": 80,
                "duration": 2.25,
                "tempo": 120.0
            },
            {
                "start_time": 16.625,
                "end_time": 17.0590909,
                "pitch": 49,
                "velocity": 80,
                "duration": 0.4340909,
                "tempo": 120.0
            },
            {
                "start_time": 17.075,
                "end_time": 17.5,
                "pitch": 55,
                "velocity": 80,
                "duration": 0.425,
                "tempo": 120.0
            },
            {
                "start_time": 17.5159091,
                "end_time": 20.2181818,
                "pitch": 56,
                "velocity": 80,
                "duration": 2.7022727,
                "tempo": 120.0
            },
            {
                "start_time": 20.2340909,
                "end_time": 21.1113636,
                "pitch": 60,
                "velocity": 80,
                "duration": 0.8772727,
                "tempo": 120.0
            },
            {
                "start_time": 21.1272727,
                "end_time": 21.5727273,
                "pitch": 55,
                "velocity": 80,
                "duration": 0.4454545,
                "tempo": 120.0
            },
            {
                "start_time": 21.5886364,
                "end_time": 25.1727273,
                "pitch": 56,
                "velocity": 80,
                "duration": 3.5840909,
                "tempo": 120.0
            },
            {
                "start_time": 25.1886364,
                "end_time": 28.7818182,
                "pitch": 48,
                "velocity": 80,
                "duration": 3.5931818,
                "tempo": 120.0
            },
            {
                "start_time": 28.8,
                "end_time": 31.05,
                "pitch": 48,
                "velocity": 80,
                "duration": 2.25,
                "tempo": 120.0
            },
            {
                "start_time": 31.0659091,
                "end_time": 31.5,
                "pitch": 49,
                "velocity": 80,
                "duration": 0.4340909,
                "tempo": 120.0
            },
            {
                "start_time": 31.5181818,
                "end_time": 31.8772727,
                "pitch": 55,
                "velocity": 80,
                "duration": 0.3590909,
                "tempo": 120.0
            },
            {
                "start_time": 31.8931818,
                "end_time": 34.6590909,
                "pitch": 56,
                "velocity": 80,
                "duration": 2.7659091,
                "tempo": 120.0
            },
            {
                "start_time": 34.6772727,
                "end_time": 35.5522727,
                "pitch": 60,
                "velocity": 80,
                "duration": 0.875,
                "tempo": 120.0
            },
            {
                "start_time": 35.5704545,
                "end_time": 36.0136364,
                "pitch": 56,
                "velocity": 80,
                "duration": 0.4431818,
                "tempo": 120.0
            },
            {
                "start_time": 36.0295455,
                "end_time": 38.2704545,
                "pitch": 55,
                "velocity": 80,
                "duration": 2.2409091,
                "tempo": 120.0
            },
            {
                "start_time": 38.2863636,
                "end_time": 39.1636364,
                "pitch": 56,
                "velocity": 80,
                "duration": 0.8772727,
                "tempo": 120.0
            },
            {
                "start_time": 39.1795455,
                "end_time": 39.625,
                "pitch": 49,
                "velocity": 80,
                "duration": 0.4454545,
                "tempo": 120.0
            },
            {
                "start_time": 39.6409091,
                "end_time": 43.225,
                "pitch": 48,
                "velocity": 80,
                "duration": 3.5840909,
                "tempo": 120.0
            }
        ]
    }
}