{
    "mood": "angry",
    "instruments": {
        "Violin": [
            {
                "start_time": 0.0659091,
                "end_time": 1.6340909,
                "pitch": 71,
                "velocity": 40,
                "duration": 1.5681818,
                "tempo": 120.0
            },
            {
                "start_time": 1.6522727,
                "end_time": 3.2386364,
                "pitch": 71,
                "velocity": 40,
                "duration": 1.5863636,
                "tempo": 120.0
            },
            {
                "start_time": 38.5727273,
                "end_time": 40.1590909,
                "pitch": 71,
                "velocity": 40,
                "duration": 1.5863636,
                "tempo": 120.0
            },
            {
                "start_time": 40.175,
                "end_time": 41.7613636,
                "pitch": 71,
                "velocity": 40,
                "duration": 1.5863636,
                "tempo": 120.0
            },
            {
                "start_time": 77.0659091,
                "end_time": 78.6545455,
                "pitch": 71,
                "velocity": 40,
                "duration": 1.5886364,
                "tempo": 120.0
            },
            {
                "start_time": 78.6704545,
                "end_time": 80.2590909,
                "pitch": 71,
                "velocity": 40,
                "duration": 1.5886364,
                "tempo": 120.0
            },
            {
                "start_time": 115.6159091,
                "end_time": 117.2045455,
                "pitch": 71,
                "velocity": 40,
                "duration": 1.5886364,
                "tempo": 120.0
            },
            {
                "start_time": 117.2204545,
                "end_time": 118.8113636,
                "pitch": 71,
                "velocity": 40,
                "duration": 1.5909091,
                "tempo": 120.0
            },
            {
                "start_time": 154.2113636,
                "end_time": 154.2954545,
                "pitch": 71,
                "velocity": 40,
                "duration": 0.0840909,
                "tempo": 120.0
            }
        ],
        "Harpsichord": [
            {
                "start_time": 3.1863636,
                "end_time": 3.3045455,
                "pitch": 53,
                "velocity": 64,
                "duration": 0.1181818,
                "tempo": 120.0
            },
            {
                "start_time": 3.3227273,
                "end_time": 3.4386364,
                "pitch": 53,
                "velocity": 64,
                "duration": 0.1159091,
                "tempo": 120.0
            },
            {
                "start_time": 3.4568182,
                "end_time": 3.5727273,
                "pitch": 53,
                "velocity": 64,
                "duration": 0.1159091,
                "tempo": 120.0
            },
            {
                "start_time": 3.5909091,
                "end_time": 3.7068182,
                "pitch": 54,
                "velocity": 64,
                "duration": 0.1159091,
                "tempo": 120.0
            },
            {
                "start_time": 3.7227273,
                "end_time": 3.8409091,
                "pitch": 53,
                "velocity": 64,
                "duration": 0.1181818,
                "tempo": 120.0
            },
            {
                "start_time": 3.8568182,
                "end_time": 3.9727273,
                "pitch": 53,
                "velocity": 64,
                "duration": 0.1159091,
                "tempo": 120.0
            },
            {
                "start_time": 3.9909091,
                "end_time": 4.1068182,
                "pitch": 56,
                "velocity": 64,
                "duration": 0.1159091,
                "tempo": 120.0
            },
            {
                "start_time": 4.1227273,
                "end_time": 4.2409091,
                "pitch": 54,
                "velocity": 64,
                "duration": 0.1181818,
                "tempo": 120.0
            },
            {
                "start_time": 4.2568182,
                "end_time": 4.3727273,
                "pitch": 53,
                "velocity": 64,
                "duration": 0.1159091,
                "tempo": 120.0
            },
            {
                "start_time": 4.3909091,
                "end_time": 4.5068182,
                "pitch": 58,
                "velocity": 64,
                "duration": 0.1159091,
                "tempo": 120.0
            },
            {
                "start_time": 4.525,
                "end_time": 4.6409091,
                "pitch": 56,
                "velocity": 64,
                "duration": 0.1159091,
                "tempo": 120.0
            },
            {
                "start_time": 4.6590909,
                "end_time": 4.775,
                "pitch": 54,
                "velocity": 64,
                "duration": 0.1159091,
                "tempo": 120.0
            },
            {
                "start_time": 4.7931818,
                "end_time": 4.9090909,
                "pitch": 53,
                "velocity": 64,
                "duration": 0.1159091,
                "tempo": 120.0
            },
            {
                "start_time": 4.925,
                "end_time": 5.0431818,
                "pitch": 53,
                "velocity": 64,
                "duration": 0.1181818,
                "tempo": 120.0
            },
            {
                "start_time": 5.0590909,
                "end_time": 5.175,
                "pitch": 53,
                "velocity": 64,
                "duration": 0.1159091,
                "tempo": 120.0
            },
            {
                "start_time": 5.1931818,
                "end_time": 5.3090909,
                "pitch": 54,
                "velocity": 64,
                "duration": 0.1159091,
                "tempo": 120.0
            },
            {
                "start_time": 5.3272727,
                "end_time": 5.4454545,
                "pitch": 53,
                "velocity": 64,
                "duration": 0.1181818,
                "tempo": 120.0
            },
            {
                "start_time": 5.4613636,
                "end_time": 5.5795455,
                "pitch": 53,
                "velocity": 64,
                "duration": 0.1181818,
                "tempo": 120.0
            },
            {
                "start_time": 5.5954545,
                "end_time": 5.7113636,
                "pitch": 56,
                "velocity": 64,
                "duration": 0.1159091,
                "tempo": 120.0
            },
            {
                "start_time": 5.7295455,
                "end_time": 5.8454545,
                "pitch": 54,
                "velocity": 64,
                "duration": 0.1159091,
                "tempo": 120.0
            },
            {
                "start_time": 5.8613636,
                "end_time": 5.9795455,
                "pitch": 53,
                "velocity": 64,
                "duration": 0.1181818,
                "tempo": 120.0
            },
            {
                "start_time": 5.9954545,
                "end_time": 6.1136364,
                "pitch": 61,
                "velocity": 64,
                "duration": 0.1181818,
                "tempo": 120.0
            },
            {
                "start_time": 6.1295455,
                "end_time": 6.2477273,
                "pitch": 60,
                "velocity": 64,
                "duration": 0.1181818,
                "tempo": 120.0
            },
            {
                "start_time": 6.2636364,
                "end_time": 6.3818182,
                "pitch": 54,
                "velocity": 64,
                "duration": 0.1181818,
                "tempo": 120.0
            },
            {
                "start_time": 6.3977273,
                "end_time": 6.5159091,
                "pitch": 53,
                "velocity": 64,
                "duration": 0.1181818,
                "tempo": 120.0
            },
            {
                "start_time": 6.5318182,
                "end_time": 6.65,
                "pitch": 53,
                "velocity": 64,
                "duration": 0.1181818,
                "tempo": 120.0
            },
            {
                "start_time": 6.6659091,
                "end_time": 6.7840909,
                "pitch": 53,
                "velocity": 64,
                "duration": 0.1181818,
                "tempo": 120.0
            },
            {
                "start_time": 6.8,
                "end_time": 6.9181818,
                "pitch": 54,
                "velocity": 64,
                "duration": 0.1181818,
                "tempo": 120.0
            },
            {
                "start_time": 6.9340909,
                "end_time": 7.05,
                "pitch": 53,
                "velocity": 64,
                "duration": 0.1159091,
                "tempo": 120.0
            },
            {
                "start_time": 7.0681818,
                "end_time": 7.1840909,
                "pitch": 53,
                "velocity": 64,
                "duration": 0.1159091,
                "tempo": 120.0
            },
            {
                "start_time": 7.2,
                "end_time": 7.3181818,
                "pitch": 56,
                "velocity": 64,
                "duration": 0.1181818,
                "tempo": 120.0
            },
            {
                "start_time": 7.3340909,
                "end_time": 7.4522727,
                "pitch": 54,
                "velocity": 64,
                "duration": 0.1181818,
                "tempo": 120.0
            },
            {
                "start_time": 7.4681818,
                "end_time": 7.5863636,
                "pitch": 53,
                "velocity": 64,
                "duration": 0.1181818,
                "tempo": 120.0
            },
            {
                "start_time": 7.6045455,
                "end_time": 7.7204545,
                "pitch": 58,
                "velocity": 64,
                "duration": 0.1159091,
                "tempo": 120.0
            },
            {
                "start_time": 7.7363636,
                "end_time": 7.8545455,
                "pitch": 56,
                "velocity": 64,
                "duration": 0.1181818,
                "tempo": 120.0
            },
            {
                "start_time": 7.8704545,
                "end_time": 7.9863636,
                "pitch": 54,
                "velocity": 64,
                "duration": 0.1159091,
                "tempo": 120.0
            },
            {
                "start_time": 8.0045455,
                "end_time": 8.1204545,
                "pitch": 53,
                "velocity": 64,
                "duration": 0.1159091,
                "tempo": 120.0
            },
            {
                "start_time": 8.1386364,
                "end_time": 8.2545455,
                "pitch": 54,
                "velocity": 64,
                "duration": 0.1159091,
                "tempo": 120.0
            },
            {
                "start_time": 8.2727273,
                "end_time": 8.3886364,
                "pitch": 56,
                "velocity": 64,
                "duration": 0.1159091,
                "tempo": 120.0
            },
            {
                "start_time": 8.4068182,
                "end_time": 8.5227273,
                "pitch": 58,
                "velocity": 64,
                "duration": 0.1159091,
                "tempo": 120.0
            },
            {
                "start_time": 8.5409091,
                "end_time": 8.6568182,
                "pitch": 60,
                "velocity": 64,
                "duration": 0.1159091,
                "tempo": 120.0
            },
            {
                "start_time": 8.675,
                "end_time": 8.7931818,
                "pitch": 61,
                "velocity": 64,
                "duration": 0.1181818,
                "tempo": 120.0
            },
            {
                "start_time": 8.8090909,
                "end_time": 9.0613636,
                "pitch": 63,
                "velocity": 64,
                "duration": 0.2522727,
                "tempo": 120.0
            },
            {
                "start_time": 9.0772727,
                "end_time": 9.3272727,
                "pitch": 65,
                "velocity": 64,
                "duration": 0.25,
                "tempo": 120.0
            },
            {
                "start_time": 9.3454545,
                "end_time": 9.5954545,
                "pitch": 66,
                "velocity": 64,
                "duration": 0.25,
                "tempo": 120.0
            },
            {
                "start_time": 9.6113636,
                "end_time": 9.7295455,
                "pitch": 53,
                "velocity": 64,
                "duration": 0.1181818,
                "tempo": 120.0
            },
            {
                "start_time": 9.7454545,
                "end_time": 9.8636364,
                "pitch": 53,
                "velocity": 64,
                "duration": 0.1181818,
                "tempo": 120.0
            },
            {
                "start_time": 9.8795455,
                "end_time": 9.9977273,
                "pitch": 53,
                "velocity": 64,
                "duration": 0.1181818,
                "tempo": 120.0
            },
            {
                "start_time": 10.0136364,
                "end_time": 10.1318182,
                "pitch": 54,
                "velocity": 64,
                "duration": 0.1181818,
                "tempo": 120.0
            },
            {
                "start_time": 10.1477273,
                "end_time": 10.2659091,
                "pitch": 53,
                "velocity": 64,
                "duration": 0.1181818,
                "tempo": 120.0
            },
            {
                "start_time": 10.2818182,
                "end_time": 10.4,
                "pitch": 53,
                "velocity": 64,
                "duration": 0.1181818,
                "tempo": 120.0
            },
            {
                "start_time": 10.4159091,
                "end_time": 10.5340909,
                "pitch": 56,
                "velocity": 64,
                "duration": 0.1181818,
                "tempo": 120.0
            },
            {
                "start_time": 10.5522727,
                "end_time": 10.6681818,
                "pitch": 54,
                "velocity": 64,
                "duration": 0.1159091,
                "tempo": 120.0
            },
            {
                "start_time": 10.6863636,
                "end_time": 10.8022727,
                "pitch": 53,
                "velocity": 64,
                "duration": 0.1159091,
                "tempo": 120.0
            },
            {
                "start_time": 10.8204545,
                "end_time": 10.9363636,
                "pitch": 58,
                "velocity": 64,
                "duration": 0.1159091,
                "tempo": 120.0
            },
            {
                "start_time": 10.9545455,
                "end_time": 11.0704545,
                "pitch": 56,
                "velocity": 64,
                "duration": 0.1159091,
                "tempo": 120.0
            },
            {
                "start_time": 11.0886364,
                "end_time": 11.2045455,
                "pitch": 54,
                "velocity": 64,
                "duration": 0.1159091,
                "tempo": 120.0
            },
            {
                "start_time": 11.2227273,
                "end_time": 11.3386364,
                "pitch": 53,
                "velocity": 64,
                "duration": 0.1159091,
                "tempo": 120.0
            },
            {
                "start_time": 11.3545455,
                "end_time": 11.4727273,
                "pitch": 53,
                "velocity": 64,
                "duration": 0.1181818,
                "tempo": 120.0
            },
            {
                "start_time": 11.4886364,
                "end_time": 11.6045455,
                "pitch": 53,
                "velocity": 64,
                "duration": 0.1159091,
                "tempo": 120.0
            },
            {
                "start_time": 11.6227273,
                "end_time": 11.7386364,
                "pitch": 54,
                "velocity": 64,
                "duration": 0.1159091,
                "tempo": 120.0
            },
            {
                "start_time": 11.7568182,
                "end_time": 11.875,
                "pitch": 53,
                "velocity": 64,
                "duration": 0.1181818,
                "tempo": 120.0
            },
            {
                "start_time": 11.8909091,
                "end_time": 12.0090909,
                "pitch": 53,
                "velocity": 64,
                "duration": 0.1181818,
                "tempo": 120.0
            },
            {
                "start_time": 12.025,
                "end_time": 12.1431818,
                "pitch": 56,
                "velocity": 64,
                "duration": 0.1181818,
                "tempo": 120.0
            },
            {
                "start_time": 12.1590909,
                "end_time": 12.2772727,
                "pitch": 54,
                "velocity": 64,
                "duration": 0.1181818,
                "tempo": 120.0
            },
            {
                "start_time": 12.2931818,
                "end_time": 12.4113636,
                "pitch": 53,
                "velocity": 64,
                "duration": 0.1181818,
                "tempo": 120.0
            },
            {
                "start_time": 12.4272727,
                "end_time": 12.5454545,
                "pitch": 61,
                "velocity": 64,
                "duration": 0.1181818,
                "tempo": 120.0
            },
            {
                "start_time": 12.5613636,
                "end_time": 12.6795455,
                "pitch": 60,
                "velocity": 64,
                "duration": 0.1181818,
                "tempo": 120.0
            },
            {
                "start_time": 12.6954545,
                "end_time": 12.8136364,
                "pitch": 54,
                "velocity": 64,
                "duration": 0.1181818,
                "tempo": 120.0
            },
            {
                "start_time": 12.8295455,
                "end_time": 12.9477273,
                "pitch": 53,
                "velocity": 64,
                "duration": 0.1181818,
                "tempo": 120.0
            },
            {
                "start_time": 12.9636364,
                "end_time": 13.0818182,
                "pitch": 53,
                "velocity": 64,
                "duration": 0.1181818,
                "tempo": 120.0
            },
            {
                "start_time": 13.0977273,
                "end_time": 13.2159091,
                "pitch": 53,
                "velocity": 64,
                "duration": 0.1181818,
                "tempo": 120.0
            },
            {
                "start_time": 13.2340909,
                "end_time": 13.35,
                "pitch": 54,
                "velocity": 64,
                "duration": 0.1159091,
                "tempo": 120.0
            },
            {
                "start_time": 13.3659091,
                "end_time": 13.4840909,
                "pitch": 53,
                "velocity": 64,
                "duration": 0.1181818,
                "tempo": 120.0
            },
            {
                "start_time": 13.5,
                "end_time": 13.6159091,
                "pitch": 53,
                "velocity": 64,
                "duration": 0.1159091,
                "tempo": 120.0
            },
            {
                "start_time": 13.6340909,
                "end_time": 13.75,
                "pitch": 56,
                "velocity": 64,
                "duration": 0.1159091,
                "tempo": 120.0
            },
            {
                "start_time": 13.7681818,
                "end_time": 13.8840909,
                "pitch": 54,
                "velocity": 64,
                "duration": 0.1159091,
                "tempo": 120.0
            },
            {
                "start_time": 13.9022727,
                "end_time": 14.0181818,
                "pitch": 53,
                "velocity": 64,
                "duration": 0.1159091,
                "tempo": 120.0
            },
            {
                "start_time": 14.0363636,
                "end_time": 14.1522727,
                "pitch": 58,
                "velocity": 64,
                "duration": 0.1159091,
                "tempo": 120.0
            },
            {
                "start_time": 14.1704545,
                "end_time": 14.2863636,
                "pitch": 56,
                "velocity": 64,
                "duration": 0.1159091,
                "tempo": 120.0
            },
            {
                "start_time": 14.3045455,
                "end_time": 14.4227273,
                "pitch": 54,
                "velocity": 64,
                "duration": 0.1181818,
                "tempo": 120.0
            },
            {
                "start_time": 14.4386364,
                "end_time": 14.5568182,
                "pitch": 53,
                "velocity": 64,
                "duration": 0.1181818,
                "tempo": 120.0
            },
            {
                "start_time": 14.5727273,
                "end_time": 14.6909091,
                "pitch": 54,
                "velocity": 64,
                "duration": 0.1181818,
                "tempo": 120.0
            },
            {
                "start_time": 14.7068182,
                "end_time": 14.825,
                "pitch": 56,
                "velocity": 64,
                "duration": 0.1181818,
                "tempo": 120.0
            },
            {
                "start_time": 14.8409091,
                "end_time": 14.9590909,
                "pitch": 58,
                "velocity": 64,
                "duration": 0.1181818,
                "tempo": 120.0
            },
            {
                "start_time": 14.975,
                "end_time": 15.0931818,
                "pitch": 60,
                "velocity": 64,
                "duration": 0.1181818,
                "tempo": 120.0
            },
            {
                "start_time": 15.1090909,
                "end_time": 15.2272727,
                "pitch": 61,
                "velocity": 64,
                "duration": 0.1181818,
                "tempo": 120.0
            },
            {
                "start_time": 15.2431818,
                "end_time": 15.3613636,
                "pitch": 63,
                "velocity": 64,
                "duration": 0.1181818,
                "tempo": 120.0
            },
            {
                "start_time": 15.3772727,
                "end_time": 15.4931818,
                "pitch": 65,
                "velocity": 64,
                "duration": 0.1159091,
                "tempo": 120.0
            },
            {
                "start_time": 15.5113636,
                "end_time": 15.6272727,
                "pitch": 66,
                "velocity": 64,
                "duration": 0.1159091,
                "tempo": 120.0
            },
            {
                "start_time": 15.6431818,
                "end_time": 15.7613636,
                "pitch": 76,
                "velocity": 64,
                "duration": 0.1181818,
                "tempo": 120.0
            },
            {
                "start_time": 15.7772727,
                "end_time": 15.8954545,
                "pitch": 75,
                "velocity": 64,
                "duration": 0.1181818,
                "tempo": 120.0
            },
            {
                "start_time": 15.9113636,
                "end_time": 16.0295455,
                "pitch": 73,
                "velocity": 64,
                "duration": 0.1181818,
                "tempo": 120.0
            },
            {
                "start_time": 32.0840909,
                "end_time": 32.3409091,
                "pitch": 46,
                "velocity": 64,
                "duration": 0.2568182,
                "tempo": 120.0
            },
            {
                "start_time": 32.3590909,
                "end_time": 32.4772727,
                "pitch": 46,
                "velocity": 64,
                "duration": 0.1181818,
                "tempo": 120.0
            },
            {
                "start_time": 32.4954545,
                "end_time": 32.6113636,
                "pitch": 46,
                "velocity": 64,
                "duration": 0.1159091,
                "tempo": 120.0
            },
            {
                "start_time": 32.6295455,
                "end_time": 32.7454545,
                "pitch": 46,
                "velocity": 64,
                "duration": 0.1159091,
                "tempo": 120.0
            },
            {
                "start_time": 32.7613636,
                "end_time": 32.8795455,
                "pitch": 46,
                "velocity": 64,
                "duration": 0.1181818,
                "tempo": 120.0
            },
            {
                "start_time": 32.8954545,
                "end_time": 33.1454545,
                "pitch": 58,
                "velocity": 64,
                "duration": 0.25,
                "tempo": 120.0
            },
            {
                "start_time": 33.1613636,
                "end_time": 33.2795455,
                "pitch": 56,
                "velocity": 64,
                "duration": 0.1181818,
                "tempo": 120.0
            },
            {
                "start_time": 33.2954545,
                "end_time": 33.5477273,
                "pitch": 56,
                "velocity": 64,
                "duration": 0.2522727,
                "tempo": 120.0
            },
            {
                "start_time": 33.5636364,
                "end_time": 33.6818182,
                "pitch": 58,
                "velocity": 64,
                "duration": 0.1181818,
                "tempo": 120.0
            },
            {
                "start_time": 33.6977273,
                "end_time": 33.9477273,
                "pitch": 46,
                "velocity": 64,
                "duration": 0.25,
                "tempo": 120.0
            },
            {
                "start_time": 33.9636364,
                "end_time": 34.0818182,
                "pitch": 46,
                "velocity": 64,
                "duration": 0.1181818,
                "tempo": 120.0
            },
            {
                "start_time": 34.0977273,
                "end_time": 34.2136364,
                "pitch": 46,
                "velocity": 64,
                "duration": 0.1159091,
                "tempo": 120.0
            },
            {
                "start_time": 34.2318182,
                "end_time": 34.3477273,
                "pitch": 46,
                "velocity": 64,
                "duration": 0.1159091,
                "tempo": 120.0
            },
            {
                "start_time": 34.3636364,
                "end_time": 34.4818182,
                "pitch": 46,
                "velocity": 64,
                "duration": 0.1181818,
                "tempo": 120.0
            },
            {
                "start_time": 34.4977273,
                "end_time": 34.7477273,
                "pitch": 54,
                "velocity": 64,
                "duration": 0.25,
                "tempo": 120.0
            },
            {
                "start_time": 34.7636364,
                "end_time": 34.8818182,
                "pitch": 56,
                "velocity": 64,
                "duration": 0.1181818,
                "tempo": 120.0
            },
            {
                "start_time": 34.8977273,
                "end_time": 35.0136364,
                "pitch": 56,
                "velocity": 64,
                "duration": 0.1159091,
                "tempo": 120.0
            },
            {
                "start_time": 35.0318182,
                "end_time": 35.1477273,
                "pitch": 46,
                "velocity": 64,
                "duration": 0.1159091,
                "tempo": 120.0
            },
            {
                "start_time": 35.1636364,
                "end_time": 35.2818182,
                "pitch": 46,
                "velocity": 64,
                "duration": 0.1181818,
                "tempo": 120.0
            },
            {
                "start_time": 35.2977273,
                "end_time": 35.55,
                "pitch": 46,
                "velocity": 64,
                "duration": 0.2522727,
                "tempo": 120.0
            },
            {
                "start_time": 35.5659091,
                "end_time": 35.6840909,
                "pitch": 46,
                "velocity": 64,
                "duration": 0.1181818,
                "tempo": 120.0
            },
            {
                "start_time": 35.7,
                "end_time": 35.8181818,
                "pitch": 46,
                "velocity": 64,
                "duration": 0.1181818,
                "tempo": 120.0
            },
            {
                "start_time": 35.8340909,
                "end_time": 35.95,
                "pitch": 46,
                "velocity": 64,
                "duration": 0.1159091,
                "tempo": 120.0
            },
            {
                "start_time": 35.9681818,
                "end_time": 36.0840909,
                "pitch": 46,
                "velocity": 64,
                "duration": 0.1159091,
                "tempo": 120.0
            },
            {
                "start_time": 36.1,
                "end_time": 36.35,
                "pitch": 58,
                "velocity": 64,
                "duration": 0.25,
                "tempo": 120.0
            },
            {
                "start_time": 36.3681818,
                "end_time": 36.4840909,
                "pitch": 56,
                "velocity": 64,
                "duration": 0.1159091,
                "tempo": 120.0
            },
            {
                "start_time": 36.5,
                "end_time": 36.75,
                "pitch": 56,
                "velocity": 64,
                "duration": 0.25,
                "tempo": 120.0
            },
            {
                "start_time": 36.7681818,
                "end_time": 36.8840909,
                "pitch": 58,
                "velocity": 64,
                "duration": 0.1159091,
                "tempo": 120.0
            },
            {
                "start_time": 36.9,
                "end_time": 37.15,
                "pitch": 46,
                "velocity": 64,
                "duration": 0.25,
                "tempo": 120.0
            },
            {
                "start_time": 37.1681818,
                "end_time": 37.2840909,
                "pitch": 46,
                "velocity": 64,
                "duration": 0.1159091,
                "tempo": 120.0
            },
            {
                "start_time": 37.3,
                "end_time": 37.4181818,
                "pitch": 46,
                "velocity": 64,
                "duration": 0.1181818,
                "tempo": 120.0
            },
            {
                "start_time": 37.4340909,
                "end_time": 37.5522727,
                "pitch": 46,
                "velocity": 64,
                "duration": 0.1181818,
                "tempo": 120.0
            },
            {
                "start_time": 37.5681818,
                "end_time": 37.6863636,
                "pitch": 46,
                "velocity": 64,
                "duration": 0.1181818,
                "tempo": 120.0
            },
            {
                "start_time": 37.7045455,
                "end_time": 37.9545455,
                "pitch": 54,
                "velocity": 64,
                "duration": 0.25,
                "tempo": 120.0
            },
            {
                "start_time": 37.9704545,
                "end_time": 38.0863636,
                "pitch": 56,
                "velocity": 64,
                "duration": 0.1159091,
                "tempo": 120.0
            },
            {
                "start_time": 38.1045455,
                "end_time": 38.2204545,
                "pitch": 56,
                "velocity": 64,
                "duration": 0.1159091,
                "tempo": 120.0
            },
            {
                "start_time": 38.2363636,
                "end_time": 38.3545455,
                "pitch": 46,
                "velocity": 64,
                "duration": 0.1181818,
                "tempo": 120.0
            },
            {
                "start_time": 38.3704545,
                "end_time": 38.4863636,
                "pitch": 46,
                "velocity": 64,
                "duration": 0.1159091,
                "tempo": 120.0
            },
            {
                "start_time": 41.7113636,
                "end_time": 41.8272727,
                "pitch": 53,
                "velocity": 64,
                "duration": 0.1159091,
                "tempo": 120.0
            },
            {
                "start_time": 41.8454545,
                "end_time": 41.9613636,
                "pitch": 53,
                "velocity": 64,
                "duration": 0.1159091,
                "tempo": 120.0
            },
            {
                "start_time": 41.9772727,
                "end_time": 42.0954545,
                "pitch": 53,
                "velocity": 64,
                "duration": 0.1181818,
                "tempo": 120.0
            },
            {
                "start_time": 42.1113636,
                "end_time": 42.2272727,
                "pitch": 54,
                "velocity": 64,
                "duration": 0.1159091,
                "tempo": 120.0
            },
            {
                "start_time": 42.2454545,
                "end_time": 42.3613636,
                "pitch": 53,
                "velocity": 64,
                "duration": 0.1159091,
                "tempo": 120.0
            },
            {
                "start_time": 42.3772727,
                "end_time": 42.4954545,
                "pitch": 53,
                "velocity": 64,
                "duration": 0.1181818,
                "tempo": 120.0
            },
            {
                "start_time": 42.5113636,
                "end_time": 42.6272727,
                "pitch": 56,
                "velocity": 64,
                "duration": 0.1159091,
                "tempo": 120.0
            },
            {
                "start_time": 42.6454545,
                "end_time": 42.7613636,
                "pitch": 54,
                "velocity": 64,
                "duration": 0.1159091,
                "tempo": 120.0
            },
            {
                "start_time": 42.7772727,
                "end_time": 42.8954545,
                "pitch": 53,
                "velocity": 64,
                "duration": 0.1181818,
                "tempo": 120.0
            },
            {
                "start_time": 42.9113636,
                "end_time": 43.0272727,
                "pitch": 58,
                "velocity": 64,
                "duration": 0.1159091,
                "tempo": 120.0
            },
            {
                "start_time": 43.0454545,
                "end_time": 43.1613636,
                "pitch": 56,
                "velocity": 64,
                "duration": 0.1159091,
                "tempo": 120.0
            },
            {
                "start_time": 43.1772727,
                "end_time": 43.2954545,
                "pitch": 54,
                "velocity": 64,
                "duration": 0.1181818,
                "tempo": 120.0
            },
            {
                "start_time": 43.3113636,
                "end_time": 43.4295455,
                "pitch": 53,
                "velocity": 64,
                "duration": 0.1181818,
                "tempo": 120.0
            },
            {
                "start_time": 43.4454545,
                "end_time": 43.5636364,
                "pitch": 53,
                "velocity": 64,
                "duration": 0.1181818,
                "tempo": 120.0
            },
            {
                "start_time": 43.5795455,
                "end_time": 43.6977273,
                "pitch": 53,
                "velocity": 64,
                "duration": 0.1181818,
                "tempo": 120.0
            },
            {
                "start_time": 43.7136364,
                "end_time": 43.8318182,
                "pitch": 54,
                "velocity": 64,
                "duration": 0.1181818,
                "tempo": 120.0
            },
            {
                "start_time": 43.8477273,
                "end_time": 43.9636364,
                "pitch": 53,
                "velocity": 64,
                "duration": 0.1159091,
                "tempo": 120.0
            },
            {
                "start_time": 43.9818182,
                "end_time": 44.0977273,
                "pitch": 53,
                "velocity": 64,
                "duration": 0.1159091,
                "tempo": 120.0
            },
            {
                "start_time": 44.1136364,
                "end_time": 44.2318182,
                "pitch": 56,
                "velocity": 64,
                "duration": 0.1181818,
                "tempo": 120.0
            },
            {
                "start_time": 44.2477273,
                "end_time": 44.3636364,
                "pitch": 54,
                "velocity": 64,
                "duration": 0.1159091,
                "tempo": 120.0
            },
            {
                "start_time": 44.3818182,
                "end_time": 44.4977273,
                "pitch": 53,
                "velocity": 64,
                "duration": 0.1159091,
                "tempo": 120.0
            },
            {
                "start_time": 44.5136364,
                "end_time": 44.6318182,
                "pitch": 61,
                "velocity": 64,
                "duration": 0.1181818,
                "tempo": 120.0
            },
            {
                "start_time": 44.6477273,
                "end_time": 44.7636364,
                "pitch": 60,
                "velocity": 64,
                "duration": 0.1159091,
                "tempo": 120.0
            },
            {
                "start_time": 44.7818182,
                "end_time": 44.8977273,
                "pitch": 54,
                "velocity": 64,
                "duration": 0.1159091,
                "tempo": 120.0
            },
            {
                "start_time": 44.9136364,
                "end_time": 45.0318182,
                "pitch": 53,
                "velocity": 64,
                "duration": 0.1181818,
                "tempo": 120.0
            },
            {
                "start_time": 45.0477273,
                "end_time": 45.1636364,
                "pitch": 53,
                "velocity": 64,
                "duration": 0.1159091,
                "tempo": 120.0
            },
            {
                "start_time": 45.1818182,
                "end_time": 45.2977273,
                "pitch": 53,
                "velocity": 64,
                "duration": 0.1159091,
                "tempo": 120.0
            },
            {
                "start_time": 45.3136364,
                "end_time": 45.4318182,
                "pitch": 54,
                "velocity": 64,
                "duration": 0.1181818,
                "tempo": 120.0
            },
            {
                "start_time": 45.4477273,
                "end_time": 45.5659091,
                "pitch": 53,
                "velocity": 64,
                "duration": 0.1181818,
                "tempo": 120.0
            },
            {
                "start_time": 45.5818182,
                "end_time": 45.7,
                "pitch": 53,
                "velocity": 64,
                "duration": 0.1181818,
                "tempo": 120.0
            },
            {
                "start_time": 45.7159091,
                "end_time": 45.8340909,
                "pitch": 56,
                "velocity": 64,
                "duration": 0.1181818,
                "tempo": 120.0
            },
            {
                "start_time": 45.85,
                "end_time": 45.9659091,
                "pitch": 54,
                "velocity": 64,
                "duration": 0.1159091,
                "tempo": 120.0
            },
            {
                "start_time": 45.9840909,
                "end_time": 46.1,
                "pitch": 53,
                "velocity": 64,
                "duration": 0.1159091,
                "tempo": 120.0
            },
            {
                "start_time": 46.1159091,
                "end_time": 46.2340909,
                "pitch": 58,
                "velocity": 64,
                "duration": 0.1181818,
                "tempo": 120.0
            },
            {
                "start_time": 46.25,
                "end_time": 46.3659091,
                "pitch": 56,
                "velocity": 64,
                "duration": 0.1159091,
                "tempo": 120.0
            },
            {
                "start_time": 46.3840909,
                "end_time": 46.5,
                "pitch": 54,
                "velocity": 64,
                "duration": 0.1159091,
                "tempo": 120.0
            },
            {
                "start_time": 46.5159091,
                "end_time": 46.6340909,
                "pitch": 53,
                "velocity": 64,
                "duration": 0.1181818,
                "tempo": 120.0
            },
            {
                "start_time": 46.65,
                "end_time": 46.7659091,
                "pitch": 54,
                "velocity": 64,
                "duration": 0.1159091,
                "tempo": 120.0
            },
            {
                "start_time": 46.7840909,
                "end_time": 46.9,
                "pitch": 56,
                "velocity": 64,
                "duration": 0.1159091,
                "tempo": 120.0
            },
            {
                "start_time": 46.9159091,
                "end_time": 47.0340909,
                "pitch": 58,
                "velocity": 64,
                "duration": 0.1181818,
                "tempo": 120.0
            },
            {
                "start_time": 47.05,
                "end_time": 47.1659091,
                "pitch": 60,
                "velocity": 64,
                "duration": 0.1159091,
                "tempo": 120.0
            },
            {
                "start_time": 47.1840909,
                "end_time": 47.3,
                "pitch": 61,
                "velocity": 64,
                "duration": 0.1159091,
                "tempo": 120.0
            },
            {
                "start_time": 47.3159091,
                "end_time": 47.5681818,
                "pitch": 63,
                "velocity": 64,
                "duration": 0.2522727,
                "tempo": 120.0
            },
            {
                "start_time": 47.5863636,
                "end_time": 47.8340909,
                "pitch": 65,
                "velocity": 64,
                "duration": 0.2477273,
                "tempo": 120.0
            },
            {
                "start_time": 47.85,
                "end_time": 48.0954545,
                "pitch": 66,
                "velocity": 64,
                "duration": 0.2454545,
                "tempo": 120.0
            },
            {
                "start_time": 48.1113636,
                "end_time": 48.2318182,
                "pitch": 53,
                "velocity": 64,
                "duration": 0.1204545,
                "tempo": 120.0
            },
            {
                "start_time": 48.2477273,
                "end_time": 48.3681818,
                "pitch": 53,
                "velocity": 64,
                "duration": 0.1204545,
                "tempo": 120.0
            },
            {
                "start_time": 48.3863636,
                "end_time": 48.5045455,
                "pitch": 53,
                "velocity": 64,
                "duration": 0.1181818,
                "tempo": 120.0
            },
            {
                "start_time": 48.5227273,
                "end_time": 48.6386364,
                "pitch": 54,
                "velocity": 64,
                "duration": 0.1159091,
                "tempo": 120.0
            },
            {
                "start_time": 48.6568182,
                "end_time": 48.7727273,
                "pitch": 53,
                "velocity": 64,
                "duration": 0.1159091,
                "tempo": 120.0
            },
            {
                "start_time": 48.7886364,
                "end_time": 48.9068182,
                "pitch": 53,
                "velocity": 64,
                "duration": 0.1181818,
                "tempo": 120.0
            },
            {
                "start_time": 48.9227273,
                "end_time": 49.0386364,
                "pitch": 56,
                "velocity": 64,
                "duration": 0.1159091,
                "tempo": 120.0
            },
            {
                "start_time": 49.0568182,
                "end_time": 49.1727273,
                "pitch": 54,
                "velocity": 64,
                "duration": 0.1159091,
                "tempo": 120.0
            },
            {
                "start_time": 49.1886364,
                "end_time": 49.3068182,
                "pitch": 53,
                "velocity": 64,
                "duration": 0.1181818,
                "tempo": 120.0
            },
            {
                "start_time": 49.3227273,
                "end_time": 49.4409091,
                "pitch": 58,
                "velocity": 64,
                "duration": 0.1181818,
                "tempo": 120.0
            },
            {
                "start_time": 49.4568182,
                "end_time": 49.575,
                "pitch": 56,
                "velocity": 64,
                "duration": 0.1181818,
                "tempo": 120.0
            },
            {
                "start_time": 49.5909091,
                "end_time": 49.7090909,
                "pitch": 54,
                "velocity": 64,
                "duration": 0.1181818,
                "tempo": 120.0
            },
            {
                "start_time": 49.725,
                "end_time": 49.8409091,
                "pitch": 53,
                "velocity": 64,
                "duration": 0.1159091,
                "tempo": 120.0
            },
            {
                "start_time": 49.8590909,
                "end_time": 49.975,
                "pitch": 53,
                "velocity": 64,
                "duration": 0.1159091,
                "tempo": 120.0
            },
            {
                "start_time": 49.9909091,
                "end_time": 50.1090909,
                "pitch": 53,
                "velocity": 64,
                "duration": 0.1181818,
                "tempo": 120.0
            },
            {
                "start_time": 50.125,
                "end_time": 50.2409091,
                "pitch": 54,
                "velocity": 64,
                "duration": 0.1159091,
                "tempo": 120.0
            },
            {
                "start_time": 50.2590909,
                "end_time": 50.375,
                "pitch": 53,
                "velocity": 64,
                "duration": 0.1159091,
                "tempo": 120.0
            },
            {
                "start_time": 50.3909091,
                "end_time": 50.5090909,
                "pitch": 53,
                "velocity": 64,
                "duration": 0.1181818,
                "tempo": 120.0
            },
            {
                "start_time": 50.525,
                "end_time": 50.6409091,
                "pitch": 56,
                "velocity": 64,
                "duration": 0.1159091,
                "tempo": 120.0
            },
            {
                "start_time": 50.6590909,
                "end_time": 50.775,
                "pitch": 54,
                "velocity": 64,
                "duration": 0.1159091,
                "tempo": 120.0
            },
            {
                "start_time": 50.7909091,
                "end_time": 50.9090909,
                "pitch": 53,
                "velocity": 64,
                "duration": 0.1181818,
                "tempo": 120.0
            },
            {
                "start_time": 50.925,
                "end_time": 51.0409091,
                "pitch": 61,
                "velocity": 64,
                "duration": 0.1159091,
                "tempo": 120.0
            },
            {
                "start_time": 51.0590909,
                "end_time": 51.175,
                "pitch": 60,
                "velocity": 64,
                "duration": 0.1159091,
                "tempo": 120.0
            },
            {
                "start_time": 51.1909091,
                "end_time": 51.3090909,
                "pitch": 54,
                "velocity": 64,
                "duration": 0.1181818,
                "tempo": 120.0
            },
            {
                "start_time": 51.325,
                "end_time": 51.4431818,
                "pitch": 53,
                "velocity": 64,
                "duration": 0.1181818,
                "tempo": 120.0
            },
            {
                "start_time": 51.4590909,
                "end_time": 51.5772727,
                "pitch": 53,
                "velocity": 64,
                "duration": 0.1181818,
                "tempo": 120.0
            },
            {
                "start_time": 51.5931818,
                "end_time": 51.7113636,
                "pitch": 53,
                "velocity": 64,
                "duration": 0.1181818,
                "tempo": 120.0
            },
            {
                "start_time": 51.7272727,
                "end_time": 51.8454545,
                "pitch": 54,
                "velocity": 64,
                "duration": 0.1181818,
                "tempo": 120.0
            },
            {
                "start_time": 51.8613636,
                "end_time": 51.9772727,
                "pitch": 53,
                "velocity": 64,
                "duration": 0.1159091,
                "tempo": 120.0
            },
            {
                "start_time": 51.9954545,
                "end_time": 52.1113636,
                "pitch": 53,
                "velocity": 64,
                "duration": 0.1159091,
                "tempo": 120.0
            },
            {
                "start_time": 52.1272727,
                "end_time": 52.2454545,
                "pitch": 56,
                "velocity": 64,
                "duration": 0.1181818,
                "tempo": 120.0
            },
            {
                "start_time": 52.2613636,
                "end_time": 52.3772727,
                "pitch": 54,
                "velocity": 64,
                "duration": 0.1159091,
                "tempo": 120.0
            },
            {
                "start_time": 52.3954545,
                "end_time": 52.5113636,
                "pitch": 53,
                "velocity": 64,
                "duration": 0.1159091,
                "tempo": 120.0
            },
            {
                "start_time": 52.5272727,
                "end_time": 52.6454545,
                "pitch": 58,
                "velocity": 64,
                "duration": 0.1181818,
                "tempo": 120.0
            },
            {
                "start_time": 52.6613636,
                "end_time": 52.7772727,
                "pitch": 56,
                "velocity": 64,
                "duration": 0.1159091,
                "tempo": 120.0
            },
            {
                "start_time": 52.7954545,
                "end_time": 52.9113636,
                "pitch": 54,
                "velocity": 64,
                "duration": 0.1159091,
                "tempo": 120.0
            },
            {
                "start_time": 52.9272727,
                "end_time": 53.0454545,
                "pitch": 53,
                "velocity": 64,
                "duration": 0.1181818,
                "tempo": 120.0
            },
            {
                "start_time": 53.0613636,
                "end_time": 53.1772727,
                "pitch": 54,
                "velocity": 64,
                "duration": 0.1159091,
                "tempo": 120.0
            },
            {
                "start_time": 53.1954545,
                "end_time": 53.3113636,
                "pitch": 56,
                "velocity": 64,
                "duration": 0.1159091,
                "tempo": 120.0
            },
            {
                "start_time": 53.3272727,
                "end_time": 53.4454545,
                "pitch": 58,
                "velocity": 64,
                "duration": 0.1181818,
                "tempo": 120.0
            },
            {
                "start_time": 53.4613636,
                "end_time": 53.5795455,
                "pitch": 60,
                "velocity": 64,
                "duration": 0.1181818,
                "tempo": 120.0
            },
            {
                "start_time": 53.5954545,
                "end_time": 53.7136364,
                "pitch": 61,
                "velocity": 64,
                "duration": 0.1181818,
                "tempo": 120.0
            },
            {
                "start_time": 53.7295455,
                "end_time": 53.8477273,
                "pitch": 63,
                "velocity": 64,
                "duration": 0.1181818,
                "tempo": 120.0
            },
            {
                "start_time": 53.8636364,
                "end_time": 53.9795455,
                "pitch": 65,
                "velocity": 64,
                "duration": 0.1159091,
                "tempo": 120.0
            },
            {
                "start_time": 53.9977273,
                "end_time": 54.1136364,
                "pitch": 66,
                "velocity": 64,
                "duration": 0.1159091,
                "tempo": 120.0
            },
            {
                "start_time": 54.1295455,
                "end_time": 54.2477273,
                "pitch": 76,
                "velocity": 64,
                "duration": 0.1181818,
                "tempo": 120.0
            },
            {
                "start_time": 54.2636364,
                "end_time": 54.3795455,
                "pitch": 75,
                "velocity": 64,
                "duration": 0.1159091,
                "tempo": 120.0
            },
            {
                "start_time": 54.3977273,
                "end_time": 54.5136364,
                "pitch": 73,
                "velocity": 64,
                "duration": 0.1159091,
                "tempo": 120.0
            },
            {
                "start_time": 70.5704545,
                "end_time": 70.8227273,
                "pitch": 46,
                "velocity": 64,
                "duration": 0.2522727,
                "tempo": 120.0
            },
            {
                "start_time": 70.8386364,
                "end_time": 70.9568182,
                "pitch": 46,
                "velocity": 64,
                "duration": 0.1181818,
                "tempo": 120.0
            },
            {
                "start_time": 70.9727273,
                "end_time": 71.0909091,
                "pitch": 46,
                "velocity": 64,
                "duration": 0.1181818,
                "tempo": 120.0
            },
            {
                "start_time": 71.1068182,
                "end_time": 71.2227273,
                "pitch": 46,
                "velocity": 64,
                "duration": 0.1159091,
                "tempo": 120.0
            },
            {
                "start_time": 71.2409091,
                "end_time": 71.3568182,
                "pitch": 46,
                "velocity": 64,
                "duration": 0.1159091,
                "tempo": 120.0
            },
            {
                "start_time": 71.3727273,
                "end_time": 71.625,
                "pitch": 58,
                "velocity": 64,
                "duration": 0.2522727,
                "tempo": 120.0
            },
            {
                "start_time": 71.6431818,
                "end_time": 71.7590909,
                "pitch": 56,
                "velocity": 64,
                "duration": 0.1159091,
                "tempo": 120.0
            },
            {
                "start_time": 71.7772727,
                "end_time": 72.0272727,
                "pitch": 56,
                "velocity": 64,
                "duration": 0.25,
                "tempo": 120.0
            },
            {
                "start_time": 72.0431818,
                "end_time": 72.1590909,
                "pitch": 58,
                "velocity": 64,
                "duration": 0.1159091,
                "tempo": 120.0
            },
            {
                "start_time": 72.1772727,
                "end_time": 72.4272727,
                "pitch": 46,
                "velocity": 64,
                "duration": 0.25,
                "tempo": 120.0
            },
            {
                "start_time": 72.4454545,
                "end_time": 72.5613636,
                "pitch": 46,
                "velocity": 64,
                "duration": 0.1159091,
                "tempo": 120.0
            },
            {
                "start_time": 72.5795455,
                "end_time": 72.6954545,
                "pitch": 46,
                "velocity": 64,
                "duration": 0.1159091,
                "tempo": 120.0
            },
            {
                "start_time": 72.7136364,
                "end_time": 72.8318182,
                "pitch": 46,
                "velocity": 64,
                "duration": 0.1181818,
                "tempo": 120.0
            },
            {
                "start_time": 72.8477273,
                "end_time": 72.9659091,
                "pitch": 46,
                "velocity": 64,
                "duration": 0.1181818,
                "tempo": 120.0
            },
            {
                "start_time": 72.9818182,
                "end_time": 73.2318182,
                "pitch": 54,
                "velocity": 64,
                "duration": 0.25,
                "tempo": 120.0
            },
            {
                "start_time": 73.2477273,
                "end_time": 73.3659091,
                "pitch": 56,
                "velocity": 64,
                "duration": 0.1181818,
                "tempo": 120.0
            },
            {
                "start_time": 73.3818182,
                "end_time": 73.5022727,
                "pitch": 56,
                "velocity": 64,
                "duration": 0.1204545,
                "tempo": 120.0
            },
            {
                "start_time": 73.5181818,
                "end_time": 73.6386364,
                "pitch": 46,
                "velocity": 64,
                "duration": 0.1204545,
                "tempo": 120.0
            },
            {
                "start_time": 73.6545455,
                "end_time": 73.775,
                "pitch": 46,
                "velocity": 64,
                "duration": 0.1204545,
                "tempo": 120.0
            },
            {
                "start_time": 73.7931818,
                "end_time": 74.0386364,
                "pitch": 46,
                "velocity": 64,
                "duration": 0.2454545,
                "tempo": 120.0
            },
            {
                "start_time": 74.0545455,
                "end_time": 74.1681818,
                "pitch": 46,
                "velocity": 64,
                "duration": 0.1136364,
                "tempo": 120.0
            },
            {
                "start_time": 74.1840909,
                "end_time": 74.3022727,
                "pitch": 46,
                "velocity": 64,
                "duration": 0.1181818,
                "tempo": 120.0
            },
            {
                "start_time": 74.3181818,
                "end_time": 74.4363636,
                "pitch": 46,
                "velocity": 64,
                "duration": 0.1181818,
                "tempo": 120.0
            },
            {
                "start_time": 74.4522727,
                "end_time": 74.5704545,
                "pitch": 46,
                "velocity": 64,
                "duration": 0.1181818,
                "tempo": 120.0
            },
            {
                "start_time": 74.5863636,
                "end_time": 74.8386364,
                "pitch": 58,
                "velocity": 64,
                "duration": 0.2522727,
                "tempo": 120.0
            },
            {
                "start_time": 74.8568182,
                "end_time": 74.9727273,
                "pitch": 56,
                "velocity": 64,
                "duration": 0.1159091,
                "tempo": 120.0
            },
            {
                "start_time": 74.9909091,
                "end_time": 75.2409091,
                "pitch": 56,
                "velocity": 64,
                "duration": 0.25,
                "tempo": 120.0
            },
            {
                "start_time": 75.2568182,
                "end_time": 75.3727273,
                "pitch": 58,
                "velocity": 64,
                "duration": 0.1159091,
                "tempo": 120.0
            },
            {
                "start_time": 75.3909091,
                "end_time": 75.6409091,
                "pitch": 46,
                "velocity": 64,
                "duration": 0.25,
                "tempo": 120.0
            },
            {
                "start_time": 75.6590909,
                "end_time": 75.775,
                "pitch": 46,
                "velocity": 64,
                "duration": 0.1159091,
                "tempo": 120.0
            },
            {
                "start_time": 75.7931818,
                "end_time": 75.9090909,
                "pitch": 46,
                "velocity": 64,
                "duration": 0.1159091,
                "tempo": 120.0
            },
            {
                "start_time": 75.925,
                "end_time": 76.0431818,
                "pitch": 46,
                "velocity": 64,
                "duration": 0.1181818,
                "tempo": 120.0
            },
            {
                "start_time": 76.0590909,
                "end_time": 76.175,
                "pitch": 46,
                "velocity": 64,
                "duration": 0.1159091,
                "tempo": 120.0
            },
            {
                "start_time": 76.1931818,
                "end_time": 76.4431818,
                "pitch": 54,
                "velocity": 64,
                "duration": 0.25,
                "tempo": 120.0
            },
            {
                "start_time": 76.4613636,
                "end_time": 76.5795455,
                "pitch": 56,
                "velocity": 64,
                "duration": 0.1181818,
                "tempo": 120.0
            },
            {
                "start_time": 76.5954545,
                "end_time": 76.7136364,
                "pitch": 56,
                "velocity": 64,
                "duration": 0.1181818,
                "tempo": 120.0
            },
            {
                "start_time": 76.7295455,
                "end_time": 76.8477273,
                "pitch": 46,
                "velocity": 64,
                "duration": 0.1181818,
                "tempo": 120.0
            },
            {
                "start_time": 76.8636364,
                "end_time": 76.9818182,
                "pitch": 46,
                "velocity": 64,
                "duration": 0.1181818,
                "tempo": 120.0
            },
            {
                "start_time": 80.2090909,
                "end_time": 80.3272727,
                "pitch": 53,
                "velocity": 64,
                "duration": 0.1181818,
                "tempo": 120.0
            },
            {
                "start_time": 80.3431818,
                "end_time": 80.4613636,
                "pitch": 53,
                "velocity": 64,
                "duration": 0.1181818,
                "tempo": 120.0
            },
            {
                "start_time": 80.4772727,
                "end_time": 80.5954545,
                "pitch": 53,
                "velocity": 64,
                "duration": 0.1181818,
                "tempo": 120.0
            },
            {
                "start_time": 80.6113636,
                "end_time": 80.7295455,
                "pitch": 54,
                "velocity": 64,
                "duration": 0.1181818,
                "tempo": 120.0
            },
            {
                "start_time": 80.7454545,
                "end_time": 80.8636364,
                "pitch": 53,
                "velocity": 64,
                "duration": 0.1181818,
                "tempo": 120.0
            },
            {
                "start_time": 80.8795455,
                "end_time": 80.9977273,
                "pitch": 53,
                "velocity": 64,
                "duration": 0.1181818,
                "tempo": 120.0
            },
            {
                "start_time": 81.0136364,
                "end_time": 81.1318182,
                "pitch": 56,
                "velocity": 64,
                "duration": 0.1181818,
                "tempo": 120.0
            },
            {
                "start_time": 81.1477273,
                "end_time": 81.2636364,
                "pitch": 54,
                "velocity": 64,
                "duration": 0.1159091,
                "tempo": 120.0
            },
            {
                "start_time": 81.2818182,
                "end_time": 81.3977273,
                "pitch": 53,
                "velocity": 64,
                "duration": 0.1159091,
                "tempo": 120.0
            },
            {
                "start_time": 81.4136364,
                "end_time": 81.5318182,
                "pitch": 58,
                "velocity": 64,
                "duration": 0.1181818,
                "tempo": 120.0
            },
            {
                "start_time": 81.5477273,
                "end_time": 81.6659091,
                "pitch": 56,
                "velocity": 64,
                "duration": 0.1181818,
                "tempo": 120.0
            },
            {
                "start_time": 81.6818182,
                "end_time": 81.8,
                "pitch": 54,
                "velocity": 64,
                "duration": 0.1181818,
                "tempo": 120.0
            },
            {
                "start_time": 81.8159091,
                "end_time": 81.9340909,
                "pitch": 53,
                "velocity": 64,
                "duration": 0.1181818,
                "tempo": 120.0
            },
            {
                "start_time": 81.95,
                "end_time": 82.0659091,
                "pitch": 53,
                "velocity": 64,
                "duration": 0.1159091,
                "tempo": 120.0
            },
            {
                "start_time": 82.0840909,
                "end_time": 82.2,
                "pitch": 53,
                "velocity": 64,
                "duration": 0.1159091,
                "tempo": 120.0
            },
            {
                "start_time": 82.2159091,
                "end_time": 82.3340909,
                "pitch": 54,
                "velocity": 64,
                "duration": 0.1181818,
                "tempo": 120.0
            },
            {
                "start_time": 82.3522727,
                "end_time": 82.4681818,
                "pitch": 53,
                "velocity": 64,
                "duration": 0.1159091,
                "tempo": 120.0
            },
            {
                "start_time": 82.4863636,
                "end_time": 82.6022727,
                "pitch": 53,
                "velocity": 64,
                "duration": 0.1159091,
                "tempo": 120.0
            },
            {
                "start_time": 82.6204545,
                "end_time": 82.7363636,
                "pitch": 56,
                "velocity": 64,
                "duration": 0.1159091,
                "tempo": 120.0
            },
            {
                "start_time": 82.7545455,
                "end_time": 82.8704545,
                "pitch": 54,
                "velocity": 64,
                "duration": 0.1159091,
                "tempo": 120.0
            },
            {
                "start_time": 82.8886364,
                "end_time": 83.0045455,
                "pitch": 53,
                "velocity": 64,
                "duration": 0.1159091,
                "tempo": 120.0
            },
            {
                "start_time": 83.0227273,
                "end_time": 83.1386364,
                "pitch": 61,
                "velocity": 64,
                "duration": 0.1159091,
                "tempo": 120.0
            },
            {
                "start_time": 83.1568182,
                "end_time": 83.2727273,
                "pitch": 60,
                "velocity": 64,
                "duration": 0.1159091,
                "tempo": 120.0
            },
            {
                "start_time": 83.2886364,
                "end_time": 83.4068182,
                "pitch": 54,
                "velocity": 64,
                "duration": 0.1181818,
                "tempo": 120.0
            },
            {
                "start_time": 83.4227273,
                "end_time": 83.5409091,
                "pitch": 53,
                "velocity": 64,
                "duration": 0.1181818,
                "tempo": 120.0
            },
            {
                "start_time": 83.5568182,
                "end_time": 83.675,
                "pitch": 53,
                "velocity": 64,
                "duration": 0.1181818,
                "tempo": 120.0
            },
            {
                "start_time": 83.6909091,
                "end_time": 83.8090909,
                "pitch": 53,
                "velocity": 64,
                "duration": 0.1181818,
                "tempo": 120.0
            },
            {
                "start_time": 83.825,
                "end_time": 83.9409091,
                "pitch": 54,
                "velocity": 64,
                "duration": 0.1159091,
                "tempo": 120.0
            },
            {
                "start_time": 83.9590909,
                "end_time": 84.075,
                "pitch": 53,
                "velocity": 64,
                "duration": 0.1159091,
                "tempo": 120.0
            },
            {
                "start_time": 84.0909091,
                "end_time": 84.2090909,
                "pitch": 53,
                "velocity": 64,
                "duration": 0.1181818,
                "tempo": 120.0
            },
            {
                "start_time": 84.225,
                "end_time": 84.3431818,
                "pitch": 56,
                "velocity": 64,
                "duration": 0.1181818,
                "tempo": 120.0
            },
            {
                "start_time": 84.3590909,
                "end_time": 84.4772727,
                "pitch": 54,
                "velocity": 64,
                "duration": 0.1181818,
                "tempo": 120.0
            },
            {
                "start_time": 84.4931818,
                "end_time": 84.6113636,
                "pitch": 53,
                "velocity": 64,
                "duration": 0.1181818,
                "tempo": 120.0
            },
            {
                "start_time": 84.6272727,
                "end_time": 84.7454545,
                "pitch": 58,
                "velocity": 64,
                "duration": 0.1181818,
                "tempo": 120.0
            },
            {
                "start_time": 84.7613636,
                "end_time": 84.8795455,
                "pitch": 56,
                "velocity": 64,
                "duration": 0.1181818,
                "tempo": 120.0
            },
            {
                "start_time": 84.8954545,
                "end_time": 85.0136364,
                "pitch": 54,
                "velocity": 64,
                "duration": 0.1181818,
                "tempo": 120.0
            },
            {
                "start_time": 85.0295455,
                "end_time": 85.1477273,
                "pitch": 53,
                "velocity": 64,
                "duration": 0.1181818,
                "tempo": 120.0
            },
            {
                "start_time": 85.1636364,
                "end_time": 85.2795455,
                "pitch": 54,
                "velocity": 64,
                "duration": 0.1159091,
                "tempo": 120.0
            },
            {
                "start_time": 85.2977273,
                "end_time": 85.4136364,
                "pitch": 56,
                "velocity": 64,
                "duration": 0.1159091,
                "tempo": 120.0
            },
            {
                "start_time": 85.4295455,
                "end_time": 85.5477273,
                "pitch": 58,
                "velocity": 64,
                "duration": 0.1181818,
                "tempo": 120.0
            },
            {
                "start_time": 85.5636364,
                "end_time": 85.6818182,
                "pitch": 60,
                "velocity": 64,
                "duration": 0.1181818,
                "tempo": 120.0
            },
            {
                "start_time": 85.7,
                "end_time": 85.8159091,
                "pitch": 61,
                "velocity": 64,
                "duration": 0.1159091,
                "tempo": 120.0
            },
            {
                "start_time": 85.8340909,
                "end_time": 86.0840909,
                "pitch": 63,
                "velocity": 64,
                "duration": 0.25,
                "tempo": 120.0
            },
            {
                "start_time": 86.1,
                "end_time": 86.35,
                "pitch": 65,
                "velocity": 64,
                "duration": 0.25,
                "tempo": 120.0
            },
            {
                "start_time": 86.3681818,
                "end_time": 86.6181818,
                "pitch": 66,
                "velocity": 64,
                "duration": 0.25,
                "tempo": 120.0
            },
            {
                "start_time": 86.6363636,
                "end_time": 86.7522727,
                "pitch": 53,
                "velocity": 64,
                "duration": 0.1159091,
                "tempo": 120.0
            },
            {
                "start_time": 86.7704545,
                "end_time": 86.8863636,
                "pitch": 53,
                "velocity": 64,
                "duration": 0.1159091,
                "tempo": 120.0
            },
            {
                "start_time": 86.9045455,
                "end_time": 87.0227273,
                "pitch": 53,
                "velocity": 64,
                "duration": 0.1181818,
                "tempo": 120.0
            },
            {
                "start_time": 87.0386364,
                "end_time": 87.1545455,
                "pitch": 54,
                "velocity": 64,
                "duration": 0.1159091,
                "tempo": 120.0
            },
            {
                "start_time": 87.1727273,
                "end_time": 87.2886364,
                "pitch": 53,
                "velocity": 64,
                "duration": 0.1159091,
                "tempo": 120.0
            },
            {
                "start_time": 87.3045455,
                "end_time": 87.4227273,
                "pitch": 53,
                "velocity": 64,
                "duration": 0.1181818,
                "tempo": 120.0
            },
            {
                "start_time": 87.4386364,
                "end_time": 87.5568182,
                "pitch": 56,
                "velocity": 64,
                "duration": 0.1181818,
                "tempo": 120.0
            },
            {
                "start_time": 87.5727273,
                "end_time": 87.6909091,
                "pitch": 54,
                "velocity": 64,
                "duration": 0.1181818,
                "tempo": 120.0
            },
            {
                "start_time": 87.7068182,
                "end_time": 87.825,
                "pitch": 53,
                "velocity": 64,
                "duration": 0.1181818,
                "tempo": 120.0
            },
            {
                "start_time": 87.8409091,
                "end_time": 87.9568182,
                "pitch": 58,
                "velocity": 64,
                "duration": 0.1159091,
                "tempo": 120.0
            },
            {
                "start_time": 87.975,
                "end_time": 88.0909091,
                "pitch": 56,
                "velocity": 64,
                "duration": 0.1159091,
                "tempo": 120.0
            },
            {
                "start_time": 88.1068182,
                "end_time": 88.225,
                "pitch": 54,
                "velocity": 64,
                "duration": 0.1181818,
                "tempo": 120.0
            },
            {
                "start_time": 88.2409091,
                "end_time": 88.3590909,
                "pitch": 53,
                "velocity": 64,
                "duration": 0.1181818,
                "tempo": 120.0
            },
            {
                "start_time": 88.375,
                "end_time": 88.4931818,
                "pitch": 53,
                "velocity": 64,
                "duration": 0.1181818,
                "tempo": 120.0
            },
            {
                "start_time": 88.5090909,
                "end_time": 88.6272727,
                "pitch": 53,
                "velocity": 64,
                "duration": 0.1181818,
                "tempo": 120.0
            },
            {
                "start_time": 88.6431818,
                "end_time": 88.7613636,
                "pitch": 54,
                "velocity": 64,
                "duration": 0.1181818,
                "tempo": 120.0
            },
            {
                "start_time": 88.7772727,
                "end_time": 88.8954545,
                "pitch": 53,
                "velocity": 64,
                "duration": 0.1181818,
                "tempo": 120.0
            },
            {
                "start_time": 88.9113636,
                "end_time": 89.0295455,
                "pitch": 53,
                "velocity": 64,
                "duration": 0.1181818,
                "tempo": 120.0
            },
            {
                "start_time": 89.0454545,
                "end_time": 89.1636364,
                "pitch": 56,
                "velocity": 64,
                "duration": 0.1181818,
                "tempo": 120.0
            },
            {
                "start_time": 89.1795455,
                "end_time": 89.2954545,
                "pitch": 54,
                "velocity": 64,
                "duration": 0.1159091,
                "tempo": 120.0
            },
            {
                "start_time": 89.3136364,
                "end_time": 89.4295455,
                "pitch": 53,
                "velocity": 64,
                "duration": 0.1159091,
                "tempo": 120.0
            },
            {
                "start_time": 89.4454545,
                "end_time": 89.5636364,
                "pitch": 61,
                "velocity": 64,
                "duration": 0.1181818,
                "tempo": 120.0
            },
            {
                "start_time": 89.5818182,
                "end_time": 89.6977273,
                "pitch": 60,
                "velocity": 64,
                "duration": 0.1159091,
                "tempo": 120.0
            },
            {
                "start_time": 89.7159091,
                "end_time": 89.8318182,
                "pitch": 54,
                "velocity": 64,
                "duration": 0.1159091,
                "tempo": 120.0
            },
            {
                "start_time": 89.85,
                "end_time": 89.9659091,
                "pitch": 53,
                "velocity": 64,
                "duration": 0.1159091,
                "tempo": 120.0
            },
            {
                "start_time": 89.9818182,
                "end_time": 90.1,
                "pitch": 53,
                "velocity": 64,
                "duration": 0.1181818,
                "tempo": 120.0
            },
            {
                "start_time": 90.1159091,
                "end_time": 90.2318182,
                "pitch": 53,
                "velocity": 64,
                "duration": 0.1159091,
                "tempo": 120.0
            },
            {
                "start_time": 90.25,
                "end_time": 90.3659091,
                "pitch": 54,
                "velocity": 64,
                "duration": 0.1159091,
                "tempo": 120.0
            },
            {
                "start_time": 90.3840909,
                "end_time": 90.5,
                "pitch": 53,
                "velocity": 64,
                "duration": 0.1159091,
                "tempo": 120.0
            },
            {
                "start_time": 90.5181818,
                "end_time": 90.6340909,
                "pitch": 53,
                "velocity": 64,
                "duration": 0.1159091,
                "tempo": 120.0
            },
            {
                "start_time": 90.6522727,
                "end_time": 90.7704545,
                "pitch": 56,
                "velocity": 64,
                "duration": 0.1181818,
                "tempo": 120.0
            },
            {
                "start_time": 90.7863636,
                "end_time": 90.9045455,
                "pitch": 54,
                "velocity": 64,
                "duration": 0.1181818,
                "tempo": 120.0
            },
            {
                "start_time": 90.9204545,
                "end_time": 91.0386364,
                "pitch": 53,
                "velocity": 64,
                "duration": 0.1181818,
                "tempo": 120.0
            },
            {
                "start_time": 91.0545455,
                "end_time": 91.1704545,
                "pitch": 58,
                "velocity": 64,
                "duration": 0.1159091,
                "tempo": 120.0
            },
            {
                "start_time": 91.1886364,
                "end_time": 91.3045455,
                "pitch": 56,
                "velocity": 64,
                "duration": 0.1159091,
                "tempo": 120.0
            },
            {
                "start_time": 91.3204545,
                "end_time": 91.4386364,
                "pitch": 54,
                "velocity": 64,
                "duration": 0.1181818,
                "tempo": 120.0
            },
            {
                "start_time": 91.4545455,
                "end_time": 91.5727273,
                "pitch": 53,
                "velocity": 64,
                "duration": 0.1181818,
                "tempo": 120.0
            },
            {
                "start_time": 91.5886364,
                "end_time": 91.7068182,
                "pitch": 54,
                "velocity": 64,
                "duration": 0.1181818,
                "tempo": 120.0
            },
            {
                "start_time": 91.7227273,
                "end_time": 91.8409091,
                "pitch": 56,
                "velocity": 64,
                "duration": 0.1181818,
                "tempo": 120.0
            },
            {
                "start_time": 91.8568182,
                "end_time": 91.975,
                "pitch": 58,
                "velocity": 64,
                "duration": 0.1181818,
                "tempo": 120.0
            },
            {
                "start_time": 91.9909091,
                "end_time": 92.1068182,
                "pitch": 60,
                "velocity": 64,
                "duration": 0.1159091,
                "tempo": 120.0
            },
            {
                "start_time": 92.125,
                "end_time": 92.2409091,
                "pitch": 61,
                "velocity": 64,
                "duration": 0.1159091,
                "tempo": 120.0
            },
            {
                "start_time": 92.2568182,
                "end_time": 92.375,
                "pitch": 63,
                "velocity": 64,
                "duration": 0.1181818,
                "tempo": 120.0
            },
            {
                "start_time": 92.3909091,
                "end_time": 92.5090909,
                "pitch": 65,
                "velocity": 64,
                "duration": 0.1181818,
                "tempo": 120.0
            },
            {
                "start_time": 92.525,
                "end_time": 92.6431818,
                "pitch": 66,
                "velocity": 64,
                "duration": 0.1181818,
                "tempo": 120.0
            },
            {
                "start_time": 92.6590909,
                "end_time": 92.7772727,
                "pitch": 76,
                "velocity": 64,
                "duration": 0.1181818,
                "tempo": 120.0
            },
            {
                "start_time": 92.7931818,
                "end_time": 92.9113636,
                "pitch": 75,
                "velocity": 64,
                "duration": 0.1181818,
                "tempo": 120.0
            },
            {
                "start_time": 92.9295455,
                "end_time": 93.0454545,
                "pitch": 73,
                "velocity": 64,
                "duration": 0.1159091,
                "tempo": 120.0
            },
            {
                "start_time": 109.1227273,
                "end_time": 109.3727273,
                "pitch": 46,
                "velocity": 64,
                "duration": 0.25,
                "tempo": 120.0
            },
            {
                "start_time": 109.3886364,
                "end_time": 109.5068182,
                "pitch": 46,
                "velocity": 64,
                "duration": 0.1181818,
                "tempo": 120.0
            },
            {
                "start_time": 109.5227273,
                "end_time": 109.6409091,
                "pitch": 46,
                "velocity": 64,
                "duration": 0.1181818,
                "tempo": 120.0
            },
            {
                "start_time": 109.6568182,
                "end_time": 109.775,
                "pitch": 46,
                "velocity": 64,
                "duration": 0.1181818,
                "tempo": 120.0
            },
            {
                "start_time": 109.7909091,
                "end_time": 109.9090909,
                "pitch": 46,
                "velocity": 64,
                "duration": 0.1181818,
                "tempo": 120.0
            },
            {
                "start_time": 109.925,
                "end_time": 110.175,
                "pitch": 58,
                "velocity": 64,
                "duration": 0.25,
                "tempo": 120.0
            },
            {
                "start_time": 110.1909091,
                "end_time": 110.3090909,
                "pitch": 56,
                "velocity": 64,
                "duration": 0.1181818,
                "tempo": 120.0
            },
            {
                "start_time": 110.325,
                "end_time": 110.5772727,
                "pitch": 56,
                "velocity": 64,
                "duration": 0.2522727,
                "tempo": 120.0
            },
            {
                "start_time": 110.5931818,
                "end_time": 110.7113636,
                "pitch": 58,
                "velocity": 64,
                "duration": 0.1181818,
                "tempo": 120.0
            },
            {
                "start_time": 110.7272727,
                "end_time": 110.9795455,
                "pitch": 46,
                "velocity": 64,
                "duration": 0.2522727,
                "tempo": 120.0
            },
            {
                "start_time": 110.9954545,
                "end_time": 111.1136364,
                "pitch": 46,
                "velocity": 64,
                "duration": 0.1181818,
                "tempo": 120.0
            },
            {
                "start_time": 111.1295455,
                "end_time": 111.2477273,
                "pitch": 46,
                "velocity": 64,
                "duration": 0.1181818,
                "tempo": 120.0
            },
            {
                "start_time": 111.2636364,
                "end_time": 111.3795455,
                "pitch": 46,
                "velocity": 64,
                "duration": 0.1159091,
                "tempo": 120.0
            },
            {
                "start_time": 111.3977273,
                "end_time": 111.5136364,
                "pitch": 46,
                "velocity": 64,
                "duration": 0.1159091,
                "tempo": 120.0
            },
            {
                "start_time": 111.5295455,
                "end_time": 111.7818182,
                "pitch": 54,
                "velocity": 64,
                "duration": 0.2522727,
                "tempo": 120.0
            },
            {
                "start_time": 111.8,
                "end_time": 111.9159091,
                "pitch": 56,
                "velocity": 64,
                "duration": 0.1159091,
                "tempo": 120.0
            },
            {
                "start_time": 111.9340909,
                "end_time": 112.05,
                "pitch": 56,
                "velocity": 64,
                "duration": 0.1159091,
                "tempo": 120.0
            },
            {
                "start_time": 112.0659091,
                "end_time": 112.1840909,
                "pitch": 46,
                "velocity": 64,
                "duration": 0.1181818,
                "tempo": 120.0
            },
            {
                "start_time": 112.2,
                "end_time": 112.3159091,
                "pitch": 46,
                "velocity": 64,
                "duration": 0.1159091,
                "tempo": 120.0
            },
            {
                "start_time": 112.3340909,
                "end_time": 112.5840909,
                "pitch": 46,
                "velocity": 64,
                "duration": 0.25,
                "tempo": 120.0
            },
            {
                "start_time": 112.6022727,
                "end_time": 112.7181818,
                "pitch": 46,
                "velocity": 64,
                "duration": 0.1159091,
                "tempo": 120.0
            },
            {
                "start_time": 112.7363636,
                "end_time": 112.8522727,
                "pitch": 46,
                "velocity": 64,
                "duration": 0.1159091,
                "tempo": 120.0
            },
            {
                "start_time": 112.8704545,
                "end_time": 112.9886364,
                "pitch": 46,
                "velocity": 64,
                "duration": 0.1181818,
                "tempo": 120.0
            },
            {
                "start_time": 113.0045455,
                "end_time": 113.1227273,
                "pitch": 46,
                "velocity": 64,
                "duration": 0.1181818,
                "tempo": 120.0
            },
            {
                "start_time": 113.1386364,
                "end_time": 113.3886364,
                "pitch": 58,
                "velocity": 64,
                "duration": 0.25,
                "tempo": 120.0
            },
            {
                "start_time": 113.4045455,
                "end_time": 113.5227273,
                "pitch": 56,
                "velocity": 64,
                "duration": 0.1181818,
                "tempo": 120.0
            },
            {
                "start_time": 113.5386364,
                "end_time": 113.7909091,
                "pitch": 56,
                "velocity": 64,
                "duration": 0.2522727,
                "tempo": 120.0
            },
            {
                "start_time": 113.8068182,
                "end_time": 113.925,
                "pitch": 58,
                "velocity": 64,
                "duration": 0.1181818,
                "tempo": 120.0
            },
            {
                "start_time": 113.9409091,
                "end_time": 114.1909091,
                "pitch": 46,
                "velocity": 64,
                "duration": 0.25,
                "tempo": 120.0
            },
            {
                "start_time": 114.2068182,
                "end_time": 114.325,
                "pitch": 46,
                "velocity": 64,
                "duration": 0.1181818,
                "tempo": 120.0
            },
            {
                "start_time": 114.3409091,
                "end_time": 114.4590909,
                "pitch": 46,
                "velocity": 64,
                "duration": 0.1181818,
                "tempo": 120.0
            },
            {
                "start_time": 114.475,
                "end_time": 114.5931818,
                "pitch": 46,
                "velocity": 64,
                "duration": 0.1181818,
                "tempo": 120.0
            },
            {
                "start_time": 114.6090909,
                "end_time": 114.7272727,
                "pitch": 46,
                "velocity": 64,
                "duration": 0.1181818,
                "tempo": 120.0
            },
            {
                "start_time": 114.7431818,
                "end_time": 114.9954545,
                "pitch": 54,
                "velocity": 64,
                "duration": 0.2522727,
                "tempo": 120.0
            },
            {
                "start_time": 115.0113636,
                "end_time": 115.1295455,
                "pitch": 56,
                "velocity": 64,
                "duration": 0.1181818,
                "tempo": 120.0
            },
            {
                "start_time": 115.1477273,
                "end_time": 115.2636364,
                "pitch": 56,
                "velocity": 64,
                "duration": 0.1159091,
                "tempo": 120.0
            },
            {
                "start_time": 115.2795455,
                "end_time": 115.3977273,
                "pitch": 46,
                "velocity": 64,
                "duration": 0.1181818,
                "tempo": 120.0
            },
            {
                "start_time": 115.4136364,
                "end_time": 115.5295455,
                "pitch": 46,
                "velocity": 64,
                "duration": 0.1159091,
                "tempo": 120.0
            },
            {
                "start_time": 118.7590909,
                "end_time": 118.8772727,
                "pitch": 53,
                "velocity": 64,
                "duration": 0.1181818,
                "tempo": 120.0
            },
            {
                "start_time": 118.8954545,
                "end_time": 119.0113636,
                "pitch": 53,
                "velocity": 64,
                "duration": 0.1159091,
                "tempo": 120.0
            },
            {
                "start_time": 119.0295455,
                "end_time": 119.1454545,
                "pitch": 53,
                "velocity": 64,
                "duration": 0.1159091,
                "tempo": 120.0
            },
            {
                "start_time": 119.1636364,
                "end_time": 119.2795455,
                "pitch": 54,
                "velocity": 64,
                "duration": 0.1159091,
                "tempo": 120.0
            },
            {
                "start_time": 119.2954545,
                "end_time": 119.4136364,
                "pitch": 53,
                "velocity": 64,
                "duration": 0.1181818,
                "tempo": 120.0
            },
            {
                "start_time": 119.4295455,
                "end_time": 119.5454545,
                "pitch": 53,
                "velocity": 64,
                "duration": 0.1159091,
                "tempo": 120.0
            },
            {
                "start_time": 119.5636364,
                "end_time": 119.6795455,
                "pitch": 56,
                "velocity": 64,
                "duration": 0.1159091,
                "tempo": 120.0
            },
            {
                "start_time": 119.6977273,
                "end_time": 119.8136364,
                "pitch": 54,
                "velocity": 64,
                "duration": 0.1159091,
                "tempo": 120.0
            },
            {
                "start_time": 119.8318182,
                "end_time": 119.9477273,
                "pitch": 53,
                "velocity": 64,
                "duration": 0.1159091,
                "tempo": 120.0
            },
            {
                "start_time": 119.9659091,
                "end_time": 120.0818182,
                "pitch": 58,
                "velocity": 64,
                "duration": 0.1159091,
                "tempo": 120.0
            },
            {
                "start_time": 120.1,
                "end_time": 120.2159091,
                "pitch": 56,
                "velocity": 64,
                "duration": 0.1159091,
                "tempo": 120.0
            },
            {
                "start_time": 120.2318182,
                "end_time": 120.35,
                "pitch": 54,
                "velocity": 64,
                "duration": 0.1181818,
                "tempo": 120.0
            },
            {
                "start_time": 120.3659091,
                "end_time": 120.4840909,
                "pitch": 53,
                "velocity": 64,
                "duration": 0.1181818,
                "tempo": 120.0
            },
            {
                "start_time": 120.5,
                "end_time": 120.6181818,
                "pitch": 53,
                "velocity": 64,
                "duration": 0.1181818,
                "tempo": 120.0
            },
            {
                "start_time": 120.6340909,
                "end_time": 120.7522727,
                "pitch": 53,
                "velocity": 64,
                "duration": 0.1181818,
                "tempo": 120.0
            },
            {
                "start_time": 120.7681818,
                "end_time": 120.8863636,
                "pitch": 54,
                "velocity": 64,
                "duration": 0.1181818,
                "tempo": 120.0
            },
            {
                "start_time": 120.9022727,
                "end_time": 121.0204545,
                "pitch": 53,
                "velocity": 64,
                "duration": 0.1181818,
                "tempo": 120.0
            },
            {
                "start_time": 121.0363636,
                "end_time": 121.1545455,
                "pitch": 53,
                "velocity": 64,
                "duration": 0.1181818,
                "tempo": 120.0
            },
            {
                "start_time": 121.1704545,
                "end_time": 121.2886364,
                "pitch": 56,
                "velocity": 64,
                "duration": 0.1181818,
                "tempo": 120.0
            },
            {
                "start_time": 121.3045455,
                "end_time": 121.4204545,
                "pitch": 54,
                "velocity": 64,
                "duration": 0.1159091,
                "tempo": 120.0
            },
            {
                "start_time": 121.4386364,
                "end_time": 121.5545455,
                "pitch": 53,
                "velocity": 64,
                "duration": 0.1159091,
                "tempo": 120.0
            },
            {
                "start_time": 121.5704545,
                "end_time": 121.6886364,
                "pitch": 61,
                "velocity": 64,
                "duration": 0.1181818,
                "tempo": 120.0
            },
            {
                "start_time": 121.7045455,
                "end_time": 121.8227273,
                "pitch": 60,
                "velocity": 64,
                "duration": 0.1181818,
                "tempo": 120.0
            },
            {
                "start_time": 121.8386364,
                "end_time": 121.9568182,
                "pitch": 54,
                "velocity": 64,
                "duration": 0.1181818,
                "tempo": 120.0
            },
            {
                "start_time": 121.9727273,
                "end_time": 122.0909091,
                "pitch": 53,
                "velocity": 64,
                "duration": 0.1181818,
                "tempo": 120.0
            },
            {
                "start_time": 122.1068182,
                "end_time": 122.2227273,
                "pitch": 53,
                "velocity": 64,
                "duration": 0.1159091,
                "tempo": 120.0
            },
            {
                "start_time": 122.2409091,
                "end_time": 122.3568182,
                "pitch": 53,
                "velocity": 64,
                "duration": 0.1159091,
                "tempo": 120.0
            },
            {
                "start_time": 122.3727273,
                "end_time": 122.4909091,
                "pitch": 54,
                "velocity": 64,
                "duration": 0.1181818,
                "tempo": 120.0
            },
            {
                "start_time": 122.5068182,
                "end_time": 122.625,
                "pitch": 53,
                "velocity": 64,
                "duration": 0.1181818,
                "tempo": 120.0
            },
            {
                "start_time": 122.6431818,
                "end_time": 122.7590909,
                "pitch": 53,
                "velocity": 64,
                "duration": 0.1159091,
                "tempo": 120.0
            },
            {
                "start_time": 122.7772727,
                "end_time": 122.8931818,
                "pitch": 56,
                "velocity": 64,
                "duration": 0.1159091,
                "tempo": 120.0
            },
            {
                "start_time": 122.9113636,
                "end_time": 123.0272727,
                "pitch": 54,
                "velocity": 64,
                "duration": 0.1159091,
                "tempo": 120.0
            },
            {
                "start_time": 123.0454545,
                "end_time": 123.1613636,
                "pitch": 53,
                "velocity": 64,
                "duration": 0.1159091,
                "tempo": 120.0
            },
            {
                "start_time": 123.1795455,
                "end_time": 123.2954545,
                "pitch": 58,
                "velocity": 64,
                "duration": 0.1159091,
                "tempo": 120.0
            },
            {
                "start_time": 123.3113636,
                "end_time": 123.4295455,
                "pitch": 56,
                "velocity": 64,
                "duration": 0.1181818,
                "tempo": 120.0
            },
            {
                "start_time": 123.4454545,
                "end_time": 123.5613636,
                "pitch": 54,
                "velocity": 64,
                "duration": 0.1159091,
                "tempo": 120.0
            },
            {
                "start_time": 123.5795455,
                "end_time": 123.6954545,
                "pitch": 53,
                "velocity": 64,
                "duration": 0.1159091,
                "tempo": 120.0
            },
            {
                "start_time": 123.7136364,
                "end_time": 123.8295455,
                "pitch": 54,
                "velocity": 64,
                "duration": 0.1159091,
                "tempo": 120.0
            },
            {
                "start_time": 123.8477273,
                "end_time": 123.9659091,
                "pitch": 56,
                "velocity": 64,
                "duration": 0.1181818,
                "tempo": 120.0
            },
            {
                "start_time": 123.9818182,
                "end_time": 124.0977273,
                "pitch": 58,
                "velocity": 64,
                "duration": 0.1159091,
                "tempo": 120.0
            },
            {
                "start_time": 124.1159091,
                "end_time": 124.2318182,
                "pitch": 60,
                "velocity": 64,
                "duration": 0.1159091,
                "tempo": 120.0
            },
            {
                "start_time": 124.2477273,
                "end_time": 124.3659091,
                "pitch": 61,
                "velocity": 64,
                "duration": 0.1181818,
                "tempo": 120.0
            },
            {
                "start_time": 124.3818182,
                "end_time": 124.6340909,
                "pitch": 63,
                "velocity": 64,
                "duration": 0.2522727,
                "tempo": 120.0
            },
            {
                "start_time": 124.65,
                "end_time": 124.8977273,
                "pitch": 65,
                "velocity": 64,
                "duration": 0.2477273,
                "tempo": 120.0
            },
            {
                "start_time": 124.9159091,
                "end_time": 125.1590909,
                "pitch": 66,
                "velocity": 64,
                "duration": 0.2431818,
                "tempo": 120.0
            },
            {
                "start_time": 125.1772727,
                "end_time": 125.2954545,
                "pitch": 53,
                "velocity": 64,
                "duration": 0.1181818,
                "tempo": 120.0
            },
            {
                "start_time": 125.3136364,
                "end_time": 125.4340909,
                "pitch": 53,
                "velocity": 64,
                "duration": 0.1204545,
                "tempo": 120.0
            },
            {
                "start_time": 125.45,
                "end_time": 125.5704545,
                "pitch": 53,
                "velocity": 64,
                "duration": 0.1204545,
                "tempo": 120.0
            },
            {
                "start_time": 125.5863636,
                "end_time": 125.7045455,
                "pitch": 54,
                "velocity": 64,
                "duration": 0.1181818,
                "tempo": 120.0
            },
            {
                "start_time": 125.7204545,
                "end_time": 125.8386364,
                "pitch": 53,
                "velocity": 64,
                "duration": 0.1181818,
                "tempo": 120.0
            },
            {
                "start_time": 125.8545455,
                "end_time": 125.9727273,
                "pitch": 53,
                "velocity": 64,
                "duration": 0.1181818,
                "tempo": 120.0
            },
            {
                "start_time": 125.9909091,
                "end_time": 126.1068182,
                "pitch": 56,
                "velocity": 64,
                "duration": 0.1159091,
                "tempo": 120.0
            },
            {
                "start_time": 126.1227273,
                "end_time": 126.2409091,
                "pitch": 54,
                "velocity": 64,
                "duration": 0.1181818,
                "tempo": 120.0
            },
            {
                "start_time": 126.2568182,
                "end_time": 126.3727273,
                "pitch": 53,
                "velocity": 64,
                "duration": 0.1159091,
                "tempo": 120.0
            },
            {
                "start_time": 126.3909091,
                "end_time": 126.5068182,
                "pitch": 58,
                "velocity": 64,
                "duration": 0.1159091,
                "tempo": 120.0
            },
            {
                "start_time": 126.525,
                "end_time": 126.6409091,
                "pitch": 56,
                "velocity": 64,
                "duration": 0.1159091,
                "tempo": 120.0
            },
            {
                "start_time": 126.6590909,
                "end_time": 126.775,
                "pitch": 54,
                "velocity": 64,
                "duration": 0.1159091,
                "tempo": 120.0
            },
            {
                "start_time": 126.7931818,
                "end_time": 126.9090909,
                "pitch": 53,
                "velocity": 64,
                "duration": 0.1159091,
                "tempo": 120.0
            },
            {
                "start_time": 126.9272727,
                "end_time": 127.0431818,
                "pitch": 53,
                "velocity": 64,
                "duration": 0.1159091,
                "tempo": 120.0
            },
            {
                "start_time": 127.0613636,
                "end_time": 127.1795455,
                "pitch": 53,
                "velocity": 64,
                "duration": 0.1181818,
                "tempo": 120.0
            },
            {
                "start_time": 127.1954545,
                "end_time": 127.3113636,
                "pitch": 54,
                "velocity": 64,
                "duration": 0.1159091,
                "tempo": 120.0
            },
            {
                "start_time": 127.3295455,
                "end_time": 127.4454545,
                "pitch": 53,
                "velocity": 64,
                "duration": 0.1159091,
                "tempo": 120.0
            },
            {
                "start_time": 127.4613636,
                "end_time": 127.5795455,
                "pitch": 53,
                "velocity": 64,
                "duration": 0.1181818,
                "tempo": 120.0
            },
            {
                "start_time": 127.5954545,
                "end_time": 127.7136364,
                "pitch": 56,
                "velocity": 64,
                "duration": 0.1181818,
                "tempo": 120.0
            },
            {
                "start_time": 127.7295455,
                "end_time": 127.8477273,
                "pitch": 54,
                "velocity": 64,
                "duration": 0.1181818,
                "tempo": 120.0
            },
            {
                "start_time": 127.8636364,
                "end_time": 127.9818182,
                "pitch": 53,
                "velocity": 64,
                "duration": 0.1181818,
                "tempo": 120.0
            },
            {
                "start_time": 127.9977273,
                "end_time": 128.1136364,
                "pitch": 61,
                "velocity": 64,
                "duration": 0.1159091,
                "tempo": 120.0
            },
            {
                "start_time": 128.1318182,
                "end_time": 128.2477273,
                "pitch": 60,
                "velocity": 64,
                "duration": 0.1159091,
                "tempo": 120.0
            },
            {
                "start_time": 128.2636364,
                "end_time": 128.3818182,
                "pitch": 54,
                "velocity": 64,
                "duration": 0.1181818,
                "tempo": 120.0
            },
            {
                "start_time": 128.3977273,
                "end_time": 128.5159091,
                "pitch": 53,
                "velocity": 64,
                "duration": 0.1181818,
                "tempo": 120.0
            },
            {
                "start_time": 128.5318182,
                "end_time": 128.65,
                "pitch": 53,
                "velocity": 64,
                "duration": 0.1181818,
                "tempo": 120.0
            },
            {
                "start_time": 128.6659091,
                "end_time": 128.7840909,
                "pitch": 53,
                "velocity": 64,
                "duration": 0.1181818,
                "tempo": 120.0
            },
            {
                "start_time": 128.8,
                "end_time": 128.9181818,
                "pitch": 54,
                "velocity": 64,
                "duration": 0.1181818,
                "tempo": 120.0
            },
            {
                "start_time": 128.9340909,
                "end_time": 129.0522727,
                "pitch": 53,
                "velocity": 64,
                "duration": 0.1181818,
                "tempo": 120.0
            },
            {
                "start_time": 129.0681818,
                "end_time": 129.1863636,
                "pitch": 53,
                "velocity": 64,
                "duration": 0.1181818,
                "tempo": 120.0
            },
            {
                "start_time": 129.2022727,
                "end_time": 129.3204545,
                "pitch": 56,
                "velocity": 64,
                "duration": 0.1181818,
                "tempo": 120.0
            },
            {
                "start_time": 129.3386364,
                "end_time": 129.4545455,
                "pitch": 54,
                "velocity": 64,
                "duration": 0.1159091,
                "tempo": 120.0
            },
            {
                "start_time": 129.4727273,
                "end_time": 129.5886364,
                "pitch": 53,
                "velocity": 64,
                "duration": 0.1159091,
                "tempo": 120.0
            },
            {
                "start_time": 129.6068182,
                "end_time": 129.7227273,
                "pitch": 58,
                "velocity": 64,
                "duration": 0.1159091,
                "tempo": 120.0
            },
            {
                "start_time": 129.7386364,
                "end_time": 129.8568182,
                "pitch": 56,
                "velocity": 64,
                "duration": 0.1181818,
                "tempo": 120.0
            },
            {
                "start_time": 129.8727273,
                "end_time": 129.9886364,
                "pitch": 54,
                "velocity": 64,
                "duration": 0.1159091,
                "tempo": 120.0
            },
            {
                "start_time": 130.0068182,
                "end_time": 130.1227273,
                "pitch": 53,
                "velocity": 64,
                "duration": 0.1159091,
                "tempo": 120.0
            },
            {
                "start_time": 130.1409091,
                "end_time": 130.2568182,
                "pitch": 54,
                "velocity": 64,
                "duration": 0.1159091,
                "tempo": 120.0
            },
            {
                "start_time": 130.275,
                "end_time": 130.3909091,
                "pitch": 56,
                "velocity": 64,
                "duration": 0.1159091,
                "tempo": 120.0
            },
            {
                "start_time": 130.4090909,
                "end_time": 130.525,
                "pitch": 58,
                "velocity": 64,
                "duration": 0.1159091,
                "tempo": 120.0
            },
            {
                "start_time": 130.5431818,
                "end_time": 130.6613636,
                "pitch": 60,
                "velocity": 64,
                "duration": 0.1181818,
                "tempo": 120.0
            },
            {
                "start_time": 130.6772727,
                "end_time": 130.7954545,
                "pitch": 61,
                "velocity": 64,
                "duration": 0.1181818,
                "tempo": 120.0
            },
            {
                "start_time": 130.8113636,
                "end_time": 130.9295455,
                "pitch": 63,
                "velocity": 64,
                "duration": 0.1181818,
                "tempo": 120.0
            },
            {
                "start_time": 130.9454545,
                "end_time": 131.0636364,
                "pitch": 65,
                "velocity": 64,
                "duration": 0.1181818,
                "tempo": 120.0
            },
            {
                "start_time": 131.0795455,
                "end_time": 131.1977273,
                "pitch": 66,
                "velocity": 64,
                "duration": 0.1181818,
                "tempo": 120.0
            },
            {
                "start_time": 131.2136364,
                "end_time": 131.3318182,
                "pitch": 76,
                "velocity": 64,
                "duration": 0.1181818,
                "tempo": 120.0
            },
            {
                "start_time": 131.3477273,
                "end_time": 131.4659091,
                "pitch": 75,
                "velocity": 64,
                "duration": 0.1181818,
                "tempo": 120.0
            },
            {
                "start_time": 131.4818182,
                "end_time": 131.6,
                "pitch": 73,
                "velocity": 64,
                "duration": 0.1181818,
                "tempo": 120.0
            },
            {
                "start_time": 147.7113636,
                "end_time": 147.9568182,
                "pitch": 46,
                "velocity": 64,
                "duration": 0.2454545,
                "tempo": 120.0
            },
            {
                "start_time": 147.9727273,
                "end_time": 148.0863636,
                "pitch": 46,
                "velocity": 64,
                "duration": 0.1136364,
                "tempo": 120.0
            },
            {
                "start_time": 148.1022727,
                "end_time": 148.2204545,
                "pitch": 46,
                "velocity": 64,
                "duration": 0.1181818,
                "tempo": 120.0
            },
            {
                "start_time": 148.2363636,
                "end_time": 148.3545455,
                "pitch": 46,
                "velocity": 64,
                "duration": 0.1181818,
                "tempo": 120.0
            },
            {
                "start_time": 148.3704545,
                "end_time": 148.4886364,
                "pitch": 46,
                "velocity": 64,
                "duration": 0.1181818,
                "tempo": 120.0
            },
            {
                "start_time": 148.5045455,
                "end_time": 148.7568182,
                "pitch": 58,
                "velocity": 64,
                "duration": 0.2522727,
                "tempo": 120.0
            },
            {
                "start_time": 148.775,
                "end_time": 148.8909091,
                "pitch": 56,
                "velocity": 64,
                "duration": 0.1159091,
                "tempo": 120.0
            },
            {
                "start_time": 148.9090909,
                "end_time": 149.1590909,
                "pitch": 56,
                "velocity": 64,
                "duration": 0.25,
                "tempo": 120.0
            },
            {
                "start_time": 149.1772727,
                "end_time": 149.2931818,
                "pitch": 58,
                "velocity": 64,
                "duration": 0.1159091,
                "tempo": 120.0
            },
            {
                "start_time": 149.3113636,
                "end_time": 149.5636364,
                "pitch": 46,
                "velocity": 64,
                "duration": 0.2522727,
                "tempo": 120.0
            },
            {
                "start_time": 149.5795455,
                "end_time": 149.6977273,
                "pitch": 46,
                "velocity": 64,
                "duration": 0.1181818,
                "tempo": 120.0
            },
            {
                "start_time": 149.7136364,
                "end_time": 149.8295455,
                "pitch": 46,
                "velocity": 64,
                "duration": 0.1159091,
                "tempo": 120.0
            },
            {
                "start_time": 149.8477273,
                "end_time": 149.9636364,
                "pitch": 46,
                "velocity": 64,
                "duration": 0.1159091,
                "tempo": 120.0
            },
            {
                "start_time": 149.9795455,
                "end_time": 150.0977273,
                "pitch": 46,
                "velocity": 64,
                "duration": 0.1181818,
                "tempo": 120.0
            },
            {
                "start_time": 150.1136364,
                "end_time": 150.3659091,
                "pitch": 54,
                "velocity": 64,
                "duration": 0.2522727,
                "tempo": 120.0
            },
            {
                "start_time": 150.3818182,
                "end_time": 150.5,
                "pitch": 56,
                "velocity": 64,
                "duration": 0.1181818,
                "tempo": 120.0
            },
            {
                "start_time": 150.5159091,
                "end_time": 150.6363636,
                "pitch": 56,
                "velocity": 64,
                "duration": 0.1204545,
                "tempo": 120.0
            },
            {
                "start_time": 150.6522727,
                "end_time": 150.7727273,
                "pitch": 46,
                "velocity": 64,
                "duration": 0.1204545,
                "tempo": 120.0
            },
            {
                "start_time": 150.7909091,
                "end_time": 150.9090909,
                "pitch": 46,
                "velocity": 64,
                "duration": 0.1181818,
                "tempo": 120.0
            },
            {
                "start_time": 150.9272727,
                "end_time": 151.1727273,
                "pitch": 46,
                "velocity": 64,
                "duration": 0.2454545,
                "tempo": 120.0
            },
            {
                "start_time": 151.1886364,
                "end_time": 151.3022727,
                "pitch": 46,
                "velocity": 64,
                "duration": 0.1136364,
                "tempo": 120.0
            },
            {
                "start_time": 151.3181818,
                "end_time": 151.4363636,
                "pitch": 46,
                "velocity": 64,
                "duration": 0.1181818,
                "tempo": 120.0
            },
            {
                "start_time": 151.4545455,
                "end_time": 151.5704545,
                "pitch": 46,
                "velocity": 64,
                "duration": 0.1159091,
                "tempo": 120.0
            },
            {
                "start_time": 151.5886364,
                "end_time": 151.7045455,
                "pitch": 46,
                "velocity": 64,
                "duration": 0.1159091,
                "tempo": 120.0
            },
            {
                "start_time": 151.7227273,
                "end_time": 151.9727273,
                "pitch": 58,
                "velocity": 64,
                "duration": 0.25,
                "tempo": 120.0
            },
            {
                "start_time": 151.9886364,
                "end_time": 152.1045455,
                "pitch": 56,
                "velocity": 64,
                "duration": 0.1159091,
                "tempo": 120.0
            },
            {
                "start_time": 152.1227273,
                "end_time": 152.3727273,
                "pitch": 56,
                "velocity": 64,
                "duration": 0.25,
                "tempo": 120.0
            },
            {
                "start_time": 152.3909091,
                "end_time": 152.5068182,
                "pitch": 58,
                "velocity": 64,
                "duration": 0.1159091,
                "tempo": 120.0
            },
            {
                "start_time": 152.525,
                "end_time": 152.7772727,
                "pitch": 46,
                "velocity": 64,
                "duration": 0.2522727,
                "tempo": 120.0
            },
            {
                "start_time": 152.7931818,
                "end_time": 152.9113636,
                "pitch": 46,
                "velocity": 64,
                "duration": 0.1181818,
                "tempo": 120.0
            },
            {
                "start_time": 152.9272727,
                "end_time": 153.0454545,
                "pitch": 46,
                "velocity": 64,
                "duration": 0.1181818,
                "tempo": 120.0
            },
            {
                "start_time": 153.0613636,
                "end_time": 153.1795455,
                "pitch": 46,
                "velocity": 64,
                "duration": 0.1181818,
                "tempo": 120.0
            },
            {
                "start_time": 153.1954545,
                "end_time": 153.3136364,
                "pitch": 46,
                "velocity": 64,
                "duration": 0.1181818,
                "tempo": 120.0
            },
            {
                "start_time": 153.3295455,
                "end_time": 153.5818182,
                "pitch": 54,
                "velocity": 64,
                "duration": 0.2522727,
                "tempo": 120.0
            },
            {
                "start_time": 153.5977273,
                "end_time": 153.7159091,
                "pitch": 56,
                "velocity": 64,
                "duration": 0.1181818,
                "tempo": 120.0
            },
            {
                "start_time": 153.7318182,
                "end_time": 153.8522727,
                "pitch": 56,
                "velocity": 64,
                "duration": 0.1204545,
                "tempo": 120.0
            },
            {
                "start_time": 153.8704545,
                "end_time": 153.9886364,
                "pitch": 46,
                "velocity": 64,
                "duration": 0.1181818,
                "tempo": 120.0
            },
            {
                "start_time": 154.0068182,
                "end_time": 154.1272727,
                "pitch": 46,
                "velocity": 64,
                "duration": 0.1204545,
                "tempo": 120.0
            }
        ],
        "Lead 2 (sawtooth)": [
            {
                "start_time": 16.1136364,
                "end_time": 17.7022727,
                "pitch": 72,
                "velocity": 20,
                "duration": 1.5886364,
                "tempo": 120.0
            },
            {
                "start_time": 17.7181818,
                "end_time": 19.3068182,
                "pitch": 77,
                "velocity": 20,
                "duration": 1.5886364,
                "tempo": 120.0
            },
            {
                "start_time": 54.5977273,
                "end_time": 56.1840909,
                "pitch": 72,
                "velocity": 20,
                "duration": 1.5863636,
                "tempo": 120.0
            },
            {
                "start_time": 56.2,
                "end_time": 57.7863636,
                "pitch": 77,
                "velocity": 20,
                "duration": 1.5863636,
                "tempo": 120.0
            },
            {
                "start_time": 93.1295455,
                "end_time": 94.7181818,
                "pitch": 72,
                "velocity": 20,
                "duration": 1.5886364,
                "tempo": 120.0
            },
            {
                "start_time": 94.7340909,
                "end_time": 96.3227273,
                "pitch": 77,
                "velocity": 20,
                "duration": 1.5886364,
                "tempo": 120.0
            },
            {
                "start_time": 131.6840909,
                "end_time": 133.275,
                "pitch": 72,
                "velocity": 20,
                "duration": 1.5909091,
                "tempo": 120.0
            },
            {
                "start_time": 133.2909091,
                "end_time": 134.8840909,
                "pitch": 77,
                "velocity": 20,
                "duration": 1.5931818,
                "tempo": 120.0
            }
        ],
        "Trumpet": [
            {
                "start_time": 19.2568182,
                "end_time": 20.4431818,
                "pitch": 78,
                "velocity": 64,
                "duration": 1.1863636,
                "tempo": 120.0
            },
            {
                "start_time": 20.4590909,
                "end_time": 20.5772727,
                "pitch": 78,
                "velocity": 64,
                "duration": 0.1181818,
                "tempo": 120.0
            },
            {
                "start_time": 20.5931818,
                "end_time": 20.7090909,
                "pitch": 77,
                "velocity": 64,
                "duration": 0.1159091,
                "tempo": 120.0
            },
            {
                "start_time": 20.7272727,
                "end_time": 20.8431818,
                "pitch": 75,
                "velocity": 64,
                "duration": 0.1159091,
                "tempo": 120.0
            },
            {
                "start_time": 20.8590909,
                "end_time": 22.4409091,
                "pitch": 70,
                "velocity": 64,
                "duration": 1.5818182,
                "tempo": 120.0
            },
            {
                "start_time": 22.4568182,
                "end_time": 22.85,
                "pitch": 77,
                "velocity": 64,
                "duration": 0.3931818,
                "tempo": 120.0
            },
            {
                "start_time": 22.8681818,
                "end_time": 23.2545455,
                "pitch": 75,
                "velocity": 64,
                "duration": 0.3863636,
                "tempo": 120.0
            },
            {
                "start_time": 23.2704545,
                "end_time": 23.6545455,
                "pitch": 73,
                "velocity": 64,
                "duration": 0.3840909,
                "tempo": 120.0
            },
            {
                "start_time": 23.6704545,
                "end_time": 24.0568182,
                "pitch": 72,
                "velocity": 64,
                "duration": 0.3863636,
                "tempo": 120.0
            },
            {
                "start_time": 24.0727273,
                "end_time": 24.1909091,
                "pitch": 73,
                "velocity": 64,
                "duration": 0.1181818,
                "tempo": 120.0
            },
            {
                "start_time": 24.2068182,
                "end_time": 24.3227273,
                "pitch": 70,
                "velocity": 64,
                "duration": 0.1159091,
                "tempo": 120.0
            },
            {
                "start_time": 24.3409091,
                "end_time": 24.4568182,
                "pitch": 66,
                "velocity": 64,
                "duration": 0.1159091,
                "tempo": 120.0
            },
            {
                "start_time": 24.4727273,
                "end_time": 24.5909091,
                "pitch": 75,
                "velocity": 64,
                "duration": 0.1181818,
                "tempo": 120.0
            },
            {
                "start_time": 24.6068182,
                "end_time": 24.7227273,
                "pitch": 72,
                "velocity": 64,
                "duration": 0.1159091,
                "tempo": 120.0
            },
            {
                "start_time": 24.7409091,
                "end_time": 24.8568182,
                "pitch": 68,
                "velocity": 64,
                "duration": 0.1159091,
                "tempo": 120.0
            },
            {
                "start_time": 24.8727273,
                "end_time": 25.125,
                "pitch": 73,
                "velocity": 64,
                "duration": 0.2522727,
                "tempo": 120.0
            },
            {
                "start_time": 25.1409091,
                "end_time": 25.3931818,
                "pitch": 75,
                "velocity": 64,
                "duration": 0.2522727,
                "tempo": 120.0
            },
            {
                "start_time": 25.4090909,
                "end_time": 25.6590909,
                "pitch": 77,
                "velocity": 64,
                "duration": 0.25,
                "tempo": 120.0
            },
            {
                "start_time": 25.6772727,
                "end_time": 26.8613636,
                "pitch": 78,
                "velocity": 64,
                "duration": 1.1840909,
                "tempo": 120.0
            },
            {
                "start_time": 26.8795455,
                "end_time": 26.9954545,
                "pitch": 78,
                "velocity": 64,
                "duration": 0.1159091,
                "tempo": 120.0
            },
            {
                "start_time": 27.0136364,
                "end_time": 27.1295455,
                "pitch": 77,
                "velocity": 64,
                "duration": 0.1159091,
                "tempo": 120.0
            },
            {
                "start_time": 27.1477273,
                "end_time": 27.2636364,
                "pitch": 75,
                "velocity": 64,
                "duration": 0.1159091,
                "tempo": 120.0
            },
            {
                "start_time": 27.2818182,
                "end_time": 28.8681818,
                "pitch": 70,
                "velocity": 64,
                "duration": 1.5863636,
                "tempo": 120.0
            },
            {
                "start_time": 28.8840909,
                "end_time": 29.2704545,
                "pitch": 77,
                "velocity": 64,
                "duration": 0.3863636,
                "tempo": 120.0
            },
            {
                "start_time": 29.2863636,
                "end_time": 29.6704545,
                "pitch": 75,
                "velocity": 64,
                "duration": 0.3840909,
                "tempo": 120.0
            },
            {
                "start_time": 29.6863636,
                "end_time": 30.0727273,
                "pitch": 73,
                "velocity": 64,
                "duration": 0.3863636,
                "tempo": 120.0
            },
            {
                "start_time": 30.0886364,
                "end_time": 30.4727273,
                "pitch": 72,
                "velocity": 64,
                "duration": 0.3840909,
                "tempo": 120.0
            },
            {
                "start_time": 30.4886364,
                "end_time": 30.6090909,
                "pitch": 69,
                "velocity": 64,
                "duration": 0.1204545,
                "tempo": 120.0
            },
            {
                "start_time": 30.6272727,
                "end_time": 30.7454545,
                "pitch": 72,
                "velocity": 64,
                "duration": 0.1181818,
                "tempo": 120.0
            },
            {
                "start_time": 30.7636364,
                "end_time": 30.8840909,
                "pitch": 75,
                "velocity": 64,
                "duration": 0.1204545,
                "tempo": 120.0
            },
            {
                "start_time": 30.9,
                "end_time": 31.0136364,
                "pitch": 78,
                "velocity": 64,
                "duration": 0.1136364,
                "tempo": 120.0
            },
            {
                "start_time": 31.0318182,
                "end_time": 31.1454545,
                "pitch": 75,
                "velocity": 64,
                "duration": 0.1136364,
                "tempo": 120.0
            },
            {
                "start_time": 31.1613636,
                "end_time": 31.275,
                "pitch": 78,
                "velocity": 64,
                "duration": 0.1136364,
                "tempo": 120.0
            },
            {
                "start_time": 31.2931818,
                "end_time": 32.0681818,
                "pitch": 82,
                "velocity": 64,
                "duration": 0.775,
                "tempo": 120.0
            },
            {
                "start_time": 57.7363636,
                "end_time": 58.9181818,
                "pitch": 78,
                "velocity": 64,
                "duration": 1.1818182,
                "tempo": 120.0
            },
            {
                "start_time": 58.9363636,
                "end_time": 59.0522727,
                "pitch": 78,
                "velocity": 64,
                "duration": 0.1159091,
                "tempo": 120.0
            },
            {
                "start_time": 59.0681818,
                "end_time": 59.1863636,
                "pitch": 77,
                "velocity": 64,
                "duration": 0.1181818,
                "tempo": 120.0
            },
            {
                "start_time": 59.2022727,
                "end_time": 59.3181818,
                "pitch": 75,
                "velocity": 64,
                "duration": 0.1159091,
                "tempo": 120.0
            },
            {
                "start_time": 59.3363636,
                "end_time": 60.9227273,
                "pitch": 70,
                "velocity": 64,
                "duration": 1.5863636,
                "tempo": 120.0
            },
            {
                "start_time": 60.9386364,
                "end_time": 61.3227273,
                "pitch": 77,
                "velocity": 64,
                "duration": 0.3840909,
                "tempo": 120.0
            },
            {
                "start_time": 61.3386364,
                "end_time": 61.7318182,
                "pitch": 75,
                "velocity": 64,
                "duration": 0.3931818,
                "tempo": 120.0
            },
            {
                "start_time": 61.75,
                "end_time": 62.125,
                "pitch": 73,
                "velocity": 64,
                "duration": 0.375,
                "tempo": 120.0
            },
            {
                "start_time": 62.1409091,
                "end_time": 62.5340909,
                "pitch": 72,
                "velocity": 64,
                "duration": 0.3931818,
                "tempo": 120.0
            },
            {
                "start_time": 62.5522727,
                "end_time": 62.6659091,
                "pitch": 73,
                "velocity": 64,
                "duration": 0.1136364,
                "tempo": 120.0
            },
            {
                "start_time": 62.6818182,
                "end_time": 62.7977273,
                "pitch": 70,
                "velocity": 64,
                "duration": 0.1159091,
                "tempo": 120.0
            },
            {
                "start_time": 62.8136364,
                "end_time": 62.9272727,
                "pitch": 66,
                "velocity": 64,
                "duration": 0.1136364,
                "tempo": 120.0
            },
            {
                "start_time": 62.9431818,
                "end_time": 63.0613636,
                "pitch": 75,
                "velocity": 64,
                "duration": 0.1181818,
                "tempo": 120.0
            },
            {
                "start_time": 63.0772727,
                "end_time": 63.1931818,
                "pitch": 72,
                "velocity": 64,
                "duration": 0.1159091,
                "tempo": 120.0
            },
            {
                "start_time": 63.2113636,
                "end_time": 63.3272727,
                "pitch": 68,
                "velocity": 64,
                "duration": 0.1159091,
                "tempo": 120.0
            },
            {
                "start_time": 63.3431818,
                "end_time": 63.5954545,
                "pitch": 73,
                "velocity": 64,
                "duration": 0.2522727,
                "tempo": 120.0
            },
            {
                "start_time": 63.6136364,
                "end_time": 63.8636364,
                "pitch": 75,
                "velocity": 64,
                "duration": 0.25,
                "tempo": 120.0
            },
            {
                "start_time": 63.8795455,
                "end_time": 64.1295455,
                "pitch": 77,
                "velocity": 64,
                "duration": 0.25,
                "tempo": 120.0
            },
            {
                "start_time": 64.1477273,
                "end_time": 65.3318182,
                "pitch": 78,
                "velocity": 64,
                "duration": 1.1840909,
                "tempo": 120.0
            },
            {
                "start_time": 65.35,
                "end_time": 65.4659091,
                "pitch": 78,
                "velocity": 64,
                "duration": 0.1159091,
                "tempo": 120.0
            },
            {
                "start_time": 65.4840909,
                "end_time": 65.6022727,
                "pitch": 77,
                "velocity": 64,
                "duration": 0.1181818,
                "tempo": 120.0
            },
            {
                "start_time": 65.6181818,
                "end_time": 65.7363636,
                "pitch": 75,
                "velocity": 64,
                "duration": 0.1181818,
                "tempo": 120.0
            },
            {
                "start_time": 65.7522727,
                "end_time": 67.3409091,
                "pitch": 70,
                "velocity": 64,
                "duration": 1.5886364,
                "tempo": 120.0
            },
            {
                "start_time": 67.3568182,
                "end_time": 67.7431818,
                "pitch": 77,
                "velocity": 64,
                "duration": 0.3863636,
                "tempo": 120.0
            },
            {
                "start_time": 67.7613636,
                "end_time": 68.1431818,
                "pitch": 75,
                "velocity": 64,
                "duration": 0.3818182,
                "tempo": 120.0
            },
            {
                "start_time": 68.1613636,
                "end_time": 68.5454545,
                "pitch": 73,
                "velocity": 64,
                "duration": 0.3840909,
                "tempo": 120.0
            },
            {
                "start_time": 68.5636364,
                "end_time": 68.9477273,
                "pitch": 72,
                "velocity": 64,
                "duration": 0.3840909,
                "tempo": 120.0
            },
            {
                "start_time": 68.9659091,
                "end_time": 69.0818182,
                "pitch": 69,
                "velocity": 64,
                "duration": 0.1159091,
                "tempo": 120.0
            },
            {
                "start_time": 69.1,
                "end_time": 69.2159091,
                "pitch": 72,
                "velocity": 64,
                "duration": 0.1159091,
                "tempo": 120.0
            },
            {
                "start_time": 69.2318182,
                "end_time": 69.35,
                "pitch": 75,
                "velocity": 64,
                "duration": 0.1181818,
                "tempo": 120.0
            },
            {
                "start_time": 69.3659091,
                "end_time": 69.4840909,
                "pitch": 78,
                "velocity": 64,
                "duration": 0.1181818,
                "tempo": 120.0
            },
            {
                "start_time": 69.5,
                "end_time": 69.6181818,
                "pitch": 75,
                "velocity": 64,
                "duration": 0.1181818,
                "tempo": 120.0
            },
            {
                "start_time": 69.6340909,
                "end_time": 69.7522727,
                "pitch": 78,
                "velocity": 64,
                "duration": 0.1181818,
                "tempo": 120.0
            },
            {
                "start_time": 69.7681818,
                "end_time": 70.5545455,
                "pitch": 82,
                "velocity": 64,
                "duration": 0.7863636,
                "tempo": 120.0
            },
            {
                "start_time": 96.2727273,
                "end_time": 97.4613636,
                "pitch": 78,
                "velocity": 64,
                "duration": 1.1886364,
                "tempo": 120.0
            },
            {
                "start_time": 97.4795455,
                "end_time": 97.5954545,
                "pitch": 78,
                "velocity": 64,
                "duration": 0.1159091,
                "tempo": 120.0
            },
            {
                "start_time": 97.6136364,
                "end_time": 97.7295455,
                "pitch": 77,
                "velocity": 64,
                "duration": 0.1159091,
                "tempo": 120.0
            },
            {
                "start_time": 97.7477273,
                "end_time": 97.8636364,
                "pitch": 75,
                "velocity": 64,
                "duration": 0.1159091,
                "tempo": 120.0
            },
            {
                "start_time": 97.8818182,
                "end_time": 99.4613636,
                "pitch": 70,
                "velocity": 64,
                "duration": 1.5795455,
                "tempo": 120.0
            },
            {
                "start_time": 99.4795455,
                "end_time": 99.8727273,
                "pitch": 77,
                "velocity": 64,
                "duration": 0.3931818,
                "tempo": 120.0
            },
            {
                "start_time": 99.8886364,
                "end_time": 100.2727273,
                "pitch": 75,
                "velocity": 64,
                "duration": 0.3840909,
                "tempo": 120.0
            },
            {
                "start_time": 100.2886364,
                "end_time": 100.675,
                "pitch": 73,
                "velocity": 64,
                "duration": 0.3863636,
                "tempo": 120.0
            },
            {
                "start_time": 100.6931818,
                "end_time": 101.0863636,
                "pitch": 72,
                "velocity": 64,
                "duration": 0.3931818,
                "tempo": 120.0
            },
            {
                "start_time": 101.1022727,
                "end_time": 101.2181818,
                "pitch": 73,
                "velocity": 64,
                "duration": 0.1159091,
                "tempo": 120.0
            },
            {
                "start_time": 101.2340909,
                "end_time": 101.3477273,
                "pitch": 70,
                "velocity": 64,
                "duration": 0.1136364,
                "tempo": 120.0
            },
            {
                "start_time": 101.3636364,
                "end_time": 101.4795455,
                "pitch": 66,
                "velocity": 64,
                "duration": 0.1159091,
                "tempo": 120.0
            },
            {
                "start_time": 101.4954545,
                "end_time": 101.6136364,
                "pitch": 75,
                "velocity": 64,
                "duration": 0.1181818,
                "tempo": 120.0
            },
            {
                "start_time": 101.6295455,
                "end_time": 101.7477273,
                "pitch": 72,
                "velocity": 64,
                "duration": 0.1181818,
                "tempo": 120.0
            },
            {
                "start_time": 101.7636364,
                "end_time": 101.8818182,
                "pitch": 68,
                "velocity": 64,
                "duration": 0.1181818,
                "tempo": 120.0
            },
            {
                "start_time": 101.8977273,
                "end_time": 102.1477273,
                "pitch": 73,
                "velocity": 64,
                "duration": 0.25,
                "tempo": 120.0
            },
            {
                "start_time": 102.1636364,
                "end_time": 102.4181818,
                "pitch": 75,
                "velocity": 64,
                "duration": 0.2545455,
                "tempo": 120.0
            },
            {
                "start_time": 102.4340909,
                "end_time": 102.6909091,
                "pitch": 77,
                "velocity": 64,
                "duration": 0.2568182,
                "tempo": 120.0
            },
            {
                "start_time": 102.7090909,
                "end_time": 103.8863636,
                "pitch": 78,
                "velocity": 64,
                "duration": 1.1772727,
                "tempo": 120.0
            },
            {
                "start_time": 103.9045455,
                "end_time": 104.0204545,
                "pitch": 78,
                "velocity": 64,
                "duration": 0.1159091,
                "tempo": 120.0
            },
            {
                "start_time": 104.0363636,
                "end_time": 104.1545455,
                "pitch": 77,
                "velocity": 64,
                "duration": 0.1181818,
                "tempo": 120.0
            },
            {
                "start_time": 104.1704545,
                "end_time": 104.2863636,
                "pitch": 75,
                "velocity": 64,
                "duration": 0.1159091,
                "tempo": 120.0
            },
            {
                "start_time": 104.3045455,
                "end_time": 105.8954545,
                "pitch": 70,
                "velocity": 64,
                "duration": 1.5909091,
                "tempo": 120.0
            },
            {
                "start_time": 105.9113636,
                "end_time": 106.2954545,
                "pitch": 77,
                "velocity": 64,
                "duration": 0.3840909,
                "tempo": 120.0
            },
            {
                "start_time": 106.3113636,
                "end_time": 106.7045455,
                "pitch": 75,
                "velocity": 64,
                "duration": 0.3931818,
                "tempo": 120.0
            },
            {
                "start_time": 106.7227273,
                "end_time": 107.0977273,
                "pitch": 73,
                "velocity": 64,
                "duration": 0.375,
                "tempo": 120.0
            },
            {
                "start_time": 107.1136364,
                "end_time": 107.4977273,
                "pitch": 72,
                "velocity": 64,
                "duration": 0.3840909,
                "tempo": 120.0
            },
            {
                "start_time": 107.5136364,
                "end_time": 107.6318182,
                "pitch": 69,
                "velocity": 64,
                "duration": 0.1181818,
                "tempo": 120.0
            },
            {
                "start_time": 107.6477273,
                "end_time": 107.7659091,
                "pitch": 72,
                "velocity": 64,
                "duration": 0.1181818,
                "tempo": 120.0
            },
            {
                "start_time": 107.7818182,
                "end_time": 107.9,
                "pitch": 75,
                "velocity": 64,
                "duration": 0.1181818,
                "tempo": 120.0
            },
            {
                "start_time": 107.9181818,
                "end_time": 108.0340909,
                "pitch": 78,
                "velocity": 64,
                "duration": 0.1159091,
                "tempo": 120.0
            },
            {
                "start_time": 108.05,
                "end_time": 108.1681818,
                "pitch": 75,
                "velocity": 64,
                "duration": 0.1181818,
                "tempo": 120.0
            },
            {
                "start_time": 108.1840909,
                "end_time": 108.3,
                "pitch": 78,
                "velocity": 64,
                "duration": 0.1159091,
                "tempo": 120.0
            },
            {
                "start_time": 108.3181818,
                "end_time": 109.1045455,
                "pitch": 82,
                "velocity": 64,
                "duration": 0.7863636,
                "tempo": 120.0
            },
            {
                "start_time": 134.8318182,
                "end_time": 136.0204545,
                "pitch": 78,
                "velocity": 64,
                "duration": 1.1886364,
                "tempo": 120.0
            },
            {
                "start_time": 136.0386364,
                "end_time": 136.1545455,
                "pitch": 78,
                "velocity": 64,
                "duration": 0.1159091,
                "tempo": 120.0
            },
            {
                "start_time": 136.1727273,
                "end_time": 136.2909091,
                "pitch": 77,
                "velocity": 64,
                "duration": 0.1181818,
                "tempo": 120.0
            },
            {
                "start_time": 136.3068182,
                "end_time": 136.425,
                "pitch": 75,
                "velocity": 64,
                "duration": 0.1181818,
                "tempo": 120.0
            },
            {
                "start_time": 136.4409091,
                "end_time": 138.0318182,
                "pitch": 70,
                "velocity": 64,
                "duration": 1.5909091,
                "tempo": 120.0
            },
            {
                "start_time": 138.05,
                "end_time": 138.4340909,
                "pitch": 77,
                "velocity": 64,
                "duration": 0.3840909,
                "tempo": 120.0
            },
            {
                "start_time": 138.4522727,
                "end_time": 138.8386364,
                "pitch": 75,
                "velocity": 64,
                "duration": 0.3863636,
                "tempo": 120.0
            },
            {
                "start_time": 138.8545455,
                "end_time": 139.2409091,
                "pitch": 73,
                "velocity": 64,
                "duration": 0.3863636,
                "tempo": 120.0
            },
            {
                "start_time": 139.2568182,
                "end_time": 139.6431818,
                "pitch": 72,
                "velocity": 64,
                "duration": 0.3863636,
                "tempo": 120.0
            },
            {
                "start_time": 139.6590909,
                "end_time": 139.7772727,
                "pitch": 73,
                "velocity": 64,
                "duration": 0.1181818,
                "tempo": 120.0
            },
            {
                "start_time": 139.7931818,
                "end_time": 139.9090909,
                "pitch": 70,
                "velocity": 64,
                "duration": 0.1159091,
                "tempo": 120.0
            },
            {
                "start_time": 139.9272727,
                "end_time": 140.0431818,
                "pitch": 66,
                "velocity": 64,
                "duration": 0.1159091,
                "tempo": 120.0
            },
            {
                "start_time": 140.0590909,
                "end_time": 140.1772727,
                "pitch": 75,
                "velocity": 64,
                "duration": 0.1181818,
                "tempo": 120.0
            },
            {
                "start_time": 140.1931818,
                "end_time": 140.3113636,
                "pitch": 72,
                "velocity": 64,
                "duration": 0.1181818,
                "tempo": 120.0
            },
            {
                "start_time": 140.3272727,
                "end_time": 140.4454545,
                "pitch": 68,
                "velocity": 64,
                "duration": 0.1181818,
                "tempo": 120.0
            },
            {
                "start_time": 140.4613636,
                "end_time": 140.7136364,
                "pitch": 73,
                "velocity": 64,
                "duration": 0.2522727,
                "tempo": 120.0
            },
            {
                "start_time": 140.7318182,
                "end_time": 140.9818182,
                "pitch": 75,
                "velocity": 64,
                "duration": 0.25,
                "tempo": 120.0
            },
            {
                "start_time": 141.0,
                "end_time": 141.25,
                "pitch": 77,
                "velocity": 64,
                "duration": 0.25,
                "tempo": 120.0
            },
            {
                "start_time": 141.2681818,
                "end_time": 142.4568182,
                "pitch": 78,
                "velocity": 64,
                "duration": 1.1886364,
                "tempo": 120.0
            },
            {
                "start_time": 142.4727273,
                "end_time": 142.5909091,
                "pitch": 78,
                "velocity": 64,
                "duration": 0.1181818,
                "tempo": 120.0
            },
            {
                "start_time": 142.6068182,
                "end_time": 142.725,
                "pitch": 77,
                "velocity": 64,
                "duration": 0.1181818,
                "tempo": 120.0
            },
            {
                "start_time": 142.7409091,
                "end_time": 142.8590909,
                "pitch": 75,
                "velocity": 64,
                "duration": 0.1181818,
                "tempo": 120.0
            },
            {
                "start_time": 142.875,
                "end_time": 144.4681818,
                "pitch": 70,
                "velocity": 64,
                "duration": 1.5931818,
                "tempo": 120.0
            },
            {
                "start_time": 144.4840909,
                "end_time": 144.8704545,
                "pitch": 77,
                "velocity": 64,
                "duration": 0.3863636,
                "tempo": 120.0
            },
            {
                "start_time": 144.8863636,
                "end_time": 145.2727273,
                "pitch": 75,
                "velocity": 64,
                "duration": 0.3863636,
                "tempo": 120.0
            },
            {
                "start_time": 145.2886364,
                "end_time": 145.675,
                "pitch": 73,
                "velocity": 64,
                "duration": 0.3863636,
                "tempo": 120.0
            },
            {
                "start_time": 145.6909091,
                "end_time": 146.075,
                "pitch": 72,
                "velocity": 64,
                "duration": 0.3840909,
                "tempo": 120.0
            },
            {
                "start_time": 146.0909091,
                "end_time": 146.2090909,
                "pitch": 69,
                "velocity": 64,
                "duration": 0.1181818,
                "tempo": 120.0
            },
            {
                "start_time": 146.225,
                "end_time": 146.3431818,
                "pitch": 72,
                "velocity": 64,
                "duration": 0.1181818,
                "tempo": 120.0
            },
            {
                "start_time": 146.3613636,
                "end_time": 146.4772727,
                "pitch": 75,
                "velocity": 64,
                "duration": 0.1159091,
                "tempo": 120.0
            },
            {
                "start_time": 146.4954545,
                "end_time": 146.6113636,
                "pitch": 78,
                "velocity": 64,
                "duration": 0.1159091,
                "tempo": 120.0
            },
            {
                "start_time": 146.6295455,
                "end_time": 146.7454545,
                "pitch": 75,
                "velocity": 64,
                "duration": 0.1159091,
                "tempo": 120.0
            },
            {
                "start_time": 146.7636364,
                "end_time": 146.8795455,
                "pitch": 78,
                "velocity": 64,
                "duration": 0.1159091,
                "tempo": 120.0
            },
            {
                "start_time": 146.8977273,
                "end_time": 147.6931818,
                "pitch": 82,
                "velocity": 64,
                "duration": 0.7954545,
                "tempo": 120.0
            }
        ],
        "Electric Guitar (clean)": [
            {
                "start_time": 0.0159091,
                "end_time": 0.2522727,
                "pitch": 44,
                "velocity": 51,
                "duration": 0.2363636,
                "tempo": 120.0
            },
            {
                "start_time": 0.2681818,
                "end_time": 0.3863636,
                "pitch": 44,
                "velocity": 51,
                "duration": 0.1181818,
                "tempo": 120.0
            },
            {
                "start_time": 0.4022727,
                "end_time": 0.5136364,
                "pitch": 44,
                "velocity": 51,
                "duration": 0.1113636,
                "tempo": 120.0
            },
            {
                "start_time": 0.5295455,
                "end_time": 0.6409091,
                "pitch": 44,
                "velocity": 51,
                "duration": 0.1113636,
                "tempo": 120.0
            },
            {
                "start_time": 0.6568182,
                "end_time": 0.7681818,
                "pitch": 44,
                "velocity": 51,
                "duration": 0.1113636,
                "tempo": 120.0
            },
            {
                "start_time": 0.7840909,
                "end_time": 1.0340909,
                "pitch": 44,
                "velocity": 51,
                "duration": 0.25,
                "tempo": 120.0
            },
            {
                "start_time": 1.0522727,
                "end_time": 1.1681818,
                "pitch": 44,
                "velocity": 51,
                "duration": 0.1159091,
                "tempo": 120.0
            },
            {
                "start_time": 1.1840909,
                "end_time": 1.3022727,
                "pitch": 44,
                "velocity": 51,
                "duration": 0.1181818,
                "tempo": 120.0
            },
            {
                "start_time": 1.3181818,
                "end_time": 1.4340909,
                "pitch": 44,
                "velocity": 51,
                "duration": 0.1159091,
                "tempo": 120.0
            },
            {
                "start_time": 1.4522727,
                "end_time": 1.5681818,
                "pitch": 44,
                "velocity": 51,
                "duration": 0.1159091,
                "tempo": 120.0
            },
            {
                "start_time": 1.5840909,
                "end_time": 1.8363636,
                "pitch": 44,
                "velocity": 51,
                "duration": 0.2522727,
                "tempo": 120.0
            },
            {
                "start_time": 1.8522727,
                "end_time": 1.9704545,
                "pitch": 44,
                "velocity": 51,
                "duration": 0.1181818,
                "tempo": 120.0
            },
            {
                "start_time": 1.9863636,
                "end_time": 2.1045455,
                "pitch": 44,
                "velocity": 51,
                "duration": 0.1181818,
                "tempo": 120.0
            },
            {
                "start_time": 2.1204545,
                "end_time": 2.2363636,
                "pitch": 44,
                "velocity": 51,
                "duration": 0.1159091,
                "tempo": 120.0
            },
            {
                "start_time": 2.2545455,
                "end_time": 2.3704545,
                "pitch": 44,
                "velocity": 51,
                "duration": 0.1159091,
                "tempo": 120.0
            },
            {
                "start_time": 2.3863636,
                "end_time": 2.6363636,
                "pitch": 44,
                "velocity": 51,
                "duration": 0.25,
                "tempo": 120.0
            },
            {
                "start_time": 2.6545455,
                "end_time": 2.7704545,
                "pitch": 44,
                "velocity": 51,
                "duration": 0.1159091,
                "tempo": 120.0
            },
            {
                "start_time": 2.7863636,
                "end_time": 2.9045455,
                "pitch": 44,
                "velocity": 51,
                "duration": 0.1181818,
                "tempo": 120.0
            },
            {
                "start_time": 2.9204545,
                "end_time": 3.0363636,
                "pitch": 44,
                "velocity": 51,
                "duration": 0.1159091,
                "tempo": 120.0
            },
            {
                "start_time": 3.0545455,
                "end_time": 3.1704545,
                "pitch": 44,
                "velocity": 51,
                "duration": 0.1159091,
                "tempo": 120.0
            },
            {
                "start_time": 3.1863636,
                "end_time": 3.3045455,
                "pitch": 41,
                "velocity": 51,
                "duration": 0.1181818,
                "tempo": 120.0
            },
            {
                "start_time": 3.3227273,
                "end_time": 3.4386364,
                "pitch": 41,
                "velocity": 51,
                "duration": 0.1159091,
                "tempo": 120.0
            },
            {
                "start_time": 3.4568182,
                "end_time": 3.5727273,
                "pitch": 41,
                "velocity": 51,
                "duration": 0.1159091,
                "tempo": 120.0
            },
            {
                "start_time": 3.5909091,
                "end_time": 3.7068182,
                "pitch": 42,
                "velocity": 51,
                "duration": 0.1159091,
                "tempo": 120.0
            },
            {
                "start_time": 3.7227273,
                "end_time": 3.8409091,
                "pitch": 41,
                "velocity": 51,
                "duration": 0.1181818,
                "tempo": 120.0
            },
            {
                "start_time": 3.8568182,
                "end_time": 3.9727273,
                "pitch": 41,
                "velocity": 51,
                "duration": 0.1159091,
                "tempo": 120.0
            },
            {
                "start_time": 3.9909091,
                "end_time": 4.1068182,
                "pitch": 44,
                "velocity": 51,
                "duration": 0.1159091,
                "tempo": 120.0
            },
            {
                "start_time": 4.1227273,
                "end_time": 4.2409091,
                "pitch": 42,
                "velocity": 51,
                "duration": 0.1181818,
                "tempo": 120.0
            },
            {
                "start_time": 4.2568182,
                "end_time": 4.3727273,
                "pitch": 41,
                "velocity": 51,
                "duration": 0.1159091,
                "tempo": 120.0
            },
            {
                "start_time": 4.3909091,
                "end_time": 4.5068182,
                "pitch": 46,
                "velocity": 51,
                "duration": 0.1159091,
                "tempo": 120.0
            },
            {
                "start_time": 4.525,
                "end_time": 4.6409091,
                "pitch": 44,
                "velocity": 51,
                "duration": 0.1159091,
                "tempo": 120.0
            },
            {
                "start_time": 4.6590909,
                "end_time": 4.775,
                "pitch": 42,
                "velocity": 51,
                "duration": 0.1159091,
                "tempo": 120.0
            },
            {
                "start_time": 4.7931818,
                "end_time": 4.9090909,
                "pitch": 41,
                "velocity": 51,
                "duration": 0.1159091,
                "tempo": 120.0
            },
            {
                "start_time": 4.925,
                "end_time": 5.0431818,
                "pitch": 41,
                "velocity": 51,
                "duration": 0.1181818,
                "tempo": 120.0
            },
            {
                "start_time": 5.0590909,
                "end_time": 5.175,
                "pitch": 41,
                "velocity": 51,
                "duration": 0.1159091,
                "tempo": 120.0
            },
            {
                "start_time": 5.1931818,
                "end_time": 5.3090909,
                "pitch": 42,
                "velocity": 51,
                "duration": 0.1159091,
                "tempo": 120.0
            },
            {
                "start_time": 5.3272727,
                "end_time": 5.4454545,
                "pitch": 41,
                "velocity": 51,
                "duration": 0.1181818,
                "tempo": 120.0
            },
            {
                "start_time": 5.4613636,
                "end_time": 5.5795455,
                "pitch": 41,
                "velocity": 51,
                "duration": 0.1181818,
                "tempo": 120.0
            },
            {
                "start_time": 5.5954545,
                "end_time": 5.7113636,
                "pitch": 44,
                "velocity": 51,
                "duration": 0.1159091,
                "tempo": 120.0
            },
            {
                "start_time": 5.7295455,
                "end_time": 5.8454545,
                "pitch": 42,
                "velocity": 51,
                "duration": 0.1159091,
                "tempo": 120.0
            },
            {
                "start_time": 5.8613636,
                "end_time": 5.9795455,
                "pitch": 41,
                "velocity": 51,
                "duration": 0.1181818,
                "tempo": 120.0
            },
            {
                "start_time": 5.9954545,
                "end_time": 6.1136364,
                "pitch": 49,
                "velocity": 51,
                "duration": 0.1181818,
                "tempo": 120.0
            },
            {
                "start_time": 6.1295455,
                "end_time": 6.2477273,
                "pitch": 48,
                "velocity": 51,
                "duration": 0.1181818,
                "tempo": 120.0
            },
            {
                "start_time": 6.2636364,
                "end_time": 6.3818182,
                "pitch": 42,
                "velocity": 51,
                "duration": 0.1181818,
                "tempo": 120.0
            },
            {
                "start_time": 6.3977273,
                "end_time": 6.5159091,
                "pitch": 41,
                "velocity": 51,
                "duration": 0.1181818,
                "tempo": 120.0
            },
            {
                "start_time": 6.5318182,
                "end_time": 6.65,
                "pitch": 41,
                "velocity": 51,
                "duration": 0.1181818,
                "tempo": 120.0
            },
            {
                "start_time": 6.6659091,
                "end_time": 6.7840909,
                "pitch": 41,
                "velocity": 51,
                "duration": 0.1181818,
                "tempo": 120.0
            },
            {
                "start_time": 6.8,
                "end_time": 6.9181818,
                "pitch": 42,
                "velocity": 51,
                "duration": 0.1181818,
                "tempo": 120.0
            },
            {
                "start_time": 6.9340909,
                "end_time": 7.05,
                "pitch": 41,
                "velocity": 51,
                "duration": 0.1159091,
                "tempo": 120.0
            },
            {
                "start_time": 7.0681818,
                "end_time": 7.1840909,
                "pitch": 41,
                "velocity": 51,
                "duration": 0.1159091,
                "tempo": 120.0
            },
            {
                "start_time": 7.2,
                "end_time": 7.3181818,
                "pitch": 44,
                "velocity": 51,
                "duration": 0.1181818,
                "tempo": 120.0
            },
            {
                "start_time": 7.3340909,
                "end_time": 7.4522727,
                "pitch": 42,
                "velocity": 51,
                "duration": 0.1181818,
                "tempo": 120.0
            },
            {
                "start_time": 7.4681818,
                "end_time": 7.5863636,
                "pitch": 41,
                "velocity": 51,
                "duration": 0.1181818,
                "tempo": 120.0
            },
            {
                "start_time": 7.6045455,
                "end_time": 7.7204545,
                "pitch": 46,
                "velocity": 51,
                "duration": 0.1159091,
                "tempo": 120.0
            },
            {
                "start_time": 7.7363636,
                "end_time": 7.8545455,
                "pitch": 44,
                "velocity": 51,
                "duration": 0.1181818,
                "tempo": 120.0
            },
            {
                "start_time": 7.8704545,
                "end_time": 7.9863636,
                "pitch": 42,
                "velocity": 51,
                "duration": 0.1159091,
                "tempo": 120.0
            },
            {
                "start_time": 8.0045455,
                "end_time": 8.1204545,
                "pitch": 41,
                "velocity": 51,
                "duration": 0.1159091,
                "tempo": 120.0
            },
            {
                "start_time": 8.1386364,
                "end_time": 8.2545455,
                "pitch": 42,
                "velocity": 51,
                "duration": 0.1159091,
                "tempo": 120.0
            },
            {
                "start_time": 8.2727273,
                "end_time": 8.3886364,
                "pitch": 44,
                "velocity": 51,
                "duration": 0.1159091,
                "tempo": 120.0
            },
            {
                "start_time": 8.4068182,
                "end_time": 8.5227273,
                "pitch": 46,
                "velocity": 51,
                "duration": 0.1159091,
                "tempo": 120.0
            },
            {
                "start_time": 8.5409091,
                "end_time": 8.6568182,
                "pitch": 48,
                "velocity": 51,
                "duration": 0.1159091,
                "tempo": 120.0
            },
            {
                "start_time": 8.675,
                "end_time": 8.7931818,
                "pitch": 49,
                "velocity": 51,
                "duration": 0.1181818,
                "tempo": 120.0
            },
            {
                "start_time": 8.8090909,
                "end_time": 9.0613636,
                "pitch": 51,
                "velocity": 51,
                "duration": 0.2522727,
                "tempo": 120.0
            },
            {
                "start_time": 9.0772727,
                "end_time": 9.3272727,
                "pitch": 53,
                "velocity": 51,
                "duration": 0.25,
                "tempo": 120.0
            },
            {
                "start_time": 9.3454545,
                "end_time": 9.5954545,
                "pitch": 54,
                "velocity": 51,
                "duration": 0.25,
                "tempo": 120.0
            },
            {
                "start_time": 9.6113636,
                "end_time": 9.7295455,
                "pitch": 41,
                "velocity": 51,
                "duration": 0.1181818,
                "tempo": 120.0
            },
            {
                "start_time": 9.7454545,
                "end_time": 9.8636364,
                "pitch": 41,
                "velocity": 51,
                "duration": 0.1181818,
                "tempo": 120.0
            },
            {
                "start_time": 9.8795455,
                "end_time": 9.9977273,
                "pitch": 41,
                "velocity": 51,
                "duration": 0.1181818,
                "tempo": 120.0
            },
            {
                "start_time": 10.0136364,
                "end_time": 10.1318182,
                "pitch": 42,
                "velocity": 51,
                "duration": 0.1181818,
                "tempo": 120.0
            },
            {
                "start_time": 10.1477273,
                "end_time": 10.2659091,
                "pitch": 41,
                "velocity": 51,
                "duration": 0.1181818,
                "tempo": 120.0
            },
            {
                "start_time": 10.2818182,
                "end_time": 10.4,
                "pitch": 41,
                "velocity": 51,
                "duration": 0.1181818,
                "tempo": 120.0
            },
            {
                "start_time": 10.4159091,
                "end_time": 10.5340909,
                "pitch": 44,
                "velocity": 51,
                "duration": 0.1181818,
                "tempo": 120.0
            },
            {
                "start_time": 10.5522727,
                "end_time": 10.6681818,
                "pitch": 42,
                "velocity": 51,
                "duration": 0.1159091,
                "tempo": 120.0
            },
            {
                "start_time": 10.6863636,
                "end_time": 10.8022727,
                "pitch": 41,
                "velocity": 51,
                "duration": 0.1159091,
                "tempo": 120.0
            },
            {
                "start_time": 10.8204545,
                "end_time": 10.9363636,
                "pitch": 46,
                "velocity": 51,
                "duration": 0.1159091,
                "tempo": 120.0
            },
            {
                "start_time": 10.9545455,
                "end_time": 11.0704545,
                "pitch": 44,
                "velocity": 51,
                "duration": 0.1159091,
                "tempo": 120.0
            },
            {
                "start_time": 11.0886364,
                "end_time": 11.2045455,
                "pitch": 42,
                "velocity": 51,
                "duration": 0.1159091,
                "tempo": 120.0
            },
            {
                "start_time": 11.2227273,
                "end_time": 11.3386364,
                "pitch": 41,
                "velocity": 51,
                "duration": 0.1159091,
                "tempo": 120.0
            },
            {
                "start_time": 11.3545455,
                "end_time": 11.4727273,
                "pitch": 41,
                "velocity": 51,
                "duration": 0.1181818,
                "tempo": 120.0
            },
            {
                "start_time": 11.4886364,
                "end_time": 11.6045455,
                "pitch": 41,
                "velocity": 51,
                "duration": 0.1159091,
                "tempo": 120.0
            },
            {
                "start_time": 11.6227273,
                "end_time": 11.7386364,
                "pitch": 42,
                "velocity": 51,
                "duration": 0.1159091,
                "tempo": 120.0
            },
            {
                "start_time": 11.7568182,
                "end_time": 11.875,
                "pitch": 41,
                "velocity": 51,
                "duration": 0.1181818,
                "tempo": 120.0
            },
            {
                "start_time": 11.8909091,
                "end_time": 12.0090909,
                "pitch": 41,
                "velocity": 51,
                "duration": 0.1181818,
                "tempo": 120.0
            },
            {
                "start_time": 12.025,
                "end_time": 12.1431818,
                "pitch": 44,
                "velocity": 51,
                "duration": 0.1181818,
                "tempo": 120.0
            },
            {
                "start_time": 12.1590909,
                "end_time": 12.2772727,
                "pitch": 42,
                "velocity": 51,
                "duration": 0.1181818,
                "tempo": 120.0
            },
            {
                "start_time": 12.2931818,
                "end_time": 12.4113636,
                "pitch": 41,
                "velocity": 51,
                "duration": 0.1181818,
                "tempo": 120.0
            },
            {
                "start_time": 12.4272727,
                "end_time": 12.5454545,
                "pitch": 49,
                "velocity": 51,
                "duration": 0.1181818,
                "tempo": 120.0
            },
            {
                "start_time": 12.5613636,
                "end_time": 12.6795455,
                "pitch": 48,
                "velocity": 51,
                "duration": 0.1181818,
                "tempo": 120.0
            },
            {
                "start_time": 12.6954545,
                "end_time": 12.8136364,
                "pitch": 46,
                "velocity": 51,
                "duration": 0.1181818,
                "tempo": 120.0
            },
            {
                "start_time": 12.8295455,
                "end_time": 12.9477273,
                "pitch": 41,
                "velocity": 51,
                "duration": 0.1181818,
                "tempo": 120.0
            },
            {
                "start_time": 12.9636364,
                "end_time": 13.0818182,
                "pitch": 41,
                "velocity": 51,
                "duration": 0.1181818,
                "tempo": 120.0
            },
            {
                "start_time": 13.0977273,
                "end_time": 13.2159091,
                "pitch": 41,
                "velocity": 51,
                "duration": 0.1181818,
                "tempo": 120.0
            },
            {
                "start_time": 13.2340909,
                "end_time": 13.35,
                "pitch": 42,
                "velocity": 51,
                "duration": 0.1159091,
                "tempo": 120.0
            },
            {
                "start_time": 13.3659091,
                "end_time": 13.4840909,
                "pitch": 41,
                "velocity": 51,
                "duration": 0.1181818,
                "tempo": 120.0
            },
            {
                "start_time": 13.5,
                "end_time": 13.6159091,
                "pitch": 41,
                "velocity": 51,
                "duration": 0.1159091,
                "tempo": 120.0
            },
            {
                "start_time": 13.6340909,
                "end_time": 13.75,
                "pitch": 44,
                "velocity": 51,
                "duration": 0.1159091,
                "tempo": 120.0
            },
            {
                "start_time": 13.7681818,
                "end_time": 13.8840909,
                "pitch": 42,
                "velocity": 51,
                "duration": 0.1159091,
                "tempo": 120.0
            },
            {
                "start_time": 13.9022727,
                "end_time": 14.0181818,
                "pitch": 41,
                "velocity": 51,
                "duration": 0.1159091,
                "tempo": 120.0
            },
            {
                "start_time": 14.0363636,
                "end_time": 14.1522727,
                "pitch": 46,
                "velocity": 51,
                "duration": 0.1159091,
                "tempo": 120.0
            },
            {
                "start_time": 14.1704545,
                "end_time": 14.2863636,
                "pitch": 44,
                "velocity": 51,
                "duration": 0.1159091,
                "tempo": 120.0
            },
            {
                "start_time": 14.3045455,
                "end_time": 14.4227273,
                "pitch": 42,
                "velocity": 51,
                "duration": 0.1181818,
                "tempo": 120.0
            },
            {
                "start_time": 14.4386364,
                "end_time": 14.6909091,
                "pitch": 41,
                "velocity": 51,
                "duration": 0.2522727,
                "tempo": 120.0
            },
            {
                "start_time": 14.7068182,
                "end_time": 14.825,
                "pitch": 41,
                "velocity": 51,
                "duration": 0.1181818,
                "tempo": 120.0
            },
            {
                "start_time": 14.8409091,
                "end_time": 14.9590909,
                "pitch": 41,
                "velocity": 51,
                "duration": 0.1181818,
                "tempo": 120.0
            },
            {
                "start_time": 14.975,
                "end_time": 15.0931818,
                "pitch": 41,
                "velocity": 51,
                "duration": 0.1181818,
                "tempo": 120.0
            },
            {
                "start_time": 15.1090909,
                "end_time": 15.2272727,
                "pitch": 41,
                "velocity": 51,
                "duration": 0.1181818,
                "tempo": 120.0
            },
            {
                "start_time": 15.2431818,
                "end_time": 15.4931818,
                "pitch": 41,
                "velocity": 51,
                "duration": 0.25,
                "tempo": 120.0
            },
            {
                "start_time": 15.5113636,
                "end_time": 15.6272727,
                "pitch": 41,
                "velocity": 51,
                "duration": 0.1159091,
                "tempo": 120.0
            },
            {
                "start_time": 15.6431818,
                "end_time": 15.7613636,
                "pitch": 41,
                "velocity": 51,
                "duration": 0.1181818,
                "tempo": 120.0
            },
            {
                "start_time": 15.7772727,
                "end_time": 15.8954545,
                "pitch": 41,
                "velocity": 51,
                "duration": 0.1181818,
                "tempo": 120.0
            },
            {
                "start_time": 15.9113636,
                "end_time": 16.0295455,
                "pitch": 41,
                "velocity": 51,
                "duration": 0.1181818,
                "tempo": 120.0
            },
            {
                "start_time": 16.0454545,
                "end_time": 16.2977273,
                "pitch": 36,
                "velocity": 51,
                "duration": 0.2522727,
                "tempo": 120.0
            },
            {
                "start_time": 16.3159091,
                "end_time": 16.4318182,
                "pitch": 36,
                "velocity": 51,
                "duration": 0.1159091,
                "tempo": 120.0
            },
            {
                "start_time": 16.45,
                "end_time": 16.5659091,
                "pitch": 36,
                "velocity": 51,
                "duration": 0.1159091,
                "tempo": 120.0
            },
            {
                "start_time": 16.5818182,
                "end_time": 16.7,
                "pitch": 36,
                "velocity": 51,
                "duration": 0.1181818,
                "tempo": 120.0
            },
            {
                "start_time": 16.7159091,
                "end_time": 16.8318182,
                "pitch": 36,
                "velocity": 51,
                "duration": 0.1159091,
                "tempo": 120.0
            },
            {
                "start_time": 16.85,
                "end_time": 17.1,
                "pitch": 36,
                "velocity": 51,
                "duration": 0.25,
                "tempo": 120.0
            },
            {
                "start_time": 17.1181818,
                "end_time": 17.2340909,
                "pitch": 36,
                "velocity": 51,
                "duration": 0.1159091,
                "tempo": 120.0
            },
            {
                "start_time": 17.2522727,
                "end_time": 17.3681818,
                "pitch": 36,
                "velocity": 51,
                "duration": 0.1159091,
                "tempo": 120.0
            },
            {
                "start_time": 17.3840909,
                "end_time": 17.5022727,
                "pitch": 36,
                "velocity": 51,
                "duration": 0.1181818,
                "tempo": 120.0
            },
            {
                "start_time": 17.5181818,
                "end_time": 17.6340909,
                "pitch": 36,
                "velocity": 51,
                "duration": 0.1159091,
                "tempo": 120.0
            },
            {
                "start_time": 17.6522727,
                "end_time": 17.9045455,
                "pitch": 41,
                "velocity": 51,
                "duration": 0.2522727,
                "tempo": 120.0
            },
            {
                "start_time": 17.9204545,
                "end_time": 18.0386364,
                "pitch": 41,
                "velocity": 51,
                "duration": 0.1181818,
                "tempo": 120.0
            },
            {
                "start_time": 18.0545455,
                "end_time": 18.1704545,
                "pitch": 41,
                "velocity": 51,
                "duration": 0.1159091,
                "tempo": 120.0
            },
            {
                "start_time": 18.1886364,
                "end_time": 18.3045455,
                "pitch": 41,
                "velocity": 51,
                "duration": 0.1159091,
                "tempo": 120.0
            },
            {
                "start_time": 18.3204545,
                "end_time": 18.4386364,
                "pitch": 41,
                "velocity": 51,
                "duration": 0.1181818,
                "tempo": 120.0
            },
            {
                "start_time": 18.4545455,
                "end_time": 18.7045455,
                "pitch": 41,
                "velocity": 51,
                "duration": 0.25,
                "tempo": 120.0
            },
            {
                "start_time": 18.7204545,
                "end_time": 18.8386364,
                "pitch": 41,
                "velocity": 51,
                "duration": 0.1181818,
                "tempo": 120.0
            },
            {
                "start_time": 18.8545455,
                "end_time": 18.9727273,
                "pitch": 41,
                "velocity": 51,
                "duration": 0.1181818,
                "tempo": 120.0
            },
            {
                "start_time": 18.9886364,
                "end_time": 19.1068182,
                "pitch": 41,
                "velocity": 51,
                "duration": 0.1181818,
                "tempo": 120.0
            },
            {
                "start_time": 19.1227273,
                "end_time": 19.2409091,
                "pitch": 41,
                "velocity": 51,
                "duration": 0.1181818,
                "tempo": 120.0
            },
            {
                "start_time": 19.2568182,
                "end_time": 19.5068182,
                "pitch": 42,
                "velocity": 51,
                "duration": 0.25,
                "tempo": 120.0
            },
            {
                "start_time": 19.525,
                "end_time": 19.6409091,
                "pitch": 42,
                "velocity": 51,
                "duration": 0.1159091,
                "tempo": 120.0
            },
            {
                "start_time": 19.6568182,
                "end_time": 19.775,
                "pitch": 42,
                "velocity": 51,
                "duration": 0.1181818,
                "tempo": 120.0
            },
            {
                "start_time": 19.7909091,
                "end_time": 19.9090909,
                "pitch": 42,
                "velocity": 51,
                "duration": 0.1181818,
                "tempo": 120.0
            },
            {
                "start_time": 19.925,
                "end_time": 20.0431818,
                "pitch": 42,
                "velocity": 51,
                "duration": 0.1181818,
                "tempo": 120.0
            },
            {
                "start_time": 20.0590909,
                "end_time": 20.3090909,
                "pitch": 42,
                "velocity": 51,
                "duration": 0.25,
                "tempo": 120.0
            },
            {
                "start_time": 20.3272727,
                "end_time": 20.4431818,
                "pitch": 42,
                "velocity": 51,
                "duration": 0.1159091,
                "tempo": 120.0
            },
            {
                "start_time": 20.4590909,
                "end_time": 20.5772727,
                "pitch": 42,
                "velocity": 51,
                "duration": 0.1181818,
                "tempo": 120.0
            },
            {
                "start_time": 20.5931818,
                "end_time": 20.7090909,
                "pitch": 42,
                "velocity": 51,
                "duration": 0.1159091,
                "tempo": 120.0
            },
            {
                "start_time": 20.7272727,
                "end_time": 20.8431818,
                "pitch": 42,
                "velocity": 51,
                "duration": 0.1159091,
                "tempo": 120.0
            },
            {
                "start_time": 20.8590909,
                "end_time": 21.1113636,
                "pitch": 39,
                "velocity": 51,
                "duration": 0.2522727,
                "tempo": 120.0
            },
            {
                "start_time": 21.1272727,
                "end_time": 21.2454545,
                "pitch": 39,
                "velocity": 51,
                "duration": 0.1181818,
                "tempo": 120.0
            },
            {
                "start_time": 21.2636364,
                "end_time": 21.3795455,
                "pitch": 39,
                "velocity": 51,
                "duration": 0.1159091,
                "tempo": 120.0
            },
            {
                "start_time": 21.3954545,
                "end_time": 21.5136364,
                "pitch": 39,
                "velocity": 51,
                "duration": 0.1181818,
                "tempo": 120.0
            },
            {
                "start_time": 21.5295455,
                "end_time": 21.6454545,
                "pitch": 39,
                "velocity": 51,
                "duration": 0.1159091,
                "tempo": 120.0
            },
            {
                "start_time": 21.6636364,
                "end_time": 21.7795455,
                "pitch": 39,
                "velocity": 51,
                "duration": 0.1159091,
                "tempo": 120.0
            },
            {
                "start_time": 21.7977273,
                "end_time": 21.9136364,
                "pitch": 46,
                "velocity": 51,
                "duration": 0.1159091,
                "tempo": 120.0
            },
            {
                "start_time": 21.9318182,
                "end_time": 22.0477273,
                "pitch": 49,
                "velocity": 51,
                "duration": 0.1159091,
                "tempo": 120.0
            },
            {
                "start_time": 22.0659091,
                "end_time": 22.1795455,
                "pitch": 53,
                "velocity": 51,
                "duration": 0.1136364,
                "tempo": 120.0
            },
            {
                "start_time": 22.1954545,
                "end_time": 22.3090909,
                "pitch": 51,
                "velocity": 51,
                "duration": 0.1136364,
                "tempo": 120.0
            },
            {
                "start_time": 22.3272727,
                "end_time": 22.4409091,
                "pitch": 49,
                "velocity": 51,
                "duration": 0.1136364,
                "tempo": 120.0
            },
            {
                "start_time": 22.4568182,
                "end_time": 22.7136364,
                "pitch": 37,
                "velocity": 51,
                "duration": 0.2568182,
                "tempo": 120.0
            },
            {
                "start_time": 22.7318182,
                "end_time": 22.85,
                "pitch": 37,
                "velocity": 51,
                "duration": 0.1181818,
                "tempo": 120.0
            },
            {
                "start_time": 22.8681818,
                "end_time": 22.9863636,
                "pitch": 37,
                "velocity": 51,
                "duration": 0.1181818,
                "tempo": 120.0
            },
            {
                "start_time": 23.0022727,
                "end_time": 23.1204545,
                "pitch": 37,
                "velocity": 51,
                "duration": 0.1181818,
                "tempo": 120.0
            },
            {
                "start_time": 23.1363636,
                "end_time": 23.2545455,
                "pitch": 37,
                "velocity": 51,
                "duration": 0.1181818,
                "tempo": 120.0
            },
            {
                "start_time": 23.2704545,
                "end_time": 23.5204545,
                "pitch": 37,
                "velocity": 51,
                "duration": 0.25,
                "tempo": 120.0
            },
            {
                "start_time": 23.5363636,
                "end_time": 23.6545455,
                "pitch": 37,
                "velocity": 51,
                "duration": 0.1181818,
                "tempo": 120.0
            },
            {
                "start_time": 23.6704545,
                "end_time": 23.7886364,
                "pitch": 37,
                "velocity": 51,
                "duration": 0.1181818,
                "tempo": 120.0
            },
            {
                "start_time": 23.8045455,
                "end_time": 23.9227273,
                "pitch": 37,
                "velocity": 51,
                "duration": 0.1181818,
                "tempo": 120.0
            },
            {
                "start_time": 23.9386364,
                "end_time": 24.0568182,
                "pitch": 37,
                "velocity": 51,
                "duration": 0.1181818,
                "tempo": 120.0
            },
            {
                "start_time": 24.0727273,
                "end_time": 24.4568182,
                "pitch": 39,
                "velocity": 51,
                "duration": 0.3840909,
                "tempo": 120.0
            },
            {
                "start_time": 24.4727273,
                "end_time": 24.8568182,
                "pitch": 41,
                "velocity": 51,
                "duration": 0.3840909,
                "tempo": 120.0
            },
            {
                "start_time": 24.8727273,
                "end_time": 25.2590909,
                "pitch": 42,
                "velocity": 51,
                "duration": 0.3863636,
                "tempo": 120.0
            },
            {
                "start_time": 25.2772727,
                "end_time": 25.6590909,
                "pitch": 41,
                "velocity": 51,
                "duration": 0.3818182,
                "tempo": 120.0
            },
            {
                "start_time": 25.6772727,
                "end_time": 25.9272727,
                "pitch": 42,
                "velocity": 51,
                "duration": 0.25,
                "tempo": 120.0
            },
            {
                "start_time": 25.9454545,
                "end_time": 26.0613636,
                "pitch": 42,
                "velocity": 51,
                "duration": 0.1159091,
                "tempo": 120.0
            },
            {
                "start_time": 26.0795455,
                "end_time": 26.1954545,
                "pitch": 42,
                "velocity": 51,
                "duration": 0.1159091,
                "tempo": 120.0
            },
            {
                "start_time": 26.2113636,
                "end_time": 26.3295455,
                "pitch": 42,
                "velocity": 51,
                "duration": 0.1181818,
                "tempo": 120.0
            },
            {
                "start_time": 26.3454545,
                "end_time": 26.4613636,
                "pitch": 42,
                "velocity": 51,
                "duration": 0.1159091,
                "tempo": 120.0
            },
            {
                "start_time": 26.4795455,
                "end_time": 26.7295455,
                "pitch": 42,
                "velocity": 51,
                "duration": 0.25,
                "tempo": 120.0
            },
            {
                "start_time": 26.7454545,
                "end_time": 26.8613636,
                "pitch": 42,
                "velocity": 51,
                "duration": 0.1159091,
                "tempo": 120.0
            },
            {
                "start_time": 26.8795455,
                "end_time": 26.9954545,
                "pitch": 42,
                "velocity": 51,
                "duration": 0.1159091,
                "tempo": 120.0
            },
            {
                "start_time": 27.0136364,
                "end_time": 27.1295455,
                "pitch": 42,
                "velocity": 51,
                "duration": 0.1159091,
                "tempo": 120.0
            },
            {
                "start_time": 27.1477273,
                "end_time": 27.2636364,
                "pitch": 42,
                "velocity": 51,
                "duration": 0.1159091,
                "tempo": 120.0
            },
            {
                "start_time": 27.2818182,
                "end_time": 27.5318182,
                "pitch": 39,
                "velocity": 51,
                "duration": 0.25,
                "tempo": 120.0
            },
            {
                "start_time": 27.5477273,
                "end_time": 27.6659091,
                "pitch": 39,
                "velocity": 51,
                "duration": 0.1181818,
                "tempo": 120.0
            },
            {
                "start_time": 27.6818182,
                "end_time": 27.8,
                "pitch": 39,
                "velocity": 51,
                "duration": 0.1181818,
                "tempo": 120.0
            },
            {
                "start_time": 27.8159091,
                "end_time": 27.9340909,
                "pitch": 39,
                "velocity": 51,
                "duration": 0.1181818,
                "tempo": 120.0
            },
            {
                "start_time": 27.95,
                "end_time": 28.0681818,
                "pitch": 39,
                "velocity": 51,
                "duration": 0.1181818,
                "tempo": 120.0
            },
            {
                "start_time": 28.0840909,
                "end_time": 28.2,
                "pitch": 39,
                "velocity": 51,
                "duration": 0.1159091,
                "tempo": 120.0
            },
            {
                "start_time": 28.2181818,
                "end_time": 28.3340909,
                "pitch": 46,
                "velocity": 51,
                "duration": 0.1159091,
                "tempo": 120.0
            },
            {
                "start_time": 28.35,
                "end_time": 28.4681818,
                "pitch": 49,
                "velocity": 51,
                "duration": 0.1181818,
                "tempo": 120.0
            },
            {
                "start_time": 28.4840909,
                "end_time": 28.6,
                "pitch": 53,
                "velocity": 51,
                "duration": 0.1159091,
                "tempo": 120.0
            },
            {
                "start_time": 28.6181818,
                "end_time": 28.7340909,
                "pitch": 51,
                "velocity": 51,
                "duration": 0.1159091,
                "tempo": 120.0
            },
            {
                "start_time": 28.75,
                "end_time": 28.8681818,
                "pitch": 49,
                "velocity": 51,
                "duration": 0.1181818,
                "tempo": 120.0
            },
            {
                "start_time": 28.8840909,
                "end_time": 29.1363636,
                "pitch": 37,
                "velocity": 51,
                "duration": 0.2522727,
                "tempo": 120.0
            },
            {
                "start_time": 29.1522727,
                "end_time": 29.2704545,
                "pitch": 37,
                "velocity": 51,
                "duration": 0.1181818,
                "tempo": 120.0
            },
            {
                "start_time": 29.2863636,
                "end_time": 29.4045455,
                "pitch": 37,
                "velocity": 51,
                "duration": 0.1181818,
                "tempo": 120.0
            },
            {
                "start_time": 29.4204545,
                "end_time": 29.5363636,
                "pitch": 37,
                "velocity": 51,
                "duration": 0.1159091,
                "tempo": 120.0
            },
            {
                "start_time": 29.5545455,
                "end_time": 29.6704545,
                "pitch": 37,
                "velocity": 51,
                "duration": 0.1159091,
                "tempo": 120.0
            },
            {
                "start_time": 29.6863636,
                "end_time": 29.9386364,
                "pitch": 37,
                "velocity": 51,
                "duration": 0.2522727,
                "tempo": 120.0
            },
            {
                "start_time": 29.9545455,
                "end_time": 30.0727273,
                "pitch": 37,
                "velocity": 51,
                "duration": 0.1181818,
                "tempo": 120.0
            },
            {
                "start_time": 30.0886364,
                "end_time": 30.2068182,
                "pitch": 37,
                "velocity": 51,
                "duration": 0.1181818,
                "tempo": 120.0
            },
            {
                "start_time": 30.2227273,
                "end_time": 30.3386364,
                "pitch": 37,
                "velocity": 51,
                "duration": 0.1159091,
                "tempo": 120.0
            },
            {
                "start_time": 30.3568182,
                "end_time": 30.4727273,
                "pitch": 37,
                "velocity": 51,
                "duration": 0.1159091,
                "tempo": 120.0
            },
            {
                "start_time": 30.4886364,
                "end_time": 30.7454545,
                "pitch": 36,
                "velocity": 51,
                "duration": 0.2568182,
                "tempo": 120.0
            },
            {
                "start_time": 30.7636364,
                "end_time": 30.8840909,
                "pitch": 36,
                "velocity": 51,
                "duration": 0.1204545,
                "tempo": 120.0
            },
            {
                "start_time": 30.9,
                "end_time": 31.0136364,
                "pitch": 36,
                "velocity": 51,
                "duration": 0.1136364,
                "tempo": 120.0
            },
            {
                "start_time": 31.0318182,
                "end_time": 31.1454545,
                "pitch": 36,
                "velocity": 51,
                "duration": 0.1136364,
                "tempo": 120.0
            },
            {
                "start_time": 31.1613636,
                "end_time": 31.275,
                "pitch": 36,
                "velocity": 51,
                "duration": 0.1136364,
                "tempo": 120.0
            },
            {
                "start_time": 31.2931818,
                "end_time": 31.5431818,
                "pitch": 34,
                "velocity": 51,
                "duration": 0.25,
                "tempo": 120.0
            },
            {
                "start_time": 31.5590909,
                "end_time": 31.8068182,
                "pitch": 41,
                "velocity": 51,
                "duration": 0.2477273,
                "tempo": 120.0
            },
            {
                "start_time": 31.8227273,
                "end_time": 32.0681818,
                "pitch": 34,
                "velocity": 51,
                "duration": 0.2454545,
                "tempo": 120.0
            },
            {
                "start_time": 32.0840909,
                "end_time": 32.3409091,
                "pitch": 34,
                "velocity": 51,
                "duration": 0.2568182,
                "tempo": 120.0
            },
            {
                "start_time": 32.3590909,
                "end_time": 32.4772727,
                "pitch": 34,
                "velocity": 51,
                "duration": 0.1181818,
                "tempo": 120.0
            },
            {
                "start_time": 32.4954545,
                "end_time": 32.6113636,
                "pitch": 34,
                "velocity": 51,
                "duration": 0.1159091,
                "tempo": 120.0
            },
            {
                "start_time": 32.6295455,
                "end_time": 32.7454545,
                "pitch": 34,
                "velocity": 51,
                "duration": 0.1159091,
                "tempo": 120.0
            },
            {
                "start_time": 32.7613636,
                "end_time": 32.8795455,
                "pitch": 34,
                "velocity": 51,
                "duration": 0.1181818,
                "tempo": 120.0
            },
            {
                "start_time": 32.8954545,
                "end_time": 33.1454545,
                "pitch": 46,
                "velocity": 51,
                "duration": 0.25,
                "tempo": 120.0
            },
            {
                "start_time": 33.1613636,
                "end_time": 33.2795455,
                "pitch": 44,
                "velocity": 51,
                "duration": 0.1181818,
                "tempo": 120.0
            },
            {
                "start_time": 33.2954545,
                "end_time": 33.5477273,
                "pitch": 44,
                "velocity": 51,
                "duration": 0.2522727,
                "tempo": 120.0
            },
            {
                "start_time": 33.5636364,
                "end_time": 33.6818182,
                "pitch": 46,
                "velocity": 51,
                "duration": 0.1181818,
                "tempo": 120.0
            },
            {
                "start_time": 33.6977273,
                "end_time": 33.9477273,
                "pitch": 34,
                "velocity": 51,
                "duration": 0.25,
                "tempo": 120.0
            },
            {
                "start_time": 33.9636364,
                "end_time": 34.0818182,
                "pitch": 34,
                "velocity": 51,
                "duration": 0.1181818,
                "tempo": 120.0
            },
            {
                "start_time": 34.0977273,
                "end_time": 34.2136364,
                "pitch": 34,
                "velocity": 51,
                "duration": 0.1159091,
                "tempo": 120.0
            },
            {
                "start_time": 34.2318182,
                "end_time": 34.3477273,
                "pitch": 34,
                "velocity": 51,
                "duration": 0.1159091,
                "tempo": 120.0
            },
            {
                "start_time": 34.3636364,
                "end_time": 34.4818182,
                "pitch": 34,
                "velocity": 51,
                "duration": 0.1181818,
                "tempo": 120.0
            },
            {
                "start_time": 34.4977273,
                "end_time": 34.7477273,
                "pitch": 42,
                "velocity": 51,
                "duration": 0.25,
                "tempo": 120.0
            },
            {
                "start_time": 34.7636364,
                "end_time": 34.8818182,
                "pitch": 44,
                "velocity": 51,
                "duration": 0.1181818,
                "tempo": 120.0
            },
            {
                "start_time": 34.8977273,
                "end_time": 35.0136364,
                "pitch": 44,
                "velocity": 51,
                "duration": 0.1159091,
                "tempo": 120.0
            },
            {
                "start_time": 35.0318182,
                "end_time": 35.1477273,
                "pitch": 34,
                "velocity": 51,
                "duration": 0.1159091,
                "tempo": 120.0
            },
            {
                "start_time": 35.1636364,
                "end_time": 35.2818182,
                "pitch": 34,
                "velocity": 51,
                "duration": 0.1181818,
                "tempo": 120.0
            },
            {
                "start_time": 35.2977273,
                "end_time": 35.55,
                "pitch": 34,
                "velocity": 51,
                "duration": 0.2522727,
                "tempo": 120.0
            },
            {
                "start_time": 35.5659091,
                "end_time": 35.6840909,
                "pitch": 34,
                "velocity": 51,
                "duration": 0.1181818,
                "tempo": 120.0
            },
            {
                "start_time": 35.7,
                "end_time": 35.8181818,
                "pitch": 34,
                "velocity": 51,
                "duration": 0.1181818,
                "tempo": 120.0
            },
            {
                "start_time": 35.8340909,
                "end_time": 35.95,
                "pitch": 34,
                "velocity": 51,
                "duration": 0.1159091,
                "tempo": 120.0
            },
            {
                "start_time": 35.9681818,
                "end_time": 36.0840909,
                "pitch": 34,
                "velocity": 51,
                "duration": 0.1159091,
                "tempo": 120.0
            },
            {
                "start_time": 36.1,
                "end_time": 36.35,
                "pitch": 46,
                "velocity": 51,
                "duration": 0.25,
                "tempo": 120.0
            },
            {
                "start_time": 36.3681818,
                "end_time": 36.4840909,
                "pitch": 44,
                "velocity": 51,
                "duration": 0.1159091,
                "tempo": 120.0
            },
            {
                "start_time": 36.5,
                "end_time": 36.75,
                "pitch": 44,
                "velocity": 51,
                "duration": 0.25,
                "tempo": 120.0
            },
            {
                "start_time": 36.7681818,
                "end_time": 36.8840909,
                "pitch": 46,
                "velocity": 51,
                "duration": 0.1159091,
                "tempo": 120.0
            },
            {
                "start_time": 36.9,
                "end_time": 37.15,
                "pitch": 34,
                "velocity": 51,
                "duration": 0.25,
                "tempo": 120.0
            },
            {
                "start_time": 37.1681818,
                "end_time": 37.2840909,
                "pitch": 34,
                "velocity": 51,
                "duration": 0.1159091,
                "tempo": 120.0
            },
            {
                "start_time": 37.3,
                "end_time": 37.4181818,
                "pitch": 34,
                "velocity": 51,
                "duration": 0.1181818,
                "tempo": 120.0
            },
            {
                "start_time": 37.4340909,
                "end_time": 37.5522727,
                "pitch": 34,
                "velocity": 51,
                "duration": 0.1181818,
                "tempo": 120.0
            },
            {
                "start_time": 37.5681818,
                "end_time": 37.6863636,
                "pitch": 34,
                "velocity": 51,
                "duration": 0.1181818,
                "tempo": 120.0
            },
            {
                "start_time": 37.7045455,
                "end_time": 37.9545455,
                "pitch": 42,
                "velocity": 51,
                "duration": 0.25,
                "tempo": 120.0
            },
            {
                "start_time": 37.9704545,
                "end_time": 38.0863636,
                "pitch": 44,
                "velocity": 51,
                "duration": 0.1159091,
                "tempo": 120.0
            },
            {
                "start_time": 38.1045455,
                "end_time": 38.2204545,
                "pitch": 44,
                "velocity": 51,
                "duration": 0.1159091,
                "tempo": 120.0
            },
            {
                "start_time": 38.2363636,
                "end_time": 38.3545455,
                "pitch": 34,
                "velocity": 51,
                "duration": 0.1181818,
                "tempo": 120.0
            },
            {
                "start_time": 38.3704545,
                "end_time": 38.4863636,
                "pitch": 34,
                "velocity": 51,
                "duration": 0.1159091,
                "tempo": 120.0
            },
            {
                "start_time": 38.5045455,
                "end_time": 38.7590909,
                "pitch": 44,
                "velocity": 51,
                "duration": 0.2545455,
                "tempo": 120.0
            },
            {
                "start_time": 38.7772727,
                "end_time": 38.8977273,
                "pitch": 44,
                "velocity": 51,
                "duration": 0.1204545,
                "tempo": 120.0
            },
            {
                "start_time": 38.9136364,
                "end_time": 39.0295455,
                "pitch": 44,
                "velocity": 51,
                "duration": 0.1159091,
                "tempo": 120.0
            },
            {
                "start_time": 39.0454545,
                "end_time": 39.1590909,
                "pitch": 44,
                "velocity": 51,
                "duration": 0.1136364,
                "tempo": 120.0
            },
            {
                "start_time": 39.175,
                "end_time": 39.2909091,
                "pitch": 44,
                "velocity": 51,
                "duration": 0.1159091,
                "tempo": 120.0
            },
            {
                "start_time": 39.3068182,
                "end_time": 39.5568182,
                "pitch": 44,
                "velocity": 51,
                "duration": 0.25,
                "tempo": 120.0
            },
            {
                "start_time": 39.575,
                "end_time": 39.6931818,
                "pitch": 44,
                "velocity": 51,
                "duration": 0.1181818,
                "tempo": 120.0
            },
            {
                "start_time": 39.7090909,
                "end_time": 39.825,
                "pitch": 44,
                "velocity": 51,
                "duration": 0.1159091,
                "tempo": 120.0
            },
            {
                "start_time": 39.8431818,
                "end_time": 39.9590909,
                "pitch": 44,
                "velocity": 51,
                "duration": 0.1159091,
                "tempo": 120.0
            },
            {
                "start_time": 39.975,
                "end_time": 40.0931818,
                "pitch": 44,
                "velocity": 51,
                "duration": 0.1181818,
                "tempo": 120.0
            },
            {
                "start_time": 40.1090909,
                "end_time": 40.3590909,
                "pitch": 44,
                "velocity": 51,
                "duration": 0.25,
                "tempo": 120.0
            },
            {
                "start_time": 40.375,
                "end_time": 40.4931818,
                "pitch": 44,
                "velocity": 51,
                "duration": 0.1181818,
                "tempo": 120.0
            },
            {
                "start_time": 40.5090909,
                "end_time": 40.625,
                "pitch": 44,
                "velocity": 51,
                "duration": 0.1159091,
                "tempo": 120.0
            },
            {
                "start_time": 40.6431818,
                "end_time": 40.7590909,
                "pitch": 44,
                "velocity": 51,
                "duration": 0.1159091,
                "tempo": 120.0
            },
            {
                "start_time": 40.775,
                "end_time": 40.8931818,
                "pitch": 44,
                "velocity": 51,
                "duration": 0.1181818,
                "tempo": 120.0
            },
            {
                "start_time": 40.9090909,
                "end_time": 41.1590909,
                "pitch": 44,
                "velocity": 51,
                "duration": 0.25,
                "tempo": 120.0
            },
            {
                "start_time": 41.175,
                "end_time": 41.2931818,
                "pitch": 44,
                "velocity": 51,
                "duration": 0.1181818,
                "tempo": 120.0
            },
            {
                "start_time": 41.3090909,
                "end_time": 41.4272727,
                "pitch": 44,
                "velocity": 51,
                "duration": 0.1181818,
                "tempo": 120.0
            },
            {
                "start_time": 41.4431818,
                "end_time": 41.5613636,
                "pitch": 44,
                "velocity": 51,
                "duration": 0.1181818,
                "tempo": 120.0
            },
            {
                "start_time": 41.5772727,
                "end_time": 41.6954545,
                "pitch": 44,
                "velocity": 51,
                "duration": 0.1181818,
                "tempo": 120.0
            },
            {
                "start_time": 41.7113636,
                "end_time": 41.8272727,
                "pitch": 41,
                "velocity": 51,
                "duration": 0.1159091,
                "tempo": 120.0
            },
            {
                "start_time": 41.8454545,
                "end_time": 41.9613636,
                "pitch": 41,
                "velocity": 51,
                "duration": 0.1159091,
                "tempo": 120.0
            },
            {
                "start_time": 41.9772727,
                "end_time": 42.0954545,
                "pitch": 41,
                "velocity": 51,
                "duration": 0.1181818,
                "tempo": 120.0
            },
            {
                "start_time": 42.1113636,
                "end_time": 42.2272727,
                "pitch": 42,
                "velocity": 51,
                "duration": 0.1159091,
                "tempo": 120.0
            },
            {
                "start_time": 42.2454545,
                "end_time": 42.3613636,
                "pitch": 41,
                "velocity": 51,
                "duration": 0.1159091,
                "tempo": 120.0
            },
            {
                "start_time": 42.3772727,
                "end_time": 42.4954545,
                "pitch": 41,
                "velocity": 51,
                "duration": 0.1181818,
                "tempo": 120.0
            },
            {
                "start_time": 42.5113636,
                "end_time": 42.6272727,
                "pitch": 44,
                "velocity": 51,
                "duration": 0.1159091,
                "tempo": 120.0
            },
            {
                "start_time": 42.6454545,
                "end_time": 42.7613636,
                "pitch": 42,
                "velocity": 51,
                "duration": 0.1159091,
                "tempo": 120.0
            },
            {
                "start_time": 42.7772727,
                "end_time": 42.8954545,
                "pitch": 41,
                "velocity": 51,
                "duration": 0.1181818,
                "tempo": 120.0
            },
            {
                "start_time": 42.9113636,
                "end_time": 43.0272727,
                "pitch": 46,
                "velocity": 51,
                "duration": 0.1159091,
                "tempo": 120.0
            },
            {
                "start_time": 43.0454545,
                "end_time": 43.1613636,
                "pitch": 44,
                "velocity": 51,
                "duration": 0.1159091,
                "tempo": 120.0
            },
            {
                "start_time": 43.1772727,
                "end_time": 43.2954545,
                "pitch": 42,
                "velocity": 51,
                "duration": 0.1181818,
                "tempo": 120.0
            },
            {
                "start_time": 43.3113636,
                "end_time": 43.4295455,
                "pitch": 41,
                "velocity": 51,
                "duration": 0.1181818,
                "tempo": 120.0
            },
            {
                "start_time": 43.4454545,
                "end_time": 43.5636364,
                "pitch": 41,
                "velocity": 51,
                "duration": 0.1181818,
                "tempo": 120.0
            },
            {
                "start_time": 43.5795455,
                "end_time": 43.6977273,
                "pitch": 41,
                "velocity": 51,
                "duration": 0.1181818,
                "tempo": 120.0
            },
            {
                "start_time": 43.7136364,
                "end_time": 43.8318182,
                "pitch": 42,
                "velocity": 51,
                "duration": 0.1181818,
                "tempo": 120.0
            },
            {
                "start_time": 43.8477273,
                "end_time": 43.9636364,
                "pitch": 41,
                "velocity": 51,
                "duration": 0.1159091,
                "tempo": 120.0
            },
            {
                "start_time": 43.9818182,
                "end_time": 44.0977273,
                "pitch": 41,
                "velocity": 51,
                "duration": 0.1159091,
                "tempo": 120.0
            },
            {
                "start_time": 44.1136364,
                "end_time": 44.2318182,
                "pitch": 44,
                "velocity": 51,
                "duration": 0.1181818,
                "tempo": 120.0
            },
            {
                "start_time": 44.2477273,
                "end_time": 44.3636364,
                "pitch": 42,
                "velocity": 51,
                "duration": 0.1159091,
                "tempo": 120.0
            },
            {
                "start_time": 44.3818182,
                "end_time": 44.4977273,
                "pitch": 41,
                "velocity": 51,
                "duration": 0.1159091,
                "tempo": 120.0
            },
            {
                "start_time": 44.5136364,
                "end_time": 44.6318182,
                "pitch": 49,
                "velocity": 51,
                "duration": 0.1181818,
                "tempo": 120.0
            },
            {
                "start_time": 44.6477273,
                "end_time": 44.7636364,
                "pitch": 48,
                "velocity": 51,
                "duration": 0.1159091,
                "tempo": 120.0
            },
            {
                "start_time": 44.7818182,
                "end_time": 44.8977273,
                "pitch": 42,
                "velocity": 51,
                "duration": 0.1159091,
                "tempo": 120.0
            },
            {
                "start_time": 44.9136364,
                "end_time": 45.0318182,
                "pitch": 41,
                "velocity": 51,
                "duration": 0.1181818,
                "tempo": 120.0
            },
            {
                "start_time": 45.0477273,
                "end_time": 45.1636364,
                "pitch": 41,
                "velocity": 51,
                "duration": 0.1159091,
                "tempo": 120.0
            },
            {
                "start_time": 45.1818182,
                "end_time": 45.2977273,
                "pitch": 41,
                "velocity": 51,
                "duration": 0.1159091,
                "tempo": 120.0
            },
            {
                "start_time": 45.3136364,
                "end_time": 45.4318182,
                "pitch": 42,
                "velocity": 51,
                "duration": 0.1181818,
                "tempo": 120.0
            },
            {
                "start_time": 45.4477273,
                "end_time": 45.5659091,
                "pitch": 41,
                "velocity": 51,
                "duration": 0.1181818,
                "tempo": 120.0
            },
            {
                "start_time": 45.5818182,
                "end_time": 45.7,
                "pitch": 41,
                "velocity": 51,
                "duration": 0.1181818,
                "tempo": 120.0
            },
            {
                "start_time": 45.7159091,
                "end_time": 45.8340909,
                "pitch": 44,
                "velocity": 51,
                "duration": 0.1181818,
                "tempo": 120.0
            },
            {
                "start_time": 45.85,
                "end_time": 45.9659091,
                "pitch": 42,
                "velocity": 51,
                "duration": 0.1159091,
                "tempo": 120.0
            },
            {
                "start_time": 45.9840909,
                "end_time": 46.1,
                "pitch": 41,
                "velocity": 51,
                "duration": 0.1159091,
                "tempo": 120.0
            },
            {
                "start_time": 46.1159091,
                "end_time": 46.2340909,
                "pitch": 46,
                "velocity": 51,
                "duration": 0.1181818,
                "tempo": 120.0
            },
            {
                "start_time": 46.25,
                "end_time": 46.3659091,
                "pitch": 44,
                "velocity": 51,
                "duration": 0.1159091,
                "tempo": 120.0
            },
            {
                "start_time": 46.3840909,
                "end_time": 46.5,
                "pitch": 42,
                "velocity": 51,
                "duration": 0.1159091,
                "tempo": 120.0
            },
            {
                "start_time": 46.5159091,
                "end_time": 46.6340909,
                "pitch": 41,
                "velocity": 51,
                "duration": 0.1181818,
                "tempo": 120.0
            },
            {
                "start_time": 46.65,
                "end_time": 46.7659091,
                "pitch": 42,
                "velocity": 51,
                "duration": 0.1159091,
                "tempo": 120.0
            },
            {
                "start_time": 46.7840909,
                "end_time": 46.9,
                "pitch": 44,
                "velocity": 51,
                "duration": 0.1159091,
                "tempo": 120.0
            },
            {
                "start_time": 46.9159091,
                "end_time": 47.0340909,
                "pitch": 46,
                "velocity": 51,
                "duration": 0.1181818,
                "tempo": 120.0
            },
            {
                "start_time": 47.05,
                "end_time": 47.1659091,
                "pitch": 48,
                "velocity": 51,
                "duration": 0.1159091,
                "tempo": 120.0
            },
            {
                "start_time": 47.1840909,
                "end_time": 47.3,
                "pitch": 49,
                "velocity": 51,
                "duration": 0.1159091,
                "tempo": 120.0
            },
            {
                "start_time": 47.3159091,
                "end_time": 47.5681818,
                "pitch": 51,
                "velocity": 51,
                "duration": 0.2522727,
                "tempo": 120.0
            },
            {
                "start_time": 47.5863636,
                "end_time": 47.8340909,
                "pitch": 53,
                "velocity": 51,
                "duration": 0.2477273,
                "tempo": 120.0
            },
            {
                "start_time": 47.85,
                "end_time": 48.0954545,
                "pitch": 54,
                "velocity": 51,
                "duration": 0.2454545,
                "tempo": 120.0
            },
            {
                "start_time": 48.1113636,
                "end_time": 48.2318182,
                "pitch": 41,
                "velocity": 51,
                "duration": 0.1204545,
                "tempo": 120.0
            },
            {
                "start_time": 48.2477273,
                "end_time": 48.3681818,
                "pitch": 41,
                "velocity": 51,
                "duration": 0.1204545,
                "tempo": 120.0
            },
            {
                "start_time": 48.3863636,
                "end_time": 48.5045455,
                "pitch": 41,
                "velocity": 51,
                "duration": 0.1181818,
                "tempo": 120.0
            },
            {
                "start_time": 48.5227273,
                "end_time": 48.6386364,
                "pitch": 42,
                "velocity": 51,
                "duration": 0.1159091,
                "tempo": 120.0
            },
            {
                "start_time": 48.6568182,
                "end_time": 48.7727273,
                "pitch": 41,
                "velocity": 51,
                "duration": 0.1159091,
                "tempo": 120.0
            },
            {
                "start_time": 48.7886364,
                "end_time": 48.9068182,
                "pitch": 41,
                "velocity": 51,
                "duration": 0.1181818,
                "tempo": 120.0
            },
            {
                "start_time": 48.9227273,
                "end_time": 49.0386364,
                "pitch": 44,
                "velocity": 51,
                "duration": 0.1159091,
                "tempo": 120.0
            },
            {
                "start_time": 49.0568182,
                "end_time": 49.1727273,
                "pitch": 42,
                "velocity": 51,
                "duration": 0.1159091,
                "tempo": 120.0
            },
            {
                "start_time": 49.1886364,
                "end_time": 49.3068182,
                "pitch": 41,
                "velocity": 51,
                "duration": 0.1181818,
                "tempo": 120.0
            },
            {
                "start_time": 49.3227273,
                "end_time": 49.4409091,
                "pitch": 46,
                "velocity": 51,
                "duration": 0.1181818,
                "tempo": 120.0
            },
            {
                "start_time": 49.4568182,
                "end_time": 49.575,
                "pitch": 44,
                "velocity": 51,
                "duration": 0.1181818,
                "tempo": 120.0
            },
            {
                "start_time": 49.5909091,
                "end_time": 49.7090909,
                "pitch": 42,
                "velocity": 51,
                "duration": 0.1181818,
                "tempo": 120.0
            },
            {
                "start_time": 49.725,
                "end_time": 49.8409091,
                "pitch": 41,
                "velocity": 51,
                "duration": 0.1159091,
                "tempo": 120.0
            },
            {
                "start_time": 49.8590909,
                "end_time": 49.975,
                "pitch": 41,
                "velocity": 51,
                "duration": 0.1159091,
                "tempo": 120.0
            },
            {
                "start_time": 49.9909091,
                "end_time": 50.1090909,
                "pitch": 41,
                "velocity": 51,
                "duration": 0.1181818,
                "tempo": 120.0
            },
            {
                "start_time": 50.125,
                "end_time": 50.2409091,
                "pitch": 42,
                "velocity": 51,
                "duration": 0.1159091,
                "tempo": 120.0
            },
            {
                "start_time": 50.2590909,
                "end_time": 50.375,
                "pitch": 41,
                "velocity": 51,
                "duration": 0.1159091,
                "tempo": 120.0
            },
            {
                "start_time": 50.3909091,
                "end_time": 50.5090909,
                "pitch": 41,
                "velocity": 51,
                "duration": 0.1181818,
                "tempo": 120.0
            },
            {
                "start_time": 50.525,
                "end_time": 50.6409091,
                "pitch": 44,
                "velocity": 51,
                "duration": 0.1159091,
                "tempo": 120.0
            },
            {
                "start_time": 50.6590909,
                "end_time": 50.775,
                "pitch": 42,
                "velocity": 51,
                "duration": 0.1159091,
                "tempo": 120.0
            },
            {
                "start_time": 50.7909091,
                "end_time": 50.9090909,
                "pitch": 41,
                "velocity": 51,
                "duration": 0.1181818,
                "tempo": 120.0
            },
            {
                "start_time": 50.925,
                "end_time": 51.0409091,
                "pitch": 49,
                "velocity": 51,
                "duration": 0.1159091,
                "tempo": 120.0
            },
            {
                "start_time": 51.0590909,
                "end_time": 51.175,
                "pitch": 48,
                "velocity": 51,
                "duration": 0.1159091,
                "tempo": 120.0
            },
            {
                "start_time": 51.1909091,
                "end_time": 51.3090909,
                "pitch": 46,
                "velocity": 51,
                "duration": 0.1181818,
                "tempo": 120.0
            },
            {
                "start_time": 51.325,
                "end_time": 51.4431818,
                "pitch": 41,
                "velocity": 51,
                "duration": 0.1181818,
                "tempo": 120.0
            },
            {
                "start_time": 51.4590909,
                "end_time": 51.5772727,
                "pitch": 41,
                "velocity": 51,
                "duration": 0.1181818,
                "tempo": 120.0
            },
            {
                "start_time": 51.5931818,
                "end_time": 51.7113636,
                "pitch": 41,
                "velocity": 51,
                "duration": 0.1181818,
                "tempo": 120.0
            },
            {
                "start_time": 51.7272727,
                "end_time": 51.8454545,
                "pitch": 42,
                "velocity": 51,
                "duration": 0.1181818,
                "tempo": 120.0
            },
            {
                "start_time": 51.8613636,
                "end_time": 51.9772727,
                "pitch": 41,
                "velocity": 51,
                "duration": 0.1159091,
                "tempo": 120.0
            },
            {
                "start_time": 51.9954545,
                "end_time": 52.1113636,
                "pitch": 41,
                "velocity": 51,
                "duration": 0.1159091,
                "tempo": 120.0
            },
            {
                "start_time": 52.1272727,
                "end_time": 52.2454545,
                "pitch": 44,
                "velocity": 51,
                "duration": 0.1181818,
                "tempo": 120.0
            },
            {
                "start_time": 52.2613636,
                "end_time": 52.3772727,
                "pitch": 42,
                "velocity": 51,
                "duration": 0.1159091,
                "tempo": 120.0
            },
            {
                "start_time": 52.3954545,
                "end_time": 52.5113636,
                "pitch": 41,
                "velocity": 51,
                "duration": 0.1159091,
                "tempo": 120.0
            },
            {
                "start_time": 52.5272727,
                "end_time": 52.6454545,
                "pitch": 46,
                "velocity": 51,
                "duration": 0.1181818,
                "tempo": 120.0
            },
            {
                "start_time": 52.6613636,
                "end_time": 52.7772727,
                "pitch": 44,
                "velocity": 51,
                "duration": 0.1159091,
                "tempo": 120.0
            },
            {
                "start_time": 52.7954545,
                "end_time": 52.9113636,
                "pitch": 42,
                "velocity": 51,
                "duration": 0.1159091,
                "tempo": 120.0
            },
            {
                "start_time": 52.9272727,
                "end_time": 53.1772727,
                "pitch": 41,
                "velocity": 51,
                "duration": 0.25,
                "tempo": 120.0
            },
            {
                "start_time": 53.1954545,
                "end_time": 53.3113636,
                "pitch": 41,
                "velocity": 51,
                "duration": 0.1159091,
                "tempo": 120.0
            },
            {
                "start_time": 53.3272727,
                "end_time": 53.4454545,
                "pitch": 41,
                "velocity": 51,
                "duration": 0.1181818,
                "tempo": 120.0
            },
            {
                "start_time": 53.4613636,
                "end_time": 53.5795455,
                "pitch": 41,
                "velocity": 51,
                "duration": 0.1181818,
                "tempo": 120.0
            },
            {
                "start_time": 53.5954545,
                "end_time": 53.7136364,
                "pitch": 41,
                "velocity": 51,
                "duration": 0.1181818,
                "tempo": 120.0
            },
            {
                "start_time": 53.7295455,
                "end_time": 53.9795455,
                "pitch": 41,
                "velocity": 51,
                "duration": 0.25,
                "tempo": 120.0
            },
            {
                "start_time": 53.9977273,
                "end_time": 54.1136364,
                "pitch": 41,
                "velocity": 51,
                "duration": 0.1159091,
                "tempo": 120.0
            },
            {
                "start_time": 54.1295455,
                "end_time": 54.2477273,
                "pitch": 41,
                "velocity": 51,
                "duration": 0.1181818,
                "tempo": 120.0
            },
            {
                "start_time": 54.2636364,
                "end_time": 54.3795455,
                "pitch": 41,
                "velocity": 51,
                "duration": 0.1159091,
                "tempo": 120.0
            },
            {
                "start_time": 54.3977273,
                "end_time": 54.5136364,
                "pitch": 41,
                "velocity": 51,
                "duration": 0.1159091,
                "tempo": 120.0
            },
            {
                "start_time": 54.5295455,
                "end_time": 54.7795455,
                "pitch": 36,
                "velocity": 51,
                "duration": 0.25,
                "tempo": 120.0
            },
            {
                "start_time": 54.7977273,
                "end_time": 54.9136364,
                "pitch": 36,
                "velocity": 51,
                "duration": 0.1159091,
                "tempo": 120.0
            },
            {
                "start_time": 54.9295455,
                "end_time": 55.0477273,
                "pitch": 36,
                "velocity": 51,
                "duration": 0.1181818,
                "tempo": 120.0
            },
            {
                "start_time": 55.0636364,
                "end_time": 55.1795455,
                "pitch": 36,
                "velocity": 51,
                "duration": 0.1159091,
                "tempo": 120.0
            },
            {
                "start_time": 55.1977273,
                "end_time": 55.3136364,
                "pitch": 36,
                "velocity": 51,
                "duration": 0.1159091,
                "tempo": 120.0
            },
            {
                "start_time": 55.3295455,
                "end_time": 55.5818182,
                "pitch": 36,
                "velocity": 51,
                "duration": 0.2522727,
                "tempo": 120.0
            },
            {
                "start_time": 55.6,
                "end_time": 55.7159091,
                "pitch": 36,
                "velocity": 51,
                "duration": 0.1159091,
                "tempo": 120.0
            },
            {
                "start_time": 55.7340909,
                "end_time": 55.85,
                "pitch": 36,
                "velocity": 51,
                "duration": 0.1159091,
                "tempo": 120.0
            },
            {
                "start_time": 55.8659091,
                "end_time": 55.9840909,
                "pitch": 36,
                "velocity": 51,
                "duration": 0.1181818,
                "tempo": 120.0
            },
            {
                "start_time": 56.0,
                "end_time": 56.1159091,
                "pitch": 36,
                "velocity": 51,
                "duration": 0.1159091,
                "tempo": 120.0
            },
            {
                "start_time": 56.1340909,
                "end_time": 56.3840909,
                "pitch": 41,
                "velocity": 51,
                "duration": 0.25,
                "tempo": 120.0
            },
            {
                "start_time": 56.4,
                "end_time": 56.5159091,
                "pitch": 41,
                "velocity": 51,
                "duration": 0.1159091,
                "tempo": 120.0
            },
            {
                "start_time": 56.5340909,
                "end_time": 56.65,
                "pitch": 41,
                "velocity": 51,
                "duration": 0.1159091,
                "tempo": 120.0
            },
            {
                "start_time": 56.6659091,
                "end_time": 56.7840909,
                "pitch": 41,
                "velocity": 51,
                "duration": 0.1181818,
                "tempo": 120.0
            },
            {
                "start_time": 56.8,
                "end_time": 56.9159091,
                "pitch": 41,
                "velocity": 51,
                "duration": 0.1159091,
                "tempo": 120.0
            },
            {
                "start_time": 56.9340909,
                "end_time": 57.1840909,
                "pitch": 41,
                "velocity": 51,
                "duration": 0.25,
                "tempo": 120.0
            },
            {
                "start_time": 57.2,
                "end_time": 57.3159091,
                "pitch": 41,
                "velocity": 51,
                "duration": 0.1159091,
                "tempo": 120.0
            },
            {
                "start_time": 57.3340909,
                "end_time": 57.45,
                "pitch": 41,
                "velocity": 51,
                "duration": 0.1159091,
                "tempo": 120.0
            },
            {
                "start_time": 57.4681818,
                "end_time": 57.5840909,
                "pitch": 41,
                "velocity": 51,
                "duration": 0.1159091,
                "tempo": 120.0
            },
            {
                "start_time": 57.6022727,
                "end_time": 57.7181818,
                "pitch": 41,
                "velocity": 51,
                "duration": 0.1159091,
                "tempo": 120.0
            },
            {
                "start_time": 57.7363636,
                "end_time": 57.9863636,
                "pitch": 42,
                "velocity": 51,
                "duration": 0.25,
                "tempo": 120.0
            },
            {
                "start_time": 58.0022727,
                "end_time": 58.1181818,
                "pitch": 42,
                "velocity": 51,
                "duration": 0.1159091,
                "tempo": 120.0
            },
            {
                "start_time": 58.1363636,
                "end_time": 58.2522727,
                "pitch": 42,
                "velocity": 51,
                "duration": 0.1159091,
                "tempo": 120.0
            },
            {
                "start_time": 58.2681818,
                "end_time": 58.3863636,
                "pitch": 42,
                "velocity": 51,
                "duration": 0.1181818,
                "tempo": 120.0
            },
            {
                "start_time": 58.4022727,
                "end_time": 58.5181818,
                "pitch": 42,
                "velocity": 51,
                "duration": 0.1159091,
                "tempo": 120.0
            },
            {
                "start_time": 58.5363636,
                "end_time": 58.7863636,
                "pitch": 42,
                "velocity": 51,
                "duration": 0.25,
                "tempo": 120.0
            },
            {
                "start_time": 58.8022727,
                "end_time": 58.9181818,
                "pitch": 42,
                "velocity": 51,
                "duration": 0.1159091,
                "tempo": 120.0
            },
            {
                "start_time": 58.9363636,
                "end_time": 59.0522727,
                "pitch": 42,
                "velocity": 51,
                "duration": 0.1159091,
                "tempo": 120.0
            },
            {
                "start_time": 59.0681818,
                "end_time": 59.1863636,
                "pitch": 42,
                "velocity": 51,
                "duration": 0.1181818,
                "tempo": 120.0
            },
            {
                "start_time": 59.2022727,
                "end_time": 59.3181818,
                "pitch": 42,
                "velocity": 51,
                "duration": 0.1159091,
                "tempo": 120.0
            },
            {
                "start_time": 59.3363636,
                "end_time": 59.5886364,
                "pitch": 39,
                "velocity": 51,
                "duration": 0.2522727,
                "tempo": 120.0
            },
            {
                "start_time": 59.6045455,
                "end_time": 59.7227273,
                "pitch": 39,
                "velocity": 51,
                "duration": 0.1181818,
                "tempo": 120.0
            },
            {
                "start_time": 59.7386364,
                "end_time": 59.8545455,
                "pitch": 39,
                "velocity": 51,
                "duration": 0.1159091,
                "tempo": 120.0
            },
            {
                "start_time": 59.8727273,
                "end_time": 59.9886364,
                "pitch": 39,
                "velocity": 51,
                "duration": 0.1159091,
                "tempo": 120.0
            },
            {
                "start_time": 60.0045455,
                "end_time": 60.1227273,
                "pitch": 39,
                "velocity": 51,
                "duration": 0.1181818,
                "tempo": 120.0
            },
            {
                "start_time": 60.1386364,
                "end_time": 60.2545455,
                "pitch": 39,
                "velocity": 51,
                "duration": 0.1159091,
                "tempo": 120.0
            },
            {
                "start_time": 60.2727273,
                "end_time": 60.3886364,
                "pitch": 46,
                "velocity": 51,
                "duration": 0.1159091,
                "tempo": 120.0
            },
            {
                "start_time": 60.4045455,
                "end_time": 60.5227273,
                "pitch": 49,
                "velocity": 51,
                "duration": 0.1181818,
                "tempo": 120.0
            },
            {
                "start_time": 60.5386364,
                "end_time": 60.6545455,
                "pitch": 53,
                "velocity": 51,
                "duration": 0.1159091,
                "tempo": 120.0
            },
            {
                "start_time": 60.6727273,
                "end_time": 60.7886364,
                "pitch": 51,
                "velocity": 51,
                "duration": 0.1159091,
                "tempo": 120.0
            },
            {
                "start_time": 60.8045455,
                "end_time": 60.9227273,
                "pitch": 49,
                "velocity": 51,
                "duration": 0.1181818,
                "tempo": 120.0
            },
            {
                "start_time": 60.9386364,
                "end_time": 61.1886364,
                "pitch": 37,
                "velocity": 51,
                "duration": 0.25,
                "tempo": 120.0
            },
            {
                "start_time": 61.2045455,
                "end_time": 61.3227273,
                "pitch": 37,
                "velocity": 51,
                "duration": 0.1181818,
                "tempo": 120.0
            },
            {
                "start_time": 61.3386364,
                "end_time": 61.4590909,
                "pitch": 37,
                "velocity": 51,
                "duration": 0.1204545,
                "tempo": 120.0
            },
            {
                "start_time": 61.475,
                "end_time": 61.5954545,
                "pitch": 37,
                "velocity": 51,
                "duration": 0.1204545,
                "tempo": 120.0
            },
            {
                "start_time": 61.6113636,
                "end_time": 61.7318182,
                "pitch": 37,
                "velocity": 51,
                "duration": 0.1204545,
                "tempo": 120.0
            },
            {
                "start_time": 61.75,
                "end_time": 61.9954545,
                "pitch": 37,
                "velocity": 51,
                "duration": 0.2454545,
                "tempo": 120.0
            },
            {
                "start_time": 62.0113636,
                "end_time": 62.125,
                "pitch": 37,
                "velocity": 51,
                "duration": 0.1136364,
                "tempo": 120.0
            },
            {
                "start_time": 62.1409091,
                "end_time": 62.2613636,
                "pitch": 37,
                "velocity": 51,
                "duration": 0.1204545,
                "tempo": 120.0
            },
            {
                "start_time": 62.2772727,
                "end_time": 62.3977273,
                "pitch": 37,
                "velocity": 51,
                "duration": 0.1204545,
                "tempo": 120.0
            },
            {
                "start_time": 62.4159091,
                "end_time": 62.5340909,
                "pitch": 37,
                "velocity": 51,
                "duration": 0.1181818,
                "tempo": 120.0
            },
            {
                "start_time": 62.5522727,
                "end_time": 62.9272727,
                "pitch": 39,
                "velocity": 51,
                "duration": 0.375,
                "tempo": 120.0
            },
            {
                "start_time": 62.9431818,
                "end_time": 63.3272727,
                "pitch": 41,
                "velocity": 51,
                "duration": 0.3840909,
                "tempo": 120.0
            },
            {
                "start_time": 63.3431818,
                "end_time": 63.7295455,
                "pitch": 42,
                "velocity": 51,
                "duration": 0.3863636,
                "tempo": 120.0
            },
            {
                "start_time": 63.7477273,
                "end_time": 64.1295455,
                "pitch": 41,
                "velocity": 51,
                "duration": 0.3818182,
                "tempo": 120.0
            },
            {
                "start_time": 64.1477273,
                "end_time": 64.3977273,
                "pitch": 42,
                "velocity": 51,
                "duration": 0.25,
                "tempo": 120.0
            },
            {
                "start_time": 64.4136364,
                "end_time": 64.5295455,
                "pitch": 42,
                "velocity": 51,
                "duration": 0.1159091,
                "tempo": 120.0
            },
            {
                "start_time": 64.5477273,
                "end_time": 64.6636364,
                "pitch": 42,
                "velocity": 51,
                "duration": 0.1159091,
                "tempo": 120.0
            },
            {
                "start_time": 64.6818182,
                "end_time": 64.7977273,
                "pitch": 42,
                "velocity": 51,
                "duration": 0.1159091,
                "tempo": 120.0
            },
            {
                "start_time": 64.8159091,
                "end_time": 64.9318182,
                "pitch": 42,
                "velocity": 51,
                "duration": 0.1159091,
                "tempo": 120.0
            },
            {
                "start_time": 64.95,
                "end_time": 65.2,
                "pitch": 42,
                "velocity": 51,
                "duration": 0.25,
                "tempo": 120.0
            },
            {
                "start_time": 65.2159091,
                "end_time": 65.3318182,
                "pitch": 42,
                "velocity": 51,
                "duration": 0.1159091,
                "tempo": 120.0
            },
            {
                "start_time": 65.35,
                "end_time": 65.4659091,
                "pitch": 42,
                "velocity": 51,
                "duration": 0.1159091,
                "tempo": 120.0
            },
            {
                "start_time": 65.4840909,
                "end_time": 65.6022727,
                "pitch": 42,
                "velocity": 51,
                "duration": 0.1181818,
                "tempo": 120.0
            },
            {
                "start_time": 65.6181818,
                "end_time": 65.7363636,
                "pitch": 42,
                "velocity": 51,
                "duration": 0.1181818,
                "tempo": 120.0
            },
            {
                "start_time": 65.7522727,
                "end_time": 66.0022727,
                "pitch": 39,
                "velocity": 51,
                "duration": 0.25,
                "tempo": 120.0
            },
            {
                "start_time": 66.0181818,
                "end_time": 66.1363636,
                "pitch": 39,
                "velocity": 51,
                "duration": 0.1181818,
                "tempo": 120.0
            },
            {
                "start_time": 66.1522727,
                "end_time": 66.2704545,
                "pitch": 39,
                "velocity": 51,
                "duration": 0.1181818,
                "tempo": 120.0
            },
            {
                "start_time": 66.2863636,
                "end_time": 66.4045455,
                "pitch": 39,
                "velocity": 51,
                "duration": 0.1181818,
                "tempo": 120.0
            },
            {
                "start_time": 66.4204545,
                "end_time": 66.5386364,
                "pitch": 39,
                "velocity": 51,
                "duration": 0.1181818,
                "tempo": 120.0
            },
            {
                "start_time": 66.5545455,
                "end_time": 66.6727273,
                "pitch": 39,
                "velocity": 51,
                "duration": 0.1181818,
                "tempo": 120.0
            },
            {
                "start_time": 66.6886364,
                "end_time": 66.8068182,
                "pitch": 46,
                "velocity": 51,
                "duration": 0.1181818,
                "tempo": 120.0
            },
            {
                "start_time": 66.8227273,
                "end_time": 66.9409091,
                "pitch": 49,
                "velocity": 51,
                "duration": 0.1181818,
                "tempo": 120.0
            },
            {
                "start_time": 66.9568182,
                "end_time": 67.075,
                "pitch": 53,
                "velocity": 51,
                "duration": 0.1181818,
                "tempo": 120.0
            },
            {
                "start_time": 67.0909091,
                "end_time": 67.2068182,
                "pitch": 51,
                "velocity": 51,
                "duration": 0.1159091,
                "tempo": 120.0
            },
            {
                "start_time": 67.225,
                "end_time": 67.3409091,
                "pitch": 49,
                "velocity": 51,
                "duration": 0.1159091,
                "tempo": 120.0
            },
            {
                "start_time": 67.3568182,
                "end_time": 67.6090909,
                "pitch": 37,
                "velocity": 51,
                "duration": 0.2522727,
                "tempo": 120.0
            },
            {
                "start_time": 67.625,
                "end_time": 67.7431818,
                "pitch": 37,
                "velocity": 51,
                "duration": 0.1181818,
                "tempo": 120.0
            },
            {
                "start_time": 67.7613636,
                "end_time": 67.8772727,
                "pitch": 37,
                "velocity": 51,
                "duration": 0.1159091,
                "tempo": 120.0
            },
            {
                "start_time": 67.8931818,
                "end_time": 68.0113636,
                "pitch": 37,
                "velocity": 51,
                "duration": 0.1181818,
                "tempo": 120.0
            },
            {
                "start_time": 68.0272727,
                "end_time": 68.1431818,
                "pitch": 37,
                "velocity": 51,
                "duration": 0.1159091,
                "tempo": 120.0
            },
            {
                "start_time": 68.1613636,
                "end_time": 68.4113636,
                "pitch": 37,
                "velocity": 51,
                "duration": 0.25,
                "tempo": 120.0
            },
            {
                "start_time": 68.4295455,
                "end_time": 68.5454545,
                "pitch": 37,
                "velocity": 51,
                "duration": 0.1159091,
                "tempo": 120.0
            },
            {
                "start_time": 68.5636364,
                "end_time": 68.6795455,
                "pitch": 37,
                "velocity": 51,
                "duration": 0.1159091,
                "tempo": 120.0
            },
            {
                "start_time": 68.6977273,
                "end_time": 68.8136364,
                "pitch": 37,
                "velocity": 51,
                "duration": 0.1159091,
                "tempo": 120.0
            },
            {
                "start_time": 68.8318182,
                "end_time": 68.9477273,
                "pitch": 37,
                "velocity": 51,
                "duration": 0.1159091,
                "tempo": 120.0
            },
            {
                "start_time": 68.9659091,
                "end_time": 69.2159091,
                "pitch": 36,
                "velocity": 51,
                "duration": 0.25,
                "tempo": 120.0
            },
            {
                "start_time": 69.2318182,
                "end_time": 69.35,
                "pitch": 36,
                "velocity": 51,
                "duration": 0.1181818,
                "tempo": 120.0
            },
            {
                "start_time": 69.3659091,
                "end_time": 69.4840909,
                "pitch": 36,
                "velocity": 51,
                "duration": 0.1181818,
                "tempo": 120.0
            },
            {
                "start_time": 69.5,
                "end_time": 69.6181818,
                "pitch": 36,
                "velocity": 51,
                "duration": 0.1181818,
                "tempo": 120.0
            },
            {
                "start_time": 69.6340909,
                "end_time": 69.7522727,
                "pitch": 36,
                "velocity": 51,
                "duration": 0.1181818,
                "tempo": 120.0
            },
            {
                "start_time": 69.7681818,
                "end_time": 70.0181818,
                "pitch": 34,
                "velocity": 51,
                "duration": 0.25,
                "tempo": 120.0
            },
            {
                "start_time": 70.0340909,
                "end_time": 70.2863636,
                "pitch": 41,
                "velocity": 51,
                "duration": 0.2522727,
                "tempo": 120.0
            },
            {
                "start_time": 70.3022727,
                "end_time": 70.5545455,
                "pitch": 34,
                "velocity": 51,
                "duration": 0.2522727,
                "tempo": 120.0
            },
            {
                "start_time": 70.5704545,
                "end_time": 70.8227273,
                "pitch": 34,
                "velocity": 51,
                "duration": 0.2522727,
                "tempo": 120.0
            },
            {
                "start_time": 70.8386364,
                "end_time": 70.9568182,
                "pitch": 34,
                "velocity": 51,
                "duration": 0.1181818,
                "tempo": 120.0
            },
            {
                "start_time": 70.9727273,
                "end_time": 71.0909091,
                "pitch": 34,
                "velocity": 51,
                "duration": 0.1181818,
                "tempo": 120.0
            },
            {
                "start_time": 71.1068182,
                "end_time": 71.2227273,
                "pitch": 34,
                "velocity": 51,
                "duration": 0.1159091,
                "tempo": 120.0
            },
            {
                "start_time": 71.2409091,
                "end_time": 71.3568182,
                "pitch": 34,
                "velocity": 51,
                "duration": 0.1159091,
                "tempo": 120.0
            },
            {
                "start_time": 71.3727273,
                "end_time": 71.625,
                "pitch": 46,
                "velocity": 51,
                "duration": 0.2522727,
                "tempo": 120.0
            },
            {
                "start_time": 71.6431818,
                "end_time": 71.7590909,
                "pitch": 44,
                "velocity": 51,
                "duration": 0.1159091,
                "tempo": 120.0
            },
            {
                "start_time": 71.7772727,
                "end_time": 72.0272727,
                "pitch": 44,
                "velocity": 51,
                "duration": 0.25,
                "tempo": 120.0
            },
            {
                "start_time": 72.0431818,
                "end_time": 72.1590909,
                "pitch": 46,
                "velocity": 51,
                "duration": 0.1159091,
                "tempo": 120.0
            },
            {
                "start_time": 72.1772727,
                "end_time": 72.4272727,
                "pitch": 34,
                "velocity": 51,
                "duration": 0.25,
                "tempo": 120.0
            },
            {
                "start_time": 72.4454545,
                "end_time": 72.5613636,
                "pitch": 34,
                "velocity": 51,
                "duration": 0.1159091,
                "tempo": 120.0
            },
            {
                "start_time": 72.5795455,
                "end_time": 72.6954545,
                "pitch": 34,
                "velocity": 51,
                "duration": 0.1159091,
                "tempo": 120.0
            },
            {
                "start_time": 72.7136364,
                "end_time": 72.8318182,
                "pitch": 34,
                "velocity": 51,
                "duration": 0.1181818,
                "tempo": 120.0
            },
            {
                "start_time": 72.8477273,
                "end_time": 72.9659091,
                "pitch": 34,
                "velocity": 51,
                "duration": 0.1181818,
                "tempo": 120.0
            },
            {
                "start_time": 72.9818182,
                "end_time": 73.2318182,
                "pitch": 42,
                "velocity": 51,
                "duration": 0.25,
                "tempo": 120.0
            },
            {
                "start_time": 73.2477273,
                "end_time": 73.3659091,
                "pitch": 44,
                "velocity": 51,
                "duration": 0.1181818,
                "tempo": 120.0
            },
            {
                "start_time": 73.3818182,
                "end_time": 73.5022727,
                "pitch": 44,
                "velocity": 51,
                "duration": 0.1204545,
                "tempo": 120.0
            },
            {
                "start_time": 73.5181818,
                "end_time": 73.6386364,
                "pitch": 34,
                "velocity": 51,
                "duration": 0.1204545,
                "tempo": 120.0
            },
            {
                "start_time": 73.6545455,
                "end_time": 73.775,
                "pitch": 34,
                "velocity": 51,
                "duration": 0.1204545,
                "tempo": 120.0
            },
            {
                "start_time": 73.7931818,
                "end_time": 74.0386364,
                "pitch": 34,
                "velocity": 51,
                "duration": 0.2454545,
                "tempo": 120.0
            },
            {
                "start_time": 74.0545455,
                "end_time": 74.1681818,
                "pitch": 34,
                "velocity": 51,
                "duration": 0.1136364,
                "tempo": 120.0
            },
            {
                "start_time": 74.1840909,
                "end_time": 74.3022727,
                "pitch": 34,
                "velocity": 51,
                "duration": 0.1181818,
                "tempo": 120.0
            },
            {
                "start_time": 74.3181818,
                "end_time": 74.4363636,
                "pitch": 34,
                "velocity": 51,
                "duration": 0.1181818,
                "tempo": 120.0
            },
            {
                "start_time": 74.4522727,
                "end_time": 74.5704545,
                "pitch": 34,
                "velocity": 51,
                "duration": 0.1181818,
                "tempo": 120.0
            },
            {
                "start_time": 74.5863636,
                "end_time": 74.8386364,
                "pitch": 46,
                "velocity": 51,
                "duration": 0.2522727,
                "tempo": 120.0
            },
            {
                "start_time": 74.8568182,
                "end_time": 74.9727273,
                "pitch": 44,
                "velocity": 51,
                "duration": 0.1159091,
                "tempo": 120.0
            },
            {
                "start_time": 74.9909091,
                "end_time": 75.2409091,
                "pitch": 44,
                "velocity": 51,
                "duration": 0.25,
                "tempo": 120.0
            },
            {
                "start_time": 75.2568182,
                "end_time": 75.3727273,
                "pitch": 46,
                "velocity": 51,
                "duration": 0.1159091,
                "tempo": 120.0
            },
            {
                "start_time": 75.3909091,
                "end_time": 75.6409091,
                "pitch": 34,
                "velocity": 51,
                "duration": 0.25,
                "tempo": 120.0
            },
            {
                "start_time": 75.6590909,
                "end_time": 75.775,
                "pitch": 34,
                "velocity": 51,
                "duration": 0.1159091,
                "tempo": 120.0
            },
            {
                "start_time": 75.7931818,
                "end_time": 75.9090909,
                "pitch": 34,
                "velocity": 51,
                "duration": 0.1159091,
                "tempo": 120.0
            },
            {
                "start_time": 75.925,
                "end_time": 76.0431818,
                "pitch": 34,
                "velocity": 51,
                "duration": 0.1181818,
                "tempo": 120.0
            },
            {
                "start_time": 76.0590909,
                "end_time": 76.175,
                "pitch": 34,
                "velocity": 51,
                "duration": 0.1159091,
                "tempo": 120.0
            },
            {
                "start_time": 76.1931818,
                "end_time": 76.4431818,
                "pitch": 42,
                "velocity": 51,
                "duration": 0.25,
                "tempo": 120.0
            },
            {
                "start_time": 76.4613636,
                "end_time": 76.5795455,
                "pitch": 44,
                "velocity": 51,
                "duration": 0.1181818,
                "tempo": 120.0
            },
            {
                "start_time": 76.5954545,
                "end_time": 76.7136364,
                "pitch": 44,
                "velocity": 51,
                "duration": 0.1181818,
                "tempo": 120.0
            },
            {
                "start_time": 76.7295455,
                "end_time": 76.8477273,
                "pitch": 34,
                "velocity": 51,
                "duration": 0.1181818,
                "tempo": 120.0
            },
            {
                "start_time": 76.8636364,
                "end_time": 76.9818182,
                "pitch": 34,
                "velocity": 51,
                "duration": 0.1181818,
                "tempo": 120.0
            },
            {
                "start_time": 76.9977273,
                "end_time": 77.2545455,
                "pitch": 44,
                "velocity": 51,
                "duration": 0.2568182,
                "tempo": 120.0
            },
            {
                "start_time": 77.2727273,
                "end_time": 77.3909091,
                "pitch": 44,
                "velocity": 51,
                "duration": 0.1181818,
                "tempo": 120.0
            },
            {
                "start_time": 77.4090909,
                "end_time": 77.5227273,
                "pitch": 44,
                "velocity": 51,
                "duration": 0.1136364,
                "tempo": 120.0
            },
            {
                "start_time": 77.5386364,
                "end_time": 77.6545455,
                "pitch": 44,
                "velocity": 51,
                "duration": 0.1159091,
                "tempo": 120.0
            },
            {
                "start_time": 77.6704545,
                "end_time": 77.7840909,
                "pitch": 44,
                "velocity": 51,
                "duration": 0.1136364,
                "tempo": 120.0
            },
            {
                "start_time": 77.8,
                "end_time": 78.05,
                "pitch": 44,
                "velocity": 51,
                "duration": 0.25,
                "tempo": 120.0
            },
            {
                "start_time": 78.0681818,
                "end_time": 78.1840909,
                "pitch": 44,
                "velocity": 51,
                "duration": 0.1159091,
                "tempo": 120.0
            },
            {
                "start_time": 78.2,
                "end_time": 78.3181818,
                "pitch": 44,
                "velocity": 51,
                "duration": 0.1181818,
                "tempo": 120.0
            },
            {
                "start_time": 78.3340909,
                "end_time": 78.4522727,
                "pitch": 44,
                "velocity": 51,
                "duration": 0.1181818,
                "tempo": 120.0
            },
            {
                "start_time": 78.4704545,
                "end_time": 78.5863636,
                "pitch": 44,
                "velocity": 51,
                "duration": 0.1159091,
                "tempo": 120.0
            },
            {
                "start_time": 78.6045455,
                "end_time": 78.8545455,
                "pitch": 44,
                "velocity": 51,
                "duration": 0.25,
                "tempo": 120.0
            },
            {
                "start_time": 78.8727273,
                "end_time": 78.9886364,
                "pitch": 44,
                "velocity": 51,
                "duration": 0.1159091,
                "tempo": 120.0
            },
            {
                "start_time": 79.0068182,
                "end_time": 79.1227273,
                "pitch": 44,
                "velocity": 51,
                "duration": 0.1159091,
                "tempo": 120.0
            },
            {
                "start_time": 79.1386364,
                "end_time": 79.2568182,
                "pitch": 44,
                "velocity": 51,
                "duration": 0.1181818,
                "tempo": 120.0
            },
            {
                "start_time": 79.2727273,
                "end_time": 79.3886364,
                "pitch": 44,
                "velocity": 51,
                "duration": 0.1159091,
                "tempo": 120.0
            },
            {
                "start_time": 79.4068182,
                "end_time": 79.6568182,
                "pitch": 44,
                "velocity": 51,
                "duration": 0.25,
                "tempo": 120.0
            },
            {
                "start_time": 79.675,
                "end_time": 79.7931818,
                "pitch": 44,
                "velocity": 51,
                "duration": 0.1181818,
                "tempo": 120.0
            },
            {
                "start_time": 79.8090909,
                "end_time": 79.925,
                "pitch": 44,
                "velocity": 51,
                "duration": 0.1159091,
                "tempo": 120.0
            },
            {
                "start_time": 79.9431818,
                "end_time": 80.0590909,
                "pitch": 44,
                "velocity": 51,
                "duration": 0.1159091,
                "tempo": 120.0
            },
            {
                "start_time": 80.075,
                "end_time": 80.1931818,
                "pitch": 44,
                "velocity": 51,
                "duration": 0.1181818,
                "tempo": 120.0
            },
            {
                "start_time": 80.2090909,
                "end_time": 80.3272727,
                "pitch": 41,
                "velocity": 51,
                "duration": 0.1181818,
                "tempo": 120.0
            },
            {
                "start_time": 80.3431818,
                "end_time": 80.4613636,
                "pitch": 41,
                "velocity": 51,
                "duration": 0.1181818,
                "tempo": 120.0
            },
            {
                "start_time": 80.4772727,
                "end_time": 80.5954545,
                "pitch": 41,
                "velocity": 51,
                "duration": 0.1181818,
                "tempo": 120.0
            },
            {
                "start_time": 80.6113636,
                "end_time": 80.7295455,
                "pitch": 42,
                "velocity": 51,
                "duration": 0.1181818,
                "tempo": 120.0
            },
            {
                "start_time": 80.7454545,
                "end_time": 80.8636364,
                "pitch": 41,
                "velocity": 51,
                "duration": 0.1181818,
                "tempo": 120.0
            },
            {
                "start_time": 80.8795455,
                "end_time": 80.9977273,
                "pitch": 41,
                "velocity": 51,
                "duration": 0.1181818,
                "tempo": 120.0
            },
            {
                "start_time": 81.0136364,
                "end_time": 81.1318182,
                "pitch": 44,
                "velocity": 51,
                "duration": 0.1181818,
                "tempo": 120.0
            },
            {
                "start_time": 81.1477273,
                "end_time": 81.2636364,
                "pitch": 42,
                "velocity": 51,
                "duration": 0.1159091,
                "tempo": 120.0
            },
            {
                "start_time": 81.2818182,
                "end_time": 81.3977273,
                "pitch": 41,
                "velocity": 51,
                "duration": 0.1159091,
                "tempo": 120.0
            },
            {
                "start_time": 81.4136364,
                "end_time": 81.5318182,
                "pitch": 46,
                "velocity": 51,
                "duration": 0.1181818,
                "tempo": 120.0
            },
            {
                "start_time": 81.5477273,
                "end_time": 81.6659091,
                "pitch": 44,
                "velocity": 51,
                "duration": 0.1181818,
                "tempo": 120.0
            },
            {
                "start_time": 81.6818182,
                "end_time": 81.8,
                "pitch": 42,
                "velocity": 51,
                "duration": 0.1181818,
                "tempo": 120.0
            },
            {
                "start_time": 81.8159091,
                "end_time": 81.9340909,
                "pitch": 41,
                "velocity": 51,
                "duration": 0.1181818,
                "tempo": 120.0
            },
            {
                "start_time": 81.95,
                "end_time": 82.0659091,
                "pitch": 41,
                "velocity": 51,
                "duration": 0.1159091,
                "tempo": 120.0
            },
            {
                "start_time": 82.0840909,
                "end_time": 82.2,
                "pitch": 41,
                "velocity": 51,
                "duration": 0.1159091,
                "tempo": 120.0
            },
            {
                "start_time": 82.2159091,
                "end_time": 82.3340909,
                "pitch": 42,
                "velocity": 51,
                "duration": 0.1181818,
                "tempo": 120.0
            },
            {
                "start_time": 82.3522727,
                "end_time": 82.4681818,
                "pitch": 41,
                "velocity": 51,
                "duration": 0.1159091,
                "tempo": 120.0
            },
            {
                "start_time": 82.4863636,
                "end_time": 82.6022727,
                "pitch": 41,
                "velocity": 51,
                "duration": 0.1159091,
                "tempo": 120.0
            },
            {
                "start_time": 82.6204545,
                "end_time": 82.7363636,
                "pitch": 44,
                "velocity": 51,
                "duration": 0.1159091,
                "tempo": 120.0
            },
            {
                "start_time": 82.7545455,
                "end_time": 82.8704545,
                "pitch": 42,
                "velocity": 51,
                "duration": 0.1159091,
                "tempo": 120.0
            },
            {
                "start_time": 82.8886364,
                "end_time": 83.0045455,
                "pitch": 41,
                "velocity": 51,
                "duration": 0.1159091,
                "tempo": 120.0
            },
            {
                "start_time": 83.0227273,
                "end_time": 83.1386364,
                "pitch": 49,
                "velocity": 51,
                "duration": 0.1159091,
                "tempo": 120.0
            },
            {
                "start_time": 83.1568182,
                "end_time": 83.2727273,
                "pitch": 48,
                "velocity": 51,
                "duration": 0.1159091,
                "tempo": 120.0
            },
            {
                "start_time": 83.2886364,
                "end_time": 83.4068182,
                "pitch": 42,
                "velocity": 51,
                "duration": 0.1181818,
                "tempo": 120.0
            },
            {
                "start_time": 83.4227273,
                "end_time": 83.5409091,
                "pitch": 41,
                "velocity": 51,
                "duration": 0.1181818,
                "tempo": 120.0
            },
            {
                "start_time": 83.5568182,
                "end_time": 83.675,
                "pitch": 41,
                "velocity": 51,
                "duration": 0.1181818,
                "tempo": 120.0
            },
            {
                "start_time": 83.6909091,
                "end_time": 83.8090909,
                "pitch": 41,
                "velocity": 51,
                "duration": 0.1181818,
                "tempo": 120.0
            },
            {
                "start_time": 83.825,
                "end_time": 83.9409091,
                "pitch": 42,
                "velocity": 51,
                "duration": 0.1159091,
                "tempo": 120.0
            },
            {
                "start_time": 83.9590909,
                "end_time": 84.075,
                "pitch": 41,
                "velocity": 51,
                "duration": 0.1159091,
                "tempo": 120.0
            },
            {
                "start_time": 84.0909091,
                "end_time": 84.2090909,
                "pitch": 41,
                "velocity": 51,
                "duration": 0.1181818,
                "tempo": 120.0
            },
            {
                "start_time": 84.225,
                "end_time": 84.3431818,
                "pitch": 44,
                "velocity": 51,
                "duration": 0.1181818,
                "tempo": 120.0
            },
            {
                "start_time": 84.3590909,
                "end_time": 84.4772727,
                "pitch": 42,
                "velocity": 51,
                "duration": 0.1181818,
                "tempo": 120.0
            },
            {
                "start_time": 84.4931818,
                "end_time": 84.6113636,
                "pitch": 41,
                "velocity": 51,
                "duration": 0.1181818,
                "tempo": 120.0
            },
            {
                "start_time": 84.6272727,
                "end_time": 84.7454545,
                "pitch": 46,
                "velocity": 51,
                "duration": 0.1181818,
                "tempo": 120.0
            },
            {
                "start_time": 84.7613636,
                "end_time": 84.8795455,
                "pitch": 44,
                "velocity": 51,
                "duration": 0.1181818,
                "tempo": 120.0
            },
            {
                "start_time": 84.8954545,
                "end_time": 85.0136364,
                "pitch": 42,
                "velocity": 51,
                "duration": 0.1181818,
                "tempo": 120.0
            },
            {
                "start_time": 85.0295455,
                "end_time": 85.1477273,
                "pitch": 41,
                "velocity": 51,
                "duration": 0.1181818,
                "tempo": 120.0
            },
            {
                "start_time": 85.1636364,
                "end_time": 85.2795455,
                "pitch": 42,
                "velocity": 51,
                "duration": 0.1159091,
                "tempo": 120.0
            },
            {
                "start_time": 85.2977273,
                "end_time": 85.4136364,
                "pitch": 44,
                "velocity": 51,
                "duration": 0.1159091,
                "tempo": 120.0
            },
            {
                "start_time": 85.4295455,
                "end_time": 85.5477273,
                "pitch": 46,
                "velocity": 51,
                "duration": 0.1181818,
                "tempo": 120.0
            },
            {
                "start_time": 85.5636364,
                "end_time": 85.6818182,
                "pitch": 48,
                "velocity": 51,
                "duration": 0.1181818,
                "tempo": 120.0
            },
            {
                "start_time": 85.7,
                "end_time": 85.8159091,
                "pitch": 49,
                "velocity": 51,
                "duration": 0.1159091,
                "tempo": 120.0
            },
            {
                "start_time": 85.8340909,
                "end_time": 86.0840909,
                "pitch": 51,
                "velocity": 51,
                "duration": 0.25,
                "tempo": 120.0
            },
            {
                "start_time": 86.1,
                "end_time": 86.35,
                "pitch": 53,
                "velocity": 51,
                "duration": 0.25,
                "tempo": 120.0
            },
            {
                "start_time": 86.3681818,
                "end_time": 86.6181818,
                "pitch": 54,
                "velocity": 51,
                "duration": 0.25,
                "tempo": 120.0
            },
            {
                "start_time": 86.6363636,
                "end_time": 86.7522727,
                "pitch": 41,
                "velocity": 51,
                "duration": 0.1159091,
                "tempo": 120.0
            },
            {
                "start_time": 86.7704545,
                "end_time": 86.8863636,
                "pitch": 41,
                "velocity": 51,
                "duration": 0.1159091,
                "tempo": 120.0
            },
            {
                "start_time": 86.9045455,
                "end_time": 87.0227273,
                "pitch": 41,
                "velocity": 51,
                "duration": 0.1181818,
                "tempo": 120.0
            },
            {
                "start_time": 87.0386364,
                "end_time": 87.1545455,
                "pitch": 42,
                "velocity": 51,
                "duration": 0.1159091,
                "tempo": 120.0
            },
            {
                "start_time": 87.1727273,
                "end_time": 87.2886364,
                "pitch": 41,
                "velocity": 51,
                "duration": 0.1159091,
                "tempo": 120.0
            },
            {
                "start_time": 87.3045455,
                "end_time": 87.4227273,
                "pitch": 41,
                "velocity": 51,
                "duration": 0.1181818,
                "tempo": 120.0
            },
            {
                "start_time": 87.4386364,
                "end_time": 87.5568182,
                "pitch": 44,
                "velocity": 51,
                "duration": 0.1181818,
                "tempo": 120.0
            },
            {
                "start_time": 87.5727273,
                "end_time": 87.6909091,
                "pitch": 42,
                "velocity": 51,
                "duration": 0.1181818,
                "tempo": 120.0
            },
            {
                "start_time": 87.7068182,
                "end_time": 87.825,
                "pitch": 41,
                "velocity": 51,
                "duration": 0.1181818,
                "tempo": 120.0
            },
            {
                "start_time": 87.8409091,
                "end_time": 87.9568182,
                "pitch": 46,
                "velocity": 51,
                "duration": 0.1159091,
                "tempo": 120.0
            },
            {
                "start_time": 87.975,
                "end_time": 88.0909091,
                "pitch": 44,
                "velocity": 51,
                "duration": 0.1159091,
                "tempo": 120.0
            },
            {
                "start_time": 88.1068182,
                "end_time": 88.225,
                "pitch": 42,
                "velocity": 51,
                "duration": 0.1181818,
                "tempo": 120.0
            },
            {
                "start_time": 88.2409091,
                "end_time": 88.3590909,
                "pitch": 41,
                "velocity": 51,
                "duration": 0.1181818,
                "tempo": 120.0
            },
            {
                "start_time": 88.375,
                "end_time": 88.4931818,
                "pitch": 41,
                "velocity": 51,
                "duration": 0.1181818,
                "tempo": 120.0
            },
            {
                "start_time": 88.5090909,
                "end_time": 88.6272727,
                "pitch": 41,
                "velocity": 51,
                "duration": 0.1181818,
                "tempo": 120.0
            },
            {
                "start_time": 88.6431818,
                "end_time": 88.7613636,
                "pitch": 42,
                "velocity": 51,
                "duration": 0.1181818,
                "tempo": 120.0
            },
            {
                "start_time": 88.7772727,
                "end_time": 88.8954545,
                "pitch": 41,
                "velocity": 51,
                "duration": 0.1181818,
                "tempo": 120.0
            },
            {
                "start_time": 88.9113636,
                "end_time": 89.0295455,
                "pitch": 41,
                "velocity": 51,
                "duration": 0.1181818,
                "tempo": 120.0
            },
            {
                "start_time": 89.0454545,
                "end_time": 89.1636364,
                "pitch": 44,
                "velocity": 51,
                "duration": 0.1181818,
                "tempo": 120.0
            },
            {
                "start_time": 89.1795455,
                "end_time": 89.2954545,
                "pitch": 42,
                "velocity": 51,
                "duration": 0.1159091,
                "tempo": 120.0
            },
            {
                "start_time": 89.3136364,
                "end_time": 89.4295455,
                "pitch": 41,
                "velocity": 51,
                "duration": 0.1159091,
                "tempo": 120.0
            },
            {
                "start_time": 89.4454545,
                "end_time": 89.5636364,
                "pitch": 49,
                "velocity": 51,
                "duration": 0.1181818,
                "tempo": 120.0
            },
            {
                "start_time": 89.5818182,
                "end_time": 89.6977273,
                "pitch": 48,
                "velocity": 51,
                "duration": 0.1159091,
                "tempo": 120.0
            },
            {
                "start_time": 89.7159091,
                "end_time": 89.8318182,
                "pitch": 46,
                "velocity": 51,
                "duration": 0.1159091,
                "tempo": 120.0
            },
            {
                "start_time": 89.85,
                "end_time": 89.9659091,
                "pitch": 41,
                "velocity": 51,
                "duration": 0.1159091,
                "tempo": 120.0
            },
            {
                "start_time": 89.9818182,
                "end_time": 90.1,
                "pitch": 41,
                "velocity": 51,
                "duration": 0.1181818,
                "tempo": 120.0
            },
            {
                "start_time": 90.1159091,
                "end_time": 90.2318182,
                "pitch": 41,
                "velocity": 51,
                "duration": 0.1159091,
                "tempo": 120.0
            },
            {
                "start_time": 90.25,
                "end_time": 90.3659091,
                "pitch": 42,
                "velocity": 51,
                "duration": 0.1159091,
                "tempo": 120.0
            },
            {
                "start_time": 90.3840909,
                "end_time": 90.5,
                "pitch": 41,
                "velocity": 51,
                "duration": 0.1159091,
                "tempo": 120.0
            },
            {
                "start_time": 90.5181818,
                "end_time": 90.6340909,
                "pitch": 41,
                "velocity": 51,
                "duration": 0.1159091,
                "tempo": 120.0
            },
            {
                "start_time": 90.6522727,
                "end_time": 90.7704545,
                "pitch": 44,
                "velocity": 51,
                "duration": 0.1181818,
                "tempo": 120.0
            },
            {
                "start_time": 90.7863636,
                "end_time": 90.9045455,
                "pitch": 42,
                "velocity": 51,
                "duration": 0.1181818,
                "tempo": 120.0
            },
            {
                "start_time": 90.9204545,
                "end_time": 91.0386364,
                "pitch": 41,
                "velocity": 51,
                "duration": 0.1181818,
                "tempo": 120.0
            },
            {
                "start_time": 91.0545455,
                "end_time": 91.1704545,
                "pitch": 46,
                "velocity": 51,
                "duration": 0.1159091,
                "tempo": 120.0
            },
            {
                "start_time": 91.1886364,
                "end_time": 91.3045455,
                "pitch": 44,
                "velocity": 51,
                "duration": 0.1159091,
                "tempo": 120.0
            },
            {
                "start_time": 91.3204545,
                "end_time": 91.4386364,
                "pitch": 42,
                "velocity": 51,
                "duration": 0.1181818,
                "tempo": 120.0
            },
            {
                "start_time": 91.4545455,
                "end_time": 91.7068182,
                "pitch": 41,
                "velocity": 51,
                "duration": 0.2522727,
                "tempo": 120.0
            },
            {
                "start_time": 91.7227273,
                "end_time": 91.8409091,
                "pitch": 41,
                "velocity": 51,
                "duration": 0.1181818,
                "tempo": 120.0
            },
            {
                "start_time": 91.8568182,
                "end_time": 91.975,
                "pitch": 41,
                "velocity": 51,
                "duration": 0.1181818,
                "tempo": 120.0
            },
            {
                "start_time": 91.9909091,
                "end_time": 92.1068182,
                "pitch": 41,
                "velocity": 51,
                "duration": 0.1159091,
                "tempo": 120.0
            },
            {
                "start_time": 92.125,
                "end_time": 92.2409091,
                "pitch": 41,
                "velocity": 51,
                "duration": 0.1159091,
                "tempo": 120.0
            },
            {
                "start_time": 92.2568182,
                "end_time": 92.5090909,
                "pitch": 41,
                "velocity": 51,
                "duration": 0.2522727,
                "tempo": 120.0
            },
            {
                "start_time": 92.525,
                "end_time": 92.6431818,
                "pitch": 41,
                "velocity": 51,
                "duration": 0.1181818,
                "tempo": 120.0
            },
            {
                "start_time": 92.6590909,
                "end_time": 92.7772727,
                "pitch": 41,
                "velocity": 51,
                "duration": 0.1181818,
                "tempo": 120.0
            },
            {
                "start_time": 92.7931818,
                "end_time": 92.9113636,
                "pitch": 41,
                "velocity": 51,
                "duration": 0.1181818,
                "tempo": 120.0
            },
            {
                "start_time": 92.9295455,
                "end_time": 93.0454545,
                "pitch": 41,
                "velocity": 51,
                "duration": 0.1159091,
                "tempo": 120.0
            },
            {
                "start_time": 93.0636364,
                "end_time": 93.3136364,
                "pitch": 36,
                "velocity": 51,
                "duration": 0.25,
                "tempo": 120.0
            },
            {
                "start_time": 93.3295455,
                "end_time": 93.4454545,
                "pitch": 36,
                "velocity": 51,
                "duration": 0.1159091,
                "tempo": 120.0
            },
            {
                "start_time": 93.4636364,
                "end_time": 93.5795455,
                "pitch": 36,
                "velocity": 51,
                "duration": 0.1159091,
                "tempo": 120.0
            },
            {
                "start_time": 93.5977273,
                "end_time": 93.7136364,
                "pitch": 36,
                "velocity": 51,
                "duration": 0.1159091,
                "tempo": 120.0
            },
            {
                "start_time": 93.7318182,
                "end_time": 93.8477273,
                "pitch": 36,
                "velocity": 51,
                "duration": 0.1159091,
                "tempo": 120.0
            },
            {
                "start_time": 93.8659091,
                "end_time": 94.1159091,
                "pitch": 36,
                "velocity": 51,
                "duration": 0.25,
                "tempo": 120.0
            },
            {
                "start_time": 94.1318182,
                "end_time": 94.2477273,
                "pitch": 36,
                "velocity": 51,
                "duration": 0.1159091,
                "tempo": 120.0
            },
            {
                "start_time": 94.2659091,
                "end_time": 94.3818182,
                "pitch": 36,
                "velocity": 51,
                "duration": 0.1159091,
                "tempo": 120.0
            },
            {
                "start_time": 94.4,
                "end_time": 94.5159091,
                "pitch": 36,
                "velocity": 51,
                "duration": 0.1159091,
                "tempo": 120.0
            },
            {
                "start_time": 94.5340909,
                "end_time": 94.6522727,
                "pitch": 36,
                "velocity": 51,
                "duration": 0.1181818,
                "tempo": 120.0
            },
            {
                "start_time": 94.6681818,
                "end_time": 94.9204545,
                "pitch": 41,
                "velocity": 51,
                "duration": 0.2522727,
                "tempo": 120.0
            },
            {
                "start_time": 94.9363636,
                "end_time": 95.0545455,
                "pitch": 41,
                "velocity": 51,
                "duration": 0.1181818,
                "tempo": 120.0
            },
            {
                "start_time": 95.0704545,
                "end_time": 95.1863636,
                "pitch": 41,
                "velocity": 51,
                "duration": 0.1159091,
                "tempo": 120.0
            },
            {
                "start_time": 95.2045455,
                "end_time": 95.3204545,
                "pitch": 41,
                "velocity": 51,
                "duration": 0.1159091,
                "tempo": 120.0
            },
            {
                "start_time": 95.3363636,
                "end_time": 95.4545455,
                "pitch": 41,
                "velocity": 51,
                "duration": 0.1181818,
                "tempo": 120.0
            },
            {
                "start_time": 95.4704545,
                "end_time": 95.7227273,
                "pitch": 41,
                "velocity": 51,
                "duration": 0.2522727,
                "tempo": 120.0
            },
            {
                "start_time": 95.7386364,
                "end_time": 95.8568182,
                "pitch": 41,
                "velocity": 51,
                "duration": 0.1181818,
                "tempo": 120.0
            },
            {
                "start_time": 95.8727273,
                "end_time": 95.9909091,
                "pitch": 41,
                "velocity": 51,
                "duration": 0.1181818,
                "tempo": 120.0
            },
            {
                "start_time": 96.0068182,
                "end_time": 96.1227273,
                "pitch": 41,
                "velocity": 51,
                "duration": 0.1159091,
                "tempo": 120.0
            },
            {
                "start_time": 96.1409091,
                "end_time": 96.2568182,
                "pitch": 41,
                "velocity": 51,
                "duration": 0.1159091,
                "tempo": 120.0
            },
            {
                "start_time": 96.2727273,
                "end_time": 96.525,
                "pitch": 42,
                "velocity": 51,
                "duration": 0.2522727,
                "tempo": 120.0
            },
            {
                "start_time": 96.5409091,
                "end_time": 96.6590909,
                "pitch": 42,
                "velocity": 51,
                "duration": 0.1181818,
                "tempo": 120.0
            },
            {
                "start_time": 96.675,
                "end_time": 96.7931818,
                "pitch": 42,
                "velocity": 51,
                "duration": 0.1181818,
                "tempo": 120.0
            },
            {
                "start_time": 96.8113636,
                "end_time": 96.9272727,
                "pitch": 42,
                "velocity": 51,
                "duration": 0.1159091,
                "tempo": 120.0
            },
            {
                "start_time": 96.9454545,
                "end_time": 97.0613636,
                "pitch": 42,
                "velocity": 51,
                "duration": 0.1159091,
                "tempo": 120.0
            },
            {
                "start_time": 97.0795455,
                "end_time": 97.3295455,
                "pitch": 42,
                "velocity": 51,
                "duration": 0.25,
                "tempo": 120.0
            },
            {
                "start_time": 97.3454545,
                "end_time": 97.4613636,
                "pitch": 42,
                "velocity": 51,
                "duration": 0.1159091,
                "tempo": 120.0
            },
            {
                "start_time": 97.4795455,
                "end_time": 97.5954545,
                "pitch": 42,
                "velocity": 51,
                "duration": 0.1159091,
                "tempo": 120.0
            },
            {
                "start_time": 97.6136364,
                "end_time": 97.7295455,
                "pitch": 42,
                "velocity": 51,
                "duration": 0.1159091,
                "tempo": 120.0
            },
            {
                "start_time": 97.7477273,
                "end_time": 97.8636364,
                "pitch": 42,
                "velocity": 51,
                "duration": 0.1159091,
                "tempo": 120.0
            },
            {
                "start_time": 97.8818182,
                "end_time": 98.1318182,
                "pitch": 39,
                "velocity": 51,
                "duration": 0.25,
                "tempo": 120.0
            },
            {
                "start_time": 98.1477273,
                "end_time": 98.2659091,
                "pitch": 39,
                "velocity": 51,
                "duration": 0.1181818,
                "tempo": 120.0
            },
            {
                "start_time": 98.2818182,
                "end_time": 98.4,
                "pitch": 39,
                "velocity": 51,
                "duration": 0.1181818,
                "tempo": 120.0
            },
            {
                "start_time": 98.4159091,
                "end_time": 98.5340909,
                "pitch": 39,
                "velocity": 51,
                "duration": 0.1181818,
                "tempo": 120.0
            },
            {
                "start_time": 98.55,
                "end_time": 98.6681818,
                "pitch": 39,
                "velocity": 51,
                "duration": 0.1181818,
                "tempo": 120.0
            },
            {
                "start_time": 98.6840909,
                "end_time": 98.8022727,
                "pitch": 39,
                "velocity": 51,
                "duration": 0.1181818,
                "tempo": 120.0
            },
            {
                "start_time": 98.8181818,
                "end_time": 98.9363636,
                "pitch": 46,
                "velocity": 51,
                "duration": 0.1181818,
                "tempo": 120.0
            },
            {
                "start_time": 98.9522727,
                "end_time": 99.0704545,
                "pitch": 49,
                "velocity": 51,
                "duration": 0.1181818,
                "tempo": 120.0
            },
            {
                "start_time": 99.0863636,
                "end_time": 99.2,
                "pitch": 53,
                "velocity": 51,
                "duration": 0.1136364,
                "tempo": 120.0
            },
            {
                "start_time": 99.2181818,
                "end_time": 99.3318182,
                "pitch": 51,
                "velocity": 51,
                "duration": 0.1136364,
                "tempo": 120.0
            },
            {
                "start_time": 99.3477273,
                "end_time": 99.4613636,
                "pitch": 49,
                "velocity": 51,
                "duration": 0.1136364,
                "tempo": 120.0
            },
            {
                "start_time": 99.4795455,
                "end_time": 99.7363636,
                "pitch": 37,
                "velocity": 51,
                "duration": 0.2568182,
                "tempo": 120.0
            },
            {
                "start_time": 99.7522727,
                "end_time": 99.8727273,
                "pitch": 37,
                "velocity": 51,
                "duration": 0.1204545,
                "tempo": 120.0
            },
            {
                "start_time": 99.8886364,
                "end_time": 100.0068182,
                "pitch": 37,
                "velocity": 51,
                "duration": 0.1181818,
                "tempo": 120.0
            },
            {
                "start_time": 100.0227273,
                "end_time": 100.1386364,
                "pitch": 37,
                "velocity": 51,
                "duration": 0.1159091,
                "tempo": 120.0
            },
            {
                "start_time": 100.1568182,
                "end_time": 100.2727273,
                "pitch": 37,
                "velocity": 51,
                "duration": 0.1159091,
                "tempo": 120.0
            },
            {
                "start_time": 100.2886364,
                "end_time": 100.5409091,
                "pitch": 37,
                "velocity": 51,
                "duration": 0.2522727,
                "tempo": 120.0
            },
            {
                "start_time": 100.5590909,
                "end_time": 100.675,
                "pitch": 37,
                "velocity": 51,
                "duration": 0.1159091,
                "tempo": 120.0
            },
            {
                "start_time": 100.6931818,
                "end_time": 100.8113636,
                "pitch": 37,
                "velocity": 51,
                "duration": 0.1181818,
                "tempo": 120.0
            },
            {
                "start_time": 100.8295455,
                "end_time": 100.95,
                "pitch": 37,
                "velocity": 51,
                "duration": 0.1204545,
                "tempo": 120.0
            },
            {
                "start_time": 100.9659091,
                "end_time": 101.0863636,
                "pitch": 37,
                "velocity": 51,
                "duration": 0.1204545,
                "tempo": 120.0
            },
            {
                "start_time": 101.1022727,
                "end_time": 101.4795455,
                "pitch": 39,
                "velocity": 51,
                "duration": 0.3772727,
                "tempo": 120.0
            },
            {
                "start_time": 101.4954545,
                "end_time": 101.8818182,
                "pitch": 41,
                "velocity": 51,
                "duration": 0.3863636,
                "tempo": 120.0
            },
            {
                "start_time": 101.8977273,
                "end_time": 102.2818182,
                "pitch": 42,
                "velocity": 51,
                "duration": 0.3840909,
                "tempo": 120.0
            },
            {
                "start_time": 102.2977273,
                "end_time": 102.6909091,
                "pitch": 41,
                "velocity": 51,
                "duration": 0.3931818,
                "tempo": 120.0
            },
            {
                "start_time": 102.7090909,
                "end_time": 102.9545455,
                "pitch": 42,
                "velocity": 51,
                "duration": 0.2454545,
                "tempo": 120.0
            },
            {
                "start_time": 102.9704545,
                "end_time": 103.0840909,
                "pitch": 42,
                "velocity": 51,
                "duration": 0.1136364,
                "tempo": 120.0
            },
            {
                "start_time": 103.1,
                "end_time": 103.2181818,
                "pitch": 42,
                "velocity": 51,
                "duration": 0.1181818,
                "tempo": 120.0
            },
            {
                "start_time": 103.2340909,
                "end_time": 103.35,
                "pitch": 42,
                "velocity": 51,
                "duration": 0.1159091,
                "tempo": 120.0
            },
            {
                "start_time": 103.3681818,
                "end_time": 103.4840909,
                "pitch": 42,
                "velocity": 51,
                "duration": 0.1159091,
                "tempo": 120.0
            },
            {
                "start_time": 103.5,
                "end_time": 103.7522727,
                "pitch": 42,
                "velocity": 51,
                "duration": 0.2522727,
                "tempo": 120.0
            },
            {
                "start_time": 103.7681818,
                "end_time": 103.8863636,
                "pitch": 42,
                "velocity": 51,
                "duration": 0.1181818,
                "tempo": 120.0
            },
            {
                "start_time": 103.9045455,
                "end_time": 104.0204545,
                "pitch": 42,
                "velocity": 51,
                "duration": 0.1159091,
                "tempo": 120.0
            },
            {
                "start_time": 104.0363636,
                "end_time": 104.1545455,
                "pitch": 42,
                "velocity": 51,
                "duration": 0.1181818,
                "tempo": 120.0
            },
            {
                "start_time": 104.1704545,
                "end_time": 104.2863636,
                "pitch": 42,
                "velocity": 51,
                "duration": 0.1159091,
                "tempo": 120.0
            },
            {
                "start_time": 104.3045455,
                "end_time": 104.5545455,
                "pitch": 39,
                "velocity": 51,
                "duration": 0.25,
                "tempo": 120.0
            },
            {
                "start_time": 104.5727273,
                "end_time": 104.6886364,
                "pitch": 39,
                "velocity": 51,
                "duration": 0.1159091,
                "tempo": 120.0
            },
            {
                "start_time": 104.7068182,
                "end_time": 104.8227273,
                "pitch": 39,
                "velocity": 51,
                "duration": 0.1159091,
                "tempo": 120.0
            },
            {
                "start_time": 104.8409091,
                "end_time": 104.9568182,
                "pitch": 39,
                "velocity": 51,
                "duration": 0.1159091,
                "tempo": 120.0
            },
            {
                "start_time": 104.975,
                "end_time": 105.0931818,
                "pitch": 39,
                "velocity": 51,
                "duration": 0.1181818,
                "tempo": 120.0
            },
            {
                "start_time": 105.1090909,
                "end_time": 105.225,
                "pitch": 39,
                "velocity": 51,
                "duration": 0.1159091,
                "tempo": 120.0
            },
            {
                "start_time": 105.2431818,
                "end_time": 105.3590909,
                "pitch": 46,
                "velocity": 51,
                "duration": 0.1159091,
                "tempo": 120.0
            },
            {
                "start_time": 105.375,
                "end_time": 105.4931818,
                "pitch": 49,
                "velocity": 51,
                "duration": 0.1181818,
                "tempo": 120.0
            },
            {
                "start_time": 105.5090909,
                "end_time": 105.6272727,
                "pitch": 53,
                "velocity": 51,
                "duration": 0.1181818,
                "tempo": 120.0
            },
            {
                "start_time": 105.6431818,
                "end_time": 105.7613636,
                "pitch": 51,
                "velocity": 51,
                "duration": 0.1181818,
                "tempo": 120.0
            },
            {
                "start_time": 105.7772727,
                "end_time": 105.8954545,
                "pitch": 49,
                "velocity": 51,
                "duration": 0.1181818,
                "tempo": 120.0
            },
            {
                "start_time": 105.9113636,
                "end_time": 106.1613636,
                "pitch": 37,
                "velocity": 51,
                "duration": 0.25,
                "tempo": 120.0
            },
            {
                "start_time": 106.1772727,
                "end_time": 106.2954545,
                "pitch": 37,
                "velocity": 51,
                "duration": 0.1181818,
                "tempo": 120.0
            },
            {
                "start_time": 106.3113636,
                "end_time": 106.4318182,
                "pitch": 37,
                "velocity": 51,
                "duration": 0.1204545,
                "tempo": 120.0
            },
            {
                "start_time": 106.4477273,
                "end_time": 106.5681818,
                "pitch": 37,
                "velocity": 51,
                "duration": 0.1204545,
                "tempo": 120.0
            },
            {
                "start_time": 106.5863636,
                "end_time": 106.7045455,
                "pitch": 37,
                "velocity": 51,
                "duration": 0.1181818,
                "tempo": 120.0
            },
            {
                "start_time": 106.7227273,
                "end_time": 106.9681818,
                "pitch": 37,
                "velocity": 51,
                "duration": 0.2454545,
                "tempo": 120.0
            },
            {
                "start_time": 106.9840909,
                "end_time": 107.0977273,
                "pitch": 37,
                "velocity": 51,
                "duration": 0.1136364,
                "tempo": 120.0
            },
            {
                "start_time": 107.1136364,
                "end_time": 107.2318182,
                "pitch": 37,
                "velocity": 51,
                "duration": 0.1181818,
                "tempo": 120.0
            },
            {
                "start_time": 107.2477273,
                "end_time": 107.3636364,
                "pitch": 37,
                "velocity": 51,
                "duration": 0.1159091,
                "tempo": 120.0
            },
            {
                "start_time": 107.3818182,
                "end_time": 107.4977273,
                "pitch": 37,
                "velocity": 51,
                "duration": 0.1159091,
                "tempo": 120.0
            },
            {
                "start_time": 107.5136364,
                "end_time": 107.7659091,
                "pitch": 36,
                "velocity": 51,
                "duration": 0.2522727,
                "tempo": 120.0
            },
            {
                "start_time": 107.7818182,
                "end_time": 107.9,
                "pitch": 36,
                "velocity": 51,
                "duration": 0.1181818,
                "tempo": 120.0
            },
            {
                "start_time": 107.9181818,
                "end_time": 108.0340909,
                "pitch": 36,
                "velocity": 51,
                "duration": 0.1159091,
                "tempo": 120.0
            },
            {
                "start_time": 108.05,
                "end_time": 108.1681818,
                "pitch": 36,
                "velocity": 51,
                "duration": 0.1181818,
                "tempo": 120.0
            },
            {
                "start_time": 108.1840909,
                "end_time": 108.3,
                "pitch": 36,
                "velocity": 51,
                "duration": 0.1159091,
                "tempo": 120.0
            },
            {
                "start_time": 108.3181818,
                "end_time": 108.5681818,
                "pitch": 34,
                "velocity": 51,
                "duration": 0.25,
                "tempo": 120.0
            },
            {
                "start_time": 108.5863636,
                "end_time": 108.8363636,
                "pitch": 41,
                "velocity": 51,
                "duration": 0.25,
                "tempo": 120.0
            },
            {
                "start_time": 108.8545455,
                "end_time": 109.1045455,
                "pitch": 34,
                "velocity": 51,
                "duration": 0.25,
                "tempo": 120.0
            },
            {
                "start_time": 109.1227273,
                "end_time": 109.3727273,
                "pitch": 34,
                "velocity": 51,
                "duration": 0.25,
                "tempo": 120.0
            },
            {
                "start_time": 109.3886364,
                "end_time": 109.5068182,
                "pitch": 34,
                "velocity": 51,
                "duration": 0.1181818,
                "tempo": 120.0
            },
            {
                "start_time": 109.5227273,
                "end_time": 109.6409091,
                "pitch": 34,
                "velocity": 51,
                "duration": 0.1181818,
                "tempo": 120.0
            },
            {
                "start_time": 109.6568182,
                "end_time": 109.775,
                "pitch": 34,
                "velocity": 51,
                "duration": 0.1181818,
                "tempo": 120.0
            },
            {
                "start_time": 109.7909091,
                "end_time": 109.9090909,
                "pitch": 34,
                "velocity": 51,
                "duration": 0.1181818,
                "tempo": 120.0
            },
            {
                "start_time": 109.925,
                "end_time": 110.175,
                "pitch": 46,
                "velocity": 51,
                "duration": 0.25,
                "tempo": 120.0
            },
            {
                "start_time": 110.1909091,
                "end_time": 110.3090909,
                "pitch": 44,
                "velocity": 51,
                "duration": 0.1181818,
                "tempo": 120.0
            },
            {
                "start_time": 110.325,
                "end_time": 110.5772727,
                "pitch": 44,
                "velocity": 51,
                "duration": 0.2522727,
                "tempo": 120.0
            },
            {
                "start_time": 110.5931818,
                "end_time": 110.7113636,
                "pitch": 46,
                "velocity": 51,
                "duration": 0.1181818,
                "tempo": 120.0
            },
            {
                "start_time": 110.7272727,
                "end_time": 110.9795455,
                "pitch": 34,
                "velocity": 51,
                "duration": 0.2522727,
                "tempo": 120.0
            },
            {
                "start_time": 110.9954545,
                "end_time": 111.1136364,
                "pitch": 34,
                "velocity": 51,
                "duration": 0.1181818,
                "tempo": 120.0
            },
            {
                "start_time": 111.1295455,
                "end_time": 111.2477273,
                "pitch": 34,
                "velocity": 51,
                "duration": 0.1181818,
                "tempo": 120.0
            },
            {
                "start_time": 111.2636364,
                "end_time": 111.3795455,
                "pitch": 34,
                "velocity": 51,
                "duration": 0.1159091,
                "tempo": 120.0
            },
            {
                "start_time": 111.3977273,
                "end_time": 111.5136364,
                "pitch": 34,
                "velocity": 51,
                "duration": 0.1159091,
                "tempo": 120.0
            },
            {
                "start_time": 111.5295455,
                "end_time": 111.7818182,
                "pitch": 42,
                "velocity": 51,
                "duration": 0.2522727,
                "tempo": 120.0
            },
            {
                "start_time": 111.8,
                "end_time": 111.9159091,
                "pitch": 44,
                "velocity": 51,
                "duration": 0.1159091,
                "tempo": 120.0
            },
            {
                "start_time": 111.9340909,
                "end_time": 112.05,
                "pitch": 44,
                "velocity": 51,
                "duration": 0.1159091,
                "tempo": 120.0
            },
            {
                "start_time": 112.0659091,
                "end_time": 112.1840909,
                "pitch": 34,
                "velocity": 51,
                "duration": 0.1181818,
                "tempo": 120.0
            },
            {
                "start_time": 112.2,
                "end_time": 112.3159091,
                "pitch": 34,
                "velocity": 51,
                "duration": 0.1159091,
                "tempo": 120.0
            },
            {
                "start_time": 112.3340909,
                "end_time": 112.5840909,
                "pitch": 34,
                "velocity": 51,
                "duration": 0.25,
                "tempo": 120.0
            },
            {
                "start_time": 112.6022727,
                "end_time": 112.7181818,
                "pitch": 34,
                "velocity": 51,
                "duration": 0.1159091,
                "tempo": 120.0
            },
            {
                "start_time": 112.7363636,
                "end_time": 112.8522727,
                "pitch": 34,
                "velocity": 51,
                "duration": 0.1159091,
                "tempo": 120.0
            },
            {
                "start_time": 112.8704545,
                "end_time": 112.9886364,
                "pitch": 34,
                "velocity": 51,
                "duration": 0.1181818,
                "tempo": 120.0
            },
            {
                "start_time": 113.0045455,
                "end_time": 113.1227273,
                "pitch": 34,
                "velocity": 51,
                "duration": 0.1181818,
                "tempo": 120.0
            },
            {
                "start_time": 113.1386364,
                "end_time": 113.3886364,
                "pitch": 46,
                "velocity": 51,
                "duration": 0.25,
                "tempo": 120.0
            },
            {
                "start_time": 113.4045455,
                "end_time": 113.5227273,
                "pitch": 44,
                "velocity": 51,
                "duration": 0.1181818,
                "tempo": 120.0
            },
            {
                "start_time": 113.5386364,
                "end_time": 113.7909091,
                "pitch": 44,
                "velocity": 51,
                "duration": 0.2522727,
                "tempo": 120.0
            },
            {
                "start_time": 113.8068182,
                "end_time": 113.925,
                "pitch": 46,
                "velocity": 51,
                "duration": 0.1181818,
                "tempo": 120.0
            },
            {
                "start_time": 113.9409091,
                "end_time": 114.1909091,
                "pitch": 34,
                "velocity": 51,
                "duration": 0.25,
                "tempo": 120.0
            },
            {
                "start_time": 114.2068182,
                "end_time": 114.325,
                "pitch": 34,
                "velocity": 51,
                "duration": 0.1181818,
                "tempo": 120.0
            },
            {
                "start_time": 114.3409091,
                "end_time": 114.4590909,
                "pitch": 34,
                "velocity": 51,
                "duration": 0.1181818,
                "tempo": 120.0
            },
            {
                "start_time": 114.475,
                "end_time": 114.5931818,
                "pitch": 34,
                "velocity": 51,
                "duration": 0.1181818,
                "tempo": 120.0
            },
            {
                "start_time": 114.6090909,
                "end_time": 114.7272727,
                "pitch": 34,
                "velocity": 51,
                "duration": 0.1181818,
                "tempo": 120.0
            },
            {
                "start_time": 114.7431818,
                "end_time": 114.9954545,
                "pitch": 42,
                "velocity": 51,
                "duration": 0.2522727,
                "tempo": 120.0
            },
            {
                "start_time": 115.0113636,
                "end_time": 115.1295455,
                "pitch": 44,
                "velocity": 51,
                "duration": 0.1181818,
                "tempo": 120.0
            },
            {
                "start_time": 115.1477273,
                "end_time": 115.2636364,
                "pitch": 44,
                "velocity": 51,
                "duration": 0.1159091,
                "tempo": 120.0
            },
            {
                "start_time": 115.2795455,
                "end_time": 115.3977273,
                "pitch": 34,
                "velocity": 51,
                "duration": 0.1181818,
                "tempo": 120.0
            },
            {
                "start_time": 115.4136364,
                "end_time": 115.5295455,
                "pitch": 34,
                "velocity": 51,
                "duration": 0.1159091,
                "tempo": 120.0
            },
            {
                "start_time": 115.5477273,
                "end_time": 115.8022727,
                "pitch": 44,
                "velocity": 51,
                "duration": 0.2545455,
                "tempo": 120.0
            },
            {
                "start_time": 115.8204545,
                "end_time": 115.9409091,
                "pitch": 44,
                "velocity": 51,
                "duration": 0.1204545,
                "tempo": 120.0
            },
            {
                "start_time": 115.9568182,
                "end_time": 116.0727273,
                "pitch": 44,
                "velocity": 51,
                "duration": 0.1159091,
                "tempo": 120.0
            },
            {
                "start_time": 116.0886364,
                "end_time": 116.2022727,
                "pitch": 44,
                "velocity": 51,
                "duration": 0.1136364,
                "tempo": 120.0
            },
            {
                "start_time": 116.2181818,
                "end_time": 116.3340909,
                "pitch": 44,
                "velocity": 51,
                "duration": 0.1159091,
                "tempo": 120.0
            },
            {
                "start_time": 116.35,
                "end_time": 116.6,
                "pitch": 44,
                "velocity": 51,
                "duration": 0.25,
                "tempo": 120.0
            },
            {
                "start_time": 116.6181818,
                "end_time": 116.7363636,
                "pitch": 44,
                "velocity": 51,
                "duration": 0.1181818,
                "tempo": 120.0
            },
            {
                "start_time": 116.7522727,
                "end_time": 116.8704545,
                "pitch": 44,
                "velocity": 51,
                "duration": 0.1181818,
                "tempo": 120.0
            },
            {
                "start_time": 116.8863636,
                "end_time": 117.0045455,
                "pitch": 44,
                "velocity": 51,
                "duration": 0.1181818,
                "tempo": 120.0
            },
            {
                "start_time": 117.0204545,
                "end_time": 117.1386364,
                "pitch": 44,
                "velocity": 51,
                "duration": 0.1181818,
                "tempo": 120.0
            },
            {
                "start_time": 117.1545455,
                "end_time": 117.4045455,
                "pitch": 44,
                "velocity": 51,
                "duration": 0.25,
                "tempo": 120.0
            },
            {
                "start_time": 117.4204545,
                "end_time": 117.5386364,
                "pitch": 44,
                "velocity": 51,
                "duration": 0.1181818,
                "tempo": 120.0
            },
            {
                "start_time": 117.5545455,
                "end_time": 117.6727273,
                "pitch": 44,
                "velocity": 51,
                "duration": 0.1181818,
                "tempo": 120.0
            },
            {
                "start_time": 117.6886364,
                "end_time": 117.8068182,
                "pitch": 44,
                "velocity": 51,
                "duration": 0.1181818,
                "tempo": 120.0
            },
            {
                "start_time": 117.8227273,
                "end_time": 117.9409091,
                "pitch": 44,
                "velocity": 51,
                "duration": 0.1181818,
                "tempo": 120.0
            },
            {
                "start_time": 117.9568182,
                "end_time": 118.2068182,
                "pitch": 44,
                "velocity": 51,
                "duration": 0.25,
                "tempo": 120.0
            },
            {
                "start_time": 118.225,
                "end_time": 118.3409091,
                "pitch": 44,
                "velocity": 51,
                "duration": 0.1159091,
                "tempo": 120.0
            },
            {
                "start_time": 118.3568182,
                "end_time": 118.475,
                "pitch": 44,
                "velocity": 51,
                "duration": 0.1181818,
                "tempo": 120.0
            },
            {
                "start_time": 118.4909091,
                "end_time": 118.6090909,
                "pitch": 44,
                "velocity": 51,
                "duration": 0.1181818,
                "tempo": 120.0
            },
            {
                "start_time": 118.625,
                "end_time": 118.7431818,
                "pitch": 44,
                "velocity": 51,
                "duration": 0.1181818,
                "tempo": 120.0
            },
            {
                "start_time": 118.7590909,
                "end_time": 118.8772727,
                "pitch": 41,
                "velocity": 51,
                "duration": 0.1181818,
                "tempo": 120.0
            },
            {
                "start_time": 118.8954545,
                "end_time": 119.0113636,
                "pitch": 41,
                "velocity": 51,
                "duration": 0.1159091,
                "tempo": 120.0
            },
            {
                "start_time": 119.0295455,
                "end_time": 119.1454545,
                "pitch": 41,
                "velocity": 51,
                "duration": 0.1159091,
                "tempo": 120.0
            },
            {
                "start_time": 119.1636364,
                "end_time": 119.2795455,
                "pitch": 42,
                "velocity": 51,
                "duration": 0.1159091,
                "tempo": 120.0
            },
            {
                "start_time": 119.2954545,
                "end_time": 119.4136364,
                "pitch": 41,
                "velocity": 51,
                "duration": 0.1181818,
                "tempo": 120.0
            },
            {
                "start_time": 119.4295455,
                "end_time": 119.5454545,
                "pitch": 41,
                "velocity": 51,
                "duration": 0.1159091,
                "tempo": 120.0
            },
            {
                "start_time": 119.5636364,
                "end_time": 119.6795455,
                "pitch": 44,
                "velocity": 51,
                "duration": 0.1159091,
                "tempo": 120.0
            },
            {
                "start_time": 119.6977273,
                "end_time": 119.8136364,
                "pitch": 42,
                "velocity": 51,
                "duration": 0.1159091,
                "tempo": 120.0
            },
            {
                "start_time": 119.8318182,
                "end_time": 119.9477273,
                "pitch": 41,
                "velocity": 51,
                "duration": 0.1159091,
                "tempo": 120.0
            },
            {
                "start_time": 119.9659091,
                "end_time": 120.0818182,
                "pitch": 46,
                "velocity": 51,
                "duration": 0.1159091,
                "tempo": 120.0
            },
            {
                "start_time": 120.1,
                "end_time": 120.2159091,
                "pitch": 44,
                "velocity": 51,
                "duration": 0.1159091,
                "tempo": 120.0
            },
            {
                "start_time": 120.2318182,
                "end_time": 120.35,
                "pitch": 42,
                "velocity": 51,
                "duration": 0.1181818,
                "tempo": 120.0
            },
            {
                "start_time": 120.3659091,
                "end_time": 120.4840909,
                "pitch": 41,
                "velocity": 51,
                "duration": 0.1181818,
                "tempo": 120.0
            },
            {
                "start_time": 120.5,
                "end_time": 120.6181818,
                "pitch": 41,
                "velocity": 51,
                "duration": 0.1181818,
                "tempo": 120.0
            },
            {
                "start_time": 120.6340909,
                "end_time": 120.7522727,
                "pitch": 41,
                "velocity": 51,
                "duration": 0.1181818,
                "tempo": 120.0
            },
            {
                "start_time": 120.7681818,
                "end_time": 120.8863636,
                "pitch": 42,
                "velocity": 51,
                "duration": 0.1181818,
                "tempo": 120.0
            },
            {
                "start_time": 120.9022727,
                "end_time": 121.0204545,
                "pitch": 41,
                "velocity": 51,
                "duration": 0.1181818,
                "tempo": 120.0
            },
            {
                "start_time": 121.0363636,
                "end_time": 121.1545455,
                "pitch": 41,
                "velocity": 51,
                "duration": 0.1181818,
                "tempo": 120.0
            },
            {
                "start_time": 121.1704545,
                "end_time": 121.2886364,
                "pitch": 44,
                "velocity": 51,
                "duration": 0.1181818,
                "tempo": 120.0
            },
            {
                "start_time": 121.3045455,
                "end_time": 121.4204545,
                "pitch": 42,
                "velocity": 51,
                "duration": 0.1159091,
                "tempo": 120.0
            },
            {
                "start_time": 121.4386364,
                "end_time": 121.5545455,
                "pitch": 41,
                "velocity": 51,
                "duration": 0.1159091,
                "tempo": 120.0
            },
            {
                "start_time": 121.5704545,
                "end_time": 121.6886364,
                "pitch": 49,
                "velocity": 51,
                "duration": 0.1181818,
                "tempo": 120.0
            },
            {
                "start_time": 121.7045455,
                "end_time": 121.8227273,
                "pitch": 48,
                "velocity": 51,
                "duration": 0.1181818,
                "tempo": 120.0
            },
            {
                "start_time": 121.8386364,
                "end_time": 121.9568182,
                "pitch": 42,
                "velocity": 51,
                "duration": 0.1181818,
                "tempo": 120.0
            },
            {
                "start_time": 121.9727273,
                "end_time": 122.0909091,
                "pitch": 41,
                "velocity": 51,
                "duration": 0.1181818,
                "tempo": 120.0
            },
            {
                "start_time": 122.1068182,
                "end_time": 122.2227273,
                "pitch": 41,
                "velocity": 51,
                "duration": 0.1159091,
                "tempo": 120.0
            },
            {
                "start_time": 122.2409091,
                "end_time": 122.3568182,
                "pitch": 41,
                "velocity": 51,
                "duration": 0.1159091,
                "tempo": 120.0
            },
            {
                "start_time": 122.3727273,
                "end_time": 122.4909091,
                "pitch": 42,
                "velocity": 51,
                "duration": 0.1181818,
                "tempo": 120.0
            },
            {
                "start_time": 122.5068182,
                "end_time": 122.625,
                "pitch": 41,
                "velocity": 51,
                "duration": 0.1181818,
                "tempo": 120.0
            },
            {
                "start_time": 122.6431818,
                "end_time": 122.7590909,
                "pitch": 41,
                "velocity": 51,
                "duration": 0.1159091,
                "tempo": 120.0
            },
            {
                "start_time": 122.7772727,
                "end_time": 122.8931818,
                "pitch": 44,
                "velocity": 51,
                "duration": 0.1159091,
                "tempo": 120.0
            },
            {
                "start_time": 122.9113636,
                "end_time": 123.0272727,
                "pitch": 42,
                "velocity": 51,
                "duration": 0.1159091,
                "tempo": 120.0
            },
            {
                "start_time": 123.0454545,
                "end_time": 123.1613636,
                "pitch": 41,
                "velocity": 51,
                "duration": 0.1159091,
                "tempo": 120.0
            },
            {
                "start_time": 123.1795455,
                "end_time": 123.2954545,
                "pitch": 46,
                "velocity": 51,
                "duration": 0.1159091,
                "tempo": 120.0
            },
            {
                "start_time": 123.3113636,
                "end_time": 123.4295455,
                "pitch": 44,
                "velocity": 51,
                "duration": 0.1181818,
                "tempo": 120.0
            },
            {
                "start_time": 123.4454545,
                "end_time": 123.5613636,
                "pitch": 42,
                "velocity": 51,
                "duration": 0.1159091,
                "tempo": 120.0
            },
            {
                "start_time": 123.5795455,
                "end_time": 123.6954545,
                "pitch": 41,
                "velocity": 51,
                "duration": 0.1159091,
                "tempo": 120.0
            },
            {
                "start_time": 123.7136364,
                "end_time": 123.8295455,
                "pitch": 42,
                "velocity": 51,
                "duration": 0.1159091,
                "tempo": 120.0
            },
            {
                "start_time": 123.8477273,
                "end_time": 123.9659091,
                "pitch": 44,
                "velocity": 51,
                "duration": 0.1181818,
                "tempo": 120.0
            },
            {
                "start_time": 123.9818182,
                "end_time": 124.0977273,
                "pitch": 46,
                "velocity": 51,
                "duration": 0.1159091,
                "tempo": 120.0
            },
            {
                "start_time": 124.1159091,
                "end_time": 124.2318182,
                "pitch": 48,
                "velocity": 51,
                "duration": 0.1159091,
                "tempo": 120.0
            },
            {
                "start_time": 124.2477273,
                "end_time": 124.3659091,
                "pitch": 49,
                "velocity": 51,
                "duration": 0.1181818,
                "tempo": 120.0
            },
            {
                "start_time": 124.3818182,
                "end_time": 124.6340909,
                "pitch": 51,
                "velocity": 51,
                "duration": 0.2522727,
                "tempo": 120.0
            },
            {
                "start_time": 124.65,
                "end_time": 124.8977273,
                "pitch": 53,
                "velocity": 51,
                "duration": 0.2477273,
                "tempo": 120.0
            },
            {
                "start_time": 124.9159091,
                "end_time": 125.1590909,
                "pitch": 54,
                "velocity": 51,
                "duration": 0.2431818,
                "tempo": 120.0
            },
            {
                "start_time": 125.1772727,
                "end_time": 125.2954545,
                "pitch": 41,
                "velocity": 51,
                "duration": 0.1181818,
                "tempo": 120.0
            },
            {
                "start_time": 125.3136364,
                "end_time": 125.4340909,
                "pitch": 41,
                "velocity": 51,
                "duration": 0.1204545,
                "tempo": 120.0
            },
            {
                "start_time": 125.45,
                "end_time": 125.5704545,
                "pitch": 41,
                "velocity": 51,
                "duration": 0.1204545,
                "tempo": 120.0
            },
            {
                "start_time": 125.5863636,
                "end_time": 125.7045455,
                "pitch": 42,
                "velocity": 51,
                "duration": 0.1181818,
                "tempo": 120.0
            },
            {
                "start_time": 125.7204545,
                "end_time": 125.8386364,
                "pitch": 41,
                "velocity": 51,
                "duration": 0.1181818,
                "tempo": 120.0
            },
            {
                "start_time": 125.8545455,
                "end_time": 125.9727273,
                "pitch": 41,
                "velocity": 51,
                "duration": 0.1181818,
                "tempo": 120.0
            },
            {
                "start_time": 125.9909091,
                "end_time": 126.1068182,
                "pitch": 44,
                "velocity": 51,
                "duration": 0.1159091,
                "tempo": 120.0
            },
            {
                "start_time": 126.1227273,
                "end_time": 126.2409091,
                "pitch": 42,
                "velocity": 51,
                "duration": 0.1181818,
                "tempo": 120.0
            },
            {
                "start_time": 126.2568182,
                "end_time": 126.3727273,
                "pitch": 41,
                "velocity": 51,
                "duration": 0.1159091,
                "tempo": 120.0
            },
            {
                "start_time": 126.3909091,
                "end_time": 126.5068182,
                "pitch": 46,
                "velocity": 51,
                "duration": 0.1159091,
                "tempo": 120.0
            },
            {
                "start_time": 126.525,
                "end_time": 126.6409091,
                "pitch": 44,
                "velocity": 51,
                "duration": 0.1159091,
                "tempo": 120.0
            },
            {
                "start_time": 126.6590909,
                "end_time": 126.775,
                "pitch": 42,
                "velocity": 51,
                "duration": 0.1159091,
                "tempo": 120.0
            },
            {
                "start_time": 126.7931818,
                "end_time": 126.9090909,
                "pitch": 41,
                "velocity": 51,
                "duration": 0.1159091,
                "tempo": 120.0
            },
            {
                "start_time": 126.9272727,
                "end_time": 127.0431818,
                "pitch": 41,
                "velocity": 51,
                "duration": 0.1159091,
                "tempo": 120.0
            },
            {
                "start_time": 127.0613636,
                "end_time": 127.1795455,
                "pitch": 41,
                "velocity": 51,
                "duration": 0.1181818,
                "tempo": 120.0
            },
            {
                "start_time": 127.1954545,
                "end_time": 127.3113636,
                "pitch": 42,
                "velocity": 51,
                "duration": 0.1159091,
                "tempo": 120.0
            },
            {
                "start_time": 127.3295455,
                "end_time": 127.4454545,
                "pitch": 41,
                "velocity": 51,
                "duration": 0.1159091,
                "tempo": 120.0
            },
            {
                "start_time": 127.4613636,
                "end_time": 127.5795455,
                "pitch": 41,
                "velocity": 51,
                "duration": 0.1181818,
                "tempo": 120.0
            },
            {
                "start_time": 127.5954545,
                "end_time": 127.7136364,
                "pitch": 44,
                "velocity": 51,
                "duration": 0.1181818,
                "tempo": 120.0
            },
            {
                "start_time": 127.7295455,
                "end_time": 127.8477273,
                "pitch": 42,
                "velocity": 51,
                "duration": 0.1181818,
                "tempo": 120.0
            },
            {
                "start_time": 127.8636364,
                "end_time": 127.9818182,
                "pitch": 41,
                "velocity": 51,
                "duration": 0.1181818,
                "tempo": 120.0
            },
            {
                "start_time": 127.9977273,
                "end_time": 128.1136364,
                "pitch": 49,
                "velocity": 51,
                "duration": 0.1159091,
                "tempo": 120.0
            },
            {
                "start_time": 128.1318182,
                "end_time": 128.2477273,
                "pitch": 48,
                "velocity": 51,
                "duration": 0.1159091,
                "tempo": 120.0
            },
            {
                "start_time": 128.2636364,
                "end_time": 128.3818182,
                "pitch": 46,
                "velocity": 51,
                "duration": 0.1181818,
                "tempo": 120.0
            },
            {
                "start_time": 128.3977273,
                "end_time": 128.5159091,
                "pitch": 41,
                "velocity": 51,
                "duration": 0.1181818,
                "tempo": 120.0
            },
            {
                "start_time": 128.5318182,
                "end_time": 128.65,
                "pitch": 41,
                "velocity": 51,
                "duration": 0.1181818,
                "tempo": 120.0
            },
            {
                "start_time": 128.6659091,
                "end_time": 128.7840909,
                "pitch": 41,
                "velocity": 51,
                "duration": 0.1181818,
                "tempo": 120.0
            },
            {
                "start_time": 128.8,
                "end_time": 128.9181818,
                "pitch": 42,
                "velocity": 51,
                "duration": 0.1181818,
                "tempo": 120.0
            },
            {
                "start_time": 128.9340909,
                "end_time": 129.0522727,
                "pitch": 41,
                "velocity": 51,
                "duration": 0.1181818,
                "tempo": 120.0
            },
            {
                "start_time": 129.0681818,
                "end_time": 129.1863636,
                "pitch": 41,
                "velocity": 51,
                "duration": 0.1181818,
                "tempo": 120.0
            },
            {
                "start_time": 129.2022727,
                "end_time": 129.3204545,
                "pitch": 44,
                "velocity": 51,
                "duration": 0.1181818,
                "tempo": 120.0
            },
            {
                "start_time": 129.3386364,
                "end_time": 129.4545455,
                "pitch": 42,
                "velocity": 51,
                "duration": 0.1159091,
                "tempo": 120.0
            },
            {
                "start_time": 129.4727273,
                "end_time": 129.5886364,
                "pitch": 41,
                "velocity": 51,
                "duration": 0.1159091,
                "tempo": 120.0
            },
            {
                "start_time": 129.6068182,
                "end_time": 129.7227273,
                "pitch": 46,
                "velocity": 51,
                "duration": 0.1159091,
                "tempo": 120.0
            },
            {
                "start_time": 129.7386364,
                "end_time": 129.8568182,
                "pitch": 44,
                "velocity": 51,
                "duration": 0.1181818,
                "tempo": 120.0
            },
            {
                "start_time": 129.8727273,
                "end_time": 129.9886364,
                "pitch": 42,
                "velocity": 51,
                "duration": 0.1159091,
                "tempo": 120.0
            },
            {
                "start_time": 130.0068182,
                "end_time": 130.2568182,
                "pitch": 41,
                "velocity": 51,
                "duration": 0.25,
                "tempo": 120.0
            },
            {
                "start_time": 130.275,
                "end_time": 130.3909091,
                "pitch": 41,
                "velocity": 51,
                "duration": 0.1159091,
                "tempo": 120.0
            },
            {
                "start_time": 130.4090909,
                "end_time": 130.525,
                "pitch": 41,
                "velocity": 51,
                "duration": 0.1159091,
                "tempo": 120.0
            },
            {
                "start_time": 130.5431818,
                "end_time": 130.6613636,
                "pitch": 41,
                "velocity": 51,
                "duration": 0.1181818,
                "tempo": 120.0
            },
            {
                "start_time": 130.6772727,
                "end_time": 130.7954545,
                "pitch": 41,
                "velocity": 51,
                "duration": 0.1181818,
                "tempo": 120.0
            },
            {
                "start_time": 130.8113636,
                "end_time": 131.0636364,
                "pitch": 41,
                "velocity": 51,
                "duration": 0.2522727,
                "tempo": 120.0
            },
            {
                "start_time": 131.0795455,
                "end_time": 131.1977273,
                "pitch": 41,
                "velocity": 51,
                "duration": 0.1181818,
                "tempo": 120.0
            },
            {
                "start_time": 131.2136364,
                "end_time": 131.3318182,
                "pitch": 41,
                "velocity": 51,
                "duration": 0.1181818,
                "tempo": 120.0
            },
            {
                "start_time": 131.3477273,
                "end_time": 131.4659091,
                "pitch": 41,
                "velocity": 51,
                "duration": 0.1181818,
                "tempo": 120.0
            },
            {
                "start_time": 131.4818182,
                "end_time": 131.6,
                "pitch": 41,
                "velocity": 51,
                "duration": 0.1181818,
                "tempo": 120.0
            },
            {
                "start_time": 131.6159091,
                "end_time": 131.8659091,
                "pitch": 36,
                "velocity": 51,
                "duration": 0.25,
                "tempo": 120.0
            },
            {
                "start_time": 131.8840909,
                "end_time": 132.0,
                "pitch": 36,
                "velocity": 51,
                "duration": 0.1159091,
                "tempo": 120.0
            },
            {
                "start_time": 132.0159091,
                "end_time": 132.1340909,
                "pitch": 36,
                "velocity": 51,
                "duration": 0.1181818,
                "tempo": 120.0
            },
            {
                "start_time": 132.15,
                "end_time": 132.2681818,
                "pitch": 36,
                "velocity": 51,
                "duration": 0.1181818,
                "tempo": 120.0
            },
            {
                "start_time": 132.2840909,
                "end_time": 132.4022727,
                "pitch": 36,
                "velocity": 51,
                "duration": 0.1181818,
                "tempo": 120.0
            },
            {
                "start_time": 132.4204545,
                "end_time": 132.6704545,
                "pitch": 36,
                "velocity": 51,
                "duration": 0.25,
                "tempo": 120.0
            },
            {
                "start_time": 132.6886364,
                "end_time": 132.8045455,
                "pitch": 36,
                "velocity": 51,
                "duration": 0.1159091,
                "tempo": 120.0
            },
            {
                "start_time": 132.8227273,
                "end_time": 132.9386364,
                "pitch": 36,
                "velocity": 51,
                "duration": 0.1159091,
                "tempo": 120.0
            },
            {
                "start_time": 132.9568182,
                "end_time": 133.0727273,
                "pitch": 36,
                "velocity": 51,
                "duration": 0.1159091,
                "tempo": 120.0
            },
            {
                "start_time": 133.0909091,
                "end_time": 133.2090909,
                "pitch": 36,
                "velocity": 51,
                "duration": 0.1181818,
                "tempo": 120.0
            },
            {
                "start_time": 133.225,
                "end_time": 133.4772727,
                "pitch": 41,
                "velocity": 51,
                "duration": 0.2522727,
                "tempo": 120.0
            },
            {
                "start_time": 133.4931818,
                "end_time": 133.6113636,
                "pitch": 41,
                "velocity": 51,
                "duration": 0.1181818,
                "tempo": 120.0
            },
            {
                "start_time": 133.6272727,
                "end_time": 133.7431818,
                "pitch": 41,
                "velocity": 51,
                "duration": 0.1159091,
                "tempo": 120.0
            },
            {
                "start_time": 133.7613636,
                "end_time": 133.8772727,
                "pitch": 41,
                "velocity": 51,
                "duration": 0.1159091,
                "tempo": 120.0
            },
            {
                "start_time": 133.8931818,
                "end_time": 134.0113636,
                "pitch": 41,
                "velocity": 51,
                "duration": 0.1181818,
                "tempo": 120.0
            },
            {
                "start_time": 134.0272727,
                "end_time": 134.2795455,
                "pitch": 41,
                "velocity": 51,
                "duration": 0.2522727,
                "tempo": 120.0
            },
            {
                "start_time": 134.2954545,
                "end_time": 134.4136364,
                "pitch": 41,
                "velocity": 51,
                "duration": 0.1181818,
                "tempo": 120.0
            },
            {
                "start_time": 134.4295455,
                "end_time": 134.5477273,
                "pitch": 41,
                "velocity": 51,
                "duration": 0.1181818,
                "tempo": 120.0
            },
            {
                "start_time": 134.5636364,
                "end_time": 134.6818182,
                "pitch": 41,
                "velocity": 51,
                "duration": 0.1181818,
                "tempo": 120.0
            },
            {
                "start_time": 134.6977273,
                "end_time": 134.8159091,
                "pitch": 41,
                "velocity": 51,
                "duration": 0.1181818,
                "tempo": 120.0
            },
            {
                "start_time": 134.8318182,
                "end_time": 135.0840909,
                "pitch": 42,
                "velocity": 51,
                "duration": 0.2522727,
                "tempo": 120.0
            },
            {
                "start_time": 135.1022727,
                "end_time": 135.2181818,
                "pitch": 42,
                "velocity": 51,
                "duration": 0.1159091,
                "tempo": 120.0
            },
            {
                "start_time": 135.2363636,
                "end_time": 135.3522727,
                "pitch": 42,
                "velocity": 51,
                "duration": 0.1159091,
                "tempo": 120.0
            },
            {
                "start_time": 135.3704545,
                "end_time": 135.4863636,
                "pitch": 42,
                "velocity": 51,
                "duration": 0.1159091,
                "tempo": 120.0
            },
            {
                "start_time": 135.5045455,
                "end_time": 135.6204545,
                "pitch": 42,
                "velocity": 51,
                "duration": 0.1159091,
                "tempo": 120.0
            },
            {
                "start_time": 135.6386364,
                "end_time": 135.8886364,
                "pitch": 42,
                "velocity": 51,
                "duration": 0.25,
                "tempo": 120.0
            },
            {
                "start_time": 135.9045455,
                "end_time": 136.0204545,
                "pitch": 42,
                "velocity": 51,
                "duration": 0.1159091,
                "tempo": 120.0
            },
            {
                "start_time": 136.0386364,
                "end_time": 136.1545455,
                "pitch": 42,
                "velocity": 51,
                "duration": 0.1159091,
                "tempo": 120.0
            },
            {
                "start_time": 136.1727273,
                "end_time": 136.2909091,
                "pitch": 42,
                "velocity": 51,
                "duration": 0.1181818,
                "tempo": 120.0
            },
            {
                "start_time": 136.3068182,
                "end_time": 136.425,
                "pitch": 42,
                "velocity": 51,
                "duration": 0.1181818,
                "tempo": 120.0
            },
            {
                "start_time": 136.4409091,
                "end_time": 136.6931818,
                "pitch": 39,
                "velocity": 51,
                "duration": 0.2522727,
                "tempo": 120.0
            },
            {
                "start_time": 136.7090909,
                "end_time": 136.8272727,
                "pitch": 39,
                "velocity": 51,
                "duration": 0.1181818,
                "tempo": 120.0
            },
            {
                "start_time": 136.8431818,
                "end_time": 136.9613636,
                "pitch": 39,
                "velocity": 51,
                "duration": 0.1181818,
                "tempo": 120.0
            },
            {
                "start_time": 136.9772727,
                "end_time": 137.0954545,
                "pitch": 39,
                "velocity": 51,
                "duration": 0.1181818,
                "tempo": 120.0
            },
            {
                "start_time": 137.1113636,
                "end_time": 137.2295455,
                "pitch": 39,
                "velocity": 51,
                "duration": 0.1181818,
                "tempo": 120.0
            },
            {
                "start_time": 137.2454545,
                "end_time": 137.3636364,
                "pitch": 39,
                "velocity": 51,
                "duration": 0.1181818,
                "tempo": 120.0
            },
            {
                "start_time": 137.3795455,
                "end_time": 137.4977273,
                "pitch": 46,
                "velocity": 51,
                "duration": 0.1181818,
                "tempo": 120.0
            },
            {
                "start_time": 137.5136364,
                "end_time": 137.6318182,
                "pitch": 49,
                "velocity": 51,
                "duration": 0.1181818,
                "tempo": 120.0
            },
            {
                "start_time": 137.65,
                "end_time": 137.7659091,
                "pitch": 53,
                "velocity": 51,
                "duration": 0.1159091,
                "tempo": 120.0
            },
            {
                "start_time": 137.7818182,
                "end_time": 137.9,
                "pitch": 51,
                "velocity": 51,
                "duration": 0.1181818,
                "tempo": 120.0
            },
            {
                "start_time": 137.9159091,
                "end_time": 138.0318182,
                "pitch": 49,
                "velocity": 51,
                "duration": 0.1159091,
                "tempo": 120.0
            },
            {
                "start_time": 138.05,
                "end_time": 138.3,
                "pitch": 37,
                "velocity": 51,
                "duration": 0.25,
                "tempo": 120.0
            },
            {
                "start_time": 138.3181818,
                "end_time": 138.4340909,
                "pitch": 37,
                "velocity": 51,
                "duration": 0.1159091,
                "tempo": 120.0
            },
            {
                "start_time": 138.4522727,
                "end_time": 138.5681818,
                "pitch": 37,
                "velocity": 51,
                "duration": 0.1159091,
                "tempo": 120.0
            },
            {
                "start_time": 138.5863636,
                "end_time": 138.7022727,
                "pitch": 37,
                "velocity": 51,
                "duration": 0.1159091,
                "tempo": 120.0
            },
            {
                "start_time": 138.7204545,
                "end_time": 138.8386364,
                "pitch": 37,
                "velocity": 51,
                "duration": 0.1181818,
                "tempo": 120.0
            },
            {
                "start_time": 138.8545455,
                "end_time": 139.1068182,
                "pitch": 37,
                "velocity": 51,
                "duration": 0.2522727,
                "tempo": 120.0
            },
            {
                "start_time": 139.1227273,
                "end_time": 139.2409091,
                "pitch": 37,
                "velocity": 51,
                "duration": 0.1181818,
                "tempo": 120.0
            },
            {
                "start_time": 139.2568182,
                "end_time": 139.375,
                "pitch": 37,
                "velocity": 51,
                "duration": 0.1181818,
                "tempo": 120.0
            },
            {
                "start_time": 139.3909091,
                "end_time": 139.5090909,
                "pitch": 37,
                "velocity": 51,
                "duration": 0.1181818,
                "tempo": 120.0
            },
            {
                "start_time": 139.525,
                "end_time": 139.6431818,
                "pitch": 37,
                "velocity": 51,
                "duration": 0.1181818,
                "tempo": 120.0
            },
            {
                "start_time": 139.6590909,
                "end_time": 140.0431818,
                "pitch": 39,
                "velocity": 51,
                "duration": 0.3840909,
                "tempo": 120.0
            },
            {
                "start_time": 140.0590909,
                "end_time": 140.4454545,
                "pitch": 41,
                "velocity": 51,
                "duration": 0.3863636,
                "tempo": 120.0
            },
            {
                "start_time": 140.4613636,
                "end_time": 140.8477273,
                "pitch": 42,
                "velocity": 51,
                "duration": 0.3863636,
                "tempo": 120.0
            },
            {
                "start_time": 140.8659091,
                "end_time": 141.25,
                "pitch": 41,
                "velocity": 51,
                "duration": 0.3840909,
                "tempo": 120.0
            },
            {
                "start_time": 141.2681818,
                "end_time": 141.5204545,
                "pitch": 42,
                "velocity": 51,
                "duration": 0.2522727,
                "tempo": 120.0
            },
            {
                "start_time": 141.5363636,
                "end_time": 141.6545455,
                "pitch": 42,
                "velocity": 51,
                "duration": 0.1181818,
                "tempo": 120.0
            },
            {
                "start_time": 141.6704545,
                "end_time": 141.7863636,
                "pitch": 42,
                "velocity": 51,
                "duration": 0.1159091,
                "tempo": 120.0
            },
            {
                "start_time": 141.8045455,
                "end_time": 141.9204545,
                "pitch": 42,
                "velocity": 51,
                "duration": 0.1159091,
                "tempo": 120.0
            },
            {
                "start_time": 141.9363636,
                "end_time": 142.0545455,
                "pitch": 42,
                "velocity": 51,
                "duration": 0.1181818,
                "tempo": 120.0
            },
            {
                "start_time": 142.0704545,
                "end_time": 142.3227273,
                "pitch": 42,
                "velocity": 51,
                "duration": 0.2522727,
                "tempo": 120.0
            },
            {
                "start_time": 142.3386364,
                "end_time": 142.4568182,
                "pitch": 42,
                "velocity": 51,
                "duration": 0.1181818,
                "tempo": 120.0
            },
            {
                "start_time": 142.4727273,
                "end_time": 142.5909091,
                "pitch": 42,
                "velocity": 51,
                "duration": 0.1181818,
                "tempo": 120.0
            },
            {
                "start_time": 142.6068182,
                "end_time": 142.725,
                "pitch": 42,
                "velocity": 51,
                "duration": 0.1181818,
                "tempo": 120.0
            },
            {
                "start_time": 142.7409091,
                "end_time": 142.8590909,
                "pitch": 42,
                "velocity": 51,
                "duration": 0.1181818,
                "tempo": 120.0
            },
            {
                "start_time": 142.875,
                "end_time": 143.1272727,
                "pitch": 39,
                "velocity": 51,
                "duration": 0.2522727,
                "tempo": 120.0
            },
            {
                "start_time": 143.1431818,
                "end_time": 143.2613636,
                "pitch": 39,
                "velocity": 51,
                "duration": 0.1181818,
                "tempo": 120.0
            },
            {
                "start_time": 143.2795455,
                "end_time": 143.3954545,
                "pitch": 39,
                "velocity": 51,
                "duration": 0.1159091,
                "tempo": 120.0
            },
            {
                "start_time": 143.4136364,
                "end_time": 143.5295455,
                "pitch": 39,
                "velocity": 51,
                "duration": 0.1159091,
                "tempo": 120.0
            },
            {
                "start_time": 143.5477273,
                "end_time": 143.6636364,
                "pitch": 39,
                "velocity": 51,
                "duration": 0.1159091,
                "tempo": 120.0
            },
            {
                "start_time": 143.6818182,
                "end_time": 143.7977273,
                "pitch": 39,
                "velocity": 51,
                "duration": 0.1159091,
                "tempo": 120.0
            },
            {
                "start_time": 143.8136364,
                "end_time": 143.9318182,
                "pitch": 46,
                "velocity": 51,
                "duration": 0.1181818,
                "tempo": 120.0
            },
            {
                "start_time": 143.9477273,
                "end_time": 144.0636364,
                "pitch": 49,
                "velocity": 51,
                "duration": 0.1159091,
                "tempo": 120.0
            },
            {
                "start_time": 144.0818182,
                "end_time": 144.1977273,
                "pitch": 53,
                "velocity": 51,
                "duration": 0.1159091,
                "tempo": 120.0
            },
            {
                "start_time": 144.2159091,
                "end_time": 144.3318182,
                "pitch": 51,
                "velocity": 51,
                "duration": 0.1159091,
                "tempo": 120.0
            },
            {
                "start_time": 144.35,
                "end_time": 144.4681818,
                "pitch": 49,
                "velocity": 51,
                "duration": 0.1181818,
                "tempo": 120.0
            },
            {
                "start_time": 144.4840909,
                "end_time": 144.7363636,
                "pitch": 37,
                "velocity": 51,
                "duration": 0.2522727,
                "tempo": 120.0
            },
            {
                "start_time": 144.7522727,
                "end_time": 144.8704545,
                "pitch": 37,
                "velocity": 51,
                "duration": 0.1181818,
                "tempo": 120.0
            },
            {
                "start_time": 144.8863636,
                "end_time": 145.0045455,
                "pitch": 37,
                "velocity": 51,
                "duration": 0.1181818,
                "tempo": 120.0
            },
            {
                "start_time": 145.0204545,
                "end_time": 145.1386364,
                "pitch": 37,
                "velocity": 51,
                "duration": 0.1181818,
                "tempo": 120.0
            },
            {
                "start_time": 145.1545455,
                "end_time": 145.2727273,
                "pitch": 37,
                "velocity": 51,
                "duration": 0.1181818,
                "tempo": 120.0
            },
            {
                "start_time": 145.2886364,
                "end_time": 145.5409091,
                "pitch": 37,
                "velocity": 51,
                "duration": 0.2522727,
                "tempo": 120.0
            },
            {
                "start_time": 145.5568182,
                "end_time": 145.675,
                "pitch": 37,
                "velocity": 51,
                "duration": 0.1181818,
                "tempo": 120.0
            },
            {
                "start_time": 145.6909091,
                "end_time": 145.8090909,
                "pitch": 37,
                "velocity": 51,
                "duration": 0.1181818,
                "tempo": 120.0
            },
            {
                "start_time": 145.825,
                "end_time": 145.9409091,
                "pitch": 37,
                "velocity": 51,
                "duration": 0.1159091,
                "tempo": 120.0
            },
            {
                "start_time": 145.9590909,
                "end_time": 146.075,
                "pitch": 37,
                "velocity": 51,
                "duration": 0.1159091,
                "tempo": 120.0
            },
            {
                "start_time": 146.0909091,
                "end_time": 146.3431818,
                "pitch": 36,
                "velocity": 51,
                "duration": 0.2522727,
                "tempo": 120.0
            },
            {
                "start_time": 146.3613636,
                "end_time": 146.4772727,
                "pitch": 36,
                "velocity": 51,
                "duration": 0.1159091,
                "tempo": 120.0
            },
            {
                "start_time": 146.4954545,
                "end_time": 146.6113636,
                "pitch": 36,
                "velocity": 51,
                "duration": 0.1159091,
                "tempo": 120.0
            },
            {
                "start_time": 146.6295455,
                "end_time": 146.7454545,
                "pitch": 36,
                "velocity": 51,
                "duration": 0.1159091,
                "tempo": 120.0
            },
            {
                "start_time": 146.7636364,
                "end_time": 146.8795455,
                "pitch": 36,
                "velocity": 51,
                "duration": 0.1159091,
                "tempo": 120.0
            },
            {
                "start_time": 146.8977273,
                "end_time": 147.15,
                "pitch": 34,
                "velocity": 51,
                "duration": 0.2522727,
                "tempo": 120.0
            },
            {
                "start_time": 147.1659091,
                "end_time": 147.4204545,
                "pitch": 41,
                "velocity": 51,
                "duration": 0.2545455,
                "tempo": 120.0
            },
            {
                "start_time": 147.4363636,
                "end_time": 147.6931818,
                "pitch": 34,
                "velocity": 51,
                "duration": 0.2568182,
                "tempo": 120.0
            },
            {
                "start_time": 147.7113636,
                "end_time": 147.9568182,
                "pitch": 34,
                "velocity": 51,
                "duration": 0.2454545,
                "tempo": 120.0
            },
            {
                "start_time": 147.9727273,
                "end_time": 148.0863636,
                "pitch": 34,
                "velocity": 51,
                "duration": 0.1136364,
                "tempo": 120.0
            },
            {
                "start_time": 148.1022727,
                "end_time": 148.2204545,
                "pitch": 34,
                "velocity": 51,
                "duration": 0.1181818,
                "tempo": 120.0
            },
            {
                "start_time": 148.2363636,
                "end_time": 148.3545455,
                "pitch": 34,
                "velocity": 51,
                "duration": 0.1181818,
                "tempo": 120.0
            },
            {
                "start_time": 148.3704545,
                "end_time": 148.4886364,
                "pitch": 34,
                "velocity": 51,
                "duration": 0.1181818,
                "tempo": 120.0
            },
            {
                "start_time": 148.5045455,
                "end_time": 148.7568182,
                "pitch": 46,
                "velocity": 51,
                "duration": 0.2522727,
                "tempo": 120.0
            },
            {
                "start_time": 148.775,
                "end_time": 148.8909091,
                "pitch": 44,
                "velocity": 51,
                "duration": 0.1159091,
                "tempo": 120.0
            },
            {
                "start_time": 148.9090909,
                "end_time": 149.1590909,
                "pitch": 44,
                "velocity": 51,
                "duration": 0.25,
                "tempo": 120.0
            },
            {
                "start_time": 149.1772727,
                "end_time": 149.2931818,
                "pitch": 46,
                "velocity": 51,
                "duration": 0.1159091,
                "tempo": 120.0
            },
            {
                "start_time": 149.3113636,
                "end_time": 149.5636364,
                "pitch": 34,
                "velocity": 51,
                "duration": 0.2522727,
                "tempo": 120.0
            },
            {
                "start_time": 149.5795455,
                "end_time": 149.6977273,
                "pitch": 34,
                "velocity": 51,
                "duration": 0.1181818,
                "tempo": 120.0
            },
            {
                "start_time": 149.7136364,
                "end_time": 149.8295455,
                "pitch": 34,
                "velocity": 51,
                "duration": 0.1159091,
                "tempo": 120.0
            },
            {
                "start_time": 149.8477273,
                "end_time": 149.9636364,
                "pitch": 34,
                "velocity": 51,
                "duration": 0.1159091,
                "tempo": 120.0
            },
            {
                "start_time": 149.9795455,
                "end_time": 150.0977273,
                "pitch": 34,
                "velocity": 51,
                "duration": 0.1181818,
                "tempo": 120.0
            },
            {
                "start_time": 150.1136364,
                "end_time": 150.3659091,
                "pitch": 42,
                "velocity": 51,
                "duration": 0.2522727,
                "tempo": 120.0
            },
            {
                "start_time": 150.3818182,
                "end_time": 150.5,
                "pitch": 44,
                "velocity": 51,
                "duration": 0.1181818,
                "tempo": 120.0
            },
            {
                "start_time": 150.5159091,
                "end_time": 150.6363636,
                "pitch": 44,
                "velocity": 51,
                "duration": 0.1204545,
                "tempo": 120.0
            },
            {
                "start_time": 150.6522727,
                "end_time": 150.7727273,
                "pitch": 34,
                "velocity": 51,
                "duration": 0.1204545,
                "tempo": 120.0
            },
            {
                "start_time": 150.7909091,
                "end_time": 150.9090909,
                "pitch": 34,
                "velocity": 51,
                "duration": 0.1181818,
                "tempo": 120.0
            },
            {
                "start_time": 150.9272727,
                "end_time": 151.1727273,
                "pitch": 34,
                "velocity": 51,
                "duration": 0.2454545,
                "tempo": 120.0
            },
            {
                "start_time": 151.1886364,
                "end_time": 151.3022727,
                "pitch": 34,
                "velocity": 51,
                "duration": 0.1136364,
                "tempo": 120.0
            },
            {
                "start_time": 151.3181818,
                "end_time": 151.4363636,
                "pitch": 34,
                "velocity": 51,
                "duration": 0.1181818,
                "tempo": 120.0
            },
            {
                "start_time": 151.4545455,
                "end_time": 151.5704545,
                "pitch": 34,
                "velocity": 51,
                "duration": 0.1159091,
                "tempo": 120.0
            },
            {
                "start_time": 151.5886364,
                "end_time": 151.7045455,
                "pitch": 34,
                "velocity": 51,
                "duration": 0.1159091,
                "tempo": 120.0
            },
            {
                "start_time": 151.7227273,
                "end_time": 151.9727273,
                "pitch": 46,
                "velocity": 51,
                "duration": 0.25,
                "tempo": 120.0
            },
            {
                "start_time": 151.9886364,
                "end_time": 152.1045455,
                "pitch": 44,
                "velocity": 51,
                "duration": 0.1159091,
                "tempo": 120.0
            },
            {
                "start_time": 152.1227273,
                "end_time": 152.3727273,
                "pitch": 44,
                "velocity": 51,
                "duration": 0.25,
                "tempo": 120.0
            },
            {
                "start_time": 152.3909091,
                "end_time": 152.5068182,
                "pitch": 46,
                "velocity": 51,
                "duration": 0.1159091,
                "tempo": 120.0
            },
            {
                "start_time": 152.525,
                "end_time": 152.7772727,
                "pitch": 34,
                "velocity": 51,
                "duration": 0.2522727,
                "tempo": 120.0
            },
            {
                "start_time": 152.7931818,
                "end_time": 152.9113636,
                "pitch": 34,
                "velocity": 51,
                "duration": 0.1181818,
                "tempo": 120.0
            },
            {
                "start_time": 152.9272727,
                "end_time": 153.0454545,
                "pitch": 34,
                "velocity": 51,
                "duration": 0.1181818,
                "tempo": 120.0
            },
            {
                "start_time": 153.0613636,
                "end_time": 153.1795455,
                "pitch": 34,
                "velocity": 51,
                "duration": 0.1181818,
                "tempo": 120.0
            },
            {
                "start_time": 153.1954545,
                "end_time": 153.3136364,
                "pitch": 34,
                "velocity": 51,
                "duration": 0.1181818,
                "tempo": 120.0
            },
            {
                "start_time": 153.3295455,
                "end_time": 153.5818182,
                "pitch": 42,
                "velocity": 51,
                "duration": 0.2522727,
                "tempo": 120.0
            },
            {
                "start_time": 153.5977273,
                "end_time": 153.7159091,
                "pitch": 44,
                "velocity": 51,
                "duration": 0.1181818,
                "tempo": 120.0
            },
            {
                "start_time": 153.7318182,
                "end_time": 153.8522727,
                "pitch": 44,
                "velocity": 51,
                "duration": 0.1204545,
                "tempo": 120.0
            },
            {
                "start_time": 153.8704545,
                "end_time": 153.9886364,
                "pitch": 34,
                "velocity": 51,
                "duration": 0.1181818,
                "tempo": 120.0
            },
            {
                "start_time": 154.0068182,
                "end_time": 154.1272727,
                "pitch": 34,
                "velocity": 51,
                "duration": 0.1204545,
                "tempo": 120.0
            },
            {
                "start_time": 154.1431818,
                "end_time": 154.2954545,
                "pitch": 44,
                "velocity": 51,
                "duration": 0.1522727,
                "tempo": 120.0
            }
        ]
    }
}