{
    "mood": "angry",
    "instruments": {
        "Church Organ": [
            {
                "start_time": 0.0,
                "end_time": 0.0840909,
                "pitch": 57,
                "velocity": 80,
                "duration": 0.0840909,
                "tempo": 120.0
            },
            {
                "start_time": 0.1,
                "end_time": 0.1840909,
                "pitch": 56,
                "velocity": 80,
                "duration": 0.0840909,
                "tempo": 120.0
            },
            {
                "start_time": 0.2,
                "end_time": 1.3840909,
                "pitch": 57,
                "velocity": 80,
                "duration": 1.1840909,
                "tempo": 120.0
            },
            {
                "start_time": 1.4,
                "end_time": 1.7840909,
                "pitch": 52,
                "velocity": 80,
                "duration": 0.3840909,
                "tempo": 120.0
            },
            {
                "start_time": 1.8,
                "end_time": 2.1863636,
                "pitch": 53,
                "velocity": 80,
                "duration": 0.3863636,
                "tempo": 120.0
            },
            {
                "start_time": 2.2022727,
                "end_time": 2.5886364,
                "pitch": 55,
                "velocity": 80,
                "duration": 0.3863636,
                "tempo": 120.0
            },
            {
                "start_time": 2.6045455,
                "end_time": 2.9886364,
                "pitch": 56,
                "velocity": 80,
                "duration": 0.3840909,
                "tempo": 120.0
            },
            {
                "start_time": 3.0045455,
                "end_time": 4.7909091,
                "pitch": 57,
                "velocity": 80,
                "duration": 1.7863636,
                "tempo": 120.0
            },
            {
                "start_time": 4.8090909,
                "end_time": 4.9909091,
                "pitch": 52,
                "velocity": 80,
                "duration": 0.1818182,
                "tempo": 120.0
            },
            {
                "start_time": 5.0090909,
                "end_time": 6.3977273,
                "pitch": 52,
                "velocity": 80,
                "duration": 1.3886364,
                "tempo": 120.0
            },
            {
                "start_time": 6.4136364,
                "end_time": 6.4977273,
                "pitch": 57,
                "velocity": 80,
                "duration": 0.0840909,
                "tempo": 120.0
            },
            {
                "start_time": 6.5159091,
                "end_time": 6.6,
                "pitch": 56,
                "velocity": 80,
                "duration": 0.0840909,
                "tempo": 120.0
            },
            {
                "start_time": 19.2727273,
                "end_time": 19.3568182,
                "pitch": 57,
                "velocity": 80,
                "duration": 0.0840909,
                "tempo": 120.0
            },
            {
                "start_time": 19.3727273,
                "end_time": 19.4568182,
                "pitch": 56,
                "velocity": 80,
                "duration": 0.0840909,
                "tempo": 120.0
            }
        ],
        "Electric Guitar (clean)": [
            {
                "start_time": 6.6159091,
                "end_time": 7.8045455,
                "pitch": 57,
                "velocity": 80,
                "duration": 1.1886364,
                "tempo": 120.0
            },
            {
                "start_time": 7.8204545,
                "end_time": 8.2045455,
                "pitch": 52,
                "velocity": 80,
                "duration": 0.3840909,
                "tempo": 120.0
            },
            {
                "start_time": 8.2204545,
                "end_time": 8.6045455,
                "pitch": 53,
                "velocity": 80,
                "duration": 0.3840909,
                "tempo": 120.0
            },
            {
                "start_time": 8.6204545,
                "end_time": 9.0068182,
                "pitch": 55,
                "velocity": 80,
                "duration": 0.3863636,
                "tempo": 120.0
            },
            {
                "start_time": 9.025,
                "end_time": 9.4090909,
                "pitch": 59,
                "velocity": 80,
                "duration": 0.3840909,
                "tempo": 120.0
            },
            {
                "start_time": 9.4272727,
                "end_time": 9.8136364,
                "pitch": 56,
                "velocity": 80,
                "duration": 0.3863636,
                "tempo": 120.0
            },
            {
                "start_time": 9.8295455,
                "end_time": 11.4204545,
                "pitch": 57,
                "velocity": 80,
                "duration": 1.5909091,
                "tempo": 120.0
            },
            {
                "start_time": 13.0454545,
                "end_time": 13.2295455,
                "pitch": 65,
                "velocity": 80,
                "duration": 0.1840909,
                "tempo": 120.0
            },
            {
                "start_time": 13.2477273,
                "end_time": 13.4318182,
                "pitch": 62,
                "velocity": 80,
                "duration": 0.1840909,
                "tempo": 120.0
            },
            {
                "start_time": 13.4477273,
                "end_time": 13.6318182,
                "pitch": 64,
                "velocity": 80,
                "duration": 0.1840909,
                "tempo": 120.0
            },
            {
                "start_time": 13.65,
                "end_time": 13.8340909,
                "pitch": 60,
                "velocity": 80,
                "duration": 0.1840909,
                "tempo": 120.0
            },
            {
                "start_time": 13.85,
                "end_time": 14.0363636,
                "pitch": 62,
                "velocity": 80,
                "duration": 0.1863636,
                "tempo": 120.0
            },
            {
                "start_time": 14.0522727,
                "end_time": 14.2363636,
                "pitch": 64,
                "velocity": 80,
                "duration": 0.1840909,
                "tempo": 120.0
            },
            {
                "start_time": 14.2545455,
                "end_time": 14.4363636,
                "pitch": 59,
                "velocity": 80,
                "duration": 0.1818182,
                "tempo": 120.0
            },
            {
                "start_time": 14.4545455,
                "end_time": 14.6363636,
                "pitch": 62,
                "velocity": 80,
                "duration": 0.1818182,
                "tempo": 120.0
            },
            {
                "start_time": 14.6545455,
                "end_time": 14.8386364,
                "pitch": 65,
                "velocity": 80,
                "duration": 0.1840909,
                "tempo": 120.0
            },
            {
                "start_time": 14.8545455,
                "end_time": 15.0386364,
                "pitch": 62,
                "velocity": 80,
                "duration": 0.1840909,
                "tempo": 120.0
            },
            {
                "start_time": 15.0568182,
                "end_time": 15.2409091,
                "pitch": 64,
                "velocity": 80,
                "duration": 0.1840909,
                "tempo": 120.0
            },
            {
                "start_time": 15.2568182,
                "end_time": 15.4431818,
                "pitch": 60,
                "velocity": 80,
                "duration": 0.1863636,
                "tempo": 120.0
            },
            {
                "start_time": 15.4590909,
                "end_time": 15.8454545,
                "pitch": 62,
                "velocity": 80,
                "duration": 0.3863636,
                "tempo": 120.0
            },
            {
                "start_time": 15.8613636,
                "end_time": 16.2477273,
                "pitch": 59,
                "velocity": 80,
                "duration": 0.3863636,
                "tempo": 120.0
            },
            {
                "start_time": 16.2636364,
                "end_time": 16.4477273,
                "pitch": 65,
                "velocity": 80,
                "duration": 0.1840909,
                "tempo": 120.0
            },
            {
                "start_time": 16.4636364,
                "end_time": 16.6477273,
                "pitch": 62,
                "velocity": 80,
                "duration": 0.1840909,
                "tempo": 120.0
            },
            {
                "start_time": 16.6636364,
                "end_time": 16.85,
                "pitch": 64,
                "velocity": 80,
                "duration": 0.1863636,
                "tempo": 120.0
            },
            {
                "start_time": 16.8659091,
                "end_time": 17.05,
                "pitch": 60,
                "velocity": 80,
                "duration": 0.1840909,
                "tempo": 120.0
            },
            {
                "start_time": 17.0681818,
                "end_time": 17.25,
                "pitch": 62,
                "velocity": 80,
                "duration": 0.1818182,
                "tempo": 120.0
            },
            {
                "start_time": 17.2681818,
                "end_time": 17.45,
                "pitch": 64,
                "velocity": 80,
                "duration": 0.1818182,
                "tempo": 120.0
            },
            {
                "start_time": 17.4681818,
                "end_time": 17.65,
                "pitch": 65,
                "velocity": 80,
                "duration": 0.1818182,
                "tempo": 120.0
            },
            {
                "start_time": 17.6681818,
                "end_time": 17.85,
                "pitch": 67,
                "velocity": 80,
                "duration": 0.1818182,
                "tempo": 120.0
            },
            {
                "start_time": 17.8681818,
                "end_time": 19.2568182,
                "pitch": 67,
                "velocity": 80,
                "duration": 1.3886364,
                "tempo": 120.0
            }
        ],
        "Flute": [
            {
                "start_time": 0.2,
                "end_time": 0.9840909,
                "pitch": 52,
                "velocity": 51,
                "duration": 0.7840909,
                "tempo": 120.0
            },
            {
                "start_time": 1.0,
                "end_time": 1.7840909,
                "pitch": 55,
                "velocity": 51,
                "duration": 0.7840909,
                "tempo": 120.0
            },
            {
                "start_time": 1.8,
                "end_time": 2.5886364,
                "pitch": 57,
                "velocity": 51,
                "duration": 0.7886364,
                "tempo": 120.0
            },
            {
                "start_time": 2.6045455,
                "end_time": 3.3886364,
                "pitch": 50,
                "velocity": 51,
                "duration": 0.7840909,
                "tempo": 120.0
            },
            {
                "start_time": 3.4045455,
                "end_time": 4.9909091,
                "pitch": 53,
                "velocity": 51,
                "duration": 1.5863636,
                "tempo": 120.0
            },
            {
                "start_time": 5.0090909,
                "end_time": 6.6,
                "pitch": 52,
                "velocity": 51,
                "duration": 1.5909091,
                "tempo": 120.0
            },
            {
                "start_time": 6.6159091,
                "end_time": 7.4022727,
                "pitch": 52,
                "velocity": 51,
                "duration": 0.7863636,
                "tempo": 120.0
            },
            {
                "start_time": 7.4181818,
                "end_time": 8.2045455,
                "pitch": 57,
                "velocity": 51,
                "duration": 0.7863636,
                "tempo": 120.0
            },
            {
                "start_time": 8.2204545,
                "end_time": 9.0068182,
                "pitch": 50,
                "velocity": 51,
                "duration": 0.7863636,
                "tempo": 120.0
            },
            {
                "start_time": 9.025,
                "end_time": 9.8136364,
                "pitch": 53,
                "velocity": 51,
                "duration": 0.7886364,
                "tempo": 120.0
            },
            {
                "start_time": 9.8295455,
                "end_time": 11.4204545,
                "pitch": 52,
                "velocity": 51,
                "duration": 1.5909091,
                "tempo": 120.0
            },
            {
                "start_time": 13.0454545,
                "end_time": 13.2295455,
                "pitch": 60,
                "velocity": 51,
                "duration": 0.1840909,
                "tempo": 120.0
            },
            {
                "start_time": 13.2477273,
                "end_time": 13.4318182,
                "pitch": 57,
                "velocity": 51,
                "duration": 0.1840909,
                "tempo": 120.0
            },
            {
                "start_time": 13.4477273,
                "end_time": 13.6318182,
                "pitch": 59,
                "velocity": 51,
                "duration": 0.1840909,
                "tempo": 120.0
            },
            {
                "start_time": 13.65,
                "end_time": 14.6363636,
                "pitch": 55,
                "velocity": 51,
                "duration": 0.9863636,
                "tempo": 120.0
            },
            {
                "start_time": 14.6545455,
                "end_time": 14.8386364,
                "pitch": 60,
                "velocity": 51,
                "duration": 0.1840909,
                "tempo": 120.0
            },
            {
                "start_time": 14.8545455,
                "end_time": 15.0386364,
                "pitch": 57,
                "velocity": 51,
                "duration": 0.1840909,
                "tempo": 120.0
            },
            {
                "start_time": 15.0568182,
                "end_time": 15.2409091,
                "pitch": 59,
                "velocity": 51,
                "duration": 0.1840909,
                "tempo": 120.0
            },
            {
                "start_time": 15.2568182,
                "end_time": 16.2477273,
                "pitch": 55,
                "velocity": 51,
                "duration": 0.9909091,
                "tempo": 120.0
            },
            {
                "start_time": 16.2636364,
                "end_time": 16.4477273,
                "pitch": 55,
                "velocity": 51,
                "duration": 0.1840909,
                "tempo": 120.0
            },
            {
                "start_time": 16.4636364,
                "end_time": 16.6477273,
                "pitch": 53,
                "velocity": 51,
                "duration": 0.1840909,
                "tempo": 120.0
            },
            {
                "start_time": 16.6636364,
                "end_time": 16.85,
                "pitch": 55,
                "velocity": 51,
                "duration": 0.1863636,
                "tempo": 120.0
            },
            {
                "start_time": 16.8659091,
                "end_time": 17.05,
                "pitch": 52,
                "velocity": 51,
                "duration": 0.1840909,
                "tempo": 120.0
            },
            {
                "start_time": 17.0681818,
                "end_time": 17.25,
                "pitch": 53,
                "velocity": 51,
                "duration": 0.1818182,
                "tempo": 120.0
            },
            {
                "start_time": 17.2681818,
                "end_time": 17.45,
                "pitch": 55,
                "velocity": 51,
                "duration": 0.1818182,
                "tempo": 120.0
            },
            {
                "start_time": 17.4681818,
                "end_time": 17.65,
                "pitch": 57,
                "velocity": 51,
                "duration": 0.1818182,
                "tempo": 120.0
            },
            {
                "start_time": 17.6681818,
                "end_time": 17.85,
                "pitch": 59,
                "velocity": 51,
                "duration": 0.1818182,
                "tempo": 120.0
            },
            {
                "start_time": 17.8681818,
                "end_time": 18.6522727,
                "pitch": 71,
                "velocity": 51,
                "duration": 0.7840909,
                "tempo": 120.0
            },
            {
                "start_time": 18.6704545,
                "end_time": 19.2568182,
                "pitch": 70,
                "velocity": 51,
                "duration": 0.5863636,
                "tempo": 120.0
            }
        ],
        "Acoustic Grand Piano": [
            {
                "start_time": 0.2,
                "end_time": 0.9840909,
                "pitch": 45,
                "velocity": 51,
                "duration": 0.7840909,
                "tempo": 120.0
            },
            {
                "start_time": 1.0,
                "end_time": 1.7840909,
                "pitch": 40,
                "velocity": 51,
                "duration": 0.7840909,
                "tempo": 120.0
            },
            {
                "start_time": 1.8,
                "end_time": 2.5886364,
                "pitch": 41,
                "velocity": 51,
                "duration": 0.7886364,
                "tempo": 120.0
            },
            {
                "start_time": 2.6045455,
                "end_time": 3.3886364,
                "pitch": 38,
                "velocity": 51,
                "duration": 0.7840909,
                "tempo": 120.0
            },
            {
                "start_time": 3.4045455,
                "end_time": 4.1886364,
                "pitch": 45,
                "velocity": 51,
                "duration": 0.7840909,
                "tempo": 120.0
            },
            {
                "start_time": 4.2045455,
                "end_time": 4.9909091,
                "pitch": 50,
                "velocity": 51,
                "duration": 0.7863636,
                "tempo": 120.0
            },
            {
                "start_time": 5.0090909,
                "end_time": 5.7977273,
                "pitch": 45,
                "velocity": 51,
                "duration": 0.7886364,
                "tempo": 120.0
            },
            {
                "start_time": 5.8136364,
                "end_time": 6.6,
                "pitch": 40,
                "velocity": 51,
                "duration": 0.7863636,
                "tempo": 120.0
            },
            {
                "start_time": 6.6159091,
                "end_time": 7.4022727,
                "pitch": 45,
                "velocity": 51,
                "duration": 0.7863636,
                "tempo": 120.0
            },
            {
                "start_time": 7.4181818,
                "end_time": 8.2045455,
                "pitch": 40,
                "velocity": 51,
                "duration": 0.7863636,
                "tempo": 120.0
            },
            {
                "start_time": 8.2204545,
                "end_time": 9.0068182,
                "pitch": 41,
                "velocity": 51,
                "duration": 0.7863636,
                "tempo": 120.0
            },
            {
                "start_time": 9.025,
                "end_time": 9.8136364,
                "pitch": 38,
                "velocity": 51,
                "duration": 0.7886364,
                "tempo": 120.0
            },
            {
                "start_time": 9.8295455,
                "end_time": 10.6159091,
                "pitch": 45,
                "velocity": 51,
                "duration": 0.7863636,
                "tempo": 120.0
            },
            {
                "start_time": 10.6318182,
                "end_time": 11.4204545,
                "pitch": 47,
                "velocity": 51,
                "duration": 0.7886364,
                "tempo": 120.0
            },
            {
                "start_time": 11.4386364,
                "end_time": 13.0295455,
                "pitch": 45,
                "velocity": 51,
                "duration": 1.5909091,
                "tempo": 120.0
            },
            {
                "start_time": 13.0454545,
                "end_time": 13.8340909,
                "pitch": 41,
                "velocity": 51,
                "duration": 0.7886364,
                "tempo": 120.0
            },
            {
                "start_time": 13.85,
                "end_time": 14.6363636,
                "pitch": 40,
                "velocity": 51,
                "duration": 0.7863636,
                "tempo": 120.0
            },
            {
                "start_time": 14.6545455,
                "end_time": 15.4431818,
                "pitch": 38,
                "velocity": 51,
                "duration": 0.7886364,
                "tempo": 120.0
            },
            {
                "start_time": 15.4590909,
                "end_time": 16.2477273,
                "pitch": 40,
                "velocity": 51,
                "duration": 0.7886364,
                "tempo": 120.0
            },
            {
                "start_time": 16.2636364,
                "end_time": 17.05,
                "pitch": 41,
                "velocity": 51,
                "duration": 0.7863636,
                "tempo": 120.0
            },
            {
                "start_time": 17.0681818,
                "end_time": 17.85,
                "pitch": 47,
                "velocity": 51,
                "duration": 0.7818182,
                "tempo": 120.0
            },
            {
                "start_time": 17.8681818,
                "end_time": 18.6522727,
                "pitch": 45,
                "velocity": 51,
                "duration": 0.7840909,
                "tempo": 120.0
            },
            {
                "start_time": 18.6704545,
                "end_time": 19.2568182,
                "pitch": 41,
                "velocity": 51,
                "duration": 0.5863636,
                "tempo": 120.0
            }
        ]
    }
}