{
    "mood": "angry",
    "instruments": {
        "Harpsichord": [
            {
                "start_time": 0.2,
                "end_time": 0.4,
                "pitch": 51,
                "velocity": 64,
                "duration": 0.2,
                "tempo": 120.0
            },
            {
                "start_time": 0.4,
                "end_time": 0.6045455,
                "pitch": 53,
                "velocity": 64,
                "duration": 0.2045455,
                "tempo": 120.0
            },
            {
                "start_time": 0.6045455,
                "end_time": 1.8045455,
                "pitch": 58,
                "velocity": 64,
                "duration": 1.2,
                "tempo": 120.0
            },
            {
                "start_time": 1.8045455,
                "end_time": 2.0045455,
                "pitch": 51,
                "velocity": 64,
                "duration": 0.2,
                "tempo": 120.0
            },
            {
                "start_time": 2.0045455,
                "end_time": 2.2113636,
                "pitch": 53,
                "velocity": 64,
                "duration": 0.2068182,
                "tempo": 120.0
            },
            {
                "start_time": 2.2113636,
                "end_time": 2.4159091,
                "pitch": 58,
                "velocity": 64,
                "duration": 0.2045455,
                "tempo": 120.0
            },
            {
                "start_time": 2.4159091,
                "end_time": 3.4090909,
                "pitch": 56,
                "velocity": 64,
                "duration": 0.9931818,
                "tempo": 120.0
            },
            {
                "start_time": 3.4090909,
                "end_time": 3.6113636,
                "pitch": 51,
                "velocity": 64,
                "duration": 0.2022727,
                "tempo": 120.0
            },
            {
                "start_time": 3.6113636,
                "end_time": 3.8159091,
                "pitch": 53,
                "velocity": 64,
                "duration": 0.2045455,
                "tempo": 120.0
            },
            {
                "start_time": 3.8159091,
                "end_time": 5.0159091,
                "pitch": 58,
                "velocity": 64,
                "duration": 1.2,
                "tempo": 120.0
            },
            {
                "start_time": 5.0159091,
                "end_time": 5.2159091,
                "pitch": 51,
                "velocity": 64,
                "duration": 0.2,
                "tempo": 120.0
            },
            {
                "start_time": 5.2159091,
                "end_time": 5.4227273,
                "pitch": 53,
                "velocity": 64,
                "duration": 0.2068182,
                "tempo": 120.0
            },
            {
                "start_time": 5.4227273,
                "end_time": 5.6272727,
                "pitch": 58,
                "velocity": 64,
                "duration": 0.2045455,
                "tempo": 120.0
            },
            {
                "start_time": 5.6272727,
                "end_time": 6.6227273,
                "pitch": 56,
                "velocity": 64,
                "duration": 0.9954545,
                "tempo": 120.0
            },
            {
                "start_time": 6.6227273,
                "end_time": 6.6909091,
                "pitch": 55,
                "velocity": 64,
                "duration": 0.0681818,
                "tempo": 120.0
            },
            {
                "start_time": 6.6909091,
                "end_time": 6.7568182,
                "pitch": 55,
                "velocity": 64,
                "duration": 0.0659091,
                "tempo": 120.0
            },
            {
                "start_time": 6.7568182,
                "end_time": 6.825,
                "pitch": 55,
                "velocity": 64,
                "duration": 0.0681818,
                "tempo": 120.0
            },
            {
                "start_time": 6.825,
                "end_time": 7.0295455,
                "pitch": 55,
                "velocity": 64,
                "duration": 0.2045455,
                "tempo": 120.0
            },
            {
                "start_time": 7.0295455,
                "end_time": 8.2295455,
                "pitch": 60,
                "velocity": 64,
                "duration": 1.2,
                "tempo": 120.0
            },
            {
                "start_time": 8.2295455,
                "end_time": 8.4295455,
                "pitch": 53,
                "velocity": 64,
                "duration": 0.2,
                "tempo": 120.0
            },
            {
                "start_time": 8.4295455,
                "end_time": 8.4977273,
                "pitch": 55,
                "velocity": 64,
                "duration": 0.0681818,
                "tempo": 120.0
            },
            {
                "start_time": 8.4977273,
                "end_time": 8.5681818,
                "pitch": 55,
                "velocity": 64,
                "duration": 0.0704545,
                "tempo": 120.0
            },
            {
                "start_time": 8.5681818,
                "end_time": 8.6363636,
                "pitch": 55,
                "velocity": 64,
                "duration": 0.0681818,
                "tempo": 120.0
            },
            {
                "start_time": 8.6363636,
                "end_time": 8.8409091,
                "pitch": 60,
                "velocity": 64,
                "duration": 0.2045455,
                "tempo": 120.0
            },
            {
                "start_time": 8.8409091,
                "end_time": 9.8340909,
                "pitch": 58,
                "velocity": 64,
                "duration": 0.9931818,
                "tempo": 120.0
            },
            {
                "start_time": 9.8340909,
                "end_time": 9.9022727,
                "pitch": 55,
                "velocity": 64,
                "duration": 0.0681818,
                "tempo": 120.0
            },
            {
                "start_time": 9.9022727,
                "end_time": 9.9681818,
                "pitch": 55,
                "velocity": 64,
                "duration": 0.0659091,
                "tempo": 120.0
            },
            {
                "start_time": 9.9681818,
                "end_time": 10.0363636,
                "pitch": 55,
                "velocity": 64,
                "duration": 0.0681818,
                "tempo": 120.0
            },
            {
                "start_time": 10.0363636,
                "end_time": 10.2409091,
                "pitch": 55,
                "velocity": 64,
                "duration": 0.2045455,
                "tempo": 120.0
            },
            {
                "start_time": 10.2409091,
                "end_time": 11.4477273,
                "pitch": 60,
                "velocity": 64,
                "duration": 1.2068182,
                "tempo": 120.0
            },
            {
                "start_time": 11.4477273,
                "end_time": 11.6522727,
                "pitch": 53,
                "velocity": 64,
                "duration": 0.2045455,
                "tempo": 120.0
            },
            {
                "start_time": 11.6522727,
                "end_time": 11.7204545,
                "pitch": 55,
                "velocity": 64,
                "duration": 0.0681818,
                "tempo": 120.0
            },
            {
                "start_time": 11.7204545,
                "end_time": 11.7863636,
                "pitch": 55,
                "velocity": 64,
                "duration": 0.0659091,
                "tempo": 120.0
            },
            {
                "start_time": 11.7863636,
                "end_time": 11.8522727,
                "pitch": 55,
                "velocity": 64,
                "duration": 0.0659091,
                "tempo": 120.0
            },
            {
                "start_time": 11.8522727,
                "end_time": 12.0522727,
                "pitch": 60,
                "velocity": 64,
                "duration": 0.2,
                "tempo": 120.0
            },
            {
                "start_time": 12.0522727,
                "end_time": 12.8636364,
                "pitch": 58,
                "velocity": 64,
                "duration": 0.8113636,
                "tempo": 120.0
            }
        ],
        "Vibraphone": [
            {
                "start_time": 0.0,
                "end_time": 0.1,
                "pitch": 58,
                "velocity": 101,
                "duration": 0.1,
                "tempo": 120.0
            },
            {
                "start_time": 0.1,
                "end_time": 0.2,
                "pitch": 46,
                "velocity": 101,
                "duration": 0.1,
                "tempo": 120.0
            },
            {
                "start_time": 0.2,
                "end_time": 0.3,
                "pitch": 53,
                "velocity": 101,
                "duration": 0.1,
                "tempo": 120.0
            },
            {
                "start_time": 0.3,
                "end_time": 0.4,
                "pitch": 65,
                "velocity": 101,
                "duration": 0.1,
                "tempo": 120.0
            },
            {
                "start_time": 0.4,
                "end_time": 0.5022727,
                "pitch": 58,
                "velocity": 101,
                "duration": 0.1022727,
                "tempo": 120.0
            },
            {
                "start_time": 0.5022727,
                "end_time": 0.6045455,
                "pitch": 46,
                "velocity": 101,
                "duration": 0.1022727,
                "tempo": 120.0
            },
            {
                "start_time": 0.6045455,
                "end_time": 0.7068182,
                "pitch": 70,
                "velocity": 101,
                "duration": 0.1022727,
                "tempo": 120.0
            },
            {
                "start_time": 0.7068182,
                "end_time": 0.8113636,
                "pitch": 46,
                "velocity": 101,
                "duration": 0.1045455,
                "tempo": 120.0
            },
            {
                "start_time": 0.8113636,
                "end_time": 0.9090909,
                "pitch": 58,
                "velocity": 101,
                "duration": 0.0977273,
                "tempo": 120.0
            },
            {
                "start_time": 0.9090909,
                "end_time": 1.0068182,
                "pitch": 46,
                "velocity": 101,
                "duration": 0.0977273,
                "tempo": 120.0
            },
            {
                "start_time": 1.0068182,
                "end_time": 1.1045455,
                "pitch": 53,
                "velocity": 101,
                "duration": 0.0977273,
                "tempo": 120.0
            },
            {
                "start_time": 1.1045455,
                "end_time": 1.2022727,
                "pitch": 70,
                "velocity": 101,
                "duration": 0.0977273,
                "tempo": 120.0
            },
            {
                "start_time": 1.2022727,
                "end_time": 1.3022727,
                "pitch": 46,
                "velocity": 101,
                "duration": 0.1,
                "tempo": 120.0
            },
            {
                "start_time": 1.3022727,
                "end_time": 1.4022727,
                "pitch": 53,
                "velocity": 101,
                "duration": 0.1,
                "tempo": 120.0
            },
            {
                "start_time": 1.4022727,
                "end_time": 1.5022727,
                "pitch": 58,
                "velocity": 101,
                "duration": 0.1,
                "tempo": 120.0
            },
            {
                "start_time": 1.5022727,
                "end_time": 1.6022727,
                "pitch": 46,
                "velocity": 101,
                "duration": 0.1,
                "tempo": 120.0
            },
            {
                "start_time": 1.6022727,
                "end_time": 1.7045455,
                "pitch": 58,
                "velocity": 101,
                "duration": 0.1022727,
                "tempo": 120.0
            },
            {
                "start_time": 1.7045455,
                "end_time": 1.8045455,
                "pitch": 46,
                "velocity": 101,
                "duration": 0.1,
                "tempo": 120.0
            },
            {
                "start_time": 1.8045455,
                "end_time": 1.9045455,
                "pitch": 53,
                "velocity": 101,
                "duration": 0.1,
                "tempo": 120.0
            },
            {
                "start_time": 1.9045455,
                "end_time": 2.0045455,
                "pitch": 65,
                "velocity": 101,
                "duration": 0.1,
                "tempo": 120.0
            },
            {
                "start_time": 2.0045455,
                "end_time": 2.1090909,
                "pitch": 58,
                "velocity": 101,
                "duration": 0.1045455,
                "tempo": 120.0
            },
            {
                "start_time": 2.1090909,
                "end_time": 2.2113636,
                "pitch": 46,
                "velocity": 101,
                "duration": 0.1022727,
                "tempo": 120.0
            },
            {
                "start_time": 2.2113636,
                "end_time": 2.3136364,
                "pitch": 70,
                "velocity": 101,
                "duration": 0.1022727,
                "tempo": 120.0
            },
            {
                "start_time": 2.3136364,
                "end_time": 2.4159091,
                "pitch": 46,
                "velocity": 101,
                "duration": 0.1022727,
                "tempo": 120.0
            },
            {
                "start_time": 2.4159091,
                "end_time": 2.5136364,
                "pitch": 58,
                "velocity": 101,
                "duration": 0.0977273,
                "tempo": 120.0
            },
            {
                "start_time": 2.5136364,
                "end_time": 2.6113636,
                "pitch": 46,
                "velocity": 101,
                "duration": 0.0977273,
                "tempo": 120.0
            },
            {
                "start_time": 2.6113636,
                "end_time": 2.7113636,
                "pitch": 53,
                "velocity": 101,
                "duration": 0.1,
                "tempo": 120.0
            },
            {
                "start_time": 2.7113636,
                "end_time": 2.8090909,
                "pitch": 70,
                "velocity": 101,
                "duration": 0.0977273,
                "tempo": 120.0
            },
            {
                "start_time": 2.8090909,
                "end_time": 2.9090909,
                "pitch": 46,
                "velocity": 101,
                "duration": 0.1,
                "tempo": 120.0
            },
            {
                "start_time": 2.9090909,
                "end_time": 3.0090909,
                "pitch": 53,
                "velocity": 101,
                "duration": 0.1,
                "tempo": 120.0
            },
            {
                "start_time": 3.0090909,
                "end_time": 3.1090909,
                "pitch": 58,
                "velocity": 101,
                "duration": 0.1,
                "tempo": 120.0
            },
            {
                "start_time": 3.1090909,
                "end_time": 3.2090909,
                "pitch": 46,
                "velocity": 101,
                "duration": 0.1,
                "tempo": 120.0
            },
            {
                "start_time": 3.2090909,
                "end_time": 3.3090909,
                "pitch": 58,
                "velocity": 101,
                "duration": 0.1,
                "tempo": 120.0
            },
            {
                "start_time": 3.3090909,
                "end_time": 3.4090909,
                "pitch": 46,
                "velocity": 101,
                "duration": 0.1,
                "tempo": 120.0
            },
            {
                "start_time": 3.4090909,
                "end_time": 3.5113636,
                "pitch": 53,
                "velocity": 101,
                "duration": 0.1022727,
                "tempo": 120.0
            },
            {
                "start_time": 3.5113636,
                "end_time": 3.6113636,
                "pitch": 65,
                "velocity": 101,
                "duration": 0.1,
                "tempo": 120.0
            },
            {
                "start_time": 3.6113636,
                "end_time": 3.7136364,
                "pitch": 58,
                "velocity": 101,
                "duration": 0.1022727,
                "tempo": 120.0
            },
            {
                "start_time": 3.7136364,
                "end_time": 3.8159091,
                "pitch": 46,
                "velocity": 101,
                "duration": 0.1022727,
                "tempo": 120.0
            },
            {
                "start_time": 3.8159091,
                "end_time": 3.9181818,
                "pitch": 70,
                "velocity": 101,
                "duration": 0.1022727,
                "tempo": 120.0
            },
            {
                "start_time": 3.9181818,
                "end_time": 4.0227273,
                "pitch": 46,
                "velocity": 101,
                "duration": 0.1045455,
                "tempo": 120.0
            },
            {
                "start_time": 4.0227273,
                "end_time": 4.1204545,
                "pitch": 58,
                "velocity": 101,
                "duration": 0.0977273,
                "tempo": 120.0
            },
            {
                "start_time": 4.1204545,
                "end_time": 4.2181818,
                "pitch": 46,
                "velocity": 101,
                "duration": 0.0977273,
                "tempo": 120.0
            },
            {
                "start_time": 4.2181818,
                "end_time": 4.3159091,
                "pitch": 53,
                "velocity": 101,
                "duration": 0.0977273,
                "tempo": 120.0
            },
            {
                "start_time": 4.3159091,
                "end_time": 4.4136364,
                "pitch": 70,
                "velocity": 101,
                "duration": 0.0977273,
                "tempo": 120.0
            },
            {
                "start_time": 4.4136364,
                "end_time": 4.5136364,
                "pitch": 46,
                "velocity": 101,
                "duration": 0.1,
                "tempo": 120.0
            },
            {
                "start_time": 4.5136364,
                "end_time": 4.6159091,
                "pitch": 53,
                "velocity": 101,
                "duration": 0.1022727,
                "tempo": 120.0
            },
            {
                "start_time": 4.6159091,
                "end_time": 4.7159091,
                "pitch": 58,
                "velocity": 101,
                "duration": 0.1,
                "tempo": 120.0
            },
            {
                "start_time": 4.7159091,
                "end_time": 4.8159091,
                "pitch": 46,
                "velocity": 101,
                "duration": 0.1,
                "tempo": 120.0
            },
            {
                "start_time": 4.8159091,
                "end_time": 4.9159091,
                "pitch": 58,
                "velocity": 101,
                "duration": 0.1,
                "tempo": 120.0
            },
            {
                "start_time": 4.9159091,
                "end_time": 5.0159091,
                "pitch": 46,
                "velocity": 101,
                "duration": 0.1,
                "tempo": 120.0
            },
            {
                "start_time": 5.0159091,
                "end_time": 5.1159091,
                "pitch": 53,
                "velocity": 101,
                "duration": 0.1,
                "tempo": 120.0
            },
            {
                "start_time": 5.1159091,
                "end_time": 5.2159091,
                "pitch": 65,
                "velocity": 101,
                "duration": 0.1,
                "tempo": 120.0
            },
            {
                "start_time": 5.2159091,
                "end_time": 5.3181818,
                "pitch": 58,
                "velocity": 101,
                "duration": 0.1022727,
                "tempo": 120.0
            },
            {
                "start_time": 5.3181818,
                "end_time": 5.4227273,
                "pitch": 46,
                "velocity": 101,
                "duration": 0.1045455,
                "tempo": 120.0
            },
            {
                "start_time": 5.4227273,
                "end_time": 5.525,
                "pitch": 70,
                "velocity": 101,
                "duration": 0.1022727,
                "tempo": 120.0
            },
            {
                "start_time": 5.525,
                "end_time": 5.6272727,
                "pitch": 46,
                "velocity": 101,
                "duration": 0.1022727,
                "tempo": 120.0
            },
            {
                "start_time": 5.6272727,
                "end_time": 5.725,
                "pitch": 58,
                "velocity": 101,
                "duration": 0.0977273,
                "tempo": 120.0
            },
            {
                "start_time": 5.725,
                "end_time": 5.8227273,
                "pitch": 46,
                "velocity": 101,
                "duration": 0.0977273,
                "tempo": 120.0
            },
            {
                "start_time": 5.8227273,
                "end_time": 5.9204545,
                "pitch": 53,
                "velocity": 101,
                "duration": 0.0977273,
                "tempo": 120.0
            },
            {
                "start_time": 5.9204545,
                "end_time": 6.0204545,
                "pitch": 70,
                "velocity": 101,
                "duration": 0.1,
                "tempo": 120.0
            },
            {
                "start_time": 6.0204545,
                "end_time": 6.1204545,
                "pitch": 46,
                "velocity": 101,
                "duration": 0.1,
                "tempo": 120.0
            },
            {
                "start_time": 6.1204545,
                "end_time": 6.2204545,
                "pitch": 53,
                "velocity": 101,
                "duration": 0.1,
                "tempo": 120.0
            },
            {
                "start_time": 6.2204545,
                "end_time": 6.3204545,
                "pitch": 58,
                "velocity": 101,
                "duration": 0.1,
                "tempo": 120.0
            },
            {
                "start_time": 6.3204545,
                "end_time": 6.4227273,
                "pitch": 46,
                "velocity": 101,
                "duration": 0.1022727,
                "tempo": 120.0
            },
            {
                "start_time": 6.4227273,
                "end_time": 6.5227273,
                "pitch": 60,
                "velocity": 101,
                "duration": 0.1,
                "tempo": 120.0
            },
            {
                "start_time": 6.5227273,
                "end_time": 6.6227273,
                "pitch": 48,
                "velocity": 101,
                "duration": 0.1,
                "tempo": 120.0
            },
            {
                "start_time": 6.6227273,
                "end_time": 6.725,
                "pitch": 55,
                "velocity": 101,
                "duration": 0.1022727,
                "tempo": 120.0
            },
            {
                "start_time": 6.725,
                "end_time": 6.825,
                "pitch": 67,
                "velocity": 101,
                "duration": 0.1,
                "tempo": 120.0
            },
            {
                "start_time": 6.825,
                "end_time": 6.9272727,
                "pitch": 60,
                "velocity": 101,
                "duration": 0.1022727,
                "tempo": 120.0
            },
            {
                "start_time": 6.9272727,
                "end_time": 7.0295455,
                "pitch": 48,
                "velocity": 101,
                "duration": 0.1022727,
                "tempo": 120.0
            },
            {
                "start_time": 7.0295455,
                "end_time": 7.1318182,
                "pitch": 72,
                "velocity": 101,
                "duration": 0.1022727,
                "tempo": 120.0
            },
            {
                "start_time": 7.1318182,
                "end_time": 7.2363636,
                "pitch": 48,
                "velocity": 101,
                "duration": 0.1045455,
                "tempo": 120.0
            },
            {
                "start_time": 7.2363636,
                "end_time": 7.3340909,
                "pitch": 60,
                "velocity": 101,
                "duration": 0.0977273,
                "tempo": 120.0
            },
            {
                "start_time": 7.3340909,
                "end_time": 7.4318182,
                "pitch": 48,
                "velocity": 101,
                "duration": 0.0977273,
                "tempo": 120.0
            },
            {
                "start_time": 7.4318182,
                "end_time": 7.5295455,
                "pitch": 55,
                "velocity": 101,
                "duration": 0.0977273,
                "tempo": 120.0
            },
            {
                "start_time": 7.5295455,
                "end_time": 7.6272727,
                "pitch": 72,
                "velocity": 101,
                "duration": 0.0977273,
                "tempo": 120.0
            },
            {
                "start_time": 7.6272727,
                "end_time": 7.7272727,
                "pitch": 48,
                "velocity": 101,
                "duration": 0.1,
                "tempo": 120.0
            },
            {
                "start_time": 7.7272727,
                "end_time": 7.8272727,
                "pitch": 55,
                "velocity": 101,
                "duration": 0.1,
                "tempo": 120.0
            },
            {
                "start_time": 7.8272727,
                "end_time": 7.9272727,
                "pitch": 60,
                "velocity": 101,
                "duration": 0.1,
                "tempo": 120.0
            },
            {
                "start_time": 7.9272727,
                "end_time": 8.0272727,
                "pitch": 48,
                "velocity": 101,
                "duration": 0.1,
                "tempo": 120.0
            },
            {
                "start_time": 8.0272727,
                "end_time": 8.1295455,
                "pitch": 60,
                "velocity": 101,
                "duration": 0.1022727,
                "tempo": 120.0
            },
            {
                "start_time": 8.1295455,
                "end_time": 8.2295455,
                "pitch": 48,
                "velocity": 101,
                "duration": 0.1,
                "tempo": 120.0
            },
            {
                "start_time": 8.2295455,
                "end_time": 8.3295455,
                "pitch": 55,
                "velocity": 101,
                "duration": 0.1,
                "tempo": 120.0
            },
            {
                "start_time": 8.3295455,
                "end_time": 8.4295455,
                "pitch": 67,
                "velocity": 101,
                "duration": 0.1,
                "tempo": 120.0
            },
            {
                "start_time": 8.4295455,
                "end_time": 8.5340909,
                "pitch": 60,
                "velocity": 101,
                "duration": 0.1045455,
                "tempo": 120.0
            },
            {
                "start_time": 8.5340909,
                "end_time": 8.6363636,
                "pitch": 48,
                "velocity": 101,
                "duration": 0.1022727,
                "tempo": 120.0
            },
            {
                "start_time": 8.6363636,
                "end_time": 8.7386364,
                "pitch": 72,
                "velocity": 101,
                "duration": 0.1022727,
                "tempo": 120.0
            },
            {
                "start_time": 8.7386364,
                "end_time": 8.8409091,
                "pitch": 48,
                "velocity": 101,
                "duration": 0.1022727,
                "tempo": 120.0
            },
            {
                "start_time": 8.8409091,
                "end_time": 8.9386364,
                "pitch": 60,
                "velocity": 101,
                "duration": 0.0977273,
                "tempo": 120.0
            },
            {
                "start_time": 8.9386364,
                "end_time": 9.0363636,
                "pitch": 48,
                "velocity": 101,
                "duration": 0.0977273,
                "tempo": 120.0
            },
            {
                "start_time": 9.0363636,
                "end_time": 9.1363636,
                "pitch": 55,
                "velocity": 101,
                "duration": 0.1,
                "tempo": 120.0
            },
            {
                "start_time": 9.1363636,
                "end_time": 9.2340909,
                "pitch": 72,
                "velocity": 101,
                "duration": 0.0977273,
                "tempo": 120.0
            },
            {
                "start_time": 9.2340909,
                "end_time": 9.3340909,
                "pitch": 48,
                "velocity": 101,
                "duration": 0.1,
                "tempo": 120.0
            },
            {
                "start_time": 9.3340909,
                "end_time": 9.4340909,
                "pitch": 55,
                "velocity": 101,
                "duration": 0.1,
                "tempo": 120.0
            },
            {
                "start_time": 9.4340909,
                "end_time": 9.5340909,
                "pitch": 60,
                "velocity": 101,
                "duration": 0.1,
                "tempo": 120.0
            },
            {
                "start_time": 9.5340909,
                "end_time": 9.6340909,
                "pitch": 48,
                "velocity": 101,
                "duration": 0.1,
                "tempo": 120.0
            },
            {
                "start_time": 9.6340909,
                "end_time": 9.7340909,
                "pitch": 60,
                "velocity": 101,
                "duration": 0.1,
                "tempo": 120.0
            },
            {
                "start_time": 9.7340909,
                "end_time": 9.8340909,
                "pitch": 48,
                "velocity": 101,
                "duration": 0.1,
                "tempo": 120.0
            },
            {
                "start_time": 9.8340909,
                "end_time": 9.9363636,
                "pitch": 55,
                "velocity": 101,
                "duration": 0.1022727,
                "tempo": 120.0
            },
            {
                "start_time": 9.9363636,
                "end_time": 10.0363636,
                "pitch": 67,
                "velocity": 101,
                "duration": 0.1,
                "tempo": 120.0
            },
            {
                "start_time": 10.0363636,
                "end_time": 10.1386364,
                "pitch": 60,
                "velocity": 101,
                "duration": 0.1022727,
                "tempo": 120.0
            },
            {
                "start_time": 10.1386364,
                "end_time": 10.2409091,
                "pitch": 48,
                "velocity": 101,
                "duration": 0.1022727,
                "tempo": 120.0
            },
            {
                "start_time": 10.2409091,
                "end_time": 10.3431818,
                "pitch": 72,
                "velocity": 101,
                "duration": 0.1022727,
                "tempo": 120.0
            },
            {
                "start_time": 10.3431818,
                "end_time": 10.4477273,
                "pitch": 48,
                "velocity": 101,
                "duration": 0.1045455,
                "tempo": 120.0
            },
            {
                "start_time": 10.4477273,
                "end_time": 10.5454545,
                "pitch": 60,
                "velocity": 101,
                "duration": 0.0977273,
                "tempo": 120.0
            },
            {
                "start_time": 10.5454545,
                "end_time": 10.6431818,
                "pitch": 48,
                "velocity": 101,
                "duration": 0.0977273,
                "tempo": 120.0
            },
            {
                "start_time": 10.6431818,
                "end_time": 10.7409091,
                "pitch": 55,
                "velocity": 101,
                "duration": 0.0977273,
                "tempo": 120.0
            },
            {
                "start_time": 10.7409091,
                "end_time": 10.8386364,
                "pitch": 72,
                "velocity": 101,
                "duration": 0.0977273,
                "tempo": 120.0
            },
            {
                "start_time": 10.8386364,
                "end_time": 10.9386364,
                "pitch": 48,
                "velocity": 101,
                "duration": 0.1,
                "tempo": 120.0
            },
            {
                "start_time": 10.9386364,
                "end_time": 11.0409091,
                "pitch": 55,
                "velocity": 101,
                "duration": 0.1022727,
                "tempo": 120.0
            },
            {
                "start_time": 11.0409091,
                "end_time": 11.1409091,
                "pitch": 60,
                "velocity": 101,
                "duration": 0.1,
                "tempo": 120.0
            },
            {
                "start_time": 11.1409091,
                "end_time": 11.2409091,
                "pitch": 48,
                "velocity": 101,
                "duration": 0.1,
                "tempo": 120.0
            },
            {
                "start_time": 11.2409091,
                "end_time": 11.3431818,
                "pitch": 60,
                "velocity": 101,
                "duration": 0.1022727,
                "tempo": 120.0
            },
            {
                "start_time": 11.3431818,
                "end_time": 11.4477273,
                "pitch": 48,
                "velocity": 101,
                "duration": 0.1045455,
                "tempo": 120.0
            },
            {
                "start_time": 11.4477273,
                "end_time": 11.55,
                "pitch": 55,
                "velocity": 101,
                "duration": 0.1022727,
                "tempo": 120.0
            },
            {
                "start_time": 11.55,
                "end_time": 11.6522727,
                "pitch": 67,
                "velocity": 101,
                "duration": 0.1022727,
                "tempo": 120.0
            },
            {
                "start_time": 11.6522727,
                "end_time": 11.7522727,
                "pitch": 60,
                "velocity": 101,
                "duration": 0.1,
                "tempo": 120.0
            },
            {
                "start_time": 11.7522727,
                "end_time": 11.8522727,
                "pitch": 48,
                "velocity": 101,
                "duration": 0.1,
                "tempo": 120.0
            },
            {
                "start_time": 11.8522727,
                "end_time": 11.9522727,
                "pitch": 72,
                "velocity": 101,
                "duration": 0.1,
                "tempo": 120.0
            },
            {
                "start_time": 11.9522727,
                "end_time": 12.0522727,
                "pitch": 48,
                "velocity": 101,
                "duration": 0.1,
                "tempo": 120.0
            },
            {
                "start_time": 12.0522727,
                "end_time": 12.15,
                "pitch": 60,
                "velocity": 101,
                "duration": 0.0977273,
                "tempo": 120.0
            },
            {
                "start_time": 12.15,
                "end_time": 12.2477273,
                "pitch": 48,
                "velocity": 101,
                "duration": 0.0977273,
                "tempo": 120.0
            },
            {
                "start_time": 12.2477273,
                "end_time": 12.3477273,
                "pitch": 55,
                "velocity": 101,
                "duration": 0.1,
                "tempo": 120.0
            },
            {
                "start_time": 12.3477273,
                "end_time": 12.4454545,
                "pitch": 72,
                "velocity": 101,
                "duration": 0.0977273,
                "tempo": 120.0
            },
            {
                "start_time": 12.4454545,
                "end_time": 12.5454545,
                "pitch": 48,
                "velocity": 101,
                "duration": 0.1,
                "tempo": 120.0
            },
            {
                "start_time": 12.5454545,
                "end_time": 12.6454545,
                "pitch": 55,
                "velocity": 101,
                "duration": 0.1,
                "tempo": 120.0
            },
            {
                "start_time": 12.6454545,
                "end_time": 12.7477273,
                "pitch": 60,
                "velocity": 101,
                "duration": 0.1022727,
                "tempo": 120.0
            },
            {
                "start_time": 12.7477273,
                "end_time": 12.8636364,
                "pitch": 48,
                "velocity": 101,
                "duration": 0.1159091,
                "tempo": 120.0
            }
        ],
        "Acoustic Bass": [
            {
                "start_time": 0.0,
                "end_time": 0.2,
                "pitch": 34,
                "velocity": 127,
                "duration": 0.2,
                "tempo": 120.0
            },
            {
                "start_time": 0.2,
                "end_time": 0.4,
                "pitch": 46,
                "velocity": 127,
                "duration": 0.2,
                "tempo": 120.0
            },
            {
                "start_time": 0.4,
                "end_time": 0.6045455,
                "pitch": 34,
                "velocity": 127,
                "duration": 0.2045455,
                "tempo": 120.0
            },
            {
                "start_time": 0.6045455,
                "end_time": 0.8113636,
                "pitch": 46,
                "velocity": 127,
                "duration": 0.2068182,
                "tempo": 120.0
            },
            {
                "start_time": 0.8113636,
                "end_time": 1.0068182,
                "pitch": 34,
                "velocity": 127,
                "duration": 0.1954545,
                "tempo": 120.0
            },
            {
                "start_time": 1.0068182,
                "end_time": 1.2022727,
                "pitch": 46,
                "velocity": 127,
                "duration": 0.1954545,
                "tempo": 120.0
            },
            {
                "start_time": 1.2022727,
                "end_time": 1.4022727,
                "pitch": 34,
                "velocity": 127,
                "duration": 0.2,
                "tempo": 120.0
            },
            {
                "start_time": 1.4022727,
                "end_time": 1.6022727,
                "pitch": 46,
                "velocity": 127,
                "duration": 0.2,
                "tempo": 120.0
            },
            {
                "start_time": 1.6022727,
                "end_time": 1.8045455,
                "pitch": 34,
                "velocity": 127,
                "duration": 0.2022727,
                "tempo": 120.0
            },
            {
                "start_time": 1.8045455,
                "end_time": 2.0045455,
                "pitch": 46,
                "velocity": 127,
                "duration": 0.2,
                "tempo": 120.0
            },
            {
                "start_time": 2.0045455,
                "end_time": 2.2113636,
                "pitch": 34,
                "velocity": 127,
                "duration": 0.2068182,
                "tempo": 120.0
            },
            {
                "start_time": 2.2113636,
                "end_time": 2.4159091,
                "pitch": 46,
                "velocity": 127,
                "duration": 0.2045455,
                "tempo": 120.0
            },
            {
                "start_time": 2.4159091,
                "end_time": 2.6113636,
                "pitch": 34,
                "velocity": 127,
                "duration": 0.1954545,
                "tempo": 120.0
            },
            {
                "start_time": 2.6113636,
                "end_time": 2.8090909,
                "pitch": 46,
                "velocity": 127,
                "duration": 0.1977273,
                "tempo": 120.0
            },
            {
                "start_time": 2.8090909,
                "end_time": 3.0090909,
                "pitch": 34,
                "velocity": 127,
                "duration": 0.2,
                "tempo": 120.0
            },
            {
                "start_time": 3.0090909,
                "end_time": 3.2090909,
                "pitch": 46,
                "velocity": 127,
                "duration": 0.2,
                "tempo": 120.0
            },
            {
                "start_time": 3.225,
                "end_time": 3.4090909,
                "pitch": 34,
                "velocity": 127,
                "duration": 0.1840909,
                "tempo": 120.0
            },
            {
                "start_time": 3.4090909,
                "end_time": 3.6113636,
                "pitch": 46,
                "velocity": 127,
                "duration": 0.2022727,
                "tempo": 120.0
            },
            {
                "start_time": 3.6113636,
                "end_time": 3.8159091,
                "pitch": 34,
                "velocity": 127,
                "duration": 0.2045455,
                "tempo": 120.0
            },
            {
                "start_time": 3.8159091,
                "end_time": 4.0227273,
                "pitch": 46,
                "velocity": 127,
                "duration": 0.2068182,
                "tempo": 120.0
            },
            {
                "start_time": 4.0227273,
                "end_time": 4.2181818,
                "pitch": 34,
                "velocity": 127,
                "duration": 0.1954545,
                "tempo": 120.0
            },
            {
                "start_time": 4.2181818,
                "end_time": 4.4136364,
                "pitch": 46,
                "velocity": 127,
                "duration": 0.1954545,
                "tempo": 120.0
            },
            {
                "start_time": 4.4136364,
                "end_time": 4.6159091,
                "pitch": 34,
                "velocity": 127,
                "duration": 0.2022727,
                "tempo": 120.0
            },
            {
                "start_time": 4.6159091,
                "end_time": 4.8159091,
                "pitch": 46,
                "velocity": 127,
                "duration": 0.2,
                "tempo": 120.0
            },
            {
                "start_time": 4.8159091,
                "end_time": 5.0159091,
                "pitch": 34,
                "velocity": 127,
                "duration": 0.2,
                "tempo": 120.0
            },
            {
                "start_time": 5.0159091,
                "end_time": 5.2159091,
                "pitch": 46,
                "velocity": 127,
                "duration": 0.2,
                "tempo": 120.0
            },
            {
                "start_time": 5.2159091,
                "end_time": 5.4227273,
                "pitch": 34,
                "velocity": 127,
                "duration": 0.2068182,
                "tempo": 120.0
            },
            {
                "start_time": 5.4227273,
                "end_time": 5.6272727,
                "pitch": 46,
                "velocity": 127,
                "duration": 0.2045455,
                "tempo": 120.0
            },
            {
                "start_time": 5.6272727,
                "end_time": 5.8227273,
                "pitch": 34,
                "velocity": 127,
                "duration": 0.1954545,
                "tempo": 120.0
            },
            {
                "start_time": 5.8227273,
                "end_time": 6.0204545,
                "pitch": 46,
                "velocity": 127,
                "duration": 0.1977273,
                "tempo": 120.0
            },
            {
                "start_time": 6.0204545,
                "end_time": 6.2204545,
                "pitch": 34,
                "velocity": 127,
                "duration": 0.2,
                "tempo": 120.0
            },
            {
                "start_time": 6.2204545,
                "end_time": 6.4386364,
                "pitch": 46,
                "velocity": 127,
                "duration": 0.2181818,
                "tempo": 120.0
            },
            {
                "start_time": 6.4386364,
                "end_time": 6.6227273,
                "pitch": 34,
                "velocity": 127,
                "duration": 0.1840909,
                "tempo": 120.0
            },
            {
                "start_time": 6.6227273,
                "end_time": 6.825,
                "pitch": 48,
                "velocity": 127,
                "duration": 0.2022727,
                "tempo": 120.0
            },
            {
                "start_time": 6.825,
                "end_time": 7.0295455,
                "pitch": 36,
                "velocity": 127,
                "duration": 0.2045455,
                "tempo": 120.0
            },
            {
                "start_time": 7.0295455,
                "end_time": 7.2363636,
                "pitch": 48,
                "velocity": 127,
                "duration": 0.2068182,
                "tempo": 120.0
            },
            {
                "start_time": 7.2363636,
                "end_time": 7.4318182,
                "pitch": 36,
                "velocity": 127,
                "duration": 0.1954545,
                "tempo": 120.0
            },
            {
                "start_time": 7.4318182,
                "end_time": 7.6272727,
                "pitch": 48,
                "velocity": 127,
                "duration": 0.1954545,
                "tempo": 120.0
            },
            {
                "start_time": 7.6272727,
                "end_time": 7.8272727,
                "pitch": 36,
                "velocity": 127,
                "duration": 0.2,
                "tempo": 120.0
            },
            {
                "start_time": 7.8272727,
                "end_time": 8.0272727,
                "pitch": 48,
                "velocity": 127,
                "duration": 0.2,
                "tempo": 120.0
            },
            {
                "start_time": 8.0272727,
                "end_time": 8.2295455,
                "pitch": 36,
                "velocity": 127,
                "duration": 0.2022727,
                "tempo": 120.0
            },
            {
                "start_time": 8.2295455,
                "end_time": 8.4295455,
                "pitch": 48,
                "velocity": 127,
                "duration": 0.2,
                "tempo": 120.0
            },
            {
                "start_time": 8.4295455,
                "end_time": 8.6363636,
                "pitch": 36,
                "velocity": 127,
                "duration": 0.2068182,
                "tempo": 120.0
            },
            {
                "start_time": 8.6363636,
                "end_time": 8.8409091,
                "pitch": 48,
                "velocity": 127,
                "duration": 0.2045455,
                "tempo": 120.0
            },
            {
                "start_time": 8.8409091,
                "end_time": 9.0363636,
                "pitch": 36,
                "velocity": 127,
                "duration": 0.1954545,
                "tempo": 120.0
            },
            {
                "start_time": 9.0363636,
                "end_time": 9.2340909,
                "pitch": 48,
                "velocity": 127,
                "duration": 0.1977273,
                "tempo": 120.0
            },
            {
                "start_time": 9.2340909,
                "end_time": 9.4340909,
                "pitch": 36,
                "velocity": 127,
                "duration": 0.2,
                "tempo": 120.0
            },
            {
                "start_time": 9.4340909,
                "end_time": 9.6340909,
                "pitch": 48,
                "velocity": 127,
                "duration": 0.2,
                "tempo": 120.0
            },
            {
                "start_time": 9.6340909,
                "end_time": 9.8340909,
                "pitch": 36,
                "velocity": 127,
                "duration": 0.2,
                "tempo": 120.0
            },
            {
                "start_time": 9.8340909,
                "end_time": 10.0363636,
                "pitch": 48,
                "velocity": 127,
                "duration": 0.2022727,
                "tempo": 120.0
            },
            {
                "start_time": 10.0363636,
                "end_time": 10.2409091,
                "pitch": 36,
                "velocity": 127,
                "duration": 0.2045455,
                "tempo": 120.0
            },
            {
                "start_time": 10.2409091,
                "end_time": 10.4477273,
                "pitch": 48,
                "velocity": 127,
                "duration": 0.2068182,
                "tempo": 120.0
            },
            {
                "start_time": 10.4477273,
                "end_time": 10.6431818,
                "pitch": 36,
                "velocity": 127,
                "duration": 0.1954545,
                "tempo": 120.0
            },
            {
                "start_time": 10.6431818,
                "end_time": 10.8386364,
                "pitch": 48,
                "velocity": 127,
                "duration": 0.1954545,
                "tempo": 120.0
            },
            {
                "start_time": 10.8386364,
                "end_time": 11.0409091,
                "pitch": 36,
                "velocity": 127,
                "duration": 0.2022727,
                "tempo": 120.0
            },
            {
                "start_time": 11.0409091,
                "end_time": 11.2409091,
                "pitch": 48,
                "velocity": 127,
                "duration": 0.2,
                "tempo": 120.0
            },
            {
                "start_time": 11.2409091,
                "end_time": 11.4477273,
                "pitch": 36,
                "velocity": 127,
                "duration": 0.2068182,
                "tempo": 120.0
            },
            {
                "start_time": 11.4477273,
                "end_time": 11.6522727,
                "pitch": 48,
                "velocity": 127,
                "duration": 0.2045455,
                "tempo": 120.0
            },
            {
                "start_time": 11.6522727,
                "end_time": 11.8522727,
                "pitch": 36,
                "velocity": 127,
                "duration": 0.2,
                "tempo": 120.0
            },
            {
                "start_time": 11.8522727,
                "end_time": 12.0522727,
                "pitch": 48,
                "velocity": 127,
                "duration": 0.2,
                "tempo": 120.0
            },
            {
                "start_time": 12.0522727,
                "end_time": 12.2477273,
                "pitch": 36,
                "velocity": 127,
                "duration": 0.1954545,
                "tempo": 120.0
            },
            {
                "start_time": 12.2477273,
                "end_time": 12.4454545,
                "pitch": 48,
                "velocity": 127,
                "duration": 0.1977273,
                "tempo": 120.0
            },
            {
                "start_time": 12.4454545,
                "end_time": 12.6454545,
                "pitch": 36,
                "velocity": 127,
                "duration": 0.2,
                "tempo": 120.0
            },
            {
                "start_time": 12.6454545,
                "end_time": 12.8636364,
                "pitch": 48,
                "velocity": 127,
                "duration": 0.2181818,
                "tempo": 120.0
            }
        ]
    }
}