{
    "mood": "angry",
    "instruments": {
        "Trumpet": [
            {
                "start_time": 0.0159091,
                "end_time": 1.6204545,
                "pitch": 55,
                "velocity": 101,
                "duration": 1.6045455,
                "tempo": 120.0
            },
            {
                "start_time": 1.6204545,
                "end_time": 3.2227273,
                "pitch": 53,
                "velocity": 101,
                "duration": 1.6022727,
                "tempo": 120.0
            },
            {
                "start_time": 3.2227273,
                "end_time": 4.8272727,
                "pitch": 53,
                "velocity": 101,
                "duration": 1.6045455,
                "tempo": 120.0
            },
            {
                "start_time": 4.8272727,
                "end_time": 6.425,
                "pitch": 52,
                "velocity": 101,
                "duration": 1.5977273,
                "tempo": 120.0
            },
            {
                "start_time": 6.425,
                "end_time": 8.0409091,
                "pitch": 60,
                "velocity": 101,
                "duration": 1.6159091,
                "tempo": 120.0
            },
            {
                "start_time": 8.0409091,
                "end_time": 9.6386364,
                "pitch": 58,
                "velocity": 101,
                "duration": 1.5977273,
                "tempo": 120.0
            },
            {
                "start_time": 9.6386364,
                "end_time": 11.2568182,
                "pitch": 58,
                "velocity": 101,
                "duration": 1.6181818,
                "tempo": 120.0
            },
            {
                "start_time": 11.2568182,
                "end_time": 12.4636364,
                "pitch": 57,
                "velocity": 101,
                "duration": 1.2068182,
                "tempo": 120.0
            },
            {
                "start_time": 12.4636364,
                "end_time": 12.5272727,
                "pitch": 58,
                "velocity": 101,
                "duration": 0.0636364,
                "tempo": 120.0
            },
            {
                "start_time": 12.5272727,
                "end_time": 12.5931818,
                "pitch": 59,
                "velocity": 101,
                "duration": 0.0659091,
                "tempo": 120.0
            },
            {
                "start_time": 12.5931818,
                "end_time": 12.6590909,
                "pitch": 60,
                "velocity": 101,
                "duration": 0.0659091,
                "tempo": 120.0
            },
            {
                "start_time": 12.6590909,
                "end_time": 12.725,
                "pitch": 61,
                "velocity": 101,
                "duration": 0.0659091,
                "tempo": 120.0
            },
            {
                "start_time": 12.725,
                "end_time": 12.7886364,
                "pitch": 62,
                "velocity": 101,
                "duration": 0.0636364,
                "tempo": 120.0
            },
            {
                "start_time": 12.7886364,
                "end_time": 12.8545455,
                "pitch": 63,
                "velocity": 101,
                "duration": 0.0659091,
                "tempo": 120.0
            },
            {
                "start_time": 12.8545455,
                "end_time": 14.4727273,
                "pitch": 64,
                "velocity": 101,
                "duration": 1.6181818,
                "tempo": 120.0
            },
            {
                "start_time": 14.4727273,
                "end_time": 16.0727273,
                "pitch": 65,
                "velocity": 101,
                "duration": 1.6,
                "tempo": 120.0
            },
            {
                "start_time": 16.0727273,
                "end_time": 17.6772727,
                "pitch": 60,
                "velocity": 101,
                "duration": 1.6045455,
                "tempo": 120.0
            },
            {
                "start_time": 17.6772727,
                "end_time": 19.2818182,
                "pitch": 62,
                "velocity": 101,
                "duration": 1.6045455,
                "tempo": 120.0
            },
            {
                "start_time": 19.2818182,
                "end_time": 20.2977273,
                "pitch": 70,
                "velocity": 101,
                "duration": 1.0159091,
                "tempo": 120.0
            },
            {
                "start_time": 20.2977273,
                "end_time": 20.4977273,
                "pitch": 70,
                "velocity": 101,
                "duration": 0.2,
                "tempo": 120.0
            },
            {
                "start_time": 20.4977273,
                "end_time": 20.6977273,
                "pitch": 70,
                "velocity": 101,
                "duration": 0.2,
                "tempo": 120.0
            },
            {
                "start_time": 20.6977273,
                "end_time": 20.9,
                "pitch": 69,
                "velocity": 101,
                "duration": 0.2022727,
                "tempo": 120.0
            },
            {
                "start_time": 20.9,
                "end_time": 21.7,
                "pitch": 67,
                "velocity": 101,
                "duration": 0.8,
                "tempo": 120.0
            },
            {
                "start_time": 21.7,
                "end_time": 22.5022727,
                "pitch": 65,
                "velocity": 101,
                "duration": 0.8022727,
                "tempo": 120.0
            },
            {
                "start_time": 22.5022727,
                "end_time": 23.5045455,
                "pitch": 60,
                "velocity": 101,
                "duration": 1.0022727,
                "tempo": 120.0
            },
            {
                "start_time": 23.5045455,
                "end_time": 23.7045455,
                "pitch": 60,
                "velocity": 101,
                "duration": 0.2,
                "tempo": 120.0
            },
            {
                "start_time": 23.7045455,
                "end_time": 23.9068182,
                "pitch": 58,
                "velocity": 101,
                "duration": 0.2022727,
                "tempo": 120.0
            },
            {
                "start_time": 23.9068182,
                "end_time": 24.1068182,
                "pitch": 60,
                "velocity": 101,
                "duration": 0.2,
                "tempo": 120.0
            },
            {
                "start_time": 24.1068182,
                "end_time": 25.3113636,
                "pitch": 62,
                "velocity": 101,
                "duration": 1.2045455,
                "tempo": 120.0
            },
            {
                "start_time": 25.3113636,
                "end_time": 25.3772727,
                "pitch": 68,
                "velocity": 101,
                "duration": 0.0659091,
                "tempo": 120.0
            },
            {
                "start_time": 25.3772727,
                "end_time": 25.4431818,
                "pitch": 68,
                "velocity": 101,
                "duration": 0.0659091,
                "tempo": 120.0
            },
            {
                "start_time": 25.4431818,
                "end_time": 25.5113636,
                "pitch": 69,
                "velocity": 101,
                "duration": 0.0681818,
                "tempo": 120.0
            },
            {
                "start_time": 25.5113636,
                "end_time": 25.5772727,
                "pitch": 70,
                "velocity": 101,
                "duration": 0.0659091,
                "tempo": 120.0
            },
            {
                "start_time": 25.5772727,
                "end_time": 25.6431818,
                "pitch": 71,
                "velocity": 101,
                "duration": 0.0659091,
                "tempo": 120.0
            },
            {
                "start_time": 25.6431818,
                "end_time": 25.7113636,
                "pitch": 72,
                "velocity": 101,
                "duration": 0.0681818,
                "tempo": 120.0
            },
            {
                "start_time": 25.7113636,
                "end_time": 26.7136364,
                "pitch": 73,
                "velocity": 101,
                "duration": 1.0022727,
                "tempo": 120.0
            },
            {
                "start_time": 26.7136364,
                "end_time": 26.9159091,
                "pitch": 74,
                "velocity": 101,
                "duration": 0.2022727,
                "tempo": 120.0
            },
            {
                "start_time": 26.9159091,
                "end_time": 27.1159091,
                "pitch": 74,
                "velocity": 101,
                "duration": 0.2,
                "tempo": 120.0
            },
            {
                "start_time": 27.1159091,
                "end_time": 27.3159091,
                "pitch": 70,
                "velocity": 101,
                "duration": 0.2,
                "tempo": 120.0
            },
            {
                "start_time": 27.3159091,
                "end_time": 28.1181818,
                "pitch": 72,
                "velocity": 101,
                "duration": 0.8022727,
                "tempo": 120.0
            },
            {
                "start_time": 28.1181818,
                "end_time": 28.9204545,
                "pitch": 69,
                "velocity": 101,
                "duration": 0.8022727,
                "tempo": 120.0
            },
            {
                "start_time": 28.9204545,
                "end_time": 29.925,
                "pitch": 72,
                "velocity": 101,
                "duration": 1.0045455,
                "tempo": 120.0
            },
            {
                "start_time": 29.925,
                "end_time": 30.1272727,
                "pitch": 72,
                "velocity": 101,
                "duration": 0.2022727,
                "tempo": 120.0
            },
            {
                "start_time": 30.1272727,
                "end_time": 30.3272727,
                "pitch": 70,
                "velocity": 101,
                "duration": 0.2,
                "tempo": 120.0
            },
            {
                "start_time": 30.3272727,
                "end_time": 30.5272727,
                "pitch": 70,
                "velocity": 101,
                "duration": 0.2,
                "tempo": 120.0
            },
            {
                "start_time": 30.5272727,
                "end_time": 31.3295455,
                "pitch": 69,
                "velocity": 101,
                "duration": 0.8022727,
                "tempo": 120.0
            },
            {
                "start_time": 31.3295455,
                "end_time": 32.1227273,
                "pitch": 67,
                "velocity": 101,
                "duration": 0.7931818,
                "tempo": 120.0
            }
        ],
        "Lead 2 (sawtooth)": [
            {
                "start_time": 0.0159091,
                "end_time": 1.6204545,
                "pitch": 55,
                "velocity": 101,
                "duration": 1.6045455,
                "tempo": 120.0
            },
            {
                "start_time": 1.6204545,
                "end_time": 3.2227273,
                "pitch": 53,
                "velocity": 101,
                "duration": 1.6022727,
                "tempo": 120.0
            },
            {
                "start_time": 3.2227273,
                "end_time": 4.8272727,
                "pitch": 53,
                "velocity": 101,
                "duration": 1.6045455,
                "tempo": 120.0
            },
            {
                "start_time": 4.8272727,
                "end_time": 6.425,
                "pitch": 52,
                "velocity": 101,
                "duration": 1.5977273,
                "tempo": 120.0
            },
            {
                "start_time": 6.425,
                "end_time": 8.0409091,
                "pitch": 55,
                "velocity": 101,
                "duration": 1.6159091,
                "tempo": 120.0
            },
            {
                "start_time": 8.0409091,
                "end_time": 9.6386364,
                "pitch": 53,
                "velocity": 101,
                "duration": 1.5977273,
                "tempo": 120.0
            },
            {
                "start_time": 9.6386364,
                "end_time": 11.2568182,
                "pitch": 53,
                "velocity": 101,
                "duration": 1.6181818,
                "tempo": 120.0
            },
            {
                "start_time": 11.2568182,
                "end_time": 12.8545455,
                "pitch": 52,
                "velocity": 101,
                "duration": 1.5977273,
                "tempo": 120.0
            },
            {
                "start_time": 12.8545455,
                "end_time": 14.4727273,
                "pitch": 55,
                "velocity": 101,
                "duration": 1.6181818,
                "tempo": 120.0
            },
            {
                "start_time": 14.4727273,
                "end_time": 16.0727273,
                "pitch": 53,
                "velocity": 101,
                "duration": 1.6,
                "tempo": 120.0
            },
            {
                "start_time": 16.0727273,
                "end_time": 17.6772727,
                "pitch": 53,
                "velocity": 101,
                "duration": 1.6045455,
                "tempo": 120.0
            },
            {
                "start_time": 17.6772727,
                "end_time": 19.2818182,
                "pitch": 52,
                "velocity": 101,
                "duration": 1.6045455,
                "tempo": 120.0
            },
            {
                "start_time": 19.2818182,
                "end_time": 19.3,
                "pitch": 65,
                "velocity": 101,
                "duration": 0.0181818,
                "tempo": 120.0
            },
            {
                "start_time": 19.3,
                "end_time": 20.9,
                "pitch": 55,
                "velocity": 101,
                "duration": 1.6,
                "tempo": 120.0
            },
            {
                "start_time": 20.9,
                "end_time": 22.5022727,
                "pitch": 53,
                "velocity": 101,
                "duration": 1.6022727,
                "tempo": 120.0
            },
            {
                "start_time": 22.5022727,
                "end_time": 24.1068182,
                "pitch": 53,
                "velocity": 101,
                "duration": 1.6045455,
                "tempo": 120.0
            },
            {
                "start_time": 24.1068182,
                "end_time": 25.7113636,
                "pitch": 52,
                "velocity": 101,
                "duration": 1.6045455,
                "tempo": 120.0
            },
            {
                "start_time": 25.7113636,
                "end_time": 27.3159091,
                "pitch": 55,
                "velocity": 101,
                "duration": 1.6045455,
                "tempo": 120.0
            },
            {
                "start_time": 27.3159091,
                "end_time": 28.9204545,
                "pitch": 53,
                "velocity": 101,
                "duration": 1.6045455,
                "tempo": 120.0
            },
            {
                "start_time": 28.9204545,
                "end_time": 30.5272727,
                "pitch": 53,
                "velocity": 101,
                "duration": 1.6068182,
                "tempo": 120.0
            },
            {
                "start_time": 30.5272727,
                "end_time": 32.1227273,
                "pitch": 52,
                "velocity": 101,
                "duration": 1.5954545,
                "tempo": 120.0
            }
        ],
        "Acoustic Bass": [
            {
                "start_time": 0.0340909,
                "end_time": 0.2159091,
                "pitch": 43,
                "velocity": 127,
                "duration": 0.1818182,
                "tempo": 120.0
            },
            {
                "start_time": 0.2159091,
                "end_time": 0.4159091,
                "pitch": 43,
                "velocity": 127,
                "duration": 0.2,
                "tempo": 120.0
            },
            {
                "start_time": 0.4159091,
                "end_time": 0.6136364,
                "pitch": 43,
                "velocity": 127,
                "duration": 0.1977273,
                "tempo": 120.0
            },
            {
                "start_time": 0.6136364,
                "end_time": 0.8090909,
                "pitch": 43,
                "velocity": 127,
                "duration": 0.1954545,
                "tempo": 120.0
            },
            {
                "start_time": 0.8090909,
                "end_time": 1.0136364,
                "pitch": 43,
                "velocity": 127,
                "duration": 0.2045455,
                "tempo": 120.0
            },
            {
                "start_time": 1.0136364,
                "end_time": 1.2204545,
                "pitch": 43,
                "velocity": 127,
                "duration": 0.2068182,
                "tempo": 120.0
            },
            {
                "start_time": 1.2204545,
                "end_time": 1.4204545,
                "pitch": 43,
                "velocity": 127,
                "duration": 0.2,
                "tempo": 120.0
            },
            {
                "start_time": 1.4204545,
                "end_time": 1.6204545,
                "pitch": 43,
                "velocity": 127,
                "duration": 0.2,
                "tempo": 120.0
            },
            {
                "start_time": 1.6204545,
                "end_time": 1.8204545,
                "pitch": 43,
                "velocity": 127,
                "duration": 0.2,
                "tempo": 120.0
            },
            {
                "start_time": 1.8204545,
                "end_time": 2.0227273,
                "pitch": 43,
                "velocity": 127,
                "duration": 0.2022727,
                "tempo": 120.0
            },
            {
                "start_time": 2.0227273,
                "end_time": 2.2227273,
                "pitch": 43,
                "velocity": 127,
                "duration": 0.2,
                "tempo": 120.0
            },
            {
                "start_time": 2.2227273,
                "end_time": 2.4227273,
                "pitch": 43,
                "velocity": 127,
                "duration": 0.2,
                "tempo": 120.0
            },
            {
                "start_time": 2.4227273,
                "end_time": 2.6227273,
                "pitch": 43,
                "velocity": 127,
                "duration": 0.2,
                "tempo": 120.0
            },
            {
                "start_time": 2.6227273,
                "end_time": 2.8227273,
                "pitch": 43,
                "velocity": 127,
                "duration": 0.2,
                "tempo": 120.0
            },
            {
                "start_time": 2.8227273,
                "end_time": 3.0227273,
                "pitch": 43,
                "velocity": 127,
                "duration": 0.2,
                "tempo": 120.0
            },
            {
                "start_time": 3.0227273,
                "end_time": 3.2227273,
                "pitch": 43,
                "velocity": 127,
                "duration": 0.2,
                "tempo": 120.0
            },
            {
                "start_time": 3.2227273,
                "end_time": 3.4227273,
                "pitch": 43,
                "velocity": 127,
                "duration": 0.2,
                "tempo": 120.0
            },
            {
                "start_time": 3.4227273,
                "end_time": 3.625,
                "pitch": 43,
                "velocity": 127,
                "duration": 0.2022727,
                "tempo": 120.0
            },
            {
                "start_time": 3.625,
                "end_time": 3.825,
                "pitch": 43,
                "velocity": 127,
                "duration": 0.2,
                "tempo": 120.0
            },
            {
                "start_time": 3.825,
                "end_time": 4.025,
                "pitch": 43,
                "velocity": 127,
                "duration": 0.2,
                "tempo": 120.0
            },
            {
                "start_time": 4.025,
                "end_time": 4.225,
                "pitch": 43,
                "velocity": 127,
                "duration": 0.2,
                "tempo": 120.0
            },
            {
                "start_time": 4.225,
                "end_time": 4.425,
                "pitch": 43,
                "velocity": 127,
                "duration": 0.2,
                "tempo": 120.0
            },
            {
                "start_time": 4.425,
                "end_time": 4.6272727,
                "pitch": 43,
                "velocity": 127,
                "duration": 0.2022727,
                "tempo": 120.0
            },
            {
                "start_time": 4.6272727,
                "end_time": 4.8272727,
                "pitch": 43,
                "velocity": 127,
                "duration": 0.2,
                "tempo": 120.0
            },
            {
                "start_time": 4.8272727,
                "end_time": 5.0295455,
                "pitch": 43,
                "velocity": 127,
                "duration": 0.2022727,
                "tempo": 120.0
            },
            {
                "start_time": 5.0295455,
                "end_time": 5.2295455,
                "pitch": 43,
                "velocity": 127,
                "duration": 0.2,
                "tempo": 120.0
            },
            {
                "start_time": 5.2295455,
                "end_time": 5.4295455,
                "pitch": 43,
                "velocity": 127,
                "duration": 0.2,
                "tempo": 120.0
            },
            {
                "start_time": 5.4295455,
                "end_time": 5.6295455,
                "pitch": 43,
                "velocity": 127,
                "duration": 0.2,
                "tempo": 120.0
            },
            {
                "start_time": 5.6295455,
                "end_time": 5.8318182,
                "pitch": 43,
                "velocity": 127,
                "duration": 0.2022727,
                "tempo": 120.0
            },
            {
                "start_time": 5.8318182,
                "end_time": 6.0318182,
                "pitch": 43,
                "velocity": 127,
                "duration": 0.2,
                "tempo": 120.0
            },
            {
                "start_time": 6.0318182,
                "end_time": 6.2295455,
                "pitch": 43,
                "velocity": 127,
                "duration": 0.1977273,
                "tempo": 120.0
            },
            {
                "start_time": 6.2295455,
                "end_time": 6.425,
                "pitch": 43,
                "velocity": 127,
                "duration": 0.1954545,
                "tempo": 120.0
            },
            {
                "start_time": 6.425,
                "end_time": 6.6295455,
                "pitch": 43,
                "velocity": 127,
                "duration": 0.2045455,
                "tempo": 120.0
            },
            {
                "start_time": 6.6295455,
                "end_time": 6.8363636,
                "pitch": 43,
                "velocity": 127,
                "duration": 0.2068182,
                "tempo": 120.0
            },
            {
                "start_time": 6.8363636,
                "end_time": 7.0363636,
                "pitch": 43,
                "velocity": 127,
                "duration": 0.2,
                "tempo": 120.0
            },
            {
                "start_time": 7.0363636,
                "end_time": 7.2386364,
                "pitch": 43,
                "velocity": 127,
                "duration": 0.2022727,
                "tempo": 120.0
            },
            {
                "start_time": 7.2386364,
                "end_time": 7.4386364,
                "pitch": 43,
                "velocity": 127,
                "duration": 0.2,
                "tempo": 120.0
            },
            {
                "start_time": 7.4386364,
                "end_time": 7.6386364,
                "pitch": 43,
                "velocity": 127,
                "duration": 0.2,
                "tempo": 120.0
            },
            {
                "start_time": 7.6386364,
                "end_time": 7.8409091,
                "pitch": 43,
                "velocity": 127,
                "duration": 0.2022727,
                "tempo": 120.0
            },
            {
                "start_time": 7.8409091,
                "end_time": 8.0409091,
                "pitch": 43,
                "velocity": 127,
                "duration": 0.2,
                "tempo": 120.0
            },
            {
                "start_time": 8.0409091,
                "end_time": 8.2409091,
                "pitch": 43,
                "velocity": 127,
                "duration": 0.2,
                "tempo": 120.0
            },
            {
                "start_time": 8.2409091,
                "end_time": 8.4409091,
                "pitch": 43,
                "velocity": 127,
                "duration": 0.2,
                "tempo": 120.0
            },
            {
                "start_time": 8.4409091,
                "end_time": 8.6431818,
                "pitch": 43,
                "velocity": 127,
                "duration": 0.2022727,
                "tempo": 120.0
            },
            {
                "start_time": 8.6431818,
                "end_time": 8.8431818,
                "pitch": 43,
                "velocity": 127,
                "duration": 0.2,
                "tempo": 120.0
            },
            {
                "start_time": 8.8431818,
                "end_time": 9.0454545,
                "pitch": 43,
                "velocity": 127,
                "duration": 0.2022727,
                "tempo": 120.0
            },
            {
                "start_time": 9.0454545,
                "end_time": 9.2454545,
                "pitch": 43,
                "velocity": 127,
                "duration": 0.2,
                "tempo": 120.0
            },
            {
                "start_time": 9.2454545,
                "end_time": 9.4431818,
                "pitch": 43,
                "velocity": 127,
                "duration": 0.1977273,
                "tempo": 120.0
            },
            {
                "start_time": 9.4431818,
                "end_time": 9.6386364,
                "pitch": 43,
                "velocity": 127,
                "duration": 0.1954545,
                "tempo": 120.0
            },
            {
                "start_time": 9.6386364,
                "end_time": 9.8477273,
                "pitch": 43,
                "velocity": 127,
                "duration": 0.2090909,
                "tempo": 120.0
            },
            {
                "start_time": 9.8477273,
                "end_time": 10.0590909,
                "pitch": 43,
                "velocity": 127,
                "duration": 0.2113636,
                "tempo": 120.0
            },
            {
                "start_time": 10.0590909,
                "end_time": 10.2568182,
                "pitch": 43,
                "velocity": 127,
                "duration": 0.1977273,
                "tempo": 120.0
            },
            {
                "start_time": 10.2568182,
                "end_time": 10.4522727,
                "pitch": 43,
                "velocity": 127,
                "duration": 0.1954545,
                "tempo": 120.0
            },
            {
                "start_time": 10.4522727,
                "end_time": 10.6545455,
                "pitch": 43,
                "velocity": 127,
                "duration": 0.2022727,
                "tempo": 120.0
            },
            {
                "start_time": 10.6545455,
                "end_time": 10.8545455,
                "pitch": 43,
                "velocity": 127,
                "duration": 0.2,
                "tempo": 120.0
            },
            {
                "start_time": 10.8545455,
                "end_time": 11.0568182,
                "pitch": 43,
                "velocity": 127,
                "duration": 0.2022727,
                "tempo": 120.0
            },
            {
                "start_time": 11.0568182,
                "end_time": 11.2568182,
                "pitch": 43,
                "velocity": 127,
                "duration": 0.2,
                "tempo": 120.0
            },
            {
                "start_time": 11.2568182,
                "end_time": 11.4590909,
                "pitch": 43,
                "velocity": 127,
                "duration": 0.2022727,
                "tempo": 120.0
            },
            {
                "start_time": 11.4590909,
                "end_time": 11.6613636,
                "pitch": 43,
                "velocity": 127,
                "duration": 0.2022727,
                "tempo": 120.0
            },
            {
                "start_time": 11.6613636,
                "end_time": 11.8613636,
                "pitch": 43,
                "velocity": 127,
                "duration": 0.2,
                "tempo": 120.0
            },
            {
                "start_time": 11.8613636,
                "end_time": 12.0613636,
                "pitch": 43,
                "velocity": 127,
                "duration": 0.2,
                "tempo": 120.0
            },
            {
                "start_time": 12.0613636,
                "end_time": 12.2613636,
                "pitch": 43,
                "velocity": 127,
                "duration": 0.2,
                "tempo": 120.0
            },
            {
                "start_time": 12.2613636,
                "end_time": 12.4636364,
                "pitch": 43,
                "velocity": 127,
                "duration": 0.2022727,
                "tempo": 120.0
            },
            {
                "start_time": 12.4636364,
                "end_time": 12.6590909,
                "pitch": 43,
                "velocity": 127,
                "duration": 0.1954545,
                "tempo": 120.0
            },
            {
                "start_time": 12.6590909,
                "end_time": 12.8545455,
                "pitch": 43,
                "velocity": 127,
                "duration": 0.1954545,
                "tempo": 120.0
            },
            {
                "start_time": 12.8727273,
                "end_time": 13.0659091,
                "pitch": 43,
                "velocity": 127,
                "duration": 0.1931818,
                "tempo": 120.0
            },
            {
                "start_time": 13.0659091,
                "end_time": 13.2772727,
                "pitch": 43,
                "velocity": 127,
                "duration": 0.2113636,
                "tempo": 120.0
            },
            {
                "start_time": 13.2772727,
                "end_time": 13.4727273,
                "pitch": 43,
                "velocity": 127,
                "duration": 0.1954545,
                "tempo": 120.0
            },
            {
                "start_time": 13.4727273,
                "end_time": 13.6681818,
                "pitch": 43,
                "velocity": 127,
                "duration": 0.1954545,
                "tempo": 120.0
            },
            {
                "start_time": 13.6681818,
                "end_time": 13.8681818,
                "pitch": 43,
                "velocity": 127,
                "duration": 0.2,
                "tempo": 120.0
            },
            {
                "start_time": 13.8681818,
                "end_time": 14.0681818,
                "pitch": 43,
                "velocity": 127,
                "duration": 0.2,
                "tempo": 120.0
            },
            {
                "start_time": 14.0681818,
                "end_time": 14.2704545,
                "pitch": 43,
                "velocity": 127,
                "duration": 0.2022727,
                "tempo": 120.0
            },
            {
                "start_time": 14.2704545,
                "end_time": 14.4727273,
                "pitch": 43,
                "velocity": 127,
                "duration": 0.2022727,
                "tempo": 120.0
            },
            {
                "start_time": 14.4727273,
                "end_time": 14.6727273,
                "pitch": 46,
                "velocity": 127,
                "duration": 0.2,
                "tempo": 120.0
            },
            {
                "start_time": 14.6727273,
                "end_time": 14.875,
                "pitch": 46,
                "velocity": 127,
                "duration": 0.2022727,
                "tempo": 120.0
            },
            {
                "start_time": 14.875,
                "end_time": 15.075,
                "pitch": 46,
                "velocity": 127,
                "duration": 0.2,
                "tempo": 120.0
            },
            {
                "start_time": 15.075,
                "end_time": 15.2772727,
                "pitch": 46,
                "velocity": 127,
                "duration": 0.2022727,
                "tempo": 120.0
            },
            {
                "start_time": 15.2772727,
                "end_time": 15.4772727,
                "pitch": 46,
                "velocity": 127,
                "duration": 0.2,
                "tempo": 120.0
            },
            {
                "start_time": 15.4772727,
                "end_time": 15.6795455,
                "pitch": 46,
                "velocity": 127,
                "duration": 0.2022727,
                "tempo": 120.0
            },
            {
                "start_time": 15.6795455,
                "end_time": 15.875,
                "pitch": 46,
                "velocity": 127,
                "duration": 0.1954545,
                "tempo": 120.0
            },
            {
                "start_time": 15.875,
                "end_time": 16.0727273,
                "pitch": 46,
                "velocity": 127,
                "duration": 0.1977273,
                "tempo": 120.0
            },
            {
                "start_time": 16.0727273,
                "end_time": 16.2772727,
                "pitch": 46,
                "velocity": 127,
                "duration": 0.2045455,
                "tempo": 120.0
            },
            {
                "start_time": 16.2772727,
                "end_time": 16.4818182,
                "pitch": 48,
                "velocity": 127,
                "duration": 0.2045455,
                "tempo": 120.0
            },
            {
                "start_time": 16.4818182,
                "end_time": 16.6840909,
                "pitch": 48,
                "velocity": 127,
                "duration": 0.2022727,
                "tempo": 120.0
            },
            {
                "start_time": 16.6840909,
                "end_time": 16.8863636,
                "pitch": 48,
                "velocity": 127,
                "duration": 0.2022727,
                "tempo": 120.0
            },
            {
                "start_time": 16.8863636,
                "end_time": 17.0863636,
                "pitch": 48,
                "velocity": 127,
                "duration": 0.2,
                "tempo": 120.0
            },
            {
                "start_time": 17.0863636,
                "end_time": 17.2840909,
                "pitch": 48,
                "velocity": 127,
                "duration": 0.1977273,
                "tempo": 120.0
            },
            {
                "start_time": 17.2840909,
                "end_time": 17.4818182,
                "pitch": 48,
                "velocity": 127,
                "duration": 0.1977273,
                "tempo": 120.0
            },
            {
                "start_time": 17.4818182,
                "end_time": 17.6772727,
                "pitch": 48,
                "velocity": 127,
                "duration": 0.1954545,
                "tempo": 120.0
            },
            {
                "start_time": 17.6772727,
                "end_time": 17.8818182,
                "pitch": 50,
                "velocity": 127,
                "duration": 0.2045455,
                "tempo": 120.0
            },
            {
                "start_time": 17.8818182,
                "end_time": 18.0886364,
                "pitch": 50,
                "velocity": 127,
                "duration": 0.2068182,
                "tempo": 120.0
            },
            {
                "start_time": 18.0886364,
                "end_time": 18.2886364,
                "pitch": 50,
                "velocity": 127,
                "duration": 0.2,
                "tempo": 120.0
            },
            {
                "start_time": 18.2886364,
                "end_time": 18.4886364,
                "pitch": 50,
                "velocity": 127,
                "duration": 0.2,
                "tempo": 120.0
            },
            {
                "start_time": 18.4886364,
                "end_time": 18.6886364,
                "pitch": 50,
                "velocity": 127,
                "duration": 0.2,
                "tempo": 120.0
            },
            {
                "start_time": 18.6886364,
                "end_time": 18.8909091,
                "pitch": 50,
                "velocity": 127,
                "duration": 0.2022727,
                "tempo": 120.0
            },
            {
                "start_time": 18.8909091,
                "end_time": 19.0863636,
                "pitch": 50,
                "velocity": 127,
                "duration": 0.1954545,
                "tempo": 120.0
            },
            {
                "start_time": 19.0863636,
                "end_time": 19.3,
                "pitch": 50,
                "velocity": 127,
                "duration": 0.2136364,
                "tempo": 120.0
            },
            {
                "start_time": 19.3,
                "end_time": 19.4931818,
                "pitch": 43,
                "velocity": 127,
                "duration": 0.1931818,
                "tempo": 120.0
            },
            {
                "start_time": 19.4931818,
                "end_time": 19.7045455,
                "pitch": 43,
                "velocity": 127,
                "duration": 0.2113636,
                "tempo": 120.0
            },
            {
                "start_time": 19.7045455,
                "end_time": 19.9,
                "pitch": 43,
                "velocity": 127,
                "duration": 0.1954545,
                "tempo": 120.0
            },
            {
                "start_time": 19.9,
                "end_time": 20.0977273,
                "pitch": 43,
                "velocity": 127,
                "duration": 0.1977273,
                "tempo": 120.0
            },
            {
                "start_time": 20.0977273,
                "end_time": 20.2977273,
                "pitch": 43,
                "velocity": 127,
                "duration": 0.2,
                "tempo": 120.0
            },
            {
                "start_time": 20.2977273,
                "end_time": 20.4977273,
                "pitch": 43,
                "velocity": 127,
                "duration": 0.2,
                "tempo": 120.0
            },
            {
                "start_time": 20.4977273,
                "end_time": 20.6977273,
                "pitch": 43,
                "velocity": 127,
                "duration": 0.2,
                "tempo": 120.0
            },
            {
                "start_time": 20.6977273,
                "end_time": 20.9,
                "pitch": 43,
                "velocity": 127,
                "duration": 0.2022727,
                "tempo": 120.0
            },
            {
                "start_time": 20.9,
                "end_time": 21.1,
                "pitch": 46,
                "velocity": 127,
                "duration": 0.2,
                "tempo": 120.0
            },
            {
                "start_time": 21.1,
                "end_time": 21.3,
                "pitch": 46,
                "velocity": 127,
                "duration": 0.2,
                "tempo": 120.0
            },
            {
                "start_time": 21.3,
                "end_time": 21.5,
                "pitch": 46,
                "velocity": 127,
                "duration": 0.2,
                "tempo": 120.0
            },
            {
                "start_time": 21.5,
                "end_time": 21.7,
                "pitch": 46,
                "velocity": 127,
                "duration": 0.2,
                "tempo": 120.0
            },
            {
                "start_time": 21.7,
                "end_time": 21.9,
                "pitch": 46,
                "velocity": 127,
                "duration": 0.2,
                "tempo": 120.0
            },
            {
                "start_time": 21.9,
                "end_time": 22.1022727,
                "pitch": 46,
                "velocity": 127,
                "duration": 0.2022727,
                "tempo": 120.0
            },
            {
                "start_time": 22.1022727,
                "end_time": 22.3022727,
                "pitch": 46,
                "velocity": 127,
                "duration": 0.2,
                "tempo": 120.0
            },
            {
                "start_time": 22.3022727,
                "end_time": 22.5022727,
                "pitch": 46,
                "velocity": 127,
                "duration": 0.2,
                "tempo": 120.0
            },
            {
                "start_time": 22.5022727,
                "end_time": 22.7068182,
                "pitch": 46,
                "velocity": 127,
                "duration": 0.2045455,
                "tempo": 120.0
            },
            {
                "start_time": 22.7068182,
                "end_time": 22.9136364,
                "pitch": 48,
                "velocity": 127,
                "duration": 0.2068182,
                "tempo": 120.0
            },
            {
                "start_time": 22.9136364,
                "end_time": 23.1090909,
                "pitch": 48,
                "velocity": 127,
                "duration": 0.1954545,
                "tempo": 120.0
            },
            {
                "start_time": 23.1090909,
                "end_time": 23.3045455,
                "pitch": 48,
                "velocity": 127,
                "duration": 0.1954545,
                "tempo": 120.0
            },
            {
                "start_time": 23.3045455,
                "end_time": 23.5045455,
                "pitch": 48,
                "velocity": 127,
                "duration": 0.2,
                "tempo": 120.0
            },
            {
                "start_time": 23.5045455,
                "end_time": 23.7045455,
                "pitch": 48,
                "velocity": 127,
                "duration": 0.2,
                "tempo": 120.0
            },
            {
                "start_time": 23.7045455,
                "end_time": 23.9068182,
                "pitch": 48,
                "velocity": 127,
                "duration": 0.2022727,
                "tempo": 120.0
            },
            {
                "start_time": 23.9068182,
                "end_time": 24.1068182,
                "pitch": 48,
                "velocity": 127,
                "duration": 0.2,
                "tempo": 120.0
            },
            {
                "start_time": 24.1068182,
                "end_time": 24.3136364,
                "pitch": 50,
                "velocity": 127,
                "duration": 0.2068182,
                "tempo": 120.0
            },
            {
                "start_time": 24.3136364,
                "end_time": 24.5181818,
                "pitch": 50,
                "velocity": 127,
                "duration": 0.2045455,
                "tempo": 120.0
            },
            {
                "start_time": 24.5181818,
                "end_time": 24.7136364,
                "pitch": 50,
                "velocity": 127,
                "duration": 0.1954545,
                "tempo": 120.0
            },
            {
                "start_time": 24.7136364,
                "end_time": 24.9113636,
                "pitch": 50,
                "velocity": 127,
                "duration": 0.1977273,
                "tempo": 120.0
            },
            {
                "start_time": 24.9113636,
                "end_time": 25.1113636,
                "pitch": 50,
                "velocity": 127,
                "duration": 0.2,
                "tempo": 120.0
            },
            {
                "start_time": 25.1113636,
                "end_time": 25.3113636,
                "pitch": 50,
                "velocity": 127,
                "duration": 0.2,
                "tempo": 120.0
            },
            {
                "start_time": 25.3113636,
                "end_time": 25.5113636,
                "pitch": 50,
                "velocity": 127,
                "duration": 0.2,
                "tempo": 120.0
            },
            {
                "start_time": 25.5113636,
                "end_time": 25.7113636,
                "pitch": 50,
                "velocity": 127,
                "duration": 0.2,
                "tempo": 120.0
            },
            {
                "start_time": 25.7272727,
                "end_time": 25.9159091,
                "pitch": 43,
                "velocity": 127,
                "duration": 0.1886364,
                "tempo": 120.0
            },
            {
                "start_time": 25.9159091,
                "end_time": 26.1204545,
                "pitch": 43,
                "velocity": 127,
                "duration": 0.2045455,
                "tempo": 120.0
            },
            {
                "start_time": 26.1204545,
                "end_time": 26.3181818,
                "pitch": 43,
                "velocity": 127,
                "duration": 0.1977273,
                "tempo": 120.0
            },
            {
                "start_time": 26.3181818,
                "end_time": 26.5136364,
                "pitch": 43,
                "velocity": 127,
                "duration": 0.1954545,
                "tempo": 120.0
            },
            {
                "start_time": 26.5136364,
                "end_time": 26.7136364,
                "pitch": 43,
                "velocity": 127,
                "duration": 0.2,
                "tempo": 120.0
            },
            {
                "start_time": 26.7136364,
                "end_time": 26.9159091,
                "pitch": 43,
                "velocity": 127,
                "duration": 0.2022727,
                "tempo": 120.0
            },
            {
                "start_time": 26.9159091,
                "end_time": 27.1159091,
                "pitch": 43,
                "velocity": 127,
                "duration": 0.2,
                "tempo": 120.0
            },
            {
                "start_time": 27.1159091,
                "end_time": 27.3159091,
                "pitch": 43,
                "velocity": 127,
                "duration": 0.2,
                "tempo": 120.0
            },
            {
                "start_time": 27.3159091,
                "end_time": 27.5159091,
                "pitch": 46,
                "velocity": 127,
                "duration": 0.2,
                "tempo": 120.0
            },
            {
                "start_time": 27.5159091,
                "end_time": 27.7159091,
                "pitch": 46,
                "velocity": 127,
                "duration": 0.2,
                "tempo": 120.0
            },
            {
                "start_time": 27.7159091,
                "end_time": 27.9181818,
                "pitch": 46,
                "velocity": 127,
                "duration": 0.2022727,
                "tempo": 120.0
            },
            {
                "start_time": 27.9181818,
                "end_time": 28.1181818,
                "pitch": 46,
                "velocity": 127,
                "duration": 0.2,
                "tempo": 120.0
            },
            {
                "start_time": 28.1181818,
                "end_time": 28.3181818,
                "pitch": 46,
                "velocity": 127,
                "duration": 0.2,
                "tempo": 120.0
            },
            {
                "start_time": 28.3181818,
                "end_time": 28.5181818,
                "pitch": 46,
                "velocity": 127,
                "duration": 0.2,
                "tempo": 120.0
            },
            {
                "start_time": 28.5181818,
                "end_time": 28.7204545,
                "pitch": 46,
                "velocity": 127,
                "duration": 0.2022727,
                "tempo": 120.0
            },
            {
                "start_time": 28.7204545,
                "end_time": 28.9204545,
                "pitch": 46,
                "velocity": 127,
                "duration": 0.2,
                "tempo": 120.0
            },
            {
                "start_time": 28.9204545,
                "end_time": 29.1272727,
                "pitch": 46,
                "velocity": 127,
                "duration": 0.2068182,
                "tempo": 120.0
            },
            {
                "start_time": 29.1272727,
                "end_time": 29.3318182,
                "pitch": 48,
                "velocity": 127,
                "duration": 0.2045455,
                "tempo": 120.0
            },
            {
                "start_time": 29.3318182,
                "end_time": 29.5272727,
                "pitch": 48,
                "velocity": 127,
                "duration": 0.1954545,
                "tempo": 120.0
            },
            {
                "start_time": 29.5272727,
                "end_time": 29.725,
                "pitch": 48,
                "velocity": 127,
                "duration": 0.1977273,
                "tempo": 120.0
            },
            {
                "start_time": 29.725,
                "end_time": 29.925,
                "pitch": 48,
                "velocity": 127,
                "duration": 0.2,
                "tempo": 120.0
            },
            {
                "start_time": 29.925,
                "end_time": 30.1272727,
                "pitch": 48,
                "velocity": 127,
                "duration": 0.2022727,
                "tempo": 120.0
            },
            {
                "start_time": 30.1272727,
                "end_time": 30.3272727,
                "pitch": 48,
                "velocity": 127,
                "duration": 0.2,
                "tempo": 120.0
            },
            {
                "start_time": 30.3272727,
                "end_time": 30.5272727,
                "pitch": 48,
                "velocity": 127,
                "duration": 0.2,
                "tempo": 120.0
            },
            {
                "start_time": 30.5272727,
                "end_time": 30.7318182,
                "pitch": 50,
                "velocity": 127,
                "duration": 0.2045455,
                "tempo": 120.0
            },
            {
                "start_time": 30.7318182,
                "end_time": 30.9386364,
                "pitch": 50,
                "velocity": 127,
                "duration": 0.2068182,
                "tempo": 120.0
            },
            {
                "start_time": 30.9386364,
                "end_time": 31.1340909,
                "pitch": 50,
                "velocity": 127,
                "duration": 0.1954545,
                "tempo": 120.0
            },
            {
                "start_time": 31.1340909,
                "end_time": 31.3295455,
                "pitch": 50,
                "velocity": 127,
                "duration": 0.1954545,
                "tempo": 120.0
            },
            {
                "start_time": 31.3295455,
                "end_time": 31.5295455,
                "pitch": 50,
                "velocity": 127,
                "duration": 0.2,
                "tempo": 120.0
            },
            {
                "start_time": 31.5295455,
                "end_time": 31.7295455,
                "pitch": 50,
                "velocity": 127,
                "duration": 0.2,
                "tempo": 120.0
            },
            {
                "start_time": 31.7295455,
                "end_time": 31.925,
                "pitch": 50,
                "velocity": 127,
                "duration": 0.1954545,
                "tempo": 120.0
            },
            {
                "start_time": 31.925,
                "end_time": 32.1227273,
                "pitch": 50,
                "velocity": 127,
                "duration": 0.1977273,
                "tempo": 120.0
            }
        ]
    }
}