{
    "mood": "angry",
    "instruments": {
        "Vibraphone": [
            {
                "start_time": 0.3,
                "end_time": 0.3659091,
                "pitch": 67,
                "velocity": 64,
                "duration": 0.0659091,
                "tempo": 120.0
            },
            {
                "start_time": 0.3659091,
                "end_time": 0.5,
                "pitch": 67,
                "velocity": 64,
                "duration": 0.1340909,
                "tempo": 120.0
            },
            {
                "start_time": 0.5,
                "end_time": 0.5659091,
                "pitch": 79,
                "velocity": 64,
                "duration": 0.0659091,
                "tempo": 120.0
            },
            {
                "start_time": 0.5659091,
                "end_time": 0.7,
                "pitch": 79,
                "velocity": 64,
                "duration": 0.1340909,
                "tempo": 120.0
            },
            {
                "start_time": 0.7,
                "end_time": 0.9,
                "pitch": 74,
                "velocity": 64,
                "duration": 0.2,
                "tempo": 120.0
            },
            {
                "start_time": 0.9,
                "end_time": 1.1,
                "pitch": 70,
                "velocity": 64,
                "duration": 0.2,
                "tempo": 120.0
            },
            {
                "start_time": 1.1,
                "end_time": 1.1659091,
                "pitch": 67,
                "velocity": 64,
                "duration": 0.0659091,
                "tempo": 120.0
            },
            {
                "start_time": 1.1659091,
                "end_time": 1.3,
                "pitch": 67,
                "velocity": 64,
                "duration": 0.1340909,
                "tempo": 120.0
            },
            {
                "start_time": 1.3,
                "end_time": 1.5,
                "pitch": 62,
                "velocity": 64,
                "duration": 0.2,
                "tempo": 120.0
            },
            {
                "start_time": 1.5,
                "end_time": 1.7,
                "pitch": 72,
                "velocity": 64,
                "duration": 0.2,
                "tempo": 120.0
            },
            {
                "start_time": 1.7,
                "end_time": 1.9,
                "pitch": 69,
                "velocity": 64,
                "duration": 0.2,
                "tempo": 120.0
            },
            {
                "start_time": 1.9,
                "end_time": 1.9681818,
                "pitch": 67,
                "velocity": 64,
                "duration": 0.0681818,
                "tempo": 120.0
            },
            {
                "start_time": 1.9681818,
                "end_time": 2.1022727,
                "pitch": 67,
                "velocity": 64,
                "duration": 0.1340909,
                "tempo": 120.0
            },
            {
                "start_time": 2.1022727,
                "end_time": 2.1681818,
                "pitch": 79,
                "velocity": 64,
                "duration": 0.0659091,
                "tempo": 120.0
            },
            {
                "start_time": 2.1681818,
                "end_time": 2.3022727,
                "pitch": 79,
                "velocity": 64,
                "duration": 0.1340909,
                "tempo": 120.0
            },
            {
                "start_time": 2.3022727,
                "end_time": 2.5022727,
                "pitch": 74,
                "velocity": 64,
                "duration": 0.2,
                "tempo": 120.0
            },
            {
                "start_time": 2.5022727,
                "end_time": 2.7068182,
                "pitch": 70,
                "velocity": 64,
                "duration": 0.2045455,
                "tempo": 120.0
            },
            {
                "start_time": 2.7068182,
                "end_time": 2.7772727,
                "pitch": 67,
                "velocity": 64,
                "duration": 0.0704545,
                "tempo": 120.0
            },
            {
                "start_time": 2.7772727,
                "end_time": 2.9181818,
                "pitch": 67,
                "velocity": 64,
                "duration": 0.1409091,
                "tempo": 120.0
            },
            {
                "start_time": 2.9181818,
                "end_time": 3.1227273,
                "pitch": 62,
                "velocity": 64,
                "duration": 0.2045455,
                "tempo": 120.0
            },
            {
                "start_time": 3.1227273,
                "end_time": 3.3181818,
                "pitch": 69,
                "velocity": 64,
                "duration": 0.1954545,
                "tempo": 120.0
            },
            {
                "start_time": 3.3181818,
                "end_time": 3.5159091,
                "pitch": 72,
                "velocity": 64,
                "duration": 0.1977273,
                "tempo": 120.0
            },
            {
                "start_time": 3.5159091,
                "end_time": 3.5795455,
                "pitch": 67,
                "velocity": 64,
                "duration": 0.0636364,
                "tempo": 120.0
            },
            {
                "start_time": 3.5795455,
                "end_time": 3.7113636,
                "pitch": 67,
                "velocity": 64,
                "duration": 0.1318182,
                "tempo": 120.0
            },
            {
                "start_time": 3.7113636,
                "end_time": 3.7772727,
                "pitch": 79,
                "velocity": 64,
                "duration": 0.0659091,
                "tempo": 120.0
            },
            {
                "start_time": 3.7772727,
                "end_time": 3.9090909,
                "pitch": 79,
                "velocity": 64,
                "duration": 0.1318182,
                "tempo": 120.0
            },
            {
                "start_time": 3.9090909,
                "end_time": 4.1090909,
                "pitch": 74,
                "velocity": 64,
                "duration": 0.2,
                "tempo": 120.0
            },
            {
                "start_time": 4.1090909,
                "end_time": 4.3090909,
                "pitch": 70,
                "velocity": 64,
                "duration": 0.2,
                "tempo": 120.0
            },
            {
                "start_time": 4.3090909,
                "end_time": 4.3772727,
                "pitch": 67,
                "velocity": 64,
                "duration": 0.0681818,
                "tempo": 120.0
            },
            {
                "start_time": 4.3772727,
                "end_time": 4.5113636,
                "pitch": 67,
                "velocity": 64,
                "duration": 0.1340909,
                "tempo": 120.0
            },
            {
                "start_time": 4.5113636,
                "end_time": 4.7113636,
                "pitch": 62,
                "velocity": 64,
                "duration": 0.2,
                "tempo": 120.0
            },
            {
                "start_time": 4.7113636,
                "end_time": 4.9113636,
                "pitch": 72,
                "velocity": 64,
                "duration": 0.2,
                "tempo": 120.0
            },
            {
                "start_time": 4.9113636,
                "end_time": 5.1136364,
                "pitch": 69,
                "velocity": 64,
                "duration": 0.2022727,
                "tempo": 120.0
            },
            {
                "start_time": 5.1136364,
                "end_time": 5.1795455,
                "pitch": 67,
                "velocity": 64,
                "duration": 0.0659091,
                "tempo": 120.0
            },
            {
                "start_time": 5.1795455,
                "end_time": 5.3136364,
                "pitch": 67,
                "velocity": 64,
                "duration": 0.1340909,
                "tempo": 120.0
            },
            {
                "start_time": 5.3136364,
                "end_time": 5.3818182,
                "pitch": 79,
                "velocity": 64,
                "duration": 0.0681818,
                "tempo": 120.0
            },
            {
                "start_time": 5.3818182,
                "end_time": 5.5136364,
                "pitch": 79,
                "velocity": 64,
                "duration": 0.1318182,
                "tempo": 120.0
            },
            {
                "start_time": 5.5136364,
                "end_time": 5.7136364,
                "pitch": 74,
                "velocity": 64,
                "duration": 0.2,
                "tempo": 120.0
            },
            {
                "start_time": 5.7136364,
                "end_time": 5.9159091,
                "pitch": 70,
                "velocity": 64,
                "duration": 0.2022727,
                "tempo": 120.0
            },
            {
                "start_time": 5.9159091,
                "end_time": 5.9818182,
                "pitch": 67,
                "velocity": 64,
                "duration": 0.0659091,
                "tempo": 120.0
            },
            {
                "start_time": 5.9818182,
                "end_time": 6.1159091,
                "pitch": 67,
                "velocity": 64,
                "duration": 0.1340909,
                "tempo": 120.0
            },
            {
                "start_time": 6.1159091,
                "end_time": 6.3181818,
                "pitch": 62,
                "velocity": 64,
                "duration": 0.2022727,
                "tempo": 120.0
            },
            {
                "start_time": 6.3181818,
                "end_time": 6.5181818,
                "pitch": 69,
                "velocity": 64,
                "duration": 0.2,
                "tempo": 120.0
            },
            {
                "start_time": 6.5181818,
                "end_time": 6.7227273,
                "pitch": 72,
                "velocity": 64,
                "duration": 0.2045455,
                "tempo": 120.0
            },
            {
                "start_time": 6.7227273,
                "end_time": 6.9272727,
                "pitch": 62,
                "velocity": 64,
                "duration": 0.2045455,
                "tempo": 120.0
            },
            {
                "start_time": 6.9272727,
                "end_time": 7.1295455,
                "pitch": 74,
                "velocity": 64,
                "duration": 0.2022727,
                "tempo": 120.0
            },
            {
                "start_time": 7.1295455,
                "end_time": 7.325,
                "pitch": 69,
                "velocity": 64,
                "duration": 0.1954545,
                "tempo": 120.0
            },
            {
                "start_time": 7.325,
                "end_time": 7.525,
                "pitch": 65,
                "velocity": 64,
                "duration": 0.2,
                "tempo": 120.0
            },
            {
                "start_time": 7.525,
                "end_time": 7.7318182,
                "pitch": 62,
                "velocity": 64,
                "duration": 0.2068182,
                "tempo": 120.0
            },
            {
                "start_time": 7.7318182,
                "end_time": 7.9318182,
                "pitch": 57,
                "velocity": 64,
                "duration": 0.2,
                "tempo": 120.0
            },
            {
                "start_time": 7.9318182,
                "end_time": 7.9954545,
                "pitch": 67,
                "velocity": 64,
                "duration": 0.0636364,
                "tempo": 120.0
            },
            {
                "start_time": 7.9954545,
                "end_time": 8.1272727,
                "pitch": 67,
                "velocity": 64,
                "duration": 0.1318182,
                "tempo": 120.0
            },
            {
                "start_time": 8.1272727,
                "end_time": 8.325,
                "pitch": 64,
                "velocity": 64,
                "duration": 0.1977273,
                "tempo": 120.0
            },
            {
                "start_time": 8.325,
                "end_time": 8.525,
                "pitch": 62,
                "velocity": 64,
                "duration": 0.2,
                "tempo": 120.0
            },
            {
                "start_time": 8.525,
                "end_time": 8.7272727,
                "pitch": 74,
                "velocity": 64,
                "duration": 0.2022727,
                "tempo": 120.0
            },
            {
                "start_time": 8.7272727,
                "end_time": 8.9272727,
                "pitch": 69,
                "velocity": 64,
                "duration": 0.2,
                "tempo": 120.0
            },
            {
                "start_time": 8.9272727,
                "end_time": 9.1318182,
                "pitch": 65,
                "velocity": 64,
                "duration": 0.2045455,
                "tempo": 120.0
            },
            {
                "start_time": 9.1318182,
                "end_time": 9.3363636,
                "pitch": 62,
                "velocity": 64,
                "duration": 0.2045455,
                "tempo": 120.0
            },
            {
                "start_time": 9.3363636,
                "end_time": 9.5363636,
                "pitch": 57,
                "velocity": 64,
                "duration": 0.2,
                "tempo": 120.0
            },
            {
                "start_time": 9.5363636,
                "end_time": 9.7318182,
                "pitch": 64,
                "velocity": 64,
                "duration": 0.1954545,
                "tempo": 120.0
            },
            {
                "start_time": 9.7318182,
                "end_time": 9.7977273,
                "pitch": 67,
                "velocity": 64,
                "duration": 0.0659091,
                "tempo": 120.0
            },
            {
                "start_time": 9.7977273,
                "end_time": 9.9340909,
                "pitch": 67,
                "velocity": 64,
                "duration": 0.1363636,
                "tempo": 120.0
            },
            {
                "start_time": 9.9340909,
                "end_time": 10.1386364,
                "pitch": 60,
                "velocity": 64,
                "duration": 0.2045455,
                "tempo": 120.0
            },
            {
                "start_time": 10.1386364,
                "end_time": 10.3409091,
                "pitch": 72,
                "velocity": 64,
                "duration": 0.2022727,
                "tempo": 120.0
            },
            {
                "start_time": 10.3409091,
                "end_time": 10.4090909,
                "pitch": 67,
                "velocity": 64,
                "duration": 0.0681818,
                "tempo": 120.0
            },
            {
                "start_time": 10.4090909,
                "end_time": 10.5409091,
                "pitch": 67,
                "velocity": 64,
                "duration": 0.1318182,
                "tempo": 120.0
            },
            {
                "start_time": 10.5409091,
                "end_time": 10.7431818,
                "pitch": 63,
                "velocity": 64,
                "duration": 0.2022727,
                "tempo": 120.0
            },
            {
                "start_time": 10.7431818,
                "end_time": 10.9431818,
                "pitch": 60,
                "velocity": 64,
                "duration": 0.2,
                "tempo": 120.0
            },
            {
                "start_time": 10.9431818,
                "end_time": 11.0113636,
                "pitch": 55,
                "velocity": 64,
                "duration": 0.0681818,
                "tempo": 120.0
            },
            {
                "start_time": 11.0113636,
                "end_time": 11.0772727,
                "pitch": 55,
                "velocity": 64,
                "duration": 0.0659091,
                "tempo": 120.0
            },
            {
                "start_time": 11.0772727,
                "end_time": 11.1431818,
                "pitch": 55,
                "velocity": 64,
                "duration": 0.0659091,
                "tempo": 120.0
            },
            {
                "start_time": 11.1431818,
                "end_time": 11.3386364,
                "pitch": 67,
                "velocity": 64,
                "duration": 0.1954545,
                "tempo": 120.0
            },
            {
                "start_time": 11.3386364,
                "end_time": 11.5386364,
                "pitch": 62,
                "velocity": 64,
                "duration": 0.2,
                "tempo": 120.0
            },
            {
                "start_time": 11.5386364,
                "end_time": 11.7454545,
                "pitch": 60,
                "velocity": 64,
                "duration": 0.2068182,
                "tempo": 120.0
            },
            {
                "start_time": 11.7454545,
                "end_time": 11.9477273,
                "pitch": 72,
                "velocity": 64,
                "duration": 0.2022727,
                "tempo": 120.0
            },
            {
                "start_time": 11.9477273,
                "end_time": 12.0159091,
                "pitch": 67,
                "velocity": 64,
                "duration": 0.0681818,
                "tempo": 120.0
            },
            {
                "start_time": 12.0159091,
                "end_time": 12.15,
                "pitch": 67,
                "velocity": 64,
                "duration": 0.1340909,
                "tempo": 120.0
            },
            {
                "start_time": 12.15,
                "end_time": 12.35,
                "pitch": 63,
                "velocity": 64,
                "duration": 0.2,
                "tempo": 120.0
            },
            {
                "start_time": 12.35,
                "end_time": 12.55,
                "pitch": 60,
                "velocity": 64,
                "duration": 0.2,
                "tempo": 120.0
            },
            {
                "start_time": 12.55,
                "end_time": 12.6159091,
                "pitch": 55,
                "velocity": 64,
                "duration": 0.0659091,
                "tempo": 120.0
            },
            {
                "start_time": 12.6159091,
                "end_time": 12.6818182,
                "pitch": 55,
                "velocity": 64,
                "duration": 0.0659091,
                "tempo": 120.0
            },
            {
                "start_time": 12.6818182,
                "end_time": 12.7477273,
                "pitch": 55,
                "velocity": 64,
                "duration": 0.0659091,
                "tempo": 120.0
            },
            {
                "start_time": 12.7477273,
                "end_time": 12.9431818,
                "pitch": 62,
                "velocity": 64,
                "duration": 0.1954545,
                "tempo": 120.0
            },
            {
                "start_time": 12.9431818,
                "end_time": 13.1431818,
                "pitch": 65,
                "velocity": 64,
                "duration": 0.2,
                "tempo": 120.0
            },
            {
                "start_time": 13.1431818,
                "end_time": 13.2090909,
                "pitch": 67,
                "velocity": 64,
                "duration": 0.0659091,
                "tempo": 120.0
            },
            {
                "start_time": 13.2090909,
                "end_time": 13.3431818,
                "pitch": 67,
                "velocity": 64,
                "duration": 0.1340909,
                "tempo": 120.0
            },
            {
                "start_time": 13.3431818,
                "end_time": 13.4113636,
                "pitch": 79,
                "velocity": 64,
                "duration": 0.0681818,
                "tempo": 120.0
            },
            {
                "start_time": 13.4113636,
                "end_time": 13.5477273,
                "pitch": 79,
                "velocity": 64,
                "duration": 0.1363636,
                "tempo": 120.0
            },
            {
                "start_time": 13.5477273,
                "end_time": 13.7522727,
                "pitch": 74,
                "velocity": 64,
                "duration": 0.2045455,
                "tempo": 120.0
            },
            {
                "start_time": 13.7522727,
                "end_time": 13.9545455,
                "pitch": 70,
                "velocity": 64,
                "duration": 0.2022727,
                "tempo": 120.0
            },
            {
                "start_time": 13.9545455,
                "end_time": 14.0181818,
                "pitch": 67,
                "velocity": 64,
                "duration": 0.0636364,
                "tempo": 120.0
            },
            {
                "start_time": 14.0181818,
                "end_time": 14.15,
                "pitch": 67,
                "velocity": 64,
                "duration": 0.1318182,
                "tempo": 120.0
            },
            {
                "start_time": 14.15,
                "end_time": 14.3477273,
                "pitch": 62,
                "velocity": 64,
                "duration": 0.1977273,
                "tempo": 120.0
            },
            {
                "start_time": 14.3477273,
                "end_time": 14.55,
                "pitch": 72,
                "velocity": 64,
                "duration": 0.2022727,
                "tempo": 120.0
            },
            {
                "start_time": 14.55,
                "end_time": 14.7522727,
                "pitch": 69,
                "velocity": 64,
                "duration": 0.2022727,
                "tempo": 120.0
            },
            {
                "start_time": 14.7522727,
                "end_time": 14.8227273,
                "pitch": 67,
                "velocity": 64,
                "duration": 0.0704545,
                "tempo": 120.0
            },
            {
                "start_time": 14.8227273,
                "end_time": 14.9590909,
                "pitch": 67,
                "velocity": 64,
                "duration": 0.1363636,
                "tempo": 120.0
            },
            {
                "start_time": 14.9590909,
                "end_time": 15.0272727,
                "pitch": 79,
                "velocity": 64,
                "duration": 0.0681818,
                "tempo": 120.0
            },
            {
                "start_time": 15.0272727,
                "end_time": 15.1613636,
                "pitch": 79,
                "velocity": 64,
                "duration": 0.1340909,
                "tempo": 120.0
            },
            {
                "start_time": 15.1613636,
                "end_time": 15.3636364,
                "pitch": 74,
                "velocity": 64,
                "duration": 0.2022727,
                "tempo": 120.0
            },
            {
                "start_time": 15.3636364,
                "end_time": 15.5659091,
                "pitch": 70,
                "velocity": 64,
                "duration": 0.2022727,
                "tempo": 120.0
            },
            {
                "start_time": 15.5659091,
                "end_time": 15.6318182,
                "pitch": 67,
                "velocity": 64,
                "duration": 0.0659091,
                "tempo": 120.0
            },
            {
                "start_time": 15.6318182,
                "end_time": 15.7659091,
                "pitch": 67,
                "velocity": 64,
                "duration": 0.1340909,
                "tempo": 120.0
            },
            {
                "start_time": 15.7659091,
                "end_time": 15.9636364,
                "pitch": 62,
                "velocity": 64,
                "duration": 0.1977273,
                "tempo": 120.0
            },
            {
                "start_time": 15.9636364,
                "end_time": 16.0454545,
                "pitch": 69,
                "velocity": 64,
                "duration": 0.0818182,
                "tempo": 120.0
            }
        ],
        "Synth Bass 1": [
            {
                "start_time": 3.2204545,
                "end_time": 3.3181818,
                "pitch": 55,
                "velocity": 80,
                "duration": 0.0977273,
                "tempo": 120.0
            },
            {
                "start_time": 3.3181818,
                "end_time": 3.4159091,
                "pitch": 55,
                "velocity": 80,
                "duration": 0.0977273,
                "tempo": 120.0
            },
            {
                "start_time": 3.4159091,
                "end_time": 3.5159091,
                "pitch": 55,
                "velocity": 80,
                "duration": 0.1,
                "tempo": 120.0
            },
            {
                "start_time": 3.5159091,
                "end_time": 3.6136364,
                "pitch": 55,
                "velocity": 80,
                "duration": 0.0977273,
                "tempo": 120.0
            },
            {
                "start_time": 3.6136364,
                "end_time": 3.7113636,
                "pitch": 67,
                "velocity": 80,
                "duration": 0.0977273,
                "tempo": 120.0
            },
            {
                "start_time": 3.7113636,
                "end_time": 3.8090909,
                "pitch": 55,
                "velocity": 80,
                "duration": 0.0977273,
                "tempo": 120.0
            },
            {
                "start_time": 3.8090909,
                "end_time": 3.9090909,
                "pitch": 62,
                "velocity": 80,
                "duration": 0.1,
                "tempo": 120.0
            },
            {
                "start_time": 3.9090909,
                "end_time": 4.0090909,
                "pitch": 55,
                "velocity": 80,
                "duration": 0.1,
                "tempo": 120.0
            },
            {
                "start_time": 4.0090909,
                "end_time": 4.1090909,
                "pitch": 65,
                "velocity": 80,
                "duration": 0.1,
                "tempo": 120.0
            },
            {
                "start_time": 4.1090909,
                "end_time": 4.2090909,
                "pitch": 55,
                "velocity": 80,
                "duration": 0.1,
                "tempo": 120.0
            },
            {
                "start_time": 4.2090909,
                "end_time": 4.3090909,
                "pitch": 64,
                "velocity": 80,
                "duration": 0.1,
                "tempo": 120.0
            },
            {
                "start_time": 4.3090909,
                "end_time": 4.4113636,
                "pitch": 55,
                "velocity": 80,
                "duration": 0.1022727,
                "tempo": 120.0
            },
            {
                "start_time": 4.4113636,
                "end_time": 4.5113636,
                "pitch": 62,
                "velocity": 80,
                "duration": 0.1,
                "tempo": 120.0
            },
            {
                "start_time": 4.5113636,
                "end_time": 4.6113636,
                "pitch": 55,
                "velocity": 80,
                "duration": 0.1,
                "tempo": 120.0
            },
            {
                "start_time": 4.6113636,
                "end_time": 4.7113636,
                "pitch": 67,
                "velocity": 80,
                "duration": 0.1,
                "tempo": 120.0
            },
            {
                "start_time": 4.7113636,
                "end_time": 4.8113636,
                "pitch": 55,
                "velocity": 80,
                "duration": 0.1,
                "tempo": 120.0
            },
            {
                "start_time": 4.8113636,
                "end_time": 4.9113636,
                "pitch": 55,
                "velocity": 80,
                "duration": 0.1,
                "tempo": 120.0
            },
            {
                "start_time": 4.9113636,
                "end_time": 5.0113636,
                "pitch": 55,
                "velocity": 80,
                "duration": 0.1,
                "tempo": 120.0
            },
            {
                "start_time": 5.0113636,
                "end_time": 5.1136364,
                "pitch": 55,
                "velocity": 80,
                "duration": 0.1022727,
                "tempo": 120.0
            },
            {
                "start_time": 5.1136364,
                "end_time": 5.2136364,
                "pitch": 55,
                "velocity": 80,
                "duration": 0.1,
                "tempo": 120.0
            },
            {
                "start_time": 5.2136364,
                "end_time": 5.3136364,
                "pitch": 67,
                "velocity": 80,
                "duration": 0.1,
                "tempo": 120.0
            },
            {
                "start_time": 5.3136364,
                "end_time": 5.4136364,
                "pitch": 55,
                "velocity": 80,
                "duration": 0.1,
                "tempo": 120.0
            },
            {
                "start_time": 5.4136364,
                "end_time": 5.5136364,
                "pitch": 62,
                "velocity": 80,
                "duration": 0.1,
                "tempo": 120.0
            },
            {
                "start_time": 5.5136364,
                "end_time": 5.6136364,
                "pitch": 55,
                "velocity": 80,
                "duration": 0.1,
                "tempo": 120.0
            },
            {
                "start_time": 5.6136364,
                "end_time": 5.7136364,
                "pitch": 65,
                "velocity": 80,
                "duration": 0.1,
                "tempo": 120.0
            },
            {
                "start_time": 5.7136364,
                "end_time": 5.8136364,
                "pitch": 55,
                "velocity": 80,
                "duration": 0.1,
                "tempo": 120.0
            },
            {
                "start_time": 5.8136364,
                "end_time": 5.9159091,
                "pitch": 64,
                "velocity": 80,
                "duration": 0.1022727,
                "tempo": 120.0
            },
            {
                "start_time": 5.9159091,
                "end_time": 6.0159091,
                "pitch": 55,
                "velocity": 80,
                "duration": 0.1,
                "tempo": 120.0
            },
            {
                "start_time": 6.0159091,
                "end_time": 6.1159091,
                "pitch": 62,
                "velocity": 80,
                "duration": 0.1,
                "tempo": 120.0
            },
            {
                "start_time": 6.1159091,
                "end_time": 6.2181818,
                "pitch": 55,
                "velocity": 80,
                "duration": 0.1022727,
                "tempo": 120.0
            },
            {
                "start_time": 6.2181818,
                "end_time": 6.3181818,
                "pitch": 67,
                "velocity": 80,
                "duration": 0.1,
                "tempo": 120.0
            },
            {
                "start_time": 6.3181818,
                "end_time": 6.4181818,
                "pitch": 55,
                "velocity": 80,
                "duration": 0.1,
                "tempo": 120.0
            },
            {
                "start_time": 6.4181818,
                "end_time": 6.5181818,
                "pitch": 50,
                "velocity": 80,
                "duration": 0.1,
                "tempo": 120.0
            },
            {
                "start_time": 6.5181818,
                "end_time": 6.6204545,
                "pitch": 50,
                "velocity": 80,
                "duration": 0.1022727,
                "tempo": 120.0
            },
            {
                "start_time": 6.6204545,
                "end_time": 6.7227273,
                "pitch": 50,
                "velocity": 80,
                "duration": 0.1022727,
                "tempo": 120.0
            },
            {
                "start_time": 6.7227273,
                "end_time": 6.825,
                "pitch": 50,
                "velocity": 80,
                "duration": 0.1022727,
                "tempo": 120.0
            },
            {
                "start_time": 6.825,
                "end_time": 6.9272727,
                "pitch": 62,
                "velocity": 80,
                "duration": 0.1022727,
                "tempo": 120.0
            },
            {
                "start_time": 6.9272727,
                "end_time": 7.0295455,
                "pitch": 50,
                "velocity": 80,
                "duration": 0.1022727,
                "tempo": 120.0
            },
            {
                "start_time": 7.0295455,
                "end_time": 7.1295455,
                "pitch": 57,
                "velocity": 80,
                "duration": 0.1,
                "tempo": 120.0
            },
            {
                "start_time": 7.1295455,
                "end_time": 7.2272727,
                "pitch": 50,
                "velocity": 80,
                "duration": 0.0977273,
                "tempo": 120.0
            },
            {
                "start_time": 7.2272727,
                "end_time": 7.325,
                "pitch": 60,
                "velocity": 80,
                "duration": 0.0977273,
                "tempo": 120.0
            },
            {
                "start_time": 7.325,
                "end_time": 7.4227273,
                "pitch": 50,
                "velocity": 80,
                "duration": 0.0977273,
                "tempo": 120.0
            },
            {
                "start_time": 7.4227273,
                "end_time": 7.525,
                "pitch": 59,
                "velocity": 80,
                "duration": 0.1022727,
                "tempo": 120.0
            },
            {
                "start_time": 7.525,
                "end_time": 7.6272727,
                "pitch": 50,
                "velocity": 80,
                "duration": 0.1022727,
                "tempo": 120.0
            },
            {
                "start_time": 7.6272727,
                "end_time": 7.7318182,
                "pitch": 57,
                "velocity": 80,
                "duration": 0.1045455,
                "tempo": 120.0
            },
            {
                "start_time": 7.7318182,
                "end_time": 7.8340909,
                "pitch": 50,
                "velocity": 80,
                "duration": 0.1022727,
                "tempo": 120.0
            },
            {
                "start_time": 7.8340909,
                "end_time": 7.9318182,
                "pitch": 62,
                "velocity": 80,
                "duration": 0.0977273,
                "tempo": 120.0
            },
            {
                "start_time": 7.9318182,
                "end_time": 8.0295455,
                "pitch": 50,
                "velocity": 80,
                "duration": 0.0977273,
                "tempo": 120.0
            },
            {
                "start_time": 8.0295455,
                "end_time": 8.1272727,
                "pitch": 50,
                "velocity": 80,
                "duration": 0.0977273,
                "tempo": 120.0
            },
            {
                "start_time": 8.1272727,
                "end_time": 8.225,
                "pitch": 50,
                "velocity": 80,
                "duration": 0.0977273,
                "tempo": 120.0
            },
            {
                "start_time": 8.225,
                "end_time": 8.325,
                "pitch": 50,
                "velocity": 80,
                "duration": 0.1,
                "tempo": 120.0
            },
            {
                "start_time": 8.325,
                "end_time": 8.425,
                "pitch": 50,
                "velocity": 80,
                "duration": 0.1,
                "tempo": 120.0
            },
            {
                "start_time": 8.425,
                "end_time": 8.525,
                "pitch": 62,
                "velocity": 80,
                "duration": 0.1,
                "tempo": 120.0
            },
            {
                "start_time": 8.525,
                "end_time": 8.625,
                "pitch": 50,
                "velocity": 80,
                "duration": 0.1,
                "tempo": 120.0
            },
            {
                "start_time": 8.625,
                "end_time": 8.7272727,
                "pitch": 57,
                "velocity": 80,
                "duration": 0.1022727,
                "tempo": 120.0
            },
            {
                "start_time": 8.7272727,
                "end_time": 8.8272727,
                "pitch": 50,
                "velocity": 80,
                "duration": 0.1,
                "tempo": 120.0
            },
            {
                "start_time": 8.8272727,
                "end_time": 8.9272727,
                "pitch": 60,
                "velocity": 80,
                "duration": 0.1,
                "tempo": 120.0
            },
            {
                "start_time": 8.9272727,
                "end_time": 9.0272727,
                "pitch": 50,
                "velocity": 80,
                "duration": 0.1,
                "tempo": 120.0
            },
            {
                "start_time": 9.0272727,
                "end_time": 9.1318182,
                "pitch": 59,
                "velocity": 80,
                "duration": 0.1045455,
                "tempo": 120.0
            },
            {
                "start_time": 9.1318182,
                "end_time": 9.2340909,
                "pitch": 50,
                "velocity": 80,
                "duration": 0.1022727,
                "tempo": 120.0
            },
            {
                "start_time": 9.2340909,
                "end_time": 9.3363636,
                "pitch": 57,
                "velocity": 80,
                "duration": 0.1022727,
                "tempo": 120.0
            },
            {
                "start_time": 9.3363636,
                "end_time": 9.4386364,
                "pitch": 50,
                "velocity": 80,
                "duration": 0.1022727,
                "tempo": 120.0
            },
            {
                "start_time": 9.4386364,
                "end_time": 9.5363636,
                "pitch": 62,
                "velocity": 80,
                "duration": 0.0977273,
                "tempo": 120.0
            },
            {
                "start_time": 9.5363636,
                "end_time": 9.6340909,
                "pitch": 50,
                "velocity": 80,
                "duration": 0.0977273,
                "tempo": 120.0
            },
            {
                "start_time": 9.6340909,
                "end_time": 9.7318182,
                "pitch": 48,
                "velocity": 80,
                "duration": 0.0977273,
                "tempo": 120.0
            },
            {
                "start_time": 9.7318182,
                "end_time": 9.8318182,
                "pitch": 48,
                "velocity": 80,
                "duration": 0.1,
                "tempo": 120.0
            },
            {
                "start_time": 9.8318182,
                "end_time": 9.9340909,
                "pitch": 48,
                "velocity": 80,
                "duration": 0.1022727,
                "tempo": 120.0
            },
            {
                "start_time": 9.9340909,
                "end_time": 10.0363636,
                "pitch": 48,
                "velocity": 80,
                "duration": 0.1022727,
                "tempo": 120.0
            },
            {
                "start_time": 10.0363636,
                "end_time": 10.1386364,
                "pitch": 60,
                "velocity": 80,
                "duration": 0.1022727,
                "tempo": 120.0
            },
            {
                "start_time": 10.1386364,
                "end_time": 10.2409091,
                "pitch": 48,
                "velocity": 80,
                "duration": 0.1022727,
                "tempo": 120.0
            },
            {
                "start_time": 10.2409091,
                "end_time": 10.3409091,
                "pitch": 55,
                "velocity": 80,
                "duration": 0.1,
                "tempo": 120.0
            },
            {
                "start_time": 10.3409091,
                "end_time": 10.4409091,
                "pitch": 48,
                "velocity": 80,
                "duration": 0.1,
                "tempo": 120.0
            },
            {
                "start_time": 10.4409091,
                "end_time": 10.5409091,
                "pitch": 58,
                "velocity": 80,
                "duration": 0.1,
                "tempo": 120.0
            },
            {
                "start_time": 10.5409091,
                "end_time": 10.6409091,
                "pitch": 46,
                "velocity": 80,
                "duration": 0.1,
                "tempo": 120.0
            },
            {
                "start_time": 10.6409091,
                "end_time": 10.7431818,
                "pitch": 57,
                "velocity": 80,
                "duration": 0.1022727,
                "tempo": 120.0
            },
            {
                "start_time": 10.7431818,
                "end_time": 10.8431818,
                "pitch": 48,
                "velocity": 80,
                "duration": 0.1,
                "tempo": 120.0
            },
            {
                "start_time": 10.8431818,
                "end_time": 10.9431818,
                "pitch": 55,
                "velocity": 80,
                "duration": 0.1,
                "tempo": 120.0
            },
            {
                "start_time": 10.9431818,
                "end_time": 11.0431818,
                "pitch": 48,
                "velocity": 80,
                "duration": 0.1,
                "tempo": 120.0
            },
            {
                "start_time": 11.0431818,
                "end_time": 11.1431818,
                "pitch": 60,
                "velocity": 80,
                "duration": 0.1,
                "tempo": 120.0
            },
            {
                "start_time": 11.1431818,
                "end_time": 11.2409091,
                "pitch": 48,
                "velocity": 80,
                "duration": 0.0977273,
                "tempo": 120.0
            },
            {
                "start_time": 11.2409091,
                "end_time": 11.3386364,
                "pitch": 48,
                "velocity": 80,
                "duration": 0.0977273,
                "tempo": 120.0
            },
            {
                "start_time": 11.3386364,
                "end_time": 11.4363636,
                "pitch": 48,
                "velocity": 80,
                "duration": 0.0977273,
                "tempo": 120.0
            },
            {
                "start_time": 11.4363636,
                "end_time": 11.5386364,
                "pitch": 48,
                "velocity": 80,
                "duration": 0.1022727,
                "tempo": 120.0
            },
            {
                "start_time": 11.5386364,
                "end_time": 11.6409091,
                "pitch": 48,
                "velocity": 80,
                "duration": 0.1022727,
                "tempo": 120.0
            },
            {
                "start_time": 11.6409091,
                "end_time": 11.7454545,
                "pitch": 60,
                "velocity": 80,
                "duration": 0.1045455,
                "tempo": 120.0
            },
            {
                "start_time": 11.7454545,
                "end_time": 11.8477273,
                "pitch": 48,
                "velocity": 80,
                "duration": 0.1022727,
                "tempo": 120.0
            },
            {
                "start_time": 11.8477273,
                "end_time": 11.9477273,
                "pitch": 55,
                "velocity": 80,
                "duration": 0.1,
                "tempo": 120.0
            },
            {
                "start_time": 11.9477273,
                "end_time": 12.0477273,
                "pitch": 48,
                "velocity": 80,
                "duration": 0.1,
                "tempo": 120.0
            },
            {
                "start_time": 12.0477273,
                "end_time": 12.15,
                "pitch": 58,
                "velocity": 80,
                "duration": 0.1022727,
                "tempo": 120.0
            },
            {
                "start_time": 12.15,
                "end_time": 12.25,
                "pitch": 46,
                "velocity": 80,
                "duration": 0.1,
                "tempo": 120.0
            },
            {
                "start_time": 12.25,
                "end_time": 12.35,
                "pitch": 57,
                "velocity": 80,
                "duration": 0.1,
                "tempo": 120.0
            },
            {
                "start_time": 12.35,
                "end_time": 12.45,
                "pitch": 48,
                "velocity": 80,
                "duration": 0.1,
                "tempo": 120.0
            },
            {
                "start_time": 12.45,
                "end_time": 12.55,
                "pitch": 55,
                "velocity": 80,
                "duration": 0.1,
                "tempo": 120.0
            },
            {
                "start_time": 12.55,
                "end_time": 12.65,
                "pitch": 48,
                "velocity": 80,
                "duration": 0.1,
                "tempo": 120.0
            },
            {
                "start_time": 12.65,
                "end_time": 12.7477273,
                "pitch": 60,
                "velocity": 80,
                "duration": 0.0977273,
                "tempo": 120.0
            },
            {
                "start_time": 12.7477273,
                "end_time": 12.8454545,
                "pitch": 48,
                "velocity": 80,
                "duration": 0.0977273,
                "tempo": 120.0
            },
            {
                "start_time": 12.8454545,
                "end_time": 12.9431818,
                "pitch": 55,
                "velocity": 80,
                "duration": 0.0977273,
                "tempo": 120.0
            },
            {
                "start_time": 12.9431818,
                "end_time": 13.0431818,
                "pitch": 55,
                "velocity": 80,
                "duration": 0.1,
                "tempo": 120.0
            },
            {
                "start_time": 13.0431818,
                "end_time": 13.1431818,
                "pitch": 55,
                "velocity": 80,
                "duration": 0.1,
                "tempo": 120.0
            },
            {
                "start_time": 13.1431818,
                "end_time": 13.2431818,
                "pitch": 55,
                "velocity": 80,
                "duration": 0.1,
                "tempo": 120.0
            },
            {
                "start_time": 13.2431818,
                "end_time": 13.3431818,
                "pitch": 67,
                "velocity": 80,
                "duration": 0.1,
                "tempo": 120.0
            },
            {
                "start_time": 13.3431818,
                "end_time": 13.4454545,
                "pitch": 55,
                "velocity": 80,
                "duration": 0.1022727,
                "tempo": 120.0
            },
            {
                "start_time": 13.4454545,
                "end_time": 13.5477273,
                "pitch": 62,
                "velocity": 80,
                "duration": 0.1022727,
                "tempo": 120.0
            },
            {
                "start_time": 13.5477273,
                "end_time": 13.65,
                "pitch": 55,
                "velocity": 80,
                "duration": 0.1022727,
                "tempo": 120.0
            },
            {
                "start_time": 13.65,
                "end_time": 13.7522727,
                "pitch": 65,
                "velocity": 80,
                "duration": 0.1022727,
                "tempo": 120.0
            },
            {
                "start_time": 13.7522727,
                "end_time": 13.8545455,
                "pitch": 55,
                "velocity": 80,
                "duration": 0.1022727,
                "tempo": 120.0
            },
            {
                "start_time": 13.8545455,
                "end_time": 13.9545455,
                "pitch": 64,
                "velocity": 80,
                "duration": 0.1,
                "tempo": 120.0
            },
            {
                "start_time": 13.9545455,
                "end_time": 14.0522727,
                "pitch": 55,
                "velocity": 80,
                "duration": 0.0977273,
                "tempo": 120.0
            },
            {
                "start_time": 14.0522727,
                "end_time": 14.15,
                "pitch": 62,
                "velocity": 80,
                "duration": 0.0977273,
                "tempo": 120.0
            },
            {
                "start_time": 14.15,
                "end_time": 14.2477273,
                "pitch": 55,
                "velocity": 80,
                "duration": 0.0977273,
                "tempo": 120.0
            },
            {
                "start_time": 14.2477273,
                "end_time": 14.3477273,
                "pitch": 67,
                "velocity": 80,
                "duration": 0.1,
                "tempo": 120.0
            },
            {
                "start_time": 14.3477273,
                "end_time": 14.45,
                "pitch": 55,
                "velocity": 80,
                "duration": 0.1022727,
                "tempo": 120.0
            },
            {
                "start_time": 14.45,
                "end_time": 14.55,
                "pitch": 55,
                "velocity": 80,
                "duration": 0.1,
                "tempo": 120.0
            },
            {
                "start_time": 14.55,
                "end_time": 14.65,
                "pitch": 55,
                "velocity": 80,
                "duration": 0.1,
                "tempo": 120.0
            },
            {
                "start_time": 14.65,
                "end_time": 14.7522727,
                "pitch": 55,
                "velocity": 80,
                "duration": 0.1022727,
                "tempo": 120.0
            },
            {
                "start_time": 14.7522727,
                "end_time": 14.8568182,
                "pitch": 55,
                "velocity": 80,
                "duration": 0.1045455,
                "tempo": 120.0
            },
            {
                "start_time": 14.8568182,
                "end_time": 14.9590909,
                "pitch": 67,
                "velocity": 80,
                "duration": 0.1022727,
                "tempo": 120.0
            },
            {
                "start_time": 14.9590909,
                "end_time": 15.0613636,
                "pitch": 55,
                "velocity": 80,
                "duration": 0.1022727,
                "tempo": 120.0
            },
            {
                "start_time": 15.0613636,
                "end_time": 15.1613636,
                "pitch": 62,
                "velocity": 80,
                "duration": 0.1,
                "tempo": 120.0
            },
            {
                "start_time": 15.1613636,
                "end_time": 15.2636364,
                "pitch": 55,
                "velocity": 80,
                "duration": 0.1022727,
                "tempo": 120.0
            },
            {
                "start_time": 15.2636364,
                "end_time": 15.3636364,
                "pitch": 65,
                "velocity": 80,
                "duration": 0.1,
                "tempo": 120.0
            },
            {
                "start_time": 15.3636364,
                "end_time": 15.4636364,
                "pitch": 55,
                "velocity": 80,
                "duration": 0.1,
                "tempo": 120.0
            },
            {
                "start_time": 15.4636364,
                "end_time": 15.5659091,
                "pitch": 64,
                "velocity": 80,
                "duration": 0.1022727,
                "tempo": 120.0
            },
            {
                "start_time": 15.5659091,
                "end_time": 15.6659091,
                "pitch": 55,
                "velocity": 80,
                "duration": 0.1,
                "tempo": 120.0
            },
            {
                "start_time": 15.6659091,
                "end_time": 15.7659091,
                "pitch": 62,
                "velocity": 80,
                "duration": 0.1,
                "tempo": 120.0
            },
            {
                "start_time": 15.7659091,
                "end_time": 15.8659091,
                "pitch": 55,
                "velocity": 80,
                "duration": 0.1,
                "tempo": 120.0
            },
            {
                "start_time": 15.8659091,
                "end_time": 15.9636364,
                "pitch": 67,
                "velocity": 80,
                "duration": 0.0977273,
                "tempo": 120.0
            },
            {
                "start_time": 15.9636364,
                "end_time": 16.0454545,
                "pitch": 55,
                "velocity": 80,
                "duration": 0.0818182,
                "tempo": 120.0
            }
        ]
    }
}