{
    "mood": "angry",
    "instruments": {
        "Church Organ": [
            {
                "start_time": 0.075,
                "end_time": 0.6545455,
                "pitch": 66,
                "velocity": 51,
                "duration": 0.5795455,
                "tempo": 120.0
            },
            {
                "start_time": 0.6704545,
                "end_time": 1.1954545,
                "pitch": 65,
                "velocity": 51,
                "duration": 0.525,
                "tempo": 120.0
            },
            {
                "start_time": 1.1954545,
                "end_time": 1.2545455,
                "pitch": 65,
                "velocity": 51,
                "duration": 0.0590909,
                "tempo": 120.0
            },
            {
                "start_time": 1.2704545,
                "end_time": 1.8545455,
                "pitch": 61,
                "velocity": 51,
                "duration": 0.5840909,
                "tempo": 120.0
            },
            {
                "start_time": 1.8727273,
                "end_time": 2.4568182,
                "pitch": 63,
                "velocity": 51,
                "duration": 0.5840909,
                "tempo": 120.0
            },
            {
                "start_time": 2.4727273,
                "end_time": 2.8590909,
                "pitch": 68,
                "velocity": 51,
                "duration": 0.3863636,
                "tempo": 120.0
            },
            {
                "start_time": 2.875,
                "end_time": 3.2590909,
                "pitch": 73,
                "velocity": 51,
                "duration": 0.3840909,
                "tempo": 120.0
            },
            {
                "start_time": 3.275,
                "end_time": 3.8590909,
                "pitch": 71,
                "velocity": 51,
                "duration": 0.5840909,
                "tempo": 120.0
            },
            {
                "start_time": 3.875,
                "end_time": 4.4590909,
                "pitch": 70,
                "velocity": 51,
                "duration": 0.5840909,
                "tempo": 120.0
            },
            {
                "start_time": 4.475,
                "end_time": 5.0613636,
                "pitch": 66,
                "velocity": 51,
                "duration": 0.5863636,
                "tempo": 120.0
            },
            {
                "start_time": 5.0772727,
                "end_time": 5.6636364,
                "pitch": 68,
                "velocity": 51,
                "duration": 0.5863636,
                "tempo": 120.0
            },
            {
                "start_time": 5.6818182,
                "end_time": 5.8659091,
                "pitch": 66,
                "velocity": 51,
                "duration": 0.1840909,
                "tempo": 120.0
            },
            {
                "start_time": 5.8818182,
                "end_time": 6.0659091,
                "pitch": 65,
                "velocity": 51,
                "duration": 0.1840909,
                "tempo": 120.0
            },
            {
                "start_time": 6.0840909,
                "end_time": 6.2659091,
                "pitch": 63,
                "velocity": 51,
                "duration": 0.1818182,
                "tempo": 120.0
            },
            {
                "start_time": 6.2840909,
                "end_time": 6.4681818,
                "pitch": 61,
                "velocity": 51,
                "duration": 0.1840909,
                "tempo": 120.0
            },
            {
                "start_time": 6.4840909,
                "end_time": 7.0704545,
                "pitch": 63,
                "velocity": 51,
                "duration": 0.5863636,
                "tempo": 120.0
            },
            {
                "start_time": 7.0863636,
                "end_time": 7.6727273,
                "pitch": 65,
                "velocity": 51,
                "duration": 0.5863636,
                "tempo": 120.0
            },
            {
                "start_time": 7.6886364,
                "end_time": 8.075,
                "pitch": 66,
                "velocity": 51,
                "duration": 0.3863636,
                "tempo": 120.0
            },
            {
                "start_time": 8.0909091,
                "end_time": 8.6772727,
                "pitch": 73,
                "velocity": 51,
                "duration": 0.5863636,
                "tempo": 120.0
            },
            {
                "start_time": 8.6931818,
                "end_time": 9.2795455,
                "pitch": 71,
                "velocity": 51,
                "duration": 0.5863636,
                "tempo": 120.0
            },
            {
                "start_time": 9.2977273,
                "end_time": 9.6840909,
                "pitch": 70,
                "velocity": 51,
                "duration": 0.3863636,
                "tempo": 120.0
            },
            {
                "start_time": 9.7,
                "end_time": 10.2840909,
                "pitch": 68,
                "velocity": 51,
                "duration": 0.5840909,
                "tempo": 120.0
            },
            {
                "start_time": 10.3022727,
                "end_time": 10.8886364,
                "pitch": 66,
                "velocity": 51,
                "duration": 0.5863636,
                "tempo": 120.0
            },
            {
                "start_time": 10.9045455,
                "end_time": 11.2909091,
                "pitch": 75,
                "velocity": 51,
                "duration": 0.3863636,
                "tempo": 120.0
            },
            {
                "start_time": 11.3090909,
                "end_time": 12.4977273,
                "pitch": 73,
                "velocity": 51,
                "duration": 1.1886364,
                "tempo": 120.0
            },
            {
                "start_time": 12.5136364,
                "end_time": 12.9,
                "pitch": 71,
                "velocity": 51,
                "duration": 0.3863636,
                "tempo": 120.0
            },
            {
                "start_time": 12.9159091,
                "end_time": 13.5045455,
                "pitch": 66,
                "velocity": 51,
                "duration": 0.5886364,
                "tempo": 120.0
            },
            {
                "start_time": 13.5204545,
                "end_time": 14.1045455,
                "pitch": 65,
                "velocity": 51,
                "duration": 0.5840909,
                "tempo": 120.0
            },
            {
                "start_time": 14.1204545,
                "end_time": 14.7090909,
                "pitch": 61,
                "velocity": 51,
                "duration": 0.5886364,
                "tempo": 120.0
            },
            {
                "start_time": 14.725,
                "end_time": 15.3136364,
                "pitch": 63,
                "velocity": 51,
                "duration": 0.5886364,
                "tempo": 120.0
            },
            {
                "start_time": 15.3295455,
                "end_time": 15.7159091,
                "pitch": 68,
                "velocity": 51,
                "duration": 0.3863636,
                "tempo": 120.0
            },
            {
                "start_time": 15.7318182,
                "end_time": 16.1159091,
                "pitch": 73,
                "velocity": 51,
                "duration": 0.3840909,
                "tempo": 120.0
            },
            {
                "start_time": 16.1318182,
                "end_time": 16.7181818,
                "pitch": 71,
                "velocity": 51,
                "duration": 0.5863636,
                "tempo": 120.0
            },
            {
                "start_time": 16.7340909,
                "end_time": 17.3181818,
                "pitch": 70,
                "velocity": 51,
                "duration": 0.5840909,
                "tempo": 120.0
            },
            {
                "start_time": 17.3340909,
                "end_time": 17.9204545,
                "pitch": 66,
                "velocity": 51,
                "duration": 0.5863636,
                "tempo": 120.0
            },
            {
                "start_time": 17.9363636,
                "end_time": 18.5227273,
                "pitch": 68,
                "velocity": 51,
                "duration": 0.5863636,
                "tempo": 120.0
            },
            {
                "start_time": 18.5409091,
                "end_time": 18.7227273,
                "pitch": 66,
                "velocity": 51,
                "duration": 0.1818182,
                "tempo": 120.0
            },
            {
                "start_time": 18.7409091,
                "end_time": 18.9227273,
                "pitch": 65,
                "velocity": 51,
                "duration": 0.1818182,
                "tempo": 120.0
            },
            {
                "start_time": 18.9409091,
                "end_time": 19.1227273,
                "pitch": 63,
                "velocity": 51,
                "duration": 0.1818182,
                "tempo": 120.0
            },
            {
                "start_time": 19.1409091,
                "end_time": 19.3227273,
                "pitch": 61,
                "velocity": 51,
                "duration": 0.1818182,
                "tempo": 120.0
            },
            {
                "start_time": 19.3409091,
                "end_time": 19.925,
                "pitch": 63,
                "velocity": 51,
                "duration": 0.5840909,
                "tempo": 120.0
            },
            {
                "start_time": 19.9431818,
                "end_time": 20.5295455,
                "pitch": 65,
                "velocity": 51,
                "duration": 0.5863636,
                "tempo": 120.0
            },
            {
                "start_time": 20.5454545,
                "end_time": 20.9295455,
                "pitch": 66,
                "velocity": 51,
                "duration": 0.3840909,
                "tempo": 120.0
            },
            {
                "start_time": 20.9454545,
                "end_time": 21.5295455,
                "pitch": 73,
                "velocity": 51,
                "duration": 0.5840909,
                "tempo": 120.0
            },
            {
                "start_time": 21.5477273,
                "end_time": 22.1318182,
                "pitch": 71,
                "velocity": 51,
                "duration": 0.5840909,
                "tempo": 120.0
            },
            {
                "start_time": 22.1477273,
                "end_time": 22.5340909,
                "pitch": 70,
                "velocity": 51,
                "duration": 0.3863636,
                "tempo": 120.0
            },
            {
                "start_time": 22.55,
                "end_time": 23.1340909,
                "pitch": 68,
                "velocity": 51,
                "duration": 0.5840909,
                "tempo": 120.0
            },
            {
                "start_time": 23.15,
                "end_time": 23.7363636,
                "pitch": 66,
                "velocity": 51,
                "duration": 0.5863636,
                "tempo": 120.0
            },
            {
                "start_time": 23.7522727,
                "end_time": 24.1363636,
                "pitch": 75,
                "velocity": 51,
                "duration": 0.3840909,
                "tempo": 120.0
            },
            {
                "start_time": 24.1545455,
                "end_time": 25.3386364,
                "pitch": 73,
                "velocity": 51,
                "duration": 1.1840909,
                "tempo": 120.0
            },
            {
                "start_time": 25.3568182,
                "end_time": 25.7409091,
                "pitch": 71,
                "velocity": 51,
                "duration": 0.3840909,
                "tempo": 120.0
            },
            {
                "start_time": 25.7590909,
                "end_time": 25.8409091,
                "pitch": 67,
                "velocity": 51,
                "duration": 0.0818182,
                "tempo": 120.0
            },
            {
                "start_time": 25.8590909,
                "end_time": 26.3431818,
                "pitch": 68,
                "velocity": 51,
                "duration": 0.4840909,
                "tempo": 120.0
            },
            {
                "start_time": 26.3613636,
                "end_time": 26.9454545,
                "pitch": 64,
                "velocity": 51,
                "duration": 0.5840909,
                "tempo": 120.0
            },
            {
                "start_time": 26.9613636,
                "end_time": 27.3431818,
                "pitch": 59,
                "velocity": 51,
                "duration": 0.3818182,
                "tempo": 120.0
            },
            {
                "start_time": 27.3590909,
                "end_time": 27.9431818,
                "pitch": 61,
                "velocity": 51,
                "duration": 0.5840909,
                "tempo": 120.0
            },
            {
                "start_time": 27.9613636,
                "end_time": 28.55,
                "pitch": 66,
                "velocity": 51,
                "duration": 0.5886364,
                "tempo": 120.0
            },
            {
                "start_time": 28.5659091,
                "end_time": 28.95,
                "pitch": 73,
                "velocity": 51,
                "duration": 0.3840909,
                "tempo": 120.0
            },
            {
                "start_time": 28.9659091,
                "end_time": 30.0522727,
                "pitch": 71,
                "velocity": 51,
                "duration": 1.0863636,
                "tempo": 120.0
            },
            {
                "start_time": 30.0704545,
                "end_time": 30.4545455,
                "pitch": 76,
                "velocity": 51,
                "duration": 0.3840909,
                "tempo": 120.0
            },
            {
                "start_time": 30.4727273,
                "end_time": 30.5568182,
                "pitch": 77,
                "velocity": 51,
                "duration": 0.0840909,
                "tempo": 120.0
            },
            {
                "start_time": 30.5727273,
                "end_time": 31.3568182,
                "pitch": 78,
                "velocity": 51,
                "duration": 0.7840909,
                "tempo": 120.0
            },
            {
                "start_time": 31.3727273,
                "end_time": 31.5568182,
                "pitch": 74,
                "velocity": 51,
                "duration": 0.1840909,
                "tempo": 120.0
            },
            {
                "start_time": 31.575,
                "end_time": 31.7590909,
                "pitch": 73,
                "velocity": 51,
                "duration": 0.1840909,
                "tempo": 120.0
            },
            {
                "start_time": 31.775,
                "end_time": 31.9590909,
                "pitch": 71,
                "velocity": 51,
                "duration": 0.1840909,
                "tempo": 120.0
            },
            {
                "start_time": 31.975,
                "end_time": 32.1590909,
                "pitch": 69,
                "velocity": 51,
                "duration": 0.1840909,
                "tempo": 120.0
            },
            {
                "start_time": 32.175,
                "end_time": 32.2590909,
                "pitch": 67,
                "velocity": 51,
                "duration": 0.0840909,
                "tempo": 120.0
            },
            {
                "start_time": 32.275,
                "end_time": 32.7590909,
                "pitch": 68,
                "velocity": 51,
                "duration": 0.4840909,
                "tempo": 120.0
            },
            {
                "start_time": 32.775,
                "end_time": 33.3613636,
                "pitch": 64,
                "velocity": 51,
                "duration": 0.5863636,
                "tempo": 120.0
            },
            {
                "start_time": 33.3772727,
                "end_time": 33.7590909,
                "pitch": 59,
                "velocity": 51,
                "duration": 0.3818182,
                "tempo": 120.0
            },
            {
                "start_time": 33.7772727,
                "end_time": 34.3590909,
                "pitch": 61,
                "velocity": 51,
                "duration": 0.5818182,
                "tempo": 120.0
            },
            {
                "start_time": 34.3772727,
                "end_time": 34.9636364,
                "pitch": 66,
                "velocity": 51,
                "duration": 0.5863636,
                "tempo": 120.0
            },
            {
                "start_time": 34.9818182,
                "end_time": 35.3659091,
                "pitch": 73,
                "velocity": 51,
                "duration": 0.3840909,
                "tempo": 120.0
            },
            {
                "start_time": 35.3840909,
                "end_time": 36.4659091,
                "pitch": 71,
                "velocity": 51,
                "duration": 1.0818182,
                "tempo": 120.0
            },
            {
                "start_time": 36.4840909,
                "end_time": 36.8659091,
                "pitch": 76,
                "velocity": 51,
                "duration": 0.3818182,
                "tempo": 120.0
            },
            {
                "start_time": 36.8840909,
                "end_time": 36.9659091,
                "pitch": 77,
                "velocity": 51,
                "duration": 0.0818182,
                "tempo": 120.0
            },
            {
                "start_time": 36.9840909,
                "end_time": 37.7704545,
                "pitch": 78,
                "velocity": 51,
                "duration": 0.7863636,
                "tempo": 120.0
            },
            {
                "start_time": 37.7863636,
                "end_time": 37.9704545,
                "pitch": 74,
                "velocity": 51,
                "duration": 0.1840909,
                "tempo": 120.0
            },
            {
                "start_time": 37.9863636,
                "end_time": 38.1704545,
                "pitch": 73,
                "velocity": 51,
                "duration": 0.1840909,
                "tempo": 120.0
            },
            {
                "start_time": 38.1863636,
                "end_time": 38.3704545,
                "pitch": 71,
                "velocity": 51,
                "duration": 0.1840909,
                "tempo": 120.0
            },
            {
                "start_time": 38.3863636,
                "end_time": 38.5704545,
                "pitch": 69,
                "velocity": 51,
                "duration": 0.1840909,
                "tempo": 120.0
            },
            {
                "start_time": 38.5863636,
                "end_time": 39.5727273,
                "pitch": 64,
                "velocity": 51,
                "duration": 0.9863636,
                "tempo": 120.0
            },
            {
                "start_time": 39.5886364,
                "end_time": 39.7727273,
                "pitch": 62,
                "velocity": 51,
                "duration": 0.1840909,
                "tempo": 120.0
            },
            {
                "start_time": 39.7886364,
                "end_time": 39.9727273,
                "pitch": 69,
                "velocity": 51,
                "duration": 0.1840909,
                "tempo": 120.0
            },
            {
                "start_time": 39.9886364,
                "end_time": 40.7727273,
                "pitch": 62,
                "velocity": 51,
                "duration": 0.7840909,
                "tempo": 120.0
            },
            {
                "start_time": 40.7886364,
                "end_time": 41.375,
                "pitch": 60,
                "velocity": 51,
                "duration": 0.5863636,
                "tempo": 120.0
            },
            {
                "start_time": 41.3909091,
                "end_time": 41.675,
                "pitch": 59,
                "velocity": 51,
                "duration": 0.2840909,
                "tempo": 120.0
            },
            {
                "start_time": 41.6909091,
                "end_time": 41.775,
                "pitch": 58,
                "velocity": 51,
                "duration": 0.0840909,
                "tempo": 120.0
            },
            {
                "start_time": 41.7909091,
                "end_time": 42.375,
                "pitch": 57,
                "velocity": 51,
                "duration": 0.5840909,
                "tempo": 120.0
            },
            {
                "start_time": 42.3909091,
                "end_time": 42.975,
                "pitch": 62,
                "velocity": 51,
                "duration": 0.5840909,
                "tempo": 120.0
            },
            {
                "start_time": 42.9909091,
                "end_time": 43.3772727,
                "pitch": 65,
                "velocity": 51,
                "duration": 0.3863636,
                "tempo": 120.0
            },
            {
                "start_time": 43.3931818,
                "end_time": 44.9772727,
                "pitch": 69,
                "velocity": 51,
                "duration": 1.5840909,
                "tempo": 120.0
            },
            {
                "start_time": 44.9954545,
                "end_time": 46.3795455,
                "pitch": 62,
                "velocity": 51,
                "duration": 1.3840909,
                "tempo": 120.0
            },
            {
                "start_time": 46.3977273,
                "end_time": 46.5795455,
                "pitch": 69,
                "velocity": 51,
                "duration": 0.1818182,
                "tempo": 120.0
            },
            {
                "start_time": 46.5977273,
                "end_time": 47.1818182,
                "pitch": 62,
                "velocity": 51,
                "duration": 0.5840909,
                "tempo": 120.0
            },
            {
                "start_time": 47.1977273,
                "end_time": 47.7818182,
                "pitch": 64,
                "velocity": 51,
                "duration": 0.5840909,
                "tempo": 120.0
            },
            {
                "start_time": 47.8,
                "end_time": 47.9818182,
                "pitch": 67,
                "velocity": 51,
                "duration": 0.1818182,
                "tempo": 120.0
            },
            {
                "start_time": 48.0,
                "end_time": 48.1818182,
                "pitch": 69,
                "velocity": 51,
                "duration": 0.1818182,
                "tempo": 120.0
            },
            {
                "start_time": 48.2,
                "end_time": 48.3818182,
                "pitch": 71,
                "velocity": 51,
                "duration": 0.1818182,
                "tempo": 120.0
            },
            {
                "start_time": 48.4,
                "end_time": 48.5818182,
                "pitch": 72,
                "velocity": 51,
                "duration": 0.1818182,
                "tempo": 120.0
            },
            {
                "start_time": 48.8,
                "end_time": 49.1840909,
                "pitch": 71,
                "velocity": 51,
                "duration": 0.3840909,
                "tempo": 120.0
            },
            {
                "start_time": 49.2022727,
                "end_time": 49.5863636,
                "pitch": 72,
                "velocity": 51,
                "duration": 0.3840909,
                "tempo": 120.0
            },
            {
                "start_time": 49.6022727,
                "end_time": 49.7863636,
                "pitch": 74,
                "velocity": 51,
                "duration": 0.1840909,
                "tempo": 120.0
            },
            {
                "start_time": 49.8022727,
                "end_time": 49.8863636,
                "pitch": 74,
                "velocity": 51,
                "duration": 0.0840909,
                "tempo": 120.0
            },
            {
                "start_time": 49.9022727,
                "end_time": 49.9863636,
                "pitch": 75,
                "velocity": 51,
                "duration": 0.0840909,
                "tempo": 120.0
            },
            {
                "start_time": 50.0022727,
                "end_time": 51.3886364,
                "pitch": 76,
                "velocity": 51,
                "duration": 1.3863636,
                "tempo": 120.0
            },
            {
                "start_time": 51.4045455,
                "end_time": 51.9886364,
                "pitch": 66,
                "velocity": 51,
                "duration": 0.5840909,
                "tempo": 120.0
            },
            {
                "start_time": 52.0045455,
                "end_time": 52.5340909,
                "pitch": 65,
                "velocity": 51,
                "duration": 0.5295455,
                "tempo": 120.0
            }
        ],
        "Acoustic Bass": [
            {
                "start_time": 0.0409091,
                "end_time": 0.225,
                "pitch": 32,
                "velocity": 64,
                "duration": 0.1840909,
                "tempo": 120.0
            },
            {
                "start_time": 0.2409091,
                "end_time": 0.425,
                "pitch": 32,
                "velocity": 64,
                "duration": 0.1840909,
                "tempo": 120.0
            },
            {
                "start_time": 0.4409091,
                "end_time": 0.6204545,
                "pitch": 32,
                "velocity": 64,
                "duration": 0.1795455,
                "tempo": 120.0
            },
            {
                "start_time": 0.6363636,
                "end_time": 0.8181818,
                "pitch": 32,
                "velocity": 64,
                "duration": 0.1818182,
                "tempo": 120.0
            },
            {
                "start_time": 0.8340909,
                "end_time": 1.0181818,
                "pitch": 32,
                "velocity": 64,
                "duration": 0.1840909,
                "tempo": 120.0
            },
            {
                "start_time": 1.0363636,
                "end_time": 1.1954545,
                "pitch": 32,
                "velocity": 64,
                "duration": 0.1590909,
                "tempo": 120.0
            },
            {
                "start_time": 1.1954545,
                "end_time": 1.2204545,
                "pitch": 32,
                "velocity": 64,
                "duration": 0.025,
                "tempo": 120.0
            },
            {
                "start_time": 1.2363636,
                "end_time": 1.4204545,
                "pitch": 32,
                "velocity": 64,
                "duration": 0.1840909,
                "tempo": 120.0
            },
            {
                "start_time": 1.4363636,
                "end_time": 1.6204545,
                "pitch": 32,
                "velocity": 64,
                "duration": 0.1840909,
                "tempo": 120.0
            },
            {
                "start_time": 1.6363636,
                "end_time": 1.8204545,
                "pitch": 33,
                "velocity": 64,
                "duration": 0.1840909,
                "tempo": 120.0
            },
            {
                "start_time": 1.8386364,
                "end_time": 2.0227273,
                "pitch": 33,
                "velocity": 64,
                "duration": 0.1840909,
                "tempo": 120.0
            },
            {
                "start_time": 2.0386364,
                "end_time": 2.2227273,
                "pitch": 33,
                "velocity": 64,
                "duration": 0.1840909,
                "tempo": 120.0
            },
            {
                "start_time": 2.2386364,
                "end_time": 2.4227273,
                "pitch": 33,
                "velocity": 64,
                "duration": 0.1840909,
                "tempo": 120.0
            },
            {
                "start_time": 2.4386364,
                "end_time": 2.625,
                "pitch": 33,
                "velocity": 64,
                "duration": 0.1863636,
                "tempo": 120.0
            },
            {
                "start_time": 2.6409091,
                "end_time": 2.825,
                "pitch": 33,
                "velocity": 64,
                "duration": 0.1840909,
                "tempo": 120.0
            },
            {
                "start_time": 2.8431818,
                "end_time": 3.025,
                "pitch": 33,
                "velocity": 64,
                "duration": 0.1818182,
                "tempo": 120.0
            },
            {
                "start_time": 3.0431818,
                "end_time": 3.225,
                "pitch": 33,
                "velocity": 64,
                "duration": 0.1818182,
                "tempo": 120.0
            },
            {
                "start_time": 3.2431818,
                "end_time": 3.425,
                "pitch": 35,
                "velocity": 64,
                "duration": 0.1818182,
                "tempo": 120.0
            },
            {
                "start_time": 3.4431818,
                "end_time": 3.625,
                "pitch": 35,
                "velocity": 64,
                "duration": 0.1818182,
                "tempo": 120.0
            },
            {
                "start_time": 3.6431818,
                "end_time": 3.825,
                "pitch": 35,
                "velocity": 64,
                "duration": 0.1818182,
                "tempo": 120.0
            },
            {
                "start_time": 3.8431818,
                "end_time": 4.025,
                "pitch": 35,
                "velocity": 64,
                "duration": 0.1818182,
                "tempo": 120.0
            },
            {
                "start_time": 4.0431818,
                "end_time": 4.225,
                "pitch": 35,
                "velocity": 64,
                "duration": 0.1818182,
                "tempo": 120.0
            },
            {
                "start_time": 4.2431818,
                "end_time": 4.425,
                "pitch": 35,
                "velocity": 64,
                "duration": 0.1818182,
                "tempo": 120.0
            },
            {
                "start_time": 4.4431818,
                "end_time": 4.6272727,
                "pitch": 35,
                "velocity": 64,
                "duration": 0.1840909,
                "tempo": 120.0
            },
            {
                "start_time": 4.6431818,
                "end_time": 4.8272727,
                "pitch": 35,
                "velocity": 64,
                "duration": 0.1840909,
                "tempo": 120.0
            },
            {
                "start_time": 4.8454545,
                "end_time": 5.0272727,
                "pitch": 37,
                "velocity": 64,
                "duration": 0.1818182,
                "tempo": 120.0
            },
            {
                "start_time": 5.0454545,
                "end_time": 5.2272727,
                "pitch": 37,
                "velocity": 64,
                "duration": 0.1818182,
                "tempo": 120.0
            },
            {
                "start_time": 5.2454545,
                "end_time": 5.4295455,
                "pitch": 37,
                "velocity": 64,
                "duration": 0.1840909,
                "tempo": 120.0
            },
            {
                "start_time": 5.4454545,
                "end_time": 5.6318182,
                "pitch": 37,
                "velocity": 64,
                "duration": 0.1863636,
                "tempo": 120.0
            },
            {
                "start_time": 5.6477273,
                "end_time": 5.8318182,
                "pitch": 37,
                "velocity": 64,
                "duration": 0.1840909,
                "tempo": 120.0
            },
            {
                "start_time": 5.85,
                "end_time": 6.0340909,
                "pitch": 37,
                "velocity": 64,
                "duration": 0.1840909,
                "tempo": 120.0
            },
            {
                "start_time": 6.05,
                "end_time": 6.2340909,
                "pitch": 37,
                "velocity": 64,
                "duration": 0.1840909,
                "tempo": 120.0
            },
            {
                "start_time": 6.25,
                "end_time": 6.4340909,
                "pitch": 37,
                "velocity": 64,
                "duration": 0.1840909,
                "tempo": 120.0
            },
            {
                "start_time": 6.45,
                "end_time": 6.6340909,
                "pitch": 32,
                "velocity": 64,
                "duration": 0.1840909,
                "tempo": 120.0
            },
            {
                "start_time": 6.6522727,
                "end_time": 6.8363636,
                "pitch": 32,
                "velocity": 64,
                "duration": 0.1840909,
                "tempo": 120.0
            },
            {
                "start_time": 6.8522727,
                "end_time": 7.0363636,
                "pitch": 32,
                "velocity": 64,
                "duration": 0.1840909,
                "tempo": 120.0
            },
            {
                "start_time": 7.0522727,
                "end_time": 7.2363636,
                "pitch": 32,
                "velocity": 64,
                "duration": 0.1840909,
                "tempo": 120.0
            },
            {
                "start_time": 7.2522727,
                "end_time": 7.4386364,
                "pitch": 32,
                "velocity": 64,
                "duration": 0.1863636,
                "tempo": 120.0
            },
            {
                "start_time": 7.4545455,
                "end_time": 7.6386364,
                "pitch": 32,
                "velocity": 64,
                "duration": 0.1840909,
                "tempo": 120.0
            },
            {
                "start_time": 7.6568182,
                "end_time": 7.8409091,
                "pitch": 32,
                "velocity": 64,
                "duration": 0.1840909,
                "tempo": 120.0
            },
            {
                "start_time": 7.8568182,
                "end_time": 8.0409091,
                "pitch": 32,
                "velocity": 64,
                "duration": 0.1840909,
                "tempo": 120.0
            },
            {
                "start_time": 8.0590909,
                "end_time": 8.2409091,
                "pitch": 33,
                "velocity": 64,
                "duration": 0.1818182,
                "tempo": 120.0
            },
            {
                "start_time": 8.2590909,
                "end_time": 8.4409091,
                "pitch": 33,
                "velocity": 64,
                "duration": 0.1818182,
                "tempo": 120.0
            },
            {
                "start_time": 8.4590909,
                "end_time": 8.6431818,
                "pitch": 33,
                "velocity": 64,
                "duration": 0.1840909,
                "tempo": 120.0
            },
            {
                "start_time": 8.6590909,
                "end_time": 8.8454545,
                "pitch": 33,
                "velocity": 64,
                "duration": 0.1863636,
                "tempo": 120.0
            },
            {
                "start_time": 8.8613636,
                "end_time": 9.0454545,
                "pitch": 33,
                "velocity": 64,
                "duration": 0.1840909,
                "tempo": 120.0
            },
            {
                "start_time": 9.0613636,
                "end_time": 9.2477273,
                "pitch": 33,
                "velocity": 64,
                "duration": 0.1863636,
                "tempo": 120.0
            },
            {
                "start_time": 9.2636364,
                "end_time": 9.4477273,
                "pitch": 33,
                "velocity": 64,
                "duration": 0.1840909,
                "tempo": 120.0
            },
            {
                "start_time": 9.4659091,
                "end_time": 9.65,
                "pitch": 33,
                "velocity": 64,
                "duration": 0.1840909,
                "tempo": 120.0
            },
            {
                "start_time": 9.6659091,
                "end_time": 9.85,
                "pitch": 35,
                "velocity": 64,
                "duration": 0.1840909,
                "tempo": 120.0
            },
            {
                "start_time": 9.8659091,
                "end_time": 10.05,
                "pitch": 35,
                "velocity": 64,
                "duration": 0.1840909,
                "tempo": 120.0
            },
            {
                "start_time": 10.0659091,
                "end_time": 10.25,
                "pitch": 35,
                "velocity": 64,
                "duration": 0.1840909,
                "tempo": 120.0
            },
            {
                "start_time": 10.2681818,
                "end_time": 10.4522727,
                "pitch": 35,
                "velocity": 64,
                "duration": 0.1840909,
                "tempo": 120.0
            },
            {
                "start_time": 10.4681818,
                "end_time": 10.6545455,
                "pitch": 35,
                "velocity": 64,
                "duration": 0.1863636,
                "tempo": 120.0
            },
            {
                "start_time": 10.6704545,
                "end_time": 10.8545455,
                "pitch": 35,
                "velocity": 64,
                "duration": 0.1840909,
                "tempo": 120.0
            },
            {
                "start_time": 10.8727273,
                "end_time": 11.0568182,
                "pitch": 35,
                "velocity": 64,
                "duration": 0.1840909,
                "tempo": 120.0
            },
            {
                "start_time": 11.0727273,
                "end_time": 11.2568182,
                "pitch": 35,
                "velocity": 64,
                "duration": 0.1840909,
                "tempo": 120.0
            },
            {
                "start_time": 11.275,
                "end_time": 11.4590909,
                "pitch": 37,
                "velocity": 64,
                "duration": 0.1840909,
                "tempo": 120.0
            },
            {
                "start_time": 11.475,
                "end_time": 11.6613636,
                "pitch": 37,
                "velocity": 64,
                "duration": 0.1863636,
                "tempo": 120.0
            },
            {
                "start_time": 11.6772727,
                "end_time": 11.8613636,
                "pitch": 37,
                "velocity": 64,
                "duration": 0.1840909,
                "tempo": 120.0
            },
            {
                "start_time": 11.8772727,
                "end_time": 12.0613636,
                "pitch": 37,
                "velocity": 64,
                "duration": 0.1840909,
                "tempo": 120.0
            },
            {
                "start_time": 12.0772727,
                "end_time": 12.2613636,
                "pitch": 37,
                "velocity": 64,
                "duration": 0.1840909,
                "tempo": 120.0
            },
            {
                "start_time": 12.2795455,
                "end_time": 12.4636364,
                "pitch": 37,
                "velocity": 64,
                "duration": 0.1840909,
                "tempo": 120.0
            },
            {
                "start_time": 12.4795455,
                "end_time": 12.6636364,
                "pitch": 37,
                "velocity": 64,
                "duration": 0.1840909,
                "tempo": 120.0
            },
            {
                "start_time": 12.6818182,
                "end_time": 12.8659091,
                "pitch": 37,
                "velocity": 64,
                "duration": 0.1840909,
                "tempo": 120.0
            },
            {
                "start_time": 12.8818182,
                "end_time": 13.0681818,
                "pitch": 32,
                "velocity": 64,
                "duration": 0.1863636,
                "tempo": 120.0
            },
            {
                "start_time": 13.0840909,
                "end_time": 13.2681818,
                "pitch": 32,
                "velocity": 64,
                "duration": 0.1840909,
                "tempo": 120.0
            },
            {
                "start_time": 13.2863636,
                "end_time": 13.4704545,
                "pitch": 32,
                "velocity": 64,
                "duration": 0.1840909,
                "tempo": 120.0
            },
            {
                "start_time": 13.4863636,
                "end_time": 13.6704545,
                "pitch": 32,
                "velocity": 64,
                "duration": 0.1840909,
                "tempo": 120.0
            },
            {
                "start_time": 13.6886364,
                "end_time": 13.8704545,
                "pitch": 32,
                "velocity": 64,
                "duration": 0.1818182,
                "tempo": 120.0
            },
            {
                "start_time": 13.8886364,
                "end_time": 14.0704545,
                "pitch": 32,
                "velocity": 64,
                "duration": 0.1818182,
                "tempo": 120.0
            },
            {
                "start_time": 14.0886364,
                "end_time": 14.2727273,
                "pitch": 32,
                "velocity": 64,
                "duration": 0.1840909,
                "tempo": 120.0
            },
            {
                "start_time": 14.2886364,
                "end_time": 14.475,
                "pitch": 32,
                "velocity": 64,
                "duration": 0.1863636,
                "tempo": 120.0
            },
            {
                "start_time": 14.4909091,
                "end_time": 14.675,
                "pitch": 33,
                "velocity": 64,
                "duration": 0.1840909,
                "tempo": 120.0
            },
            {
                "start_time": 14.6909091,
                "end_time": 14.8772727,
                "pitch": 33,
                "velocity": 64,
                "duration": 0.1863636,
                "tempo": 120.0
            },
            {
                "start_time": 14.8931818,
                "end_time": 15.0772727,
                "pitch": 33,
                "velocity": 64,
                "duration": 0.1840909,
                "tempo": 120.0
            },
            {
                "start_time": 15.0954545,
                "end_time": 15.2795455,
                "pitch": 33,
                "velocity": 64,
                "duration": 0.1840909,
                "tempo": 120.0
            },
            {
                "start_time": 15.2954545,
                "end_time": 15.4795455,
                "pitch": 33,
                "velocity": 64,
                "duration": 0.1840909,
                "tempo": 120.0
            },
            {
                "start_time": 15.4977273,
                "end_time": 15.6818182,
                "pitch": 33,
                "velocity": 64,
                "duration": 0.1840909,
                "tempo": 120.0
            },
            {
                "start_time": 15.6977273,
                "end_time": 15.8818182,
                "pitch": 33,
                "velocity": 64,
                "duration": 0.1840909,
                "tempo": 120.0
            },
            {
                "start_time": 15.8977273,
                "end_time": 16.0818182,
                "pitch": 33,
                "velocity": 64,
                "duration": 0.1840909,
                "tempo": 120.0
            },
            {
                "start_time": 16.0977273,
                "end_time": 16.2840909,
                "pitch": 35,
                "velocity": 64,
                "duration": 0.1863636,
                "tempo": 120.0
            },
            {
                "start_time": 16.3,
                "end_time": 16.4840909,
                "pitch": 35,
                "velocity": 64,
                "duration": 0.1840909,
                "tempo": 120.0
            },
            {
                "start_time": 16.5022727,
                "end_time": 16.6840909,
                "pitch": 35,
                "velocity": 64,
                "duration": 0.1818182,
                "tempo": 120.0
            },
            {
                "start_time": 16.7022727,
                "end_time": 16.8840909,
                "pitch": 35,
                "velocity": 64,
                "duration": 0.1818182,
                "tempo": 120.0
            },
            {
                "start_time": 16.9022727,
                "end_time": 17.0840909,
                "pitch": 35,
                "velocity": 64,
                "duration": 0.1818182,
                "tempo": 120.0
            },
            {
                "start_time": 17.1022727,
                "end_time": 17.2840909,
                "pitch": 35,
                "velocity": 64,
                "duration": 0.1818182,
                "tempo": 120.0
            },
            {
                "start_time": 17.3022727,
                "end_time": 17.4863636,
                "pitch": 35,
                "velocity": 64,
                "duration": 0.1840909,
                "tempo": 120.0
            },
            {
                "start_time": 17.5022727,
                "end_time": 17.6863636,
                "pitch": 35,
                "velocity": 64,
                "duration": 0.1840909,
                "tempo": 120.0
            },
            {
                "start_time": 17.7045455,
                "end_time": 17.8863636,
                "pitch": 37,
                "velocity": 64,
                "duration": 0.1818182,
                "tempo": 120.0
            },
            {
                "start_time": 17.9045455,
                "end_time": 18.0863636,
                "pitch": 37,
                "velocity": 64,
                "duration": 0.1818182,
                "tempo": 120.0
            },
            {
                "start_time": 18.1045455,
                "end_time": 18.2886364,
                "pitch": 37,
                "velocity": 64,
                "duration": 0.1840909,
                "tempo": 120.0
            },
            {
                "start_time": 18.3045455,
                "end_time": 18.4909091,
                "pitch": 37,
                "velocity": 64,
                "duration": 0.1863636,
                "tempo": 120.0
            },
            {
                "start_time": 18.5068182,
                "end_time": 18.6909091,
                "pitch": 37,
                "velocity": 64,
                "duration": 0.1840909,
                "tempo": 120.0
            },
            {
                "start_time": 18.7068182,
                "end_time": 18.8909091,
                "pitch": 37,
                "velocity": 64,
                "duration": 0.1840909,
                "tempo": 120.0
            },
            {
                "start_time": 18.9068182,
                "end_time": 19.0909091,
                "pitch": 37,
                "velocity": 64,
                "duration": 0.1840909,
                "tempo": 120.0
            },
            {
                "start_time": 19.1068182,
                "end_time": 19.2909091,
                "pitch": 37,
                "velocity": 64,
                "duration": 0.1840909,
                "tempo": 120.0
            },
            {
                "start_time": 19.3068182,
                "end_time": 19.4909091,
                "pitch": 32,
                "velocity": 64,
                "duration": 0.1840909,
                "tempo": 120.0
            },
            {
                "start_time": 19.5090909,
                "end_time": 19.6931818,
                "pitch": 32,
                "velocity": 64,
                "duration": 0.1840909,
                "tempo": 120.0
            },
            {
                "start_time": 19.7090909,
                "end_time": 19.8931818,
                "pitch": 32,
                "velocity": 64,
                "duration": 0.1840909,
                "tempo": 120.0
            },
            {
                "start_time": 19.9090909,
                "end_time": 20.0931818,
                "pitch": 32,
                "velocity": 64,
                "duration": 0.1840909,
                "tempo": 120.0
            },
            {
                "start_time": 20.1090909,
                "end_time": 20.2931818,
                "pitch": 32,
                "velocity": 64,
                "duration": 0.1840909,
                "tempo": 120.0
            },
            {
                "start_time": 20.3113636,
                "end_time": 20.4954545,
                "pitch": 32,
                "velocity": 64,
                "duration": 0.1840909,
                "tempo": 120.0
            },
            {
                "start_time": 20.5113636,
                "end_time": 20.6954545,
                "pitch": 32,
                "velocity": 64,
                "duration": 0.1840909,
                "tempo": 120.0
            },
            {
                "start_time": 20.7113636,
                "end_time": 20.8954545,
                "pitch": 32,
                "velocity": 64,
                "duration": 0.1840909,
                "tempo": 120.0
            },
            {
                "start_time": 20.9113636,
                "end_time": 21.0954545,
                "pitch": 33,
                "velocity": 64,
                "duration": 0.1840909,
                "tempo": 120.0
            },
            {
                "start_time": 21.1113636,
                "end_time": 21.2954545,
                "pitch": 33,
                "velocity": 64,
                "duration": 0.1840909,
                "tempo": 120.0
            },
            {
                "start_time": 21.3113636,
                "end_time": 21.4977273,
                "pitch": 33,
                "velocity": 64,
                "duration": 0.1863636,
                "tempo": 120.0
            },
            {
                "start_time": 21.5136364,
                "end_time": 21.6977273,
                "pitch": 33,
                "velocity": 64,
                "duration": 0.1840909,
                "tempo": 120.0
            },
            {
                "start_time": 21.7136364,
                "end_time": 21.8977273,
                "pitch": 33,
                "velocity": 64,
                "duration": 0.1840909,
                "tempo": 120.0
            },
            {
                "start_time": 21.9136364,
                "end_time": 22.0977273,
                "pitch": 33,
                "velocity": 64,
                "duration": 0.1840909,
                "tempo": 120.0
            },
            {
                "start_time": 22.1159091,
                "end_time": 22.3,
                "pitch": 33,
                "velocity": 64,
                "duration": 0.1840909,
                "tempo": 120.0
            },
            {
                "start_time": 22.3159091,
                "end_time": 22.5,
                "pitch": 33,
                "velocity": 64,
                "duration": 0.1840909,
                "tempo": 120.0
            },
            {
                "start_time": 22.5181818,
                "end_time": 22.7,
                "pitch": 35,
                "velocity": 64,
                "duration": 0.1818182,
                "tempo": 120.0
            },
            {
                "start_time": 22.7181818,
                "end_time": 22.9,
                "pitch": 35,
                "velocity": 64,
                "duration": 0.1818182,
                "tempo": 120.0
            },
            {
                "start_time": 22.9181818,
                "end_time": 23.1,
                "pitch": 35,
                "velocity": 64,
                "duration": 0.1818182,
                "tempo": 120.0
            },
            {
                "start_time": 23.1181818,
                "end_time": 23.3,
                "pitch": 35,
                "velocity": 64,
                "duration": 0.1818182,
                "tempo": 120.0
            },
            {
                "start_time": 23.3181818,
                "end_time": 23.5022727,
                "pitch": 35,
                "velocity": 64,
                "duration": 0.1840909,
                "tempo": 120.0
            },
            {
                "start_time": 23.5181818,
                "end_time": 23.7022727,
                "pitch": 35,
                "velocity": 64,
                "duration": 0.1840909,
                "tempo": 120.0
            },
            {
                "start_time": 23.7204545,
                "end_time": 23.9022727,
                "pitch": 35,
                "velocity": 64,
                "duration": 0.1818182,
                "tempo": 120.0
            },
            {
                "start_time": 23.9204545,
                "end_time": 24.1045455,
                "pitch": 35,
                "velocity": 64,
                "duration": 0.1840909,
                "tempo": 120.0
            },
            {
                "start_time": 24.1204545,
                "end_time": 24.3045455,
                "pitch": 37,
                "velocity": 64,
                "duration": 0.1840909,
                "tempo": 120.0
            },
            {
                "start_time": 24.3204545,
                "end_time": 24.5068182,
                "pitch": 37,
                "velocity": 64,
                "duration": 0.1863636,
                "tempo": 120.0
            },
            {
                "start_time": 24.5227273,
                "end_time": 24.7068182,
                "pitch": 37,
                "velocity": 64,
                "duration": 0.1840909,
                "tempo": 120.0
            },
            {
                "start_time": 24.7227273,
                "end_time": 24.9068182,
                "pitch": 37,
                "velocity": 64,
                "duration": 0.1840909,
                "tempo": 120.0
            },
            {
                "start_time": 24.9227273,
                "end_time": 25.1068182,
                "pitch": 37,
                "velocity": 64,
                "duration": 0.1840909,
                "tempo": 120.0
            },
            {
                "start_time": 25.1227273,
                "end_time": 25.3068182,
                "pitch": 37,
                "velocity": 64,
                "duration": 0.1840909,
                "tempo": 120.0
            },
            {
                "start_time": 25.3227273,
                "end_time": 25.5068182,
                "pitch": 37,
                "velocity": 64,
                "duration": 0.1840909,
                "tempo": 120.0
            },
            {
                "start_time": 25.525,
                "end_time": 25.7090909,
                "pitch": 37,
                "velocity": 64,
                "duration": 0.1840909,
                "tempo": 120.0
            },
            {
                "start_time": 25.725,
                "end_time": 25.9090909,
                "pitch": 28,
                "velocity": 64,
                "duration": 0.1840909,
                "tempo": 120.0
            },
            {
                "start_time": 25.925,
                "end_time": 26.1090909,
                "pitch": 31,
                "velocity": 64,
                "duration": 0.1840909,
                "tempo": 120.0
            },
            {
                "start_time": 26.125,
                "end_time": 26.3090909,
                "pitch": 45,
                "velocity": 64,
                "duration": 0.1840909,
                "tempo": 120.0
            },
            {
                "start_time": 26.3272727,
                "end_time": 26.7113636,
                "pitch": 28,
                "velocity": 64,
                "duration": 0.3840909,
                "tempo": 120.0
            },
            {
                "start_time": 26.7272727,
                "end_time": 26.9113636,
                "pitch": 31,
                "velocity": 64,
                "duration": 0.1840909,
                "tempo": 120.0
            },
            {
                "start_time": 26.9272727,
                "end_time": 27.3113636,
                "pitch": 45,
                "velocity": 64,
                "duration": 0.3840909,
                "tempo": 120.0
            },
            {
                "start_time": 27.3272727,
                "end_time": 27.5068182,
                "pitch": 30,
                "velocity": 64,
                "duration": 0.1795455,
                "tempo": 120.0
            },
            {
                "start_time": 27.5227273,
                "end_time": 27.7045455,
                "pitch": 30,
                "velocity": 64,
                "duration": 0.1818182,
                "tempo": 120.0
            },
            {
                "start_time": 27.7204545,
                "end_time": 27.9090909,
                "pitch": 45,
                "velocity": 64,
                "duration": 0.1886364,
                "tempo": 120.0
            },
            {
                "start_time": 27.9272727,
                "end_time": 28.3159091,
                "pitch": 30,
                "velocity": 64,
                "duration": 0.3886364,
                "tempo": 120.0
            },
            {
                "start_time": 28.3318182,
                "end_time": 28.7159091,
                "pitch": 30,
                "velocity": 64,
                "duration": 0.3840909,
                "tempo": 120.0
            },
            {
                "start_time": 28.7340909,
                "end_time": 28.9159091,
                "pitch": 45,
                "velocity": 64,
                "duration": 0.1818182,
                "tempo": 120.0
            },
            {
                "start_time": 28.9340909,
                "end_time": 29.3181818,
                "pitch": 31,
                "velocity": 64,
                "duration": 0.3840909,
                "tempo": 120.0
            },
            {
                "start_time": 29.3340909,
                "end_time": 29.5181818,
                "pitch": 45,
                "velocity": 64,
                "duration": 0.1840909,
                "tempo": 120.0
            },
            {
                "start_time": 29.5340909,
                "end_time": 29.9204545,
                "pitch": 31,
                "velocity": 64,
                "duration": 0.3863636,
                "tempo": 120.0
            },
            {
                "start_time": 29.9363636,
                "end_time": 30.1204545,
                "pitch": 31,
                "velocity": 64,
                "duration": 0.1840909,
                "tempo": 120.0
            },
            {
                "start_time": 30.1363636,
                "end_time": 30.3204545,
                "pitch": 45,
                "velocity": 64,
                "duration": 0.1840909,
                "tempo": 120.0
            },
            {
                "start_time": 30.3386364,
                "end_time": 30.4227273,
                "pitch": 31,
                "velocity": 64,
                "duration": 0.0840909,
                "tempo": 120.0
            },
            {
                "start_time": 30.4386364,
                "end_time": 30.5227273,
                "pitch": 34,
                "velocity": 64,
                "duration": 0.0840909,
                "tempo": 120.0
            },
            {
                "start_time": 30.5386364,
                "end_time": 30.9227273,
                "pitch": 33,
                "velocity": 64,
                "duration": 0.3840909,
                "tempo": 120.0
            },
            {
                "start_time": 30.9386364,
                "end_time": 31.1227273,
                "pitch": 45,
                "velocity": 64,
                "duration": 0.1840909,
                "tempo": 120.0
            },
            {
                "start_time": 31.1386364,
                "end_time": 31.5227273,
                "pitch": 33,
                "velocity": 64,
                "duration": 0.3840909,
                "tempo": 120.0
            },
            {
                "start_time": 31.5409091,
                "end_time": 31.725,
                "pitch": 33,
                "velocity": 64,
                "duration": 0.1840909,
                "tempo": 120.0
            },
            {
                "start_time": 31.7409091,
                "end_time": 31.925,
                "pitch": 45,
                "velocity": 64,
                "duration": 0.1840909,
                "tempo": 120.0
            },
            {
                "start_time": 31.9409091,
                "end_time": 32.125,
                "pitch": 31,
                "velocity": 64,
                "duration": 0.1840909,
                "tempo": 120.0
            },
            {
                "start_time": 32.1409091,
                "end_time": 32.325,
                "pitch": 28,
                "velocity": 64,
                "duration": 0.1840909,
                "tempo": 120.0
            },
            {
                "start_time": 32.3409091,
                "end_time": 32.525,
                "pitch": 31,
                "velocity": 64,
                "duration": 0.1840909,
                "tempo": 120.0
            },
            {
                "start_time": 32.5409091,
                "end_time": 32.725,
                "pitch": 45,
                "velocity": 64,
                "duration": 0.1840909,
                "tempo": 120.0
            },
            {
                "start_time": 32.7409091,
                "end_time": 33.1272727,
                "pitch": 28,
                "velocity": 64,
                "duration": 0.3863636,
                "tempo": 120.0
            },
            {
                "start_time": 33.1431818,
                "end_time": 33.3272727,
                "pitch": 31,
                "velocity": 64,
                "duration": 0.1840909,
                "tempo": 120.0
            },
            {
                "start_time": 33.3454545,
                "end_time": 33.7272727,
                "pitch": 45,
                "velocity": 64,
                "duration": 0.3818182,
                "tempo": 120.0
            },
            {
                "start_time": 33.7431818,
                "end_time": 33.9227273,
                "pitch": 30,
                "velocity": 64,
                "duration": 0.1795455,
                "tempo": 120.0
            },
            {
                "start_time": 33.9386364,
                "end_time": 34.1204545,
                "pitch": 30,
                "velocity": 64,
                "duration": 0.1818182,
                "tempo": 120.0
            },
            {
                "start_time": 34.1363636,
                "end_time": 34.325,
                "pitch": 45,
                "velocity": 64,
                "duration": 0.1886364,
                "tempo": 120.0
            },
            {
                "start_time": 34.3431818,
                "end_time": 34.7295455,
                "pitch": 30,
                "velocity": 64,
                "duration": 0.3863636,
                "tempo": 120.0
            },
            {
                "start_time": 34.7477273,
                "end_time": 35.1318182,
                "pitch": 30,
                "velocity": 64,
                "duration": 0.3840909,
                "tempo": 120.0
            },
            {
                "start_time": 35.15,
                "end_time": 35.3340909,
                "pitch": 45,
                "velocity": 64,
                "duration": 0.1840909,
                "tempo": 120.0
            },
            {
                "start_time": 35.35,
                "end_time": 35.7340909,
                "pitch": 31,
                "velocity": 64,
                "duration": 0.3840909,
                "tempo": 120.0
            },
            {
                "start_time": 35.75,
                "end_time": 35.9340909,
                "pitch": 45,
                "velocity": 64,
                "duration": 0.1840909,
                "tempo": 120.0
            },
            {
                "start_time": 35.95,
                "end_time": 36.3340909,
                "pitch": 31,
                "velocity": 64,
                "duration": 0.3840909,
                "tempo": 120.0
            },
            {
                "start_time": 36.35,
                "end_time": 36.5340909,
                "pitch": 31,
                "velocity": 64,
                "duration": 0.1840909,
                "tempo": 120.0
            },
            {
                "start_time": 36.55,
                "end_time": 36.7340909,
                "pitch": 45,
                "velocity": 64,
                "duration": 0.1840909,
                "tempo": 120.0
            },
            {
                "start_time": 36.75,
                "end_time": 36.8340909,
                "pitch": 31,
                "velocity": 64,
                "duration": 0.0840909,
                "tempo": 120.0
            },
            {
                "start_time": 36.85,
                "end_time": 36.9340909,
                "pitch": 34,
                "velocity": 64,
                "duration": 0.0840909,
                "tempo": 120.0
            },
            {
                "start_time": 36.95,
                "end_time": 37.3363636,
                "pitch": 33,
                "velocity": 64,
                "duration": 0.3863636,
                "tempo": 120.0
            },
            {
                "start_time": 37.3522727,
                "end_time": 37.5363636,
                "pitch": 45,
                "velocity": 64,
                "duration": 0.1840909,
                "tempo": 120.0
            },
            {
                "start_time": 37.5522727,
                "end_time": 37.9363636,
                "pitch": 33,
                "velocity": 64,
                "duration": 0.3840909,
                "tempo": 120.0
            },
            {
                "start_time": 37.9522727,
                "end_time": 38.1363636,
                "pitch": 33,
                "velocity": 64,
                "duration": 0.1840909,
                "tempo": 120.0
            },
            {
                "start_time": 38.1522727,
                "end_time": 38.3363636,
                "pitch": 45,
                "velocity": 64,
                "duration": 0.1840909,
                "tempo": 120.0
            },
            {
                "start_time": 38.3522727,
                "end_time": 38.5363636,
                "pitch": 31,
                "velocity": 64,
                "duration": 0.1840909,
                "tempo": 120.0
            },
            {
                "start_time": 38.5522727,
                "end_time": 38.7363636,
                "pitch": 36,
                "velocity": 64,
                "duration": 0.1840909,
                "tempo": 120.0
            },
            {
                "start_time": 38.7522727,
                "end_time": 38.8363636,
                "pitch": 36,
                "velocity": 64,
                "duration": 0.0840909,
                "tempo": 120.0
            },
            {
                "start_time": 38.8522727,
                "end_time": 38.9363636,
                "pitch": 37,
                "velocity": 64,
                "duration": 0.0840909,
                "tempo": 120.0
            },
            {
                "start_time": 38.9522727,
                "end_time": 39.1363636,
                "pitch": 43,
                "velocity": 64,
                "duration": 0.1840909,
                "tempo": 120.0
            },
            {
                "start_time": 39.1545455,
                "end_time": 39.5386364,
                "pitch": 36,
                "velocity": 64,
                "duration": 0.3840909,
                "tempo": 120.0
            },
            {
                "start_time": 39.5545455,
                "end_time": 39.7386364,
                "pitch": 36,
                "velocity": 64,
                "duration": 0.1840909,
                "tempo": 120.0
            },
            {
                "start_time": 39.7545455,
                "end_time": 39.8386364,
                "pitch": 36,
                "velocity": 64,
                "duration": 0.0840909,
                "tempo": 120.0
            },
            {
                "start_time": 39.8545455,
                "end_time": 39.9386364,
                "pitch": 35,
                "velocity": 64,
                "duration": 0.0840909,
                "tempo": 120.0
            },
            {
                "start_time": 39.9545455,
                "end_time": 40.1386364,
                "pitch": 32,
                "velocity": 64,
                "duration": 0.1840909,
                "tempo": 120.0
            },
            {
                "start_time": 40.1545455,
                "end_time": 40.3386364,
                "pitch": 38,
                "velocity": 64,
                "duration": 0.1840909,
                "tempo": 120.0
            },
            {
                "start_time": 40.3545455,
                "end_time": 40.5386364,
                "pitch": 38,
                "velocity": 64,
                "duration": 0.1840909,
                "tempo": 120.0
            },
            {
                "start_time": 40.5545455,
                "end_time": 40.7386364,
                "pitch": 45,
                "velocity": 64,
                "duration": 0.1840909,
                "tempo": 120.0
            },
            {
                "start_time": 40.7545455,
                "end_time": 41.1409091,
                "pitch": 31,
                "velocity": 64,
                "duration": 0.3863636,
                "tempo": 120.0
            },
            {
                "start_time": 41.1568182,
                "end_time": 41.2409091,
                "pitch": 31,
                "velocity": 64,
                "duration": 0.0840909,
                "tempo": 120.0
            },
            {
                "start_time": 41.2568182,
                "end_time": 41.275,
                "pitch": 36,
                "velocity": 64,
                "duration": 0.0181818,
                "tempo": 120.0
            },
            {
                "start_time": 41.2909091,
                "end_time": 41.3409091,
                "pitch": 37,
                "velocity": 64,
                "duration": 0.05,
                "tempo": 120.0
            },
            {
                "start_time": 41.3590909,
                "end_time": 41.5409091,
                "pitch": 29,
                "velocity": 64,
                "duration": 0.1818182,
                "tempo": 120.0
            },
            {
                "start_time": 41.5590909,
                "end_time": 41.7409091,
                "pitch": 36,
                "velocity": 64,
                "duration": 0.1818182,
                "tempo": 120.0
            },
            {
                "start_time": 41.7590909,
                "end_time": 42.3409091,
                "pitch": 34,
                "velocity": 64,
                "duration": 0.5818182,
                "tempo": 120.0
            },
            {
                "start_time": 42.3590909,
                "end_time": 42.9409091,
                "pitch": 41,
                "velocity": 64,
                "duration": 0.5818182,
                "tempo": 120.0
            },
            {
                "start_time": 42.9590909,
                "end_time": 43.1431818,
                "pitch": 34,
                "velocity": 64,
                "duration": 0.1840909,
                "tempo": 120.0
            },
            {
                "start_time": 43.1590909,
                "end_time": 43.2431818,
                "pitch": 34,
                "velocity": 64,
                "duration": 0.0840909,
                "tempo": 120.0
            },
            {
                "start_time": 43.2613636,
                "end_time": 44.1431818,
                "pitch": 42,
                "velocity": 64,
                "duration": 0.8818182,
                "tempo": 120.0
            },
            {
                "start_time": 44.1613636,
                "end_time": 44.3431818,
                "pitch": 41,
                "velocity": 64,
                "duration": 0.1818182,
                "tempo": 120.0
            },
            {
                "start_time": 44.3613636,
                "end_time": 44.5431818,
                "pitch": 40,
                "velocity": 64,
                "duration": 0.1818182,
                "tempo": 120.0
            },
            {
                "start_time": 44.5613636,
                "end_time": 44.7431818,
                "pitch": 39,
                "velocity": 64,
                "duration": 0.1818182,
                "tempo": 120.0
            },
            {
                "start_time": 44.7613636,
                "end_time": 44.9431818,
                "pitch": 37,
                "velocity": 64,
                "duration": 0.1818182,
                "tempo": 120.0
            },
            {
                "start_time": 44.9613636,
                "end_time": 45.1454545,
                "pitch": 36,
                "velocity": 64,
                "duration": 0.1840909,
                "tempo": 120.0
            },
            {
                "start_time": 45.1613636,
                "end_time": 45.2454545,
                "pitch": 36,
                "velocity": 64,
                "duration": 0.0840909,
                "tempo": 120.0
            },
            {
                "start_time": 45.2636364,
                "end_time": 45.3477273,
                "pitch": 37,
                "velocity": 64,
                "duration": 0.0840909,
                "tempo": 120.0
            },
            {
                "start_time": 45.3636364,
                "end_time": 45.5477273,
                "pitch": 43,
                "velocity": 64,
                "duration": 0.1840909,
                "tempo": 120.0
            },
            {
                "start_time": 45.5636364,
                "end_time": 45.9477273,
                "pitch": 36,
                "velocity": 64,
                "duration": 0.3840909,
                "tempo": 120.0
            },
            {
                "start_time": 45.9636364,
                "end_time": 46.1477273,
                "pitch": 36,
                "velocity": 64,
                "duration": 0.1840909,
                "tempo": 120.0
            },
            {
                "start_time": 46.1636364,
                "end_time": 46.2477273,
                "pitch": 36,
                "velocity": 64,
                "duration": 0.0840909,
                "tempo": 120.0
            },
            {
                "start_time": 46.2636364,
                "end_time": 46.3477273,
                "pitch": 35,
                "velocity": 64,
                "duration": 0.0840909,
                "tempo": 120.0
            },
            {
                "start_time": 46.3636364,
                "end_time": 46.5477273,
                "pitch": 32,
                "velocity": 64,
                "duration": 0.1840909,
                "tempo": 120.0
            },
            {
                "start_time": 46.5636364,
                "end_time": 46.7477273,
                "pitch": 38,
                "velocity": 64,
                "duration": 0.1840909,
                "tempo": 120.0
            },
            {
                "start_time": 46.7636364,
                "end_time": 46.9477273,
                "pitch": 38,
                "velocity": 64,
                "duration": 0.1840909,
                "tempo": 120.0
            },
            {
                "start_time": 46.9636364,
                "end_time": 47.1477273,
                "pitch": 45,
                "velocity": 64,
                "duration": 0.1840909,
                "tempo": 120.0
            },
            {
                "start_time": 47.1659091,
                "end_time": 47.55,
                "pitch": 31,
                "velocity": 64,
                "duration": 0.3840909,
                "tempo": 120.0
            },
            {
                "start_time": 47.5659091,
                "end_time": 47.65,
                "pitch": 31,
                "velocity": 64,
                "duration": 0.0840909,
                "tempo": 120.0
            },
            {
                "start_time": 47.6659091,
                "end_time": 47.6818182,
                "pitch": 36,
                "velocity": 64,
                "duration": 0.0159091,
                "tempo": 120.0
            },
            {
                "start_time": 47.7,
                "end_time": 47.75,
                "pitch": 37,
                "velocity": 64,
                "duration": 0.05,
                "tempo": 120.0
            },
            {
                "start_time": 47.7659091,
                "end_time": 47.95,
                "pitch": 29,
                "velocity": 64,
                "duration": 0.1840909,
                "tempo": 120.0
            },
            {
                "start_time": 47.9659091,
                "end_time": 48.15,
                "pitch": 36,
                "velocity": 64,
                "duration": 0.1840909,
                "tempo": 120.0
            },
            {
                "start_time": 48.1659091,
                "end_time": 48.75,
                "pitch": 34,
                "velocity": 64,
                "duration": 0.5840909,
                "tempo": 120.0
            },
            {
                "start_time": 48.7659091,
                "end_time": 49.3522727,
                "pitch": 41,
                "velocity": 64,
                "duration": 0.5863636,
                "tempo": 120.0
            },
            {
                "start_time": 49.3681818,
                "end_time": 49.5522727,
                "pitch": 34,
                "velocity": 64,
                "duration": 0.1840909,
                "tempo": 120.0
            },
            {
                "start_time": 49.5681818,
                "end_time": 49.6522727,
                "pitch": 34,
                "velocity": 64,
                "duration": 0.0840909,
                "tempo": 120.0
            },
            {
                "start_time": 49.6681818,
                "end_time": 50.3522727,
                "pitch": 42,
                "velocity": 64,
                "duration": 0.6840909,
                "tempo": 120.0
            },
            {
                "start_time": 50.3681818,
                "end_time": 50.7522727,
                "pitch": 31,
                "velocity": 64,
                "duration": 0.3840909,
                "tempo": 120.0
            },
            {
                "start_time": 50.7681818,
                "end_time": 50.9522727,
                "pitch": 31,
                "velocity": 64,
                "duration": 0.1840909,
                "tempo": 120.0
            },
            {
                "start_time": 50.9681818,
                "end_time": 51.1545455,
                "pitch": 30,
                "velocity": 64,
                "duration": 0.1863636,
                "tempo": 120.0
            },
            {
                "start_time": 51.1704545,
                "end_time": 51.3545455,
                "pitch": 31,
                "velocity": 64,
                "duration": 0.1840909,
                "tempo": 120.0
            },
            {
                "start_time": 51.3704545,
                "end_time": 51.5545455,
                "pitch": 32,
                "velocity": 64,
                "duration": 0.1840909,
                "tempo": 120.0
            },
            {
                "start_time": 51.5704545,
                "end_time": 51.7545455,
                "pitch": 32,
                "velocity": 64,
                "duration": 0.1840909,
                "tempo": 120.0
            },
            {
                "start_time": 51.7704545,
                "end_time": 51.9545455,
                "pitch": 32,
                "velocity": 64,
                "duration": 0.1840909,
                "tempo": 120.0
            },
            {
                "start_time": 51.9704545,
                "end_time": 52.1545455,
                "pitch": 32,
                "velocity": 64,
                "duration": 0.1840909,
                "tempo": 120.0
            },
            {
                "start_time": 52.1704545,
                "end_time": 52.3545455,
                "pitch": 32,
                "velocity": 64,
                "duration": 0.1840909,
                "tempo": 120.0
            },
            {
                "start_time": 52.3704545,
                "end_time": 52.5340909,
                "pitch": 32,
                "velocity": 64,
                "duration": 0.1636364,
                "tempo": 120.0
            }
        ]
    }
}