{
    "mood": "angry",
    "instruments": {
        "Trumpet": [
            {
                "start_time": 0.0,
                "end_time": 0.0136364,
                "pitch": 59,
                "velocity": 80,
                "duration": 0.0136364,
                "tempo": 120.0
            },
            {
                "start_time": 0.0272727,
                "end_time": 1.35,
                "pitch": 60,
                "velocity": 80,
                "duration": 1.3227273,
                "tempo": 120.0
            },
            {
                "start_time": 1.3659091,
                "end_time": 1.4840909,
                "pitch": 58,
                "velocity": 80,
                "duration": 0.1181818,
                "tempo": 120.0
            },
            {
                "start_time": 1.5,
                "end_time": 1.7340909,
                "pitch": 60,
                "velocity": 80,
                "duration": 0.2340909,
                "tempo": 120.0
            },
            {
                "start_time": 1.75,
                "end_time": 1.9840909,
                "pitch": 61,
                "velocity": 80,
                "duration": 0.2340909,
                "tempo": 120.0
            },
            {
                "start_time": 2.0,
                "end_time": 3.1,
                "pitch": 60,
                "velocity": 80,
                "duration": 1.1,
                "tempo": 120.0
            },
            {
                "start_time": 3.1159091,
                "end_time": 3.2340909,
                "pitch": 56,
                "velocity": 80,
                "duration": 0.1181818,
                "tempo": 120.0
            },
            {
                "start_time": 3.25,
                "end_time": 3.35,
                "pitch": 58,
                "velocity": 80,
                "duration": 0.1,
                "tempo": 120.0
            },
            {
                "start_time": 3.3659091,
                "end_time": 3.4840909,
                "pitch": 60,
                "velocity": 80,
                "duration": 0.1181818,
                "tempo": 120.0
            },
            {
                "start_time": 3.5,
                "end_time": 3.6,
                "pitch": 61,
                "velocity": 80,
                "duration": 0.1,
                "tempo": 120.0
            },
            {
                "start_time": 3.6159091,
                "end_time": 3.85,
                "pitch": 60,
                "velocity": 80,
                "duration": 0.2340909,
                "tempo": 120.0
            },
            {
                "start_time": 3.8659091,
                "end_time": 3.9840909,
                "pitch": 61,
                "velocity": 80,
                "duration": 0.1181818,
                "tempo": 120.0
            },
            {
                "start_time": 4.0,
                "end_time": 4.1,
                "pitch": 62,
                "velocity": 80,
                "duration": 0.1,
                "tempo": 120.0
            },
            {
                "start_time": 4.1159091,
                "end_time": 4.35,
                "pitch": 63,
                "velocity": 80,
                "duration": 0.2340909,
                "tempo": 120.0
            },
            {
                "start_time": 4.3659091,
                "end_time": 4.8545455,
                "pitch": 61,
                "velocity": 80,
                "duration": 0.4886364,
                "tempo": 120.0
            },
            {
                "start_time": 4.8704545,
                "end_time": 5.1045455,
                "pitch": 60,
                "velocity": 80,
                "duration": 0.2340909,
                "tempo": 120.0
            },
            {
                "start_time": 5.1204545,
                "end_time": 5.2386364,
                "pitch": 58,
                "velocity": 80,
                "duration": 0.1181818,
                "tempo": 120.0
            },
            {
                "start_time": 5.2545455,
                "end_time": 5.4886364,
                "pitch": 56,
                "velocity": 80,
                "duration": 0.2340909,
                "tempo": 120.0
            },
            {
                "start_time": 5.5045455,
                "end_time": 5.7386364,
                "pitch": 58,
                "velocity": 80,
                "duration": 0.2340909,
                "tempo": 120.0
            },
            {
                "start_time": 5.7545455,
                "end_time": 5.8545455,
                "pitch": 58,
                "velocity": 80,
                "duration": 0.1,
                "tempo": 120.0
            },
            {
                "start_time": 5.8704545,
                "end_time": 5.9045455,
                "pitch": 59,
                "velocity": 80,
                "duration": 0.0340909,
                "tempo": 120.0
            },
            {
                "start_time": 5.9204545,
                "end_time": 6.8545455,
                "pitch": 60,
                "velocity": 80,
                "duration": 0.9340909,
                "tempo": 120.0
            },
            {
                "start_time": 6.8704545,
                "end_time": 7.1045455,
                "pitch": 60,
                "velocity": 80,
                "duration": 0.2340909,
                "tempo": 120.0
            },
            {
                "start_time": 7.1204545,
                "end_time": 7.3545455,
                "pitch": 63,
                "velocity": 80,
                "duration": 0.2340909,
                "tempo": 120.0
            },
            {
                "start_time": 7.3704545,
                "end_time": 7.6045455,
                "pitch": 65,
                "velocity": 80,
                "duration": 0.2340909,
                "tempo": 120.0
            },
            {
                "start_time": 7.6204545,
                "end_time": 7.8545455,
                "pitch": 63,
                "velocity": 80,
                "duration": 0.2340909,
                "tempo": 120.0
            },
            {
                "start_time": 7.8704545,
                "end_time": 7.9909091,
                "pitch": 61,
                "velocity": 80,
                "duration": 0.1204545,
                "tempo": 120.0
            },
            {
                "start_time": 8.0068182,
                "end_time": 8.025,
                "pitch": 62,
                "velocity": 80,
                "duration": 0.0181818,
                "tempo": 120.0
            },
            {
                "start_time": 8.0409091,
                "end_time": 8.8590909,
                "pitch": 63,
                "velocity": 80,
                "duration": 0.8181818,
                "tempo": 120.0
            },
            {
                "start_time": 8.875,
                "end_time": 9.2431818,
                "pitch": 61,
                "velocity": 80,
                "duration": 0.3681818,
                "tempo": 120.0
            },
            {
                "start_time": 9.2590909,
                "end_time": 9.3590909,
                "pitch": 60,
                "velocity": 80,
                "duration": 0.1,
                "tempo": 120.0
            },
            {
                "start_time": 9.375,
                "end_time": 9.6090909,
                "pitch": 60,
                "velocity": 80,
                "duration": 0.2340909,
                "tempo": 120.0
            },
            {
                "start_time": 9.625,
                "end_time": 10.1090909,
                "pitch": 58,
                "velocity": 80,
                "duration": 0.4840909,
                "tempo": 120.0
            },
            {
                "start_time": 10.125,
                "end_time": 10.3590909,
                "pitch": 56,
                "velocity": 80,
                "duration": 0.2340909,
                "tempo": 120.0
            },
            {
                "start_time": 10.375,
                "end_time": 10.4090909,
                "pitch": 55,
                "velocity": 80,
                "duration": 0.0340909,
                "tempo": 120.0
            },
            {
                "start_time": 10.425,
                "end_time": 11.1090909,
                "pitch": 56,
                "velocity": 80,
                "duration": 0.6840909,
                "tempo": 120.0
            },
            {
                "start_time": 11.125,
                "end_time": 11.3590909,
                "pitch": 53,
                "velocity": 80,
                "duration": 0.2340909,
                "tempo": 120.0
            },
            {
                "start_time": 11.375,
                "end_time": 11.4931818,
                "pitch": 56,
                "velocity": 80,
                "duration": 0.1181818,
                "tempo": 120.0
            },
            {
                "start_time": 11.5090909,
                "end_time": 11.6090909,
                "pitch": 58,
                "velocity": 80,
                "duration": 0.1,
                "tempo": 120.0
            },
            {
                "start_time": 11.625,
                "end_time": 11.8590909,
                "pitch": 58,
                "velocity": 80,
                "duration": 0.2340909,
                "tempo": 120.0
            },
            {
                "start_time": 11.875,
                "end_time": 11.9931818,
                "pitch": 56,
                "velocity": 80,
                "duration": 0.1181818,
                "tempo": 120.0
            },
            {
                "start_time": 12.0090909,
                "end_time": 12.025,
                "pitch": 57,
                "velocity": 80,
                "duration": 0.0159091,
                "tempo": 120.0
            },
            {
                "start_time": 12.0431818,
                "end_time": 12.6090909,
                "pitch": 58,
                "velocity": 80,
                "duration": 0.5659091,
                "tempo": 120.0
            },
            {
                "start_time": 12.625,
                "end_time": 12.6590909,
                "pitch": 57,
                "velocity": 80,
                "duration": 0.0340909,
                "tempo": 120.0
            },
            {
                "start_time": 12.675,
                "end_time": 12.6931818,
                "pitch": 55,
                "velocity": 80,
                "duration": 0.0181818,
                "tempo": 120.0
            },
            {
                "start_time": 12.7090909,
                "end_time": 13.1090909,
                "pitch": 56,
                "velocity": 80,
                "duration": 0.4,
                "tempo": 120.0
            },
            {
                "start_time": 13.125,
                "end_time": 13.1590909,
                "pitch": 60,
                "velocity": 80,
                "duration": 0.0340909,
                "tempo": 120.0
            },
            {
                "start_time": 13.175,
                "end_time": 13.2431818,
                "pitch": 61,
                "velocity": 80,
                "duration": 0.0681818,
                "tempo": 120.0
            },
            {
                "start_time": 13.2590909,
                "end_time": 13.275,
                "pitch": 62,
                "velocity": 80,
                "duration": 0.0159091,
                "tempo": 120.0
            },
            {
                "start_time": 13.2931818,
                "end_time": 13.8590909,
                "pitch": 63,
                "velocity": 80,
                "duration": 0.5659091,
                "tempo": 120.0
            },
            {
                "start_time": 13.875,
                "end_time": 13.9954545,
                "pitch": 60,
                "velocity": 80,
                "duration": 0.1204545,
                "tempo": 120.0
            },
            {
                "start_time": 14.0113636,
                "end_time": 14.1136364,
                "pitch": 61,
                "velocity": 80,
                "duration": 0.1022727,
                "tempo": 120.0
            },
            {
                "start_time": 14.1318182,
                "end_time": 14.2522727,
                "pitch": 62,
                "velocity": 80,
                "duration": 0.1204545,
                "tempo": 120.0
            },
            {
                "start_time": 14.2681818,
                "end_time": 14.5022727,
                "pitch": 63,
                "velocity": 80,
                "duration": 0.2340909,
                "tempo": 120.0
            },
            {
                "start_time": 14.5181818,
                "end_time": 14.7477273,
                "pitch": 60,
                "velocity": 80,
                "duration": 0.2295455,
                "tempo": 120.0
            },
            {
                "start_time": 14.7659091,
                "end_time": 14.9954545,
                "pitch": 56,
                "velocity": 80,
                "duration": 0.2295455,
                "tempo": 120.0
            },
            {
                "start_time": 15.0136364,
                "end_time": 15.3636364,
                "pitch": 54,
                "velocity": 80,
                "duration": 0.35,
                "tempo": 120.0
            },
            {
                "start_time": 15.3795455,
                "end_time": 15.7454545,
                "pitch": 53,
                "velocity": 80,
                "duration": 0.3659091,
                "tempo": 120.0
            }
        ],
        "Acoustic Bass": [
            {
                "start_time": 0.0,
                "end_time": 0.2795455,
                "pitch": 41,
                "velocity": 64,
                "duration": 0.2795455,
                "tempo": 120.0
            },
            {
                "start_time": 0.2931818,
                "end_time": 0.6113636,
                "pitch": 48,
                "velocity": 64,
                "duration": 0.3181818,
                "tempo": 120.0
            },
            {
                "start_time": 0.6272727,
                "end_time": 1.1,
                "pitch": 48,
                "velocity": 64,
                "duration": 0.4727273,
                "tempo": 120.0
            },
            {
                "start_time": 1.1159091,
                "end_time": 1.35,
                "pitch": 48,
                "velocity": 64,
                "duration": 0.2340909,
                "tempo": 120.0
            },
            {
                "start_time": 1.3659091,
                "end_time": 1.6,
                "pitch": 46,
                "velocity": 64,
                "duration": 0.2340909,
                "tempo": 120.0
            },
            {
                "start_time": 1.6159091,
                "end_time": 1.85,
                "pitch": 48,
                "velocity": 64,
                "duration": 0.2340909,
                "tempo": 120.0
            },
            {
                "start_time": 1.8659091,
                "end_time": 2.2340909,
                "pitch": 41,
                "velocity": 64,
                "duration": 0.3681818,
                "tempo": 120.0
            },
            {
                "start_time": 2.25,
                "end_time": 2.6,
                "pitch": 48,
                "velocity": 64,
                "duration": 0.35,
                "tempo": 120.0
            },
            {
                "start_time": 2.6159091,
                "end_time": 3.1,
                "pitch": 48,
                "velocity": 64,
                "duration": 0.4840909,
                "tempo": 120.0
            },
            {
                "start_time": 3.1159091,
                "end_time": 3.35,
                "pitch": 48,
                "velocity": 64,
                "duration": 0.2340909,
                "tempo": 120.0
            },
            {
                "start_time": 3.3659091,
                "end_time": 3.6,
                "pitch": 49,
                "velocity": 64,
                "duration": 0.2340909,
                "tempo": 120.0
            },
            {
                "start_time": 3.6159091,
                "end_time": 3.85,
                "pitch": 51,
                "velocity": 64,
                "duration": 0.2340909,
                "tempo": 120.0
            },
            {
                "start_time": 3.8659091,
                "end_time": 4.2340909,
                "pitch": 41,
                "velocity": 64,
                "duration": 0.3681818,
                "tempo": 120.0
            },
            {
                "start_time": 4.25,
                "end_time": 4.6022727,
                "pitch": 48,
                "velocity": 64,
                "duration": 0.3522727,
                "tempo": 120.0
            },
            {
                "start_time": 4.6181818,
                "end_time": 5.1045455,
                "pitch": 48,
                "velocity": 64,
                "duration": 0.4863636,
                "tempo": 120.0
            },
            {
                "start_time": 5.1204545,
                "end_time": 5.3545455,
                "pitch": 48,
                "velocity": 64,
                "duration": 0.2340909,
                "tempo": 120.0
            },
            {
                "start_time": 5.3704545,
                "end_time": 5.6045455,
                "pitch": 46,
                "velocity": 64,
                "duration": 0.2340909,
                "tempo": 120.0
            },
            {
                "start_time": 5.6204545,
                "end_time": 5.8545455,
                "pitch": 48,
                "velocity": 64,
                "duration": 0.2340909,
                "tempo": 120.0
            },
            {
                "start_time": 5.8704545,
                "end_time": 6.2386364,
                "pitch": 41,
                "velocity": 64,
                "duration": 0.3681818,
                "tempo": 120.0
            },
            {
                "start_time": 6.2545455,
                "end_time": 6.6045455,
                "pitch": 48,
                "velocity": 64,
                "duration": 0.35,
                "tempo": 120.0
            },
            {
                "start_time": 6.6204545,
                "end_time": 7.1045455,
                "pitch": 48,
                "velocity": 64,
                "duration": 0.4840909,
                "tempo": 120.0
            },
            {
                "start_time": 7.1204545,
                "end_time": 7.3545455,
                "pitch": 48,
                "velocity": 64,
                "duration": 0.2340909,
                "tempo": 120.0
            },
            {
                "start_time": 7.3704545,
                "end_time": 7.6045455,
                "pitch": 49,
                "velocity": 64,
                "duration": 0.2340909,
                "tempo": 120.0
            },
            {
                "start_time": 7.6204545,
                "end_time": 7.8545455,
                "pitch": 51,
                "velocity": 64,
                "duration": 0.2340909,
                "tempo": 120.0
            },
            {
                "start_time": 7.8704545,
                "end_time": 10.2431818,
                "pitch": 44,
                "velocity": 64,
                "duration": 2.3727273,
                "tempo": 120.0
            },
            {
                "start_time": 10.625,
                "end_time": 10.8590909,
                "pitch": 44,
                "velocity": 64,
                "duration": 0.2340909,
                "tempo": 120.0
            },
            {
                "start_time": 10.875,
                "end_time": 11.1090909,
                "pitch": 49,
                "velocity": 64,
                "duration": 0.2340909,
                "tempo": 120.0
            },
            {
                "start_time": 11.125,
                "end_time": 11.6090909,
                "pitch": 48,
                "velocity": 64,
                "duration": 0.4840909,
                "tempo": 120.0
            },
            {
                "start_time": 11.625,
                "end_time": 11.7431818,
                "pitch": 44,
                "velocity": 64,
                "duration": 0.1181818,
                "tempo": 120.0
            },
            {
                "start_time": 11.7590909,
                "end_time": 11.8590909,
                "pitch": 46,
                "velocity": 64,
                "duration": 0.1,
                "tempo": 120.0
            },
            {
                "start_time": 11.875,
                "end_time": 13.3590909,
                "pitch": 49,
                "velocity": 64,
                "duration": 1.4840909,
                "tempo": 120.0
            },
            {
                "start_time": 13.375,
                "end_time": 13.8590909,
                "pitch": 51,
                "velocity": 64,
                "duration": 0.4840909,
                "tempo": 120.0
            },
            {
                "start_time": 13.875,
                "end_time": 13.9954545,
                "pitch": 48,
                "velocity": 64,
                "duration": 0.1204545,
                "tempo": 120.0
            },
            {
                "start_time": 14.0113636,
                "end_time": 14.1136364,
                "pitch": 49,
                "velocity": 64,
                "duration": 0.1022727,
                "tempo": 120.0
            },
            {
                "start_time": 14.1318182,
                "end_time": 14.2522727,
                "pitch": 50,
                "velocity": 64,
                "duration": 0.1204545,
                "tempo": 120.0
            },
            {
                "start_time": 14.2681818,
                "end_time": 14.5022727,
                "pitch": 51,
                "velocity": 64,
                "duration": 0.2340909,
                "tempo": 120.0
            },
            {
                "start_time": 14.5181818,
                "end_time": 14.7477273,
                "pitch": 48,
                "velocity": 64,
                "duration": 0.2295455,
                "tempo": 120.0
            },
            {
                "start_time": 14.7659091,
                "end_time": 14.9954545,
                "pitch": 44,
                "velocity": 64,
                "duration": 0.2295455,
                "tempo": 120.0
            },
            {
                "start_time": 15.0136364,
                "end_time": 15.3636364,
                "pitch": 42,
                "velocity": 64,
                "duration": 0.35,
                "tempo": 120.0
            },
            {
                "start_time": 15.3795455,
                "end_time": 15.7454545,
                "pitch": 41,
                "velocity": 64,
                "duration": 0.3659091,
                "tempo": 120.0
            }
        ],
        "Clarinet": [
            {
                "start_time": 0.0,
                "end_time": 0.0795455,
                "pitch": 53,
                "velocity": 64,
                "duration": 0.0795455,
                "tempo": 120.0
            },
            {
                "start_time": 0.0931818,
                "end_time": 0.1727273,
                "pitch": 58,
                "velocity": 64,
                "duration": 0.0795455,
                "tempo": 120.0
            },
            {
                "start_time": 0.1863636,
                "end_time": 0.2795455,
                "pitch": 60,
                "velocity": 64,
                "duration": 0.0931818,
                "tempo": 120.0
            },
            {
                "start_time": 0.2931818,
                "end_time": 0.6113636,
                "pitch": 65,
                "velocity": 64,
                "duration": 0.3181818,
                "tempo": 120.0
            },
            {
                "start_time": 0.6272727,
                "end_time": 0.6590909,
                "pitch": 60,
                "velocity": 64,
                "duration": 0.0318182,
                "tempo": 120.0
            },
            {
                "start_time": 0.675,
                "end_time": 0.85,
                "pitch": 61,
                "velocity": 64,
                "duration": 0.175,
                "tempo": 120.0
            },
            {
                "start_time": 0.8659091,
                "end_time": 1.1,
                "pitch": 58,
                "velocity": 64,
                "duration": 0.2340909,
                "tempo": 120.0
            },
            {
                "start_time": 1.1159091,
                "end_time": 1.35,
                "pitch": 53,
                "velocity": 64,
                "duration": 0.2340909,
                "tempo": 120.0
            },
            {
                "start_time": 1.3659091,
                "end_time": 1.6,
                "pitch": 56,
                "velocity": 64,
                "duration": 0.2340909,
                "tempo": 120.0
            },
            {
                "start_time": 1.6159091,
                "end_time": 1.85,
                "pitch": 58,
                "velocity": 64,
                "duration": 0.2340909,
                "tempo": 120.0
            },
            {
                "start_time": 1.8659091,
                "end_time": 2.1,
                "pitch": 53,
                "velocity": 64,
                "duration": 0.2340909,
                "tempo": 120.0
            },
            {
                "start_time": 2.1159091,
                "end_time": 2.2340909,
                "pitch": 60,
                "velocity": 64,
                "duration": 0.1181818,
                "tempo": 120.0
            },
            {
                "start_time": 2.25,
                "end_time": 2.6,
                "pitch": 65,
                "velocity": 64,
                "duration": 0.35,
                "tempo": 120.0
            },
            {
                "start_time": 2.6159091,
                "end_time": 2.85,
                "pitch": 60,
                "velocity": 64,
                "duration": 0.2340909,
                "tempo": 120.0
            },
            {
                "start_time": 2.8659091,
                "end_time": 3.1,
                "pitch": 58,
                "velocity": 64,
                "duration": 0.2340909,
                "tempo": 120.0
            },
            {
                "start_time": 3.1159091,
                "end_time": 3.35,
                "pitch": 56,
                "velocity": 64,
                "duration": 0.2340909,
                "tempo": 120.0
            },
            {
                "start_time": 3.3659091,
                "end_time": 3.6,
                "pitch": 53,
                "velocity": 64,
                "duration": 0.2340909,
                "tempo": 120.0
            },
            {
                "start_time": 3.6159091,
                "end_time": 3.85,
                "pitch": 56,
                "velocity": 64,
                "duration": 0.2340909,
                "tempo": 120.0
            },
            {
                "start_time": 3.8659091,
                "end_time": 3.9840909,
                "pitch": 51,
                "velocity": 64,
                "duration": 0.1181818,
                "tempo": 120.0
            },
            {
                "start_time": 4.0,
                "end_time": 4.1,
                "pitch": 56,
                "velocity": 64,
                "duration": 0.1,
                "tempo": 120.0
            },
            {
                "start_time": 4.1159091,
                "end_time": 4.2340909,
                "pitch": 63,
                "velocity": 64,
                "duration": 0.1181818,
                "tempo": 120.0
            },
            {
                "start_time": 4.25,
                "end_time": 4.6022727,
                "pitch": 63,
                "velocity": 64,
                "duration": 0.3522727,
                "tempo": 120.0
            },
            {
                "start_time": 4.6181818,
                "end_time": 4.8545455,
                "pitch": 58,
                "velocity": 64,
                "duration": 0.2363636,
                "tempo": 120.0
            },
            {
                "start_time": 4.8704545,
                "end_time": 5.1045455,
                "pitch": 56,
                "velocity": 64,
                "duration": 0.2340909,
                "tempo": 120.0
            },
            {
                "start_time": 5.1204545,
                "end_time": 5.3545455,
                "pitch": 51,
                "velocity": 64,
                "duration": 0.2340909,
                "tempo": 120.0
            },
            {
                "start_time": 5.3704545,
                "end_time": 5.6045455,
                "pitch": 54,
                "velocity": 64,
                "duration": 0.2340909,
                "tempo": 120.0
            },
            {
                "start_time": 5.6204545,
                "end_time": 5.8545455,
                "pitch": 56,
                "velocity": 64,
                "duration": 0.2340909,
                "tempo": 120.0
            },
            {
                "start_time": 5.8704545,
                "end_time": 5.9886364,
                "pitch": 51,
                "velocity": 64,
                "duration": 0.1181818,
                "tempo": 120.0
            },
            {
                "start_time": 6.0045455,
                "end_time": 6.1045455,
                "pitch": 51,
                "velocity": 64,
                "duration": 0.1,
                "tempo": 120.0
            },
            {
                "start_time": 6.1204545,
                "end_time": 6.2386364,
                "pitch": 58,
                "velocity": 64,
                "duration": 0.1181818,
                "tempo": 120.0
            },
            {
                "start_time": 6.2545455,
                "end_time": 6.6045455,
                "pitch": 63,
                "velocity": 64,
                "duration": 0.35,
                "tempo": 120.0
            },
            {
                "start_time": 6.6204545,
                "end_time": 6.8545455,
                "pitch": 63,
                "velocity": 64,
                "duration": 0.2340909,
                "tempo": 120.0
            },
            {
                "start_time": 6.8704545,
                "end_time": 6.9045455,
                "pitch": 55,
                "velocity": 64,
                "duration": 0.0340909,
                "tempo": 120.0
            },
            {
                "start_time": 6.9204545,
                "end_time": 7.1045455,
                "pitch": 56,
                "velocity": 64,
                "duration": 0.1840909,
                "tempo": 120.0
            },
            {
                "start_time": 7.1204545,
                "end_time": 7.3545455,
                "pitch": 51,
                "velocity": 64,
                "duration": 0.2340909,
                "tempo": 120.0
            },
            {
                "start_time": 7.3704545,
                "end_time": 7.6045455,
                "pitch": 56,
                "velocity": 64,
                "duration": 0.2340909,
                "tempo": 120.0
            },
            {
                "start_time": 7.6204545,
                "end_time": 7.8545455,
                "pitch": 58,
                "velocity": 64,
                "duration": 0.2340909,
                "tempo": 120.0
            },
            {
                "start_time": 7.8704545,
                "end_time": 7.9909091,
                "pitch": 49,
                "velocity": 64,
                "duration": 0.1204545,
                "tempo": 120.0
            },
            {
                "start_time": 8.0068182,
                "end_time": 8.1090909,
                "pitch": 54,
                "velocity": 64,
                "duration": 0.1022727,
                "tempo": 120.0
            },
            {
                "start_time": 8.1272727,
                "end_time": 8.2477273,
                "pitch": 56,
                "velocity": 64,
                "duration": 0.1204545,
                "tempo": 120.0
            },
            {
                "start_time": 8.2636364,
                "end_time": 8.6136364,
                "pitch": 61,
                "velocity": 64,
                "duration": 0.35,
                "tempo": 120.0
            },
            {
                "start_time": 8.6295455,
                "end_time": 8.8590909,
                "pitch": 56,
                "velocity": 64,
                "duration": 0.2295455,
                "tempo": 120.0
            },
            {
                "start_time": 8.875,
                "end_time": 9.1090909,
                "pitch": 54,
                "velocity": 64,
                "duration": 0.2340909,
                "tempo": 120.0
            },
            {
                "start_time": 9.125,
                "end_time": 9.3590909,
                "pitch": 49,
                "velocity": 64,
                "duration": 0.2340909,
                "tempo": 120.0
            },
            {
                "start_time": 9.375,
                "end_time": 9.6090909,
                "pitch": 54,
                "velocity": 64,
                "duration": 0.2340909,
                "tempo": 120.0
            },
            {
                "start_time": 9.625,
                "end_time": 9.7431818,
                "pitch": 49,
                "velocity": 64,
                "duration": 0.1181818,
                "tempo": 120.0
            },
            {
                "start_time": 9.7590909,
                "end_time": 9.8590909,
                "pitch": 53,
                "velocity": 64,
                "duration": 0.1,
                "tempo": 120.0
            },
            {
                "start_time": 9.875,
                "end_time": 9.9931818,
                "pitch": 37,
                "velocity": 64,
                "duration": 0.1181818,
                "tempo": 120.0
            },
            {
                "start_time": 10.0090909,
                "end_time": 10.1090909,
                "pitch": 49,
                "velocity": 64,
                "duration": 0.1,
                "tempo": 120.0
            },
            {
                "start_time": 10.125,
                "end_time": 10.2431818,
                "pitch": 53,
                "velocity": 64,
                "duration": 0.1181818,
                "tempo": 120.0
            },
            {
                "start_time": 10.2590909,
                "end_time": 10.6090909,
                "pitch": 56,
                "velocity": 64,
                "duration": 0.35,
                "tempo": 120.0
            },
            {
                "start_time": 10.625,
                "end_time": 10.8590909,
                "pitch": 61,
                "velocity": 64,
                "duration": 0.2340909,
                "tempo": 120.0
            },
            {
                "start_time": 10.875,
                "end_time": 11.1090909,
                "pitch": 56,
                "velocity": 64,
                "duration": 0.2340909,
                "tempo": 120.0
            },
            {
                "start_time": 11.125,
                "end_time": 11.3590909,
                "pitch": 53,
                "velocity": 64,
                "duration": 0.2340909,
                "tempo": 120.0
            },
            {
                "start_time": 11.375,
                "end_time": 11.6090909,
                "pitch": 56,
                "velocity": 64,
                "duration": 0.2340909,
                "tempo": 120.0
            },
            {
                "start_time": 11.625,
                "end_time": 11.8590909,
                "pitch": 60,
                "velocity": 64,
                "duration": 0.2340909,
                "tempo": 120.0
            },
            {
                "start_time": 11.875,
                "end_time": 11.9931818,
                "pitch": 53,
                "velocity": 64,
                "duration": 0.1181818,
                "tempo": 120.0
            },
            {
                "start_time": 12.0090909,
                "end_time": 12.2431818,
                "pitch": 58,
                "velocity": 64,
                "duration": 0.2340909,
                "tempo": 120.0
            },
            {
                "start_time": 12.2590909,
                "end_time": 12.6090909,
                "pitch": 65,
                "velocity": 64,
                "duration": 0.35,
                "tempo": 120.0
            },
            {
                "start_time": 12.625,
                "end_time": 12.8590909,
                "pitch": 60,
                "velocity": 64,
                "duration": 0.2340909,
                "tempo": 120.0
            },
            {
                "start_time": 12.875,
                "end_time": 13.1090909,
                "pitch": 58,
                "velocity": 64,
                "duration": 0.2340909,
                "tempo": 120.0
            },
            {
                "start_time": 13.125,
                "end_time": 13.3590909,
                "pitch": 53,
                "velocity": 64,
                "duration": 0.2340909,
                "tempo": 120.0
            },
            {
                "start_time": 13.375,
                "end_time": 13.6090909,
                "pitch": 53,
                "velocity": 64,
                "duration": 0.2340909,
                "tempo": 120.0
            },
            {
                "start_time": 13.625,
                "end_time": 13.8590909,
                "pitch": 58,
                "velocity": 64,
                "duration": 0.2340909,
                "tempo": 120.0
            },
            {
                "start_time": 13.875,
                "end_time": 14.1136364,
                "pitch": 53,
                "velocity": 64,
                "duration": 0.2386364,
                "tempo": 120.0
            },
            {
                "start_time": 14.1318182,
                "end_time": 14.2522727,
                "pitch": 60,
                "velocity": 64,
                "duration": 0.1204545,
                "tempo": 120.0
            },
            {
                "start_time": 14.2681818,
                "end_time": 14.5022727,
                "pitch": 65,
                "velocity": 64,
                "duration": 0.2340909,
                "tempo": 120.0
            },
            {
                "start_time": 14.5181818,
                "end_time": 14.7477273,
                "pitch": 60,
                "velocity": 64,
                "duration": 0.2295455,
                "tempo": 120.0
            },
            {
                "start_time": 14.7659091,
                "end_time": 14.9954545,
                "pitch": 58,
                "velocity": 64,
                "duration": 0.2295455,
                "tempo": 120.0
            },
            {
                "start_time": 15.0136364,
                "end_time": 15.3636364,
                "pitch": 56,
                "velocity": 64,
                "duration": 0.35,
                "tempo": 120.0
            },
            {
                "start_time": 15.3795455,
                "end_time": 15.5795455,
                "pitch": 53,
                "velocity": 64,
                "duration": 0.2,
                "tempo": 120.0
            }
        ]
    }
}