{
    "mood": "angry",
    "instruments": {
        "Acoustic Bass": [
            {
                "start_time": 0.0045455,
                "end_time": 1.5909091,
                "pitch": 33,
                "velocity": 101,
                "duration": 1.5863636,
                "tempo": 120.0
            },
            {
                "start_time": 3.0113636,
                "end_time": 3.1909091,
                "pitch": 29,
                "velocity": 101,
                "duration": 0.1795455,
                "tempo": 120.0
            },
            {
                "start_time": 3.2068182,
                "end_time": 3.7977273,
                "pitch": 31,
                "velocity": 101,
                "duration": 0.5909091,
                "tempo": 120.0
            },
            {
                "start_time": 3.8136364,
                "end_time": 4.4022727,
                "pitch": 36,
                "velocity": 101,
                "duration": 0.5886364,
                "tempo": 120.0
            },
            {
                "start_time": 4.4204545,
                "end_time": 5.0068182,
                "pitch": 35,
                "velocity": 101,
                "duration": 0.5863636,
                "tempo": 120.0
            },
            {
                "start_time": 5.0227273,
                "end_time": 5.5977273,
                "pitch": 31,
                "velocity": 101,
                "duration": 0.575,
                "tempo": 120.0
            },
            {
                "start_time": 5.6159091,
                "end_time": 6.0090909,
                "pitch": 29,
                "velocity": 101,
                "duration": 0.3931818,
                "tempo": 120.0
            },
            {
                "start_time": 6.025,
                "end_time": 6.4,
                "pitch": 31,
                "velocity": 101,
                "duration": 0.375,
                "tempo": 120.0
            },
            {
                "start_time": 6.4181818,
                "end_time": 8.0068182,
                "pitch": 33,
                "velocity": 101,
                "duration": 1.5886364,
                "tempo": 120.0
            },
            {
                "start_time": 9.4318182,
                "end_time": 9.6113636,
                "pitch": 29,
                "velocity": 101,
                "duration": 0.1795455,
                "tempo": 120.0
            },
            {
                "start_time": 9.6272727,
                "end_time": 10.2181818,
                "pitch": 31,
                "velocity": 101,
                "duration": 0.5909091,
                "tempo": 120.0
            },
            {
                "start_time": 10.2340909,
                "end_time": 10.825,
                "pitch": 31,
                "velocity": 101,
                "duration": 0.5909091,
                "tempo": 120.0
            },
            {
                "start_time": 10.8409091,
                "end_time": 12.0227273,
                "pitch": 38,
                "velocity": 101,
                "duration": 1.1818182,
                "tempo": 120.0
            },
            {
                "start_time": 12.0386364,
                "end_time": 12.425,
                "pitch": 33,
                "velocity": 101,
                "duration": 0.3863636,
                "tempo": 120.0
            },
            {
                "start_time": 12.4409091,
                "end_time": 12.8363636,
                "pitch": 31,
                "velocity": 101,
                "duration": 0.3954545,
                "tempo": 120.0
            },
            {
                "start_time": 12.8522727,
                "end_time": 14.4431818,
                "pitch": 33,
                "velocity": 101,
                "duration": 1.5909091,
                "tempo": 120.0
            },
            {
                "start_time": 15.8613636,
                "end_time": 16.0409091,
                "pitch": 29,
                "velocity": 101,
                "duration": 0.1795455,
                "tempo": 120.0
            },
            {
                "start_time": 16.0590909,
                "end_time": 16.6477273,
                "pitch": 31,
                "velocity": 101,
                "duration": 0.5886364,
                "tempo": 120.0
            },
            {
                "start_time": 16.6659091,
                "end_time": 17.2545455,
                "pitch": 36,
                "velocity": 101,
                "duration": 0.5886364,
                "tempo": 120.0
            },
            {
                "start_time": 17.2727273,
                "end_time": 17.8568182,
                "pitch": 35,
                "velocity": 101,
                "duration": 0.5840909,
                "tempo": 120.0
            },
            {
                "start_time": 17.875,
                "end_time": 18.45,
                "pitch": 31,
                "velocity": 101,
                "duration": 0.575,
                "tempo": 120.0
            },
            {
                "start_time": 18.4659091,
                "end_time": 18.8590909,
                "pitch": 29,
                "velocity": 101,
                "duration": 0.3931818,
                "tempo": 120.0
            },
            {
                "start_time": 18.8772727,
                "end_time": 19.2522727,
                "pitch": 31,
                "velocity": 101,
                "duration": 0.375,
                "tempo": 120.0
            },
            {
                "start_time": 19.2681818,
                "end_time": 20.8590909,
                "pitch": 33,
                "velocity": 101,
                "duration": 1.5909091,
                "tempo": 120.0
            },
            {
                "start_time": 22.2840909,
                "end_time": 22.4636364,
                "pitch": 29,
                "velocity": 101,
                "duration": 0.1795455,
                "tempo": 120.0
            },
            {
                "start_time": 22.4795455,
                "end_time": 23.0704545,
                "pitch": 31,
                "velocity": 101,
                "duration": 0.5909091,
                "tempo": 120.0
            },
            {
                "start_time": 23.0863636,
                "end_time": 23.675,
                "pitch": 36,
                "velocity": 101,
                "duration": 0.5886364,
                "tempo": 120.0
            },
            {
                "start_time": 23.6931818,
                "end_time": 24.8386364,
                "pitch": 38,
                "velocity": 101,
                "duration": 1.1454545,
                "tempo": 120.0
            },
            {
                "start_time": 24.8545455,
                "end_time": 25.2727273,
                "pitch": 33,
                "velocity": 101,
                "duration": 0.4181818,
                "tempo": 120.0
            },
            {
                "start_time": 25.2909091,
                "end_time": 25.6840909,
                "pitch": 31,
                "velocity": 101,
                "duration": 0.3931818,
                "tempo": 120.0
            },
            {
                "start_time": 25.7,
                "end_time": 26.8795455,
                "pitch": 34,
                "velocity": 101,
                "duration": 1.1795455,
                "tempo": 120.0
            },
            {
                "start_time": 26.8954545,
                "end_time": 27.2886364,
                "pitch": 41,
                "velocity": 101,
                "duration": 0.3931818,
                "tempo": 120.0
            },
            {
                "start_time": 27.3068182,
                "end_time": 27.6931818,
                "pitch": 44,
                "velocity": 101,
                "duration": 0.3863636,
                "tempo": 120.0
            },
            {
                "start_time": 27.7090909,
                "end_time": 28.4840909,
                "pitch": 39,
                "velocity": 101,
                "duration": 0.775,
                "tempo": 120.0
            },
            {
                "start_time": 28.5022727,
                "end_time": 28.8840909,
                "pitch": 50,
                "velocity": 101,
                "duration": 0.3818182,
                "tempo": 120.0
            },
            {
                "start_time": 28.9022727,
                "end_time": 30.2909091,
                "pitch": 44,
                "velocity": 101,
                "duration": 1.3886364,
                "tempo": 120.0
            },
            {
                "start_time": 30.3068182,
                "end_time": 30.4909091,
                "pitch": 48,
                "velocity": 101,
                "duration": 0.1840909,
                "tempo": 120.0
            },
            {
                "start_time": 30.5068182,
                "end_time": 31.9045455,
                "pitch": 36,
                "velocity": 101,
                "duration": 1.3977273,
                "tempo": 120.0
            },
            {
                "start_time": 31.9204545,
                "end_time": 32.1045455,
                "pitch": 43,
                "velocity": 101,
                "duration": 0.1840909,
                "tempo": 120.0
            },
            {
                "start_time": 32.1204545,
                "end_time": 33.2954545,
                "pitch": 41,
                "velocity": 101,
                "duration": 1.175,
                "tempo": 120.0
            },
            {
                "start_time": 33.3136364,
                "end_time": 33.7068182,
                "pitch": 48,
                "velocity": 101,
                "duration": 0.3931818,
                "tempo": 120.0
            },
            {
                "start_time": 33.7227273,
                "end_time": 34.8977273,
                "pitch": 46,
                "velocity": 101,
                "duration": 1.175,
                "tempo": 120.0
            },
            {
                "start_time": 34.9159091,
                "end_time": 35.3090909,
                "pitch": 53,
                "velocity": 101,
                "duration": 0.3931818,
                "tempo": 120.0
            },
            {
                "start_time": 35.325,
                "end_time": 36.5045455,
                "pitch": 44,
                "velocity": 101,
                "duration": 1.1795455,
                "tempo": 120.0
            },
            {
                "start_time": 36.5204545,
                "end_time": 36.9136364,
                "pitch": 51,
                "velocity": 101,
                "duration": 0.3931818,
                "tempo": 120.0
            },
            {
                "start_time": 36.9318182,
                "end_time": 38.4522727,
                "pitch": 50,
                "velocity": 101,
                "duration": 1.5204545,
                "tempo": 120.0
            },
            {
                "start_time": 38.5363636,
                "end_time": 40.1227273,
                "pitch": 33,
                "velocity": 101,
                "duration": 1.5863636,
                "tempo": 120.0
            }
        ],
        "Clarinet": [
            {
                "start_time": 0.0727273,
                "end_time": 1.2590909,
                "pitch": 57,
                "velocity": 64,
                "duration": 1.1863636,
                "tempo": 120.0
            },
            {
                "start_time": 1.275,
                "end_time": 1.6568182,
                "pitch": 64,
                "velocity": 64,
                "duration": 0.3818182,
                "tempo": 120.0
            },
            {
                "start_time": 1.6727273,
                "end_time": 1.9931818,
                "pitch": 67,
                "velocity": 64,
                "duration": 0.3204545,
                "tempo": 120.0
            },
            {
                "start_time": 1.9931818,
                "end_time": 2.05,
                "pitch": 67,
                "velocity": 64,
                "duration": 0.0568182,
                "tempo": 120.0
            },
            {
                "start_time": 2.0659091,
                "end_time": 3.2568182,
                "pitch": 62,
                "velocity": 64,
                "duration": 1.1909091,
                "tempo": 120.0
            },
            {
                "start_time": 3.275,
                "end_time": 4.6727273,
                "pitch": 62,
                "velocity": 64,
                "duration": 1.3977273,
                "tempo": 120.0
            },
            {
                "start_time": 4.6886364,
                "end_time": 4.8727273,
                "pitch": 71,
                "velocity": 64,
                "duration": 0.1840909,
                "tempo": 120.0
            },
            {
                "start_time": 4.8886364,
                "end_time": 6.2704545,
                "pitch": 59,
                "velocity": 64,
                "duration": 1.3818182,
                "tempo": 120.0
            },
            {
                "start_time": 6.2863636,
                "end_time": 6.4681818,
                "pitch": 66,
                "velocity": 64,
                "duration": 0.1818182,
                "tempo": 120.0
            },
            {
                "start_time": 6.4863636,
                "end_time": 7.6795455,
                "pitch": 64,
                "velocity": 64,
                "duration": 1.1931818,
                "tempo": 120.0
            },
            {
                "start_time": 7.6954545,
                "end_time": 8.075,
                "pitch": 71,
                "velocity": 64,
                "duration": 0.3795455,
                "tempo": 120.0
            },
            {
                "start_time": 8.0909091,
                "end_time": 9.2840909,
                "pitch": 69,
                "velocity": 64,
                "duration": 1.1931818,
                "tempo": 120.0
            },
            {
                "start_time": 9.3022727,
                "end_time": 9.6795455,
                "pitch": 76,
                "velocity": 64,
                "duration": 0.3772727,
                "tempo": 120.0
            },
            {
                "start_time": 9.6954545,
                "end_time": 10.8909091,
                "pitch": 67,
                "velocity": 64,
                "duration": 1.1954545,
                "tempo": 120.0
            },
            {
                "start_time": 10.9090909,
                "end_time": 11.2954545,
                "pitch": 74,
                "velocity": 64,
                "duration": 0.3863636,
                "tempo": 120.0
            },
            {
                "start_time": 11.3113636,
                "end_time": 12.9022727,
                "pitch": 73,
                "velocity": 64,
                "duration": 1.5909091,
                "tempo": 120.0
            },
            {
                "start_time": 12.9204545,
                "end_time": 14.1090909,
                "pitch": 57,
                "velocity": 64,
                "duration": 1.1886364,
                "tempo": 120.0
            },
            {
                "start_time": 14.125,
                "end_time": 14.5113636,
                "pitch": 64,
                "velocity": 64,
                "duration": 0.3863636,
                "tempo": 120.0
            },
            {
                "start_time": 14.5272727,
                "end_time": 14.9113636,
                "pitch": 67,
                "velocity": 64,
                "duration": 0.3840909,
                "tempo": 120.0
            },
            {
                "start_time": 14.9295455,
                "end_time": 16.1090909,
                "pitch": 62,
                "velocity": 64,
                "duration": 1.1795455,
                "tempo": 120.0
            },
            {
                "start_time": 16.1272727,
                "end_time": 17.5227273,
                "pitch": 62,
                "velocity": 64,
                "duration": 1.3954545,
                "tempo": 120.0
            },
            {
                "start_time": 17.5409091,
                "end_time": 17.725,
                "pitch": 71,
                "velocity": 64,
                "duration": 0.1840909,
                "tempo": 120.0
            },
            {
                "start_time": 17.7409091,
                "end_time": 19.1227273,
                "pitch": 59,
                "velocity": 64,
                "duration": 1.3818182,
                "tempo": 120.0
            },
            {
                "start_time": 19.1386364,
                "end_time": 19.3204545,
                "pitch": 66,
                "velocity": 64,
                "duration": 0.1818182,
                "tempo": 120.0
            },
            {
                "start_time": 19.3363636,
                "end_time": 20.5318182,
                "pitch": 64,
                "velocity": 64,
                "duration": 1.1954545,
                "tempo": 120.0
            },
            {
                "start_time": 20.5477273,
                "end_time": 20.925,
                "pitch": 71,
                "velocity": 64,
                "duration": 0.3772727,
                "tempo": 120.0
            },
            {
                "start_time": 20.9431818,
                "end_time": 22.1363636,
                "pitch": 69,
                "velocity": 64,
                "duration": 1.1931818,
                "tempo": 120.0
            },
            {
                "start_time": 22.1522727,
                "end_time": 22.5318182,
                "pitch": 76,
                "velocity": 64,
                "duration": 0.3795455,
                "tempo": 120.0
            },
            {
                "start_time": 22.5477273,
                "end_time": 23.7409091,
                "pitch": 67,
                "velocity": 64,
                "duration": 1.1931818,
                "tempo": 120.0
            },
            {
                "start_time": 23.7590909,
                "end_time": 24.1363636,
                "pitch": 74,
                "velocity": 64,
                "duration": 0.3772727,
                "tempo": 120.0
            },
            {
                "start_time": 24.1522727,
                "end_time": 25.75,
                "pitch": 73,
                "velocity": 64,
                "duration": 1.5977273,
                "tempo": 120.0
            },
            {
                "start_time": 25.7659091,
                "end_time": 26.35,
                "pitch": 62,
                "velocity": 64,
                "duration": 0.5840909,
                "tempo": 120.0
            },
            {
                "start_time": 26.3659091,
                "end_time": 26.9477273,
                "pitch": 64,
                "velocity": 64,
                "duration": 0.5818182,
                "tempo": 120.0
            },
            {
                "start_time": 26.9636364,
                "end_time": 27.3568182,
                "pitch": 67,
                "velocity": 64,
                "duration": 0.3931818,
                "tempo": 120.0
            },
            {
                "start_time": 27.3727273,
                "end_time": 28.4840909,
                "pitch": 62,
                "velocity": 64,
                "duration": 1.1113636,
                "tempo": 120.0
            },
            {
                "start_time": 28.9681818,
                "end_time": 29.9568182,
                "pitch": 65,
                "velocity": 64,
                "duration": 0.9886364,
                "tempo": 120.0
            },
            {
                "start_time": 29.9727273,
                "end_time": 30.3568182,
                "pitch": 72,
                "velocity": 64,
                "duration": 0.3840909,
                "tempo": 120.0
            },
            {
                "start_time": 30.3727273,
                "end_time": 30.5568182,
                "pitch": 70,
                "velocity": 64,
                "duration": 0.1840909,
                "tempo": 120.0
            },
            {
                "start_time": 30.5727273,
                "end_time": 31.1636364,
                "pitch": 69,
                "velocity": 64,
                "duration": 0.5909091,
                "tempo": 120.0
            },
            {
                "start_time": 31.1818182,
                "end_time": 31.7704545,
                "pitch": 65,
                "velocity": 64,
                "duration": 0.5886364,
                "tempo": 120.0
            },
            {
                "start_time": 31.7863636,
                "end_time": 32.1704545,
                "pitch": 62,
                "velocity": 64,
                "duration": 0.3840909,
                "tempo": 120.0
            },
            {
                "start_time": 32.1863636,
                "end_time": 33.7727273,
                "pitch": 62,
                "velocity": 64,
                "duration": 1.5863636,
                "tempo": 120.0
            },
            {
                "start_time": 33.7886364,
                "end_time": 33.8704545,
                "pitch": 57,
                "velocity": 64,
                "duration": 0.0818182,
                "tempo": 120.0
            },
            {
                "start_time": 33.8863636,
                "end_time": 33.9681818,
                "pitch": 50,
                "velocity": 64,
                "duration": 0.0818182,
                "tempo": 120.0
            },
            {
                "start_time": 33.9840909,
                "end_time": 34.0659091,
                "pitch": 52,
                "velocity": 64,
                "duration": 0.0818182,
                "tempo": 120.0
            },
            {
                "start_time": 34.0818182,
                "end_time": 34.1659091,
                "pitch": 53,
                "velocity": 64,
                "duration": 0.0840909,
                "tempo": 120.0
            },
            {
                "start_time": 34.1818182,
                "end_time": 34.2659091,
                "pitch": 55,
                "velocity": 64,
                "duration": 0.0840909,
                "tempo": 120.0
            },
            {
                "start_time": 34.2818182,
                "end_time": 34.3659091,
                "pitch": 56,
                "velocity": 64,
                "duration": 0.0840909,
                "tempo": 120.0
            },
            {
                "start_time": 34.3818182,
                "end_time": 34.4659091,
                "pitch": 58,
                "velocity": 64,
                "duration": 0.0840909,
                "tempo": 120.0
            },
            {
                "start_time": 34.4818182,
                "end_time": 34.5659091,
                "pitch": 60,
                "velocity": 64,
                "duration": 0.0840909,
                "tempo": 120.0
            },
            {
                "start_time": 34.5818182,
                "end_time": 34.6659091,
                "pitch": 61,
                "velocity": 64,
                "duration": 0.0840909,
                "tempo": 120.0
            },
            {
                "start_time": 34.6818182,
                "end_time": 34.7659091,
                "pitch": 63,
                "velocity": 64,
                "duration": 0.0840909,
                "tempo": 120.0
            },
            {
                "start_time": 34.7818182,
                "end_time": 35.1727273,
                "pitch": 67,
                "velocity": 64,
                "duration": 0.3909091,
                "tempo": 120.0
            },
            {
                "start_time": 35.1886364,
                "end_time": 35.375,
                "pitch": 74,
                "velocity": 64,
                "duration": 0.1863636,
                "tempo": 120.0
            },
            {
                "start_time": 35.3909091,
                "end_time": 36.3727273,
                "pitch": 72,
                "velocity": 64,
                "duration": 0.9818182,
                "tempo": 120.0
            },
            {
                "start_time": 36.3909091,
                "end_time": 36.7772727,
                "pitch": 70,
                "velocity": 64,
                "duration": 0.3863636,
                "tempo": 120.0
            },
            {
                "start_time": 36.7954545,
                "end_time": 36.9795455,
                "pitch": 72,
                "velocity": 64,
                "duration": 0.1840909,
                "tempo": 120.0
            },
            {
                "start_time": 36.9954545,
                "end_time": 38.5545455,
                "pitch": 74,
                "velocity": 64,
                "duration": 1.5590909,
                "tempo": 120.0
            },
            {
                "start_time": 38.6045455,
                "end_time": 39.7909091,
                "pitch": 57,
                "velocity": 64,
                "duration": 1.1863636,
                "tempo": 120.0
            },
            {
                "start_time": 39.8068182,
                "end_time": 40.1909091,
                "pitch": 64,
                "velocity": 64,
                "duration": 0.3840909,
                "tempo": 120.0
            },
            {
                "start_time": 40.2068182,
                "end_time": 40.525,
                "pitch": 67,
                "velocity": 64,
                "duration": 0.3181818,
                "tempo": 120.0
            }
        ],
        "Violin": [
            {
                "start_time": 0.0386364,
                "end_time": 1.225,
                "pitch": 69,
                "velocity": 80,
                "duration": 1.1863636,
                "tempo": 120.0
            },
            {
                "start_time": 1.2409091,
                "end_time": 1.625,
                "pitch": 76,
                "velocity": 80,
                "duration": 0.3840909,
                "tempo": 120.0
            },
            {
                "start_time": 1.6409091,
                "end_time": 1.9931818,
                "pitch": 79,
                "velocity": 80,
                "duration": 0.3522727,
                "tempo": 120.0
            },
            {
                "start_time": 1.9931818,
                "end_time": 2.0159091,
                "pitch": 79,
                "velocity": 80,
                "duration": 0.0227273,
                "tempo": 120.0
            },
            {
                "start_time": 2.0340909,
                "end_time": 3.2227273,
                "pitch": 74,
                "velocity": 80,
                "duration": 1.1886364,
                "tempo": 120.0
            },
            {
                "start_time": 3.2409091,
                "end_time": 4.6386364,
                "pitch": 74,
                "velocity": 80,
                "duration": 1.3977273,
                "tempo": 120.0
            },
            {
                "start_time": 4.6545455,
                "end_time": 4.8386364,
                "pitch": 83,
                "velocity": 80,
                "duration": 0.1840909,
                "tempo": 120.0
            },
            {
                "start_time": 4.8568182,
                "end_time": 6.2386364,
                "pitch": 71,
                "velocity": 80,
                "duration": 1.3818182,
                "tempo": 120.0
            },
            {
                "start_time": 6.2545455,
                "end_time": 6.4340909,
                "pitch": 78,
                "velocity": 80,
                "duration": 0.1795455,
                "tempo": 120.0
            },
            {
                "start_time": 6.4522727,
                "end_time": 7.6477273,
                "pitch": 76,
                "velocity": 80,
                "duration": 1.1954545,
                "tempo": 120.0
            },
            {
                "start_time": 7.6636364,
                "end_time": 8.0386364,
                "pitch": 83,
                "velocity": 80,
                "duration": 0.375,
                "tempo": 120.0
            },
            {
                "start_time": 8.0568182,
                "end_time": 9.2522727,
                "pitch": 81,
                "velocity": 80,
                "duration": 1.1954545,
                "tempo": 120.0
            },
            {
                "start_time": 9.2681818,
                "end_time": 9.6454545,
                "pitch": 88,
                "velocity": 80,
                "duration": 0.3772727,
                "tempo": 120.0
            },
            {
                "start_time": 9.6613636,
                "end_time": 10.8590909,
                "pitch": 79,
                "velocity": 80,
                "duration": 1.1977273,
                "tempo": 120.0
            },
            {
                "start_time": 10.875,
                "end_time": 11.2613636,
                "pitch": 86,
                "velocity": 80,
                "duration": 0.3863636,
                "tempo": 120.0
            },
            {
                "start_time": 11.2772727,
                "end_time": 12.8704545,
                "pitch": 85,
                "velocity": 80,
                "duration": 1.5931818,
                "tempo": 120.0
            },
            {
                "start_time": 12.8863636,
                "end_time": 14.075,
                "pitch": 69,
                "velocity": 80,
                "duration": 1.1886364,
                "tempo": 120.0
            },
            {
                "start_time": 14.0909091,
                "end_time": 14.4772727,
                "pitch": 76,
                "velocity": 80,
                "duration": 0.3863636,
                "tempo": 120.0
            },
            {
                "start_time": 14.4954545,
                "end_time": 14.8795455,
                "pitch": 79,
                "velocity": 80,
                "duration": 0.3840909,
                "tempo": 120.0
            },
            {
                "start_time": 14.8954545,
                "end_time": 16.075,
                "pitch": 74,
                "velocity": 80,
                "duration": 1.1795455,
                "tempo": 120.0
            },
            {
                "start_time": 16.0931818,
                "end_time": 17.4909091,
                "pitch": 74,
                "velocity": 80,
                "duration": 1.3977273,
                "tempo": 120.0
            },
            {
                "start_time": 17.5068182,
                "end_time": 17.6909091,
                "pitch": 83,
                "velocity": 80,
                "duration": 0.1840909,
                "tempo": 120.0
            },
            {
                "start_time": 17.7068182,
                "end_time": 19.0886364,
                "pitch": 71,
                "velocity": 80,
                "duration": 1.3818182,
                "tempo": 120.0
            },
            {
                "start_time": 19.1068182,
                "end_time": 19.2863636,
                "pitch": 78,
                "velocity": 80,
                "duration": 0.1795455,
                "tempo": 120.0
            },
            {
                "start_time": 19.3022727,
                "end_time": 20.4977273,
                "pitch": 76,
                "velocity": 80,
                "duration": 1.1954545,
                "tempo": 120.0
            },
            {
                "start_time": 20.5159091,
                "end_time": 20.8909091,
                "pitch": 83,
                "velocity": 80,
                "duration": 0.375,
                "tempo": 120.0
            },
            {
                "start_time": 20.9090909,
                "end_time": 22.1045455,
                "pitch": 81,
                "velocity": 80,
                "duration": 1.1954545,
                "tempo": 120.0
            },
            {
                "start_time": 22.1204545,
                "end_time": 22.4977273,
                "pitch": 88,
                "velocity": 80,
                "duration": 0.3772727,
                "tempo": 120.0
            },
            {
                "start_time": 22.5136364,
                "end_time": 23.7090909,
                "pitch": 79,
                "velocity": 80,
                "duration": 1.1954545,
                "tempo": 120.0
            },
            {
                "start_time": 23.725,
                "end_time": 24.1022727,
                "pitch": 86,
                "velocity": 80,
                "duration": 0.3772727,
                "tempo": 120.0
            },
            {
                "start_time": 24.1181818,
                "end_time": 25.7181818,
                "pitch": 85,
                "velocity": 80,
                "duration": 1.6,
                "tempo": 120.0
            },
            {
                "start_time": 25.7340909,
                "end_time": 26.3159091,
                "pitch": 74,
                "velocity": 80,
                "duration": 0.5818182,
                "tempo": 120.0
            },
            {
                "start_time": 26.3318182,
                "end_time": 26.9136364,
                "pitch": 76,
                "velocity": 80,
                "duration": 0.5818182,
                "tempo": 120.0
            },
            {
                "start_time": 26.9295455,
                "end_time": 27.3227273,
                "pitch": 79,
                "velocity": 80,
                "duration": 0.3931818,
                "tempo": 120.0
            },
            {
                "start_time": 27.3409091,
                "end_time": 28.4522727,
                "pitch": 74,
                "velocity": 80,
                "duration": 1.1113636,
                "tempo": 120.0
            },
            {
                "start_time": 28.9340909,
                "end_time": 29.9227273,
                "pitch": 77,
                "velocity": 80,
                "duration": 0.9886364,
                "tempo": 120.0
            },
            {
                "start_time": 29.9386364,
                "end_time": 30.3227273,
                "pitch": 84,
                "velocity": 80,
                "duration": 0.3840909,
                "tempo": 120.0
            },
            {
                "start_time": 30.3409091,
                "end_time": 30.5227273,
                "pitch": 82,
                "velocity": 80,
                "duration": 0.1818182,
                "tempo": 120.0
            },
            {
                "start_time": 30.5409091,
                "end_time": 31.1295455,
                "pitch": 81,
                "velocity": 80,
                "duration": 0.5886364,
                "tempo": 120.0
            },
            {
                "start_time": 31.1454545,
                "end_time": 31.7363636,
                "pitch": 77,
                "velocity": 80,
                "duration": 0.5909091,
                "tempo": 120.0
            },
            {
                "start_time": 31.7545455,
                "end_time": 32.1363636,
                "pitch": 74,
                "velocity": 80,
                "duration": 0.3818182,
                "tempo": 120.0
            },
            {
                "start_time": 32.1545455,
                "end_time": 33.7386364,
                "pitch": 74,
                "velocity": 80,
                "duration": 1.5840909,
                "tempo": 120.0
            },
            {
                "start_time": 33.7568182,
                "end_time": 33.8363636,
                "pitch": 69,
                "velocity": 80,
                "duration": 0.0795455,
                "tempo": 120.0
            },
            {
                "start_time": 33.8545455,
                "end_time": 33.9363636,
                "pitch": 62,
                "velocity": 80,
                "duration": 0.0818182,
                "tempo": 120.0
            },
            {
                "start_time": 33.9522727,
                "end_time": 34.0340909,
                "pitch": 64,
                "velocity": 80,
                "duration": 0.0818182,
                "tempo": 120.0
            },
            {
                "start_time": 34.05,
                "end_time": 34.1318182,
                "pitch": 65,
                "velocity": 80,
                "duration": 0.0818182,
                "tempo": 120.0
            },
            {
                "start_time": 34.1477273,
                "end_time": 34.2318182,
                "pitch": 67,
                "velocity": 80,
                "duration": 0.0840909,
                "tempo": 120.0
            },
            {
                "start_time": 34.2477273,
                "end_time": 34.3318182,
                "pitch": 68,
                "velocity": 80,
                "duration": 0.0840909,
                "tempo": 120.0
            },
            {
                "start_time": 34.3477273,
                "end_time": 34.4318182,
                "pitch": 70,
                "velocity": 80,
                "duration": 0.0840909,
                "tempo": 120.0
            },
            {
                "start_time": 34.4477273,
                "end_time": 34.5318182,
                "pitch": 72,
                "velocity": 80,
                "duration": 0.0840909,
                "tempo": 120.0
            },
            {
                "start_time": 34.5477273,
                "end_time": 34.6318182,
                "pitch": 73,
                "velocity": 80,
                "duration": 0.0840909,
                "tempo": 120.0
            },
            {
                "start_time": 34.6477273,
                "end_time": 34.7318182,
                "pitch": 75,
                "velocity": 80,
                "duration": 0.0840909,
                "tempo": 120.0
            },
            {
                "start_time": 34.7477273,
                "end_time": 35.1386364,
                "pitch": 79,
                "velocity": 80,
                "duration": 0.3909091,
                "tempo": 120.0
            },
            {
                "start_time": 35.1545455,
                "end_time": 35.3431818,
                "pitch": 86,
                "velocity": 80,
                "duration": 0.1886364,
                "tempo": 120.0
            },
            {
                "start_time": 35.3590909,
                "end_time": 36.3409091,
                "pitch": 84,
                "velocity": 80,
                "duration": 0.9818182,
                "tempo": 120.0
            },
            {
                "start_time": 36.3568182,
                "end_time": 36.7431818,
                "pitch": 82,
                "velocity": 80,
                "duration": 0.3863636,
                "tempo": 120.0
            },
            {
                "start_time": 36.7613636,
                "end_time": 36.9477273,
                "pitch": 84,
                "velocity": 80,
                "duration": 0.1863636,
                "tempo": 120.0
            },
            {
                "start_time": 36.9636364,
                "end_time": 38.5204545,
                "pitch": 86,
                "velocity": 80,
                "duration": 1.5568182,
                "tempo": 120.0
            },
            {
                "start_time": 38.5704545,
                "end_time": 39.7568182,
                "pitch": 69,
                "velocity": 80,
                "duration": 1.1863636,
                "tempo": 120.0
            },
            {
                "start_time": 39.7727273,
                "end_time": 40.1568182,
                "pitch": 76,
                "velocity": 80,
                "duration": 0.3840909,
                "tempo": 120.0
            },
            {
                "start_time": 40.1727273,
                "end_time": 40.525,
                "pitch": 79,
                "velocity": 80,
                "duration": 0.3522727,
                "tempo": 120.0
            }
        ]
    }
}