{
    "mood": "angry",
    "instruments": {
        "Violin": [
            {
                "start_time": 0.0068182,
                "end_time": 0.1363636,
                "pitch": 52,
                "velocity": 127,
                "duration": 0.1295455,
                "tempo": 120.0
            },
            {
                "start_time": 0.1522727,
                "end_time": 0.2886364,
                "pitch": 55,
                "velocity": 127,
                "duration": 0.1363636,
                "tempo": 120.0
            },
            {
                "start_time": 0.3045455,
                "end_time": 1.7795455,
                "pitch": 66,
                "velocity": 127,
                "duration": 1.475,
                "tempo": 120.0
            },
            {
                "start_time": 1.7954545,
                "end_time": 1.8295455,
                "pitch": 63,
                "velocity": 127,
                "duration": 0.0340909,
                "tempo": 120.0
            },
            {
                "start_time": 1.8477273,
                "end_time": 2.0818182,
                "pitch": 64,
                "velocity": 127,
                "duration": 0.2340909,
                "tempo": 120.0
            },
            {
                "start_time": 2.1,
                "end_time": 3.8954545,
                "pitch": 59,
                "velocity": 127,
                "duration": 1.7954545,
                "tempo": 120.0
            },
            {
                "start_time": 3.9113636,
                "end_time": 4.1977273,
                "pitch": 57,
                "velocity": 127,
                "duration": 0.2863636,
                "tempo": 120.0
            },
            {
                "start_time": 4.2136364,
                "end_time": 4.5045455,
                "pitch": 60,
                "velocity": 127,
                "duration": 0.2909091,
                "tempo": 120.0
            },
            {
                "start_time": 4.5204545,
                "end_time": 4.6568182,
                "pitch": 62,
                "velocity": 127,
                "duration": 0.1363636,
                "tempo": 120.0
            },
            {
                "start_time": 4.6727273,
                "end_time": 7.2090909,
                "pitch": 59,
                "velocity": 127,
                "duration": 2.5363636,
                "tempo": 120.0
            },
            {
                "start_time": 9.6386364,
                "end_time": 9.775,
                "pitch": 52,
                "velocity": 127,
                "duration": 0.1363636,
                "tempo": 120.0
            },
            {
                "start_time": 9.7909091,
                "end_time": 9.9272727,
                "pitch": 55,
                "velocity": 127,
                "duration": 0.1363636,
                "tempo": 120.0
            },
            {
                "start_time": 9.9454545,
                "end_time": 11.4340909,
                "pitch": 66,
                "velocity": 127,
                "duration": 1.4886364,
                "tempo": 120.0
            },
            {
                "start_time": 11.4522727,
                "end_time": 11.4840909,
                "pitch": 63,
                "velocity": 127,
                "duration": 0.0318182,
                "tempo": 120.0
            },
            {
                "start_time": 11.5022727,
                "end_time": 11.7340909,
                "pitch": 64,
                "velocity": 127,
                "duration": 0.2318182,
                "tempo": 120.0
            },
            {
                "start_time": 11.7522727,
                "end_time": 13.5409091,
                "pitch": 59,
                "velocity": 127,
                "duration": 1.7886364,
                "tempo": 120.0
            },
            {
                "start_time": 13.5568182,
                "end_time": 13.8409091,
                "pitch": 57,
                "velocity": 127,
                "duration": 0.2840909,
                "tempo": 120.0
            },
            {
                "start_time": 13.8568182,
                "end_time": 14.1454545,
                "pitch": 60,
                "velocity": 127,
                "duration": 0.2886364,
                "tempo": 120.0
            },
            {
                "start_time": 14.1636364,
                "end_time": 14.3,
                "pitch": 62,
                "velocity": 127,
                "duration": 0.1363636,
                "tempo": 120.0
            },
            {
                "start_time": 14.3159091,
                "end_time": 16.8477273,
                "pitch": 59,
                "velocity": 127,
                "duration": 2.5318182,
                "tempo": 120.0
            },
            {
                "start_time": 19.2818182,
                "end_time": 20.5272727,
                "pitch": 66,
                "velocity": 127,
                "duration": 1.2454545,
                "tempo": 120.0
            },
            {
                "start_time": 21.3909091,
                "end_time": 21.525,
                "pitch": 62,
                "velocity": 127,
                "duration": 0.1340909,
                "tempo": 120.0
            },
            {
                "start_time": 21.5431818,
                "end_time": 21.6772727,
                "pitch": 64,
                "velocity": 127,
                "duration": 0.1340909,
                "tempo": 120.0
            },
            {
                "start_time": 21.6954545,
                "end_time": 22.5863636,
                "pitch": 66,
                "velocity": 127,
                "duration": 0.8909091,
                "tempo": 120.0
            },
            {
                "start_time": 22.6022727,
                "end_time": 23.1886364,
                "pitch": 69,
                "velocity": 127,
                "duration": 0.5863636,
                "tempo": 120.0
            },
            {
                "start_time": 23.2068182,
                "end_time": 23.7977273,
                "pitch": 67,
                "velocity": 127,
                "duration": 0.5909091,
                "tempo": 120.0
            },
            {
                "start_time": 23.8159091,
                "end_time": 24.1022727,
                "pitch": 66,
                "velocity": 127,
                "duration": 0.2863636,
                "tempo": 120.0
            },
            {
                "start_time": 24.1181818,
                "end_time": 26.1545455,
                "pitch": 62,
                "velocity": 127,
                "duration": 2.0363636,
                "tempo": 120.0
            },
            {
                "start_time": 26.1704545,
                "end_time": 26.5090909,
                "pitch": 57,
                "velocity": 127,
                "duration": 0.3386364,
                "tempo": 120.0
            },
            {
                "start_time": 26.525,
                "end_time": 28.0181818,
                "pitch": 59,
                "velocity": 127,
                "duration": 1.4931818,
                "tempo": 120.0
            },
            {
                "start_time": 28.0340909,
                "end_time": 28.1681818,
                "pitch": 52,
                "velocity": 127,
                "duration": 0.1340909,
                "tempo": 120.0
            },
            {
                "start_time": 28.1863636,
                "end_time": 28.3204545,
                "pitch": 54,
                "velocity": 127,
                "duration": 0.1340909,
                "tempo": 120.0
            },
            {
                "start_time": 28.3363636,
                "end_time": 28.4727273,
                "pitch": 55,
                "velocity": 127,
                "duration": 0.1363636,
                "tempo": 120.0
            },
            {
                "start_time": 28.4909091,
                "end_time": 28.6272727,
                "pitch": 57,
                "velocity": 127,
                "duration": 0.1363636,
                "tempo": 120.0
            },
            {
                "start_time": 28.6431818,
                "end_time": 28.7795455,
                "pitch": 58,
                "velocity": 127,
                "duration": 0.1363636,
                "tempo": 120.0
            },
            {
                "start_time": 28.7954545,
                "end_time": 28.9318182,
                "pitch": 60,
                "velocity": 127,
                "duration": 0.1363636,
                "tempo": 120.0
            },
            {
                "start_time": 28.95,
                "end_time": 29.0818182,
                "pitch": 62,
                "velocity": 127,
                "duration": 0.1318182,
                "tempo": 120.0
            },
            {
                "start_time": 29.1,
                "end_time": 30.1386364,
                "pitch": 52,
                "velocity": 127,
                "duration": 1.0386364,
                "tempo": 120.0
            },
            {
                "start_time": 30.1545455,
                "end_time": 30.5931818,
                "pitch": 69,
                "velocity": 127,
                "duration": 0.4386364,
                "tempo": 120.0
            },
            {
                "start_time": 30.6090909,
                "end_time": 31.0454545,
                "pitch": 67,
                "velocity": 127,
                "duration": 0.4363636,
                "tempo": 120.0
            },
            {
                "start_time": 31.0613636,
                "end_time": 31.3454545,
                "pitch": 66,
                "velocity": 127,
                "duration": 0.2840909,
                "tempo": 120.0
            },
            {
                "start_time": 31.3613636,
                "end_time": 32.3954545,
                "pitch": 62,
                "velocity": 127,
                "duration": 1.0340909,
                "tempo": 120.0
            },
            {
                "start_time": 32.4136364,
                "end_time": 32.85,
                "pitch": 60,
                "velocity": 127,
                "duration": 0.4363636,
                "tempo": 120.0
            },
            {
                "start_time": 32.8681818,
                "end_time": 33.4590909,
                "pitch": 59,
                "velocity": 127,
                "duration": 0.5909091,
                "tempo": 120.0
            },
            {
                "start_time": 33.4772727,
                "end_time": 33.7636364,
                "pitch": 57,
                "velocity": 127,
                "duration": 0.2863636,
                "tempo": 120.0
            },
            {
                "start_time": 33.7795455,
                "end_time": 33.9136364,
                "pitch": 55,
                "velocity": 127,
                "duration": 0.1340909,
                "tempo": 120.0
            },
            {
                "start_time": 33.9318182,
                "end_time": 33.9659091,
                "pitch": 56,
                "velocity": 127,
                "duration": 0.0340909,
                "tempo": 120.0
            },
            {
                "start_time": 33.9818182,
                "end_time": 34.6727273,
                "pitch": 57,
                "velocity": 127,
                "duration": 0.6909091,
                "tempo": 120.0
            },
            {
                "start_time": 34.6886364,
                "end_time": 37.6840909,
                "pitch": 55,
                "velocity": 127,
                "duration": 2.9954545,
                "tempo": 120.0
            },
            {
                "start_time": 37.7022727,
                "end_time": 38.3954545,
                "pitch": 62,
                "velocity": 127,
                "duration": 0.6931818,
                "tempo": 120.0
            }
        ],
        "Acoustic Bass": [
            {
                "start_time": 0.0068182,
                "end_time": 0.2886364,
                "pitch": 28,
                "velocity": 64,
                "duration": 0.2818182,
                "tempo": 120.0
            },
            {
                "start_time": 0.3045455,
                "end_time": 0.4909091,
                "pitch": 28,
                "velocity": 64,
                "duration": 0.1863636,
                "tempo": 120.0
            },
            {
                "start_time": 1.7954545,
                "end_time": 2.0818182,
                "pitch": 28,
                "velocity": 64,
                "duration": 0.2863636,
                "tempo": 120.0
            },
            {
                "start_time": 2.1,
                "end_time": 2.2840909,
                "pitch": 28,
                "velocity": 64,
                "duration": 0.1840909,
                "tempo": 120.0
            },
            {
                "start_time": 3.6090909,
                "end_time": 3.8954545,
                "pitch": 34,
                "velocity": 64,
                "duration": 0.2863636,
                "tempo": 120.0
            },
            {
                "start_time": 3.9113636,
                "end_time": 4.1977273,
                "pitch": 41,
                "velocity": 64,
                "duration": 0.2863636,
                "tempo": 120.0
            },
            {
                "start_time": 4.2136364,
                "end_time": 4.35,
                "pitch": 36,
                "velocity": 64,
                "duration": 0.1363636,
                "tempo": 120.0
            },
            {
                "start_time": 4.3681818,
                "end_time": 4.6568182,
                "pitch": 43,
                "velocity": 64,
                "duration": 0.2886364,
                "tempo": 120.0
            },
            {
                "start_time": 4.6727273,
                "end_time": 4.8090909,
                "pitch": 42,
                "velocity": 64,
                "duration": 0.1363636,
                "tempo": 120.0
            },
            {
                "start_time": 4.8272727,
                "end_time": 5.1090909,
                "pitch": 28,
                "velocity": 64,
                "duration": 0.2818182,
                "tempo": 120.0
            },
            {
                "start_time": 5.1272727,
                "end_time": 5.3090909,
                "pitch": 28,
                "velocity": 64,
                "duration": 0.1818182,
                "tempo": 120.0
            },
            {
                "start_time": 6.6272727,
                "end_time": 6.9090909,
                "pitch": 28,
                "velocity": 64,
                "duration": 0.2818182,
                "tempo": 120.0
            },
            {
                "start_time": 6.9272727,
                "end_time": 7.1090909,
                "pitch": 28,
                "velocity": 64,
                "duration": 0.1818182,
                "tempo": 120.0
            },
            {
                "start_time": 8.4340909,
                "end_time": 8.7181818,
                "pitch": 34,
                "velocity": 64,
                "duration": 0.2840909,
                "tempo": 120.0
            },
            {
                "start_time": 8.7363636,
                "end_time": 9.0227273,
                "pitch": 41,
                "velocity": 64,
                "duration": 0.2863636,
                "tempo": 120.0
            },
            {
                "start_time": 9.0386364,
                "end_time": 9.1727273,
                "pitch": 36,
                "velocity": 64,
                "duration": 0.1340909,
                "tempo": 120.0
            },
            {
                "start_time": 9.1886364,
                "end_time": 9.4727273,
                "pitch": 43,
                "velocity": 64,
                "duration": 0.2840909,
                "tempo": 120.0
            },
            {
                "start_time": 9.4886364,
                "end_time": 9.6227273,
                "pitch": 42,
                "velocity": 64,
                "duration": 0.1340909,
                "tempo": 120.0
            },
            {
                "start_time": 9.6386364,
                "end_time": 9.9272727,
                "pitch": 28,
                "velocity": 64,
                "duration": 0.2886364,
                "tempo": 120.0
            },
            {
                "start_time": 9.9454545,
                "end_time": 10.1318182,
                "pitch": 28,
                "velocity": 64,
                "duration": 0.1863636,
                "tempo": 120.0
            },
            {
                "start_time": 11.4522727,
                "end_time": 11.7340909,
                "pitch": 28,
                "velocity": 64,
                "duration": 0.2818182,
                "tempo": 120.0
            },
            {
                "start_time": 11.7522727,
                "end_time": 11.9340909,
                "pitch": 28,
                "velocity": 64,
                "duration": 0.1818182,
                "tempo": 120.0
            },
            {
                "start_time": 13.2568182,
                "end_time": 13.5409091,
                "pitch": 34,
                "velocity": 64,
                "duration": 0.2840909,
                "tempo": 120.0
            },
            {
                "start_time": 13.5568182,
                "end_time": 13.8409091,
                "pitch": 41,
                "velocity": 64,
                "duration": 0.2840909,
                "tempo": 120.0
            },
            {
                "start_time": 13.8568182,
                "end_time": 13.9931818,
                "pitch": 36,
                "velocity": 64,
                "duration": 0.1363636,
                "tempo": 120.0
            },
            {
                "start_time": 14.0113636,
                "end_time": 14.3,
                "pitch": 43,
                "velocity": 64,
                "duration": 0.2886364,
                "tempo": 120.0
            },
            {
                "start_time": 14.3159091,
                "end_time": 14.4522727,
                "pitch": 42,
                "velocity": 64,
                "duration": 0.1363636,
                "tempo": 120.0
            },
            {
                "start_time": 14.4704545,
                "end_time": 14.7522727,
                "pitch": 28,
                "velocity": 64,
                "duration": 0.2818182,
                "tempo": 120.0
            },
            {
                "start_time": 14.7704545,
                "end_time": 14.9522727,
                "pitch": 28,
                "velocity": 64,
                "duration": 0.1818182,
                "tempo": 120.0
            },
            {
                "start_time": 16.2636364,
                "end_time": 16.5477273,
                "pitch": 28,
                "velocity": 64,
                "duration": 0.2840909,
                "tempo": 120.0
            },
            {
                "start_time": 16.5636364,
                "end_time": 16.7477273,
                "pitch": 28,
                "velocity": 64,
                "duration": 0.1840909,
                "tempo": 120.0
            },
            {
                "start_time": 18.0704545,
                "end_time": 18.3568182,
                "pitch": 34,
                "velocity": 64,
                "duration": 0.2863636,
                "tempo": 120.0
            },
            {
                "start_time": 18.3727273,
                "end_time": 18.6590909,
                "pitch": 41,
                "velocity": 64,
                "duration": 0.2863636,
                "tempo": 120.0
            },
            {
                "start_time": 18.675,
                "end_time": 18.8113636,
                "pitch": 36,
                "velocity": 64,
                "duration": 0.1363636,
                "tempo": 120.0
            },
            {
                "start_time": 18.8272727,
                "end_time": 19.1136364,
                "pitch": 43,
                "velocity": 64,
                "duration": 0.2863636,
                "tempo": 120.0
            },
            {
                "start_time": 19.1295455,
                "end_time": 19.2659091,
                "pitch": 42,
                "velocity": 64,
                "duration": 0.1363636,
                "tempo": 120.0
            },
            {
                "start_time": 19.2818182,
                "end_time": 19.5704545,
                "pitch": 28,
                "velocity": 64,
                "duration": 0.2886364,
                "tempo": 120.0
            },
            {
                "start_time": 19.5886364,
                "end_time": 19.775,
                "pitch": 28,
                "velocity": 64,
                "duration": 0.1863636,
                "tempo": 120.0
            },
            {
                "start_time": 21.0886364,
                "end_time": 21.375,
                "pitch": 28,
                "velocity": 64,
                "duration": 0.2863636,
                "tempo": 120.0
            },
            {
                "start_time": 21.3909091,
                "end_time": 21.5772727,
                "pitch": 28,
                "velocity": 64,
                "duration": 0.1863636,
                "tempo": 120.0
            },
            {
                "start_time": 22.9,
                "end_time": 23.1886364,
                "pitch": 34,
                "velocity": 64,
                "duration": 0.2886364,
                "tempo": 120.0
            },
            {
                "start_time": 23.2068182,
                "end_time": 23.4954545,
                "pitch": 41,
                "velocity": 64,
                "duration": 0.2886364,
                "tempo": 120.0
            },
            {
                "start_time": 23.5136364,
                "end_time": 23.6477273,
                "pitch": 36,
                "velocity": 64,
                "duration": 0.1340909,
                "tempo": 120.0
            },
            {
                "start_time": 23.6636364,
                "end_time": 23.95,
                "pitch": 43,
                "velocity": 64,
                "duration": 0.2863636,
                "tempo": 120.0
            },
            {
                "start_time": 23.9681818,
                "end_time": 24.1022727,
                "pitch": 42,
                "velocity": 64,
                "duration": 0.1340909,
                "tempo": 120.0
            },
            {
                "start_time": 24.1181818,
                "end_time": 24.4045455,
                "pitch": 28,
                "velocity": 64,
                "duration": 0.2863636,
                "tempo": 120.0
            },
            {
                "start_time": 24.4227273,
                "end_time": 24.6068182,
                "pitch": 28,
                "velocity": 64,
                "duration": 0.1840909,
                "tempo": 120.0
            },
            {
                "start_time": 25.9181818,
                "end_time": 26.2045455,
                "pitch": 28,
                "velocity": 64,
                "duration": 0.2863636,
                "tempo": 120.0
            },
            {
                "start_time": 26.2227273,
                "end_time": 26.4068182,
                "pitch": 28,
                "velocity": 64,
                "duration": 0.1840909,
                "tempo": 120.0
            },
            {
                "start_time": 27.7318182,
                "end_time": 28.0181818,
                "pitch": 34,
                "velocity": 64,
                "duration": 0.2863636,
                "tempo": 120.0
            },
            {
                "start_time": 28.0340909,
                "end_time": 28.3204545,
                "pitch": 41,
                "velocity": 64,
                "duration": 0.2863636,
                "tempo": 120.0
            },
            {
                "start_time": 28.3363636,
                "end_time": 28.4727273,
                "pitch": 36,
                "velocity": 64,
                "duration": 0.1363636,
                "tempo": 120.0
            },
            {
                "start_time": 28.4909091,
                "end_time": 28.7795455,
                "pitch": 43,
                "velocity": 64,
                "duration": 0.2886364,
                "tempo": 120.0
            },
            {
                "start_time": 28.7954545,
                "end_time": 28.9318182,
                "pitch": 42,
                "velocity": 64,
                "duration": 0.1363636,
                "tempo": 120.0
            },
            {
                "start_time": 28.95,
                "end_time": 29.2318182,
                "pitch": 28,
                "velocity": 64,
                "duration": 0.2818182,
                "tempo": 120.0
            },
            {
                "start_time": 29.25,
                "end_time": 29.4318182,
                "pitch": 28,
                "velocity": 64,
                "duration": 0.1818182,
                "tempo": 120.0
            },
            {
                "start_time": 30.7613636,
                "end_time": 31.0454545,
                "pitch": 28,
                "velocity": 64,
                "duration": 0.2840909,
                "tempo": 120.0
            },
            {
                "start_time": 31.0613636,
                "end_time": 31.2454545,
                "pitch": 28,
                "velocity": 64,
                "duration": 0.1840909,
                "tempo": 120.0
            },
            {
                "start_time": 32.5613636,
                "end_time": 32.85,
                "pitch": 34,
                "velocity": 64,
                "duration": 0.2886364,
                "tempo": 120.0
            },
            {
                "start_time": 32.8681818,
                "end_time": 33.1568182,
                "pitch": 41,
                "velocity": 64,
                "duration": 0.2886364,
                "tempo": 120.0
            },
            {
                "start_time": 33.1727273,
                "end_time": 33.3090909,
                "pitch": 36,
                "velocity": 64,
                "duration": 0.1363636,
                "tempo": 120.0
            },
            {
                "start_time": 33.325,
                "end_time": 33.6113636,
                "pitch": 43,
                "velocity": 64,
                "duration": 0.2863636,
                "tempo": 120.0
            },
            {
                "start_time": 33.6272727,
                "end_time": 33.7636364,
                "pitch": 42,
                "velocity": 64,
                "duration": 0.1363636,
                "tempo": 120.0
            },
            {
                "start_time": 33.7795455,
                "end_time": 34.0659091,
                "pitch": 28,
                "velocity": 64,
                "duration": 0.2863636,
                "tempo": 120.0
            },
            {
                "start_time": 34.0818182,
                "end_time": 34.2681818,
                "pitch": 28,
                "velocity": 64,
                "duration": 0.1863636,
                "tempo": 120.0
            },
            {
                "start_time": 35.5977273,
                "end_time": 35.8818182,
                "pitch": 28,
                "velocity": 64,
                "duration": 0.2840909,
                "tempo": 120.0
            },
            {
                "start_time": 35.8977273,
                "end_time": 36.0818182,
                "pitch": 28,
                "velocity": 64,
                "duration": 0.1840909,
                "tempo": 120.0
            },
            {
                "start_time": 37.3977273,
                "end_time": 37.6840909,
                "pitch": 34,
                "velocity": 64,
                "duration": 0.2863636,
                "tempo": 120.0
            },
            {
                "start_time": 37.7022727,
                "end_time": 37.9863636,
                "pitch": 41,
                "velocity": 64,
                "duration": 0.2840909,
                "tempo": 120.0
            },
            {
                "start_time": 38.0045455,
                "end_time": 38.1409091,
                "pitch": 36,
                "velocity": 64,
                "duration": 0.1363636,
                "tempo": 120.0
            },
            {
                "start_time": 38.1568182,
                "end_time": 38.4454545,
                "pitch": 43,
                "velocity": 64,
                "duration": 0.2886364,
                "tempo": 120.0
            },
            {
                "start_time": 38.4636364,
                "end_time": 38.6090909,
                "pitch": 42,
                "velocity": 64,
                "duration": 0.1454545,
                "tempo": 120.0
            }
        ]
    }
}