{
    "mood": "angry",
    "instruments": {
        "Lead 2 (sawtooth)": [
            {
                "start_time": 0.0181818,
                "end_time": 0.825,
                "pitch": 74,
                "velocity": 80,
                "duration": 0.8068182,
                "tempo": 120.0
            },
            {
                "start_time": 0.825,
                "end_time": 1.2318182,
                "pitch": 77,
                "velocity": 80,
                "duration": 0.4068182,
                "tempo": 120.0
            },
            {
                "start_time": 0.825,
                "end_time": 1.2318182,
                "pitch": 77,
                "velocity": 80,
                "duration": 0.4068182,
                "tempo": 120.0
            },
            {
                "start_time": 1.2318182,
                "end_time": 1.6386364,
                "pitch": 81,
                "velocity": 80,
                "duration": 0.4068182,
                "tempo": 120.0
            },
            {
                "start_time": 1.6386364,
                "end_time": 2.0431818,
                "pitch": 77,
                "velocity": 80,
                "duration": 0.4045455,
                "tempo": 120.0
            },
            {
                "start_time": 2.0431818,
                "end_time": 2.45,
                "pitch": 86,
                "velocity": 80,
                "duration": 0.4068182,
                "tempo": 120.0
            },
            {
                "start_time": 2.45,
                "end_time": 2.8545455,
                "pitch": 79,
                "velocity": 80,
                "duration": 0.4045455,
                "tempo": 120.0
            },
            {
                "start_time": 2.45,
                "end_time": 2.8545455,
                "pitch": 79,
                "velocity": 80,
                "duration": 0.4045455,
                "tempo": 120.0
            },
            {
                "start_time": 2.8545455,
                "end_time": 2.8568182,
                "pitch": 83,
                "velocity": 80,
                "duration": 0.0022727,
                "tempo": 120.0
            },
            {
                "start_time": 2.8568182,
                "end_time": 3.2613636,
                "pitch": 83,
                "velocity": 80,
                "duration": 0.4045455,
                "tempo": 120.0
            },
            {
                "start_time": 2.0431818,
                "end_time": 4.0636364,
                "pitch": 74,
                "velocity": 80,
                "duration": 2.0204545,
                "tempo": 120.0
            },
            {
                "start_time": 3.2613636,
                "end_time": 4.0636364,
                "pitch": 74,
                "velocity": 80,
                "duration": 0.8022727,
                "tempo": 120.0
            },
            {
                "start_time": 1.2318182,
                "end_time": 4.4636364,
                "pitch": 69,
                "velocity": 80,
                "duration": 3.2318182,
                "tempo": 120.0
            },
            {
                "start_time": 4.0636364,
                "end_time": 4.4636364,
                "pitch": 77,
                "velocity": 80,
                "duration": 0.4,
                "tempo": 120.0
            },
            {
                "start_time": 4.0636364,
                "end_time": 4.4636364,
                "pitch": 77,
                "velocity": 80,
                "duration": 0.4,
                "tempo": 120.0
            },
            {
                "start_time": 4.4636364,
                "end_time": 4.8636364,
                "pitch": 81,
                "velocity": 80,
                "duration": 0.4,
                "tempo": 120.0
            },
            {
                "start_time": 1.6386364,
                "end_time": 4.8636364,
                "pitch": 89,
                "velocity": 80,
                "duration": 3.225,
                "tempo": 120.0
            },
            {
                "start_time": 4.8636364,
                "end_time": 5.2704545,
                "pitch": 77,
                "velocity": 80,
                "duration": 0.4068182,
                "tempo": 120.0
            },
            {
                "start_time": 3.2613636,
                "end_time": 5.7431818,
                "pitch": 86,
                "velocity": 80,
                "duration": 2.4818182,
                "tempo": 120.0
            },
            {
                "start_time": 5.2704545,
                "end_time": 5.7431818,
                "pitch": 86,
                "velocity": 80,
                "duration": 0.4727273,
                "tempo": 120.0
            },
            {
                "start_time": 5.7431818,
                "end_time": 6.4204545,
                "pitch": 79,
                "velocity": 64,
                "duration": 0.6772727,
                "tempo": 120.0
            },
            {
                "start_time": 5.7431818,
                "end_time": 6.4204545,
                "pitch": 79,
                "velocity": 80,
                "duration": 0.6772727,
                "tempo": 120.0
            },
            {
                "start_time": 6.4204545,
                "end_time": 7.9818182,
                "pitch": 83,
                "velocity": 51,
                "duration": 1.5613636,
                "tempo": 120.0
            },
            {
                "start_time": 6.4204545,
                "end_time": 7.9818182,
                "pitch": 83,
                "velocity": 64,
                "duration": 1.5613636,
                "tempo": 120.0
            },
            {
                "start_time": 7.9818182,
                "end_time": 13.5772727,
                "pitch": 81,
                "velocity": 40,
                "duration": 5.5954545,
                "tempo": 120.0
            },
            {
                "start_time": 13.5772727,
                "end_time": 13.5795455,
                "pitch": 79,
                "velocity": 40,
                "duration": 0.0022727,
                "tempo": 120.0
            }
        ],
        "Trumpet": [
            {
                "start_time": 0.0181818,
                "end_time": 0.8272727,
                "pitch": 62,
                "velocity": 80,
                "duration": 0.8090909,
                "tempo": 120.0
            },
            {
                "start_time": 0.8272727,
                "end_time": 1.2318182,
                "pitch": 65,
                "velocity": 80,
                "duration": 0.4045455,
                "tempo": 120.0
            },
            {
                "start_time": 0.8272727,
                "end_time": 1.2318182,
                "pitch": 65,
                "velocity": 80,
                "duration": 0.4045455,
                "tempo": 120.0
            },
            {
                "start_time": 1.2318182,
                "end_time": 1.6386364,
                "pitch": 69,
                "velocity": 80,
                "duration": 0.4068182,
                "tempo": 120.0
            },
            {
                "start_time": 1.6386364,
                "end_time": 2.0431818,
                "pitch": 65,
                "velocity": 80,
                "duration": 0.4045455,
                "tempo": 120.0
            },
            {
                "start_time": 2.0431818,
                "end_time": 2.45,
                "pitch": 74,
                "velocity": 80,
                "duration": 0.4068182,
                "tempo": 120.0
            },
            {
                "start_time": 2.45,
                "end_time": 2.8568182,
                "pitch": 67,
                "velocity": 80,
                "duration": 0.4068182,
                "tempo": 120.0
            },
            {
                "start_time": 2.45,
                "end_time": 2.8568182,
                "pitch": 67,
                "velocity": 80,
                "duration": 0.4068182,
                "tempo": 120.0
            },
            {
                "start_time": 2.8568182,
                "end_time": 3.2613636,
                "pitch": 71,
                "velocity": 80,
                "duration": 0.4045455,
                "tempo": 120.0
            },
            {
                "start_time": 2.8568182,
                "end_time": 3.2613636,
                "pitch": 71,
                "velocity": 80,
                "duration": 0.4045455,
                "tempo": 120.0
            },
            {
                "start_time": 2.0431818,
                "end_time": 4.0636364,
                "pitch": 62,
                "velocity": 80,
                "duration": 2.0204545,
                "tempo": 120.0
            },
            {
                "start_time": 3.2613636,
                "end_time": 4.0636364,
                "pitch": 62,
                "velocity": 80,
                "duration": 0.8022727,
                "tempo": 120.0
            },
            {
                "start_time": 1.2318182,
                "end_time": 4.4636364,
                "pitch": 57,
                "velocity": 80,
                "duration": 3.2318182,
                "tempo": 120.0
            },
            {
                "start_time": 4.0636364,
                "end_time": 4.4636364,
                "pitch": 65,
                "velocity": 80,
                "duration": 0.4,
                "tempo": 120.0
            },
            {
                "start_time": 4.0636364,
                "end_time": 4.4636364,
                "pitch": 65,
                "velocity": 80,
                "duration": 0.4,
                "tempo": 120.0
            },
            {
                "start_time": 4.4636364,
                "end_time": 4.8636364,
                "pitch": 69,
                "velocity": 80,
                "duration": 0.4,
                "tempo": 120.0
            },
            {
                "start_time": 1.6386364,
                "end_time": 4.8636364,
                "pitch": 77,
                "velocity": 80,
                "duration": 3.225,
                "tempo": 120.0
            },
            {
                "start_time": 4.8636364,
                "end_time": 5.2704545,
                "pitch": 65,
                "velocity": 80,
                "duration": 0.4068182,
                "tempo": 120.0
            },
            {
                "start_time": 3.2613636,
                "end_time": 5.7431818,
                "pitch": 74,
                "velocity": 80,
                "duration": 2.4818182,
                "tempo": 120.0
            },
            {
                "start_time": 5.2704545,
                "end_time": 5.7431818,
                "pitch": 74,
                "velocity": 80,
                "duration": 0.4727273,
                "tempo": 120.0
            },
            {
                "start_time": 5.7431818,
                "end_time": 6.4204545,
                "pitch": 67,
                "velocity": 64,
                "duration": 0.6772727,
                "tempo": 120.0
            },
            {
                "start_time": 5.7431818,
                "end_time": 6.4204545,
                "pitch": 67,
                "velocity": 80,
                "duration": 0.6772727,
                "tempo": 120.0
            },
            {
                "start_time": 6.4204545,
                "end_time": 7.9818182,
                "pitch": 71,
                "velocity": 51,
                "duration": 1.5613636,
                "tempo": 120.0
            },
            {
                "start_time": 6.4204545,
                "end_time": 7.9818182,
                "pitch": 71,
                "velocity": 64,
                "duration": 1.5613636,
                "tempo": 120.0
            },
            {
                "start_time": 7.9818182,
                "end_time": 13.5795455,
                "pitch": 69,
                "velocity": 32,
                "duration": 5.5977273,
                "tempo": 120.0
            }
        ],
        "Electric Guitar (clean)": [
            {
                "start_time": 0.0181818,
                "end_time": 0.8272727,
                "pitch": 26,
                "velocity": 80,
                "duration": 0.8090909,
                "tempo": 120.0
            },
            {
                "start_time": 0.8272727,
                "end_time": 1.0295455,
                "pitch": 26,
                "velocity": 80,
                "duration": 0.2022727,
                "tempo": 120.0
            },
            {
                "start_time": 1.0295455,
                "end_time": 1.2318182,
                "pitch": 26,
                "velocity": 80,
                "duration": 0.2022727,
                "tempo": 120.0
            },
            {
                "start_time": 1.2318182,
                "end_time": 1.6386364,
                "pitch": 38,
                "velocity": 101,
                "duration": 0.4068182,
                "tempo": 120.0
            },
            {
                "start_time": 1.6386364,
                "end_time": 1.8409091,
                "pitch": 26,
                "velocity": 80,
                "duration": 0.2022727,
                "tempo": 120.0
            },
            {
                "start_time": 1.8409091,
                "end_time": 2.0454545,
                "pitch": 26,
                "velocity": 80,
                "duration": 0.2045455,
                "tempo": 120.0
            },
            {
                "start_time": 2.0454545,
                "end_time": 2.45,
                "pitch": 26,
                "velocity": 80,
                "duration": 0.4045455,
                "tempo": 120.0
            },
            {
                "start_time": 2.45,
                "end_time": 2.8568182,
                "pitch": 38,
                "velocity": 101,
                "duration": 0.4068182,
                "tempo": 120.0
            },
            {
                "start_time": 2.8568182,
                "end_time": 3.0590909,
                "pitch": 26,
                "velocity": 80,
                "duration": 0.2022727,
                "tempo": 120.0
            },
            {
                "start_time": 3.0590909,
                "end_time": 3.2613636,
                "pitch": 26,
                "velocity": 80,
                "duration": 0.2022727,
                "tempo": 120.0
            },
            {
                "start_time": 3.2636364,
                "end_time": 4.0636364,
                "pitch": 26,
                "velocity": 80,
                "duration": 0.8,
                "tempo": 120.0
            },
            {
                "start_time": 4.0636364,
                "end_time": 4.2636364,
                "pitch": 26,
                "velocity": 80,
                "duration": 0.2,
                "tempo": 120.0
            },
            {
                "start_time": 4.2636364,
                "end_time": 4.4636364,
                "pitch": 26,
                "velocity": 80,
                "duration": 0.2,
                "tempo": 120.0
            },
            {
                "start_time": 4.4636364,
                "end_time": 4.8659091,
                "pitch": 38,
                "velocity": 101,
                "duration": 0.4022727,
                "tempo": 120.0
            },
            {
                "start_time": 4.8659091,
                "end_time": 5.2704545,
                "pitch": 26,
                "velocity": 80,
                "duration": 0.4045455,
                "tempo": 120.0
            },
            {
                "start_time": 5.2704545,
                "end_time": 5.7431818,
                "pitch": 26,
                "velocity": 80,
                "duration": 0.4727273,
                "tempo": 120.0
            },
            {
                "start_time": 5.7431818,
                "end_time": 6.4204545,
                "pitch": 26,
                "velocity": 80,
                "duration": 0.6772727,
                "tempo": 120.0
            },
            {
                "start_time": 6.4204545,
                "end_time": 7.9818182,
                "pitch": 26,
                "velocity": 64,
                "duration": 1.5613636,
                "tempo": 120.0
            },
            {
                "start_time": 7.9818182,
                "end_time": 15.1340909,
                "pitch": 26,
                "velocity": 51,
                "duration": 7.1522727,
                "tempo": 120.0
            }
        ]
    }
}