{
    "mood": "angry",
    "instruments": {
        "Vibraphone": [
            {
                "start_time": 0.1954545,
                "end_time": 0.3636364,
                "pitch": 66,
                "velocity": 40,
                "duration": 0.1681818,
                "tempo": 120.0
            },
            {
                "start_time": 0.3636364,
                "end_time": 0.5454545,
                "pitch": 66,
                "velocity": 40,
                "duration": 0.1818182,
                "tempo": 120.0
            },
            {
                "start_time": 0.7227273,
                "end_time": 0.8840909,
                "pitch": 67,
                "velocity": 40,
                "duration": 0.1613636,
                "tempo": 120.0
            },
            {
                "start_time": 0.8840909,
                "end_time": 1.0613636,
                "pitch": 67,
                "velocity": 40,
                "duration": 0.1772727,
                "tempo": 120.0
            },
            {
                "start_time": 1.2454545,
                "end_time": 1.4136364,
                "pitch": 74,
                "velocity": 40,
                "duration": 0.1681818,
                "tempo": 120.0
            },
            {
                "start_time": 1.4136364,
                "end_time": 1.5977273,
                "pitch": 74,
                "velocity": 40,
                "duration": 0.1840909,
                "tempo": 120.0
            },
            {
                "start_time": 1.7818182,
                "end_time": 1.9477273,
                "pitch": 70,
                "velocity": 40,
                "duration": 0.1659091,
                "tempo": 120.0
            },
            {
                "start_time": 1.9477273,
                "end_time": 2.1318182,
                "pitch": 70,
                "velocity": 40,
                "duration": 0.1840909,
                "tempo": 120.0
            }
        ],
        "Harpsichord": [
            {
                "start_time": 0.0136364,
                "end_time": 0.2795455,
                "pitch": 78,
                "velocity": 40,
                "duration": 0.2659091,
                "tempo": 120.0
            },
            {
                "start_time": 0.2795455,
                "end_time": 0.5454545,
                "pitch": 78,
                "velocity": 40,
                "duration": 0.2659091,
                "tempo": 120.0
            },
            {
                "start_time": 0.5454545,
                "end_time": 0.8045455,
                "pitch": 78,
                "velocity": 40,
                "duration": 0.2590909,
                "tempo": 120.0
            },
            {
                "start_time": 0.8045455,
                "end_time": 1.0636364,
                "pitch": 78,
                "velocity": 40,
                "duration": 0.2590909,
                "tempo": 120.0
            },
            {
                "start_time": 1.0636364,
                "end_time": 1.3295455,
                "pitch": 78,
                "velocity": 40,
                "duration": 0.2659091,
                "tempo": 120.0
            },
            {
                "start_time": 1.3295455,
                "end_time": 1.5977273,
                "pitch": 78,
                "velocity": 40,
                "duration": 0.2681818,
                "tempo": 120.0
            },
            {
                "start_time": 1.5977273,
                "end_time": 1.8636364,
                "pitch": 78,
                "velocity": 40,
                "duration": 0.2659091,
                "tempo": 120.0
            },
            {
                "start_time": 1.8636364,
                "end_time": 2.1318182,
                "pitch": 78,
                "velocity": 40,
                "duration": 0.2681818,
                "tempo": 120.0
            },
            {
                "start_time": 2.1318182,
                "end_time": 2.2977273,
                "pitch": 78,
                "velocity": 40,
                "duration": 0.1659091,
                "tempo": 120.0
            }
        ],
        "Acoustic Bass": [
            {
                "start_time": 0.0136364,
                "end_time": 0.2795455,
                "pitch": 30,
                "velocity": 101,
                "duration": 0.2659091,
                "tempo": 120.0
            },
            {
                "start_time": 0.2795455,
                "end_time": 0.5454545,
                "pitch": 30,
                "velocity": 101,
                "duration": 0.2659091,
                "tempo": 120.0
            },
            {
                "start_time": 0.5454545,
                "end_time": 0.8045455,
                "pitch": 30,
                "velocity": 101,
                "duration": 0.2590909,
                "tempo": 120.0
            },
            {
                "start_time": 0.8045455,
                "end_time": 1.0636364,
                "pitch": 30,
                "velocity": 101,
                "duration": 0.2590909,
                "tempo": 120.0
            },
            {
                "start_time": 1.0636364,
                "end_time": 1.3295455,
                "pitch": 30,
                "velocity": 101,
                "duration": 0.2659091,
                "tempo": 120.0
            },
            {
                "start_time": 1.3295455,
                "end_time": 1.5977273,
                "pitch": 30,
                "velocity": 101,
                "duration": 0.2681818,
                "tempo": 120.0
            },
            {
                "start_time": 1.5977273,
                "end_time": 1.8636364,
                "pitch": 30,
                "velocity": 101,
                "duration": 0.2659091,
                "tempo": 120.0
            },
            {
                "start_time": 1.8636364,
                "end_time": 2.1318182,
                "pitch": 30,
                "velocity": 101,
                "duration": 0.2681818,
                "tempo": 120.0
            },
            {
                "start_time": 2.1318182,
                "end_time": 2.2977273,
                "pitch": 30,
                "velocity": 101,
                "duration": 0.1659091,
                "tempo": 120.0
            }
        ]
    }
}