{
    "mood": "angry",
    "instruments": {
        "Trumpet": [
            {
                "start_time": 0.0363636,
                "end_time": 0.1204545,
                "pitch": 69,
                "velocity": 127,
                "duration": 0.0840909,
                "tempo": 120.0
            },
            {
                "start_time": 0.1363636,
                "end_time": 0.2204545,
                "pitch": 69,
                "velocity": 127,
                "duration": 0.0840909,
                "tempo": 120.0
            },
            {
                "start_time": 0.2386364,
                "end_time": 0.3340909,
                "pitch": 72,
                "velocity": 127,
                "duration": 0.0954545,
                "tempo": 120.0
            },
            {
                "start_time": 0.3522727,
                "end_time": 0.3545455,
                "pitch": 72,
                "velocity": 127,
                "duration": 0.0022727,
                "tempo": 120.0
            },
            {
                "start_time": 0.3545455,
                "end_time": 0.45,
                "pitch": 74,
                "velocity": 127,
                "duration": 0.0954545,
                "tempo": 120.0
            },
            {
                "start_time": 0.4704545,
                "end_time": 0.5659091,
                "pitch": 60,
                "velocity": 127,
                "duration": 0.0954545,
                "tempo": 120.0
            },
            {
                "start_time": 0.5863636,
                "end_time": 0.6818182,
                "pitch": 71,
                "velocity": 127,
                "duration": 0.0954545,
                "tempo": 120.0
            },
            {
                "start_time": 0.0363636,
                "end_time": 0.7977273,
                "pitch": 67,
                "velocity": 127,
                "duration": 0.7613636,
                "tempo": 120.0
            },
            {
                "start_time": 0.7022727,
                "end_time": 0.7977273,
                "pitch": 67,
                "velocity": 127,
                "duration": 0.0954545,
                "tempo": 120.0
            },
            {
                "start_time": 0.8181818,
                "end_time": 0.9136364,
                "pitch": 69,
                "velocity": 127,
                "duration": 0.0954545,
                "tempo": 120.0
            },
            {
                "start_time": 0.9340909,
                "end_time": 1.0295455,
                "pitch": 77,
                "velocity": 127,
                "duration": 0.0954545,
                "tempo": 120.0
            },
            {
                "start_time": 1.05,
                "end_time": 1.1477273,
                "pitch": 77,
                "velocity": 127,
                "duration": 0.0977273,
                "tempo": 120.0
            },
            {
                "start_time": 1.1659091,
                "end_time": 1.2636364,
                "pitch": 77,
                "velocity": 127,
                "duration": 0.0977273,
                "tempo": 120.0
            },
            {
                "start_time": 0.7022727,
                "end_time": 1.3795455,
                "pitch": 71,
                "velocity": 127,
                "duration": 0.6772727,
                "tempo": 120.0
            },
            {
                "start_time": 1.2818182,
                "end_time": 1.3795455,
                "pitch": 71,
                "velocity": 127,
                "duration": 0.0977273,
                "tempo": 120.0
            },
            {
                "start_time": 0.2386364,
                "end_time": 1.3977273,
                "pitch": 56,
                "velocity": 127,
                "duration": 1.1590909,
                "tempo": 120.0
            },
            {
                "start_time": 1.3977273,
                "end_time": 1.4954545,
                "pitch": 74,
                "velocity": 127,
                "duration": 0.0977273,
                "tempo": 120.0
            },
            {
                "start_time": 0.4704545,
                "end_time": 1.6113636,
                "pitch": 62,
                "velocity": 127,
                "duration": 1.1409091,
                "tempo": 120.0
            },
            {
                "start_time": 1.5136364,
                "end_time": 1.6113636,
                "pitch": 62,
                "velocity": 127,
                "duration": 0.0977273,
                "tempo": 120.0
            },
            {
                "start_time": 1.6318182,
                "end_time": 1.7295455,
                "pitch": 72,
                "velocity": 127,
                "duration": 0.0977273,
                "tempo": 120.0
            },
            {
                "start_time": 1.75,
                "end_time": 1.8477273,
                "pitch": 60,
                "velocity": 127,
                "duration": 0.0977273,
                "tempo": 120.0
            },
            {
                "start_time": 0.5863636,
                "end_time": 1.8681818,
                "pitch": 76,
                "velocity": 127,
                "duration": 1.2818182,
                "tempo": 120.0
            },
            {
                "start_time": 1.8681818,
                "end_time": 1.9681818,
                "pitch": 69,
                "velocity": 127,
                "duration": 0.1,
                "tempo": 120.0
            },
            {
                "start_time": 1.9863636,
                "end_time": 2.0863636,
                "pitch": 69,
                "velocity": 127,
                "duration": 0.1,
                "tempo": 120.0
            },
            {
                "start_time": 1.3977273,
                "end_time": 2.1068182,
                "pitch": 56,
                "velocity": 127,
                "duration": 0.7090909,
                "tempo": 120.0
            },
            {
                "start_time": 2.1068182,
                "end_time": 2.2022727,
                "pitch": 72,
                "velocity": 127,
                "duration": 0.0954545,
                "tempo": 120.0
            },
            {
                "start_time": 1.6318182,
                "end_time": 2.3181818,
                "pitch": 74,
                "velocity": 127,
                "duration": 0.6863636,
                "tempo": 120.0
            },
            {
                "start_time": 2.2227273,
                "end_time": 2.3181818,
                "pitch": 74,
                "velocity": 127,
                "duration": 0.0954545,
                "tempo": 120.0
            },
            {
                "start_time": 2.2227273,
                "end_time": 2.4340909,
                "pitch": 72,
                "velocity": 127,
                "duration": 0.2113636,
                "tempo": 120.0
            },
            {
                "start_time": 2.3386364,
                "end_time": 2.4340909,
                "pitch": 72,
                "velocity": 127,
                "duration": 0.0954545,
                "tempo": 120.0
            },
            {
                "start_time": 1.8681818,
                "end_time": 2.4545455,
                "pitch": 76,
                "velocity": 127,
                "duration": 0.5863636,
                "tempo": 120.0
            },
            {
                "start_time": 2.4545455,
                "end_time": 2.5522727,
                "pitch": 71,
                "velocity": 127,
                "duration": 0.0977273,
                "tempo": 120.0
            },
            {
                "start_time": 0.8181818,
                "end_time": 2.6681818,
                "pitch": 67,
                "velocity": 127,
                "duration": 1.85,
                "tempo": 120.0
            },
            {
                "start_time": 2.5704545,
                "end_time": 2.6681818,
                "pitch": 67,
                "velocity": 127,
                "duration": 0.0977273,
                "tempo": 120.0
            },
            {
                "start_time": 2.6863636,
                "end_time": 2.7840909,
                "pitch": 69,
                "velocity": 127,
                "duration": 0.0977273,
                "tempo": 120.0
            },
            {
                "start_time": 0.9340909,
                "end_time": 2.8022727,
                "pitch": 43,
                "velocity": 127,
                "duration": 1.8681818,
                "tempo": 120.0
            },
            {
                "start_time": 2.8022727,
                "end_time": 2.9,
                "pitch": 72,
                "velocity": 127,
                "duration": 0.0977273,
                "tempo": 120.0
            },
            {
                "start_time": 2.4545455,
                "end_time": 2.9181818,
                "pitch": 76,
                "velocity": 127,
                "duration": 0.4636364,
                "tempo": 120.0
            },
            {
                "start_time": 2.5704545,
                "end_time": 3.0159091,
                "pitch": 71,
                "velocity": 127,
                "duration": 0.4454545,
                "tempo": 120.0
            },
            {
                "start_time": 2.9181818,
                "end_time": 3.0159091,
                "pitch": 71,
                "velocity": 127,
                "duration": 0.0977273,
                "tempo": 120.0
            },
            {
                "start_time": 2.6863636,
                "end_time": 3.1318182,
                "pitch": 67,
                "velocity": 127,
                "duration": 0.4454545,
                "tempo": 120.0
            },
            {
                "start_time": 3.0363636,
                "end_time": 3.1318182,
                "pitch": 67,
                "velocity": 127,
                "duration": 0.0954545,
                "tempo": 120.0
            },
            {
                "start_time": 3.1522727,
                "end_time": 3.2477273,
                "pitch": 69,
                "velocity": 127,
                "duration": 0.0954545,
                "tempo": 120.0
            },
            {
                "start_time": 3.2681818,
                "end_time": 3.3636364,
                "pitch": 69,
                "velocity": 127,
                "duration": 0.0954545,
                "tempo": 120.0
            },
            {
                "start_time": 3.3840909,
                "end_time": 3.5795455,
                "pitch": 64,
                "velocity": 127,
                "duration": 0.1954545,
                "tempo": 120.0
            },
            {
                "start_time": 1.2818182,
                "end_time": 3.7363636,
                "pitch": 78,
                "velocity": 127,
                "duration": 2.4545455,
                "tempo": 120.0
            },
            {
                "start_time": 3.7363636,
                "end_time": 3.8363636,
                "pitch": 69,
                "velocity": 127,
                "duration": 0.1,
                "tempo": 120.0
            },
            {
                "start_time": 3.8568182,
                "end_time": 3.9545455,
                "pitch": 69,
                "velocity": 127,
                "duration": 0.0977273,
                "tempo": 120.0
            },
            {
                "start_time": 2.1068182,
                "end_time": 3.975,
                "pitch": 56,
                "velocity": 127,
                "duration": 1.8681818,
                "tempo": 120.0
            },
            {
                "start_time": 3.975,
                "end_time": 4.0727273,
                "pitch": 72,
                "velocity": 127,
                "duration": 0.0977273,
                "tempo": 120.0
            },
            {
                "start_time": 2.3386364,
                "end_time": 4.1886364,
                "pitch": 74,
                "velocity": 127,
                "duration": 1.85,
                "tempo": 120.0
            },
            {
                "start_time": 4.0909091,
                "end_time": 4.1886364,
                "pitch": 74,
                "velocity": 127,
                "duration": 0.0977273,
                "tempo": 120.0
            },
            {
                "start_time": 4.0909091,
                "end_time": 4.3045455,
                "pitch": 72,
                "velocity": 127,
                "duration": 0.2136364,
                "tempo": 120.0
            },
            {
                "start_time": 4.2068182,
                "end_time": 4.3045455,
                "pitch": 72,
                "velocity": 127,
                "duration": 0.0977273,
                "tempo": 120.0
            },
            {
                "start_time": 2.9181818,
                "end_time": 4.3227273,
                "pitch": 76,
                "velocity": 127,
                "duration": 1.4045455,
                "tempo": 120.0
            },
            {
                "start_time": 3.0363636,
                "end_time": 4.4204545,
                "pitch": 71,
                "velocity": 127,
                "duration": 1.3840909,
                "tempo": 120.0
            },
            {
                "start_time": 4.3227273,
                "end_time": 4.4204545,
                "pitch": 71,
                "velocity": 127,
                "duration": 0.0977273,
                "tempo": 120.0
            },
            {
                "start_time": 4.4386364,
                "end_time": 4.4409091,
                "pitch": 71,
                "velocity": 127,
                "duration": 0.0022727,
                "tempo": 120.0
            },
            {
                "start_time": 3.1522727,
                "end_time": 4.5363636,
                "pitch": 67,
                "velocity": 127,
                "duration": 1.3840909,
                "tempo": 120.0
            },
            {
                "start_time": 4.4409091,
                "end_time": 4.5363636,
                "pitch": 67,
                "velocity": 127,
                "duration": 0.0954545,
                "tempo": 120.0
            },
            {
                "start_time": 4.5568182,
                "end_time": 4.6522727,
                "pitch": 69,
                "velocity": 127,
                "duration": 0.0954545,
                "tempo": 120.0
            },
            {
                "start_time": 2.8022727,
                "end_time": 4.6727273,
                "pitch": 43,
                "velocity": 127,
                "duration": 1.8704545,
                "tempo": 120.0
            },
            {
                "start_time": 4.6727273,
                "end_time": 4.7681818,
                "pitch": 77,
                "velocity": 127,
                "duration": 0.0954545,
                "tempo": 120.0
            },
            {
                "start_time": 4.7886364,
                "end_time": 4.8840909,
                "pitch": 77,
                "velocity": 127,
                "duration": 0.0954545,
                "tempo": 120.0
            },
            {
                "start_time": 4.9045455,
                "end_time": 5.0022727,
                "pitch": 77,
                "velocity": 127,
                "duration": 0.0977273,
                "tempo": 120.0
            },
            {
                "start_time": 3.7363636,
                "end_time": 5.0227273,
                "pitch": 78,
                "velocity": 127,
                "duration": 1.2863636,
                "tempo": 120.0
            },
            {
                "start_time": 5.0227273,
                "end_time": 5.1227273,
                "pitch": 71,
                "velocity": 127,
                "duration": 0.1,
                "tempo": 120.0
            },
            {
                "start_time": 3.975,
                "end_time": 5.1409091,
                "pitch": 56,
                "velocity": 127,
                "duration": 1.1659091,
                "tempo": 120.0
            },
            {
                "start_time": 4.2068182,
                "end_time": 5.2409091,
                "pitch": 74,
                "velocity": 127,
                "duration": 1.0340909,
                "tempo": 120.0
            },
            {
                "start_time": 5.1409091,
                "end_time": 5.2409091,
                "pitch": 74,
                "velocity": 127,
                "duration": 0.1,
                "tempo": 120.0
            },
            {
                "start_time": 5.2613636,
                "end_time": 5.3590909,
                "pitch": 62,
                "velocity": 127,
                "duration": 0.0977273,
                "tempo": 120.0
            },
            {
                "start_time": 5.3795455,
                "end_time": 5.4772727,
                "pitch": 72,
                "velocity": 127,
                "duration": 0.0977273,
                "tempo": 120.0
            },
            {
                "start_time": 5.4954545,
                "end_time": 5.5931818,
                "pitch": 60,
                "velocity": 127,
                "duration": 0.0977273,
                "tempo": 120.0
            },
            {
                "start_time": 4.3227273,
                "end_time": 5.6113636,
                "pitch": 76,
                "velocity": 127,
                "duration": 1.2886364,
                "tempo": 120.0
            },
            {
                "start_time": 5.6113636,
                "end_time": 5.7090909,
                "pitch": 69,
                "velocity": 127,
                "duration": 0.0977273,
                "tempo": 120.0
            },
            {
                "start_time": 5.7272727,
                "end_time": 5.825,
                "pitch": 69,
                "velocity": 127,
                "duration": 0.0977273,
                "tempo": 120.0
            },
            {
                "start_time": 5.1409091,
                "end_time": 5.8431818,
                "pitch": 56,
                "velocity": 127,
                "duration": 0.7022727,
                "tempo": 120.0
            },
            {
                "start_time": 5.8431818,
                "end_time": 5.9409091,
                "pitch": 72,
                "velocity": 127,
                "duration": 0.0977273,
                "tempo": 120.0
            },
            {
                "start_time": 5.3795455,
                "end_time": 6.0568182,
                "pitch": 74,
                "velocity": 127,
                "duration": 0.6772727,
                "tempo": 120.0
            },
            {
                "start_time": 5.9613636,
                "end_time": 6.0568182,
                "pitch": 74,
                "velocity": 127,
                "duration": 0.0954545,
                "tempo": 120.0
            },
            {
                "start_time": 5.9613636,
                "end_time": 6.1727273,
                "pitch": 72,
                "velocity": 127,
                "duration": 0.2113636,
                "tempo": 120.0
            },
            {
                "start_time": 6.0772727,
                "end_time": 6.1727273,
                "pitch": 72,
                "velocity": 127,
                "duration": 0.0954545,
                "tempo": 120.0
            },
            {
                "start_time": 5.6113636,
                "end_time": 6.1931818,
                "pitch": 76,
                "velocity": 127,
                "duration": 0.5818182,
                "tempo": 120.0
            },
            {
                "start_time": 6.1931818,
                "end_time": 6.2886364,
                "pitch": 71,
                "velocity": 127,
                "duration": 0.0954545,
                "tempo": 120.0
            },
            {
                "start_time": 4.5568182,
                "end_time": 6.4068182,
                "pitch": 67,
                "velocity": 127,
                "duration": 1.85,
                "tempo": 120.0
            },
            {
                "start_time": 6.3090909,
                "end_time": 6.4068182,
                "pitch": 67,
                "velocity": 127,
                "duration": 0.0977273,
                "tempo": 120.0
            },
            {
                "start_time": 6.4272727,
                "end_time": 6.5272727,
                "pitch": 69,
                "velocity": 127,
                "duration": 0.1,
                "tempo": 120.0
            },
            {
                "start_time": 4.6727273,
                "end_time": 6.5454545,
                "pitch": 43,
                "velocity": 127,
                "duration": 1.8727273,
                "tempo": 120.0
            },
            {
                "start_time": 6.5454545,
                "end_time": 6.6454545,
                "pitch": 72,
                "velocity": 127,
                "duration": 0.1,
                "tempo": 120.0
            },
            {
                "start_time": 6.1931818,
                "end_time": 6.6659091,
                "pitch": 76,
                "velocity": 127,
                "duration": 0.4727273,
                "tempo": 120.0
            },
            {
                "start_time": 6.3090909,
                "end_time": 6.7636364,
                "pitch": 71,
                "velocity": 127,
                "duration": 0.4545455,
                "tempo": 120.0
            },
            {
                "start_time": 6.6659091,
                "end_time": 6.7636364,
                "pitch": 71,
                "velocity": 127,
                "duration": 0.0977273,
                "tempo": 120.0
            },
            {
                "start_time": 6.4272727,
                "end_time": 6.8795455,
                "pitch": 67,
                "velocity": 127,
                "duration": 0.4522727,
                "tempo": 120.0
            },
            {
                "start_time": 6.7840909,
                "end_time": 6.8795455,
                "pitch": 67,
                "velocity": 127,
                "duration": 0.0954545,
                "tempo": 120.0
            },
            {
                "start_time": 6.9,
                "end_time": 6.9977273,
                "pitch": 62,
                "velocity": 127,
                "duration": 0.0977273,
                "tempo": 120.0
            },
            {
                "start_time": 7.0159091,
                "end_time": 7.2090909,
                "pitch": 64,
                "velocity": 127,
                "duration": 0.1931818,
                "tempo": 120.0
            },
            {
                "start_time": 6.7840909,
                "end_time": 30.0386364,
                "pitch": 71,
                "velocity": 127,
                "duration": 23.2545455,
                "tempo": 120.0
            },
            {
                "start_time": 29.9409091,
                "end_time": 30.0386364,
                "pitch": 71,
                "velocity": 127,
                "duration": 0.0977273,
                "tempo": 120.0
            },
            {
                "start_time": 30.0568182,
                "end_time": 30.0863636,
                "pitch": 69,
                "velocity": 127,
                "duration": 0.0295455,
                "tempo": 120.0
            }
        ],
        "Church Organ": [
            {
                "start_time": 7.4818182,
                "end_time": 8.2659091,
                "pitch": 59,
                "velocity": 127,
                "duration": 0.7840909,
                "tempo": 120.0
            },
            {
                "start_time": 8.4204545,
                "end_time": 9.1977273,
                "pitch": 62,
                "velocity": 127,
                "duration": 0.7772727,
                "tempo": 120.0
            },
            {
                "start_time": 9.3545455,
                "end_time": 9.3568182,
                "pitch": 62,
                "velocity": 127,
                "duration": 0.0022727,
                "tempo": 120.0
            },
            {
                "start_time": 9.3568182,
                "end_time": 10.1340909,
                "pitch": 64,
                "velocity": 127,
                "duration": 0.7772727,
                "tempo": 120.0
            },
            {
                "start_time": 10.2909091,
                "end_time": 11.075,
                "pitch": 68,
                "velocity": 127,
                "duration": 0.7840909,
                "tempo": 120.0
            },
            {
                "start_time": 11.2295455,
                "end_time": 12.0045455,
                "pitch": 68,
                "velocity": 127,
                "duration": 0.775,
                "tempo": 120.0
            },
            {
                "start_time": 12.1590909,
                "end_time": 12.9431818,
                "pitch": 72,
                "velocity": 127,
                "duration": 0.7840909,
                "tempo": 120.0
            },
            {
                "start_time": 13.1,
                "end_time": 13.875,
                "pitch": 74,
                "velocity": 127,
                "duration": 0.775,
                "tempo": 120.0
            },
            {
                "start_time": 14.0340909,
                "end_time": 14.8136364,
                "pitch": 76,
                "velocity": 127,
                "duration": 0.7795455,
                "tempo": 120.0
            }
        ],
        "Lead 2 (sawtooth)": [
            {
                "start_time": 0.0386364,
                "end_time": 0.1204545,
                "pitch": 76,
                "velocity": 80,
                "duration": 0.0818182,
                "tempo": 120.0
            },
            {
                "start_time": 0.3545455,
                "end_time": 1.7113636,
                "pitch": 76,
                "velocity": 80,
                "duration": 1.3568182,
                "tempo": 120.0
            },
            {
                "start_time": 1.8704545,
                "end_time": 1.9681818,
                "pitch": 76,
                "velocity": 80,
                "duration": 0.0977273,
                "tempo": 120.0
            },
            {
                "start_time": 2.2227273,
                "end_time": 3.5795455,
                "pitch": 76,
                "velocity": 80,
                "duration": 1.3568182,
                "tempo": 120.0
            },
            {
                "start_time": 3.7386364,
                "end_time": 3.8363636,
                "pitch": 76,
                "velocity": 80,
                "duration": 0.0977273,
                "tempo": 120.0
            },
            {
                "start_time": 4.0931818,
                "end_time": 5.4568182,
                "pitch": 76,
                "velocity": 80,
                "duration": 1.3636364,
                "tempo": 120.0
            },
            {
                "start_time": 5.6136364,
                "end_time": 5.7090909,
                "pitch": 76,
                "velocity": 80,
                "duration": 0.0954545,
                "tempo": 120.0
            },
            {
                "start_time": 5.9613636,
                "end_time": 7.3272727,
                "pitch": 76,
                "velocity": 80,
                "duration": 1.3659091,
                "tempo": 120.0
            },
            {
                "start_time": 14.9704545,
                "end_time": 15.0659091,
                "pitch": 76,
                "velocity": 80,
                "duration": 0.0954545,
                "tempo": 120.0
            },
            {
                "start_time": 15.3204545,
                "end_time": 16.6818182,
                "pitch": 76,
                "velocity": 80,
                "duration": 1.3613636,
                "tempo": 120.0
            },
            {
                "start_time": 16.8386364,
                "end_time": 16.9340909,
                "pitch": 76,
                "velocity": 80,
                "duration": 0.0954545,
                "tempo": 120.0
            },
            {
                "start_time": 17.1886364,
                "end_time": 18.5522727,
                "pitch": 76,
                "velocity": 80,
                "duration": 1.3636364,
                "tempo": 120.0
            },
            {
                "start_time": 18.7113636,
                "end_time": 18.8113636,
                "pitch": 76,
                "velocity": 80,
                "duration": 0.1,
                "tempo": 120.0
            },
            {
                "start_time": 19.0659091,
                "end_time": 20.4318182,
                "pitch": 76,
                "velocity": 80,
                "duration": 1.3659091,
                "tempo": 120.0
            },
            {
                "start_time": 20.5863636,
                "end_time": 20.6818182,
                "pitch": 76,
                "velocity": 80,
                "duration": 0.0954545,
                "tempo": 120.0
            },
            {
                "start_time": 20.9340909,
                "end_time": 22.3,
                "pitch": 76,
                "velocity": 80,
                "duration": 1.3659091,
                "tempo": 120.0
            },
            {
                "start_time": 29.9431818,
                "end_time": 30.0386364,
                "pitch": 76,
                "velocity": 80,
                "duration": 0.0954545,
                "tempo": 120.0
            }
        ],
        "Violin": [
            {
                "start_time": 22.4545455,
                "end_time": 23.2295455,
                "pitch": 59,
                "velocity": 127,
                "duration": 0.775,
                "tempo": 120.0
            },
            {
                "start_time": 23.3886364,
                "end_time": 24.1681818,
                "pitch": 65,
                "velocity": 127,
                "duration": 0.7795455,
                "tempo": 120.0
            },
            {
                "start_time": 24.325,
                "end_time": 25.1090909,
                "pitch": 68,
                "velocity": 127,
                "duration": 0.7840909,
                "tempo": 120.0
            },
            {
                "start_time": 25.2636364,
                "end_time": 25.65,
                "pitch": 54,
                "velocity": 127,
                "duration": 0.3863636,
                "tempo": 120.0
            },
            {
                "start_time": 22.4545455,
                "end_time": 25.7295455,
                "pitch": 66,
                "velocity": 127,
                "duration": 3.275,
                "tempo": 120.0
            },
            {
                "start_time": 25.7295455,
                "end_time": 26.1181818,
                "pitch": 57,
                "velocity": 127,
                "duration": 0.3886364,
                "tempo": 120.0
            },
            {
                "start_time": 26.1977273,
                "end_time": 26.9772727,
                "pitch": 57,
                "velocity": 127,
                "duration": 0.7795455,
                "tempo": 120.0
            },
            {
                "start_time": 27.1318182,
                "end_time": 27.9181818,
                "pitch": 59,
                "velocity": 127,
                "duration": 0.7863636,
                "tempo": 120.0
            },
            {
                "start_time": 23.3886364,
                "end_time": 28.0727273,
                "pitch": 44,
                "velocity": 127,
                "duration": 4.6840909,
                "tempo": 120.0
            },
            {
                "start_time": 28.0727273,
                "end_time": 28.8454545,
                "pitch": 60,
                "velocity": 127,
                "duration": 0.7727273,
                "tempo": 120.0
            },
            {
                "start_time": 29.0022727,
                "end_time": 29.7863636,
                "pitch": 68,
                "velocity": 127,
                "duration": 0.7840909,
                "tempo": 120.0
            }
        ],
        "Harpsichord": [
            {
                "start_time": 0.0409091,
                "end_time": 0.0954545,
                "pitch": 33,
                "velocity": 64,
                "duration": 0.0545455,
                "tempo": 120.0
            },
            {
                "start_time": 0.1386364,
                "end_time": 0.1954545,
                "pitch": 33,
                "velocity": 64,
                "duration": 0.0568182,
                "tempo": 120.0
            },
            {
                "start_time": 0.2386364,
                "end_time": 0.3045455,
                "pitch": 36,
                "velocity": 64,
                "duration": 0.0659091,
                "tempo": 120.0
            },
            {
                "start_time": 0.3545455,
                "end_time": 0.5,
                "pitch": 33,
                "velocity": 64,
                "duration": 0.1454545,
                "tempo": 120.0
            },
            {
                "start_time": 0.5863636,
                "end_time": 0.6545455,
                "pitch": 35,
                "velocity": 64,
                "duration": 0.0681818,
                "tempo": 120.0
            },
            {
                "start_time": 0.2386364,
                "end_time": 0.7022727,
                "pitch": 7,
                "velocity": 64,
                "duration": 0.4636364,
                "tempo": 120.0
            },
            {
                "start_time": 0.7022727,
                "end_time": 0.7704545,
                "pitch": 29,
                "velocity": 64,
                "duration": 0.0681818,
                "tempo": 120.0
            },
            {
                "start_time": 0.5863636,
                "end_time": 0.8863636,
                "pitch": 33,
                "velocity": 64,
                "duration": 0.3,
                "tempo": 120.0
            },
            {
                "start_time": 0.8181818,
                "end_time": 0.8863636,
                "pitch": 33,
                "velocity": 64,
                "duration": 0.0681818,
                "tempo": 120.0
            },
            {
                "start_time": 0.9363636,
                "end_time": 1.0022727,
                "pitch": 33,
                "velocity": 64,
                "duration": 0.0659091,
                "tempo": 120.0
            },
            {
                "start_time": 0.8181818,
                "end_time": 1.1681818,
                "pitch": 42,
                "velocity": 64,
                "duration": 0.35,
                "tempo": 120.0
            },
            {
                "start_time": 1.1681818,
                "end_time": 1.2340909,
                "pitch": 33,
                "velocity": 64,
                "duration": 0.0659091,
                "tempo": 120.0
            },
            {
                "start_time": 1.1681818,
                "end_time": 1.4,
                "pitch": 42,
                "velocity": 64,
                "duration": 0.2318182,
                "tempo": 120.0
            },
            {
                "start_time": 1.4,
                "end_time": 1.4659091,
                "pitch": 33,
                "velocity": 64,
                "duration": 0.0659091,
                "tempo": 120.0
            },
            {
                "start_time": 0.7022727,
                "end_time": 1.5159091,
                "pitch": 7,
                "velocity": 64,
                "duration": 0.8136364,
                "tempo": 120.0
            },
            {
                "start_time": 1.5159091,
                "end_time": 1.5818182,
                "pitch": 38,
                "velocity": 64,
                "duration": 0.0659091,
                "tempo": 120.0
            },
            {
                "start_time": 1.6318182,
                "end_time": 1.7,
                "pitch": 36,
                "velocity": 64,
                "duration": 0.0681818,
                "tempo": 120.0
            },
            {
                "start_time": 0.3545455,
                "end_time": 1.75,
                "pitch": 40,
                "velocity": 64,
                "duration": 1.3954545,
                "tempo": 120.0
            },
            {
                "start_time": 1.75,
                "end_time": 1.8181818,
                "pitch": 33,
                "velocity": 64,
                "duration": 0.0681818,
                "tempo": 120.0
            },
            {
                "start_time": 1.8704545,
                "end_time": 1.9386364,
                "pitch": 33,
                "velocity": 64,
                "duration": 0.0681818,
                "tempo": 120.0
            },
            {
                "start_time": 1.9886364,
                "end_time": 2.0568182,
                "pitch": 33,
                "velocity": 64,
                "duration": 0.0681818,
                "tempo": 120.0
            },
            {
                "start_time": 1.5159091,
                "end_time": 2.1068182,
                "pitch": 7,
                "velocity": 64,
                "duration": 0.5909091,
                "tempo": 120.0
            },
            {
                "start_time": 1.6318182,
                "end_time": 2.175,
                "pitch": 38,
                "velocity": 64,
                "duration": 0.5431818,
                "tempo": 120.0
            },
            {
                "start_time": 2.1068182,
                "end_time": 2.175,
                "pitch": 38,
                "velocity": 64,
                "duration": 0.0681818,
                "tempo": 120.0
            },
            {
                "start_time": 2.225,
                "end_time": 2.3681818,
                "pitch": 33,
                "velocity": 64,
                "duration": 0.1431818,
                "tempo": 120.0
            },
            {
                "start_time": 2.4545455,
                "end_time": 2.5227273,
                "pitch": 35,
                "velocity": 64,
                "duration": 0.0681818,
                "tempo": 120.0
            },
            {
                "start_time": 2.4545455,
                "end_time": 2.6386364,
                "pitch": 33,
                "velocity": 64,
                "duration": 0.1840909,
                "tempo": 120.0
            },
            {
                "start_time": 2.5727273,
                "end_time": 2.6386364,
                "pitch": 33,
                "velocity": 64,
                "duration": 0.0659091,
                "tempo": 120.0
            },
            {
                "start_time": 2.6886364,
                "end_time": 2.7545455,
                "pitch": 33,
                "velocity": 64,
                "duration": 0.0659091,
                "tempo": 120.0
            },
            {
                "start_time": 2.9204545,
                "end_time": 2.9863636,
                "pitch": 29,
                "velocity": 64,
                "duration": 0.0659091,
                "tempo": 120.0
            },
            {
                "start_time": 3.0363636,
                "end_time": 3.1022727,
                "pitch": 29,
                "velocity": 64,
                "duration": 0.0659091,
                "tempo": 120.0
            },
            {
                "start_time": 3.1522727,
                "end_time": 3.2204545,
                "pitch": 29,
                "velocity": 64,
                "duration": 0.0681818,
                "tempo": 120.0
            },
            {
                "start_time": 1.4,
                "end_time": 3.2681818,
                "pitch": 42,
                "velocity": 64,
                "duration": 1.8681818,
                "tempo": 120.0
            },
            {
                "start_time": 0.0409091,
                "end_time": 3.3363636,
                "pitch": 31,
                "velocity": 64,
                "duration": 3.2954545,
                "tempo": 120.0
            },
            {
                "start_time": 3.2681818,
                "end_time": 3.3363636,
                "pitch": 31,
                "velocity": 64,
                "duration": 0.0681818,
                "tempo": 120.0
            },
            {
                "start_time": 3.3840909,
                "end_time": 3.4522727,
                "pitch": 31,
                "velocity": 64,
                "duration": 0.0681818,
                "tempo": 120.0
            },
            {
                "start_time": 3.5,
                "end_time": 3.5704545,
                "pitch": 31,
                "velocity": 64,
                "duration": 0.0704545,
                "tempo": 120.0
            },
            {
                "start_time": 3.6181818,
                "end_time": 3.6886364,
                "pitch": 31,
                "velocity": 64,
                "duration": 0.0704545,
                "tempo": 120.0
            },
            {
                "start_time": 3.7386364,
                "end_time": 3.8068182,
                "pitch": 33,
                "velocity": 64,
                "duration": 0.0681818,
                "tempo": 120.0
            },
            {
                "start_time": 3.8568182,
                "end_time": 3.925,
                "pitch": 33,
                "velocity": 64,
                "duration": 0.0681818,
                "tempo": 120.0
            },
            {
                "start_time": 2.1068182,
                "end_time": 3.9772727,
                "pitch": 7,
                "velocity": 64,
                "duration": 1.8704545,
                "tempo": 120.0
            },
            {
                "start_time": 3.9772727,
                "end_time": 4.0431818,
                "pitch": 36,
                "velocity": 64,
                "duration": 0.0659091,
                "tempo": 120.0
            },
            {
                "start_time": 1.75,
                "end_time": 4.0931818,
                "pitch": 40,
                "velocity": 64,
                "duration": 2.3431818,
                "tempo": 120.0
            },
            {
                "start_time": 4.0931818,
                "end_time": 4.2363636,
                "pitch": 33,
                "velocity": 64,
                "duration": 0.1431818,
                "tempo": 120.0
            },
            {
                "start_time": 2.5727273,
                "end_time": 4.3909091,
                "pitch": 35,
                "velocity": 64,
                "duration": 1.8181818,
                "tempo": 120.0
            },
            {
                "start_time": 4.325,
                "end_time": 4.3909091,
                "pitch": 35,
                "velocity": 64,
                "duration": 0.0659091,
                "tempo": 120.0
            },
            {
                "start_time": 3.9772727,
                "end_time": 4.4409091,
                "pitch": 7,
                "velocity": 64,
                "duration": 0.4636364,
                "tempo": 120.0
            },
            {
                "start_time": 4.4409091,
                "end_time": 4.5068182,
                "pitch": 29,
                "velocity": 64,
                "duration": 0.0659091,
                "tempo": 120.0
            },
            {
                "start_time": 3.2681818,
                "end_time": 4.5568182,
                "pitch": 42,
                "velocity": 64,
                "duration": 1.2886364,
                "tempo": 120.0
            },
            {
                "start_time": 4.325,
                "end_time": 4.625,
                "pitch": 33,
                "velocity": 64,
                "duration": 0.3,
                "tempo": 120.0
            },
            {
                "start_time": 4.5568182,
                "end_time": 4.625,
                "pitch": 33,
                "velocity": 64,
                "duration": 0.0681818,
                "tempo": 120.0
            },
            {
                "start_time": 4.6727273,
                "end_time": 4.7409091,
                "pitch": 33,
                "velocity": 64,
                "duration": 0.0681818,
                "tempo": 120.0
            },
            {
                "start_time": 4.5568182,
                "end_time": 4.9045455,
                "pitch": 42,
                "velocity": 64,
                "duration": 0.3477273,
                "tempo": 120.0
            },
            {
                "start_time": 4.9045455,
                "end_time": 4.9727273,
                "pitch": 33,
                "velocity": 64,
                "duration": 0.0681818,
                "tempo": 120.0
            },
            {
                "start_time": 4.9045455,
                "end_time": 5.1431818,
                "pitch": 42,
                "velocity": 64,
                "duration": 0.2386364,
                "tempo": 120.0
            },
            {
                "start_time": 5.1431818,
                "end_time": 5.2113636,
                "pitch": 33,
                "velocity": 64,
                "duration": 0.0681818,
                "tempo": 120.0
            },
            {
                "start_time": 4.4409091,
                "end_time": 5.2613636,
                "pitch": 7,
                "velocity": 64,
                "duration": 0.8204545,
                "tempo": 120.0
            },
            {
                "start_time": 5.2613636,
                "end_time": 5.3295455,
                "pitch": 38,
                "velocity": 64,
                "duration": 0.0681818,
                "tempo": 120.0
            },
            {
                "start_time": 5.3795455,
                "end_time": 5.4477273,
                "pitch": 36,
                "velocity": 64,
                "duration": 0.0681818,
                "tempo": 120.0
            },
            {
                "start_time": 4.0931818,
                "end_time": 5.4977273,
                "pitch": 40,
                "velocity": 64,
                "duration": 1.4045455,
                "tempo": 120.0
            },
            {
                "start_time": 5.4977273,
                "end_time": 5.5636364,
                "pitch": 33,
                "velocity": 64,
                "duration": 0.0659091,
                "tempo": 120.0
            },
            {
                "start_time": 5.6136364,
                "end_time": 5.6795455,
                "pitch": 33,
                "velocity": 64,
                "duration": 0.0659091,
                "tempo": 120.0
            },
            {
                "start_time": 5.7295455,
                "end_time": 5.7954545,
                "pitch": 33,
                "velocity": 64,
                "duration": 0.0659091,
                "tempo": 120.0
            },
            {
                "start_time": 5.2613636,
                "end_time": 5.8454545,
                "pitch": 7,
                "velocity": 64,
                "duration": 0.5840909,
                "tempo": 120.0
            },
            {
                "start_time": 5.3795455,
                "end_time": 5.9113636,
                "pitch": 38,
                "velocity": 64,
                "duration": 0.5318182,
                "tempo": 120.0
            },
            {
                "start_time": 5.8454545,
                "end_time": 5.9113636,
                "pitch": 38,
                "velocity": 64,
                "duration": 0.0659091,
                "tempo": 120.0
            },
            {
                "start_time": 2.225,
                "end_time": 5.9613636,
                "pitch": 41,
                "velocity": 64,
                "duration": 3.7363636,
                "tempo": 120.0
            },
            {
                "start_time": 5.9613636,
                "end_time": 6.1068182,
                "pitch": 33,
                "velocity": 64,
                "duration": 0.1454545,
                "tempo": 120.0
            },
            {
                "start_time": 6.1931818,
                "end_time": 6.2613636,
                "pitch": 35,
                "velocity": 64,
                "duration": 0.0681818,
                "tempo": 120.0
            },
            {
                "start_time": 6.1931818,
                "end_time": 6.3772727,
                "pitch": 33,
                "velocity": 64,
                "duration": 0.1840909,
                "tempo": 120.0
            },
            {
                "start_time": 6.3090909,
                "end_time": 6.3772727,
                "pitch": 33,
                "velocity": 64,
                "duration": 0.0681818,
                "tempo": 120.0
            },
            {
                "start_time": 6.4272727,
                "end_time": 6.4977273,
                "pitch": 33,
                "velocity": 64,
                "duration": 0.0704545,
                "tempo": 120.0
            },
            {
                "start_time": 5.8454545,
                "end_time": 6.5477273,
                "pitch": 7,
                "velocity": 64,
                "duration": 0.7022727,
                "tempo": 120.0
            },
            {
                "start_time": 6.5477273,
                "end_time": 6.6159091,
                "pitch": 36,
                "velocity": 64,
                "duration": 0.0681818,
                "tempo": 120.0
            },
            {
                "start_time": 5.4977273,
                "end_time": 6.6659091,
                "pitch": 40,
                "velocity": 64,
                "duration": 1.1681818,
                "tempo": 120.0
            },
            {
                "start_time": 6.3090909,
                "end_time": 6.7340909,
                "pitch": 35,
                "velocity": 64,
                "duration": 0.425,
                "tempo": 120.0
            },
            {
                "start_time": 6.6659091,
                "end_time": 6.7340909,
                "pitch": 35,
                "velocity": 64,
                "duration": 0.0681818,
                "tempo": 120.0
            },
            {
                "start_time": 6.7840909,
                "end_time": 6.8522727,
                "pitch": 33,
                "velocity": 64,
                "duration": 0.0681818,
                "tempo": 120.0
            },
            {
                "start_time": 3.7386364,
                "end_time": 6.9681818,
                "pitch": 31,
                "velocity": 64,
                "duration": 3.2295455,
                "tempo": 120.0
            },
            {
                "start_time": 6.9,
                "end_time": 6.9681818,
                "pitch": 31,
                "velocity": 64,
                "duration": 0.0681818,
                "tempo": 120.0
            },
            {
                "start_time": 6.9,
                "end_time": 7.0840909,
                "pitch": 33,
                "velocity": 64,
                "duration": 0.1840909,
                "tempo": 120.0
            },
            {
                "start_time": 7.0181818,
                "end_time": 7.0840909,
                "pitch": 33,
                "velocity": 64,
                "duration": 0.0659091,
                "tempo": 120.0
            },
            {
                "start_time": 7.1318182,
                "end_time": 7.1340909,
                "pitch": 33,
                "velocity": 64,
                "duration": 0.0022727,
                "tempo": 120.0
            },
            {
                "start_time": 7.0181818,
                "end_time": 7.2,
                "pitch": 31,
                "velocity": 64,
                "duration": 0.1818182,
                "tempo": 120.0
            },
            {
                "start_time": 7.1340909,
                "end_time": 7.2,
                "pitch": 31,
                "velocity": 64,
                "duration": 0.0659091,
                "tempo": 120.0
            },
            {
                "start_time": 7.25,
                "end_time": 7.3159091,
                "pitch": 29,
                "velocity": 64,
                "duration": 0.0659091,
                "tempo": 120.0
            },
            {
                "start_time": 7.3659091,
                "end_time": 7.4318182,
                "pitch": 26,
                "velocity": 64,
                "duration": 0.0659091,
                "tempo": 120.0
            },
            {
                "start_time": 7.4840909,
                "end_time": 7.6659091,
                "pitch": 38,
                "velocity": 51,
                "duration": 0.1818182,
                "tempo": 120.0
            },
            {
                "start_time": 6.6659091,
                "end_time": 7.6659091,
                "pitch": 40,
                "velocity": 64,
                "duration": 1.0,
                "tempo": 120.0
            },
            {
                "start_time": 7.6659091,
                "end_time": 7.7818182,
                "pitch": 40,
                "velocity": 51,
                "duration": 0.1159091,
                "tempo": 120.0
            },
            {
                "start_time": 7.7136364,
                "end_time": 7.7818182,
                "pitch": 40,
                "velocity": 51,
                "duration": 0.0681818,
                "tempo": 120.0
            },
            {
                "start_time": 7.8318182,
                "end_time": 7.9022727,
                "pitch": 40,
                "velocity": 51,
                "duration": 0.0704545,
                "tempo": 120.0
            },
            {
                "start_time": 8.0704545,
                "end_time": 8.1386364,
                "pitch": 40,
                "velocity": 51,
                "duration": 0.0681818,
                "tempo": 120.0
            },
            {
                "start_time": 8.1886364,
                "end_time": 8.2568182,
                "pitch": 40,
                "velocity": 51,
                "duration": 0.0681818,
                "tempo": 120.0
            },
            {
                "start_time": 5.9613636,
                "end_time": 8.3727273,
                "pitch": 41,
                "velocity": 64,
                "duration": 2.4113636,
                "tempo": 120.0
            },
            {
                "start_time": 8.3068182,
                "end_time": 8.3727273,
                "pitch": 41,
                "velocity": 51,
                "duration": 0.0659091,
                "tempo": 120.0
            },
            {
                "start_time": 8.4227273,
                "end_time": 8.4886364,
                "pitch": 40,
                "velocity": 51,
                "duration": 0.0659091,
                "tempo": 120.0
            },
            {
                "start_time": 8.5386364,
                "end_time": 8.6045455,
                "pitch": 40,
                "velocity": 51,
                "duration": 0.0659091,
                "tempo": 120.0
            },
            {
                "start_time": 8.6545455,
                "end_time": 8.7204545,
                "pitch": 40,
                "velocity": 51,
                "duration": 0.0659091,
                "tempo": 120.0
            },
            {
                "start_time": 8.7704545,
                "end_time": 8.8363636,
                "pitch": 40,
                "velocity": 51,
                "duration": 0.0659091,
                "tempo": 120.0
            },
            {
                "start_time": 9.0022727,
                "end_time": 9.0704545,
                "pitch": 40,
                "velocity": 51,
                "duration": 0.0681818,
                "tempo": 120.0
            },
            {
                "start_time": 5.1431818,
                "end_time": 9.1181818,
                "pitch": 42,
                "velocity": 64,
                "duration": 3.975,
                "tempo": 120.0
            },
            {
                "start_time": 6.7840909,
                "end_time": 9.1863636,
                "pitch": 35,
                "velocity": 64,
                "duration": 2.4022727,
                "tempo": 120.0
            },
            {
                "start_time": 9.1181818,
                "end_time": 9.1863636,
                "pitch": 35,
                "velocity": 51,
                "duration": 0.0681818,
                "tempo": 120.0
            },
            {
                "start_time": 9.2386364,
                "end_time": 9.3068182,
                "pitch": 40,
                "velocity": 51,
                "duration": 0.0681818,
                "tempo": 120.0
            },
            {
                "start_time": 9.3568182,
                "end_time": 9.5431818,
                "pitch": 38,
                "velocity": 51,
                "duration": 0.1863636,
                "tempo": 120.0
            },
            {
                "start_time": 9.3568182,
                "end_time": 9.5431818,
                "pitch": 40,
                "velocity": 51,
                "duration": 0.1863636,
                "tempo": 120.0
            },
            {
                "start_time": 9.5431818,
                "end_time": 9.6613636,
                "pitch": 40,
                "velocity": 51,
                "duration": 0.1181818,
                "tempo": 120.0
            },
            {
                "start_time": 9.5931818,
                "end_time": 9.6613636,
                "pitch": 40,
                "velocity": 51,
                "duration": 0.0681818,
                "tempo": 120.0
            },
            {
                "start_time": 9.7090909,
                "end_time": 9.7772727,
                "pitch": 40,
                "velocity": 51,
                "duration": 0.0681818,
                "tempo": 120.0
            },
            {
                "start_time": 9.9431818,
                "end_time": 10.0090909,
                "pitch": 40,
                "velocity": 51,
                "duration": 0.0659091,
                "tempo": 120.0
            },
            {
                "start_time": 10.0590909,
                "end_time": 10.125,
                "pitch": 40,
                "velocity": 51,
                "duration": 0.0659091,
                "tempo": 120.0
            },
            {
                "start_time": 10.175,
                "end_time": 10.2409091,
                "pitch": 41,
                "velocity": 51,
                "duration": 0.0659091,
                "tempo": 120.0
            },
            {
                "start_time": 10.2909091,
                "end_time": 10.3568182,
                "pitch": 40,
                "velocity": 51,
                "duration": 0.0659091,
                "tempo": 120.0
            },
            {
                "start_time": 10.4068182,
                "end_time": 10.475,
                "pitch": 40,
                "velocity": 51,
                "duration": 0.0681818,
                "tempo": 120.0
            },
            {
                "start_time": 10.5227273,
                "end_time": 10.5909091,
                "pitch": 40,
                "velocity": 51,
                "duration": 0.0681818,
                "tempo": 120.0
            },
            {
                "start_time": 10.6409091,
                "end_time": 10.7113636,
                "pitch": 40,
                "velocity": 51,
                "duration": 0.0704545,
                "tempo": 120.0
            },
            {
                "start_time": 10.8795455,
                "end_time": 10.9477273,
                "pitch": 40,
                "velocity": 51,
                "duration": 0.0681818,
                "tempo": 120.0
            },
            {
                "start_time": 9.1181818,
                "end_time": 10.9977273,
                "pitch": 42,
                "velocity": 51,
                "duration": 1.8795455,
                "tempo": 120.0
            },
            {
                "start_time": 10.9977273,
                "end_time": 11.0659091,
                "pitch": 35,
                "velocity": 51,
                "duration": 0.0681818,
                "tempo": 120.0
            },
            {
                "start_time": 9.2386364,
                "end_time": 11.1136364,
                "pitch": 19,
                "velocity": 51,
                "duration": 1.875,
                "tempo": 120.0
            },
            {
                "start_time": 11.1136364,
                "end_time": 11.1818182,
                "pitch": 40,
                "velocity": 51,
                "duration": 0.0681818,
                "tempo": 120.0
            },
            {
                "start_time": 11.2318182,
                "end_time": 11.4136364,
                "pitch": 38,
                "velocity": 51,
                "duration": 0.1818182,
                "tempo": 120.0
            },
            {
                "start_time": 11.2318182,
                "end_time": 11.4136364,
                "pitch": 40,
                "velocity": 51,
                "duration": 0.1818182,
                "tempo": 120.0
            },
            {
                "start_time": 11.4136364,
                "end_time": 11.5295455,
                "pitch": 40,
                "velocity": 51,
                "duration": 0.1159091,
                "tempo": 120.0
            },
            {
                "start_time": 11.4636364,
                "end_time": 11.5295455,
                "pitch": 40,
                "velocity": 51,
                "duration": 0.0659091,
                "tempo": 120.0
            },
            {
                "start_time": 11.5795455,
                "end_time": 11.6454545,
                "pitch": 40,
                "velocity": 51,
                "duration": 0.0659091,
                "tempo": 120.0
            },
            {
                "start_time": 11.8113636,
                "end_time": 11.8772727,
                "pitch": 40,
                "velocity": 51,
                "duration": 0.0659091,
                "tempo": 120.0
            },
            {
                "start_time": 11.9272727,
                "end_time": 11.9954545,
                "pitch": 40,
                "velocity": 51,
                "duration": 0.0681818,
                "tempo": 120.0
            },
            {
                "start_time": 12.0431818,
                "end_time": 12.1113636,
                "pitch": 41,
                "velocity": 51,
                "duration": 0.0681818,
                "tempo": 120.0
            },
            {
                "start_time": 12.1613636,
                "end_time": 12.2272727,
                "pitch": 40,
                "velocity": 51,
                "duration": 0.0659091,
                "tempo": 120.0
            },
            {
                "start_time": 12.2772727,
                "end_time": 12.3431818,
                "pitch": 40,
                "velocity": 51,
                "duration": 0.0659091,
                "tempo": 120.0
            },
            {
                "start_time": 12.3931818,
                "end_time": 12.4613636,
                "pitch": 40,
                "velocity": 51,
                "duration": 0.0681818,
                "tempo": 120.0
            },
            {
                "start_time": 12.5090909,
                "end_time": 12.5795455,
                "pitch": 40,
                "velocity": 51,
                "duration": 0.0704545,
                "tempo": 120.0
            },
            {
                "start_time": 12.7477273,
                "end_time": 12.8181818,
                "pitch": 40,
                "velocity": 51,
                "duration": 0.0704545,
                "tempo": 120.0
            },
            {
                "start_time": 10.9977273,
                "end_time": 12.8659091,
                "pitch": 42,
                "velocity": 51,
                "duration": 1.8681818,
                "tempo": 120.0
            },
            {
                "start_time": 12.8659091,
                "end_time": 12.9340909,
                "pitch": 35,
                "velocity": 51,
                "duration": 0.0681818,
                "tempo": 120.0
            },
            {
                "start_time": 11.1136364,
                "end_time": 12.9840909,
                "pitch": 19,
                "velocity": 51,
                "duration": 1.8704545,
                "tempo": 120.0
            },
            {
                "start_time": 12.9840909,
                "end_time": 13.05,
                "pitch": 40,
                "velocity": 51,
                "duration": 0.0659091,
                "tempo": 120.0
            },
            {
                "start_time": 13.1,
                "end_time": 13.2818182,
                "pitch": 38,
                "velocity": 51,
                "duration": 0.1818182,
                "tempo": 120.0
            },
            {
                "start_time": 13.1,
                "end_time": 13.2818182,
                "pitch": 40,
                "velocity": 51,
                "duration": 0.1818182,
                "tempo": 120.0
            },
            {
                "start_time": 13.2818182,
                "end_time": 13.4,
                "pitch": 40,
                "velocity": 51,
                "duration": 0.1181818,
                "tempo": 120.0
            },
            {
                "start_time": 13.3318182,
                "end_time": 13.4,
                "pitch": 40,
                "velocity": 51,
                "duration": 0.0681818,
                "tempo": 120.0
            },
            {
                "start_time": 13.4477273,
                "end_time": 13.5159091,
                "pitch": 40,
                "velocity": 51,
                "duration": 0.0681818,
                "tempo": 120.0
            },
            {
                "start_time": 13.6795455,
                "end_time": 13.7477273,
                "pitch": 40,
                "velocity": 51,
                "duration": 0.0681818,
                "tempo": 120.0
            },
            {
                "start_time": 13.7954545,
                "end_time": 13.8659091,
                "pitch": 40,
                "velocity": 51,
                "duration": 0.0704545,
                "tempo": 120.0
            },
            {
                "start_time": 13.9159091,
                "end_time": 13.9840909,
                "pitch": 41,
                "velocity": 51,
                "duration": 0.0681818,
                "tempo": 120.0
            },
            {
                "start_time": 14.0340909,
                "end_time": 14.1022727,
                "pitch": 28,
                "velocity": 51,
                "duration": 0.0681818,
                "tempo": 120.0
            },
            {
                "start_time": 14.1522727,
                "end_time": 14.2204545,
                "pitch": 40,
                "velocity": 51,
                "duration": 0.0681818,
                "tempo": 120.0
            },
            {
                "start_time": 14.2727273,
                "end_time": 14.3386364,
                "pitch": 38,
                "velocity": 51,
                "duration": 0.0659091,
                "tempo": 120.0
            },
            {
                "start_time": 14.3886364,
                "end_time": 14.4545455,
                "pitch": 36,
                "velocity": 51,
                "duration": 0.0659091,
                "tempo": 120.0
            },
            {
                "start_time": 14.3886364,
                "end_time": 14.5704545,
                "pitch": 38,
                "velocity": 51,
                "duration": 0.1818182,
                "tempo": 120.0
            },
            {
                "start_time": 14.5045455,
                "end_time": 14.5704545,
                "pitch": 38,
                "velocity": 51,
                "duration": 0.0659091,
                "tempo": 120.0
            },
            {
                "start_time": 14.5045455,
                "end_time": 14.6863636,
                "pitch": 36,
                "velocity": 51,
                "duration": 0.1818182,
                "tempo": 120.0
            },
            {
                "start_time": 14.6204545,
                "end_time": 14.6863636,
                "pitch": 36,
                "velocity": 51,
                "duration": 0.0659091,
                "tempo": 120.0
            },
            {
                "start_time": 14.2727273,
                "end_time": 14.7363636,
                "pitch": 40,
                "velocity": 51,
                "duration": 0.4636364,
                "tempo": 120.0
            },
            {
                "start_time": 14.7363636,
                "end_time": 14.8045455,
                "pitch": 35,
                "velocity": 51,
                "duration": 0.0681818,
                "tempo": 120.0
            },
            {
                "start_time": 14.8522727,
                "end_time": 14.9204545,
                "pitch": 31,
                "velocity": 51,
                "duration": 0.0681818,
                "tempo": 120.0
            },
            {
                "start_time": 14.9704545,
                "end_time": 15.0363636,
                "pitch": 33,
                "velocity": 64,
                "duration": 0.0659091,
                "tempo": 120.0
            },
            {
                "start_time": 15.0840909,
                "end_time": 15.1522727,
                "pitch": 33,
                "velocity": 64,
                "duration": 0.0681818,
                "tempo": 120.0
            },
            {
                "start_time": 6.5477273,
                "end_time": 15.2022727,
                "pitch": 7,
                "velocity": 64,
                "duration": 8.6545455,
                "tempo": 120.0
            },
            {
                "start_time": 15.2022727,
                "end_time": 15.2704545,
                "pitch": 36,
                "velocity": 64,
                "duration": 0.0681818,
                "tempo": 120.0
            },
            {
                "start_time": 14.7363636,
                "end_time": 15.3204545,
                "pitch": 40,
                "velocity": 51,
                "duration": 0.5840909,
                "tempo": 120.0
            },
            {
                "start_time": 15.3204545,
                "end_time": 15.4681818,
                "pitch": 33,
                "velocity": 64,
                "duration": 0.1477273,
                "tempo": 120.0
            },
            {
                "start_time": 14.8522727,
                "end_time": 15.625,
                "pitch": 35,
                "velocity": 51,
                "duration": 0.7727273,
                "tempo": 120.0
            },
            {
                "start_time": 15.5568182,
                "end_time": 15.625,
                "pitch": 35,
                "velocity": 64,
                "duration": 0.0681818,
                "tempo": 120.0
            },
            {
                "start_time": 15.2022727,
                "end_time": 15.675,
                "pitch": 7,
                "velocity": 64,
                "duration": 0.4727273,
                "tempo": 120.0
            },
            {
                "start_time": 7.3659091,
                "end_time": 15.7431818,
                "pitch": 29,
                "velocity": 64,
                "duration": 8.3772727,
                "tempo": 120.0
            },
            {
                "start_time": 15.675,
                "end_time": 15.7431818,
                "pitch": 29,
                "velocity": 64,
                "duration": 0.0681818,
                "tempo": 120.0
            },
            {
                "start_time": 12.8659091,
                "end_time": 15.7931818,
                "pitch": 42,
                "velocity": 51,
                "duration": 2.9272727,
                "tempo": 120.0
            },
            {
                "start_time": 15.5568182,
                "end_time": 15.8590909,
                "pitch": 33,
                "velocity": 64,
                "duration": 0.3022727,
                "tempo": 120.0
            },
            {
                "start_time": 15.7931818,
                "end_time": 15.8590909,
                "pitch": 33,
                "velocity": 64,
                "duration": 0.0659091,
                "tempo": 120.0
            },
            {
                "start_time": 15.9090909,
                "end_time": 15.975,
                "pitch": 33,
                "velocity": 64,
                "duration": 0.0659091,
                "tempo": 120.0
            },
            {
                "start_time": 15.7931818,
                "end_time": 16.1409091,
                "pitch": 42,
                "velocity": 64,
                "duration": 0.3477273,
                "tempo": 120.0
            },
            {
                "start_time": 16.1409091,
                "end_time": 16.2068182,
                "pitch": 33,
                "velocity": 64,
                "duration": 0.0659091,
                "tempo": 120.0
            },
            {
                "start_time": 16.1409091,
                "end_time": 16.3727273,
                "pitch": 42,
                "velocity": 64,
                "duration": 0.2318182,
                "tempo": 120.0
            },
            {
                "start_time": 16.3727273,
                "end_time": 16.4409091,
                "pitch": 33,
                "velocity": 64,
                "duration": 0.0681818,
                "tempo": 120.0
            },
            {
                "start_time": 15.675,
                "end_time": 16.4886364,
                "pitch": 7,
                "velocity": 64,
                "duration": 0.8136364,
                "tempo": 120.0
            },
            {
                "start_time": 14.6204545,
                "end_time": 16.5568182,
                "pitch": 38,
                "velocity": 51,
                "duration": 1.9363636,
                "tempo": 120.0
            },
            {
                "start_time": 16.4886364,
                "end_time": 16.5568182,
                "pitch": 38,
                "velocity": 64,
                "duration": 0.0681818,
                "tempo": 120.0
            },
            {
                "start_time": 16.6045455,
                "end_time": 16.6727273,
                "pitch": 36,
                "velocity": 64,
                "duration": 0.0681818,
                "tempo": 120.0
            },
            {
                "start_time": 15.3204545,
                "end_time": 16.7204545,
                "pitch": 40,
                "velocity": 64,
                "duration": 1.4,
                "tempo": 120.0
            },
            {
                "start_time": 16.7204545,
                "end_time": 16.7886364,
                "pitch": 33,
                "velocity": 64,
                "duration": 0.0681818,
                "tempo": 120.0
            },
            {
                "start_time": 16.8386364,
                "end_time": 16.9045455,
                "pitch": 33,
                "velocity": 64,
                "duration": 0.0659091,
                "tempo": 120.0
            },
            {
                "start_time": 16.9545455,
                "end_time": 17.0204545,
                "pitch": 33,
                "velocity": 64,
                "duration": 0.0659091,
                "tempo": 120.0
            },
            {
                "start_time": 16.4886364,
                "end_time": 17.0704545,
                "pitch": 7,
                "velocity": 64,
                "duration": 0.5818182,
                "tempo": 120.0
            },
            {
                "start_time": 16.6045455,
                "end_time": 17.1386364,
                "pitch": 38,
                "velocity": 64,
                "duration": 0.5340909,
                "tempo": 120.0
            },
            {
                "start_time": 17.0704545,
                "end_time": 17.1386364,
                "pitch": 38,
                "velocity": 64,
                "duration": 0.0681818,
                "tempo": 120.0
            },
            {
                "start_time": 17.1886364,
                "end_time": 17.3363636,
                "pitch": 33,
                "velocity": 64,
                "duration": 0.1477273,
                "tempo": 120.0
            },
            {
                "start_time": 17.425,
                "end_time": 17.4954545,
                "pitch": 35,
                "velocity": 64,
                "duration": 0.0704545,
                "tempo": 120.0
            },
            {
                "start_time": 17.425,
                "end_time": 17.6136364,
                "pitch": 33,
                "velocity": 64,
                "duration": 0.1886364,
                "tempo": 120.0
            },
            {
                "start_time": 17.5454545,
                "end_time": 17.6136364,
                "pitch": 33,
                "velocity": 64,
                "duration": 0.0681818,
                "tempo": 120.0
            },
            {
                "start_time": 17.6613636,
                "end_time": 17.7295455,
                "pitch": 33,
                "velocity": 64,
                "duration": 0.0681818,
                "tempo": 120.0
            },
            {
                "start_time": 17.8931818,
                "end_time": 17.9613636,
                "pitch": 29,
                "velocity": 64,
                "duration": 0.0681818,
                "tempo": 120.0
            },
            {
                "start_time": 18.0090909,
                "end_time": 18.0772727,
                "pitch": 29,
                "velocity": 64,
                "duration": 0.0681818,
                "tempo": 120.0
            },
            {
                "start_time": 18.125,
                "end_time": 18.1931818,
                "pitch": 29,
                "velocity": 64,
                "duration": 0.0681818,
                "tempo": 120.0
            },
            {
                "start_time": 16.3727273,
                "end_time": 18.2409091,
                "pitch": 42,
                "velocity": 64,
                "duration": 1.8681818,
                "tempo": 120.0
            },
            {
                "start_time": 14.9704545,
                "end_time": 18.3090909,
                "pitch": 31,
                "velocity": 64,
                "duration": 3.3386364,
                "tempo": 120.0
            },
            {
                "start_time": 18.2409091,
                "end_time": 18.3090909,
                "pitch": 31,
                "velocity": 64,
                "duration": 0.0681818,
                "tempo": 120.0
            },
            {
                "start_time": 18.3590909,
                "end_time": 18.425,
                "pitch": 31,
                "velocity": 64,
                "duration": 0.0659091,
                "tempo": 120.0
            },
            {
                "start_time": 18.4727273,
                "end_time": 18.5431818,
                "pitch": 31,
                "velocity": 64,
                "duration": 0.0704545,
                "tempo": 120.0
            },
            {
                "start_time": 18.5931818,
                "end_time": 18.6613636,
                "pitch": 31,
                "velocity": 64,
                "duration": 0.0681818,
                "tempo": 120.0
            },
            {
                "start_time": 18.7136364,
                "end_time": 18.7795455,
                "pitch": 33,
                "velocity": 64,
                "duration": 0.0659091,
                "tempo": 120.0
            },
            {
                "start_time": 18.8295455,
                "end_time": 18.9,
                "pitch": 33,
                "velocity": 64,
                "duration": 0.0704545,
                "tempo": 120.0
            },
            {
                "start_time": 17.0704545,
                "end_time": 18.95,
                "pitch": 7,
                "velocity": 64,
                "duration": 1.8795455,
                "tempo": 120.0
            },
            {
                "start_time": 18.95,
                "end_time": 19.0181818,
                "pitch": 36,
                "velocity": 64,
                "duration": 0.0681818,
                "tempo": 120.0
            },
            {
                "start_time": 16.7204545,
                "end_time": 19.0659091,
                "pitch": 40,
                "velocity": 64,
                "duration": 2.3454545,
                "tempo": 120.0
            },
            {
                "start_time": 19.0659091,
                "end_time": 19.2113636,
                "pitch": 33,
                "velocity": 64,
                "duration": 0.1454545,
                "tempo": 120.0
            },
            {
                "start_time": 17.5454545,
                "end_time": 19.3659091,
                "pitch": 35,
                "velocity": 64,
                "duration": 1.8204545,
                "tempo": 120.0
            },
            {
                "start_time": 19.2977273,
                "end_time": 19.3659091,
                "pitch": 35,
                "velocity": 64,
                "duration": 0.0681818,
                "tempo": 120.0
            },
            {
                "start_time": 18.95,
                "end_time": 19.4136364,
                "pitch": 7,
                "velocity": 64,
                "duration": 0.4636364,
                "tempo": 120.0
            },
            {
                "start_time": 19.4136364,
                "end_time": 19.4818182,
                "pitch": 29,
                "velocity": 64,
                "duration": 0.0681818,
                "tempo": 120.0
            },
            {
                "start_time": 18.2409091,
                "end_time": 19.5295455,
                "pitch": 42,
                "velocity": 64,
                "duration": 1.2886364,
                "tempo": 120.0
            },
            {
                "start_time": 19.2977273,
                "end_time": 19.5977273,
                "pitch": 33,
                "velocity": 64,
                "duration": 0.3,
                "tempo": 120.0
            },
            {
                "start_time": 19.5295455,
                "end_time": 19.5977273,
                "pitch": 33,
                "velocity": 64,
                "duration": 0.0681818,
                "tempo": 120.0
            },
            {
                "start_time": 19.6477273,
                "end_time": 19.7136364,
                "pitch": 33,
                "velocity": 64,
                "duration": 0.0659091,
                "tempo": 120.0
            },
            {
                "start_time": 19.5295455,
                "end_time": 19.8795455,
                "pitch": 42,
                "velocity": 64,
                "duration": 0.35,
                "tempo": 120.0
            },
            {
                "start_time": 19.8795455,
                "end_time": 19.9477273,
                "pitch": 33,
                "velocity": 64,
                "duration": 0.0681818,
                "tempo": 120.0
            },
            {
                "start_time": 19.8795455,
                "end_time": 20.1159091,
                "pitch": 42,
                "velocity": 64,
                "duration": 0.2363636,
                "tempo": 120.0
            },
            {
                "start_time": 20.1159091,
                "end_time": 20.1863636,
                "pitch": 33,
                "velocity": 64,
                "duration": 0.0704545,
                "tempo": 120.0
            },
            {
                "start_time": 19.4136364,
                "end_time": 20.2340909,
                "pitch": 7,
                "velocity": 64,
                "duration": 0.8204545,
                "tempo": 120.0
            },
            {
                "start_time": 20.2340909,
                "end_time": 20.3045455,
                "pitch": 38,
                "velocity": 64,
                "duration": 0.0704545,
                "tempo": 120.0
            },
            {
                "start_time": 20.3545455,
                "end_time": 20.4227273,
                "pitch": 36,
                "velocity": 64,
                "duration": 0.0681818,
                "tempo": 120.0
            },
            {
                "start_time": 19.0659091,
                "end_time": 20.4704545,
                "pitch": 40,
                "velocity": 64,
                "duration": 1.4045455,
                "tempo": 120.0
            },
            {
                "start_time": 20.4704545,
                "end_time": 20.5363636,
                "pitch": 33,
                "velocity": 64,
                "duration": 0.0659091,
                "tempo": 120.0
            },
            {
                "start_time": 20.5863636,
                "end_time": 20.6545455,
                "pitch": 33,
                "velocity": 64,
                "duration": 0.0681818,
                "tempo": 120.0
            },
            {
                "start_time": 20.7022727,
                "end_time": 20.7704545,
                "pitch": 33,
                "velocity": 64,
                "duration": 0.0681818,
                "tempo": 120.0
            },
            {
                "start_time": 20.2340909,
                "end_time": 20.8181818,
                "pitch": 7,
                "velocity": 64,
                "duration": 0.5840909,
                "tempo": 120.0
            },
            {
                "start_time": 20.3545455,
                "end_time": 20.8863636,
                "pitch": 38,
                "velocity": 64,
                "duration": 0.5318182,
                "tempo": 120.0
            },
            {
                "start_time": 20.8181818,
                "end_time": 20.8863636,
                "pitch": 38,
                "velocity": 64,
                "duration": 0.0681818,
                "tempo": 120.0
            },
            {
                "start_time": 17.1886364,
                "end_time": 20.9363636,
                "pitch": 41,
                "velocity": 64,
                "duration": 3.7477273,
                "tempo": 120.0
            },
            {
                "start_time": 20.9363636,
                "end_time": 21.0795455,
                "pitch": 33,
                "velocity": 64,
                "duration": 0.1431818,
                "tempo": 120.0
            },
            {
                "start_time": 21.1659091,
                "end_time": 21.2340909,
                "pitch": 35,
                "velocity": 64,
                "duration": 0.0681818,
                "tempo": 120.0
            },
            {
                "start_time": 21.1659091,
                "end_time": 21.35,
                "pitch": 33,
                "velocity": 64,
                "duration": 0.1840909,
                "tempo": 120.0
            },
            {
                "start_time": 21.2840909,
                "end_time": 21.35,
                "pitch": 33,
                "velocity": 64,
                "duration": 0.0659091,
                "tempo": 120.0
            },
            {
                "start_time": 21.3977273,
                "end_time": 21.4659091,
                "pitch": 33,
                "velocity": 64,
                "duration": 0.0681818,
                "tempo": 120.0
            },
            {
                "start_time": 20.8181818,
                "end_time": 21.5159091,
                "pitch": 7,
                "velocity": 64,
                "duration": 0.6977273,
                "tempo": 120.0
            },
            {
                "start_time": 21.5159091,
                "end_time": 21.5818182,
                "pitch": 36,
                "velocity": 64,
                "duration": 0.0659091,
                "tempo": 120.0
            },
            {
                "start_time": 20.4704545,
                "end_time": 21.6318182,
                "pitch": 40,
                "velocity": 64,
                "duration": 1.1613636,
                "tempo": 120.0
            },
            {
                "start_time": 21.2840909,
                "end_time": 21.6977273,
                "pitch": 35,
                "velocity": 64,
                "duration": 0.4136364,
                "tempo": 120.0
            },
            {
                "start_time": 21.6318182,
                "end_time": 21.6977273,
                "pitch": 35,
                "velocity": 64,
                "duration": 0.0659091,
                "tempo": 120.0
            },
            {
                "start_time": 21.7477273,
                "end_time": 21.8159091,
                "pitch": 33,
                "velocity": 64,
                "duration": 0.0681818,
                "tempo": 120.0
            },
            {
                "start_time": 18.7136364,
                "end_time": 21.9340909,
                "pitch": 31,
                "velocity": 64,
                "duration": 3.2204545,
                "tempo": 120.0
            },
            {
                "start_time": 21.8659091,
                "end_time": 21.9340909,
                "pitch": 31,
                "velocity": 64,
                "duration": 0.0681818,
                "tempo": 120.0
            },
            {
                "start_time": 21.8659091,
                "end_time": 22.0545455,
                "pitch": 33,
                "velocity": 64,
                "duration": 0.1886364,
                "tempo": 120.0
            },
            {
                "start_time": 21.9840909,
                "end_time": 22.0545455,
                "pitch": 33,
                "velocity": 64,
                "duration": 0.0704545,
                "tempo": 120.0
            },
            {
                "start_time": 21.9840909,
                "end_time": 22.1727273,
                "pitch": 31,
                "velocity": 64,
                "duration": 0.1886364,
                "tempo": 120.0
            },
            {
                "start_time": 22.1045455,
                "end_time": 22.1727273,
                "pitch": 31,
                "velocity": 64,
                "duration": 0.0681818,
                "tempo": 120.0
            },
            {
                "start_time": 7.25,
                "end_time": 22.2227273,
                "pitch": 0,
                "velocity": 64,
                "duration": 14.9727273,
                "tempo": 120.0
            },
            {
                "start_time": 22.2227273,
                "end_time": 22.2909091,
                "pitch": 29,
                "velocity": 64,
                "duration": 0.0681818,
                "tempo": 120.0
            },
            {
                "start_time": 22.3386364,
                "end_time": 22.4068182,
                "pitch": 26,
                "velocity": 64,
                "duration": 0.0681818,
                "tempo": 120.0
            },
            {
                "start_time": 22.4568182,
                "end_time": 22.6386364,
                "pitch": 26,
                "velocity": 51,
                "duration": 0.1818182,
                "tempo": 120.0
            },
            {
                "start_time": 22.6386364,
                "end_time": 22.7545455,
                "pitch": 28,
                "velocity": 51,
                "duration": 0.1159091,
                "tempo": 120.0
            },
            {
                "start_time": 22.6886364,
                "end_time": 22.7545455,
                "pitch": 28,
                "velocity": 51,
                "duration": 0.0659091,
                "tempo": 120.0
            },
            {
                "start_time": 22.8045455,
                "end_time": 22.8704545,
                "pitch": 28,
                "velocity": 51,
                "duration": 0.0659091,
                "tempo": 120.0
            },
            {
                "start_time": 23.0363636,
                "end_time": 23.1022727,
                "pitch": 28,
                "velocity": 51,
                "duration": 0.0659091,
                "tempo": 120.0
            },
            {
                "start_time": 23.1522727,
                "end_time": 23.2204545,
                "pitch": 28,
                "velocity": 51,
                "duration": 0.0681818,
                "tempo": 120.0
            },
            {
                "start_time": 23.2704545,
                "end_time": 23.3386364,
                "pitch": 28,
                "velocity": 51,
                "duration": 0.0681818,
                "tempo": 120.0
            },
            {
                "start_time": 23.3909091,
                "end_time": 23.4590909,
                "pitch": 28,
                "velocity": 51,
                "duration": 0.0681818,
                "tempo": 120.0
            },
            {
                "start_time": 23.5090909,
                "end_time": 23.5772727,
                "pitch": 28,
                "velocity": 51,
                "duration": 0.0681818,
                "tempo": 120.0
            },
            {
                "start_time": 23.6272727,
                "end_time": 23.6954545,
                "pitch": 28,
                "velocity": 51,
                "duration": 0.0681818,
                "tempo": 120.0
            },
            {
                "start_time": 23.7431818,
                "end_time": 23.8113636,
                "pitch": 28,
                "velocity": 51,
                "duration": 0.0681818,
                "tempo": 120.0
            },
            {
                "start_time": 23.9772727,
                "end_time": 24.0431818,
                "pitch": 28,
                "velocity": 51,
                "duration": 0.0659091,
                "tempo": 120.0
            },
            {
                "start_time": 20.1159091,
                "end_time": 24.0931818,
                "pitch": 42,
                "velocity": 64,
                "duration": 3.9772727,
                "tempo": 120.0
            },
            {
                "start_time": 21.7477273,
                "end_time": 24.1590909,
                "pitch": 35,
                "velocity": 64,
                "duration": 2.4113636,
                "tempo": 120.0
            },
            {
                "start_time": 24.0931818,
                "end_time": 24.1590909,
                "pitch": 35,
                "velocity": 51,
                "duration": 0.0659091,
                "tempo": 120.0
            },
            {
                "start_time": 21.5159091,
                "end_time": 24.2090909,
                "pitch": 7,
                "velocity": 64,
                "duration": 2.6931818,
                "tempo": 120.0
            },
            {
                "start_time": 24.2090909,
                "end_time": 24.275,
                "pitch": 28,
                "velocity": 51,
                "duration": 0.0659091,
                "tempo": 120.0
            },
            {
                "start_time": 24.325,
                "end_time": 24.5068182,
                "pitch": 26,
                "velocity": 51,
                "duration": 0.1818182,
                "tempo": 120.0
            },
            {
                "start_time": 24.325,
                "end_time": 24.5068182,
                "pitch": 28,
                "velocity": 51,
                "duration": 0.1818182,
                "tempo": 120.0
            },
            {
                "start_time": 24.5068182,
                "end_time": 24.625,
                "pitch": 28,
                "velocity": 51,
                "duration": 0.1181818,
                "tempo": 120.0
            },
            {
                "start_time": 24.5568182,
                "end_time": 24.625,
                "pitch": 28,
                "velocity": 51,
                "duration": 0.0681818,
                "tempo": 120.0
            },
            {
                "start_time": 24.675,
                "end_time": 24.7431818,
                "pitch": 28,
                "velocity": 51,
                "duration": 0.0681818,
                "tempo": 120.0
            },
            {
                "start_time": 24.9136364,
                "end_time": 24.9818182,
                "pitch": 28,
                "velocity": 51,
                "duration": 0.0681818,
                "tempo": 120.0
            },
            {
                "start_time": 25.0318182,
                "end_time": 25.1,
                "pitch": 28,
                "velocity": 51,
                "duration": 0.0681818,
                "tempo": 120.0
            },
            {
                "start_time": 25.1477273,
                "end_time": 25.2159091,
                "pitch": 28,
                "velocity": 51,
                "duration": 0.0681818,
                "tempo": 120.0
            },
            {
                "start_time": 25.2659091,
                "end_time": 25.3318182,
                "pitch": 28,
                "velocity": 51,
                "duration": 0.0659091,
                "tempo": 120.0
            },
            {
                "start_time": 25.3795455,
                "end_time": 25.4477273,
                "pitch": 28,
                "velocity": 51,
                "duration": 0.0681818,
                "tempo": 120.0
            },
            {
                "start_time": 25.4977273,
                "end_time": 25.5636364,
                "pitch": 28,
                "velocity": 51,
                "duration": 0.0659091,
                "tempo": 120.0
            },
            {
                "start_time": 25.6136364,
                "end_time": 25.6795455,
                "pitch": 28,
                "velocity": 51,
                "duration": 0.0659091,
                "tempo": 120.0
            },
            {
                "start_time": 25.8454545,
                "end_time": 25.9113636,
                "pitch": 28,
                "velocity": 51,
                "duration": 0.0659091,
                "tempo": 120.0
            },
            {
                "start_time": 24.0931818,
                "end_time": 25.9613636,
                "pitch": 42,
                "velocity": 51,
                "duration": 1.8681818,
                "tempo": 120.0
            },
            {
                "start_time": 25.9613636,
                "end_time": 26.0295455,
                "pitch": 35,
                "velocity": 51,
                "duration": 0.0681818,
                "tempo": 120.0
            },
            {
                "start_time": 24.2090909,
                "end_time": 26.0795455,
                "pitch": 7,
                "velocity": 51,
                "duration": 1.8704545,
                "tempo": 120.0
            },
            {
                "start_time": 26.0795455,
                "end_time": 26.1477273,
                "pitch": 28,
                "velocity": 51,
                "duration": 0.0681818,
                "tempo": 120.0
            },
            {
                "start_time": 21.6318182,
                "end_time": 26.2,
                "pitch": 40,
                "velocity": 64,
                "duration": 4.5681818,
                "tempo": 120.0
            },
            {
                "start_time": 26.2,
                "end_time": 26.3863636,
                "pitch": 38,
                "velocity": 51,
                "duration": 0.1863636,
                "tempo": 120.0
            },
            {
                "start_time": 26.2,
                "end_time": 26.3863636,
                "pitch": 40,
                "velocity": 51,
                "duration": 0.1863636,
                "tempo": 120.0
            },
            {
                "start_time": 26.3863636,
                "end_time": 26.5045455,
                "pitch": 40,
                "velocity": 51,
                "duration": 0.1181818,
                "tempo": 120.0
            },
            {
                "start_time": 26.4363636,
                "end_time": 26.5045455,
                "pitch": 40,
                "velocity": 51,
                "duration": 0.0681818,
                "tempo": 120.0
            },
            {
                "start_time": 26.5522727,
                "end_time": 26.6204545,
                "pitch": 40,
                "velocity": 51,
                "duration": 0.0681818,
                "tempo": 120.0
            },
            {
                "start_time": 26.7840909,
                "end_time": 26.8522727,
                "pitch": 40,
                "velocity": 51,
                "duration": 0.0681818,
                "tempo": 120.0
            },
            {
                "start_time": 26.9022727,
                "end_time": 26.9681818,
                "pitch": 40,
                "velocity": 51,
                "duration": 0.0659091,
                "tempo": 120.0
            },
            {
                "start_time": 27.0181818,
                "end_time": 27.0840909,
                "pitch": 40,
                "velocity": 51,
                "duration": 0.0659091,
                "tempo": 120.0
            },
            {
                "start_time": 25.9613636,
                "end_time": 27.1340909,
                "pitch": 42,
                "velocity": 51,
                "duration": 1.1727273,
                "tempo": 120.0
            },
            {
                "start_time": 27.1340909,
                "end_time": 27.2,
                "pitch": 34,
                "velocity": 51,
                "duration": 0.0659091,
                "tempo": 120.0
            },
            {
                "start_time": 27.25,
                "end_time": 27.3159091,
                "pitch": 34,
                "velocity": 51,
                "duration": 0.0659091,
                "tempo": 120.0
            },
            {
                "start_time": 27.3659091,
                "end_time": 27.4340909,
                "pitch": 34,
                "velocity": 51,
                "duration": 0.0681818,
                "tempo": 120.0
            },
            {
                "start_time": 27.4840909,
                "end_time": 27.6727273,
                "pitch": 34,
                "velocity": 51,
                "duration": 0.1886364,
                "tempo": 120.0
            },
            {
                "start_time": 27.7227273,
                "end_time": 27.7909091,
                "pitch": 34,
                "velocity": 51,
                "duration": 0.0681818,
                "tempo": 120.0
            },
            {
                "start_time": 27.8409091,
                "end_time": 27.9090909,
                "pitch": 34,
                "velocity": 51,
                "duration": 0.0681818,
                "tempo": 120.0
            },
            {
                "start_time": 27.9568182,
                "end_time": 28.025,
                "pitch": 34,
                "velocity": 51,
                "duration": 0.0681818,
                "tempo": 120.0
            },
            {
                "start_time": 28.075,
                "end_time": 28.2181818,
                "pitch": 34,
                "velocity": 51,
                "duration": 0.1431818,
                "tempo": 120.0
            },
            {
                "start_time": 28.3045455,
                "end_time": 28.3727273,
                "pitch": 35,
                "velocity": 51,
                "duration": 0.0681818,
                "tempo": 120.0
            },
            {
                "start_time": 28.4227273,
                "end_time": 28.5659091,
                "pitch": 35,
                "velocity": 51,
                "duration": 0.1431818,
                "tempo": 120.0
            },
            {
                "start_time": 12.9840909,
                "end_time": 28.6545455,
                "pitch": 19,
                "velocity": 51,
                "duration": 15.6704545,
                "tempo": 120.0
            },
            {
                "start_time": 28.6545455,
                "end_time": 28.7977273,
                "pitch": 38,
                "velocity": 51,
                "duration": 0.1431818,
                "tempo": 120.0
            },
            {
                "start_time": 28.8863636,
                "end_time": 28.9522727,
                "pitch": 38,
                "velocity": 51,
                "duration": 0.0659091,
                "tempo": 120.0
            },
            {
                "start_time": 20.9363636,
                "end_time": 29.0022727,
                "pitch": 41,
                "velocity": 64,
                "duration": 8.0659091,
                "tempo": 120.0
            },
            {
                "start_time": 29.0022727,
                "end_time": 29.0681818,
                "pitch": 35,
                "velocity": 51,
                "duration": 0.0659091,
                "tempo": 120.0
            },
            {
                "start_time": 28.6545455,
                "end_time": 29.1181818,
                "pitch": 19,
                "velocity": 51,
                "duration": 0.4636364,
                "tempo": 120.0
            },
            {
                "start_time": 29.1181818,
                "end_time": 29.1863636,
                "pitch": 40,
                "velocity": 51,
                "duration": 0.0681818,
                "tempo": 120.0
            },
            {
                "start_time": 29.2340909,
                "end_time": 29.3022727,
                "pitch": 38,
                "velocity": 51,
                "duration": 0.0681818,
                "tempo": 120.0
            },
            {
                "start_time": 29.3545455,
                "end_time": 29.4227273,
                "pitch": 36,
                "velocity": 51,
                "duration": 0.0681818,
                "tempo": 120.0
            },
            {
                "start_time": 29.3545455,
                "end_time": 29.5409091,
                "pitch": 38,
                "velocity": 51,
                "duration": 0.1863636,
                "tempo": 120.0
            },
            {
                "start_time": 29.4727273,
                "end_time": 29.5409091,
                "pitch": 38,
                "velocity": 51,
                "duration": 0.0681818,
                "tempo": 120.0
            },
            {
                "start_time": 29.4727273,
                "end_time": 29.6590909,
                "pitch": 36,
                "velocity": 51,
                "duration": 0.1863636,
                "tempo": 120.0
            },
            {
                "start_time": 29.5909091,
                "end_time": 29.6590909,
                "pitch": 36,
                "velocity": 51,
                "duration": 0.0681818,
                "tempo": 120.0
            },
            {
                "start_time": 29.2340909,
                "end_time": 29.7090909,
                "pitch": 40,
                "velocity": 51,
                "duration": 0.475,
                "tempo": 120.0
            },
            {
                "start_time": 29.7090909,
                "end_time": 29.7772727,
                "pitch": 35,
                "velocity": 51,
                "duration": 0.0681818,
                "tempo": 120.0
            },
            {
                "start_time": 26.0795455,
                "end_time": 29.8272727,
                "pitch": 7,
                "velocity": 51,
                "duration": 3.7477273,
                "tempo": 120.0
            },
            {
                "start_time": 29.8272727,
                "end_time": 29.8931818,
                "pitch": 28,
                "velocity": 51,
                "duration": 0.0659091,
                "tempo": 120.0
            },
            {
                "start_time": 27.1340909,
                "end_time": 29.9454545,
                "pitch": 42,
                "velocity": 51,
                "duration": 2.8113636,
                "tempo": 120.0
            },
            {
                "start_time": 22.1045455,
                "end_time": 30.0090909,
                "pitch": 33,
                "velocity": 64,
                "duration": 7.9045455,
                "tempo": 120.0
            },
            {
                "start_time": 29.9454545,
                "end_time": 30.0090909,
                "pitch": 33,
                "velocity": 64,
                "duration": 0.0636364,
                "tempo": 120.0
            },
            {
                "start_time": 30.0590909,
                "end_time": 30.0863636,
                "pitch": 33,
                "velocity": 64,
                "duration": 0.0272727,
                "tempo": 120.0
            }
        ],
        "Acoustic Guitar (nylon)": [
            {
                "start_time": 22.4568182,
                "end_time": 22.5522727,
                "pitch": 73,
                "velocity": 64,
                "duration": 0.0954545,
                "tempo": 120.0
            },
            {
                "start_time": 22.5704545,
                "end_time": 22.6681818,
                "pitch": 76,
                "velocity": 64,
                "duration": 0.0977273,
                "tempo": 120.0
            },
            {
                "start_time": 22.6863636,
                "end_time": 22.7840909,
                "pitch": 80,
                "velocity": 64,
                "duration": 0.0977273,
                "tempo": 120.0
            },
            {
                "start_time": 22.8022727,
                "end_time": 22.9,
                "pitch": 83,
                "velocity": 64,
                "duration": 0.0977273,
                "tempo": 120.0
            },
            {
                "start_time": 22.9181818,
                "end_time": 23.0159091,
                "pitch": 85,
                "velocity": 64,
                "duration": 0.0977273,
                "tempo": 120.0
            },
            {
                "start_time": 23.0363636,
                "end_time": 23.1318182,
                "pitch": 88,
                "velocity": 64,
                "duration": 0.0954545,
                "tempo": 120.0
            },
            {
                "start_time": 23.1522727,
                "end_time": 23.25,
                "pitch": 92,
                "velocity": 64,
                "duration": 0.0977273,
                "tempo": 120.0
            },
            {
                "start_time": 23.2704545,
                "end_time": 23.3681818,
                "pitch": 95,
                "velocity": 64,
                "duration": 0.0977273,
                "tempo": 120.0
            },
            {
                "start_time": 23.3909091,
                "end_time": 23.4886364,
                "pitch": 95,
                "velocity": 64,
                "duration": 0.0977273,
                "tempo": 120.0
            },
            {
                "start_time": 23.5068182,
                "end_time": 23.6068182,
                "pitch": 89,
                "velocity": 64,
                "duration": 0.1,
                "tempo": 120.0
            },
            {
                "start_time": 23.6272727,
                "end_time": 23.7227273,
                "pitch": 86,
                "velocity": 64,
                "duration": 0.0954545,
                "tempo": 120.0
            },
            {
                "start_time": 23.7431818,
                "end_time": 23.8386364,
                "pitch": 84,
                "velocity": 64,
                "duration": 0.0954545,
                "tempo": 120.0
            },
            {
                "start_time": 23.8590909,
                "end_time": 23.9545455,
                "pitch": 81,
                "velocity": 64,
                "duration": 0.0954545,
                "tempo": 120.0
            },
            {
                "start_time": 23.975,
                "end_time": 24.0727273,
                "pitch": 77,
                "velocity": 64,
                "duration": 0.0977273,
                "tempo": 120.0
            },
            {
                "start_time": 24.0909091,
                "end_time": 24.1886364,
                "pitch": 74,
                "velocity": 64,
                "duration": 0.0977273,
                "tempo": 120.0
            },
            {
                "start_time": 24.2068182,
                "end_time": 24.3045455,
                "pitch": 72,
                "velocity": 64,
                "duration": 0.0977273,
                "tempo": 120.0
            },
            {
                "start_time": 24.325,
                "end_time": 24.4204545,
                "pitch": 72,
                "velocity": 64,
                "duration": 0.0954545,
                "tempo": 120.0
            },
            {
                "start_time": 22.5704545,
                "end_time": 24.4386364,
                "pitch": 73,
                "velocity": 64,
                "duration": 1.8681818,
                "tempo": 120.0
            },
            {
                "start_time": 24.4386364,
                "end_time": 24.5363636,
                "pitch": 76,
                "velocity": 64,
                "duration": 0.0977273,
                "tempo": 120.0
            },
            {
                "start_time": 22.6863636,
                "end_time": 24.5568182,
                "pitch": 90,
                "velocity": 64,
                "duration": 1.8704545,
                "tempo": 120.0
            },
            {
                "start_time": 22.8022727,
                "end_time": 24.6545455,
                "pitch": 80,
                "velocity": 64,
                "duration": 1.8522727,
                "tempo": 120.0
            },
            {
                "start_time": 24.5568182,
                "end_time": 24.6545455,
                "pitch": 80,
                "velocity": 64,
                "duration": 0.0977273,
                "tempo": 120.0
            },
            {
                "start_time": 24.675,
                "end_time": 24.7727273,
                "pitch": 83,
                "velocity": 64,
                "duration": 0.0977273,
                "tempo": 120.0
            },
            {
                "start_time": 22.9181818,
                "end_time": 24.7931818,
                "pitch": 68,
                "velocity": 64,
                "duration": 1.875,
                "tempo": 120.0
            },
            {
                "start_time": 23.0363636,
                "end_time": 24.8931818,
                "pitch": 85,
                "velocity": 64,
                "duration": 1.8568182,
                "tempo": 120.0
            },
            {
                "start_time": 24.7931818,
                "end_time": 24.8931818,
                "pitch": 85,
                "velocity": 64,
                "duration": 0.1,
                "tempo": 120.0
            },
            {
                "start_time": 23.8590909,
                "end_time": 25.0113636,
                "pitch": 88,
                "velocity": 64,
                "duration": 1.1522727,
                "tempo": 120.0
            },
            {
                "start_time": 24.9113636,
                "end_time": 25.0113636,
                "pitch": 88,
                "velocity": 64,
                "duration": 0.1,
                "tempo": 120.0
            },
            {
                "start_time": 23.1522727,
                "end_time": 25.0318182,
                "pitch": 102,
                "velocity": 64,
                "duration": 1.8795455,
                "tempo": 120.0
            },
            {
                "start_time": 23.2704545,
                "end_time": 25.1272727,
                "pitch": 92,
                "velocity": 64,
                "duration": 1.8568182,
                "tempo": 120.0
            },
            {
                "start_time": 25.0318182,
                "end_time": 25.1272727,
                "pitch": 92,
                "velocity": 64,
                "duration": 0.0954545,
                "tempo": 120.0
            },
            {
                "start_time": 25.1477273,
                "end_time": 25.2431818,
                "pitch": 95,
                "velocity": 64,
                "duration": 0.0954545,
                "tempo": 120.0
            },
            {
                "start_time": 24.7931818,
                "end_time": 25.2636364,
                "pitch": 68,
                "velocity": 64,
                "duration": 0.4704545,
                "tempo": 120.0
            },
            {
                "start_time": 24.9113636,
                "end_time": 25.3590909,
                "pitch": 85,
                "velocity": 64,
                "duration": 0.4477273,
                "tempo": 120.0
            },
            {
                "start_time": 25.2636364,
                "end_time": 25.3590909,
                "pitch": 85,
                "velocity": 64,
                "duration": 0.0954545,
                "tempo": 120.0
            },
            {
                "start_time": 25.3795455,
                "end_time": 25.4772727,
                "pitch": 88,
                "velocity": 64,
                "duration": 0.0977273,
                "tempo": 120.0
            },
            {
                "start_time": 25.4954545,
                "end_time": 25.5931818,
                "pitch": 88,
                "velocity": 64,
                "duration": 0.0977273,
                "tempo": 120.0
            },
            {
                "start_time": 25.0318182,
                "end_time": 25.6113636,
                "pitch": 102,
                "velocity": 64,
                "duration": 0.5795455,
                "tempo": 120.0
            },
            {
                "start_time": 25.6113636,
                "end_time": 25.7090909,
                "pitch": 95,
                "velocity": 64,
                "duration": 0.0977273,
                "tempo": 120.0
            },
            {
                "start_time": 22.4568182,
                "end_time": 25.7295455,
                "pitch": 56,
                "velocity": 64,
                "duration": 3.2727273,
                "tempo": 120.0
            },
            {
                "start_time": 25.7295455,
                "end_time": 25.825,
                "pitch": 72,
                "velocity": 64,
                "duration": 0.0954545,
                "tempo": 120.0
            },
            {
                "start_time": 24.2068182,
                "end_time": 25.9409091,
                "pitch": 74,
                "velocity": 64,
                "duration": 1.7340909,
                "tempo": 120.0
            },
            {
                "start_time": 25.8431818,
                "end_time": 25.9409091,
                "pitch": 74,
                "velocity": 64,
                "duration": 0.0977273,
                "tempo": 120.0
            },
            {
                "start_time": 24.0909091,
                "end_time": 26.0590909,
                "pitch": 77,
                "velocity": 64,
                "duration": 1.9681818,
                "tempo": 120.0
            },
            {
                "start_time": 25.9613636,
                "end_time": 26.0590909,
                "pitch": 77,
                "velocity": 64,
                "duration": 0.0977273,
                "tempo": 120.0
            },
            {
                "start_time": 24.5568182,
                "end_time": 26.0795455,
                "pitch": 90,
                "velocity": 64,
                "duration": 1.5227273,
                "tempo": 120.0
            },
            {
                "start_time": 26.0795455,
                "end_time": 26.1772727,
                "pitch": 81,
                "velocity": 64,
                "duration": 0.0977273,
                "tempo": 120.0
            },
            {
                "start_time": 26.1977273,
                "end_time": 26.2977273,
                "pitch": 81,
                "velocity": 64,
                "duration": 0.1,
                "tempo": 120.0
            },
            {
                "start_time": 24.675,
                "end_time": 26.4159091,
                "pitch": 80,
                "velocity": 64,
                "duration": 1.7409091,
                "tempo": 120.0
            },
            {
                "start_time": 26.3159091,
                "end_time": 26.4159091,
                "pitch": 80,
                "velocity": 64,
                "duration": 0.1,
                "tempo": 120.0
            },
            {
                "start_time": 26.4363636,
                "end_time": 26.5318182,
                "pitch": 77,
                "velocity": 64,
                "duration": 0.0954545,
                "tempo": 120.0
            },
            {
                "start_time": 25.9613636,
                "end_time": 26.6477273,
                "pitch": 74,
                "velocity": 64,
                "duration": 0.6863636,
                "tempo": 120.0
            },
            {
                "start_time": 26.5522727,
                "end_time": 26.6477273,
                "pitch": 74,
                "velocity": 64,
                "duration": 0.0954545,
                "tempo": 120.0
            },
            {
                "start_time": 26.6681818,
                "end_time": 26.7636364,
                "pitch": 95,
                "velocity": 64,
                "duration": 0.0954545,
                "tempo": 120.0
            },
            {
                "start_time": 25.1477273,
                "end_time": 26.8795455,
                "pitch": 92,
                "velocity": 64,
                "duration": 1.7318182,
                "tempo": 120.0
            },
            {
                "start_time": 26.7840909,
                "end_time": 26.8795455,
                "pitch": 92,
                "velocity": 64,
                "duration": 0.0954545,
                "tempo": 120.0
            },
            {
                "start_time": 23.975,
                "end_time": 26.9,
                "pitch": 43,
                "velocity": 64,
                "duration": 2.925,
                "tempo": 120.0
            },
            {
                "start_time": 23.6272727,
                "end_time": 26.9977273,
                "pitch": 89,
                "velocity": 64,
                "duration": 3.3704545,
                "tempo": 120.0
            },
            {
                "start_time": 26.9,
                "end_time": 26.9977273,
                "pitch": 89,
                "velocity": 64,
                "duration": 0.0977273,
                "tempo": 120.0
            },
            {
                "start_time": 23.7431818,
                "end_time": 27.1136364,
                "pitch": 86,
                "velocity": 64,
                "duration": 3.3704545,
                "tempo": 120.0
            },
            {
                "start_time": 27.0159091,
                "end_time": 27.1136364,
                "pitch": 86,
                "velocity": 64,
                "duration": 0.0977273,
                "tempo": 120.0
            },
            {
                "start_time": 27.1340909,
                "end_time": 27.2295455,
                "pitch": 86,
                "velocity": 64,
                "duration": 0.0954545,
                "tempo": 120.0
            },
            {
                "start_time": 25.3795455,
                "end_time": 27.2477273,
                "pitch": 85,
                "velocity": 64,
                "duration": 1.8681818,
                "tempo": 120.0
            },
            {
                "start_time": 27.2477273,
                "end_time": 27.3454545,
                "pitch": 88,
                "velocity": 64,
                "duration": 0.0977273,
                "tempo": 120.0
            },
            {
                "start_time": 25.6113636,
                "end_time": 27.3659091,
                "pitch": 102,
                "velocity": 64,
                "duration": 1.7545455,
                "tempo": 120.0
            },
            {
                "start_time": 27.3659091,
                "end_time": 27.4636364,
                "pitch": 92,
                "velocity": 64,
                "duration": 0.0977273,
                "tempo": 120.0
            },
            {
                "start_time": 26.7840909,
                "end_time": 27.5818182,
                "pitch": 95,
                "velocity": 64,
                "duration": 0.7977273,
                "tempo": 120.0
            },
            {
                "start_time": 27.4840909,
                "end_time": 27.5818182,
                "pitch": 95,
                "velocity": 64,
                "duration": 0.0977273,
                "tempo": 120.0
            },
            {
                "start_time": 25.7295455,
                "end_time": 27.6022727,
                "pitch": 56,
                "velocity": 64,
                "duration": 1.8727273,
                "tempo": 120.0
            },
            {
                "start_time": 24.4386364,
                "end_time": 27.7022727,
                "pitch": 73,
                "velocity": 64,
                "duration": 3.2636364,
                "tempo": 120.0
            },
            {
                "start_time": 27.6022727,
                "end_time": 27.7022727,
                "pitch": 73,
                "velocity": 64,
                "duration": 0.1,
                "tempo": 120.0
            },
            {
                "start_time": 27.7204545,
                "end_time": 27.8204545,
                "pitch": 76,
                "velocity": 64,
                "duration": 0.1,
                "tempo": 120.0
            },
            {
                "start_time": 26.0795455,
                "end_time": 27.8409091,
                "pitch": 90,
                "velocity": 64,
                "duration": 1.7613636,
                "tempo": 120.0
            },
            {
                "start_time": 27.8409091,
                "end_time": 27.9363636,
                "pitch": 80,
                "velocity": 64,
                "duration": 0.0954545,
                "tempo": 120.0
            },
            {
                "start_time": 26.3159091,
                "end_time": 28.0522727,
                "pitch": 83,
                "velocity": 64,
                "duration": 1.7363636,
                "tempo": 120.0
            },
            {
                "start_time": 27.9568182,
                "end_time": 28.0522727,
                "pitch": 83,
                "velocity": 64,
                "duration": 0.0954545,
                "tempo": 120.0
            },
            {
                "start_time": 28.0727273,
                "end_time": 28.1681818,
                "pitch": 83,
                "velocity": 64,
                "duration": 0.0954545,
                "tempo": 120.0
            },
            {
                "start_time": 26.9,
                "end_time": 28.1886364,
                "pitch": 43,
                "velocity": 64,
                "duration": 1.2886364,
                "tempo": 120.0
            },
            {
                "start_time": 26.5522727,
                "end_time": 28.2840909,
                "pitch": 77,
                "velocity": 64,
                "duration": 1.7318182,
                "tempo": 120.0
            },
            {
                "start_time": 28.1886364,
                "end_time": 28.2840909,
                "pitch": 77,
                "velocity": 64,
                "duration": 0.0954545,
                "tempo": 120.0
            },
            {
                "start_time": 28.3045455,
                "end_time": 28.4022727,
                "pitch": 74,
                "velocity": 64,
                "duration": 0.0977273,
                "tempo": 120.0
            },
            {
                "start_time": 25.8431818,
                "end_time": 28.5181818,
                "pitch": 72,
                "velocity": 64,
                "duration": 2.675,
                "tempo": 120.0
            },
            {
                "start_time": 28.4204545,
                "end_time": 28.5181818,
                "pitch": 72,
                "velocity": 64,
                "duration": 0.0977273,
                "tempo": 120.0
            },
            {
                "start_time": 28.5363636,
                "end_time": 28.6340909,
                "pitch": 93,
                "velocity": 64,
                "duration": 0.0977273,
                "tempo": 120.0
            },
            {
                "start_time": 23.5068182,
                "end_time": 28.6522727,
                "pitch": 55,
                "velocity": 64,
                "duration": 5.1454545,
                "tempo": 120.0
            },
            {
                "start_time": 27.0159091,
                "end_time": 28.75,
                "pitch": 89,
                "velocity": 64,
                "duration": 1.7340909,
                "tempo": 120.0
            },
            {
                "start_time": 28.6522727,
                "end_time": 28.75,
                "pitch": 89,
                "velocity": 64,
                "duration": 0.0977273,
                "tempo": 120.0
            },
            {
                "start_time": 28.7681818,
                "end_time": 28.8659091,
                "pitch": 86,
                "velocity": 64,
                "duration": 0.0977273,
                "tempo": 120.0
            },
            {
                "start_time": 28.8863636,
                "end_time": 28.9818182,
                "pitch": 84,
                "velocity": 64,
                "duration": 0.0954545,
                "tempo": 120.0
            },
            {
                "start_time": 29.0022727,
                "end_time": 29.0977273,
                "pitch": 84,
                "velocity": 64,
                "duration": 0.0954545,
                "tempo": 120.0
            },
            {
                "start_time": 29.1181818,
                "end_time": 29.2136364,
                "pitch": 88,
                "velocity": 64,
                "duration": 0.0954545,
                "tempo": 120.0
            },
            {
                "start_time": 27.3659091,
                "end_time": 29.2340909,
                "pitch": 102,
                "velocity": 64,
                "duration": 1.8681818,
                "tempo": 120.0
            },
            {
                "start_time": 27.4840909,
                "end_time": 29.3318182,
                "pitch": 92,
                "velocity": 64,
                "duration": 1.8477273,
                "tempo": 120.0
            },
            {
                "start_time": 29.2340909,
                "end_time": 29.3318182,
                "pitch": 92,
                "velocity": 64,
                "duration": 0.0977273,
                "tempo": 120.0
            },
            {
                "start_time": 29.3522727,
                "end_time": 29.4522727,
                "pitch": 95,
                "velocity": 64,
                "duration": 0.1,
                "tempo": 120.0
            },
            {
                "start_time": 27.6022727,
                "end_time": 29.4704545,
                "pitch": 56,
                "velocity": 64,
                "duration": 1.8681818,
                "tempo": 120.0
            },
            {
                "start_time": 27.7204545,
                "end_time": 29.5704545,
                "pitch": 73,
                "velocity": 64,
                "duration": 1.85,
                "tempo": 120.0
            },
            {
                "start_time": 29.4704545,
                "end_time": 29.5704545,
                "pitch": 73,
                "velocity": 64,
                "duration": 0.1,
                "tempo": 120.0
            },
            {
                "start_time": 29.5909091,
                "end_time": 29.6886364,
                "pitch": 76,
                "velocity": 64,
                "duration": 0.0977273,
                "tempo": 120.0
            },
            {
                "start_time": 27.8409091,
                "end_time": 29.7090909,
                "pitch": 90,
                "velocity": 64,
                "duration": 1.8681818,
                "tempo": 120.0
            },
            {
                "start_time": 27.9568182,
                "end_time": 29.8068182,
                "pitch": 80,
                "velocity": 64,
                "duration": 1.85,
                "tempo": 120.0
            },
            {
                "start_time": 29.7090909,
                "end_time": 29.8068182,
                "pitch": 80,
                "velocity": 64,
                "duration": 0.0977273,
                "tempo": 120.0
            },
            {
                "start_time": 29.825,
                "end_time": 29.9227273,
                "pitch": 83,
                "velocity": 64,
                "duration": 0.0977273,
                "tempo": 120.0
            }
        ]
    }
}