{
    "mood": "angry",
    "instruments": {
        "Electric Guitar (clean)": [
            {
                "start_time": 0.0,
                "end_time": 3.3931818,
                "pitch": 24,
                "velocity": 51,
                "duration": 3.3931818,
                "tempo": 120.0
            },
            {
                "start_time": 3.4272727,
                "end_time": 5.6659091,
                "pitch": 24,
                "velocity": 51,
                "duration": 2.2386364,
                "tempo": 120.0
            },
            {
                "start_time": 5.7,
                "end_time": 6.5659091,
                "pitch": 29,
                "velocity": 51,
                "duration": 0.8659091,
                "tempo": 120.0
            },
            {
                "start_time": 6.5977273,
                "end_time": 6.9977273,
                "pitch": 31,
                "velocity": 51,
                "duration": 0.4,
                "tempo": 120.0
            },
            {
                "start_time": 7.0318182,
                "end_time": 7.5022727,
                "pitch": 36,
                "velocity": 51,
                "duration": 0.4704545,
                "tempo": 120.0
            },
            {
                "start_time": 7.5363636,
                "end_time": 10.1068182,
                "pitch": 24,
                "velocity": 51,
                "duration": 2.5704545,
                "tempo": 120.0
            },
            {
                "start_time": 10.1386364,
                "end_time": 10.6136364,
                "pitch": 24,
                "velocity": 51,
                "duration": 0.475,
                "tempo": 120.0
            },
            {
                "start_time": 10.6477273,
                "end_time": 12.8181818,
                "pitch": 24,
                "velocity": 51,
                "duration": 2.1704545,
                "tempo": 120.0
            },
            {
                "start_time": 12.8545455,
                "end_time": 13.7727273,
                "pitch": 29,
                "velocity": 51,
                "duration": 0.9181818,
                "tempo": 120.0
            },
            {
                "start_time": 13.8090909,
                "end_time": 14.2340909,
                "pitch": 31,
                "velocity": 51,
                "duration": 0.425,
                "tempo": 120.0
            },
            {
                "start_time": 14.2681818,
                "end_time": 14.675,
                "pitch": 36,
                "velocity": 51,
                "duration": 0.4068182,
                "tempo": 120.0
            },
            {
                "start_time": 14.675,
                "end_time": 17.3363636,
                "pitch": 24,
                "velocity": 51,
                "duration": 2.6613636,
                "tempo": 120.0
            },
            {
                "start_time": 17.3363636,
                "end_time": 17.7431818,
                "pitch": 24,
                "velocity": 51,
                "duration": 0.4068182,
                "tempo": 120.0
            },
            {
                "start_time": 17.7431818,
                "end_time": 20.0181818,
                "pitch": 24,
                "velocity": 51,
                "duration": 2.275,
                "tempo": 120.0
            },
            {
                "start_time": 20.0863636,
                "end_time": 20.9522727,
                "pitch": 29,
                "velocity": 51,
                "duration": 0.8659091,
                "tempo": 120.0
            },
            {
                "start_time": 21.0181818,
                "end_time": 21.3522727,
                "pitch": 31,
                "velocity": 51,
                "duration": 0.3340909,
                "tempo": 120.0
            },
            {
                "start_time": 21.4181818,
                "end_time": 21.8590909,
                "pitch": 36,
                "velocity": 51,
                "duration": 0.4409091,
                "tempo": 120.0
            },
            {
                "start_time": 21.8590909,
                "end_time": 24.4681818,
                "pitch": 24,
                "velocity": 51,
                "duration": 2.6090909,
                "tempo": 120.0
            },
            {
                "start_time": 24.5363636,
                "end_time": 24.9681818,
                "pitch": 24,
                "velocity": 51,
                "duration": 0.4318182,
                "tempo": 120.0
            },
            {
                "start_time": 24.9681818,
                "end_time": 25.1363636,
                "pitch": 58,
                "velocity": 101,
                "duration": 0.1681818,
                "tempo": 120.0
            },
            {
                "start_time": 25.2022727,
                "end_time": 25.4045455,
                "pitch": 54,
                "velocity": 101,
                "duration": 0.2022727,
                "tempo": 120.0
            },
            {
                "start_time": 25.4727273,
                "end_time": 25.6431818,
                "pitch": 51,
                "velocity": 101,
                "duration": 0.1704545,
                "tempo": 120.0
            },
            {
                "start_time": 25.6431818,
                "end_time": 25.8113636,
                "pitch": 54,
                "velocity": 101,
                "duration": 0.1681818,
                "tempo": 120.0
            },
            {
                "start_time": 25.8795455,
                "end_time": 26.0477273,
                "pitch": 51,
                "velocity": 101,
                "duration": 0.1681818,
                "tempo": 120.0
            },
            {
                "start_time": 26.15,
                "end_time": 26.3181818,
                "pitch": 48,
                "velocity": 101,
                "duration": 0.1681818,
                "tempo": 120.0
            },
            {
                "start_time": 26.3181818,
                "end_time": 26.725,
                "pitch": 60,
                "velocity": 101,
                "duration": 0.4068182,
                "tempo": 120.0
            },
            {
                "start_time": 26.725,
                "end_time": 27.1704545,
                "pitch": 62,
                "velocity": 101,
                "duration": 0.4454545,
                "tempo": 120.0
            },
            {
                "start_time": 27.2386364,
                "end_time": 27.6931818,
                "pitch": 63,
                "velocity": 101,
                "duration": 0.4545455,
                "tempo": 120.0
            },
            {
                "start_time": 27.6931818,
                "end_time": 28.1090909,
                "pitch": 67,
                "velocity": 101,
                "duration": 0.4159091,
                "tempo": 120.0
            },
            {
                "start_time": 28.1090909,
                "end_time": 28.5636364,
                "pitch": 69,
                "velocity": 101,
                "duration": 0.4545455,
                "tempo": 120.0
            }
        ],
        "Acoustic Bass": [
            {
                "start_time": 29.3136364,
                "end_time": 29.9227273,
                "pitch": 51,
                "velocity": 51,
                "duration": 0.6090909,
                "tempo": 120.0
            },
            {
                "start_time": 29.9909091,
                "end_time": 30.3272727,
                "pitch": 55,
                "velocity": 51,
                "duration": 0.3363636,
                "tempo": 120.0
            },
            {
                "start_time": 30.3954545,
                "end_time": 31.0113636,
                "pitch": 62,
                "velocity": 51,
                "duration": 0.6159091,
                "tempo": 120.0
            },
            {
                "start_time": 31.0795455,
                "end_time": 31.6977273,
                "pitch": 55,
                "velocity": 51,
                "duration": 0.6181818,
                "tempo": 120.0
            },
            {
                "start_time": 31.7659091,
                "end_time": 32.2113636,
                "pitch": 51,
                "velocity": 51,
                "duration": 0.4454545,
                "tempo": 120.0
            },
            {
                "start_time": 32.2113636,
                "end_time": 32.7886364,
                "pitch": 43,
                "velocity": 51,
                "duration": 0.5772727,
                "tempo": 120.0
            },
            {
                "start_time": 32.8909091,
                "end_time": 33.4659091,
                "pitch": 46,
                "velocity": 51,
                "duration": 0.575,
                "tempo": 120.0
            },
            {
                "start_time": 33.5318182,
                "end_time": 33.9727273,
                "pitch": 50,
                "velocity": 51,
                "duration": 0.4409091,
                "tempo": 120.0
            },
            {
                "start_time": 33.9727273,
                "end_time": 34.6409091,
                "pitch": 53,
                "velocity": 51,
                "duration": 0.6681818,
                "tempo": 120.0
            },
            {
                "start_time": 34.6409091,
                "end_time": 35.3068182,
                "pitch": 50,
                "velocity": 51,
                "duration": 0.6659091,
                "tempo": 120.0
            },
            {
                "start_time": 35.3068182,
                "end_time": 35.7068182,
                "pitch": 46,
                "velocity": 51,
                "duration": 0.4,
                "tempo": 120.0
            },
            {
                "start_time": 35.7068182,
                "end_time": 36.3977273,
                "pitch": 48,
                "velocity": 51,
                "duration": 0.6909091,
                "tempo": 120.0
            },
            {
                "start_time": 36.3977273,
                "end_time": 37.1068182,
                "pitch": 51,
                "velocity": 51,
                "duration": 0.7090909,
                "tempo": 120.0
            },
            {
                "start_time": 37.1068182,
                "end_time": 37.5659091,
                "pitch": 55,
                "velocity": 51,
                "duration": 0.4590909,
                "tempo": 120.0
            },
            {
                "start_time": 37.6363636,
                "end_time": 38.2545455,
                "pitch": 58,
                "velocity": 51,
                "duration": 0.6181818,
                "tempo": 120.0
            },
            {
                "start_time": 38.3204545,
                "end_time": 38.9295455,
                "pitch": 55,
                "velocity": 51,
                "duration": 0.6090909,
                "tempo": 120.0
            },
            {
                "start_time": 38.9977273,
                "end_time": 39.3363636,
                "pitch": 51,
                "velocity": 51,
                "duration": 0.3386364,
                "tempo": 120.0
            },
            {
                "start_time": 39.4022727,
                "end_time": 40.0113636,
                "pitch": 43,
                "velocity": 51,
                "duration": 0.6090909,
                "tempo": 120.0
            },
            {
                "start_time": 40.0795455,
                "end_time": 40.6886364,
                "pitch": 46,
                "velocity": 51,
                "duration": 0.6090909,
                "tempo": 120.0
            },
            {
                "start_time": 40.7545455,
                "end_time": 41.1954545,
                "pitch": 50,
                "velocity": 51,
                "duration": 0.4409091,
                "tempo": 120.0
            },
            {
                "start_time": 41.1954545,
                "end_time": 41.7704545,
                "pitch": 53,
                "velocity": 51,
                "duration": 0.575,
                "tempo": 120.0
            },
            {
                "start_time": 41.8704545,
                "end_time": 42.4454545,
                "pitch": 50,
                "velocity": 51,
                "duration": 0.575,
                "tempo": 120.0
            },
            {
                "start_time": 42.5136364,
                "end_time": 42.9522727,
                "pitch": 46,
                "velocity": 51,
                "duration": 0.4386364,
                "tempo": 120.0
            },
            {
                "start_time": 42.9522727,
                "end_time": 43.6295455,
                "pitch": 48,
                "velocity": 51,
                "duration": 0.6772727,
                "tempo": 120.0
            },
            {
                "start_time": 43.6295455,
                "end_time": 44.3068182,
                "pitch": 51,
                "velocity": 51,
                "duration": 0.6772727,
                "tempo": 120.0
            },
            {
                "start_time": 44.3068182,
                "end_time": 44.7113636,
                "pitch": 55,
                "velocity": 51,
                "duration": 0.4045455,
                "tempo": 120.0
            },
            {
                "start_time": 44.7113636,
                "end_time": 45.4068182,
                "pitch": 62,
                "velocity": 51,
                "duration": 0.6954545,
                "tempo": 120.0
            },
            {
                "start_time": 45.4068182,
                "end_time": 46.1136364,
                "pitch": 55,
                "velocity": 51,
                "duration": 0.7068182,
                "tempo": 120.0
            },
            {
                "start_time": 46.1136364,
                "end_time": 46.575,
                "pitch": 51,
                "velocity": 51,
                "duration": 0.4613636,
                "tempo": 120.0
            },
            {
                "start_time": 46.6454545,
                "end_time": 47.2613636,
                "pitch": 43,
                "velocity": 51,
                "duration": 0.6159091,
                "tempo": 120.0
            },
            {
                "start_time": 47.3295455,
                "end_time": 47.9386364,
                "pitch": 46,
                "velocity": 51,
                "duration": 0.6090909,
                "tempo": 120.0
            },
            {
                "start_time": 48.0045455,
                "end_time": 48.3431818,
                "pitch": 50,
                "velocity": 51,
                "duration": 0.3386364,
                "tempo": 120.0
            },
            {
                "start_time": 48.4113636,
                "end_time": 49.0204545,
                "pitch": 53,
                "velocity": 51,
                "duration": 0.6090909,
                "tempo": 120.0
            },
            {
                "start_time": 49.0863636,
                "end_time": 49.6954545,
                "pitch": 50,
                "velocity": 51,
                "duration": 0.6090909,
                "tempo": 120.0
            },
            {
                "start_time": 49.7636364,
                "end_time": 50.2022727,
                "pitch": 46,
                "velocity": 51,
                "duration": 0.4386364,
                "tempo": 120.0
            },
            {
                "start_time": 50.2022727,
                "end_time": 50.7772727,
                "pitch": 48,
                "velocity": 51,
                "duration": 0.575,
                "tempo": 120.0
            },
            {
                "start_time": 50.8795455,
                "end_time": 51.4545455,
                "pitch": 51,
                "velocity": 51,
                "duration": 0.575,
                "tempo": 120.0
            },
            {
                "start_time": 51.5227273,
                "end_time": 51.9613636,
                "pitch": 55,
                "velocity": 51,
                "duration": 0.4386364,
                "tempo": 120.0
            },
            {
                "start_time": 51.9613636,
                "end_time": 52.6386364,
                "pitch": 58,
                "velocity": 51,
                "duration": 0.6772727,
                "tempo": 120.0
            },
            {
                "start_time": 52.6386364,
                "end_time": 53.3136364,
                "pitch": 55,
                "velocity": 51,
                "duration": 0.675,
                "tempo": 120.0
            },
            {
                "start_time": 53.3136364,
                "end_time": 53.7204545,
                "pitch": 51,
                "velocity": 51,
                "duration": 0.4068182,
                "tempo": 120.0
            },
            {
                "start_time": 53.7204545,
                "end_time": 54.4136364,
                "pitch": 43,
                "velocity": 51,
                "duration": 0.6931818,
                "tempo": 120.0
            },
            {
                "start_time": 54.4136364,
                "end_time": 55.1227273,
                "pitch": 46,
                "velocity": 51,
                "duration": 0.7090909,
                "tempo": 120.0
            },
            {
                "start_time": 55.1227273,
                "end_time": 55.5818182,
                "pitch": 50,
                "velocity": 51,
                "duration": 0.4590909,
                "tempo": 120.0
            },
            {
                "start_time": 55.6522727,
                "end_time": 56.2704545,
                "pitch": 53,
                "velocity": 51,
                "duration": 0.6181818,
                "tempo": 120.0
            },
            {
                "start_time": 56.3363636,
                "end_time": 56.9454545,
                "pitch": 50,
                "velocity": 51,
                "duration": 0.6090909,
                "tempo": 120.0
            },
            {
                "start_time": 57.0136364,
                "end_time": 57.3522727,
                "pitch": 46,
                "velocity": 51,
                "duration": 0.3386364,
                "tempo": 120.0
            },
            {
                "start_time": 57.4181818,
                "end_time": 57.8590909,
                "pitch": 46,
                "velocity": 51,
                "duration": 0.4409091,
                "tempo": 120.0
            },
            {
                "start_time": 57.8590909,
                "end_time": 58.2636364,
                "pitch": 48,
                "velocity": 51,
                "duration": 0.4045455,
                "tempo": 120.0
            },
            {
                "start_time": 58.2636364,
                "end_time": 58.5340909,
                "pitch": 48,
                "velocity": 51,
                "duration": 0.2704545,
                "tempo": 120.0
            },
            {
                "start_time": 58.5340909,
                "end_time": 58.9409091,
                "pitch": 55,
                "velocity": 51,
                "duration": 0.4068182,
                "tempo": 120.0
            },
            {
                "start_time": 58.9409091,
                "end_time": 59.2113636,
                "pitch": 48,
                "velocity": 51,
                "duration": 0.2704545,
                "tempo": 120.0
            },
            {
                "start_time": 59.2113636,
                "end_time": 59.3795455,
                "pitch": 48,
                "velocity": 51,
                "duration": 0.1681818,
                "tempo": 120.0
            },
            {
                "start_time": 59.4477273,
                "end_time": 59.6159091,
                "pitch": 55,
                "velocity": 51,
                "duration": 0.1681818,
                "tempo": 120.0
            },
            {
                "start_time": 59.6159091,
                "end_time": 59.7863636,
                "pitch": 48,
                "velocity": 51,
                "duration": 0.1704545,
                "tempo": 120.0
            },
            {
                "start_time": 59.8863636,
                "end_time": 60.0568182,
                "pitch": 48,
                "velocity": 51,
                "duration": 0.1704545,
                "tempo": 120.0
            },
            {
                "start_time": 60.125,
                "end_time": 60.4613636,
                "pitch": 57,
                "velocity": 51,
                "duration": 0.3363636,
                "tempo": 120.0
            },
            {
                "start_time": 60.5295455,
                "end_time": 61.4090909,
                "pitch": 57,
                "velocity": 51,
                "duration": 0.8795455,
                "tempo": 120.0
            },
            {
                "start_time": 61.4772727,
                "end_time": 61.5113636,
                "pitch": 50,
                "velocity": 51,
                "duration": 0.0340909,
                "tempo": 120.0
            },
            {
                "start_time": 61.5113636,
                "end_time": 61.8159091,
                "pitch": 48,
                "velocity": 51,
                "duration": 0.3045455,
                "tempo": 120.0
            },
            {
                "start_time": 61.8818182,
                "end_time": 62.0522727,
                "pitch": 50,
                "velocity": 51,
                "duration": 0.1704545,
                "tempo": 120.0
            },
            {
                "start_time": 62.1522727,
                "end_time": 62.4909091,
                "pitch": 57,
                "velocity": 51,
                "duration": 0.3386364,
                "tempo": 120.0
            },
            {
                "start_time": 62.5590909,
                "end_time": 62.7272727,
                "pitch": 50,
                "velocity": 51,
                "duration": 0.1681818,
                "tempo": 120.0
            },
            {
                "start_time": 62.7272727,
                "end_time": 62.9977273,
                "pitch": 50,
                "velocity": 51,
                "duration": 0.2704545,
                "tempo": 120.0
            },
            {
                "start_time": 62.9977273,
                "end_time": 63.4159091,
                "pitch": 57,
                "velocity": 51,
                "duration": 0.4181818,
                "tempo": 120.0
            },
            {
                "start_time": 63.4159091,
                "end_time": 63.6954545,
                "pitch": 50,
                "velocity": 51,
                "duration": 0.2795455,
                "tempo": 120.0
            },
            {
                "start_time": 63.6954545,
                "end_time": 64.1136364,
                "pitch": 58,
                "velocity": 51,
                "duration": 0.4181818,
                "tempo": 120.0
            },
            {
                "start_time": 64.1136364,
                "end_time": 64.9795455,
                "pitch": 57,
                "velocity": 51,
                "duration": 0.8659091,
                "tempo": 120.0
            },
            {
                "start_time": 65.0477273,
                "end_time": 65.4863636,
                "pitch": 51,
                "velocity": 51,
                "duration": 0.4386364,
                "tempo": 120.0
            },
            {
                "start_time": 65.4863636,
                "end_time": 65.6568182,
                "pitch": 51,
                "velocity": 51,
                "duration": 0.1704545,
                "tempo": 120.0
            },
            {
                "start_time": 65.7227273,
                "end_time": 66.1636364,
                "pitch": 58,
                "velocity": 51,
                "duration": 0.4409091,
                "tempo": 120.0
            },
            {
                "start_time": 66.1636364,
                "end_time": 66.3318182,
                "pitch": 51,
                "velocity": 51,
                "duration": 0.1681818,
                "tempo": 120.0
            },
            {
                "start_time": 66.4,
                "end_time": 66.5681818,
                "pitch": 51,
                "velocity": 51,
                "duration": 0.1681818,
                "tempo": 120.0
            },
            {
                "start_time": 66.6704545,
                "end_time": 67.0090909,
                "pitch": 58,
                "velocity": 51,
                "duration": 0.3386364,
                "tempo": 120.0
            },
            {
                "start_time": 67.075,
                "end_time": 67.2454545,
                "pitch": 51,
                "velocity": 51,
                "duration": 0.1704545,
                "tempo": 120.0
            },
            {
                "start_time": 67.2454545,
                "end_time": 67.6840909,
                "pitch": 60,
                "velocity": 51,
                "duration": 0.4386364,
                "tempo": 120.0
            },
            {
                "start_time": 67.7522727,
                "end_time": 68.5977273,
                "pitch": 58,
                "velocity": 51,
                "duration": 0.8454545,
                "tempo": 120.0
            },
            {
                "start_time": 68.5977273,
                "end_time": 69.0363636,
                "pitch": 50,
                "velocity": 51,
                "duration": 0.4386364,
                "tempo": 120.0
            },
            {
                "start_time": 69.1045455,
                "end_time": 69.275,
                "pitch": 50,
                "velocity": 51,
                "duration": 0.1704545,
                "tempo": 120.0
            },
            {
                "start_time": 69.275,
                "end_time": 69.7136364,
                "pitch": 57,
                "velocity": 51,
                "duration": 0.4386364,
                "tempo": 120.0
            },
            {
                "start_time": 69.7818182,
                "end_time": 69.95,
                "pitch": 50,
                "velocity": 51,
                "duration": 0.1681818,
                "tempo": 120.0
            },
            {
                "start_time": 69.95,
                "end_time": 70.1181818,
                "pitch": 50,
                "velocity": 51,
                "duration": 0.1681818,
                "tempo": 120.0
            },
            {
                "start_time": 70.1863636,
                "end_time": 70.6272727,
                "pitch": 57,
                "velocity": 51,
                "duration": 0.4409091,
                "tempo": 120.0
            },
            {
                "start_time": 70.6272727,
                "end_time": 70.7954545,
                "pitch": 50,
                "velocity": 51,
                "duration": 0.1681818,
                "tempo": 120.0
            },
            {
                "start_time": 70.8636364,
                "end_time": 71.3022727,
                "pitch": 58,
                "velocity": 51,
                "duration": 0.4386364,
                "tempo": 120.0
            },
            {
                "start_time": 71.3022727,
                "end_time": 72.1545455,
                "pitch": 57,
                "velocity": 51,
                "duration": 0.8522727,
                "tempo": 120.0
            },
            {
                "start_time": 72.2227273,
                "end_time": 72.6772727,
                "pitch": 48,
                "velocity": 51,
                "duration": 0.4545455,
                "tempo": 120.0
            },
            {
                "start_time": 72.6772727,
                "end_time": 72.85,
                "pitch": 48,
                "velocity": 51,
                "duration": 0.1727273,
                "tempo": 120.0
            },
            {
                "start_time": 72.9204545,
                "end_time": 73.2681818,
                "pitch": 55,
                "velocity": 51,
                "duration": 0.3477273,
                "tempo": 120.0
            },
            {
                "start_time": 73.3727273,
                "end_time": 73.5477273,
                "pitch": 48,
                "velocity": 51,
                "duration": 0.175,
                "tempo": 120.0
            },
            {
                "start_time": 73.6159091,
                "end_time": 73.7909091,
                "pitch": 48,
                "velocity": 51,
                "duration": 0.175,
                "tempo": 120.0
            },
            {
                "start_time": 73.7909091,
                "end_time": 74.2318182,
                "pitch": 55,
                "velocity": 51,
                "duration": 0.4409091,
                "tempo": 120.0
            },
            {
                "start_time": 74.2977273,
                "end_time": 74.4681818,
                "pitch": 48,
                "velocity": 51,
                "duration": 0.1704545,
                "tempo": 120.0
            },
            {
                "start_time": 74.4681818,
                "end_time": 74.9068182,
                "pitch": 57,
                "velocity": 51,
                "duration": 0.4386364,
                "tempo": 120.0
            },
            {
                "start_time": 74.975,
                "end_time": 75.8204545,
                "pitch": 55,
                "velocity": 51,
                "duration": 0.8454545,
                "tempo": 120.0
            },
            {
                "start_time": 75.8204545,
                "end_time": 76.225,
                "pitch": 50,
                "velocity": 51,
                "duration": 0.4045455,
                "tempo": 120.0
            },
            {
                "start_time": 76.225,
                "end_time": 76.4954545,
                "pitch": 50,
                "velocity": 51,
                "duration": 0.2704545,
                "tempo": 120.0
            },
            {
                "start_time": 76.4954545,
                "end_time": 76.9022727,
                "pitch": 57,
                "velocity": 51,
                "duration": 0.4068182,
                "tempo": 120.0
            },
            {
                "start_time": 76.9022727,
                "end_time": 77.1727273,
                "pitch": 50,
                "velocity": 51,
                "duration": 0.2704545,
                "tempo": 120.0
            },
            {
                "start_time": 77.1727273,
                "end_time": 77.3409091,
                "pitch": 50,
                "velocity": 51,
                "duration": 0.1681818,
                "tempo": 120.0
            },
            {
                "start_time": 77.4090909,
                "end_time": 77.7477273,
                "pitch": 57,
                "velocity": 51,
                "duration": 0.3386364,
                "tempo": 120.0
            },
            {
                "start_time": 77.8477273,
                "end_time": 78.0181818,
                "pitch": 50,
                "velocity": 51,
                "duration": 0.1704545,
                "tempo": 120.0
            },
            {
                "start_time": 78.0863636,
                "end_time": 78.4227273,
                "pitch": 58,
                "velocity": 51,
                "duration": 0.3363636,
                "tempo": 120.0
            },
            {
                "start_time": 78.4909091,
                "end_time": 79.3659091,
                "pitch": 57,
                "velocity": 51,
                "duration": 0.875,
                "tempo": 120.0
            },
            {
                "start_time": 79.4340909,
                "end_time": 79.7659091,
                "pitch": 51,
                "velocity": 51,
                "duration": 0.3318182,
                "tempo": 120.0
            },
            {
                "start_time": 79.8318182,
                "end_time": 80.0,
                "pitch": 51,
                "velocity": 51,
                "duration": 0.1681818,
                "tempo": 120.0
            },
            {
                "start_time": 80.1,
                "end_time": 80.4318182,
                "pitch": 58,
                "velocity": 51,
                "duration": 0.3318182,
                "tempo": 120.0
            },
            {
                "start_time": 80.5,
                "end_time": 80.6659091,
                "pitch": 51,
                "velocity": 51,
                "duration": 0.1659091,
                "tempo": 120.0
            },
            {
                "start_time": 80.6659091,
                "end_time": 80.9340909,
                "pitch": 51,
                "velocity": 51,
                "duration": 0.2681818,
                "tempo": 120.0
            },
            {
                "start_time": 80.9340909,
                "end_time": 81.3590909,
                "pitch": 58,
                "velocity": 51,
                "duration": 0.425,
                "tempo": 120.0
            },
            {
                "start_time": 81.3590909,
                "end_time": 81.6409091,
                "pitch": 51,
                "velocity": 51,
                "duration": 0.2818182,
                "tempo": 120.0
            },
            {
                "start_time": 81.6409091,
                "end_time": 82.0659091,
                "pitch": 60,
                "velocity": 51,
                "duration": 0.425,
                "tempo": 120.0
            },
            {
                "start_time": 82.0659091,
                "end_time": 82.9431818,
                "pitch": 58,
                "velocity": 51,
                "duration": 0.8772727,
                "tempo": 120.0
            },
            {
                "start_time": 83.0090909,
                "end_time": 83.45,
                "pitch": 50,
                "velocity": 51,
                "duration": 0.4409091,
                "tempo": 120.0
            },
            {
                "start_time": 83.45,
                "end_time": 83.6181818,
                "pitch": 50,
                "velocity": 51,
                "duration": 0.1681818,
                "tempo": 120.0
            },
            {
                "start_time": 83.6863636,
                "end_time": 84.125,
                "pitch": 57,
                "velocity": 51,
                "duration": 0.4386364,
                "tempo": 120.0
            },
            {
                "start_time": 84.125,
                "end_time": 84.2954545,
                "pitch": 50,
                "velocity": 51,
                "duration": 0.1704545,
                "tempo": 120.0
            },
            {
                "start_time": 84.3636364,
                "end_time": 84.5318182,
                "pitch": 50,
                "velocity": 51,
                "duration": 0.1681818,
                "tempo": 120.0
            },
            {
                "start_time": 84.6340909,
                "end_time": 84.9704545,
                "pitch": 57,
                "velocity": 51,
                "duration": 0.3363636,
                "tempo": 120.0
            },
            {
                "start_time": 85.0386364,
                "end_time": 85.2090909,
                "pitch": 50,
                "velocity": 51,
                "duration": 0.1704545,
                "tempo": 120.0
            },
            {
                "start_time": 85.2090909,
                "end_time": 85.6477273,
                "pitch": 58,
                "velocity": 51,
                "duration": 0.4386364,
                "tempo": 120.0
            },
            {
                "start_time": 85.7159091,
                "end_time": 86.1545455,
                "pitch": 57,
                "velocity": 51,
                "duration": 0.4386364,
                "tempo": 120.0
            }
        ],
        "Trumpet": [
            {
                "start_time": 0.0,
                "end_time": 0.0613636,
                "pitch": 76,
                "velocity": 32,
                "duration": 0.0613636,
                "tempo": 120.0
            },
            {
                "start_time": 0.0772727,
                "end_time": 0.2045455,
                "pitch": 60,
                "velocity": 32,
                "duration": 0.1272727,
                "tempo": 120.0
            },
            {
                "start_time": 0.2386364,
                "end_time": 0.4409091,
                "pitch": 67,
                "velocity": 80,
                "duration": 0.2022727,
                "tempo": 120.0
            },
            {
                "start_time": 0.475,
                "end_time": 0.6113636,
                "pitch": 70,
                "velocity": 80,
                "duration": 0.1363636,
                "tempo": 120.0
            },
            {
                "start_time": 0.7454545,
                "end_time": 0.8818182,
                "pitch": 74,
                "velocity": 80,
                "duration": 0.1363636,
                "tempo": 120.0
            },
            {
                "start_time": 0.9136364,
                "end_time": 1.1181818,
                "pitch": 60,
                "velocity": 80,
                "duration": 0.2045455,
                "tempo": 120.0
            },
            {
                "start_time": 1.1522727,
                "end_time": 1.2863636,
                "pitch": 67,
                "velocity": 80,
                "duration": 0.1340909,
                "tempo": 120.0
            },
            {
                "start_time": 1.3204545,
                "end_time": 1.5568182,
                "pitch": 70,
                "velocity": 80,
                "duration": 0.2363636,
                "tempo": 120.0
            },
            {
                "start_time": 1.5909091,
                "end_time": 1.7931818,
                "pitch": 74,
                "velocity": 80,
                "duration": 0.2022727,
                "tempo": 120.0
            },
            {
                "start_time": 1.8272727,
                "end_time": 1.9613636,
                "pitch": 60,
                "velocity": 80,
                "duration": 0.1340909,
                "tempo": 120.0
            },
            {
                "start_time": 1.9931818,
                "end_time": 2.2272727,
                "pitch": 67,
                "velocity": 80,
                "duration": 0.2340909,
                "tempo": 120.0
            },
            {
                "start_time": 2.2613636,
                "end_time": 2.4613636,
                "pitch": 65,
                "velocity": 80,
                "duration": 0.2,
                "tempo": 120.0
            },
            {
                "start_time": 2.4931818,
                "end_time": 2.6272727,
                "pitch": 70,
                "velocity": 80,
                "duration": 0.1340909,
                "tempo": 120.0
            },
            {
                "start_time": 2.6613636,
                "end_time": 2.8613636,
                "pitch": 74,
                "velocity": 80,
                "duration": 0.2,
                "tempo": 120.0
            },
            {
                "start_time": 2.9272727,
                "end_time": 3.1272727,
                "pitch": 60,
                "velocity": 80,
                "duration": 0.2,
                "tempo": 120.0
            },
            {
                "start_time": 3.1613636,
                "end_time": 3.2931818,
                "pitch": 67,
                "velocity": 80,
                "duration": 0.1318182,
                "tempo": 120.0
            },
            {
                "start_time": 3.3272727,
                "end_time": 3.5272727,
                "pitch": 70,
                "velocity": 80,
                "duration": 0.2,
                "tempo": 120.0
            },
            {
                "start_time": 3.5613636,
                "end_time": 3.8022727,
                "pitch": 74,
                "velocity": 80,
                "duration": 0.2409091,
                "tempo": 120.0
            },
            {
                "start_time": 3.8363636,
                "end_time": 3.9772727,
                "pitch": 70,
                "velocity": 80,
                "duration": 0.1409091,
                "tempo": 120.0
            },
            {
                "start_time": 4.0136364,
                "end_time": 4.225,
                "pitch": 65,
                "velocity": 80,
                "duration": 0.2113636,
                "tempo": 120.0
            },
            {
                "start_time": 4.2613636,
                "end_time": 4.5090909,
                "pitch": 69,
                "velocity": 80,
                "duration": 0.2477273,
                "tempo": 120.0
            },
            {
                "start_time": 4.5431818,
                "end_time": 4.6863636,
                "pitch": 72,
                "velocity": 80,
                "duration": 0.1431818,
                "tempo": 120.0
            },
            {
                "start_time": 4.7204545,
                "end_time": 4.9340909,
                "pitch": 70,
                "velocity": 80,
                "duration": 0.2136364,
                "tempo": 120.0
            },
            {
                "start_time": 4.9681818,
                "end_time": 5.1113636,
                "pitch": 65,
                "velocity": 80,
                "duration": 0.1431818,
                "tempo": 120.0
            },
            {
                "start_time": 5.2522727,
                "end_time": 5.3931818,
                "pitch": 69,
                "velocity": 80,
                "duration": 0.1409091,
                "tempo": 120.0
            },
            {
                "start_time": 5.4295455,
                "end_time": 5.6318182,
                "pitch": 72,
                "velocity": 80,
                "duration": 0.2022727,
                "tempo": 120.0
            },
            {
                "start_time": 5.6659091,
                "end_time": 5.7977273,
                "pitch": 57,
                "velocity": 80,
                "duration": 0.1318182,
                "tempo": 120.0
            },
            {
                "start_time": 5.8318182,
                "end_time": 6.0659091,
                "pitch": 65,
                "velocity": 80,
                "duration": 0.2340909,
                "tempo": 120.0
            },
            {
                "start_time": 6.0977273,
                "end_time": 6.2977273,
                "pitch": 69,
                "velocity": 80,
                "duration": 0.2,
                "tempo": 120.0
            },
            {
                "start_time": 6.3318182,
                "end_time": 6.4659091,
                "pitch": 72,
                "velocity": 80,
                "duration": 0.1340909,
                "tempo": 120.0
            },
            {
                "start_time": 6.4977273,
                "end_time": 6.7318182,
                "pitch": 70,
                "velocity": 80,
                "duration": 0.2340909,
                "tempo": 120.0
            },
            {
                "start_time": 6.7659091,
                "end_time": 6.9659091,
                "pitch": 65,
                "velocity": 80,
                "duration": 0.2,
                "tempo": 120.0
            },
            {
                "start_time": 6.9977273,
                "end_time": 7.1318182,
                "pitch": 69,
                "velocity": 80,
                "duration": 0.1340909,
                "tempo": 120.0
            },
            {
                "start_time": 7.1659091,
                "end_time": 7.3659091,
                "pitch": 60,
                "velocity": 80,
                "duration": 0.2,
                "tempo": 120.0
            },
            {
                "start_time": 7.4340909,
                "end_time": 7.6363636,
                "pitch": 67,
                "velocity": 80,
                "duration": 0.2022727,
                "tempo": 120.0
            },
            {
                "start_time": 7.6704545,
                "end_time": 7.8068182,
                "pitch": 70,
                "velocity": 80,
                "duration": 0.1363636,
                "tempo": 120.0
            },
            {
                "start_time": 7.8409091,
                "end_time": 8.0431818,
                "pitch": 74,
                "velocity": 80,
                "duration": 0.2022727,
                "tempo": 120.0
            },
            {
                "start_time": 8.0772727,
                "end_time": 8.3136364,
                "pitch": 60,
                "velocity": 80,
                "duration": 0.2363636,
                "tempo": 120.0
            },
            {
                "start_time": 8.3477273,
                "end_time": 8.4818182,
                "pitch": 67,
                "velocity": 80,
                "duration": 0.1340909,
                "tempo": 120.0
            },
            {
                "start_time": 8.5159091,
                "end_time": 8.7204545,
                "pitch": 70,
                "velocity": 80,
                "duration": 0.2045455,
                "tempo": 120.0
            },
            {
                "start_time": 8.7522727,
                "end_time": 8.9909091,
                "pitch": 74,
                "velocity": 80,
                "duration": 0.2386364,
                "tempo": 120.0
            },
            {
                "start_time": 9.0227273,
                "end_time": 9.1590909,
                "pitch": 60,
                "velocity": 80,
                "duration": 0.1363636,
                "tempo": 120.0
            },
            {
                "start_time": 9.1931818,
                "end_time": 9.3954545,
                "pitch": 67,
                "velocity": 80,
                "duration": 0.2022727,
                "tempo": 120.0
            },
            {
                "start_time": 9.4295455,
                "end_time": 9.5659091,
                "pitch": 65,
                "velocity": 80,
                "duration": 0.1363636,
                "tempo": 120.0
            },
            {
                "start_time": 9.7,
                "end_time": 9.8363636,
                "pitch": 70,
                "velocity": 80,
                "duration": 0.1363636,
                "tempo": 120.0
            },
            {
                "start_time": 9.8681818,
                "end_time": 10.0727273,
                "pitch": 74,
                "velocity": 80,
                "duration": 0.2045455,
                "tempo": 120.0
            },
            {
                "start_time": 10.1068182,
                "end_time": 10.2409091,
                "pitch": 60,
                "velocity": 80,
                "duration": 0.1340909,
                "tempo": 120.0
            },
            {
                "start_time": 10.275,
                "end_time": 10.5113636,
                "pitch": 67,
                "velocity": 80,
                "duration": 0.2363636,
                "tempo": 120.0
            },
            {
                "start_time": 10.5454545,
                "end_time": 10.7477273,
                "pitch": 70,
                "velocity": 80,
                "duration": 0.2022727,
                "tempo": 120.0
            },
            {
                "start_time": 10.7818182,
                "end_time": 10.9181818,
                "pitch": 74,
                "velocity": 80,
                "duration": 0.1363636,
                "tempo": 120.0
            },
            {
                "start_time": 10.9522727,
                "end_time": 11.1886364,
                "pitch": 70,
                "velocity": 80,
                "duration": 0.2363636,
                "tempo": 120.0
            },
            {
                "start_time": 11.2227273,
                "end_time": 11.425,
                "pitch": 65,
                "velocity": 80,
                "duration": 0.2022727,
                "tempo": 120.0
            },
            {
                "start_time": 11.4590909,
                "end_time": 11.5931818,
                "pitch": 69,
                "velocity": 80,
                "duration": 0.1340909,
                "tempo": 120.0
            },
            {
                "start_time": 11.6272727,
                "end_time": 11.8295455,
                "pitch": 72,
                "velocity": 80,
                "duration": 0.2022727,
                "tempo": 120.0
            },
            {
                "start_time": 11.8977273,
                "end_time": 12.1,
                "pitch": 70,
                "velocity": 80,
                "duration": 0.2022727,
                "tempo": 120.0
            },
            {
                "start_time": 12.1340909,
                "end_time": 12.2704545,
                "pitch": 65,
                "velocity": 80,
                "duration": 0.1363636,
                "tempo": 120.0
            },
            {
                "start_time": 12.3045455,
                "end_time": 12.5068182,
                "pitch": 69,
                "velocity": 80,
                "duration": 0.2022727,
                "tempo": 120.0
            },
            {
                "start_time": 12.5409091,
                "end_time": 12.7840909,
                "pitch": 72,
                "velocity": 80,
                "duration": 0.2431818,
                "tempo": 120.0
            },
            {
                "start_time": 12.8181818,
                "end_time": 12.9590909,
                "pitch": 57,
                "velocity": 80,
                "duration": 0.1409091,
                "tempo": 120.0
            },
            {
                "start_time": 12.9954545,
                "end_time": 13.2068182,
                "pitch": 65,
                "velocity": 80,
                "duration": 0.2113636,
                "tempo": 120.0
            },
            {
                "start_time": 13.2431818,
                "end_time": 13.4909091,
                "pitch": 69,
                "velocity": 80,
                "duration": 0.2477273,
                "tempo": 120.0
            },
            {
                "start_time": 13.525,
                "end_time": 13.6681818,
                "pitch": 72,
                "velocity": 80,
                "duration": 0.1431818,
                "tempo": 120.0
            },
            {
                "start_time": 13.7022727,
                "end_time": 13.9159091,
                "pitch": 70,
                "velocity": 80,
                "duration": 0.2136364,
                "tempo": 120.0
            },
            {
                "start_time": 13.95,
                "end_time": 14.0909091,
                "pitch": 65,
                "velocity": 80,
                "duration": 0.1409091,
                "tempo": 120.0
            },
            {
                "start_time": 14.2340909,
                "end_time": 14.4090909,
                "pitch": 69,
                "velocity": 80,
                "duration": 0.175,
                "tempo": 120.0
            },
            {
                "start_time": 14.4090909,
                "end_time": 14.5772727,
                "pitch": 60,
                "velocity": 80,
                "duration": 0.1681818,
                "tempo": 120.0
            },
            {
                "start_time": 14.6431818,
                "end_time": 14.8068182,
                "pitch": 67,
                "velocity": 80,
                "duration": 0.1636364,
                "tempo": 120.0
            },
            {
                "start_time": 14.8068182,
                "end_time": 15.0704545,
                "pitch": 70,
                "velocity": 80,
                "duration": 0.2636364,
                "tempo": 120.0
            },
            {
                "start_time": 15.0704545,
                "end_time": 15.2340909,
                "pitch": 74,
                "velocity": 80,
                "duration": 0.1636364,
                "tempo": 120.0
            },
            {
                "start_time": 15.3,
                "end_time": 15.4636364,
                "pitch": 60,
                "velocity": 80,
                "duration": 0.1636364,
                "tempo": 120.0
            },
            {
                "start_time": 15.4636364,
                "end_time": 15.7272727,
                "pitch": 67,
                "velocity": 80,
                "duration": 0.2636364,
                "tempo": 120.0
            },
            {
                "start_time": 15.7272727,
                "end_time": 15.8909091,
                "pitch": 70,
                "velocity": 80,
                "duration": 0.1636364,
                "tempo": 120.0
            },
            {
                "start_time": 15.9568182,
                "end_time": 16.1204545,
                "pitch": 74,
                "velocity": 80,
                "duration": 0.1636364,
                "tempo": 120.0
            },
            {
                "start_time": 16.1204545,
                "end_time": 16.2886364,
                "pitch": 60,
                "velocity": 80,
                "duration": 0.1681818,
                "tempo": 120.0
            },
            {
                "start_time": 16.3909091,
                "end_time": 16.5590909,
                "pitch": 67,
                "velocity": 80,
                "duration": 0.1681818,
                "tempo": 120.0
            },
            {
                "start_time": 16.6272727,
                "end_time": 16.7954545,
                "pitch": 65,
                "velocity": 80,
                "duration": 0.1681818,
                "tempo": 120.0
            },
            {
                "start_time": 16.7954545,
                "end_time": 16.9659091,
                "pitch": 70,
                "velocity": 80,
                "duration": 0.1704545,
                "tempo": 120.0
            },
            {
                "start_time": 17.0318182,
                "end_time": 17.2363636,
                "pitch": 74,
                "velocity": 80,
                "duration": 0.2045455,
                "tempo": 120.0
            },
            {
                "start_time": 17.3022727,
                "end_time": 17.4727273,
                "pitch": 60,
                "velocity": 80,
                "duration": 0.1704545,
                "tempo": 120.0
            },
            {
                "start_time": 17.4727273,
                "end_time": 17.6409091,
                "pitch": 67,
                "velocity": 80,
                "duration": 0.1681818,
                "tempo": 120.0
            },
            {
                "start_time": 17.7090909,
                "end_time": 17.9113636,
                "pitch": 70,
                "velocity": 80,
                "duration": 0.2022727,
                "tempo": 120.0
            },
            {
                "start_time": 17.9795455,
                "end_time": 18.1545455,
                "pitch": 74,
                "velocity": 80,
                "duration": 0.175,
                "tempo": 120.0
            },
            {
                "start_time": 18.1545455,
                "end_time": 18.3318182,
                "pitch": 70,
                "velocity": 80,
                "duration": 0.1772727,
                "tempo": 120.0
            },
            {
                "start_time": 18.4022727,
                "end_time": 18.5772727,
                "pitch": 65,
                "velocity": 80,
                "duration": 0.175,
                "tempo": 120.0
            },
            {
                "start_time": 18.6840909,
                "end_time": 18.8613636,
                "pitch": 69,
                "velocity": 80,
                "duration": 0.1772727,
                "tempo": 120.0
            },
            {
                "start_time": 18.8613636,
                "end_time": 19.0386364,
                "pitch": 72,
                "velocity": 80,
                "duration": 0.1772727,
                "tempo": 120.0
            },
            {
                "start_time": 19.1090909,
                "end_time": 19.2863636,
                "pitch": 70,
                "velocity": 80,
                "duration": 0.1772727,
                "tempo": 120.0
            },
            {
                "start_time": 19.2863636,
                "end_time": 19.5681818,
                "pitch": 65,
                "velocity": 80,
                "duration": 0.2818182,
                "tempo": 120.0
            },
            {
                "start_time": 19.5681818,
                "end_time": 19.7454545,
                "pitch": 69,
                "velocity": 80,
                "duration": 0.1772727,
                "tempo": 120.0
            },
            {
                "start_time": 19.8159091,
                "end_time": 19.9863636,
                "pitch": 72,
                "velocity": 80,
                "duration": 0.1704545,
                "tempo": 120.0
            },
            {
                "start_time": 19.9863636,
                "end_time": 20.2522727,
                "pitch": 57,
                "velocity": 80,
                "duration": 0.2659091,
                "tempo": 120.0
            },
            {
                "start_time": 20.2522727,
                "end_time": 20.4181818,
                "pitch": 65,
                "velocity": 80,
                "duration": 0.1659091,
                "tempo": 120.0
            },
            {
                "start_time": 20.4863636,
                "end_time": 20.6522727,
                "pitch": 69,
                "velocity": 80,
                "duration": 0.1659091,
                "tempo": 120.0
            },
            {
                "start_time": 20.6522727,
                "end_time": 20.8181818,
                "pitch": 72,
                "velocity": 80,
                "duration": 0.1659091,
                "tempo": 120.0
            },
            {
                "start_time": 20.9181818,
                "end_time": 21.0840909,
                "pitch": 70,
                "velocity": 80,
                "duration": 0.1659091,
                "tempo": 120.0
            },
            {
                "start_time": 21.1522727,
                "end_time": 21.3181818,
                "pitch": 65,
                "velocity": 80,
                "duration": 0.1659091,
                "tempo": 120.0
            },
            {
                "start_time": 21.3181818,
                "end_time": 21.4840909,
                "pitch": 69,
                "velocity": 80,
                "duration": 0.1659091,
                "tempo": 120.0
            },
            {
                "start_time": 21.5522727,
                "end_time": 21.7545455,
                "pitch": 60,
                "velocity": 80,
                "duration": 0.2022727,
                "tempo": 120.0
            },
            {
                "start_time": 21.8227273,
                "end_time": 21.9954545,
                "pitch": 67,
                "velocity": 80,
                "duration": 0.1727273,
                "tempo": 120.0
            },
            {
                "start_time": 21.9954545,
                "end_time": 22.1659091,
                "pitch": 70,
                "velocity": 80,
                "duration": 0.1704545,
                "tempo": 120.0
            },
            {
                "start_time": 22.2363636,
                "end_time": 22.4409091,
                "pitch": 74,
                "velocity": 80,
                "duration": 0.2045455,
                "tempo": 120.0
            },
            {
                "start_time": 22.5090909,
                "end_time": 22.6818182,
                "pitch": 60,
                "velocity": 80,
                "duration": 0.1727273,
                "tempo": 120.0
            },
            {
                "start_time": 22.6818182,
                "end_time": 22.8522727,
                "pitch": 67,
                "velocity": 80,
                "duration": 0.1704545,
                "tempo": 120.0
            },
            {
                "start_time": 22.9227273,
                "end_time": 23.0931818,
                "pitch": 70,
                "velocity": 80,
                "duration": 0.1704545,
                "tempo": 120.0
            },
            {
                "start_time": 23.1954545,
                "end_time": 23.3681818,
                "pitch": 74,
                "velocity": 80,
                "duration": 0.1727273,
                "tempo": 120.0
            },
            {
                "start_time": 23.3681818,
                "end_time": 23.5363636,
                "pitch": 60,
                "velocity": 80,
                "duration": 0.1681818,
                "tempo": 120.0
            },
            {
                "start_time": 23.6022727,
                "end_time": 23.7681818,
                "pitch": 67,
                "velocity": 80,
                "duration": 0.1659091,
                "tempo": 120.0
            },
            {
                "start_time": 23.7681818,
                "end_time": 24.0363636,
                "pitch": 70,
                "velocity": 80,
                "duration": 0.2681818,
                "tempo": 120.0
            },
            {
                "start_time": 24.0363636,
                "end_time": 24.2022727,
                "pitch": 74,
                "velocity": 80,
                "duration": 0.1659091,
                "tempo": 120.0
            },
            {
                "start_time": 24.2681818,
                "end_time": 24.4363636,
                "pitch": 60,
                "velocity": 80,
                "duration": 0.1681818,
                "tempo": 120.0
            },
            {
                "start_time": 24.4363636,
                "end_time": 24.7022727,
                "pitch": 67,
                "velocity": 80,
                "duration": 0.2659091,
                "tempo": 120.0
            },
            {
                "start_time": 24.7022727,
                "end_time": 24.8681818,
                "pitch": 70,
                "velocity": 80,
                "duration": 0.1659091,
                "tempo": 120.0
            },
            {
                "start_time": 24.9363636,
                "end_time": 25.1022727,
                "pitch": 75,
                "velocity": 80,
                "duration": 0.1659091,
                "tempo": 120.0
            },
            {
                "start_time": 25.1022727,
                "end_time": 25.2704545,
                "pitch": 70,
                "velocity": 80,
                "duration": 0.1681818,
                "tempo": 120.0
            },
            {
                "start_time": 25.3727273,
                "end_time": 25.5409091,
                "pitch": 66,
                "velocity": 80,
                "duration": 0.1681818,
                "tempo": 120.0
            },
            {
                "start_time": 25.6090909,
                "end_time": 25.7772727,
                "pitch": 63,
                "velocity": 80,
                "duration": 0.1681818,
                "tempo": 120.0
            },
            {
                "start_time": 25.7772727,
                "end_time": 25.9454545,
                "pitch": 66,
                "velocity": 80,
                "duration": 0.1681818,
                "tempo": 120.0
            },
            {
                "start_time": 26.0136364,
                "end_time": 26.2181818,
                "pitch": 63,
                "velocity": 80,
                "duration": 0.2045455,
                "tempo": 120.0
            },
            {
                "start_time": 26.2840909,
                "end_time": 26.4545455,
                "pitch": 60,
                "velocity": 80,
                "duration": 0.1704545,
                "tempo": 120.0
            },
            {
                "start_time": 26.4545455,
                "end_time": 26.8931818,
                "pitch": 72,
                "velocity": 80,
                "duration": 0.4386364,
                "tempo": 120.0
            },
            {
                "start_time": 26.9613636,
                "end_time": 27.3090909,
                "pitch": 74,
                "velocity": 80,
                "duration": 0.3477273,
                "tempo": 120.0
            },
            {
                "start_time": 27.3795455,
                "end_time": 27.8318182,
                "pitch": 75,
                "velocity": 80,
                "duration": 0.4522727,
                "tempo": 120.0
            },
            {
                "start_time": 27.8318182,
                "end_time": 28.25,
                "pitch": 79,
                "velocity": 80,
                "duration": 0.4181818,
                "tempo": 120.0
            },
            {
                "start_time": 28.25,
                "end_time": 28.7022727,
                "pitch": 81,
                "velocity": 80,
                "duration": 0.4522727,
                "tempo": 120.0
            },
            {
                "start_time": 28.7727273,
                "end_time": 30.0568182,
                "pitch": 72,
                "velocity": 80,
                "duration": 1.2840909,
                "tempo": 120.0
            },
            {
                "start_time": 30.125,
                "end_time": 30.4636364,
                "pitch": 70,
                "velocity": 80,
                "duration": 0.3386364,
                "tempo": 120.0
            },
            {
                "start_time": 30.5318182,
                "end_time": 31.1477273,
                "pitch": 74,
                "velocity": 80,
                "duration": 0.6159091,
                "tempo": 120.0
            },
            {
                "start_time": 31.2159091,
                "end_time": 31.8340909,
                "pitch": 67,
                "velocity": 80,
                "duration": 0.6181818,
                "tempo": 120.0
            },
            {
                "start_time": 31.9022727,
                "end_time": 32.3477273,
                "pitch": 70,
                "velocity": 80,
                "duration": 0.4454545,
                "tempo": 120.0
            },
            {
                "start_time": 32.3477273,
                "end_time": 32.925,
                "pitch": 65,
                "velocity": 80,
                "duration": 0.5772727,
                "tempo": 120.0
            },
            {
                "start_time": 32.9909091,
                "end_time": 35.4409091,
                "pitch": 67,
                "velocity": 80,
                "duration": 2.45,
                "tempo": 120.0
            },
            {
                "start_time": 35.4409091,
                "end_time": 35.6068182,
                "pitch": 70,
                "velocity": 80,
                "duration": 0.1659091,
                "tempo": 120.0
            },
            {
                "start_time": 35.675,
                "end_time": 35.875,
                "pitch": 74,
                "velocity": 80,
                "duration": 0.2,
                "tempo": 120.0
            },
            {
                "start_time": 35.9409091,
                "end_time": 37.2477273,
                "pitch": 67,
                "velocity": 80,
                "duration": 1.3068182,
                "tempo": 120.0
            },
            {
                "start_time": 37.2477273,
                "end_time": 37.7068182,
                "pitch": 79,
                "velocity": 80,
                "duration": 0.4590909,
                "tempo": 120.0
            },
            {
                "start_time": 37.7772727,
                "end_time": 38.3886364,
                "pitch": 77,
                "velocity": 80,
                "duration": 0.6113636,
                "tempo": 120.0
            },
            {
                "start_time": 38.4568182,
                "end_time": 39.0659091,
                "pitch": 82,
                "velocity": 80,
                "duration": 0.6090909,
                "tempo": 120.0
            },
            {
                "start_time": 39.1318182,
                "end_time": 39.4704545,
                "pitch": 81,
                "velocity": 80,
                "duration": 0.3386364,
                "tempo": 120.0
            },
            {
                "start_time": 39.5386364,
                "end_time": 40.1477273,
                "pitch": 79,
                "velocity": 80,
                "duration": 0.6090909,
                "tempo": 120.0
            },
            {
                "start_time": 40.2136364,
                "end_time": 42.6818182,
                "pitch": 77,
                "velocity": 80,
                "duration": 2.4681818,
                "tempo": 120.0
            },
            {
                "start_time": 42.6818182,
                "end_time": 42.8522727,
                "pitch": 70,
                "velocity": 80,
                "duration": 0.1704545,
                "tempo": 120.0
            },
            {
                "start_time": 42.9204545,
                "end_time": 43.0886364,
                "pitch": 74,
                "velocity": 80,
                "duration": 0.1681818,
                "tempo": 120.0
            },
            {
                "start_time": 43.0886364,
                "end_time": 44.4409091,
                "pitch": 67,
                "velocity": 80,
                "duration": 1.3522727,
                "tempo": 120.0
            },
            {
                "start_time": 44.4409091,
                "end_time": 44.8818182,
                "pitch": 70,
                "velocity": 80,
                "duration": 0.4409091,
                "tempo": 120.0
            },
            {
                "start_time": 44.9477273,
                "end_time": 46.2545455,
                "pitch": 72,
                "velocity": 80,
                "duration": 1.3068182,
                "tempo": 120.0
            },
            {
                "start_time": 46.2545455,
                "end_time": 46.7159091,
                "pitch": 65,
                "velocity": 80,
                "duration": 0.4613636,
                "tempo": 120.0
            },
            {
                "start_time": 46.7863636,
                "end_time": 49.8318182,
                "pitch": 67,
                "velocity": 80,
                "duration": 3.0454545,
                "tempo": 120.0
            },
            {
                "start_time": 49.8977273,
                "end_time": 50.0681818,
                "pitch": 70,
                "velocity": 80,
                "duration": 0.1704545,
                "tempo": 120.0
            },
            {
                "start_time": 50.1704545,
                "end_time": 50.3386364,
                "pitch": 74,
                "velocity": 80,
                "duration": 0.1681818,
                "tempo": 120.0
            },
            {
                "start_time": 50.3386364,
                "end_time": 51.6909091,
                "pitch": 67,
                "velocity": 80,
                "duration": 1.3522727,
                "tempo": 120.0
            },
            {
                "start_time": 51.6909091,
                "end_time": 51.8590909,
                "pitch": 70,
                "velocity": 80,
                "duration": 0.1681818,
                "tempo": 120.0
            },
            {
                "start_time": 51.9272727,
                "end_time": 52.0977273,
                "pitch": 74,
                "velocity": 80,
                "duration": 0.1704545,
                "tempo": 120.0
            },
            {
                "start_time": 52.0977273,
                "end_time": 53.2136364,
                "pitch": 67,
                "velocity": 80,
                "duration": 1.1159091,
                "tempo": 120.0
            },
            {
                "start_time": 53.2795455,
                "end_time": 53.6181818,
                "pitch": 79,
                "velocity": 80,
                "duration": 0.3386364,
                "tempo": 120.0
            },
            {
                "start_time": 53.6863636,
                "end_time": 53.8886364,
                "pitch": 77,
                "velocity": 80,
                "duration": 0.2022727,
                "tempo": 120.0
            },
            {
                "start_time": 53.9568182,
                "end_time": 55.7227273,
                "pitch": 82,
                "velocity": 80,
                "duration": 1.7659091,
                "tempo": 120.0
            },
            {
                "start_time": 55.7931818,
                "end_time": 56.4045455,
                "pitch": 79,
                "velocity": 80,
                "duration": 0.6113636,
                "tempo": 120.0
            },
            {
                "start_time": 56.4727273,
                "end_time": 57.0818182,
                "pitch": 77,
                "velocity": 80,
                "duration": 0.6090909,
                "tempo": 120.0
            },
            {
                "start_time": 57.1477273,
                "end_time": 57.4863636,
                "pitch": 75,
                "velocity": 80,
                "duration": 0.3386364,
                "tempo": 120.0
            },
            {
                "start_time": 57.5545455,
                "end_time": 57.7568182,
                "pitch": 67,
                "velocity": 80,
                "duration": 0.2022727,
                "tempo": 120.0
            },
            {
                "start_time": 57.825,
                "end_time": 57.9931818,
                "pitch": 70,
                "velocity": 80,
                "duration": 0.1681818,
                "tempo": 120.0
            },
            {
                "start_time": 57.9931818,
                "end_time": 58.1636364,
                "pitch": 72,
                "velocity": 80,
                "duration": 0.1704545,
                "tempo": 120.0
            },
            {
                "start_time": 58.2295455,
                "end_time": 58.4340909,
                "pitch": 67,
                "velocity": 80,
                "duration": 0.2045455,
                "tempo": 120.0
            },
            {
                "start_time": 58.5022727,
                "end_time": 58.6704545,
                "pitch": 70,
                "velocity": 80,
                "duration": 0.1681818,
                "tempo": 120.0
            },
            {
                "start_time": 58.6704545,
                "end_time": 58.8386364,
                "pitch": 72,
                "velocity": 80,
                "duration": 0.1681818,
                "tempo": 120.0
            },
            {
                "start_time": 58.9068182,
                "end_time": 59.075,
                "pitch": 67,
                "velocity": 80,
                "duration": 0.1681818,
                "tempo": 120.0
            },
            {
                "start_time": 59.1772727,
                "end_time": 59.3454545,
                "pitch": 70,
                "velocity": 80,
                "duration": 0.1681818,
                "tempo": 120.0
            },
            {
                "start_time": 59.3454545,
                "end_time": 59.5159091,
                "pitch": 72,
                "velocity": 80,
                "duration": 0.1704545,
                "tempo": 120.0
            },
            {
                "start_time": 59.5840909,
                "end_time": 59.7522727,
                "pitch": 67,
                "velocity": 80,
                "duration": 0.1681818,
                "tempo": 120.0
            },
            {
                "start_time": 59.7522727,
                "end_time": 60.0227273,
                "pitch": 70,
                "velocity": 80,
                "duration": 0.2704545,
                "tempo": 120.0
            },
            {
                "start_time": 60.0227273,
                "end_time": 60.1909091,
                "pitch": 72,
                "velocity": 80,
                "duration": 0.1681818,
                "tempo": 120.0
            },
            {
                "start_time": 60.2590909,
                "end_time": 60.4295455,
                "pitch": 67,
                "velocity": 80,
                "duration": 0.1704545,
                "tempo": 120.0
            },
            {
                "start_time": 60.4295455,
                "end_time": 60.7,
                "pitch": 70,
                "velocity": 80,
                "duration": 0.2704545,
                "tempo": 120.0
            },
            {
                "start_time": 60.7,
                "end_time": 61.1045455,
                "pitch": 72,
                "velocity": 80,
                "duration": 0.4045455,
                "tempo": 120.0
            },
            {
                "start_time": 61.1045455,
                "end_time": 61.2727273,
                "pitch": 69,
                "velocity": 80,
                "duration": 0.1681818,
                "tempo": 120.0
            },
            {
                "start_time": 61.375,
                "end_time": 61.5431818,
                "pitch": 72,
                "velocity": 80,
                "duration": 0.1681818,
                "tempo": 120.0
            },
            {
                "start_time": 61.6113636,
                "end_time": 61.7818182,
                "pitch": 74,
                "velocity": 80,
                "duration": 0.1704545,
                "tempo": 120.0
            },
            {
                "start_time": 61.7818182,
                "end_time": 61.95,
                "pitch": 69,
                "velocity": 80,
                "duration": 0.1681818,
                "tempo": 120.0
            },
            {
                "start_time": 62.0181818,
                "end_time": 62.2204545,
                "pitch": 72,
                "velocity": 80,
                "duration": 0.2022727,
                "tempo": 120.0
            },
            {
                "start_time": 62.2886364,
                "end_time": 62.4568182,
                "pitch": 74,
                "velocity": 80,
                "duration": 0.1681818,
                "tempo": 120.0
            },
            {
                "start_time": 62.4568182,
                "end_time": 62.6272727,
                "pitch": 69,
                "velocity": 80,
                "duration": 0.1704545,
                "tempo": 120.0
            },
            {
                "start_time": 62.6931818,
                "end_time": 62.8977273,
                "pitch": 72,
                "velocity": 80,
                "duration": 0.2045455,
                "tempo": 120.0
            },
            {
                "start_time": 62.9636364,
                "end_time": 63.1386364,
                "pitch": 74,
                "velocity": 80,
                "duration": 0.175,
                "tempo": 120.0
            },
            {
                "start_time": 63.1386364,
                "end_time": 63.3113636,
                "pitch": 69,
                "velocity": 80,
                "duration": 0.1727273,
                "tempo": 120.0
            },
            {
                "start_time": 63.3818182,
                "end_time": 63.5568182,
                "pitch": 69,
                "velocity": 80,
                "duration": 0.175,
                "tempo": 120.0
            },
            {
                "start_time": 63.6613636,
                "end_time": 63.8340909,
                "pitch": 74,
                "velocity": 80,
                "duration": 0.1727273,
                "tempo": 120.0
            },
            {
                "start_time": 63.8340909,
                "end_time": 64.0090909,
                "pitch": 69,
                "velocity": 80,
                "duration": 0.175,
                "tempo": 120.0
            },
            {
                "start_time": 64.0795455,
                "end_time": 64.2522727,
                "pitch": 72,
                "velocity": 80,
                "duration": 0.1727273,
                "tempo": 120.0
            },
            {
                "start_time": 64.2522727,
                "end_time": 64.7068182,
                "pitch": 74,
                "velocity": 80,
                "duration": 0.4545455,
                "tempo": 120.0
            },
            {
                "start_time": 64.775,
                "end_time": 64.9454545,
                "pitch": 70,
                "velocity": 80,
                "duration": 0.1704545,
                "tempo": 120.0
            },
            {
                "start_time": 64.9454545,
                "end_time": 65.2159091,
                "pitch": 74,
                "velocity": 80,
                "duration": 0.2704545,
                "tempo": 120.0
            },
            {
                "start_time": 65.2159091,
                "end_time": 65.3863636,
                "pitch": 75,
                "velocity": 80,
                "duration": 0.1704545,
                "tempo": 120.0
            },
            {
                "start_time": 65.4522727,
                "end_time": 65.6227273,
                "pitch": 70,
                "velocity": 80,
                "duration": 0.1704545,
                "tempo": 120.0
            },
            {
                "start_time": 65.6227273,
                "end_time": 65.7909091,
                "pitch": 74,
                "velocity": 80,
                "duration": 0.1681818,
                "tempo": 120.0
            },
            {
                "start_time": 65.8931818,
                "end_time": 66.0613636,
                "pitch": 75,
                "velocity": 80,
                "duration": 0.1681818,
                "tempo": 120.0
            },
            {
                "start_time": 66.1295455,
                "end_time": 66.2977273,
                "pitch": 70,
                "velocity": 80,
                "duration": 0.1681818,
                "tempo": 120.0
            },
            {
                "start_time": 66.2977273,
                "end_time": 66.4681818,
                "pitch": 74,
                "velocity": 80,
                "duration": 0.1704545,
                "tempo": 120.0
            },
            {
                "start_time": 66.5340909,
                "end_time": 66.7386364,
                "pitch": 75,
                "velocity": 80,
                "duration": 0.2045455,
                "tempo": 120.0
            },
            {
                "start_time": 66.8045455,
                "end_time": 66.975,
                "pitch": 70,
                "velocity": 80,
                "duration": 0.1704545,
                "tempo": 120.0
            },
            {
                "start_time": 66.975,
                "end_time": 67.1431818,
                "pitch": 74,
                "velocity": 80,
                "duration": 0.1681818,
                "tempo": 120.0
            },
            {
                "start_time": 67.2113636,
                "end_time": 67.4136364,
                "pitch": 75,
                "velocity": 80,
                "duration": 0.2022727,
                "tempo": 120.0
            },
            {
                "start_time": 67.4818182,
                "end_time": 67.65,
                "pitch": 70,
                "velocity": 80,
                "duration": 0.1681818,
                "tempo": 120.0
            },
            {
                "start_time": 67.65,
                "end_time": 67.8204545,
                "pitch": 74,
                "velocity": 80,
                "duration": 0.1704545,
                "tempo": 120.0
            },
            {
                "start_time": 67.8886364,
                "end_time": 68.3272727,
                "pitch": 75,
                "velocity": 80,
                "duration": 0.4386364,
                "tempo": 120.0
            },
            {
                "start_time": 68.3272727,
                "end_time": 68.4954545,
                "pitch": 69,
                "velocity": 80,
                "duration": 0.1681818,
                "tempo": 120.0
            },
            {
                "start_time": 68.5636364,
                "end_time": 68.7318182,
                "pitch": 72,
                "velocity": 80,
                "duration": 0.1681818,
                "tempo": 120.0
            },
            {
                "start_time": 68.7318182,
                "end_time": 69.0022727,
                "pitch": 74,
                "velocity": 80,
                "duration": 0.2704545,
                "tempo": 120.0
            },
            {
                "start_time": 69.0022727,
                "end_time": 69.1727273,
                "pitch": 69,
                "velocity": 80,
                "duration": 0.1704545,
                "tempo": 120.0
            },
            {
                "start_time": 69.2409091,
                "end_time": 69.4090909,
                "pitch": 72,
                "velocity": 80,
                "duration": 0.1681818,
                "tempo": 120.0
            },
            {
                "start_time": 69.4090909,
                "end_time": 69.6795455,
                "pitch": 74,
                "velocity": 80,
                "duration": 0.2704545,
                "tempo": 120.0
            },
            {
                "start_time": 69.6795455,
                "end_time": 69.8477273,
                "pitch": 69,
                "velocity": 80,
                "duration": 0.1681818,
                "tempo": 120.0
            },
            {
                "start_time": 69.9159091,
                "end_time": 70.0863636,
                "pitch": 72,
                "velocity": 80,
                "duration": 0.1704545,
                "tempo": 120.0
            },
            {
                "start_time": 70.0863636,
                "end_time": 70.2545455,
                "pitch": 74,
                "velocity": 80,
                "duration": 0.1681818,
                "tempo": 120.0
            },
            {
                "start_time": 70.3568182,
                "end_time": 70.525,
                "pitch": 69,
                "velocity": 80,
                "duration": 0.1681818,
                "tempo": 120.0
            },
            {
                "start_time": 70.5931818,
                "end_time": 70.7613636,
                "pitch": 69,
                "velocity": 80,
                "duration": 0.1681818,
                "tempo": 120.0
            },
            {
                "start_time": 70.7613636,
                "end_time": 70.9318182,
                "pitch": 74,
                "velocity": 80,
                "duration": 0.1704545,
                "tempo": 120.0
            },
            {
                "start_time": 70.9977273,
                "end_time": 71.2022727,
                "pitch": 69,
                "velocity": 80,
                "duration": 0.2045455,
                "tempo": 120.0
            },
            {
                "start_time": 71.2681818,
                "end_time": 71.4386364,
                "pitch": 72,
                "velocity": 80,
                "duration": 0.1704545,
                "tempo": 120.0
            },
            {
                "start_time": 71.4386364,
                "end_time": 71.8772727,
                "pitch": 74,
                "velocity": 80,
                "duration": 0.4386364,
                "tempo": 120.0
            },
            {
                "start_time": 71.9454545,
                "end_time": 72.1181818,
                "pitch": 69,
                "velocity": 80,
                "duration": 0.1727273,
                "tempo": 120.0
            },
            {
                "start_time": 72.1181818,
                "end_time": 72.2931818,
                "pitch": 72,
                "velocity": 80,
                "duration": 0.175,
                "tempo": 120.0
            },
            {
                "start_time": 72.3636364,
                "end_time": 72.5363636,
                "pitch": 74,
                "velocity": 80,
                "duration": 0.1727273,
                "tempo": 120.0
            },
            {
                "start_time": 72.6409091,
                "end_time": 72.8159091,
                "pitch": 69,
                "velocity": 80,
                "duration": 0.175,
                "tempo": 120.0
            },
            {
                "start_time": 72.8159091,
                "end_time": 72.9909091,
                "pitch": 72,
                "velocity": 80,
                "duration": 0.175,
                "tempo": 120.0
            },
            {
                "start_time": 73.0590909,
                "end_time": 73.2340909,
                "pitch": 74,
                "velocity": 80,
                "duration": 0.175,
                "tempo": 120.0
            },
            {
                "start_time": 73.2340909,
                "end_time": 73.5113636,
                "pitch": 69,
                "velocity": 80,
                "duration": 0.2772727,
                "tempo": 120.0
            },
            {
                "start_time": 73.5113636,
                "end_time": 73.6863636,
                "pitch": 72,
                "velocity": 80,
                "duration": 0.175,
                "tempo": 120.0
            },
            {
                "start_time": 73.7568182,
                "end_time": 73.9272727,
                "pitch": 74,
                "velocity": 80,
                "duration": 0.1704545,
                "tempo": 120.0
            },
            {
                "start_time": 73.9272727,
                "end_time": 74.1977273,
                "pitch": 69,
                "velocity": 80,
                "duration": 0.2704545,
                "tempo": 120.0
            },
            {
                "start_time": 74.1977273,
                "end_time": 74.3659091,
                "pitch": 69,
                "velocity": 80,
                "duration": 0.1681818,
                "tempo": 120.0
            },
            {
                "start_time": 74.4340909,
                "end_time": 74.6022727,
                "pitch": 74,
                "velocity": 80,
                "duration": 0.1681818,
                "tempo": 120.0
            },
            {
                "start_time": 74.6022727,
                "end_time": 74.7727273,
                "pitch": 69,
                "velocity": 80,
                "duration": 0.1704545,
                "tempo": 120.0
            },
            {
                "start_time": 74.8727273,
                "end_time": 75.0431818,
                "pitch": 72,
                "velocity": 80,
                "duration": 0.1704545,
                "tempo": 120.0
            },
            {
                "start_time": 75.1090909,
                "end_time": 75.4477273,
                "pitch": 74,
                "velocity": 80,
                "duration": 0.3386364,
                "tempo": 120.0
            },
            {
                "start_time": 75.5159091,
                "end_time": 75.7181818,
                "pitch": 70,
                "velocity": 80,
                "duration": 0.2022727,
                "tempo": 120.0
            },
            {
                "start_time": 75.7863636,
                "end_time": 75.9545455,
                "pitch": 74,
                "velocity": 80,
                "duration": 0.1681818,
                "tempo": 120.0
            },
            {
                "start_time": 75.9545455,
                "end_time": 76.125,
                "pitch": 75,
                "velocity": 80,
                "duration": 0.1704545,
                "tempo": 120.0
            },
            {
                "start_time": 76.1909091,
                "end_time": 76.3954545,
                "pitch": 70,
                "velocity": 80,
                "duration": 0.2045455,
                "tempo": 120.0
            },
            {
                "start_time": 76.4613636,
                "end_time": 76.6318182,
                "pitch": 74,
                "velocity": 80,
                "duration": 0.1704545,
                "tempo": 120.0
            },
            {
                "start_time": 76.6318182,
                "end_time": 76.8,
                "pitch": 75,
                "velocity": 80,
                "duration": 0.1681818,
                "tempo": 120.0
            },
            {
                "start_time": 76.8681818,
                "end_time": 77.0363636,
                "pitch": 70,
                "velocity": 80,
                "duration": 0.1681818,
                "tempo": 120.0
            },
            {
                "start_time": 77.1386364,
                "end_time": 77.3068182,
                "pitch": 74,
                "velocity": 80,
                "duration": 0.1681818,
                "tempo": 120.0
            },
            {
                "start_time": 77.3068182,
                "end_time": 77.4772727,
                "pitch": 75,
                "velocity": 80,
                "duration": 0.1704545,
                "tempo": 120.0
            },
            {
                "start_time": 77.5454545,
                "end_time": 77.7136364,
                "pitch": 70,
                "velocity": 80,
                "duration": 0.1681818,
                "tempo": 120.0
            },
            {
                "start_time": 77.7136364,
                "end_time": 77.9840909,
                "pitch": 74,
                "velocity": 80,
                "duration": 0.2704545,
                "tempo": 120.0
            },
            {
                "start_time": 77.9840909,
                "end_time": 78.1522727,
                "pitch": 75,
                "velocity": 80,
                "duration": 0.1681818,
                "tempo": 120.0
            },
            {
                "start_time": 78.2204545,
                "end_time": 78.3909091,
                "pitch": 70,
                "velocity": 80,
                "duration": 0.1704545,
                "tempo": 120.0
            },
            {
                "start_time": 78.3909091,
                "end_time": 78.6613636,
                "pitch": 74,
                "velocity": 80,
                "duration": 0.2704545,
                "tempo": 120.0
            },
            {
                "start_time": 78.6613636,
                "end_time": 79.0659091,
                "pitch": 75,
                "velocity": 80,
                "duration": 0.4045455,
                "tempo": 120.0
            },
            {
                "start_time": 79.0659091,
                "end_time": 79.2340909,
                "pitch": 72,
                "velocity": 80,
                "duration": 0.1681818,
                "tempo": 120.0
            },
            {
                "start_time": 79.3340909,
                "end_time": 79.5,
                "pitch": 75,
                "velocity": 80,
                "duration": 0.1659091,
                "tempo": 120.0
            },
            {
                "start_time": 79.5659091,
                "end_time": 79.7318182,
                "pitch": 77,
                "velocity": 80,
                "duration": 0.1659091,
                "tempo": 120.0
            },
            {
                "start_time": 79.7318182,
                "end_time": 79.9,
                "pitch": 72,
                "velocity": 80,
                "duration": 0.1681818,
                "tempo": 120.0
            },
            {
                "start_time": 79.9659091,
                "end_time": 80.1659091,
                "pitch": 75,
                "velocity": 80,
                "duration": 0.2,
                "tempo": 120.0
            },
            {
                "start_time": 80.2318182,
                "end_time": 80.4,
                "pitch": 77,
                "velocity": 80,
                "duration": 0.1681818,
                "tempo": 120.0
            },
            {
                "start_time": 80.4,
                "end_time": 80.5659091,
                "pitch": 72,
                "velocity": 80,
                "duration": 0.1659091,
                "tempo": 120.0
            },
            {
                "start_time": 80.6318182,
                "end_time": 80.8318182,
                "pitch": 75,
                "velocity": 80,
                "duration": 0.2,
                "tempo": 120.0
            },
            {
                "start_time": 80.9,
                "end_time": 81.075,
                "pitch": 77,
                "velocity": 80,
                "duration": 0.175,
                "tempo": 120.0
            },
            {
                "start_time": 81.075,
                "end_time": 81.2522727,
                "pitch": 72,
                "velocity": 80,
                "duration": 0.1772727,
                "tempo": 120.0
            },
            {
                "start_time": 81.3227273,
                "end_time": 81.5,
                "pitch": 75,
                "velocity": 80,
                "duration": 0.1772727,
                "tempo": 120.0
            },
            {
                "start_time": 81.6068182,
                "end_time": 81.7818182,
                "pitch": 77,
                "velocity": 80,
                "duration": 0.175,
                "tempo": 120.0
            },
            {
                "start_time": 81.7818182,
                "end_time": 81.9590909,
                "pitch": 72,
                "velocity": 80,
                "duration": 0.1772727,
                "tempo": 120.0
            },
            {
                "start_time": 82.0295455,
                "end_time": 82.2068182,
                "pitch": 75,
                "velocity": 80,
                "duration": 0.1772727,
                "tempo": 120.0
            },
            {
                "start_time": 82.2068182,
                "end_time": 82.6681818,
                "pitch": 77,
                "velocity": 80,
                "duration": 0.4613636,
                "tempo": 120.0
            },
            {
                "start_time": 82.7386364,
                "end_time": 82.9090909,
                "pitch": 74,
                "velocity": 80,
                "duration": 0.1704545,
                "tempo": 120.0
            },
            {
                "start_time": 82.9090909,
                "end_time": 83.1795455,
                "pitch": 77,
                "velocity": 80,
                "duration": 0.2704545,
                "tempo": 120.0
            },
            {
                "start_time": 83.1795455,
                "end_time": 83.3477273,
                "pitch": 79,
                "velocity": 80,
                "duration": 0.1681818,
                "tempo": 120.0
            },
            {
                "start_time": 83.4159091,
                "end_time": 83.5840909,
                "pitch": 74,
                "velocity": 80,
                "duration": 0.1681818,
                "tempo": 120.0
            },
            {
                "start_time": 83.5840909,
                "end_time": 83.7545455,
                "pitch": 77,
                "velocity": 80,
                "duration": 0.1704545,
                "tempo": 120.0
            },
            {
                "start_time": 83.8545455,
                "end_time": 84.025,
                "pitch": 79,
                "velocity": 80,
                "duration": 0.1704545,
                "tempo": 120.0
            },
            {
                "start_time": 84.0931818,
                "end_time": 84.4295455,
                "pitch": 74,
                "velocity": 80,
                "duration": 0.3363636,
                "tempo": 120.0
            },
            {
                "start_time": 84.4977273,
                "end_time": 84.7,
                "pitch": 74,
                "velocity": 80,
                "duration": 0.2022727,
                "tempo": 120.0
            },
            {
                "start_time": 84.7681818,
                "end_time": 84.9386364,
                "pitch": 79,
                "velocity": 80,
                "duration": 0.1704545,
                "tempo": 120.0
            },
            {
                "start_time": 84.9386364,
                "end_time": 85.1068182,
                "pitch": 74,
                "velocity": 80,
                "duration": 0.1681818,
                "tempo": 120.0
            },
            {
                "start_time": 85.175,
                "end_time": 85.3772727,
                "pitch": 77,
                "velocity": 80,
                "duration": 0.2022727,
                "tempo": 120.0
            },
            {
                "start_time": 85.4454545,
                "end_time": 85.6136364,
                "pitch": 79,
                "velocity": 80,
                "duration": 0.1681818,
                "tempo": 120.0
            },
            {
                "start_time": 85.6136364,
                "end_time": 85.7818182,
                "pitch": 74,
                "velocity": 80,
                "duration": 0.1681818,
                "tempo": 120.0
            },
            {
                "start_time": 85.85,
                "end_time": 86.0204545,
                "pitch": 77,
                "velocity": 80,
                "duration": 0.1704545,
                "tempo": 120.0
            },
            {
                "start_time": 86.1204545,
                "end_time": 86.1545455,
                "pitch": 79,
                "velocity": 80,
                "duration": 0.0340909,
                "tempo": 120.0
            }
        ]
    }
}