{
    "mood": "angry",
    "instruments": {
        "Lead 2 (sawtooth)": [
            {
                "start_time": 0.0,
                "end_time": 0.5863636,
                "pitch": 63,
                "velocity": 101,
                "duration": 0.5863636,
                "tempo": 120.0
            },
            {
                "start_time": 0.6181818,
                "end_time": 2.3863636,
                "pitch": 66,
                "velocity": 101,
                "duration": 1.7681818,
                "tempo": 120.0
            },
            {
                "start_time": 3.2159091,
                "end_time": 3.7840909,
                "pitch": 66,
                "velocity": 101,
                "duration": 0.5681818,
                "tempo": 120.0
            },
            {
                "start_time": 3.8159091,
                "end_time": 5.5886364,
                "pitch": 65,
                "velocity": 101,
                "duration": 1.7727273,
                "tempo": 120.0
            },
            {
                "start_time": 6.425,
                "end_time": 6.9931818,
                "pitch": 65,
                "velocity": 101,
                "duration": 0.5681818,
                "tempo": 120.0
            },
            {
                "start_time": 7.0272727,
                "end_time": 8.8,
                "pitch": 64,
                "velocity": 101,
                "duration": 1.7727273,
                "tempo": 120.0
            },
            {
                "start_time": 9.6409091,
                "end_time": 10.2068182,
                "pitch": 61,
                "velocity": 101,
                "duration": 0.5659091,
                "tempo": 120.0
            },
            {
                "start_time": 10.2409091,
                "end_time": 12.0181818,
                "pitch": 63,
                "velocity": 101,
                "duration": 1.7772727,
                "tempo": 120.0
            }
        ],
        "Acoustic Bass": [
            {
                "start_time": 0.0,
                "end_time": 0.2,
                "pitch": 44,
                "velocity": 80,
                "duration": 0.2,
                "tempo": 120.0
            },
            {
                "start_time": 0.2159091,
                "end_time": 0.3840909,
                "pitch": 44,
                "velocity": 80,
                "duration": 0.1681818,
                "tempo": 120.0
            },
            {
                "start_time": 1.2181818,
                "end_time": 1.3886364,
                "pitch": 44,
                "velocity": 80,
                "duration": 0.1704545,
                "tempo": 120.0
            },
            {
                "start_time": 1.4204545,
                "end_time": 1.5840909,
                "pitch": 44,
                "velocity": 80,
                "duration": 0.1636364,
                "tempo": 120.0
            },
            {
                "start_time": 3.2159091,
                "end_time": 3.3840909,
                "pitch": 44,
                "velocity": 80,
                "duration": 0.1681818,
                "tempo": 120.0
            },
            {
                "start_time": 3.4159091,
                "end_time": 3.5840909,
                "pitch": 44,
                "velocity": 80,
                "duration": 0.1681818,
                "tempo": 120.0
            },
            {
                "start_time": 4.4159091,
                "end_time": 4.5840909,
                "pitch": 44,
                "velocity": 80,
                "duration": 0.1681818,
                "tempo": 120.0
            },
            {
                "start_time": 4.6181818,
                "end_time": 4.7840909,
                "pitch": 44,
                "velocity": 80,
                "duration": 0.1659091,
                "tempo": 120.0
            },
            {
                "start_time": 6.425,
                "end_time": 6.5909091,
                "pitch": 44,
                "velocity": 80,
                "duration": 0.1659091,
                "tempo": 120.0
            },
            {
                "start_time": 6.625,
                "end_time": 6.7931818,
                "pitch": 44,
                "velocity": 80,
                "duration": 0.1681818,
                "tempo": 120.0
            },
            {
                "start_time": 7.6295455,
                "end_time": 7.7977273,
                "pitch": 44,
                "velocity": 80,
                "duration": 0.1681818,
                "tempo": 120.0
            },
            {
                "start_time": 7.8295455,
                "end_time": 7.9977273,
                "pitch": 44,
                "velocity": 80,
                "duration": 0.1681818,
                "tempo": 120.0
            },
            {
                "start_time": 9.6409091,
                "end_time": 9.8068182,
                "pitch": 44,
                "velocity": 80,
                "duration": 0.1659091,
                "tempo": 120.0
            },
            {
                "start_time": 9.8409091,
                "end_time": 10.0068182,
                "pitch": 44,
                "velocity": 80,
                "duration": 0.1659091,
                "tempo": 120.0
            },
            {
                "start_time": 10.8454545,
                "end_time": 11.0136364,
                "pitch": 44,
                "velocity": 80,
                "duration": 0.1681818,
                "tempo": 120.0
            },
            {
                "start_time": 11.0454545,
                "end_time": 11.2136364,
                "pitch": 44,
                "velocity": 80,
                "duration": 0.1681818,
                "tempo": 120.0
            }
        ],
        "Oboe": [
            {
                "start_time": 0.0,
                "end_time": 0.5863636,
                "pitch": 63,
                "velocity": 64,
                "duration": 0.5863636,
                "tempo": 120.0
            },
            {
                "start_time": 0.6181818,
                "end_time": 2.3863636,
                "pitch": 63,
                "velocity": 64,
                "duration": 1.7681818,
                "tempo": 120.0
            },
            {
                "start_time": 3.2159091,
                "end_time": 3.7840909,
                "pitch": 63,
                "velocity": 64,
                "duration": 0.5681818,
                "tempo": 120.0
            },
            {
                "start_time": 3.8159091,
                "end_time": 5.5886364,
                "pitch": 63,
                "velocity": 64,
                "duration": 1.7727273,
                "tempo": 120.0
            },
            {
                "start_time": 6.425,
                "end_time": 6.9931818,
                "pitch": 63,
                "velocity": 64,
                "duration": 0.5681818,
                "tempo": 120.0
            },
            {
                "start_time": 7.0272727,
                "end_time": 8.8,
                "pitch": 63,
                "velocity": 64,
                "duration": 1.7727273,
                "tempo": 120.0
            },
            {
                "start_time": 9.6409091,
                "end_time": 10.2068182,
                "pitch": 63,
                "velocity": 64,
                "duration": 0.5659091,
                "tempo": 120.0
            },
            {
                "start_time": 10.2409091,
                "end_time": 12.0181818,
                "pitch": 63,
                "velocity": 64,
                "duration": 1.7772727,
                "tempo": 120.0
            }
        ],
        "Trumpet": [
            {
                "start_time": 0.0,
                "end_time": 0.1340909,
                "pitch": 76,
                "velocity": 51,
                "duration": 0.1340909,
                "tempo": 120.0
            },
            {
                "start_time": 0.15,
                "end_time": 0.7159091,
                "pitch": 63,
                "velocity": 51,
                "duration": 0.5659091,
                "tempo": 120.0
            },
            {
                "start_time": 0.75,
                "end_time": 2.5181818,
                "pitch": 66,
                "velocity": 51,
                "duration": 1.7681818,
                "tempo": 120.0
            },
            {
                "start_time": 3.35,
                "end_time": 3.9159091,
                "pitch": 66,
                "velocity": 51,
                "duration": 0.5659091,
                "tempo": 120.0
            },
            {
                "start_time": 3.95,
                "end_time": 5.7227273,
                "pitch": 65,
                "velocity": 51,
                "duration": 1.7727273,
                "tempo": 120.0
            },
            {
                "start_time": 6.5590909,
                "end_time": 7.1295455,
                "pitch": 65,
                "velocity": 51,
                "duration": 0.5704545,
                "tempo": 120.0
            },
            {
                "start_time": 7.1613636,
                "end_time": 8.9340909,
                "pitch": 64,
                "velocity": 51,
                "duration": 1.7727273,
                "tempo": 120.0
            },
            {
                "start_time": 9.775,
                "end_time": 10.3409091,
                "pitch": 61,
                "velocity": 51,
                "duration": 0.5659091,
                "tempo": 120.0
            },
            {
                "start_time": 10.375,
                "end_time": 12.1522727,
                "pitch": 63,
                "velocity": 51,
                "duration": 1.7772727,
                "tempo": 120.0
            }
        ]
    }
}