{
    "mood": "angry",
    "instruments": {
        "Lead 2 (sawtooth)": [
            {
                "start_time": 0.0,
                "end_time": 0.0545455,
                "pitch": 76,
                "velocity": 16,
                "duration": 0.0545455,
                "tempo": 120.0
            },
            {
                "start_time": 0.1,
                "end_time": 0.1772727,
                "pitch": 76,
                "velocity": 16,
                "duration": 0.0772727,
                "tempo": 120.0
            },
            {
                "start_time": 0.1886364,
                "end_time": 0.2659091,
                "pitch": 76,
                "velocity": 20,
                "duration": 0.0772727,
                "tempo": 120.0
            },
            {
                "start_time": 0.2886364,
                "end_time": 0.3659091,
                "pitch": 76,
                "velocity": 25,
                "duration": 0.0772727,
                "tempo": 120.0
            },
            {
                "start_time": 0.3840909,
                "end_time": 0.5022727,
                "pitch": 76,
                "velocity": 32,
                "duration": 0.1181818,
                "tempo": 120.0
            },
            {
                "start_time": 0.5681818,
                "end_time": 0.6863636,
                "pitch": 76,
                "velocity": 40,
                "duration": 0.1181818,
                "tempo": 120.0
            },
            {
                "start_time": 0.7022727,
                "end_time": 0.8204545,
                "pitch": 76,
                "velocity": 51,
                "duration": 0.1181818,
                "tempo": 120.0
            },
            {
                "start_time": 0.8545455,
                "end_time": 0.9727273,
                "pitch": 76,
                "velocity": 64,
                "duration": 0.1181818,
                "tempo": 120.0
            },
            {
                "start_time": 0.9886364,
                "end_time": 2.1795455,
                "pitch": 76,
                "velocity": 80,
                "duration": 1.1909091,
                "tempo": 120.0
            },
            {
                "start_time": 2.1954545,
                "end_time": 7.0022727,
                "pitch": 76,
                "velocity": 101,
                "duration": 4.8068182,
                "tempo": 120.0
            },
            {
                "start_time": 7.0204545,
                "end_time": 9.4090909,
                "pitch": 76,
                "velocity": 101,
                "duration": 2.3886364,
                "tempo": 120.0
            },
            {
                "start_time": 9.425,
                "end_time": 9.5431818,
                "pitch": 76,
                "velocity": 101,
                "duration": 0.1181818,
                "tempo": 120.0
            },
            {
                "start_time": 9.6113636,
                "end_time": 9.7295455,
                "pitch": 76,
                "velocity": 16,
                "duration": 0.1181818,
                "tempo": 120.0
            },
            {
                "start_time": 9.7454545,
                "end_time": 9.8636364,
                "pitch": 76,
                "velocity": 20,
                "duration": 0.1181818,
                "tempo": 120.0
            },
            {
                "start_time": 9.8977273,
                "end_time": 10.0159091,
                "pitch": 76,
                "velocity": 25,
                "duration": 0.1181818,
                "tempo": 120.0
            },
            {
                "start_time": 10.0318182,
                "end_time": 10.1477273,
                "pitch": 76,
                "velocity": 32,
                "duration": 0.1159091,
                "tempo": 120.0
            },
            {
                "start_time": 10.2159091,
                "end_time": 10.3318182,
                "pitch": 76,
                "velocity": 40,
                "duration": 0.1159091,
                "tempo": 120.0
            },
            {
                "start_time": 10.3477273,
                "end_time": 10.4659091,
                "pitch": 76,
                "velocity": 51,
                "duration": 0.1181818,
                "tempo": 120.0
            },
            {
                "start_time": 10.4977273,
                "end_time": 10.6159091,
                "pitch": 76,
                "velocity": 64,
                "duration": 0.1181818,
                "tempo": 120.0
            },
            {
                "start_time": 10.6318182,
                "end_time": 11.8159091,
                "pitch": 76,
                "velocity": 80,
                "duration": 1.1840909,
                "tempo": 120.0
            },
            {
                "start_time": 11.8318182,
                "end_time": 16.6272727,
                "pitch": 76,
                "velocity": 101,
                "duration": 4.7954545,
                "tempo": 120.0
            },
            {
                "start_time": 16.6431818,
                "end_time": 19.0454545,
                "pitch": 76,
                "velocity": 101,
                "duration": 2.4022727,
                "tempo": 120.0
            }
        ],
        "Acoustic Bass": [
            {
                "start_time": 0.0,
                "end_time": 0.2659091,
                "pitch": 33,
                "velocity": 51,
                "duration": 0.2659091,
                "tempo": 120.0
            },
            {
                "start_time": 0.2886364,
                "end_time": 0.6863636,
                "pitch": 40,
                "velocity": 51,
                "duration": 0.3977273,
                "tempo": 120.0
            },
            {
                "start_time": 0.7022727,
                "end_time": 1.2886364,
                "pitch": 45,
                "velocity": 51,
                "duration": 0.5863636,
                "tempo": 120.0
            },
            {
                "start_time": 1.3068182,
                "end_time": 1.5727273,
                "pitch": 47,
                "velocity": 51,
                "duration": 0.2659091,
                "tempo": 120.0
            },
            {
                "start_time": 1.5886364,
                "end_time": 1.7068182,
                "pitch": 52,
                "velocity": 51,
                "duration": 0.1181818,
                "tempo": 120.0
            },
            {
                "start_time": 1.775,
                "end_time": 1.8931818,
                "pitch": 52,
                "velocity": 51,
                "duration": 0.1181818,
                "tempo": 120.0
            },
            {
                "start_time": 1.9090909,
                "end_time": 2.1795455,
                "pitch": 47,
                "velocity": 51,
                "duration": 0.2704545,
                "tempo": 120.0
            },
            {
                "start_time": 2.1954545,
                "end_time": 2.6340909,
                "pitch": 33,
                "velocity": 51,
                "duration": 0.4386364,
                "tempo": 120.0
            },
            {
                "start_time": 2.6659091,
                "end_time": 3.1045455,
                "pitch": 40,
                "velocity": 51,
                "duration": 0.4386364,
                "tempo": 120.0
            },
            {
                "start_time": 3.1204545,
                "end_time": 3.7068182,
                "pitch": 45,
                "velocity": 51,
                "duration": 0.5863636,
                "tempo": 120.0
            },
            {
                "start_time": 4.6136364,
                "end_time": 5.0477273,
                "pitch": 33,
                "velocity": 51,
                "duration": 0.4340909,
                "tempo": 120.0
            },
            {
                "start_time": 5.0795455,
                "end_time": 5.5136364,
                "pitch": 40,
                "velocity": 51,
                "duration": 0.4340909,
                "tempo": 120.0
            },
            {
                "start_time": 5.5295455,
                "end_time": 6.1159091,
                "pitch": 45,
                "velocity": 51,
                "duration": 0.5863636,
                "tempo": 120.0
            },
            {
                "start_time": 6.1340909,
                "end_time": 6.4022727,
                "pitch": 47,
                "velocity": 51,
                "duration": 0.2681818,
                "tempo": 120.0
            },
            {
                "start_time": 6.4204545,
                "end_time": 6.5363636,
                "pitch": 52,
                "velocity": 51,
                "duration": 0.1159091,
                "tempo": 120.0
            },
            {
                "start_time": 6.6022727,
                "end_time": 6.7204545,
                "pitch": 52,
                "velocity": 51,
                "duration": 0.1181818,
                "tempo": 120.0
            },
            {
                "start_time": 6.7363636,
                "end_time": 7.0022727,
                "pitch": 47,
                "velocity": 51,
                "duration": 0.2659091,
                "tempo": 120.0
            },
            {
                "start_time": 7.0204545,
                "end_time": 7.4568182,
                "pitch": 33,
                "velocity": 51,
                "duration": 0.4363636,
                "tempo": 120.0
            },
            {
                "start_time": 7.4909091,
                "end_time": 7.925,
                "pitch": 40,
                "velocity": 51,
                "duration": 0.4340909,
                "tempo": 120.0
            },
            {
                "start_time": 7.9431818,
                "end_time": 8.525,
                "pitch": 45,
                "velocity": 51,
                "duration": 0.5818182,
                "tempo": 120.0
            },
            {
                "start_time": 9.425,
                "end_time": 9.8636364,
                "pitch": 38,
                "velocity": 51,
                "duration": 0.4386364,
                "tempo": 120.0
            },
            {
                "start_time": 9.8977273,
                "end_time": 10.3318182,
                "pitch": 45,
                "velocity": 51,
                "duration": 0.4340909,
                "tempo": 120.0
            },
            {
                "start_time": 10.3477273,
                "end_time": 10.9318182,
                "pitch": 50,
                "velocity": 51,
                "duration": 0.5840909,
                "tempo": 120.0
            },
            {
                "start_time": 10.9477273,
                "end_time": 11.2159091,
                "pitch": 53,
                "velocity": 51,
                "duration": 0.2681818,
                "tempo": 120.0
            },
            {
                "start_time": 11.2318182,
                "end_time": 11.3477273,
                "pitch": 56,
                "velocity": 51,
                "duration": 0.1159091,
                "tempo": 120.0
            },
            {
                "start_time": 11.4159091,
                "end_time": 11.5318182,
                "pitch": 55,
                "velocity": 51,
                "duration": 0.1159091,
                "tempo": 120.0
            },
            {
                "start_time": 11.5477273,
                "end_time": 11.8159091,
                "pitch": 53,
                "velocity": 51,
                "duration": 0.2681818,
                "tempo": 120.0
            },
            {
                "start_time": 11.8318182,
                "end_time": 12.2659091,
                "pitch": 38,
                "velocity": 51,
                "duration": 0.4340909,
                "tempo": 120.0
            },
            {
                "start_time": 12.2977273,
                "end_time": 12.7340909,
                "pitch": 45,
                "velocity": 51,
                "duration": 0.4363636,
                "tempo": 120.0
            },
            {
                "start_time": 12.7522727,
                "end_time": 13.3386364,
                "pitch": 50,
                "velocity": 51,
                "duration": 0.5863636,
                "tempo": 120.0
            },
            {
                "start_time": 14.2386364,
                "end_time": 14.6704545,
                "pitch": 38,
                "velocity": 51,
                "duration": 0.4318182,
                "tempo": 120.0
            },
            {
                "start_time": 14.7045455,
                "end_time": 15.1386364,
                "pitch": 45,
                "velocity": 51,
                "duration": 0.4340909,
                "tempo": 120.0
            },
            {
                "start_time": 15.1545455,
                "end_time": 15.7409091,
                "pitch": 50,
                "velocity": 51,
                "duration": 0.5863636,
                "tempo": 120.0
            },
            {
                "start_time": 15.7568182,
                "end_time": 16.0272727,
                "pitch": 53,
                "velocity": 51,
                "duration": 0.2704545,
                "tempo": 120.0
            },
            {
                "start_time": 16.0431818,
                "end_time": 16.1613636,
                "pitch": 56,
                "velocity": 51,
                "duration": 0.1181818,
                "tempo": 120.0
            },
            {
                "start_time": 16.2272727,
                "end_time": 16.3431818,
                "pitch": 55,
                "velocity": 51,
                "duration": 0.1159091,
                "tempo": 120.0
            },
            {
                "start_time": 16.3613636,
                "end_time": 16.6272727,
                "pitch": 53,
                "velocity": 51,
                "duration": 0.2659091,
                "tempo": 120.0
            },
            {
                "start_time": 16.6431818,
                "end_time": 17.0818182,
                "pitch": 38,
                "velocity": 51,
                "duration": 0.4386364,
                "tempo": 120.0
            },
            {
                "start_time": 17.1159091,
                "end_time": 17.5522727,
                "pitch": 45,
                "velocity": 51,
                "duration": 0.4363636,
                "tempo": 120.0
            },
            {
                "start_time": 17.5704545,
                "end_time": 18.1568182,
                "pitch": 50,
                "velocity": 51,
                "duration": 0.5863636,
                "tempo": 120.0
            }
        ],
        "Flute": [
            {
                "start_time": 0.0,
                "end_time": 0.0545455,
                "pitch": 81,
                "velocity": 51,
                "duration": 0.0545455,
                "tempo": 120.0
            },
            {
                "start_time": 0.1,
                "end_time": 0.1772727,
                "pitch": 83,
                "velocity": 51,
                "duration": 0.0772727,
                "tempo": 120.0
            },
            {
                "start_time": 0.1886364,
                "end_time": 0.2659091,
                "pitch": 88,
                "velocity": 51,
                "duration": 0.0772727,
                "tempo": 120.0
            },
            {
                "start_time": 0.2886364,
                "end_time": 0.3659091,
                "pitch": 81,
                "velocity": 51,
                "duration": 0.0772727,
                "tempo": 120.0
            },
            {
                "start_time": 0.3840909,
                "end_time": 0.5022727,
                "pitch": 83,
                "velocity": 51,
                "duration": 0.1181818,
                "tempo": 120.0
            },
            {
                "start_time": 0.5681818,
                "end_time": 0.6863636,
                "pitch": 88,
                "velocity": 51,
                "duration": 0.1181818,
                "tempo": 120.0
            },
            {
                "start_time": 0.7022727,
                "end_time": 0.8204545,
                "pitch": 81,
                "velocity": 51,
                "duration": 0.1181818,
                "tempo": 120.0
            },
            {
                "start_time": 0.8545455,
                "end_time": 0.9727273,
                "pitch": 83,
                "velocity": 51,
                "duration": 0.1181818,
                "tempo": 120.0
            },
            {
                "start_time": 0.9886364,
                "end_time": 1.1068182,
                "pitch": 88,
                "velocity": 51,
                "duration": 0.1181818,
                "tempo": 120.0
            },
            {
                "start_time": 1.1727273,
                "end_time": 1.2886364,
                "pitch": 81,
                "velocity": 51,
                "duration": 0.1159091,
                "tempo": 120.0
            },
            {
                "start_time": 1.3068182,
                "end_time": 1.4227273,
                "pitch": 83,
                "velocity": 51,
                "duration": 0.1159091,
                "tempo": 120.0
            },
            {
                "start_time": 1.4568182,
                "end_time": 1.5727273,
                "pitch": 88,
                "velocity": 51,
                "duration": 0.1159091,
                "tempo": 120.0
            },
            {
                "start_time": 1.5886364,
                "end_time": 1.7068182,
                "pitch": 81,
                "velocity": 51,
                "duration": 0.1181818,
                "tempo": 120.0
            },
            {
                "start_time": 1.775,
                "end_time": 1.8931818,
                "pitch": 83,
                "velocity": 51,
                "duration": 0.1181818,
                "tempo": 120.0
            },
            {
                "start_time": 1.9090909,
                "end_time": 2.0272727,
                "pitch": 88,
                "velocity": 51,
                "duration": 0.1181818,
                "tempo": 120.0
            },
            {
                "start_time": 2.0613636,
                "end_time": 2.1795455,
                "pitch": 83,
                "velocity": 51,
                "duration": 0.1181818,
                "tempo": 120.0
            },
            {
                "start_time": 2.1954545,
                "end_time": 2.3136364,
                "pitch": 81,
                "velocity": 51,
                "duration": 0.1181818,
                "tempo": 120.0
            },
            {
                "start_time": 2.3818182,
                "end_time": 2.4977273,
                "pitch": 83,
                "velocity": 51,
                "duration": 0.1159091,
                "tempo": 120.0
            },
            {
                "start_time": 2.5159091,
                "end_time": 2.6340909,
                "pitch": 88,
                "velocity": 51,
                "duration": 0.1181818,
                "tempo": 120.0
            },
            {
                "start_time": 2.6659091,
                "end_time": 2.7840909,
                "pitch": 81,
                "velocity": 51,
                "duration": 0.1181818,
                "tempo": 120.0
            },
            {
                "start_time": 2.8022727,
                "end_time": 2.9204545,
                "pitch": 83,
                "velocity": 51,
                "duration": 0.1181818,
                "tempo": 120.0
            },
            {
                "start_time": 2.9863636,
                "end_time": 3.1045455,
                "pitch": 88,
                "velocity": 51,
                "duration": 0.1181818,
                "tempo": 120.0
            },
            {
                "start_time": 3.1204545,
                "end_time": 3.2386364,
                "pitch": 81,
                "velocity": 51,
                "duration": 0.1181818,
                "tempo": 120.0
            },
            {
                "start_time": 3.2727273,
                "end_time": 3.3909091,
                "pitch": 83,
                "velocity": 51,
                "duration": 0.1181818,
                "tempo": 120.0
            },
            {
                "start_time": 3.4068182,
                "end_time": 3.525,
                "pitch": 88,
                "velocity": 51,
                "duration": 0.1181818,
                "tempo": 120.0
            },
            {
                "start_time": 3.5909091,
                "end_time": 3.7068182,
                "pitch": 81,
                "velocity": 51,
                "duration": 0.1159091,
                "tempo": 120.0
            },
            {
                "start_time": 3.725,
                "end_time": 3.8409091,
                "pitch": 83,
                "velocity": 51,
                "duration": 0.1159091,
                "tempo": 120.0
            },
            {
                "start_time": 3.875,
                "end_time": 3.9909091,
                "pitch": 88,
                "velocity": 51,
                "duration": 0.1159091,
                "tempo": 120.0
            },
            {
                "start_time": 4.0068182,
                "end_time": 4.125,
                "pitch": 81,
                "velocity": 51,
                "duration": 0.1181818,
                "tempo": 120.0
            },
            {
                "start_time": 4.1931818,
                "end_time": 4.3113636,
                "pitch": 83,
                "velocity": 51,
                "duration": 0.1181818,
                "tempo": 120.0
            },
            {
                "start_time": 4.3272727,
                "end_time": 4.4454545,
                "pitch": 88,
                "velocity": 51,
                "duration": 0.1181818,
                "tempo": 120.0
            },
            {
                "start_time": 4.4795455,
                "end_time": 4.5977273,
                "pitch": 83,
                "velocity": 51,
                "duration": 0.1181818,
                "tempo": 120.0
            },
            {
                "start_time": 4.6136364,
                "end_time": 4.7295455,
                "pitch": 81,
                "velocity": 51,
                "duration": 0.1159091,
                "tempo": 120.0
            },
            {
                "start_time": 4.7977273,
                "end_time": 4.9136364,
                "pitch": 83,
                "velocity": 51,
                "duration": 0.1159091,
                "tempo": 120.0
            },
            {
                "start_time": 4.9295455,
                "end_time": 5.0477273,
                "pitch": 88,
                "velocity": 51,
                "duration": 0.1181818,
                "tempo": 120.0
            },
            {
                "start_time": 5.0795455,
                "end_time": 5.1977273,
                "pitch": 81,
                "velocity": 51,
                "duration": 0.1181818,
                "tempo": 120.0
            },
            {
                "start_time": 5.2136364,
                "end_time": 5.3295455,
                "pitch": 83,
                "velocity": 51,
                "duration": 0.1159091,
                "tempo": 120.0
            },
            {
                "start_time": 5.3977273,
                "end_time": 5.5136364,
                "pitch": 88,
                "velocity": 51,
                "duration": 0.1159091,
                "tempo": 120.0
            },
            {
                "start_time": 5.5295455,
                "end_time": 5.6477273,
                "pitch": 81,
                "velocity": 51,
                "duration": 0.1181818,
                "tempo": 120.0
            },
            {
                "start_time": 5.6795455,
                "end_time": 5.7977273,
                "pitch": 83,
                "velocity": 51,
                "duration": 0.1181818,
                "tempo": 120.0
            },
            {
                "start_time": 5.8136364,
                "end_time": 5.9318182,
                "pitch": 88,
                "velocity": 51,
                "duration": 0.1181818,
                "tempo": 120.0
            },
            {
                "start_time": 6.0,
                "end_time": 6.1159091,
                "pitch": 81,
                "velocity": 51,
                "duration": 0.1159091,
                "tempo": 120.0
            },
            {
                "start_time": 6.1340909,
                "end_time": 6.2522727,
                "pitch": 83,
                "velocity": 51,
                "duration": 0.1181818,
                "tempo": 120.0
            },
            {
                "start_time": 6.2840909,
                "end_time": 6.4022727,
                "pitch": 88,
                "velocity": 51,
                "duration": 0.1181818,
                "tempo": 120.0
            },
            {
                "start_time": 6.4204545,
                "end_time": 6.5363636,
                "pitch": 81,
                "velocity": 51,
                "duration": 0.1159091,
                "tempo": 120.0
            },
            {
                "start_time": 6.6022727,
                "end_time": 6.7204545,
                "pitch": 83,
                "velocity": 51,
                "duration": 0.1181818,
                "tempo": 120.0
            },
            {
                "start_time": 6.7363636,
                "end_time": 6.8522727,
                "pitch": 88,
                "velocity": 51,
                "duration": 0.1159091,
                "tempo": 120.0
            },
            {
                "start_time": 6.8863636,
                "end_time": 7.0022727,
                "pitch": 83,
                "velocity": 51,
                "duration": 0.1159091,
                "tempo": 120.0
            },
            {
                "start_time": 7.0204545,
                "end_time": 7.1386364,
                "pitch": 81,
                "velocity": 51,
                "duration": 0.1181818,
                "tempo": 120.0
            },
            {
                "start_time": 7.2045455,
                "end_time": 7.3227273,
                "pitch": 83,
                "velocity": 51,
                "duration": 0.1181818,
                "tempo": 120.0
            },
            {
                "start_time": 7.3386364,
                "end_time": 7.4568182,
                "pitch": 88,
                "velocity": 51,
                "duration": 0.1181818,
                "tempo": 120.0
            },
            {
                "start_time": 7.4909091,
                "end_time": 7.6090909,
                "pitch": 81,
                "velocity": 51,
                "duration": 0.1181818,
                "tempo": 120.0
            },
            {
                "start_time": 7.625,
                "end_time": 7.7431818,
                "pitch": 83,
                "velocity": 51,
                "duration": 0.1181818,
                "tempo": 120.0
            },
            {
                "start_time": 7.8090909,
                "end_time": 7.925,
                "pitch": 88,
                "velocity": 51,
                "duration": 0.1159091,
                "tempo": 120.0
            },
            {
                "start_time": 7.9431818,
                "end_time": 8.0590909,
                "pitch": 81,
                "velocity": 51,
                "duration": 0.1159091,
                "tempo": 120.0
            },
            {
                "start_time": 8.0931818,
                "end_time": 8.2090909,
                "pitch": 83,
                "velocity": 51,
                "duration": 0.1159091,
                "tempo": 120.0
            },
            {
                "start_time": 8.225,
                "end_time": 8.3431818,
                "pitch": 88,
                "velocity": 51,
                "duration": 0.1181818,
                "tempo": 120.0
            },
            {
                "start_time": 8.4090909,
                "end_time": 8.525,
                "pitch": 81,
                "velocity": 51,
                "duration": 0.1159091,
                "tempo": 120.0
            },
            {
                "start_time": 8.5431818,
                "end_time": 8.6590909,
                "pitch": 83,
                "velocity": 51,
                "duration": 0.1159091,
                "tempo": 120.0
            },
            {
                "start_time": 8.6931818,
                "end_time": 8.8090909,
                "pitch": 88,
                "velocity": 51,
                "duration": 0.1159091,
                "tempo": 120.0
            },
            {
                "start_time": 8.825,
                "end_time": 8.9431818,
                "pitch": 81,
                "velocity": 51,
                "duration": 0.1181818,
                "tempo": 120.0
            },
            {
                "start_time": 9.0090909,
                "end_time": 9.125,
                "pitch": 83,
                "velocity": 51,
                "duration": 0.1159091,
                "tempo": 120.0
            },
            {
                "start_time": 9.1431818,
                "end_time": 9.2590909,
                "pitch": 88,
                "velocity": 51,
                "duration": 0.1159091,
                "tempo": 120.0
            },
            {
                "start_time": 9.2931818,
                "end_time": 9.4090909,
                "pitch": 83,
                "velocity": 51,
                "duration": 0.1159091,
                "tempo": 120.0
            },
            {
                "start_time": 9.425,
                "end_time": 9.5431818,
                "pitch": 81,
                "velocity": 51,
                "duration": 0.1181818,
                "tempo": 120.0
            },
            {
                "start_time": 9.6113636,
                "end_time": 9.7295455,
                "pitch": 86,
                "velocity": 51,
                "duration": 0.1181818,
                "tempo": 120.0
            },
            {
                "start_time": 9.7454545,
                "end_time": 9.8636364,
                "pitch": 88,
                "velocity": 51,
                "duration": 0.1181818,
                "tempo": 120.0
            },
            {
                "start_time": 9.8977273,
                "end_time": 10.0159091,
                "pitch": 81,
                "velocity": 51,
                "duration": 0.1181818,
                "tempo": 120.0
            },
            {
                "start_time": 10.0318182,
                "end_time": 10.1477273,
                "pitch": 86,
                "velocity": 51,
                "duration": 0.1159091,
                "tempo": 120.0
            },
            {
                "start_time": 10.2159091,
                "end_time": 10.3318182,
                "pitch": 88,
                "velocity": 51,
                "duration": 0.1159091,
                "tempo": 120.0
            },
            {
                "start_time": 10.3477273,
                "end_time": 10.4659091,
                "pitch": 81,
                "velocity": 51,
                "duration": 0.1181818,
                "tempo": 120.0
            },
            {
                "start_time": 10.4977273,
                "end_time": 10.6159091,
                "pitch": 86,
                "velocity": 51,
                "duration": 0.1181818,
                "tempo": 120.0
            },
            {
                "start_time": 10.6318182,
                "end_time": 10.7477273,
                "pitch": 88,
                "velocity": 51,
                "duration": 0.1159091,
                "tempo": 120.0
            },
            {
                "start_time": 10.8159091,
                "end_time": 10.9318182,
                "pitch": 81,
                "velocity": 51,
                "duration": 0.1159091,
                "tempo": 120.0
            },
            {
                "start_time": 10.9477273,
                "end_time": 11.0659091,
                "pitch": 86,
                "velocity": 51,
                "duration": 0.1181818,
                "tempo": 120.0
            },
            {
                "start_time": 11.0977273,
                "end_time": 11.2159091,
                "pitch": 88,
                "velocity": 51,
                "duration": 0.1181818,
                "tempo": 120.0
            },
            {
                "start_time": 11.2318182,
                "end_time": 11.3477273,
                "pitch": 81,
                "velocity": 51,
                "duration": 0.1159091,
                "tempo": 120.0
            },
            {
                "start_time": 11.4159091,
                "end_time": 11.5318182,
                "pitch": 86,
                "velocity": 51,
                "duration": 0.1159091,
                "tempo": 120.0
            },
            {
                "start_time": 11.5477273,
                "end_time": 11.6659091,
                "pitch": 88,
                "velocity": 51,
                "duration": 0.1181818,
                "tempo": 120.0
            },
            {
                "start_time": 11.6977273,
                "end_time": 11.8159091,
                "pitch": 86,
                "velocity": 51,
                "duration": 0.1181818,
                "tempo": 120.0
            },
            {
                "start_time": 11.8318182,
                "end_time": 11.9477273,
                "pitch": 81,
                "velocity": 51,
                "duration": 0.1159091,
                "tempo": 120.0
            },
            {
                "start_time": 12.0159091,
                "end_time": 12.1318182,
                "pitch": 86,
                "velocity": 51,
                "duration": 0.1159091,
                "tempo": 120.0
            },
            {
                "start_time": 12.1477273,
                "end_time": 12.2659091,
                "pitch": 88,
                "velocity": 51,
                "duration": 0.1181818,
                "tempo": 120.0
            },
            {
                "start_time": 12.2977273,
                "end_time": 12.4159091,
                "pitch": 81,
                "velocity": 51,
                "duration": 0.1181818,
                "tempo": 120.0
            },
            {
                "start_time": 12.4318182,
                "end_time": 12.55,
                "pitch": 86,
                "velocity": 51,
                "duration": 0.1181818,
                "tempo": 120.0
            },
            {
                "start_time": 12.6181818,
                "end_time": 12.7340909,
                "pitch": 88,
                "velocity": 51,
                "duration": 0.1159091,
                "tempo": 120.0
            },
            {
                "start_time": 12.7522727,
                "end_time": 12.8704545,
                "pitch": 81,
                "velocity": 51,
                "duration": 0.1181818,
                "tempo": 120.0
            },
            {
                "start_time": 12.9022727,
                "end_time": 13.0204545,
                "pitch": 86,
                "velocity": 51,
                "duration": 0.1181818,
                "tempo": 120.0
            },
            {
                "start_time": 13.0386364,
                "end_time": 13.1545455,
                "pitch": 88,
                "velocity": 51,
                "duration": 0.1159091,
                "tempo": 120.0
            },
            {
                "start_time": 13.2204545,
                "end_time": 13.3386364,
                "pitch": 81,
                "velocity": 51,
                "duration": 0.1181818,
                "tempo": 120.0
            },
            {
                "start_time": 13.3545455,
                "end_time": 13.4704545,
                "pitch": 86,
                "velocity": 51,
                "duration": 0.1159091,
                "tempo": 120.0
            },
            {
                "start_time": 13.5045455,
                "end_time": 13.6204545,
                "pitch": 88,
                "velocity": 51,
                "duration": 0.1159091,
                "tempo": 120.0
            },
            {
                "start_time": 13.6386364,
                "end_time": 13.7545455,
                "pitch": 81,
                "velocity": 51,
                "duration": 0.1159091,
                "tempo": 120.0
            },
            {
                "start_time": 13.8204545,
                "end_time": 13.9386364,
                "pitch": 86,
                "velocity": 51,
                "duration": 0.1181818,
                "tempo": 120.0
            },
            {
                "start_time": 13.9545455,
                "end_time": 14.0704545,
                "pitch": 88,
                "velocity": 51,
                "duration": 0.1159091,
                "tempo": 120.0
            },
            {
                "start_time": 14.1045455,
                "end_time": 14.2204545,
                "pitch": 86,
                "velocity": 51,
                "duration": 0.1159091,
                "tempo": 120.0
            },
            {
                "start_time": 14.2386364,
                "end_time": 14.3545455,
                "pitch": 81,
                "velocity": 51,
                "duration": 0.1159091,
                "tempo": 120.0
            },
            {
                "start_time": 14.4204545,
                "end_time": 14.5386364,
                "pitch": 86,
                "velocity": 51,
                "duration": 0.1181818,
                "tempo": 120.0
            },
            {
                "start_time": 14.5545455,
                "end_time": 14.6704545,
                "pitch": 88,
                "velocity": 51,
                "duration": 0.1159091,
                "tempo": 120.0
            },
            {
                "start_time": 14.7045455,
                "end_time": 14.8204545,
                "pitch": 81,
                "velocity": 51,
                "duration": 0.1159091,
                "tempo": 120.0
            },
            {
                "start_time": 14.8386364,
                "end_time": 14.9545455,
                "pitch": 86,
                "velocity": 51,
                "duration": 0.1159091,
                "tempo": 120.0
            },
            {
                "start_time": 15.0204545,
                "end_time": 15.1386364,
                "pitch": 88,
                "velocity": 51,
                "duration": 0.1181818,
                "tempo": 120.0
            },
            {
                "start_time": 15.1545455,
                "end_time": 15.2704545,
                "pitch": 81,
                "velocity": 51,
                "duration": 0.1159091,
                "tempo": 120.0
            },
            {
                "start_time": 15.3045455,
                "end_time": 15.4204545,
                "pitch": 86,
                "velocity": 51,
                "duration": 0.1159091,
                "tempo": 120.0
            },
            {
                "start_time": 15.4386364,
                "end_time": 15.5568182,
                "pitch": 88,
                "velocity": 51,
                "duration": 0.1181818,
                "tempo": 120.0
            },
            {
                "start_time": 15.6227273,
                "end_time": 15.7409091,
                "pitch": 81,
                "velocity": 51,
                "duration": 0.1181818,
                "tempo": 120.0
            },
            {
                "start_time": 15.7568182,
                "end_time": 15.875,
                "pitch": 86,
                "velocity": 51,
                "duration": 0.1181818,
                "tempo": 120.0
            },
            {
                "start_time": 15.9090909,
                "end_time": 16.0272727,
                "pitch": 88,
                "velocity": 51,
                "duration": 0.1181818,
                "tempo": 120.0
            },
            {
                "start_time": 16.0431818,
                "end_time": 16.1613636,
                "pitch": 81,
                "velocity": 51,
                "duration": 0.1181818,
                "tempo": 120.0
            },
            {
                "start_time": 16.2272727,
                "end_time": 16.3431818,
                "pitch": 86,
                "velocity": 51,
                "duration": 0.1159091,
                "tempo": 120.0
            },
            {
                "start_time": 16.3613636,
                "end_time": 16.4772727,
                "pitch": 88,
                "velocity": 51,
                "duration": 0.1159091,
                "tempo": 120.0
            },
            {
                "start_time": 16.5113636,
                "end_time": 16.6272727,
                "pitch": 86,
                "velocity": 51,
                "duration": 0.1159091,
                "tempo": 120.0
            },
            {
                "start_time": 16.6431818,
                "end_time": 16.7613636,
                "pitch": 81,
                "velocity": 51,
                "duration": 0.1181818,
                "tempo": 120.0
            },
            {
                "start_time": 16.8295455,
                "end_time": 16.9477273,
                "pitch": 86,
                "velocity": 51,
                "duration": 0.1181818,
                "tempo": 120.0
            },
            {
                "start_time": 16.9636364,
                "end_time": 17.0818182,
                "pitch": 88,
                "velocity": 51,
                "duration": 0.1181818,
                "tempo": 120.0
            },
            {
                "start_time": 17.1159091,
                "end_time": 17.2340909,
                "pitch": 81,
                "velocity": 51,
                "duration": 0.1181818,
                "tempo": 120.0
            },
            {
                "start_time": 17.25,
                "end_time": 17.3681818,
                "pitch": 86,
                "velocity": 51,
                "duration": 0.1181818,
                "tempo": 120.0
            },
            {
                "start_time": 17.4363636,
                "end_time": 17.5522727,
                "pitch": 88,
                "velocity": 51,
                "duration": 0.1159091,
                "tempo": 120.0
            },
            {
                "start_time": 17.5704545,
                "end_time": 17.6886364,
                "pitch": 81,
                "velocity": 51,
                "duration": 0.1181818,
                "tempo": 120.0
            },
            {
                "start_time": 17.7204545,
                "end_time": 17.8386364,
                "pitch": 86,
                "velocity": 51,
                "duration": 0.1181818,
                "tempo": 120.0
            },
            {
                "start_time": 17.8568182,
                "end_time": 17.9727273,
                "pitch": 88,
                "velocity": 51,
                "duration": 0.1159091,
                "tempo": 120.0
            },
            {
                "start_time": 18.0386364,
                "end_time": 18.1568182,
                "pitch": 81,
                "velocity": 51,
                "duration": 0.1181818,
                "tempo": 120.0
            },
            {
                "start_time": 18.1727273,
                "end_time": 18.2886364,
                "pitch": 86,
                "velocity": 51,
                "duration": 0.1159091,
                "tempo": 120.0
            },
            {
                "start_time": 18.3227273,
                "end_time": 18.4386364,
                "pitch": 88,
                "velocity": 51,
                "duration": 0.1159091,
                "tempo": 120.0
            },
            {
                "start_time": 18.4568182,
                "end_time": 18.575,
                "pitch": 81,
                "velocity": 51,
                "duration": 0.1181818,
                "tempo": 120.0
            },
            {
                "start_time": 18.6409091,
                "end_time": 18.7590909,
                "pitch": 86,
                "velocity": 51,
                "duration": 0.1181818,
                "tempo": 120.0
            },
            {
                "start_time": 18.775,
                "end_time": 18.8931818,
                "pitch": 88,
                "velocity": 51,
                "duration": 0.1181818,
                "tempo": 120.0
            },
            {
                "start_time": 18.9272727,
                "end_time": 19.0454545,
                "pitch": 86,
                "velocity": 51,
                "duration": 0.1181818,
                "tempo": 120.0
            }
        ],
        "Acoustic Grand Piano": [
            {
                "start_time": 0.0,
                "end_time": 0.0227273,
                "pitch": 76,
                "velocity": 32,
                "duration": 0.0227273,
                "tempo": 120.0
            },
            {
                "start_time": 0.0227273,
                "end_time": 0.3113636,
                "pitch": 45,
                "velocity": 32,
                "duration": 0.2886364,
                "tempo": 120.0
            },
            {
                "start_time": 0.3227273,
                "end_time": 0.7022727,
                "pitch": 52,
                "velocity": 32,
                "duration": 0.3795455,
                "tempo": 120.0
            },
            {
                "start_time": 0.7704545,
                "end_time": 1.3068182,
                "pitch": 57,
                "velocity": 32,
                "duration": 0.5363636,
                "tempo": 120.0
            },
            {
                "start_time": 1.3727273,
                "end_time": 1.6227273,
                "pitch": 59,
                "velocity": 32,
                "duration": 0.25,
                "tempo": 120.0
            },
            {
                "start_time": 1.6568182,
                "end_time": 1.775,
                "pitch": 64,
                "velocity": 32,
                "duration": 0.1181818,
                "tempo": 120.0
            },
            {
                "start_time": 1.7909091,
                "end_time": 1.9090909,
                "pitch": 64,
                "velocity": 32,
                "duration": 0.1181818,
                "tempo": 120.0
            },
            {
                "start_time": 1.9772727,
                "end_time": 2.2295455,
                "pitch": 59,
                "velocity": 32,
                "duration": 0.2522727,
                "tempo": 120.0
            },
            {
                "start_time": 2.2636364,
                "end_time": 2.7,
                "pitch": 45,
                "velocity": 32,
                "duration": 0.4363636,
                "tempo": 120.0
            },
            {
                "start_time": 2.7181818,
                "end_time": 3.1204545,
                "pitch": 52,
                "velocity": 32,
                "duration": 0.4022727,
                "tempo": 120.0
            },
            {
                "start_time": 3.1886364,
                "end_time": 3.725,
                "pitch": 57,
                "velocity": 32,
                "duration": 0.5363636,
                "tempo": 120.0
            },
            {
                "start_time": 4.6795455,
                "end_time": 5.1136364,
                "pitch": 45,
                "velocity": 32,
                "duration": 0.4340909,
                "tempo": 120.0
            },
            {
                "start_time": 5.1295455,
                "end_time": 5.5295455,
                "pitch": 52,
                "velocity": 32,
                "duration": 0.4,
                "tempo": 120.0
            },
            {
                "start_time": 5.5977273,
                "end_time": 6.1340909,
                "pitch": 57,
                "velocity": 32,
                "duration": 0.5363636,
                "tempo": 120.0
            },
            {
                "start_time": 6.2,
                "end_time": 6.4522727,
                "pitch": 59,
                "velocity": 32,
                "duration": 0.2522727,
                "tempo": 120.0
            },
            {
                "start_time": 6.4863636,
                "end_time": 6.6022727,
                "pitch": 64,
                "velocity": 32,
                "duration": 0.1159091,
                "tempo": 120.0
            },
            {
                "start_time": 6.6204545,
                "end_time": 6.7363636,
                "pitch": 64,
                "velocity": 32,
                "duration": 0.1159091,
                "tempo": 120.0
            },
            {
                "start_time": 6.8022727,
                "end_time": 7.0545455,
                "pitch": 59,
                "velocity": 32,
                "duration": 0.2522727,
                "tempo": 120.0
            },
            {
                "start_time": 7.0863636,
                "end_time": 7.525,
                "pitch": 45,
                "velocity": 32,
                "duration": 0.4386364,
                "tempo": 120.0
            },
            {
                "start_time": 7.5409091,
                "end_time": 7.9431818,
                "pitch": 52,
                "velocity": 32,
                "duration": 0.4022727,
                "tempo": 120.0
            },
            {
                "start_time": 8.0090909,
                "end_time": 8.5431818,
                "pitch": 57,
                "velocity": 32,
                "duration": 0.5340909,
                "tempo": 120.0
            },
            {
                "start_time": 9.4931818,
                "end_time": 9.9318182,
                "pitch": 50,
                "velocity": 32,
                "duration": 0.4386364,
                "tempo": 120.0
            },
            {
                "start_time": 9.9477273,
                "end_time": 10.3477273,
                "pitch": 57,
                "velocity": 32,
                "duration": 0.4,
                "tempo": 120.0
            },
            {
                "start_time": 10.4159091,
                "end_time": 10.9477273,
                "pitch": 62,
                "velocity": 32,
                "duration": 0.5318182,
                "tempo": 120.0
            },
            {
                "start_time": 11.0159091,
                "end_time": 11.2659091,
                "pitch": 65,
                "velocity": 32,
                "duration": 0.25,
                "tempo": 120.0
            },
            {
                "start_time": 11.2977273,
                "end_time": 11.4159091,
                "pitch": 68,
                "velocity": 32,
                "duration": 0.1181818,
                "tempo": 120.0
            },
            {
                "start_time": 11.4318182,
                "end_time": 11.5477273,
                "pitch": 67,
                "velocity": 32,
                "duration": 0.1159091,
                "tempo": 120.0
            },
            {
                "start_time": 11.6159091,
                "end_time": 11.8659091,
                "pitch": 65,
                "velocity": 32,
                "duration": 0.25,
                "tempo": 120.0
            },
            {
                "start_time": 11.8977273,
                "end_time": 12.3318182,
                "pitch": 50,
                "velocity": 32,
                "duration": 0.4340909,
                "tempo": 120.0
            },
            {
                "start_time": 12.3477273,
                "end_time": 12.7522727,
                "pitch": 57,
                "velocity": 32,
                "duration": 0.4045455,
                "tempo": 120.0
            },
            {
                "start_time": 12.8181818,
                "end_time": 13.3545455,
                "pitch": 62,
                "velocity": 32,
                "duration": 0.5363636,
                "tempo": 120.0
            },
            {
                "start_time": 14.3045455,
                "end_time": 14.7386364,
                "pitch": 50,
                "velocity": 32,
                "duration": 0.4340909,
                "tempo": 120.0
            },
            {
                "start_time": 14.7545455,
                "end_time": 15.1545455,
                "pitch": 57,
                "velocity": 32,
                "duration": 0.4,
                "tempo": 120.0
            },
            {
                "start_time": 15.2204545,
                "end_time": 15.7568182,
                "pitch": 62,
                "velocity": 32,
                "duration": 0.5363636,
                "tempo": 120.0
            },
            {
                "start_time": 15.825,
                "end_time": 16.0772727,
                "pitch": 65,
                "velocity": 32,
                "duration": 0.2522727,
                "tempo": 120.0
            },
            {
                "start_time": 16.1113636,
                "end_time": 16.2272727,
                "pitch": 68,
                "velocity": 32,
                "duration": 0.1159091,
                "tempo": 120.0
            },
            {
                "start_time": 16.2431818,
                "end_time": 16.3613636,
                "pitch": 67,
                "velocity": 32,
                "duration": 0.1181818,
                "tempo": 120.0
            },
            {
                "start_time": 16.4272727,
                "end_time": 16.6772727,
                "pitch": 65,
                "velocity": 32,
                "duration": 0.25,
                "tempo": 120.0
            },
            {
                "start_time": 16.7113636,
                "end_time": 17.15,
                "pitch": 50,
                "velocity": 32,
                "duration": 0.4386364,
                "tempo": 120.0
            },
            {
                "start_time": 17.1659091,
                "end_time": 17.5704545,
                "pitch": 57,
                "velocity": 32,
                "duration": 0.4045455,
                "tempo": 120.0
            },
            {
                "start_time": 17.6363636,
                "end_time": 18.1727273,
                "pitch": 62,
                "velocity": 32,
                "duration": 0.5363636,
                "tempo": 120.0
            }
        ]
    }
}