{
    "mood": "angry",
    "instruments": {
        "Vibraphone": [
            {
                "start_time": 0.0,
                "end_time": 0.0159091,
                "pitch": 60,
                "velocity": 32,
                "duration": 0.0159091,
                "tempo": 120.0
            },
            {
                "start_time": 0.0318182,
                "end_time": 0.1090909,
                "pitch": 52,
                "velocity": 32,
                "duration": 0.0772727,
                "tempo": 120.0
            },
            {
                "start_time": 0.125,
                "end_time": 0.2022727,
                "pitch": 52,
                "velocity": 51,
                "duration": 0.0772727,
                "tempo": 120.0
            },
            {
                "start_time": 0.2204545,
                "end_time": 0.8613636,
                "pitch": 67,
                "velocity": 51,
                "duration": 0.6409091,
                "tempo": 120.0
            },
            {
                "start_time": 0.8772727,
                "end_time": 0.9636364,
                "pitch": 52,
                "velocity": 51,
                "duration": 0.0863636,
                "tempo": 120.0
            },
            {
                "start_time": 0.9795455,
                "end_time": 1.0795455,
                "pitch": 52,
                "velocity": 51,
                "duration": 0.1,
                "tempo": 120.0
            },
            {
                "start_time": 1.0954545,
                "end_time": 1.6977273,
                "pitch": 69,
                "velocity": 51,
                "duration": 0.6022727,
                "tempo": 120.0
            },
            {
                "start_time": 1.7136364,
                "end_time": 1.7977273,
                "pitch": 52,
                "velocity": 51,
                "duration": 0.0840909,
                "tempo": 120.0
            },
            {
                "start_time": 1.8136364,
                "end_time": 1.9159091,
                "pitch": 52,
                "velocity": 51,
                "duration": 0.1022727,
                "tempo": 120.0
            },
            {
                "start_time": 1.9318182,
                "end_time": 2.6704545,
                "pitch": 67,
                "velocity": 51,
                "duration": 0.7386364,
                "tempo": 120.0
            },
            {
                "start_time": 2.6863636,
                "end_time": 2.8681818,
                "pitch": 66,
                "velocity": 51,
                "duration": 0.1818182,
                "tempo": 120.0
            },
            {
                "start_time": 2.8863636,
                "end_time": 3.0863636,
                "pitch": 66,
                "velocity": 51,
                "duration": 0.2,
                "tempo": 120.0
            },
            {
                "start_time": 3.1022727,
                "end_time": 3.2022727,
                "pitch": 66,
                "velocity": 51,
                "duration": 0.1,
                "tempo": 120.0
            },
            {
                "start_time": 3.2181818,
                "end_time": 3.3931818,
                "pitch": 66,
                "velocity": 51,
                "duration": 0.175,
                "tempo": 120.0
            },
            {
                "start_time": 3.4090909,
                "end_time": 3.5045455,
                "pitch": 52,
                "velocity": 51,
                "duration": 0.0954545,
                "tempo": 120.0
            },
            {
                "start_time": 3.5204545,
                "end_time": 3.6,
                "pitch": 52,
                "velocity": 51,
                "duration": 0.0795455,
                "tempo": 120.0
            },
            {
                "start_time": 3.6181818,
                "end_time": 4.2636364,
                "pitch": 67,
                "velocity": 51,
                "duration": 0.6454545,
                "tempo": 120.0
            },
            {
                "start_time": 4.2795455,
                "end_time": 4.3636364,
                "pitch": 52,
                "velocity": 51,
                "duration": 0.0840909,
                "tempo": 120.0
            },
            {
                "start_time": 4.3795455,
                "end_time": 4.4636364,
                "pitch": 52,
                "velocity": 51,
                "duration": 0.0840909,
                "tempo": 120.0
            },
            {
                "start_time": 4.4795455,
                "end_time": 5.1068182,
                "pitch": 69,
                "velocity": 51,
                "duration": 0.6272727,
                "tempo": 120.0
            },
            {
                "start_time": 5.1227273,
                "end_time": 5.2068182,
                "pitch": 52,
                "velocity": 51,
                "duration": 0.0840909,
                "tempo": 120.0
            },
            {
                "start_time": 5.225,
                "end_time": 5.325,
                "pitch": 52,
                "velocity": 51,
                "duration": 0.1,
                "tempo": 120.0
            },
            {
                "start_time": 5.3409091,
                "end_time": 6.0522727,
                "pitch": 67,
                "velocity": 51,
                "duration": 0.7113636,
                "tempo": 120.0
            },
            {
                "start_time": 6.0681818,
                "end_time": 6.2727273,
                "pitch": 72,
                "velocity": 51,
                "duration": 0.2045455,
                "tempo": 120.0
            },
            {
                "start_time": 6.2886364,
                "end_time": 6.4931818,
                "pitch": 72,
                "velocity": 51,
                "duration": 0.2045455,
                "tempo": 120.0
            },
            {
                "start_time": 6.5113636,
                "end_time": 6.5954545,
                "pitch": 72,
                "velocity": 51,
                "duration": 0.0840909,
                "tempo": 120.0
            },
            {
                "start_time": 6.6136364,
                "end_time": 6.8090909,
                "pitch": 72,
                "velocity": 51,
                "duration": 0.1954545,
                "tempo": 120.0
            },
            {
                "start_time": 6.825,
                "end_time": 6.925,
                "pitch": 52,
                "velocity": 51,
                "duration": 0.1,
                "tempo": 120.0
            },
            {
                "start_time": 6.9409091,
                "end_time": 7.0227273,
                "pitch": 52,
                "velocity": 51,
                "duration": 0.0818182,
                "tempo": 120.0
            },
            {
                "start_time": 7.0386364,
                "end_time": 7.6477273,
                "pitch": 67,
                "velocity": 51,
                "duration": 0.6090909,
                "tempo": 120.0
            },
            {
                "start_time": 7.6636364,
                "end_time": 7.7590909,
                "pitch": 52,
                "velocity": 51,
                "duration": 0.0954545,
                "tempo": 120.0
            },
            {
                "start_time": 7.775,
                "end_time": 7.8545455,
                "pitch": 52,
                "velocity": 51,
                "duration": 0.0795455,
                "tempo": 120.0
            },
            {
                "start_time": 7.8727273,
                "end_time": 8.5159091,
                "pitch": 69,
                "velocity": 51,
                "duration": 0.6431818,
                "tempo": 120.0
            },
            {
                "start_time": 8.5340909,
                "end_time": 8.6181818,
                "pitch": 52,
                "velocity": 51,
                "duration": 0.0840909,
                "tempo": 120.0
            },
            {
                "start_time": 8.6340909,
                "end_time": 8.7181818,
                "pitch": 52,
                "velocity": 51,
                "duration": 0.0840909,
                "tempo": 120.0
            },
            {
                "start_time": 8.7340909,
                "end_time": 9.4613636,
                "pitch": 67,
                "velocity": 51,
                "duration": 0.7272727,
                "tempo": 120.0
            },
            {
                "start_time": 9.4772727,
                "end_time": 9.6772727,
                "pitch": 66,
                "velocity": 51,
                "duration": 0.2,
                "tempo": 120.0
            },
            {
                "start_time": 9.6931818,
                "end_time": 9.8886364,
                "pitch": 66,
                "velocity": 51,
                "duration": 0.1954545,
                "tempo": 120.0
            },
            {
                "start_time": 9.9045455,
                "end_time": 9.9886364,
                "pitch": 66,
                "velocity": 51,
                "duration": 0.0840909,
                "tempo": 120.0
            },
            {
                "start_time": 10.0045455,
                "end_time": 10.2045455,
                "pitch": 66,
                "velocity": 51,
                "duration": 0.2,
                "tempo": 120.0
            },
            {
                "start_time": 10.2227273,
                "end_time": 10.3068182,
                "pitch": 52,
                "velocity": 51,
                "duration": 0.0840909,
                "tempo": 120.0
            },
            {
                "start_time": 10.3227273,
                "end_time": 10.4227273,
                "pitch": 52,
                "velocity": 51,
                "duration": 0.1,
                "tempo": 120.0
            },
            {
                "start_time": 10.4386364,
                "end_time": 11.0545455,
                "pitch": 67,
                "velocity": 51,
                "duration": 0.6159091,
                "tempo": 120.0
            },
            {
                "start_time": 11.0704545,
                "end_time": 11.1681818,
                "pitch": 52,
                "velocity": 51,
                "duration": 0.0977273,
                "tempo": 120.0
            },
            {
                "start_time": 11.1840909,
                "end_time": 11.2681818,
                "pitch": 52,
                "velocity": 51,
                "duration": 0.0840909,
                "tempo": 120.0
            },
            {
                "start_time": 11.2840909,
                "end_time": 11.8977273,
                "pitch": 69,
                "velocity": 51,
                "duration": 0.6136364,
                "tempo": 120.0
            },
            {
                "start_time": 11.9136364,
                "end_time": 12.0136364,
                "pitch": 52,
                "velocity": 51,
                "duration": 0.1,
                "tempo": 120.0
            },
            {
                "start_time": 12.0295455,
                "end_time": 12.1113636,
                "pitch": 52,
                "velocity": 51,
                "duration": 0.0818182,
                "tempo": 120.0
            },
            {
                "start_time": 12.1272727,
                "end_time": 12.7681818,
                "pitch": 66,
                "velocity": 51,
                "duration": 0.6409091,
                "tempo": 120.0
            },
            {
                "start_time": 12.7863636,
                "end_time": 12.8204545,
                "pitch": 67,
                "velocity": 51,
                "duration": 0.0340909,
                "tempo": 120.0
            },
            {
                "start_time": 13.1,
                "end_time": 13.2909091,
                "pitch": 67,
                "velocity": 51,
                "duration": 0.1909091,
                "tempo": 120.0
            },
            {
                "start_time": 13.3068182,
                "end_time": 13.3886364,
                "pitch": 67,
                "velocity": 51,
                "duration": 0.0818182,
                "tempo": 120.0
            },
            {
                "start_time": 13.4045455,
                "end_time": 13.6113636,
                "pitch": 67,
                "velocity": 51,
                "duration": 0.2068182,
                "tempo": 120.0
            }
        ],
        "French Horn": [
            {
                "start_time": 13.6954545,
                "end_time": 13.7818182,
                "pitch": 52,
                "velocity": 51,
                "duration": 0.0863636,
                "tempo": 120.0
            },
            {
                "start_time": 13.7977273,
                "end_time": 13.8931818,
                "pitch": 69,
                "velocity": 51,
                "duration": 0.0954545,
                "tempo": 120.0
            },
            {
                "start_time": 13.9090909,
                "end_time": 14.1022727,
                "pitch": 67,
                "velocity": 51,
                "duration": 0.1931818,
                "tempo": 120.0
            },
            {
                "start_time": 14.1181818,
                "end_time": 14.2954545,
                "pitch": 66,
                "velocity": 51,
                "duration": 0.1772727,
                "tempo": 120.0
            },
            {
                "start_time": 14.3136364,
                "end_time": 14.4136364,
                "pitch": 66,
                "velocity": 51,
                "duration": 0.1,
                "tempo": 120.0
            },
            {
                "start_time": 14.4295455,
                "end_time": 14.5136364,
                "pitch": 67,
                "velocity": 51,
                "duration": 0.0840909,
                "tempo": 120.0
            },
            {
                "start_time": 14.5318182,
                "end_time": 14.7340909,
                "pitch": 66,
                "velocity": 51,
                "duration": 0.2022727,
                "tempo": 120.0
            },
            {
                "start_time": 14.75,
                "end_time": 14.9568182,
                "pitch": 64,
                "velocity": 51,
                "duration": 0.2068182,
                "tempo": 120.0
            },
            {
                "start_time": 14.9727273,
                "end_time": 15.0590909,
                "pitch": 64,
                "velocity": 51,
                "duration": 0.0863636,
                "tempo": 120.0
            },
            {
                "start_time": 15.075,
                "end_time": 15.4727273,
                "pitch": 64,
                "velocity": 51,
                "duration": 0.3977273,
                "tempo": 120.0
            },
            {
                "start_time": 15.4886364,
                "end_time": 15.575,
                "pitch": 69,
                "velocity": 51,
                "duration": 0.0863636,
                "tempo": 120.0
            },
            {
                "start_time": 15.5909091,
                "end_time": 15.7977273,
                "pitch": 67,
                "velocity": 51,
                "duration": 0.2068182,
                "tempo": 120.0
            },
            {
                "start_time": 15.8136364,
                "end_time": 16.0113636,
                "pitch": 66,
                "velocity": 51,
                "duration": 0.1977273,
                "tempo": 120.0
            },
            {
                "start_time": 16.0272727,
                "end_time": 16.2181818,
                "pitch": 66,
                "velocity": 51,
                "duration": 0.1909091,
                "tempo": 120.0
            },
            {
                "start_time": 16.2340909,
                "end_time": 16.4159091,
                "pitch": 64,
                "velocity": 51,
                "duration": 0.1818182,
                "tempo": 120.0
            },
            {
                "start_time": 16.4340909,
                "end_time": 16.6386364,
                "pitch": 64,
                "velocity": 51,
                "duration": 0.2045455,
                "tempo": 120.0
            },
            {
                "start_time": 16.6545455,
                "end_time": 16.7590909,
                "pitch": 64,
                "velocity": 51,
                "duration": 0.1045455,
                "tempo": 120.0
            },
            {
                "start_time": 16.775,
                "end_time": 16.9431818,
                "pitch": 64,
                "velocity": 51,
                "duration": 0.1681818,
                "tempo": 120.0
            },
            {
                "start_time": 17.1931818,
                "end_time": 17.2909091,
                "pitch": 69,
                "velocity": 51,
                "duration": 0.0977273,
                "tempo": 120.0
            },
            {
                "start_time": 17.3090909,
                "end_time": 17.4886364,
                "pitch": 67,
                "velocity": 51,
                "duration": 0.1795455,
                "tempo": 120.0
            },
            {
                "start_time": 17.5045455,
                "end_time": 17.7022727,
                "pitch": 66,
                "velocity": 51,
                "duration": 0.1977273,
                "tempo": 120.0
            },
            {
                "start_time": 17.7204545,
                "end_time": 17.8204545,
                "pitch": 66,
                "velocity": 51,
                "duration": 0.1,
                "tempo": 120.0
            },
            {
                "start_time": 17.8363636,
                "end_time": 17.9204545,
                "pitch": 67,
                "velocity": 51,
                "duration": 0.0840909,
                "tempo": 120.0
            },
            {
                "start_time": 17.9363636,
                "end_time": 18.1363636,
                "pitch": 66,
                "velocity": 51,
                "duration": 0.2,
                "tempo": 120.0
            },
            {
                "start_time": 18.1522727,
                "end_time": 18.35,
                "pitch": 64,
                "velocity": 51,
                "duration": 0.1977273,
                "tempo": 120.0
            },
            {
                "start_time": 18.3659091,
                "end_time": 18.4477273,
                "pitch": 64,
                "velocity": 51,
                "duration": 0.0818182,
                "tempo": 120.0
            },
            {
                "start_time": 18.4636364,
                "end_time": 18.6318182,
                "pitch": 64,
                "velocity": 51,
                "duration": 0.1681818,
                "tempo": 120.0
            },
            {
                "start_time": 18.8977273,
                "end_time": 18.9818182,
                "pitch": 69,
                "velocity": 51,
                "duration": 0.0840909,
                "tempo": 120.0
            },
            {
                "start_time": 19.0,
                "end_time": 19.2,
                "pitch": 67,
                "velocity": 51,
                "duration": 0.2,
                "tempo": 120.0
            },
            {
                "start_time": 19.2159091,
                "end_time": 19.4159091,
                "pitch": 66,
                "velocity": 51,
                "duration": 0.2,
                "tempo": 120.0
            },
            {
                "start_time": 19.4318182,
                "end_time": 19.6113636,
                "pitch": 66,
                "velocity": 51,
                "duration": 0.1795455,
                "tempo": 120.0
            },
            {
                "start_time": 19.6272727,
                "end_time": 19.8272727,
                "pitch": 72,
                "velocity": 51,
                "duration": 0.2,
                "tempo": 120.0
            },
            {
                "start_time": 19.8431818,
                "end_time": 20.0431818,
                "pitch": 72,
                "velocity": 51,
                "duration": 0.2,
                "tempo": 120.0
            },
            {
                "start_time": 20.0613636,
                "end_time": 20.1454545,
                "pitch": 72,
                "velocity": 51,
                "duration": 0.0840909,
                "tempo": 120.0
            },
            {
                "start_time": 20.1613636,
                "end_time": 20.2931818,
                "pitch": 72,
                "velocity": 51,
                "duration": 0.1318182,
                "tempo": 120.0
            },
            {
                "start_time": 20.5863636,
                "end_time": 20.6704545,
                "pitch": 69,
                "velocity": 51,
                "duration": 0.0840909,
                "tempo": 120.0
            },
            {
                "start_time": 20.6886364,
                "end_time": 20.8886364,
                "pitch": 67,
                "velocity": 51,
                "duration": 0.2,
                "tempo": 120.0
            },
            {
                "start_time": 20.9045455,
                "end_time": 21.1068182,
                "pitch": 66,
                "velocity": 51,
                "duration": 0.2022727,
                "tempo": 120.0
            },
            {
                "start_time": 21.125,
                "end_time": 21.2113636,
                "pitch": 66,
                "velocity": 51,
                "duration": 0.0863636,
                "tempo": 120.0
            },
            {
                "start_time": 21.2272727,
                "end_time": 21.3295455,
                "pitch": 67,
                "velocity": 51,
                "duration": 0.1022727,
                "tempo": 120.0
            },
            {
                "start_time": 21.3477273,
                "end_time": 21.5454545,
                "pitch": 66,
                "velocity": 51,
                "duration": 0.1977273,
                "tempo": 120.0
            },
            {
                "start_time": 21.5613636,
                "end_time": 21.7363636,
                "pitch": 64,
                "velocity": 51,
                "duration": 0.175,
                "tempo": 120.0
            },
            {
                "start_time": 21.7522727,
                "end_time": 21.8477273,
                "pitch": 64,
                "velocity": 51,
                "duration": 0.0954545,
                "tempo": 120.0
            },
            {
                "start_time": 21.8636364,
                "end_time": 22.275,
                "pitch": 64,
                "velocity": 51,
                "duration": 0.4113636,
                "tempo": 120.0
            },
            {
                "start_time": 22.2909091,
                "end_time": 22.3863636,
                "pitch": 69,
                "velocity": 51,
                "duration": 0.0954545,
                "tempo": 120.0
            },
            {
                "start_time": 22.4022727,
                "end_time": 22.5931818,
                "pitch": 67,
                "velocity": 51,
                "duration": 0.1909091,
                "tempo": 120.0
            },
            {
                "start_time": 22.6090909,
                "end_time": 22.7909091,
                "pitch": 66,
                "velocity": 51,
                "duration": 0.1818182,
                "tempo": 120.0
            },
            {
                "start_time": 22.8068182,
                "end_time": 23.0136364,
                "pitch": 66,
                "velocity": 51,
                "duration": 0.2068182,
                "tempo": 120.0
            },
            {
                "start_time": 23.0295455,
                "end_time": 23.2340909,
                "pitch": 64,
                "velocity": 51,
                "duration": 0.2045455,
                "tempo": 120.0
            },
            {
                "start_time": 23.25,
                "end_time": 23.45,
                "pitch": 64,
                "velocity": 51,
                "duration": 0.2,
                "tempo": 120.0
            },
            {
                "start_time": 23.4681818,
                "end_time": 23.5522727,
                "pitch": 64,
                "velocity": 51,
                "duration": 0.0840909,
                "tempo": 120.0
            },
            {
                "start_time": 23.5681818,
                "end_time": 23.7477273,
                "pitch": 64,
                "velocity": 51,
                "duration": 0.1795455,
                "tempo": 120.0
            },
            {
                "start_time": 23.9931818,
                "end_time": 24.0772727,
                "pitch": 69,
                "velocity": 51,
                "duration": 0.0840909,
                "tempo": 120.0
            },
            {
                "start_time": 24.0931818,
                "end_time": 24.2954545,
                "pitch": 67,
                "velocity": 51,
                "duration": 0.2022727,
                "tempo": 120.0
            },
            {
                "start_time": 24.3113636,
                "end_time": 24.5113636,
                "pitch": 66,
                "velocity": 51,
                "duration": 0.2,
                "tempo": 120.0
            },
            {
                "start_time": 24.5272727,
                "end_time": 24.6090909,
                "pitch": 66,
                "velocity": 51,
                "duration": 0.0818182,
                "tempo": 120.0
            },
            {
                "start_time": 24.625,
                "end_time": 24.7227273,
                "pitch": 67,
                "velocity": 51,
                "duration": 0.0977273,
                "tempo": 120.0
            },
            {
                "start_time": 24.7409091,
                "end_time": 24.9227273,
                "pitch": 66,
                "velocity": 51,
                "duration": 0.1818182,
                "tempo": 120.0
            },
            {
                "start_time": 24.9386364,
                "end_time": 25.1386364,
                "pitch": 64,
                "velocity": 51,
                "duration": 0.2,
                "tempo": 120.0
            },
            {
                "start_time": 25.1568182,
                "end_time": 25.2568182,
                "pitch": 64,
                "velocity": 51,
                "duration": 0.1,
                "tempo": 120.0
            },
            {
                "start_time": 25.2727273,
                "end_time": 25.425,
                "pitch": 64,
                "velocity": 51,
                "duration": 0.1522727,
                "tempo": 120.0
            },
            {
                "start_time": 25.6909091,
                "end_time": 25.7909091,
                "pitch": 69,
                "velocity": 51,
                "duration": 0.1,
                "tempo": 120.0
            },
            {
                "start_time": 25.8068182,
                "end_time": 25.9863636,
                "pitch": 67,
                "velocity": 51,
                "duration": 0.1795455,
                "tempo": 120.0
            },
            {
                "start_time": 26.0022727,
                "end_time": 26.2022727,
                "pitch": 66,
                "velocity": 51,
                "duration": 0.2,
                "tempo": 120.0
            },
            {
                "start_time": 26.2181818,
                "end_time": 26.4181818,
                "pitch": 66,
                "velocity": 51,
                "duration": 0.2,
                "tempo": 120.0
            },
            {
                "start_time": 26.5363636,
                "end_time": 26.8477273,
                "pitch": 69,
                "velocity": 51,
                "duration": 0.3113636,
                "tempo": 120.0
            },
            {
                "start_time": 26.8636364,
                "end_time": 27.0454545,
                "pitch": 69,
                "velocity": 51,
                "duration": 0.1818182,
                "tempo": 120.0
            },
            {
                "start_time": 27.0613636,
                "end_time": 27.1636364,
                "pitch": 69,
                "velocity": 51,
                "duration": 0.1022727,
                "tempo": 120.0
            },
            {
                "start_time": 27.1795455,
                "end_time": 28.1113636,
                "pitch": 71,
                "velocity": 51,
                "duration": 0.9318182,
                "tempo": 120.0
            },
            {
                "start_time": 28.1272727,
                "end_time": 28.3227273,
                "pitch": 71,
                "velocity": 51,
                "duration": 0.1954545,
                "tempo": 120.0
            },
            {
                "start_time": 28.3409091,
                "end_time": 28.5454545,
                "pitch": 71,
                "velocity": 51,
                "duration": 0.2045455,
                "tempo": 120.0
            },
            {
                "start_time": 28.5636364,
                "end_time": 28.6477273,
                "pitch": 71,
                "velocity": 51,
                "duration": 0.0840909,
                "tempo": 120.0
            },
            {
                "start_time": 28.6659091,
                "end_time": 28.8795455,
                "pitch": 71,
                "velocity": 51,
                "duration": 0.2136364,
                "tempo": 120.0
            }
        ],
        "Electric Guitar (clean)": [
            {
                "start_time": 0.0,
                "end_time": 0.0772727,
                "pitch": 40,
                "velocity": 32,
                "duration": 0.0772727,
                "tempo": 120.0
            },
            {
                "start_time": 0.0931818,
                "end_time": 0.1704545,
                "pitch": 40,
                "velocity": 32,
                "duration": 0.0772727,
                "tempo": 120.0
            },
            {
                "start_time": 0.1863636,
                "end_time": 0.3863636,
                "pitch": 40,
                "velocity": 32,
                "duration": 0.2,
                "tempo": 120.0
            },
            {
                "start_time": 0.4045455,
                "end_time": 0.4863636,
                "pitch": 40,
                "velocity": 32,
                "duration": 0.0818182,
                "tempo": 120.0
            },
            {
                "start_time": 0.5045455,
                "end_time": 0.7068182,
                "pitch": 40,
                "velocity": 32,
                "duration": 0.2022727,
                "tempo": 120.0
            },
            {
                "start_time": 0.7227273,
                "end_time": 0.8272727,
                "pitch": 40,
                "velocity": 32,
                "duration": 0.1045455,
                "tempo": 120.0
            },
            {
                "start_time": 0.8431818,
                "end_time": 0.9295455,
                "pitch": 40,
                "velocity": 32,
                "duration": 0.0863636,
                "tempo": 120.0
            },
            {
                "start_time": 0.9454545,
                "end_time": 1.0318182,
                "pitch": 40,
                "velocity": 32,
                "duration": 0.0863636,
                "tempo": 120.0
            },
            {
                "start_time": 1.0477273,
                "end_time": 1.2409091,
                "pitch": 40,
                "velocity": 32,
                "duration": 0.1931818,
                "tempo": 120.0
            },
            {
                "start_time": 1.2568182,
                "end_time": 1.3522727,
                "pitch": 40,
                "velocity": 32,
                "duration": 0.0954545,
                "tempo": 120.0
            },
            {
                "start_time": 1.3681818,
                "end_time": 1.5477273,
                "pitch": 40,
                "velocity": 32,
                "duration": 0.1795455,
                "tempo": 120.0
            },
            {
                "start_time": 1.5636364,
                "end_time": 1.6636364,
                "pitch": 40,
                "velocity": 32,
                "duration": 0.1,
                "tempo": 120.0
            },
            {
                "start_time": 1.6795455,
                "end_time": 1.7636364,
                "pitch": 40,
                "velocity": 32,
                "duration": 0.0840909,
                "tempo": 120.0
            },
            {
                "start_time": 1.7818182,
                "end_time": 1.8818182,
                "pitch": 40,
                "velocity": 32,
                "duration": 0.1,
                "tempo": 120.0
            },
            {
                "start_time": 1.8977273,
                "end_time": 2.0863636,
                "pitch": 40,
                "velocity": 32,
                "duration": 0.1886364,
                "tempo": 120.0
            },
            {
                "start_time": 2.1022727,
                "end_time": 2.2068182,
                "pitch": 40,
                "velocity": 32,
                "duration": 0.1045455,
                "tempo": 120.0
            },
            {
                "start_time": 2.2227273,
                "end_time": 2.425,
                "pitch": 40,
                "velocity": 32,
                "duration": 0.2022727,
                "tempo": 120.0
            },
            {
                "start_time": 2.4409091,
                "end_time": 2.5227273,
                "pitch": 40,
                "velocity": 32,
                "duration": 0.0818182,
                "tempo": 120.0
            },
            {
                "start_time": 2.5386364,
                "end_time": 2.6204545,
                "pitch": 40,
                "velocity": 32,
                "duration": 0.0818182,
                "tempo": 120.0
            },
            {
                "start_time": 2.6363636,
                "end_time": 2.8363636,
                "pitch": 38,
                "velocity": 32,
                "duration": 0.2,
                "tempo": 120.0
            },
            {
                "start_time": 2.8522727,
                "end_time": 3.0522727,
                "pitch": 38,
                "velocity": 32,
                "duration": 0.2,
                "tempo": 120.0
            },
            {
                "start_time": 3.0704545,
                "end_time": 3.1522727,
                "pitch": 38,
                "velocity": 32,
                "duration": 0.0818182,
                "tempo": 120.0
            },
            {
                "start_time": 3.1704545,
                "end_time": 3.3613636,
                "pitch": 38,
                "velocity": 32,
                "duration": 0.1909091,
                "tempo": 120.0
            },
            {
                "start_time": 3.3772727,
                "end_time": 3.4727273,
                "pitch": 40,
                "velocity": 32,
                "duration": 0.0954545,
                "tempo": 120.0
            },
            {
                "start_time": 3.4886364,
                "end_time": 3.5681818,
                "pitch": 40,
                "velocity": 32,
                "duration": 0.0795455,
                "tempo": 120.0
            },
            {
                "start_time": 3.5840909,
                "end_time": 3.7886364,
                "pitch": 40,
                "velocity": 32,
                "duration": 0.2045455,
                "tempo": 120.0
            },
            {
                "start_time": 3.8068182,
                "end_time": 3.8909091,
                "pitch": 40,
                "velocity": 32,
                "duration": 0.0840909,
                "tempo": 120.0
            },
            {
                "start_time": 3.9090909,
                "end_time": 4.1113636,
                "pitch": 40,
                "velocity": 32,
                "duration": 0.2022727,
                "tempo": 120.0
            },
            {
                "start_time": 4.1295455,
                "end_time": 4.2136364,
                "pitch": 40,
                "velocity": 32,
                "duration": 0.0840909,
                "tempo": 120.0
            },
            {
                "start_time": 4.2295455,
                "end_time": 4.3295455,
                "pitch": 40,
                "velocity": 32,
                "duration": 0.1,
                "tempo": 120.0
            },
            {
                "start_time": 4.3454545,
                "end_time": 4.4295455,
                "pitch": 40,
                "velocity": 32,
                "duration": 0.0840909,
                "tempo": 120.0
            },
            {
                "start_time": 4.4477273,
                "end_time": 4.6431818,
                "pitch": 40,
                "velocity": 32,
                "duration": 0.1954545,
                "tempo": 120.0
            },
            {
                "start_time": 4.6590909,
                "end_time": 4.7409091,
                "pitch": 40,
                "velocity": 32,
                "duration": 0.0818182,
                "tempo": 120.0
            },
            {
                "start_time": 4.7590909,
                "end_time": 4.9568182,
                "pitch": 40,
                "velocity": 32,
                "duration": 0.1977273,
                "tempo": 120.0
            },
            {
                "start_time": 4.9727273,
                "end_time": 5.0727273,
                "pitch": 40,
                "velocity": 32,
                "duration": 0.1,
                "tempo": 120.0
            },
            {
                "start_time": 5.0909091,
                "end_time": 5.175,
                "pitch": 40,
                "velocity": 32,
                "duration": 0.0840909,
                "tempo": 120.0
            },
            {
                "start_time": 5.1909091,
                "end_time": 5.275,
                "pitch": 40,
                "velocity": 32,
                "duration": 0.0840909,
                "tempo": 120.0
            },
            {
                "start_time": 5.2909091,
                "end_time": 5.4886364,
                "pitch": 40,
                "velocity": 32,
                "duration": 0.1977273,
                "tempo": 120.0
            },
            {
                "start_time": 5.5045455,
                "end_time": 5.6022727,
                "pitch": 40,
                "velocity": 32,
                "duration": 0.0977273,
                "tempo": 120.0
            },
            {
                "start_time": 5.6181818,
                "end_time": 5.8,
                "pitch": 40,
                "velocity": 32,
                "duration": 0.1818182,
                "tempo": 120.0
            },
            {
                "start_time": 5.8181818,
                "end_time": 5.9181818,
                "pitch": 40,
                "velocity": 32,
                "duration": 0.1,
                "tempo": 120.0
            },
            {
                "start_time": 5.9340909,
                "end_time": 6.0181818,
                "pitch": 40,
                "velocity": 32,
                "duration": 0.0840909,
                "tempo": 120.0
            },
            {
                "start_time": 6.0340909,
                "end_time": 6.2363636,
                "pitch": 38,
                "velocity": 32,
                "duration": 0.2022727,
                "tempo": 120.0
            },
            {
                "start_time": 6.2545455,
                "end_time": 6.4590909,
                "pitch": 38,
                "velocity": 32,
                "duration": 0.2045455,
                "tempo": 120.0
            },
            {
                "start_time": 6.4772727,
                "end_time": 6.5613636,
                "pitch": 38,
                "velocity": 32,
                "duration": 0.0840909,
                "tempo": 120.0
            },
            {
                "start_time": 6.5795455,
                "end_time": 6.7772727,
                "pitch": 38,
                "velocity": 32,
                "duration": 0.1977273,
                "tempo": 120.0
            },
            {
                "start_time": 6.7931818,
                "end_time": 6.875,
                "pitch": 40,
                "velocity": 32,
                "duration": 0.0818182,
                "tempo": 120.0
            },
            {
                "start_time": 6.8909091,
                "end_time": 6.9886364,
                "pitch": 40,
                "velocity": 32,
                "duration": 0.0977273,
                "tempo": 120.0
            },
            {
                "start_time": 7.0068182,
                "end_time": 7.2068182,
                "pitch": 40,
                "velocity": 32,
                "duration": 0.2,
                "tempo": 120.0
            },
            {
                "start_time": 7.2227273,
                "end_time": 7.3068182,
                "pitch": 40,
                "velocity": 32,
                "duration": 0.0840909,
                "tempo": 120.0
            },
            {
                "start_time": 7.3227273,
                "end_time": 7.5204545,
                "pitch": 40,
                "velocity": 32,
                "duration": 0.1977273,
                "tempo": 120.0
            },
            {
                "start_time": 7.5363636,
                "end_time": 7.6159091,
                "pitch": 40,
                "velocity": 32,
                "duration": 0.0795455,
                "tempo": 120.0
            },
            {
                "start_time": 7.6318182,
                "end_time": 7.7272727,
                "pitch": 40,
                "velocity": 32,
                "duration": 0.0954545,
                "tempo": 120.0
            },
            {
                "start_time": 7.7431818,
                "end_time": 7.8227273,
                "pitch": 40,
                "velocity": 32,
                "duration": 0.0795455,
                "tempo": 120.0
            },
            {
                "start_time": 7.8386364,
                "end_time": 8.0431818,
                "pitch": 40,
                "velocity": 32,
                "duration": 0.2045455,
                "tempo": 120.0
            },
            {
                "start_time": 8.0590909,
                "end_time": 8.1454545,
                "pitch": 40,
                "velocity": 32,
                "duration": 0.0863636,
                "tempo": 120.0
            },
            {
                "start_time": 8.1636364,
                "end_time": 8.3659091,
                "pitch": 40,
                "velocity": 32,
                "duration": 0.2022727,
                "tempo": 120.0
            },
            {
                "start_time": 8.3818182,
                "end_time": 8.4659091,
                "pitch": 40,
                "velocity": 32,
                "duration": 0.0840909,
                "tempo": 120.0
            },
            {
                "start_time": 8.4840909,
                "end_time": 8.5840909,
                "pitch": 40,
                "velocity": 32,
                "duration": 0.1,
                "tempo": 120.0
            },
            {
                "start_time": 8.6,
                "end_time": 8.6840909,
                "pitch": 40,
                "velocity": 32,
                "duration": 0.0840909,
                "tempo": 120.0
            },
            {
                "start_time": 8.7,
                "end_time": 8.8977273,
                "pitch": 40,
                "velocity": 32,
                "duration": 0.1977273,
                "tempo": 120.0
            },
            {
                "start_time": 8.9136364,
                "end_time": 8.9954545,
                "pitch": 40,
                "velocity": 32,
                "duration": 0.0818182,
                "tempo": 120.0
            },
            {
                "start_time": 9.0113636,
                "end_time": 9.2113636,
                "pitch": 40,
                "velocity": 32,
                "duration": 0.2,
                "tempo": 120.0
            },
            {
                "start_time": 9.2272727,
                "end_time": 9.3272727,
                "pitch": 40,
                "velocity": 32,
                "duration": 0.1,
                "tempo": 120.0
            },
            {
                "start_time": 9.3431818,
                "end_time": 9.4272727,
                "pitch": 40,
                "velocity": 32,
                "duration": 0.0840909,
                "tempo": 120.0
            },
            {
                "start_time": 9.4454545,
                "end_time": 9.6431818,
                "pitch": 38,
                "velocity": 32,
                "duration": 0.1977273,
                "tempo": 120.0
            },
            {
                "start_time": 9.6590909,
                "end_time": 9.8568182,
                "pitch": 38,
                "velocity": 32,
                "duration": 0.1977273,
                "tempo": 120.0
            },
            {
                "start_time": 9.8727273,
                "end_time": 9.9545455,
                "pitch": 38,
                "velocity": 32,
                "duration": 0.0818182,
                "tempo": 120.0
            },
            {
                "start_time": 9.9704545,
                "end_time": 10.1727273,
                "pitch": 38,
                "velocity": 32,
                "duration": 0.2022727,
                "tempo": 120.0
            },
            {
                "start_time": 10.1886364,
                "end_time": 10.2727273,
                "pitch": 40,
                "velocity": 32,
                "duration": 0.0840909,
                "tempo": 120.0
            },
            {
                "start_time": 10.2886364,
                "end_time": 10.3886364,
                "pitch": 40,
                "velocity": 32,
                "duration": 0.1,
                "tempo": 120.0
            },
            {
                "start_time": 10.4068182,
                "end_time": 10.5909091,
                "pitch": 40,
                "velocity": 32,
                "duration": 0.1840909,
                "tempo": 120.0
            },
            {
                "start_time": 10.6068182,
                "end_time": 10.7068182,
                "pitch": 40,
                "velocity": 32,
                "duration": 0.1,
                "tempo": 120.0
            },
            {
                "start_time": 10.725,
                "end_time": 10.9227273,
                "pitch": 40,
                "velocity": 32,
                "duration": 0.1977273,
                "tempo": 120.0
            },
            {
                "start_time": 10.9386364,
                "end_time": 11.0204545,
                "pitch": 40,
                "velocity": 32,
                "duration": 0.0818182,
                "tempo": 120.0
            },
            {
                "start_time": 11.0363636,
                "end_time": 11.1204545,
                "pitch": 40,
                "velocity": 32,
                "duration": 0.0840909,
                "tempo": 120.0
            },
            {
                "start_time": 11.1363636,
                "end_time": 11.2340909,
                "pitch": 40,
                "velocity": 32,
                "duration": 0.0977273,
                "tempo": 120.0
            },
            {
                "start_time": 11.25,
                "end_time": 11.4522727,
                "pitch": 40,
                "velocity": 32,
                "duration": 0.2022727,
                "tempo": 120.0
            },
            {
                "start_time": 11.4681818,
                "end_time": 11.5522727,
                "pitch": 40,
                "velocity": 32,
                "duration": 0.0840909,
                "tempo": 120.0
            },
            {
                "start_time": 11.5681818,
                "end_time": 11.7681818,
                "pitch": 40,
                "velocity": 32,
                "duration": 0.2,
                "tempo": 120.0
            },
            {
                "start_time": 11.7840909,
                "end_time": 11.8659091,
                "pitch": 40,
                "velocity": 32,
                "duration": 0.0818182,
                "tempo": 120.0
            },
            {
                "start_time": 11.8818182,
                "end_time": 11.9795455,
                "pitch": 40,
                "velocity": 32,
                "duration": 0.0977273,
                "tempo": 120.0
            },
            {
                "start_time": 11.9954545,
                "end_time": 12.0772727,
                "pitch": 40,
                "velocity": 32,
                "duration": 0.0818182,
                "tempo": 120.0
            },
            {
                "start_time": 12.0954545,
                "end_time": 12.2954545,
                "pitch": 40,
                "velocity": 32,
                "duration": 0.2,
                "tempo": 120.0
            },
            {
                "start_time": 12.3113636,
                "end_time": 12.3954545,
                "pitch": 40,
                "velocity": 32,
                "duration": 0.0840909,
                "tempo": 120.0
            },
            {
                "start_time": 12.4136364,
                "end_time": 12.6159091,
                "pitch": 40,
                "velocity": 32,
                "duration": 0.2022727,
                "tempo": 120.0
            },
            {
                "start_time": 12.6318182,
                "end_time": 12.7181818,
                "pitch": 40,
                "velocity": 32,
                "duration": 0.0863636,
                "tempo": 120.0
            },
            {
                "start_time": 12.7340909,
                "end_time": 12.8363636,
                "pitch": 40,
                "velocity": 32,
                "duration": 0.1022727,
                "tempo": 120.0
            },
            {
                "start_time": 12.8545455,
                "end_time": 13.0522727,
                "pitch": 38,
                "velocity": 32,
                "duration": 0.1977273,
                "tempo": 120.0
            },
            {
                "start_time": 13.0681818,
                "end_time": 13.2431818,
                "pitch": 38,
                "velocity": 32,
                "duration": 0.175,
                "tempo": 120.0
            },
            {
                "start_time": 13.2590909,
                "end_time": 13.3545455,
                "pitch": 38,
                "velocity": 32,
                "duration": 0.0954545,
                "tempo": 120.0
            },
            {
                "start_time": 13.3704545,
                "end_time": 13.5772727,
                "pitch": 38,
                "velocity": 32,
                "duration": 0.2068182,
                "tempo": 120.0
            },
            {
                "start_time": 13.5931818,
                "end_time": 13.6795455,
                "pitch": 33,
                "velocity": 32,
                "duration": 0.0863636,
                "tempo": 120.0
            },
            {
                "start_time": 13.6954545,
                "end_time": 13.7818182,
                "pitch": 33,
                "velocity": 32,
                "duration": 0.0863636,
                "tempo": 120.0
            },
            {
                "start_time": 13.7977273,
                "end_time": 13.9886364,
                "pitch": 33,
                "velocity": 32,
                "duration": 0.1909091,
                "tempo": 120.0
            },
            {
                "start_time": 14.0045455,
                "end_time": 14.1977273,
                "pitch": 33,
                "velocity": 32,
                "duration": 0.1931818,
                "tempo": 120.0
            },
            {
                "start_time": 14.2136364,
                "end_time": 14.4136364,
                "pitch": 33,
                "velocity": 32,
                "duration": 0.2,
                "tempo": 120.0
            },
            {
                "start_time": 14.4295455,
                "end_time": 14.5136364,
                "pitch": 33,
                "velocity": 32,
                "duration": 0.0840909,
                "tempo": 120.0
            },
            {
                "start_time": 14.5318182,
                "end_time": 14.6318182,
                "pitch": 33,
                "velocity": 32,
                "duration": 0.1,
                "tempo": 120.0
            },
            {
                "start_time": 14.6477273,
                "end_time": 14.7340909,
                "pitch": 33,
                "velocity": 32,
                "duration": 0.0863636,
                "tempo": 120.0
            },
            {
                "start_time": 14.75,
                "end_time": 14.9568182,
                "pitch": 33,
                "velocity": 32,
                "duration": 0.2068182,
                "tempo": 120.0
            },
            {
                "start_time": 14.9727273,
                "end_time": 15.0590909,
                "pitch": 33,
                "velocity": 32,
                "duration": 0.0863636,
                "tempo": 120.0
            },
            {
                "start_time": 15.075,
                "end_time": 15.1704545,
                "pitch": 33,
                "velocity": 32,
                "duration": 0.0954545,
                "tempo": 120.0
            },
            {
                "start_time": 15.1863636,
                "end_time": 15.2659091,
                "pitch": 33,
                "velocity": 32,
                "duration": 0.0795455,
                "tempo": 120.0
            },
            {
                "start_time": 15.2818182,
                "end_time": 15.3613636,
                "pitch": 33,
                "velocity": 32,
                "duration": 0.0795455,
                "tempo": 120.0
            },
            {
                "start_time": 15.3772727,
                "end_time": 15.4727273,
                "pitch": 33,
                "velocity": 32,
                "duration": 0.0954545,
                "tempo": 120.0
            },
            {
                "start_time": 15.4886364,
                "end_time": 15.6954545,
                "pitch": 33,
                "velocity": 32,
                "duration": 0.2068182,
                "tempo": 120.0
            },
            {
                "start_time": 15.7113636,
                "end_time": 15.9,
                "pitch": 33,
                "velocity": 32,
                "duration": 0.1886364,
                "tempo": 120.0
            },
            {
                "start_time": 15.9159091,
                "end_time": 16.1068182,
                "pitch": 33,
                "velocity": 32,
                "duration": 0.1909091,
                "tempo": 120.0
            },
            {
                "start_time": 16.1227273,
                "end_time": 16.2181818,
                "pitch": 33,
                "velocity": 32,
                "duration": 0.0954545,
                "tempo": 120.0
            },
            {
                "start_time": 16.2340909,
                "end_time": 16.4159091,
                "pitch": 29,
                "velocity": 32,
                "duration": 0.1818182,
                "tempo": 120.0
            },
            {
                "start_time": 16.4340909,
                "end_time": 16.6386364,
                "pitch": 29,
                "velocity": 32,
                "duration": 0.2045455,
                "tempo": 120.0
            },
            {
                "start_time": 16.6545455,
                "end_time": 16.7590909,
                "pitch": 29,
                "velocity": 32,
                "duration": 0.1045455,
                "tempo": 120.0
            },
            {
                "start_time": 16.775,
                "end_time": 16.9590909,
                "pitch": 29,
                "velocity": 32,
                "duration": 0.1840909,
                "tempo": 120.0
            },
            {
                "start_time": 16.975,
                "end_time": 17.0772727,
                "pitch": 33,
                "velocity": 32,
                "duration": 0.1022727,
                "tempo": 120.0
            },
            {
                "start_time": 17.0931818,
                "end_time": 17.1772727,
                "pitch": 33,
                "velocity": 32,
                "duration": 0.0840909,
                "tempo": 120.0
            },
            {
                "start_time": 17.1931818,
                "end_time": 17.3909091,
                "pitch": 33,
                "velocity": 32,
                "duration": 0.1977273,
                "tempo": 120.0
            },
            {
                "start_time": 17.4068182,
                "end_time": 17.6022727,
                "pitch": 33,
                "velocity": 32,
                "duration": 0.1954545,
                "tempo": 120.0
            },
            {
                "start_time": 17.6204545,
                "end_time": 17.8204545,
                "pitch": 33,
                "velocity": 32,
                "duration": 0.2,
                "tempo": 120.0
            },
            {
                "start_time": 17.8363636,
                "end_time": 17.9204545,
                "pitch": 33,
                "velocity": 32,
                "duration": 0.0840909,
                "tempo": 120.0
            },
            {
                "start_time": 17.9363636,
                "end_time": 18.0204545,
                "pitch": 33,
                "velocity": 32,
                "duration": 0.0840909,
                "tempo": 120.0
            },
            {
                "start_time": 18.0386364,
                "end_time": 18.1363636,
                "pitch": 33,
                "velocity": 32,
                "duration": 0.0977273,
                "tempo": 120.0
            },
            {
                "start_time": 18.1522727,
                "end_time": 18.35,
                "pitch": 33,
                "velocity": 32,
                "duration": 0.1977273,
                "tempo": 120.0
            },
            {
                "start_time": 18.3659091,
                "end_time": 18.4477273,
                "pitch": 33,
                "velocity": 32,
                "duration": 0.0818182,
                "tempo": 120.0
            },
            {
                "start_time": 18.4636364,
                "end_time": 18.5477273,
                "pitch": 33,
                "velocity": 32,
                "duration": 0.0840909,
                "tempo": 120.0
            },
            {
                "start_time": 18.5636364,
                "end_time": 18.6636364,
                "pitch": 33,
                "velocity": 32,
                "duration": 0.1,
                "tempo": 120.0
            },
            {
                "start_time": 18.6818182,
                "end_time": 18.7659091,
                "pitch": 33,
                "velocity": 32,
                "duration": 0.0840909,
                "tempo": 120.0
            },
            {
                "start_time": 18.7818182,
                "end_time": 18.8818182,
                "pitch": 33,
                "velocity": 32,
                "duration": 0.1,
                "tempo": 120.0
            },
            {
                "start_time": 18.8977273,
                "end_time": 19.0818182,
                "pitch": 33,
                "velocity": 32,
                "duration": 0.1840909,
                "tempo": 120.0
            },
            {
                "start_time": 19.1,
                "end_time": 19.3,
                "pitch": 33,
                "velocity": 32,
                "duration": 0.2,
                "tempo": 120.0
            },
            {
                "start_time": 19.3181818,
                "end_time": 19.5136364,
                "pitch": 33,
                "velocity": 32,
                "duration": 0.1954545,
                "tempo": 120.0
            },
            {
                "start_time": 19.5295455,
                "end_time": 19.6113636,
                "pitch": 33,
                "velocity": 32,
                "duration": 0.0818182,
                "tempo": 120.0
            },
            {
                "start_time": 19.6272727,
                "end_time": 19.8272727,
                "pitch": 29,
                "velocity": 32,
                "duration": 0.2,
                "tempo": 120.0
            },
            {
                "start_time": 19.8431818,
                "end_time": 20.0431818,
                "pitch": 29,
                "velocity": 32,
                "duration": 0.2,
                "tempo": 120.0
            },
            {
                "start_time": 20.0613636,
                "end_time": 20.1454545,
                "pitch": 29,
                "velocity": 32,
                "duration": 0.0840909,
                "tempo": 120.0
            },
            {
                "start_time": 20.1613636,
                "end_time": 20.3590909,
                "pitch": 29,
                "velocity": 32,
                "duration": 0.1977273,
                "tempo": 120.0
            },
            {
                "start_time": 20.375,
                "end_time": 20.4727273,
                "pitch": 33,
                "velocity": 32,
                "duration": 0.0977273,
                "tempo": 120.0
            },
            {
                "start_time": 20.4886364,
                "end_time": 20.5704545,
                "pitch": 33,
                "velocity": 32,
                "duration": 0.0818182,
                "tempo": 120.0
            },
            {
                "start_time": 20.5863636,
                "end_time": 20.7886364,
                "pitch": 33,
                "velocity": 32,
                "duration": 0.2022727,
                "tempo": 120.0
            },
            {
                "start_time": 20.8045455,
                "end_time": 21.0068182,
                "pitch": 33,
                "velocity": 32,
                "duration": 0.2022727,
                "tempo": 120.0
            },
            {
                "start_time": 21.0227273,
                "end_time": 21.2113636,
                "pitch": 33,
                "velocity": 32,
                "duration": 0.1886364,
                "tempo": 120.0
            },
            {
                "start_time": 21.2272727,
                "end_time": 21.3295455,
                "pitch": 33,
                "velocity": 32,
                "duration": 0.1022727,
                "tempo": 120.0
            },
            {
                "start_time": 21.3477273,
                "end_time": 21.4318182,
                "pitch": 33,
                "velocity": 32,
                "duration": 0.0840909,
                "tempo": 120.0
            },
            {
                "start_time": 21.45,
                "end_time": 21.5454545,
                "pitch": 33,
                "velocity": 32,
                "duration": 0.0954545,
                "tempo": 120.0
            },
            {
                "start_time": 21.5613636,
                "end_time": 21.7363636,
                "pitch": 33,
                "velocity": 32,
                "duration": 0.175,
                "tempo": 120.0
            },
            {
                "start_time": 21.7522727,
                "end_time": 21.8477273,
                "pitch": 33,
                "velocity": 32,
                "duration": 0.0954545,
                "tempo": 120.0
            },
            {
                "start_time": 21.8636364,
                "end_time": 21.95,
                "pitch": 33,
                "velocity": 32,
                "duration": 0.0863636,
                "tempo": 120.0
            },
            {
                "start_time": 21.9659091,
                "end_time": 22.0681818,
                "pitch": 33,
                "velocity": 32,
                "duration": 0.1022727,
                "tempo": 120.0
            },
            {
                "start_time": 22.0863636,
                "end_time": 22.1704545,
                "pitch": 33,
                "velocity": 32,
                "duration": 0.0840909,
                "tempo": 120.0
            },
            {
                "start_time": 22.1886364,
                "end_time": 22.275,
                "pitch": 33,
                "velocity": 32,
                "duration": 0.0863636,
                "tempo": 120.0
            },
            {
                "start_time": 22.2909091,
                "end_time": 22.4818182,
                "pitch": 33,
                "velocity": 32,
                "duration": 0.1909091,
                "tempo": 120.0
            },
            {
                "start_time": 22.4977273,
                "end_time": 22.6886364,
                "pitch": 33,
                "velocity": 32,
                "duration": 0.1909091,
                "tempo": 120.0
            },
            {
                "start_time": 22.7045455,
                "end_time": 22.9090909,
                "pitch": 33,
                "velocity": 32,
                "duration": 0.2045455,
                "tempo": 120.0
            },
            {
                "start_time": 22.9272727,
                "end_time": 23.0136364,
                "pitch": 33,
                "velocity": 32,
                "duration": 0.0863636,
                "tempo": 120.0
            },
            {
                "start_time": 23.0295455,
                "end_time": 23.2340909,
                "pitch": 29,
                "velocity": 32,
                "duration": 0.2045455,
                "tempo": 120.0
            },
            {
                "start_time": 23.25,
                "end_time": 23.45,
                "pitch": 29,
                "velocity": 32,
                "duration": 0.2,
                "tempo": 120.0
            },
            {
                "start_time": 23.4681818,
                "end_time": 23.5522727,
                "pitch": 29,
                "velocity": 32,
                "duration": 0.0840909,
                "tempo": 120.0
            },
            {
                "start_time": 23.5681818,
                "end_time": 23.7636364,
                "pitch": 29,
                "velocity": 32,
                "duration": 0.1954545,
                "tempo": 120.0
            },
            {
                "start_time": 23.7818182,
                "end_time": 23.8636364,
                "pitch": 33,
                "velocity": 32,
                "duration": 0.0818182,
                "tempo": 120.0
            },
            {
                "start_time": 23.8795455,
                "end_time": 23.9772727,
                "pitch": 33,
                "velocity": 32,
                "duration": 0.0977273,
                "tempo": 120.0
            },
            {
                "start_time": 23.9931818,
                "end_time": 24.1954545,
                "pitch": 33,
                "velocity": 32,
                "duration": 0.2022727,
                "tempo": 120.0
            },
            {
                "start_time": 24.2113636,
                "end_time": 24.3954545,
                "pitch": 33,
                "velocity": 32,
                "duration": 0.1840909,
                "tempo": 120.0
            },
            {
                "start_time": 24.4113636,
                "end_time": 24.6090909,
                "pitch": 33,
                "velocity": 32,
                "duration": 0.1977273,
                "tempo": 120.0
            },
            {
                "start_time": 24.625,
                "end_time": 24.7227273,
                "pitch": 33,
                "velocity": 32,
                "duration": 0.0977273,
                "tempo": 120.0
            },
            {
                "start_time": 24.7409091,
                "end_time": 24.8227273,
                "pitch": 33,
                "velocity": 32,
                "duration": 0.0818182,
                "tempo": 120.0
            },
            {
                "start_time": 24.8386364,
                "end_time": 24.9227273,
                "pitch": 33,
                "velocity": 32,
                "duration": 0.0840909,
                "tempo": 120.0
            },
            {
                "start_time": 24.9386364,
                "end_time": 25.1386364,
                "pitch": 33,
                "velocity": 32,
                "duration": 0.2,
                "tempo": 120.0
            },
            {
                "start_time": 25.1568182,
                "end_time": 25.2568182,
                "pitch": 33,
                "velocity": 32,
                "duration": 0.1,
                "tempo": 120.0
            },
            {
                "start_time": 25.2727273,
                "end_time": 25.3568182,
                "pitch": 33,
                "velocity": 32,
                "duration": 0.0840909,
                "tempo": 120.0
            },
            {
                "start_time": 25.3727273,
                "end_time": 25.4568182,
                "pitch": 33,
                "velocity": 32,
                "duration": 0.0840909,
                "tempo": 120.0
            },
            {
                "start_time": 25.475,
                "end_time": 25.575,
                "pitch": 33,
                "velocity": 32,
                "duration": 0.1,
                "tempo": 120.0
            },
            {
                "start_time": 25.5909091,
                "end_time": 25.675,
                "pitch": 33,
                "velocity": 32,
                "duration": 0.0840909,
                "tempo": 120.0
            },
            {
                "start_time": 25.6909091,
                "end_time": 25.8886364,
                "pitch": 33,
                "velocity": 32,
                "duration": 0.1977273,
                "tempo": 120.0
            },
            {
                "start_time": 25.9045455,
                "end_time": 26.1,
                "pitch": 33,
                "velocity": 32,
                "duration": 0.1954545,
                "tempo": 120.0
            },
            {
                "start_time": 26.1181818,
                "end_time": 26.3181818,
                "pitch": 33,
                "velocity": 32,
                "duration": 0.2,
                "tempo": 120.0
            },
            {
                "start_time": 26.3340909,
                "end_time": 26.4181818,
                "pitch": 33,
                "velocity": 32,
                "duration": 0.0840909,
                "tempo": 120.0
            },
            {
                "start_time": 26.4363636,
                "end_time": 26.6340909,
                "pitch": 29,
                "velocity": 32,
                "duration": 0.1977273,
                "tempo": 120.0
            },
            {
                "start_time": 26.65,
                "end_time": 26.8477273,
                "pitch": 29,
                "velocity": 32,
                "duration": 0.1977273,
                "tempo": 120.0
            },
            {
                "start_time": 26.8636364,
                "end_time": 26.9454545,
                "pitch": 29,
                "velocity": 32,
                "duration": 0.0818182,
                "tempo": 120.0
            },
            {
                "start_time": 26.9613636,
                "end_time": 27.1636364,
                "pitch": 29,
                "velocity": 32,
                "duration": 0.2022727,
                "tempo": 120.0
            },
            {
                "start_time": 27.1795455,
                "end_time": 27.2636364,
                "pitch": 31,
                "velocity": 32,
                "duration": 0.0840909,
                "tempo": 120.0
            },
            {
                "start_time": 27.2795455,
                "end_time": 27.3795455,
                "pitch": 31,
                "velocity": 32,
                "duration": 0.1,
                "tempo": 120.0
            },
            {
                "start_time": 27.3977273,
                "end_time": 27.4818182,
                "pitch": 31,
                "velocity": 32,
                "duration": 0.0840909,
                "tempo": 120.0
            },
            {
                "start_time": 27.5,
                "end_time": 27.7045455,
                "pitch": 31,
                "velocity": 32,
                "duration": 0.2045455,
                "tempo": 120.0
            },
            {
                "start_time": 27.7227273,
                "end_time": 27.8068182,
                "pitch": 31,
                "velocity": 32,
                "duration": 0.0840909,
                "tempo": 120.0
            },
            {
                "start_time": 27.825,
                "end_time": 28.1113636,
                "pitch": 31,
                "velocity": 32,
                "duration": 0.2863636,
                "tempo": 120.0
            },
            {
                "start_time": 28.1272727,
                "end_time": 28.3227273,
                "pitch": 31,
                "velocity": 32,
                "duration": 0.1954545,
                "tempo": 120.0
            },
            {
                "start_time": 28.3409091,
                "end_time": 28.5454545,
                "pitch": 31,
                "velocity": 32,
                "duration": 0.2045455,
                "tempo": 120.0
            },
            {
                "start_time": 28.5636364,
                "end_time": 28.6477273,
                "pitch": 31,
                "velocity": 32,
                "duration": 0.0840909,
                "tempo": 120.0
            },
            {
                "start_time": 28.6659091,
                "end_time": 28.8795455,
                "pitch": 31,
                "velocity": 32,
                "duration": 0.2136364,
                "tempo": 120.0
            }
        ],
        "Harpsichord": [
            {
                "start_time": 0.0159091,
                "end_time": 0.0772727,
                "pitch": 52,
                "velocity": 25,
                "duration": 0.0613636,
                "tempo": 120.0
            },
            {
                "start_time": 0.0931818,
                "end_time": 0.1704545,
                "pitch": 52,
                "velocity": 25,
                "duration": 0.0772727,
                "tempo": 120.0
            },
            {
                "start_time": 0.1863636,
                "end_time": 0.3863636,
                "pitch": 52,
                "velocity": 25,
                "duration": 0.2,
                "tempo": 120.0
            },
            {
                "start_time": 0.4045455,
                "end_time": 0.4863636,
                "pitch": 52,
                "velocity": 25,
                "duration": 0.0818182,
                "tempo": 120.0
            },
            {
                "start_time": 0.5045455,
                "end_time": 0.7068182,
                "pitch": 52,
                "velocity": 25,
                "duration": 0.2022727,
                "tempo": 120.0
            },
            {
                "start_time": 0.7227273,
                "end_time": 0.8272727,
                "pitch": 52,
                "velocity": 25,
                "duration": 0.1045455,
                "tempo": 120.0
            },
            {
                "start_time": 0.8431818,
                "end_time": 0.9295455,
                "pitch": 52,
                "velocity": 25,
                "duration": 0.0863636,
                "tempo": 120.0
            },
            {
                "start_time": 0.9454545,
                "end_time": 1.0318182,
                "pitch": 52,
                "velocity": 25,
                "duration": 0.0863636,
                "tempo": 120.0
            },
            {
                "start_time": 1.0477273,
                "end_time": 1.2409091,
                "pitch": 52,
                "velocity": 25,
                "duration": 0.1931818,
                "tempo": 120.0
            },
            {
                "start_time": 1.2568182,
                "end_time": 1.3522727,
                "pitch": 52,
                "velocity": 25,
                "duration": 0.0954545,
                "tempo": 120.0
            },
            {
                "start_time": 1.3681818,
                "end_time": 1.5477273,
                "pitch": 52,
                "velocity": 25,
                "duration": 0.1795455,
                "tempo": 120.0
            },
            {
                "start_time": 1.5636364,
                "end_time": 1.6636364,
                "pitch": 52,
                "velocity": 25,
                "duration": 0.1,
                "tempo": 120.0
            },
            {
                "start_time": 1.6795455,
                "end_time": 1.7636364,
                "pitch": 52,
                "velocity": 25,
                "duration": 0.0840909,
                "tempo": 120.0
            },
            {
                "start_time": 1.7818182,
                "end_time": 1.8818182,
                "pitch": 52,
                "velocity": 25,
                "duration": 0.1,
                "tempo": 120.0
            },
            {
                "start_time": 1.8977273,
                "end_time": 2.0863636,
                "pitch": 52,
                "velocity": 25,
                "duration": 0.1886364,
                "tempo": 120.0
            },
            {
                "start_time": 2.1022727,
                "end_time": 2.2068182,
                "pitch": 52,
                "velocity": 25,
                "duration": 0.1045455,
                "tempo": 120.0
            },
            {
                "start_time": 2.2227273,
                "end_time": 2.425,
                "pitch": 52,
                "velocity": 25,
                "duration": 0.2022727,
                "tempo": 120.0
            },
            {
                "start_time": 2.4409091,
                "end_time": 2.5227273,
                "pitch": 52,
                "velocity": 25,
                "duration": 0.0818182,
                "tempo": 120.0
            },
            {
                "start_time": 2.5386364,
                "end_time": 2.6204545,
                "pitch": 52,
                "velocity": 25,
                "duration": 0.0818182,
                "tempo": 120.0
            },
            {
                "start_time": 2.6363636,
                "end_time": 2.8363636,
                "pitch": 50,
                "velocity": 25,
                "duration": 0.2,
                "tempo": 120.0
            },
            {
                "start_time": 2.8522727,
                "end_time": 3.0522727,
                "pitch": 50,
                "velocity": 25,
                "duration": 0.2,
                "tempo": 120.0
            },
            {
                "start_time": 3.0704545,
                "end_time": 3.1522727,
                "pitch": 50,
                "velocity": 25,
                "duration": 0.0818182,
                "tempo": 120.0
            },
            {
                "start_time": 3.1704545,
                "end_time": 3.3613636,
                "pitch": 50,
                "velocity": 25,
                "duration": 0.1909091,
                "tempo": 120.0
            },
            {
                "start_time": 3.3772727,
                "end_time": 3.4727273,
                "pitch": 52,
                "velocity": 25,
                "duration": 0.0954545,
                "tempo": 120.0
            },
            {
                "start_time": 3.4886364,
                "end_time": 3.5681818,
                "pitch": 52,
                "velocity": 25,
                "duration": 0.0795455,
                "tempo": 120.0
            },
            {
                "start_time": 3.5840909,
                "end_time": 3.7886364,
                "pitch": 52,
                "velocity": 25,
                "duration": 0.2045455,
                "tempo": 120.0
            },
            {
                "start_time": 3.8068182,
                "end_time": 3.8909091,
                "pitch": 52,
                "velocity": 25,
                "duration": 0.0840909,
                "tempo": 120.0
            },
            {
                "start_time": 3.9090909,
                "end_time": 4.1113636,
                "pitch": 52,
                "velocity": 25,
                "duration": 0.2022727,
                "tempo": 120.0
            },
            {
                "start_time": 4.1295455,
                "end_time": 4.2136364,
                "pitch": 52,
                "velocity": 25,
                "duration": 0.0840909,
                "tempo": 120.0
            },
            {
                "start_time": 4.2295455,
                "end_time": 4.3295455,
                "pitch": 52,
                "velocity": 25,
                "duration": 0.1,
                "tempo": 120.0
            },
            {
                "start_time": 4.3454545,
                "end_time": 4.4295455,
                "pitch": 52,
                "velocity": 25,
                "duration": 0.0840909,
                "tempo": 120.0
            },
            {
                "start_time": 4.4477273,
                "end_time": 4.6431818,
                "pitch": 52,
                "velocity": 25,
                "duration": 0.1954545,
                "tempo": 120.0
            },
            {
                "start_time": 4.6590909,
                "end_time": 4.7409091,
                "pitch": 52,
                "velocity": 25,
                "duration": 0.0818182,
                "tempo": 120.0
            },
            {
                "start_time": 4.7590909,
                "end_time": 4.9568182,
                "pitch": 52,
                "velocity": 25,
                "duration": 0.1977273,
                "tempo": 120.0
            },
            {
                "start_time": 4.9727273,
                "end_time": 5.0727273,
                "pitch": 52,
                "velocity": 25,
                "duration": 0.1,
                "tempo": 120.0
            },
            {
                "start_time": 5.0909091,
                "end_time": 5.175,
                "pitch": 52,
                "velocity": 25,
                "duration": 0.0840909,
                "tempo": 120.0
            },
            {
                "start_time": 5.1909091,
                "end_time": 5.275,
                "pitch": 52,
                "velocity": 25,
                "duration": 0.0840909,
                "tempo": 120.0
            },
            {
                "start_time": 5.2909091,
                "end_time": 5.4886364,
                "pitch": 52,
                "velocity": 25,
                "duration": 0.1977273,
                "tempo": 120.0
            },
            {
                "start_time": 5.5045455,
                "end_time": 5.6022727,
                "pitch": 52,
                "velocity": 25,
                "duration": 0.0977273,
                "tempo": 120.0
            },
            {
                "start_time": 5.6181818,
                "end_time": 5.8,
                "pitch": 52,
                "velocity": 25,
                "duration": 0.1818182,
                "tempo": 120.0
            },
            {
                "start_time": 5.8181818,
                "end_time": 5.9181818,
                "pitch": 52,
                "velocity": 25,
                "duration": 0.1,
                "tempo": 120.0
            },
            {
                "start_time": 5.9340909,
                "end_time": 6.0181818,
                "pitch": 52,
                "velocity": 25,
                "duration": 0.0840909,
                "tempo": 120.0
            },
            {
                "start_time": 6.0340909,
                "end_time": 6.2363636,
                "pitch": 50,
                "velocity": 25,
                "duration": 0.2022727,
                "tempo": 120.0
            },
            {
                "start_time": 6.2545455,
                "end_time": 6.4590909,
                "pitch": 50,
                "velocity": 25,
                "duration": 0.2045455,
                "tempo": 120.0
            },
            {
                "start_time": 6.4772727,
                "end_time": 6.5613636,
                "pitch": 50,
                "velocity": 25,
                "duration": 0.0840909,
                "tempo": 120.0
            },
            {
                "start_time": 6.5795455,
                "end_time": 6.7772727,
                "pitch": 50,
                "velocity": 25,
                "duration": 0.1977273,
                "tempo": 120.0
            },
            {
                "start_time": 6.7931818,
                "end_time": 6.875,
                "pitch": 52,
                "velocity": 25,
                "duration": 0.0818182,
                "tempo": 120.0
            },
            {
                "start_time": 6.8909091,
                "end_time": 6.9886364,
                "pitch": 52,
                "velocity": 25,
                "duration": 0.0977273,
                "tempo": 120.0
            },
            {
                "start_time": 7.0068182,
                "end_time": 7.2068182,
                "pitch": 52,
                "velocity": 25,
                "duration": 0.2,
                "tempo": 120.0
            },
            {
                "start_time": 7.2227273,
                "end_time": 7.3068182,
                "pitch": 52,
                "velocity": 25,
                "duration": 0.0840909,
                "tempo": 120.0
            },
            {
                "start_time": 7.3227273,
                "end_time": 7.5204545,
                "pitch": 52,
                "velocity": 25,
                "duration": 0.1977273,
                "tempo": 120.0
            },
            {
                "start_time": 7.5363636,
                "end_time": 7.6159091,
                "pitch": 52,
                "velocity": 25,
                "duration": 0.0795455,
                "tempo": 120.0
            },
            {
                "start_time": 7.6318182,
                "end_time": 7.7272727,
                "pitch": 52,
                "velocity": 25,
                "duration": 0.0954545,
                "tempo": 120.0
            },
            {
                "start_time": 7.7431818,
                "end_time": 7.8227273,
                "pitch": 52,
                "velocity": 25,
                "duration": 0.0795455,
                "tempo": 120.0
            },
            {
                "start_time": 7.8386364,
                "end_time": 8.0431818,
                "pitch": 52,
                "velocity": 25,
                "duration": 0.2045455,
                "tempo": 120.0
            },
            {
                "start_time": 8.0590909,
                "end_time": 8.1454545,
                "pitch": 52,
                "velocity": 25,
                "duration": 0.0863636,
                "tempo": 120.0
            },
            {
                "start_time": 8.1636364,
                "end_time": 8.3659091,
                "pitch": 52,
                "velocity": 25,
                "duration": 0.2022727,
                "tempo": 120.0
            },
            {
                "start_time": 8.3818182,
                "end_time": 8.4659091,
                "pitch": 52,
                "velocity": 25,
                "duration": 0.0840909,
                "tempo": 120.0
            },
            {
                "start_time": 8.4840909,
                "end_time": 8.5840909,
                "pitch": 52,
                "velocity": 25,
                "duration": 0.1,
                "tempo": 120.0
            },
            {
                "start_time": 8.6,
                "end_time": 8.6840909,
                "pitch": 52,
                "velocity": 25,
                "duration": 0.0840909,
                "tempo": 120.0
            },
            {
                "start_time": 8.7,
                "end_time": 8.8977273,
                "pitch": 52,
                "velocity": 25,
                "duration": 0.1977273,
                "tempo": 120.0
            },
            {
                "start_time": 8.9136364,
                "end_time": 8.9954545,
                "pitch": 52,
                "velocity": 25,
                "duration": 0.0818182,
                "tempo": 120.0
            },
            {
                "start_time": 9.0113636,
                "end_time": 9.2113636,
                "pitch": 52,
                "velocity": 25,
                "duration": 0.2,
                "tempo": 120.0
            },
            {
                "start_time": 9.2272727,
                "end_time": 9.3272727,
                "pitch": 52,
                "velocity": 25,
                "duration": 0.1,
                "tempo": 120.0
            },
            {
                "start_time": 9.3431818,
                "end_time": 9.4272727,
                "pitch": 52,
                "velocity": 25,
                "duration": 0.0840909,
                "tempo": 120.0
            },
            {
                "start_time": 9.4454545,
                "end_time": 9.6431818,
                "pitch": 50,
                "velocity": 25,
                "duration": 0.1977273,
                "tempo": 120.0
            },
            {
                "start_time": 9.6590909,
                "end_time": 9.8568182,
                "pitch": 50,
                "velocity": 25,
                "duration": 0.1977273,
                "tempo": 120.0
            },
            {
                "start_time": 9.8727273,
                "end_time": 9.9545455,
                "pitch": 50,
                "velocity": 25,
                "duration": 0.0818182,
                "tempo": 120.0
            },
            {
                "start_time": 9.9704545,
                "end_time": 10.1727273,
                "pitch": 50,
                "velocity": 25,
                "duration": 0.2022727,
                "tempo": 120.0
            },
            {
                "start_time": 10.1886364,
                "end_time": 10.2727273,
                "pitch": 52,
                "velocity": 25,
                "duration": 0.0840909,
                "tempo": 120.0
            },
            {
                "start_time": 10.2886364,
                "end_time": 10.3886364,
                "pitch": 52,
                "velocity": 25,
                "duration": 0.1,
                "tempo": 120.0
            },
            {
                "start_time": 10.4068182,
                "end_time": 10.5909091,
                "pitch": 52,
                "velocity": 25,
                "duration": 0.1840909,
                "tempo": 120.0
            },
            {
                "start_time": 10.6068182,
                "end_time": 10.7068182,
                "pitch": 52,
                "velocity": 25,
                "duration": 0.1,
                "tempo": 120.0
            },
            {
                "start_time": 10.725,
                "end_time": 10.9227273,
                "pitch": 52,
                "velocity": 25,
                "duration": 0.1977273,
                "tempo": 120.0
            },
            {
                "start_time": 10.9386364,
                "end_time": 11.0204545,
                "pitch": 52,
                "velocity": 25,
                "duration": 0.0818182,
                "tempo": 120.0
            },
            {
                "start_time": 11.0363636,
                "end_time": 11.1204545,
                "pitch": 52,
                "velocity": 25,
                "duration": 0.0840909,
                "tempo": 120.0
            },
            {
                "start_time": 11.1363636,
                "end_time": 11.2340909,
                "pitch": 52,
                "velocity": 25,
                "duration": 0.0977273,
                "tempo": 120.0
            },
            {
                "start_time": 11.25,
                "end_time": 11.4522727,
                "pitch": 52,
                "velocity": 25,
                "duration": 0.2022727,
                "tempo": 120.0
            },
            {
                "start_time": 11.4681818,
                "end_time": 11.5522727,
                "pitch": 52,
                "velocity": 25,
                "duration": 0.0840909,
                "tempo": 120.0
            },
            {
                "start_time": 11.5681818,
                "end_time": 11.7681818,
                "pitch": 52,
                "velocity": 25,
                "duration": 0.2,
                "tempo": 120.0
            },
            {
                "start_time": 11.7840909,
                "end_time": 11.8659091,
                "pitch": 52,
                "velocity": 25,
                "duration": 0.0818182,
                "tempo": 120.0
            },
            {
                "start_time": 11.8818182,
                "end_time": 11.9795455,
                "pitch": 52,
                "velocity": 25,
                "duration": 0.0977273,
                "tempo": 120.0
            },
            {
                "start_time": 11.9954545,
                "end_time": 12.0772727,
                "pitch": 52,
                "velocity": 25,
                "duration": 0.0818182,
                "tempo": 120.0
            },
            {
                "start_time": 12.0954545,
                "end_time": 12.2954545,
                "pitch": 52,
                "velocity": 25,
                "duration": 0.2,
                "tempo": 120.0
            },
            {
                "start_time": 12.3113636,
                "end_time": 12.3954545,
                "pitch": 52,
                "velocity": 25,
                "duration": 0.0840909,
                "tempo": 120.0
            },
            {
                "start_time": 12.4136364,
                "end_time": 12.6159091,
                "pitch": 52,
                "velocity": 25,
                "duration": 0.2022727,
                "tempo": 120.0
            },
            {
                "start_time": 12.6318182,
                "end_time": 12.7181818,
                "pitch": 52,
                "velocity": 25,
                "duration": 0.0863636,
                "tempo": 120.0
            },
            {
                "start_time": 12.7340909,
                "end_time": 12.8363636,
                "pitch": 52,
                "velocity": 25,
                "duration": 0.1022727,
                "tempo": 120.0
            },
            {
                "start_time": 12.8545455,
                "end_time": 13.0522727,
                "pitch": 50,
                "velocity": 25,
                "duration": 0.1977273,
                "tempo": 120.0
            },
            {
                "start_time": 13.0681818,
                "end_time": 13.2431818,
                "pitch": 50,
                "velocity": 25,
                "duration": 0.175,
                "tempo": 120.0
            },
            {
                "start_time": 13.2590909,
                "end_time": 13.3545455,
                "pitch": 50,
                "velocity": 25,
                "duration": 0.0954545,
                "tempo": 120.0
            },
            {
                "start_time": 13.3704545,
                "end_time": 13.5772727,
                "pitch": 50,
                "velocity": 25,
                "duration": 0.2068182,
                "tempo": 120.0
            },
            {
                "start_time": 13.5931818,
                "end_time": 13.6795455,
                "pitch": 45,
                "velocity": 25,
                "duration": 0.0863636,
                "tempo": 120.0
            },
            {
                "start_time": 13.6954545,
                "end_time": 13.7818182,
                "pitch": 45,
                "velocity": 25,
                "duration": 0.0863636,
                "tempo": 120.0
            },
            {
                "start_time": 13.7977273,
                "end_time": 13.9886364,
                "pitch": 45,
                "velocity": 25,
                "duration": 0.1909091,
                "tempo": 120.0
            },
            {
                "start_time": 14.0045455,
                "end_time": 14.1977273,
                "pitch": 45,
                "velocity": 25,
                "duration": 0.1931818,
                "tempo": 120.0
            },
            {
                "start_time": 14.2136364,
                "end_time": 14.4136364,
                "pitch": 45,
                "velocity": 25,
                "duration": 0.2,
                "tempo": 120.0
            },
            {
                "start_time": 14.4295455,
                "end_time": 14.5136364,
                "pitch": 45,
                "velocity": 25,
                "duration": 0.0840909,
                "tempo": 120.0
            },
            {
                "start_time": 14.5318182,
                "end_time": 14.6318182,
                "pitch": 45,
                "velocity": 25,
                "duration": 0.1,
                "tempo": 120.0
            },
            {
                "start_time": 14.6477273,
                "end_time": 14.7340909,
                "pitch": 45,
                "velocity": 25,
                "duration": 0.0863636,
                "tempo": 120.0
            },
            {
                "start_time": 14.75,
                "end_time": 14.9568182,
                "pitch": 45,
                "velocity": 25,
                "duration": 0.2068182,
                "tempo": 120.0
            },
            {
                "start_time": 14.9727273,
                "end_time": 15.0590909,
                "pitch": 45,
                "velocity": 25,
                "duration": 0.0863636,
                "tempo": 120.0
            },
            {
                "start_time": 15.075,
                "end_time": 15.1704545,
                "pitch": 45,
                "velocity": 25,
                "duration": 0.0954545,
                "tempo": 120.0
            },
            {
                "start_time": 15.1863636,
                "end_time": 15.2659091,
                "pitch": 45,
                "velocity": 25,
                "duration": 0.0795455,
                "tempo": 120.0
            },
            {
                "start_time": 15.2818182,
                "end_time": 15.3613636,
                "pitch": 45,
                "velocity": 25,
                "duration": 0.0795455,
                "tempo": 120.0
            },
            {
                "start_time": 15.3772727,
                "end_time": 15.4727273,
                "pitch": 45,
                "velocity": 25,
                "duration": 0.0954545,
                "tempo": 120.0
            },
            {
                "start_time": 15.4886364,
                "end_time": 15.6954545,
                "pitch": 45,
                "velocity": 25,
                "duration": 0.2068182,
                "tempo": 120.0
            },
            {
                "start_time": 15.7113636,
                "end_time": 15.9,
                "pitch": 45,
                "velocity": 25,
                "duration": 0.1886364,
                "tempo": 120.0
            },
            {
                "start_time": 15.9159091,
                "end_time": 16.1068182,
                "pitch": 45,
                "velocity": 25,
                "duration": 0.1909091,
                "tempo": 120.0
            },
            {
                "start_time": 16.1227273,
                "end_time": 16.2181818,
                "pitch": 45,
                "velocity": 25,
                "duration": 0.0954545,
                "tempo": 120.0
            },
            {
                "start_time": 16.2340909,
                "end_time": 16.4159091,
                "pitch": 41,
                "velocity": 25,
                "duration": 0.1818182,
                "tempo": 120.0
            },
            {
                "start_time": 16.4340909,
                "end_time": 16.6386364,
                "pitch": 41,
                "velocity": 25,
                "duration": 0.2045455,
                "tempo": 120.0
            },
            {
                "start_time": 16.6545455,
                "end_time": 16.7590909,
                "pitch": 41,
                "velocity": 25,
                "duration": 0.1045455,
                "tempo": 120.0
            },
            {
                "start_time": 16.775,
                "end_time": 16.9590909,
                "pitch": 41,
                "velocity": 25,
                "duration": 0.1840909,
                "tempo": 120.0
            },
            {
                "start_time": 16.975,
                "end_time": 17.0772727,
                "pitch": 45,
                "velocity": 25,
                "duration": 0.1022727,
                "tempo": 120.0
            },
            {
                "start_time": 17.0931818,
                "end_time": 17.1772727,
                "pitch": 45,
                "velocity": 25,
                "duration": 0.0840909,
                "tempo": 120.0
            },
            {
                "start_time": 17.1931818,
                "end_time": 17.3909091,
                "pitch": 45,
                "velocity": 25,
                "duration": 0.1977273,
                "tempo": 120.0
            },
            {
                "start_time": 17.4068182,
                "end_time": 17.6022727,
                "pitch": 45,
                "velocity": 25,
                "duration": 0.1954545,
                "tempo": 120.0
            },
            {
                "start_time": 17.6204545,
                "end_time": 17.8204545,
                "pitch": 45,
                "velocity": 25,
                "duration": 0.2,
                "tempo": 120.0
            },
            {
                "start_time": 17.8363636,
                "end_time": 17.9204545,
                "pitch": 45,
                "velocity": 25,
                "duration": 0.0840909,
                "tempo": 120.0
            },
            {
                "start_time": 17.9363636,
                "end_time": 18.0204545,
                "pitch": 45,
                "velocity": 25,
                "duration": 0.0840909,
                "tempo": 120.0
            },
            {
                "start_time": 18.0386364,
                "end_time": 18.1363636,
                "pitch": 45,
                "velocity": 25,
                "duration": 0.0977273,
                "tempo": 120.0
            },
            {
                "start_time": 18.1522727,
                "end_time": 18.35,
                "pitch": 45,
                "velocity": 25,
                "duration": 0.1977273,
                "tempo": 120.0
            },
            {
                "start_time": 18.3659091,
                "end_time": 18.4477273,
                "pitch": 45,
                "velocity": 25,
                "duration": 0.0818182,
                "tempo": 120.0
            },
            {
                "start_time": 18.4636364,
                "end_time": 18.5477273,
                "pitch": 45,
                "velocity": 25,
                "duration": 0.0840909,
                "tempo": 120.0
            },
            {
                "start_time": 18.5636364,
                "end_time": 18.6636364,
                "pitch": 45,
                "velocity": 25,
                "duration": 0.1,
                "tempo": 120.0
            },
            {
                "start_time": 18.6818182,
                "end_time": 18.7659091,
                "pitch": 45,
                "velocity": 25,
                "duration": 0.0840909,
                "tempo": 120.0
            },
            {
                "start_time": 18.7818182,
                "end_time": 18.8818182,
                "pitch": 45,
                "velocity": 25,
                "duration": 0.1,
                "tempo": 120.0
            },
            {
                "start_time": 18.8977273,
                "end_time": 19.0818182,
                "pitch": 45,
                "velocity": 25,
                "duration": 0.1840909,
                "tempo": 120.0
            },
            {
                "start_time": 19.1,
                "end_time": 19.3,
                "pitch": 45,
                "velocity": 25,
                "duration": 0.2,
                "tempo": 120.0
            },
            {
                "start_time": 19.3181818,
                "end_time": 19.5136364,
                "pitch": 45,
                "velocity": 25,
                "duration": 0.1954545,
                "tempo": 120.0
            },
            {
                "start_time": 19.5295455,
                "end_time": 19.6113636,
                "pitch": 45,
                "velocity": 25,
                "duration": 0.0818182,
                "tempo": 120.0
            },
            {
                "start_time": 19.6272727,
                "end_time": 19.8272727,
                "pitch": 41,
                "velocity": 25,
                "duration": 0.2,
                "tempo": 120.0
            },
            {
                "start_time": 19.8431818,
                "end_time": 20.0431818,
                "pitch": 41,
                "velocity": 25,
                "duration": 0.2,
                "tempo": 120.0
            },
            {
                "start_time": 20.0613636,
                "end_time": 20.1454545,
                "pitch": 41,
                "velocity": 25,
                "duration": 0.0840909,
                "tempo": 120.0
            },
            {
                "start_time": 20.1613636,
                "end_time": 20.3590909,
                "pitch": 41,
                "velocity": 25,
                "duration": 0.1977273,
                "tempo": 120.0
            },
            {
                "start_time": 20.375,
                "end_time": 20.4727273,
                "pitch": 45,
                "velocity": 25,
                "duration": 0.0977273,
                "tempo": 120.0
            },
            {
                "start_time": 20.4886364,
                "end_time": 20.5704545,
                "pitch": 45,
                "velocity": 25,
                "duration": 0.0818182,
                "tempo": 120.0
            },
            {
                "start_time": 20.5863636,
                "end_time": 20.7886364,
                "pitch": 45,
                "velocity": 25,
                "duration": 0.2022727,
                "tempo": 120.0
            },
            {
                "start_time": 20.8045455,
                "end_time": 21.0068182,
                "pitch": 45,
                "velocity": 25,
                "duration": 0.2022727,
                "tempo": 120.0
            },
            {
                "start_time": 21.0227273,
                "end_time": 21.2113636,
                "pitch": 45,
                "velocity": 25,
                "duration": 0.1886364,
                "tempo": 120.0
            },
            {
                "start_time": 21.2272727,
                "end_time": 21.3295455,
                "pitch": 45,
                "velocity": 25,
                "duration": 0.1022727,
                "tempo": 120.0
            },
            {
                "start_time": 21.3477273,
                "end_time": 21.4318182,
                "pitch": 45,
                "velocity": 25,
                "duration": 0.0840909,
                "tempo": 120.0
            },
            {
                "start_time": 21.45,
                "end_time": 21.5454545,
                "pitch": 45,
                "velocity": 25,
                "duration": 0.0954545,
                "tempo": 120.0
            },
            {
                "start_time": 21.5613636,
                "end_time": 21.7363636,
                "pitch": 45,
                "velocity": 25,
                "duration": 0.175,
                "tempo": 120.0
            },
            {
                "start_time": 21.7522727,
                "end_time": 21.8477273,
                "pitch": 45,
                "velocity": 25,
                "duration": 0.0954545,
                "tempo": 120.0
            },
            {
                "start_time": 21.8636364,
                "end_time": 21.95,
                "pitch": 45,
                "velocity": 25,
                "duration": 0.0863636,
                "tempo": 120.0
            },
            {
                "start_time": 21.9659091,
                "end_time": 22.0681818,
                "pitch": 45,
                "velocity": 25,
                "duration": 0.1022727,
                "tempo": 120.0
            },
            {
                "start_time": 22.0863636,
                "end_time": 22.1704545,
                "pitch": 45,
                "velocity": 25,
                "duration": 0.0840909,
                "tempo": 120.0
            },
            {
                "start_time": 22.1886364,
                "end_time": 22.275,
                "pitch": 45,
                "velocity": 25,
                "duration": 0.0863636,
                "tempo": 120.0
            },
            {
                "start_time": 22.2909091,
                "end_time": 22.4818182,
                "pitch": 45,
                "velocity": 25,
                "duration": 0.1909091,
                "tempo": 120.0
            },
            {
                "start_time": 22.4977273,
                "end_time": 22.6886364,
                "pitch": 45,
                "velocity": 25,
                "duration": 0.1909091,
                "tempo": 120.0
            },
            {
                "start_time": 22.7045455,
                "end_time": 22.9090909,
                "pitch": 45,
                "velocity": 25,
                "duration": 0.2045455,
                "tempo": 120.0
            },
            {
                "start_time": 22.9272727,
                "end_time": 23.0136364,
                "pitch": 45,
                "velocity": 25,
                "duration": 0.0863636,
                "tempo": 120.0
            },
            {
                "start_time": 23.0295455,
                "end_time": 23.2340909,
                "pitch": 41,
                "velocity": 25,
                "duration": 0.2045455,
                "tempo": 120.0
            },
            {
                "start_time": 23.25,
                "end_time": 23.45,
                "pitch": 41,
                "velocity": 25,
                "duration": 0.2,
                "tempo": 120.0
            },
            {
                "start_time": 23.4681818,
                "end_time": 23.5522727,
                "pitch": 41,
                "velocity": 25,
                "duration": 0.0840909,
                "tempo": 120.0
            },
            {
                "start_time": 23.5681818,
                "end_time": 23.7636364,
                "pitch": 41,
                "velocity": 25,
                "duration": 0.1954545,
                "tempo": 120.0
            },
            {
                "start_time": 23.7818182,
                "end_time": 23.8636364,
                "pitch": 45,
                "velocity": 25,
                "duration": 0.0818182,
                "tempo": 120.0
            },
            {
                "start_time": 23.8795455,
                "end_time": 23.9772727,
                "pitch": 45,
                "velocity": 25,
                "duration": 0.0977273,
                "tempo": 120.0
            },
            {
                "start_time": 23.9931818,
                "end_time": 24.1954545,
                "pitch": 45,
                "velocity": 25,
                "duration": 0.2022727,
                "tempo": 120.0
            },
            {
                "start_time": 24.2113636,
                "end_time": 24.3954545,
                "pitch": 45,
                "velocity": 25,
                "duration": 0.1840909,
                "tempo": 120.0
            },
            {
                "start_time": 24.4113636,
                "end_time": 24.6090909,
                "pitch": 45,
                "velocity": 25,
                "duration": 0.1977273,
                "tempo": 120.0
            },
            {
                "start_time": 24.625,
                "end_time": 24.7227273,
                "pitch": 45,
                "velocity": 25,
                "duration": 0.0977273,
                "tempo": 120.0
            },
            {
                "start_time": 24.7409091,
                "end_time": 24.8227273,
                "pitch": 45,
                "velocity": 25,
                "duration": 0.0818182,
                "tempo": 120.0
            },
            {
                "start_time": 24.8386364,
                "end_time": 24.9227273,
                "pitch": 45,
                "velocity": 25,
                "duration": 0.0840909,
                "tempo": 120.0
            },
            {
                "start_time": 24.9386364,
                "end_time": 25.1386364,
                "pitch": 45,
                "velocity": 25,
                "duration": 0.2,
                "tempo": 120.0
            },
            {
                "start_time": 25.1568182,
                "end_time": 25.2568182,
                "pitch": 45,
                "velocity": 25,
                "duration": 0.1,
                "tempo": 120.0
            },
            {
                "start_time": 25.2727273,
                "end_time": 25.3568182,
                "pitch": 45,
                "velocity": 25,
                "duration": 0.0840909,
                "tempo": 120.0
            },
            {
                "start_time": 25.3727273,
                "end_time": 25.4568182,
                "pitch": 45,
                "velocity": 25,
                "duration": 0.0840909,
                "tempo": 120.0
            },
            {
                "start_time": 25.475,
                "end_time": 25.575,
                "pitch": 45,
                "velocity": 25,
                "duration": 0.1,
                "tempo": 120.0
            },
            {
                "start_time": 25.5909091,
                "end_time": 25.675,
                "pitch": 45,
                "velocity": 25,
                "duration": 0.0840909,
                "tempo": 120.0
            },
            {
                "start_time": 25.6909091,
                "end_time": 25.8886364,
                "pitch": 45,
                "velocity": 25,
                "duration": 0.1977273,
                "tempo": 120.0
            },
            {
                "start_time": 25.9045455,
                "end_time": 26.1,
                "pitch": 45,
                "velocity": 25,
                "duration": 0.1954545,
                "tempo": 120.0
            },
            {
                "start_time": 26.1181818,
                "end_time": 26.3181818,
                "pitch": 45,
                "velocity": 25,
                "duration": 0.2,
                "tempo": 120.0
            },
            {
                "start_time": 26.3340909,
                "end_time": 26.4181818,
                "pitch": 45,
                "velocity": 25,
                "duration": 0.0840909,
                "tempo": 120.0
            },
            {
                "start_time": 26.4363636,
                "end_time": 26.6340909,
                "pitch": 41,
                "velocity": 25,
                "duration": 0.1977273,
                "tempo": 120.0
            },
            {
                "start_time": 26.65,
                "end_time": 26.8477273,
                "pitch": 41,
                "velocity": 25,
                "duration": 0.1977273,
                "tempo": 120.0
            },
            {
                "start_time": 26.8636364,
                "end_time": 26.9454545,
                "pitch": 41,
                "velocity": 25,
                "duration": 0.0818182,
                "tempo": 120.0
            },
            {
                "start_time": 26.9613636,
                "end_time": 27.1636364,
                "pitch": 41,
                "velocity": 25,
                "duration": 0.2022727,
                "tempo": 120.0
            },
            {
                "start_time": 27.1795455,
                "end_time": 27.2636364,
                "pitch": 43,
                "velocity": 25,
                "duration": 0.0840909,
                "tempo": 120.0
            },
            {
                "start_time": 27.2795455,
                "end_time": 27.3795455,
                "pitch": 43,
                "velocity": 25,
                "duration": 0.1,
                "tempo": 120.0
            },
            {
                "start_time": 27.3977273,
                "end_time": 27.4818182,
                "pitch": 43,
                "velocity": 25,
                "duration": 0.0840909,
                "tempo": 120.0
            },
            {
                "start_time": 27.5,
                "end_time": 27.7045455,
                "pitch": 43,
                "velocity": 25,
                "duration": 0.2045455,
                "tempo": 120.0
            },
            {
                "start_time": 27.7227273,
                "end_time": 27.8068182,
                "pitch": 43,
                "velocity": 25,
                "duration": 0.0840909,
                "tempo": 120.0
            },
            {
                "start_time": 27.825,
                "end_time": 28.1113636,
                "pitch": 43,
                "velocity": 25,
                "duration": 0.2863636,
                "tempo": 120.0
            },
            {
                "start_time": 28.1272727,
                "end_time": 28.3227273,
                "pitch": 43,
                "velocity": 25,
                "duration": 0.1954545,
                "tempo": 120.0
            },
            {
                "start_time": 28.3409091,
                "end_time": 28.5454545,
                "pitch": 43,
                "velocity": 25,
                "duration": 0.2045455,
                "tempo": 120.0
            },
            {
                "start_time": 28.5636364,
                "end_time": 28.6477273,
                "pitch": 43,
                "velocity": 25,
                "duration": 0.0840909,
                "tempo": 120.0
            },
            {
                "start_time": 28.6659091,
                "end_time": 28.8795455,
                "pitch": 43,
                "velocity": 25,
                "duration": 0.2136364,
                "tempo": 120.0
            }
        ]
    }
}