{
    "mood": "angry",
    "instruments": {
        "Trumpet": [
            {
                "start_time": 12.8181818,
                "end_time": 12.9022727,
                "pitch": 57,
                "velocity": 64,
                "duration": 0.0840909,
                "tempo": 120.0
            },
            {
                "start_time": 13.4181818,
                "end_time": 13.5022727,
                "pitch": 59,
                "velocity": 64,
                "duration": 0.0840909,
                "tempo": 120.0
            },
            {
                "start_time": 14.625,
                "end_time": 14.8090909,
                "pitch": 60,
                "velocity": 64,
                "duration": 0.1840909,
                "tempo": 120.0
            },
            {
                "start_time": 15.0227273,
                "end_time": 15.2022727,
                "pitch": 59,
                "velocity": 64,
                "duration": 0.1795455,
                "tempo": 120.0
            },
            {
                "start_time": 15.2181818,
                "end_time": 15.3045455,
                "pitch": 60,
                "velocity": 64,
                "duration": 0.0863636,
                "tempo": 120.0
            },
            {
                "start_time": 15.4227273,
                "end_time": 15.5090909,
                "pitch": 59,
                "velocity": 64,
                "duration": 0.0863636,
                "tempo": 120.0
            },
            {
                "start_time": 15.6295455,
                "end_time": 15.7136364,
                "pitch": 57,
                "velocity": 64,
                "duration": 0.0840909,
                "tempo": 120.0
            },
            {
                "start_time": 15.8295455,
                "end_time": 15.9136364,
                "pitch": 55,
                "velocity": 64,
                "duration": 0.0840909,
                "tempo": 120.0
            },
            {
                "start_time": 16.0318182,
                "end_time": 16.1159091,
                "pitch": 57,
                "velocity": 64,
                "duration": 0.0840909,
                "tempo": 120.0
            },
            {
                "start_time": 16.6295455,
                "end_time": 16.7113636,
                "pitch": 59,
                "velocity": 64,
                "duration": 0.0818182,
                "tempo": 120.0
            },
            {
                "start_time": 17.8340909,
                "end_time": 17.9204545,
                "pitch": 60,
                "velocity": 64,
                "duration": 0.0863636,
                "tempo": 120.0
            },
            {
                "start_time": 18.0409091,
                "end_time": 18.2227273,
                "pitch": 59,
                "velocity": 64,
                "duration": 0.1818182,
                "tempo": 120.0
            },
            {
                "start_time": 18.4409091,
                "end_time": 18.5227273,
                "pitch": 62,
                "velocity": 64,
                "duration": 0.0818182,
                "tempo": 120.0
            },
            {
                "start_time": 18.8318182,
                "end_time": 18.9159091,
                "pitch": 62,
                "velocity": 64,
                "duration": 0.0840909,
                "tempo": 120.0
            },
            {
                "start_time": 19.0340909,
                "end_time": 19.1181818,
                "pitch": 62,
                "velocity": 64,
                "duration": 0.0840909,
                "tempo": 120.0
            },
            {
                "start_time": 19.2340909,
                "end_time": 19.3204545,
                "pitch": 57,
                "velocity": 64,
                "duration": 0.0863636,
                "tempo": 120.0
            },
            {
                "start_time": 19.8409091,
                "end_time": 19.9227273,
                "pitch": 59,
                "velocity": 64,
                "duration": 0.0818182,
                "tempo": 120.0
            },
            {
                "start_time": 21.0522727,
                "end_time": 21.2340909,
                "pitch": 60,
                "velocity": 64,
                "duration": 0.1818182,
                "tempo": 120.0
            },
            {
                "start_time": 21.4477273,
                "end_time": 21.6272727,
                "pitch": 59,
                "velocity": 64,
                "duration": 0.1795455,
                "tempo": 120.0
            },
            {
                "start_time": 21.6431818,
                "end_time": 21.7295455,
                "pitch": 60,
                "velocity": 64,
                "duration": 0.0863636,
                "tempo": 120.0
            },
            {
                "start_time": 21.8477273,
                "end_time": 21.9340909,
                "pitch": 59,
                "velocity": 64,
                "duration": 0.0863636,
                "tempo": 120.0
            },
            {
                "start_time": 22.0545455,
                "end_time": 22.1386364,
                "pitch": 57,
                "velocity": 64,
                "duration": 0.0840909,
                "tempo": 120.0
            },
            {
                "start_time": 22.2545455,
                "end_time": 22.3386364,
                "pitch": 55,
                "velocity": 64,
                "duration": 0.0840909,
                "tempo": 120.0
            },
            {
                "start_time": 22.4545455,
                "end_time": 22.5386364,
                "pitch": 57,
                "velocity": 64,
                "duration": 0.0840909,
                "tempo": 120.0
            },
            {
                "start_time": 23.0568182,
                "end_time": 23.1363636,
                "pitch": 59,
                "velocity": 64,
                "duration": 0.0795455,
                "tempo": 120.0
            },
            {
                "start_time": 24.2613636,
                "end_time": 24.3431818,
                "pitch": 60,
                "velocity": 64,
                "duration": 0.0818182,
                "tempo": 120.0
            },
            {
                "start_time": 24.4613636,
                "end_time": 24.6454545,
                "pitch": 59,
                "velocity": 64,
                "duration": 0.1840909,
                "tempo": 120.0
            },
            {
                "start_time": 24.8636364,
                "end_time": 24.9454545,
                "pitch": 62,
                "velocity": 64,
                "duration": 0.0818182,
                "tempo": 120.0
            },
            {
                "start_time": 25.2545455,
                "end_time": 25.3386364,
                "pitch": 62,
                "velocity": 64,
                "duration": 0.0840909,
                "tempo": 120.0
            },
            {
                "start_time": 25.4545455,
                "end_time": 25.5386364,
                "pitch": 62,
                "velocity": 64,
                "duration": 0.0840909,
                "tempo": 120.0
            },
            {
                "start_time": 25.6545455,
                "end_time": 25.8431818,
                "pitch": 62,
                "velocity": 64,
                "duration": 0.1886364,
                "tempo": 120.0
            },
            {
                "start_time": 26.2613636,
                "end_time": 27.2431818,
                "pitch": 60,
                "velocity": 64,
                "duration": 0.9818182,
                "tempo": 120.0
            },
            {
                "start_time": 27.4659091,
                "end_time": 27.5522727,
                "pitch": 65,
                "velocity": 64,
                "duration": 0.0863636,
                "tempo": 120.0
            },
            {
                "start_time": 27.6704545,
                "end_time": 27.7545455,
                "pitch": 65,
                "velocity": 64,
                "duration": 0.0840909,
                "tempo": 120.0
            },
            {
                "start_time": 28.0704545,
                "end_time": 28.1545455,
                "pitch": 64,
                "velocity": 64,
                "duration": 0.0840909,
                "tempo": 120.0
            },
            {
                "start_time": 28.2704545,
                "end_time": 28.6590909,
                "pitch": 62,
                "velocity": 64,
                "duration": 0.3886364,
                "tempo": 120.0
            },
            {
                "start_time": 28.6772727,
                "end_time": 28.7613636,
                "pitch": 60,
                "velocity": 64,
                "duration": 0.0840909,
                "tempo": 120.0
            },
            {
                "start_time": 28.7795455,
                "end_time": 28.8636364,
                "pitch": 60,
                "velocity": 64,
                "duration": 0.0840909,
                "tempo": 120.0
            },
            {
                "start_time": 28.8818182,
                "end_time": 29.0613636,
                "pitch": 62,
                "velocity": 64,
                "duration": 0.1795455,
                "tempo": 120.0
            },
            {
                "start_time": 29.4704545,
                "end_time": 30.0590909,
                "pitch": 60,
                "velocity": 64,
                "duration": 0.5886364,
                "tempo": 120.0
            },
            {
                "start_time": 30.0772727,
                "end_time": 30.2568182,
                "pitch": 57,
                "velocity": 64,
                "duration": 0.1795455,
                "tempo": 120.0
            },
            {
                "start_time": 30.2727273,
                "end_time": 30.3545455,
                "pitch": 59,
                "velocity": 64,
                "duration": 0.0818182,
                "tempo": 120.0
            },
            {
                "start_time": 30.4681818,
                "end_time": 30.8636364,
                "pitch": 72,
                "velocity": 64,
                "duration": 0.3954545,
                "tempo": 120.0
            },
            {
                "start_time": 31.0795455,
                "end_time": 31.2636364,
                "pitch": 71,
                "velocity": 64,
                "duration": 0.1840909,
                "tempo": 120.0
            },
            {
                "start_time": 31.475,
                "end_time": 31.6568182,
                "pitch": 69,
                "velocity": 64,
                "duration": 0.1818182,
                "tempo": 120.0
            },
            {
                "start_time": 31.6727273,
                "end_time": 31.7568182,
                "pitch": 67,
                "velocity": 64,
                "duration": 0.0840909,
                "tempo": 120.0
            },
            {
                "start_time": 32.2818182,
                "end_time": 32.3659091,
                "pitch": 59,
                "velocity": 64,
                "duration": 0.0840909,
                "tempo": 120.0
            },
            {
                "start_time": 32.4818182,
                "end_time": 32.5659091,
                "pitch": 57,
                "velocity": 64,
                "duration": 0.0840909,
                "tempo": 120.0
            },
            {
                "start_time": 32.8863636,
                "end_time": 32.9681818,
                "pitch": 59,
                "velocity": 64,
                "duration": 0.0818182,
                "tempo": 120.0
            },
            {
                "start_time": 33.0863636,
                "end_time": 33.1681818,
                "pitch": 57,
                "velocity": 64,
                "duration": 0.0818182,
                "tempo": 120.0
            },
            {
                "start_time": 33.2863636,
                "end_time": 33.3681818,
                "pitch": 64,
                "velocity": 64,
                "duration": 0.0818182,
                "tempo": 120.0
            },
            {
                "start_time": 33.4863636,
                "end_time": 33.5681818,
                "pitch": 64,
                "velocity": 64,
                "duration": 0.0818182,
                "tempo": 120.0
            },
            {
                "start_time": 33.6863636,
                "end_time": 33.8704545,
                "pitch": 65,
                "velocity": 64,
                "duration": 0.1840909,
                "tempo": 120.0
            },
            {
                "start_time": 33.8863636,
                "end_time": 33.9704545,
                "pitch": 64,
                "velocity": 64,
                "duration": 0.0840909,
                "tempo": 120.0
            },
            {
                "start_time": 34.2840909,
                "end_time": 34.3659091,
                "pitch": 62,
                "velocity": 64,
                "duration": 0.0818182,
                "tempo": 120.0
            },
            {
                "start_time": 34.8840909,
                "end_time": 34.9659091,
                "pitch": 69,
                "velocity": 64,
                "duration": 0.0818182,
                "tempo": 120.0
            },
            {
                "start_time": 35.4886364,
                "end_time": 35.575,
                "pitch": 59,
                "velocity": 64,
                "duration": 0.0863636,
                "tempo": 120.0
            },
            {
                "start_time": 35.6931818,
                "end_time": 35.7772727,
                "pitch": 57,
                "velocity": 64,
                "duration": 0.0840909,
                "tempo": 120.0
            },
            {
                "start_time": 36.0977273,
                "end_time": 36.1818182,
                "pitch": 59,
                "velocity": 64,
                "duration": 0.0840909,
                "tempo": 120.0
            },
            {
                "start_time": 36.3022727,
                "end_time": 36.3863636,
                "pitch": 57,
                "velocity": 64,
                "duration": 0.0840909,
                "tempo": 120.0
            },
            {
                "start_time": 36.5068182,
                "end_time": 36.5886364,
                "pitch": 64,
                "velocity": 64,
                "duration": 0.0818182,
                "tempo": 120.0
            },
            {
                "start_time": 36.7045455,
                "end_time": 36.7863636,
                "pitch": 64,
                "velocity": 64,
                "duration": 0.0818182,
                "tempo": 120.0
            },
            {
                "start_time": 36.9,
                "end_time": 37.0818182,
                "pitch": 69,
                "velocity": 64,
                "duration": 0.1818182,
                "tempo": 120.0
            },
            {
                "start_time": 37.5,
                "end_time": 37.6818182,
                "pitch": 71,
                "velocity": 64,
                "duration": 0.1818182,
                "tempo": 120.0
            },
            {
                "start_time": 38.1022727,
                "end_time": 38.2818182,
                "pitch": 72,
                "velocity": 64,
                "duration": 0.1795455,
                "tempo": 120.0
            },
            {
                "start_time": 38.2977273,
                "end_time": 38.4772727,
                "pitch": 74,
                "velocity": 64,
                "duration": 0.1795455,
                "tempo": 120.0
            }
        ],
        "Electric Guitar (clean)": [
            {
                "start_time": 0.0,
                "end_time": 1.5522727,
                "pitch": 38,
                "velocity": 51,
                "duration": 1.5522727,
                "tempo": 120.0
            },
            {
                "start_time": 1.5681818,
                "end_time": 1.6522727,
                "pitch": 37,
                "velocity": 51,
                "duration": 0.0840909,
                "tempo": 120.0
            },
            {
                "start_time": 1.7704545,
                "end_time": 1.8545455,
                "pitch": 37,
                "velocity": 51,
                "duration": 0.0840909,
                "tempo": 120.0
            },
            {
                "start_time": 2.9636364,
                "end_time": 3.0477273,
                "pitch": 37,
                "velocity": 51,
                "duration": 0.0840909,
                "tempo": 120.0
            },
            {
                "start_time": 3.1636364,
                "end_time": 4.7613636,
                "pitch": 41,
                "velocity": 51,
                "duration": 1.5977273,
                "tempo": 120.0
            },
            {
                "start_time": 4.7772727,
                "end_time": 4.8613636,
                "pitch": 40,
                "velocity": 51,
                "duration": 0.0840909,
                "tempo": 120.0
            },
            {
                "start_time": 4.9772727,
                "end_time": 5.0613636,
                "pitch": 40,
                "velocity": 51,
                "duration": 0.0840909,
                "tempo": 120.0
            },
            {
                "start_time": 5.1795455,
                "end_time": 5.2636364,
                "pitch": 40,
                "velocity": 51,
                "duration": 0.0840909,
                "tempo": 120.0
            },
            {
                "start_time": 6.3772727,
                "end_time": 6.5613636,
                "pitch": 38,
                "velocity": 51,
                "duration": 0.1840909,
                "tempo": 120.0
            },
            {
                "start_time": 6.5772727,
                "end_time": 6.7613636,
                "pitch": 37,
                "velocity": 51,
                "duration": 0.1840909,
                "tempo": 120.0
            },
            {
                "start_time": 6.7772727,
                "end_time": 6.9659091,
                "pitch": 41,
                "velocity": 51,
                "duration": 0.1886364,
                "tempo": 120.0
            },
            {
                "start_time": 6.9818182,
                "end_time": 7.1704545,
                "pitch": 40,
                "velocity": 51,
                "duration": 0.1886364,
                "tempo": 120.0
            },
            {
                "start_time": 7.3840909,
                "end_time": 7.4659091,
                "pitch": 33,
                "velocity": 51,
                "duration": 0.0818182,
                "tempo": 120.0
            },
            {
                "start_time": 7.5795455,
                "end_time": 7.6636364,
                "pitch": 33,
                "velocity": 51,
                "duration": 0.0840909,
                "tempo": 120.0
            },
            {
                "start_time": 7.7818182,
                "end_time": 7.8659091,
                "pitch": 33,
                "velocity": 51,
                "duration": 0.0840909,
                "tempo": 120.0
            },
            {
                "start_time": 7.9818182,
                "end_time": 8.1681818,
                "pitch": 41,
                "velocity": 51,
                "duration": 0.1863636,
                "tempo": 120.0
            },
            {
                "start_time": 8.1840909,
                "end_time": 8.3681818,
                "pitch": 38,
                "velocity": 51,
                "duration": 0.1840909,
                "tempo": 120.0
            },
            {
                "start_time": 8.3863636,
                "end_time": 8.5727273,
                "pitch": 45,
                "velocity": 51,
                "duration": 0.1863636,
                "tempo": 120.0
            },
            {
                "start_time": 8.5909091,
                "end_time": 8.7795455,
                "pitch": 43,
                "velocity": 51,
                "duration": 0.1886364,
                "tempo": 120.0
            },
            {
                "start_time": 8.9931818,
                "end_time": 9.0727273,
                "pitch": 40,
                "velocity": 51,
                "duration": 0.0795455,
                "tempo": 120.0
            },
            {
                "start_time": 9.1886364,
                "end_time": 9.2727273,
                "pitch": 40,
                "velocity": 51,
                "duration": 0.0840909,
                "tempo": 120.0
            },
            {
                "start_time": 9.3931818,
                "end_time": 9.4795455,
                "pitch": 40,
                "velocity": 51,
                "duration": 0.0863636,
                "tempo": 120.0
            },
            {
                "start_time": 9.5977273,
                "end_time": 9.9840909,
                "pitch": 45,
                "velocity": 51,
                "duration": 0.3863636,
                "tempo": 120.0
            },
            {
                "start_time": 10.0022727,
                "end_time": 10.3886364,
                "pitch": 43,
                "velocity": 51,
                "duration": 0.3863636,
                "tempo": 120.0
            },
            {
                "start_time": 10.4045455,
                "end_time": 10.7909091,
                "pitch": 41,
                "velocity": 51,
                "duration": 0.3863636,
                "tempo": 120.0
            },
            {
                "start_time": 10.8068182,
                "end_time": 11.1909091,
                "pitch": 40,
                "velocity": 51,
                "duration": 0.3840909,
                "tempo": 120.0
            },
            {
                "start_time": 11.2068182,
                "end_time": 11.3909091,
                "pitch": 33,
                "velocity": 51,
                "duration": 0.1840909,
                "tempo": 120.0
            },
            {
                "start_time": 11.4090909,
                "end_time": 11.5931818,
                "pitch": 45,
                "velocity": 51,
                "duration": 0.1840909,
                "tempo": 120.0
            },
            {
                "start_time": 11.6090909,
                "end_time": 11.7931818,
                "pitch": 31,
                "velocity": 51,
                "duration": 0.1840909,
                "tempo": 120.0
            },
            {
                "start_time": 11.8113636,
                "end_time": 11.9954545,
                "pitch": 43,
                "velocity": 51,
                "duration": 0.1840909,
                "tempo": 120.0
            },
            {
                "start_time": 12.0113636,
                "end_time": 12.1977273,
                "pitch": 29,
                "velocity": 51,
                "duration": 0.1863636,
                "tempo": 120.0
            },
            {
                "start_time": 12.2136364,
                "end_time": 12.3977273,
                "pitch": 41,
                "velocity": 51,
                "duration": 0.1840909,
                "tempo": 120.0
            },
            {
                "start_time": 12.4159091,
                "end_time": 12.6,
                "pitch": 28,
                "velocity": 51,
                "duration": 0.1840909,
                "tempo": 120.0
            },
            {
                "start_time": 12.6159091,
                "end_time": 12.8,
                "pitch": 40,
                "velocity": 51,
                "duration": 0.1840909,
                "tempo": 120.0
            },
            {
                "start_time": 12.8181818,
                "end_time": 13.0022727,
                "pitch": 38,
                "velocity": 51,
                "duration": 0.1840909,
                "tempo": 120.0
            },
            {
                "start_time": 13.0181818,
                "end_time": 13.2022727,
                "pitch": 38,
                "velocity": 51,
                "duration": 0.1840909,
                "tempo": 120.0
            },
            {
                "start_time": 13.2181818,
                "end_time": 13.4022727,
                "pitch": 50,
                "velocity": 51,
                "duration": 0.1840909,
                "tempo": 120.0
            },
            {
                "start_time": 13.4181818,
                "end_time": 13.8090909,
                "pitch": 38,
                "velocity": 51,
                "duration": 0.3909091,
                "tempo": 120.0
            },
            {
                "start_time": 13.825,
                "end_time": 14.0136364,
                "pitch": 38,
                "velocity": 51,
                "duration": 0.1886364,
                "tempo": 120.0
            },
            {
                "start_time": 14.0318182,
                "end_time": 14.4068182,
                "pitch": 50,
                "velocity": 51,
                "duration": 0.375,
                "tempo": 120.0
            },
            {
                "start_time": 14.4227273,
                "end_time": 14.6068182,
                "pitch": 38,
                "velocity": 51,
                "duration": 0.1840909,
                "tempo": 120.0
            },
            {
                "start_time": 14.625,
                "end_time": 14.7090909,
                "pitch": 48,
                "velocity": 51,
                "duration": 0.0840909,
                "tempo": 120.0
            },
            {
                "start_time": 14.725,
                "end_time": 14.8090909,
                "pitch": 48,
                "velocity": 51,
                "duration": 0.0840909,
                "tempo": 120.0
            },
            {
                "start_time": 14.825,
                "end_time": 14.9068182,
                "pitch": 48,
                "velocity": 51,
                "duration": 0.0818182,
                "tempo": 120.0
            },
            {
                "start_time": 15.0227273,
                "end_time": 15.1045455,
                "pitch": 47,
                "velocity": 51,
                "duration": 0.0818182,
                "tempo": 120.0
            },
            {
                "start_time": 15.1204545,
                "end_time": 15.2022727,
                "pitch": 47,
                "velocity": 51,
                "duration": 0.0818182,
                "tempo": 120.0
            },
            {
                "start_time": 15.2181818,
                "end_time": 15.3045455,
                "pitch": 47,
                "velocity": 51,
                "duration": 0.0863636,
                "tempo": 120.0
            },
            {
                "start_time": 15.4227273,
                "end_time": 15.6113636,
                "pitch": 45,
                "velocity": 51,
                "duration": 0.1886364,
                "tempo": 120.0
            },
            {
                "start_time": 15.6295455,
                "end_time": 15.8136364,
                "pitch": 43,
                "velocity": 51,
                "duration": 0.1840909,
                "tempo": 120.0
            },
            {
                "start_time": 15.8295455,
                "end_time": 16.0159091,
                "pitch": 45,
                "velocity": 51,
                "duration": 0.1863636,
                "tempo": 120.0
            },
            {
                "start_time": 16.0318182,
                "end_time": 16.2159091,
                "pitch": 38,
                "velocity": 51,
                "duration": 0.1840909,
                "tempo": 120.0
            },
            {
                "start_time": 16.2318182,
                "end_time": 16.4181818,
                "pitch": 38,
                "velocity": 51,
                "duration": 0.1863636,
                "tempo": 120.0
            },
            {
                "start_time": 16.4340909,
                "end_time": 16.6136364,
                "pitch": 50,
                "velocity": 51,
                "duration": 0.1795455,
                "tempo": 120.0
            },
            {
                "start_time": 16.6295455,
                "end_time": 17.0181818,
                "pitch": 38,
                "velocity": 51,
                "duration": 0.3886364,
                "tempo": 120.0
            },
            {
                "start_time": 17.0363636,
                "end_time": 17.2295455,
                "pitch": 38,
                "velocity": 51,
                "duration": 0.1931818,
                "tempo": 120.0
            },
            {
                "start_time": 17.2477273,
                "end_time": 17.6136364,
                "pitch": 50,
                "velocity": 51,
                "duration": 0.3659091,
                "tempo": 120.0
            },
            {
                "start_time": 17.6295455,
                "end_time": 17.8181818,
                "pitch": 38,
                "velocity": 51,
                "duration": 0.1886364,
                "tempo": 120.0
            },
            {
                "start_time": 17.8340909,
                "end_time": 17.9204545,
                "pitch": 48,
                "velocity": 51,
                "duration": 0.0863636,
                "tempo": 120.0
            },
            {
                "start_time": 17.9363636,
                "end_time": 18.0227273,
                "pitch": 48,
                "velocity": 51,
                "duration": 0.0863636,
                "tempo": 120.0
            },
            {
                "start_time": 18.0409091,
                "end_time": 18.1227273,
                "pitch": 48,
                "velocity": 51,
                "duration": 0.0818182,
                "tempo": 120.0
            },
            {
                "start_time": 18.2409091,
                "end_time": 18.3227273,
                "pitch": 47,
                "velocity": 51,
                "duration": 0.0818182,
                "tempo": 120.0
            },
            {
                "start_time": 18.3409091,
                "end_time": 18.4227273,
                "pitch": 47,
                "velocity": 51,
                "duration": 0.0818182,
                "tempo": 120.0
            },
            {
                "start_time": 18.4409091,
                "end_time": 18.5227273,
                "pitch": 47,
                "velocity": 51,
                "duration": 0.0818182,
                "tempo": 120.0
            },
            {
                "start_time": 18.6363636,
                "end_time": 18.8159091,
                "pitch": 45,
                "velocity": 51,
                "duration": 0.1795455,
                "tempo": 120.0
            },
            {
                "start_time": 18.8318182,
                "end_time": 19.0159091,
                "pitch": 43,
                "velocity": 51,
                "duration": 0.1840909,
                "tempo": 120.0
            },
            {
                "start_time": 19.0340909,
                "end_time": 19.2181818,
                "pitch": 45,
                "velocity": 51,
                "duration": 0.1840909,
                "tempo": 120.0
            },
            {
                "start_time": 19.2340909,
                "end_time": 19.4227273,
                "pitch": 38,
                "velocity": 51,
                "duration": 0.1886364,
                "tempo": 120.0
            },
            {
                "start_time": 19.4409091,
                "end_time": 19.6295455,
                "pitch": 38,
                "velocity": 51,
                "duration": 0.1886364,
                "tempo": 120.0
            },
            {
                "start_time": 19.6454545,
                "end_time": 19.825,
                "pitch": 50,
                "velocity": 51,
                "duration": 0.1795455,
                "tempo": 120.0
            },
            {
                "start_time": 19.8409091,
                "end_time": 20.2295455,
                "pitch": 38,
                "velocity": 51,
                "duration": 0.3886364,
                "tempo": 120.0
            },
            {
                "start_time": 20.2477273,
                "end_time": 20.4409091,
                "pitch": 38,
                "velocity": 51,
                "duration": 0.1931818,
                "tempo": 120.0
            },
            {
                "start_time": 20.4590909,
                "end_time": 20.8363636,
                "pitch": 50,
                "velocity": 51,
                "duration": 0.3772727,
                "tempo": 120.0
            },
            {
                "start_time": 20.8522727,
                "end_time": 21.0340909,
                "pitch": 38,
                "velocity": 51,
                "duration": 0.1818182,
                "tempo": 120.0
            },
            {
                "start_time": 21.0522727,
                "end_time": 21.1340909,
                "pitch": 48,
                "velocity": 51,
                "duration": 0.0818182,
                "tempo": 120.0
            },
            {
                "start_time": 21.1522727,
                "end_time": 21.2340909,
                "pitch": 48,
                "velocity": 51,
                "duration": 0.0818182,
                "tempo": 120.0
            },
            {
                "start_time": 21.2522727,
                "end_time": 21.3340909,
                "pitch": 48,
                "velocity": 51,
                "duration": 0.0818182,
                "tempo": 120.0
            },
            {
                "start_time": 21.4477273,
                "end_time": 21.5295455,
                "pitch": 47,
                "velocity": 51,
                "duration": 0.0818182,
                "tempo": 120.0
            },
            {
                "start_time": 21.5454545,
                "end_time": 21.6272727,
                "pitch": 47,
                "velocity": 51,
                "duration": 0.0818182,
                "tempo": 120.0
            },
            {
                "start_time": 21.6431818,
                "end_time": 21.7295455,
                "pitch": 47,
                "velocity": 51,
                "duration": 0.0863636,
                "tempo": 120.0
            },
            {
                "start_time": 21.8477273,
                "end_time": 22.0363636,
                "pitch": 45,
                "velocity": 51,
                "duration": 0.1886364,
                "tempo": 120.0
            },
            {
                "start_time": 22.0545455,
                "end_time": 22.2386364,
                "pitch": 43,
                "velocity": 51,
                "duration": 0.1840909,
                "tempo": 120.0
            },
            {
                "start_time": 22.2545455,
                "end_time": 22.4386364,
                "pitch": 45,
                "velocity": 51,
                "duration": 0.1840909,
                "tempo": 120.0
            },
            {
                "start_time": 22.4545455,
                "end_time": 22.6431818,
                "pitch": 38,
                "velocity": 51,
                "duration": 0.1886364,
                "tempo": 120.0
            },
            {
                "start_time": 22.6590909,
                "end_time": 22.8477273,
                "pitch": 38,
                "velocity": 51,
                "duration": 0.1886364,
                "tempo": 120.0
            },
            {
                "start_time": 22.8636364,
                "end_time": 23.0409091,
                "pitch": 50,
                "velocity": 51,
                "duration": 0.1772727,
                "tempo": 120.0
            },
            {
                "start_time": 23.0568182,
                "end_time": 23.4386364,
                "pitch": 38,
                "velocity": 51,
                "duration": 0.3818182,
                "tempo": 120.0
            },
            {
                "start_time": 23.4568182,
                "end_time": 23.65,
                "pitch": 38,
                "velocity": 51,
                "duration": 0.1931818,
                "tempo": 120.0
            },
            {
                "start_time": 23.6681818,
                "end_time": 24.0431818,
                "pitch": 50,
                "velocity": 51,
                "duration": 0.375,
                "tempo": 120.0
            },
            {
                "start_time": 24.0613636,
                "end_time": 24.2431818,
                "pitch": 38,
                "velocity": 51,
                "duration": 0.1818182,
                "tempo": 120.0
            },
            {
                "start_time": 24.2613636,
                "end_time": 24.3431818,
                "pitch": 48,
                "velocity": 51,
                "duration": 0.0818182,
                "tempo": 120.0
            },
            {
                "start_time": 24.3613636,
                "end_time": 24.4431818,
                "pitch": 48,
                "velocity": 51,
                "duration": 0.0818182,
                "tempo": 120.0
            },
            {
                "start_time": 24.4613636,
                "end_time": 24.5431818,
                "pitch": 48,
                "velocity": 51,
                "duration": 0.0818182,
                "tempo": 120.0
            },
            {
                "start_time": 24.6613636,
                "end_time": 24.7454545,
                "pitch": 47,
                "velocity": 51,
                "duration": 0.0840909,
                "tempo": 120.0
            },
            {
                "start_time": 24.7613636,
                "end_time": 24.8454545,
                "pitch": 47,
                "velocity": 51,
                "duration": 0.0840909,
                "tempo": 120.0
            },
            {
                "start_time": 24.8636364,
                "end_time": 24.9454545,
                "pitch": 47,
                "velocity": 51,
                "duration": 0.0818182,
                "tempo": 120.0
            },
            {
                "start_time": 25.0590909,
                "end_time": 25.2386364,
                "pitch": 45,
                "velocity": 51,
                "duration": 0.1795455,
                "tempo": 120.0
            },
            {
                "start_time": 25.2545455,
                "end_time": 25.4386364,
                "pitch": 43,
                "velocity": 51,
                "duration": 0.1840909,
                "tempo": 120.0
            },
            {
                "start_time": 25.4545455,
                "end_time": 25.6386364,
                "pitch": 45,
                "velocity": 51,
                "duration": 0.1840909,
                "tempo": 120.0
            },
            {
                "start_time": 25.6545455,
                "end_time": 25.8431818,
                "pitch": 31,
                "velocity": 51,
                "duration": 0.1886364,
                "tempo": 120.0
            },
            {
                "start_time": 25.8613636,
                "end_time": 26.0477273,
                "pitch": 31,
                "velocity": 51,
                "duration": 0.1863636,
                "tempo": 120.0
            },
            {
                "start_time": 26.0659091,
                "end_time": 26.2454545,
                "pitch": 43,
                "velocity": 51,
                "duration": 0.1795455,
                "tempo": 120.0
            },
            {
                "start_time": 26.2613636,
                "end_time": 26.6454545,
                "pitch": 31,
                "velocity": 51,
                "duration": 0.3840909,
                "tempo": 120.0
            },
            {
                "start_time": 26.6636364,
                "end_time": 26.8522727,
                "pitch": 31,
                "velocity": 51,
                "duration": 0.1886364,
                "tempo": 120.0
            },
            {
                "start_time": 26.8681818,
                "end_time": 27.2431818,
                "pitch": 43,
                "velocity": 51,
                "duration": 0.375,
                "tempo": 120.0
            },
            {
                "start_time": 27.2613636,
                "end_time": 27.4477273,
                "pitch": 31,
                "velocity": 51,
                "duration": 0.1863636,
                "tempo": 120.0
            },
            {
                "start_time": 27.4659091,
                "end_time": 27.5522727,
                "pitch": 41,
                "velocity": 51,
                "duration": 0.0863636,
                "tempo": 120.0
            },
            {
                "start_time": 27.5681818,
                "end_time": 27.6545455,
                "pitch": 41,
                "velocity": 51,
                "duration": 0.0863636,
                "tempo": 120.0
            },
            {
                "start_time": 27.6704545,
                "end_time": 27.7545455,
                "pitch": 41,
                "velocity": 51,
                "duration": 0.0840909,
                "tempo": 120.0
            },
            {
                "start_time": 27.8704545,
                "end_time": 27.9545455,
                "pitch": 40,
                "velocity": 51,
                "duration": 0.0840909,
                "tempo": 120.0
            },
            {
                "start_time": 27.9704545,
                "end_time": 28.0545455,
                "pitch": 40,
                "velocity": 51,
                "duration": 0.0840909,
                "tempo": 120.0
            },
            {
                "start_time": 28.0704545,
                "end_time": 28.1545455,
                "pitch": 40,
                "velocity": 51,
                "duration": 0.0840909,
                "tempo": 120.0
            },
            {
                "start_time": 28.2704545,
                "end_time": 28.4545455,
                "pitch": 38,
                "velocity": 51,
                "duration": 0.1840909,
                "tempo": 120.0
            },
            {
                "start_time": 28.4704545,
                "end_time": 28.6590909,
                "pitch": 36,
                "velocity": 51,
                "duration": 0.1886364,
                "tempo": 120.0
            },
            {
                "start_time": 28.6772727,
                "end_time": 28.8636364,
                "pitch": 38,
                "velocity": 51,
                "duration": 0.1863636,
                "tempo": 120.0
            },
            {
                "start_time": 28.8818182,
                "end_time": 29.0613636,
                "pitch": 31,
                "velocity": 51,
                "duration": 0.1795455,
                "tempo": 120.0
            },
            {
                "start_time": 29.0772727,
                "end_time": 29.2590909,
                "pitch": 31,
                "velocity": 51,
                "duration": 0.1818182,
                "tempo": 120.0
            },
            {
                "start_time": 29.275,
                "end_time": 29.4545455,
                "pitch": 43,
                "velocity": 51,
                "duration": 0.1795455,
                "tempo": 120.0
            },
            {
                "start_time": 29.4704545,
                "end_time": 29.8545455,
                "pitch": 31,
                "velocity": 51,
                "duration": 0.3840909,
                "tempo": 120.0
            },
            {
                "start_time": 29.8727273,
                "end_time": 30.0590909,
                "pitch": 31,
                "velocity": 51,
                "duration": 0.1863636,
                "tempo": 120.0
            },
            {
                "start_time": 30.0772727,
                "end_time": 30.4522727,
                "pitch": 43,
                "velocity": 51,
                "duration": 0.375,
                "tempo": 120.0
            },
            {
                "start_time": 30.4681818,
                "end_time": 30.6568182,
                "pitch": 31,
                "velocity": 51,
                "duration": 0.1886364,
                "tempo": 120.0
            },
            {
                "start_time": 30.675,
                "end_time": 30.7590909,
                "pitch": 41,
                "velocity": 51,
                "duration": 0.0840909,
                "tempo": 120.0
            },
            {
                "start_time": 30.7772727,
                "end_time": 30.8636364,
                "pitch": 41,
                "velocity": 51,
                "duration": 0.0863636,
                "tempo": 120.0
            },
            {
                "start_time": 30.8795455,
                "end_time": 30.9636364,
                "pitch": 41,
                "velocity": 51,
                "duration": 0.0840909,
                "tempo": 120.0
            },
            {
                "start_time": 31.0795455,
                "end_time": 31.1636364,
                "pitch": 40,
                "velocity": 51,
                "duration": 0.0840909,
                "tempo": 120.0
            },
            {
                "start_time": 31.1795455,
                "end_time": 31.2636364,
                "pitch": 40,
                "velocity": 51,
                "duration": 0.0840909,
                "tempo": 120.0
            },
            {
                "start_time": 31.2795455,
                "end_time": 31.3613636,
                "pitch": 40,
                "velocity": 51,
                "duration": 0.0818182,
                "tempo": 120.0
            },
            {
                "start_time": 31.475,
                "end_time": 31.6568182,
                "pitch": 38,
                "velocity": 51,
                "duration": 0.1818182,
                "tempo": 120.0
            },
            {
                "start_time": 31.6727273,
                "end_time": 31.8590909,
                "pitch": 36,
                "velocity": 51,
                "duration": 0.1863636,
                "tempo": 120.0
            },
            {
                "start_time": 31.8772727,
                "end_time": 32.0659091,
                "pitch": 38,
                "velocity": 51,
                "duration": 0.1886364,
                "tempo": 120.0
            },
            {
                "start_time": 32.0818182,
                "end_time": 32.2659091,
                "pitch": 38,
                "velocity": 51,
                "duration": 0.1840909,
                "tempo": 120.0
            },
            {
                "start_time": 32.2818182,
                "end_time": 32.4659091,
                "pitch": 38,
                "velocity": 51,
                "duration": 0.1840909,
                "tempo": 120.0
            },
            {
                "start_time": 32.4818182,
                "end_time": 32.6681818,
                "pitch": 50,
                "velocity": 51,
                "duration": 0.1863636,
                "tempo": 120.0
            },
            {
                "start_time": 32.6840909,
                "end_time": 33.0681818,
                "pitch": 38,
                "velocity": 51,
                "duration": 0.3840909,
                "tempo": 120.0
            },
            {
                "start_time": 33.0863636,
                "end_time": 33.2681818,
                "pitch": 38,
                "velocity": 51,
                "duration": 0.1818182,
                "tempo": 120.0
            },
            {
                "start_time": 33.2863636,
                "end_time": 33.6681818,
                "pitch": 50,
                "velocity": 51,
                "duration": 0.3818182,
                "tempo": 120.0
            },
            {
                "start_time": 33.6863636,
                "end_time": 33.8704545,
                "pitch": 38,
                "velocity": 51,
                "duration": 0.1840909,
                "tempo": 120.0
            },
            {
                "start_time": 33.8863636,
                "end_time": 33.9704545,
                "pitch": 48,
                "velocity": 51,
                "duration": 0.0840909,
                "tempo": 120.0
            },
            {
                "start_time": 33.9886364,
                "end_time": 34.0704545,
                "pitch": 48,
                "velocity": 51,
                "duration": 0.0818182,
                "tempo": 120.0
            },
            {
                "start_time": 34.0886364,
                "end_time": 34.1704545,
                "pitch": 48,
                "velocity": 51,
                "duration": 0.0818182,
                "tempo": 120.0
            },
            {
                "start_time": 34.2840909,
                "end_time": 34.3659091,
                "pitch": 47,
                "velocity": 51,
                "duration": 0.0818182,
                "tempo": 120.0
            },
            {
                "start_time": 34.3818182,
                "end_time": 34.4636364,
                "pitch": 47,
                "velocity": 51,
                "duration": 0.0818182,
                "tempo": 120.0
            },
            {
                "start_time": 34.4795455,
                "end_time": 34.5636364,
                "pitch": 47,
                "velocity": 51,
                "duration": 0.0840909,
                "tempo": 120.0
            },
            {
                "start_time": 34.6818182,
                "end_time": 34.8659091,
                "pitch": 45,
                "velocity": 51,
                "duration": 0.1840909,
                "tempo": 120.0
            },
            {
                "start_time": 34.8840909,
                "end_time": 35.0659091,
                "pitch": 43,
                "velocity": 51,
                "duration": 0.1818182,
                "tempo": 120.0
            },
            {
                "start_time": 35.0840909,
                "end_time": 35.2659091,
                "pitch": 45,
                "velocity": 51,
                "duration": 0.1818182,
                "tempo": 120.0
            },
            {
                "start_time": 35.2840909,
                "end_time": 35.4704545,
                "pitch": 38,
                "velocity": 51,
                "duration": 0.1863636,
                "tempo": 120.0
            },
            {
                "start_time": 35.4886364,
                "end_time": 35.6772727,
                "pitch": 38,
                "velocity": 51,
                "duration": 0.1886364,
                "tempo": 120.0
            },
            {
                "start_time": 35.6931818,
                "end_time": 35.8795455,
                "pitch": 50,
                "velocity": 51,
                "duration": 0.1863636,
                "tempo": 120.0
            },
            {
                "start_time": 35.8954545,
                "end_time": 36.2840909,
                "pitch": 38,
                "velocity": 51,
                "duration": 0.3886364,
                "tempo": 120.0
            },
            {
                "start_time": 36.3022727,
                "end_time": 36.4909091,
                "pitch": 38,
                "velocity": 51,
                "duration": 0.1886364,
                "tempo": 120.0
            },
            {
                "start_time": 36.5068182,
                "end_time": 36.8840909,
                "pitch": 50,
                "velocity": 51,
                "duration": 0.3772727,
                "tempo": 120.0
            },
            {
                "start_time": 36.9,
                "end_time": 37.0818182,
                "pitch": 38,
                "velocity": 51,
                "duration": 0.1818182,
                "tempo": 120.0
            },
            {
                "start_time": 37.1,
                "end_time": 37.1818182,
                "pitch": 48,
                "velocity": 51,
                "duration": 0.0818182,
                "tempo": 120.0
            },
            {
                "start_time": 37.2,
                "end_time": 37.2818182,
                "pitch": 48,
                "velocity": 51,
                "duration": 0.0818182,
                "tempo": 120.0
            },
            {
                "start_time": 37.3,
                "end_time": 37.3818182,
                "pitch": 48,
                "velocity": 51,
                "duration": 0.0818182,
                "tempo": 120.0
            },
            {
                "start_time": 37.5,
                "end_time": 37.5818182,
                "pitch": 47,
                "velocity": 51,
                "duration": 0.0818182,
                "tempo": 120.0
            },
            {
                "start_time": 37.6,
                "end_time": 37.6818182,
                "pitch": 47,
                "velocity": 51,
                "duration": 0.0818182,
                "tempo": 120.0
            },
            {
                "start_time": 37.7,
                "end_time": 37.7840909,
                "pitch": 47,
                "velocity": 51,
                "duration": 0.0840909,
                "tempo": 120.0
            },
            {
                "start_time": 37.9,
                "end_time": 38.0863636,
                "pitch": 45,
                "velocity": 51,
                "duration": 0.1863636,
                "tempo": 120.0
            },
            {
                "start_time": 38.1022727,
                "end_time": 38.2818182,
                "pitch": 43,
                "velocity": 51,
                "duration": 0.1795455,
                "tempo": 120.0
            },
            {
                "start_time": 38.2977273,
                "end_time": 38.4772727,
                "pitch": 45,
                "velocity": 51,
                "duration": 0.1795455,
                "tempo": 120.0
            }
        ],
        "Lead 2 (sawtooth)": [
            {
                "start_time": 0.0,
                "end_time": 0.1636364,
                "pitch": 62,
                "velocity": 40,
                "duration": 0.1636364,
                "tempo": 120.0
            },
            {
                "start_time": 0.5659091,
                "end_time": 0.6454545,
                "pitch": 57,
                "velocity": 40,
                "duration": 0.0795455,
                "tempo": 120.0
            },
            {
                "start_time": 0.6613636,
                "end_time": 0.7409091,
                "pitch": 60,
                "velocity": 40,
                "duration": 0.0795455,
                "tempo": 120.0
            },
            {
                "start_time": 0.7568182,
                "end_time": 0.9454545,
                "pitch": 62,
                "velocity": 40,
                "duration": 0.1886364,
                "tempo": 120.0
            },
            {
                "start_time": 0.9636364,
                "end_time": 1.1522727,
                "pitch": 64,
                "velocity": 40,
                "duration": 0.1886364,
                "tempo": 120.0
            },
            {
                "start_time": 1.1681818,
                "end_time": 1.5522727,
                "pitch": 65,
                "velocity": 40,
                "duration": 0.3840909,
                "tempo": 120.0
            },
            {
                "start_time": 1.5681818,
                "end_time": 1.7522727,
                "pitch": 57,
                "velocity": 40,
                "duration": 0.1840909,
                "tempo": 120.0
            },
            {
                "start_time": 3.1636364,
                "end_time": 3.3477273,
                "pitch": 62,
                "velocity": 40,
                "duration": 0.1840909,
                "tempo": 120.0
            },
            {
                "start_time": 3.7659091,
                "end_time": 3.85,
                "pitch": 57,
                "velocity": 40,
                "duration": 0.0840909,
                "tempo": 120.0
            },
            {
                "start_time": 3.8659091,
                "end_time": 3.95,
                "pitch": 60,
                "velocity": 40,
                "duration": 0.0840909,
                "tempo": 120.0
            },
            {
                "start_time": 3.9659091,
                "end_time": 4.1545455,
                "pitch": 62,
                "velocity": 40,
                "duration": 0.1886364,
                "tempo": 120.0
            },
            {
                "start_time": 4.1704545,
                "end_time": 4.3590909,
                "pitch": 64,
                "velocity": 40,
                "duration": 0.1886364,
                "tempo": 120.0
            },
            {
                "start_time": 4.3772727,
                "end_time": 4.7613636,
                "pitch": 65,
                "velocity": 40,
                "duration": 0.3840909,
                "tempo": 120.0
            },
            {
                "start_time": 4.7772727,
                "end_time": 4.9613636,
                "pitch": 67,
                "velocity": 40,
                "duration": 0.1840909,
                "tempo": 120.0
            },
            {
                "start_time": 6.3772727,
                "end_time": 6.4613636,
                "pitch": 74,
                "velocity": 40,
                "duration": 0.0840909,
                "tempo": 120.0
            },
            {
                "start_time": 6.4772727,
                "end_time": 6.5613636,
                "pitch": 72,
                "velocity": 40,
                "duration": 0.0840909,
                "tempo": 120.0
            },
            {
                "start_time": 6.5772727,
                "end_time": 6.6613636,
                "pitch": 69,
                "velocity": 40,
                "duration": 0.0840909,
                "tempo": 120.0
            },
            {
                "start_time": 6.6772727,
                "end_time": 6.7613636,
                "pitch": 65,
                "velocity": 40,
                "duration": 0.0840909,
                "tempo": 120.0
            },
            {
                "start_time": 6.7772727,
                "end_time": 6.8636364,
                "pitch": 67,
                "velocity": 40,
                "duration": 0.0863636,
                "tempo": 120.0
            },
            {
                "start_time": 6.8795455,
                "end_time": 6.9659091,
                "pitch": 65,
                "velocity": 40,
                "duration": 0.0863636,
                "tempo": 120.0
            },
            {
                "start_time": 6.9818182,
                "end_time": 7.0681818,
                "pitch": 62,
                "velocity": 40,
                "duration": 0.0863636,
                "tempo": 120.0
            },
            {
                "start_time": 7.0840909,
                "end_time": 7.1704545,
                "pitch": 60,
                "velocity": 40,
                "duration": 0.0863636,
                "tempo": 120.0
            },
            {
                "start_time": 7.3840909,
                "end_time": 7.4659091,
                "pitch": 60,
                "velocity": 40,
                "duration": 0.0818182,
                "tempo": 120.0
            },
            {
                "start_time": 7.4818182,
                "end_time": 7.5636364,
                "pitch": 62,
                "velocity": 40,
                "duration": 0.0818182,
                "tempo": 120.0
            },
            {
                "start_time": 7.5795455,
                "end_time": 7.6636364,
                "pitch": 65,
                "velocity": 40,
                "duration": 0.0840909,
                "tempo": 120.0
            },
            {
                "start_time": 7.6795455,
                "end_time": 7.7636364,
                "pitch": 67,
                "velocity": 40,
                "duration": 0.0840909,
                "tempo": 120.0
            },
            {
                "start_time": 7.9818182,
                "end_time": 8.0659091,
                "pitch": 62,
                "velocity": 40,
                "duration": 0.0840909,
                "tempo": 120.0
            },
            {
                "start_time": 8.0840909,
                "end_time": 8.1681818,
                "pitch": 65,
                "velocity": 40,
                "duration": 0.0840909,
                "tempo": 120.0
            },
            {
                "start_time": 8.1840909,
                "end_time": 8.2681818,
                "pitch": 67,
                "velocity": 40,
                "duration": 0.0840909,
                "tempo": 120.0
            },
            {
                "start_time": 8.2840909,
                "end_time": 8.3681818,
                "pitch": 65,
                "velocity": 40,
                "duration": 0.0840909,
                "tempo": 120.0
            },
            {
                "start_time": 8.3863636,
                "end_time": 8.4704545,
                "pitch": 67,
                "velocity": 40,
                "duration": 0.0840909,
                "tempo": 120.0
            },
            {
                "start_time": 8.4886364,
                "end_time": 8.5727273,
                "pitch": 69,
                "velocity": 40,
                "duration": 0.0840909,
                "tempo": 120.0
            },
            {
                "start_time": 8.5909091,
                "end_time": 8.6772727,
                "pitch": 72,
                "velocity": 40,
                "duration": 0.0863636,
                "tempo": 120.0
            },
            {
                "start_time": 8.6931818,
                "end_time": 8.7795455,
                "pitch": 74,
                "velocity": 40,
                "duration": 0.0863636,
                "tempo": 120.0
            },
            {
                "start_time": 8.9931818,
                "end_time": 9.0727273,
                "pitch": 74,
                "velocity": 40,
                "duration": 0.0795455,
                "tempo": 120.0
            },
            {
                "start_time": 9.0909091,
                "end_time": 9.1727273,
                "pitch": 74,
                "velocity": 40,
                "duration": 0.0818182,
                "tempo": 120.0
            },
            {
                "start_time": 9.1886364,
                "end_time": 9.3772727,
                "pitch": 74,
                "velocity": 40,
                "duration": 0.1886364,
                "tempo": 120.0
            },
            {
                "start_time": 9.3931818,
                "end_time": 9.4795455,
                "pitch": 74,
                "velocity": 40,
                "duration": 0.0863636,
                "tempo": 120.0
            },
            {
                "start_time": 9.4954545,
                "end_time": 9.5818182,
                "pitch": 74,
                "velocity": 40,
                "duration": 0.0863636,
                "tempo": 120.0
            },
            {
                "start_time": 9.5977273,
                "end_time": 9.7840909,
                "pitch": 69,
                "velocity": 40,
                "duration": 0.1863636,
                "tempo": 120.0
            },
            {
                "start_time": 9.8,
                "end_time": 9.9840909,
                "pitch": 65,
                "velocity": 40,
                "duration": 0.1840909,
                "tempo": 120.0
            },
            {
                "start_time": 10.0022727,
                "end_time": 10.1863636,
                "pitch": 67,
                "velocity": 40,
                "duration": 0.1840909,
                "tempo": 120.0
            },
            {
                "start_time": 10.2022727,
                "end_time": 10.3886364,
                "pitch": 64,
                "velocity": 40,
                "duration": 0.1863636,
                "tempo": 120.0
            },
            {
                "start_time": 10.4045455,
                "end_time": 10.5886364,
                "pitch": 65,
                "velocity": 40,
                "duration": 0.1840909,
                "tempo": 120.0
            },
            {
                "start_time": 10.6045455,
                "end_time": 10.7909091,
                "pitch": 62,
                "velocity": 40,
                "duration": 0.1863636,
                "tempo": 120.0
            },
            {
                "start_time": 10.8068182,
                "end_time": 10.9909091,
                "pitch": 64,
                "velocity": 40,
                "duration": 0.1840909,
                "tempo": 120.0
            },
            {
                "start_time": 11.0068182,
                "end_time": 11.1909091,
                "pitch": 60,
                "velocity": 40,
                "duration": 0.1840909,
                "tempo": 120.0
            },
            {
                "start_time": 11.2068182,
                "end_time": 11.3909091,
                "pitch": 65,
                "velocity": 40,
                "duration": 0.1840909,
                "tempo": 120.0
            },
            {
                "start_time": 11.4090909,
                "end_time": 11.5931818,
                "pitch": 62,
                "velocity": 40,
                "duration": 0.1840909,
                "tempo": 120.0
            },
            {
                "start_time": 11.6090909,
                "end_time": 11.7931818,
                "pitch": 67,
                "velocity": 40,
                "duration": 0.1840909,
                "tempo": 120.0
            },
            {
                "start_time": 11.8113636,
                "end_time": 11.9954545,
                "pitch": 62,
                "velocity": 40,
                "duration": 0.1840909,
                "tempo": 120.0
            },
            {
                "start_time": 12.0113636,
                "end_time": 12.1977273,
                "pitch": 69,
                "velocity": 40,
                "duration": 0.1863636,
                "tempo": 120.0
            },
            {
                "start_time": 12.2136364,
                "end_time": 12.3977273,
                "pitch": 60,
                "velocity": 40,
                "duration": 0.1840909,
                "tempo": 120.0
            },
            {
                "start_time": 12.4159091,
                "end_time": 12.6,
                "pitch": 67,
                "velocity": 40,
                "duration": 0.1840909,
                "tempo": 120.0
            },
            {
                "start_time": 12.6159091,
                "end_time": 12.8,
                "pitch": 60,
                "velocity": 40,
                "duration": 0.1840909,
                "tempo": 120.0
            },
            {
                "start_time": 12.8181818,
                "end_time": 13.0022727,
                "pitch": 50,
                "velocity": 40,
                "duration": 0.1840909,
                "tempo": 120.0
            },
            {
                "start_time": 13.0181818,
                "end_time": 13.1022727,
                "pitch": 57,
                "velocity": 40,
                "duration": 0.0840909,
                "tempo": 120.0
            },
            {
                "start_time": 13.2181818,
                "end_time": 13.3022727,
                "pitch": 65,
                "velocity": 40,
                "duration": 0.0840909,
                "tempo": 120.0
            },
            {
                "start_time": 13.4181818,
                "end_time": 13.6045455,
                "pitch": 67,
                "velocity": 40,
                "duration": 0.1863636,
                "tempo": 120.0
            },
            {
                "start_time": 13.6204545,
                "end_time": 13.8090909,
                "pitch": 53,
                "velocity": 40,
                "duration": 0.1886364,
                "tempo": 120.0
            },
            {
                "start_time": 13.825,
                "end_time": 13.9113636,
                "pitch": 57,
                "velocity": 40,
                "duration": 0.0863636,
                "tempo": 120.0
            },
            {
                "start_time": 14.0318182,
                "end_time": 14.1136364,
                "pitch": 65,
                "velocity": 40,
                "duration": 0.0818182,
                "tempo": 120.0
            },
            {
                "start_time": 14.2272727,
                "end_time": 14.4068182,
                "pitch": 67,
                "velocity": 40,
                "duration": 0.1795455,
                "tempo": 120.0
            },
            {
                "start_time": 14.4227273,
                "end_time": 14.6068182,
                "pitch": 52,
                "velocity": 40,
                "duration": 0.1840909,
                "tempo": 120.0
            },
            {
                "start_time": 14.625,
                "end_time": 14.7090909,
                "pitch": 57,
                "velocity": 40,
                "duration": 0.0840909,
                "tempo": 120.0
            },
            {
                "start_time": 14.825,
                "end_time": 14.9068182,
                "pitch": 60,
                "velocity": 40,
                "duration": 0.0818182,
                "tempo": 120.0
            },
            {
                "start_time": 15.0227273,
                "end_time": 15.4068182,
                "pitch": 65,
                "velocity": 40,
                "duration": 0.3840909,
                "tempo": 120.0
            },
            {
                "start_time": 15.4227273,
                "end_time": 15.5090909,
                "pitch": 64,
                "velocity": 40,
                "duration": 0.0863636,
                "tempo": 120.0
            },
            {
                "start_time": 15.6295455,
                "end_time": 15.7136364,
                "pitch": 62,
                "velocity": 40,
                "duration": 0.0840909,
                "tempo": 120.0
            },
            {
                "start_time": 15.8295455,
                "end_time": 15.9136364,
                "pitch": 60,
                "velocity": 40,
                "duration": 0.0840909,
                "tempo": 120.0
            },
            {
                "start_time": 16.0318182,
                "end_time": 16.2159091,
                "pitch": 50,
                "velocity": 40,
                "duration": 0.1840909,
                "tempo": 120.0
            },
            {
                "start_time": 16.2318182,
                "end_time": 16.3159091,
                "pitch": 57,
                "velocity": 40,
                "duration": 0.0840909,
                "tempo": 120.0
            },
            {
                "start_time": 16.4340909,
                "end_time": 16.5159091,
                "pitch": 65,
                "velocity": 40,
                "duration": 0.0818182,
                "tempo": 120.0
            },
            {
                "start_time": 16.6295455,
                "end_time": 16.8090909,
                "pitch": 67,
                "velocity": 40,
                "duration": 0.1795455,
                "tempo": 120.0
            },
            {
                "start_time": 16.8272727,
                "end_time": 17.0181818,
                "pitch": 53,
                "velocity": 40,
                "duration": 0.1909091,
                "tempo": 120.0
            },
            {
                "start_time": 17.0363636,
                "end_time": 17.125,
                "pitch": 57,
                "velocity": 40,
                "duration": 0.0886364,
                "tempo": 120.0
            },
            {
                "start_time": 17.2477273,
                "end_time": 17.3272727,
                "pitch": 65,
                "velocity": 40,
                "duration": 0.0795455,
                "tempo": 120.0
            },
            {
                "start_time": 17.4386364,
                "end_time": 17.6136364,
                "pitch": 67,
                "velocity": 40,
                "duration": 0.175,
                "tempo": 120.0
            },
            {
                "start_time": 17.6295455,
                "end_time": 17.8181818,
                "pitch": 52,
                "velocity": 40,
                "duration": 0.1886364,
                "tempo": 120.0
            },
            {
                "start_time": 17.8340909,
                "end_time": 17.9204545,
                "pitch": 57,
                "velocity": 40,
                "duration": 0.0863636,
                "tempo": 120.0
            },
            {
                "start_time": 18.0409091,
                "end_time": 18.1227273,
                "pitch": 60,
                "velocity": 40,
                "duration": 0.0818182,
                "tempo": 120.0
            },
            {
                "start_time": 18.2409091,
                "end_time": 18.6204545,
                "pitch": 65,
                "velocity": 40,
                "duration": 0.3795455,
                "tempo": 120.0
            },
            {
                "start_time": 18.6363636,
                "end_time": 18.7181818,
                "pitch": 64,
                "velocity": 40,
                "duration": 0.0818182,
                "tempo": 120.0
            },
            {
                "start_time": 18.8318182,
                "end_time": 18.9159091,
                "pitch": 62,
                "velocity": 40,
                "duration": 0.0840909,
                "tempo": 120.0
            },
            {
                "start_time": 19.0340909,
                "end_time": 19.1181818,
                "pitch": 60,
                "velocity": 40,
                "duration": 0.0840909,
                "tempo": 120.0
            },
            {
                "start_time": 19.2340909,
                "end_time": 19.4227273,
                "pitch": 50,
                "velocity": 40,
                "duration": 0.1886364,
                "tempo": 120.0
            },
            {
                "start_time": 19.4409091,
                "end_time": 19.525,
                "pitch": 57,
                "velocity": 40,
                "duration": 0.0840909,
                "tempo": 120.0
            },
            {
                "start_time": 19.6454545,
                "end_time": 19.7272727,
                "pitch": 65,
                "velocity": 40,
                "duration": 0.0818182,
                "tempo": 120.0
            },
            {
                "start_time": 19.8409091,
                "end_time": 20.0204545,
                "pitch": 67,
                "velocity": 40,
                "duration": 0.1795455,
                "tempo": 120.0
            },
            {
                "start_time": 20.0386364,
                "end_time": 20.2295455,
                "pitch": 53,
                "velocity": 40,
                "duration": 0.1909091,
                "tempo": 120.0
            },
            {
                "start_time": 20.2477273,
                "end_time": 20.3363636,
                "pitch": 57,
                "velocity": 40,
                "duration": 0.0886364,
                "tempo": 120.0
            },
            {
                "start_time": 20.4590909,
                "end_time": 20.5409091,
                "pitch": 65,
                "velocity": 40,
                "duration": 0.0818182,
                "tempo": 120.0
            },
            {
                "start_time": 20.6545455,
                "end_time": 20.8363636,
                "pitch": 67,
                "velocity": 40,
                "duration": 0.1818182,
                "tempo": 120.0
            },
            {
                "start_time": 20.8522727,
                "end_time": 21.0340909,
                "pitch": 52,
                "velocity": 40,
                "duration": 0.1818182,
                "tempo": 120.0
            },
            {
                "start_time": 21.0522727,
                "end_time": 21.1340909,
                "pitch": 57,
                "velocity": 40,
                "duration": 0.0818182,
                "tempo": 120.0
            },
            {
                "start_time": 21.2522727,
                "end_time": 21.3340909,
                "pitch": 60,
                "velocity": 40,
                "duration": 0.0818182,
                "tempo": 120.0
            },
            {
                "start_time": 21.4477273,
                "end_time": 21.8318182,
                "pitch": 65,
                "velocity": 40,
                "duration": 0.3840909,
                "tempo": 120.0
            },
            {
                "start_time": 21.8477273,
                "end_time": 21.9340909,
                "pitch": 64,
                "velocity": 40,
                "duration": 0.0863636,
                "tempo": 120.0
            },
            {
                "start_time": 22.0545455,
                "end_time": 22.1386364,
                "pitch": 62,
                "velocity": 40,
                "duration": 0.0840909,
                "tempo": 120.0
            },
            {
                "start_time": 22.2545455,
                "end_time": 22.3386364,
                "pitch": 60,
                "velocity": 40,
                "duration": 0.0840909,
                "tempo": 120.0
            },
            {
                "start_time": 22.4545455,
                "end_time": 22.6431818,
                "pitch": 50,
                "velocity": 40,
                "duration": 0.1886364,
                "tempo": 120.0
            },
            {
                "start_time": 22.6590909,
                "end_time": 22.7454545,
                "pitch": 57,
                "velocity": 40,
                "duration": 0.0863636,
                "tempo": 120.0
            },
            {
                "start_time": 22.8636364,
                "end_time": 22.9454545,
                "pitch": 65,
                "velocity": 40,
                "duration": 0.0818182,
                "tempo": 120.0
            },
            {
                "start_time": 23.0568182,
                "end_time": 23.2318182,
                "pitch": 67,
                "velocity": 40,
                "duration": 0.175,
                "tempo": 120.0
            },
            {
                "start_time": 23.2477273,
                "end_time": 23.4386364,
                "pitch": 53,
                "velocity": 40,
                "duration": 0.1909091,
                "tempo": 120.0
            },
            {
                "start_time": 23.4568182,
                "end_time": 23.5454545,
                "pitch": 57,
                "velocity": 40,
                "duration": 0.0886364,
                "tempo": 120.0
            },
            {
                "start_time": 23.6681818,
                "end_time": 23.75,
                "pitch": 65,
                "velocity": 40,
                "duration": 0.0818182,
                "tempo": 120.0
            },
            {
                "start_time": 23.8636364,
                "end_time": 24.0431818,
                "pitch": 67,
                "velocity": 40,
                "duration": 0.1795455,
                "tempo": 120.0
            },
            {
                "start_time": 24.0613636,
                "end_time": 24.2431818,
                "pitch": 52,
                "velocity": 40,
                "duration": 0.1818182,
                "tempo": 120.0
            },
            {
                "start_time": 24.2613636,
                "end_time": 24.3431818,
                "pitch": 57,
                "velocity": 40,
                "duration": 0.0818182,
                "tempo": 120.0
            },
            {
                "start_time": 24.4613636,
                "end_time": 24.5431818,
                "pitch": 60,
                "velocity": 40,
                "duration": 0.0818182,
                "tempo": 120.0
            },
            {
                "start_time": 24.6613636,
                "end_time": 25.0431818,
                "pitch": 65,
                "velocity": 40,
                "duration": 0.3818182,
                "tempo": 120.0
            },
            {
                "start_time": 25.0590909,
                "end_time": 25.1409091,
                "pitch": 64,
                "velocity": 40,
                "duration": 0.0818182,
                "tempo": 120.0
            },
            {
                "start_time": 25.2545455,
                "end_time": 25.3386364,
                "pitch": 62,
                "velocity": 40,
                "duration": 0.0840909,
                "tempo": 120.0
            },
            {
                "start_time": 25.4545455,
                "end_time": 25.5386364,
                "pitch": 60,
                "velocity": 40,
                "duration": 0.0840909,
                "tempo": 120.0
            },
            {
                "start_time": 25.6545455,
                "end_time": 25.8431818,
                "pitch": 55,
                "velocity": 40,
                "duration": 0.1886364,
                "tempo": 120.0
            },
            {
                "start_time": 25.8613636,
                "end_time": 25.9454545,
                "pitch": 62,
                "velocity": 40,
                "duration": 0.0840909,
                "tempo": 120.0
            },
            {
                "start_time": 26.0659091,
                "end_time": 26.1477273,
                "pitch": 69,
                "velocity": 40,
                "duration": 0.0818182,
                "tempo": 120.0
            },
            {
                "start_time": 26.2613636,
                "end_time": 26.4409091,
                "pitch": 71,
                "velocity": 40,
                "duration": 0.1795455,
                "tempo": 120.0
            },
            {
                "start_time": 26.4568182,
                "end_time": 26.6454545,
                "pitch": 59,
                "velocity": 40,
                "duration": 0.1886364,
                "tempo": 120.0
            },
            {
                "start_time": 26.6636364,
                "end_time": 26.7477273,
                "pitch": 62,
                "velocity": 40,
                "duration": 0.0840909,
                "tempo": 120.0
            },
            {
                "start_time": 26.8681818,
                "end_time": 26.95,
                "pitch": 71,
                "velocity": 40,
                "duration": 0.0818182,
                "tempo": 120.0
            },
            {
                "start_time": 27.0636364,
                "end_time": 27.2431818,
                "pitch": 72,
                "velocity": 40,
                "duration": 0.1795455,
                "tempo": 120.0
            },
            {
                "start_time": 27.2613636,
                "end_time": 27.4477273,
                "pitch": 55,
                "velocity": 40,
                "duration": 0.1863636,
                "tempo": 120.0
            },
            {
                "start_time": 27.4659091,
                "end_time": 27.5522727,
                "pitch": 62,
                "velocity": 40,
                "duration": 0.0863636,
                "tempo": 120.0
            },
            {
                "start_time": 27.6704545,
                "end_time": 27.7545455,
                "pitch": 65,
                "velocity": 40,
                "duration": 0.0840909,
                "tempo": 120.0
            },
            {
                "start_time": 27.8704545,
                "end_time": 28.2545455,
                "pitch": 69,
                "velocity": 40,
                "duration": 0.3840909,
                "tempo": 120.0
            },
            {
                "start_time": 28.2704545,
                "end_time": 28.3545455,
                "pitch": 72,
                "velocity": 40,
                "duration": 0.0840909,
                "tempo": 120.0
            },
            {
                "start_time": 28.4704545,
                "end_time": 28.5568182,
                "pitch": 71,
                "velocity": 40,
                "duration": 0.0863636,
                "tempo": 120.0
            },
            {
                "start_time": 28.6772727,
                "end_time": 28.7613636,
                "pitch": 67,
                "velocity": 40,
                "duration": 0.0840909,
                "tempo": 120.0
            },
            {
                "start_time": 28.8818182,
                "end_time": 29.0613636,
                "pitch": 55,
                "velocity": 40,
                "duration": 0.1795455,
                "tempo": 120.0
            },
            {
                "start_time": 29.0772727,
                "end_time": 29.1590909,
                "pitch": 62,
                "velocity": 40,
                "duration": 0.0818182,
                "tempo": 120.0
            },
            {
                "start_time": 29.275,
                "end_time": 29.3568182,
                "pitch": 69,
                "velocity": 40,
                "duration": 0.0818182,
                "tempo": 120.0
            },
            {
                "start_time": 29.4704545,
                "end_time": 29.65,
                "pitch": 71,
                "velocity": 40,
                "duration": 0.1795455,
                "tempo": 120.0
            },
            {
                "start_time": 29.6659091,
                "end_time": 29.8545455,
                "pitch": 59,
                "velocity": 40,
                "duration": 0.1886364,
                "tempo": 120.0
            },
            {
                "start_time": 29.8727273,
                "end_time": 29.9568182,
                "pitch": 62,
                "velocity": 40,
                "duration": 0.0840909,
                "tempo": 120.0
            },
            {
                "start_time": 30.0772727,
                "end_time": 30.1590909,
                "pitch": 71,
                "velocity": 40,
                "duration": 0.0818182,
                "tempo": 120.0
            },
            {
                "start_time": 30.2727273,
                "end_time": 30.4522727,
                "pitch": 72,
                "velocity": 40,
                "duration": 0.1795455,
                "tempo": 120.0
            },
            {
                "start_time": 30.4681818,
                "end_time": 30.6568182,
                "pitch": 55,
                "velocity": 40,
                "duration": 0.1886364,
                "tempo": 120.0
            },
            {
                "start_time": 30.675,
                "end_time": 30.7590909,
                "pitch": 62,
                "velocity": 40,
                "duration": 0.0840909,
                "tempo": 120.0
            },
            {
                "start_time": 30.8795455,
                "end_time": 30.9636364,
                "pitch": 65,
                "velocity": 40,
                "duration": 0.0840909,
                "tempo": 120.0
            },
            {
                "start_time": 31.0795455,
                "end_time": 31.4590909,
                "pitch": 69,
                "velocity": 40,
                "duration": 0.3795455,
                "tempo": 120.0
            },
            {
                "start_time": 31.475,
                "end_time": 31.5568182,
                "pitch": 72,
                "velocity": 40,
                "duration": 0.0818182,
                "tempo": 120.0
            },
            {
                "start_time": 31.6727273,
                "end_time": 31.7568182,
                "pitch": 71,
                "velocity": 40,
                "duration": 0.0840909,
                "tempo": 120.0
            },
            {
                "start_time": 31.8772727,
                "end_time": 31.9636364,
                "pitch": 67,
                "velocity": 40,
                "duration": 0.0863636,
                "tempo": 120.0
            },
            {
                "start_time": 32.0818182,
                "end_time": 32.2659091,
                "pitch": 50,
                "velocity": 40,
                "duration": 0.1840909,
                "tempo": 120.0
            },
            {
                "start_time": 32.2818182,
                "end_time": 32.3659091,
                "pitch": 57,
                "velocity": 40,
                "duration": 0.0840909,
                "tempo": 120.0
            },
            {
                "start_time": 32.4818182,
                "end_time": 32.5659091,
                "pitch": 65,
                "velocity": 40,
                "duration": 0.0840909,
                "tempo": 120.0
            },
            {
                "start_time": 32.6840909,
                "end_time": 32.8681818,
                "pitch": 67,
                "velocity": 40,
                "duration": 0.1840909,
                "tempo": 120.0
            },
            {
                "start_time": 32.8863636,
                "end_time": 33.0681818,
                "pitch": 53,
                "velocity": 40,
                "duration": 0.1818182,
                "tempo": 120.0
            },
            {
                "start_time": 33.0863636,
                "end_time": 33.1681818,
                "pitch": 57,
                "velocity": 40,
                "duration": 0.0818182,
                "tempo": 120.0
            },
            {
                "start_time": 33.2863636,
                "end_time": 33.3681818,
                "pitch": 65,
                "velocity": 40,
                "duration": 0.0818182,
                "tempo": 120.0
            },
            {
                "start_time": 33.4863636,
                "end_time": 33.6681818,
                "pitch": 67,
                "velocity": 40,
                "duration": 0.1818182,
                "tempo": 120.0
            },
            {
                "start_time": 33.6863636,
                "end_time": 33.8704545,
                "pitch": 52,
                "velocity": 40,
                "duration": 0.1840909,
                "tempo": 120.0
            },
            {
                "start_time": 33.8863636,
                "end_time": 33.9704545,
                "pitch": 57,
                "velocity": 40,
                "duration": 0.0840909,
                "tempo": 120.0
            },
            {
                "start_time": 34.0886364,
                "end_time": 34.1704545,
                "pitch": 60,
                "velocity": 40,
                "duration": 0.0818182,
                "tempo": 120.0
            },
            {
                "start_time": 34.2840909,
                "end_time": 34.6659091,
                "pitch": 65,
                "velocity": 40,
                "duration": 0.3818182,
                "tempo": 120.0
            },
            {
                "start_time": 34.6818182,
                "end_time": 34.7659091,
                "pitch": 64,
                "velocity": 40,
                "duration": 0.0840909,
                "tempo": 120.0
            },
            {
                "start_time": 34.8840909,
                "end_time": 34.9659091,
                "pitch": 62,
                "velocity": 40,
                "duration": 0.0818182,
                "tempo": 120.0
            },
            {
                "start_time": 35.0840909,
                "end_time": 35.1659091,
                "pitch": 60,
                "velocity": 40,
                "duration": 0.0818182,
                "tempo": 120.0
            },
            {
                "start_time": 35.2840909,
                "end_time": 35.4704545,
                "pitch": 50,
                "velocity": 40,
                "duration": 0.1863636,
                "tempo": 120.0
            },
            {
                "start_time": 35.4886364,
                "end_time": 35.575,
                "pitch": 57,
                "velocity": 40,
                "duration": 0.0863636,
                "tempo": 120.0
            },
            {
                "start_time": 35.6931818,
                "end_time": 35.7772727,
                "pitch": 65,
                "velocity": 40,
                "duration": 0.0840909,
                "tempo": 120.0
            },
            {
                "start_time": 35.8954545,
                "end_time": 36.0795455,
                "pitch": 67,
                "velocity": 40,
                "duration": 0.1840909,
                "tempo": 120.0
            },
            {
                "start_time": 36.0977273,
                "end_time": 36.2840909,
                "pitch": 53,
                "velocity": 40,
                "duration": 0.1863636,
                "tempo": 120.0
            },
            {
                "start_time": 36.3022727,
                "end_time": 36.3863636,
                "pitch": 57,
                "velocity": 40,
                "duration": 0.0840909,
                "tempo": 120.0
            },
            {
                "start_time": 36.5068182,
                "end_time": 36.5886364,
                "pitch": 65,
                "velocity": 40,
                "duration": 0.0818182,
                "tempo": 120.0
            },
            {
                "start_time": 36.7045455,
                "end_time": 36.8840909,
                "pitch": 67,
                "velocity": 40,
                "duration": 0.1795455,
                "tempo": 120.0
            },
            {
                "start_time": 36.9,
                "end_time": 37.0818182,
                "pitch": 52,
                "velocity": 40,
                "duration": 0.1818182,
                "tempo": 120.0
            },
            {
                "start_time": 37.1,
                "end_time": 37.1818182,
                "pitch": 57,
                "velocity": 40,
                "duration": 0.0818182,
                "tempo": 120.0
            },
            {
                "start_time": 37.3,
                "end_time": 37.3818182,
                "pitch": 60,
                "velocity": 40,
                "duration": 0.0818182,
                "tempo": 120.0
            },
            {
                "start_time": 37.5,
                "end_time": 37.8840909,
                "pitch": 65,
                "velocity": 40,
                "duration": 0.3840909,
                "tempo": 120.0
            },
            {
                "start_time": 37.9,
                "end_time": 37.9840909,
                "pitch": 64,
                "velocity": 40,
                "duration": 0.0840909,
                "tempo": 120.0
            },
            {
                "start_time": 38.1022727,
                "end_time": 38.1840909,
                "pitch": 62,
                "velocity": 40,
                "duration": 0.0818182,
                "tempo": 120.0
            },
            {
                "start_time": 38.2977273,
                "end_time": 38.3795455,
                "pitch": 60,
                "velocity": 40,
                "duration": 0.0818182,
                "tempo": 120.0
            }
        ]
    }
}