{
    "mood": "angry",
    "instruments": {
        "Acoustic Bass": [
            {
                "start_time": 0.0954545,
                "end_time": 0.1613636,
                "pitch": 41,
                "velocity": 80,
                "duration": 0.0659091,
                "tempo": 120.0
            },
            {
                "start_time": 0.1954545,
                "end_time": 0.2954545,
                "pitch": 43,
                "velocity": 80,
                "duration": 0.1,
                "tempo": 120.0
            },
            {
                "start_time": 0.3113636,
                "end_time": 0.3795455,
                "pitch": 40,
                "velocity": 80,
                "duration": 0.0681818,
                "tempo": 120.0
            },
            {
                "start_time": 0.3954545,
                "end_time": 0.4613636,
                "pitch": 38,
                "velocity": 80,
                "duration": 0.0659091,
                "tempo": 120.0
            },
            {
                "start_time": 0.4772727,
                "end_time": 0.5409091,
                "pitch": 36,
                "velocity": 80,
                "duration": 0.0636364,
                "tempo": 120.0
            },
            {
                "start_time": 0.5590909,
                "end_time": 0.6227273,
                "pitch": 35,
                "velocity": 80,
                "duration": 0.0636364,
                "tempo": 120.0
            },
            {
                "start_time": 0.6386364,
                "end_time": 0.7045455,
                "pitch": 34,
                "velocity": 80,
                "duration": 0.0659091,
                "tempo": 120.0
            },
            {
                "start_time": 0.7204545,
                "end_time": 0.7363636,
                "pitch": 33,
                "velocity": 80,
                "duration": 0.0159091,
                "tempo": 120.0
            },
            {
                "start_time": 0.7363636,
                "end_time": 0.8568182,
                "pitch": 33,
                "velocity": 80,
                "duration": 0.1204545,
                "tempo": 120.0
            },
            {
                "start_time": 1.225,
                "end_time": 1.3545455,
                "pitch": 33,
                "velocity": 80,
                "duration": 0.1295455,
                "tempo": 120.0
            },
            {
                "start_time": 1.3886364,
                "end_time": 1.5227273,
                "pitch": 33,
                "velocity": 80,
                "duration": 0.1340909,
                "tempo": 120.0
            },
            {
                "start_time": 1.8909091,
                "end_time": 2.025,
                "pitch": 33,
                "velocity": 80,
                "duration": 0.1340909,
                "tempo": 120.0
            },
            {
                "start_time": 2.2340909,
                "end_time": 2.375,
                "pitch": 33,
                "velocity": 80,
                "duration": 0.1409091,
                "tempo": 120.0
            },
            {
                "start_time": 2.5727273,
                "end_time": 2.7022727,
                "pitch": 33,
                "velocity": 80,
                "duration": 0.1295455,
                "tempo": 120.0
            },
            {
                "start_time": 2.7363636,
                "end_time": 2.8704545,
                "pitch": 33,
                "velocity": 80,
                "duration": 0.1340909,
                "tempo": 120.0
            },
            {
                "start_time": 3.4159091,
                "end_time": 3.55,
                "pitch": 31,
                "velocity": 80,
                "duration": 0.1340909,
                "tempo": 120.0
            },
            {
                "start_time": 3.9181818,
                "end_time": 4.0522727,
                "pitch": 31,
                "velocity": 80,
                "duration": 0.1340909,
                "tempo": 120.0
            },
            {
                "start_time": 4.0840909,
                "end_time": 4.2181818,
                "pitch": 31,
                "velocity": 80,
                "duration": 0.1340909,
                "tempo": 120.0
            },
            {
                "start_time": 4.5909091,
                "end_time": 4.7295455,
                "pitch": 31,
                "velocity": 80,
                "duration": 0.1386364,
                "tempo": 120.0
            },
            {
                "start_time": 4.9363636,
                "end_time": 5.075,
                "pitch": 31,
                "velocity": 80,
                "duration": 0.1386364,
                "tempo": 120.0
            },
            {
                "start_time": 5.275,
                "end_time": 5.4090909,
                "pitch": 31,
                "velocity": 80,
                "duration": 0.1340909,
                "tempo": 120.0
            },
            {
                "start_time": 5.4431818,
                "end_time": 5.5772727,
                "pitch": 31,
                "velocity": 80,
                "duration": 0.1340909,
                "tempo": 120.0
            },
            {
                "start_time": 5.7772727,
                "end_time": 5.8477273,
                "pitch": 38,
                "velocity": 80,
                "duration": 0.0704545,
                "tempo": 120.0
            },
            {
                "start_time": 5.8636364,
                "end_time": 5.9340909,
                "pitch": 36,
                "velocity": 80,
                "duration": 0.0704545,
                "tempo": 120.0
            },
            {
                "start_time": 5.95,
                "end_time": 6.0181818,
                "pitch": 35,
                "velocity": 80,
                "duration": 0.0681818,
                "tempo": 120.0
            },
            {
                "start_time": 6.0363636,
                "end_time": 6.1045455,
                "pitch": 34,
                "velocity": 80,
                "duration": 0.0681818,
                "tempo": 120.0
            },
            {
                "start_time": 6.1227273,
                "end_time": 6.2568182,
                "pitch": 33,
                "velocity": 80,
                "duration": 0.1340909,
                "tempo": 120.0
            },
            {
                "start_time": 6.6431818,
                "end_time": 6.7613636,
                "pitch": 33,
                "velocity": 80,
                "duration": 0.1181818,
                "tempo": 120.0
            },
            {
                "start_time": 6.7954545,
                "end_time": 6.9363636,
                "pitch": 33,
                "velocity": 80,
                "duration": 0.1409091,
                "tempo": 120.0
            },
            {
                "start_time": 7.3318182,
                "end_time": 7.4659091,
                "pitch": 33,
                "velocity": 80,
                "duration": 0.1340909,
                "tempo": 120.0
            },
            {
                "start_time": 7.6704545,
                "end_time": 7.8090909,
                "pitch": 33,
                "velocity": 80,
                "duration": 0.1386364,
                "tempo": 120.0
            },
            {
                "start_time": 8.0113636,
                "end_time": 8.1454545,
                "pitch": 33,
                "velocity": 80,
                "duration": 0.1340909,
                "tempo": 120.0
            },
            {
                "start_time": 8.1795455,
                "end_time": 8.3113636,
                "pitch": 33,
                "velocity": 80,
                "duration": 0.1318182,
                "tempo": 120.0
            },
            {
                "start_time": 8.8568182,
                "end_time": 8.9909091,
                "pitch": 31,
                "velocity": 80,
                "duration": 0.1340909,
                "tempo": 120.0
            },
            {
                "start_time": 9.3590909,
                "end_time": 9.4931818,
                "pitch": 31,
                "velocity": 80,
                "duration": 0.1340909,
                "tempo": 120.0
            },
            {
                "start_time": 9.5272727,
                "end_time": 9.6613636,
                "pitch": 31,
                "velocity": 80,
                "duration": 0.1340909,
                "tempo": 120.0
            },
            {
                "start_time": 10.0340909,
                "end_time": 10.1727273,
                "pitch": 31,
                "velocity": 80,
                "duration": 0.1386364,
                "tempo": 120.0
            },
            {
                "start_time": 10.3795455,
                "end_time": 10.5159091,
                "pitch": 31,
                "velocity": 80,
                "duration": 0.1363636,
                "tempo": 120.0
            },
            {
                "start_time": 10.7181818,
                "end_time": 10.8522727,
                "pitch": 31,
                "velocity": 80,
                "duration": 0.1340909,
                "tempo": 120.0
            },
            {
                "start_time": 10.8863636,
                "end_time": 11.0204545,
                "pitch": 31,
                "velocity": 80,
                "duration": 0.1340909,
                "tempo": 120.0
            },
            {
                "start_time": 11.2204545,
                "end_time": 11.2886364,
                "pitch": 38,
                "velocity": 80,
                "duration": 0.0681818,
                "tempo": 120.0
            },
            {
                "start_time": 11.3045455,
                "end_time": 11.3727273,
                "pitch": 36,
                "velocity": 80,
                "duration": 0.0681818,
                "tempo": 120.0
            },
            {
                "start_time": 11.3886364,
                "end_time": 11.4545455,
                "pitch": 35,
                "velocity": 80,
                "duration": 0.0659091,
                "tempo": 120.0
            },
            {
                "start_time": 11.4727273,
                "end_time": 11.5386364,
                "pitch": 34,
                "velocity": 80,
                "duration": 0.0659091,
                "tempo": 120.0
            },
            {
                "start_time": 11.5568182,
                "end_time": 11.6931818,
                "pitch": 28,
                "velocity": 80,
                "duration": 0.1363636,
                "tempo": 120.0
            },
            {
                "start_time": 11.7272727,
                "end_time": 11.8659091,
                "pitch": 28,
                "velocity": 80,
                "duration": 0.1386364,
                "tempo": 120.0
            },
            {
                "start_time": 11.9,
                "end_time": 12.0340909,
                "pitch": 35,
                "velocity": 80,
                "duration": 0.1340909,
                "tempo": 120.0
            },
            {
                "start_time": 12.0681818,
                "end_time": 12.2022727,
                "pitch": 35,
                "velocity": 80,
                "duration": 0.1340909,
                "tempo": 120.0
            },
            {
                "start_time": 12.2363636,
                "end_time": 12.3681818,
                "pitch": 28,
                "velocity": 80,
                "duration": 0.1318182,
                "tempo": 120.0
            },
            {
                "start_time": 12.4022727,
                "end_time": 12.5363636,
                "pitch": 35,
                "velocity": 80,
                "duration": 0.1340909,
                "tempo": 120.0
            },
            {
                "start_time": 12.5704545,
                "end_time": 12.7090909,
                "pitch": 36,
                "velocity": 80,
                "duration": 0.1386364,
                "tempo": 120.0
            },
            {
                "start_time": 12.7272727,
                "end_time": 13.1159091,
                "pitch": 38,
                "velocity": 80,
                "duration": 0.3886364,
                "tempo": 120.0
            },
            {
                "start_time": 13.25,
                "end_time": 13.4840909,
                "pitch": 38,
                "velocity": 80,
                "duration": 0.2340909,
                "tempo": 120.0
            },
            {
                "start_time": 13.5840909,
                "end_time": 13.825,
                "pitch": 38,
                "velocity": 80,
                "duration": 0.2409091,
                "tempo": 120.0
            },
            {
                "start_time": 13.9295455,
                "end_time": 14.1636364,
                "pitch": 38,
                "velocity": 80,
                "duration": 0.2340909,
                "tempo": 120.0
            },
            {
                "start_time": 14.2659091,
                "end_time": 14.3840909,
                "pitch": 28,
                "velocity": 80,
                "duration": 0.1181818,
                "tempo": 120.0
            },
            {
                "start_time": 14.4340909,
                "end_time": 14.55,
                "pitch": 28,
                "velocity": 80,
                "duration": 0.1159091,
                "tempo": 120.0
            },
            {
                "start_time": 14.6,
                "end_time": 14.7227273,
                "pitch": 35,
                "velocity": 80,
                "duration": 0.1227273,
                "tempo": 120.0
            },
            {
                "start_time": 14.7727273,
                "end_time": 14.8931818,
                "pitch": 35,
                "velocity": 80,
                "duration": 0.1204545,
                "tempo": 120.0
            },
            {
                "start_time": 14.9454545,
                "end_time": 15.0795455,
                "pitch": 28,
                "velocity": 80,
                "duration": 0.1340909,
                "tempo": 120.0
            },
            {
                "start_time": 15.1136364,
                "end_time": 15.2295455,
                "pitch": 35,
                "velocity": 80,
                "duration": 0.1159091,
                "tempo": 120.0
            },
            {
                "start_time": 15.2795455,
                "end_time": 15.4181818,
                "pitch": 36,
                "velocity": 80,
                "duration": 0.1386364,
                "tempo": 120.0
            },
            {
                "start_time": 15.4522727,
                "end_time": 15.8272727,
                "pitch": 33,
                "velocity": 80,
                "duration": 0.375,
                "tempo": 120.0
            },
            {
                "start_time": 15.9431818,
                "end_time": 16.1954545,
                "pitch": 33,
                "velocity": 80,
                "duration": 0.2522727,
                "tempo": 120.0
            },
            {
                "start_time": 16.2795455,
                "end_time": 16.5363636,
                "pitch": 33,
                "velocity": 80,
                "duration": 0.2568182,
                "tempo": 120.0
            },
            {
                "start_time": 16.6386364,
                "end_time": 16.8727273,
                "pitch": 33,
                "velocity": 80,
                "duration": 0.2340909,
                "tempo": 120.0
            },
            {
                "start_time": 16.975,
                "end_time": 17.0909091,
                "pitch": 28,
                "velocity": 80,
                "duration": 0.1159091,
                "tempo": 120.0
            },
            {
                "start_time": 17.1409091,
                "end_time": 17.2590909,
                "pitch": 28,
                "velocity": 80,
                "duration": 0.1181818,
                "tempo": 120.0
            },
            {
                "start_time": 17.3090909,
                "end_time": 17.4295455,
                "pitch": 35,
                "velocity": 80,
                "duration": 0.1204545,
                "tempo": 120.0
            },
            {
                "start_time": 17.4818182,
                "end_time": 17.6022727,
                "pitch": 35,
                "velocity": 80,
                "duration": 0.1204545,
                "tempo": 120.0
            },
            {
                "start_time": 17.6522727,
                "end_time": 17.7863636,
                "pitch": 28,
                "velocity": 80,
                "duration": 0.1340909,
                "tempo": 120.0
            },
            {
                "start_time": 17.8204545,
                "end_time": 17.9386364,
                "pitch": 35,
                "velocity": 80,
                "duration": 0.1181818,
                "tempo": 120.0
            },
            {
                "start_time": 17.9886364,
                "end_time": 18.125,
                "pitch": 36,
                "velocity": 80,
                "duration": 0.1363636,
                "tempo": 120.0
            },
            {
                "start_time": 18.1590909,
                "end_time": 18.5272727,
                "pitch": 38,
                "velocity": 80,
                "duration": 0.3681818,
                "tempo": 120.0
            },
            {
                "start_time": 18.6409091,
                "end_time": 18.8977273,
                "pitch": 38,
                "velocity": 80,
                "duration": 0.2568182,
                "tempo": 120.0
            },
            {
                "start_time": 18.9840909,
                "end_time": 19.2431818,
                "pitch": 38,
                "velocity": 80,
                "duration": 0.2590909,
                "tempo": 120.0
            },
            {
                "start_time": 19.3454545,
                "end_time": 19.6363636,
                "pitch": 38,
                "velocity": 80,
                "duration": 0.2909091,
                "tempo": 120.0
            },
            {
                "start_time": 19.7409091,
                "end_time": 19.8681818,
                "pitch": 28,
                "velocity": 80,
                "duration": 0.1272727,
                "tempo": 120.0
            },
            {
                "start_time": 19.9227273,
                "end_time": 20.05,
                "pitch": 28,
                "velocity": 80,
                "duration": 0.1272727,
                "tempo": 120.0
            },
            {
                "start_time": 20.1045455,
                "end_time": 20.2431818,
                "pitch": 35,
                "velocity": 80,
                "duration": 0.1386364,
                "tempo": 120.0
            },
            {
                "start_time": 20.2772727,
                "end_time": 20.4136364,
                "pitch": 35,
                "velocity": 80,
                "duration": 0.1363636,
                "tempo": 120.0
            },
            {
                "start_time": 20.45,
                "end_time": 20.5840909,
                "pitch": 28,
                "velocity": 80,
                "duration": 0.1340909,
                "tempo": 120.0
            },
            {
                "start_time": 20.6159091,
                "end_time": 20.75,
                "pitch": 35,
                "velocity": 80,
                "duration": 0.1340909,
                "tempo": 120.0
            },
            {
                "start_time": 20.7840909,
                "end_time": 20.9227273,
                "pitch": 36,
                "velocity": 80,
                "duration": 0.1386364,
                "tempo": 120.0
            },
            {
                "start_time": 20.9590909,
                "end_time": 21.3318182,
                "pitch": 33,
                "velocity": 80,
                "duration": 0.3727273,
                "tempo": 120.0
            },
            {
                "start_time": 21.4659091,
                "end_time": 21.7068182,
                "pitch": 33,
                "velocity": 80,
                "duration": 0.2409091,
                "tempo": 120.0
            },
            {
                "start_time": 21.8090909,
                "end_time": 22.0454545,
                "pitch": 33,
                "velocity": 80,
                "duration": 0.2363636,
                "tempo": 120.0
            },
            {
                "start_time": 22.1454545,
                "end_time": 22.2113636,
                "pitch": 38,
                "velocity": 80,
                "duration": 0.0659091,
                "tempo": 120.0
            },
            {
                "start_time": 22.2113636,
                "end_time": 22.2795455,
                "pitch": 36,
                "velocity": 80,
                "duration": 0.0681818,
                "tempo": 120.0
            },
            {
                "start_time": 22.3113636,
                "end_time": 22.3795455,
                "pitch": 35,
                "velocity": 80,
                "duration": 0.0681818,
                "tempo": 120.0
            },
            {
                "start_time": 22.3795455,
                "end_time": 22.4454545,
                "pitch": 35,
                "velocity": 80,
                "duration": 0.0659091,
                "tempo": 120.0
            }
        ],
        "Violin": [
            {
                "start_time": 0.0,
                "end_time": 0.0772727,
                "pitch": 71,
                "velocity": 101,
                "duration": 0.0772727,
                "tempo": 120.0
            },
            {
                "start_time": 0.0954545,
                "end_time": 0.1613636,
                "pitch": 69,
                "velocity": 101,
                "duration": 0.0659091,
                "tempo": 120.0
            },
            {
                "start_time": 0.1954545,
                "end_time": 0.2954545,
                "pitch": 67,
                "velocity": 101,
                "duration": 0.1,
                "tempo": 120.0
            },
            {
                "start_time": 0.3113636,
                "end_time": 0.3795455,
                "pitch": 65,
                "velocity": 101,
                "duration": 0.0681818,
                "tempo": 120.0
            },
            {
                "start_time": 0.3954545,
                "end_time": 0.4613636,
                "pitch": 64,
                "velocity": 101,
                "duration": 0.0659091,
                "tempo": 120.0
            },
            {
                "start_time": 0.4772727,
                "end_time": 0.5409091,
                "pitch": 62,
                "velocity": 101,
                "duration": 0.0636364,
                "tempo": 120.0
            },
            {
                "start_time": 0.5590909,
                "end_time": 0.6227273,
                "pitch": 60,
                "velocity": 101,
                "duration": 0.0636364,
                "tempo": 120.0
            },
            {
                "start_time": 0.6386364,
                "end_time": 0.7045455,
                "pitch": 59,
                "velocity": 101,
                "duration": 0.0659091,
                "tempo": 120.0
            },
            {
                "start_time": 0.7204545,
                "end_time": 0.7363636,
                "pitch": 57,
                "velocity": 101,
                "duration": 0.0159091,
                "tempo": 120.0
            },
            {
                "start_time": 0.7363636,
                "end_time": 0.7545455,
                "pitch": 57,
                "velocity": 25,
                "duration": 0.0181818,
                "tempo": 120.0
            },
            {
                "start_time": 0.8909091,
                "end_time": 0.925,
                "pitch": 69,
                "velocity": 25,
                "duration": 0.0340909,
                "tempo": 120.0
            },
            {
                "start_time": 1.0636364,
                "end_time": 1.0954545,
                "pitch": 70,
                "velocity": 25,
                "duration": 0.0318182,
                "tempo": 120.0
            },
            {
                "start_time": 1.225,
                "end_time": 1.2590909,
                "pitch": 71,
                "velocity": 25,
                "duration": 0.0340909,
                "tempo": 120.0
            },
            {
                "start_time": 1.3886364,
                "end_time": 1.4204545,
                "pitch": 57,
                "velocity": 25,
                "duration": 0.0318182,
                "tempo": 120.0
            },
            {
                "start_time": 1.5545455,
                "end_time": 1.5886364,
                "pitch": 69,
                "velocity": 51,
                "duration": 0.0340909,
                "tempo": 120.0
            },
            {
                "start_time": 1.7227273,
                "end_time": 1.7568182,
                "pitch": 70,
                "velocity": 51,
                "duration": 0.0340909,
                "tempo": 120.0
            },
            {
                "start_time": 1.8909091,
                "end_time": 1.9227273,
                "pitch": 71,
                "velocity": 51,
                "duration": 0.0318182,
                "tempo": 120.0
            },
            {
                "start_time": 2.0568182,
                "end_time": 2.0931818,
                "pitch": 57,
                "velocity": 51,
                "duration": 0.0363636,
                "tempo": 120.0
            },
            {
                "start_time": 2.2340909,
                "end_time": 2.2704545,
                "pitch": 69,
                "velocity": 80,
                "duration": 0.0363636,
                "tempo": 120.0
            },
            {
                "start_time": 2.4113636,
                "end_time": 2.4431818,
                "pitch": 70,
                "velocity": 80,
                "duration": 0.0318182,
                "tempo": 120.0
            },
            {
                "start_time": 2.5727273,
                "end_time": 2.6068182,
                "pitch": 71,
                "velocity": 80,
                "duration": 0.0340909,
                "tempo": 120.0
            },
            {
                "start_time": 2.7363636,
                "end_time": 2.7681818,
                "pitch": 57,
                "velocity": 80,
                "duration": 0.0318182,
                "tempo": 120.0
            },
            {
                "start_time": 2.9022727,
                "end_time": 2.9363636,
                "pitch": 69,
                "velocity": 127,
                "duration": 0.0340909,
                "tempo": 120.0
            },
            {
                "start_time": 3.0704545,
                "end_time": 3.1045455,
                "pitch": 70,
                "velocity": 127,
                "duration": 0.0340909,
                "tempo": 120.0
            },
            {
                "start_time": 3.2431818,
                "end_time": 3.2772727,
                "pitch": 71,
                "velocity": 127,
                "duration": 0.0340909,
                "tempo": 120.0
            },
            {
                "start_time": 3.4159091,
                "end_time": 3.4477273,
                "pitch": 69,
                "velocity": 127,
                "duration": 0.0318182,
                "tempo": 120.0
            },
            {
                "start_time": 3.5818182,
                "end_time": 3.6159091,
                "pitch": 67,
                "velocity": 80,
                "duration": 0.0340909,
                "tempo": 120.0
            },
            {
                "start_time": 3.75,
                "end_time": 3.7840909,
                "pitch": 69,
                "velocity": 80,
                "duration": 0.0340909,
                "tempo": 120.0
            },
            {
                "start_time": 3.9181818,
                "end_time": 3.95,
                "pitch": 67,
                "velocity": 80,
                "duration": 0.0318182,
                "tempo": 120.0
            },
            {
                "start_time": 4.0840909,
                "end_time": 4.1181818,
                "pitch": 69,
                "velocity": 80,
                "duration": 0.0340909,
                "tempo": 120.0
            },
            {
                "start_time": 4.2522727,
                "end_time": 4.2863636,
                "pitch": 67,
                "velocity": 80,
                "duration": 0.0340909,
                "tempo": 120.0
            },
            {
                "start_time": 4.4204545,
                "end_time": 4.4545455,
                "pitch": 57,
                "velocity": 80,
                "duration": 0.0340909,
                "tempo": 120.0
            },
            {
                "start_time": 4.5909091,
                "end_time": 4.6272727,
                "pitch": 57,
                "velocity": 80,
                "duration": 0.0363636,
                "tempo": 120.0
            },
            {
                "start_time": 4.7636364,
                "end_time": 4.7977273,
                "pitch": 69,
                "velocity": 80,
                "duration": 0.0340909,
                "tempo": 120.0
            },
            {
                "start_time": 4.9363636,
                "end_time": 4.9704545,
                "pitch": 67,
                "velocity": 80,
                "duration": 0.0340909,
                "tempo": 120.0
            },
            {
                "start_time": 5.1090909,
                "end_time": 5.1431818,
                "pitch": 69,
                "velocity": 80,
                "duration": 0.0340909,
                "tempo": 120.0
            },
            {
                "start_time": 5.275,
                "end_time": 5.3090909,
                "pitch": 67,
                "velocity": 80,
                "duration": 0.0340909,
                "tempo": 120.0
            },
            {
                "start_time": 5.4431818,
                "end_time": 5.4772727,
                "pitch": 69,
                "velocity": 80,
                "duration": 0.0340909,
                "tempo": 120.0
            },
            {
                "start_time": 5.6113636,
                "end_time": 5.6454545,
                "pitch": 67,
                "velocity": 80,
                "duration": 0.0340909,
                "tempo": 120.0
            },
            {
                "start_time": 5.7772727,
                "end_time": 5.7954545,
                "pitch": 64,
                "velocity": 80,
                "duration": 0.0181818,
                "tempo": 120.0
            },
            {
                "start_time": 5.8636364,
                "end_time": 5.8818182,
                "pitch": 62,
                "velocity": 127,
                "duration": 0.0181818,
                "tempo": 120.0
            },
            {
                "start_time": 5.95,
                "end_time": 5.9681818,
                "pitch": 60,
                "velocity": 127,
                "duration": 0.0181818,
                "tempo": 120.0
            },
            {
                "start_time": 6.0363636,
                "end_time": 6.0545455,
                "pitch": 59,
                "velocity": 127,
                "duration": 0.0181818,
                "tempo": 120.0
            },
            {
                "start_time": 6.1227273,
                "end_time": 6.1568182,
                "pitch": 57,
                "velocity": 127,
                "duration": 0.0340909,
                "tempo": 120.0
            },
            {
                "start_time": 6.2909091,
                "end_time": 6.3227273,
                "pitch": 69,
                "velocity": 25,
                "duration": 0.0318182,
                "tempo": 120.0
            },
            {
                "start_time": 6.4568182,
                "end_time": 6.4909091,
                "pitch": 70,
                "velocity": 25,
                "duration": 0.0340909,
                "tempo": 120.0
            },
            {
                "start_time": 6.6431818,
                "end_time": 6.675,
                "pitch": 71,
                "velocity": 25,
                "duration": 0.0318182,
                "tempo": 120.0
            },
            {
                "start_time": 6.8113636,
                "end_time": 6.8477273,
                "pitch": 57,
                "velocity": 25,
                "duration": 0.0363636,
                "tempo": 120.0
            },
            {
                "start_time": 6.9886364,
                "end_time": 7.0068182,
                "pitch": 69,
                "velocity": 51,
                "duration": 0.0181818,
                "tempo": 120.0
            },
            {
                "start_time": 7.1636364,
                "end_time": 7.1977273,
                "pitch": 70,
                "velocity": 51,
                "duration": 0.0340909,
                "tempo": 120.0
            },
            {
                "start_time": 7.3318182,
                "end_time": 7.3659091,
                "pitch": 71,
                "velocity": 51,
                "duration": 0.0340909,
                "tempo": 120.0
            },
            {
                "start_time": 7.5,
                "end_time": 7.5340909,
                "pitch": 57,
                "velocity": 51,
                "duration": 0.0340909,
                "tempo": 120.0
            },
            {
                "start_time": 7.6704545,
                "end_time": 7.7068182,
                "pitch": 69,
                "velocity": 80,
                "duration": 0.0363636,
                "tempo": 120.0
            },
            {
                "start_time": 7.8431818,
                "end_time": 7.8772727,
                "pitch": 70,
                "velocity": 80,
                "duration": 0.0340909,
                "tempo": 120.0
            },
            {
                "start_time": 8.0113636,
                "end_time": 8.0454545,
                "pitch": 71,
                "velocity": 80,
                "duration": 0.0340909,
                "tempo": 120.0
            },
            {
                "start_time": 8.1795455,
                "end_time": 8.2113636,
                "pitch": 57,
                "velocity": 80,
                "duration": 0.0318182,
                "tempo": 120.0
            },
            {
                "start_time": 8.3454545,
                "end_time": 8.3795455,
                "pitch": 69,
                "velocity": 127,
                "duration": 0.0340909,
                "tempo": 120.0
            },
            {
                "start_time": 8.5136364,
                "end_time": 8.5477273,
                "pitch": 70,
                "velocity": 127,
                "duration": 0.0340909,
                "tempo": 120.0
            },
            {
                "start_time": 8.6863636,
                "end_time": 8.7204545,
                "pitch": 71,
                "velocity": 127,
                "duration": 0.0340909,
                "tempo": 120.0
            },
            {
                "start_time": 8.8568182,
                "end_time": 8.8909091,
                "pitch": 69,
                "velocity": 127,
                "duration": 0.0340909,
                "tempo": 120.0
            },
            {
                "start_time": 9.025,
                "end_time": 9.0590909,
                "pitch": 67,
                "velocity": 80,
                "duration": 0.0340909,
                "tempo": 120.0
            },
            {
                "start_time": 9.1931818,
                "end_time": 9.225,
                "pitch": 69,
                "velocity": 80,
                "duration": 0.0318182,
                "tempo": 120.0
            },
            {
                "start_time": 9.3590909,
                "end_time": 9.3931818,
                "pitch": 67,
                "velocity": 80,
                "duration": 0.0340909,
                "tempo": 120.0
            },
            {
                "start_time": 9.5272727,
                "end_time": 9.5613636,
                "pitch": 69,
                "velocity": 80,
                "duration": 0.0340909,
                "tempo": 120.0
            },
            {
                "start_time": 9.6954545,
                "end_time": 9.7295455,
                "pitch": 67,
                "velocity": 80,
                "duration": 0.0340909,
                "tempo": 120.0
            },
            {
                "start_time": 9.8613636,
                "end_time": 9.8977273,
                "pitch": 57,
                "velocity": 80,
                "duration": 0.0363636,
                "tempo": 120.0
            },
            {
                "start_time": 10.0340909,
                "end_time": 10.0681818,
                "pitch": 57,
                "velocity": 80,
                "duration": 0.0340909,
                "tempo": 120.0
            },
            {
                "start_time": 10.2068182,
                "end_time": 10.2409091,
                "pitch": 69,
                "velocity": 80,
                "duration": 0.0340909,
                "tempo": 120.0
            },
            {
                "start_time": 10.3795455,
                "end_time": 10.4136364,
                "pitch": 67,
                "velocity": 80,
                "duration": 0.0340909,
                "tempo": 120.0
            },
            {
                "start_time": 10.5522727,
                "end_time": 10.5840909,
                "pitch": 69,
                "velocity": 80,
                "duration": 0.0318182,
                "tempo": 120.0
            },
            {
                "start_time": 10.7181818,
                "end_time": 10.7522727,
                "pitch": 67,
                "velocity": 80,
                "duration": 0.0340909,
                "tempo": 120.0
            },
            {
                "start_time": 10.8863636,
                "end_time": 10.9204545,
                "pitch": 69,
                "velocity": 80,
                "duration": 0.0340909,
                "tempo": 120.0
            },
            {
                "start_time": 11.0545455,
                "end_time": 11.0863636,
                "pitch": 67,
                "velocity": 80,
                "duration": 0.0318182,
                "tempo": 120.0
            },
            {
                "start_time": 11.2204545,
                "end_time": 11.2386364,
                "pitch": 64,
                "velocity": 80,
                "duration": 0.0181818,
                "tempo": 120.0
            },
            {
                "start_time": 11.3045455,
                "end_time": 11.3227273,
                "pitch": 62,
                "velocity": 127,
                "duration": 0.0181818,
                "tempo": 120.0
            },
            {
                "start_time": 11.3886364,
                "end_time": 11.4045455,
                "pitch": 60,
                "velocity": 127,
                "duration": 0.0159091,
                "tempo": 120.0
            },
            {
                "start_time": 11.4727273,
                "end_time": 11.4886364,
                "pitch": 59,
                "velocity": 127,
                "duration": 0.0159091,
                "tempo": 120.0
            },
            {
                "start_time": 11.5568182,
                "end_time": 12.3681818,
                "pitch": 59,
                "velocity": 127,
                "duration": 0.8113636,
                "tempo": 120.0
            },
            {
                "start_time": 12.4022727,
                "end_time": 12.5363636,
                "pitch": 59,
                "velocity": 80,
                "duration": 0.1340909,
                "tempo": 120.0
            },
            {
                "start_time": 12.5704545,
                "end_time": 12.7090909,
                "pitch": 60,
                "velocity": 80,
                "duration": 0.1386364,
                "tempo": 120.0
            },
            {
                "start_time": 12.7431818,
                "end_time": 13.6704545,
                "pitch": 62,
                "velocity": 80,
                "duration": 0.9272727,
                "tempo": 120.0
            },
            {
                "start_time": 13.9295455,
                "end_time": 13.9954545,
                "pitch": 84,
                "velocity": 80,
                "duration": 0.0659091,
                "tempo": 120.0
            },
            {
                "start_time": 14.0136364,
                "end_time": 14.0795455,
                "pitch": 84,
                "velocity": 80,
                "duration": 0.0659091,
                "tempo": 120.0
            },
            {
                "start_time": 14.0954545,
                "end_time": 14.2318182,
                "pitch": 84,
                "velocity": 80,
                "duration": 0.1363636,
                "tempo": 120.0
            },
            {
                "start_time": 14.2659091,
                "end_time": 15.0795455,
                "pitch": 59,
                "velocity": 80,
                "duration": 0.8136364,
                "tempo": 120.0
            },
            {
                "start_time": 15.1136364,
                "end_time": 15.2477273,
                "pitch": 59,
                "velocity": 80,
                "duration": 0.1340909,
                "tempo": 120.0
            },
            {
                "start_time": 15.2795455,
                "end_time": 15.4181818,
                "pitch": 58,
                "velocity": 80,
                "duration": 0.1386364,
                "tempo": 120.0
            },
            {
                "start_time": 15.4522727,
                "end_time": 16.3636364,
                "pitch": 57,
                "velocity": 80,
                "duration": 0.9113636,
                "tempo": 120.0
            },
            {
                "start_time": 16.6386364,
                "end_time": 16.7727273,
                "pitch": 67,
                "velocity": 80,
                "duration": 0.1340909,
                "tempo": 120.0
            },
            {
                "start_time": 16.8068182,
                "end_time": 16.9409091,
                "pitch": 69,
                "velocity": 80,
                "duration": 0.1340909,
                "tempo": 120.0
            },
            {
                "start_time": 16.975,
                "end_time": 17.7863636,
                "pitch": 71,
                "velocity": 80,
                "duration": 0.8113636,
                "tempo": 120.0
            },
            {
                "start_time": 17.8204545,
                "end_time": 17.9545455,
                "pitch": 71,
                "velocity": 80,
                "duration": 0.1340909,
                "tempo": 120.0
            },
            {
                "start_time": 17.9886364,
                "end_time": 18.125,
                "pitch": 72,
                "velocity": 80,
                "duration": 0.1363636,
                "tempo": 120.0
            },
            {
                "start_time": 18.1590909,
                "end_time": 19.0704545,
                "pitch": 74,
                "velocity": 80,
                "duration": 0.9113636,
                "tempo": 120.0
            },
            {
                "start_time": 19.3454545,
                "end_time": 19.4295455,
                "pitch": 84,
                "velocity": 80,
                "duration": 0.0840909,
                "tempo": 120.0
            },
            {
                "start_time": 19.4454545,
                "end_time": 19.5318182,
                "pitch": 84,
                "velocity": 80,
                "duration": 0.0863636,
                "tempo": 120.0
            },
            {
                "start_time": 19.55,
                "end_time": 19.7045455,
                "pitch": 84,
                "velocity": 80,
                "duration": 0.1545455,
                "tempo": 120.0
            },
            {
                "start_time": 19.7409091,
                "end_time": 20.5840909,
                "pitch": 71,
                "velocity": 80,
                "duration": 0.8431818,
                "tempo": 120.0
            },
            {
                "start_time": 20.6159091,
                "end_time": 20.75,
                "pitch": 71,
                "velocity": 80,
                "duration": 0.1340909,
                "tempo": 120.0
            },
            {
                "start_time": 20.7840909,
                "end_time": 20.9227273,
                "pitch": 70,
                "velocity": 80,
                "duration": 0.1386364,
                "tempo": 120.0
            },
            {
                "start_time": 20.9590909,
                "end_time": 21.3659091,
                "pitch": 69,
                "velocity": 80,
                "duration": 0.4068182,
                "tempo": 120.0
            },
            {
                "start_time": 21.4659091,
                "end_time": 21.7068182,
                "pitch": 67,
                "velocity": 80,
                "duration": 0.2409091,
                "tempo": 120.0
            },
            {
                "start_time": 21.8090909,
                "end_time": 22.0454545,
                "pitch": 65,
                "velocity": 80,
                "duration": 0.2363636,
                "tempo": 120.0
            },
            {
                "start_time": 22.1454545,
                "end_time": 22.2113636,
                "pitch": 62,
                "velocity": 80,
                "duration": 0.0659091,
                "tempo": 120.0
            },
            {
                "start_time": 22.2272727,
                "end_time": 22.2795455,
                "pitch": 60,
                "velocity": 80,
                "duration": 0.0522727,
                "tempo": 120.0
            },
            {
                "start_time": 22.3113636,
                "end_time": 22.3795455,
                "pitch": 59,
                "velocity": 80,
                "duration": 0.0681818,
                "tempo": 120.0
            },
            {
                "start_time": 22.3795455,
                "end_time": 22.4454545,
                "pitch": 59,
                "velocity": 80,
                "duration": 0.0659091,
                "tempo": 120.0
            }
        ],
        "Electric Guitar (clean)": [
            {
                "start_time": 0.0,
                "end_time": 0.7363636,
                "pitch": 40,
                "velocity": 4,
                "duration": 0.7363636,
                "tempo": 120.0
            },
            {
                "start_time": 0.7363636,
                "end_time": 0.7545455,
                "pitch": 40,
                "velocity": 4,
                "duration": 0.0181818,
                "tempo": 120.0
            },
            {
                "start_time": 0.7545455,
                "end_time": 1.0795455,
                "pitch": 31,
                "velocity": 4,
                "duration": 0.325,
                "tempo": 120.0
            },
            {
                "start_time": 1.0795455,
                "end_time": 1.2409091,
                "pitch": 23,
                "velocity": 4,
                "duration": 0.1613636,
                "tempo": 120.0
            },
            {
                "start_time": 1.2409091,
                "end_time": 1.7386364,
                "pitch": 31,
                "velocity": 4,
                "duration": 0.4977273,
                "tempo": 120.0
            },
            {
                "start_time": 1.7386364,
                "end_time": 1.9068182,
                "pitch": 23,
                "velocity": 4,
                "duration": 0.1681818,
                "tempo": 120.0
            },
            {
                "start_time": 1.9068182,
                "end_time": 2.4272727,
                "pitch": 31,
                "velocity": 4,
                "duration": 0.5204545,
                "tempo": 120.0
            },
            {
                "start_time": 2.4272727,
                "end_time": 2.5886364,
                "pitch": 23,
                "velocity": 4,
                "duration": 0.1613636,
                "tempo": 120.0
            },
            {
                "start_time": 2.5886364,
                "end_time": 2.6863636,
                "pitch": 31,
                "velocity": 4,
                "duration": 0.0977273,
                "tempo": 120.0
            },
            {
                "start_time": 2.6863636,
                "end_time": 3.0886364,
                "pitch": 86,
                "velocity": 4,
                "duration": 0.4022727,
                "tempo": 120.0
            },
            {
                "start_time": 3.0886364,
                "end_time": 3.4318182,
                "pitch": 78,
                "velocity": 4,
                "duration": 0.3431818,
                "tempo": 120.0
            },
            {
                "start_time": 3.4318182,
                "end_time": 3.7659091,
                "pitch": 86,
                "velocity": 4,
                "duration": 0.3340909,
                "tempo": 120.0
            },
            {
                "start_time": 3.7659091,
                "end_time": 3.9340909,
                "pitch": 78,
                "velocity": 4,
                "duration": 0.1681818,
                "tempo": 120.0
            },
            {
                "start_time": 3.9340909,
                "end_time": 4.4363636,
                "pitch": 86,
                "velocity": 4,
                "duration": 0.5022727,
                "tempo": 120.0
            },
            {
                "start_time": 4.4363636,
                "end_time": 4.6090909,
                "pitch": 78,
                "velocity": 4,
                "duration": 0.1727273,
                "tempo": 120.0
            },
            {
                "start_time": 4.6090909,
                "end_time": 5.125,
                "pitch": 86,
                "velocity": 4,
                "duration": 0.5159091,
                "tempo": 120.0
            },
            {
                "start_time": 5.125,
                "end_time": 5.2931818,
                "pitch": 78,
                "velocity": 4,
                "duration": 0.1681818,
                "tempo": 120.0
            },
            {
                "start_time": 5.2931818,
                "end_time": 5.7954545,
                "pitch": 86,
                "velocity": 4,
                "duration": 0.5022727,
                "tempo": 120.0
            },
            {
                "start_time": 5.7954545,
                "end_time": 6.1386364,
                "pitch": 78,
                "velocity": 4,
                "duration": 0.3431818,
                "tempo": 120.0
            },
            {
                "start_time": 6.1386364,
                "end_time": 6.475,
                "pitch": 86,
                "velocity": 4,
                "duration": 0.3363636,
                "tempo": 120.0
            },
            {
                "start_time": 6.475,
                "end_time": 6.6590909,
                "pitch": 78,
                "velocity": 4,
                "duration": 0.1840909,
                "tempo": 120.0
            },
            {
                "start_time": 6.6590909,
                "end_time": 7.1818182,
                "pitch": 86,
                "velocity": 4,
                "duration": 0.5227273,
                "tempo": 120.0
            },
            {
                "start_time": 7.1818182,
                "end_time": 7.3477273,
                "pitch": 78,
                "velocity": 4,
                "duration": 0.1659091,
                "tempo": 120.0
            },
            {
                "start_time": 7.3477273,
                "end_time": 7.6204545,
                "pitch": 86,
                "velocity": 4,
                "duration": 0.2727273,
                "tempo": 120.0
            },
            {
                "start_time": 7.6204545,
                "end_time": 7.8613636,
                "pitch": 100,
                "velocity": 4,
                "duration": 0.2409091,
                "tempo": 120.0
            },
            {
                "start_time": 7.8613636,
                "end_time": 8.0272727,
                "pitch": 92,
                "velocity": 4,
                "duration": 0.1659091,
                "tempo": 120.0
            },
            {
                "start_time": 8.0272727,
                "end_time": 8.5295455,
                "pitch": 101,
                "velocity": 4,
                "duration": 0.5022727,
                "tempo": 120.0
            },
            {
                "start_time": 8.5295455,
                "end_time": 8.875,
                "pitch": 92,
                "velocity": 4,
                "duration": 0.3454545,
                "tempo": 120.0
            },
            {
                "start_time": 8.875,
                "end_time": 9.1590909,
                "pitch": 101,
                "velocity": 4,
                "duration": 0.2840909,
                "tempo": 120.0
            },
            {
                "start_time": 9.1590909,
                "end_time": 9.2090909,
                "pitch": 67,
                "velocity": 4,
                "duration": 0.05,
                "tempo": 120.0
            },
            {
                "start_time": 9.2090909,
                "end_time": 9.3772727,
                "pitch": 59,
                "velocity": 4,
                "duration": 0.1681818,
                "tempo": 120.0
            },
            {
                "start_time": 9.3772727,
                "end_time": 9.8795455,
                "pitch": 67,
                "velocity": 4,
                "duration": 0.5022727,
                "tempo": 120.0
            },
            {
                "start_time": 9.8795455,
                "end_time": 10.0522727,
                "pitch": 59,
                "velocity": 4,
                "duration": 0.1727273,
                "tempo": 120.0
            },
            {
                "start_time": 10.0522727,
                "end_time": 10.5681818,
                "pitch": 67,
                "velocity": 4,
                "duration": 0.5159091,
                "tempo": 120.0
            },
            {
                "start_time": 10.5681818,
                "end_time": 10.7363636,
                "pitch": 59,
                "velocity": 4,
                "duration": 0.1681818,
                "tempo": 120.0
            },
            {
                "start_time": 10.7363636,
                "end_time": 11.2386364,
                "pitch": 67,
                "velocity": 4,
                "duration": 0.5022727,
                "tempo": 120.0
            },
            {
                "start_time": 11.2386364,
                "end_time": 11.5727273,
                "pitch": 59,
                "velocity": 4,
                "duration": 0.3340909,
                "tempo": 120.0
            },
            {
                "start_time": 11.5727273,
                "end_time": 11.8318182,
                "pitch": 67,
                "velocity": 4,
                "duration": 0.2590909,
                "tempo": 120.0
            },
            {
                "start_time": 11.8318182,
                "end_time": 11.9181818,
                "pitch": 61,
                "velocity": 4,
                "duration": 0.0863636,
                "tempo": 120.0
            },
            {
                "start_time": 11.9181818,
                "end_time": 12.2522727,
                "pitch": 53,
                "velocity": 4,
                "duration": 0.3340909,
                "tempo": 120.0
            },
            {
                "start_time": 12.2522727,
                "end_time": 12.5863636,
                "pitch": 61,
                "velocity": 4,
                "duration": 0.3340909,
                "tempo": 120.0
            },
            {
                "start_time": 12.5863636,
                "end_time": 12.7431818,
                "pitch": 53,
                "velocity": 4,
                "duration": 0.1568182,
                "tempo": 120.0
            },
            {
                "start_time": 12.7431818,
                "end_time": 13.2659091,
                "pitch": 61,
                "velocity": 4,
                "duration": 0.5227273,
                "tempo": 120.0
            },
            {
                "start_time": 13.2659091,
                "end_time": 13.6022727,
                "pitch": 53,
                "velocity": 4,
                "duration": 0.3363636,
                "tempo": 120.0
            },
            {
                "start_time": 13.6022727,
                "end_time": 13.9454545,
                "pitch": 61,
                "velocity": 4,
                "duration": 0.3431818,
                "tempo": 120.0
            },
            {
                "start_time": 13.9454545,
                "end_time": 14.2659091,
                "pitch": 53,
                "velocity": 4,
                "duration": 0.3204545,
                "tempo": 120.0
            },
            {
                "start_time": 14.2659091,
                "end_time": 14.6,
                "pitch": 61,
                "velocity": 4,
                "duration": 0.3340909,
                "tempo": 120.0
            },
            {
                "start_time": 14.6,
                "end_time": 14.9454545,
                "pitch": 21,
                "velocity": 4,
                "duration": 0.3454545,
                "tempo": 120.0
            },
            {
                "start_time": 14.9454545,
                "end_time": 15.2795455,
                "pitch": 30,
                "velocity": 4,
                "duration": 0.3340909,
                "tempo": 120.0
            },
            {
                "start_time": 15.2795455,
                "end_time": 15.4522727,
                "pitch": 20,
                "velocity": 4,
                "duration": 0.1727273,
                "tempo": 120.0
            },
            {
                "start_time": 15.4522727,
                "end_time": 15.9613636,
                "pitch": 30,
                "velocity": 4,
                "duration": 0.5090909,
                "tempo": 120.0
            },
            {
                "start_time": 15.9613636,
                "end_time": 16.1954545,
                "pitch": 20,
                "velocity": 4,
                "duration": 0.2340909,
                "tempo": 120.0
            },
            {
                "start_time": 16.1954545,
                "end_time": 16.2954545,
                "pitch": 54,
                "velocity": 4,
                "duration": 0.1,
                "tempo": 120.0
            },
            {
                "start_time": 16.2954545,
                "end_time": 16.6386364,
                "pitch": 62,
                "velocity": 4,
                "duration": 0.3431818,
                "tempo": 120.0
            },
            {
                "start_time": 16.6386364,
                "end_time": 16.8727273,
                "pitch": 54,
                "velocity": 4,
                "duration": 0.2340909,
                "tempo": 120.0
            },
            {
                "start_time": 16.8727273,
                "end_time": 16.975,
                "pitch": 48,
                "velocity": 4,
                "duration": 0.1022727,
                "tempo": 120.0
            },
            {
                "start_time": 16.975,
                "end_time": 17.075,
                "pitch": 56,
                "velocity": 4,
                "duration": 0.1,
                "tempo": 120.0
            },
            {
                "start_time": 17.075,
                "end_time": 17.3090909,
                "pitch": 75,
                "velocity": 4,
                "duration": 0.2340909,
                "tempo": 120.0
            },
            {
                "start_time": 17.3090909,
                "end_time": 17.6522727,
                "pitch": 68,
                "velocity": 4,
                "duration": 0.3431818,
                "tempo": 120.0
            },
            {
                "start_time": 17.6522727,
                "end_time": 17.9886364,
                "pitch": 77,
                "velocity": 4,
                "duration": 0.3363636,
                "tempo": 120.0
            },
            {
                "start_time": 17.9886364,
                "end_time": 18.1590909,
                "pitch": 68,
                "velocity": 4,
                "duration": 0.1704545,
                "tempo": 120.0
            },
            {
                "start_time": 18.1590909,
                "end_time": 18.6568182,
                "pitch": 77,
                "velocity": 4,
                "duration": 0.4977273,
                "tempo": 120.0
            },
            {
                "start_time": 18.6568182,
                "end_time": 19.0022727,
                "pitch": 68,
                "velocity": 4,
                "duration": 0.3454545,
                "tempo": 120.0
            },
            {
                "start_time": 19.0022727,
                "end_time": 19.3636364,
                "pitch": 77,
                "velocity": 4,
                "duration": 0.3613636,
                "tempo": 120.0
            },
            {
                "start_time": 19.3636364,
                "end_time": 19.7590909,
                "pitch": 68,
                "velocity": 4,
                "duration": 0.3954545,
                "tempo": 120.0
            },
            {
                "start_time": 19.7590909,
                "end_time": 20.1227273,
                "pitch": 77,
                "velocity": 4,
                "duration": 0.3636364,
                "tempo": 120.0
            },
            {
                "start_time": 20.1227273,
                "end_time": 20.4659091,
                "pitch": 68,
                "velocity": 4,
                "duration": 0.3431818,
                "tempo": 120.0
            },
            {
                "start_time": 20.4659091,
                "end_time": 20.8022727,
                "pitch": 77,
                "velocity": 4,
                "duration": 0.3363636,
                "tempo": 120.0
            },
            {
                "start_time": 20.8022727,
                "end_time": 20.9590909,
                "pitch": 68,
                "velocity": 4,
                "duration": 0.1568182,
                "tempo": 120.0
            },
            {
                "start_time": 20.9590909,
                "end_time": 21.1318182,
                "pitch": 77,
                "velocity": 4,
                "duration": 0.1727273,
                "tempo": 120.0
            },
            {
                "start_time": 21.1318182,
                "end_time": 21.8090909,
                "pitch": 68,
                "velocity": 4,
                "duration": 0.6772727,
                "tempo": 120.0
            },
            {
                "start_time": 21.8090909,
                "end_time": 21.9090909,
                "pitch": 19,
                "velocity": 4,
                "duration": 0.1,
                "tempo": 120.0
            },
            {
                "start_time": 21.9090909,
                "end_time": 22.2454545,
                "pitch": 68,
                "velocity": 4,
                "duration": 0.3363636,
                "tempo": 120.0
            },
            {
                "start_time": 22.2454545,
                "end_time": 22.4795455,
                "pitch": 21,
                "velocity": 4,
                "duration": 0.2340909,
                "tempo": 120.0
            }
        ]
    }
}