{
    "mood": "angry",
    "instruments": {
        "Synth Bass 1": [
            {
                "start_time": 0.2295455,
                "end_time": 0.3295455,
                "pitch": 55,
                "velocity": 80,
                "duration": 0.1,
                "tempo": 120.0
            },
            {
                "start_time": 0.4295455,
                "end_time": 0.5386364,
                "pitch": 55,
                "velocity": 80,
                "duration": 0.1090909,
                "tempo": 120.0
            },
            {
                "start_time": 0.6454545,
                "end_time": 0.7,
                "pitch": 55,
                "velocity": 80,
                "duration": 0.0545455,
                "tempo": 120.0
            },
            {
                "start_time": 0.7545455,
                "end_time": 0.7886364,
                "pitch": 55,
                "velocity": 80,
                "duration": 0.0340909,
                "tempo": 120.0
            },
            {
                "start_time": 0.8613636,
                "end_time": 0.9454545,
                "pitch": 57,
                "velocity": 80,
                "duration": 0.0840909,
                "tempo": 120.0
            },
            {
                "start_time": 1.0613636,
                "end_time": 1.1454545,
                "pitch": 57,
                "velocity": 80,
                "duration": 0.0840909,
                "tempo": 120.0
            },
            {
                "start_time": 1.2613636,
                "end_time": 1.3454545,
                "pitch": 57,
                "velocity": 80,
                "duration": 0.0840909,
                "tempo": 120.0
            },
            {
                "start_time": 1.4613636,
                "end_time": 1.5113636,
                "pitch": 57,
                "velocity": 80,
                "duration": 0.05,
                "tempo": 120.0
            },
            {
                "start_time": 1.5613636,
                "end_time": 1.6113636,
                "pitch": 57,
                "velocity": 80,
                "duration": 0.05,
                "tempo": 120.0
            },
            {
                "start_time": 1.6613636,
                "end_time": 1.7454545,
                "pitch": 58,
                "velocity": 80,
                "duration": 0.0840909,
                "tempo": 120.0
            },
            {
                "start_time": 1.8613636,
                "end_time": 1.9454545,
                "pitch": 58,
                "velocity": 80,
                "duration": 0.0840909,
                "tempo": 120.0
            },
            {
                "start_time": 2.0613636,
                "end_time": 2.1454545,
                "pitch": 58,
                "velocity": 80,
                "duration": 0.0840909,
                "tempo": 120.0
            },
            {
                "start_time": 2.2613636,
                "end_time": 2.3113636,
                "pitch": 58,
                "velocity": 80,
                "duration": 0.05,
                "tempo": 120.0
            },
            {
                "start_time": 2.3613636,
                "end_time": 2.4113636,
                "pitch": 58,
                "velocity": 80,
                "duration": 0.05,
                "tempo": 120.0
            },
            {
                "start_time": 2.4613636,
                "end_time": 2.5613636,
                "pitch": 60,
                "velocity": 80,
                "duration": 0.1,
                "tempo": 120.0
            },
            {
                "start_time": 2.6636364,
                "end_time": 2.7136364,
                "pitch": 60,
                "velocity": 80,
                "duration": 0.05,
                "tempo": 120.0
            },
            {
                "start_time": 2.7636364,
                "end_time": 2.8136364,
                "pitch": 60,
                "velocity": 80,
                "duration": 0.05,
                "tempo": 120.0
            },
            {
                "start_time": 2.8636364,
                "end_time": 2.9636364,
                "pitch": 62,
                "velocity": 80,
                "duration": 0.1,
                "tempo": 120.0
            },
            {
                "start_time": 3.0636364,
                "end_time": 3.1136364,
                "pitch": 62,
                "velocity": 80,
                "duration": 0.05,
                "tempo": 120.0
            },
            {
                "start_time": 3.1636364,
                "end_time": 3.2136364,
                "pitch": 62,
                "velocity": 80,
                "duration": 0.05,
                "tempo": 120.0
            },
            {
                "start_time": 3.2636364,
                "end_time": 3.3636364,
                "pitch": 55,
                "velocity": 80,
                "duration": 0.1,
                "tempo": 120.0
            },
            {
                "start_time": 3.4636364,
                "end_time": 3.5636364,
                "pitch": 55,
                "velocity": 80,
                "duration": 0.1,
                "tempo": 120.0
            },
            {
                "start_time": 3.6636364,
                "end_time": 3.7636364,
                "pitch": 55,
                "velocity": 80,
                "duration": 0.1,
                "tempo": 120.0
            },
            {
                "start_time": 3.8636364,
                "end_time": 3.9136364,
                "pitch": 55,
                "velocity": 80,
                "duration": 0.05,
                "tempo": 120.0
            },
            {
                "start_time": 3.9636364,
                "end_time": 4.0136364,
                "pitch": 55,
                "velocity": 80,
                "duration": 0.05,
                "tempo": 120.0
            },
            {
                "start_time": 4.0636364,
                "end_time": 4.1659091,
                "pitch": 57,
                "velocity": 80,
                "duration": 0.1022727,
                "tempo": 120.0
            },
            {
                "start_time": 4.2659091,
                "end_time": 4.3659091,
                "pitch": 57,
                "velocity": 80,
                "duration": 0.1,
                "tempo": 120.0
            },
            {
                "start_time": 4.4659091,
                "end_time": 4.5659091,
                "pitch": 57,
                "velocity": 80,
                "duration": 0.1,
                "tempo": 120.0
            },
            {
                "start_time": 4.6659091,
                "end_time": 4.7159091,
                "pitch": 57,
                "velocity": 80,
                "duration": 0.05,
                "tempo": 120.0
            },
            {
                "start_time": 4.7659091,
                "end_time": 4.8159091,
                "pitch": 57,
                "velocity": 80,
                "duration": 0.05,
                "tempo": 120.0
            },
            {
                "start_time": 4.8659091,
                "end_time": 4.9681818,
                "pitch": 58,
                "velocity": 80,
                "duration": 0.1022727,
                "tempo": 120.0
            },
            {
                "start_time": 5.0681818,
                "end_time": 5.1681818,
                "pitch": 58,
                "velocity": 80,
                "duration": 0.1,
                "tempo": 120.0
            },
            {
                "start_time": 5.2704545,
                "end_time": 5.3704545,
                "pitch": 58,
                "velocity": 80,
                "duration": 0.1,
                "tempo": 120.0
            },
            {
                "start_time": 5.4704545,
                "end_time": 5.5204545,
                "pitch": 58,
                "velocity": 80,
                "duration": 0.05,
                "tempo": 120.0
            },
            {
                "start_time": 5.5727273,
                "end_time": 5.6227273,
                "pitch": 58,
                "velocity": 80,
                "duration": 0.05,
                "tempo": 120.0
            },
            {
                "start_time": 5.6727273,
                "end_time": 5.7727273,
                "pitch": 60,
                "velocity": 80,
                "duration": 0.1,
                "tempo": 120.0
            },
            {
                "start_time": 5.8727273,
                "end_time": 5.9227273,
                "pitch": 60,
                "velocity": 80,
                "duration": 0.05,
                "tempo": 120.0
            },
            {
                "start_time": 5.9727273,
                "end_time": 6.0227273,
                "pitch": 60,
                "velocity": 80,
                "duration": 0.05,
                "tempo": 120.0
            },
            {
                "start_time": 6.0727273,
                "end_time": 6.1727273,
                "pitch": 62,
                "velocity": 80,
                "duration": 0.1,
                "tempo": 120.0
            },
            {
                "start_time": 6.2727273,
                "end_time": 6.325,
                "pitch": 62,
                "velocity": 80,
                "duration": 0.0522727,
                "tempo": 120.0
            },
            {
                "start_time": 6.375,
                "end_time": 6.425,
                "pitch": 62,
                "velocity": 80,
                "duration": 0.05,
                "tempo": 120.0
            },
            {
                "start_time": 6.475,
                "end_time": 6.525,
                "pitch": 55,
                "velocity": 80,
                "duration": 0.05,
                "tempo": 120.0
            },
            {
                "start_time": 6.575,
                "end_time": 6.625,
                "pitch": 55,
                "velocity": 80,
                "duration": 0.05,
                "tempo": 120.0
            },
            {
                "start_time": 6.675,
                "end_time": 6.725,
                "pitch": 55,
                "velocity": 80,
                "duration": 0.05,
                "tempo": 120.0
            },
            {
                "start_time": 6.875,
                "end_time": 6.975,
                "pitch": 55,
                "velocity": 80,
                "duration": 0.1,
                "tempo": 120.0
            },
            {
                "start_time": 7.0772727,
                "end_time": 7.1272727,
                "pitch": 60,
                "velocity": 80,
                "duration": 0.05,
                "tempo": 120.0
            },
            {
                "start_time": 7.1772727,
                "end_time": 7.2272727,
                "pitch": 62,
                "velocity": 80,
                "duration": 0.05,
                "tempo": 120.0
            },
            {
                "start_time": 7.2772727,
                "end_time": 7.3272727,
                "pitch": 53,
                "velocity": 80,
                "duration": 0.05,
                "tempo": 120.0
            },
            {
                "start_time": 7.3772727,
                "end_time": 7.4295455,
                "pitch": 53,
                "velocity": 80,
                "duration": 0.0522727,
                "tempo": 120.0
            },
            {
                "start_time": 7.4795455,
                "end_time": 7.5795455,
                "pitch": 55,
                "velocity": 80,
                "duration": 0.1,
                "tempo": 120.0
            },
            {
                "start_time": 7.6795455,
                "end_time": 7.7295455,
                "pitch": 58,
                "velocity": 80,
                "duration": 0.05,
                "tempo": 120.0
            },
            {
                "start_time": 7.8795455,
                "end_time": 7.9295455,
                "pitch": 55,
                "velocity": 80,
                "duration": 0.05,
                "tempo": 120.0
            },
            {
                "start_time": 7.9795455,
                "end_time": 8.0295455,
                "pitch": 55,
                "velocity": 80,
                "duration": 0.05,
                "tempo": 120.0
            },
            {
                "start_time": 8.2795455,
                "end_time": 8.3295455,
                "pitch": 55,
                "velocity": 80,
                "duration": 0.05,
                "tempo": 120.0
            },
            {
                "start_time": 8.3795455,
                "end_time": 8.4295455,
                "pitch": 55,
                "velocity": 80,
                "duration": 0.05,
                "tempo": 120.0
            },
            {
                "start_time": 8.6818182,
                "end_time": 8.7318182,
                "pitch": 55,
                "velocity": 80,
                "duration": 0.05,
                "tempo": 120.0
            },
            {
                "start_time": 8.7818182,
                "end_time": 8.8318182,
                "pitch": 55,
                "velocity": 80,
                "duration": 0.05,
                "tempo": 120.0
            },
            {
                "start_time": 8.8840909,
                "end_time": 8.9840909,
                "pitch": 53,
                "velocity": 80,
                "duration": 0.1,
                "tempo": 120.0
            },
            {
                "start_time": 9.0840909,
                "end_time": 9.1840909,
                "pitch": 55,
                "velocity": 80,
                "duration": 0.1,
                "tempo": 120.0
            },
            {
                "start_time": 9.2863636,
                "end_time": 9.3363636,
                "pitch": 62,
                "velocity": 80,
                "duration": 0.05,
                "tempo": 120.0
            },
            {
                "start_time": 9.3863636,
                "end_time": 9.4363636,
                "pitch": 60,
                "velocity": 80,
                "duration": 0.05,
                "tempo": 120.0
            },
            {
                "start_time": 9.4863636,
                "end_time": 9.5363636,
                "pitch": 58,
                "velocity": 80,
                "duration": 0.05,
                "tempo": 120.0
            },
            {
                "start_time": 9.5886364,
                "end_time": 9.6386364,
                "pitch": 55,
                "velocity": 80,
                "duration": 0.05,
                "tempo": 120.0
            },
            {
                "start_time": 9.6886364,
                "end_time": 9.7886364,
                "pitch": 62,
                "velocity": 80,
                "duration": 0.1,
                "tempo": 120.0
            },
            {
                "start_time": 9.8886364,
                "end_time": 9.9909091,
                "pitch": 62,
                "velocity": 80,
                "duration": 0.1022727,
                "tempo": 120.0
            },
            {
                "start_time": 10.0909091,
                "end_time": 10.1909091,
                "pitch": 60,
                "velocity": 80,
                "duration": 0.1,
                "tempo": 120.0
            },
            {
                "start_time": 10.2909091,
                "end_time": 10.3909091,
                "pitch": 60,
                "velocity": 80,
                "duration": 0.1,
                "tempo": 120.0
            },
            {
                "start_time": 10.4909091,
                "end_time": 10.5909091,
                "pitch": 58,
                "velocity": 80,
                "duration": 0.1,
                "tempo": 120.0
            },
            {
                "start_time": 10.6931818,
                "end_time": 10.7931818,
                "pitch": 58,
                "velocity": 80,
                "duration": 0.1,
                "tempo": 120.0
            },
            {
                "start_time": 10.8931818,
                "end_time": 10.9954545,
                "pitch": 57,
                "velocity": 80,
                "duration": 0.1022727,
                "tempo": 120.0
            },
            {
                "start_time": 11.0954545,
                "end_time": 11.1954545,
                "pitch": 57,
                "velocity": 80,
                "duration": 0.1,
                "tempo": 120.0
            },
            {
                "start_time": 11.2954545,
                "end_time": 11.3477273,
                "pitch": 55,
                "velocity": 80,
                "duration": 0.0522727,
                "tempo": 120.0
            },
            {
                "start_time": 11.3977273,
                "end_time": 11.4477273,
                "pitch": 55,
                "velocity": 80,
                "duration": 0.05,
                "tempo": 120.0
            },
            {
                "start_time": 11.4977273,
                "end_time": 11.5477273,
                "pitch": 55,
                "velocity": 80,
                "duration": 0.05,
                "tempo": 120.0
            },
            {
                "start_time": 11.7,
                "end_time": 11.8,
                "pitch": 55,
                "velocity": 80,
                "duration": 0.1,
                "tempo": 120.0
            },
            {
                "start_time": 11.9,
                "end_time": 11.95,
                "pitch": 53,
                "velocity": 80,
                "duration": 0.05,
                "tempo": 120.0
            },
            {
                "start_time": 12.0022727,
                "end_time": 12.0522727,
                "pitch": 53,
                "velocity": 80,
                "duration": 0.05,
                "tempo": 120.0
            },
            {
                "start_time": 12.1022727,
                "end_time": 12.2022727,
                "pitch": 55,
                "velocity": 80,
                "duration": 0.1,
                "tempo": 120.0
            },
            {
                "start_time": 12.3022727,
                "end_time": 12.4022727,
                "pitch": 60,
                "velocity": 80,
                "duration": 0.1,
                "tempo": 120.0
            },
            {
                "start_time": 12.5022727,
                "end_time": 12.6022727,
                "pitch": 60,
                "velocity": 80,
                "duration": 0.1,
                "tempo": 120.0
            },
            {
                "start_time": 12.7022727,
                "end_time": 12.8045455,
                "pitch": 62,
                "velocity": 80,
                "duration": 0.1022727,
                "tempo": 120.0
            },
            {
                "start_time": 12.9045455,
                "end_time": 12.9545455,
                "pitch": 55,
                "velocity": 80,
                "duration": 0.05,
                "tempo": 120.0
            },
            {
                "start_time": 13.0045455,
                "end_time": 13.0545455,
                "pitch": 55,
                "velocity": 80,
                "duration": 0.05,
                "tempo": 120.0
            },
            {
                "start_time": 13.1068182,
                "end_time": 13.1568182,
                "pitch": 55,
                "velocity": 80,
                "duration": 0.05,
                "tempo": 120.0
            },
            {
                "start_time": 13.3068182,
                "end_time": 13.4068182,
                "pitch": 55,
                "velocity": 80,
                "duration": 0.1,
                "tempo": 120.0
            },
            {
                "start_time": 13.5090909,
                "end_time": 13.5590909,
                "pitch": 60,
                "velocity": 80,
                "duration": 0.05,
                "tempo": 120.0
            },
            {
                "start_time": 13.6090909,
                "end_time": 13.6590909,
                "pitch": 62,
                "velocity": 80,
                "duration": 0.05,
                "tempo": 120.0
            },
            {
                "start_time": 13.7090909,
                "end_time": 13.7590909,
                "pitch": 53,
                "velocity": 80,
                "duration": 0.05,
                "tempo": 120.0
            },
            {
                "start_time": 13.8113636,
                "end_time": 13.8613636,
                "pitch": 53,
                "velocity": 80,
                "duration": 0.05,
                "tempo": 120.0
            },
            {
                "start_time": 13.9113636,
                "end_time": 14.0113636,
                "pitch": 55,
                "velocity": 80,
                "duration": 0.1,
                "tempo": 120.0
            },
            {
                "start_time": 14.1136364,
                "end_time": 14.1636364,
                "pitch": 58,
                "velocity": 80,
                "duration": 0.05,
                "tempo": 120.0
            },
            {
                "start_time": 14.3136364,
                "end_time": 14.3636364,
                "pitch": 55,
                "velocity": 80,
                "duration": 0.05,
                "tempo": 120.0
            },
            {
                "start_time": 14.4136364,
                "end_time": 14.4636364,
                "pitch": 55,
                "velocity": 80,
                "duration": 0.05,
                "tempo": 120.0
            },
            {
                "start_time": 14.7136364,
                "end_time": 14.7636364,
                "pitch": 55,
                "velocity": 80,
                "duration": 0.05,
                "tempo": 120.0
            },
            {
                "start_time": 14.8136364,
                "end_time": 14.8659091,
                "pitch": 55,
                "velocity": 80,
                "duration": 0.0522727,
                "tempo": 120.0
            },
            {
                "start_time": 15.1159091,
                "end_time": 15.1659091,
                "pitch": 55,
                "velocity": 80,
                "duration": 0.05,
                "tempo": 120.0
            },
            {
                "start_time": 15.2181818,
                "end_time": 15.2681818,
                "pitch": 55,
                "velocity": 80,
                "duration": 0.05,
                "tempo": 120.0
            },
            {
                "start_time": 15.3181818,
                "end_time": 15.4181818,
                "pitch": 53,
                "velocity": 80,
                "duration": 0.1,
                "tempo": 120.0
            },
            {
                "start_time": 15.5181818,
                "end_time": 15.6204545,
                "pitch": 55,
                "velocity": 80,
                "duration": 0.1022727,
                "tempo": 120.0
            },
            {
                "start_time": 15.7204545,
                "end_time": 15.7704545,
                "pitch": 62,
                "velocity": 80,
                "duration": 0.05,
                "tempo": 120.0
            },
            {
                "start_time": 15.8204545,
                "end_time": 15.8727273,
                "pitch": 60,
                "velocity": 80,
                "duration": 0.0522727,
                "tempo": 120.0
            },
            {
                "start_time": 15.9227273,
                "end_time": 15.9727273,
                "pitch": 58,
                "velocity": 80,
                "duration": 0.05,
                "tempo": 120.0
            },
            {
                "start_time": 16.0227273,
                "end_time": 16.0727273,
                "pitch": 55,
                "velocity": 80,
                "duration": 0.05,
                "tempo": 120.0
            },
            {
                "start_time": 16.1227273,
                "end_time": 16.225,
                "pitch": 62,
                "velocity": 80,
                "duration": 0.1022727,
                "tempo": 120.0
            },
            {
                "start_time": 16.325,
                "end_time": 16.425,
                "pitch": 62,
                "velocity": 80,
                "duration": 0.1,
                "tempo": 120.0
            },
            {
                "start_time": 16.525,
                "end_time": 16.625,
                "pitch": 60,
                "velocity": 80,
                "duration": 0.1,
                "tempo": 120.0
            },
            {
                "start_time": 16.725,
                "end_time": 16.825,
                "pitch": 60,
                "velocity": 80,
                "duration": 0.1,
                "tempo": 120.0
            },
            {
                "start_time": 16.925,
                "end_time": 17.025,
                "pitch": 58,
                "velocity": 80,
                "duration": 0.1,
                "tempo": 120.0
            },
            {
                "start_time": 17.125,
                "end_time": 17.225,
                "pitch": 58,
                "velocity": 80,
                "duration": 0.1,
                "tempo": 120.0
            },
            {
                "start_time": 17.325,
                "end_time": 17.4272727,
                "pitch": 57,
                "velocity": 80,
                "duration": 0.1022727,
                "tempo": 120.0
            },
            {
                "start_time": 17.5272727,
                "end_time": 17.6272727,
                "pitch": 57,
                "velocity": 80,
                "duration": 0.1,
                "tempo": 120.0
            },
            {
                "start_time": 17.7272727,
                "end_time": 17.7772727,
                "pitch": 55,
                "velocity": 80,
                "duration": 0.05,
                "tempo": 120.0
            },
            {
                "start_time": 17.8272727,
                "end_time": 17.875,
                "pitch": 55,
                "velocity": 80,
                "duration": 0.0477273,
                "tempo": 120.0
            },
            {
                "start_time": 17.925,
                "end_time": 17.9727273,
                "pitch": 55,
                "velocity": 80,
                "duration": 0.0477273,
                "tempo": 120.0
            },
            {
                "start_time": 18.1204545,
                "end_time": 18.2227273,
                "pitch": 55,
                "velocity": 80,
                "duration": 0.1022727,
                "tempo": 120.0
            },
            {
                "start_time": 18.325,
                "end_time": 18.3772727,
                "pitch": 53,
                "velocity": 80,
                "duration": 0.0522727,
                "tempo": 120.0
            },
            {
                "start_time": 18.4295455,
                "end_time": 18.4795455,
                "pitch": 53,
                "velocity": 80,
                "duration": 0.05,
                "tempo": 120.0
            },
            {
                "start_time": 18.5318182,
                "end_time": 18.6318182,
                "pitch": 55,
                "velocity": 80,
                "duration": 0.1,
                "tempo": 120.0
            },
            {
                "start_time": 18.7318182,
                "end_time": 18.8318182,
                "pitch": 53,
                "velocity": 80,
                "duration": 0.1,
                "tempo": 120.0
            },
            {
                "start_time": 18.9318182,
                "end_time": 19.0318182,
                "pitch": 55,
                "velocity": 80,
                "duration": 0.1,
                "tempo": 120.0
            },
            {
                "start_time": 19.1318182,
                "end_time": 19.2318182,
                "pitch": 53,
                "velocity": 80,
                "duration": 0.1,
                "tempo": 120.0
            },
            {
                "start_time": 19.3318182,
                "end_time": 19.4318182,
                "pitch": 51,
                "velocity": 80,
                "duration": 0.1,
                "tempo": 120.0
            },
            {
                "start_time": 19.5318182,
                "end_time": 19.6340909,
                "pitch": 51,
                "velocity": 80,
                "duration": 0.1022727,
                "tempo": 120.0
            },
            {
                "start_time": 19.7340909,
                "end_time": 19.8340909,
                "pitch": 51,
                "velocity": 80,
                "duration": 0.1,
                "tempo": 120.0
            },
            {
                "start_time": 19.9340909,
                "end_time": 20.0340909,
                "pitch": 51,
                "velocity": 80,
                "duration": 0.1,
                "tempo": 120.0
            },
            {
                "start_time": 20.1340909,
                "end_time": 20.1840909,
                "pitch": 50,
                "velocity": 80,
                "duration": 0.05,
                "tempo": 120.0
            },
            {
                "start_time": 20.2340909,
                "end_time": 20.2840909,
                "pitch": 50,
                "velocity": 80,
                "duration": 0.05,
                "tempo": 120.0
            },
            {
                "start_time": 20.3363636,
                "end_time": 20.4363636,
                "pitch": 51,
                "velocity": 80,
                "duration": 0.1,
                "tempo": 120.0
            },
            {
                "start_time": 20.5363636,
                "end_time": 20.6363636,
                "pitch": 51,
                "velocity": 80,
                "duration": 0.1,
                "tempo": 120.0
            },
            {
                "start_time": 20.7363636,
                "end_time": 20.8363636,
                "pitch": 51,
                "velocity": 80,
                "duration": 0.1,
                "tempo": 120.0
            },
            {
                "start_time": 20.9363636,
                "end_time": 21.0363636,
                "pitch": 50,
                "velocity": 80,
                "duration": 0.1,
                "tempo": 120.0
            },
            {
                "start_time": 21.1363636,
                "end_time": 21.2363636,
                "pitch": 50,
                "velocity": 80,
                "duration": 0.1,
                "tempo": 120.0
            },
            {
                "start_time": 21.3363636,
                "end_time": 21.4386364,
                "pitch": 57,
                "velocity": 80,
                "duration": 0.1022727,
                "tempo": 120.0
            },
            {
                "start_time": 21.5386364,
                "end_time": 21.6386364,
                "pitch": 57,
                "velocity": 80,
                "duration": 0.1,
                "tempo": 120.0
            },
            {
                "start_time": 21.7386364,
                "end_time": 21.8386364,
                "pitch": 55,
                "velocity": 80,
                "duration": 0.1,
                "tempo": 120.0
            },
            {
                "start_time": 21.9386364,
                "end_time": 22.0386364,
                "pitch": 55,
                "velocity": 80,
                "duration": 0.1,
                "tempo": 120.0
            },
            {
                "start_time": 22.1386364,
                "end_time": 22.2409091,
                "pitch": 53,
                "velocity": 80,
                "duration": 0.1022727,
                "tempo": 120.0
            },
            {
                "start_time": 22.3409091,
                "end_time": 22.3909091,
                "pitch": 55,
                "velocity": 80,
                "duration": 0.05,
                "tempo": 120.0
            },
            {
                "start_time": 22.4409091,
                "end_time": 22.4909091,
                "pitch": 57,
                "velocity": 80,
                "duration": 0.05,
                "tempo": 120.0
            },
            {
                "start_time": 22.5431818,
                "end_time": 22.6431818,
                "pitch": 58,
                "velocity": 80,
                "duration": 0.1,
                "tempo": 120.0
            },
            {
                "start_time": 22.7431818,
                "end_time": 22.8431818,
                "pitch": 57,
                "velocity": 80,
                "duration": 0.1,
                "tempo": 120.0
            },
            {
                "start_time": 23.1431818,
                "end_time": 23.1931818,
                "pitch": 58,
                "velocity": 80,
                "duration": 0.05,
                "tempo": 120.0
            },
            {
                "start_time": 23.2431818,
                "end_time": 23.2931818,
                "pitch": 57,
                "velocity": 80,
                "duration": 0.05,
                "tempo": 120.0
            },
            {
                "start_time": 23.3431818,
                "end_time": 23.4431818,
                "pitch": 53,
                "velocity": 80,
                "duration": 0.1,
                "tempo": 120.0
            },
            {
                "start_time": 23.5431818,
                "end_time": 23.6431818,
                "pitch": 53,
                "velocity": 80,
                "duration": 0.1,
                "tempo": 120.0
            },
            {
                "start_time": 23.9454545,
                "end_time": 23.9954545,
                "pitch": 58,
                "velocity": 80,
                "duration": 0.05,
                "tempo": 120.0
            },
            {
                "start_time": 24.0454545,
                "end_time": 24.0954545,
                "pitch": 58,
                "velocity": 80,
                "duration": 0.05,
                "tempo": 120.0
            },
            {
                "start_time": 24.1454545,
                "end_time": 24.2454545,
                "pitch": 60,
                "velocity": 80,
                "duration": 0.1,
                "tempo": 120.0
            },
            {
                "start_time": 24.3454545,
                "end_time": 24.4477273,
                "pitch": 60,
                "velocity": 80,
                "duration": 0.1022727,
                "tempo": 120.0
            },
            {
                "start_time": 24.7477273,
                "end_time": 24.7977273,
                "pitch": 60,
                "velocity": 80,
                "duration": 0.05,
                "tempo": 120.0
            },
            {
                "start_time": 24.8477273,
                "end_time": 24.8977273,
                "pitch": 58,
                "velocity": 80,
                "duration": 0.05,
                "tempo": 120.0
            },
            {
                "start_time": 24.9477273,
                "end_time": 24.9977273,
                "pitch": 55,
                "velocity": 80,
                "duration": 0.05,
                "tempo": 120.0
            },
            {
                "start_time": 25.0477273,
                "end_time": 25.0977273,
                "pitch": 55,
                "velocity": 80,
                "duration": 0.05,
                "tempo": 120.0
            },
            {
                "start_time": 25.1477273,
                "end_time": 25.1977273,
                "pitch": 55,
                "velocity": 80,
                "duration": 0.05,
                "tempo": 120.0
            },
            {
                "start_time": 25.55,
                "end_time": 25.65,
                "pitch": 53,
                "velocity": 80,
                "duration": 0.1,
                "tempo": 120.0
            },
            {
                "start_time": 25.75,
                "end_time": 25.85,
                "pitch": 51,
                "velocity": 80,
                "duration": 0.1,
                "tempo": 120.0
            },
            {
                "start_time": 25.95,
                "end_time": 26.05,
                "pitch": 51,
                "velocity": 80,
                "duration": 0.1,
                "tempo": 120.0
            },
            {
                "start_time": 26.15,
                "end_time": 26.25,
                "pitch": 51,
                "velocity": 80,
                "duration": 0.1,
                "tempo": 120.0
            },
            {
                "start_time": 26.3522727,
                "end_time": 26.4522727,
                "pitch": 51,
                "velocity": 80,
                "duration": 0.1,
                "tempo": 120.0
            },
            {
                "start_time": 26.5522727,
                "end_time": 26.6022727,
                "pitch": 50,
                "velocity": 80,
                "duration": 0.05,
                "tempo": 120.0
            },
            {
                "start_time": 26.6522727,
                "end_time": 26.7022727,
                "pitch": 50,
                "velocity": 80,
                "duration": 0.05,
                "tempo": 120.0
            },
            {
                "start_time": 26.7522727,
                "end_time": 26.8522727,
                "pitch": 51,
                "velocity": 80,
                "duration": 0.1,
                "tempo": 120.0
            },
            {
                "start_time": 26.9522727,
                "end_time": 27.0522727,
                "pitch": 51,
                "velocity": 80,
                "duration": 0.1,
                "tempo": 120.0
            },
            {
                "start_time": 27.1568182,
                "end_time": 27.2386364,
                "pitch": 51,
                "velocity": 80,
                "duration": 0.0818182,
                "tempo": 120.0
            },
            {
                "start_time": 27.3409091,
                "end_time": 27.4386364,
                "pitch": 50,
                "velocity": 80,
                "duration": 0.0977273,
                "tempo": 120.0
            },
            {
                "start_time": 27.5363636,
                "end_time": 27.6363636,
                "pitch": 50,
                "velocity": 80,
                "duration": 0.1,
                "tempo": 120.0
            },
            {
                "start_time": 27.7340909,
                "end_time": 27.8340909,
                "pitch": 57,
                "velocity": 80,
                "duration": 0.1,
                "tempo": 120.0
            },
            {
                "start_time": 27.9340909,
                "end_time": 28.0363636,
                "pitch": 57,
                "velocity": 80,
                "duration": 0.1022727,
                "tempo": 120.0
            },
            {
                "start_time": 28.15,
                "end_time": 28.2363636,
                "pitch": 55,
                "velocity": 80,
                "duration": 0.0863636,
                "tempo": 120.0
            },
            {
                "start_time": 28.3568182,
                "end_time": 28.4409091,
                "pitch": 55,
                "velocity": 80,
                "duration": 0.0840909,
                "tempo": 120.0
            },
            {
                "start_time": 28.5613636,
                "end_time": 28.6454545,
                "pitch": 53,
                "velocity": 80,
                "duration": 0.0840909,
                "tempo": 120.0
            },
            {
                "start_time": 28.7613636,
                "end_time": 28.8113636,
                "pitch": 55,
                "velocity": 80,
                "duration": 0.05,
                "tempo": 120.0
            },
            {
                "start_time": 28.8613636,
                "end_time": 28.9113636,
                "pitch": 57,
                "velocity": 80,
                "duration": 0.05,
                "tempo": 120.0
            },
            {
                "start_time": 28.9613636,
                "end_time": 29.0454545,
                "pitch": 55,
                "velocity": 80,
                "duration": 0.0840909,
                "tempo": 120.0
            },
            {
                "start_time": 29.1613636,
                "end_time": 29.2454545,
                "pitch": 55,
                "velocity": 80,
                "duration": 0.0840909,
                "tempo": 120.0
            },
            {
                "start_time": 29.5636364,
                "end_time": 29.6454545,
                "pitch": 55,
                "velocity": 80,
                "duration": 0.0818182,
                "tempo": 120.0
            },
            {
                "start_time": 29.7636364,
                "end_time": 29.8477273,
                "pitch": 57,
                "velocity": 80,
                "duration": 0.0840909,
                "tempo": 120.0
            },
            {
                "start_time": 29.9636364,
                "end_time": 30.0477273,
                "pitch": 57,
                "velocity": 80,
                "duration": 0.0840909,
                "tempo": 120.0
            },
            {
                "start_time": 30.3659091,
                "end_time": 30.45,
                "pitch": 57,
                "velocity": 80,
                "duration": 0.0840909,
                "tempo": 120.0
            },
            {
                "start_time": 30.5659091,
                "end_time": 30.65,
                "pitch": 58,
                "velocity": 80,
                "duration": 0.0840909,
                "tempo": 120.0
            },
            {
                "start_time": 30.7659091,
                "end_time": 30.85,
                "pitch": 58,
                "velocity": 80,
                "duration": 0.0840909,
                "tempo": 120.0
            },
            {
                "start_time": 31.1659091,
                "end_time": 31.2659091,
                "pitch": 58,
                "velocity": 80,
                "duration": 0.1,
                "tempo": 120.0
            },
            {
                "start_time": 31.3659091,
                "end_time": 31.4681818,
                "pitch": 60,
                "velocity": 80,
                "duration": 0.1022727,
                "tempo": 120.0
            },
            {
                "start_time": 31.5681818,
                "end_time": 31.6681818,
                "pitch": 60,
                "velocity": 80,
                "duration": 0.1,
                "tempo": 120.0
            },
            {
                "start_time": 31.7704545,
                "end_time": 31.8204545,
                "pitch": 62,
                "velocity": 80,
                "duration": 0.05,
                "tempo": 120.0
            },
            {
                "start_time": 31.8704545,
                "end_time": 31.9204545,
                "pitch": 60,
                "velocity": 80,
                "duration": 0.05,
                "tempo": 120.0
            },
            {
                "start_time": 31.9704545,
                "end_time": 32.0204545,
                "pitch": 58,
                "velocity": 80,
                "duration": 0.05,
                "tempo": 120.0
            },
            {
                "start_time": 32.0704545,
                "end_time": 32.1204545,
                "pitch": 57,
                "velocity": 80,
                "duration": 0.05,
                "tempo": 120.0
            },
            {
                "start_time": 32.1704545,
                "end_time": 32.2204545,
                "pitch": 55,
                "velocity": 80,
                "duration": 0.05,
                "tempo": 120.0
            },
            {
                "start_time": 32.2704545,
                "end_time": 32.3204545,
                "pitch": 55,
                "velocity": 80,
                "duration": 0.05,
                "tempo": 120.0
            },
            {
                "start_time": 32.3704545,
                "end_time": 32.4204545,
                "pitch": 55,
                "velocity": 80,
                "duration": 0.05,
                "tempo": 120.0
            },
            {
                "start_time": 32.5727273,
                "end_time": 32.6727273,
                "pitch": 55,
                "velocity": 80,
                "duration": 0.1,
                "tempo": 120.0
            },
            {
                "start_time": 32.7727273,
                "end_time": 32.8227273,
                "pitch": 60,
                "velocity": 80,
                "duration": 0.05,
                "tempo": 120.0
            },
            {
                "start_time": 32.8727273,
                "end_time": 32.9227273,
                "pitch": 62,
                "velocity": 80,
                "duration": 0.05,
                "tempo": 120.0
            },
            {
                "start_time": 32.9727273,
                "end_time": 33.0227273,
                "pitch": 53,
                "velocity": 80,
                "duration": 0.05,
                "tempo": 120.0
            },
            {
                "start_time": 33.0727273,
                "end_time": 33.1227273,
                "pitch": 53,
                "velocity": 80,
                "duration": 0.05,
                "tempo": 120.0
            },
            {
                "start_time": 33.1727273,
                "end_time": 33.2727273,
                "pitch": 55,
                "velocity": 80,
                "duration": 0.1,
                "tempo": 120.0
            },
            {
                "start_time": 33.3727273,
                "end_time": 33.4227273,
                "pitch": 58,
                "velocity": 80,
                "duration": 0.05,
                "tempo": 120.0
            },
            {
                "start_time": 33.5727273,
                "end_time": 33.6227273,
                "pitch": 55,
                "velocity": 80,
                "duration": 0.05,
                "tempo": 120.0
            },
            {
                "start_time": 33.6727273,
                "end_time": 33.7227273,
                "pitch": 55,
                "velocity": 80,
                "duration": 0.05,
                "tempo": 120.0
            },
            {
                "start_time": 33.9727273,
                "end_time": 34.0227273,
                "pitch": 55,
                "velocity": 80,
                "duration": 0.05,
                "tempo": 120.0
            },
            {
                "start_time": 34.075,
                "end_time": 34.125,
                "pitch": 55,
                "velocity": 80,
                "duration": 0.05,
                "tempo": 120.0
            },
            {
                "start_time": 34.375,
                "end_time": 34.425,
                "pitch": 55,
                "velocity": 80,
                "duration": 0.05,
                "tempo": 120.0
            },
            {
                "start_time": 34.475,
                "end_time": 34.525,
                "pitch": 55,
                "velocity": 80,
                "duration": 0.05,
                "tempo": 120.0
            },
            {
                "start_time": 34.575,
                "end_time": 34.675,
                "pitch": 53,
                "velocity": 80,
                "duration": 0.1,
                "tempo": 120.0
            },
            {
                "start_time": 34.775,
                "end_time": 34.875,
                "pitch": 55,
                "velocity": 80,
                "duration": 0.1,
                "tempo": 120.0
            },
            {
                "start_time": 34.975,
                "end_time": 35.025,
                "pitch": 62,
                "velocity": 80,
                "duration": 0.05,
                "tempo": 120.0
            },
            {
                "start_time": 35.075,
                "end_time": 35.125,
                "pitch": 60,
                "velocity": 80,
                "duration": 0.05,
                "tempo": 120.0
            },
            {
                "start_time": 35.175,
                "end_time": 35.225,
                "pitch": 58,
                "velocity": 80,
                "duration": 0.05,
                "tempo": 120.0
            },
            {
                "start_time": 35.275,
                "end_time": 35.325,
                "pitch": 55,
                "velocity": 80,
                "duration": 0.05,
                "tempo": 120.0
            },
            {
                "start_time": 35.375,
                "end_time": 35.475,
                "pitch": 62,
                "velocity": 80,
                "duration": 0.1,
                "tempo": 120.0
            },
            {
                "start_time": 35.575,
                "end_time": 35.675,
                "pitch": 62,
                "velocity": 80,
                "duration": 0.1,
                "tempo": 120.0
            },
            {
                "start_time": 35.775,
                "end_time": 35.875,
                "pitch": 60,
                "velocity": 80,
                "duration": 0.1,
                "tempo": 120.0
            },
            {
                "start_time": 35.975,
                "end_time": 36.0772727,
                "pitch": 60,
                "velocity": 80,
                "duration": 0.1022727,
                "tempo": 120.0
            },
            {
                "start_time": 36.1772727,
                "end_time": 36.2772727,
                "pitch": 58,
                "velocity": 80,
                "duration": 0.1,
                "tempo": 120.0
            },
            {
                "start_time": 36.3772727,
                "end_time": 36.4772727,
                "pitch": 58,
                "velocity": 80,
                "duration": 0.1,
                "tempo": 120.0
            },
            {
                "start_time": 36.5772727,
                "end_time": 36.6772727,
                "pitch": 57,
                "velocity": 80,
                "duration": 0.1,
                "tempo": 120.0
            },
            {
                "start_time": 36.7772727,
                "end_time": 36.8772727,
                "pitch": 57,
                "velocity": 80,
                "duration": 0.1,
                "tempo": 120.0
            },
            {
                "start_time": 36.9772727,
                "end_time": 37.0272727,
                "pitch": 55,
                "velocity": 80,
                "duration": 0.05,
                "tempo": 120.0
            },
            {
                "start_time": 37.0772727,
                "end_time": 37.1272727,
                "pitch": 55,
                "velocity": 80,
                "duration": 0.05,
                "tempo": 120.0
            },
            {
                "start_time": 37.1772727,
                "end_time": 37.2272727,
                "pitch": 55,
                "velocity": 80,
                "duration": 0.05,
                "tempo": 120.0
            },
            {
                "start_time": 37.3772727,
                "end_time": 37.4772727,
                "pitch": 55,
                "velocity": 80,
                "duration": 0.1,
                "tempo": 120.0
            },
            {
                "start_time": 37.5772727,
                "end_time": 37.6272727,
                "pitch": 53,
                "velocity": 80,
                "duration": 0.05,
                "tempo": 120.0
            },
            {
                "start_time": 37.6772727,
                "end_time": 37.7272727,
                "pitch": 53,
                "velocity": 80,
                "duration": 0.05,
                "tempo": 120.0
            },
            {
                "start_time": 37.7772727,
                "end_time": 37.8772727,
                "pitch": 55,
                "velocity": 80,
                "duration": 0.1,
                "tempo": 120.0
            },
            {
                "start_time": 37.9795455,
                "end_time": 38.0795455,
                "pitch": 60,
                "velocity": 80,
                "duration": 0.1,
                "tempo": 120.0
            },
            {
                "start_time": 38.1795455,
                "end_time": 38.2795455,
                "pitch": 60,
                "velocity": 80,
                "duration": 0.1,
                "tempo": 120.0
            },
            {
                "start_time": 38.3795455,
                "end_time": 38.4795455,
                "pitch": 62,
                "velocity": 80,
                "duration": 0.1,
                "tempo": 120.0
            },
            {
                "start_time": 38.5795455,
                "end_time": 38.6795455,
                "pitch": 63,
                "velocity": 80,
                "duration": 0.1,
                "tempo": 120.0
            },
            {
                "start_time": 38.7795455,
                "end_time": 38.8295455,
                "pitch": 75,
                "velocity": 80,
                "duration": 0.05,
                "tempo": 120.0
            },
            {
                "start_time": 38.8795455,
                "end_time": 38.9295455,
                "pitch": 75,
                "velocity": 80,
                "duration": 0.05,
                "tempo": 120.0
            },
            {
                "start_time": 38.9795455,
                "end_time": 39.0795455,
                "pitch": 62,
                "velocity": 80,
                "duration": 0.1,
                "tempo": 120.0
            },
            {
                "start_time": 39.1795455,
                "end_time": 39.2295455,
                "pitch": 74,
                "velocity": 80,
                "duration": 0.05,
                "tempo": 120.0
            },
            {
                "start_time": 39.2795455,
                "end_time": 39.3295455,
                "pitch": 74,
                "velocity": 80,
                "duration": 0.05,
                "tempo": 120.0
            },
            {
                "start_time": 39.3795455,
                "end_time": 39.4295455,
                "pitch": 61,
                "velocity": 80,
                "duration": 0.05,
                "tempo": 120.0
            },
            {
                "start_time": 39.4772727,
                "end_time": 39.5272727,
                "pitch": 61,
                "velocity": 80,
                "duration": 0.05,
                "tempo": 120.0
            },
            {
                "start_time": 39.575,
                "end_time": 39.625,
                "pitch": 61,
                "velocity": 80,
                "duration": 0.05,
                "tempo": 120.0
            },
            {
                "start_time": 39.675,
                "end_time": 39.7227273,
                "pitch": 61,
                "velocity": 80,
                "duration": 0.0477273,
                "tempo": 120.0
            },
            {
                "start_time": 39.7727273,
                "end_time": 39.875,
                "pitch": 60,
                "velocity": 80,
                "duration": 0.1022727,
                "tempo": 120.0
            },
            {
                "start_time": 39.9795455,
                "end_time": 40.0318182,
                "pitch": 72,
                "velocity": 80,
                "duration": 0.0522727,
                "tempo": 120.0
            },
            {
                "start_time": 40.0818182,
                "end_time": 40.1340909,
                "pitch": 72,
                "velocity": 80,
                "duration": 0.0522727,
                "tempo": 120.0
            },
            {
                "start_time": 40.1840909,
                "end_time": 40.2681818,
                "pitch": 63,
                "velocity": 80,
                "duration": 0.0840909,
                "tempo": 120.0
            },
            {
                "start_time": 40.3840909,
                "end_time": 40.4340909,
                "pitch": 75,
                "velocity": 80,
                "duration": 0.05,
                "tempo": 120.0
            },
            {
                "start_time": 40.4840909,
                "end_time": 40.5340909,
                "pitch": 75,
                "velocity": 80,
                "duration": 0.05,
                "tempo": 120.0
            },
            {
                "start_time": 40.5840909,
                "end_time": 40.6681818,
                "pitch": 62,
                "velocity": 80,
                "duration": 0.0840909,
                "tempo": 120.0
            },
            {
                "start_time": 40.7840909,
                "end_time": 40.8340909,
                "pitch": 74,
                "velocity": 80,
                "duration": 0.05,
                "tempo": 120.0
            },
            {
                "start_time": 40.8840909,
                "end_time": 40.9340909,
                "pitch": 74,
                "velocity": 80,
                "duration": 0.05,
                "tempo": 120.0
            },
            {
                "start_time": 40.9840909,
                "end_time": 41.0340909,
                "pitch": 61,
                "velocity": 80,
                "duration": 0.05,
                "tempo": 120.0
            },
            {
                "start_time": 41.0840909,
                "end_time": 41.1340909,
                "pitch": 61,
                "velocity": 80,
                "duration": 0.05,
                "tempo": 120.0
            },
            {
                "start_time": 41.1840909,
                "end_time": 41.2340909,
                "pitch": 61,
                "velocity": 80,
                "duration": 0.05,
                "tempo": 120.0
            },
            {
                "start_time": 41.2840909,
                "end_time": 41.3340909,
                "pitch": 61,
                "velocity": 80,
                "duration": 0.05,
                "tempo": 120.0
            },
            {
                "start_time": 41.3840909,
                "end_time": 41.4681818,
                "pitch": 60,
                "velocity": 80,
                "duration": 0.0840909,
                "tempo": 120.0
            },
            {
                "start_time": 41.5840909,
                "end_time": 41.6340909,
                "pitch": 72,
                "velocity": 80,
                "duration": 0.05,
                "tempo": 120.0
            },
            {
                "start_time": 41.6840909,
                "end_time": 41.7340909,
                "pitch": 72,
                "velocity": 80,
                "duration": 0.05,
                "tempo": 120.0
            },
            {
                "start_time": 41.7840909,
                "end_time": 41.8681818,
                "pitch": 62,
                "velocity": 80,
                "duration": 0.0840909,
                "tempo": 120.0
            },
            {
                "start_time": 41.9863636,
                "end_time": 42.0363636,
                "pitch": 74,
                "velocity": 80,
                "duration": 0.05,
                "tempo": 120.0
            },
            {
                "start_time": 42.0863636,
                "end_time": 42.1363636,
                "pitch": 74,
                "velocity": 80,
                "duration": 0.05,
                "tempo": 120.0
            },
            {
                "start_time": 42.1863636,
                "end_time": 42.2863636,
                "pitch": 61,
                "velocity": 80,
                "duration": 0.1,
                "tempo": 120.0
            },
            {
                "start_time": 42.3863636,
                "end_time": 42.4363636,
                "pitch": 73,
                "velocity": 80,
                "duration": 0.05,
                "tempo": 120.0
            },
            {
                "start_time": 42.4863636,
                "end_time": 42.5363636,
                "pitch": 73,
                "velocity": 80,
                "duration": 0.05,
                "tempo": 120.0
            },
            {
                "start_time": 42.5863636,
                "end_time": 42.6363636,
                "pitch": 60,
                "velocity": 80,
                "duration": 0.05,
                "tempo": 120.0
            },
            {
                "start_time": 42.6840909,
                "end_time": 42.7340909,
                "pitch": 60,
                "velocity": 80,
                "duration": 0.05,
                "tempo": 120.0
            },
            {
                "start_time": 42.7840909,
                "end_time": 42.8318182,
                "pitch": 60,
                "velocity": 80,
                "duration": 0.0477273,
                "tempo": 120.0
            },
            {
                "start_time": 42.8818182,
                "end_time": 42.9295455,
                "pitch": 60,
                "velocity": 80,
                "duration": 0.0477273,
                "tempo": 120.0
            },
            {
                "start_time": 42.9795455,
                "end_time": 43.0659091,
                "pitch": 58,
                "velocity": 80,
                "duration": 0.0863636,
                "tempo": 120.0
            },
            {
                "start_time": 43.1840909,
                "end_time": 43.2363636,
                "pitch": 70,
                "velocity": 80,
                "duration": 0.0522727,
                "tempo": 120.0
            },
            {
                "start_time": 43.2886364,
                "end_time": 43.3386364,
                "pitch": 70,
                "velocity": 80,
                "duration": 0.05,
                "tempo": 120.0
            },
            {
                "start_time": 43.3909091,
                "end_time": 43.4727273,
                "pitch": 55,
                "velocity": 80,
                "duration": 0.0818182,
                "tempo": 120.0
            },
            {
                "start_time": 43.5909091,
                "end_time": 43.6409091,
                "pitch": 67,
                "velocity": 80,
                "duration": 0.05,
                "tempo": 120.0
            },
            {
                "start_time": 43.6909091,
                "end_time": 43.7409091,
                "pitch": 67,
                "velocity": 80,
                "duration": 0.05,
                "tempo": 120.0
            },
            {
                "start_time": 43.7909091,
                "end_time": 43.875,
                "pitch": 57,
                "velocity": 80,
                "duration": 0.0840909,
                "tempo": 120.0
            },
            {
                "start_time": 43.9909091,
                "end_time": 44.0409091,
                "pitch": 69,
                "velocity": 80,
                "duration": 0.05,
                "tempo": 120.0
            },
            {
                "start_time": 44.0931818,
                "end_time": 44.1431818,
                "pitch": 69,
                "velocity": 80,
                "duration": 0.05,
                "tempo": 120.0
            },
            {
                "start_time": 44.1931818,
                "end_time": 44.2772727,
                "pitch": 58,
                "velocity": 80,
                "duration": 0.0840909,
                "tempo": 120.0
            },
            {
                "start_time": 44.3931818,
                "end_time": 44.4431818,
                "pitch": 70,
                "velocity": 80,
                "duration": 0.05,
                "tempo": 120.0
            },
            {
                "start_time": 44.4931818,
                "end_time": 44.5431818,
                "pitch": 70,
                "velocity": 80,
                "duration": 0.05,
                "tempo": 120.0
            },
            {
                "start_time": 44.5931818,
                "end_time": 44.6772727,
                "pitch": 60,
                "velocity": 80,
                "duration": 0.0840909,
                "tempo": 120.0
            },
            {
                "start_time": 44.7931818,
                "end_time": 44.8431818,
                "pitch": 72,
                "velocity": 80,
                "duration": 0.05,
                "tempo": 120.0
            },
            {
                "start_time": 44.8931818,
                "end_time": 44.9431818,
                "pitch": 72,
                "velocity": 80,
                "duration": 0.05,
                "tempo": 120.0
            },
            {
                "start_time": 44.9931818,
                "end_time": 45.0772727,
                "pitch": 60,
                "velocity": 80,
                "duration": 0.0840909,
                "tempo": 120.0
            },
            {
                "start_time": 45.1931818,
                "end_time": 45.2431818,
                "pitch": 72,
                "velocity": 80,
                "duration": 0.05,
                "tempo": 120.0
            },
            {
                "start_time": 45.2931818,
                "end_time": 45.3431818,
                "pitch": 72,
                "velocity": 80,
                "duration": 0.05,
                "tempo": 120.0
            },
            {
                "start_time": 45.3931818,
                "end_time": 45.4772727,
                "pitch": 60,
                "velocity": 80,
                "duration": 0.0840909,
                "tempo": 120.0
            },
            {
                "start_time": 45.5931818,
                "end_time": 45.6431818,
                "pitch": 72,
                "velocity": 80,
                "duration": 0.05,
                "tempo": 120.0
            },
            {
                "start_time": 45.6931818,
                "end_time": 45.7431818,
                "pitch": 72,
                "velocity": 80,
                "duration": 0.05,
                "tempo": 120.0
            },
            {
                "start_time": 45.7931818,
                "end_time": 45.8431818,
                "pitch": 60,
                "velocity": 80,
                "duration": 0.05,
                "tempo": 120.0
            },
            {
                "start_time": 45.8931818,
                "end_time": 45.9431818,
                "pitch": 60,
                "velocity": 80,
                "duration": 0.05,
                "tempo": 120.0
            },
            {
                "start_time": 45.9954545,
                "end_time": 46.0454545,
                "pitch": 60,
                "velocity": 80,
                "duration": 0.05,
                "tempo": 120.0
            },
            {
                "start_time": 46.0954545,
                "end_time": 46.1454545,
                "pitch": 60,
                "velocity": 80,
                "duration": 0.05,
                "tempo": 120.0
            },
            {
                "start_time": 46.1954545,
                "end_time": 46.2795455,
                "pitch": 72,
                "velocity": 80,
                "duration": 0.0840909,
                "tempo": 120.0
            },
            {
                "start_time": 46.3954545,
                "end_time": 46.4454545,
                "pitch": 60,
                "velocity": 80,
                "duration": 0.05,
                "tempo": 120.0
            },
            {
                "start_time": 46.4954545,
                "end_time": 46.5454545,
                "pitch": 60,
                "velocity": 80,
                "duration": 0.05,
                "tempo": 120.0
            },
            {
                "start_time": 46.5954545,
                "end_time": 46.6795455,
                "pitch": 62,
                "velocity": 80,
                "duration": 0.0840909,
                "tempo": 120.0
            },
            {
                "start_time": 46.7954545,
                "end_time": 46.8454545,
                "pitch": 74,
                "velocity": 80,
                "duration": 0.05,
                "tempo": 120.0
            },
            {
                "start_time": 46.8954545,
                "end_time": 46.9454545,
                "pitch": 74,
                "velocity": 80,
                "duration": 0.05,
                "tempo": 120.0
            },
            {
                "start_time": 46.9954545,
                "end_time": 47.0795455,
                "pitch": 62,
                "velocity": 80,
                "duration": 0.0840909,
                "tempo": 120.0
            },
            {
                "start_time": 47.1954545,
                "end_time": 47.2454545,
                "pitch": 74,
                "velocity": 80,
                "duration": 0.05,
                "tempo": 120.0
            },
            {
                "start_time": 47.2954545,
                "end_time": 47.3454545,
                "pitch": 74,
                "velocity": 80,
                "duration": 0.05,
                "tempo": 120.0
            },
            {
                "start_time": 47.3954545,
                "end_time": 47.4454545,
                "pitch": 62,
                "velocity": 80,
                "duration": 0.05,
                "tempo": 120.0
            },
            {
                "start_time": 47.4954545,
                "end_time": 47.5454545,
                "pitch": 62,
                "velocity": 80,
                "duration": 0.05,
                "tempo": 120.0
            },
            {
                "start_time": 47.5954545,
                "end_time": 47.6454545,
                "pitch": 62,
                "velocity": 80,
                "duration": 0.05,
                "tempo": 120.0
            },
            {
                "start_time": 47.6954545,
                "end_time": 47.7454545,
                "pitch": 62,
                "velocity": 80,
                "duration": 0.05,
                "tempo": 120.0
            },
            {
                "start_time": 47.7954545,
                "end_time": 47.8795455,
                "pitch": 74,
                "velocity": 80,
                "duration": 0.0840909,
                "tempo": 120.0
            },
            {
                "start_time": 47.9977273,
                "end_time": 48.0477273,
                "pitch": 62,
                "velocity": 80,
                "duration": 0.05,
                "tempo": 120.0
            },
            {
                "start_time": 48.0977273,
                "end_time": 48.1477273,
                "pitch": 62,
                "velocity": 80,
                "duration": 0.05,
                "tempo": 120.0
            },
            {
                "start_time": 48.1977273,
                "end_time": 48.2818182,
                "pitch": 63,
                "velocity": 80,
                "duration": 0.0840909,
                "tempo": 120.0
            },
            {
                "start_time": 48.3977273,
                "end_time": 48.4477273,
                "pitch": 75,
                "velocity": 80,
                "duration": 0.05,
                "tempo": 120.0
            },
            {
                "start_time": 48.4977273,
                "end_time": 48.5477273,
                "pitch": 75,
                "velocity": 80,
                "duration": 0.05,
                "tempo": 120.0
            },
            {
                "start_time": 48.5977273,
                "end_time": 48.6977273,
                "pitch": 63,
                "velocity": 80,
                "duration": 0.1,
                "tempo": 120.0
            },
            {
                "start_time": 48.7977273,
                "end_time": 48.8477273,
                "pitch": 75,
                "velocity": 80,
                "duration": 0.05,
                "tempo": 120.0
            },
            {
                "start_time": 48.8977273,
                "end_time": 48.9477273,
                "pitch": 75,
                "velocity": 80,
                "duration": 0.05,
                "tempo": 120.0
            },
            {
                "start_time": 48.9977273,
                "end_time": 49.0977273,
                "pitch": 63,
                "velocity": 80,
                "duration": 0.1,
                "tempo": 120.0
            },
            {
                "start_time": 49.1977273,
                "end_time": 49.2977273,
                "pitch": 75,
                "velocity": 80,
                "duration": 0.1,
                "tempo": 120.0
            },
            {
                "start_time": 49.3977273,
                "end_time": 49.4977273,
                "pitch": 63,
                "velocity": 80,
                "duration": 0.1,
                "tempo": 120.0
            },
            {
                "start_time": 49.5977273,
                "end_time": 49.6477273,
                "pitch": 62,
                "velocity": 80,
                "duration": 0.05,
                "tempo": 120.0
            },
            {
                "start_time": 49.6977273,
                "end_time": 49.7477273,
                "pitch": 63,
                "velocity": 80,
                "duration": 0.05,
                "tempo": 120.0
            },
            {
                "start_time": 49.7977273,
                "end_time": 49.8477273,
                "pitch": 62,
                "velocity": 80,
                "duration": 0.05,
                "tempo": 120.0
            },
            {
                "start_time": 49.9,
                "end_time": 49.95,
                "pitch": 62,
                "velocity": 80,
                "duration": 0.05,
                "tempo": 120.0
            },
            {
                "start_time": 50.0,
                "end_time": 50.05,
                "pitch": 62,
                "velocity": 80,
                "duration": 0.05,
                "tempo": 120.0
            },
            {
                "start_time": 50.1,
                "end_time": 50.15,
                "pitch": 62,
                "velocity": 80,
                "duration": 0.05,
                "tempo": 120.0
            },
            {
                "start_time": 50.2,
                "end_time": 50.25,
                "pitch": 62,
                "velocity": 80,
                "duration": 0.05,
                "tempo": 120.0
            },
            {
                "start_time": 50.4,
                "end_time": 50.45,
                "pitch": 62,
                "velocity": 80,
                "duration": 0.05,
                "tempo": 120.0
            },
            {
                "start_time": 50.5,
                "end_time": 50.55,
                "pitch": 62,
                "velocity": 80,
                "duration": 0.05,
                "tempo": 120.0
            },
            {
                "start_time": 50.6,
                "end_time": 50.7,
                "pitch": 62,
                "velocity": 80,
                "duration": 0.1,
                "tempo": 120.0
            },
            {
                "start_time": 50.8,
                "end_time": 50.9,
                "pitch": 60,
                "velocity": 80,
                "duration": 0.1,
                "tempo": 120.0
            },
            {
                "start_time": 51.0,
                "end_time": 51.1,
                "pitch": 58,
                "velocity": 80,
                "duration": 0.1,
                "tempo": 120.0
            },
            {
                "start_time": 51.2,
                "end_time": 51.3,
                "pitch": 57,
                "velocity": 80,
                "duration": 0.1,
                "tempo": 120.0
            }
        ],
        "Clarinet": [
            {
                "start_time": 0.2295455,
                "end_time": 0.4295455,
                "pitch": 79,
                "velocity": 51,
                "duration": 0.2,
                "tempo": 120.0
            },
            {
                "start_time": 0.4295455,
                "end_time": 0.6454545,
                "pitch": 79,
                "velocity": 51,
                "duration": 0.2159091,
                "tempo": 120.0
            },
            {
                "start_time": 0.6454545,
                "end_time": 0.8613636,
                "pitch": 81,
                "velocity": 51,
                "duration": 0.2159091,
                "tempo": 120.0
            },
            {
                "start_time": 0.8613636,
                "end_time": 1.2613636,
                "pitch": 84,
                "velocity": 51,
                "duration": 0.4,
                "tempo": 120.0
            },
            {
                "start_time": 1.2613636,
                "end_time": 1.4613636,
                "pitch": 87,
                "velocity": 51,
                "duration": 0.2,
                "tempo": 120.0
            },
            {
                "start_time": 1.4613636,
                "end_time": 1.6613636,
                "pitch": 84,
                "velocity": 51,
                "duration": 0.2,
                "tempo": 120.0
            },
            {
                "start_time": 1.6613636,
                "end_time": 1.8613636,
                "pitch": 89,
                "velocity": 51,
                "duration": 0.2,
                "tempo": 120.0
            },
            {
                "start_time": 1.8613636,
                "end_time": 2.2613636,
                "pitch": 86,
                "velocity": 51,
                "duration": 0.4,
                "tempo": 120.0
            },
            {
                "start_time": 2.2613636,
                "end_time": 2.3613636,
                "pitch": 82,
                "velocity": 51,
                "duration": 0.1,
                "tempo": 120.0
            },
            {
                "start_time": 2.3613636,
                "end_time": 2.4613636,
                "pitch": 84,
                "velocity": 51,
                "duration": 0.1,
                "tempo": 120.0
            },
            {
                "start_time": 2.4613636,
                "end_time": 2.5954545,
                "pitch": 84,
                "velocity": 51,
                "duration": 0.1340909,
                "tempo": 120.0
            },
            {
                "start_time": 2.5954545,
                "end_time": 2.6636364,
                "pitch": 86,
                "velocity": 51,
                "duration": 0.0681818,
                "tempo": 120.0
            },
            {
                "start_time": 2.6636364,
                "end_time": 2.8636364,
                "pitch": 98,
                "velocity": 51,
                "duration": 0.2,
                "tempo": 120.0
            },
            {
                "start_time": 2.8636364,
                "end_time": 3.0636364,
                "pitch": 86,
                "velocity": 51,
                "duration": 0.2,
                "tempo": 120.0
            },
            {
                "start_time": 3.0636364,
                "end_time": 3.2636364,
                "pitch": 98,
                "velocity": 51,
                "duration": 0.2,
                "tempo": 120.0
            },
            {
                "start_time": 3.2636364,
                "end_time": 3.4636364,
                "pitch": 82,
                "velocity": 51,
                "duration": 0.2,
                "tempo": 120.0
            },
            {
                "start_time": 3.4636364,
                "end_time": 3.6636364,
                "pitch": 79,
                "velocity": 51,
                "duration": 0.2,
                "tempo": 120.0
            },
            {
                "start_time": 3.6636364,
                "end_time": 3.8636364,
                "pitch": 79,
                "velocity": 51,
                "duration": 0.2,
                "tempo": 120.0
            },
            {
                "start_time": 3.8636364,
                "end_time": 4.0636364,
                "pitch": 81,
                "velocity": 51,
                "duration": 0.2,
                "tempo": 120.0
            },
            {
                "start_time": 4.0636364,
                "end_time": 4.4659091,
                "pitch": 84,
                "velocity": 51,
                "duration": 0.4022727,
                "tempo": 120.0
            },
            {
                "start_time": 4.4659091,
                "end_time": 4.6659091,
                "pitch": 87,
                "velocity": 51,
                "duration": 0.2,
                "tempo": 120.0
            },
            {
                "start_time": 4.6659091,
                "end_time": 4.8659091,
                "pitch": 84,
                "velocity": 51,
                "duration": 0.2,
                "tempo": 120.0
            },
            {
                "start_time": 4.8659091,
                "end_time": 5.0681818,
                "pitch": 89,
                "velocity": 51,
                "duration": 0.2022727,
                "tempo": 120.0
            },
            {
                "start_time": 5.0681818,
                "end_time": 5.4704545,
                "pitch": 86,
                "velocity": 51,
                "duration": 0.4022727,
                "tempo": 120.0
            },
            {
                "start_time": 5.4704545,
                "end_time": 5.5727273,
                "pitch": 82,
                "velocity": 51,
                "duration": 0.1022727,
                "tempo": 120.0
            },
            {
                "start_time": 5.5727273,
                "end_time": 5.6727273,
                "pitch": 84,
                "velocity": 51,
                "duration": 0.1,
                "tempo": 120.0
            },
            {
                "start_time": 5.6727273,
                "end_time": 5.8045455,
                "pitch": 84,
                "velocity": 51,
                "duration": 0.1318182,
                "tempo": 120.0
            },
            {
                "start_time": 5.8045455,
                "end_time": 5.8727273,
                "pitch": 86,
                "velocity": 51,
                "duration": 0.0681818,
                "tempo": 120.0
            },
            {
                "start_time": 5.8727273,
                "end_time": 6.0727273,
                "pitch": 98,
                "velocity": 51,
                "duration": 0.2,
                "tempo": 120.0
            },
            {
                "start_time": 6.0727273,
                "end_time": 6.2727273,
                "pitch": 86,
                "velocity": 51,
                "duration": 0.2,
                "tempo": 120.0
            },
            {
                "start_time": 6.2727273,
                "end_time": 6.475,
                "pitch": 98,
                "velocity": 51,
                "duration": 0.2022727,
                "tempo": 120.0
            },
            {
                "start_time": 6.475,
                "end_time": 6.675,
                "pitch": 79,
                "velocity": 51,
                "duration": 0.2,
                "tempo": 120.0
            },
            {
                "start_time": 6.675,
                "end_time": 6.875,
                "pitch": 82,
                "velocity": 51,
                "duration": 0.2,
                "tempo": 120.0
            },
            {
                "start_time": 6.875,
                "end_time": 7.0772727,
                "pitch": 87,
                "velocity": 51,
                "duration": 0.2022727,
                "tempo": 120.0
            },
            {
                "start_time": 7.0772727,
                "end_time": 7.4795455,
                "pitch": 88,
                "velocity": 51,
                "duration": 0.4022727,
                "tempo": 120.0
            },
            {
                "start_time": 7.4795455,
                "end_time": 7.6795455,
                "pitch": 79,
                "velocity": 51,
                "duration": 0.2,
                "tempo": 120.0
            },
            {
                "start_time": 7.6795455,
                "end_time": 7.8795455,
                "pitch": 82,
                "velocity": 51,
                "duration": 0.2,
                "tempo": 120.0
            },
            {
                "start_time": 7.8795455,
                "end_time": 8.6818182,
                "pitch": 84,
                "velocity": 51,
                "duration": 0.8022727,
                "tempo": 120.0
            },
            {
                "start_time": 8.6818182,
                "end_time": 9.0840909,
                "pitch": 79,
                "velocity": 51,
                "duration": 0.4022727,
                "tempo": 120.0
            },
            {
                "start_time": 9.0840909,
                "end_time": 9.4863636,
                "pitch": 79,
                "velocity": 51,
                "duration": 0.4022727,
                "tempo": 120.0
            },
            {
                "start_time": 9.4863636,
                "end_time": 9.6886364,
                "pitch": 77,
                "velocity": 51,
                "duration": 0.2022727,
                "tempo": 120.0
            },
            {
                "start_time": 9.8886364,
                "end_time": 10.0909091,
                "pitch": 82,
                "velocity": 51,
                "duration": 0.2022727,
                "tempo": 120.0
            },
            {
                "start_time": 10.0909091,
                "end_time": 10.2909091,
                "pitch": 79,
                "velocity": 51,
                "duration": 0.2,
                "tempo": 120.0
            },
            {
                "start_time": 10.2909091,
                "end_time": 10.4909091,
                "pitch": 82,
                "velocity": 51,
                "duration": 0.2,
                "tempo": 120.0
            },
            {
                "start_time": 10.4909091,
                "end_time": 10.6931818,
                "pitch": 77,
                "velocity": 51,
                "duration": 0.2022727,
                "tempo": 120.0
            },
            {
                "start_time": 10.6931818,
                "end_time": 10.8931818,
                "pitch": 82,
                "velocity": 51,
                "duration": 0.2,
                "tempo": 120.0
            },
            {
                "start_time": 10.8931818,
                "end_time": 11.0954545,
                "pitch": 75,
                "velocity": 51,
                "duration": 0.2022727,
                "tempo": 120.0
            },
            {
                "start_time": 11.0954545,
                "end_time": 11.2954545,
                "pitch": 82,
                "velocity": 51,
                "duration": 0.2,
                "tempo": 120.0
            },
            {
                "start_time": 11.2954545,
                "end_time": 12.1022727,
                "pitch": 79,
                "velocity": 51,
                "duration": 0.8068182,
                "tempo": 120.0
            },
            {
                "start_time": 12.1022727,
                "end_time": 12.3022727,
                "pitch": 55,
                "velocity": 51,
                "duration": 0.2,
                "tempo": 120.0
            },
            {
                "start_time": 12.3022727,
                "end_time": 12.5022727,
                "pitch": 67,
                "velocity": 51,
                "duration": 0.2,
                "tempo": 120.0
            },
            {
                "start_time": 12.5022727,
                "end_time": 12.7022727,
                "pitch": 55,
                "velocity": 51,
                "duration": 0.2,
                "tempo": 120.0
            },
            {
                "start_time": 12.7022727,
                "end_time": 12.9045455,
                "pitch": 67,
                "velocity": 51,
                "duration": 0.2022727,
                "tempo": 120.0
            },
            {
                "start_time": 12.9045455,
                "end_time": 13.1068182,
                "pitch": 79,
                "velocity": 51,
                "duration": 0.2022727,
                "tempo": 120.0
            },
            {
                "start_time": 13.1068182,
                "end_time": 13.3068182,
                "pitch": 82,
                "velocity": 51,
                "duration": 0.2,
                "tempo": 120.0
            },
            {
                "start_time": 13.3068182,
                "end_time": 13.5090909,
                "pitch": 87,
                "velocity": 51,
                "duration": 0.2022727,
                "tempo": 120.0
            },
            {
                "start_time": 13.5090909,
                "end_time": 13.9113636,
                "pitch": 88,
                "velocity": 51,
                "duration": 0.4022727,
                "tempo": 120.0
            },
            {
                "start_time": 13.9113636,
                "end_time": 14.1136364,
                "pitch": 79,
                "velocity": 51,
                "duration": 0.2022727,
                "tempo": 120.0
            },
            {
                "start_time": 14.1136364,
                "end_time": 14.3136364,
                "pitch": 82,
                "velocity": 51,
                "duration": 0.2,
                "tempo": 120.0
            },
            {
                "start_time": 14.3136364,
                "end_time": 15.1159091,
                "pitch": 84,
                "velocity": 51,
                "duration": 0.8022727,
                "tempo": 120.0
            },
            {
                "start_time": 15.1159091,
                "end_time": 15.5181818,
                "pitch": 79,
                "velocity": 51,
                "duration": 0.4022727,
                "tempo": 120.0
            },
            {
                "start_time": 15.5181818,
                "end_time": 15.9227273,
                "pitch": 79,
                "velocity": 51,
                "duration": 0.4045455,
                "tempo": 120.0
            },
            {
                "start_time": 15.9227273,
                "end_time": 16.1227273,
                "pitch": 77,
                "velocity": 51,
                "duration": 0.2,
                "tempo": 120.0
            },
            {
                "start_time": 16.325,
                "end_time": 16.525,
                "pitch": 82,
                "velocity": 51,
                "duration": 0.2,
                "tempo": 120.0
            },
            {
                "start_time": 16.525,
                "end_time": 16.725,
                "pitch": 79,
                "velocity": 51,
                "duration": 0.2,
                "tempo": 120.0
            },
            {
                "start_time": 16.725,
                "end_time": 16.925,
                "pitch": 82,
                "velocity": 51,
                "duration": 0.2,
                "tempo": 120.0
            },
            {
                "start_time": 16.925,
                "end_time": 17.125,
                "pitch": 77,
                "velocity": 51,
                "duration": 0.2,
                "tempo": 120.0
            },
            {
                "start_time": 17.125,
                "end_time": 17.325,
                "pitch": 82,
                "velocity": 51,
                "duration": 0.2,
                "tempo": 120.0
            },
            {
                "start_time": 17.325,
                "end_time": 17.5272727,
                "pitch": 75,
                "velocity": 51,
                "duration": 0.2022727,
                "tempo": 120.0
            },
            {
                "start_time": 17.5272727,
                "end_time": 17.7272727,
                "pitch": 82,
                "velocity": 51,
                "duration": 0.2,
                "tempo": 120.0
            },
            {
                "start_time": 17.7272727,
                "end_time": 18.5318182,
                "pitch": 79,
                "velocity": 51,
                "duration": 0.8045455,
                "tempo": 120.0
            },
            {
                "start_time": 18.7318182,
                "end_time": 18.9318182,
                "pitch": 79,
                "velocity": 51,
                "duration": 0.2,
                "tempo": 120.0
            },
            {
                "start_time": 18.9318182,
                "end_time": 19.1318182,
                "pitch": 77,
                "velocity": 51,
                "duration": 0.2,
                "tempo": 120.0
            },
            {
                "start_time": 19.1318182,
                "end_time": 19.3318182,
                "pitch": 74,
                "velocity": 51,
                "duration": 0.2,
                "tempo": 120.0
            },
            {
                "start_time": 19.5318182,
                "end_time": 19.7340909,
                "pitch": 79,
                "velocity": 51,
                "duration": 0.2022727,
                "tempo": 120.0
            },
            {
                "start_time": 19.7340909,
                "end_time": 19.9340909,
                "pitch": 85,
                "velocity": 51,
                "duration": 0.2,
                "tempo": 120.0
            },
            {
                "start_time": 19.9340909,
                "end_time": 20.1340909,
                "pitch": 79,
                "velocity": 51,
                "duration": 0.2,
                "tempo": 120.0
            },
            {
                "start_time": 20.1340909,
                "end_time": 20.3363636,
                "pitch": 82,
                "velocity": 51,
                "duration": 0.2022727,
                "tempo": 120.0
            },
            {
                "start_time": 20.3363636,
                "end_time": 20.7363636,
                "pitch": 84,
                "velocity": 51,
                "duration": 0.4,
                "tempo": 120.0
            },
            {
                "start_time": 20.7363636,
                "end_time": 20.8704545,
                "pitch": 84,
                "velocity": 51,
                "duration": 0.1340909,
                "tempo": 120.0
            },
            {
                "start_time": 20.8704545,
                "end_time": 20.9363636,
                "pitch": 86,
                "velocity": 51,
                "duration": 0.0659091,
                "tempo": 120.0
            },
            {
                "start_time": 20.9363636,
                "end_time": 21.1363636,
                "pitch": 84,
                "velocity": 51,
                "duration": 0.2,
                "tempo": 120.0
            },
            {
                "start_time": 21.1363636,
                "end_time": 21.3204545,
                "pitch": 84,
                "velocity": 51,
                "duration": 0.1840909,
                "tempo": 120.0
            },
            {
                "start_time": 21.3204545,
                "end_time": 21.3363636,
                "pitch": 86,
                "velocity": 51,
                "duration": 0.0159091,
                "tempo": 120.0
            },
            {
                "start_time": 21.3363636,
                "end_time": 21.5386364,
                "pitch": 89,
                "velocity": 51,
                "duration": 0.2022727,
                "tempo": 120.0
            },
            {
                "start_time": 21.5386364,
                "end_time": 21.9386364,
                "pitch": 86,
                "velocity": 51,
                "duration": 0.4,
                "tempo": 120.0
            },
            {
                "start_time": 21.9386364,
                "end_time": 22.0386364,
                "pitch": 86,
                "velocity": 51,
                "duration": 0.1,
                "tempo": 120.0
            },
            {
                "start_time": 22.0386364,
                "end_time": 22.1386364,
                "pitch": 86,
                "velocity": 51,
                "duration": 0.1,
                "tempo": 120.0
            },
            {
                "start_time": 22.1386364,
                "end_time": 22.2409091,
                "pitch": 82,
                "velocity": 51,
                "duration": 0.1022727,
                "tempo": 120.0
            },
            {
                "start_time": 22.2409091,
                "end_time": 22.3409091,
                "pitch": 84,
                "velocity": 51,
                "duration": 0.1,
                "tempo": 120.0
            },
            {
                "start_time": 22.3409091,
                "end_time": 22.4409091,
                "pitch": 79,
                "velocity": 51,
                "duration": 0.1,
                "tempo": 120.0
            },
            {
                "start_time": 22.4409091,
                "end_time": 22.5431818,
                "pitch": 82,
                "velocity": 51,
                "duration": 0.1022727,
                "tempo": 120.0
            },
            {
                "start_time": 22.7431818,
                "end_time": 22.9431818,
                "pitch": 79,
                "velocity": 51,
                "duration": 0.2,
                "tempo": 120.0
            },
            {
                "start_time": 22.9431818,
                "end_time": 23.1431818,
                "pitch": 82,
                "velocity": 51,
                "duration": 0.2,
                "tempo": 120.0
            },
            {
                "start_time": 23.1431818,
                "end_time": 23.3431818,
                "pitch": 79,
                "velocity": 51,
                "duration": 0.2,
                "tempo": 120.0
            },
            {
                "start_time": 23.3431818,
                "end_time": 23.5431818,
                "pitch": 79,
                "velocity": 51,
                "duration": 0.2,
                "tempo": 120.0
            },
            {
                "start_time": 23.5431818,
                "end_time": 23.9454545,
                "pitch": 77,
                "velocity": 51,
                "duration": 0.4022727,
                "tempo": 120.0
            },
            {
                "start_time": 23.9454545,
                "end_time": 24.1454545,
                "pitch": 84,
                "velocity": 51,
                "duration": 0.2,
                "tempo": 120.0
            },
            {
                "start_time": 24.1454545,
                "end_time": 24.3295455,
                "pitch": 84,
                "velocity": 51,
                "duration": 0.1840909,
                "tempo": 120.0
            },
            {
                "start_time": 24.3295455,
                "end_time": 24.7477273,
                "pitch": 86,
                "velocity": 51,
                "duration": 0.4181818,
                "tempo": 120.0
            },
            {
                "start_time": 24.7477273,
                "end_time": 24.8477273,
                "pitch": 84,
                "velocity": 51,
                "duration": 0.1,
                "tempo": 120.0
            },
            {
                "start_time": 24.8477273,
                "end_time": 24.9477273,
                "pitch": 82,
                "velocity": 51,
                "duration": 0.1,
                "tempo": 120.0
            },
            {
                "start_time": 24.9477273,
                "end_time": 25.3477273,
                "pitch": 79,
                "velocity": 51,
                "duration": 0.4,
                "tempo": 120.0
            },
            {
                "start_time": 25.95,
                "end_time": 26.15,
                "pitch": 91,
                "velocity": 51,
                "duration": 0.2,
                "tempo": 120.0
            },
            {
                "start_time": 26.15,
                "end_time": 26.5522727,
                "pitch": 91,
                "velocity": 51,
                "duration": 0.4022727,
                "tempo": 120.0
            },
            {
                "start_time": 26.5522727,
                "end_time": 26.7522727,
                "pitch": 85,
                "velocity": 51,
                "duration": 0.2,
                "tempo": 120.0
            },
            {
                "start_time": 26.7522727,
                "end_time": 26.9522727,
                "pitch": 85,
                "velocity": 51,
                "duration": 0.2,
                "tempo": 120.0
            },
            {
                "start_time": 26.9522727,
                "end_time": 27.0522727,
                "pitch": 81,
                "velocity": 51,
                "duration": 0.1,
                "tempo": 120.0
            },
            {
                "start_time": 27.0522727,
                "end_time": 27.1568182,
                "pitch": 81,
                "velocity": 51,
                "duration": 0.1045455,
                "tempo": 120.0
            },
            {
                "start_time": 27.1568182,
                "end_time": 27.3568182,
                "pitch": 79,
                "velocity": 51,
                "duration": 0.2,
                "tempo": 120.0
            },
            {
                "start_time": 27.3568182,
                "end_time": 27.5363636,
                "pitch": 86,
                "velocity": 51,
                "duration": 0.1795455,
                "tempo": 120.0
            },
            {
                "start_time": 27.5363636,
                "end_time": 27.9340909,
                "pitch": 89,
                "velocity": 51,
                "duration": 0.3977273,
                "tempo": 120.0
            },
            {
                "start_time": 27.9340909,
                "end_time": 27.9522727,
                "pitch": 89,
                "velocity": 51,
                "duration": 0.0181818,
                "tempo": 120.0
            },
            {
                "start_time": 27.9522727,
                "end_time": 28.0363636,
                "pitch": 84,
                "velocity": 51,
                "duration": 0.0840909,
                "tempo": 120.0
            },
            {
                "start_time": 28.0363636,
                "end_time": 28.15,
                "pitch": 82,
                "velocity": 51,
                "duration": 0.1136364,
                "tempo": 120.0
            },
            {
                "start_time": 28.15,
                "end_time": 28.5613636,
                "pitch": 84,
                "velocity": 51,
                "duration": 0.4113636,
                "tempo": 120.0
            },
            {
                "start_time": 28.5613636,
                "end_time": 28.6954545,
                "pitch": 84,
                "velocity": 51,
                "duration": 0.1340909,
                "tempo": 120.0
            },
            {
                "start_time": 28.6954545,
                "end_time": 28.7613636,
                "pitch": 86,
                "velocity": 51,
                "duration": 0.0659091,
                "tempo": 120.0
            },
            {
                "start_time": 28.7613636,
                "end_time": 28.8613636,
                "pitch": 82,
                "velocity": 51,
                "duration": 0.1,
                "tempo": 120.0
            },
            {
                "start_time": 28.8613636,
                "end_time": 28.9613636,
                "pitch": 79,
                "velocity": 51,
                "duration": 0.1,
                "tempo": 120.0
            },
            {
                "start_time": 28.9613636,
                "end_time": 29.1613636,
                "pitch": 82,
                "velocity": 51,
                "duration": 0.2,
                "tempo": 120.0
            },
            {
                "start_time": 29.1613636,
                "end_time": 29.3613636,
                "pitch": 79,
                "velocity": 51,
                "duration": 0.2,
                "tempo": 120.0
            },
            {
                "start_time": 29.3613636,
                "end_time": 29.5636364,
                "pitch": 79,
                "velocity": 51,
                "duration": 0.2022727,
                "tempo": 120.0
            },
            {
                "start_time": 29.5636364,
                "end_time": 29.7636364,
                "pitch": 81,
                "velocity": 51,
                "duration": 0.2,
                "tempo": 120.0
            },
            {
                "start_time": 29.7636364,
                "end_time": 30.1636364,
                "pitch": 84,
                "velocity": 51,
                "duration": 0.4,
                "tempo": 120.0
            },
            {
                "start_time": 30.1636364,
                "end_time": 30.3659091,
                "pitch": 87,
                "velocity": 51,
                "duration": 0.2022727,
                "tempo": 120.0
            },
            {
                "start_time": 30.3659091,
                "end_time": 30.5659091,
                "pitch": 84,
                "velocity": 51,
                "duration": 0.2,
                "tempo": 120.0
            },
            {
                "start_time": 30.5659091,
                "end_time": 30.7659091,
                "pitch": 89,
                "velocity": 51,
                "duration": 0.2,
                "tempo": 120.0
            },
            {
                "start_time": 30.7659091,
                "end_time": 31.1659091,
                "pitch": 86,
                "velocity": 51,
                "duration": 0.4,
                "tempo": 120.0
            },
            {
                "start_time": 31.1659091,
                "end_time": 31.2659091,
                "pitch": 82,
                "velocity": 51,
                "duration": 0.1,
                "tempo": 120.0
            },
            {
                "start_time": 31.2659091,
                "end_time": 31.3659091,
                "pitch": 84,
                "velocity": 51,
                "duration": 0.1,
                "tempo": 120.0
            },
            {
                "start_time": 31.3659091,
                "end_time": 31.5,
                "pitch": 84,
                "velocity": 51,
                "duration": 0.1340909,
                "tempo": 120.0
            },
            {
                "start_time": 31.5,
                "end_time": 31.5681818,
                "pitch": 86,
                "velocity": 51,
                "duration": 0.0681818,
                "tempo": 120.0
            },
            {
                "start_time": 31.5681818,
                "end_time": 31.7704545,
                "pitch": 98,
                "velocity": 51,
                "duration": 0.2022727,
                "tempo": 120.0
            },
            {
                "start_time": 31.7704545,
                "end_time": 31.9704545,
                "pitch": 86,
                "velocity": 51,
                "duration": 0.2,
                "tempo": 120.0
            },
            {
                "start_time": 31.9704545,
                "end_time": 32.1704545,
                "pitch": 98,
                "velocity": 51,
                "duration": 0.2,
                "tempo": 120.0
            },
            {
                "start_time": 32.1704545,
                "end_time": 32.3704545,
                "pitch": 79,
                "velocity": 51,
                "duration": 0.2,
                "tempo": 120.0
            },
            {
                "start_time": 32.3704545,
                "end_time": 32.5727273,
                "pitch": 82,
                "velocity": 51,
                "duration": 0.2022727,
                "tempo": 120.0
            },
            {
                "start_time": 32.5727273,
                "end_time": 32.7727273,
                "pitch": 87,
                "velocity": 51,
                "duration": 0.2,
                "tempo": 120.0
            },
            {
                "start_time": 32.7727273,
                "end_time": 33.1727273,
                "pitch": 88,
                "velocity": 51,
                "duration": 0.4,
                "tempo": 120.0
            },
            {
                "start_time": 33.1727273,
                "end_time": 33.3727273,
                "pitch": 79,
                "velocity": 51,
                "duration": 0.2,
                "tempo": 120.0
            },
            {
                "start_time": 33.3727273,
                "end_time": 33.5727273,
                "pitch": 82,
                "velocity": 51,
                "duration": 0.2,
                "tempo": 120.0
            },
            {
                "start_time": 33.5727273,
                "end_time": 34.375,
                "pitch": 84,
                "velocity": 51,
                "duration": 0.8022727,
                "tempo": 120.0
            },
            {
                "start_time": 34.375,
                "end_time": 34.775,
                "pitch": 79,
                "velocity": 51,
                "duration": 0.4,
                "tempo": 120.0
            },
            {
                "start_time": 34.775,
                "end_time": 35.175,
                "pitch": 79,
                "velocity": 51,
                "duration": 0.4,
                "tempo": 120.0
            },
            {
                "start_time": 35.175,
                "end_time": 35.375,
                "pitch": 77,
                "velocity": 51,
                "duration": 0.2,
                "tempo": 120.0
            },
            {
                "start_time": 35.575,
                "end_time": 35.775,
                "pitch": 82,
                "velocity": 51,
                "duration": 0.2,
                "tempo": 120.0
            },
            {
                "start_time": 35.775,
                "end_time": 35.975,
                "pitch": 79,
                "velocity": 51,
                "duration": 0.2,
                "tempo": 120.0
            },
            {
                "start_time": 35.975,
                "end_time": 36.1772727,
                "pitch": 82,
                "velocity": 51,
                "duration": 0.2022727,
                "tempo": 120.0
            },
            {
                "start_time": 36.1772727,
                "end_time": 36.3772727,
                "pitch": 77,
                "velocity": 51,
                "duration": 0.2,
                "tempo": 120.0
            },
            {
                "start_time": 36.3772727,
                "end_time": 36.5772727,
                "pitch": 82,
                "velocity": 51,
                "duration": 0.2,
                "tempo": 120.0
            },
            {
                "start_time": 36.5772727,
                "end_time": 36.7772727,
                "pitch": 75,
                "velocity": 51,
                "duration": 0.2,
                "tempo": 120.0
            },
            {
                "start_time": 36.7772727,
                "end_time": 36.9772727,
                "pitch": 82,
                "velocity": 51,
                "duration": 0.2,
                "tempo": 120.0
            },
            {
                "start_time": 36.9772727,
                "end_time": 37.7772727,
                "pitch": 79,
                "velocity": 51,
                "duration": 0.8,
                "tempo": 120.0
            },
            {
                "start_time": 37.7772727,
                "end_time": 37.9795455,
                "pitch": 55,
                "velocity": 51,
                "duration": 0.2022727,
                "tempo": 120.0
            },
            {
                "start_time": 37.9795455,
                "end_time": 38.1795455,
                "pitch": 67,
                "velocity": 51,
                "duration": 0.2,
                "tempo": 120.0
            },
            {
                "start_time": 38.1795455,
                "end_time": 38.3795455,
                "pitch": 55,
                "velocity": 51,
                "duration": 0.2,
                "tempo": 120.0
            },
            {
                "start_time": 38.3795455,
                "end_time": 38.5795455,
                "pitch": 67,
                "velocity": 51,
                "duration": 0.2,
                "tempo": 120.0
            },
            {
                "start_time": 38.5795455,
                "end_time": 38.7795455,
                "pitch": 86,
                "velocity": 51,
                "duration": 0.2,
                "tempo": 120.0
            },
            {
                "start_time": 38.7795455,
                "end_time": 38.8795455,
                "pitch": 84,
                "velocity": 51,
                "duration": 0.1,
                "tempo": 120.0
            },
            {
                "start_time": 38.8795455,
                "end_time": 38.9795455,
                "pitch": 82,
                "velocity": 51,
                "duration": 0.1,
                "tempo": 120.0
            },
            {
                "start_time": 38.9795455,
                "end_time": 39.1795455,
                "pitch": 84,
                "velocity": 51,
                "duration": 0.2,
                "tempo": 120.0
            },
            {
                "start_time": 39.1795455,
                "end_time": 39.2795455,
                "pitch": 79,
                "velocity": 51,
                "duration": 0.1,
                "tempo": 120.0
            },
            {
                "start_time": 39.575,
                "end_time": 39.675,
                "pitch": 79,
                "velocity": 51,
                "duration": 0.1,
                "tempo": 120.0
            },
            {
                "start_time": 39.675,
                "end_time": 39.7727273,
                "pitch": 77,
                "velocity": 51,
                "duration": 0.0977273,
                "tempo": 120.0
            },
            {
                "start_time": 39.7727273,
                "end_time": 39.875,
                "pitch": 79,
                "velocity": 51,
                "duration": 0.1022727,
                "tempo": 120.0
            },
            {
                "start_time": 39.875,
                "end_time": 39.9795455,
                "pitch": 81,
                "velocity": 51,
                "duration": 0.1045455,
                "tempo": 120.0
            },
            {
                "start_time": 39.9795455,
                "end_time": 40.0818182,
                "pitch": 81,
                "velocity": 51,
                "duration": 0.1022727,
                "tempo": 120.0
            },
            {
                "start_time": 40.0818182,
                "end_time": 40.1840909,
                "pitch": 84,
                "velocity": 51,
                "duration": 0.1022727,
                "tempo": 120.0
            },
            {
                "start_time": 40.1840909,
                "end_time": 40.2840909,
                "pitch": 77,
                "velocity": 51,
                "duration": 0.1,
                "tempo": 120.0
            },
            {
                "start_time": 40.2840909,
                "end_time": 40.3840909,
                "pitch": 79,
                "velocity": 51,
                "duration": 0.1,
                "tempo": 120.0
            },
            {
                "start_time": 40.4840909,
                "end_time": 40.5840909,
                "pitch": 77,
                "velocity": 51,
                "duration": 0.1,
                "tempo": 120.0
            },
            {
                "start_time": 40.5840909,
                "end_time": 40.6840909,
                "pitch": 79,
                "velocity": 51,
                "duration": 0.1,
                "tempo": 120.0
            },
            {
                "start_time": 40.7840909,
                "end_time": 40.8840909,
                "pitch": 79,
                "velocity": 51,
                "duration": 0.1,
                "tempo": 120.0
            },
            {
                "start_time": 40.8840909,
                "end_time": 40.9840909,
                "pitch": 81,
                "velocity": 51,
                "duration": 0.1,
                "tempo": 120.0
            },
            {
                "start_time": 41.0840909,
                "end_time": 41.1840909,
                "pitch": 84,
                "velocity": 51,
                "duration": 0.1,
                "tempo": 120.0
            },
            {
                "start_time": 41.1840909,
                "end_time": 41.2840909,
                "pitch": 84,
                "velocity": 51,
                "duration": 0.1,
                "tempo": 120.0
            },
            {
                "start_time": 41.3840909,
                "end_time": 41.5840909,
                "pitch": 86,
                "velocity": 51,
                "duration": 0.2,
                "tempo": 120.0
            },
            {
                "start_time": 41.5840909,
                "end_time": 41.6840909,
                "pitch": 89,
                "velocity": 51,
                "duration": 0.1,
                "tempo": 120.0
            },
            {
                "start_time": 41.7840909,
                "end_time": 41.9863636,
                "pitch": 89,
                "velocity": 51,
                "duration": 0.2022727,
                "tempo": 120.0
            },
            {
                "start_time": 41.9863636,
                "end_time": 42.0863636,
                "pitch": 89,
                "velocity": 51,
                "duration": 0.1,
                "tempo": 120.0
            },
            {
                "start_time": 42.1863636,
                "end_time": 42.2863636,
                "pitch": 86,
                "velocity": 51,
                "duration": 0.1,
                "tempo": 120.0
            },
            {
                "start_time": 42.2863636,
                "end_time": 42.3863636,
                "pitch": 86,
                "velocity": 51,
                "duration": 0.1,
                "tempo": 120.0
            },
            {
                "start_time": 42.4863636,
                "end_time": 42.6840909,
                "pitch": 86,
                "velocity": 51,
                "duration": 0.1977273,
                "tempo": 120.0
            },
            {
                "start_time": 42.6840909,
                "end_time": 42.7840909,
                "pitch": 86,
                "velocity": 51,
                "duration": 0.1,
                "tempo": 120.0
            },
            {
                "start_time": 42.7840909,
                "end_time": 42.8818182,
                "pitch": 86,
                "velocity": 51,
                "duration": 0.0977273,
                "tempo": 120.0
            },
            {
                "start_time": 42.9795455,
                "end_time": 43.1840909,
                "pitch": 77,
                "velocity": 51,
                "duration": 0.2045455,
                "tempo": 120.0
            },
            {
                "start_time": 43.1840909,
                "end_time": 43.3909091,
                "pitch": 79,
                "velocity": 51,
                "duration": 0.2068182,
                "tempo": 120.0
            },
            {
                "start_time": 43.3909091,
                "end_time": 43.7909091,
                "pitch": 91,
                "velocity": 51,
                "duration": 0.4,
                "tempo": 120.0
            },
            {
                "start_time": 43.7909091,
                "end_time": 44.1931818,
                "pitch": 89,
                "velocity": 51,
                "duration": 0.4022727,
                "tempo": 120.0
            },
            {
                "start_time": 44.1931818,
                "end_time": 44.5931818,
                "pitch": 87,
                "velocity": 51,
                "duration": 0.4,
                "tempo": 120.0
            },
            {
                "start_time": 44.5931818,
                "end_time": 44.9931818,
                "pitch": 87,
                "velocity": 51,
                "duration": 0.4,
                "tempo": 120.0
            },
            {
                "start_time": 44.9931818,
                "end_time": 45.1931818,
                "pitch": 86,
                "velocity": 51,
                "duration": 0.2,
                "tempo": 120.0
            },
            {
                "start_time": 45.1931818,
                "end_time": 45.2931818,
                "pitch": 84,
                "velocity": 51,
                "duration": 0.1,
                "tempo": 120.0
            },
            {
                "start_time": 45.2931818,
                "end_time": 46.5954545,
                "pitch": 86,
                "velocity": 51,
                "duration": 1.3022727,
                "tempo": 120.0
            },
            {
                "start_time": 46.5954545,
                "end_time": 46.7954545,
                "pitch": 87,
                "velocity": 51,
                "duration": 0.2,
                "tempo": 120.0
            },
            {
                "start_time": 46.7954545,
                "end_time": 46.8954545,
                "pitch": 86,
                "velocity": 51,
                "duration": 0.1,
                "tempo": 120.0
            },
            {
                "start_time": 46.8954545,
                "end_time": 48.1977273,
                "pitch": 89,
                "velocity": 51,
                "duration": 1.3022727,
                "tempo": 120.0
            },
            {
                "start_time": 48.1977273,
                "end_time": 48.3977273,
                "pitch": 87,
                "velocity": 51,
                "duration": 0.2,
                "tempo": 120.0
            },
            {
                "start_time": 48.3977273,
                "end_time": 48.4977273,
                "pitch": 88,
                "velocity": 51,
                "duration": 0.1,
                "tempo": 120.0
            },
            {
                "start_time": 48.4977273,
                "end_time": 48.7977273,
                "pitch": 91,
                "velocity": 51,
                "duration": 0.3,
                "tempo": 120.0
            },
            {
                "start_time": 48.7977273,
                "end_time": 48.8977273,
                "pitch": 87,
                "velocity": 51,
                "duration": 0.1,
                "tempo": 120.0
            },
            {
                "start_time": 48.8977273,
                "end_time": 48.9977273,
                "pitch": 87,
                "velocity": 51,
                "duration": 0.1,
                "tempo": 120.0
            },
            {
                "start_time": 48.9977273,
                "end_time": 49.0977273,
                "pitch": 91,
                "velocity": 51,
                "duration": 0.1,
                "tempo": 120.0
            },
            {
                "start_time": 49.1977273,
                "end_time": 49.3977273,
                "pitch": 82,
                "velocity": 51,
                "duration": 0.2,
                "tempo": 120.0
            },
            {
                "start_time": 49.3977273,
                "end_time": 49.5977273,
                "pitch": 87,
                "velocity": 51,
                "duration": 0.2,
                "tempo": 120.0
            },
            {
                "start_time": 49.5977273,
                "end_time": 49.7977273,
                "pitch": 91,
                "velocity": 51,
                "duration": 0.2,
                "tempo": 120.0
            },
            {
                "start_time": 49.7977273,
                "end_time": 49.9,
                "pitch": 91,
                "velocity": 51,
                "duration": 0.1022727,
                "tempo": 120.0
            },
            {
                "start_time": 49.9,
                "end_time": 50.0,
                "pitch": 93,
                "velocity": 51,
                "duration": 0.1,
                "tempo": 120.0
            },
            {
                "start_time": 50.0,
                "end_time": 50.1,
                "pitch": 94,
                "velocity": 51,
                "duration": 0.1,
                "tempo": 120.0
            },
            {
                "start_time": 50.1,
                "end_time": 50.2,
                "pitch": 93,
                "velocity": 51,
                "duration": 0.1,
                "tempo": 120.0
            },
            {
                "start_time": 50.2,
                "end_time": 50.3340909,
                "pitch": 91,
                "velocity": 51,
                "duration": 0.1340909,
                "tempo": 120.0
            },
            {
                "start_time": 50.3340909,
                "end_time": 50.4,
                "pitch": 93,
                "velocity": 51,
                "duration": 0.0659091,
                "tempo": 120.0
            },
            {
                "start_time": 50.4,
                "end_time": 50.6,
                "pitch": 91,
                "velocity": 51,
                "duration": 0.2,
                "tempo": 120.0
            },
            {
                "start_time": 50.6,
                "end_time": 50.8,
                "pitch": 90,
                "velocity": 51,
                "duration": 0.2,
                "tempo": 120.0
            },
            {
                "start_time": 50.8,
                "end_time": 51.0,
                "pitch": 86,
                "velocity": 51,
                "duration": 0.2,
                "tempo": 120.0
            },
            {
                "start_time": 51.0,
                "end_time": 51.2,
                "pitch": 84,
                "velocity": 51,
                "duration": 0.2,
                "tempo": 120.0
            },
            {
                "start_time": 51.2,
                "end_time": 51.4,
                "pitch": 82,
                "velocity": 51,
                "duration": 0.2,
                "tempo": 120.0
            }
        ],
        "Electric Guitar (clean)": [
            {
                "start_time": 0.0,
                "end_time": 0.2454545,
                "pitch": 19,
                "velocity": 4,
                "duration": 0.2454545,
                "tempo": 120.0
            },
            {
                "start_time": 0.2454545,
                "end_time": 0.4477273,
                "pitch": 100,
                "velocity": 4,
                "duration": 0.2022727,
                "tempo": 120.0
            },
            {
                "start_time": 0.4477273,
                "end_time": 0.6636364,
                "pitch": 108,
                "velocity": 4,
                "duration": 0.2159091,
                "tempo": 120.0
            },
            {
                "start_time": 0.6636364,
                "end_time": 1.0772727,
                "pitch": 21,
                "velocity": 4,
                "duration": 0.4136364,
                "tempo": 120.0
            },
            {
                "start_time": 1.0772727,
                "end_time": 1.2772727,
                "pitch": 100,
                "velocity": 4,
                "duration": 0.2,
                "tempo": 120.0
            },
            {
                "start_time": 1.2772727,
                "end_time": 1.4772727,
                "pitch": 108,
                "velocity": 4,
                "duration": 0.2,
                "tempo": 120.0
            },
            {
                "start_time": 1.4772727,
                "end_time": 1.8772727,
                "pitch": 21,
                "velocity": 4,
                "duration": 0.4,
                "tempo": 120.0
            },
            {
                "start_time": 1.8772727,
                "end_time": 2.0772727,
                "pitch": 100,
                "velocity": 4,
                "duration": 0.2,
                "tempo": 120.0
            },
            {
                "start_time": 2.0772727,
                "end_time": 2.2772727,
                "pitch": 108,
                "velocity": 4,
                "duration": 0.2,
                "tempo": 120.0
            },
            {
                "start_time": 2.2772727,
                "end_time": 2.8818182,
                "pitch": 19,
                "velocity": 4,
                "duration": 0.6045455,
                "tempo": 120.0
            },
            {
                "start_time": 2.8818182,
                "end_time": 3.0818182,
                "pitch": 13,
                "velocity": 4,
                "duration": 0.2,
                "tempo": 120.0
            },
            {
                "start_time": 3.0818182,
                "end_time": 3.2818182,
                "pitch": 100,
                "velocity": 4,
                "duration": 0.2,
                "tempo": 120.0
            },
            {
                "start_time": 3.2818182,
                "end_time": 3.4818182,
                "pitch": 19,
                "velocity": 4,
                "duration": 0.2,
                "tempo": 120.0
            },
            {
                "start_time": 3.4818182,
                "end_time": 3.6818182,
                "pitch": 100,
                "velocity": 4,
                "duration": 0.2,
                "tempo": 120.0
            },
            {
                "start_time": 3.6818182,
                "end_time": 3.8818182,
                "pitch": 108,
                "velocity": 4,
                "duration": 0.2,
                "tempo": 120.0
            },
            {
                "start_time": 3.8818182,
                "end_time": 4.2818182,
                "pitch": 21,
                "velocity": 4,
                "duration": 0.4,
                "tempo": 120.0
            },
            {
                "start_time": 4.2818182,
                "end_time": 4.4840909,
                "pitch": 100,
                "velocity": 4,
                "duration": 0.2022727,
                "tempo": 120.0
            },
            {
                "start_time": 4.4840909,
                "end_time": 4.6840909,
                "pitch": 108,
                "velocity": 4,
                "duration": 0.2,
                "tempo": 120.0
            },
            {
                "start_time": 4.6840909,
                "end_time": 4.9,
                "pitch": 21,
                "velocity": 4,
                "duration": 0.2159091,
                "tempo": 120.0
            },
            {
                "start_time": 4.9,
                "end_time": 5.0840909,
                "pitch": 30,
                "velocity": 4,
                "duration": 0.1840909,
                "tempo": 120.0
            },
            {
                "start_time": 5.0840909,
                "end_time": 5.2863636,
                "pitch": 14,
                "velocity": 4,
                "duration": 0.2022727,
                "tempo": 120.0
            },
            {
                "start_time": 5.2863636,
                "end_time": 5.4886364,
                "pitch": 21,
                "velocity": 4,
                "duration": 0.2022727,
                "tempo": 120.0
            },
            {
                "start_time": 5.4886364,
                "end_time": 6.0886364,
                "pitch": 30,
                "velocity": 4,
                "duration": 0.6,
                "tempo": 120.0
            },
            {
                "start_time": 6.0886364,
                "end_time": 6.2909091,
                "pitch": 23,
                "velocity": 4,
                "duration": 0.2022727,
                "tempo": 120.0
            },
            {
                "start_time": 6.2909091,
                "end_time": 6.475,
                "pitch": 14,
                "velocity": 4,
                "duration": 0.1840909,
                "tempo": 120.0
            },
            {
                "start_time": 6.475,
                "end_time": 6.4909091,
                "pitch": 14,
                "velocity": 4,
                "duration": 0.0159091,
                "tempo": 120.0
            },
            {
                "start_time": 6.4909091,
                "end_time": 6.6909091,
                "pitch": 30,
                "velocity": 4,
                "duration": 0.2,
                "tempo": 120.0
            },
            {
                "start_time": 6.6909091,
                "end_time": 6.8909091,
                "pitch": 14,
                "velocity": 4,
                "duration": 0.2,
                "tempo": 120.0
            },
            {
                "start_time": 6.8909091,
                "end_time": 7.0931818,
                "pitch": 21,
                "velocity": 4,
                "duration": 0.2022727,
                "tempo": 120.0
            },
            {
                "start_time": 7.0931818,
                "end_time": 7.4954545,
                "pitch": 31,
                "velocity": 4,
                "duration": 0.4022727,
                "tempo": 120.0
            },
            {
                "start_time": 7.4954545,
                "end_time": 7.6977273,
                "pitch": 14,
                "velocity": 4,
                "duration": 0.2022727,
                "tempo": 120.0
            },
            {
                "start_time": 7.6977273,
                "end_time": 7.8977273,
                "pitch": 21,
                "velocity": 4,
                "duration": 0.2,
                "tempo": 120.0
            },
            {
                "start_time": 7.8977273,
                "end_time": 8.2977273,
                "pitch": 31,
                "velocity": 4,
                "duration": 0.4,
                "tempo": 120.0
            },
            {
                "start_time": 8.2977273,
                "end_time": 8.4977273,
                "pitch": 14,
                "velocity": 4,
                "duration": 0.2,
                "tempo": 120.0
            },
            {
                "start_time": 8.4977273,
                "end_time": 8.6977273,
                "pitch": 21,
                "velocity": 4,
                "duration": 0.2,
                "tempo": 120.0
            },
            {
                "start_time": 8.6977273,
                "end_time": 8.7659091,
                "pitch": 30,
                "velocity": 4,
                "duration": 0.0681818,
                "tempo": 120.0
            },
            {
                "start_time": 8.7659091,
                "end_time": 8.9,
                "pitch": 36,
                "velocity": 4,
                "duration": 0.1340909,
                "tempo": 120.0
            },
            {
                "start_time": 8.9,
                "end_time": 9.3022727,
                "pitch": 37,
                "velocity": 4,
                "duration": 0.4022727,
                "tempo": 120.0
            },
            {
                "start_time": 9.3022727,
                "end_time": 9.5045455,
                "pitch": 29,
                "velocity": 4,
                "duration": 0.2022727,
                "tempo": 120.0
            },
            {
                "start_time": 9.5045455,
                "end_time": 9.7045455,
                "pitch": 19,
                "velocity": 4,
                "duration": 0.2,
                "tempo": 120.0
            },
            {
                "start_time": 9.7045455,
                "end_time": 9.9068182,
                "pitch": 36,
                "velocity": 4,
                "duration": 0.2022727,
                "tempo": 120.0
            },
            {
                "start_time": 9.9068182,
                "end_time": 10.1068182,
                "pitch": 19,
                "velocity": 4,
                "duration": 0.2,
                "tempo": 120.0
            },
            {
                "start_time": 10.1068182,
                "end_time": 10.3068182,
                "pitch": 29,
                "velocity": 4,
                "duration": 0.2,
                "tempo": 120.0
            },
            {
                "start_time": 10.3068182,
                "end_time": 10.4068182,
                "pitch": 37,
                "velocity": 4,
                "duration": 0.1,
                "tempo": 120.0
            },
            {
                "start_time": 10.4068182,
                "end_time": 10.675,
                "pitch": 39,
                "velocity": 4,
                "duration": 0.2681818,
                "tempo": 120.0
            },
            {
                "start_time": 10.675,
                "end_time": 10.7090909,
                "pitch": 91,
                "velocity": 4,
                "duration": 0.0340909,
                "tempo": 120.0
            },
            {
                "start_time": 10.7090909,
                "end_time": 10.9113636,
                "pitch": 75,
                "velocity": 4,
                "duration": 0.2022727,
                "tempo": 120.0
            },
            {
                "start_time": 10.9113636,
                "end_time": 11.1113636,
                "pitch": 83,
                "velocity": 4,
                "duration": 0.2,
                "tempo": 120.0
            },
            {
                "start_time": 11.1113636,
                "end_time": 11.5136364,
                "pitch": 92,
                "velocity": 4,
                "duration": 0.4022727,
                "tempo": 120.0
            },
            {
                "start_time": 11.5136364,
                "end_time": 11.7159091,
                "pitch": 75,
                "velocity": 4,
                "duration": 0.2022727,
                "tempo": 120.0
            },
            {
                "start_time": 11.7159091,
                "end_time": 11.8,
                "pitch": 83,
                "velocity": 4,
                "duration": 0.0840909,
                "tempo": 120.0
            },
            {
                "start_time": 11.8,
                "end_time": 11.9181818,
                "pitch": 105,
                "velocity": 4,
                "duration": 0.1181818,
                "tempo": 120.0
            },
            {
                "start_time": 11.9181818,
                "end_time": 12.5181818,
                "pitch": 17,
                "velocity": 4,
                "duration": 0.6,
                "tempo": 120.0
            },
            {
                "start_time": 12.5181818,
                "end_time": 12.7204545,
                "pitch": 106,
                "velocity": 4,
                "duration": 0.2022727,
                "tempo": 120.0
            },
            {
                "start_time": 12.7204545,
                "end_time": 12.9204545,
                "pitch": 97,
                "velocity": 4,
                "duration": 0.2,
                "tempo": 120.0
            },
            {
                "start_time": 12.9204545,
                "end_time": 13.1227273,
                "pitch": 17,
                "velocity": 4,
                "duration": 0.2022727,
                "tempo": 120.0
            },
            {
                "start_time": 13.1227273,
                "end_time": 13.325,
                "pitch": 97,
                "velocity": 4,
                "duration": 0.2022727,
                "tempo": 120.0
            },
            {
                "start_time": 13.325,
                "end_time": 13.525,
                "pitch": 105,
                "velocity": 4,
                "duration": 0.2,
                "tempo": 120.0
            },
            {
                "start_time": 13.525,
                "end_time": 13.8431818,
                "pitch": 18,
                "velocity": 4,
                "duration": 0.3181818,
                "tempo": 120.0
            },
            {
                "start_time": 13.8431818,
                "end_time": 13.9272727,
                "pitch": 45,
                "velocity": 4,
                "duration": 0.0840909,
                "tempo": 120.0
            },
            {
                "start_time": 13.9272727,
                "end_time": 14.1295455,
                "pitch": 29,
                "velocity": 4,
                "duration": 0.2022727,
                "tempo": 120.0
            },
            {
                "start_time": 14.1295455,
                "end_time": 14.3295455,
                "pitch": 37,
                "velocity": 4,
                "duration": 0.2,
                "tempo": 120.0
            },
            {
                "start_time": 14.3295455,
                "end_time": 14.7295455,
                "pitch": 46,
                "velocity": 4,
                "duration": 0.4,
                "tempo": 120.0
            },
            {
                "start_time": 14.7295455,
                "end_time": 14.9318182,
                "pitch": 29,
                "velocity": 4,
                "duration": 0.2022727,
                "tempo": 120.0
            },
            {
                "start_time": 14.9318182,
                "end_time": 15.1340909,
                "pitch": 37,
                "velocity": 4,
                "duration": 0.2022727,
                "tempo": 120.0
            },
            {
                "start_time": 15.1340909,
                "end_time": 15.7363636,
                "pitch": 45,
                "velocity": 4,
                "duration": 0.6022727,
                "tempo": 120.0
            },
            {
                "start_time": 15.7363636,
                "end_time": 15.9386364,
                "pitch": 38,
                "velocity": 4,
                "duration": 0.2022727,
                "tempo": 120.0
            },
            {
                "start_time": 15.9386364,
                "end_time": 16.1409091,
                "pitch": 29,
                "velocity": 4,
                "duration": 0.2022727,
                "tempo": 120.0
            },
            {
                "start_time": 16.1409091,
                "end_time": 16.3409091,
                "pitch": 45,
                "velocity": 4,
                "duration": 0.2,
                "tempo": 120.0
            },
            {
                "start_time": 16.3409091,
                "end_time": 16.5431818,
                "pitch": 29,
                "velocity": 4,
                "duration": 0.2022727,
                "tempo": 120.0
            },
            {
                "start_time": 16.5431818,
                "end_time": 16.7431818,
                "pitch": 37,
                "velocity": 4,
                "duration": 0.2,
                "tempo": 120.0
            },
            {
                "start_time": 16.7431818,
                "end_time": 17.1431818,
                "pitch": 46,
                "velocity": 4,
                "duration": 0.4,
                "tempo": 120.0
            },
            {
                "start_time": 17.1431818,
                "end_time": 17.3431818,
                "pitch": 29,
                "velocity": 4,
                "duration": 0.2,
                "tempo": 120.0
            },
            {
                "start_time": 17.3431818,
                "end_time": 17.5431818,
                "pitch": 37,
                "velocity": 4,
                "duration": 0.2,
                "tempo": 120.0
            },
            {
                "start_time": 17.5431818,
                "end_time": 17.9409091,
                "pitch": 46,
                "velocity": 4,
                "duration": 0.3977273,
                "tempo": 120.0
            },
            {
                "start_time": 17.9409091,
                "end_time": 17.9727273,
                "pitch": 29,
                "velocity": 4,
                "duration": 0.0318182,
                "tempo": 120.0
            },
            {
                "start_time": 17.9727273,
                "end_time": 17.9909091,
                "pitch": 13,
                "velocity": 4,
                "duration": 0.0181818,
                "tempo": 120.0
            },
            {
                "start_time": 17.9909091,
                "end_time": 18.1386364,
                "pitch": 100,
                "velocity": 4,
                "duration": 0.1477273,
                "tempo": 120.0
            },
            {
                "start_time": 18.1386364,
                "end_time": 18.3431818,
                "pitch": 108,
                "velocity": 4,
                "duration": 0.2045455,
                "tempo": 120.0
            },
            {
                "start_time": 18.3431818,
                "end_time": 18.9477273,
                "pitch": 19,
                "velocity": 4,
                "duration": 0.6045455,
                "tempo": 120.0
            },
            {
                "start_time": 18.9477273,
                "end_time": 19.1477273,
                "pitch": 13,
                "velocity": 4,
                "duration": 0.2,
                "tempo": 120.0
            },
            {
                "start_time": 19.1477273,
                "end_time": 19.3477273,
                "pitch": 100,
                "velocity": 4,
                "duration": 0.2,
                "tempo": 120.0
            },
            {
                "start_time": 19.3477273,
                "end_time": 19.55,
                "pitch": 19,
                "velocity": 4,
                "duration": 0.2022727,
                "tempo": 120.0
            },
            {
                "start_time": 19.55,
                "end_time": 19.75,
                "pitch": 100,
                "velocity": 4,
                "duration": 0.2,
                "tempo": 120.0
            },
            {
                "start_time": 19.75,
                "end_time": 19.95,
                "pitch": 108,
                "velocity": 4,
                "duration": 0.2,
                "tempo": 120.0
            },
            {
                "start_time": 19.95,
                "end_time": 20.3522727,
                "pitch": 21,
                "velocity": 4,
                "duration": 0.4022727,
                "tempo": 120.0
            },
            {
                "start_time": 20.3522727,
                "end_time": 20.5545455,
                "pitch": 100,
                "velocity": 4,
                "duration": 0.2022727,
                "tempo": 120.0
            },
            {
                "start_time": 20.5545455,
                "end_time": 20.7545455,
                "pitch": 108,
                "velocity": 4,
                "duration": 0.2,
                "tempo": 120.0
            },
            {
                "start_time": 20.7545455,
                "end_time": 21.1545455,
                "pitch": 21,
                "velocity": 4,
                "duration": 0.4,
                "tempo": 120.0
            },
            {
                "start_time": 21.1545455,
                "end_time": 21.3545455,
                "pitch": 100,
                "velocity": 4,
                "duration": 0.2,
                "tempo": 120.0
            },
            {
                "start_time": 21.3545455,
                "end_time": 21.5545455,
                "pitch": 108,
                "velocity": 4,
                "duration": 0.2,
                "tempo": 120.0
            },
            {
                "start_time": 21.5545455,
                "end_time": 22.1568182,
                "pitch": 19,
                "velocity": 4,
                "duration": 0.6022727,
                "tempo": 120.0
            },
            {
                "start_time": 22.1568182,
                "end_time": 22.3568182,
                "pitch": 13,
                "velocity": 4,
                "duration": 0.2,
                "tempo": 120.0
            },
            {
                "start_time": 22.3568182,
                "end_time": 22.5590909,
                "pitch": 100,
                "velocity": 4,
                "duration": 0.2022727,
                "tempo": 120.0
            },
            {
                "start_time": 22.5590909,
                "end_time": 22.7590909,
                "pitch": 19,
                "velocity": 4,
                "duration": 0.2,
                "tempo": 120.0
            },
            {
                "start_time": 22.7590909,
                "end_time": 22.7931818,
                "pitch": 100,
                "velocity": 4,
                "duration": 0.0340909,
                "tempo": 120.0
            },
            {
                "start_time": 22.7931818,
                "end_time": 22.9590909,
                "pitch": 14,
                "velocity": 4,
                "duration": 0.1659091,
                "tempo": 120.0
            },
            {
                "start_time": 22.9590909,
                "end_time": 23.1590909,
                "pitch": 21,
                "velocity": 4,
                "duration": 0.2,
                "tempo": 120.0
            },
            {
                "start_time": 23.1590909,
                "end_time": 23.5613636,
                "pitch": 31,
                "velocity": 4,
                "duration": 0.4022727,
                "tempo": 120.0
            },
            {
                "start_time": 23.5613636,
                "end_time": 23.7613636,
                "pitch": 14,
                "velocity": 4,
                "duration": 0.2,
                "tempo": 120.0
            },
            {
                "start_time": 23.7613636,
                "end_time": 23.9613636,
                "pitch": 21,
                "velocity": 4,
                "duration": 0.2,
                "tempo": 120.0
            },
            {
                "start_time": 23.9613636,
                "end_time": 24.3636364,
                "pitch": 31,
                "velocity": 4,
                "duration": 0.4022727,
                "tempo": 120.0
            },
            {
                "start_time": 24.3636364,
                "end_time": 24.5636364,
                "pitch": 14,
                "velocity": 4,
                "duration": 0.2,
                "tempo": 120.0
            },
            {
                "start_time": 24.5636364,
                "end_time": 24.7636364,
                "pitch": 21,
                "velocity": 4,
                "duration": 0.2,
                "tempo": 120.0
            },
            {
                "start_time": 24.7636364,
                "end_time": 25.3636364,
                "pitch": 30,
                "velocity": 4,
                "duration": 0.6,
                "tempo": 120.0
            },
            {
                "start_time": 25.3636364,
                "end_time": 25.5659091,
                "pitch": 23,
                "velocity": 4,
                "duration": 0.2022727,
                "tempo": 120.0
            },
            {
                "start_time": 25.5659091,
                "end_time": 25.7659091,
                "pitch": 14,
                "velocity": 4,
                "duration": 0.2,
                "tempo": 120.0
            },
            {
                "start_time": 25.7659091,
                "end_time": 25.9659091,
                "pitch": 30,
                "velocity": 4,
                "duration": 0.2,
                "tempo": 120.0
            },
            {
                "start_time": 25.9659091,
                "end_time": 26.1681818,
                "pitch": 14,
                "velocity": 4,
                "duration": 0.2022727,
                "tempo": 120.0
            },
            {
                "start_time": 26.1681818,
                "end_time": 26.3681818,
                "pitch": 21,
                "velocity": 4,
                "duration": 0.2,
                "tempo": 120.0
            },
            {
                "start_time": 26.3681818,
                "end_time": 26.6522727,
                "pitch": 31,
                "velocity": 4,
                "duration": 0.2840909,
                "tempo": 120.0
            },
            {
                "start_time": 26.6522727,
                "end_time": 26.7704545,
                "pitch": 36,
                "velocity": 4,
                "duration": 0.1181818,
                "tempo": 120.0
            },
            {
                "start_time": 26.7704545,
                "end_time": 26.9704545,
                "pitch": 19,
                "velocity": 4,
                "duration": 0.2,
                "tempo": 120.0
            },
            {
                "start_time": 26.9704545,
                "end_time": 27.1727273,
                "pitch": 29,
                "velocity": 4,
                "duration": 0.2022727,
                "tempo": 120.0
            },
            {
                "start_time": 27.1727273,
                "end_time": 27.3727273,
                "pitch": 37,
                "velocity": 4,
                "duration": 0.2,
                "tempo": 120.0
            },
            {
                "start_time": 27.3727273,
                "end_time": 27.5704545,
                "pitch": 36,
                "velocity": 4,
                "duration": 0.1977273,
                "tempo": 120.0
            },
            {
                "start_time": 27.5704545,
                "end_time": 27.7659091,
                "pitch": 19,
                "velocity": 4,
                "duration": 0.1954545,
                "tempo": 120.0
            },
            {
                "start_time": 27.7659091,
                "end_time": 27.9681818,
                "pitch": 29,
                "velocity": 4,
                "duration": 0.2022727,
                "tempo": 120.0
            },
            {
                "start_time": 27.9681818,
                "end_time": 28.1681818,
                "pitch": 36,
                "velocity": 4,
                "duration": 0.2,
                "tempo": 120.0
            },
            {
                "start_time": 28.1681818,
                "end_time": 28.3386364,
                "pitch": 37,
                "velocity": 4,
                "duration": 0.1704545,
                "tempo": 120.0
            },
            {
                "start_time": 28.3386364,
                "end_time": 28.5772727,
                "pitch": 39,
                "velocity": 4,
                "duration": 0.2386364,
                "tempo": 120.0
            },
            {
                "start_time": 28.5772727,
                "end_time": 28.7772727,
                "pitch": 84,
                "velocity": 4,
                "duration": 0.2,
                "tempo": 120.0
            },
            {
                "start_time": 28.7772727,
                "end_time": 28.9772727,
                "pitch": 75,
                "velocity": 4,
                "duration": 0.2,
                "tempo": 120.0
            },
            {
                "start_time": 28.9772727,
                "end_time": 29.1772727,
                "pitch": 91,
                "velocity": 4,
                "duration": 0.2,
                "tempo": 120.0
            },
            {
                "start_time": 29.1772727,
                "end_time": 29.3772727,
                "pitch": 75,
                "velocity": 4,
                "duration": 0.2,
                "tempo": 120.0
            },
            {
                "start_time": 29.3772727,
                "end_time": 29.5795455,
                "pitch": 83,
                "velocity": 4,
                "duration": 0.2022727,
                "tempo": 120.0
            },
            {
                "start_time": 29.5795455,
                "end_time": 29.6795455,
                "pitch": 92,
                "velocity": 4,
                "duration": 0.1,
                "tempo": 120.0
            },
            {
                "start_time": 29.6795455,
                "end_time": 29.9795455,
                "pitch": 18,
                "velocity": 4,
                "duration": 0.3,
                "tempo": 120.0
            },
            {
                "start_time": 29.9795455,
                "end_time": 30.1818182,
                "pitch": 97,
                "velocity": 4,
                "duration": 0.2022727,
                "tempo": 120.0
            },
            {
                "start_time": 30.1818182,
                "end_time": 30.3818182,
                "pitch": 105,
                "velocity": 4,
                "duration": 0.2,
                "tempo": 120.0
            },
            {
                "start_time": 30.3818182,
                "end_time": 30.7840909,
                "pitch": 18,
                "velocity": 4,
                "duration": 0.4022727,
                "tempo": 120.0
            },
            {
                "start_time": 30.7840909,
                "end_time": 30.9840909,
                "pitch": 97,
                "velocity": 4,
                "duration": 0.2,
                "tempo": 120.0
            },
            {
                "start_time": 30.9840909,
                "end_time": 31.1840909,
                "pitch": 105,
                "velocity": 4,
                "duration": 0.2,
                "tempo": 120.0
            },
            {
                "start_time": 31.1840909,
                "end_time": 31.7363636,
                "pitch": 17,
                "velocity": 4,
                "duration": 0.5522727,
                "tempo": 120.0
            },
            {
                "start_time": 31.7363636,
                "end_time": 31.7863636,
                "pitch": 46,
                "velocity": 4,
                "duration": 0.05,
                "tempo": 120.0
            },
            {
                "start_time": 31.7863636,
                "end_time": 31.9863636,
                "pitch": 38,
                "velocity": 4,
                "duration": 0.2,
                "tempo": 120.0
            },
            {
                "start_time": 31.9863636,
                "end_time": 32.1863636,
                "pitch": 29,
                "velocity": 4,
                "duration": 0.2,
                "tempo": 120.0
            },
            {
                "start_time": 32.1863636,
                "end_time": 32.3886364,
                "pitch": 45,
                "velocity": 4,
                "duration": 0.2022727,
                "tempo": 120.0
            },
            {
                "start_time": 32.3886364,
                "end_time": 32.5886364,
                "pitch": 29,
                "velocity": 4,
                "duration": 0.2,
                "tempo": 120.0
            },
            {
                "start_time": 32.5886364,
                "end_time": 32.7886364,
                "pitch": 37,
                "velocity": 4,
                "duration": 0.2,
                "tempo": 120.0
            },
            {
                "start_time": 32.7886364,
                "end_time": 33.1886364,
                "pitch": 46,
                "velocity": 4,
                "duration": 0.4,
                "tempo": 120.0
            },
            {
                "start_time": 33.1886364,
                "end_time": 33.3886364,
                "pitch": 29,
                "velocity": 4,
                "duration": 0.2,
                "tempo": 120.0
            },
            {
                "start_time": 33.3886364,
                "end_time": 33.5886364,
                "pitch": 37,
                "velocity": 4,
                "duration": 0.2,
                "tempo": 120.0
            },
            {
                "start_time": 33.5886364,
                "end_time": 33.9909091,
                "pitch": 46,
                "velocity": 4,
                "duration": 0.4022727,
                "tempo": 120.0
            },
            {
                "start_time": 33.9909091,
                "end_time": 34.1909091,
                "pitch": 29,
                "velocity": 4,
                "duration": 0.2,
                "tempo": 120.0
            },
            {
                "start_time": 34.1909091,
                "end_time": 34.3909091,
                "pitch": 37,
                "velocity": 4,
                "duration": 0.2,
                "tempo": 120.0
            },
            {
                "start_time": 34.3909091,
                "end_time": 34.9909091,
                "pitch": 45,
                "velocity": 4,
                "duration": 0.6,
                "tempo": 120.0
            },
            {
                "start_time": 34.9909091,
                "end_time": 35.1909091,
                "pitch": 38,
                "velocity": 4,
                "duration": 0.2,
                "tempo": 120.0
            },
            {
                "start_time": 35.1909091,
                "end_time": 35.3909091,
                "pitch": 29,
                "velocity": 4,
                "duration": 0.2,
                "tempo": 120.0
            },
            {
                "start_time": 35.3909091,
                "end_time": 35.5909091,
                "pitch": 45,
                "velocity": 4,
                "duration": 0.2,
                "tempo": 120.0
            },
            {
                "start_time": 35.5909091,
                "end_time": 35.7909091,
                "pitch": 29,
                "velocity": 4,
                "duration": 0.2,
                "tempo": 120.0
            },
            {
                "start_time": 35.7909091,
                "end_time": 35.8409091,
                "pitch": 37,
                "velocity": 4,
                "duration": 0.05,
                "tempo": 120.0
            },
            {
                "start_time": 35.8409091,
                "end_time": 35.8590909,
                "pitch": 21,
                "velocity": 4,
                "duration": 0.0181818,
                "tempo": 120.0
            },
            {
                "start_time": 35.8590909,
                "end_time": 35.9931818,
                "pitch": 108,
                "velocity": 4,
                "duration": 0.1340909,
                "tempo": 120.0
            },
            {
                "start_time": 35.9931818,
                "end_time": 36.3931818,
                "pitch": 21,
                "velocity": 4,
                "duration": 0.4,
                "tempo": 120.0
            },
            {
                "start_time": 36.3931818,
                "end_time": 36.5931818,
                "pitch": 100,
                "velocity": 4,
                "duration": 0.2,
                "tempo": 120.0
            },
            {
                "start_time": 36.5931818,
                "end_time": 36.7931818,
                "pitch": 108,
                "velocity": 4,
                "duration": 0.2,
                "tempo": 120.0
            },
            {
                "start_time": 36.7931818,
                "end_time": 37.1931818,
                "pitch": 21,
                "velocity": 4,
                "duration": 0.4,
                "tempo": 120.0
            },
            {
                "start_time": 37.1931818,
                "end_time": 37.3931818,
                "pitch": 100,
                "velocity": 4,
                "duration": 0.2,
                "tempo": 120.0
            },
            {
                "start_time": 37.3931818,
                "end_time": 37.5931818,
                "pitch": 108,
                "velocity": 4,
                "duration": 0.2,
                "tempo": 120.0
            },
            {
                "start_time": 37.5931818,
                "end_time": 38.1977273,
                "pitch": 19,
                "velocity": 4,
                "duration": 0.6045455,
                "tempo": 120.0
            },
            {
                "start_time": 38.1977273,
                "end_time": 38.3977273,
                "pitch": 13,
                "velocity": 4,
                "duration": 0.2,
                "tempo": 120.0
            },
            {
                "start_time": 38.3977273,
                "end_time": 38.5977273,
                "pitch": 100,
                "velocity": 4,
                "duration": 0.2,
                "tempo": 120.0
            },
            {
                "start_time": 38.5977273,
                "end_time": 38.6977273,
                "pitch": 19,
                "velocity": 4,
                "duration": 0.1,
                "tempo": 120.0
            },
            {
                "start_time": 38.6977273,
                "end_time": 38.9977273,
                "pitch": 100,
                "velocity": 4,
                "duration": 0.3,
                "tempo": 120.0
            },
            {
                "start_time": 38.9977273,
                "end_time": 39.0977273,
                "pitch": 13,
                "velocity": 4,
                "duration": 0.1,
                "tempo": 120.0
            },
            {
                "start_time": 39.0977273,
                "end_time": 39.2977273,
                "pitch": 100,
                "velocity": 4,
                "duration": 0.2,
                "tempo": 120.0
            },
            {
                "start_time": 39.2977273,
                "end_time": 39.4931818,
                "pitch": 21,
                "velocity": 4,
                "duration": 0.1954545,
                "tempo": 120.0
            },
            {
                "start_time": 39.4931818,
                "end_time": 39.7886364,
                "pitch": 100,
                "velocity": 4,
                "duration": 0.2954545,
                "tempo": 120.0
            },
            {
                "start_time": 39.7886364,
                "end_time": 39.8909091,
                "pitch": 13,
                "velocity": 4,
                "duration": 0.1022727,
                "tempo": 120.0
            },
            {
                "start_time": 39.8909091,
                "end_time": 40.1,
                "pitch": 100,
                "velocity": 4,
                "duration": 0.2090909,
                "tempo": 120.0
            },
            {
                "start_time": 40.1,
                "end_time": 40.3022727,
                "pitch": 21,
                "velocity": 4,
                "duration": 0.2022727,
                "tempo": 120.0
            },
            {
                "start_time": 40.3022727,
                "end_time": 40.4022727,
                "pitch": 100,
                "velocity": 4,
                "duration": 0.1,
                "tempo": 120.0
            },
            {
                "start_time": 40.4022727,
                "end_time": 40.5022727,
                "pitch": 19,
                "velocity": 4,
                "duration": 0.1,
                "tempo": 120.0
            },
            {
                "start_time": 40.5022727,
                "end_time": 40.6022727,
                "pitch": 100,
                "velocity": 4,
                "duration": 0.1,
                "tempo": 120.0
            },
            {
                "start_time": 40.6022727,
                "end_time": 40.7022727,
                "pitch": 29,
                "velocity": 4,
                "duration": 0.1,
                "tempo": 120.0
            },
            {
                "start_time": 40.7022727,
                "end_time": 40.8022727,
                "pitch": 19,
                "velocity": 4,
                "duration": 0.1,
                "tempo": 120.0
            },
            {
                "start_time": 40.8022727,
                "end_time": 40.9022727,
                "pitch": 100,
                "velocity": 4,
                "duration": 0.1,
                "tempo": 120.0
            },
            {
                "start_time": 40.9022727,
                "end_time": 41.1022727,
                "pitch": 21,
                "velocity": 4,
                "duration": 0.2,
                "tempo": 120.0
            },
            {
                "start_time": 41.1022727,
                "end_time": 41.2181818,
                "pitch": 100,
                "velocity": 4,
                "duration": 0.1159091,
                "tempo": 120.0
            },
            {
                "start_time": 41.2181818,
                "end_time": 41.4022727,
                "pitch": 14,
                "velocity": 4,
                "duration": 0.1840909,
                "tempo": 120.0
            },
            {
                "start_time": 41.4022727,
                "end_time": 41.5022727,
                "pitch": 26,
                "velocity": 4,
                "duration": 0.1,
                "tempo": 120.0
            },
            {
                "start_time": 41.5022727,
                "end_time": 41.6022727,
                "pitch": 14,
                "velocity": 4,
                "duration": 0.1,
                "tempo": 120.0
            },
            {
                "start_time": 41.6022727,
                "end_time": 41.7022727,
                "pitch": 30,
                "velocity": 4,
                "duration": 0.1,
                "tempo": 120.0
            },
            {
                "start_time": 41.7022727,
                "end_time": 41.8022727,
                "pitch": 14,
                "velocity": 4,
                "duration": 0.1,
                "tempo": 120.0
            },
            {
                "start_time": 41.8022727,
                "end_time": 41.9022727,
                "pitch": 30,
                "velocity": 4,
                "duration": 0.1,
                "tempo": 120.0
            },
            {
                "start_time": 41.9022727,
                "end_time": 42.2045455,
                "pitch": 14,
                "velocity": 4,
                "duration": 0.3022727,
                "tempo": 120.0
            },
            {
                "start_time": 42.2045455,
                "end_time": 42.3045455,
                "pitch": 23,
                "velocity": 4,
                "duration": 0.1,
                "tempo": 120.0
            },
            {
                "start_time": 42.3045455,
                "end_time": 42.5045455,
                "pitch": 14,
                "velocity": 4,
                "duration": 0.2,
                "tempo": 120.0
            },
            {
                "start_time": 42.5045455,
                "end_time": 42.7022727,
                "pitch": 31,
                "velocity": 4,
                "duration": 0.1977273,
                "tempo": 120.0
            },
            {
                "start_time": 42.7022727,
                "end_time": 42.9954545,
                "pitch": 14,
                "velocity": 4,
                "duration": 0.2931818,
                "tempo": 120.0
            },
            {
                "start_time": 42.9954545,
                "end_time": 43.1,
                "pitch": 23,
                "velocity": 4,
                "duration": 0.1045455,
                "tempo": 120.0
            },
            {
                "start_time": 43.1,
                "end_time": 43.3045455,
                "pitch": 14,
                "velocity": 4,
                "duration": 0.2045455,
                "tempo": 120.0
            },
            {
                "start_time": 43.3045455,
                "end_time": 43.5068182,
                "pitch": 31,
                "velocity": 4,
                "duration": 0.2022727,
                "tempo": 120.0
            },
            {
                "start_time": 43.5068182,
                "end_time": 43.6068182,
                "pitch": 14,
                "velocity": 4,
                "duration": 0.1,
                "tempo": 120.0
            },
            {
                "start_time": 43.6068182,
                "end_time": 43.7068182,
                "pitch": 30,
                "velocity": 4,
                "duration": 0.1,
                "tempo": 120.0
            },
            {
                "start_time": 43.7068182,
                "end_time": 43.8068182,
                "pitch": 14,
                "velocity": 4,
                "duration": 0.1,
                "tempo": 120.0
            },
            {
                "start_time": 43.8068182,
                "end_time": 43.9068182,
                "pitch": 39,
                "velocity": 4,
                "duration": 0.1,
                "tempo": 120.0
            },
            {
                "start_time": 43.9068182,
                "end_time": 44.0090909,
                "pitch": 30,
                "velocity": 4,
                "duration": 0.1022727,
                "tempo": 120.0
            },
            {
                "start_time": 44.0090909,
                "end_time": 44.1090909,
                "pitch": 14,
                "velocity": 4,
                "duration": 0.1,
                "tempo": 120.0
            },
            {
                "start_time": 44.1090909,
                "end_time": 44.3090909,
                "pitch": 31,
                "velocity": 4,
                "duration": 0.2,
                "tempo": 120.0
            },
            {
                "start_time": 44.3090909,
                "end_time": 44.6090909,
                "pitch": 14,
                "velocity": 4,
                "duration": 0.3,
                "tempo": 120.0
            },
            {
                "start_time": 44.6090909,
                "end_time": 44.7090909,
                "pitch": 26,
                "velocity": 4,
                "duration": 0.1,
                "tempo": 120.0
            },
            {
                "start_time": 44.7090909,
                "end_time": 44.8090909,
                "pitch": 14,
                "velocity": 4,
                "duration": 0.1,
                "tempo": 120.0
            },
            {
                "start_time": 44.8090909,
                "end_time": 44.9090909,
                "pitch": 30,
                "velocity": 4,
                "duration": 0.1,
                "tempo": 120.0
            },
            {
                "start_time": 44.9090909,
                "end_time": 45.0090909,
                "pitch": 14,
                "velocity": 4,
                "duration": 0.1,
                "tempo": 120.0
            },
            {
                "start_time": 45.0090909,
                "end_time": 45.1090909,
                "pitch": 30,
                "velocity": 4,
                "duration": 0.1,
                "tempo": 120.0
            },
            {
                "start_time": 45.1090909,
                "end_time": 45.2090909,
                "pitch": 14,
                "velocity": 4,
                "duration": 0.1,
                "tempo": 120.0
            },
            {
                "start_time": 45.2090909,
                "end_time": 45.3090909,
                "pitch": 30,
                "velocity": 4,
                "duration": 0.1,
                "tempo": 120.0
            },
            {
                "start_time": 45.3090909,
                "end_time": 45.4090909,
                "pitch": 14,
                "velocity": 4,
                "duration": 0.1,
                "tempo": 120.0
            },
            {
                "start_time": 45.4090909,
                "end_time": 45.5090909,
                "pitch": 39,
                "velocity": 4,
                "duration": 0.1,
                "tempo": 120.0
            },
            {
                "start_time": 45.5090909,
                "end_time": 45.6090909,
                "pitch": 30,
                "velocity": 4,
                "duration": 0.1,
                "tempo": 120.0
            },
            {
                "start_time": 45.6090909,
                "end_time": 45.7090909,
                "pitch": 14,
                "velocity": 4,
                "duration": 0.1,
                "tempo": 120.0
            },
            {
                "start_time": 45.7090909,
                "end_time": 45.8090909,
                "pitch": 31,
                "velocity": 4,
                "duration": 0.1,
                "tempo": 120.0
            },
            {
                "start_time": 45.8090909,
                "end_time": 46.0272727,
                "pitch": 36,
                "velocity": 4,
                "duration": 0.2181818,
                "tempo": 120.0
            },
            {
                "start_time": 46.0272727,
                "end_time": 46.2113636,
                "pitch": 43,
                "velocity": 4,
                "duration": 0.1840909,
                "tempo": 120.0
            },
            {
                "start_time": 46.2113636,
                "end_time": 46.6113636,
                "pitch": 27,
                "velocity": 4,
                "duration": 0.4,
                "tempo": 120.0
            },
            {
                "start_time": 46.6113636,
                "end_time": 46.7113636,
                "pitch": 36,
                "velocity": 4,
                "duration": 0.1,
                "tempo": 120.0
            },
            {
                "start_time": 46.7113636,
                "end_time": 47.0113636,
                "pitch": 19,
                "velocity": 4,
                "duration": 0.3,
                "tempo": 120.0
            },
            {
                "start_time": 47.0113636,
                "end_time": 47.1113636,
                "pitch": 30,
                "velocity": 4,
                "duration": 0.1,
                "tempo": 120.0
            },
            {
                "start_time": 47.1113636,
                "end_time": 47.3113636,
                "pitch": 19,
                "velocity": 4,
                "duration": 0.2,
                "tempo": 120.0
            },
            {
                "start_time": 47.3113636,
                "end_time": 47.4113636,
                "pitch": 37,
                "velocity": 4,
                "duration": 0.1,
                "tempo": 120.0
            },
            {
                "start_time": 47.4113636,
                "end_time": 47.5113636,
                "pitch": 36,
                "velocity": 4,
                "duration": 0.1,
                "tempo": 120.0
            },
            {
                "start_time": 47.5113636,
                "end_time": 47.8113636,
                "pitch": 19,
                "velocity": 4,
                "duration": 0.3,
                "tempo": 120.0
            },
            {
                "start_time": 47.8113636,
                "end_time": 47.9136364,
                "pitch": 30,
                "velocity": 4,
                "duration": 0.1022727,
                "tempo": 120.0
            },
            {
                "start_time": 47.9136364,
                "end_time": 48.0136364,
                "pitch": 19,
                "velocity": 4,
                "duration": 0.1,
                "tempo": 120.0
            },
            {
                "start_time": 48.0136364,
                "end_time": 48.1136364,
                "pitch": 22,
                "velocity": 4,
                "duration": 0.1,
                "tempo": 120.0
            },
            {
                "start_time": 48.1136364,
                "end_time": 48.3159091,
                "pitch": 39,
                "velocity": 4,
                "duration": 0.2022727,
                "tempo": 120.0
            },
            {
                "start_time": 48.3159091,
                "end_time": 48.3318182,
                "pitch": 22,
                "velocity": 4,
                "duration": 0.0159091,
                "tempo": 120.0
            },
            {
                "start_time": 48.3318182,
                "end_time": 48.6159091,
                "pitch": 75,
                "velocity": 4,
                "duration": 0.2840909,
                "tempo": 120.0
            },
            {
                "start_time": 48.6159091,
                "end_time": 48.7159091,
                "pitch": 84,
                "velocity": 4,
                "duration": 0.1,
                "tempo": 120.0
            },
            {
                "start_time": 48.7159091,
                "end_time": 48.9159091,
                "pitch": 75,
                "velocity": 4,
                "duration": 0.2,
                "tempo": 120.0
            },
            {
                "start_time": 48.9159091,
                "end_time": 49.1159091,
                "pitch": 92,
                "velocity": 4,
                "duration": 0.2,
                "tempo": 120.0
            },
            {
                "start_time": 49.1159091,
                "end_time": 49.4159091,
                "pitch": 75,
                "velocity": 4,
                "duration": 0.3,
                "tempo": 120.0
            },
            {
                "start_time": 49.4159091,
                "end_time": 49.5159091,
                "pitch": 84,
                "velocity": 4,
                "duration": 0.1,
                "tempo": 120.0
            },
            {
                "start_time": 49.5159091,
                "end_time": 49.7159091,
                "pitch": 75,
                "velocity": 4,
                "duration": 0.2,
                "tempo": 120.0
            },
            {
                "start_time": 49.7159091,
                "end_time": 49.7318182,
                "pitch": 92,
                "velocity": 4,
                "duration": 0.0159091,
                "tempo": 120.0
            },
            {
                "start_time": 49.7318182,
                "end_time": 49.9159091,
                "pitch": 18,
                "velocity": 4,
                "duration": 0.1840909,
                "tempo": 120.0
            },
            {
                "start_time": 49.9159091,
                "end_time": 50.0159091,
                "pitch": 97,
                "velocity": 4,
                "duration": 0.1,
                "tempo": 120.0
            },
            {
                "start_time": 50.0159091,
                "end_time": 50.1181818,
                "pitch": 17,
                "velocity": 4,
                "duration": 0.1022727,
                "tempo": 120.0
            },
            {
                "start_time": 50.1181818,
                "end_time": 50.2181818,
                "pitch": 97,
                "velocity": 4,
                "duration": 0.1,
                "tempo": 120.0
            },
            {
                "start_time": 50.2181818,
                "end_time": 50.3181818,
                "pitch": 26,
                "velocity": 4,
                "duration": 0.1,
                "tempo": 120.0
            },
            {
                "start_time": 50.3181818,
                "end_time": 50.4181818,
                "pitch": 17,
                "velocity": 4,
                "duration": 0.1,
                "tempo": 120.0
            },
            {
                "start_time": 50.4181818,
                "end_time": 50.5181818,
                "pitch": 97,
                "velocity": 4,
                "duration": 0.1,
                "tempo": 120.0
            },
            {
                "start_time": 50.5181818,
                "end_time": 50.7181818,
                "pitch": 18,
                "velocity": 4,
                "duration": 0.2,
                "tempo": 120.0
            },
            {
                "start_time": 50.7181818,
                "end_time": 51.0181818,
                "pitch": 97,
                "velocity": 4,
                "duration": 0.3,
                "tempo": 120.0
            },
            {
                "start_time": 51.0181818,
                "end_time": 51.1181818,
                "pitch": 13,
                "velocity": 4,
                "duration": 0.1,
                "tempo": 120.0
            },
            {
                "start_time": 51.1181818,
                "end_time": 51.2181818,
                "pitch": 97,
                "velocity": 4,
                "duration": 0.1,
                "tempo": 120.0
            },
            {
                "start_time": 51.2181818,
                "end_time": 51.3181818,
                "pitch": 17,
                "velocity": 4,
                "duration": 0.1,
                "tempo": 120.0
            },
            {
                "start_time": 51.3181818,
                "end_time": 51.4,
                "pitch": 97,
                "velocity": 4,
                "duration": 0.0818182,
                "tempo": 120.0
            }
        ]
    }
}