{
    "mood": "angry",
    "instruments": {
        "Acoustic Bass": [
            {
                "start_time": 0.1,
                "end_time": 0.15,
                "pitch": 33,
                "velocity": 101,
                "duration": 0.05,
                "tempo": 120.0
            },
            {
                "start_time": 0.2159091,
                "end_time": 0.25,
                "pitch": 33,
                "velocity": 101,
                "duration": 0.0340909,
                "tempo": 120.0
            },
            {
                "start_time": 0.6272727,
                "end_time": 0.6636364,
                "pitch": 36,
                "velocity": 101,
                "duration": 0.0363636,
                "tempo": 120.0
            },
            {
                "start_time": 0.8409091,
                "end_time": 0.875,
                "pitch": 35,
                "velocity": 101,
                "duration": 0.0340909,
                "tempo": 120.0
            },
            {
                "start_time": 1.1409091,
                "end_time": 1.5409091,
                "pitch": 31,
                "velocity": 101,
                "duration": 0.4,
                "tempo": 120.0
            },
            {
                "start_time": 1.5409091,
                "end_time": 1.7386364,
                "pitch": 33,
                "velocity": 101,
                "duration": 0.1977273,
                "tempo": 120.0
            },
            {
                "start_time": 1.7386364,
                "end_time": 1.7704545,
                "pitch": 33,
                "velocity": 101,
                "duration": 0.0318182,
                "tempo": 120.0
            },
            {
                "start_time": 1.8363636,
                "end_time": 1.8704545,
                "pitch": 33,
                "velocity": 101,
                "duration": 0.0340909,
                "tempo": 120.0
            },
            {
                "start_time": 2.0340909,
                "end_time": 2.1181818,
                "pitch": 35,
                "velocity": 101,
                "duration": 0.0840909,
                "tempo": 120.0
            },
            {
                "start_time": 2.2386364,
                "end_time": 2.3409091,
                "pitch": 36,
                "velocity": 101,
                "duration": 0.1022727,
                "tempo": 120.0
            },
            {
                "start_time": 2.4454545,
                "end_time": 2.4772727,
                "pitch": 35,
                "velocity": 101,
                "duration": 0.0318182,
                "tempo": 120.0
            },
            {
                "start_time": 3.0431818,
                "end_time": 3.1431818,
                "pitch": 31,
                "velocity": 101,
                "duration": 0.1,
                "tempo": 120.0
            },
            {
                "start_time": 3.2431818,
                "end_time": 3.2772727,
                "pitch": 29,
                "velocity": 101,
                "duration": 0.0340909,
                "tempo": 120.0
            },
            {
                "start_time": 3.3454545,
                "end_time": 3.3772727,
                "pitch": 29,
                "velocity": 101,
                "duration": 0.0318182,
                "tempo": 120.0
            },
            {
                "start_time": 3.4454545,
                "end_time": 3.4795455,
                "pitch": 29,
                "velocity": 101,
                "duration": 0.0340909,
                "tempo": 120.0
            },
            {
                "start_time": 3.8477273,
                "end_time": 3.8795455,
                "pitch": 33,
                "velocity": 101,
                "duration": 0.0318182,
                "tempo": 120.0
            },
            {
                "start_time": 4.0477273,
                "end_time": 4.0795455,
                "pitch": 31,
                "velocity": 101,
                "duration": 0.0318182,
                "tempo": 120.0
            },
            {
                "start_time": 4.7477273,
                "end_time": 4.8318182,
                "pitch": 29,
                "velocity": 101,
                "duration": 0.0840909,
                "tempo": 120.0
            },
            {
                "start_time": 4.9477273,
                "end_time": 4.9795455,
                "pitch": 29,
                "velocity": 101,
                "duration": 0.0318182,
                "tempo": 120.0
            },
            {
                "start_time": 5.0454545,
                "end_time": 5.0772727,
                "pitch": 29,
                "velocity": 101,
                "duration": 0.0318182,
                "tempo": 120.0
            },
            {
                "start_time": 5.2409091,
                "end_time": 5.3272727,
                "pitch": 31,
                "velocity": 101,
                "duration": 0.0863636,
                "tempo": 120.0
            },
            {
                "start_time": 5.4477273,
                "end_time": 5.55,
                "pitch": 33,
                "velocity": 101,
                "duration": 0.1022727,
                "tempo": 120.0
            },
            {
                "start_time": 5.6522727,
                "end_time": 5.6863636,
                "pitch": 31,
                "velocity": 101,
                "duration": 0.0340909,
                "tempo": 120.0
            },
            {
                "start_time": 5.8545455,
                "end_time": 6.2340909,
                "pitch": 36,
                "velocity": 101,
                "duration": 0.3795455,
                "tempo": 120.0
            },
            {
                "start_time": 6.2340909,
                "end_time": 6.4454545,
                "pitch": 35,
                "velocity": 101,
                "duration": 0.2113636,
                "tempo": 120.0
            },
            {
                "start_time": 6.4454545,
                "end_time": 6.4795455,
                "pitch": 33,
                "velocity": 101,
                "duration": 0.0340909,
                "tempo": 120.0
            },
            {
                "start_time": 6.5318182,
                "end_time": 6.5840909,
                "pitch": 33,
                "velocity": 101,
                "duration": 0.0522727,
                "tempo": 120.0
            },
            {
                "start_time": 6.6522727,
                "end_time": 6.6863636,
                "pitch": 33,
                "velocity": 101,
                "duration": 0.0340909,
                "tempo": 120.0
            },
            {
                "start_time": 7.0522727,
                "end_time": 7.0840909,
                "pitch": 36,
                "velocity": 101,
                "duration": 0.0318182,
                "tempo": 120.0
            },
            {
                "start_time": 7.25,
                "end_time": 7.2840909,
                "pitch": 35,
                "velocity": 101,
                "duration": 0.0340909,
                "tempo": 120.0
            },
            {
                "start_time": 7.5590909,
                "end_time": 7.9636364,
                "pitch": 31,
                "velocity": 101,
                "duration": 0.4045455,
                "tempo": 120.0
            },
            {
                "start_time": 7.9636364,
                "end_time": 8.1613636,
                "pitch": 33,
                "velocity": 101,
                "duration": 0.1977273,
                "tempo": 120.0
            },
            {
                "start_time": 8.1613636,
                "end_time": 8.1931818,
                "pitch": 33,
                "velocity": 101,
                "duration": 0.0318182,
                "tempo": 120.0
            },
            {
                "start_time": 8.2590909,
                "end_time": 8.2931818,
                "pitch": 33,
                "velocity": 101,
                "duration": 0.0340909,
                "tempo": 120.0
            },
            {
                "start_time": 8.4568182,
                "end_time": 8.5386364,
                "pitch": 35,
                "velocity": 101,
                "duration": 0.0818182,
                "tempo": 120.0
            },
            {
                "start_time": 8.6568182,
                "end_time": 8.7568182,
                "pitch": 36,
                "velocity": 101,
                "duration": 0.1,
                "tempo": 120.0
            },
            {
                "start_time": 8.8590909,
                "end_time": 8.8931818,
                "pitch": 35,
                "velocity": 101,
                "duration": 0.0340909,
                "tempo": 120.0
            },
            {
                "start_time": 9.4704545,
                "end_time": 9.5704545,
                "pitch": 31,
                "velocity": 101,
                "duration": 0.1,
                "tempo": 120.0
            },
            {
                "start_time": 9.6727273,
                "end_time": 9.7045455,
                "pitch": 29,
                "velocity": 101,
                "duration": 0.0318182,
                "tempo": 120.0
            },
            {
                "start_time": 9.7727273,
                "end_time": 9.8045455,
                "pitch": 29,
                "velocity": 101,
                "duration": 0.0318182,
                "tempo": 120.0
            },
            {
                "start_time": 9.8727273,
                "end_time": 9.9045455,
                "pitch": 29,
                "velocity": 101,
                "duration": 0.0318182,
                "tempo": 120.0
            },
            {
                "start_time": 10.2727273,
                "end_time": 10.3068182,
                "pitch": 33,
                "velocity": 101,
                "duration": 0.0340909,
                "tempo": 120.0
            },
            {
                "start_time": 10.475,
                "end_time": 10.5090909,
                "pitch": 31,
                "velocity": 101,
                "duration": 0.0340909,
                "tempo": 120.0
            },
            {
                "start_time": 11.1795455,
                "end_time": 11.2636364,
                "pitch": 29,
                "velocity": 101,
                "duration": 0.0840909,
                "tempo": 120.0
            },
            {
                "start_time": 11.3772727,
                "end_time": 11.4113636,
                "pitch": 29,
                "velocity": 101,
                "duration": 0.0340909,
                "tempo": 120.0
            },
            {
                "start_time": 11.4772727,
                "end_time": 11.5090909,
                "pitch": 29,
                "velocity": 101,
                "duration": 0.0318182,
                "tempo": 120.0
            },
            {
                "start_time": 11.6727273,
                "end_time": 11.7568182,
                "pitch": 31,
                "velocity": 101,
                "duration": 0.0840909,
                "tempo": 120.0
            },
            {
                "start_time": 11.8772727,
                "end_time": 11.9795455,
                "pitch": 33,
                "velocity": 101,
                "duration": 0.1022727,
                "tempo": 120.0
            },
            {
                "start_time": 12.0840909,
                "end_time": 12.1159091,
                "pitch": 31,
                "velocity": 101,
                "duration": 0.0318182,
                "tempo": 120.0
            },
            {
                "start_time": 12.2840909,
                "end_time": 12.6863636,
                "pitch": 36,
                "velocity": 101,
                "duration": 0.4022727,
                "tempo": 120.0
            },
            {
                "start_time": 12.6863636,
                "end_time": 12.8863636,
                "pitch": 35,
                "velocity": 101,
                "duration": 0.2,
                "tempo": 120.0
            },
            {
                "start_time": 12.8863636,
                "end_time": 12.9204545,
                "pitch": 33,
                "velocity": 101,
                "duration": 0.0340909,
                "tempo": 120.0
            },
            {
                "start_time": 12.9863636,
                "end_time": 13.0204545,
                "pitch": 33,
                "velocity": 101,
                "duration": 0.0340909,
                "tempo": 120.0
            },
            {
                "start_time": 13.0886364,
                "end_time": 13.1386364,
                "pitch": 33,
                "velocity": 101,
                "duration": 0.05,
                "tempo": 120.0
            },
            {
                "start_time": 13.4863636,
                "end_time": 13.5181818,
                "pitch": 36,
                "velocity": 101,
                "duration": 0.0318182,
                "tempo": 120.0
            },
            {
                "start_time": 13.6840909,
                "end_time": 13.7181818,
                "pitch": 35,
                "velocity": 101,
                "duration": 0.0340909,
                "tempo": 120.0
            },
            {
                "start_time": 13.9909091,
                "end_time": 14.3954545,
                "pitch": 31,
                "velocity": 101,
                "duration": 0.4045455,
                "tempo": 120.0
            },
            {
                "start_time": 14.3954545,
                "end_time": 14.5954545,
                "pitch": 33,
                "velocity": 101,
                "duration": 0.2,
                "tempo": 120.0
            },
            {
                "start_time": 14.5954545,
                "end_time": 14.6272727,
                "pitch": 33,
                "velocity": 101,
                "duration": 0.0318182,
                "tempo": 120.0
            },
            {
                "start_time": 14.6931818,
                "end_time": 14.725,
                "pitch": 33,
                "velocity": 101,
                "duration": 0.0318182,
                "tempo": 120.0
            },
            {
                "start_time": 14.8886364,
                "end_time": 14.975,
                "pitch": 35,
                "velocity": 101,
                "duration": 0.0863636,
                "tempo": 120.0
            },
            {
                "start_time": 15.0954545,
                "end_time": 15.1977273,
                "pitch": 36,
                "velocity": 101,
                "duration": 0.1022727,
                "tempo": 120.0
            },
            {
                "start_time": 15.3,
                "end_time": 15.3340909,
                "pitch": 35,
                "velocity": 101,
                "duration": 0.0340909,
                "tempo": 120.0
            },
            {
                "start_time": 15.9022727,
                "end_time": 16.0022727,
                "pitch": 31,
                "velocity": 101,
                "duration": 0.1,
                "tempo": 120.0
            },
            {
                "start_time": 16.1022727,
                "end_time": 16.1363636,
                "pitch": 29,
                "velocity": 101,
                "duration": 0.0340909,
                "tempo": 120.0
            },
            {
                "start_time": 16.2045455,
                "end_time": 16.2363636,
                "pitch": 29,
                "velocity": 101,
                "duration": 0.0318182,
                "tempo": 120.0
            },
            {
                "start_time": 16.3045455,
                "end_time": 16.3386364,
                "pitch": 29,
                "velocity": 101,
                "duration": 0.0340909,
                "tempo": 120.0
            },
            {
                "start_time": 16.7068182,
                "end_time": 16.7409091,
                "pitch": 33,
                "velocity": 101,
                "duration": 0.0340909,
                "tempo": 120.0
            },
            {
                "start_time": 16.9090909,
                "end_time": 16.9409091,
                "pitch": 31,
                "velocity": 101,
                "duration": 0.0318182,
                "tempo": 120.0
            },
            {
                "start_time": 17.6090909,
                "end_time": 17.6909091,
                "pitch": 29,
                "velocity": 101,
                "duration": 0.0818182,
                "tempo": 120.0
            },
            {
                "start_time": 17.8068182,
                "end_time": 17.8386364,
                "pitch": 29,
                "velocity": 101,
                "duration": 0.0318182,
                "tempo": 120.0
            },
            {
                "start_time": 17.9045455,
                "end_time": 17.9363636,
                "pitch": 29,
                "velocity": 101,
                "duration": 0.0318182,
                "tempo": 120.0
            },
            {
                "start_time": 18.1,
                "end_time": 18.1863636,
                "pitch": 31,
                "velocity": 101,
                "duration": 0.0863636,
                "tempo": 120.0
            },
            {
                "start_time": 18.3068182,
                "end_time": 18.4090909,
                "pitch": 33,
                "velocity": 101,
                "duration": 0.1022727,
                "tempo": 120.0
            },
            {
                "start_time": 18.5113636,
                "end_time": 18.5454545,
                "pitch": 31,
                "velocity": 101,
                "duration": 0.0340909,
                "tempo": 120.0
            },
            {
                "start_time": 18.7136364,
                "end_time": 19.1113636,
                "pitch": 36,
                "velocity": 101,
                "duration": 0.3977273,
                "tempo": 120.0
            },
            {
                "start_time": 19.1113636,
                "end_time": 19.3113636,
                "pitch": 35,
                "velocity": 101,
                "duration": 0.2,
                "tempo": 120.0
            },
            {
                "start_time": 19.3113636,
                "end_time": 19.3613636,
                "pitch": 33,
                "velocity": 101,
                "duration": 0.05,
                "tempo": 120.0
            },
            {
                "start_time": 19.4295455,
                "end_time": 19.4613636,
                "pitch": 33,
                "velocity": 101,
                "duration": 0.0318182,
                "tempo": 120.0
            },
            {
                "start_time": 19.5295455,
                "end_time": 19.5795455,
                "pitch": 33,
                "velocity": 101,
                "duration": 0.05,
                "tempo": 120.0
            },
            {
                "start_time": 19.9340909,
                "end_time": 19.9681818,
                "pitch": 36,
                "velocity": 101,
                "duration": 0.0340909,
                "tempo": 120.0
            },
            {
                "start_time": 20.1431818,
                "end_time": 20.1772727,
                "pitch": 35,
                "velocity": 101,
                "duration": 0.0340909,
                "tempo": 120.0
            },
            {
                "start_time": 20.45,
                "end_time": 20.8545455,
                "pitch": 31,
                "velocity": 101,
                "duration": 0.4045455,
                "tempo": 120.0
            },
            {
                "start_time": 20.8545455,
                "end_time": 21.0545455,
                "pitch": 33,
                "velocity": 101,
                "duration": 0.2,
                "tempo": 120.0
            },
            {
                "start_time": 21.0545455,
                "end_time": 21.0863636,
                "pitch": 33,
                "velocity": 101,
                "duration": 0.0318182,
                "tempo": 120.0
            },
            {
                "start_time": 21.1522727,
                "end_time": 21.1840909,
                "pitch": 33,
                "velocity": 101,
                "duration": 0.0318182,
                "tempo": 120.0
            },
            {
                "start_time": 21.3477273,
                "end_time": 21.4340909,
                "pitch": 35,
                "velocity": 101,
                "duration": 0.0863636,
                "tempo": 120.0
            },
            {
                "start_time": 21.5522727,
                "end_time": 21.6568182,
                "pitch": 36,
                "velocity": 101,
                "duration": 0.1045455,
                "tempo": 120.0
            },
            {
                "start_time": 21.7590909,
                "end_time": 21.7931818,
                "pitch": 35,
                "velocity": 101,
                "duration": 0.0340909,
                "tempo": 120.0
            },
            {
                "start_time": 22.3613636,
                "end_time": 22.4613636,
                "pitch": 31,
                "velocity": 101,
                "duration": 0.1,
                "tempo": 120.0
            },
            {
                "start_time": 22.5613636,
                "end_time": 22.5954545,
                "pitch": 29,
                "velocity": 101,
                "duration": 0.0340909,
                "tempo": 120.0
            },
            {
                "start_time": 22.6613636,
                "end_time": 22.6954545,
                "pitch": 29,
                "velocity": 101,
                "duration": 0.0340909,
                "tempo": 120.0
            },
            {
                "start_time": 22.7636364,
                "end_time": 22.7954545,
                "pitch": 29,
                "velocity": 101,
                "duration": 0.0318182,
                "tempo": 120.0
            },
            {
                "start_time": 23.1636364,
                "end_time": 23.1977273,
                "pitch": 33,
                "velocity": 101,
                "duration": 0.0340909,
                "tempo": 120.0
            },
            {
                "start_time": 23.3636364,
                "end_time": 23.3977273,
                "pitch": 31,
                "velocity": 101,
                "duration": 0.0340909,
                "tempo": 120.0
            },
            {
                "start_time": 24.0659091,
                "end_time": 24.15,
                "pitch": 29,
                "velocity": 101,
                "duration": 0.0840909,
                "tempo": 120.0
            },
            {
                "start_time": 24.2659091,
                "end_time": 24.2977273,
                "pitch": 29,
                "velocity": 101,
                "duration": 0.0318182,
                "tempo": 120.0
            },
            {
                "start_time": 24.3636364,
                "end_time": 24.3954545,
                "pitch": 29,
                "velocity": 101,
                "duration": 0.0318182,
                "tempo": 120.0
            },
            {
                "start_time": 24.5590909,
                "end_time": 24.6454545,
                "pitch": 31,
                "velocity": 101,
                "duration": 0.0863636,
                "tempo": 120.0
            },
            {
                "start_time": 24.7636364,
                "end_time": 24.8681818,
                "pitch": 33,
                "velocity": 101,
                "duration": 0.1045455,
                "tempo": 120.0
            },
            {
                "start_time": 24.9704545,
                "end_time": 25.0022727,
                "pitch": 31,
                "velocity": 101,
                "duration": 0.0318182,
                "tempo": 120.0
            },
            {
                "start_time": 25.1704545,
                "end_time": 25.5636364,
                "pitch": 36,
                "velocity": 101,
                "duration": 0.3931818,
                "tempo": 120.0
            },
            {
                "start_time": 25.5636364,
                "end_time": 25.7772727,
                "pitch": 35,
                "velocity": 101,
                "duration": 0.2136364,
                "tempo": 120.0
            },
            {
                "start_time": 25.7772727,
                "end_time": 25.8113636,
                "pitch": 33,
                "velocity": 101,
                "duration": 0.0340909,
                "tempo": 120.0
            },
            {
                "start_time": 25.8818182,
                "end_time": 25.9181818,
                "pitch": 33,
                "velocity": 101,
                "duration": 0.0363636,
                "tempo": 120.0
            },
            {
                "start_time": 25.9886364,
                "end_time": 26.0409091,
                "pitch": 33,
                "velocity": 101,
                "duration": 0.0522727,
                "tempo": 120.0
            },
            {
                "start_time": 26.4,
                "end_time": 26.4340909,
                "pitch": 36,
                "velocity": 101,
                "duration": 0.0340909,
                "tempo": 120.0
            },
            {
                "start_time": 26.6045455,
                "end_time": 26.6386364,
                "pitch": 35,
                "velocity": 101,
                "duration": 0.0340909,
                "tempo": 120.0
            },
            {
                "start_time": 26.9045455,
                "end_time": 27.3113636,
                "pitch": 31,
                "velocity": 101,
                "duration": 0.4068182,
                "tempo": 120.0
            },
            {
                "start_time": 27.3113636,
                "end_time": 27.5113636,
                "pitch": 33,
                "velocity": 101,
                "duration": 0.2,
                "tempo": 120.0
            },
            {
                "start_time": 27.5113636,
                "end_time": 27.5454545,
                "pitch": 33,
                "velocity": 101,
                "duration": 0.0340909,
                "tempo": 120.0
            },
            {
                "start_time": 27.6113636,
                "end_time": 27.6431818,
                "pitch": 33,
                "velocity": 101,
                "duration": 0.0318182,
                "tempo": 120.0
            },
            {
                "start_time": 27.8068182,
                "end_time": 27.8909091,
                "pitch": 35,
                "velocity": 101,
                "duration": 0.0840909,
                "tempo": 120.0
            },
            {
                "start_time": 28.0068182,
                "end_time": 28.1068182,
                "pitch": 36,
                "velocity": 101,
                "duration": 0.1,
                "tempo": 120.0
            },
            {
                "start_time": 28.2068182,
                "end_time": 28.2409091,
                "pitch": 35,
                "velocity": 101,
                "duration": 0.0340909,
                "tempo": 120.0
            },
            {
                "start_time": 28.8136364,
                "end_time": 28.9113636,
                "pitch": 31,
                "velocity": 101,
                "duration": 0.0977273,
                "tempo": 120.0
            },
            {
                "start_time": 29.0090909,
                "end_time": 29.0431818,
                "pitch": 29,
                "velocity": 101,
                "duration": 0.0340909,
                "tempo": 120.0
            },
            {
                "start_time": 29.1113636,
                "end_time": 29.1431818,
                "pitch": 29,
                "velocity": 101,
                "duration": 0.0318182,
                "tempo": 120.0
            },
            {
                "start_time": 29.2113636,
                "end_time": 29.2454545,
                "pitch": 29,
                "velocity": 101,
                "duration": 0.0340909,
                "tempo": 120.0
            },
            {
                "start_time": 29.6113636,
                "end_time": 29.6454545,
                "pitch": 33,
                "velocity": 101,
                "duration": 0.0340909,
                "tempo": 120.0
            },
            {
                "start_time": 29.8113636,
                "end_time": 29.8454545,
                "pitch": 31,
                "velocity": 101,
                "duration": 0.0340909,
                "tempo": 120.0
            },
            {
                "start_time": 30.5204545,
                "end_time": 30.6068182,
                "pitch": 29,
                "velocity": 101,
                "duration": 0.0863636,
                "tempo": 120.0
            },
            {
                "start_time": 30.7181818,
                "end_time": 30.75,
                "pitch": 29,
                "velocity": 101,
                "duration": 0.0318182,
                "tempo": 120.0
            },
            {
                "start_time": 30.8136364,
                "end_time": 30.8454545,
                "pitch": 29,
                "velocity": 101,
                "duration": 0.0318182,
                "tempo": 120.0
            },
            {
                "start_time": 31.0045455,
                "end_time": 31.0909091,
                "pitch": 31,
                "velocity": 101,
                "duration": 0.0863636,
                "tempo": 120.0
            },
            {
                "start_time": 31.2090909,
                "end_time": 31.3136364,
                "pitch": 33,
                "velocity": 101,
                "duration": 0.1045455,
                "tempo": 120.0
            },
            {
                "start_time": 31.4159091,
                "end_time": 31.45,
                "pitch": 31,
                "velocity": 101,
                "duration": 0.0340909,
                "tempo": 120.0
            },
            {
                "start_time": 31.6159091,
                "end_time": 31.9954545,
                "pitch": 36,
                "velocity": 101,
                "duration": 0.3795455,
                "tempo": 120.0
            },
            {
                "start_time": 31.9954545,
                "end_time": 32.1909091,
                "pitch": 35,
                "velocity": 101,
                "duration": 0.1954545,
                "tempo": 120.0
            },
            {
                "start_time": 32.1909091,
                "end_time": 32.2409091,
                "pitch": 33,
                "velocity": 101,
                "duration": 0.05,
                "tempo": 120.0
            },
            {
                "start_time": 32.2931818,
                "end_time": 32.3454545,
                "pitch": 33,
                "velocity": 101,
                "duration": 0.0522727,
                "tempo": 120.0
            },
            {
                "start_time": 32.3954545,
                "end_time": 32.4477273,
                "pitch": 33,
                "velocity": 101,
                "duration": 0.0522727,
                "tempo": 120.0
            },
            {
                "start_time": 32.8181818,
                "end_time": 32.8522727,
                "pitch": 36,
                "velocity": 101,
                "duration": 0.0340909,
                "tempo": 120.0
            },
            {
                "start_time": 33.0227273,
                "end_time": 33.0545455,
                "pitch": 35,
                "velocity": 101,
                "duration": 0.0318182,
                "tempo": 120.0
            },
            {
                "start_time": 33.3204545,
                "end_time": 33.7295455,
                "pitch": 31,
                "velocity": 101,
                "duration": 0.4090909,
                "tempo": 120.0
            },
            {
                "start_time": 33.7295455,
                "end_time": 33.9295455,
                "pitch": 33,
                "velocity": 101,
                "duration": 0.2,
                "tempo": 120.0
            },
            {
                "start_time": 33.9295455,
                "end_time": 33.9636364,
                "pitch": 33,
                "velocity": 101,
                "duration": 0.0340909,
                "tempo": 120.0
            },
            {
                "start_time": 34.0272727,
                "end_time": 34.0613636,
                "pitch": 33,
                "velocity": 101,
                "duration": 0.0340909,
                "tempo": 120.0
            },
            {
                "start_time": 34.225,
                "end_time": 34.3068182,
                "pitch": 35,
                "velocity": 101,
                "duration": 0.0818182,
                "tempo": 120.0
            },
            {
                "start_time": 34.425,
                "end_time": 34.525,
                "pitch": 36,
                "velocity": 101,
                "duration": 0.1,
                "tempo": 120.0
            },
            {
                "start_time": 34.625,
                "end_time": 34.6590909,
                "pitch": 35,
                "velocity": 101,
                "duration": 0.0340909,
                "tempo": 120.0
            },
            {
                "start_time": 35.2318182,
                "end_time": 35.3295455,
                "pitch": 31,
                "velocity": 101,
                "duration": 0.0977273,
                "tempo": 120.0
            },
            {
                "start_time": 35.4272727,
                "end_time": 35.4613636,
                "pitch": 29,
                "velocity": 101,
                "duration": 0.0340909,
                "tempo": 120.0
            },
            {
                "start_time": 35.5272727,
                "end_time": 35.5613636,
                "pitch": 29,
                "velocity": 101,
                "duration": 0.0340909,
                "tempo": 120.0
            },
            {
                "start_time": 35.6272727,
                "end_time": 35.6613636,
                "pitch": 29,
                "velocity": 101,
                "duration": 0.0340909,
                "tempo": 120.0
            },
            {
                "start_time": 36.0318182,
                "end_time": 36.0659091,
                "pitch": 33,
                "velocity": 101,
                "duration": 0.0340909,
                "tempo": 120.0
            },
            {
                "start_time": 36.2386364,
                "end_time": 36.2704545,
                "pitch": 31,
                "velocity": 101,
                "duration": 0.0318182,
                "tempo": 120.0
            },
            {
                "start_time": 36.9386364,
                "end_time": 37.0227273,
                "pitch": 29,
                "velocity": 101,
                "duration": 0.0840909,
                "tempo": 120.0
            },
            {
                "start_time": 37.1363636,
                "end_time": 37.1681818,
                "pitch": 29,
                "velocity": 101,
                "duration": 0.0318182,
                "tempo": 120.0
            },
            {
                "start_time": 37.2318182,
                "end_time": 37.2636364,
                "pitch": 29,
                "velocity": 101,
                "duration": 0.0318182,
                "tempo": 120.0
            },
            {
                "start_time": 37.4227273,
                "end_time": 37.525,
                "pitch": 31,
                "velocity": 101,
                "duration": 0.1022727,
                "tempo": 120.0
            },
            {
                "start_time": 37.6272727,
                "end_time": 37.7136364,
                "pitch": 33,
                "velocity": 101,
                "duration": 0.0863636,
                "tempo": 120.0
            },
            {
                "start_time": 37.8340909,
                "end_time": 37.8659091,
                "pitch": 31,
                "velocity": 101,
                "duration": 0.0318182,
                "tempo": 120.0
            },
            {
                "start_time": 38.0340909,
                "end_time": 38.4113636,
                "pitch": 36,
                "velocity": 101,
                "duration": 0.3772727,
                "tempo": 120.0
            },
            {
                "start_time": 38.4272727,
                "end_time": 38.6227273,
                "pitch": 35,
                "velocity": 101,
                "duration": 0.1954545,
                "tempo": 120.0
            },
            {
                "start_time": 38.6227273,
                "end_time": 38.675,
                "pitch": 33,
                "velocity": 101,
                "duration": 0.0522727,
                "tempo": 120.0
            },
            {
                "start_time": 38.7272727,
                "end_time": 38.7772727,
                "pitch": 33,
                "velocity": 101,
                "duration": 0.05,
                "tempo": 120.0
            },
            {
                "start_time": 38.8295455,
                "end_time": 38.8795455,
                "pitch": 33,
                "velocity": 101,
                "duration": 0.05,
                "tempo": 120.0
            },
            {
                "start_time": 39.2340909,
                "end_time": 39.2840909,
                "pitch": 36,
                "velocity": 101,
                "duration": 0.05,
                "tempo": 120.0
            },
            {
                "start_time": 39.4340909,
                "end_time": 39.4840909,
                "pitch": 35,
                "velocity": 101,
                "duration": 0.05,
                "tempo": 120.0
            },
            {
                "start_time": 39.7340909,
                "end_time": 40.1431818,
                "pitch": 31,
                "velocity": 101,
                "duration": 0.4090909,
                "tempo": 120.0
            },
            {
                "start_time": 40.1431818,
                "end_time": 40.3409091,
                "pitch": 33,
                "velocity": 101,
                "duration": 0.1977273,
                "tempo": 120.0
            },
            {
                "start_time": 40.3409091,
                "end_time": 40.3886364,
                "pitch": 33,
                "velocity": 101,
                "duration": 0.0477273,
                "tempo": 120.0
            },
            {
                "start_time": 40.4363636,
                "end_time": 40.4840909,
                "pitch": 33,
                "velocity": 101,
                "duration": 0.0477273,
                "tempo": 120.0
            },
            {
                "start_time": 40.6272727,
                "end_time": 40.7295455,
                "pitch": 35,
                "velocity": 101,
                "duration": 0.1022727,
                "tempo": 120.0
            },
            {
                "start_time": 40.8318182,
                "end_time": 40.9340909,
                "pitch": 36,
                "velocity": 101,
                "duration": 0.1022727,
                "tempo": 120.0
            },
            {
                "start_time": 41.0409091,
                "end_time": 41.075,
                "pitch": 35,
                "velocity": 101,
                "duration": 0.0340909,
                "tempo": 120.0
            },
            {
                "start_time": 41.65,
                "end_time": 41.75,
                "pitch": 31,
                "velocity": 101,
                "duration": 0.1,
                "tempo": 120.0
            },
            {
                "start_time": 41.85,
                "end_time": 41.8840909,
                "pitch": 29,
                "velocity": 101,
                "duration": 0.0340909,
                "tempo": 120.0
            },
            {
                "start_time": 41.95,
                "end_time": 41.9840909,
                "pitch": 29,
                "velocity": 101,
                "duration": 0.0340909,
                "tempo": 120.0
            },
            {
                "start_time": 42.05,
                "end_time": 42.0840909,
                "pitch": 29,
                "velocity": 101,
                "duration": 0.0340909,
                "tempo": 120.0
            },
            {
                "start_time": 42.4477273,
                "end_time": 42.4795455,
                "pitch": 33,
                "velocity": 101,
                "duration": 0.0318182,
                "tempo": 120.0
            },
            {
                "start_time": 42.6431818,
                "end_time": 42.6772727,
                "pitch": 31,
                "velocity": 101,
                "duration": 0.0340909,
                "tempo": 120.0
            },
            {
                "start_time": 43.3545455,
                "end_time": 43.4568182,
                "pitch": 29,
                "velocity": 101,
                "duration": 0.1022727,
                "tempo": 120.0
            },
            {
                "start_time": 43.5545455,
                "end_time": 43.5863636,
                "pitch": 29,
                "velocity": 101,
                "duration": 0.0318182,
                "tempo": 120.0
            },
            {
                "start_time": 43.6522727,
                "end_time": 43.6840909,
                "pitch": 29,
                "velocity": 101,
                "duration": 0.0318182,
                "tempo": 120.0
            },
            {
                "start_time": 43.8477273,
                "end_time": 43.9477273,
                "pitch": 31,
                "velocity": 101,
                "duration": 0.1,
                "tempo": 120.0
            },
            {
                "start_time": 44.0477273,
                "end_time": 44.1477273,
                "pitch": 33,
                "velocity": 101,
                "duration": 0.1,
                "tempo": 120.0
            },
            {
                "start_time": 44.2477273,
                "end_time": 44.3,
                "pitch": 31,
                "velocity": 101,
                "duration": 0.0522727,
                "tempo": 120.0
            },
            {
                "start_time": 44.4545455,
                "end_time": 44.8545455,
                "pitch": 36,
                "velocity": 101,
                "duration": 0.4,
                "tempo": 120.0
            },
            {
                "start_time": 44.8545455,
                "end_time": 45.0522727,
                "pitch": 35,
                "velocity": 101,
                "duration": 0.1977273,
                "tempo": 120.0
            },
            {
                "start_time": 45.0522727,
                "end_time": 45.1022727,
                "pitch": 33,
                "velocity": 101,
                "duration": 0.05,
                "tempo": 120.0
            },
            {
                "start_time": 45.1522727,
                "end_time": 45.2022727,
                "pitch": 33,
                "velocity": 101,
                "duration": 0.05,
                "tempo": 120.0
            },
            {
                "start_time": 45.2522727,
                "end_time": 45.3022727,
                "pitch": 33,
                "velocity": 101,
                "duration": 0.05,
                "tempo": 120.0
            },
            {
                "start_time": 45.6522727,
                "end_time": 45.7022727,
                "pitch": 36,
                "velocity": 101,
                "duration": 0.05,
                "tempo": 120.0
            },
            {
                "start_time": 45.8522727,
                "end_time": 45.9022727,
                "pitch": 35,
                "velocity": 101,
                "duration": 0.05,
                "tempo": 120.0
            },
            {
                "start_time": 46.1522727,
                "end_time": 46.5590909,
                "pitch": 31,
                "velocity": 101,
                "duration": 0.4068182,
                "tempo": 120.0
            },
            {
                "start_time": 46.5590909,
                "end_time": 46.7590909,
                "pitch": 33,
                "velocity": 101,
                "duration": 0.2,
                "tempo": 120.0
            },
            {
                "start_time": 46.7590909,
                "end_time": 46.8090909,
                "pitch": 33,
                "velocity": 101,
                "duration": 0.05,
                "tempo": 120.0
            },
            {
                "start_time": 46.8590909,
                "end_time": 46.9068182,
                "pitch": 33,
                "velocity": 101,
                "duration": 0.0477273,
                "tempo": 120.0
            },
            {
                "start_time": 47.0545455,
                "end_time": 47.1545455,
                "pitch": 35,
                "velocity": 101,
                "duration": 0.1,
                "tempo": 120.0
            },
            {
                "start_time": 47.2545455,
                "end_time": 47.3545455,
                "pitch": 36,
                "velocity": 101,
                "duration": 0.1,
                "tempo": 120.0
            },
            {
                "start_time": 47.4545455,
                "end_time": 47.4886364,
                "pitch": 35,
                "velocity": 101,
                "duration": 0.0340909,
                "tempo": 120.0
            },
            {
                "start_time": 48.0659091,
                "end_time": 48.1659091,
                "pitch": 31,
                "velocity": 101,
                "duration": 0.1,
                "tempo": 120.0
            },
            {
                "start_time": 48.2659091,
                "end_time": 48.3,
                "pitch": 29,
                "velocity": 101,
                "duration": 0.0340909,
                "tempo": 120.0
            },
            {
                "start_time": 48.3659091,
                "end_time": 48.4,
                "pitch": 29,
                "velocity": 101,
                "duration": 0.0340909,
                "tempo": 120.0
            },
            {
                "start_time": 48.4659091,
                "end_time": 48.5,
                "pitch": 29,
                "velocity": 101,
                "duration": 0.0340909,
                "tempo": 120.0
            },
            {
                "start_time": 48.8636364,
                "end_time": 48.8977273,
                "pitch": 33,
                "velocity": 101,
                "duration": 0.0340909,
                "tempo": 120.0
            },
            {
                "start_time": 49.0613636,
                "end_time": 49.0954545,
                "pitch": 31,
                "velocity": 101,
                "duration": 0.0340909,
                "tempo": 120.0
            },
            {
                "start_time": 49.7704545,
                "end_time": 49.8704545,
                "pitch": 29,
                "velocity": 101,
                "duration": 0.1,
                "tempo": 120.0
            },
            {
                "start_time": 49.9681818,
                "end_time": 50.0022727,
                "pitch": 29,
                "velocity": 101,
                "duration": 0.0340909,
                "tempo": 120.0
            },
            {
                "start_time": 50.0681818,
                "end_time": 50.1,
                "pitch": 29,
                "velocity": 101,
                "duration": 0.0318182,
                "tempo": 120.0
            },
            {
                "start_time": 50.2636364,
                "end_time": 50.3636364,
                "pitch": 31,
                "velocity": 101,
                "duration": 0.1,
                "tempo": 120.0
            },
            {
                "start_time": 50.4636364,
                "end_time": 50.5636364,
                "pitch": 33,
                "velocity": 101,
                "duration": 0.1,
                "tempo": 120.0
            },
            {
                "start_time": 50.6636364,
                "end_time": 50.7136364,
                "pitch": 31,
                "velocity": 101,
                "duration": 0.05,
                "tempo": 120.0
            },
            {
                "start_time": 50.8681818,
                "end_time": 51.2704545,
                "pitch": 41,
                "velocity": 101,
                "duration": 0.4022727,
                "tempo": 120.0
            },
            {
                "start_time": 51.2704545,
                "end_time": 51.4659091,
                "pitch": 41,
                "velocity": 101,
                "duration": 0.1954545,
                "tempo": 120.0
            },
            {
                "start_time": 51.4659091,
                "end_time": 51.7659091,
                "pitch": 40,
                "velocity": 101,
                "duration": 0.3,
                "tempo": 120.0
            },
            {
                "start_time": 52.0659091,
                "end_time": 52.2159091,
                "pitch": 36,
                "velocity": 101,
                "duration": 0.15,
                "tempo": 120.0
            },
            {
                "start_time": 52.2659091,
                "end_time": 52.35,
                "pitch": 38,
                "velocity": 101,
                "duration": 0.0840909,
                "tempo": 120.0
            },
            {
                "start_time": 52.4659091,
                "end_time": 52.6159091,
                "pitch": 31,
                "velocity": 101,
                "duration": 0.15,
                "tempo": 120.0
            },
            {
                "start_time": 52.6659091,
                "end_time": 52.8204545,
                "pitch": 33,
                "velocity": 101,
                "duration": 0.1545455,
                "tempo": 120.0
            },
            {
                "start_time": 52.8704545,
                "end_time": 53.025,
                "pitch": 36,
                "velocity": 101,
                "duration": 0.1545455,
                "tempo": 120.0
            },
            {
                "start_time": 53.2727273,
                "end_time": 53.3545455,
                "pitch": 38,
                "velocity": 101,
                "duration": 0.0818182,
                "tempo": 120.0
            },
            {
                "start_time": 53.675,
                "end_time": 53.7431818,
                "pitch": 36,
                "velocity": 101,
                "duration": 0.0681818,
                "tempo": 120.0
            },
            {
                "start_time": 53.8818182,
                "end_time": 54.1795455,
                "pitch": 38,
                "velocity": 101,
                "duration": 0.2977273,
                "tempo": 120.0
            },
            {
                "start_time": 54.2795455,
                "end_time": 54.5818182,
                "pitch": 40,
                "velocity": 101,
                "duration": 0.3022727,
                "tempo": 120.0
            },
            {
                "start_time": 54.6818182,
                "end_time": 54.8159091,
                "pitch": 36,
                "velocity": 101,
                "duration": 0.1340909,
                "tempo": 120.0
            },
            {
                "start_time": 54.8840909,
                "end_time": 55.0159091,
                "pitch": 33,
                "velocity": 101,
                "duration": 0.1318182,
                "tempo": 120.0
            },
            {
                "start_time": 55.0840909,
                "end_time": 55.15,
                "pitch": 33,
                "velocity": 101,
                "duration": 0.0659091,
                "tempo": 120.0
            },
            {
                "start_time": 55.2840909,
                "end_time": 55.35,
                "pitch": 31,
                "velocity": 101,
                "duration": 0.0659091,
                "tempo": 120.0
            },
            {
                "start_time": 55.3840909,
                "end_time": 55.45,
                "pitch": 33,
                "velocity": 101,
                "duration": 0.0659091,
                "tempo": 120.0
            },
            {
                "start_time": 56.075,
                "end_time": 56.1409091,
                "pitch": 36,
                "velocity": 101,
                "duration": 0.0659091,
                "tempo": 120.0
            },
            {
                "start_time": 56.175,
                "end_time": 56.2409091,
                "pitch": 38,
                "velocity": 101,
                "duration": 0.0659091,
                "tempo": 120.0
            },
            {
                "start_time": 56.275,
                "end_time": 56.4090909,
                "pitch": 40,
                "velocity": 101,
                "duration": 0.1340909,
                "tempo": 120.0
            },
            {
                "start_time": 56.675,
                "end_time": 56.8977273,
                "pitch": 38,
                "velocity": 101,
                "duration": 0.2227273,
                "tempo": 120.0
            },
            {
                "start_time": 56.9840909,
                "end_time": 57.0522727,
                "pitch": 36,
                "velocity": 101,
                "duration": 0.0681818,
                "tempo": 120.0
            },
            {
                "start_time": 57.0863636,
                "end_time": 57.2204545,
                "pitch": 38,
                "velocity": 101,
                "duration": 0.1340909,
                "tempo": 120.0
            },
            {
                "start_time": 57.2863636,
                "end_time": 57.4204545,
                "pitch": 36,
                "velocity": 101,
                "duration": 0.1340909,
                "tempo": 120.0
            },
            {
                "start_time": 57.4863636,
                "end_time": 57.6204545,
                "pitch": 33,
                "velocity": 101,
                "duration": 0.1340909,
                "tempo": 120.0
            },
            {
                "start_time": 57.6863636,
                "end_time": 57.8204545,
                "pitch": 36,
                "velocity": 101,
                "duration": 0.1340909,
                "tempo": 120.0
            },
            {
                "start_time": 57.8863636,
                "end_time": 58.1863636,
                "pitch": 38,
                "velocity": 101,
                "duration": 0.3,
                "tempo": 120.0
            },
            {
                "start_time": 58.4818182,
                "end_time": 58.6136364,
                "pitch": 36,
                "velocity": 101,
                "duration": 0.1318182,
                "tempo": 120.0
            },
            {
                "start_time": 58.6795455,
                "end_time": 58.7477273,
                "pitch": 38,
                "velocity": 101,
                "duration": 0.0681818,
                "tempo": 120.0
            },
            {
                "start_time": 58.8840909,
                "end_time": 59.0204545,
                "pitch": 31,
                "velocity": 101,
                "duration": 0.1363636,
                "tempo": 120.0
            },
            {
                "start_time": 59.0886364,
                "end_time": 59.2227273,
                "pitch": 33,
                "velocity": 101,
                "duration": 0.1340909,
                "tempo": 120.0
            },
            {
                "start_time": 59.2886364,
                "end_time": 59.4227273,
                "pitch": 36,
                "velocity": 101,
                "duration": 0.1340909,
                "tempo": 120.0
            },
            {
                "start_time": 59.6886364,
                "end_time": 59.7568182,
                "pitch": 38,
                "velocity": 101,
                "duration": 0.0681818,
                "tempo": 120.0
            },
            {
                "start_time": 60.0886364,
                "end_time": 60.1568182,
                "pitch": 36,
                "velocity": 101,
                "duration": 0.0681818,
                "tempo": 120.0
            },
            {
                "start_time": 60.2909091,
                "end_time": 60.5909091,
                "pitch": 38,
                "velocity": 101,
                "duration": 0.3,
                "tempo": 120.0
            },
            {
                "start_time": 60.6931818,
                "end_time": 60.9931818,
                "pitch": 40,
                "velocity": 101,
                "duration": 0.3,
                "tempo": 120.0
            },
            {
                "start_time": 61.0931818,
                "end_time": 61.3090909,
                "pitch": 40,
                "velocity": 101,
                "duration": 0.2159091,
                "tempo": 120.0
            },
            {
                "start_time": 61.3931818,
                "end_time": 61.4590909,
                "pitch": 40,
                "velocity": 101,
                "duration": 0.0659091,
                "tempo": 120.0
            },
            {
                "start_time": 61.4931818,
                "end_time": 61.625,
                "pitch": 35,
                "velocity": 101,
                "duration": 0.1318182,
                "tempo": 120.0
            },
            {
                "start_time": 61.6931818,
                "end_time": 61.825,
                "pitch": 40,
                "velocity": 101,
                "duration": 0.1318182,
                "tempo": 120.0
            },
            {
                "start_time": 62.0931818,
                "end_time": 62.225,
                "pitch": 36,
                "velocity": 101,
                "duration": 0.1318182,
                "tempo": 120.0
            },
            {
                "start_time": 62.2931818,
                "end_time": 62.4272727,
                "pitch": 38,
                "velocity": 101,
                "duration": 0.1340909,
                "tempo": 120.0
            },
            {
                "start_time": 62.4931818,
                "end_time": 62.6454545,
                "pitch": 39,
                "velocity": 101,
                "duration": 0.1522727,
                "tempo": 120.0
            },
            {
                "start_time": 62.6954545,
                "end_time": 62.9272727,
                "pitch": 40,
                "velocity": 101,
                "duration": 0.2318182,
                "tempo": 120.0
            },
            {
                "start_time": 62.9954545,
                "end_time": 63.0772727,
                "pitch": 40,
                "velocity": 101,
                "duration": 0.0818182,
                "tempo": 120.0
            },
            {
                "start_time": 63.0954545,
                "end_time": 63.2454545,
                "pitch": 35,
                "velocity": 101,
                "duration": 0.15,
                "tempo": 120.0
            },
            {
                "start_time": 63.2954545,
                "end_time": 63.4454545,
                "pitch": 40,
                "velocity": 101,
                "duration": 0.15,
                "tempo": 120.0
            },
            {
                "start_time": 63.6954545,
                "end_time": 63.8454545,
                "pitch": 38,
                "velocity": 101,
                "duration": 0.15,
                "tempo": 120.0
            },
            {
                "start_time": 63.8954545,
                "end_time": 64.0409091,
                "pitch": 36,
                "velocity": 101,
                "duration": 0.1454545,
                "tempo": 120.0
            },
            {
                "start_time": 64.0909091,
                "end_time": 64.2386364,
                "pitch": 35,
                "velocity": 101,
                "duration": 0.1477273,
                "tempo": 120.0
            },
            {
                "start_time": 64.2863636,
                "end_time": 64.3386364,
                "pitch": 33,
                "velocity": 101,
                "duration": 0.0522727,
                "tempo": 120.0
            },
            {
                "start_time": 64.3886364,
                "end_time": 64.4409091,
                "pitch": 33,
                "velocity": 101,
                "duration": 0.0522727,
                "tempo": 120.0
            },
            {
                "start_time": 64.4931818,
                "end_time": 64.5431818,
                "pitch": 33,
                "velocity": 101,
                "duration": 0.05,
                "tempo": 120.0
            },
            {
                "start_time": 64.8977273,
                "end_time": 64.9477273,
                "pitch": 36,
                "velocity": 101,
                "duration": 0.05,
                "tempo": 120.0
            },
            {
                "start_time": 65.1,
                "end_time": 65.1318182,
                "pitch": 35,
                "velocity": 101,
                "duration": 0.0318182,
                "tempo": 120.0
            },
            {
                "start_time": 65.4,
                "end_time": 65.8022727,
                "pitch": 31,
                "velocity": 101,
                "duration": 0.4022727,
                "tempo": 120.0
            },
            {
                "start_time": 65.8022727,
                "end_time": 66.0022727,
                "pitch": 33,
                "velocity": 101,
                "duration": 0.2,
                "tempo": 120.0
            },
            {
                "start_time": 66.0022727,
                "end_time": 66.0340909,
                "pitch": 33,
                "velocity": 101,
                "duration": 0.0318182,
                "tempo": 120.0
            },
            {
                "start_time": 66.1,
                "end_time": 66.1318182,
                "pitch": 33,
                "velocity": 101,
                "duration": 0.0318182,
                "tempo": 120.0
            },
            {
                "start_time": 66.2954545,
                "end_time": 66.3795455,
                "pitch": 35,
                "velocity": 101,
                "duration": 0.0840909,
                "tempo": 120.0
            },
            {
                "start_time": 66.4954545,
                "end_time": 66.5954545,
                "pitch": 36,
                "velocity": 101,
                "duration": 0.1,
                "tempo": 120.0
            },
            {
                "start_time": 66.6977273,
                "end_time": 66.7318182,
                "pitch": 35,
                "velocity": 101,
                "duration": 0.0340909,
                "tempo": 120.0
            },
            {
                "start_time": 67.3090909,
                "end_time": 67.4090909,
                "pitch": 31,
                "velocity": 101,
                "duration": 0.1,
                "tempo": 120.0
            },
            {
                "start_time": 67.5090909,
                "end_time": 67.5431818,
                "pitch": 29,
                "velocity": 101,
                "duration": 0.0340909,
                "tempo": 120.0
            },
            {
                "start_time": 67.6090909,
                "end_time": 67.6431818,
                "pitch": 29,
                "velocity": 101,
                "duration": 0.0340909,
                "tempo": 120.0
            },
            {
                "start_time": 67.7113636,
                "end_time": 67.7454545,
                "pitch": 29,
                "velocity": 101,
                "duration": 0.0340909,
                "tempo": 120.0
            },
            {
                "start_time": 68.1113636,
                "end_time": 68.1454545,
                "pitch": 33,
                "velocity": 101,
                "duration": 0.0340909,
                "tempo": 120.0
            },
            {
                "start_time": 68.3113636,
                "end_time": 68.3454545,
                "pitch": 31,
                "velocity": 101,
                "duration": 0.0340909,
                "tempo": 120.0
            },
            {
                "start_time": 69.0159091,
                "end_time": 69.0977273,
                "pitch": 29,
                "velocity": 101,
                "duration": 0.0818182,
                "tempo": 120.0
            },
            {
                "start_time": 69.2136364,
                "end_time": 69.2454545,
                "pitch": 29,
                "velocity": 101,
                "duration": 0.0318182,
                "tempo": 120.0
            },
            {
                "start_time": 69.3113636,
                "end_time": 69.3431818,
                "pitch": 29,
                "velocity": 101,
                "duration": 0.0318182,
                "tempo": 120.0
            },
            {
                "start_time": 69.5068182,
                "end_time": 69.6090909,
                "pitch": 31,
                "velocity": 101,
                "duration": 0.1022727,
                "tempo": 120.0
            },
            {
                "start_time": 69.7113636,
                "end_time": 69.8159091,
                "pitch": 33,
                "velocity": 101,
                "duration": 0.1045455,
                "tempo": 120.0
            },
            {
                "start_time": 69.9181818,
                "end_time": 69.9681818,
                "pitch": 31,
                "velocity": 101,
                "duration": 0.05,
                "tempo": 120.0
            },
            {
                "start_time": 70.1181818,
                "end_time": 70.5181818,
                "pitch": 36,
                "velocity": 101,
                "duration": 0.4,
                "tempo": 120.0
            },
            {
                "start_time": 70.5181818,
                "end_time": 70.7204545,
                "pitch": 35,
                "velocity": 101,
                "duration": 0.2022727,
                "tempo": 120.0
            },
            {
                "start_time": 70.7204545,
                "end_time": 70.7704545,
                "pitch": 33,
                "velocity": 101,
                "duration": 0.05,
                "tempo": 120.0
            },
            {
                "start_time": 70.8204545,
                "end_time": 70.8704545,
                "pitch": 33,
                "velocity": 101,
                "duration": 0.05,
                "tempo": 120.0
            },
            {
                "start_time": 70.9204545,
                "end_time": 70.9704545,
                "pitch": 33,
                "velocity": 101,
                "duration": 0.05,
                "tempo": 120.0
            },
            {
                "start_time": 71.3227273,
                "end_time": 71.3727273,
                "pitch": 36,
                "velocity": 101,
                "duration": 0.05,
                "tempo": 120.0
            },
            {
                "start_time": 71.525,
                "end_time": 71.5568182,
                "pitch": 35,
                "velocity": 101,
                "duration": 0.0318182,
                "tempo": 120.0
            },
            {
                "start_time": 71.825,
                "end_time": 72.2272727,
                "pitch": 31,
                "velocity": 101,
                "duration": 0.4022727,
                "tempo": 120.0
            },
            {
                "start_time": 72.2272727,
                "end_time": 72.425,
                "pitch": 33,
                "velocity": 101,
                "duration": 0.1977273,
                "tempo": 120.0
            },
            {
                "start_time": 72.425,
                "end_time": 72.4568182,
                "pitch": 33,
                "velocity": 101,
                "duration": 0.0318182,
                "tempo": 120.0
            },
            {
                "start_time": 72.5227273,
                "end_time": 72.5545455,
                "pitch": 33,
                "velocity": 101,
                "duration": 0.0318182,
                "tempo": 120.0
            },
            {
                "start_time": 72.7181818,
                "end_time": 72.8045455,
                "pitch": 35,
                "velocity": 101,
                "duration": 0.0863636,
                "tempo": 120.0
            },
            {
                "start_time": 72.9227273,
                "end_time": 73.0272727,
                "pitch": 36,
                "velocity": 101,
                "duration": 0.1045455,
                "tempo": 120.0
            },
            {
                "start_time": 73.1295455,
                "end_time": 73.1636364,
                "pitch": 35,
                "velocity": 101,
                "duration": 0.0340909,
                "tempo": 120.0
            },
            {
                "start_time": 73.7340909,
                "end_time": 73.8340909,
                "pitch": 31,
                "velocity": 101,
                "duration": 0.1,
                "tempo": 120.0
            },
            {
                "start_time": 73.9340909,
                "end_time": 73.9681818,
                "pitch": 29,
                "velocity": 101,
                "duration": 0.0340909,
                "tempo": 120.0
            },
            {
                "start_time": 74.0340909,
                "end_time": 74.0681818,
                "pitch": 29,
                "velocity": 101,
                "duration": 0.0340909,
                "tempo": 120.0
            },
            {
                "start_time": 74.1340909,
                "end_time": 74.1681818,
                "pitch": 29,
                "velocity": 101,
                "duration": 0.0340909,
                "tempo": 120.0
            },
            {
                "start_time": 74.5363636,
                "end_time": 74.5704545,
                "pitch": 33,
                "velocity": 101,
                "duration": 0.0340909,
                "tempo": 120.0
            },
            {
                "start_time": 74.7363636,
                "end_time": 74.7704545,
                "pitch": 31,
                "velocity": 101,
                "duration": 0.0340909,
                "tempo": 120.0
            },
            {
                "start_time": 75.4386364,
                "end_time": 75.5227273,
                "pitch": 29,
                "velocity": 101,
                "duration": 0.0840909,
                "tempo": 120.0
            },
            {
                "start_time": 75.6386364,
                "end_time": 75.6704545,
                "pitch": 29,
                "velocity": 101,
                "duration": 0.0318182,
                "tempo": 120.0
            },
            {
                "start_time": 75.7363636,
                "end_time": 75.7681818,
                "pitch": 29,
                "velocity": 101,
                "duration": 0.0318182,
                "tempo": 120.0
            },
            {
                "start_time": 75.9318182,
                "end_time": 76.0318182,
                "pitch": 31,
                "velocity": 101,
                "duration": 0.1,
                "tempo": 120.0
            },
            {
                "start_time": 76.1340909,
                "end_time": 76.2340909,
                "pitch": 33,
                "velocity": 101,
                "duration": 0.1,
                "tempo": 120.0
            },
            {
                "start_time": 76.3340909,
                "end_time": 76.3863636,
                "pitch": 31,
                "velocity": 101,
                "duration": 0.0522727,
                "tempo": 120.0
            },
            {
                "start_time": 76.5409091,
                "end_time": 76.9454545,
                "pitch": 36,
                "velocity": 101,
                "duration": 0.4045455,
                "tempo": 120.0
            },
            {
                "start_time": 76.9454545,
                "end_time": 77.1454545,
                "pitch": 35,
                "velocity": 101,
                "duration": 0.2,
                "tempo": 120.0
            },
            {
                "start_time": 77.1454545,
                "end_time": 77.1954545,
                "pitch": 33,
                "velocity": 101,
                "duration": 0.05,
                "tempo": 120.0
            },
            {
                "start_time": 77.2454545,
                "end_time": 77.2977273,
                "pitch": 33,
                "velocity": 101,
                "duration": 0.0522727,
                "tempo": 120.0
            },
            {
                "start_time": 77.3477273,
                "end_time": 77.3977273,
                "pitch": 33,
                "velocity": 101,
                "duration": 0.05,
                "tempo": 120.0
            },
            {
                "start_time": 77.7454545,
                "end_time": 77.7931818,
                "pitch": 36,
                "velocity": 101,
                "duration": 0.0477273,
                "tempo": 120.0
            },
            {
                "start_time": 77.9409091,
                "end_time": 77.9909091,
                "pitch": 35,
                "velocity": 101,
                "duration": 0.05,
                "tempo": 120.0
            },
            {
                "start_time": 78.2431818,
                "end_time": 78.6522727,
                "pitch": 31,
                "velocity": 101,
                "duration": 0.4090909,
                "tempo": 120.0
            },
            {
                "start_time": 78.6522727,
                "end_time": 78.8522727,
                "pitch": 33,
                "velocity": 101,
                "duration": 0.2,
                "tempo": 120.0
            },
            {
                "start_time": 78.8522727,
                "end_time": 78.9,
                "pitch": 33,
                "velocity": 101,
                "duration": 0.0477273,
                "tempo": 120.0
            },
            {
                "start_time": 78.95,
                "end_time": 79.0,
                "pitch": 33,
                "velocity": 101,
                "duration": 0.05,
                "tempo": 120.0
            },
            {
                "start_time": 79.1454545,
                "end_time": 79.2454545,
                "pitch": 35,
                "velocity": 101,
                "duration": 0.1,
                "tempo": 120.0
            },
            {
                "start_time": 79.3454545,
                "end_time": 79.4454545,
                "pitch": 36,
                "velocity": 101,
                "duration": 0.1,
                "tempo": 120.0
            },
            {
                "start_time": 79.5454545,
                "end_time": 79.5977273,
                "pitch": 35,
                "velocity": 101,
                "duration": 0.0522727,
                "tempo": 120.0
            },
            {
                "start_time": 80.1568182,
                "end_time": 80.2568182,
                "pitch": 31,
                "velocity": 101,
                "duration": 0.1,
                "tempo": 120.0
            },
            {
                "start_time": 80.3568182,
                "end_time": 80.4068182,
                "pitch": 29,
                "velocity": 101,
                "duration": 0.05,
                "tempo": 120.0
            },
            {
                "start_time": 80.4568182,
                "end_time": 80.5090909,
                "pitch": 29,
                "velocity": 101,
                "duration": 0.0522727,
                "tempo": 120.0
            },
            {
                "start_time": 80.5590909,
                "end_time": 80.6090909,
                "pitch": 29,
                "velocity": 101,
                "duration": 0.05,
                "tempo": 120.0
            },
            {
                "start_time": 80.9590909,
                "end_time": 81.0090909,
                "pitch": 33,
                "velocity": 101,
                "duration": 0.05,
                "tempo": 120.0
            },
            {
                "start_time": 81.1590909,
                "end_time": 81.2113636,
                "pitch": 31,
                "velocity": 101,
                "duration": 0.0522727,
                "tempo": 120.0
            },
            {
                "start_time": 81.8636364,
                "end_time": 81.9659091,
                "pitch": 29,
                "velocity": 101,
                "duration": 0.1022727,
                "tempo": 120.0
            },
            {
                "start_time": 82.0636364,
                "end_time": 82.1113636,
                "pitch": 29,
                "velocity": 101,
                "duration": 0.0477273,
                "tempo": 120.0
            },
            {
                "start_time": 82.1613636,
                "end_time": 82.2090909,
                "pitch": 29,
                "velocity": 101,
                "duration": 0.0477273,
                "tempo": 120.0
            },
            {
                "start_time": 82.3568182,
                "end_time": 82.4590909,
                "pitch": 31,
                "velocity": 101,
                "duration": 0.1022727,
                "tempo": 120.0
            },
            {
                "start_time": 82.5636364,
                "end_time": 82.6659091,
                "pitch": 33,
                "velocity": 101,
                "duration": 0.1022727,
                "tempo": 120.0
            },
            {
                "start_time": 82.7681818,
                "end_time": 82.8181818,
                "pitch": 31,
                "velocity": 101,
                "duration": 0.05,
                "tempo": 120.0
            },
            {
                "start_time": 82.9681818,
                "end_time": 83.3704545,
                "pitch": 36,
                "velocity": 101,
                "duration": 0.4022727,
                "tempo": 120.0
            },
            {
                "start_time": 83.3704545,
                "end_time": 83.5704545,
                "pitch": 35,
                "velocity": 101,
                "duration": 0.2,
                "tempo": 120.0
            },
            {
                "start_time": 83.5704545,
                "end_time": 83.6204545,
                "pitch": 33,
                "velocity": 101,
                "duration": 0.05,
                "tempo": 120.0
            },
            {
                "start_time": 83.6704545,
                "end_time": 83.7227273,
                "pitch": 33,
                "velocity": 101,
                "duration": 0.0522727,
                "tempo": 120.0
            },
            {
                "start_time": 83.7727273,
                "end_time": 83.8227273,
                "pitch": 33,
                "velocity": 101,
                "duration": 0.05,
                "tempo": 120.0
            },
            {
                "start_time": 84.1704545,
                "end_time": 84.2181818,
                "pitch": 36,
                "velocity": 101,
                "duration": 0.0477273,
                "tempo": 120.0
            },
            {
                "start_time": 84.3659091,
                "end_time": 84.4159091,
                "pitch": 35,
                "velocity": 101,
                "duration": 0.05,
                "tempo": 120.0
            },
            {
                "start_time": 84.6727273,
                "end_time": 85.0772727,
                "pitch": 31,
                "velocity": 101,
                "duration": 0.4045455,
                "tempo": 120.0
            },
            {
                "start_time": 85.0772727,
                "end_time": 85.275,
                "pitch": 33,
                "velocity": 101,
                "duration": 0.1977273,
                "tempo": 120.0
            },
            {
                "start_time": 85.275,
                "end_time": 85.3227273,
                "pitch": 33,
                "velocity": 101,
                "duration": 0.0477273,
                "tempo": 120.0
            },
            {
                "start_time": 85.3727273,
                "end_time": 85.4204545,
                "pitch": 33,
                "velocity": 101,
                "duration": 0.0477273,
                "tempo": 120.0
            },
            {
                "start_time": 85.5681818,
                "end_time": 85.6681818,
                "pitch": 35,
                "velocity": 101,
                "duration": 0.1,
                "tempo": 120.0
            },
            {
                "start_time": 85.7704545,
                "end_time": 85.8704545,
                "pitch": 36,
                "velocity": 101,
                "duration": 0.1,
                "tempo": 120.0
            },
            {
                "start_time": 85.9704545,
                "end_time": 86.0227273,
                "pitch": 35,
                "velocity": 101,
                "duration": 0.0522727,
                "tempo": 120.0
            },
            {
                "start_time": 86.5840909,
                "end_time": 86.6840909,
                "pitch": 31,
                "velocity": 101,
                "duration": 0.1,
                "tempo": 120.0
            },
            {
                "start_time": 86.7840909,
                "end_time": 86.8340909,
                "pitch": 29,
                "velocity": 101,
                "duration": 0.05,
                "tempo": 120.0
            },
            {
                "start_time": 86.8840909,
                "end_time": 86.9340909,
                "pitch": 29,
                "velocity": 101,
                "duration": 0.05,
                "tempo": 120.0
            },
            {
                "start_time": 86.9840909,
                "end_time": 87.0340909,
                "pitch": 29,
                "velocity": 101,
                "duration": 0.05,
                "tempo": 120.0
            },
            {
                "start_time": 87.3863636,
                "end_time": 87.4363636,
                "pitch": 33,
                "velocity": 101,
                "duration": 0.05,
                "tempo": 120.0
            },
            {
                "start_time": 87.5886364,
                "end_time": 87.6386364,
                "pitch": 31,
                "velocity": 101,
                "duration": 0.05,
                "tempo": 120.0
            },
            {
                "start_time": 88.2909091,
                "end_time": 88.3909091,
                "pitch": 29,
                "velocity": 101,
                "duration": 0.1,
                "tempo": 120.0
            },
            {
                "start_time": 88.4886364,
                "end_time": 88.5363636,
                "pitch": 29,
                "velocity": 101,
                "duration": 0.0477273,
                "tempo": 120.0
            },
            {
                "start_time": 88.5863636,
                "end_time": 88.6340909,
                "pitch": 29,
                "velocity": 101,
                "duration": 0.0477273,
                "tempo": 120.0
            },
            {
                "start_time": 88.7818182,
                "end_time": 88.8840909,
                "pitch": 31,
                "velocity": 101,
                "duration": 0.1022727,
                "tempo": 120.0
            },
            {
                "start_time": 88.9886364,
                "end_time": 89.0909091,
                "pitch": 33,
                "velocity": 101,
                "duration": 0.1022727,
                "tempo": 120.0
            },
            {
                "start_time": 89.1931818,
                "end_time": 89.2431818,
                "pitch": 31,
                "velocity": 101,
                "duration": 0.05,
                "tempo": 120.0
            },
            {
                "start_time": 89.3954545,
                "end_time": 89.7909091,
                "pitch": 36,
                "velocity": 101,
                "duration": 0.3954545,
                "tempo": 120.0
            },
            {
                "start_time": 89.7909091,
                "end_time": 89.9886364,
                "pitch": 35,
                "velocity": 101,
                "duration": 0.1977273,
                "tempo": 120.0
            },
            {
                "start_time": 89.9886364,
                "end_time": 90.0386364,
                "pitch": 33,
                "velocity": 101,
                "duration": 0.05,
                "tempo": 120.0
            },
            {
                "start_time": 90.0909091,
                "end_time": 90.1409091,
                "pitch": 33,
                "velocity": 101,
                "duration": 0.05,
                "tempo": 120.0
            },
            {
                "start_time": 90.1931818,
                "end_time": 90.2454545,
                "pitch": 33,
                "velocity": 101,
                "duration": 0.0522727,
                "tempo": 120.0
            },
            {
                "start_time": 90.6,
                "end_time": 90.65,
                "pitch": 36,
                "velocity": 101,
                "duration": 0.05,
                "tempo": 120.0
            },
            {
                "start_time": 90.8045455,
                "end_time": 90.8363636,
                "pitch": 35,
                "velocity": 101,
                "duration": 0.0318182,
                "tempo": 120.0
            },
            {
                "start_time": 91.1022727,
                "end_time": 91.5113636,
                "pitch": 31,
                "velocity": 101,
                "duration": 0.4090909,
                "tempo": 120.0
            },
            {
                "start_time": 91.5113636,
                "end_time": 91.7090909,
                "pitch": 33,
                "velocity": 101,
                "duration": 0.1977273,
                "tempo": 120.0
            },
            {
                "start_time": 91.7090909,
                "end_time": 91.7409091,
                "pitch": 33,
                "velocity": 101,
                "duration": 0.0318182,
                "tempo": 120.0
            },
            {
                "start_time": 91.8045455,
                "end_time": 91.8363636,
                "pitch": 33,
                "velocity": 101,
                "duration": 0.0318182,
                "tempo": 120.0
            },
            {
                "start_time": 91.9954545,
                "end_time": 92.0954545,
                "pitch": 35,
                "velocity": 101,
                "duration": 0.1,
                "tempo": 120.0
            },
            {
                "start_time": 92.1977273,
                "end_time": 92.2977273,
                "pitch": 36,
                "velocity": 101,
                "duration": 0.1,
                "tempo": 120.0
            },
            {
                "start_time": 92.4,
                "end_time": 92.4340909,
                "pitch": 35,
                "velocity": 101,
                "duration": 0.0340909,
                "tempo": 120.0
            },
            {
                "start_time": 93.0090909,
                "end_time": 93.1090909,
                "pitch": 31,
                "velocity": 101,
                "duration": 0.1,
                "tempo": 120.0
            },
            {
                "start_time": 93.2090909,
                "end_time": 93.2431818,
                "pitch": 29,
                "velocity": 101,
                "duration": 0.0340909,
                "tempo": 120.0
            },
            {
                "start_time": 93.3090909,
                "end_time": 93.3431818,
                "pitch": 29,
                "velocity": 101,
                "duration": 0.0340909,
                "tempo": 120.0
            },
            {
                "start_time": 93.4113636,
                "end_time": 93.4431818,
                "pitch": 29,
                "velocity": 101,
                "duration": 0.0318182,
                "tempo": 120.0
            },
            {
                "start_time": 93.8136364,
                "end_time": 93.8477273,
                "pitch": 33,
                "velocity": 101,
                "duration": 0.0340909,
                "tempo": 120.0
            },
            {
                "start_time": 94.0136364,
                "end_time": 94.0477273,
                "pitch": 31,
                "velocity": 101,
                "duration": 0.0340909,
                "tempo": 120.0
            },
            {
                "start_time": 94.7159091,
                "end_time": 94.8181818,
                "pitch": 29,
                "velocity": 101,
                "duration": 0.1022727,
                "tempo": 120.0
            },
            {
                "start_time": 94.9159091,
                "end_time": 94.9477273,
                "pitch": 29,
                "velocity": 101,
                "duration": 0.0318182,
                "tempo": 120.0
            },
            {
                "start_time": 95.0136364,
                "end_time": 95.0613636,
                "pitch": 29,
                "velocity": 101,
                "duration": 0.0477273,
                "tempo": 120.0
            },
            {
                "start_time": 95.2090909,
                "end_time": 95.3113636,
                "pitch": 31,
                "velocity": 101,
                "duration": 0.1022727,
                "tempo": 120.0
            },
            {
                "start_time": 95.4136364,
                "end_time": 95.5181818,
                "pitch": 33,
                "velocity": 101,
                "duration": 0.1045455,
                "tempo": 120.0
            },
            {
                "start_time": 95.6204545,
                "end_time": 95.6704545,
                "pitch": 31,
                "velocity": 101,
                "duration": 0.05,
                "tempo": 120.0
            },
            {
                "start_time": 95.8204545,
                "end_time": 96.2227273,
                "pitch": 36,
                "velocity": 101,
                "duration": 0.4022727,
                "tempo": 120.0
            },
            {
                "start_time": 96.2227273,
                "end_time": 96.4227273,
                "pitch": 35,
                "velocity": 101,
                "duration": 0.2,
                "tempo": 120.0
            },
            {
                "start_time": 96.4227273,
                "end_time": 96.4727273,
                "pitch": 33,
                "velocity": 101,
                "duration": 0.05,
                "tempo": 120.0
            },
            {
                "start_time": 96.5227273,
                "end_time": 96.575,
                "pitch": 33,
                "velocity": 101,
                "duration": 0.0522727,
                "tempo": 120.0
            },
            {
                "start_time": 96.625,
                "end_time": 96.675,
                "pitch": 33,
                "velocity": 101,
                "duration": 0.05,
                "tempo": 120.0
            },
            {
                "start_time": 97.025,
                "end_time": 97.075,
                "pitch": 36,
                "velocity": 101,
                "duration": 0.05,
                "tempo": 120.0
            },
            {
                "start_time": 97.2272727,
                "end_time": 97.2613636,
                "pitch": 35,
                "velocity": 101,
                "duration": 0.0340909,
                "tempo": 120.0
            },
            {
                "start_time": 97.5272727,
                "end_time": 97.9363636,
                "pitch": 31,
                "velocity": 101,
                "duration": 0.4090909,
                "tempo": 120.0
            },
            {
                "start_time": 97.9363636,
                "end_time": 98.1340909,
                "pitch": 33,
                "velocity": 101,
                "duration": 0.1977273,
                "tempo": 120.0
            },
            {
                "start_time": 98.1340909,
                "end_time": 98.1659091,
                "pitch": 33,
                "velocity": 101,
                "duration": 0.0318182,
                "tempo": 120.0
            },
            {
                "start_time": 98.2295455,
                "end_time": 98.2613636,
                "pitch": 33,
                "velocity": 101,
                "duration": 0.0318182,
                "tempo": 120.0
            },
            {
                "start_time": 98.4204545,
                "end_time": 98.5068182,
                "pitch": 35,
                "velocity": 101,
                "duration": 0.0863636,
                "tempo": 120.0
            },
            {
                "start_time": 98.6272727,
                "end_time": 98.7295455,
                "pitch": 36,
                "velocity": 101,
                "duration": 0.1022727,
                "tempo": 120.0
            },
            {
                "start_time": 98.8318182,
                "end_time": 98.8659091,
                "pitch": 35,
                "velocity": 101,
                "duration": 0.0340909,
                "tempo": 120.0
            },
            {
                "start_time": 99.4340909,
                "end_time": 99.5340909,
                "pitch": 31,
                "velocity": 101,
                "duration": 0.1,
                "tempo": 120.0
            },
            {
                "start_time": 99.6340909,
                "end_time": 99.6840909,
                "pitch": 29,
                "velocity": 101,
                "duration": 0.05,
                "tempo": 120.0
            },
            {
                "start_time": 99.7363636,
                "end_time": 99.7681818,
                "pitch": 29,
                "velocity": 101,
                "duration": 0.0318182,
                "tempo": 120.0
            },
            {
                "start_time": 99.8363636,
                "end_time": 99.8863636,
                "pitch": 29,
                "velocity": 101,
                "duration": 0.05,
                "tempo": 120.0
            },
            {
                "start_time": 100.2363636,
                "end_time": 100.2863636,
                "pitch": 33,
                "velocity": 101,
                "duration": 0.05,
                "tempo": 120.0
            },
            {
                "start_time": 100.4363636,
                "end_time": 100.4886364,
                "pitch": 31,
                "velocity": 101,
                "duration": 0.0522727,
                "tempo": 120.0
            },
            {
                "start_time": 101.1409091,
                "end_time": 101.2409091,
                "pitch": 29,
                "velocity": 101,
                "duration": 0.1,
                "tempo": 120.0
            },
            {
                "start_time": 101.3386364,
                "end_time": 101.3704545,
                "pitch": 29,
                "velocity": 101,
                "duration": 0.0318182,
                "tempo": 120.0
            },
            {
                "start_time": 101.4363636,
                "end_time": 101.4840909,
                "pitch": 29,
                "velocity": 101,
                "duration": 0.0477273,
                "tempo": 120.0
            },
            {
                "start_time": 101.6318182,
                "end_time": 101.7340909,
                "pitch": 31,
                "velocity": 101,
                "duration": 0.1022727,
                "tempo": 120.0
            },
            {
                "start_time": 101.8386364,
                "end_time": 101.9409091,
                "pitch": 33,
                "velocity": 101,
                "duration": 0.1022727,
                "tempo": 120.0
            },
            {
                "start_time": 102.0431818,
                "end_time": 102.0931818,
                "pitch": 31,
                "velocity": 101,
                "duration": 0.05,
                "tempo": 120.0
            },
            {
                "start_time": 102.2431818,
                "end_time": 102.6295455,
                "pitch": 36,
                "velocity": 101,
                "duration": 0.3863636,
                "tempo": 120.0
            },
            {
                "start_time": 102.6454545,
                "end_time": 102.8477273,
                "pitch": 35,
                "velocity": 101,
                "duration": 0.2022727,
                "tempo": 120.0
            },
            {
                "start_time": 102.8477273,
                "end_time": 102.8795455,
                "pitch": 33,
                "velocity": 101,
                "duration": 0.0318182,
                "tempo": 120.0
            },
            {
                "start_time": 102.9477273,
                "end_time": 102.9795455,
                "pitch": 33,
                "velocity": 101,
                "duration": 0.0318182,
                "tempo": 120.0
            },
            {
                "start_time": 103.0477273,
                "end_time": 103.0795455,
                "pitch": 33,
                "velocity": 101,
                "duration": 0.0318182,
                "tempo": 120.0
            },
            {
                "start_time": 103.4477273,
                "end_time": 103.4818182,
                "pitch": 36,
                "velocity": 101,
                "duration": 0.0340909,
                "tempo": 120.0
            },
            {
                "start_time": 103.65,
                "end_time": 103.6818182,
                "pitch": 35,
                "velocity": 101,
                "duration": 0.0318182,
                "tempo": 120.0
            },
            {
                "start_time": 103.9431818,
                "end_time": 104.3568182,
                "pitch": 31,
                "velocity": 101,
                "duration": 0.4136364,
                "tempo": 120.0
            },
            {
                "start_time": 104.3568182,
                "end_time": 104.5568182,
                "pitch": 33,
                "velocity": 101,
                "duration": 0.2,
                "tempo": 120.0
            },
            {
                "start_time": 104.5568182,
                "end_time": 104.5886364,
                "pitch": 33,
                "velocity": 101,
                "duration": 0.0318182,
                "tempo": 120.0
            },
            {
                "start_time": 104.6522727,
                "end_time": 104.6840909,
                "pitch": 33,
                "velocity": 101,
                "duration": 0.0318182,
                "tempo": 120.0
            },
            {
                "start_time": 104.8431818,
                "end_time": 104.9454545,
                "pitch": 35,
                "velocity": 101,
                "duration": 0.1022727,
                "tempo": 120.0
            },
            {
                "start_time": 105.05,
                "end_time": 105.1522727,
                "pitch": 36,
                "velocity": 101,
                "duration": 0.1022727,
                "tempo": 120.0
            },
            {
                "start_time": 105.2545455,
                "end_time": 105.2886364,
                "pitch": 35,
                "velocity": 101,
                "duration": 0.0340909,
                "tempo": 120.0
            },
            {
                "start_time": 105.8590909,
                "end_time": 105.9590909,
                "pitch": 31,
                "velocity": 101,
                "duration": 0.1,
                "tempo": 120.0
            },
            {
                "start_time": 106.0590909,
                "end_time": 106.0931818,
                "pitch": 29,
                "velocity": 101,
                "duration": 0.0340909,
                "tempo": 120.0
            },
            {
                "start_time": 106.1590909,
                "end_time": 106.1931818,
                "pitch": 29,
                "velocity": 101,
                "duration": 0.0340909,
                "tempo": 120.0
            },
            {
                "start_time": 106.2590909,
                "end_time": 106.2931818,
                "pitch": 29,
                "velocity": 101,
                "duration": 0.0340909,
                "tempo": 120.0
            },
            {
                "start_time": 106.6613636,
                "end_time": 106.6954545,
                "pitch": 33,
                "velocity": 101,
                "duration": 0.0340909,
                "tempo": 120.0
            },
            {
                "start_time": 106.8636364,
                "end_time": 106.8954545,
                "pitch": 31,
                "velocity": 101,
                "duration": 0.0318182,
                "tempo": 120.0
            },
            {
                "start_time": 107.5636364,
                "end_time": 107.6659091,
                "pitch": 29,
                "velocity": 101,
                "duration": 0.1022727,
                "tempo": 120.0
            },
            {
                "start_time": 107.7636364,
                "end_time": 107.8113636,
                "pitch": 29,
                "velocity": 101,
                "duration": 0.0477273,
                "tempo": 120.0
            },
            {
                "start_time": 107.8613636,
                "end_time": 107.9090909,
                "pitch": 29,
                "velocity": 101,
                "duration": 0.0477273,
                "tempo": 120.0
            },
            {
                "start_time": 108.0568182,
                "end_time": 108.1590909,
                "pitch": 31,
                "velocity": 101,
                "duration": 0.1022727,
                "tempo": 120.0
            },
            {
                "start_time": 108.2636364,
                "end_time": 108.3659091,
                "pitch": 33,
                "velocity": 101,
                "duration": 0.1022727,
                "tempo": 120.0
            },
            {
                "start_time": 108.4681818,
                "end_time": 108.5181818,
                "pitch": 31,
                "velocity": 101,
                "duration": 0.05,
                "tempo": 120.0
            },
            {
                "start_time": 108.6704545,
                "end_time": 109.0704545,
                "pitch": 36,
                "velocity": 101,
                "duration": 0.4,
                "tempo": 120.0
            },
            {
                "start_time": 109.0704545,
                "end_time": 109.2704545,
                "pitch": 35,
                "velocity": 101,
                "duration": 0.2,
                "tempo": 120.0
            },
            {
                "start_time": 109.2704545,
                "end_time": 109.3204545,
                "pitch": 33,
                "velocity": 101,
                "duration": 0.05,
                "tempo": 120.0
            },
            {
                "start_time": 109.3727273,
                "end_time": 109.4227273,
                "pitch": 33,
                "velocity": 101,
                "duration": 0.05,
                "tempo": 120.0
            },
            {
                "start_time": 109.4727273,
                "end_time": 109.5227273,
                "pitch": 33,
                "velocity": 101,
                "duration": 0.05,
                "tempo": 120.0
            },
            {
                "start_time": 109.8704545,
                "end_time": 109.9181818,
                "pitch": 36,
                "velocity": 101,
                "duration": 0.0477273,
                "tempo": 120.0
            },
            {
                "start_time": 110.0659091,
                "end_time": 110.1,
                "pitch": 35,
                "velocity": 101,
                "duration": 0.0340909,
                "tempo": 120.0
            },
            {
                "start_time": 110.375,
                "end_time": 110.7840909,
                "pitch": 31,
                "velocity": 101,
                "duration": 0.4090909,
                "tempo": 120.0
            },
            {
                "start_time": 110.7840909,
                "end_time": 110.9818182,
                "pitch": 33,
                "velocity": 101,
                "duration": 0.1977273,
                "tempo": 120.0
            },
            {
                "start_time": 110.9818182,
                "end_time": 111.0136364,
                "pitch": 33,
                "velocity": 101,
                "duration": 0.0318182,
                "tempo": 120.0
            },
            {
                "start_time": 111.0772727,
                "end_time": 111.1090909,
                "pitch": 33,
                "velocity": 101,
                "duration": 0.0318182,
                "tempo": 120.0
            },
            {
                "start_time": 111.2704545,
                "end_time": 111.3545455,
                "pitch": 35,
                "velocity": 101,
                "duration": 0.0840909,
                "tempo": 120.0
            },
            {
                "start_time": 111.475,
                "end_time": 111.5772727,
                "pitch": 36,
                "velocity": 101,
                "duration": 0.1022727,
                "tempo": 120.0
            },
            {
                "start_time": 111.6818182,
                "end_time": 111.7159091,
                "pitch": 35,
                "velocity": 101,
                "duration": 0.0340909,
                "tempo": 120.0
            },
            {
                "start_time": 112.2840909,
                "end_time": 112.3840909,
                "pitch": 31,
                "velocity": 101,
                "duration": 0.1,
                "tempo": 120.0
            },
            {
                "start_time": 112.4840909,
                "end_time": 112.5340909,
                "pitch": 29,
                "velocity": 101,
                "duration": 0.05,
                "tempo": 120.0
            },
            {
                "start_time": 112.5840909,
                "end_time": 112.6181818,
                "pitch": 29,
                "velocity": 101,
                "duration": 0.0340909,
                "tempo": 120.0
            },
            {
                "start_time": 112.6840909,
                "end_time": 112.7340909,
                "pitch": 29,
                "velocity": 101,
                "duration": 0.05,
                "tempo": 120.0
            },
            {
                "start_time": 113.0863636,
                "end_time": 113.1363636,
                "pitch": 33,
                "velocity": 101,
                "duration": 0.05,
                "tempo": 120.0
            },
            {
                "start_time": 113.2863636,
                "end_time": 113.3363636,
                "pitch": 31,
                "velocity": 101,
                "duration": 0.05,
                "tempo": 120.0
            },
            {
                "start_time": 113.9909091,
                "end_time": 114.0909091,
                "pitch": 29,
                "velocity": 101,
                "duration": 0.1,
                "tempo": 120.0
            },
            {
                "start_time": 114.1886364,
                "end_time": 114.2227273,
                "pitch": 29,
                "velocity": 101,
                "duration": 0.0340909,
                "tempo": 120.0
            },
            {
                "start_time": 114.2863636,
                "end_time": 114.3363636,
                "pitch": 29,
                "velocity": 101,
                "duration": 0.05,
                "tempo": 120.0
            },
            {
                "start_time": 114.4840909,
                "end_time": 114.5863636,
                "pitch": 31,
                "velocity": 101,
                "duration": 0.1022727,
                "tempo": 120.0
            },
            {
                "start_time": 114.6886364,
                "end_time": 114.7909091,
                "pitch": 33,
                "velocity": 101,
                "duration": 0.1022727,
                "tempo": 120.0
            },
            {
                "start_time": 114.8931818,
                "end_time": 114.9431818,
                "pitch": 31,
                "velocity": 101,
                "duration": 0.05,
                "tempo": 120.0
            },
            {
                "start_time": 115.0931818,
                "end_time": 115.4954545,
                "pitch": 36,
                "velocity": 101,
                "duration": 0.4022727,
                "tempo": 120.0
            },
            {
                "start_time": 115.4954545,
                "end_time": 115.6977273,
                "pitch": 35,
                "velocity": 101,
                "duration": 0.2022727,
                "tempo": 120.0
            },
            {
                "start_time": 115.6977273,
                "end_time": 115.7318182,
                "pitch": 33,
                "velocity": 101,
                "duration": 0.0340909,
                "tempo": 120.0
            },
            {
                "start_time": 115.7977273,
                "end_time": 115.8318182,
                "pitch": 33,
                "velocity": 101,
                "duration": 0.0340909,
                "tempo": 120.0
            },
            {
                "start_time": 115.9,
                "end_time": 115.9318182,
                "pitch": 33,
                "velocity": 101,
                "duration": 0.0318182,
                "tempo": 120.0
            },
            {
                "start_time": 116.3,
                "end_time": 116.3340909,
                "pitch": 36,
                "velocity": 101,
                "duration": 0.0340909,
                "tempo": 120.0
            },
            {
                "start_time": 116.5,
                "end_time": 116.5340909,
                "pitch": 35,
                "velocity": 101,
                "duration": 0.0340909,
                "tempo": 120.0
            },
            {
                "start_time": 116.7931818,
                "end_time": 117.2090909,
                "pitch": 31,
                "velocity": 101,
                "duration": 0.4159091,
                "tempo": 120.0
            },
            {
                "start_time": 117.2090909,
                "end_time": 117.4090909,
                "pitch": 33,
                "velocity": 101,
                "duration": 0.2,
                "tempo": 120.0
            },
            {
                "start_time": 117.4090909,
                "end_time": 117.4409091,
                "pitch": 33,
                "velocity": 101,
                "duration": 0.0318182,
                "tempo": 120.0
            },
            {
                "start_time": 117.5045455,
                "end_time": 117.5363636,
                "pitch": 33,
                "velocity": 101,
                "duration": 0.0318182,
                "tempo": 120.0
            },
            {
                "start_time": 117.6954545,
                "end_time": 117.7977273,
                "pitch": 35,
                "velocity": 101,
                "duration": 0.1022727,
                "tempo": 120.0
            },
            {
                "start_time": 117.9,
                "end_time": 118.0022727,
                "pitch": 36,
                "velocity": 101,
                "duration": 0.1022727,
                "tempo": 120.0
            },
            {
                "start_time": 118.1068182,
                "end_time": 118.1409091,
                "pitch": 35,
                "velocity": 101,
                "duration": 0.0340909,
                "tempo": 120.0
            },
            {
                "start_time": 118.7068182,
                "end_time": 118.8068182,
                "pitch": 31,
                "velocity": 101,
                "duration": 0.1,
                "tempo": 120.0
            },
            {
                "start_time": 118.9090909,
                "end_time": 118.9409091,
                "pitch": 29,
                "velocity": 101,
                "duration": 0.0318182,
                "tempo": 120.0
            },
            {
                "start_time": 119.0090909,
                "end_time": 119.0409091,
                "pitch": 29,
                "velocity": 101,
                "duration": 0.0318182,
                "tempo": 120.0
            },
            {
                "start_time": 119.1090909,
                "end_time": 119.1409091,
                "pitch": 29,
                "velocity": 101,
                "duration": 0.0318182,
                "tempo": 120.0
            },
            {
                "start_time": 119.5090909,
                "end_time": 119.5431818,
                "pitch": 33,
                "velocity": 101,
                "duration": 0.0340909,
                "tempo": 120.0
            },
            {
                "start_time": 119.7113636,
                "end_time": 119.7454545,
                "pitch": 31,
                "velocity": 101,
                "duration": 0.0340909,
                "tempo": 120.0
            },
            {
                "start_time": 120.4227273,
                "end_time": 120.5227273,
                "pitch": 29,
                "velocity": 101,
                "duration": 0.1,
                "tempo": 120.0
            },
            {
                "start_time": 120.6204545,
                "end_time": 120.6522727,
                "pitch": 29,
                "velocity": 101,
                "duration": 0.0318182,
                "tempo": 120.0
            },
            {
                "start_time": 120.7159091,
                "end_time": 120.7477273,
                "pitch": 29,
                "velocity": 101,
                "duration": 0.0318182,
                "tempo": 120.0
            },
            {
                "start_time": 120.9068182,
                "end_time": 120.9909091,
                "pitch": 31,
                "velocity": 101,
                "duration": 0.0840909,
                "tempo": 120.0
            },
            {
                "start_time": 121.1113636,
                "end_time": 121.2136364,
                "pitch": 33,
                "velocity": 101,
                "duration": 0.1022727,
                "tempo": 120.0
            },
            {
                "start_time": 121.3181818,
                "end_time": 121.35,
                "pitch": 31,
                "velocity": 101,
                "duration": 0.0318182,
                "tempo": 120.0
            },
            {
                "start_time": 121.5181818,
                "end_time": 121.9204545,
                "pitch": 36,
                "velocity": 101,
                "duration": 0.4022727,
                "tempo": 120.0
            },
            {
                "start_time": 121.9204545,
                "end_time": 122.1227273,
                "pitch": 35,
                "velocity": 101,
                "duration": 0.2022727,
                "tempo": 120.0
            },
            {
                "start_time": 122.1227273,
                "end_time": 122.1727273,
                "pitch": 33,
                "velocity": 101,
                "duration": 0.05,
                "tempo": 120.0
            },
            {
                "start_time": 122.2227273,
                "end_time": 122.2727273,
                "pitch": 33,
                "velocity": 101,
                "duration": 0.05,
                "tempo": 120.0
            },
            {
                "start_time": 122.3227273,
                "end_time": 122.3727273,
                "pitch": 33,
                "velocity": 101,
                "duration": 0.05,
                "tempo": 120.0
            },
            {
                "start_time": 122.725,
                "end_time": 122.7568182,
                "pitch": 36,
                "velocity": 101,
                "duration": 0.0318182,
                "tempo": 120.0
            },
            {
                "start_time": 122.9272727,
                "end_time": 122.9590909,
                "pitch": 35,
                "velocity": 101,
                "duration": 0.0318182,
                "tempo": 120.0
            },
            {
                "start_time": 123.225,
                "end_time": 123.6340909,
                "pitch": 31,
                "velocity": 101,
                "duration": 0.4090909,
                "tempo": 120.0
            },
            {
                "start_time": 123.6340909,
                "end_time": 123.8318182,
                "pitch": 33,
                "velocity": 101,
                "duration": 0.1977273,
                "tempo": 120.0
            },
            {
                "start_time": 123.8318182,
                "end_time": 123.8636364,
                "pitch": 33,
                "velocity": 101,
                "duration": 0.0318182,
                "tempo": 120.0
            },
            {
                "start_time": 123.9272727,
                "end_time": 123.9590909,
                "pitch": 33,
                "velocity": 101,
                "duration": 0.0318182,
                "tempo": 120.0
            },
            {
                "start_time": 124.1181818,
                "end_time": 124.2022727,
                "pitch": 35,
                "velocity": 101,
                "duration": 0.0840909,
                "tempo": 120.0
            },
            {
                "start_time": 124.3227273,
                "end_time": 124.425,
                "pitch": 36,
                "velocity": 80,
                "duration": 0.1022727,
                "tempo": 120.0
            },
            {
                "start_time": 124.5295455,
                "end_time": 124.5636364,
                "pitch": 35,
                "velocity": 80,
                "duration": 0.0340909,
                "tempo": 120.0
            },
            {
                "start_time": 125.1318182,
                "end_time": 125.2318182,
                "pitch": 31,
                "velocity": 80,
                "duration": 0.1,
                "tempo": 120.0
            },
            {
                "start_time": 125.3318182,
                "end_time": 125.3818182,
                "pitch": 29,
                "velocity": 80,
                "duration": 0.05,
                "tempo": 120.0
            },
            {
                "start_time": 125.4318182,
                "end_time": 125.4659091,
                "pitch": 29,
                "velocity": 80,
                "duration": 0.0340909,
                "tempo": 120.0
            },
            {
                "start_time": 125.5318182,
                "end_time": 125.5840909,
                "pitch": 29,
                "velocity": 80,
                "duration": 0.0522727,
                "tempo": 120.0
            },
            {
                "start_time": 125.9363636,
                "end_time": 125.9863636,
                "pitch": 33,
                "velocity": 64,
                "duration": 0.05,
                "tempo": 120.0
            },
            {
                "start_time": 126.1363636,
                "end_time": 126.1863636,
                "pitch": 31,
                "velocity": 64,
                "duration": 0.05,
                "tempo": 120.0
            },
            {
                "start_time": 126.8454545,
                "end_time": 126.9454545,
                "pitch": 29,
                "velocity": 64,
                "duration": 0.1,
                "tempo": 120.0
            },
            {
                "start_time": 127.0431818,
                "end_time": 127.075,
                "pitch": 29,
                "velocity": 64,
                "duration": 0.0318182,
                "tempo": 120.0
            },
            {
                "start_time": 127.1386364,
                "end_time": 127.1863636,
                "pitch": 29,
                "velocity": 64,
                "duration": 0.0477273,
                "tempo": 120.0
            },
            {
                "start_time": 127.3295455,
                "end_time": 127.4318182,
                "pitch": 31,
                "velocity": 64,
                "duration": 0.1022727,
                "tempo": 120.0
            },
            {
                "start_time": 127.5340909,
                "end_time": 127.6363636,
                "pitch": 33,
                "velocity": 51,
                "duration": 0.1022727,
                "tempo": 120.0
            },
            {
                "start_time": 127.7409091,
                "end_time": 127.7909091,
                "pitch": 31,
                "velocity": 51,
                "duration": 0.05,
                "tempo": 120.0
            },
            {
                "start_time": 127.9409091,
                "end_time": 128.3431818,
                "pitch": 36,
                "velocity": 51,
                "duration": 0.4022727,
                "tempo": 120.0
            },
            {
                "start_time": 128.3431818,
                "end_time": 128.5431818,
                "pitch": 35,
                "velocity": 51,
                "duration": 0.2,
                "tempo": 120.0
            },
            {
                "start_time": 128.5431818,
                "end_time": 128.5772727,
                "pitch": 33,
                "velocity": 51,
                "duration": 0.0340909,
                "tempo": 120.0
            },
            {
                "start_time": 128.6431818,
                "end_time": 128.6772727,
                "pitch": 33,
                "velocity": 51,
                "duration": 0.0340909,
                "tempo": 120.0
            },
            {
                "start_time": 128.7454545,
                "end_time": 128.7795455,
                "pitch": 33,
                "velocity": 51,
                "duration": 0.0340909,
                "tempo": 120.0
            },
            {
                "start_time": 129.1477273,
                "end_time": 129.1795455,
                "pitch": 36,
                "velocity": 40,
                "duration": 0.0318182,
                "tempo": 120.0
            },
            {
                "start_time": 129.35,
                "end_time": 129.3818182,
                "pitch": 35,
                "velocity": 40,
                "duration": 0.0318182,
                "tempo": 120.0
            },
            {
                "start_time": 129.65,
                "end_time": 130.0590909,
                "pitch": 31,
                "velocity": 40,
                "duration": 0.4090909,
                "tempo": 120.0
            },
            {
                "start_time": 130.0590909,
                "end_time": 130.2568182,
                "pitch": 33,
                "velocity": 40,
                "duration": 0.1977273,
                "tempo": 120.0
            },
            {
                "start_time": 130.2568182,
                "end_time": 130.2886364,
                "pitch": 33,
                "velocity": 40,
                "duration": 0.0318182,
                "tempo": 120.0
            },
            {
                "start_time": 130.3522727,
                "end_time": 130.3840909,
                "pitch": 33,
                "velocity": 40,
                "duration": 0.0318182,
                "tempo": 120.0
            },
            {
                "start_time": 130.5431818,
                "end_time": 130.6454545,
                "pitch": 35,
                "velocity": 40,
                "duration": 0.1022727,
                "tempo": 120.0
            },
            {
                "start_time": 130.7477273,
                "end_time": 130.8522727,
                "pitch": 36,
                "velocity": 32,
                "duration": 0.1045455,
                "tempo": 120.0
            },
            {
                "start_time": 130.9545455,
                "end_time": 130.9886364,
                "pitch": 35,
                "velocity": 32,
                "duration": 0.0340909,
                "tempo": 120.0
            },
            {
                "start_time": 131.5613636,
                "end_time": 131.6590909,
                "pitch": 31,
                "velocity": 32,
                "duration": 0.0977273,
                "tempo": 120.0
            },
            {
                "start_time": 131.7568182,
                "end_time": 131.7909091,
                "pitch": 29,
                "velocity": 32,
                "duration": 0.0340909,
                "tempo": 120.0
            },
            {
                "start_time": 131.8568182,
                "end_time": 131.8909091,
                "pitch": 29,
                "velocity": 32,
                "duration": 0.0340909,
                "tempo": 120.0
            },
            {
                "start_time": 131.9568182,
                "end_time": 131.9909091,
                "pitch": 29,
                "velocity": 32,
                "duration": 0.0340909,
                "tempo": 120.0
            },
            {
                "start_time": 132.3590909,
                "end_time": 132.3931818,
                "pitch": 33,
                "velocity": 25,
                "duration": 0.0340909,
                "tempo": 120.0
            },
            {
                "start_time": 132.5590909,
                "end_time": 132.5931818,
                "pitch": 31,
                "velocity": 25,
                "duration": 0.0340909,
                "tempo": 120.0
            },
            {
                "start_time": 133.2704545,
                "end_time": 133.3727273,
                "pitch": 29,
                "velocity": 25,
                "duration": 0.1022727,
                "tempo": 120.0
            },
            {
                "start_time": 133.4681818,
                "end_time": 133.5159091,
                "pitch": 29,
                "velocity": 25,
                "duration": 0.0477273,
                "tempo": 120.0
            },
            {
                "start_time": 133.5636364,
                "end_time": 133.6113636,
                "pitch": 29,
                "velocity": 25,
                "duration": 0.0477273,
                "tempo": 120.0
            },
            {
                "start_time": 133.7545455,
                "end_time": 133.8568182,
                "pitch": 31,
                "velocity": 25,
                "duration": 0.1022727,
                "tempo": 120.0
            },
            {
                "start_time": 133.9613636,
                "end_time": 134.0636364,
                "pitch": 33,
                "velocity": 20,
                "duration": 0.1022727,
                "tempo": 120.0
            },
            {
                "start_time": 134.1659091,
                "end_time": 134.2159091,
                "pitch": 31,
                "velocity": 20,
                "duration": 0.05,
                "tempo": 120.0
            },
            {
                "start_time": 134.3681818,
                "end_time": 134.775,
                "pitch": 36,
                "velocity": 20,
                "duration": 0.4068182,
                "tempo": 120.0
            },
            {
                "start_time": 134.775,
                "end_time": 134.9795455,
                "pitch": 35,
                "velocity": 20,
                "duration": 0.2045455,
                "tempo": 120.0
            },
            {
                "start_time": 134.9795455,
                "end_time": 135.0272727,
                "pitch": 33,
                "velocity": 20,
                "duration": 0.0477273,
                "tempo": 120.0
            },
            {
                "start_time": 135.0772727,
                "end_time": 135.1272727,
                "pitch": 33,
                "velocity": 20,
                "duration": 0.05,
                "tempo": 120.0
            },
            {
                "start_time": 135.175,
                "end_time": 135.225,
                "pitch": 33,
                "velocity": 20,
                "duration": 0.05,
                "tempo": 120.0
            },
            {
                "start_time": 135.5727273,
                "end_time": 135.6227273,
                "pitch": 36,
                "velocity": 16,
                "duration": 0.05,
                "tempo": 120.0
            },
            {
                "start_time": 135.775,
                "end_time": 135.8090909,
                "pitch": 35,
                "velocity": 16,
                "duration": 0.0340909,
                "tempo": 120.0
            },
            {
                "start_time": 136.075,
                "end_time": 136.4772727,
                "pitch": 31,
                "velocity": 16,
                "duration": 0.4022727,
                "tempo": 120.0
            },
            {
                "start_time": 136.4772727,
                "end_time": 136.675,
                "pitch": 33,
                "velocity": 16,
                "duration": 0.1977273,
                "tempo": 120.0
            },
            {
                "start_time": 136.675,
                "end_time": 136.7068182,
                "pitch": 33,
                "velocity": 16,
                "duration": 0.0318182,
                "tempo": 120.0
            },
            {
                "start_time": 136.7727273,
                "end_time": 136.8068182,
                "pitch": 33,
                "velocity": 16,
                "duration": 0.0340909,
                "tempo": 120.0
            },
            {
                "start_time": 136.9681818,
                "end_time": 137.0545455,
                "pitch": 35,
                "velocity": 16,
                "duration": 0.0863636,
                "tempo": 120.0
            },
            {
                "start_time": 137.175,
                "end_time": 137.2772727,
                "pitch": 36,
                "velocity": 13,
                "duration": 0.1022727,
                "tempo": 120.0
            },
            {
                "start_time": 137.3818182,
                "end_time": 137.4136364,
                "pitch": 35,
                "velocity": 13,
                "duration": 0.0318182,
                "tempo": 120.0
            },
            {
                "start_time": 137.9840909,
                "end_time": 138.0840909,
                "pitch": 31,
                "velocity": 13,
                "duration": 0.1,
                "tempo": 120.0
            },
            {
                "start_time": 138.1840909,
                "end_time": 138.2340909,
                "pitch": 29,
                "velocity": 13,
                "duration": 0.05,
                "tempo": 120.0
            },
            {
                "start_time": 138.2840909,
                "end_time": 138.3181818,
                "pitch": 29,
                "velocity": 13,
                "duration": 0.0340909,
                "tempo": 120.0
            },
            {
                "start_time": 138.3840909,
                "end_time": 138.4340909,
                "pitch": 29,
                "velocity": 13,
                "duration": 0.05,
                "tempo": 120.0
            },
            {
                "start_time": 138.7863636,
                "end_time": 138.8363636,
                "pitch": 33,
                "velocity": 10,
                "duration": 0.05,
                "tempo": 120.0
            },
            {
                "start_time": 138.9886364,
                "end_time": 139.0386364,
                "pitch": 31,
                "velocity": 10,
                "duration": 0.05,
                "tempo": 120.0
            },
            {
                "start_time": 139.7,
                "end_time": 139.8,
                "pitch": 29,
                "velocity": 10,
                "duration": 0.1,
                "tempo": 120.0
            },
            {
                "start_time": 139.8954545,
                "end_time": 139.9431818,
                "pitch": 29,
                "velocity": 10,
                "duration": 0.0477273,
                "tempo": 120.0
            },
            {
                "start_time": 139.9909091,
                "end_time": 140.0386364,
                "pitch": 29,
                "velocity": 10,
                "duration": 0.0477273,
                "tempo": 120.0
            },
            {
                "start_time": 140.1840909,
                "end_time": 140.2863636,
                "pitch": 31,
                "velocity": 10,
                "duration": 0.1022727,
                "tempo": 120.0
            },
            {
                "start_time": 140.3886364,
                "end_time": 140.4909091,
                "pitch": 33,
                "velocity": 8,
                "duration": 0.1022727,
                "tempo": 120.0
            },
            {
                "start_time": 140.5931818,
                "end_time": 140.6454545,
                "pitch": 31,
                "velocity": 8,
                "duration": 0.0522727,
                "tempo": 120.0
            },
            {
                "start_time": 140.8,
                "end_time": 141.2022727,
                "pitch": 36,
                "velocity": 8,
                "duration": 0.4022727,
                "tempo": 120.0
            },
            {
                "start_time": 141.2022727,
                "end_time": 141.3977273,
                "pitch": 35,
                "velocity": 8,
                "duration": 0.1954545,
                "tempo": 120.0
            },
            {
                "start_time": 141.3977273,
                "end_time": 141.4318182,
                "pitch": 33,
                "velocity": 8,
                "duration": 0.0340909,
                "tempo": 120.0
            },
            {
                "start_time": 141.5,
                "end_time": 141.5318182,
                "pitch": 33,
                "velocity": 8,
                "duration": 0.0318182,
                "tempo": 120.0
            },
            {
                "start_time": 141.6,
                "end_time": 141.6340909,
                "pitch": 33,
                "velocity": 8,
                "duration": 0.0340909,
                "tempo": 120.0
            },
            {
                "start_time": 142.0068182,
                "end_time": 142.0409091,
                "pitch": 36,
                "velocity": 6,
                "duration": 0.0340909,
                "tempo": 120.0
            },
            {
                "start_time": 142.2113636,
                "end_time": 142.2454545,
                "pitch": 35,
                "velocity": 6,
                "duration": 0.0340909,
                "tempo": 120.0
            },
            {
                "start_time": 142.5045455,
                "end_time": 142.8977273,
                "pitch": 31,
                "velocity": 6,
                "duration": 0.3931818,
                "tempo": 120.0
            },
            {
                "start_time": 142.8977273,
                "end_time": 143.0954545,
                "pitch": 33,
                "velocity": 6,
                "duration": 0.1977273,
                "tempo": 120.0
            },
            {
                "start_time": 143.0954545,
                "end_time": 143.1295455,
                "pitch": 33,
                "velocity": 6,
                "duration": 0.0340909,
                "tempo": 120.0
            },
            {
                "start_time": 143.1954545,
                "end_time": 143.2295455,
                "pitch": 33,
                "velocity": 6,
                "duration": 0.0340909,
                "tempo": 120.0
            }
        ],
        "Acoustic Grand Piano": [
            {
                "start_time": 77.1454545,
                "end_time": 77.2136364,
                "pitch": 74,
                "velocity": 51,
                "duration": 0.0681818,
                "tempo": 120.0
            },
            {
                "start_time": 77.2136364,
                "end_time": 79.7522727,
                "pitch": 76,
                "velocity": 51,
                "duration": 2.5386364,
                "tempo": 120.0
            },
            {
                "start_time": 79.8545455,
                "end_time": 79.9568182,
                "pitch": 84,
                "velocity": 51,
                "duration": 0.1022727,
                "tempo": 120.0
            },
            {
                "start_time": 80.0568182,
                "end_time": 80.1568182,
                "pitch": 86,
                "velocity": 51,
                "duration": 0.1,
                "tempo": 120.0
            },
            {
                "start_time": 80.2568182,
                "end_time": 80.3568182,
                "pitch": 79,
                "velocity": 51,
                "duration": 0.1,
                "tempo": 120.0
            },
            {
                "start_time": 80.3568182,
                "end_time": 81.6636364,
                "pitch": 76,
                "velocity": 51,
                "duration": 1.3068182,
                "tempo": 120.0
            },
            {
                "start_time": 81.6636364,
                "end_time": 81.7636364,
                "pitch": 74,
                "velocity": 51,
                "duration": 0.1,
                "tempo": 120.0
            },
            {
                "start_time": 81.7636364,
                "end_time": 81.8636364,
                "pitch": 72,
                "velocity": 51,
                "duration": 0.1,
                "tempo": 120.0
            },
            {
                "start_time": 81.8636364,
                "end_time": 83.1681818,
                "pitch": 71,
                "velocity": 51,
                "duration": 1.3045455,
                "tempo": 120.0
            },
            {
                "start_time": 83.1681818,
                "end_time": 83.5704545,
                "pitch": 74,
                "velocity": 51,
                "duration": 0.4022727,
                "tempo": 120.0
            },
            {
                "start_time": 83.5704545,
                "end_time": 83.6386364,
                "pitch": 74,
                "velocity": 51,
                "duration": 0.0681818,
                "tempo": 120.0
            },
            {
                "start_time": 83.6386364,
                "end_time": 86.1772727,
                "pitch": 76,
                "velocity": 51,
                "duration": 2.5386364,
                "tempo": 120.0
            },
            {
                "start_time": 86.2795455,
                "end_time": 86.3818182,
                "pitch": 84,
                "velocity": 51,
                "duration": 0.1022727,
                "tempo": 120.0
            },
            {
                "start_time": 86.4818182,
                "end_time": 86.5840909,
                "pitch": 86,
                "velocity": 51,
                "duration": 0.1022727,
                "tempo": 120.0
            },
            {
                "start_time": 86.6840909,
                "end_time": 86.7840909,
                "pitch": 79,
                "velocity": 51,
                "duration": 0.1,
                "tempo": 120.0
            },
            {
                "start_time": 86.7840909,
                "end_time": 88.0909091,
                "pitch": 76,
                "velocity": 51,
                "duration": 1.3068182,
                "tempo": 120.0
            },
            {
                "start_time": 88.1909091,
                "end_time": 88.2909091,
                "pitch": 67,
                "velocity": 51,
                "duration": 0.1,
                "tempo": 120.0
            },
            {
                "start_time": 88.2909091,
                "end_time": 88.3568182,
                "pitch": 67,
                "velocity": 51,
                "duration": 0.0659091,
                "tempo": 120.0
            },
            {
                "start_time": 88.3568182,
                "end_time": 88.3909091,
                "pitch": 69,
                "velocity": 51,
                "duration": 0.0340909,
                "tempo": 120.0
            },
            {
                "start_time": 88.3909091,
                "end_time": 88.4545455,
                "pitch": 69,
                "velocity": 51,
                "duration": 0.0636364,
                "tempo": 120.0
            },
            {
                "start_time": 88.4545455,
                "end_time": 89.5954545,
                "pitch": 71,
                "velocity": 51,
                "duration": 1.1409091,
                "tempo": 120.0
            }
        ],
        "Electric Piano 1": [
            {
                "start_time": 0.0,
                "end_time": 0.0840909,
                "pitch": 62,
                "velocity": 127,
                "duration": 0.0840909,
                "tempo": 120.0
            },
            {
                "start_time": 0.1,
                "end_time": 0.2,
                "pitch": 63,
                "velocity": 51,
                "duration": 0.1,
                "tempo": 120.0
            },
            {
                "start_time": 0.2159091,
                "end_time": 0.3,
                "pitch": 64,
                "velocity": 51,
                "duration": 0.0840909,
                "tempo": 120.0
            },
            {
                "start_time": 0.4159091,
                "end_time": 0.5045455,
                "pitch": 62,
                "velocity": 51,
                "duration": 0.0886364,
                "tempo": 120.0
            },
            {
                "start_time": 0.6272727,
                "end_time": 0.7159091,
                "pitch": 63,
                "velocity": 51,
                "duration": 0.0886364,
                "tempo": 120.0
            },
            {
                "start_time": 0.8409091,
                "end_time": 0.9090909,
                "pitch": 64,
                "velocity": 51,
                "duration": 0.0681818,
                "tempo": 120.0
            },
            {
                "start_time": 1.5409091,
                "end_time": 1.6727273,
                "pitch": 67,
                "velocity": 51,
                "duration": 0.1318182,
                "tempo": 120.0
            },
            {
                "start_time": 1.7386364,
                "end_time": 1.8045455,
                "pitch": 67,
                "velocity": 51,
                "duration": 0.0659091,
                "tempo": 120.0
            },
            {
                "start_time": 1.8363636,
                "end_time": 1.9022727,
                "pitch": 67,
                "velocity": 51,
                "duration": 0.0659091,
                "tempo": 120.0
            },
            {
                "start_time": 2.0340909,
                "end_time": 2.1704545,
                "pitch": 69,
                "velocity": 51,
                "duration": 0.1363636,
                "tempo": 120.0
            },
            {
                "start_time": 2.2386364,
                "end_time": 2.375,
                "pitch": 70,
                "velocity": 51,
                "duration": 0.1363636,
                "tempo": 120.0
            },
            {
                "start_time": 2.4454545,
                "end_time": 2.5113636,
                "pitch": 71,
                "velocity": 51,
                "duration": 0.0659091,
                "tempo": 120.0
            },
            {
                "start_time": 3.1431818,
                "end_time": 3.2772727,
                "pitch": 67,
                "velocity": 51,
                "duration": 0.1340909,
                "tempo": 120.0
            },
            {
                "start_time": 3.3454545,
                "end_time": 3.4113636,
                "pitch": 69,
                "velocity": 51,
                "duration": 0.0659091,
                "tempo": 120.0
            },
            {
                "start_time": 3.4454545,
                "end_time": 3.5136364,
                "pitch": 69,
                "velocity": 51,
                "duration": 0.0681818,
                "tempo": 120.0
            },
            {
                "start_time": 3.6477273,
                "end_time": 3.7136364,
                "pitch": 67,
                "velocity": 51,
                "duration": 0.0659091,
                "tempo": 120.0
            },
            {
                "start_time": 3.8477273,
                "end_time": 3.9136364,
                "pitch": 69,
                "velocity": 51,
                "duration": 0.0659091,
                "tempo": 120.0
            },
            {
                "start_time": 4.0477273,
                "end_time": 4.1136364,
                "pitch": 67,
                "velocity": 51,
                "duration": 0.0659091,
                "tempo": 120.0
            },
            {
                "start_time": 4.7477273,
                "end_time": 4.8818182,
                "pitch": 69,
                "velocity": 51,
                "duration": 0.1340909,
                "tempo": 120.0
            },
            {
                "start_time": 4.9477273,
                "end_time": 5.0136364,
                "pitch": 69,
                "velocity": 51,
                "duration": 0.0659091,
                "tempo": 120.0
            },
            {
                "start_time": 5.0454545,
                "end_time": 5.1113636,
                "pitch": 69,
                "velocity": 51,
                "duration": 0.0659091,
                "tempo": 120.0
            },
            {
                "start_time": 5.2409091,
                "end_time": 5.3795455,
                "pitch": 67,
                "velocity": 51,
                "duration": 0.1386364,
                "tempo": 120.0
            },
            {
                "start_time": 5.4477273,
                "end_time": 5.5159091,
                "pitch": 69,
                "velocity": 51,
                "duration": 0.0681818,
                "tempo": 120.0
            },
            {
                "start_time": 5.6522727,
                "end_time": 5.7204545,
                "pitch": 71,
                "velocity": 51,
                "duration": 0.0681818,
                "tempo": 120.0
            },
            {
                "start_time": 6.0545455,
                "end_time": 6.3318182,
                "pitch": 69,
                "velocity": 51,
                "duration": 0.2772727,
                "tempo": 120.0
            },
            {
                "start_time": 6.4454545,
                "end_time": 6.5159091,
                "pitch": 62,
                "velocity": 51,
                "duration": 0.0704545,
                "tempo": 120.0
            },
            {
                "start_time": 6.55,
                "end_time": 6.6181818,
                "pitch": 63,
                "velocity": 51,
                "duration": 0.0681818,
                "tempo": 120.0
            },
            {
                "start_time": 6.6522727,
                "end_time": 6.7204545,
                "pitch": 64,
                "velocity": 51,
                "duration": 0.0681818,
                "tempo": 120.0
            },
            {
                "start_time": 6.8568182,
                "end_time": 6.9363636,
                "pitch": 62,
                "velocity": 51,
                "duration": 0.0795455,
                "tempo": 120.0
            },
            {
                "start_time": 7.0522727,
                "end_time": 7.1340909,
                "pitch": 63,
                "velocity": 51,
                "duration": 0.0818182,
                "tempo": 120.0
            },
            {
                "start_time": 7.25,
                "end_time": 7.3181818,
                "pitch": 64,
                "velocity": 51,
                "duration": 0.0681818,
                "tempo": 120.0
            },
            {
                "start_time": 7.9636364,
                "end_time": 8.0954545,
                "pitch": 67,
                "velocity": 51,
                "duration": 0.1318182,
                "tempo": 120.0
            },
            {
                "start_time": 8.1613636,
                "end_time": 8.2272727,
                "pitch": 67,
                "velocity": 51,
                "duration": 0.0659091,
                "tempo": 120.0
            },
            {
                "start_time": 8.2590909,
                "end_time": 8.325,
                "pitch": 67,
                "velocity": 51,
                "duration": 0.0659091,
                "tempo": 120.0
            },
            {
                "start_time": 8.4568182,
                "end_time": 8.5909091,
                "pitch": 69,
                "velocity": 51,
                "duration": 0.1340909,
                "tempo": 120.0
            },
            {
                "start_time": 8.6568182,
                "end_time": 8.7909091,
                "pitch": 70,
                "velocity": 51,
                "duration": 0.1340909,
                "tempo": 120.0
            },
            {
                "start_time": 8.8590909,
                "end_time": 8.9272727,
                "pitch": 71,
                "velocity": 51,
                "duration": 0.0681818,
                "tempo": 120.0
            },
            {
                "start_time": 9.5704545,
                "end_time": 9.7045455,
                "pitch": 67,
                "velocity": 51,
                "duration": 0.1340909,
                "tempo": 120.0
            },
            {
                "start_time": 9.7727273,
                "end_time": 9.8386364,
                "pitch": 69,
                "velocity": 51,
                "duration": 0.0659091,
                "tempo": 120.0
            },
            {
                "start_time": 9.8727273,
                "end_time": 9.9386364,
                "pitch": 69,
                "velocity": 51,
                "duration": 0.0659091,
                "tempo": 120.0
            },
            {
                "start_time": 10.0727273,
                "end_time": 10.1386364,
                "pitch": 67,
                "velocity": 51,
                "duration": 0.0659091,
                "tempo": 120.0
            },
            {
                "start_time": 10.2727273,
                "end_time": 10.3409091,
                "pitch": 69,
                "velocity": 51,
                "duration": 0.0681818,
                "tempo": 120.0
            },
            {
                "start_time": 10.475,
                "end_time": 10.5431818,
                "pitch": 67,
                "velocity": 51,
                "duration": 0.0681818,
                "tempo": 120.0
            },
            {
                "start_time": 11.1795455,
                "end_time": 11.3136364,
                "pitch": 69,
                "velocity": 51,
                "duration": 0.1340909,
                "tempo": 120.0
            },
            {
                "start_time": 11.3772727,
                "end_time": 11.4431818,
                "pitch": 69,
                "velocity": 51,
                "duration": 0.0659091,
                "tempo": 120.0
            },
            {
                "start_time": 11.4772727,
                "end_time": 11.5409091,
                "pitch": 69,
                "velocity": 51,
                "duration": 0.0636364,
                "tempo": 120.0
            },
            {
                "start_time": 11.6727273,
                "end_time": 11.8090909,
                "pitch": 67,
                "velocity": 51,
                "duration": 0.1363636,
                "tempo": 120.0
            },
            {
                "start_time": 11.8772727,
                "end_time": 11.9454545,
                "pitch": 69,
                "velocity": 51,
                "duration": 0.0681818,
                "tempo": 120.0
            },
            {
                "start_time": 12.0840909,
                "end_time": 12.15,
                "pitch": 71,
                "velocity": 51,
                "duration": 0.0659091,
                "tempo": 120.0
            },
            {
                "start_time": 12.4863636,
                "end_time": 12.7863636,
                "pitch": 69,
                "velocity": 51,
                "duration": 0.3,
                "tempo": 120.0
            },
            {
                "start_time": 12.8863636,
                "end_time": 12.9704545,
                "pitch": 62,
                "velocity": 51,
                "duration": 0.0840909,
                "tempo": 120.0
            },
            {
                "start_time": 12.9863636,
                "end_time": 13.0704545,
                "pitch": 63,
                "velocity": 51,
                "duration": 0.0840909,
                "tempo": 120.0
            },
            {
                "start_time": 13.0886364,
                "end_time": 13.1727273,
                "pitch": 64,
                "velocity": 51,
                "duration": 0.0840909,
                "tempo": 120.0
            },
            {
                "start_time": 13.2886364,
                "end_time": 13.3704545,
                "pitch": 62,
                "velocity": 51,
                "duration": 0.0818182,
                "tempo": 120.0
            },
            {
                "start_time": 13.4863636,
                "end_time": 13.5659091,
                "pitch": 63,
                "velocity": 51,
                "duration": 0.0795455,
                "tempo": 120.0
            },
            {
                "start_time": 13.6840909,
                "end_time": 13.7522727,
                "pitch": 64,
                "velocity": 51,
                "duration": 0.0681818,
                "tempo": 120.0
            },
            {
                "start_time": 14.3954545,
                "end_time": 14.5295455,
                "pitch": 67,
                "velocity": 51,
                "duration": 0.1340909,
                "tempo": 120.0
            },
            {
                "start_time": 14.5954545,
                "end_time": 14.6613636,
                "pitch": 67,
                "velocity": 51,
                "duration": 0.0659091,
                "tempo": 120.0
            },
            {
                "start_time": 14.6931818,
                "end_time": 14.7590909,
                "pitch": 67,
                "velocity": 51,
                "duration": 0.0659091,
                "tempo": 120.0
            },
            {
                "start_time": 14.8886364,
                "end_time": 15.025,
                "pitch": 69,
                "velocity": 51,
                "duration": 0.1363636,
                "tempo": 120.0
            },
            {
                "start_time": 15.0954545,
                "end_time": 15.2318182,
                "pitch": 70,
                "velocity": 51,
                "duration": 0.1363636,
                "tempo": 120.0
            },
            {
                "start_time": 15.3,
                "end_time": 15.3681818,
                "pitch": 71,
                "velocity": 51,
                "duration": 0.0681818,
                "tempo": 120.0
            },
            {
                "start_time": 16.0022727,
                "end_time": 16.1363636,
                "pitch": 67,
                "velocity": 51,
                "duration": 0.1340909,
                "tempo": 120.0
            },
            {
                "start_time": 16.2045455,
                "end_time": 16.2704545,
                "pitch": 69,
                "velocity": 51,
                "duration": 0.0659091,
                "tempo": 120.0
            },
            {
                "start_time": 16.3045455,
                "end_time": 16.3704545,
                "pitch": 69,
                "velocity": 51,
                "duration": 0.0659091,
                "tempo": 120.0
            },
            {
                "start_time": 16.5045455,
                "end_time": 16.5727273,
                "pitch": 67,
                "velocity": 51,
                "duration": 0.0681818,
                "tempo": 120.0
            },
            {
                "start_time": 16.7068182,
                "end_time": 16.775,
                "pitch": 69,
                "velocity": 51,
                "duration": 0.0681818,
                "tempo": 120.0
            },
            {
                "start_time": 16.9090909,
                "end_time": 16.975,
                "pitch": 67,
                "velocity": 51,
                "duration": 0.0659091,
                "tempo": 120.0
            },
            {
                "start_time": 17.6090909,
                "end_time": 17.7409091,
                "pitch": 69,
                "velocity": 51,
                "duration": 0.1318182,
                "tempo": 120.0
            },
            {
                "start_time": 17.8068182,
                "end_time": 17.8704545,
                "pitch": 69,
                "velocity": 51,
                "duration": 0.0636364,
                "tempo": 120.0
            },
            {
                "start_time": 17.9045455,
                "end_time": 17.9704545,
                "pitch": 69,
                "velocity": 51,
                "duration": 0.0659091,
                "tempo": 120.0
            },
            {
                "start_time": 18.1,
                "end_time": 18.2363636,
                "pitch": 67,
                "velocity": 51,
                "duration": 0.1363636,
                "tempo": 120.0
            },
            {
                "start_time": 18.3068182,
                "end_time": 18.375,
                "pitch": 69,
                "velocity": 51,
                "duration": 0.0681818,
                "tempo": 120.0
            },
            {
                "start_time": 18.5113636,
                "end_time": 18.5795455,
                "pitch": 71,
                "velocity": 51,
                "duration": 0.0681818,
                "tempo": 120.0
            },
            {
                "start_time": 18.9136364,
                "end_time": 19.2113636,
                "pitch": 69,
                "velocity": 51,
                "duration": 0.2977273,
                "tempo": 120.0
            },
            {
                "start_time": 19.3113636,
                "end_time": 19.4113636,
                "pitch": 62,
                "velocity": 51,
                "duration": 0.1,
                "tempo": 120.0
            },
            {
                "start_time": 19.4295455,
                "end_time": 19.5113636,
                "pitch": 63,
                "velocity": 51,
                "duration": 0.0818182,
                "tempo": 120.0
            },
            {
                "start_time": 19.5295455,
                "end_time": 19.6113636,
                "pitch": 64,
                "velocity": 51,
                "duration": 0.0818182,
                "tempo": 120.0
            },
            {
                "start_time": 19.7295455,
                "end_time": 19.8136364,
                "pitch": 62,
                "velocity": 51,
                "duration": 0.0840909,
                "tempo": 120.0
            },
            {
                "start_time": 19.9340909,
                "end_time": 20.0204545,
                "pitch": 63,
                "velocity": 51,
                "duration": 0.0863636,
                "tempo": 120.0
            },
            {
                "start_time": 20.1431818,
                "end_time": 20.2113636,
                "pitch": 64,
                "velocity": 51,
                "duration": 0.0681818,
                "tempo": 120.0
            },
            {
                "start_time": 20.8545455,
                "end_time": 20.9886364,
                "pitch": 67,
                "velocity": 51,
                "duration": 0.1340909,
                "tempo": 120.0
            },
            {
                "start_time": 21.0545455,
                "end_time": 21.1181818,
                "pitch": 67,
                "velocity": 51,
                "duration": 0.0636364,
                "tempo": 120.0
            },
            {
                "start_time": 21.1522727,
                "end_time": 21.2159091,
                "pitch": 67,
                "velocity": 51,
                "duration": 0.0636364,
                "tempo": 120.0
            },
            {
                "start_time": 21.3477273,
                "end_time": 21.4840909,
                "pitch": 69,
                "velocity": 51,
                "duration": 0.1363636,
                "tempo": 120.0
            },
            {
                "start_time": 21.5522727,
                "end_time": 21.6909091,
                "pitch": 70,
                "velocity": 51,
                "duration": 0.1386364,
                "tempo": 120.0
            },
            {
                "start_time": 21.7590909,
                "end_time": 21.8272727,
                "pitch": 71,
                "velocity": 51,
                "duration": 0.0681818,
                "tempo": 120.0
            },
            {
                "start_time": 22.4613636,
                "end_time": 22.5954545,
                "pitch": 67,
                "velocity": 51,
                "duration": 0.1340909,
                "tempo": 120.0
            },
            {
                "start_time": 22.6613636,
                "end_time": 22.7295455,
                "pitch": 69,
                "velocity": 51,
                "duration": 0.0681818,
                "tempo": 120.0
            },
            {
                "start_time": 22.7636364,
                "end_time": 22.8295455,
                "pitch": 69,
                "velocity": 51,
                "duration": 0.0659091,
                "tempo": 120.0
            },
            {
                "start_time": 22.9636364,
                "end_time": 23.0318182,
                "pitch": 67,
                "velocity": 51,
                "duration": 0.0681818,
                "tempo": 120.0
            },
            {
                "start_time": 23.1636364,
                "end_time": 23.2318182,
                "pitch": 69,
                "velocity": 51,
                "duration": 0.0681818,
                "tempo": 120.0
            },
            {
                "start_time": 23.3636364,
                "end_time": 23.4318182,
                "pitch": 67,
                "velocity": 51,
                "duration": 0.0681818,
                "tempo": 120.0
            },
            {
                "start_time": 24.0659091,
                "end_time": 24.2,
                "pitch": 69,
                "velocity": 51,
                "duration": 0.1340909,
                "tempo": 120.0
            },
            {
                "start_time": 24.2659091,
                "end_time": 24.3295455,
                "pitch": 69,
                "velocity": 51,
                "duration": 0.0636364,
                "tempo": 120.0
            },
            {
                "start_time": 24.3636364,
                "end_time": 24.4272727,
                "pitch": 69,
                "velocity": 51,
                "duration": 0.0636364,
                "tempo": 120.0
            },
            {
                "start_time": 24.5590909,
                "end_time": 24.6954545,
                "pitch": 67,
                "velocity": 51,
                "duration": 0.1363636,
                "tempo": 120.0
            },
            {
                "start_time": 24.7636364,
                "end_time": 24.8318182,
                "pitch": 69,
                "velocity": 51,
                "duration": 0.0681818,
                "tempo": 120.0
            },
            {
                "start_time": 24.9704545,
                "end_time": 25.0363636,
                "pitch": 71,
                "velocity": 51,
                "duration": 0.0659091,
                "tempo": 120.0
            },
            {
                "start_time": 25.3522727,
                "end_time": 25.6772727,
                "pitch": 69,
                "velocity": 51,
                "duration": 0.325,
                "tempo": 120.0
            },
            {
                "start_time": 25.7772727,
                "end_time": 25.8636364,
                "pitch": 62,
                "velocity": 51,
                "duration": 0.0863636,
                "tempo": 120.0
            },
            {
                "start_time": 25.8818182,
                "end_time": 25.9704545,
                "pitch": 63,
                "velocity": 51,
                "duration": 0.0886364,
                "tempo": 120.0
            },
            {
                "start_time": 25.9886364,
                "end_time": 26.075,
                "pitch": 64,
                "velocity": 51,
                "duration": 0.0863636,
                "tempo": 120.0
            },
            {
                "start_time": 26.2,
                "end_time": 26.2818182,
                "pitch": 62,
                "velocity": 51,
                "duration": 0.0818182,
                "tempo": 120.0
            },
            {
                "start_time": 26.4,
                "end_time": 26.4840909,
                "pitch": 63,
                "velocity": 51,
                "duration": 0.0840909,
                "tempo": 120.0
            },
            {
                "start_time": 26.6045455,
                "end_time": 26.6704545,
                "pitch": 64,
                "velocity": 51,
                "duration": 0.0659091,
                "tempo": 120.0
            },
            {
                "start_time": 27.3113636,
                "end_time": 27.4477273,
                "pitch": 67,
                "velocity": 51,
                "duration": 0.1363636,
                "tempo": 120.0
            },
            {
                "start_time": 27.5113636,
                "end_time": 27.5772727,
                "pitch": 67,
                "velocity": 51,
                "duration": 0.0659091,
                "tempo": 120.0
            },
            {
                "start_time": 27.6113636,
                "end_time": 27.675,
                "pitch": 67,
                "velocity": 51,
                "duration": 0.0636364,
                "tempo": 120.0
            },
            {
                "start_time": 27.8068182,
                "end_time": 27.9409091,
                "pitch": 69,
                "velocity": 51,
                "duration": 0.1340909,
                "tempo": 120.0
            },
            {
                "start_time": 28.0068182,
                "end_time": 28.1409091,
                "pitch": 70,
                "velocity": 51,
                "duration": 0.1340909,
                "tempo": 120.0
            },
            {
                "start_time": 28.2068182,
                "end_time": 28.275,
                "pitch": 71,
                "velocity": 51,
                "duration": 0.0681818,
                "tempo": 120.0
            },
            {
                "start_time": 28.9113636,
                "end_time": 29.0431818,
                "pitch": 67,
                "velocity": 51,
                "duration": 0.1318182,
                "tempo": 120.0
            },
            {
                "start_time": 29.1113636,
                "end_time": 29.1772727,
                "pitch": 69,
                "velocity": 51,
                "duration": 0.0659091,
                "tempo": 120.0
            },
            {
                "start_time": 29.2113636,
                "end_time": 29.2772727,
                "pitch": 69,
                "velocity": 51,
                "duration": 0.0659091,
                "tempo": 120.0
            },
            {
                "start_time": 29.4113636,
                "end_time": 29.4795455,
                "pitch": 67,
                "velocity": 51,
                "duration": 0.0681818,
                "tempo": 120.0
            },
            {
                "start_time": 29.6113636,
                "end_time": 29.6795455,
                "pitch": 69,
                "velocity": 51,
                "duration": 0.0681818,
                "tempo": 120.0
            },
            {
                "start_time": 29.8113636,
                "end_time": 29.8795455,
                "pitch": 67,
                "velocity": 51,
                "duration": 0.0681818,
                "tempo": 120.0
            },
            {
                "start_time": 30.5204545,
                "end_time": 30.6545455,
                "pitch": 69,
                "velocity": 51,
                "duration": 0.1340909,
                "tempo": 120.0
            },
            {
                "start_time": 30.7181818,
                "end_time": 30.7818182,
                "pitch": 69,
                "velocity": 51,
                "duration": 0.0636364,
                "tempo": 120.0
            },
            {
                "start_time": 30.8136364,
                "end_time": 30.8772727,
                "pitch": 69,
                "velocity": 51,
                "duration": 0.0636364,
                "tempo": 120.0
            },
            {
                "start_time": 31.0045455,
                "end_time": 31.1409091,
                "pitch": 67,
                "velocity": 51,
                "duration": 0.1363636,
                "tempo": 120.0
            },
            {
                "start_time": 31.2090909,
                "end_time": 31.2795455,
                "pitch": 69,
                "velocity": 51,
                "duration": 0.0704545,
                "tempo": 120.0
            },
            {
                "start_time": 31.4159091,
                "end_time": 31.4818182,
                "pitch": 71,
                "velocity": 51,
                "duration": 0.0659091,
                "tempo": 120.0
            },
            {
                "start_time": 31.8,
                "end_time": 32.0931818,
                "pitch": 69,
                "velocity": 51,
                "duration": 0.2931818,
                "tempo": 120.0
            },
            {
                "start_time": 32.2068182,
                "end_time": 32.2772727,
                "pitch": 62,
                "velocity": 51,
                "duration": 0.0704545,
                "tempo": 120.0
            },
            {
                "start_time": 32.3113636,
                "end_time": 32.3795455,
                "pitch": 63,
                "velocity": 51,
                "duration": 0.0681818,
                "tempo": 120.0
            },
            {
                "start_time": 32.4136364,
                "end_time": 32.4818182,
                "pitch": 64,
                "velocity": 51,
                "duration": 0.0681818,
                "tempo": 120.0
            },
            {
                "start_time": 32.6159091,
                "end_time": 32.7,
                "pitch": 62,
                "velocity": 51,
                "duration": 0.0840909,
                "tempo": 120.0
            },
            {
                "start_time": 32.8181818,
                "end_time": 32.9022727,
                "pitch": 63,
                "velocity": 51,
                "duration": 0.0840909,
                "tempo": 120.0
            },
            {
                "start_time": 33.0227273,
                "end_time": 33.0886364,
                "pitch": 64,
                "velocity": 51,
                "duration": 0.0659091,
                "tempo": 120.0
            },
            {
                "start_time": 33.7295455,
                "end_time": 33.8636364,
                "pitch": 67,
                "velocity": 51,
                "duration": 0.1340909,
                "tempo": 120.0
            },
            {
                "start_time": 33.9295455,
                "end_time": 33.9954545,
                "pitch": 67,
                "velocity": 51,
                "duration": 0.0659091,
                "tempo": 120.0
            },
            {
                "start_time": 34.0272727,
                "end_time": 34.0931818,
                "pitch": 67,
                "velocity": 51,
                "duration": 0.0659091,
                "tempo": 120.0
            },
            {
                "start_time": 34.225,
                "end_time": 34.3568182,
                "pitch": 69,
                "velocity": 51,
                "duration": 0.1318182,
                "tempo": 120.0
            },
            {
                "start_time": 34.425,
                "end_time": 34.5568182,
                "pitch": 70,
                "velocity": 51,
                "duration": 0.1318182,
                "tempo": 120.0
            },
            {
                "start_time": 34.625,
                "end_time": 34.6931818,
                "pitch": 71,
                "velocity": 51,
                "duration": 0.0681818,
                "tempo": 120.0
            },
            {
                "start_time": 35.3295455,
                "end_time": 35.4613636,
                "pitch": 67,
                "velocity": 51,
                "duration": 0.1318182,
                "tempo": 120.0
            },
            {
                "start_time": 35.5272727,
                "end_time": 35.5931818,
                "pitch": 69,
                "velocity": 51,
                "duration": 0.0659091,
                "tempo": 120.0
            },
            {
                "start_time": 35.6272727,
                "end_time": 35.6931818,
                "pitch": 69,
                "velocity": 51,
                "duration": 0.0659091,
                "tempo": 120.0
            },
            {
                "start_time": 35.8272727,
                "end_time": 35.8954545,
                "pitch": 67,
                "velocity": 51,
                "duration": 0.0681818,
                "tempo": 120.0
            },
            {
                "start_time": 36.0318182,
                "end_time": 36.1,
                "pitch": 69,
                "velocity": 51,
                "duration": 0.0681818,
                "tempo": 120.0
            },
            {
                "start_time": 36.2386364,
                "end_time": 36.3022727,
                "pitch": 67,
                "velocity": 51,
                "duration": 0.0636364,
                "tempo": 120.0
            },
            {
                "start_time": 36.9386364,
                "end_time": 37.0704545,
                "pitch": 69,
                "velocity": 51,
                "duration": 0.1318182,
                "tempo": 120.0
            },
            {
                "start_time": 37.1363636,
                "end_time": 37.2,
                "pitch": 69,
                "velocity": 51,
                "duration": 0.0636364,
                "tempo": 120.0
            },
            {
                "start_time": 37.2318182,
                "end_time": 37.2954545,
                "pitch": 69,
                "velocity": 51,
                "duration": 0.0636364,
                "tempo": 120.0
            },
            {
                "start_time": 37.4227273,
                "end_time": 37.4909091,
                "pitch": 74,
                "velocity": 51,
                "duration": 0.0681818,
                "tempo": 120.0
            },
            {
                "start_time": 37.8340909,
                "end_time": 38.1340909,
                "pitch": 71,
                "velocity": 51,
                "duration": 0.3,
                "tempo": 120.0
            },
            {
                "start_time": 38.2159091,
                "end_time": 38.525,
                "pitch": 63,
                "velocity": 51,
                "duration": 0.3090909,
                "tempo": 120.0
            },
            {
                "start_time": 38.6227273,
                "end_time": 40.8318182,
                "pitch": 64,
                "velocity": 51,
                "duration": 2.2090909,
                "tempo": 120.0
            },
            {
                "start_time": 40.8318182,
                "end_time": 40.9340909,
                "pitch": 64,
                "velocity": 51,
                "duration": 0.1022727,
                "tempo": 120.0
            },
            {
                "start_time": 41.0409091,
                "end_time": 41.3477273,
                "pitch": 67,
                "velocity": 51,
                "duration": 0.3068182,
                "tempo": 120.0
            },
            {
                "start_time": 41.3477273,
                "end_time": 41.65,
                "pitch": 65,
                "velocity": 51,
                "duration": 0.3022727,
                "tempo": 120.0
            },
            {
                "start_time": 41.65,
                "end_time": 41.75,
                "pitch": 65,
                "velocity": 51,
                "duration": 0.1,
                "tempo": 120.0
            },
            {
                "start_time": 41.85,
                "end_time": 43.3545455,
                "pitch": 64,
                "velocity": 51,
                "duration": 1.5045455,
                "tempo": 120.0
            },
            {
                "start_time": 43.3545455,
                "end_time": 44.6590909,
                "pitch": 69,
                "velocity": 51,
                "duration": 1.3045455,
                "tempo": 120.0
            },
            {
                "start_time": 44.6590909,
                "end_time": 45.0522727,
                "pitch": 63,
                "velocity": 51,
                "duration": 0.3931818,
                "tempo": 120.0
            },
            {
                "start_time": 45.0522727,
                "end_time": 47.2545455,
                "pitch": 63,
                "velocity": 51,
                "duration": 2.2022727,
                "tempo": 120.0
            },
            {
                "start_time": 47.2545455,
                "end_time": 47.3545455,
                "pitch": 64,
                "velocity": 51,
                "duration": 0.1,
                "tempo": 120.0
            },
            {
                "start_time": 47.4545455,
                "end_time": 47.7636364,
                "pitch": 67,
                "velocity": 51,
                "duration": 0.3090909,
                "tempo": 120.0
            },
            {
                "start_time": 47.7636364,
                "end_time": 48.0659091,
                "pitch": 65,
                "velocity": 51,
                "duration": 0.3022727,
                "tempo": 120.0
            },
            {
                "start_time": 48.0659091,
                "end_time": 48.1659091,
                "pitch": 65,
                "velocity": 51,
                "duration": 0.1,
                "tempo": 120.0
            },
            {
                "start_time": 48.2659091,
                "end_time": 49.8704545,
                "pitch": 64,
                "velocity": 51,
                "duration": 1.6045455,
                "tempo": 120.0
            },
            {
                "start_time": 51.4659091,
                "end_time": 51.7659091,
                "pitch": 57,
                "velocity": 51,
                "duration": 0.3,
                "tempo": 120.0
            },
            {
                "start_time": 51.7659091,
                "end_time": 51.9659091,
                "pitch": 57,
                "velocity": 51,
                "duration": 0.2,
                "tempo": 120.0
            },
            {
                "start_time": 51.9659091,
                "end_time": 52.0659091,
                "pitch": 59,
                "velocity": 51,
                "duration": 0.1,
                "tempo": 120.0
            },
            {
                "start_time": 52.0659091,
                "end_time": 52.2659091,
                "pitch": 60,
                "velocity": 51,
                "duration": 0.2,
                "tempo": 120.0
            },
            {
                "start_time": 52.2659091,
                "end_time": 52.5659091,
                "pitch": 62,
                "velocity": 51,
                "duration": 0.3,
                "tempo": 120.0
            },
            {
                "start_time": 52.5659091,
                "end_time": 52.7863636,
                "pitch": 62,
                "velocity": 51,
                "duration": 0.2204545,
                "tempo": 120.0
            },
            {
                "start_time": 52.7863636,
                "end_time": 52.8704545,
                "pitch": 64,
                "velocity": 51,
                "duration": 0.0840909,
                "tempo": 120.0
            },
            {
                "start_time": 52.8704545,
                "end_time": 53.0772727,
                "pitch": 64,
                "velocity": 51,
                "duration": 0.2068182,
                "tempo": 120.0
            },
            {
                "start_time": 53.0772727,
                "end_time": 53.3704545,
                "pitch": 67,
                "velocity": 51,
                "duration": 0.2931818,
                "tempo": 120.0
            },
            {
                "start_time": 53.3704545,
                "end_time": 53.675,
                "pitch": 69,
                "velocity": 51,
                "duration": 0.3045455,
                "tempo": 120.0
            },
            {
                "start_time": 53.675,
                "end_time": 53.8818182,
                "pitch": 71,
                "velocity": 51,
                "duration": 0.2068182,
                "tempo": 120.0
            },
            {
                "start_time": 53.8818182,
                "end_time": 54.1795455,
                "pitch": 72,
                "velocity": 51,
                "duration": 0.2977273,
                "tempo": 120.0
            },
            {
                "start_time": 54.1795455,
                "end_time": 54.2636364,
                "pitch": 72,
                "velocity": 51,
                "duration": 0.0840909,
                "tempo": 120.0
            },
            {
                "start_time": 54.2636364,
                "end_time": 54.2795455,
                "pitch": 72,
                "velocity": 51,
                "duration": 0.0159091,
                "tempo": 120.0
            },
            {
                "start_time": 54.2795455,
                "end_time": 54.6818182,
                "pitch": 74,
                "velocity": 51,
                "duration": 0.4022727,
                "tempo": 120.0
            },
            {
                "start_time": 54.6818182,
                "end_time": 57.8863636,
                "pitch": 71,
                "velocity": 51,
                "duration": 3.2045455,
                "tempo": 120.0
            },
            {
                "start_time": 57.8863636,
                "end_time": 58.1863636,
                "pitch": 57,
                "velocity": 51,
                "duration": 0.3,
                "tempo": 120.0
            },
            {
                "start_time": 58.1863636,
                "end_time": 58.3840909,
                "pitch": 57,
                "velocity": 51,
                "duration": 0.1977273,
                "tempo": 120.0
            },
            {
                "start_time": 58.3840909,
                "end_time": 58.4818182,
                "pitch": 59,
                "velocity": 51,
                "duration": 0.0977273,
                "tempo": 120.0
            },
            {
                "start_time": 58.4818182,
                "end_time": 58.6795455,
                "pitch": 60,
                "velocity": 51,
                "duration": 0.1977273,
                "tempo": 120.0
            },
            {
                "start_time": 58.6795455,
                "end_time": 58.9863636,
                "pitch": 62,
                "velocity": 51,
                "duration": 0.3068182,
                "tempo": 120.0
            },
            {
                "start_time": 58.9863636,
                "end_time": 59.2068182,
                "pitch": 62,
                "velocity": 51,
                "duration": 0.2204545,
                "tempo": 120.0
            },
            {
                "start_time": 59.2068182,
                "end_time": 59.2886364,
                "pitch": 64,
                "velocity": 51,
                "duration": 0.0818182,
                "tempo": 120.0
            },
            {
                "start_time": 59.2886364,
                "end_time": 59.4909091,
                "pitch": 64,
                "velocity": 51,
                "duration": 0.2022727,
                "tempo": 120.0
            },
            {
                "start_time": 59.4909091,
                "end_time": 59.7886364,
                "pitch": 67,
                "velocity": 51,
                "duration": 0.2977273,
                "tempo": 120.0
            },
            {
                "start_time": 59.7886364,
                "end_time": 60.0886364,
                "pitch": 69,
                "velocity": 51,
                "duration": 0.3,
                "tempo": 120.0
            },
            {
                "start_time": 60.0886364,
                "end_time": 60.2909091,
                "pitch": 71,
                "velocity": 51,
                "duration": 0.2022727,
                "tempo": 120.0
            },
            {
                "start_time": 60.2909091,
                "end_time": 60.5909091,
                "pitch": 72,
                "velocity": 51,
                "duration": 0.3,
                "tempo": 120.0
            },
            {
                "start_time": 60.5909091,
                "end_time": 60.675,
                "pitch": 72,
                "velocity": 51,
                "duration": 0.0840909,
                "tempo": 120.0
            },
            {
                "start_time": 60.675,
                "end_time": 60.6931818,
                "pitch": 72,
                "velocity": 51,
                "duration": 0.0181818,
                "tempo": 120.0
            },
            {
                "start_time": 60.6931818,
                "end_time": 61.0931818,
                "pitch": 74,
                "velocity": 51,
                "duration": 0.4,
                "tempo": 120.0
            },
            {
                "start_time": 61.0931818,
                "end_time": 61.1931818,
                "pitch": 71,
                "velocity": 51,
                "duration": 0.1,
                "tempo": 120.0
            },
            {
                "start_time": 61.1931818,
                "end_time": 61.2931818,
                "pitch": 71,
                "velocity": 51,
                "duration": 0.1,
                "tempo": 120.0
            },
            {
                "start_time": 61.2931818,
                "end_time": 61.3931818,
                "pitch": 71,
                "velocity": 51,
                "duration": 0.1,
                "tempo": 120.0
            },
            {
                "start_time": 61.6931818,
                "end_time": 61.7931818,
                "pitch": 71,
                "velocity": 51,
                "duration": 0.1,
                "tempo": 120.0
            },
            {
                "start_time": 61.7931818,
                "end_time": 61.8931818,
                "pitch": 71,
                "velocity": 51,
                "duration": 0.1,
                "tempo": 120.0
            },
            {
                "start_time": 61.8931818,
                "end_time": 61.9931818,
                "pitch": 71,
                "velocity": 51,
                "duration": 0.1,
                "tempo": 120.0
            },
            {
                "start_time": 62.6954545,
                "end_time": 62.7954545,
                "pitch": 71,
                "velocity": 51,
                "duration": 0.1,
                "tempo": 120.0
            },
            {
                "start_time": 62.7954545,
                "end_time": 62.8954545,
                "pitch": 71,
                "velocity": 51,
                "duration": 0.1,
                "tempo": 120.0
            },
            {
                "start_time": 62.8954545,
                "end_time": 62.9954545,
                "pitch": 71,
                "velocity": 51,
                "duration": 0.1,
                "tempo": 120.0
            },
            {
                "start_time": 63.2954545,
                "end_time": 63.3954545,
                "pitch": 71,
                "velocity": 51,
                "duration": 0.1,
                "tempo": 120.0
            },
            {
                "start_time": 63.3954545,
                "end_time": 63.4954545,
                "pitch": 71,
                "velocity": 51,
                "duration": 0.1,
                "tempo": 120.0
            },
            {
                "start_time": 63.4954545,
                "end_time": 63.5954545,
                "pitch": 71,
                "velocity": 51,
                "duration": 0.1,
                "tempo": 120.0
            },
            {
                "start_time": 63.8954545,
                "end_time": 63.9931818,
                "pitch": 71,
                "velocity": 51,
                "duration": 0.0977273,
                "tempo": 120.0
            },
            {
                "start_time": 63.9931818,
                "end_time": 64.0909091,
                "pitch": 69,
                "velocity": 51,
                "duration": 0.0977273,
                "tempo": 120.0
            },
            {
                "start_time": 64.0909091,
                "end_time": 64.1886364,
                "pitch": 67,
                "velocity": 51,
                "duration": 0.0977273,
                "tempo": 120.0
            },
            {
                "start_time": 64.1886364,
                "end_time": 64.2863636,
                "pitch": 65,
                "velocity": 51,
                "duration": 0.0977273,
                "tempo": 120.0
            },
            {
                "start_time": 64.2863636,
                "end_time": 64.3886364,
                "pitch": 62,
                "velocity": 51,
                "duration": 0.1022727,
                "tempo": 120.0
            },
            {
                "start_time": 64.3886364,
                "end_time": 64.4931818,
                "pitch": 62,
                "velocity": 51,
                "duration": 0.1045455,
                "tempo": 120.0
            },
            {
                "start_time": 64.4931818,
                "end_time": 64.5954545,
                "pitch": 63,
                "velocity": 51,
                "duration": 0.1022727,
                "tempo": 120.0
            },
            {
                "start_time": 64.6977273,
                "end_time": 64.7977273,
                "pitch": 62,
                "velocity": 51,
                "duration": 0.1,
                "tempo": 120.0
            },
            {
                "start_time": 64.8977273,
                "end_time": 64.9977273,
                "pitch": 63,
                "velocity": 51,
                "duration": 0.1,
                "tempo": 120.0
            },
            {
                "start_time": 65.1,
                "end_time": 65.2,
                "pitch": 64,
                "velocity": 51,
                "duration": 0.1,
                "tempo": 120.0
            },
            {
                "start_time": 65.8022727,
                "end_time": 66.0022727,
                "pitch": 67,
                "velocity": 51,
                "duration": 0.2,
                "tempo": 120.0
            },
            {
                "start_time": 66.0022727,
                "end_time": 66.1,
                "pitch": 67,
                "velocity": 51,
                "duration": 0.0977273,
                "tempo": 120.0
            },
            {
                "start_time": 66.1,
                "end_time": 66.1977273,
                "pitch": 67,
                "velocity": 51,
                "duration": 0.0977273,
                "tempo": 120.0
            },
            {
                "start_time": 66.2954545,
                "end_time": 66.4954545,
                "pitch": 69,
                "velocity": 51,
                "duration": 0.2,
                "tempo": 120.0
            },
            {
                "start_time": 66.4954545,
                "end_time": 66.6977273,
                "pitch": 69,
                "velocity": 51,
                "duration": 0.2022727,
                "tempo": 120.0
            },
            {
                "start_time": 66.6977273,
                "end_time": 66.8,
                "pitch": 70,
                "velocity": 51,
                "duration": 0.1022727,
                "tempo": 120.0
            },
            {
                "start_time": 67.4090909,
                "end_time": 67.6090909,
                "pitch": 67,
                "velocity": 51,
                "duration": 0.2,
                "tempo": 120.0
            },
            {
                "start_time": 67.6090909,
                "end_time": 67.7113636,
                "pitch": 69,
                "velocity": 51,
                "duration": 0.1022727,
                "tempo": 120.0
            },
            {
                "start_time": 67.7113636,
                "end_time": 67.8113636,
                "pitch": 69,
                "velocity": 51,
                "duration": 0.1,
                "tempo": 120.0
            },
            {
                "start_time": 67.9113636,
                "end_time": 68.0113636,
                "pitch": 67,
                "velocity": 51,
                "duration": 0.1,
                "tempo": 120.0
            },
            {
                "start_time": 68.1113636,
                "end_time": 68.2113636,
                "pitch": 69,
                "velocity": 51,
                "duration": 0.1,
                "tempo": 120.0
            },
            {
                "start_time": 68.3113636,
                "end_time": 68.4136364,
                "pitch": 67,
                "velocity": 51,
                "duration": 0.1022727,
                "tempo": 120.0
            },
            {
                "start_time": 69.0159091,
                "end_time": 69.2136364,
                "pitch": 69,
                "velocity": 51,
                "duration": 0.1977273,
                "tempo": 120.0
            },
            {
                "start_time": 69.2136364,
                "end_time": 69.3113636,
                "pitch": 69,
                "velocity": 51,
                "duration": 0.0977273,
                "tempo": 120.0
            },
            {
                "start_time": 69.3113636,
                "end_time": 69.4090909,
                "pitch": 69,
                "velocity": 51,
                "duration": 0.0977273,
                "tempo": 120.0
            },
            {
                "start_time": 69.5068182,
                "end_time": 69.7113636,
                "pitch": 67,
                "velocity": 51,
                "duration": 0.2045455,
                "tempo": 120.0
            },
            {
                "start_time": 69.7113636,
                "end_time": 69.8159091,
                "pitch": 69,
                "velocity": 51,
                "duration": 0.1045455,
                "tempo": 120.0
            },
            {
                "start_time": 69.9181818,
                "end_time": 70.0181818,
                "pitch": 71,
                "velocity": 51,
                "duration": 0.1,
                "tempo": 120.0
            },
            {
                "start_time": 70.3181818,
                "end_time": 70.7204545,
                "pitch": 69,
                "velocity": 51,
                "duration": 0.4022727,
                "tempo": 120.0
            },
            {
                "start_time": 70.7204545,
                "end_time": 70.8204545,
                "pitch": 62,
                "velocity": 51,
                "duration": 0.1,
                "tempo": 120.0
            },
            {
                "start_time": 70.8204545,
                "end_time": 70.9204545,
                "pitch": 62,
                "velocity": 51,
                "duration": 0.1,
                "tempo": 120.0
            },
            {
                "start_time": 70.9204545,
                "end_time": 71.0204545,
                "pitch": 63,
                "velocity": 51,
                "duration": 0.1,
                "tempo": 120.0
            },
            {
                "start_time": 71.1204545,
                "end_time": 71.2204545,
                "pitch": 62,
                "velocity": 51,
                "duration": 0.1,
                "tempo": 120.0
            },
            {
                "start_time": 71.3227273,
                "end_time": 71.4227273,
                "pitch": 63,
                "velocity": 51,
                "duration": 0.1,
                "tempo": 120.0
            },
            {
                "start_time": 71.525,
                "end_time": 71.625,
                "pitch": 64,
                "velocity": 51,
                "duration": 0.1,
                "tempo": 120.0
            },
            {
                "start_time": 72.2272727,
                "end_time": 72.425,
                "pitch": 67,
                "velocity": 51,
                "duration": 0.1977273,
                "tempo": 120.0
            },
            {
                "start_time": 72.425,
                "end_time": 72.5227273,
                "pitch": 67,
                "velocity": 51,
                "duration": 0.0977273,
                "tempo": 120.0
            },
            {
                "start_time": 72.5227273,
                "end_time": 72.6204545,
                "pitch": 67,
                "velocity": 51,
                "duration": 0.0977273,
                "tempo": 120.0
            },
            {
                "start_time": 72.7181818,
                "end_time": 72.9227273,
                "pitch": 69,
                "velocity": 51,
                "duration": 0.2045455,
                "tempo": 120.0
            },
            {
                "start_time": 72.9227273,
                "end_time": 73.1295455,
                "pitch": 69,
                "velocity": 51,
                "duration": 0.2068182,
                "tempo": 120.0
            },
            {
                "start_time": 73.1295455,
                "end_time": 73.2318182,
                "pitch": 70,
                "velocity": 51,
                "duration": 0.1022727,
                "tempo": 120.0
            },
            {
                "start_time": 73.8340909,
                "end_time": 74.0340909,
                "pitch": 67,
                "velocity": 51,
                "duration": 0.2,
                "tempo": 120.0
            },
            {
                "start_time": 74.0340909,
                "end_time": 74.1340909,
                "pitch": 69,
                "velocity": 51,
                "duration": 0.1,
                "tempo": 120.0
            },
            {
                "start_time": 74.1340909,
                "end_time": 74.2340909,
                "pitch": 69,
                "velocity": 51,
                "duration": 0.1,
                "tempo": 120.0
            },
            {
                "start_time": 74.3340909,
                "end_time": 74.4363636,
                "pitch": 67,
                "velocity": 51,
                "duration": 0.1022727,
                "tempo": 120.0
            },
            {
                "start_time": 74.5363636,
                "end_time": 74.6363636,
                "pitch": 69,
                "velocity": 51,
                "duration": 0.1,
                "tempo": 120.0
            },
            {
                "start_time": 74.7363636,
                "end_time": 74.8363636,
                "pitch": 67,
                "velocity": 51,
                "duration": 0.1,
                "tempo": 120.0
            },
            {
                "start_time": 75.4386364,
                "end_time": 75.6386364,
                "pitch": 69,
                "velocity": 51,
                "duration": 0.2,
                "tempo": 120.0
            },
            {
                "start_time": 75.6386364,
                "end_time": 75.7363636,
                "pitch": 69,
                "velocity": 51,
                "duration": 0.0977273,
                "tempo": 120.0
            },
            {
                "start_time": 75.7363636,
                "end_time": 75.8340909,
                "pitch": 69,
                "velocity": 51,
                "duration": 0.0977273,
                "tempo": 120.0
            },
            {
                "start_time": 75.9318182,
                "end_time": 76.0318182,
                "pitch": 74,
                "velocity": 51,
                "duration": 0.1,
                "tempo": 120.0
            },
            {
                "start_time": 76.3340909,
                "end_time": 76.7454545,
                "pitch": 71,
                "velocity": 51,
                "duration": 0.4113636,
                "tempo": 120.0
            }
        ],
        "Trumpet": [
            {
                "start_time": 90.0909091,
                "end_time": 90.1931818,
                "pitch": 67,
                "velocity": 51,
                "duration": 0.1022727,
                "tempo": 120.0
            },
            {
                "start_time": 90.1931818,
                "end_time": 90.2954545,
                "pitch": 74,
                "velocity": 51,
                "duration": 0.1022727,
                "tempo": 120.0
            },
            {
                "start_time": 90.2954545,
                "end_time": 90.3977273,
                "pitch": 72,
                "velocity": 51,
                "duration": 0.1022727,
                "tempo": 120.0
            },
            {
                "start_time": 90.3977273,
                "end_time": 90.5,
                "pitch": 71,
                "velocity": 51,
                "duration": 0.1022727,
                "tempo": 120.0
            },
            {
                "start_time": 90.5,
                "end_time": 90.6,
                "pitch": 69,
                "velocity": 51,
                "duration": 0.1,
                "tempo": 120.0
            },
            {
                "start_time": 90.6,
                "end_time": 90.7,
                "pitch": 67,
                "velocity": 51,
                "duration": 0.1,
                "tempo": 120.0
            },
            {
                "start_time": 90.7,
                "end_time": 90.8045455,
                "pitch": 69,
                "velocity": 51,
                "duration": 0.1045455,
                "tempo": 120.0
            },
            {
                "start_time": 90.8045455,
                "end_time": 90.9045455,
                "pitch": 59,
                "velocity": 51,
                "duration": 0.1,
                "tempo": 120.0
            },
            {
                "start_time": 90.9045455,
                "end_time": 91.0022727,
                "pitch": 62,
                "velocity": 51,
                "duration": 0.0977273,
                "tempo": 120.0
            },
            {
                "start_time": 91.0022727,
                "end_time": 91.1022727,
                "pitch": 62,
                "velocity": 51,
                "duration": 0.1,
                "tempo": 120.0
            },
            {
                "start_time": 91.1022727,
                "end_time": 91.2022727,
                "pitch": 63,
                "velocity": 51,
                "duration": 0.1,
                "tempo": 120.0
            },
            {
                "start_time": 91.2022727,
                "end_time": 91.3045455,
                "pitch": 64,
                "velocity": 51,
                "duration": 0.1022727,
                "tempo": 120.0
            },
            {
                "start_time": 91.3045455,
                "end_time": 91.4090909,
                "pitch": 67,
                "velocity": 51,
                "duration": 0.1045455,
                "tempo": 120.0
            },
            {
                "start_time": 91.4090909,
                "end_time": 91.5113636,
                "pitch": 71,
                "velocity": 51,
                "duration": 0.1022727,
                "tempo": 120.0
            },
            {
                "start_time": 91.5113636,
                "end_time": 91.6136364,
                "pitch": 74,
                "velocity": 51,
                "duration": 0.1022727,
                "tempo": 120.0
            },
            {
                "start_time": 91.6136364,
                "end_time": 91.7090909,
                "pitch": 71,
                "velocity": 51,
                "duration": 0.0954545,
                "tempo": 120.0
            },
            {
                "start_time": 91.7090909,
                "end_time": 91.8045455,
                "pitch": 64,
                "velocity": 51,
                "duration": 0.0954545,
                "tempo": 120.0
            },
            {
                "start_time": 91.8045455,
                "end_time": 91.9,
                "pitch": 67,
                "velocity": 51,
                "duration": 0.0954545,
                "tempo": 120.0
            },
            {
                "start_time": 91.9,
                "end_time": 91.9954545,
                "pitch": 67,
                "velocity": 51,
                "duration": 0.0954545,
                "tempo": 120.0
            },
            {
                "start_time": 91.9954545,
                "end_time": 92.0954545,
                "pitch": 69,
                "velocity": 51,
                "duration": 0.1,
                "tempo": 120.0
            },
            {
                "start_time": 92.0954545,
                "end_time": 92.1977273,
                "pitch": 62,
                "velocity": 51,
                "duration": 0.1022727,
                "tempo": 120.0
            },
            {
                "start_time": 92.1977273,
                "end_time": 92.2977273,
                "pitch": 62,
                "velocity": 51,
                "duration": 0.1,
                "tempo": 120.0
            },
            {
                "start_time": 92.2977273,
                "end_time": 92.4,
                "pitch": 64,
                "velocity": 51,
                "duration": 0.1022727,
                "tempo": 120.0
            },
            {
                "start_time": 92.4,
                "end_time": 92.5022727,
                "pitch": 64,
                "velocity": 51,
                "duration": 0.1022727,
                "tempo": 120.0
            },
            {
                "start_time": 92.5022727,
                "end_time": 92.6045455,
                "pitch": 62,
                "velocity": 51,
                "duration": 0.1022727,
                "tempo": 120.0
            },
            {
                "start_time": 92.6045455,
                "end_time": 92.7068182,
                "pitch": 59,
                "velocity": 51,
                "duration": 0.1022727,
                "tempo": 120.0
            },
            {
                "start_time": 92.7068182,
                "end_time": 92.8090909,
                "pitch": 55,
                "velocity": 51,
                "duration": 0.1022727,
                "tempo": 120.0
            },
            {
                "start_time": 92.8090909,
                "end_time": 92.9090909,
                "pitch": 57,
                "velocity": 51,
                "duration": 0.1,
                "tempo": 120.0
            },
            {
                "start_time": 92.9090909,
                "end_time": 93.0090909,
                "pitch": 57,
                "velocity": 51,
                "duration": 0.1,
                "tempo": 120.0
            },
            {
                "start_time": 93.0090909,
                "end_time": 93.2090909,
                "pitch": 63,
                "velocity": 51,
                "duration": 0.2,
                "tempo": 120.0
            },
            {
                "start_time": 93.2090909,
                "end_time": 94.6159091,
                "pitch": 63,
                "velocity": 51,
                "duration": 1.4068182,
                "tempo": 120.0
            },
            {
                "start_time": 94.6159091,
                "end_time": 94.7159091,
                "pitch": 67,
                "velocity": 51,
                "duration": 0.1,
                "tempo": 120.0
            },
            {
                "start_time": 94.7159091,
                "end_time": 94.8181818,
                "pitch": 69,
                "velocity": 51,
                "duration": 0.1022727,
                "tempo": 120.0
            },
            {
                "start_time": 94.8181818,
                "end_time": 96.4227273,
                "pitch": 71,
                "velocity": 51,
                "duration": 1.6045455,
                "tempo": 120.0
            },
            {
                "start_time": 96.4227273,
                "end_time": 96.5227273,
                "pitch": 63,
                "velocity": 51,
                "duration": 0.1,
                "tempo": 120.0
            },
            {
                "start_time": 96.5227273,
                "end_time": 96.625,
                "pitch": 63,
                "velocity": 51,
                "duration": 0.1022727,
                "tempo": 120.0
            },
            {
                "start_time": 96.625,
                "end_time": 96.725,
                "pitch": 64,
                "velocity": 51,
                "duration": 0.1,
                "tempo": 120.0
            },
            {
                "start_time": 96.725,
                "end_time": 96.825,
                "pitch": 67,
                "velocity": 51,
                "duration": 0.1,
                "tempo": 120.0
            },
            {
                "start_time": 96.825,
                "end_time": 96.925,
                "pitch": 69,
                "velocity": 51,
                "duration": 0.1,
                "tempo": 120.0
            },
            {
                "start_time": 96.925,
                "end_time": 97.025,
                "pitch": 71,
                "velocity": 51,
                "duration": 0.1,
                "tempo": 120.0
            },
            {
                "start_time": 97.025,
                "end_time": 97.125,
                "pitch": 72,
                "velocity": 51,
                "duration": 0.1,
                "tempo": 120.0
            },
            {
                "start_time": 97.125,
                "end_time": 97.2272727,
                "pitch": 74,
                "velocity": 51,
                "duration": 0.1022727,
                "tempo": 120.0
            },
            {
                "start_time": 97.2272727,
                "end_time": 97.3272727,
                "pitch": 74,
                "velocity": 51,
                "duration": 0.1,
                "tempo": 120.0
            },
            {
                "start_time": 97.3272727,
                "end_time": 97.4272727,
                "pitch": 71,
                "velocity": 51,
                "duration": 0.1,
                "tempo": 120.0
            },
            {
                "start_time": 97.4272727,
                "end_time": 97.5272727,
                "pitch": 69,
                "velocity": 51,
                "duration": 0.1,
                "tempo": 120.0
            },
            {
                "start_time": 97.5272727,
                "end_time": 97.6295455,
                "pitch": 71,
                "velocity": 51,
                "duration": 0.1022727,
                "tempo": 120.0
            },
            {
                "start_time": 97.6295455,
                "end_time": 97.7318182,
                "pitch": 67,
                "velocity": 51,
                "duration": 0.1022727,
                "tempo": 120.0
            },
            {
                "start_time": 97.7318182,
                "end_time": 97.8340909,
                "pitch": 69,
                "velocity": 51,
                "duration": 0.1022727,
                "tempo": 120.0
            },
            {
                "start_time": 97.8340909,
                "end_time": 97.9363636,
                "pitch": 65,
                "velocity": 51,
                "duration": 0.1022727,
                "tempo": 120.0
            },
            {
                "start_time": 97.9363636,
                "end_time": 98.0386364,
                "pitch": 69,
                "velocity": 51,
                "duration": 0.1022727,
                "tempo": 120.0
            },
            {
                "start_time": 98.0386364,
                "end_time": 98.6272727,
                "pitch": 74,
                "velocity": 51,
                "duration": 0.5886364,
                "tempo": 120.0
            },
            {
                "start_time": 98.6272727,
                "end_time": 98.7295455,
                "pitch": 72,
                "velocity": 51,
                "duration": 0.1022727,
                "tempo": 120.0
            },
            {
                "start_time": 98.7295455,
                "end_time": 98.8318182,
                "pitch": 71,
                "velocity": 51,
                "duration": 0.1022727,
                "tempo": 120.0
            },
            {
                "start_time": 98.8318182,
                "end_time": 98.9318182,
                "pitch": 74,
                "velocity": 51,
                "duration": 0.1,
                "tempo": 120.0
            },
            {
                "start_time": 98.9318182,
                "end_time": 99.0318182,
                "pitch": 72,
                "velocity": 51,
                "duration": 0.1,
                "tempo": 120.0
            },
            {
                "start_time": 99.0318182,
                "end_time": 99.1318182,
                "pitch": 71,
                "velocity": 51,
                "duration": 0.1,
                "tempo": 120.0
            },
            {
                "start_time": 99.1318182,
                "end_time": 99.2318182,
                "pitch": 67,
                "velocity": 51,
                "duration": 0.1,
                "tempo": 120.0
            },
            {
                "start_time": 99.2318182,
                "end_time": 99.4340909,
                "pitch": 69,
                "velocity": 51,
                "duration": 0.2022727,
                "tempo": 120.0
            },
            {
                "start_time": 99.4340909,
                "end_time": 99.5340909,
                "pitch": 67,
                "velocity": 51,
                "duration": 0.1,
                "tempo": 120.0
            },
            {
                "start_time": 99.5340909,
                "end_time": 99.6340909,
                "pitch": 65,
                "velocity": 51,
                "duration": 0.1,
                "tempo": 120.0
            },
            {
                "start_time": 99.6340909,
                "end_time": 99.8363636,
                "pitch": 71,
                "velocity": 51,
                "duration": 0.2022727,
                "tempo": 120.0
            },
            {
                "start_time": 99.8363636,
                "end_time": 100.0363636,
                "pitch": 71,
                "velocity": 51,
                "duration": 0.2,
                "tempo": 120.0
            },
            {
                "start_time": 100.0363636,
                "end_time": 100.2363636,
                "pitch": 71,
                "velocity": 51,
                "duration": 0.2,
                "tempo": 120.0
            },
            {
                "start_time": 100.2363636,
                "end_time": 100.4363636,
                "pitch": 71,
                "velocity": 51,
                "duration": 0.2,
                "tempo": 120.0
            },
            {
                "start_time": 100.4363636,
                "end_time": 100.6386364,
                "pitch": 71,
                "velocity": 51,
                "duration": 0.2022727,
                "tempo": 120.0
            },
            {
                "start_time": 100.6386364,
                "end_time": 100.8409091,
                "pitch": 71,
                "velocity": 51,
                "duration": 0.2022727,
                "tempo": 120.0
            },
            {
                "start_time": 100.8409091,
                "end_time": 101.0409091,
                "pitch": 71,
                "velocity": 51,
                "duration": 0.2,
                "tempo": 120.0
            },
            {
                "start_time": 101.0409091,
                "end_time": 101.2409091,
                "pitch": 71,
                "velocity": 51,
                "duration": 0.2,
                "tempo": 120.0
            },
            {
                "start_time": 101.2409091,
                "end_time": 101.4363636,
                "pitch": 68,
                "velocity": 51,
                "duration": 0.1954545,
                "tempo": 120.0
            },
            {
                "start_time": 101.4363636,
                "end_time": 101.6318182,
                "pitch": 68,
                "velocity": 51,
                "duration": 0.1954545,
                "tempo": 120.0
            },
            {
                "start_time": 101.6318182,
                "end_time": 101.8386364,
                "pitch": 68,
                "velocity": 51,
                "duration": 0.2068182,
                "tempo": 120.0
            },
            {
                "start_time": 101.8386364,
                "end_time": 102.0431818,
                "pitch": 68,
                "velocity": 51,
                "duration": 0.2045455,
                "tempo": 120.0
            },
            {
                "start_time": 102.0431818,
                "end_time": 102.2431818,
                "pitch": 68,
                "velocity": 51,
                "duration": 0.2,
                "tempo": 120.0
            },
            {
                "start_time": 102.2431818,
                "end_time": 102.3431818,
                "pitch": 68,
                "velocity": 51,
                "duration": 0.1,
                "tempo": 120.0
            },
            {
                "start_time": 102.3431818,
                "end_time": 102.4431818,
                "pitch": 68,
                "velocity": 51,
                "duration": 0.1,
                "tempo": 120.0
            },
            {
                "start_time": 102.4431818,
                "end_time": 102.5454545,
                "pitch": 67,
                "velocity": 51,
                "duration": 0.1022727,
                "tempo": 120.0
            },
            {
                "start_time": 102.5454545,
                "end_time": 102.6454545,
                "pitch": 68,
                "velocity": 51,
                "duration": 0.1,
                "tempo": 120.0
            },
            {
                "start_time": 102.6454545,
                "end_time": 102.7454545,
                "pitch": 65,
                "velocity": 51,
                "duration": 0.1,
                "tempo": 120.0
            },
            {
                "start_time": 102.7454545,
                "end_time": 102.8477273,
                "pitch": 62,
                "velocity": 51,
                "duration": 0.1022727,
                "tempo": 120.0
            },
            {
                "start_time": 102.8477273,
                "end_time": 102.9477273,
                "pitch": 62,
                "velocity": 51,
                "duration": 0.1,
                "tempo": 120.0
            },
            {
                "start_time": 102.9477273,
                "end_time": 103.0477273,
                "pitch": 67,
                "velocity": 51,
                "duration": 0.1,
                "tempo": 120.0
            },
            {
                "start_time": 103.0477273,
                "end_time": 103.1477273,
                "pitch": 74,
                "velocity": 51,
                "duration": 0.1,
                "tempo": 120.0
            },
            {
                "start_time": 103.1477273,
                "end_time": 103.2477273,
                "pitch": 72,
                "velocity": 51,
                "duration": 0.1,
                "tempo": 120.0
            },
            {
                "start_time": 103.2477273,
                "end_time": 103.3477273,
                "pitch": 71,
                "velocity": 51,
                "duration": 0.1,
                "tempo": 120.0
            },
            {
                "start_time": 103.3477273,
                "end_time": 103.4477273,
                "pitch": 69,
                "velocity": 51,
                "duration": 0.1,
                "tempo": 120.0
            },
            {
                "start_time": 103.4477273,
                "end_time": 103.5477273,
                "pitch": 67,
                "velocity": 51,
                "duration": 0.1,
                "tempo": 120.0
            },
            {
                "start_time": 103.5477273,
                "end_time": 103.65,
                "pitch": 69,
                "velocity": 51,
                "duration": 0.1022727,
                "tempo": 120.0
            },
            {
                "start_time": 103.65,
                "end_time": 103.7477273,
                "pitch": 59,
                "velocity": 51,
                "duration": 0.0977273,
                "tempo": 120.0
            },
            {
                "start_time": 103.7477273,
                "end_time": 103.8454545,
                "pitch": 62,
                "velocity": 51,
                "duration": 0.0977273,
                "tempo": 120.0
            },
            {
                "start_time": 103.8454545,
                "end_time": 103.9431818,
                "pitch": 62,
                "velocity": 51,
                "duration": 0.0977273,
                "tempo": 120.0
            },
            {
                "start_time": 103.9431818,
                "end_time": 104.0409091,
                "pitch": 63,
                "velocity": 51,
                "duration": 0.0977273,
                "tempo": 120.0
            },
            {
                "start_time": 104.0409091,
                "end_time": 104.1454545,
                "pitch": 64,
                "velocity": 51,
                "duration": 0.1045455,
                "tempo": 120.0
            },
            {
                "start_time": 104.1454545,
                "end_time": 104.2522727,
                "pitch": 67,
                "velocity": 51,
                "duration": 0.1068182,
                "tempo": 120.0
            },
            {
                "start_time": 104.2522727,
                "end_time": 104.3568182,
                "pitch": 71,
                "velocity": 51,
                "duration": 0.1045455,
                "tempo": 120.0
            },
            {
                "start_time": 104.3568182,
                "end_time": 104.4613636,
                "pitch": 74,
                "velocity": 51,
                "duration": 0.1045455,
                "tempo": 120.0
            },
            {
                "start_time": 104.4613636,
                "end_time": 104.5568182,
                "pitch": 71,
                "velocity": 51,
                "duration": 0.0954545,
                "tempo": 120.0
            },
            {
                "start_time": 104.5568182,
                "end_time": 104.6522727,
                "pitch": 64,
                "velocity": 51,
                "duration": 0.0954545,
                "tempo": 120.0
            },
            {
                "start_time": 104.6522727,
                "end_time": 104.7477273,
                "pitch": 67,
                "velocity": 51,
                "duration": 0.0954545,
                "tempo": 120.0
            },
            {
                "start_time": 104.7477273,
                "end_time": 104.8431818,
                "pitch": 67,
                "velocity": 51,
                "duration": 0.0954545,
                "tempo": 120.0
            },
            {
                "start_time": 104.8431818,
                "end_time": 104.9454545,
                "pitch": 69,
                "velocity": 51,
                "duration": 0.1022727,
                "tempo": 120.0
            },
            {
                "start_time": 104.9454545,
                "end_time": 105.05,
                "pitch": 62,
                "velocity": 51,
                "duration": 0.1045455,
                "tempo": 120.0
            },
            {
                "start_time": 105.05,
                "end_time": 105.1522727,
                "pitch": 62,
                "velocity": 51,
                "duration": 0.1022727,
                "tempo": 120.0
            },
            {
                "start_time": 105.1522727,
                "end_time": 105.2545455,
                "pitch": 64,
                "velocity": 51,
                "duration": 0.1022727,
                "tempo": 120.0
            },
            {
                "start_time": 105.2545455,
                "end_time": 105.3568182,
                "pitch": 64,
                "velocity": 51,
                "duration": 0.1022727,
                "tempo": 120.0
            },
            {
                "start_time": 105.3568182,
                "end_time": 105.4568182,
                "pitch": 62,
                "velocity": 51,
                "duration": 0.1,
                "tempo": 120.0
            },
            {
                "start_time": 105.4568182,
                "end_time": 105.5568182,
                "pitch": 59,
                "velocity": 51,
                "duration": 0.1,
                "tempo": 120.0
            },
            {
                "start_time": 105.5568182,
                "end_time": 105.6568182,
                "pitch": 55,
                "velocity": 51,
                "duration": 0.1,
                "tempo": 120.0
            },
            {
                "start_time": 105.6568182,
                "end_time": 105.7590909,
                "pitch": 57,
                "velocity": 51,
                "duration": 0.1022727,
                "tempo": 120.0
            },
            {
                "start_time": 105.7590909,
                "end_time": 105.8590909,
                "pitch": 57,
                "velocity": 51,
                "duration": 0.1,
                "tempo": 120.0
            },
            {
                "start_time": 105.8590909,
                "end_time": 106.0590909,
                "pitch": 63,
                "velocity": 51,
                "duration": 0.2,
                "tempo": 120.0
            },
            {
                "start_time": 106.0590909,
                "end_time": 107.4636364,
                "pitch": 63,
                "velocity": 51,
                "duration": 1.4045455,
                "tempo": 120.0
            },
            {
                "start_time": 107.4636364,
                "end_time": 107.5636364,
                "pitch": 67,
                "velocity": 51,
                "duration": 0.1,
                "tempo": 120.0
            },
            {
                "start_time": 107.5636364,
                "end_time": 107.6659091,
                "pitch": 69,
                "velocity": 51,
                "duration": 0.1022727,
                "tempo": 120.0
            },
            {
                "start_time": 107.6659091,
                "end_time": 109.2704545,
                "pitch": 71,
                "velocity": 51,
                "duration": 1.6045455,
                "tempo": 120.0
            },
            {
                "start_time": 109.2704545,
                "end_time": 109.3727273,
                "pitch": 63,
                "velocity": 51,
                "duration": 0.1022727,
                "tempo": 120.0
            },
            {
                "start_time": 109.3727273,
                "end_time": 109.4727273,
                "pitch": 63,
                "velocity": 51,
                "duration": 0.1,
                "tempo": 120.0
            },
            {
                "start_time": 109.4727273,
                "end_time": 109.5727273,
                "pitch": 64,
                "velocity": 51,
                "duration": 0.1,
                "tempo": 120.0
            },
            {
                "start_time": 109.5727273,
                "end_time": 109.6727273,
                "pitch": 67,
                "velocity": 51,
                "duration": 0.1,
                "tempo": 120.0
            },
            {
                "start_time": 109.6727273,
                "end_time": 109.7704545,
                "pitch": 69,
                "velocity": 51,
                "duration": 0.0977273,
                "tempo": 120.0
            },
            {
                "start_time": 109.7704545,
                "end_time": 109.8704545,
                "pitch": 71,
                "velocity": 51,
                "duration": 0.1,
                "tempo": 120.0
            },
            {
                "start_time": 109.8704545,
                "end_time": 109.9681818,
                "pitch": 72,
                "velocity": 51,
                "duration": 0.0977273,
                "tempo": 120.0
            },
            {
                "start_time": 109.9681818,
                "end_time": 110.0659091,
                "pitch": 74,
                "velocity": 51,
                "duration": 0.0977273,
                "tempo": 120.0
            },
            {
                "start_time": 110.0659091,
                "end_time": 110.1704545,
                "pitch": 74,
                "velocity": 51,
                "duration": 0.1045455,
                "tempo": 120.0
            },
            {
                "start_time": 110.1704545,
                "end_time": 110.2704545,
                "pitch": 71,
                "velocity": 51,
                "duration": 0.1,
                "tempo": 120.0
            },
            {
                "start_time": 110.2704545,
                "end_time": 110.375,
                "pitch": 69,
                "velocity": 51,
                "duration": 0.1045455,
                "tempo": 120.0
            },
            {
                "start_time": 110.375,
                "end_time": 110.4772727,
                "pitch": 71,
                "velocity": 51,
                "duration": 0.1022727,
                "tempo": 120.0
            },
            {
                "start_time": 110.4772727,
                "end_time": 110.5795455,
                "pitch": 67,
                "velocity": 51,
                "duration": 0.1022727,
                "tempo": 120.0
            },
            {
                "start_time": 110.5795455,
                "end_time": 110.6818182,
                "pitch": 69,
                "velocity": 51,
                "duration": 0.1022727,
                "tempo": 120.0
            },
            {
                "start_time": 110.6818182,
                "end_time": 110.7840909,
                "pitch": 65,
                "velocity": 51,
                "duration": 0.1022727,
                "tempo": 120.0
            },
            {
                "start_time": 110.7840909,
                "end_time": 110.8863636,
                "pitch": 69,
                "velocity": 51,
                "duration": 0.1022727,
                "tempo": 120.0
            },
            {
                "start_time": 110.8863636,
                "end_time": 111.475,
                "pitch": 74,
                "velocity": 51,
                "duration": 0.5886364,
                "tempo": 120.0
            },
            {
                "start_time": 111.475,
                "end_time": 111.5772727,
                "pitch": 72,
                "velocity": 51,
                "duration": 0.1022727,
                "tempo": 120.0
            },
            {
                "start_time": 111.5772727,
                "end_time": 111.6818182,
                "pitch": 71,
                "velocity": 51,
                "duration": 0.1045455,
                "tempo": 120.0
            },
            {
                "start_time": 111.6818182,
                "end_time": 111.7818182,
                "pitch": 74,
                "velocity": 51,
                "duration": 0.1,
                "tempo": 120.0
            },
            {
                "start_time": 111.7818182,
                "end_time": 111.8818182,
                "pitch": 72,
                "velocity": 51,
                "duration": 0.1,
                "tempo": 120.0
            },
            {
                "start_time": 111.8818182,
                "end_time": 111.9818182,
                "pitch": 71,
                "velocity": 51,
                "duration": 0.1,
                "tempo": 120.0
            },
            {
                "start_time": 111.9818182,
                "end_time": 112.0840909,
                "pitch": 67,
                "velocity": 51,
                "duration": 0.1022727,
                "tempo": 120.0
            },
            {
                "start_time": 112.0840909,
                "end_time": 112.2840909,
                "pitch": 69,
                "velocity": 51,
                "duration": 0.2,
                "tempo": 120.0
            },
            {
                "start_time": 112.2840909,
                "end_time": 112.3840909,
                "pitch": 67,
                "velocity": 51,
                "duration": 0.1,
                "tempo": 120.0
            },
            {
                "start_time": 112.3840909,
                "end_time": 112.4840909,
                "pitch": 65,
                "velocity": 51,
                "duration": 0.1,
                "tempo": 120.0
            },
            {
                "start_time": 112.4840909,
                "end_time": 112.6840909,
                "pitch": 71,
                "velocity": 51,
                "duration": 0.2,
                "tempo": 120.0
            },
            {
                "start_time": 112.6840909,
                "end_time": 112.8863636,
                "pitch": 71,
                "velocity": 51,
                "duration": 0.2022727,
                "tempo": 120.0
            },
            {
                "start_time": 112.8863636,
                "end_time": 113.0863636,
                "pitch": 71,
                "velocity": 51,
                "duration": 0.2,
                "tempo": 120.0
            },
            {
                "start_time": 113.0863636,
                "end_time": 113.2863636,
                "pitch": 71,
                "velocity": 51,
                "duration": 0.2,
                "tempo": 120.0
            },
            {
                "start_time": 113.2863636,
                "end_time": 113.4863636,
                "pitch": 71,
                "velocity": 51,
                "duration": 0.2,
                "tempo": 120.0
            },
            {
                "start_time": 113.4863636,
                "end_time": 113.6886364,
                "pitch": 71,
                "velocity": 51,
                "duration": 0.2022727,
                "tempo": 120.0
            },
            {
                "start_time": 113.6886364,
                "end_time": 113.8909091,
                "pitch": 71,
                "velocity": 51,
                "duration": 0.2022727,
                "tempo": 120.0
            },
            {
                "start_time": 113.8909091,
                "end_time": 114.0909091,
                "pitch": 71,
                "velocity": 51,
                "duration": 0.2,
                "tempo": 120.0
            },
            {
                "start_time": 114.0909091,
                "end_time": 114.2863636,
                "pitch": 68,
                "velocity": 51,
                "duration": 0.1954545,
                "tempo": 120.0
            },
            {
                "start_time": 114.2863636,
                "end_time": 114.4840909,
                "pitch": 68,
                "velocity": 51,
                "duration": 0.1977273,
                "tempo": 120.0
            },
            {
                "start_time": 114.4840909,
                "end_time": 114.6886364,
                "pitch": 68,
                "velocity": 51,
                "duration": 0.2045455,
                "tempo": 120.0
            },
            {
                "start_time": 114.6886364,
                "end_time": 114.8931818,
                "pitch": 68,
                "velocity": 51,
                "duration": 0.2045455,
                "tempo": 120.0
            },
            {
                "start_time": 114.8931818,
                "end_time": 115.0931818,
                "pitch": 68,
                "velocity": 51,
                "duration": 0.2,
                "tempo": 120.0
            },
            {
                "start_time": 115.0931818,
                "end_time": 115.1931818,
                "pitch": 68,
                "velocity": 51,
                "duration": 0.1,
                "tempo": 120.0
            },
            {
                "start_time": 115.1931818,
                "end_time": 115.2954545,
                "pitch": 68,
                "velocity": 51,
                "duration": 0.1022727,
                "tempo": 120.0
            },
            {
                "start_time": 115.2954545,
                "end_time": 115.3954545,
                "pitch": 67,
                "velocity": 51,
                "duration": 0.1,
                "tempo": 120.0
            },
            {
                "start_time": 115.3954545,
                "end_time": 115.4954545,
                "pitch": 68,
                "velocity": 51,
                "duration": 0.1,
                "tempo": 120.0
            },
            {
                "start_time": 115.4954545,
                "end_time": 115.5977273,
                "pitch": 65,
                "velocity": 51,
                "duration": 0.1022727,
                "tempo": 120.0
            },
            {
                "start_time": 115.5977273,
                "end_time": 115.6977273,
                "pitch": 62,
                "velocity": 51,
                "duration": 0.1,
                "tempo": 120.0
            },
            {
                "start_time": 115.6977273,
                "end_time": 115.7977273,
                "pitch": 62,
                "velocity": 51,
                "duration": 0.1,
                "tempo": 120.0
            },
            {
                "start_time": 115.7977273,
                "end_time": 115.9,
                "pitch": 67,
                "velocity": 51,
                "duration": 0.1022727,
                "tempo": 120.0
            },
            {
                "start_time": 115.9,
                "end_time": 116.0,
                "pitch": 74,
                "velocity": 51,
                "duration": 0.1,
                "tempo": 120.0
            },
            {
                "start_time": 116.0,
                "end_time": 116.1,
                "pitch": 72,
                "velocity": 51,
                "duration": 0.1,
                "tempo": 120.0
            },
            {
                "start_time": 116.1,
                "end_time": 116.2,
                "pitch": 71,
                "velocity": 51,
                "duration": 0.1,
                "tempo": 120.0
            },
            {
                "start_time": 116.2,
                "end_time": 116.3,
                "pitch": 69,
                "velocity": 51,
                "duration": 0.1,
                "tempo": 120.0
            },
            {
                "start_time": 116.3,
                "end_time": 116.4,
                "pitch": 67,
                "velocity": 51,
                "duration": 0.1,
                "tempo": 120.0
            },
            {
                "start_time": 116.4,
                "end_time": 116.5,
                "pitch": 69,
                "velocity": 51,
                "duration": 0.1,
                "tempo": 120.0
            },
            {
                "start_time": 116.5,
                "end_time": 116.5977273,
                "pitch": 59,
                "velocity": 51,
                "duration": 0.0977273,
                "tempo": 120.0
            },
            {
                "start_time": 116.5977273,
                "end_time": 116.6954545,
                "pitch": 62,
                "velocity": 51,
                "duration": 0.0977273,
                "tempo": 120.0
            },
            {
                "start_time": 116.6954545,
                "end_time": 116.7931818,
                "pitch": 62,
                "velocity": 51,
                "duration": 0.0977273,
                "tempo": 120.0
            },
            {
                "start_time": 116.7931818,
                "end_time": 116.8909091,
                "pitch": 63,
                "velocity": 51,
                "duration": 0.0977273,
                "tempo": 120.0
            },
            {
                "start_time": 116.8909091,
                "end_time": 116.9977273,
                "pitch": 64,
                "velocity": 51,
                "duration": 0.1068182,
                "tempo": 120.0
            },
            {
                "start_time": 116.9977273,
                "end_time": 117.1022727,
                "pitch": 67,
                "velocity": 51,
                "duration": 0.1045455,
                "tempo": 120.0
            },
            {
                "start_time": 117.1022727,
                "end_time": 117.2090909,
                "pitch": 71,
                "velocity": 51,
                "duration": 0.1068182,
                "tempo": 120.0
            },
            {
                "start_time": 117.2090909,
                "end_time": 117.3113636,
                "pitch": 74,
                "velocity": 51,
                "duration": 0.1022727,
                "tempo": 120.0
            },
            {
                "start_time": 117.3113636,
                "end_time": 117.4090909,
                "pitch": 71,
                "velocity": 51,
                "duration": 0.0977273,
                "tempo": 120.0
            },
            {
                "start_time": 117.4090909,
                "end_time": 117.5045455,
                "pitch": 64,
                "velocity": 51,
                "duration": 0.0954545,
                "tempo": 120.0
            },
            {
                "start_time": 117.5045455,
                "end_time": 117.6,
                "pitch": 67,
                "velocity": 51,
                "duration": 0.0954545,
                "tempo": 120.0
            },
            {
                "start_time": 117.6,
                "end_time": 117.6954545,
                "pitch": 67,
                "velocity": 51,
                "duration": 0.0954545,
                "tempo": 120.0
            },
            {
                "start_time": 117.6954545,
                "end_time": 117.7977273,
                "pitch": 69,
                "velocity": 51,
                "duration": 0.1022727,
                "tempo": 120.0
            },
            {
                "start_time": 117.7977273,
                "end_time": 117.9,
                "pitch": 62,
                "velocity": 51,
                "duration": 0.1022727,
                "tempo": 120.0
            },
            {
                "start_time": 117.9,
                "end_time": 118.0022727,
                "pitch": 62,
                "velocity": 51,
                "duration": 0.1022727,
                "tempo": 120.0
            },
            {
                "start_time": 118.0022727,
                "end_time": 118.1068182,
                "pitch": 64,
                "velocity": 51,
                "duration": 0.1045455,
                "tempo": 120.0
            },
            {
                "start_time": 118.1068182,
                "end_time": 118.2068182,
                "pitch": 64,
                "velocity": 51,
                "duration": 0.1,
                "tempo": 120.0
            },
            {
                "start_time": 118.2068182,
                "end_time": 118.3068182,
                "pitch": 62,
                "velocity": 51,
                "duration": 0.1,
                "tempo": 120.0
            },
            {
                "start_time": 118.3068182,
                "end_time": 118.4068182,
                "pitch": 59,
                "velocity": 51,
                "duration": 0.1,
                "tempo": 120.0
            },
            {
                "start_time": 118.4068182,
                "end_time": 118.5068182,
                "pitch": 55,
                "velocity": 51,
                "duration": 0.1,
                "tempo": 120.0
            },
            {
                "start_time": 118.5068182,
                "end_time": 118.6068182,
                "pitch": 57,
                "velocity": 51,
                "duration": 0.1,
                "tempo": 120.0
            },
            {
                "start_time": 118.6068182,
                "end_time": 118.7068182,
                "pitch": 57,
                "velocity": 51,
                "duration": 0.1,
                "tempo": 120.0
            },
            {
                "start_time": 118.7068182,
                "end_time": 118.9090909,
                "pitch": 63,
                "velocity": 51,
                "duration": 0.2022727,
                "tempo": 120.0
            },
            {
                "start_time": 118.9090909,
                "end_time": 120.3181818,
                "pitch": 63,
                "velocity": 51,
                "duration": 1.4090909,
                "tempo": 120.0
            },
            {
                "start_time": 120.3181818,
                "end_time": 120.4227273,
                "pitch": 67,
                "velocity": 51,
                "duration": 0.1045455,
                "tempo": 120.0
            },
            {
                "start_time": 120.4227273,
                "end_time": 120.5227273,
                "pitch": 69,
                "velocity": 51,
                "duration": 0.1,
                "tempo": 120.0
            },
            {
                "start_time": 120.5227273,
                "end_time": 122.1227273,
                "pitch": 71,
                "velocity": 51,
                "duration": 1.6,
                "tempo": 120.0
            },
            {
                "start_time": 122.1227273,
                "end_time": 122.2227273,
                "pitch": 63,
                "velocity": 51,
                "duration": 0.1,
                "tempo": 120.0
            },
            {
                "start_time": 122.2227273,
                "end_time": 122.3227273,
                "pitch": 63,
                "velocity": 51,
                "duration": 0.1,
                "tempo": 120.0
            },
            {
                "start_time": 122.3227273,
                "end_time": 122.4227273,
                "pitch": 64,
                "velocity": 51,
                "duration": 0.1,
                "tempo": 120.0
            },
            {
                "start_time": 122.4227273,
                "end_time": 122.5227273,
                "pitch": 67,
                "velocity": 51,
                "duration": 0.1,
                "tempo": 120.0
            },
            {
                "start_time": 122.5227273,
                "end_time": 122.6227273,
                "pitch": 69,
                "velocity": 51,
                "duration": 0.1,
                "tempo": 120.0
            },
            {
                "start_time": 122.6227273,
                "end_time": 122.725,
                "pitch": 71,
                "velocity": 51,
                "duration": 0.1022727,
                "tempo": 120.0
            },
            {
                "start_time": 122.725,
                "end_time": 122.825,
                "pitch": 72,
                "velocity": 51,
                "duration": 0.1,
                "tempo": 120.0
            },
            {
                "start_time": 122.825,
                "end_time": 122.9272727,
                "pitch": 74,
                "velocity": 51,
                "duration": 0.1022727,
                "tempo": 120.0
            },
            {
                "start_time": 122.9272727,
                "end_time": 123.0272727,
                "pitch": 74,
                "velocity": 51,
                "duration": 0.1,
                "tempo": 120.0
            },
            {
                "start_time": 123.0272727,
                "end_time": 123.125,
                "pitch": 71,
                "velocity": 51,
                "duration": 0.0977273,
                "tempo": 120.0
            },
            {
                "start_time": 123.125,
                "end_time": 123.225,
                "pitch": 69,
                "velocity": 51,
                "duration": 0.1,
                "tempo": 120.0
            },
            {
                "start_time": 123.225,
                "end_time": 123.325,
                "pitch": 71,
                "velocity": 51,
                "duration": 0.1,
                "tempo": 120.0
            },
            {
                "start_time": 123.325,
                "end_time": 123.4272727,
                "pitch": 67,
                "velocity": 51,
                "duration": 0.1022727,
                "tempo": 120.0
            },
            {
                "start_time": 123.4272727,
                "end_time": 123.5318182,
                "pitch": 69,
                "velocity": 51,
                "duration": 0.1045455,
                "tempo": 120.0
            },
            {
                "start_time": 123.5318182,
                "end_time": 123.6340909,
                "pitch": 65,
                "velocity": 51,
                "duration": 0.1022727,
                "tempo": 120.0
            },
            {
                "start_time": 123.6340909,
                "end_time": 123.7363636,
                "pitch": 69,
                "velocity": 51,
                "duration": 0.1022727,
                "tempo": 120.0
            },
            {
                "start_time": 123.7363636,
                "end_time": 124.3227273,
                "pitch": 74,
                "velocity": 51,
                "duration": 0.5863636,
                "tempo": 120.0
            },
            {
                "start_time": 124.3227273,
                "end_time": 124.425,
                "pitch": 72,
                "velocity": 51,
                "duration": 0.1022727,
                "tempo": 120.0
            },
            {
                "start_time": 124.425,
                "end_time": 124.5295455,
                "pitch": 71,
                "velocity": 40,
                "duration": 0.1045455,
                "tempo": 120.0
            },
            {
                "start_time": 124.5295455,
                "end_time": 124.6295455,
                "pitch": 74,
                "velocity": 40,
                "duration": 0.1,
                "tempo": 120.0
            },
            {
                "start_time": 124.6295455,
                "end_time": 124.7295455,
                "pitch": 72,
                "velocity": 40,
                "duration": 0.1,
                "tempo": 120.0
            },
            {
                "start_time": 124.7295455,
                "end_time": 124.8318182,
                "pitch": 71,
                "velocity": 40,
                "duration": 0.1022727,
                "tempo": 120.0
            },
            {
                "start_time": 124.8318182,
                "end_time": 124.9318182,
                "pitch": 67,
                "velocity": 40,
                "duration": 0.1,
                "tempo": 120.0
            },
            {
                "start_time": 124.9318182,
                "end_time": 125.1318182,
                "pitch": 69,
                "velocity": 40,
                "duration": 0.2,
                "tempo": 120.0
            },
            {
                "start_time": 125.1318182,
                "end_time": 125.2318182,
                "pitch": 67,
                "velocity": 40,
                "duration": 0.1,
                "tempo": 120.0
            },
            {
                "start_time": 125.2318182,
                "end_time": 125.3318182,
                "pitch": 65,
                "velocity": 40,
                "duration": 0.1,
                "tempo": 120.0
            },
            {
                "start_time": 125.3318182,
                "end_time": 125.5318182,
                "pitch": 71,
                "velocity": 40,
                "duration": 0.2,
                "tempo": 120.0
            },
            {
                "start_time": 125.5318182,
                "end_time": 125.7340909,
                "pitch": 71,
                "velocity": 40,
                "duration": 0.2022727,
                "tempo": 120.0
            },
            {
                "start_time": 125.7340909,
                "end_time": 125.9363636,
                "pitch": 71,
                "velocity": 40,
                "duration": 0.2022727,
                "tempo": 120.0
            },
            {
                "start_time": 125.9363636,
                "end_time": 126.1363636,
                "pitch": 71,
                "velocity": 32,
                "duration": 0.2,
                "tempo": 120.0
            },
            {
                "start_time": 126.1363636,
                "end_time": 126.3363636,
                "pitch": 71,
                "velocity": 32,
                "duration": 0.2,
                "tempo": 120.0
            },
            {
                "start_time": 126.3363636,
                "end_time": 126.5363636,
                "pitch": 71,
                "velocity": 32,
                "duration": 0.2,
                "tempo": 120.0
            },
            {
                "start_time": 126.5363636,
                "end_time": 126.7409091,
                "pitch": 71,
                "velocity": 32,
                "duration": 0.2045455,
                "tempo": 120.0
            },
            {
                "start_time": 126.7409091,
                "end_time": 126.9454545,
                "pitch": 71,
                "velocity": 32,
                "duration": 0.2045455,
                "tempo": 120.0
            },
            {
                "start_time": 126.9454545,
                "end_time": 127.1386364,
                "pitch": 68,
                "velocity": 32,
                "duration": 0.1931818,
                "tempo": 120.0
            },
            {
                "start_time": 127.1386364,
                "end_time": 127.3295455,
                "pitch": 68,
                "velocity": 32,
                "duration": 0.1909091,
                "tempo": 120.0
            },
            {
                "start_time": 127.3295455,
                "end_time": 127.5340909,
                "pitch": 68,
                "velocity": 32,
                "duration": 0.2045455,
                "tempo": 120.0
            },
            {
                "start_time": 127.5340909,
                "end_time": 127.7409091,
                "pitch": 68,
                "velocity": 25,
                "duration": 0.2068182,
                "tempo": 120.0
            },
            {
                "start_time": 127.7409091,
                "end_time": 127.9409091,
                "pitch": 68,
                "velocity": 25,
                "duration": 0.2,
                "tempo": 120.0
            },
            {
                "start_time": 127.9409091,
                "end_time": 128.0409091,
                "pitch": 68,
                "velocity": 25,
                "duration": 0.1,
                "tempo": 120.0
            },
            {
                "start_time": 128.0409091,
                "end_time": 128.1431818,
                "pitch": 68,
                "velocity": 25,
                "duration": 0.1022727,
                "tempo": 120.0
            },
            {
                "start_time": 128.1431818,
                "end_time": 128.2431818,
                "pitch": 67,
                "velocity": 25,
                "duration": 0.1,
                "tempo": 120.0
            },
            {
                "start_time": 128.2431818,
                "end_time": 128.3431818,
                "pitch": 68,
                "velocity": 25,
                "duration": 0.1,
                "tempo": 120.0
            },
            {
                "start_time": 128.3431818,
                "end_time": 128.4431818,
                "pitch": 65,
                "velocity": 25,
                "duration": 0.1,
                "tempo": 120.0
            },
            {
                "start_time": 128.4431818,
                "end_time": 128.5431818,
                "pitch": 62,
                "velocity": 25,
                "duration": 0.1,
                "tempo": 120.0
            },
            {
                "start_time": 128.5431818,
                "end_time": 128.6431818,
                "pitch": 62,
                "velocity": 25,
                "duration": 0.1,
                "tempo": 120.0
            },
            {
                "start_time": 128.6431818,
                "end_time": 128.7454545,
                "pitch": 67,
                "velocity": 25,
                "duration": 0.1022727,
                "tempo": 120.0
            },
            {
                "start_time": 128.7454545,
                "end_time": 128.8454545,
                "pitch": 74,
                "velocity": 25,
                "duration": 0.1,
                "tempo": 120.0
            },
            {
                "start_time": 128.8454545,
                "end_time": 128.9454545,
                "pitch": 72,
                "velocity": 25,
                "duration": 0.1,
                "tempo": 120.0
            },
            {
                "start_time": 128.9454545,
                "end_time": 129.0477273,
                "pitch": 71,
                "velocity": 25,
                "duration": 0.1022727,
                "tempo": 120.0
            },
            {
                "start_time": 129.0477273,
                "end_time": 129.1477273,
                "pitch": 69,
                "velocity": 20,
                "duration": 0.1,
                "tempo": 120.0
            },
            {
                "start_time": 129.1477273,
                "end_time": 129.2477273,
                "pitch": 67,
                "velocity": 20,
                "duration": 0.1,
                "tempo": 120.0
            },
            {
                "start_time": 129.2477273,
                "end_time": 129.35,
                "pitch": 69,
                "velocity": 20,
                "duration": 0.1022727,
                "tempo": 120.0
            },
            {
                "start_time": 129.35,
                "end_time": 129.45,
                "pitch": 59,
                "velocity": 20,
                "duration": 0.1,
                "tempo": 120.0
            },
            {
                "start_time": 129.45,
                "end_time": 129.55,
                "pitch": 62,
                "velocity": 20,
                "duration": 0.1,
                "tempo": 120.0
            },
            {
                "start_time": 129.55,
                "end_time": 129.65,
                "pitch": 62,
                "velocity": 20,
                "duration": 0.1,
                "tempo": 120.0
            },
            {
                "start_time": 129.65,
                "end_time": 129.75,
                "pitch": 63,
                "velocity": 20,
                "duration": 0.1,
                "tempo": 120.0
            },
            {
                "start_time": 129.75,
                "end_time": 129.8545455,
                "pitch": 64,
                "velocity": 20,
                "duration": 0.1045455,
                "tempo": 120.0
            },
            {
                "start_time": 129.8545455,
                "end_time": 129.9568182,
                "pitch": 67,
                "velocity": 20,
                "duration": 0.1022727,
                "tempo": 120.0
            },
            {
                "start_time": 129.9568182,
                "end_time": 130.0590909,
                "pitch": 71,
                "velocity": 20,
                "duration": 0.1022727,
                "tempo": 120.0
            },
            {
                "start_time": 130.0590909,
                "end_time": 130.1613636,
                "pitch": 74,
                "velocity": 20,
                "duration": 0.1022727,
                "tempo": 120.0
            },
            {
                "start_time": 130.1613636,
                "end_time": 130.2568182,
                "pitch": 71,
                "velocity": 20,
                "duration": 0.0954545,
                "tempo": 120.0
            },
            {
                "start_time": 130.2568182,
                "end_time": 130.3522727,
                "pitch": 64,
                "velocity": 20,
                "duration": 0.0954545,
                "tempo": 120.0
            },
            {
                "start_time": 130.3522727,
                "end_time": 130.4477273,
                "pitch": 67,
                "velocity": 20,
                "duration": 0.0954545,
                "tempo": 120.0
            },
            {
                "start_time": 130.4477273,
                "end_time": 130.5431818,
                "pitch": 67,
                "velocity": 20,
                "duration": 0.0954545,
                "tempo": 120.0
            },
            {
                "start_time": 130.5431818,
                "end_time": 130.6454545,
                "pitch": 69,
                "velocity": 20,
                "duration": 0.1022727,
                "tempo": 120.0
            },
            {
                "start_time": 130.6454545,
                "end_time": 130.7477273,
                "pitch": 62,
                "velocity": 16,
                "duration": 0.1022727,
                "tempo": 120.0
            },
            {
                "start_time": 130.7477273,
                "end_time": 130.8522727,
                "pitch": 62,
                "velocity": 16,
                "duration": 0.1045455,
                "tempo": 120.0
            },
            {
                "start_time": 130.8522727,
                "end_time": 130.9545455,
                "pitch": 64,
                "velocity": 16,
                "duration": 0.1022727,
                "tempo": 120.0
            },
            {
                "start_time": 130.9545455,
                "end_time": 131.0568182,
                "pitch": 64,
                "velocity": 16,
                "duration": 0.1022727,
                "tempo": 120.0
            },
            {
                "start_time": 131.0568182,
                "end_time": 131.1590909,
                "pitch": 62,
                "velocity": 16,
                "duration": 0.1022727,
                "tempo": 120.0
            },
            {
                "start_time": 131.1590909,
                "end_time": 131.2636364,
                "pitch": 59,
                "velocity": 16,
                "duration": 0.1045455,
                "tempo": 120.0
            },
            {
                "start_time": 131.2636364,
                "end_time": 131.3659091,
                "pitch": 55,
                "velocity": 16,
                "duration": 0.1022727,
                "tempo": 120.0
            },
            {
                "start_time": 131.3659091,
                "end_time": 131.4636364,
                "pitch": 57,
                "velocity": 16,
                "duration": 0.0977273,
                "tempo": 120.0
            },
            {
                "start_time": 131.4636364,
                "end_time": 131.5613636,
                "pitch": 57,
                "velocity": 16,
                "duration": 0.0977273,
                "tempo": 120.0
            },
            {
                "start_time": 131.5613636,
                "end_time": 131.7568182,
                "pitch": 63,
                "velocity": 16,
                "duration": 0.1954545,
                "tempo": 120.0
            },
            {
                "start_time": 131.7568182,
                "end_time": 133.1681818,
                "pitch": 63,
                "velocity": 16,
                "duration": 1.4113636,
                "tempo": 120.0
            },
            {
                "start_time": 133.1681818,
                "end_time": 133.2704545,
                "pitch": 67,
                "velocity": 13,
                "duration": 0.1022727,
                "tempo": 120.0
            },
            {
                "start_time": 133.2704545,
                "end_time": 133.3727273,
                "pitch": 69,
                "velocity": 13,
                "duration": 0.1022727,
                "tempo": 120.0
            },
            {
                "start_time": 133.3727273,
                "end_time": 134.9795455,
                "pitch": 71,
                "velocity": 13,
                "duration": 1.6068182,
                "tempo": 120.0
            },
            {
                "start_time": 134.9795455,
                "end_time": 135.0772727,
                "pitch": 63,
                "velocity": 13,
                "duration": 0.0977273,
                "tempo": 120.0
            },
            {
                "start_time": 135.0772727,
                "end_time": 135.175,
                "pitch": 63,
                "velocity": 10,
                "duration": 0.0977273,
                "tempo": 120.0
            },
            {
                "start_time": 135.175,
                "end_time": 135.2727273,
                "pitch": 64,
                "velocity": 10,
                "duration": 0.0977273,
                "tempo": 120.0
            },
            {
                "start_time": 135.2727273,
                "end_time": 135.3704545,
                "pitch": 67,
                "velocity": 10,
                "duration": 0.0977273,
                "tempo": 120.0
            },
            {
                "start_time": 135.3704545,
                "end_time": 135.4727273,
                "pitch": 69,
                "velocity": 10,
                "duration": 0.1022727,
                "tempo": 120.0
            },
            {
                "start_time": 135.4727273,
                "end_time": 135.5727273,
                "pitch": 71,
                "velocity": 8,
                "duration": 0.1,
                "tempo": 120.0
            },
            {
                "start_time": 135.5727273,
                "end_time": 135.6727273,
                "pitch": 72,
                "velocity": 8,
                "duration": 0.1,
                "tempo": 120.0
            },
            {
                "start_time": 135.6727273,
                "end_time": 135.775,
                "pitch": 74,
                "velocity": 8,
                "duration": 0.1022727,
                "tempo": 120.0
            },
            {
                "start_time": 135.775,
                "end_time": 135.875,
                "pitch": 74,
                "velocity": 8,
                "duration": 0.1,
                "tempo": 120.0
            },
            {
                "start_time": 135.875,
                "end_time": 135.975,
                "pitch": 71,
                "velocity": 8,
                "duration": 0.1,
                "tempo": 120.0
            },
            {
                "start_time": 135.975,
                "end_time": 136.075,
                "pitch": 69,
                "velocity": 8,
                "duration": 0.1,
                "tempo": 120.0
            },
            {
                "start_time": 136.075,
                "end_time": 136.175,
                "pitch": 71,
                "velocity": 8,
                "duration": 0.1,
                "tempo": 120.0
            },
            {
                "start_time": 136.175,
                "end_time": 136.275,
                "pitch": 67,
                "velocity": 8,
                "duration": 0.1,
                "tempo": 120.0
            },
            {
                "start_time": 136.275,
                "end_time": 136.375,
                "pitch": 69,
                "velocity": 8,
                "duration": 0.1,
                "tempo": 120.0
            },
            {
                "start_time": 136.375,
                "end_time": 136.4772727,
                "pitch": 65,
                "velocity": 8,
                "duration": 0.1022727,
                "tempo": 120.0
            },
            {
                "start_time": 136.4772727,
                "end_time": 136.5772727,
                "pitch": 69,
                "velocity": 8,
                "duration": 0.1,
                "tempo": 120.0
            },
            {
                "start_time": 136.5772727,
                "end_time": 137.175,
                "pitch": 74,
                "velocity": 8,
                "duration": 0.5977273,
                "tempo": 120.0
            },
            {
                "start_time": 137.175,
                "end_time": 137.2772727,
                "pitch": 72,
                "velocity": 8,
                "duration": 0.1022727,
                "tempo": 120.0
            },
            {
                "start_time": 137.2772727,
                "end_time": 137.3818182,
                "pitch": 71,
                "velocity": 6,
                "duration": 0.1045455,
                "tempo": 120.0
            },
            {
                "start_time": 137.3818182,
                "end_time": 137.4818182,
                "pitch": 74,
                "velocity": 6,
                "duration": 0.1,
                "tempo": 120.0
            },
            {
                "start_time": 137.4818182,
                "end_time": 137.5818182,
                "pitch": 72,
                "velocity": 6,
                "duration": 0.1,
                "tempo": 120.0
            },
            {
                "start_time": 137.5818182,
                "end_time": 137.6818182,
                "pitch": 71,
                "velocity": 6,
                "duration": 0.1,
                "tempo": 120.0
            },
            {
                "start_time": 137.6818182,
                "end_time": 137.7840909,
                "pitch": 67,
                "velocity": 6,
                "duration": 0.1022727,
                "tempo": 120.0
            },
            {
                "start_time": 137.7840909,
                "end_time": 137.9840909,
                "pitch": 69,
                "velocity": 6,
                "duration": 0.2,
                "tempo": 120.0
            },
            {
                "start_time": 137.9840909,
                "end_time": 138.0840909,
                "pitch": 67,
                "velocity": 6,
                "duration": 0.1,
                "tempo": 120.0
            },
            {
                "start_time": 138.0840909,
                "end_time": 138.1840909,
                "pitch": 65,
                "velocity": 6,
                "duration": 0.1,
                "tempo": 120.0
            },
            {
                "start_time": 138.1840909,
                "end_time": 138.3840909,
                "pitch": 71,
                "velocity": 6,
                "duration": 0.2,
                "tempo": 120.0
            },
            {
                "start_time": 138.3840909,
                "end_time": 138.5863636,
                "pitch": 71,
                "velocity": 6,
                "duration": 0.2022727,
                "tempo": 120.0
            },
            {
                "start_time": 138.5863636,
                "end_time": 138.7863636,
                "pitch": 71,
                "velocity": 6,
                "duration": 0.2,
                "tempo": 120.0
            },
            {
                "start_time": 138.7863636,
                "end_time": 138.9886364,
                "pitch": 71,
                "velocity": 5,
                "duration": 0.2022727,
                "tempo": 120.0
            },
            {
                "start_time": 138.9886364,
                "end_time": 139.1886364,
                "pitch": 71,
                "velocity": 5,
                "duration": 0.2,
                "tempo": 120.0
            },
            {
                "start_time": 139.1886364,
                "end_time": 139.3909091,
                "pitch": 71,
                "velocity": 5,
                "duration": 0.2022727,
                "tempo": 120.0
            },
            {
                "start_time": 139.3909091,
                "end_time": 139.5954545,
                "pitch": 71,
                "velocity": 5,
                "duration": 0.2045455,
                "tempo": 120.0
            },
            {
                "start_time": 139.5954545,
                "end_time": 139.8,
                "pitch": 71,
                "velocity": 5,
                "duration": 0.2045455,
                "tempo": 120.0
            },
            {
                "start_time": 139.8,
                "end_time": 139.9909091,
                "pitch": 68,
                "velocity": 5,
                "duration": 0.1909091,
                "tempo": 120.0
            },
            {
                "start_time": 139.9909091,
                "end_time": 140.1840909,
                "pitch": 68,
                "velocity": 5,
                "duration": 0.1931818,
                "tempo": 120.0
            },
            {
                "start_time": 140.1840909,
                "end_time": 140.3886364,
                "pitch": 68,
                "velocity": 5,
                "duration": 0.2045455,
                "tempo": 120.0
            },
            {
                "start_time": 140.3886364,
                "end_time": 140.5931818,
                "pitch": 68,
                "velocity": 4,
                "duration": 0.2045455,
                "tempo": 120.0
            },
            {
                "start_time": 140.5931818,
                "end_time": 140.8,
                "pitch": 68,
                "velocity": 4,
                "duration": 0.2068182,
                "tempo": 120.0
            },
            {
                "start_time": 140.8,
                "end_time": 140.9022727,
                "pitch": 68,
                "velocity": 4,
                "duration": 0.1022727,
                "tempo": 120.0
            },
            {
                "start_time": 140.9022727,
                "end_time": 141.0068182,
                "pitch": 68,
                "velocity": 4,
                "duration": 0.1045455,
                "tempo": 120.0
            },
            {
                "start_time": 141.0068182,
                "end_time": 141.1045455,
                "pitch": 67,
                "velocity": 4,
                "duration": 0.0977273,
                "tempo": 120.0
            },
            {
                "start_time": 141.1045455,
                "end_time": 141.2022727,
                "pitch": 68,
                "velocity": 4,
                "duration": 0.0977273,
                "tempo": 120.0
            },
            {
                "start_time": 141.2022727,
                "end_time": 141.3,
                "pitch": 65,
                "velocity": 4,
                "duration": 0.0977273,
                "tempo": 120.0
            },
            {
                "start_time": 141.3,
                "end_time": 141.3977273,
                "pitch": 62,
                "velocity": 4,
                "duration": 0.0977273,
                "tempo": 120.0
            },
            {
                "start_time": 141.3977273,
                "end_time": 141.5,
                "pitch": 62,
                "velocity": 4,
                "duration": 0.1022727,
                "tempo": 120.0
            },
            {
                "start_time": 141.5,
                "end_time": 141.6,
                "pitch": 67,
                "velocity": 4,
                "duration": 0.1,
                "tempo": 120.0
            },
            {
                "start_time": 141.6,
                "end_time": 141.7,
                "pitch": 74,
                "velocity": 4,
                "duration": 0.1,
                "tempo": 120.0
            },
            {
                "start_time": 141.7,
                "end_time": 141.8,
                "pitch": 72,
                "velocity": 4,
                "duration": 0.1,
                "tempo": 120.0
            },
            {
                "start_time": 141.8,
                "end_time": 141.9045455,
                "pitch": 71,
                "velocity": 4,
                "duration": 0.1045455,
                "tempo": 120.0
            },
            {
                "start_time": 141.9045455,
                "end_time": 142.0068182,
                "pitch": 69,
                "velocity": 4,
                "duration": 0.1022727,
                "tempo": 120.0
            },
            {
                "start_time": 142.0068182,
                "end_time": 142.1090909,
                "pitch": 67,
                "velocity": 4,
                "duration": 0.1022727,
                "tempo": 120.0
            },
            {
                "start_time": 142.1090909,
                "end_time": 142.2113636,
                "pitch": 69,
                "velocity": 4,
                "duration": 0.1022727,
                "tempo": 120.0
            },
            {
                "start_time": 142.2113636,
                "end_time": 142.3090909,
                "pitch": 59,
                "velocity": 4,
                "duration": 0.0977273,
                "tempo": 120.0
            },
            {
                "start_time": 142.3090909,
                "end_time": 142.4068182,
                "pitch": 62,
                "velocity": 4,
                "duration": 0.0977273,
                "tempo": 120.0
            },
            {
                "start_time": 142.4068182,
                "end_time": 142.5045455,
                "pitch": 62,
                "velocity": 4,
                "duration": 0.0977273,
                "tempo": 120.0
            },
            {
                "start_time": 142.5045455,
                "end_time": 142.6022727,
                "pitch": 63,
                "velocity": 4,
                "duration": 0.0977273,
                "tempo": 120.0
            },
            {
                "start_time": 142.6022727,
                "end_time": 142.7022727,
                "pitch": 64,
                "velocity": 4,
                "duration": 0.1,
                "tempo": 120.0
            },
            {
                "start_time": 142.7022727,
                "end_time": 142.8,
                "pitch": 67,
                "velocity": 4,
                "duration": 0.0977273,
                "tempo": 120.0
            },
            {
                "start_time": 142.8,
                "end_time": 142.8977273,
                "pitch": 71,
                "velocity": 4,
                "duration": 0.0977273,
                "tempo": 120.0
            },
            {
                "start_time": 142.8977273,
                "end_time": 142.9954545,
                "pitch": 74,
                "velocity": 4,
                "duration": 0.0977273,
                "tempo": 120.0
            },
            {
                "start_time": 142.9954545,
                "end_time": 143.0954545,
                "pitch": 71,
                "velocity": 4,
                "duration": 0.1,
                "tempo": 120.0
            },
            {
                "start_time": 143.0954545,
                "end_time": 143.1954545,
                "pitch": 64,
                "velocity": 4,
                "duration": 0.1,
                "tempo": 120.0
            },
            {
                "start_time": 143.1954545,
                "end_time": 143.2954545,
                "pitch": 67,
                "velocity": 4,
                "duration": 0.1,
                "tempo": 120.0
            },
            {
                "start_time": 143.2954545,
                "end_time": 143.325,
                "pitch": 67,
                "velocity": 4,
                "duration": 0.0295455,
                "tempo": 120.0
            }
        ]
    }
}