{
    "mood": "angry",
    "instruments": {
        "Acoustic Bass": [
            {
                "start_time": 0.1,
                "end_time": 0.1340909,
                "pitch": 33,
                "velocity": 80,
                "duration": 0.0340909,
                "tempo": 120.0
            },
            {
                "start_time": 0.2,
                "end_time": 0.2340909,
                "pitch": 33,
                "velocity": 80,
                "duration": 0.0340909,
                "tempo": 120.0
            },
            {
                "start_time": 0.6,
                "end_time": 0.6340909,
                "pitch": 36,
                "velocity": 80,
                "duration": 0.0340909,
                "tempo": 120.0
            },
            {
                "start_time": 0.8022727,
                "end_time": 0.8340909,
                "pitch": 35,
                "velocity": 80,
                "duration": 0.0318182,
                "tempo": 120.0
            },
            {
                "start_time": 1.0954545,
                "end_time": 1.5022727,
                "pitch": 31,
                "velocity": 80,
                "duration": 0.4068182,
                "tempo": 120.0
            },
            {
                "start_time": 1.5022727,
                "end_time": 1.7022727,
                "pitch": 33,
                "velocity": 80,
                "duration": 0.2,
                "tempo": 120.0
            },
            {
                "start_time": 1.7022727,
                "end_time": 1.7340909,
                "pitch": 33,
                "velocity": 80,
                "duration": 0.0318182,
                "tempo": 120.0
            },
            {
                "start_time": 1.8,
                "end_time": 1.8340909,
                "pitch": 33,
                "velocity": 80,
                "duration": 0.0340909,
                "tempo": 120.0
            },
            {
                "start_time": 1.9977273,
                "end_time": 2.0795455,
                "pitch": 35,
                "velocity": 80,
                "duration": 0.0818182,
                "tempo": 120.0
            },
            {
                "start_time": 2.1977273,
                "end_time": 2.2977273,
                "pitch": 36,
                "velocity": 80,
                "duration": 0.1,
                "tempo": 120.0
            },
            {
                "start_time": 2.3977273,
                "end_time": 2.4318182,
                "pitch": 35,
                "velocity": 80,
                "duration": 0.0340909,
                "tempo": 120.0
            },
            {
                "start_time": 3.0068182,
                "end_time": 3.1068182,
                "pitch": 31,
                "velocity": 80,
                "duration": 0.1,
                "tempo": 120.0
            },
            {
                "start_time": 3.2068182,
                "end_time": 3.2590909,
                "pitch": 29,
                "velocity": 80,
                "duration": 0.0522727,
                "tempo": 120.0
            },
            {
                "start_time": 3.3090909,
                "end_time": 3.3590909,
                "pitch": 29,
                "velocity": 80,
                "duration": 0.05,
                "tempo": 120.0
            },
            {
                "start_time": 3.4090909,
                "end_time": 3.4590909,
                "pitch": 29,
                "velocity": 80,
                "duration": 0.05,
                "tempo": 120.0
            },
            {
                "start_time": 3.8068182,
                "end_time": 3.8545455,
                "pitch": 33,
                "velocity": 80,
                "duration": 0.0477273,
                "tempo": 120.0
            },
            {
                "start_time": 4.0022727,
                "end_time": 4.0522727,
                "pitch": 31,
                "velocity": 80,
                "duration": 0.05,
                "tempo": 120.0
            },
            {
                "start_time": 4.7136364,
                "end_time": 4.8159091,
                "pitch": 29,
                "velocity": 80,
                "duration": 0.1022727,
                "tempo": 120.0
            },
            {
                "start_time": 4.9136364,
                "end_time": 4.9636364,
                "pitch": 29,
                "velocity": 80,
                "duration": 0.05,
                "tempo": 120.0
            },
            {
                "start_time": 5.0113636,
                "end_time": 5.0613636,
                "pitch": 29,
                "velocity": 80,
                "duration": 0.05,
                "tempo": 120.0
            },
            {
                "start_time": 5.2090909,
                "end_time": 5.3090909,
                "pitch": 31,
                "velocity": 80,
                "duration": 0.1,
                "tempo": 120.0
            },
            {
                "start_time": 5.4090909,
                "end_time": 5.5090909,
                "pitch": 33,
                "velocity": 80,
                "duration": 0.1,
                "tempo": 120.0
            },
            {
                "start_time": 5.6113636,
                "end_time": 5.6613636,
                "pitch": 31,
                "velocity": 80,
                "duration": 0.05,
                "tempo": 120.0
            },
            {
                "start_time": 5.8113636,
                "end_time": 6.2113636,
                "pitch": 36,
                "velocity": 80,
                "duration": 0.4,
                "tempo": 120.0
            },
            {
                "start_time": 6.2113636,
                "end_time": 6.4136364,
                "pitch": 35,
                "velocity": 80,
                "duration": 0.2022727,
                "tempo": 120.0
            }
        ],
        "Harpsichord": [
            {
                "start_time": 0.1,
                "end_time": 0.1659091,
                "pitch": 51,
                "velocity": 51,
                "duration": 0.0659091,
                "tempo": 120.0
            },
            {
                "start_time": 0.2,
                "end_time": 0.2659091,
                "pitch": 52,
                "velocity": 51,
                "duration": 0.0659091,
                "tempo": 120.0
            },
            {
                "start_time": 0.4,
                "end_time": 0.4681818,
                "pitch": 50,
                "velocity": 51,
                "duration": 0.0681818,
                "tempo": 120.0
            },
            {
                "start_time": 0.6,
                "end_time": 0.6840909,
                "pitch": 51,
                "velocity": 51,
                "duration": 0.0840909,
                "tempo": 120.0
            },
            {
                "start_time": 0.8022727,
                "end_time": 0.8681818,
                "pitch": 52,
                "velocity": 51,
                "duration": 0.0659091,
                "tempo": 120.0
            },
            {
                "start_time": 1.5022727,
                "end_time": 1.6522727,
                "pitch": 55,
                "velocity": 51,
                "duration": 0.15,
                "tempo": 120.0
            },
            {
                "start_time": 1.7022727,
                "end_time": 1.7840909,
                "pitch": 55,
                "velocity": 51,
                "duration": 0.0818182,
                "tempo": 120.0
            },
            {
                "start_time": 1.8,
                "end_time": 1.8818182,
                "pitch": 55,
                "velocity": 51,
                "duration": 0.0818182,
                "tempo": 120.0
            },
            {
                "start_time": 1.9977273,
                "end_time": 2.1477273,
                "pitch": 57,
                "velocity": 51,
                "duration": 0.15,
                "tempo": 120.0
            },
            {
                "start_time": 2.1977273,
                "end_time": 2.3477273,
                "pitch": 58,
                "velocity": 51,
                "duration": 0.15,
                "tempo": 120.0
            },
            {
                "start_time": 2.3977273,
                "end_time": 2.4818182,
                "pitch": 59,
                "velocity": 51,
                "duration": 0.0840909,
                "tempo": 120.0
            },
            {
                "start_time": 3.1068182,
                "end_time": 3.2590909,
                "pitch": 55,
                "velocity": 51,
                "duration": 0.1522727,
                "tempo": 120.0
            },
            {
                "start_time": 3.3090909,
                "end_time": 3.3931818,
                "pitch": 57,
                "velocity": 51,
                "duration": 0.0840909,
                "tempo": 120.0
            },
            {
                "start_time": 3.4090909,
                "end_time": 3.4931818,
                "pitch": 57,
                "velocity": 51,
                "duration": 0.0840909,
                "tempo": 120.0
            },
            {
                "start_time": 3.6090909,
                "end_time": 3.6909091,
                "pitch": 55,
                "velocity": 51,
                "duration": 0.0818182,
                "tempo": 120.0
            },
            {
                "start_time": 3.8068182,
                "end_time": 3.8886364,
                "pitch": 57,
                "velocity": 51,
                "duration": 0.0818182,
                "tempo": 120.0
            },
            {
                "start_time": 4.0022727,
                "end_time": 4.0863636,
                "pitch": 55,
                "velocity": 51,
                "duration": 0.0840909,
                "tempo": 120.0
            },
            {
                "start_time": 4.7136364,
                "end_time": 4.8636364,
                "pitch": 57,
                "velocity": 51,
                "duration": 0.15,
                "tempo": 120.0
            },
            {
                "start_time": 4.9136364,
                "end_time": 4.9954545,
                "pitch": 57,
                "velocity": 51,
                "duration": 0.0818182,
                "tempo": 120.0
            },
            {
                "start_time": 5.0113636,
                "end_time": 5.0931818,
                "pitch": 57,
                "velocity": 51,
                "duration": 0.0818182,
                "tempo": 120.0
            },
            {
                "start_time": 5.2090909,
                "end_time": 5.3590909,
                "pitch": 55,
                "velocity": 51,
                "duration": 0.15,
                "tempo": 120.0
            },
            {
                "start_time": 5.4090909,
                "end_time": 5.4931818,
                "pitch": 57,
                "velocity": 51,
                "duration": 0.0840909,
                "tempo": 120.0
            },
            {
                "start_time": 5.6113636,
                "end_time": 5.6931818,
                "pitch": 59,
                "velocity": 51,
                "duration": 0.0818182,
                "tempo": 120.0
            },
            {
                "start_time": 6.0113636,
                "end_time": 6.3136364,
                "pitch": 57,
                "velocity": 51,
                "duration": 0.3022727,
                "tempo": 120.0
            }
        ],
        "Electric Guitar (clean)": [
            {
                "start_time": 0.0,
                "end_time": 0.1159091,
                "pitch": 52,
                "velocity": 4,
                "duration": 0.1159091,
                "tempo": 120.0
            },
            {
                "start_time": 0.1159091,
                "end_time": 0.2340909,
                "pitch": 36,
                "velocity": 4,
                "duration": 0.1181818,
                "tempo": 120.0
            },
            {
                "start_time": 0.2340909,
                "end_time": 0.3159091,
                "pitch": 46,
                "velocity": 4,
                "duration": 0.0818182,
                "tempo": 120.0
            },
            {
                "start_time": 0.3159091,
                "end_time": 0.4159091,
                "pitch": 30,
                "velocity": 4,
                "duration": 0.1,
                "tempo": 120.0
            },
            {
                "start_time": 0.4159091,
                "end_time": 0.6181818,
                "pitch": 38,
                "velocity": 4,
                "duration": 0.2022727,
                "tempo": 120.0
            },
            {
                "start_time": 0.6181818,
                "end_time": 0.7181818,
                "pitch": 46,
                "velocity": 4,
                "duration": 0.1,
                "tempo": 120.0
            },
            {
                "start_time": 0.7181818,
                "end_time": 0.8181818,
                "pitch": 30,
                "velocity": 4,
                "duration": 0.1,
                "tempo": 120.0
            },
            {
                "start_time": 0.8181818,
                "end_time": 1.0136364,
                "pitch": 46,
                "velocity": 4,
                "duration": 0.1954545,
                "tempo": 120.0
            },
            {
                "start_time": 1.0136364,
                "end_time": 1.1113636,
                "pitch": 30,
                "velocity": 4,
                "duration": 0.0977273,
                "tempo": 120.0
            },
            {
                "start_time": 1.1113636,
                "end_time": 1.2113636,
                "pitch": 54,
                "velocity": 4,
                "duration": 0.1,
                "tempo": 120.0
            },
            {
                "start_time": 1.2113636,
                "end_time": 1.5181818,
                "pitch": 30,
                "velocity": 4,
                "duration": 0.3068182,
                "tempo": 120.0
            },
            {
                "start_time": 1.5181818,
                "end_time": 1.7181818,
                "pitch": 47,
                "velocity": 4,
                "duration": 0.2,
                "tempo": 120.0
            },
            {
                "start_time": 1.7181818,
                "end_time": 1.9159091,
                "pitch": 45,
                "velocity": 4,
                "duration": 0.1977273,
                "tempo": 120.0
            },
            {
                "start_time": 1.9159091,
                "end_time": 2.0136364,
                "pitch": 30,
                "velocity": 4,
                "duration": 0.0977273,
                "tempo": 120.0
            },
            {
                "start_time": 2.0136364,
                "end_time": 2.2136364,
                "pitch": 54,
                "velocity": 4,
                "duration": 0.2,
                "tempo": 120.0
            },
            {
                "start_time": 2.2136364,
                "end_time": 2.3136364,
                "pitch": 46,
                "velocity": 4,
                "duration": 0.1,
                "tempo": 120.0
            },
            {
                "start_time": 2.3136364,
                "end_time": 2.4136364,
                "pitch": 30,
                "velocity": 4,
                "duration": 0.1,
                "tempo": 120.0
            },
            {
                "start_time": 2.4136364,
                "end_time": 2.6181818,
                "pitch": 46,
                "velocity": 4,
                "duration": 0.2045455,
                "tempo": 120.0
            },
            {
                "start_time": 2.6181818,
                "end_time": 2.825,
                "pitch": 30,
                "velocity": 4,
                "duration": 0.2068182,
                "tempo": 120.0
            },
            {
                "start_time": 2.825,
                "end_time": 3.025,
                "pitch": 39,
                "velocity": 4,
                "duration": 0.2,
                "tempo": 120.0
            },
            {
                "start_time": 3.025,
                "end_time": 3.125,
                "pitch": 46,
                "velocity": 4,
                "duration": 0.1,
                "tempo": 120.0
            },
            {
                "start_time": 3.125,
                "end_time": 3.225,
                "pitch": 30,
                "velocity": 4,
                "duration": 0.1,
                "tempo": 120.0
            },
            {
                "start_time": 3.225,
                "end_time": 3.5272727,
                "pitch": 46,
                "velocity": 4,
                "duration": 0.3022727,
                "tempo": 120.0
            },
            {
                "start_time": 3.5272727,
                "end_time": 3.6272727,
                "pitch": 30,
                "velocity": 4,
                "duration": 0.1,
                "tempo": 120.0
            },
            {
                "start_time": 3.6272727,
                "end_time": 3.8227273,
                "pitch": 38,
                "velocity": 4,
                "duration": 0.1954545,
                "tempo": 120.0
            },
            {
                "start_time": 3.8227273,
                "end_time": 3.9204545,
                "pitch": 46,
                "velocity": 4,
                "duration": 0.0977273,
                "tempo": 120.0
            },
            {
                "start_time": 3.9204545,
                "end_time": 3.9522727,
                "pitch": 30,
                "velocity": 4,
                "duration": 0.0318182,
                "tempo": 120.0
            },
            {
                "start_time": 3.9522727,
                "end_time": 4.0181818,
                "pitch": 100,
                "velocity": 4,
                "duration": 0.0659091,
                "tempo": 120.0
            },
            {
                "start_time": 4.0181818,
                "end_time": 4.2204545,
                "pitch": 19,
                "velocity": 4,
                "duration": 0.2022727,
                "tempo": 120.0
            },
            {
                "start_time": 4.2204545,
                "end_time": 4.3204545,
                "pitch": 100,
                "velocity": 4,
                "duration": 0.1,
                "tempo": 120.0
            },
            {
                "start_time": 4.3204545,
                "end_time": 4.4227273,
                "pitch": 28,
                "velocity": 4,
                "duration": 0.1022727,
                "tempo": 120.0
            },
            {
                "start_time": 4.4227273,
                "end_time": 4.7295455,
                "pitch": 100,
                "velocity": 4,
                "duration": 0.3068182,
                "tempo": 120.0
            },
            {
                "start_time": 4.7295455,
                "end_time": 4.9295455,
                "pitch": 21,
                "velocity": 4,
                "duration": 0.2,
                "tempo": 120.0
            },
            {
                "start_time": 4.9295455,
                "end_time": 5.1272727,
                "pitch": 19,
                "velocity": 4,
                "duration": 0.1977273,
                "tempo": 120.0
            },
            {
                "start_time": 5.1272727,
                "end_time": 5.225,
                "pitch": 100,
                "velocity": 4,
                "duration": 0.0977273,
                "tempo": 120.0
            },
            {
                "start_time": 5.225,
                "end_time": 5.4272727,
                "pitch": 28,
                "velocity": 4,
                "duration": 0.2022727,
                "tempo": 120.0
            },
            {
                "start_time": 5.4272727,
                "end_time": 5.5272727,
                "pitch": 19,
                "velocity": 4,
                "duration": 0.1,
                "tempo": 120.0
            },
            {
                "start_time": 5.5272727,
                "end_time": 5.6272727,
                "pitch": 100,
                "velocity": 4,
                "duration": 0.1,
                "tempo": 120.0
            },
            {
                "start_time": 5.6272727,
                "end_time": 5.7272727,
                "pitch": 28,
                "velocity": 4,
                "duration": 0.1,
                "tempo": 120.0
            },
            {
                "start_time": 5.7272727,
                "end_time": 5.9272727,
                "pitch": 107,
                "velocity": 4,
                "duration": 0.2,
                "tempo": 120.0
            },
            {
                "start_time": 5.9272727,
                "end_time": 6.0272727,
                "pitch": 100,
                "velocity": 4,
                "duration": 0.1,
                "tempo": 120.0
            },
            {
                "start_time": 6.0272727,
                "end_time": 6.1272727,
                "pitch": 13,
                "velocity": 4,
                "duration": 0.1,
                "tempo": 120.0
            },
            {
                "start_time": 6.1272727,
                "end_time": 6.2295455,
                "pitch": 107,
                "velocity": 4,
                "duration": 0.1022727,
                "tempo": 120.0
            },
            {
                "start_time": 6.2295455,
                "end_time": 6.3295455,
                "pitch": 28,
                "velocity": 4,
                "duration": 0.1,
                "tempo": 120.0
            },
            {
                "start_time": 6.3295455,
                "end_time": 6.4136364,
                "pitch": 100,
                "velocity": 4,
                "duration": 0.0840909,
                "tempo": 120.0
            }
        ]
    }
}