{
    "mood": "angry",
    "instruments": {
        "Acoustic Bass": [
            {
                "start_time": 3.775,
                "end_time": 6.1636364,
                "pitch": 73,
                "velocity": 101,
                "duration": 2.3886364,
                "tempo": 120.0
            },
            {
                "start_time": 6.1795455,
                "end_time": 7.1181818,
                "pitch": 61,
                "velocity": 101,
                "duration": 0.9386364,
                "tempo": 120.0
            },
            {
                "start_time": 7.1340909,
                "end_time": 7.5931818,
                "pitch": 64,
                "velocity": 101,
                "duration": 0.4590909,
                "tempo": 120.0
            },
            {
                "start_time": 7.6090909,
                "end_time": 8.4386364,
                "pitch": 68,
                "velocity": 101,
                "duration": 0.8295455,
                "tempo": 120.0
            },
            {
                "start_time": 8.4727273,
                "end_time": 10.975,
                "pitch": 66,
                "velocity": 101,
                "duration": 2.5022727,
                "tempo": 120.0
            },
            {
                "start_time": 11.9568182,
                "end_time": 13.8659091,
                "pitch": 73,
                "velocity": 101,
                "duration": 1.9090909,
                "tempo": 120.0
            },
            {
                "start_time": 13.9,
                "end_time": 14.3522727,
                "pitch": 76,
                "velocity": 101,
                "duration": 0.4522727,
                "tempo": 120.0
            },
            {
                "start_time": 14.3704545,
                "end_time": 14.6,
                "pitch": 75,
                "velocity": 101,
                "duration": 0.2295455,
                "tempo": 120.0
            },
            {
                "start_time": 14.6159091,
                "end_time": 14.7136364,
                "pitch": 74,
                "velocity": 101,
                "duration": 0.0977273,
                "tempo": 120.0
            },
            {
                "start_time": 14.7295455,
                "end_time": 15.0659091,
                "pitch": 73,
                "velocity": 101,
                "duration": 0.3363636,
                "tempo": 120.0
            },
            {
                "start_time": 15.1,
                "end_time": 15.5590909,
                "pitch": 66,
                "velocity": 101,
                "duration": 0.4590909,
                "tempo": 120.0
            },
            {
                "start_time": 15.575,
                "end_time": 18.2227273,
                "pitch": 73,
                "velocity": 101,
                "duration": 2.6477273,
                "tempo": 120.0
            },
            {
                "start_time": 19.1977273,
                "end_time": 19.4272727,
                "pitch": 61,
                "velocity": 101,
                "duration": 0.2295455,
                "tempo": 120.0
            },
            {
                "start_time": 19.4431818,
                "end_time": 19.5409091,
                "pitch": 61,
                "velocity": 101,
                "duration": 0.0977273,
                "tempo": 120.0
            },
            {
                "start_time": 19.5590909,
                "end_time": 19.8886364,
                "pitch": 61,
                "velocity": 101,
                "duration": 0.3295455,
                "tempo": 120.0
            },
            {
                "start_time": 19.9227273,
                "end_time": 20.1386364,
                "pitch": 73,
                "velocity": 101,
                "duration": 0.2159091,
                "tempo": 120.0
            },
            {
                "start_time": 20.1568182,
                "end_time": 20.375,
                "pitch": 66,
                "velocity": 101,
                "duration": 0.2181818,
                "tempo": 120.0
            },
            {
                "start_time": 20.3909091,
                "end_time": 20.6272727,
                "pitch": 73,
                "velocity": 101,
                "duration": 0.2363636,
                "tempo": 120.0
            },
            {
                "start_time": 20.6431818,
                "end_time": 21.35,
                "pitch": 71,
                "velocity": 101,
                "duration": 0.7068182,
                "tempo": 120.0
            },
            {
                "start_time": 21.3659091,
                "end_time": 21.5840909,
                "pitch": 69,
                "velocity": 101,
                "duration": 0.2181818,
                "tempo": 120.0
            },
            {
                "start_time": 21.6,
                "end_time": 21.8363636,
                "pitch": 68,
                "velocity": 101,
                "duration": 0.2363636,
                "tempo": 120.0
            },
            {
                "start_time": 21.8522727,
                "end_time": 22.0704545,
                "pitch": 64,
                "velocity": 101,
                "duration": 0.2181818,
                "tempo": 120.0
            },
            {
                "start_time": 22.0886364,
                "end_time": 22.7931818,
                "pitch": 66,
                "velocity": 101,
                "duration": 0.7045455,
                "tempo": 120.0
            },
            {
                "start_time": 22.8113636,
                "end_time": 23.0454545,
                "pitch": 64,
                "velocity": 101,
                "duration": 0.2340909,
                "tempo": 120.0
            },
            {
                "start_time": 23.0636364,
                "end_time": 23.2818182,
                "pitch": 62,
                "velocity": 101,
                "duration": 0.2181818,
                "tempo": 120.0
            },
            {
                "start_time": 23.2977273,
                "end_time": 23.5159091,
                "pitch": 64,
                "velocity": 101,
                "duration": 0.2181818,
                "tempo": 120.0
            },
            {
                "start_time": 23.55,
                "end_time": 24.2454545,
                "pitch": 61,
                "velocity": 101,
                "duration": 0.6954545,
                "tempo": 120.0
            },
            {
                "start_time": 24.2613636,
                "end_time": 24.475,
                "pitch": 61,
                "velocity": 101,
                "duration": 0.2136364,
                "tempo": 120.0
            },
            {
                "start_time": 24.4909091,
                "end_time": 24.7136364,
                "pitch": 62,
                "velocity": 101,
                "duration": 0.2227273,
                "tempo": 120.0
            },
            {
                "start_time": 24.7477273,
                "end_time": 24.9704545,
                "pitch": 64,
                "velocity": 101,
                "duration": 0.2227273,
                "tempo": 120.0
            },
            {
                "start_time": 24.9863636,
                "end_time": 25.2045455,
                "pitch": 66,
                "velocity": 101,
                "duration": 0.2181818,
                "tempo": 120.0
            },
            {
                "start_time": 25.2227273,
                "end_time": 25.3227273,
                "pitch": 66,
                "velocity": 101,
                "duration": 0.1,
                "tempo": 120.0
            },
            {
                "start_time": 25.3568182,
                "end_time": 25.6931818,
                "pitch": 66,
                "velocity": 101,
                "duration": 0.3363636,
                "tempo": 120.0
            },
            {
                "start_time": 25.7090909,
                "end_time": 25.9272727,
                "pitch": 78,
                "velocity": 101,
                "duration": 0.2181818,
                "tempo": 120.0
            },
            {
                "start_time": 25.9613636,
                "end_time": 26.1840909,
                "pitch": 71,
                "velocity": 101,
                "duration": 0.2227273,
                "tempo": 120.0
            },
            {
                "start_time": 26.2,
                "end_time": 26.4227273,
                "pitch": 78,
                "velocity": 101,
                "duration": 0.2227273,
                "tempo": 120.0
            },
            {
                "start_time": 26.4386364,
                "end_time": 27.1295455,
                "pitch": 76,
                "velocity": 101,
                "duration": 0.6909091,
                "tempo": 120.0
            },
            {
                "start_time": 27.1613636,
                "end_time": 27.375,
                "pitch": 71,
                "velocity": 101,
                "duration": 0.2136364,
                "tempo": 120.0
            },
            {
                "start_time": 27.3909091,
                "end_time": 27.6136364,
                "pitch": 73,
                "velocity": 101,
                "duration": 0.2227273,
                "tempo": 120.0
            },
            {
                "start_time": 27.6295455,
                "end_time": 27.8681818,
                "pitch": 74,
                "velocity": 101,
                "duration": 0.2386364,
                "tempo": 120.0
            },
            {
                "start_time": 27.8863636,
                "end_time": 28.5909091,
                "pitch": 76,
                "velocity": 101,
                "duration": 0.7045455,
                "tempo": 120.0
            },
            {
                "start_time": 28.6090909,
                "end_time": 28.8272727,
                "pitch": 71,
                "velocity": 101,
                "duration": 0.2181818,
                "tempo": 120.0
            },
            {
                "start_time": 28.8431818,
                "end_time": 29.0795455,
                "pitch": 73,
                "velocity": 101,
                "duration": 0.2363636,
                "tempo": 120.0
            },
            {
                "start_time": 29.0954545,
                "end_time": 29.3136364,
                "pitch": 74,
                "velocity": 101,
                "duration": 0.2181818,
                "tempo": 120.0
            },
            {
                "start_time": 29.3318182,
                "end_time": 32.2136364,
                "pitch": 76,
                "velocity": 101,
                "duration": 2.8818182,
                "tempo": 120.0
            }
        ],
        "Clarinet": [
            {
                "start_time": 3.8931818,
                "end_time": 3.9931818,
                "pitch": 68,
                "velocity": 51,
                "duration": 0.1,
                "tempo": 120.0
            },
            {
                "start_time": 4.0090909,
                "end_time": 4.1090909,
                "pitch": 73,
                "velocity": 51,
                "duration": 0.1,
                "tempo": 120.0
            },
            {
                "start_time": 4.2590909,
                "end_time": 4.3590909,
                "pitch": 75,
                "velocity": 51,
                "duration": 0.1,
                "tempo": 120.0
            },
            {
                "start_time": 4.4931818,
                "end_time": 4.5931818,
                "pitch": 71,
                "velocity": 51,
                "duration": 0.1,
                "tempo": 120.0
            },
            {
                "start_time": 4.6090909,
                "end_time": 4.7090909,
                "pitch": 73,
                "velocity": 51,
                "duration": 0.1,
                "tempo": 120.0
            },
            {
                "start_time": 4.8545455,
                "end_time": 4.95,
                "pitch": 66,
                "velocity": 51,
                "duration": 0.0954545,
                "tempo": 120.0
            },
            {
                "start_time": 4.9659091,
                "end_time": 5.0613636,
                "pitch": 68,
                "velocity": 51,
                "duration": 0.0954545,
                "tempo": 120.0
            },
            {
                "start_time": 5.1909091,
                "end_time": 5.2931818,
                "pitch": 64,
                "velocity": 51,
                "duration": 0.1022727,
                "tempo": 120.0
            },
            {
                "start_time": 5.3090909,
                "end_time": 5.4113636,
                "pitch": 63,
                "velocity": 51,
                "duration": 0.1022727,
                "tempo": 120.0
            },
            {
                "start_time": 5.4454545,
                "end_time": 5.5477273,
                "pitch": 59,
                "velocity": 51,
                "duration": 0.1022727,
                "tempo": 120.0
            },
            {
                "start_time": 5.5659091,
                "end_time": 5.6681818,
                "pitch": 61,
                "velocity": 51,
                "duration": 0.1022727,
                "tempo": 120.0
            },
            {
                "start_time": 5.8045455,
                "end_time": 5.9068182,
                "pitch": 68,
                "velocity": 51,
                "duration": 0.1022727,
                "tempo": 120.0
            },
            {
                "start_time": 5.925,
                "end_time": 6.0272727,
                "pitch": 73,
                "velocity": 51,
                "duration": 0.1022727,
                "tempo": 120.0
            },
            {
                "start_time": 6.1795455,
                "end_time": 6.2795455,
                "pitch": 75,
                "velocity": 51,
                "duration": 0.1,
                "tempo": 120.0
            },
            {
                "start_time": 6.4136364,
                "end_time": 6.5136364,
                "pitch": 71,
                "velocity": 51,
                "duration": 0.1,
                "tempo": 120.0
            },
            {
                "start_time": 6.5295455,
                "end_time": 6.6295455,
                "pitch": 73,
                "velocity": 51,
                "duration": 0.1,
                "tempo": 120.0
            },
            {
                "start_time": 6.7818182,
                "end_time": 6.8818182,
                "pitch": 66,
                "velocity": 51,
                "duration": 0.1,
                "tempo": 120.0
            },
            {
                "start_time": 6.9,
                "end_time": 7.0,
                "pitch": 68,
                "velocity": 51,
                "duration": 0.1,
                "tempo": 120.0
            },
            {
                "start_time": 7.1340909,
                "end_time": 7.2318182,
                "pitch": 64,
                "velocity": 51,
                "duration": 0.0977273,
                "tempo": 120.0
            },
            {
                "start_time": 7.2659091,
                "end_time": 7.3636364,
                "pitch": 63,
                "velocity": 51,
                "duration": 0.0977273,
                "tempo": 120.0
            },
            {
                "start_time": 7.3795455,
                "end_time": 7.4795455,
                "pitch": 59,
                "velocity": 51,
                "duration": 0.1,
                "tempo": 120.0
            },
            {
                "start_time": 7.4954545,
                "end_time": 7.5931818,
                "pitch": 61,
                "velocity": 51,
                "duration": 0.0977273,
                "tempo": 120.0
            },
            {
                "start_time": 7.7272727,
                "end_time": 7.8272727,
                "pitch": 68,
                "velocity": 51,
                "duration": 0.1,
                "tempo": 120.0
            },
            {
                "start_time": 7.8613636,
                "end_time": 7.9636364,
                "pitch": 73,
                "velocity": 51,
                "duration": 0.1022727,
                "tempo": 120.0
            },
            {
                "start_time": 8.0977273,
                "end_time": 8.2,
                "pitch": 75,
                "velocity": 51,
                "duration": 0.1022727,
                "tempo": 120.0
            },
            {
                "start_time": 8.3363636,
                "end_time": 8.4386364,
                "pitch": 71,
                "velocity": 51,
                "duration": 0.1022727,
                "tempo": 120.0
            },
            {
                "start_time": 8.4727273,
                "end_time": 8.575,
                "pitch": 73,
                "velocity": 51,
                "duration": 0.1022727,
                "tempo": 120.0
            },
            {
                "start_time": 8.7068182,
                "end_time": 8.8045455,
                "pitch": 66,
                "velocity": 51,
                "duration": 0.0977273,
                "tempo": 120.0
            },
            {
                "start_time": 8.8204545,
                "end_time": 8.9204545,
                "pitch": 68,
                "velocity": 51,
                "duration": 0.1,
                "tempo": 120.0
            },
            {
                "start_time": 9.0681818,
                "end_time": 9.1704545,
                "pitch": 64,
                "velocity": 51,
                "duration": 0.1022727,
                "tempo": 120.0
            },
            {
                "start_time": 9.1863636,
                "end_time": 9.2886364,
                "pitch": 63,
                "velocity": 51,
                "duration": 0.1022727,
                "tempo": 120.0
            },
            {
                "start_time": 9.3068182,
                "end_time": 9.4090909,
                "pitch": 59,
                "velocity": 51,
                "duration": 0.1022727,
                "tempo": 120.0
            },
            {
                "start_time": 9.4272727,
                "end_time": 9.5295455,
                "pitch": 61,
                "velocity": 51,
                "duration": 0.1022727,
                "tempo": 120.0
            },
            {
                "start_time": 9.6772727,
                "end_time": 9.775,
                "pitch": 68,
                "velocity": 51,
                "duration": 0.0977273,
                "tempo": 120.0
            },
            {
                "start_time": 9.7909091,
                "end_time": 9.8909091,
                "pitch": 73,
                "velocity": 51,
                "duration": 0.1,
                "tempo": 120.0
            },
            {
                "start_time": 10.0204545,
                "end_time": 10.1227273,
                "pitch": 75,
                "velocity": 51,
                "duration": 0.1022727,
                "tempo": 120.0
            },
            {
                "start_time": 10.2727273,
                "end_time": 10.375,
                "pitch": 71,
                "velocity": 51,
                "duration": 0.1022727,
                "tempo": 120.0
            },
            {
                "start_time": 10.3909091,
                "end_time": 10.4909091,
                "pitch": 73,
                "velocity": 51,
                "duration": 0.1,
                "tempo": 120.0
            },
            {
                "start_time": 10.625,
                "end_time": 10.725,
                "pitch": 66,
                "velocity": 51,
                "duration": 0.1,
                "tempo": 120.0
            },
            {
                "start_time": 10.7409091,
                "end_time": 10.8409091,
                "pitch": 68,
                "velocity": 51,
                "duration": 0.1,
                "tempo": 120.0
            },
            {
                "start_time": 10.9909091,
                "end_time": 11.0954545,
                "pitch": 64,
                "velocity": 51,
                "duration": 0.1045455,
                "tempo": 120.0
            },
            {
                "start_time": 11.1113636,
                "end_time": 11.2136364,
                "pitch": 63,
                "velocity": 51,
                "duration": 0.1022727,
                "tempo": 120.0
            },
            {
                "start_time": 11.2318182,
                "end_time": 11.3340909,
                "pitch": 59,
                "velocity": 51,
                "duration": 0.1022727,
                "tempo": 120.0
            },
            {
                "start_time": 11.35,
                "end_time": 11.4522727,
                "pitch": 61,
                "velocity": 51,
                "duration": 0.1022727,
                "tempo": 120.0
            },
            {
                "start_time": 11.6045455,
                "end_time": 11.7045455,
                "pitch": 68,
                "velocity": 51,
                "duration": 0.1,
                "tempo": 120.0
            },
            {
                "start_time": 11.7227273,
                "end_time": 11.8227273,
                "pitch": 73,
                "velocity": 51,
                "duration": 0.1,
                "tempo": 120.0
            },
            {
                "start_time": 11.9568182,
                "end_time": 12.0568182,
                "pitch": 75,
                "velocity": 51,
                "duration": 0.1,
                "tempo": 120.0
            },
            {
                "start_time": 12.2045455,
                "end_time": 12.3022727,
                "pitch": 71,
                "velocity": 51,
                "duration": 0.0977273,
                "tempo": 120.0
            },
            {
                "start_time": 12.3181818,
                "end_time": 12.4159091,
                "pitch": 73,
                "velocity": 51,
                "duration": 0.0977273,
                "tempo": 120.0
            },
            {
                "start_time": 12.5477273,
                "end_time": 12.6454545,
                "pitch": 66,
                "velocity": 51,
                "duration": 0.0977273,
                "tempo": 120.0
            },
            {
                "start_time": 12.6795455,
                "end_time": 12.7772727,
                "pitch": 68,
                "velocity": 51,
                "duration": 0.0977273,
                "tempo": 120.0
            },
            {
                "start_time": 12.9090909,
                "end_time": 13.0136364,
                "pitch": 64,
                "velocity": 51,
                "duration": 0.1045455,
                "tempo": 120.0
            },
            {
                "start_time": 13.0295455,
                "end_time": 13.1340909,
                "pitch": 63,
                "velocity": 51,
                "duration": 0.1045455,
                "tempo": 120.0
            },
            {
                "start_time": 13.1522727,
                "end_time": 13.2568182,
                "pitch": 59,
                "velocity": 51,
                "duration": 0.1045455,
                "tempo": 120.0
            },
            {
                "start_time": 13.2909091,
                "end_time": 13.3954545,
                "pitch": 61,
                "velocity": 51,
                "duration": 0.1045455,
                "tempo": 120.0
            },
            {
                "start_time": 13.5295455,
                "end_time": 13.6295455,
                "pitch": 68,
                "velocity": 51,
                "duration": 0.1,
                "tempo": 120.0
            },
            {
                "start_time": 13.6477273,
                "end_time": 13.7477273,
                "pitch": 73,
                "velocity": 51,
                "duration": 0.1,
                "tempo": 120.0
            },
            {
                "start_time": 13.9,
                "end_time": 14.0,
                "pitch": 75,
                "velocity": 51,
                "duration": 0.1,
                "tempo": 120.0
            },
            {
                "start_time": 14.1340909,
                "end_time": 14.2340909,
                "pitch": 71,
                "velocity": 51,
                "duration": 0.1,
                "tempo": 120.0
            },
            {
                "start_time": 14.2522727,
                "end_time": 14.3522727,
                "pitch": 73,
                "velocity": 51,
                "duration": 0.1,
                "tempo": 120.0
            },
            {
                "start_time": 14.5,
                "end_time": 14.6,
                "pitch": 66,
                "velocity": 51,
                "duration": 0.1,
                "tempo": 120.0
            },
            {
                "start_time": 14.6159091,
                "end_time": 14.7136364,
                "pitch": 68,
                "velocity": 51,
                "duration": 0.0977273,
                "tempo": 120.0
            },
            {
                "start_time": 14.8454545,
                "end_time": 14.9477273,
                "pitch": 64,
                "velocity": 51,
                "duration": 0.1022727,
                "tempo": 120.0
            },
            {
                "start_time": 14.9636364,
                "end_time": 15.0659091,
                "pitch": 63,
                "velocity": 51,
                "duration": 0.1022727,
                "tempo": 120.0
            },
            {
                "start_time": 15.1,
                "end_time": 15.2045455,
                "pitch": 59,
                "velocity": 51,
                "duration": 0.1045455,
                "tempo": 120.0
            },
            {
                "start_time": 15.2204545,
                "end_time": 15.3227273,
                "pitch": 61,
                "velocity": 51,
                "duration": 0.1022727,
                "tempo": 120.0
            },
            {
                "start_time": 15.4568182,
                "end_time": 15.5590909,
                "pitch": 68,
                "velocity": 51,
                "duration": 0.1022727,
                "tempo": 120.0
            },
            {
                "start_time": 15.575,
                "end_time": 15.6772727,
                "pitch": 73,
                "velocity": 51,
                "duration": 0.1022727,
                "tempo": 120.0
            },
            {
                "start_time": 15.8272727,
                "end_time": 15.9272727,
                "pitch": 75,
                "velocity": 51,
                "duration": 0.1,
                "tempo": 120.0
            },
            {
                "start_time": 16.0636364,
                "end_time": 16.1636364,
                "pitch": 71,
                "velocity": 51,
                "duration": 0.1,
                "tempo": 120.0
            },
            {
                "start_time": 16.1795455,
                "end_time": 16.2818182,
                "pitch": 73,
                "velocity": 51,
                "duration": 0.1022727,
                "tempo": 120.0
            },
            {
                "start_time": 16.425,
                "end_time": 16.5227273,
                "pitch": 66,
                "velocity": 51,
                "duration": 0.0977273,
                "tempo": 120.0
            },
            {
                "start_time": 16.5386364,
                "end_time": 16.6340909,
                "pitch": 68,
                "velocity": 51,
                "duration": 0.0954545,
                "tempo": 120.0
            },
            {
                "start_time": 16.7613636,
                "end_time": 16.8636364,
                "pitch": 64,
                "velocity": 51,
                "duration": 0.1022727,
                "tempo": 120.0
            },
            {
                "start_time": 16.8977273,
                "end_time": 17.0022727,
                "pitch": 63,
                "velocity": 51,
                "duration": 0.1045455,
                "tempo": 120.0
            },
            {
                "start_time": 17.0181818,
                "end_time": 17.1204545,
                "pitch": 59,
                "velocity": 51,
                "duration": 0.1022727,
                "tempo": 120.0
            },
            {
                "start_time": 17.1386364,
                "end_time": 17.2409091,
                "pitch": 61,
                "velocity": 51,
                "duration": 0.1022727,
                "tempo": 120.0
            },
            {
                "start_time": 17.375,
                "end_time": 17.475,
                "pitch": 68,
                "velocity": 51,
                "duration": 0.1,
                "tempo": 120.0
            },
            {
                "start_time": 17.5090909,
                "end_time": 17.6090909,
                "pitch": 73,
                "velocity": 51,
                "duration": 0.1,
                "tempo": 120.0
            },
            {
                "start_time": 17.7454545,
                "end_time": 17.8477273,
                "pitch": 75,
                "velocity": 51,
                "duration": 0.1022727,
                "tempo": 120.0
            },
            {
                "start_time": 17.9840909,
                "end_time": 18.0863636,
                "pitch": 71,
                "velocity": 51,
                "duration": 0.1022727,
                "tempo": 120.0
            },
            {
                "start_time": 18.1204545,
                "end_time": 18.2227273,
                "pitch": 73,
                "velocity": 51,
                "duration": 0.1022727,
                "tempo": 120.0
            },
            {
                "start_time": 18.3568182,
                "end_time": 18.4590909,
                "pitch": 66,
                "velocity": 51,
                "duration": 0.1022727,
                "tempo": 120.0
            },
            {
                "start_time": 18.475,
                "end_time": 18.575,
                "pitch": 68,
                "velocity": 51,
                "duration": 0.1,
                "tempo": 120.0
            },
            {
                "start_time": 18.7272727,
                "end_time": 18.8272727,
                "pitch": 64,
                "velocity": 51,
                "duration": 0.1,
                "tempo": 120.0
            },
            {
                "start_time": 18.8454545,
                "end_time": 18.9454545,
                "pitch": 63,
                "velocity": 51,
                "duration": 0.1,
                "tempo": 120.0
            },
            {
                "start_time": 18.9613636,
                "end_time": 19.0636364,
                "pitch": 59,
                "velocity": 51,
                "duration": 0.1022727,
                "tempo": 120.0
            },
            {
                "start_time": 19.0795455,
                "end_time": 19.1795455,
                "pitch": 61,
                "velocity": 51,
                "duration": 0.1,
                "tempo": 120.0
            },
            {
                "start_time": 19.3295455,
                "end_time": 19.4272727,
                "pitch": 66,
                "velocity": 51,
                "duration": 0.0977273,
                "tempo": 120.0
            },
            {
                "start_time": 19.4431818,
                "end_time": 19.5409091,
                "pitch": 69,
                "velocity": 51,
                "duration": 0.0977273,
                "tempo": 120.0
            },
            {
                "start_time": 19.5590909,
                "end_time": 19.6568182,
                "pitch": 73,
                "velocity": 51,
                "duration": 0.0977273,
                "tempo": 120.0
            },
            {
                "start_time": 19.6727273,
                "end_time": 19.7727273,
                "pitch": 71,
                "velocity": 51,
                "duration": 0.1,
                "tempo": 120.0
            },
            {
                "start_time": 19.7886364,
                "end_time": 19.8886364,
                "pitch": 68,
                "velocity": 51,
                "duration": 0.1,
                "tempo": 120.0
            },
            {
                "start_time": 19.9227273,
                "end_time": 20.0227273,
                "pitch": 69,
                "velocity": 51,
                "duration": 0.1,
                "tempo": 120.0
            },
            {
                "start_time": 20.0386364,
                "end_time": 20.1386364,
                "pitch": 66,
                "velocity": 51,
                "duration": 0.1,
                "tempo": 120.0
            },
            {
                "start_time": 20.1568182,
                "end_time": 20.375,
                "pitch": 68,
                "velocity": 51,
                "duration": 0.2181818,
                "tempo": 120.0
            },
            {
                "start_time": 20.3909091,
                "end_time": 20.6272727,
                "pitch": 64,
                "velocity": 51,
                "duration": 0.2363636,
                "tempo": 120.0
            },
            {
                "start_time": 20.7613636,
                "end_time": 20.8613636,
                "pitch": 66,
                "velocity": 51,
                "duration": 0.1,
                "tempo": 120.0
            },
            {
                "start_time": 20.8795455,
                "end_time": 20.9795455,
                "pitch": 69,
                "velocity": 51,
                "duration": 0.1,
                "tempo": 120.0
            },
            {
                "start_time": 20.9954545,
                "end_time": 21.0977273,
                "pitch": 73,
                "velocity": 51,
                "duration": 0.1022727,
                "tempo": 120.0
            },
            {
                "start_time": 21.1295455,
                "end_time": 21.2318182,
                "pitch": 71,
                "velocity": 51,
                "duration": 0.1022727,
                "tempo": 120.0
            },
            {
                "start_time": 21.2477273,
                "end_time": 21.35,
                "pitch": 68,
                "velocity": 51,
                "duration": 0.1022727,
                "tempo": 120.0
            },
            {
                "start_time": 21.3659091,
                "end_time": 21.4659091,
                "pitch": 69,
                "velocity": 51,
                "duration": 0.1,
                "tempo": 120.0
            },
            {
                "start_time": 21.4840909,
                "end_time": 21.5840909,
                "pitch": 66,
                "velocity": 51,
                "duration": 0.1,
                "tempo": 120.0
            },
            {
                "start_time": 21.6,
                "end_time": 21.8363636,
                "pitch": 68,
                "velocity": 51,
                "duration": 0.2363636,
                "tempo": 120.0
            },
            {
                "start_time": 21.8522727,
                "end_time": 22.0704545,
                "pitch": 64,
                "velocity": 51,
                "duration": 0.2181818,
                "tempo": 120.0
            },
            {
                "start_time": 22.2068182,
                "end_time": 22.3068182,
                "pitch": 66,
                "velocity": 51,
                "duration": 0.1,
                "tempo": 120.0
            },
            {
                "start_time": 22.3409091,
                "end_time": 22.4409091,
                "pitch": 69,
                "velocity": 51,
                "duration": 0.1,
                "tempo": 120.0
            },
            {
                "start_time": 22.4568182,
                "end_time": 22.5590909,
                "pitch": 73,
                "velocity": 51,
                "duration": 0.1022727,
                "tempo": 120.0
            },
            {
                "start_time": 22.575,
                "end_time": 22.6772727,
                "pitch": 71,
                "velocity": 51,
                "duration": 0.1022727,
                "tempo": 120.0
            },
            {
                "start_time": 22.6931818,
                "end_time": 22.7931818,
                "pitch": 68,
                "velocity": 51,
                "duration": 0.1,
                "tempo": 120.0
            },
            {
                "start_time": 22.8113636,
                "end_time": 22.9113636,
                "pitch": 69,
                "velocity": 51,
                "duration": 0.1,
                "tempo": 120.0
            },
            {
                "start_time": 22.9454545,
                "end_time": 23.0454545,
                "pitch": 66,
                "velocity": 51,
                "duration": 0.1,
                "tempo": 120.0
            },
            {
                "start_time": 23.0636364,
                "end_time": 23.2818182,
                "pitch": 68,
                "velocity": 51,
                "duration": 0.2181818,
                "tempo": 120.0
            },
            {
                "start_time": 23.2977273,
                "end_time": 23.5159091,
                "pitch": 64,
                "velocity": 51,
                "duration": 0.2181818,
                "tempo": 120.0
            },
            {
                "start_time": 23.6659091,
                "end_time": 23.7659091,
                "pitch": 66,
                "velocity": 51,
                "duration": 0.1,
                "tempo": 120.0
            },
            {
                "start_time": 23.7840909,
                "end_time": 23.8840909,
                "pitch": 69,
                "velocity": 51,
                "duration": 0.1,
                "tempo": 120.0
            },
            {
                "start_time": 23.9,
                "end_time": 24.0,
                "pitch": 73,
                "velocity": 51,
                "duration": 0.1,
                "tempo": 120.0
            },
            {
                "start_time": 24.0159091,
                "end_time": 24.1136364,
                "pitch": 71,
                "velocity": 51,
                "duration": 0.0977273,
                "tempo": 120.0
            },
            {
                "start_time": 24.1477273,
                "end_time": 24.2454545,
                "pitch": 68,
                "velocity": 51,
                "duration": 0.0977273,
                "tempo": 120.0
            },
            {
                "start_time": 24.2613636,
                "end_time": 24.3613636,
                "pitch": 69,
                "velocity": 51,
                "duration": 0.1,
                "tempo": 120.0
            },
            {
                "start_time": 24.3772727,
                "end_time": 24.475,
                "pitch": 66,
                "velocity": 51,
                "duration": 0.0977273,
                "tempo": 120.0
            },
            {
                "start_time": 24.4909091,
                "end_time": 24.7136364,
                "pitch": 69,
                "velocity": 51,
                "duration": 0.2227273,
                "tempo": 120.0
            },
            {
                "start_time": 24.7477273,
                "end_time": 24.9704545,
                "pitch": 71,
                "velocity": 51,
                "duration": 0.2227273,
                "tempo": 120.0
            },
            {
                "start_time": 25.1045455,
                "end_time": 25.2045455,
                "pitch": 71,
                "velocity": 51,
                "duration": 0.1,
                "tempo": 120.0
            },
            {
                "start_time": 25.2227273,
                "end_time": 25.3227273,
                "pitch": 74,
                "velocity": 51,
                "duration": 0.1,
                "tempo": 120.0
            },
            {
                "start_time": 25.3568182,
                "end_time": 25.4568182,
                "pitch": 78,
                "velocity": 51,
                "duration": 0.1,
                "tempo": 120.0
            },
            {
                "start_time": 25.475,
                "end_time": 25.575,
                "pitch": 76,
                "velocity": 51,
                "duration": 0.1,
                "tempo": 120.0
            },
            {
                "start_time": 25.5909091,
                "end_time": 25.6931818,
                "pitch": 73,
                "velocity": 51,
                "duration": 0.1022727,
                "tempo": 120.0
            },
            {
                "start_time": 25.7090909,
                "end_time": 25.8090909,
                "pitch": 74,
                "velocity": 51,
                "duration": 0.1,
                "tempo": 120.0
            },
            {
                "start_time": 25.8272727,
                "end_time": 25.9272727,
                "pitch": 71,
                "velocity": 51,
                "duration": 0.1,
                "tempo": 120.0
            },
            {
                "start_time": 25.9613636,
                "end_time": 26.1840909,
                "pitch": 73,
                "velocity": 51,
                "duration": 0.2227273,
                "tempo": 120.0
            },
            {
                "start_time": 26.2,
                "end_time": 26.4227273,
                "pitch": 69,
                "velocity": 51,
                "duration": 0.2227273,
                "tempo": 120.0
            },
            {
                "start_time": 26.5704545,
                "end_time": 26.6681818,
                "pitch": 71,
                "velocity": 51,
                "duration": 0.0977273,
                "tempo": 120.0
            },
            {
                "start_time": 26.6863636,
                "end_time": 26.7840909,
                "pitch": 74,
                "velocity": 51,
                "duration": 0.0977273,
                "tempo": 120.0
            },
            {
                "start_time": 26.8,
                "end_time": 26.9,
                "pitch": 78,
                "velocity": 51,
                "duration": 0.1,
                "tempo": 120.0
            },
            {
                "start_time": 26.9159091,
                "end_time": 27.0136364,
                "pitch": 76,
                "velocity": 51,
                "duration": 0.0977273,
                "tempo": 120.0
            },
            {
                "start_time": 27.0295455,
                "end_time": 27.1295455,
                "pitch": 73,
                "velocity": 51,
                "duration": 0.1,
                "tempo": 120.0
            },
            {
                "start_time": 27.1613636,
                "end_time": 27.2590909,
                "pitch": 74,
                "velocity": 51,
                "duration": 0.0977273,
                "tempo": 120.0
            },
            {
                "start_time": 27.275,
                "end_time": 27.375,
                "pitch": 71,
                "velocity": 51,
                "duration": 0.1,
                "tempo": 120.0
            },
            {
                "start_time": 27.3909091,
                "end_time": 27.6136364,
                "pitch": 73,
                "velocity": 51,
                "duration": 0.2227273,
                "tempo": 120.0
            },
            {
                "start_time": 27.6295455,
                "end_time": 27.8681818,
                "pitch": 69,
                "velocity": 51,
                "duration": 0.2386364,
                "tempo": 120.0
            },
            {
                "start_time": 28.0045455,
                "end_time": 28.1045455,
                "pitch": 71,
                "velocity": 51,
                "duration": 0.1,
                "tempo": 120.0
            },
            {
                "start_time": 28.1204545,
                "end_time": 28.2227273,
                "pitch": 74,
                "velocity": 51,
                "duration": 0.1022727,
                "tempo": 120.0
            },
            {
                "start_time": 28.2386364,
                "end_time": 28.3386364,
                "pitch": 78,
                "velocity": 51,
                "duration": 0.1,
                "tempo": 120.0
            },
            {
                "start_time": 28.3727273,
                "end_time": 28.475,
                "pitch": 76,
                "velocity": 51,
                "duration": 0.1022727,
                "tempo": 120.0
            },
            {
                "start_time": 28.4909091,
                "end_time": 28.5909091,
                "pitch": 73,
                "velocity": 51,
                "duration": 0.1,
                "tempo": 120.0
            },
            {
                "start_time": 28.6090909,
                "end_time": 28.7090909,
                "pitch": 74,
                "velocity": 51,
                "duration": 0.1,
                "tempo": 120.0
            },
            {
                "start_time": 28.725,
                "end_time": 28.8272727,
                "pitch": 71,
                "velocity": 51,
                "duration": 0.1022727,
                "tempo": 120.0
            },
            {
                "start_time": 28.8431818,
                "end_time": 29.0795455,
                "pitch": 73,
                "velocity": 51,
                "duration": 0.2363636,
                "tempo": 120.0
            },
            {
                "start_time": 29.0954545,
                "end_time": 29.3136364,
                "pitch": 69,
                "velocity": 51,
                "duration": 0.2181818,
                "tempo": 120.0
            },
            {
                "start_time": 29.4477273,
                "end_time": 29.55,
                "pitch": 59,
                "velocity": 51,
                "duration": 0.1022727,
                "tempo": 120.0
            },
            {
                "start_time": 29.5818182,
                "end_time": 29.6840909,
                "pitch": 62,
                "velocity": 51,
                "duration": 0.1022727,
                "tempo": 120.0
            },
            {
                "start_time": 29.7,
                "end_time": 29.8022727,
                "pitch": 64,
                "velocity": 51,
                "duration": 0.1022727,
                "tempo": 120.0
            },
            {
                "start_time": 29.8181818,
                "end_time": 29.9204545,
                "pitch": 66,
                "velocity": 51,
                "duration": 0.1022727,
                "tempo": 120.0
            },
            {
                "start_time": 29.9363636,
                "end_time": 30.0409091,
                "pitch": 69,
                "velocity": 51,
                "duration": 0.1045455,
                "tempo": 120.0
            },
            {
                "start_time": 30.0568182,
                "end_time": 32.2136364,
                "pitch": 71,
                "velocity": 51,
                "duration": 2.1568182,
                "tempo": 120.0
            },
            {
                "start_time": 32.2295455,
                "end_time": 32.3295455,
                "pitch": 71,
                "velocity": 51,
                "duration": 0.1,
                "tempo": 120.0
            },
            {
                "start_time": 32.3477273,
                "end_time": 32.4477273,
                "pitch": 73,
                "velocity": 51,
                "duration": 0.1,
                "tempo": 120.0
            },
            {
                "start_time": 32.4659091,
                "end_time": 32.5659091,
                "pitch": 74,
                "velocity": 51,
                "duration": 0.1,
                "tempo": 120.0
            },
            {
                "start_time": 32.6,
                "end_time": 32.7,
                "pitch": 76,
                "velocity": 51,
                "duration": 0.1,
                "tempo": 120.0
            },
            {
                "start_time": 32.7159091,
                "end_time": 32.8204545,
                "pitch": 66,
                "velocity": 51,
                "duration": 0.1045455,
                "tempo": 120.0
            },
            {
                "start_time": 33.075,
                "end_time": 33.1772727,
                "pitch": 69,
                "velocity": 51,
                "duration": 0.1022727,
                "tempo": 120.0
            },
            {
                "start_time": 33.4340909,
                "end_time": 34.1363636,
                "pitch": 68,
                "velocity": 51,
                "duration": 0.7022727,
                "tempo": 120.0
            },
            {
                "start_time": 34.1545455,
                "end_time": 34.3704545,
                "pitch": 68,
                "velocity": 51,
                "duration": 0.2159091,
                "tempo": 120.0
            },
            {
                "start_time": 34.4045455,
                "end_time": 34.6204545,
                "pitch": 66,
                "velocity": 51,
                "duration": 0.2159091,
                "tempo": 120.0
            },
            {
                "start_time": 34.6386364,
                "end_time": 34.8568182,
                "pitch": 64,
                "velocity": 51,
                "duration": 0.2181818,
                "tempo": 120.0
            },
            {
                "start_time": 34.8727273,
                "end_time": 34.9727273,
                "pitch": 66,
                "velocity": 51,
                "duration": 0.1,
                "tempo": 120.0
            },
            {
                "start_time": 35.2409091,
                "end_time": 35.3409091,
                "pitch": 69,
                "velocity": 51,
                "duration": 0.1,
                "tempo": 120.0
            },
            {
                "start_time": 35.6090909,
                "end_time": 36.3159091,
                "pitch": 68,
                "velocity": 51,
                "duration": 0.7068182,
                "tempo": 120.0
            },
            {
                "start_time": 36.3318182,
                "end_time": 36.5454545,
                "pitch": 68,
                "velocity": 51,
                "duration": 0.2136364,
                "tempo": 120.0
            },
            {
                "start_time": 36.5613636,
                "end_time": 36.7795455,
                "pitch": 66,
                "velocity": 51,
                "duration": 0.2181818,
                "tempo": 120.0
            },
            {
                "start_time": 36.8136364,
                "end_time": 37.0318182,
                "pitch": 64,
                "velocity": 51,
                "duration": 0.2181818,
                "tempo": 120.0
            },
            {
                "start_time": 37.05,
                "end_time": 37.15,
                "pitch": 74,
                "velocity": 51,
                "duration": 0.1,
                "tempo": 120.0
            },
            {
                "start_time": 37.4159091,
                "end_time": 37.5159091,
                "pitch": 78,
                "velocity": 51,
                "duration": 0.1,
                "tempo": 120.0
            },
            {
                "start_time": 37.7659091,
                "end_time": 38.4772727,
                "pitch": 76,
                "velocity": 51,
                "duration": 0.7113636,
                "tempo": 120.0
            },
            {
                "start_time": 38.4931818,
                "end_time": 38.7181818,
                "pitch": 76,
                "velocity": 51,
                "duration": 0.225,
                "tempo": 120.0
            },
            {
                "start_time": 38.7340909,
                "end_time": 38.9431818,
                "pitch": 74,
                "velocity": 51,
                "duration": 0.2090909,
                "tempo": 120.0
            },
            {
                "start_time": 38.9590909,
                "end_time": 39.1795455,
                "pitch": 76,
                "velocity": 51,
                "duration": 0.2204545,
                "tempo": 120.0
            },
            {
                "start_time": 39.2136364,
                "end_time": 39.3159091,
                "pitch": 74,
                "velocity": 51,
                "duration": 0.1022727,
                "tempo": 120.0
            },
            {
                "start_time": 39.5704545,
                "end_time": 39.6704545,
                "pitch": 78,
                "velocity": 51,
                "duration": 0.1,
                "tempo": 120.0
            },
            {
                "start_time": 39.9363636,
                "end_time": 40.6477273,
                "pitch": 76,
                "velocity": 51,
                "duration": 0.7113636,
                "tempo": 120.0
            },
            {
                "start_time": 40.6659091,
                "end_time": 40.8818182,
                "pitch": 76,
                "velocity": 51,
                "duration": 0.2159091,
                "tempo": 120.0
            },
            {
                "start_time": 40.8977273,
                "end_time": 41.1227273,
                "pitch": 74,
                "velocity": 51,
                "duration": 0.225,
                "tempo": 120.0
            },
            {
                "start_time": 41.1386364,
                "end_time": 41.3477273,
                "pitch": 76,
                "velocity": 51,
                "duration": 0.2090909,
                "tempo": 120.0
            },
            {
                "start_time": 41.3636364,
                "end_time": 41.4659091,
                "pitch": 66,
                "velocity": 51,
                "duration": 0.1022727,
                "tempo": 120.0
            },
            {
                "start_time": 41.7386364,
                "end_time": 41.8409091,
                "pitch": 69,
                "velocity": 51,
                "duration": 0.1022727,
                "tempo": 120.0
            },
            {
                "start_time": 42.0863636,
                "end_time": 42.8022727,
                "pitch": 68,
                "velocity": 51,
                "duration": 0.7159091,
                "tempo": 120.0
            },
            {
                "start_time": 42.8363636,
                "end_time": 43.0545455,
                "pitch": 68,
                "velocity": 51,
                "duration": 0.2181818,
                "tempo": 120.0
            },
            {
                "start_time": 43.0704545,
                "end_time": 43.2909091,
                "pitch": 66,
                "velocity": 51,
                "duration": 0.2204545,
                "tempo": 120.0
            },
            {
                "start_time": 43.3068182,
                "end_time": 43.5363636,
                "pitch": 64,
                "velocity": 51,
                "duration": 0.2295455,
                "tempo": 120.0
            },
            {
                "start_time": 43.5522727,
                "end_time": 43.6522727,
                "pitch": 66,
                "velocity": 51,
                "duration": 0.1,
                "tempo": 120.0
            },
            {
                "start_time": 43.9,
                "end_time": 44.0,
                "pitch": 69,
                "velocity": 51,
                "duration": 0.1,
                "tempo": 120.0
            },
            {
                "start_time": 44.2659091,
                "end_time": 44.975,
                "pitch": 68,
                "velocity": 51,
                "duration": 0.7090909,
                "tempo": 120.0
            },
            {
                "start_time": 44.9909091,
                "end_time": 45.2136364,
                "pitch": 68,
                "velocity": 51,
                "duration": 0.2227273,
                "tempo": 120.0
            },
            {
                "start_time": 45.2477273,
                "end_time": 45.4659091,
                "pitch": 66,
                "velocity": 51,
                "duration": 0.2181818,
                "tempo": 120.0
            },
            {
                "start_time": 45.4840909,
                "end_time": 45.7022727,
                "pitch": 64,
                "velocity": 51,
                "duration": 0.2181818,
                "tempo": 120.0
            },
            {
                "start_time": 45.7181818,
                "end_time": 45.8159091,
                "pitch": 74,
                "velocity": 51,
                "duration": 0.0977273,
                "tempo": 120.0
            },
            {
                "start_time": 46.0795455,
                "end_time": 46.1772727,
                "pitch": 78,
                "velocity": 51,
                "duration": 0.0977273,
                "tempo": 120.0
            },
            {
                "start_time": 46.4409091,
                "end_time": 47.1545455,
                "pitch": 76,
                "velocity": 51,
                "duration": 0.7136364,
                "tempo": 120.0
            },
            {
                "start_time": 47.1727273,
                "end_time": 47.3909091,
                "pitch": 76,
                "velocity": 51,
                "duration": 0.2181818,
                "tempo": 120.0
            },
            {
                "start_time": 47.4090909,
                "end_time": 47.6272727,
                "pitch": 74,
                "velocity": 51,
                "duration": 0.2181818,
                "tempo": 120.0
            },
            {
                "start_time": 47.6613636,
                "end_time": 47.8772727,
                "pitch": 76,
                "velocity": 51,
                "duration": 0.2159091,
                "tempo": 120.0
            },
            {
                "start_time": 47.8931818,
                "end_time": 47.9931818,
                "pitch": 74,
                "velocity": 51,
                "duration": 0.1,
                "tempo": 120.0
            },
            {
                "start_time": 48.2590909,
                "end_time": 48.3568182,
                "pitch": 78,
                "velocity": 51,
                "duration": 0.0977273,
                "tempo": 120.0
            },
            {
                "start_time": 48.6022727,
                "end_time": 49.3113636,
                "pitch": 76,
                "velocity": 51,
                "duration": 0.7090909,
                "tempo": 120.0
            },
            {
                "start_time": 49.3295455,
                "end_time": 49.5681818,
                "pitch": 76,
                "velocity": 51,
                "duration": 0.2386364,
                "tempo": 120.0
            },
            {
                "start_time": 49.5840909,
                "end_time": 49.8022727,
                "pitch": 74,
                "velocity": 51,
                "duration": 0.2181818,
                "tempo": 120.0
            },
            {
                "start_time": 49.8204545,
                "end_time": 50.0386364,
                "pitch": 76,
                "velocity": 51,
                "duration": 0.2181818,
                "tempo": 120.0
            },
            {
                "start_time": 50.0727273,
                "end_time": 50.1045455,
                "pitch": 63,
                "velocity": 51,
                "duration": 0.0318182,
                "tempo": 120.0
            },
            {
                "start_time": 50.1045455,
                "end_time": 50.1386364,
                "pitch": 60,
                "velocity": 51,
                "duration": 0.0340909,
                "tempo": 120.0
            },
            {
                "start_time": 50.1386364,
                "end_time": 50.1545455,
                "pitch": 57,
                "velocity": 51,
                "duration": 0.0159091,
                "tempo": 120.0
            },
            {
                "start_time": 50.1545455,
                "end_time": 50.1886364,
                "pitch": 55,
                "velocity": 51,
                "duration": 0.0340909,
                "tempo": 120.0
            },
            {
                "start_time": 50.1886364,
                "end_time": 50.2227273,
                "pitch": 63,
                "velocity": 51,
                "duration": 0.0340909,
                "tempo": 120.0
            },
            {
                "start_time": 50.2227273,
                "end_time": 50.2545455,
                "pitch": 60,
                "velocity": 51,
                "duration": 0.0318182,
                "tempo": 120.0
            },
            {
                "start_time": 50.2545455,
                "end_time": 50.2727273,
                "pitch": 57,
                "velocity": 51,
                "duration": 0.0181818,
                "tempo": 120.0
            },
            {
                "start_time": 50.2727273,
                "end_time": 50.3045455,
                "pitch": 55,
                "velocity": 51,
                "duration": 0.0318182,
                "tempo": 120.0
            },
            {
                "start_time": 50.3045455,
                "end_time": 50.3386364,
                "pitch": 63,
                "velocity": 51,
                "duration": 0.0340909,
                "tempo": 120.0
            },
            {
                "start_time": 50.3386364,
                "end_time": 50.3727273,
                "pitch": 60,
                "velocity": 51,
                "duration": 0.0340909,
                "tempo": 120.0
            },
            {
                "start_time": 50.3727273,
                "end_time": 50.3886364,
                "pitch": 57,
                "velocity": 51,
                "duration": 0.0159091,
                "tempo": 120.0
            },
            {
                "start_time": 50.3886364,
                "end_time": 50.4227273,
                "pitch": 55,
                "velocity": 51,
                "duration": 0.0340909,
                "tempo": 120.0
            },
            {
                "start_time": 50.4227273,
                "end_time": 50.4545455,
                "pitch": 61,
                "velocity": 51,
                "duration": 0.0318182,
                "tempo": 120.0
            },
            {
                "start_time": 50.4545455,
                "end_time": 50.4886364,
                "pitch": 58,
                "velocity": 51,
                "duration": 0.0340909,
                "tempo": 120.0
            },
            {
                "start_time": 50.4886364,
                "end_time": 50.5227273,
                "pitch": 54,
                "velocity": 51,
                "duration": 0.0340909,
                "tempo": 120.0
            },
            {
                "start_time": 50.5227273,
                "end_time": 50.5386364,
                "pitch": 52,
                "velocity": 51,
                "duration": 0.0159091,
                "tempo": 120.0
            },
            {
                "start_time": 50.5386364,
                "end_time": 50.5704545,
                "pitch": 61,
                "velocity": 51,
                "duration": 0.0318182,
                "tempo": 120.0
            },
            {
                "start_time": 50.5704545,
                "end_time": 50.6045455,
                "pitch": 58,
                "velocity": 51,
                "duration": 0.0340909,
                "tempo": 120.0
            },
            {
                "start_time": 50.6045455,
                "end_time": 50.6363636,
                "pitch": 54,
                "velocity": 51,
                "duration": 0.0318182,
                "tempo": 120.0
            },
            {
                "start_time": 50.6363636,
                "end_time": 50.6704545,
                "pitch": 52,
                "velocity": 51,
                "duration": 0.0340909,
                "tempo": 120.0
            },
            {
                "start_time": 50.6704545,
                "end_time": 50.7022727,
                "pitch": 61,
                "velocity": 51,
                "duration": 0.0318182,
                "tempo": 120.0
            },
            {
                "start_time": 50.7022727,
                "end_time": 50.7363636,
                "pitch": 58,
                "velocity": 51,
                "duration": 0.0340909,
                "tempo": 120.0
            },
            {
                "start_time": 50.7363636,
                "end_time": 50.7681818,
                "pitch": 54,
                "velocity": 51,
                "duration": 0.0318182,
                "tempo": 120.0
            },
            {
                "start_time": 50.7681818,
                "end_time": 50.7840909,
                "pitch": 52,
                "velocity": 51,
                "duration": 0.0159091,
                "tempo": 120.0
            },
            {
                "start_time": 50.7840909,
                "end_time": 50.8181818,
                "pitch": 59,
                "velocity": 51,
                "duration": 0.0340909,
                "tempo": 120.0
            },
            {
                "start_time": 50.8181818,
                "end_time": 50.8340909,
                "pitch": 55,
                "velocity": 51,
                "duration": 0.0159091,
                "tempo": 120.0
            },
            {
                "start_time": 50.8340909,
                "end_time": 50.8659091,
                "pitch": 54,
                "velocity": 51,
                "duration": 0.0318182,
                "tempo": 120.0
            },
            {
                "start_time": 50.8659091,
                "end_time": 50.9,
                "pitch": 51,
                "velocity": 51,
                "duration": 0.0340909,
                "tempo": 120.0
            },
            {
                "start_time": 50.9,
                "end_time": 50.9318182,
                "pitch": 59,
                "velocity": 51,
                "duration": 0.0318182,
                "tempo": 120.0
            },
            {
                "start_time": 50.9318182,
                "end_time": 50.9477273,
                "pitch": 55,
                "velocity": 51,
                "duration": 0.0159091,
                "tempo": 120.0
            },
            {
                "start_time": 50.9477273,
                "end_time": 50.9818182,
                "pitch": 54,
                "velocity": 51,
                "duration": 0.0340909,
                "tempo": 120.0
            },
            {
                "start_time": 50.9818182,
                "end_time": 51.0136364,
                "pitch": 51,
                "velocity": 51,
                "duration": 0.0318182,
                "tempo": 120.0
            },
            {
                "start_time": 51.0136364,
                "end_time": 51.0477273,
                "pitch": 59,
                "velocity": 51,
                "duration": 0.0340909,
                "tempo": 120.0
            },
            {
                "start_time": 51.0477273,
                "end_time": 51.0659091,
                "pitch": 55,
                "velocity": 51,
                "duration": 0.0181818,
                "tempo": 120.0
            },
            {
                "start_time": 51.0659091,
                "end_time": 51.0977273,
                "pitch": 54,
                "velocity": 51,
                "duration": 0.0318182,
                "tempo": 120.0
            },
            {
                "start_time": 51.0977273,
                "end_time": 51.1318182,
                "pitch": 51,
                "velocity": 51,
                "duration": 0.0340909,
                "tempo": 120.0
            },
            {
                "start_time": 51.1318182,
                "end_time": 51.1659091,
                "pitch": 63,
                "velocity": 51,
                "duration": 0.0340909,
                "tempo": 120.0
            },
            {
                "start_time": 51.1659091,
                "end_time": 51.2,
                "pitch": 60,
                "velocity": 51,
                "duration": 0.0340909,
                "tempo": 120.0
            },
            {
                "start_time": 51.2,
                "end_time": 51.2159091,
                "pitch": 57,
                "velocity": 51,
                "duration": 0.0159091,
                "tempo": 120.0
            },
            {
                "start_time": 51.2159091,
                "end_time": 51.25,
                "pitch": 55,
                "velocity": 51,
                "duration": 0.0340909,
                "tempo": 120.0
            },
            {
                "start_time": 51.25,
                "end_time": 51.2659091,
                "pitch": 52,
                "velocity": 51,
                "duration": 0.0159091,
                "tempo": 120.0
            },
            {
                "start_time": 51.2659091,
                "end_time": 51.3,
                "pitch": 61,
                "velocity": 51,
                "duration": 0.0340909,
                "tempo": 120.0
            },
            {
                "start_time": 51.3,
                "end_time": 51.3340909,
                "pitch": 58,
                "velocity": 51,
                "duration": 0.0340909,
                "tempo": 120.0
            },
            {
                "start_time": 51.3340909,
                "end_time": 51.3681818,
                "pitch": 54,
                "velocity": 51,
                "duration": 0.0340909,
                "tempo": 120.0
            },
            {
                "start_time": 51.3681818,
                "end_time": 51.3840909,
                "pitch": 52,
                "velocity": 51,
                "duration": 0.0159091,
                "tempo": 120.0
            },
            {
                "start_time": 51.3840909,
                "end_time": 51.4181818,
                "pitch": 59,
                "velocity": 51,
                "duration": 0.0340909,
                "tempo": 120.0
            },
            {
                "start_time": 51.4181818,
                "end_time": 51.4340909,
                "pitch": 55,
                "velocity": 51,
                "duration": 0.0159091,
                "tempo": 120.0
            },
            {
                "start_time": 51.4340909,
                "end_time": 51.4681818,
                "pitch": 54,
                "velocity": 51,
                "duration": 0.0340909,
                "tempo": 120.0
            },
            {
                "start_time": 51.4681818,
                "end_time": 52.9340909,
                "pitch": 51,
                "velocity": 51,
                "duration": 1.4659091,
                "tempo": 120.0
            },
            {
                "start_time": 52.95,
                "end_time": 54.375,
                "pitch": 53,
                "velocity": 51,
                "duration": 1.425,
                "tempo": 120.0
            },
            {
                "start_time": 54.3931818,
                "end_time": 55.8159091,
                "pitch": 54,
                "velocity": 51,
                "duration": 1.4227273,
                "tempo": 120.0
            },
            {
                "start_time": 55.8340909,
                "end_time": 56.2340909,
                "pitch": 55,
                "velocity": 51,
                "duration": 0.4,
                "tempo": 120.0
            },
            {
                "start_time": 56.2340909,
                "end_time": 56.3159091,
                "pitch": 55,
                "velocity": 51,
                "duration": 0.0818182,
                "tempo": 120.0
            },
            {
                "start_time": 56.3159091,
                "end_time": 56.5363636,
                "pitch": 55,
                "velocity": 51,
                "duration": 0.2204545,
                "tempo": 120.0
            },
            {
                "start_time": 56.5363636,
                "end_time": 56.5863636,
                "pitch": 55,
                "velocity": 51,
                "duration": 0.05,
                "tempo": 120.0
            },
            {
                "start_time": 56.5863636,
                "end_time": 56.8045455,
                "pitch": 55,
                "velocity": 51,
                "duration": 0.2181818,
                "tempo": 120.0
            },
            {
                "start_time": 56.8045455,
                "end_time": 56.8545455,
                "pitch": 55,
                "velocity": 51,
                "duration": 0.05,
                "tempo": 120.0
            },
            {
                "start_time": 56.8545455,
                "end_time": 57.0704545,
                "pitch": 55,
                "velocity": 51,
                "duration": 0.2159091,
                "tempo": 120.0
            },
            {
                "start_time": 57.0704545,
                "end_time": 57.1204545,
                "pitch": 55,
                "velocity": 51,
                "duration": 0.05,
                "tempo": 120.0
            },
            {
                "start_time": 57.1204545,
                "end_time": 57.2545455,
                "pitch": 55,
                "velocity": 51,
                "duration": 0.1340909,
                "tempo": 120.0
            },
            {
                "start_time": 57.2863636,
                "end_time": 60.1568182,
                "pitch": 56,
                "velocity": 51,
                "duration": 2.8704545,
                "tempo": 120.0
            }
        ],
        "Church Organ": [
            {
                "start_time": 51.5022727,
                "end_time": 51.7181818,
                "pitch": 55,
                "velocity": 127,
                "duration": 0.2159091,
                "tempo": 120.0
            },
            {
                "start_time": 51.7340909,
                "end_time": 51.8340909,
                "pitch": 55,
                "velocity": 127,
                "duration": 0.1,
                "tempo": 120.0
            },
            {
                "start_time": 51.8681818,
                "end_time": 52.2022727,
                "pitch": 55,
                "velocity": 127,
                "duration": 0.3340909,
                "tempo": 120.0
            },
            {
                "start_time": 52.2204545,
                "end_time": 52.4386364,
                "pitch": 57,
                "velocity": 127,
                "duration": 0.2181818,
                "tempo": 120.0
            },
            {
                "start_time": 52.4727273,
                "end_time": 52.6931818,
                "pitch": 59,
                "velocity": 127,
                "duration": 0.2204545,
                "tempo": 120.0
            },
            {
                "start_time": 52.7113636,
                "end_time": 52.9340909,
                "pitch": 57,
                "velocity": 127,
                "duration": 0.2227273,
                "tempo": 120.0
            },
            {
                "start_time": 52.95,
                "end_time": 53.1795455,
                "pitch": 56,
                "velocity": 127,
                "duration": 0.2295455,
                "tempo": 120.0
            },
            {
                "start_time": 53.1954545,
                "end_time": 53.2954545,
                "pitch": 56,
                "velocity": 127,
                "duration": 0.1,
                "tempo": 120.0
            },
            {
                "start_time": 53.3113636,
                "end_time": 53.6431818,
                "pitch": 56,
                "velocity": 127,
                "duration": 0.3318182,
                "tempo": 120.0
            },
            {
                "start_time": 53.675,
                "end_time": 53.8931818,
                "pitch": 57,
                "velocity": 127,
                "duration": 0.2181818,
                "tempo": 120.0
            },
            {
                "start_time": 53.9090909,
                "end_time": 54.125,
                "pitch": 59,
                "velocity": 127,
                "duration": 0.2159091,
                "tempo": 120.0
            },
            {
                "start_time": 54.1431818,
                "end_time": 54.375,
                "pitch": 56,
                "velocity": 127,
                "duration": 0.2318182,
                "tempo": 120.0
            },
            {
                "start_time": 54.3931818,
                "end_time": 54.6113636,
                "pitch": 57,
                "velocity": 127,
                "duration": 0.2181818,
                "tempo": 120.0
            },
            {
                "start_time": 54.6272727,
                "end_time": 54.7295455,
                "pitch": 57,
                "velocity": 127,
                "duration": 0.1022727,
                "tempo": 120.0
            },
            {
                "start_time": 54.7454545,
                "end_time": 55.0954545,
                "pitch": 57,
                "velocity": 127,
                "duration": 0.35,
                "tempo": 120.0
            },
            {
                "start_time": 55.1136364,
                "end_time": 55.3295455,
                "pitch": 59,
                "velocity": 127,
                "duration": 0.2159091,
                "tempo": 120.0
            },
            {
                "start_time": 55.3454545,
                "end_time": 55.5818182,
                "pitch": 61,
                "velocity": 127,
                "duration": 0.2363636,
                "tempo": 120.0
            },
            {
                "start_time": 55.5977273,
                "end_time": 55.8159091,
                "pitch": 59,
                "velocity": 127,
                "duration": 0.2181818,
                "tempo": 120.0
            },
            {
                "start_time": 55.8340909,
                "end_time": 56.05,
                "pitch": 58,
                "velocity": 127,
                "duration": 0.2159091,
                "tempo": 120.0
            },
            {
                "start_time": 56.0840909,
                "end_time": 56.1840909,
                "pitch": 58,
                "velocity": 127,
                "duration": 0.1,
                "tempo": 120.0
            },
            {
                "start_time": 56.2,
                "end_time": 56.5363636,
                "pitch": 58,
                "velocity": 127,
                "duration": 0.3363636,
                "tempo": 120.0
            },
            {
                "start_time": 56.5522727,
                "end_time": 56.7863636,
                "pitch": 59,
                "velocity": 127,
                "duration": 0.2340909,
                "tempo": 120.0
            },
            {
                "start_time": 56.8045455,
                "end_time": 57.0204545,
                "pitch": 61,
                "velocity": 127,
                "duration": 0.2159091,
                "tempo": 120.0
            },
            {
                "start_time": 57.0363636,
                "end_time": 57.2545455,
                "pitch": 58,
                "velocity": 127,
                "duration": 0.2181818,
                "tempo": 120.0
            },
            {
                "start_time": 57.2863636,
                "end_time": 60.1568182,
                "pitch": 59,
                "velocity": 127,
                "duration": 2.8704545,
                "tempo": 120.0
            }
        ]
    }
}