{
    "mood": "angry",
    "instruments": {
        "Trumpet": [
            {
                "start_time": 0.0159091,
                "end_time": 1.5454545,
                "pitch": 55,
                "velocity": 25,
                "duration": 1.5295455,
                "tempo": 120.0
            },
            {
                "start_time": 1.5772727,
                "end_time": 2.3477273,
                "pitch": 56,
                "velocity": 25,
                "duration": 0.7704545,
                "tempo": 120.0
            },
            {
                "start_time": 2.3818182,
                "end_time": 3.15,
                "pitch": 58,
                "velocity": 32,
                "duration": 0.7681818,
                "tempo": 120.0
            },
            {
                "start_time": 3.1840909,
                "end_time": 4.7522727,
                "pitch": 55,
                "velocity": 40,
                "duration": 1.5681818,
                "tempo": 120.0
            },
            {
                "start_time": 4.7863636,
                "end_time": 5.5590909,
                "pitch": 56,
                "velocity": 51,
                "duration": 0.7727273,
                "tempo": 120.0
            },
            {
                "start_time": 5.5909091,
                "end_time": 6.3590909,
                "pitch": 58,
                "velocity": 64,
                "duration": 0.7681818,
                "tempo": 120.0
            },
            {
                "start_time": 6.3931818,
                "end_time": 7.1636364,
                "pitch": 55,
                "velocity": 80,
                "duration": 0.7704545,
                "tempo": 120.0
            },
            {
                "start_time": 7.1977273,
                "end_time": 7.9590909,
                "pitch": 58,
                "velocity": 80,
                "duration": 0.7613636,
                "tempo": 120.0
            },
            {
                "start_time": 7.9909091,
                "end_time": 8.7727273,
                "pitch": 57,
                "velocity": 80,
                "duration": 0.7818182,
                "tempo": 120.0
            },
            {
                "start_time": 8.8045455,
                "end_time": 9.5727273,
                "pitch": 56,
                "velocity": 80,
                "duration": 0.7681818,
                "tempo": 120.0
            },
            {
                "start_time": 9.6090909,
                "end_time": 10.3795455,
                "pitch": 55,
                "velocity": 80,
                "duration": 0.7704545,
                "tempo": 120.0
            },
            {
                "start_time": 10.4136364,
                "end_time": 11.175,
                "pitch": 58,
                "velocity": 80,
                "duration": 0.7613636,
                "tempo": 120.0
            },
            {
                "start_time": 11.2090909,
                "end_time": 11.9886364,
                "pitch": 57,
                "velocity": 80,
                "duration": 0.7795455,
                "tempo": 120.0
            },
            {
                "start_time": 12.0227273,
                "end_time": 12.7909091,
                "pitch": 56,
                "velocity": 80,
                "duration": 0.7681818,
                "tempo": 120.0
            },
            {
                "start_time": 12.825,
                "end_time": 13.5931818,
                "pitch": 55,
                "velocity": 80,
                "duration": 0.7681818,
                "tempo": 120.0
            },
            {
                "start_time": 13.6272727,
                "end_time": 14.4,
                "pitch": 58,
                "velocity": 80,
                "duration": 0.7727273,
                "tempo": 120.0
            },
            {
                "start_time": 14.4318182,
                "end_time": 15.1954545,
                "pitch": 57,
                "velocity": 80,
                "duration": 0.7636364,
                "tempo": 120.0
            },
            {
                "start_time": 15.2272727,
                "end_time": 16.0068182,
                "pitch": 56,
                "velocity": 80,
                "duration": 0.7795455,
                "tempo": 120.0
            },
            {
                "start_time": 16.0409091,
                "end_time": 16.8136364,
                "pitch": 55,
                "velocity": 80,
                "duration": 0.7727273,
                "tempo": 120.0
            },
            {
                "start_time": 16.8454545,
                "end_time": 17.6159091,
                "pitch": 58,
                "velocity": 80,
                "duration": 0.7704545,
                "tempo": 120.0
            },
            {
                "start_time": 17.65,
                "end_time": 18.4159091,
                "pitch": 57,
                "velocity": 80,
                "duration": 0.7659091,
                "tempo": 120.0
            },
            {
                "start_time": 18.45,
                "end_time": 19.2113636,
                "pitch": 56,
                "velocity": 80,
                "duration": 0.7613636,
                "tempo": 120.0
            },
            {
                "start_time": 19.2431818,
                "end_time": 19.3113636,
                "pitch": 48,
                "velocity": 80,
                "duration": 0.0681818,
                "tempo": 120.0
            },
            {
                "start_time": 19.3477273,
                "end_time": 19.4159091,
                "pitch": 55,
                "velocity": 80,
                "duration": 0.0681818,
                "tempo": 120.0
            },
            {
                "start_time": 19.45,
                "end_time": 19.5181818,
                "pitch": 48,
                "velocity": 80,
                "duration": 0.0681818,
                "tempo": 120.0
            },
            {
                "start_time": 19.5522727,
                "end_time": 19.6204545,
                "pitch": 48,
                "velocity": 80,
                "duration": 0.0681818,
                "tempo": 120.0
            },
            {
                "start_time": 19.6545455,
                "end_time": 19.7204545,
                "pitch": 56,
                "velocity": 80,
                "duration": 0.0659091,
                "tempo": 120.0
            },
            {
                "start_time": 19.7522727,
                "end_time": 19.8181818,
                "pitch": 48,
                "velocity": 80,
                "duration": 0.0659091,
                "tempo": 120.0
            },
            {
                "start_time": 19.85,
                "end_time": 19.9159091,
                "pitch": 48,
                "velocity": 80,
                "duration": 0.0659091,
                "tempo": 120.0
            },
            {
                "start_time": 19.9477273,
                "end_time": 20.0136364,
                "pitch": 55,
                "velocity": 80,
                "duration": 0.0659091,
                "tempo": 120.0
            },
            {
                "start_time": 20.0477273,
                "end_time": 20.1136364,
                "pitch": 48,
                "velocity": 80,
                "duration": 0.0659091,
                "tempo": 120.0
            },
            {
                "start_time": 20.1477273,
                "end_time": 20.2136364,
                "pitch": 48,
                "velocity": 80,
                "duration": 0.0659091,
                "tempo": 120.0
            },
            {
                "start_time": 20.2477273,
                "end_time": 20.3159091,
                "pitch": 53,
                "velocity": 80,
                "duration": 0.0681818,
                "tempo": 120.0
            },
            {
                "start_time": 20.35,
                "end_time": 20.4159091,
                "pitch": 48,
                "velocity": 80,
                "duration": 0.0659091,
                "tempo": 120.0
            },
            {
                "start_time": 20.45,
                "end_time": 20.5159091,
                "pitch": 51,
                "velocity": 80,
                "duration": 0.0659091,
                "tempo": 120.0
            },
            {
                "start_time": 20.55,
                "end_time": 20.6159091,
                "pitch": 50,
                "velocity": 80,
                "duration": 0.0659091,
                "tempo": 120.0
            },
            {
                "start_time": 20.65,
                "end_time": 20.7159091,
                "pitch": 51,
                "velocity": 80,
                "duration": 0.0659091,
                "tempo": 120.0
            },
            {
                "start_time": 20.75,
                "end_time": 20.8159091,
                "pitch": 53,
                "velocity": 80,
                "duration": 0.0659091,
                "tempo": 120.0
            },
            {
                "start_time": 20.85,
                "end_time": 20.9159091,
                "pitch": 48,
                "velocity": 80,
                "duration": 0.0659091,
                "tempo": 120.0
            },
            {
                "start_time": 20.95,
                "end_time": 21.0181818,
                "pitch": 55,
                "velocity": 80,
                "duration": 0.0681818,
                "tempo": 120.0
            },
            {
                "start_time": 21.05,
                "end_time": 21.1181818,
                "pitch": 48,
                "velocity": 80,
                "duration": 0.0681818,
                "tempo": 120.0
            },
            {
                "start_time": 21.1522727,
                "end_time": 21.2181818,
                "pitch": 48,
                "velocity": 80,
                "duration": 0.0659091,
                "tempo": 120.0
            },
            {
                "start_time": 21.2522727,
                "end_time": 21.3181818,
                "pitch": 60,
                "velocity": 80,
                "duration": 0.0659091,
                "tempo": 120.0
            },
            {
                "start_time": 21.3522727,
                "end_time": 21.4181818,
                "pitch": 48,
                "velocity": 80,
                "duration": 0.0659091,
                "tempo": 120.0
            },
            {
                "start_time": 21.4522727,
                "end_time": 21.5181818,
                "pitch": 48,
                "velocity": 80,
                "duration": 0.0659091,
                "tempo": 120.0
            },
            {
                "start_time": 21.5522727,
                "end_time": 21.6181818,
                "pitch": 58,
                "velocity": 80,
                "duration": 0.0659091,
                "tempo": 120.0
            },
            {
                "start_time": 21.6522727,
                "end_time": 21.7181818,
                "pitch": 48,
                "velocity": 80,
                "duration": 0.0659091,
                "tempo": 120.0
            },
            {
                "start_time": 21.7522727,
                "end_time": 21.8181818,
                "pitch": 48,
                "velocity": 80,
                "duration": 0.0659091,
                "tempo": 120.0
            },
            {
                "start_time": 21.8522727,
                "end_time": 21.9181818,
                "pitch": 60,
                "velocity": 80,
                "duration": 0.0659091,
                "tempo": 120.0
            },
            {
                "start_time": 21.9522727,
                "end_time": 22.0181818,
                "pitch": 48,
                "velocity": 80,
                "duration": 0.0659091,
                "tempo": 120.0
            },
            {
                "start_time": 22.0522727,
                "end_time": 22.1204545,
                "pitch": 58,
                "velocity": 80,
                "duration": 0.0681818,
                "tempo": 120.0
            },
            {
                "start_time": 22.1522727,
                "end_time": 22.2204545,
                "pitch": 56,
                "velocity": 80,
                "duration": 0.0681818,
                "tempo": 120.0
            },
            {
                "start_time": 22.2545455,
                "end_time": 22.3204545,
                "pitch": 55,
                "velocity": 80,
                "duration": 0.0659091,
                "tempo": 120.0
            },
            {
                "start_time": 22.3545455,
                "end_time": 22.4204545,
                "pitch": 53,
                "velocity": 80,
                "duration": 0.0659091,
                "tempo": 120.0
            },
            {
                "start_time": 22.4545455,
                "end_time": 22.5227273,
                "pitch": 48,
                "velocity": 80,
                "duration": 0.0681818,
                "tempo": 120.0
            },
            {
                "start_time": 22.5545455,
                "end_time": 22.6227273,
                "pitch": 55,
                "velocity": 80,
                "duration": 0.0681818,
                "tempo": 120.0
            },
            {
                "start_time": 22.6545455,
                "end_time": 22.7227273,
                "pitch": 48,
                "velocity": 80,
                "duration": 0.0681818,
                "tempo": 120.0
            },
            {
                "start_time": 22.7545455,
                "end_time": 22.8227273,
                "pitch": 48,
                "velocity": 80,
                "duration": 0.0681818,
                "tempo": 120.0
            },
            {
                "start_time": 22.8545455,
                "end_time": 22.9227273,
                "pitch": 56,
                "velocity": 80,
                "duration": 0.0681818,
                "tempo": 120.0
            },
            {
                "start_time": 22.9568182,
                "end_time": 23.0227273,
                "pitch": 48,
                "velocity": 80,
                "duration": 0.0659091,
                "tempo": 120.0
            },
            {
                "start_time": 23.0568182,
                "end_time": 23.1227273,
                "pitch": 48,
                "velocity": 80,
                "duration": 0.0659091,
                "tempo": 120.0
            },
            {
                "start_time": 23.1568182,
                "end_time": 23.225,
                "pitch": 55,
                "velocity": 80,
                "duration": 0.0681818,
                "tempo": 120.0
            },
            {
                "start_time": 23.2568182,
                "end_time": 23.325,
                "pitch": 48,
                "velocity": 80,
                "duration": 0.0681818,
                "tempo": 120.0
            },
            {
                "start_time": 23.3568182,
                "end_time": 23.425,
                "pitch": 48,
                "velocity": 80,
                "duration": 0.0681818,
                "tempo": 120.0
            },
            {
                "start_time": 23.4568182,
                "end_time": 23.525,
                "pitch": 53,
                "velocity": 80,
                "duration": 0.0681818,
                "tempo": 120.0
            },
            {
                "start_time": 23.5568182,
                "end_time": 23.625,
                "pitch": 48,
                "velocity": 80,
                "duration": 0.0681818,
                "tempo": 120.0
            },
            {
                "start_time": 23.6568182,
                "end_time": 23.725,
                "pitch": 51,
                "velocity": 80,
                "duration": 0.0681818,
                "tempo": 120.0
            },
            {
                "start_time": 23.7568182,
                "end_time": 23.825,
                "pitch": 50,
                "velocity": 80,
                "duration": 0.0681818,
                "tempo": 120.0
            },
            {
                "start_time": 23.8568182,
                "end_time": 23.925,
                "pitch": 51,
                "velocity": 80,
                "duration": 0.0681818,
                "tempo": 120.0
            },
            {
                "start_time": 23.9568182,
                "end_time": 24.025,
                "pitch": 53,
                "velocity": 80,
                "duration": 0.0681818,
                "tempo": 120.0
            },
            {
                "start_time": 24.0568182,
                "end_time": 24.125,
                "pitch": 48,
                "velocity": 80,
                "duration": 0.0681818,
                "tempo": 120.0
            },
            {
                "start_time": 24.1590909,
                "end_time": 24.225,
                "pitch": 55,
                "velocity": 80,
                "duration": 0.0659091,
                "tempo": 120.0
            },
            {
                "start_time": 24.2590909,
                "end_time": 24.3272727,
                "pitch": 48,
                "velocity": 80,
                "duration": 0.0681818,
                "tempo": 120.0
            },
            {
                "start_time": 24.3590909,
                "end_time": 24.4272727,
                "pitch": 48,
                "velocity": 80,
                "duration": 0.0681818,
                "tempo": 120.0
            },
            {
                "start_time": 24.4613636,
                "end_time": 24.5272727,
                "pitch": 60,
                "velocity": 80,
                "duration": 0.0659091,
                "tempo": 120.0
            },
            {
                "start_time": 24.5613636,
                "end_time": 24.6272727,
                "pitch": 48,
                "velocity": 80,
                "duration": 0.0659091,
                "tempo": 120.0
            },
            {
                "start_time": 24.6613636,
                "end_time": 24.7272727,
                "pitch": 48,
                "velocity": 80,
                "duration": 0.0659091,
                "tempo": 120.0
            },
            {
                "start_time": 24.7613636,
                "end_time": 24.8272727,
                "pitch": 58,
                "velocity": 80,
                "duration": 0.0659091,
                "tempo": 120.0
            },
            {
                "start_time": 24.8613636,
                "end_time": 24.9272727,
                "pitch": 48,
                "velocity": 80,
                "duration": 0.0659091,
                "tempo": 120.0
            },
            {
                "start_time": 24.9613636,
                "end_time": 25.0272727,
                "pitch": 48,
                "velocity": 80,
                "duration": 0.0659091,
                "tempo": 120.0
            },
            {
                "start_time": 25.0613636,
                "end_time": 25.1295455,
                "pitch": 60,
                "velocity": 80,
                "duration": 0.0681818,
                "tempo": 120.0
            },
            {
                "start_time": 25.1613636,
                "end_time": 25.2295455,
                "pitch": 48,
                "velocity": 80,
                "duration": 0.0681818,
                "tempo": 120.0
            },
            {
                "start_time": 25.2636364,
                "end_time": 25.3295455,
                "pitch": 58,
                "velocity": 80,
                "duration": 0.0659091,
                "tempo": 120.0
            },
            {
                "start_time": 25.3636364,
                "end_time": 25.4295455,
                "pitch": 56,
                "velocity": 80,
                "duration": 0.0659091,
                "tempo": 120.0
            },
            {
                "start_time": 25.4636364,
                "end_time": 25.5295455,
                "pitch": 55,
                "velocity": 80,
                "duration": 0.0659091,
                "tempo": 120.0
            },
            {
                "start_time": 25.5636364,
                "end_time": 25.6295455,
                "pitch": 53,
                "velocity": 80,
                "duration": 0.0659091,
                "tempo": 120.0
            }
        ],
        "Synth Bass 1": [
            {
                "start_time": 0.0,
                "end_time": 0.05,
                "pitch": 36,
                "velocity": 25,
                "duration": 0.05,
                "tempo": 120.0
            },
            {
                "start_time": 0.0840909,
                "end_time": 0.15,
                "pitch": 43,
                "velocity": 25,
                "duration": 0.0659091,
                "tempo": 120.0
            },
            {
                "start_time": 0.1840909,
                "end_time": 0.25,
                "pitch": 36,
                "velocity": 25,
                "duration": 0.0659091,
                "tempo": 120.0
            },
            {
                "start_time": 0.2840909,
                "end_time": 0.35,
                "pitch": 36,
                "velocity": 25,
                "duration": 0.0659091,
                "tempo": 120.0
            },
            {
                "start_time": 0.3840909,
                "end_time": 0.4477273,
                "pitch": 36,
                "velocity": 25,
                "duration": 0.0636364,
                "tempo": 120.0
            },
            {
                "start_time": 0.4818182,
                "end_time": 0.5477273,
                "pitch": 44,
                "velocity": 25,
                "duration": 0.0659091,
                "tempo": 120.0
            },
            {
                "start_time": 0.5795455,
                "end_time": 0.6454545,
                "pitch": 36,
                "velocity": 25,
                "duration": 0.0659091,
                "tempo": 120.0
            },
            {
                "start_time": 0.6772727,
                "end_time": 0.7431818,
                "pitch": 43,
                "velocity": 25,
                "duration": 0.0659091,
                "tempo": 120.0
            },
            {
                "start_time": 0.775,
                "end_time": 0.8431818,
                "pitch": 36,
                "velocity": 25,
                "duration": 0.0681818,
                "tempo": 120.0
            },
            {
                "start_time": 0.8772727,
                "end_time": 0.9454545,
                "pitch": 36,
                "velocity": 32,
                "duration": 0.0681818,
                "tempo": 120.0
            },
            {
                "start_time": 0.9795455,
                "end_time": 1.0477273,
                "pitch": 41,
                "velocity": 32,
                "duration": 0.0681818,
                "tempo": 120.0
            },
            {
                "start_time": 1.0818182,
                "end_time": 1.1522727,
                "pitch": 36,
                "velocity": 32,
                "duration": 0.0704545,
                "tempo": 120.0
            },
            {
                "start_time": 1.1863636,
                "end_time": 1.2522727,
                "pitch": 39,
                "velocity": 32,
                "duration": 0.0659091,
                "tempo": 120.0
            },
            {
                "start_time": 1.2840909,
                "end_time": 1.35,
                "pitch": 38,
                "velocity": 32,
                "duration": 0.0659091,
                "tempo": 120.0
            },
            {
                "start_time": 1.3818182,
                "end_time": 1.4477273,
                "pitch": 39,
                "velocity": 32,
                "duration": 0.0659091,
                "tempo": 120.0
            },
            {
                "start_time": 1.4795455,
                "end_time": 1.5454545,
                "pitch": 41,
                "velocity": 32,
                "duration": 0.0659091,
                "tempo": 120.0
            },
            {
                "start_time": 1.5772727,
                "end_time": 1.6454545,
                "pitch": 36,
                "velocity": 32,
                "duration": 0.0681818,
                "tempo": 120.0
            },
            {
                "start_time": 1.6795455,
                "end_time": 1.7454545,
                "pitch": 43,
                "velocity": 40,
                "duration": 0.0659091,
                "tempo": 120.0
            },
            {
                "start_time": 1.7795455,
                "end_time": 1.8454545,
                "pitch": 36,
                "velocity": 40,
                "duration": 0.0659091,
                "tempo": 120.0
            },
            {
                "start_time": 1.8795455,
                "end_time": 1.9477273,
                "pitch": 36,
                "velocity": 40,
                "duration": 0.0681818,
                "tempo": 120.0
            },
            {
                "start_time": 1.9795455,
                "end_time": 2.0477273,
                "pitch": 44,
                "velocity": 40,
                "duration": 0.0681818,
                "tempo": 120.0
            },
            {
                "start_time": 2.0818182,
                "end_time": 2.1477273,
                "pitch": 36,
                "velocity": 40,
                "duration": 0.0659091,
                "tempo": 120.0
            },
            {
                "start_time": 2.1818182,
                "end_time": 2.2477273,
                "pitch": 36,
                "velocity": 40,
                "duration": 0.0659091,
                "tempo": 120.0
            },
            {
                "start_time": 2.2818182,
                "end_time": 2.3477273,
                "pitch": 46,
                "velocity": 40,
                "duration": 0.0659091,
                "tempo": 120.0
            },
            {
                "start_time": 2.3818182,
                "end_time": 2.4477273,
                "pitch": 36,
                "velocity": 40,
                "duration": 0.0659091,
                "tempo": 120.0
            },
            {
                "start_time": 2.4818182,
                "end_time": 2.5477273,
                "pitch": 36,
                "velocity": 51,
                "duration": 0.0659091,
                "tempo": 120.0
            },
            {
                "start_time": 2.5818182,
                "end_time": 2.65,
                "pitch": 48,
                "velocity": 51,
                "duration": 0.0681818,
                "tempo": 120.0
            },
            {
                "start_time": 2.6818182,
                "end_time": 2.75,
                "pitch": 36,
                "velocity": 51,
                "duration": 0.0681818,
                "tempo": 120.0
            },
            {
                "start_time": 2.7840909,
                "end_time": 2.85,
                "pitch": 46,
                "velocity": 51,
                "duration": 0.0659091,
                "tempo": 120.0
            },
            {
                "start_time": 2.8840909,
                "end_time": 2.95,
                "pitch": 44,
                "velocity": 51,
                "duration": 0.0659091,
                "tempo": 120.0
            },
            {
                "start_time": 2.9840909,
                "end_time": 3.05,
                "pitch": 43,
                "velocity": 51,
                "duration": 0.0659091,
                "tempo": 120.0
            },
            {
                "start_time": 3.0840909,
                "end_time": 3.15,
                "pitch": 41,
                "velocity": 51,
                "duration": 0.0659091,
                "tempo": 120.0
            },
            {
                "start_time": 3.1840909,
                "end_time": 3.25,
                "pitch": 36,
                "velocity": 51,
                "duration": 0.0659091,
                "tempo": 120.0
            },
            {
                "start_time": 3.2840909,
                "end_time": 3.35,
                "pitch": 43,
                "velocity": 51,
                "duration": 0.0659091,
                "tempo": 120.0
            },
            {
                "start_time": 3.3840909,
                "end_time": 3.45,
                "pitch": 36,
                "velocity": 51,
                "duration": 0.0659091,
                "tempo": 120.0
            },
            {
                "start_time": 3.4840909,
                "end_time": 3.55,
                "pitch": 36,
                "velocity": 51,
                "duration": 0.0659091,
                "tempo": 120.0
            },
            {
                "start_time": 3.5840909,
                "end_time": 3.6522727,
                "pitch": 36,
                "velocity": 51,
                "duration": 0.0681818,
                "tempo": 120.0
            },
            {
                "start_time": 3.6863636,
                "end_time": 3.7545455,
                "pitch": 44,
                "velocity": 51,
                "duration": 0.0681818,
                "tempo": 120.0
            },
            {
                "start_time": 3.7886364,
                "end_time": 3.8568182,
                "pitch": 36,
                "velocity": 51,
                "duration": 0.0681818,
                "tempo": 120.0
            },
            {
                "start_time": 3.8909091,
                "end_time": 3.9590909,
                "pitch": 43,
                "velocity": 51,
                "duration": 0.0681818,
                "tempo": 120.0
            },
            {
                "start_time": 3.9931818,
                "end_time": 4.0590909,
                "pitch": 36,
                "velocity": 51,
                "duration": 0.0659091,
                "tempo": 120.0
            },
            {
                "start_time": 4.0931818,
                "end_time": 4.1568182,
                "pitch": 36,
                "velocity": 64,
                "duration": 0.0636364,
                "tempo": 120.0
            },
            {
                "start_time": 4.1909091,
                "end_time": 4.2545455,
                "pitch": 41,
                "velocity": 64,
                "duration": 0.0636364,
                "tempo": 120.0
            },
            {
                "start_time": 4.2886364,
                "end_time": 4.3545455,
                "pitch": 36,
                "velocity": 64,
                "duration": 0.0659091,
                "tempo": 120.0
            },
            {
                "start_time": 4.3863636,
                "end_time": 4.4522727,
                "pitch": 39,
                "velocity": 64,
                "duration": 0.0659091,
                "tempo": 120.0
            },
            {
                "start_time": 4.4863636,
                "end_time": 4.5522727,
                "pitch": 38,
                "velocity": 64,
                "duration": 0.0659091,
                "tempo": 120.0
            },
            {
                "start_time": 4.5863636,
                "end_time": 4.6522727,
                "pitch": 39,
                "velocity": 64,
                "duration": 0.0659091,
                "tempo": 120.0
            },
            {
                "start_time": 4.6863636,
                "end_time": 4.7522727,
                "pitch": 41,
                "velocity": 64,
                "duration": 0.0659091,
                "tempo": 120.0
            },
            {
                "start_time": 4.7863636,
                "end_time": 4.8522727,
                "pitch": 36,
                "velocity": 64,
                "duration": 0.0659091,
                "tempo": 120.0
            },
            {
                "start_time": 4.8863636,
                "end_time": 4.9545455,
                "pitch": 43,
                "velocity": 80,
                "duration": 0.0681818,
                "tempo": 120.0
            },
            {
                "start_time": 4.9886364,
                "end_time": 5.0545455,
                "pitch": 36,
                "velocity": 80,
                "duration": 0.0659091,
                "tempo": 120.0
            },
            {
                "start_time": 5.0886364,
                "end_time": 5.1545455,
                "pitch": 36,
                "velocity": 80,
                "duration": 0.0659091,
                "tempo": 120.0
            },
            {
                "start_time": 5.1886364,
                "end_time": 5.2568182,
                "pitch": 44,
                "velocity": 80,
                "duration": 0.0681818,
                "tempo": 120.0
            },
            {
                "start_time": 5.2886364,
                "end_time": 5.3568182,
                "pitch": 36,
                "velocity": 80,
                "duration": 0.0681818,
                "tempo": 120.0
            },
            {
                "start_time": 5.3909091,
                "end_time": 5.4568182,
                "pitch": 36,
                "velocity": 80,
                "duration": 0.0659091,
                "tempo": 120.0
            },
            {
                "start_time": 5.4909091,
                "end_time": 5.5590909,
                "pitch": 46,
                "velocity": 80,
                "duration": 0.0681818,
                "tempo": 120.0
            },
            {
                "start_time": 5.5909091,
                "end_time": 5.6568182,
                "pitch": 36,
                "velocity": 80,
                "duration": 0.0659091,
                "tempo": 120.0
            },
            {
                "start_time": 5.6886364,
                "end_time": 5.7545455,
                "pitch": 36,
                "velocity": 101,
                "duration": 0.0659091,
                "tempo": 120.0
            },
            {
                "start_time": 5.7886364,
                "end_time": 5.8522727,
                "pitch": 48,
                "velocity": 101,
                "duration": 0.0636364,
                "tempo": 120.0
            },
            {
                "start_time": 5.8863636,
                "end_time": 5.95,
                "pitch": 36,
                "velocity": 101,
                "duration": 0.0636364,
                "tempo": 120.0
            },
            {
                "start_time": 5.9840909,
                "end_time": 6.0522727,
                "pitch": 46,
                "velocity": 101,
                "duration": 0.0681818,
                "tempo": 120.0
            },
            {
                "start_time": 6.0863636,
                "end_time": 6.1545455,
                "pitch": 44,
                "velocity": 101,
                "duration": 0.0681818,
                "tempo": 120.0
            },
            {
                "start_time": 6.1886364,
                "end_time": 6.2568182,
                "pitch": 43,
                "velocity": 101,
                "duration": 0.0681818,
                "tempo": 120.0
            },
            {
                "start_time": 6.2909091,
                "end_time": 6.3590909,
                "pitch": 41,
                "velocity": 101,
                "duration": 0.0681818,
                "tempo": 120.0
            },
            {
                "start_time": 6.3931818,
                "end_time": 6.4590909,
                "pitch": 36,
                "velocity": 101,
                "duration": 0.0659091,
                "tempo": 120.0
            },
            {
                "start_time": 6.4931818,
                "end_time": 6.5568182,
                "pitch": 48,
                "velocity": 101,
                "duration": 0.0636364,
                "tempo": 120.0
            },
            {
                "start_time": 6.5909091,
                "end_time": 6.6545455,
                "pitch": 36,
                "velocity": 101,
                "duration": 0.0636364,
                "tempo": 120.0
            },
            {
                "start_time": 6.6886364,
                "end_time": 6.7545455,
                "pitch": 36,
                "velocity": 101,
                "duration": 0.0659091,
                "tempo": 120.0
            },
            {
                "start_time": 6.7863636,
                "end_time": 6.8545455,
                "pitch": 48,
                "velocity": 101,
                "duration": 0.0681818,
                "tempo": 120.0
            },
            {
                "start_time": 6.8886364,
                "end_time": 6.9568182,
                "pitch": 36,
                "velocity": 101,
                "duration": 0.0681818,
                "tempo": 120.0
            },
            {
                "start_time": 6.9909091,
                "end_time": 7.0590909,
                "pitch": 36,
                "velocity": 101,
                "duration": 0.0681818,
                "tempo": 120.0
            },
            {
                "start_time": 7.0931818,
                "end_time": 7.1636364,
                "pitch": 48,
                "velocity": 101,
                "duration": 0.0704545,
                "tempo": 120.0
            },
            {
                "start_time": 7.1977273,
                "end_time": 7.2636364,
                "pitch": 39,
                "velocity": 101,
                "duration": 0.0659091,
                "tempo": 120.0
            },
            {
                "start_time": 7.2977273,
                "end_time": 7.3659091,
                "pitch": 51,
                "velocity": 101,
                "duration": 0.0681818,
                "tempo": 120.0
            },
            {
                "start_time": 7.3977273,
                "end_time": 7.4659091,
                "pitch": 39,
                "velocity": 101,
                "duration": 0.0681818,
                "tempo": 120.0
            },
            {
                "start_time": 7.5,
                "end_time": 7.5659091,
                "pitch": 39,
                "velocity": 101,
                "duration": 0.0659091,
                "tempo": 120.0
            },
            {
                "start_time": 7.6,
                "end_time": 7.6659091,
                "pitch": 51,
                "velocity": 101,
                "duration": 0.0659091,
                "tempo": 120.0
            },
            {
                "start_time": 7.6977273,
                "end_time": 7.7636364,
                "pitch": 39,
                "velocity": 101,
                "duration": 0.0659091,
                "tempo": 120.0
            },
            {
                "start_time": 7.7954545,
                "end_time": 7.8613636,
                "pitch": 39,
                "velocity": 101,
                "duration": 0.0659091,
                "tempo": 120.0
            },
            {
                "start_time": 7.8931818,
                "end_time": 7.9590909,
                "pitch": 51,
                "velocity": 101,
                "duration": 0.0659091,
                "tempo": 120.0
            },
            {
                "start_time": 7.9909091,
                "end_time": 8.0590909,
                "pitch": 41,
                "velocity": 101,
                "duration": 0.0681818,
                "tempo": 120.0
            },
            {
                "start_time": 8.0931818,
                "end_time": 8.1636364,
                "pitch": 53,
                "velocity": 101,
                "duration": 0.0704545,
                "tempo": 120.0
            },
            {
                "start_time": 8.1977273,
                "end_time": 8.2659091,
                "pitch": 41,
                "velocity": 101,
                "duration": 0.0681818,
                "tempo": 120.0
            },
            {
                "start_time": 8.3,
                "end_time": 8.3681818,
                "pitch": 41,
                "velocity": 101,
                "duration": 0.0681818,
                "tempo": 120.0
            },
            {
                "start_time": 8.4022727,
                "end_time": 8.4704545,
                "pitch": 53,
                "velocity": 101,
                "duration": 0.0681818,
                "tempo": 120.0
            },
            {
                "start_time": 8.5022727,
                "end_time": 8.5704545,
                "pitch": 41,
                "velocity": 101,
                "duration": 0.0681818,
                "tempo": 120.0
            },
            {
                "start_time": 8.6045455,
                "end_time": 8.6704545,
                "pitch": 41,
                "velocity": 101,
                "duration": 0.0659091,
                "tempo": 120.0
            },
            {
                "start_time": 8.7045455,
                "end_time": 8.7727273,
                "pitch": 53,
                "velocity": 101,
                "duration": 0.0681818,
                "tempo": 120.0
            },
            {
                "start_time": 8.8045455,
                "end_time": 8.8704545,
                "pitch": 44,
                "velocity": 101,
                "duration": 0.0659091,
                "tempo": 120.0
            },
            {
                "start_time": 8.9022727,
                "end_time": 8.9681818,
                "pitch": 56,
                "velocity": 101,
                "duration": 0.0659091,
                "tempo": 120.0
            },
            {
                "start_time": 9.0022727,
                "end_time": 9.0659091,
                "pitch": 44,
                "velocity": 101,
                "duration": 0.0636364,
                "tempo": 120.0
            },
            {
                "start_time": 9.1,
                "end_time": 9.1636364,
                "pitch": 44,
                "velocity": 101,
                "duration": 0.0636364,
                "tempo": 120.0
            },
            {
                "start_time": 9.1977273,
                "end_time": 9.2659091,
                "pitch": 56,
                "velocity": 101,
                "duration": 0.0681818,
                "tempo": 120.0
            },
            {
                "start_time": 9.3,
                "end_time": 9.3681818,
                "pitch": 44,
                "velocity": 101,
                "duration": 0.0681818,
                "tempo": 120.0
            },
            {
                "start_time": 9.4022727,
                "end_time": 9.4704545,
                "pitch": 44,
                "velocity": 101,
                "duration": 0.0681818,
                "tempo": 120.0
            },
            {
                "start_time": 9.5045455,
                "end_time": 9.5727273,
                "pitch": 56,
                "velocity": 101,
                "duration": 0.0681818,
                "tempo": 120.0
            },
            {
                "start_time": 9.6090909,
                "end_time": 9.675,
                "pitch": 36,
                "velocity": 101,
                "duration": 0.0659091,
                "tempo": 120.0
            },
            {
                "start_time": 9.7090909,
                "end_time": 9.775,
                "pitch": 48,
                "velocity": 101,
                "duration": 0.0659091,
                "tempo": 120.0
            },
            {
                "start_time": 9.8090909,
                "end_time": 9.8772727,
                "pitch": 36,
                "velocity": 101,
                "duration": 0.0681818,
                "tempo": 120.0
            },
            {
                "start_time": 9.9090909,
                "end_time": 9.9772727,
                "pitch": 36,
                "velocity": 101,
                "duration": 0.0681818,
                "tempo": 120.0
            },
            {
                "start_time": 10.0113636,
                "end_time": 10.0772727,
                "pitch": 48,
                "velocity": 101,
                "duration": 0.0659091,
                "tempo": 120.0
            },
            {
                "start_time": 10.1113636,
                "end_time": 10.1795455,
                "pitch": 36,
                "velocity": 101,
                "duration": 0.0681818,
                "tempo": 120.0
            },
            {
                "start_time": 10.2113636,
                "end_time": 10.2795455,
                "pitch": 36,
                "velocity": 101,
                "duration": 0.0681818,
                "tempo": 120.0
            },
            {
                "start_time": 10.3136364,
                "end_time": 10.3795455,
                "pitch": 48,
                "velocity": 101,
                "duration": 0.0659091,
                "tempo": 120.0
            },
            {
                "start_time": 10.4136364,
                "end_time": 10.4795455,
                "pitch": 39,
                "velocity": 101,
                "duration": 0.0659091,
                "tempo": 120.0
            },
            {
                "start_time": 10.5136364,
                "end_time": 10.5818182,
                "pitch": 51,
                "velocity": 101,
                "duration": 0.0681818,
                "tempo": 120.0
            },
            {
                "start_time": 10.6159091,
                "end_time": 10.6818182,
                "pitch": 39,
                "velocity": 101,
                "duration": 0.0659091,
                "tempo": 120.0
            },
            {
                "start_time": 10.7159091,
                "end_time": 10.7818182,
                "pitch": 39,
                "velocity": 101,
                "duration": 0.0659091,
                "tempo": 120.0
            },
            {
                "start_time": 10.8159091,
                "end_time": 10.8818182,
                "pitch": 51,
                "velocity": 101,
                "duration": 0.0659091,
                "tempo": 120.0
            },
            {
                "start_time": 10.9136364,
                "end_time": 10.9795455,
                "pitch": 39,
                "velocity": 101,
                "duration": 0.0659091,
                "tempo": 120.0
            },
            {
                "start_time": 11.0113636,
                "end_time": 11.0772727,
                "pitch": 39,
                "velocity": 101,
                "duration": 0.0659091,
                "tempo": 120.0
            },
            {
                "start_time": 11.1090909,
                "end_time": 11.175,
                "pitch": 51,
                "velocity": 101,
                "duration": 0.0659091,
                "tempo": 120.0
            },
            {
                "start_time": 11.2090909,
                "end_time": 11.2772727,
                "pitch": 41,
                "velocity": 101,
                "duration": 0.0681818,
                "tempo": 120.0
            },
            {
                "start_time": 11.3113636,
                "end_time": 11.3795455,
                "pitch": 53,
                "velocity": 101,
                "duration": 0.0681818,
                "tempo": 120.0
            },
            {
                "start_time": 11.4136364,
                "end_time": 11.4818182,
                "pitch": 41,
                "velocity": 101,
                "duration": 0.0681818,
                "tempo": 120.0
            },
            {
                "start_time": 11.5159091,
                "end_time": 11.5840909,
                "pitch": 41,
                "velocity": 101,
                "duration": 0.0681818,
                "tempo": 120.0
            },
            {
                "start_time": 11.6181818,
                "end_time": 11.6863636,
                "pitch": 53,
                "velocity": 101,
                "duration": 0.0681818,
                "tempo": 120.0
            },
            {
                "start_time": 11.7204545,
                "end_time": 11.7863636,
                "pitch": 41,
                "velocity": 101,
                "duration": 0.0659091,
                "tempo": 120.0
            },
            {
                "start_time": 11.8204545,
                "end_time": 11.8863636,
                "pitch": 41,
                "velocity": 101,
                "duration": 0.0659091,
                "tempo": 120.0
            },
            {
                "start_time": 11.9204545,
                "end_time": 11.9886364,
                "pitch": 53,
                "velocity": 101,
                "duration": 0.0681818,
                "tempo": 120.0
            },
            {
                "start_time": 12.0227273,
                "end_time": 12.0863636,
                "pitch": 44,
                "velocity": 101,
                "duration": 0.0636364,
                "tempo": 120.0
            },
            {
                "start_time": 12.1204545,
                "end_time": 12.1840909,
                "pitch": 56,
                "velocity": 101,
                "duration": 0.0636364,
                "tempo": 120.0
            },
            {
                "start_time": 12.2181818,
                "end_time": 12.2840909,
                "pitch": 44,
                "velocity": 101,
                "duration": 0.0659091,
                "tempo": 120.0
            },
            {
                "start_time": 12.3159091,
                "end_time": 12.3818182,
                "pitch": 44,
                "velocity": 101,
                "duration": 0.0659091,
                "tempo": 120.0
            },
            {
                "start_time": 12.4136364,
                "end_time": 12.4818182,
                "pitch": 56,
                "velocity": 101,
                "duration": 0.0681818,
                "tempo": 120.0
            },
            {
                "start_time": 12.5159091,
                "end_time": 12.5840909,
                "pitch": 44,
                "velocity": 101,
                "duration": 0.0681818,
                "tempo": 120.0
            },
            {
                "start_time": 12.6181818,
                "end_time": 12.6863636,
                "pitch": 44,
                "velocity": 101,
                "duration": 0.0681818,
                "tempo": 120.0
            },
            {
                "start_time": 12.7227273,
                "end_time": 12.7909091,
                "pitch": 56,
                "velocity": 101,
                "duration": 0.0681818,
                "tempo": 120.0
            },
            {
                "start_time": 12.825,
                "end_time": 12.8909091,
                "pitch": 36,
                "velocity": 101,
                "duration": 0.0659091,
                "tempo": 120.0
            },
            {
                "start_time": 12.925,
                "end_time": 12.9909091,
                "pitch": 48,
                "velocity": 101,
                "duration": 0.0659091,
                "tempo": 120.0
            },
            {
                "start_time": 13.025,
                "end_time": 13.0909091,
                "pitch": 36,
                "velocity": 101,
                "duration": 0.0659091,
                "tempo": 120.0
            },
            {
                "start_time": 13.125,
                "end_time": 13.1909091,
                "pitch": 36,
                "velocity": 101,
                "duration": 0.0659091,
                "tempo": 120.0
            },
            {
                "start_time": 13.225,
                "end_time": 13.2909091,
                "pitch": 48,
                "velocity": 101,
                "duration": 0.0659091,
                "tempo": 120.0
            },
            {
                "start_time": 13.325,
                "end_time": 13.3931818,
                "pitch": 36,
                "velocity": 101,
                "duration": 0.0681818,
                "tempo": 120.0
            },
            {
                "start_time": 13.425,
                "end_time": 13.4931818,
                "pitch": 36,
                "velocity": 101,
                "duration": 0.0681818,
                "tempo": 120.0
            },
            {
                "start_time": 13.5272727,
                "end_time": 13.5931818,
                "pitch": 48,
                "velocity": 101,
                "duration": 0.0659091,
                "tempo": 120.0
            },
            {
                "start_time": 13.6272727,
                "end_time": 13.6954545,
                "pitch": 39,
                "velocity": 101,
                "duration": 0.0681818,
                "tempo": 120.0
            },
            {
                "start_time": 13.7272727,
                "end_time": 13.7954545,
                "pitch": 51,
                "velocity": 101,
                "duration": 0.0681818,
                "tempo": 120.0
            },
            {
                "start_time": 13.8295455,
                "end_time": 13.8954545,
                "pitch": 39,
                "velocity": 101,
                "duration": 0.0659091,
                "tempo": 120.0
            },
            {
                "start_time": 13.9295455,
                "end_time": 13.9954545,
                "pitch": 39,
                "velocity": 101,
                "duration": 0.0659091,
                "tempo": 120.0
            },
            {
                "start_time": 14.0295455,
                "end_time": 14.0977273,
                "pitch": 51,
                "velocity": 101,
                "duration": 0.0681818,
                "tempo": 120.0
            },
            {
                "start_time": 14.1295455,
                "end_time": 14.1977273,
                "pitch": 39,
                "velocity": 101,
                "duration": 0.0681818,
                "tempo": 120.0
            },
            {
                "start_time": 14.2318182,
                "end_time": 14.2977273,
                "pitch": 39,
                "velocity": 101,
                "duration": 0.0659091,
                "tempo": 120.0
            },
            {
                "start_time": 14.3318182,
                "end_time": 14.4,
                "pitch": 51,
                "velocity": 101,
                "duration": 0.0681818,
                "tempo": 120.0
            },
            {
                "start_time": 14.4318182,
                "end_time": 14.5,
                "pitch": 41,
                "velocity": 101,
                "duration": 0.0681818,
                "tempo": 120.0
            },
            {
                "start_time": 14.5340909,
                "end_time": 14.6,
                "pitch": 53,
                "velocity": 101,
                "duration": 0.0659091,
                "tempo": 120.0
            },
            {
                "start_time": 14.6340909,
                "end_time": 14.7,
                "pitch": 41,
                "velocity": 101,
                "duration": 0.0659091,
                "tempo": 120.0
            },
            {
                "start_time": 14.7340909,
                "end_time": 14.8022727,
                "pitch": 41,
                "velocity": 101,
                "duration": 0.0681818,
                "tempo": 120.0
            },
            {
                "start_time": 14.8340909,
                "end_time": 14.9,
                "pitch": 53,
                "velocity": 101,
                "duration": 0.0659091,
                "tempo": 120.0
            },
            {
                "start_time": 14.9340909,
                "end_time": 14.9977273,
                "pitch": 41,
                "velocity": 101,
                "duration": 0.0636364,
                "tempo": 120.0
            },
            {
                "start_time": 15.0318182,
                "end_time": 15.0977273,
                "pitch": 41,
                "velocity": 101,
                "duration": 0.0659091,
                "tempo": 120.0
            },
            {
                "start_time": 15.1295455,
                "end_time": 15.1954545,
                "pitch": 53,
                "velocity": 101,
                "duration": 0.0659091,
                "tempo": 120.0
            },
            {
                "start_time": 15.2272727,
                "end_time": 15.2954545,
                "pitch": 44,
                "velocity": 101,
                "duration": 0.0681818,
                "tempo": 120.0
            },
            {
                "start_time": 15.3272727,
                "end_time": 15.3954545,
                "pitch": 56,
                "velocity": 101,
                "duration": 0.0681818,
                "tempo": 120.0
            },
            {
                "start_time": 15.4295455,
                "end_time": 15.4954545,
                "pitch": 44,
                "velocity": 101,
                "duration": 0.0659091,
                "tempo": 120.0
            },
            {
                "start_time": 15.5295455,
                "end_time": 15.5954545,
                "pitch": 44,
                "velocity": 101,
                "duration": 0.0659091,
                "tempo": 120.0
            },
            {
                "start_time": 15.6295455,
                "end_time": 15.6977273,
                "pitch": 56,
                "velocity": 101,
                "duration": 0.0681818,
                "tempo": 120.0
            },
            {
                "start_time": 15.7318182,
                "end_time": 15.8022727,
                "pitch": 44,
                "velocity": 101,
                "duration": 0.0704545,
                "tempo": 120.0
            },
            {
                "start_time": 15.8363636,
                "end_time": 15.9045455,
                "pitch": 44,
                "velocity": 101,
                "duration": 0.0681818,
                "tempo": 120.0
            },
            {
                "start_time": 15.9386364,
                "end_time": 16.0068182,
                "pitch": 56,
                "velocity": 101,
                "duration": 0.0681818,
                "tempo": 120.0
            },
            {
                "start_time": 16.0409091,
                "end_time": 16.1090909,
                "pitch": 36,
                "velocity": 101,
                "duration": 0.0681818,
                "tempo": 120.0
            },
            {
                "start_time": 16.1409091,
                "end_time": 16.2090909,
                "pitch": 48,
                "velocity": 101,
                "duration": 0.0681818,
                "tempo": 120.0
            },
            {
                "start_time": 16.2431818,
                "end_time": 16.3090909,
                "pitch": 36,
                "velocity": 101,
                "duration": 0.0659091,
                "tempo": 120.0
            },
            {
                "start_time": 16.3431818,
                "end_time": 16.4090909,
                "pitch": 36,
                "velocity": 101,
                "duration": 0.0659091,
                "tempo": 120.0
            },
            {
                "start_time": 16.4431818,
                "end_time": 16.5113636,
                "pitch": 48,
                "velocity": 101,
                "duration": 0.0681818,
                "tempo": 120.0
            },
            {
                "start_time": 16.5454545,
                "end_time": 16.6113636,
                "pitch": 36,
                "velocity": 101,
                "duration": 0.0659091,
                "tempo": 120.0
            },
            {
                "start_time": 16.6454545,
                "end_time": 16.7113636,
                "pitch": 36,
                "velocity": 101,
                "duration": 0.0659091,
                "tempo": 120.0
            },
            {
                "start_time": 16.7454545,
                "end_time": 16.8136364,
                "pitch": 48,
                "velocity": 101,
                "duration": 0.0681818,
                "tempo": 120.0
            },
            {
                "start_time": 16.8454545,
                "end_time": 16.9136364,
                "pitch": 39,
                "velocity": 101,
                "duration": 0.0681818,
                "tempo": 120.0
            },
            {
                "start_time": 16.9454545,
                "end_time": 17.0136364,
                "pitch": 51,
                "velocity": 101,
                "duration": 0.0681818,
                "tempo": 120.0
            },
            {
                "start_time": 17.0454545,
                "end_time": 17.1136364,
                "pitch": 39,
                "velocity": 101,
                "duration": 0.0681818,
                "tempo": 120.0
            },
            {
                "start_time": 17.1454545,
                "end_time": 17.2136364,
                "pitch": 39,
                "velocity": 101,
                "duration": 0.0681818,
                "tempo": 120.0
            },
            {
                "start_time": 17.2454545,
                "end_time": 17.3136364,
                "pitch": 51,
                "velocity": 101,
                "duration": 0.0681818,
                "tempo": 120.0
            },
            {
                "start_time": 17.3477273,
                "end_time": 17.4136364,
                "pitch": 39,
                "velocity": 101,
                "duration": 0.0659091,
                "tempo": 120.0
            },
            {
                "start_time": 17.4477273,
                "end_time": 17.5159091,
                "pitch": 39,
                "velocity": 101,
                "duration": 0.0681818,
                "tempo": 120.0
            },
            {
                "start_time": 17.5477273,
                "end_time": 17.6159091,
                "pitch": 51,
                "velocity": 101,
                "duration": 0.0681818,
                "tempo": 120.0
            },
            {
                "start_time": 17.65,
                "end_time": 17.7159091,
                "pitch": 41,
                "velocity": 101,
                "duration": 0.0659091,
                "tempo": 120.0
            },
            {
                "start_time": 17.75,
                "end_time": 17.8159091,
                "pitch": 53,
                "velocity": 101,
                "duration": 0.0659091,
                "tempo": 120.0
            },
            {
                "start_time": 17.85,
                "end_time": 17.9159091,
                "pitch": 41,
                "velocity": 101,
                "duration": 0.0659091,
                "tempo": 120.0
            },
            {
                "start_time": 17.95,
                "end_time": 18.0159091,
                "pitch": 41,
                "velocity": 101,
                "duration": 0.0659091,
                "tempo": 120.0
            },
            {
                "start_time": 18.05,
                "end_time": 18.1159091,
                "pitch": 53,
                "velocity": 101,
                "duration": 0.0659091,
                "tempo": 120.0
            },
            {
                "start_time": 18.15,
                "end_time": 18.2159091,
                "pitch": 41,
                "velocity": 101,
                "duration": 0.0659091,
                "tempo": 120.0
            },
            {
                "start_time": 18.25,
                "end_time": 18.3159091,
                "pitch": 41,
                "velocity": 101,
                "duration": 0.0659091,
                "tempo": 120.0
            },
            {
                "start_time": 18.35,
                "end_time": 18.4159091,
                "pitch": 53,
                "velocity": 101,
                "duration": 0.0659091,
                "tempo": 120.0
            },
            {
                "start_time": 18.45,
                "end_time": 18.5136364,
                "pitch": 44,
                "velocity": 101,
                "duration": 0.0636364,
                "tempo": 120.0
            },
            {
                "start_time": 18.5477273,
                "end_time": 18.6136364,
                "pitch": 56,
                "velocity": 101,
                "duration": 0.0659091,
                "tempo": 120.0
            },
            {
                "start_time": 18.6454545,
                "end_time": 18.7113636,
                "pitch": 44,
                "velocity": 101,
                "duration": 0.0659091,
                "tempo": 120.0
            },
            {
                "start_time": 18.7431818,
                "end_time": 18.8090909,
                "pitch": 44,
                "velocity": 101,
                "duration": 0.0659091,
                "tempo": 120.0
            },
            {
                "start_time": 18.8409091,
                "end_time": 18.9090909,
                "pitch": 56,
                "velocity": 101,
                "duration": 0.0681818,
                "tempo": 120.0
            },
            {
                "start_time": 18.9431818,
                "end_time": 19.0090909,
                "pitch": 44,
                "velocity": 101,
                "duration": 0.0659091,
                "tempo": 120.0
            },
            {
                "start_time": 19.0431818,
                "end_time": 19.1090909,
                "pitch": 44,
                "velocity": 101,
                "duration": 0.0659091,
                "tempo": 120.0
            },
            {
                "start_time": 19.1431818,
                "end_time": 19.2113636,
                "pitch": 56,
                "velocity": 101,
                "duration": 0.0681818,
                "tempo": 120.0
            },
            {
                "start_time": 19.2431818,
                "end_time": 19.3113636,
                "pitch": 36,
                "velocity": 101,
                "duration": 0.0681818,
                "tempo": 120.0
            },
            {
                "start_time": 19.3477273,
                "end_time": 19.4159091,
                "pitch": 43,
                "velocity": 101,
                "duration": 0.0681818,
                "tempo": 120.0
            },
            {
                "start_time": 19.45,
                "end_time": 19.5181818,
                "pitch": 36,
                "velocity": 101,
                "duration": 0.0681818,
                "tempo": 120.0
            },
            {
                "start_time": 19.5522727,
                "end_time": 19.6204545,
                "pitch": 36,
                "velocity": 101,
                "duration": 0.0681818,
                "tempo": 120.0
            },
            {
                "start_time": 19.6545455,
                "end_time": 19.7204545,
                "pitch": 44,
                "velocity": 101,
                "duration": 0.0659091,
                "tempo": 120.0
            },
            {
                "start_time": 19.7522727,
                "end_time": 19.8181818,
                "pitch": 36,
                "velocity": 101,
                "duration": 0.0659091,
                "tempo": 120.0
            },
            {
                "start_time": 19.85,
                "end_time": 19.9159091,
                "pitch": 36,
                "velocity": 101,
                "duration": 0.0659091,
                "tempo": 120.0
            },
            {
                "start_time": 19.9477273,
                "end_time": 20.0136364,
                "pitch": 43,
                "velocity": 101,
                "duration": 0.0659091,
                "tempo": 120.0
            },
            {
                "start_time": 20.0477273,
                "end_time": 20.1136364,
                "pitch": 36,
                "velocity": 101,
                "duration": 0.0659091,
                "tempo": 120.0
            },
            {
                "start_time": 20.1477273,
                "end_time": 20.2136364,
                "pitch": 36,
                "velocity": 101,
                "duration": 0.0659091,
                "tempo": 120.0
            },
            {
                "start_time": 20.2477273,
                "end_time": 20.3159091,
                "pitch": 41,
                "velocity": 101,
                "duration": 0.0681818,
                "tempo": 120.0
            },
            {
                "start_time": 20.35,
                "end_time": 20.4159091,
                "pitch": 36,
                "velocity": 101,
                "duration": 0.0659091,
                "tempo": 120.0
            },
            {
                "start_time": 20.45,
                "end_time": 20.5159091,
                "pitch": 39,
                "velocity": 101,
                "duration": 0.0659091,
                "tempo": 120.0
            },
            {
                "start_time": 20.55,
                "end_time": 20.6159091,
                "pitch": 38,
                "velocity": 101,
                "duration": 0.0659091,
                "tempo": 120.0
            },
            {
                "start_time": 20.65,
                "end_time": 20.7159091,
                "pitch": 39,
                "velocity": 101,
                "duration": 0.0659091,
                "tempo": 120.0
            },
            {
                "start_time": 20.75,
                "end_time": 20.8159091,
                "pitch": 41,
                "velocity": 101,
                "duration": 0.0659091,
                "tempo": 120.0
            },
            {
                "start_time": 20.85,
                "end_time": 20.9159091,
                "pitch": 36,
                "velocity": 101,
                "duration": 0.0659091,
                "tempo": 120.0
            },
            {
                "start_time": 20.95,
                "end_time": 21.0181818,
                "pitch": 43,
                "velocity": 101,
                "duration": 0.0681818,
                "tempo": 120.0
            },
            {
                "start_time": 21.05,
                "end_time": 21.1181818,
                "pitch": 36,
                "velocity": 101,
                "duration": 0.0681818,
                "tempo": 120.0
            },
            {
                "start_time": 21.1522727,
                "end_time": 21.2181818,
                "pitch": 36,
                "velocity": 101,
                "duration": 0.0659091,
                "tempo": 120.0
            },
            {
                "start_time": 21.2522727,
                "end_time": 21.3181818,
                "pitch": 44,
                "velocity": 101,
                "duration": 0.0659091,
                "tempo": 120.0
            },
            {
                "start_time": 21.3522727,
                "end_time": 21.4181818,
                "pitch": 36,
                "velocity": 101,
                "duration": 0.0659091,
                "tempo": 120.0
            },
            {
                "start_time": 21.4522727,
                "end_time": 21.5181818,
                "pitch": 36,
                "velocity": 101,
                "duration": 0.0659091,
                "tempo": 120.0
            },
            {
                "start_time": 21.5522727,
                "end_time": 21.6181818,
                "pitch": 46,
                "velocity": 101,
                "duration": 0.0659091,
                "tempo": 120.0
            },
            {
                "start_time": 21.6522727,
                "end_time": 21.7181818,
                "pitch": 36,
                "velocity": 101,
                "duration": 0.0659091,
                "tempo": 120.0
            },
            {
                "start_time": 21.7522727,
                "end_time": 21.8181818,
                "pitch": 36,
                "velocity": 101,
                "duration": 0.0659091,
                "tempo": 120.0
            },
            {
                "start_time": 21.8522727,
                "end_time": 21.9181818,
                "pitch": 48,
                "velocity": 101,
                "duration": 0.0659091,
                "tempo": 120.0
            },
            {
                "start_time": 21.9522727,
                "end_time": 22.0181818,
                "pitch": 36,
                "velocity": 101,
                "duration": 0.0659091,
                "tempo": 120.0
            },
            {
                "start_time": 22.0522727,
                "end_time": 22.1204545,
                "pitch": 46,
                "velocity": 101,
                "duration": 0.0681818,
                "tempo": 120.0
            },
            {
                "start_time": 22.1522727,
                "end_time": 22.2204545,
                "pitch": 44,
                "velocity": 101,
                "duration": 0.0681818,
                "tempo": 120.0
            },
            {
                "start_time": 22.2545455,
                "end_time": 22.3204545,
                "pitch": 43,
                "velocity": 101,
                "duration": 0.0659091,
                "tempo": 120.0
            },
            {
                "start_time": 22.3545455,
                "end_time": 22.4204545,
                "pitch": 41,
                "velocity": 101,
                "duration": 0.0659091,
                "tempo": 120.0
            },
            {
                "start_time": 22.4545455,
                "end_time": 22.5227273,
                "pitch": 36,
                "velocity": 101,
                "duration": 0.0681818,
                "tempo": 120.0
            },
            {
                "start_time": 22.5545455,
                "end_time": 22.6227273,
                "pitch": 43,
                "velocity": 101,
                "duration": 0.0681818,
                "tempo": 120.0
            },
            {
                "start_time": 22.6545455,
                "end_time": 22.7227273,
                "pitch": 36,
                "velocity": 101,
                "duration": 0.0681818,
                "tempo": 120.0
            },
            {
                "start_time": 22.7545455,
                "end_time": 22.8227273,
                "pitch": 36,
                "velocity": 101,
                "duration": 0.0681818,
                "tempo": 120.0
            },
            {
                "start_time": 22.8545455,
                "end_time": 22.9227273,
                "pitch": 44,
                "velocity": 101,
                "duration": 0.0681818,
                "tempo": 120.0
            },
            {
                "start_time": 22.9568182,
                "end_time": 23.0227273,
                "pitch": 36,
                "velocity": 101,
                "duration": 0.0659091,
                "tempo": 120.0
            },
            {
                "start_time": 23.0568182,
                "end_time": 23.1227273,
                "pitch": 36,
                "velocity": 101,
                "duration": 0.0659091,
                "tempo": 120.0
            },
            {
                "start_time": 23.1568182,
                "end_time": 23.225,
                "pitch": 43,
                "velocity": 101,
                "duration": 0.0681818,
                "tempo": 120.0
            },
            {
                "start_time": 23.2568182,
                "end_time": 23.325,
                "pitch": 36,
                "velocity": 101,
                "duration": 0.0681818,
                "tempo": 120.0
            },
            {
                "start_time": 23.3568182,
                "end_time": 23.425,
                "pitch": 36,
                "velocity": 101,
                "duration": 0.0681818,
                "tempo": 120.0
            },
            {
                "start_time": 23.4568182,
                "end_time": 23.525,
                "pitch": 41,
                "velocity": 101,
                "duration": 0.0681818,
                "tempo": 120.0
            },
            {
                "start_time": 23.5568182,
                "end_time": 23.625,
                "pitch": 36,
                "velocity": 101,
                "duration": 0.0681818,
                "tempo": 120.0
            },
            {
                "start_time": 23.6568182,
                "end_time": 23.725,
                "pitch": 39,
                "velocity": 101,
                "duration": 0.0681818,
                "tempo": 120.0
            },
            {
                "start_time": 23.7568182,
                "end_time": 23.825,
                "pitch": 38,
                "velocity": 101,
                "duration": 0.0681818,
                "tempo": 120.0
            },
            {
                "start_time": 23.8568182,
                "end_time": 23.925,
                "pitch": 39,
                "velocity": 101,
                "duration": 0.0681818,
                "tempo": 120.0
            },
            {
                "start_time": 23.9568182,
                "end_time": 24.025,
                "pitch": 41,
                "velocity": 101,
                "duration": 0.0681818,
                "tempo": 120.0
            },
            {
                "start_time": 24.0568182,
                "end_time": 24.125,
                "pitch": 36,
                "velocity": 101,
                "duration": 0.0681818,
                "tempo": 120.0
            },
            {
                "start_time": 24.1590909,
                "end_time": 24.225,
                "pitch": 43,
                "velocity": 101,
                "duration": 0.0659091,
                "tempo": 120.0
            },
            {
                "start_time": 24.2590909,
                "end_time": 24.3272727,
                "pitch": 36,
                "velocity": 101,
                "duration": 0.0681818,
                "tempo": 120.0
            },
            {
                "start_time": 24.3590909,
                "end_time": 24.4272727,
                "pitch": 36,
                "velocity": 101,
                "duration": 0.0681818,
                "tempo": 120.0
            },
            {
                "start_time": 24.4613636,
                "end_time": 24.5272727,
                "pitch": 44,
                "velocity": 101,
                "duration": 0.0659091,
                "tempo": 120.0
            },
            {
                "start_time": 24.5613636,
                "end_time": 24.6272727,
                "pitch": 36,
                "velocity": 101,
                "duration": 0.0659091,
                "tempo": 120.0
            },
            {
                "start_time": 24.6613636,
                "end_time": 24.7272727,
                "pitch": 36,
                "velocity": 101,
                "duration": 0.0659091,
                "tempo": 120.0
            },
            {
                "start_time": 24.7613636,
                "end_time": 24.8272727,
                "pitch": 46,
                "velocity": 101,
                "duration": 0.0659091,
                "tempo": 120.0
            },
            {
                "start_time": 24.8613636,
                "end_time": 24.9272727,
                "pitch": 36,
                "velocity": 101,
                "duration": 0.0659091,
                "tempo": 120.0
            },
            {
                "start_time": 24.9613636,
                "end_time": 25.0272727,
                "pitch": 36,
                "velocity": 101,
                "duration": 0.0659091,
                "tempo": 120.0
            },
            {
                "start_time": 25.0613636,
                "end_time": 25.1295455,
                "pitch": 48,
                "velocity": 101,
                "duration": 0.0681818,
                "tempo": 120.0
            },
            {
                "start_time": 25.1613636,
                "end_time": 25.2295455,
                "pitch": 36,
                "velocity": 101,
                "duration": 0.0681818,
                "tempo": 120.0
            },
            {
                "start_time": 25.2636364,
                "end_time": 25.3295455,
                "pitch": 46,
                "velocity": 101,
                "duration": 0.0659091,
                "tempo": 120.0
            },
            {
                "start_time": 25.3636364,
                "end_time": 25.4295455,
                "pitch": 44,
                "velocity": 101,
                "duration": 0.0659091,
                "tempo": 120.0
            },
            {
                "start_time": 25.4636364,
                "end_time": 25.5295455,
                "pitch": 43,
                "velocity": 101,
                "duration": 0.0659091,
                "tempo": 120.0
            },
            {
                "start_time": 25.5636364,
                "end_time": 25.6295455,
                "pitch": 41,
                "velocity": 101,
                "duration": 0.0659091,
                "tempo": 120.0
            }
        ],
        "Electric Guitar (clean)": [
            {
                "start_time": 0.0159091,
                "end_time": 0.05,
                "pitch": 67,
                "velocity": 20,
                "duration": 0.0340909,
                "tempo": 120.0
            },
            {
                "start_time": 0.0840909,
                "end_time": 0.15,
                "pitch": 60,
                "velocity": 20,
                "duration": 0.0659091,
                "tempo": 120.0
            },
            {
                "start_time": 0.1840909,
                "end_time": 0.25,
                "pitch": 60,
                "velocity": 20,
                "duration": 0.0659091,
                "tempo": 120.0
            },
            {
                "start_time": 0.2840909,
                "end_time": 0.35,
                "pitch": 67,
                "velocity": 20,
                "duration": 0.0659091,
                "tempo": 120.0
            },
            {
                "start_time": 0.3840909,
                "end_time": 0.4477273,
                "pitch": 60,
                "velocity": 20,
                "duration": 0.0636364,
                "tempo": 120.0
            },
            {
                "start_time": 0.4818182,
                "end_time": 0.5477273,
                "pitch": 60,
                "velocity": 20,
                "duration": 0.0659091,
                "tempo": 120.0
            },
            {
                "start_time": 0.5795455,
                "end_time": 0.6454545,
                "pitch": 67,
                "velocity": 20,
                "duration": 0.0659091,
                "tempo": 120.0
            },
            {
                "start_time": 0.6772727,
                "end_time": 0.7431818,
                "pitch": 60,
                "velocity": 20,
                "duration": 0.0659091,
                "tempo": 120.0
            },
            {
                "start_time": 0.775,
                "end_time": 0.8431818,
                "pitch": 67,
                "velocity": 20,
                "duration": 0.0681818,
                "tempo": 120.0
            },
            {
                "start_time": 0.8772727,
                "end_time": 0.9454545,
                "pitch": 60,
                "velocity": 20,
                "duration": 0.0681818,
                "tempo": 120.0
            },
            {
                "start_time": 0.9795455,
                "end_time": 1.0477273,
                "pitch": 60,
                "velocity": 20,
                "duration": 0.0681818,
                "tempo": 120.0
            },
            {
                "start_time": 1.0818182,
                "end_time": 1.1522727,
                "pitch": 67,
                "velocity": 20,
                "duration": 0.0704545,
                "tempo": 120.0
            },
            {
                "start_time": 1.1863636,
                "end_time": 1.2522727,
                "pitch": 60,
                "velocity": 20,
                "duration": 0.0659091,
                "tempo": 120.0
            },
            {
                "start_time": 1.2840909,
                "end_time": 1.35,
                "pitch": 60,
                "velocity": 20,
                "duration": 0.0659091,
                "tempo": 120.0
            },
            {
                "start_time": 1.3818182,
                "end_time": 1.4477273,
                "pitch": 67,
                "velocity": 20,
                "duration": 0.0659091,
                "tempo": 120.0
            },
            {
                "start_time": 1.4795455,
                "end_time": 1.5454545,
                "pitch": 60,
                "velocity": 20,
                "duration": 0.0659091,
                "tempo": 120.0
            },
            {
                "start_time": 1.5772727,
                "end_time": 1.6454545,
                "pitch": 67,
                "velocity": 20,
                "duration": 0.0681818,
                "tempo": 120.0
            },
            {
                "start_time": 1.6795455,
                "end_time": 1.7454545,
                "pitch": 60,
                "velocity": 25,
                "duration": 0.0659091,
                "tempo": 120.0
            },
            {
                "start_time": 1.7795455,
                "end_time": 1.8454545,
                "pitch": 60,
                "velocity": 25,
                "duration": 0.0659091,
                "tempo": 120.0
            },
            {
                "start_time": 1.8795455,
                "end_time": 1.9477273,
                "pitch": 67,
                "velocity": 25,
                "duration": 0.0681818,
                "tempo": 120.0
            },
            {
                "start_time": 1.9795455,
                "end_time": 2.0477273,
                "pitch": 60,
                "velocity": 25,
                "duration": 0.0681818,
                "tempo": 120.0
            },
            {
                "start_time": 2.0818182,
                "end_time": 2.1477273,
                "pitch": 60,
                "velocity": 25,
                "duration": 0.0659091,
                "tempo": 120.0
            },
            {
                "start_time": 2.1818182,
                "end_time": 2.2477273,
                "pitch": 67,
                "velocity": 25,
                "duration": 0.0659091,
                "tempo": 120.0
            },
            {
                "start_time": 2.2818182,
                "end_time": 2.3477273,
                "pitch": 60,
                "velocity": 25,
                "duration": 0.0659091,
                "tempo": 120.0
            },
            {
                "start_time": 2.3818182,
                "end_time": 2.4477273,
                "pitch": 67,
                "velocity": 25,
                "duration": 0.0659091,
                "tempo": 120.0
            },
            {
                "start_time": 2.4818182,
                "end_time": 2.5477273,
                "pitch": 60,
                "velocity": 25,
                "duration": 0.0659091,
                "tempo": 120.0
            },
            {
                "start_time": 2.5818182,
                "end_time": 2.65,
                "pitch": 60,
                "velocity": 25,
                "duration": 0.0681818,
                "tempo": 120.0
            },
            {
                "start_time": 2.6818182,
                "end_time": 2.75,
                "pitch": 67,
                "velocity": 25,
                "duration": 0.0681818,
                "tempo": 120.0
            },
            {
                "start_time": 2.7840909,
                "end_time": 2.85,
                "pitch": 60,
                "velocity": 25,
                "duration": 0.0659091,
                "tempo": 120.0
            },
            {
                "start_time": 2.8840909,
                "end_time": 2.95,
                "pitch": 60,
                "velocity": 25,
                "duration": 0.0659091,
                "tempo": 120.0
            },
            {
                "start_time": 2.9840909,
                "end_time": 3.05,
                "pitch": 67,
                "velocity": 25,
                "duration": 0.0659091,
                "tempo": 120.0
            },
            {
                "start_time": 3.0840909,
                "end_time": 3.15,
                "pitch": 60,
                "velocity": 25,
                "duration": 0.0659091,
                "tempo": 120.0
            },
            {
                "start_time": 3.1840909,
                "end_time": 3.25,
                "pitch": 67,
                "velocity": 25,
                "duration": 0.0659091,
                "tempo": 120.0
            },
            {
                "start_time": 3.2840909,
                "end_time": 3.35,
                "pitch": 60,
                "velocity": 32,
                "duration": 0.0659091,
                "tempo": 120.0
            },
            {
                "start_time": 3.3840909,
                "end_time": 3.45,
                "pitch": 60,
                "velocity": 32,
                "duration": 0.0659091,
                "tempo": 120.0
            },
            {
                "start_time": 3.4840909,
                "end_time": 3.55,
                "pitch": 67,
                "velocity": 32,
                "duration": 0.0659091,
                "tempo": 120.0
            },
            {
                "start_time": 3.5840909,
                "end_time": 3.6522727,
                "pitch": 60,
                "velocity": 32,
                "duration": 0.0681818,
                "tempo": 120.0
            },
            {
                "start_time": 3.6863636,
                "end_time": 3.7545455,
                "pitch": 60,
                "velocity": 32,
                "duration": 0.0681818,
                "tempo": 120.0
            },
            {
                "start_time": 3.7886364,
                "end_time": 3.8568182,
                "pitch": 67,
                "velocity": 32,
                "duration": 0.0681818,
                "tempo": 120.0
            },
            {
                "start_time": 3.8909091,
                "end_time": 3.9590909,
                "pitch": 60,
                "velocity": 32,
                "duration": 0.0681818,
                "tempo": 120.0
            },
            {
                "start_time": 3.9931818,
                "end_time": 4.0590909,
                "pitch": 67,
                "velocity": 32,
                "duration": 0.0659091,
                "tempo": 120.0
            },
            {
                "start_time": 4.0931818,
                "end_time": 4.1568182,
                "pitch": 60,
                "velocity": 32,
                "duration": 0.0636364,
                "tempo": 120.0
            },
            {
                "start_time": 4.1909091,
                "end_time": 4.2545455,
                "pitch": 60,
                "velocity": 32,
                "duration": 0.0636364,
                "tempo": 120.0
            },
            {
                "start_time": 4.2886364,
                "end_time": 4.3545455,
                "pitch": 67,
                "velocity": 32,
                "duration": 0.0659091,
                "tempo": 120.0
            },
            {
                "start_time": 4.3863636,
                "end_time": 4.4522727,
                "pitch": 60,
                "velocity": 32,
                "duration": 0.0659091,
                "tempo": 120.0
            },
            {
                "start_time": 4.4863636,
                "end_time": 4.5522727,
                "pitch": 60,
                "velocity": 32,
                "duration": 0.0659091,
                "tempo": 120.0
            },
            {
                "start_time": 4.5863636,
                "end_time": 4.6522727,
                "pitch": 67,
                "velocity": 32,
                "duration": 0.0659091,
                "tempo": 120.0
            },
            {
                "start_time": 4.6863636,
                "end_time": 4.7522727,
                "pitch": 60,
                "velocity": 32,
                "duration": 0.0659091,
                "tempo": 120.0
            },
            {
                "start_time": 4.7863636,
                "end_time": 4.8522727,
                "pitch": 67,
                "velocity": 32,
                "duration": 0.0659091,
                "tempo": 120.0
            },
            {
                "start_time": 4.8863636,
                "end_time": 4.9545455,
                "pitch": 60,
                "velocity": 40,
                "duration": 0.0681818,
                "tempo": 120.0
            },
            {
                "start_time": 4.9886364,
                "end_time": 5.0545455,
                "pitch": 60,
                "velocity": 40,
                "duration": 0.0659091,
                "tempo": 120.0
            },
            {
                "start_time": 5.0886364,
                "end_time": 5.1545455,
                "pitch": 67,
                "velocity": 40,
                "duration": 0.0659091,
                "tempo": 120.0
            },
            {
                "start_time": 5.1886364,
                "end_time": 5.2568182,
                "pitch": 60,
                "velocity": 40,
                "duration": 0.0681818,
                "tempo": 120.0
            },
            {
                "start_time": 5.2886364,
                "end_time": 5.3568182,
                "pitch": 60,
                "velocity": 40,
                "duration": 0.0681818,
                "tempo": 120.0
            },
            {
                "start_time": 5.3909091,
                "end_time": 5.4568182,
                "pitch": 67,
                "velocity": 40,
                "duration": 0.0659091,
                "tempo": 120.0
            },
            {
                "start_time": 5.4909091,
                "end_time": 5.5590909,
                "pitch": 60,
                "velocity": 40,
                "duration": 0.0681818,
                "tempo": 120.0
            },
            {
                "start_time": 5.5909091,
                "end_time": 5.6568182,
                "pitch": 67,
                "velocity": 40,
                "duration": 0.0659091,
                "tempo": 120.0
            },
            {
                "start_time": 5.6886364,
                "end_time": 5.7545455,
                "pitch": 60,
                "velocity": 40,
                "duration": 0.0659091,
                "tempo": 120.0
            },
            {
                "start_time": 5.7886364,
                "end_time": 5.8522727,
                "pitch": 60,
                "velocity": 40,
                "duration": 0.0636364,
                "tempo": 120.0
            },
            {
                "start_time": 5.8863636,
                "end_time": 5.95,
                "pitch": 67,
                "velocity": 40,
                "duration": 0.0636364,
                "tempo": 120.0
            },
            {
                "start_time": 5.9840909,
                "end_time": 6.0522727,
                "pitch": 60,
                "velocity": 40,
                "duration": 0.0681818,
                "tempo": 120.0
            },
            {
                "start_time": 6.0863636,
                "end_time": 6.1545455,
                "pitch": 60,
                "velocity": 40,
                "duration": 0.0681818,
                "tempo": 120.0
            },
            {
                "start_time": 6.1886364,
                "end_time": 6.2568182,
                "pitch": 67,
                "velocity": 40,
                "duration": 0.0681818,
                "tempo": 120.0
            },
            {
                "start_time": 6.2909091,
                "end_time": 6.3590909,
                "pitch": 60,
                "velocity": 40,
                "duration": 0.0681818,
                "tempo": 120.0
            },
            {
                "start_time": 6.3931818,
                "end_time": 6.4590909,
                "pitch": 67,
                "velocity": 40,
                "duration": 0.0659091,
                "tempo": 120.0
            },
            {
                "start_time": 6.4931818,
                "end_time": 6.5568182,
                "pitch": 60,
                "velocity": 51,
                "duration": 0.0636364,
                "tempo": 120.0
            },
            {
                "start_time": 6.5909091,
                "end_time": 6.6545455,
                "pitch": 60,
                "velocity": 51,
                "duration": 0.0636364,
                "tempo": 120.0
            },
            {
                "start_time": 6.6886364,
                "end_time": 6.7545455,
                "pitch": 67,
                "velocity": 51,
                "duration": 0.0659091,
                "tempo": 120.0
            },
            {
                "start_time": 6.7863636,
                "end_time": 6.8545455,
                "pitch": 60,
                "velocity": 51,
                "duration": 0.0681818,
                "tempo": 120.0
            },
            {
                "start_time": 6.8886364,
                "end_time": 6.9568182,
                "pitch": 60,
                "velocity": 51,
                "duration": 0.0681818,
                "tempo": 120.0
            },
            {
                "start_time": 6.9909091,
                "end_time": 7.0590909,
                "pitch": 67,
                "velocity": 51,
                "duration": 0.0681818,
                "tempo": 120.0
            },
            {
                "start_time": 7.0931818,
                "end_time": 7.1636364,
                "pitch": 60,
                "velocity": 51,
                "duration": 0.0704545,
                "tempo": 120.0
            },
            {
                "start_time": 7.1977273,
                "end_time": 7.2636364,
                "pitch": 70,
                "velocity": 51,
                "duration": 0.0659091,
                "tempo": 120.0
            },
            {
                "start_time": 7.2977273,
                "end_time": 7.3659091,
                "pitch": 63,
                "velocity": 51,
                "duration": 0.0681818,
                "tempo": 120.0
            },
            {
                "start_time": 7.3977273,
                "end_time": 7.4659091,
                "pitch": 63,
                "velocity": 51,
                "duration": 0.0681818,
                "tempo": 120.0
            },
            {
                "start_time": 7.5,
                "end_time": 7.5659091,
                "pitch": 70,
                "velocity": 51,
                "duration": 0.0659091,
                "tempo": 120.0
            },
            {
                "start_time": 7.6,
                "end_time": 7.6659091,
                "pitch": 63,
                "velocity": 51,
                "duration": 0.0659091,
                "tempo": 120.0
            },
            {
                "start_time": 7.6977273,
                "end_time": 7.7636364,
                "pitch": 63,
                "velocity": 51,
                "duration": 0.0659091,
                "tempo": 120.0
            },
            {
                "start_time": 7.7954545,
                "end_time": 7.8613636,
                "pitch": 70,
                "velocity": 51,
                "duration": 0.0659091,
                "tempo": 120.0
            },
            {
                "start_time": 7.8931818,
                "end_time": 7.9590909,
                "pitch": 63,
                "velocity": 51,
                "duration": 0.0659091,
                "tempo": 120.0
            },
            {
                "start_time": 7.9909091,
                "end_time": 8.0590909,
                "pitch": 69,
                "velocity": 51,
                "duration": 0.0681818,
                "tempo": 120.0
            },
            {
                "start_time": 8.0931818,
                "end_time": 8.1636364,
                "pitch": 65,
                "velocity": 51,
                "duration": 0.0704545,
                "tempo": 120.0
            },
            {
                "start_time": 8.1977273,
                "end_time": 8.2659091,
                "pitch": 65,
                "velocity": 51,
                "duration": 0.0681818,
                "tempo": 120.0
            },
            {
                "start_time": 8.3,
                "end_time": 8.3681818,
                "pitch": 69,
                "velocity": 51,
                "duration": 0.0681818,
                "tempo": 120.0
            },
            {
                "start_time": 8.4022727,
                "end_time": 8.4704545,
                "pitch": 65,
                "velocity": 51,
                "duration": 0.0681818,
                "tempo": 120.0
            },
            {
                "start_time": 8.5022727,
                "end_time": 8.5704545,
                "pitch": 65,
                "velocity": 51,
                "duration": 0.0681818,
                "tempo": 120.0
            },
            {
                "start_time": 8.6045455,
                "end_time": 8.6704545,
                "pitch": 69,
                "velocity": 51,
                "duration": 0.0659091,
                "tempo": 120.0
            },
            {
                "start_time": 8.7045455,
                "end_time": 8.7727273,
                "pitch": 65,
                "velocity": 51,
                "duration": 0.0681818,
                "tempo": 120.0
            },
            {
                "start_time": 8.8045455,
                "end_time": 8.8704545,
                "pitch": 72,
                "velocity": 51,
                "duration": 0.0659091,
                "tempo": 120.0
            },
            {
                "start_time": 8.9022727,
                "end_time": 8.9681818,
                "pitch": 65,
                "velocity": 51,
                "duration": 0.0659091,
                "tempo": 120.0
            },
            {
                "start_time": 9.0022727,
                "end_time": 9.0659091,
                "pitch": 65,
                "velocity": 51,
                "duration": 0.0636364,
                "tempo": 120.0
            },
            {
                "start_time": 9.1,
                "end_time": 9.1636364,
                "pitch": 72,
                "velocity": 51,
                "duration": 0.0636364,
                "tempo": 120.0
            },
            {
                "start_time": 9.1977273,
                "end_time": 9.2659091,
                "pitch": 65,
                "velocity": 51,
                "duration": 0.0681818,
                "tempo": 120.0
            },
            {
                "start_time": 9.3,
                "end_time": 9.3681818,
                "pitch": 65,
                "velocity": 51,
                "duration": 0.0681818,
                "tempo": 120.0
            },
            {
                "start_time": 9.4022727,
                "end_time": 9.4704545,
                "pitch": 72,
                "velocity": 51,
                "duration": 0.0681818,
                "tempo": 120.0
            },
            {
                "start_time": 9.5045455,
                "end_time": 9.5727273,
                "pitch": 65,
                "velocity": 51,
                "duration": 0.0681818,
                "tempo": 120.0
            },
            {
                "start_time": 9.6090909,
                "end_time": 9.675,
                "pitch": 67,
                "velocity": 51,
                "duration": 0.0659091,
                "tempo": 120.0
            },
            {
                "start_time": 9.7090909,
                "end_time": 9.775,
                "pitch": 60,
                "velocity": 51,
                "duration": 0.0659091,
                "tempo": 120.0
            },
            {
                "start_time": 9.8090909,
                "end_time": 9.8772727,
                "pitch": 60,
                "velocity": 51,
                "duration": 0.0681818,
                "tempo": 120.0
            },
            {
                "start_time": 9.9090909,
                "end_time": 9.9772727,
                "pitch": 67,
                "velocity": 51,
                "duration": 0.0681818,
                "tempo": 120.0
            },
            {
                "start_time": 10.0113636,
                "end_time": 10.0772727,
                "pitch": 60,
                "velocity": 51,
                "duration": 0.0659091,
                "tempo": 120.0
            },
            {
                "start_time": 10.1113636,
                "end_time": 10.1795455,
                "pitch": 60,
                "velocity": 51,
                "duration": 0.0681818,
                "tempo": 120.0
            },
            {
                "start_time": 10.2113636,
                "end_time": 10.2795455,
                "pitch": 67,
                "velocity": 51,
                "duration": 0.0681818,
                "tempo": 120.0
            },
            {
                "start_time": 10.3136364,
                "end_time": 10.3795455,
                "pitch": 60,
                "velocity": 51,
                "duration": 0.0659091,
                "tempo": 120.0
            },
            {
                "start_time": 10.4136364,
                "end_time": 10.4795455,
                "pitch": 70,
                "velocity": 51,
                "duration": 0.0659091,
                "tempo": 120.0
            },
            {
                "start_time": 10.5136364,
                "end_time": 10.5818182,
                "pitch": 63,
                "velocity": 51,
                "duration": 0.0681818,
                "tempo": 120.0
            },
            {
                "start_time": 10.6159091,
                "end_time": 10.6818182,
                "pitch": 63,
                "velocity": 51,
                "duration": 0.0659091,
                "tempo": 120.0
            },
            {
                "start_time": 10.7159091,
                "end_time": 10.7818182,
                "pitch": 70,
                "velocity": 51,
                "duration": 0.0659091,
                "tempo": 120.0
            },
            {
                "start_time": 10.8159091,
                "end_time": 10.8818182,
                "pitch": 63,
                "velocity": 51,
                "duration": 0.0659091,
                "tempo": 120.0
            },
            {
                "start_time": 10.9136364,
                "end_time": 10.9795455,
                "pitch": 63,
                "velocity": 51,
                "duration": 0.0659091,
                "tempo": 120.0
            },
            {
                "start_time": 11.0113636,
                "end_time": 11.0772727,
                "pitch": 70,
                "velocity": 51,
                "duration": 0.0659091,
                "tempo": 120.0
            },
            {
                "start_time": 11.1090909,
                "end_time": 11.175,
                "pitch": 63,
                "velocity": 51,
                "duration": 0.0659091,
                "tempo": 120.0
            },
            {
                "start_time": 11.2090909,
                "end_time": 11.2772727,
                "pitch": 69,
                "velocity": 51,
                "duration": 0.0681818,
                "tempo": 120.0
            },
            {
                "start_time": 11.3113636,
                "end_time": 11.3795455,
                "pitch": 65,
                "velocity": 51,
                "duration": 0.0681818,
                "tempo": 120.0
            },
            {
                "start_time": 11.4136364,
                "end_time": 11.4818182,
                "pitch": 65,
                "velocity": 51,
                "duration": 0.0681818,
                "tempo": 120.0
            },
            {
                "start_time": 11.5159091,
                "end_time": 11.5840909,
                "pitch": 69,
                "velocity": 51,
                "duration": 0.0681818,
                "tempo": 120.0
            },
            {
                "start_time": 11.6181818,
                "end_time": 11.6863636,
                "pitch": 65,
                "velocity": 51,
                "duration": 0.0681818,
                "tempo": 120.0
            },
            {
                "start_time": 11.7204545,
                "end_time": 11.7863636,
                "pitch": 65,
                "velocity": 51,
                "duration": 0.0659091,
                "tempo": 120.0
            },
            {
                "start_time": 11.8204545,
                "end_time": 11.8863636,
                "pitch": 69,
                "velocity": 51,
                "duration": 0.0659091,
                "tempo": 120.0
            },
            {
                "start_time": 11.9204545,
                "end_time": 11.9886364,
                "pitch": 65,
                "velocity": 51,
                "duration": 0.0681818,
                "tempo": 120.0
            },
            {
                "start_time": 12.0227273,
                "end_time": 12.0863636,
                "pitch": 72,
                "velocity": 51,
                "duration": 0.0636364,
                "tempo": 120.0
            },
            {
                "start_time": 12.1204545,
                "end_time": 12.1840909,
                "pitch": 65,
                "velocity": 51,
                "duration": 0.0636364,
                "tempo": 120.0
            },
            {
                "start_time": 12.2181818,
                "end_time": 12.2840909,
                "pitch": 65,
                "velocity": 51,
                "duration": 0.0659091,
                "tempo": 120.0
            },
            {
                "start_time": 12.3159091,
                "end_time": 12.3818182,
                "pitch": 72,
                "velocity": 51,
                "duration": 0.0659091,
                "tempo": 120.0
            },
            {
                "start_time": 12.4136364,
                "end_time": 12.4818182,
                "pitch": 65,
                "velocity": 51,
                "duration": 0.0681818,
                "tempo": 120.0
            },
            {
                "start_time": 12.5159091,
                "end_time": 12.5840909,
                "pitch": 65,
                "velocity": 51,
                "duration": 0.0681818,
                "tempo": 120.0
            },
            {
                "start_time": 12.6181818,
                "end_time": 12.6863636,
                "pitch": 72,
                "velocity": 51,
                "duration": 0.0681818,
                "tempo": 120.0
            },
            {
                "start_time": 12.7227273,
                "end_time": 12.7909091,
                "pitch": 65,
                "velocity": 51,
                "duration": 0.0681818,
                "tempo": 120.0
            },
            {
                "start_time": 12.825,
                "end_time": 12.8909091,
                "pitch": 67,
                "velocity": 51,
                "duration": 0.0659091,
                "tempo": 120.0
            },
            {
                "start_time": 12.925,
                "end_time": 12.9909091,
                "pitch": 60,
                "velocity": 51,
                "duration": 0.0659091,
                "tempo": 120.0
            },
            {
                "start_time": 13.025,
                "end_time": 13.0909091,
                "pitch": 60,
                "velocity": 51,
                "duration": 0.0659091,
                "tempo": 120.0
            },
            {
                "start_time": 13.125,
                "end_time": 13.1909091,
                "pitch": 67,
                "velocity": 51,
                "duration": 0.0659091,
                "tempo": 120.0
            },
            {
                "start_time": 13.225,
                "end_time": 13.2909091,
                "pitch": 60,
                "velocity": 51,
                "duration": 0.0659091,
                "tempo": 120.0
            },
            {
                "start_time": 13.325,
                "end_time": 13.3931818,
                "pitch": 60,
                "velocity": 51,
                "duration": 0.0681818,
                "tempo": 120.0
            },
            {
                "start_time": 13.425,
                "end_time": 13.4931818,
                "pitch": 67,
                "velocity": 51,
                "duration": 0.0681818,
                "tempo": 120.0
            },
            {
                "start_time": 13.5272727,
                "end_time": 13.5931818,
                "pitch": 60,
                "velocity": 51,
                "duration": 0.0659091,
                "tempo": 120.0
            },
            {
                "start_time": 13.6272727,
                "end_time": 13.6954545,
                "pitch": 70,
                "velocity": 51,
                "duration": 0.0681818,
                "tempo": 120.0
            },
            {
                "start_time": 13.7272727,
                "end_time": 13.7954545,
                "pitch": 63,
                "velocity": 51,
                "duration": 0.0681818,
                "tempo": 120.0
            },
            {
                "start_time": 13.8295455,
                "end_time": 13.8954545,
                "pitch": 63,
                "velocity": 51,
                "duration": 0.0659091,
                "tempo": 120.0
            },
            {
                "start_time": 13.9295455,
                "end_time": 13.9954545,
                "pitch": 70,
                "velocity": 51,
                "duration": 0.0659091,
                "tempo": 120.0
            },
            {
                "start_time": 14.0295455,
                "end_time": 14.0977273,
                "pitch": 63,
                "velocity": 51,
                "duration": 0.0681818,
                "tempo": 120.0
            },
            {
                "start_time": 14.1295455,
                "end_time": 14.1977273,
                "pitch": 63,
                "velocity": 51,
                "duration": 0.0681818,
                "tempo": 120.0
            },
            {
                "start_time": 14.2318182,
                "end_time": 14.2977273,
                "pitch": 70,
                "velocity": 51,
                "duration": 0.0659091,
                "tempo": 120.0
            },
            {
                "start_time": 14.3318182,
                "end_time": 14.4,
                "pitch": 63,
                "velocity": 51,
                "duration": 0.0681818,
                "tempo": 120.0
            },
            {
                "start_time": 14.4318182,
                "end_time": 14.5,
                "pitch": 69,
                "velocity": 51,
                "duration": 0.0681818,
                "tempo": 120.0
            },
            {
                "start_time": 14.5340909,
                "end_time": 14.6,
                "pitch": 65,
                "velocity": 51,
                "duration": 0.0659091,
                "tempo": 120.0
            },
            {
                "start_time": 14.6340909,
                "end_time": 14.7,
                "pitch": 65,
                "velocity": 51,
                "duration": 0.0659091,
                "tempo": 120.0
            },
            {
                "start_time": 14.7340909,
                "end_time": 14.8022727,
                "pitch": 69,
                "velocity": 51,
                "duration": 0.0681818,
                "tempo": 120.0
            },
            {
                "start_time": 14.8340909,
                "end_time": 14.9,
                "pitch": 65,
                "velocity": 51,
                "duration": 0.0659091,
                "tempo": 120.0
            },
            {
                "start_time": 14.9340909,
                "end_time": 14.9977273,
                "pitch": 65,
                "velocity": 51,
                "duration": 0.0636364,
                "tempo": 120.0
            },
            {
                "start_time": 15.0318182,
                "end_time": 15.0977273,
                "pitch": 69,
                "velocity": 51,
                "duration": 0.0659091,
                "tempo": 120.0
            },
            {
                "start_time": 15.1295455,
                "end_time": 15.1954545,
                "pitch": 65,
                "velocity": 51,
                "duration": 0.0659091,
                "tempo": 120.0
            },
            {
                "start_time": 15.2272727,
                "end_time": 15.2954545,
                "pitch": 72,
                "velocity": 51,
                "duration": 0.0681818,
                "tempo": 120.0
            },
            {
                "start_time": 15.3272727,
                "end_time": 15.3954545,
                "pitch": 65,
                "velocity": 51,
                "duration": 0.0681818,
                "tempo": 120.0
            },
            {
                "start_time": 15.4295455,
                "end_time": 15.4954545,
                "pitch": 65,
                "velocity": 51,
                "duration": 0.0659091,
                "tempo": 120.0
            },
            {
                "start_time": 15.5295455,
                "end_time": 15.5954545,
                "pitch": 72,
                "velocity": 51,
                "duration": 0.0659091,
                "tempo": 120.0
            },
            {
                "start_time": 15.6295455,
                "end_time": 15.6977273,
                "pitch": 65,
                "velocity": 51,
                "duration": 0.0681818,
                "tempo": 120.0
            },
            {
                "start_time": 15.7318182,
                "end_time": 15.8022727,
                "pitch": 65,
                "velocity": 51,
                "duration": 0.0704545,
                "tempo": 120.0
            },
            {
                "start_time": 15.8363636,
                "end_time": 15.9045455,
                "pitch": 72,
                "velocity": 51,
                "duration": 0.0681818,
                "tempo": 120.0
            },
            {
                "start_time": 15.9386364,
                "end_time": 16.0068182,
                "pitch": 65,
                "velocity": 51,
                "duration": 0.0681818,
                "tempo": 120.0
            },
            {
                "start_time": 16.0409091,
                "end_time": 16.1090909,
                "pitch": 67,
                "velocity": 51,
                "duration": 0.0681818,
                "tempo": 120.0
            },
            {
                "start_time": 16.1409091,
                "end_time": 16.2090909,
                "pitch": 60,
                "velocity": 51,
                "duration": 0.0681818,
                "tempo": 120.0
            },
            {
                "start_time": 16.2431818,
                "end_time": 16.3090909,
                "pitch": 60,
                "velocity": 51,
                "duration": 0.0659091,
                "tempo": 120.0
            },
            {
                "start_time": 16.3431818,
                "end_time": 16.4090909,
                "pitch": 67,
                "velocity": 51,
                "duration": 0.0659091,
                "tempo": 120.0
            },
            {
                "start_time": 16.4431818,
                "end_time": 16.5113636,
                "pitch": 60,
                "velocity": 51,
                "duration": 0.0681818,
                "tempo": 120.0
            },
            {
                "start_time": 16.5454545,
                "end_time": 16.6113636,
                "pitch": 60,
                "velocity": 51,
                "duration": 0.0659091,
                "tempo": 120.0
            },
            {
                "start_time": 16.6454545,
                "end_time": 16.7113636,
                "pitch": 67,
                "velocity": 51,
                "duration": 0.0659091,
                "tempo": 120.0
            },
            {
                "start_time": 16.7454545,
                "end_time": 16.8136364,
                "pitch": 60,
                "velocity": 51,
                "duration": 0.0681818,
                "tempo": 120.0
            },
            {
                "start_time": 16.8454545,
                "end_time": 16.9136364,
                "pitch": 70,
                "velocity": 51,
                "duration": 0.0681818,
                "tempo": 120.0
            },
            {
                "start_time": 16.9454545,
                "end_time": 17.0136364,
                "pitch": 63,
                "velocity": 51,
                "duration": 0.0681818,
                "tempo": 120.0
            },
            {
                "start_time": 17.0454545,
                "end_time": 17.1136364,
                "pitch": 63,
                "velocity": 51,
                "duration": 0.0681818,
                "tempo": 120.0
            },
            {
                "start_time": 17.1454545,
                "end_time": 17.2136364,
                "pitch": 70,
                "velocity": 51,
                "duration": 0.0681818,
                "tempo": 120.0
            },
            {
                "start_time": 17.2454545,
                "end_time": 17.3136364,
                "pitch": 63,
                "velocity": 51,
                "duration": 0.0681818,
                "tempo": 120.0
            },
            {
                "start_time": 17.3477273,
                "end_time": 17.4136364,
                "pitch": 63,
                "velocity": 51,
                "duration": 0.0659091,
                "tempo": 120.0
            },
            {
                "start_time": 17.4477273,
                "end_time": 17.5159091,
                "pitch": 70,
                "velocity": 51,
                "duration": 0.0681818,
                "tempo": 120.0
            },
            {
                "start_time": 17.5477273,
                "end_time": 17.6159091,
                "pitch": 63,
                "velocity": 51,
                "duration": 0.0681818,
                "tempo": 120.0
            },
            {
                "start_time": 17.65,
                "end_time": 17.7159091,
                "pitch": 69,
                "velocity": 51,
                "duration": 0.0659091,
                "tempo": 120.0
            },
            {
                "start_time": 17.75,
                "end_time": 17.8159091,
                "pitch": 65,
                "velocity": 51,
                "duration": 0.0659091,
                "tempo": 120.0
            },
            {
                "start_time": 17.85,
                "end_time": 17.9159091,
                "pitch": 65,
                "velocity": 51,
                "duration": 0.0659091,
                "tempo": 120.0
            },
            {
                "start_time": 17.95,
                "end_time": 18.0159091,
                "pitch": 69,
                "velocity": 51,
                "duration": 0.0659091,
                "tempo": 120.0
            },
            {
                "start_time": 18.05,
                "end_time": 18.1159091,
                "pitch": 65,
                "velocity": 51,
                "duration": 0.0659091,
                "tempo": 120.0
            },
            {
                "start_time": 18.15,
                "end_time": 18.2159091,
                "pitch": 65,
                "velocity": 51,
                "duration": 0.0659091,
                "tempo": 120.0
            },
            {
                "start_time": 18.25,
                "end_time": 18.3159091,
                "pitch": 69,
                "velocity": 51,
                "duration": 0.0659091,
                "tempo": 120.0
            },
            {
                "start_time": 18.35,
                "end_time": 18.4159091,
                "pitch": 65,
                "velocity": 51,
                "duration": 0.0659091,
                "tempo": 120.0
            },
            {
                "start_time": 18.45,
                "end_time": 18.5136364,
                "pitch": 72,
                "velocity": 51,
                "duration": 0.0636364,
                "tempo": 120.0
            },
            {
                "start_time": 18.5477273,
                "end_time": 18.6136364,
                "pitch": 65,
                "velocity": 51,
                "duration": 0.0659091,
                "tempo": 120.0
            },
            {
                "start_time": 18.6454545,
                "end_time": 18.7113636,
                "pitch": 65,
                "velocity": 51,
                "duration": 0.0659091,
                "tempo": 120.0
            },
            {
                "start_time": 18.7431818,
                "end_time": 18.8090909,
                "pitch": 72,
                "velocity": 51,
                "duration": 0.0659091,
                "tempo": 120.0
            },
            {
                "start_time": 18.8409091,
                "end_time": 18.9090909,
                "pitch": 65,
                "velocity": 51,
                "duration": 0.0681818,
                "tempo": 120.0
            },
            {
                "start_time": 18.9431818,
                "end_time": 19.0090909,
                "pitch": 65,
                "velocity": 51,
                "duration": 0.0659091,
                "tempo": 120.0
            },
            {
                "start_time": 19.0431818,
                "end_time": 19.1090909,
                "pitch": 72,
                "velocity": 51,
                "duration": 0.0659091,
                "tempo": 120.0
            },
            {
                "start_time": 19.1431818,
                "end_time": 19.2113636,
                "pitch": 65,
                "velocity": 51,
                "duration": 0.0681818,
                "tempo": 120.0
            },
            {
                "start_time": 19.2431818,
                "end_time": 19.3113636,
                "pitch": 67,
                "velocity": 51,
                "duration": 0.0681818,
                "tempo": 120.0
            },
            {
                "start_time": 19.3477273,
                "end_time": 19.4159091,
                "pitch": 60,
                "velocity": 51,
                "duration": 0.0681818,
                "tempo": 120.0
            },
            {
                "start_time": 19.45,
                "end_time": 19.5181818,
                "pitch": 60,
                "velocity": 51,
                "duration": 0.0681818,
                "tempo": 120.0
            },
            {
                "start_time": 19.5522727,
                "end_time": 19.6204545,
                "pitch": 67,
                "velocity": 51,
                "duration": 0.0681818,
                "tempo": 120.0
            },
            {
                "start_time": 19.6545455,
                "end_time": 19.7204545,
                "pitch": 60,
                "velocity": 51,
                "duration": 0.0659091,
                "tempo": 120.0
            },
            {
                "start_time": 19.7522727,
                "end_time": 19.8181818,
                "pitch": 60,
                "velocity": 51,
                "duration": 0.0659091,
                "tempo": 120.0
            },
            {
                "start_time": 19.85,
                "end_time": 19.9159091,
                "pitch": 67,
                "velocity": 51,
                "duration": 0.0659091,
                "tempo": 120.0
            },
            {
                "start_time": 19.9477273,
                "end_time": 20.0136364,
                "pitch": 60,
                "velocity": 51,
                "duration": 0.0659091,
                "tempo": 120.0
            },
            {
                "start_time": 20.0477273,
                "end_time": 20.1136364,
                "pitch": 67,
                "velocity": 51,
                "duration": 0.0659091,
                "tempo": 120.0
            },
            {
                "start_time": 20.1477273,
                "end_time": 20.2136364,
                "pitch": 60,
                "velocity": 51,
                "duration": 0.0659091,
                "tempo": 120.0
            },
            {
                "start_time": 20.2477273,
                "end_time": 20.3159091,
                "pitch": 60,
                "velocity": 51,
                "duration": 0.0681818,
                "tempo": 120.0
            },
            {
                "start_time": 20.35,
                "end_time": 20.4159091,
                "pitch": 67,
                "velocity": 51,
                "duration": 0.0659091,
                "tempo": 120.0
            },
            {
                "start_time": 20.45,
                "end_time": 20.5159091,
                "pitch": 60,
                "velocity": 51,
                "duration": 0.0659091,
                "tempo": 120.0
            },
            {
                "start_time": 20.55,
                "end_time": 20.6159091,
                "pitch": 60,
                "velocity": 51,
                "duration": 0.0659091,
                "tempo": 120.0
            },
            {
                "start_time": 20.65,
                "end_time": 20.7159091,
                "pitch": 67,
                "velocity": 51,
                "duration": 0.0659091,
                "tempo": 120.0
            },
            {
                "start_time": 20.75,
                "end_time": 20.8159091,
                "pitch": 60,
                "velocity": 51,
                "duration": 0.0659091,
                "tempo": 120.0
            },
            {
                "start_time": 20.85,
                "end_time": 20.9159091,
                "pitch": 67,
                "velocity": 51,
                "duration": 0.0659091,
                "tempo": 120.0
            },
            {
                "start_time": 20.95,
                "end_time": 21.0181818,
                "pitch": 60,
                "velocity": 51,
                "duration": 0.0681818,
                "tempo": 120.0
            },
            {
                "start_time": 21.05,
                "end_time": 21.1181818,
                "pitch": 60,
                "velocity": 51,
                "duration": 0.0681818,
                "tempo": 120.0
            },
            {
                "start_time": 21.1522727,
                "end_time": 21.2181818,
                "pitch": 67,
                "velocity": 51,
                "duration": 0.0659091,
                "tempo": 120.0
            },
            {
                "start_time": 21.2522727,
                "end_time": 21.3181818,
                "pitch": 60,
                "velocity": 51,
                "duration": 0.0659091,
                "tempo": 120.0
            },
            {
                "start_time": 21.3522727,
                "end_time": 21.4181818,
                "pitch": 60,
                "velocity": 51,
                "duration": 0.0659091,
                "tempo": 120.0
            },
            {
                "start_time": 21.4522727,
                "end_time": 21.5181818,
                "pitch": 67,
                "velocity": 51,
                "duration": 0.0659091,
                "tempo": 120.0
            },
            {
                "start_time": 21.5522727,
                "end_time": 21.6181818,
                "pitch": 60,
                "velocity": 51,
                "duration": 0.0659091,
                "tempo": 120.0
            },
            {
                "start_time": 21.6522727,
                "end_time": 21.7181818,
                "pitch": 67,
                "velocity": 51,
                "duration": 0.0659091,
                "tempo": 120.0
            },
            {
                "start_time": 21.7522727,
                "end_time": 21.8181818,
                "pitch": 60,
                "velocity": 51,
                "duration": 0.0659091,
                "tempo": 120.0
            },
            {
                "start_time": 21.8522727,
                "end_time": 21.9181818,
                "pitch": 60,
                "velocity": 51,
                "duration": 0.0659091,
                "tempo": 120.0
            },
            {
                "start_time": 21.9522727,
                "end_time": 22.0181818,
                "pitch": 67,
                "velocity": 51,
                "duration": 0.0659091,
                "tempo": 120.0
            },
            {
                "start_time": 22.0522727,
                "end_time": 22.1204545,
                "pitch": 60,
                "velocity": 51,
                "duration": 0.0681818,
                "tempo": 120.0
            },
            {
                "start_time": 22.1522727,
                "end_time": 22.2204545,
                "pitch": 60,
                "velocity": 51,
                "duration": 0.0681818,
                "tempo": 120.0
            },
            {
                "start_time": 22.2545455,
                "end_time": 22.3204545,
                "pitch": 67,
                "velocity": 51,
                "duration": 0.0659091,
                "tempo": 120.0
            },
            {
                "start_time": 22.3545455,
                "end_time": 22.4204545,
                "pitch": 60,
                "velocity": 51,
                "duration": 0.0659091,
                "tempo": 120.0
            },
            {
                "start_time": 22.4545455,
                "end_time": 22.5227273,
                "pitch": 67,
                "velocity": 51,
                "duration": 0.0681818,
                "tempo": 120.0
            },
            {
                "start_time": 22.5545455,
                "end_time": 22.6227273,
                "pitch": 60,
                "velocity": 51,
                "duration": 0.0681818,
                "tempo": 120.0
            },
            {
                "start_time": 22.6545455,
                "end_time": 22.7227273,
                "pitch": 60,
                "velocity": 51,
                "duration": 0.0681818,
                "tempo": 120.0
            },
            {
                "start_time": 22.7545455,
                "end_time": 22.8227273,
                "pitch": 67,
                "velocity": 51,
                "duration": 0.0681818,
                "tempo": 120.0
            },
            {
                "start_time": 22.8545455,
                "end_time": 22.9227273,
                "pitch": 60,
                "velocity": 51,
                "duration": 0.0681818,
                "tempo": 120.0
            },
            {
                "start_time": 22.9568182,
                "end_time": 23.0227273,
                "pitch": 60,
                "velocity": 51,
                "duration": 0.0659091,
                "tempo": 120.0
            },
            {
                "start_time": 23.0568182,
                "end_time": 23.1227273,
                "pitch": 67,
                "velocity": 51,
                "duration": 0.0659091,
                "tempo": 120.0
            },
            {
                "start_time": 23.1568182,
                "end_time": 23.225,
                "pitch": 60,
                "velocity": 51,
                "duration": 0.0681818,
                "tempo": 120.0
            },
            {
                "start_time": 23.2568182,
                "end_time": 23.325,
                "pitch": 67,
                "velocity": 51,
                "duration": 0.0681818,
                "tempo": 120.0
            },
            {
                "start_time": 23.3568182,
                "end_time": 23.425,
                "pitch": 60,
                "velocity": 51,
                "duration": 0.0681818,
                "tempo": 120.0
            },
            {
                "start_time": 23.4568182,
                "end_time": 23.525,
                "pitch": 60,
                "velocity": 51,
                "duration": 0.0681818,
                "tempo": 120.0
            },
            {
                "start_time": 23.5568182,
                "end_time": 23.625,
                "pitch": 67,
                "velocity": 51,
                "duration": 0.0681818,
                "tempo": 120.0
            },
            {
                "start_time": 23.6568182,
                "end_time": 23.725,
                "pitch": 60,
                "velocity": 51,
                "duration": 0.0681818,
                "tempo": 120.0
            },
            {
                "start_time": 23.7568182,
                "end_time": 23.825,
                "pitch": 60,
                "velocity": 51,
                "duration": 0.0681818,
                "tempo": 120.0
            },
            {
                "start_time": 23.8568182,
                "end_time": 23.925,
                "pitch": 67,
                "velocity": 51,
                "duration": 0.0681818,
                "tempo": 120.0
            },
            {
                "start_time": 23.9568182,
                "end_time": 24.025,
                "pitch": 60,
                "velocity": 51,
                "duration": 0.0681818,
                "tempo": 120.0
            },
            {
                "start_time": 24.0568182,
                "end_time": 24.125,
                "pitch": 67,
                "velocity": 51,
                "duration": 0.0681818,
                "tempo": 120.0
            },
            {
                "start_time": 24.1590909,
                "end_time": 24.225,
                "pitch": 60,
                "velocity": 51,
                "duration": 0.0659091,
                "tempo": 120.0
            },
            {
                "start_time": 24.2590909,
                "end_time": 24.3272727,
                "pitch": 60,
                "velocity": 51,
                "duration": 0.0681818,
                "tempo": 120.0
            },
            {
                "start_time": 24.3590909,
                "end_time": 24.4272727,
                "pitch": 67,
                "velocity": 51,
                "duration": 0.0681818,
                "tempo": 120.0
            },
            {
                "start_time": 24.4613636,
                "end_time": 24.5272727,
                "pitch": 60,
                "velocity": 51,
                "duration": 0.0659091,
                "tempo": 120.0
            },
            {
                "start_time": 24.5613636,
                "end_time": 24.6272727,
                "pitch": 60,
                "velocity": 51,
                "duration": 0.0659091,
                "tempo": 120.0
            },
            {
                "start_time": 24.6613636,
                "end_time": 24.7272727,
                "pitch": 67,
                "velocity": 51,
                "duration": 0.0659091,
                "tempo": 120.0
            },
            {
                "start_time": 24.7613636,
                "end_time": 24.8272727,
                "pitch": 60,
                "velocity": 51,
                "duration": 0.0659091,
                "tempo": 120.0
            },
            {
                "start_time": 24.8613636,
                "end_time": 24.9272727,
                "pitch": 67,
                "velocity": 51,
                "duration": 0.0659091,
                "tempo": 120.0
            },
            {
                "start_time": 24.9613636,
                "end_time": 25.0272727,
                "pitch": 60,
                "velocity": 51,
                "duration": 0.0659091,
                "tempo": 120.0
            },
            {
                "start_time": 25.0613636,
                "end_time": 25.1295455,
                "pitch": 60,
                "velocity": 51,
                "duration": 0.0681818,
                "tempo": 120.0
            },
            {
                "start_time": 25.1613636,
                "end_time": 25.2295455,
                "pitch": 67,
                "velocity": 51,
                "duration": 0.0681818,
                "tempo": 120.0
            },
            {
                "start_time": 25.2636364,
                "end_time": 25.3295455,
                "pitch": 60,
                "velocity": 51,
                "duration": 0.0659091,
                "tempo": 120.0
            },
            {
                "start_time": 25.3636364,
                "end_time": 25.4295455,
                "pitch": 60,
                "velocity": 51,
                "duration": 0.0659091,
                "tempo": 120.0
            },
            {
                "start_time": 25.4636364,
                "end_time": 25.5295455,
                "pitch": 67,
                "velocity": 51,
                "duration": 0.0659091,
                "tempo": 120.0
            },
            {
                "start_time": 25.5636364,
                "end_time": 25.6295455,
                "pitch": 60,
                "velocity": 51,
                "duration": 0.0659091,
                "tempo": 120.0
            }
        ]
    }
}