{
    "mood": "angry",
    "instruments": {
        "Clarinet": [
            {
                "start_time": 0.0136364,
                "end_time": 0.0431818,
                "pitch": 55,
                "velocity": 51,
                "duration": 0.0295455,
                "tempo": 120.0
            },
            {
                "start_time": 0.0590909,
                "end_time": 0.1477273,
                "pitch": 55,
                "velocity": 51,
                "duration": 0.0886364,
                "tempo": 120.0
            },
            {
                "start_time": 0.1613636,
                "end_time": 0.2363636,
                "pitch": 48,
                "velocity": 51,
                "duration": 0.075,
                "tempo": 120.0
            },
            {
                "start_time": 0.2522727,
                "end_time": 0.3409091,
                "pitch": 48,
                "velocity": 51,
                "duration": 0.0886364,
                "tempo": 120.0
            },
            {
                "start_time": 0.3545455,
                "end_time": 0.8204545,
                "pitch": 55,
                "velocity": 51,
                "duration": 0.4659091,
                "tempo": 120.0
            },
            {
                "start_time": 0.8204545,
                "end_time": 1.8045455,
                "pitch": 55,
                "velocity": 51,
                "duration": 0.9840909,
                "tempo": 120.0
            },
            {
                "start_time": 1.8227273,
                "end_time": 2.7090909,
                "pitch": 58,
                "velocity": 51,
                "duration": 0.8863636,
                "tempo": 120.0
            },
            {
                "start_time": 2.725,
                "end_time": 3.1590909,
                "pitch": 48,
                "velocity": 51,
                "duration": 0.4340909,
                "tempo": 120.0
            },
            {
                "start_time": 3.175,
                "end_time": 3.6113636,
                "pitch": 53,
                "velocity": 51,
                "duration": 0.4363636,
                "tempo": 120.0
            },
            {
                "start_time": 3.6272727,
                "end_time": 3.7272727,
                "pitch": 55,
                "velocity": 51,
                "duration": 0.1,
                "tempo": 120.0
            },
            {
                "start_time": 3.7431818,
                "end_time": 3.8272727,
                "pitch": 48,
                "velocity": 51,
                "duration": 0.0840909,
                "tempo": 120.0
            },
            {
                "start_time": 3.8454545,
                "end_time": 3.9454545,
                "pitch": 48,
                "velocity": 51,
                "duration": 0.1,
                "tempo": 120.0
            },
            {
                "start_time": 3.9613636,
                "end_time": 5.4159091,
                "pitch": 55,
                "velocity": 51,
                "duration": 1.4545455,
                "tempo": 120.0
            },
            {
                "start_time": 5.4340909,
                "end_time": 6.3204545,
                "pitch": 58,
                "velocity": 51,
                "duration": 0.8863636,
                "tempo": 120.0
            },
            {
                "start_time": 6.3363636,
                "end_time": 6.7772727,
                "pitch": 48,
                "velocity": 51,
                "duration": 0.4409091,
                "tempo": 120.0
            },
            {
                "start_time": 6.7931818,
                "end_time": 7.2204545,
                "pitch": 53,
                "velocity": 51,
                "duration": 0.4272727,
                "tempo": 120.0
            },
            {
                "start_time": 7.2363636,
                "end_time": 7.3386364,
                "pitch": 56,
                "velocity": 51,
                "duration": 0.1022727,
                "tempo": 120.0
            },
            {
                "start_time": 7.3545455,
                "end_time": 7.4386364,
                "pitch": 51,
                "velocity": 51,
                "duration": 0.0840909,
                "tempo": 120.0
            },
            {
                "start_time": 7.4545455,
                "end_time": 7.5545455,
                "pitch": 48,
                "velocity": 51,
                "duration": 0.1,
                "tempo": 120.0
            },
            {
                "start_time": 7.5727273,
                "end_time": 8.575,
                "pitch": 51,
                "velocity": 51,
                "duration": 1.0022727,
                "tempo": 120.0
            },
            {
                "start_time": 8.5909091,
                "end_time": 9.025,
                "pitch": 53,
                "velocity": 51,
                "duration": 0.4340909,
                "tempo": 120.0
            },
            {
                "start_time": 9.0431818,
                "end_time": 9.2431818,
                "pitch": 55,
                "velocity": 51,
                "duration": 0.2,
                "tempo": 120.0
            },
            {
                "start_time": 9.2590909,
                "end_time": 9.3590909,
                "pitch": 48,
                "velocity": 51,
                "duration": 0.1,
                "tempo": 120.0
            },
            {
                "start_time": 9.3772727,
                "end_time": 9.9272727,
                "pitch": 55,
                "velocity": 51,
                "duration": 0.55,
                "tempo": 120.0
            },
            {
                "start_time": 9.9454545,
                "end_time": 10.1454545,
                "pitch": 59,
                "velocity": 51,
                "duration": 0.2,
                "tempo": 120.0
            },
            {
                "start_time": 10.1613636,
                "end_time": 10.2613636,
                "pitch": 55,
                "velocity": 51,
                "duration": 0.1,
                "tempo": 120.0
            },
            {
                "start_time": 10.2795455,
                "end_time": 10.8318182,
                "pitch": 59,
                "velocity": 51,
                "duration": 0.5522727,
                "tempo": 120.0
            },
            {
                "start_time": 10.8477273,
                "end_time": 11.0477273,
                "pitch": 62,
                "velocity": 51,
                "duration": 0.2,
                "tempo": 120.0
            },
            {
                "start_time": 11.0636364,
                "end_time": 11.1659091,
                "pitch": 59,
                "velocity": 51,
                "duration": 0.1022727,
                "tempo": 120.0
            },
            {
                "start_time": 11.1818182,
                "end_time": 11.7340909,
                "pitch": 62,
                "velocity": 51,
                "duration": 0.5522727,
                "tempo": 120.0
            },
            {
                "start_time": 11.75,
                "end_time": 11.95,
                "pitch": 67,
                "velocity": 51,
                "duration": 0.2,
                "tempo": 120.0
            },
            {
                "start_time": 11.9681818,
                "end_time": 12.0681818,
                "pitch": 62,
                "velocity": 51,
                "duration": 0.1,
                "tempo": 120.0
            },
            {
                "start_time": 12.0840909,
                "end_time": 12.6454545,
                "pitch": 67,
                "velocity": 51,
                "duration": 0.5613636,
                "tempo": 120.0
            },
            {
                "start_time": 12.6636364,
                "end_time": 12.7636364,
                "pitch": 55,
                "velocity": 51,
                "duration": 0.1,
                "tempo": 120.0
            },
            {
                "start_time": 12.7795455,
                "end_time": 12.8636364,
                "pitch": 48,
                "velocity": 51,
                "duration": 0.0840909,
                "tempo": 120.0
            },
            {
                "start_time": 12.8795455,
                "end_time": 12.9795455,
                "pitch": 48,
                "velocity": 51,
                "duration": 0.1,
                "tempo": 120.0
            },
            {
                "start_time": 12.9977273,
                "end_time": 14.4409091,
                "pitch": 55,
                "velocity": 51,
                "duration": 1.4431818,
                "tempo": 120.0
            },
            {
                "start_time": 14.4568182,
                "end_time": 15.3431818,
                "pitch": 58,
                "velocity": 51,
                "duration": 0.8863636,
                "tempo": 120.0
            },
            {
                "start_time": 15.3613636,
                "end_time": 15.7954545,
                "pitch": 48,
                "velocity": 51,
                "duration": 0.4340909,
                "tempo": 120.0
            },
            {
                "start_time": 15.8113636,
                "end_time": 16.2454545,
                "pitch": 53,
                "velocity": 51,
                "duration": 0.4340909,
                "tempo": 120.0
            },
            {
                "start_time": 16.2636364,
                "end_time": 16.3636364,
                "pitch": 55,
                "velocity": 51,
                "duration": 0.1,
                "tempo": 120.0
            },
            {
                "start_time": 16.3795455,
                "end_time": 16.4636364,
                "pitch": 48,
                "velocity": 51,
                "duration": 0.0840909,
                "tempo": 120.0
            },
            {
                "start_time": 16.4795455,
                "end_time": 16.5795455,
                "pitch": 48,
                "velocity": 51,
                "duration": 0.1,
                "tempo": 120.0
            },
            {
                "start_time": 16.5977273,
                "end_time": 18.05,
                "pitch": 55,
                "velocity": 51,
                "duration": 1.4522727,
                "tempo": 120.0
            },
            {
                "start_time": 18.0681818,
                "end_time": 18.9545455,
                "pitch": 58,
                "velocity": 51,
                "duration": 0.8863636,
                "tempo": 120.0
            },
            {
                "start_time": 18.9704545,
                "end_time": 19.4045455,
                "pitch": 48,
                "velocity": 51,
                "duration": 0.4340909,
                "tempo": 120.0
            },
            {
                "start_time": 19.4204545,
                "end_time": 19.8568182,
                "pitch": 53,
                "velocity": 51,
                "duration": 0.4363636,
                "tempo": 120.0
            },
            {
                "start_time": 19.8727273,
                "end_time": 20.7590909,
                "pitch": 51,
                "velocity": 51,
                "duration": 0.8863636,
                "tempo": 120.0
            },
            {
                "start_time": 20.775,
                "end_time": 21.2090909,
                "pitch": 56,
                "velocity": 51,
                "duration": 0.4340909,
                "tempo": 120.0
            },
            {
                "start_time": 21.2272727,
                "end_time": 21.6613636,
                "pitch": 60,
                "velocity": 51,
                "duration": 0.4340909,
                "tempo": 120.0
            },
            {
                "start_time": 21.6772727,
                "end_time": 22.5636364,
                "pitch": 58,
                "velocity": 51,
                "duration": 0.8863636,
                "tempo": 120.0
            },
            {
                "start_time": 22.5795455,
                "end_time": 22.7818182,
                "pitch": 58,
                "velocity": 51,
                "duration": 0.2022727,
                "tempo": 120.0
            },
            {
                "start_time": 22.7977273,
                "end_time": 23.0136364,
                "pitch": 55,
                "velocity": 51,
                "duration": 0.2159091,
                "tempo": 120.0
            },
            {
                "start_time": 23.0318182,
                "end_time": 23.1318182,
                "pitch": 50,
                "velocity": 51,
                "duration": 0.1,
                "tempo": 120.0
            },
            {
                "start_time": 23.1477273,
                "end_time": 23.4659091,
                "pitch": 46,
                "velocity": 51,
                "duration": 0.3181818,
                "tempo": 120.0
            },
            {
                "start_time": 23.4818182,
                "end_time": 24.3681818,
                "pitch": 48,
                "velocity": 51,
                "duration": 0.8863636,
                "tempo": 120.0
            },
            {
                "start_time": 24.3840909,
                "end_time": 24.5863636,
                "pitch": 51,
                "velocity": 51,
                "duration": 0.2022727,
                "tempo": 120.0
            },
            {
                "start_time": 24.6022727,
                "end_time": 24.8204545,
                "pitch": 53,
                "velocity": 51,
                "duration": 0.2181818,
                "tempo": 120.0
            },
            {
                "start_time": 24.8363636,
                "end_time": 24.9363636,
                "pitch": 55,
                "velocity": 51,
                "duration": 0.1,
                "tempo": 120.0
            },
            {
                "start_time": 24.9522727,
                "end_time": 25.2704545,
                "pitch": 58,
                "velocity": 51,
                "duration": 0.3181818,
                "tempo": 120.0
            },
            {
                "start_time": 25.2886364,
                "end_time": 26.2954545,
                "pitch": 60,
                "velocity": 51,
                "duration": 1.0068182,
                "tempo": 120.0
            },
            {
                "start_time": 26.3113636,
                "end_time": 26.3454545,
                "pitch": 63,
                "velocity": 51,
                "duration": 0.0340909,
                "tempo": 120.0
            },
            {
                "start_time": 26.3454545,
                "end_time": 26.3795455,
                "pitch": 60,
                "velocity": 51,
                "duration": 0.0340909,
                "tempo": 120.0
            },
            {
                "start_time": 26.3795455,
                "end_time": 26.3977273,
                "pitch": 56,
                "velocity": 51,
                "duration": 0.0181818,
                "tempo": 120.0
            },
            {
                "start_time": 26.3977273,
                "end_time": 26.4318182,
                "pitch": 55,
                "velocity": 51,
                "duration": 0.0340909,
                "tempo": 120.0
            },
            {
                "start_time": 26.4318182,
                "end_time": 26.4659091,
                "pitch": 52,
                "velocity": 51,
                "duration": 0.0340909,
                "tempo": 120.0
            },
            {
                "start_time": 26.4659091,
                "end_time": 26.5,
                "pitch": 50,
                "velocity": 51,
                "duration": 0.0340909,
                "tempo": 120.0
            },
            {
                "start_time": 26.5,
                "end_time": 26.5159091,
                "pitch": 46,
                "velocity": 51,
                "duration": 0.0159091,
                "tempo": 120.0
            },
            {
                "start_time": 26.5159091,
                "end_time": 26.5340909,
                "pitch": 44,
                "velocity": 51,
                "duration": 0.0181818,
                "tempo": 120.0
            },
            {
                "start_time": 26.5340909,
                "end_time": 26.5681818,
                "pitch": 43,
                "velocity": 51,
                "duration": 0.0340909,
                "tempo": 120.0
            },
            {
                "start_time": 26.5681818,
                "end_time": 26.6022727,
                "pitch": 40,
                "velocity": 51,
                "duration": 0.0340909,
                "tempo": 120.0
            },
            {
                "start_time": 26.6022727,
                "end_time": 26.6340909,
                "pitch": 37,
                "velocity": 51,
                "duration": 0.0318182,
                "tempo": 120.0
            },
            {
                "start_time": 26.6340909,
                "end_time": 26.6522727,
                "pitch": 34,
                "velocity": 51,
                "duration": 0.0181818,
                "tempo": 120.0
            },
            {
                "start_time": 26.6522727,
                "end_time": 26.6840909,
                "pitch": 61,
                "velocity": 51,
                "duration": 0.0318182,
                "tempo": 120.0
            },
            {
                "start_time": 26.6840909,
                "end_time": 26.7022727,
                "pitch": 58,
                "velocity": 51,
                "duration": 0.0181818,
                "tempo": 120.0
            },
            {
                "start_time": 26.7022727,
                "end_time": 26.7181818,
                "pitch": 56,
                "velocity": 51,
                "duration": 0.0159091,
                "tempo": 120.0
            },
            {
                "start_time": 26.7181818,
                "end_time": 26.7522727,
                "pitch": 54,
                "velocity": 51,
                "duration": 0.0340909,
                "tempo": 120.0
            },
            {
                "start_time": 26.7522727,
                "end_time": 26.7863636,
                "pitch": 52,
                "velocity": 51,
                "duration": 0.0340909,
                "tempo": 120.0
            },
            {
                "start_time": 26.7863636,
                "end_time": 26.8181818,
                "pitch": 49,
                "velocity": 51,
                "duration": 0.0318182,
                "tempo": 120.0
            },
            {
                "start_time": 26.8181818,
                "end_time": 26.8363636,
                "pitch": 46,
                "velocity": 51,
                "duration": 0.0181818,
                "tempo": 120.0
            },
            {
                "start_time": 26.8363636,
                "end_time": 26.8522727,
                "pitch": 44,
                "velocity": 51,
                "duration": 0.0159091,
                "tempo": 120.0
            },
            {
                "start_time": 26.8522727,
                "end_time": 26.8681818,
                "pitch": 42,
                "velocity": 51,
                "duration": 0.0159091,
                "tempo": 120.0
            },
            {
                "start_time": 26.8681818,
                "end_time": 26.9022727,
                "pitch": 59,
                "velocity": 51,
                "duration": 0.0340909,
                "tempo": 120.0
            },
            {
                "start_time": 26.9022727,
                "end_time": 26.9181818,
                "pitch": 55,
                "velocity": 51,
                "duration": 0.0159091,
                "tempo": 120.0
            },
            {
                "start_time": 26.9181818,
                "end_time": 26.9522727,
                "pitch": 54,
                "velocity": 51,
                "duration": 0.0340909,
                "tempo": 120.0
            },
            {
                "start_time": 26.9522727,
                "end_time": 26.9863636,
                "pitch": 51,
                "velocity": 51,
                "duration": 0.0340909,
                "tempo": 120.0
            },
            {
                "start_time": 26.9863636,
                "end_time": 27.0204545,
                "pitch": 49,
                "velocity": 51,
                "duration": 0.0340909,
                "tempo": 120.0
            },
            {
                "start_time": 27.0204545,
                "end_time": 27.0363636,
                "pitch": 45,
                "velocity": 51,
                "duration": 0.0159091,
                "tempo": 120.0
            },
            {
                "start_time": 27.0363636,
                "end_time": 27.0522727,
                "pitch": 43,
                "velocity": 51,
                "duration": 0.0159091,
                "tempo": 120.0
            },
            {
                "start_time": 27.0522727,
                "end_time": 27.0840909,
                "pitch": 42,
                "velocity": 51,
                "duration": 0.0318182,
                "tempo": 120.0
            },
            {
                "start_time": 27.0840909,
                "end_time": 27.1,
                "pitch": 39,
                "velocity": 51,
                "duration": 0.0159091,
                "tempo": 120.0
            },
            {
                "start_time": 27.1,
                "end_time": 27.5272727,
                "pitch": 68,
                "velocity": 51,
                "duration": 0.4272727,
                "tempo": 120.0
            },
            {
                "start_time": 27.5431818,
                "end_time": 27.7454545,
                "pitch": 68,
                "velocity": 51,
                "duration": 0.2022727,
                "tempo": 120.0
            },
            {
                "start_time": 27.7613636,
                "end_time": 28.4295455,
                "pitch": 63,
                "velocity": 51,
                "duration": 0.6681818,
                "tempo": 120.0
            },
            {
                "start_time": 28.4477273,
                "end_time": 29.3318182,
                "pitch": 60,
                "velocity": 51,
                "duration": 0.8840909,
                "tempo": 120.0
            },
            {
                "start_time": 29.35,
                "end_time": 29.7840909,
                "pitch": 63,
                "velocity": 51,
                "duration": 0.4340909,
                "tempo": 120.0
            },
            {
                "start_time": 29.8,
                "end_time": 30.2340909,
                "pitch": 56,
                "velocity": 51,
                "duration": 0.4340909,
                "tempo": 120.0
            },
            {
                "start_time": 30.2522727,
                "end_time": 30.6863636,
                "pitch": 60,
                "velocity": 51,
                "duration": 0.4340909,
                "tempo": 120.0
            },
            {
                "start_time": 30.7022727,
                "end_time": 30.9045455,
                "pitch": 55,
                "velocity": 51,
                "duration": 0.2022727,
                "tempo": 120.0
            },
            {
                "start_time": 30.9204545,
                "end_time": 31.1386364,
                "pitch": 58,
                "velocity": 51,
                "duration": 0.2181818,
                "tempo": 120.0
            },
            {
                "start_time": 31.1545455,
                "end_time": 31.3545455,
                "pitch": 62,
                "velocity": 51,
                "duration": 0.2,
                "tempo": 120.0
            },
            {
                "start_time": 31.3704545,
                "end_time": 31.8068182,
                "pitch": 67,
                "velocity": 51,
                "duration": 0.4363636,
                "tempo": 120.0
            },
            {
                "start_time": 31.8227273,
                "end_time": 32.0409091,
                "pitch": 62,
                "velocity": 51,
                "duration": 0.2181818,
                "tempo": 120.0
            },
            {
                "start_time": 32.0568182,
                "end_time": 32.4909091,
                "pitch": 58,
                "velocity": 51,
                "duration": 0.4340909,
                "tempo": 120.0
            },
            {
                "start_time": 32.5068182,
                "end_time": 32.7090909,
                "pitch": 55,
                "velocity": 51,
                "duration": 0.2022727,
                "tempo": 120.0
            },
            {
                "start_time": 32.725,
                "end_time": 32.9431818,
                "pitch": 58,
                "velocity": 51,
                "duration": 0.2181818,
                "tempo": 120.0
            },
            {
                "start_time": 32.9590909,
                "end_time": 33.1590909,
                "pitch": 62,
                "velocity": 51,
                "duration": 0.2,
                "tempo": 120.0
            },
            {
                "start_time": 33.1772727,
                "end_time": 33.6113636,
                "pitch": 67,
                "velocity": 51,
                "duration": 0.4340909,
                "tempo": 120.0
            },
            {
                "start_time": 33.6272727,
                "end_time": 33.8454545,
                "pitch": 62,
                "velocity": 51,
                "duration": 0.2181818,
                "tempo": 120.0
            },
            {
                "start_time": 33.8613636,
                "end_time": 34.0613636,
                "pitch": 58,
                "velocity": 51,
                "duration": 0.2,
                "tempo": 120.0
            },
            {
                "start_time": 34.0795455,
                "end_time": 34.2954545,
                "pitch": 55,
                "velocity": 51,
                "duration": 0.2159091,
                "tempo": 120.0
            },
            {
                "start_time": 34.3136364,
                "end_time": 34.7477273,
                "pitch": 53,
                "velocity": 51,
                "duration": 0.4340909,
                "tempo": 120.0
            },
            {
                "start_time": 34.7636364,
                "end_time": 34.9636364,
                "pitch": 48,
                "velocity": 51,
                "duration": 0.2,
                "tempo": 120.0
            },
            {
                "start_time": 34.9818182,
                "end_time": 35.65,
                "pitch": 53,
                "velocity": 51,
                "duration": 0.6681818,
                "tempo": 120.0
            },
            {
                "start_time": 35.6659091,
                "end_time": 35.8681818,
                "pitch": 56,
                "velocity": 51,
                "duration": 0.2022727,
                "tempo": 120.0
            },
            {
                "start_time": 35.8840909,
                "end_time": 36.1022727,
                "pitch": 58,
                "velocity": 51,
                "duration": 0.2181818,
                "tempo": 120.0
            },
            {
                "start_time": 36.1181818,
                "end_time": 37.0045455,
                "pitch": 60,
                "velocity": 51,
                "duration": 0.8863636,
                "tempo": 120.0
            },
            {
                "start_time": 37.0204545,
                "end_time": 37.9068182,
                "pitch": 65,
                "velocity": 51,
                "duration": 0.8863636,
                "tempo": 120.0
            },
            {
                "start_time": 37.9227273,
                "end_time": 38.1227273,
                "pitch": 63,
                "velocity": 51,
                "duration": 0.2,
                "tempo": 120.0
            },
            {
                "start_time": 38.1409091,
                "end_time": 38.3568182,
                "pitch": 58,
                "velocity": 51,
                "duration": 0.2159091,
                "tempo": 120.0
            },
            {
                "start_time": 38.375,
                "end_time": 38.575,
                "pitch": 55,
                "velocity": 51,
                "duration": 0.2,
                "tempo": 120.0
            },
            {
                "start_time": 38.5909091,
                "end_time": 38.8090909,
                "pitch": 63,
                "velocity": 51,
                "duration": 0.2181818,
                "tempo": 120.0
            },
            {
                "start_time": 38.825,
                "end_time": 39.025,
                "pitch": 58,
                "velocity": 51,
                "duration": 0.2,
                "tempo": 120.0
            },
            {
                "start_time": 39.0431818,
                "end_time": 39.2590909,
                "pitch": 55,
                "velocity": 51,
                "duration": 0.2159091,
                "tempo": 120.0
            },
            {
                "start_time": 39.2772727,
                "end_time": 39.4772727,
                "pitch": 63,
                "velocity": 51,
                "duration": 0.2,
                "tempo": 120.0
            },
            {
                "start_time": 39.4931818,
                "end_time": 39.7113636,
                "pitch": 58,
                "velocity": 51,
                "duration": 0.2181818,
                "tempo": 120.0
            },
            {
                "start_time": 39.7272727,
                "end_time": 39.9272727,
                "pitch": 62,
                "velocity": 51,
                "duration": 0.2,
                "tempo": 120.0
            },
            {
                "start_time": 39.9454545,
                "end_time": 40.1613636,
                "pitch": 59,
                "velocity": 51,
                "duration": 0.2159091,
                "tempo": 120.0
            },
            {
                "start_time": 40.1795455,
                "end_time": 40.3795455,
                "pitch": 55,
                "velocity": 51,
                "duration": 0.2,
                "tempo": 120.0
            },
            {
                "start_time": 40.3954545,
                "end_time": 40.6136364,
                "pitch": 62,
                "velocity": 51,
                "duration": 0.2181818,
                "tempo": 120.0
            },
            {
                "start_time": 40.6295455,
                "end_time": 40.8318182,
                "pitch": 59,
                "velocity": 51,
                "duration": 0.2022727,
                "tempo": 120.0
            },
            {
                "start_time": 40.8477273,
                "end_time": 41.0659091,
                "pitch": 55,
                "velocity": 51,
                "duration": 0.2181818,
                "tempo": 120.0
            },
            {
                "start_time": 41.0840909,
                "end_time": 41.2886364,
                "pitch": 62,
                "velocity": 51,
                "duration": 0.2045455,
                "tempo": 120.0
            },
            {
                "start_time": 41.3045455,
                "end_time": 41.525,
                "pitch": 59,
                "velocity": 51,
                "duration": 0.2204545,
                "tempo": 120.0
            },
            {
                "start_time": 41.5409091,
                "end_time": 42.1840909,
                "pitch": 56,
                "velocity": 51,
                "duration": 0.6431818,
                "tempo": 120.0
            },
            {
                "start_time": 42.2022727,
                "end_time": 42.8704545,
                "pitch": 51,
                "velocity": 51,
                "duration": 0.6681818,
                "tempo": 120.0
            },
            {
                "start_time": 42.8863636,
                "end_time": 43.7727273,
                "pitch": 48,
                "velocity": 51,
                "duration": 0.8863636,
                "tempo": 120.0
            },
            {
                "start_time": 43.7886364,
                "end_time": 44.2227273,
                "pitch": 51,
                "velocity": 51,
                "duration": 0.4340909,
                "tempo": 120.0
            },
            {
                "start_time": 44.2409091,
                "end_time": 44.675,
                "pitch": 56,
                "velocity": 51,
                "duration": 0.4340909,
                "tempo": 120.0
            },
            {
                "start_time": 44.6909091,
                "end_time": 45.1272727,
                "pitch": 60,
                "velocity": 51,
                "duration": 0.4363636,
                "tempo": 120.0
            },
            {
                "start_time": 45.1431818,
                "end_time": 45.3431818,
                "pitch": 55,
                "velocity": 51,
                "duration": 0.2,
                "tempo": 120.0
            },
            {
                "start_time": 45.3590909,
                "end_time": 45.5772727,
                "pitch": 58,
                "velocity": 51,
                "duration": 0.2181818,
                "tempo": 120.0
            },
            {
                "start_time": 45.5931818,
                "end_time": 45.7954545,
                "pitch": 62,
                "velocity": 51,
                "duration": 0.2022727,
                "tempo": 120.0
            },
            {
                "start_time": 45.8113636,
                "end_time": 46.2454545,
                "pitch": 67,
                "velocity": 51,
                "duration": 0.4340909,
                "tempo": 120.0
            },
            {
                "start_time": 46.2636364,
                "end_time": 46.4795455,
                "pitch": 62,
                "velocity": 51,
                "duration": 0.2159091,
                "tempo": 120.0
            },
            {
                "start_time": 46.4977273,
                "end_time": 46.9318182,
                "pitch": 58,
                "velocity": 51,
                "duration": 0.4340909,
                "tempo": 120.0
            },
            {
                "start_time": 46.9477273,
                "end_time": 47.1477273,
                "pitch": 55,
                "velocity": 51,
                "duration": 0.2,
                "tempo": 120.0
            },
            {
                "start_time": 47.1659091,
                "end_time": 47.3818182,
                "pitch": 58,
                "velocity": 51,
                "duration": 0.2159091,
                "tempo": 120.0
            },
            {
                "start_time": 47.4,
                "end_time": 47.6,
                "pitch": 62,
                "velocity": 51,
                "duration": 0.2,
                "tempo": 120.0
            },
            {
                "start_time": 47.6159091,
                "end_time": 48.05,
                "pitch": 67,
                "velocity": 51,
                "duration": 0.4340909,
                "tempo": 120.0
            },
            {
                "start_time": 48.0681818,
                "end_time": 48.2840909,
                "pitch": 62,
                "velocity": 51,
                "duration": 0.2159091,
                "tempo": 120.0
            },
            {
                "start_time": 48.3022727,
                "end_time": 48.5022727,
                "pitch": 58,
                "velocity": 51,
                "duration": 0.2,
                "tempo": 120.0
            },
            {
                "start_time": 48.5181818,
                "end_time": 48.7363636,
                "pitch": 55,
                "velocity": 51,
                "duration": 0.2181818,
                "tempo": 120.0
            },
            {
                "start_time": 48.7522727,
                "end_time": 49.1863636,
                "pitch": 53,
                "velocity": 51,
                "duration": 0.4340909,
                "tempo": 120.0
            },
            {
                "start_time": 49.2045455,
                "end_time": 49.4045455,
                "pitch": 53,
                "velocity": 51,
                "duration": 0.2,
                "tempo": 120.0
            },
            {
                "start_time": 49.4204545,
                "end_time": 50.5409091,
                "pitch": 65,
                "velocity": 51,
                "duration": 1.1204545,
                "tempo": 120.0
            },
            {
                "start_time": 50.5568182,
                "end_time": 51.2090909,
                "pitch": 53,
                "velocity": 51,
                "duration": 0.6522727,
                "tempo": 120.0
            },
            {
                "start_time": 51.2272727,
                "end_time": 51.8954545,
                "pitch": 65,
                "velocity": 51,
                "duration": 0.6681818,
                "tempo": 120.0
            },
            {
                "start_time": 51.9113636,
                "end_time": 52.1113636,
                "pitch": 63,
                "velocity": 51,
                "duration": 0.2,
                "tempo": 120.0
            },
            {
                "start_time": 52.1295455,
                "end_time": 52.3454545,
                "pitch": 60,
                "velocity": 51,
                "duration": 0.2159091,
                "tempo": 120.0
            },
            {
                "start_time": 52.3636364,
                "end_time": 53.0136364,
                "pitch": 62,
                "velocity": 51,
                "duration": 0.65,
                "tempo": 120.0
            },
            {
                "start_time": 53.0318182,
                "end_time": 53.9181818,
                "pitch": 65,
                "velocity": 51,
                "duration": 0.8863636,
                "tempo": 120.0
            },
            {
                "start_time": 53.9340909,
                "end_time": 54.3681818,
                "pitch": 67,
                "velocity": 51,
                "duration": 0.4340909,
                "tempo": 120.0
            },
            {
                "start_time": 54.3840909,
                "end_time": 54.6022727,
                "pitch": 62,
                "velocity": 51,
                "duration": 0.2181818,
                "tempo": 120.0
            },
            {
                "start_time": 54.6181818,
                "end_time": 54.8204545,
                "pitch": 63,
                "velocity": 51,
                "duration": 0.2022727,
                "tempo": 120.0
            },
            {
                "start_time": 54.8363636,
                "end_time": 55.0545455,
                "pitch": 62,
                "velocity": 51,
                "duration": 0.2181818,
                "tempo": 120.0
            },
            {
                "start_time": 55.0704545,
                "end_time": 55.2704545,
                "pitch": 65,
                "velocity": 51,
                "duration": 0.2,
                "tempo": 120.0
            },
            {
                "start_time": 55.2886364,
                "end_time": 55.5068182,
                "pitch": 63,
                "velocity": 51,
                "duration": 0.2181818,
                "tempo": 120.0
            },
            {
                "start_time": 55.5227273,
                "end_time": 55.7295455,
                "pitch": 62,
                "velocity": 51,
                "duration": 0.2068182,
                "tempo": 120.0
            },
            {
                "start_time": 55.7454545,
                "end_time": 55.9636364,
                "pitch": 63,
                "velocity": 51,
                "duration": 0.2181818,
                "tempo": 120.0
            },
            {
                "start_time": 55.9818182,
                "end_time": 56.8590909,
                "pitch": 48,
                "velocity": 51,
                "duration": 0.8772727,
                "tempo": 120.0
            },
            {
                "start_time": 56.875,
                "end_time": 57.075,
                "pitch": 51,
                "velocity": 51,
                "duration": 0.2,
                "tempo": 120.0
            },
            {
                "start_time": 57.0931818,
                "end_time": 57.3090909,
                "pitch": 53,
                "velocity": 51,
                "duration": 0.2159091,
                "tempo": 120.0
            },
            {
                "start_time": 57.3272727,
                "end_time": 57.4272727,
                "pitch": 55,
                "velocity": 51,
                "duration": 0.1,
                "tempo": 120.0
            },
            {
                "start_time": 57.4431818,
                "end_time": 57.7613636,
                "pitch": 58,
                "velocity": 51,
                "duration": 0.3181818,
                "tempo": 120.0
            },
            {
                "start_time": 57.7772727,
                "end_time": 58.6659091,
                "pitch": 48,
                "velocity": 51,
                "duration": 0.8886364,
                "tempo": 120.0
            },
            {
                "start_time": 58.6818182,
                "end_time": 58.8863636,
                "pitch": 51,
                "velocity": 51,
                "duration": 0.2045455,
                "tempo": 120.0
            },
            {
                "start_time": 58.9045455,
                "end_time": 59.125,
                "pitch": 53,
                "velocity": 51,
                "duration": 0.2204545,
                "tempo": 120.0
            },
            {
                "start_time": 59.1431818,
                "end_time": 59.2431818,
                "pitch": 55,
                "velocity": 51,
                "duration": 0.1,
                "tempo": 120.0
            },
            {
                "start_time": 59.2590909,
                "end_time": 59.575,
                "pitch": 58,
                "velocity": 51,
                "duration": 0.3159091,
                "tempo": 120.0
            },
            {
                "start_time": 59.5909091,
                "end_time": 59.625,
                "pitch": 61,
                "velocity": 51,
                "duration": 0.0340909,
                "tempo": 120.0
            },
            {
                "start_time": 59.625,
                "end_time": 59.6409091,
                "pitch": 58,
                "velocity": 51,
                "duration": 0.0159091,
                "tempo": 120.0
            },
            {
                "start_time": 59.6409091,
                "end_time": 59.6568182,
                "pitch": 56,
                "velocity": 51,
                "duration": 0.0159091,
                "tempo": 120.0
            },
            {
                "start_time": 59.6568182,
                "end_time": 59.6886364,
                "pitch": 54,
                "velocity": 51,
                "duration": 0.0318182,
                "tempo": 120.0
            },
            {
                "start_time": 59.6886364,
                "end_time": 59.7227273,
                "pitch": 52,
                "velocity": 51,
                "duration": 0.0340909,
                "tempo": 120.0
            },
            {
                "start_time": 59.7227273,
                "end_time": 59.7545455,
                "pitch": 49,
                "velocity": 51,
                "duration": 0.0318182,
                "tempo": 120.0
            },
            {
                "start_time": 59.7545455,
                "end_time": 59.7704545,
                "pitch": 46,
                "velocity": 51,
                "duration": 0.0159091,
                "tempo": 120.0
            },
            {
                "start_time": 59.7704545,
                "end_time": 59.7886364,
                "pitch": 44,
                "velocity": 51,
                "duration": 0.0181818,
                "tempo": 120.0
            },
            {
                "start_time": 59.7886364,
                "end_time": 59.8204545,
                "pitch": 42,
                "velocity": 51,
                "duration": 0.0318182,
                "tempo": 120.0
            },
            {
                "start_time": 59.8204545,
                "end_time": 59.8522727,
                "pitch": 40,
                "velocity": 51,
                "duration": 0.0318182,
                "tempo": 120.0
            },
            {
                "start_time": 59.8522727,
                "end_time": 59.8863636,
                "pitch": 37,
                "velocity": 51,
                "duration": 0.0340909,
                "tempo": 120.0
            },
            {
                "start_time": 59.8863636,
                "end_time": 59.9022727,
                "pitch": 34,
                "velocity": 51,
                "duration": 0.0159091,
                "tempo": 120.0
            },
            {
                "start_time": 59.9022727,
                "end_time": 59.9181818,
                "pitch": 31,
                "velocity": 51,
                "duration": 0.0159091,
                "tempo": 120.0
            },
            {
                "start_time": 59.9181818,
                "end_time": 59.95,
                "pitch": 61,
                "velocity": 51,
                "duration": 0.0318182,
                "tempo": 120.0
            },
            {
                "start_time": 59.95,
                "end_time": 59.9681818,
                "pitch": 58,
                "velocity": 51,
                "duration": 0.0181818,
                "tempo": 120.0
            },
            {
                "start_time": 59.9681818,
                "end_time": 59.9840909,
                "pitch": 56,
                "velocity": 51,
                "duration": 0.0159091,
                "tempo": 120.0
            },
            {
                "start_time": 59.9840909,
                "end_time": 60.0181818,
                "pitch": 54,
                "velocity": 51,
                "duration": 0.0340909,
                "tempo": 120.0
            },
            {
                "start_time": 60.0181818,
                "end_time": 60.0522727,
                "pitch": 52,
                "velocity": 51,
                "duration": 0.0340909,
                "tempo": 120.0
            },
            {
                "start_time": 60.0522727,
                "end_time": 60.0840909,
                "pitch": 49,
                "velocity": 51,
                "duration": 0.0318182,
                "tempo": 120.0
            },
            {
                "start_time": 60.0840909,
                "end_time": 60.1022727,
                "pitch": 46,
                "velocity": 51,
                "duration": 0.0181818,
                "tempo": 120.0
            },
            {
                "start_time": 60.1022727,
                "end_time": 60.1181818,
                "pitch": 44,
                "velocity": 51,
                "duration": 0.0159091,
                "tempo": 120.0
            },
            {
                "start_time": 60.1181818,
                "end_time": 60.1522727,
                "pitch": 42,
                "velocity": 51,
                "duration": 0.0340909,
                "tempo": 120.0
            },
            {
                "start_time": 60.1522727,
                "end_time": 60.1840909,
                "pitch": 40,
                "velocity": 51,
                "duration": 0.0318182,
                "tempo": 120.0
            },
            {
                "start_time": 60.1840909,
                "end_time": 60.2181818,
                "pitch": 37,
                "velocity": 51,
                "duration": 0.0340909,
                "tempo": 120.0
            },
            {
                "start_time": 60.2181818,
                "end_time": 60.2340909,
                "pitch": 34,
                "velocity": 51,
                "duration": 0.0159091,
                "tempo": 120.0
            },
            {
                "start_time": 60.2340909,
                "end_time": 60.2522727,
                "pitch": 31,
                "velocity": 51,
                "duration": 0.0181818,
                "tempo": 120.0
            },
            {
                "start_time": 60.2522727,
                "end_time": 60.3522727,
                "pitch": 60,
                "velocity": 51,
                "duration": 0.1,
                "tempo": 120.0
            },
            {
                "start_time": 60.3681818,
                "end_time": 60.4681818,
                "pitch": 60,
                "velocity": 51,
                "duration": 0.1,
                "tempo": 120.0
            },
            {
                "start_time": 60.4863636,
                "end_time": 60.5863636,
                "pitch": 63,
                "velocity": 51,
                "duration": 0.1,
                "tempo": 120.0
            },
            {
                "start_time": 60.6022727,
                "end_time": 60.6863636,
                "pitch": 63,
                "velocity": 51,
                "duration": 0.0840909,
                "tempo": 120.0
            },
            {
                "start_time": 60.7022727,
                "end_time": 60.8022727,
                "pitch": 68,
                "velocity": 51,
                "duration": 0.1,
                "tempo": 120.0
            },
            {
                "start_time": 60.8204545,
                "end_time": 60.9204545,
                "pitch": 68,
                "velocity": 51,
                "duration": 0.1,
                "tempo": 120.0
            },
            {
                "start_time": 60.9363636,
                "end_time": 61.0363636,
                "pitch": 72,
                "velocity": 51,
                "duration": 0.1,
                "tempo": 120.0
            },
            {
                "start_time": 61.0545455,
                "end_time": 61.1386364,
                "pitch": 72,
                "velocity": 51,
                "duration": 0.0840909,
                "tempo": 120.0
            },
            {
                "start_time": 61.1545455,
                "end_time": 61.2545455,
                "pitch": 75,
                "velocity": 51,
                "duration": 0.1,
                "tempo": 120.0
            },
            {
                "start_time": 61.2704545,
                "end_time": 61.3727273,
                "pitch": 75,
                "velocity": 51,
                "duration": 0.1022727,
                "tempo": 120.0
            },
            {
                "start_time": 61.3886364,
                "end_time": 61.4227273,
                "pitch": 61,
                "velocity": 51,
                "duration": 0.0340909,
                "tempo": 120.0
            },
            {
                "start_time": 61.4227273,
                "end_time": 61.4386364,
                "pitch": 58,
                "velocity": 51,
                "duration": 0.0159091,
                "tempo": 120.0
            },
            {
                "start_time": 61.4386364,
                "end_time": 61.4545455,
                "pitch": 56,
                "velocity": 51,
                "duration": 0.0159091,
                "tempo": 120.0
            },
            {
                "start_time": 61.4545455,
                "end_time": 61.4886364,
                "pitch": 54,
                "velocity": 51,
                "duration": 0.0340909,
                "tempo": 120.0
            },
            {
                "start_time": 61.4886364,
                "end_time": 61.5227273,
                "pitch": 52,
                "velocity": 51,
                "duration": 0.0340909,
                "tempo": 120.0
            },
            {
                "start_time": 61.5227273,
                "end_time": 61.5545455,
                "pitch": 49,
                "velocity": 51,
                "duration": 0.0318182,
                "tempo": 120.0
            },
            {
                "start_time": 61.5545455,
                "end_time": 61.5727273,
                "pitch": 46,
                "velocity": 51,
                "duration": 0.0181818,
                "tempo": 120.0
            },
            {
                "start_time": 61.5727273,
                "end_time": 61.5886364,
                "pitch": 44,
                "velocity": 51,
                "duration": 0.0159091,
                "tempo": 120.0
            },
            {
                "start_time": 61.5886364,
                "end_time": 61.6227273,
                "pitch": 42,
                "velocity": 51,
                "duration": 0.0340909,
                "tempo": 120.0
            },
            {
                "start_time": 61.6227273,
                "end_time": 61.6568182,
                "pitch": 40,
                "velocity": 51,
                "duration": 0.0340909,
                "tempo": 120.0
            },
            {
                "start_time": 61.6568182,
                "end_time": 61.6886364,
                "pitch": 37,
                "velocity": 51,
                "duration": 0.0318182,
                "tempo": 120.0
            },
            {
                "start_time": 61.6886364,
                "end_time": 61.7068182,
                "pitch": 34,
                "velocity": 51,
                "duration": 0.0181818,
                "tempo": 120.0
            },
            {
                "start_time": 61.7068182,
                "end_time": 61.7227273,
                "pitch": 31,
                "velocity": 51,
                "duration": 0.0159091,
                "tempo": 120.0
            },
            {
                "start_time": 61.7227273,
                "end_time": 61.7568182,
                "pitch": 61,
                "velocity": 51,
                "duration": 0.0340909,
                "tempo": 120.0
            },
            {
                "start_time": 61.7568182,
                "end_time": 61.7727273,
                "pitch": 58,
                "velocity": 51,
                "duration": 0.0159091,
                "tempo": 120.0
            },
            {
                "start_time": 61.7727273,
                "end_time": 61.7886364,
                "pitch": 56,
                "velocity": 51,
                "duration": 0.0159091,
                "tempo": 120.0
            },
            {
                "start_time": 61.7886364,
                "end_time": 61.8227273,
                "pitch": 54,
                "velocity": 51,
                "duration": 0.0340909,
                "tempo": 120.0
            },
            {
                "start_time": 61.8227273,
                "end_time": 61.8568182,
                "pitch": 52,
                "velocity": 51,
                "duration": 0.0340909,
                "tempo": 120.0
            },
            {
                "start_time": 61.8568182,
                "end_time": 61.8886364,
                "pitch": 49,
                "velocity": 51,
                "duration": 0.0318182,
                "tempo": 120.0
            },
            {
                "start_time": 61.8886364,
                "end_time": 61.9068182,
                "pitch": 46,
                "velocity": 51,
                "duration": 0.0181818,
                "tempo": 120.0
            },
            {
                "start_time": 61.9068182,
                "end_time": 61.9227273,
                "pitch": 44,
                "velocity": 51,
                "duration": 0.0159091,
                "tempo": 120.0
            },
            {
                "start_time": 61.9227273,
                "end_time": 61.9568182,
                "pitch": 42,
                "velocity": 51,
                "duration": 0.0340909,
                "tempo": 120.0
            },
            {
                "start_time": 61.9568182,
                "end_time": 61.9909091,
                "pitch": 40,
                "velocity": 51,
                "duration": 0.0340909,
                "tempo": 120.0
            },
            {
                "start_time": 61.9909091,
                "end_time": 62.0227273,
                "pitch": 37,
                "velocity": 51,
                "duration": 0.0318182,
                "tempo": 120.0
            },
            {
                "start_time": 62.0227273,
                "end_time": 62.0409091,
                "pitch": 34,
                "velocity": 51,
                "duration": 0.0181818,
                "tempo": 120.0
            },
            {
                "start_time": 62.0409091,
                "end_time": 62.0568182,
                "pitch": 31,
                "velocity": 51,
                "duration": 0.0159091,
                "tempo": 120.0
            },
            {
                "start_time": 62.0568182,
                "end_time": 62.1568182,
                "pitch": 59,
                "velocity": 51,
                "duration": 0.1,
                "tempo": 120.0
            },
            {
                "start_time": 62.1727273,
                "end_time": 62.275,
                "pitch": 59,
                "velocity": 51,
                "duration": 0.1022727,
                "tempo": 120.0
            },
            {
                "start_time": 62.2909091,
                "end_time": 62.3909091,
                "pitch": 62,
                "velocity": 51,
                "duration": 0.1,
                "tempo": 120.0
            },
            {
                "start_time": 62.4068182,
                "end_time": 62.4909091,
                "pitch": 62,
                "velocity": 51,
                "duration": 0.0840909,
                "tempo": 120.0
            },
            {
                "start_time": 62.5090909,
                "end_time": 62.6090909,
                "pitch": 67,
                "velocity": 51,
                "duration": 0.1,
                "tempo": 120.0
            },
            {
                "start_time": 62.625,
                "end_time": 62.725,
                "pitch": 67,
                "velocity": 51,
                "duration": 0.1,
                "tempo": 120.0
            },
            {
                "start_time": 62.7431818,
                "end_time": 62.8431818,
                "pitch": 71,
                "velocity": 51,
                "duration": 0.1,
                "tempo": 120.0
            },
            {
                "start_time": 62.8590909,
                "end_time": 62.9431818,
                "pitch": 71,
                "velocity": 51,
                "duration": 0.0840909,
                "tempo": 120.0
            },
            {
                "start_time": 62.9590909,
                "end_time": 63.0590909,
                "pitch": 74,
                "velocity": 51,
                "duration": 0.1,
                "tempo": 120.0
            },
            {
                "start_time": 63.0772727,
                "end_time": 63.1772727,
                "pitch": 74,
                "velocity": 51,
                "duration": 0.1,
                "tempo": 120.0
            },
            {
                "start_time": 63.1931818,
                "end_time": 63.2931818,
                "pitch": 67,
                "velocity": 51,
                "duration": 0.1,
                "tempo": 120.0
            },
            {
                "start_time": 63.3113636,
                "end_time": 63.3931818,
                "pitch": 62,
                "velocity": 51,
                "duration": 0.0818182,
                "tempo": 120.0
            },
            {
                "start_time": 63.4113636,
                "end_time": 63.5113636,
                "pitch": 59,
                "velocity": 51,
                "duration": 0.1,
                "tempo": 120.0
            },
            {
                "start_time": 63.5272727,
                "end_time": 63.6295455,
                "pitch": 55,
                "velocity": 51,
                "duration": 0.1022727,
                "tempo": 120.0
            },
            {
                "start_time": 63.6454545,
                "end_time": 63.75,
                "pitch": 67,
                "velocity": 51,
                "duration": 0.1045455,
                "tempo": 120.0
            },
            {
                "start_time": 63.7659091,
                "end_time": 63.8522727,
                "pitch": 62,
                "velocity": 51,
                "duration": 0.0863636,
                "tempo": 120.0
            },
            {
                "start_time": 63.8681818,
                "end_time": 63.9704545,
                "pitch": 59,
                "velocity": 51,
                "duration": 0.1022727,
                "tempo": 120.0
            },
            {
                "start_time": 63.9886364,
                "end_time": 64.0886364,
                "pitch": 55,
                "velocity": 51,
                "duration": 0.1,
                "tempo": 120.0
            },
            {
                "start_time": 64.1045455,
                "end_time": 64.2022727,
                "pitch": 67,
                "velocity": 51,
                "duration": 0.0977273,
                "tempo": 120.0
            },
            {
                "start_time": 64.2181818,
                "end_time": 64.3,
                "pitch": 62,
                "velocity": 51,
                "duration": 0.0818182,
                "tempo": 120.0
            },
            {
                "start_time": 64.3159091,
                "end_time": 64.4136364,
                "pitch": 59,
                "velocity": 51,
                "duration": 0.0977273,
                "tempo": 120.0
            },
            {
                "start_time": 64.4318182,
                "end_time": 64.5295455,
                "pitch": 55,
                "velocity": 51,
                "duration": 0.0977273,
                "tempo": 120.0
            },
            {
                "start_time": 64.5477273,
                "end_time": 64.6477273,
                "pitch": 67,
                "velocity": 51,
                "duration": 0.1,
                "tempo": 120.0
            },
            {
                "start_time": 64.6636364,
                "end_time": 64.7477273,
                "pitch": 62,
                "velocity": 51,
                "duration": 0.0840909,
                "tempo": 120.0
            },
            {
                "start_time": 64.7636364,
                "end_time": 64.8659091,
                "pitch": 59,
                "velocity": 51,
                "duration": 0.1022727,
                "tempo": 120.0
            },
            {
                "start_time": 64.8818182,
                "end_time": 64.9818182,
                "pitch": 55,
                "velocity": 51,
                "duration": 0.1,
                "tempo": 120.0
            },
            {
                "start_time": 64.9977273,
                "end_time": 65.0977273,
                "pitch": 55,
                "velocity": 51,
                "duration": 0.1,
                "tempo": 120.0
            },
            {
                "start_time": 65.1159091,
                "end_time": 65.2,
                "pitch": 48,
                "velocity": 51,
                "duration": 0.0840909,
                "tempo": 120.0
            },
            {
                "start_time": 65.2159091,
                "end_time": 65.3159091,
                "pitch": 48,
                "velocity": 51,
                "duration": 0.1,
                "tempo": 120.0
            },
            {
                "start_time": 65.3318182,
                "end_time": 65.8,
                "pitch": 55,
                "velocity": 51,
                "duration": 0.4681818,
                "tempo": 120.0
            }
        ],
        "Acoustic Guitar (nylon)": [
            {
                "start_time": 0.0136364,
                "end_time": 0.0727273,
                "pitch": 36,
                "velocity": 80,
                "duration": 0.0590909,
                "tempo": 120.0
            },
            {
                "start_time": 0.1909091,
                "end_time": 0.2818182,
                "pitch": 36,
                "velocity": 80,
                "duration": 0.0909091,
                "tempo": 120.0
            },
            {
                "start_time": 0.2954545,
                "end_time": 0.3704545,
                "pitch": 36,
                "velocity": 80,
                "duration": 0.075,
                "tempo": 120.0
            },
            {
                "start_time": 0.3840909,
                "end_time": 0.4840909,
                "pitch": 36,
                "velocity": 80,
                "duration": 0.1,
                "tempo": 120.0
            },
            {
                "start_time": 0.6181818,
                "end_time": 0.7181818,
                "pitch": 36,
                "velocity": 80,
                "duration": 0.1,
                "tempo": 120.0
            },
            {
                "start_time": 0.7363636,
                "end_time": 0.8204545,
                "pitch": 36,
                "velocity": 80,
                "duration": 0.0840909,
                "tempo": 120.0
            },
            {
                "start_time": 0.8363636,
                "end_time": 0.9386364,
                "pitch": 36,
                "velocity": 80,
                "duration": 0.1022727,
                "tempo": 120.0
            },
            {
                "start_time": 1.075,
                "end_time": 1.1772727,
                "pitch": 36,
                "velocity": 80,
                "duration": 0.1022727,
                "tempo": 120.0
            },
            {
                "start_time": 1.1954545,
                "end_time": 1.2795455,
                "pitch": 36,
                "velocity": 80,
                "duration": 0.0840909,
                "tempo": 120.0
            },
            {
                "start_time": 1.2977273,
                "end_time": 1.3954545,
                "pitch": 36,
                "velocity": 80,
                "duration": 0.0977273,
                "tempo": 120.0
            },
            {
                "start_time": 1.5272727,
                "end_time": 1.625,
                "pitch": 36,
                "velocity": 80,
                "duration": 0.0977273,
                "tempo": 120.0
            },
            {
                "start_time": 1.6409091,
                "end_time": 1.7227273,
                "pitch": 36,
                "velocity": 80,
                "duration": 0.0818182,
                "tempo": 120.0
            },
            {
                "start_time": 1.7386364,
                "end_time": 1.8386364,
                "pitch": 39,
                "velocity": 80,
                "duration": 0.1,
                "tempo": 120.0
            },
            {
                "start_time": 1.9727273,
                "end_time": 2.0727273,
                "pitch": 39,
                "velocity": 80,
                "duration": 0.1,
                "tempo": 120.0
            },
            {
                "start_time": 2.0886364,
                "end_time": 2.1727273,
                "pitch": 39,
                "velocity": 80,
                "duration": 0.0840909,
                "tempo": 120.0
            },
            {
                "start_time": 2.1909091,
                "end_time": 2.2909091,
                "pitch": 39,
                "velocity": 80,
                "duration": 0.1,
                "tempo": 120.0
            },
            {
                "start_time": 2.425,
                "end_time": 2.525,
                "pitch": 39,
                "velocity": 80,
                "duration": 0.1,
                "tempo": 120.0
            },
            {
                "start_time": 2.5409091,
                "end_time": 2.625,
                "pitch": 39,
                "velocity": 80,
                "duration": 0.0840909,
                "tempo": 120.0
            },
            {
                "start_time": 2.6409091,
                "end_time": 2.7409091,
                "pitch": 41,
                "velocity": 80,
                "duration": 0.1,
                "tempo": 120.0
            },
            {
                "start_time": 2.875,
                "end_time": 2.975,
                "pitch": 41,
                "velocity": 80,
                "duration": 0.1,
                "tempo": 120.0
            },
            {
                "start_time": 2.9931818,
                "end_time": 3.075,
                "pitch": 41,
                "velocity": 80,
                "duration": 0.0818182,
                "tempo": 120.0
            },
            {
                "start_time": 3.0931818,
                "end_time": 3.1931818,
                "pitch": 41,
                "velocity": 80,
                "duration": 0.1,
                "tempo": 120.0
            },
            {
                "start_time": 3.3272727,
                "end_time": 3.4272727,
                "pitch": 41,
                "velocity": 80,
                "duration": 0.1,
                "tempo": 120.0
            },
            {
                "start_time": 3.4431818,
                "end_time": 3.5272727,
                "pitch": 41,
                "velocity": 80,
                "duration": 0.0840909,
                "tempo": 120.0
            },
            {
                "start_time": 3.5431818,
                "end_time": 3.6431818,
                "pitch": 36,
                "velocity": 80,
                "duration": 0.1,
                "tempo": 120.0
            },
            {
                "start_time": 3.7772727,
                "end_time": 3.8772727,
                "pitch": 36,
                "velocity": 80,
                "duration": 0.1,
                "tempo": 120.0
            },
            {
                "start_time": 3.8954545,
                "end_time": 3.9772727,
                "pitch": 36,
                "velocity": 80,
                "duration": 0.0818182,
                "tempo": 120.0
            },
            {
                "start_time": 3.9954545,
                "end_time": 4.0954545,
                "pitch": 36,
                "velocity": 80,
                "duration": 0.1,
                "tempo": 120.0
            },
            {
                "start_time": 4.2295455,
                "end_time": 4.3295455,
                "pitch": 36,
                "velocity": 80,
                "duration": 0.1,
                "tempo": 120.0
            },
            {
                "start_time": 4.3454545,
                "end_time": 4.4295455,
                "pitch": 36,
                "velocity": 80,
                "duration": 0.0840909,
                "tempo": 120.0
            },
            {
                "start_time": 4.4454545,
                "end_time": 4.5454545,
                "pitch": 36,
                "velocity": 80,
                "duration": 0.1,
                "tempo": 120.0
            },
            {
                "start_time": 4.6795455,
                "end_time": 4.7795455,
                "pitch": 36,
                "velocity": 80,
                "duration": 0.1,
                "tempo": 120.0
            },
            {
                "start_time": 4.7977273,
                "end_time": 4.8818182,
                "pitch": 36,
                "velocity": 80,
                "duration": 0.0840909,
                "tempo": 120.0
            },
            {
                "start_time": 4.8977273,
                "end_time": 4.9977273,
                "pitch": 36,
                "velocity": 80,
                "duration": 0.1,
                "tempo": 120.0
            },
            {
                "start_time": 5.1318182,
                "end_time": 5.2318182,
                "pitch": 36,
                "velocity": 80,
                "duration": 0.1,
                "tempo": 120.0
            },
            {
                "start_time": 5.2477273,
                "end_time": 5.3318182,
                "pitch": 36,
                "velocity": 80,
                "duration": 0.0840909,
                "tempo": 120.0
            },
            {
                "start_time": 5.3477273,
                "end_time": 5.4522727,
                "pitch": 39,
                "velocity": 80,
                "duration": 0.1045455,
                "tempo": 120.0
            },
            {
                "start_time": 5.5886364,
                "end_time": 5.6909091,
                "pitch": 39,
                "velocity": 80,
                "duration": 0.1022727,
                "tempo": 120.0
            },
            {
                "start_time": 5.7068182,
                "end_time": 5.7931818,
                "pitch": 39,
                "velocity": 80,
                "duration": 0.0863636,
                "tempo": 120.0
            },
            {
                "start_time": 5.8090909,
                "end_time": 5.9090909,
                "pitch": 39,
                "velocity": 80,
                "duration": 0.1,
                "tempo": 120.0
            },
            {
                "start_time": 6.0386364,
                "end_time": 6.1363636,
                "pitch": 39,
                "velocity": 80,
                "duration": 0.0977273,
                "tempo": 120.0
            },
            {
                "start_time": 6.1522727,
                "end_time": 6.2340909,
                "pitch": 39,
                "velocity": 80,
                "duration": 0.0818182,
                "tempo": 120.0
            },
            {
                "start_time": 6.2522727,
                "end_time": 6.3545455,
                "pitch": 41,
                "velocity": 80,
                "duration": 0.1022727,
                "tempo": 120.0
            },
            {
                "start_time": 6.4909091,
                "end_time": 6.5931818,
                "pitch": 41,
                "velocity": 80,
                "duration": 0.1022727,
                "tempo": 120.0
            },
            {
                "start_time": 6.6090909,
                "end_time": 6.6954545,
                "pitch": 41,
                "velocity": 80,
                "duration": 0.0863636,
                "tempo": 120.0
            },
            {
                "start_time": 6.7136364,
                "end_time": 6.8113636,
                "pitch": 41,
                "velocity": 80,
                "duration": 0.0977273,
                "tempo": 120.0
            },
            {
                "start_time": 6.9409091,
                "end_time": 7.0386364,
                "pitch": 41,
                "velocity": 80,
                "duration": 0.0977273,
                "tempo": 120.0
            },
            {
                "start_time": 7.0568182,
                "end_time": 7.1386364,
                "pitch": 41,
                "velocity": 80,
                "duration": 0.0818182,
                "tempo": 120.0
            },
            {
                "start_time": 7.1545455,
                "end_time": 7.2545455,
                "pitch": 44,
                "velocity": 80,
                "duration": 0.1,
                "tempo": 120.0
            },
            {
                "start_time": 7.3886364,
                "end_time": 7.4886364,
                "pitch": 44,
                "velocity": 80,
                "duration": 0.1,
                "tempo": 120.0
            },
            {
                "start_time": 7.5045455,
                "end_time": 7.5886364,
                "pitch": 44,
                "velocity": 80,
                "duration": 0.0840909,
                "tempo": 120.0
            },
            {
                "start_time": 7.6045455,
                "end_time": 7.7045455,
                "pitch": 44,
                "velocity": 80,
                "duration": 0.1,
                "tempo": 120.0
            },
            {
                "start_time": 7.8386364,
                "end_time": 7.9386364,
                "pitch": 44,
                "velocity": 80,
                "duration": 0.1,
                "tempo": 120.0
            },
            {
                "start_time": 7.9568182,
                "end_time": 8.0386364,
                "pitch": 44,
                "velocity": 80,
                "duration": 0.0818182,
                "tempo": 120.0
            },
            {
                "start_time": 8.0568182,
                "end_time": 8.1568182,
                "pitch": 44,
                "velocity": 80,
                "duration": 0.1,
                "tempo": 120.0
            },
            {
                "start_time": 8.2909091,
                "end_time": 8.3909091,
                "pitch": 44,
                "velocity": 80,
                "duration": 0.1,
                "tempo": 120.0
            },
            {
                "start_time": 8.4068182,
                "end_time": 8.4909091,
                "pitch": 44,
                "velocity": 80,
                "duration": 0.0840909,
                "tempo": 120.0
            },
            {
                "start_time": 8.5068182,
                "end_time": 8.6068182,
                "pitch": 44,
                "velocity": 80,
                "duration": 0.1,
                "tempo": 120.0
            },
            {
                "start_time": 8.7409091,
                "end_time": 8.8409091,
                "pitch": 44,
                "velocity": 80,
                "duration": 0.1,
                "tempo": 120.0
            },
            {
                "start_time": 8.8590909,
                "end_time": 8.9431818,
                "pitch": 44,
                "velocity": 80,
                "duration": 0.0840909,
                "tempo": 120.0
            },
            {
                "start_time": 8.9590909,
                "end_time": 8.975,
                "pitch": 42,
                "velocity": 80,
                "duration": 0.0159091,
                "tempo": 120.0
            },
            {
                "start_time": 8.975,
                "end_time": 9.0590909,
                "pitch": 43,
                "velocity": 80,
                "duration": 0.0840909,
                "tempo": 120.0
            },
            {
                "start_time": 9.1931818,
                "end_time": 9.2090909,
                "pitch": 42,
                "velocity": 80,
                "duration": 0.0159091,
                "tempo": 120.0
            },
            {
                "start_time": 9.2090909,
                "end_time": 9.2931818,
                "pitch": 43,
                "velocity": 80,
                "duration": 0.0840909,
                "tempo": 120.0
            },
            {
                "start_time": 9.3090909,
                "end_time": 9.3272727,
                "pitch": 42,
                "velocity": 80,
                "duration": 0.0181818,
                "tempo": 120.0
            },
            {
                "start_time": 9.3272727,
                "end_time": 9.3931818,
                "pitch": 43,
                "velocity": 80,
                "duration": 0.0659091,
                "tempo": 120.0
            },
            {
                "start_time": 9.4090909,
                "end_time": 9.4272727,
                "pitch": 42,
                "velocity": 80,
                "duration": 0.0181818,
                "tempo": 120.0
            },
            {
                "start_time": 9.4272727,
                "end_time": 9.5113636,
                "pitch": 43,
                "velocity": 80,
                "duration": 0.0840909,
                "tempo": 120.0
            },
            {
                "start_time": 9.6431818,
                "end_time": 9.6613636,
                "pitch": 42,
                "velocity": 80,
                "duration": 0.0181818,
                "tempo": 120.0
            },
            {
                "start_time": 9.6613636,
                "end_time": 9.7454545,
                "pitch": 43,
                "velocity": 80,
                "duration": 0.0840909,
                "tempo": 120.0
            },
            {
                "start_time": 9.7613636,
                "end_time": 9.7772727,
                "pitch": 42,
                "velocity": 80,
                "duration": 0.0159091,
                "tempo": 120.0
            },
            {
                "start_time": 9.7772727,
                "end_time": 9.8454545,
                "pitch": 43,
                "velocity": 80,
                "duration": 0.0681818,
                "tempo": 120.0
            },
            {
                "start_time": 9.8613636,
                "end_time": 9.8772727,
                "pitch": 42,
                "velocity": 80,
                "duration": 0.0159091,
                "tempo": 120.0
            },
            {
                "start_time": 9.8772727,
                "end_time": 9.9613636,
                "pitch": 43,
                "velocity": 80,
                "duration": 0.0840909,
                "tempo": 120.0
            },
            {
                "start_time": 10.0954545,
                "end_time": 10.1113636,
                "pitch": 42,
                "velocity": 80,
                "duration": 0.0159091,
                "tempo": 120.0
            },
            {
                "start_time": 10.1113636,
                "end_time": 10.1954545,
                "pitch": 43,
                "velocity": 80,
                "duration": 0.0840909,
                "tempo": 120.0
            },
            {
                "start_time": 10.2113636,
                "end_time": 10.2295455,
                "pitch": 42,
                "velocity": 80,
                "duration": 0.0181818,
                "tempo": 120.0
            },
            {
                "start_time": 10.2295455,
                "end_time": 10.2954545,
                "pitch": 43,
                "velocity": 80,
                "duration": 0.0659091,
                "tempo": 120.0
            },
            {
                "start_time": 10.3136364,
                "end_time": 10.3295455,
                "pitch": 42,
                "velocity": 80,
                "duration": 0.0159091,
                "tempo": 120.0
            },
            {
                "start_time": 10.3295455,
                "end_time": 10.4136364,
                "pitch": 43,
                "velocity": 80,
                "duration": 0.0840909,
                "tempo": 120.0
            },
            {
                "start_time": 10.5477273,
                "end_time": 10.5636364,
                "pitch": 42,
                "velocity": 80,
                "duration": 0.0159091,
                "tempo": 120.0
            },
            {
                "start_time": 10.5636364,
                "end_time": 10.6477273,
                "pitch": 43,
                "velocity": 80,
                "duration": 0.0840909,
                "tempo": 120.0
            },
            {
                "start_time": 10.6636364,
                "end_time": 10.6795455,
                "pitch": 42,
                "velocity": 80,
                "duration": 0.0159091,
                "tempo": 120.0
            },
            {
                "start_time": 10.6795455,
                "end_time": 10.7477273,
                "pitch": 43,
                "velocity": 80,
                "duration": 0.0681818,
                "tempo": 120.0
            },
            {
                "start_time": 10.7636364,
                "end_time": 10.7795455,
                "pitch": 42,
                "velocity": 80,
                "duration": 0.0159091,
                "tempo": 120.0
            },
            {
                "start_time": 10.7795455,
                "end_time": 10.8636364,
                "pitch": 43,
                "velocity": 80,
                "duration": 0.0840909,
                "tempo": 120.0
            },
            {
                "start_time": 10.9977273,
                "end_time": 11.0136364,
                "pitch": 42,
                "velocity": 80,
                "duration": 0.0159091,
                "tempo": 120.0
            },
            {
                "start_time": 11.0136364,
                "end_time": 11.0977273,
                "pitch": 43,
                "velocity": 80,
                "duration": 0.0840909,
                "tempo": 120.0
            },
            {
                "start_time": 11.1159091,
                "end_time": 11.1318182,
                "pitch": 42,
                "velocity": 80,
                "duration": 0.0159091,
                "tempo": 120.0
            },
            {
                "start_time": 11.1318182,
                "end_time": 11.1977273,
                "pitch": 43,
                "velocity": 80,
                "duration": 0.0659091,
                "tempo": 120.0
            },
            {
                "start_time": 11.2159091,
                "end_time": 11.2318182,
                "pitch": 42,
                "velocity": 80,
                "duration": 0.0159091,
                "tempo": 120.0
            },
            {
                "start_time": 11.2318182,
                "end_time": 11.3159091,
                "pitch": 43,
                "velocity": 80,
                "duration": 0.0840909,
                "tempo": 120.0
            },
            {
                "start_time": 11.45,
                "end_time": 11.4659091,
                "pitch": 42,
                "velocity": 80,
                "duration": 0.0159091,
                "tempo": 120.0
            },
            {
                "start_time": 11.4659091,
                "end_time": 11.55,
                "pitch": 43,
                "velocity": 80,
                "duration": 0.0840909,
                "tempo": 120.0
            },
            {
                "start_time": 11.5659091,
                "end_time": 11.5818182,
                "pitch": 42,
                "velocity": 80,
                "duration": 0.0159091,
                "tempo": 120.0
            },
            {
                "start_time": 11.5818182,
                "end_time": 11.65,
                "pitch": 43,
                "velocity": 80,
                "duration": 0.0681818,
                "tempo": 120.0
            },
            {
                "start_time": 11.6659091,
                "end_time": 11.6840909,
                "pitch": 42,
                "velocity": 80,
                "duration": 0.0181818,
                "tempo": 120.0
            },
            {
                "start_time": 11.6840909,
                "end_time": 11.7659091,
                "pitch": 43,
                "velocity": 80,
                "duration": 0.0818182,
                "tempo": 120.0
            },
            {
                "start_time": 11.9,
                "end_time": 11.9159091,
                "pitch": 42,
                "velocity": 80,
                "duration": 0.0159091,
                "tempo": 120.0
            },
            {
                "start_time": 11.9159091,
                "end_time": 12.0,
                "pitch": 43,
                "velocity": 80,
                "duration": 0.0840909,
                "tempo": 120.0
            },
            {
                "start_time": 12.0181818,
                "end_time": 12.0340909,
                "pitch": 42,
                "velocity": 80,
                "duration": 0.0159091,
                "tempo": 120.0
            },
            {
                "start_time": 12.0340909,
                "end_time": 12.1,
                "pitch": 43,
                "velocity": 80,
                "duration": 0.0659091,
                "tempo": 120.0
            },
            {
                "start_time": 12.1181818,
                "end_time": 12.1340909,
                "pitch": 42,
                "velocity": 80,
                "duration": 0.0159091,
                "tempo": 120.0
            },
            {
                "start_time": 12.1340909,
                "end_time": 12.2204545,
                "pitch": 43,
                "velocity": 80,
                "duration": 0.0863636,
                "tempo": 120.0
            },
            {
                "start_time": 12.3568182,
                "end_time": 12.375,
                "pitch": 42,
                "velocity": 80,
                "duration": 0.0181818,
                "tempo": 120.0
            },
            {
                "start_time": 12.375,
                "end_time": 12.4590909,
                "pitch": 43,
                "velocity": 80,
                "duration": 0.0840909,
                "tempo": 120.0
            },
            {
                "start_time": 12.4772727,
                "end_time": 12.4931818,
                "pitch": 42,
                "velocity": 80,
                "duration": 0.0159091,
                "tempo": 120.0
            },
            {
                "start_time": 12.4931818,
                "end_time": 12.5613636,
                "pitch": 43,
                "velocity": 80,
                "duration": 0.0681818,
                "tempo": 120.0
            },
            {
                "start_time": 12.5795455,
                "end_time": 12.6795455,
                "pitch": 36,
                "velocity": 80,
                "duration": 0.1,
                "tempo": 120.0
            },
            {
                "start_time": 12.8136364,
                "end_time": 12.9136364,
                "pitch": 36,
                "velocity": 80,
                "duration": 0.1,
                "tempo": 120.0
            },
            {
                "start_time": 12.9295455,
                "end_time": 13.0136364,
                "pitch": 36,
                "velocity": 80,
                "duration": 0.0840909,
                "tempo": 120.0
            },
            {
                "start_time": 13.0295455,
                "end_time": 13.1295455,
                "pitch": 36,
                "velocity": 80,
                "duration": 0.1,
                "tempo": 120.0
            },
            {
                "start_time": 13.2590909,
                "end_time": 13.3568182,
                "pitch": 36,
                "velocity": 80,
                "duration": 0.0977273,
                "tempo": 120.0
            },
            {
                "start_time": 13.3727273,
                "end_time": 13.4545455,
                "pitch": 36,
                "velocity": 80,
                "duration": 0.0818182,
                "tempo": 120.0
            },
            {
                "start_time": 13.4727273,
                "end_time": 13.5727273,
                "pitch": 36,
                "velocity": 80,
                "duration": 0.1,
                "tempo": 120.0
            },
            {
                "start_time": 13.7068182,
                "end_time": 13.8068182,
                "pitch": 36,
                "velocity": 80,
                "duration": 0.1,
                "tempo": 120.0
            },
            {
                "start_time": 13.8227273,
                "end_time": 13.9068182,
                "pitch": 36,
                "velocity": 80,
                "duration": 0.0840909,
                "tempo": 120.0
            },
            {
                "start_time": 13.9227273,
                "end_time": 14.0227273,
                "pitch": 36,
                "velocity": 80,
                "duration": 0.1,
                "tempo": 120.0
            },
            {
                "start_time": 14.1568182,
                "end_time": 14.2568182,
                "pitch": 36,
                "velocity": 80,
                "duration": 0.1,
                "tempo": 120.0
            },
            {
                "start_time": 14.275,
                "end_time": 14.3568182,
                "pitch": 36,
                "velocity": 80,
                "duration": 0.0818182,
                "tempo": 120.0
            },
            {
                "start_time": 14.375,
                "end_time": 14.475,
                "pitch": 39,
                "velocity": 80,
                "duration": 0.1,
                "tempo": 120.0
            },
            {
                "start_time": 14.6090909,
                "end_time": 14.7090909,
                "pitch": 39,
                "velocity": 80,
                "duration": 0.1,
                "tempo": 120.0
            },
            {
                "start_time": 14.725,
                "end_time": 14.8090909,
                "pitch": 39,
                "velocity": 80,
                "duration": 0.0840909,
                "tempo": 120.0
            },
            {
                "start_time": 14.825,
                "end_time": 14.925,
                "pitch": 39,
                "velocity": 80,
                "duration": 0.1,
                "tempo": 120.0
            },
            {
                "start_time": 15.0590909,
                "end_time": 15.1590909,
                "pitch": 39,
                "velocity": 80,
                "duration": 0.1,
                "tempo": 120.0
            },
            {
                "start_time": 15.1772727,
                "end_time": 15.2590909,
                "pitch": 39,
                "velocity": 80,
                "duration": 0.0818182,
                "tempo": 120.0
            },
            {
                "start_time": 15.2772727,
                "end_time": 15.3772727,
                "pitch": 41,
                "velocity": 80,
                "duration": 0.1,
                "tempo": 120.0
            },
            {
                "start_time": 15.5113636,
                "end_time": 15.6113636,
                "pitch": 41,
                "velocity": 80,
                "duration": 0.1,
                "tempo": 120.0
            },
            {
                "start_time": 15.6272727,
                "end_time": 15.7113636,
                "pitch": 41,
                "velocity": 80,
                "duration": 0.0840909,
                "tempo": 120.0
            },
            {
                "start_time": 15.7272727,
                "end_time": 15.8272727,
                "pitch": 41,
                "velocity": 80,
                "duration": 0.1,
                "tempo": 120.0
            },
            {
                "start_time": 15.9613636,
                "end_time": 16.0613636,
                "pitch": 41,
                "velocity": 80,
                "duration": 0.1,
                "tempo": 120.0
            },
            {
                "start_time": 16.0795455,
                "end_time": 16.1636364,
                "pitch": 41,
                "velocity": 80,
                "duration": 0.0840909,
                "tempo": 120.0
            },
            {
                "start_time": 16.1795455,
                "end_time": 16.2795455,
                "pitch": 36,
                "velocity": 80,
                "duration": 0.1,
                "tempo": 120.0
            },
            {
                "start_time": 16.4136364,
                "end_time": 16.5136364,
                "pitch": 36,
                "velocity": 80,
                "duration": 0.1,
                "tempo": 120.0
            },
            {
                "start_time": 16.5295455,
                "end_time": 16.6136364,
                "pitch": 36,
                "velocity": 80,
                "duration": 0.0840909,
                "tempo": 120.0
            },
            {
                "start_time": 16.6295455,
                "end_time": 16.7318182,
                "pitch": 36,
                "velocity": 80,
                "duration": 0.1022727,
                "tempo": 120.0
            },
            {
                "start_time": 16.8636364,
                "end_time": 16.9636364,
                "pitch": 36,
                "velocity": 80,
                "duration": 0.1,
                "tempo": 120.0
            },
            {
                "start_time": 16.9818182,
                "end_time": 17.0659091,
                "pitch": 36,
                "velocity": 80,
                "duration": 0.0840909,
                "tempo": 120.0
            },
            {
                "start_time": 17.0818182,
                "end_time": 17.1818182,
                "pitch": 36,
                "velocity": 80,
                "duration": 0.1,
                "tempo": 120.0
            },
            {
                "start_time": 17.3159091,
                "end_time": 17.4159091,
                "pitch": 36,
                "velocity": 80,
                "duration": 0.1,
                "tempo": 120.0
            },
            {
                "start_time": 17.4318182,
                "end_time": 17.5159091,
                "pitch": 36,
                "velocity": 80,
                "duration": 0.0840909,
                "tempo": 120.0
            },
            {
                "start_time": 17.5318182,
                "end_time": 17.6340909,
                "pitch": 36,
                "velocity": 80,
                "duration": 0.1022727,
                "tempo": 120.0
            },
            {
                "start_time": 17.7659091,
                "end_time": 17.8681818,
                "pitch": 36,
                "velocity": 80,
                "duration": 0.1022727,
                "tempo": 120.0
            },
            {
                "start_time": 17.8840909,
                "end_time": 17.9681818,
                "pitch": 36,
                "velocity": 80,
                "duration": 0.0840909,
                "tempo": 120.0
            },
            {
                "start_time": 17.9840909,
                "end_time": 18.0840909,
                "pitch": 39,
                "velocity": 80,
                "duration": 0.1,
                "tempo": 120.0
            },
            {
                "start_time": 18.2181818,
                "end_time": 18.3181818,
                "pitch": 39,
                "velocity": 80,
                "duration": 0.1,
                "tempo": 120.0
            },
            {
                "start_time": 18.3340909,
                "end_time": 18.4181818,
                "pitch": 39,
                "velocity": 80,
                "duration": 0.0840909,
                "tempo": 120.0
            },
            {
                "start_time": 18.4363636,
                "end_time": 18.5363636,
                "pitch": 39,
                "velocity": 80,
                "duration": 0.1,
                "tempo": 120.0
            },
            {
                "start_time": 18.6704545,
                "end_time": 18.7704545,
                "pitch": 39,
                "velocity": 80,
                "duration": 0.1,
                "tempo": 120.0
            },
            {
                "start_time": 18.7863636,
                "end_time": 18.8704545,
                "pitch": 39,
                "velocity": 80,
                "duration": 0.0840909,
                "tempo": 120.0
            },
            {
                "start_time": 18.8863636,
                "end_time": 18.9863636,
                "pitch": 41,
                "velocity": 80,
                "duration": 0.1,
                "tempo": 120.0
            },
            {
                "start_time": 19.1204545,
                "end_time": 19.2204545,
                "pitch": 41,
                "velocity": 80,
                "duration": 0.1,
                "tempo": 120.0
            },
            {
                "start_time": 19.2386364,
                "end_time": 19.3204545,
                "pitch": 41,
                "velocity": 80,
                "duration": 0.0818182,
                "tempo": 120.0
            },
            {
                "start_time": 19.3386364,
                "end_time": 19.4386364,
                "pitch": 41,
                "velocity": 80,
                "duration": 0.1,
                "tempo": 120.0
            },
            {
                "start_time": 19.5727273,
                "end_time": 19.6727273,
                "pitch": 41,
                "velocity": 80,
                "duration": 0.1,
                "tempo": 120.0
            },
            {
                "start_time": 19.6886364,
                "end_time": 19.7727273,
                "pitch": 41,
                "velocity": 80,
                "duration": 0.0840909,
                "tempo": 120.0
            },
            {
                "start_time": 19.7886364,
                "end_time": 19.8886364,
                "pitch": 44,
                "velocity": 80,
                "duration": 0.1,
                "tempo": 120.0
            },
            {
                "start_time": 20.0227273,
                "end_time": 20.1227273,
                "pitch": 44,
                "velocity": 80,
                "duration": 0.1,
                "tempo": 120.0
            },
            {
                "start_time": 20.1409091,
                "end_time": 20.2227273,
                "pitch": 44,
                "velocity": 80,
                "duration": 0.0818182,
                "tempo": 120.0
            },
            {
                "start_time": 20.2409091,
                "end_time": 20.3409091,
                "pitch": 44,
                "velocity": 80,
                "duration": 0.1,
                "tempo": 120.0
            },
            {
                "start_time": 20.475,
                "end_time": 20.575,
                "pitch": 44,
                "velocity": 80,
                "duration": 0.1,
                "tempo": 120.0
            },
            {
                "start_time": 20.5909091,
                "end_time": 20.675,
                "pitch": 44,
                "velocity": 80,
                "duration": 0.0840909,
                "tempo": 120.0
            },
            {
                "start_time": 20.6909091,
                "end_time": 20.7909091,
                "pitch": 44,
                "velocity": 80,
                "duration": 0.1,
                "tempo": 120.0
            },
            {
                "start_time": 20.925,
                "end_time": 21.025,
                "pitch": 44,
                "velocity": 80,
                "duration": 0.1,
                "tempo": 120.0
            },
            {
                "start_time": 21.0431818,
                "end_time": 21.1272727,
                "pitch": 44,
                "velocity": 80,
                "duration": 0.0840909,
                "tempo": 120.0
            },
            {
                "start_time": 21.1431818,
                "end_time": 21.2431818,
                "pitch": 44,
                "velocity": 80,
                "duration": 0.1,
                "tempo": 120.0
            },
            {
                "start_time": 21.3772727,
                "end_time": 21.4772727,
                "pitch": 44,
                "velocity": 80,
                "duration": 0.1,
                "tempo": 120.0
            },
            {
                "start_time": 21.4931818,
                "end_time": 21.5772727,
                "pitch": 44,
                "velocity": 80,
                "duration": 0.0840909,
                "tempo": 120.0
            },
            {
                "start_time": 21.5931818,
                "end_time": 21.6113636,
                "pitch": 42,
                "velocity": 80,
                "duration": 0.0181818,
                "tempo": 120.0
            },
            {
                "start_time": 21.6113636,
                "end_time": 21.6954545,
                "pitch": 43,
                "velocity": 80,
                "duration": 0.0840909,
                "tempo": 120.0
            },
            {
                "start_time": 21.8272727,
                "end_time": 21.8454545,
                "pitch": 42,
                "velocity": 80,
                "duration": 0.0181818,
                "tempo": 120.0
            },
            {
                "start_time": 21.8454545,
                "end_time": 21.9272727,
                "pitch": 43,
                "velocity": 80,
                "duration": 0.0818182,
                "tempo": 120.0
            },
            {
                "start_time": 21.9454545,
                "end_time": 21.9613636,
                "pitch": 42,
                "velocity": 80,
                "duration": 0.0159091,
                "tempo": 120.0
            },
            {
                "start_time": 21.9613636,
                "end_time": 22.0295455,
                "pitch": 43,
                "velocity": 80,
                "duration": 0.0681818,
                "tempo": 120.0
            },
            {
                "start_time": 22.0454545,
                "end_time": 22.0613636,
                "pitch": 42,
                "velocity": 80,
                "duration": 0.0159091,
                "tempo": 120.0
            },
            {
                "start_time": 22.0613636,
                "end_time": 22.1454545,
                "pitch": 43,
                "velocity": 80,
                "duration": 0.0840909,
                "tempo": 120.0
            },
            {
                "start_time": 22.2795455,
                "end_time": 22.2954545,
                "pitch": 42,
                "velocity": 80,
                "duration": 0.0159091,
                "tempo": 120.0
            },
            {
                "start_time": 22.2954545,
                "end_time": 22.3795455,
                "pitch": 43,
                "velocity": 80,
                "duration": 0.0840909,
                "tempo": 120.0
            },
            {
                "start_time": 22.3954545,
                "end_time": 22.4136364,
                "pitch": 42,
                "velocity": 80,
                "duration": 0.0181818,
                "tempo": 120.0
            },
            {
                "start_time": 22.4136364,
                "end_time": 22.4795455,
                "pitch": 43,
                "velocity": 80,
                "duration": 0.0659091,
                "tempo": 120.0
            },
            {
                "start_time": 22.4977273,
                "end_time": 22.5136364,
                "pitch": 42,
                "velocity": 80,
                "duration": 0.0159091,
                "tempo": 120.0
            },
            {
                "start_time": 22.5136364,
                "end_time": 22.5977273,
                "pitch": 43,
                "velocity": 80,
                "duration": 0.0840909,
                "tempo": 120.0
            },
            {
                "start_time": 22.7295455,
                "end_time": 22.7477273,
                "pitch": 42,
                "velocity": 80,
                "duration": 0.0181818,
                "tempo": 120.0
            },
            {
                "start_time": 22.7477273,
                "end_time": 22.8318182,
                "pitch": 43,
                "velocity": 80,
                "duration": 0.0840909,
                "tempo": 120.0
            },
            {
                "start_time": 22.8477273,
                "end_time": 22.8636364,
                "pitch": 42,
                "velocity": 80,
                "duration": 0.0159091,
                "tempo": 120.0
            },
            {
                "start_time": 22.8636364,
                "end_time": 22.9318182,
                "pitch": 43,
                "velocity": 80,
                "duration": 0.0681818,
                "tempo": 120.0
            },
            {
                "start_time": 22.9477273,
                "end_time": 22.9636364,
                "pitch": 42,
                "velocity": 80,
                "duration": 0.0159091,
                "tempo": 120.0
            },
            {
                "start_time": 22.9636364,
                "end_time": 23.0477273,
                "pitch": 43,
                "velocity": 80,
                "duration": 0.0840909,
                "tempo": 120.0
            },
            {
                "start_time": 23.0659091,
                "end_time": 23.1659091,
                "pitch": 41,
                "velocity": 80,
                "duration": 0.1,
                "tempo": 120.0
            },
            {
                "start_time": 23.1818182,
                "end_time": 23.2818182,
                "pitch": 38,
                "velocity": 80,
                "duration": 0.1,
                "tempo": 120.0
            },
            {
                "start_time": 23.2977273,
                "end_time": 23.3159091,
                "pitch": 42,
                "velocity": 80,
                "duration": 0.0181818,
                "tempo": 120.0
            },
            {
                "start_time": 23.3159091,
                "end_time": 23.3818182,
                "pitch": 43,
                "velocity": 80,
                "duration": 0.0659091,
                "tempo": 120.0
            },
            {
                "start_time": 23.4,
                "end_time": 23.5,
                "pitch": 36,
                "velocity": 80,
                "duration": 0.1,
                "tempo": 120.0
            },
            {
                "start_time": 23.6340909,
                "end_time": 23.7340909,
                "pitch": 36,
                "velocity": 80,
                "duration": 0.1,
                "tempo": 120.0
            },
            {
                "start_time": 23.85,
                "end_time": 24.0681818,
                "pitch": 34,
                "velocity": 80,
                "duration": 0.2181818,
                "tempo": 120.0
            },
            {
                "start_time": 24.0840909,
                "end_time": 24.1840909,
                "pitch": 36,
                "velocity": 80,
                "duration": 0.1,
                "tempo": 120.0
            },
            {
                "start_time": 24.3022727,
                "end_time": 24.4022727,
                "pitch": 24,
                "velocity": 80,
                "duration": 0.1,
                "tempo": 120.0
            },
            {
                "start_time": 24.4181818,
                "end_time": 24.5181818,
                "pitch": 24,
                "velocity": 80,
                "duration": 0.1,
                "tempo": 120.0
            },
            {
                "start_time": 24.5363636,
                "end_time": 24.6363636,
                "pitch": 39,
                "velocity": 80,
                "duration": 0.1,
                "tempo": 120.0
            },
            {
                "start_time": 24.7522727,
                "end_time": 24.8522727,
                "pitch": 38,
                "velocity": 80,
                "duration": 0.1,
                "tempo": 120.0
            },
            {
                "start_time": 24.8704545,
                "end_time": 25.0863636,
                "pitch": 34,
                "velocity": 80,
                "duration": 0.2159091,
                "tempo": 120.0
            },
            {
                "start_time": 25.2045455,
                "end_time": 25.3045455,
                "pitch": 36,
                "velocity": 80,
                "duration": 0.1,
                "tempo": 120.0
            },
            {
                "start_time": 25.4386364,
                "end_time": 25.5386364,
                "pitch": 36,
                "velocity": 80,
                "duration": 0.1,
                "tempo": 120.0
            },
            {
                "start_time": 25.6545455,
                "end_time": 25.8727273,
                "pitch": 34,
                "velocity": 80,
                "duration": 0.2181818,
                "tempo": 120.0
            },
            {
                "start_time": 25.8886364,
                "end_time": 25.9886364,
                "pitch": 36,
                "velocity": 80,
                "duration": 0.1,
                "tempo": 120.0
            },
            {
                "start_time": 26.1068182,
                "end_time": 26.2090909,
                "pitch": 24,
                "velocity": 80,
                "duration": 0.1022727,
                "tempo": 120.0
            },
            {
                "start_time": 26.225,
                "end_time": 26.3295455,
                "pitch": 24,
                "velocity": 80,
                "duration": 0.1045455,
                "tempo": 120.0
            },
            {
                "start_time": 26.3454545,
                "end_time": 26.4477273,
                "pitch": 38,
                "velocity": 80,
                "duration": 0.1022727,
                "tempo": 120.0
            },
            {
                "start_time": 26.4659091,
                "end_time": 26.55,
                "pitch": 38,
                "velocity": 80,
                "duration": 0.0840909,
                "tempo": 120.0
            },
            {
                "start_time": 26.5681818,
                "end_time": 26.6681818,
                "pitch": 39,
                "velocity": 80,
                "duration": 0.1,
                "tempo": 120.0
            },
            {
                "start_time": 26.6840909,
                "end_time": 26.7863636,
                "pitch": 39,
                "velocity": 80,
                "duration": 0.1022727,
                "tempo": 120.0
            },
            {
                "start_time": 26.8022727,
                "end_time": 26.8181818,
                "pitch": 42,
                "velocity": 80,
                "duration": 0.0159091,
                "tempo": 120.0
            },
            {
                "start_time": 26.8181818,
                "end_time": 26.9022727,
                "pitch": 43,
                "velocity": 80,
                "duration": 0.0840909,
                "tempo": 120.0
            },
            {
                "start_time": 26.9181818,
                "end_time": 26.9363636,
                "pitch": 42,
                "velocity": 80,
                "duration": 0.0181818,
                "tempo": 120.0
            },
            {
                "start_time": 26.9363636,
                "end_time": 27.0022727,
                "pitch": 43,
                "velocity": 80,
                "duration": 0.0659091,
                "tempo": 120.0
            },
            {
                "start_time": 27.0204545,
                "end_time": 27.1181818,
                "pitch": 44,
                "velocity": 80,
                "duration": 0.0977273,
                "tempo": 120.0
            },
            {
                "start_time": 27.2477273,
                "end_time": 27.3454545,
                "pitch": 44,
                "velocity": 80,
                "duration": 0.0977273,
                "tempo": 120.0
            },
            {
                "start_time": 27.3636364,
                "end_time": 27.4454545,
                "pitch": 44,
                "velocity": 80,
                "duration": 0.0818182,
                "tempo": 120.0
            },
            {
                "start_time": 27.4613636,
                "end_time": 27.5613636,
                "pitch": 44,
                "velocity": 80,
                "duration": 0.1,
                "tempo": 120.0
            },
            {
                "start_time": 27.6954545,
                "end_time": 27.7954545,
                "pitch": 44,
                "velocity": 80,
                "duration": 0.1,
                "tempo": 120.0
            },
            {
                "start_time": 27.8113636,
                "end_time": 27.8954545,
                "pitch": 44,
                "velocity": 80,
                "duration": 0.0840909,
                "tempo": 120.0
            },
            {
                "start_time": 27.9113636,
                "end_time": 28.0113636,
                "pitch": 44,
                "velocity": 80,
                "duration": 0.1,
                "tempo": 120.0
            },
            {
                "start_time": 28.1454545,
                "end_time": 28.2454545,
                "pitch": 44,
                "velocity": 80,
                "duration": 0.1,
                "tempo": 120.0
            },
            {
                "start_time": 28.2636364,
                "end_time": 28.3454545,
                "pitch": 44,
                "velocity": 80,
                "duration": 0.0818182,
                "tempo": 120.0
            },
            {
                "start_time": 28.3636364,
                "end_time": 28.4636364,
                "pitch": 44,
                "velocity": 80,
                "duration": 0.1,
                "tempo": 120.0
            },
            {
                "start_time": 28.5977273,
                "end_time": 28.6977273,
                "pitch": 44,
                "velocity": 80,
                "duration": 0.1,
                "tempo": 120.0
            },
            {
                "start_time": 28.7136364,
                "end_time": 28.7977273,
                "pitch": 44,
                "velocity": 80,
                "duration": 0.0840909,
                "tempo": 120.0
            },
            {
                "start_time": 28.8136364,
                "end_time": 28.9136364,
                "pitch": 44,
                "velocity": 80,
                "duration": 0.1,
                "tempo": 120.0
            },
            {
                "start_time": 29.0477273,
                "end_time": 29.1477273,
                "pitch": 44,
                "velocity": 80,
                "duration": 0.1,
                "tempo": 120.0
            },
            {
                "start_time": 29.1659091,
                "end_time": 29.25,
                "pitch": 44,
                "velocity": 80,
                "duration": 0.0840909,
                "tempo": 120.0
            },
            {
                "start_time": 29.2659091,
                "end_time": 29.3659091,
                "pitch": 44,
                "velocity": 80,
                "duration": 0.1,
                "tempo": 120.0
            },
            {
                "start_time": 29.5,
                "end_time": 29.6,
                "pitch": 44,
                "velocity": 80,
                "duration": 0.1,
                "tempo": 120.0
            },
            {
                "start_time": 29.6159091,
                "end_time": 29.7,
                "pitch": 44,
                "velocity": 80,
                "duration": 0.0840909,
                "tempo": 120.0
            },
            {
                "start_time": 29.7159091,
                "end_time": 29.8181818,
                "pitch": 44,
                "velocity": 80,
                "duration": 0.1022727,
                "tempo": 120.0
            },
            {
                "start_time": 29.95,
                "end_time": 30.0522727,
                "pitch": 44,
                "velocity": 80,
                "duration": 0.1022727,
                "tempo": 120.0
            },
            {
                "start_time": 30.0681818,
                "end_time": 30.1522727,
                "pitch": 44,
                "velocity": 80,
                "duration": 0.0840909,
                "tempo": 120.0
            },
            {
                "start_time": 30.1681818,
                "end_time": 30.2681818,
                "pitch": 44,
                "velocity": 80,
                "duration": 0.1,
                "tempo": 120.0
            },
            {
                "start_time": 30.4022727,
                "end_time": 30.5022727,
                "pitch": 44,
                "velocity": 80,
                "duration": 0.1,
                "tempo": 120.0
            },
            {
                "start_time": 30.5181818,
                "end_time": 30.6022727,
                "pitch": 44,
                "velocity": 80,
                "duration": 0.0840909,
                "tempo": 120.0
            },
            {
                "start_time": 30.6204545,
                "end_time": 30.6363636,
                "pitch": 42,
                "velocity": 80,
                "duration": 0.0159091,
                "tempo": 120.0
            },
            {
                "start_time": 30.6363636,
                "end_time": 30.7204545,
                "pitch": 43,
                "velocity": 80,
                "duration": 0.0840909,
                "tempo": 120.0
            },
            {
                "start_time": 30.8522727,
                "end_time": 30.8704545,
                "pitch": 42,
                "velocity": 80,
                "duration": 0.0181818,
                "tempo": 120.0
            },
            {
                "start_time": 30.8704545,
                "end_time": 30.9545455,
                "pitch": 43,
                "velocity": 80,
                "duration": 0.0840909,
                "tempo": 120.0
            },
            {
                "start_time": 30.9704545,
                "end_time": 30.9863636,
                "pitch": 42,
                "velocity": 80,
                "duration": 0.0159091,
                "tempo": 120.0
            },
            {
                "start_time": 30.9863636,
                "end_time": 31.0545455,
                "pitch": 43,
                "velocity": 80,
                "duration": 0.0681818,
                "tempo": 120.0
            },
            {
                "start_time": 31.0704545,
                "end_time": 31.0863636,
                "pitch": 42,
                "velocity": 80,
                "duration": 0.0159091,
                "tempo": 120.0
            },
            {
                "start_time": 31.0863636,
                "end_time": 31.1704545,
                "pitch": 43,
                "velocity": 80,
                "duration": 0.0840909,
                "tempo": 120.0
            },
            {
                "start_time": 31.3045455,
                "end_time": 31.3204545,
                "pitch": 42,
                "velocity": 80,
                "duration": 0.0159091,
                "tempo": 120.0
            },
            {
                "start_time": 31.3204545,
                "end_time": 31.4045455,
                "pitch": 43,
                "velocity": 80,
                "duration": 0.0840909,
                "tempo": 120.0
            },
            {
                "start_time": 31.4227273,
                "end_time": 31.4386364,
                "pitch": 42,
                "velocity": 80,
                "duration": 0.0159091,
                "tempo": 120.0
            },
            {
                "start_time": 31.4386364,
                "end_time": 31.5045455,
                "pitch": 43,
                "velocity": 80,
                "duration": 0.0659091,
                "tempo": 120.0
            },
            {
                "start_time": 31.5227273,
                "end_time": 31.5386364,
                "pitch": 42,
                "velocity": 80,
                "duration": 0.0159091,
                "tempo": 120.0
            },
            {
                "start_time": 31.5386364,
                "end_time": 31.6227273,
                "pitch": 43,
                "velocity": 80,
                "duration": 0.0840909,
                "tempo": 120.0
            },
            {
                "start_time": 31.7568182,
                "end_time": 31.7727273,
                "pitch": 42,
                "velocity": 80,
                "duration": 0.0159091,
                "tempo": 120.0
            },
            {
                "start_time": 31.7727273,
                "end_time": 31.8568182,
                "pitch": 43,
                "velocity": 80,
                "duration": 0.0840909,
                "tempo": 120.0
            },
            {
                "start_time": 31.8727273,
                "end_time": 31.8886364,
                "pitch": 42,
                "velocity": 80,
                "duration": 0.0159091,
                "tempo": 120.0
            },
            {
                "start_time": 31.8886364,
                "end_time": 31.9568182,
                "pitch": 43,
                "velocity": 80,
                "duration": 0.0681818,
                "tempo": 120.0
            },
            {
                "start_time": 31.9727273,
                "end_time": 31.9909091,
                "pitch": 42,
                "velocity": 80,
                "duration": 0.0181818,
                "tempo": 120.0
            },
            {
                "start_time": 31.9909091,
                "end_time": 32.0727273,
                "pitch": 43,
                "velocity": 80,
                "duration": 0.0818182,
                "tempo": 120.0
            },
            {
                "start_time": 32.2068182,
                "end_time": 32.2227273,
                "pitch": 42,
                "velocity": 80,
                "duration": 0.0159091,
                "tempo": 120.0
            },
            {
                "start_time": 32.2227273,
                "end_time": 32.3068182,
                "pitch": 43,
                "velocity": 80,
                "duration": 0.0840909,
                "tempo": 120.0
            },
            {
                "start_time": 32.325,
                "end_time": 32.3409091,
                "pitch": 42,
                "velocity": 80,
                "duration": 0.0159091,
                "tempo": 120.0
            },
            {
                "start_time": 32.3409091,
                "end_time": 32.4068182,
                "pitch": 43,
                "velocity": 80,
                "duration": 0.0659091,
                "tempo": 120.0
            },
            {
                "start_time": 32.425,
                "end_time": 32.4409091,
                "pitch": 42,
                "velocity": 80,
                "duration": 0.0159091,
                "tempo": 120.0
            },
            {
                "start_time": 32.4409091,
                "end_time": 32.525,
                "pitch": 43,
                "velocity": 80,
                "duration": 0.0840909,
                "tempo": 120.0
            },
            {
                "start_time": 32.6590909,
                "end_time": 32.675,
                "pitch": 42,
                "velocity": 80,
                "duration": 0.0159091,
                "tempo": 120.0
            },
            {
                "start_time": 32.675,
                "end_time": 32.7590909,
                "pitch": 43,
                "velocity": 80,
                "duration": 0.0840909,
                "tempo": 120.0
            },
            {
                "start_time": 32.775,
                "end_time": 32.7931818,
                "pitch": 42,
                "velocity": 80,
                "duration": 0.0181818,
                "tempo": 120.0
            },
            {
                "start_time": 32.7931818,
                "end_time": 32.8590909,
                "pitch": 43,
                "velocity": 80,
                "duration": 0.0659091,
                "tempo": 120.0
            },
            {
                "start_time": 32.875,
                "end_time": 32.8931818,
                "pitch": 42,
                "velocity": 80,
                "duration": 0.0181818,
                "tempo": 120.0
            },
            {
                "start_time": 32.8931818,
                "end_time": 32.975,
                "pitch": 43,
                "velocity": 80,
                "duration": 0.0818182,
                "tempo": 120.0
            },
            {
                "start_time": 33.1090909,
                "end_time": 33.1272727,
                "pitch": 42,
                "velocity": 80,
                "duration": 0.0181818,
                "tempo": 120.0
            },
            {
                "start_time": 33.1272727,
                "end_time": 33.2090909,
                "pitch": 43,
                "velocity": 80,
                "duration": 0.0818182,
                "tempo": 120.0
            },
            {
                "start_time": 33.2272727,
                "end_time": 33.2431818,
                "pitch": 42,
                "velocity": 80,
                "duration": 0.0159091,
                "tempo": 120.0
            },
            {
                "start_time": 33.2431818,
                "end_time": 33.3090909,
                "pitch": 43,
                "velocity": 80,
                "duration": 0.0659091,
                "tempo": 120.0
            },
            {
                "start_time": 33.3272727,
                "end_time": 33.3431818,
                "pitch": 42,
                "velocity": 80,
                "duration": 0.0159091,
                "tempo": 120.0
            },
            {
                "start_time": 33.3431818,
                "end_time": 33.4272727,
                "pitch": 43,
                "velocity": 80,
                "duration": 0.0840909,
                "tempo": 120.0
            },
            {
                "start_time": 33.5613636,
                "end_time": 33.5772727,
                "pitch": 42,
                "velocity": 80,
                "duration": 0.0159091,
                "tempo": 120.0
            },
            {
                "start_time": 33.5772727,
                "end_time": 33.6613636,
                "pitch": 43,
                "velocity": 80,
                "duration": 0.0840909,
                "tempo": 120.0
            },
            {
                "start_time": 33.6772727,
                "end_time": 33.6954545,
                "pitch": 42,
                "velocity": 80,
                "duration": 0.0181818,
                "tempo": 120.0
            },
            {
                "start_time": 33.6954545,
                "end_time": 33.7613636,
                "pitch": 43,
                "velocity": 80,
                "duration": 0.0659091,
                "tempo": 120.0
            },
            {
                "start_time": 33.7772727,
                "end_time": 33.7954545,
                "pitch": 42,
                "velocity": 80,
                "duration": 0.0181818,
                "tempo": 120.0
            },
            {
                "start_time": 33.7954545,
                "end_time": 33.8772727,
                "pitch": 43,
                "velocity": 80,
                "duration": 0.0818182,
                "tempo": 120.0
            },
            {
                "start_time": 34.0113636,
                "end_time": 34.0295455,
                "pitch": 42,
                "velocity": 80,
                "duration": 0.0181818,
                "tempo": 120.0
            },
            {
                "start_time": 34.0295455,
                "end_time": 34.1113636,
                "pitch": 43,
                "velocity": 80,
                "duration": 0.0818182,
                "tempo": 120.0
            },
            {
                "start_time": 34.1295455,
                "end_time": 34.1454545,
                "pitch": 42,
                "velocity": 80,
                "duration": 0.0159091,
                "tempo": 120.0
            },
            {
                "start_time": 34.1454545,
                "end_time": 34.2136364,
                "pitch": 43,
                "velocity": 80,
                "duration": 0.0681818,
                "tempo": 120.0
            },
            {
                "start_time": 34.2295455,
                "end_time": 34.3295455,
                "pitch": 41,
                "velocity": 80,
                "duration": 0.1,
                "tempo": 120.0
            },
            {
                "start_time": 34.4636364,
                "end_time": 34.5636364,
                "pitch": 41,
                "velocity": 80,
                "duration": 0.1,
                "tempo": 120.0
            },
            {
                "start_time": 34.5795455,
                "end_time": 34.6636364,
                "pitch": 41,
                "velocity": 80,
                "duration": 0.0840909,
                "tempo": 120.0
            },
            {
                "start_time": 34.6795455,
                "end_time": 34.7818182,
                "pitch": 41,
                "velocity": 80,
                "duration": 0.1022727,
                "tempo": 120.0
            },
            {
                "start_time": 34.9136364,
                "end_time": 35.0159091,
                "pitch": 41,
                "velocity": 80,
                "duration": 0.1022727,
                "tempo": 120.0
            },
            {
                "start_time": 35.0318182,
                "end_time": 35.1159091,
                "pitch": 41,
                "velocity": 80,
                "duration": 0.0840909,
                "tempo": 120.0
            },
            {
                "start_time": 35.1318182,
                "end_time": 35.2318182,
                "pitch": 41,
                "velocity": 80,
                "duration": 0.1,
                "tempo": 120.0
            },
            {
                "start_time": 35.3659091,
                "end_time": 35.4659091,
                "pitch": 41,
                "velocity": 80,
                "duration": 0.1,
                "tempo": 120.0
            },
            {
                "start_time": 35.4818182,
                "end_time": 35.5659091,
                "pitch": 41,
                "velocity": 80,
                "duration": 0.0840909,
                "tempo": 120.0
            },
            {
                "start_time": 35.5840909,
                "end_time": 35.6840909,
                "pitch": 41,
                "velocity": 80,
                "duration": 0.1,
                "tempo": 120.0
            },
            {
                "start_time": 35.8181818,
                "end_time": 35.9181818,
                "pitch": 41,
                "velocity": 80,
                "duration": 0.1,
                "tempo": 120.0
            },
            {
                "start_time": 35.9340909,
                "end_time": 36.0181818,
                "pitch": 41,
                "velocity": 80,
                "duration": 0.0840909,
                "tempo": 120.0
            },
            {
                "start_time": 36.0340909,
                "end_time": 36.1340909,
                "pitch": 41,
                "velocity": 80,
                "duration": 0.1,
                "tempo": 120.0
            },
            {
                "start_time": 36.2681818,
                "end_time": 36.3681818,
                "pitch": 41,
                "velocity": 80,
                "duration": 0.1,
                "tempo": 120.0
            },
            {
                "start_time": 36.3863636,
                "end_time": 36.4681818,
                "pitch": 41,
                "velocity": 80,
                "duration": 0.0818182,
                "tempo": 120.0
            },
            {
                "start_time": 36.4863636,
                "end_time": 36.5863636,
                "pitch": 41,
                "velocity": 80,
                "duration": 0.1,
                "tempo": 120.0
            },
            {
                "start_time": 36.7204545,
                "end_time": 36.8204545,
                "pitch": 41,
                "velocity": 80,
                "duration": 0.1,
                "tempo": 120.0
            },
            {
                "start_time": 36.8363636,
                "end_time": 36.9204545,
                "pitch": 41,
                "velocity": 80,
                "duration": 0.0840909,
                "tempo": 120.0
            },
            {
                "start_time": 36.9363636,
                "end_time": 37.0363636,
                "pitch": 41,
                "velocity": 80,
                "duration": 0.1,
                "tempo": 120.0
            },
            {
                "start_time": 37.1704545,
                "end_time": 37.2704545,
                "pitch": 41,
                "velocity": 80,
                "duration": 0.1,
                "tempo": 120.0
            },
            {
                "start_time": 37.2886364,
                "end_time": 37.3704545,
                "pitch": 41,
                "velocity": 80,
                "duration": 0.0818182,
                "tempo": 120.0
            },
            {
                "start_time": 37.3886364,
                "end_time": 37.4886364,
                "pitch": 41,
                "velocity": 80,
                "duration": 0.1,
                "tempo": 120.0
            },
            {
                "start_time": 37.6227273,
                "end_time": 37.7227273,
                "pitch": 41,
                "velocity": 80,
                "duration": 0.1,
                "tempo": 120.0
            },
            {
                "start_time": 37.7386364,
                "end_time": 37.8227273,
                "pitch": 41,
                "velocity": 80,
                "duration": 0.0840909,
                "tempo": 120.0
            },
            {
                "start_time": 37.8386364,
                "end_time": 37.9386364,
                "pitch": 39,
                "velocity": 80,
                "duration": 0.1,
                "tempo": 120.0
            },
            {
                "start_time": 38.0727273,
                "end_time": 38.1727273,
                "pitch": 39,
                "velocity": 80,
                "duration": 0.1,
                "tempo": 120.0
            },
            {
                "start_time": 38.1909091,
                "end_time": 38.2727273,
                "pitch": 39,
                "velocity": 80,
                "duration": 0.0818182,
                "tempo": 120.0
            },
            {
                "start_time": 38.2909091,
                "end_time": 38.3909091,
                "pitch": 39,
                "velocity": 80,
                "duration": 0.1,
                "tempo": 120.0
            },
            {
                "start_time": 38.525,
                "end_time": 38.625,
                "pitch": 39,
                "velocity": 80,
                "duration": 0.1,
                "tempo": 120.0
            },
            {
                "start_time": 38.6409091,
                "end_time": 38.725,
                "pitch": 39,
                "velocity": 80,
                "duration": 0.0840909,
                "tempo": 120.0
            },
            {
                "start_time": 38.7409091,
                "end_time": 38.8409091,
                "pitch": 39,
                "velocity": 80,
                "duration": 0.1,
                "tempo": 120.0
            },
            {
                "start_time": 38.975,
                "end_time": 39.075,
                "pitch": 39,
                "velocity": 80,
                "duration": 0.1,
                "tempo": 120.0
            },
            {
                "start_time": 39.0931818,
                "end_time": 39.1772727,
                "pitch": 39,
                "velocity": 80,
                "duration": 0.0840909,
                "tempo": 120.0
            },
            {
                "start_time": 39.1931818,
                "end_time": 39.2931818,
                "pitch": 39,
                "velocity": 80,
                "duration": 0.1,
                "tempo": 120.0
            },
            {
                "start_time": 39.4272727,
                "end_time": 39.5272727,
                "pitch": 39,
                "velocity": 80,
                "duration": 0.1,
                "tempo": 120.0
            },
            {
                "start_time": 39.5431818,
                "end_time": 39.6272727,
                "pitch": 41,
                "velocity": 80,
                "duration": 0.0840909,
                "tempo": 120.0
            },
            {
                "start_time": 39.6431818,
                "end_time": 39.6613636,
                "pitch": 42,
                "velocity": 80,
                "duration": 0.0181818,
                "tempo": 120.0
            },
            {
                "start_time": 39.6613636,
                "end_time": 39.7454545,
                "pitch": 43,
                "velocity": 80,
                "duration": 0.0840909,
                "tempo": 120.0
            },
            {
                "start_time": 39.8772727,
                "end_time": 39.8954545,
                "pitch": 42,
                "velocity": 80,
                "duration": 0.0181818,
                "tempo": 120.0
            },
            {
                "start_time": 39.8954545,
                "end_time": 39.9795455,
                "pitch": 43,
                "velocity": 80,
                "duration": 0.0840909,
                "tempo": 120.0
            },
            {
                "start_time": 39.9954545,
                "end_time": 40.0113636,
                "pitch": 42,
                "velocity": 80,
                "duration": 0.0159091,
                "tempo": 120.0
            },
            {
                "start_time": 40.0113636,
                "end_time": 40.0795455,
                "pitch": 43,
                "velocity": 80,
                "duration": 0.0681818,
                "tempo": 120.0
            },
            {
                "start_time": 40.0954545,
                "end_time": 40.1113636,
                "pitch": 42,
                "velocity": 80,
                "duration": 0.0159091,
                "tempo": 120.0
            },
            {
                "start_time": 40.1113636,
                "end_time": 40.1954545,
                "pitch": 43,
                "velocity": 80,
                "duration": 0.0840909,
                "tempo": 120.0
            },
            {
                "start_time": 40.3295455,
                "end_time": 40.3454545,
                "pitch": 42,
                "velocity": 80,
                "duration": 0.0159091,
                "tempo": 120.0
            },
            {
                "start_time": 40.3454545,
                "end_time": 40.4295455,
                "pitch": 43,
                "velocity": 80,
                "duration": 0.0840909,
                "tempo": 120.0
            },
            {
                "start_time": 40.4454545,
                "end_time": 40.4636364,
                "pitch": 42,
                "velocity": 80,
                "duration": 0.0181818,
                "tempo": 120.0
            },
            {
                "start_time": 40.4636364,
                "end_time": 40.5295455,
                "pitch": 43,
                "velocity": 80,
                "duration": 0.0659091,
                "tempo": 120.0
            },
            {
                "start_time": 40.5477273,
                "end_time": 40.5636364,
                "pitch": 42,
                "velocity": 80,
                "duration": 0.0159091,
                "tempo": 120.0
            },
            {
                "start_time": 40.5636364,
                "end_time": 40.6477273,
                "pitch": 43,
                "velocity": 80,
                "duration": 0.0840909,
                "tempo": 120.0
            },
            {
                "start_time": 40.7818182,
                "end_time": 40.7977273,
                "pitch": 42,
                "velocity": 80,
                "duration": 0.0159091,
                "tempo": 120.0
            },
            {
                "start_time": 40.7977273,
                "end_time": 40.8818182,
                "pitch": 43,
                "velocity": 80,
                "duration": 0.0840909,
                "tempo": 120.0
            },
            {
                "start_time": 40.8977273,
                "end_time": 40.9136364,
                "pitch": 42,
                "velocity": 80,
                "duration": 0.0159091,
                "tempo": 120.0
            },
            {
                "start_time": 40.9136364,
                "end_time": 40.9818182,
                "pitch": 43,
                "velocity": 80,
                "duration": 0.0681818,
                "tempo": 120.0
            },
            {
                "start_time": 40.9977273,
                "end_time": 41.0159091,
                "pitch": 42,
                "velocity": 80,
                "duration": 0.0181818,
                "tempo": 120.0
            },
            {
                "start_time": 41.0159091,
                "end_time": 41.1,
                "pitch": 43,
                "velocity": 80,
                "duration": 0.0840909,
                "tempo": 120.0
            },
            {
                "start_time": 41.2363636,
                "end_time": 41.2545455,
                "pitch": 42,
                "velocity": 80,
                "duration": 0.0181818,
                "tempo": 120.0
            },
            {
                "start_time": 41.2545455,
                "end_time": 41.3386364,
                "pitch": 43,
                "velocity": 80,
                "duration": 0.0840909,
                "tempo": 120.0
            },
            {
                "start_time": 41.3568182,
                "end_time": 41.375,
                "pitch": 42,
                "velocity": 80,
                "duration": 0.0181818,
                "tempo": 120.0
            },
            {
                "start_time": 41.375,
                "end_time": 41.4431818,
                "pitch": 43,
                "velocity": 80,
                "duration": 0.0681818,
                "tempo": 120.0
            },
            {
                "start_time": 41.4590909,
                "end_time": 41.5568182,
                "pitch": 44,
                "velocity": 80,
                "duration": 0.0977273,
                "tempo": 120.0
            },
            {
                "start_time": 41.6886364,
                "end_time": 41.7863636,
                "pitch": 44,
                "velocity": 80,
                "duration": 0.0977273,
                "tempo": 120.0
            },
            {
                "start_time": 41.8022727,
                "end_time": 41.8840909,
                "pitch": 44,
                "velocity": 80,
                "duration": 0.0818182,
                "tempo": 120.0
            },
            {
                "start_time": 41.9,
                "end_time": 42.0,
                "pitch": 44,
                "velocity": 80,
                "duration": 0.1,
                "tempo": 120.0
            },
            {
                "start_time": 42.1340909,
                "end_time": 42.2340909,
                "pitch": 44,
                "velocity": 80,
                "duration": 0.1,
                "tempo": 120.0
            },
            {
                "start_time": 42.2522727,
                "end_time": 42.3340909,
                "pitch": 44,
                "velocity": 80,
                "duration": 0.0818182,
                "tempo": 120.0
            },
            {
                "start_time": 42.3522727,
                "end_time": 42.4522727,
                "pitch": 44,
                "velocity": 80,
                "duration": 0.1,
                "tempo": 120.0
            },
            {
                "start_time": 42.5863636,
                "end_time": 42.6863636,
                "pitch": 44,
                "velocity": 80,
                "duration": 0.1,
                "tempo": 120.0
            },
            {
                "start_time": 42.7022727,
                "end_time": 42.7863636,
                "pitch": 44,
                "velocity": 80,
                "duration": 0.0840909,
                "tempo": 120.0
            },
            {
                "start_time": 42.8022727,
                "end_time": 42.9045455,
                "pitch": 44,
                "velocity": 80,
                "duration": 0.1022727,
                "tempo": 120.0
            },
            {
                "start_time": 43.0363636,
                "end_time": 43.1363636,
                "pitch": 44,
                "velocity": 80,
                "duration": 0.1,
                "tempo": 120.0
            },
            {
                "start_time": 43.1545455,
                "end_time": 43.2386364,
                "pitch": 44,
                "velocity": 80,
                "duration": 0.0840909,
                "tempo": 120.0
            },
            {
                "start_time": 43.2545455,
                "end_time": 43.3545455,
                "pitch": 44,
                "velocity": 80,
                "duration": 0.1,
                "tempo": 120.0
            },
            {
                "start_time": 43.4886364,
                "end_time": 43.5886364,
                "pitch": 44,
                "velocity": 80,
                "duration": 0.1,
                "tempo": 120.0
            },
            {
                "start_time": 43.6045455,
                "end_time": 43.6886364,
                "pitch": 44,
                "velocity": 80,
                "duration": 0.0840909,
                "tempo": 120.0
            },
            {
                "start_time": 43.7045455,
                "end_time": 43.8068182,
                "pitch": 44,
                "velocity": 80,
                "duration": 0.1022727,
                "tempo": 120.0
            },
            {
                "start_time": 43.9386364,
                "end_time": 44.0409091,
                "pitch": 44,
                "velocity": 80,
                "duration": 0.1022727,
                "tempo": 120.0
            },
            {
                "start_time": 44.0568182,
                "end_time": 44.1409091,
                "pitch": 44,
                "velocity": 80,
                "duration": 0.0840909,
                "tempo": 120.0
            },
            {
                "start_time": 44.1568182,
                "end_time": 44.2568182,
                "pitch": 44,
                "velocity": 80,
                "duration": 0.1,
                "tempo": 120.0
            },
            {
                "start_time": 44.3909091,
                "end_time": 44.4909091,
                "pitch": 44,
                "velocity": 80,
                "duration": 0.1,
                "tempo": 120.0
            },
            {
                "start_time": 44.5068182,
                "end_time": 44.5909091,
                "pitch": 44,
                "velocity": 80,
                "duration": 0.0840909,
                "tempo": 120.0
            },
            {
                "start_time": 44.6090909,
                "end_time": 44.7090909,
                "pitch": 44,
                "velocity": 80,
                "duration": 0.1,
                "tempo": 120.0
            },
            {
                "start_time": 44.8431818,
                "end_time": 44.9431818,
                "pitch": 44,
                "velocity": 80,
                "duration": 0.1,
                "tempo": 120.0
            },
            {
                "start_time": 44.9590909,
                "end_time": 45.0431818,
                "pitch": 44,
                "velocity": 80,
                "duration": 0.0840909,
                "tempo": 120.0
            },
            {
                "start_time": 45.0590909,
                "end_time": 45.075,
                "pitch": 42,
                "velocity": 80,
                "duration": 0.0159091,
                "tempo": 120.0
            },
            {
                "start_time": 45.075,
                "end_time": 45.1590909,
                "pitch": 43,
                "velocity": 80,
                "duration": 0.0840909,
                "tempo": 120.0
            },
            {
                "start_time": 45.2931818,
                "end_time": 45.3090909,
                "pitch": 42,
                "velocity": 80,
                "duration": 0.0159091,
                "tempo": 120.0
            },
            {
                "start_time": 45.3090909,
                "end_time": 45.3931818,
                "pitch": 43,
                "velocity": 80,
                "duration": 0.0840909,
                "tempo": 120.0
            },
            {
                "start_time": 45.4113636,
                "end_time": 45.4272727,
                "pitch": 42,
                "velocity": 80,
                "duration": 0.0159091,
                "tempo": 120.0
            },
            {
                "start_time": 45.4272727,
                "end_time": 45.4931818,
                "pitch": 43,
                "velocity": 80,
                "duration": 0.0659091,
                "tempo": 120.0
            },
            {
                "start_time": 45.5113636,
                "end_time": 45.5272727,
                "pitch": 42,
                "velocity": 80,
                "duration": 0.0159091,
                "tempo": 120.0
            },
            {
                "start_time": 45.5272727,
                "end_time": 45.6113636,
                "pitch": 43,
                "velocity": 80,
                "duration": 0.0840909,
                "tempo": 120.0
            },
            {
                "start_time": 45.7454545,
                "end_time": 45.7613636,
                "pitch": 42,
                "velocity": 80,
                "duration": 0.0159091,
                "tempo": 120.0
            },
            {
                "start_time": 45.7613636,
                "end_time": 45.8454545,
                "pitch": 43,
                "velocity": 80,
                "duration": 0.0840909,
                "tempo": 120.0
            },
            {
                "start_time": 45.8613636,
                "end_time": 45.8772727,
                "pitch": 42,
                "velocity": 80,
                "duration": 0.0159091,
                "tempo": 120.0
            },
            {
                "start_time": 45.8772727,
                "end_time": 45.9454545,
                "pitch": 43,
                "velocity": 80,
                "duration": 0.0681818,
                "tempo": 120.0
            },
            {
                "start_time": 45.9613636,
                "end_time": 45.9795455,
                "pitch": 42,
                "velocity": 80,
                "duration": 0.0181818,
                "tempo": 120.0
            },
            {
                "start_time": 45.9795455,
                "end_time": 46.0613636,
                "pitch": 43,
                "velocity": 80,
                "duration": 0.0818182,
                "tempo": 120.0
            },
            {
                "start_time": 46.1954545,
                "end_time": 46.2136364,
                "pitch": 42,
                "velocity": 80,
                "duration": 0.0181818,
                "tempo": 120.0
            },
            {
                "start_time": 46.2136364,
                "end_time": 46.2954545,
                "pitch": 43,
                "velocity": 80,
                "duration": 0.0818182,
                "tempo": 120.0
            },
            {
                "start_time": 46.3136364,
                "end_time": 46.3295455,
                "pitch": 42,
                "velocity": 80,
                "duration": 0.0159091,
                "tempo": 120.0
            },
            {
                "start_time": 46.3295455,
                "end_time": 46.3954545,
                "pitch": 43,
                "velocity": 80,
                "duration": 0.0659091,
                "tempo": 120.0
            },
            {
                "start_time": 46.4136364,
                "end_time": 46.4295455,
                "pitch": 42,
                "velocity": 80,
                "duration": 0.0159091,
                "tempo": 120.0
            },
            {
                "start_time": 46.4295455,
                "end_time": 46.5136364,
                "pitch": 43,
                "velocity": 80,
                "duration": 0.0840909,
                "tempo": 120.0
            },
            {
                "start_time": 46.6477273,
                "end_time": 46.6636364,
                "pitch": 42,
                "velocity": 80,
                "duration": 0.0159091,
                "tempo": 120.0
            },
            {
                "start_time": 46.6636364,
                "end_time": 46.7477273,
                "pitch": 43,
                "velocity": 80,
                "duration": 0.0840909,
                "tempo": 120.0
            },
            {
                "start_time": 46.7636364,
                "end_time": 46.7818182,
                "pitch": 42,
                "velocity": 80,
                "duration": 0.0181818,
                "tempo": 120.0
            },
            {
                "start_time": 46.7818182,
                "end_time": 46.8477273,
                "pitch": 43,
                "velocity": 80,
                "duration": 0.0659091,
                "tempo": 120.0
            },
            {
                "start_time": 46.8636364,
                "end_time": 46.8818182,
                "pitch": 42,
                "velocity": 80,
                "duration": 0.0181818,
                "tempo": 120.0
            },
            {
                "start_time": 46.8818182,
                "end_time": 46.9636364,
                "pitch": 43,
                "velocity": 80,
                "duration": 0.0818182,
                "tempo": 120.0
            },
            {
                "start_time": 47.0977273,
                "end_time": 47.1159091,
                "pitch": 42,
                "velocity": 80,
                "duration": 0.0181818,
                "tempo": 120.0
            },
            {
                "start_time": 47.1159091,
                "end_time": 47.1977273,
                "pitch": 43,
                "velocity": 80,
                "duration": 0.0818182,
                "tempo": 120.0
            },
            {
                "start_time": 47.2159091,
                "end_time": 47.2318182,
                "pitch": 42,
                "velocity": 80,
                "duration": 0.0159091,
                "tempo": 120.0
            },
            {
                "start_time": 47.2318182,
                "end_time": 47.3,
                "pitch": 43,
                "velocity": 80,
                "duration": 0.0681818,
                "tempo": 120.0
            },
            {
                "start_time": 47.3159091,
                "end_time": 47.3318182,
                "pitch": 42,
                "velocity": 80,
                "duration": 0.0159091,
                "tempo": 120.0
            },
            {
                "start_time": 47.3318182,
                "end_time": 47.4159091,
                "pitch": 43,
                "velocity": 80,
                "duration": 0.0840909,
                "tempo": 120.0
            },
            {
                "start_time": 47.55,
                "end_time": 47.5659091,
                "pitch": 42,
                "velocity": 80,
                "duration": 0.0159091,
                "tempo": 120.0
            },
            {
                "start_time": 47.5659091,
                "end_time": 47.65,
                "pitch": 43,
                "velocity": 80,
                "duration": 0.0840909,
                "tempo": 120.0
            },
            {
                "start_time": 47.6659091,
                "end_time": 47.6840909,
                "pitch": 42,
                "velocity": 80,
                "duration": 0.0181818,
                "tempo": 120.0
            },
            {
                "start_time": 47.6840909,
                "end_time": 47.75,
                "pitch": 43,
                "velocity": 80,
                "duration": 0.0659091,
                "tempo": 120.0
            },
            {
                "start_time": 47.7659091,
                "end_time": 47.7840909,
                "pitch": 42,
                "velocity": 80,
                "duration": 0.0181818,
                "tempo": 120.0
            },
            {
                "start_time": 47.7840909,
                "end_time": 47.8681818,
                "pitch": 43,
                "velocity": 80,
                "duration": 0.0840909,
                "tempo": 120.0
            },
            {
                "start_time": 48.0,
                "end_time": 48.0181818,
                "pitch": 42,
                "velocity": 80,
                "duration": 0.0181818,
                "tempo": 120.0
            },
            {
                "start_time": 48.0181818,
                "end_time": 48.1,
                "pitch": 43,
                "velocity": 80,
                "duration": 0.0818182,
                "tempo": 120.0
            },
            {
                "start_time": 48.1181818,
                "end_time": 48.1340909,
                "pitch": 42,
                "velocity": 80,
                "duration": 0.0159091,
                "tempo": 120.0
            },
            {
                "start_time": 48.1340909,
                "end_time": 48.2022727,
                "pitch": 43,
                "velocity": 80,
                "duration": 0.0681818,
                "tempo": 120.0
            },
            {
                "start_time": 48.2181818,
                "end_time": 48.2340909,
                "pitch": 42,
                "velocity": 80,
                "duration": 0.0159091,
                "tempo": 120.0
            },
            {
                "start_time": 48.2340909,
                "end_time": 48.3181818,
                "pitch": 43,
                "velocity": 80,
                "duration": 0.0840909,
                "tempo": 120.0
            },
            {
                "start_time": 48.4522727,
                "end_time": 48.4681818,
                "pitch": 42,
                "velocity": 80,
                "duration": 0.0159091,
                "tempo": 120.0
            },
            {
                "start_time": 48.4681818,
                "end_time": 48.5522727,
                "pitch": 43,
                "velocity": 80,
                "duration": 0.0840909,
                "tempo": 120.0
            },
            {
                "start_time": 48.5681818,
                "end_time": 48.5863636,
                "pitch": 42,
                "velocity": 80,
                "duration": 0.0181818,
                "tempo": 120.0
            },
            {
                "start_time": 48.5863636,
                "end_time": 48.6522727,
                "pitch": 43,
                "velocity": 80,
                "duration": 0.0659091,
                "tempo": 120.0
            },
            {
                "start_time": 48.6681818,
                "end_time": 48.7704545,
                "pitch": 41,
                "velocity": 80,
                "duration": 0.1022727,
                "tempo": 120.0
            },
            {
                "start_time": 48.9022727,
                "end_time": 49.0045455,
                "pitch": 41,
                "velocity": 80,
                "duration": 0.1022727,
                "tempo": 120.0
            },
            {
                "start_time": 49.0204545,
                "end_time": 49.1045455,
                "pitch": 41,
                "velocity": 80,
                "duration": 0.0840909,
                "tempo": 120.0
            },
            {
                "start_time": 49.1204545,
                "end_time": 49.2204545,
                "pitch": 41,
                "velocity": 80,
                "duration": 0.1,
                "tempo": 120.0
            },
            {
                "start_time": 49.3545455,
                "end_time": 49.4545455,
                "pitch": 41,
                "velocity": 80,
                "duration": 0.1,
                "tempo": 120.0
            },
            {
                "start_time": 49.4704545,
                "end_time": 49.5545455,
                "pitch": 41,
                "velocity": 80,
                "duration": 0.0840909,
                "tempo": 120.0
            },
            {
                "start_time": 49.5727273,
                "end_time": 49.6727273,
                "pitch": 41,
                "velocity": 80,
                "duration": 0.1,
                "tempo": 120.0
            },
            {
                "start_time": 49.8068182,
                "end_time": 49.9068182,
                "pitch": 41,
                "velocity": 80,
                "duration": 0.1,
                "tempo": 120.0
            },
            {
                "start_time": 49.9227273,
                "end_time": 50.0068182,
                "pitch": 41,
                "velocity": 80,
                "duration": 0.0840909,
                "tempo": 120.0
            },
            {
                "start_time": 50.0227273,
                "end_time": 50.1227273,
                "pitch": 41,
                "velocity": 80,
                "duration": 0.1,
                "tempo": 120.0
            },
            {
                "start_time": 50.2568182,
                "end_time": 50.3568182,
                "pitch": 41,
                "velocity": 80,
                "duration": 0.1,
                "tempo": 120.0
            },
            {
                "start_time": 50.375,
                "end_time": 50.4568182,
                "pitch": 41,
                "velocity": 80,
                "duration": 0.0818182,
                "tempo": 120.0
            },
            {
                "start_time": 50.475,
                "end_time": 50.575,
                "pitch": 37,
                "velocity": 80,
                "duration": 0.1,
                "tempo": 120.0
            },
            {
                "start_time": 50.7090909,
                "end_time": 50.8090909,
                "pitch": 37,
                "velocity": 80,
                "duration": 0.1,
                "tempo": 120.0
            },
            {
                "start_time": 50.825,
                "end_time": 50.9090909,
                "pitch": 37,
                "velocity": 80,
                "duration": 0.0840909,
                "tempo": 120.0
            },
            {
                "start_time": 50.925,
                "end_time": 51.025,
                "pitch": 37,
                "velocity": 80,
                "duration": 0.1,
                "tempo": 120.0
            },
            {
                "start_time": 51.1590909,
                "end_time": 51.2590909,
                "pitch": 37,
                "velocity": 80,
                "duration": 0.1,
                "tempo": 120.0
            },
            {
                "start_time": 51.2772727,
                "end_time": 51.3590909,
                "pitch": 37,
                "velocity": 80,
                "duration": 0.0818182,
                "tempo": 120.0
            },
            {
                "start_time": 51.3772727,
                "end_time": 51.4772727,
                "pitch": 37,
                "velocity": 80,
                "duration": 0.1,
                "tempo": 120.0
            },
            {
                "start_time": 51.6113636,
                "end_time": 51.7113636,
                "pitch": 37,
                "velocity": 80,
                "duration": 0.1,
                "tempo": 120.0
            },
            {
                "start_time": 51.7272727,
                "end_time": 51.8113636,
                "pitch": 37,
                "velocity": 80,
                "duration": 0.0840909,
                "tempo": 120.0
            },
            {
                "start_time": 51.8272727,
                "end_time": 51.9272727,
                "pitch": 37,
                "velocity": 80,
                "duration": 0.1,
                "tempo": 120.0
            },
            {
                "start_time": 52.0613636,
                "end_time": 52.1613636,
                "pitch": 37,
                "velocity": 80,
                "duration": 0.1,
                "tempo": 120.0
            },
            {
                "start_time": 52.1795455,
                "end_time": 52.2636364,
                "pitch": 37,
                "velocity": 80,
                "duration": 0.0840909,
                "tempo": 120.0
            },
            {
                "start_time": 52.2795455,
                "end_time": 52.3795455,
                "pitch": 34,
                "velocity": 80,
                "duration": 0.1,
                "tempo": 120.0
            },
            {
                "start_time": 52.5136364,
                "end_time": 52.6136364,
                "pitch": 34,
                "velocity": 80,
                "duration": 0.1,
                "tempo": 120.0
            },
            {
                "start_time": 52.6295455,
                "end_time": 52.7136364,
                "pitch": 34,
                "velocity": 80,
                "duration": 0.0840909,
                "tempo": 120.0
            },
            {
                "start_time": 52.7295455,
                "end_time": 52.8318182,
                "pitch": 34,
                "velocity": 80,
                "duration": 0.1022727,
                "tempo": 120.0
            },
            {
                "start_time": 52.9636364,
                "end_time": 53.0636364,
                "pitch": 34,
                "velocity": 80,
                "duration": 0.1,
                "tempo": 120.0
            },
            {
                "start_time": 53.0818182,
                "end_time": 53.1659091,
                "pitch": 34,
                "velocity": 80,
                "duration": 0.0840909,
                "tempo": 120.0
            },
            {
                "start_time": 53.1818182,
                "end_time": 53.2818182,
                "pitch": 34,
                "velocity": 80,
                "duration": 0.1,
                "tempo": 120.0
            },
            {
                "start_time": 53.4159091,
                "end_time": 53.5159091,
                "pitch": 34,
                "velocity": 80,
                "duration": 0.1,
                "tempo": 120.0
            },
            {
                "start_time": 53.5318182,
                "end_time": 53.6159091,
                "pitch": 34,
                "velocity": 80,
                "duration": 0.0840909,
                "tempo": 120.0
            },
            {
                "start_time": 53.6340909,
                "end_time": 53.7340909,
                "pitch": 34,
                "velocity": 80,
                "duration": 0.1,
                "tempo": 120.0
            },
            {
                "start_time": 53.8659091,
                "end_time": 53.9681818,
                "pitch": 34,
                "velocity": 80,
                "duration": 0.1022727,
                "tempo": 120.0
            },
            {
                "start_time": 53.9840909,
                "end_time": 54.0681818,
                "pitch": 34,
                "velocity": 80,
                "duration": 0.0840909,
                "tempo": 120.0
            },
            {
                "start_time": 54.0840909,
                "end_time": 54.1,
                "pitch": 30,
                "velocity": 80,
                "duration": 0.0159091,
                "tempo": 120.0
            },
            {
                "start_time": 54.1,
                "end_time": 54.1840909,
                "pitch": 31,
                "velocity": 80,
                "duration": 0.0840909,
                "tempo": 120.0
            },
            {
                "start_time": 54.3181818,
                "end_time": 54.3340909,
                "pitch": 30,
                "velocity": 80,
                "duration": 0.0159091,
                "tempo": 120.0
            },
            {
                "start_time": 54.3340909,
                "end_time": 54.4181818,
                "pitch": 31,
                "velocity": 80,
                "duration": 0.0840909,
                "tempo": 120.0
            },
            {
                "start_time": 54.4340909,
                "end_time": 54.4522727,
                "pitch": 30,
                "velocity": 80,
                "duration": 0.0181818,
                "tempo": 120.0
            },
            {
                "start_time": 54.4522727,
                "end_time": 54.5181818,
                "pitch": 31,
                "velocity": 80,
                "duration": 0.0659091,
                "tempo": 120.0
            },
            {
                "start_time": 54.5363636,
                "end_time": 54.5522727,
                "pitch": 30,
                "velocity": 80,
                "duration": 0.0159091,
                "tempo": 120.0
            },
            {
                "start_time": 54.5522727,
                "end_time": 54.6363636,
                "pitch": 31,
                "velocity": 80,
                "duration": 0.0840909,
                "tempo": 120.0
            },
            {
                "start_time": 54.7704545,
                "end_time": 54.7863636,
                "pitch": 30,
                "velocity": 80,
                "duration": 0.0159091,
                "tempo": 120.0
            },
            {
                "start_time": 54.7863636,
                "end_time": 54.8704545,
                "pitch": 31,
                "velocity": 80,
                "duration": 0.0840909,
                "tempo": 120.0
            },
            {
                "start_time": 54.8863636,
                "end_time": 54.9022727,
                "pitch": 30,
                "velocity": 80,
                "duration": 0.0159091,
                "tempo": 120.0
            },
            {
                "start_time": 54.9022727,
                "end_time": 54.9704545,
                "pitch": 31,
                "velocity": 80,
                "duration": 0.0681818,
                "tempo": 120.0
            },
            {
                "start_time": 54.9863636,
                "end_time": 55.0022727,
                "pitch": 30,
                "velocity": 80,
                "duration": 0.0159091,
                "tempo": 120.0
            },
            {
                "start_time": 55.0022727,
                "end_time": 55.0863636,
                "pitch": 31,
                "velocity": 80,
                "duration": 0.0840909,
                "tempo": 120.0
            },
            {
                "start_time": 55.2204545,
                "end_time": 55.2363636,
                "pitch": 30,
                "velocity": 80,
                "duration": 0.0159091,
                "tempo": 120.0
            },
            {
                "start_time": 55.2363636,
                "end_time": 55.3204545,
                "pitch": 31,
                "velocity": 80,
                "duration": 0.0840909,
                "tempo": 120.0
            },
            {
                "start_time": 55.3386364,
                "end_time": 55.3545455,
                "pitch": 30,
                "velocity": 80,
                "duration": 0.0159091,
                "tempo": 120.0
            },
            {
                "start_time": 55.3545455,
                "end_time": 55.4204545,
                "pitch": 31,
                "velocity": 80,
                "duration": 0.0659091,
                "tempo": 120.0
            },
            {
                "start_time": 55.4386364,
                "end_time": 55.4545455,
                "pitch": 30,
                "velocity": 80,
                "duration": 0.0159091,
                "tempo": 120.0
            },
            {
                "start_time": 55.4545455,
                "end_time": 55.5409091,
                "pitch": 31,
                "velocity": 80,
                "duration": 0.0863636,
                "tempo": 120.0
            },
            {
                "start_time": 55.6772727,
                "end_time": 55.6931818,
                "pitch": 30,
                "velocity": 80,
                "duration": 0.0159091,
                "tempo": 120.0
            },
            {
                "start_time": 55.6931818,
                "end_time": 55.7795455,
                "pitch": 31,
                "velocity": 80,
                "duration": 0.0863636,
                "tempo": 120.0
            },
            {
                "start_time": 55.7977273,
                "end_time": 55.8818182,
                "pitch": 34,
                "velocity": 80,
                "duration": 0.0840909,
                "tempo": 120.0
            },
            {
                "start_time": 55.9,
                "end_time": 55.9977273,
                "pitch": 36,
                "velocity": 80,
                "duration": 0.0977273,
                "tempo": 120.0
            },
            {
                "start_time": 56.1272727,
                "end_time": 56.2272727,
                "pitch": 36,
                "velocity": 80,
                "duration": 0.1,
                "tempo": 120.0
            },
            {
                "start_time": 56.3409091,
                "end_time": 56.4409091,
                "pitch": 34,
                "velocity": 80,
                "duration": 0.1,
                "tempo": 120.0
            },
            {
                "start_time": 56.4568182,
                "end_time": 56.675,
                "pitch": 36,
                "velocity": 80,
                "duration": 0.2181818,
                "tempo": 120.0
            },
            {
                "start_time": 56.7909091,
                "end_time": 56.8931818,
                "pitch": 24,
                "velocity": 80,
                "duration": 0.1022727,
                "tempo": 120.0
            },
            {
                "start_time": 56.9090909,
                "end_time": 57.0090909,
                "pitch": 24,
                "velocity": 80,
                "duration": 0.1,
                "tempo": 120.0
            },
            {
                "start_time": 57.025,
                "end_time": 57.125,
                "pitch": 41,
                "velocity": 80,
                "duration": 0.1,
                "tempo": 120.0
            },
            {
                "start_time": 57.2431818,
                "end_time": 57.2590909,
                "pitch": 42,
                "velocity": 80,
                "duration": 0.0159091,
                "tempo": 120.0
            },
            {
                "start_time": 57.2590909,
                "end_time": 57.3431818,
                "pitch": 43,
                "velocity": 80,
                "duration": 0.0840909,
                "tempo": 120.0
            },
            {
                "start_time": 57.3590909,
                "end_time": 57.5772727,
                "pitch": 46,
                "velocity": 80,
                "duration": 0.2181818,
                "tempo": 120.0
            },
            {
                "start_time": 57.6954545,
                "end_time": 57.7954545,
                "pitch": 36,
                "velocity": 80,
                "duration": 0.1,
                "tempo": 120.0
            },
            {
                "start_time": 57.9272727,
                "end_time": 58.0295455,
                "pitch": 36,
                "velocity": 80,
                "duration": 0.1022727,
                "tempo": 120.0
            },
            {
                "start_time": 58.1454545,
                "end_time": 58.2454545,
                "pitch": 34,
                "velocity": 80,
                "duration": 0.1,
                "tempo": 120.0
            },
            {
                "start_time": 58.2636364,
                "end_time": 58.4795455,
                "pitch": 36,
                "velocity": 80,
                "duration": 0.2159091,
                "tempo": 120.0
            },
            {
                "start_time": 58.5977273,
                "end_time": 58.7,
                "pitch": 24,
                "velocity": 80,
                "duration": 0.1022727,
                "tempo": 120.0
            },
            {
                "start_time": 58.7159091,
                "end_time": 58.8181818,
                "pitch": 24,
                "velocity": 80,
                "duration": 0.1022727,
                "tempo": 120.0
            },
            {
                "start_time": 58.8363636,
                "end_time": 58.9386364,
                "pitch": 41,
                "velocity": 80,
                "duration": 0.1022727,
                "tempo": 120.0
            },
            {
                "start_time": 59.0590909,
                "end_time": 59.075,
                "pitch": 42,
                "velocity": 80,
                "duration": 0.0159091,
                "tempo": 120.0
            },
            {
                "start_time": 59.075,
                "end_time": 59.1590909,
                "pitch": 43,
                "velocity": 80,
                "duration": 0.0840909,
                "tempo": 120.0
            },
            {
                "start_time": 59.175,
                "end_time": 59.3931818,
                "pitch": 46,
                "velocity": 80,
                "duration": 0.2181818,
                "tempo": 120.0
            },
            {
                "start_time": 59.5090909,
                "end_time": 59.6068182,
                "pitch": 31,
                "velocity": 80,
                "duration": 0.0977273,
                "tempo": 120.0
            },
            {
                "start_time": 59.8522727,
                "end_time": 61.2886364,
                "pitch": 31,
                "velocity": 80,
                "duration": 1.4363636,
                "tempo": 120.0
            },
            {
                "start_time": 61.3045455,
                "end_time": 61.3204545,
                "pitch": 30,
                "velocity": 80,
                "duration": 0.0159091,
                "tempo": 120.0
            },
            {
                "start_time": 61.3204545,
                "end_time": 61.4045455,
                "pitch": 31,
                "velocity": 80,
                "duration": 0.0840909,
                "tempo": 120.0
            },
            {
                "start_time": 61.6568182,
                "end_time": 61.6727273,
                "pitch": 30,
                "velocity": 80,
                "duration": 0.0159091,
                "tempo": 120.0
            },
            {
                "start_time": 61.6727273,
                "end_time": 61.7386364,
                "pitch": 31,
                "velocity": 80,
                "duration": 0.0659091,
                "tempo": 120.0
            },
            {
                "start_time": 61.7568182,
                "end_time": 61.7727273,
                "pitch": 30,
                "velocity": 80,
                "duration": 0.0159091,
                "tempo": 120.0
            },
            {
                "start_time": 61.7727273,
                "end_time": 61.9727273,
                "pitch": 31,
                "velocity": 80,
                "duration": 0.2,
                "tempo": 120.0
            },
            {
                "start_time": 61.9909091,
                "end_time": 62.0068182,
                "pitch": 30,
                "velocity": 80,
                "duration": 0.0159091,
                "tempo": 120.0
            },
            {
                "start_time": 62.0068182,
                "end_time": 62.0909091,
                "pitch": 31,
                "velocity": 80,
                "duration": 0.0840909,
                "tempo": 120.0
            },
            {
                "start_time": 62.2068182,
                "end_time": 62.225,
                "pitch": 30,
                "velocity": 80,
                "duration": 0.0181818,
                "tempo": 120.0
            },
            {
                "start_time": 62.225,
                "end_time": 62.3068182,
                "pitch": 31,
                "velocity": 80,
                "duration": 0.0818182,
                "tempo": 120.0
            },
            {
                "start_time": 62.4409091,
                "end_time": 62.4568182,
                "pitch": 30,
                "velocity": 80,
                "duration": 0.0159091,
                "tempo": 120.0
            },
            {
                "start_time": 62.4568182,
                "end_time": 62.5409091,
                "pitch": 31,
                "velocity": 80,
                "duration": 0.0840909,
                "tempo": 120.0
            },
            {
                "start_time": 62.6590909,
                "end_time": 62.675,
                "pitch": 30,
                "velocity": 80,
                "duration": 0.0159091,
                "tempo": 120.0
            },
            {
                "start_time": 62.675,
                "end_time": 62.7590909,
                "pitch": 31,
                "velocity": 80,
                "duration": 0.0840909,
                "tempo": 120.0
            },
            {
                "start_time": 62.8931818,
                "end_time": 62.9090909,
                "pitch": 30,
                "velocity": 80,
                "duration": 0.0159091,
                "tempo": 120.0
            },
            {
                "start_time": 62.9090909,
                "end_time": 62.9931818,
                "pitch": 31,
                "velocity": 80,
                "duration": 0.0840909,
                "tempo": 120.0
            },
            {
                "start_time": 63.1090909,
                "end_time": 63.1272727,
                "pitch": 30,
                "velocity": 80,
                "duration": 0.0181818,
                "tempo": 120.0
            },
            {
                "start_time": 63.1272727,
                "end_time": 63.2090909,
                "pitch": 31,
                "velocity": 80,
                "duration": 0.0818182,
                "tempo": 120.0
            },
            {
                "start_time": 63.3431818,
                "end_time": 63.3613636,
                "pitch": 30,
                "velocity": 80,
                "duration": 0.0181818,
                "tempo": 120.0
            },
            {
                "start_time": 63.3613636,
                "end_time": 63.4431818,
                "pitch": 31,
                "velocity": 80,
                "duration": 0.0818182,
                "tempo": 120.0
            },
            {
                "start_time": 63.5613636,
                "end_time": 63.5772727,
                "pitch": 30,
                "velocity": 80,
                "duration": 0.0159091,
                "tempo": 120.0
            },
            {
                "start_time": 63.5772727,
                "end_time": 63.6636364,
                "pitch": 31,
                "velocity": 80,
                "duration": 0.0863636,
                "tempo": 120.0
            },
            {
                "start_time": 63.8,
                "end_time": 63.8181818,
                "pitch": 30,
                "velocity": 80,
                "duration": 0.0181818,
                "tempo": 120.0
            },
            {
                "start_time": 63.8181818,
                "end_time": 63.9022727,
                "pitch": 31,
                "velocity": 80,
                "duration": 0.0840909,
                "tempo": 120.0
            },
            {
                "start_time": 64.0227273,
                "end_time": 64.0386364,
                "pitch": 30,
                "velocity": 80,
                "duration": 0.0159091,
                "tempo": 120.0
            },
            {
                "start_time": 64.0386364,
                "end_time": 64.1204545,
                "pitch": 31,
                "velocity": 80,
                "duration": 0.0818182,
                "tempo": 120.0
            },
            {
                "start_time": 64.2522727,
                "end_time": 64.2681818,
                "pitch": 30,
                "velocity": 80,
                "duration": 0.0159091,
                "tempo": 120.0
            },
            {
                "start_time": 64.2681818,
                "end_time": 64.35,
                "pitch": 31,
                "velocity": 80,
                "duration": 0.0818182,
                "tempo": 120.0
            },
            {
                "start_time": 64.4636364,
                "end_time": 64.4795455,
                "pitch": 30,
                "velocity": 80,
                "duration": 0.0159091,
                "tempo": 120.0
            },
            {
                "start_time": 64.4795455,
                "end_time": 64.5636364,
                "pitch": 31,
                "velocity": 80,
                "duration": 0.0840909,
                "tempo": 120.0
            },
            {
                "start_time": 64.5795455,
                "end_time": 64.8977273,
                "pitch": 34,
                "velocity": 80,
                "duration": 0.3181818,
                "tempo": 120.0
            },
            {
                "start_time": 64.9159091,
                "end_time": 65.0159091,
                "pitch": 36,
                "velocity": 80,
                "duration": 0.1,
                "tempo": 120.0
            },
            {
                "start_time": 65.15,
                "end_time": 65.25,
                "pitch": 36,
                "velocity": 80,
                "duration": 0.1,
                "tempo": 120.0
            },
            {
                "start_time": 65.2659091,
                "end_time": 65.35,
                "pitch": 36,
                "velocity": 80,
                "duration": 0.0840909,
                "tempo": 120.0
            },
            {
                "start_time": 65.3659091,
                "end_time": 65.4659091,
                "pitch": 36,
                "velocity": 80,
                "duration": 0.1,
                "tempo": 120.0
            },
            {
                "start_time": 65.6,
                "end_time": 65.7,
                "pitch": 36,
                "velocity": 80,
                "duration": 0.1,
                "tempo": 120.0
            },
            {
                "start_time": 65.7181818,
                "end_time": 65.8,
                "pitch": 36,
                "velocity": 80,
                "duration": 0.0818182,
                "tempo": 120.0
            }
        ],
        "Violin": [
            {
                "start_time": 0.0136364,
                "end_time": 0.0886364,
                "pitch": 66,
                "velocity": 64,
                "duration": 0.075,
                "tempo": 120.0
            },
            {
                "start_time": 0.0886364,
                "end_time": 0.8204545,
                "pitch": 60,
                "velocity": 64,
                "duration": 0.7318182,
                "tempo": 120.0
            },
            {
                "start_time": 0.8204545,
                "end_time": 0.9545455,
                "pitch": 60,
                "velocity": 64,
                "duration": 0.1340909,
                "tempo": 120.0
            },
            {
                "start_time": 1.4113636,
                "end_time": 1.6409091,
                "pitch": 60,
                "velocity": 64,
                "duration": 0.2295455,
                "tempo": 120.0
            },
            {
                "start_time": 1.6409091,
                "end_time": 1.8568182,
                "pitch": 63,
                "velocity": 64,
                "duration": 0.2159091,
                "tempo": 120.0
            },
            {
                "start_time": 1.8568182,
                "end_time": 2.2568182,
                "pitch": 67,
                "velocity": 64,
                "duration": 0.4,
                "tempo": 120.0
            },
            {
                "start_time": 2.2568182,
                "end_time": 2.3409091,
                "pitch": 67,
                "velocity": 64,
                "duration": 0.0840909,
                "tempo": 120.0
            },
            {
                "start_time": 2.3409091,
                "end_time": 2.5568182,
                "pitch": 67,
                "velocity": 64,
                "duration": 0.2159091,
                "tempo": 120.0
            },
            {
                "start_time": 2.5568182,
                "end_time": 2.6068182,
                "pitch": 67,
                "velocity": 64,
                "duration": 0.05,
                "tempo": 120.0
            },
            {
                "start_time": 2.6068182,
                "end_time": 2.7590909,
                "pitch": 67,
                "velocity": 64,
                "duration": 0.1522727,
                "tempo": 120.0
            },
            {
                "start_time": 2.7590909,
                "end_time": 3.3272727,
                "pitch": 65,
                "velocity": 64,
                "duration": 0.5681818,
                "tempo": 120.0
            },
            {
                "start_time": 3.3272727,
                "end_time": 3.9113636,
                "pitch": 62,
                "velocity": 64,
                "duration": 0.5840909,
                "tempo": 120.0
            },
            {
                "start_time": 3.9113636,
                "end_time": 4.5636364,
                "pitch": 60,
                "velocity": 64,
                "duration": 0.6522727,
                "tempo": 120.0
            },
            {
                "start_time": 5.0136364,
                "end_time": 5.2477273,
                "pitch": 60,
                "velocity": 64,
                "duration": 0.2340909,
                "tempo": 120.0
            },
            {
                "start_time": 5.2477273,
                "end_time": 5.4681818,
                "pitch": 63,
                "velocity": 64,
                "duration": 0.2204545,
                "tempo": 120.0
            },
            {
                "start_time": 5.4681818,
                "end_time": 5.875,
                "pitch": 67,
                "velocity": 64,
                "duration": 0.4068182,
                "tempo": 120.0
            },
            {
                "start_time": 5.875,
                "end_time": 5.9568182,
                "pitch": 67,
                "velocity": 64,
                "duration": 0.0818182,
                "tempo": 120.0
            },
            {
                "start_time": 5.9568182,
                "end_time": 6.1704545,
                "pitch": 67,
                "velocity": 64,
                "duration": 0.2136364,
                "tempo": 120.0
            },
            {
                "start_time": 6.1704545,
                "end_time": 6.2181818,
                "pitch": 67,
                "velocity": 64,
                "duration": 0.0477273,
                "tempo": 120.0
            },
            {
                "start_time": 6.2181818,
                "end_time": 6.3704545,
                "pitch": 67,
                "velocity": 64,
                "duration": 0.1522727,
                "tempo": 120.0
            },
            {
                "start_time": 6.3704545,
                "end_time": 6.9409091,
                "pitch": 65,
                "velocity": 64,
                "duration": 0.5704545,
                "tempo": 120.0
            },
            {
                "start_time": 6.9409091,
                "end_time": 7.5227273,
                "pitch": 62,
                "velocity": 64,
                "duration": 0.5818182,
                "tempo": 120.0
            },
            {
                "start_time": 7.5227273,
                "end_time": 7.6045455,
                "pitch": 60,
                "velocity": 64,
                "duration": 0.0818182,
                "tempo": 120.0
            },
            {
                "start_time": 7.6045455,
                "end_time": 9.6613636,
                "pitch": 72,
                "velocity": 64,
                "duration": 2.0568182,
                "tempo": 120.0
            },
            {
                "start_time": 9.6613636,
                "end_time": 12.6954545,
                "pitch": 74,
                "velocity": 64,
                "duration": 3.0340909,
                "tempo": 120.0
            },
            {
                "start_time": 12.6954545,
                "end_time": 13.5886364,
                "pitch": 72,
                "velocity": 64,
                "duration": 0.8931818,
                "tempo": 120.0
            },
            {
                "start_time": 14.0409091,
                "end_time": 14.275,
                "pitch": 72,
                "velocity": 64,
                "duration": 0.2340909,
                "tempo": 120.0
            },
            {
                "start_time": 14.275,
                "end_time": 14.4909091,
                "pitch": 75,
                "velocity": 64,
                "duration": 0.2159091,
                "tempo": 120.0
            },
            {
                "start_time": 14.4909091,
                "end_time": 14.8931818,
                "pitch": 79,
                "velocity": 64,
                "duration": 0.4022727,
                "tempo": 120.0
            },
            {
                "start_time": 14.8931818,
                "end_time": 14.975,
                "pitch": 79,
                "velocity": 64,
                "duration": 0.0818182,
                "tempo": 120.0
            },
            {
                "start_time": 14.975,
                "end_time": 15.1931818,
                "pitch": 79,
                "velocity": 64,
                "duration": 0.2181818,
                "tempo": 120.0
            },
            {
                "start_time": 15.1931818,
                "end_time": 15.2431818,
                "pitch": 79,
                "velocity": 64,
                "duration": 0.05,
                "tempo": 120.0
            },
            {
                "start_time": 15.2431818,
                "end_time": 15.3931818,
                "pitch": 79,
                "velocity": 64,
                "duration": 0.15,
                "tempo": 120.0
            },
            {
                "start_time": 15.3931818,
                "end_time": 15.8613636,
                "pitch": 77,
                "velocity": 64,
                "duration": 0.4681818,
                "tempo": 120.0
            },
            {
                "start_time": 15.8613636,
                "end_time": 16.5295455,
                "pitch": 75,
                "velocity": 64,
                "duration": 0.6681818,
                "tempo": 120.0
            },
            {
                "start_time": 16.5295455,
                "end_time": 17.1977273,
                "pitch": 72,
                "velocity": 64,
                "duration": 0.6681818,
                "tempo": 120.0
            },
            {
                "start_time": 17.65,
                "end_time": 17.8840909,
                "pitch": 72,
                "velocity": 64,
                "duration": 0.2340909,
                "tempo": 120.0
            },
            {
                "start_time": 17.8840909,
                "end_time": 18.1022727,
                "pitch": 75,
                "velocity": 64,
                "duration": 0.2181818,
                "tempo": 120.0
            },
            {
                "start_time": 18.1022727,
                "end_time": 18.5022727,
                "pitch": 79,
                "velocity": 64,
                "duration": 0.4,
                "tempo": 120.0
            },
            {
                "start_time": 18.5022727,
                "end_time": 18.5863636,
                "pitch": 79,
                "velocity": 64,
                "duration": 0.0840909,
                "tempo": 120.0
            },
            {
                "start_time": 18.5863636,
                "end_time": 18.8022727,
                "pitch": 79,
                "velocity": 64,
                "duration": 0.2159091,
                "tempo": 120.0
            },
            {
                "start_time": 18.8022727,
                "end_time": 18.8522727,
                "pitch": 79,
                "velocity": 64,
                "duration": 0.05,
                "tempo": 120.0
            },
            {
                "start_time": 18.8522727,
                "end_time": 19.0045455,
                "pitch": 79,
                "velocity": 64,
                "duration": 0.1522727,
                "tempo": 120.0
            },
            {
                "start_time": 19.0045455,
                "end_time": 19.4727273,
                "pitch": 77,
                "velocity": 64,
                "duration": 0.4681818,
                "tempo": 120.0
            },
            {
                "start_time": 19.4727273,
                "end_time": 19.9068182,
                "pitch": 75,
                "velocity": 64,
                "duration": 0.4340909,
                "tempo": 120.0
            },
            {
                "start_time": 19.9068182,
                "end_time": 22.2954545,
                "pitch": 72,
                "velocity": 64,
                "duration": 2.3886364,
                "tempo": 120.0
            },
            {
                "start_time": 22.2954545,
                "end_time": 22.6136364,
                "pitch": 74,
                "velocity": 64,
                "duration": 0.3181818,
                "tempo": 120.0
            },
            {
                "start_time": 22.6136364,
                "end_time": 23.0136364,
                "pitch": 67,
                "velocity": 64,
                "duration": 0.4,
                "tempo": 120.0
            },
            {
                "start_time": 23.0136364,
                "end_time": 23.0659091,
                "pitch": 67,
                "velocity": 64,
                "duration": 0.0522727,
                "tempo": 120.0
            },
            {
                "start_time": 23.0659091,
                "end_time": 23.5318182,
                "pitch": 74,
                "velocity": 64,
                "duration": 0.4659091,
                "tempo": 120.0
            },
            {
                "start_time": 23.5318182,
                "end_time": 26.225,
                "pitch": 72,
                "velocity": 64,
                "duration": 2.6931818,
                "tempo": 120.0
            },
            {
                "start_time": 26.225,
                "end_time": 26.6840909,
                "pitch": 75,
                "velocity": 64,
                "duration": 0.4590909,
                "tempo": 120.0
            },
            {
                "start_time": 26.6840909,
                "end_time": 26.8022727,
                "pitch": 79,
                "velocity": 64,
                "duration": 0.1181818,
                "tempo": 120.0
            },
            {
                "start_time": 26.8022727,
                "end_time": 27.1340909,
                "pitch": 82,
                "velocity": 64,
                "duration": 0.3318182,
                "tempo": 120.0
            },
            {
                "start_time": 27.1340909,
                "end_time": 28.4795455,
                "pitch": 84,
                "velocity": 64,
                "duration": 1.3454545,
                "tempo": 120.0
            },
            {
                "start_time": 28.4795455,
                "end_time": 28.9318182,
                "pitch": 80,
                "velocity": 64,
                "duration": 0.4522727,
                "tempo": 120.0
            },
            {
                "start_time": 28.9318182,
                "end_time": 29.8340909,
                "pitch": 84,
                "velocity": 64,
                "duration": 0.9022727,
                "tempo": 120.0
            },
            {
                "start_time": 29.8340909,
                "end_time": 31.4227273,
                "pitch": 87,
                "velocity": 64,
                "duration": 1.5886364,
                "tempo": 120.0
            },
            {
                "start_time": 31.4227273,
                "end_time": 31.8727273,
                "pitch": 82,
                "velocity": 64,
                "duration": 0.45,
                "tempo": 120.0
            },
            {
                "start_time": 31.8727273,
                "end_time": 32.0909091,
                "pitch": 84,
                "velocity": 64,
                "duration": 0.2181818,
                "tempo": 120.0
            },
            {
                "start_time": 32.0909091,
                "end_time": 32.4909091,
                "pitch": 79,
                "velocity": 64,
                "duration": 0.4,
                "tempo": 120.0
            },
            {
                "start_time": 32.4909091,
                "end_time": 32.575,
                "pitch": 79,
                "velocity": 64,
                "duration": 0.0840909,
                "tempo": 120.0
            },
            {
                "start_time": 32.575,
                "end_time": 32.7931818,
                "pitch": 79,
                "velocity": 64,
                "duration": 0.2181818,
                "tempo": 120.0
            },
            {
                "start_time": 32.7931818,
                "end_time": 32.8431818,
                "pitch": 79,
                "velocity": 64,
                "duration": 0.05,
                "tempo": 120.0
            },
            {
                "start_time": 32.8431818,
                "end_time": 33.0590909,
                "pitch": 79,
                "velocity": 64,
                "duration": 0.2159091,
                "tempo": 120.0
            },
            {
                "start_time": 33.0590909,
                "end_time": 33.1090909,
                "pitch": 79,
                "velocity": 64,
                "duration": 0.05,
                "tempo": 120.0
            },
            {
                "start_time": 33.1090909,
                "end_time": 33.3272727,
                "pitch": 79,
                "velocity": 64,
                "duration": 0.2181818,
                "tempo": 120.0
            },
            {
                "start_time": 33.3272727,
                "end_time": 33.3772727,
                "pitch": 79,
                "velocity": 64,
                "duration": 0.05,
                "tempo": 120.0
            },
            {
                "start_time": 33.3772727,
                "end_time": 33.5931818,
                "pitch": 79,
                "velocity": 64,
                "duration": 0.2159091,
                "tempo": 120.0
            },
            {
                "start_time": 33.5931818,
                "end_time": 33.6454545,
                "pitch": 79,
                "velocity": 64,
                "duration": 0.0522727,
                "tempo": 120.0
            },
            {
                "start_time": 33.6454545,
                "end_time": 33.8613636,
                "pitch": 79,
                "velocity": 64,
                "duration": 0.2159091,
                "tempo": 120.0
            },
            {
                "start_time": 33.8613636,
                "end_time": 33.8954545,
                "pitch": 79,
                "velocity": 64,
                "duration": 0.0340909,
                "tempo": 120.0
            },
            {
                "start_time": 34.3454545,
                "end_time": 35.7,
                "pitch": 80,
                "velocity": 64,
                "duration": 1.3545455,
                "tempo": 120.0
            },
            {
                "start_time": 35.7,
                "end_time": 35.9340909,
                "pitch": 77,
                "velocity": 64,
                "duration": 0.2340909,
                "tempo": 120.0
            },
            {
                "start_time": 35.9340909,
                "end_time": 37.0545455,
                "pitch": 79,
                "velocity": 64,
                "duration": 1.1204545,
                "tempo": 120.0
            },
            {
                "start_time": 37.0545455,
                "end_time": 37.5045455,
                "pitch": 82,
                "velocity": 64,
                "duration": 0.45,
                "tempo": 120.0
            },
            {
                "start_time": 37.5045455,
                "end_time": 37.9568182,
                "pitch": 84,
                "velocity": 64,
                "duration": 0.4522727,
                "tempo": 120.0
            },
            {
                "start_time": 37.9568182,
                "end_time": 38.6409091,
                "pitch": 82,
                "velocity": 64,
                "duration": 0.6840909,
                "tempo": 120.0
            },
            {
                "start_time": 38.6409091,
                "end_time": 39.5431818,
                "pitch": 75,
                "velocity": 64,
                "duration": 0.9022727,
                "tempo": 120.0
            },
            {
                "start_time": 39.5431818,
                "end_time": 39.9454545,
                "pitch": 79,
                "velocity": 64,
                "duration": 0.4022727,
                "tempo": 120.0
            },
            {
                "start_time": 39.9454545,
                "end_time": 40.0295455,
                "pitch": 79,
                "velocity": 64,
                "duration": 0.0840909,
                "tempo": 120.0
            },
            {
                "start_time": 40.0295455,
                "end_time": 40.2454545,
                "pitch": 79,
                "velocity": 64,
                "duration": 0.2159091,
                "tempo": 120.0
            },
            {
                "start_time": 40.2454545,
                "end_time": 40.2954545,
                "pitch": 79,
                "velocity": 64,
                "duration": 0.05,
                "tempo": 120.0
            },
            {
                "start_time": 40.2954545,
                "end_time": 40.5136364,
                "pitch": 79,
                "velocity": 64,
                "duration": 0.2181818,
                "tempo": 120.0
            },
            {
                "start_time": 40.5136364,
                "end_time": 40.5636364,
                "pitch": 79,
                "velocity": 64,
                "duration": 0.05,
                "tempo": 120.0
            },
            {
                "start_time": 40.5636364,
                "end_time": 40.7818182,
                "pitch": 79,
                "velocity": 64,
                "duration": 0.2181818,
                "tempo": 120.0
            },
            {
                "start_time": 40.7818182,
                "end_time": 40.8318182,
                "pitch": 79,
                "velocity": 64,
                "duration": 0.05,
                "tempo": 120.0
            },
            {
                "start_time": 40.8318182,
                "end_time": 41.05,
                "pitch": 79,
                "velocity": 64,
                "duration": 0.2181818,
                "tempo": 120.0
            },
            {
                "start_time": 41.05,
                "end_time": 41.1,
                "pitch": 79,
                "velocity": 64,
                "duration": 0.05,
                "tempo": 120.0
            },
            {
                "start_time": 41.1,
                "end_time": 41.3227273,
                "pitch": 79,
                "velocity": 64,
                "duration": 0.2227273,
                "tempo": 120.0
            },
            {
                "start_time": 41.3227273,
                "end_time": 41.375,
                "pitch": 79,
                "velocity": 64,
                "duration": 0.0522727,
                "tempo": 120.0
            },
            {
                "start_time": 41.375,
                "end_time": 41.5727273,
                "pitch": 79,
                "velocity": 64,
                "duration": 0.1977273,
                "tempo": 120.0
            },
            {
                "start_time": 41.5727273,
                "end_time": 42.9204545,
                "pitch": 84,
                "velocity": 64,
                "duration": 1.3477273,
                "tempo": 120.0
            },
            {
                "start_time": 42.9204545,
                "end_time": 43.3704545,
                "pitch": 80,
                "velocity": 64,
                "duration": 0.45,
                "tempo": 120.0
            },
            {
                "start_time": 43.3704545,
                "end_time": 44.275,
                "pitch": 84,
                "velocity": 64,
                "duration": 0.9045455,
                "tempo": 120.0
            },
            {
                "start_time": 44.275,
                "end_time": 45.8613636,
                "pitch": 87,
                "velocity": 64,
                "duration": 1.5863636,
                "tempo": 120.0
            },
            {
                "start_time": 45.8613636,
                "end_time": 46.3136364,
                "pitch": 82,
                "velocity": 64,
                "duration": 0.4522727,
                "tempo": 120.0
            },
            {
                "start_time": 46.3136364,
                "end_time": 46.5295455,
                "pitch": 84,
                "velocity": 64,
                "duration": 0.2159091,
                "tempo": 120.0
            },
            {
                "start_time": 46.5295455,
                "end_time": 46.9318182,
                "pitch": 79,
                "velocity": 64,
                "duration": 0.4022727,
                "tempo": 120.0
            },
            {
                "start_time": 46.9318182,
                "end_time": 47.0136364,
                "pitch": 79,
                "velocity": 64,
                "duration": 0.0818182,
                "tempo": 120.0
            },
            {
                "start_time": 47.0136364,
                "end_time": 47.2318182,
                "pitch": 79,
                "velocity": 64,
                "duration": 0.2181818,
                "tempo": 120.0
            },
            {
                "start_time": 47.2318182,
                "end_time": 47.2818182,
                "pitch": 79,
                "velocity": 64,
                "duration": 0.05,
                "tempo": 120.0
            },
            {
                "start_time": 47.2818182,
                "end_time": 47.5,
                "pitch": 79,
                "velocity": 64,
                "duration": 0.2181818,
                "tempo": 120.0
            },
            {
                "start_time": 47.5,
                "end_time": 47.55,
                "pitch": 79,
                "velocity": 64,
                "duration": 0.05,
                "tempo": 120.0
            },
            {
                "start_time": 47.55,
                "end_time": 47.7659091,
                "pitch": 79,
                "velocity": 64,
                "duration": 0.2159091,
                "tempo": 120.0
            },
            {
                "start_time": 47.7659091,
                "end_time": 47.8159091,
                "pitch": 79,
                "velocity": 64,
                "duration": 0.05,
                "tempo": 120.0
            },
            {
                "start_time": 47.8159091,
                "end_time": 48.0340909,
                "pitch": 79,
                "velocity": 64,
                "duration": 0.2181818,
                "tempo": 120.0
            },
            {
                "start_time": 48.0340909,
                "end_time": 48.0840909,
                "pitch": 79,
                "velocity": 64,
                "duration": 0.05,
                "tempo": 120.0
            },
            {
                "start_time": 48.0840909,
                "end_time": 48.3022727,
                "pitch": 79,
                "velocity": 64,
                "duration": 0.2181818,
                "tempo": 120.0
            },
            {
                "start_time": 48.3022727,
                "end_time": 48.3340909,
                "pitch": 79,
                "velocity": 64,
                "duration": 0.0318182,
                "tempo": 120.0
            },
            {
                "start_time": 48.3340909,
                "end_time": 48.5681818,
                "pitch": 89,
                "velocity": 64,
                "duration": 0.2340909,
                "tempo": 120.0
            },
            {
                "start_time": 48.5681818,
                "end_time": 50.1409091,
                "pitch": 91,
                "velocity": 64,
                "duration": 1.5727273,
                "tempo": 120.0
            },
            {
                "start_time": 50.1409091,
                "end_time": 50.375,
                "pitch": 89,
                "velocity": 64,
                "duration": 0.2340909,
                "tempo": 120.0
            },
            {
                "start_time": 50.375,
                "end_time": 52.1795455,
                "pitch": 91,
                "velocity": 64,
                "duration": 1.8045455,
                "tempo": 120.0
            },
            {
                "start_time": 52.1795455,
                "end_time": 52.9818182,
                "pitch": 87,
                "velocity": 64,
                "duration": 0.8022727,
                "tempo": 120.0
            },
            {
                "start_time": 52.9818182,
                "end_time": 53.0818182,
                "pitch": 89,
                "velocity": 64,
                "duration": 0.1,
                "tempo": 120.0
            },
            {
                "start_time": 53.0818182,
                "end_time": 56.0136364,
                "pitch": 82,
                "velocity": 64,
                "duration": 2.9318182,
                "tempo": 120.0
            },
            {
                "start_time": 56.0136364,
                "end_time": 56.1272727,
                "pitch": 72,
                "velocity": 64,
                "duration": 0.1136364,
                "tempo": 120.0
            },
            {
                "start_time": 56.1272727,
                "end_time": 56.2431818,
                "pitch": 67,
                "velocity": 64,
                "duration": 0.1159091,
                "tempo": 120.0
            },
            {
                "start_time": 56.2431818,
                "end_time": 56.3409091,
                "pitch": 63,
                "velocity": 64,
                "duration": 0.0977273,
                "tempo": 120.0
            },
            {
                "start_time": 56.3409091,
                "end_time": 56.4568182,
                "pitch": 72,
                "velocity": 64,
                "duration": 0.1159091,
                "tempo": 120.0
            },
            {
                "start_time": 56.4568182,
                "end_time": 56.575,
                "pitch": 67,
                "velocity": 64,
                "duration": 0.1181818,
                "tempo": 120.0
            },
            {
                "start_time": 56.575,
                "end_time": 56.6909091,
                "pitch": 63,
                "velocity": 64,
                "duration": 0.1159091,
                "tempo": 120.0
            },
            {
                "start_time": 56.6909091,
                "end_time": 56.7909091,
                "pitch": 60,
                "velocity": 64,
                "duration": 0.1,
                "tempo": 120.0
            },
            {
                "start_time": 56.7909091,
                "end_time": 56.9090909,
                "pitch": 63,
                "velocity": 64,
                "duration": 0.1181818,
                "tempo": 120.0
            },
            {
                "start_time": 56.9090909,
                "end_time": 57.025,
                "pitch": 72,
                "velocity": 64,
                "duration": 0.1159091,
                "tempo": 120.0
            },
            {
                "start_time": 57.025,
                "end_time": 57.1431818,
                "pitch": 67,
                "velocity": 64,
                "duration": 0.1181818,
                "tempo": 120.0
            },
            {
                "start_time": 57.1431818,
                "end_time": 57.2431818,
                "pitch": 63,
                "velocity": 64,
                "duration": 0.1,
                "tempo": 120.0
            },
            {
                "start_time": 57.2431818,
                "end_time": 57.3590909,
                "pitch": 72,
                "velocity": 64,
                "duration": 0.1159091,
                "tempo": 120.0
            },
            {
                "start_time": 57.3590909,
                "end_time": 57.4772727,
                "pitch": 67,
                "velocity": 64,
                "duration": 0.1181818,
                "tempo": 120.0
            },
            {
                "start_time": 57.4772727,
                "end_time": 57.5931818,
                "pitch": 63,
                "velocity": 64,
                "duration": 0.1159091,
                "tempo": 120.0
            },
            {
                "start_time": 57.5931818,
                "end_time": 57.6954545,
                "pitch": 60,
                "velocity": 64,
                "duration": 0.1022727,
                "tempo": 120.0
            },
            {
                "start_time": 57.6954545,
                "end_time": 57.8113636,
                "pitch": 63,
                "velocity": 64,
                "duration": 0.1159091,
                "tempo": 120.0
            },
            {
                "start_time": 57.8113636,
                "end_time": 57.9272727,
                "pitch": 72,
                "velocity": 64,
                "duration": 0.1159091,
                "tempo": 120.0
            },
            {
                "start_time": 57.9272727,
                "end_time": 58.0454545,
                "pitch": 67,
                "velocity": 64,
                "duration": 0.1181818,
                "tempo": 120.0
            },
            {
                "start_time": 58.0454545,
                "end_time": 58.1454545,
                "pitch": 63,
                "velocity": 64,
                "duration": 0.1,
                "tempo": 120.0
            },
            {
                "start_time": 58.1454545,
                "end_time": 58.2636364,
                "pitch": 72,
                "velocity": 64,
                "duration": 0.1181818,
                "tempo": 120.0
            },
            {
                "start_time": 58.2636364,
                "end_time": 58.3795455,
                "pitch": 67,
                "velocity": 64,
                "duration": 0.1159091,
                "tempo": 120.0
            },
            {
                "start_time": 58.3795455,
                "end_time": 58.4954545,
                "pitch": 63,
                "velocity": 64,
                "duration": 0.1159091,
                "tempo": 120.0
            },
            {
                "start_time": 58.4954545,
                "end_time": 58.5977273,
                "pitch": 60,
                "velocity": 64,
                "duration": 0.1022727,
                "tempo": 120.0
            },
            {
                "start_time": 58.5977273,
                "end_time": 58.7159091,
                "pitch": 63,
                "velocity": 64,
                "duration": 0.1181818,
                "tempo": 120.0
            },
            {
                "start_time": 58.7159091,
                "end_time": 58.8363636,
                "pitch": 72,
                "velocity": 64,
                "duration": 0.1204545,
                "tempo": 120.0
            },
            {
                "start_time": 58.8363636,
                "end_time": 58.9568182,
                "pitch": 67,
                "velocity": 64,
                "duration": 0.1204545,
                "tempo": 120.0
            },
            {
                "start_time": 58.9568182,
                "end_time": 59.0590909,
                "pitch": 63,
                "velocity": 64,
                "duration": 0.1022727,
                "tempo": 120.0
            },
            {
                "start_time": 59.0590909,
                "end_time": 59.175,
                "pitch": 72,
                "velocity": 64,
                "duration": 0.1159091,
                "tempo": 120.0
            },
            {
                "start_time": 59.175,
                "end_time": 59.2931818,
                "pitch": 67,
                "velocity": 64,
                "duration": 0.1181818,
                "tempo": 120.0
            },
            {
                "start_time": 59.2931818,
                "end_time": 59.4090909,
                "pitch": 63,
                "velocity": 64,
                "duration": 0.1159091,
                "tempo": 120.0
            },
            {
                "start_time": 59.4090909,
                "end_time": 59.5090909,
                "pitch": 60,
                "velocity": 64,
                "duration": 0.1,
                "tempo": 120.0
            },
            {
                "start_time": 59.5090909,
                "end_time": 59.625,
                "pitch": 63,
                "velocity": 64,
                "duration": 0.1159091,
                "tempo": 120.0
            },
            {
                "start_time": 59.625,
                "end_time": 59.7386364,
                "pitch": 72,
                "velocity": 64,
                "duration": 0.1136364,
                "tempo": 120.0
            },
            {
                "start_time": 59.95,
                "end_time": 61.5386364,
                "pitch": 72,
                "velocity": 64,
                "duration": 1.5886364,
                "tempo": 120.0
            },
            {
                "start_time": 61.7568182,
                "end_time": 63.2272727,
                "pitch": 71,
                "velocity": 64,
                "duration": 1.4704545,
                "tempo": 120.0
            },
            {
                "start_time": 63.2272727,
                "end_time": 63.6295455,
                "pitch": 79,
                "velocity": 64,
                "duration": 0.4022727,
                "tempo": 120.0
            },
            {
                "start_time": 63.6295455,
                "end_time": 63.6795455,
                "pitch": 79,
                "velocity": 64,
                "duration": 0.05,
                "tempo": 120.0
            },
            {
                "start_time": 63.6795455,
                "end_time": 65.0477273,
                "pitch": 63,
                "velocity": 64,
                "duration": 1.3681818,
                "tempo": 120.0
            },
            {
                "start_time": 65.0477273,
                "end_time": 65.8,
                "pitch": 60,
                "velocity": 64,
                "duration": 0.7522727,
                "tempo": 120.0
            }
        ]
    }
}