{
    "mood": "angry",
    "instruments": {
        "Church Organ": [
            {
                "start_time": 74.8431818,
                "end_time": 74.9613636,
                "pitch": 68,
                "velocity": 64,
                "duration": 0.1181818,
                "tempo": 120.0
            },
            {
                "start_time": 74.9795455,
                "end_time": 75.0977273,
                "pitch": 70,
                "velocity": 64,
                "duration": 0.1181818,
                "tempo": 120.0
            },
            {
                "start_time": 75.1159091,
                "end_time": 76.9772727,
                "pitch": 71,
                "velocity": 64,
                "duration": 1.8613636,
                "tempo": 120.0
            },
            {
                "start_time": 76.9954545,
                "end_time": 77.1113636,
                "pitch": 71,
                "velocity": 64,
                "duration": 0.1159091,
                "tempo": 120.0
            },
            {
                "start_time": 77.1295455,
                "end_time": 77.2454545,
                "pitch": 73,
                "velocity": 64,
                "duration": 0.1159091,
                "tempo": 120.0
            },
            {
                "start_time": 77.2613636,
                "end_time": 79.4022727,
                "pitch": 75,
                "velocity": 64,
                "duration": 2.1409091,
                "tempo": 120.0
            }
        ],
        "Clarinet": [
            {
                "start_time": 4.1590909,
                "end_time": 4.5431818,
                "pitch": 56,
                "velocity": 51,
                "duration": 0.3840909,
                "tempo": 120.0
            },
            {
                "start_time": 4.5590909,
                "end_time": 4.6772727,
                "pitch": 56,
                "velocity": 51,
                "duration": 0.1181818,
                "tempo": 120.0
            },
            {
                "start_time": 4.9545455,
                "end_time": 5.3386364,
                "pitch": 56,
                "velocity": 51,
                "duration": 0.3840909,
                "tempo": 120.0
            },
            {
                "start_time": 5.3568182,
                "end_time": 5.4772727,
                "pitch": 56,
                "velocity": 51,
                "duration": 0.1204545,
                "tempo": 120.0
            },
            {
                "start_time": 5.7704545,
                "end_time": 5.8886364,
                "pitch": 56,
                "velocity": 51,
                "duration": 0.1181818,
                "tempo": 120.0
            },
            {
                "start_time": 5.9045455,
                "end_time": 6.0227273,
                "pitch": 56,
                "velocity": 51,
                "duration": 0.1181818,
                "tempo": 120.0
            },
            {
                "start_time": 6.0386364,
                "end_time": 6.1545455,
                "pitch": 56,
                "velocity": 51,
                "duration": 0.1159091,
                "tempo": 120.0
            },
            {
                "start_time": 6.3068182,
                "end_time": 6.6909091,
                "pitch": 56,
                "velocity": 51,
                "duration": 0.3840909,
                "tempo": 120.0
            },
            {
                "start_time": 6.7068182,
                "end_time": 6.8227273,
                "pitch": 56,
                "velocity": 51,
                "duration": 0.1159091,
                "tempo": 120.0
            },
            {
                "start_time": 7.0977273,
                "end_time": 7.4795455,
                "pitch": 56,
                "velocity": 51,
                "duration": 0.3818182,
                "tempo": 120.0
            },
            {
                "start_time": 7.4954545,
                "end_time": 7.6204545,
                "pitch": 56,
                "velocity": 51,
                "duration": 0.125,
                "tempo": 120.0
            },
            {
                "start_time": 7.9181818,
                "end_time": 8.0363636,
                "pitch": 56,
                "velocity": 51,
                "duration": 0.1181818,
                "tempo": 120.0
            },
            {
                "start_time": 8.0522727,
                "end_time": 8.1704545,
                "pitch": 56,
                "velocity": 51,
                "duration": 0.1181818,
                "tempo": 120.0
            },
            {
                "start_time": 8.1863636,
                "end_time": 8.3045455,
                "pitch": 56,
                "velocity": 51,
                "duration": 0.1181818,
                "tempo": 120.0
            },
            {
                "start_time": 8.4545455,
                "end_time": 8.8454545,
                "pitch": 56,
                "velocity": 51,
                "duration": 0.3909091,
                "tempo": 120.0
            },
            {
                "start_time": 8.8613636,
                "end_time": 8.9818182,
                "pitch": 56,
                "velocity": 51,
                "duration": 0.1204545,
                "tempo": 120.0
            },
            {
                "start_time": 9.2659091,
                "end_time": 10.5931818,
                "pitch": 56,
                "velocity": 51,
                "duration": 1.3272727,
                "tempo": 120.0
            },
            {
                "start_time": 12.7568182,
                "end_time": 13.1477273,
                "pitch": 56,
                "velocity": 51,
                "duration": 0.3909091,
                "tempo": 120.0
            },
            {
                "start_time": 13.1659091,
                "end_time": 13.2840909,
                "pitch": 56,
                "velocity": 51,
                "duration": 0.1181818,
                "tempo": 120.0
            },
            {
                "start_time": 13.5590909,
                "end_time": 13.9386364,
                "pitch": 56,
                "velocity": 51,
                "duration": 0.3795455,
                "tempo": 120.0
            },
            {
                "start_time": 13.9545455,
                "end_time": 14.0772727,
                "pitch": 56,
                "velocity": 51,
                "duration": 0.1227273,
                "tempo": 120.0
            },
            {
                "start_time": 14.3704545,
                "end_time": 14.4886364,
                "pitch": 56,
                "velocity": 51,
                "duration": 0.1181818,
                "tempo": 120.0
            },
            {
                "start_time": 14.5045455,
                "end_time": 14.6204545,
                "pitch": 56,
                "velocity": 51,
                "duration": 0.1159091,
                "tempo": 120.0
            },
            {
                "start_time": 14.6386364,
                "end_time": 14.7545455,
                "pitch": 56,
                "velocity": 51,
                "duration": 0.1159091,
                "tempo": 120.0
            },
            {
                "start_time": 14.9045455,
                "end_time": 15.2886364,
                "pitch": 56,
                "velocity": 51,
                "duration": 0.3840909,
                "tempo": 120.0
            },
            {
                "start_time": 15.3068182,
                "end_time": 15.4227273,
                "pitch": 56,
                "velocity": 51,
                "duration": 0.1159091,
                "tempo": 120.0
            },
            {
                "start_time": 15.7022727,
                "end_time": 16.0863636,
                "pitch": 56,
                "velocity": 51,
                "duration": 0.3840909,
                "tempo": 120.0
            },
            {
                "start_time": 16.1022727,
                "end_time": 16.2227273,
                "pitch": 56,
                "velocity": 51,
                "duration": 0.1204545,
                "tempo": 120.0
            },
            {
                "start_time": 16.5181818,
                "end_time": 16.6363636,
                "pitch": 56,
                "velocity": 51,
                "duration": 0.1181818,
                "tempo": 120.0
            },
            {
                "start_time": 16.6545455,
                "end_time": 16.7727273,
                "pitch": 56,
                "velocity": 51,
                "duration": 0.1181818,
                "tempo": 120.0
            },
            {
                "start_time": 16.7909091,
                "end_time": 16.9090909,
                "pitch": 56,
                "velocity": 51,
                "duration": 0.1181818,
                "tempo": 120.0
            },
            {
                "start_time": 17.0613636,
                "end_time": 17.4409091,
                "pitch": 56,
                "velocity": 51,
                "duration": 0.3795455,
                "tempo": 120.0
            },
            {
                "start_time": 17.4568182,
                "end_time": 17.5704545,
                "pitch": 56,
                "velocity": 51,
                "duration": 0.1136364,
                "tempo": 120.0
            },
            {
                "start_time": 17.8590909,
                "end_time": 19.1931818,
                "pitch": 56,
                "velocity": 51,
                "duration": 1.3340909,
                "tempo": 120.0
            },
            {
                "start_time": 21.3568182,
                "end_time": 21.7477273,
                "pitch": 56,
                "velocity": 51,
                "duration": 0.3909091,
                "tempo": 120.0
            },
            {
                "start_time": 21.7636364,
                "end_time": 21.8840909,
                "pitch": 56,
                "velocity": 51,
                "duration": 0.1204545,
                "tempo": 120.0
            },
            {
                "start_time": 22.1590909,
                "end_time": 22.5363636,
                "pitch": 56,
                "velocity": 51,
                "duration": 0.3772727,
                "tempo": 120.0
            },
            {
                "start_time": 22.5545455,
                "end_time": 22.675,
                "pitch": 56,
                "velocity": 51,
                "duration": 0.1204545,
                "tempo": 120.0
            },
            {
                "start_time": 22.9704545,
                "end_time": 23.0886364,
                "pitch": 56,
                "velocity": 51,
                "duration": 0.1181818,
                "tempo": 120.0
            },
            {
                "start_time": 23.1068182,
                "end_time": 23.225,
                "pitch": 56,
                "velocity": 51,
                "duration": 0.1181818,
                "tempo": 120.0
            },
            {
                "start_time": 23.2431818,
                "end_time": 23.3613636,
                "pitch": 56,
                "velocity": 51,
                "duration": 0.1181818,
                "tempo": 120.0
            },
            {
                "start_time": 23.5136364,
                "end_time": 23.8909091,
                "pitch": 56,
                "velocity": 51,
                "duration": 0.3772727,
                "tempo": 120.0
            },
            {
                "start_time": 23.9068182,
                "end_time": 24.0227273,
                "pitch": 56,
                "velocity": 51,
                "duration": 0.1159091,
                "tempo": 120.0
            },
            {
                "start_time": 24.3022727,
                "end_time": 24.6863636,
                "pitch": 56,
                "velocity": 51,
                "duration": 0.3840909,
                "tempo": 120.0
            },
            {
                "start_time": 24.7022727,
                "end_time": 24.8227273,
                "pitch": 56,
                "velocity": 51,
                "duration": 0.1204545,
                "tempo": 120.0
            },
            {
                "start_time": 25.1181818,
                "end_time": 25.2363636,
                "pitch": 56,
                "velocity": 51,
                "duration": 0.1181818,
                "tempo": 120.0
            },
            {
                "start_time": 25.2545455,
                "end_time": 25.3727273,
                "pitch": 56,
                "velocity": 51,
                "duration": 0.1181818,
                "tempo": 120.0
            },
            {
                "start_time": 25.3909091,
                "end_time": 25.5090909,
                "pitch": 56,
                "velocity": 51,
                "duration": 0.1181818,
                "tempo": 120.0
            },
            {
                "start_time": 25.6613636,
                "end_time": 26.0454545,
                "pitch": 56,
                "velocity": 51,
                "duration": 0.3840909,
                "tempo": 120.0
            },
            {
                "start_time": 26.0636364,
                "end_time": 26.1795455,
                "pitch": 56,
                "velocity": 51,
                "duration": 0.1159091,
                "tempo": 120.0
            },
            {
                "start_time": 26.4590909,
                "end_time": 27.7931818,
                "pitch": 56,
                "velocity": 51,
                "duration": 1.3340909,
                "tempo": 120.0
            }
        ],
        "Trumpet": [
            {
                "start_time": 47.7068182,
                "end_time": 47.9568182,
                "pitch": 73,
                "velocity": 80,
                "duration": 0.25,
                "tempo": 120.0
            },
            {
                "start_time": 47.975,
                "end_time": 49.2931818,
                "pitch": 68,
                "velocity": 80,
                "duration": 1.3181818,
                "tempo": 120.0
            },
            {
                "start_time": 49.5772727,
                "end_time": 49.8272727,
                "pitch": 75,
                "velocity": 80,
                "duration": 0.25,
                "tempo": 120.0
            },
            {
                "start_time": 49.8454545,
                "end_time": 50.1045455,
                "pitch": 73,
                "velocity": 80,
                "duration": 0.2590909,
                "tempo": 120.0
            },
            {
                "start_time": 50.1204545,
                "end_time": 50.3818182,
                "pitch": 68,
                "velocity": 80,
                "duration": 0.2613636,
                "tempo": 120.0
            },
            {
                "start_time": 50.3977273,
                "end_time": 50.65,
                "pitch": 75,
                "velocity": 80,
                "duration": 0.2522727,
                "tempo": 120.0
            },
            {
                "start_time": 50.6659091,
                "end_time": 50.9159091,
                "pitch": 73,
                "velocity": 80,
                "duration": 0.25,
                "tempo": 120.0
            },
            {
                "start_time": 50.9318182,
                "end_time": 51.45,
                "pitch": 68,
                "velocity": 80,
                "duration": 0.5181818,
                "tempo": 120.0
            },
            {
                "start_time": 51.4681818,
                "end_time": 51.9840909,
                "pitch": 75,
                "velocity": 80,
                "duration": 0.5159091,
                "tempo": 120.0
            },
            {
                "start_time": 52.0022727,
                "end_time": 52.2568182,
                "pitch": 73,
                "velocity": 80,
                "duration": 0.2545455,
                "tempo": 120.0
            },
            {
                "start_time": 52.2727273,
                "end_time": 53.5977273,
                "pitch": 68,
                "velocity": 80,
                "duration": 1.325,
                "tempo": 120.0
            },
            {
                "start_time": 53.8818182,
                "end_time": 54.1318182,
                "pitch": 75,
                "velocity": 80,
                "duration": 0.25,
                "tempo": 120.0
            },
            {
                "start_time": 54.1477273,
                "end_time": 54.4045455,
                "pitch": 73,
                "velocity": 80,
                "duration": 0.2568182,
                "tempo": 120.0
            },
            {
                "start_time": 54.4204545,
                "end_time": 54.675,
                "pitch": 68,
                "velocity": 80,
                "duration": 0.2545455,
                "tempo": 120.0
            },
            {
                "start_time": 54.6931818,
                "end_time": 54.9431818,
                "pitch": 75,
                "velocity": 80,
                "duration": 0.25,
                "tempo": 120.0
            },
            {
                "start_time": 54.9590909,
                "end_time": 55.2113636,
                "pitch": 73,
                "velocity": 80,
                "duration": 0.2522727,
                "tempo": 120.0
            },
            {
                "start_time": 55.2272727,
                "end_time": 55.7545455,
                "pitch": 68,
                "velocity": 80,
                "duration": 0.5272727,
                "tempo": 120.0
            },
            {
                "start_time": 55.7704545,
                "end_time": 56.2795455,
                "pitch": 76,
                "velocity": 80,
                "duration": 0.5090909,
                "tempo": 120.0
            },
            {
                "start_time": 56.2954545,
                "end_time": 56.55,
                "pitch": 74,
                "velocity": 80,
                "duration": 0.2545455,
                "tempo": 120.0
            },
            {
                "start_time": 56.5681818,
                "end_time": 57.8909091,
                "pitch": 69,
                "velocity": 80,
                "duration": 1.3227273,
                "tempo": 120.0
            },
            {
                "start_time": 58.1795455,
                "end_time": 58.4363636,
                "pitch": 76,
                "velocity": 80,
                "duration": 0.2568182,
                "tempo": 120.0
            },
            {
                "start_time": 58.4522727,
                "end_time": 58.7068182,
                "pitch": 74,
                "velocity": 80,
                "duration": 0.2545455,
                "tempo": 120.0
            },
            {
                "start_time": 58.725,
                "end_time": 58.9795455,
                "pitch": 69,
                "velocity": 80,
                "duration": 0.2545455,
                "tempo": 120.0
            },
            {
                "start_time": 58.9954545,
                "end_time": 59.2477273,
                "pitch": 76,
                "velocity": 80,
                "duration": 0.2522727,
                "tempo": 120.0
            },
            {
                "start_time": 59.2636364,
                "end_time": 59.5136364,
                "pitch": 74,
                "velocity": 80,
                "duration": 0.25,
                "tempo": 120.0
            },
            {
                "start_time": 59.5318182,
                "end_time": 60.0477273,
                "pitch": 69,
                "velocity": 80,
                "duration": 0.5159091,
                "tempo": 120.0
            },
            {
                "start_time": 60.0659091,
                "end_time": 60.5840909,
                "pitch": 76,
                "velocity": 80,
                "duration": 0.5181818,
                "tempo": 120.0
            },
            {
                "start_time": 60.6,
                "end_time": 60.8545455,
                "pitch": 74,
                "velocity": 80,
                "duration": 0.2545455,
                "tempo": 120.0
            },
            {
                "start_time": 60.8704545,
                "end_time": 62.1954545,
                "pitch": 69,
                "velocity": 80,
                "duration": 1.325,
                "tempo": 120.0
            },
            {
                "start_time": 62.475,
                "end_time": 62.7204545,
                "pitch": 76,
                "velocity": 80,
                "duration": 0.2454545,
                "tempo": 120.0
            },
            {
                "start_time": 62.7363636,
                "end_time": 62.9954545,
                "pitch": 74,
                "velocity": 80,
                "duration": 0.2590909,
                "tempo": 120.0
            },
            {
                "start_time": 63.0136364,
                "end_time": 63.2727273,
                "pitch": 69,
                "velocity": 80,
                "duration": 0.2590909,
                "tempo": 120.0
            },
            {
                "start_time": 63.2909091,
                "end_time": 63.5454545,
                "pitch": 76,
                "velocity": 80,
                "duration": 0.2545455,
                "tempo": 120.0
            },
            {
                "start_time": 63.5636364,
                "end_time": 63.8181818,
                "pitch": 74,
                "velocity": 80,
                "duration": 0.2545455,
                "tempo": 120.0
            },
            {
                "start_time": 63.8340909,
                "end_time": 64.3522727,
                "pitch": 59,
                "velocity": 80,
                "duration": 0.5181818,
                "tempo": 120.0
            },
            {
                "start_time": 64.3704545,
                "end_time": 64.6159091,
                "pitch": 64,
                "velocity": 80,
                "duration": 0.2454545,
                "tempo": 120.0
            },
            {
                "start_time": 64.6318182,
                "end_time": 64.8772727,
                "pitch": 57,
                "velocity": 51,
                "duration": 0.2454545,
                "tempo": 120.0
            },
            {
                "start_time": 64.8954545,
                "end_time": 65.15,
                "pitch": 62,
                "velocity": 51,
                "duration": 0.2545455,
                "tempo": 120.0
            },
            {
                "start_time": 65.1659091,
                "end_time": 65.4204545,
                "pitch": 57,
                "velocity": 51,
                "duration": 0.2545455,
                "tempo": 120.0
            },
            {
                "start_time": 65.4386364,
                "end_time": 65.6886364,
                "pitch": 60,
                "velocity": 51,
                "duration": 0.25,
                "tempo": 120.0
            },
            {
                "start_time": 65.7068182,
                "end_time": 65.9568182,
                "pitch": 57,
                "velocity": 51,
                "duration": 0.25,
                "tempo": 120.0
            },
            {
                "start_time": 65.9727273,
                "end_time": 66.2272727,
                "pitch": 62,
                "velocity": 51,
                "duration": 0.2545455,
                "tempo": 120.0
            },
            {
                "start_time": 66.2454545,
                "end_time": 66.5,
                "pitch": 57,
                "velocity": 51,
                "duration": 0.2545455,
                "tempo": 120.0
            },
            {
                "start_time": 66.5159091,
                "end_time": 66.7681818,
                "pitch": 64,
                "velocity": 51,
                "duration": 0.2522727,
                "tempo": 120.0
            },
            {
                "start_time": 66.7840909,
                "end_time": 67.0340909,
                "pitch": 57,
                "velocity": 51,
                "duration": 0.25,
                "tempo": 120.0
            },
            {
                "start_time": 67.0522727,
                "end_time": 67.3022727,
                "pitch": 62,
                "velocity": 51,
                "duration": 0.25,
                "tempo": 120.0
            },
            {
                "start_time": 67.3181818,
                "end_time": 67.5681818,
                "pitch": 57,
                "velocity": 51,
                "duration": 0.25,
                "tempo": 120.0
            },
            {
                "start_time": 67.5863636,
                "end_time": 67.8363636,
                "pitch": 60,
                "velocity": 51,
                "duration": 0.25,
                "tempo": 120.0
            },
            {
                "start_time": 67.8522727,
                "end_time": 68.1022727,
                "pitch": 57,
                "velocity": 51,
                "duration": 0.25,
                "tempo": 120.0
            },
            {
                "start_time": 68.1204545,
                "end_time": 68.375,
                "pitch": 62,
                "velocity": 51,
                "duration": 0.2545455,
                "tempo": 120.0
            },
            {
                "start_time": 68.3909091,
                "end_time": 68.6477273,
                "pitch": 57,
                "velocity": 51,
                "duration": 0.2568182,
                "tempo": 120.0
            },
            {
                "start_time": 68.6636364,
                "end_time": 68.9136364,
                "pitch": 72,
                "velocity": 51,
                "duration": 0.25,
                "tempo": 120.0
            },
            {
                "start_time": 68.9318182,
                "end_time": 69.1818182,
                "pitch": 64,
                "velocity": 51,
                "duration": 0.25,
                "tempo": 120.0
            },
            {
                "start_time": 69.1977273,
                "end_time": 69.4522727,
                "pitch": 71,
                "velocity": 51,
                "duration": 0.2545455,
                "tempo": 120.0
            },
            {
                "start_time": 69.4704545,
                "end_time": 69.725,
                "pitch": 64,
                "velocity": 51,
                "duration": 0.2545455,
                "tempo": 120.0
            },
            {
                "start_time": 69.7431818,
                "end_time": 69.9931818,
                "pitch": 69,
                "velocity": 51,
                "duration": 0.25,
                "tempo": 120.0
            },
            {
                "start_time": 70.0090909,
                "end_time": 70.2590909,
                "pitch": 64,
                "velocity": 51,
                "duration": 0.25,
                "tempo": 120.0
            },
            {
                "start_time": 70.2772727,
                "end_time": 70.5272727,
                "pitch": 71,
                "velocity": 51,
                "duration": 0.25,
                "tempo": 120.0
            },
            {
                "start_time": 70.5431818,
                "end_time": 70.7954545,
                "pitch": 64,
                "velocity": 51,
                "duration": 0.2522727,
                "tempo": 120.0
            },
            {
                "start_time": 70.8113636,
                "end_time": 71.0613636,
                "pitch": 72,
                "velocity": 51,
                "duration": 0.25,
                "tempo": 120.0
            },
            {
                "start_time": 71.0772727,
                "end_time": 71.3295455,
                "pitch": 64,
                "velocity": 51,
                "duration": 0.2522727,
                "tempo": 120.0
            },
            {
                "start_time": 71.3454545,
                "end_time": 71.6,
                "pitch": 71,
                "velocity": 51,
                "duration": 0.2545455,
                "tempo": 120.0
            },
            {
                "start_time": 71.6181818,
                "end_time": 71.8727273,
                "pitch": 64,
                "velocity": 51,
                "duration": 0.2545455,
                "tempo": 120.0
            },
            {
                "start_time": 71.8886364,
                "end_time": 72.1409091,
                "pitch": 69,
                "velocity": 51,
                "duration": 0.2522727,
                "tempo": 120.0
            },
            {
                "start_time": 72.1568182,
                "end_time": 72.4068182,
                "pitch": 64,
                "velocity": 51,
                "duration": 0.25,
                "tempo": 120.0
            },
            {
                "start_time": 72.4227273,
                "end_time": 72.6795455,
                "pitch": 71,
                "velocity": 51,
                "duration": 0.2568182,
                "tempo": 120.0
            },
            {
                "start_time": 72.6954545,
                "end_time": 72.95,
                "pitch": 64,
                "velocity": 51,
                "duration": 0.2545455,
                "tempo": 120.0
            },
            {
                "start_time": 72.9681818,
                "end_time": 73.2227273,
                "pitch": 71,
                "velocity": 51,
                "duration": 0.2545455,
                "tempo": 120.0
            },
            {
                "start_time": 73.2386364,
                "end_time": 73.4954545,
                "pitch": 63,
                "velocity": 51,
                "duration": 0.2568182,
                "tempo": 120.0
            },
            {
                "start_time": 73.5113636,
                "end_time": 73.7568182,
                "pitch": 70,
                "velocity": 51,
                "duration": 0.2454545,
                "tempo": 120.0
            },
            {
                "start_time": 73.775,
                "end_time": 74.0204545,
                "pitch": 63,
                "velocity": 51,
                "duration": 0.2454545,
                "tempo": 120.0
            },
            {
                "start_time": 74.0363636,
                "end_time": 74.2863636,
                "pitch": 68,
                "velocity": 51,
                "duration": 0.25,
                "tempo": 120.0
            },
            {
                "start_time": 74.3045455,
                "end_time": 74.5545455,
                "pitch": 63,
                "velocity": 51,
                "duration": 0.25,
                "tempo": 120.0
            },
            {
                "start_time": 74.5704545,
                "end_time": 74.825,
                "pitch": 70,
                "velocity": 51,
                "duration": 0.2545455,
                "tempo": 120.0
            },
            {
                "start_time": 74.8431818,
                "end_time": 75.0977273,
                "pitch": 63,
                "velocity": 51,
                "duration": 0.2545455,
                "tempo": 120.0
            },
            {
                "start_time": 75.1159091,
                "end_time": 75.3659091,
                "pitch": 71,
                "velocity": 51,
                "duration": 0.25,
                "tempo": 120.0
            },
            {
                "start_time": 75.3818182,
                "end_time": 75.6318182,
                "pitch": 63,
                "velocity": 51,
                "duration": 0.25,
                "tempo": 120.0
            },
            {
                "start_time": 75.65,
                "end_time": 75.9045455,
                "pitch": 70,
                "velocity": 51,
                "duration": 0.2545455,
                "tempo": 120.0
            },
            {
                "start_time": 75.9204545,
                "end_time": 76.1772727,
                "pitch": 63,
                "velocity": 51,
                "duration": 0.2568182,
                "tempo": 120.0
            },
            {
                "start_time": 76.1931818,
                "end_time": 76.4431818,
                "pitch": 68,
                "velocity": 51,
                "duration": 0.25,
                "tempo": 120.0
            },
            {
                "start_time": 76.4613636,
                "end_time": 76.7113636,
                "pitch": 63,
                "velocity": 51,
                "duration": 0.25,
                "tempo": 120.0
            },
            {
                "start_time": 76.7272727,
                "end_time": 76.9772727,
                "pitch": 70,
                "velocity": 51,
                "duration": 0.25,
                "tempo": 120.0
            },
            {
                "start_time": 76.9954545,
                "end_time": 77.2454545,
                "pitch": 63,
                "velocity": 51,
                "duration": 0.25,
                "tempo": 120.0
            },
            {
                "start_time": 77.2613636,
                "end_time": 77.5136364,
                "pitch": 71,
                "velocity": 51,
                "duration": 0.2522727,
                "tempo": 120.0
            },
            {
                "start_time": 77.5295455,
                "end_time": 77.7795455,
                "pitch": 63,
                "velocity": 51,
                "duration": 0.25,
                "tempo": 120.0
            },
            {
                "start_time": 77.7977273,
                "end_time": 78.0522727,
                "pitch": 70,
                "velocity": 51,
                "duration": 0.2545455,
                "tempo": 120.0
            },
            {
                "start_time": 78.0681818,
                "end_time": 78.3227273,
                "pitch": 63,
                "velocity": 51,
                "duration": 0.2545455,
                "tempo": 120.0
            },
            {
                "start_time": 78.3409091,
                "end_time": 78.5909091,
                "pitch": 68,
                "velocity": 51,
                "duration": 0.25,
                "tempo": 120.0
            },
            {
                "start_time": 78.6068182,
                "end_time": 78.8590909,
                "pitch": 63,
                "velocity": 51,
                "duration": 0.2522727,
                "tempo": 120.0
            },
            {
                "start_time": 78.875,
                "end_time": 79.1295455,
                "pitch": 70,
                "velocity": 51,
                "duration": 0.2545455,
                "tempo": 120.0
            },
            {
                "start_time": 79.1477273,
                "end_time": 79.4022727,
                "pitch": 63,
                "velocity": 51,
                "duration": 0.2545455,
                "tempo": 120.0
            },
            {
                "start_time": 79.4181818,
                "end_time": 79.6704545,
                "pitch": 71,
                "velocity": 51,
                "duration": 0.2522727,
                "tempo": 120.0
            },
            {
                "start_time": 79.6863636,
                "end_time": 79.9363636,
                "pitch": 63,
                "velocity": 51,
                "duration": 0.25,
                "tempo": 120.0
            },
            {
                "start_time": 79.9522727,
                "end_time": 80.2045455,
                "pitch": 70,
                "velocity": 51,
                "duration": 0.2522727,
                "tempo": 120.0
            },
            {
                "start_time": 80.2204545,
                "end_time": 80.4704545,
                "pitch": 63,
                "velocity": 51,
                "duration": 0.25,
                "tempo": 120.0
            },
            {
                "start_time": 80.4886364,
                "end_time": 80.7386364,
                "pitch": 68,
                "velocity": 51,
                "duration": 0.25,
                "tempo": 120.0
            },
            {
                "start_time": 80.7545455,
                "end_time": 81.0045455,
                "pitch": 63,
                "velocity": 51,
                "duration": 0.25,
                "tempo": 120.0
            },
            {
                "start_time": 81.0227273,
                "end_time": 81.2772727,
                "pitch": 70,
                "velocity": 51,
                "duration": 0.2545455,
                "tempo": 120.0
            },
            {
                "start_time": 81.2931818,
                "end_time": 81.55,
                "pitch": 63,
                "velocity": 51,
                "duration": 0.2568182,
                "tempo": 120.0
            }
        ],
        "Acoustic Grand Piano": [
            {
                "start_time": 0.0,
                "end_time": 0.175,
                "pitch": 32,
                "velocity": 80,
                "duration": 0.175,
                "tempo": 120.0
            },
            {
                "start_time": 0.1886364,
                "end_time": 0.3772727,
                "pitch": 32,
                "velocity": 80,
                "duration": 0.1886364,
                "tempo": 120.0
            },
            {
                "start_time": 0.3909091,
                "end_time": 0.6386364,
                "pitch": 32,
                "velocity": 80,
                "duration": 0.2477273,
                "tempo": 120.0
            },
            {
                "start_time": 0.6568182,
                "end_time": 0.9068182,
                "pitch": 32,
                "velocity": 80,
                "duration": 0.25,
                "tempo": 120.0
            },
            {
                "start_time": 0.9227273,
                "end_time": 1.1772727,
                "pitch": 32,
                "velocity": 80,
                "duration": 0.2545455,
                "tempo": 120.0
            },
            {
                "start_time": 1.1954545,
                "end_time": 1.45,
                "pitch": 32,
                "velocity": 80,
                "duration": 0.2545455,
                "tempo": 120.0
            },
            {
                "start_time": 1.4681818,
                "end_time": 1.7181818,
                "pitch": 32,
                "velocity": 80,
                "duration": 0.25,
                "tempo": 120.0
            },
            {
                "start_time": 1.7340909,
                "end_time": 1.9840909,
                "pitch": 32,
                "velocity": 80,
                "duration": 0.25,
                "tempo": 120.0
            },
            {
                "start_time": 2.0022727,
                "end_time": 2.2522727,
                "pitch": 32,
                "velocity": 80,
                "duration": 0.25,
                "tempo": 120.0
            },
            {
                "start_time": 2.2681818,
                "end_time": 2.5204545,
                "pitch": 32,
                "velocity": 80,
                "duration": 0.2522727,
                "tempo": 120.0
            },
            {
                "start_time": 2.5363636,
                "end_time": 2.7909091,
                "pitch": 32,
                "velocity": 80,
                "duration": 0.2545455,
                "tempo": 120.0
            },
            {
                "start_time": 2.8090909,
                "end_time": 3.0636364,
                "pitch": 32,
                "velocity": 80,
                "duration": 0.2545455,
                "tempo": 120.0
            },
            {
                "start_time": 3.0795455,
                "end_time": 3.3295455,
                "pitch": 32,
                "velocity": 80,
                "duration": 0.25,
                "tempo": 120.0
            },
            {
                "start_time": 3.3477273,
                "end_time": 3.5977273,
                "pitch": 32,
                "velocity": 80,
                "duration": 0.25,
                "tempo": 120.0
            },
            {
                "start_time": 3.6136364,
                "end_time": 3.8704545,
                "pitch": 32,
                "velocity": 80,
                "duration": 0.2568182,
                "tempo": 120.0
            },
            {
                "start_time": 3.8863636,
                "end_time": 4.1409091,
                "pitch": 32,
                "velocity": 80,
                "duration": 0.2545455,
                "tempo": 120.0
            },
            {
                "start_time": 4.1590909,
                "end_time": 4.4090909,
                "pitch": 33,
                "velocity": 80,
                "duration": 0.25,
                "tempo": 120.0
            },
            {
                "start_time": 4.425,
                "end_time": 4.6772727,
                "pitch": 33,
                "velocity": 80,
                "duration": 0.2522727,
                "tempo": 120.0
            },
            {
                "start_time": 4.6931818,
                "end_time": 4.9386364,
                "pitch": 33,
                "velocity": 80,
                "duration": 0.2454545,
                "tempo": 120.0
            },
            {
                "start_time": 4.9545455,
                "end_time": 5.2022727,
                "pitch": 33,
                "velocity": 80,
                "duration": 0.2477273,
                "tempo": 120.0
            },
            {
                "start_time": 5.2181818,
                "end_time": 5.4772727,
                "pitch": 33,
                "velocity": 80,
                "duration": 0.2590909,
                "tempo": 120.0
            },
            {
                "start_time": 5.4931818,
                "end_time": 5.7545455,
                "pitch": 33,
                "velocity": 80,
                "duration": 0.2613636,
                "tempo": 120.0
            },
            {
                "start_time": 5.7704545,
                "end_time": 6.0227273,
                "pitch": 33,
                "velocity": 80,
                "duration": 0.2522727,
                "tempo": 120.0
            },
            {
                "start_time": 6.0386364,
                "end_time": 6.2886364,
                "pitch": 33,
                "velocity": 80,
                "duration": 0.25,
                "tempo": 120.0
            },
            {
                "start_time": 6.3068182,
                "end_time": 6.5568182,
                "pitch": 33,
                "velocity": 80,
                "duration": 0.25,
                "tempo": 120.0
            },
            {
                "start_time": 6.5727273,
                "end_time": 6.8227273,
                "pitch": 33,
                "velocity": 80,
                "duration": 0.25,
                "tempo": 120.0
            },
            {
                "start_time": 6.8386364,
                "end_time": 7.0818182,
                "pitch": 33,
                "velocity": 80,
                "duration": 0.2431818,
                "tempo": 120.0
            },
            {
                "start_time": 7.0977273,
                "end_time": 7.3386364,
                "pitch": 33,
                "velocity": 80,
                "duration": 0.2409091,
                "tempo": 120.0
            },
            {
                "start_time": 7.3568182,
                "end_time": 7.6204545,
                "pitch": 33,
                "velocity": 80,
                "duration": 0.2636364,
                "tempo": 120.0
            },
            {
                "start_time": 7.6363636,
                "end_time": 7.9022727,
                "pitch": 33,
                "velocity": 80,
                "duration": 0.2659091,
                "tempo": 120.0
            },
            {
                "start_time": 7.9181818,
                "end_time": 8.1704545,
                "pitch": 33,
                "velocity": 80,
                "duration": 0.2522727,
                "tempo": 120.0
            },
            {
                "start_time": 8.1863636,
                "end_time": 8.4363636,
                "pitch": 33,
                "velocity": 80,
                "duration": 0.25,
                "tempo": 120.0
            },
            {
                "start_time": 8.4545455,
                "end_time": 8.7090909,
                "pitch": 32,
                "velocity": 80,
                "duration": 0.2545455,
                "tempo": 120.0
            },
            {
                "start_time": 8.725,
                "end_time": 8.9818182,
                "pitch": 32,
                "velocity": 80,
                "duration": 0.2568182,
                "tempo": 120.0
            },
            {
                "start_time": 8.9977273,
                "end_time": 9.2477273,
                "pitch": 32,
                "velocity": 80,
                "duration": 0.25,
                "tempo": 120.0
            },
            {
                "start_time": 9.2659091,
                "end_time": 9.5159091,
                "pitch": 32,
                "velocity": 80,
                "duration": 0.25,
                "tempo": 120.0
            },
            {
                "start_time": 9.5318182,
                "end_time": 9.7818182,
                "pitch": 32,
                "velocity": 80,
                "duration": 0.25,
                "tempo": 120.0
            },
            {
                "start_time": 9.8,
                "end_time": 10.05,
                "pitch": 32,
                "velocity": 80,
                "duration": 0.25,
                "tempo": 120.0
            },
            {
                "start_time": 10.0659091,
                "end_time": 10.3204545,
                "pitch": 32,
                "velocity": 80,
                "duration": 0.2545455,
                "tempo": 120.0
            },
            {
                "start_time": 10.3386364,
                "end_time": 10.5931818,
                "pitch": 32,
                "velocity": 80,
                "duration": 0.2545455,
                "tempo": 120.0
            },
            {
                "start_time": 10.6113636,
                "end_time": 10.8613636,
                "pitch": 32,
                "velocity": 80,
                "duration": 0.25,
                "tempo": 120.0
            },
            {
                "start_time": 10.8772727,
                "end_time": 11.1295455,
                "pitch": 32,
                "velocity": 80,
                "duration": 0.2522727,
                "tempo": 120.0
            },
            {
                "start_time": 11.1454545,
                "end_time": 11.3954545,
                "pitch": 32,
                "velocity": 80,
                "duration": 0.25,
                "tempo": 120.0
            },
            {
                "start_time": 11.4113636,
                "end_time": 11.6636364,
                "pitch": 32,
                "velocity": 80,
                "duration": 0.2522727,
                "tempo": 120.0
            },
            {
                "start_time": 11.6795455,
                "end_time": 11.9340909,
                "pitch": 32,
                "velocity": 80,
                "duration": 0.2545455,
                "tempo": 120.0
            },
            {
                "start_time": 11.9522727,
                "end_time": 12.2068182,
                "pitch": 32,
                "velocity": 80,
                "duration": 0.2545455,
                "tempo": 120.0
            },
            {
                "start_time": 12.2227273,
                "end_time": 12.475,
                "pitch": 32,
                "velocity": 80,
                "duration": 0.2522727,
                "tempo": 120.0
            },
            {
                "start_time": 12.4909091,
                "end_time": 12.7409091,
                "pitch": 32,
                "velocity": 80,
                "duration": 0.25,
                "tempo": 120.0
            },
            {
                "start_time": 12.7568182,
                "end_time": 13.0136364,
                "pitch": 33,
                "velocity": 80,
                "duration": 0.2568182,
                "tempo": 120.0
            },
            {
                "start_time": 13.0295455,
                "end_time": 13.2840909,
                "pitch": 33,
                "velocity": 80,
                "duration": 0.2545455,
                "tempo": 120.0
            },
            {
                "start_time": 13.3022727,
                "end_time": 13.5431818,
                "pitch": 33,
                "velocity": 80,
                "duration": 0.2409091,
                "tempo": 120.0
            },
            {
                "start_time": 13.5590909,
                "end_time": 13.8022727,
                "pitch": 33,
                "velocity": 80,
                "duration": 0.2431818,
                "tempo": 120.0
            },
            {
                "start_time": 13.8181818,
                "end_time": 14.0772727,
                "pitch": 33,
                "velocity": 80,
                "duration": 0.2590909,
                "tempo": 120.0
            },
            {
                "start_time": 14.0931818,
                "end_time": 14.3522727,
                "pitch": 33,
                "velocity": 80,
                "duration": 0.2590909,
                "tempo": 120.0
            },
            {
                "start_time": 14.3704545,
                "end_time": 14.6204545,
                "pitch": 33,
                "velocity": 80,
                "duration": 0.25,
                "tempo": 120.0
            },
            {
                "start_time": 14.6386364,
                "end_time": 14.8886364,
                "pitch": 33,
                "velocity": 80,
                "duration": 0.25,
                "tempo": 120.0
            },
            {
                "start_time": 14.9045455,
                "end_time": 15.1568182,
                "pitch": 33,
                "velocity": 80,
                "duration": 0.2522727,
                "tempo": 120.0
            },
            {
                "start_time": 15.1727273,
                "end_time": 15.4227273,
                "pitch": 33,
                "velocity": 80,
                "duration": 0.25,
                "tempo": 120.0
            },
            {
                "start_time": 15.4386364,
                "end_time": 15.6863636,
                "pitch": 33,
                "velocity": 80,
                "duration": 0.2477273,
                "tempo": 120.0
            },
            {
                "start_time": 15.7022727,
                "end_time": 15.9477273,
                "pitch": 33,
                "velocity": 80,
                "duration": 0.2454545,
                "tempo": 120.0
            },
            {
                "start_time": 15.9636364,
                "end_time": 16.2227273,
                "pitch": 33,
                "velocity": 80,
                "duration": 0.2590909,
                "tempo": 120.0
            },
            {
                "start_time": 16.2409091,
                "end_time": 16.5,
                "pitch": 33,
                "velocity": 80,
                "duration": 0.2590909,
                "tempo": 120.0
            },
            {
                "start_time": 16.5181818,
                "end_time": 16.7727273,
                "pitch": 33,
                "velocity": 80,
                "duration": 0.2545455,
                "tempo": 120.0
            },
            {
                "start_time": 16.7909091,
                "end_time": 17.0454545,
                "pitch": 33,
                "velocity": 80,
                "duration": 0.2545455,
                "tempo": 120.0
            },
            {
                "start_time": 17.0613636,
                "end_time": 17.3090909,
                "pitch": 32,
                "velocity": 80,
                "duration": 0.2477273,
                "tempo": 120.0
            },
            {
                "start_time": 17.325,
                "end_time": 17.5704545,
                "pitch": 32,
                "velocity": 80,
                "duration": 0.2454545,
                "tempo": 120.0
            },
            {
                "start_time": 17.5863636,
                "end_time": 17.8431818,
                "pitch": 32,
                "velocity": 80,
                "duration": 0.2568182,
                "tempo": 120.0
            },
            {
                "start_time": 17.8590909,
                "end_time": 18.1136364,
                "pitch": 32,
                "velocity": 80,
                "duration": 0.2545455,
                "tempo": 120.0
            },
            {
                "start_time": 18.1318182,
                "end_time": 18.3863636,
                "pitch": 32,
                "velocity": 80,
                "duration": 0.2545455,
                "tempo": 120.0
            },
            {
                "start_time": 18.4022727,
                "end_time": 18.6590909,
                "pitch": 32,
                "velocity": 80,
                "duration": 0.2568182,
                "tempo": 120.0
            },
            {
                "start_time": 18.675,
                "end_time": 18.925,
                "pitch": 32,
                "velocity": 80,
                "duration": 0.25,
                "tempo": 120.0
            },
            {
                "start_time": 18.9431818,
                "end_time": 19.1931818,
                "pitch": 32,
                "velocity": 80,
                "duration": 0.25,
                "tempo": 120.0
            },
            {
                "start_time": 19.2090909,
                "end_time": 19.4613636,
                "pitch": 32,
                "velocity": 80,
                "duration": 0.2522727,
                "tempo": 120.0
            },
            {
                "start_time": 19.4772727,
                "end_time": 19.7272727,
                "pitch": 32,
                "velocity": 80,
                "duration": 0.25,
                "tempo": 120.0
            },
            {
                "start_time": 19.7431818,
                "end_time": 20.0,
                "pitch": 32,
                "velocity": 80,
                "duration": 0.2568182,
                "tempo": 120.0
            },
            {
                "start_time": 20.0159091,
                "end_time": 20.2704545,
                "pitch": 32,
                "velocity": 80,
                "duration": 0.2545455,
                "tempo": 120.0
            },
            {
                "start_time": 20.2886364,
                "end_time": 20.5386364,
                "pitch": 32,
                "velocity": 80,
                "duration": 0.25,
                "tempo": 120.0
            },
            {
                "start_time": 20.5545455,
                "end_time": 20.8068182,
                "pitch": 32,
                "velocity": 80,
                "duration": 0.2522727,
                "tempo": 120.0
            },
            {
                "start_time": 20.8227273,
                "end_time": 21.0727273,
                "pitch": 32,
                "velocity": 80,
                "duration": 0.25,
                "tempo": 120.0
            },
            {
                "start_time": 21.0886364,
                "end_time": 21.3409091,
                "pitch": 32,
                "velocity": 80,
                "duration": 0.2522727,
                "tempo": 120.0
            },
            {
                "start_time": 21.3568182,
                "end_time": 21.6113636,
                "pitch": 33,
                "velocity": 80,
                "duration": 0.2545455,
                "tempo": 120.0
            },
            {
                "start_time": 21.6295455,
                "end_time": 21.8840909,
                "pitch": 33,
                "velocity": 80,
                "duration": 0.2545455,
                "tempo": 120.0
            },
            {
                "start_time": 21.9,
                "end_time": 22.1431818,
                "pitch": 33,
                "velocity": 80,
                "duration": 0.2431818,
                "tempo": 120.0
            },
            {
                "start_time": 22.1590909,
                "end_time": 22.4,
                "pitch": 33,
                "velocity": 80,
                "duration": 0.2409091,
                "tempo": 120.0
            },
            {
                "start_time": 22.4159091,
                "end_time": 22.675,
                "pitch": 33,
                "velocity": 80,
                "duration": 0.2590909,
                "tempo": 120.0
            },
            {
                "start_time": 22.6931818,
                "end_time": 22.9522727,
                "pitch": 33,
                "velocity": 80,
                "duration": 0.2590909,
                "tempo": 120.0
            },
            {
                "start_time": 22.9704545,
                "end_time": 23.225,
                "pitch": 33,
                "velocity": 80,
                "duration": 0.2545455,
                "tempo": 120.0
            },
            {
                "start_time": 23.2431818,
                "end_time": 23.4977273,
                "pitch": 33,
                "velocity": 80,
                "duration": 0.2545455,
                "tempo": 120.0
            },
            {
                "start_time": 23.5136364,
                "end_time": 23.7590909,
                "pitch": 33,
                "velocity": 80,
                "duration": 0.2454545,
                "tempo": 120.0
            },
            {
                "start_time": 23.7772727,
                "end_time": 24.0227273,
                "pitch": 33,
                "velocity": 80,
                "duration": 0.2454545,
                "tempo": 120.0
            },
            {
                "start_time": 24.0386364,
                "end_time": 24.2863636,
                "pitch": 33,
                "velocity": 80,
                "duration": 0.2477273,
                "tempo": 120.0
            },
            {
                "start_time": 24.3022727,
                "end_time": 24.5477273,
                "pitch": 33,
                "velocity": 80,
                "duration": 0.2454545,
                "tempo": 120.0
            },
            {
                "start_time": 24.5636364,
                "end_time": 24.8227273,
                "pitch": 33,
                "velocity": 80,
                "duration": 0.2590909,
                "tempo": 120.0
            },
            {
                "start_time": 24.8409091,
                "end_time": 25.1,
                "pitch": 33,
                "velocity": 80,
                "duration": 0.2590909,
                "tempo": 120.0
            },
            {
                "start_time": 25.1181818,
                "end_time": 25.3727273,
                "pitch": 33,
                "velocity": 80,
                "duration": 0.2545455,
                "tempo": 120.0
            },
            {
                "start_time": 25.3909091,
                "end_time": 25.6454545,
                "pitch": 33,
                "velocity": 80,
                "duration": 0.2545455,
                "tempo": 120.0
            },
            {
                "start_time": 25.6613636,
                "end_time": 25.9136364,
                "pitch": 32,
                "velocity": 80,
                "duration": 0.2522727,
                "tempo": 120.0
            },
            {
                "start_time": 25.9295455,
                "end_time": 26.1795455,
                "pitch": 32,
                "velocity": 80,
                "duration": 0.25,
                "tempo": 120.0
            },
            {
                "start_time": 26.1977273,
                "end_time": 26.4431818,
                "pitch": 32,
                "velocity": 80,
                "duration": 0.2454545,
                "tempo": 120.0
            },
            {
                "start_time": 26.4590909,
                "end_time": 26.7045455,
                "pitch": 32,
                "velocity": 80,
                "duration": 0.2454545,
                "tempo": 120.0
            },
            {
                "start_time": 26.7227273,
                "end_time": 26.9818182,
                "pitch": 32,
                "velocity": 80,
                "duration": 0.2590909,
                "tempo": 120.0
            },
            {
                "start_time": 26.9977273,
                "end_time": 27.2568182,
                "pitch": 32,
                "velocity": 80,
                "duration": 0.2590909,
                "tempo": 120.0
            },
            {
                "start_time": 27.275,
                "end_time": 27.525,
                "pitch": 32,
                "velocity": 80,
                "duration": 0.25,
                "tempo": 120.0
            },
            {
                "start_time": 27.5431818,
                "end_time": 27.7931818,
                "pitch": 32,
                "velocity": 80,
                "duration": 0.25,
                "tempo": 120.0
            },
            {
                "start_time": 27.8090909,
                "end_time": 28.0613636,
                "pitch": 32,
                "velocity": 80,
                "duration": 0.2522727,
                "tempo": 120.0
            },
            {
                "start_time": 28.0772727,
                "end_time": 28.3272727,
                "pitch": 32,
                "velocity": 80,
                "duration": 0.25,
                "tempo": 120.0
            },
            {
                "start_time": 28.3431818,
                "end_time": 28.6,
                "pitch": 32,
                "velocity": 80,
                "duration": 0.2568182,
                "tempo": 120.0
            },
            {
                "start_time": 28.6159091,
                "end_time": 28.8704545,
                "pitch": 32,
                "velocity": 80,
                "duration": 0.2545455,
                "tempo": 120.0
            },
            {
                "start_time": 28.8886364,
                "end_time": 29.1386364,
                "pitch": 32,
                "velocity": 80,
                "duration": 0.25,
                "tempo": 120.0
            },
            {
                "start_time": 29.1545455,
                "end_time": 29.4068182,
                "pitch": 32,
                "velocity": 80,
                "duration": 0.2522727,
                "tempo": 120.0
            },
            {
                "start_time": 29.4227273,
                "end_time": 29.6772727,
                "pitch": 32,
                "velocity": 80,
                "duration": 0.2545455,
                "tempo": 120.0
            },
            {
                "start_time": 29.6931818,
                "end_time": 29.95,
                "pitch": 32,
                "velocity": 80,
                "duration": 0.2568182,
                "tempo": 120.0
            },
            {
                "start_time": 29.9659091,
                "end_time": 30.2159091,
                "pitch": 32,
                "velocity": 80,
                "duration": 0.25,
                "tempo": 120.0
            },
            {
                "start_time": 30.2340909,
                "end_time": 30.4840909,
                "pitch": 32,
                "velocity": 80,
                "duration": 0.25,
                "tempo": 120.0
            },
            {
                "start_time": 30.5,
                "end_time": 30.7477273,
                "pitch": 32,
                "velocity": 80,
                "duration": 0.2477273,
                "tempo": 120.0
            },
            {
                "start_time": 30.7636364,
                "end_time": 31.0090909,
                "pitch": 32,
                "velocity": 80,
                "duration": 0.2454545,
                "tempo": 120.0
            },
            {
                "start_time": 31.025,
                "end_time": 31.2818182,
                "pitch": 32,
                "velocity": 80,
                "duration": 0.2568182,
                "tempo": 120.0
            },
            {
                "start_time": 31.2977273,
                "end_time": 31.5522727,
                "pitch": 32,
                "velocity": 80,
                "duration": 0.2545455,
                "tempo": 120.0
            },
            {
                "start_time": 31.5704545,
                "end_time": 31.8204545,
                "pitch": 32,
                "velocity": 80,
                "duration": 0.25,
                "tempo": 120.0
            },
            {
                "start_time": 31.8363636,
                "end_time": 32.0863636,
                "pitch": 32,
                "velocity": 80,
                "duration": 0.25,
                "tempo": 120.0
            },
            {
                "start_time": 32.1045455,
                "end_time": 32.3545455,
                "pitch": 32,
                "velocity": 80,
                "duration": 0.25,
                "tempo": 120.0
            },
            {
                "start_time": 32.3704545,
                "end_time": 32.6227273,
                "pitch": 32,
                "velocity": 80,
                "duration": 0.2522727,
                "tempo": 120.0
            },
            {
                "start_time": 32.6386364,
                "end_time": 32.8931818,
                "pitch": 32,
                "velocity": 80,
                "duration": 0.2545455,
                "tempo": 120.0
            },
            {
                "start_time": 32.9113636,
                "end_time": 33.1659091,
                "pitch": 32,
                "velocity": 80,
                "duration": 0.2545455,
                "tempo": 120.0
            },
            {
                "start_time": 33.1818182,
                "end_time": 33.4340909,
                "pitch": 32,
                "velocity": 80,
                "duration": 0.2522727,
                "tempo": 120.0
            },
            {
                "start_time": 33.45,
                "end_time": 33.7,
                "pitch": 32,
                "velocity": 80,
                "duration": 0.25,
                "tempo": 120.0
            },
            {
                "start_time": 33.7159091,
                "end_time": 33.9727273,
                "pitch": 32,
                "velocity": 80,
                "duration": 0.2568182,
                "tempo": 120.0
            },
            {
                "start_time": 33.9886364,
                "end_time": 34.2431818,
                "pitch": 32,
                "velocity": 80,
                "duration": 0.2545455,
                "tempo": 120.0
            },
            {
                "start_time": 34.2613636,
                "end_time": 34.5113636,
                "pitch": 32,
                "velocity": 80,
                "duration": 0.25,
                "tempo": 120.0
            },
            {
                "start_time": 34.5272727,
                "end_time": 34.7795455,
                "pitch": 32,
                "velocity": 80,
                "duration": 0.2522727,
                "tempo": 120.0
            },
            {
                "start_time": 34.7954545,
                "end_time": 35.0545455,
                "pitch": 32,
                "velocity": 80,
                "duration": 0.2590909,
                "tempo": 120.0
            },
            {
                "start_time": 35.0704545,
                "end_time": 35.3318182,
                "pitch": 32,
                "velocity": 80,
                "duration": 0.2613636,
                "tempo": 120.0
            },
            {
                "start_time": 35.3477273,
                "end_time": 35.6,
                "pitch": 32,
                "velocity": 80,
                "duration": 0.2522727,
                "tempo": 120.0
            },
            {
                "start_time": 35.6159091,
                "end_time": 35.8659091,
                "pitch": 32,
                "velocity": 80,
                "duration": 0.25,
                "tempo": 120.0
            },
            {
                "start_time": 35.8840909,
                "end_time": 36.1340909,
                "pitch": 32,
                "velocity": 80,
                "duration": 0.25,
                "tempo": 120.0
            },
            {
                "start_time": 36.15,
                "end_time": 36.4,
                "pitch": 32,
                "velocity": 80,
                "duration": 0.25,
                "tempo": 120.0
            },
            {
                "start_time": 36.4181818,
                "end_time": 36.6636364,
                "pitch": 32,
                "velocity": 80,
                "duration": 0.2454545,
                "tempo": 120.0
            },
            {
                "start_time": 36.6795455,
                "end_time": 36.9272727,
                "pitch": 32,
                "velocity": 80,
                "duration": 0.2477273,
                "tempo": 120.0
            },
            {
                "start_time": 36.9431818,
                "end_time": 37.1977273,
                "pitch": 32,
                "velocity": 80,
                "duration": 0.2545455,
                "tempo": 120.0
            },
            {
                "start_time": 37.2136364,
                "end_time": 37.4704545,
                "pitch": 32,
                "velocity": 80,
                "duration": 0.2568182,
                "tempo": 120.0
            },
            {
                "start_time": 37.4863636,
                "end_time": 37.7363636,
                "pitch": 32,
                "velocity": 80,
                "duration": 0.25,
                "tempo": 120.0
            },
            {
                "start_time": 37.7545455,
                "end_time": 38.0045455,
                "pitch": 32,
                "velocity": 80,
                "duration": 0.25,
                "tempo": 120.0
            },
            {
                "start_time": 38.0204545,
                "end_time": 38.275,
                "pitch": 32,
                "velocity": 80,
                "duration": 0.2545455,
                "tempo": 120.0
            },
            {
                "start_time": 38.2931818,
                "end_time": 38.5477273,
                "pitch": 32,
                "velocity": 80,
                "duration": 0.2545455,
                "tempo": 120.0
            },
            {
                "start_time": 38.5659091,
                "end_time": 38.8113636,
                "pitch": 32,
                "velocity": 80,
                "duration": 0.2454545,
                "tempo": 120.0
            },
            {
                "start_time": 38.8272727,
                "end_time": 39.0727273,
                "pitch": 32,
                "velocity": 80,
                "duration": 0.2454545,
                "tempo": 120.0
            },
            {
                "start_time": 39.0909091,
                "end_time": 39.3454545,
                "pitch": 32,
                "velocity": 80,
                "duration": 0.2545455,
                "tempo": 120.0
            },
            {
                "start_time": 39.3613636,
                "end_time": 39.6159091,
                "pitch": 32,
                "velocity": 80,
                "duration": 0.2545455,
                "tempo": 120.0
            },
            {
                "start_time": 39.6340909,
                "end_time": 39.8840909,
                "pitch": 32,
                "velocity": 80,
                "duration": 0.25,
                "tempo": 120.0
            },
            {
                "start_time": 39.9,
                "end_time": 40.1522727,
                "pitch": 32,
                "velocity": 80,
                "duration": 0.2522727,
                "tempo": 120.0
            },
            {
                "start_time": 40.1681818,
                "end_time": 40.4227273,
                "pitch": 32,
                "velocity": 80,
                "duration": 0.2545455,
                "tempo": 120.0
            },
            {
                "start_time": 40.4409091,
                "end_time": 40.6954545,
                "pitch": 32,
                "velocity": 80,
                "duration": 0.2545455,
                "tempo": 120.0
            },
            {
                "start_time": 40.7113636,
                "end_time": 40.9636364,
                "pitch": 32,
                "velocity": 80,
                "duration": 0.2522727,
                "tempo": 120.0
            },
            {
                "start_time": 40.9795455,
                "end_time": 41.2295455,
                "pitch": 32,
                "velocity": 80,
                "duration": 0.25,
                "tempo": 120.0
            },
            {
                "start_time": 41.2454545,
                "end_time": 41.4977273,
                "pitch": 32,
                "velocity": 80,
                "duration": 0.2522727,
                "tempo": 120.0
            },
            {
                "start_time": 41.5136364,
                "end_time": 41.7636364,
                "pitch": 32,
                "velocity": 80,
                "duration": 0.25,
                "tempo": 120.0
            },
            {
                "start_time": 41.7818182,
                "end_time": 42.0318182,
                "pitch": 32,
                "velocity": 80,
                "duration": 0.25,
                "tempo": 120.0
            },
            {
                "start_time": 42.0477273,
                "end_time": 42.2977273,
                "pitch": 32,
                "velocity": 80,
                "duration": 0.25,
                "tempo": 120.0
            },
            {
                "start_time": 42.3159091,
                "end_time": 42.5704545,
                "pitch": 32,
                "velocity": 80,
                "duration": 0.2545455,
                "tempo": 120.0
            },
            {
                "start_time": 42.5863636,
                "end_time": 42.8431818,
                "pitch": 32,
                "velocity": 80,
                "duration": 0.2568182,
                "tempo": 120.0
            },
            {
                "start_time": 42.8590909,
                "end_time": 43.1090909,
                "pitch": 32,
                "velocity": 80,
                "duration": 0.25,
                "tempo": 120.0
            },
            {
                "start_time": 43.1272727,
                "end_time": 43.3772727,
                "pitch": 32,
                "velocity": 80,
                "duration": 0.25,
                "tempo": 120.0
            },
            {
                "start_time": 43.3931818,
                "end_time": 43.6477273,
                "pitch": 32,
                "velocity": 80,
                "duration": 0.2545455,
                "tempo": 120.0
            },
            {
                "start_time": 43.6659091,
                "end_time": 43.9204545,
                "pitch": 32,
                "velocity": 80,
                "duration": 0.2545455,
                "tempo": 120.0
            },
            {
                "start_time": 43.9363636,
                "end_time": 44.1886364,
                "pitch": 32,
                "velocity": 80,
                "duration": 0.2522727,
                "tempo": 120.0
            },
            {
                "start_time": 44.2045455,
                "end_time": 44.4545455,
                "pitch": 32,
                "velocity": 80,
                "duration": 0.25,
                "tempo": 120.0
            },
            {
                "start_time": 44.4727273,
                "end_time": 44.7272727,
                "pitch": 32,
                "velocity": 80,
                "duration": 0.2545455,
                "tempo": 120.0
            },
            {
                "start_time": 44.7431818,
                "end_time": 44.9977273,
                "pitch": 32,
                "velocity": 80,
                "duration": 0.2545455,
                "tempo": 120.0
            },
            {
                "start_time": 45.0159091,
                "end_time": 45.2613636,
                "pitch": 32,
                "velocity": 80,
                "duration": 0.2454545,
                "tempo": 120.0
            },
            {
                "start_time": 45.2772727,
                "end_time": 45.525,
                "pitch": 32,
                "velocity": 80,
                "duration": 0.2477273,
                "tempo": 120.0
            },
            {
                "start_time": 45.5409091,
                "end_time": 45.7954545,
                "pitch": 32,
                "velocity": 80,
                "duration": 0.2545455,
                "tempo": 120.0
            },
            {
                "start_time": 45.8136364,
                "end_time": 46.0681818,
                "pitch": 32,
                "velocity": 80,
                "duration": 0.2545455,
                "tempo": 120.0
            },
            {
                "start_time": 46.0840909,
                "end_time": 46.3386364,
                "pitch": 32,
                "velocity": 80,
                "duration": 0.2545455,
                "tempo": 120.0
            },
            {
                "start_time": 46.3568182,
                "end_time": 46.6113636,
                "pitch": 32,
                "velocity": 80,
                "duration": 0.2545455,
                "tempo": 120.0
            },
            {
                "start_time": 46.6295455,
                "end_time": 46.8795455,
                "pitch": 32,
                "velocity": 80,
                "duration": 0.25,
                "tempo": 120.0
            },
            {
                "start_time": 46.8954545,
                "end_time": 47.1454545,
                "pitch": 32,
                "velocity": 80,
                "duration": 0.25,
                "tempo": 120.0
            },
            {
                "start_time": 47.1636364,
                "end_time": 47.4181818,
                "pitch": 33,
                "velocity": 80,
                "duration": 0.2545455,
                "tempo": 120.0
            },
            {
                "start_time": 47.4340909,
                "end_time": 47.6909091,
                "pitch": 33,
                "velocity": 80,
                "duration": 0.2568182,
                "tempo": 120.0
            },
            {
                "start_time": 47.7068182,
                "end_time": 47.9568182,
                "pitch": 33,
                "velocity": 80,
                "duration": 0.25,
                "tempo": 120.0
            },
            {
                "start_time": 47.975,
                "end_time": 48.225,
                "pitch": 33,
                "velocity": 80,
                "duration": 0.25,
                "tempo": 120.0
            },
            {
                "start_time": 48.2409091,
                "end_time": 48.4909091,
                "pitch": 33,
                "velocity": 80,
                "duration": 0.25,
                "tempo": 120.0
            },
            {
                "start_time": 48.5090909,
                "end_time": 48.7590909,
                "pitch": 33,
                "velocity": 80,
                "duration": 0.25,
                "tempo": 120.0
            },
            {
                "start_time": 48.775,
                "end_time": 49.0272727,
                "pitch": 33,
                "velocity": 80,
                "duration": 0.2522727,
                "tempo": 120.0
            },
            {
                "start_time": 49.0431818,
                "end_time": 49.2931818,
                "pitch": 33,
                "velocity": 80,
                "duration": 0.25,
                "tempo": 120.0
            },
            {
                "start_time": 49.3113636,
                "end_time": 49.5613636,
                "pitch": 33,
                "velocity": 80,
                "duration": 0.25,
                "tempo": 120.0
            },
            {
                "start_time": 49.5772727,
                "end_time": 49.8272727,
                "pitch": 33,
                "velocity": 80,
                "duration": 0.25,
                "tempo": 120.0
            },
            {
                "start_time": 49.8454545,
                "end_time": 50.1045455,
                "pitch": 33,
                "velocity": 80,
                "duration": 0.2590909,
                "tempo": 120.0
            },
            {
                "start_time": 50.1204545,
                "end_time": 50.3818182,
                "pitch": 33,
                "velocity": 80,
                "duration": 0.2613636,
                "tempo": 120.0
            },
            {
                "start_time": 50.3977273,
                "end_time": 50.65,
                "pitch": 33,
                "velocity": 80,
                "duration": 0.2522727,
                "tempo": 120.0
            },
            {
                "start_time": 50.6659091,
                "end_time": 50.9159091,
                "pitch": 33,
                "velocity": 80,
                "duration": 0.25,
                "tempo": 120.0
            },
            {
                "start_time": 50.9318182,
                "end_time": 51.1840909,
                "pitch": 33,
                "velocity": 80,
                "duration": 0.2522727,
                "tempo": 120.0
            },
            {
                "start_time": 51.2,
                "end_time": 51.45,
                "pitch": 33,
                "velocity": 80,
                "duration": 0.25,
                "tempo": 120.0
            },
            {
                "start_time": 51.4681818,
                "end_time": 51.7181818,
                "pitch": 33,
                "velocity": 80,
                "duration": 0.25,
                "tempo": 120.0
            },
            {
                "start_time": 51.7340909,
                "end_time": 51.9840909,
                "pitch": 33,
                "velocity": 80,
                "duration": 0.25,
                "tempo": 120.0
            },
            {
                "start_time": 52.0022727,
                "end_time": 52.2568182,
                "pitch": 33,
                "velocity": 80,
                "duration": 0.2545455,
                "tempo": 120.0
            },
            {
                "start_time": 52.2727273,
                "end_time": 52.5272727,
                "pitch": 33,
                "velocity": 80,
                "duration": 0.2545455,
                "tempo": 120.0
            },
            {
                "start_time": 52.5454545,
                "end_time": 52.7909091,
                "pitch": 33,
                "velocity": 80,
                "duration": 0.2454545,
                "tempo": 120.0
            },
            {
                "start_time": 52.8068182,
                "end_time": 53.0545455,
                "pitch": 33,
                "velocity": 80,
                "duration": 0.2477273,
                "tempo": 120.0
            },
            {
                "start_time": 53.0704545,
                "end_time": 53.325,
                "pitch": 33,
                "velocity": 80,
                "duration": 0.2545455,
                "tempo": 120.0
            },
            {
                "start_time": 53.3431818,
                "end_time": 53.5977273,
                "pitch": 33,
                "velocity": 80,
                "duration": 0.2545455,
                "tempo": 120.0
            },
            {
                "start_time": 53.6136364,
                "end_time": 53.8659091,
                "pitch": 33,
                "velocity": 80,
                "duration": 0.2522727,
                "tempo": 120.0
            },
            {
                "start_time": 53.8818182,
                "end_time": 54.1318182,
                "pitch": 33,
                "velocity": 80,
                "duration": 0.25,
                "tempo": 120.0
            },
            {
                "start_time": 54.1477273,
                "end_time": 54.4045455,
                "pitch": 33,
                "velocity": 80,
                "duration": 0.2568182,
                "tempo": 120.0
            },
            {
                "start_time": 54.4204545,
                "end_time": 54.675,
                "pitch": 33,
                "velocity": 80,
                "duration": 0.2545455,
                "tempo": 120.0
            },
            {
                "start_time": 54.6931818,
                "end_time": 54.9431818,
                "pitch": 33,
                "velocity": 80,
                "duration": 0.25,
                "tempo": 120.0
            },
            {
                "start_time": 54.9590909,
                "end_time": 55.2113636,
                "pitch": 33,
                "velocity": 80,
                "duration": 0.2522727,
                "tempo": 120.0
            },
            {
                "start_time": 55.2272727,
                "end_time": 55.4818182,
                "pitch": 33,
                "velocity": 80,
                "duration": 0.2545455,
                "tempo": 120.0
            },
            {
                "start_time": 55.4977273,
                "end_time": 55.7545455,
                "pitch": 33,
                "velocity": 80,
                "duration": 0.2568182,
                "tempo": 120.0
            },
            {
                "start_time": 55.7704545,
                "end_time": 56.0159091,
                "pitch": 35,
                "velocity": 80,
                "duration": 0.2454545,
                "tempo": 120.0
            },
            {
                "start_time": 56.0340909,
                "end_time": 56.2795455,
                "pitch": 35,
                "velocity": 80,
                "duration": 0.2454545,
                "tempo": 120.0
            },
            {
                "start_time": 56.2954545,
                "end_time": 56.55,
                "pitch": 35,
                "velocity": 80,
                "duration": 0.2545455,
                "tempo": 120.0
            },
            {
                "start_time": 56.5681818,
                "end_time": 56.8227273,
                "pitch": 35,
                "velocity": 80,
                "duration": 0.2545455,
                "tempo": 120.0
            },
            {
                "start_time": 56.8386364,
                "end_time": 57.0909091,
                "pitch": 35,
                "velocity": 80,
                "duration": 0.2522727,
                "tempo": 120.0
            },
            {
                "start_time": 57.1068182,
                "end_time": 57.3568182,
                "pitch": 35,
                "velocity": 80,
                "duration": 0.25,
                "tempo": 120.0
            },
            {
                "start_time": 57.375,
                "end_time": 57.625,
                "pitch": 35,
                "velocity": 80,
                "duration": 0.25,
                "tempo": 120.0
            },
            {
                "start_time": 57.6409091,
                "end_time": 57.8909091,
                "pitch": 35,
                "velocity": 80,
                "duration": 0.25,
                "tempo": 120.0
            },
            {
                "start_time": 57.9090909,
                "end_time": 58.1636364,
                "pitch": 35,
                "velocity": 80,
                "duration": 0.2545455,
                "tempo": 120.0
            },
            {
                "start_time": 58.1795455,
                "end_time": 58.4363636,
                "pitch": 35,
                "velocity": 80,
                "duration": 0.2568182,
                "tempo": 120.0
            },
            {
                "start_time": 58.4522727,
                "end_time": 58.7068182,
                "pitch": 35,
                "velocity": 80,
                "duration": 0.2545455,
                "tempo": 120.0
            },
            {
                "start_time": 58.725,
                "end_time": 58.9795455,
                "pitch": 35,
                "velocity": 80,
                "duration": 0.2545455,
                "tempo": 120.0
            },
            {
                "start_time": 58.9954545,
                "end_time": 59.2477273,
                "pitch": 35,
                "velocity": 80,
                "duration": 0.2522727,
                "tempo": 120.0
            },
            {
                "start_time": 59.2636364,
                "end_time": 59.5136364,
                "pitch": 35,
                "velocity": 80,
                "duration": 0.25,
                "tempo": 120.0
            },
            {
                "start_time": 59.5318182,
                "end_time": 59.7818182,
                "pitch": 35,
                "velocity": 80,
                "duration": 0.25,
                "tempo": 120.0
            },
            {
                "start_time": 59.7977273,
                "end_time": 60.0477273,
                "pitch": 35,
                "velocity": 80,
                "duration": 0.25,
                "tempo": 120.0
            },
            {
                "start_time": 60.0659091,
                "end_time": 60.3159091,
                "pitch": 35,
                "velocity": 80,
                "duration": 0.25,
                "tempo": 120.0
            },
            {
                "start_time": 60.3318182,
                "end_time": 60.5840909,
                "pitch": 35,
                "velocity": 80,
                "duration": 0.2522727,
                "tempo": 120.0
            },
            {
                "start_time": 60.6,
                "end_time": 60.8545455,
                "pitch": 35,
                "velocity": 80,
                "duration": 0.2545455,
                "tempo": 120.0
            },
            {
                "start_time": 60.8704545,
                "end_time": 61.1272727,
                "pitch": 35,
                "velocity": 80,
                "duration": 0.2568182,
                "tempo": 120.0
            },
            {
                "start_time": 61.1431818,
                "end_time": 61.3886364,
                "pitch": 35,
                "velocity": 80,
                "duration": 0.2454545,
                "tempo": 120.0
            },
            {
                "start_time": 61.4068182,
                "end_time": 61.6522727,
                "pitch": 35,
                "velocity": 80,
                "duration": 0.2454545,
                "tempo": 120.0
            },
            {
                "start_time": 61.6681818,
                "end_time": 61.9227273,
                "pitch": 35,
                "velocity": 80,
                "duration": 0.2545455,
                "tempo": 120.0
            },
            {
                "start_time": 61.9409091,
                "end_time": 62.1954545,
                "pitch": 35,
                "velocity": 80,
                "duration": 0.2545455,
                "tempo": 120.0
            },
            {
                "start_time": 62.2113636,
                "end_time": 62.4590909,
                "pitch": 35,
                "velocity": 80,
                "duration": 0.2477273,
                "tempo": 120.0
            },
            {
                "start_time": 62.475,
                "end_time": 62.7204545,
                "pitch": 35,
                "velocity": 80,
                "duration": 0.2454545,
                "tempo": 120.0
            },
            {
                "start_time": 62.7363636,
                "end_time": 62.9954545,
                "pitch": 35,
                "velocity": 80,
                "duration": 0.2590909,
                "tempo": 120.0
            },
            {
                "start_time": 63.0136364,
                "end_time": 63.2727273,
                "pitch": 35,
                "velocity": 80,
                "duration": 0.2590909,
                "tempo": 120.0
            },
            {
                "start_time": 63.2909091,
                "end_time": 63.5454545,
                "pitch": 35,
                "velocity": 80,
                "duration": 0.2545455,
                "tempo": 120.0
            },
            {
                "start_time": 63.5636364,
                "end_time": 63.8181818,
                "pitch": 35,
                "velocity": 80,
                "duration": 0.2545455,
                "tempo": 120.0
            },
            {
                "start_time": 63.8340909,
                "end_time": 64.0863636,
                "pitch": 35,
                "velocity": 80,
                "duration": 0.2522727,
                "tempo": 120.0
            },
            {
                "start_time": 64.1022727,
                "end_time": 64.3522727,
                "pitch": 35,
                "velocity": 80,
                "duration": 0.25,
                "tempo": 120.0
            },
            {
                "start_time": 64.3704545,
                "end_time": 64.6159091,
                "pitch": 33,
                "velocity": 80,
                "duration": 0.2454545,
                "tempo": 120.0
            },
            {
                "start_time": 64.6318182,
                "end_time": 64.8772727,
                "pitch": 33,
                "velocity": 80,
                "duration": 0.2454545,
                "tempo": 120.0
            },
            {
                "start_time": 64.8954545,
                "end_time": 65.15,
                "pitch": 33,
                "velocity": 80,
                "duration": 0.2545455,
                "tempo": 120.0
            },
            {
                "start_time": 65.1659091,
                "end_time": 65.4204545,
                "pitch": 33,
                "velocity": 80,
                "duration": 0.2545455,
                "tempo": 120.0
            },
            {
                "start_time": 65.4386364,
                "end_time": 65.6886364,
                "pitch": 33,
                "velocity": 80,
                "duration": 0.25,
                "tempo": 120.0
            },
            {
                "start_time": 65.7068182,
                "end_time": 65.9568182,
                "pitch": 33,
                "velocity": 80,
                "duration": 0.25,
                "tempo": 120.0
            },
            {
                "start_time": 65.9727273,
                "end_time": 66.2272727,
                "pitch": 33,
                "velocity": 80,
                "duration": 0.2545455,
                "tempo": 120.0
            },
            {
                "start_time": 66.2454545,
                "end_time": 66.5,
                "pitch": 33,
                "velocity": 80,
                "duration": 0.2545455,
                "tempo": 120.0
            },
            {
                "start_time": 66.5159091,
                "end_time": 66.7681818,
                "pitch": 33,
                "velocity": 80,
                "duration": 0.2522727,
                "tempo": 120.0
            },
            {
                "start_time": 66.7840909,
                "end_time": 67.0340909,
                "pitch": 33,
                "velocity": 80,
                "duration": 0.25,
                "tempo": 120.0
            },
            {
                "start_time": 67.0522727,
                "end_time": 67.3022727,
                "pitch": 33,
                "velocity": 80,
                "duration": 0.25,
                "tempo": 120.0
            },
            {
                "start_time": 67.3181818,
                "end_time": 67.5681818,
                "pitch": 33,
                "velocity": 80,
                "duration": 0.25,
                "tempo": 120.0
            },
            {
                "start_time": 67.5863636,
                "end_time": 67.8363636,
                "pitch": 33,
                "velocity": 80,
                "duration": 0.25,
                "tempo": 120.0
            },
            {
                "start_time": 67.8522727,
                "end_time": 68.1022727,
                "pitch": 33,
                "velocity": 80,
                "duration": 0.25,
                "tempo": 120.0
            },
            {
                "start_time": 68.1204545,
                "end_time": 68.375,
                "pitch": 33,
                "velocity": 80,
                "duration": 0.2545455,
                "tempo": 120.0
            },
            {
                "start_time": 68.3909091,
                "end_time": 68.6477273,
                "pitch": 33,
                "velocity": 80,
                "duration": 0.2568182,
                "tempo": 120.0
            },
            {
                "start_time": 68.6636364,
                "end_time": 68.9136364,
                "pitch": 33,
                "velocity": 80,
                "duration": 0.25,
                "tempo": 120.0
            },
            {
                "start_time": 68.9318182,
                "end_time": 69.1818182,
                "pitch": 33,
                "velocity": 80,
                "duration": 0.25,
                "tempo": 120.0
            },
            {
                "start_time": 69.1977273,
                "end_time": 69.4522727,
                "pitch": 33,
                "velocity": 80,
                "duration": 0.2545455,
                "tempo": 120.0
            },
            {
                "start_time": 69.4704545,
                "end_time": 69.725,
                "pitch": 33,
                "velocity": 80,
                "duration": 0.2545455,
                "tempo": 120.0
            },
            {
                "start_time": 69.7431818,
                "end_time": 69.9931818,
                "pitch": 33,
                "velocity": 80,
                "duration": 0.25,
                "tempo": 120.0
            },
            {
                "start_time": 70.0090909,
                "end_time": 70.2590909,
                "pitch": 33,
                "velocity": 80,
                "duration": 0.25,
                "tempo": 120.0
            },
            {
                "start_time": 70.2772727,
                "end_time": 70.5272727,
                "pitch": 33,
                "velocity": 80,
                "duration": 0.25,
                "tempo": 120.0
            },
            {
                "start_time": 70.5431818,
                "end_time": 70.7954545,
                "pitch": 33,
                "velocity": 80,
                "duration": 0.2522727,
                "tempo": 120.0
            },
            {
                "start_time": 70.8113636,
                "end_time": 71.0613636,
                "pitch": 33,
                "velocity": 80,
                "duration": 0.25,
                "tempo": 120.0
            },
            {
                "start_time": 71.0772727,
                "end_time": 71.3295455,
                "pitch": 33,
                "velocity": 80,
                "duration": 0.2522727,
                "tempo": 120.0
            },
            {
                "start_time": 71.3454545,
                "end_time": 71.6,
                "pitch": 33,
                "velocity": 80,
                "duration": 0.2545455,
                "tempo": 120.0
            },
            {
                "start_time": 71.6181818,
                "end_time": 71.8727273,
                "pitch": 33,
                "velocity": 80,
                "duration": 0.2545455,
                "tempo": 120.0
            },
            {
                "start_time": 71.8886364,
                "end_time": 72.1409091,
                "pitch": 33,
                "velocity": 80,
                "duration": 0.2522727,
                "tempo": 120.0
            },
            {
                "start_time": 72.1568182,
                "end_time": 72.4068182,
                "pitch": 33,
                "velocity": 80,
                "duration": 0.25,
                "tempo": 120.0
            },
            {
                "start_time": 72.4227273,
                "end_time": 72.6795455,
                "pitch": 33,
                "velocity": 80,
                "duration": 0.2568182,
                "tempo": 120.0
            },
            {
                "start_time": 72.6954545,
                "end_time": 72.95,
                "pitch": 33,
                "velocity": 80,
                "duration": 0.2545455,
                "tempo": 120.0
            },
            {
                "start_time": 72.9681818,
                "end_time": 73.2227273,
                "pitch": 32,
                "velocity": 80,
                "duration": 0.2545455,
                "tempo": 120.0
            },
            {
                "start_time": 73.2386364,
                "end_time": 73.4954545,
                "pitch": 32,
                "velocity": 80,
                "duration": 0.2568182,
                "tempo": 120.0
            },
            {
                "start_time": 73.5113636,
                "end_time": 73.7568182,
                "pitch": 32,
                "velocity": 80,
                "duration": 0.2454545,
                "tempo": 120.0
            },
            {
                "start_time": 73.775,
                "end_time": 74.0204545,
                "pitch": 32,
                "velocity": 80,
                "duration": 0.2454545,
                "tempo": 120.0
            },
            {
                "start_time": 74.0363636,
                "end_time": 74.2863636,
                "pitch": 32,
                "velocity": 80,
                "duration": 0.25,
                "tempo": 120.0
            },
            {
                "start_time": 74.3045455,
                "end_time": 74.5545455,
                "pitch": 32,
                "velocity": 80,
                "duration": 0.25,
                "tempo": 120.0
            },
            {
                "start_time": 74.5704545,
                "end_time": 74.825,
                "pitch": 32,
                "velocity": 80,
                "duration": 0.2545455,
                "tempo": 120.0
            },
            {
                "start_time": 74.8431818,
                "end_time": 75.0977273,
                "pitch": 32,
                "velocity": 80,
                "duration": 0.2545455,
                "tempo": 120.0
            },
            {
                "start_time": 75.1159091,
                "end_time": 75.3659091,
                "pitch": 32,
                "velocity": 80,
                "duration": 0.25,
                "tempo": 120.0
            },
            {
                "start_time": 75.3818182,
                "end_time": 75.6318182,
                "pitch": 32,
                "velocity": 80,
                "duration": 0.25,
                "tempo": 120.0
            },
            {
                "start_time": 75.65,
                "end_time": 75.9045455,
                "pitch": 32,
                "velocity": 80,
                "duration": 0.2545455,
                "tempo": 120.0
            },
            {
                "start_time": 75.9204545,
                "end_time": 76.1772727,
                "pitch": 32,
                "velocity": 80,
                "duration": 0.2568182,
                "tempo": 120.0
            },
            {
                "start_time": 76.1931818,
                "end_time": 76.4431818,
                "pitch": 32,
                "velocity": 80,
                "duration": 0.25,
                "tempo": 120.0
            },
            {
                "start_time": 76.4613636,
                "end_time": 76.7113636,
                "pitch": 32,
                "velocity": 80,
                "duration": 0.25,
                "tempo": 120.0
            },
            {
                "start_time": 76.7272727,
                "end_time": 76.9772727,
                "pitch": 32,
                "velocity": 80,
                "duration": 0.25,
                "tempo": 120.0
            },
            {
                "start_time": 76.9954545,
                "end_time": 77.2454545,
                "pitch": 32,
                "velocity": 80,
                "duration": 0.25,
                "tempo": 120.0
            },
            {
                "start_time": 77.2613636,
                "end_time": 77.5136364,
                "pitch": 32,
                "velocity": 80,
                "duration": 0.2522727,
                "tempo": 120.0
            },
            {
                "start_time": 77.5295455,
                "end_time": 77.7795455,
                "pitch": 32,
                "velocity": 80,
                "duration": 0.25,
                "tempo": 120.0
            },
            {
                "start_time": 77.7977273,
                "end_time": 78.0522727,
                "pitch": 32,
                "velocity": 80,
                "duration": 0.2545455,
                "tempo": 120.0
            },
            {
                "start_time": 78.0681818,
                "end_time": 78.3227273,
                "pitch": 32,
                "velocity": 80,
                "duration": 0.2545455,
                "tempo": 120.0
            },
            {
                "start_time": 78.3409091,
                "end_time": 78.5909091,
                "pitch": 32,
                "velocity": 80,
                "duration": 0.25,
                "tempo": 120.0
            },
            {
                "start_time": 78.6068182,
                "end_time": 78.8590909,
                "pitch": 32,
                "velocity": 80,
                "duration": 0.2522727,
                "tempo": 120.0
            },
            {
                "start_time": 78.875,
                "end_time": 79.1295455,
                "pitch": 32,
                "velocity": 80,
                "duration": 0.2545455,
                "tempo": 120.0
            },
            {
                "start_time": 79.1477273,
                "end_time": 79.4022727,
                "pitch": 32,
                "velocity": 80,
                "duration": 0.2545455,
                "tempo": 120.0
            },
            {
                "start_time": 79.4181818,
                "end_time": 79.6704545,
                "pitch": 32,
                "velocity": 80,
                "duration": 0.2522727,
                "tempo": 120.0
            },
            {
                "start_time": 79.6863636,
                "end_time": 79.9363636,
                "pitch": 32,
                "velocity": 80,
                "duration": 0.25,
                "tempo": 120.0
            },
            {
                "start_time": 79.9522727,
                "end_time": 80.2045455,
                "pitch": 32,
                "velocity": 80,
                "duration": 0.2522727,
                "tempo": 120.0
            },
            {
                "start_time": 80.2204545,
                "end_time": 80.4704545,
                "pitch": 32,
                "velocity": 80,
                "duration": 0.25,
                "tempo": 120.0
            },
            {
                "start_time": 80.4886364,
                "end_time": 80.7386364,
                "pitch": 32,
                "velocity": 80,
                "duration": 0.25,
                "tempo": 120.0
            },
            {
                "start_time": 80.7545455,
                "end_time": 81.0045455,
                "pitch": 32,
                "velocity": 80,
                "duration": 0.25,
                "tempo": 120.0
            },
            {
                "start_time": 81.0227273,
                "end_time": 81.2772727,
                "pitch": 32,
                "velocity": 80,
                "duration": 0.2545455,
                "tempo": 120.0
            },
            {
                "start_time": 81.2931818,
                "end_time": 81.55,
                "pitch": 32,
                "velocity": 80,
                "duration": 0.2568182,
                "tempo": 120.0
            },
            {
                "start_time": 81.5659091,
                "end_time": 81.5840909,
                "pitch": 33,
                "velocity": 80,
                "duration": 0.0181818,
                "tempo": 120.0
            }
        ],
        "Acoustic Guitar (nylon)": [
            {
                "start_time": 47.4340909,
                "end_time": 47.6909091,
                "pitch": 75,
                "velocity": 64,
                "duration": 0.2568182,
                "tempo": 120.0
            },
            {
                "start_time": 47.7068182,
                "end_time": 47.9568182,
                "pitch": 73,
                "velocity": 64,
                "duration": 0.25,
                "tempo": 120.0
            },
            {
                "start_time": 47.975,
                "end_time": 48.225,
                "pitch": 80,
                "velocity": 64,
                "duration": 0.25,
                "tempo": 120.0
            },
            {
                "start_time": 48.2409091,
                "end_time": 48.4909091,
                "pitch": 75,
                "velocity": 64,
                "duration": 0.25,
                "tempo": 120.0
            },
            {
                "start_time": 48.5090909,
                "end_time": 48.7590909,
                "pitch": 73,
                "velocity": 64,
                "duration": 0.25,
                "tempo": 120.0
            },
            {
                "start_time": 48.775,
                "end_time": 49.0272727,
                "pitch": 80,
                "velocity": 64,
                "duration": 0.2522727,
                "tempo": 120.0
            },
            {
                "start_time": 49.0431818,
                "end_time": 49.2931818,
                "pitch": 75,
                "velocity": 64,
                "duration": 0.25,
                "tempo": 120.0
            },
            {
                "start_time": 49.3113636,
                "end_time": 49.5613636,
                "pitch": 73,
                "velocity": 64,
                "duration": 0.25,
                "tempo": 120.0
            },
            {
                "start_time": 49.5772727,
                "end_time": 49.8272727,
                "pitch": 80,
                "velocity": 64,
                "duration": 0.25,
                "tempo": 120.0
            },
            {
                "start_time": 49.8454545,
                "end_time": 50.1045455,
                "pitch": 75,
                "velocity": 64,
                "duration": 0.2590909,
                "tempo": 120.0
            },
            {
                "start_time": 50.1204545,
                "end_time": 50.3818182,
                "pitch": 73,
                "velocity": 64,
                "duration": 0.2613636,
                "tempo": 120.0
            },
            {
                "start_time": 50.3977273,
                "end_time": 50.65,
                "pitch": 80,
                "velocity": 64,
                "duration": 0.2522727,
                "tempo": 120.0
            },
            {
                "start_time": 50.6659091,
                "end_time": 50.9159091,
                "pitch": 75,
                "velocity": 64,
                "duration": 0.25,
                "tempo": 120.0
            },
            {
                "start_time": 50.9318182,
                "end_time": 51.1840909,
                "pitch": 73,
                "velocity": 64,
                "duration": 0.2522727,
                "tempo": 120.0
            },
            {
                "start_time": 51.2,
                "end_time": 51.45,
                "pitch": 80,
                "velocity": 64,
                "duration": 0.25,
                "tempo": 120.0
            },
            {
                "start_time": 51.4681818,
                "end_time": 51.7181818,
                "pitch": 75,
                "velocity": 64,
                "duration": 0.25,
                "tempo": 120.0
            },
            {
                "start_time": 51.7340909,
                "end_time": 51.9840909,
                "pitch": 73,
                "velocity": 64,
                "duration": 0.25,
                "tempo": 120.0
            },
            {
                "start_time": 52.0022727,
                "end_time": 52.2568182,
                "pitch": 80,
                "velocity": 64,
                "duration": 0.2545455,
                "tempo": 120.0
            },
            {
                "start_time": 52.2727273,
                "end_time": 52.5272727,
                "pitch": 75,
                "velocity": 64,
                "duration": 0.2545455,
                "tempo": 120.0
            },
            {
                "start_time": 52.5454545,
                "end_time": 52.7909091,
                "pitch": 73,
                "velocity": 64,
                "duration": 0.2454545,
                "tempo": 120.0
            },
            {
                "start_time": 52.8068182,
                "end_time": 53.0545455,
                "pitch": 80,
                "velocity": 64,
                "duration": 0.2477273,
                "tempo": 120.0
            },
            {
                "start_time": 53.0704545,
                "end_time": 53.325,
                "pitch": 75,
                "velocity": 64,
                "duration": 0.2545455,
                "tempo": 120.0
            },
            {
                "start_time": 53.3431818,
                "end_time": 53.5977273,
                "pitch": 73,
                "velocity": 64,
                "duration": 0.2545455,
                "tempo": 120.0
            },
            {
                "start_time": 53.6136364,
                "end_time": 53.8659091,
                "pitch": 80,
                "velocity": 64,
                "duration": 0.2522727,
                "tempo": 120.0
            },
            {
                "start_time": 53.8818182,
                "end_time": 54.1318182,
                "pitch": 75,
                "velocity": 64,
                "duration": 0.25,
                "tempo": 120.0
            },
            {
                "start_time": 54.1477273,
                "end_time": 54.4045455,
                "pitch": 73,
                "velocity": 64,
                "duration": 0.2568182,
                "tempo": 120.0
            },
            {
                "start_time": 54.4204545,
                "end_time": 54.675,
                "pitch": 80,
                "velocity": 64,
                "duration": 0.2545455,
                "tempo": 120.0
            },
            {
                "start_time": 54.6931818,
                "end_time": 54.9431818,
                "pitch": 75,
                "velocity": 64,
                "duration": 0.25,
                "tempo": 120.0
            },
            {
                "start_time": 54.9590909,
                "end_time": 55.2113636,
                "pitch": 73,
                "velocity": 64,
                "duration": 0.2522727,
                "tempo": 120.0
            },
            {
                "start_time": 55.2272727,
                "end_time": 55.4818182,
                "pitch": 80,
                "velocity": 64,
                "duration": 0.2545455,
                "tempo": 120.0
            },
            {
                "start_time": 55.4977273,
                "end_time": 55.7545455,
                "pitch": 75,
                "velocity": 64,
                "duration": 0.2568182,
                "tempo": 120.0
            },
            {
                "start_time": 55.7704545,
                "end_time": 56.0159091,
                "pitch": 81,
                "velocity": 64,
                "duration": 0.2454545,
                "tempo": 120.0
            },
            {
                "start_time": 56.0340909,
                "end_time": 56.2795455,
                "pitch": 76,
                "velocity": 64,
                "duration": 0.2454545,
                "tempo": 120.0
            },
            {
                "start_time": 56.2954545,
                "end_time": 56.55,
                "pitch": 74,
                "velocity": 64,
                "duration": 0.2545455,
                "tempo": 120.0
            },
            {
                "start_time": 56.5681818,
                "end_time": 56.8227273,
                "pitch": 81,
                "velocity": 64,
                "duration": 0.2545455,
                "tempo": 120.0
            },
            {
                "start_time": 56.8386364,
                "end_time": 57.0909091,
                "pitch": 76,
                "velocity": 64,
                "duration": 0.2522727,
                "tempo": 120.0
            },
            {
                "start_time": 57.1068182,
                "end_time": 57.3568182,
                "pitch": 74,
                "velocity": 64,
                "duration": 0.25,
                "tempo": 120.0
            },
            {
                "start_time": 57.375,
                "end_time": 57.625,
                "pitch": 81,
                "velocity": 64,
                "duration": 0.25,
                "tempo": 120.0
            },
            {
                "start_time": 57.6409091,
                "end_time": 57.8909091,
                "pitch": 76,
                "velocity": 64,
                "duration": 0.25,
                "tempo": 120.0
            },
            {
                "start_time": 57.9090909,
                "end_time": 58.1636364,
                "pitch": 74,
                "velocity": 64,
                "duration": 0.2545455,
                "tempo": 120.0
            },
            {
                "start_time": 58.1795455,
                "end_time": 58.4363636,
                "pitch": 81,
                "velocity": 64,
                "duration": 0.2568182,
                "tempo": 120.0
            },
            {
                "start_time": 58.4522727,
                "end_time": 58.7068182,
                "pitch": 76,
                "velocity": 64,
                "duration": 0.2545455,
                "tempo": 120.0
            },
            {
                "start_time": 58.725,
                "end_time": 58.9795455,
                "pitch": 74,
                "velocity": 64,
                "duration": 0.2545455,
                "tempo": 120.0
            },
            {
                "start_time": 58.9954545,
                "end_time": 59.2477273,
                "pitch": 81,
                "velocity": 64,
                "duration": 0.2522727,
                "tempo": 120.0
            },
            {
                "start_time": 59.2636364,
                "end_time": 59.5136364,
                "pitch": 76,
                "velocity": 64,
                "duration": 0.25,
                "tempo": 120.0
            },
            {
                "start_time": 59.5318182,
                "end_time": 59.7818182,
                "pitch": 74,
                "velocity": 64,
                "duration": 0.25,
                "tempo": 120.0
            },
            {
                "start_time": 59.7977273,
                "end_time": 60.0477273,
                "pitch": 81,
                "velocity": 64,
                "duration": 0.25,
                "tempo": 120.0
            },
            {
                "start_time": 60.0659091,
                "end_time": 60.3159091,
                "pitch": 76,
                "velocity": 64,
                "duration": 0.25,
                "tempo": 120.0
            },
            {
                "start_time": 60.3318182,
                "end_time": 60.5840909,
                "pitch": 74,
                "velocity": 64,
                "duration": 0.2522727,
                "tempo": 120.0
            },
            {
                "start_time": 60.6,
                "end_time": 60.8545455,
                "pitch": 81,
                "velocity": 64,
                "duration": 0.2545455,
                "tempo": 120.0
            },
            {
                "start_time": 60.8704545,
                "end_time": 61.1272727,
                "pitch": 76,
                "velocity": 64,
                "duration": 0.2568182,
                "tempo": 120.0
            },
            {
                "start_time": 61.1431818,
                "end_time": 61.3886364,
                "pitch": 74,
                "velocity": 64,
                "duration": 0.2454545,
                "tempo": 120.0
            },
            {
                "start_time": 61.4068182,
                "end_time": 61.6522727,
                "pitch": 81,
                "velocity": 64,
                "duration": 0.2454545,
                "tempo": 120.0
            },
            {
                "start_time": 61.6681818,
                "end_time": 61.9227273,
                "pitch": 76,
                "velocity": 64,
                "duration": 0.2545455,
                "tempo": 120.0
            },
            {
                "start_time": 61.9409091,
                "end_time": 62.1954545,
                "pitch": 74,
                "velocity": 64,
                "duration": 0.2545455,
                "tempo": 120.0
            },
            {
                "start_time": 62.2113636,
                "end_time": 62.4590909,
                "pitch": 81,
                "velocity": 64,
                "duration": 0.2477273,
                "tempo": 120.0
            },
            {
                "start_time": 62.475,
                "end_time": 62.7204545,
                "pitch": 76,
                "velocity": 64,
                "duration": 0.2454545,
                "tempo": 120.0
            },
            {
                "start_time": 62.7363636,
                "end_time": 62.9954545,
                "pitch": 74,
                "velocity": 64,
                "duration": 0.2590909,
                "tempo": 120.0
            },
            {
                "start_time": 63.0136364,
                "end_time": 63.2727273,
                "pitch": 81,
                "velocity": 64,
                "duration": 0.2590909,
                "tempo": 120.0
            },
            {
                "start_time": 63.2909091,
                "end_time": 63.5454545,
                "pitch": 76,
                "velocity": 64,
                "duration": 0.2545455,
                "tempo": 120.0
            },
            {
                "start_time": 63.5636364,
                "end_time": 63.8181818,
                "pitch": 74,
                "velocity": 64,
                "duration": 0.2545455,
                "tempo": 120.0
            },
            {
                "start_time": 63.8340909,
                "end_time": 64.0863636,
                "pitch": 81,
                "velocity": 64,
                "duration": 0.2522727,
                "tempo": 120.0
            },
            {
                "start_time": 64.1022727,
                "end_time": 64.3522727,
                "pitch": 76,
                "velocity": 64,
                "duration": 0.25,
                "tempo": 120.0
            },
            {
                "start_time": 64.3704545,
                "end_time": 64.6159091,
                "pitch": 81,
                "velocity": 64,
                "duration": 0.2454545,
                "tempo": 120.0
            },
            {
                "start_time": 64.6318182,
                "end_time": 64.8772727,
                "pitch": 76,
                "velocity": 64,
                "duration": 0.2454545,
                "tempo": 120.0
            },
            {
                "start_time": 64.8954545,
                "end_time": 65.15,
                "pitch": 72,
                "velocity": 64,
                "duration": 0.2545455,
                "tempo": 120.0
            },
            {
                "start_time": 65.1659091,
                "end_time": 65.4204545,
                "pitch": 81,
                "velocity": 64,
                "duration": 0.2545455,
                "tempo": 120.0
            },
            {
                "start_time": 65.4386364,
                "end_time": 65.6886364,
                "pitch": 76,
                "velocity": 64,
                "duration": 0.25,
                "tempo": 120.0
            },
            {
                "start_time": 65.7068182,
                "end_time": 65.9568182,
                "pitch": 72,
                "velocity": 64,
                "duration": 0.25,
                "tempo": 120.0
            },
            {
                "start_time": 65.9727273,
                "end_time": 66.2272727,
                "pitch": 81,
                "velocity": 64,
                "duration": 0.2545455,
                "tempo": 120.0
            },
            {
                "start_time": 66.2454545,
                "end_time": 66.5,
                "pitch": 76,
                "velocity": 64,
                "duration": 0.2545455,
                "tempo": 120.0
            },
            {
                "start_time": 66.5159091,
                "end_time": 66.7681818,
                "pitch": 72,
                "velocity": 64,
                "duration": 0.2522727,
                "tempo": 120.0
            },
            {
                "start_time": 66.7840909,
                "end_time": 67.0340909,
                "pitch": 81,
                "velocity": 64,
                "duration": 0.25,
                "tempo": 120.0
            },
            {
                "start_time": 67.0522727,
                "end_time": 67.3022727,
                "pitch": 76,
                "velocity": 64,
                "duration": 0.25,
                "tempo": 120.0
            },
            {
                "start_time": 67.3181818,
                "end_time": 67.5681818,
                "pitch": 72,
                "velocity": 64,
                "duration": 0.25,
                "tempo": 120.0
            },
            {
                "start_time": 67.5863636,
                "end_time": 67.8363636,
                "pitch": 81,
                "velocity": 64,
                "duration": 0.25,
                "tempo": 120.0
            },
            {
                "start_time": 67.8522727,
                "end_time": 68.1022727,
                "pitch": 76,
                "velocity": 64,
                "duration": 0.25,
                "tempo": 120.0
            },
            {
                "start_time": 68.1204545,
                "end_time": 68.375,
                "pitch": 72,
                "velocity": 64,
                "duration": 0.2545455,
                "tempo": 120.0
            },
            {
                "start_time": 68.3909091,
                "end_time": 68.6477273,
                "pitch": 81,
                "velocity": 64,
                "duration": 0.2568182,
                "tempo": 120.0
            },
            {
                "start_time": 68.6636364,
                "end_time": 68.9136364,
                "pitch": 76,
                "velocity": 64,
                "duration": 0.25,
                "tempo": 120.0
            },
            {
                "start_time": 68.9318182,
                "end_time": 69.1818182,
                "pitch": 72,
                "velocity": 64,
                "duration": 0.25,
                "tempo": 120.0
            },
            {
                "start_time": 69.1977273,
                "end_time": 69.4522727,
                "pitch": 81,
                "velocity": 64,
                "duration": 0.2545455,
                "tempo": 120.0
            },
            {
                "start_time": 69.4704545,
                "end_time": 69.725,
                "pitch": 76,
                "velocity": 64,
                "duration": 0.2545455,
                "tempo": 120.0
            },
            {
                "start_time": 69.7431818,
                "end_time": 69.9931818,
                "pitch": 72,
                "velocity": 64,
                "duration": 0.25,
                "tempo": 120.0
            },
            {
                "start_time": 70.0090909,
                "end_time": 70.2590909,
                "pitch": 81,
                "velocity": 64,
                "duration": 0.25,
                "tempo": 120.0
            },
            {
                "start_time": 70.2772727,
                "end_time": 70.5272727,
                "pitch": 76,
                "velocity": 64,
                "duration": 0.25,
                "tempo": 120.0
            },
            {
                "start_time": 70.5431818,
                "end_time": 70.7954545,
                "pitch": 72,
                "velocity": 64,
                "duration": 0.2522727,
                "tempo": 120.0
            },
            {
                "start_time": 70.8113636,
                "end_time": 71.0613636,
                "pitch": 81,
                "velocity": 64,
                "duration": 0.25,
                "tempo": 120.0
            },
            {
                "start_time": 71.0772727,
                "end_time": 71.3295455,
                "pitch": 76,
                "velocity": 64,
                "duration": 0.2522727,
                "tempo": 120.0
            },
            {
                "start_time": 71.3454545,
                "end_time": 71.6,
                "pitch": 72,
                "velocity": 64,
                "duration": 0.2545455,
                "tempo": 120.0
            },
            {
                "start_time": 71.6181818,
                "end_time": 71.8727273,
                "pitch": 81,
                "velocity": 64,
                "duration": 0.2545455,
                "tempo": 120.0
            },
            {
                "start_time": 71.8886364,
                "end_time": 72.1409091,
                "pitch": 76,
                "velocity": 64,
                "duration": 0.2522727,
                "tempo": 120.0
            },
            {
                "start_time": 72.1568182,
                "end_time": 72.4068182,
                "pitch": 72,
                "velocity": 64,
                "duration": 0.25,
                "tempo": 120.0
            },
            {
                "start_time": 72.4227273,
                "end_time": 72.6795455,
                "pitch": 81,
                "velocity": 64,
                "duration": 0.2568182,
                "tempo": 120.0
            },
            {
                "start_time": 72.6954545,
                "end_time": 72.95,
                "pitch": 76,
                "velocity": 64,
                "duration": 0.2545455,
                "tempo": 120.0
            },
            {
                "start_time": 72.9681818,
                "end_time": 73.0863636,
                "pitch": 80,
                "velocity": 64,
                "duration": 0.1181818,
                "tempo": 120.0
            },
            {
                "start_time": 73.1045455,
                "end_time": 73.2227273,
                "pitch": 80,
                "velocity": 80,
                "duration": 0.1181818,
                "tempo": 120.0
            },
            {
                "start_time": 73.2386364,
                "end_time": 73.3590909,
                "pitch": 75,
                "velocity": 80,
                "duration": 0.1204545,
                "tempo": 120.0
            },
            {
                "start_time": 73.375,
                "end_time": 73.4954545,
                "pitch": 75,
                "velocity": 80,
                "duration": 0.1204545,
                "tempo": 120.0
            },
            {
                "start_time": 73.5113636,
                "end_time": 73.6272727,
                "pitch": 71,
                "velocity": 80,
                "duration": 0.1159091,
                "tempo": 120.0
            },
            {
                "start_time": 73.6431818,
                "end_time": 73.7568182,
                "pitch": 71,
                "velocity": 80,
                "duration": 0.1136364,
                "tempo": 120.0
            },
            {
                "start_time": 73.775,
                "end_time": 73.8886364,
                "pitch": 80,
                "velocity": 80,
                "duration": 0.1136364,
                "tempo": 120.0
            },
            {
                "start_time": 73.9045455,
                "end_time": 74.0204545,
                "pitch": 80,
                "velocity": 80,
                "duration": 0.1159091,
                "tempo": 120.0
            },
            {
                "start_time": 74.0363636,
                "end_time": 74.1545455,
                "pitch": 75,
                "velocity": 80,
                "duration": 0.1181818,
                "tempo": 120.0
            },
            {
                "start_time": 74.1704545,
                "end_time": 74.2863636,
                "pitch": 75,
                "velocity": 80,
                "duration": 0.1159091,
                "tempo": 120.0
            },
            {
                "start_time": 74.3045455,
                "end_time": 74.4204545,
                "pitch": 71,
                "velocity": 80,
                "duration": 0.1159091,
                "tempo": 120.0
            },
            {
                "start_time": 74.4386364,
                "end_time": 74.5545455,
                "pitch": 71,
                "velocity": 80,
                "duration": 0.1159091,
                "tempo": 120.0
            },
            {
                "start_time": 74.5704545,
                "end_time": 74.6909091,
                "pitch": 80,
                "velocity": 80,
                "duration": 0.1204545,
                "tempo": 120.0
            },
            {
                "start_time": 74.7068182,
                "end_time": 74.825,
                "pitch": 80,
                "velocity": 80,
                "duration": 0.1181818,
                "tempo": 120.0
            },
            {
                "start_time": 74.8431818,
                "end_time": 74.9613636,
                "pitch": 75,
                "velocity": 80,
                "duration": 0.1181818,
                "tempo": 120.0
            },
            {
                "start_time": 74.9795455,
                "end_time": 75.0977273,
                "pitch": 75,
                "velocity": 80,
                "duration": 0.1181818,
                "tempo": 120.0
            },
            {
                "start_time": 75.1159091,
                "end_time": 75.2318182,
                "pitch": 71,
                "velocity": 80,
                "duration": 0.1159091,
                "tempo": 120.0
            },
            {
                "start_time": 75.2477273,
                "end_time": 75.3659091,
                "pitch": 71,
                "velocity": 80,
                "duration": 0.1181818,
                "tempo": 120.0
            },
            {
                "start_time": 75.3818182,
                "end_time": 75.5,
                "pitch": 80,
                "velocity": 80,
                "duration": 0.1181818,
                "tempo": 120.0
            },
            {
                "start_time": 75.5159091,
                "end_time": 75.6318182,
                "pitch": 80,
                "velocity": 80,
                "duration": 0.1159091,
                "tempo": 120.0
            },
            {
                "start_time": 75.65,
                "end_time": 75.7681818,
                "pitch": 75,
                "velocity": 80,
                "duration": 0.1181818,
                "tempo": 120.0
            },
            {
                "start_time": 75.7863636,
                "end_time": 75.9045455,
                "pitch": 75,
                "velocity": 80,
                "duration": 0.1181818,
                "tempo": 120.0
            },
            {
                "start_time": 75.9204545,
                "end_time": 76.0409091,
                "pitch": 71,
                "velocity": 80,
                "duration": 0.1204545,
                "tempo": 120.0
            },
            {
                "start_time": 76.0568182,
                "end_time": 76.1772727,
                "pitch": 71,
                "velocity": 80,
                "duration": 0.1204545,
                "tempo": 120.0
            },
            {
                "start_time": 76.1931818,
                "end_time": 76.3113636,
                "pitch": 80,
                "velocity": 80,
                "duration": 0.1181818,
                "tempo": 120.0
            },
            {
                "start_time": 76.3272727,
                "end_time": 76.4431818,
                "pitch": 80,
                "velocity": 80,
                "duration": 0.1159091,
                "tempo": 120.0
            },
            {
                "start_time": 76.4613636,
                "end_time": 76.5772727,
                "pitch": 75,
                "velocity": 80,
                "duration": 0.1159091,
                "tempo": 120.0
            },
            {
                "start_time": 76.5931818,
                "end_time": 76.7113636,
                "pitch": 75,
                "velocity": 80,
                "duration": 0.1181818,
                "tempo": 120.0
            },
            {
                "start_time": 76.7272727,
                "end_time": 76.8454545,
                "pitch": 71,
                "velocity": 80,
                "duration": 0.1181818,
                "tempo": 120.0
            },
            {
                "start_time": 76.8613636,
                "end_time": 76.9772727,
                "pitch": 71,
                "velocity": 80,
                "duration": 0.1159091,
                "tempo": 120.0
            },
            {
                "start_time": 76.9954545,
                "end_time": 77.1113636,
                "pitch": 80,
                "velocity": 80,
                "duration": 0.1159091,
                "tempo": 120.0
            },
            {
                "start_time": 77.1295455,
                "end_time": 77.2454545,
                "pitch": 80,
                "velocity": 80,
                "duration": 0.1159091,
                "tempo": 120.0
            },
            {
                "start_time": 77.2613636,
                "end_time": 77.3795455,
                "pitch": 75,
                "velocity": 80,
                "duration": 0.1181818,
                "tempo": 120.0
            },
            {
                "start_time": 77.3954545,
                "end_time": 77.5136364,
                "pitch": 75,
                "velocity": 80,
                "duration": 0.1181818,
                "tempo": 120.0
            },
            {
                "start_time": 77.5295455,
                "end_time": 77.6454545,
                "pitch": 71,
                "velocity": 80,
                "duration": 0.1159091,
                "tempo": 120.0
            },
            {
                "start_time": 77.6636364,
                "end_time": 77.7795455,
                "pitch": 71,
                "velocity": 80,
                "duration": 0.1159091,
                "tempo": 120.0
            },
            {
                "start_time": 77.7977273,
                "end_time": 77.9159091,
                "pitch": 80,
                "velocity": 80,
                "duration": 0.1181818,
                "tempo": 120.0
            },
            {
                "start_time": 77.9318182,
                "end_time": 78.0522727,
                "pitch": 80,
                "velocity": 80,
                "duration": 0.1204545,
                "tempo": 120.0
            },
            {
                "start_time": 78.0681818,
                "end_time": 78.1886364,
                "pitch": 75,
                "velocity": 80,
                "duration": 0.1204545,
                "tempo": 120.0
            },
            {
                "start_time": 78.2045455,
                "end_time": 78.3227273,
                "pitch": 75,
                "velocity": 80,
                "duration": 0.1181818,
                "tempo": 120.0
            },
            {
                "start_time": 78.3409091,
                "end_time": 78.4568182,
                "pitch": 71,
                "velocity": 80,
                "duration": 0.1159091,
                "tempo": 120.0
            },
            {
                "start_time": 78.475,
                "end_time": 78.5909091,
                "pitch": 71,
                "velocity": 80,
                "duration": 0.1159091,
                "tempo": 120.0
            },
            {
                "start_time": 78.6068182,
                "end_time": 78.725,
                "pitch": 80,
                "velocity": 80,
                "duration": 0.1181818,
                "tempo": 120.0
            },
            {
                "start_time": 78.7409091,
                "end_time": 78.8590909,
                "pitch": 80,
                "velocity": 80,
                "duration": 0.1181818,
                "tempo": 120.0
            },
            {
                "start_time": 78.875,
                "end_time": 78.9931818,
                "pitch": 75,
                "velocity": 80,
                "duration": 0.1181818,
                "tempo": 120.0
            },
            {
                "start_time": 79.0113636,
                "end_time": 79.1295455,
                "pitch": 75,
                "velocity": 80,
                "duration": 0.1181818,
                "tempo": 120.0
            },
            {
                "start_time": 79.1477273,
                "end_time": 79.2659091,
                "pitch": 71,
                "velocity": 80,
                "duration": 0.1181818,
                "tempo": 120.0
            },
            {
                "start_time": 79.2818182,
                "end_time": 79.4022727,
                "pitch": 71,
                "velocity": 80,
                "duration": 0.1204545,
                "tempo": 120.0
            },
            {
                "start_time": 79.4181818,
                "end_time": 79.5363636,
                "pitch": 80,
                "velocity": 80,
                "duration": 0.1181818,
                "tempo": 120.0
            },
            {
                "start_time": 79.5522727,
                "end_time": 79.6704545,
                "pitch": 80,
                "velocity": 80,
                "duration": 0.1181818,
                "tempo": 120.0
            },
            {
                "start_time": 79.6863636,
                "end_time": 79.8022727,
                "pitch": 75,
                "velocity": 80,
                "duration": 0.1159091,
                "tempo": 120.0
            },
            {
                "start_time": 79.8204545,
                "end_time": 79.9363636,
                "pitch": 75,
                "velocity": 80,
                "duration": 0.1159091,
                "tempo": 120.0
            },
            {
                "start_time": 79.9522727,
                "end_time": 80.0704545,
                "pitch": 71,
                "velocity": 80,
                "duration": 0.1181818,
                "tempo": 120.0
            },
            {
                "start_time": 80.0863636,
                "end_time": 80.2045455,
                "pitch": 71,
                "velocity": 80,
                "duration": 0.1181818,
                "tempo": 120.0
            },
            {
                "start_time": 80.2204545,
                "end_time": 80.3363636,
                "pitch": 80,
                "velocity": 80,
                "duration": 0.1159091,
                "tempo": 120.0
            },
            {
                "start_time": 80.3545455,
                "end_time": 80.4704545,
                "pitch": 80,
                "velocity": 80,
                "duration": 0.1159091,
                "tempo": 120.0
            },
            {
                "start_time": 80.4886364,
                "end_time": 80.6045455,
                "pitch": 75,
                "velocity": 80,
                "duration": 0.1159091,
                "tempo": 120.0
            },
            {
                "start_time": 80.6204545,
                "end_time": 80.7386364,
                "pitch": 75,
                "velocity": 80,
                "duration": 0.1181818,
                "tempo": 120.0
            },
            {
                "start_time": 80.7545455,
                "end_time": 80.8727273,
                "pitch": 71,
                "velocity": 80,
                "duration": 0.1181818,
                "tempo": 120.0
            },
            {
                "start_time": 80.8886364,
                "end_time": 81.0045455,
                "pitch": 71,
                "velocity": 80,
                "duration": 0.1159091,
                "tempo": 120.0
            },
            {
                "start_time": 81.0227273,
                "end_time": 81.1409091,
                "pitch": 80,
                "velocity": 80,
                "duration": 0.1181818,
                "tempo": 120.0
            },
            {
                "start_time": 81.1590909,
                "end_time": 81.2772727,
                "pitch": 80,
                "velocity": 80,
                "duration": 0.1181818,
                "tempo": 120.0
            },
            {
                "start_time": 81.2931818,
                "end_time": 81.4136364,
                "pitch": 75,
                "velocity": 80,
                "duration": 0.1204545,
                "tempo": 120.0
            },
            {
                "start_time": 81.4295455,
                "end_time": 81.55,
                "pitch": 75,
                "velocity": 80,
                "duration": 0.1204545,
                "tempo": 120.0
            }
        ],
        "Vibraphone": [
            {
                "start_time": 32.1045455,
                "end_time": 34.2431818,
                "pitch": 61,
                "velocity": 80,
                "duration": 2.1386364,
                "tempo": 120.0
            },
            {
                "start_time": 34.2613636,
                "end_time": 36.4,
                "pitch": 61,
                "velocity": 80,
                "duration": 2.1386364,
                "tempo": 120.0
            },
            {
                "start_time": 36.4181818,
                "end_time": 38.5477273,
                "pitch": 61,
                "velocity": 80,
                "duration": 2.1295455,
                "tempo": 120.0
            },
            {
                "start_time": 38.5659091,
                "end_time": 40.6954545,
                "pitch": 61,
                "velocity": 80,
                "duration": 2.1295455,
                "tempo": 120.0
            },
            {
                "start_time": 40.7113636,
                "end_time": 42.8431818,
                "pitch": 61,
                "velocity": 80,
                "duration": 2.1318182,
                "tempo": 120.0
            },
            {
                "start_time": 42.8590909,
                "end_time": 44.9977273,
                "pitch": 61,
                "velocity": 80,
                "duration": 2.1386364,
                "tempo": 120.0
            },
            {
                "start_time": 45.0159091,
                "end_time": 47.1454545,
                "pitch": 61,
                "velocity": 80,
                "duration": 2.1295455,
                "tempo": 120.0
            }
        ]
    }
}