{
    "track_id": "01 Hyper Defending Force (Title)",
    "mood": "angry",
    "instruments": {
        "Electric Piano 1": [
            {
                "start_time": 0.04772727272727272,
                "end_time": 0.26136363636363635,
                "pitch": 62,
                "velocity": 40,
                "duration": 0.21363636363636362,
                "tempo": 120.0
            },
            {
                "start_time": 0.26136363636363635,
                "end_time": 0.36136363636363633,
                "pitch": 60,
                "velocity": 40,
                "duration": 0.09999999999999998,
                "tempo": 120.0
            },
            {
                "start_time": 0.36136363636363633,
                "end_time": 0.47727272727272724,
                "pitch": 57,
                "velocity": 40,
                "duration": 0.1159090909090909,
                "tempo": 120.0
            },
            {
                "start_time": 0.4795454545454545,
                "end_time": 0.5795454545454545,
                "pitch": 60,
                "velocity": 40,
                "duration": 0.09999999999999998,
                "tempo": 120.0
            },
            {
                "start_time": 0.7,
                "end_time": 0.8022727272727272,
                "pitch": 57,
                "velocity": 40,
                "duration": 0.10227272727272729,
                "tempo": 120.0
            },
            {
                "start_time": 0.8022727272727272,
                "end_time": 0.9045454545454545,
                "pitch": 60,
                "velocity": 40,
                "duration": 0.10227272727272729,
                "tempo": 120.0
            },
            {
                "start_time": 1.0204545454545455,
                "end_time": 1.115909090909091,
                "pitch": 57,
                "velocity": 40,
                "duration": 0.09545454545454546,
                "tempo": 120.0
            },
            {
                "start_time": 1.1181818181818182,
                "end_time": 1.2318181818181817,
                "pitch": 64,
                "velocity": 40,
                "duration": 0.11363636363636354,
                "tempo": 120.0
            },
            {
                "start_time": 1.3318181818181818,
                "end_time": 1.4454545454545453,
                "pitch": 57,
                "velocity": 40,
                "duration": 0.11363636363636354,
                "tempo": 120.0
            },
            {
                "start_time": 1.4477272727272728,
                "end_time": 1.5454545454545454,
                "pitch": 60,
                "velocity": 40,
                "duration": 0.09772727272727266,
                "tempo": 120.0
            },
            {
                "start_time": 1.6477272727272727,
                "end_time": 1.7636363636363634,
                "pitch": 57,
                "velocity": 40,
                "duration": 0.11590909090909074,
                "tempo": 120.0
            },
            {
                "start_time": 1.7659090909090909,
                "end_time": 1.8636363636363635,
                "pitch": 60,
                "velocity": 40,
                "duration": 0.09772727272727266,
                "tempo": 120.0
            },
            {
                "start_time": 1.9818181818181817,
                "end_time": 2.0795454545454546,
                "pitch": 62,
                "velocity": 40,
                "duration": 0.09772727272727288,
                "tempo": 120.0
            },
            {
                "start_time": 2.0818181818181816,
                "end_time": 2.1977272727272728,
                "pitch": 59,
                "velocity": 40,
                "duration": 0.11590909090909118,
                "tempo": 120.0
            },
            {
                "start_time": 2.1977272727272728,
                "end_time": 2.2977272727272724,
                "pitch": 62,
                "velocity": 40,
                "duration": 0.09999999999999964,
                "tempo": 120.0
            },
            {
                "start_time": 2.3977272727272725,
                "end_time": 2.5136363636363637,
                "pitch": 59,
                "velocity": 40,
                "duration": 0.11590909090909118,
                "tempo": 120.0
            },
            {
                "start_time": 2.5159090909090907,
                "end_time": 2.6136363636363633,
                "pitch": 62,
                "velocity": 40,
                "duration": 0.09772727272727266,
                "tempo": 120.0
            },
            {
                "start_time": 2.7295454545454545,
                "end_time": 2.827272727272727,
                "pitch": 59,
                "velocity": 40,
                "duration": 0.09772727272727266,
                "tempo": 120.0
            },
            {
                "start_time": 2.827272727272727,
                "end_time": 2.940909090909091,
                "pitch": 66,
                "velocity": 40,
                "duration": 0.11363636363636376,
                "tempo": 120.0
            },
            {
                "start_time": 3.0409090909090906,
                "end_time": 3.1386363636363637,
                "pitch": 59,
                "velocity": 40,
                "duration": 0.0977272727272731,
                "tempo": 120.0
            },
            {
                "start_time": 3.1409090909090907,
                "end_time": 3.256818181818182,
                "pitch": 62,
                "velocity": 40,
                "duration": 0.11590909090909118,
                "tempo": 120.0
            },
            {
                "start_time": 3.3568181818181815,
                "end_time": 3.4727272727272727,
                "pitch": 59,
                "velocity": 40,
                "duration": 0.11590909090909118,
                "tempo": 120.0
            },
            {
                "start_time": 3.4749999999999996,
                "end_time": 3.5727272727272728,
                "pitch": 62,
                "velocity": 40,
                "duration": 0.0977272727272731,
                "tempo": 120.0
            },
            {
                "start_time": 3.690909090909091,
                "end_time": 3.7909090909090906,
                "pitch": 64,
                "velocity": 40,
                "duration": 0.09999999999999964,
                "tempo": 120.0
            },
            {
                "start_time": 3.7909090909090906,
                "end_time": 3.8909090909090907,
                "pitch": 60,
                "velocity": 40,
                "duration": 0.10000000000000009,
                "tempo": 120.0
            },
            {
                "start_time": 3.8909090909090907,
                "end_time": 4.004545454545454,
                "pitch": 64,
                "velocity": 40,
                "duration": 0.11363636363636331,
                "tempo": 120.0
            },
            {
                "start_time": 4.1045454545454545,
                "end_time": 4.218181818181818,
                "pitch": 60,
                "velocity": 40,
                "duration": 0.11363636363636331,
                "tempo": 120.0
            },
            {
                "start_time": 4.218181818181818,
                "end_time": 4.3159090909090905,
                "pitch": 64,
                "velocity": 40,
                "duration": 0.09772727272727266,
                "tempo": 120.0
            },
            {
                "start_time": 4.431818181818182,
                "end_time": 4.531818181818181,
                "pitch": 60,
                "velocity": 40,
                "duration": 0.09999999999999964,
                "tempo": 120.0
            },
            {
                "start_time": 4.534090909090909,
                "end_time": 4.631818181818182,
                "pitch": 67,
                "velocity": 40,
                "duration": 0.09772727272727266,
                "tempo": 120.0
            },
            {
                "start_time": 4.75,
                "end_time": 4.85,
                "pitch": 60,
                "velocity": 40,
                "duration": 0.09999999999999964,
                "tempo": 120.0
            },
            {
                "start_time": 4.85,
                "end_time": 4.965909090909091,
                "pitch": 64,
                "velocity": 40,
                "duration": 0.11590909090909118,
                "tempo": 120.0
            },
            {
                "start_time": 5.0659090909090905,
                "end_time": 5.184090909090909,
                "pitch": 60,
                "velocity": 40,
                "duration": 0.11818181818181817,
                "tempo": 120.0
            },
            {
                "start_time": 5.184090909090909,
                "end_time": 5.284090909090909,
                "pitch": 64,
                "velocity": 40,
                "duration": 0.10000000000000053,
                "tempo": 120.0
            },
            {
                "start_time": 5.388636363636364,
                "end_time": 5.506818181818182,
                "pitch": 62,
                "velocity": 40,
                "duration": 0.11818181818181817,
                "tempo": 120.0
            },
            {
                "start_time": 5.506818181818182,
                "end_time": 5.6090909090909085,
                "pitch": 59,
                "velocity": 40,
                "duration": 0.10227272727272663,
                "tempo": 120.0
            },
            {
                "start_time": 5.611363636363636,
                "end_time": 5.720454545454545,
                "pitch": 62,
                "velocity": 40,
                "duration": 0.10909090909090846,
                "tempo": 120.0
            },
            {
                "start_time": 5.8159090909090905,
                "end_time": 5.927272727272727,
                "pitch": 59,
                "velocity": 40,
                "duration": 0.11136363636363633,
                "tempo": 120.0
            },
            {
                "start_time": 5.927272727272727,
                "end_time": 6.0227272727272725,
                "pitch": 62,
                "velocity": 40,
                "duration": 0.09545454545454568,
                "tempo": 120.0
            },
            {
                "start_time": 6.122727272727272,
                "end_time": 6.238636363636363,
                "pitch": 59,
                "velocity": 40,
                "duration": 0.11590909090909118,
                "tempo": 120.0
            },
            {
                "start_time": 6.24090909090909,
                "end_time": 6.338636363636363,
                "pitch": 66,
                "velocity": 40,
                "duration": 0.09772727272727266,
                "tempo": 120.0
            },
            {
                "start_time": 6.456818181818181,
                "end_time": 6.556818181818182,
                "pitch": 59,
                "velocity": 40,
                "duration": 0.10000000000000053,
                "tempo": 120.0
            },
            {
                "start_time": 6.556818181818182,
                "end_time": 6.672727272727273,
                "pitch": 62,
                "velocity": 40,
                "duration": 0.11590909090909118,
                "tempo": 120.0
            },
            {
                "start_time": 6.7749999999999995,
                "end_time": 6.875,
                "pitch": 59,
                "velocity": 40,
                "duration": 0.10000000000000053,
                "tempo": 120.0
            },
            {
                "start_time": 6.875,
                "end_time": 6.988636363636363,
                "pitch": 62,
                "velocity": 40,
                "duration": 0.11363636363636331,
                "tempo": 120.0
            },
            {
                "start_time": 7.086363636363636,
                "end_time": 7.199999999999999,
                "pitch": 64,
                "velocity": 40,
                "duration": 0.11363636363636331,
                "tempo": 120.0
            },
            {
                "start_time": 7.199999999999999,
                "end_time": 7.297727272727272,
                "pitch": 60,
                "velocity": 40,
                "duration": 0.09772727272727266,
                "tempo": 120.0
            },
            {
                "start_time": 7.3,
                "end_time": 7.41590909090909,
                "pitch": 64,
                "velocity": 40,
                "duration": 0.1159090909090903,
                "tempo": 120.0
            },
            {
                "start_time": 7.515909090909091,
                "end_time": 7.61590909090909,
                "pitch": 60,
                "velocity": 40,
                "duration": 0.09999999999999964,
                "tempo": 120.0
            },
            {
                "start_time": 7.61590909090909,
                "end_time": 7.7318181818181815,
                "pitch": 64,
                "velocity": 40,
                "duration": 0.11590909090909118,
                "tempo": 120.0
            },
            {
                "start_time": 7.834090909090909,
                "end_time": 7.949999999999999,
                "pitch": 60,
                "velocity": 40,
                "duration": 0.1159090909090903,
                "tempo": 120.0
            },
            {
                "start_time": 7.949999999999999,
                "end_time": 8.049999999999999,
                "pitch": 67,
                "velocity": 40,
                "duration": 0.09999999999999964,
                "tempo": 120.0
            },
            {
                "start_time": 8.168181818181818,
                "end_time": 8.268181818181818,
                "pitch": 60,
                "velocity": 40,
                "duration": 0.09999999999999964,
                "tempo": 120.0
            },
            {
                "start_time": 8.270454545454545,
                "end_time": 8.370454545454544,
                "pitch": 64,
                "velocity": 40,
                "duration": 0.09999999999999964,
                "tempo": 120.0
            },
            {
                "start_time": 8.49090909090909,
                "end_time": 8.593181818181817,
                "pitch": 60,
                "velocity": 40,
                "duration": 0.10227272727272663,
                "tempo": 120.0
            },
            {
                "start_time": 8.593181818181817,
                "end_time": 8.706818181818182,
                "pitch": 64,
                "velocity": 40,
                "duration": 0.11363636363636509,
                "tempo": 120.0
            },
            {
                "start_time": 8.806818181818182,
                "end_time": 8.920454545454545,
                "pitch": 66,
                "velocity": 40,
                "duration": 0.11363636363636331,
                "tempo": 120.0
            },
            {
                "start_time": 8.920454545454545,
                "end_time": 9.018181818181818,
                "pitch": 62,
                "velocity": 40,
                "duration": 0.09772727272727266,
                "tempo": 120.0
            },
            {
                "start_time": 9.018181818181818,
                "end_time": 9.118181818181817,
                "pitch": 66,
                "velocity": 40,
                "duration": 0.09999999999999964,
                "tempo": 120.0
            },
            {
                "start_time": 9.23409090909091,
                "end_time": 9.334090909090909,
                "pitch": 62,
                "velocity": 40,
                "duration": 0.09999999999999964,
                "tempo": 120.0
            },
            {
                "start_time": 9.336363636363636,
                "end_time": 9.452272727272726,
                "pitch": 66,
                "velocity": 40,
                "duration": 0.1159090909090903,
                "tempo": 120.0
            },
            {
                "start_time": 9.552272727272728,
                "end_time": 9.668181818181818,
                "pitch": 62,
                "velocity": 40,
                "duration": 0.1159090909090903,
                "tempo": 120.0
            },
            {
                "start_time": 9.670454545454545,
                "end_time": 9.768181818181818,
                "pitch": 69,
                "velocity": 40,
                "duration": 0.09772727272727266,
                "tempo": 120.0
            },
            {
                "start_time": 9.870454545454544,
                "end_time": 9.979545454545454,
                "pitch": 62,
                "velocity": 40,
                "duration": 0.10909090909090935,
                "tempo": 120.0
            },
            {
                "start_time": 9.98181818181818,
                "end_time": 10.075,
                "pitch": 66,
                "velocity": 40,
                "duration": 0.0931818181818187,
                "tempo": 120.0
            },
            {
                "start_time": 10.186363636363636,
                "end_time": 10.281818181818181,
                "pitch": 62,
                "velocity": 40,
                "duration": 0.09545454545454568,
                "tempo": 120.0
            },
            {
                "start_time": 10.284090909090908,
                "end_time": 10.397727272727272,
                "pitch": 66,
                "velocity": 40,
                "duration": 0.11363636363636331,
                "tempo": 120.0
            },
            {
                "start_time": 10.5,
                "end_time": 10.597727272727273,
                "pitch": 67,
                "velocity": 40,
                "duration": 0.09772727272727266,
                "tempo": 120.0
            },
            {
                "start_time": 10.6,
                "end_time": 10.71590909090909,
                "pitch": 64,
                "velocity": 40,
                "duration": 0.1159090909090903,
                "tempo": 120.0
            },
            {
                "start_time": 10.718181818181817,
                "end_time": 10.818181818181818,
                "pitch": 67,
                "velocity": 40,
                "duration": 0.10000000000000142,
                "tempo": 120.0
            },
            {
                "start_time": 10.938636363636363,
                "end_time": 11.040909090909091,
                "pitch": 64,
                "velocity": 40,
                "duration": 0.1022727272727284,
                "tempo": 120.0
            },
            {
                "start_time": 11.040909090909091,
                "end_time": 11.159090909090908,
                "pitch": 67,
                "velocity": 40,
                "duration": 0.11818181818181728,
                "tempo": 120.0
            },
            {
                "start_time": 11.259090909090908,
                "end_time": 11.35909090909091,
                "pitch": 64,
                "velocity": 40,
                "duration": 0.10000000000000142,
                "tempo": 120.0
            },
            {
                "start_time": 11.361363636363636,
                "end_time": 11.477272727272727,
                "pitch": 71,
                "velocity": 40,
                "duration": 0.1159090909090903,
                "tempo": 120.0
            },
            {
                "start_time": 11.577272727272726,
                "end_time": 11.686363636363636,
                "pitch": 64,
                "velocity": 40,
                "duration": 0.10909090909090935,
                "tempo": 120.0
            },
            {
                "start_time": 11.688636363636363,
                "end_time": 11.784090909090908,
                "pitch": 67,
                "velocity": 40,
                "duration": 0.09545454545454568,
                "tempo": 120.0
            },
            {
                "start_time": 11.895454545454545,
                "end_time": 11.99090909090909,
                "pitch": 64,
                "velocity": 40,
                "duration": 0.09545454545454568,
                "tempo": 120.0
            },
            {
                "start_time": 11.99090909090909,
                "end_time": 12.09090909090909,
                "pitch": 67,
                "velocity": 40,
                "duration": 0.09999999999999964,
                "tempo": 120.0
            },
            {
                "start_time": 12.211363636363636,
                "end_time": 12.313636363636363,
                "pitch": 66,
                "velocity": 40,
                "duration": 0.10227272727272663,
                "tempo": 120.0
            },
            {
                "start_time": 12.313636363636363,
                "end_time": 12.431818181818182,
                "pitch": 62,
                "velocity": 40,
                "duration": 0.11818181818181905,
                "tempo": 120.0
            },
            {
                "start_time": 12.434090909090909,
                "end_time": 12.531818181818181,
                "pitch": 66,
                "velocity": 40,
                "duration": 0.09772727272727266,
                "tempo": 120.0
            },
            {
                "start_time": 12.649999999999999,
                "end_time": 12.75,
                "pitch": 62,
                "velocity": 40,
                "duration": 0.10000000000000142,
                "tempo": 120.0
            },
            {
                "start_time": 12.75,
                "end_time": 12.85,
                "pitch": 66,
                "velocity": 40,
                "duration": 0.09999999999999964,
                "tempo": 120.0
            },
            {
                "start_time": 12.961363636363636,
                "end_time": 13.056818181818182,
                "pitch": 62,
                "velocity": 40,
                "duration": 0.09545454545454568,
                "tempo": 120.0
            },
            {
                "start_time": 13.056818181818182,
                "end_time": 13.168181818181818,
                "pitch": 69,
                "velocity": 40,
                "duration": 0.11136363636363633,
                "tempo": 120.0
            },
            {
                "start_time": 13.263636363636364,
                "end_time": 13.381818181818181,
                "pitch": 62,
                "velocity": 40,
                "duration": 0.11818181818181728,
                "tempo": 120.0
            },
            {
                "start_time": 13.381818181818181,
                "end_time": 13.484090909090908,
                "pitch": 66,
                "velocity": 40,
                "duration": 0.10227272727272663,
                "tempo": 120.0
            },
            {
                "start_time": 13.586363636363636,
                "end_time": 13.706818181818182,
                "pitch": 62,
                "velocity": 40,
                "duration": 0.12045454545454604,
                "tempo": 120.0
            },
            {
                "start_time": 13.709090909090909,
                "end_time": 13.806818181818182,
                "pitch": 66,
                "velocity": 40,
                "duration": 0.09772727272727266,
                "tempo": 120.0
            },
            {
                "start_time": 13.924999999999999,
                "end_time": 14.022727272727272,
                "pitch": 64,
                "velocity": 40,
                "duration": 0.09772727272727266,
                "tempo": 120.0
            },
            {
                "start_time": 14.022727272727272,
                "end_time": 14.122727272727271,
                "pitch": 66,
                "velocity": 40,
                "duration": 0.09999999999999964,
                "tempo": 120.0
            },
            {
                "start_time": 14.122727272727271,
                "end_time": 14.24090909090909,
                "pitch": 59,
                "velocity": 40,
                "duration": 0.11818181818181905,
                "tempo": 120.0
            },
            {
                "start_time": 14.34090909090909,
                "end_time": 14.45681818181818,
                "pitch": 64,
                "velocity": 40,
                "duration": 0.1159090909090903,
                "tempo": 120.0
            },
            {
                "start_time": 14.459090909090909,
                "end_time": 14.556818181818182,
                "pitch": 59,
                "velocity": 40,
                "duration": 0.09772727272727266,
                "tempo": 120.0
            },
            {
                "start_time": 14.672727272727272,
                "end_time": 14.770454545454545,
                "pitch": 64,
                "velocity": 40,
                "duration": 0.09772727272727266,
                "tempo": 120.0
            },
            {
                "start_time": 14.868181818181817,
                "end_time": 14.98181818181818,
                "pitch": 59,
                "velocity": 40,
                "duration": 0.11363636363636331,
                "tempo": 120.0
            },
            {
                "start_time": 14.984090909090908,
                "end_time": 15.08181818181818,
                "pitch": 64,
                "velocity": 40,
                "duration": 0.09772727272727266,
                "tempo": 120.0
            },
            {
                "start_time": 15.084090909090909,
                "end_time": 15.2,
                "pitch": 66,
                "velocity": 40,
                "duration": 0.1159090909090903,
                "tempo": 120.0
            },
            {
                "start_time": 15.2,
                "end_time": 15.297727272727272,
                "pitch": 67,
                "velocity": 40,
                "duration": 0.09772727272727266,
                "tempo": 120.0
            },
            {
                "start_time": 15.299999999999999,
                "end_time": 15.415909090909091,
                "pitch": 66,
                "velocity": 40,
                "duration": 0.11590909090909207,
                "tempo": 120.0
            },
            {
                "start_time": 15.418181818181818,
                "end_time": 15.51590909090909,
                "pitch": 64,
                "velocity": 40,
                "duration": 0.09772727272727266,
                "tempo": 120.0
            },
            {
                "start_time": 15.51590909090909,
                "end_time": 15.61590909090909,
                "pitch": 62,
                "velocity": 40,
                "duration": 0.09999999999999964,
                "tempo": 120.0
            },
            {
                "start_time": 15.61590909090909,
                "end_time": 15.73181818181818,
                "pitch": 66,
                "velocity": 40,
                "duration": 0.1159090909090903,
                "tempo": 120.0
            },
            {
                "start_time": 15.734090909090908,
                "end_time": 15.834090909090909,
                "pitch": 67,
                "velocity": 40,
                "duration": 0.10000000000000142,
                "tempo": 120.0
            },
            {
                "start_time": 15.834090909090909,
                "end_time": 15.947727272727272,
                "pitch": 66,
                "velocity": 40,
                "duration": 0.11363636363636331,
                "tempo": 120.0
            },
            {
                "start_time": 16.045454545454543,
                "end_time": 16.15909090909091,
                "pitch": 64,
                "velocity": 40,
                "duration": 0.11363636363636687,
                "tempo": 120.0
            },
            {
                "start_time": 16.161363636363635,
                "end_time": 16.259090909090908,
                "pitch": 62,
                "velocity": 40,
                "duration": 0.09772727272727266,
                "tempo": 120.0
            },
            {
                "start_time": 16.35909090909091,
                "end_time": 16.909090909090907,
                "pitch": 64,
                "velocity": 40,
                "duration": 0.5499999999999972,
                "tempo": 120.0
            },
            {
                "start_time": 17.327272727272728,
                "end_time": 17.443181818181817,
                "pitch": 64,
                "velocity": 40,
                "duration": 0.11590909090908852,
                "tempo": 120.0
            },
            {
                "start_time": 17.443181818181817,
                "end_time": 17.543181818181818,
                "pitch": 66,
                "velocity": 40,
                "duration": 0.10000000000000142,
                "tempo": 120.0
            },
            {
                "start_time": 17.545454545454543,
                "end_time": 17.65681818181818,
                "pitch": 60,
                "velocity": 40,
                "duration": 0.11136363636363811,
                "tempo": 120.0
            },
            {
                "start_time": 17.756818181818183,
                "end_time": 17.852272727272727,
                "pitch": 64,
                "velocity": 40,
                "duration": 0.0954545454545439,
                "tempo": 120.0
            },
            {
                "start_time": 17.854545454545455,
                "end_time": 17.96818181818182,
                "pitch": 60,
                "velocity": 40,
                "duration": 0.11363636363636331,
                "tempo": 120.0
            },
            {
                "start_time": 18.068181818181817,
                "end_time": 18.18409090909091,
                "pitch": 64,
                "velocity": 40,
                "duration": 0.11590909090909207,
                "tempo": 120.0
            },
            {
                "start_time": 18.286363636363635,
                "end_time": 18.402272727272727,
                "pitch": 60,
                "velocity": 40,
                "duration": 0.11590909090909207,
                "tempo": 120.0
            },
            {
                "start_time": 18.402272727272727,
                "end_time": 18.502272727272725,
                "pitch": 64,
                "velocity": 40,
                "duration": 0.09999999999999787,
                "tempo": 120.0
            },
            {
                "start_time": 18.502272727272725,
                "end_time": 18.602272727272727,
                "pitch": 66,
                "velocity": 40,
                "duration": 0.10000000000000142,
                "tempo": 120.0
            },
            {
                "start_time": 18.602272727272727,
                "end_time": 18.71818181818182,
                "pitch": 67,
                "velocity": 40,
                "duration": 0.11590909090909207,
                "tempo": 120.0
            },
            {
                "start_time": 18.720454545454544,
                "end_time": 18.818181818181817,
                "pitch": 69,
                "velocity": 40,
                "duration": 0.09772727272727266,
                "tempo": 120.0
            },
            {
                "start_time": 18.820454545454545,
                "end_time": 18.93409090909091,
                "pitch": 71,
                "velocity": 40,
                "duration": 0.11363636363636331,
                "tempo": 120.0
            },
            {
                "start_time": 18.93409090909091,
                "end_time": 19.03181818181818,
                "pitch": 67,
                "velocity": 40,
                "duration": 0.09772727272727266,
                "tempo": 120.0
            },
            {
                "start_time": 19.03181818181818,
                "end_time": 19.145454545454545,
                "pitch": 71,
                "velocity": 40,
                "duration": 0.11363636363636331,
                "tempo": 120.0
            },
            {
                "start_time": 19.145454545454545,
                "end_time": 19.243181818181817,
                "pitch": 72,
                "velocity": 40,
                "duration": 0.09772727272727266,
                "tempo": 120.0
            },
            {
                "start_time": 19.245454545454546,
                "end_time": 19.34318181818182,
                "pitch": 71,
                "velocity": 40,
                "duration": 0.09772727272727266,
                "tempo": 120.0
            },
            {
                "start_time": 19.461363636363636,
                "end_time": 19.561363636363634,
                "pitch": 69,
                "velocity": 40,
                "duration": 0.09999999999999787,
                "tempo": 120.0
            },
            {
                "start_time": 19.561363636363634,
                "end_time": 19.677272727272726,
                "pitch": 67,
                "velocity": 40,
                "duration": 0.11590909090909207,
                "tempo": 120.0
            },
            {
                "start_time": 19.777272727272727,
                "end_time": 20.31590909090909,
                "pitch": 69,
                "velocity": 40,
                "duration": 0.538636363636364,
                "tempo": 120.0
            },
            {
                "start_time": 20.745454545454546,
                "end_time": 20.83863636363636,
                "pitch": 64,
                "velocity": 40,
                "duration": 0.09318181818181515,
                "tempo": 120.0
            },
            {
                "start_time": 20.84090909090909,
                "end_time": 20.93409090909091,
                "pitch": 66,
                "velocity": 40,
                "duration": 0.0931818181818187,
                "tempo": 120.0
            },
            {
                "start_time": 20.936363636363634,
                "end_time": 21.052272727272726,
                "pitch": 59,
                "velocity": 40,
                "duration": 0.11590909090909207,
                "tempo": 120.0
            },
            {
                "start_time": 21.152272727272727,
                "end_time": 21.268181818181816,
                "pitch": 64,
                "velocity": 40,
                "duration": 0.11590909090908852,
                "tempo": 120.0
            },
            {
                "start_time": 21.268181818181816,
                "end_time": 21.368181818181817,
                "pitch": 59,
                "velocity": 40,
                "duration": 0.10000000000000142,
                "tempo": 120.0
            },
            {
                "start_time": 21.48409090909091,
                "end_time": 21.579545454545453,
                "pitch": 64,
                "velocity": 40,
                "duration": 0.0954545454545439,
                "tempo": 120.0
            },
            {
                "start_time": 21.679545454545455,
                "end_time": 21.793181818181818,
                "pitch": 59,
                "velocity": 40,
                "duration": 0.11363636363636331,
                "tempo": 120.0
            },
            {
                "start_time": 21.795454545454543,
                "end_time": 21.893181818181816,
                "pitch": 64,
                "velocity": 40,
                "duration": 0.09772727272727266,
                "tempo": 120.0
            },
            {
                "start_time": 21.893181818181816,
                "end_time": 22.009090909090908,
                "pitch": 66,
                "velocity": 40,
                "duration": 0.11590909090909207,
                "tempo": 120.0
            },
            {
                "start_time": 22.011363636363637,
                "end_time": 22.10909090909091,
                "pitch": 67,
                "velocity": 40,
                "duration": 0.09772727272727266,
                "tempo": 120.0
            },
            {
                "start_time": 22.111363636363635,
                "end_time": 22.227272727272727,
                "pitch": 66,
                "velocity": 40,
                "duration": 0.11590909090909207,
                "tempo": 120.0
            },
            {
                "start_time": 22.229545454545452,
                "end_time": 22.327272727272724,
                "pitch": 64,
                "velocity": 40,
                "duration": 0.09772727272727266,
                "tempo": 120.0
            },
            {
                "start_time": 22.327272727272724,
                "end_time": 22.427272727272726,
                "pitch": 62,
                "velocity": 40,
                "duration": 0.10000000000000142,
                "tempo": 120.0
            },
            {
                "start_time": 22.427272727272726,
                "end_time": 22.543181818181818,
                "pitch": 66,
                "velocity": 40,
                "duration": 0.11590909090909207,
                "tempo": 120.0
            },
            {
                "start_time": 22.545454545454543,
                "end_time": 22.645454545454545,
                "pitch": 67,
                "velocity": 40,
                "duration": 0.10000000000000142,
                "tempo": 120.0
            },
            {
                "start_time": 22.645454545454545,
                "end_time": 22.759090909090908,
                "pitch": 66,
                "velocity": 40,
                "duration": 0.11363636363636331,
                "tempo": 120.0
            },
            {
                "start_time": 22.85681818181818,
                "end_time": 22.970454545454544,
                "pitch": 64,
                "velocity": 40,
                "duration": 0.11363636363636331,
                "tempo": 120.0
            },
            {
                "start_time": 22.972727272727273,
                "end_time": 23.068181818181817,
                "pitch": 62,
                "velocity": 40,
                "duration": 0.0954545454545439,
                "tempo": 120.0
            },
            {
                "start_time": 23.170454545454543,
                "end_time": 23.720454545454544,
                "pitch": 64,
                "velocity": 40,
                "duration": 0.5500000000000007,
                "tempo": 120.0
            },
            {
                "start_time": 24.138636363636362,
                "end_time": 24.254545454545454,
                "pitch": 64,
                "velocity": 40,
                "duration": 0.11590909090909207,
                "tempo": 120.0
            },
            {
                "start_time": 24.254545454545454,
                "end_time": 24.354545454545452,
                "pitch": 66,
                "velocity": 40,
                "duration": 0.09999999999999787,
                "tempo": 120.0
            },
            {
                "start_time": 24.354545454545452,
                "end_time": 24.46818181818182,
                "pitch": 60,
                "velocity": 40,
                "duration": 0.11363636363636687,
                "tempo": 120.0
            },
            {
                "start_time": 24.56590909090909,
                "end_time": 24.663636363636364,
                "pitch": 64,
                "velocity": 40,
                "duration": 0.09772727272727266,
                "tempo": 120.0
            },
            {
                "start_time": 24.66590909090909,
                "end_time": 24.779545454545453,
                "pitch": 60,
                "velocity": 40,
                "duration": 0.11363636363636331,
                "tempo": 120.0
            },
            {
                "start_time": 24.879545454545454,
                "end_time": 24.995454545454542,
                "pitch": 64,
                "velocity": 40,
                "duration": 0.11590909090908852,
                "tempo": 120.0
            },
            {
                "start_time": 25.097727272727273,
                "end_time": 25.21363636363636,
                "pitch": 60,
                "velocity": 40,
                "duration": 0.11590909090908852,
                "tempo": 120.0
            },
            {
                "start_time": 25.21363636363636,
                "end_time": 25.313636363636363,
                "pitch": 64,
                "velocity": 40,
                "duration": 0.10000000000000142,
                "tempo": 120.0
            },
            {
                "start_time": 25.31590909090909,
                "end_time": 25.41590909090909,
                "pitch": 66,
                "velocity": 40,
                "duration": 0.09999999999999787,
                "tempo": 120.0
            },
            {
                "start_time": 25.418181818181818,
                "end_time": 25.536363636363635,
                "pitch": 67,
                "velocity": 40,
                "duration": 0.11818181818181728,
                "tempo": 120.0
            },
            {
                "start_time": 25.536363636363635,
                "end_time": 25.638636363636362,
                "pitch": 69,
                "velocity": 40,
                "duration": 0.10227272727272663,
                "tempo": 120.0
            },
            {
                "start_time": 25.64090909090909,
                "end_time": 25.75,
                "pitch": 71,
                "velocity": 40,
                "duration": 0.10909090909090935,
                "tempo": 120.0
            },
            {
                "start_time": 25.75,
                "end_time": 25.845454545454544,
                "pitch": 67,
                "velocity": 40,
                "duration": 0.0954545454545439,
                "tempo": 120.0
            },
            {
                "start_time": 25.847727272727273,
                "end_time": 25.956818181818182,
                "pitch": 71,
                "velocity": 40,
                "duration": 0.10909090909090935,
                "tempo": 120.0
            },
            {
                "start_time": 25.956818181818182,
                "end_time": 26.052272727272726,
                "pitch": 72,
                "velocity": 40,
                "duration": 0.0954545454545439,
                "tempo": 120.0
            },
            {
                "start_time": 26.054545454545455,
                "end_time": 26.152272727272727,
                "pitch": 71,
                "velocity": 40,
                "duration": 0.09772727272727266,
                "tempo": 120.0
            },
            {
                "start_time": 26.270454545454545,
                "end_time": 26.370454545454542,
                "pitch": 69,
                "velocity": 40,
                "duration": 0.09999999999999787,
                "tempo": 120.0
            },
            {
                "start_time": 26.370454545454542,
                "end_time": 26.486363636363635,
                "pitch": 67,
                "velocity": 40,
                "duration": 0.11590909090909207,
                "tempo": 120.0
            },
            {
                "start_time": 26.586363636363636,
                "end_time": 27.125,
                "pitch": 69,
                "velocity": 40,
                "duration": 0.538636363636364,
                "tempo": 120.0
            },
            {
                "start_time": 27.554545454545455,
                "end_time": 27.679545454545455,
                "pitch": 67,
                "velocity": 40,
                "duration": 0.125,
                "tempo": 120.0
            },
            {
                "start_time": 27.679545454545455,
                "end_time": 27.759090909090908,
                "pitch": 67,
                "velocity": 40,
                "duration": 0.07954545454545325,
                "tempo": 120.0
            },
            {
                "start_time": 27.761363636363637,
                "end_time": 27.979545454545452,
                "pitch": 64,
                "velocity": 40,
                "duration": 0.21818181818181515,
                "tempo": 120.0
            },
            {
                "start_time": 27.98181818181818,
                "end_time": 28.202272727272724,
                "pitch": 66,
                "velocity": 40,
                "duration": 0.2204545454545439,
                "tempo": 120.0
            },
            {
                "start_time": 28.204545454545453,
                "end_time": 28.302272727272726,
                "pitch": 76,
                "velocity": 40,
                "duration": 0.09772727272727266,
                "tempo": 120.0
            },
            {
                "start_time": 28.302272727272726,
                "end_time": 28.620454545454542,
                "pitch": 74,
                "velocity": 40,
                "duration": 0.31818181818181657,
                "tempo": 120.0
            },
            {
                "start_time": 28.620454545454542,
                "end_time": 28.74772727272727,
                "pitch": 72,
                "velocity": 40,
                "duration": 0.12727272727272876,
                "tempo": 120.0
            },
            {
                "start_time": 28.74772727272727,
                "end_time": 28.825,
                "pitch": 72,
                "velocity": 40,
                "duration": 0.07727272727272805,
                "tempo": 120.0
            },
            {
                "start_time": 28.827272727272724,
                "end_time": 29.034090909090907,
                "pitch": 71,
                "velocity": 40,
                "duration": 0.206818181818182,
                "tempo": 120.0
            },
            {
                "start_time": 29.034090909090907,
                "end_time": 29.13181818181818,
                "pitch": 69,
                "velocity": 40,
                "duration": 0.09772727272727266,
                "tempo": 120.0
            },
            {
                "start_time": 29.134090909090908,
                "end_time": 30.10909090909091,
                "pitch": 71,
                "velocity": 40,
                "duration": 0.9750000000000014,
                "tempo": 120.0
            },
            {
                "start_time": 30.534090909090907,
                "end_time": 30.74090909090909,
                "pitch": 71,
                "velocity": 40,
                "duration": 0.206818181818182,
                "tempo": 120.0
            },
            {
                "start_time": 30.74090909090909,
                "end_time": 30.961363636363636,
                "pitch": 69,
                "velocity": 40,
                "duration": 0.22045454545454746,
                "tempo": 120.0
            },
            {
                "start_time": 30.96363636363636,
                "end_time": 31.18409090909091,
                "pitch": 64,
                "velocity": 40,
                "duration": 0.22045454545454746,
                "tempo": 120.0
            },
            {
                "start_time": 31.18409090909091,
                "end_time": 31.384090909090908,
                "pitch": 66,
                "velocity": 40,
                "duration": 0.1999999999999993,
                "tempo": 120.0
            },
            {
                "start_time": 31.384090909090908,
                "end_time": 31.518181818181816,
                "pitch": 67,
                "velocity": 40,
                "duration": 0.13409090909090793,
                "tempo": 120.0
            },
            {
                "start_time": 27.679545454545455,
                "end_time": 31.518181818181816,
                "pitch": 79,
                "velocity": 40,
                "duration": 3.838636363636361,
                "tempo": 120.0
            },
            {
                "start_time": 31.518181818181816,
                "end_time": 31.602272727272727,
                "pitch": 67,
                "velocity": 40,
                "duration": 0.08409090909091077,
                "tempo": 120.0
            },
            {
                "start_time": 31.602272727272727,
                "end_time": 31.71590909090909,
                "pitch": 69,
                "velocity": 40,
                "duration": 0.11363636363636331,
                "tempo": 120.0
            },
            {
                "start_time": 31.71590909090909,
                "end_time": 32.027272727272724,
                "pitch": 71,
                "velocity": 40,
                "duration": 0.31136363636363384,
                "tempo": 120.0
            },
            {
                "start_time": 32.027272727272724,
                "end_time": 32.24318181818182,
                "pitch": 69,
                "velocity": 40,
                "duration": 0.2159090909090935,
                "tempo": 120.0
            },
            {
                "start_time": 32.24318181818182,
                "end_time": 32.375,
                "pitch": 67,
                "velocity": 40,
                "duration": 0.13181818181818272,
                "tempo": 120.0
            },
            {
                "start_time": 32.375,
                "end_time": 32.45909090909091,
                "pitch": 67,
                "velocity": 40,
                "duration": 0.08409090909091077,
                "tempo": 120.0
            },
            {
                "start_time": 32.461363636363636,
                "end_time": 32.559090909090905,
                "pitch": 69,
                "velocity": 40,
                "duration": 0.09772727272726911,
                "tempo": 120.0
            },
            {
                "start_time": 32.559090909090905,
                "end_time": 33.51590909090909,
                "pitch": 66,
                "velocity": 40,
                "duration": 0.9568181818181856,
                "tempo": 120.0
            },
            {
                "start_time": 34.36818181818182,
                "end_time": 34.5,
                "pitch": 67,
                "velocity": 40,
                "duration": 0.13181818181818272,
                "tempo": 120.0
            },
            {
                "start_time": 31.518181818181816,
                "end_time": 34.5,
                "pitch": 79,
                "velocity": 40,
                "duration": 2.981818181818184,
                "tempo": 120.0
            },
            {
                "start_time": 34.5,
                "end_time": 34.58409090909091,
                "pitch": 67,
                "velocity": 40,
                "duration": 0.08409090909091077,
                "tempo": 120.0
            },
            {
                "start_time": 34.586363636363636,
                "end_time": 34.79545454545455,
                "pitch": 64,
                "velocity": 40,
                "duration": 0.20909090909091077,
                "tempo": 120.0
            },
            {
                "start_time": 34.79772727272727,
                "end_time": 35.00909090909091,
                "pitch": 66,
                "velocity": 40,
                "duration": 0.21136363636363598,
                "tempo": 120.0
            },
            {
                "start_time": 35.01136363636363,
                "end_time": 35.10909090909091,
                "pitch": 76,
                "velocity": 40,
                "duration": 0.09772727272727622,
                "tempo": 120.0
            },
            {
                "start_time": 35.10909090909091,
                "end_time": 35.44318181818181,
                "pitch": 74,
                "velocity": 40,
                "duration": 0.33409090909090366,
                "tempo": 120.0
            },
            {
                "start_time": 35.445454545454545,
                "end_time": 35.57727272727273,
                "pitch": 72,
                "velocity": 40,
                "duration": 0.13181818181818272,
                "tempo": 120.0
            },
            {
                "start_time": 35.57727272727273,
                "end_time": 35.65909090909091,
                "pitch": 72,
                "velocity": 40,
                "duration": 0.08181818181817846,
                "tempo": 120.0
            },
            {
                "start_time": 35.66136363636363,
                "end_time": 35.85909090909091,
                "pitch": 71,
                "velocity": 40,
                "duration": 0.19772727272727764,
                "tempo": 120.0
            },
            {
                "start_time": 35.861363636363635,
                "end_time": 35.97727272727273,
                "pitch": 69,
                "velocity": 40,
                "duration": 0.11590909090909207,
                "tempo": 120.0
            },
            {
                "start_time": 35.97727272727273,
                "end_time": 36.93636363636364,
                "pitch": 71,
                "velocity": 40,
                "duration": 0.9590909090909108,
                "tempo": 120.0
            },
            {
                "start_time": 37.35454545454545,
                "end_time": 37.570454545454545,
                "pitch": 71,
                "velocity": 40,
                "duration": 0.2159090909090935,
                "tempo": 120.0
            },
            {
                "start_time": 37.570454545454545,
                "end_time": 37.78181818181818,
                "pitch": 69,
                "velocity": 40,
                "duration": 0.21136363636363598,
                "tempo": 120.0
            },
            {
                "start_time": 37.78409090909091,
                "end_time": 37.99545454545454,
                "pitch": 64,
                "velocity": 40,
                "duration": 0.21136363636363598,
                "tempo": 120.0
            },
            {
                "start_time": 37.99545454545454,
                "end_time": 38.211363636363636,
                "pitch": 66,
                "velocity": 40,
                "duration": 0.2159090909090935,
                "tempo": 120.0
            },
            {
                "start_time": 38.211363636363636,
                "end_time": 38.345454545454544,
                "pitch": 67,
                "velocity": 40,
                "duration": 0.13409090909090793,
                "tempo": 120.0
            },
            {
                "start_time": 34.5,
                "end_time": 38.345454545454544,
                "pitch": 79,
                "velocity": 40,
                "duration": 3.845454545454544,
                "tempo": 120.0
            },
            {
                "start_time": 38.345454545454544,
                "end_time": 38.429545454545455,
                "pitch": 67,
                "velocity": 40,
                "duration": 0.08409090909091077,
                "tempo": 120.0
            },
            {
                "start_time": 38.429545454545455,
                "end_time": 38.527272727272724,
                "pitch": 69,
                "velocity": 40,
                "duration": 0.09772727272726911,
                "tempo": 120.0
            },
            {
                "start_time": 38.529545454545456,
                "end_time": 38.845454545454544,
                "pitch": 71,
                "velocity": 40,
                "duration": 0.3159090909090878,
                "tempo": 120.0
            },
            {
                "start_time": 38.84772727272727,
                "end_time": 39.059090909090905,
                "pitch": 69,
                "velocity": 40,
                "duration": 0.21136363636363598,
                "tempo": 120.0
            },
            {
                "start_time": 39.059090909090905,
                "end_time": 39.18863636363636,
                "pitch": 67,
                "velocity": 40,
                "duration": 0.12954545454545752,
                "tempo": 120.0
            },
            {
                "start_time": 38.345454545454544,
                "end_time": 39.18863636363636,
                "pitch": 79,
                "velocity": 40,
                "duration": 0.8431818181818187,
                "tempo": 120.0
            },
            {
                "start_time": 39.18863636363636,
                "end_time": 39.27045454545454,
                "pitch": 67,
                "velocity": 40,
                "duration": 0.08181818181817846,
                "tempo": 120.0
            },
            {
                "start_time": 39.27272727272727,
                "end_time": 39.38636363636363,
                "pitch": 69,
                "velocity": 40,
                "duration": 0.11363636363635976,
                "tempo": 120.0
            },
            {
                "start_time": 39.38863636363636,
                "end_time": 40.33863636363636,
                "pitch": 66,
                "velocity": 40,
                "duration": 0.9500000000000028,
                "tempo": 120.0
            },
            {
                "start_time": 40.768181818181816,
                "end_time": 40.89772727272727,
                "pitch": 67,
                "velocity": 40,
                "duration": 0.12954545454545752,
                "tempo": 120.0
            },
            {
                "start_time": 39.18863636363636,
                "end_time": 40.89772727272727,
                "pitch": 79,
                "velocity": 40,
                "duration": 1.7090909090909108,
                "tempo": 120.0
            },
            {
                "start_time": 40.89772727272727,
                "end_time": 41.163636363636364,
                "pitch": 67,
                "velocity": 40,
                "duration": 0.26590909090909065,
                "tempo": 120.0
            },
            {
                "start_time": 40.89772727272727,
                "end_time": 41.163636363636364,
                "pitch": 79,
                "velocity": 40,
                "duration": 0.26590909090909065,
                "tempo": 120.0
            },
            {
                "start_time": 41.163636363636364,
                "end_time": 41.19772727272727,
                "pitch": 67,
                "velocity": 40,
                "duration": 0.03409090909090651,
                "tempo": 120.0
            },
            {
                "start_time": 41.19772727272727,
                "end_time": 41.29772727272727,
                "pitch": 64,
                "velocity": 40,
                "duration": 0.10000000000000142,
                "tempo": 120.0
            },
            {
                "start_time": 41.29772727272727,
                "end_time": 41.413636363636364,
                "pitch": 66,
                "velocity": 40,
                "duration": 0.11590909090909207,
                "tempo": 120.0
            },
            {
                "start_time": 41.41590909090909,
                "end_time": 41.63636363636363,
                "pitch": 59,
                "velocity": 40,
                "duration": 0.2204545454545439,
                "tempo": 120.0
            },
            {
                "start_time": 41.63636363636363,
                "end_time": 41.73863636363636,
                "pitch": 64,
                "velocity": 40,
                "duration": 0.10227272727272663,
                "tempo": 120.0
            },
            {
                "start_time": 41.73863636363636,
                "end_time": 41.95227272727273,
                "pitch": 59,
                "velocity": 40,
                "duration": 0.2136363636363683,
                "tempo": 120.0
            },
            {
                "start_time": 41.95227272727273,
                "end_time": 42.04772727272727,
                "pitch": 64,
                "velocity": 40,
                "duration": 0.0954545454545439,
                "tempo": 120.0
            },
            {
                "start_time": 42.15909090909091,
                "end_time": 42.25454545454545,
                "pitch": 59,
                "velocity": 40,
                "duration": 0.0954545454545439,
                "tempo": 120.0
            },
            {
                "start_time": 42.25454545454545,
                "end_time": 42.37272727272727,
                "pitch": 64,
                "velocity": 40,
                "duration": 0.11818181818181728,
                "tempo": 120.0
            },
            {
                "start_time": 42.37272727272727,
                "end_time": 42.475,
                "pitch": 66,
                "velocity": 40,
                "duration": 0.10227272727273373,
                "tempo": 120.0
            },
            {
                "start_time": 42.475,
                "end_time": 42.57727272727273,
                "pitch": 67,
                "velocity": 40,
                "duration": 0.10227272727272663,
                "tempo": 120.0
            },
            {
                "start_time": 42.57727272727273,
                "end_time": 42.69772727272727,
                "pitch": 66,
                "velocity": 40,
                "duration": 0.12045454545454248,
                "tempo": 120.0
            },
            {
                "start_time": 42.69772727272727,
                "end_time": 42.79545454545455,
                "pitch": 64,
                "velocity": 40,
                "duration": 0.09772727272727622,
                "tempo": 120.0
            },
            {
                "start_time": 42.79545454545455,
                "end_time": 42.90909090909091,
                "pitch": 62,
                "velocity": 40,
                "duration": 0.11363636363635976,
                "tempo": 120.0
            },
            {
                "start_time": 42.90909090909091,
                "end_time": 43.00681818181818,
                "pitch": 66,
                "velocity": 40,
                "duration": 0.09772727272727622,
                "tempo": 120.0
            },
            {
                "start_time": 43.00681818181818,
                "end_time": 43.12272727272727,
                "pitch": 67,
                "velocity": 40,
                "duration": 0.11590909090908497,
                "tempo": 120.0
            },
            {
                "start_time": 43.12272727272727,
                "end_time": 43.324999999999996,
                "pitch": 66,
                "velocity": 40,
                "duration": 0.20227272727272805,
                "tempo": 120.0
            },
            {
                "start_time": 43.32727272727273,
                "end_time": 43.445454545454545,
                "pitch": 64,
                "velocity": 40,
                "duration": 0.11818181818181728,
                "tempo": 120.0
            },
            {
                "start_time": 43.445454545454545,
                "end_time": 43.65909090909091,
                "pitch": 62,
                "velocity": 40,
                "duration": 0.21363636363636118,
                "tempo": 120.0
            },
            {
                "start_time": 43.65909090909091,
                "end_time": 44.18181818181818,
                "pitch": 64,
                "velocity": 40,
                "duration": 0.5227272727272734,
                "tempo": 120.0
            },
            {
                "start_time": 44.61590909090909,
                "end_time": 44.71363636363636,
                "pitch": 64,
                "velocity": 40,
                "duration": 0.09772727272726911,
                "tempo": 120.0
            },
            {
                "start_time": 44.71363636363636,
                "end_time": 44.81136363636364,
                "pitch": 66,
                "velocity": 40,
                "duration": 0.09772727272727622,
                "tempo": 120.0
            },
            {
                "start_time": 35.57727272727273,
                "end_time": 44.94318181818181,
                "pitch": 60,
                "velocity": 40,
                "duration": 9.365909090909085,
                "tempo": 120.0
            },
            {
                "start_time": 44.81363636363636,
                "end_time": 44.94318181818181,
                "pitch": 60,
                "velocity": 40,
                "duration": 0.1295454545454504,
                "tempo": 120.0
            },
            {
                "start_time": 44.94318181818181,
                "end_time": 45.02272727272727,
                "pitch": 60,
                "velocity": 40,
                "duration": 0.07954545454546036,
                "tempo": 120.0
            },
            {
                "start_time": 45.025,
                "end_time": 45.13863636363636,
                "pitch": 64,
                "velocity": 40,
                "duration": 0.11363636363635976,
                "tempo": 120.0
            },
            {
                "start_time": 45.13863636363636,
                "end_time": 45.27045454545454,
                "pitch": 60,
                "velocity": 40,
                "duration": 0.13181818181818272,
                "tempo": 120.0
            },
            {
                "start_time": 45.27045454545454,
                "end_time": 45.35227272727273,
                "pitch": 60,
                "velocity": 40,
                "duration": 0.08181818181818556,
                "tempo": 120.0
            },
            {
                "start_time": 45.35454545454545,
                "end_time": 45.45454545454545,
                "pitch": 64,
                "velocity": 40,
                "duration": 0.10000000000000142,
                "tempo": 120.0
            },
            {
                "start_time": 45.554545454545455,
                "end_time": 45.67045454545455,
                "pitch": 60,
                "velocity": 40,
                "duration": 0.11590909090909207,
                "tempo": 120.0
            },
            {
                "start_time": 45.67272727272727,
                "end_time": 45.77272727272727,
                "pitch": 64,
                "velocity": 40,
                "duration": 0.10000000000000142,
                "tempo": 120.0
            },
            {
                "start_time": 45.77272727272727,
                "end_time": 45.893181818181816,
                "pitch": 66,
                "velocity": 40,
                "duration": 0.12045454545454248,
                "tempo": 120.0
            },
            {
                "start_time": 45.893181818181816,
                "end_time": 45.99318181818182,
                "pitch": 67,
                "velocity": 40,
                "duration": 0.10000000000000142,
                "tempo": 120.0
            },
            {
                "start_time": 45.99545454545454,
                "end_time": 46.11363636363636,
                "pitch": 69,
                "velocity": 40,
                "duration": 0.11818181818181728,
                "tempo": 120.0
            },
            {
                "start_time": 46.11590909090909,
                "end_time": 46.21363636363636,
                "pitch": 71,
                "velocity": 40,
                "duration": 0.09772727272726911,
                "tempo": 120.0
            },
            {
                "start_time": 46.21363636363636,
                "end_time": 46.31363636363636,
                "pitch": 67,
                "velocity": 40,
                "duration": 0.10000000000000142,
                "tempo": 120.0
            },
            {
                "start_time": 46.31590909090909,
                "end_time": 46.429545454545455,
                "pitch": 71,
                "velocity": 40,
                "duration": 0.11363636363636687,
                "tempo": 120.0
            },
            {
                "start_time": 46.43181818181818,
                "end_time": 46.53181818181818,
                "pitch": 72,
                "velocity": 40,
                "duration": 0.10000000000000142,
                "tempo": 120.0
            },
            {
                "start_time": 46.53181818181818,
                "end_time": 46.736363636363635,
                "pitch": 71,
                "velocity": 40,
                "duration": 0.20454545454545325,
                "tempo": 120.0
            },
            {
                "start_time": 46.73863636363636,
                "end_time": 46.849999999999994,
                "pitch": 69,
                "velocity": 40,
                "duration": 0.11136363636363455,
                "tempo": 120.0
            },
            {
                "start_time": 46.849999999999994,
                "end_time": 46.97727272727273,
                "pitch": 67,
                "velocity": 40,
                "duration": 0.1272727272727323,
                "tempo": 120.0
            },
            {
                "start_time": 41.163636363636364,
                "end_time": 46.97727272727273,
                "pitch": 79,
                "velocity": 40,
                "duration": 5.813636363636363,
                "tempo": 120.0
            },
            {
                "start_time": 46.97727272727273,
                "end_time": 47.04545454545454,
                "pitch": 67,
                "velocity": 40,
                "duration": 0.06818181818181301,
                "tempo": 120.0
            },
            {
                "start_time": 47.04545454545454,
                "end_time": 47.60454545454545,
                "pitch": 69,
                "velocity": 40,
                "duration": 0.5590909090909122,
                "tempo": 120.0
            },
            {
                "start_time": 48.01136363636363,
                "end_time": 48.10681818181818,
                "pitch": 64,
                "velocity": 40,
                "duration": 0.0954545454545439,
                "tempo": 120.0
            },
            {
                "start_time": 48.10681818181818,
                "end_time": 48.21818181818182,
                "pitch": 66,
                "velocity": 40,
                "duration": 0.11136363636364166,
                "tempo": 120.0
            },
            {
                "start_time": 48.21818181818182,
                "end_time": 48.43863636363636,
                "pitch": 59,
                "velocity": 40,
                "duration": 0.2204545454545439,
                "tempo": 120.0
            },
            {
                "start_time": 48.43863636363636,
                "end_time": 48.54090909090909,
                "pitch": 64,
                "velocity": 40,
                "duration": 0.10227272727272663,
                "tempo": 120.0
            },
            {
                "start_time": 48.543181818181814,
                "end_time": 48.75454545454545,
                "pitch": 59,
                "velocity": 40,
                "duration": 0.21136363636363598,
                "tempo": 120.0
            },
            {
                "start_time": 48.75454545454545,
                "end_time": 48.849999999999994,
                "pitch": 64,
                "velocity": 40,
                "duration": 0.0954545454545439,
                "tempo": 120.0
            },
            {
                "start_time": 48.961363636363636,
                "end_time": 49.05681818181818,
                "pitch": 59,
                "velocity": 40,
                "duration": 0.0954545454545439,
                "tempo": 120.0
            },
            {
                "start_time": 49.05681818181818,
                "end_time": 49.175,
                "pitch": 64,
                "velocity": 40,
                "duration": 0.11818181818181728,
                "tempo": 120.0
            },
            {
                "start_time": 49.17727272727272,
                "end_time": 49.277272727272724,
                "pitch": 66,
                "velocity": 40,
                "duration": 0.10000000000000142,
                "tempo": 120.0
            },
            {
                "start_time": 49.27954545454545,
                "end_time": 49.37954545454545,
                "pitch": 67,
                "velocity": 40,
                "duration": 0.10000000000000142,
                "tempo": 120.0
            },
            {
                "start_time": 49.38181818181818,
                "end_time": 49.5,
                "pitch": 66,
                "velocity": 40,
                "duration": 0.11818181818181728,
                "tempo": 120.0
            },
            {
                "start_time": 49.5,
                "end_time": 49.59772727272727,
                "pitch": 64,
                "velocity": 40,
                "duration": 0.09772727272726911,
                "tempo": 120.0
            },
            {
                "start_time": 49.59772727272727,
                "end_time": 49.711363636363636,
                "pitch": 62,
                "velocity": 40,
                "duration": 0.11363636363636687,
                "tempo": 120.0
            },
            {
                "start_time": 49.71363636363636,
                "end_time": 49.809090909090905,
                "pitch": 66,
                "velocity": 40,
                "duration": 0.0954545454545439,
                "tempo": 120.0
            },
            {
                "start_time": 49.81136363636364,
                "end_time": 49.925,
                "pitch": 67,
                "velocity": 40,
                "duration": 0.11363636363635976,
                "tempo": 120.0
            },
            {
                "start_time": 49.925,
                "end_time": 50.127272727272725,
                "pitch": 66,
                "velocity": 40,
                "duration": 0.20227272727272805,
                "tempo": 120.0
            },
            {
                "start_time": 50.12954545454545,
                "end_time": 50.24772727272727,
                "pitch": 64,
                "velocity": 40,
                "duration": 0.11818181818181728,
                "tempo": 120.0
            },
            {
                "start_time": 50.25,
                "end_time": 50.461363636363636,
                "pitch": 62,
                "velocity": 40,
                "duration": 0.21136363636363598,
                "tempo": 120.0
            },
            {
                "start_time": 50.461363636363636,
                "end_time": 50.98409090909091,
                "pitch": 64,
                "velocity": 40,
                "duration": 0.5227272727272734,
                "tempo": 120.0
            },
            {
                "start_time": 51.425,
                "end_time": 51.52272727272727,
                "pitch": 64,
                "velocity": 40,
                "duration": 0.09772727272727622,
                "tempo": 120.0
            },
            {
                "start_time": 51.525,
                "end_time": 51.62272727272727,
                "pitch": 66,
                "velocity": 40,
                "duration": 0.09772727272726911,
                "tempo": 120.0
            },
            {
                "start_time": 51.625,
                "end_time": 51.75454545454545,
                "pitch": 60,
                "velocity": 40,
                "duration": 0.1295454545454504,
                "tempo": 120.0
            },
            {
                "start_time": 51.75454545454545,
                "end_time": 51.836363636363636,
                "pitch": 60,
                "velocity": 40,
                "duration": 0.08181818181818556,
                "tempo": 120.0
            },
            {
                "start_time": 51.836363636363636,
                "end_time": 51.949999999999996,
                "pitch": 64,
                "velocity": 40,
                "duration": 0.11363636363635976,
                "tempo": 120.0
            },
            {
                "start_time": 51.75454545454545,
                "end_time": 52.08181818181818,
                "pitch": 48,
                "velocity": 40,
                "duration": 0.32727272727272805,
                "tempo": 120.0
            },
            {
                "start_time": 51.95227272727273,
                "end_time": 52.08181818181818,
                "pitch": 60,
                "velocity": 40,
                "duration": 0.1295454545454504,
                "tempo": 120.0
            },
            {
                "start_time": 52.08181818181818,
                "end_time": 52.16590909090909,
                "pitch": 60,
                "velocity": 40,
                "duration": 0.08409090909091077,
                "tempo": 120.0
            },
            {
                "start_time": 52.16590909090909,
                "end_time": 52.26590909090909,
                "pitch": 64,
                "velocity": 40,
                "duration": 0.10000000000000142,
                "tempo": 120.0
            },
            {
                "start_time": 52.365909090909085,
                "end_time": 52.48181818181818,
                "pitch": 60,
                "velocity": 40,
                "duration": 0.11590909090909207,
                "tempo": 120.0
            },
            {
                "start_time": 52.48409090909091,
                "end_time": 52.58181818181818,
                "pitch": 64,
                "velocity": 40,
                "duration": 0.09772727272726911,
                "tempo": 120.0
            },
            {
                "start_time": 52.584090909090904,
                "end_time": 52.699999999999996,
                "pitch": 66,
                "velocity": 40,
                "duration": 0.11590909090909207,
                "tempo": 120.0
            },
            {
                "start_time": 52.699999999999996,
                "end_time": 52.8,
                "pitch": 67,
                "velocity": 40,
                "duration": 0.10000000000000142,
                "tempo": 120.0
            },
            {
                "start_time": 52.8,
                "end_time": 52.91590909090909,
                "pitch": 69,
                "velocity": 40,
                "duration": 0.11590909090909207,
                "tempo": 120.0
            },
            {
                "start_time": 52.918181818181814,
                "end_time": 53.01590909090909,
                "pitch": 71,
                "velocity": 40,
                "duration": 0.09772727272727622,
                "tempo": 120.0
            },
            {
                "start_time": 53.018181818181816,
                "end_time": 53.115909090909085,
                "pitch": 67,
                "velocity": 40,
                "duration": 0.09772727272726911,
                "tempo": 120.0
            },
            {
                "start_time": 53.11818181818182,
                "end_time": 53.23409090909091,
                "pitch": 71,
                "velocity": 40,
                "duration": 0.11590909090909207,
                "tempo": 120.0
            },
            {
                "start_time": 53.23409090909091,
                "end_time": 53.334090909090904,
                "pitch": 72,
                "velocity": 40,
                "duration": 0.09999999999999432,
                "tempo": 120.0
            },
            {
                "start_time": 53.334090909090904,
                "end_time": 53.54545454545454,
                "pitch": 71,
                "velocity": 40,
                "duration": 0.21136363636363598,
                "tempo": 120.0
            },
            {
                "start_time": 53.54772727272727,
                "end_time": 53.66136363636363,
                "pitch": 69,
                "velocity": 40,
                "duration": 0.11363636363635976,
                "tempo": 120.0
            },
            {
                "start_time": 53.66136363636363,
                "end_time": 53.79090909090909,
                "pitch": 67,
                "velocity": 40,
                "duration": 0.12954545454545752,
                "tempo": 120.0
            },
            {
                "start_time": 46.97727272727273,
                "end_time": 53.79090909090909,
                "pitch": 79,
                "velocity": 40,
                "duration": 6.813636363636363,
                "tempo": 120.0
            },
            {
                "start_time": 53.79090909090909,
                "end_time": 53.85909090909091,
                "pitch": 67,
                "velocity": 40,
                "duration": 0.06818181818182012,
                "tempo": 120.0
            },
            {
                "start_time": 53.85909090909091,
                "end_time": 54.40909090909091,
                "pitch": 69,
                "velocity": 40,
                "duration": 0.5499999999999972,
                "tempo": 120.0
            },
            {
                "start_time": 54.81590909090909,
                "end_time": 54.94318181818181,
                "pitch": 67,
                "velocity": 40,
                "duration": 0.1272727272727252,
                "tempo": 120.0
            },
            {
                "start_time": 53.79090909090909,
                "end_time": 54.94318181818181,
                "pitch": 79,
                "velocity": 40,
                "duration": 1.1522727272727238,
                "tempo": 120.0
            },
            {
                "start_time": 54.94318181818181,
                "end_time": 55.02272727272727,
                "pitch": 67,
                "velocity": 40,
                "duration": 0.07954545454546036,
                "tempo": 120.0
            },
            {
                "start_time": 55.02272727272727,
                "end_time": 55.24318181818182,
                "pitch": 64,
                "velocity": 40,
                "duration": 0.2204545454545439,
                "tempo": 120.0
            },
            {
                "start_time": 55.24545454545454,
                "end_time": 55.465909090909086,
                "pitch": 66,
                "velocity": 40,
                "duration": 0.2204545454545439,
                "tempo": 120.0
            },
            {
                "start_time": 55.465909090909086,
                "end_time": 55.56590909090909,
                "pitch": 76,
                "velocity": 40,
                "duration": 0.10000000000000142,
                "tempo": 120.0
            },
            {
                "start_time": 55.56590909090909,
                "end_time": 55.9,
                "pitch": 74,
                "velocity": 40,
                "duration": 0.33409090909091077,
                "tempo": 120.0
            },
            {
                "start_time": 55.9,
                "end_time": 56.03409090909091,
                "pitch": 72,
                "velocity": 40,
                "duration": 0.13409090909090793,
                "tempo": 120.0
            },
            {
                "start_time": 56.03409090909091,
                "end_time": 56.099999999999994,
                "pitch": 72,
                "velocity": 40,
                "duration": 0.06590909090908781,
                "tempo": 120.0
            },
            {
                "start_time": 56.099999999999994,
                "end_time": 56.31590909090909,
                "pitch": 71,
                "velocity": 40,
                "duration": 0.2159090909090935,
                "tempo": 120.0
            },
            {
                "start_time": 56.31818181818181,
                "end_time": 56.43181818181818,
                "pitch": 69,
                "velocity": 40,
                "duration": 0.11363636363636687,
                "tempo": 120.0
            },
            {
                "start_time": 56.43181818181818,
                "end_time": 57.393181818181816,
                "pitch": 71,
                "velocity": 40,
                "duration": 0.961363636363636,
                "tempo": 120.0
            },
            {
                "start_time": 57.80681818181818,
                "end_time": 58.018181818181816,
                "pitch": 71,
                "velocity": 40,
                "duration": 0.21136363636363598,
                "tempo": 120.0
            },
            {
                "start_time": 58.018181818181816,
                "end_time": 58.23409090909091,
                "pitch": 69,
                "velocity": 40,
                "duration": 0.2159090909090935,
                "tempo": 120.0
            },
            {
                "start_time": 58.236363636363635,
                "end_time": 58.45227272727272,
                "pitch": 64,
                "velocity": 40,
                "duration": 0.2159090909090864,
                "tempo": 120.0
            },
            {
                "start_time": 58.45227272727272,
                "end_time": 58.668181818181814,
                "pitch": 66,
                "velocity": 40,
                "duration": 0.2159090909090935,
                "tempo": 120.0
            },
            {
                "start_time": 58.668181818181814,
                "end_time": 58.80227272727272,
                "pitch": 67,
                "velocity": 40,
                "duration": 0.13409090909090793,
                "tempo": 120.0
            },
            {
                "start_time": 54.94318181818181,
                "end_time": 58.80227272727272,
                "pitch": 79,
                "velocity": 40,
                "duration": 3.8590909090909093,
                "tempo": 120.0
            },
            {
                "start_time": 58.80227272727272,
                "end_time": 58.88636363636363,
                "pitch": 67,
                "velocity": 40,
                "duration": 0.08409090909091077,
                "tempo": 120.0
            },
            {
                "start_time": 58.88636363636363,
                "end_time": 58.986363636363635,
                "pitch": 69,
                "velocity": 40,
                "duration": 0.10000000000000142,
                "tempo": 120.0
            },
            {
                "start_time": 58.986363636363635,
                "end_time": 59.30227272727272,
                "pitch": 71,
                "velocity": 40,
                "duration": 0.3159090909090878,
                "tempo": 120.0
            },
            {
                "start_time": 59.304545454545455,
                "end_time": 59.51590909090909,
                "pitch": 69,
                "velocity": 40,
                "duration": 0.21136363636363598,
                "tempo": 120.0
            },
            {
                "start_time": 59.51590909090909,
                "end_time": 59.64545454545454,
                "pitch": 67,
                "velocity": 40,
                "duration": 0.1295454545454504,
                "tempo": 120.0
            },
            {
                "start_time": 58.80227272727272,
                "end_time": 59.64545454545454,
                "pitch": 79,
                "velocity": 40,
                "duration": 0.8431818181818187,
                "tempo": 120.0
            },
            {
                "start_time": 59.64545454545454,
                "end_time": 59.72727272727273,
                "pitch": 67,
                "velocity": 40,
                "duration": 0.08181818181818556,
                "tempo": 120.0
            },
            {
                "start_time": 59.72727272727273,
                "end_time": 59.82727272727272,
                "pitch": 69,
                "velocity": 40,
                "duration": 0.09999999999999432,
                "tempo": 120.0
            },
            {
                "start_time": 59.82727272727272,
                "end_time": 60.79090909090909,
                "pitch": 66,
                "velocity": 40,
                "duration": 0.9636363636363683,
                "tempo": 120.0
            },
            {
                "start_time": 61.65454545454545,
                "end_time": 61.788636363636364,
                "pitch": 67,
                "velocity": 40,
                "duration": 0.13409090909091503,
                "tempo": 120.0
            },
            {
                "start_time": 59.64545454545454,
                "end_time": 61.788636363636364,
                "pitch": 79,
                "velocity": 40,
                "duration": 2.143181818181823,
                "tempo": 120.0
            },
            {
                "start_time": 61.788636363636364,
                "end_time": 61.87045454545454,
                "pitch": 67,
                "velocity": 40,
                "duration": 0.08181818181817846,
                "tempo": 120.0
            },
            {
                "start_time": 61.87272727272727,
                "end_time": 62.074999999999996,
                "pitch": 64,
                "velocity": 40,
                "duration": 0.20227272727272805,
                "tempo": 120.0
            },
            {
                "start_time": 62.07727272727272,
                "end_time": 62.29772727272727,
                "pitch": 66,
                "velocity": 40,
                "duration": 0.220454545454551,
                "tempo": 120.0
            },
            {
                "start_time": 62.29772727272727,
                "end_time": 62.40909090909091,
                "pitch": 76,
                "velocity": 40,
                "duration": 0.11136363636363455,
                "tempo": 120.0
            },
            {
                "start_time": 62.40909090909091,
                "end_time": 62.711363636363636,
                "pitch": 74,
                "velocity": 40,
                "duration": 0.30227272727272947,
                "tempo": 120.0
            },
            {
                "start_time": 56.03409090909091,
                "end_time": 62.84772727272727,
                "pitch": 60,
                "velocity": 40,
                "duration": 6.813636363636363,
                "tempo": 120.0
            },
            {
                "start_time": 62.711363636363636,
                "end_time": 62.84772727272727,
                "pitch": 72,
                "velocity": 40,
                "duration": 0.13636363636363313,
                "tempo": 120.0
            },
            {
                "start_time": 62.84772727272727,
                "end_time": 62.93181818181818,
                "pitch": 72,
                "velocity": 40,
                "duration": 0.08409090909091077,
                "tempo": 120.0
            },
            {
                "start_time": 62.93181818181818,
                "end_time": 63.15454545454545,
                "pitch": 71,
                "velocity": 40,
                "duration": 0.2227272727272691,
                "tempo": 120.0
            },
            {
                "start_time": 63.15454545454545,
                "end_time": 63.25454545454545,
                "pitch": 69,
                "velocity": 40,
                "duration": 0.10000000000000142,
                "tempo": 120.0
            },
            {
                "start_time": 63.25454545454545,
                "end_time": 64.2,
                "pitch": 71,
                "velocity": 40,
                "duration": 0.9454545454545524,
                "tempo": 120.0
            },
            {
                "start_time": 64.64090909090909,
                "end_time": 64.86136363636363,
                "pitch": 71,
                "velocity": 40,
                "duration": 0.2204545454545439,
                "tempo": 120.0
            },
            {
                "start_time": 64.86363636363636,
                "end_time": 65.06136363636364,
                "pitch": 69,
                "velocity": 40,
                "duration": 0.19772727272727764,
                "tempo": 120.0
            },
            {
                "start_time": 65.06363636363636,
                "end_time": 65.27954545454546,
                "pitch": 64,
                "velocity": 40,
                "duration": 0.2159090909090935,
                "tempo": 120.0
            },
            {
                "start_time": 65.27954545454546,
                "end_time": 65.49090909090908,
                "pitch": 66,
                "velocity": 40,
                "duration": 0.21136363636362887,
                "tempo": 120.0
            },
            {
                "start_time": 65.49090909090908,
                "end_time": 65.62272727272727,
                "pitch": 67,
                "velocity": 40,
                "duration": 0.13181818181818983,
                "tempo": 120.0
            },
            {
                "start_time": 61.788636363636364,
                "end_time": 65.62272727272727,
                "pitch": 79,
                "velocity": 40,
                "duration": 3.8340909090909108,
                "tempo": 120.0
            },
            {
                "start_time": 65.62272727272727,
                "end_time": 65.70454545454545,
                "pitch": 67,
                "velocity": 40,
                "duration": 0.08181818181817846,
                "tempo": 120.0
            },
            {
                "start_time": 65.70454545454545,
                "end_time": 65.80227272727272,
                "pitch": 69,
                "velocity": 40,
                "duration": 0.09772727272726911,
                "tempo": 120.0
            },
            {
                "start_time": 65.80454545454545,
                "end_time": 66.13636363636364,
                "pitch": 71,
                "velocity": 40,
                "duration": 0.33181818181819267,
                "tempo": 120.0
            },
            {
                "start_time": 66.13863636363637,
                "end_time": 66.35454545454544,
                "pitch": 69,
                "velocity": 40,
                "duration": 0.21590909090907928,
                "tempo": 120.0
            },
            {
                "start_time": 66.35454545454544,
                "end_time": 66.48863636363636,
                "pitch": 67,
                "velocity": 40,
                "duration": 0.13409090909091503,
                "tempo": 120.0
            },
            {
                "start_time": 65.62272727272727,
                "end_time": 66.48863636363636,
                "pitch": 79,
                "velocity": 40,
                "duration": 0.865909090909085,
                "tempo": 120.0
            },
            {
                "start_time": 66.48863636363636,
                "end_time": 66.55454545454545,
                "pitch": 67,
                "velocity": 40,
                "duration": 0.06590909090908781,
                "tempo": 120.0
            },
            {
                "start_time": 66.55454545454545,
                "end_time": 66.66590909090908,
                "pitch": 69,
                "velocity": 40,
                "duration": 0.11136363636363455,
                "tempo": 120.0
            },
            {
                "start_time": 66.66590909090908,
                "end_time": 67.62727272727273,
                "pitch": 66,
                "velocity": 40,
                "duration": 0.9613636363636431,
                "tempo": 120.0
            },
            {
                "start_time": 67.62954545454545,
                "end_time": 67.72727272727272,
                "pitch": 64,
                "velocity": 40,
                "duration": 0.09772727272726911,
                "tempo": 120.0
            },
            {
                "start_time": 62.84772727272727,
                "end_time": 67.84545454545454,
                "pitch": 60,
                "velocity": 40,
                "duration": 4.997727272727275,
                "tempo": 120.0
            },
            {
                "start_time": 67.72954545454544,
                "end_time": 67.84545454545454,
                "pitch": 60,
                "velocity": 40,
                "duration": 0.11590909090909918,
                "tempo": 120.0
            },
            {
                "start_time": 67.84545454545454,
                "end_time": 68.04545454545455,
                "pitch": 64,
                "velocity": 40,
                "duration": 0.20000000000000284,
                "tempo": 120.0
            },
            {
                "start_time": 68.04545454545455,
                "end_time": 68.16136363636363,
                "pitch": 62,
                "velocity": 40,
                "duration": 0.11590909090908497,
                "tempo": 120.0
            },
            {
                "start_time": 68.16136363636363,
                "end_time": 68.26136363636363,
                "pitch": 59,
                "velocity": 40,
                "duration": 0.09999999999999432,
                "tempo": 120.0
            }
        ],
        "Acoustic Bass": [
            {
                "start_time": 0.045454545454545456,
                "end_time": 0.19545454545454544,
                "pitch": 33,
                "velocity": 80,
                "duration": 0.14999999999999997,
                "tempo": 120.0
            },
            {
                "start_time": 0.26136363636363635,
                "end_time": 0.4113636363636363,
                "pitch": 33,
                "velocity": 80,
                "duration": 0.14999999999999997,
                "tempo": 120.0
            },
            {
                "start_time": 0.5818181818181818,
                "end_time": 0.734090909090909,
                "pitch": 45,
                "velocity": 80,
                "duration": 0.15227272727272723,
                "tempo": 120.0
            },
            {
                "start_time": 0.8022727272727272,
                "end_time": 0.8704545454545454,
                "pitch": 43,
                "velocity": 80,
                "duration": 0.06818181818181812,
                "tempo": 120.0
            },
            {
                "start_time": 0.9045454545454545,
                "end_time": 1.15,
                "pitch": 33,
                "velocity": 80,
                "duration": 0.24545454545454537,
                "tempo": 120.0
            },
            {
                "start_time": 1.2318181818181817,
                "end_time": 1.2977272727272726,
                "pitch": 33,
                "velocity": 80,
                "duration": 0.06590909090909092,
                "tempo": 120.0
            },
            {
                "start_time": 1.3295454545454546,
                "end_time": 1.4795454545454545,
                "pitch": 31,
                "velocity": 80,
                "duration": 0.1499999999999999,
                "tempo": 120.0
            },
            {
                "start_time": 1.5477272727272726,
                "end_time": 1.6954545454545453,
                "pitch": 36,
                "velocity": 80,
                "duration": 0.1477272727272727,
                "tempo": 120.0
            },
            {
                "start_time": 1.9818181818181817,
                "end_time": 2.1295454545454544,
                "pitch": 33,
                "velocity": 80,
                "duration": 0.1477272727272727,
                "tempo": 120.0
            },
            {
                "start_time": 2.2977272727272724,
                "end_time": 2.4477272727272728,
                "pitch": 45,
                "velocity": 80,
                "duration": 0.15000000000000036,
                "tempo": 120.0
            },
            {
                "start_time": 2.5159090909090907,
                "end_time": 2.5818181818181816,
                "pitch": 43,
                "velocity": 80,
                "duration": 0.06590909090909092,
                "tempo": 120.0
            },
            {
                "start_time": 2.6159090909090907,
                "end_time": 2.859090909090909,
                "pitch": 33,
                "velocity": 80,
                "duration": 0.24318181818181817,
                "tempo": 120.0
            },
            {
                "start_time": 2.943181818181818,
                "end_time": 3.006818181818182,
                "pitch": 33,
                "velocity": 80,
                "duration": 0.06363636363636394,
                "tempo": 120.0
            },
            {
                "start_time": 3.0409090909090906,
                "end_time": 3.1886363636363635,
                "pitch": 31,
                "velocity": 80,
                "duration": 0.14772727272727293,
                "tempo": 120.0
            },
            {
                "start_time": 3.256818181818182,
                "end_time": 3.4068181818181817,
                "pitch": 36,
                "velocity": 80,
                "duration": 0.1499999999999999,
                "tempo": 120.0
            },
            {
                "start_time": 3.4749999999999996,
                "end_time": 3.6227272727272726,
                "pitch": 33,
                "velocity": 80,
                "duration": 0.14772727272727293,
                "tempo": 120.0
            },
            {
                "start_time": 3.690909090909091,
                "end_time": 3.840909090909091,
                "pitch": 33,
                "velocity": 80,
                "duration": 0.1499999999999999,
                "tempo": 120.0
            },
            {
                "start_time": 4.006818181818182,
                "end_time": 4.152272727272727,
                "pitch": 45,
                "velocity": 80,
                "duration": 0.1454545454545455,
                "tempo": 120.0
            },
            {
                "start_time": 4.218181818181818,
                "end_time": 4.281818181818181,
                "pitch": 43,
                "velocity": 80,
                "duration": 0.06363636363636349,
                "tempo": 120.0
            },
            {
                "start_time": 4.3159090909090905,
                "end_time": 4.547727272727273,
                "pitch": 33,
                "velocity": 80,
                "duration": 0.23181818181818237,
                "tempo": 120.0
            },
            {
                "start_time": 4.634090909090909,
                "end_time": 4.715909090909091,
                "pitch": 33,
                "velocity": 80,
                "duration": 0.08181818181818201,
                "tempo": 120.0
            },
            {
                "start_time": 4.75,
                "end_time": 4.8999999999999995,
                "pitch": 31,
                "velocity": 80,
                "duration": 0.14999999999999947,
                "tempo": 120.0
            },
            {
                "start_time": 4.968181818181818,
                "end_time": 5.11590909090909,
                "pitch": 36,
                "velocity": 80,
                "duration": 0.14772727272727249,
                "tempo": 120.0
            },
            {
                "start_time": 5.388636363636364,
                "end_time": 5.540909090909091,
                "pitch": 33,
                "velocity": 80,
                "duration": 0.15227272727272734,
                "tempo": 120.0
            },
            {
                "start_time": 5.720454545454545,
                "end_time": 5.863636363636363,
                "pitch": 45,
                "velocity": 80,
                "duration": 0.14318181818181852,
                "tempo": 120.0
            },
            {
                "start_time": 5.927272727272727,
                "end_time": 5.99090909090909,
                "pitch": 43,
                "velocity": 80,
                "duration": 0.06363636363636349,
                "tempo": 120.0
            },
            {
                "start_time": 6.0227272727272725,
                "end_time": 6.256818181818182,
                "pitch": 33,
                "velocity": 80,
                "duration": 0.23409090909090935,
                "tempo": 120.0
            },
            {
                "start_time": 6.340909090909091,
                "end_time": 6.422727272727273,
                "pitch": 33,
                "velocity": 80,
                "duration": 0.08181818181818201,
                "tempo": 120.0
            },
            {
                "start_time": 6.456818181818181,
                "end_time": 6.6068181818181815,
                "pitch": 31,
                "velocity": 80,
                "duration": 0.15000000000000036,
                "tempo": 120.0
            },
            {
                "start_time": 6.675,
                "end_time": 6.822727272727272,
                "pitch": 36,
                "velocity": 80,
                "duration": 0.14772727272727249,
                "tempo": 120.0
            },
            {
                "start_time": 6.875,
                "end_time": 7.0204545454545455,
                "pitch": 33,
                "velocity": 80,
                "duration": 0.1454545454545455,
                "tempo": 120.0
            },
            {
                "start_time": 7.086363636363636,
                "end_time": 7.2340909090909085,
                "pitch": 33,
                "velocity": 80,
                "duration": 0.14772727272727249,
                "tempo": 120.0
            },
            {
                "start_time": 7.41590909090909,
                "end_time": 7.5659090909090905,
                "pitch": 45,
                "velocity": 80,
                "duration": 0.15000000000000036,
                "tempo": 120.0
            },
            {
                "start_time": 7.61590909090909,
                "end_time": 7.699999999999999,
                "pitch": 43,
                "velocity": 80,
                "duration": 0.084090909090909,
                "tempo": 120.0
            },
            {
                "start_time": 7.7340909090909085,
                "end_time": 7.965909090909091,
                "pitch": 33,
                "velocity": 80,
                "duration": 0.23181818181818237,
                "tempo": 120.0
            },
            {
                "start_time": 8.049999999999999,
                "end_time": 8.131818181818181,
                "pitch": 33,
                "velocity": 80,
                "duration": 0.08181818181818201,
                "tempo": 120.0
            },
            {
                "start_time": 8.168181818181818,
                "end_time": 8.320454545454545,
                "pitch": 31,
                "velocity": 80,
                "duration": 0.15227272727272734,
                "tempo": 120.0
            },
            {
                "start_time": 8.372727272727273,
                "end_time": 8.525,
                "pitch": 36,
                "velocity": 80,
                "duration": 0.15227272727272734,
                "tempo": 120.0
            },
            {
                "start_time": 8.806818181818182,
                "end_time": 8.952272727272726,
                "pitch": 33,
                "velocity": 80,
                "duration": 0.14545454545454461,
                "tempo": 120.0
            },
            {
                "start_time": 9.118181818181817,
                "end_time": 9.268181818181818,
                "pitch": 45,
                "velocity": 80,
                "duration": 0.15000000000000036,
                "tempo": 120.0
            },
            {
                "start_time": 9.336363636363636,
                "end_time": 9.418181818181818,
                "pitch": 43,
                "velocity": 80,
                "duration": 0.08181818181818201,
                "tempo": 120.0
            },
            {
                "start_time": 9.452272727272726,
                "end_time": 9.684090909090909,
                "pitch": 33,
                "velocity": 80,
                "duration": 0.23181818181818237,
                "tempo": 120.0
            },
            {
                "start_time": 9.770454545454545,
                "end_time": 9.836363636363636,
                "pitch": 33,
                "velocity": 80,
                "duration": 0.06590909090909136,
                "tempo": 120.0
            },
            {
                "start_time": 9.870454545454544,
                "end_time": 10.011363636363637,
                "pitch": 31,
                "velocity": 80,
                "duration": 0.14090909090909243,
                "tempo": 120.0
            },
            {
                "start_time": 10.077272727272726,
                "end_time": 10.218181818181817,
                "pitch": 36,
                "velocity": 80,
                "duration": 0.14090909090909065,
                "tempo": 120.0
            },
            {
                "start_time": 10.284090909090908,
                "end_time": 10.431818181818182,
                "pitch": 33,
                "velocity": 80,
                "duration": 0.14772727272727337,
                "tempo": 120.0
            },
            {
                "start_time": 10.5,
                "end_time": 10.65,
                "pitch": 33,
                "velocity": 80,
                "duration": 0.15000000000000036,
                "tempo": 120.0
            },
            {
                "start_time": 10.818181818181818,
                "end_time": 10.970454545454546,
                "pitch": 45,
                "velocity": 80,
                "duration": 0.15227272727272734,
                "tempo": 120.0
            },
            {
                "start_time": 11.040909090909091,
                "end_time": 11.125,
                "pitch": 43,
                "velocity": 80,
                "duration": 0.084090909090909,
                "tempo": 120.0
            },
            {
                "start_time": 11.161363636363635,
                "end_time": 11.393181818181818,
                "pitch": 33,
                "velocity": 80,
                "duration": 0.23181818181818237,
                "tempo": 120.0
            },
            {
                "start_time": 11.477272727272727,
                "end_time": 11.543181818181818,
                "pitch": 33,
                "velocity": 80,
                "duration": 0.06590909090909136,
                "tempo": 120.0
            },
            {
                "start_time": 11.577272727272726,
                "end_time": 11.720454545454546,
                "pitch": 31,
                "velocity": 80,
                "duration": 0.1431818181818194,
                "tempo": 120.0
            },
            {
                "start_time": 11.784090909090908,
                "end_time": 11.924999999999999,
                "pitch": 36,
                "velocity": 80,
                "duration": 0.14090909090909065,
                "tempo": 120.0
            },
            {
                "start_time": 12.211363636363636,
                "end_time": 12.363636363636363,
                "pitch": 33,
                "velocity": 80,
                "duration": 0.15227272727272734,
                "tempo": 120.0
            },
            {
                "start_time": 12.534090909090908,
                "end_time": 12.684090909090909,
                "pitch": 45,
                "velocity": 80,
                "duration": 0.15000000000000036,
                "tempo": 120.0
            },
            {
                "start_time": 12.75,
                "end_time": 12.81590909090909,
                "pitch": 43,
                "velocity": 80,
                "duration": 0.06590909090908958,
                "tempo": 120.0
            },
            {
                "start_time": 12.85,
                "end_time": 13.088636363636363,
                "pitch": 33,
                "velocity": 80,
                "duration": 0.2386363636363633,
                "tempo": 120.0
            },
            {
                "start_time": 13.168181818181818,
                "end_time": 13.23181818181818,
                "pitch": 33,
                "velocity": 80,
                "duration": 0.0636363636363626,
                "tempo": 120.0
            },
            {
                "start_time": 13.263636363636364,
                "end_time": 13.415909090909091,
                "pitch": 31,
                "velocity": 80,
                "duration": 0.15227272727272734,
                "tempo": 120.0
            },
            {
                "start_time": 13.486363636363636,
                "end_time": 13.638636363636364,
                "pitch": 36,
                "velocity": 80,
                "duration": 0.15227272727272734,
                "tempo": 120.0
            },
            {
                "start_time": 13.706818181818182,
                "end_time": 13.85681818181818,
                "pitch": 40,
                "velocity": 80,
                "duration": 0.14999999999999858,
                "tempo": 120.0
            },
            {
                "start_time": 13.924999999999999,
                "end_time": 14.072727272727272,
                "pitch": 40,
                "velocity": 80,
                "duration": 0.14772727272727337,
                "tempo": 120.0
            },
            {
                "start_time": 14.24090909090909,
                "end_time": 14.39090909090909,
                "pitch": 52,
                "velocity": 80,
                "duration": 0.15000000000000036,
                "tempo": 120.0
            },
            {
                "start_time": 14.459090909090909,
                "end_time": 14.522727272727272,
                "pitch": 40,
                "velocity": 80,
                "duration": 0.0636363636363626,
                "tempo": 120.0
            },
            {
                "start_time": 14.559090909090909,
                "end_time": 14.802272727272726,
                "pitch": 40,
                "velocity": 80,
                "duration": 0.24318181818181728,
                "tempo": 120.0
            },
            {
                "start_time": 14.884090909090908,
                "end_time": 14.95,
                "pitch": 40,
                "velocity": 80,
                "duration": 0.06590909090909136,
                "tempo": 120.0
            },
            {
                "start_time": 14.984090909090908,
                "end_time": 15.131818181818181,
                "pitch": 38,
                "velocity": 80,
                "duration": 0.14772727272727337,
                "tempo": 120.0
            },
            {
                "start_time": 15.2,
                "end_time": 15.35,
                "pitch": 43,
                "velocity": 80,
                "duration": 0.15000000000000036,
                "tempo": 120.0
            },
            {
                "start_time": 15.418181818181818,
                "end_time": 15.56590909090909,
                "pitch": 36,
                "velocity": 80,
                "duration": 0.1477272727272716,
                "tempo": 120.0
            },
            {
                "start_time": 15.634090909090908,
                "end_time": 15.784090909090908,
                "pitch": 36,
                "velocity": 80,
                "duration": 0.15000000000000036,
                "tempo": 120.0
            },
            {
                "start_time": 15.947727272727272,
                "end_time": 16.095454545454544,
                "pitch": 48,
                "velocity": 80,
                "duration": 0.1477272727272716,
                "tempo": 120.0
            },
            {
                "start_time": 16.161363636363635,
                "end_time": 16.224999999999998,
                "pitch": 36,
                "velocity": 80,
                "duration": 0.0636363636363626,
                "tempo": 120.0
            },
            {
                "start_time": 16.259090909090908,
                "end_time": 16.40909090909091,
                "pitch": 36,
                "velocity": 80,
                "duration": 0.15000000000000213,
                "tempo": 120.0
            },
            {
                "start_time": 16.474999999999998,
                "end_time": 16.625,
                "pitch": 48,
                "velocity": 80,
                "duration": 0.15000000000000213,
                "tempo": 120.0
            },
            {
                "start_time": 16.693181818181817,
                "end_time": 16.84090909090909,
                "pitch": 35,
                "velocity": 80,
                "duration": 0.14772727272727337,
                "tempo": 120.0
            },
            {
                "start_time": 16.909090909090907,
                "end_time": 17.05909090909091,
                "pitch": 47,
                "velocity": 80,
                "duration": 0.15000000000000213,
                "tempo": 120.0
            },
            {
                "start_time": 17.127272727272725,
                "end_time": 17.275,
                "pitch": 33,
                "velocity": 80,
                "duration": 0.14772727272727337,
                "tempo": 120.0
            },
            {
                "start_time": 17.327272727272728,
                "end_time": 17.477272727272727,
                "pitch": 33,
                "velocity": 80,
                "duration": 0.14999999999999858,
                "tempo": 120.0
            },
            {
                "start_time": 17.659090909090907,
                "end_time": 17.804545454545455,
                "pitch": 45,
                "velocity": 80,
                "duration": 0.14545454545454817,
                "tempo": 120.0
            },
            {
                "start_time": 17.870454545454546,
                "end_time": 17.93409090909091,
                "pitch": 33,
                "velocity": 80,
                "duration": 0.0636363636363626,
                "tempo": 120.0
            },
            {
                "start_time": 17.96818181818182,
                "end_time": 18.202272727272728,
                "pitch": 33,
                "velocity": 80,
                "duration": 0.23409090909090935,
                "tempo": 120.0
            },
            {
                "start_time": 18.286363636363635,
                "end_time": 18.368181818181817,
                "pitch": 33,
                "velocity": 80,
                "duration": 0.08181818181818201,
                "tempo": 120.0
            },
            {
                "start_time": 18.402272727272727,
                "end_time": 18.552272727272726,
                "pitch": 33,
                "velocity": 80,
                "duration": 0.14999999999999858,
                "tempo": 120.0
            },
            {
                "start_time": 18.618181818181817,
                "end_time": 18.768181818181816,
                "pitch": 45,
                "velocity": 80,
                "duration": 0.14999999999999858,
                "tempo": 120.0
            },
            {
                "start_time": 18.820454545454545,
                "end_time": 18.96590909090909,
                "pitch": 31,
                "velocity": 80,
                "duration": 0.14545454545454461,
                "tempo": 120.0
            },
            {
                "start_time": 19.03181818181818,
                "end_time": 19.177272727272726,
                "pitch": 31,
                "velocity": 80,
                "duration": 0.14545454545454461,
                "tempo": 120.0
            },
            {
                "start_time": 19.361363636363635,
                "end_time": 19.511363636363637,
                "pitch": 43,
                "velocity": 80,
                "duration": 0.15000000000000213,
                "tempo": 120.0
            },
            {
                "start_time": 19.561363636363634,
                "end_time": 19.643181818181816,
                "pitch": 31,
                "velocity": 80,
                "duration": 0.08181818181818201,
                "tempo": 120.0
            },
            {
                "start_time": 19.679545454545455,
                "end_time": 19.827272727272728,
                "pitch": 30,
                "velocity": 80,
                "duration": 0.14772727272727337,
                "tempo": 120.0
            },
            {
                "start_time": 19.895454545454545,
                "end_time": 20.045454545454543,
                "pitch": 42,
                "velocity": 80,
                "duration": 0.14999999999999858,
                "tempo": 120.0
            },
            {
                "start_time": 20.111363636363635,
                "end_time": 20.26590909090909,
                "pitch": 29,
                "velocity": 80,
                "duration": 0.1545454545454561,
                "tempo": 120.0
            },
            {
                "start_time": 20.31590909090909,
                "end_time": 20.470454545454544,
                "pitch": 41,
                "velocity": 80,
                "duration": 0.15454545454545254,
                "tempo": 120.0
            },
            {
                "start_time": 20.538636363636364,
                "end_time": 20.68181818181818,
                "pitch": 40,
                "velocity": 80,
                "duration": 0.14318181818181586,
                "tempo": 120.0
            },
            {
                "start_time": 20.745454545454546,
                "end_time": 20.886363636363637,
                "pitch": 40,
                "velocity": 80,
                "duration": 0.14090909090909065,
                "tempo": 120.0
            },
            {
                "start_time": 21.052272727272726,
                "end_time": 21.202272727272724,
                "pitch": 52,
                "velocity": 80,
                "duration": 0.14999999999999858,
                "tempo": 120.0
            },
            {
                "start_time": 21.268181818181816,
                "end_time": 21.334090909090907,
                "pitch": 40,
                "velocity": 80,
                "duration": 0.06590909090909136,
                "tempo": 120.0
            },
            {
                "start_time": 21.370454545454546,
                "end_time": 21.613636363636363,
                "pitch": 40,
                "velocity": 80,
                "duration": 0.24318181818181728,
                "tempo": 120.0
            },
            {
                "start_time": 21.695454545454545,
                "end_time": 21.761363636363637,
                "pitch": 40,
                "velocity": 80,
                "duration": 0.06590909090909136,
                "tempo": 120.0
            },
            {
                "start_time": 21.795454545454543,
                "end_time": 21.943181818181817,
                "pitch": 38,
                "velocity": 80,
                "duration": 0.14772727272727337,
                "tempo": 120.0
            },
            {
                "start_time": 22.011363636363637,
                "end_time": 22.159090909090907,
                "pitch": 43,
                "velocity": 80,
                "duration": 0.14772727272726982,
                "tempo": 120.0
            },
            {
                "start_time": 22.227272727272727,
                "end_time": 22.377272727272725,
                "pitch": 36,
                "velocity": 80,
                "duration": 0.14999999999999858,
                "tempo": 120.0
            },
            {
                "start_time": 22.445454545454545,
                "end_time": 22.59318181818182,
                "pitch": 36,
                "velocity": 80,
                "duration": 0.14772727272727337,
                "tempo": 120.0
            },
            {
                "start_time": 22.759090909090908,
                "end_time": 22.904545454545453,
                "pitch": 48,
                "velocity": 80,
                "duration": 0.14545454545454461,
                "tempo": 120.0
            },
            {
                "start_time": 22.972727272727273,
                "end_time": 23.036363636363635,
                "pitch": 36,
                "velocity": 80,
                "duration": 0.0636363636363626,
                "tempo": 120.0
            },
            {
                "start_time": 23.070454545454545,
                "end_time": 23.21818181818182,
                "pitch": 36,
                "velocity": 80,
                "duration": 0.14772727272727337,
                "tempo": 120.0
            },
            {
                "start_time": 23.286363636363635,
                "end_time": 23.436363636363634,
                "pitch": 48,
                "velocity": 80,
                "duration": 0.14999999999999858,
                "tempo": 120.0
            },
            {
                "start_time": 23.504545454545454,
                "end_time": 23.652272727272727,
                "pitch": 35,
                "velocity": 80,
                "duration": 0.14772727272727337,
                "tempo": 120.0
            },
            {
                "start_time": 23.720454545454544,
                "end_time": 23.870454545454546,
                "pitch": 47,
                "velocity": 80,
                "duration": 0.15000000000000213,
                "tempo": 120.0
            },
            {
                "start_time": 23.938636363636363,
                "end_time": 24.086363636363636,
                "pitch": 33,
                "velocity": 80,
                "duration": 0.14772727272727337,
                "tempo": 120.0
            },
            {
                "start_time": 24.138636363636362,
                "end_time": 24.286363636363635,
                "pitch": 33,
                "velocity": 80,
                "duration": 0.14772727272727337,
                "tempo": 120.0
            },
            {
                "start_time": 24.470454545454544,
                "end_time": 24.61590909090909,
                "pitch": 45,
                "velocity": 80,
                "duration": 0.14545454545454461,
                "tempo": 120.0
            },
            {
                "start_time": 24.68181818181818,
                "end_time": 24.745454545454542,
                "pitch": 33,
                "velocity": 80,
                "duration": 0.0636363636363626,
                "tempo": 120.0
            },
            {
                "start_time": 24.779545454545453,
                "end_time": 25.011363636363637,
                "pitch": 33,
                "velocity": 80,
                "duration": 0.23181818181818414,
                "tempo": 120.0
            },
            {
                "start_time": 25.097727272727273,
                "end_time": 25.179545454545455,
                "pitch": 33,
                "velocity": 80,
                "duration": 0.08181818181818201,
                "tempo": 120.0
            },
            {
                "start_time": 25.21363636363636,
                "end_time": 25.36590909090909,
                "pitch": 33,
                "velocity": 80,
                "duration": 0.15227272727272734,
                "tempo": 120.0
            },
            {
                "start_time": 25.43409090909091,
                "end_time": 25.58863636363636,
                "pitch": 45,
                "velocity": 80,
                "duration": 0.15454545454545254,
                "tempo": 120.0
            },
            {
                "start_time": 25.64090909090909,
                "end_time": 25.78181818181818,
                "pitch": 31,
                "velocity": 80,
                "duration": 0.14090909090909065,
                "tempo": 120.0
            },
            {
                "start_time": 25.847727272727273,
                "end_time": 25.988636363636363,
                "pitch": 31,
                "velocity": 80,
                "duration": 0.14090909090909065,
                "tempo": 120.0
            },
            {
                "start_time": 26.170454545454543,
                "end_time": 26.318181818181817,
                "pitch": 43,
                "velocity": 80,
                "duration": 0.14772727272727337,
                "tempo": 120.0
            },
            {
                "start_time": 26.370454545454542,
                "end_time": 26.452272727272724,
                "pitch": 31,
                "velocity": 80,
                "duration": 0.08181818181818201,
                "tempo": 120.0
            },
            {
                "start_time": 26.486363636363635,
                "end_time": 26.636363636363637,
                "pitch": 30,
                "velocity": 80,
                "duration": 0.15000000000000213,
                "tempo": 120.0
            },
            {
                "start_time": 26.704545454545453,
                "end_time": 26.852272727272727,
                "pitch": 42,
                "velocity": 80,
                "duration": 0.14772727272727337,
                "tempo": 120.0
            },
            {
                "start_time": 26.920454545454543,
                "end_time": 27.07272727272727,
                "pitch": 29,
                "velocity": 80,
                "duration": 0.15227272727272734,
                "tempo": 120.0
            },
            {
                "start_time": 27.125,
                "end_time": 27.277272727272727,
                "pitch": 41,
                "velocity": 80,
                "duration": 0.15227272727272734,
                "tempo": 120.0
            },
            {
                "start_time": 27.347727272727273,
                "end_time": 27.488636363636363,
                "pitch": 36,
                "velocity": 80,
                "duration": 0.14090909090909065,
                "tempo": 120.0
            },
            {
                "start_time": 27.554545454545455,
                "end_time": 27.695454545454545,
                "pitch": 36,
                "velocity": 80,
                "duration": 0.14090909090909065,
                "tempo": 120.0
            },
            {
                "start_time": 27.861363636363635,
                "end_time": 28.01590909090909,
                "pitch": 48,
                "velocity": 80,
                "duration": 0.1545454545454561,
                "tempo": 120.0
            },
            {
                "start_time": 28.084090909090907,
                "end_time": 28.168181818181818,
                "pitch": 36,
                "velocity": 80,
                "duration": 0.08409090909091077,
                "tempo": 120.0
            },
            {
                "start_time": 28.204545454545453,
                "end_time": 28.502272727272725,
                "pitch": 35,
                "velocity": 80,
                "duration": 0.29772727272727195,
                "tempo": 120.0
            },
            {
                "start_time": 28.620454545454542,
                "end_time": 28.920454545454543,
                "pitch": 39,
                "velocity": 80,
                "duration": 0.3000000000000007,
                "tempo": 120.0
            },
            {
                "start_time": 29.034090909090907,
                "end_time": 29.18409090909091,
                "pitch": 40,
                "velocity": 80,
                "duration": 0.15000000000000213,
                "tempo": 120.0
            },
            {
                "start_time": 29.25,
                "end_time": 29.4,
                "pitch": 40,
                "velocity": 80,
                "duration": 0.14999999999999858,
                "tempo": 120.0
            },
            {
                "start_time": 29.570454545454545,
                "end_time": 29.722727272727273,
                "pitch": 52,
                "velocity": 80,
                "duration": 0.15227272727272734,
                "tempo": 120.0
            },
            {
                "start_time": 29.79090909090909,
                "end_time": 29.875,
                "pitch": 51,
                "velocity": 80,
                "duration": 0.08409090909091077,
                "tempo": 120.0
            },
            {
                "start_time": 29.911363636363635,
                "end_time": 30.143181818181816,
                "pitch": 38,
                "velocity": 80,
                "duration": 0.2318181818181806,
                "tempo": 120.0
            },
            {
                "start_time": 30.227272727272727,
                "end_time": 30.293181818181818,
                "pitch": 38,
                "velocity": 80,
                "duration": 0.06590909090909136,
                "tempo": 120.0
            },
            {
                "start_time": 30.327272727272724,
                "end_time": 30.470454545454544,
                "pitch": 50,
                "velocity": 80,
                "duration": 0.1431818181818194,
                "tempo": 120.0
            },
            {
                "start_time": 30.534090909090907,
                "end_time": 30.677272727272726,
                "pitch": 38,
                "velocity": 80,
                "duration": 0.1431818181818194,
                "tempo": 120.0
            },
            {
                "start_time": 30.74090909090909,
                "end_time": 30.893181818181816,
                "pitch": 37,
                "velocity": 80,
                "duration": 0.15227272727272734,
                "tempo": 120.0
            },
            {
                "start_time": 30.96363636363636,
                "end_time": 31.11590909090909,
                "pitch": 37,
                "velocity": 80,
                "duration": 0.15227272727272734,
                "tempo": 120.0
            },
            {
                "start_time": 31.284090909090907,
                "end_time": 31.43409090909091,
                "pitch": 49,
                "velocity": 80,
                "duration": 0.15000000000000213,
                "tempo": 120.0
            },
            {
                "start_time": 31.502272727272725,
                "end_time": 31.568181818181817,
                "pitch": 37,
                "velocity": 80,
                "duration": 0.06590909090909136,
                "tempo": 120.0
            },
            {
                "start_time": 31.602272727272727,
                "end_time": 31.845454545454544,
                "pitch": 36,
                "velocity": 80,
                "duration": 0.24318181818181728,
                "tempo": 120.0
            },
            {
                "start_time": 31.927272727272726,
                "end_time": 31.993181818181817,
                "pitch": 36,
                "velocity": 80,
                "duration": 0.06590909090909136,
                "tempo": 120.0
            },
            {
                "start_time": 32.027272727272724,
                "end_time": 32.175,
                "pitch": 48,
                "velocity": 80,
                "duration": 0.14772727272727337,
                "tempo": 120.0
            },
            {
                "start_time": 32.24318181818182,
                "end_time": 32.393181818181816,
                "pitch": 36,
                "velocity": 80,
                "duration": 0.14999999999999858,
                "tempo": 120.0
            },
            {
                "start_time": 32.461363636363636,
                "end_time": 32.60909090909091,
                "pitch": 35,
                "velocity": 80,
                "duration": 0.14772727272727337,
                "tempo": 120.0
            },
            {
                "start_time": 32.67727272727272,
                "end_time": 32.82727272727273,
                "pitch": 35,
                "velocity": 80,
                "duration": 0.15000000000000568,
                "tempo": 120.0
            },
            {
                "start_time": 32.99318181818182,
                "end_time": 33.143181818181816,
                "pitch": 47,
                "velocity": 80,
                "duration": 0.14999999999999858,
                "tempo": 120.0
            },
            {
                "start_time": 33.211363636363636,
                "end_time": 33.277272727272724,
                "pitch": 35,
                "velocity": 80,
                "duration": 0.06590909090908781,
                "tempo": 120.0
            },
            {
                "start_time": 33.31136363636364,
                "end_time": 33.45454545454545,
                "pitch": 36,
                "velocity": 80,
                "duration": 0.14318181818181586,
                "tempo": 120.0
            },
            {
                "start_time": 33.518181818181816,
                "end_time": 33.65909090909091,
                "pitch": 48,
                "velocity": 80,
                "duration": 0.14090909090909065,
                "tempo": 120.0
            },
            {
                "start_time": 33.725,
                "end_time": 33.877272727272725,
                "pitch": 35,
                "velocity": 80,
                "duration": 0.15227272727272378,
                "tempo": 120.0
            },
            {
                "start_time": 33.945454545454545,
                "end_time": 34.09772727272727,
                "pitch": 47,
                "velocity": 80,
                "duration": 0.15227272727272378,
                "tempo": 120.0
            },
            {
                "start_time": 34.168181818181814,
                "end_time": 34.31818181818181,
                "pitch": 36,
                "velocity": 80,
                "duration": 0.14999999999999858,
                "tempo": 120.0
            },
            {
                "start_time": 34.38409090909091,
                "end_time": 34.53409090909091,
                "pitch": 36,
                "velocity": 80,
                "duration": 0.14999999999999858,
                "tempo": 120.0
            },
            {
                "start_time": 34.699999999999996,
                "end_time": 34.845454545454544,
                "pitch": 48,
                "velocity": 80,
                "duration": 0.14545454545454817,
                "tempo": 120.0
            },
            {
                "start_time": 34.91136363636363,
                "end_time": 34.97727272727273,
                "pitch": 36,
                "velocity": 80,
                "duration": 0.06590909090909491,
                "tempo": 120.0
            },
            {
                "start_time": 35.01136363636363,
                "end_time": 35.32727272727273,
                "pitch": 35,
                "velocity": 80,
                "duration": 0.3159090909090949,
                "tempo": 120.0
            },
            {
                "start_time": 35.445454545454545,
                "end_time": 35.75909090909091,
                "pitch": 39,
                "velocity": 80,
                "duration": 0.3136363636363626,
                "tempo": 120.0
            },
            {
                "start_time": 35.877272727272725,
                "end_time": 36.027272727272724,
                "pitch": 40,
                "velocity": 80,
                "duration": 0.14999999999999858,
                "tempo": 120.0
            },
            {
                "start_time": 36.07727272727273,
                "end_time": 36.22727272727273,
                "pitch": 40,
                "velocity": 80,
                "duration": 0.14999999999999858,
                "tempo": 120.0
            },
            {
                "start_time": 36.40909090909091,
                "end_time": 36.554545454545455,
                "pitch": 52,
                "velocity": 80,
                "duration": 0.14545454545454817,
                "tempo": 120.0
            },
            {
                "start_time": 36.62045454545454,
                "end_time": 36.68636363636364,
                "pitch": 51,
                "velocity": 80,
                "duration": 0.06590909090909491,
                "tempo": 120.0
            },
            {
                "start_time": 36.720454545454544,
                "end_time": 36.95227272727273,
                "pitch": 38,
                "velocity": 80,
                "duration": 0.23181818181818414,
                "tempo": 120.0
            },
            {
                "start_time": 37.03636363636363,
                "end_time": 37.12045454545454,
                "pitch": 38,
                "velocity": 80,
                "duration": 0.08409090909091077,
                "tempo": 120.0
            },
            {
                "start_time": 37.154545454545456,
                "end_time": 37.30227272727272,
                "pitch": 50,
                "velocity": 80,
                "duration": 0.14772727272726627,
                "tempo": 120.0
            },
            {
                "start_time": 37.37045454545454,
                "end_time": 37.52045454545454,
                "pitch": 38,
                "velocity": 80,
                "duration": 0.14999999999999858,
                "tempo": 120.0
            },
            {
                "start_time": 37.570454545454545,
                "end_time": 37.715909090909086,
                "pitch": 37,
                "velocity": 80,
                "duration": 0.14545454545454106,
                "tempo": 120.0
            },
            {
                "start_time": 37.78409090909091,
                "end_time": 37.929545454545455,
                "pitch": 37,
                "velocity": 80,
                "duration": 0.14545454545454817,
                "tempo": 120.0
            },
            {
                "start_time": 38.111363636363635,
                "end_time": 38.26136363636363,
                "pitch": 49,
                "velocity": 80,
                "duration": 0.14999999999999858,
                "tempo": 120.0
            },
            {
                "start_time": 38.31363636363636,
                "end_time": 38.39545454545454,
                "pitch": 37,
                "velocity": 80,
                "duration": 0.08181818181817846,
                "tempo": 120.0
            },
            {
                "start_time": 38.429545454545455,
                "end_time": 38.66136363636363,
                "pitch": 36,
                "velocity": 80,
                "duration": 0.23181818181817704,
                "tempo": 120.0
            },
            {
                "start_time": 38.74545454545454,
                "end_time": 38.82954545454545,
                "pitch": 36,
                "velocity": 80,
                "duration": 0.08409090909091077,
                "tempo": 120.0
            },
            {
                "start_time": 38.86363636363636,
                "end_time": 39.00909090909091,
                "pitch": 48,
                "velocity": 80,
                "duration": 0.14545454545454817,
                "tempo": 120.0
            },
            {
                "start_time": 39.059090909090905,
                "end_time": 39.20454545454545,
                "pitch": 36,
                "velocity": 80,
                "duration": 0.14545454545454817,
                "tempo": 120.0
            },
            {
                "start_time": 39.27272727272727,
                "end_time": 39.42045454545455,
                "pitch": 35,
                "velocity": 80,
                "duration": 0.14772727272727337,
                "tempo": 120.0
            },
            {
                "start_time": 39.48863636363636,
                "end_time": 39.63863636363636,
                "pitch": 35,
                "velocity": 80,
                "duration": 0.14999999999999858,
                "tempo": 120.0
            },
            {
                "start_time": 39.804545454545455,
                "end_time": 39.95454545454545,
                "pitch": 47,
                "velocity": 80,
                "duration": 0.14999999999999858,
                "tempo": 120.0
            },
            {
                "start_time": 40.02272727272727,
                "end_time": 40.10454545454545,
                "pitch": 35,
                "velocity": 80,
                "duration": 0.08181818181817846,
                "tempo": 120.0
            },
            {
                "start_time": 40.13863636363636,
                "end_time": 40.288636363636364,
                "pitch": 36,
                "velocity": 80,
                "duration": 0.15000000000000568,
                "tempo": 120.0
            },
            {
                "start_time": 40.35454545454545,
                "end_time": 40.50454545454545,
                "pitch": 48,
                "velocity": 80,
                "duration": 0.14999999999999858,
                "tempo": 120.0
            },
            {
                "start_time": 40.55681818181818,
                "end_time": 40.70227272727273,
                "pitch": 31,
                "velocity": 80,
                "duration": 0.14545454545454817,
                "tempo": 120.0
            },
            {
                "start_time": 40.768181818181816,
                "end_time": 40.91590909090909,
                "pitch": 43,
                "velocity": 80,
                "duration": 0.14772727272727337,
                "tempo": 120.0
            },
            {
                "start_time": 40.98181818181818,
                "end_time": 41.12954545454545,
                "pitch": 40,
                "velocity": 80,
                "duration": 0.14772727272727337,
                "tempo": 120.0
            },
            {
                "start_time": 41.19772727272727,
                "end_time": 41.34772727272727,
                "pitch": 40,
                "velocity": 80,
                "duration": 0.14999999999999858,
                "tempo": 120.0
            },
            {
                "start_time": 41.518181818181816,
                "end_time": 41.67045454545455,
                "pitch": 52,
                "velocity": 80,
                "duration": 0.1522727272727309,
                "tempo": 120.0
            },
            {
                "start_time": 41.73863636363636,
                "end_time": 41.82272727272727,
                "pitch": 40,
                "velocity": 80,
                "duration": 0.08409090909091077,
                "tempo": 120.0
            },
            {
                "start_time": 41.85681818181818,
                "end_time": 42.07954545454545,
                "pitch": 40,
                "velocity": 80,
                "duration": 0.22272727272727622,
                "tempo": 120.0
            },
            {
                "start_time": 42.15909090909091,
                "end_time": 42.22272727272727,
                "pitch": 40,
                "velocity": 80,
                "duration": 0.0636363636363626,
                "tempo": 120.0
            },
            {
                "start_time": 42.25454545454545,
                "end_time": 42.40681818181818,
                "pitch": 38,
                "velocity": 80,
                "duration": 0.1522727272727309,
                "tempo": 120.0
            },
            {
                "start_time": 42.475,
                "end_time": 42.62954545454545,
                "pitch": 43,
                "velocity": 80,
                "duration": 0.154545454545449,
                "tempo": 120.0
            },
            {
                "start_time": 42.69772727272727,
                "end_time": 42.84318181818182,
                "pitch": 36,
                "velocity": 80,
                "duration": 0.14545454545454817,
                "tempo": 120.0
            },
            {
                "start_time": 42.90909090909091,
                "end_time": 43.05681818181818,
                "pitch": 36,
                "velocity": 80,
                "duration": 0.14772727272727337,
                "tempo": 120.0
            },
            {
                "start_time": 43.225,
                "end_time": 43.377272727272725,
                "pitch": 48,
                "velocity": 80,
                "duration": 0.15227272727272378,
                "tempo": 120.0
            },
            {
                "start_time": 43.445454545454545,
                "end_time": 43.51363636363636,
                "pitch": 36,
                "velocity": 80,
                "duration": 0.06818181818181301,
                "tempo": 120.0
            },
            {
                "start_time": 43.54772727272727,
                "end_time": 43.69090909090909,
                "pitch": 36,
                "velocity": 80,
                "duration": 0.14318181818181586,
                "tempo": 120.0
            },
            {
                "start_time": 43.75454545454545,
                "end_time": 43.89772727272727,
                "pitch": 48,
                "velocity": 80,
                "duration": 0.14318181818182296,
                "tempo": 120.0
            },
            {
                "start_time": 43.961363636363636,
                "end_time": 44.11363636363636,
                "pitch": 35,
                "velocity": 80,
                "duration": 0.15227272727272378,
                "tempo": 120.0
            },
            {
                "start_time": 44.18181818181818,
                "end_time": 44.336363636363636,
                "pitch": 47,
                "velocity": 80,
                "duration": 0.1545454545454561,
                "tempo": 120.0
            },
            {
                "start_time": 44.40454545454545,
                "end_time": 44.55,
                "pitch": 33,
                "velocity": 80,
                "duration": 0.14545454545454817,
                "tempo": 120.0
            },
            {
                "start_time": 44.61590909090909,
                "end_time": 44.76363636363636,
                "pitch": 33,
                "velocity": 80,
                "duration": 0.14772727272726627,
                "tempo": 120.0
            },
            {
                "start_time": 44.92727272727272,
                "end_time": 45.07272727272727,
                "pitch": 45,
                "velocity": 80,
                "duration": 0.14545454545454817,
                "tempo": 120.0
            },
            {
                "start_time": 45.13863636363636,
                "end_time": 45.20454545454545,
                "pitch": 33,
                "velocity": 80,
                "duration": 0.06590909090909491,
                "tempo": 120.0
            },
            {
                "start_time": 45.23863636363636,
                "end_time": 45.486363636363635,
                "pitch": 33,
                "velocity": 80,
                "duration": 0.2477272727272748,
                "tempo": 120.0
            },
            {
                "start_time": 45.570454545454545,
                "end_time": 45.63636363636363,
                "pitch": 33,
                "velocity": 80,
                "duration": 0.06590909090908781,
                "tempo": 120.0
            },
            {
                "start_time": 45.67272727272727,
                "end_time": 45.824999999999996,
                "pitch": 33,
                "velocity": 80,
                "duration": 0.15227272727272378,
                "tempo": 120.0
            },
            {
                "start_time": 45.893181818181816,
                "end_time": 46.04545454545455,
                "pitch": 45,
                "velocity": 80,
                "duration": 0.1522727272727309,
                "tempo": 120.0
            },
            {
                "start_time": 46.11590909090909,
                "end_time": 46.26363636363636,
                "pitch": 31,
                "velocity": 80,
                "duration": 0.14772727272726627,
                "tempo": 120.0
            },
            {
                "start_time": 46.33181818181818,
                "end_time": 46.48181818181818,
                "pitch": 31,
                "velocity": 80,
                "duration": 0.14999999999999858,
                "tempo": 120.0
            },
            {
                "start_time": 46.643181818181816,
                "end_time": 46.78636363636363,
                "pitch": 43,
                "velocity": 80,
                "duration": 0.14318181818181586,
                "tempo": 120.0
            },
            {
                "start_time": 46.849999999999994,
                "end_time": 46.91136363636363,
                "pitch": 31,
                "velocity": 80,
                "duration": 0.0613636363636374,
                "tempo": 120.0
            },
            {
                "start_time": 46.945454545454545,
                "end_time": 47.09772727272727,
                "pitch": 30,
                "velocity": 80,
                "duration": 0.15227272727272378,
                "tempo": 120.0
            },
            {
                "start_time": 47.16590909090909,
                "end_time": 47.31818181818181,
                "pitch": 42,
                "velocity": 80,
                "duration": 0.15227272727272378,
                "tempo": 120.0
            },
            {
                "start_time": 47.38863636363636,
                "end_time": 47.538636363636364,
                "pitch": 29,
                "velocity": 80,
                "duration": 0.15000000000000568,
                "tempo": 120.0
            },
            {
                "start_time": 47.60454545454545,
                "end_time": 47.75454545454545,
                "pitch": 41,
                "velocity": 80,
                "duration": 0.14999999999999858,
                "tempo": 120.0
            },
            {
                "start_time": 47.820454545454545,
                "end_time": 47.96363636363636,
                "pitch": 40,
                "velocity": 80,
                "duration": 0.14318181818181586,
                "tempo": 120.0
            },
            {
                "start_time": 48.027272727272724,
                "end_time": 48.17045454545454,
                "pitch": 40,
                "velocity": 80,
                "duration": 0.14318181818181586,
                "tempo": 120.0
            },
            {
                "start_time": 48.336363636363636,
                "end_time": 48.49090909090909,
                "pitch": 52,
                "velocity": 80,
                "duration": 0.1545454545454561,
                "tempo": 120.0
            },
            {
                "start_time": 48.559090909090905,
                "end_time": 48.643181818181816,
                "pitch": 40,
                "velocity": 80,
                "duration": 0.08409090909091077,
                "tempo": 120.0
            },
            {
                "start_time": 48.675,
                "end_time": 48.89772727272727,
                "pitch": 40,
                "velocity": 80,
                "duration": 0.22272727272727622,
                "tempo": 120.0
            },
            {
                "start_time": 48.97727272727273,
                "end_time": 49.04090909090909,
                "pitch": 40,
                "velocity": 80,
                "duration": 0.0636363636363626,
                "tempo": 120.0
            },
            {
                "start_time": 49.074999999999996,
                "end_time": 49.22727272727273,
                "pitch": 38,
                "velocity": 80,
                "duration": 0.1522727272727309,
                "tempo": 120.0
            },
            {
                "start_time": 49.29545454545454,
                "end_time": 49.44772727272727,
                "pitch": 43,
                "velocity": 80,
                "duration": 0.1522727272727309,
                "tempo": 120.0
            },
            {
                "start_time": 49.51590909090909,
                "end_time": 49.663636363636364,
                "pitch": 36,
                "velocity": 80,
                "duration": 0.14772727272727337,
                "tempo": 120.0
            },
            {
                "start_time": 49.72727272727273,
                "end_time": 49.875,
                "pitch": 36,
                "velocity": 80,
                "duration": 0.14772727272727337,
                "tempo": 120.0
            },
            {
                "start_time": 50.043181818181814,
                "end_time": 50.19772727272727,
                "pitch": 48,
                "velocity": 80,
                "duration": 0.1545454545454561,
                "tempo": 120.0
            },
            {
                "start_time": 50.26590909090909,
                "end_time": 50.334090909090904,
                "pitch": 36,
                "velocity": 80,
                "duration": 0.06818181818181301,
                "tempo": 120.0
            },
            {
                "start_time": 50.365909090909085,
                "end_time": 50.50909090909091,
                "pitch": 36,
                "velocity": 80,
                "duration": 0.14318181818182296,
                "tempo": 120.0
            },
            {
                "start_time": 50.57272727272727,
                "end_time": 50.715909090909086,
                "pitch": 48,
                "velocity": 80,
                "duration": 0.14318181818181586,
                "tempo": 120.0
            },
            {
                "start_time": 50.78181818181818,
                "end_time": 50.934090909090905,
                "pitch": 35,
                "velocity": 80,
                "duration": 0.15227272727272378,
                "tempo": 120.0
            },
            {
                "start_time": 51.002272727272725,
                "end_time": 51.15454545454545,
                "pitch": 47,
                "velocity": 80,
                "duration": 0.15227272727272378,
                "tempo": 120.0
            },
            {
                "start_time": 51.224999999999994,
                "end_time": 51.37272727272727,
                "pitch": 33,
                "velocity": 80,
                "duration": 0.14772727272727337,
                "tempo": 120.0
            },
            {
                "start_time": 51.44090909090909,
                "end_time": 51.590909090909086,
                "pitch": 33,
                "velocity": 80,
                "duration": 0.14999999999999858,
                "tempo": 120.0
            },
            {
                "start_time": 51.75454545454545,
                "end_time": 51.902272727272724,
                "pitch": 45,
                "velocity": 80,
                "duration": 0.14772727272727337,
                "tempo": 120.0
            },
            {
                "start_time": 51.96818181818182,
                "end_time": 52.03181818181818,
                "pitch": 33,
                "velocity": 80,
                "duration": 0.0636363636363626,
                "tempo": 120.0
            },
            {
                "start_time": 52.06590909090909,
                "end_time": 52.31590909090909,
                "pitch": 33,
                "velocity": 80,
                "duration": 0.25,
                "tempo": 120.0
            },
            {
                "start_time": 52.4,
                "end_time": 52.465909090909086,
                "pitch": 33,
                "velocity": 80,
                "duration": 0.06590909090908781,
                "tempo": 120.0
            },
            {
                "start_time": 52.5,
                "end_time": 52.65,
                "pitch": 33,
                "velocity": 80,
                "duration": 0.14999999999999858,
                "tempo": 120.0
            },
            {
                "start_time": 52.715909090909086,
                "end_time": 52.865909090909085,
                "pitch": 45,
                "velocity": 80,
                "duration": 0.14999999999999858,
                "tempo": 120.0
            },
            {
                "start_time": 52.934090909090905,
                "end_time": 53.084090909090904,
                "pitch": 31,
                "velocity": 80,
                "duration": 0.14999999999999858,
                "tempo": 120.0
            },
            {
                "start_time": 53.15,
                "end_time": 53.3,
                "pitch": 31,
                "velocity": 80,
                "duration": 0.14999999999999858,
                "tempo": 120.0
            },
            {
                "start_time": 53.46363636363636,
                "end_time": 53.611363636363635,
                "pitch": 43,
                "velocity": 80,
                "duration": 0.14772727272727337,
                "tempo": 120.0
            },
            {
                "start_time": 53.67727272727272,
                "end_time": 53.74318181818182,
                "pitch": 31,
                "velocity": 80,
                "duration": 0.06590909090909491,
                "tempo": 120.0
            },
            {
                "start_time": 53.775,
                "end_time": 53.925,
                "pitch": 30,
                "velocity": 80,
                "duration": 0.14999999999999858,
                "tempo": 120.0
            },
            {
                "start_time": 53.99318181818182,
                "end_time": 54.143181818181816,
                "pitch": 42,
                "velocity": 80,
                "duration": 0.14999999999999858,
                "tempo": 120.0
            },
            {
                "start_time": 54.209090909090904,
                "end_time": 54.35909090909091,
                "pitch": 29,
                "velocity": 80,
                "duration": 0.15000000000000568,
                "tempo": 120.0
            },
            {
                "start_time": 54.42727272727272,
                "end_time": 54.57727272727273,
                "pitch": 41,
                "velocity": 80,
                "duration": 0.15000000000000568,
                "tempo": 120.0
            },
            {
                "start_time": 54.643181818181816,
                "end_time": 54.78409090909091,
                "pitch": 36,
                "velocity": 80,
                "duration": 0.14090909090909065,
                "tempo": 120.0
            },
            {
                "start_time": 54.83181818181818,
                "end_time": 54.974999999999994,
                "pitch": 36,
                "velocity": 80,
                "duration": 0.14318181818181586,
                "tempo": 120.0
            },
            {
                "start_time": 55.15909090909091,
                "end_time": 55.31136363636363,
                "pitch": 48,
                "velocity": 80,
                "duration": 0.15227272727272378,
                "tempo": 120.0
            },
            {
                "start_time": 55.381818181818176,
                "end_time": 55.449999999999996,
                "pitch": 36,
                "velocity": 80,
                "duration": 0.06818181818182012,
                "tempo": 120.0
            },
            {
                "start_time": 55.48409090909091,
                "end_time": 55.8,
                "pitch": 35,
                "velocity": 80,
                "duration": 0.3159090909090878,
                "tempo": 120.0
            },
            {
                "start_time": 55.918181818181814,
                "end_time": 56.21818181818182,
                "pitch": 39,
                "velocity": 80,
                "duration": 0.30000000000000426,
                "tempo": 120.0
            },
            {
                "start_time": 56.334090909090904,
                "end_time": 56.47954545454545,
                "pitch": 40,
                "velocity": 80,
                "duration": 0.14545454545454817,
                "tempo": 120.0
            },
            {
                "start_time": 56.54545454545454,
                "end_time": 56.69318181818181,
                "pitch": 40,
                "velocity": 80,
                "duration": 0.14772727272727337,
                "tempo": 120.0
            },
            {
                "start_time": 56.875,
                "end_time": 57.025,
                "pitch": 52,
                "velocity": 80,
                "duration": 0.14999999999999858,
                "tempo": 120.0
            },
            {
                "start_time": 57.074999999999996,
                "end_time": 57.15909090909091,
                "pitch": 51,
                "velocity": 80,
                "duration": 0.08409090909091077,
                "tempo": 120.0
            },
            {
                "start_time": 57.19318181818181,
                "end_time": 57.425,
                "pitch": 38,
                "velocity": 80,
                "duration": 0.23181818181818414,
                "tempo": 120.0
            },
            {
                "start_time": 57.50909090909091,
                "end_time": 57.57727272727272,
                "pitch": 38,
                "velocity": 80,
                "duration": 0.06818181818181301,
                "tempo": 120.0
            },
            {
                "start_time": 57.60909090909091,
                "end_time": 57.756818181818176,
                "pitch": 50,
                "velocity": 80,
                "duration": 0.14772727272726627,
                "tempo": 120.0
            },
            {
                "start_time": 57.82272727272727,
                "end_time": 57.96818181818182,
                "pitch": 38,
                "velocity": 80,
                "duration": 0.14545454545454817,
                "tempo": 120.0
            },
            {
                "start_time": 58.03409090909091,
                "end_time": 58.184090909090905,
                "pitch": 37,
                "velocity": 80,
                "duration": 0.14999999999999858,
                "tempo": 120.0
            },
            {
                "start_time": 58.252272727272725,
                "end_time": 58.402272727272724,
                "pitch": 37,
                "velocity": 80,
                "duration": 0.14999999999999858,
                "tempo": 120.0
            },
            {
                "start_time": 58.56818181818181,
                "end_time": 58.71818181818182,
                "pitch": 49,
                "velocity": 80,
                "duration": 0.15000000000000568,
                "tempo": 120.0
            },
            {
                "start_time": 58.78636363636363,
                "end_time": 58.86818181818182,
                "pitch": 37,
                "velocity": 80,
                "duration": 0.08181818181818556,
                "tempo": 120.0
            },
            {
                "start_time": 58.902272727272724,
                "end_time": 59.13636363636363,
                "pitch": 36,
                "velocity": 80,
                "duration": 0.23409090909090935,
                "tempo": 120.0
            },
            {
                "start_time": 59.220454545454544,
                "end_time": 59.28636363636363,
                "pitch": 36,
                "velocity": 80,
                "duration": 0.06590909090908781,
                "tempo": 120.0
            },
            {
                "start_time": 59.320454545454545,
                "end_time": 59.465909090909086,
                "pitch": 48,
                "velocity": 80,
                "duration": 0.14545454545454106,
                "tempo": 120.0
            },
            {
                "start_time": 59.53181818181818,
                "end_time": 59.679545454545455,
                "pitch": 36,
                "velocity": 80,
                "duration": 0.14772727272727337,
                "tempo": 120.0
            },
            {
                "start_time": 59.74545454545454,
                "end_time": 59.89545454545454,
                "pitch": 35,
                "velocity": 80,
                "duration": 0.14999999999999858,
                "tempo": 120.0
            },
            {
                "start_time": 59.961363636363636,
                "end_time": 60.111363636363635,
                "pitch": 35,
                "velocity": 80,
                "duration": 0.14999999999999858,
                "tempo": 120.0
            },
            {
                "start_time": 60.27954545454545,
                "end_time": 60.429545454545455,
                "pitch": 47,
                "velocity": 80,
                "duration": 0.15000000000000568,
                "tempo": 120.0
            },
            {
                "start_time": 60.49545454545454,
                "end_time": 60.56136363636363,
                "pitch": 35,
                "velocity": 80,
                "duration": 0.06590909090908781,
                "tempo": 120.0
            },
            {
                "start_time": 60.595454545454544,
                "end_time": 60.74318181818182,
                "pitch": 36,
                "velocity": 80,
                "duration": 0.14772727272727337,
                "tempo": 120.0
            },
            {
                "start_time": 60.80681818181818,
                "end_time": 60.95454545454545,
                "pitch": 48,
                "velocity": 80,
                "duration": 0.14772727272727337,
                "tempo": 120.0
            },
            {
                "start_time": 61.02045454545454,
                "end_time": 61.17045454545454,
                "pitch": 35,
                "velocity": 80,
                "duration": 0.14999999999999858,
                "tempo": 120.0
            },
            {
                "start_time": 61.236363636363635,
                "end_time": 61.38636363636363,
                "pitch": 47,
                "velocity": 80,
                "duration": 0.14999999999999858,
                "tempo": 120.0
            },
            {
                "start_time": 61.45454545454545,
                "end_time": 61.60454545454545,
                "pitch": 36,
                "velocity": 80,
                "duration": 0.14999999999999858,
                "tempo": 120.0
            },
            {
                "start_time": 61.67045454545454,
                "end_time": 61.820454545454545,
                "pitch": 36,
                "velocity": 80,
                "duration": 0.15000000000000568,
                "tempo": 120.0
            },
            {
                "start_time": 61.990909090909085,
                "end_time": 62.143181818181816,
                "pitch": 48,
                "velocity": 80,
                "duration": 0.1522727272727309,
                "tempo": 120.0
            },
            {
                "start_time": 62.21363636363636,
                "end_time": 62.27954545454545,
                "pitch": 36,
                "velocity": 80,
                "duration": 0.06590909090908781,
                "tempo": 120.0
            },
            {
                "start_time": 62.31363636363636,
                "end_time": 62.615909090909085,
                "pitch": 35,
                "velocity": 80,
                "duration": 0.30227272727272236,
                "tempo": 120.0
            },
            {
                "start_time": 62.72727272727273,
                "end_time": 63.05227272727272,
                "pitch": 39,
                "velocity": 80,
                "duration": 0.32499999999999574,
                "tempo": 120.0
            },
            {
                "start_time": 63.17045454545454,
                "end_time": 63.320454545454545,
                "pitch": 40,
                "velocity": 80,
                "duration": 0.15000000000000568,
                "tempo": 120.0
            },
            {
                "start_time": 63.38863636363636,
                "end_time": 63.538636363636364,
                "pitch": 40,
                "velocity": 80,
                "duration": 0.15000000000000568,
                "tempo": 120.0
            },
            {
                "start_time": 63.69772727272727,
                "end_time": 63.840909090909086,
                "pitch": 52,
                "velocity": 80,
                "duration": 0.14318181818181586,
                "tempo": 120.0
            },
            {
                "start_time": 63.90454545454545,
                "end_time": 63.96818181818181,
                "pitch": 51,
                "velocity": 80,
                "duration": 0.0636363636363626,
                "tempo": 120.0
            },
            {
                "start_time": 64.00227272727273,
                "end_time": 64.23409090909091,
                "pitch": 38,
                "velocity": 80,
                "duration": 0.23181818181818414,
                "tempo": 120.0
            },
            {
                "start_time": 64.31818181818181,
                "end_time": 64.40227272727273,
                "pitch": 38,
                "velocity": 80,
                "duration": 0.08409090909091788,
                "tempo": 120.0
            },
            {
                "start_time": 64.43636363636364,
                "end_time": 64.58863636363635,
                "pitch": 50,
                "velocity": 80,
                "duration": 0.15227272727271668,
                "tempo": 120.0
            },
            {
                "start_time": 64.65681818181818,
                "end_time": 64.81136363636364,
                "pitch": 38,
                "velocity": 80,
                "duration": 0.1545454545454561,
                "tempo": 120.0
            },
            {
                "start_time": 64.87954545454545,
                "end_time": 65.02954545454546,
                "pitch": 37,
                "velocity": 80,
                "duration": 0.15000000000000568,
                "tempo": 120.0
            },
            {
                "start_time": 65.07954545454545,
                "end_time": 65.22954545454544,
                "pitch": 37,
                "velocity": 80,
                "duration": 0.14999999999999147,
                "tempo": 120.0
            },
            {
                "start_time": 65.4090909090909,
                "end_time": 65.55681818181817,
                "pitch": 49,
                "velocity": 80,
                "duration": 0.14772727272726627,
                "tempo": 120.0
            },
            {
                "start_time": 65.62272727272727,
                "end_time": 65.68636363636364,
                "pitch": 37,
                "velocity": 80,
                "duration": 0.0636363636363626,
                "tempo": 120.0
            },
            {
                "start_time": 65.72045454545454,
                "end_time": 65.95454545454545,
                "pitch": 36,
                "velocity": 80,
                "duration": 0.23409090909090935,
                "tempo": 120.0
            },
            {
                "start_time": 66.03863636363636,
                "end_time": 66.12045454545454,
                "pitch": 36,
                "velocity": 80,
                "duration": 0.08181818181817846,
                "tempo": 120.0
            },
            {
                "start_time": 66.15454545454546,
                "end_time": 66.30454545454545,
                "pitch": 48,
                "velocity": 80,
                "duration": 0.14999999999999147,
                "tempo": 120.0
            },
            {
                "start_time": 66.37045454545454,
                "end_time": 66.52045454545454,
                "pitch": 36,
                "velocity": 80,
                "duration": 0.15000000000000568,
                "tempo": 120.0
            },
            {
                "start_time": 66.57045454545454,
                "end_time": 66.71363636363635,
                "pitch": 35,
                "velocity": 80,
                "duration": 0.14318181818181586,
                "tempo": 120.0
            },
            {
                "start_time": 66.77727272727273,
                "end_time": 66.92045454545455,
                "pitch": 35,
                "velocity": 80,
                "duration": 0.14318181818181586,
                "tempo": 120.0
            },
            {
                "start_time": 67.10454545454544,
                "end_time": 67.25681818181818,
                "pitch": 47,
                "velocity": 80,
                "duration": 0.1522727272727309,
                "tempo": 120.0
            },
            {
                "start_time": 67.30909090909091,
                "end_time": 67.39318181818182,
                "pitch": 35,
                "velocity": 80,
                "duration": 0.08409090909090366,
                "tempo": 120.0
            },
            {
                "start_time": 67.42727272727272,
                "end_time": 67.57727272727273,
                "pitch": 36,
                "velocity": 80,
                "duration": 0.15000000000000568,
                "tempo": 120.0
            },
            {
                "start_time": 67.64545454545454,
                "end_time": 67.79545454545455,
                "pitch": 48,
                "velocity": 80,
                "duration": 0.15000000000000568,
                "tempo": 120.0
            },
            {
                "start_time": 67.86136363636363,
                "end_time": 68.01136363636363,
                "pitch": 35,
                "velocity": 80,
                "duration": 0.14999999999999147,
                "tempo": 120.0
            },
            {
                "start_time": 68.06136363636364,
                "end_time": 68.21136363636363,
                "pitch": 47,
                "velocity": 80,
                "duration": 0.14999999999999147,
                "tempo": 120.0
            }
        ]
    }
}