{
    "track_id": "01 Last Attack",
    "mood": "angry",
    "instruments": {
        "Acoustic Bass": [
            {
                "start_time": 0.04090909090909091,
                "end_time": 0.4204545454545454,
                "pitch": 33,
                "velocity": 80,
                "duration": 0.3795454545454545,
                "tempo": 120.0
            },
            {
                "start_time": 0.4204545454545454,
                "end_time": 0.6204545454545454,
                "pitch": 33,
                "velocity": 80,
                "duration": 0.19999999999999996,
                "tempo": 120.0
            },
            {
                "start_time": 0.6204545454545454,
                "end_time": 0.8204545454545454,
                "pitch": 33,
                "velocity": 80,
                "duration": 0.20000000000000007,
                "tempo": 120.0
            },
            {
                "start_time": 0.8227272727272726,
                "end_time": 1.0204545454545455,
                "pitch": 33,
                "velocity": 80,
                "duration": 0.19772727272727286,
                "tempo": 120.0
            },
            {
                "start_time": 1.0227272727272727,
                "end_time": 1.2204545454545455,
                "pitch": 33,
                "velocity": 80,
                "duration": 0.19772727272727275,
                "tempo": 120.0
            },
            {
                "start_time": 1.2227272727272727,
                "end_time": 1.4227272727272726,
                "pitch": 33,
                "velocity": 80,
                "duration": 0.19999999999999996,
                "tempo": 120.0
            },
            {
                "start_time": 1.4227272727272726,
                "end_time": 1.8227272727272725,
                "pitch": 33,
                "velocity": 80,
                "duration": 0.3999999999999999,
                "tempo": 120.0
            },
            {
                "start_time": 1.8227272727272725,
                "end_time": 2.0227272727272725,
                "pitch": 33,
                "velocity": 80,
                "duration": 0.19999999999999996,
                "tempo": 120.0
            },
            {
                "start_time": 2.0227272727272725,
                "end_time": 2.227272727272727,
                "pitch": 33,
                "velocity": 80,
                "duration": 0.20454545454545459,
                "tempo": 120.0
            },
            {
                "start_time": 2.2295454545454545,
                "end_time": 2.6295454545454544,
                "pitch": 33,
                "velocity": 80,
                "duration": 0.3999999999999999,
                "tempo": 120.0
            },
            {
                "start_time": 2.631818181818182,
                "end_time": 2.827272727272727,
                "pitch": 33,
                "velocity": 80,
                "duration": 0.19545454545454533,
                "tempo": 120.0
            },
            {
                "start_time": 2.827272727272727,
                "end_time": 3.0318181818181817,
                "pitch": 36,
                "velocity": 80,
                "duration": 0.20454545454545459,
                "tempo": 120.0
            },
            {
                "start_time": 3.0318181818181817,
                "end_time": 3.2363636363636363,
                "pitch": 40,
                "velocity": 80,
                "duration": 0.20454545454545459,
                "tempo": 120.0
            },
            {
                "start_time": 3.2386363636363633,
                "end_time": 3.4386363636363635,
                "pitch": 33,
                "velocity": 80,
                "duration": 0.20000000000000018,
                "tempo": 120.0
            },
            {
                "start_time": 3.440909090909091,
                "end_time": 3.6409090909090907,
                "pitch": 33,
                "velocity": 80,
                "duration": 0.19999999999999973,
                "tempo": 120.0
            },
            {
                "start_time": 3.6409090909090907,
                "end_time": 3.840909090909091,
                "pitch": 33,
                "velocity": 80,
                "duration": 0.20000000000000018,
                "tempo": 120.0
            },
            {
                "start_time": 3.843181818181818,
                "end_time": 4.040909090909091,
                "pitch": 33,
                "velocity": 80,
                "duration": 0.1977272727272732,
                "tempo": 120.0
            },
            {
                "start_time": 4.043181818181818,
                "end_time": 4.24090909090909,
                "pitch": 33,
                "velocity": 80,
                "duration": 0.1977272727272723,
                "tempo": 120.0
            },
            {
                "start_time": 4.243181818181818,
                "end_time": 4.4409090909090905,
                "pitch": 33,
                "velocity": 80,
                "duration": 0.1977272727272723,
                "tempo": 120.0
            },
            {
                "start_time": 4.443181818181818,
                "end_time": 4.845454545454545,
                "pitch": 33,
                "velocity": 80,
                "duration": 0.40227272727272645,
                "tempo": 120.0
            },
            {
                "start_time": 4.845454545454545,
                "end_time": 5.045454545454545,
                "pitch": 33,
                "velocity": 80,
                "duration": 0.20000000000000018,
                "tempo": 120.0
            },
            {
                "start_time": 5.045454545454545,
                "end_time": 5.245454545454545,
                "pitch": 33,
                "velocity": 80,
                "duration": 0.20000000000000018,
                "tempo": 120.0
            },
            {
                "start_time": 5.245454545454545,
                "end_time": 5.447727272727272,
                "pitch": 33,
                "velocity": 80,
                "duration": 0.20227272727272716,
                "tempo": 120.0
            },
            {
                "start_time": 5.447727272727272,
                "end_time": 5.85,
                "pitch": 33,
                "velocity": 80,
                "duration": 0.40227272727272734,
                "tempo": 120.0
            },
            {
                "start_time": 5.85,
                "end_time": 6.05,
                "pitch": 33,
                "velocity": 80,
                "duration": 0.20000000000000018,
                "tempo": 120.0
            },
            {
                "start_time": 6.05,
                "end_time": 6.25,
                "pitch": 36,
                "velocity": 80,
                "duration": 0.20000000000000018,
                "tempo": 120.0
            },
            {
                "start_time": 6.252272727272727,
                "end_time": 6.452272727272727,
                "pitch": 40,
                "velocity": 80,
                "duration": 0.20000000000000018,
                "tempo": 120.0
            },
            {
                "start_time": 6.452272727272727,
                "end_time": 6.654545454545454,
                "pitch": 29,
                "velocity": 80,
                "duration": 0.20227272727272716,
                "tempo": 120.0
            },
            {
                "start_time": 6.654545454545454,
                "end_time": 6.8545454545454545,
                "pitch": 29,
                "velocity": 80,
                "duration": 0.20000000000000018,
                "tempo": 120.0
            },
            {
                "start_time": 6.8568181818181815,
                "end_time": 7.056818181818182,
                "pitch": 29,
                "velocity": 80,
                "duration": 0.20000000000000018,
                "tempo": 120.0
            },
            {
                "start_time": 7.056818181818182,
                "end_time": 7.256818181818182,
                "pitch": 29,
                "velocity": 80,
                "duration": 0.20000000000000018,
                "tempo": 120.0
            },
            {
                "start_time": 7.256818181818182,
                "end_time": 7.456818181818181,
                "pitch": 29,
                "velocity": 80,
                "duration": 0.1999999999999993,
                "tempo": 120.0
            },
            {
                "start_time": 7.459090909090909,
                "end_time": 7.659090909090908,
                "pitch": 29,
                "velocity": 80,
                "duration": 0.1999999999999993,
                "tempo": 120.0
            },
            {
                "start_time": 7.659090909090908,
                "end_time": 7.8590909090909085,
                "pitch": 33,
                "velocity": 80,
                "duration": 0.20000000000000018,
                "tempo": 120.0
            },
            {
                "start_time": 7.861363636363636,
                "end_time": 8.259090909090908,
                "pitch": 31,
                "velocity": 80,
                "duration": 0.3977272727272716,
                "tempo": 120.0
            },
            {
                "start_time": 8.261363636363637,
                "end_time": 8.461363636363636,
                "pitch": 31,
                "velocity": 80,
                "duration": 0.1999999999999993,
                "tempo": 120.0
            },
            {
                "start_time": 8.461363636363636,
                "end_time": 8.661363636363635,
                "pitch": 31,
                "velocity": 80,
                "duration": 0.1999999999999993,
                "tempo": 120.0
            },
            {
                "start_time": 8.663636363636364,
                "end_time": 8.863636363636363,
                "pitch": 31,
                "velocity": 80,
                "duration": 0.1999999999999993,
                "tempo": 120.0
            },
            {
                "start_time": 8.863636363636363,
                "end_time": 9.06590909090909,
                "pitch": 31,
                "velocity": 80,
                "duration": 0.20227272727272627,
                "tempo": 120.0
            },
            {
                "start_time": 9.06590909090909,
                "end_time": 9.26590909090909,
                "pitch": 26,
                "velocity": 80,
                "duration": 0.20000000000000107,
                "tempo": 120.0
            },
            {
                "start_time": 9.268181818181818,
                "end_time": 9.472727272727273,
                "pitch": 29,
                "velocity": 80,
                "duration": 0.20454545454545503,
                "tempo": 120.0
            },
            {
                "start_time": 9.472727272727273,
                "end_time": 9.677272727272726,
                "pitch": 31,
                "velocity": 80,
                "duration": 0.20454545454545325,
                "tempo": 120.0
            },
            {
                "start_time": 9.679545454545455,
                "end_time": 9.879545454545454,
                "pitch": 28,
                "velocity": 80,
                "duration": 0.1999999999999993,
                "tempo": 120.0
            },
            {
                "start_time": 9.879545454545454,
                "end_time": 10.081818181818182,
                "pitch": 28,
                "velocity": 80,
                "duration": 0.20227272727272805,
                "tempo": 120.0
            },
            {
                "start_time": 10.081818181818182,
                "end_time": 10.281818181818181,
                "pitch": 33,
                "velocity": 80,
                "duration": 0.1999999999999993,
                "tempo": 120.0
            },
            {
                "start_time": 10.284090909090908,
                "end_time": 10.48409090909091,
                "pitch": 35,
                "velocity": 80,
                "duration": 0.20000000000000107,
                "tempo": 120.0
            },
            {
                "start_time": 10.486363636363636,
                "end_time": 10.681818181818182,
                "pitch": 38,
                "velocity": 80,
                "duration": 0.19545454545454533,
                "tempo": 120.0
            },
            {
                "start_time": 10.681818181818182,
                "end_time": 10.877272727272727,
                "pitch": 35,
                "velocity": 80,
                "duration": 0.19545454545454533,
                "tempo": 120.0
            },
            {
                "start_time": 10.877272727272727,
                "end_time": 11.081818181818182,
                "pitch": 33,
                "velocity": 80,
                "duration": 0.20454545454545503,
                "tempo": 120.0
            },
            {
                "start_time": 11.084090909090909,
                "end_time": 11.48409090909091,
                "pitch": 28,
                "velocity": 80,
                "duration": 0.40000000000000036,
                "tempo": 120.0
            },
            {
                "start_time": 11.486363636363636,
                "end_time": 11.681818181818182,
                "pitch": 40,
                "velocity": 80,
                "duration": 0.19545454545454533,
                "tempo": 120.0
            },
            {
                "start_time": 11.681818181818182,
                "end_time": 11.886363636363635,
                "pitch": 38,
                "velocity": 80,
                "duration": 0.20454545454545325,
                "tempo": 120.0
            },
            {
                "start_time": 11.886363636363635,
                "end_time": 12.09090909090909,
                "pitch": 35,
                "velocity": 80,
                "duration": 0.20454545454545503,
                "tempo": 120.0
            },
            {
                "start_time": 12.093181818181817,
                "end_time": 12.293181818181818,
                "pitch": 32,
                "velocity": 80,
                "duration": 0.20000000000000107,
                "tempo": 120.0
            },
            {
                "start_time": 12.295454545454545,
                "end_time": 12.495454545454544,
                "pitch": 35,
                "velocity": 80,
                "duration": 0.1999999999999993,
                "tempo": 120.0
            },
            {
                "start_time": 12.495454545454544,
                "end_time": 12.695454545454545,
                "pitch": 32,
                "velocity": 80,
                "duration": 0.20000000000000107,
                "tempo": 120.0
            },
            {
                "start_time": 12.697727272727272,
                "end_time": 12.918181818181818,
                "pitch": 28,
                "velocity": 80,
                "duration": 0.22045454545454568,
                "tempo": 120.0
            },
            {
                "start_time": 12.918181818181818,
                "end_time": 13.097727272727273,
                "pitch": 33,
                "velocity": 80,
                "duration": 0.17954545454545467,
                "tempo": 120.0
            },
            {
                "start_time": 13.1,
                "end_time": 13.299999999999999,
                "pitch": 33,
                "velocity": 80,
                "duration": 0.1999999999999993,
                "tempo": 120.0
            },
            {
                "start_time": 13.299999999999999,
                "end_time": 13.5,
                "pitch": 33,
                "velocity": 80,
                "duration": 0.20000000000000107,
                "tempo": 120.0
            },
            {
                "start_time": 13.502272727272727,
                "end_time": 13.702272727272726,
                "pitch": 33,
                "velocity": 80,
                "duration": 0.1999999999999993,
                "tempo": 120.0
            },
            {
                "start_time": 13.702272727272726,
                "end_time": 13.904545454545454,
                "pitch": 33,
                "velocity": 80,
                "duration": 0.20227272727272805,
                "tempo": 120.0
            },
            {
                "start_time": 13.904545454545454,
                "end_time": 14.104545454545454,
                "pitch": 33,
                "velocity": 80,
                "duration": 0.1999999999999993,
                "tempo": 120.0
            },
            {
                "start_time": 14.10681818181818,
                "end_time": 14.306818181818182,
                "pitch": 33,
                "velocity": 80,
                "duration": 0.20000000000000107,
                "tempo": 120.0
            },
            {
                "start_time": 14.309090909090909,
                "end_time": 14.509090909090908,
                "pitch": 33,
                "velocity": 80,
                "duration": 0.1999999999999993,
                "tempo": 120.0
            },
            {
                "start_time": 14.509090909090908,
                "end_time": 14.709090909090909,
                "pitch": 33,
                "velocity": 80,
                "duration": 0.20000000000000107,
                "tempo": 120.0
            },
            {
                "start_time": 14.709090909090909,
                "end_time": 14.909090909090908,
                "pitch": 33,
                "velocity": 80,
                "duration": 0.1999999999999993,
                "tempo": 120.0
            },
            {
                "start_time": 14.911363636363635,
                "end_time": 15.111363636363636,
                "pitch": 33,
                "velocity": 80,
                "duration": 0.20000000000000107,
                "tempo": 120.0
            },
            {
                "start_time": 15.111363636363636,
                "end_time": 15.313636363636363,
                "pitch": 33,
                "velocity": 80,
                "duration": 0.20227272727272627,
                "tempo": 120.0
            },
            {
                "start_time": 15.313636363636363,
                "end_time": 15.513636363636364,
                "pitch": 33,
                "velocity": 80,
                "duration": 0.20000000000000107,
                "tempo": 120.0
            },
            {
                "start_time": 15.51590909090909,
                "end_time": 15.71590909090909,
                "pitch": 33,
                "velocity": 80,
                "duration": 0.1999999999999993,
                "tempo": 120.0
            },
            {
                "start_time": 15.71590909090909,
                "end_time": 15.918181818181818,
                "pitch": 33,
                "velocity": 80,
                "duration": 0.20227272727272805,
                "tempo": 120.0
            },
            {
                "start_time": 15.918181818181818,
                "end_time": 16.120454545454546,
                "pitch": 33,
                "velocity": 80,
                "duration": 0.20227272727272805,
                "tempo": 120.0
            },
            {
                "start_time": 16.120454545454546,
                "end_time": 16.320454545454545,
                "pitch": 29,
                "velocity": 80,
                "duration": 0.1999999999999993,
                "tempo": 120.0
            },
            {
                "start_time": 16.320454545454545,
                "end_time": 16.522727272727273,
                "pitch": 29,
                "velocity": 80,
                "duration": 0.20227272727272805,
                "tempo": 120.0
            },
            {
                "start_time": 16.522727272727273,
                "end_time": 16.722727272727273,
                "pitch": 29,
                "velocity": 80,
                "duration": 0.1999999999999993,
                "tempo": 120.0
            },
            {
                "start_time": 16.724999999999998,
                "end_time": 16.922727272727272,
                "pitch": 29,
                "velocity": 80,
                "duration": 0.19772727272727408,
                "tempo": 120.0
            },
            {
                "start_time": 16.922727272727272,
                "end_time": 17.125,
                "pitch": 29,
                "velocity": 80,
                "duration": 0.20227272727272805,
                "tempo": 120.0
            },
            {
                "start_time": 17.125,
                "end_time": 17.327272727272728,
                "pitch": 29,
                "velocity": 80,
                "duration": 0.20227272727272805,
                "tempo": 120.0
            },
            {
                "start_time": 17.327272727272728,
                "end_time": 17.525,
                "pitch": 29,
                "velocity": 80,
                "duration": 0.19772727272727053,
                "tempo": 120.0
            },
            {
                "start_time": 17.527272727272727,
                "end_time": 17.727272727272727,
                "pitch": 29,
                "velocity": 80,
                "duration": 0.1999999999999993,
                "tempo": 120.0
            },
            {
                "start_time": 17.727272727272727,
                "end_time": 17.927272727272726,
                "pitch": 29,
                "velocity": 80,
                "duration": 0.1999999999999993,
                "tempo": 120.0
            },
            {
                "start_time": 17.927272727272726,
                "end_time": 18.127272727272725,
                "pitch": 29,
                "velocity": 80,
                "duration": 0.1999999999999993,
                "tempo": 120.0
            },
            {
                "start_time": 18.127272727272725,
                "end_time": 18.331818181818182,
                "pitch": 29,
                "velocity": 80,
                "duration": 0.2045454545454568,
                "tempo": 120.0
            },
            {
                "start_time": 18.331818181818182,
                "end_time": 18.538636363636364,
                "pitch": 29,
                "velocity": 80,
                "duration": 0.206818181818182,
                "tempo": 120.0
            },
            {
                "start_time": 18.538636363636364,
                "end_time": 18.73409090909091,
                "pitch": 29,
                "velocity": 80,
                "duration": 0.19545454545454533,
                "tempo": 120.0
            },
            {
                "start_time": 18.736363636363635,
                "end_time": 18.93181818181818,
                "pitch": 29,
                "velocity": 80,
                "duration": 0.19545454545454533,
                "tempo": 120.0
            },
            {
                "start_time": 18.93181818181818,
                "end_time": 19.136363636363637,
                "pitch": 29,
                "velocity": 80,
                "duration": 0.2045454545454568,
                "tempo": 120.0
            },
            {
                "start_time": 19.136363636363637,
                "end_time": 19.34090909090909,
                "pitch": 29,
                "velocity": 80,
                "duration": 0.20454545454545325,
                "tempo": 120.0
            },
            {
                "start_time": 19.34318181818182,
                "end_time": 19.543181818181818,
                "pitch": 31,
                "velocity": 80,
                "duration": 0.1999999999999993,
                "tempo": 120.0
            },
            {
                "start_time": 19.545454545454543,
                "end_time": 19.745454545454546,
                "pitch": 31,
                "velocity": 80,
                "duration": 0.20000000000000284,
                "tempo": 120.0
            },
            {
                "start_time": 19.745454545454546,
                "end_time": 19.945454545454545,
                "pitch": 31,
                "velocity": 80,
                "duration": 0.1999999999999993,
                "tempo": 120.0
            },
            {
                "start_time": 19.94772727272727,
                "end_time": 20.145454545454545,
                "pitch": 31,
                "velocity": 80,
                "duration": 0.19772727272727408,
                "tempo": 120.0
            },
            {
                "start_time": 20.145454545454545,
                "end_time": 20.347727272727273,
                "pitch": 31,
                "velocity": 80,
                "duration": 0.20227272727272805,
                "tempo": 120.0
            },
            {
                "start_time": 20.347727272727273,
                "end_time": 20.545454545454543,
                "pitch": 31,
                "velocity": 80,
                "duration": 0.19772727272727053,
                "tempo": 120.0
            },
            {
                "start_time": 20.547727272727272,
                "end_time": 20.74772727272727,
                "pitch": 31,
                "velocity": 80,
                "duration": 0.1999999999999993,
                "tempo": 120.0
            },
            {
                "start_time": 20.75,
                "end_time": 20.95,
                "pitch": 31,
                "velocity": 80,
                "duration": 0.1999999999999993,
                "tempo": 120.0
            },
            {
                "start_time": 20.95,
                "end_time": 21.15,
                "pitch": 31,
                "velocity": 80,
                "duration": 0.1999999999999993,
                "tempo": 120.0
            },
            {
                "start_time": 21.15,
                "end_time": 21.349999999999998,
                "pitch": 31,
                "velocity": 80,
                "duration": 0.1999999999999993,
                "tempo": 120.0
            },
            {
                "start_time": 21.352272727272727,
                "end_time": 21.552272727272726,
                "pitch": 31,
                "velocity": 80,
                "duration": 0.1999999999999993,
                "tempo": 120.0
            },
            {
                "start_time": 21.552272727272726,
                "end_time": 21.754545454545454,
                "pitch": 31,
                "velocity": 80,
                "duration": 0.20227272727272805,
                "tempo": 120.0
            },
            {
                "start_time": 21.754545454545454,
                "end_time": 21.954545454545453,
                "pitch": 31,
                "velocity": 80,
                "duration": 0.1999999999999993,
                "tempo": 120.0
            },
            {
                "start_time": 21.954545454545453,
                "end_time": 22.154545454545453,
                "pitch": 31,
                "velocity": 80,
                "duration": 0.1999999999999993,
                "tempo": 120.0
            },
            {
                "start_time": 22.154545454545453,
                "end_time": 22.354545454545452,
                "pitch": 31,
                "velocity": 80,
                "duration": 0.1999999999999993,
                "tempo": 120.0
            },
            {
                "start_time": 22.354545454545452,
                "end_time": 22.554545454545455,
                "pitch": 31,
                "velocity": 80,
                "duration": 0.20000000000000284,
                "tempo": 120.0
            },
            {
                "start_time": 22.55681818181818,
                "end_time": 22.75681818181818,
                "pitch": 36,
                "velocity": 80,
                "duration": 0.1999999999999993,
                "tempo": 120.0
            },
            {
                "start_time": 22.75681818181818,
                "end_time": 22.956818181818182,
                "pitch": 36,
                "velocity": 80,
                "duration": 0.20000000000000284,
                "tempo": 120.0
            },
            {
                "start_time": 22.959090909090907,
                "end_time": 23.15681818181818,
                "pitch": 36,
                "velocity": 80,
                "duration": 0.19772727272727408,
                "tempo": 120.0
            },
            {
                "start_time": 23.159090909090907,
                "end_time": 23.35909090909091,
                "pitch": 36,
                "velocity": 80,
                "duration": 0.20000000000000284,
                "tempo": 120.0
            },
            {
                "start_time": 23.35909090909091,
                "end_time": 23.55909090909091,
                "pitch": 36,
                "velocity": 80,
                "duration": 0.1999999999999993,
                "tempo": 120.0
            },
            {
                "start_time": 23.561363636363634,
                "end_time": 23.761363636363637,
                "pitch": 36,
                "velocity": 80,
                "duration": 0.20000000000000284,
                "tempo": 120.0
            },
            {
                "start_time": 23.761363636363637,
                "end_time": 23.961363636363636,
                "pitch": 36,
                "velocity": 80,
                "duration": 0.1999999999999993,
                "tempo": 120.0
            },
            {
                "start_time": 23.961363636363636,
                "end_time": 24.161363636363635,
                "pitch": 36,
                "velocity": 80,
                "duration": 0.1999999999999993,
                "tempo": 120.0
            },
            {
                "start_time": 24.163636363636364,
                "end_time": 24.361363636363635,
                "pitch": 36,
                "velocity": 80,
                "duration": 0.19772727272727053,
                "tempo": 120.0
            },
            {
                "start_time": 24.363636363636363,
                "end_time": 24.561363636363634,
                "pitch": 36,
                "velocity": 80,
                "duration": 0.19772727272727053,
                "tempo": 120.0
            },
            {
                "start_time": 24.563636363636363,
                "end_time": 24.768181818181816,
                "pitch": 36,
                "velocity": 80,
                "duration": 0.20454545454545325,
                "tempo": 120.0
            },
            {
                "start_time": 24.768181818181816,
                "end_time": 24.972727272727273,
                "pitch": 36,
                "velocity": 80,
                "duration": 0.2045454545454568,
                "tempo": 120.0
            },
            {
                "start_time": 24.974999999999998,
                "end_time": 25.170454545454543,
                "pitch": 36,
                "velocity": 80,
                "duration": 0.19545454545454533,
                "tempo": 120.0
            },
            {
                "start_time": 25.170454545454543,
                "end_time": 25.36590909090909,
                "pitch": 36,
                "velocity": 80,
                "duration": 0.19545454545454533,
                "tempo": 120.0
            },
            {
                "start_time": 25.368181818181817,
                "end_time": 25.568181818181817,
                "pitch": 36,
                "velocity": 80,
                "duration": 0.1999999999999993,
                "tempo": 120.0
            },
            {
                "start_time": 25.568181818181817,
                "end_time": 25.770454545454545,
                "pitch": 36,
                "velocity": 80,
                "duration": 0.20227272727272805,
                "tempo": 120.0
            },
            {
                "start_time": 25.770454545454545,
                "end_time": 25.974999999999998,
                "pitch": 38,
                "velocity": 80,
                "duration": 0.20454545454545325,
                "tempo": 120.0
            },
            {
                "start_time": 25.974999999999998,
                "end_time": 26.18181818181818,
                "pitch": 38,
                "velocity": 80,
                "duration": 0.206818181818182,
                "tempo": 120.0
            },
            {
                "start_time": 26.18181818181818,
                "end_time": 26.38181818181818,
                "pitch": 38,
                "velocity": 80,
                "duration": 0.1999999999999993,
                "tempo": 120.0
            },
            {
                "start_time": 26.38181818181818,
                "end_time": 26.581818181818182,
                "pitch": 38,
                "velocity": 80,
                "duration": 0.20000000000000284,
                "tempo": 120.0
            },
            {
                "start_time": 26.581818181818182,
                "end_time": 26.777272727272727,
                "pitch": 38,
                "velocity": 80,
                "duration": 0.19545454545454533,
                "tempo": 120.0
            },
            {
                "start_time": 26.779545454545453,
                "end_time": 26.974999999999998,
                "pitch": 38,
                "velocity": 80,
                "duration": 0.19545454545454533,
                "tempo": 120.0
            },
            {
                "start_time": 26.974999999999998,
                "end_time": 27.179545454545455,
                "pitch": 38,
                "velocity": 80,
                "duration": 0.2045454545454568,
                "tempo": 120.0
            },
            {
                "start_time": 27.179545454545455,
                "end_time": 27.384090909090908,
                "pitch": 38,
                "velocity": 80,
                "duration": 0.20454545454545325,
                "tempo": 120.0
            },
            {
                "start_time": 27.386363636363637,
                "end_time": 27.586363636363636,
                "pitch": 38,
                "velocity": 80,
                "duration": 0.1999999999999993,
                "tempo": 120.0
            },
            {
                "start_time": 27.58863636363636,
                "end_time": 27.786363636363635,
                "pitch": 38,
                "velocity": 80,
                "duration": 0.19772727272727408,
                "tempo": 120.0
            },
            {
                "start_time": 27.788636363636364,
                "end_time": 27.988636363636363,
                "pitch": 38,
                "velocity": 80,
                "duration": 0.1999999999999993,
                "tempo": 120.0
            },
            {
                "start_time": 27.988636363636363,
                "end_time": 28.190909090909088,
                "pitch": 38,
                "velocity": 80,
                "duration": 0.2022727272727245,
                "tempo": 120.0
            },
            {
                "start_time": 28.190909090909088,
                "end_time": 28.39090909090909,
                "pitch": 38,
                "velocity": 80,
                "duration": 0.20000000000000284,
                "tempo": 120.0
            },
            {
                "start_time": 28.39090909090909,
                "end_time": 28.59090909090909,
                "pitch": 38,
                "velocity": 80,
                "duration": 0.1999999999999993,
                "tempo": 120.0
            },
            {
                "start_time": 28.59090909090909,
                "end_time": 28.79090909090909,
                "pitch": 38,
                "velocity": 80,
                "duration": 0.1999999999999993,
                "tempo": 120.0
            },
            {
                "start_time": 28.79090909090909,
                "end_time": 28.99090909090909,
                "pitch": 38,
                "velocity": 80,
                "duration": 0.1999999999999993,
                "tempo": 120.0
            },
            {
                "start_time": 28.993181818181817,
                "end_time": 29.190909090909088,
                "pitch": 36,
                "velocity": 80,
                "duration": 0.19772727272727053,
                "tempo": 120.0
            },
            {
                "start_time": 29.193181818181817,
                "end_time": 29.393181818181816,
                "pitch": 36,
                "velocity": 80,
                "duration": 0.1999999999999993,
                "tempo": 120.0
            },
            {
                "start_time": 29.395454545454545,
                "end_time": 29.593181818181815,
                "pitch": 36,
                "velocity": 80,
                "duration": 0.19772727272727053,
                "tempo": 120.0
            },
            {
                "start_time": 29.595454545454544,
                "end_time": 29.793181818181818,
                "pitch": 36,
                "velocity": 80,
                "duration": 0.19772727272727408,
                "tempo": 120.0
            },
            {
                "start_time": 29.795454545454543,
                "end_time": 29.995454545454542,
                "pitch": 36,
                "velocity": 80,
                "duration": 0.1999999999999993,
                "tempo": 120.0
            },
            {
                "start_time": 29.995454545454542,
                "end_time": 30.19772727272727,
                "pitch": 36,
                "velocity": 80,
                "duration": 0.20227272727272805,
                "tempo": 120.0
            },
            {
                "start_time": 30.19772727272727,
                "end_time": 30.39772727272727,
                "pitch": 36,
                "velocity": 80,
                "duration": 0.1999999999999993,
                "tempo": 120.0
            },
            {
                "start_time": 30.39772727272727,
                "end_time": 30.597727272727273,
                "pitch": 36,
                "velocity": 80,
                "duration": 0.20000000000000284,
                "tempo": 120.0
            },
            {
                "start_time": 30.597727272727273,
                "end_time": 30.799999999999997,
                "pitch": 36,
                "velocity": 80,
                "duration": 0.2022727272727245,
                "tempo": 120.0
            },
            {
                "start_time": 30.799999999999997,
                "end_time": 31.0,
                "pitch": 36,
                "velocity": 80,
                "duration": 0.20000000000000284,
                "tempo": 120.0
            },
            {
                "start_time": 31.0,
                "end_time": 31.2,
                "pitch": 36,
                "velocity": 80,
                "duration": 0.1999999999999993,
                "tempo": 120.0
            },
            {
                "start_time": 31.202272727272724,
                "end_time": 31.402272727272727,
                "pitch": 36,
                "velocity": 80,
                "duration": 0.20000000000000284,
                "tempo": 120.0
            },
            {
                "start_time": 31.402272727272727,
                "end_time": 31.602272727272727,
                "pitch": 36,
                "velocity": 80,
                "duration": 0.1999999999999993,
                "tempo": 120.0
            },
            {
                "start_time": 31.604545454545452,
                "end_time": 31.802272727272726,
                "pitch": 36,
                "velocity": 80,
                "duration": 0.19772727272727408,
                "tempo": 120.0
            },
            {
                "start_time": 31.804545454545455,
                "end_time": 32.00454545454545,
                "pitch": 36,
                "velocity": 80,
                "duration": 0.19999999999999574,
                "tempo": 120.0
            },
            {
                "start_time": 32.00454545454545,
                "end_time": 32.20681818181818,
                "pitch": 36,
                "velocity": 80,
                "duration": 0.20227272727272805,
                "tempo": 120.0
            },
            {
                "start_time": 32.20681818181818,
                "end_time": 32.404545454545456,
                "pitch": 38,
                "velocity": 80,
                "duration": 0.19772727272727764,
                "tempo": 120.0
            },
            {
                "start_time": 32.40681818181818,
                "end_time": 32.60454545454545,
                "pitch": 38,
                "velocity": 80,
                "duration": 0.19772727272727053,
                "tempo": 120.0
            },
            {
                "start_time": 32.60681818181818,
                "end_time": 32.80681818181818,
                "pitch": 38,
                "velocity": 80,
                "duration": 0.20000000000000284,
                "tempo": 120.0
            },
            {
                "start_time": 32.80681818181818,
                "end_time": 33.00681818181818,
                "pitch": 38,
                "velocity": 80,
                "duration": 0.20000000000000284,
                "tempo": 120.0
            },
            {
                "start_time": 33.00681818181818,
                "end_time": 33.20681818181818,
                "pitch": 38,
                "velocity": 80,
                "duration": 0.19999999999999574,
                "tempo": 120.0
            },
            {
                "start_time": 33.20681818181818,
                "end_time": 33.40681818181818,
                "pitch": 38,
                "velocity": 80,
                "duration": 0.20000000000000284,
                "tempo": 120.0
            },
            {
                "start_time": 33.40681818181818,
                "end_time": 33.611363636363635,
                "pitch": 38,
                "velocity": 80,
                "duration": 0.20454545454545325,
                "tempo": 120.0
            },
            {
                "start_time": 33.61363636363636,
                "end_time": 33.81818181818181,
                "pitch": 38,
                "velocity": 80,
                "duration": 0.20454545454545325,
                "tempo": 120.0
            },
            {
                "start_time": 33.81818181818181,
                "end_time": 34.013636363636365,
                "pitch": 38,
                "velocity": 80,
                "duration": 0.19545454545455243,
                "tempo": 120.0
            },
            {
                "start_time": 34.01590909090909,
                "end_time": 34.211363636363636,
                "pitch": 38,
                "velocity": 80,
                "duration": 0.19545454545454533,
                "tempo": 120.0
            },
            {
                "start_time": 34.211363636363636,
                "end_time": 34.41590909090909,
                "pitch": 38,
                "velocity": 80,
                "duration": 0.20454545454545325,
                "tempo": 120.0
            },
            {
                "start_time": 34.41590909090909,
                "end_time": 34.62045454545454,
                "pitch": 38,
                "velocity": 80,
                "duration": 0.20454545454545325,
                "tempo": 120.0
            },
            {
                "start_time": 34.62272727272727,
                "end_time": 34.82272727272727,
                "pitch": 38,
                "velocity": 80,
                "duration": 0.20000000000000284,
                "tempo": 120.0
            },
            {
                "start_time": 34.82272727272727,
                "end_time": 35.02272727272727,
                "pitch": 38,
                "velocity": 80,
                "duration": 0.20000000000000284,
                "tempo": 120.0
            },
            {
                "start_time": 35.02272727272727,
                "end_time": 35.225,
                "pitch": 38,
                "velocity": 80,
                "duration": 0.20227272727272805,
                "tempo": 120.0
            },
            {
                "start_time": 35.225,
                "end_time": 35.425,
                "pitch": 31,
                "velocity": 80,
                "duration": 0.19999999999999574,
                "tempo": 120.0
            },
            {
                "start_time": 35.425,
                "end_time": 35.625,
                "pitch": 31,
                "velocity": 80,
                "duration": 0.20000000000000284,
                "tempo": 120.0
            },
            {
                "start_time": 35.625,
                "end_time": 35.824999999999996,
                "pitch": 31,
                "velocity": 80,
                "duration": 0.19999999999999574,
                "tempo": 120.0
            },
            {
                "start_time": 35.82727272727273,
                "end_time": 36.025,
                "pitch": 31,
                "velocity": 80,
                "duration": 0.19772727272727053,
                "tempo": 120.0
            },
            {
                "start_time": 36.027272727272724,
                "end_time": 36.225,
                "pitch": 31,
                "velocity": 80,
                "duration": 0.19772727272727764,
                "tempo": 120.0
            },
            {
                "start_time": 36.22727272727273,
                "end_time": 36.42727272727272,
                "pitch": 31,
                "velocity": 80,
                "duration": 0.19999999999999574,
                "tempo": 120.0
            },
            {
                "start_time": 36.42727272727272,
                "end_time": 36.627272727272725,
                "pitch": 31,
                "velocity": 80,
                "duration": 0.20000000000000284,
                "tempo": 120.0
            },
            {
                "start_time": 36.627272727272725,
                "end_time": 36.82727272727273,
                "pitch": 31,
                "velocity": 80,
                "duration": 0.20000000000000284,
                "tempo": 120.0
            },
            {
                "start_time": 36.82954545454545,
                "end_time": 37.027272727272724,
                "pitch": 28,
                "velocity": 80,
                "duration": 0.19772727272727053,
                "tempo": 120.0
            },
            {
                "start_time": 37.027272727272724,
                "end_time": 37.22954545454545,
                "pitch": 28,
                "velocity": 80,
                "duration": 0.20227272727272805,
                "tempo": 120.0
            },
            {
                "start_time": 37.22954545454545,
                "end_time": 37.429545454545455,
                "pitch": 28,
                "velocity": 80,
                "duration": 0.20000000000000284,
                "tempo": 120.0
            },
            {
                "start_time": 37.43181818181818,
                "end_time": 37.63181818181818,
                "pitch": 28,
                "velocity": 80,
                "duration": 0.20000000000000284,
                "tempo": 120.0
            },
            {
                "start_time": 37.63181818181818,
                "end_time": 37.83181818181818,
                "pitch": 28,
                "velocity": 80,
                "duration": 0.19999999999999574,
                "tempo": 120.0
            },
            {
                "start_time": 37.83181818181818,
                "end_time": 38.03181818181818,
                "pitch": 28,
                "velocity": 80,
                "duration": 0.20000000000000284,
                "tempo": 120.0
            },
            {
                "start_time": 38.03181818181818,
                "end_time": 38.23181818181818,
                "pitch": 28,
                "velocity": 80,
                "duration": 0.19999999999999574,
                "tempo": 120.0
            },
            {
                "start_time": 38.23181818181818,
                "end_time": 38.43181818181818,
                "pitch": 28,
                "velocity": 80,
                "duration": 0.20000000000000284,
                "tempo": 120.0
            },
            {
                "start_time": 38.43181818181818,
                "end_time": 38.63181818181818,
                "pitch": 28,
                "velocity": 80,
                "duration": 0.20000000000000284,
                "tempo": 120.0
            },
            {
                "start_time": 38.63409090909091,
                "end_time": 38.82272727272727,
                "pitch": 33,
                "velocity": 80,
                "duration": 0.1886363636363626,
                "tempo": 120.0
            },
            {
                "start_time": 38.82272727272727,
                "end_time": 39.027272727272724,
                "pitch": 33,
                "velocity": 80,
                "duration": 0.20454545454545325,
                "tempo": 120.0
            },
            {
                "start_time": 39.029545454545456,
                "end_time": 39.225,
                "pitch": 33,
                "velocity": 80,
                "duration": 0.19545454545454533,
                "tempo": 120.0
            },
            {
                "start_time": 39.22727272727273,
                "end_time": 39.42045454545455,
                "pitch": 33,
                "velocity": 80,
                "duration": 0.19318181818182012,
                "tempo": 120.0
            },
            {
                "start_time": 39.42272727272727,
                "end_time": 39.62272727272727,
                "pitch": 33,
                "velocity": 80,
                "duration": 0.19999999999999574,
                "tempo": 120.0
            },
            {
                "start_time": 39.62272727272727,
                "end_time": 39.820454545454545,
                "pitch": 33,
                "velocity": 80,
                "duration": 0.19772727272727764,
                "tempo": 120.0
            },
            {
                "start_time": 39.82272727272727,
                "end_time": 40.02272727272727,
                "pitch": 33,
                "velocity": 80,
                "duration": 0.20000000000000284,
                "tempo": 120.0
            },
            {
                "start_time": 40.02272727272727,
                "end_time": 40.22272727272727,
                "pitch": 33,
                "velocity": 80,
                "duration": 0.19999999999999574,
                "tempo": 120.0
            },
            {
                "start_time": 40.22272727272727,
                "end_time": 40.42272727272727,
                "pitch": 33,
                "velocity": 80,
                "duration": 0.20000000000000284,
                "tempo": 120.0
            },
            {
                "start_time": 40.42272727272727,
                "end_time": 40.62272727272727,
                "pitch": 33,
                "velocity": 80,
                "duration": 0.19999999999999574,
                "tempo": 120.0
            },
            {
                "start_time": 40.62272727272727,
                "end_time": 40.82272727272727,
                "pitch": 33,
                "velocity": 80,
                "duration": 0.20000000000000284,
                "tempo": 120.0
            },
            {
                "start_time": 40.82272727272727,
                "end_time": 41.02272727272727,
                "pitch": 33,
                "velocity": 80,
                "duration": 0.20000000000000284,
                "tempo": 120.0
            },
            {
                "start_time": 41.025,
                "end_time": 41.225,
                "pitch": 33,
                "velocity": 80,
                "duration": 0.20000000000000284,
                "tempo": 120.0
            },
            {
                "start_time": 41.225,
                "end_time": 41.425,
                "pitch": 33,
                "velocity": 80,
                "duration": 0.19999999999999574,
                "tempo": 120.0
            },
            {
                "start_time": 41.42727272727272,
                "end_time": 41.63181818181818,
                "pitch": 33,
                "velocity": 80,
                "duration": 0.20454545454546036,
                "tempo": 120.0
            },
            {
                "start_time": 41.63181818181818,
                "end_time": 41.836363636363636,
                "pitch": 33,
                "velocity": 80,
                "duration": 0.20454545454545325,
                "tempo": 120.0
            },
            {
                "start_time": 41.83863636363636,
                "end_time": 42.038636363636364,
                "pitch": 29,
                "velocity": 80,
                "duration": 0.20000000000000284,
                "tempo": 120.0
            },
            {
                "start_time": 42.038636363636364,
                "end_time": 42.23863636363636,
                "pitch": 29,
                "velocity": 80,
                "duration": 0.19999999999999574,
                "tempo": 120.0
            },
            {
                "start_time": 42.23863636363636,
                "end_time": 42.44090909090909,
                "pitch": 29,
                "velocity": 80,
                "duration": 0.20227272727272805,
                "tempo": 120.0
            },
            {
                "start_time": 42.44090909090909,
                "end_time": 42.64090909090909,
                "pitch": 29,
                "velocity": 80,
                "duration": 0.20000000000000284,
                "tempo": 120.0
            },
            {
                "start_time": 42.643181818181816,
                "end_time": 42.83863636363636,
                "pitch": 29,
                "velocity": 80,
                "duration": 0.19545454545454533,
                "tempo": 120.0
            },
            {
                "start_time": 42.83863636363636,
                "end_time": 43.03409090909091,
                "pitch": 29,
                "velocity": 80,
                "duration": 0.19545454545454533,
                "tempo": 120.0
            },
            {
                "start_time": 43.03636363636363,
                "end_time": 43.23863636363636,
                "pitch": 29,
                "velocity": 80,
                "duration": 0.20227272727272805,
                "tempo": 120.0
            },
            {
                "start_time": 43.23863636363636,
                "end_time": 43.44318181818181,
                "pitch": 29,
                "velocity": 80,
                "duration": 0.20454545454545325,
                "tempo": 120.0
            },
            {
                "start_time": 43.445454545454545,
                "end_time": 43.64545454545454,
                "pitch": 29,
                "velocity": 80,
                "duration": 0.19999999999999574,
                "tempo": 120.0
            },
            {
                "start_time": 43.64545454545454,
                "end_time": 43.845454545454544,
                "pitch": 29,
                "velocity": 80,
                "duration": 0.20000000000000284,
                "tempo": 120.0
            },
            {
                "start_time": 43.845454545454544,
                "end_time": 44.04545454545455,
                "pitch": 29,
                "velocity": 80,
                "duration": 0.20000000000000284,
                "tempo": 120.0
            },
            {
                "start_time": 44.04772727272727,
                "end_time": 44.24545454545454,
                "pitch": 29,
                "velocity": 80,
                "duration": 0.19772727272727053,
                "tempo": 120.0
            },
            {
                "start_time": 44.24772727272727,
                "end_time": 44.44772727272727,
                "pitch": 29,
                "velocity": 80,
                "duration": 0.20000000000000284,
                "tempo": 120.0
            },
            {
                "start_time": 44.44772727272727,
                "end_time": 44.65,
                "pitch": 29,
                "velocity": 80,
                "duration": 0.20227272727272805,
                "tempo": 120.0
            },
            {
                "start_time": 44.65,
                "end_time": 44.849999999999994,
                "pitch": 29,
                "velocity": 80,
                "duration": 0.19999999999999574,
                "tempo": 120.0
            },
            {
                "start_time": 44.849999999999994,
                "end_time": 45.05,
                "pitch": 29,
                "velocity": 80,
                "duration": 0.20000000000000284,
                "tempo": 120.0
            },
            {
                "start_time": 45.05,
                "end_time": 45.25,
                "pitch": 31,
                "velocity": 80,
                "duration": 0.20000000000000284,
                "tempo": 120.0
            },
            {
                "start_time": 45.252272727272725,
                "end_time": 45.449999999999996,
                "pitch": 31,
                "velocity": 80,
                "duration": 0.19772727272727053,
                "tempo": 120.0
            },
            {
                "start_time": 45.45227272727273,
                "end_time": 45.65,
                "pitch": 31,
                "velocity": 80,
                "duration": 0.19772727272727053,
                "tempo": 120.0
            },
            {
                "start_time": 45.652272727272724,
                "end_time": 45.849999999999994,
                "pitch": 31,
                "velocity": 80,
                "duration": 0.19772727272727053,
                "tempo": 120.0
            },
            {
                "start_time": 45.85227272727273,
                "end_time": 46.05227272727272,
                "pitch": 31,
                "velocity": 80,
                "duration": 0.19999999999999574,
                "tempo": 120.0
            },
            {
                "start_time": 46.05227272727272,
                "end_time": 46.252272727272725,
                "pitch": 31,
                "velocity": 80,
                "duration": 0.20000000000000284,
                "tempo": 120.0
            },
            {
                "start_time": 46.252272727272725,
                "end_time": 46.45227272727273,
                "pitch": 31,
                "velocity": 80,
                "duration": 0.20000000000000284,
                "tempo": 120.0
            },
            {
                "start_time": 46.45454545454545,
                "end_time": 46.65454545454545,
                "pitch": 31,
                "velocity": 80,
                "duration": 0.19999999999999574,
                "tempo": 120.0
            },
            {
                "start_time": 46.65454545454545,
                "end_time": 46.85454545454545,
                "pitch": 31,
                "velocity": 80,
                "duration": 0.20000000000000284,
                "tempo": 120.0
            },
            {
                "start_time": 46.85454545454545,
                "end_time": 47.054545454545455,
                "pitch": 31,
                "velocity": 80,
                "duration": 0.20000000000000284,
                "tempo": 120.0
            },
            {
                "start_time": 47.05681818181818,
                "end_time": 47.25454545454545,
                "pitch": 31,
                "velocity": 80,
                "duration": 0.19772727272727053,
                "tempo": 120.0
            },
            {
                "start_time": 47.25681818181818,
                "end_time": 47.45681818181818,
                "pitch": 31,
                "velocity": 80,
                "duration": 0.19999999999999574,
                "tempo": 120.0
            },
            {
                "start_time": 47.45681818181818,
                "end_time": 47.65681818181818,
                "pitch": 31,
                "velocity": 80,
                "duration": 0.20000000000000284,
                "tempo": 120.0
            },
            {
                "start_time": 47.65681818181818,
                "end_time": 47.85681818181818,
                "pitch": 31,
                "velocity": 80,
                "duration": 0.19999999999999574,
                "tempo": 120.0
            },
            {
                "start_time": 47.85681818181818,
                "end_time": 48.05681818181818,
                "pitch": 31,
                "velocity": 80,
                "duration": 0.20000000000000284,
                "tempo": 120.0
            },
            {
                "start_time": 48.05681818181818,
                "end_time": 48.25681818181818,
                "pitch": 31,
                "velocity": 80,
                "duration": 0.20000000000000284,
                "tempo": 120.0
            },
            {
                "start_time": 48.25909090909091,
                "end_time": 48.459090909090904,
                "pitch": 36,
                "velocity": 80,
                "duration": 0.19999999999999574,
                "tempo": 120.0
            },
            {
                "start_time": 48.459090909090904,
                "end_time": 48.65909090909091,
                "pitch": 36,
                "velocity": 80,
                "duration": 0.20000000000000284,
                "tempo": 120.0
            },
            {
                "start_time": 48.66136363636363,
                "end_time": 48.85909090909091,
                "pitch": 36,
                "velocity": 80,
                "duration": 0.19772727272727764,
                "tempo": 120.0
            },
            {
                "start_time": 48.861363636363635,
                "end_time": 49.06136363636364,
                "pitch": 36,
                "velocity": 80,
                "duration": 0.20000000000000284,
                "tempo": 120.0
            },
            {
                "start_time": 49.06136363636364,
                "end_time": 49.26136363636363,
                "pitch": 36,
                "velocity": 80,
                "duration": 0.19999999999999574,
                "tempo": 120.0
            },
            {
                "start_time": 49.26136363636363,
                "end_time": 49.461363636363636,
                "pitch": 36,
                "velocity": 80,
                "duration": 0.20000000000000284,
                "tempo": 120.0
            },
            {
                "start_time": 49.461363636363636,
                "end_time": 49.66590909090909,
                "pitch": 36,
                "velocity": 80,
                "duration": 0.20454545454545325,
                "tempo": 120.0
            },
            {
                "start_time": 49.66590909090909,
                "end_time": 49.87045454545454,
                "pitch": 36,
                "velocity": 80,
                "duration": 0.20454545454545325,
                "tempo": 120.0
            },
            {
                "start_time": 49.87272727272727,
                "end_time": 50.07272727272727,
                "pitch": 36,
                "velocity": 80,
                "duration": 0.20000000000000284,
                "tempo": 120.0
            },
            {
                "start_time": 50.074999999999996,
                "end_time": 50.275,
                "pitch": 36,
                "velocity": 80,
                "duration": 0.20000000000000284,
                "tempo": 120.0
            },
            {
                "start_time": 50.277272727272724,
                "end_time": 50.474999999999994,
                "pitch": 36,
                "velocity": 80,
                "duration": 0.19772727272727053,
                "tempo": 120.0
            },
            {
                "start_time": 50.47727272727273,
                "end_time": 50.67727272727272,
                "pitch": 36,
                "velocity": 80,
                "duration": 0.19999999999999574,
                "tempo": 120.0
            },
            {
                "start_time": 50.67727272727272,
                "end_time": 50.877272727272725,
                "pitch": 36,
                "velocity": 80,
                "duration": 0.20000000000000284,
                "tempo": 120.0
            },
            {
                "start_time": 50.877272727272725,
                "end_time": 51.07727272727273,
                "pitch": 36,
                "velocity": 80,
                "duration": 0.20000000000000284,
                "tempo": 120.0
            },
            {
                "start_time": 51.07727272727273,
                "end_time": 51.277272727272724,
                "pitch": 36,
                "velocity": 80,
                "duration": 0.19999999999999574,
                "tempo": 120.0
            },
            {
                "start_time": 51.277272727272724,
                "end_time": 51.47727272727273,
                "pitch": 36,
                "velocity": 80,
                "duration": 0.20000000000000284,
                "tempo": 120.0
            },
            {
                "start_time": 51.47954545454545,
                "end_time": 51.67727272727272,
                "pitch": 38,
                "velocity": 80,
                "duration": 0.19772727272727053,
                "tempo": 120.0
            },
            {
                "start_time": 51.679545454545455,
                "end_time": 51.877272727272725,
                "pitch": 38,
                "velocity": 80,
                "duration": 0.19772727272727053,
                "tempo": 120.0
            },
            {
                "start_time": 51.87954545454545,
                "end_time": 52.07954545454545,
                "pitch": 38,
                "velocity": 80,
                "duration": 0.20000000000000284,
                "tempo": 120.0
            },
            {
                "start_time": 52.08181818181818,
                "end_time": 52.28181818181818,
                "pitch": 38,
                "velocity": 80,
                "duration": 0.20000000000000284,
                "tempo": 120.0
            },
            {
                "start_time": 52.28181818181818,
                "end_time": 52.48181818181818,
                "pitch": 38,
                "velocity": 80,
                "duration": 0.19999999999999574,
                "tempo": 120.0
            },
            {
                "start_time": 52.48181818181818,
                "end_time": 52.68181818181818,
                "pitch": 38,
                "velocity": 80,
                "duration": 0.20000000000000284,
                "tempo": 120.0
            },
            {
                "start_time": 52.68181818181818,
                "end_time": 52.88181818181818,
                "pitch": 38,
                "velocity": 80,
                "duration": 0.20000000000000284,
                "tempo": 120.0
            },
            {
                "start_time": 52.88181818181818,
                "end_time": 53.08181818181818,
                "pitch": 38,
                "velocity": 80,
                "duration": 0.19999999999999574,
                "tempo": 120.0
            },
            {
                "start_time": 53.084090909090904,
                "end_time": 53.28181818181818,
                "pitch": 38,
                "velocity": 80,
                "duration": 0.19772727272727764,
                "tempo": 120.0
            },
            {
                "start_time": 53.28181818181818,
                "end_time": 53.48181818181818,
                "pitch": 38,
                "velocity": 80,
                "duration": 0.19999999999999574,
                "tempo": 120.0
            },
            {
                "start_time": 53.48181818181818,
                "end_time": 53.68181818181818,
                "pitch": 38,
                "velocity": 80,
                "duration": 0.20000000000000284,
                "tempo": 120.0
            },
            {
                "start_time": 53.684090909090905,
                "end_time": 53.88181818181818,
                "pitch": 38,
                "velocity": 80,
                "duration": 0.19772727272727764,
                "tempo": 120.0
            },
            {
                "start_time": 53.88409090909091,
                "end_time": 54.084090909090904,
                "pitch": 38,
                "velocity": 80,
                "duration": 0.19999999999999574,
                "tempo": 120.0
            },
            {
                "start_time": 54.084090909090904,
                "end_time": 54.28636363636363,
                "pitch": 38,
                "velocity": 80,
                "duration": 0.20227272727272805,
                "tempo": 120.0
            },
            {
                "start_time": 54.28636363636363,
                "end_time": 54.486363636363635,
                "pitch": 38,
                "velocity": 80,
                "duration": 0.20000000000000284,
                "tempo": 120.0
            },
            {
                "start_time": 54.486363636363635,
                "end_time": 54.68636363636363,
                "pitch": 38,
                "velocity": 80,
                "duration": 0.19999999999999574,
                "tempo": 120.0
            },
            {
                "start_time": 54.68863636363636,
                "end_time": 54.88636363636363,
                "pitch": 36,
                "velocity": 80,
                "duration": 0.19772727272727053,
                "tempo": 120.0
            },
            {
                "start_time": 54.88863636363636,
                "end_time": 55.08863636363636,
                "pitch": 36,
                "velocity": 80,
                "duration": 0.20000000000000284,
                "tempo": 120.0
            },
            {
                "start_time": 55.08863636363636,
                "end_time": 55.288636363636364,
                "pitch": 36,
                "velocity": 80,
                "duration": 0.20000000000000284,
                "tempo": 120.0
            },
            {
                "start_time": 55.288636363636364,
                "end_time": 55.48863636363636,
                "pitch": 36,
                "velocity": 80,
                "duration": 0.19999999999999574,
                "tempo": 120.0
            },
            {
                "start_time": 55.48863636363636,
                "end_time": 55.68863636363636,
                "pitch": 36,
                "velocity": 80,
                "duration": 0.20000000000000284,
                "tempo": 120.0
            },
            {
                "start_time": 55.68863636363636,
                "end_time": 55.88863636363636,
                "pitch": 36,
                "velocity": 80,
                "duration": 0.19999999999999574,
                "tempo": 120.0
            },
            {
                "start_time": 55.88863636363636,
                "end_time": 56.090909090909086,
                "pitch": 36,
                "velocity": 80,
                "duration": 0.20227272727272805,
                "tempo": 120.0
            },
            {
                "start_time": 56.090909090909086,
                "end_time": 56.29090909090909,
                "pitch": 36,
                "velocity": 80,
                "duration": 0.20000000000000284,
                "tempo": 120.0
            },
            {
                "start_time": 56.293181818181814,
                "end_time": 56.490909090909085,
                "pitch": 36,
                "velocity": 80,
                "duration": 0.19772727272727053,
                "tempo": 120.0
            },
            {
                "start_time": 56.49318181818182,
                "end_time": 56.69090909090909,
                "pitch": 36,
                "velocity": 80,
                "duration": 0.19772727272727053,
                "tempo": 120.0
            },
            {
                "start_time": 56.69318181818181,
                "end_time": 56.89090909090909,
                "pitch": 36,
                "velocity": 80,
                "duration": 0.19772727272727764,
                "tempo": 120.0
            },
            {
                "start_time": 56.893181818181816,
                "end_time": 57.09318181818182,
                "pitch": 36,
                "velocity": 80,
                "duration": 0.20000000000000284,
                "tempo": 120.0
            },
            {
                "start_time": 57.09318181818182,
                "end_time": 57.293181818181814,
                "pitch": 36,
                "velocity": 80,
                "duration": 0.19999999999999574,
                "tempo": 120.0
            },
            {
                "start_time": 57.293181818181814,
                "end_time": 57.49318181818182,
                "pitch": 36,
                "velocity": 80,
                "duration": 0.20000000000000284,
                "tempo": 120.0
            },
            {
                "start_time": 57.49318181818182,
                "end_time": 57.69772727272727,
                "pitch": 36,
                "velocity": 80,
                "duration": 0.20454545454545325,
                "tempo": 120.0
            },
            {
                "start_time": 57.69772727272727,
                "end_time": 57.90454545454545,
                "pitch": 36,
                "velocity": 80,
                "duration": 0.20681818181817846,
                "tempo": 120.0
            },
            {
                "start_time": 57.90454545454545,
                "end_time": 58.10454545454545,
                "pitch": 38,
                "velocity": 80,
                "duration": 0.20000000000000284,
                "tempo": 120.0
            },
            {
                "start_time": 58.10681818181818,
                "end_time": 58.304545454545455,
                "pitch": 38,
                "velocity": 80,
                "duration": 0.19772727272727764,
                "tempo": 120.0
            },
            {
                "start_time": 58.30681818181818,
                "end_time": 58.50454545454545,
                "pitch": 38,
                "velocity": 80,
                "duration": 0.19772727272727053,
                "tempo": 120.0
            },
            {
                "start_time": 58.506818181818176,
                "end_time": 58.70681818181818,
                "pitch": 38,
                "velocity": 80,
                "duration": 0.20000000000000284,
                "tempo": 120.0
            },
            {
                "start_time": 58.70681818181818,
                "end_time": 58.90681818181818,
                "pitch": 38,
                "velocity": 80,
                "duration": 0.20000000000000284,
                "tempo": 120.0
            },
            {
                "start_time": 58.90681818181818,
                "end_time": 59.10681818181818,
                "pitch": 38,
                "velocity": 80,
                "duration": 0.19999999999999574,
                "tempo": 120.0
            },
            {
                "start_time": 59.10681818181818,
                "end_time": 59.30681818181818,
                "pitch": 38,
                "velocity": 80,
                "duration": 0.20000000000000284,
                "tempo": 120.0
            },
            {
                "start_time": 59.30681818181818,
                "end_time": 59.506818181818176,
                "pitch": 35,
                "velocity": 80,
                "duration": 0.19999999999999574,
                "tempo": 120.0
            },
            {
                "start_time": 59.506818181818176,
                "end_time": 59.709090909090904,
                "pitch": 35,
                "velocity": 80,
                "duration": 0.20227272727272805,
                "tempo": 120.0
            },
            {
                "start_time": 59.709090909090904,
                "end_time": 59.90909090909091,
                "pitch": 35,
                "velocity": 80,
                "duration": 0.20000000000000284,
                "tempo": 120.0
            },
            {
                "start_time": 59.91136363636363,
                "end_time": 60.111363636363635,
                "pitch": 35,
                "velocity": 80,
                "duration": 0.20000000000000284,
                "tempo": 120.0
            },
            {
                "start_time": 60.111363636363635,
                "end_time": 60.309090909090905,
                "pitch": 35,
                "velocity": 80,
                "duration": 0.19772727272727053,
                "tempo": 120.0
            },
            {
                "start_time": 60.31136363636363,
                "end_time": 60.51136363636363,
                "pitch": 35,
                "velocity": 80,
                "duration": 0.20000000000000284,
                "tempo": 120.0
            },
            {
                "start_time": 60.51136363636363,
                "end_time": 60.711363636363636,
                "pitch": 35,
                "velocity": 80,
                "duration": 0.20000000000000284,
                "tempo": 120.0
            },
            {
                "start_time": 60.711363636363636,
                "end_time": 60.91136363636363,
                "pitch": 35,
                "velocity": 80,
                "duration": 0.19999999999999574,
                "tempo": 120.0
            },
            {
                "start_time": 60.91136363636363,
                "end_time": 61.111363636363635,
                "pitch": 28,
                "velocity": 80,
                "duration": 0.20000000000000284,
                "tempo": 120.0
            },
            {
                "start_time": 61.111363636363635,
                "end_time": 61.31136363636363,
                "pitch": 28,
                "velocity": 80,
                "duration": 0.19999999999999574,
                "tempo": 120.0
            },
            {
                "start_time": 61.31136363636363,
                "end_time": 61.51136363636363,
                "pitch": 28,
                "velocity": 80,
                "duration": 0.20000000000000284,
                "tempo": 120.0
            },
            {
                "start_time": 61.51136363636363,
                "end_time": 61.71363636363636,
                "pitch": 28,
                "velocity": 80,
                "duration": 0.20227272727272805,
                "tempo": 120.0
            },
            {
                "start_time": 61.71363636363636,
                "end_time": 61.913636363636364,
                "pitch": 28,
                "velocity": 80,
                "duration": 0.20000000000000284,
                "tempo": 120.0
            },
            {
                "start_time": 61.91590909090909,
                "end_time": 62.115909090909085,
                "pitch": 28,
                "velocity": 80,
                "duration": 0.19999999999999574,
                "tempo": 120.0
            },
            {
                "start_time": 62.115909090909085,
                "end_time": 62.31590909090909,
                "pitch": 28,
                "velocity": 80,
                "duration": 0.20000000000000284,
                "tempo": 120.0
            },
            {
                "start_time": 62.31590909090909,
                "end_time": 62.51590909090909,
                "pitch": 28,
                "velocity": 80,
                "duration": 0.20000000000000284,
                "tempo": 120.0
            },
            {
                "start_time": 62.518181818181816,
                "end_time": 62.91590909090909,
                "pitch": 28,
                "velocity": 80,
                "duration": 0.3977272727272734,
                "tempo": 120.0
            },
            {
                "start_time": 62.91590909090909,
                "end_time": 63.115909090909085,
                "pitch": 28,
                "velocity": 80,
                "duration": 0.19999999999999574,
                "tempo": 120.0
            },
            {
                "start_time": 63.115909090909085,
                "end_time": 63.31590909090909,
                "pitch": 28,
                "velocity": 80,
                "duration": 0.20000000000000284,
                "tempo": 120.0
            },
            {
                "start_time": 63.31590909090909,
                "end_time": 63.51590909090909,
                "pitch": 28,
                "velocity": 80,
                "duration": 0.20000000000000284,
                "tempo": 120.0
            },
            {
                "start_time": 63.518181818181816,
                "end_time": 63.71818181818181,
                "pitch": 28,
                "velocity": 80,
                "duration": 0.19999999999999574,
                "tempo": 120.0
            },
            {
                "start_time": 63.71818181818181,
                "end_time": 63.92045454545454,
                "pitch": 28,
                "velocity": 80,
                "duration": 0.20227272727272805,
                "tempo": 120.0
            },
            {
                "start_time": 63.92045454545454,
                "end_time": 64.125,
                "pitch": 28,
                "velocity": 80,
                "duration": 0.20454545454546036,
                "tempo": 120.0
            },
            {
                "start_time": 64.125,
                "end_time": 64.32954545454545,
                "pitch": 28,
                "velocity": 80,
                "duration": 0.20454545454545325,
                "tempo": 120.0
            },
            {
                "start_time": 64.725,
                "end_time": 65.32727272727273,
                "pitch": 29,
                "velocity": 80,
                "duration": 0.6022727272727337,
                "tempo": 120.0
            },
            {
                "start_time": 65.32727272727273,
                "end_time": 65.52727272727273,
                "pitch": 29,
                "velocity": 80,
                "duration": 0.20000000000000284,
                "tempo": 120.0
            },
            {
                "start_time": 65.52727272727273,
                "end_time": 65.73181818181818,
                "pitch": 33,
                "velocity": 80,
                "duration": 0.20454545454545325,
                "tempo": 120.0
            },
            {
                "start_time": 65.73409090909091,
                "end_time": 65.93863636363636,
                "pitch": 36,
                "velocity": 80,
                "duration": 0.20454545454545325,
                "tempo": 120.0
            },
            {
                "start_time": 65.93863636363636,
                "end_time": 66.14090909090909,
                "pitch": 31,
                "velocity": 80,
                "duration": 0.20227272727272805,
                "tempo": 120.0
            },
            {
                "start_time": 66.14090909090909,
                "end_time": 66.3409090909091,
                "pitch": 43,
                "velocity": 80,
                "duration": 0.20000000000000284,
                "tempo": 120.0
            },
            {
                "start_time": 66.34318181818182,
                "end_time": 66.54318181818182,
                "pitch": 38,
                "velocity": 80,
                "duration": 0.20000000000000284,
                "tempo": 120.0
            },
            {
                "start_time": 66.54545454545455,
                "end_time": 66.74545454545454,
                "pitch": 35,
                "velocity": 80,
                "duration": 0.19999999999998863,
                "tempo": 120.0
            },
            {
                "start_time": 66.74545454545454,
                "end_time": 66.94545454545454,
                "pitch": 31,
                "velocity": 80,
                "duration": 0.20000000000000284,
                "tempo": 120.0
            },
            {
                "start_time": 66.94772727272726,
                "end_time": 67.14545454545454,
                "pitch": 33,
                "velocity": 80,
                "duration": 0.19772727272727764,
                "tempo": 120.0
            },
            {
                "start_time": 67.14545454545454,
                "end_time": 67.34772727272727,
                "pitch": 35,
                "velocity": 80,
                "duration": 0.20227272727272805,
                "tempo": 120.0
            },
            {
                "start_time": 67.34772727272727,
                "end_time": 67.55,
                "pitch": 31,
                "velocity": 80,
                "duration": 0.20227272727272805,
                "tempo": 120.0
            },
            {
                "start_time": 67.55,
                "end_time": 67.75,
                "pitch": 36,
                "velocity": 80,
                "duration": 0.20000000000000284,
                "tempo": 120.0
            },
            {
                "start_time": 67.75,
                "end_time": 67.95,
                "pitch": 36,
                "velocity": 80,
                "duration": 0.20000000000000284,
                "tempo": 120.0
            },
            {
                "start_time": 67.95,
                "end_time": 68.15227272727273,
                "pitch": 36,
                "velocity": 80,
                "duration": 0.20227272727272805,
                "tempo": 120.0
            },
            {
                "start_time": 68.15227272727273,
                "end_time": 68.55454545454545,
                "pitch": 35,
                "velocity": 80,
                "duration": 0.4022727272727167,
                "tempo": 120.0
            },
            {
                "start_time": 68.55454545454545,
                "end_time": 68.75681818181818,
                "pitch": 35,
                "velocity": 80,
                "duration": 0.20227272727272805,
                "tempo": 120.0
            },
            {
                "start_time": 68.75681818181818,
                "end_time": 68.95681818181818,
                "pitch": 35,
                "velocity": 80,
                "duration": 0.20000000000000284,
                "tempo": 120.0
            },
            {
                "start_time": 68.95681818181818,
                "end_time": 69.15681818181818,
                "pitch": 35,
                "velocity": 80,
                "duration": 0.20000000000000284,
                "tempo": 120.0
            },
            {
                "start_time": 69.15681818181818,
                "end_time": 69.35909090909091,
                "pitch": 33,
                "velocity": 80,
                "duration": 0.20227272727272805,
                "tempo": 120.0
            },
            {
                "start_time": 69.35909090909091,
                "end_time": 69.55909090909091,
                "pitch": 33,
                "velocity": 80,
                "duration": 0.20000000000000284,
                "tempo": 120.0
            },
            {
                "start_time": 69.56136363636364,
                "end_time": 69.76136363636363,
                "pitch": 33,
                "velocity": 80,
                "duration": 0.19999999999998863,
                "tempo": 120.0
            },
            {
                "start_time": 69.76136363636363,
                "end_time": 70.16136363636363,
                "pitch": 31,
                "velocity": 80,
                "duration": 0.4000000000000057,
                "tempo": 120.0
            },
            {
                "start_time": 70.16363636363636,
                "end_time": 70.36363636363636,
                "pitch": 31,
                "velocity": 80,
                "duration": 0.20000000000000284,
                "tempo": 120.0
            },
            {
                "start_time": 70.36363636363636,
                "end_time": 70.56363636363636,
                "pitch": 31,
                "velocity": 80,
                "duration": 0.20000000000000284,
                "tempo": 120.0
            },
            {
                "start_time": 70.56590909090909,
                "end_time": 70.76818181818182,
                "pitch": 31,
                "velocity": 80,
                "duration": 0.20227272727272805,
                "tempo": 120.0
            },
            {
                "start_time": 70.76818181818182,
                "end_time": 70.97045454545454,
                "pitch": 29,
                "velocity": 80,
                "duration": 0.20227272727272805,
                "tempo": 120.0
            },
            {
                "start_time": 70.97272727272727,
                "end_time": 71.17727272727272,
                "pitch": 29,
                "velocity": 80,
                "duration": 0.20454545454545325,
                "tempo": 120.0
            },
            {
                "start_time": 71.17727272727272,
                "end_time": 71.375,
                "pitch": 33,
                "velocity": 80,
                "duration": 0.19772727272727764,
                "tempo": 120.0
            },
            {
                "start_time": 71.375,
                "end_time": 71.57045454545454,
                "pitch": 36,
                "velocity": 80,
                "duration": 0.19545454545453822,
                "tempo": 120.0
            },
            {
                "start_time": 71.57045454545454,
                "end_time": 71.77045454545454,
                "pitch": 41,
                "velocity": 80,
                "duration": 0.20000000000000284,
                "tempo": 120.0
            },
            {
                "start_time": 71.77272727272727,
                "end_time": 71.97045454545454,
                "pitch": 29,
                "velocity": 80,
                "duration": 0.19772727272727764,
                "tempo": 120.0
            },
            {
                "start_time": 71.97272727272727,
                "end_time": 72.17272727272727,
                "pitch": 36,
                "velocity": 80,
                "duration": 0.20000000000000284,
                "tempo": 120.0
            },
            {
                "start_time": 72.17272727272727,
                "end_time": 72.575,
                "pitch": 28,
                "velocity": 80,
                "duration": 0.4022727272727309,
                "tempo": 120.0
            },
            {
                "start_time": 72.57727272727273,
                "end_time": 72.77727272727272,
                "pitch": 29,
                "velocity": 80,
                "duration": 0.19999999999998863,
                "tempo": 120.0
            },
            {
                "start_time": 72.77954545454546,
                "end_time": 72.98409090909091,
                "pitch": 32,
                "velocity": 80,
                "duration": 0.20454545454545325,
                "tempo": 120.0
            },
            {
                "start_time": 72.98409090909091,
                "end_time": 73.18863636363636,
                "pitch": 35,
                "velocity": 80,
                "duration": 0.20454545454545325,
                "tempo": 120.0
            },
            {
                "start_time": 73.18863636363636,
                "end_time": 73.38636363636363,
                "pitch": 38,
                "velocity": 80,
                "duration": 0.19772727272726343,
                "tempo": 120.0
            },
            {
                "start_time": 73.38636363636363,
                "end_time": 73.58181818181818,
                "pitch": 41,
                "velocity": 80,
                "duration": 0.19545454545455243,
                "tempo": 120.0
            },
            {
                "start_time": 73.58181818181818,
                "end_time": 73.78181818181818,
                "pitch": 40,
                "velocity": 80,
                "duration": 0.20000000000000284,
                "tempo": 120.0
            },
            {
                "start_time": 73.78181818181818,
                "end_time": 73.98181818181818,
                "pitch": 38,
                "velocity": 80,
                "duration": 0.20000000000000284,
                "tempo": 120.0
            },
            {
                "start_time": 73.98409090909091,
                "end_time": 74.18636363636364,
                "pitch": 33,
                "velocity": 80,
                "duration": 0.20227272727272805,
                "tempo": 120.0
            },
            {
                "start_time": 74.18863636363636,
                "end_time": 74.39318181818182,
                "pitch": 35,
                "velocity": 80,
                "duration": 0.20454545454545325,
                "tempo": 120.0
            },
            {
                "start_time": 74.39318181818182,
                "end_time": 74.59318181818182,
                "pitch": 36,
                "velocity": 80,
                "duration": 0.20000000000000284,
                "tempo": 120.0
            },
            {
                "start_time": 74.59545454545454,
                "end_time": 74.79545454545455,
                "pitch": 33,
                "velocity": 80,
                "duration": 0.20000000000000284,
                "tempo": 120.0
            },
            {
                "start_time": 74.79545454545455,
                "end_time": 74.99545454545454,
                "pitch": 31,
                "velocity": 80,
                "duration": 0.19999999999998863,
                "tempo": 120.0
            },
            {
                "start_time": 74.99545454545454,
                "end_time": 75.19772727272726,
                "pitch": 33,
                "velocity": 80,
                "duration": 0.20227272727272805,
                "tempo": 120.0
            },
            {
                "start_time": 75.19772727272726,
                "end_time": 75.39999999999999,
                "pitch": 35,
                "velocity": 80,
                "duration": 0.20227272727272805,
                "tempo": 120.0
            },
            {
                "start_time": 75.39999999999999,
                "end_time": 75.6,
                "pitch": 26,
                "velocity": 80,
                "duration": 0.20000000000000284,
                "tempo": 120.0
            },
            {
                "start_time": 75.6,
                "end_time": 75.8,
                "pitch": 26,
                "velocity": 80,
                "duration": 0.20000000000000284,
                "tempo": 120.0
            },
            {
                "start_time": 75.80227272727272,
                "end_time": 76.0,
                "pitch": 33,
                "velocity": 80,
                "duration": 0.19772727272727764,
                "tempo": 120.0
            },
            {
                "start_time": 76.00227272727273,
                "end_time": 76.20227272727273,
                "pitch": 38,
                "velocity": 80,
                "duration": 0.20000000000000284,
                "tempo": 120.0
            },
            {
                "start_time": 76.20454545454545,
                "end_time": 76.40454545454546,
                "pitch": 28,
                "velocity": 80,
                "duration": 0.20000000000000284,
                "tempo": 120.0
            },
            {
                "start_time": 76.40454545454546,
                "end_time": 76.60454545454544,
                "pitch": 28,
                "velocity": 80,
                "duration": 0.19999999999998863,
                "tempo": 120.0
            },
            {
                "start_time": 76.60454545454544,
                "end_time": 76.80454545454545,
                "pitch": 35,
                "velocity": 80,
                "duration": 0.20000000000000284,
                "tempo": 120.0
            },
            {
                "start_time": 76.80454545454545,
                "end_time": 77.00681818181818,
                "pitch": 32,
                "velocity": 80,
                "duration": 0.20227272727272805,
                "tempo": 120.0
            },
            {
                "start_time": 77.00681818181818,
                "end_time": 77.20681818181818,
                "pitch": 28,
                "velocity": 80,
                "duration": 0.20000000000000284,
                "tempo": 120.0
            },
            {
                "start_time": 77.61136363636363,
                "end_time": 78.21363636363635,
                "pitch": 29,
                "velocity": 80,
                "duration": 0.6022727272727195,
                "tempo": 120.0
            },
            {
                "start_time": 78.21363636363635,
                "end_time": 78.41590909090908,
                "pitch": 29,
                "velocity": 80,
                "duration": 0.20227272727272805,
                "tempo": 120.0
            },
            {
                "start_time": 78.41590909090908,
                "end_time": 78.61590909090908,
                "pitch": 33,
                "velocity": 80,
                "duration": 0.20000000000000284,
                "tempo": 120.0
            },
            {
                "start_time": 78.61590909090908,
                "end_time": 78.81590909090909,
                "pitch": 36,
                "velocity": 80,
                "duration": 0.20000000000000284,
                "tempo": 120.0
            },
            {
                "start_time": 78.81590909090909,
                "end_time": 79.01818181818182,
                "pitch": 31,
                "velocity": 80,
                "duration": 0.20227272727272805,
                "tempo": 120.0
            },
            {
                "start_time": 79.01818181818182,
                "end_time": 79.21818181818182,
                "pitch": 43,
                "velocity": 80,
                "duration": 0.20000000000000284,
                "tempo": 120.0
            },
            {
                "start_time": 79.21818181818182,
                "end_time": 79.42045454545455,
                "pitch": 38,
                "velocity": 80,
                "duration": 0.20227272727272805,
                "tempo": 120.0
            },
            {
                "start_time": 79.42045454545455,
                "end_time": 79.62045454545454,
                "pitch": 35,
                "velocity": 80,
                "duration": 0.19999999999998863,
                "tempo": 120.0
            },
            {
                "start_time": 79.62272727272727,
                "end_time": 79.82727272727273,
                "pitch": 31,
                "velocity": 80,
                "duration": 0.20454545454545325,
                "tempo": 120.0
            },
            {
                "start_time": 79.82727272727273,
                "end_time": 80.03181818181818,
                "pitch": 33,
                "velocity": 80,
                "duration": 0.20454545454545325,
                "tempo": 120.0
            },
            {
                "start_time": 80.03181818181818,
                "end_time": 80.23409090909091,
                "pitch": 35,
                "velocity": 80,
                "duration": 0.20227272727272805,
                "tempo": 120.0
            },
            {
                "start_time": 80.23409090909091,
                "end_time": 80.43409090909091,
                "pitch": 31,
                "velocity": 80,
                "duration": 0.20000000000000284,
                "tempo": 120.0
            },
            {
                "start_time": 80.43409090909091,
                "end_time": 80.63181818181818,
                "pitch": 36,
                "velocity": 80,
                "duration": 0.19772727272726343,
                "tempo": 120.0
            },
            {
                "start_time": 80.63181818181818,
                "end_time": 80.82727272727273,
                "pitch": 36,
                "velocity": 80,
                "duration": 0.19545454545455243,
                "tempo": 120.0
            },
            {
                "start_time": 80.82727272727273,
                "end_time": 81.03181818181818,
                "pitch": 36,
                "velocity": 80,
                "duration": 0.20454545454545325,
                "tempo": 120.0
            },
            {
                "start_time": 81.03181818181818,
                "end_time": 81.43863636363636,
                "pitch": 35,
                "velocity": 80,
                "duration": 0.4068181818181813,
                "tempo": 120.0
            },
            {
                "start_time": 81.43863636363636,
                "end_time": 81.63863636363637,
                "pitch": 35,
                "velocity": 80,
                "duration": 0.20000000000000284,
                "tempo": 120.0
            },
            {
                "start_time": 81.63863636363637,
                "end_time": 81.83863636363635,
                "pitch": 35,
                "velocity": 80,
                "duration": 0.19999999999998863,
                "tempo": 120.0
            },
            {
                "start_time": 81.8409090909091,
                "end_time": 82.04090909090908,
                "pitch": 35,
                "velocity": 80,
                "duration": 0.19999999999998863,
                "tempo": 120.0
            },
            {
                "start_time": 82.04318181818181,
                "end_time": 82.24318181818181,
                "pitch": 33,
                "velocity": 80,
                "duration": 0.20000000000000284,
                "tempo": 120.0
            },
            {
                "start_time": 82.24318181818181,
                "end_time": 82.44090909090909,
                "pitch": 33,
                "velocity": 80,
                "duration": 0.19772727272727764,
                "tempo": 120.0
            },
            {
                "start_time": 82.44318181818181,
                "end_time": 82.64318181818182,
                "pitch": 33,
                "velocity": 80,
                "duration": 0.20000000000000284,
                "tempo": 120.0
            },
            {
                "start_time": 82.64545454545454,
                "end_time": 83.04772727272727,
                "pitch": 31,
                "velocity": 80,
                "duration": 0.4022727272727309,
                "tempo": 120.0
            },
            {
                "start_time": 83.04772727272727,
                "end_time": 83.24772727272727,
                "pitch": 31,
                "velocity": 80,
                "duration": 0.20000000000000284,
                "tempo": 120.0
            },
            {
                "start_time": 83.24772727272727,
                "end_time": 83.44772727272726,
                "pitch": 31,
                "velocity": 80,
                "duration": 0.19999999999998863,
                "tempo": 120.0
            },
            {
                "start_time": 83.45,
                "end_time": 83.64999999999999,
                "pitch": 31,
                "velocity": 80,
                "duration": 0.19999999999998863,
                "tempo": 120.0
            },
            {
                "start_time": 83.64999999999999,
                "end_time": 83.85,
                "pitch": 29,
                "velocity": 80,
                "duration": 0.20000000000000284,
                "tempo": 120.0
            },
            {
                "start_time": 83.85227272727272,
                "end_time": 84.05227272727272,
                "pitch": 29,
                "velocity": 80,
                "duration": 0.20000000000000284,
                "tempo": 120.0
            },
            {
                "start_time": 84.05227272727272,
                "end_time": 84.25227272727273,
                "pitch": 33,
                "velocity": 80,
                "duration": 0.20000000000000284,
                "tempo": 120.0
            },
            {
                "start_time": 84.25227272727273,
                "end_time": 84.45227272727273,
                "pitch": 36,
                "velocity": 80,
                "duration": 0.20000000000000284,
                "tempo": 120.0
            },
            {
                "start_time": 84.45227272727273,
                "end_time": 84.65454545454546,
                "pitch": 41,
                "velocity": 80,
                "duration": 0.20227272727272805,
                "tempo": 120.0
            },
            {
                "start_time": 84.65454545454546,
                "end_time": 84.85681818181818,
                "pitch": 33,
                "velocity": 80,
                "duration": 0.20227272727272805,
                "tempo": 120.0
            },
            {
                "start_time": 84.85681818181818,
                "end_time": 85.05681818181817,
                "pitch": 36,
                "velocity": 80,
                "duration": 0.19999999999998863,
                "tempo": 120.0
            },
            {
                "start_time": 85.0590909090909,
                "end_time": 85.4590909090909,
                "pitch": 28,
                "velocity": 80,
                "duration": 0.4000000000000057,
                "tempo": 120.0
            },
            {
                "start_time": 85.46136363636363,
                "end_time": 85.6590909090909,
                "pitch": 40,
                "velocity": 80,
                "duration": 0.19772727272727764,
                "tempo": 120.0
            },
            {
                "start_time": 85.66136363636363,
                "end_time": 85.86136363636363,
                "pitch": 38,
                "velocity": 80,
                "duration": 0.20000000000000284,
                "tempo": 120.0
            },
            {
                "start_time": 85.86136363636363,
                "end_time": 86.06363636363636,
                "pitch": 35,
                "velocity": 80,
                "duration": 0.20227272727272805,
                "tempo": 120.0
            },
            {
                "start_time": 86.06363636363636,
                "end_time": 86.26136363636363,
                "pitch": 32,
                "velocity": 80,
                "duration": 0.19772727272726343,
                "tempo": 120.0
            },
            {
                "start_time": 86.26136363636363,
                "end_time": 86.46136363636363,
                "pitch": 35,
                "velocity": 80,
                "duration": 0.20000000000000284,
                "tempo": 120.0
            },
            {
                "start_time": 86.46136363636363,
                "end_time": 86.66590909090908,
                "pitch": 28,
                "velocity": 80,
                "duration": 0.20454545454545325,
                "tempo": 120.0
            },
            {
                "start_time": 86.66590909090908,
                "end_time": 87.07045454545454,
                "pitch": 28,
                "velocity": 80,
                "duration": 0.4045454545454561,
                "tempo": 120.0
            },
            {
                "start_time": 87.07272727272726,
                "end_time": 87.27727272727272,
                "pitch": 29,
                "velocity": 80,
                "duration": 0.20454545454545325,
                "tempo": 120.0
            },
            {
                "start_time": 87.27727272727272,
                "end_time": 87.475,
                "pitch": 32,
                "velocity": 80,
                "duration": 0.19772727272727764,
                "tempo": 120.0
            },
            {
                "start_time": 87.475,
                "end_time": 87.67045454545455,
                "pitch": 35,
                "velocity": 80,
                "duration": 0.19545454545455243,
                "tempo": 120.0
            },
            {
                "start_time": 87.67272727272727,
                "end_time": 87.87272727272727,
                "pitch": 38,
                "velocity": 80,
                "duration": 0.20000000000000284,
                "tempo": 120.0
            },
            {
                "start_time": 88.07499999999999,
                "end_time": 88.27499999999999,
                "pitch": 28,
                "velocity": 80,
                "duration": 0.20000000000000284,
                "tempo": 120.0
            },
            {
                "start_time": 88.27499999999999,
                "end_time": 88.675,
                "pitch": 33,
                "velocity": 80,
                "duration": 0.4000000000000057,
                "tempo": 120.0
            },
            {
                "start_time": 88.675,
                "end_time": 88.87727272727273,
                "pitch": 33,
                "velocity": 80,
                "duration": 0.20227272727272805,
                "tempo": 120.0
            },
            {
                "start_time": 88.87727272727273,
                "end_time": 89.08181818181818,
                "pitch": 33,
                "velocity": 80,
                "duration": 0.20454545454545325,
                "tempo": 120.0
            },
            {
                "start_time": 89.08181818181818,
                "end_time": 89.28863636363636,
                "pitch": 33,
                "velocity": 80,
                "duration": 0.20681818181817846,
                "tempo": 120.0
            },
            {
                "start_time": 89.28863636363636,
                "end_time": 89.48636363636363,
                "pitch": 33,
                "velocity": 80,
                "duration": 0.19772727272727764,
                "tempo": 120.0
            },
            {
                "start_time": 89.48636363636363,
                "end_time": 89.68181818181817,
                "pitch": 33,
                "velocity": 80,
                "duration": 0.19545454545453822,
                "tempo": 120.0
            },
            {
                "start_time": 89.68181818181817,
                "end_time": 89.88636363636363,
                "pitch": 33,
                "velocity": 80,
                "duration": 0.20454545454545325,
                "tempo": 120.0
            },
            {
                "start_time": 89.88636363636363,
                "end_time": 90.29318181818181,
                "pitch": 33,
                "velocity": 80,
                "duration": 0.4068181818181813,
                "tempo": 120.0
            },
            {
                "start_time": 90.29545454545455,
                "end_time": 90.49545454545454,
                "pitch": 33,
                "velocity": 80,
                "duration": 0.19999999999998863,
                "tempo": 120.0
            },
            {
                "start_time": 90.49545454545454,
                "end_time": 90.69772727272726,
                "pitch": 33,
                "velocity": 80,
                "duration": 0.20227272727272805,
                "tempo": 120.0
            },
            {
                "start_time": 90.69772727272726,
                "end_time": 91.1,
                "pitch": 33,
                "velocity": 80,
                "duration": 0.4022727272727309,
                "tempo": 120.0
            },
            {
                "start_time": 91.1,
                "end_time": 91.3,
                "pitch": 33,
                "velocity": 80,
                "duration": 0.20000000000000284,
                "tempo": 120.0
            },
            {
                "start_time": 91.3,
                "end_time": 91.5,
                "pitch": 36,
                "velocity": 80,
                "duration": 0.20000000000000284,
                "tempo": 120.0
            },
            {
                "start_time": 91.50227272727273,
                "end_time": 91.70227272727273,
                "pitch": 40,
                "velocity": 80,
                "duration": 0.20000000000000284,
                "tempo": 120.0
            },
            {
                "start_time": 91.70227272727273,
                "end_time": 91.90227272727272,
                "pitch": 33,
                "velocity": 80,
                "duration": 0.19999999999998863,
                "tempo": 120.0
            },
            {
                "start_time": 91.90227272727272,
                "end_time": 92.10227272727272,
                "pitch": 33,
                "velocity": 80,
                "duration": 0.20000000000000284,
                "tempo": 120.0
            },
            {
                "start_time": 92.10454545454544,
                "end_time": 92.30454545454545,
                "pitch": 33,
                "velocity": 80,
                "duration": 0.20000000000000284,
                "tempo": 120.0
            },
            {
                "start_time": 92.30454545454545,
                "end_time": 92.50681818181818,
                "pitch": 33,
                "velocity": 80,
                "duration": 0.20227272727272805,
                "tempo": 120.0
            },
            {
                "start_time": 92.50681818181818,
                "end_time": 92.70681818181818,
                "pitch": 33,
                "velocity": 80,
                "duration": 0.20000000000000284,
                "tempo": 120.0
            },
            {
                "start_time": 92.7090909090909,
                "end_time": 92.9090909090909,
                "pitch": 33,
                "velocity": 80,
                "duration": 0.20000000000000284,
                "tempo": 120.0
            },
            {
                "start_time": 92.9090909090909,
                "end_time": 93.3090909090909,
                "pitch": 33,
                "velocity": 80,
                "duration": 0.3999999999999915,
                "tempo": 120.0
            },
            {
                "start_time": 93.31136363636364,
                "end_time": 93.51136363636363,
                "pitch": 33,
                "velocity": 80,
                "duration": 0.19999999999998863,
                "tempo": 120.0
            },
            {
                "start_time": 93.51136363636363,
                "end_time": 93.71363636363635,
                "pitch": 33,
                "velocity": 80,
                "duration": 0.20227272727272805,
                "tempo": 120.0
            },
            {
                "start_time": 93.71363636363635,
                "end_time": 93.91363636363636,
                "pitch": 33,
                "velocity": 80,
                "duration": 0.20000000000000284,
                "tempo": 120.0
            },
            {
                "start_time": 93.91363636363636,
                "end_time": 94.31590909090909,
                "pitch": 33,
                "velocity": 80,
                "duration": 0.4022727272727309,
                "tempo": 120.0
            },
            {
                "start_time": 94.31590909090909,
                "end_time": 94.51590909090909,
                "pitch": 33,
                "velocity": 80,
                "duration": 0.20000000000000284,
                "tempo": 120.0
            },
            {
                "start_time": 94.51818181818182,
                "end_time": 94.71818181818182,
                "pitch": 36,
                "velocity": 80,
                "duration": 0.20000000000000284,
                "tempo": 120.0
            },
            {
                "start_time": 94.71818181818182,
                "end_time": 94.92045454545455,
                "pitch": 40,
                "velocity": 80,
                "duration": 0.20227272727272805,
                "tempo": 120.0
            },
            {
                "start_time": 94.92045454545455,
                "end_time": 95.125,
                "pitch": 29,
                "velocity": 80,
                "duration": 0.20454545454545325,
                "tempo": 120.0
            },
            {
                "start_time": 95.125,
                "end_time": 95.32954545454545,
                "pitch": 29,
                "velocity": 80,
                "duration": 0.20454545454545325,
                "tempo": 120.0
            },
            {
                "start_time": 95.33181818181818,
                "end_time": 95.53181818181818,
                "pitch": 29,
                "velocity": 80,
                "duration": 0.20000000000000284,
                "tempo": 120.0
            },
            {
                "start_time": 95.53181818181818,
                "end_time": 95.73181818181818,
                "pitch": 29,
                "velocity": 80,
                "duration": 0.20000000000000284,
                "tempo": 120.0
            },
            {
                "start_time": 95.73181818181818,
                "end_time": 95.92954545454545,
                "pitch": 29,
                "velocity": 80,
                "duration": 0.19772727272726343,
                "tempo": 120.0
            },
            {
                "start_time": 95.92954545454545,
                "end_time": 96.125,
                "pitch": 29,
                "velocity": 80,
                "duration": 0.19545454545455243,
                "tempo": 120.0
            },
            {
                "start_time": 96.125,
                "end_time": 96.32954545454545,
                "pitch": 33,
                "velocity": 80,
                "duration": 0.20454545454545325,
                "tempo": 120.0
            },
            {
                "start_time": 96.32954545454545,
                "end_time": 96.73181818181818,
                "pitch": 31,
                "velocity": 80,
                "duration": 0.4022727272727309,
                "tempo": 120.0
            },
            {
                "start_time": 96.73409090909091,
                "end_time": 96.92954545454545,
                "pitch": 31,
                "velocity": 80,
                "duration": 0.19545454545453822,
                "tempo": 120.0
            },
            {
                "start_time": 96.92954545454545,
                "end_time": 97.1340909090909,
                "pitch": 31,
                "velocity": 80,
                "duration": 0.20454545454545325,
                "tempo": 120.0
            },
            {
                "start_time": 97.1340909090909,
                "end_time": 97.33863636363635,
                "pitch": 31,
                "velocity": 80,
                "duration": 0.20454545454545325,
                "tempo": 120.0
            },
            {
                "start_time": 97.33863636363635,
                "end_time": 97.53636363636363,
                "pitch": 31,
                "velocity": 80,
                "duration": 0.19772727272727764,
                "tempo": 120.0
            },
            {
                "start_time": 97.53636363636363,
                "end_time": 97.73181818181818,
                "pitch": 26,
                "velocity": 80,
                "duration": 0.19545454545455243,
                "tempo": 120.0
            },
            {
                "start_time": 97.73409090909091,
                "end_time": 97.93636363636364,
                "pitch": 29,
                "velocity": 80,
                "duration": 0.20227272727272805,
                "tempo": 120.0
            },
            {
                "start_time": 97.93636363636364,
                "end_time": 98.14318181818182,
                "pitch": 31,
                "velocity": 80,
                "duration": 0.20681818181817846,
                "tempo": 120.0
            },
            {
                "start_time": 98.14318181818182,
                "end_time": 98.34545454545454,
                "pitch": 28,
                "velocity": 80,
                "duration": 0.20227272727272805,
                "tempo": 120.0
            },
            {
                "start_time": 98.34545454545454,
                "end_time": 98.54545454545455,
                "pitch": 28,
                "velocity": 80,
                "duration": 0.20000000000000284,
                "tempo": 120.0
            },
            {
                "start_time": 98.54772727272727,
                "end_time": 98.74772727272727,
                "pitch": 33,
                "velocity": 80,
                "duration": 0.20000000000000284,
                "tempo": 120.0
            },
            {
                "start_time": 98.74772727272727,
                "end_time": 98.94772727272726,
                "pitch": 35,
                "velocity": 80,
                "duration": 0.19999999999998863,
                "tempo": 120.0
            },
            {
                "start_time": 98.94772727272726,
                "end_time": 99.14772727272727,
                "pitch": 38,
                "velocity": 80,
                "duration": 0.20000000000000284,
                "tempo": 120.0
            },
            {
                "start_time": 99.14999999999999,
                "end_time": 99.35,
                "pitch": 35,
                "velocity": 80,
                "duration": 0.20000000000000284,
                "tempo": 120.0
            },
            {
                "start_time": 99.35,
                "end_time": 99.55,
                "pitch": 33,
                "velocity": 80,
                "duration": 0.20000000000000284,
                "tempo": 120.0
            },
            {
                "start_time": 99.55227272727272,
                "end_time": 99.95227272727273,
                "pitch": 28,
                "velocity": 80,
                "duration": 0.4000000000000057,
                "tempo": 120.0
            },
            {
                "start_time": 99.95227272727273,
                "end_time": 100.15454545454546,
                "pitch": 40,
                "velocity": 80,
                "duration": 0.20227272727272805,
                "tempo": 120.0
            },
            {
                "start_time": 100.15454545454546,
                "end_time": 100.35454545454544,
                "pitch": 38,
                "velocity": 80,
                "duration": 0.19999999999998863,
                "tempo": 120.0
            },
            {
                "start_time": 100.35681818181817,
                "end_time": 100.55681818181817,
                "pitch": 35,
                "velocity": 80,
                "duration": 0.20000000000000284,
                "tempo": 120.0
            },
            {
                "start_time": 100.55681818181817,
                "end_time": 100.75681818181818,
                "pitch": 32,
                "velocity": 80,
                "duration": 0.20000000000000284,
                "tempo": 120.0
            },
            {
                "start_time": 100.7590909090909,
                "end_time": 100.95681818181818,
                "pitch": 35,
                "velocity": 80,
                "duration": 0.19772727272727764,
                "tempo": 120.0
            },
            {
                "start_time": 100.9590909090909,
                "end_time": 101.1590909090909,
                "pitch": 32,
                "velocity": 80,
                "duration": 0.20000000000000284,
                "tempo": 120.0
            },
            {
                "start_time": 101.1590909090909,
                "end_time": 101.36136363636363,
                "pitch": 28,
                "velocity": 80,
                "duration": 0.20227272727272805,
                "tempo": 120.0
            },
            {
                "start_time": 101.40454545454546,
                "end_time": 101.6,
                "pitch": 33,
                "velocity": 64,
                "duration": 0.19545454545453822,
                "tempo": 120.0
            },
            {
                "start_time": 101.6,
                "end_time": 101.80454545454545,
                "pitch": 33,
                "velocity": 64,
                "duration": 0.20454545454545325,
                "tempo": 120.0
            },
            {
                "start_time": 101.80681818181817,
                "end_time": 102.01136363636363,
                "pitch": 33,
                "velocity": 64,
                "duration": 0.20454545454545325,
                "tempo": 120.0
            },
            {
                "start_time": 102.01136363636363,
                "end_time": 102.21590909090908,
                "pitch": 33,
                "velocity": 64,
                "duration": 0.20454545454545325,
                "tempo": 120.0
            },
            {
                "start_time": 102.21590909090908,
                "end_time": 102.41818181818181,
                "pitch": 33,
                "velocity": 64,
                "duration": 0.20227272727272805,
                "tempo": 120.0
            },
            {
                "start_time": 102.42045454545455,
                "end_time": 102.62045454545454,
                "pitch": 33,
                "velocity": 64,
                "duration": 0.19999999999998863,
                "tempo": 120.0
            },
            {
                "start_time": 102.62045454545454,
                "end_time": 102.82272727272726,
                "pitch": 33,
                "velocity": 64,
                "duration": 0.20227272727272805,
                "tempo": 120.0
            },
            {
                "start_time": 102.82272727272726,
                "end_time": 103.02272727272727,
                "pitch": 33,
                "velocity": 64,
                "duration": 0.20000000000000284,
                "tempo": 120.0
            },
            {
                "start_time": 103.02272727272727,
                "end_time": 103.22272727272727,
                "pitch": 33,
                "velocity": 64,
                "duration": 0.20000000000000284,
                "tempo": 120.0
            },
            {
                "start_time": 103.225,
                "end_time": 103.425,
                "pitch": 33,
                "velocity": 64,
                "duration": 0.20000000000000284,
                "tempo": 120.0
            },
            {
                "start_time": 103.425,
                "end_time": 103.625,
                "pitch": 33,
                "velocity": 64,
                "duration": 0.20000000000000284,
                "tempo": 120.0
            },
            {
                "start_time": 103.625,
                "end_time": 103.82727272727273,
                "pitch": 33,
                "velocity": 64,
                "duration": 0.20227272727272805,
                "tempo": 120.0
            },
            {
                "start_time": 103.82727272727273,
                "end_time": 104.02727272727272,
                "pitch": 33,
                "velocity": 64,
                "duration": 0.19999999999998863,
                "tempo": 120.0
            },
            {
                "start_time": 104.02727272727272,
                "end_time": 104.22727272727272,
                "pitch": 33,
                "velocity": 64,
                "duration": 0.20000000000000284,
                "tempo": 120.0
            },
            {
                "start_time": 104.22727272727272,
                "end_time": 104.42954545454545,
                "pitch": 33,
                "velocity": 64,
                "duration": 0.20227272727272805,
                "tempo": 120.0
            },
            {
                "start_time": 104.42954545454545,
                "end_time": 104.63181818181818,
                "pitch": 33,
                "velocity": 64,
                "duration": 0.20227272727272805,
                "tempo": 120.0
            },
            {
                "start_time": 104.63181818181818,
                "end_time": 104.83181818181818,
                "pitch": 29,
                "velocity": 64,
                "duration": 0.20000000000000284,
                "tempo": 120.0
            },
            {
                "start_time": 104.8340909090909,
                "end_time": 105.0340909090909,
                "pitch": 29,
                "velocity": 64,
                "duration": 0.20000000000000284,
                "tempo": 120.0
            },
            {
                "start_time": 105.0340909090909,
                "end_time": 105.23409090909091,
                "pitch": 29,
                "velocity": 64,
                "duration": 0.20000000000000284,
                "tempo": 120.0
            },
            {
                "start_time": 105.23636363636363,
                "end_time": 105.4340909090909,
                "pitch": 29,
                "velocity": 64,
                "duration": 0.19772727272726343,
                "tempo": 120.0
            },
            {
                "start_time": 105.4340909090909,
                "end_time": 105.63636363636363,
                "pitch": 29,
                "velocity": 64,
                "duration": 0.20227272727272805,
                "tempo": 120.0
            },
            {
                "start_time": 105.63636363636363,
                "end_time": 105.83863636363635,
                "pitch": 29,
                "velocity": 64,
                "duration": 0.20227272727272805,
                "tempo": 120.0
            },
            {
                "start_time": 105.83863636363635,
                "end_time": 106.03863636363636,
                "pitch": 29,
                "velocity": 64,
                "duration": 0.20000000000000284,
                "tempo": 120.0
            },
            {
                "start_time": 106.03863636363636,
                "end_time": 106.23863636363636,
                "pitch": 29,
                "velocity": 64,
                "duration": 0.20000000000000284,
                "tempo": 120.0
            },
            {
                "start_time": 106.23863636363636,
                "end_time": 106.43863636363636,
                "pitch": 29,
                "velocity": 64,
                "duration": 0.20000000000000284,
                "tempo": 120.0
            },
            {
                "start_time": 106.44090909090909,
                "end_time": 106.64090909090909,
                "pitch": 29,
                "velocity": 64,
                "duration": 0.20000000000000284,
                "tempo": 120.0
            },
            {
                "start_time": 106.64090909090909,
                "end_time": 106.84545454545454,
                "pitch": 29,
                "velocity": 64,
                "duration": 0.20454545454545325,
                "tempo": 120.0
            },
            {
                "start_time": 106.84772727272727,
                "end_time": 107.05227272727272,
                "pitch": 29,
                "velocity": 64,
                "duration": 0.20454545454545325,
                "tempo": 120.0
            },
            {
                "start_time": 107.05227272727272,
                "end_time": 107.24772727272726,
                "pitch": 29,
                "velocity": 64,
                "duration": 0.19545454545453822,
                "tempo": 120.0
            },
            {
                "start_time": 107.25,
                "end_time": 107.44545454545454,
                "pitch": 29,
                "velocity": 64,
                "duration": 0.19545454545453822,
                "tempo": 120.0
            },
            {
                "start_time": 107.44545454545454,
                "end_time": 107.64999999999999,
                "pitch": 29,
                "velocity": 64,
                "duration": 0.20454545454545325,
                "tempo": 120.0
            },
            {
                "start_time": 107.64999999999999,
                "end_time": 107.85681818181817,
                "pitch": 29,
                "velocity": 64,
                "duration": 0.20681818181817846,
                "tempo": 120.0
            },
            {
                "start_time": 107.85681818181817,
                "end_time": 108.0590909090909,
                "pitch": 31,
                "velocity": 64,
                "duration": 0.20227272727272805,
                "tempo": 120.0
            },
            {
                "start_time": 108.0590909090909,
                "end_time": 108.2590909090909,
                "pitch": 31,
                "velocity": 64,
                "duration": 0.20000000000000284,
                "tempo": 120.0
            },
            {
                "start_time": 108.26136363636363,
                "end_time": 108.46136363636363,
                "pitch": 31,
                "velocity": 64,
                "duration": 0.20000000000000284,
                "tempo": 120.0
            },
            {
                "start_time": 108.46136363636363,
                "end_time": 108.66136363636363,
                "pitch": 31,
                "velocity": 64,
                "duration": 0.20000000000000284,
                "tempo": 120.0
            },
            {
                "start_time": 108.66363636363636,
                "end_time": 108.86363636363636,
                "pitch": 31,
                "velocity": 64,
                "duration": 0.20000000000000284,
                "tempo": 120.0
            },
            {
                "start_time": 108.86363636363636,
                "end_time": 109.06363636363636,
                "pitch": 31,
                "velocity": 64,
                "duration": 0.20000000000000284,
                "tempo": 120.0
            },
            {
                "start_time": 109.06363636363636,
                "end_time": 109.26590909090909,
                "pitch": 31,
                "velocity": 64,
                "duration": 0.20227272727272805,
                "tempo": 120.0
            },
            {
                "start_time": 109.26590909090909,
                "end_time": 109.46590909090908,
                "pitch": 31,
                "velocity": 64,
                "duration": 0.19999999999998863,
                "tempo": 120.0
            },
            {
                "start_time": 109.46590909090908,
                "end_time": 109.66590909090908,
                "pitch": 31,
                "velocity": 64,
                "duration": 0.20000000000000284,
                "tempo": 120.0
            },
            {
                "start_time": 109.66818181818181,
                "end_time": 109.86818181818181,
                "pitch": 31,
                "velocity": 64,
                "duration": 0.20000000000000284,
                "tempo": 120.0
            },
            {
                "start_time": 109.86818181818181,
                "end_time": 110.06818181818181,
                "pitch": 31,
                "velocity": 64,
                "duration": 0.20000000000000284,
                "tempo": 120.0
            },
            {
                "start_time": 110.06818181818181,
                "end_time": 110.27045454545454,
                "pitch": 31,
                "velocity": 64,
                "duration": 0.20227272727272805,
                "tempo": 120.0
            },
            {
                "start_time": 110.27045454545454,
                "end_time": 110.47272727272727,
                "pitch": 31,
                "velocity": 64,
                "duration": 0.20227272727272805,
                "tempo": 120.0
            },
            {
                "start_time": 110.47272727272727,
                "end_time": 110.67272727272727,
                "pitch": 31,
                "velocity": 64,
                "duration": 0.20000000000000284,
                "tempo": 120.0
            },
            {
                "start_time": 110.67272727272727,
                "end_time": 110.87272727272726,
                "pitch": 31,
                "velocity": 64,
                "duration": 0.19999999999998863,
                "tempo": 120.0
            },
            {
                "start_time": 110.875,
                "end_time": 111.07499999999999,
                "pitch": 31,
                "velocity": 64,
                "duration": 0.19999999999998863,
                "tempo": 120.0
            },
            {
                "start_time": 111.07499999999999,
                "end_time": 111.27499999999999,
                "pitch": 36,
                "velocity": 64,
                "duration": 0.20000000000000284,
                "tempo": 120.0
            },
            {
                "start_time": 111.27727272727272,
                "end_time": 111.47727272727272,
                "pitch": 36,
                "velocity": 64,
                "duration": 0.20000000000000284,
                "tempo": 120.0
            },
            {
                "start_time": 111.47727272727272,
                "end_time": 111.67727272727272,
                "pitch": 36,
                "velocity": 64,
                "duration": 0.20000000000000284,
                "tempo": 120.0
            },
            {
                "start_time": 111.67727272727272,
                "end_time": 111.87727272727273,
                "pitch": 36,
                "velocity": 64,
                "duration": 0.20000000000000284,
                "tempo": 120.0
            },
            {
                "start_time": 111.87954545454545,
                "end_time": 112.07954545454545,
                "pitch": 36,
                "velocity": 64,
                "duration": 0.20000000000000284,
                "tempo": 120.0
            },
            {
                "start_time": 112.07954545454545,
                "end_time": 112.28181818181818,
                "pitch": 36,
                "velocity": 64,
                "duration": 0.20227272727272805,
                "tempo": 120.0
            },
            {
                "start_time": 112.28181818181818,
                "end_time": 112.48181818181817,
                "pitch": 36,
                "velocity": 64,
                "duration": 0.19999999999998863,
                "tempo": 120.0
            },
            {
                "start_time": 112.48409090909091,
                "end_time": 112.6840909090909,
                "pitch": 36,
                "velocity": 64,
                "duration": 0.19999999999998863,
                "tempo": 120.0
            },
            {
                "start_time": 112.6840909090909,
                "end_time": 112.8840909090909,
                "pitch": 36,
                "velocity": 64,
                "duration": 0.20000000000000284,
                "tempo": 120.0
            },
            {
                "start_time": 112.8840909090909,
                "end_time": 113.0840909090909,
                "pitch": 36,
                "velocity": 64,
                "duration": 0.20000000000000284,
                "tempo": 120.0
            },
            {
                "start_time": 113.08636363636363,
                "end_time": 113.29090909090908,
                "pitch": 36,
                "velocity": 64,
                "duration": 0.20454545454545325,
                "tempo": 120.0
            },
            {
                "start_time": 113.29090909090908,
                "end_time": 113.49545454545454,
                "pitch": 36,
                "velocity": 64,
                "duration": 0.20454545454545325,
                "tempo": 120.0
            },
            {
                "start_time": 113.49545454545454,
                "end_time": 113.69318181818181,
                "pitch": 36,
                "velocity": 64,
                "duration": 0.19772727272727764,
                "tempo": 120.0
            },
            {
                "start_time": 113.69318181818181,
                "end_time": 113.88863636363635,
                "pitch": 36,
                "velocity": 64,
                "duration": 0.19545454545453822,
                "tempo": 120.0
            },
            {
                "start_time": 113.88863636363635,
                "end_time": 114.09090909090908,
                "pitch": 36,
                "velocity": 64,
                "duration": 0.20227272727272805,
                "tempo": 120.0
            },
            {
                "start_time": 114.09090909090908,
                "end_time": 114.29318181818181,
                "pitch": 36,
                "velocity": 64,
                "duration": 0.20227272727272805,
                "tempo": 120.0
            },
            {
                "start_time": 114.29318181818181,
                "end_time": 114.49772727272726,
                "pitch": 38,
                "velocity": 64,
                "duration": 0.20454545454545325,
                "tempo": 120.0
            },
            {
                "start_time": 114.49772727272726,
                "end_time": 114.70227272727273,
                "pitch": 38,
                "velocity": 64,
                "duration": 0.20454545454546746,
                "tempo": 120.0
            },
            {
                "start_time": 114.70454545454545,
                "end_time": 114.90454545454544,
                "pitch": 38,
                "velocity": 64,
                "duration": 0.19999999999998863,
                "tempo": 120.0
            },
            {
                "start_time": 114.90681818181818,
                "end_time": 115.10681818181817,
                "pitch": 38,
                "velocity": 64,
                "duration": 0.19999999999998863,
                "tempo": 120.0
            },
            {
                "start_time": 115.10681818181817,
                "end_time": 115.30227272727272,
                "pitch": 38,
                "velocity": 64,
                "duration": 0.19545454545455243,
                "tempo": 120.0
            },
            {
                "start_time": 115.30454545454545,
                "end_time": 115.5,
                "pitch": 38,
                "velocity": 64,
                "duration": 0.19545454545455243,
                "tempo": 120.0
            },
            {
                "start_time": 115.5,
                "end_time": 115.70454545454545,
                "pitch": 38,
                "velocity": 64,
                "duration": 0.20454545454545325,
                "tempo": 120.0
            },
            {
                "start_time": 115.70454545454545,
                "end_time": 115.9090909090909,
                "pitch": 38,
                "velocity": 64,
                "duration": 0.20454545454545325,
                "tempo": 120.0
            },
            {
                "start_time": 115.91136363636363,
                "end_time": 116.11136363636363,
                "pitch": 38,
                "velocity": 64,
                "duration": 0.20000000000000284,
                "tempo": 120.0
            },
            {
                "start_time": 116.11363636363636,
                "end_time": 116.31363636363636,
                "pitch": 38,
                "velocity": 64,
                "duration": 0.20000000000000284,
                "tempo": 120.0
            },
            {
                "start_time": 116.31363636363636,
                "end_time": 116.51363636363635,
                "pitch": 38,
                "velocity": 64,
                "duration": 0.19999999999998863,
                "tempo": 120.0
            },
            {
                "start_time": 116.51363636363635,
                "end_time": 116.71363636363635,
                "pitch": 38,
                "velocity": 64,
                "duration": 0.20000000000000284,
                "tempo": 120.0
            },
            {
                "start_time": 116.71590909090908,
                "end_time": 116.91590909090908,
                "pitch": 38,
                "velocity": 64,
                "duration": 0.20000000000000284,
                "tempo": 120.0
            },
            {
                "start_time": 116.91590909090908,
                "end_time": 117.11818181818181,
                "pitch": 38,
                "velocity": 64,
                "duration": 0.20227272727272805,
                "tempo": 120.0
            },
            {
                "start_time": 117.11818181818181,
                "end_time": 117.31818181818181,
                "pitch": 38,
                "velocity": 64,
                "duration": 0.20000000000000284,
                "tempo": 120.0
            },
            {
                "start_time": 117.31818181818181,
                "end_time": 117.51818181818182,
                "pitch": 38,
                "velocity": 64,
                "duration": 0.20000000000000284,
                "tempo": 120.0
            },
            {
                "start_time": 117.51818181818182,
                "end_time": 117.72045454545454,
                "pitch": 36,
                "velocity": 64,
                "duration": 0.20227272727272805,
                "tempo": 120.0
            },
            {
                "start_time": 117.72045454545454,
                "end_time": 117.92045454545455,
                "pitch": 36,
                "velocity": 64,
                "duration": 0.20000000000000284,
                "tempo": 120.0
            },
            {
                "start_time": 117.92272727272727,
                "end_time": 118.12272727272726,
                "pitch": 36,
                "velocity": 64,
                "duration": 0.19999999999998863,
                "tempo": 120.0
            },
            {
                "start_time": 118.125,
                "end_time": 118.32499999999999,
                "pitch": 36,
                "velocity": 64,
                "duration": 0.19999999999998863,
                "tempo": 120.0
            },
            {
                "start_time": 118.32499999999999,
                "end_time": 118.52499999999999,
                "pitch": 36,
                "velocity": 64,
                "duration": 0.20000000000000284,
                "tempo": 120.0
            },
            {
                "start_time": 118.52499999999999,
                "end_time": 118.725,
                "pitch": 36,
                "velocity": 64,
                "duration": 0.20000000000000284,
                "tempo": 120.0
            },
            {
                "start_time": 118.725,
                "end_time": 118.92727272727272,
                "pitch": 36,
                "velocity": 64,
                "duration": 0.20227272727272805,
                "tempo": 120.0
            },
            {
                "start_time": 118.92727272727272,
                "end_time": 119.12727272727273,
                "pitch": 36,
                "velocity": 64,
                "duration": 0.20000000000000284,
                "tempo": 120.0
            },
            {
                "start_time": 119.12954545454545,
                "end_time": 119.32727272727273,
                "pitch": 36,
                "velocity": 64,
                "duration": 0.19772727272727764,
                "tempo": 120.0
            },
            {
                "start_time": 119.32954545454545,
                "end_time": 119.52954545454544,
                "pitch": 36,
                "velocity": 64,
                "duration": 0.19999999999998863,
                "tempo": 120.0
            },
            {
                "start_time": 119.52954545454544,
                "end_time": 119.72954545454544,
                "pitch": 36,
                "velocity": 64,
                "duration": 0.20000000000000284,
                "tempo": 120.0
            },
            {
                "start_time": 119.73181818181817,
                "end_time": 119.93181818181817,
                "pitch": 36,
                "velocity": 64,
                "duration": 0.20000000000000284,
                "tempo": 120.0
            },
            {
                "start_time": 119.93181818181817,
                "end_time": 120.1340909090909,
                "pitch": 36,
                "velocity": 64,
                "duration": 0.20227272727272805,
                "tempo": 120.0
            },
            {
                "start_time": 120.1340909090909,
                "end_time": 120.3340909090909,
                "pitch": 36,
                "velocity": 64,
                "duration": 0.20000000000000284,
                "tempo": 120.0
            },
            {
                "start_time": 120.33636363636363,
                "end_time": 120.53636363636363,
                "pitch": 36,
                "velocity": 64,
                "duration": 0.20000000000000284,
                "tempo": 120.0
            },
            {
                "start_time": 120.53636363636363,
                "end_time": 120.73636363636363,
                "pitch": 36,
                "velocity": 64,
                "duration": 0.20000000000000284,
                "tempo": 120.0
            },
            {
                "start_time": 120.73636363636363,
                "end_time": 120.93636363636364,
                "pitch": 38,
                "velocity": 64,
                "duration": 0.20000000000000284,
                "tempo": 120.0
            },
            {
                "start_time": 120.93863636363636,
                "end_time": 121.13863636363635,
                "pitch": 38,
                "velocity": 64,
                "duration": 0.19999999999998863,
                "tempo": 120.0
            },
            {
                "start_time": 121.13863636363635,
                "end_time": 121.33863636363635,
                "pitch": 38,
                "velocity": 64,
                "duration": 0.20000000000000284,
                "tempo": 120.0
            },
            {
                "start_time": 121.33863636363635,
                "end_time": 121.53863636363636,
                "pitch": 38,
                "velocity": 64,
                "duration": 0.20000000000000284,
                "tempo": 120.0
            },
            {
                "start_time": 121.54090909090908,
                "end_time": 121.74090909090908,
                "pitch": 38,
                "velocity": 64,
                "duration": 0.20000000000000284,
                "tempo": 120.0
            },
            {
                "start_time": 121.74090909090908,
                "end_time": 121.94318181818181,
                "pitch": 38,
                "velocity": 64,
                "duration": 0.20227272727272805,
                "tempo": 120.0
            },
            {
                "start_time": 121.94318181818181,
                "end_time": 122.14772727272727,
                "pitch": 38,
                "velocity": 64,
                "duration": 0.20454545454545325,
                "tempo": 120.0
            },
            {
                "start_time": 122.14772727272727,
                "end_time": 122.35454545454544,
                "pitch": 38,
                "velocity": 64,
                "duration": 0.20681818181817846,
                "tempo": 120.0
            },
            {
                "start_time": 122.35454545454544,
                "end_time": 122.55,
                "pitch": 38,
                "velocity": 64,
                "duration": 0.19545454545455243,
                "tempo": 120.0
            },
            {
                "start_time": 122.55227272727272,
                "end_time": 122.74545454545454,
                "pitch": 38,
                "velocity": 64,
                "duration": 0.19318181818181301,
                "tempo": 120.0
            },
            {
                "start_time": 122.74772727272726,
                "end_time": 122.95227272727273,
                "pitch": 38,
                "velocity": 64,
                "duration": 0.20454545454546746,
                "tempo": 120.0
            },
            {
                "start_time": 122.95227272727273,
                "end_time": 123.15681818181818,
                "pitch": 38,
                "velocity": 64,
                "duration": 0.20454545454545325,
                "tempo": 120.0
            },
            {
                "start_time": 123.15681818181818,
                "end_time": 123.35909090909091,
                "pitch": 38,
                "velocity": 64,
                "duration": 0.20227272727272805,
                "tempo": 120.0
            },
            {
                "start_time": 123.36136363636363,
                "end_time": 123.56136363636364,
                "pitch": 38,
                "velocity": 64,
                "duration": 0.20000000000000284,
                "tempo": 120.0
            },
            {
                "start_time": 123.56136363636364,
                "end_time": 123.76136363636363,
                "pitch": 38,
                "velocity": 64,
                "duration": 0.19999999999998863,
                "tempo": 120.0
            },
            {
                "start_time": 123.76363636363635,
                "end_time": 123.96363636363635,
                "pitch": 31,
                "velocity": 64,
                "duration": 0.20000000000000284,
                "tempo": 120.0
            },
            {
                "start_time": 123.96363636363635,
                "end_time": 124.16363636363636,
                "pitch": 31,
                "velocity": 64,
                "duration": 0.20000000000000284,
                "tempo": 120.0
            },
            {
                "start_time": 124.16363636363636,
                "end_time": 124.36363636363636,
                "pitch": 31,
                "velocity": 64,
                "duration": 0.20000000000000284,
                "tempo": 120.0
            },
            {
                "start_time": 124.36590909090908,
                "end_time": 124.56590909090909,
                "pitch": 31,
                "velocity": 64,
                "duration": 0.20000000000000284,
                "tempo": 120.0
            },
            {
                "start_time": 124.56590909090909,
                "end_time": 124.76818181818182,
                "pitch": 31,
                "velocity": 64,
                "duration": 0.20227272727272805,
                "tempo": 120.0
            },
            {
                "start_time": 124.76818181818182,
                "end_time": 124.96818181818182,
                "pitch": 31,
                "velocity": 64,
                "duration": 0.20000000000000284,
                "tempo": 120.0
            },
            {
                "start_time": 124.96818181818182,
                "end_time": 125.16818181818181,
                "pitch": 31,
                "velocity": 64,
                "duration": 0.19999999999998863,
                "tempo": 120.0
            },
            {
                "start_time": 125.16818181818181,
                "end_time": 125.37045454545454,
                "pitch": 31,
                "velocity": 64,
                "duration": 0.20227272727272805,
                "tempo": 120.0
            },
            {
                "start_time": 125.37045454545454,
                "end_time": 125.57045454545454,
                "pitch": 28,
                "velocity": 64,
                "duration": 0.20000000000000284,
                "tempo": 120.0
            },
            {
                "start_time": 125.57272727272726,
                "end_time": 125.77272727272727,
                "pitch": 28,
                "velocity": 64,
                "duration": 0.20000000000000284,
                "tempo": 120.0
            },
            {
                "start_time": 125.77272727272727,
                "end_time": 125.975,
                "pitch": 28,
                "velocity": 64,
                "duration": 0.20227272727272805,
                "tempo": 120.0
            },
            {
                "start_time": 125.975,
                "end_time": 126.175,
                "pitch": 28,
                "velocity": 64,
                "duration": 0.20000000000000284,
                "tempo": 120.0
            },
            {
                "start_time": 126.175,
                "end_time": 126.375,
                "pitch": 28,
                "velocity": 64,
                "duration": 0.20000000000000284,
                "tempo": 120.0
            },
            {
                "start_time": 126.375,
                "end_time": 126.57727272727273,
                "pitch": 28,
                "velocity": 64,
                "duration": 0.20227272727272805,
                "tempo": 120.0
            },
            {
                "start_time": 126.57727272727273,
                "end_time": 126.77727272727272,
                "pitch": 28,
                "velocity": 64,
                "duration": 0.19999999999998863,
                "tempo": 120.0
            },
            {
                "start_time": 126.77954545454544,
                "end_time": 126.97727272727272,
                "pitch": 28,
                "velocity": 64,
                "duration": 0.19772727272727764,
                "tempo": 120.0
            },
            {
                "start_time": 126.97954545454544,
                "end_time": 127.17954545454545,
                "pitch": 28,
                "velocity": 64,
                "duration": 0.20000000000000284,
                "tempo": 120.0
            },
            {
                "start_time": 127.17954545454545,
                "end_time": 127.36818181818181,
                "pitch": 33,
                "velocity": 64,
                "duration": 0.1886363636363626,
                "tempo": 120.0
            },
            {
                "start_time": 127.36818181818181,
                "end_time": 127.57272727272726,
                "pitch": 33,
                "velocity": 64,
                "duration": 0.20454545454545325,
                "tempo": 120.0
            },
            {
                "start_time": 127.57499999999999,
                "end_time": 127.77045454545454,
                "pitch": 33,
                "velocity": 64,
                "duration": 0.19545454545455243,
                "tempo": 120.0
            },
            {
                "start_time": 127.77272727272727,
                "end_time": 127.96590909090908,
                "pitch": 33,
                "velocity": 64,
                "duration": 0.19318181818181301,
                "tempo": 120.0
            },
            {
                "start_time": 127.96818181818182,
                "end_time": 128.1681818181818,
                "pitch": 33,
                "velocity": 64,
                "duration": 0.19999999999998863,
                "tempo": 120.0
            },
            {
                "start_time": 128.1681818181818,
                "end_time": 128.36818181818182,
                "pitch": 33,
                "velocity": 64,
                "duration": 0.20000000000001705,
                "tempo": 120.0
            },
            {
                "start_time": 128.36818181818182,
                "end_time": 128.5681818181818,
                "pitch": 33,
                "velocity": 64,
                "duration": 0.19999999999998863,
                "tempo": 120.0
            },
            {
                "start_time": 128.57045454545454,
                "end_time": 128.77045454545453,
                "pitch": 33,
                "velocity": 64,
                "duration": 0.19999999999998863,
                "tempo": 120.0
            },
            {
                "start_time": 128.77045454545453,
                "end_time": 128.97272727272727,
                "pitch": 33,
                "velocity": 64,
                "duration": 0.20227272727274226,
                "tempo": 120.0
            },
            {
                "start_time": 128.97272727272727,
                "end_time": 129.17499999999998,
                "pitch": 33,
                "velocity": 64,
                "duration": 0.20227272727271384,
                "tempo": 120.0
            },
            {
                "start_time": 129.17499999999998,
                "end_time": 129.375,
                "pitch": 33,
                "velocity": 64,
                "duration": 0.20000000000001705,
                "tempo": 120.0
            },
            {
                "start_time": 129.375,
                "end_time": 129.5772727272727,
                "pitch": 33,
                "velocity": 64,
                "duration": 0.20227272727271384,
                "tempo": 120.0
            },
            {
                "start_time": 129.5772727272727,
                "end_time": 129.77727272727273,
                "pitch": 33,
                "velocity": 64,
                "duration": 0.20000000000001705,
                "tempo": 120.0
            },
            {
                "start_time": 129.77727272727273,
                "end_time": 129.97727272727272,
                "pitch": 33,
                "velocity": 64,
                "duration": 0.19999999999998863,
                "tempo": 120.0
            },
            {
                "start_time": 129.97727272727272,
                "end_time": 130.1818181818182,
                "pitch": 33,
                "velocity": 64,
                "duration": 0.20454545454546746,
                "tempo": 120.0
            },
            {
                "start_time": 130.1818181818182,
                "end_time": 130.38863636363635,
                "pitch": 33,
                "velocity": 64,
                "duration": 0.20681818181816425,
                "tempo": 120.0
            },
            {
                "start_time": 130.38863636363635,
                "end_time": 130.5909090909091,
                "pitch": 29,
                "velocity": 64,
                "duration": 0.20227272727274226,
                "tempo": 120.0
            },
            {
                "start_time": 130.5909090909091,
                "end_time": 130.79090909090908,
                "pitch": 29,
                "velocity": 64,
                "duration": 0.19999999999998863,
                "tempo": 120.0
            },
            {
                "start_time": 130.7931818181818,
                "end_time": 130.99318181818182,
                "pitch": 29,
                "velocity": 64,
                "duration": 0.20000000000001705,
                "tempo": 120.0
            },
            {
                "start_time": 130.99545454545455,
                "end_time": 131.19545454545454,
                "pitch": 29,
                "velocity": 64,
                "duration": 0.19999999999998863,
                "tempo": 120.0
            },
            {
                "start_time": 131.19545454545454,
                "end_time": 131.3931818181818,
                "pitch": 29,
                "velocity": 64,
                "duration": 0.19772727272726343,
                "tempo": 120.0
            },
            {
                "start_time": 131.3931818181818,
                "end_time": 131.58863636363637,
                "pitch": 29,
                "velocity": 64,
                "duration": 0.19545454545456664,
                "tempo": 120.0
            },
            {
                "start_time": 131.5909090909091,
                "end_time": 131.7931818181818,
                "pitch": 29,
                "velocity": 64,
                "duration": 0.20227272727271384,
                "tempo": 120.0
            },
            {
                "start_time": 131.7931818181818,
                "end_time": 131.99772727272727,
                "pitch": 29,
                "velocity": 64,
                "duration": 0.20454545454546746,
                "tempo": 120.0
            },
            {
                "start_time": 132.0,
                "end_time": 132.2,
                "pitch": 29,
                "velocity": 64,
                "duration": 0.19999999999998863,
                "tempo": 120.0
            },
            {
                "start_time": 132.2,
                "end_time": 132.4,
                "pitch": 29,
                "velocity": 64,
                "duration": 0.20000000000001705,
                "tempo": 120.0
            },
            {
                "start_time": 132.4,
                "end_time": 132.6,
                "pitch": 29,
                "velocity": 64,
                "duration": 0.19999999999998863,
                "tempo": 120.0
            },
            {
                "start_time": 132.60227272727272,
                "end_time": 132.8022727272727,
                "pitch": 29,
                "velocity": 64,
                "duration": 0.19999999999998863,
                "tempo": 120.0
            },
            {
                "start_time": 132.80454545454546,
                "end_time": 133.00454545454545,
                "pitch": 29,
                "velocity": 64,
                "duration": 0.19999999999998863,
                "tempo": 120.0
            },
            {
                "start_time": 133.00454545454545,
                "end_time": 133.20681818181816,
                "pitch": 29,
                "velocity": 64,
                "duration": 0.20227272727271384,
                "tempo": 120.0
            },
            {
                "start_time": 133.20681818181816,
                "end_time": 133.40681818181818,
                "pitch": 29,
                "velocity": 64,
                "duration": 0.20000000000001705,
                "tempo": 120.0
            },
            {
                "start_time": 133.4090909090909,
                "end_time": 133.6090909090909,
                "pitch": 29,
                "velocity": 64,
                "duration": 0.19999999999998863,
                "tempo": 120.0
            },
            {
                "start_time": 133.6090909090909,
                "end_time": 133.81136363636364,
                "pitch": 31,
                "velocity": 64,
                "duration": 0.20227272727274226,
                "tempo": 120.0
            },
            {
                "start_time": 133.81136363636364,
                "end_time": 134.01136363636363,
                "pitch": 31,
                "velocity": 64,
                "duration": 0.19999999999998863,
                "tempo": 120.0
            },
            {
                "start_time": 134.01363636363635,
                "end_time": 134.21363636363637,
                "pitch": 31,
                "velocity": 64,
                "duration": 0.20000000000001705,
                "tempo": 120.0
            },
            {
                "start_time": 134.21363636363637,
                "end_time": 134.41363636363636,
                "pitch": 31,
                "velocity": 64,
                "duration": 0.19999999999998863,
                "tempo": 120.0
            },
            {
                "start_time": 134.41363636363636,
                "end_time": 134.61590909090907,
                "pitch": 31,
                "velocity": 64,
                "duration": 0.20227272727271384,
                "tempo": 120.0
            },
            {
                "start_time": 134.61590909090907,
                "end_time": 134.8159090909091,
                "pitch": 31,
                "velocity": 64,
                "duration": 0.20000000000001705,
                "tempo": 120.0
            },
            {
                "start_time": 134.8159090909091,
                "end_time": 135.0181818181818,
                "pitch": 31,
                "velocity": 64,
                "duration": 0.20227272727271384,
                "tempo": 120.0
            },
            {
                "start_time": 135.0181818181818,
                "end_time": 135.21818181818182,
                "pitch": 31,
                "velocity": 64,
                "duration": 0.20000000000001705,
                "tempo": 120.0
            },
            {
                "start_time": 135.22045454545454,
                "end_time": 135.42045454545453,
                "pitch": 31,
                "velocity": 64,
                "duration": 0.19999999999998863,
                "tempo": 120.0
            },
            {
                "start_time": 135.42045454545453,
                "end_time": 135.62272727272727,
                "pitch": 31,
                "velocity": 64,
                "duration": 0.20227272727274226,
                "tempo": 120.0
            },
            {
                "start_time": 135.62272727272727,
                "end_time": 135.82272727272726,
                "pitch": 31,
                "velocity": 64,
                "duration": 0.19999999999998863,
                "tempo": 120.0
            },
            {
                "start_time": 135.825,
                "end_time": 136.025,
                "pitch": 31,
                "velocity": 64,
                "duration": 0.20000000000001705,
                "tempo": 120.0
            },
            {
                "start_time": 136.02727272727273,
                "end_time": 136.22727272727272,
                "pitch": 31,
                "velocity": 64,
                "duration": 0.19999999999998863,
                "tempo": 120.0
            },
            {
                "start_time": 136.22727272727272,
                "end_time": 136.42499999999998,
                "pitch": 31,
                "velocity": 64,
                "duration": 0.19772727272726343,
                "tempo": 120.0
            },
            {
                "start_time": 136.4272727272727,
                "end_time": 136.62727272727273,
                "pitch": 31,
                "velocity": 64,
                "duration": 0.20000000000001705,
                "tempo": 120.0
            },
            {
                "start_time": 136.62727272727273,
                "end_time": 136.82954545454544,
                "pitch": 31,
                "velocity": 64,
                "duration": 0.20227272727271384,
                "tempo": 120.0
            },
            {
                "start_time": 136.82954545454544,
                "end_time": 137.03181818181818,
                "pitch": 36,
                "velocity": 64,
                "duration": 0.20227272727274226,
                "tempo": 120.0
            },
            {
                "start_time": 137.03181818181818,
                "end_time": 137.23181818181817,
                "pitch": 36,
                "velocity": 64,
                "duration": 0.19999999999998863,
                "tempo": 120.0
            },
            {
                "start_time": 137.2340909090909,
                "end_time": 137.43863636363636,
                "pitch": 36,
                "velocity": 64,
                "duration": 0.20454545454546746,
                "tempo": 120.0
            },
            {
                "start_time": 137.43863636363636,
                "end_time": 137.6431818181818,
                "pitch": 36,
                "velocity": 64,
                "duration": 0.20454545454543904,
                "tempo": 120.0
            },
            {
                "start_time": 137.6431818181818,
                "end_time": 137.8409090909091,
                "pitch": 36,
                "velocity": 64,
                "duration": 0.19772727272729185,
                "tempo": 120.0
            },
            {
                "start_time": 137.8409090909091,
                "end_time": 138.03636363636363,
                "pitch": 36,
                "velocity": 64,
                "duration": 0.19545454545453822,
                "tempo": 120.0
            },
            {
                "start_time": 138.03863636363636,
                "end_time": 138.24090909090907,
                "pitch": 36,
                "velocity": 64,
                "duration": 0.20227272727271384,
                "tempo": 120.0
            },
            {
                "start_time": 138.24090909090907,
                "end_time": 138.44772727272726,
                "pitch": 36,
                "velocity": 64,
                "duration": 0.20681818181819267,
                "tempo": 120.0
            },
            {
                "start_time": 138.44772727272726,
                "end_time": 138.65,
                "pitch": 36,
                "velocity": 64,
                "duration": 0.20227272727274226,
                "tempo": 120.0
            },
            {
                "start_time": 138.65,
                "end_time": 138.85,
                "pitch": 36,
                "velocity": 64,
                "duration": 0.19999999999998863,
                "tempo": 120.0
            },
            {
                "start_time": 138.85227272727272,
                "end_time": 139.0522727272727,
                "pitch": 36,
                "velocity": 64,
                "duration": 0.19999999999998863,
                "tempo": 120.0
            },
            {
                "start_time": 139.0522727272727,
                "end_time": 139.25227272727273,
                "pitch": 36,
                "velocity": 64,
                "duration": 0.20000000000001705,
                "tempo": 120.0
            },
            {
                "start_time": 139.25227272727273,
                "end_time": 139.4522727272727,
                "pitch": 36,
                "velocity": 64,
                "duration": 0.19999999999998863,
                "tempo": 120.0
            },
            {
                "start_time": 139.45454545454544,
                "end_time": 139.65454545454546,
                "pitch": 36,
                "velocity": 64,
                "duration": 0.20000000000001705,
                "tempo": 120.0
            },
            {
                "start_time": 139.65454545454546,
                "end_time": 139.85681818181817,
                "pitch": 36,
                "velocity": 64,
                "duration": 0.20227272727271384,
                "tempo": 120.0
            },
            {
                "start_time": 139.85681818181817,
                "end_time": 140.0590909090909,
                "pitch": 36,
                "velocity": 64,
                "duration": 0.20227272727274226,
                "tempo": 120.0
            },
            {
                "start_time": 140.0590909090909,
                "end_time": 140.2590909090909,
                "pitch": 38,
                "velocity": 64,
                "duration": 0.19999999999998863,
                "tempo": 120.0
            },
            {
                "start_time": 140.26136363636363,
                "end_time": 140.46136363636364,
                "pitch": 38,
                "velocity": 64,
                "duration": 0.20000000000001705,
                "tempo": 120.0
            },
            {
                "start_time": 140.46136363636364,
                "end_time": 140.66363636363636,
                "pitch": 38,
                "velocity": 64,
                "duration": 0.20227272727271384,
                "tempo": 120.0
            },
            {
                "start_time": 140.66363636363636,
                "end_time": 140.86363636363635,
                "pitch": 38,
                "velocity": 64,
                "duration": 0.19999999999998863,
                "tempo": 120.0
            },
            {
                "start_time": 140.86590909090907,
                "end_time": 141.0659090909091,
                "pitch": 38,
                "velocity": 64,
                "duration": 0.20000000000001705,
                "tempo": 120.0
            },
            {
                "start_time": 141.0659090909091,
                "end_time": 141.26590909090908,
                "pitch": 38,
                "velocity": 64,
                "duration": 0.19999999999998863,
                "tempo": 120.0
            },
            {
                "start_time": 141.26590909090908,
                "end_time": 141.4659090909091,
                "pitch": 38,
                "velocity": 64,
                "duration": 0.20000000000001705,
                "tempo": 120.0
            },
            {
                "start_time": 141.46818181818182,
                "end_time": 141.6681818181818,
                "pitch": 38,
                "velocity": 64,
                "duration": 0.19999999999998863,
                "tempo": 120.0
            },
            {
                "start_time": 141.6681818181818,
                "end_time": 141.86818181818182,
                "pitch": 38,
                "velocity": 64,
                "duration": 0.20000000000001705,
                "tempo": 120.0
            },
            {
                "start_time": 141.87045454545455,
                "end_time": 142.07045454545454,
                "pitch": 38,
                "velocity": 64,
                "duration": 0.19999999999998863,
                "tempo": 120.0
            },
            {
                "start_time": 142.07045454545454,
                "end_time": 142.27272727272725,
                "pitch": 38,
                "velocity": 64,
                "duration": 0.20227272727271384,
                "tempo": 120.0
            },
            {
                "start_time": 142.27272727272725,
                "end_time": 142.47272727272727,
                "pitch": 38,
                "velocity": 64,
                "duration": 0.20000000000001705,
                "tempo": 120.0
            },
            {
                "start_time": 142.475,
                "end_time": 142.67499999999998,
                "pitch": 38,
                "velocity": 64,
                "duration": 0.19999999999998863,
                "tempo": 120.0
            },
            {
                "start_time": 142.67499999999998,
                "end_time": 142.87727272727273,
                "pitch": 38,
                "velocity": 64,
                "duration": 0.20227272727274226,
                "tempo": 120.0
            },
            {
                "start_time": 142.87727272727273,
                "end_time": 143.0772727272727,
                "pitch": 38,
                "velocity": 64,
                "duration": 0.19999999999998863,
                "tempo": 120.0
            },
            {
                "start_time": 143.0772727272727,
                "end_time": 143.27727272727273,
                "pitch": 38,
                "velocity": 64,
                "duration": 0.20000000000001705,
                "tempo": 120.0
            },
            {
                "start_time": 143.27954545454546,
                "end_time": 143.47954545454544,
                "pitch": 36,
                "velocity": 64,
                "duration": 0.19999999999998863,
                "tempo": 120.0
            },
            {
                "start_time": 143.48181818181817,
                "end_time": 143.6818181818182,
                "pitch": 36,
                "velocity": 64,
                "duration": 0.20000000000001705,
                "tempo": 120.0
            },
            {
                "start_time": 143.6818181818182,
                "end_time": 143.8840909090909,
                "pitch": 36,
                "velocity": 64,
                "duration": 0.20227272727271384,
                "tempo": 120.0
            },
            {
                "start_time": 143.8840909090909,
                "end_time": 144.0840909090909,
                "pitch": 36,
                "velocity": 64,
                "duration": 0.19999999999998863,
                "tempo": 120.0
            },
            {
                "start_time": 144.08636363636364,
                "end_time": 144.28636363636363,
                "pitch": 36,
                "velocity": 64,
                "duration": 0.19999999999998863,
                "tempo": 120.0
            },
            {
                "start_time": 144.28636363636363,
                "end_time": 144.48863636363635,
                "pitch": 36,
                "velocity": 64,
                "duration": 0.20227272727271384,
                "tempo": 120.0
            },
            {
                "start_time": 144.48863636363635,
                "end_time": 144.68863636363636,
                "pitch": 36,
                "velocity": 64,
                "duration": 0.20000000000001705,
                "tempo": 120.0
            },
            {
                "start_time": 144.6909090909091,
                "end_time": 144.89090909090908,
                "pitch": 36,
                "velocity": 64,
                "duration": 0.19999999999998863,
                "tempo": 120.0
            },
            {
                "start_time": 144.89090909090908,
                "end_time": 145.0909090909091,
                "pitch": 36,
                "velocity": 64,
                "duration": 0.20000000000001705,
                "tempo": 120.0
            },
            {
                "start_time": 145.0909090909091,
                "end_time": 145.29090909090908,
                "pitch": 36,
                "velocity": 64,
                "duration": 0.19999999999998863,
                "tempo": 120.0
            },
            {
                "start_time": 145.29090909090908,
                "end_time": 145.49545454545455,
                "pitch": 36,
                "velocity": 64,
                "duration": 0.20454545454546746,
                "tempo": 120.0
            },
            {
                "start_time": 145.49545454545455,
                "end_time": 145.7022727272727,
                "pitch": 36,
                "velocity": 64,
                "duration": 0.20681818181816425,
                "tempo": 120.0
            },
            {
                "start_time": 145.7022727272727,
                "end_time": 145.9,
                "pitch": 36,
                "velocity": 64,
                "duration": 0.19772727272729185,
                "tempo": 120.0
            },
            {
                "start_time": 145.9,
                "end_time": 146.09545454545454,
                "pitch": 36,
                "velocity": 64,
                "duration": 0.19545454545453822,
                "tempo": 120.0
            },
            {
                "start_time": 146.09545454545454,
                "end_time": 146.29999999999998,
                "pitch": 36,
                "velocity": 64,
                "duration": 0.20454545454543904,
                "tempo": 120.0
            },
            {
                "start_time": 146.29999999999998,
                "end_time": 146.50681818181818,
                "pitch": 36,
                "velocity": 64,
                "duration": 0.20681818181819267,
                "tempo": 120.0
            },
            {
                "start_time": 146.50681818181818,
                "end_time": 146.7090909090909,
                "pitch": 38,
                "velocity": 64,
                "duration": 0.20227272727271384,
                "tempo": 120.0
            },
            {
                "start_time": 146.7090909090909,
                "end_time": 146.9090909090909,
                "pitch": 38,
                "velocity": 64,
                "duration": 0.20000000000001705,
                "tempo": 120.0
            },
            {
                "start_time": 146.91136363636363,
                "end_time": 147.11136363636362,
                "pitch": 38,
                "velocity": 64,
                "duration": 0.19999999999998863,
                "tempo": 120.0
            },
            {
                "start_time": 147.11136363636362,
                "end_time": 147.31363636363636,
                "pitch": 38,
                "velocity": 64,
                "duration": 0.20227272727274226,
                "tempo": 120.0
            },
            {
                "start_time": 147.31363636363636,
                "end_time": 147.51363636363635,
                "pitch": 38,
                "velocity": 64,
                "duration": 0.19999999999998863,
                "tempo": 120.0
            },
            {
                "start_time": 147.51363636363635,
                "end_time": 147.71363636363637,
                "pitch": 38,
                "velocity": 64,
                "duration": 0.20000000000001705,
                "tempo": 120.0
            },
            {
                "start_time": 147.71363636363637,
                "end_time": 147.91590909090908,
                "pitch": 38,
                "velocity": 64,
                "duration": 0.20227272727271384,
                "tempo": 120.0
            },
            {
                "start_time": 147.91590909090908,
                "end_time": 148.11590909090907,
                "pitch": 35,
                "velocity": 64,
                "duration": 0.19999999999998863,
                "tempo": 120.0
            },
            {
                "start_time": 148.11818181818182,
                "end_time": 148.3181818181818,
                "pitch": 35,
                "velocity": 64,
                "duration": 0.19999999999998863,
                "tempo": 120.0
            },
            {
                "start_time": 148.32045454545454,
                "end_time": 148.52045454545453,
                "pitch": 35,
                "velocity": 64,
                "duration": 0.19999999999998863,
                "tempo": 120.0
            },
            {
                "start_time": 148.52045454545453,
                "end_time": 148.72272727272727,
                "pitch": 35,
                "velocity": 64,
                "duration": 0.20227272727274226,
                "tempo": 120.0
            },
            {
                "start_time": 148.72272727272727,
                "end_time": 148.92272727272726,
                "pitch": 35,
                "velocity": 64,
                "duration": 0.19999999999998863,
                "tempo": 120.0
            },
            {
                "start_time": 148.92272727272726,
                "end_time": 149.125,
                "pitch": 35,
                "velocity": 64,
                "duration": 0.20227272727274226,
                "tempo": 120.0
            },
            {
                "start_time": 149.125,
                "end_time": 149.3272727272727,
                "pitch": 35,
                "velocity": 64,
                "duration": 0.20227272727271384,
                "tempo": 120.0
            },
            {
                "start_time": 149.3272727272727,
                "end_time": 149.52727272727273,
                "pitch": 35,
                "velocity": 64,
                "duration": 0.20000000000001705,
                "tempo": 120.0
            },
            {
                "start_time": 149.52727272727273,
                "end_time": 149.72727272727272,
                "pitch": 28,
                "velocity": 64,
                "duration": 0.19999999999998863,
                "tempo": 120.0
            },
            {
                "start_time": 149.72727272727272,
                "end_time": 149.9272727272727,
                "pitch": 28,
                "velocity": 64,
                "duration": 0.19999999999998863,
                "tempo": 120.0
            },
            {
                "start_time": 149.92954545454543,
                "end_time": 150.12954545454545,
                "pitch": 28,
                "velocity": 64,
                "duration": 0.20000000000001705,
                "tempo": 120.0
            },
            {
                "start_time": 150.12954545454545,
                "end_time": 150.33181818181816,
                "pitch": 28,
                "velocity": 64,
                "duration": 0.20227272727271384,
                "tempo": 120.0
            },
            {
                "start_time": 150.33181818181816,
                "end_time": 150.53181818181818,
                "pitch": 28,
                "velocity": 64,
                "duration": 0.20000000000001705,
                "tempo": 120.0
            },
            {
                "start_time": 150.5340909090909,
                "end_time": 150.7340909090909,
                "pitch": 28,
                "velocity": 64,
                "duration": 0.19999999999998863,
                "tempo": 120.0
            },
            {
                "start_time": 150.7340909090909,
                "end_time": 150.93636363636364,
                "pitch": 28,
                "velocity": 64,
                "duration": 0.20227272727274226,
                "tempo": 120.0
            },
            {
                "start_time": 150.93636363636364,
                "end_time": 151.13863636363635,
                "pitch": 28,
                "velocity": 64,
                "duration": 0.20227272727271384,
                "tempo": 120.0
            },
            {
                "start_time": 151.13863636363635,
                "end_time": 151.53863636363636,
                "pitch": 28,
                "velocity": 64,
                "duration": 0.4000000000000057,
                "tempo": 120.0
            },
            {
                "start_time": 151.54090909090908,
                "end_time": 151.73863636363635,
                "pitch": 28,
                "velocity": 64,
                "duration": 0.19772727272726343,
                "tempo": 120.0
            },
            {
                "start_time": 151.74090909090907,
                "end_time": 151.9431818181818,
                "pitch": 28,
                "velocity": 64,
                "duration": 0.20227272727274226,
                "tempo": 120.0
            },
            {
                "start_time": 151.94545454545454,
                "end_time": 152.15,
                "pitch": 28,
                "velocity": 64,
                "duration": 0.20454545454546746,
                "tempo": 120.0
            },
            {
                "start_time": 152.15,
                "end_time": 152.34772727272727,
                "pitch": 28,
                "velocity": 64,
                "duration": 0.19772727272726343,
                "tempo": 120.0
            },
            {
                "start_time": 152.34772727272727,
                "end_time": 152.5431818181818,
                "pitch": 28,
                "velocity": 64,
                "duration": 0.19545454545453822,
                "tempo": 120.0
            },
            {
                "start_time": 152.54545454545453,
                "end_time": 152.74772727272727,
                "pitch": 28,
                "velocity": 64,
                "duration": 0.20227272727274226,
                "tempo": 120.0
            },
            {
                "start_time": 152.74772727272727,
                "end_time": 152.9522727272727,
                "pitch": 28,
                "velocity": 64,
                "duration": 0.20454545454543904,
                "tempo": 120.0
            },
            {
                "start_time": 153.34772727272727,
                "end_time": 153.95,
                "pitch": 29,
                "velocity": 64,
                "duration": 0.6022727272727195,
                "tempo": 120.0
            },
            {
                "start_time": 153.95,
                "end_time": 154.15,
                "pitch": 29,
                "velocity": 64,
                "duration": 0.20000000000001705,
                "tempo": 120.0
            },
            {
                "start_time": 154.15227272727273,
                "end_time": 154.35681818181817,
                "pitch": 33,
                "velocity": 64,
                "duration": 0.20454545454543904,
                "tempo": 120.0
            },
            {
                "start_time": 154.35681818181817,
                "end_time": 154.56136363636364,
                "pitch": 36,
                "velocity": 64,
                "duration": 0.20454545454546746,
                "tempo": 120.0
            },
            {
                "start_time": 154.56363636363636,
                "end_time": 154.76363636363635,
                "pitch": 31,
                "velocity": 64,
                "duration": 0.19999999999998863,
                "tempo": 120.0
            },
            {
                "start_time": 154.76590909090908,
                "end_time": 154.9659090909091,
                "pitch": 43,
                "velocity": 64,
                "duration": 0.20000000000001705,
                "tempo": 120.0
            },
            {
                "start_time": 154.9659090909091,
                "end_time": 155.1681818181818,
                "pitch": 38,
                "velocity": 64,
                "duration": 0.20227272727271384,
                "tempo": 120.0
            },
            {
                "start_time": 155.1681818181818,
                "end_time": 155.36818181818182,
                "pitch": 35,
                "velocity": 64,
                "duration": 0.20000000000001705,
                "tempo": 120.0
            },
            {
                "start_time": 155.36818181818182,
                "end_time": 155.57045454545454,
                "pitch": 31,
                "velocity": 64,
                "duration": 0.20227272727271384,
                "tempo": 120.0
            },
            {
                "start_time": 155.57045454545454,
                "end_time": 155.77272727272725,
                "pitch": 33,
                "velocity": 64,
                "duration": 0.20227272727271384,
                "tempo": 120.0
            },
            {
                "start_time": 155.77272727272725,
                "end_time": 155.97272727272727,
                "pitch": 35,
                "velocity": 64,
                "duration": 0.20000000000001705,
                "tempo": 120.0
            },
            {
                "start_time": 155.975,
                "end_time": 156.17499999999998,
                "pitch": 31,
                "velocity": 64,
                "duration": 0.19999999999998863,
                "tempo": 120.0
            },
            {
                "start_time": 156.1772727272727,
                "end_time": 156.375,
                "pitch": 36,
                "velocity": 64,
                "duration": 0.19772727272729185,
                "tempo": 120.0
            },
            {
                "start_time": 156.37727272727273,
                "end_time": 156.575,
                "pitch": 36,
                "velocity": 64,
                "duration": 0.19772727272726343,
                "tempo": 120.0
            },
            {
                "start_time": 156.5772727272727,
                "end_time": 156.77727272727273,
                "pitch": 36,
                "velocity": 64,
                "duration": 0.20000000000001705,
                "tempo": 120.0
            },
            {
                "start_time": 156.77954545454546,
                "end_time": 157.1818181818182,
                "pitch": 35,
                "velocity": 64,
                "duration": 0.4022727272727309,
                "tempo": 120.0
            },
            {
                "start_time": 157.1818181818182,
                "end_time": 157.38181818181818,
                "pitch": 35,
                "velocity": 64,
                "duration": 0.19999999999998863,
                "tempo": 120.0
            },
            {
                "start_time": 157.38181818181818,
                "end_time": 157.5840909090909,
                "pitch": 35,
                "velocity": 64,
                "duration": 0.20227272727271384,
                "tempo": 120.0
            },
            {
                "start_time": 157.5840909090909,
                "end_time": 157.78636363636363,
                "pitch": 35,
                "velocity": 64,
                "duration": 0.20227272727274226,
                "tempo": 120.0
            },
            {
                "start_time": 157.78636363636363,
                "end_time": 157.98636363636362,
                "pitch": 33,
                "velocity": 64,
                "duration": 0.19999999999998863,
                "tempo": 120.0
            },
            {
                "start_time": 157.98863636363635,
                "end_time": 158.18863636363636,
                "pitch": 33,
                "velocity": 64,
                "duration": 0.20000000000001705,
                "tempo": 120.0
            },
            {
                "start_time": 158.18863636363636,
                "end_time": 158.38863636363635,
                "pitch": 33,
                "velocity": 64,
                "duration": 0.19999999999998863,
                "tempo": 120.0
            },
            {
                "start_time": 158.39090909090908,
                "end_time": 158.79090909090908,
                "pitch": 31,
                "velocity": 64,
                "duration": 0.4000000000000057,
                "tempo": 120.0
            },
            {
                "start_time": 158.79090909090908,
                "end_time": 158.99090909090907,
                "pitch": 31,
                "velocity": 64,
                "duration": 0.19999999999998863,
                "tempo": 120.0
            },
            {
                "start_time": 158.99318181818182,
                "end_time": 159.1931818181818,
                "pitch": 31,
                "velocity": 64,
                "duration": 0.19999999999998863,
                "tempo": 120.0
            },
            {
                "start_time": 159.1931818181818,
                "end_time": 159.39545454545453,
                "pitch": 31,
                "velocity": 64,
                "duration": 0.20227272727271384,
                "tempo": 120.0
            },
            {
                "start_time": 159.39772727272725,
                "end_time": 159.6,
                "pitch": 29,
                "velocity": 64,
                "duration": 0.20227272727274226,
                "tempo": 120.0
            },
            {
                "start_time": 159.6,
                "end_time": 159.8068181818182,
                "pitch": 29,
                "velocity": 64,
                "duration": 0.20681818181819267,
                "tempo": 120.0
            },
            {
                "start_time": 159.8068181818182,
                "end_time": 160.00454545454545,
                "pitch": 33,
                "velocity": 64,
                "duration": 0.19772727272726343,
                "tempo": 120.0
            },
            {
                "start_time": 160.00454545454545,
                "end_time": 160.19772727272726,
                "pitch": 36,
                "velocity": 64,
                "duration": 0.19318181818181301,
                "tempo": 120.0
            },
            {
                "start_time": 160.2,
                "end_time": 160.4,
                "pitch": 41,
                "velocity": 64,
                "duration": 0.20000000000001705,
                "tempo": 120.0
            },
            {
                "start_time": 160.4,
                "end_time": 160.6,
                "pitch": 29,
                "velocity": 64,
                "duration": 0.19999999999998863,
                "tempo": 120.0
            },
            {
                "start_time": 160.6,
                "end_time": 160.8022727272727,
                "pitch": 36,
                "velocity": 64,
                "duration": 0.20227272727271384,
                "tempo": 120.0
            },
            {
                "start_time": 160.8022727272727,
                "end_time": 161.20454545454544,
                "pitch": 28,
                "velocity": 64,
                "duration": 0.4022727272727309,
                "tempo": 120.0
            },
            {
                "start_time": 161.20454545454544,
                "end_time": 161.40681818181818,
                "pitch": 29,
                "velocity": 64,
                "duration": 0.20227272727274226,
                "tempo": 120.0
            },
            {
                "start_time": 161.40681818181818,
                "end_time": 161.61136363636362,
                "pitch": 32,
                "velocity": 64,
                "duration": 0.20454545454543904,
                "tempo": 120.0
            },
            {
                "start_time": 161.61136363636362,
                "end_time": 161.8159090909091,
                "pitch": 35,
                "velocity": 64,
                "duration": 0.20454545454546746,
                "tempo": 120.0
            },
            {
                "start_time": 161.8181818181818,
                "end_time": 162.01363636363635,
                "pitch": 38,
                "velocity": 64,
                "duration": 0.19545454545453822,
                "tempo": 120.0
            },
            {
                "start_time": 162.01590909090908,
                "end_time": 162.21136363636361,
                "pitch": 41,
                "velocity": 64,
                "duration": 0.19545454545453822,
                "tempo": 120.0
            },
            {
                "start_time": 162.21136363636361,
                "end_time": 162.41363636363636,
                "pitch": 40,
                "velocity": 64,
                "duration": 0.20227272727274226,
                "tempo": 120.0
            },
            {
                "start_time": 162.41590909090908,
                "end_time": 162.62045454545455,
                "pitch": 38,
                "velocity": 64,
                "duration": 0.20454545454546746,
                "tempo": 120.0
            },
            {
                "start_time": 162.62272727272727,
                "end_time": 162.82272727272726,
                "pitch": 33,
                "velocity": 64,
                "duration": 0.19999999999998863,
                "tempo": 120.0
            },
            {
                "start_time": 162.82272727272726,
                "end_time": 163.025,
                "pitch": 35,
                "velocity": 64,
                "duration": 0.20227272727274226,
                "tempo": 120.0
            },
            {
                "start_time": 163.025,
                "end_time": 163.225,
                "pitch": 36,
                "velocity": 64,
                "duration": 0.19999999999998863,
                "tempo": 120.0
            },
            {
                "start_time": 163.225,
                "end_time": 163.42499999999998,
                "pitch": 33,
                "velocity": 64,
                "duration": 0.19999999999998863,
                "tempo": 120.0
            },
            {
                "start_time": 163.4272727272727,
                "end_time": 163.62727272727273,
                "pitch": 31,
                "velocity": 64,
                "duration": 0.20000000000001705,
                "tempo": 120.0
            },
            {
                "start_time": 163.62727272727273,
                "end_time": 163.8272727272727,
                "pitch": 33,
                "velocity": 64,
                "duration": 0.19999999999998863,
                "tempo": 120.0
            },
            {
                "start_time": 163.82954545454544,
                "end_time": 164.02954545454546,
                "pitch": 35,
                "velocity": 64,
                "duration": 0.20000000000001705,
                "tempo": 120.0
            },
            {
                "start_time": 164.03181818181818,
                "end_time": 164.23181818181817,
                "pitch": 26,
                "velocity": 64,
                "duration": 0.19999999999998863,
                "tempo": 120.0
            },
            {
                "start_time": 164.23181818181817,
                "end_time": 164.4340909090909,
                "pitch": 26,
                "velocity": 64,
                "duration": 0.20227272727274226,
                "tempo": 120.0
            },
            {
                "start_time": 164.4340909090909,
                "end_time": 164.6340909090909,
                "pitch": 33,
                "velocity": 64,
                "duration": 0.19999999999998863,
                "tempo": 120.0
            },
            {
                "start_time": 164.63636363636363,
                "end_time": 164.83636363636361,
                "pitch": 38,
                "velocity": 64,
                "duration": 0.19999999999998863,
                "tempo": 120.0
            },
            {
                "start_time": 164.83863636363637,
                "end_time": 165.03863636363636,
                "pitch": 28,
                "velocity": 64,
                "duration": 0.19999999999998863,
                "tempo": 120.0
            },
            {
                "start_time": 165.03863636363636,
                "end_time": 165.23863636363635,
                "pitch": 28,
                "velocity": 64,
                "duration": 0.19999999999998863,
                "tempo": 120.0
            },
            {
                "start_time": 165.23863636363635,
                "end_time": 165.43863636363636,
                "pitch": 35,
                "velocity": 64,
                "duration": 0.20000000000001705,
                "tempo": 120.0
            },
            {
                "start_time": 165.43863636363636,
                "end_time": 165.64090909090908,
                "pitch": 32,
                "velocity": 64,
                "duration": 0.20227272727271384,
                "tempo": 120.0
            },
            {
                "start_time": 165.64090909090908,
                "end_time": 165.8409090909091,
                "pitch": 28,
                "velocity": 64,
                "duration": 0.20000000000001705,
                "tempo": 120.0
            },
            {
                "start_time": 166.24545454545455,
                "end_time": 166.85,
                "pitch": 29,
                "velocity": 64,
                "duration": 0.6045454545454447,
                "tempo": 120.0
            },
            {
                "start_time": 166.85,
                "end_time": 167.0522727272727,
                "pitch": 29,
                "velocity": 64,
                "duration": 0.20227272727271384,
                "tempo": 120.0
            },
            {
                "start_time": 167.0522727272727,
                "end_time": 167.25227272727273,
                "pitch": 33,
                "velocity": 64,
                "duration": 0.20000000000001705,
                "tempo": 120.0
            },
            {
                "start_time": 167.25227272727273,
                "end_time": 167.4522727272727,
                "pitch": 36,
                "velocity": 64,
                "duration": 0.19999999999998863,
                "tempo": 120.0
            },
            {
                "start_time": 167.4522727272727,
                "end_time": 167.65681818181818,
                "pitch": 31,
                "velocity": 64,
                "duration": 0.20454545454546746,
                "tempo": 120.0
            },
            {
                "start_time": 167.6590909090909,
                "end_time": 167.86136363636362,
                "pitch": 43,
                "velocity": 64,
                "duration": 0.20227272727271384,
                "tempo": 120.0
            },
            {
                "start_time": 167.86363636363635,
                "end_time": 168.06136363636364,
                "pitch": 38,
                "velocity": 64,
                "duration": 0.19772727272729185,
                "tempo": 120.0
            },
            {
                "start_time": 168.06136363636364,
                "end_time": 168.25681818181818,
                "pitch": 35,
                "velocity": 64,
                "duration": 0.19545454545453822,
                "tempo": 120.0
            },
            {
                "start_time": 168.25681818181818,
                "end_time": 168.46136363636361,
                "pitch": 31,
                "velocity": 64,
                "duration": 0.20454545454543904,
                "tempo": 120.0
            },
            {
                "start_time": 168.46136363636361,
                "end_time": 168.66590909090908,
                "pitch": 33,
                "velocity": 64,
                "duration": 0.20454545454546746,
                "tempo": 120.0
            },
            {
                "start_time": 168.66590909090908,
                "end_time": 168.8681818181818,
                "pitch": 35,
                "velocity": 64,
                "duration": 0.20227272727271384,
                "tempo": 120.0
            },
            {
                "start_time": 168.8681818181818,
                "end_time": 169.07045454545454,
                "pitch": 31,
                "velocity": 64,
                "duration": 0.20227272727274226,
                "tempo": 120.0
            },
            {
                "start_time": 169.07045454545454,
                "end_time": 169.2681818181818,
                "pitch": 36,
                "velocity": 64,
                "duration": 0.19772727272726343,
                "tempo": 120.0
            },
            {
                "start_time": 169.2681818181818,
                "end_time": 169.46363636363637,
                "pitch": 36,
                "velocity": 64,
                "duration": 0.19545454545456664,
                "tempo": 120.0
            },
            {
                "start_time": 169.46363636363637,
                "end_time": 169.6681818181818,
                "pitch": 36,
                "velocity": 64,
                "duration": 0.20454545454543904,
                "tempo": 120.0
            },
            {
                "start_time": 169.6681818181818,
                "end_time": 170.07045454545454,
                "pitch": 35,
                "velocity": 64,
                "duration": 0.4022727272727309,
                "tempo": 120.0
            },
            {
                "start_time": 170.07272727272726,
                "end_time": 170.26590909090908,
                "pitch": 35,
                "velocity": 64,
                "duration": 0.19318181818181301,
                "tempo": 120.0
            },
            {
                "start_time": 170.2681818181818,
                "end_time": 170.47045454545454,
                "pitch": 35,
                "velocity": 64,
                "duration": 0.20227272727274226,
                "tempo": 120.0
            },
            {
                "start_time": 170.47045454545454,
                "end_time": 170.6772727272727,
                "pitch": 35,
                "velocity": 64,
                "duration": 0.20681818181816425,
                "tempo": 120.0
            },
            {
                "start_time": 170.6772727272727,
                "end_time": 170.87954545454545,
                "pitch": 33,
                "velocity": 64,
                "duration": 0.20227272727274226,
                "tempo": 120.0
            },
            {
                "start_time": 170.87954545454545,
                "end_time": 171.07954545454544,
                "pitch": 33,
                "velocity": 64,
                "duration": 0.19999999999998863,
                "tempo": 120.0
            },
            {
                "start_time": 171.08181818181816,
                "end_time": 171.2840909090909,
                "pitch": 33,
                "velocity": 64,
                "duration": 0.20227272727274226,
                "tempo": 120.0
            },
            {
                "start_time": 171.2840909090909,
                "end_time": 171.6840909090909,
                "pitch": 31,
                "velocity": 64,
                "duration": 0.4000000000000057,
                "tempo": 120.0
            },
            {
                "start_time": 171.68636363636364,
                "end_time": 171.8840909090909,
                "pitch": 31,
                "velocity": 64,
                "duration": 0.19772727272726343,
                "tempo": 120.0
            },
            {
                "start_time": 171.88636363636363,
                "end_time": 172.08636363636361,
                "pitch": 31,
                "velocity": 64,
                "duration": 0.19999999999998863,
                "tempo": 120.0
            },
            {
                "start_time": 172.08636363636361,
                "end_time": 172.28863636363636,
                "pitch": 31,
                "velocity": 64,
                "duration": 0.20227272727274226,
                "tempo": 120.0
            },
            {
                "start_time": 172.28863636363636,
                "end_time": 172.48863636363635,
                "pitch": 29,
                "velocity": 64,
                "duration": 0.19999999999998863,
                "tempo": 120.0
            },
            {
                "start_time": 172.49090909090907,
                "end_time": 172.6909090909091,
                "pitch": 29,
                "velocity": 64,
                "duration": 0.20000000000001705,
                "tempo": 120.0
            },
            {
                "start_time": 172.6909090909091,
                "end_time": 172.8931818181818,
                "pitch": 33,
                "velocity": 64,
                "duration": 0.20227272727271384,
                "tempo": 120.0
            },
            {
                "start_time": 172.8931818181818,
                "end_time": 173.09318181818182,
                "pitch": 36,
                "velocity": 64,
                "duration": 0.20000000000001705,
                "tempo": 120.0
            },
            {
                "start_time": 173.09318181818182,
                "end_time": 173.29545454545453,
                "pitch": 41,
                "velocity": 64,
                "duration": 0.20227272727271384,
                "tempo": 120.0
            },
            {
                "start_time": 173.29772727272726,
                "end_time": 173.49772727272727,
                "pitch": 33,
                "velocity": 64,
                "duration": 0.20000000000001705,
                "tempo": 120.0
            },
            {
                "start_time": 173.49772727272727,
                "end_time": 173.69772727272726,
                "pitch": 36,
                "velocity": 64,
                "duration": 0.19999999999998863,
                "tempo": 120.0
            },
            {
                "start_time": 173.7,
                "end_time": 174.1,
                "pitch": 28,
                "velocity": 64,
                "duration": 0.4000000000000057,
                "tempo": 120.0
            },
            {
                "start_time": 174.1,
                "end_time": 174.3022727272727,
                "pitch": 40,
                "velocity": 64,
                "duration": 0.20227272727271384,
                "tempo": 120.0
            },
            {
                "start_time": 174.3022727272727,
                "end_time": 174.50227272727273,
                "pitch": 38,
                "velocity": 64,
                "duration": 0.20000000000001705,
                "tempo": 120.0
            },
            {
                "start_time": 174.50454545454545,
                "end_time": 174.70454545454544,
                "pitch": 35,
                "velocity": 64,
                "duration": 0.19999999999998863,
                "tempo": 120.0
            },
            {
                "start_time": 174.70454545454544,
                "end_time": 174.90454545454546,
                "pitch": 32,
                "velocity": 64,
                "duration": 0.20000000000001705,
                "tempo": 120.0
            },
            {
                "start_time": 174.90454545454546,
                "end_time": 175.10681818181817,
                "pitch": 35,
                "velocity": 64,
                "duration": 0.20227272727271384,
                "tempo": 120.0
            },
            {
                "start_time": 175.10681818181817,
                "end_time": 175.3090909090909,
                "pitch": 28,
                "velocity": 64,
                "duration": 0.20227272727274226,
                "tempo": 120.0
            },
            {
                "start_time": 175.31136363636364,
                "end_time": 175.71136363636361,
                "pitch": 28,
                "velocity": 64,
                "duration": 0.39999999999997726,
                "tempo": 120.0
            },
            {
                "start_time": 175.71136363636361,
                "end_time": 175.91136363636363,
                "pitch": 29,
                "velocity": 64,
                "duration": 0.20000000000001705,
                "tempo": 120.0
            },
            {
                "start_time": 175.91136363636363,
                "end_time": 176.11363636363635,
                "pitch": 32,
                "velocity": 64,
                "duration": 0.20227272727271384,
                "tempo": 120.0
            },
            {
                "start_time": 176.11363636363635,
                "end_time": 176.31363636363636,
                "pitch": 35,
                "velocity": 64,
                "duration": 0.20000000000001705,
                "tempo": 120.0
            },
            {
                "start_time": 176.3159090909091,
                "end_time": 176.51590909090908,
                "pitch": 38,
                "velocity": 64,
                "duration": 0.19999999999998863,
                "tempo": 120.0
            },
            {
                "start_time": 176.71818181818182,
                "end_time": 176.92045454545453,
                "pitch": 28,
                "velocity": 64,
                "duration": 0.20227272727271384,
                "tempo": 120.0
            },
            {
                "start_time": 176.92045454545453,
                "end_time": 177.32272727272726,
                "pitch": 33,
                "velocity": 64,
                "duration": 0.4022727272727309,
                "tempo": 120.0
            },
            {
                "start_time": 177.32272727272726,
                "end_time": 177.52499999999998,
                "pitch": 33,
                "velocity": 64,
                "duration": 0.20227272727271384,
                "tempo": 120.0
            },
            {
                "start_time": 177.52499999999998,
                "end_time": 177.72954545454544,
                "pitch": 33,
                "velocity": 64,
                "duration": 0.20454545454546746,
                "tempo": 120.0
            },
            {
                "start_time": 177.72954545454544,
                "end_time": 177.93636363636364,
                "pitch": 33,
                "velocity": 64,
                "duration": 0.20681818181819267,
                "tempo": 120.0
            },
            {
                "start_time": 177.93636363636364,
                "end_time": 178.1340909090909,
                "pitch": 33,
                "velocity": 64,
                "duration": 0.19772727272726343,
                "tempo": 120.0
            },
            {
                "start_time": 178.1340909090909,
                "end_time": 178.32954545454544,
                "pitch": 33,
                "velocity": 64,
                "duration": 0.19545454545453822,
                "tempo": 120.0
            },
            {
                "start_time": 178.32954545454544,
                "end_time": 178.5340909090909,
                "pitch": 33,
                "velocity": 64,
                "duration": 0.20454545454546746,
                "tempo": 120.0
            },
            {
                "start_time": 178.5340909090909,
                "end_time": 178.9409090909091,
                "pitch": 33,
                "velocity": 64,
                "duration": 0.4068181818181813,
                "tempo": 120.0
            },
            {
                "start_time": 178.9431818181818,
                "end_time": 179.1431818181818,
                "pitch": 33,
                "velocity": 64,
                "duration": 0.19999999999998863,
                "tempo": 120.0
            },
            {
                "start_time": 179.1431818181818,
                "end_time": 179.34545454545454,
                "pitch": 33,
                "velocity": 64,
                "duration": 0.20227272727274226,
                "tempo": 120.0
            },
            {
                "start_time": 179.34545454545454,
                "end_time": 179.74772727272727,
                "pitch": 33,
                "velocity": 64,
                "duration": 0.4022727272727309,
                "tempo": 120.0
            },
            {
                "start_time": 179.74772727272727,
                "end_time": 179.95,
                "pitch": 33,
                "velocity": 64,
                "duration": 0.20227272727271384,
                "tempo": 120.0
            }
        ],
        "Acoustic Grand Piano": [
            {
                "start_time": 0.038636363636363635,
                "end_time": 1.4386363636363635,
                "pitch": 64,
                "velocity": 64,
                "duration": 1.4,
                "tempo": 120.0
            },
            {
                "start_time": 1.440909090909091,
                "end_time": 3.2545454545454544,
                "pitch": 62,
                "velocity": 64,
                "duration": 1.8136363636363635,
                "tempo": 120.0
            },
            {
                "start_time": 3.256818181818182,
                "end_time": 4.661363636363636,
                "pitch": 64,
                "velocity": 64,
                "duration": 1.4045454545454543,
                "tempo": 120.0
            },
            {
                "start_time": 4.661363636363636,
                "end_time": 5.465909090909091,
                "pitch": 62,
                "velocity": 64,
                "duration": 0.8045454545454547,
                "tempo": 120.0
            },
            {
                "start_time": 5.465909090909091,
                "end_time": 6.470454545454545,
                "pitch": 62,
                "velocity": 64,
                "duration": 1.004545454545454,
                "tempo": 120.0
            },
            {
                "start_time": 6.470454545454545,
                "end_time": 7.877272727272727,
                "pitch": 64,
                "velocity": 64,
                "duration": 1.4068181818181822,
                "tempo": 120.0
            },
            {
                "start_time": 7.877272727272727,
                "end_time": 8.679545454545455,
                "pitch": 62,
                "velocity": 64,
                "duration": 0.8022727272727277,
                "tempo": 120.0
            },
            {
                "start_time": 8.679545454545455,
                "end_time": 9.695454545454545,
                "pitch": 62,
                "velocity": 64,
                "duration": 1.0159090909090907,
                "tempo": 120.0
            },
            {
                "start_time": 9.697727272727272,
                "end_time": 11.1,
                "pitch": 62,
                "velocity": 64,
                "duration": 1.4022727272727273,
                "tempo": 120.0
            },
            {
                "start_time": 11.1,
                "end_time": 12.913636363636362,
                "pitch": 62,
                "velocity": 64,
                "duration": 1.8136363636363626,
                "tempo": 120.0
            },
            {
                "start_time": 12.915909090909091,
                "end_time": 15.934090909090909,
                "pitch": 64,
                "velocity": 64,
                "duration": 3.0181818181818176,
                "tempo": 120.0
            },
            {
                "start_time": 15.934090909090909,
                "end_time": 16.136363636363637,
                "pitch": 64,
                "velocity": 64,
                "duration": 0.20227272727272805,
                "tempo": 120.0
            },
            {
                "start_time": 16.136363636363637,
                "end_time": 18.347727272727273,
                "pitch": 64,
                "velocity": 64,
                "duration": 2.211363636363636,
                "tempo": 120.0
            },
            {
                "start_time": 18.349999999999998,
                "end_time": 19.35909090909091,
                "pitch": 67,
                "velocity": 64,
                "duration": 1.0090909090909115,
                "tempo": 120.0
            },
            {
                "start_time": 19.35909090909091,
                "end_time": 21.970454545454544,
                "pitch": 62,
                "velocity": 64,
                "duration": 2.6113636363636346,
                "tempo": 120.0
            },
            {
                "start_time": 21.970454545454544,
                "end_time": 22.570454545454545,
                "pitch": 62,
                "velocity": 64,
                "duration": 0.6000000000000014,
                "tempo": 120.0
            },
            {
                "start_time": 22.570454545454545,
                "end_time": 24.177272727272726,
                "pitch": 64,
                "velocity": 64,
                "duration": 1.6068181818181806,
                "tempo": 120.0
            },
            {
                "start_time": 24.179545454545455,
                "end_time": 24.579545454545453,
                "pitch": 52,
                "velocity": 64,
                "duration": 0.3999999999999986,
                "tempo": 120.0
            },
            {
                "start_time": 24.579545454545453,
                "end_time": 24.886363636363637,
                "pitch": 64,
                "velocity": 64,
                "duration": 0.30681818181818343,
                "tempo": 120.0
            },
            {
                "start_time": 24.888636363636362,
                "end_time": 24.988636363636363,
                "pitch": 52,
                "velocity": 64,
                "duration": 0.10000000000000142,
                "tempo": 120.0
            },
            {
                "start_time": 24.99090909090909,
                "end_time": 25.08863636363636,
                "pitch": 64,
                "velocity": 64,
                "duration": 0.09772727272727266,
                "tempo": 120.0
            },
            {
                "start_time": 25.08863636363636,
                "end_time": 25.186363636363634,
                "pitch": 52,
                "velocity": 64,
                "duration": 0.09772727272727266,
                "tempo": 120.0
            },
            {
                "start_time": 25.186363636363634,
                "end_time": 25.584090909090907,
                "pitch": 64,
                "velocity": 64,
                "duration": 0.3977272727272734,
                "tempo": 120.0
            },
            {
                "start_time": 25.584090909090907,
                "end_time": 25.786363636363635,
                "pitch": 64,
                "velocity": 64,
                "duration": 0.20227272727272805,
                "tempo": 120.0
            },
            {
                "start_time": 25.786363636363635,
                "end_time": 28.60681818181818,
                "pitch": 65,
                "velocity": 64,
                "duration": 2.8204545454545453,
                "tempo": 120.0
            },
            {
                "start_time": 28.60681818181818,
                "end_time": 28.80681818181818,
                "pitch": 60,
                "velocity": 64,
                "duration": 0.1999999999999993,
                "tempo": 120.0
            },
            {
                "start_time": 28.80909090909091,
                "end_time": 29.00681818181818,
                "pitch": 65,
                "velocity": 64,
                "duration": 0.19772727272727053,
                "tempo": 120.0
            },
            {
                "start_time": 29.00681818181818,
                "end_time": 31.218181818181815,
                "pitch": 64,
                "velocity": 64,
                "duration": 2.211363636363636,
                "tempo": 120.0
            },
            {
                "start_time": 31.218181818181815,
                "end_time": 32.22272727272727,
                "pitch": 67,
                "velocity": 64,
                "duration": 1.004545454545454,
                "tempo": 120.0
            },
            {
                "start_time": 32.22272727272727,
                "end_time": 35.038636363636364,
                "pitch": 62,
                "velocity": 64,
                "duration": 2.815909090909095,
                "tempo": 120.0
            },
            {
                "start_time": 35.038636363636364,
                "end_time": 35.23863636363636,
                "pitch": 60,
                "velocity": 64,
                "duration": 0.19999999999999574,
                "tempo": 120.0
            },
            {
                "start_time": 35.24090909090909,
                "end_time": 36.84318181818182,
                "pitch": 65,
                "velocity": 64,
                "duration": 1.6022727272727266,
                "tempo": 120.0
            },
            {
                "start_time": 36.84318181818182,
                "end_time": 37.64772727272727,
                "pitch": 65,
                "velocity": 64,
                "duration": 0.8045454545454547,
                "tempo": 120.0
            },
            {
                "start_time": 37.64772727272727,
                "end_time": 38.65,
                "pitch": 64,
                "velocity": 64,
                "duration": 1.0022727272727252,
                "tempo": 120.0
            },
            {
                "start_time": 38.652272727272724,
                "end_time": 41.663636363636364,
                "pitch": 64,
                "velocity": 64,
                "duration": 3.0113636363636402,
                "tempo": 120.0
            },
            {
                "start_time": 41.66590909090909,
                "end_time": 41.87045454545454,
                "pitch": 64,
                "velocity": 64,
                "duration": 0.20454545454545325,
                "tempo": 120.0
            },
            {
                "start_time": 41.87272727272727,
                "end_time": 44.07954545454545,
                "pitch": 64,
                "velocity": 64,
                "duration": 2.2068181818181856,
                "tempo": 120.0
            },
            {
                "start_time": 44.07954545454545,
                "end_time": 45.084090909090904,
                "pitch": 67,
                "velocity": 64,
                "duration": 1.0045454545454504,
                "tempo": 120.0
            },
            {
                "start_time": 45.084090909090904,
                "end_time": 47.68863636363636,
                "pitch": 62,
                "velocity": 64,
                "duration": 2.604545454545459,
                "tempo": 120.0
            },
            {
                "start_time": 47.68863636363636,
                "end_time": 48.29090909090909,
                "pitch": 62,
                "velocity": 64,
                "duration": 0.6022727272727266,
                "tempo": 120.0
            },
            {
                "start_time": 48.29090909090909,
                "end_time": 49.90454545454545,
                "pitch": 64,
                "velocity": 64,
                "duration": 1.6136363636363598,
                "tempo": 120.0
            },
            {
                "start_time": 49.90681818181818,
                "end_time": 50.309090909090905,
                "pitch": 52,
                "velocity": 64,
                "duration": 0.4022727272727238,
                "tempo": 120.0
            },
            {
                "start_time": 50.309090909090905,
                "end_time": 50.60909090909091,
                "pitch": 64,
                "velocity": 64,
                "duration": 0.30000000000000426,
                "tempo": 120.0
            },
            {
                "start_time": 50.60909090909091,
                "end_time": 50.709090909090904,
                "pitch": 52,
                "velocity": 64,
                "duration": 0.09999999999999432,
                "tempo": 120.0
            },
            {
                "start_time": 50.709090909090904,
                "end_time": 50.809090909090905,
                "pitch": 64,
                "velocity": 64,
                "duration": 0.10000000000000142,
                "tempo": 120.0
            },
            {
                "start_time": 50.81136363636364,
                "end_time": 50.90909090909091,
                "pitch": 52,
                "velocity": 64,
                "duration": 0.09772727272726911,
                "tempo": 120.0
            },
            {
                "start_time": 50.90909090909091,
                "end_time": 51.309090909090905,
                "pitch": 64,
                "velocity": 64,
                "duration": 0.3999999999999986,
                "tempo": 120.0
            },
            {
                "start_time": 51.31136363636364,
                "end_time": 51.51136363636363,
                "pitch": 64,
                "velocity": 64,
                "duration": 0.19999999999999574,
                "tempo": 120.0
            },
            {
                "start_time": 51.51136363636363,
                "end_time": 54.31818181818181,
                "pitch": 65,
                "velocity": 64,
                "duration": 2.80681818181818,
                "tempo": 120.0
            },
            {
                "start_time": 54.31818181818181,
                "end_time": 54.518181818181816,
                "pitch": 60,
                "velocity": 64,
                "duration": 0.20000000000000284,
                "tempo": 120.0
            },
            {
                "start_time": 54.52045454545454,
                "end_time": 54.720454545454544,
                "pitch": 65,
                "velocity": 64,
                "duration": 0.20000000000000284,
                "tempo": 120.0
            },
            {
                "start_time": 54.720454545454544,
                "end_time": 56.925,
                "pitch": 64,
                "velocity": 64,
                "duration": 2.2045454545454533,
                "tempo": 120.0
            },
            {
                "start_time": 56.925,
                "end_time": 57.93863636363636,
                "pitch": 67,
                "velocity": 64,
                "duration": 1.0136363636363654,
                "tempo": 120.0
            },
            {
                "start_time": 57.93863636363636,
                "end_time": 59.340909090909086,
                "pitch": 62,
                "velocity": 64,
                "duration": 1.4022727272727238,
                "tempo": 120.0
            },
            {
                "start_time": 59.340909090909086,
                "end_time": 60.945454545454545,
                "pitch": 60,
                "velocity": 64,
                "duration": 1.604545454545459,
                "tempo": 120.0
            },
            {
                "start_time": 60.945454545454545,
                "end_time": 61.74545454545454,
                "pitch": 59,
                "velocity": 64,
                "duration": 0.7999999999999972,
                "tempo": 120.0
            },
            {
                "start_time": 61.74772727272727,
                "end_time": 62.55,
                "pitch": 59,
                "velocity": 64,
                "duration": 0.8022727272727295,
                "tempo": 120.0
            },
            {
                "start_time": 62.55,
                "end_time": 63.349999999999994,
                "pitch": 59,
                "velocity": 64,
                "duration": 0.7999999999999972,
                "tempo": 120.0
            },
            {
                "start_time": 63.349999999999994,
                "end_time": 64.36136363636363,
                "pitch": 59,
                "velocity": 64,
                "duration": 1.0113636363636402,
                "tempo": 120.0
            },
            {
                "start_time": 64.75681818181818,
                "end_time": 65.97272727272727,
                "pitch": 64,
                "velocity": 64,
                "duration": 1.2159090909090935,
                "tempo": 120.0
            },
            {
                "start_time": 65.97272727272727,
                "end_time": 66.57727272727273,
                "pitch": 67,
                "velocity": 64,
                "duration": 0.6045454545454589,
                "tempo": 120.0
            },
            {
                "start_time": 66.57727272727273,
                "end_time": 67.58181818181818,
                "pitch": 65,
                "velocity": 64,
                "duration": 1.0045454545454504,
                "tempo": 120.0
            },
            {
                "start_time": 67.5840909090909,
                "end_time": 68.18409090909091,
                "pitch": 67,
                "velocity": 64,
                "duration": 0.6000000000000085,
                "tempo": 120.0
            },
            {
                "start_time": 68.18409090909091,
                "end_time": 69.19090909090909,
                "pitch": 65,
                "velocity": 64,
                "duration": 1.0068181818181756,
                "tempo": 120.0
            },
            {
                "start_time": 69.19090909090909,
                "end_time": 69.79318181818182,
                "pitch": 64,
                "velocity": 64,
                "duration": 0.6022727272727337,
                "tempo": 120.0
            },
            {
                "start_time": 69.79545454545455,
                "end_time": 70.8,
                "pitch": 62,
                "velocity": 64,
                "duration": 1.0045454545454504,
                "tempo": 120.0
            },
            {
                "start_time": 70.80227272727272,
                "end_time": 72.20681818181818,
                "pitch": 64,
                "velocity": 64,
                "duration": 1.404545454545456,
                "tempo": 120.0
            },
            {
                "start_time": 72.20681818181818,
                "end_time": 74.01590909090909,
                "pitch": 62,
                "velocity": 64,
                "duration": 1.8090909090909122,
                "tempo": 120.0
            },
            {
                "start_time": 74.01590909090909,
                "end_time": 75.43181818181817,
                "pitch": 64,
                "velocity": 64,
                "duration": 1.4159090909090821,
                "tempo": 120.0
            },
            {
                "start_time": 75.43181818181817,
                "end_time": 76.23636363636363,
                "pitch": 65,
                "velocity": 64,
                "duration": 0.8045454545454618,
                "tempo": 120.0
            },
            {
                "start_time": 76.23636363636363,
                "end_time": 77.23863636363636,
                "pitch": 68,
                "velocity": 64,
                "duration": 1.0022727272727252,
                "tempo": 120.0
            },
            {
                "start_time": 77.64545454545454,
                "end_time": 78.84772727272727,
                "pitch": 64,
                "velocity": 64,
                "duration": 1.202272727272728,
                "tempo": 120.0
            },
            {
                "start_time": 78.85,
                "end_time": 79.45454545454545,
                "pitch": 67,
                "velocity": 64,
                "duration": 0.6045454545454589,
                "tempo": 120.0
            },
            {
                "start_time": 79.45454545454545,
                "end_time": 80.4659090909091,
                "pitch": 65,
                "velocity": 64,
                "duration": 1.0113636363636402,
                "tempo": 120.0
            },
            {
                "start_time": 80.46818181818182,
                "end_time": 81.06363636363636,
                "pitch": 67,
                "velocity": 64,
                "duration": 0.5954545454545439,
                "tempo": 120.0
            },
            {
                "start_time": 81.06590909090909,
                "end_time": 82.075,
                "pitch": 65,
                "velocity": 64,
                "duration": 1.009090909090915,
                "tempo": 120.0
            },
            {
                "start_time": 82.075,
                "end_time": 82.67727272727272,
                "pitch": 64,
                "velocity": 64,
                "duration": 0.6022727272727195,
                "tempo": 120.0
            },
            {
                "start_time": 82.67727272727272,
                "end_time": 83.68181818181817,
                "pitch": 62,
                "velocity": 64,
                "duration": 1.0045454545454504,
                "tempo": 120.0
            },
            {
                "start_time": 83.6840909090909,
                "end_time": 85.0909090909091,
                "pitch": 64,
                "velocity": 64,
                "duration": 1.4068181818181955,
                "tempo": 120.0
            },
            {
                "start_time": 85.0909090909091,
                "end_time": 88.10681818181818,
                "pitch": 62,
                "velocity": 64,
                "duration": 3.0159090909090907,
                "tempo": 120.0
            },
            {
                "start_time": 88.10909090909091,
                "end_time": 88.3090909090909,
                "pitch": 62,
                "velocity": 64,
                "duration": 0.19999999999998863,
                "tempo": 120.0
            },
            {
                "start_time": 88.3090909090909,
                "end_time": 89.92045454545455,
                "pitch": 64,
                "velocity": 64,
                "duration": 1.6113636363636488,
                "tempo": 120.0
            },
            {
                "start_time": 89.92045454545455,
                "end_time": 91.73636363636363,
                "pitch": 62,
                "velocity": 64,
                "duration": 1.8159090909090878,
                "tempo": 120.0
            },
            {
                "start_time": 91.73636363636363,
                "end_time": 93.14318181818182,
                "pitch": 64,
                "velocity": 64,
                "duration": 1.4068181818181813,
                "tempo": 120.0
            },
            {
                "start_time": 93.14318181818182,
                "end_time": 93.94772727272726,
                "pitch": 62,
                "velocity": 64,
                "duration": 0.8045454545454476,
                "tempo": 120.0
            },
            {
                "start_time": 93.94772727272726,
                "end_time": 94.95454545454545,
                "pitch": 62,
                "velocity": 64,
                "duration": 1.0068181818181898,
                "tempo": 120.0
            },
            {
                "start_time": 94.95454545454545,
                "end_time": 96.36363636363636,
                "pitch": 64,
                "velocity": 64,
                "duration": 1.4090909090909065,
                "tempo": 120.0
            },
            {
                "start_time": 96.36363636363636,
                "end_time": 97.16818181818181,
                "pitch": 62,
                "velocity": 64,
                "duration": 0.8045454545454476,
                "tempo": 120.0
            },
            {
                "start_time": 97.16818181818181,
                "end_time": 98.17727272727272,
                "pitch": 62,
                "velocity": 64,
                "duration": 1.009090909090915,
                "tempo": 120.0
            },
            {
                "start_time": 98.17727272727272,
                "end_time": 99.5840909090909,
                "pitch": 62,
                "velocity": 64,
                "duration": 1.4068181818181813,
                "tempo": 120.0
            },
            {
                "start_time": 99.5840909090909,
                "end_time": 101.39318181818182,
                "pitch": 62,
                "velocity": 64,
                "duration": 1.8090909090909122,
                "tempo": 120.0
            },
            {
                "start_time": 101.39999999999999,
                "end_time": 104.44545454545454,
                "pitch": 64,
                "velocity": 64,
                "duration": 3.0454545454545467,
                "tempo": 120.0
            },
            {
                "start_time": 104.44545454545454,
                "end_time": 104.64772727272727,
                "pitch": 64,
                "velocity": 64,
                "duration": 0.20227272727272805,
                "tempo": 120.0
            },
            {
                "start_time": 104.64772727272727,
                "end_time": 106.86363636363636,
                "pitch": 64,
                "velocity": 64,
                "duration": 2.2159090909090935,
                "tempo": 120.0
            },
            {
                "start_time": 106.86363636363636,
                "end_time": 107.87272727272726,
                "pitch": 67,
                "velocity": 64,
                "duration": 1.0090909090909008,
                "tempo": 120.0
            },
            {
                "start_time": 107.87272727272726,
                "end_time": 110.48863636363636,
                "pitch": 62,
                "velocity": 64,
                "duration": 2.615909090909099,
                "tempo": 120.0
            },
            {
                "start_time": 110.48863636363636,
                "end_time": 111.09090909090908,
                "pitch": 62,
                "velocity": 64,
                "duration": 0.6022727272727195,
                "tempo": 120.0
            },
            {
                "start_time": 111.09090909090908,
                "end_time": 112.69999999999999,
                "pitch": 64,
                "velocity": 64,
                "duration": 1.6090909090909093,
                "tempo": 120.0
            },
            {
                "start_time": 112.70227272727273,
                "end_time": 113.1,
                "pitch": 52,
                "velocity": 64,
                "duration": 0.39772727272726627,
                "tempo": 120.0
            },
            {
                "start_time": 113.10227272727272,
                "end_time": 113.4090909090909,
                "pitch": 64,
                "velocity": 64,
                "duration": 0.306818181818187,
                "tempo": 120.0
            },
            {
                "start_time": 113.4090909090909,
                "end_time": 113.51136363636363,
                "pitch": 52,
                "velocity": 64,
                "duration": 0.10227272727271952,
                "tempo": 120.0
            },
            {
                "start_time": 113.51363636363635,
                "end_time": 113.60909090909091,
                "pitch": 64,
                "velocity": 64,
                "duration": 0.09545454545455812,
                "tempo": 120.0
            },
            {
                "start_time": 113.61136363636363,
                "end_time": 113.7090909090909,
                "pitch": 52,
                "velocity": 64,
                "duration": 0.09772727272726911,
                "tempo": 120.0
            },
            {
                "start_time": 113.7090909090909,
                "end_time": 114.10681818181817,
                "pitch": 64,
                "velocity": 64,
                "duration": 0.39772727272726627,
                "tempo": 120.0
            },
            {
                "start_time": 114.10681818181817,
                "end_time": 114.3090909090909,
                "pitch": 64,
                "velocity": 64,
                "duration": 0.20227272727272805,
                "tempo": 120.0
            },
            {
                "start_time": 114.3090909090909,
                "end_time": 117.1340909090909,
                "pitch": 65,
                "velocity": 64,
                "duration": 2.825000000000003,
                "tempo": 120.0
            },
            {
                "start_time": 117.1340909090909,
                "end_time": 117.3340909090909,
                "pitch": 60,
                "velocity": 64,
                "duration": 0.20000000000000284,
                "tempo": 120.0
            },
            {
                "start_time": 117.3340909090909,
                "end_time": 117.5340909090909,
                "pitch": 65,
                "velocity": 64,
                "duration": 0.20000000000000284,
                "tempo": 120.0
            },
            {
                "start_time": 117.53636363636363,
                "end_time": 119.74772727272726,
                "pitch": 64,
                "velocity": 64,
                "duration": 2.211363636363629,
                "tempo": 120.0
            },
            {
                "start_time": 119.74772727272726,
                "end_time": 120.75227272727273,
                "pitch": 67,
                "velocity": 64,
                "duration": 1.0045454545454646,
                "tempo": 120.0
            },
            {
                "start_time": 120.75227272727273,
                "end_time": 123.57727272727273,
                "pitch": 62,
                "velocity": 64,
                "duration": 2.825000000000003,
                "tempo": 120.0
            },
            {
                "start_time": 123.57727272727273,
                "end_time": 123.77727272727272,
                "pitch": 60,
                "velocity": 64,
                "duration": 0.19999999999998863,
                "tempo": 120.0
            },
            {
                "start_time": 123.77954545454544,
                "end_time": 125.38636363636363,
                "pitch": 65,
                "velocity": 64,
                "duration": 1.6068181818181841,
                "tempo": 120.0
            },
            {
                "start_time": 125.38636363636363,
                "end_time": 126.19090909090909,
                "pitch": 65,
                "velocity": 64,
                "duration": 0.8045454545454618,
                "tempo": 120.0
            },
            {
                "start_time": 126.19090909090909,
                "end_time": 127.19772727272726,
                "pitch": 64,
                "velocity": 64,
                "duration": 1.0068181818181756,
                "tempo": 120.0
            },
            {
                "start_time": 127.19772727272726,
                "end_time": 130.2159090909091,
                "pitch": 64,
                "velocity": 64,
                "duration": 3.01818181818183,
                "tempo": 120.0
            },
            {
                "start_time": 130.2159090909091,
                "end_time": 130.42272727272726,
                "pitch": 64,
                "velocity": 64,
                "duration": 0.20681818181816425,
                "tempo": 120.0
            },
            {
                "start_time": 130.42272727272726,
                "end_time": 132.6340909090909,
                "pitch": 64,
                "velocity": 64,
                "duration": 2.211363636363643,
                "tempo": 120.0
            },
            {
                "start_time": 132.6340909090909,
                "end_time": 133.6431818181818,
                "pitch": 67,
                "velocity": 64,
                "duration": 1.0090909090909008,
                "tempo": 120.0
            },
            {
                "start_time": 133.6431818181818,
                "end_time": 136.2590909090909,
                "pitch": 62,
                "velocity": 64,
                "duration": 2.615909090909099,
                "tempo": 120.0
            },
            {
                "start_time": 136.2590909090909,
                "end_time": 136.86363636363635,
                "pitch": 62,
                "velocity": 64,
                "duration": 0.6045454545454447,
                "tempo": 120.0
            },
            {
                "start_time": 136.86363636363635,
                "end_time": 138.48181818181817,
                "pitch": 64,
                "velocity": 64,
                "duration": 1.6181818181818244,
                "tempo": 120.0
            },
            {
                "start_time": 138.48181818181817,
                "end_time": 138.8840909090909,
                "pitch": 52,
                "velocity": 64,
                "duration": 0.4022727272727309,
                "tempo": 120.0
            },
            {
                "start_time": 138.8840909090909,
                "end_time": 139.1840909090909,
                "pitch": 64,
                "velocity": 64,
                "duration": 0.30000000000001137,
                "tempo": 120.0
            },
            {
                "start_time": 139.18636363636364,
                "end_time": 139.2840909090909,
                "pitch": 52,
                "velocity": 64,
                "duration": 0.09772727272726911,
                "tempo": 120.0
            },
            {
                "start_time": 139.28636363636363,
                "end_time": 139.38636363636363,
                "pitch": 64,
                "velocity": 64,
                "duration": 0.09999999999999432,
                "tempo": 120.0
            },
            {
                "start_time": 139.38636363636363,
                "end_time": 139.48636363636362,
                "pitch": 52,
                "velocity": 64,
                "duration": 0.09999999999999432,
                "tempo": 120.0
            },
            {
                "start_time": 139.48636363636362,
                "end_time": 139.88863636363635,
                "pitch": 64,
                "velocity": 64,
                "duration": 0.4022727272727309,
                "tempo": 120.0
            },
            {
                "start_time": 139.89090909090908,
                "end_time": 140.0909090909091,
                "pitch": 64,
                "velocity": 64,
                "duration": 0.20000000000001705,
                "tempo": 120.0
            },
            {
                "start_time": 140.09318181818182,
                "end_time": 142.9090909090909,
                "pitch": 65,
                "velocity": 64,
                "duration": 2.815909090909088,
                "tempo": 120.0
            },
            {
                "start_time": 142.91136363636363,
                "end_time": 143.1090909090909,
                "pitch": 60,
                "velocity": 64,
                "duration": 0.19772727272726343,
                "tempo": 120.0
            },
            {
                "start_time": 143.11136363636362,
                "end_time": 143.31136363636364,
                "pitch": 65,
                "velocity": 64,
                "duration": 0.20000000000001705,
                "tempo": 120.0
            },
            {
                "start_time": 143.31363636363636,
                "end_time": 145.52954545454546,
                "pitch": 64,
                "velocity": 64,
                "duration": 2.2159090909090935,
                "tempo": 120.0
            },
            {
                "start_time": 145.53181818181818,
                "end_time": 146.54090909090908,
                "pitch": 67,
                "velocity": 64,
                "duration": 1.0090909090909008,
                "tempo": 120.0
            },
            {
                "start_time": 146.54090909090908,
                "end_time": 147.95,
                "pitch": 62,
                "velocity": 64,
                "duration": 1.4090909090909065,
                "tempo": 120.0
            },
            {
                "start_time": 147.95,
                "end_time": 149.5590909090909,
                "pitch": 60,
                "velocity": 64,
                "duration": 1.6090909090909236,
                "tempo": 120.0
            },
            {
                "start_time": 149.56136363636364,
                "end_time": 150.36363636363635,
                "pitch": 59,
                "velocity": 64,
                "duration": 0.8022727272727082,
                "tempo": 120.0
            },
            {
                "start_time": 150.36590909090907,
                "end_time": 151.17272727272726,
                "pitch": 59,
                "velocity": 64,
                "duration": 0.806818181818187,
                "tempo": 120.0
            },
            {
                "start_time": 151.17272727272726,
                "end_time": 151.97954545454544,
                "pitch": 59,
                "velocity": 64,
                "duration": 0.806818181818187,
                "tempo": 120.0
            },
            {
                "start_time": 151.97954545454544,
                "end_time": 152.98636363636362,
                "pitch": 59,
                "velocity": 64,
                "duration": 1.0068181818181756,
                "tempo": 120.0
            },
            {
                "start_time": 153.38181818181818,
                "end_time": 154.59545454545454,
                "pitch": 64,
                "velocity": 64,
                "duration": 1.2136363636363683,
                "tempo": 120.0
            },
            {
                "start_time": 154.59772727272727,
                "end_time": 155.2,
                "pitch": 67,
                "velocity": 64,
                "duration": 0.6022727272727195,
                "tempo": 120.0
            },
            {
                "start_time": 155.2022727272727,
                "end_time": 156.2090909090909,
                "pitch": 65,
                "velocity": 64,
                "duration": 1.0068181818181756,
                "tempo": 120.0
            },
            {
                "start_time": 156.2090909090909,
                "end_time": 156.81136363636364,
                "pitch": 67,
                "velocity": 64,
                "duration": 0.6022727272727479,
                "tempo": 120.0
            },
            {
                "start_time": 156.81136363636364,
                "end_time": 157.8181818181818,
                "pitch": 65,
                "velocity": 64,
                "duration": 1.0068181818181756,
                "tempo": 120.0
            },
            {
                "start_time": 157.82045454545454,
                "end_time": 158.42272727272726,
                "pitch": 64,
                "velocity": 64,
                "duration": 0.6022727272727195,
                "tempo": 120.0
            },
            {
                "start_time": 158.42272727272726,
                "end_time": 159.42954545454543,
                "pitch": 62,
                "velocity": 64,
                "duration": 1.0068181818181756,
                "tempo": 120.0
            },
            {
                "start_time": 159.42954545454543,
                "end_time": 160.8340909090909,
                "pitch": 64,
                "velocity": 64,
                "duration": 1.404545454545456,
                "tempo": 120.0
            },
            {
                "start_time": 160.83636363636361,
                "end_time": 162.65454545454546,
                "pitch": 62,
                "velocity": 64,
                "duration": 1.8181818181818414,
                "tempo": 120.0
            },
            {
                "start_time": 162.65681818181818,
                "end_time": 164.06363636363636,
                "pitch": 64,
                "velocity": 64,
                "duration": 1.4068181818181813,
                "tempo": 120.0
            },
            {
                "start_time": 164.06363636363636,
                "end_time": 164.87045454545455,
                "pitch": 65,
                "velocity": 64,
                "duration": 0.806818181818187,
                "tempo": 120.0
            },
            {
                "start_time": 164.87045454545455,
                "end_time": 165.875,
                "pitch": 68,
                "velocity": 64,
                "duration": 1.0045454545454504,
                "tempo": 120.0
            },
            {
                "start_time": 166.27954545454546,
                "end_time": 167.48636363636362,
                "pitch": 64,
                "velocity": 64,
                "duration": 1.2068181818181642,
                "tempo": 120.0
            },
            {
                "start_time": 167.48636363636362,
                "end_time": 168.09318181818182,
                "pitch": 67,
                "velocity": 64,
                "duration": 0.6068181818181984,
                "tempo": 120.0
            },
            {
                "start_time": 168.09318181818182,
                "end_time": 169.10454545454544,
                "pitch": 65,
                "velocity": 64,
                "duration": 1.011363636363626,
                "tempo": 120.0
            },
            {
                "start_time": 169.10454545454544,
                "end_time": 169.7022727272727,
                "pitch": 67,
                "velocity": 64,
                "duration": 0.5977272727272691,
                "tempo": 120.0
            },
            {
                "start_time": 169.7022727272727,
                "end_time": 170.71136363636361,
                "pitch": 65,
                "velocity": 64,
                "duration": 1.0090909090909008,
                "tempo": 120.0
            },
            {
                "start_time": 170.71136363636361,
                "end_time": 171.3159090909091,
                "pitch": 64,
                "velocity": 64,
                "duration": 0.6045454545454731,
                "tempo": 120.0
            },
            {
                "start_time": 171.3159090909091,
                "end_time": 172.32272727272726,
                "pitch": 62,
                "velocity": 64,
                "duration": 1.0068181818181756,
                "tempo": 120.0
            },
            {
                "start_time": 172.32272727272726,
                "end_time": 173.73181818181817,
                "pitch": 64,
                "velocity": 64,
                "duration": 1.4090909090909065,
                "tempo": 120.0
            },
            {
                "start_time": 173.73181818181817,
                "end_time": 176.75227272727273,
                "pitch": 62,
                "velocity": 64,
                "duration": 3.0204545454545553,
                "tempo": 120.0
            },
            {
                "start_time": 176.75227272727273,
                "end_time": 176.95454545454544,
                "pitch": 62,
                "velocity": 64,
                "duration": 0.20227272727271384,
                "tempo": 120.0
            },
            {
                "start_time": 176.95454545454544,
                "end_time": 178.5681818181818,
                "pitch": 64,
                "velocity": 64,
                "duration": 1.613636363636374,
                "tempo": 120.0
            }
        ],
        "Clarinet": [
            {
                "start_time": 0.03636363636363636,
                "end_time": 0.04772727272727272,
                "pitch": 25,
                "velocity": 4,
                "duration": 0.01136363636363636,
                "tempo": 120.0
            },
            {
                "start_time": 0.049999999999999996,
                "end_time": 0.43636363636363634,
                "pitch": 72,
                "velocity": 80,
                "duration": 0.38636363636363635,
                "tempo": 120.0
            },
            {
                "start_time": 0.4386363636363636,
                "end_time": 0.6363636363636364,
                "pitch": 71,
                "velocity": 80,
                "duration": 0.19772727272727275,
                "tempo": 120.0
            },
            {
                "start_time": 0.6386363636363636,
                "end_time": 1.0363636363636364,
                "pitch": 70,
                "velocity": 80,
                "duration": 0.3977272727272728,
                "tempo": 120.0
            },
            {
                "start_time": 1.0386363636363636,
                "end_time": 1.3545454545454545,
                "pitch": 68,
                "velocity": 80,
                "duration": 0.3159090909090909,
                "tempo": 120.0
            },
            {
                "start_time": 1.3545454545454545,
                "end_time": 1.4204545454545454,
                "pitch": 67,
                "velocity": 80,
                "duration": 0.06590909090909092,
                "tempo": 120.0
            },
            {
                "start_time": 1.4204545454545454,
                "end_time": 1.4363636363636363,
                "pitch": 67,
                "velocity": 80,
                "duration": 0.015909090909090873,
                "tempo": 120.0
            },
            {
                "start_time": 1.4386363636363635,
                "end_time": 1.4704545454545455,
                "pitch": 68,
                "velocity": 80,
                "duration": 0.03181818181818197,
                "tempo": 120.0
            },
            {
                "start_time": 1.4704545454545455,
                "end_time": 2.0386363636363636,
                "pitch": 71,
                "velocity": 80,
                "duration": 0.5681818181818181,
                "tempo": 120.0
            },
            {
                "start_time": 2.040909090909091,
                "end_time": 2.243181818181818,
                "pitch": 72,
                "velocity": 80,
                "duration": 0.20227272727272716,
                "tempo": 120.0
            },
            {
                "start_time": 2.245454545454545,
                "end_time": 2.6454545454545455,
                "pitch": 73,
                "velocity": 80,
                "duration": 0.40000000000000036,
                "tempo": 120.0
            },
            {
                "start_time": 2.6477272727272725,
                "end_time": 2.840909090909091,
                "pitch": 72,
                "velocity": 80,
                "duration": 0.19318181818181834,
                "tempo": 120.0
            },
            {
                "start_time": 2.8431818181818183,
                "end_time": 3.0477272727272724,
                "pitch": 73,
                "velocity": 80,
                "duration": 0.20454545454545414,
                "tempo": 120.0
            },
            {
                "start_time": 3.05,
                "end_time": 3.252272727272727,
                "pitch": 73,
                "velocity": 80,
                "duration": 0.20227272727272716,
                "tempo": 120.0
            },
            {
                "start_time": 3.2545454545454544,
                "end_time": 3.286363636363636,
                "pitch": 72,
                "velocity": 80,
                "duration": 0.031818181818181746,
                "tempo": 120.0
            },
            {
                "start_time": 3.286363636363636,
                "end_time": 3.6568181818181817,
                "pitch": 75,
                "velocity": 80,
                "duration": 0.3704545454545456,
                "tempo": 120.0
            },
            {
                "start_time": 3.6590909090909087,
                "end_time": 3.690909090909091,
                "pitch": 75,
                "velocity": 80,
                "duration": 0.03181818181818219,
                "tempo": 120.0
            },
            {
                "start_time": 3.690909090909091,
                "end_time": 3.8568181818181815,
                "pitch": 72,
                "velocity": 80,
                "duration": 0.16590909090909056,
                "tempo": 120.0
            },
            {
                "start_time": 3.859090909090909,
                "end_time": 4.24090909090909,
                "pitch": 71,
                "velocity": 80,
                "duration": 0.3818181818181814,
                "tempo": 120.0
            },
            {
                "start_time": 4.24090909090909,
                "end_time": 4.256818181818182,
                "pitch": 69,
                "velocity": 80,
                "duration": 0.01590909090909154,
                "tempo": 120.0
            },
            {
                "start_time": 4.259090909090909,
                "end_time": 4.456818181818182,
                "pitch": 69,
                "velocity": 80,
                "duration": 0.1977272727272732,
                "tempo": 120.0
            },
            {
                "start_time": 4.459090909090909,
                "end_time": 4.659090909090909,
                "pitch": 70,
                "velocity": 80,
                "duration": 0.20000000000000018,
                "tempo": 120.0
            },
            {
                "start_time": 4.661363636363636,
                "end_time": 4.693181818181818,
                "pitch": 73,
                "velocity": 80,
                "duration": 0.03181818181818219,
                "tempo": 120.0
            },
            {
                "start_time": 4.693181818181818,
                "end_time": 4.861363636363636,
                "pitch": 76,
                "velocity": 80,
                "duration": 0.168181818181818,
                "tempo": 120.0
            },
            {
                "start_time": 4.863636363636363,
                "end_time": 4.893181818181818,
                "pitch": 77,
                "velocity": 80,
                "duration": 0.02954545454545432,
                "tempo": 120.0
            },
            {
                "start_time": 1.3545454545454545,
                "end_time": 5.261363636363636,
                "pitch": 79,
                "velocity": 80,
                "duration": 3.9068181818181813,
                "tempo": 120.0
            },
            {
                "start_time": 4.893181818181818,
                "end_time": 5.261363636363636,
                "pitch": 79,
                "velocity": 80,
                "duration": 0.36818181818181817,
                "tempo": 120.0
            },
            {
                "start_time": 5.263636363636364,
                "end_time": 5.295454545454545,
                "pitch": 78,
                "velocity": 80,
                "duration": 0.0318181818181813,
                "tempo": 120.0
            },
            {
                "start_time": 5.295454545454545,
                "end_time": 5.461363636363636,
                "pitch": 75,
                "velocity": 80,
                "duration": 0.165909090909091,
                "tempo": 120.0
            },
            {
                "start_time": 5.465909090909091,
                "end_time": 5.863636363636363,
                "pitch": 73,
                "velocity": 80,
                "duration": 0.3977272727272725,
                "tempo": 120.0
            },
            {
                "start_time": 5.86590909090909,
                "end_time": 6.0659090909090905,
                "pitch": 71,
                "velocity": 80,
                "duration": 0.20000000000000018,
                "tempo": 120.0
            },
            {
                "start_time": 6.0659090909090905,
                "end_time": 6.265909090909091,
                "pitch": 72,
                "velocity": 80,
                "duration": 0.20000000000000018,
                "tempo": 120.0
            },
            {
                "start_time": 6.268181818181818,
                "end_time": 6.468181818181818,
                "pitch": 73,
                "velocity": 80,
                "duration": 0.20000000000000018,
                "tempo": 120.0
            },
            {
                "start_time": 6.470454545454545,
                "end_time": 6.670454545454545,
                "pitch": 73,
                "velocity": 80,
                "duration": 0.20000000000000018,
                "tempo": 120.0
            },
            {
                "start_time": 6.672727272727273,
                "end_time": 7.070454545454545,
                "pitch": 71,
                "velocity": 80,
                "duration": 0.3977272727272725,
                "tempo": 120.0
            },
            {
                "start_time": 7.072727272727272,
                "end_time": 7.472727272727273,
                "pitch": 70,
                "velocity": 80,
                "duration": 0.40000000000000036,
                "tempo": 120.0
            },
            {
                "start_time": 7.475,
                "end_time": 7.675,
                "pitch": 69,
                "velocity": 80,
                "duration": 0.20000000000000018,
                "tempo": 120.0
            },
            {
                "start_time": 7.677272727272727,
                "end_time": 7.875,
                "pitch": 70,
                "velocity": 80,
                "duration": 0.1977272727272732,
                "tempo": 120.0
            },
            {
                "start_time": 7.877272727272727,
                "end_time": 7.909090909090908,
                "pitch": 73,
                "velocity": 80,
                "duration": 0.0318181818181813,
                "tempo": 120.0
            },
            {
                "start_time": 7.909090909090908,
                "end_time": 8.075,
                "pitch": 76,
                "velocity": 80,
                "duration": 0.165909090909091,
                "tempo": 120.0
            },
            {
                "start_time": 8.077272727272726,
                "end_time": 8.475,
                "pitch": 75,
                "velocity": 80,
                "duration": 0.3977272727272734,
                "tempo": 120.0
            },
            {
                "start_time": 8.477272727272727,
                "end_time": 8.677272727272728,
                "pitch": 73,
                "velocity": 80,
                "duration": 0.20000000000000107,
                "tempo": 120.0
            },
            {
                "start_time": 8.679545454545455,
                "end_time": 8.711363636363636,
                "pitch": 70,
                "velocity": 80,
                "duration": 0.0318181818181813,
                "tempo": 120.0
            },
            {
                "start_time": 8.711363636363636,
                "end_time": 8.997727272727273,
                "pitch": 68,
                "velocity": 80,
                "duration": 0.28636363636363704,
                "tempo": 120.0
            },
            {
                "start_time": 1.4204545454545454,
                "end_time": 9.031818181818181,
                "pitch": 55,
                "velocity": 80,
                "duration": 7.611363636363636,
                "tempo": 120.0
            },
            {
                "start_time": 4.893181818181818,
                "end_time": 9.031818181818181,
                "pitch": 67,
                "velocity": 80,
                "duration": 4.138636363636364,
                "tempo": 120.0
            },
            {
                "start_time": 8.997727272727273,
                "end_time": 9.031818181818181,
                "pitch": 67,
                "velocity": 80,
                "duration": 0.034090909090908283,
                "tempo": 120.0
            },
            {
                "start_time": 9.031818181818181,
                "end_time": 9.079545454545453,
                "pitch": 67,
                "velocity": 80,
                "duration": 0.04772727272727195,
                "tempo": 120.0
            },
            {
                "start_time": 9.081818181818182,
                "end_time": 9.281818181818181,
                "pitch": 66,
                "velocity": 80,
                "duration": 0.1999999999999993,
                "tempo": 120.0
            },
            {
                "start_time": 9.284090909090908,
                "end_time": 9.488636363636363,
                "pitch": 65,
                "velocity": 80,
                "duration": 0.20454545454545503,
                "tempo": 120.0
            },
            {
                "start_time": 9.031818181818181,
                "end_time": 9.504545454545454,
                "pitch": 55,
                "velocity": 80,
                "duration": 0.47272727272727266,
                "tempo": 120.0
            },
            {
                "start_time": 9.488636363636363,
                "end_time": 9.504545454545454,
                "pitch": 66,
                "velocity": 80,
                "duration": 0.01590909090909065,
                "tempo": 120.0
            },
            {
                "start_time": 9.504545454545454,
                "end_time": 9.693181818181818,
                "pitch": 67,
                "velocity": 80,
                "duration": 0.18863636363636438,
                "tempo": 120.0
            },
            {
                "start_time": 9.695454545454545,
                "end_time": 11.097727272727273,
                "pitch": 68,
                "velocity": 80,
                "duration": 1.4022727272727273,
                "tempo": 120.0
            },
            {
                "start_time": 11.1,
                "end_time": 12.913636363636362,
                "pitch": 70,
                "velocity": 80,
                "duration": 1.8136363636363626,
                "tempo": 120.0
            },
            {
                "start_time": 38.65,
                "end_time": 38.663636363636364,
                "pitch": 72,
                "velocity": 101,
                "duration": 0.013636363636365445,
                "tempo": 120.0
            },
            {
                "start_time": 38.66590909090909,
                "end_time": 41.86818181818182,
                "pitch": 72,
                "velocity": 40,
                "duration": 3.202272727272728,
                "tempo": 120.0
            },
            {
                "start_time": 41.87045454545454,
                "end_time": 41.90454545454545,
                "pitch": 74,
                "velocity": 40,
                "duration": 0.03409090909090651,
                "tempo": 120.0
            },
            {
                "start_time": 41.90454545454545,
                "end_time": 42.470454545454544,
                "pitch": 76,
                "velocity": 40,
                "duration": 0.5659090909090949,
                "tempo": 120.0
            },
            {
                "start_time": 42.47272727272727,
                "end_time": 43.06590909090909,
                "pitch": 74,
                "velocity": 40,
                "duration": 0.5931818181818187,
                "tempo": 120.0
            },
            {
                "start_time": 43.06818181818181,
                "end_time": 45.08181818181818,
                "pitch": 72,
                "velocity": 40,
                "duration": 2.0136363636363654,
                "tempo": 120.0
            },
            {
                "start_time": 45.084090909090904,
                "end_time": 48.288636363636364,
                "pitch": 74,
                "velocity": 40,
                "duration": 3.2045454545454604,
                "tempo": 120.0
            },
            {
                "start_time": 48.29090909090909,
                "end_time": 48.32272727272727,
                "pitch": 76,
                "velocity": 40,
                "duration": 0.0318181818181813,
                "tempo": 120.0
            },
            {
                "start_time": 8.997727272727273,
                "end_time": 48.74318181818182,
                "pitch": 79,
                "velocity": 80,
                "duration": 39.74545454545454,
                "tempo": 120.0
            },
            {
                "start_time": 48.32272727272727,
                "end_time": 48.74318181818182,
                "pitch": 79,
                "velocity": 40,
                "duration": 0.42045454545454675,
                "tempo": 120.0
            },
            {
                "start_time": 48.32272727272727,
                "end_time": 48.809090909090905,
                "pitch": 67,
                "velocity": 40,
                "duration": 0.48636363636363455,
                "tempo": 120.0
            },
            {
                "start_time": 48.74318181818182,
                "end_time": 48.809090909090905,
                "pitch": 79,
                "velocity": 40,
                "duration": 0.06590909090908781,
                "tempo": 120.0
            },
            {
                "start_time": 48.809090909090905,
                "end_time": 48.94318181818181,
                "pitch": 79,
                "velocity": 40,
                "duration": 0.13409090909090793,
                "tempo": 120.0
            },
            {
                "start_time": 48.74318181818182,
                "end_time": 48.94318181818181,
                "pitch": 91,
                "velocity": 40,
                "duration": 0.19999999999999574,
                "tempo": 120.0
            },
            {
                "start_time": 48.809090909090905,
                "end_time": 49.00909090909091,
                "pitch": 67,
                "velocity": 40,
                "duration": 0.20000000000000284,
                "tempo": 120.0
            },
            {
                "start_time": 48.94318181818181,
                "end_time": 49.00909090909091,
                "pitch": 79,
                "velocity": 40,
                "duration": 0.06590909090909491,
                "tempo": 120.0
            },
            {
                "start_time": 49.00909090909091,
                "end_time": 49.143181818181816,
                "pitch": 79,
                "velocity": 40,
                "duration": 0.13409090909090793,
                "tempo": 120.0
            },
            {
                "start_time": 48.94318181818181,
                "end_time": 49.143181818181816,
                "pitch": 91,
                "velocity": 40,
                "duration": 0.20000000000000284,
                "tempo": 120.0
            },
            {
                "start_time": 49.00909090909091,
                "end_time": 49.209090909090904,
                "pitch": 67,
                "velocity": 40,
                "duration": 0.19999999999999574,
                "tempo": 120.0
            },
            {
                "start_time": 49.143181818181816,
                "end_time": 49.209090909090904,
                "pitch": 79,
                "velocity": 40,
                "duration": 0.06590909090908781,
                "tempo": 120.0
            },
            {
                "start_time": 49.209090909090904,
                "end_time": 49.34318181818182,
                "pitch": 79,
                "velocity": 40,
                "duration": 0.13409090909091503,
                "tempo": 120.0
            },
            {
                "start_time": 49.143181818181816,
                "end_time": 49.34318181818182,
                "pitch": 91,
                "velocity": 40,
                "duration": 0.20000000000000284,
                "tempo": 120.0
            },
            {
                "start_time": 49.209090909090904,
                "end_time": 49.40909090909091,
                "pitch": 67,
                "velocity": 40,
                "duration": 0.20000000000000284,
                "tempo": 120.0
            },
            {
                "start_time": 49.34318181818182,
                "end_time": 49.40909090909091,
                "pitch": 79,
                "velocity": 40,
                "duration": 0.06590909090908781,
                "tempo": 120.0
            },
            {
                "start_time": 49.40909090909091,
                "end_time": 49.54545454545454,
                "pitch": 79,
                "velocity": 40,
                "duration": 0.13636363636363313,
                "tempo": 120.0
            },
            {
                "start_time": 49.34318181818182,
                "end_time": 49.54545454545454,
                "pitch": 91,
                "velocity": 40,
                "duration": 0.20227272727272094,
                "tempo": 120.0
            },
            {
                "start_time": 49.40909090909091,
                "end_time": 49.61363636363636,
                "pitch": 67,
                "velocity": 40,
                "duration": 0.20454545454545325,
                "tempo": 120.0
            },
            {
                "start_time": 49.54545454545454,
                "end_time": 49.61363636363636,
                "pitch": 79,
                "velocity": 40,
                "duration": 0.06818181818182012,
                "tempo": 120.0
            },
            {
                "start_time": 49.61363636363636,
                "end_time": 49.75,
                "pitch": 79,
                "velocity": 40,
                "duration": 0.13636363636364024,
                "tempo": 120.0
            },
            {
                "start_time": 49.54545454545454,
                "end_time": 49.75,
                "pitch": 91,
                "velocity": 40,
                "duration": 0.20454545454546036,
                "tempo": 120.0
            },
            {
                "start_time": 49.75,
                "end_time": 49.81818181818181,
                "pitch": 79,
                "velocity": 40,
                "duration": 0.06818181818181301,
                "tempo": 120.0
            },
            {
                "start_time": 49.61363636363636,
                "end_time": 49.820454545454545,
                "pitch": 67,
                "velocity": 40,
                "duration": 0.20681818181818556,
                "tempo": 120.0
            },
            {
                "start_time": 49.81818181818181,
                "end_time": 49.820454545454545,
                "pitch": 67,
                "velocity": 40,
                "duration": 0.002272727272732311,
                "tempo": 120.0
            },
            {
                "start_time": 49.820454545454545,
                "end_time": 49.95454545454545,
                "pitch": 79,
                "velocity": 40,
                "duration": 0.13409090909090793,
                "tempo": 120.0
            },
            {
                "start_time": 49.75,
                "end_time": 49.95454545454545,
                "pitch": 91,
                "velocity": 40,
                "duration": 0.20454545454545325,
                "tempo": 120.0
            },
            {
                "start_time": 49.95454545454545,
                "end_time": 50.02272727272727,
                "pitch": 79,
                "velocity": 40,
                "duration": 0.06818181818182012,
                "tempo": 120.0
            },
            {
                "start_time": 50.02272727272727,
                "end_time": 50.15681818181818,
                "pitch": 79,
                "velocity": 40,
                "duration": 0.13409090909090793,
                "tempo": 120.0
            },
            {
                "start_time": 49.95454545454545,
                "end_time": 50.15681818181818,
                "pitch": 91,
                "velocity": 40,
                "duration": 0.20227272727272805,
                "tempo": 120.0
            },
            {
                "start_time": 50.02272727272727,
                "end_time": 50.224999999999994,
                "pitch": 67,
                "velocity": 40,
                "duration": 0.20227272727272094,
                "tempo": 120.0
            },
            {
                "start_time": 50.15681818181818,
                "end_time": 50.224999999999994,
                "pitch": 79,
                "velocity": 40,
                "duration": 0.06818181818181301,
                "tempo": 120.0
            },
            {
                "start_time": 50.224999999999994,
                "end_time": 50.35909090909091,
                "pitch": 79,
                "velocity": 40,
                "duration": 0.13409090909091503,
                "tempo": 120.0
            },
            {
                "start_time": 50.15681818181818,
                "end_time": 50.35909090909091,
                "pitch": 91,
                "velocity": 40,
                "duration": 0.20227272727272805,
                "tempo": 120.0
            },
            {
                "start_time": 50.224999999999994,
                "end_time": 50.425,
                "pitch": 67,
                "velocity": 40,
                "duration": 0.20000000000000284,
                "tempo": 120.0
            },
            {
                "start_time": 50.35909090909091,
                "end_time": 50.425,
                "pitch": 79,
                "velocity": 40,
                "duration": 0.06590909090908781,
                "tempo": 120.0
            },
            {
                "start_time": 50.425,
                "end_time": 50.559090909090905,
                "pitch": 79,
                "velocity": 40,
                "duration": 0.13409090909090793,
                "tempo": 120.0
            },
            {
                "start_time": 50.35909090909091,
                "end_time": 50.559090909090905,
                "pitch": 91,
                "velocity": 40,
                "duration": 0.19999999999999574,
                "tempo": 120.0
            },
            {
                "start_time": 50.425,
                "end_time": 50.625,
                "pitch": 67,
                "velocity": 40,
                "duration": 0.20000000000000284,
                "tempo": 120.0
            },
            {
                "start_time": 50.559090909090905,
                "end_time": 50.625,
                "pitch": 79,
                "velocity": 40,
                "duration": 0.06590909090909491,
                "tempo": 120.0
            },
            {
                "start_time": 50.625,
                "end_time": 50.75909090909091,
                "pitch": 79,
                "velocity": 40,
                "duration": 0.13409090909090793,
                "tempo": 120.0
            },
            {
                "start_time": 50.559090909090905,
                "end_time": 50.75909090909091,
                "pitch": 91,
                "velocity": 40,
                "duration": 0.20000000000000284,
                "tempo": 120.0
            },
            {
                "start_time": 50.625,
                "end_time": 50.824999999999996,
                "pitch": 67,
                "velocity": 40,
                "duration": 0.19999999999999574,
                "tempo": 120.0
            },
            {
                "start_time": 50.75909090909091,
                "end_time": 50.824999999999996,
                "pitch": 79,
                "velocity": 40,
                "duration": 0.06590909090908781,
                "tempo": 120.0
            },
            {
                "start_time": 50.824999999999996,
                "end_time": 50.959090909090904,
                "pitch": 79,
                "velocity": 40,
                "duration": 0.13409090909090793,
                "tempo": 120.0
            },
            {
                "start_time": 50.75909090909091,
                "end_time": 50.959090909090904,
                "pitch": 91,
                "velocity": 40,
                "duration": 0.19999999999999574,
                "tempo": 120.0
            },
            {
                "start_time": 50.824999999999996,
                "end_time": 51.025,
                "pitch": 67,
                "velocity": 40,
                "duration": 0.20000000000000284,
                "tempo": 120.0
            },
            {
                "start_time": 50.959090909090904,
                "end_time": 51.025,
                "pitch": 79,
                "velocity": 40,
                "duration": 0.06590909090909491,
                "tempo": 120.0
            },
            {
                "start_time": 51.025,
                "end_time": 51.15909090909091,
                "pitch": 79,
                "velocity": 40,
                "duration": 0.13409090909090793,
                "tempo": 120.0
            },
            {
                "start_time": 50.959090909090904,
                "end_time": 51.15909090909091,
                "pitch": 91,
                "velocity": 40,
                "duration": 0.20000000000000284,
                "tempo": 120.0
            },
            {
                "start_time": 51.15909090909091,
                "end_time": 51.224999999999994,
                "pitch": 79,
                "velocity": 40,
                "duration": 0.06590909090908781,
                "tempo": 120.0
            },
            {
                "start_time": 51.025,
                "end_time": 51.22727272727273,
                "pitch": 67,
                "velocity": 40,
                "duration": 0.20227272727272805,
                "tempo": 120.0
            },
            {
                "start_time": 51.224999999999994,
                "end_time": 51.22727272727273,
                "pitch": 67,
                "velocity": 40,
                "duration": 0.002272727272732311,
                "tempo": 120.0
            },
            {
                "start_time": 51.22727272727273,
                "end_time": 51.35909090909091,
                "pitch": 79,
                "velocity": 40,
                "duration": 0.13181818181818272,
                "tempo": 120.0
            },
            {
                "start_time": 51.15909090909091,
                "end_time": 51.35909090909091,
                "pitch": 91,
                "velocity": 40,
                "duration": 0.20000000000000284,
                "tempo": 120.0
            },
            {
                "start_time": 51.35909090909091,
                "end_time": 51.42727272727272,
                "pitch": 79,
                "velocity": 40,
                "duration": 0.06818181818181301,
                "tempo": 120.0
            },
            {
                "start_time": 51.42727272727272,
                "end_time": 51.50909090909091,
                "pitch": 79,
                "velocity": 40,
                "duration": 0.08181818181818556,
                "tempo": 120.0
            },
            {
                "start_time": 51.51136363636363,
                "end_time": 53.11363636363636,
                "pitch": 77,
                "velocity": 40,
                "duration": 1.6022727272727266,
                "tempo": 120.0
            },
            {
                "start_time": 54.720454545454544,
                "end_time": 56.32272727272727,
                "pitch": 76,
                "velocity": 40,
                "duration": 1.6022727272727266,
                "tempo": 120.0
            },
            {
                "start_time": 57.93863636363636,
                "end_time": 57.970454545454544,
                "pitch": 74,
                "velocity": 40,
                "duration": 0.0318181818181813,
                "tempo": 120.0
            },
            {
                "start_time": 57.970454545454544,
                "end_time": 59.33863636363636,
                "pitch": 77,
                "velocity": 40,
                "duration": 1.3681818181818173,
                "tempo": 120.0
            },
            {
                "start_time": 59.340909090909086,
                "end_time": 59.73863636363636,
                "pitch": 75,
                "velocity": 40,
                "duration": 0.3977272727272734,
                "tempo": 120.0
            },
            {
                "start_time": 59.740909090909085,
                "end_time": 60.14090909090909,
                "pitch": 76,
                "velocity": 40,
                "duration": 0.4000000000000057,
                "tempo": 120.0
            },
            {
                "start_time": 60.143181818181816,
                "end_time": 60.175,
                "pitch": 79,
                "velocity": 40,
                "duration": 0.0318181818181813,
                "tempo": 120.0
            },
            {
                "start_time": 60.175,
                "end_time": 60.54090909090909,
                "pitch": 81,
                "velocity": 40,
                "duration": 0.36590909090909207,
                "tempo": 120.0
            },
            {
                "start_time": 60.543181818181814,
                "end_time": 60.94318181818181,
                "pitch": 79,
                "velocity": 40,
                "duration": 0.3999999999999986,
                "tempo": 120.0
            },
            {
                "start_time": 60.945454545454545,
                "end_time": 60.97727272727273,
                "pitch": 81,
                "velocity": 40,
                "duration": 0.0318181818181813,
                "tempo": 120.0
            },
            {
                "start_time": 60.97727272727273,
                "end_time": 61.00909090909091,
                "pitch": 85,
                "velocity": 40,
                "duration": 0.0318181818181813,
                "tempo": 120.0
            },
            {
                "start_time": 61.00909090909091,
                "end_time": 62.54772727272727,
                "pitch": 88,
                "velocity": 40,
                "duration": 1.538636363636364,
                "tempo": 120.0
            },
            {
                "start_time": 62.55,
                "end_time": 62.58181818181818,
                "pitch": 86,
                "velocity": 40,
                "duration": 0.0318181818181813,
                "tempo": 120.0
            },
            {
                "start_time": 62.58181818181818,
                "end_time": 62.74772727272727,
                "pitch": 83,
                "velocity": 40,
                "duration": 0.16590909090908923,
                "tempo": 120.0
            },
            {
                "start_time": 62.75,
                "end_time": 62.84772727272727,
                "pitch": 40,
                "velocity": 64,
                "duration": 0.09772727272726911,
                "tempo": 120.0
            },
            {
                "start_time": 62.849999999999994,
                "end_time": 62.94772727272727,
                "pitch": 45,
                "velocity": 64,
                "duration": 0.09772727272727622,
                "tempo": 120.0
            },
            {
                "start_time": 62.949999999999996,
                "end_time": 63.04772727272727,
                "pitch": 47,
                "velocity": 64,
                "duration": 0.09772727272727622,
                "tempo": 120.0
            },
            {
                "start_time": 63.05,
                "end_time": 63.147727272727266,
                "pitch": 50,
                "velocity": 64,
                "duration": 0.09772727272726911,
                "tempo": 120.0
            },
            {
                "start_time": 63.15,
                "end_time": 63.24772727272727,
                "pitch": 52,
                "velocity": 64,
                "duration": 0.09772727272726911,
                "tempo": 120.0
            },
            {
                "start_time": 63.25,
                "end_time": 63.34772727272727,
                "pitch": 57,
                "velocity": 64,
                "duration": 0.09772727272726911,
                "tempo": 120.0
            },
            {
                "start_time": 63.349999999999994,
                "end_time": 63.44772727272727,
                "pitch": 59,
                "velocity": 64,
                "duration": 0.09772727272727622,
                "tempo": 120.0
            },
            {
                "start_time": 63.449999999999996,
                "end_time": 63.54772727272727,
                "pitch": 62,
                "velocity": 64,
                "duration": 0.09772727272727622,
                "tempo": 120.0
            },
            {
                "start_time": 63.55,
                "end_time": 63.65,
                "pitch": 64,
                "velocity": 64,
                "duration": 0.10000000000000142,
                "tempo": 120.0
            },
            {
                "start_time": 63.65,
                "end_time": 63.75,
                "pitch": 68,
                "velocity": 64,
                "duration": 0.10000000000000142,
                "tempo": 120.0
            },
            {
                "start_time": 63.752272727272725,
                "end_time": 63.849999999999994,
                "pitch": 71,
                "velocity": 64,
                "duration": 0.09772727272726911,
                "tempo": 120.0
            },
            {
                "start_time": 63.85227272727273,
                "end_time": 63.95227272727272,
                "pitch": 74,
                "velocity": 64,
                "duration": 0.09999999999999432,
                "tempo": 120.0
            },
            {
                "start_time": 63.95227272727272,
                "end_time": 64.05454545454545,
                "pitch": 76,
                "velocity": 64,
                "duration": 0.10227272727272663,
                "tempo": 120.0
            },
            {
                "start_time": 64.05681818181817,
                "end_time": 64.15681818181818,
                "pitch": 80,
                "velocity": 64,
                "duration": 0.10000000000000853,
                "tempo": 120.0
            },
            {
                "start_time": 64.1590909090909,
                "end_time": 64.26136363636364,
                "pitch": 83,
                "velocity": 64,
                "duration": 0.10227272727273373,
                "tempo": 120.0
            },
            {
                "start_time": 64.26136363636364,
                "end_time": 64.36136363636363,
                "pitch": 86,
                "velocity": 64,
                "duration": 0.09999999999999432,
                "tempo": 120.0
            },
            {
                "start_time": 86.89999999999999,
                "end_time": 87.0,
                "pitch": 76,
                "velocity": 64,
                "duration": 0.10000000000000853,
                "tempo": 120.0
            },
            {
                "start_time": 87.00227272727273,
                "end_time": 87.10454545454544,
                "pitch": 74,
                "velocity": 64,
                "duration": 0.10227272727271952,
                "tempo": 120.0
            },
            {
                "start_time": 87.10454545454544,
                "end_time": 87.20681818181818,
                "pitch": 71,
                "velocity": 64,
                "duration": 0.10227272727273373,
                "tempo": 120.0
            },
            {
                "start_time": 87.20681818181818,
                "end_time": 87.3090909090909,
                "pitch": 68,
                "velocity": 64,
                "duration": 0.10227272727271952,
                "tempo": 120.0
            },
            {
                "start_time": 87.31136363636364,
                "end_time": 87.40681818181818,
                "pitch": 64,
                "velocity": 64,
                "duration": 0.0954545454545439,
                "tempo": 120.0
            },
            {
                "start_time": 87.4090909090909,
                "end_time": 87.50454545454545,
                "pitch": 62,
                "velocity": 64,
                "duration": 0.0954545454545439,
                "tempo": 120.0
            },
            {
                "start_time": 87.50681818181818,
                "end_time": 87.60454545454544,
                "pitch": 59,
                "velocity": 64,
                "duration": 0.09772727272726911,
                "tempo": 120.0
            },
            {
                "start_time": 87.60454545454544,
                "end_time": 87.70227272727273,
                "pitch": 56,
                "velocity": 64,
                "duration": 0.09772727272728332,
                "tempo": 120.0
            },
            {
                "start_time": 87.70454545454545,
                "end_time": 88.10454545454544,
                "pitch": 52,
                "velocity": 64,
                "duration": 0.3999999999999915,
                "tempo": 120.0
            },
            {
                "start_time": 88.3090909090909,
                "end_time": 88.32272727272726,
                "pitch": 72,
                "velocity": 4,
                "duration": 0.013636363636365445,
                "tempo": 120.0
            },
            {
                "start_time": 88.32272727272726,
                "end_time": 88.9090909090909,
                "pitch": 72,
                "velocity": 80,
                "duration": 0.5863636363636431,
                "tempo": 120.0
            },
            {
                "start_time": 88.91136363636363,
                "end_time": 89.11363636363636,
                "pitch": 71,
                "velocity": 80,
                "duration": 0.20227272727272805,
                "tempo": 120.0
            },
            {
                "start_time": 89.11590909090908,
                "end_time": 89.51590909090909,
                "pitch": 70,
                "velocity": 80,
                "duration": 0.4000000000000057,
                "tempo": 120.0
            },
            {
                "start_time": 89.51818181818182,
                "end_time": 89.8840909090909,
                "pitch": 68,
                "velocity": 80,
                "duration": 0.36590909090908497,
                "tempo": 120.0
            },
            {
                "start_time": 51.42727272727272,
                "end_time": 89.91818181818181,
                "pitch": 67,
                "velocity": 40,
                "duration": 38.490909090909085,
                "tempo": 120.0
            },
            {
                "start_time": 89.8840909090909,
                "end_time": 89.91818181818181,
                "pitch": 67,
                "velocity": 80,
                "duration": 0.03409090909090651,
                "tempo": 120.0
            },
            {
                "start_time": 89.92045454545455,
                "end_time": 89.95227272727273,
                "pitch": 68,
                "velocity": 80,
                "duration": 0.0318181818181813,
                "tempo": 120.0
            },
            {
                "start_time": 89.95227272727273,
                "end_time": 90.52727272727272,
                "pitch": 71,
                "velocity": 80,
                "duration": 0.5749999999999886,
                "tempo": 120.0
            },
            {
                "start_time": 90.52954545454546,
                "end_time": 90.72727272727272,
                "pitch": 72,
                "velocity": 80,
                "duration": 0.19772727272726343,
                "tempo": 120.0
            },
            {
                "start_time": 90.73181818181818,
                "end_time": 91.12954545454545,
                "pitch": 73,
                "velocity": 80,
                "duration": 0.39772727272726627,
                "tempo": 120.0
            },
            {
                "start_time": 91.13181818181818,
                "end_time": 91.32954545454545,
                "pitch": 72,
                "velocity": 80,
                "duration": 0.19772727272727764,
                "tempo": 120.0
            },
            {
                "start_time": 91.33181818181818,
                "end_time": 91.53181818181818,
                "pitch": 73,
                "velocity": 80,
                "duration": 0.20000000000000284,
                "tempo": 120.0
            },
            {
                "start_time": 91.5340909090909,
                "end_time": 91.73409090909091,
                "pitch": 73,
                "velocity": 80,
                "duration": 0.20000000000000284,
                "tempo": 120.0
            },
            {
                "start_time": 91.73636363636363,
                "end_time": 91.76818181818182,
                "pitch": 72,
                "velocity": 80,
                "duration": 0.0318181818181813,
                "tempo": 120.0
            },
            {
                "start_time": 91.76818181818182,
                "end_time": 92.1340909090909,
                "pitch": 75,
                "velocity": 80,
                "duration": 0.36590909090908497,
                "tempo": 120.0
            },
            {
                "start_time": 92.13636363636363,
                "end_time": 92.16818181818181,
                "pitch": 75,
                "velocity": 80,
                "duration": 0.0318181818181813,
                "tempo": 120.0
            },
            {
                "start_time": 92.16818181818181,
                "end_time": 92.33636363636363,
                "pitch": 72,
                "velocity": 80,
                "duration": 0.16818181818182154,
                "tempo": 120.0
            },
            {
                "start_time": 92.33863636363635,
                "end_time": 92.73863636363636,
                "pitch": 71,
                "velocity": 80,
                "duration": 0.4000000000000057,
                "tempo": 120.0
            },
            {
                "start_time": 92.74090909090908,
                "end_time": 92.94090909090909,
                "pitch": 69,
                "velocity": 80,
                "duration": 0.20000000000000284,
                "tempo": 120.0
            },
            {
                "start_time": 92.94318181818181,
                "end_time": 93.14090909090909,
                "pitch": 70,
                "velocity": 80,
                "duration": 0.19772727272727764,
                "tempo": 120.0
            },
            {
                "start_time": 93.14318181818182,
                "end_time": 93.175,
                "pitch": 73,
                "velocity": 80,
                "duration": 0.0318181818181813,
                "tempo": 120.0
            },
            {
                "start_time": 93.175,
                "end_time": 93.34090909090908,
                "pitch": 76,
                "velocity": 80,
                "duration": 0.16590909090908212,
                "tempo": 120.0
            },
            {
                "start_time": 93.34318181818182,
                "end_time": 93.375,
                "pitch": 77,
                "velocity": 80,
                "duration": 0.0318181818181813,
                "tempo": 120.0
            },
            {
                "start_time": 89.8840909090909,
                "end_time": 93.74545454545454,
                "pitch": 79,
                "velocity": 80,
                "duration": 3.8613636363636346,
                "tempo": 120.0
            },
            {
                "start_time": 93.375,
                "end_time": 93.74545454545454,
                "pitch": 79,
                "velocity": 80,
                "duration": 0.3704545454545354,
                "tempo": 120.0
            },
            {
                "start_time": 93.74545454545454,
                "end_time": 93.77954545454546,
                "pitch": 78,
                "velocity": 80,
                "duration": 0.03409090909092072,
                "tempo": 120.0
            },
            {
                "start_time": 93.77954545454546,
                "end_time": 93.94545454545454,
                "pitch": 75,
                "velocity": 80,
                "duration": 0.16590909090908212,
                "tempo": 120.0
            },
            {
                "start_time": 93.94772727272726,
                "end_time": 94.26363636363637,
                "pitch": 73,
                "velocity": 80,
                "duration": 0.315909090909102,
                "tempo": 120.0
            },
            {
                "start_time": 94.26363636363637,
                "end_time": 94.34545454545454,
                "pitch": 71,
                "velocity": 80,
                "duration": 0.08181818181817846,
                "tempo": 120.0
            },
            {
                "start_time": 94.34772727272727,
                "end_time": 94.54772727272727,
                "pitch": 71,
                "velocity": 80,
                "duration": 0.20000000000000284,
                "tempo": 120.0
            },
            {
                "start_time": 94.55,
                "end_time": 94.75,
                "pitch": 72,
                "velocity": 80,
                "duration": 0.20000000000000284,
                "tempo": 120.0
            },
            {
                "start_time": 94.75227272727273,
                "end_time": 94.95227272727273,
                "pitch": 73,
                "velocity": 80,
                "duration": 0.20000000000000284,
                "tempo": 120.0
            },
            {
                "start_time": 94.95454545454545,
                "end_time": 95.15681818181818,
                "pitch": 73,
                "velocity": 80,
                "duration": 0.20227272727272805,
                "tempo": 120.0
            },
            {
                "start_time": 95.1590909090909,
                "end_time": 95.56363636363636,
                "pitch": 71,
                "velocity": 80,
                "duration": 0.4045454545454561,
                "tempo": 120.0
            },
            {
                "start_time": 95.56590909090909,
                "end_time": 95.9590909090909,
                "pitch": 70,
                "velocity": 80,
                "duration": 0.39318181818181586,
                "tempo": 120.0
            },
            {
                "start_time": 95.96136363636363,
                "end_time": 96.15681818181818,
                "pitch": 69,
                "velocity": 80,
                "duration": 0.19545454545455243,
                "tempo": 120.0
            },
            {
                "start_time": 96.15681818181818,
                "end_time": 96.36136363636363,
                "pitch": 70,
                "velocity": 80,
                "duration": 0.20454545454545325,
                "tempo": 120.0
            },
            {
                "start_time": 96.36363636363636,
                "end_time": 96.39772727272727,
                "pitch": 73,
                "velocity": 80,
                "duration": 0.03409090909090651,
                "tempo": 120.0
            },
            {
                "start_time": 96.39772727272727,
                "end_time": 96.56818181818181,
                "pitch": 76,
                "velocity": 80,
                "duration": 0.17045454545454675,
                "tempo": 120.0
            },
            {
                "start_time": 96.56818181818181,
                "end_time": 96.9590909090909,
                "pitch": 75,
                "velocity": 80,
                "duration": 0.39090909090909065,
                "tempo": 120.0
            },
            {
                "start_time": 96.96136363636363,
                "end_time": 97.16590909090908,
                "pitch": 73,
                "velocity": 80,
                "duration": 0.20454545454545325,
                "tempo": 120.0
            },
            {
                "start_time": 97.16818181818181,
                "end_time": 97.19999999999999,
                "pitch": 70,
                "velocity": 80,
                "duration": 0.0318181818181813,
                "tempo": 120.0
            },
            {
                "start_time": 97.19999999999999,
                "end_time": 97.50227272727273,
                "pitch": 68,
                "velocity": 80,
                "duration": 0.3022727272727366,
                "tempo": 120.0
            },
            {
                "start_time": 93.375,
                "end_time": 97.56590909090909,
                "pitch": 67,
                "velocity": 80,
                "duration": 4.190909090909088,
                "tempo": 120.0
            },
            {
                "start_time": 97.50227272727273,
                "end_time": 97.56590909090909,
                "pitch": 67,
                "velocity": 80,
                "duration": 0.0636363636363626,
                "tempo": 120.0
            },
            {
                "start_time": 97.56818181818181,
                "end_time": 97.76363636363637,
                "pitch": 66,
                "velocity": 80,
                "duration": 0.19545454545455243,
                "tempo": 120.0
            },
            {
                "start_time": 97.76590909090909,
                "end_time": 97.96818181818182,
                "pitch": 65,
                "velocity": 80,
                "duration": 0.20227272727272805,
                "tempo": 120.0
            },
            {
                "start_time": 9.504545454545454,
                "end_time": 97.98636363636363,
                "pitch": 55,
                "velocity": 80,
                "duration": 88.48181818181818,
                "tempo": 120.0
            },
            {
                "start_time": 97.97045454545454,
                "end_time": 97.98636363636363,
                "pitch": 66,
                "velocity": 80,
                "duration": 0.01590909090909065,
                "tempo": 120.0
            },
            {
                "start_time": 97.98636363636363,
                "end_time": 98.175,
                "pitch": 67,
                "velocity": 80,
                "duration": 0.1886363636363626,
                "tempo": 120.0
            },
            {
                "start_time": 98.17727272727272,
                "end_time": 99.58181818181818,
                "pitch": 68,
                "velocity": 80,
                "duration": 1.404545454545456,
                "tempo": 120.0
            },
            {
                "start_time": 99.5840909090909,
                "end_time": 101.39090909090909,
                "pitch": 70,
                "velocity": 80,
                "duration": 1.806818181818187,
                "tempo": 120.0
            },
            {
                "start_time": 101.39318181818182,
                "end_time": 101.39545454545454,
                "pitch": 71,
                "velocity": 80,
                "duration": 0.0022727272727252057,
                "tempo": 120.0
            },
            {
                "start_time": 127.19772727272726,
                "end_time": 127.21136363636363,
                "pitch": 72,
                "velocity": 101,
                "duration": 0.013636363636365445,
                "tempo": 120.0
            },
            {
                "start_time": 127.21363636363635,
                "end_time": 130.42045454545453,
                "pitch": 72,
                "velocity": 40,
                "duration": 3.2068181818181785,
                "tempo": 120.0
            },
            {
                "start_time": 130.42272727272726,
                "end_time": 130.45454545454544,
                "pitch": 74,
                "velocity": 40,
                "duration": 0.0318181818181813,
                "tempo": 120.0
            },
            {
                "start_time": 130.45454545454544,
                "end_time": 131.025,
                "pitch": 76,
                "velocity": 40,
                "duration": 0.5704545454545666,
                "tempo": 120.0
            },
            {
                "start_time": 131.02727272727273,
                "end_time": 131.62045454545455,
                "pitch": 74,
                "velocity": 40,
                "duration": 0.5931818181818187,
                "tempo": 120.0
            },
            {
                "start_time": 131.62045454545455,
                "end_time": 133.64090909090908,
                "pitch": 72,
                "velocity": 40,
                "duration": 2.020454545454527,
                "tempo": 120.0
            },
            {
                "start_time": 133.6431818181818,
                "end_time": 136.86136363636362,
                "pitch": 74,
                "velocity": 40,
                "duration": 3.2181818181818187,
                "tempo": 120.0
            },
            {
                "start_time": 136.86363636363635,
                "end_time": 136.89545454545453,
                "pitch": 76,
                "velocity": 40,
                "duration": 0.0318181818181813,
                "tempo": 120.0
            },
            {
                "start_time": 97.50227272727273,
                "end_time": 140.0909090909091,
                "pitch": 79,
                "velocity": 80,
                "duration": 42.58863636363637,
                "tempo": 120.0
            },
            {
                "start_time": 136.89545454545453,
                "end_time": 140.0909090909091,
                "pitch": 79,
                "velocity": 40,
                "duration": 3.1954545454545666,
                "tempo": 120.0
            },
            {
                "start_time": 140.0909090909091,
                "end_time": 141.7,
                "pitch": 77,
                "velocity": 40,
                "duration": 1.6090909090908951,
                "tempo": 120.0
            },
            {
                "start_time": 143.31136363636364,
                "end_time": 144.92272727272726,
                "pitch": 76,
                "velocity": 40,
                "duration": 1.6113636363636203,
                "tempo": 120.0
            },
            {
                "start_time": 146.54090909090908,
                "end_time": 146.57272727272726,
                "pitch": 74,
                "velocity": 40,
                "duration": 0.0318181818181813,
                "tempo": 120.0
            },
            {
                "start_time": 146.57272727272726,
                "end_time": 147.94772727272726,
                "pitch": 77,
                "velocity": 40,
                "duration": 1.375,
                "tempo": 120.0
            },
            {
                "start_time": 147.94772727272726,
                "end_time": 148.35,
                "pitch": 75,
                "velocity": 40,
                "duration": 0.4022727272727309,
                "tempo": 120.0
            },
            {
                "start_time": 148.35227272727272,
                "end_time": 148.75227272727273,
                "pitch": 76,
                "velocity": 40,
                "duration": 0.4000000000000057,
                "tempo": 120.0
            },
            {
                "start_time": 148.75454545454545,
                "end_time": 148.78863636363636,
                "pitch": 79,
                "velocity": 40,
                "duration": 0.03409090909090651,
                "tempo": 120.0
            },
            {
                "start_time": 148.78863636363636,
                "end_time": 149.15681818181818,
                "pitch": 81,
                "velocity": 40,
                "duration": 0.3681818181818244,
                "tempo": 120.0
            },
            {
                "start_time": 149.1590909090909,
                "end_time": 149.5590909090909,
                "pitch": 79,
                "velocity": 40,
                "duration": 0.4000000000000057,
                "tempo": 120.0
            },
            {
                "start_time": 149.5590909090909,
                "end_time": 149.59318181818182,
                "pitch": 81,
                "velocity": 40,
                "duration": 0.03409090909090651,
                "tempo": 120.0
            },
            {
                "start_time": 149.59318181818182,
                "end_time": 149.625,
                "pitch": 85,
                "velocity": 40,
                "duration": 0.0318181818181813,
                "tempo": 120.0
            },
            {
                "start_time": 149.625,
                "end_time": 151.17045454545453,
                "pitch": 88,
                "velocity": 40,
                "duration": 1.5454545454545325,
                "tempo": 120.0
            },
            {
                "start_time": 151.17272727272726,
                "end_time": 151.20454545454544,
                "pitch": 86,
                "velocity": 40,
                "duration": 0.0318181818181813,
                "tempo": 120.0
            },
            {
                "start_time": 151.20454545454544,
                "end_time": 151.37272727272727,
                "pitch": 83,
                "velocity": 40,
                "duration": 0.16818181818183575,
                "tempo": 120.0
            },
            {
                "start_time": 151.37272727272727,
                "end_time": 151.47272727272727,
                "pitch": 40,
                "velocity": 64,
                "duration": 0.09999999999999432,
                "tempo": 120.0
            },
            {
                "start_time": 151.47272727272727,
                "end_time": 151.57272727272726,
                "pitch": 45,
                "velocity": 64,
                "duration": 0.09999999999999432,
                "tempo": 120.0
            },
            {
                "start_time": 151.57272727272726,
                "end_time": 151.67272727272726,
                "pitch": 47,
                "velocity": 64,
                "duration": 0.09999999999999432,
                "tempo": 120.0
            },
            {
                "start_time": 151.67272727272726,
                "end_time": 151.77272727272725,
                "pitch": 50,
                "velocity": 64,
                "duration": 0.09999999999999432,
                "tempo": 120.0
            },
            {
                "start_time": 151.77272727272725,
                "end_time": 151.875,
                "pitch": 52,
                "velocity": 64,
                "duration": 0.10227272727274794,
                "tempo": 120.0
            },
            {
                "start_time": 151.875,
                "end_time": 151.97727272727272,
                "pitch": 57,
                "velocity": 64,
                "duration": 0.10227272727271952,
                "tempo": 120.0
            },
            {
                "start_time": 151.97954545454544,
                "end_time": 152.08181818181816,
                "pitch": 59,
                "velocity": 64,
                "duration": 0.10227272727271952,
                "tempo": 120.0
            },
            {
                "start_time": 152.08181818181816,
                "end_time": 152.1840909090909,
                "pitch": 62,
                "velocity": 64,
                "duration": 0.10227272727274794,
                "tempo": 120.0
            },
            {
                "start_time": 152.1840909090909,
                "end_time": 152.28181818181818,
                "pitch": 64,
                "velocity": 64,
                "duration": 0.09772727272726911,
                "tempo": 120.0
            },
            {
                "start_time": 152.28181818181818,
                "end_time": 152.37954545454545,
                "pitch": 68,
                "velocity": 64,
                "duration": 0.09772727272726911,
                "tempo": 120.0
            },
            {
                "start_time": 152.37954545454545,
                "end_time": 152.47727272727272,
                "pitch": 71,
                "velocity": 64,
                "duration": 0.09772727272726911,
                "tempo": 120.0
            },
            {
                "start_time": 152.47954545454544,
                "end_time": 152.575,
                "pitch": 74,
                "velocity": 64,
                "duration": 0.0954545454545439,
                "tempo": 120.0
            },
            {
                "start_time": 152.5772727272727,
                "end_time": 152.67954545454543,
                "pitch": 76,
                "velocity": 64,
                "duration": 0.10227272727271952,
                "tempo": 120.0
            },
            {
                "start_time": 152.67954545454543,
                "end_time": 152.78181818181818,
                "pitch": 80,
                "velocity": 64,
                "duration": 0.10227272727274794,
                "tempo": 120.0
            },
            {
                "start_time": 152.78181818181818,
                "end_time": 152.8840909090909,
                "pitch": 83,
                "velocity": 64,
                "duration": 0.10227272727271952,
                "tempo": 120.0
            },
            {
                "start_time": 152.88636363636363,
                "end_time": 152.98636363636362,
                "pitch": 86,
                "velocity": 64,
                "duration": 0.09999999999999432,
                "tempo": 120.0
            },
            {
                "start_time": 175.54545454545453,
                "end_time": 175.6431818181818,
                "pitch": 76,
                "velocity": 64,
                "duration": 0.09772727272726911,
                "tempo": 120.0
            },
            {
                "start_time": 175.6431818181818,
                "end_time": 175.7431818181818,
                "pitch": 74,
                "velocity": 64,
                "duration": 0.09999999999999432,
                "tempo": 120.0
            },
            {
                "start_time": 175.74545454545455,
                "end_time": 175.84318181818182,
                "pitch": 71,
                "velocity": 64,
                "duration": 0.09772727272726911,
                "tempo": 120.0
            },
            {
                "start_time": 175.84545454545454,
                "end_time": 175.9431818181818,
                "pitch": 68,
                "velocity": 64,
                "duration": 0.09772727272726911,
                "tempo": 120.0
            },
            {
                "start_time": 175.94545454545454,
                "end_time": 176.04545454545453,
                "pitch": 64,
                "velocity": 64,
                "duration": 0.09999999999999432,
                "tempo": 120.0
            },
            {
                "start_time": 176.04545454545453,
                "end_time": 176.14545454545453,
                "pitch": 62,
                "velocity": 64,
                "duration": 0.09999999999999432,
                "tempo": 120.0
            },
            {
                "start_time": 176.14545454545453,
                "end_time": 176.24545454545455,
                "pitch": 59,
                "velocity": 64,
                "duration": 0.10000000000002274,
                "tempo": 120.0
            },
            {
                "start_time": 176.24772727272727,
                "end_time": 176.34772727272727,
                "pitch": 56,
                "velocity": 64,
                "duration": 0.09999999999999432,
                "tempo": 120.0
            },
            {
                "start_time": 176.34772727272727,
                "end_time": 176.75,
                "pitch": 52,
                "velocity": 64,
                "duration": 0.4022727272727309,
                "tempo": 120.0
            },
            {
                "start_time": 176.95454545454544,
                "end_time": 176.96818181818182,
                "pitch": 72,
                "velocity": 4,
                "duration": 0.013636363636379656,
                "tempo": 120.0
            },
            {
                "start_time": 176.97045454545454,
                "end_time": 177.5568181818182,
                "pitch": 72,
                "velocity": 80,
                "duration": 0.5863636363636431,
                "tempo": 120.0
            },
            {
                "start_time": 177.5590909090909,
                "end_time": 177.76136363636363,
                "pitch": 71,
                "velocity": 80,
                "duration": 0.20227272727271384,
                "tempo": 120.0
            },
            {
                "start_time": 177.76363636363635,
                "end_time": 178.16363636363636,
                "pitch": 70,
                "velocity": 80,
                "duration": 0.4000000000000057,
                "tempo": 120.0
            },
            {
                "start_time": 178.16590909090908,
                "end_time": 178.48181818181817,
                "pitch": 68,
                "velocity": 80,
                "duration": 0.3159090909090878,
                "tempo": 120.0
            },
            {
                "start_time": 97.98636363636363,
                "end_time": 178.54999999999998,
                "pitch": 55,
                "velocity": 80,
                "duration": 80.56363636363635,
                "tempo": 120.0
            },
            {
                "start_time": 136.89545454545453,
                "end_time": 178.54999999999998,
                "pitch": 67,
                "velocity": 40,
                "duration": 41.654545454545456,
                "tempo": 120.0
            },
            {
                "start_time": 178.48181818181817,
                "end_time": 178.54999999999998,
                "pitch": 67,
                "velocity": 80,
                "duration": 0.06818181818181301,
                "tempo": 120.0
            },
            {
                "start_time": 178.54999999999998,
                "end_time": 178.5659090909091,
                "pitch": 67,
                "velocity": 80,
                "duration": 0.01590909090910486,
                "tempo": 120.0
            },
            {
                "start_time": 178.5681818181818,
                "end_time": 178.6,
                "pitch": 68,
                "velocity": 80,
                "duration": 0.0318181818181813,
                "tempo": 120.0
            },
            {
                "start_time": 178.6,
                "end_time": 179.17499999999998,
                "pitch": 71,
                "velocity": 80,
                "duration": 0.5749999999999886,
                "tempo": 120.0
            },
            {
                "start_time": 179.1772727272727,
                "end_time": 179.37727272727273,
                "pitch": 72,
                "velocity": 80,
                "duration": 0.20000000000001705,
                "tempo": 120.0
            },
            {
                "start_time": 179.37954545454545,
                "end_time": 179.77954545454546,
                "pitch": 73,
                "velocity": 80,
                "duration": 0.4000000000000057,
                "tempo": 120.0
            },
            {
                "start_time": 179.78181818181818,
                "end_time": 179.98181818181817,
                "pitch": 72,
                "velocity": 80,
                "duration": 0.19999999999998863,
                "tempo": 120.0
            }
        ],
        "Vibraphone": [
            {
                "start_time": 27.402272727272727,
                "end_time": 27.602272727272727,
                "pitch": 74,
                "velocity": 101,
                "duration": 0.1999999999999993,
                "tempo": 120.0
            },
            {
                "start_time": 27.602272727272727,
                "end_time": 27.802272727272726,
                "pitch": 76,
                "velocity": 101,
                "duration": 0.1999999999999993,
                "tempo": 120.0
            },
            {
                "start_time": 27.802272727272726,
                "end_time": 28.004545454545454,
                "pitch": 77,
                "velocity": 101,
                "duration": 0.20227272727272805,
                "tempo": 120.0
            },
            {
                "start_time": 28.004545454545454,
                "end_time": 29.00681818181818,
                "pitch": 74,
                "velocity": 101,
                "duration": 1.0022727272727252,
                "tempo": 120.0
            },
            {
                "start_time": 30.61590909090909,
                "end_time": 30.813636363636363,
                "pitch": 72,
                "velocity": 101,
                "duration": 0.19772727272727408,
                "tempo": 120.0
            },
            {
                "start_time": 30.815909090909088,
                "end_time": 31.013636363636362,
                "pitch": 74,
                "velocity": 101,
                "duration": 0.19772727272727408,
                "tempo": 120.0
            },
            {
                "start_time": 31.01590909090909,
                "end_time": 31.21590909090909,
                "pitch": 76,
                "velocity": 101,
                "duration": 0.1999999999999993,
                "tempo": 120.0
            },
            {
                "start_time": 31.218181818181815,
                "end_time": 32.220454545454544,
                "pitch": 72,
                "velocity": 101,
                "duration": 1.0022727272727288,
                "tempo": 120.0
            },
            {
                "start_time": 53.115909090909085,
                "end_time": 53.31363636363636,
                "pitch": 74,
                "velocity": 101,
                "duration": 0.19772727272727764,
                "tempo": 120.0
            },
            {
                "start_time": 53.31363636363636,
                "end_time": 53.51363636363636,
                "pitch": 76,
                "velocity": 101,
                "duration": 0.19999999999999574,
                "tempo": 120.0
            },
            {
                "start_time": 53.51590909090909,
                "end_time": 53.71363636363636,
                "pitch": 77,
                "velocity": 101,
                "duration": 0.19772727272727053,
                "tempo": 120.0
            },
            {
                "start_time": 53.715909090909086,
                "end_time": 54.71818181818182,
                "pitch": 74,
                "velocity": 101,
                "duration": 1.0022727272727323,
                "tempo": 120.0
            },
            {
                "start_time": 56.324999999999996,
                "end_time": 56.52272727272727,
                "pitch": 72,
                "velocity": 101,
                "duration": 0.19772727272727764,
                "tempo": 120.0
            },
            {
                "start_time": 56.525,
                "end_time": 56.72272727272727,
                "pitch": 74,
                "velocity": 101,
                "duration": 0.19772727272727053,
                "tempo": 120.0
            },
            {
                "start_time": 56.724999999999994,
                "end_time": 56.92272727272727,
                "pitch": 76,
                "velocity": 101,
                "duration": 0.19772727272727764,
                "tempo": 120.0
            },
            {
                "start_time": 56.925,
                "end_time": 57.93636363636363,
                "pitch": 72,
                "velocity": 101,
                "duration": 1.0113636363636331,
                "tempo": 120.0
            },
            {
                "start_time": 115.92727272727272,
                "end_time": 116.12727272727273,
                "pitch": 74,
                "velocity": 101,
                "duration": 0.20000000000000284,
                "tempo": 120.0
            },
            {
                "start_time": 116.12954545454545,
                "end_time": 116.32954545454545,
                "pitch": 76,
                "velocity": 101,
                "duration": 0.20000000000000284,
                "tempo": 120.0
            },
            {
                "start_time": 116.32954545454545,
                "end_time": 116.52954545454544,
                "pitch": 77,
                "velocity": 101,
                "duration": 0.19999999999998863,
                "tempo": 120.0
            },
            {
                "start_time": 116.53181818181818,
                "end_time": 117.5340909090909,
                "pitch": 74,
                "velocity": 101,
                "duration": 1.0022727272727252,
                "tempo": 120.0
            },
            {
                "start_time": 119.14545454545454,
                "end_time": 119.34318181818182,
                "pitch": 72,
                "velocity": 101,
                "duration": 0.19772727272727764,
                "tempo": 120.0
            },
            {
                "start_time": 119.34545454545454,
                "end_time": 119.54545454545455,
                "pitch": 74,
                "velocity": 101,
                "duration": 0.20000000000000284,
                "tempo": 120.0
            },
            {
                "start_time": 119.54545454545455,
                "end_time": 119.74545454545454,
                "pitch": 76,
                "velocity": 101,
                "duration": 0.19999999999998863,
                "tempo": 120.0
            },
            {
                "start_time": 119.74772727272726,
                "end_time": 120.75227272727273,
                "pitch": 72,
                "velocity": 101,
                "duration": 1.0045454545454646,
                "tempo": 120.0
            },
            {
                "start_time": 141.7022727272727,
                "end_time": 141.90227272727273,
                "pitch": 74,
                "velocity": 101,
                "duration": 0.20000000000001705,
                "tempo": 120.0
            },
            {
                "start_time": 141.90227272727273,
                "end_time": 142.10227272727272,
                "pitch": 76,
                "velocity": 101,
                "duration": 0.19999999999998863,
                "tempo": 120.0
            },
            {
                "start_time": 142.10454545454544,
                "end_time": 142.30454545454546,
                "pitch": 77,
                "velocity": 101,
                "duration": 0.20000000000001705,
                "tempo": 120.0
            },
            {
                "start_time": 142.30454545454546,
                "end_time": 143.31136363636364,
                "pitch": 74,
                "velocity": 101,
                "duration": 1.0068181818181756,
                "tempo": 120.0
            },
            {
                "start_time": 144.92499999999998,
                "end_time": 145.12272727272727,
                "pitch": 72,
                "velocity": 101,
                "duration": 0.19772727272729185,
                "tempo": 120.0
            },
            {
                "start_time": 145.125,
                "end_time": 145.32272727272726,
                "pitch": 74,
                "velocity": 101,
                "duration": 0.19772727272726343,
                "tempo": 120.0
            },
            {
                "start_time": 145.325,
                "end_time": 145.52954545454546,
                "pitch": 76,
                "velocity": 101,
                "duration": 0.20454545454546746,
                "tempo": 120.0
            },
            {
                "start_time": 145.52954545454546,
                "end_time": 146.53863636363636,
                "pitch": 72,
                "velocity": 101,
                "duration": 1.0090909090909008,
                "tempo": 120.0
            }
        ],
        "Acoustic Guitar (nylon)": [
            {
                "start_time": 64.75681818181818,
                "end_time": 65.35909090909091,
                "pitch": 60,
                "velocity": 101,
                "duration": 0.6022727272727337,
                "tempo": 120.0
            },
            {
                "start_time": 65.35909090909091,
                "end_time": 65.55909090909091,
                "pitch": 53,
                "velocity": 101,
                "duration": 0.20000000000000284,
                "tempo": 120.0
            },
            {
                "start_time": 65.56136363636364,
                "end_time": 65.76590909090909,
                "pitch": 57,
                "velocity": 101,
                "duration": 0.20454545454545325,
                "tempo": 120.0
            },
            {
                "start_time": 65.76590909090909,
                "end_time": 65.97045454545454,
                "pitch": 60,
                "velocity": 101,
                "duration": 0.20454545454545325,
                "tempo": 120.0
            },
            {
                "start_time": 65.97272727272727,
                "end_time": 66.17272727272727,
                "pitch": 62,
                "velocity": 101,
                "duration": 0.20000000000000284,
                "tempo": 120.0
            },
            {
                "start_time": 66.17272727272727,
                "end_time": 66.37272727272727,
                "pitch": 55,
                "velocity": 101,
                "duration": 0.20000000000000284,
                "tempo": 120.0
            },
            {
                "start_time": 66.375,
                "end_time": 66.575,
                "pitch": 59,
                "velocity": 101,
                "duration": 0.20000000000000284,
                "tempo": 120.0
            },
            {
                "start_time": 66.57727272727273,
                "end_time": 66.77727272727273,
                "pitch": 62,
                "velocity": 101,
                "duration": 0.20000000000000284,
                "tempo": 120.0
            },
            {
                "start_time": 66.77727272727273,
                "end_time": 67.09545454545454,
                "pitch": 67,
                "velocity": 101,
                "duration": 0.318181818181813,
                "tempo": 120.0
            },
            {
                "start_time": 67.09545454545454,
                "end_time": 67.11136363636363,
                "pitch": 67,
                "velocity": 101,
                "duration": 0.01590909090909065,
                "tempo": 120.0
            },
            {
                "start_time": 67.11136363636363,
                "end_time": 67.17727272727272,
                "pitch": 67,
                "velocity": 101,
                "duration": 0.06590909090908781,
                "tempo": 120.0
            },
            {
                "start_time": 67.17954545454545,
                "end_time": 67.58181818181818,
                "pitch": 65,
                "velocity": 101,
                "duration": 0.4022727272727309,
                "tempo": 120.0
            },
            {
                "start_time": 67.58181818181818,
                "end_time": 68.18181818181817,
                "pitch": 64,
                "velocity": 101,
                "duration": 0.5999999999999943,
                "tempo": 120.0
            },
            {
                "start_time": 68.18409090909091,
                "end_time": 69.18863636363636,
                "pitch": 62,
                "velocity": 101,
                "duration": 1.0045454545454504,
                "tempo": 120.0
            },
            {
                "start_time": 69.19090909090909,
                "end_time": 69.79090909090908,
                "pitch": 60,
                "velocity": 101,
                "duration": 0.5999999999999943,
                "tempo": 120.0
            },
            {
                "start_time": 69.79318181818182,
                "end_time": 70.8,
                "pitch": 59,
                "velocity": 101,
                "duration": 1.0068181818181756,
                "tempo": 120.0
            },
            {
                "start_time": 70.8,
                "end_time": 72.20454545454545,
                "pitch": 57,
                "velocity": 101,
                "duration": 1.404545454545456,
                "tempo": 120.0
            },
            {
                "start_time": 72.20681818181818,
                "end_time": 74.01363636363637,
                "pitch": 59,
                "velocity": 101,
                "duration": 1.806818181818187,
                "tempo": 120.0
            },
            {
                "start_time": 74.01590909090909,
                "end_time": 75.42954545454545,
                "pitch": 60,
                "velocity": 101,
                "duration": 1.413636363636357,
                "tempo": 120.0
            },
            {
                "start_time": 75.43181818181817,
                "end_time": 76.23409090909091,
                "pitch": 60,
                "velocity": 101,
                "duration": 0.8022727272727366,
                "tempo": 120.0
            },
            {
                "start_time": 76.23636363636363,
                "end_time": 77.23863636363636,
                "pitch": 62,
                "velocity": 101,
                "duration": 1.0022727272727252,
                "tempo": 120.0
            },
            {
                "start_time": 77.64318181818182,
                "end_time": 78.24545454545454,
                "pitch": 60,
                "velocity": 101,
                "duration": 0.6022727272727195,
                "tempo": 120.0
            },
            {
                "start_time": 78.24545454545454,
                "end_time": 78.44545454545454,
                "pitch": 53,
                "velocity": 101,
                "duration": 0.20000000000000284,
                "tempo": 120.0
            },
            {
                "start_time": 78.44772727272726,
                "end_time": 78.64772727272727,
                "pitch": 57,
                "velocity": 101,
                "duration": 0.20000000000000284,
                "tempo": 120.0
            },
            {
                "start_time": 78.64772727272727,
                "end_time": 78.84772727272727,
                "pitch": 60,
                "velocity": 101,
                "duration": 0.20000000000000284,
                "tempo": 120.0
            },
            {
                "start_time": 78.84772727272727,
                "end_time": 79.04772727272727,
                "pitch": 62,
                "velocity": 101,
                "duration": 0.20000000000000284,
                "tempo": 120.0
            },
            {
                "start_time": 67.11136363636363,
                "end_time": 79.25,
                "pitch": 55,
                "velocity": 101,
                "duration": 12.138636363636365,
                "tempo": 120.0
            },
            {
                "start_time": 79.05,
                "end_time": 79.25,
                "pitch": 55,
                "velocity": 101,
                "duration": 0.20000000000000284,
                "tempo": 120.0
            },
            {
                "start_time": 79.25227272727273,
                "end_time": 79.45227272727273,
                "pitch": 59,
                "velocity": 101,
                "duration": 0.20000000000000284,
                "tempo": 120.0
            },
            {
                "start_time": 79.45227272727273,
                "end_time": 79.65454545454546,
                "pitch": 62,
                "velocity": 101,
                "duration": 0.20227272727272805,
                "tempo": 120.0
            },
            {
                "start_time": 79.65454545454546,
                "end_time": 79.97954545454544,
                "pitch": 67,
                "velocity": 101,
                "duration": 0.32499999999998863,
                "tempo": 120.0
            },
            {
                "start_time": 67.09545454545454,
                "end_time": 79.97954545454544,
                "pitch": 79,
                "velocity": 101,
                "duration": 12.8840909090909,
                "tempo": 120.0
            },
            {
                "start_time": 79.97954545454544,
                "end_time": 79.99772727272727,
                "pitch": 67,
                "velocity": 101,
                "duration": 0.018181818181830067,
                "tempo": 120.0
            },
            {
                "start_time": 79.99772727272727,
                "end_time": 80.06363636363636,
                "pitch": 67,
                "velocity": 101,
                "duration": 0.06590909090908781,
                "tempo": 120.0
            },
            {
                "start_time": 80.06590909090909,
                "end_time": 80.4659090909091,
                "pitch": 65,
                "velocity": 101,
                "duration": 0.4000000000000057,
                "tempo": 120.0
            },
            {
                "start_time": 80.4659090909091,
                "end_time": 81.06363636363636,
                "pitch": 64,
                "velocity": 101,
                "duration": 0.5977272727272691,
                "tempo": 120.0
            },
            {
                "start_time": 81.06363636363636,
                "end_time": 82.07272727272726,
                "pitch": 62,
                "velocity": 101,
                "duration": 1.0090909090909008,
                "tempo": 120.0
            },
            {
                "start_time": 82.075,
                "end_time": 82.675,
                "pitch": 60,
                "velocity": 101,
                "duration": 0.5999999999999943,
                "tempo": 120.0
            },
            {
                "start_time": 82.67727272727272,
                "end_time": 83.68181818181817,
                "pitch": 59,
                "velocity": 101,
                "duration": 1.0045454545454504,
                "tempo": 120.0
            },
            {
                "start_time": 83.68181818181817,
                "end_time": 85.08863636363635,
                "pitch": 57,
                "velocity": 101,
                "duration": 1.4068181818181813,
                "tempo": 120.0
            },
            {
                "start_time": 85.0909090909091,
                "end_time": 86.89772727272727,
                "pitch": 59,
                "velocity": 101,
                "duration": 1.8068181818181728,
                "tempo": 120.0
            },
            {
                "start_time": 88.10681818181818,
                "end_time": 88.30454545454545,
                "pitch": 64,
                "velocity": 101,
                "duration": 0.19772727272726343,
                "tempo": 120.0
            },
            {
                "start_time": 153.37954545454545,
                "end_time": 153.98181818181817,
                "pitch": 60,
                "velocity": 101,
                "duration": 0.6022727272727195,
                "tempo": 120.0
            },
            {
                "start_time": 153.98181818181817,
                "end_time": 154.1840909090909,
                "pitch": 53,
                "velocity": 101,
                "duration": 0.20227272727274226,
                "tempo": 120.0
            },
            {
                "start_time": 154.1840909090909,
                "end_time": 154.38863636363635,
                "pitch": 57,
                "velocity": 101,
                "duration": 0.20454545454543904,
                "tempo": 120.0
            },
            {
                "start_time": 154.39090909090908,
                "end_time": 154.59545454545454,
                "pitch": 60,
                "velocity": 101,
                "duration": 0.20454545454546746,
                "tempo": 120.0
            },
            {
                "start_time": 154.59545454545454,
                "end_time": 154.79545454545453,
                "pitch": 62,
                "velocity": 101,
                "duration": 0.19999999999998863,
                "tempo": 120.0
            },
            {
                "start_time": 79.99772727272727,
                "end_time": 154.99772727272727,
                "pitch": 55,
                "velocity": 101,
                "duration": 75.0,
                "tempo": 120.0
            },
            {
                "start_time": 154.79772727272726,
                "end_time": 154.99772727272727,
                "pitch": 55,
                "velocity": 101,
                "duration": 0.20000000000001705,
                "tempo": 120.0
            },
            {
                "start_time": 155.0,
                "end_time": 155.2,
                "pitch": 59,
                "velocity": 101,
                "duration": 0.19999999999998863,
                "tempo": 120.0
            },
            {
                "start_time": 155.2,
                "end_time": 155.40227272727273,
                "pitch": 62,
                "velocity": 101,
                "duration": 0.20227272727274226,
                "tempo": 120.0
            },
            {
                "start_time": 155.40227272727273,
                "end_time": 155.80454545454543,
                "pitch": 67,
                "velocity": 101,
                "duration": 0.40227272727270247,
                "tempo": 120.0
            },
            {
                "start_time": 155.80454545454543,
                "end_time": 156.2090909090909,
                "pitch": 65,
                "velocity": 101,
                "duration": 0.4045454545454561,
                "tempo": 120.0
            },
            {
                "start_time": 156.2090909090909,
                "end_time": 156.8090909090909,
                "pitch": 64,
                "velocity": 101,
                "duration": 0.6000000000000227,
                "tempo": 120.0
            },
            {
                "start_time": 156.81136363636364,
                "end_time": 157.8181818181818,
                "pitch": 62,
                "velocity": 101,
                "duration": 1.0068181818181756,
                "tempo": 120.0
            },
            {
                "start_time": 157.8181818181818,
                "end_time": 158.42045454545453,
                "pitch": 60,
                "velocity": 101,
                "duration": 0.6022727272727195,
                "tempo": 120.0
            },
            {
                "start_time": 158.42272727272726,
                "end_time": 159.42954545454543,
                "pitch": 59,
                "velocity": 101,
                "duration": 1.0068181818181756,
                "tempo": 120.0
            },
            {
                "start_time": 159.42954545454543,
                "end_time": 160.8340909090909,
                "pitch": 57,
                "velocity": 101,
                "duration": 1.404545454545456,
                "tempo": 120.0
            },
            {
                "start_time": 160.8340909090909,
                "end_time": 162.65454545454546,
                "pitch": 59,
                "velocity": 101,
                "duration": 1.8204545454545666,
                "tempo": 120.0
            },
            {
                "start_time": 162.65454545454546,
                "end_time": 164.06136363636364,
                "pitch": 60,
                "velocity": 101,
                "duration": 1.4068181818181813,
                "tempo": 120.0
            },
            {
                "start_time": 164.06363636363636,
                "end_time": 164.86818181818182,
                "pitch": 60,
                "velocity": 101,
                "duration": 0.8045454545454618,
                "tempo": 120.0
            },
            {
                "start_time": 164.87045454545455,
                "end_time": 165.87272727272727,
                "pitch": 62,
                "velocity": 101,
                "duration": 1.0022727272727252,
                "tempo": 120.0
            },
            {
                "start_time": 166.27727272727273,
                "end_time": 166.88181818181818,
                "pitch": 60,
                "velocity": 101,
                "duration": 0.6045454545454447,
                "tempo": 120.0
            },
            {
                "start_time": 166.8840909090909,
                "end_time": 167.0840909090909,
                "pitch": 53,
                "velocity": 101,
                "duration": 0.19999999999998863,
                "tempo": 120.0
            },
            {
                "start_time": 167.0840909090909,
                "end_time": 167.2840909090909,
                "pitch": 57,
                "velocity": 101,
                "duration": 0.20000000000001705,
                "tempo": 120.0
            },
            {
                "start_time": 167.2840909090909,
                "end_time": 167.4840909090909,
                "pitch": 60,
                "velocity": 101,
                "duration": 0.19999999999998863,
                "tempo": 120.0
            },
            {
                "start_time": 167.48636363636362,
                "end_time": 167.6909090909091,
                "pitch": 62,
                "velocity": 101,
                "duration": 0.20454545454546746,
                "tempo": 120.0
            },
            {
                "start_time": 167.6909090909091,
                "end_time": 167.89545454545453,
                "pitch": 55,
                "velocity": 101,
                "duration": 0.20454545454543904,
                "tempo": 120.0
            },
            {
                "start_time": 167.89545454545453,
                "end_time": 168.0909090909091,
                "pitch": 59,
                "velocity": 101,
                "duration": 0.19545454545456664,
                "tempo": 120.0
            },
            {
                "start_time": 168.09318181818182,
                "end_time": 168.28863636363636,
                "pitch": 62,
                "velocity": 101,
                "duration": 0.19545454545453822,
                "tempo": 120.0
            },
            {
                "start_time": 168.28863636363636,
                "end_time": 168.7,
                "pitch": 67,
                "velocity": 101,
                "duration": 0.4113636363636317,
                "tempo": 120.0
            },
            {
                "start_time": 168.7,
                "end_time": 169.10227272727272,
                "pitch": 65,
                "velocity": 101,
                "duration": 0.4022727272727309,
                "tempo": 120.0
            },
            {
                "start_time": 169.10454545454544,
                "end_time": 169.7,
                "pitch": 64,
                "velocity": 101,
                "duration": 0.5954545454545439,
                "tempo": 120.0
            },
            {
                "start_time": 169.7022727272727,
                "end_time": 170.71136363636361,
                "pitch": 62,
                "velocity": 101,
                "duration": 1.0090909090909008,
                "tempo": 120.0
            },
            {
                "start_time": 170.71136363636361,
                "end_time": 171.3159090909091,
                "pitch": 60,
                "velocity": 101,
                "duration": 0.6045454545454731,
                "tempo": 120.0
            },
            {
                "start_time": 171.3159090909091,
                "end_time": 172.32045454545454,
                "pitch": 59,
                "velocity": 101,
                "duration": 1.0045454545454504,
                "tempo": 120.0
            },
            {
                "start_time": 172.32272727272726,
                "end_time": 173.72954545454544,
                "pitch": 57,
                "velocity": 101,
                "duration": 1.4068181818181813,
                "tempo": 120.0
            },
            {
                "start_time": 173.73181818181817,
                "end_time": 175.5431818181818,
                "pitch": 59,
                "velocity": 101,
                "duration": 1.8113636363636374,
                "tempo": 120.0
            },
            {
                "start_time": 176.75227272727273,
                "end_time": 176.9522727272727,
                "pitch": 64,
                "velocity": 101,
                "duration": 0.19999999999998863,
                "tempo": 120.0
            }
        ],
        "Harpsichord": [
            {
                "start_time": 0.03409090909090909,
                "end_time": 0.1318181818181818,
                "pitch": 81,
                "velocity": 40,
                "duration": 0.09772727272727272,
                "tempo": 120.0
            },
            {
                "start_time": 0.1340909090909091,
                "end_time": 0.23409090909090907,
                "pitch": 84,
                "velocity": 40,
                "duration": 0.09999999999999998,
                "tempo": 120.0
            },
            {
                "start_time": 0.23409090909090907,
                "end_time": 0.33409090909090905,
                "pitch": 83,
                "velocity": 40,
                "duration": 0.09999999999999998,
                "tempo": 120.0
            },
            {
                "start_time": 0.33409090909090905,
                "end_time": 0.4340909090909091,
                "pitch": 84,
                "velocity": 40,
                "duration": 0.10000000000000003,
                "tempo": 120.0
            },
            {
                "start_time": 0.43636363636363634,
                "end_time": 0.5340909090909091,
                "pitch": 81,
                "velocity": 40,
                "duration": 0.09772727272727272,
                "tempo": 120.0
            },
            {
                "start_time": 0.5363636363636364,
                "end_time": 0.634090909090909,
                "pitch": 84,
                "velocity": 40,
                "duration": 0.09772727272727266,
                "tempo": 120.0
            },
            {
                "start_time": 0.6363636363636364,
                "end_time": 0.734090909090909,
                "pitch": 83,
                "velocity": 40,
                "duration": 0.09772727272727266,
                "tempo": 120.0
            },
            {
                "start_time": 0.7363636363636363,
                "end_time": 0.8340909090909091,
                "pitch": 84,
                "velocity": 40,
                "duration": 0.09772727272727277,
                "tempo": 120.0
            },
            {
                "start_time": 0.8363636363636363,
                "end_time": 0.9363636363636363,
                "pitch": 81,
                "velocity": 40,
                "duration": 0.09999999999999998,
                "tempo": 120.0
            },
            {
                "start_time": 0.9363636363636363,
                "end_time": 1.0363636363636364,
                "pitch": 84,
                "velocity": 40,
                "duration": 0.10000000000000009,
                "tempo": 120.0
            },
            {
                "start_time": 1.0363636363636364,
                "end_time": 1.1363636363636362,
                "pitch": 83,
                "velocity": 40,
                "duration": 0.09999999999999987,
                "tempo": 120.0
            },
            {
                "start_time": 1.1363636363636362,
                "end_time": 1.2363636363636363,
                "pitch": 84,
                "velocity": 40,
                "duration": 0.10000000000000009,
                "tempo": 120.0
            },
            {
                "start_time": 1.2363636363636363,
                "end_time": 1.3363636363636362,
                "pitch": 81,
                "velocity": 40,
                "duration": 0.09999999999999987,
                "tempo": 120.0
            },
            {
                "start_time": 1.3363636363636362,
                "end_time": 1.4363636363636363,
                "pitch": 84,
                "velocity": 40,
                "duration": 0.10000000000000009,
                "tempo": 120.0
            },
            {
                "start_time": 1.4363636363636363,
                "end_time": 1.5363636363636364,
                "pitch": 83,
                "velocity": 40,
                "duration": 0.10000000000000009,
                "tempo": 120.0
            },
            {
                "start_time": 1.5363636363636364,
                "end_time": 1.6363636363636362,
                "pitch": 84,
                "velocity": 40,
                "duration": 0.09999999999999987,
                "tempo": 120.0
            },
            {
                "start_time": 1.6386363636363634,
                "end_time": 1.7363636363636363,
                "pitch": 81,
                "velocity": 40,
                "duration": 0.09772727272727288,
                "tempo": 120.0
            },
            {
                "start_time": 1.7363636363636363,
                "end_time": 1.8363636363636362,
                "pitch": 84,
                "velocity": 40,
                "duration": 0.09999999999999987,
                "tempo": 120.0
            },
            {
                "start_time": 1.8363636363636362,
                "end_time": 1.9363636363636363,
                "pitch": 83,
                "velocity": 40,
                "duration": 0.10000000000000009,
                "tempo": 120.0
            },
            {
                "start_time": 1.9386363636363635,
                "end_time": 2.036363636363636,
                "pitch": 84,
                "velocity": 40,
                "duration": 0.09772727272727266,
                "tempo": 120.0
            },
            {
                "start_time": 2.0386363636363636,
                "end_time": 2.1386363636363637,
                "pitch": 81,
                "velocity": 40,
                "duration": 0.10000000000000009,
                "tempo": 120.0
            },
            {
                "start_time": 2.1409090909090907,
                "end_time": 2.243181818181818,
                "pitch": 84,
                "velocity": 40,
                "duration": 0.10227272727272751,
                "tempo": 120.0
            },
            {
                "start_time": 2.243181818181818,
                "end_time": 2.3454545454545452,
                "pitch": 83,
                "velocity": 40,
                "duration": 0.10227272727272707,
                "tempo": 120.0
            },
            {
                "start_time": 2.3454545454545452,
                "end_time": 2.4477272727272728,
                "pitch": 84,
                "velocity": 40,
                "duration": 0.10227272727272751,
                "tempo": 120.0
            },
            {
                "start_time": 2.4477272727272728,
                "end_time": 2.5454545454545454,
                "pitch": 81,
                "velocity": 40,
                "duration": 0.09772727272727266,
                "tempo": 120.0
            },
            {
                "start_time": 2.5477272727272724,
                "end_time": 2.643181818181818,
                "pitch": 84,
                "velocity": 40,
                "duration": 0.09545454545454568,
                "tempo": 120.0
            },
            {
                "start_time": 2.6454545454545455,
                "end_time": 2.743181818181818,
                "pitch": 83,
                "velocity": 40,
                "duration": 0.09772727272727266,
                "tempo": 120.0
            },
            {
                "start_time": 2.743181818181818,
                "end_time": 2.840909090909091,
                "pitch": 84,
                "velocity": 40,
                "duration": 0.09772727272727266,
                "tempo": 120.0
            },
            {
                "start_time": 2.840909090909091,
                "end_time": 2.943181818181818,
                "pitch": 81,
                "velocity": 40,
                "duration": 0.10227272727272707,
                "tempo": 120.0
            },
            {
                "start_time": 2.943181818181818,
                "end_time": 3.0454545454545454,
                "pitch": 84,
                "velocity": 40,
                "duration": 0.10227272727272751,
                "tempo": 120.0
            },
            {
                "start_time": 3.0477272727272724,
                "end_time": 3.15,
                "pitch": 83,
                "velocity": 40,
                "duration": 0.10227272727272751,
                "tempo": 120.0
            },
            {
                "start_time": 3.15,
                "end_time": 3.252272727272727,
                "pitch": 84,
                "velocity": 40,
                "duration": 0.10227272727272707,
                "tempo": 120.0
            },
            {
                "start_time": 3.252272727272727,
                "end_time": 3.352272727272727,
                "pitch": 81,
                "velocity": 40,
                "duration": 0.10000000000000009,
                "tempo": 120.0
            },
            {
                "start_time": 3.3545454545454545,
                "end_time": 3.4545454545454546,
                "pitch": 84,
                "velocity": 40,
                "duration": 0.10000000000000009,
                "tempo": 120.0
            },
            {
                "start_time": 3.4545454545454546,
                "end_time": 3.5545454545454542,
                "pitch": 83,
                "velocity": 40,
                "duration": 0.09999999999999964,
                "tempo": 120.0
            },
            {
                "start_time": 3.5545454545454542,
                "end_time": 3.6545454545454543,
                "pitch": 84,
                "velocity": 40,
                "duration": 0.10000000000000009,
                "tempo": 120.0
            },
            {
                "start_time": 3.6568181818181817,
                "end_time": 3.7545454545454544,
                "pitch": 81,
                "velocity": 40,
                "duration": 0.09772727272727266,
                "tempo": 120.0
            },
            {
                "start_time": 3.756818181818182,
                "end_time": 3.8545454545454545,
                "pitch": 84,
                "velocity": 40,
                "duration": 0.09772727272727266,
                "tempo": 120.0
            },
            {
                "start_time": 3.8568181818181815,
                "end_time": 3.954545454545454,
                "pitch": 83,
                "velocity": 40,
                "duration": 0.09772727272727266,
                "tempo": 120.0
            },
            {
                "start_time": 3.9568181818181816,
                "end_time": 4.054545454545455,
                "pitch": 84,
                "velocity": 40,
                "duration": 0.0977272727272731,
                "tempo": 120.0
            },
            {
                "start_time": 4.056818181818182,
                "end_time": 4.156818181818181,
                "pitch": 81,
                "velocity": 40,
                "duration": 0.09999999999999964,
                "tempo": 120.0
            },
            {
                "start_time": 4.156818181818181,
                "end_time": 4.256818181818182,
                "pitch": 84,
                "velocity": 40,
                "duration": 0.10000000000000053,
                "tempo": 120.0
            },
            {
                "start_time": 4.256818181818182,
                "end_time": 4.3568181818181815,
                "pitch": 83,
                "velocity": 40,
                "duration": 0.09999999999999964,
                "tempo": 120.0
            },
            {
                "start_time": 4.3568181818181815,
                "end_time": 4.456818181818182,
                "pitch": 84,
                "velocity": 40,
                "duration": 0.10000000000000053,
                "tempo": 120.0
            },
            {
                "start_time": 4.456818181818182,
                "end_time": 4.556818181818182,
                "pitch": 81,
                "velocity": 40,
                "duration": 0.09999999999999964,
                "tempo": 120.0
            },
            {
                "start_time": 4.556818181818182,
                "end_time": 4.656818181818181,
                "pitch": 84,
                "velocity": 40,
                "duration": 0.09999999999999964,
                "tempo": 120.0
            },
            {
                "start_time": 4.659090909090909,
                "end_time": 4.759090909090909,
                "pitch": 83,
                "velocity": 40,
                "duration": 0.09999999999999964,
                "tempo": 120.0
            },
            {
                "start_time": 4.759090909090909,
                "end_time": 4.8590909090909085,
                "pitch": 84,
                "velocity": 40,
                "duration": 0.09999999999999964,
                "tempo": 120.0
            },
            {
                "start_time": 4.861363636363636,
                "end_time": 4.959090909090909,
                "pitch": 81,
                "velocity": 40,
                "duration": 0.09772727272727266,
                "tempo": 120.0
            },
            {
                "start_time": 4.961363636363636,
                "end_time": 5.059090909090909,
                "pitch": 84,
                "velocity": 40,
                "duration": 0.09772727272727266,
                "tempo": 120.0
            },
            {
                "start_time": 5.0613636363636365,
                "end_time": 5.159090909090909,
                "pitch": 83,
                "velocity": 40,
                "duration": 0.09772727272727266,
                "tempo": 120.0
            },
            {
                "start_time": 5.161363636363636,
                "end_time": 5.259090909090909,
                "pitch": 84,
                "velocity": 40,
                "duration": 0.09772727272727266,
                "tempo": 120.0
            },
            {
                "start_time": 5.261363636363636,
                "end_time": 5.361363636363636,
                "pitch": 81,
                "velocity": 40,
                "duration": 0.10000000000000053,
                "tempo": 120.0
            },
            {
                "start_time": 5.361363636363636,
                "end_time": 5.461363636363636,
                "pitch": 84,
                "velocity": 40,
                "duration": 0.09999999999999964,
                "tempo": 120.0
            },
            {
                "start_time": 5.461363636363636,
                "end_time": 5.5613636363636365,
                "pitch": 83,
                "velocity": 40,
                "duration": 0.10000000000000053,
                "tempo": 120.0
            },
            {
                "start_time": 5.5636363636363635,
                "end_time": 5.663636363636363,
                "pitch": 84,
                "velocity": 40,
                "duration": 0.09999999999999964,
                "tempo": 120.0
            },
            {
                "start_time": 5.663636363636363,
                "end_time": 5.763636363636364,
                "pitch": 81,
                "velocity": 40,
                "duration": 0.10000000000000053,
                "tempo": 120.0
            },
            {
                "start_time": 5.763636363636364,
                "end_time": 5.863636363636363,
                "pitch": 84,
                "velocity": 40,
                "duration": 0.09999999999999964,
                "tempo": 120.0
            },
            {
                "start_time": 5.863636363636363,
                "end_time": 5.963636363636363,
                "pitch": 83,
                "velocity": 40,
                "duration": 0.09999999999999964,
                "tempo": 120.0
            },
            {
                "start_time": 5.963636363636363,
                "end_time": 6.0636363636363635,
                "pitch": 84,
                "velocity": 40,
                "duration": 0.10000000000000053,
                "tempo": 120.0
            },
            {
                "start_time": 6.0636363636363635,
                "end_time": 6.163636363636363,
                "pitch": 81,
                "velocity": 40,
                "duration": 0.09999999999999964,
                "tempo": 120.0
            },
            {
                "start_time": 6.165909090909091,
                "end_time": 6.265909090909091,
                "pitch": 84,
                "velocity": 40,
                "duration": 0.09999999999999964,
                "tempo": 120.0
            },
            {
                "start_time": 6.265909090909091,
                "end_time": 6.36590909090909,
                "pitch": 83,
                "velocity": 40,
                "duration": 0.09999999999999964,
                "tempo": 120.0
            },
            {
                "start_time": 6.36590909090909,
                "end_time": 6.468181818181818,
                "pitch": 84,
                "velocity": 40,
                "duration": 0.10227272727272751,
                "tempo": 120.0
            },
            {
                "start_time": 6.468181818181818,
                "end_time": 6.5681818181818175,
                "pitch": 81,
                "velocity": 40,
                "duration": 0.09999999999999964,
                "tempo": 120.0
            },
            {
                "start_time": 6.5681818181818175,
                "end_time": 6.668181818181818,
                "pitch": 84,
                "velocity": 40,
                "duration": 0.10000000000000053,
                "tempo": 120.0
            },
            {
                "start_time": 6.668181818181818,
                "end_time": 6.768181818181818,
                "pitch": 83,
                "velocity": 40,
                "duration": 0.09999999999999964,
                "tempo": 120.0
            },
            {
                "start_time": 6.7704545454545455,
                "end_time": 6.870454545454545,
                "pitch": 84,
                "velocity": 40,
                "duration": 0.09999999999999964,
                "tempo": 120.0
            },
            {
                "start_time": 6.870454545454545,
                "end_time": 6.970454545454545,
                "pitch": 81,
                "velocity": 40,
                "duration": 0.09999999999999964,
                "tempo": 120.0
            },
            {
                "start_time": 6.970454545454545,
                "end_time": 7.070454545454545,
                "pitch": 84,
                "velocity": 40,
                "duration": 0.10000000000000053,
                "tempo": 120.0
            },
            {
                "start_time": 7.070454545454545,
                "end_time": 7.170454545454545,
                "pitch": 83,
                "velocity": 40,
                "duration": 0.09999999999999964,
                "tempo": 120.0
            },
            {
                "start_time": 7.170454545454545,
                "end_time": 7.2704545454545455,
                "pitch": 84,
                "velocity": 40,
                "duration": 0.10000000000000053,
                "tempo": 120.0
            },
            {
                "start_time": 7.2704545454545455,
                "end_time": 7.370454545454545,
                "pitch": 81,
                "velocity": 40,
                "duration": 0.09999999999999964,
                "tempo": 120.0
            },
            {
                "start_time": 7.372727272727272,
                "end_time": 7.472727272727273,
                "pitch": 84,
                "velocity": 40,
                "duration": 0.10000000000000053,
                "tempo": 120.0
            },
            {
                "start_time": 7.472727272727273,
                "end_time": 7.572727272727272,
                "pitch": 83,
                "velocity": 40,
                "duration": 0.09999999999999964,
                "tempo": 120.0
            },
            {
                "start_time": 7.572727272727272,
                "end_time": 7.672727272727272,
                "pitch": 84,
                "velocity": 40,
                "duration": 0.09999999999999964,
                "tempo": 120.0
            },
            {
                "start_time": 7.675,
                "end_time": 7.7727272727272725,
                "pitch": 81,
                "velocity": 40,
                "duration": 0.09772727272727266,
                "tempo": 120.0
            },
            {
                "start_time": 7.7749999999999995,
                "end_time": 7.875,
                "pitch": 84,
                "velocity": 40,
                "duration": 0.10000000000000053,
                "tempo": 120.0
            },
            {
                "start_time": 7.875,
                "end_time": 7.975,
                "pitch": 83,
                "velocity": 40,
                "duration": 0.09999999999999964,
                "tempo": 120.0
            },
            {
                "start_time": 7.975,
                "end_time": 8.075,
                "pitch": 84,
                "velocity": 40,
                "duration": 0.09999999999999964,
                "tempo": 120.0
            },
            {
                "start_time": 8.075,
                "end_time": 8.174999999999999,
                "pitch": 79,
                "velocity": 40,
                "duration": 0.09999999999999964,
                "tempo": 120.0
            },
            {
                "start_time": 8.174999999999999,
                "end_time": 8.275,
                "pitch": 84,
                "velocity": 40,
                "duration": 0.10000000000000142,
                "tempo": 120.0
            },
            {
                "start_time": 8.275,
                "end_time": 8.375,
                "pitch": 83,
                "velocity": 40,
                "duration": 0.09999999999999964,
                "tempo": 120.0
            },
            {
                "start_time": 8.375,
                "end_time": 8.475,
                "pitch": 84,
                "velocity": 40,
                "duration": 0.09999999999999964,
                "tempo": 120.0
            },
            {
                "start_time": 8.475,
                "end_time": 8.575,
                "pitch": 79,
                "velocity": 40,
                "duration": 0.09999999999999964,
                "tempo": 120.0
            },
            {
                "start_time": 8.577272727272726,
                "end_time": 8.677272727272728,
                "pitch": 84,
                "velocity": 40,
                "duration": 0.10000000000000142,
                "tempo": 120.0
            },
            {
                "start_time": 8.677272727272728,
                "end_time": 8.777272727272727,
                "pitch": 83,
                "velocity": 40,
                "duration": 0.09999999999999964,
                "tempo": 120.0
            },
            {
                "start_time": 8.777272727272727,
                "end_time": 8.877272727272727,
                "pitch": 84,
                "velocity": 40,
                "duration": 0.09999999999999964,
                "tempo": 120.0
            },
            {
                "start_time": 8.879545454545454,
                "end_time": 8.979545454545454,
                "pitch": 79,
                "velocity": 40,
                "duration": 0.09999999999999964,
                "tempo": 120.0
            },
            {
                "start_time": 8.979545454545454,
                "end_time": 9.079545454545453,
                "pitch": 84,
                "velocity": 40,
                "duration": 0.09999999999999964,
                "tempo": 120.0
            },
            {
                "start_time": 9.079545454545453,
                "end_time": 9.179545454545455,
                "pitch": 83,
                "velocity": 40,
                "duration": 0.10000000000000142,
                "tempo": 120.0
            },
            {
                "start_time": 9.181818181818182,
                "end_time": 9.281818181818181,
                "pitch": 84,
                "velocity": 40,
                "duration": 0.09999999999999964,
                "tempo": 120.0
            },
            {
                "start_time": 9.281818181818181,
                "end_time": 9.384090909090908,
                "pitch": 79,
                "velocity": 40,
                "duration": 0.10227272727272663,
                "tempo": 120.0
            },
            {
                "start_time": 9.384090909090908,
                "end_time": 9.486363636363636,
                "pitch": 84,
                "velocity": 40,
                "duration": 0.1022727272727284,
                "tempo": 120.0
            },
            {
                "start_time": 9.488636363636363,
                "end_time": 9.588636363636363,
                "pitch": 83,
                "velocity": 40,
                "duration": 0.09999999999999964,
                "tempo": 120.0
            },
            {
                "start_time": 9.59090909090909,
                "end_time": 9.693181818181818,
                "pitch": 84,
                "velocity": 40,
                "duration": 0.1022727272727284,
                "tempo": 120.0
            },
            {
                "start_time": 9.693181818181818,
                "end_time": 9.793181818181818,
                "pitch": 80,
                "velocity": 40,
                "duration": 0.09999999999999964,
                "tempo": 120.0
            },
            {
                "start_time": 9.795454545454545,
                "end_time": 9.893181818181818,
                "pitch": 86,
                "velocity": 40,
                "duration": 0.09772727272727266,
                "tempo": 120.0
            },
            {
                "start_time": 9.895454545454545,
                "end_time": 9.995454545454544,
                "pitch": 83,
                "velocity": 40,
                "duration": 0.09999999999999964,
                "tempo": 120.0
            },
            {
                "start_time": 9.995454545454544,
                "end_time": 10.095454545454546,
                "pitch": 86,
                "velocity": 40,
                "duration": 0.10000000000000142,
                "tempo": 120.0
            },
            {
                "start_time": 10.097727272727273,
                "end_time": 10.197727272727272,
                "pitch": 80,
                "velocity": 40,
                "duration": 0.09999999999999964,
                "tempo": 120.0
            },
            {
                "start_time": 10.197727272727272,
                "end_time": 10.297727272727272,
                "pitch": 86,
                "velocity": 40,
                "duration": 0.09999999999999964,
                "tempo": 120.0
            },
            {
                "start_time": 10.297727272727272,
                "end_time": 10.397727272727272,
                "pitch": 83,
                "velocity": 40,
                "duration": 0.09999999999999964,
                "tempo": 120.0
            },
            {
                "start_time": 10.4,
                "end_time": 10.5,
                "pitch": 86,
                "velocity": 40,
                "duration": 0.09999999999999964,
                "tempo": 120.0
            },
            {
                "start_time": 10.5,
                "end_time": 10.597727272727273,
                "pitch": 80,
                "velocity": 40,
                "duration": 0.09772727272727266,
                "tempo": 120.0
            },
            {
                "start_time": 10.597727272727273,
                "end_time": 10.695454545454545,
                "pitch": 86,
                "velocity": 40,
                "duration": 0.09772727272727266,
                "tempo": 120.0
            },
            {
                "start_time": 10.695454545454545,
                "end_time": 10.793181818181818,
                "pitch": 83,
                "velocity": 40,
                "duration": 0.09772727272727266,
                "tempo": 120.0
            },
            {
                "start_time": 10.793181818181818,
                "end_time": 10.89090909090909,
                "pitch": 86,
                "velocity": 40,
                "duration": 0.09772727272727266,
                "tempo": 120.0
            },
            {
                "start_time": 10.893181818181818,
                "end_time": 10.993181818181817,
                "pitch": 80,
                "velocity": 40,
                "duration": 0.09999999999999964,
                "tempo": 120.0
            },
            {
                "start_time": 10.995454545454544,
                "end_time": 11.097727272727273,
                "pitch": 86,
                "velocity": 40,
                "duration": 0.1022727272727284,
                "tempo": 120.0
            },
            {
                "start_time": 11.097727272727273,
                "end_time": 11.2,
                "pitch": 83,
                "velocity": 40,
                "duration": 0.10227272727272663,
                "tempo": 120.0
            },
            {
                "start_time": 11.2,
                "end_time": 11.302272727272726,
                "pitch": 86,
                "velocity": 40,
                "duration": 0.10227272727272663,
                "tempo": 120.0
            },
            {
                "start_time": 11.304545454545455,
                "end_time": 11.399999999999999,
                "pitch": 80,
                "velocity": 40,
                "duration": 0.0954545454545439,
                "tempo": 120.0
            },
            {
                "start_time": 11.402272727272727,
                "end_time": 11.5,
                "pitch": 86,
                "velocity": 40,
                "duration": 0.09772727272727266,
                "tempo": 120.0
            },
            {
                "start_time": 11.5,
                "end_time": 11.597727272727273,
                "pitch": 83,
                "velocity": 40,
                "duration": 0.09772727272727266,
                "tempo": 120.0
            },
            {
                "start_time": 11.597727272727273,
                "end_time": 11.695454545454545,
                "pitch": 86,
                "velocity": 40,
                "duration": 0.09772727272727266,
                "tempo": 120.0
            },
            {
                "start_time": 11.695454545454545,
                "end_time": 11.797727272727272,
                "pitch": 80,
                "velocity": 40,
                "duration": 0.10227272727272663,
                "tempo": 120.0
            },
            {
                "start_time": 11.799999999999999,
                "end_time": 11.899999999999999,
                "pitch": 86,
                "velocity": 40,
                "duration": 0.09999999999999964,
                "tempo": 120.0
            },
            {
                "start_time": 11.902272727272727,
                "end_time": 12.004545454545454,
                "pitch": 83,
                "velocity": 40,
                "duration": 0.10227272727272663,
                "tempo": 120.0
            },
            {
                "start_time": 12.004545454545454,
                "end_time": 12.10681818181818,
                "pitch": 86,
                "velocity": 40,
                "duration": 0.10227272727272663,
                "tempo": 120.0
            },
            {
                "start_time": 12.10681818181818,
                "end_time": 12.206818181818182,
                "pitch": 80,
                "velocity": 40,
                "duration": 0.10000000000000142,
                "tempo": 120.0
            },
            {
                "start_time": 12.209090909090909,
                "end_time": 12.309090909090909,
                "pitch": 86,
                "velocity": 40,
                "duration": 0.09999999999999964,
                "tempo": 120.0
            },
            {
                "start_time": 12.309090909090909,
                "end_time": 12.409090909090908,
                "pitch": 83,
                "velocity": 40,
                "duration": 0.09999999999999964,
                "tempo": 120.0
            },
            {
                "start_time": 12.409090909090908,
                "end_time": 12.509090909090908,
                "pitch": 86,
                "velocity": 40,
                "duration": 0.09999999999999964,
                "tempo": 120.0
            },
            {
                "start_time": 12.511363636363635,
                "end_time": 12.60909090909091,
                "pitch": 80,
                "velocity": 40,
                "duration": 0.09772727272727444,
                "tempo": 120.0
            },
            {
                "start_time": 12.611363636363636,
                "end_time": 12.709090909090909,
                "pitch": 86,
                "velocity": 40,
                "duration": 0.09772727272727266,
                "tempo": 120.0
            },
            {
                "start_time": 12.711363636363636,
                "end_time": 12.809090909090909,
                "pitch": 83,
                "velocity": 40,
                "duration": 0.09772727272727266,
                "tempo": 120.0
            },
            {
                "start_time": 12.811363636363636,
                "end_time": 12.911363636363635,
                "pitch": 86,
                "velocity": 40,
                "duration": 0.09999999999999964,
                "tempo": 120.0
            },
            {
                "start_time": 88.48863636363636,
                "end_time": 88.58863636363635,
                "pitch": 81,
                "velocity": 40,
                "duration": 0.09999999999999432,
                "tempo": 120.0
            },
            {
                "start_time": 88.58863636363635,
                "end_time": 88.68863636363636,
                "pitch": 84,
                "velocity": 40,
                "duration": 0.10000000000000853,
                "tempo": 120.0
            },
            {
                "start_time": 88.69090909090909,
                "end_time": 88.78863636363636,
                "pitch": 83,
                "velocity": 40,
                "duration": 0.09772727272726911,
                "tempo": 120.0
            },
            {
                "start_time": 88.79090909090908,
                "end_time": 88.89090909090909,
                "pitch": 84,
                "velocity": 40,
                "duration": 0.10000000000000853,
                "tempo": 120.0
            },
            {
                "start_time": 88.89090909090909,
                "end_time": 88.99318181818181,
                "pitch": 81,
                "velocity": 40,
                "duration": 0.10227272727271952,
                "tempo": 120.0
            },
            {
                "start_time": 88.99318181818181,
                "end_time": 89.09545454545454,
                "pitch": 84,
                "velocity": 40,
                "duration": 0.10227272727273373,
                "tempo": 120.0
            },
            {
                "start_time": 89.09772727272727,
                "end_time": 89.19772727272726,
                "pitch": 83,
                "velocity": 40,
                "duration": 0.09999999999999432,
                "tempo": 120.0
            },
            {
                "start_time": 89.19999999999999,
                "end_time": 89.30227272727272,
                "pitch": 84,
                "velocity": 40,
                "duration": 0.10227272727273373,
                "tempo": 120.0
            },
            {
                "start_time": 89.30227272727272,
                "end_time": 89.39999999999999,
                "pitch": 81,
                "velocity": 40,
                "duration": 0.09772727272726911,
                "tempo": 120.0
            },
            {
                "start_time": 89.40227272727272,
                "end_time": 89.49772727272727,
                "pitch": 84,
                "velocity": 40,
                "duration": 0.09545454545455812,
                "tempo": 120.0
            },
            {
                "start_time": 89.5,
                "end_time": 89.59545454545454,
                "pitch": 83,
                "velocity": 40,
                "duration": 0.0954545454545439,
                "tempo": 120.0
            },
            {
                "start_time": 89.59772727272727,
                "end_time": 89.69545454545454,
                "pitch": 84,
                "velocity": 40,
                "duration": 0.09772727272726911,
                "tempo": 120.0
            },
            {
                "start_time": 89.69545454545454,
                "end_time": 89.79545454545455,
                "pitch": 81,
                "velocity": 40,
                "duration": 0.10000000000000853,
                "tempo": 120.0
            },
            {
                "start_time": 89.79772727272727,
                "end_time": 89.89999999999999,
                "pitch": 84,
                "velocity": 40,
                "duration": 0.10227272727271952,
                "tempo": 120.0
            },
            {
                "start_time": 89.89999999999999,
                "end_time": 90.00227272727273,
                "pitch": 83,
                "velocity": 40,
                "duration": 0.10227272727273373,
                "tempo": 120.0
            },
            {
                "start_time": 90.00454545454545,
                "end_time": 90.10454545454544,
                "pitch": 84,
                "velocity": 40,
                "duration": 0.09999999999999432,
                "tempo": 120.0
            },
            {
                "start_time": 90.10681818181818,
                "end_time": 90.20681818181818,
                "pitch": 81,
                "velocity": 40,
                "duration": 0.09999999999999432,
                "tempo": 120.0
            },
            {
                "start_time": 90.20681818181818,
                "end_time": 90.30681818181817,
                "pitch": 84,
                "velocity": 40,
                "duration": 0.09999999999999432,
                "tempo": 120.0
            },
            {
                "start_time": 90.3090909090909,
                "end_time": 90.40681818181818,
                "pitch": 83,
                "velocity": 40,
                "duration": 0.09772727272728332,
                "tempo": 120.0
            },
            {
                "start_time": 90.4090909090909,
                "end_time": 90.5090909090909,
                "pitch": 84,
                "velocity": 40,
                "duration": 0.09999999999999432,
                "tempo": 120.0
            },
            {
                "start_time": 90.5090909090909,
                "end_time": 90.60909090909091,
                "pitch": 81,
                "velocity": 40,
                "duration": 0.10000000000000853,
                "tempo": 120.0
            },
            {
                "start_time": 90.61136363636363,
                "end_time": 90.7090909090909,
                "pitch": 84,
                "velocity": 40,
                "duration": 0.09772727272726911,
                "tempo": 120.0
            },
            {
                "start_time": 90.71136363636363,
                "end_time": 90.81136363636364,
                "pitch": 83,
                "velocity": 40,
                "duration": 0.10000000000000853,
                "tempo": 120.0
            },
            {
                "start_time": 90.81363636363636,
                "end_time": 90.91136363636363,
                "pitch": 84,
                "velocity": 40,
                "duration": 0.09772727272726911,
                "tempo": 120.0
            },
            {
                "start_time": 90.91363636363636,
                "end_time": 91.01136363636363,
                "pitch": 81,
                "velocity": 40,
                "duration": 0.09772727272726911,
                "tempo": 120.0
            },
            {
                "start_time": 91.01363636363637,
                "end_time": 91.11136363636363,
                "pitch": 84,
                "velocity": 40,
                "duration": 0.09772727272726911,
                "tempo": 120.0
            },
            {
                "start_time": 91.11363636363636,
                "end_time": 91.21136363636363,
                "pitch": 83,
                "velocity": 40,
                "duration": 0.09772727272726911,
                "tempo": 120.0
            },
            {
                "start_time": 91.21363636363635,
                "end_time": 91.31136363636364,
                "pitch": 84,
                "velocity": 40,
                "duration": 0.09772727272728332,
                "tempo": 120.0
            },
            {
                "start_time": 91.31363636363636,
                "end_time": 91.41363636363636,
                "pitch": 81,
                "velocity": 40,
                "duration": 0.09999999999999432,
                "tempo": 120.0
            },
            {
                "start_time": 91.41363636363636,
                "end_time": 91.51363636363637,
                "pitch": 84,
                "velocity": 40,
                "duration": 0.10000000000000853,
                "tempo": 120.0
            },
            {
                "start_time": 91.51590909090909,
                "end_time": 91.61363636363636,
                "pitch": 83,
                "velocity": 40,
                "duration": 0.09772727272726911,
                "tempo": 120.0
            },
            {
                "start_time": 91.61590909090908,
                "end_time": 91.7159090909091,
                "pitch": 84,
                "velocity": 40,
                "duration": 0.10000000000000853,
                "tempo": 120.0
            },
            {
                "start_time": 91.7159090909091,
                "end_time": 91.81590909090909,
                "pitch": 81,
                "velocity": 40,
                "duration": 0.09999999999999432,
                "tempo": 120.0
            },
            {
                "start_time": 91.81818181818181,
                "end_time": 91.91590909090908,
                "pitch": 84,
                "velocity": 40,
                "duration": 0.09772727272726911,
                "tempo": 120.0
            },
            {
                "start_time": 91.91818181818181,
                "end_time": 92.01590909090909,
                "pitch": 83,
                "velocity": 40,
                "duration": 0.09772727272728332,
                "tempo": 120.0
            },
            {
                "start_time": 92.01818181818182,
                "end_time": 92.11590909090908,
                "pitch": 84,
                "velocity": 40,
                "duration": 0.09772727272726911,
                "tempo": 120.0
            },
            {
                "start_time": 92.11818181818181,
                "end_time": 92.2159090909091,
                "pitch": 81,
                "velocity": 40,
                "duration": 0.09772727272728332,
                "tempo": 120.0
            },
            {
                "start_time": 92.21818181818182,
                "end_time": 92.31818181818181,
                "pitch": 84,
                "velocity": 40,
                "duration": 0.09999999999999432,
                "tempo": 120.0
            },
            {
                "start_time": 92.31818181818181,
                "end_time": 92.41818181818181,
                "pitch": 83,
                "velocity": 40,
                "duration": 0.09999999999999432,
                "tempo": 120.0
            },
            {
                "start_time": 92.42045454545455,
                "end_time": 92.51818181818182,
                "pitch": 84,
                "velocity": 40,
                "duration": 0.09772727272726911,
                "tempo": 120.0
            },
            {
                "start_time": 92.52045454545454,
                "end_time": 92.62045454545454,
                "pitch": 81,
                "velocity": 40,
                "duration": 0.09999999999999432,
                "tempo": 120.0
            },
            {
                "start_time": 92.62272727272727,
                "end_time": 92.72045454545454,
                "pitch": 84,
                "velocity": 40,
                "duration": 0.09772727272726911,
                "tempo": 120.0
            },
            {
                "start_time": 92.72272727272727,
                "end_time": 92.82272727272726,
                "pitch": 83,
                "velocity": 40,
                "duration": 0.09999999999999432,
                "tempo": 120.0
            },
            {
                "start_time": 92.82272727272726,
                "end_time": 92.92272727272727,
                "pitch": 84,
                "velocity": 40,
                "duration": 0.10000000000000853,
                "tempo": 120.0
            },
            {
                "start_time": 92.925,
                "end_time": 93.02272727272727,
                "pitch": 81,
                "velocity": 40,
                "duration": 0.09772727272726911,
                "tempo": 120.0
            },
            {
                "start_time": 93.02499999999999,
                "end_time": 93.12272727272727,
                "pitch": 84,
                "velocity": 40,
                "duration": 0.09772727272728332,
                "tempo": 120.0
            },
            {
                "start_time": 93.125,
                "end_time": 93.22272727272727,
                "pitch": 83,
                "velocity": 40,
                "duration": 0.09772727272726911,
                "tempo": 120.0
            },
            {
                "start_time": 93.225,
                "end_time": 93.32272727272726,
                "pitch": 84,
                "velocity": 40,
                "duration": 0.09772727272726911,
                "tempo": 120.0
            },
            {
                "start_time": 93.32499999999999,
                "end_time": 93.42272727272727,
                "pitch": 81,
                "velocity": 40,
                "duration": 0.09772727272728332,
                "tempo": 120.0
            },
            {
                "start_time": 93.425,
                "end_time": 93.52499999999999,
                "pitch": 84,
                "velocity": 40,
                "duration": 0.09999999999999432,
                "tempo": 120.0
            },
            {
                "start_time": 93.52499999999999,
                "end_time": 93.625,
                "pitch": 83,
                "velocity": 40,
                "duration": 0.10000000000000853,
                "tempo": 120.0
            },
            {
                "start_time": 93.62727272727273,
                "end_time": 93.725,
                "pitch": 84,
                "velocity": 40,
                "duration": 0.09772727272726911,
                "tempo": 120.0
            },
            {
                "start_time": 93.72727272727272,
                "end_time": 93.82727272727273,
                "pitch": 81,
                "velocity": 40,
                "duration": 0.10000000000000853,
                "tempo": 120.0
            },
            {
                "start_time": 93.82727272727273,
                "end_time": 93.92727272727272,
                "pitch": 84,
                "velocity": 40,
                "duration": 0.09999999999999432,
                "tempo": 120.0
            },
            {
                "start_time": 93.92727272727272,
                "end_time": 94.02727272727272,
                "pitch": 83,
                "velocity": 40,
                "duration": 0.09999999999999432,
                "tempo": 120.0
            },
            {
                "start_time": 94.02727272727272,
                "end_time": 94.12727272727273,
                "pitch": 84,
                "velocity": 40,
                "duration": 0.10000000000000853,
                "tempo": 120.0
            },
            {
                "start_time": 94.12727272727273,
                "end_time": 94.22727272727272,
                "pitch": 81,
                "velocity": 40,
                "duration": 0.09999999999999432,
                "tempo": 120.0
            },
            {
                "start_time": 94.22954545454544,
                "end_time": 94.32727272727273,
                "pitch": 84,
                "velocity": 40,
                "duration": 0.09772727272728332,
                "tempo": 120.0
            },
            {
                "start_time": 94.32954545454545,
                "end_time": 94.42954545454545,
                "pitch": 83,
                "velocity": 40,
                "duration": 0.09999999999999432,
                "tempo": 120.0
            },
            {
                "start_time": 94.42954545454545,
                "end_time": 94.52954545454546,
                "pitch": 84,
                "velocity": 40,
                "duration": 0.10000000000000853,
                "tempo": 120.0
            },
            {
                "start_time": 94.53181818181818,
                "end_time": 94.62954545454545,
                "pitch": 81,
                "velocity": 40,
                "duration": 0.09772727272726911,
                "tempo": 120.0
            },
            {
                "start_time": 94.63181818181818,
                "end_time": 94.73181818181818,
                "pitch": 84,
                "velocity": 40,
                "duration": 0.10000000000000853,
                "tempo": 120.0
            },
            {
                "start_time": 94.73181818181818,
                "end_time": 94.83181818181818,
                "pitch": 83,
                "velocity": 40,
                "duration": 0.09999999999999432,
                "tempo": 120.0
            },
            {
                "start_time": 94.8340909090909,
                "end_time": 94.9340909090909,
                "pitch": 84,
                "velocity": 40,
                "duration": 0.09999999999999432,
                "tempo": 120.0
            },
            {
                "start_time": 94.9340909090909,
                "end_time": 95.03636363636363,
                "pitch": 81,
                "velocity": 40,
                "duration": 0.10227272727273373,
                "tempo": 120.0
            },
            {
                "start_time": 95.03636363636363,
                "end_time": 95.13863636363637,
                "pitch": 84,
                "velocity": 40,
                "duration": 0.10227272727273373,
                "tempo": 120.0
            },
            {
                "start_time": 95.14090909090909,
                "end_time": 95.24090909090908,
                "pitch": 83,
                "velocity": 40,
                "duration": 0.09999999999999432,
                "tempo": 120.0
            },
            {
                "start_time": 95.24318181818181,
                "end_time": 95.34318181818182,
                "pitch": 84,
                "velocity": 40,
                "duration": 0.10000000000000853,
                "tempo": 120.0
            },
            {
                "start_time": 95.34545454545454,
                "end_time": 95.44545454545454,
                "pitch": 81,
                "velocity": 40,
                "duration": 0.09999999999999432,
                "tempo": 120.0
            },
            {
                "start_time": 95.44545454545454,
                "end_time": 95.54545454545455,
                "pitch": 84,
                "velocity": 40,
                "duration": 0.10000000000000853,
                "tempo": 120.0
            },
            {
                "start_time": 95.54545454545455,
                "end_time": 95.64545454545454,
                "pitch": 83,
                "velocity": 40,
                "duration": 0.09999999999999432,
                "tempo": 120.0
            },
            {
                "start_time": 95.64772727272727,
                "end_time": 95.74545454545454,
                "pitch": 84,
                "velocity": 40,
                "duration": 0.09772727272726911,
                "tempo": 120.0
            },
            {
                "start_time": 95.74772727272727,
                "end_time": 95.84318181818182,
                "pitch": 81,
                "velocity": 40,
                "duration": 0.0954545454545439,
                "tempo": 120.0
            },
            {
                "start_time": 95.84545454545454,
                "end_time": 95.94090909090909,
                "pitch": 84,
                "velocity": 40,
                "duration": 0.0954545454545439,
                "tempo": 120.0
            },
            {
                "start_time": 95.94318181818181,
                "end_time": 96.04090909090908,
                "pitch": 83,
                "velocity": 40,
                "duration": 0.09772727272726911,
                "tempo": 120.0
            },
            {
                "start_time": 96.04090909090908,
                "end_time": 96.13863636363637,
                "pitch": 84,
                "velocity": 40,
                "duration": 0.09772727272728332,
                "tempo": 120.0
            },
            {
                "start_time": 96.13863636363637,
                "end_time": 96.24090909090908,
                "pitch": 81,
                "velocity": 40,
                "duration": 0.10227272727271952,
                "tempo": 120.0
            },
            {
                "start_time": 96.24090909090908,
                "end_time": 96.34318181818182,
                "pitch": 84,
                "velocity": 40,
                "duration": 0.10227272727273373,
                "tempo": 120.0
            },
            {
                "start_time": 96.34318181818182,
                "end_time": 96.44545454545454,
                "pitch": 83,
                "velocity": 40,
                "duration": 0.10227272727271952,
                "tempo": 120.0
            },
            {
                "start_time": 96.44772727272726,
                "end_time": 96.54772727272727,
                "pitch": 84,
                "velocity": 40,
                "duration": 0.10000000000000853,
                "tempo": 120.0
            },
            {
                "start_time": 96.55,
                "end_time": 96.64772727272727,
                "pitch": 79,
                "velocity": 40,
                "duration": 0.09772727272726911,
                "tempo": 120.0
            },
            {
                "start_time": 96.64772727272727,
                "end_time": 96.74545454545454,
                "pitch": 84,
                "velocity": 40,
                "duration": 0.09772727272726911,
                "tempo": 120.0
            },
            {
                "start_time": 96.74772727272727,
                "end_time": 96.84318181818182,
                "pitch": 83,
                "velocity": 40,
                "duration": 0.0954545454545439,
                "tempo": 120.0
            },
            {
                "start_time": 96.84545454545454,
                "end_time": 96.94090909090909,
                "pitch": 84,
                "velocity": 40,
                "duration": 0.0954545454545439,
                "tempo": 120.0
            },
            {
                "start_time": 96.94318181818181,
                "end_time": 97.04318181818181,
                "pitch": 79,
                "velocity": 40,
                "duration": 0.09999999999999432,
                "tempo": 120.0
            },
            {
                "start_time": 97.04545454545455,
                "end_time": 97.14545454545454,
                "pitch": 84,
                "velocity": 40,
                "duration": 0.09999999999999432,
                "tempo": 120.0
            },
            {
                "start_time": 97.14772727272727,
                "end_time": 97.25,
                "pitch": 83,
                "velocity": 40,
                "duration": 0.10227272727273373,
                "tempo": 120.0
            },
            {
                "start_time": 97.25,
                "end_time": 97.35227272727272,
                "pitch": 84,
                "velocity": 40,
                "duration": 0.10227272727271952,
                "tempo": 120.0
            },
            {
                "start_time": 97.35454545454544,
                "end_time": 97.44999999999999,
                "pitch": 79,
                "velocity": 40,
                "duration": 0.0954545454545439,
                "tempo": 120.0
            },
            {
                "start_time": 97.45227272727273,
                "end_time": 97.55,
                "pitch": 84,
                "velocity": 40,
                "duration": 0.09772727272726911,
                "tempo": 120.0
            },
            {
                "start_time": 97.55,
                "end_time": 97.64772727272727,
                "pitch": 83,
                "velocity": 40,
                "duration": 0.09772727272726911,
                "tempo": 120.0
            },
            {
                "start_time": 97.64772727272727,
                "end_time": 97.74545454545454,
                "pitch": 84,
                "velocity": 40,
                "duration": 0.09772727272726911,
                "tempo": 120.0
            },
            {
                "start_time": 97.74772727272727,
                "end_time": 97.84772727272727,
                "pitch": 79,
                "velocity": 40,
                "duration": 0.09999999999999432,
                "tempo": 120.0
            },
            {
                "start_time": 97.85,
                "end_time": 97.94999999999999,
                "pitch": 84,
                "velocity": 40,
                "duration": 0.09999999999999432,
                "tempo": 120.0
            },
            {
                "start_time": 97.95227272727273,
                "end_time": 98.05227272727272,
                "pitch": 83,
                "velocity": 40,
                "duration": 0.09999999999999432,
                "tempo": 120.0
            },
            {
                "start_time": 98.05454545454545,
                "end_time": 98.15681818181818,
                "pitch": 84,
                "velocity": 40,
                "duration": 0.10227272727273373,
                "tempo": 120.0
            },
            {
                "start_time": 98.15681818181818,
                "end_time": 98.25681818181818,
                "pitch": 80,
                "velocity": 40,
                "duration": 0.09999999999999432,
                "tempo": 120.0
            },
            {
                "start_time": 98.2590909090909,
                "end_time": 98.35909090909091,
                "pitch": 86,
                "velocity": 40,
                "duration": 0.10000000000000853,
                "tempo": 120.0
            },
            {
                "start_time": 98.35909090909091,
                "end_time": 98.4590909090909,
                "pitch": 83,
                "velocity": 40,
                "duration": 0.09999999999999432,
                "tempo": 120.0
            },
            {
                "start_time": 98.46136363636363,
                "end_time": 98.5590909090909,
                "pitch": 86,
                "velocity": 40,
                "duration": 0.09772727272726911,
                "tempo": 120.0
            },
            {
                "start_time": 98.56136363636364,
                "end_time": 98.6590909090909,
                "pitch": 80,
                "velocity": 40,
                "duration": 0.09772727272726911,
                "tempo": 120.0
            },
            {
                "start_time": 98.66136363636363,
                "end_time": 98.7590909090909,
                "pitch": 86,
                "velocity": 40,
                "duration": 0.09772727272726911,
                "tempo": 120.0
            },
            {
                "start_time": 98.76136363636363,
                "end_time": 98.85909090909091,
                "pitch": 83,
                "velocity": 40,
                "duration": 0.09772727272728332,
                "tempo": 120.0
            },
            {
                "start_time": 98.86136363636363,
                "end_time": 98.96136363636363,
                "pitch": 86,
                "velocity": 40,
                "duration": 0.09999999999999432,
                "tempo": 120.0
            },
            {
                "start_time": 98.96136363636363,
                "end_time": 99.06136363636364,
                "pitch": 80,
                "velocity": 40,
                "duration": 0.10000000000000853,
                "tempo": 120.0
            },
            {
                "start_time": 99.06363636363636,
                "end_time": 99.16136363636363,
                "pitch": 86,
                "velocity": 40,
                "duration": 0.09772727272726911,
                "tempo": 120.0
            },
            {
                "start_time": 99.16363636363636,
                "end_time": 99.26363636363637,
                "pitch": 83,
                "velocity": 40,
                "duration": 0.10000000000000853,
                "tempo": 120.0
            },
            {
                "start_time": 99.26363636363637,
                "end_time": 99.36363636363636,
                "pitch": 86,
                "velocity": 40,
                "duration": 0.09999999999999432,
                "tempo": 120.0
            },
            {
                "start_time": 99.36590909090908,
                "end_time": 99.46363636363635,
                "pitch": 80,
                "velocity": 40,
                "duration": 0.09772727272726911,
                "tempo": 120.0
            },
            {
                "start_time": 99.46590909090908,
                "end_time": 99.56363636363636,
                "pitch": 86,
                "velocity": 40,
                "duration": 0.09772727272728332,
                "tempo": 120.0
            },
            {
                "start_time": 99.56590909090909,
                "end_time": 99.66363636363636,
                "pitch": 83,
                "velocity": 40,
                "duration": 0.09772727272726911,
                "tempo": 120.0
            },
            {
                "start_time": 99.66590909090908,
                "end_time": 99.76363636363637,
                "pitch": 86,
                "velocity": 40,
                "duration": 0.09772727272728332,
                "tempo": 120.0
            },
            {
                "start_time": 99.76590909090909,
                "end_time": 99.86363636363636,
                "pitch": 80,
                "velocity": 40,
                "duration": 0.09772727272726911,
                "tempo": 120.0
            },
            {
                "start_time": 99.86590909090908,
                "end_time": 99.96590909090908,
                "pitch": 86,
                "velocity": 40,
                "duration": 0.09999999999999432,
                "tempo": 120.0
            },
            {
                "start_time": 99.96590909090908,
                "end_time": 100.06590909090909,
                "pitch": 83,
                "velocity": 40,
                "duration": 0.10000000000000853,
                "tempo": 120.0
            },
            {
                "start_time": 100.06818181818181,
                "end_time": 100.16590909090908,
                "pitch": 86,
                "velocity": 40,
                "duration": 0.09772727272726911,
                "tempo": 120.0
            },
            {
                "start_time": 100.16818181818181,
                "end_time": 100.26818181818182,
                "pitch": 80,
                "velocity": 40,
                "duration": 0.10000000000000853,
                "tempo": 120.0
            },
            {
                "start_time": 100.27045454545454,
                "end_time": 100.36818181818181,
                "pitch": 86,
                "velocity": 40,
                "duration": 0.09772727272726911,
                "tempo": 120.0
            },
            {
                "start_time": 100.37045454545454,
                "end_time": 100.47045454545454,
                "pitch": 83,
                "velocity": 40,
                "duration": 0.10000000000000853,
                "tempo": 120.0
            },
            {
                "start_time": 100.47045454545454,
                "end_time": 100.57045454545454,
                "pitch": 86,
                "velocity": 40,
                "duration": 0.09999999999999432,
                "tempo": 120.0
            },
            {
                "start_time": 100.57272727272726,
                "end_time": 100.67045454545455,
                "pitch": 80,
                "velocity": 40,
                "duration": 0.09772727272728332,
                "tempo": 120.0
            },
            {
                "start_time": 100.67272727272727,
                "end_time": 100.77045454545454,
                "pitch": 86,
                "velocity": 40,
                "duration": 0.09772727272726911,
                "tempo": 120.0
            },
            {
                "start_time": 100.77272727272727,
                "end_time": 100.87045454545454,
                "pitch": 83,
                "velocity": 40,
                "duration": 0.09772727272726911,
                "tempo": 120.0
            },
            {
                "start_time": 100.87272727272727,
                "end_time": 100.97045454545454,
                "pitch": 86,
                "velocity": 40,
                "duration": 0.09772727272726911,
                "tempo": 120.0
            },
            {
                "start_time": 100.97272727272727,
                "end_time": 101.07045454545454,
                "pitch": 80,
                "velocity": 40,
                "duration": 0.09772727272726911,
                "tempo": 120.0
            },
            {
                "start_time": 101.07272727272726,
                "end_time": 101.17272727272727,
                "pitch": 86,
                "velocity": 40,
                "duration": 0.10000000000000853,
                "tempo": 120.0
            },
            {
                "start_time": 101.17272727272727,
                "end_time": 101.27272727272727,
                "pitch": 83,
                "velocity": 40,
                "duration": 0.09999999999999432,
                "tempo": 120.0
            },
            {
                "start_time": 101.27499999999999,
                "end_time": 101.375,
                "pitch": 86,
                "velocity": 40,
                "duration": 0.10000000000000853,
                "tempo": 120.0
            },
            {
                "start_time": 101.375,
                "end_time": 101.39545454545454,
                "pitch": 86,
                "velocity": 40,
                "duration": 0.020454545454541062,
                "tempo": 120.0
            },
            {
                "start_time": 177.13636363636363,
                "end_time": 177.23636363636362,
                "pitch": 81,
                "velocity": 40,
                "duration": 0.09999999999999432,
                "tempo": 120.0
            },
            {
                "start_time": 177.23636363636362,
                "end_time": 177.33636363636361,
                "pitch": 84,
                "velocity": 40,
                "duration": 0.09999999999999432,
                "tempo": 120.0
            },
            {
                "start_time": 177.33863636363637,
                "end_time": 177.43636363636364,
                "pitch": 83,
                "velocity": 40,
                "duration": 0.09772727272726911,
                "tempo": 120.0
            },
            {
                "start_time": 177.43863636363636,
                "end_time": 177.53863636363636,
                "pitch": 84,
                "velocity": 40,
                "duration": 0.09999999999999432,
                "tempo": 120.0
            },
            {
                "start_time": 177.53863636363636,
                "end_time": 177.64090909090908,
                "pitch": 81,
                "velocity": 40,
                "duration": 0.10227272727271952,
                "tempo": 120.0
            },
            {
                "start_time": 177.6431818181818,
                "end_time": 177.7431818181818,
                "pitch": 84,
                "velocity": 40,
                "duration": 0.09999999999999432,
                "tempo": 120.0
            },
            {
                "start_time": 177.74545454545455,
                "end_time": 177.84545454545454,
                "pitch": 83,
                "velocity": 40,
                "duration": 0.09999999999999432,
                "tempo": 120.0
            },
            {
                "start_time": 177.84772727272727,
                "end_time": 177.95,
                "pitch": 84,
                "velocity": 40,
                "duration": 0.10227272727271952,
                "tempo": 120.0
            },
            {
                "start_time": 177.95,
                "end_time": 178.04772727272726,
                "pitch": 81,
                "velocity": 40,
                "duration": 0.09772727272726911,
                "tempo": 120.0
            },
            {
                "start_time": 178.04999999999998,
                "end_time": 178.14545454545453,
                "pitch": 84,
                "velocity": 40,
                "duration": 0.0954545454545439,
                "tempo": 120.0
            },
            {
                "start_time": 178.14772727272725,
                "end_time": 178.2431818181818,
                "pitch": 83,
                "velocity": 40,
                "duration": 0.0954545454545439,
                "tempo": 120.0
            },
            {
                "start_time": 178.24545454545455,
                "end_time": 178.34318181818182,
                "pitch": 84,
                "velocity": 40,
                "duration": 0.09772727272726911,
                "tempo": 120.0
            },
            {
                "start_time": 178.34318181818182,
                "end_time": 178.4431818181818,
                "pitch": 81,
                "velocity": 40,
                "duration": 0.09999999999999432,
                "tempo": 120.0
            },
            {
                "start_time": 178.44545454545454,
                "end_time": 178.54772727272726,
                "pitch": 84,
                "velocity": 40,
                "duration": 0.10227272727271952,
                "tempo": 120.0
            },
            {
                "start_time": 178.54772727272726,
                "end_time": 178.64999999999998,
                "pitch": 83,
                "velocity": 40,
                "duration": 0.10227272727271952,
                "tempo": 120.0
            },
            {
                "start_time": 178.65227272727273,
                "end_time": 178.75227272727273,
                "pitch": 84,
                "velocity": 40,
                "duration": 0.09999999999999432,
                "tempo": 120.0
            },
            {
                "start_time": 178.75454545454545,
                "end_time": 178.85454545454544,
                "pitch": 81,
                "velocity": 40,
                "duration": 0.09999999999999432,
                "tempo": 120.0
            },
            {
                "start_time": 178.85454545454544,
                "end_time": 178.95454545454544,
                "pitch": 84,
                "velocity": 40,
                "duration": 0.09999999999999432,
                "tempo": 120.0
            },
            {
                "start_time": 178.95681818181816,
                "end_time": 179.05454545454543,
                "pitch": 83,
                "velocity": 40,
                "duration": 0.09772727272726911,
                "tempo": 120.0
            },
            {
                "start_time": 179.0568181818182,
                "end_time": 179.15681818181818,
                "pitch": 84,
                "velocity": 40,
                "duration": 0.09999999999999432,
                "tempo": 120.0
            },
            {
                "start_time": 179.1590909090909,
                "end_time": 179.25681818181818,
                "pitch": 81,
                "velocity": 40,
                "duration": 0.09772727272726911,
                "tempo": 120.0
            },
            {
                "start_time": 179.2590909090909,
                "end_time": 179.35681818181817,
                "pitch": 84,
                "velocity": 40,
                "duration": 0.09772727272726911,
                "tempo": 120.0
            },
            {
                "start_time": 179.3590909090909,
                "end_time": 179.4590909090909,
                "pitch": 83,
                "velocity": 40,
                "duration": 0.09999999999999432,
                "tempo": 120.0
            },
            {
                "start_time": 179.46136363636361,
                "end_time": 179.5590909090909,
                "pitch": 84,
                "velocity": 40,
                "duration": 0.09772727272729753,
                "tempo": 120.0
            },
            {
                "start_time": 179.56136363636364,
                "end_time": 179.66136363636363,
                "pitch": 81,
                "velocity": 40,
                "duration": 0.09999999999999432,
                "tempo": 120.0
            },
            {
                "start_time": 179.66136363636363,
                "end_time": 179.76136363636363,
                "pitch": 84,
                "velocity": 40,
                "duration": 0.09999999999999432,
                "tempo": 120.0
            },
            {
                "start_time": 179.76363636363635,
                "end_time": 179.86136363636362,
                "pitch": 83,
                "velocity": 40,
                "duration": 0.09772727272726911,
                "tempo": 120.0
            },
            {
                "start_time": 179.86363636363635,
                "end_time": 179.96363636363637,
                "pitch": 84,
                "velocity": 40,
                "duration": 0.10000000000002274,
                "tempo": 120.0
            }
        ],
        "Trumpet": [
            {
                "start_time": 12.913636363636362,
                "end_time": 12.927272727272726,
                "pitch": 69,
                "velocity": 4,
                "duration": 0.013636363636363669,
                "tempo": 120.0
            },
            {
                "start_time": 12.929545454545455,
                "end_time": 13.095454545454546,
                "pitch": 69,
                "velocity": 80,
                "duration": 0.165909090909091,
                "tempo": 120.0
            },
            {
                "start_time": 13.097727272727273,
                "end_time": 13.295454545454545,
                "pitch": 67,
                "velocity": 80,
                "duration": 0.1977272727272723,
                "tempo": 120.0
            },
            {
                "start_time": 13.297727272727272,
                "end_time": 13.497727272727271,
                "pitch": 69,
                "velocity": 80,
                "duration": 0.1999999999999993,
                "tempo": 120.0
            },
            {
                "start_time": 13.5,
                "end_time": 13.902272727272727,
                "pitch": 71,
                "velocity": 80,
                "duration": 0.40227272727272734,
                "tempo": 120.0
            },
            {
                "start_time": 13.904545454545454,
                "end_time": 13.936363636363636,
                "pitch": 70,
                "velocity": 80,
                "duration": 0.0318181818181813,
                "tempo": 120.0
            },
            {
                "start_time": 13.936363636363636,
                "end_time": 13.970454545454544,
                "pitch": 66,
                "velocity": 80,
                "duration": 0.034090909090908283,
                "tempo": 120.0
            },
            {
                "start_time": 13.970454545454544,
                "end_time": 14.304545454545455,
                "pitch": 64,
                "velocity": 80,
                "duration": 0.33409090909091077,
                "tempo": 120.0
            },
            {
                "start_time": 14.306818181818182,
                "end_time": 14.322727272727272,
                "pitch": 66,
                "velocity": 80,
                "duration": 0.01590909090909065,
                "tempo": 120.0
            },
            {
                "start_time": 14.322727272727272,
                "end_time": 14.35681818181818,
                "pitch": 68,
                "velocity": 80,
                "duration": 0.034090909090908283,
                "tempo": 120.0
            },
            {
                "start_time": 14.35681818181818,
                "end_time": 14.39090909090909,
                "pitch": 72,
                "velocity": 80,
                "duration": 0.03409090909091006,
                "tempo": 120.0
            },
            {
                "start_time": 14.39090909090909,
                "end_time": 14.906818181818181,
                "pitch": 76,
                "velocity": 80,
                "duration": 0.5159090909090907,
                "tempo": 120.0
            },
            {
                "start_time": 14.909090909090908,
                "end_time": 15.309090909090909,
                "pitch": 74,
                "velocity": 80,
                "duration": 0.40000000000000036,
                "tempo": 120.0
            },
            {
                "start_time": 15.311363636363636,
                "end_time": 15.511363636363635,
                "pitch": 72,
                "velocity": 80,
                "duration": 0.1999999999999993,
                "tempo": 120.0
            },
            {
                "start_time": 15.513636363636364,
                "end_time": 16.11590909090909,
                "pitch": 74,
                "velocity": 80,
                "duration": 0.6022727272727249,
                "tempo": 120.0
            },
            {
                "start_time": 16.118181818181817,
                "end_time": 16.720454545454544,
                "pitch": 72,
                "velocity": 80,
                "duration": 0.6022727272727266,
                "tempo": 120.0
            },
            {
                "start_time": 16.722727272727273,
                "end_time": 17.32272727272727,
                "pitch": 71,
                "velocity": 80,
                "duration": 0.5999999999999979,
                "tempo": 120.0
            },
            {
                "start_time": 17.325,
                "end_time": 19.33863636363636,
                "pitch": 69,
                "velocity": 80,
                "duration": 2.013636363636362,
                "tempo": 120.0
            },
            {
                "start_time": 19.34090909090909,
                "end_time": 19.54090909090909,
                "pitch": 71,
                "velocity": 80,
                "duration": 0.1999999999999993,
                "tempo": 120.0
            },
            {
                "start_time": 19.543181818181818,
                "end_time": 19.743181818181817,
                "pitch": 69,
                "velocity": 80,
                "duration": 0.1999999999999993,
                "tempo": 120.0
            },
            {
                "start_time": 19.745454545454546,
                "end_time": 19.943181818181817,
                "pitch": 71,
                "velocity": 80,
                "duration": 0.19772727272727053,
                "tempo": 120.0
            },
            {
                "start_time": 19.945454545454545,
                "end_time": 20.34318181818182,
                "pitch": 73,
                "velocity": 80,
                "duration": 0.3977272727272734,
                "tempo": 120.0
            },
            {
                "start_time": 20.345454545454544,
                "end_time": 20.377272727272725,
                "pitch": 72,
                "velocity": 80,
                "duration": 0.0318181818181813,
                "tempo": 120.0
            },
            {
                "start_time": 20.377272727272725,
                "end_time": 20.663636363636364,
                "pitch": 68,
                "velocity": 80,
                "duration": 0.2863636363636388,
                "tempo": 120.0
            },
            {
                "start_time": 20.663636363636364,
                "end_time": 20.695454545454545,
                "pitch": 67,
                "velocity": 80,
                "duration": 0.0318181818181813,
                "tempo": 120.0
            },
            {
                "start_time": 20.695454545454545,
                "end_time": 20.745454545454546,
                "pitch": 67,
                "velocity": 80,
                "duration": 0.05000000000000071,
                "tempo": 120.0
            },
            {
                "start_time": 20.74772727272727,
                "end_time": 20.779545454545453,
                "pitch": 69,
                "velocity": 80,
                "duration": 0.0318181818181813,
                "tempo": 120.0
            },
            {
                "start_time": 20.779545454545453,
                "end_time": 20.813636363636363,
                "pitch": 73,
                "velocity": 80,
                "duration": 0.03409090909091006,
                "tempo": 120.0
            },
            {
                "start_time": 20.813636363636363,
                "end_time": 20.847727272727273,
                "pitch": 77,
                "velocity": 80,
                "duration": 0.03409090909091006,
                "tempo": 120.0
            },
            {
                "start_time": 20.663636363636364,
                "end_time": 21.06590909090909,
                "pitch": 79,
                "velocity": 80,
                "duration": 0.40227272727272734,
                "tempo": 120.0
            },
            {
                "start_time": 20.847727272727273,
                "end_time": 21.06590909090909,
                "pitch": 79,
                "velocity": 80,
                "duration": 0.2181818181818187,
                "tempo": 120.0
            },
            {
                "start_time": 20.847727272727273,
                "end_time": 21.11590909090909,
                "pitch": 67,
                "velocity": 80,
                "duration": 0.26818181818181586,
                "tempo": 120.0
            },
            {
                "start_time": 21.06590909090909,
                "end_time": 21.11590909090909,
                "pitch": 79,
                "velocity": 80,
                "duration": 0.04999999999999716,
                "tempo": 120.0
            },
            {
                "start_time": 21.11590909090909,
                "end_time": 21.24772727272727,
                "pitch": 79,
                "velocity": 80,
                "duration": 0.13181818181818272,
                "tempo": 120.0
            },
            {
                "start_time": 21.06590909090909,
                "end_time": 21.24772727272727,
                "pitch": 91,
                "velocity": 80,
                "duration": 0.18181818181817988,
                "tempo": 120.0
            },
            {
                "start_time": 21.11590909090909,
                "end_time": 21.31590909090909,
                "pitch": 67,
                "velocity": 80,
                "duration": 0.20000000000000284,
                "tempo": 120.0
            },
            {
                "start_time": 21.24772727272727,
                "end_time": 21.31590909090909,
                "pitch": 79,
                "velocity": 80,
                "duration": 0.06818181818182012,
                "tempo": 120.0
            },
            {
                "start_time": 21.31590909090909,
                "end_time": 21.347727272727273,
                "pitch": 79,
                "velocity": 80,
                "duration": 0.0318181818181813,
                "tempo": 120.0
            },
            {
                "start_time": 21.349999999999998,
                "end_time": 21.75,
                "pitch": 77,
                "velocity": 80,
                "duration": 0.40000000000000213,
                "tempo": 120.0
            },
            {
                "start_time": 21.752272727272725,
                "end_time": 21.95,
                "pitch": 76,
                "velocity": 80,
                "duration": 0.19772727272727408,
                "tempo": 120.0
            },
            {
                "start_time": 21.952272727272724,
                "end_time": 22.552272727272726,
                "pitch": 77,
                "velocity": 80,
                "duration": 0.6000000000000014,
                "tempo": 120.0
            },
            {
                "start_time": 22.554545454545455,
                "end_time": 25.76590909090909,
                "pitch": 76,
                "velocity": 80,
                "duration": 3.211363636363636,
                "tempo": 120.0
            },
            {
                "start_time": 25.768181818181816,
                "end_time": 25.972727272727273,
                "pitch": 74,
                "velocity": 80,
                "duration": 0.2045454545454568,
                "tempo": 120.0
            },
            {
                "start_time": 25.974999999999998,
                "end_time": 26.177272727272726,
                "pitch": 76,
                "velocity": 80,
                "duration": 0.20227272727272805,
                "tempo": 120.0
            },
            {
                "start_time": 26.179545454545455,
                "end_time": 26.379545454545454,
                "pitch": 77,
                "velocity": 80,
                "duration": 0.1999999999999993,
                "tempo": 120.0
            },
            {
                "start_time": 26.38181818181818,
                "end_time": 28.986363636363635,
                "pitch": 75,
                "velocity": 80,
                "duration": 2.6045454545454554,
                "tempo": 120.0
            },
            {
                "start_time": 28.988636363636363,
                "end_time": 29.188636363636363,
                "pitch": 72,
                "velocity": 80,
                "duration": 0.1999999999999993,
                "tempo": 120.0
            },
            {
                "start_time": 29.190909090909088,
                "end_time": 29.39090909090909,
                "pitch": 74,
                "velocity": 80,
                "duration": 0.20000000000000284,
                "tempo": 120.0
            },
            {
                "start_time": 29.393181818181816,
                "end_time": 29.59090909090909,
                "pitch": 76,
                "velocity": 80,
                "duration": 0.19772727272727408,
                "tempo": 120.0
            },
            {
                "start_time": 29.593181818181815,
                "end_time": 29.625,
                "pitch": 74,
                "velocity": 80,
                "duration": 0.031818181818184854,
                "tempo": 120.0
            },
            {
                "start_time": 29.625,
                "end_time": 32.20227272727273,
                "pitch": 72,
                "velocity": 80,
                "duration": 2.577272727272728,
                "tempo": 120.0
            },
            {
                "start_time": 32.20454545454545,
                "end_time": 33.81363636363636,
                "pitch": 70,
                "velocity": 80,
                "duration": 1.6090909090909093,
                "tempo": 120.0
            },
            {
                "start_time": 21.31590909090909,
                "end_time": 33.83409090909091,
                "pitch": 67,
                "velocity": 80,
                "duration": 12.51818181818182,
                "tempo": 120.0
            },
            {
                "start_time": 33.81590909090909,
                "end_time": 33.83409090909091,
                "pitch": 67,
                "velocity": 80,
                "duration": 0.018181818181822962,
                "tempo": 120.0
            },
            {
                "start_time": 33.83409090909091,
                "end_time": 34.01136363636363,
                "pitch": 65,
                "velocity": 80,
                "duration": 0.17727272727272236,
                "tempo": 120.0
            },
            {
                "start_time": 34.013636363636365,
                "end_time": 34.04545454545455,
                "pitch": 67,
                "velocity": 80,
                "duration": 0.0318181818181813,
                "tempo": 120.0
            },
            {
                "start_time": 34.04545454545455,
                "end_time": 34.413636363636364,
                "pitch": 69,
                "velocity": 80,
                "duration": 0.3681818181818173,
                "tempo": 120.0
            },
            {
                "start_time": 34.41590909090909,
                "end_time": 34.81818181818181,
                "pitch": 71,
                "velocity": 80,
                "duration": 0.4022727272727238,
                "tempo": 120.0
            },
            {
                "start_time": 34.820454545454545,
                "end_time": 35.220454545454544,
                "pitch": 71,
                "velocity": 80,
                "duration": 0.3999999999999986,
                "tempo": 120.0
            },
            {
                "start_time": 35.22272727272727,
                "end_time": 36.824999999999996,
                "pitch": 73,
                "velocity": 80,
                "duration": 1.6022727272727266,
                "tempo": 120.0
            },
            {
                "start_time": 36.82727272727273,
                "end_time": 38.62954545454545,
                "pitch": 72,
                "velocity": 80,
                "duration": 1.8022727272727224,
                "tempo": 120.0
            },
            {
                "start_time": 38.63181818181818,
                "end_time": 38.64772727272727,
                "pitch": 69,
                "velocity": 4,
                "duration": 0.01590909090909065,
                "tempo": 120.0
            },
            {
                "start_time": 38.65,
                "end_time": 38.81818181818181,
                "pitch": 69,
                "velocity": 80,
                "duration": 0.16818181818181444,
                "tempo": 120.0
            },
            {
                "start_time": 38.820454545454545,
                "end_time": 39.02272727272727,
                "pitch": 67,
                "velocity": 80,
                "duration": 0.20227272727272805,
                "tempo": 120.0
            },
            {
                "start_time": 39.025,
                "end_time": 39.220454545454544,
                "pitch": 69,
                "velocity": 80,
                "duration": 0.19545454545454533,
                "tempo": 120.0
            },
            {
                "start_time": 39.22272727272727,
                "end_time": 39.61590909090909,
                "pitch": 71,
                "velocity": 80,
                "duration": 0.39318181818182296,
                "tempo": 120.0
            },
            {
                "start_time": 39.61818181818182,
                "end_time": 39.652272727272724,
                "pitch": 70,
                "velocity": 80,
                "duration": 0.03409090909090651,
                "tempo": 120.0
            },
            {
                "start_time": 13.936363636363636,
                "end_time": 39.652272727272724,
                "pitch": 78,
                "velocity": 80,
                "duration": 25.715909090909086,
                "tempo": 120.0
            },
            {
                "start_time": 39.652272727272724,
                "end_time": 39.684090909090905,
                "pitch": 66,
                "velocity": 80,
                "duration": 0.0318181818181813,
                "tempo": 120.0
            },
            {
                "start_time": 39.684090909090905,
                "end_time": 40.018181818181816,
                "pitch": 64,
                "velocity": 80,
                "duration": 0.33409090909091077,
                "tempo": 120.0
            },
            {
                "start_time": 14.322727272727272,
                "end_time": 40.03636363636363,
                "pitch": 56,
                "velocity": 80,
                "duration": 25.71363636363636,
                "tempo": 120.0
            },
            {
                "start_time": 40.02045454545454,
                "end_time": 40.03636363636363,
                "pitch": 66,
                "velocity": 80,
                "duration": 0.01590909090909065,
                "tempo": 120.0
            },
            {
                "start_time": 40.03636363636363,
                "end_time": 40.06818181818181,
                "pitch": 68,
                "velocity": 80,
                "duration": 0.0318181818181813,
                "tempo": 120.0
            },
            {
                "start_time": 40.06818181818181,
                "end_time": 40.10227272727273,
                "pitch": 72,
                "velocity": 80,
                "duration": 0.03409090909091361,
                "tempo": 120.0
            },
            {
                "start_time": 40.10227272727273,
                "end_time": 40.61818181818182,
                "pitch": 76,
                "velocity": 80,
                "duration": 0.5159090909090907,
                "tempo": 120.0
            },
            {
                "start_time": 40.62045454545454,
                "end_time": 41.018181818181816,
                "pitch": 74,
                "velocity": 80,
                "duration": 0.3977272727272734,
                "tempo": 120.0
            },
            {
                "start_time": 41.02045454545454,
                "end_time": 41.220454545454544,
                "pitch": 72,
                "velocity": 80,
                "duration": 0.20000000000000284,
                "tempo": 120.0
            },
            {
                "start_time": 41.22272727272727,
                "end_time": 41.83181818181818,
                "pitch": 74,
                "velocity": 80,
                "duration": 0.6090909090909093,
                "tempo": 120.0
            },
            {
                "start_time": 41.834090909090904,
                "end_time": 42.43636363636364,
                "pitch": 72,
                "velocity": 80,
                "duration": 0.6022727272727337,
                "tempo": 120.0
            },
            {
                "start_time": 42.43863636363636,
                "end_time": 43.02954545454545,
                "pitch": 71,
                "velocity": 80,
                "duration": 0.5909090909090864,
                "tempo": 120.0
            },
            {
                "start_time": 43.03181818181818,
                "end_time": 45.04545454545455,
                "pitch": 69,
                "velocity": 80,
                "duration": 2.0136363636363654,
                "tempo": 120.0
            },
            {
                "start_time": 45.04772727272727,
                "end_time": 45.24545454545454,
                "pitch": 71,
                "velocity": 80,
                "duration": 0.19772727272727053,
                "tempo": 120.0
            },
            {
                "start_time": 45.24772727272727,
                "end_time": 45.445454545454545,
                "pitch": 69,
                "velocity": 80,
                "duration": 0.19772727272727764,
                "tempo": 120.0
            },
            {
                "start_time": 45.44772727272727,
                "end_time": 45.64772727272727,
                "pitch": 71,
                "velocity": 80,
                "duration": 0.20000000000000284,
                "tempo": 120.0
            },
            {
                "start_time": 45.64772727272727,
                "end_time": 46.04772727272727,
                "pitch": 73,
                "velocity": 80,
                "duration": 0.3999999999999986,
                "tempo": 120.0
            },
            {
                "start_time": 46.05,
                "end_time": 46.08181818181818,
                "pitch": 72,
                "velocity": 80,
                "duration": 0.0318181818181813,
                "tempo": 120.0
            },
            {
                "start_time": 46.08181818181818,
                "end_time": 46.36590909090909,
                "pitch": 68,
                "velocity": 80,
                "duration": 0.2840909090909136,
                "tempo": 120.0
            },
            {
                "start_time": 20.695454545454545,
                "end_time": 46.38409090909091,
                "pitch": 55,
                "velocity": 80,
                "duration": 25.688636363636363,
                "tempo": 120.0
            },
            {
                "start_time": 46.36590909090909,
                "end_time": 46.38409090909091,
                "pitch": 67,
                "velocity": 80,
                "duration": 0.018181818181815856,
                "tempo": 120.0
            },
            {
                "start_time": 46.38409090909091,
                "end_time": 46.44772727272727,
                "pitch": 67,
                "velocity": 80,
                "duration": 0.0636363636363626,
                "tempo": 120.0
            },
            {
                "start_time": 46.449999999999996,
                "end_time": 46.48409090909091,
                "pitch": 69,
                "velocity": 80,
                "duration": 0.03409090909091361,
                "tempo": 120.0
            },
            {
                "start_time": 46.48409090909091,
                "end_time": 46.518181818181816,
                "pitch": 73,
                "velocity": 80,
                "duration": 0.03409090909090651,
                "tempo": 120.0
            },
            {
                "start_time": 33.83409090909091,
                "end_time": 46.55,
                "pitch": 77,
                "velocity": 80,
                "duration": 12.715909090909086,
                "tempo": 120.0
            },
            {
                "start_time": 46.518181818181816,
                "end_time": 46.55,
                "pitch": 77,
                "velocity": 80,
                "duration": 0.0318181818181813,
                "tempo": 120.0
            },
            {
                "start_time": 46.55,
                "end_time": 46.55227272727272,
                "pitch": 67,
                "velocity": 80,
                "duration": 0.0022727272727252057,
                "tempo": 120.0
            },
            {
                "start_time": 46.36590909090909,
                "end_time": 46.768181818181816,
                "pitch": 79,
                "velocity": 80,
                "duration": 0.4022727272727238,
                "tempo": 120.0
            },
            {
                "start_time": 46.55227272727272,
                "end_time": 46.768181818181816,
                "pitch": 79,
                "velocity": 80,
                "duration": 0.2159090909090935,
                "tempo": 120.0
            },
            {
                "start_time": 21.24772727272727,
                "end_time": 46.768181818181816,
                "pitch": 91,
                "velocity": 80,
                "duration": 25.520454545454545,
                "tempo": 120.0
            },
            {
                "start_time": 46.768181818181816,
                "end_time": 46.80227272727272,
                "pitch": 79,
                "velocity": 80,
                "duration": 0.03409090909090651,
                "tempo": 120.0
            },
            {
                "start_time": 46.80227272727272,
                "end_time": 46.93636363636364,
                "pitch": 79,
                "velocity": 80,
                "duration": 0.13409090909091503,
                "tempo": 120.0
            },
            {
                "start_time": 46.768181818181816,
                "end_time": 46.93636363636364,
                "pitch": 91,
                "velocity": 80,
                "duration": 0.16818181818182154,
                "tempo": 120.0
            },
            {
                "start_time": 46.80227272727272,
                "end_time": 47.002272727272725,
                "pitch": 67,
                "velocity": 80,
                "duration": 0.20000000000000284,
                "tempo": 120.0
            },
            {
                "start_time": 46.93636363636364,
                "end_time": 47.002272727272725,
                "pitch": 79,
                "velocity": 80,
                "duration": 0.06590909090908781,
                "tempo": 120.0
            },
            {
                "start_time": 47.002272727272725,
                "end_time": 47.05,
                "pitch": 79,
                "velocity": 80,
                "duration": 0.04772727272727195,
                "tempo": 120.0
            },
            {
                "start_time": 47.05227272727272,
                "end_time": 47.45227272727273,
                "pitch": 77,
                "velocity": 80,
                "duration": 0.4000000000000057,
                "tempo": 120.0
            },
            {
                "start_time": 47.45454545454545,
                "end_time": 47.652272727272724,
                "pitch": 76,
                "velocity": 80,
                "duration": 0.19772727272727053,
                "tempo": 120.0
            },
            {
                "start_time": 47.65454545454545,
                "end_time": 48.252272727272725,
                "pitch": 77,
                "velocity": 80,
                "duration": 0.5977272727272762,
                "tempo": 120.0
            },
            {
                "start_time": 48.25454545454545,
                "end_time": 51.47272727272727,
                "pitch": 76,
                "velocity": 80,
                "duration": 3.2181818181818187,
                "tempo": 120.0
            },
            {
                "start_time": 51.474999999999994,
                "end_time": 51.67272727272727,
                "pitch": 74,
                "velocity": 80,
                "duration": 0.19772727272727764,
                "tempo": 120.0
            },
            {
                "start_time": 51.675,
                "end_time": 51.87272727272727,
                "pitch": 76,
                "velocity": 80,
                "duration": 0.19772727272727053,
                "tempo": 120.0
            },
            {
                "start_time": 51.875,
                "end_time": 52.074999999999996,
                "pitch": 77,
                "velocity": 80,
                "duration": 0.19999999999999574,
                "tempo": 120.0
            },
            {
                "start_time": 52.07727272727273,
                "end_time": 54.68181818181818,
                "pitch": 75,
                "velocity": 80,
                "duration": 2.604545454545452,
                "tempo": 120.0
            },
            {
                "start_time": 54.684090909090905,
                "end_time": 54.881818181818176,
                "pitch": 72,
                "velocity": 80,
                "duration": 0.19772727272727053,
                "tempo": 120.0
            },
            {
                "start_time": 54.88409090909091,
                "end_time": 55.084090909090904,
                "pitch": 74,
                "velocity": 80,
                "duration": 0.19999999999999574,
                "tempo": 120.0
            },
            {
                "start_time": 55.084090909090904,
                "end_time": 55.28409090909091,
                "pitch": 76,
                "velocity": 80,
                "duration": 0.20000000000000284,
                "tempo": 120.0
            },
            {
                "start_time": 55.28636363636363,
                "end_time": 55.31818181818181,
                "pitch": 74,
                "velocity": 80,
                "duration": 0.0318181818181813,
                "tempo": 120.0
            },
            {
                "start_time": 55.31818181818181,
                "end_time": 57.9,
                "pitch": 72,
                "velocity": 80,
                "duration": 2.5818181818181856,
                "tempo": 120.0
            },
            {
                "start_time": 57.902272727272724,
                "end_time": 59.30227272727272,
                "pitch": 70,
                "velocity": 80,
                "duration": 1.3999999999999986,
                "tempo": 120.0
            },
            {
                "start_time": 47.002272727272725,
                "end_time": 59.320454545454545,
                "pitch": 67,
                "velocity": 80,
                "duration": 12.31818181818182,
                "tempo": 120.0
            },
            {
                "start_time": 59.304545454545455,
                "end_time": 59.320454545454545,
                "pitch": 67,
                "velocity": 80,
                "duration": 0.01590909090909065,
                "tempo": 120.0
            },
            {
                "start_time": 59.320454545454545,
                "end_time": 59.70454545454545,
                "pitch": 65,
                "velocity": 80,
                "duration": 0.38409090909090793,
                "tempo": 120.0
            },
            {
                "start_time": 59.70681818181818,
                "end_time": 59.73863636363636,
                "pitch": 67,
                "velocity": 80,
                "duration": 0.0318181818181813,
                "tempo": 120.0
            },
            {
                "start_time": 59.73863636363636,
                "end_time": 60.10681818181818,
                "pitch": 69,
                "velocity": 80,
                "duration": 0.3681818181818173,
                "tempo": 120.0
            },
            {
                "start_time": 60.10909090909091,
                "end_time": 60.506818181818176,
                "pitch": 71,
                "velocity": 80,
                "duration": 0.39772727272726627,
                "tempo": 120.0
            },
            {
                "start_time": 60.50909090909091,
                "end_time": 60.90681818181818,
                "pitch": 71,
                "velocity": 80,
                "duration": 0.3977272727272734,
                "tempo": 120.0
            },
            {
                "start_time": 60.90909090909091,
                "end_time": 60.94318181818181,
                "pitch": 73,
                "velocity": 80,
                "duration": 0.03409090909090651,
                "tempo": 120.0
            },
            {
                "start_time": 59.320454545454545,
                "end_time": 60.974999999999994,
                "pitch": 77,
                "velocity": 80,
                "duration": 1.654545454545449,
                "tempo": 120.0
            },
            {
                "start_time": 60.94318181818181,
                "end_time": 60.974999999999994,
                "pitch": 77,
                "velocity": 80,
                "duration": 0.0318181818181813,
                "tempo": 120.0
            },
            {
                "start_time": 60.974999999999994,
                "end_time": 61.224999999999994,
                "pitch": 79,
                "velocity": 80,
                "duration": 0.25,
                "tempo": 120.0
            },
            {
                "start_time": 46.93636363636364,
                "end_time": 61.224999999999994,
                "pitch": 91,
                "velocity": 80,
                "duration": 14.288636363636357,
                "tempo": 120.0
            },
            {
                "start_time": 60.974999999999994,
                "end_time": 61.24318181818182,
                "pitch": 67,
                "velocity": 80,
                "duration": 0.26818181818182296,
                "tempo": 120.0
            },
            {
                "start_time": 61.224999999999994,
                "end_time": 61.24318181818182,
                "pitch": 79,
                "velocity": 80,
                "duration": 0.018181818181822962,
                "tempo": 120.0
            },
            {
                "start_time": 61.24318181818182,
                "end_time": 61.375,
                "pitch": 79,
                "velocity": 80,
                "duration": 0.13181818181818272,
                "tempo": 120.0
            },
            {
                "start_time": 61.224999999999994,
                "end_time": 61.375,
                "pitch": 91,
                "velocity": 80,
                "duration": 0.15000000000000568,
                "tempo": 120.0
            },
            {
                "start_time": 61.24318181818182,
                "end_time": 61.44318181818181,
                "pitch": 67,
                "velocity": 80,
                "duration": 0.19999999999999574,
                "tempo": 120.0
            },
            {
                "start_time": 61.375,
                "end_time": 61.44318181818181,
                "pitch": 79,
                "velocity": 80,
                "duration": 0.06818181818181301,
                "tempo": 120.0
            },
            {
                "start_time": 61.44318181818181,
                "end_time": 61.57727272727272,
                "pitch": 79,
                "velocity": 80,
                "duration": 0.13409090909090793,
                "tempo": 120.0
            },
            {
                "start_time": 61.375,
                "end_time": 61.57727272727272,
                "pitch": 91,
                "velocity": 80,
                "duration": 0.20227272727272094,
                "tempo": 120.0
            },
            {
                "start_time": 61.44318181818181,
                "end_time": 61.643181818181816,
                "pitch": 67,
                "velocity": 80,
                "duration": 0.20000000000000284,
                "tempo": 120.0
            },
            {
                "start_time": 61.57727272727272,
                "end_time": 61.643181818181816,
                "pitch": 79,
                "velocity": 80,
                "duration": 0.06590909090909491,
                "tempo": 120.0
            },
            {
                "start_time": 61.643181818181816,
                "end_time": 61.777272727272724,
                "pitch": 79,
                "velocity": 80,
                "duration": 0.13409090909090793,
                "tempo": 120.0
            },
            {
                "start_time": 61.57727272727272,
                "end_time": 61.777272727272724,
                "pitch": 91,
                "velocity": 80,
                "duration": 0.20000000000000284,
                "tempo": 120.0
            },
            {
                "start_time": 61.643181818181816,
                "end_time": 61.845454545454544,
                "pitch": 67,
                "velocity": 80,
                "duration": 0.20227272727272805,
                "tempo": 120.0
            },
            {
                "start_time": 61.777272727272724,
                "end_time": 61.845454545454544,
                "pitch": 79,
                "velocity": 80,
                "duration": 0.06818181818182012,
                "tempo": 120.0
            },
            {
                "start_time": 61.845454545454544,
                "end_time": 61.97954545454545,
                "pitch": 79,
                "velocity": 80,
                "duration": 0.13409090909090793,
                "tempo": 120.0
            },
            {
                "start_time": 61.777272727272724,
                "end_time": 61.97954545454545,
                "pitch": 91,
                "velocity": 80,
                "duration": 0.20227272727272805,
                "tempo": 120.0
            },
            {
                "start_time": 61.845454545454544,
                "end_time": 62.04545454545454,
                "pitch": 67,
                "velocity": 80,
                "duration": 0.19999999999999574,
                "tempo": 120.0
            },
            {
                "start_time": 61.97954545454545,
                "end_time": 62.04545454545454,
                "pitch": 79,
                "velocity": 80,
                "duration": 0.06590909090908781,
                "tempo": 120.0
            },
            {
                "start_time": 62.04545454545454,
                "end_time": 62.179545454545455,
                "pitch": 79,
                "velocity": 80,
                "duration": 0.13409090909091503,
                "tempo": 120.0
            },
            {
                "start_time": 61.97954545454545,
                "end_time": 62.179545454545455,
                "pitch": 91,
                "velocity": 80,
                "duration": 0.20000000000000284,
                "tempo": 120.0
            },
            {
                "start_time": 62.04545454545454,
                "end_time": 62.24545454545454,
                "pitch": 67,
                "velocity": 80,
                "duration": 0.20000000000000284,
                "tempo": 120.0
            },
            {
                "start_time": 62.179545454545455,
                "end_time": 62.24545454545454,
                "pitch": 79,
                "velocity": 80,
                "duration": 0.06590909090908781,
                "tempo": 120.0
            },
            {
                "start_time": 62.24545454545454,
                "end_time": 62.37954545454545,
                "pitch": 79,
                "velocity": 80,
                "duration": 0.13409090909090793,
                "tempo": 120.0
            },
            {
                "start_time": 62.179545454545455,
                "end_time": 62.37954545454545,
                "pitch": 91,
                "velocity": 80,
                "duration": 0.19999999999999574,
                "tempo": 120.0
            },
            {
                "start_time": 62.24545454545454,
                "end_time": 62.44772727272727,
                "pitch": 67,
                "velocity": 80,
                "duration": 0.20227272727272805,
                "tempo": 120.0
            },
            {
                "start_time": 62.37954545454545,
                "end_time": 62.44772727272727,
                "pitch": 79,
                "velocity": 80,
                "duration": 0.06818181818182012,
                "tempo": 120.0
            },
            {
                "start_time": 62.44772727272727,
                "end_time": 62.51136363636363,
                "pitch": 79,
                "velocity": 80,
                "duration": 0.0636363636363626,
                "tempo": 120.0
            },
            {
                "start_time": 62.51363636363636,
                "end_time": 64.32727272727273,
                "pitch": 77,
                "velocity": 80,
                "duration": 1.8136363636363697,
                "tempo": 120.0
            },
            {
                "start_time": 64.70681818181818,
                "end_time": 64.72045454545454,
                "pitch": 74,
                "velocity": 4,
                "duration": 0.013636363636365445,
                "tempo": 120.0
            },
            {
                "start_time": 64.72272727272727,
                "end_time": 65.32272727272726,
                "pitch": 74,
                "velocity": 80,
                "duration": 0.5999999999999943,
                "tempo": 120.0
            },
            {
                "start_time": 65.325,
                "end_time": 65.52499999999999,
                "pitch": 76,
                "velocity": 80,
                "duration": 0.19999999999998863,
                "tempo": 120.0
            },
            {
                "start_time": 65.52499999999999,
                "end_time": 65.72954545454544,
                "pitch": 77,
                "velocity": 80,
                "duration": 0.20454545454545325,
                "tempo": 120.0
            },
            {
                "start_time": 65.73181818181818,
                "end_time": 65.93409090909091,
                "pitch": 75,
                "velocity": 80,
                "duration": 0.20227272727272805,
                "tempo": 120.0
            },
            {
                "start_time": 62.44772727272727,
                "end_time": 65.97045454545454,
                "pitch": 67,
                "velocity": 80,
                "duration": 3.5227272727272734,
                "tempo": 120.0
            },
            {
                "start_time": 65.93636363636364,
                "end_time": 65.97045454545454,
                "pitch": 76,
                "velocity": 80,
                "duration": 0.03409090909090651,
                "tempo": 120.0
            },
            {
                "start_time": 65.97045454545454,
                "end_time": 66.13636363636364,
                "pitch": 79,
                "velocity": 80,
                "duration": 0.16590909090909634,
                "tempo": 120.0
            },
            {
                "start_time": 66.13863636363637,
                "end_time": 66.54090909090908,
                "pitch": 77,
                "velocity": 80,
                "duration": 0.4022727272727167,
                "tempo": 120.0
            },
            {
                "start_time": 66.54090909090908,
                "end_time": 66.94090909090909,
                "pitch": 76,
                "velocity": 80,
                "duration": 0.4000000000000057,
                "tempo": 120.0
            },
            {
                "start_time": 66.94318181818181,
                "end_time": 67.54545454545455,
                "pitch": 77,
                "velocity": 80,
                "duration": 0.6022727272727337,
                "tempo": 120.0
            },
            {
                "start_time": 67.54772727272727,
                "end_time": 67.74545454545454,
                "pitch": 76,
                "velocity": 80,
                "duration": 0.19772727272726343,
                "tempo": 120.0
            },
            {
                "start_time": 67.74772727272727,
                "end_time": 68.14772727272727,
                "pitch": 77,
                "velocity": 80,
                "duration": 0.3999999999999915,
                "tempo": 120.0
            },
            {
                "start_time": 68.14999999999999,
                "end_time": 68.5340909090909,
                "pitch": 79,
                "velocity": 80,
                "duration": 0.38409090909091503,
                "tempo": 120.0
            },
            {
                "start_time": 62.37954545454545,
                "end_time": 68.53636363636363,
                "pitch": 91,
                "velocity": 80,
                "duration": 6.156818181818181,
                "tempo": 120.0
            },
            {
                "start_time": 68.5340909090909,
                "end_time": 68.53636363636363,
                "pitch": 91,
                "velocity": 80,
                "duration": 0.0022727272727252057,
                "tempo": 120.0
            },
            {
                "start_time": 68.53636363636363,
                "end_time": 68.55,
                "pitch": 79,
                "velocity": 80,
                "duration": 0.013636363636365445,
                "tempo": 120.0
            },
            {
                "start_time": 68.55227272727272,
                "end_time": 68.58636363636363,
                "pitch": 81,
                "velocity": 80,
                "duration": 0.03409090909090651,
                "tempo": 120.0
            },
            {
                "start_time": 68.58636363636363,
                "end_time": 69.15227272727273,
                "pitch": 83,
                "velocity": 80,
                "duration": 0.565909090909102,
                "tempo": 120.0
            },
            {
                "start_time": 69.15454545454546,
                "end_time": 69.35454545454544,
                "pitch": 84,
                "velocity": 80,
                "duration": 0.19999999999998863,
                "tempo": 120.0
            },
            {
                "start_time": 69.35681818181818,
                "end_time": 69.75681818181818,
                "pitch": 83,
                "velocity": 80,
                "duration": 0.3999999999999915,
                "tempo": 120.0
            },
            {
                "start_time": 69.7590909090909,
                "end_time": 69.79090909090908,
                "pitch": 81,
                "velocity": 80,
                "duration": 0.0318181818181813,
                "tempo": 120.0
            },
            {
                "start_time": 69.79090909090908,
                "end_time": 70.1590909090909,
                "pitch": 77,
                "velocity": 80,
                "duration": 0.3681818181818244,
                "tempo": 120.0
            },
            {
                "start_time": 39.652272727272724,
                "end_time": 70.17727272727272,
                "pitch": 78,
                "velocity": 80,
                "duration": 30.525,
                "tempo": 120.0
            },
            {
                "start_time": 70.1590909090909,
                "end_time": 70.17727272727272,
                "pitch": 78,
                "velocity": 80,
                "duration": 0.018181818181815856,
                "tempo": 120.0
            },
            {
                "start_time": 70.17727272727272,
                "end_time": 70.2090909090909,
                "pitch": 80,
                "velocity": 80,
                "duration": 0.0318181818181813,
                "tempo": 120.0
            },
            {
                "start_time": 70.2090909090909,
                "end_time": 70.76363636363637,
                "pitch": 83,
                "velocity": 80,
                "duration": 0.5545454545454618,
                "tempo": 120.0
            },
            {
                "start_time": 70.76590909090909,
                "end_time": 71.56818181818181,
                "pitch": 81,
                "velocity": 80,
                "duration": 0.8022727272727224,
                "tempo": 120.0
            },
            {
                "start_time": 71.76818181818182,
                "end_time": 71.96818181818182,
                "pitch": 81,
                "velocity": 80,
                "duration": 0.20000000000000284,
                "tempo": 120.0
            },
            {
                "start_time": 71.97045454545454,
                "end_time": 72.16818181818182,
                "pitch": 83,
                "velocity": 80,
                "duration": 0.19772727272727764,
                "tempo": 120.0
            },
            {
                "start_time": 72.17045454545455,
                "end_time": 72.20454545454545,
                "pitch": 86,
                "velocity": 80,
                "duration": 0.03409090909090651,
                "tempo": 120.0
            },
            {
                "start_time": 69.79090909090908,
                "end_time": 72.77272727272727,
                "pitch": 89,
                "velocity": 80,
                "duration": 2.981818181818184,
                "tempo": 120.0
            },
            {
                "start_time": 72.20454545454545,
                "end_time": 72.77272727272727,
                "pitch": 89,
                "velocity": 80,
                "duration": 0.568181818181813,
                "tempo": 120.0
            },
            {
                "start_time": 72.77499999999999,
                "end_time": 72.97954545454544,
                "pitch": 88,
                "velocity": 80,
                "duration": 0.20454545454545325,
                "tempo": 120.0
            },
            {
                "start_time": 72.98181818181818,
                "end_time": 73.38181818181818,
                "pitch": 86,
                "velocity": 80,
                "duration": 0.3999999999999915,
                "tempo": 120.0
            },
            {
                "start_time": 73.3840909090909,
                "end_time": 73.97727272727272,
                "pitch": 88,
                "velocity": 80,
                "duration": 0.5931818181818187,
                "tempo": 120.0
            },
            {
                "start_time": 73.97954545454544,
                "end_time": 74.01363636363637,
                "pitch": 86,
                "velocity": 80,
                "duration": 0.03409090909092072,
                "tempo": 120.0
            },
            {
                "start_time": 74.01363636363637,
                "end_time": 74.79090909090908,
                "pitch": 84,
                "velocity": 80,
                "duration": 0.7772727272727167,
                "tempo": 120.0
            },
            {
                "start_time": 74.79318181818182,
                "end_time": 74.99090909090908,
                "pitch": 83,
                "velocity": 80,
                "duration": 0.19772727272726343,
                "tempo": 120.0
            },
            {
                "start_time": 74.99318181818181,
                "end_time": 75.39545454545454,
                "pitch": 84,
                "velocity": 80,
                "duration": 0.4022727272727309,
                "tempo": 120.0
            },
            {
                "start_time": 75.39772727272727,
                "end_time": 75.79772727272727,
                "pitch": 86,
                "velocity": 80,
                "duration": 0.4000000000000057,
                "tempo": 120.0
            },
            {
                "start_time": 75.8,
                "end_time": 76.19772727272726,
                "pitch": 88,
                "velocity": 80,
                "duration": 0.39772727272726627,
                "tempo": 120.0
            },
            {
                "start_time": 76.2,
                "end_time": 77.20454545454545,
                "pitch": 88,
                "velocity": 80,
                "duration": 1.0045454545454504,
                "tempo": 120.0
            },
            {
                "start_time": 77.59318181818182,
                "end_time": 77.60681818181818,
                "pitch": 86,
                "velocity": 4,
                "duration": 0.013636363636365445,
                "tempo": 120.0
            },
            {
                "start_time": 77.60909090909091,
                "end_time": 78.2090909090909,
                "pitch": 74,
                "velocity": 80,
                "duration": 0.5999999999999943,
                "tempo": 120.0
            },
            {
                "start_time": 78.21136363636363,
                "end_time": 78.41136363636363,
                "pitch": 76,
                "velocity": 80,
                "duration": 0.20000000000000284,
                "tempo": 120.0
            },
            {
                "start_time": 78.41363636363636,
                "end_time": 78.61136363636363,
                "pitch": 77,
                "velocity": 80,
                "duration": 0.19772727272727764,
                "tempo": 120.0
            },
            {
                "start_time": 78.61363636363636,
                "end_time": 78.81136363636364,
                "pitch": 75,
                "velocity": 80,
                "duration": 0.19772727272727764,
                "tempo": 120.0
            },
            {
                "start_time": 65.97045454545454,
                "end_time": 78.84772727272727,
                "pitch": 67,
                "velocity": 80,
                "duration": 12.877272727272725,
                "tempo": 120.0
            },
            {
                "start_time": 78.81363636363636,
                "end_time": 78.84772727272727,
                "pitch": 76,
                "velocity": 80,
                "duration": 0.03409090909090651,
                "tempo": 120.0
            },
            {
                "start_time": 78.84772727272727,
                "end_time": 79.01363636363637,
                "pitch": 79,
                "velocity": 80,
                "duration": 0.16590909090909634,
                "tempo": 120.0
            },
            {
                "start_time": 79.01590909090909,
                "end_time": 79.41590909090908,
                "pitch": 77,
                "velocity": 80,
                "duration": 0.3999999999999915,
                "tempo": 120.0
            },
            {
                "start_time": 79.41818181818181,
                "end_time": 79.82272727272726,
                "pitch": 76,
                "velocity": 80,
                "duration": 0.4045454545454561,
                "tempo": 120.0
            },
            {
                "start_time": 79.825,
                "end_time": 80.42954545454545,
                "pitch": 77,
                "velocity": 80,
                "duration": 0.6045454545454447,
                "tempo": 120.0
            },
            {
                "start_time": 80.43181818181817,
                "end_time": 80.62727272727273,
                "pitch": 76,
                "velocity": 80,
                "duration": 0.19545454545455243,
                "tempo": 120.0
            },
            {
                "start_time": 80.62954545454545,
                "end_time": 81.02727272727272,
                "pitch": 77,
                "velocity": 80,
                "duration": 0.39772727272726627,
                "tempo": 120.0
            },
            {
                "start_time": 81.02954545454546,
                "end_time": 81.35227272727272,
                "pitch": 79,
                "velocity": 80,
                "duration": 0.3227272727272634,
                "tempo": 120.0
            },
            {
                "start_time": 78.84772727272727,
                "end_time": 81.40227272727272,
                "pitch": 67,
                "velocity": 80,
                "duration": 2.5545454545454476,
                "tempo": 120.0
            },
            {
                "start_time": 81.35227272727272,
                "end_time": 81.40227272727272,
                "pitch": 79,
                "velocity": 80,
                "duration": 0.04999999999999716,
                "tempo": 120.0
            },
            {
                "start_time": 81.40227272727272,
                "end_time": 81.43409090909091,
                "pitch": 79,
                "velocity": 80,
                "duration": 0.03181818181819551,
                "tempo": 120.0
            },
            {
                "start_time": 81.43636363636364,
                "end_time": 81.46818181818182,
                "pitch": 81,
                "velocity": 80,
                "duration": 0.0318181818181813,
                "tempo": 120.0
            },
            {
                "start_time": 81.46818181818182,
                "end_time": 82.03636363636363,
                "pitch": 83,
                "velocity": 80,
                "duration": 0.568181818181813,
                "tempo": 120.0
            },
            {
                "start_time": 82.03863636363636,
                "end_time": 82.23863636363636,
                "pitch": 84,
                "velocity": 80,
                "duration": 0.20000000000000284,
                "tempo": 120.0
            },
            {
                "start_time": 82.24090909090908,
                "end_time": 82.63863636363637,
                "pitch": 83,
                "velocity": 80,
                "duration": 0.3977272727272805,
                "tempo": 120.0
            },
            {
                "start_time": 82.64090909090909,
                "end_time": 82.675,
                "pitch": 81,
                "velocity": 80,
                "duration": 0.03409090909090651,
                "tempo": 120.0
            },
            {
                "start_time": 82.675,
                "end_time": 83.04318181818181,
                "pitch": 77,
                "velocity": 80,
                "duration": 0.36818181818181017,
                "tempo": 120.0
            },
            {
                "start_time": 70.17727272727272,
                "end_time": 83.06136363636364,
                "pitch": 68,
                "velocity": 80,
                "duration": 12.884090909090915,
                "tempo": 120.0
            },
            {
                "start_time": 83.04545454545455,
                "end_time": 83.06136363636364,
                "pitch": 78,
                "velocity": 80,
                "duration": 0.01590909090909065,
                "tempo": 120.0
            },
            {
                "start_time": 83.06136363636364,
                "end_time": 83.09545454545454,
                "pitch": 80,
                "velocity": 80,
                "duration": 0.03409090909090651,
                "tempo": 120.0
            },
            {
                "start_time": 83.09545454545454,
                "end_time": 83.64545454545454,
                "pitch": 83,
                "velocity": 80,
                "duration": 0.5499999999999972,
                "tempo": 120.0
            },
            {
                "start_time": 83.64772727272727,
                "end_time": 84.45,
                "pitch": 81,
                "velocity": 80,
                "duration": 0.8022727272727366,
                "tempo": 120.0
            },
            {
                "start_time": 84.65227272727272,
                "end_time": 84.85227272727272,
                "pitch": 81,
                "velocity": 80,
                "duration": 0.20000000000000284,
                "tempo": 120.0
            },
            {
                "start_time": 84.85454545454544,
                "end_time": 85.05454545454545,
                "pitch": 83,
                "velocity": 80,
                "duration": 0.20000000000000284,
                "tempo": 120.0
            },
            {
                "start_time": 85.05454545454545,
                "end_time": 85.45454545454545,
                "pitch": 86,
                "velocity": 80,
                "duration": 0.4000000000000057,
                "tempo": 120.0
            },
            {
                "start_time": 85.45681818181818,
                "end_time": 85.65681818181818,
                "pitch": 88,
                "velocity": 80,
                "duration": 0.20000000000000284,
                "tempo": 120.0
            },
            {
                "start_time": 82.675,
                "end_time": 85.85681818181818,
                "pitch": 89,
                "velocity": 80,
                "duration": 3.181818181818187,
                "tempo": 120.0
            },
            {
                "start_time": 85.65681818181818,
                "end_time": 85.85681818181818,
                "pitch": 89,
                "velocity": 80,
                "duration": 0.20000000000000284,
                "tempo": 120.0
            },
            {
                "start_time": 85.85909090909091,
                "end_time": 86.2590909090909,
                "pitch": 88,
                "velocity": 80,
                "duration": 0.3999999999999915,
                "tempo": 120.0
            },
            {
                "start_time": 86.66363636363636,
                "end_time": 86.67954545454545,
                "pitch": 90,
                "velocity": 80,
                "duration": 0.01590909090909065,
                "tempo": 120.0
            },
            {
                "start_time": 86.67954545454545,
                "end_time": 86.71363636363635,
                "pitch": 92,
                "velocity": 80,
                "duration": 0.03409090909090651,
                "tempo": 120.0
            },
            {
                "start_time": 86.71363636363635,
                "end_time": 86.74545454545454,
                "pitch": 96,
                "velocity": 80,
                "duration": 0.0318181818181813,
                "tempo": 120.0
            },
            {
                "start_time": 86.74545454545454,
                "end_time": 87.06818181818181,
                "pitch": 98,
                "velocity": 80,
                "duration": 0.32272727272727764,
                "tempo": 120.0
            },
            {
                "start_time": 87.07045454545454,
                "end_time": 87.27272727272727,
                "pitch": 100,
                "velocity": 80,
                "duration": 0.20227272727272805,
                "tempo": 120.0
            },
            {
                "start_time": 87.27499999999999,
                "end_time": 87.47045454545454,
                "pitch": 101,
                "velocity": 80,
                "duration": 0.19545454545455243,
                "tempo": 120.0
            },
            {
                "start_time": 87.47272727272727,
                "end_time": 87.86818181818181,
                "pitch": 100,
                "velocity": 80,
                "duration": 0.39545454545454106,
                "tempo": 120.0
            },
            {
                "start_time": 87.87045454545454,
                "end_time": 87.90227272727272,
                "pitch": 98,
                "velocity": 4,
                "duration": 0.0318181818181813,
                "tempo": 120.0
            },
            {
                "start_time": 87.90227272727272,
                "end_time": 87.93636363636364,
                "pitch": 94,
                "velocity": 4,
                "duration": 0.03409090909092072,
                "tempo": 120.0
            },
            {
                "start_time": 87.93636363636364,
                "end_time": 87.97045454545454,
                "pitch": 90,
                "velocity": 4,
                "duration": 0.03409090909090651,
                "tempo": 120.0
            },
            {
                "start_time": 87.97045454545454,
                "end_time": 88.00454545454545,
                "pitch": 87,
                "velocity": 4,
                "duration": 0.03409090909090651,
                "tempo": 120.0
            },
            {
                "start_time": 88.00454545454545,
                "end_time": 88.07045454545454,
                "pitch": 84,
                "velocity": 4,
                "duration": 0.06590909090908781,
                "tempo": 120.0
            },
            {
                "start_time": 88.07045454545454,
                "end_time": 88.10454545454544,
                "pitch": 86,
                "velocity": 80,
                "duration": 0.03409090909090651,
                "tempo": 120.0
            },
            {
                "start_time": 88.10454545454544,
                "end_time": 88.27045454545454,
                "pitch": 88,
                "velocity": 80,
                "duration": 0.16590909090909634,
                "tempo": 120.0
            },
            {
                "start_time": 86.67954545454545,
                "end_time": 88.28863636363636,
                "pitch": 80,
                "velocity": 80,
                "duration": 1.6090909090909093,
                "tempo": 120.0
            },
            {
                "start_time": 88.27272727272727,
                "end_time": 88.28863636363636,
                "pitch": 90,
                "velocity": 80,
                "duration": 0.01590909090909065,
                "tempo": 120.0
            },
            {
                "start_time": 88.28863636363636,
                "end_time": 88.48636363636363,
                "pitch": 92,
                "velocity": 80,
                "duration": 0.19772727272727764,
                "tempo": 120.0
            },
            {
                "start_time": 101.39999999999999,
                "end_time": 101.425,
                "pitch": 69,
                "velocity": 4,
                "duration": 0.025000000000005684,
                "tempo": 120.0
            },
            {
                "start_time": 101.42727272727272,
                "end_time": 101.59545454545454,
                "pitch": 69,
                "velocity": 80,
                "duration": 0.16818181818182154,
                "tempo": 120.0
            },
            {
                "start_time": 81.40227272727272,
                "end_time": 101.80227272727272,
                "pitch": 67,
                "velocity": 80,
                "duration": 20.400000000000006,
                "tempo": 120.0
            },
            {
                "start_time": 101.59772727272727,
                "end_time": 101.80227272727272,
                "pitch": 67,
                "velocity": 80,
                "duration": 0.20454545454545325,
                "tempo": 120.0
            },
            {
                "start_time": 101.80454545454545,
                "end_time": 102.00681818181818,
                "pitch": 69,
                "velocity": 80,
                "duration": 0.20227272727272805,
                "tempo": 120.0
            },
            {
                "start_time": 102.0090909090909,
                "end_time": 102.41590909090908,
                "pitch": 71,
                "velocity": 80,
                "duration": 0.4068181818181813,
                "tempo": 120.0
            },
            {
                "start_time": 102.41818181818181,
                "end_time": 102.44999999999999,
                "pitch": 70,
                "velocity": 80,
                "duration": 0.0318181818181813,
                "tempo": 120.0
            },
            {
                "start_time": 102.44999999999999,
                "end_time": 102.48409090909091,
                "pitch": 66,
                "velocity": 80,
                "duration": 0.03409090909092072,
                "tempo": 120.0
            },
            {
                "start_time": 102.48409090909091,
                "end_time": 102.81818181818181,
                "pitch": 64,
                "velocity": 80,
                "duration": 0.33409090909090366,
                "tempo": 120.0
            },
            {
                "start_time": 40.03636363636363,
                "end_time": 102.83636363636363,
                "pitch": 56,
                "velocity": 80,
                "duration": 62.8,
                "tempo": 120.0
            },
            {
                "start_time": 102.82045454545454,
                "end_time": 102.83636363636363,
                "pitch": 66,
                "velocity": 80,
                "duration": 0.01590909090909065,
                "tempo": 120.0
            },
            {
                "start_time": 83.06136363636364,
                "end_time": 102.87045454545454,
                "pitch": 68,
                "velocity": 80,
                "duration": 19.809090909090898,
                "tempo": 120.0
            },
            {
                "start_time": 102.83636363636363,
                "end_time": 102.87045454545454,
                "pitch": 68,
                "velocity": 80,
                "duration": 0.03409090909090651,
                "tempo": 120.0
            },
            {
                "start_time": 102.87045454545454,
                "end_time": 102.90454545454546,
                "pitch": 72,
                "velocity": 80,
                "duration": 0.03409090909092072,
                "tempo": 120.0
            },
            {
                "start_time": 102.90454545454546,
                "end_time": 103.42045454545455,
                "pitch": 76,
                "velocity": 80,
                "duration": 0.5159090909090907,
                "tempo": 120.0
            },
            {
                "start_time": 103.42272727272727,
                "end_time": 103.82499999999999,
                "pitch": 74,
                "velocity": 80,
                "duration": 0.4022727272727167,
                "tempo": 120.0
            },
            {
                "start_time": 103.82727272727273,
                "end_time": 104.02499999999999,
                "pitch": 72,
                "velocity": 80,
                "duration": 0.19772727272726343,
                "tempo": 120.0
            },
            {
                "start_time": 104.02727272727272,
                "end_time": 104.62727272727273,
                "pitch": 74,
                "velocity": 80,
                "duration": 0.6000000000000085,
                "tempo": 120.0
            },
            {
                "start_time": 104.62954545454545,
                "end_time": 105.23181818181817,
                "pitch": 72,
                "velocity": 80,
                "duration": 0.6022727272727195,
                "tempo": 120.0
            },
            {
                "start_time": 105.23409090909091,
                "end_time": 105.8340909090909,
                "pitch": 71,
                "velocity": 80,
                "duration": 0.5999999999999943,
                "tempo": 120.0
            },
            {
                "start_time": 105.83636363636363,
                "end_time": 107.85227272727272,
                "pitch": 69,
                "velocity": 80,
                "duration": 2.0159090909090907,
                "tempo": 120.0
            },
            {
                "start_time": 107.85454545454544,
                "end_time": 108.05454545454545,
                "pitch": 71,
                "velocity": 80,
                "duration": 0.20000000000000284,
                "tempo": 120.0
            },
            {
                "start_time": 108.05681818181817,
                "end_time": 108.25681818181818,
                "pitch": 69,
                "velocity": 80,
                "duration": 0.20000000000000284,
                "tempo": 120.0
            },
            {
                "start_time": 108.2590909090909,
                "end_time": 108.4590909090909,
                "pitch": 71,
                "velocity": 80,
                "duration": 0.20000000000000284,
                "tempo": 120.0
            },
            {
                "start_time": 108.46136363636363,
                "end_time": 108.86136363636363,
                "pitch": 73,
                "velocity": 80,
                "duration": 0.4000000000000057,
                "tempo": 120.0
            },
            {
                "start_time": 108.86363636363636,
                "end_time": 108.89545454545454,
                "pitch": 72,
                "velocity": 80,
                "duration": 0.0318181818181813,
                "tempo": 120.0
            },
            {
                "start_time": 108.89545454545454,
                "end_time": 109.17954545454545,
                "pitch": 68,
                "velocity": 80,
                "duration": 0.2840909090909065,
                "tempo": 120.0
            },
            {
                "start_time": 46.38409090909091,
                "end_time": 109.21363636363635,
                "pitch": 55,
                "velocity": 80,
                "duration": 62.829545454545446,
                "tempo": 120.0
            },
            {
                "start_time": 109.17954545454545,
                "end_time": 109.21363636363635,
                "pitch": 67,
                "velocity": 80,
                "duration": 0.03409090909090651,
                "tempo": 120.0
            },
            {
                "start_time": 109.21363636363635,
                "end_time": 109.26136363636363,
                "pitch": 67,
                "velocity": 80,
                "duration": 0.04772727272727195,
                "tempo": 120.0
            },
            {
                "start_time": 109.26363636363635,
                "end_time": 109.29772727272727,
                "pitch": 69,
                "velocity": 80,
                "duration": 0.03409090909092072,
                "tempo": 120.0
            },
            {
                "start_time": 109.29772727272727,
                "end_time": 109.33181818181818,
                "pitch": 73,
                "velocity": 80,
                "duration": 0.03409090909090651,
                "tempo": 120.0
            },
            {
                "start_time": 109.33181818181818,
                "end_time": 109.36363636363636,
                "pitch": 77,
                "velocity": 80,
                "duration": 0.0318181818181813,
                "tempo": 120.0
            },
            {
                "start_time": 109.17954545454545,
                "end_time": 109.58181818181818,
                "pitch": 79,
                "velocity": 80,
                "duration": 0.4022727272727309,
                "tempo": 120.0
            },
            {
                "start_time": 109.36363636363636,
                "end_time": 109.58181818181818,
                "pitch": 79,
                "velocity": 80,
                "duration": 0.2181818181818187,
                "tempo": 120.0
            },
            {
                "start_time": 81.35227272727272,
                "end_time": 109.58181818181818,
                "pitch": 91,
                "velocity": 80,
                "duration": 28.22954545454546,
                "tempo": 120.0
            },
            {
                "start_time": 109.36363636363636,
                "end_time": 109.63181818181818,
                "pitch": 67,
                "velocity": 80,
                "duration": 0.26818181818181586,
                "tempo": 120.0
            },
            {
                "start_time": 109.58181818181818,
                "end_time": 109.63181818181818,
                "pitch": 79,
                "velocity": 80,
                "duration": 0.04999999999999716,
                "tempo": 120.0
            },
            {
                "start_time": 109.63181818181818,
                "end_time": 109.76590909090909,
                "pitch": 79,
                "velocity": 80,
                "duration": 0.13409090909091503,
                "tempo": 120.0
            },
            {
                "start_time": 109.58181818181818,
                "end_time": 109.76590909090909,
                "pitch": 91,
                "velocity": 80,
                "duration": 0.1840909090909122,
                "tempo": 120.0
            },
            {
                "start_time": 109.63181818181818,
                "end_time": 109.83181818181818,
                "pitch": 67,
                "velocity": 80,
                "duration": 0.20000000000000284,
                "tempo": 120.0
            },
            {
                "start_time": 109.76590909090909,
                "end_time": 109.83181818181818,
                "pitch": 79,
                "velocity": 80,
                "duration": 0.06590909090908781,
                "tempo": 120.0
            },
            {
                "start_time": 109.83181818181818,
                "end_time": 109.86363636363636,
                "pitch": 79,
                "velocity": 80,
                "duration": 0.0318181818181813,
                "tempo": 120.0
            },
            {
                "start_time": 109.86590909090908,
                "end_time": 110.26818181818182,
                "pitch": 77,
                "velocity": 80,
                "duration": 0.4022727272727309,
                "tempo": 120.0
            },
            {
                "start_time": 110.27045454545454,
                "end_time": 110.46818181818182,
                "pitch": 76,
                "velocity": 80,
                "duration": 0.19772727272727764,
                "tempo": 120.0
            },
            {
                "start_time": 110.47045454545454,
                "end_time": 111.07045454545454,
                "pitch": 77,
                "velocity": 80,
                "duration": 0.5999999999999943,
                "tempo": 120.0
            },
            {
                "start_time": 111.07272727272726,
                "end_time": 114.28863636363636,
                "pitch": 76,
                "velocity": 80,
                "duration": 3.2159090909090935,
                "tempo": 120.0
            },
            {
                "start_time": 114.29090909090908,
                "end_time": 114.49318181818181,
                "pitch": 74,
                "velocity": 80,
                "duration": 0.20227272727272805,
                "tempo": 120.0
            },
            {
                "start_time": 114.49545454545454,
                "end_time": 114.69999999999999,
                "pitch": 76,
                "velocity": 80,
                "duration": 0.20454545454545325,
                "tempo": 120.0
            },
            {
                "start_time": 114.70227272727273,
                "end_time": 114.90227272727272,
                "pitch": 77,
                "velocity": 80,
                "duration": 0.19999999999998863,
                "tempo": 120.0
            },
            {
                "start_time": 114.90454545454544,
                "end_time": 117.51590909090909,
                "pitch": 75,
                "velocity": 80,
                "duration": 2.6113636363636488,
                "tempo": 120.0
            },
            {
                "start_time": 117.51818181818182,
                "end_time": 117.71590909090908,
                "pitch": 72,
                "velocity": 80,
                "duration": 0.19772727272726343,
                "tempo": 120.0
            },
            {
                "start_time": 117.71818181818182,
                "end_time": 117.91818181818181,
                "pitch": 74,
                "velocity": 80,
                "duration": 0.19999999999998863,
                "tempo": 120.0
            },
            {
                "start_time": 117.92045454545455,
                "end_time": 118.12045454545454,
                "pitch": 76,
                "velocity": 80,
                "duration": 0.19999999999998863,
                "tempo": 120.0
            },
            {
                "start_time": 118.12272727272726,
                "end_time": 118.15454545454544,
                "pitch": 74,
                "velocity": 80,
                "duration": 0.0318181818181813,
                "tempo": 120.0
            },
            {
                "start_time": 118.15454545454544,
                "end_time": 120.73181818181817,
                "pitch": 72,
                "velocity": 80,
                "duration": 2.577272727272728,
                "tempo": 120.0
            },
            {
                "start_time": 120.73409090909091,
                "end_time": 122.35,
                "pitch": 70,
                "velocity": 80,
                "duration": 1.615909090909085,
                "tempo": 120.0
            },
            {
                "start_time": 109.83181818181818,
                "end_time": 122.37045454545454,
                "pitch": 67,
                "velocity": 80,
                "duration": 12.538636363636357,
                "tempo": 120.0
            },
            {
                "start_time": 122.35227272727272,
                "end_time": 122.37045454545454,
                "pitch": 67,
                "velocity": 80,
                "duration": 0.018181818181815856,
                "tempo": 120.0
            },
            {
                "start_time": 122.37045454545454,
                "end_time": 122.54772727272727,
                "pitch": 65,
                "velocity": 80,
                "duration": 0.17727272727273657,
                "tempo": 120.0
            },
            {
                "start_time": 122.55,
                "end_time": 122.58181818181818,
                "pitch": 67,
                "velocity": 80,
                "duration": 0.0318181818181813,
                "tempo": 120.0
            },
            {
                "start_time": 122.58181818181818,
                "end_time": 122.94772727272726,
                "pitch": 69,
                "velocity": 80,
                "duration": 0.36590909090908497,
                "tempo": 120.0
            },
            {
                "start_time": 122.94999999999999,
                "end_time": 123.35681818181817,
                "pitch": 71,
                "velocity": 80,
                "duration": 0.4068181818181813,
                "tempo": 120.0
            },
            {
                "start_time": 123.35909090909091,
                "end_time": 123.7590909090909,
                "pitch": 71,
                "velocity": 80,
                "duration": 0.3999999999999915,
                "tempo": 120.0
            },
            {
                "start_time": 123.76136363636363,
                "end_time": 125.36590909090908,
                "pitch": 73,
                "velocity": 80,
                "duration": 1.604545454545459,
                "tempo": 120.0
            },
            {
                "start_time": 125.36818181818181,
                "end_time": 127.175,
                "pitch": 72,
                "velocity": 80,
                "duration": 1.806818181818187,
                "tempo": 120.0
            },
            {
                "start_time": 127.17954545454545,
                "end_time": 127.19318181818181,
                "pitch": 69,
                "velocity": 4,
                "duration": 0.013636363636365445,
                "tempo": 120.0
            },
            {
                "start_time": 127.19545454545454,
                "end_time": 127.36363636363636,
                "pitch": 69,
                "velocity": 80,
                "duration": 0.16818181818182154,
                "tempo": 120.0
            },
            {
                "start_time": 127.36590909090908,
                "end_time": 127.57045454545454,
                "pitch": 67,
                "velocity": 80,
                "duration": 0.20454545454545325,
                "tempo": 120.0
            },
            {
                "start_time": 127.57045454545454,
                "end_time": 127.76818181818182,
                "pitch": 69,
                "velocity": 80,
                "duration": 0.19772727272727764,
                "tempo": 120.0
            },
            {
                "start_time": 127.77045454545454,
                "end_time": 128.16363636363636,
                "pitch": 71,
                "velocity": 80,
                "duration": 0.39318181818181586,
                "tempo": 120.0
            },
            {
                "start_time": 128.16590909090908,
                "end_time": 128.19772727272726,
                "pitch": 70,
                "velocity": 80,
                "duration": 0.0318181818181813,
                "tempo": 120.0
            },
            {
                "start_time": 102.44999999999999,
                "end_time": 128.19772727272726,
                "pitch": 78,
                "velocity": 80,
                "duration": 25.747727272727275,
                "tempo": 120.0
            },
            {
                "start_time": 128.19772727272726,
                "end_time": 128.23181818181817,
                "pitch": 66,
                "velocity": 80,
                "duration": 0.03409090909090651,
                "tempo": 120.0
            },
            {
                "start_time": 128.23181818181817,
                "end_time": 128.5659090909091,
                "pitch": 64,
                "velocity": 80,
                "duration": 0.3340909090909179,
                "tempo": 120.0
            },
            {
                "start_time": 102.83636363636363,
                "end_time": 128.5840909090909,
                "pitch": 56,
                "velocity": 80,
                "duration": 25.74772727272726,
                "tempo": 120.0
            },
            {
                "start_time": 128.5681818181818,
                "end_time": 128.5840909090909,
                "pitch": 66,
                "velocity": 80,
                "duration": 0.01590909090907644,
                "tempo": 120.0
            },
            {
                "start_time": 128.5840909090909,
                "end_time": 128.61590909090907,
                "pitch": 68,
                "velocity": 80,
                "duration": 0.0318181818181813,
                "tempo": 120.0
            },
            {
                "start_time": 128.61590909090907,
                "end_time": 128.65,
                "pitch": 72,
                "velocity": 80,
                "duration": 0.03409090909093493,
                "tempo": 120.0
            },
            {
                "start_time": 128.65,
                "end_time": 129.17045454545453,
                "pitch": 76,
                "velocity": 80,
                "duration": 0.5204545454545269,
                "tempo": 120.0
            },
            {
                "start_time": 129.17272727272726,
                "end_time": 129.57272727272726,
                "pitch": 74,
                "velocity": 80,
                "duration": 0.4000000000000057,
                "tempo": 120.0
            },
            {
                "start_time": 129.575,
                "end_time": 129.77272727272728,
                "pitch": 72,
                "velocity": 80,
                "duration": 0.19772727272729185,
                "tempo": 120.0
            },
            {
                "start_time": 129.775,
                "end_time": 130.3840909090909,
                "pitch": 74,
                "velocity": 80,
                "duration": 0.6090909090908951,
                "tempo": 120.0
            },
            {
                "start_time": 130.38636363636363,
                "end_time": 130.99090909090907,
                "pitch": 72,
                "velocity": 80,
                "duration": 0.6045454545454447,
                "tempo": 120.0
            },
            {
                "start_time": 130.99318181818182,
                "end_time": 131.5840909090909,
                "pitch": 71,
                "velocity": 80,
                "duration": 0.5909090909090651,
                "tempo": 120.0
            },
            {
                "start_time": 131.58636363636364,
                "end_time": 133.60454545454544,
                "pitch": 69,
                "velocity": 80,
                "duration": 2.0181818181818016,
                "tempo": 120.0
            },
            {
                "start_time": 133.60681818181817,
                "end_time": 133.8068181818182,
                "pitch": 71,
                "velocity": 80,
                "duration": 0.20000000000001705,
                "tempo": 120.0
            },
            {
                "start_time": 133.8090909090909,
                "end_time": 134.0090909090909,
                "pitch": 69,
                "velocity": 80,
                "duration": 0.19999999999998863,
                "tempo": 120.0
            },
            {
                "start_time": 134.01136363636363,
                "end_time": 134.2090909090909,
                "pitch": 71,
                "velocity": 80,
                "duration": 0.19772727272726343,
                "tempo": 120.0
            },
            {
                "start_time": 134.21136363636364,
                "end_time": 134.61136363636362,
                "pitch": 73,
                "velocity": 80,
                "duration": 0.39999999999997726,
                "tempo": 120.0
            },
            {
                "start_time": 134.61363636363635,
                "end_time": 134.64545454545453,
                "pitch": 72,
                "velocity": 80,
                "duration": 0.0318181818181813,
                "tempo": 120.0
            },
            {
                "start_time": 134.64545454545453,
                "end_time": 134.9318181818182,
                "pitch": 68,
                "velocity": 80,
                "duration": 0.28636363636366013,
                "tempo": 120.0
            },
            {
                "start_time": 109.21363636363635,
                "end_time": 134.94772727272726,
                "pitch": 55,
                "velocity": 80,
                "duration": 25.73409090909091,
                "tempo": 120.0
            },
            {
                "start_time": 134.9318181818182,
                "end_time": 134.94772727272726,
                "pitch": 67,
                "velocity": 80,
                "duration": 0.01590909090907644,
                "tempo": 120.0
            },
            {
                "start_time": 134.94772727272726,
                "end_time": 135.01363636363635,
                "pitch": 67,
                "velocity": 80,
                "duration": 0.06590909090908781,
                "tempo": 120.0
            },
            {
                "start_time": 135.01590909090908,
                "end_time": 135.04999999999998,
                "pitch": 69,
                "velocity": 80,
                "duration": 0.03409090909090651,
                "tempo": 120.0
            },
            {
                "start_time": 135.04999999999998,
                "end_time": 135.08181818181816,
                "pitch": 73,
                "velocity": 80,
                "duration": 0.0318181818181813,
                "tempo": 120.0
            },
            {
                "start_time": 122.37045454545454,
                "end_time": 135.11590909090907,
                "pitch": 77,
                "velocity": 80,
                "duration": 12.745454545454535,
                "tempo": 120.0
            },
            {
                "start_time": 135.08181818181816,
                "end_time": 135.11590909090907,
                "pitch": 77,
                "velocity": 80,
                "duration": 0.03409090909090651,
                "tempo": 120.0
            },
            {
                "start_time": 134.9318181818182,
                "end_time": 135.3340909090909,
                "pitch": 79,
                "velocity": 80,
                "duration": 0.40227272727270247,
                "tempo": 120.0
            },
            {
                "start_time": 135.11590909090907,
                "end_time": 135.3340909090909,
                "pitch": 79,
                "velocity": 80,
                "duration": 0.2181818181818187,
                "tempo": 120.0
            },
            {
                "start_time": 109.76590909090909,
                "end_time": 135.3340909090909,
                "pitch": 91,
                "velocity": 80,
                "duration": 25.5681818181818,
                "tempo": 120.0
            },
            {
                "start_time": 135.11590909090907,
                "end_time": 135.36818181818182,
                "pitch": 67,
                "velocity": 80,
                "duration": 0.2522727272727536,
                "tempo": 120.0
            },
            {
                "start_time": 135.3340909090909,
                "end_time": 135.36818181818182,
                "pitch": 79,
                "velocity": 80,
                "duration": 0.03409090909093493,
                "tempo": 120.0
            },
            {
                "start_time": 135.36818181818182,
                "end_time": 135.50227272727273,
                "pitch": 79,
                "velocity": 80,
                "duration": 0.13409090909090082,
                "tempo": 120.0
            },
            {
                "start_time": 135.3340909090909,
                "end_time": 135.50227272727273,
                "pitch": 91,
                "velocity": 80,
                "duration": 0.16818181818183575,
                "tempo": 120.0
            },
            {
                "start_time": 135.36818181818182,
                "end_time": 135.57045454545454,
                "pitch": 67,
                "velocity": 80,
                "duration": 0.20227272727271384,
                "tempo": 120.0
            },
            {
                "start_time": 135.50227272727273,
                "end_time": 135.57045454545454,
                "pitch": 79,
                "velocity": 80,
                "duration": 0.06818181818181301,
                "tempo": 120.0
            },
            {
                "start_time": 135.57045454545454,
                "end_time": 135.61818181818182,
                "pitch": 79,
                "velocity": 80,
                "duration": 0.04772727272728616,
                "tempo": 120.0
            },
            {
                "start_time": 135.62045454545455,
                "end_time": 136.02272727272725,
                "pitch": 77,
                "velocity": 80,
                "duration": 0.40227272727270247,
                "tempo": 120.0
            },
            {
                "start_time": 136.025,
                "end_time": 136.22272727272727,
                "pitch": 76,
                "velocity": 80,
                "duration": 0.19772727272726343,
                "tempo": 120.0
            },
            {
                "start_time": 136.225,
                "end_time": 136.825,
                "pitch": 77,
                "velocity": 80,
                "duration": 0.5999999999999943,
                "tempo": 120.0
            },
            {
                "start_time": 136.8272727272727,
                "end_time": 140.05454545454546,
                "pitch": 76,
                "velocity": 80,
                "duration": 3.227272727272748,
                "tempo": 120.0
            },
            {
                "start_time": 140.0568181818182,
                "end_time": 140.25681818181818,
                "pitch": 74,
                "velocity": 80,
                "duration": 0.19999999999998863,
                "tempo": 120.0
            },
            {
                "start_time": 140.25681818181818,
                "end_time": 140.45681818181816,
                "pitch": 76,
                "velocity": 80,
                "duration": 0.19999999999998863,
                "tempo": 120.0
            },
            {
                "start_time": 140.4590909090909,
                "end_time": 140.6590909090909,
                "pitch": 77,
                "velocity": 80,
                "duration": 0.20000000000001705,
                "tempo": 120.0
            },
            {
                "start_time": 140.66136363636363,
                "end_time": 143.275,
                "pitch": 75,
                "velocity": 80,
                "duration": 2.613636363636374,
                "tempo": 120.0
            },
            {
                "start_time": 143.27727272727273,
                "end_time": 143.47727272727272,
                "pitch": 72,
                "velocity": 80,
                "duration": 0.19999999999998863,
                "tempo": 120.0
            },
            {
                "start_time": 143.47727272727272,
                "end_time": 143.6772727272727,
                "pitch": 74,
                "velocity": 80,
                "duration": 0.19999999999998863,
                "tempo": 120.0
            },
            {
                "start_time": 143.67954545454543,
                "end_time": 143.87954545454545,
                "pitch": 76,
                "velocity": 80,
                "duration": 0.20000000000001705,
                "tempo": 120.0
            },
            {
                "start_time": 143.88181818181818,
                "end_time": 143.91363636363636,
                "pitch": 74,
                "velocity": 80,
                "duration": 0.0318181818181813,
                "tempo": 120.0
            },
            {
                "start_time": 143.91363636363636,
                "end_time": 146.50227272727273,
                "pitch": 72,
                "velocity": 80,
                "duration": 2.5886363636363683,
                "tempo": 120.0
            },
            {
                "start_time": 146.50454545454545,
                "end_time": 147.91136363636363,
                "pitch": 70,
                "velocity": 80,
                "duration": 1.4068181818181813,
                "tempo": 120.0
            },
            {
                "start_time": 135.57045454545454,
                "end_time": 147.92954545454543,
                "pitch": 67,
                "velocity": 80,
                "duration": 12.359090909090895,
                "tempo": 120.0
            },
            {
                "start_time": 147.91363636363636,
                "end_time": 147.92954545454543,
                "pitch": 67,
                "velocity": 80,
                "duration": 0.01590909090907644,
                "tempo": 120.0
            },
            {
                "start_time": 147.92954545454543,
                "end_time": 148.31363636363636,
                "pitch": 65,
                "velocity": 80,
                "duration": 0.38409090909092924,
                "tempo": 120.0
            },
            {
                "start_time": 148.3159090909091,
                "end_time": 148.35,
                "pitch": 67,
                "velocity": 80,
                "duration": 0.03409090909090651,
                "tempo": 120.0
            },
            {
                "start_time": 148.35,
                "end_time": 148.71818181818182,
                "pitch": 69,
                "velocity": 80,
                "duration": 0.3681818181818244,
                "tempo": 120.0
            },
            {
                "start_time": 148.72045454545454,
                "end_time": 149.12045454545455,
                "pitch": 71,
                "velocity": 80,
                "duration": 0.4000000000000057,
                "tempo": 120.0
            },
            {
                "start_time": 149.12272727272727,
                "end_time": 149.52272727272725,
                "pitch": 71,
                "velocity": 80,
                "duration": 0.39999999999997726,
                "tempo": 120.0
            },
            {
                "start_time": 149.525,
                "end_time": 149.5590909090909,
                "pitch": 73,
                "velocity": 80,
                "duration": 0.03409090909090651,
                "tempo": 120.0
            },
            {
                "start_time": 147.92954545454543,
                "end_time": 149.5909090909091,
                "pitch": 77,
                "velocity": 80,
                "duration": 1.6613636363636601,
                "tempo": 120.0
            },
            {
                "start_time": 149.5590909090909,
                "end_time": 149.5909090909091,
                "pitch": 77,
                "velocity": 80,
                "duration": 0.0318181818181813,
                "tempo": 120.0
            },
            {
                "start_time": 149.5909090909091,
                "end_time": 149.84318181818182,
                "pitch": 79,
                "velocity": 80,
                "duration": 0.2522727272727252,
                "tempo": 120.0
            },
            {
                "start_time": 135.50227272727273,
                "end_time": 149.84318181818182,
                "pitch": 91,
                "velocity": 80,
                "duration": 14.340909090909093,
                "tempo": 120.0
            },
            {
                "start_time": 149.5909090909091,
                "end_time": 149.8590909090909,
                "pitch": 67,
                "velocity": 80,
                "duration": 0.26818181818180165,
                "tempo": 120.0
            },
            {
                "start_time": 149.84318181818182,
                "end_time": 149.8590909090909,
                "pitch": 79,
                "velocity": 80,
                "duration": 0.01590909090907644,
                "tempo": 120.0
            },
            {
                "start_time": 149.8590909090909,
                "end_time": 149.99318181818182,
                "pitch": 79,
                "velocity": 80,
                "duration": 0.13409090909092924,
                "tempo": 120.0
            },
            {
                "start_time": 149.84318181818182,
                "end_time": 149.99318181818182,
                "pitch": 91,
                "velocity": 80,
                "duration": 0.15000000000000568,
                "tempo": 120.0
            },
            {
                "start_time": 149.8590909090909,
                "end_time": 150.06136363636364,
                "pitch": 67,
                "velocity": 80,
                "duration": 0.20227272727274226,
                "tempo": 120.0
            },
            {
                "start_time": 149.99318181818182,
                "end_time": 150.06136363636364,
                "pitch": 79,
                "velocity": 80,
                "duration": 0.06818181818181301,
                "tempo": 120.0
            },
            {
                "start_time": 150.06136363636364,
                "end_time": 150.19545454545454,
                "pitch": 79,
                "velocity": 80,
                "duration": 0.13409090909090082,
                "tempo": 120.0
            },
            {
                "start_time": 149.99318181818182,
                "end_time": 150.19545454545454,
                "pitch": 91,
                "velocity": 80,
                "duration": 0.20227272727271384,
                "tempo": 120.0
            },
            {
                "start_time": 150.19545454545454,
                "end_time": 150.26136363636363,
                "pitch": 79,
                "velocity": 80,
                "duration": 0.06590909090908781,
                "tempo": 120.0
            },
            {
                "start_time": 150.06136363636364,
                "end_time": 150.26363636363635,
                "pitch": 67,
                "velocity": 80,
                "duration": 0.20227272727271384,
                "tempo": 120.0
            },
            {
                "start_time": 150.26136363636363,
                "end_time": 150.26363636363635,
                "pitch": 67,
                "velocity": 80,
                "duration": 0.0022727272727252057,
                "tempo": 120.0
            },
            {
                "start_time": 150.26363636363635,
                "end_time": 150.39772727272725,
                "pitch": 79,
                "velocity": 80,
                "duration": 0.13409090909090082,
                "tempo": 120.0
            },
            {
                "start_time": 150.19545454545454,
                "end_time": 150.39772727272725,
                "pitch": 91,
                "velocity": 80,
                "duration": 0.20227272727271384,
                "tempo": 120.0
            },
            {
                "start_time": 150.39772727272725,
                "end_time": 150.46363636363637,
                "pitch": 79,
                "velocity": 80,
                "duration": 0.06590909090911623,
                "tempo": 120.0
            },
            {
                "start_time": 150.46363636363637,
                "end_time": 150.59772727272727,
                "pitch": 79,
                "velocity": 80,
                "duration": 0.13409090909090082,
                "tempo": 120.0
            },
            {
                "start_time": 150.39772727272725,
                "end_time": 150.59772727272727,
                "pitch": 91,
                "velocity": 80,
                "duration": 0.20000000000001705,
                "tempo": 120.0
            },
            {
                "start_time": 150.46363636363637,
                "end_time": 150.66590909090908,
                "pitch": 67,
                "velocity": 80,
                "duration": 0.20227272727271384,
                "tempo": 120.0
            },
            {
                "start_time": 150.59772727272727,
                "end_time": 150.66590909090908,
                "pitch": 79,
                "velocity": 80,
                "duration": 0.06818181818181301,
                "tempo": 120.0
            },
            {
                "start_time": 150.66590909090908,
                "end_time": 150.79999999999998,
                "pitch": 79,
                "velocity": 80,
                "duration": 0.13409090909090082,
                "tempo": 120.0
            },
            {
                "start_time": 150.59772727272727,
                "end_time": 150.79999999999998,
                "pitch": 91,
                "velocity": 80,
                "duration": 0.20227272727271384,
                "tempo": 120.0
            },
            {
                "start_time": 150.66590909090908,
                "end_time": 150.86818181818182,
                "pitch": 67,
                "velocity": 80,
                "duration": 0.20227272727274226,
                "tempo": 120.0
            },
            {
                "start_time": 150.79999999999998,
                "end_time": 150.86818181818182,
                "pitch": 79,
                "velocity": 80,
                "duration": 0.06818181818184144,
                "tempo": 120.0
            },
            {
                "start_time": 150.86818181818182,
                "end_time": 151.00227272727273,
                "pitch": 79,
                "velocity": 80,
                "duration": 0.13409090909090082,
                "tempo": 120.0
            },
            {
                "start_time": 150.79999999999998,
                "end_time": 151.00227272727273,
                "pitch": 91,
                "velocity": 80,
                "duration": 0.20227272727274226,
                "tempo": 120.0
            },
            {
                "start_time": 150.86818181818182,
                "end_time": 151.0681818181818,
                "pitch": 67,
                "velocity": 80,
                "duration": 0.19999999999998863,
                "tempo": 120.0
            },
            {
                "start_time": 151.00227272727273,
                "end_time": 151.0681818181818,
                "pitch": 79,
                "velocity": 80,
                "duration": 0.06590909090908781,
                "tempo": 120.0
            },
            {
                "start_time": 151.0681818181818,
                "end_time": 151.1340909090909,
                "pitch": 79,
                "velocity": 80,
                "duration": 0.06590909090908781,
                "tempo": 120.0
            },
            {
                "start_time": 151.13636363636363,
                "end_time": 152.95,
                "pitch": 77,
                "velocity": 80,
                "duration": 1.8136363636363626,
                "tempo": 120.0
            },
            {
                "start_time": 153.32954545454544,
                "end_time": 153.34545454545454,
                "pitch": 74,
                "velocity": 4,
                "duration": 0.01590909090910486,
                "tempo": 120.0
            },
            {
                "start_time": 153.34772727272727,
                "end_time": 153.94545454545454,
                "pitch": 74,
                "velocity": 80,
                "duration": 0.5977272727272691,
                "tempo": 120.0
            },
            {
                "start_time": 153.94772727272726,
                "end_time": 154.14772727272725,
                "pitch": 76,
                "velocity": 80,
                "duration": 0.19999999999998863,
                "tempo": 120.0
            },
            {
                "start_time": 154.15,
                "end_time": 154.35227272727272,
                "pitch": 77,
                "velocity": 80,
                "duration": 0.20227272727271384,
                "tempo": 120.0
            },
            {
                "start_time": 154.35454545454544,
                "end_time": 154.5590909090909,
                "pitch": 75,
                "velocity": 80,
                "duration": 0.20454545454546746,
                "tempo": 120.0
            },
            {
                "start_time": 151.0681818181818,
                "end_time": 154.59545454545454,
                "pitch": 67,
                "velocity": 80,
                "duration": 3.527272727272731,
                "tempo": 120.0
            },
            {
                "start_time": 154.56136363636364,
                "end_time": 154.59545454545454,
                "pitch": 76,
                "velocity": 80,
                "duration": 0.03409090909090651,
                "tempo": 120.0
            },
            {
                "start_time": 154.59545454545454,
                "end_time": 154.76136363636363,
                "pitch": 79,
                "velocity": 80,
                "duration": 0.16590909090908212,
                "tempo": 120.0
            },
            {
                "start_time": 154.76363636363635,
                "end_time": 155.16363636363636,
                "pitch": 77,
                "velocity": 80,
                "duration": 0.4000000000000057,
                "tempo": 120.0
            },
            {
                "start_time": 155.16590909090908,
                "end_time": 155.5681818181818,
                "pitch": 76,
                "velocity": 80,
                "duration": 0.4022727272727309,
                "tempo": 120.0
            },
            {
                "start_time": 155.57045454545454,
                "end_time": 156.17272727272726,
                "pitch": 77,
                "velocity": 80,
                "duration": 0.6022727272727195,
                "tempo": 120.0
            },
            {
                "start_time": 156.17499999999998,
                "end_time": 156.37272727272727,
                "pitch": 76,
                "velocity": 80,
                "duration": 0.19772727272729185,
                "tempo": 120.0
            },
            {
                "start_time": 156.375,
                "end_time": 156.775,
                "pitch": 77,
                "velocity": 80,
                "duration": 0.4000000000000057,
                "tempo": 120.0
            },
            {
                "start_time": 156.77727272727273,
                "end_time": 157.16136363636363,
                "pitch": 79,
                "velocity": 80,
                "duration": 0.3840909090909008,
                "tempo": 120.0
            },
            {
                "start_time": 151.00227272727273,
                "end_time": 157.16136363636363,
                "pitch": 91,
                "velocity": 80,
                "duration": 6.1590909090909065,
                "tempo": 120.0
            },
            {
                "start_time": 157.16136363636363,
                "end_time": 157.1772727272727,
                "pitch": 79,
                "velocity": 80,
                "duration": 0.01590909090907644,
                "tempo": 120.0
            },
            {
                "start_time": 157.17954545454543,
                "end_time": 157.21363636363637,
                "pitch": 81,
                "velocity": 80,
                "duration": 0.03409090909093493,
                "tempo": 120.0
            },
            {
                "start_time": 157.21363636363637,
                "end_time": 157.78181818181818,
                "pitch": 83,
                "velocity": 80,
                "duration": 0.568181818181813,
                "tempo": 120.0
            },
            {
                "start_time": 157.7840909090909,
                "end_time": 157.9840909090909,
                "pitch": 84,
                "velocity": 80,
                "duration": 0.19999999999998863,
                "tempo": 120.0
            },
            {
                "start_time": 157.98636363636362,
                "end_time": 158.38636363636363,
                "pitch": 83,
                "velocity": 80,
                "duration": 0.4000000000000057,
                "tempo": 120.0
            },
            {
                "start_time": 158.38863636363635,
                "end_time": 158.42045454545453,
                "pitch": 81,
                "velocity": 80,
                "duration": 0.0318181818181813,
                "tempo": 120.0
            },
            {
                "start_time": 158.42045454545453,
                "end_time": 158.78863636363636,
                "pitch": 77,
                "velocity": 80,
                "duration": 0.3681818181818244,
                "tempo": 120.0
            },
            {
                "start_time": 128.19772727272726,
                "end_time": 158.8068181818182,
                "pitch": 78,
                "velocity": 80,
                "duration": 30.609090909090924,
                "tempo": 120.0
            },
            {
                "start_time": 158.78863636363636,
                "end_time": 158.8068181818182,
                "pitch": 78,
                "velocity": 80,
                "duration": 0.018181818181830067,
                "tempo": 120.0
            },
            {
                "start_time": 88.28863636363636,
                "end_time": 158.83863636363637,
                "pitch": 80,
                "velocity": 80,
                "duration": 70.55000000000001,
                "tempo": 120.0
            },
            {
                "start_time": 158.8068181818182,
                "end_time": 158.83863636363637,
                "pitch": 80,
                "velocity": 80,
                "duration": 0.0318181818181813,
                "tempo": 120.0
            },
            {
                "start_time": 158.83863636363637,
                "end_time": 159.3931818181818,
                "pitch": 83,
                "velocity": 80,
                "duration": 0.5545454545454334,
                "tempo": 120.0
            },
            {
                "start_time": 159.39545454545453,
                "end_time": 160.19772727272726,
                "pitch": 81,
                "velocity": 80,
                "duration": 0.8022727272727366,
                "tempo": 120.0
            },
            {
                "start_time": 160.39772727272725,
                "end_time": 160.59772727272727,
                "pitch": 81,
                "velocity": 80,
                "duration": 0.20000000000001705,
                "tempo": 120.0
            },
            {
                "start_time": 160.6,
                "end_time": 160.79772727272726,
                "pitch": 83,
                "velocity": 80,
                "duration": 0.19772727272726343,
                "tempo": 120.0
            },
            {
                "start_time": 160.79999999999998,
                "end_time": 160.8340909090909,
                "pitch": 86,
                "velocity": 80,
                "duration": 0.03409090909090651,
                "tempo": 120.0
            },
            {
                "start_time": 158.42045454545453,
                "end_time": 161.40227272727273,
                "pitch": 89,
                "velocity": 80,
                "duration": 2.9818181818181984,
                "tempo": 120.0
            },
            {
                "start_time": 160.8340909090909,
                "end_time": 161.40227272727273,
                "pitch": 89,
                "velocity": 80,
                "duration": 0.5681818181818414,
                "tempo": 120.0
            },
            {
                "start_time": 161.40454545454546,
                "end_time": 161.6090909090909,
                "pitch": 88,
                "velocity": 80,
                "duration": 0.20454545454543904,
                "tempo": 120.0
            },
            {
                "start_time": 161.61136363636362,
                "end_time": 162.01136363636363,
                "pitch": 86,
                "velocity": 80,
                "duration": 0.4000000000000057,
                "tempo": 120.0
            },
            {
                "start_time": 162.01363636363635,
                "end_time": 162.61818181818182,
                "pitch": 88,
                "velocity": 80,
                "duration": 0.6045454545454731,
                "tempo": 120.0
            },
            {
                "start_time": 162.62045454545455,
                "end_time": 162.65454545454546,
                "pitch": 86,
                "velocity": 80,
                "duration": 0.03409090909090651,
                "tempo": 120.0
            },
            {
                "start_time": 162.65454545454546,
                "end_time": 163.42272727272726,
                "pitch": 84,
                "velocity": 80,
                "duration": 0.7681818181818016,
                "tempo": 120.0
            },
            {
                "start_time": 163.42499999999998,
                "end_time": 163.62272727272727,
                "pitch": 83,
                "velocity": 80,
                "duration": 0.19772727272729185,
                "tempo": 120.0
            },
            {
                "start_time": 163.625,
                "end_time": 164.02727272727273,
                "pitch": 84,
                "velocity": 80,
                "duration": 0.4022727272727309,
                "tempo": 120.0
            },
            {
                "start_time": 164.02954545454546,
                "end_time": 164.42954545454543,
                "pitch": 86,
                "velocity": 80,
                "duration": 0.39999999999997726,
                "tempo": 120.0
            },
            {
                "start_time": 164.4318181818182,
                "end_time": 164.8340909090909,
                "pitch": 88,
                "velocity": 80,
                "duration": 0.40227272727270247,
                "tempo": 120.0
            },
            {
                "start_time": 164.83636363636361,
                "end_time": 165.83863636363637,
                "pitch": 88,
                "velocity": 80,
                "duration": 1.0022727272727536,
                "tempo": 120.0
            },
            {
                "start_time": 166.22727272727272,
                "end_time": 166.24090909090907,
                "pitch": 86,
                "velocity": 4,
                "duration": 0.013636363636351234,
                "tempo": 120.0
            },
            {
                "start_time": 166.2431818181818,
                "end_time": 166.84772727272727,
                "pitch": 74,
                "velocity": 80,
                "duration": 0.6045454545454731,
                "tempo": 120.0
            },
            {
                "start_time": 166.84772727272727,
                "end_time": 167.04772727272726,
                "pitch": 76,
                "velocity": 80,
                "duration": 0.19999999999998863,
                "tempo": 120.0
            },
            {
                "start_time": 167.04999999999998,
                "end_time": 167.24772727272727,
                "pitch": 77,
                "velocity": 80,
                "duration": 0.19772727272729185,
                "tempo": 120.0
            },
            {
                "start_time": 167.25,
                "end_time": 167.45,
                "pitch": 75,
                "velocity": 80,
                "duration": 0.19999999999998863,
                "tempo": 120.0
            },
            {
                "start_time": 154.59545454545454,
                "end_time": 167.4840909090909,
                "pitch": 67,
                "velocity": 80,
                "duration": 12.888636363636351,
                "tempo": 120.0
            },
            {
                "start_time": 167.45,
                "end_time": 167.4840909090909,
                "pitch": 76,
                "velocity": 80,
                "duration": 0.03409090909090651,
                "tempo": 120.0
            },
            {
                "start_time": 167.4840909090909,
                "end_time": 167.65454545454546,
                "pitch": 79,
                "velocity": 80,
                "duration": 0.17045454545456096,
                "tempo": 120.0
            },
            {
                "start_time": 167.65681818181818,
                "end_time": 168.0568181818182,
                "pitch": 77,
                "velocity": 80,
                "duration": 0.4000000000000057,
                "tempo": 120.0
            },
            {
                "start_time": 168.0590909090909,
                "end_time": 168.45681818181816,
                "pitch": 76,
                "velocity": 80,
                "duration": 0.39772727272725206,
                "tempo": 120.0
            },
            {
                "start_time": 168.4590909090909,
                "end_time": 169.0681818181818,
                "pitch": 77,
                "velocity": 80,
                "duration": 0.6090909090909236,
                "tempo": 120.0
            },
            {
                "start_time": 169.0681818181818,
                "end_time": 169.26363636363635,
                "pitch": 76,
                "velocity": 80,
                "duration": 0.19545454545453822,
                "tempo": 120.0
            },
            {
                "start_time": 169.26590909090908,
                "end_time": 169.66363636363636,
                "pitch": 77,
                "velocity": 80,
                "duration": 0.3977272727272805,
                "tempo": 120.0
            },
            {
                "start_time": 169.66590909090908,
                "end_time": 169.98863636363635,
                "pitch": 79,
                "velocity": 80,
                "duration": 0.3227272727272634,
                "tempo": 120.0
            },
            {
                "start_time": 157.16136363636363,
                "end_time": 169.98863636363635,
                "pitch": 91,
                "velocity": 80,
                "duration": 12.827272727272714,
                "tempo": 120.0
            },
            {
                "start_time": 167.4840909090909,
                "end_time": 170.03636363636363,
                "pitch": 67,
                "velocity": 80,
                "duration": 2.5522727272727366,
                "tempo": 120.0
            },
            {
                "start_time": 169.98863636363635,
                "end_time": 170.03636363636363,
                "pitch": 79,
                "velocity": 80,
                "duration": 0.04772727272728616,
                "tempo": 120.0
            },
            {
                "start_time": 170.03636363636363,
                "end_time": 170.0681818181818,
                "pitch": 79,
                "velocity": 80,
                "duration": 0.0318181818181813,
                "tempo": 120.0
            },
            {
                "start_time": 170.07045454545454,
                "end_time": 170.10227272727272,
                "pitch": 81,
                "velocity": 80,
                "duration": 0.0318181818181813,
                "tempo": 120.0
            },
            {
                "start_time": 170.10227272727272,
                "end_time": 170.67499999999998,
                "pitch": 83,
                "velocity": 80,
                "duration": 0.5727272727272634,
                "tempo": 120.0
            },
            {
                "start_time": 170.67499999999998,
                "end_time": 170.87727272727273,
                "pitch": 84,
                "velocity": 80,
                "duration": 0.20227272727274226,
                "tempo": 120.0
            },
            {
                "start_time": 170.87954545454545,
                "end_time": 171.27954545454546,
                "pitch": 83,
                "velocity": 80,
                "duration": 0.4000000000000057,
                "tempo": 120.0
            },
            {
                "start_time": 171.28181818181818,
                "end_time": 171.3159090909091,
                "pitch": 81,
                "velocity": 80,
                "duration": 0.03409090909090651,
                "tempo": 120.0
            },
            {
                "start_time": 171.3159090909091,
                "end_time": 171.6818181818182,
                "pitch": 77,
                "velocity": 80,
                "duration": 0.3659090909090992,
                "tempo": 120.0
            },
            {
                "start_time": 158.8068181818182,
                "end_time": 171.7,
                "pitch": 68,
                "velocity": 80,
                "duration": 12.893181818181802,
                "tempo": 120.0
            },
            {
                "start_time": 171.6840909090909,
                "end_time": 171.7,
                "pitch": 78,
                "velocity": 80,
                "duration": 0.01590909090907644,
                "tempo": 120.0
            },
            {
                "start_time": 171.7,
                "end_time": 171.7340909090909,
                "pitch": 80,
                "velocity": 80,
                "duration": 0.03409090909090651,
                "tempo": 120.0
            },
            {
                "start_time": 171.7340909090909,
                "end_time": 172.2840909090909,
                "pitch": 83,
                "velocity": 80,
                "duration": 0.5500000000000114,
                "tempo": 120.0
            },
            {
                "start_time": 172.28636363636363,
                "end_time": 173.0909090909091,
                "pitch": 81,
                "velocity": 80,
                "duration": 0.8045454545454618,
                "tempo": 120.0
            },
            {
                "start_time": 173.29545454545453,
                "end_time": 173.49545454545455,
                "pitch": 81,
                "velocity": 80,
                "duration": 0.20000000000001705,
                "tempo": 120.0
            },
            {
                "start_time": 173.49772727272727,
                "end_time": 173.69545454545454,
                "pitch": 83,
                "velocity": 80,
                "duration": 0.19772727272726343,
                "tempo": 120.0
            },
            {
                "start_time": 173.69772727272726,
                "end_time": 174.09772727272727,
                "pitch": 86,
                "velocity": 80,
                "duration": 0.4000000000000057,
                "tempo": 120.0
            },
            {
                "start_time": 174.09772727272727,
                "end_time": 174.29772727272726,
                "pitch": 88,
                "velocity": 80,
                "duration": 0.19999999999998863,
                "tempo": 120.0
            },
            {
                "start_time": 171.3159090909091,
                "end_time": 174.5,
                "pitch": 89,
                "velocity": 80,
                "duration": 3.184090909090912,
                "tempo": 120.0
            },
            {
                "start_time": 174.29999999999998,
                "end_time": 174.5,
                "pitch": 89,
                "velocity": 80,
                "duration": 0.20000000000001705,
                "tempo": 120.0
            },
            {
                "start_time": 174.50227272727273,
                "end_time": 174.90227272727273,
                "pitch": 88,
                "velocity": 80,
                "duration": 0.4000000000000057,
                "tempo": 120.0
            },
            {
                "start_time": 175.3090909090909,
                "end_time": 175.325,
                "pitch": 90,
                "velocity": 80,
                "duration": 0.01590909090907644,
                "tempo": 120.0
            },
            {
                "start_time": 175.325,
                "end_time": 175.3590909090909,
                "pitch": 92,
                "velocity": 80,
                "duration": 0.03409090909090651,
                "tempo": 120.0
            },
            {
                "start_time": 175.3590909090909,
                "end_time": 175.39090909090908,
                "pitch": 96,
                "velocity": 80,
                "duration": 0.0318181818181813,
                "tempo": 120.0
            },
            {
                "start_time": 175.39090909090908,
                "end_time": 175.7090909090909,
                "pitch": 98,
                "velocity": 80,
                "duration": 0.318181818181813,
                "tempo": 120.0
            },
            {
                "start_time": 175.7090909090909,
                "end_time": 175.9090909090909,
                "pitch": 100,
                "velocity": 80,
                "duration": 0.20000000000001705,
                "tempo": 120.0
            },
            {
                "start_time": 175.91136363636363,
                "end_time": 176.1090909090909,
                "pitch": 101,
                "velocity": 80,
                "duration": 0.19772727272726343,
                "tempo": 120.0
            },
            {
                "start_time": 176.11136363636362,
                "end_time": 176.51363636363635,
                "pitch": 100,
                "velocity": 80,
                "duration": 0.4022727272727309,
                "tempo": 120.0
            },
            {
                "start_time": 176.51590909090908,
                "end_time": 176.54772727272726,
                "pitch": 98,
                "velocity": 4,
                "duration": 0.0318181818181813,
                "tempo": 120.0
            },
            {
                "start_time": 176.54772727272726,
                "end_time": 176.58181818181816,
                "pitch": 94,
                "velocity": 4,
                "duration": 0.03409090909090651,
                "tempo": 120.0
            },
            {
                "start_time": 87.93636363636364,
                "end_time": 176.58181818181816,
                "pitch": 102,
                "velocity": 4,
                "duration": 88.64545454545453,
                "tempo": 120.0
            },
            {
                "start_time": 176.58181818181816,
                "end_time": 176.61590909090907,
                "pitch": 90,
                "velocity": 4,
                "duration": 0.03409090909090651,
                "tempo": 120.0
            },
            {
                "start_time": 176.61590909090907,
                "end_time": 176.64999999999998,
                "pitch": 87,
                "velocity": 4,
                "duration": 0.03409090909090651,
                "tempo": 120.0
            },
            {
                "start_time": 176.64999999999998,
                "end_time": 176.71363636363637,
                "pitch": 84,
                "velocity": 4,
                "duration": 0.06363636363639102,
                "tempo": 120.0
            },
            {
                "start_time": 176.7159090909091,
                "end_time": 176.75,
                "pitch": 86,
                "velocity": 80,
                "duration": 0.03409090909090651,
                "tempo": 120.0
            },
            {
                "start_time": 176.75,
                "end_time": 176.91590909090908,
                "pitch": 88,
                "velocity": 80,
                "duration": 0.16590909090908212,
                "tempo": 120.0
            },
            {
                "start_time": 175.325,
                "end_time": 176.9340909090909,
                "pitch": 80,
                "velocity": 80,
                "duration": 1.6090909090909236,
                "tempo": 120.0
            },
            {
                "start_time": 176.9181818181818,
                "end_time": 176.9340909090909,
                "pitch": 90,
                "velocity": 80,
                "duration": 0.01590909090910486,
                "tempo": 120.0
            },
            {
                "start_time": 176.9340909090909,
                "end_time": 177.1340909090909,
                "pitch": 92,
                "velocity": 80,
                "duration": 0.19999999999998863,
                "tempo": 120.0
            }
        ]
    }
}