{
    "track_id": "01 Opening Theme",
    "mood": "angry",
    "instruments": {
        "French Horn": [
            {
                "start_time": 0.00909090909090909,
                "end_time": 0.20681818181818182,
                "pitch": 33,
                "velocity": 64,
                "duration": 0.19772727272727272,
                "tempo": 120.0
            },
            {
                "start_time": 0.20681818181818182,
                "end_time": 0.4159090909090909,
                "pitch": 36,
                "velocity": 64,
                "duration": 0.20909090909090908,
                "tempo": 120.0
            }
        ],
        "Electric Guitar (clean)": [
            {
                "start_time": 0.41818181818181815,
                "end_time": 3.0227272727272725,
                "pitch": 38,
                "velocity": 64,
                "duration": 2.6045454545454545,
                "tempo": 120.0
            },
            {
                "start_time": 3.2249999999999996,
                "end_time": 3.4227272727272724,
                "pitch": 38,
                "velocity": 64,
                "duration": 0.19772727272727275,
                "tempo": 120.0
            },
            {
                "start_time": 3.425,
                "end_time": 3.6295454545454544,
                "pitch": 36,
                "velocity": 64,
                "duration": 0.20454545454545459,
                "tempo": 120.0
            },
            {
                "start_time": 3.6295454545454544,
                "end_time": 6.2340909090909085,
                "pitch": 34,
                "velocity": 64,
                "duration": 2.604545454545454,
                "tempo": 120.0
            },
            {
                "start_time": 6.4386363636363635,
                "end_time": 6.638636363636364,
                "pitch": 34,
                "velocity": 64,
                "duration": 0.20000000000000018,
                "tempo": 120.0
            },
            {
                "start_time": 6.638636363636364,
                "end_time": 6.843181818181818,
                "pitch": 33,
                "velocity": 64,
                "duration": 0.20454545454545414,
                "tempo": 120.0
            },
            {
                "start_time": 6.845454545454545,
                "end_time": 9.463636363636363,
                "pitch": 31,
                "velocity": 64,
                "duration": 2.618181818181818,
                "tempo": 120.0
            },
            {
                "start_time": 9.665909090909091,
                "end_time": 9.86590909090909,
                "pitch": 31,
                "velocity": 64,
                "duration": 0.1999999999999993,
                "tempo": 120.0
            },
            {
                "start_time": 9.868181818181817,
                "end_time": 10.068181818181818,
                "pitch": 33,
                "velocity": 64,
                "duration": 0.20000000000000107,
                "tempo": 120.0
            },
            {
                "start_time": 10.070454545454545,
                "end_time": 12.686363636363636,
                "pitch": 34,
                "velocity": 64,
                "duration": 2.6159090909090903,
                "tempo": 120.0
            },
            {
                "start_time": 12.888636363636364,
                "end_time": 13.086363636363636,
                "pitch": 33,
                "velocity": 64,
                "duration": 0.1977272727272723,
                "tempo": 120.0
            },
            {
                "start_time": 13.088636363636363,
                "end_time": 13.293181818181818,
                "pitch": 36,
                "velocity": 64,
                "duration": 0.20454545454545503,
                "tempo": 120.0
            },
            {
                "start_time": 13.293181818181818,
                "end_time": 13.695454545454545,
                "pitch": 38,
                "velocity": 64,
                "duration": 0.40227272727272734,
                "tempo": 120.0
            },
            {
                "start_time": 13.697727272727272,
                "end_time": 13.895454545454545,
                "pitch": 50,
                "velocity": 64,
                "duration": 0.1977272727272723,
                "tempo": 120.0
            },
            {
                "start_time": 13.895454545454545,
                "end_time": 14.304545454545455,
                "pitch": 38,
                "velocity": 64,
                "duration": 0.40909090909091006,
                "tempo": 120.0
            },
            {
                "start_time": 14.304545454545455,
                "end_time": 14.70681818181818,
                "pitch": 38,
                "velocity": 64,
                "duration": 0.40227272727272556,
                "tempo": 120.0
            },
            {
                "start_time": 14.70681818181818,
                "end_time": 15.109090909090908,
                "pitch": 38,
                "velocity": 64,
                "duration": 0.40227272727272734,
                "tempo": 120.0
            },
            {
                "start_time": 15.111363636363636,
                "end_time": 15.311363636363636,
                "pitch": 38,
                "velocity": 64,
                "duration": 0.1999999999999993,
                "tempo": 120.0
            },
            {
                "start_time": 15.313636363636363,
                "end_time": 15.511363636363635,
                "pitch": 50,
                "velocity": 64,
                "duration": 0.1977272727272723,
                "tempo": 120.0
            },
            {
                "start_time": 15.513636363636364,
                "end_time": 15.913636363636362,
                "pitch": 38,
                "velocity": 64,
                "duration": 0.3999999999999986,
                "tempo": 120.0
            },
            {
                "start_time": 15.915909090909091,
                "end_time": 16.118181818181817,
                "pitch": 38,
                "velocity": 64,
                "duration": 0.20227272727272627,
                "tempo": 120.0
            },
            {
                "start_time": 16.118181818181817,
                "end_time": 16.31590909090909,
                "pitch": 38,
                "velocity": 64,
                "duration": 0.19772727272727408,
                "tempo": 120.0
            },
            {
                "start_time": 16.318181818181817,
                "end_time": 16.51590909090909,
                "pitch": 36,
                "velocity": 64,
                "duration": 0.19772727272727408,
                "tempo": 120.0
            },
            {
                "start_time": 16.518181818181816,
                "end_time": 16.920454545454543,
                "pitch": 34,
                "velocity": 64,
                "duration": 0.40227272727272734,
                "tempo": 120.0
            },
            {
                "start_time": 16.922727272727272,
                "end_time": 17.12272727272727,
                "pitch": 46,
                "velocity": 64,
                "duration": 0.1999999999999993,
                "tempo": 120.0
            },
            {
                "start_time": 17.12272727272727,
                "end_time": 17.525,
                "pitch": 34,
                "velocity": 64,
                "duration": 0.40227272727272734,
                "tempo": 120.0
            },
            {
                "start_time": 17.527272727272727,
                "end_time": 17.922727272727272,
                "pitch": 34,
                "velocity": 64,
                "duration": 0.3954545454545446,
                "tempo": 120.0
            },
            {
                "start_time": 17.925,
                "end_time": 18.32272727272727,
                "pitch": 34,
                "velocity": 64,
                "duration": 0.3977272727272698,
                "tempo": 120.0
            },
            {
                "start_time": 18.325,
                "end_time": 18.525,
                "pitch": 34,
                "velocity": 64,
                "duration": 0.1999999999999993,
                "tempo": 120.0
            },
            {
                "start_time": 18.527272727272727,
                "end_time": 18.727272727272727,
                "pitch": 46,
                "velocity": 64,
                "duration": 0.1999999999999993,
                "tempo": 120.0
            },
            {
                "start_time": 18.729545454545455,
                "end_time": 19.127272727272725,
                "pitch": 34,
                "velocity": 64,
                "duration": 0.3977272727272698,
                "tempo": 120.0
            },
            {
                "start_time": 19.129545454545454,
                "end_time": 19.329545454545453,
                "pitch": 34,
                "velocity": 64,
                "duration": 0.1999999999999993,
                "tempo": 120.0
            },
            {
                "start_time": 19.331818181818182,
                "end_time": 19.529545454545453,
                "pitch": 34,
                "velocity": 64,
                "duration": 0.19772727272727053,
                "tempo": 120.0
            },
            {
                "start_time": 19.529545454545453,
                "end_time": 19.727272727272727,
                "pitch": 33,
                "velocity": 64,
                "duration": 0.19772727272727408,
                "tempo": 120.0
            },
            {
                "start_time": 19.729545454545452,
                "end_time": 20.13181818181818,
                "pitch": 31,
                "velocity": 64,
                "duration": 0.40227272727272734,
                "tempo": 120.0
            },
            {
                "start_time": 20.13181818181818,
                "end_time": 20.331818181818182,
                "pitch": 43,
                "velocity": 64,
                "duration": 0.20000000000000284,
                "tempo": 120.0
            },
            {
                "start_time": 20.334090909090907,
                "end_time": 20.73409090909091,
                "pitch": 31,
                "velocity": 64,
                "duration": 0.40000000000000213,
                "tempo": 120.0
            },
            {
                "start_time": 20.736363636363635,
                "end_time": 20.936363636363634,
                "pitch": 31,
                "velocity": 64,
                "duration": 0.1999999999999993,
                "tempo": 120.0
            },
            {
                "start_time": 20.938636363636363,
                "end_time": 21.136363636363637,
                "pitch": 33,
                "velocity": 64,
                "duration": 0.19772727272727408,
                "tempo": 120.0
            },
            {
                "start_time": 21.138636363636362,
                "end_time": 21.345454545454544,
                "pitch": 34,
                "velocity": 64,
                "duration": 0.206818181818182,
                "tempo": 120.0
            },
            {
                "start_time": 21.345454545454544,
                "end_time": 21.745454545454546,
                "pitch": 36,
                "velocity": 64,
                "duration": 0.40000000000000213,
                "tempo": 120.0
            },
            {
                "start_time": 21.745454545454546,
                "end_time": 21.94090909090909,
                "pitch": 48,
                "velocity": 64,
                "duration": 0.19545454545454533,
                "tempo": 120.0
            },
            {
                "start_time": 21.943181818181817,
                "end_time": 22.352272727272727,
                "pitch": 36,
                "velocity": 64,
                "duration": 0.40909090909091006,
                "tempo": 120.0
            },
            {
                "start_time": 22.354545454545452,
                "end_time": 22.554545454545455,
                "pitch": 34,
                "velocity": 64,
                "duration": 0.20000000000000284,
                "tempo": 120.0
            },
            {
                "start_time": 22.554545454545455,
                "end_time": 22.752272727272725,
                "pitch": 38,
                "velocity": 64,
                "duration": 0.19772727272727053,
                "tempo": 120.0
            },
            {
                "start_time": 22.752272727272725,
                "end_time": 22.956818181818182,
                "pitch": 40,
                "velocity": 64,
                "duration": 0.2045454545454568,
                "tempo": 120.0
            },
            {
                "start_time": 22.956818181818182,
                "end_time": 23.35681818181818,
                "pitch": 41,
                "velocity": 64,
                "duration": 0.3999999999999986,
                "tempo": 120.0
            },
            {
                "start_time": 23.35681818181818,
                "end_time": 23.55681818181818,
                "pitch": 53,
                "velocity": 64,
                "duration": 0.1999999999999993,
                "tempo": 120.0
            },
            {
                "start_time": 23.55909090909091,
                "end_time": 23.959090909090907,
                "pitch": 41,
                "velocity": 64,
                "duration": 0.3999999999999986,
                "tempo": 120.0
            },
            {
                "start_time": 23.961363636363636,
                "end_time": 24.161363636363635,
                "pitch": 41,
                "velocity": 64,
                "duration": 0.1999999999999993,
                "tempo": 120.0
            },
            {
                "start_time": 24.161363636363635,
                "end_time": 24.35909090909091,
                "pitch": 53,
                "velocity": 64,
                "duration": 0.19772727272727408,
                "tempo": 120.0
            },
            {
                "start_time": 24.361363636363635,
                "end_time": 24.561363636363634,
                "pitch": 43,
                "velocity": 64,
                "duration": 0.1999999999999993,
                "tempo": 120.0
            },
            {
                "start_time": 24.561363636363634,
                "end_time": 24.959090909090907,
                "pitch": 40,
                "velocity": 64,
                "duration": 0.3977272727272734,
                "tempo": 120.0
            },
            {
                "start_time": 24.961363636363636,
                "end_time": 25.161363636363635,
                "pitch": 52,
                "velocity": 64,
                "duration": 0.1999999999999993,
                "tempo": 120.0
            },
            {
                "start_time": 25.161363636363635,
                "end_time": 25.363636363636363,
                "pitch": 40,
                "velocity": 64,
                "duration": 0.20227272727272805,
                "tempo": 120.0
            },
            {
                "start_time": 25.363636363636363,
                "end_time": 25.561363636363634,
                "pitch": 33,
                "velocity": 64,
                "duration": 0.19772727272727053,
                "tempo": 120.0
            },
            {
                "start_time": 25.763636363636362,
                "end_time": 25.96363636363636,
                "pitch": 33,
                "velocity": 64,
                "duration": 0.1999999999999993,
                "tempo": 120.0
            },
            {
                "start_time": 25.96590909090909,
                "end_time": 26.163636363636364,
                "pitch": 36,
                "velocity": 64,
                "duration": 0.19772727272727408,
                "tempo": 120.0
            },
            {
                "start_time": 26.16590909090909,
                "end_time": 26.568181818181817,
                "pitch": 38,
                "velocity": 64,
                "duration": 0.40227272727272734,
                "tempo": 120.0
            },
            {
                "start_time": 26.570454545454545,
                "end_time": 26.770454545454545,
                "pitch": 50,
                "velocity": 64,
                "duration": 0.1999999999999993,
                "tempo": 120.0
            },
            {
                "start_time": 26.77272727272727,
                "end_time": 27.172727272727272,
                "pitch": 38,
                "velocity": 64,
                "duration": 0.40000000000000213,
                "tempo": 120.0
            },
            {
                "start_time": 27.172727272727272,
                "end_time": 27.570454545454545,
                "pitch": 38,
                "velocity": 64,
                "duration": 0.3977272727272734,
                "tempo": 120.0
            },
            {
                "start_time": 27.57272727272727,
                "end_time": 27.98181818181818,
                "pitch": 38,
                "velocity": 64,
                "duration": 0.40909090909091006,
                "tempo": 120.0
            },
            {
                "start_time": 27.98409090909091,
                "end_time": 28.18181818181818,
                "pitch": 38,
                "velocity": 64,
                "duration": 0.19772727272727053,
                "tempo": 120.0
            },
            {
                "start_time": 28.18181818181818,
                "end_time": 28.377272727272725,
                "pitch": 50,
                "velocity": 64,
                "duration": 0.19545454545454533,
                "tempo": 120.0
            },
            {
                "start_time": 28.379545454545454,
                "end_time": 28.78863636363636,
                "pitch": 38,
                "velocity": 64,
                "duration": 0.4090909090909065,
                "tempo": 120.0
            },
            {
                "start_time": 28.78863636363636,
                "end_time": 28.988636363636363,
                "pitch": 38,
                "velocity": 64,
                "duration": 0.20000000000000284,
                "tempo": 120.0
            },
            {
                "start_time": 28.99090909090909,
                "end_time": 29.186363636363634,
                "pitch": 38,
                "velocity": 64,
                "duration": 0.19545454545454533,
                "tempo": 120.0
            },
            {
                "start_time": 29.188636363636363,
                "end_time": 29.386363636363637,
                "pitch": 36,
                "velocity": 64,
                "duration": 0.19772727272727408,
                "tempo": 120.0
            },
            {
                "start_time": 29.388636363636362,
                "end_time": 29.78863636363636,
                "pitch": 34,
                "velocity": 64,
                "duration": 0.3999999999999986,
                "tempo": 120.0
            },
            {
                "start_time": 29.78863636363636,
                "end_time": 29.98409090909091,
                "pitch": 46,
                "velocity": 64,
                "duration": 0.19545454545454888,
                "tempo": 120.0
            },
            {
                "start_time": 29.986363636363635,
                "end_time": 30.395454545454545,
                "pitch": 34,
                "velocity": 64,
                "duration": 0.40909090909091006,
                "tempo": 120.0
            },
            {
                "start_time": 30.39772727272727,
                "end_time": 30.795454545454543,
                "pitch": 34,
                "velocity": 64,
                "duration": 0.3977272727272734,
                "tempo": 120.0
            },
            {
                "start_time": 30.795454545454543,
                "end_time": 31.193181818181817,
                "pitch": 34,
                "velocity": 64,
                "duration": 0.3977272727272734,
                "tempo": 120.0
            },
            {
                "start_time": 31.195454545454545,
                "end_time": 31.395454545454545,
                "pitch": 34,
                "velocity": 64,
                "duration": 0.1999999999999993,
                "tempo": 120.0
            },
            {
                "start_time": 31.39772727272727,
                "end_time": 31.597727272727273,
                "pitch": 46,
                "velocity": 64,
                "duration": 0.20000000000000284,
                "tempo": 120.0
            },
            {
                "start_time": 31.599999999999998,
                "end_time": 31.99772727272727,
                "pitch": 34,
                "velocity": 64,
                "duration": 0.3977272727272734,
                "tempo": 120.0
            },
            {
                "start_time": 32.0,
                "end_time": 32.199999999999996,
                "pitch": 34,
                "velocity": 64,
                "duration": 0.19999999999999574,
                "tempo": 120.0
            },
            {
                "start_time": 32.20227272727273,
                "end_time": 32.4,
                "pitch": 34,
                "velocity": 64,
                "duration": 0.19772727272727053,
                "tempo": 120.0
            },
            {
                "start_time": 32.402272727272724,
                "end_time": 32.59772727272727,
                "pitch": 33,
                "velocity": 64,
                "duration": 0.19545454545454533,
                "tempo": 120.0
            },
            {
                "start_time": 32.6,
                "end_time": 33.002272727272725,
                "pitch": 31,
                "velocity": 64,
                "duration": 0.4022727272727238,
                "tempo": 120.0
            },
            {
                "start_time": 33.00454545454545,
                "end_time": 33.20227272727273,
                "pitch": 43,
                "velocity": 64,
                "duration": 0.19772727272727764,
                "tempo": 120.0
            },
            {
                "start_time": 33.20454545454545,
                "end_time": 33.60227272727273,
                "pitch": 31,
                "velocity": 64,
                "duration": 0.3977272727272734,
                "tempo": 120.0
            },
            {
                "start_time": 33.60454545454545,
                "end_time": 33.80681818181818,
                "pitch": 31,
                "velocity": 64,
                "duration": 0.20227272727272805,
                "tempo": 120.0
            },
            {
                "start_time": 33.809090909090905,
                "end_time": 34.00681818181818,
                "pitch": 33,
                "velocity": 64,
                "duration": 0.19772727272727764,
                "tempo": 120.0
            },
            {
                "start_time": 34.00909090909091,
                "end_time": 34.20909090909091,
                "pitch": 34,
                "velocity": 64,
                "duration": 0.20000000000000284,
                "tempo": 120.0
            },
            {
                "start_time": 34.211363636363636,
                "end_time": 34.60909090909091,
                "pitch": 36,
                "velocity": 64,
                "duration": 0.3977272727272734,
                "tempo": 120.0
            },
            {
                "start_time": 34.60909090909091,
                "end_time": 34.809090909090905,
                "pitch": 48,
                "velocity": 64,
                "duration": 0.19999999999999574,
                "tempo": 120.0
            },
            {
                "start_time": 34.81136363636364,
                "end_time": 35.00681818181818,
                "pitch": 36,
                "velocity": 64,
                "duration": 0.19545454545454533,
                "tempo": 120.0
            },
            {
                "start_time": 35.00909090909091,
                "end_time": 35.40909090909091,
                "pitch": 33,
                "velocity": 64,
                "duration": 0.3999999999999986,
                "tempo": 120.0
            },
            {
                "start_time": 35.41136363636363,
                "end_time": 35.60909090909091,
                "pitch": 34,
                "velocity": 64,
                "duration": 0.19772727272727764,
                "tempo": 120.0
            },
            {
                "start_time": 35.60909090909091,
                "end_time": 35.81363636363636,
                "pitch": 36,
                "velocity": 64,
                "duration": 0.20454545454545325,
                "tempo": 120.0
            },
            {
                "start_time": 35.81363636363636,
                "end_time": 36.21363636363636,
                "pitch": 38,
                "velocity": 64,
                "duration": 0.3999999999999986,
                "tempo": 120.0
            },
            {
                "start_time": 36.215909090909086,
                "end_time": 36.413636363636364,
                "pitch": 50,
                "velocity": 64,
                "duration": 0.19772727272727764,
                "tempo": 120.0
            },
            {
                "start_time": 36.41590909090909,
                "end_time": 36.824999999999996,
                "pitch": 38,
                "velocity": 64,
                "duration": 0.4090909090909065,
                "tempo": 120.0
            },
            {
                "start_time": 36.824999999999996,
                "end_time": 37.02272727272727,
                "pitch": 38,
                "velocity": 64,
                "duration": 0.19772727272727764,
                "tempo": 120.0
            },
            {
                "start_time": 37.025,
                "end_time": 37.215909090909086,
                "pitch": 50,
                "velocity": 64,
                "duration": 0.1909090909090878,
                "tempo": 120.0
            },
            {
                "start_time": 37.21818181818182,
                "end_time": 37.425,
                "pitch": 38,
                "velocity": 64,
                "duration": 0.20681818181817846,
                "tempo": 120.0
            },
            {
                "start_time": 37.425,
                "end_time": 37.82272727272727,
                "pitch": 38,
                "velocity": 64,
                "duration": 0.3977272727272734,
                "tempo": 120.0
            },
            {
                "start_time": 37.824999999999996,
                "end_time": 38.018181818181816,
                "pitch": 50,
                "velocity": 64,
                "duration": 0.19318181818182012,
                "tempo": 120.0
            },
            {
                "start_time": 38.02045454545454,
                "end_time": 38.22727272727273,
                "pitch": 38,
                "velocity": 64,
                "duration": 0.20681818181818556,
                "tempo": 120.0
            },
            {
                "start_time": 38.22954545454545,
                "end_time": 39.236363636363635,
                "pitch": 26,
                "velocity": 64,
                "duration": 1.0068181818181827,
                "tempo": 120.0
            },
            {
                "start_time": 39.236363636363635,
                "end_time": 39.434090909090905,
                "pitch": 34,
                "velocity": 64,
                "duration": 0.19772727272727053,
                "tempo": 120.0
            },
            {
                "start_time": 39.434090909090905,
                "end_time": 39.63409090909091,
                "pitch": 34,
                "velocity": 64,
                "duration": 0.20000000000000284,
                "tempo": 120.0
            },
            {
                "start_time": 39.83181818181818,
                "end_time": 40.027272727272724,
                "pitch": 36,
                "velocity": 64,
                "duration": 0.19545454545454533,
                "tempo": 120.0
            },
            {
                "start_time": 40.029545454545456,
                "end_time": 40.23181818181818,
                "pitch": 31,
                "velocity": 64,
                "duration": 0.20227272727272094,
                "tempo": 120.0
            },
            {
                "start_time": 40.23409090909091,
                "end_time": 40.43863636363636,
                "pitch": 33,
                "velocity": 64,
                "duration": 0.20454545454545325,
                "tempo": 120.0
            },
            {
                "start_time": 40.44090909090909,
                "end_time": 40.63863636363636,
                "pitch": 29,
                "velocity": 64,
                "duration": 0.19772727272727053,
                "tempo": 120.0
            },
            {
                "start_time": 40.64090909090909,
                "end_time": 40.84318181818182,
                "pitch": 31,
                "velocity": 64,
                "duration": 0.20227272727272805,
                "tempo": 120.0
            },
            {
                "start_time": 40.84318181818182,
                "end_time": 41.04090909090909,
                "pitch": 24,
                "velocity": 64,
                "duration": 0.19772727272727053,
                "tempo": 120.0
            },
            {
                "start_time": 41.04090909090909,
                "end_time": 41.24090909090909,
                "pitch": 24,
                "velocity": 64,
                "duration": 0.20000000000000284,
                "tempo": 120.0
            },
            {
                "start_time": 41.44318181818181,
                "end_time": 41.84772727272727,
                "pitch": 36,
                "velocity": 64,
                "duration": 0.4045454545454561,
                "tempo": 120.0
            },
            {
                "start_time": 41.85,
                "end_time": 42.449999999999996,
                "pitch": 24,
                "velocity": 64,
                "duration": 0.5999999999999943,
                "tempo": 120.0
            },
            {
                "start_time": 42.449999999999996,
                "end_time": 42.652272727272724,
                "pitch": 29,
                "velocity": 64,
                "duration": 0.20227272727272805,
                "tempo": 120.0
            },
            {
                "start_time": 42.65454545454545,
                "end_time": 42.85909090909091,
                "pitch": 29,
                "velocity": 64,
                "duration": 0.20454545454546036,
                "tempo": 120.0
            },
            {
                "start_time": 43.059090909090905,
                "end_time": 43.45454545454545,
                "pitch": 41,
                "velocity": 64,
                "duration": 0.39545454545454817,
                "tempo": 120.0
            },
            {
                "start_time": 43.45681818181818,
                "end_time": 43.85454545454545,
                "pitch": 40,
                "velocity": 64,
                "duration": 0.3977272727272734,
                "tempo": 120.0
            },
            {
                "start_time": 43.85681818181818,
                "end_time": 44.252272727272725,
                "pitch": 39,
                "velocity": 64,
                "duration": 0.39545454545454817,
                "tempo": 120.0
            },
            {
                "start_time": 44.25454545454545,
                "end_time": 44.45227272727273,
                "pitch": 36,
                "velocity": 64,
                "duration": 0.19772727272727764,
                "tempo": 120.0
            },
            {
                "start_time": 44.45454545454545,
                "end_time": 44.65909090909091,
                "pitch": 33,
                "velocity": 64,
                "duration": 0.20454545454545325,
                "tempo": 120.0
            },
            {
                "start_time": 44.66136363636363,
                "end_time": 45.06363636363636,
                "pitch": 29,
                "velocity": 64,
                "duration": 0.4022727272727309,
                "tempo": 120.0
            },
            {
                "start_time": 45.06590909090909,
                "end_time": 45.668181818181814,
                "pitch": 27,
                "velocity": 64,
                "duration": 0.6022727272727266,
                "tempo": 120.0
            },
            {
                "start_time": 45.668181818181814,
                "end_time": 45.86590909090909,
                "pitch": 34,
                "velocity": 64,
                "duration": 0.19772727272727764,
                "tempo": 120.0
            },
            {
                "start_time": 45.86590909090909,
                "end_time": 46.06590909090909,
                "pitch": 34,
                "velocity": 64,
                "duration": 0.19999999999999574,
                "tempo": 120.0
            },
            {
                "start_time": 46.268181818181816,
                "end_time": 46.465909090909086,
                "pitch": 36,
                "velocity": 64,
                "duration": 0.19772727272727053,
                "tempo": 120.0
            },
            {
                "start_time": 46.46818181818182,
                "end_time": 46.668181818181814,
                "pitch": 31,
                "velocity": 64,
                "duration": 0.19999999999999574,
                "tempo": 120.0
            },
            {
                "start_time": 46.668181818181814,
                "end_time": 46.87045454545454,
                "pitch": 33,
                "velocity": 64,
                "duration": 0.20227272727272805,
                "tempo": 120.0
            },
            {
                "start_time": 46.87045454545454,
                "end_time": 47.070454545454545,
                "pitch": 29,
                "velocity": 64,
                "duration": 0.20000000000000284,
                "tempo": 120.0
            },
            {
                "start_time": 47.070454545454545,
                "end_time": 47.27272727272727,
                "pitch": 31,
                "velocity": 64,
                "duration": 0.20227272727272805,
                "tempo": 120.0
            },
            {
                "start_time": 47.275,
                "end_time": 47.470454545454544,
                "pitch": 28,
                "velocity": 64,
                "duration": 0.19545454545454533,
                "tempo": 120.0
            },
            {
                "start_time": 47.470454545454544,
                "end_time": 47.67045454545454,
                "pitch": 28,
                "velocity": 64,
                "duration": 0.19999999999999574,
                "tempo": 120.0
            },
            {
                "start_time": 47.87045454545454,
                "end_time": 48.07272727272727,
                "pitch": 40,
                "velocity": 64,
                "duration": 0.20227272727272805,
                "tempo": 120.0
            },
            {
                "start_time": 48.074999999999996,
                "end_time": 48.277272727272724,
                "pitch": 28,
                "velocity": 64,
                "duration": 0.20227272727272805,
                "tempo": 120.0
            },
            {
                "start_time": 48.277272727272724,
                "end_time": 48.48181818181818,
                "pitch": 29,
                "velocity": 64,
                "duration": 0.20454545454545325,
                "tempo": 120.0
            },
            {
                "start_time": 48.48409090909091,
                "end_time": 48.67727272727272,
                "pitch": 31,
                "velocity": 64,
                "duration": 0.19318181818181301,
                "tempo": 120.0
            },
            {
                "start_time": 48.679545454545455,
                "end_time": 48.877272727272725,
                "pitch": 28,
                "velocity": 64,
                "duration": 0.19772727272727053,
                "tempo": 120.0
            },
            {
                "start_time": 48.87954545454545,
                "end_time": 49.074999999999996,
                "pitch": 33,
                "velocity": 64,
                "duration": 0.19545454545454533,
                "tempo": 120.0
            },
            {
                "start_time": 49.07727272727273,
                "end_time": 49.275,
                "pitch": 33,
                "velocity": 64,
                "duration": 0.19772727272727053,
                "tempo": 120.0
            },
            {
                "start_time": 49.277272727272724,
                "end_time": 49.47954545454545,
                "pitch": 37,
                "velocity": 64,
                "duration": 0.20227272727272805,
                "tempo": 120.0
            },
            {
                "start_time": 49.48181818181818,
                "end_time": 49.68636363636364,
                "pitch": 40,
                "velocity": 64,
                "duration": 0.20454545454546036,
                "tempo": 120.0
            },
            {
                "start_time": 49.88409090909091,
                "end_time": 50.07954545454545,
                "pitch": 43,
                "velocity": 64,
                "duration": 0.19545454545454533,
                "tempo": 120.0
            },
            {
                "start_time": 50.07954545454545,
                "end_time": 50.28181818181818,
                "pitch": 41,
                "velocity": 64,
                "duration": 0.20227272727272805,
                "tempo": 120.0
            },
            {
                "start_time": 50.28409090909091,
                "end_time": 51.084090909090904,
                "pitch": 40,
                "velocity": 64,
                "duration": 0.7999999999999972,
                "tempo": 120.0
            },
            {
                "start_time": 51.084090909090904,
                "end_time": 51.28181818181818,
                "pitch": 37,
                "velocity": 64,
                "duration": 0.19772727272727764,
                "tempo": 120.0
            },
            {
                "start_time": 51.28409090909091,
                "end_time": 51.48181818181818,
                "pitch": 25,
                "velocity": 64,
                "duration": 0.19772727272727053,
                "tempo": 120.0
            },
            {
                "start_time": 51.48409090909091,
                "end_time": 51.68181818181818,
                "pitch": 33,
                "velocity": 64,
                "duration": 0.19772727272727053,
                "tempo": 120.0
            },
            {
                "start_time": 51.684090909090905,
                "end_time": 51.89772727272727,
                "pitch": 36,
                "velocity": 64,
                "duration": 0.2136363636363683,
                "tempo": 120.0
            },
            {
                "start_time": 51.9,
                "end_time": 52.29545454545454,
                "pitch": 38,
                "velocity": 64,
                "duration": 0.39545454545454106,
                "tempo": 120.0
            },
            {
                "start_time": 52.29545454545454,
                "end_time": 52.49318181818182,
                "pitch": 50,
                "velocity": 64,
                "duration": 0.19772727272727764,
                "tempo": 120.0
            },
            {
                "start_time": 52.49318181818182,
                "end_time": 52.695454545454545,
                "pitch": 38,
                "velocity": 64,
                "duration": 0.20227272727272805,
                "tempo": 120.0
            },
            {
                "start_time": 52.69772727272727,
                "end_time": 52.902272727272724,
                "pitch": 38,
                "velocity": 64,
                "duration": 0.20454545454545325,
                "tempo": 120.0
            },
            {
                "start_time": 52.90454545454545,
                "end_time": 53.10227272727273,
                "pitch": 38,
                "velocity": 64,
                "duration": 0.19772727272727764,
                "tempo": 120.0
            },
            {
                "start_time": 53.10454545454545,
                "end_time": 53.30227272727272,
                "pitch": 38,
                "velocity": 64,
                "duration": 0.19772727272727053,
                "tempo": 120.0
            },
            {
                "start_time": 53.304545454545455,
                "end_time": 53.50454545454545,
                "pitch": 38,
                "velocity": 64,
                "duration": 0.19999999999999574,
                "tempo": 120.0
            },
            {
                "start_time": 53.50454545454545,
                "end_time": 53.90454545454545,
                "pitch": 38,
                "velocity": 64,
                "duration": 0.3999999999999986,
                "tempo": 120.0
            },
            {
                "start_time": 53.90454545454545,
                "end_time": 54.10454545454545,
                "pitch": 38,
                "velocity": 64,
                "duration": 0.20000000000000284,
                "tempo": 120.0
            },
            {
                "start_time": 54.10681818181818,
                "end_time": 54.304545454545455,
                "pitch": 38,
                "velocity": 64,
                "duration": 0.19772727272727764,
                "tempo": 120.0
            },
            {
                "start_time": 54.304545454545455,
                "end_time": 54.50681818181818,
                "pitch": 38,
                "velocity": 64,
                "duration": 0.20227272727272805,
                "tempo": 120.0
            },
            {
                "start_time": 54.70454545454545,
                "end_time": 54.89772727272727,
                "pitch": 38,
                "velocity": 64,
                "duration": 0.19318181818182012,
                "tempo": 120.0
            },
            {
                "start_time": 54.89772727272727,
                "end_time": 55.10681818181818,
                "pitch": 36,
                "velocity": 64,
                "duration": 0.20909090909090366,
                "tempo": 120.0
            },
            {
                "start_time": 55.10681818181818,
                "end_time": 55.51136363636363,
                "pitch": 34,
                "velocity": 64,
                "duration": 0.4045454545454561,
                "tempo": 120.0
            },
            {
                "start_time": 55.51136363636363,
                "end_time": 55.71363636363636,
                "pitch": 46,
                "velocity": 64,
                "duration": 0.20227272727272805,
                "tempo": 120.0
            },
            {
                "start_time": 55.71363636363636,
                "end_time": 55.91136363636363,
                "pitch": 34,
                "velocity": 64,
                "duration": 0.19772727272727053,
                "tempo": 120.0
            },
            {
                "start_time": 55.91136363636363,
                "end_time": 56.11363636363636,
                "pitch": 34,
                "velocity": 64,
                "duration": 0.20227272727272805,
                "tempo": 120.0
            },
            {
                "start_time": 56.11363636363636,
                "end_time": 56.31363636363636,
                "pitch": 34,
                "velocity": 64,
                "duration": 0.20000000000000284,
                "tempo": 120.0
            },
            {
                "start_time": 56.31590909090909,
                "end_time": 56.51363636363636,
                "pitch": 34,
                "velocity": 64,
                "duration": 0.19772727272727053,
                "tempo": 120.0
            },
            {
                "start_time": 56.51590909090909,
                "end_time": 56.715909090909086,
                "pitch": 34,
                "velocity": 64,
                "duration": 0.19999999999999574,
                "tempo": 120.0
            },
            {
                "start_time": 56.71818181818182,
                "end_time": 57.115909090909085,
                "pitch": 34,
                "velocity": 64,
                "duration": 0.39772727272726627,
                "tempo": 120.0
            },
            {
                "start_time": 57.11818181818182,
                "end_time": 57.31818181818181,
                "pitch": 34,
                "velocity": 64,
                "duration": 0.19999999999999574,
                "tempo": 120.0
            },
            {
                "start_time": 57.31818181818181,
                "end_time": 57.51590909090909,
                "pitch": 34,
                "velocity": 64,
                "duration": 0.19772727272727764,
                "tempo": 120.0
            },
            {
                "start_time": 57.51590909090909,
                "end_time": 57.715909090909086,
                "pitch": 34,
                "velocity": 64,
                "duration": 0.19999999999999574,
                "tempo": 120.0
            },
            {
                "start_time": 57.918181818181814,
                "end_time": 58.11363636363636,
                "pitch": 34,
                "velocity": 64,
                "duration": 0.19545454545454533,
                "tempo": 120.0
            },
            {
                "start_time": 58.115909090909085,
                "end_time": 58.320454545454545,
                "pitch": 33,
                "velocity": 64,
                "duration": 0.20454545454546036,
                "tempo": 120.0
            },
            {
                "start_time": 58.32272727272727,
                "end_time": 58.720454545454544,
                "pitch": 31,
                "velocity": 64,
                "duration": 0.3977272727272734,
                "tempo": 120.0
            },
            {
                "start_time": 58.72272727272727,
                "end_time": 58.92272727272727,
                "pitch": 43,
                "velocity": 64,
                "duration": 0.20000000000000284,
                "tempo": 120.0
            },
            {
                "start_time": 58.92272727272727,
                "end_time": 59.12045454545454,
                "pitch": 31,
                "velocity": 64,
                "duration": 0.19772727272727053,
                "tempo": 120.0
            },
            {
                "start_time": 59.12045454545454,
                "end_time": 59.32272727272727,
                "pitch": 31,
                "velocity": 64,
                "duration": 0.20227272727272805,
                "tempo": 120.0
            },
            {
                "start_time": 59.32272727272727,
                "end_time": 59.527272727272724,
                "pitch": 31,
                "velocity": 64,
                "duration": 0.20454545454545325,
                "tempo": 120.0
            },
            {
                "start_time": 59.52954545454545,
                "end_time": 59.73181818181818,
                "pitch": 31,
                "velocity": 64,
                "duration": 0.20227272727272805,
                "tempo": 120.0
            },
            {
                "start_time": 59.73409090909091,
                "end_time": 59.934090909090905,
                "pitch": 31,
                "velocity": 64,
                "duration": 0.19999999999999574,
                "tempo": 120.0
            },
            {
                "start_time": 59.93636363636363,
                "end_time": 60.32954545454545,
                "pitch": 33,
                "velocity": 64,
                "duration": 0.39318181818182296,
                "tempo": 120.0
            },
            {
                "start_time": 60.33181818181818,
                "end_time": 60.525,
                "pitch": 45,
                "velocity": 64,
                "duration": 0.19318181818182012,
                "tempo": 120.0
            },
            {
                "start_time": 60.527272727272724,
                "end_time": 60.72954545454545,
                "pitch": 33,
                "velocity": 64,
                "duration": 0.20227272727272805,
                "tempo": 120.0
            },
            {
                "start_time": 60.73181818181818,
                "end_time": 60.93863636363636,
                "pitch": 33,
                "velocity": 64,
                "duration": 0.20681818181818556,
                "tempo": 120.0
            },
            {
                "start_time": 61.14090909090909,
                "end_time": 61.336363636363636,
                "pitch": 31,
                "velocity": 64,
                "duration": 0.19545454545454533,
                "tempo": 120.0
            },
            {
                "start_time": 61.33863636363636,
                "end_time": 61.54090909090909,
                "pitch": 33,
                "velocity": 64,
                "duration": 0.20227272727272805,
                "tempo": 120.0
            },
            {
                "start_time": 61.543181818181814,
                "end_time": 61.94090909090909,
                "pitch": 34,
                "velocity": 64,
                "duration": 0.3977272727272734,
                "tempo": 120.0
            },
            {
                "start_time": 61.94318181818181,
                "end_time": 62.143181818181816,
                "pitch": 46,
                "velocity": 64,
                "duration": 0.20000000000000284,
                "tempo": 120.0
            },
            {
                "start_time": 62.143181818181816,
                "end_time": 62.340909090909086,
                "pitch": 34,
                "velocity": 64,
                "duration": 0.19772727272727053,
                "tempo": 120.0
            },
            {
                "start_time": 62.34318181818182,
                "end_time": 62.543181818181814,
                "pitch": 34,
                "velocity": 64,
                "duration": 0.19999999999999574,
                "tempo": 120.0
            },
            {
                "start_time": 62.54545454545454,
                "end_time": 62.74318181818182,
                "pitch": 34,
                "velocity": 64,
                "duration": 0.19772727272727764,
                "tempo": 120.0
            },
            {
                "start_time": 62.74545454545454,
                "end_time": 62.94090909090909,
                "pitch": 34,
                "velocity": 64,
                "duration": 0.19545454545454533,
                "tempo": 120.0
            },
            {
                "start_time": 62.94318181818181,
                "end_time": 63.143181818181816,
                "pitch": 34,
                "velocity": 64,
                "duration": 0.20000000000000284,
                "tempo": 120.0
            },
            {
                "start_time": 63.14545454545454,
                "end_time": 63.54545454545454,
                "pitch": 33,
                "velocity": 64,
                "duration": 0.3999999999999986,
                "tempo": 120.0
            },
            {
                "start_time": 63.54545454545454,
                "end_time": 63.74545454545454,
                "pitch": 45,
                "velocity": 64,
                "duration": 0.20000000000000284,
                "tempo": 120.0
            },
            {
                "start_time": 63.74772727272727,
                "end_time": 63.945454545454545,
                "pitch": 43,
                "velocity": 64,
                "duration": 0.19772727272727764,
                "tempo": 120.0
            },
            {
                "start_time": 63.94772727272727,
                "end_time": 64.14545454545454,
                "pitch": 40,
                "velocity": 64,
                "duration": 0.19772727272727053,
                "tempo": 120.0
            },
            {
                "start_time": 64.14545454545454,
                "end_time": 64.34545454545454,
                "pitch": 25,
                "velocity": 64,
                "duration": 0.20000000000000284,
                "tempo": 120.0
            },
            {
                "start_time": 64.34772727272727,
                "end_time": 64.54545454545455,
                "pitch": 33,
                "velocity": 64,
                "duration": 0.19772727272727764,
                "tempo": 120.0
            },
            {
                "start_time": 64.54772727272727,
                "end_time": 64.75454545454545,
                "pitch": 36,
                "velocity": 64,
                "duration": 0.20681818181817846,
                "tempo": 120.0
            },
            {
                "start_time": 64.75454545454545,
                "end_time": 65.14999999999999,
                "pitch": 38,
                "velocity": 64,
                "duration": 0.39545454545454106,
                "tempo": 120.0
            },
            {
                "start_time": 65.15227272727273,
                "end_time": 65.35227272727272,
                "pitch": 50,
                "velocity": 64,
                "duration": 0.19999999999998863,
                "tempo": 120.0
            },
            {
                "start_time": 65.35454545454544,
                "end_time": 65.55227272727272,
                "pitch": 38,
                "velocity": 64,
                "duration": 0.19772727272727764,
                "tempo": 120.0
            },
            {
                "start_time": 65.55454545454545,
                "end_time": 65.75454545454545,
                "pitch": 38,
                "velocity": 64,
                "duration": 0.20000000000000284,
                "tempo": 120.0
            },
            {
                "start_time": 65.75681818181818,
                "end_time": 65.95454545454545,
                "pitch": 38,
                "velocity": 64,
                "duration": 0.19772727272727764,
                "tempo": 120.0
            },
            {
                "start_time": 65.95681818181818,
                "end_time": 66.15454545454546,
                "pitch": 38,
                "velocity": 64,
                "duration": 0.19772727272727764,
                "tempo": 120.0
            },
            {
                "start_time": 66.15454545454546,
                "end_time": 66.36136363636363,
                "pitch": 38,
                "velocity": 64,
                "duration": 0.20681818181817846,
                "tempo": 120.0
            },
            {
                "start_time": 66.36363636363636,
                "end_time": 66.76363636363637,
                "pitch": 38,
                "velocity": 64,
                "duration": 0.4000000000000057,
                "tempo": 120.0
            },
            {
                "start_time": 66.76363636363637,
                "end_time": 66.9590909090909,
                "pitch": 38,
                "velocity": 64,
                "duration": 0.19545454545453822,
                "tempo": 120.0
            },
            {
                "start_time": 66.96136363636363,
                "end_time": 67.16136363636363,
                "pitch": 38,
                "velocity": 64,
                "duration": 0.20000000000000284,
                "tempo": 120.0
            },
            {
                "start_time": 67.16363636363636,
                "end_time": 67.37045454545454,
                "pitch": 38,
                "velocity": 64,
                "duration": 0.20681818181817846,
                "tempo": 120.0
            },
            {
                "start_time": 67.56590909090909,
                "end_time": 67.7590909090909,
                "pitch": 38,
                "velocity": 64,
                "duration": 0.19318181818181301,
                "tempo": 120.0
            },
            {
                "start_time": 67.76136363636363,
                "end_time": 67.96818181818182,
                "pitch": 36,
                "velocity": 64,
                "duration": 0.20681818181819267,
                "tempo": 120.0
            },
            {
                "start_time": 67.97045454545454,
                "end_time": 68.36818181818181,
                "pitch": 34,
                "velocity": 64,
                "duration": 0.39772727272726627,
                "tempo": 120.0
            },
            {
                "start_time": 68.37045454545454,
                "end_time": 68.56818181818181,
                "pitch": 46,
                "velocity": 64,
                "duration": 0.19772727272727764,
                "tempo": 120.0
            },
            {
                "start_time": 68.56818181818181,
                "end_time": 68.77045454545454,
                "pitch": 34,
                "velocity": 64,
                "duration": 0.20227272727272805,
                "tempo": 120.0
            },
            {
                "start_time": 68.77272727272727,
                "end_time": 68.97727272727272,
                "pitch": 34,
                "velocity": 64,
                "duration": 0.20454545454545325,
                "tempo": 120.0
            },
            {
                "start_time": 68.97954545454544,
                "end_time": 69.17954545454545,
                "pitch": 34,
                "velocity": 64,
                "duration": 0.20000000000000284,
                "tempo": 120.0
            },
            {
                "start_time": 69.17954545454545,
                "end_time": 69.37954545454545,
                "pitch": 34,
                "velocity": 64,
                "duration": 0.20000000000000284,
                "tempo": 120.0
            },
            {
                "start_time": 69.38181818181818,
                "end_time": 69.58181818181818,
                "pitch": 34,
                "velocity": 64,
                "duration": 0.20000000000000284,
                "tempo": 120.0
            },
            {
                "start_time": 69.5840909090909,
                "end_time": 69.98409090909091,
                "pitch": 34,
                "velocity": 64,
                "duration": 0.4000000000000057,
                "tempo": 120.0
            },
            {
                "start_time": 69.98409090909091,
                "end_time": 70.18636363636364,
                "pitch": 34,
                "velocity": 64,
                "duration": 0.20227272727272805,
                "tempo": 120.0
            },
            {
                "start_time": 70.18636363636364,
                "end_time": 70.3840909090909,
                "pitch": 34,
                "velocity": 64,
                "duration": 0.19772727272726343,
                "tempo": 120.0
            },
            {
                "start_time": 70.38636363636363,
                "end_time": 70.58636363636363,
                "pitch": 34,
                "velocity": 64,
                "duration": 0.20000000000000284,
                "tempo": 120.0
            },
            {
                "start_time": 70.7840909090909,
                "end_time": 70.97727272727272,
                "pitch": 34,
                "velocity": 64,
                "duration": 0.19318181818181301,
                "tempo": 120.0
            },
            {
                "start_time": 70.97954545454544,
                "end_time": 71.18636363636364,
                "pitch": 33,
                "velocity": 64,
                "duration": 0.20681818181819267,
                "tempo": 120.0
            },
            {
                "start_time": 71.18863636363636,
                "end_time": 71.5909090909091,
                "pitch": 31,
                "velocity": 64,
                "duration": 0.4022727272727309,
                "tempo": 120.0
            },
            {
                "start_time": 71.59318181818182,
                "end_time": 71.79318181818182,
                "pitch": 43,
                "velocity": 64,
                "duration": 0.20000000000000284,
                "tempo": 120.0
            },
            {
                "start_time": 71.79318181818182,
                "end_time": 71.99318181818181,
                "pitch": 31,
                "velocity": 64,
                "duration": 0.19999999999998863,
                "tempo": 120.0
            },
            {
                "start_time": 71.99318181818181,
                "end_time": 72.19545454545454,
                "pitch": 31,
                "velocity": 64,
                "duration": 0.20227272727272805,
                "tempo": 120.0
            },
            {
                "start_time": 72.19772727272726,
                "end_time": 72.39772727272727,
                "pitch": 31,
                "velocity": 64,
                "duration": 0.20000000000000284,
                "tempo": 120.0
            },
            {
                "start_time": 72.39772727272727,
                "end_time": 72.59772727272727,
                "pitch": 31,
                "velocity": 64,
                "duration": 0.20000000000000284,
                "tempo": 120.0
            },
            {
                "start_time": 72.59772727272727,
                "end_time": 72.8,
                "pitch": 31,
                "velocity": 64,
                "duration": 0.20227272727272805,
                "tempo": 120.0
            },
            {
                "start_time": 72.8,
                "end_time": 73.2,
                "pitch": 33,
                "velocity": 64,
                "duration": 0.4000000000000057,
                "tempo": 120.0
            },
            {
                "start_time": 73.20227272727273,
                "end_time": 73.40227272727272,
                "pitch": 45,
                "velocity": 64,
                "duration": 0.19999999999998863,
                "tempo": 120.0
            },
            {
                "start_time": 73.40454545454546,
                "end_time": 73.60227272727272,
                "pitch": 33,
                "velocity": 64,
                "duration": 0.19772727272726343,
                "tempo": 120.0
            },
            {
                "start_time": 73.60227272727272,
                "end_time": 73.80227272727272,
                "pitch": 33,
                "velocity": 64,
                "duration": 0.20000000000000284,
                "tempo": 120.0
            },
            {
                "start_time": 74.00681818181818,
                "end_time": 74.20454545454545,
                "pitch": 31,
                "velocity": 64,
                "duration": 0.19772727272727764,
                "tempo": 120.0
            },
            {
                "start_time": 74.20681818181818,
                "end_time": 74.4090909090909,
                "pitch": 33,
                "velocity": 64,
                "duration": 0.20227272727272805,
                "tempo": 120.0
            },
            {
                "start_time": 74.4090909090909,
                "end_time": 74.80909090909091,
                "pitch": 34,
                "velocity": 64,
                "duration": 0.4000000000000057,
                "tempo": 120.0
            },
            {
                "start_time": 74.81136363636364,
                "end_time": 75.0090909090909,
                "pitch": 30,
                "velocity": 64,
                "duration": 0.19772727272726343,
                "tempo": 120.0
            },
            {
                "start_time": 75.01136363636363,
                "end_time": 75.21363636363635,
                "pitch": 34,
                "velocity": 64,
                "duration": 0.20227272727272805,
                "tempo": 120.0
            },
            {
                "start_time": 75.2159090909091,
                "end_time": 75.42045454545455,
                "pitch": 38,
                "velocity": 64,
                "duration": 0.20454545454545325,
                "tempo": 120.0
            },
            {
                "start_time": 75.61818181818181,
                "end_time": 75.81136363636364,
                "pitch": 33,
                "velocity": 64,
                "duration": 0.19318181818182723,
                "tempo": 120.0
            },
            {
                "start_time": 75.81363636363636,
                "end_time": 76.01818181818182,
                "pitch": 36,
                "velocity": 64,
                "duration": 0.20454545454545325,
                "tempo": 120.0
            },
            {
                "start_time": 76.01818181818182,
                "end_time": 78.6340909090909,
                "pitch": 38,
                "velocity": 64,
                "duration": 2.615909090909085,
                "tempo": 120.0
            },
            {
                "start_time": 78.83636363636363,
                "end_time": 79.03863636363636,
                "pitch": 38,
                "velocity": 64,
                "duration": 0.20227272727272805,
                "tempo": 120.0
            },
            {
                "start_time": 79.03863636363636,
                "end_time": 79.23636363636363,
                "pitch": 36,
                "velocity": 64,
                "duration": 0.19772727272727764,
                "tempo": 120.0
            },
            {
                "start_time": 79.23863636363636,
                "end_time": 81.85454545454544,
                "pitch": 34,
                "velocity": 64,
                "duration": 2.615909090909085,
                "tempo": 120.0
            },
            {
                "start_time": 82.05909090909091,
                "end_time": 82.25681818181818,
                "pitch": 34,
                "velocity": 64,
                "duration": 0.19772727272726343,
                "tempo": 120.0
            },
            {
                "start_time": 82.25681818181818,
                "end_time": 82.46363636363635,
                "pitch": 33,
                "velocity": 64,
                "duration": 0.20681818181817846,
                "tempo": 120.0
            },
            {
                "start_time": 82.46363636363635,
                "end_time": 85.07727272727273,
                "pitch": 31,
                "velocity": 64,
                "duration": 2.613636363636374,
                "tempo": 120.0
            },
            {
                "start_time": 85.27499999999999,
                "end_time": 85.47045454545454,
                "pitch": 31,
                "velocity": 64,
                "duration": 0.19545454545455243,
                "tempo": 120.0
            },
            {
                "start_time": 85.47045454545454,
                "end_time": 85.675,
                "pitch": 33,
                "velocity": 64,
                "duration": 0.20454545454545325,
                "tempo": 120.0
            },
            {
                "start_time": 85.67727272727272,
                "end_time": 88.29318181818181,
                "pitch": 34,
                "velocity": 64,
                "duration": 2.615909090909085,
                "tempo": 120.0
            },
            {
                "start_time": 88.49545454545454,
                "end_time": 88.69545454545454,
                "pitch": 33,
                "velocity": 64,
                "duration": 0.20000000000000284,
                "tempo": 120.0
            },
            {
                "start_time": 88.69772727272726,
                "end_time": 88.89545454545454,
                "pitch": 36,
                "velocity": 64,
                "duration": 0.19772727272727764,
                "tempo": 120.0
            }
        ],
        "Violin": [
            {
                "start_time": 0.8136363636363636,
                "end_time": 0.9068181818181817,
                "pitch": 69,
                "velocity": 40,
                "duration": 0.09318181818181814,
                "tempo": 120.0
            },
            {
                "start_time": 0.9090909090909091,
                "end_time": 0.9727272727272727,
                "pitch": 70,
                "velocity": 40,
                "duration": 0.0636363636363636,
                "tempo": 120.0
            },
            {
                "start_time": 0.9727272727272727,
                "end_time": 1.0409090909090908,
                "pitch": 72,
                "velocity": 40,
                "duration": 0.06818181818181812,
                "tempo": 120.0
            },
            {
                "start_time": 1.0409090909090908,
                "end_time": 1.1090909090909091,
                "pitch": 74,
                "velocity": 40,
                "duration": 0.06818181818181834,
                "tempo": 120.0
            },
            {
                "start_time": 1.1090909090909091,
                "end_time": 1.1772727272727272,
                "pitch": 76,
                "velocity": 40,
                "duration": 0.06818181818181812,
                "tempo": 120.0
            },
            {
                "start_time": 1.1772727272727272,
                "end_time": 1.2136363636363636,
                "pitch": 78,
                "velocity": 40,
                "duration": 0.036363636363636376,
                "tempo": 120.0
            },
            {
                "start_time": 1.2136363636363636,
                "end_time": 4.031818181818181,
                "pitch": 79,
                "velocity": 40,
                "duration": 2.8181818181818175,
                "tempo": 120.0
            },
            {
                "start_time": 4.034090909090909,
                "end_time": 4.095454545454546,
                "pitch": 82,
                "velocity": 40,
                "duration": 0.06136363636363651,
                "tempo": 120.0
            },
            {
                "start_time": 4.095454545454546,
                "end_time": 4.161363636363636,
                "pitch": 84,
                "velocity": 40,
                "duration": 0.06590909090909047,
                "tempo": 120.0
            },
            {
                "start_time": 4.161363636363636,
                "end_time": 4.2295454545454545,
                "pitch": 86,
                "velocity": 40,
                "duration": 0.06818181818181834,
                "tempo": 120.0
            },
            {
                "start_time": 4.2295454545454545,
                "end_time": 4.293181818181818,
                "pitch": 88,
                "velocity": 40,
                "duration": 0.06363636363636349,
                "tempo": 120.0
            },
            {
                "start_time": 4.293181818181818,
                "end_time": 4.327272727272727,
                "pitch": 90,
                "velocity": 40,
                "duration": 0.03409090909090917,
                "tempo": 120.0
            },
            {
                "start_time": 4.327272727272727,
                "end_time": 7.1454545454545455,
                "pitch": 91,
                "velocity": 40,
                "duration": 2.8181818181818183,
                "tempo": 120.0
            },
            {
                "start_time": 7.1477272727272725,
                "end_time": 7.197727272727272,
                "pitch": 92,
                "velocity": 4,
                "duration": 0.04999999999999982,
                "tempo": 120.0
            },
            {
                "start_time": 7.197727272727272,
                "end_time": 7.25,
                "pitch": 91,
                "velocity": 4,
                "duration": 0.05227272727272769,
                "tempo": 120.0
            },
            {
                "start_time": 7.252272727272727,
                "end_time": 7.3159090909090905,
                "pitch": 70,
                "velocity": 40,
                "duration": 0.06363636363636349,
                "tempo": 120.0
            },
            {
                "start_time": 7.3159090909090905,
                "end_time": 7.384090909090909,
                "pitch": 72,
                "velocity": 40,
                "duration": 0.06818181818181834,
                "tempo": 120.0
            },
            {
                "start_time": 7.384090909090909,
                "end_time": 7.452272727272727,
                "pitch": 74,
                "velocity": 40,
                "duration": 0.06818181818181834,
                "tempo": 120.0
            },
            {
                "start_time": 7.452272727272727,
                "end_time": 7.518181818181818,
                "pitch": 76,
                "velocity": 40,
                "duration": 0.06590909090909047,
                "tempo": 120.0
            },
            {
                "start_time": 1.2136363636363636,
                "end_time": 7.552272727272727,
                "pitch": 67,
                "velocity": 40,
                "duration": 6.338636363636363,
                "tempo": 120.0
            },
            {
                "start_time": 7.518181818181818,
                "end_time": 7.552272727272727,
                "pitch": 78,
                "velocity": 40,
                "duration": 0.03409090909090917,
                "tempo": 120.0
            },
            {
                "start_time": 4.327272727272727,
                "end_time": 10.472727272727273,
                "pitch": 79,
                "velocity": 40,
                "duration": 6.1454545454545455,
                "tempo": 120.0
            },
            {
                "start_time": 7.552272727272727,
                "end_time": 10.472727272727273,
                "pitch": 79,
                "velocity": 40,
                "duration": 2.920454545454546,
                "tempo": 120.0
            },
            {
                "start_time": 10.475,
                "end_time": 10.538636363636362,
                "pitch": 82,
                "velocity": 40,
                "duration": 0.0636363636363626,
                "tempo": 120.0
            },
            {
                "start_time": 10.538636363636362,
                "end_time": 10.604545454545454,
                "pitch": 84,
                "velocity": 40,
                "duration": 0.06590909090909136,
                "tempo": 120.0
            },
            {
                "start_time": 10.604545454545454,
                "end_time": 10.674999999999999,
                "pitch": 86,
                "velocity": 40,
                "duration": 0.07045454545454533,
                "tempo": 120.0
            },
            {
                "start_time": 10.674999999999999,
                "end_time": 10.74090909090909,
                "pitch": 88,
                "velocity": 40,
                "duration": 0.06590909090909136,
                "tempo": 120.0
            },
            {
                "start_time": 10.74090909090909,
                "end_time": 10.772727272727272,
                "pitch": 90,
                "velocity": 40,
                "duration": 0.0318181818181813,
                "tempo": 120.0
            },
            {
                "start_time": 10.772727272727272,
                "end_time": 13.497727272727271,
                "pitch": 91,
                "velocity": 40,
                "duration": 2.7249999999999996,
                "tempo": 120.0
            },
            {
                "start_time": 76.22272727272727,
                "end_time": 76.31818181818181,
                "pitch": 69,
                "velocity": 51,
                "duration": 0.0954545454545439,
                "tempo": 120.0
            },
            {
                "start_time": 76.32045454545454,
                "end_time": 79.43409090909091,
                "pitch": 81,
                "velocity": 51,
                "duration": 3.113636363636374,
                "tempo": 120.0
            },
            {
                "start_time": 79.43863636363636,
                "end_time": 79.50227272727273,
                "pitch": 82,
                "velocity": 51,
                "duration": 0.0636363636363626,
                "tempo": 120.0
            },
            {
                "start_time": 79.50227272727273,
                "end_time": 79.56818181818181,
                "pitch": 84,
                "velocity": 51,
                "duration": 0.06590909090908781,
                "tempo": 120.0
            },
            {
                "start_time": 79.56818181818181,
                "end_time": 79.64090909090909,
                "pitch": 86,
                "velocity": 51,
                "duration": 0.07272727272727764,
                "tempo": 120.0
            },
            {
                "start_time": 79.64090909090909,
                "end_time": 79.70454545454545,
                "pitch": 88,
                "velocity": 51,
                "duration": 0.0636363636363626,
                "tempo": 120.0
            },
            {
                "start_time": 10.772727272727272,
                "end_time": 79.73863636363636,
                "pitch": 79,
                "velocity": 40,
                "duration": 68.9659090909091,
                "tempo": 120.0
            },
            {
                "start_time": 79.70454545454545,
                "end_time": 79.73863636363636,
                "pitch": 90,
                "velocity": 51,
                "duration": 0.03409090909090651,
                "tempo": 120.0
            },
            {
                "start_time": 79.73863636363636,
                "end_time": 79.875,
                "pitch": 91,
                "velocity": 51,
                "duration": 0.13636363636364024,
                "tempo": 120.0
            },
            {
                "start_time": 79.875,
                "end_time": 82.56590909090909,
                "pitch": 93,
                "velocity": 51,
                "duration": 2.690909090909088,
                "tempo": 120.0
            },
            {
                "start_time": 82.56818181818181,
                "end_time": 82.61818181818181,
                "pitch": 92,
                "velocity": 4,
                "duration": 0.04999999999999716,
                "tempo": 120.0
            },
            {
                "start_time": 7.197727272727272,
                "end_time": 82.61818181818181,
                "pitch": 103,
                "velocity": 4,
                "duration": 75.42045454545453,
                "tempo": 120.0
            },
            {
                "start_time": 82.61818181818181,
                "end_time": 82.66818181818181,
                "pitch": 91,
                "velocity": 4,
                "duration": 0.04999999999999716,
                "tempo": 120.0
            },
            {
                "start_time": 82.76590909090909,
                "end_time": 82.83636363636363,
                "pitch": 70,
                "velocity": 40,
                "duration": 0.07045454545453822,
                "tempo": 120.0
            },
            {
                "start_time": 82.83636363636363,
                "end_time": 82.90454545454546,
                "pitch": 72,
                "velocity": 40,
                "duration": 0.06818181818182723,
                "tempo": 120.0
            },
            {
                "start_time": 82.90454545454546,
                "end_time": 82.96818181818182,
                "pitch": 74,
                "velocity": 40,
                "duration": 0.0636363636363626,
                "tempo": 120.0
            },
            {
                "start_time": 82.96818181818182,
                "end_time": 83.03636363636363,
                "pitch": 76,
                "velocity": 40,
                "duration": 0.06818181818181301,
                "tempo": 120.0
            },
            {
                "start_time": 83.03636363636363,
                "end_time": 83.07272727272726,
                "pitch": 78,
                "velocity": 40,
                "duration": 0.03636363636363171,
                "tempo": 120.0
            },
            {
                "start_time": 7.552272727272727,
                "end_time": 83.075,
                "pitch": 67,
                "velocity": 40,
                "duration": 75.52272727272728,
                "tempo": 120.0
            },
            {
                "start_time": 83.07272727272726,
                "end_time": 83.075,
                "pitch": 67,
                "velocity": 40,
                "duration": 0.0022727272727394165,
                "tempo": 120.0
            },
            {
                "start_time": 79.73863636363636,
                "end_time": 83.25681818181818,
                "pitch": 79,
                "velocity": 51,
                "duration": 3.518181818181816,
                "tempo": 120.0
            },
            {
                "start_time": 83.075,
                "end_time": 83.25681818181818,
                "pitch": 79,
                "velocity": 40,
                "duration": 0.18181818181817277,
                "tempo": 120.0
            },
            {
                "start_time": 83.25681818181818,
                "end_time": 85.97727272727272,
                "pitch": 81,
                "velocity": 40,
                "duration": 2.720454545454544,
                "tempo": 120.0
            },
            {
                "start_time": 85.97954545454544,
                "end_time": 86.04545454545455,
                "pitch": 82,
                "velocity": 40,
                "duration": 0.06590909090910202,
                "tempo": 120.0
            },
            {
                "start_time": 86.04545454545455,
                "end_time": 86.11363636363636,
                "pitch": 84,
                "velocity": 40,
                "duration": 0.06818181818181301,
                "tempo": 120.0
            },
            {
                "start_time": 86.11363636363636,
                "end_time": 86.18181818181817,
                "pitch": 86,
                "velocity": 40,
                "duration": 0.06818181818181301,
                "tempo": 120.0
            },
            {
                "start_time": 86.18181818181817,
                "end_time": 86.24772727272727,
                "pitch": 88,
                "velocity": 40,
                "duration": 0.06590909090910202,
                "tempo": 120.0
            },
            {
                "start_time": 86.24772727272727,
                "end_time": 86.2840909090909,
                "pitch": 90,
                "velocity": 40,
                "duration": 0.03636363636363171,
                "tempo": 120.0
            },
            {
                "start_time": 86.2840909090909,
                "end_time": 86.45,
                "pitch": 91,
                "velocity": 40,
                "duration": 0.16590909090909634,
                "tempo": 120.0
            },
            {
                "start_time": 86.45,
                "end_time": 88.79318181818181,
                "pitch": 93,
                "velocity": 40,
                "duration": 2.3431818181818045,
                "tempo": 120.0
            },
            {
                "start_time": 88.79545454545455,
                "end_time": 88.89772727272727,
                "pitch": 93,
                "velocity": 40,
                "duration": 0.10227272727271952,
                "tempo": 120.0
            }
        ],
        "Electric Piano 1": [
            {
                "start_time": 13.695454545454545,
                "end_time": 13.89090909090909,
                "pitch": 65,
                "velocity": 127,
                "duration": 0.19545454545454533,
                "tempo": 120.0
            },
            {
                "start_time": 13.893181818181818,
                "end_time": 14.095454545454544,
                "pitch": 64,
                "velocity": 127,
                "duration": 0.20227272727272627,
                "tempo": 120.0
            },
            {
                "start_time": 14.097727272727273,
                "end_time": 14.504545454545454,
                "pitch": 67,
                "velocity": 127,
                "duration": 0.4068181818181813,
                "tempo": 120.0
            },
            {
                "start_time": 14.506818181818181,
                "end_time": 14.906818181818181,
                "pitch": 64,
                "velocity": 127,
                "duration": 0.40000000000000036,
                "tempo": 120.0
            },
            {
                "start_time": 14.909090909090908,
                "end_time": 15.309090909090909,
                "pitch": 65,
                "velocity": 127,
                "duration": 0.40000000000000036,
                "tempo": 120.0
            },
            {
                "start_time": 15.311363636363636,
                "end_time": 15.709090909090909,
                "pitch": 64,
                "velocity": 127,
                "duration": 0.3977272727272734,
                "tempo": 120.0
            },
            {
                "start_time": 15.711363636363636,
                "end_time": 16.113636363636363,
                "pitch": 67,
                "velocity": 127,
                "duration": 0.40227272727272734,
                "tempo": 120.0
            },
            {
                "start_time": 16.11590909090909,
                "end_time": 16.513636363636362,
                "pitch": 65,
                "velocity": 127,
                "duration": 0.3977272727272734,
                "tempo": 120.0
            },
            {
                "start_time": 16.51590909090909,
                "end_time": 17.318181818181817,
                "pitch": 64,
                "velocity": 127,
                "duration": 0.8022727272727259,
                "tempo": 120.0
            },
            {
                "start_time": 17.320454545454545,
                "end_time": 17.420454545454543,
                "pitch": 65,
                "velocity": 127,
                "duration": 0.09999999999999787,
                "tempo": 120.0
            },
            {
                "start_time": 17.422727272727272,
                "end_time": 17.522727272727273,
                "pitch": 64,
                "velocity": 127,
                "duration": 0.10000000000000142,
                "tempo": 120.0
            },
            {
                "start_time": 17.525,
                "end_time": 18.32272727272727,
                "pitch": 62,
                "velocity": 127,
                "duration": 0.797727272727272,
                "tempo": 120.0
            },
            {
                "start_time": 20.936363636363634,
                "end_time": 21.134090909090908,
                "pitch": 65,
                "velocity": 127,
                "duration": 0.19772727272727408,
                "tempo": 120.0
            },
            {
                "start_time": 21.134090909090908,
                "end_time": 21.34090909090909,
                "pitch": 67,
                "velocity": 127,
                "duration": 0.206818181818182,
                "tempo": 120.0
            },
            {
                "start_time": 21.34318181818182,
                "end_time": 22.349999999999998,
                "pitch": 60,
                "velocity": 127,
                "duration": 1.0068181818181792,
                "tempo": 120.0
            },
            {
                "start_time": 22.352272727272727,
                "end_time": 22.549999999999997,
                "pitch": 70,
                "velocity": 127,
                "duration": 0.19772727272727053,
                "tempo": 120.0
            },
            {
                "start_time": 22.552272727272726,
                "end_time": 22.952272727272724,
                "pitch": 72,
                "velocity": 127,
                "duration": 0.3999999999999986,
                "tempo": 120.0
            },
            {
                "start_time": 22.954545454545453,
                "end_time": 24.75681818181818,
                "pitch": 69,
                "velocity": 127,
                "duration": 1.802272727272726,
                "tempo": 120.0
            },
            {
                "start_time": 26.568181818181817,
                "end_time": 26.768181818181816,
                "pitch": 65,
                "velocity": 127,
                "duration": 0.1999999999999993,
                "tempo": 120.0
            },
            {
                "start_time": 26.768181818181816,
                "end_time": 26.96590909090909,
                "pitch": 64,
                "velocity": 127,
                "duration": 0.19772727272727408,
                "tempo": 120.0
            },
            {
                "start_time": 26.968181818181815,
                "end_time": 27.352272727272727,
                "pitch": 67,
                "velocity": 127,
                "duration": 0.3840909090909115,
                "tempo": 120.0
            },
            {
                "start_time": 27.352272727272727,
                "end_time": 27.370454545454542,
                "pitch": 67,
                "velocity": 127,
                "duration": 0.018181818181815856,
                "tempo": 120.0
            },
            {
                "start_time": 27.37272727272727,
                "end_time": 27.775,
                "pitch": 64,
                "velocity": 127,
                "duration": 0.40227272727272734,
                "tempo": 120.0
            },
            {
                "start_time": 27.777272727272727,
                "end_time": 28.177272727272726,
                "pitch": 65,
                "velocity": 127,
                "duration": 0.3999999999999986,
                "tempo": 120.0
            },
            {
                "start_time": 28.179545454545455,
                "end_time": 28.577272727272724,
                "pitch": 64,
                "velocity": 127,
                "duration": 0.3977272727272698,
                "tempo": 120.0
            },
            {
                "start_time": 28.579545454545453,
                "end_time": 28.986363636363635,
                "pitch": 67,
                "velocity": 127,
                "duration": 0.4068181818181813,
                "tempo": 120.0
            },
            {
                "start_time": 28.988636363636363,
                "end_time": 29.384090909090908,
                "pitch": 65,
                "velocity": 127,
                "duration": 0.3954545454545446,
                "tempo": 120.0
            },
            {
                "start_time": 29.386363636363637,
                "end_time": 30.186363636363634,
                "pitch": 64,
                "velocity": 127,
                "duration": 0.7999999999999972,
                "tempo": 120.0
            },
            {
                "start_time": 30.188636363636363,
                "end_time": 30.28863636363636,
                "pitch": 65,
                "velocity": 127,
                "duration": 0.09999999999999787,
                "tempo": 120.0
            },
            {
                "start_time": 30.29090909090909,
                "end_time": 30.393181818181816,
                "pitch": 64,
                "velocity": 127,
                "duration": 0.10227272727272663,
                "tempo": 120.0
            },
            {
                "start_time": 30.395454545454545,
                "end_time": 31.193181818181817,
                "pitch": 62,
                "velocity": 127,
                "duration": 0.797727272727272,
                "tempo": 120.0
            },
            {
                "start_time": 33.80681818181818,
                "end_time": 34.00454545454545,
                "pitch": 65,
                "velocity": 127,
                "duration": 0.19772727272727053,
                "tempo": 120.0
            },
            {
                "start_time": 34.00681818181818,
                "end_time": 34.20681818181818,
                "pitch": 67,
                "velocity": 127,
                "duration": 0.19999999999999574,
                "tempo": 120.0
            },
            {
                "start_time": 34.20909090909091,
                "end_time": 35.20681818181818,
                "pitch": 64,
                "velocity": 127,
                "duration": 0.9977272727272677,
                "tempo": 120.0
            },
            {
                "start_time": 35.20909090909091,
                "end_time": 35.809090909090905,
                "pitch": 60,
                "velocity": 127,
                "duration": 0.5999999999999943,
                "tempo": 120.0
            },
            {
                "start_time": 35.81136363636364,
                "end_time": 36.211363636363636,
                "pitch": 67,
                "velocity": 127,
                "duration": 0.3999999999999986,
                "tempo": 120.0
            },
            {
                "start_time": 27.352272727272727,
                "end_time": 36.21363636363636,
                "pitch": 79,
                "velocity": 127,
                "duration": 8.861363636363635,
                "tempo": 120.0
            },
            {
                "start_time": 36.211363636363636,
                "end_time": 36.21363636363636,
                "pitch": 79,
                "velocity": 127,
                "duration": 0.0022727272727252057,
                "tempo": 120.0
            },
            {
                "start_time": 36.21363636363636,
                "end_time": 36.26136363636363,
                "pitch": 67,
                "velocity": 127,
                "duration": 0.04772727272727195,
                "tempo": 120.0
            },
            {
                "start_time": 36.26136363636363,
                "end_time": 36.377272727272725,
                "pitch": 67,
                "velocity": 127,
                "duration": 0.11590909090909207,
                "tempo": 120.0
            },
            {
                "start_time": 36.26136363636363,
                "end_time": 36.42727272727272,
                "pitch": 55,
                "velocity": 127,
                "duration": 0.16590909090908923,
                "tempo": 120.0
            },
            {
                "start_time": 36.377272727272725,
                "end_time": 36.42727272727272,
                "pitch": 67,
                "velocity": 127,
                "duration": 0.04999999999999716,
                "tempo": 120.0
            },
            {
                "start_time": 36.42727272727272,
                "end_time": 36.54772727272727,
                "pitch": 67,
                "velocity": 127,
                "duration": 0.12045454545454959,
                "tempo": 120.0
            },
            {
                "start_time": 36.377272727272725,
                "end_time": 36.54772727272727,
                "pitch": 79,
                "velocity": 127,
                "duration": 0.17045454545454675,
                "tempo": 120.0
            },
            {
                "start_time": 36.42727272727272,
                "end_time": 36.6,
                "pitch": 55,
                "velocity": 127,
                "duration": 0.17272727272727906,
                "tempo": 120.0
            },
            {
                "start_time": 36.54772727272727,
                "end_time": 36.6,
                "pitch": 67,
                "velocity": 127,
                "duration": 0.05227272727272947,
                "tempo": 120.0
            },
            {
                "start_time": 36.6,
                "end_time": 36.71818181818182,
                "pitch": 67,
                "velocity": 127,
                "duration": 0.11818181818181728,
                "tempo": 120.0
            },
            {
                "start_time": 36.54772727272727,
                "end_time": 36.71818181818182,
                "pitch": 79,
                "velocity": 127,
                "duration": 0.17045454545454675,
                "tempo": 120.0
            },
            {
                "start_time": 36.6,
                "end_time": 36.77045454545454,
                "pitch": 55,
                "velocity": 127,
                "duration": 0.17045454545453964,
                "tempo": 120.0
            },
            {
                "start_time": 36.71818181818182,
                "end_time": 36.77045454545454,
                "pitch": 67,
                "velocity": 127,
                "duration": 0.052272727272722364,
                "tempo": 120.0
            },
            {
                "start_time": 36.77045454545454,
                "end_time": 36.88636363636363,
                "pitch": 67,
                "velocity": 127,
                "duration": 0.11590909090909207,
                "tempo": 120.0
            },
            {
                "start_time": 36.71818181818182,
                "end_time": 36.88636363636363,
                "pitch": 79,
                "velocity": 127,
                "duration": 0.16818181818181444,
                "tempo": 120.0
            },
            {
                "start_time": 36.77045454545454,
                "end_time": 36.93636363636364,
                "pitch": 55,
                "velocity": 127,
                "duration": 0.16590909090909634,
                "tempo": 120.0
            },
            {
                "start_time": 36.88636363636363,
                "end_time": 36.93636363636364,
                "pitch": 67,
                "velocity": 127,
                "duration": 0.05000000000000426,
                "tempo": 120.0
            },
            {
                "start_time": 36.93636363636364,
                "end_time": 37.018181818181816,
                "pitch": 67,
                "velocity": 127,
                "duration": 0.08181818181817846,
                "tempo": 120.0
            },
            {
                "start_time": 37.02045454545454,
                "end_time": 37.21363636363636,
                "pitch": 65,
                "velocity": 127,
                "duration": 0.19318181818182012,
                "tempo": 120.0
            },
            {
                "start_time": 37.215909090909086,
                "end_time": 37.42045454545455,
                "pitch": 64,
                "velocity": 127,
                "duration": 0.20454545454546036,
                "tempo": 120.0
            },
            {
                "start_time": 37.42272727272727,
                "end_time": 38.82954545454545,
                "pitch": 62,
                "velocity": 127,
                "duration": 1.4068181818181813,
                "tempo": 120.0
            },
            {
                "start_time": 38.83181818181818,
                "end_time": 38.929545454545455,
                "pitch": 58,
                "velocity": 101,
                "duration": 0.09772727272727622,
                "tempo": 120.0
            },
            {
                "start_time": 38.93181818181818,
                "end_time": 39.029545454545456,
                "pitch": 60,
                "velocity": 101,
                "duration": 0.09772727272727622,
                "tempo": 120.0
            },
            {
                "start_time": 39.03181818181818,
                "end_time": 39.12954545454545,
                "pitch": 61,
                "velocity": 101,
                "duration": 0.09772727272726911,
                "tempo": 120.0
            },
            {
                "start_time": 39.13181818181818,
                "end_time": 39.23181818181818,
                "pitch": 63,
                "velocity": 101,
                "duration": 0.09999999999999432,
                "tempo": 120.0
            },
            {
                "start_time": 39.23409090909091,
                "end_time": 40.83863636363636,
                "pitch": 65,
                "velocity": 101,
                "duration": 1.6045454545454518,
                "tempo": 120.0
            },
            {
                "start_time": 40.840909090909086,
                "end_time": 41.64090909090909,
                "pitch": 64,
                "velocity": 101,
                "duration": 0.8000000000000043,
                "tempo": 120.0
            },
            {
                "start_time": 41.643181818181816,
                "end_time": 41.675,
                "pitch": 63,
                "velocity": 101,
                "duration": 0.0318181818181813,
                "tempo": 120.0
            },
            {
                "start_time": 41.675,
                "end_time": 42.445454545454545,
                "pitch": 61,
                "velocity": 101,
                "duration": 0.7704545454545482,
                "tempo": 120.0
            },
            {
                "start_time": 42.44772727272727,
                "end_time": 42.47727272727273,
                "pitch": 61,
                "velocity": 101,
                "duration": 0.029545454545456096,
                "tempo": 120.0
            },
            {
                "start_time": 42.47727272727273,
                "end_time": 43.85,
                "pitch": 64,
                "velocity": 101,
                "duration": 1.3727272727272748,
                "tempo": 120.0
            },
            {
                "start_time": 43.85227272727273,
                "end_time": 45.663636363636364,
                "pitch": 63,
                "velocity": 101,
                "duration": 1.8113636363636374,
                "tempo": 120.0
            },
            {
                "start_time": 45.66590909090909,
                "end_time": 47.268181818181816,
                "pitch": 62,
                "velocity": 101,
                "duration": 1.6022727272727266,
                "tempo": 120.0
            },
            {
                "start_time": 47.27045454545454,
                "end_time": 47.3,
                "pitch": 63,
                "velocity": 101,
                "duration": 0.029545454545456096,
                "tempo": 120.0
            },
            {
                "start_time": 36.93636363636364,
                "end_time": 47.334090909090904,
                "pitch": 55,
                "velocity": 127,
                "duration": 10.397727272727266,
                "tempo": 120.0
            },
            {
                "start_time": 47.3,
                "end_time": 47.334090909090904,
                "pitch": 66,
                "velocity": 101,
                "duration": 0.03409090909090651,
                "tempo": 120.0
            },
            {
                "start_time": 47.334090909090904,
                "end_time": 47.56818181818181,
                "pitch": 67,
                "velocity": 101,
                "duration": 0.23409090909090935,
                "tempo": 120.0
            },
            {
                "start_time": 36.88636363636363,
                "end_time": 47.56818181818181,
                "pitch": 79,
                "velocity": 127,
                "duration": 10.68181818181818,
                "tempo": 120.0
            },
            {
                "start_time": 47.334090909090904,
                "end_time": 47.61818181818182,
                "pitch": 55,
                "velocity": 101,
                "duration": 0.2840909090909136,
                "tempo": 120.0
            },
            {
                "start_time": 47.56818181818181,
                "end_time": 47.61818181818182,
                "pitch": 67,
                "velocity": 101,
                "duration": 0.05000000000000426,
                "tempo": 120.0
            },
            {
                "start_time": 47.61818181818182,
                "end_time": 47.73409090909091,
                "pitch": 67,
                "velocity": 101,
                "duration": 0.11590909090909207,
                "tempo": 120.0
            },
            {
                "start_time": 47.56818181818181,
                "end_time": 47.73409090909091,
                "pitch": 79,
                "velocity": 101,
                "duration": 0.16590909090909634,
                "tempo": 120.0
            },
            {
                "start_time": 47.61818181818182,
                "end_time": 47.78409090909091,
                "pitch": 55,
                "velocity": 101,
                "duration": 0.16590909090908923,
                "tempo": 120.0
            },
            {
                "start_time": 47.73409090909091,
                "end_time": 47.78409090909091,
                "pitch": 67,
                "velocity": 101,
                "duration": 0.04999999999999716,
                "tempo": 120.0
            },
            {
                "start_time": 47.78409090909091,
                "end_time": 47.9,
                "pitch": 67,
                "velocity": 101,
                "duration": 0.11590909090909207,
                "tempo": 120.0
            },
            {
                "start_time": 47.73409090909091,
                "end_time": 47.9,
                "pitch": 79,
                "velocity": 101,
                "duration": 0.16590909090908923,
                "tempo": 120.0
            },
            {
                "start_time": 47.78409090909091,
                "end_time": 47.949999999999996,
                "pitch": 55,
                "velocity": 101,
                "duration": 0.16590909090908923,
                "tempo": 120.0
            },
            {
                "start_time": 47.9,
                "end_time": 47.949999999999996,
                "pitch": 67,
                "velocity": 101,
                "duration": 0.04999999999999716,
                "tempo": 120.0
            },
            {
                "start_time": 47.949999999999996,
                "end_time": 48.070454545454545,
                "pitch": 67,
                "velocity": 101,
                "duration": 0.12045454545454959,
                "tempo": 120.0
            },
            {
                "start_time": 48.07272727272727,
                "end_time": 48.87272727272727,
                "pitch": 66,
                "velocity": 101,
                "duration": 0.7999999999999972,
                "tempo": 120.0
            },
            {
                "start_time": 48.877272727272725,
                "end_time": 50.277272727272724,
                "pitch": 65,
                "velocity": 101,
                "duration": 1.3999999999999986,
                "tempo": 120.0
            },
            {
                "start_time": 50.28181818181818,
                "end_time": 51.27954545454545,
                "pitch": 64,
                "velocity": 101,
                "duration": 0.9977272727272677,
                "tempo": 120.0
            },
            {
                "start_time": 51.89545454545454,
                "end_time": 52.19090909090909,
                "pitch": 65,
                "velocity": 127,
                "duration": 0.29545454545454675,
                "tempo": 120.0
            },
            {
                "start_time": 52.19318181818181,
                "end_time": 52.23863636363636,
                "pitch": 67,
                "velocity": 127,
                "duration": 0.045454545454546746,
                "tempo": 120.0
            },
            {
                "start_time": 52.240909090909085,
                "end_time": 52.48863636363636,
                "pitch": 65,
                "velocity": 127,
                "duration": 0.2477272727272748,
                "tempo": 120.0
            },
            {
                "start_time": 52.48863636363636,
                "end_time": 52.69090909090909,
                "pitch": 64,
                "velocity": 127,
                "duration": 0.20227272727272805,
                "tempo": 120.0
            },
            {
                "start_time": 52.69318181818181,
                "end_time": 52.89772727272727,
                "pitch": 65,
                "velocity": 127,
                "duration": 0.20454545454546036,
                "tempo": 120.0
            },
            {
                "start_time": 52.9,
                "end_time": 53.29772727272727,
                "pitch": 67,
                "velocity": 127,
                "duration": 0.3977272727272734,
                "tempo": 120.0
            },
            {
                "start_time": 53.3,
                "end_time": 53.5,
                "pitch": 65,
                "velocity": 127,
                "duration": 0.20000000000000284,
                "tempo": 120.0
            },
            {
                "start_time": 53.502272727272725,
                "end_time": 53.9,
                "pitch": 64,
                "velocity": 127,
                "duration": 0.3977272727272734,
                "tempo": 120.0
            },
            {
                "start_time": 53.902272727272724,
                "end_time": 54.099999999999994,
                "pitch": 62,
                "velocity": 127,
                "duration": 0.19772727272727053,
                "tempo": 120.0
            },
            {
                "start_time": 54.10227272727273,
                "end_time": 54.699999999999996,
                "pitch": 62,
                "velocity": 127,
                "duration": 0.5977272727272691,
                "tempo": 120.0
            },
            {
                "start_time": 55.10454545454545,
                "end_time": 55.40454545454545,
                "pitch": 65,
                "velocity": 127,
                "duration": 0.29999999999999716,
                "tempo": 120.0
            },
            {
                "start_time": 55.40681818181818,
                "end_time": 55.45454545454545,
                "pitch": 67,
                "velocity": 127,
                "duration": 0.04772727272727195,
                "tempo": 120.0
            },
            {
                "start_time": 55.45681818181818,
                "end_time": 55.709090909090904,
                "pitch": 65,
                "velocity": 127,
                "duration": 0.2522727272727252,
                "tempo": 120.0
            },
            {
                "start_time": 55.711363636363636,
                "end_time": 55.90681818181818,
                "pitch": 64,
                "velocity": 127,
                "duration": 0.19545454545454533,
                "tempo": 120.0
            },
            {
                "start_time": 55.90909090909091,
                "end_time": 56.10909090909091,
                "pitch": 65,
                "velocity": 127,
                "duration": 0.20000000000000284,
                "tempo": 120.0
            },
            {
                "start_time": 56.10909090909091,
                "end_time": 56.50909090909091,
                "pitch": 67,
                "velocity": 127,
                "duration": 0.3999999999999986,
                "tempo": 120.0
            },
            {
                "start_time": 56.51136363636363,
                "end_time": 56.711363636363636,
                "pitch": 65,
                "velocity": 127,
                "duration": 0.20000000000000284,
                "tempo": 120.0
            },
            {
                "start_time": 56.71363636363636,
                "end_time": 57.111363636363635,
                "pitch": 64,
                "velocity": 127,
                "duration": 0.3977272727272734,
                "tempo": 120.0
            },
            {
                "start_time": 57.11363636363636,
                "end_time": 57.31363636363636,
                "pitch": 62,
                "velocity": 127,
                "duration": 0.20000000000000284,
                "tempo": 120.0
            },
            {
                "start_time": 57.31590909090909,
                "end_time": 57.913636363636364,
                "pitch": 62,
                "velocity": 127,
                "duration": 0.5977272727272762,
                "tempo": 120.0
            },
            {
                "start_time": 58.31818181818181,
                "end_time": 58.615909090909085,
                "pitch": 65,
                "velocity": 127,
                "duration": 0.29772727272727195,
                "tempo": 120.0
            },
            {
                "start_time": 58.615909090909085,
                "end_time": 58.66590909090909,
                "pitch": 67,
                "velocity": 127,
                "duration": 0.05000000000000426,
                "tempo": 120.0
            },
            {
                "start_time": 58.66590909090909,
                "end_time": 58.918181818181814,
                "pitch": 65,
                "velocity": 127,
                "duration": 0.2522727272727252,
                "tempo": 120.0
            },
            {
                "start_time": 58.918181818181814,
                "end_time": 59.115909090909085,
                "pitch": 64,
                "velocity": 127,
                "duration": 0.19772727272727053,
                "tempo": 120.0
            },
            {
                "start_time": 59.11818181818182,
                "end_time": 59.31818181818181,
                "pitch": 65,
                "velocity": 127,
                "duration": 0.19999999999999574,
                "tempo": 120.0
            },
            {
                "start_time": 59.320454545454545,
                "end_time": 59.72727272727273,
                "pitch": 67,
                "velocity": 127,
                "duration": 0.4068181818181813,
                "tempo": 120.0
            },
            {
                "start_time": 59.72954545454545,
                "end_time": 59.929545454545455,
                "pitch": 65,
                "velocity": 127,
                "duration": 0.20000000000000284,
                "tempo": 120.0
            },
            {
                "start_time": 59.93181818181818,
                "end_time": 60.724999999999994,
                "pitch": 64,
                "velocity": 127,
                "duration": 0.7931818181818144,
                "tempo": 120.0
            },
            {
                "start_time": 60.72727272727273,
                "end_time": 60.934090909090905,
                "pitch": 64,
                "velocity": 127,
                "duration": 0.20681818181817846,
                "tempo": 120.0
            },
            {
                "start_time": 60.93636363636363,
                "end_time": 61.13409090909091,
                "pitch": 65,
                "velocity": 127,
                "duration": 0.19772727272727764,
                "tempo": 120.0
            },
            {
                "start_time": 61.13636363636363,
                "end_time": 61.33181818181818,
                "pitch": 64,
                "velocity": 127,
                "duration": 0.19545454545454533,
                "tempo": 120.0
            },
            {
                "start_time": 61.334090909090904,
                "end_time": 61.53636363636363,
                "pitch": 61,
                "velocity": 127,
                "duration": 0.20227272727272805,
                "tempo": 120.0
            },
            {
                "start_time": 61.538636363636364,
                "end_time": 61.736363636363635,
                "pitch": 57,
                "velocity": 127,
                "duration": 0.19772727272727053,
                "tempo": 120.0
            },
            {
                "start_time": 61.73863636363636,
                "end_time": 61.93863636363636,
                "pitch": 58,
                "velocity": 127,
                "duration": 0.20000000000000284,
                "tempo": 120.0
            },
            {
                "start_time": 47.949999999999996,
                "end_time": 62.13863636363636,
                "pitch": 55,
                "velocity": 101,
                "duration": 14.188636363636363,
                "tempo": 120.0
            },
            {
                "start_time": 61.93863636363636,
                "end_time": 62.13863636363636,
                "pitch": 55,
                "velocity": 127,
                "duration": 0.19999999999999574,
                "tempo": 120.0
            },
            {
                "start_time": 62.14090909090909,
                "end_time": 62.336363636363636,
                "pitch": 58,
                "velocity": 127,
                "duration": 0.19545454545454533,
                "tempo": 120.0
            },
            {
                "start_time": 62.33863636363636,
                "end_time": 62.538636363636364,
                "pitch": 62,
                "velocity": 127,
                "duration": 0.20000000000000284,
                "tempo": 120.0
            },
            {
                "start_time": 62.54090909090909,
                "end_time": 62.73863636363636,
                "pitch": 65,
                "velocity": 127,
                "duration": 0.19772727272727053,
                "tempo": 120.0
            },
            {
                "start_time": 62.740909090909085,
                "end_time": 62.93636363636363,
                "pitch": 67,
                "velocity": 127,
                "duration": 0.19545454545454533,
                "tempo": 120.0
            },
            {
                "start_time": 62.93863636363636,
                "end_time": 63.13863636363636,
                "pitch": 65,
                "velocity": 127,
                "duration": 0.19999999999999574,
                "tempo": 120.0
            },
            {
                "start_time": 63.14090909090909,
                "end_time": 63.94090909090909,
                "pitch": 64,
                "velocity": 127,
                "duration": 0.7999999999999972,
                "tempo": 120.0
            },
            {
                "start_time": 63.94318181818181,
                "end_time": 64.74772727272727,
                "pitch": 61,
                "velocity": 127,
                "duration": 0.8045454545454618,
                "tempo": 120.0
            },
            {
                "start_time": 64.75,
                "end_time": 65.04545454545455,
                "pitch": 65,
                "velocity": 127,
                "duration": 0.29545454545454675,
                "tempo": 120.0
            },
            {
                "start_time": 65.04772727272727,
                "end_time": 65.09545454545454,
                "pitch": 67,
                "velocity": 127,
                "duration": 0.04772727272727195,
                "tempo": 120.0
            },
            {
                "start_time": 65.09772727272727,
                "end_time": 65.34772727272727,
                "pitch": 65,
                "velocity": 127,
                "duration": 0.25,
                "tempo": 120.0
            },
            {
                "start_time": 65.35,
                "end_time": 65.54772727272727,
                "pitch": 64,
                "velocity": 127,
                "duration": 0.19772727272727764,
                "tempo": 120.0
            },
            {
                "start_time": 65.55,
                "end_time": 65.75,
                "pitch": 65,
                "velocity": 127,
                "duration": 0.20000000000000284,
                "tempo": 120.0
            },
            {
                "start_time": 65.75227272727273,
                "end_time": 66.14999999999999,
                "pitch": 67,
                "velocity": 127,
                "duration": 0.39772727272726627,
                "tempo": 120.0
            },
            {
                "start_time": 66.15227272727273,
                "end_time": 66.35681818181818,
                "pitch": 65,
                "velocity": 127,
                "duration": 0.20454545454545325,
                "tempo": 120.0
            },
            {
                "start_time": 66.35909090909091,
                "end_time": 66.7590909090909,
                "pitch": 64,
                "velocity": 127,
                "duration": 0.3999999999999915,
                "tempo": 120.0
            },
            {
                "start_time": 66.76136363636363,
                "end_time": 66.95454545454545,
                "pitch": 62,
                "velocity": 127,
                "duration": 0.19318181818182723,
                "tempo": 120.0
            },
            {
                "start_time": 66.95681818181818,
                "end_time": 67.56363636363636,
                "pitch": 62,
                "velocity": 127,
                "duration": 0.6068181818181841,
                "tempo": 120.0
            },
            {
                "start_time": 67.9659090909091,
                "end_time": 68.26590909090909,
                "pitch": 65,
                "velocity": 127,
                "duration": 0.29999999999999716,
                "tempo": 120.0
            },
            {
                "start_time": 68.26818181818182,
                "end_time": 68.31363636363636,
                "pitch": 67,
                "velocity": 127,
                "duration": 0.045454545454546746,
                "tempo": 120.0
            },
            {
                "start_time": 68.31590909090909,
                "end_time": 68.56363636363636,
                "pitch": 65,
                "velocity": 127,
                "duration": 0.2477272727272748,
                "tempo": 120.0
            },
            {
                "start_time": 68.56363636363636,
                "end_time": 68.76590909090909,
                "pitch": 64,
                "velocity": 127,
                "duration": 0.20227272727272805,
                "tempo": 120.0
            },
            {
                "start_time": 68.76818181818182,
                "end_time": 68.97272727272727,
                "pitch": 65,
                "velocity": 127,
                "duration": 0.20454545454545325,
                "tempo": 120.0
            },
            {
                "start_time": 68.975,
                "end_time": 69.375,
                "pitch": 67,
                "velocity": 127,
                "duration": 0.4000000000000057,
                "tempo": 120.0
            },
            {
                "start_time": 69.37727272727273,
                "end_time": 69.57727272727273,
                "pitch": 65,
                "velocity": 127,
                "duration": 0.20000000000000284,
                "tempo": 120.0
            },
            {
                "start_time": 69.57954545454545,
                "end_time": 69.97954545454544,
                "pitch": 64,
                "velocity": 127,
                "duration": 0.3999999999999915,
                "tempo": 120.0
            },
            {
                "start_time": 69.98181818181818,
                "end_time": 70.18181818181817,
                "pitch": 62,
                "velocity": 127,
                "duration": 0.19999999999998863,
                "tempo": 120.0
            },
            {
                "start_time": 70.18409090909091,
                "end_time": 70.77954545454546,
                "pitch": 62,
                "velocity": 127,
                "duration": 0.5954545454545439,
                "tempo": 120.0
            },
            {
                "start_time": 71.18409090909091,
                "end_time": 71.48636363636363,
                "pitch": 65,
                "velocity": 127,
                "duration": 0.30227272727272236,
                "tempo": 120.0
            },
            {
                "start_time": 71.48863636363636,
                "end_time": 71.53636363636363,
                "pitch": 67,
                "velocity": 127,
                "duration": 0.04772727272727195,
                "tempo": 120.0
            },
            {
                "start_time": 71.53863636363636,
                "end_time": 71.78863636363636,
                "pitch": 65,
                "velocity": 127,
                "duration": 0.25,
                "tempo": 120.0
            },
            {
                "start_time": 71.79090909090908,
                "end_time": 71.98863636363636,
                "pitch": 64,
                "velocity": 127,
                "duration": 0.19772727272727764,
                "tempo": 120.0
            },
            {
                "start_time": 71.99090909090908,
                "end_time": 72.19090909090909,
                "pitch": 65,
                "velocity": 127,
                "duration": 0.20000000000000284,
                "tempo": 120.0
            },
            {
                "start_time": 72.19318181818181,
                "end_time": 72.59318181818182,
                "pitch": 67,
                "velocity": 127,
                "duration": 0.4000000000000057,
                "tempo": 120.0
            },
            {
                "start_time": 72.59545454545454,
                "end_time": 72.79545454545455,
                "pitch": 65,
                "velocity": 127,
                "duration": 0.20000000000000284,
                "tempo": 120.0
            },
            {
                "start_time": 72.79772727272727,
                "end_time": 73.59772727272727,
                "pitch": 64,
                "velocity": 127,
                "duration": 0.7999999999999972,
                "tempo": 120.0
            },
            {
                "start_time": 73.59772727272727,
                "end_time": 73.79772727272727,
                "pitch": 64,
                "velocity": 127,
                "duration": 0.20000000000000284,
                "tempo": 120.0
            },
            {
                "start_time": 73.8,
                "end_time": 74.0,
                "pitch": 65,
                "velocity": 127,
                "duration": 0.20000000000000284,
                "tempo": 120.0
            },
            {
                "start_time": 74.00227272727273,
                "end_time": 74.2,
                "pitch": 64,
                "velocity": 127,
                "duration": 0.19772727272727764,
                "tempo": 120.0
            },
            {
                "start_time": 74.20227272727273,
                "end_time": 74.40454545454546,
                "pitch": 61,
                "velocity": 127,
                "duration": 0.20227272727272805,
                "tempo": 120.0
            },
            {
                "start_time": 74.40681818181818,
                "end_time": 74.60454545454544,
                "pitch": 57,
                "velocity": 127,
                "duration": 0.19772727272726343,
                "tempo": 120.0
            },
            {
                "start_time": 74.60454545454544,
                "end_time": 74.80454545454545,
                "pitch": 58,
                "velocity": 127,
                "duration": 0.20000000000000284,
                "tempo": 120.0
            },
            {
                "start_time": 74.80681818181817,
                "end_time": 75.00681818181818,
                "pitch": 55,
                "velocity": 127,
                "duration": 0.20000000000000284,
                "tempo": 120.0
            },
            {
                "start_time": 75.00681818181818,
                "end_time": 75.2090909090909,
                "pitch": 58,
                "velocity": 127,
                "duration": 0.20227272727272805,
                "tempo": 120.0
            },
            {
                "start_time": 75.21136363636363,
                "end_time": 75.61136363636363,
                "pitch": 62,
                "velocity": 127,
                "duration": 0.4000000000000057,
                "tempo": 120.0
            },
            {
                "start_time": 75.61363636363636,
                "end_time": 75.80681818181817,
                "pitch": 65,
                "velocity": 127,
                "duration": 0.19318181818181301,
                "tempo": 120.0
            },
            {
                "start_time": 75.80909090909091,
                "end_time": 75.9090909090909,
                "pitch": 64,
                "velocity": 127,
                "duration": 0.09999999999999432,
                "tempo": 120.0
            },
            {
                "start_time": 75.91136363636363,
                "end_time": 76.01363636363637,
                "pitch": 65,
                "velocity": 127,
                "duration": 0.10227272727273373,
                "tempo": 120.0
            },
            {
                "start_time": 76.01590909090909,
                "end_time": 76.21818181818182,
                "pitch": 67,
                "velocity": 127,
                "duration": 0.20227272727272805,
                "tempo": 120.0
            },
            {
                "start_time": 76.22045454545454,
                "end_time": 82.25227272727273,
                "pitch": 69,
                "velocity": 127,
                "duration": 6.031818181818181,
                "tempo": 120.0
            },
            {
                "start_time": 82.25454545454545,
                "end_time": 82.66363636363636,
                "pitch": 69,
                "velocity": 4,
                "duration": 0.4090909090909065,
                "tempo": 120.0
            }
        ],
        "Trumpet": [
            {
                "start_time": 0.4113636363636363,
                "end_time": 0.44090909090909086,
                "pitch": 25,
                "velocity": 4,
                "duration": 0.02954545454545454,
                "tempo": 120.0
            },
            {
                "start_time": 0.44090909090909086,
                "end_time": 0.475,
                "pitch": 27,
                "velocity": 4,
                "duration": 0.034090909090909116,
                "tempo": 120.0
            },
            {
                "start_time": 0.475,
                "end_time": 0.509090909090909,
                "pitch": 30,
                "velocity": 4,
                "duration": 0.03409090909090906,
                "tempo": 120.0
            },
            {
                "start_time": 0.509090909090909,
                "end_time": 0.5431818181818182,
                "pitch": 32,
                "velocity": 4,
                "duration": 0.03409090909090917,
                "tempo": 120.0
            },
            {
                "start_time": 0.5431818181818182,
                "end_time": 0.575,
                "pitch": 34,
                "velocity": 4,
                "duration": 0.031818181818181746,
                "tempo": 120.0
            },
            {
                "start_time": 0.575,
                "end_time": 0.609090909090909,
                "pitch": 37,
                "velocity": 4,
                "duration": 0.03409090909090906,
                "tempo": 120.0
            },
            {
                "start_time": 0.609090909090909,
                "end_time": 0.6431818181818182,
                "pitch": 39,
                "velocity": 4,
                "duration": 0.03409090909090917,
                "tempo": 120.0
            },
            {
                "start_time": 0.6431818181818182,
                "end_time": 0.6749999999999999,
                "pitch": 41,
                "velocity": 4,
                "duration": 0.031818181818181746,
                "tempo": 120.0
            },
            {
                "start_time": 0.6749999999999999,
                "end_time": 0.7068181818181818,
                "pitch": 44,
                "velocity": 4,
                "duration": 0.03181818181818186,
                "tempo": 120.0
            },
            {
                "start_time": 0.7068181818181818,
                "end_time": 0.7409090909090909,
                "pitch": 46,
                "velocity": 4,
                "duration": 0.03409090909090906,
                "tempo": 120.0
            },
            {
                "start_time": 0.7409090909090909,
                "end_time": 0.7727272727272727,
                "pitch": 48,
                "velocity": 4,
                "duration": 0.03181818181818186,
                "tempo": 120.0
            },
            {
                "start_time": 0.7727272727272727,
                "end_time": 0.8045454545454545,
                "pitch": 51,
                "velocity": 4,
                "duration": 0.031818181818181746,
                "tempo": 120.0
            },
            {
                "start_time": 0.8068181818181818,
                "end_time": 1.0022727272727272,
                "pitch": 65,
                "velocity": 51,
                "duration": 0.19545454545454544,
                "tempo": 120.0
            },
            {
                "start_time": 1.0022727272727272,
                "end_time": 1.4136363636363636,
                "pitch": 64,
                "velocity": 51,
                "duration": 0.4113636363636364,
                "tempo": 120.0
            },
            {
                "start_time": 1.4136363636363636,
                "end_time": 1.6136363636363635,
                "pitch": 64,
                "velocity": 51,
                "duration": 0.19999999999999996,
                "tempo": 120.0
            },
            {
                "start_time": 1.6159090909090907,
                "end_time": 2.0159090909090907,
                "pitch": 65,
                "velocity": 51,
                "duration": 0.3999999999999999,
                "tempo": 120.0
            },
            {
                "start_time": 2.0159090909090907,
                "end_time": 2.415909090909091,
                "pitch": 64,
                "velocity": 51,
                "duration": 0.40000000000000036,
                "tempo": 120.0
            },
            {
                "start_time": 2.418181818181818,
                "end_time": 2.618181818181818,
                "pitch": 63,
                "velocity": 51,
                "duration": 0.20000000000000018,
                "tempo": 120.0
            },
            {
                "start_time": 2.618181818181818,
                "end_time": 3.829545454545454,
                "pitch": 62,
                "velocity": 51,
                "duration": 1.211363636363636,
                "tempo": 120.0
            },
            {
                "start_time": 4.027272727272727,
                "end_time": 4.222727272727273,
                "pitch": 63,
                "velocity": 51,
                "duration": 0.19545454545454533,
                "tempo": 120.0
            },
            {
                "start_time": 4.225,
                "end_time": 4.622727272727272,
                "pitch": 64,
                "velocity": 51,
                "duration": 0.3977272727272725,
                "tempo": 120.0
            },
            {
                "start_time": 4.625,
                "end_time": 4.825,
                "pitch": 64,
                "velocity": 51,
                "duration": 0.20000000000000018,
                "tempo": 120.0
            },
            {
                "start_time": 4.825,
                "end_time": 5.227272727272727,
                "pitch": 65,
                "velocity": 51,
                "duration": 0.40227272727272645,
                "tempo": 120.0
            },
            {
                "start_time": 5.227272727272727,
                "end_time": 5.627272727272727,
                "pitch": 64,
                "velocity": 51,
                "duration": 0.40000000000000036,
                "tempo": 120.0
            },
            {
                "start_time": 5.629545454545454,
                "end_time": 5.829545454545454,
                "pitch": 63,
                "velocity": 51,
                "duration": 0.20000000000000018,
                "tempo": 120.0
            },
            {
                "start_time": 5.831818181818181,
                "end_time": 7.045454545454545,
                "pitch": 62,
                "velocity": 51,
                "duration": 1.2136363636363638,
                "tempo": 120.0
            },
            {
                "start_time": 7.245454545454545,
                "end_time": 7.445454545454545,
                "pitch": 63,
                "velocity": 51,
                "duration": 0.20000000000000018,
                "tempo": 120.0
            },
            {
                "start_time": 7.447727272727272,
                "end_time": 7.847727272727273,
                "pitch": 64,
                "velocity": 51,
                "duration": 0.40000000000000036,
                "tempo": 120.0
            },
            {
                "start_time": 7.85,
                "end_time": 8.049999999999999,
                "pitch": 64,
                "velocity": 51,
                "duration": 0.1999999999999993,
                "tempo": 120.0
            },
            {
                "start_time": 8.052272727272728,
                "end_time": 8.452272727272726,
                "pitch": 65,
                "velocity": 51,
                "duration": 0.3999999999999986,
                "tempo": 120.0
            },
            {
                "start_time": 8.454545454545453,
                "end_time": 8.854545454545454,
                "pitch": 64,
                "velocity": 51,
                "duration": 0.40000000000000036,
                "tempo": 120.0
            },
            {
                "start_time": 8.85681818181818,
                "end_time": 9.054545454545455,
                "pitch": 63,
                "velocity": 51,
                "duration": 0.19772727272727408,
                "tempo": 120.0
            },
            {
                "start_time": 9.056818181818182,
                "end_time": 10.26590909090909,
                "pitch": 62,
                "velocity": 51,
                "duration": 1.209090909090909,
                "tempo": 120.0
            },
            {
                "start_time": 10.468181818181817,
                "end_time": 10.668181818181818,
                "pitch": 63,
                "velocity": 51,
                "duration": 0.20000000000000107,
                "tempo": 120.0
            },
            {
                "start_time": 10.670454545454545,
                "end_time": 11.068181818181818,
                "pitch": 64,
                "velocity": 51,
                "duration": 0.3977272727272734,
                "tempo": 120.0
            },
            {
                "start_time": 11.070454545454545,
                "end_time": 11.270454545454545,
                "pitch": 64,
                "velocity": 51,
                "duration": 0.1999999999999993,
                "tempo": 120.0
            },
            {
                "start_time": 11.272727272727272,
                "end_time": 11.672727272727272,
                "pitch": 65,
                "velocity": 51,
                "duration": 0.40000000000000036,
                "tempo": 120.0
            },
            {
                "start_time": 11.674999999999999,
                "end_time": 12.077272727272726,
                "pitch": 64,
                "velocity": 51,
                "duration": 0.40227272727272734,
                "tempo": 120.0
            },
            {
                "start_time": 12.079545454545453,
                "end_time": 12.279545454545454,
                "pitch": 63,
                "velocity": 51,
                "duration": 0.20000000000000107,
                "tempo": 120.0
            },
            {
                "start_time": 12.279545454545454,
                "end_time": 13.493181818181817,
                "pitch": 62,
                "velocity": 51,
                "duration": 1.213636363636363,
                "tempo": 120.0
            },
            {
                "start_time": 13.69090909090909,
                "end_time": 13.886363636363635,
                "pitch": 63,
                "velocity": 40,
                "duration": 0.19545454545454533,
                "tempo": 120.0
            },
            {
                "start_time": 13.888636363636364,
                "end_time": 14.297727272727272,
                "pitch": 64,
                "velocity": 40,
                "duration": 0.4090909090909083,
                "tempo": 120.0
            },
            {
                "start_time": 14.297727272727272,
                "end_time": 14.5,
                "pitch": 65,
                "velocity": 40,
                "duration": 0.20227272727272805,
                "tempo": 120.0
            },
            {
                "start_time": 14.5,
                "end_time": 14.902272727272727,
                "pitch": 64,
                "velocity": 40,
                "duration": 0.40227272727272734,
                "tempo": 120.0
            },
            {
                "start_time": 14.904545454545454,
                "end_time": 15.304545454545455,
                "pitch": 65,
                "velocity": 40,
                "duration": 0.40000000000000036,
                "tempo": 120.0
            },
            {
                "start_time": 15.304545454545455,
                "end_time": 15.504545454545454,
                "pitch": 65,
                "velocity": 40,
                "duration": 0.1999999999999993,
                "tempo": 120.0
            },
            {
                "start_time": 15.506818181818181,
                "end_time": 15.906818181818181,
                "pitch": 64,
                "velocity": 40,
                "duration": 0.40000000000000036,
                "tempo": 120.0
            },
            {
                "start_time": 15.909090909090908,
                "end_time": 16.10909090909091,
                "pitch": 65,
                "velocity": 40,
                "duration": 0.20000000000000107,
                "tempo": 120.0
            },
            {
                "start_time": 16.111363636363635,
                "end_time": 16.511363636363637,
                "pitch": 64,
                "velocity": 40,
                "duration": 0.40000000000000213,
                "tempo": 120.0
            },
            {
                "start_time": 16.91590909090909,
                "end_time": 17.113636363636363,
                "pitch": 65,
                "velocity": 40,
                "duration": 0.19772727272727408,
                "tempo": 120.0
            },
            {
                "start_time": 17.11590909090909,
                "end_time": 17.518181818181816,
                "pitch": 64,
                "velocity": 40,
                "duration": 0.40227272727272734,
                "tempo": 120.0
            },
            {
                "start_time": 17.518181818181816,
                "end_time": 17.71818181818182,
                "pitch": 65,
                "velocity": 40,
                "duration": 0.20000000000000284,
                "tempo": 120.0
            },
            {
                "start_time": 17.720454545454544,
                "end_time": 18.118181818181817,
                "pitch": 64,
                "velocity": 40,
                "duration": 0.3977272727272734,
                "tempo": 120.0
            },
            {
                "start_time": 18.120454545454546,
                "end_time": 18.520454545454545,
                "pitch": 65,
                "velocity": 40,
                "duration": 0.3999999999999986,
                "tempo": 120.0
            },
            {
                "start_time": 18.522727272727273,
                "end_time": 18.722727272727273,
                "pitch": 65,
                "velocity": 40,
                "duration": 0.1999999999999993,
                "tempo": 120.0
            },
            {
                "start_time": 18.722727272727273,
                "end_time": 19.12272727272727,
                "pitch": 64,
                "velocity": 40,
                "duration": 0.3999999999999986,
                "tempo": 120.0
            },
            {
                "start_time": 19.12272727272727,
                "end_time": 19.325,
                "pitch": 65,
                "velocity": 40,
                "duration": 0.20227272727272805,
                "tempo": 120.0
            },
            {
                "start_time": 19.325,
                "end_time": 19.724999999999998,
                "pitch": 64,
                "velocity": 40,
                "duration": 0.3999999999999986,
                "tempo": 120.0
            },
            {
                "start_time": 20.127272727272725,
                "end_time": 20.327272727272728,
                "pitch": 65,
                "velocity": 40,
                "duration": 0.20000000000000284,
                "tempo": 120.0
            },
            {
                "start_time": 20.327272727272728,
                "end_time": 20.729545454545452,
                "pitch": 64,
                "velocity": 40,
                "duration": 0.4022727272727238,
                "tempo": 120.0
            },
            {
                "start_time": 20.73181818181818,
                "end_time": 20.929545454545455,
                "pitch": 64,
                "velocity": 40,
                "duration": 0.19772727272727408,
                "tempo": 120.0
            },
            {
                "start_time": 20.93181818181818,
                "end_time": 21.336363636363636,
                "pitch": 65,
                "velocity": 40,
                "duration": 0.4045454545454561,
                "tempo": 120.0
            },
            {
                "start_time": 21.33863636363636,
                "end_time": 21.738636363636363,
                "pitch": 64,
                "velocity": 40,
                "duration": 0.40000000000000213,
                "tempo": 120.0
            },
            {
                "start_time": 21.738636363636363,
                "end_time": 21.93409090909091,
                "pitch": 64,
                "velocity": 40,
                "duration": 0.19545454545454533,
                "tempo": 120.0
            },
            {
                "start_time": 21.936363636363634,
                "end_time": 22.345454545454544,
                "pitch": 64,
                "velocity": 40,
                "duration": 0.40909090909091006,
                "tempo": 120.0
            },
            {
                "start_time": 22.347727272727273,
                "end_time": 22.545454545454543,
                "pitch": 64,
                "velocity": 40,
                "duration": 0.19772727272727053,
                "tempo": 120.0
            },
            {
                "start_time": 22.547727272727272,
                "end_time": 22.94772727272727,
                "pitch": 64,
                "velocity": 40,
                "duration": 0.3999999999999986,
                "tempo": 120.0
            },
            {
                "start_time": 22.95,
                "end_time": 23.349999999999998,
                "pitch": 65,
                "velocity": 40,
                "duration": 0.3999999999999986,
                "tempo": 120.0
            },
            {
                "start_time": 23.349999999999998,
                "end_time": 23.549999999999997,
                "pitch": 65,
                "velocity": 40,
                "duration": 0.1999999999999993,
                "tempo": 120.0
            },
            {
                "start_time": 23.552272727272726,
                "end_time": 23.952272727272724,
                "pitch": 64,
                "velocity": 40,
                "duration": 0.3999999999999986,
                "tempo": 120.0
            },
            {
                "start_time": 23.954545454545453,
                "end_time": 24.152272727272727,
                "pitch": 65,
                "velocity": 40,
                "duration": 0.19772727272727408,
                "tempo": 120.0
            },
            {
                "start_time": 24.154545454545453,
                "end_time": 24.554545454545455,
                "pitch": 64,
                "velocity": 40,
                "duration": 0.40000000000000213,
                "tempo": 120.0
            },
            {
                "start_time": 24.554545454545455,
                "end_time": 25.35681818181818,
                "pitch": 65,
                "velocity": 40,
                "duration": 0.8022727272727259,
                "tempo": 120.0
            },
            {
                "start_time": 25.35909090909091,
                "end_time": 26.361363636363635,
                "pitch": 64,
                "velocity": 40,
                "duration": 1.0022727272727252,
                "tempo": 120.0
            },
            {
                "start_time": 26.563636363636363,
                "end_time": 26.761363636363637,
                "pitch": 65,
                "velocity": 40,
                "duration": 0.19772727272727408,
                "tempo": 120.0
            },
            {
                "start_time": 26.763636363636362,
                "end_time": 27.16590909090909,
                "pitch": 64,
                "velocity": 40,
                "duration": 0.40227272727272734,
                "tempo": 120.0
            },
            {
                "start_time": 27.16590909090909,
                "end_time": 27.36590909090909,
                "pitch": 65,
                "velocity": 40,
                "duration": 0.1999999999999993,
                "tempo": 120.0
            },
            {
                "start_time": 27.36590909090909,
                "end_time": 27.770454545454545,
                "pitch": 64,
                "velocity": 40,
                "duration": 0.4045454545454561,
                "tempo": 120.0
            },
            {
                "start_time": 27.77272727272727,
                "end_time": 28.172727272727272,
                "pitch": 65,
                "velocity": 40,
                "duration": 0.40000000000000213,
                "tempo": 120.0
            },
            {
                "start_time": 28.174999999999997,
                "end_time": 28.370454545454542,
                "pitch": 65,
                "velocity": 40,
                "duration": 0.19545454545454533,
                "tempo": 120.0
            },
            {
                "start_time": 28.370454545454542,
                "end_time": 28.779545454545453,
                "pitch": 64,
                "velocity": 40,
                "duration": 0.40909090909091006,
                "tempo": 120.0
            },
            {
                "start_time": 28.78181818181818,
                "end_time": 28.98181818181818,
                "pitch": 65,
                "velocity": 40,
                "duration": 0.1999999999999993,
                "tempo": 120.0
            },
            {
                "start_time": 28.98181818181818,
                "end_time": 29.38181818181818,
                "pitch": 64,
                "velocity": 40,
                "duration": 0.3999999999999986,
                "tempo": 120.0
            },
            {
                "start_time": 29.78181818181818,
                "end_time": 29.977272727272727,
                "pitch": 65,
                "velocity": 40,
                "duration": 0.19545454545454533,
                "tempo": 120.0
            },
            {
                "start_time": 29.979545454545452,
                "end_time": 30.388636363636362,
                "pitch": 64,
                "velocity": 40,
                "duration": 0.40909090909091006,
                "tempo": 120.0
            },
            {
                "start_time": 30.388636363636362,
                "end_time": 30.58863636363636,
                "pitch": 65,
                "velocity": 40,
                "duration": 0.1999999999999993,
                "tempo": 120.0
            },
            {
                "start_time": 30.59090909090909,
                "end_time": 30.988636363636363,
                "pitch": 64,
                "velocity": 40,
                "duration": 0.3977272727272734,
                "tempo": 120.0
            },
            {
                "start_time": 30.99090909090909,
                "end_time": 31.39090909090909,
                "pitch": 65,
                "velocity": 40,
                "duration": 0.40000000000000213,
                "tempo": 120.0
            },
            {
                "start_time": 31.393181818181816,
                "end_time": 31.593181818181815,
                "pitch": 65,
                "velocity": 40,
                "duration": 0.1999999999999993,
                "tempo": 120.0
            },
            {
                "start_time": 31.593181818181815,
                "end_time": 31.993181818181817,
                "pitch": 64,
                "velocity": 40,
                "duration": 0.40000000000000213,
                "tempo": 120.0
            },
            {
                "start_time": 31.995454545454542,
                "end_time": 32.195454545454545,
                "pitch": 65,
                "velocity": 40,
                "duration": 0.20000000000000284,
                "tempo": 120.0
            },
            {
                "start_time": 32.195454545454545,
                "end_time": 32.595454545454544,
                "pitch": 64,
                "velocity": 40,
                "duration": 0.3999999999999986,
                "tempo": 120.0
            },
            {
                "start_time": 32.99772727272727,
                "end_time": 33.19772727272727,
                "pitch": 65,
                "velocity": 40,
                "duration": 0.20000000000000284,
                "tempo": 120.0
            },
            {
                "start_time": 33.199999999999996,
                "end_time": 33.59772727272727,
                "pitch": 64,
                "velocity": 40,
                "duration": 0.3977272727272734,
                "tempo": 120.0
            },
            {
                "start_time": 33.6,
                "end_time": 33.8,
                "pitch": 64,
                "velocity": 40,
                "duration": 0.19999999999999574,
                "tempo": 120.0
            },
            {
                "start_time": 33.8,
                "end_time": 34.20227272727273,
                "pitch": 65,
                "velocity": 40,
                "duration": 0.4022727272727309,
                "tempo": 120.0
            },
            {
                "start_time": 34.20227272727273,
                "end_time": 34.60227272727273,
                "pitch": 64,
                "velocity": 40,
                "duration": 0.3999999999999986,
                "tempo": 120.0
            },
            {
                "start_time": 34.60227272727273,
                "end_time": 34.80227272727272,
                "pitch": 64,
                "velocity": 40,
                "duration": 0.19999999999999574,
                "tempo": 120.0
            },
            {
                "start_time": 34.804545454545455,
                "end_time": 35.20227272727273,
                "pitch": 64,
                "velocity": 40,
                "duration": 0.3977272727272734,
                "tempo": 120.0
            },
            {
                "start_time": 35.20454545454545,
                "end_time": 35.402272727272724,
                "pitch": 64,
                "velocity": 40,
                "duration": 0.19772727272727053,
                "tempo": 120.0
            },
            {
                "start_time": 35.404545454545456,
                "end_time": 35.804545454545455,
                "pitch": 64,
                "velocity": 40,
                "duration": 0.3999999999999986,
                "tempo": 120.0
            },
            {
                "start_time": 35.80681818181818,
                "end_time": 36.20681818181818,
                "pitch": 65,
                "velocity": 40,
                "duration": 0.3999999999999986,
                "tempo": 120.0
            },
            {
                "start_time": 36.20681818181818,
                "end_time": 36.40681818181818,
                "pitch": 65,
                "velocity": 40,
                "duration": 0.20000000000000284,
                "tempo": 120.0
            },
            {
                "start_time": 36.40909090909091,
                "end_time": 36.81818181818181,
                "pitch": 64,
                "velocity": 40,
                "duration": 0.4090909090909065,
                "tempo": 120.0
            },
            {
                "start_time": 36.81818181818181,
                "end_time": 37.01363636363636,
                "pitch": 65,
                "velocity": 40,
                "duration": 0.19545454545454533,
                "tempo": 120.0
            },
            {
                "start_time": 37.01590909090909,
                "end_time": 37.41590909090909,
                "pitch": 64,
                "velocity": 40,
                "duration": 0.3999999999999986,
                "tempo": 120.0
            },
            {
                "start_time": 37.418181818181814,
                "end_time": 38.220454545454544,
                "pitch": 64,
                "velocity": 40,
                "duration": 0.8022727272727295,
                "tempo": 120.0
            },
            {
                "start_time": 38.220454545454544,
                "end_time": 39.22727272727273,
                "pitch": 63,
                "velocity": 40,
                "duration": 1.0068181818181827,
                "tempo": 120.0
            },
            {
                "start_time": 51.88636363636363,
                "end_time": 52.28636363636363,
                "pitch": 65,
                "velocity": 40,
                "duration": 0.3999999999999986,
                "tempo": 120.0
            },
            {
                "start_time": 52.288636363636364,
                "end_time": 52.48181818181818,
                "pitch": 65,
                "velocity": 40,
                "duration": 0.19318181818181301,
                "tempo": 120.0
            },
            {
                "start_time": 52.48409090909091,
                "end_time": 52.893181818181816,
                "pitch": 64,
                "velocity": 40,
                "duration": 0.4090909090909065,
                "tempo": 120.0
            },
            {
                "start_time": 52.89545454545454,
                "end_time": 53.09318181818182,
                "pitch": 65,
                "velocity": 40,
                "duration": 0.19772727272727764,
                "tempo": 120.0
            },
            {
                "start_time": 53.095454545454544,
                "end_time": 53.49545454545454,
                "pitch": 64,
                "velocity": 40,
                "duration": 0.3999999999999986,
                "tempo": 120.0
            },
            {
                "start_time": 53.49545454545454,
                "end_time": 53.89545454545454,
                "pitch": 65,
                "velocity": 40,
                "duration": 0.3999999999999986,
                "tempo": 120.0
            },
            {
                "start_time": 53.89545454545454,
                "end_time": 54.095454545454544,
                "pitch": 65,
                "velocity": 40,
                "duration": 0.20000000000000284,
                "tempo": 120.0
            },
            {
                "start_time": 54.09772727272727,
                "end_time": 54.49772727272727,
                "pitch": 64,
                "velocity": 40,
                "duration": 0.3999999999999986,
                "tempo": 120.0
            },
            {
                "start_time": 54.5,
                "end_time": 54.695454545454545,
                "pitch": 65,
                "velocity": 40,
                "duration": 0.19545454545454533,
                "tempo": 120.0
            },
            {
                "start_time": 54.695454545454545,
                "end_time": 55.09772727272727,
                "pitch": 64,
                "velocity": 40,
                "duration": 0.4022727272727238,
                "tempo": 120.0
            },
            {
                "start_time": 55.09772727272727,
                "end_time": 55.502272727272725,
                "pitch": 65,
                "velocity": 40,
                "duration": 0.4045454545454561,
                "tempo": 120.0
            },
            {
                "start_time": 55.50454545454545,
                "end_time": 55.70227272727273,
                "pitch": 65,
                "velocity": 40,
                "duration": 0.19772727272727764,
                "tempo": 120.0
            },
            {
                "start_time": 55.70454545454545,
                "end_time": 56.10454545454545,
                "pitch": 64,
                "velocity": 40,
                "duration": 0.3999999999999986,
                "tempo": 120.0
            },
            {
                "start_time": 56.10454545454545,
                "end_time": 56.304545454545455,
                "pitch": 65,
                "velocity": 40,
                "duration": 0.20000000000000284,
                "tempo": 120.0
            },
            {
                "start_time": 56.30681818181818,
                "end_time": 56.70681818181818,
                "pitch": 64,
                "velocity": 40,
                "duration": 0.3999999999999986,
                "tempo": 120.0
            },
            {
                "start_time": 56.709090909090904,
                "end_time": 57.10681818181818,
                "pitch": 65,
                "velocity": 40,
                "duration": 0.3977272727272734,
                "tempo": 120.0
            },
            {
                "start_time": 57.10909090909091,
                "end_time": 57.30681818181818,
                "pitch": 65,
                "velocity": 40,
                "duration": 0.19772727272727053,
                "tempo": 120.0
            },
            {
                "start_time": 57.309090909090905,
                "end_time": 57.709090909090904,
                "pitch": 64,
                "velocity": 40,
                "duration": 0.3999999999999986,
                "tempo": 120.0
            },
            {
                "start_time": 57.709090909090904,
                "end_time": 57.90909090909091,
                "pitch": 65,
                "velocity": 40,
                "duration": 0.20000000000000284,
                "tempo": 120.0
            },
            {
                "start_time": 57.90909090909091,
                "end_time": 58.31136363636363,
                "pitch": 64,
                "velocity": 40,
                "duration": 0.4022727272727238,
                "tempo": 120.0
            },
            {
                "start_time": 58.31136363636363,
                "end_time": 58.711363636363636,
                "pitch": 65,
                "velocity": 40,
                "duration": 0.4000000000000057,
                "tempo": 120.0
            },
            {
                "start_time": 58.71363636363636,
                "end_time": 58.913636363636364,
                "pitch": 65,
                "velocity": 40,
                "duration": 0.20000000000000284,
                "tempo": 120.0
            },
            {
                "start_time": 58.913636363636364,
                "end_time": 59.31363636363636,
                "pitch": 65,
                "velocity": 40,
                "duration": 0.3999999999999986,
                "tempo": 120.0
            },
            {
                "start_time": 59.31363636363636,
                "end_time": 59.518181818181816,
                "pitch": 65,
                "velocity": 40,
                "duration": 0.20454545454545325,
                "tempo": 120.0
            },
            {
                "start_time": 59.52045454545454,
                "end_time": 59.925,
                "pitch": 65,
                "velocity": 40,
                "duration": 0.4045454545454561,
                "tempo": 120.0
            },
            {
                "start_time": 59.92727272727272,
                "end_time": 60.320454545454545,
                "pitch": 64,
                "velocity": 40,
                "duration": 0.39318181818182296,
                "tempo": 120.0
            },
            {
                "start_time": 60.32272727272727,
                "end_time": 60.518181818181816,
                "pitch": 64,
                "velocity": 40,
                "duration": 0.19545454545454533,
                "tempo": 120.0
            },
            {
                "start_time": 60.518181818181816,
                "end_time": 60.929545454545455,
                "pitch": 64,
                "velocity": 40,
                "duration": 0.4113636363636388,
                "tempo": 120.0
            },
            {
                "start_time": 60.929545454545455,
                "end_time": 61.12954545454545,
                "pitch": 64,
                "velocity": 40,
                "duration": 0.19999999999999574,
                "tempo": 120.0
            },
            {
                "start_time": 61.12954545454545,
                "end_time": 61.53181818181818,
                "pitch": 64,
                "velocity": 40,
                "duration": 0.4022727272727309,
                "tempo": 120.0
            },
            {
                "start_time": 61.53181818181818,
                "end_time": 61.93181818181818,
                "pitch": 65,
                "velocity": 40,
                "duration": 0.3999999999999986,
                "tempo": 120.0
            },
            {
                "start_time": 61.934090909090905,
                "end_time": 62.13409090909091,
                "pitch": 65,
                "velocity": 40,
                "duration": 0.20000000000000284,
                "tempo": 120.0
            },
            {
                "start_time": 62.13409090909091,
                "end_time": 62.53409090909091,
                "pitch": 65,
                "velocity": 40,
                "duration": 0.3999999999999986,
                "tempo": 120.0
            },
            {
                "start_time": 62.53409090909091,
                "end_time": 62.73409090909091,
                "pitch": 65,
                "velocity": 40,
                "duration": 0.20000000000000284,
                "tempo": 120.0
            },
            {
                "start_time": 62.736363636363635,
                "end_time": 63.13409090909091,
                "pitch": 65,
                "velocity": 40,
                "duration": 0.3977272727272734,
                "tempo": 120.0
            },
            {
                "start_time": 63.13636363636363,
                "end_time": 63.53636363636363,
                "pitch": 64,
                "velocity": 40,
                "duration": 0.3999999999999986,
                "tempo": 120.0
            },
            {
                "start_time": 63.538636363636364,
                "end_time": 63.73863636363636,
                "pitch": 64,
                "velocity": 40,
                "duration": 0.19999999999999574,
                "tempo": 120.0
            },
            {
                "start_time": 63.73863636363636,
                "end_time": 64.74090909090908,
                "pitch": 64,
                "velocity": 40,
                "duration": 1.0022727272727252,
                "tempo": 120.0
            },
            {
                "start_time": 64.74318181818181,
                "end_time": 65.14318181818182,
                "pitch": 65,
                "velocity": 40,
                "duration": 0.4000000000000057,
                "tempo": 120.0
            },
            {
                "start_time": 65.14318181818182,
                "end_time": 65.34318181818182,
                "pitch": 65,
                "velocity": 40,
                "duration": 0.20000000000000284,
                "tempo": 120.0
            },
            {
                "start_time": 65.34545454545454,
                "end_time": 65.74545454545454,
                "pitch": 64,
                "velocity": 40,
                "duration": 0.3999999999999915,
                "tempo": 120.0
            },
            {
                "start_time": 65.74772727272727,
                "end_time": 65.94545454545454,
                "pitch": 65,
                "velocity": 40,
                "duration": 0.19772727272726343,
                "tempo": 120.0
            },
            {
                "start_time": 65.94772727272726,
                "end_time": 66.35227272727272,
                "pitch": 64,
                "velocity": 40,
                "duration": 0.4045454545454561,
                "tempo": 120.0
            },
            {
                "start_time": 66.35454545454544,
                "end_time": 66.75454545454545,
                "pitch": 65,
                "velocity": 40,
                "duration": 0.4000000000000057,
                "tempo": 120.0
            },
            {
                "start_time": 66.75454545454545,
                "end_time": 66.95,
                "pitch": 65,
                "velocity": 40,
                "duration": 0.19545454545455243,
                "tempo": 120.0
            },
            {
                "start_time": 66.95227272727273,
                "end_time": 67.36136363636363,
                "pitch": 64,
                "velocity": 40,
                "duration": 0.4090909090909065,
                "tempo": 120.0
            },
            {
                "start_time": 67.36363636363636,
                "end_time": 67.55681818181817,
                "pitch": 65,
                "velocity": 40,
                "duration": 0.19318181818181301,
                "tempo": 120.0
            },
            {
                "start_time": 67.55909090909091,
                "end_time": 67.9590909090909,
                "pitch": 64,
                "velocity": 40,
                "duration": 0.3999999999999915,
                "tempo": 120.0
            },
            {
                "start_time": 67.96136363636363,
                "end_time": 68.36136363636363,
                "pitch": 65,
                "velocity": 40,
                "duration": 0.4000000000000057,
                "tempo": 120.0
            },
            {
                "start_time": 68.36363636363636,
                "end_time": 68.55681818181817,
                "pitch": 65,
                "velocity": 40,
                "duration": 0.19318181818181301,
                "tempo": 120.0
            },
            {
                "start_time": 68.55909090909091,
                "end_time": 68.96818181818182,
                "pitch": 64,
                "velocity": 40,
                "duration": 0.4090909090909065,
                "tempo": 120.0
            },
            {
                "start_time": 68.97045454545454,
                "end_time": 69.17045454545455,
                "pitch": 65,
                "velocity": 40,
                "duration": 0.20000000000000284,
                "tempo": 120.0
            },
            {
                "start_time": 69.17272727272727,
                "end_time": 69.57272727272726,
                "pitch": 64,
                "velocity": 40,
                "duration": 0.3999999999999915,
                "tempo": 120.0
            },
            {
                "start_time": 69.57272727272726,
                "end_time": 69.975,
                "pitch": 65,
                "velocity": 40,
                "duration": 0.4022727272727309,
                "tempo": 120.0
            },
            {
                "start_time": 69.975,
                "end_time": 70.175,
                "pitch": 65,
                "velocity": 40,
                "duration": 0.20000000000000284,
                "tempo": 120.0
            },
            {
                "start_time": 70.17727272727272,
                "end_time": 70.57954545454545,
                "pitch": 64,
                "velocity": 40,
                "duration": 0.4022727272727309,
                "tempo": 120.0
            },
            {
                "start_time": 70.57954545454545,
                "end_time": 70.77499999999999,
                "pitch": 65,
                "velocity": 40,
                "duration": 0.19545454545453822,
                "tempo": 120.0
            },
            {
                "start_time": 70.77727272727273,
                "end_time": 71.17727272727272,
                "pitch": 64,
                "velocity": 40,
                "duration": 0.3999999999999915,
                "tempo": 120.0
            },
            {
                "start_time": 71.17954545454545,
                "end_time": 71.5840909090909,
                "pitch": 65,
                "velocity": 40,
                "duration": 0.4045454545454561,
                "tempo": 120.0
            },
            {
                "start_time": 71.5840909090909,
                "end_time": 71.7840909090909,
                "pitch": 65,
                "velocity": 40,
                "duration": 0.20000000000000284,
                "tempo": 120.0
            },
            {
                "start_time": 71.7840909090909,
                "end_time": 72.18636363636364,
                "pitch": 65,
                "velocity": 40,
                "duration": 0.4022727272727309,
                "tempo": 120.0
            },
            {
                "start_time": 72.18863636363636,
                "end_time": 72.38863636363637,
                "pitch": 65,
                "velocity": 40,
                "duration": 0.20000000000000284,
                "tempo": 120.0
            },
            {
                "start_time": 72.38863636363637,
                "end_time": 72.79090909090908,
                "pitch": 65,
                "velocity": 40,
                "duration": 0.4022727272727167,
                "tempo": 120.0
            },
            {
                "start_time": 72.79090909090908,
                "end_time": 73.19090909090909,
                "pitch": 64,
                "velocity": 40,
                "duration": 0.4000000000000057,
                "tempo": 120.0
            },
            {
                "start_time": 73.19318181818181,
                "end_time": 73.39318181818182,
                "pitch": 64,
                "velocity": 40,
                "duration": 0.20000000000000284,
                "tempo": 120.0
            },
            {
                "start_time": 73.39545454545454,
                "end_time": 73.79318181818182,
                "pitch": 64,
                "velocity": 40,
                "duration": 0.3977272727272805,
                "tempo": 120.0
            },
            {
                "start_time": 73.79545454545455,
                "end_time": 73.99545454545454,
                "pitch": 64,
                "velocity": 40,
                "duration": 0.19999999999998863,
                "tempo": 120.0
            },
            {
                "start_time": 73.99772727272727,
                "end_time": 74.39999999999999,
                "pitch": 64,
                "velocity": 40,
                "duration": 0.4022727272727167,
                "tempo": 120.0
            },
            {
                "start_time": 74.39999999999999,
                "end_time": 74.8,
                "pitch": 65,
                "velocity": 40,
                "duration": 0.4000000000000057,
                "tempo": 120.0
            },
            {
                "start_time": 74.80227272727272,
                "end_time": 75.0,
                "pitch": 65,
                "velocity": 40,
                "duration": 0.19772727272727764,
                "tempo": 120.0
            },
            {
                "start_time": 75.00227272727273,
                "end_time": 75.41136363636363,
                "pitch": 65,
                "velocity": 40,
                "duration": 0.4090909090909065,
                "tempo": 120.0
            },
            {
                "start_time": 75.41363636363636,
                "end_time": 76.2159090909091,
                "pitch": 65,
                "velocity": 40,
                "duration": 0.8022727272727366,
                "tempo": 120.0
            },
            {
                "start_time": 76.41818181818182,
                "end_time": 76.61590909090908,
                "pitch": 65,
                "velocity": 51,
                "duration": 0.19772727272726343,
                "tempo": 120.0
            },
            {
                "start_time": 76.61818181818181,
                "end_time": 77.0090909090909,
                "pitch": 64,
                "velocity": 51,
                "duration": 0.39090909090909065,
                "tempo": 120.0
            },
            {
                "start_time": 77.01136363636363,
                "end_time": 77.21136363636363,
                "pitch": 64,
                "velocity": 51,
                "duration": 0.20000000000000284,
                "tempo": 120.0
            },
            {
                "start_time": 77.21136363636363,
                "end_time": 77.61818181818181,
                "pitch": 65,
                "velocity": 51,
                "duration": 0.4068181818181813,
                "tempo": 120.0
            },
            {
                "start_time": 77.62045454545454,
                "end_time": 78.02045454545454,
                "pitch": 64,
                "velocity": 51,
                "duration": 0.4000000000000057,
                "tempo": 120.0
            },
            {
                "start_time": 78.02272727272727,
                "end_time": 78.2159090909091,
                "pitch": 63,
                "velocity": 51,
                "duration": 0.19318181818182723,
                "tempo": 120.0
            },
            {
                "start_time": 78.21818181818182,
                "end_time": 79.43181818181817,
                "pitch": 62,
                "velocity": 51,
                "duration": 1.213636363636354,
                "tempo": 120.0
            },
            {
                "start_time": 79.6340909090909,
                "end_time": 79.8340909090909,
                "pitch": 63,
                "velocity": 51,
                "duration": 0.20000000000000284,
                "tempo": 120.0
            },
            {
                "start_time": 79.83636363636363,
                "end_time": 80.23863636363636,
                "pitch": 64,
                "velocity": 51,
                "duration": 0.4022727272727309,
                "tempo": 120.0
            },
            {
                "start_time": 80.23863636363636,
                "end_time": 80.43863636363636,
                "pitch": 64,
                "velocity": 51,
                "duration": 0.20000000000000284,
                "tempo": 120.0
            },
            {
                "start_time": 80.43863636363636,
                "end_time": 80.8409090909091,
                "pitch": 65,
                "velocity": 51,
                "duration": 0.4022727272727309,
                "tempo": 120.0
            },
            {
                "start_time": 80.8409090909091,
                "end_time": 81.24090909090908,
                "pitch": 64,
                "velocity": 51,
                "duration": 0.3999999999999915,
                "tempo": 120.0
            },
            {
                "start_time": 81.24318181818181,
                "end_time": 81.44318181818181,
                "pitch": 63,
                "velocity": 51,
                "duration": 0.20000000000000284,
                "tempo": 120.0
            },
            {
                "start_time": 81.44318181818181,
                "end_time": 82.66363636363636,
                "pitch": 62,
                "velocity": 51,
                "duration": 1.220454545454544,
                "tempo": 120.0
            },
            {
                "start_time": 82.86363636363636,
                "end_time": 83.06590909090909,
                "pitch": 63,
                "velocity": 51,
                "duration": 0.20227272727272805,
                "tempo": 120.0
            },
            {
                "start_time": 83.06590909090909,
                "end_time": 83.46363636363635,
                "pitch": 64,
                "velocity": 51,
                "duration": 0.39772727272726627,
                "tempo": 120.0
            },
            {
                "start_time": 83.4659090909091,
                "end_time": 83.66136363636363,
                "pitch": 64,
                "velocity": 51,
                "duration": 0.19545454545453822,
                "tempo": 120.0
            },
            {
                "start_time": 83.66363636363636,
                "end_time": 84.06136363636364,
                "pitch": 65,
                "velocity": 51,
                "duration": 0.3977272727272805,
                "tempo": 120.0
            },
            {
                "start_time": 84.06363636363636,
                "end_time": 84.46363636363635,
                "pitch": 64,
                "velocity": 51,
                "duration": 0.3999999999999915,
                "tempo": 120.0
            },
            {
                "start_time": 84.4659090909091,
                "end_time": 84.6590909090909,
                "pitch": 63,
                "velocity": 51,
                "duration": 0.19318181818181301,
                "tempo": 120.0
            },
            {
                "start_time": 84.66136363636363,
                "end_time": 85.875,
                "pitch": 62,
                "velocity": 51,
                "duration": 1.2136363636363683,
                "tempo": 120.0
            },
            {
                "start_time": 86.07727272727273,
                "end_time": 86.27499999999999,
                "pitch": 63,
                "velocity": 51,
                "duration": 0.19772727272726343,
                "tempo": 120.0
            },
            {
                "start_time": 86.27727272727272,
                "end_time": 86.67954545454545,
                "pitch": 64,
                "velocity": 51,
                "duration": 0.4022727272727309,
                "tempo": 120.0
            },
            {
                "start_time": 86.67954545454545,
                "end_time": 86.87954545454545,
                "pitch": 64,
                "velocity": 51,
                "duration": 0.20000000000000284,
                "tempo": 120.0
            },
            {
                "start_time": 86.87954545454545,
                "end_time": 87.28181818181818,
                "pitch": 65,
                "velocity": 51,
                "duration": 0.4022727272727309,
                "tempo": 120.0
            },
            {
                "start_time": 87.28181818181818,
                "end_time": 87.6840909090909,
                "pitch": 64,
                "velocity": 51,
                "duration": 0.4022727272727167,
                "tempo": 120.0
            },
            {
                "start_time": 87.68636363636364,
                "end_time": 87.88636363636363,
                "pitch": 63,
                "velocity": 51,
                "duration": 0.19999999999998863,
                "tempo": 120.0
            },
            {
                "start_time": 87.88636363636363,
                "end_time": 88.88863636363637,
                "pitch": 62,
                "velocity": 51,
                "duration": 1.0022727272727394,
                "tempo": 120.0
            },
            {
                "start_time": 88.89090909090909,
                "end_time": 88.89545454545454,
                "pitch": 62,
                "velocity": 51,
                "duration": 0.004545454545450411,
                "tempo": 120.0
            },
            {
                "start_time": 88.89999999999999,
                "end_time": 88.90227272727272,
                "pitch": 25,
                "velocity": 4,
                "duration": 0.0022727272727252057,
                "tempo": 120.0
            }
        ],
        "Harpsichord": [
            {
                "start_time": 39.23181818181818,
                "end_time": 39.277272727272724,
                "pitch": 46,
                "velocity": 51,
                "duration": 0.045454545454546746,
                "tempo": 120.0
            },
            {
                "start_time": 39.279545454545456,
                "end_time": 39.32727272727273,
                "pitch": 58,
                "velocity": 51,
                "duration": 0.04772727272727195,
                "tempo": 120.0
            },
            {
                "start_time": 39.32954545454545,
                "end_time": 39.377272727272725,
                "pitch": 50,
                "velocity": 51,
                "duration": 0.04772727272727195,
                "tempo": 120.0
            },
            {
                "start_time": 39.37954545454545,
                "end_time": 39.429545454545455,
                "pitch": 62,
                "velocity": 51,
                "duration": 0.05000000000000426,
                "tempo": 120.0
            },
            {
                "start_time": 39.429545454545455,
                "end_time": 39.47954545454545,
                "pitch": 53,
                "velocity": 51,
                "duration": 0.04999999999999716,
                "tempo": 120.0
            },
            {
                "start_time": 39.47954545454545,
                "end_time": 39.529545454545456,
                "pitch": 65,
                "velocity": 51,
                "duration": 0.05000000000000426,
                "tempo": 120.0
            },
            {
                "start_time": 39.529545454545456,
                "end_time": 39.57954545454545,
                "pitch": 57,
                "velocity": 51,
                "duration": 0.04999999999999716,
                "tempo": 120.0
            },
            {
                "start_time": 39.58181818181818,
                "end_time": 39.62954545454545,
                "pitch": 69,
                "velocity": 51,
                "duration": 0.04772727272727195,
                "tempo": 120.0
            },
            {
                "start_time": 39.63181818181818,
                "end_time": 39.679545454545455,
                "pitch": 70,
                "velocity": 51,
                "duration": 0.04772727272727195,
                "tempo": 120.0
            },
            {
                "start_time": 39.679545454545455,
                "end_time": 39.72727272727273,
                "pitch": 82,
                "velocity": 51,
                "duration": 0.04772727272727195,
                "tempo": 120.0
            },
            {
                "start_time": 39.72954545454545,
                "end_time": 39.777272727272724,
                "pitch": 74,
                "velocity": 51,
                "duration": 0.04772727272727195,
                "tempo": 120.0
            },
            {
                "start_time": 39.779545454545456,
                "end_time": 39.82727272727273,
                "pitch": 86,
                "velocity": 51,
                "duration": 0.04772727272727195,
                "tempo": 120.0
            },
            {
                "start_time": 39.82727272727273,
                "end_time": 39.875,
                "pitch": 77,
                "velocity": 51,
                "duration": 0.04772727272727195,
                "tempo": 120.0
            },
            {
                "start_time": 39.877272727272725,
                "end_time": 39.925,
                "pitch": 89,
                "velocity": 51,
                "duration": 0.04772727272727195,
                "tempo": 120.0
            },
            {
                "start_time": 39.925,
                "end_time": 39.97272727272727,
                "pitch": 81,
                "velocity": 51,
                "duration": 0.04772727272727195,
                "tempo": 120.0
            },
            {
                "start_time": 39.975,
                "end_time": 40.02272727272727,
                "pitch": 93,
                "velocity": 51,
                "duration": 0.04772727272727195,
                "tempo": 120.0
            },
            {
                "start_time": 40.025,
                "end_time": 40.074999999999996,
                "pitch": 94,
                "velocity": 51,
                "duration": 0.04999999999999716,
                "tempo": 120.0
            },
            {
                "start_time": 40.074999999999996,
                "end_time": 40.125,
                "pitch": 106,
                "velocity": 51,
                "duration": 0.05000000000000426,
                "tempo": 120.0
            },
            {
                "start_time": 40.127272727272725,
                "end_time": 40.17727272727272,
                "pitch": 98,
                "velocity": 51,
                "duration": 0.04999999999999716,
                "tempo": 120.0
            },
            {
                "start_time": 40.17727272727272,
                "end_time": 40.22727272727273,
                "pitch": 98,
                "velocity": 51,
                "duration": 0.05000000000000426,
                "tempo": 120.0
            },
            {
                "start_time": 40.22954545454545,
                "end_time": 40.279545454545456,
                "pitch": 89,
                "velocity": 51,
                "duration": 0.05000000000000426,
                "tempo": 120.0
            },
            {
                "start_time": 40.28181818181818,
                "end_time": 40.33181818181818,
                "pitch": 101,
                "velocity": 51,
                "duration": 0.04999999999999716,
                "tempo": 120.0
            },
            {
                "start_time": 40.33181818181818,
                "end_time": 40.38181818181818,
                "pitch": 93,
                "velocity": 51,
                "duration": 0.05000000000000426,
                "tempo": 120.0
            },
            {
                "start_time": 40.38409090909091,
                "end_time": 40.434090909090905,
                "pitch": 105,
                "velocity": 51,
                "duration": 0.04999999999999716,
                "tempo": 120.0
            },
            {
                "start_time": 40.43636363636364,
                "end_time": 40.48409090909091,
                "pitch": 106,
                "velocity": 51,
                "duration": 0.04772727272727195,
                "tempo": 120.0
            },
            {
                "start_time": 40.486363636363635,
                "end_time": 40.53409090909091,
                "pitch": 106,
                "velocity": 51,
                "duration": 0.04772727272727195,
                "tempo": 120.0
            },
            {
                "start_time": 40.53636363636363,
                "end_time": 40.584090909090904,
                "pitch": 98,
                "velocity": 51,
                "duration": 0.04772727272727195,
                "tempo": 120.0
            },
            {
                "start_time": 40.586363636363636,
                "end_time": 40.63409090909091,
                "pitch": 98,
                "velocity": 51,
                "duration": 0.04772727272727195,
                "tempo": 120.0
            },
            {
                "start_time": 40.63636363636363,
                "end_time": 40.684090909090905,
                "pitch": 89,
                "velocity": 51,
                "duration": 0.04772727272727195,
                "tempo": 120.0
            },
            {
                "start_time": 40.68636363636364,
                "end_time": 40.73409090909091,
                "pitch": 101,
                "velocity": 51,
                "duration": 0.04772727272727195,
                "tempo": 120.0
            },
            {
                "start_time": 40.736363636363635,
                "end_time": 40.78409090909091,
                "pitch": 93,
                "velocity": 51,
                "duration": 0.04772727272727195,
                "tempo": 120.0
            },
            {
                "start_time": 40.78636363636363,
                "end_time": 40.836363636363636,
                "pitch": 105,
                "velocity": 51,
                "duration": 0.05000000000000426,
                "tempo": 120.0
            },
            {
                "start_time": 40.83863636363636,
                "end_time": 40.88409090909091,
                "pitch": 106,
                "velocity": 51,
                "duration": 0.045454545454546746,
                "tempo": 120.0
            },
            {
                "start_time": 40.88636363636363,
                "end_time": 40.934090909090905,
                "pitch": 106,
                "velocity": 51,
                "duration": 0.04772727272727195,
                "tempo": 120.0
            },
            {
                "start_time": 40.93636363636364,
                "end_time": 40.98409090909091,
                "pitch": 91,
                "velocity": 51,
                "duration": 0.04772727272727195,
                "tempo": 120.0
            },
            {
                "start_time": 40.986363636363635,
                "end_time": 41.03636363636363,
                "pitch": 103,
                "velocity": 51,
                "duration": 0.04999999999999716,
                "tempo": 120.0
            },
            {
                "start_time": 41.03636363636363,
                "end_time": 41.084090909090904,
                "pitch": 88,
                "velocity": 51,
                "duration": 0.04772727272727195,
                "tempo": 120.0
            },
            {
                "start_time": 41.086363636363636,
                "end_time": 41.13409090909091,
                "pitch": 100,
                "velocity": 51,
                "duration": 0.04772727272727195,
                "tempo": 120.0
            },
            {
                "start_time": 41.13636363636363,
                "end_time": 41.184090909090905,
                "pitch": 84,
                "velocity": 51,
                "duration": 0.04772727272727195,
                "tempo": 120.0
            },
            {
                "start_time": 41.18636363636364,
                "end_time": 41.236363636363635,
                "pitch": 96,
                "velocity": 51,
                "duration": 0.04999999999999716,
                "tempo": 120.0
            },
            {
                "start_time": 41.236363636363635,
                "end_time": 41.28636363636363,
                "pitch": 82,
                "velocity": 51,
                "duration": 0.04999999999999716,
                "tempo": 120.0
            },
            {
                "start_time": 41.28636363636363,
                "end_time": 41.336363636363636,
                "pitch": 94,
                "velocity": 51,
                "duration": 0.05000000000000426,
                "tempo": 120.0
            },
            {
                "start_time": 41.336363636363636,
                "end_time": 41.38636363636363,
                "pitch": 79,
                "velocity": 51,
                "duration": 0.04999999999999716,
                "tempo": 120.0
            },
            {
                "start_time": 41.38863636363636,
                "end_time": 41.43636363636364,
                "pitch": 91,
                "velocity": 51,
                "duration": 0.04772727272727906,
                "tempo": 120.0
            },
            {
                "start_time": 41.43863636363636,
                "end_time": 41.486363636363635,
                "pitch": 76,
                "velocity": 51,
                "duration": 0.04772727272727195,
                "tempo": 120.0
            },
            {
                "start_time": 41.48863636363636,
                "end_time": 41.53636363636363,
                "pitch": 88,
                "velocity": 51,
                "duration": 0.04772727272727195,
                "tempo": 120.0
            },
            {
                "start_time": 41.538636363636364,
                "end_time": 41.58863636363636,
                "pitch": 72,
                "velocity": 51,
                "duration": 0.04999999999999716,
                "tempo": 120.0
            },
            {
                "start_time": 41.58863636363636,
                "end_time": 41.63863636363636,
                "pitch": 84,
                "velocity": 51,
                "duration": 0.04999999999999716,
                "tempo": 120.0
            },
            {
                "start_time": 41.64090909090909,
                "end_time": 41.68863636363636,
                "pitch": 70,
                "velocity": 51,
                "duration": 0.04772727272727195,
                "tempo": 120.0
            },
            {
                "start_time": 41.69090909090909,
                "end_time": 41.74090909090909,
                "pitch": 82,
                "velocity": 51,
                "duration": 0.05000000000000426,
                "tempo": 120.0
            },
            {
                "start_time": 41.74318181818182,
                "end_time": 41.793181818181814,
                "pitch": 67,
                "velocity": 51,
                "duration": 0.04999999999999716,
                "tempo": 120.0
            },
            {
                "start_time": 41.793181818181814,
                "end_time": 41.84318181818182,
                "pitch": 79,
                "velocity": 51,
                "duration": 0.05000000000000426,
                "tempo": 120.0
            },
            {
                "start_time": 41.845454545454544,
                "end_time": 41.89545454545454,
                "pitch": 64,
                "velocity": 51,
                "duration": 0.04999999999999716,
                "tempo": 120.0
            },
            {
                "start_time": 41.89545454545454,
                "end_time": 41.94772727272727,
                "pitch": 76,
                "velocity": 51,
                "duration": 0.05227272727272947,
                "tempo": 120.0
            },
            {
                "start_time": 41.94772727272727,
                "end_time": 41.99772727272727,
                "pitch": 60,
                "velocity": 51,
                "duration": 0.04999999999999716,
                "tempo": 120.0
            },
            {
                "start_time": 42.0,
                "end_time": 42.05,
                "pitch": 72,
                "velocity": 51,
                "duration": 0.04999999999999716,
                "tempo": 120.0
            },
            {
                "start_time": 42.05227272727272,
                "end_time": 42.09772727272727,
                "pitch": 58,
                "velocity": 51,
                "duration": 0.045454545454546746,
                "tempo": 120.0
            },
            {
                "start_time": 42.1,
                "end_time": 42.14772727272727,
                "pitch": 70,
                "velocity": 51,
                "duration": 0.04772727272727195,
                "tempo": 120.0
            },
            {
                "start_time": 42.15,
                "end_time": 42.19772727272727,
                "pitch": 55,
                "velocity": 51,
                "duration": 0.04772727272727195,
                "tempo": 120.0
            },
            {
                "start_time": 42.19772727272727,
                "end_time": 42.24545454545454,
                "pitch": 67,
                "velocity": 51,
                "duration": 0.04772727272727195,
                "tempo": 120.0
            },
            {
                "start_time": 42.24772727272727,
                "end_time": 42.29545454545455,
                "pitch": 52,
                "velocity": 51,
                "duration": 0.04772727272727906,
                "tempo": 120.0
            },
            {
                "start_time": 42.29545454545455,
                "end_time": 42.34318181818182,
                "pitch": 64,
                "velocity": 51,
                "duration": 0.04772727272727195,
                "tempo": 120.0
            },
            {
                "start_time": 42.345454545454544,
                "end_time": 42.393181818181816,
                "pitch": 48,
                "velocity": 51,
                "duration": 0.04772727272727195,
                "tempo": 120.0
            },
            {
                "start_time": 42.39545454545454,
                "end_time": 42.44318181818181,
                "pitch": 60,
                "velocity": 51,
                "duration": 0.04772727272727195,
                "tempo": 120.0
            },
            {
                "start_time": 42.445454545454545,
                "end_time": 42.49318181818182,
                "pitch": 53,
                "velocity": 51,
                "duration": 0.04772727272727195,
                "tempo": 120.0
            },
            {
                "start_time": 42.49545454545454,
                "end_time": 42.54545454545455,
                "pitch": 65,
                "velocity": 51,
                "duration": 0.05000000000000426,
                "tempo": 120.0
            },
            {
                "start_time": 42.54545454545455,
                "end_time": 42.595454545454544,
                "pitch": 57,
                "velocity": 51,
                "duration": 0.04999999999999716,
                "tempo": 120.0
            },
            {
                "start_time": 42.59772727272727,
                "end_time": 42.64772727272727,
                "pitch": 69,
                "velocity": 51,
                "duration": 0.05000000000000426,
                "tempo": 120.0
            },
            {
                "start_time": 42.65,
                "end_time": 42.699999999999996,
                "pitch": 60,
                "velocity": 51,
                "duration": 0.04999999999999716,
                "tempo": 120.0
            },
            {
                "start_time": 42.699999999999996,
                "end_time": 42.75,
                "pitch": 72,
                "velocity": 51,
                "duration": 0.05000000000000426,
                "tempo": 120.0
            },
            {
                "start_time": 42.752272727272725,
                "end_time": 42.80227272727272,
                "pitch": 64,
                "velocity": 51,
                "duration": 0.04999999999999716,
                "tempo": 120.0
            },
            {
                "start_time": 42.80227272727272,
                "end_time": 42.85454545454545,
                "pitch": 76,
                "velocity": 51,
                "duration": 0.05227272727272947,
                "tempo": 120.0
            },
            {
                "start_time": 42.85454545454545,
                "end_time": 42.90454545454545,
                "pitch": 65,
                "velocity": 51,
                "duration": 0.04999999999999716,
                "tempo": 120.0
            },
            {
                "start_time": 42.90454545454545,
                "end_time": 42.95454545454545,
                "pitch": 77,
                "velocity": 51,
                "duration": 0.05000000000000426,
                "tempo": 120.0
            },
            {
                "start_time": 42.95454545454545,
                "end_time": 43.00454545454545,
                "pitch": 69,
                "velocity": 51,
                "duration": 0.04999999999999716,
                "tempo": 120.0
            },
            {
                "start_time": 43.00454545454545,
                "end_time": 43.054545454545455,
                "pitch": 81,
                "velocity": 51,
                "duration": 0.05000000000000426,
                "tempo": 120.0
            },
            {
                "start_time": 43.054545454545455,
                "end_time": 43.10454545454545,
                "pitch": 72,
                "velocity": 51,
                "duration": 0.04999999999999716,
                "tempo": 120.0
            },
            {
                "start_time": 43.10454545454545,
                "end_time": 43.15454545454545,
                "pitch": 84,
                "velocity": 51,
                "duration": 0.04999999999999716,
                "tempo": 120.0
            },
            {
                "start_time": 43.15454545454545,
                "end_time": 43.20454545454545,
                "pitch": 76,
                "velocity": 51,
                "duration": 0.05000000000000426,
                "tempo": 120.0
            },
            {
                "start_time": 43.20454545454545,
                "end_time": 43.25454545454545,
                "pitch": 88,
                "velocity": 51,
                "duration": 0.04999999999999716,
                "tempo": 120.0
            },
            {
                "start_time": 43.25681818181818,
                "end_time": 43.30227272727272,
                "pitch": 77,
                "velocity": 51,
                "duration": 0.04545454545453964,
                "tempo": 120.0
            },
            {
                "start_time": 43.304545454545455,
                "end_time": 43.35227272727273,
                "pitch": 89,
                "velocity": 51,
                "duration": 0.04772727272727195,
                "tempo": 120.0
            },
            {
                "start_time": 43.35454545454545,
                "end_time": 43.402272727272724,
                "pitch": 81,
                "velocity": 51,
                "duration": 0.04772727272727195,
                "tempo": 120.0
            },
            {
                "start_time": 43.402272727272724,
                "end_time": 43.449999999999996,
                "pitch": 93,
                "velocity": 51,
                "duration": 0.04772727272727195,
                "tempo": 120.0
            },
            {
                "start_time": 43.45227272727273,
                "end_time": 43.5,
                "pitch": 84,
                "velocity": 51,
                "duration": 0.04772727272727195,
                "tempo": 120.0
            },
            {
                "start_time": 43.5,
                "end_time": 43.54772727272727,
                "pitch": 96,
                "velocity": 51,
                "duration": 0.04772727272727195,
                "tempo": 120.0
            },
            {
                "start_time": 43.55,
                "end_time": 43.59772727272727,
                "pitch": 88,
                "velocity": 51,
                "duration": 0.04772727272727195,
                "tempo": 120.0
            },
            {
                "start_time": 43.6,
                "end_time": 43.64772727272727,
                "pitch": 100,
                "velocity": 51,
                "duration": 0.04772727272727195,
                "tempo": 120.0
            },
            {
                "start_time": 43.64772727272727,
                "end_time": 43.69772727272727,
                "pitch": 89,
                "velocity": 51,
                "duration": 0.04999999999999716,
                "tempo": 120.0
            },
            {
                "start_time": 43.69772727272727,
                "end_time": 43.74772727272727,
                "pitch": 101,
                "velocity": 51,
                "duration": 0.04999999999999716,
                "tempo": 120.0
            },
            {
                "start_time": 43.74772727272727,
                "end_time": 43.79772727272727,
                "pitch": 93,
                "velocity": 51,
                "duration": 0.05000000000000426,
                "tempo": 120.0
            },
            {
                "start_time": 43.79772727272727,
                "end_time": 43.84772727272727,
                "pitch": 105,
                "velocity": 51,
                "duration": 0.04999999999999716,
                "tempo": 120.0
            },
            {
                "start_time": 43.85,
                "end_time": 43.89772727272727,
                "pitch": 96,
                "velocity": 51,
                "duration": 0.04772727272727195,
                "tempo": 120.0
            },
            {
                "start_time": 43.89772727272727,
                "end_time": 43.94772727272727,
                "pitch": 96,
                "velocity": 51,
                "duration": 0.04999999999999716,
                "tempo": 120.0
            },
            {
                "start_time": 43.94772727272727,
                "end_time": 43.99772727272727,
                "pitch": 88,
                "velocity": 51,
                "duration": 0.04999999999999716,
                "tempo": 120.0
            },
            {
                "start_time": 43.99772727272727,
                "end_time": 44.04772727272727,
                "pitch": 100,
                "velocity": 51,
                "duration": 0.05000000000000426,
                "tempo": 120.0
            },
            {
                "start_time": 44.05,
                "end_time": 44.09772727272727,
                "pitch": 84,
                "velocity": 51,
                "duration": 0.04772727272727195,
                "tempo": 120.0
            },
            {
                "start_time": 44.09772727272727,
                "end_time": 44.14772727272727,
                "pitch": 96,
                "velocity": 51,
                "duration": 0.05000000000000426,
                "tempo": 120.0
            },
            {
                "start_time": 44.14772727272727,
                "end_time": 44.19772727272727,
                "pitch": 81,
                "velocity": 51,
                "duration": 0.04999999999999716,
                "tempo": 120.0
            },
            {
                "start_time": 44.19772727272727,
                "end_time": 44.24772727272727,
                "pitch": 93,
                "velocity": 51,
                "duration": 0.04999999999999716,
                "tempo": 120.0
            },
            {
                "start_time": 44.25,
                "end_time": 44.29772727272727,
                "pitch": 77,
                "velocity": 51,
                "duration": 0.04772727272727195,
                "tempo": 120.0
            },
            {
                "start_time": 44.29772727272727,
                "end_time": 44.34772727272727,
                "pitch": 89,
                "velocity": 51,
                "duration": 0.04999999999999716,
                "tempo": 120.0
            },
            {
                "start_time": 44.349999999999994,
                "end_time": 44.39772727272727,
                "pitch": 75,
                "velocity": 51,
                "duration": 0.04772727272727906,
                "tempo": 120.0
            },
            {
                "start_time": 44.4,
                "end_time": 44.44772727272727,
                "pitch": 87,
                "velocity": 51,
                "duration": 0.04772727272727195,
                "tempo": 120.0
            },
            {
                "start_time": 44.449999999999996,
                "end_time": 44.5,
                "pitch": 72,
                "velocity": 51,
                "duration": 0.05000000000000426,
                "tempo": 120.0
            },
            {
                "start_time": 44.5,
                "end_time": 44.55,
                "pitch": 84,
                "velocity": 51,
                "duration": 0.04999999999999716,
                "tempo": 120.0
            },
            {
                "start_time": 44.55227272727272,
                "end_time": 44.60227272727273,
                "pitch": 69,
                "velocity": 51,
                "duration": 0.05000000000000426,
                "tempo": 120.0
            },
            {
                "start_time": 44.60227272727273,
                "end_time": 44.65454545454545,
                "pitch": 81,
                "velocity": 51,
                "duration": 0.052272727272722364,
                "tempo": 120.0
            },
            {
                "start_time": 44.65681818181818,
                "end_time": 44.70454545454545,
                "pitch": 65,
                "velocity": 51,
                "duration": 0.04772727272727195,
                "tempo": 120.0
            },
            {
                "start_time": 44.70681818181818,
                "end_time": 44.75681818181818,
                "pitch": 77,
                "velocity": 51,
                "duration": 0.05000000000000426,
                "tempo": 120.0
            },
            {
                "start_time": 44.75681818181818,
                "end_time": 44.80681818181818,
                "pitch": 63,
                "velocity": 51,
                "duration": 0.04999999999999716,
                "tempo": 120.0
            },
            {
                "start_time": 44.809090909090905,
                "end_time": 44.85909090909091,
                "pitch": 75,
                "velocity": 51,
                "duration": 0.05000000000000426,
                "tempo": 120.0
            },
            {
                "start_time": 44.861363636363635,
                "end_time": 44.90909090909091,
                "pitch": 60,
                "velocity": 51,
                "duration": 0.04772727272727195,
                "tempo": 120.0
            },
            {
                "start_time": 44.91136363636363,
                "end_time": 44.959090909090904,
                "pitch": 72,
                "velocity": 51,
                "duration": 0.04772727272727195,
                "tempo": 120.0
            },
            {
                "start_time": 44.961363636363636,
                "end_time": 45.00909090909091,
                "pitch": 57,
                "velocity": 51,
                "duration": 0.04772727272727195,
                "tempo": 120.0
            },
            {
                "start_time": 45.01136363636363,
                "end_time": 45.059090909090905,
                "pitch": 69,
                "velocity": 51,
                "duration": 0.04772727272727195,
                "tempo": 120.0
            },
            {
                "start_time": 45.06136363636364,
                "end_time": 45.10909090909091,
                "pitch": 53,
                "velocity": 51,
                "duration": 0.04772727272727195,
                "tempo": 120.0
            },
            {
                "start_time": 45.111363636363635,
                "end_time": 45.15909090909091,
                "pitch": 65,
                "velocity": 51,
                "duration": 0.04772727272727195,
                "tempo": 120.0
            },
            {
                "start_time": 45.16136363636363,
                "end_time": 45.209090909090904,
                "pitch": 51,
                "velocity": 51,
                "duration": 0.04772727272727195,
                "tempo": 120.0
            },
            {
                "start_time": 45.211363636363636,
                "end_time": 45.25909090909091,
                "pitch": 63,
                "velocity": 51,
                "duration": 0.04772727272727195,
                "tempo": 120.0
            },
            {
                "start_time": 45.26136363636363,
                "end_time": 45.309090909090905,
                "pitch": 48,
                "velocity": 51,
                "duration": 0.04772727272727195,
                "tempo": 120.0
            },
            {
                "start_time": 45.31136363636364,
                "end_time": 45.35909090909091,
                "pitch": 60,
                "velocity": 51,
                "duration": 0.04772727272727195,
                "tempo": 120.0
            },
            {
                "start_time": 45.361363636363635,
                "end_time": 45.40909090909091,
                "pitch": 45,
                "velocity": 51,
                "duration": 0.04772727272727195,
                "tempo": 120.0
            },
            {
                "start_time": 45.41136363636363,
                "end_time": 45.461363636363636,
                "pitch": 57,
                "velocity": 51,
                "duration": 0.05000000000000426,
                "tempo": 120.0
            },
            {
                "start_time": 45.461363636363636,
                "end_time": 45.50909090909091,
                "pitch": 41,
                "velocity": 51,
                "duration": 0.04772727272727195,
                "tempo": 120.0
            },
            {
                "start_time": 45.51136363636363,
                "end_time": 45.559090909090905,
                "pitch": 53,
                "velocity": 51,
                "duration": 0.04772727272727195,
                "tempo": 120.0
            },
            {
                "start_time": 45.56136363636364,
                "end_time": 45.60909090909091,
                "pitch": 39,
                "velocity": 51,
                "duration": 0.04772727272727195,
                "tempo": 120.0
            },
            {
                "start_time": 45.611363636363635,
                "end_time": 45.66136363636363,
                "pitch": 51,
                "velocity": 51,
                "duration": 0.04999999999999716,
                "tempo": 120.0
            },
            {
                "start_time": 45.663636363636364,
                "end_time": 45.711363636363636,
                "pitch": 46,
                "velocity": 51,
                "duration": 0.04772727272727195,
                "tempo": 120.0
            },
            {
                "start_time": 45.711363636363636,
                "end_time": 45.76136363636363,
                "pitch": 58,
                "velocity": 51,
                "duration": 0.04999999999999716,
                "tempo": 120.0
            },
            {
                "start_time": 45.76136363636363,
                "end_time": 45.81136363636364,
                "pitch": 50,
                "velocity": 51,
                "duration": 0.05000000000000426,
                "tempo": 120.0
            },
            {
                "start_time": 45.81136363636364,
                "end_time": 45.861363636363635,
                "pitch": 62,
                "velocity": 51,
                "duration": 0.04999999999999716,
                "tempo": 120.0
            },
            {
                "start_time": 45.861363636363635,
                "end_time": 45.91136363636363,
                "pitch": 53,
                "velocity": 51,
                "duration": 0.04999999999999716,
                "tempo": 120.0
            },
            {
                "start_time": 45.91136363636363,
                "end_time": 45.961363636363636,
                "pitch": 65,
                "velocity": 51,
                "duration": 0.05000000000000426,
                "tempo": 120.0
            },
            {
                "start_time": 45.961363636363636,
                "end_time": 46.01136363636363,
                "pitch": 57,
                "velocity": 51,
                "duration": 0.04999999999999716,
                "tempo": 120.0
            },
            {
                "start_time": 46.01136363636363,
                "end_time": 46.06136363636364,
                "pitch": 69,
                "velocity": 51,
                "duration": 0.05000000000000426,
                "tempo": 120.0
            },
            {
                "start_time": 46.06363636363636,
                "end_time": 46.111363636363635,
                "pitch": 58,
                "velocity": 51,
                "duration": 0.04772727272727195,
                "tempo": 120.0
            },
            {
                "start_time": 46.111363636363635,
                "end_time": 46.16136363636363,
                "pitch": 70,
                "velocity": 51,
                "duration": 0.04999999999999716,
                "tempo": 120.0
            },
            {
                "start_time": 46.16136363636363,
                "end_time": 46.211363636363636,
                "pitch": 62,
                "velocity": 51,
                "duration": 0.05000000000000426,
                "tempo": 120.0
            },
            {
                "start_time": 46.211363636363636,
                "end_time": 46.26136363636363,
                "pitch": 74,
                "velocity": 51,
                "duration": 0.04999999999999716,
                "tempo": 120.0
            },
            {
                "start_time": 46.26136363636363,
                "end_time": 46.31136363636364,
                "pitch": 65,
                "velocity": 51,
                "duration": 0.05000000000000426,
                "tempo": 120.0
            },
            {
                "start_time": 46.31136363636364,
                "end_time": 46.361363636363635,
                "pitch": 77,
                "velocity": 51,
                "duration": 0.04999999999999716,
                "tempo": 120.0
            },
            {
                "start_time": 46.361363636363635,
                "end_time": 46.41136363636363,
                "pitch": 69,
                "velocity": 51,
                "duration": 0.04999999999999716,
                "tempo": 120.0
            },
            {
                "start_time": 46.41136363636363,
                "end_time": 46.461363636363636,
                "pitch": 81,
                "velocity": 51,
                "duration": 0.05000000000000426,
                "tempo": 120.0
            },
            {
                "start_time": 46.46363636363636,
                "end_time": 46.51136363636363,
                "pitch": 70,
                "velocity": 51,
                "duration": 0.04772727272727195,
                "tempo": 120.0
            },
            {
                "start_time": 46.51363636363636,
                "end_time": 46.56136363636364,
                "pitch": 82,
                "velocity": 51,
                "duration": 0.04772727272727906,
                "tempo": 120.0
            },
            {
                "start_time": 46.56363636363636,
                "end_time": 46.611363636363635,
                "pitch": 74,
                "velocity": 51,
                "duration": 0.04772727272727195,
                "tempo": 120.0
            },
            {
                "start_time": 46.61363636363636,
                "end_time": 46.663636363636364,
                "pitch": 86,
                "velocity": 51,
                "duration": 0.05000000000000426,
                "tempo": 120.0
            },
            {
                "start_time": 46.663636363636364,
                "end_time": 46.71363636363636,
                "pitch": 77,
                "velocity": 51,
                "duration": 0.04999999999999716,
                "tempo": 120.0
            },
            {
                "start_time": 46.71363636363636,
                "end_time": 46.76363636363636,
                "pitch": 89,
                "velocity": 51,
                "duration": 0.04999999999999716,
                "tempo": 120.0
            },
            {
                "start_time": 46.76590909090909,
                "end_time": 46.81363636363636,
                "pitch": 81,
                "velocity": 51,
                "duration": 0.04772727272727195,
                "tempo": 120.0
            },
            {
                "start_time": 46.81590909090909,
                "end_time": 46.86590909090909,
                "pitch": 93,
                "velocity": 51,
                "duration": 0.05000000000000426,
                "tempo": 120.0
            },
            {
                "start_time": 46.86590909090909,
                "end_time": 46.913636363636364,
                "pitch": 82,
                "velocity": 51,
                "duration": 0.04772727272727195,
                "tempo": 120.0
            },
            {
                "start_time": 46.91590909090909,
                "end_time": 46.96363636363636,
                "pitch": 94,
                "velocity": 51,
                "duration": 0.04772727272727195,
                "tempo": 120.0
            },
            {
                "start_time": 46.965909090909086,
                "end_time": 47.01363636363636,
                "pitch": 86,
                "velocity": 51,
                "duration": 0.04772727272727195,
                "tempo": 120.0
            },
            {
                "start_time": 47.01590909090909,
                "end_time": 47.06590909090909,
                "pitch": 98,
                "velocity": 51,
                "duration": 0.04999999999999716,
                "tempo": 120.0
            },
            {
                "start_time": 47.06590909090909,
                "end_time": 47.11363636363636,
                "pitch": 89,
                "velocity": 51,
                "duration": 0.04772727272727195,
                "tempo": 120.0
            },
            {
                "start_time": 47.11590909090909,
                "end_time": 47.163636363636364,
                "pitch": 101,
                "velocity": 51,
                "duration": 0.04772727272727195,
                "tempo": 120.0
            },
            {
                "start_time": 47.16590909090909,
                "end_time": 47.215909090909086,
                "pitch": 93,
                "velocity": 51,
                "duration": 0.04999999999999716,
                "tempo": 120.0
            },
            {
                "start_time": 47.215909090909086,
                "end_time": 47.268181818181816,
                "pitch": 105,
                "velocity": 51,
                "duration": 0.05227272727272947,
                "tempo": 120.0
            },
            {
                "start_time": 47.268181818181816,
                "end_time": 47.31590909090909,
                "pitch": 98,
                "velocity": 51,
                "duration": 0.04772727272727195,
                "tempo": 120.0
            },
            {
                "start_time": 47.31590909090909,
                "end_time": 47.36590909090909,
                "pitch": 98,
                "velocity": 51,
                "duration": 0.05000000000000426,
                "tempo": 120.0
            },
            {
                "start_time": 47.36590909090909,
                "end_time": 47.41590909090909,
                "pitch": 82,
                "velocity": 51,
                "duration": 0.04999999999999716,
                "tempo": 120.0
            },
            {
                "start_time": 47.41590909090909,
                "end_time": 47.465909090909086,
                "pitch": 94,
                "velocity": 51,
                "duration": 0.04999999999999716,
                "tempo": 120.0
            },
            {
                "start_time": 47.46818181818182,
                "end_time": 47.51590909090909,
                "pitch": 79,
                "velocity": 51,
                "duration": 0.04772727272727195,
                "tempo": 120.0
            },
            {
                "start_time": 47.51590909090909,
                "end_time": 47.56590909090909,
                "pitch": 91,
                "velocity": 51,
                "duration": 0.04999999999999716,
                "tempo": 120.0
            },
            {
                "start_time": 47.56590909090909,
                "end_time": 47.61590909090909,
                "pitch": 76,
                "velocity": 51,
                "duration": 0.05000000000000426,
                "tempo": 120.0
            },
            {
                "start_time": 47.61590909090909,
                "end_time": 47.66590909090909,
                "pitch": 88,
                "velocity": 51,
                "duration": 0.04999999999999716,
                "tempo": 120.0
            },
            {
                "start_time": 47.668181818181814,
                "end_time": 47.715909090909086,
                "pitch": 74,
                "velocity": 51,
                "duration": 0.04772727272727195,
                "tempo": 120.0
            },
            {
                "start_time": 47.715909090909086,
                "end_time": 47.76590909090909,
                "pitch": 86,
                "velocity": 51,
                "duration": 0.05000000000000426,
                "tempo": 120.0
            },
            {
                "start_time": 47.76590909090909,
                "end_time": 47.81590909090909,
                "pitch": 70,
                "velocity": 51,
                "duration": 0.04999999999999716,
                "tempo": 120.0
            },
            {
                "start_time": 47.81590909090909,
                "end_time": 47.86590909090909,
                "pitch": 82,
                "velocity": 51,
                "duration": 0.05000000000000426,
                "tempo": 120.0
            },
            {
                "start_time": 47.86590909090909,
                "end_time": 47.91590909090909,
                "pitch": 67,
                "velocity": 51,
                "duration": 0.04999999999999716,
                "tempo": 120.0
            },
            {
                "start_time": 47.918181818181814,
                "end_time": 47.965909090909086,
                "pitch": 79,
                "velocity": 51,
                "duration": 0.04772727272727195,
                "tempo": 120.0
            },
            {
                "start_time": 47.96818181818182,
                "end_time": 48.01590909090909,
                "pitch": 64,
                "velocity": 51,
                "duration": 0.04772727272727195,
                "tempo": 120.0
            },
            {
                "start_time": 48.018181818181816,
                "end_time": 48.06818181818181,
                "pitch": 76,
                "velocity": 51,
                "duration": 0.04999999999999716,
                "tempo": 120.0
            },
            {
                "start_time": 48.070454545454545,
                "end_time": 48.11590909090909,
                "pitch": 62,
                "velocity": 51,
                "duration": 0.045454545454546746,
                "tempo": 120.0
            },
            {
                "start_time": 48.11818181818182,
                "end_time": 48.168181818181814,
                "pitch": 74,
                "velocity": 51,
                "duration": 0.04999999999999716,
                "tempo": 120.0
            },
            {
                "start_time": 48.17045454545454,
                "end_time": 48.220454545454544,
                "pitch": 58,
                "velocity": 51,
                "duration": 0.05000000000000426,
                "tempo": 120.0
            },
            {
                "start_time": 48.220454545454544,
                "end_time": 48.27045454545454,
                "pitch": 70,
                "velocity": 51,
                "duration": 0.04999999999999716,
                "tempo": 120.0
            },
            {
                "start_time": 48.27272727272727,
                "end_time": 48.32272727272727,
                "pitch": 55,
                "velocity": 51,
                "duration": 0.04999999999999716,
                "tempo": 120.0
            },
            {
                "start_time": 48.324999999999996,
                "end_time": 48.375,
                "pitch": 67,
                "velocity": 51,
                "duration": 0.05000000000000426,
                "tempo": 120.0
            },
            {
                "start_time": 48.375,
                "end_time": 48.425,
                "pitch": 52,
                "velocity": 51,
                "duration": 0.04999999999999716,
                "tempo": 120.0
            },
            {
                "start_time": 48.42727272727272,
                "end_time": 48.47727272727273,
                "pitch": 64,
                "velocity": 51,
                "duration": 0.05000000000000426,
                "tempo": 120.0
            },
            {
                "start_time": 48.47954545454545,
                "end_time": 48.527272727272724,
                "pitch": 50,
                "velocity": 51,
                "duration": 0.04772727272727195,
                "tempo": 120.0
            },
            {
                "start_time": 48.527272727272724,
                "end_time": 48.574999999999996,
                "pitch": 62,
                "velocity": 51,
                "duration": 0.04772727272727195,
                "tempo": 120.0
            },
            {
                "start_time": 48.57727272727273,
                "end_time": 48.625,
                "pitch": 46,
                "velocity": 51,
                "duration": 0.04772727272727195,
                "tempo": 120.0
            },
            {
                "start_time": 48.625,
                "end_time": 48.675,
                "pitch": 58,
                "velocity": 51,
                "duration": 0.04999999999999716,
                "tempo": 120.0
            },
            {
                "start_time": 48.675,
                "end_time": 48.72272727272727,
                "pitch": 43,
                "velocity": 51,
                "duration": 0.04772727272727195,
                "tempo": 120.0
            },
            {
                "start_time": 48.724999999999994,
                "end_time": 48.77272727272727,
                "pitch": 55,
                "velocity": 51,
                "duration": 0.04772727272727906,
                "tempo": 120.0
            },
            {
                "start_time": 48.77272727272727,
                "end_time": 48.820454545454545,
                "pitch": 40,
                "velocity": 51,
                "duration": 0.04772727272727195,
                "tempo": 120.0
            },
            {
                "start_time": 48.82272727272727,
                "end_time": 48.87272727272727,
                "pitch": 52,
                "velocity": 51,
                "duration": 0.04999999999999716,
                "tempo": 120.0
            },
            {
                "start_time": 48.87272727272727,
                "end_time": 48.92045454545454,
                "pitch": 45,
                "velocity": 51,
                "duration": 0.04772727272727195,
                "tempo": 120.0
            },
            {
                "start_time": 48.92045454545454,
                "end_time": 48.970454545454544,
                "pitch": 57,
                "velocity": 51,
                "duration": 0.05000000000000426,
                "tempo": 120.0
            },
            {
                "start_time": 48.970454545454544,
                "end_time": 49.02045454545454,
                "pitch": 49,
                "velocity": 51,
                "duration": 0.04999999999999716,
                "tempo": 120.0
            },
            {
                "start_time": 49.02045454545454,
                "end_time": 49.070454545454545,
                "pitch": 61,
                "velocity": 51,
                "duration": 0.05000000000000426,
                "tempo": 120.0
            },
            {
                "start_time": 49.07272727272727,
                "end_time": 49.12045454545454,
                "pitch": 52,
                "velocity": 51,
                "duration": 0.04772727272727195,
                "tempo": 120.0
            },
            {
                "start_time": 49.12045454545454,
                "end_time": 49.17045454545454,
                "pitch": 64,
                "velocity": 51,
                "duration": 0.04999999999999716,
                "tempo": 120.0
            },
            {
                "start_time": 49.17045454545454,
                "end_time": 49.220454545454544,
                "pitch": 53,
                "velocity": 51,
                "duration": 0.05000000000000426,
                "tempo": 120.0
            },
            {
                "start_time": 49.22272727272727,
                "end_time": 49.27045454545454,
                "pitch": 65,
                "velocity": 51,
                "duration": 0.04772727272727195,
                "tempo": 120.0
            },
            {
                "start_time": 49.27272727272727,
                "end_time": 49.320454545454545,
                "pitch": 57,
                "velocity": 51,
                "duration": 0.04772727272727195,
                "tempo": 120.0
            },
            {
                "start_time": 49.32272727272727,
                "end_time": 49.37272727272727,
                "pitch": 69,
                "velocity": 51,
                "duration": 0.04999999999999716,
                "tempo": 120.0
            },
            {
                "start_time": 49.375,
                "end_time": 49.425,
                "pitch": 61,
                "velocity": 51,
                "duration": 0.04999999999999716,
                "tempo": 120.0
            },
            {
                "start_time": 49.425,
                "end_time": 49.474999999999994,
                "pitch": 73,
                "velocity": 51,
                "duration": 0.04999999999999716,
                "tempo": 120.0
            },
            {
                "start_time": 49.47727272727273,
                "end_time": 49.527272727272724,
                "pitch": 64,
                "velocity": 51,
                "duration": 0.04999999999999716,
                "tempo": 120.0
            },
            {
                "start_time": 49.52954545454545,
                "end_time": 49.57954545454545,
                "pitch": 76,
                "velocity": 51,
                "duration": 0.05000000000000426,
                "tempo": 120.0
            },
            {
                "start_time": 49.57954545454545,
                "end_time": 49.62954545454545,
                "pitch": 65,
                "velocity": 51,
                "duration": 0.04999999999999716,
                "tempo": 120.0
            },
            {
                "start_time": 49.63181818181818,
                "end_time": 49.68181818181818,
                "pitch": 77,
                "velocity": 51,
                "duration": 0.04999999999999716,
                "tempo": 120.0
            },
            {
                "start_time": 49.684090909090905,
                "end_time": 49.72954545454545,
                "pitch": 69,
                "velocity": 51,
                "duration": 0.045454545454546746,
                "tempo": 120.0
            },
            {
                "start_time": 49.73181818181818,
                "end_time": 49.77954545454545,
                "pitch": 81,
                "velocity": 51,
                "duration": 0.04772727272727195,
                "tempo": 120.0
            },
            {
                "start_time": 49.78181818181818,
                "end_time": 49.82954545454545,
                "pitch": 73,
                "velocity": 51,
                "duration": 0.04772727272727195,
                "tempo": 120.0
            },
            {
                "start_time": 49.82954545454545,
                "end_time": 49.877272727272725,
                "pitch": 85,
                "velocity": 51,
                "duration": 0.04772727272727195,
                "tempo": 120.0
            },
            {
                "start_time": 49.87954545454545,
                "end_time": 49.92727272727272,
                "pitch": 76,
                "velocity": 51,
                "duration": 0.04772727272727195,
                "tempo": 120.0
            },
            {
                "start_time": 49.92727272727272,
                "end_time": 49.974999999999994,
                "pitch": 88,
                "velocity": 51,
                "duration": 0.04772727272727195,
                "tempo": 120.0
            },
            {
                "start_time": 49.97727272727273,
                "end_time": 50.025,
                "pitch": 77,
                "velocity": 51,
                "duration": 0.04772727272727195,
                "tempo": 120.0
            },
            {
                "start_time": 50.027272727272724,
                "end_time": 50.074999999999996,
                "pitch": 89,
                "velocity": 51,
                "duration": 0.04772727272727195,
                "tempo": 120.0
            },
            {
                "start_time": 50.07727272727273,
                "end_time": 50.125,
                "pitch": 81,
                "velocity": 51,
                "duration": 0.04772727272727195,
                "tempo": 120.0
            },
            {
                "start_time": 50.125,
                "end_time": 50.175,
                "pitch": 93,
                "velocity": 51,
                "duration": 0.04999999999999716,
                "tempo": 120.0
            },
            {
                "start_time": 50.175,
                "end_time": 50.224999999999994,
                "pitch": 85,
                "velocity": 51,
                "duration": 0.04999999999999716,
                "tempo": 120.0
            },
            {
                "start_time": 50.224999999999994,
                "end_time": 50.277272727272724,
                "pitch": 97,
                "velocity": 51,
                "duration": 0.05227272727272947,
                "tempo": 120.0
            },
            {
                "start_time": 50.277272727272724,
                "end_time": 50.324999999999996,
                "pitch": 88,
                "velocity": 51,
                "duration": 0.04772727272727195,
                "tempo": 120.0
            },
            {
                "start_time": 50.324999999999996,
                "end_time": 50.375,
                "pitch": 100,
                "velocity": 51,
                "duration": 0.05000000000000426,
                "tempo": 120.0
            },
            {
                "start_time": 50.375,
                "end_time": 50.425,
                "pitch": 89,
                "velocity": 51,
                "duration": 0.04999999999999716,
                "tempo": 120.0
            },
            {
                "start_time": 50.425,
                "end_time": 50.474999999999994,
                "pitch": 101,
                "velocity": 51,
                "duration": 0.04999999999999716,
                "tempo": 120.0
            },
            {
                "start_time": 50.47727272727273,
                "end_time": 50.525,
                "pitch": 91,
                "velocity": 51,
                "duration": 0.04772727272727195,
                "tempo": 120.0
            },
            {
                "start_time": 50.527272727272724,
                "end_time": 50.574999999999996,
                "pitch": 103,
                "velocity": 51,
                "duration": 0.04772727272727195,
                "tempo": 120.0
            },
            {
                "start_time": 50.57727272727273,
                "end_time": 50.625,
                "pitch": 88,
                "velocity": 51,
                "duration": 0.04772727272727195,
                "tempo": 120.0
            },
            {
                "start_time": 50.627272727272725,
                "end_time": 50.67727272727272,
                "pitch": 100,
                "velocity": 51,
                "duration": 0.04999999999999716,
                "tempo": 120.0
            },
            {
                "start_time": 50.67727272727272,
                "end_time": 50.72727272727273,
                "pitch": 85,
                "velocity": 51,
                "duration": 0.05000000000000426,
                "tempo": 120.0
            },
            {
                "start_time": 50.72727272727273,
                "end_time": 50.777272727272724,
                "pitch": 97,
                "velocity": 51,
                "duration": 0.04999999999999716,
                "tempo": 120.0
            },
            {
                "start_time": 50.77954545454545,
                "end_time": 50.82727272727273,
                "pitch": 81,
                "velocity": 51,
                "duration": 0.04772727272727906,
                "tempo": 120.0
            },
            {
                "start_time": 50.82954545454545,
                "end_time": 50.87954545454545,
                "pitch": 93,
                "velocity": 51,
                "duration": 0.04999999999999716,
                "tempo": 120.0
            },
            {
                "start_time": 50.87954545454545,
                "end_time": 50.92727272727272,
                "pitch": 79,
                "velocity": 51,
                "duration": 0.04772727272727195,
                "tempo": 120.0
            },
            {
                "start_time": 50.929545454545455,
                "end_time": 50.97727272727273,
                "pitch": 91,
                "velocity": 51,
                "duration": 0.04772727272727195,
                "tempo": 120.0
            },
            {
                "start_time": 50.97954545454545,
                "end_time": 51.027272727272724,
                "pitch": 76,
                "velocity": 51,
                "duration": 0.04772727272727195,
                "tempo": 120.0
            },
            {
                "start_time": 51.02954545454545,
                "end_time": 51.07954545454545,
                "pitch": 88,
                "velocity": 51,
                "duration": 0.05000000000000426,
                "tempo": 120.0
            },
            {
                "start_time": 51.07954545454545,
                "end_time": 51.127272727272725,
                "pitch": 73,
                "velocity": 51,
                "duration": 0.04772727272727195,
                "tempo": 120.0
            },
            {
                "start_time": 51.12954545454545,
                "end_time": 51.17727272727272,
                "pitch": 85,
                "velocity": 51,
                "duration": 0.04772727272727195,
                "tempo": 120.0
            },
            {
                "start_time": 51.179545454545455,
                "end_time": 51.22727272727273,
                "pitch": 69,
                "velocity": 51,
                "duration": 0.04772727272727195,
                "tempo": 120.0
            },
            {
                "start_time": 51.22954545454545,
                "end_time": 51.27954545454545,
                "pitch": 81,
                "velocity": 51,
                "duration": 0.04999999999999716,
                "tempo": 120.0
            },
            {
                "start_time": 51.27954545454545,
                "end_time": 51.32954545454545,
                "pitch": 67,
                "velocity": 51,
                "duration": 0.05000000000000426,
                "tempo": 120.0
            },
            {
                "start_time": 51.32954545454545,
                "end_time": 51.37954545454545,
                "pitch": 79,
                "velocity": 51,
                "duration": 0.04999999999999716,
                "tempo": 120.0
            },
            {
                "start_time": 51.37954545454545,
                "end_time": 51.429545454545455,
                "pitch": 64,
                "velocity": 51,
                "duration": 0.05000000000000426,
                "tempo": 120.0
            },
            {
                "start_time": 51.429545454545455,
                "end_time": 51.47954545454545,
                "pitch": 76,
                "velocity": 51,
                "duration": 0.04999999999999716,
                "tempo": 120.0
            },
            {
                "start_time": 51.47954545454545,
                "end_time": 51.52954545454545,
                "pitch": 61,
                "velocity": 51,
                "duration": 0.04999999999999716,
                "tempo": 120.0
            },
            {
                "start_time": 51.52954545454545,
                "end_time": 51.57954545454545,
                "pitch": 73,
                "velocity": 51,
                "duration": 0.05000000000000426,
                "tempo": 120.0
            },
            {
                "start_time": 51.58181818181818,
                "end_time": 51.62954545454545,
                "pitch": 57,
                "velocity": 51,
                "duration": 0.04772727272727195,
                "tempo": 120.0
            },
            {
                "start_time": 51.62954545454545,
                "end_time": 51.679545454545455,
                "pitch": 69,
                "velocity": 51,
                "duration": 0.05000000000000426,
                "tempo": 120.0
            },
            {
                "start_time": 51.68181818181818,
                "end_time": 51.74772727272727,
                "pitch": 55,
                "velocity": 51,
                "duration": 0.06590909090908781,
                "tempo": 120.0
            }
        ],
        "Vibraphone": [
            {
                "start_time": 39.22727272727273,
                "end_time": 40.834090909090904,
                "pitch": 69,
                "velocity": 51,
                "duration": 1.606818181818177,
                "tempo": 120.0
            },
            {
                "start_time": 40.836363636363636,
                "end_time": 42.44090909090909,
                "pitch": 67,
                "velocity": 51,
                "duration": 1.6045454545454518,
                "tempo": 120.0
            },
            {
                "start_time": 42.44318181818181,
                "end_time": 43.84772727272727,
                "pitch": 64,
                "velocity": 51,
                "duration": 1.404545454545456,
                "tempo": 120.0
            },
            {
                "start_time": 43.84772727272727,
                "end_time": 44.652272727272724,
                "pitch": 65,
                "velocity": 51,
                "duration": 0.8045454545454547,
                "tempo": 120.0
            },
            {
                "start_time": 44.65454545454545,
                "end_time": 45.65909090909091,
                "pitch": 69,
                "velocity": 51,
                "duration": 1.0045454545454575,
                "tempo": 120.0
            },
            {
                "start_time": 45.66136363636363,
                "end_time": 47.26590909090909,
                "pitch": 65,
                "velocity": 51,
                "duration": 1.604545454545459,
                "tempo": 120.0
            },
            {
                "start_time": 47.26590909090909,
                "end_time": 48.06590909090909,
                "pitch": 62,
                "velocity": 51,
                "duration": 0.7999999999999972,
                "tempo": 120.0
            },
            {
                "start_time": 48.06590909090909,
                "end_time": 48.87045454545454,
                "pitch": 62,
                "velocity": 51,
                "duration": 0.8045454545454547,
                "tempo": 120.0
            },
            {
                "start_time": 48.87045454545454,
                "end_time": 50.275,
                "pitch": 64,
                "velocity": 51,
                "duration": 1.404545454545456,
                "tempo": 120.0
            },
            {
                "start_time": 50.275,
                "end_time": 51.88409090909091,
                "pitch": 64,
                "velocity": 51,
                "duration": 1.6090909090909093,
                "tempo": 120.0
            }
        ]
    }
}