{
    "track_id": "01 Opening #1",
    "mood": "angry",
    "instruments": {
        "Electric Piano 1": [
            {
                "start_time": 3.1999999999999997,
                "end_time": 3.418181818181818,
                "pitch": 24,
                "velocity": 51,
                "duration": 0.21818181818181825,
                "tempo": 120.0
            },
            {
                "start_time": 4.1909090909090905,
                "end_time": 4.406818181818181,
                "pitch": 24,
                "velocity": 127,
                "duration": 0.21590909090909083,
                "tempo": 120.0
            },
            {
                "start_time": 6.427272727272727,
                "end_time": 6.638636363636364,
                "pitch": 24,
                "velocity": 51,
                "duration": 0.21136363636363686,
                "tempo": 120.0
            },
            {
                "start_time": 7.429545454545454,
                "end_time": 7.6499999999999995,
                "pitch": 24,
                "velocity": 127,
                "duration": 0.22045454545454568,
                "tempo": 120.0
            },
            {
                "start_time": 9.64090909090909,
                "end_time": 9.85681818181818,
                "pitch": 24,
                "velocity": 51,
                "duration": 0.21590909090908994,
                "tempo": 120.0
            },
            {
                "start_time": 10.643181818181818,
                "end_time": 10.85681818181818,
                "pitch": 24,
                "velocity": 127,
                "duration": 0.21363636363636296,
                "tempo": 120.0
            },
            {
                "start_time": 12.85681818181818,
                "end_time": 13.072727272727272,
                "pitch": 24,
                "velocity": 51,
                "duration": 0.21590909090909172,
                "tempo": 120.0
            },
            {
                "start_time": 13.86590909090909,
                "end_time": 14.079545454545453,
                "pitch": 24,
                "velocity": 127,
                "duration": 0.21363636363636296,
                "tempo": 120.0
            },
            {
                "start_time": 16.068181818181817,
                "end_time": 16.28181818181818,
                "pitch": 24,
                "velocity": 51,
                "duration": 0.21363636363636473,
                "tempo": 120.0
            },
            {
                "start_time": 17.084090909090907,
                "end_time": 17.3,
                "pitch": 24,
                "velocity": 127,
                "duration": 0.2159090909090935,
                "tempo": 120.0
            },
            {
                "start_time": 19.302272727272726,
                "end_time": 19.518181818181816,
                "pitch": 24,
                "velocity": 51,
                "duration": 0.21590909090908994,
                "tempo": 120.0
            },
            {
                "start_time": 20.3,
                "end_time": 20.511363636363637,
                "pitch": 24,
                "velocity": 127,
                "duration": 0.21136363636363598,
                "tempo": 120.0
            },
            {
                "start_time": 22.529545454545453,
                "end_time": 22.743181818181817,
                "pitch": 24,
                "velocity": 51,
                "duration": 0.21363636363636473,
                "tempo": 120.0
            },
            {
                "start_time": 23.534090909090907,
                "end_time": 23.752272727272725,
                "pitch": 24,
                "velocity": 127,
                "duration": 0.2181818181818187,
                "tempo": 120.0
            },
            {
                "start_time": 25.75,
                "end_time": 25.96363636363636,
                "pitch": 24,
                "velocity": 51,
                "duration": 0.21363636363636118,
                "tempo": 120.0
            },
            {
                "start_time": 26.759090909090908,
                "end_time": 26.974999999999998,
                "pitch": 24,
                "velocity": 127,
                "duration": 0.21590909090908994,
                "tempo": 120.0
            },
            {
                "start_time": 28.98409090909091,
                "end_time": 29.202272727272724,
                "pitch": 24,
                "velocity": 51,
                "duration": 0.21818181818181515,
                "tempo": 120.0
            },
            {
                "start_time": 29.993181818181817,
                "end_time": 30.204545454545453,
                "pitch": 24,
                "velocity": 127,
                "duration": 0.21136363636363598,
                "tempo": 120.0
            },
            {
                "start_time": 32.20681818181818,
                "end_time": 32.42045454545455,
                "pitch": 24,
                "velocity": 51,
                "duration": 0.2136363636363683,
                "tempo": 120.0
            },
            {
                "start_time": 33.21818181818182,
                "end_time": 33.43636363636364,
                "pitch": 24,
                "velocity": 127,
                "duration": 0.2181818181818187,
                "tempo": 120.0
            },
            {
                "start_time": 35.445454545454545,
                "end_time": 35.66136363636363,
                "pitch": 24,
                "velocity": 51,
                "duration": 0.2159090909090864,
                "tempo": 120.0
            },
            {
                "start_time": 36.45227272727273,
                "end_time": 36.66136363636363,
                "pitch": 24,
                "velocity": 127,
                "duration": 0.20909090909090366,
                "tempo": 120.0
            },
            {
                "start_time": 38.675,
                "end_time": 38.893181818181816,
                "pitch": 24,
                "velocity": 51,
                "duration": 0.2181818181818187,
                "tempo": 120.0
            },
            {
                "start_time": 39.679545454545455,
                "end_time": 39.89090909090909,
                "pitch": 24,
                "velocity": 127,
                "duration": 0.21136363636363598,
                "tempo": 120.0
            },
            {
                "start_time": 41.902272727272724,
                "end_time": 42.11363636363636,
                "pitch": 24,
                "velocity": 51,
                "duration": 0.21136363636363598,
                "tempo": 120.0
            },
            {
                "start_time": 42.90454545454545,
                "end_time": 43.12272727272727,
                "pitch": 24,
                "velocity": 127,
                "duration": 0.2181818181818187,
                "tempo": 120.0
            },
            {
                "start_time": 45.13863636363636,
                "end_time": 45.35454545454545,
                "pitch": 24,
                "velocity": 51,
                "duration": 0.2159090909090935,
                "tempo": 120.0
            },
            {
                "start_time": 46.15,
                "end_time": 46.36363636363636,
                "pitch": 24,
                "velocity": 127,
                "duration": 0.21363636363636118,
                "tempo": 120.0
            },
            {
                "start_time": 48.361363636363635,
                "end_time": 48.57727272727273,
                "pitch": 24,
                "velocity": 51,
                "duration": 0.2159090909090935,
                "tempo": 120.0
            },
            {
                "start_time": 49.37045454545454,
                "end_time": 49.590909090909086,
                "pitch": 24,
                "velocity": 127,
                "duration": 0.2204545454545439,
                "tempo": 120.0
            },
            {
                "start_time": 51.599999999999994,
                "end_time": 51.81590909090909,
                "pitch": 24,
                "velocity": 51,
                "duration": 0.2159090909090935,
                "tempo": 120.0
            },
            {
                "start_time": 52.615909090909085,
                "end_time": 52.82954545454545,
                "pitch": 24,
                "velocity": 127,
                "duration": 0.2136363636363683,
                "tempo": 120.0
            },
            {
                "start_time": 54.82727272727273,
                "end_time": 55.04772727272727,
                "pitch": 24,
                "velocity": 51,
                "duration": 0.2204545454545439,
                "tempo": 120.0
            },
            {
                "start_time": 55.836363636363636,
                "end_time": 56.05,
                "pitch": 24,
                "velocity": 127,
                "duration": 0.21363636363636118,
                "tempo": 120.0
            },
            {
                "start_time": 58.06136363636363,
                "end_time": 58.27272727272727,
                "pitch": 24,
                "velocity": 51,
                "duration": 0.21136363636364308,
                "tempo": 120.0
            },
            {
                "start_time": 59.05227272727272,
                "end_time": 59.26590909090909,
                "pitch": 24,
                "velocity": 127,
                "duration": 0.2136363636363683,
                "tempo": 120.0
            },
            {
                "start_time": 61.28636363636363,
                "end_time": 61.502272727272725,
                "pitch": 24,
                "velocity": 51,
                "duration": 0.2159090909090935,
                "tempo": 120.0
            },
            {
                "start_time": 62.30227272727272,
                "end_time": 62.51590909090909,
                "pitch": 24,
                "velocity": 127,
                "duration": 0.2136363636363683,
                "tempo": 120.0
            },
            {
                "start_time": 64.51136363636364,
                "end_time": 64.72727272727272,
                "pitch": 24,
                "velocity": 51,
                "duration": 0.21590909090907928,
                "tempo": 120.0
            },
            {
                "start_time": 65.51818181818182,
                "end_time": 65.73636363636363,
                "pitch": 24,
                "velocity": 127,
                "duration": 0.2181818181818187,
                "tempo": 120.0
            },
            {
                "start_time": 67.74090909090908,
                "end_time": 67.95454545454545,
                "pitch": 24,
                "velocity": 51,
                "duration": 0.2136363636363683,
                "tempo": 120.0
            },
            {
                "start_time": 68.74090909090908,
                "end_time": 68.95681818181818,
                "pitch": 24,
                "velocity": 127,
                "duration": 0.2159090909090935,
                "tempo": 120.0
            },
            {
                "start_time": 70.96136363636363,
                "end_time": 71.17954545454545,
                "pitch": 24,
                "velocity": 51,
                "duration": 0.2181818181818187,
                "tempo": 120.0
            },
            {
                "start_time": 71.97045454545454,
                "end_time": 72.18409090909091,
                "pitch": 24,
                "velocity": 127,
                "duration": 0.2136363636363683,
                "tempo": 120.0
            },
            {
                "start_time": 74.18409090909091,
                "end_time": 74.39999999999999,
                "pitch": 24,
                "velocity": 51,
                "duration": 0.21590909090907928,
                "tempo": 120.0
            },
            {
                "start_time": 75.18409090909091,
                "end_time": 75.39999999999999,
                "pitch": 24,
                "velocity": 127,
                "duration": 0.21590909090907928,
                "tempo": 120.0
            }
        ],
        "Vibraphone": [
            {
                "start_time": 5.422727272727273,
                "end_time": 5.454545454545454,
                "pitch": 88,
                "velocity": 40,
                "duration": 0.0318181818181813,
                "tempo": 120.0
            },
            {
                "start_time": 5.625,
                "end_time": 5.656818181818181,
                "pitch": 92,
                "velocity": 40,
                "duration": 0.0318181818181813,
                "tempo": 120.0
            },
            {
                "start_time": 5.827272727272727,
                "end_time": 5.8590909090909085,
                "pitch": 89,
                "velocity": 40,
                "duration": 0.0318181818181813,
                "tempo": 120.0
            },
            {
                "start_time": 6.029545454545454,
                "end_time": 6.0613636363636365,
                "pitch": 94,
                "velocity": 40,
                "duration": 0.03181818181818219,
                "tempo": 120.0
            },
            {
                "start_time": 6.227272727272727,
                "end_time": 6.259090909090909,
                "pitch": 90,
                "velocity": 40,
                "duration": 0.03181818181818219,
                "tempo": 120.0
            },
            {
                "start_time": 6.427272727272727,
                "end_time": 6.459090909090909,
                "pitch": 84,
                "velocity": 40,
                "duration": 0.03181818181818219,
                "tempo": 120.0
            },
            {
                "start_time": 6.625,
                "end_time": 6.656818181818181,
                "pitch": 87,
                "velocity": 40,
                "duration": 0.0318181818181813,
                "tempo": 120.0
            },
            {
                "start_time": 6.824999999999999,
                "end_time": 6.8568181818181815,
                "pitch": 93,
                "velocity": 40,
                "duration": 0.03181818181818219,
                "tempo": 120.0
            },
            {
                "start_time": 7.0249999999999995,
                "end_time": 7.056818181818182,
                "pitch": 91,
                "velocity": 40,
                "duration": 0.03181818181818219,
                "tempo": 120.0
            },
            {
                "start_time": 7.225,
                "end_time": 7.259090909090909,
                "pitch": 95,
                "velocity": 40,
                "duration": 0.03409090909090917,
                "tempo": 120.0
            },
            {
                "start_time": 7.431818181818182,
                "end_time": 7.461363636363636,
                "pitch": 86,
                "velocity": 40,
                "duration": 0.02954545454545432,
                "tempo": 120.0
            },
            {
                "start_time": 7.634090909090909,
                "end_time": 7.66590909090909,
                "pitch": 91,
                "velocity": 40,
                "duration": 0.0318181818181813,
                "tempo": 120.0
            },
            {
                "start_time": 7.836363636363636,
                "end_time": 7.870454545454545,
                "pitch": 85,
                "velocity": 40,
                "duration": 0.03409090909090917,
                "tempo": 120.0
            },
            {
                "start_time": 8.036363636363635,
                "end_time": 8.068181818181818,
                "pitch": 88,
                "velocity": 40,
                "duration": 0.03181818181818308,
                "tempo": 120.0
            },
            {
                "start_time": 8.23409090909091,
                "end_time": 8.26590909090909,
                "pitch": 92,
                "velocity": 40,
                "duration": 0.0318181818181813,
                "tempo": 120.0
            },
            {
                "start_time": 8.431818181818182,
                "end_time": 8.46590909090909,
                "pitch": 89,
                "velocity": 40,
                "duration": 0.034090909090908283,
                "tempo": 120.0
            },
            {
                "start_time": 8.636363636363637,
                "end_time": 8.670454545454545,
                "pitch": 94,
                "velocity": 40,
                "duration": 0.034090909090908283,
                "tempo": 120.0
            },
            {
                "start_time": 8.84090909090909,
                "end_time": 8.875,
                "pitch": 90,
                "velocity": 40,
                "duration": 0.03409090909091006,
                "tempo": 120.0
            },
            {
                "start_time": 9.045454545454545,
                "end_time": 9.077272727272726,
                "pitch": 84,
                "velocity": 40,
                "duration": 0.0318181818181813,
                "tempo": 120.0
            },
            {
                "start_time": 9.243181818181817,
                "end_time": 9.275,
                "pitch": 87,
                "velocity": 40,
                "duration": 0.03181818181818308,
                "tempo": 120.0
            },
            {
                "start_time": 9.44090909090909,
                "end_time": 9.475,
                "pitch": 93,
                "velocity": 40,
                "duration": 0.03409090909091006,
                "tempo": 120.0
            },
            {
                "start_time": 9.643181818181818,
                "end_time": 9.672727272727272,
                "pitch": 91,
                "velocity": 40,
                "duration": 0.02954545454545432,
                "tempo": 120.0
            },
            {
                "start_time": 9.84090909090909,
                "end_time": 9.872727272727273,
                "pitch": 95,
                "velocity": 40,
                "duration": 0.03181818181818308,
                "tempo": 120.0
            },
            {
                "start_time": 10.040909090909091,
                "end_time": 10.072727272727272,
                "pitch": 86,
                "velocity": 40,
                "duration": 0.0318181818181813,
                "tempo": 120.0
            },
            {
                "start_time": 10.24090909090909,
                "end_time": 10.272727272727272,
                "pitch": 91,
                "velocity": 40,
                "duration": 0.0318181818181813,
                "tempo": 120.0
            },
            {
                "start_time": 10.44090909090909,
                "end_time": 10.472727272727273,
                "pitch": 85,
                "velocity": 40,
                "duration": 0.03181818181818308,
                "tempo": 120.0
            },
            {
                "start_time": 10.643181818181818,
                "end_time": 10.674999999999999,
                "pitch": 88,
                "velocity": 40,
                "duration": 0.0318181818181813,
                "tempo": 120.0
            },
            {
                "start_time": 10.84090909090909,
                "end_time": 10.875,
                "pitch": 92,
                "velocity": 40,
                "duration": 0.03409090909091006,
                "tempo": 120.0
            },
            {
                "start_time": 11.045454545454545,
                "end_time": 11.079545454545453,
                "pitch": 89,
                "velocity": 40,
                "duration": 0.034090909090908283,
                "tempo": 120.0
            },
            {
                "start_time": 11.25,
                "end_time": 11.284090909090908,
                "pitch": 94,
                "velocity": 40,
                "duration": 0.034090909090908283,
                "tempo": 120.0
            },
            {
                "start_time": 11.454545454545453,
                "end_time": 11.486363636363636,
                "pitch": 90,
                "velocity": 40,
                "duration": 0.03181818181818308,
                "tempo": 120.0
            },
            {
                "start_time": 11.654545454545454,
                "end_time": 11.686363636363636,
                "pitch": 84,
                "velocity": 40,
                "duration": 0.0318181818181813,
                "tempo": 120.0
            },
            {
                "start_time": 11.854545454545454,
                "end_time": 11.888636363636364,
                "pitch": 87,
                "velocity": 40,
                "duration": 0.03409090909091006,
                "tempo": 120.0
            },
            {
                "start_time": 12.054545454545455,
                "end_time": 12.088636363636363,
                "pitch": 93,
                "velocity": 40,
                "duration": 0.034090909090908283,
                "tempo": 120.0
            },
            {
                "start_time": 12.254545454545454,
                "end_time": 12.288636363636362,
                "pitch": 91,
                "velocity": 40,
                "duration": 0.034090909090908283,
                "tempo": 120.0
            },
            {
                "start_time": 12.454545454545453,
                "end_time": 12.488636363636363,
                "pitch": 95,
                "velocity": 40,
                "duration": 0.03409090909091006,
                "tempo": 120.0
            },
            {
                "start_time": 12.656818181818181,
                "end_time": 12.688636363636363,
                "pitch": 86,
                "velocity": 40,
                "duration": 0.0318181818181813,
                "tempo": 120.0
            },
            {
                "start_time": 12.85909090909091,
                "end_time": 12.888636363636364,
                "pitch": 91,
                "velocity": 40,
                "duration": 0.02954545454545432,
                "tempo": 120.0
            },
            {
                "start_time": 13.056818181818182,
                "end_time": 13.088636363636363,
                "pitch": 85,
                "velocity": 40,
                "duration": 0.0318181818181813,
                "tempo": 120.0
            },
            {
                "start_time": 13.256818181818181,
                "end_time": 13.290909090909091,
                "pitch": 88,
                "velocity": 40,
                "duration": 0.03409090909091006,
                "tempo": 120.0
            },
            {
                "start_time": 13.459090909090909,
                "end_time": 13.493181818181817,
                "pitch": 92,
                "velocity": 40,
                "duration": 0.034090909090908283,
                "tempo": 120.0
            },
            {
                "start_time": 13.661363636363635,
                "end_time": 13.695454545454545,
                "pitch": 89,
                "velocity": 40,
                "duration": 0.03409090909091006,
                "tempo": 120.0
            },
            {
                "start_time": 13.86590909090909,
                "end_time": 13.895454545454545,
                "pitch": 94,
                "velocity": 40,
                "duration": 0.02954545454545432,
                "tempo": 120.0
            },
            {
                "start_time": 14.063636363636363,
                "end_time": 14.097727272727273,
                "pitch": 90,
                "velocity": 40,
                "duration": 0.03409090909091006,
                "tempo": 120.0
            },
            {
                "start_time": 14.263636363636364,
                "end_time": 14.297727272727272,
                "pitch": 84,
                "velocity": 40,
                "duration": 0.034090909090908283,
                "tempo": 120.0
            },
            {
                "start_time": 14.463636363636363,
                "end_time": 14.497727272727271,
                "pitch": 87,
                "velocity": 40,
                "duration": 0.034090909090908283,
                "tempo": 120.0
            },
            {
                "start_time": 14.663636363636362,
                "end_time": 14.697727272727272,
                "pitch": 93,
                "velocity": 40,
                "duration": 0.03409090909091006,
                "tempo": 120.0
            },
            {
                "start_time": 14.86590909090909,
                "end_time": 14.897727272727272,
                "pitch": 91,
                "velocity": 40,
                "duration": 0.0318181818181813,
                "tempo": 120.0
            },
            {
                "start_time": 15.06590909090909,
                "end_time": 15.097727272727273,
                "pitch": 95,
                "velocity": 40,
                "duration": 0.03181818181818308,
                "tempo": 120.0
            },
            {
                "start_time": 15.26590909090909,
                "end_time": 15.297727272727272,
                "pitch": 86,
                "velocity": 40,
                "duration": 0.0318181818181813,
                "tempo": 120.0
            },
            {
                "start_time": 15.46590909090909,
                "end_time": 15.497727272727271,
                "pitch": 91,
                "velocity": 40,
                "duration": 0.0318181818181813,
                "tempo": 120.0
            },
            {
                "start_time": 15.665909090909091,
                "end_time": 15.697727272727272,
                "pitch": 85,
                "velocity": 40,
                "duration": 0.0318181818181813,
                "tempo": 120.0
            },
            {
                "start_time": 15.86590909090909,
                "end_time": 15.899999999999999,
                "pitch": 88,
                "velocity": 40,
                "duration": 0.034090909090908283,
                "tempo": 120.0
            },
            {
                "start_time": 16.068181818181817,
                "end_time": 16.099999999999998,
                "pitch": 92,
                "velocity": 40,
                "duration": 0.0318181818181813,
                "tempo": 120.0
            },
            {
                "start_time": 16.268181818181816,
                "end_time": 16.3,
                "pitch": 89,
                "velocity": 40,
                "duration": 0.031818181818184854,
                "tempo": 120.0
            },
            {
                "start_time": 16.470454545454544,
                "end_time": 16.504545454545454,
                "pitch": 94,
                "velocity": 40,
                "duration": 0.03409090909091006,
                "tempo": 120.0
            },
            {
                "start_time": 16.675,
                "end_time": 16.709090909090907,
                "pitch": 90,
                "velocity": 40,
                "duration": 0.03409090909090651,
                "tempo": 120.0
            },
            {
                "start_time": 16.879545454545454,
                "end_time": 16.913636363636364,
                "pitch": 84,
                "velocity": 40,
                "duration": 0.03409090909091006,
                "tempo": 120.0
            },
            {
                "start_time": 17.084090909090907,
                "end_time": 17.11590909090909,
                "pitch": 87,
                "velocity": 40,
                "duration": 0.0318181818181813,
                "tempo": 120.0
            },
            {
                "start_time": 17.284090909090907,
                "end_time": 17.318181818181817,
                "pitch": 93,
                "velocity": 40,
                "duration": 0.03409090909091006,
                "tempo": 120.0
            },
            {
                "start_time": 17.486363636363635,
                "end_time": 17.518181818181816,
                "pitch": 91,
                "velocity": 40,
                "duration": 0.0318181818181813,
                "tempo": 120.0
            },
            {
                "start_time": 17.68409090909091,
                "end_time": 17.71818181818182,
                "pitch": 95,
                "velocity": 40,
                "duration": 0.03409090909091006,
                "tempo": 120.0
            },
            {
                "start_time": 17.881818181818183,
                "end_time": 17.91590909090909,
                "pitch": 86,
                "velocity": 40,
                "duration": 0.03409090909090651,
                "tempo": 120.0
            },
            {
                "start_time": 18.081818181818182,
                "end_time": 18.113636363636363,
                "pitch": 91,
                "velocity": 40,
                "duration": 0.0318181818181813,
                "tempo": 120.0
            },
            {
                "start_time": 18.286363636363635,
                "end_time": 18.318181818181817,
                "pitch": 85,
                "velocity": 40,
                "duration": 0.0318181818181813,
                "tempo": 120.0
            },
            {
                "start_time": 18.49090909090909,
                "end_time": 18.522727272727273,
                "pitch": 88,
                "velocity": 40,
                "duration": 0.031818181818184854,
                "tempo": 120.0
            },
            {
                "start_time": 18.693181818181817,
                "end_time": 18.727272727272727,
                "pitch": 92,
                "velocity": 40,
                "duration": 0.03409090909091006,
                "tempo": 120.0
            },
            {
                "start_time": 18.895454545454545,
                "end_time": 18.929545454545455,
                "pitch": 89,
                "velocity": 40,
                "duration": 0.03409090909091006,
                "tempo": 120.0
            },
            {
                "start_time": 19.097727272727273,
                "end_time": 19.13181818181818,
                "pitch": 94,
                "velocity": 40,
                "duration": 0.03409090909090651,
                "tempo": 120.0
            },
            {
                "start_time": 19.304545454545455,
                "end_time": 19.334090909090907,
                "pitch": 90,
                "velocity": 40,
                "duration": 0.029545454545452543,
                "tempo": 120.0
            },
            {
                "start_time": 19.502272727272725,
                "end_time": 19.534090909090907,
                "pitch": 84,
                "velocity": 40,
                "duration": 0.0318181818181813,
                "tempo": 120.0
            },
            {
                "start_time": 19.702272727272728,
                "end_time": 19.73409090909091,
                "pitch": 87,
                "velocity": 40,
                "duration": 0.0318181818181813,
                "tempo": 120.0
            },
            {
                "start_time": 19.902272727272727,
                "end_time": 19.93409090909091,
                "pitch": 93,
                "velocity": 40,
                "duration": 0.0318181818181813,
                "tempo": 120.0
            },
            {
                "start_time": 20.099999999999998,
                "end_time": 20.13181818181818,
                "pitch": 91,
                "velocity": 40,
                "duration": 0.0318181818181813,
                "tempo": 120.0
            },
            {
                "start_time": 20.3,
                "end_time": 20.331818181818182,
                "pitch": 95,
                "velocity": 40,
                "duration": 0.0318181818181813,
                "tempo": 120.0
            },
            {
                "start_time": 20.49772727272727,
                "end_time": 20.529545454545453,
                "pitch": 86,
                "velocity": 40,
                "duration": 0.0318181818181813,
                "tempo": 120.0
            },
            {
                "start_time": 20.695454545454545,
                "end_time": 20.727272727272727,
                "pitch": 91,
                "velocity": 40,
                "duration": 0.0318181818181813,
                "tempo": 120.0
            },
            {
                "start_time": 20.893181818181816,
                "end_time": 20.925,
                "pitch": 85,
                "velocity": 40,
                "duration": 0.031818181818184854,
                "tempo": 120.0
            },
            {
                "start_time": 21.09090909090909,
                "end_time": 21.125,
                "pitch": 88,
                "velocity": 40,
                "duration": 0.03409090909091006,
                "tempo": 120.0
            },
            {
                "start_time": 21.3,
                "end_time": 21.334090909090907,
                "pitch": 92,
                "velocity": 40,
                "duration": 0.03409090909090651,
                "tempo": 120.0
            },
            {
                "start_time": 21.509090909090908,
                "end_time": 21.543181818181818,
                "pitch": 89,
                "velocity": 40,
                "duration": 0.03409090909091006,
                "tempo": 120.0
            },
            {
                "start_time": 21.71818181818182,
                "end_time": 21.75,
                "pitch": 94,
                "velocity": 40,
                "duration": 0.0318181818181813,
                "tempo": 120.0
            },
            {
                "start_time": 21.922727272727272,
                "end_time": 21.954545454545453,
                "pitch": 90,
                "velocity": 40,
                "duration": 0.0318181818181813,
                "tempo": 120.0
            },
            {
                "start_time": 22.125,
                "end_time": 22.159090909090907,
                "pitch": 84,
                "velocity": 40,
                "duration": 0.03409090909090651,
                "tempo": 120.0
            },
            {
                "start_time": 22.329545454545453,
                "end_time": 22.363636363636363,
                "pitch": 87,
                "velocity": 40,
                "duration": 0.03409090909091006,
                "tempo": 120.0
            },
            {
                "start_time": 22.53181818181818,
                "end_time": 22.561363636363634,
                "pitch": 93,
                "velocity": 40,
                "duration": 0.029545454545452543,
                "tempo": 120.0
            },
            {
                "start_time": 22.727272727272727,
                "end_time": 22.759090909090908,
                "pitch": 91,
                "velocity": 40,
                "duration": 0.0318181818181813,
                "tempo": 120.0
            },
            {
                "start_time": 22.924999999999997,
                "end_time": 22.959090909090907,
                "pitch": 95,
                "velocity": 40,
                "duration": 0.03409090909091006,
                "tempo": 120.0
            },
            {
                "start_time": 23.127272727272725,
                "end_time": 23.161363636363635,
                "pitch": 86,
                "velocity": 40,
                "duration": 0.03409090909091006,
                "tempo": 120.0
            },
            {
                "start_time": 23.329545454545453,
                "end_time": 23.363636363636363,
                "pitch": 91,
                "velocity": 40,
                "duration": 0.03409090909091006,
                "tempo": 120.0
            },
            {
                "start_time": 23.534090909090907,
                "end_time": 23.56590909090909,
                "pitch": 85,
                "velocity": 40,
                "duration": 0.031818181818184854,
                "tempo": 120.0
            },
            {
                "start_time": 23.736363636363635,
                "end_time": 23.770454545454545,
                "pitch": 88,
                "velocity": 40,
                "duration": 0.03409090909091006,
                "tempo": 120.0
            },
            {
                "start_time": 23.94090909090909,
                "end_time": 23.974999999999998,
                "pitch": 92,
                "velocity": 40,
                "duration": 0.03409090909090651,
                "tempo": 120.0
            },
            {
                "start_time": 24.145454545454545,
                "end_time": 24.177272727272726,
                "pitch": 89,
                "velocity": 40,
                "duration": 0.0318181818181813,
                "tempo": 120.0
            },
            {
                "start_time": 24.347727272727273,
                "end_time": 24.379545454545454,
                "pitch": 94,
                "velocity": 40,
                "duration": 0.0318181818181813,
                "tempo": 120.0
            },
            {
                "start_time": 24.549999999999997,
                "end_time": 24.581818181818182,
                "pitch": 90,
                "velocity": 40,
                "duration": 0.031818181818184854,
                "tempo": 120.0
            },
            {
                "start_time": 24.752272727272725,
                "end_time": 24.784090909090907,
                "pitch": 84,
                "velocity": 40,
                "duration": 0.0318181818181813,
                "tempo": 120.0
            },
            {
                "start_time": 24.952272727272724,
                "end_time": 24.98409090909091,
                "pitch": 87,
                "velocity": 40,
                "duration": 0.031818181818184854,
                "tempo": 120.0
            },
            {
                "start_time": 25.152272727272727,
                "end_time": 25.186363636363634,
                "pitch": 93,
                "velocity": 40,
                "duration": 0.03409090909090651,
                "tempo": 120.0
            },
            {
                "start_time": 25.352272727272727,
                "end_time": 25.384090909090908,
                "pitch": 91,
                "velocity": 40,
                "duration": 0.0318181818181813,
                "tempo": 120.0
            },
            {
                "start_time": 25.549999999999997,
                "end_time": 25.584090909090907,
                "pitch": 95,
                "velocity": 40,
                "duration": 0.03409090909091006,
                "tempo": 120.0
            },
            {
                "start_time": 25.752272727272725,
                "end_time": 25.78181818181818,
                "pitch": 86,
                "velocity": 40,
                "duration": 0.029545454545456096,
                "tempo": 120.0
            },
            {
                "start_time": 25.94772727272727,
                "end_time": 25.98181818181818,
                "pitch": 91,
                "velocity": 40,
                "duration": 0.03409090909091006,
                "tempo": 120.0
            },
            {
                "start_time": 26.15,
                "end_time": 26.18409090909091,
                "pitch": 85,
                "velocity": 40,
                "duration": 0.03409090909091006,
                "tempo": 120.0
            },
            {
                "start_time": 26.352272727272727,
                "end_time": 26.386363636363637,
                "pitch": 88,
                "velocity": 40,
                "duration": 0.03409090909091006,
                "tempo": 120.0
            },
            {
                "start_time": 26.554545454545455,
                "end_time": 26.58863636363636,
                "pitch": 92,
                "velocity": 40,
                "duration": 0.03409090909090651,
                "tempo": 120.0
            },
            {
                "start_time": 26.759090909090908,
                "end_time": 26.79090909090909,
                "pitch": 89,
                "velocity": 40,
                "duration": 0.0318181818181813,
                "tempo": 120.0
            },
            {
                "start_time": 26.959090909090907,
                "end_time": 26.993181818181817,
                "pitch": 94,
                "velocity": 40,
                "duration": 0.03409090909091006,
                "tempo": 120.0
            },
            {
                "start_time": 27.161363636363635,
                "end_time": 27.195454545454545,
                "pitch": 90,
                "velocity": 40,
                "duration": 0.03409090909091006,
                "tempo": 120.0
            },
            {
                "start_time": 27.36590909090909,
                "end_time": 27.4,
                "pitch": 84,
                "velocity": 40,
                "duration": 0.03409090909091006,
                "tempo": 120.0
            },
            {
                "start_time": 27.570454545454545,
                "end_time": 27.604545454545452,
                "pitch": 87,
                "velocity": 40,
                "duration": 0.03409090909090651,
                "tempo": 120.0
            },
            {
                "start_time": 27.775,
                "end_time": 27.80681818181818,
                "pitch": 93,
                "velocity": 40,
                "duration": 0.0318181818181813,
                "tempo": 120.0
            },
            {
                "start_time": 27.974999999999998,
                "end_time": 28.00681818181818,
                "pitch": 91,
                "velocity": 40,
                "duration": 0.0318181818181813,
                "tempo": 120.0
            },
            {
                "start_time": 28.174999999999997,
                "end_time": 28.206818181818182,
                "pitch": 95,
                "velocity": 40,
                "duration": 0.031818181818184854,
                "tempo": 120.0
            },
            {
                "start_time": 28.375,
                "end_time": 28.409090909090907,
                "pitch": 86,
                "velocity": 40,
                "duration": 0.03409090909090651,
                "tempo": 120.0
            },
            {
                "start_time": 28.577272727272724,
                "end_time": 28.611363636363635,
                "pitch": 91,
                "velocity": 40,
                "duration": 0.03409090909091006,
                "tempo": 120.0
            },
            {
                "start_time": 28.779545454545453,
                "end_time": 28.813636363636363,
                "pitch": 85,
                "velocity": 40,
                "duration": 0.03409090909091006,
                "tempo": 120.0
            },
            {
                "start_time": 28.98409090909091,
                "end_time": 29.01590909090909,
                "pitch": 88,
                "velocity": 40,
                "duration": 0.0318181818181813,
                "tempo": 120.0
            },
            {
                "start_time": 29.186363636363634,
                "end_time": 29.220454545454544,
                "pitch": 92,
                "velocity": 40,
                "duration": 0.03409090909091006,
                "tempo": 120.0
            },
            {
                "start_time": 29.39090909090909,
                "end_time": 29.424999999999997,
                "pitch": 89,
                "velocity": 40,
                "duration": 0.03409090909090651,
                "tempo": 120.0
            },
            {
                "start_time": 29.595454545454544,
                "end_time": 29.627272727272725,
                "pitch": 94,
                "velocity": 40,
                "duration": 0.0318181818181813,
                "tempo": 120.0
            },
            {
                "start_time": 29.793181818181818,
                "end_time": 29.825,
                "pitch": 90,
                "velocity": 40,
                "duration": 0.0318181818181813,
                "tempo": 120.0
            },
            {
                "start_time": 29.993181818181817,
                "end_time": 30.025,
                "pitch": 84,
                "velocity": 40,
                "duration": 0.0318181818181813,
                "tempo": 120.0
            },
            {
                "start_time": 30.190909090909088,
                "end_time": 30.222727272727273,
                "pitch": 87,
                "velocity": 40,
                "duration": 0.031818181818184854,
                "tempo": 120.0
            },
            {
                "start_time": 30.393181818181816,
                "end_time": 30.427272727272726,
                "pitch": 93,
                "velocity": 40,
                "duration": 0.03409090909091006,
                "tempo": 120.0
            },
            {
                "start_time": 30.597727272727273,
                "end_time": 30.63181818181818,
                "pitch": 91,
                "velocity": 40,
                "duration": 0.03409090909090651,
                "tempo": 120.0
            },
            {
                "start_time": 30.802272727272726,
                "end_time": 30.834090909090907,
                "pitch": 95,
                "velocity": 40,
                "duration": 0.0318181818181813,
                "tempo": 120.0
            },
            {
                "start_time": 31.0,
                "end_time": 31.034090909090907,
                "pitch": 86,
                "velocity": 40,
                "duration": 0.03409090909090651,
                "tempo": 120.0
            },
            {
                "start_time": 31.2,
                "end_time": 31.23181818181818,
                "pitch": 91,
                "velocity": 40,
                "duration": 0.0318181818181813,
                "tempo": 120.0
            },
            {
                "start_time": 31.39772727272727,
                "end_time": 31.429545454545455,
                "pitch": 85,
                "velocity": 40,
                "duration": 0.031818181818184854,
                "tempo": 120.0
            },
            {
                "start_time": 31.599999999999998,
                "end_time": 31.63181818181818,
                "pitch": 88,
                "velocity": 40,
                "duration": 0.0318181818181813,
                "tempo": 120.0
            },
            {
                "start_time": 31.802272727272726,
                "end_time": 31.834090909090907,
                "pitch": 92,
                "velocity": 40,
                "duration": 0.0318181818181813,
                "tempo": 120.0
            },
            {
                "start_time": 32.00454545454545,
                "end_time": 32.03636363636363,
                "pitch": 89,
                "velocity": 40,
                "duration": 0.0318181818181813,
                "tempo": 120.0
            },
            {
                "start_time": 32.20681818181818,
                "end_time": 32.236363636363635,
                "pitch": 94,
                "velocity": 40,
                "duration": 0.029545454545456096,
                "tempo": 120.0
            },
            {
                "start_time": 32.404545454545456,
                "end_time": 32.43636363636364,
                "pitch": 90,
                "velocity": 40,
                "duration": 0.0318181818181813,
                "tempo": 120.0
            },
            {
                "start_time": 32.60454545454545,
                "end_time": 32.638636363636365,
                "pitch": 84,
                "velocity": 40,
                "duration": 0.03409090909091361,
                "tempo": 120.0
            },
            {
                "start_time": 32.809090909090905,
                "end_time": 32.84318181818182,
                "pitch": 87,
                "velocity": 40,
                "duration": 0.03409090909091361,
                "tempo": 120.0
            },
            {
                "start_time": 33.013636363636365,
                "end_time": 33.04772727272727,
                "pitch": 93,
                "velocity": 40,
                "duration": 0.03409090909090651,
                "tempo": 120.0
            },
            {
                "start_time": 33.220454545454544,
                "end_time": 33.25,
                "pitch": 91,
                "velocity": 40,
                "duration": 0.029545454545456096,
                "tempo": 120.0
            },
            {
                "start_time": 33.42045454545455,
                "end_time": 33.45227272727273,
                "pitch": 95,
                "velocity": 40,
                "duration": 0.0318181818181813,
                "tempo": 120.0
            },
            {
                "start_time": 33.62272727272727,
                "end_time": 33.654545454545456,
                "pitch": 86,
                "velocity": 40,
                "duration": 0.03181818181818841,
                "tempo": 120.0
            },
            {
                "start_time": 33.824999999999996,
                "end_time": 33.85681818181818,
                "pitch": 91,
                "velocity": 40,
                "duration": 0.0318181818181813,
                "tempo": 120.0
            },
            {
                "start_time": 34.027272727272724,
                "end_time": 34.059090909090905,
                "pitch": 85,
                "velocity": 40,
                "duration": 0.0318181818181813,
                "tempo": 120.0
            },
            {
                "start_time": 34.22954545454545,
                "end_time": 34.26136363636363,
                "pitch": 88,
                "velocity": 40,
                "duration": 0.0318181818181813,
                "tempo": 120.0
            },
            {
                "start_time": 34.43181818181818,
                "end_time": 34.46363636363636,
                "pitch": 92,
                "velocity": 40,
                "duration": 0.0318181818181813,
                "tempo": 120.0
            },
            {
                "start_time": 34.63409090909091,
                "end_time": 34.66590909090909,
                "pitch": 89,
                "velocity": 40,
                "duration": 0.0318181818181813,
                "tempo": 120.0
            },
            {
                "start_time": 34.836363636363636,
                "end_time": 34.86818181818182,
                "pitch": 94,
                "velocity": 40,
                "duration": 0.0318181818181813,
                "tempo": 120.0
            },
            {
                "start_time": 35.038636363636364,
                "end_time": 35.070454545454545,
                "pitch": 90,
                "velocity": 40,
                "duration": 0.0318181818181813,
                "tempo": 120.0
            },
            {
                "start_time": 35.24090909090909,
                "end_time": 35.27272727272727,
                "pitch": 84,
                "velocity": 40,
                "duration": 0.0318181818181813,
                "tempo": 120.0
            },
            {
                "start_time": 35.445454545454545,
                "end_time": 35.475,
                "pitch": 87,
                "velocity": 40,
                "duration": 0.029545454545456096,
                "tempo": 120.0
            },
            {
                "start_time": 35.64545454545454,
                "end_time": 35.679545454545455,
                "pitch": 93,
                "velocity": 40,
                "duration": 0.03409090909091361,
                "tempo": 120.0
            },
            {
                "start_time": 35.85,
                "end_time": 35.88181818181818,
                "pitch": 91,
                "velocity": 40,
                "duration": 0.0318181818181813,
                "tempo": 120.0
            },
            {
                "start_time": 36.054545454545455,
                "end_time": 36.086363636363636,
                "pitch": 95,
                "velocity": 40,
                "duration": 0.0318181818181813,
                "tempo": 120.0
            },
            {
                "start_time": 36.25681818181818,
                "end_time": 36.288636363636364,
                "pitch": 86,
                "velocity": 40,
                "duration": 0.0318181818181813,
                "tempo": 120.0
            },
            {
                "start_time": 36.45454545454545,
                "end_time": 36.48409090909091,
                "pitch": 91,
                "velocity": 40,
                "duration": 0.029545454545456096,
                "tempo": 120.0
            },
            {
                "start_time": 36.64772727272727,
                "end_time": 36.67727272727272,
                "pitch": 85,
                "velocity": 40,
                "duration": 0.02954545454544899,
                "tempo": 120.0
            },
            {
                "start_time": 36.840909090909086,
                "end_time": 36.875,
                "pitch": 88,
                "velocity": 40,
                "duration": 0.03409090909091361,
                "tempo": 120.0
            },
            {
                "start_time": 37.043181818181814,
                "end_time": 37.07727272727273,
                "pitch": 92,
                "velocity": 40,
                "duration": 0.03409090909091361,
                "tempo": 120.0
            },
            {
                "start_time": 37.24545454545454,
                "end_time": 37.279545454545456,
                "pitch": 89,
                "velocity": 40,
                "duration": 0.03409090909091361,
                "tempo": 120.0
            },
            {
                "start_time": 37.44772727272727,
                "end_time": 37.48181818181818,
                "pitch": 94,
                "velocity": 40,
                "duration": 0.03409090909090651,
                "tempo": 120.0
            },
            {
                "start_time": 37.652272727272724,
                "end_time": 37.68636363636364,
                "pitch": 90,
                "velocity": 40,
                "duration": 0.03409090909091361,
                "tempo": 120.0
            },
            {
                "start_time": 37.85681818181818,
                "end_time": 37.89090909090909,
                "pitch": 84,
                "velocity": 40,
                "duration": 0.03409090909091361,
                "tempo": 120.0
            },
            {
                "start_time": 38.06136363636364,
                "end_time": 38.095454545454544,
                "pitch": 87,
                "velocity": 40,
                "duration": 0.03409090909090651,
                "tempo": 120.0
            },
            {
                "start_time": 38.26590909090909,
                "end_time": 38.3,
                "pitch": 93,
                "velocity": 40,
                "duration": 0.03409090909090651,
                "tempo": 120.0
            },
            {
                "start_time": 38.470454545454544,
                "end_time": 38.502272727272725,
                "pitch": 91,
                "velocity": 40,
                "duration": 0.0318181818181813,
                "tempo": 120.0
            },
            {
                "start_time": 38.67727272727272,
                "end_time": 38.70681818181818,
                "pitch": 95,
                "velocity": 40,
                "duration": 0.029545454545456096,
                "tempo": 120.0
            },
            {
                "start_time": 38.877272727272725,
                "end_time": 38.90909090909091,
                "pitch": 86,
                "velocity": 40,
                "duration": 0.0318181818181813,
                "tempo": 120.0
            },
            {
                "start_time": 39.07954545454545,
                "end_time": 39.111363636363635,
                "pitch": 91,
                "velocity": 40,
                "duration": 0.0318181818181813,
                "tempo": 120.0
            },
            {
                "start_time": 39.28181818181818,
                "end_time": 39.31363636363636,
                "pitch": 85,
                "velocity": 40,
                "duration": 0.0318181818181813,
                "tempo": 120.0
            },
            {
                "start_time": 39.47954545454545,
                "end_time": 39.51136363636363,
                "pitch": 88,
                "velocity": 40,
                "duration": 0.0318181818181813,
                "tempo": 120.0
            },
            {
                "start_time": 39.679545454545455,
                "end_time": 39.709090909090904,
                "pitch": 92,
                "velocity": 40,
                "duration": 0.02954545454544899,
                "tempo": 120.0
            },
            {
                "start_time": 39.877272727272725,
                "end_time": 39.90909090909091,
                "pitch": 89,
                "velocity": 40,
                "duration": 0.0318181818181813,
                "tempo": 120.0
            },
            {
                "start_time": 40.07954545454545,
                "end_time": 40.11363636363636,
                "pitch": 94,
                "velocity": 40,
                "duration": 0.03409090909090651,
                "tempo": 120.0
            },
            {
                "start_time": 40.28409090909091,
                "end_time": 40.31818181818181,
                "pitch": 90,
                "velocity": 40,
                "duration": 0.03409090909090651,
                "tempo": 120.0
            },
            {
                "start_time": 40.48863636363636,
                "end_time": 40.52272727272727,
                "pitch": 84,
                "velocity": 40,
                "duration": 0.03409090909091361,
                "tempo": 120.0
            },
            {
                "start_time": 40.69090909090909,
                "end_time": 40.725,
                "pitch": 87,
                "velocity": 40,
                "duration": 0.03409090909091361,
                "tempo": 120.0
            },
            {
                "start_time": 40.893181818181816,
                "end_time": 40.92727272727272,
                "pitch": 93,
                "velocity": 40,
                "duration": 0.03409090909090651,
                "tempo": 120.0
            },
            {
                "start_time": 41.095454545454544,
                "end_time": 41.12954545454545,
                "pitch": 91,
                "velocity": 40,
                "duration": 0.03409090909090651,
                "tempo": 120.0
            },
            {
                "start_time": 41.29772727272727,
                "end_time": 41.33181818181818,
                "pitch": 95,
                "velocity": 40,
                "duration": 0.03409090909090651,
                "tempo": 120.0
            },
            {
                "start_time": 41.5,
                "end_time": 41.53409090909091,
                "pitch": 86,
                "velocity": 40,
                "duration": 0.03409090909090651,
                "tempo": 120.0
            },
            {
                "start_time": 41.70227272727273,
                "end_time": 41.73409090909091,
                "pitch": 91,
                "velocity": 40,
                "duration": 0.0318181818181813,
                "tempo": 120.0
            },
            {
                "start_time": 41.902272727272724,
                "end_time": 41.934090909090905,
                "pitch": 85,
                "velocity": 40,
                "duration": 0.0318181818181813,
                "tempo": 120.0
            },
            {
                "start_time": 42.1,
                "end_time": 42.13181818181818,
                "pitch": 88,
                "velocity": 40,
                "duration": 0.0318181818181813,
                "tempo": 120.0
            },
            {
                "start_time": 42.29772727272727,
                "end_time": 42.32954545454545,
                "pitch": 92,
                "velocity": 40,
                "duration": 0.0318181818181813,
                "tempo": 120.0
            },
            {
                "start_time": 42.5,
                "end_time": 42.53181818181818,
                "pitch": 89,
                "velocity": 40,
                "duration": 0.0318181818181813,
                "tempo": 120.0
            },
            {
                "start_time": 42.70227272727273,
                "end_time": 42.73409090909091,
                "pitch": 94,
                "velocity": 40,
                "duration": 0.0318181818181813,
                "tempo": 120.0
            },
            {
                "start_time": 42.90681818181818,
                "end_time": 42.93636363636364,
                "pitch": 90,
                "velocity": 40,
                "duration": 0.029545454545456096,
                "tempo": 120.0
            },
            {
                "start_time": 43.10681818181818,
                "end_time": 43.13863636363636,
                "pitch": 84,
                "velocity": 40,
                "duration": 0.0318181818181813,
                "tempo": 120.0
            },
            {
                "start_time": 43.309090909090905,
                "end_time": 43.340909090909086,
                "pitch": 87,
                "velocity": 40,
                "duration": 0.0318181818181813,
                "tempo": 120.0
            },
            {
                "start_time": 43.51136363636363,
                "end_time": 43.54545454545455,
                "pitch": 93,
                "velocity": 40,
                "duration": 0.03409090909091361,
                "tempo": 120.0
            },
            {
                "start_time": 43.720454545454544,
                "end_time": 43.75454545454545,
                "pitch": 91,
                "velocity": 40,
                "duration": 0.03409090909090651,
                "tempo": 120.0
            },
            {
                "start_time": 43.92727272727272,
                "end_time": 43.961363636363636,
                "pitch": 95,
                "velocity": 40,
                "duration": 0.03409090909091361,
                "tempo": 120.0
            },
            {
                "start_time": 44.13636363636363,
                "end_time": 44.168181818181814,
                "pitch": 86,
                "velocity": 40,
                "duration": 0.0318181818181813,
                "tempo": 120.0
            },
            {
                "start_time": 44.334090909090904,
                "end_time": 44.36818181818182,
                "pitch": 91,
                "velocity": 40,
                "duration": 0.03409090909091361,
                "tempo": 120.0
            },
            {
                "start_time": 44.53409090909091,
                "end_time": 44.56590909090909,
                "pitch": 85,
                "velocity": 40,
                "duration": 0.0318181818181813,
                "tempo": 120.0
            },
            {
                "start_time": 44.73181818181818,
                "end_time": 44.76363636363636,
                "pitch": 88,
                "velocity": 40,
                "duration": 0.0318181818181813,
                "tempo": 120.0
            },
            {
                "start_time": 44.934090909090905,
                "end_time": 44.965909090909086,
                "pitch": 92,
                "velocity": 40,
                "duration": 0.0318181818181813,
                "tempo": 120.0
            },
            {
                "start_time": 45.13863636363636,
                "end_time": 45.168181818181814,
                "pitch": 89,
                "velocity": 40,
                "duration": 0.029545454545456096,
                "tempo": 120.0
            },
            {
                "start_time": 45.33863636363636,
                "end_time": 45.37272727272727,
                "pitch": 94,
                "velocity": 40,
                "duration": 0.03409090909090651,
                "tempo": 120.0
            },
            {
                "start_time": 45.543181818181814,
                "end_time": 45.574999999999996,
                "pitch": 90,
                "velocity": 40,
                "duration": 0.0318181818181813,
                "tempo": 120.0
            },
            {
                "start_time": 45.74772727272727,
                "end_time": 45.77954545454545,
                "pitch": 84,
                "velocity": 40,
                "duration": 0.0318181818181813,
                "tempo": 120.0
            },
            {
                "start_time": 45.949999999999996,
                "end_time": 45.98409090909091,
                "pitch": 87,
                "velocity": 40,
                "duration": 0.03409090909091361,
                "tempo": 120.0
            },
            {
                "start_time": 46.152272727272724,
                "end_time": 46.18181818181818,
                "pitch": 93,
                "velocity": 40,
                "duration": 0.029545454545456096,
                "tempo": 120.0
            },
            {
                "start_time": 46.34772727272727,
                "end_time": 46.37954545454545,
                "pitch": 91,
                "velocity": 40,
                "duration": 0.0318181818181813,
                "tempo": 120.0
            },
            {
                "start_time": 46.54545454545455,
                "end_time": 46.57954545454545,
                "pitch": 95,
                "velocity": 40,
                "duration": 0.03409090909090651,
                "tempo": 120.0
            },
            {
                "start_time": 46.75454545454545,
                "end_time": 46.788636363636364,
                "pitch": 86,
                "velocity": 40,
                "duration": 0.03409090909091361,
                "tempo": 120.0
            },
            {
                "start_time": 46.961363636363636,
                "end_time": 46.99545454545454,
                "pitch": 91,
                "velocity": 40,
                "duration": 0.03409090909090651,
                "tempo": 120.0
            },
            {
                "start_time": 47.17045454545454,
                "end_time": 47.20227272727273,
                "pitch": 85,
                "velocity": 40,
                "duration": 0.03181818181818841,
                "tempo": 120.0
            },
            {
                "start_time": 47.36590909090909,
                "end_time": 47.39772727272727,
                "pitch": 88,
                "velocity": 40,
                "duration": 0.0318181818181813,
                "tempo": 120.0
            },
            {
                "start_time": 47.559090909090905,
                "end_time": 47.590909090909086,
                "pitch": 92,
                "velocity": 40,
                "duration": 0.0318181818181813,
                "tempo": 120.0
            },
            {
                "start_time": 47.75454545454545,
                "end_time": 47.78636363636363,
                "pitch": 89,
                "velocity": 40,
                "duration": 0.0318181818181813,
                "tempo": 120.0
            },
            {
                "start_time": 47.95681818181818,
                "end_time": 47.98863636363636,
                "pitch": 94,
                "velocity": 40,
                "duration": 0.0318181818181813,
                "tempo": 120.0
            },
            {
                "start_time": 48.15909090909091,
                "end_time": 48.19090909090909,
                "pitch": 90,
                "velocity": 40,
                "duration": 0.0318181818181813,
                "tempo": 120.0
            },
            {
                "start_time": 48.36363636363636,
                "end_time": 48.393181818181816,
                "pitch": 84,
                "velocity": 40,
                "duration": 0.029545454545456096,
                "tempo": 120.0
            },
            {
                "start_time": 48.56136363636364,
                "end_time": 48.59318181818182,
                "pitch": 87,
                "velocity": 40,
                "duration": 0.0318181818181813,
                "tempo": 120.0
            },
            {
                "start_time": 48.76136363636363,
                "end_time": 48.793181818181814,
                "pitch": 93,
                "velocity": 40,
                "duration": 0.0318181818181813,
                "tempo": 120.0
            },
            {
                "start_time": 48.961363636363636,
                "end_time": 48.99545454545454,
                "pitch": 91,
                "velocity": 40,
                "duration": 0.03409090909090651,
                "tempo": 120.0
            },
            {
                "start_time": 49.16590909090909,
                "end_time": 49.199999999999996,
                "pitch": 95,
                "velocity": 40,
                "duration": 0.03409090909090651,
                "tempo": 120.0
            },
            {
                "start_time": 49.37272727272727,
                "end_time": 49.40454545454545,
                "pitch": 86,
                "velocity": 40,
                "duration": 0.0318181818181813,
                "tempo": 120.0
            },
            {
                "start_time": 49.574999999999996,
                "end_time": 49.60681818181818,
                "pitch": 91,
                "velocity": 40,
                "duration": 0.0318181818181813,
                "tempo": 120.0
            },
            {
                "start_time": 49.777272727272724,
                "end_time": 49.809090909090905,
                "pitch": 85,
                "velocity": 40,
                "duration": 0.0318181818181813,
                "tempo": 120.0
            },
            {
                "start_time": 49.97954545454545,
                "end_time": 50.01136363636363,
                "pitch": 88,
                "velocity": 40,
                "duration": 0.0318181818181813,
                "tempo": 120.0
            },
            {
                "start_time": 50.18181818181818,
                "end_time": 50.21363636363636,
                "pitch": 92,
                "velocity": 40,
                "duration": 0.0318181818181813,
                "tempo": 120.0
            },
            {
                "start_time": 50.38409090909091,
                "end_time": 50.41590909090909,
                "pitch": 89,
                "velocity": 40,
                "duration": 0.0318181818181813,
                "tempo": 120.0
            },
            {
                "start_time": 50.586363636363636,
                "end_time": 50.61818181818182,
                "pitch": 94,
                "velocity": 40,
                "duration": 0.0318181818181813,
                "tempo": 120.0
            },
            {
                "start_time": 50.788636363636364,
                "end_time": 50.820454545454545,
                "pitch": 90,
                "velocity": 40,
                "duration": 0.0318181818181813,
                "tempo": 120.0
            },
            {
                "start_time": 50.990909090909085,
                "end_time": 51.02272727272727,
                "pitch": 84,
                "velocity": 40,
                "duration": 0.03181818181818841,
                "tempo": 120.0
            },
            {
                "start_time": 51.19318181818181,
                "end_time": 51.224999999999994,
                "pitch": 87,
                "velocity": 40,
                "duration": 0.0318181818181813,
                "tempo": 120.0
            },
            {
                "start_time": 51.39545454545454,
                "end_time": 51.42727272727272,
                "pitch": 93,
                "velocity": 40,
                "duration": 0.0318181818181813,
                "tempo": 120.0
            },
            {
                "start_time": 51.599999999999994,
                "end_time": 51.62954545454545,
                "pitch": 91,
                "velocity": 40,
                "duration": 0.029545454545456096,
                "tempo": 120.0
            },
            {
                "start_time": 51.8,
                "end_time": 51.83181818181818,
                "pitch": 95,
                "velocity": 40,
                "duration": 0.0318181818181813,
                "tempo": 120.0
            },
            {
                "start_time": 52.002272727272725,
                "end_time": 52.03636363636363,
                "pitch": 86,
                "velocity": 40,
                "duration": 0.03409090909090651,
                "tempo": 120.0
            },
            {
                "start_time": 52.20681818181818,
                "end_time": 52.23863636363636,
                "pitch": 91,
                "velocity": 40,
                "duration": 0.0318181818181813,
                "tempo": 120.0
            },
            {
                "start_time": 52.41136363636363,
                "end_time": 52.44318181818181,
                "pitch": 85,
                "velocity": 40,
                "duration": 0.0318181818181813,
                "tempo": 120.0
            },
            {
                "start_time": 52.61818181818182,
                "end_time": 52.64772727272727,
                "pitch": 88,
                "velocity": 40,
                "duration": 0.029545454545456096,
                "tempo": 120.0
            },
            {
                "start_time": 52.81363636363636,
                "end_time": 52.845454545454544,
                "pitch": 92,
                "velocity": 40,
                "duration": 0.0318181818181813,
                "tempo": 120.0
            },
            {
                "start_time": 53.01136363636363,
                "end_time": 53.043181818181814,
                "pitch": 89,
                "velocity": 40,
                "duration": 0.0318181818181813,
                "tempo": 120.0
            },
            {
                "start_time": 53.209090909090904,
                "end_time": 53.24318181818182,
                "pitch": 94,
                "velocity": 40,
                "duration": 0.03409090909091361,
                "tempo": 120.0
            },
            {
                "start_time": 53.40681818181818,
                "end_time": 53.44090909090909,
                "pitch": 90,
                "velocity": 40,
                "duration": 0.03409090909090651,
                "tempo": 120.0
            },
            {
                "start_time": 53.60681818181818,
                "end_time": 53.63863636363636,
                "pitch": 84,
                "velocity": 40,
                "duration": 0.0318181818181813,
                "tempo": 120.0
            },
            {
                "start_time": 53.804545454545455,
                "end_time": 53.83863636363636,
                "pitch": 87,
                "velocity": 40,
                "duration": 0.03409090909090651,
                "tempo": 120.0
            },
            {
                "start_time": 54.00909090909091,
                "end_time": 54.043181818181814,
                "pitch": 93,
                "velocity": 40,
                "duration": 0.03409090909090651,
                "tempo": 120.0
            },
            {
                "start_time": 54.21363636363636,
                "end_time": 54.24772727272727,
                "pitch": 91,
                "velocity": 40,
                "duration": 0.03409090909090651,
                "tempo": 120.0
            },
            {
                "start_time": 54.418181818181814,
                "end_time": 54.449999999999996,
                "pitch": 95,
                "velocity": 40,
                "duration": 0.0318181818181813,
                "tempo": 120.0
            },
            {
                "start_time": 54.62272727272727,
                "end_time": 54.65454545454545,
                "pitch": 86,
                "velocity": 40,
                "duration": 0.0318181818181813,
                "tempo": 120.0
            },
            {
                "start_time": 54.82954545454545,
                "end_time": 54.85909090909091,
                "pitch": 91,
                "velocity": 40,
                "duration": 0.029545454545456096,
                "tempo": 120.0
            },
            {
                "start_time": 55.03181818181818,
                "end_time": 55.06363636363636,
                "pitch": 85,
                "velocity": 40,
                "duration": 0.0318181818181813,
                "tempo": 120.0
            },
            {
                "start_time": 55.23409090909091,
                "end_time": 55.26590909090909,
                "pitch": 88,
                "velocity": 40,
                "duration": 0.0318181818181813,
                "tempo": 120.0
            },
            {
                "start_time": 55.43636363636363,
                "end_time": 55.46818181818182,
                "pitch": 92,
                "velocity": 40,
                "duration": 0.03181818181818841,
                "tempo": 120.0
            },
            {
                "start_time": 55.63636363636363,
                "end_time": 55.67045454545454,
                "pitch": 89,
                "velocity": 40,
                "duration": 0.03409090909090651,
                "tempo": 120.0
            },
            {
                "start_time": 55.83863636363636,
                "end_time": 55.86818181818182,
                "pitch": 94,
                "velocity": 40,
                "duration": 0.029545454545456096,
                "tempo": 120.0
            },
            {
                "start_time": 56.03409090909091,
                "end_time": 56.06590909090909,
                "pitch": 90,
                "velocity": 40,
                "duration": 0.0318181818181813,
                "tempo": 120.0
            },
            {
                "start_time": 56.23181818181818,
                "end_time": 56.26590909090909,
                "pitch": 84,
                "velocity": 40,
                "duration": 0.03409090909091361,
                "tempo": 120.0
            },
            {
                "start_time": 56.43636363636363,
                "end_time": 56.470454545454544,
                "pitch": 87,
                "velocity": 40,
                "duration": 0.03409090909091361,
                "tempo": 120.0
            },
            {
                "start_time": 56.64090909090909,
                "end_time": 56.675,
                "pitch": 93,
                "velocity": 40,
                "duration": 0.03409090909090651,
                "tempo": 120.0
            },
            {
                "start_time": 56.845454545454544,
                "end_time": 56.877272727272725,
                "pitch": 91,
                "velocity": 40,
                "duration": 0.0318181818181813,
                "tempo": 120.0
            },
            {
                "start_time": 57.04772727272727,
                "end_time": 57.07954545454545,
                "pitch": 95,
                "velocity": 40,
                "duration": 0.0318181818181813,
                "tempo": 120.0
            },
            {
                "start_time": 57.25,
                "end_time": 57.28181818181818,
                "pitch": 86,
                "velocity": 40,
                "duration": 0.0318181818181813,
                "tempo": 120.0
            },
            {
                "start_time": 57.45227272727272,
                "end_time": 57.486363636363635,
                "pitch": 91,
                "velocity": 40,
                "duration": 0.03409090909091361,
                "tempo": 120.0
            },
            {
                "start_time": 57.65454545454545,
                "end_time": 57.68636363636363,
                "pitch": 85,
                "velocity": 40,
                "duration": 0.0318181818181813,
                "tempo": 120.0
            },
            {
                "start_time": 57.85681818181818,
                "end_time": 57.89090909090909,
                "pitch": 88,
                "velocity": 40,
                "duration": 0.03409090909091361,
                "tempo": 120.0
            },
            {
                "start_time": 58.06136363636363,
                "end_time": 58.090909090909086,
                "pitch": 92,
                "velocity": 40,
                "duration": 0.029545454545456096,
                "tempo": 120.0
            },
            {
                "start_time": 58.256818181818176,
                "end_time": 58.288636363636364,
                "pitch": 89,
                "velocity": 40,
                "duration": 0.03181818181818841,
                "tempo": 120.0
            },
            {
                "start_time": 58.45454545454545,
                "end_time": 58.48863636363636,
                "pitch": 94,
                "velocity": 40,
                "duration": 0.03409090909090651,
                "tempo": 120.0
            },
            {
                "start_time": 58.65454545454545,
                "end_time": 58.68636363636363,
                "pitch": 90,
                "velocity": 40,
                "duration": 0.0318181818181813,
                "tempo": 120.0
            },
            {
                "start_time": 58.85227272727273,
                "end_time": 58.88409090909091,
                "pitch": 84,
                "velocity": 40,
                "duration": 0.0318181818181813,
                "tempo": 120.0
            },
            {
                "start_time": 59.05227272727272,
                "end_time": 59.08181818181818,
                "pitch": 87,
                "velocity": 40,
                "duration": 0.029545454545456096,
                "tempo": 120.0
            },
            {
                "start_time": 59.25,
                "end_time": 59.28181818181818,
                "pitch": 93,
                "velocity": 40,
                "duration": 0.0318181818181813,
                "tempo": 120.0
            },
            {
                "start_time": 59.45681818181818,
                "end_time": 59.490909090909085,
                "pitch": 91,
                "velocity": 40,
                "duration": 0.03409090909090651,
                "tempo": 120.0
            },
            {
                "start_time": 59.66590909090909,
                "end_time": 59.699999999999996,
                "pitch": 95,
                "velocity": 40,
                "duration": 0.03409090909090651,
                "tempo": 120.0
            },
            {
                "start_time": 59.875,
                "end_time": 59.90681818181818,
                "pitch": 86,
                "velocity": 40,
                "duration": 0.0318181818181813,
                "tempo": 120.0
            },
            {
                "start_time": 60.07954545454545,
                "end_time": 60.111363636363635,
                "pitch": 91,
                "velocity": 40,
                "duration": 0.0318181818181813,
                "tempo": 120.0
            },
            {
                "start_time": 60.28409090909091,
                "end_time": 60.31590909090909,
                "pitch": 85,
                "velocity": 40,
                "duration": 0.0318181818181813,
                "tempo": 120.0
            },
            {
                "start_time": 60.48863636363636,
                "end_time": 60.52045454545454,
                "pitch": 88,
                "velocity": 40,
                "duration": 0.0318181818181813,
                "tempo": 120.0
            },
            {
                "start_time": 60.68636363636363,
                "end_time": 60.71818181818182,
                "pitch": 92,
                "velocity": 40,
                "duration": 0.03181818181818841,
                "tempo": 120.0
            },
            {
                "start_time": 60.88409090909091,
                "end_time": 60.91590909090909,
                "pitch": 89,
                "velocity": 40,
                "duration": 0.0318181818181813,
                "tempo": 120.0
            },
            {
                "start_time": 61.08181818181818,
                "end_time": 61.115909090909085,
                "pitch": 94,
                "velocity": 40,
                "duration": 0.03409090909090651,
                "tempo": 120.0
            },
            {
                "start_time": 61.28636363636363,
                "end_time": 61.31818181818181,
                "pitch": 90,
                "velocity": 40,
                "duration": 0.0318181818181813,
                "tempo": 120.0
            },
            {
                "start_time": 61.486363636363635,
                "end_time": 61.52045454545454,
                "pitch": 84,
                "velocity": 40,
                "duration": 0.03409090909090651,
                "tempo": 120.0
            },
            {
                "start_time": 61.68863636363636,
                "end_time": 61.72272727272727,
                "pitch": 87,
                "velocity": 40,
                "duration": 0.03409090909090651,
                "tempo": 120.0
            },
            {
                "start_time": 61.893181818181816,
                "end_time": 61.92727272727272,
                "pitch": 93,
                "velocity": 40,
                "duration": 0.03409090909090651,
                "tempo": 120.0
            },
            {
                "start_time": 62.09772727272727,
                "end_time": 62.131818181818176,
                "pitch": 91,
                "velocity": 40,
                "duration": 0.03409090909090651,
                "tempo": 120.0
            },
            {
                "start_time": 62.304545454545455,
                "end_time": 62.334090909090904,
                "pitch": 95,
                "velocity": 40,
                "duration": 0.02954545454544899,
                "tempo": 120.0
            },
            {
                "start_time": 62.5,
                "end_time": 62.53181818181818,
                "pitch": 86,
                "velocity": 40,
                "duration": 0.0318181818181813,
                "tempo": 120.0
            },
            {
                "start_time": 62.69772727272727,
                "end_time": 62.73181818181818,
                "pitch": 91,
                "velocity": 40,
                "duration": 0.03409090909090651,
                "tempo": 120.0
            },
            {
                "start_time": 62.897727272727266,
                "end_time": 62.929545454545455,
                "pitch": 85,
                "velocity": 40,
                "duration": 0.03181818181818841,
                "tempo": 120.0
            },
            {
                "start_time": 63.10227272727273,
                "end_time": 63.13409090909091,
                "pitch": 88,
                "velocity": 40,
                "duration": 0.0318181818181813,
                "tempo": 120.0
            },
            {
                "start_time": 63.304545454545455,
                "end_time": 63.33863636363636,
                "pitch": 92,
                "velocity": 40,
                "duration": 0.03409090909090651,
                "tempo": 120.0
            },
            {
                "start_time": 63.50909090909091,
                "end_time": 63.54090909090909,
                "pitch": 89,
                "velocity": 40,
                "duration": 0.0318181818181813,
                "tempo": 120.0
            },
            {
                "start_time": 63.70681818181818,
                "end_time": 63.740909090909085,
                "pitch": 94,
                "velocity": 40,
                "duration": 0.03409090909090651,
                "tempo": 120.0
            },
            {
                "start_time": 63.90681818181818,
                "end_time": 63.93863636363636,
                "pitch": 90,
                "velocity": 40,
                "duration": 0.0318181818181813,
                "tempo": 120.0
            },
            {
                "start_time": 64.10454545454544,
                "end_time": 64.13863636363637,
                "pitch": 84,
                "velocity": 40,
                "duration": 0.03409090909092072,
                "tempo": 120.0
            },
            {
                "start_time": 64.30681818181817,
                "end_time": 64.3409090909091,
                "pitch": 87,
                "velocity": 40,
                "duration": 0.03409090909092072,
                "tempo": 120.0
            },
            {
                "start_time": 64.51136363636364,
                "end_time": 64.54318181818182,
                "pitch": 93,
                "velocity": 40,
                "duration": 0.0318181818181813,
                "tempo": 120.0
            },
            {
                "start_time": 64.71136363636363,
                "end_time": 64.74318181818181,
                "pitch": 91,
                "velocity": 40,
                "duration": 0.0318181818181813,
                "tempo": 120.0
            },
            {
                "start_time": 64.91136363636363,
                "end_time": 64.94318181818181,
                "pitch": 95,
                "velocity": 40,
                "duration": 0.0318181818181813,
                "tempo": 120.0
            },
            {
                "start_time": 65.11136363636363,
                "end_time": 65.14545454545454,
                "pitch": 86,
                "velocity": 40,
                "duration": 0.03409090909090651,
                "tempo": 120.0
            },
            {
                "start_time": 65.31136363636364,
                "end_time": 65.34545454545454,
                "pitch": 91,
                "velocity": 40,
                "duration": 0.03409090909090651,
                "tempo": 120.0
            },
            {
                "start_time": 65.51818181818182,
                "end_time": 65.55,
                "pitch": 85,
                "velocity": 40,
                "duration": 0.0318181818181813,
                "tempo": 120.0
            },
            {
                "start_time": 65.72045454545454,
                "end_time": 65.75454545454545,
                "pitch": 88,
                "velocity": 40,
                "duration": 0.03409090909090651,
                "tempo": 120.0
            },
            {
                "start_time": 65.925,
                "end_time": 65.9590909090909,
                "pitch": 92,
                "velocity": 40,
                "duration": 0.03409090909090651,
                "tempo": 120.0
            },
            {
                "start_time": 66.12727272727273,
                "end_time": 66.16136363636363,
                "pitch": 89,
                "velocity": 40,
                "duration": 0.03409090909090651,
                "tempo": 120.0
            },
            {
                "start_time": 66.32954545454545,
                "end_time": 66.36363636363636,
                "pitch": 94,
                "velocity": 40,
                "duration": 0.03409090909090651,
                "tempo": 120.0
            },
            {
                "start_time": 66.53181818181818,
                "end_time": 66.56363636363636,
                "pitch": 90,
                "velocity": 40,
                "duration": 0.0318181818181813,
                "tempo": 120.0
            },
            {
                "start_time": 66.73181818181818,
                "end_time": 66.76590909090909,
                "pitch": 84,
                "velocity": 40,
                "duration": 0.03409090909090651,
                "tempo": 120.0
            },
            {
                "start_time": 66.93181818181817,
                "end_time": 66.9659090909091,
                "pitch": 87,
                "velocity": 40,
                "duration": 0.03409090909092072,
                "tempo": 120.0
            },
            {
                "start_time": 67.13181818181818,
                "end_time": 67.16590909090908,
                "pitch": 93,
                "velocity": 40,
                "duration": 0.03409090909090651,
                "tempo": 120.0
            },
            {
                "start_time": 67.3340909090909,
                "end_time": 67.36818181818181,
                "pitch": 91,
                "velocity": 40,
                "duration": 0.03409090909090651,
                "tempo": 120.0
            },
            {
                "start_time": 67.53636363636363,
                "end_time": 67.57045454545454,
                "pitch": 95,
                "velocity": 40,
                "duration": 0.03409090909090651,
                "tempo": 120.0
            },
            {
                "start_time": 67.74318181818181,
                "end_time": 67.77272727272727,
                "pitch": 86,
                "velocity": 40,
                "duration": 0.029545454545456096,
                "tempo": 120.0
            },
            {
                "start_time": 67.94090909090909,
                "end_time": 67.97272727272727,
                "pitch": 91,
                "velocity": 40,
                "duration": 0.0318181818181813,
                "tempo": 120.0
            },
            {
                "start_time": 68.14090909090909,
                "end_time": 68.17272727272727,
                "pitch": 85,
                "velocity": 40,
                "duration": 0.0318181818181813,
                "tempo": 120.0
            },
            {
                "start_time": 68.3409090909091,
                "end_time": 68.37272727272727,
                "pitch": 88,
                "velocity": 40,
                "duration": 0.0318181818181813,
                "tempo": 120.0
            },
            {
                "start_time": 68.54090909090908,
                "end_time": 68.57272727272726,
                "pitch": 92,
                "velocity": 40,
                "duration": 0.0318181818181813,
                "tempo": 120.0
            },
            {
                "start_time": 68.74318181818181,
                "end_time": 68.77272727272727,
                "pitch": 89,
                "velocity": 40,
                "duration": 0.029545454545456096,
                "tempo": 120.0
            },
            {
                "start_time": 68.94090909090909,
                "end_time": 68.97272727272727,
                "pitch": 94,
                "velocity": 40,
                "duration": 0.0318181818181813,
                "tempo": 120.0
            },
            {
                "start_time": 69.13863636363637,
                "end_time": 69.17272727272727,
                "pitch": 90,
                "velocity": 40,
                "duration": 0.03409090909090651,
                "tempo": 120.0
            },
            {
                "start_time": 69.33863636363635,
                "end_time": 69.37045454545454,
                "pitch": 84,
                "velocity": 40,
                "duration": 0.0318181818181813,
                "tempo": 120.0
            },
            {
                "start_time": 69.53636363636363,
                "end_time": 69.56818181818181,
                "pitch": 87,
                "velocity": 40,
                "duration": 0.0318181818181813,
                "tempo": 120.0
            },
            {
                "start_time": 69.74090909090908,
                "end_time": 69.77272727272727,
                "pitch": 93,
                "velocity": 40,
                "duration": 0.0318181818181813,
                "tempo": 120.0
            },
            {
                "start_time": 69.94545454545454,
                "end_time": 69.97727272727272,
                "pitch": 91,
                "velocity": 40,
                "duration": 0.0318181818181813,
                "tempo": 120.0
            },
            {
                "start_time": 70.14772727272727,
                "end_time": 70.18181818181817,
                "pitch": 95,
                "velocity": 40,
                "duration": 0.03409090909090651,
                "tempo": 120.0
            },
            {
                "start_time": 70.35,
                "end_time": 70.3840909090909,
                "pitch": 86,
                "velocity": 40,
                "duration": 0.03409090909090651,
                "tempo": 120.0
            },
            {
                "start_time": 70.55227272727272,
                "end_time": 70.58636363636363,
                "pitch": 91,
                "velocity": 40,
                "duration": 0.03409090909090651,
                "tempo": 120.0
            },
            {
                "start_time": 70.75454545454545,
                "end_time": 70.78863636363636,
                "pitch": 85,
                "velocity": 40,
                "duration": 0.03409090909090651,
                "tempo": 120.0
            },
            {
                "start_time": 70.96363636363635,
                "end_time": 70.99318181818181,
                "pitch": 88,
                "velocity": 40,
                "duration": 0.029545454545456096,
                "tempo": 120.0
            },
            {
                "start_time": 71.16363636363636,
                "end_time": 71.19772727272726,
                "pitch": 92,
                "velocity": 40,
                "duration": 0.03409090909090651,
                "tempo": 120.0
            },
            {
                "start_time": 71.36818181818181,
                "end_time": 71.40227272727273,
                "pitch": 89,
                "velocity": 40,
                "duration": 0.03409090909092072,
                "tempo": 120.0
            },
            {
                "start_time": 71.56818181818181,
                "end_time": 71.60227272727272,
                "pitch": 94,
                "velocity": 40,
                "duration": 0.03409090909090651,
                "tempo": 120.0
            },
            {
                "start_time": 71.76818181818182,
                "end_time": 71.80227272727272,
                "pitch": 90,
                "velocity": 40,
                "duration": 0.03409090909090651,
                "tempo": 120.0
            },
            {
                "start_time": 71.97045454545454,
                "end_time": 72.00227272727273,
                "pitch": 84,
                "velocity": 40,
                "duration": 0.0318181818181813,
                "tempo": 120.0
            },
            {
                "start_time": 72.16818181818182,
                "end_time": 72.2,
                "pitch": 87,
                "velocity": 40,
                "duration": 0.0318181818181813,
                "tempo": 120.0
            },
            {
                "start_time": 72.36590909090908,
                "end_time": 72.39772727272727,
                "pitch": 93,
                "velocity": 40,
                "duration": 0.0318181818181813,
                "tempo": 120.0
            },
            {
                "start_time": 72.56363636363636,
                "end_time": 72.59772727272727,
                "pitch": 91,
                "velocity": 40,
                "duration": 0.03409090909090651,
                "tempo": 120.0
            },
            {
                "start_time": 72.76818181818182,
                "end_time": 72.80227272727272,
                "pitch": 95,
                "velocity": 40,
                "duration": 0.03409090909090651,
                "tempo": 120.0
            },
            {
                "start_time": 72.97272727272727,
                "end_time": 73.00681818181818,
                "pitch": 86,
                "velocity": 40,
                "duration": 0.03409090909090651,
                "tempo": 120.0
            },
            {
                "start_time": 73.17727272727272,
                "end_time": 73.2090909090909,
                "pitch": 91,
                "velocity": 40,
                "duration": 0.0318181818181813,
                "tempo": 120.0
            },
            {
                "start_time": 73.37727272727273,
                "end_time": 73.41136363636363,
                "pitch": 85,
                "velocity": 40,
                "duration": 0.03409090909090651,
                "tempo": 120.0
            },
            {
                "start_time": 73.57727272727273,
                "end_time": 73.61136363636363,
                "pitch": 88,
                "velocity": 40,
                "duration": 0.03409090909090651,
                "tempo": 120.0
            },
            {
                "start_time": 73.77727272727272,
                "end_time": 73.81136363636364,
                "pitch": 92,
                "velocity": 40,
                "duration": 0.03409090909092072,
                "tempo": 120.0
            },
            {
                "start_time": 73.97954545454544,
                "end_time": 74.01363636363637,
                "pitch": 89,
                "velocity": 40,
                "duration": 0.03409090909092072,
                "tempo": 120.0
            },
            {
                "start_time": 74.18636363636364,
                "end_time": 74.2159090909091,
                "pitch": 94,
                "velocity": 40,
                "duration": 0.029545454545456096,
                "tempo": 120.0
            },
            {
                "start_time": 74.3840909090909,
                "end_time": 74.41818181818182,
                "pitch": 90,
                "velocity": 40,
                "duration": 0.03409090909092072,
                "tempo": 120.0
            },
            {
                "start_time": 74.58181818181818,
                "end_time": 74.61590909090908,
                "pitch": 84,
                "velocity": 40,
                "duration": 0.03409090909090651,
                "tempo": 120.0
            },
            {
                "start_time": 74.78181818181818,
                "end_time": 74.81363636363636,
                "pitch": 87,
                "velocity": 40,
                "duration": 0.0318181818181813,
                "tempo": 120.0
            },
            {
                "start_time": 74.97954545454544,
                "end_time": 75.01363636363637,
                "pitch": 93,
                "velocity": 40,
                "duration": 0.03409090909092072,
                "tempo": 120.0
            },
            {
                "start_time": 75.18409090909091,
                "end_time": 75.2159090909091,
                "pitch": 91,
                "velocity": 40,
                "duration": 0.0318181818181813,
                "tempo": 120.0
            },
            {
                "start_time": 75.3840909090909,
                "end_time": 75.41818181818182,
                "pitch": 95,
                "velocity": 40,
                "duration": 0.03409090909092072,
                "tempo": 120.0
            },
            {
                "start_time": 75.58636363636363,
                "end_time": 75.62045454545454,
                "pitch": 86,
                "velocity": 40,
                "duration": 0.03409090909090651,
                "tempo": 120.0
            },
            {
                "start_time": 75.79090909090908,
                "end_time": 75.825,
                "pitch": 91,
                "velocity": 40,
                "duration": 0.03409090909092072,
                "tempo": 120.0
            },
            {
                "start_time": 75.99545454545454,
                "end_time": 76.02954545454546,
                "pitch": 85,
                "velocity": 40,
                "duration": 0.03409090909092072,
                "tempo": 120.0
            }
        ],
        "Acoustic Bass": [
            {
                "start_time": 0.004545454545454545,
                "end_time": 0.6,
                "pitch": 35,
                "velocity": 127,
                "duration": 0.5954545454545455,
                "tempo": 120.0
            },
            {
                "start_time": 0.6,
                "end_time": 1.2,
                "pitch": 35,
                "velocity": 127,
                "duration": 0.6,
                "tempo": 120.0
            },
            {
                "start_time": 1.768181818181818,
                "end_time": 1.9727272727272727,
                "pitch": 35,
                "velocity": 127,
                "duration": 0.20454545454545459,
                "tempo": 120.0
            },
            {
                "start_time": 1.9727272727272727,
                "end_time": 2.175,
                "pitch": 35,
                "velocity": 101,
                "duration": 0.20227272727272716,
                "tempo": 120.0
            },
            {
                "start_time": 2.1772727272727272,
                "end_time": 2.3795454545454544,
                "pitch": 35,
                "velocity": 101,
                "duration": 0.20227272727272716,
                "tempo": 120.0
            },
            {
                "start_time": 2.381818181818182,
                "end_time": 2.993181818181818,
                "pitch": 35,
                "velocity": 127,
                "duration": 0.6113636363636363,
                "tempo": 120.0
            },
            {
                "start_time": 2.993181818181818,
                "end_time": 3.6227272727272726,
                "pitch": 35,
                "velocity": 127,
                "duration": 0.6295454545454544,
                "tempo": 120.0
            },
            {
                "start_time": 5.425,
                "end_time": 6.029545454545454,
                "pitch": 35,
                "velocity": 127,
                "duration": 0.6045454545454545,
                "tempo": 120.0
            },
            {
                "start_time": 6.029545454545454,
                "end_time": 6.640909090909091,
                "pitch": 35,
                "velocity": 127,
                "duration": 0.6113636363636363,
                "tempo": 120.0
            },
            {
                "start_time": 7.225,
                "end_time": 7.431818181818182,
                "pitch": 35,
                "velocity": 127,
                "duration": 0.206818181818182,
                "tempo": 120.0
            },
            {
                "start_time": 7.431818181818182,
                "end_time": 7.634090909090909,
                "pitch": 35,
                "velocity": 101,
                "duration": 0.20227272727272716,
                "tempo": 120.0
            },
            {
                "start_time": 7.634090909090909,
                "end_time": 7.838636363636363,
                "pitch": 35,
                "velocity": 101,
                "duration": 0.20454545454545414,
                "tempo": 120.0
            },
            {
                "start_time": 7.838636363636363,
                "end_time": 8.434090909090909,
                "pitch": 35,
                "velocity": 127,
                "duration": 0.5954545454545457,
                "tempo": 120.0
            },
            {
                "start_time": 8.434090909090909,
                "end_time": 9.061363636363636,
                "pitch": 35,
                "velocity": 127,
                "duration": 0.627272727272727,
                "tempo": 120.0
            },
            {
                "start_time": 10.843181818181817,
                "end_time": 11.454545454545453,
                "pitch": 35,
                "velocity": 127,
                "duration": 0.6113636363636363,
                "tempo": 120.0
            },
            {
                "start_time": 11.456818181818182,
                "end_time": 12.070454545454545,
                "pitch": 35,
                "velocity": 127,
                "duration": 0.6136363636363633,
                "tempo": 120.0
            },
            {
                "start_time": 12.656818181818181,
                "end_time": 12.85909090909091,
                "pitch": 35,
                "velocity": 127,
                "duration": 0.20227272727272805,
                "tempo": 120.0
            },
            {
                "start_time": 12.85909090909091,
                "end_time": 13.056818181818182,
                "pitch": 35,
                "velocity": 101,
                "duration": 0.1977272727272723,
                "tempo": 120.0
            },
            {
                "start_time": 13.056818181818182,
                "end_time": 13.259090909090908,
                "pitch": 35,
                "velocity": 101,
                "duration": 0.20227272727272627,
                "tempo": 120.0
            },
            {
                "start_time": 13.259090909090908,
                "end_time": 13.86590909090909,
                "pitch": 35,
                "velocity": 127,
                "duration": 0.6068181818181824,
                "tempo": 120.0
            },
            {
                "start_time": 13.868181818181817,
                "end_time": 14.48181818181818,
                "pitch": 35,
                "velocity": 127,
                "duration": 0.6136363636363633,
                "tempo": 120.0
            },
            {
                "start_time": 16.268181818181816,
                "end_time": 16.881818181818183,
                "pitch": 35,
                "velocity": 127,
                "duration": 0.6136363636363669,
                "tempo": 120.0
            },
            {
                "start_time": 16.881818181818183,
                "end_time": 17.502272727272725,
                "pitch": 35,
                "velocity": 127,
                "duration": 0.6204545454545425,
                "tempo": 120.0
            },
            {
                "start_time": 18.081818181818182,
                "end_time": 18.286363636363635,
                "pitch": 35,
                "velocity": 127,
                "duration": 0.20454545454545325,
                "tempo": 120.0
            },
            {
                "start_time": 18.286363636363635,
                "end_time": 18.49090909090909,
                "pitch": 35,
                "velocity": 101,
                "duration": 0.20454545454545325,
                "tempo": 120.0
            },
            {
                "start_time": 18.49090909090909,
                "end_time": 18.695454545454545,
                "pitch": 35,
                "velocity": 101,
                "duration": 0.2045454545454568,
                "tempo": 120.0
            },
            {
                "start_time": 18.695454545454545,
                "end_time": 19.304545454545455,
                "pitch": 35,
                "velocity": 127,
                "duration": 0.6090909090909093,
                "tempo": 120.0
            },
            {
                "start_time": 19.304545454545455,
                "end_time": 19.918181818181818,
                "pitch": 35,
                "velocity": 127,
                "duration": 0.6136363636363633,
                "tempo": 120.0
            },
            {
                "start_time": 21.71818181818182,
                "end_time": 22.331818181818182,
                "pitch": 35,
                "velocity": 127,
                "duration": 0.6136363636363633,
                "tempo": 120.0
            },
            {
                "start_time": 22.331818181818182,
                "end_time": 22.94090909090909,
                "pitch": 35,
                "velocity": 127,
                "duration": 0.6090909090909093,
                "tempo": 120.0
            },
            {
                "start_time": 23.536363636363635,
                "end_time": 23.738636363636363,
                "pitch": 35,
                "velocity": 127,
                "duration": 0.20227272727272805,
                "tempo": 120.0
            },
            {
                "start_time": 23.738636363636363,
                "end_time": 23.94090909090909,
                "pitch": 35,
                "velocity": 101,
                "duration": 0.20227272727272805,
                "tempo": 120.0
            },
            {
                "start_time": 23.94090909090909,
                "end_time": 24.14772727272727,
                "pitch": 35,
                "velocity": 101,
                "duration": 0.20681818181817846,
                "tempo": 120.0
            },
            {
                "start_time": 24.14772727272727,
                "end_time": 24.752272727272725,
                "pitch": 35,
                "velocity": 127,
                "duration": 0.6045454545454554,
                "tempo": 120.0
            },
            {
                "start_time": 24.752272727272725,
                "end_time": 25.368181818181817,
                "pitch": 35,
                "velocity": 127,
                "duration": 0.6159090909090921,
                "tempo": 120.0
            },
            {
                "start_time": 27.163636363636364,
                "end_time": 27.775,
                "pitch": 35,
                "velocity": 127,
                "duration": 0.6113636363636346,
                "tempo": 120.0
            },
            {
                "start_time": 27.775,
                "end_time": 28.39090909090909,
                "pitch": 35,
                "velocity": 127,
                "duration": 0.6159090909090921,
                "tempo": 120.0
            },
            {
                "start_time": 28.986363636363635,
                "end_time": 29.188636363636363,
                "pitch": 35,
                "velocity": 127,
                "duration": 0.20227272727272805,
                "tempo": 120.0
            },
            {
                "start_time": 29.188636363636363,
                "end_time": 29.39090909090909,
                "pitch": 35,
                "velocity": 101,
                "duration": 0.20227272727272805,
                "tempo": 120.0
            },
            {
                "start_time": 29.39090909090909,
                "end_time": 29.595454545454544,
                "pitch": 35,
                "velocity": 101,
                "duration": 0.20454545454545325,
                "tempo": 120.0
            },
            {
                "start_time": 29.595454545454544,
                "end_time": 30.190909090909088,
                "pitch": 35,
                "velocity": 127,
                "duration": 0.5954545454545439,
                "tempo": 120.0
            },
            {
                "start_time": 30.190909090909088,
                "end_time": 30.818181818181817,
                "pitch": 35,
                "velocity": 127,
                "duration": 0.6272727272727288,
                "tempo": 120.0
            },
            {
                "start_time": 32.60681818181818,
                "end_time": 33.220454545454544,
                "pitch": 35,
                "velocity": 127,
                "duration": 0.6136363636363669,
                "tempo": 120.0
            },
            {
                "start_time": 33.220454545454544,
                "end_time": 33.840909090909086,
                "pitch": 35,
                "velocity": 127,
                "duration": 0.6204545454545425,
                "tempo": 120.0
            },
            {
                "start_time": 34.43181818181818,
                "end_time": 34.63409090909091,
                "pitch": 35,
                "velocity": 127,
                "duration": 0.20227272727272805,
                "tempo": 120.0
            },
            {
                "start_time": 34.63409090909091,
                "end_time": 34.836363636363636,
                "pitch": 35,
                "velocity": 101,
                "duration": 0.20227272727272805,
                "tempo": 120.0
            },
            {
                "start_time": 34.836363636363636,
                "end_time": 35.038636363636364,
                "pitch": 35,
                "velocity": 101,
                "duration": 0.20227272727272805,
                "tempo": 120.0
            },
            {
                "start_time": 35.038636363636364,
                "end_time": 35.64772727272727,
                "pitch": 35,
                "velocity": 127,
                "duration": 0.6090909090909093,
                "tempo": 120.0
            },
            {
                "start_time": 35.64772727272727,
                "end_time": 36.27272727272727,
                "pitch": 35,
                "velocity": 127,
                "duration": 0.625,
                "tempo": 120.0
            },
            {
                "start_time": 38.06363636363636,
                "end_time": 38.67727272727272,
                "pitch": 35,
                "velocity": 127,
                "duration": 0.6136363636363598,
                "tempo": 120.0
            },
            {
                "start_time": 38.67727272727272,
                "end_time": 39.29772727272727,
                "pitch": 35,
                "velocity": 127,
                "duration": 0.6204545454545496,
                "tempo": 120.0
            },
            {
                "start_time": 39.877272727272725,
                "end_time": 40.08181818181818,
                "pitch": 35,
                "velocity": 127,
                "duration": 0.20454545454545325,
                "tempo": 120.0
            },
            {
                "start_time": 40.08181818181818,
                "end_time": 40.28636363636363,
                "pitch": 35,
                "velocity": 101,
                "duration": 0.20454545454545325,
                "tempo": 120.0
            },
            {
                "start_time": 40.28636363636363,
                "end_time": 40.49090909090909,
                "pitch": 35,
                "velocity": 101,
                "duration": 0.20454545454546036,
                "tempo": 120.0
            },
            {
                "start_time": 40.49090909090909,
                "end_time": 41.09772727272727,
                "pitch": 35,
                "velocity": 127,
                "duration": 0.606818181818177,
                "tempo": 120.0
            },
            {
                "start_time": 41.09772727272727,
                "end_time": 41.71818181818182,
                "pitch": 35,
                "velocity": 127,
                "duration": 0.6204545454545496,
                "tempo": 120.0
            },
            {
                "start_time": 43.51363636363636,
                "end_time": 44.13863636363636,
                "pitch": 35,
                "velocity": 127,
                "duration": 0.625,
                "tempo": 120.0
            },
            {
                "start_time": 44.13863636363636,
                "end_time": 44.74772727272727,
                "pitch": 35,
                "velocity": 127,
                "duration": 0.6090909090909093,
                "tempo": 120.0
            },
            {
                "start_time": 45.340909090909086,
                "end_time": 45.543181818181814,
                "pitch": 35,
                "velocity": 127,
                "duration": 0.20227272727272805,
                "tempo": 120.0
            },
            {
                "start_time": 45.543181818181814,
                "end_time": 45.74772727272727,
                "pitch": 35,
                "velocity": 101,
                "duration": 0.20454545454545325,
                "tempo": 120.0
            },
            {
                "start_time": 45.74772727272727,
                "end_time": 45.95227272727273,
                "pitch": 35,
                "velocity": 101,
                "duration": 0.20454545454546036,
                "tempo": 120.0
            },
            {
                "start_time": 45.95227272727273,
                "end_time": 46.54772727272727,
                "pitch": 35,
                "velocity": 127,
                "duration": 0.5954545454545439,
                "tempo": 120.0
            },
            {
                "start_time": 46.54772727272727,
                "end_time": 47.18636363636364,
                "pitch": 35,
                "velocity": 127,
                "duration": 0.6386363636363654,
                "tempo": 120.0
            },
            {
                "start_time": 48.96363636363636,
                "end_time": 49.57727272727273,
                "pitch": 35,
                "velocity": 127,
                "duration": 0.6136363636363669,
                "tempo": 120.0
            },
            {
                "start_time": 49.57727272727273,
                "end_time": 50.19772727272727,
                "pitch": 35,
                "velocity": 127,
                "duration": 0.6204545454545425,
                "tempo": 120.0
            },
            {
                "start_time": 50.788636363636364,
                "end_time": 50.990909090909085,
                "pitch": 35,
                "velocity": 127,
                "duration": 0.20227272727272094,
                "tempo": 120.0
            },
            {
                "start_time": 50.990909090909085,
                "end_time": 51.19318181818181,
                "pitch": 35,
                "velocity": 101,
                "duration": 0.20227272727272805,
                "tempo": 120.0
            },
            {
                "start_time": 51.19318181818181,
                "end_time": 51.39545454545454,
                "pitch": 35,
                "velocity": 101,
                "duration": 0.20227272727272805,
                "tempo": 120.0
            },
            {
                "start_time": 51.39545454545454,
                "end_time": 52.002272727272725,
                "pitch": 35,
                "velocity": 127,
                "duration": 0.6068181818181841,
                "tempo": 120.0
            },
            {
                "start_time": 52.002272727272725,
                "end_time": 52.63181818181818,
                "pitch": 35,
                "velocity": 127,
                "duration": 0.6295454545454575,
                "tempo": 120.0
            },
            {
                "start_time": 54.418181818181814,
                "end_time": 55.03181818181818,
                "pitch": 35,
                "velocity": 127,
                "duration": 0.6136363636363669,
                "tempo": 120.0
            },
            {
                "start_time": 55.03181818181818,
                "end_time": 55.65454545454545,
                "pitch": 35,
                "velocity": 127,
                "duration": 0.6227272727272677,
                "tempo": 120.0
            },
            {
                "start_time": 56.23409090909091,
                "end_time": 56.43863636363636,
                "pitch": 35,
                "velocity": 127,
                "duration": 0.20454545454545325,
                "tempo": 120.0
            },
            {
                "start_time": 56.43863636363636,
                "end_time": 56.64090909090909,
                "pitch": 35,
                "velocity": 101,
                "duration": 0.20227272727272805,
                "tempo": 120.0
            },
            {
                "start_time": 56.64090909090909,
                "end_time": 56.845454545454544,
                "pitch": 35,
                "velocity": 101,
                "duration": 0.20454545454545325,
                "tempo": 120.0
            },
            {
                "start_time": 56.845454545454544,
                "end_time": 57.45227272727272,
                "pitch": 35,
                "velocity": 127,
                "duration": 0.606818181818177,
                "tempo": 120.0
            },
            {
                "start_time": 57.45454545454545,
                "end_time": 58.074999999999996,
                "pitch": 35,
                "velocity": 127,
                "duration": 0.6204545454545425,
                "tempo": 120.0
            },
            {
                "start_time": 59.875,
                "end_time": 60.48863636363636,
                "pitch": 35,
                "velocity": 127,
                "duration": 0.6136363636363598,
                "tempo": 120.0
            },
            {
                "start_time": 60.48863636363636,
                "end_time": 61.09772727272727,
                "pitch": 35,
                "velocity": 127,
                "duration": 0.6090909090909093,
                "tempo": 120.0
            },
            {
                "start_time": 61.69090909090909,
                "end_time": 61.89545454545454,
                "pitch": 35,
                "velocity": 127,
                "duration": 0.20454545454545325,
                "tempo": 120.0
            },
            {
                "start_time": 61.89545454545454,
                "end_time": 62.09772727272727,
                "pitch": 35,
                "velocity": 101,
                "duration": 0.20227272727272805,
                "tempo": 120.0
            },
            {
                "start_time": 62.09772727272727,
                "end_time": 62.304545454545455,
                "pitch": 35,
                "velocity": 101,
                "duration": 0.20681818181818556,
                "tempo": 120.0
            },
            {
                "start_time": 62.304545454545455,
                "end_time": 62.897727272727266,
                "pitch": 35,
                "velocity": 127,
                "duration": 0.5931818181818116,
                "tempo": 120.0
            },
            {
                "start_time": 62.897727272727266,
                "end_time": 63.525,
                "pitch": 35,
                "velocity": 127,
                "duration": 0.6272727272727323,
                "tempo": 120.0
            },
            {
                "start_time": 65.31363636363636,
                "end_time": 65.92727272727272,
                "pitch": 35,
                "velocity": 127,
                "duration": 0.6136363636363598,
                "tempo": 120.0
            },
            {
                "start_time": 65.92727272727272,
                "end_time": 66.54772727272727,
                "pitch": 35,
                "velocity": 127,
                "duration": 0.6204545454545496,
                "tempo": 120.0
            },
            {
                "start_time": 67.1340909090909,
                "end_time": 67.33636363636363,
                "pitch": 35,
                "velocity": 127,
                "duration": 0.20227272727272805,
                "tempo": 120.0
            },
            {
                "start_time": 67.33636363636363,
                "end_time": 67.53863636363636,
                "pitch": 35,
                "velocity": 101,
                "duration": 0.20227272727272805,
                "tempo": 120.0
            },
            {
                "start_time": 67.53863636363636,
                "end_time": 67.74318181818181,
                "pitch": 35,
                "velocity": 101,
                "duration": 0.20454545454545325,
                "tempo": 120.0
            },
            {
                "start_time": 67.74318181818181,
                "end_time": 68.3409090909091,
                "pitch": 35,
                "velocity": 127,
                "duration": 0.5977272727272833,
                "tempo": 120.0
            },
            {
                "start_time": 68.3409090909091,
                "end_time": 68.95681818181818,
                "pitch": 35,
                "velocity": 127,
                "duration": 0.615909090909085,
                "tempo": 120.0
            },
            {
                "start_time": 70.75681818181818,
                "end_time": 71.37045454545454,
                "pitch": 35,
                "velocity": 127,
                "duration": 0.6136363636363598,
                "tempo": 120.0
            },
            {
                "start_time": 71.37045454545454,
                "end_time": 71.98636363636363,
                "pitch": 35,
                "velocity": 127,
                "duration": 0.6159090909090992,
                "tempo": 120.0
            },
            {
                "start_time": 72.56590909090909,
                "end_time": 72.77045454545454,
                "pitch": 35,
                "velocity": 127,
                "duration": 0.20454545454545325,
                "tempo": 120.0
            },
            {
                "start_time": 72.77045454545454,
                "end_time": 72.97272727272727,
                "pitch": 35,
                "velocity": 101,
                "duration": 0.20227272727272805,
                "tempo": 120.0
            },
            {
                "start_time": 72.975,
                "end_time": 73.17727272727272,
                "pitch": 35,
                "velocity": 101,
                "duration": 0.20227272727272805,
                "tempo": 120.0
            },
            {
                "start_time": 73.17954545454545,
                "end_time": 73.77954545454546,
                "pitch": 35,
                "velocity": 127,
                "duration": 0.6000000000000085,
                "tempo": 120.0
            },
            {
                "start_time": 73.77954545454546,
                "end_time": 74.39999999999999,
                "pitch": 35,
                "velocity": 127,
                "duration": 0.6204545454545354,
                "tempo": 120.0
            }
        ]
    }
}