{
    "track_id": "01 Prologue",
    "mood": "angry",
    "instruments": {
        "Church Organ": [
            {
                "start_time": 0.006818181818181818,
                "end_time": 0.9704545454545455,
                "pitch": 67,
                "velocity": 80,
                "duration": 0.9636363636363636,
                "tempo": 120.0
            },
            {
                "start_time": 1.009090909090909,
                "end_time": 2.9886363636363633,
                "pitch": 69,
                "velocity": 80,
                "duration": 1.9795454545454543,
                "tempo": 120.0
            },
            {
                "start_time": 3.0954545454545452,
                "end_time": 5.175,
                "pitch": 71,
                "velocity": 80,
                "duration": 2.0795454545454546,
                "tempo": 120.0
            },
            {
                "start_time": 5.288636363636363,
                "end_time": 7.370454545454545,
                "pitch": 72,
                "velocity": 80,
                "duration": 2.081818181818182,
                "tempo": 120.0
            },
            {
                "start_time": 7.4818181818181815,
                "end_time": 10.60909090909091,
                "pitch": 74,
                "velocity": 80,
                "duration": 3.127272727272728,
                "tempo": 120.0
            },
            {
                "start_time": 10.71590909090909,
                "end_time": 11.131818181818181,
                "pitch": 72,
                "velocity": 80,
                "duration": 0.415909090909091,
                "tempo": 120.0
            },
            {
                "start_time": 11.236363636363636,
                "end_time": 11.686363636363636,
                "pitch": 71,
                "velocity": 80,
                "duration": 0.4499999999999993,
                "tempo": 120.0
            },
            {
                "start_time": 11.761363636363635,
                "end_time": 32.93636363636364,
                "pitch": 67,
                "velocity": 80,
                "duration": 21.175000000000004,
                "tempo": 120.0
            },
            {
                "start_time": 33.01136363636363,
                "end_time": 33.486363636363635,
                "pitch": 72,
                "velocity": 80,
                "duration": 0.4750000000000014,
                "tempo": 120.0
            },
            {
                "start_time": 33.60227272727273,
                "end_time": 35.02272727272727,
                "pitch": 74,
                "velocity": 80,
                "duration": 1.4204545454545467,
                "tempo": 120.0
            },
            {
                "start_time": 35.08863636363636,
                "end_time": 35.518181818181816,
                "pitch": 72,
                "velocity": 80,
                "duration": 0.4295454545454547,
                "tempo": 120.0
            },
            {
                "start_time": 35.58863636363636,
                "end_time": 37.07954545454545,
                "pitch": 74,
                "velocity": 80,
                "duration": 1.490909090909092,
                "tempo": 120.0
            },
            {
                "start_time": 37.184090909090905,
                "end_time": 37.63636363636363,
                "pitch": 72,
                "velocity": 80,
                "duration": 0.45227272727272805,
                "tempo": 120.0
            },
            {
                "start_time": 37.70909090909091,
                "end_time": 39.25,
                "pitch": 74,
                "velocity": 80,
                "duration": 1.5409090909090892,
                "tempo": 120.0
            },
            {
                "start_time": 39.35909090909091,
                "end_time": 39.788636363636364,
                "pitch": 72,
                "velocity": 80,
                "duration": 0.4295454545454547,
                "tempo": 120.0
            },
            {
                "start_time": 39.902272727272724,
                "end_time": 40.54545454545455,
                "pitch": 71,
                "velocity": 80,
                "duration": 0.643181818181823,
                "tempo": 120.0
            },
            {
                "start_time": 40.61818181818182,
                "end_time": 41.26363636363636,
                "pitch": 69,
                "velocity": 80,
                "duration": 0.6454545454545411,
                "tempo": 120.0
            },
            {
                "start_time": 41.37272727272727,
                "end_time": 41.98409090909091,
                "pitch": 65,
                "velocity": 80,
                "duration": 0.6113636363636417,
                "tempo": 120.0
            },
            {
                "start_time": 42.09772727272727,
                "end_time": 48.236363636363635,
                "pitch": 67,
                "velocity": 80,
                "duration": 6.1386363636363654,
                "tempo": 120.0
            },
            {
                "start_time": 48.28636363636363,
                "end_time": 48.70454545454545,
                "pitch": 67,
                "velocity": 80,
                "duration": 0.41818181818182154,
                "tempo": 120.0
            },
            {
                "start_time": 48.777272727272724,
                "end_time": 49.19318181818181,
                "pitch": 67,
                "velocity": 80,
                "duration": 0.41590909090908923,
                "tempo": 120.0
            },
            {
                "start_time": 49.26590909090909,
                "end_time": 49.70681818181818,
                "pitch": 67,
                "velocity": 80,
                "duration": 0.4409090909090878,
                "tempo": 120.0
            },
            {
                "start_time": 49.76136363636363,
                "end_time": 53.31818181818181,
                "pitch": 65,
                "velocity": 80,
                "duration": 3.55681818181818,
                "tempo": 120.0
            },
            {
                "start_time": 53.37045454545454,
                "end_time": 53.67045454545454,
                "pitch": 65,
                "velocity": 80,
                "duration": 0.29999999999999716,
                "tempo": 120.0
            },
            {
                "start_time": 53.72272727272727,
                "end_time": 54.043181818181814,
                "pitch": 65,
                "velocity": 80,
                "duration": 0.3204545454545453,
                "tempo": 120.0
            },
            {
                "start_time": 54.07954545454545,
                "end_time": 54.418181818181814,
                "pitch": 65,
                "velocity": 80,
                "duration": 0.3386363636363612,
                "tempo": 120.0
            }
        ],
        "Synth Bass 1": [
            {
                "start_time": 58.75909090909091,
                "end_time": 72.20454545454545,
                "pitch": 28,
                "velocity": 127,
                "duration": 13.445454545454545,
                "tempo": 120.0
            }
        ],
        "Violin": [
            {
                "start_time": 7.4795454545454545,
                "end_time": 33.486363636363635,
                "pitch": 67,
                "velocity": 32,
                "duration": 26.00681818181818,
                "tempo": 120.0
            },
            {
                "start_time": 42.09318181818182,
                "end_time": 58.70454545454545,
                "pitch": 67,
                "velocity": 32,
                "duration": 16.611363636363635,
                "tempo": 120.0
            }
        ],
        "Electric Piano 1": [
            {
                "start_time": 126.53636363636363,
                "end_time": 127.98863636363636,
                "pitch": 28,
                "velocity": 127,
                "duration": 1.452272727272728,
                "tempo": 120.0
            },
            {
                "start_time": 127.98863636363636,
                "end_time": 128.725,
                "pitch": 26,
                "velocity": 127,
                "duration": 0.7363636363636346,
                "tempo": 120.0
            },
            {
                "start_time": 128.725,
                "end_time": 129.27954545454546,
                "pitch": 24,
                "velocity": 127,
                "duration": 0.5545454545454618,
                "tempo": 120.0
            },
            {
                "start_time": 129.27954545454546,
                "end_time": 129.28181818181818,
                "pitch": 7,
                "velocity": 127,
                "duration": 0.0022727272727252057,
                "tempo": 120.0
            },
            {
                "start_time": 129.28181818181818,
                "end_time": 130.8068181818182,
                "pitch": 23,
                "velocity": 127,
                "duration": 1.5250000000000057,
                "tempo": 120.0
            },
            {
                "start_time": 130.8068181818182,
                "end_time": 131.04090909090908,
                "pitch": 19,
                "velocity": 127,
                "duration": 0.23409090909089514,
                "tempo": 120.0
            },
            {
                "start_time": 131.04090909090908,
                "end_time": 131.27045454545453,
                "pitch": 18,
                "velocity": 127,
                "duration": 0.22954545454544473,
                "tempo": 120.0
            },
            {
                "start_time": 131.27045454545453,
                "end_time": 131.72045454545454,
                "pitch": 15,
                "velocity": 127,
                "duration": 0.45000000000001705,
                "tempo": 120.0
            }
        ],
        "Acoustic Bass": [
            {
                "start_time": 58.76363636363636,
                "end_time": 58.81136363636363,
                "pitch": 28,
                "velocity": 127,
                "duration": 0.04772727272727195,
                "tempo": 120.0
            },
            {
                "start_time": 58.83181818181818,
                "end_time": 58.865909090909085,
                "pitch": 28,
                "velocity": 127,
                "duration": 0.03409090909090651,
                "tempo": 120.0
            },
            {
                "start_time": 58.88636363636363,
                "end_time": 58.93636363636363,
                "pitch": 30,
                "velocity": 127,
                "duration": 0.04999999999999716,
                "tempo": 120.0
            },
            {
                "start_time": 58.95454545454545,
                "end_time": 58.98863636363636,
                "pitch": 31,
                "velocity": 127,
                "duration": 0.03409090909090651,
                "tempo": 120.0
            },
            {
                "start_time": 59.02272727272727,
                "end_time": 59.05681818181818,
                "pitch": 28,
                "velocity": 127,
                "duration": 0.03409090909090651,
                "tempo": 120.0
            },
            {
                "start_time": 59.074999999999996,
                "end_time": 59.125,
                "pitch": 28,
                "velocity": 127,
                "duration": 0.05000000000000426,
                "tempo": 120.0
            },
            {
                "start_time": 59.143181818181816,
                "end_time": 59.17727272727272,
                "pitch": 34,
                "velocity": 127,
                "duration": 0.03409090909090651,
                "tempo": 120.0
            },
            {
                "start_time": 59.195454545454545,
                "end_time": 59.24545454545454,
                "pitch": 34,
                "velocity": 127,
                "duration": 0.04999999999999716,
                "tempo": 120.0
            }
        ],
        "Vibraphone": [
            {
                "start_time": 72.225,
                "end_time": 72.675,
                "pitch": 67,
                "velocity": 64,
                "duration": 0.45000000000000284,
                "tempo": 120.0
            },
            {
                "start_time": 72.7090909090909,
                "end_time": 73.17045454545455,
                "pitch": 69,
                "velocity": 64,
                "duration": 0.4613636363636431,
                "tempo": 120.0
            },
            {
                "start_time": 73.20454545454545,
                "end_time": 73.65454545454546,
                "pitch": 71,
                "velocity": 64,
                "duration": 0.45000000000000284,
                "tempo": 120.0
            },
            {
                "start_time": 73.67272727272727,
                "end_time": 74.13181818181818,
                "pitch": 72,
                "velocity": 64,
                "duration": 0.45909090909090366,
                "tempo": 120.0
            },
            {
                "start_time": 74.14999999999999,
                "end_time": 74.85227272727272,
                "pitch": 74,
                "velocity": 64,
                "duration": 0.702272727272728,
                "tempo": 120.0
            },
            {
                "start_time": 74.87045454545454,
                "end_time": 74.98636363636363,
                "pitch": 72,
                "velocity": 64,
                "duration": 0.11590909090909918,
                "tempo": 120.0
            },
            {
                "start_time": 75.00454545454545,
                "end_time": 75.10227272727272,
                "pitch": 71,
                "velocity": 64,
                "duration": 0.09772727272726911,
                "tempo": 120.0
            },
            {
                "start_time": 75.12045454545454,
                "end_time": 79.94545454545454,
                "pitch": 67,
                "velocity": 64,
                "duration": 4.825000000000003,
                "tempo": 120.0
            },
            {
                "start_time": 79.96363636363635,
                "end_time": 80.42045454545455,
                "pitch": 67,
                "velocity": 64,
                "duration": 0.45681818181819267,
                "tempo": 120.0
            },
            {
                "start_time": 80.43863636363636,
                "end_time": 80.91590909090908,
                "pitch": 69,
                "velocity": 64,
                "duration": 0.4772727272727195,
                "tempo": 120.0
            },
            {
                "start_time": 80.93409090909091,
                "end_time": 81.39999999999999,
                "pitch": 71,
                "velocity": 64,
                "duration": 0.4659090909090793,
                "tempo": 120.0
            },
            {
                "start_time": 81.41818181818181,
                "end_time": 81.89545454545454,
                "pitch": 72,
                "velocity": 64,
                "duration": 0.47727272727273373,
                "tempo": 120.0
            },
            {
                "start_time": 81.91363636363636,
                "end_time": 82.61818181818181,
                "pitch": 74,
                "velocity": 64,
                "duration": 0.7045454545454533,
                "tempo": 120.0
            },
            {
                "start_time": 82.6340909090909,
                "end_time": 82.73409090909091,
                "pitch": 72,
                "velocity": 64,
                "duration": 0.10000000000000853,
                "tempo": 120.0
            },
            {
                "start_time": 82.75,
                "end_time": 82.85,
                "pitch": 71,
                "velocity": 64,
                "duration": 0.09999999999999432,
                "tempo": 120.0
            },
            {
                "start_time": 82.86818181818181,
                "end_time": 87.57045454545454,
                "pitch": 67,
                "velocity": 64,
                "duration": 4.702272727272728,
                "tempo": 120.0
            },
            {
                "start_time": 87.60454545454544,
                "end_time": 87.70454545454545,
                "pitch": 72,
                "velocity": 64,
                "duration": 0.10000000000000853,
                "tempo": 120.0
            },
            {
                "start_time": 87.72272727272727,
                "end_time": 88.43181818181817,
                "pitch": 74,
                "velocity": 64,
                "duration": 0.7090909090909037,
                "tempo": 120.0
            },
            {
                "start_time": 88.44772727272726,
                "end_time": 88.66136363636363,
                "pitch": 72,
                "velocity": 64,
                "duration": 0.2136363636363683,
                "tempo": 120.0
            },
            {
                "start_time": 88.69545454545454,
                "end_time": 89.40227272727272,
                "pitch": 74,
                "velocity": 64,
                "duration": 0.7068181818181785,
                "tempo": 120.0
            },
            {
                "start_time": 89.42045454545455,
                "end_time": 89.63181818181818,
                "pitch": 72,
                "velocity": 64,
                "duration": 0.21136363636362887,
                "tempo": 120.0
            },
            {
                "start_time": 89.64999999999999,
                "end_time": 90.35681818181818,
                "pitch": 74,
                "velocity": 64,
                "duration": 0.7068181818181927,
                "tempo": 120.0
            },
            {
                "start_time": 90.39090909090909,
                "end_time": 90.60454545454544,
                "pitch": 72,
                "velocity": 64,
                "duration": 0.21363636363635408,
                "tempo": 120.0
            },
            {
                "start_time": 90.62045454545454,
                "end_time": 90.92727272727272,
                "pitch": 71,
                "velocity": 64,
                "duration": 0.306818181818187,
                "tempo": 120.0
            },
            {
                "start_time": 90.94545454545454,
                "end_time": 91.25,
                "pitch": 69,
                "velocity": 64,
                "duration": 0.3045454545454618,
                "tempo": 120.0
            },
            {
                "start_time": 91.26818181818182,
                "end_time": 91.57045454545454,
                "pitch": 65,
                "velocity": 64,
                "duration": 0.30227272727272236,
                "tempo": 120.0
            },
            {
                "start_time": 91.60454545454544,
                "end_time": 95.46363636363635,
                "pitch": 67,
                "velocity": 64,
                "duration": 3.8590909090909093,
                "tempo": 120.0
            },
            {
                "start_time": 95.48409090909091,
                "end_time": 95.94090909090909,
                "pitch": 67,
                "velocity": 64,
                "duration": 0.45681818181817846,
                "tempo": 120.0
            },
            {
                "start_time": 95.95681818181818,
                "end_time": 96.42727272727272,
                "pitch": 69,
                "velocity": 64,
                "duration": 0.4704545454545439,
                "tempo": 120.0
            },
            {
                "start_time": 96.44545454545454,
                "end_time": 96.92272727272727,
                "pitch": 71,
                "velocity": 64,
                "duration": 0.47727272727273373,
                "tempo": 120.0
            },
            {
                "start_time": 96.94090909090909,
                "end_time": 97.41136363636363,
                "pitch": 72,
                "velocity": 64,
                "duration": 0.4704545454545439,
                "tempo": 120.0
            },
            {
                "start_time": 97.42954545454545,
                "end_time": 98.13181818181818,
                "pitch": 74,
                "velocity": 64,
                "duration": 0.702272727272728,
                "tempo": 120.0
            },
            {
                "start_time": 98.14772727272727,
                "end_time": 98.24772727272727,
                "pitch": 72,
                "velocity": 64,
                "duration": 0.10000000000000853,
                "tempo": 120.0
            },
            {
                "start_time": 98.26590909090909,
                "end_time": 98.36590909090908,
                "pitch": 71,
                "velocity": 64,
                "duration": 0.09999999999999432,
                "tempo": 120.0
            },
            {
                "start_time": 98.3840909090909,
                "end_time": 103.22727272727272,
                "pitch": 67,
                "velocity": 64,
                "duration": 4.843181818181819,
                "tempo": 120.0
            },
            {
                "start_time": 103.24772727272727,
                "end_time": 103.72272727272727,
                "pitch": 67,
                "velocity": 64,
                "duration": 0.4749999999999943,
                "tempo": 120.0
            },
            {
                "start_time": 103.74090909090908,
                "end_time": 104.19545454545454,
                "pitch": 69,
                "velocity": 64,
                "duration": 0.45454545454545325,
                "tempo": 120.0
            },
            {
                "start_time": 104.22954545454544,
                "end_time": 104.69090909090909,
                "pitch": 71,
                "velocity": 64,
                "duration": 0.4613636363636431,
                "tempo": 120.0
            },
            {
                "start_time": 104.70681818181818,
                "end_time": 105.15681818181818,
                "pitch": 72,
                "velocity": 64,
                "duration": 0.45000000000000284,
                "tempo": 120.0
            },
            {
                "start_time": 105.17272727272727,
                "end_time": 105.88636363636363,
                "pitch": 74,
                "velocity": 64,
                "duration": 0.7136363636363541,
                "tempo": 120.0
            },
            {
                "start_time": 105.92045454545455,
                "end_time": 106.02045454545454,
                "pitch": 72,
                "velocity": 64,
                "duration": 0.09999999999999432,
                "tempo": 120.0
            },
            {
                "start_time": 106.03863636363636,
                "end_time": 106.13863636363637,
                "pitch": 71,
                "velocity": 64,
                "duration": 0.10000000000000853,
                "tempo": 120.0
            },
            {
                "start_time": 106.15681818181818,
                "end_time": 110.86590909090908,
                "pitch": 67,
                "velocity": 64,
                "duration": 4.709090909090904,
                "tempo": 120.0
            },
            {
                "start_time": 110.8840909090909,
                "end_time": 110.98409090909091,
                "pitch": 72,
                "velocity": 64,
                "duration": 0.10000000000000853,
                "tempo": 120.0
            },
            {
                "start_time": 111.00227272727273,
                "end_time": 111.71363636363635,
                "pitch": 74,
                "velocity": 64,
                "duration": 0.7113636363636289,
                "tempo": 120.0
            },
            {
                "start_time": 111.72954545454544,
                "end_time": 111.94772727272726,
                "pitch": 72,
                "velocity": 64,
                "duration": 0.2181818181818187,
                "tempo": 120.0
            },
            {
                "start_time": 111.96590909090908,
                "end_time": 112.67727272727272,
                "pitch": 74,
                "velocity": 64,
                "duration": 0.7113636363636431,
                "tempo": 120.0
            },
            {
                "start_time": 112.69545454545454,
                "end_time": 112.92727272727272,
                "pitch": 72,
                "velocity": 64,
                "duration": 0.23181818181818414,
                "tempo": 120.0
            },
            {
                "start_time": 112.94545454545454,
                "end_time": 113.65681818181818,
                "pitch": 74,
                "velocity": 64,
                "duration": 0.7113636363636431,
                "tempo": 120.0
            },
            {
                "start_time": 113.675,
                "end_time": 113.89090909090909,
                "pitch": 72,
                "velocity": 64,
                "duration": 0.2159090909090935,
                "tempo": 120.0
            },
            {
                "start_time": 113.925,
                "end_time": 114.23181818181817,
                "pitch": 71,
                "velocity": 64,
                "duration": 0.3068181818181728,
                "tempo": 120.0
            },
            {
                "start_time": 114.25,
                "end_time": 114.54772727272727,
                "pitch": 69,
                "velocity": 64,
                "duration": 0.29772727272727195,
                "tempo": 120.0
            },
            {
                "start_time": 114.56363636363636,
                "end_time": 114.85227272727272,
                "pitch": 65,
                "velocity": 64,
                "duration": 0.2886363636363569,
                "tempo": 120.0
            },
            {
                "start_time": 114.87045454545454,
                "end_time": 118.74772727272726,
                "pitch": 67,
                "velocity": 64,
                "duration": 3.877272727272725,
                "tempo": 120.0
            }
        ],
        "Flute": [
            {
                "start_time": 126.5340909090909,
                "end_time": 126.80454545454545,
                "pitch": 28,
                "velocity": 40,
                "duration": 0.27045454545454106,
                "tempo": 120.0
            },
            {
                "start_time": 126.80454545454545,
                "end_time": 126.88636363636363,
                "pitch": 31,
                "velocity": 40,
                "duration": 0.08181818181817846,
                "tempo": 120.0
            },
            {
                "start_time": 126.88636363636363,
                "end_time": 126.9340909090909,
                "pitch": 34,
                "velocity": 40,
                "duration": 0.04772727272727195,
                "tempo": 120.0
            },
            {
                "start_time": 126.9340909090909,
                "end_time": 126.99772727272726,
                "pitch": 36,
                "velocity": 40,
                "duration": 0.0636363636363626,
                "tempo": 120.0
            },
            {
                "start_time": 126.99772727272726,
                "end_time": 127.07954545454545,
                "pitch": 38,
                "velocity": 40,
                "duration": 0.08181818181819267,
                "tempo": 120.0
            },
            {
                "start_time": 126.80454545454545,
                "end_time": 127.22272727272727,
                "pitch": 0,
                "velocity": 40,
                "duration": 0.41818181818182154,
                "tempo": 120.0
            },
            {
                "start_time": 126.9340909090909,
                "end_time": 127.22272727272727,
                "pitch": 40,
                "velocity": 40,
                "duration": 0.28863636363637113,
                "tempo": 120.0
            },
            {
                "start_time": 127.07954545454545,
                "end_time": 127.22272727272727,
                "pitch": 40,
                "velocity": 40,
                "duration": 0.14318181818181586,
                "tempo": 120.0
            },
            {
                "start_time": 127.22272727272727,
                "end_time": 127.35,
                "pitch": 43,
                "velocity": 40,
                "duration": 0.1272727272727252,
                "tempo": 120.0
            },
            {
                "start_time": 127.35,
                "end_time": 127.39999999999999,
                "pitch": 47,
                "velocity": 40,
                "duration": 0.04999999999999716,
                "tempo": 120.0
            },
            {
                "start_time": 127.39999999999999,
                "end_time": 127.49318181818181,
                "pitch": 48,
                "velocity": 40,
                "duration": 0.0931818181818187,
                "tempo": 120.0
            },
            {
                "start_time": 127.49318181818181,
                "end_time": 127.58636363636363,
                "pitch": 50,
                "velocity": 40,
                "duration": 0.0931818181818187,
                "tempo": 120.0
            },
            {
                "start_time": 127.22272727272727,
                "end_time": 127.88636363636363,
                "pitch": 0,
                "velocity": 40,
                "duration": 0.6636363636363569,
                "tempo": 120.0
            },
            {
                "start_time": 127.39999999999999,
                "end_time": 127.88636363636363,
                "pitch": 52,
                "velocity": 40,
                "duration": 0.48636363636363455,
                "tempo": 120.0
            },
            {
                "start_time": 127.58636363636363,
                "end_time": 127.88636363636363,
                "pitch": 52,
                "velocity": 40,
                "duration": 0.29999999999999716,
                "tempo": 120.0
            },
            {
                "start_time": 127.88636363636363,
                "end_time": 128.03863636363636,
                "pitch": 55,
                "velocity": 40,
                "duration": 0.1522727272727309,
                "tempo": 120.0
            },
            {
                "start_time": 128.03863636363636,
                "end_time": 128.22272727272727,
                "pitch": 58,
                "velocity": 40,
                "duration": 0.1840909090909122,
                "tempo": 120.0
            },
            {
                "start_time": 128.22272727272727,
                "end_time": 128.325,
                "pitch": 60,
                "velocity": 40,
                "duration": 0.10227272727271952,
                "tempo": 120.0
            },
            {
                "start_time": 128.325,
                "end_time": 128.40454545454546,
                "pitch": 62,
                "velocity": 40,
                "duration": 0.07954545454546746,
                "tempo": 120.0
            },
            {
                "start_time": 128.22272727272727,
                "end_time": 128.725,
                "pitch": 64,
                "velocity": 40,
                "duration": 0.5022727272727252,
                "tempo": 120.0
            },
            {
                "start_time": 128.40454545454546,
                "end_time": 128.725,
                "pitch": 64,
                "velocity": 40,
                "duration": 0.3204545454545382,
                "tempo": 120.0
            },
            {
                "start_time": 128.725,
                "end_time": 128.83636363636364,
                "pitch": 67,
                "velocity": 40,
                "duration": 0.11136363636364877,
                "tempo": 120.0
            },
            {
                "start_time": 128.83636363636364,
                "end_time": 129.1340909090909,
                "pitch": 70,
                "velocity": 40,
                "duration": 0.29772727272725774,
                "tempo": 120.0
            },
            {
                "start_time": 129.1340909090909,
                "end_time": 129.20681818181816,
                "pitch": 72,
                "velocity": 40,
                "duration": 0.07272727272726343,
                "tempo": 120.0
            },
            {
                "start_time": 129.20681818181816,
                "end_time": 129.27954545454546,
                "pitch": 74,
                "velocity": 40,
                "duration": 0.07272727272729185,
                "tempo": 120.0
            },
            {
                "start_time": 129.1340909090909,
                "end_time": 129.56363636363636,
                "pitch": 76,
                "velocity": 40,
                "duration": 0.4295454545454618,
                "tempo": 120.0
            },
            {
                "start_time": 129.27954545454546,
                "end_time": 129.56363636363636,
                "pitch": 76,
                "velocity": 40,
                "duration": 0.2840909090909065,
                "tempo": 120.0
            },
            {
                "start_time": 129.56363636363636,
                "end_time": 129.7681818181818,
                "pitch": 79,
                "velocity": 40,
                "duration": 0.20454545454543904,
                "tempo": 120.0
            },
            {
                "start_time": 129.7681818181818,
                "end_time": 129.84318181818182,
                "pitch": 82,
                "velocity": 40,
                "duration": 0.07500000000001705,
                "tempo": 120.0
            },
            {
                "start_time": 129.84318181818182,
                "end_time": 130.11136363636362,
                "pitch": 84,
                "velocity": 40,
                "duration": 0.26818181818180165,
                "tempo": 120.0
            }
        ],
        "Clarinet": [
            {
                "start_time": 0.006818181818181818,
                "end_time": 15.893181818181818,
                "pitch": 93,
                "velocity": 40,
                "duration": 15.886363636363637,
                "tempo": 120.0
            },
            {
                "start_time": 24.743181818181817,
                "end_time": 26.188636363636363,
                "pitch": 100,
                "velocity": 40,
                "duration": 1.4454545454545453,
                "tempo": 120.0
            },
            {
                "start_time": 26.188636363636363,
                "end_time": 26.543181818181818,
                "pitch": 98,
                "velocity": 40,
                "duration": 0.3545454545454554,
                "tempo": 120.0
            },
            {
                "start_time": 26.543181818181818,
                "end_time": 26.718181818181815,
                "pitch": 96,
                "velocity": 40,
                "duration": 0.17499999999999716,
                "tempo": 120.0
            },
            {
                "start_time": 26.718181818181815,
                "end_time": 27.424999999999997,
                "pitch": 95,
                "velocity": 40,
                "duration": 0.706818181818182,
                "tempo": 120.0
            },
            {
                "start_time": 27.424999999999997,
                "end_time": 28.345454545454544,
                "pitch": 93,
                "velocity": 40,
                "duration": 0.9204545454545467,
                "tempo": 120.0
            },
            {
                "start_time": 28.345454545454544,
                "end_time": 29.23181818181818,
                "pitch": 90,
                "velocity": 40,
                "duration": 0.8863636363636367,
                "tempo": 120.0
            },
            {
                "start_time": 29.23181818181818,
                "end_time": 29.802272727272726,
                "pitch": 87,
                "velocity": 40,
                "duration": 0.5704545454545453,
                "tempo": 120.0
            },
            {
                "start_time": 29.802272727272726,
                "end_time": 29.99090909090909,
                "pitch": 84,
                "velocity": 40,
                "duration": 0.1886363636363626,
                "tempo": 120.0
            },
            {
                "start_time": 29.99090909090909,
                "end_time": 30.75,
                "pitch": 83,
                "velocity": 40,
                "duration": 0.7590909090909115,
                "tempo": 120.0
            },
            {
                "start_time": 30.75,
                "end_time": 31.545454545454543,
                "pitch": 81,
                "velocity": 40,
                "duration": 0.7954545454545432,
                "tempo": 120.0
            },
            {
                "start_time": 31.545454545454543,
                "end_time": 32.643181818181816,
                "pitch": 78,
                "velocity": 40,
                "duration": 1.0977272727272727,
                "tempo": 120.0
            },
            {
                "start_time": 32.643181818181816,
                "end_time": 33.486363636363635,
                "pitch": 75,
                "velocity": 40,
                "duration": 0.8431818181818187,
                "tempo": 120.0
            },
            {
                "start_time": 33.60227272727273,
                "end_time": 33.929545454545455,
                "pitch": 76,
                "velocity": 40,
                "duration": 0.32727272727272805,
                "tempo": 120.0
            },
            {
                "start_time": 33.929545454545455,
                "end_time": 34.095454545454544,
                "pitch": 81,
                "velocity": 40,
                "duration": 0.16590909090908923,
                "tempo": 120.0
            },
            {
                "start_time": 34.095454545454544,
                "end_time": 34.25909090909091,
                "pitch": 83,
                "velocity": 40,
                "duration": 0.16363636363636402,
                "tempo": 120.0
            },
            {
                "start_time": 34.25909090909091,
                "end_time": 34.26136363636363,
                "pitch": 88,
                "velocity": 40,
                "duration": 0.0022727272727252057,
                "tempo": 120.0
            },
            {
                "start_time": 34.26136363636363,
                "end_time": 34.590909090909086,
                "pitch": 85,
                "velocity": 40,
                "duration": 0.32954545454545325,
                "tempo": 120.0
            },
            {
                "start_time": 34.590909090909086,
                "end_time": 34.92272727272727,
                "pitch": 89,
                "velocity": 40,
                "duration": 0.33181818181818556,
                "tempo": 120.0
            },
            {
                "start_time": 34.92272727272727,
                "end_time": 35.08863636363636,
                "pitch": 93,
                "velocity": 40,
                "duration": 0.16590909090908923,
                "tempo": 120.0
            },
            {
                "start_time": 35.08863636363636,
                "end_time": 35.252272727272725,
                "pitch": 95,
                "velocity": 40,
                "duration": 0.16363636363636402,
                "tempo": 120.0
            },
            {
                "start_time": 35.252272727272725,
                "end_time": 35.25454545454545,
                "pitch": 100,
                "velocity": 40,
                "duration": 0.0022727272727252057,
                "tempo": 120.0
            },
            {
                "start_time": 35.25454545454545,
                "end_time": 35.58863636363636,
                "pitch": 97,
                "velocity": 40,
                "duration": 0.33409090909091077,
                "tempo": 120.0
            },
            {
                "start_time": 35.58863636363636,
                "end_time": 35.75681818181818,
                "pitch": 101,
                "velocity": 40,
                "duration": 0.16818181818182154,
                "tempo": 120.0
            },
            {
                "start_time": 35.75681818181818,
                "end_time": 35.75909090909091,
                "pitch": 7,
                "velocity": 40,
                "duration": 0.0022727272727252057,
                "tempo": 120.0
            },
            {
                "start_time": 35.75909090909091,
                "end_time": 41.98409090909091,
                "pitch": 103,
                "velocity": 40,
                "duration": 6.225000000000001,
                "tempo": 120.0
            },
            {
                "start_time": 54.474999999999994,
                "end_time": 55.163636363636364,
                "pitch": 76,
                "velocity": 40,
                "duration": 0.6886363636363697,
                "tempo": 120.0
            },
            {
                "start_time": 55.163636363636364,
                "end_time": 55.345454545454544,
                "pitch": 74,
                "velocity": 40,
                "duration": 0.18181818181817988,
                "tempo": 120.0
            },
            {
                "start_time": 55.345454545454544,
                "end_time": 55.43636363636363,
                "pitch": 72,
                "velocity": 40,
                "duration": 0.09090909090908639,
                "tempo": 120.0
            },
            {
                "start_time": 55.43636363636363,
                "end_time": 55.809090909090905,
                "pitch": 71,
                "velocity": 40,
                "duration": 0.3727272727272748,
                "tempo": 120.0
            },
            {
                "start_time": 55.809090909090905,
                "end_time": 56.236363636363635,
                "pitch": 69,
                "velocity": 40,
                "duration": 0.42727272727272947,
                "tempo": 120.0
            },
            {
                "start_time": 56.236363636363635,
                "end_time": 56.67045454545454,
                "pitch": 66,
                "velocity": 40,
                "duration": 0.4340909090909051,
                "tempo": 120.0
            },
            {
                "start_time": 56.67045454545454,
                "end_time": 56.849999999999994,
                "pitch": 63,
                "velocity": 40,
                "duration": 0.17954545454545467,
                "tempo": 120.0
            },
            {
                "start_time": 56.849999999999994,
                "end_time": 57.05,
                "pitch": 61,
                "velocity": 40,
                "duration": 0.20000000000000284,
                "tempo": 120.0
            },
            {
                "start_time": 57.05,
                "end_time": 57.40909090909091,
                "pitch": 59,
                "velocity": 40,
                "duration": 0.35909090909090935,
                "tempo": 120.0
            },
            {
                "start_time": 57.40909090909091,
                "end_time": 57.76590909090909,
                "pitch": 57,
                "velocity": 40,
                "duration": 0.35681818181818414,
                "tempo": 120.0
            },
            {
                "start_time": 57.76590909090909,
                "end_time": 58.288636363636364,
                "pitch": 54,
                "velocity": 40,
                "duration": 0.5227272727272734,
                "tempo": 120.0
            },
            {
                "start_time": 58.288636363636364,
                "end_time": 58.70454545454545,
                "pitch": 51,
                "velocity": 40,
                "duration": 0.41590909090908923,
                "tempo": 120.0
            },
            {
                "start_time": 118.76818181818182,
                "end_time": 119.70454545454545,
                "pitch": 93,
                "velocity": 40,
                "duration": 0.9363636363636374,
                "tempo": 120.0
            },
            {
                "start_time": 122.64772727272727,
                "end_time": 123.58636363636363,
                "pitch": 93,
                "velocity": 40,
                "duration": 0.9386363636363626,
                "tempo": 120.0
            },
            {
                "start_time": 124.57499999999999,
                "end_time": 124.90454545454544,
                "pitch": 100,
                "velocity": 40,
                "duration": 0.32954545454545325,
                "tempo": 120.0
            },
            {
                "start_time": 124.90454545454544,
                "end_time": 124.99090909090908,
                "pitch": 98,
                "velocity": 40,
                "duration": 0.08636363636364308,
                "tempo": 120.0
            },
            {
                "start_time": 26.718181818181815,
                "end_time": 125.04318181818181,
                "pitch": 80,
                "velocity": 40,
                "duration": 98.32499999999999,
                "tempo": 120.0
            },
            {
                "start_time": 124.99090909090908,
                "end_time": 125.04318181818181,
                "pitch": 96,
                "velocity": 40,
                "duration": 0.052272727272722364,
                "tempo": 120.0
            },
            {
                "start_time": 125.04318181818181,
                "end_time": 125.19545454545454,
                "pitch": 95,
                "velocity": 40,
                "duration": 0.1522727272727309,
                "tempo": 120.0
            },
            {
                "start_time": 125.19545454545454,
                "end_time": 125.39772727272727,
                "pitch": 93,
                "velocity": 40,
                "duration": 0.20227272727272805,
                "tempo": 120.0
            },
            {
                "start_time": 28.345454545454544,
                "end_time": 125.39772727272727,
                "pitch": 102,
                "velocity": 40,
                "duration": 97.05227272727272,
                "tempo": 120.0
            },
            {
                "start_time": 31.545454545454543,
                "end_time": 125.6,
                "pitch": 90,
                "velocity": 40,
                "duration": 94.05454545454545,
                "tempo": 120.0
            },
            {
                "start_time": 125.39772727272727,
                "end_time": 125.6,
                "pitch": 90,
                "velocity": 40,
                "duration": 0.20227272727272805,
                "tempo": 120.0
            },
            {
                "start_time": 125.6,
                "end_time": 125.71818181818182,
                "pitch": 87,
                "velocity": 40,
                "duration": 0.11818181818182438,
                "tempo": 120.0
            },
            {
                "start_time": 29.99090909090909,
                "end_time": 125.76818181818182,
                "pitch": 68,
                "velocity": 40,
                "duration": 95.77727272727273,
                "tempo": 120.0
            },
            {
                "start_time": 125.71818181818182,
                "end_time": 125.76818181818182,
                "pitch": 84,
                "velocity": 40,
                "duration": 0.04999999999999716,
                "tempo": 120.0
            },
            {
                "start_time": 125.76818181818182,
                "end_time": 125.91818181818181,
                "pitch": 83,
                "velocity": 40,
                "duration": 0.14999999999999147,
                "tempo": 120.0
            },
            {
                "start_time": 125.91818181818181,
                "end_time": 126.08863636363635,
                "pitch": 81,
                "velocity": 40,
                "duration": 0.17045454545454675,
                "tempo": 120.0
            },
            {
                "start_time": 56.236363636363635,
                "end_time": 126.32727272727273,
                "pitch": 78,
                "velocity": 40,
                "duration": 70.0909090909091,
                "tempo": 120.0
            },
            {
                "start_time": 126.08863636363635,
                "end_time": 126.32727272727273,
                "pitch": 78,
                "velocity": 40,
                "duration": 0.23863636363637397,
                "tempo": 120.0
            },
            {
                "start_time": 126.32727272727273,
                "end_time": 126.51590909090909,
                "pitch": 75,
                "velocity": 40,
                "duration": 0.1886363636363626,
                "tempo": 120.0
            }
        ],
        "Acoustic Guitar (nylon)": [
            {
                "start_time": 42.095454545454544,
                "end_time": 42.268181818181816,
                "pitch": 89,
                "velocity": 40,
                "duration": 0.17272727272727195,
                "tempo": 120.0
            },
            {
                "start_time": 42.33863636363636,
                "end_time": 42.55,
                "pitch": 93,
                "velocity": 40,
                "duration": 0.21136363636363598,
                "tempo": 120.0
            },
            {
                "start_time": 42.62272727272727,
                "end_time": 42.79772727272727,
                "pitch": 95,
                "velocity": 40,
                "duration": 0.17500000000000426,
                "tempo": 120.0
            },
            {
                "start_time": 42.90454545454545,
                "end_time": 43.08181818181818,
                "pitch": 96,
                "velocity": 40,
                "duration": 0.17727272727272947,
                "tempo": 120.0
            },
            {
                "start_time": 43.152272727272724,
                "end_time": 43.32727272727273,
                "pitch": 89,
                "velocity": 32,
                "duration": 0.17500000000000426,
                "tempo": 120.0
            },
            {
                "start_time": 43.434090909090905,
                "end_time": 43.611363636363635,
                "pitch": 93,
                "velocity": 32,
                "duration": 0.17727272727272947,
                "tempo": 120.0
            },
            {
                "start_time": 43.68181818181818,
                "end_time": 43.893181818181816,
                "pitch": 95,
                "velocity": 32,
                "duration": 0.21136363636363598,
                "tempo": 120.0
            },
            {
                "start_time": 43.965909090909086,
                "end_time": 44.14090909090909,
                "pitch": 96,
                "velocity": 32,
                "duration": 0.17500000000000426,
                "tempo": 120.0
            },
            {
                "start_time": 44.25,
                "end_time": 44.425,
                "pitch": 89,
                "velocity": 32,
                "duration": 0.17499999999999716,
                "tempo": 120.0
            },
            {
                "start_time": 44.49545454545454,
                "end_time": 44.67272727272727,
                "pitch": 93,
                "velocity": 32,
                "duration": 0.17727272727272947,
                "tempo": 120.0
            },
            {
                "start_time": 44.77954545454545,
                "end_time": 44.95454545454545,
                "pitch": 95,
                "velocity": 32,
                "duration": 0.17500000000000426,
                "tempo": 120.0
            },
            {
                "start_time": 45.06136363636364,
                "end_time": 45.23863636363636,
                "pitch": 96,
                "velocity": 32,
                "duration": 0.17727272727272236,
                "tempo": 120.0
            },
            {
                "start_time": 45.309090909090905,
                "end_time": 45.48409090909091,
                "pitch": 89,
                "velocity": 25,
                "duration": 0.17500000000000426,
                "tempo": 120.0
            },
            {
                "start_time": 45.590909090909086,
                "end_time": 45.768181818181816,
                "pitch": 93,
                "velocity": 25,
                "duration": 0.17727272727272947,
                "tempo": 120.0
            },
            {
                "start_time": 45.83863636363636,
                "end_time": 46.01590909090909,
                "pitch": 95,
                "velocity": 25,
                "duration": 0.17727272727272947,
                "tempo": 120.0
            },
            {
                "start_time": 46.12272727272727,
                "end_time": 46.29772727272727,
                "pitch": 96,
                "velocity": 25,
                "duration": 0.17500000000000426,
                "tempo": 120.0
            },
            {
                "start_time": 46.40909090909091,
                "end_time": 46.58181818181818,
                "pitch": 89,
                "velocity": 25,
                "duration": 0.17272727272727195,
                "tempo": 120.0
            },
            {
                "start_time": 46.652272727272724,
                "end_time": 46.82727272727273,
                "pitch": 93,
                "velocity": 25,
                "duration": 0.17500000000000426,
                "tempo": 120.0
            },
            {
                "start_time": 46.934090909090905,
                "end_time": 47.111363636363635,
                "pitch": 95,
                "velocity": 25,
                "duration": 0.17727272727272947,
                "tempo": 120.0
            },
            {
                "start_time": 47.18181818181818,
                "end_time": 47.35909090909091,
                "pitch": 96,
                "velocity": 25,
                "duration": 0.17727272727272947,
                "tempo": 120.0
            },
            {
                "start_time": 47.465909090909086,
                "end_time": 47.64090909090909,
                "pitch": 89,
                "velocity": 20,
                "duration": 0.17500000000000426,
                "tempo": 120.0
            },
            {
                "start_time": 47.74772727272727,
                "end_time": 47.88409090909091,
                "pitch": 93,
                "velocity": 20,
                "duration": 0.13636363636364024,
                "tempo": 120.0
            },
            {
                "start_time": 47.93181818181818,
                "end_time": 48.05,
                "pitch": 95,
                "velocity": 20,
                "duration": 0.11818181818181728,
                "tempo": 120.0
            },
            {
                "start_time": 48.12045454545454,
                "end_time": 48.236363636363635,
                "pitch": 96,
                "velocity": 20,
                "duration": 0.11590909090909207,
                "tempo": 120.0
            },
            {
                "start_time": 48.28409090909091,
                "end_time": 48.4,
                "pitch": 89,
                "velocity": 20,
                "duration": 0.11590909090909207,
                "tempo": 120.0
            },
            {
                "start_time": 48.470454545454544,
                "end_time": 48.58863636363636,
                "pitch": 93,
                "velocity": 20,
                "duration": 0.11818181818181728,
                "tempo": 120.0
            },
            {
                "start_time": 48.65909090909091,
                "end_time": 48.775,
                "pitch": 95,
                "velocity": 20,
                "duration": 0.11590909090909207,
                "tempo": 120.0
            },
            {
                "start_time": 48.824999999999996,
                "end_time": 48.945454545454545,
                "pitch": 96,
                "velocity": 20,
                "duration": 0.12045454545454959,
                "tempo": 120.0
            },
            {
                "start_time": 49.02045454545454,
                "end_time": 49.143181818181816,
                "pitch": 89,
                "velocity": 16,
                "duration": 0.1227272727272748,
                "tempo": 120.0
            },
            {
                "start_time": 49.19318181818181,
                "end_time": 49.31363636363636,
                "pitch": 93,
                "velocity": 16,
                "duration": 0.12045454545454959,
                "tempo": 120.0
            },
            {
                "start_time": 49.38863636363636,
                "end_time": 49.51136363636363,
                "pitch": 95,
                "velocity": 16,
                "duration": 0.1227272727272748,
                "tempo": 120.0
            },
            {
                "start_time": 49.584090909090904,
                "end_time": 49.70681818181818,
                "pitch": 96,
                "velocity": 16,
                "duration": 0.1227272727272748,
                "tempo": 120.0
            }
        ],
        "Lead 2 (sawtooth)": [
            {
                "start_time": 49.75909090909091,
                "end_time": 49.875,
                "pitch": 26,
                "velocity": 25,
                "duration": 0.11590909090909207,
                "tempo": 120.0
            },
            {
                "start_time": 49.945454545454545,
                "end_time": 50.06136363636364,
                "pitch": 26,
                "velocity": 25,
                "duration": 0.11590909090909207,
                "tempo": 120.0
            },
            {
                "start_time": 50.10909090909091,
                "end_time": 50.224999999999994,
                "pitch": 26,
                "velocity": 32,
                "duration": 0.11590909090908497,
                "tempo": 120.0
            },
            {
                "start_time": 50.29772727272727,
                "end_time": 50.599999999999994,
                "pitch": 26,
                "velocity": 40,
                "duration": 0.30227272727272236,
                "tempo": 120.0
            },
            {
                "start_time": 50.64772727272727,
                "end_time": 50.94090909090909,
                "pitch": 26,
                "velocity": 51,
                "duration": 0.29318181818181444,
                "tempo": 120.0
            },
            {
                "start_time": 50.986363636363635,
                "end_time": 51.09772727272727,
                "pitch": 26,
                "velocity": 64,
                "duration": 0.11136363636363455,
                "tempo": 120.0
            },
            {
                "start_time": 51.16590909090909,
                "end_time": 51.277272727272724,
                "pitch": 26,
                "velocity": 64,
                "duration": 0.11136363636363455,
                "tempo": 120.0
            },
            {
                "start_time": 51.345454545454544,
                "end_time": 51.43636363636364,
                "pitch": 26,
                "velocity": 80,
                "duration": 0.09090909090909349,
                "tempo": 120.0
            },
            {
                "start_time": 51.47272727272727,
                "end_time": 51.56136363636364,
                "pitch": 26,
                "velocity": 80,
                "duration": 0.08863636363636829,
                "tempo": 120.0
            },
            {
                "start_time": 51.615909090909085,
                "end_time": 51.845454545454544,
                "pitch": 26,
                "velocity": 101,
                "duration": 0.22954545454545894,
                "tempo": 120.0
            },
            {
                "start_time": 51.88181818181818,
                "end_time": 52.11363636363636,
                "pitch": 26,
                "velocity": 127,
                "duration": 0.23181818181817704,
                "tempo": 120.0
            },
            {
                "start_time": 52.15,
                "end_time": 52.23863636363636,
                "pitch": 26,
                "velocity": 101,
                "duration": 0.08863636363636118,
                "tempo": 120.0
            },
            {
                "start_time": 52.293181818181814,
                "end_time": 52.38181818181818,
                "pitch": 26,
                "velocity": 101,
                "duration": 0.08863636363636829,
                "tempo": 120.0
            },
            {
                "start_time": 52.418181818181814,
                "end_time": 52.525,
                "pitch": 26,
                "velocity": 101,
                "duration": 0.10681818181818414,
                "tempo": 120.0
            },
            {
                "start_time": 52.559090909090905,
                "end_time": 52.64772727272727,
                "pitch": 26,
                "velocity": 101,
                "duration": 0.08863636363636829,
                "tempo": 120.0
            },
            {
                "start_time": 52.70227272727273,
                "end_time": 52.91590909090909,
                "pitch": 26,
                "velocity": 80,
                "duration": 0.21363636363636118,
                "tempo": 120.0
            },
            {
                "start_time": 52.970454545454544,
                "end_time": 53.195454545454545,
                "pitch": 26,
                "velocity": 80,
                "duration": 0.22500000000000142,
                "tempo": 120.0
            },
            {
                "start_time": 53.23181818181818,
                "end_time": 53.31818181818181,
                "pitch": 26,
                "velocity": 80,
                "duration": 0.08636363636363598,
                "tempo": 120.0
            },
            {
                "start_time": 53.37045454545454,
                "end_time": 53.45681818181818,
                "pitch": 26,
                "velocity": 64,
                "duration": 0.08636363636363598,
                "tempo": 120.0
            },
            {
                "start_time": 53.490909090909085,
                "end_time": 53.57954545454545,
                "pitch": 26,
                "velocity": 64,
                "duration": 0.08863636363636829,
                "tempo": 120.0
            },
            {
                "start_time": 53.63409090909091,
                "end_time": 53.72272727272727,
                "pitch": 26,
                "velocity": 64,
                "duration": 0.08863636363636118,
                "tempo": 120.0
            },
            {
                "start_time": 53.75909090909091,
                "end_time": 53.990909090909085,
                "pitch": 26,
                "velocity": 51,
                "duration": 0.23181818181817704,
                "tempo": 120.0
            },
            {
                "start_time": 54.043181818181814,
                "end_time": 54.26590909090909,
                "pitch": 26,
                "velocity": 51,
                "duration": 0.22272727272727622,
                "tempo": 120.0
            },
            {
                "start_time": 54.32272727272727,
                "end_time": 54.41590909090909,
                "pitch": 26,
                "velocity": 40,
                "duration": 0.0931818181818187,
                "tempo": 120.0
            },
            {
                "start_time": 58.76136363636363,
                "end_time": 60.63863636363636,
                "pitch": 24,
                "velocity": 80,
                "duration": 1.8772727272727252,
                "tempo": 120.0
            }
        ]
    }
}