{
    "track_id": "01 Peddler",
    "mood": "angry",
    "instruments": {
        "French Horn": [
            {
                "start_time": 0.029545454545454545,
                "end_time": 2.881818181818182,
                "pitch": 68,
                "velocity": 13,
                "duration": 2.852272727272727,
                "tempo": 120.0
            },
            {
                "start_time": 2.881818181818182,
                "end_time": 4.7727272727272725,
                "pitch": 68,
                "velocity": 13,
                "duration": 1.8909090909090907,
                "tempo": 120.0
            },
            {
                "start_time": 4.7727272727272725,
                "end_time": 5.0,
                "pitch": 69,
                "velocity": 13,
                "duration": 0.22727272727272751,
                "tempo": 120.0
            },
            {
                "start_time": 5.086363636363636,
                "end_time": 5.393181818181818,
                "pitch": 69,
                "velocity": 13,
                "duration": 0.30681818181818166,
                "tempo": 120.0
            },
            {
                "start_time": 5.393181818181818,
                "end_time": 7.245454545454545,
                "pitch": 64,
                "velocity": 13,
                "duration": 1.8522727272727275,
                "tempo": 120.0
            },
            {
                "start_time": 7.245454545454545,
                "end_time": 7.870454545454545,
                "pitch": 64,
                "velocity": 8,
                "duration": 0.625,
                "tempo": 120.0
            },
            {
                "start_time": 7.870454545454545,
                "end_time": 10.227272727272727,
                "pitch": 69,
                "velocity": 8,
                "duration": 2.3568181818181815,
                "tempo": 120.0
            },
            {
                "start_time": 10.363636363636363,
                "end_time": 12.259090909090908,
                "pitch": 74,
                "velocity": 13,
                "duration": 1.8954545454545446,
                "tempo": 120.0
            },
            {
                "start_time": 12.259090909090908,
                "end_time": 12.504545454545454,
                "pitch": 74,
                "velocity": 13,
                "duration": 0.24545454545454604,
                "tempo": 120.0
            },
            {
                "start_time": 12.577272727272726,
                "end_time": 12.847727272727273,
                "pitch": 72,
                "velocity": 13,
                "duration": 0.2704545454545464,
                "tempo": 120.0
            },
            {
                "start_time": 12.884090909090908,
                "end_time": 14.772727272727272,
                "pitch": 69,
                "velocity": 13,
                "duration": 1.8886363636363637,
                "tempo": 120.0
            },
            {
                "start_time": 14.772727272727272,
                "end_time": 15.052272727272726,
                "pitch": 71,
                "velocity": 8,
                "duration": 0.2795454545454543,
                "tempo": 120.0
            },
            {
                "start_time": 15.088636363636363,
                "end_time": 15.359090909090908,
                "pitch": 69,
                "velocity": 8,
                "duration": 0.2704545454545446,
                "tempo": 120.0
            },
            {
                "start_time": 15.395454545454545,
                "end_time": 16.61590909090909,
                "pitch": 69,
                "velocity": 13,
                "duration": 1.220454545454544,
                "tempo": 120.0
            },
            {
                "start_time": 16.61590909090909,
                "end_time": 16.84090909090909,
                "pitch": 68,
                "velocity": 13,
                "duration": 0.22500000000000142,
                "tempo": 120.0
            },
            {
                "start_time": 16.895454545454545,
                "end_time": 16.995454545454546,
                "pitch": 68,
                "velocity": 13,
                "duration": 0.10000000000000142,
                "tempo": 120.0
            },
            {
                "start_time": 17.027272727272727,
                "end_time": 17.170454545454543,
                "pitch": 69,
                "velocity": 13,
                "duration": 0.14318181818181586,
                "tempo": 120.0
            },
            {
                "start_time": 17.170454545454543,
                "end_time": 17.39090909090909,
                "pitch": 64,
                "velocity": 13,
                "duration": 0.22045454545454746,
                "tempo": 120.0
            },
            {
                "start_time": 17.459090909090907,
                "end_time": 17.69090909090909,
                "pitch": 68,
                "velocity": 13,
                "duration": 0.23181818181818414,
                "tempo": 120.0
            },
            {
                "start_time": 17.74772727272727,
                "end_time": 20.263636363636362,
                "pitch": 68,
                "velocity": 13,
                "duration": 2.5159090909090907,
                "tempo": 120.0
            },
            {
                "start_time": 33.45227272727273,
                "end_time": 35.80227272727272,
                "pitch": 69,
                "velocity": 13,
                "duration": 2.3499999999999943,
                "tempo": 120.0
            },
            {
                "start_time": 35.80227272727272,
                "end_time": 36.13181818181818,
                "pitch": 71,
                "velocity": 8,
                "duration": 0.32954545454546036,
                "tempo": 120.0
            },
            {
                "start_time": 36.19318181818181,
                "end_time": 36.52272727272727,
                "pitch": 69,
                "velocity": 8,
                "duration": 0.32954545454546036,
                "tempo": 120.0
            },
            {
                "start_time": 36.58409090909091,
                "end_time": 38.184090909090905,
                "pitch": 69,
                "velocity": 13,
                "duration": 1.5999999999999943,
                "tempo": 120.0
            },
            {
                "start_time": 38.184090909090905,
                "end_time": 38.51590909090909,
                "pitch": 68,
                "velocity": 13,
                "duration": 0.33181818181818556,
                "tempo": 120.0
            },
            {
                "start_time": 38.57954545454545,
                "end_time": 38.709090909090904,
                "pitch": 68,
                "velocity": 13,
                "duration": 0.1295454545454504,
                "tempo": 120.0
            },
            {
                "start_time": 38.793181818181814,
                "end_time": 38.99772727272727,
                "pitch": 69,
                "velocity": 13,
                "duration": 0.20454545454545325,
                "tempo": 120.0
            },
            {
                "start_time": 38.99772727272727,
                "end_time": 39.304545454545455,
                "pitch": 64,
                "velocity": 13,
                "duration": 0.306818181818187,
                "tempo": 120.0
            },
            {
                "start_time": 39.425,
                "end_time": 39.78181818181818,
                "pitch": 68,
                "velocity": 13,
                "duration": 0.35681818181818414,
                "tempo": 120.0
            },
            {
                "start_time": 39.85,
                "end_time": 43.92727272727272,
                "pitch": 68,
                "velocity": 13,
                "duration": 4.077272727272721,
                "tempo": 120.0
            },
            {
                "start_time": 46.92045454545454,
                "end_time": 50.240909090909085,
                "pitch": 69,
                "velocity": 5,
                "duration": 3.3204545454545453,
                "tempo": 120.0
            },
            {
                "start_time": 50.240909090909085,
                "end_time": 52.652272727272724,
                "pitch": 68,
                "velocity": 13,
                "duration": 2.411363636363639,
                "tempo": 120.0
            },
            {
                "start_time": 52.652272727272724,
                "end_time": 52.95227272727273,
                "pitch": 69,
                "velocity": 13,
                "duration": 0.30000000000000426,
                "tempo": 120.0
            },
            {
                "start_time": 53.05227272727272,
                "end_time": 53.45227272727273,
                "pitch": 69,
                "velocity": 13,
                "duration": 0.4000000000000057,
                "tempo": 120.0
            },
            {
                "start_time": 53.45227272727273,
                "end_time": 55.87272727272727,
                "pitch": 64,
                "velocity": 13,
                "duration": 2.4204545454545396,
                "tempo": 120.0
            },
            {
                "start_time": 55.87272727272727,
                "end_time": 56.684090909090905,
                "pitch": 64,
                "velocity": 8,
                "duration": 0.8113636363636374,
                "tempo": 120.0
            },
            {
                "start_time": 56.684090909090905,
                "end_time": 59.49545454545454,
                "pitch": 69,
                "velocity": 8,
                "duration": 2.8113636363636374,
                "tempo": 120.0
            },
            {
                "start_time": 59.89545454545454,
                "end_time": 62.29545454545454,
                "pitch": 74,
                "velocity": 13,
                "duration": 2.3999999999999986,
                "tempo": 120.0
            },
            {
                "start_time": 62.29545454545454,
                "end_time": 62.59772727272727,
                "pitch": 74,
                "velocity": 13,
                "duration": 0.30227272727272947,
                "tempo": 120.0
            },
            {
                "start_time": 62.699999999999996,
                "end_time": 63.025,
                "pitch": 72,
                "velocity": 13,
                "duration": 0.32500000000000284,
                "tempo": 120.0
            },
            {
                "start_time": 63.10454545454545,
                "end_time": 65.51590909090909,
                "pitch": 69,
                "velocity": 13,
                "duration": 2.411363636363639,
                "tempo": 120.0
            },
            {
                "start_time": 65.51590909090909,
                "end_time": 65.8409090909091,
                "pitch": 71,
                "velocity": 8,
                "duration": 0.32500000000000284,
                "tempo": 120.0
            },
            {
                "start_time": 65.92045454545455,
                "end_time": 66.24545454545454,
                "pitch": 69,
                "velocity": 8,
                "duration": 0.32499999999998863,
                "tempo": 120.0
            },
            {
                "start_time": 66.32727272727273,
                "end_time": 67.93863636363636,
                "pitch": 69,
                "velocity": 13,
                "duration": 1.6113636363636346,
                "tempo": 120.0
            },
            {
                "start_time": 67.93863636363636,
                "end_time": 68.25681818181818,
                "pitch": 68,
                "velocity": 13,
                "duration": 0.318181818181813,
                "tempo": 120.0
            },
            {
                "start_time": 68.33863636363635,
                "end_time": 68.45681818181818,
                "pitch": 68,
                "velocity": 13,
                "duration": 0.11818181818182438,
                "tempo": 120.0
            },
            {
                "start_time": 68.53863636363636,
                "end_time": 68.73863636363636,
                "pitch": 69,
                "velocity": 13,
                "duration": 0.20000000000000284,
                "tempo": 120.0
            },
            {
                "start_time": 68.73863636363636,
                "end_time": 69.03863636363636,
                "pitch": 64,
                "velocity": 13,
                "duration": 0.29999999999999716,
                "tempo": 120.0
            },
            {
                "start_time": 69.13863636363637,
                "end_time": 69.45681818181818,
                "pitch": 68,
                "velocity": 13,
                "duration": 0.318181818181813,
                "tempo": 120.0
            },
            {
                "start_time": 69.53863636363636,
                "end_time": 72.77045454545454,
                "pitch": 68,
                "velocity": 13,
                "duration": 3.231818181818184,
                "tempo": 120.0
            },
            {
                "start_time": 72.77045454545454,
                "end_time": 75.98181818181818,
                "pitch": 69,
                "velocity": 13,
                "duration": 3.211363636363643,
                "tempo": 120.0
            },
            {
                "start_time": 75.98181818181818,
                "end_time": 78.38181818181818,
                "pitch": 68,
                "velocity": 13,
                "duration": 2.3999999999999915,
                "tempo": 120.0
            },
            {
                "start_time": 78.38181818181818,
                "end_time": 78.68409090909091,
                "pitch": 69,
                "velocity": 13,
                "duration": 0.3022727272727366,
                "tempo": 120.0
            },
            {
                "start_time": 78.78636363636363,
                "end_time": 79.19090909090909,
                "pitch": 69,
                "velocity": 13,
                "duration": 0.4045454545454561,
                "tempo": 120.0
            },
            {
                "start_time": 79.19090909090909,
                "end_time": 81.60227272727272,
                "pitch": 64,
                "velocity": 13,
                "duration": 2.4113636363636317,
                "tempo": 120.0
            },
            {
                "start_time": 81.60227272727272,
                "end_time": 82.41363636363636,
                "pitch": 64,
                "velocity": 8,
                "duration": 0.8113636363636374,
                "tempo": 120.0
            },
            {
                "start_time": 82.41363636363636,
                "end_time": 85.22954545454544,
                "pitch": 69,
                "velocity": 8,
                "duration": 2.815909090909088,
                "tempo": 120.0
            },
            {
                "start_time": 85.6340909090909,
                "end_time": 88.04545454545455,
                "pitch": 74,
                "velocity": 13,
                "duration": 2.411363636363646,
                "tempo": 120.0
            },
            {
                "start_time": 88.04545454545455,
                "end_time": 88.34545454545454,
                "pitch": 74,
                "velocity": 13,
                "duration": 0.29999999999999716,
                "tempo": 120.0
            },
            {
                "start_time": 88.44545454545454,
                "end_time": 88.76590909090909,
                "pitch": 72,
                "velocity": 13,
                "duration": 0.32045454545455243,
                "tempo": 120.0
            },
            {
                "start_time": 88.84545454545454,
                "end_time": 91.26590909090909,
                "pitch": 69,
                "velocity": 13,
                "duration": 2.4204545454545467,
                "tempo": 120.0
            },
            {
                "start_time": 91.26590909090909,
                "end_time": 91.58636363636363,
                "pitch": 71,
                "velocity": 8,
                "duration": 0.3204545454545382,
                "tempo": 120.0
            },
            {
                "start_time": 91.66818181818181,
                "end_time": 91.98636363636363,
                "pitch": 69,
                "velocity": 8,
                "duration": 0.3181818181818272,
                "tempo": 120.0
            },
            {
                "start_time": 92.06818181818181,
                "end_time": 93.67727272727272,
                "pitch": 69,
                "velocity": 13,
                "duration": 1.6090909090909093,
                "tempo": 120.0
            },
            {
                "start_time": 93.67727272727272,
                "end_time": 94.00227272727273,
                "pitch": 68,
                "velocity": 13,
                "duration": 0.32500000000000284,
                "tempo": 120.0
            },
            {
                "start_time": 94.0840909090909,
                "end_time": 94.20454545454545,
                "pitch": 68,
                "velocity": 13,
                "duration": 0.12045454545454959,
                "tempo": 120.0
            },
            {
                "start_time": 94.28636363636363,
                "end_time": 94.48863636363636,
                "pitch": 69,
                "velocity": 13,
                "duration": 0.20227272727272805,
                "tempo": 120.0
            },
            {
                "start_time": 94.48863636363636,
                "end_time": 94.78863636363636,
                "pitch": 64,
                "velocity": 13,
                "duration": 0.29999999999999716,
                "tempo": 120.0
            },
            {
                "start_time": 94.88863636363637,
                "end_time": 95.2090909090909,
                "pitch": 68,
                "velocity": 13,
                "duration": 0.3204545454545382,
                "tempo": 120.0
            },
            {
                "start_time": 95.28863636363636,
                "end_time": 98.5,
                "pitch": 68,
                "velocity": 13,
                "duration": 3.211363636363643,
                "tempo": 120.0
            },
            {
                "start_time": 114.57499999999999,
                "end_time": 116.975,
                "pitch": 69,
                "velocity": 13,
                "duration": 2.4000000000000057,
                "tempo": 120.0
            },
            {
                "start_time": 116.975,
                "end_time": 117.29772727272727,
                "pitch": 71,
                "velocity": 8,
                "duration": 0.32272727272727764,
                "tempo": 120.0
            },
            {
                "start_time": 117.37954545454545,
                "end_time": 117.70454545454545,
                "pitch": 69,
                "velocity": 8,
                "duration": 0.32500000000000284,
                "tempo": 120.0
            },
            {
                "start_time": 117.7840909090909,
                "end_time": 119.39545454545454,
                "pitch": 69,
                "velocity": 13,
                "duration": 1.6113636363636346,
                "tempo": 120.0
            },
            {
                "start_time": 119.39545454545454,
                "end_time": 119.71590909090908,
                "pitch": 68,
                "velocity": 13,
                "duration": 0.3204545454545382,
                "tempo": 120.0
            },
            {
                "start_time": 119.79545454545453,
                "end_time": 119.91590909090908,
                "pitch": 68,
                "velocity": 13,
                "duration": 0.12045454545454959,
                "tempo": 120.0
            },
            {
                "start_time": 119.99545454545454,
                "end_time": 120.19545454545454,
                "pitch": 69,
                "velocity": 13,
                "duration": 0.20000000000000284,
                "tempo": 120.0
            },
            {
                "start_time": 120.19545454545454,
                "end_time": 120.49545454545454,
                "pitch": 64,
                "velocity": 13,
                "duration": 0.29999999999999716,
                "tempo": 120.0
            },
            {
                "start_time": 120.59545454545454,
                "end_time": 120.91590909090908,
                "pitch": 68,
                "velocity": 13,
                "duration": 0.3204545454545382,
                "tempo": 120.0
            },
            {
                "start_time": 120.99545454545454,
                "end_time": 124.83636363636363,
                "pitch": 68,
                "velocity": 13,
                "duration": 3.8409090909090935,
                "tempo": 120.0
            },
            {
                "start_time": 127.44318181818181,
                "end_time": 130.6431818181818,
                "pitch": 69,
                "velocity": 5,
                "duration": 3.1999999999999886,
                "tempo": 120.0
            },
            {
                "start_time": 130.6431818181818,
                "end_time": 133.0431818181818,
                "pitch": 68,
                "velocity": 13,
                "duration": 2.4000000000000057,
                "tempo": 120.0
            },
            {
                "start_time": 133.0431818181818,
                "end_time": 133.34318181818182,
                "pitch": 69,
                "velocity": 13,
                "duration": 0.30000000000001137,
                "tempo": 120.0
            },
            {
                "start_time": 133.4431818181818,
                "end_time": 133.84318181818182,
                "pitch": 69,
                "velocity": 13,
                "duration": 0.4000000000000057,
                "tempo": 120.0
            },
            {
                "start_time": 133.84318181818182,
                "end_time": 136.20681818181816,
                "pitch": 64,
                "velocity": 13,
                "duration": 2.3636363636363455,
                "tempo": 120.0
            },
            {
                "start_time": 136.20681818181816,
                "end_time": 136.88863636363635,
                "pitch": 64,
                "velocity": 8,
                "duration": 0.681818181818187,
                "tempo": 120.0
            },
            {
                "start_time": 136.88863636363635,
                "end_time": 139.54545454545453,
                "pitch": 69,
                "velocity": 8,
                "duration": 2.6568181818181813,
                "tempo": 120.0
            },
            {
                "start_time": 139.7159090909091,
                "end_time": 142.02272727272725,
                "pitch": 74,
                "velocity": 13,
                "duration": 2.3068181818181586,
                "tempo": 120.0
            },
            {
                "start_time": 142.02272727272725,
                "end_time": 142.29772727272726,
                "pitch": 74,
                "velocity": 13,
                "duration": 0.2750000000000057,
                "tempo": 120.0
            },
            {
                "start_time": 142.38863636363635,
                "end_time": 142.6818181818182,
                "pitch": 72,
                "velocity": 13,
                "duration": 0.29318181818183575,
                "tempo": 120.0
            },
            {
                "start_time": 142.75454545454545,
                "end_time": 145.16136363636363,
                "pitch": 69,
                "velocity": 13,
                "duration": 2.4068181818181813,
                "tempo": 120.0
            },
            {
                "start_time": 145.16136363636363,
                "end_time": 145.48636363636362,
                "pitch": 71,
                "velocity": 8,
                "duration": 0.32499999999998863,
                "tempo": 120.0
            },
            {
                "start_time": 145.5659090909091,
                "end_time": 145.89090909090908,
                "pitch": 69,
                "velocity": 8,
                "duration": 0.32499999999998863,
                "tempo": 120.0
            },
            {
                "start_time": 145.97272727272727,
                "end_time": 147.53181818181818,
                "pitch": 69,
                "velocity": 13,
                "duration": 1.5590909090909122,
                "tempo": 120.0
            },
            {
                "start_time": 147.53181818181818,
                "end_time": 147.86136363636362,
                "pitch": 68,
                "velocity": 13,
                "duration": 0.32954545454543904,
                "tempo": 120.0
            },
            {
                "start_time": 147.94772727272726,
                "end_time": 148.07272727272726,
                "pitch": 68,
                "velocity": 13,
                "duration": 0.125,
                "tempo": 120.0
            },
            {
                "start_time": 148.1590909090909,
                "end_time": 148.37045454545455,
                "pitch": 69,
                "velocity": 13,
                "duration": 0.21136363636364308,
                "tempo": 120.0
            },
            {
                "start_time": 148.37045454545455,
                "end_time": 148.68636363636364,
                "pitch": 64,
                "velocity": 13,
                "duration": 0.3159090909090878,
                "tempo": 120.0
            },
            {
                "start_time": 148.79090909090908,
                "end_time": 149.12954545454545,
                "pitch": 68,
                "velocity": 13,
                "duration": 0.3386363636363683,
                "tempo": 120.0
            },
            {
                "start_time": 149.21363636363637,
                "end_time": 152.35227272727272,
                "pitch": 68,
                "velocity": 13,
                "duration": 3.1386363636363512,
                "tempo": 120.0
            },
            {
                "start_time": 168.46136363636361,
                "end_time": 170.86136363636362,
                "pitch": 69,
                "velocity": 13,
                "duration": 2.4000000000000057,
                "tempo": 120.0
            },
            {
                "start_time": 170.86136363636362,
                "end_time": 171.1818181818182,
                "pitch": 71,
                "velocity": 8,
                "duration": 0.32045454545456664,
                "tempo": 120.0
            },
            {
                "start_time": 171.26136363636363,
                "end_time": 171.58181818181816,
                "pitch": 69,
                "velocity": 8,
                "duration": 0.3204545454545382,
                "tempo": 120.0
            },
            {
                "start_time": 171.66136363636363,
                "end_time": 173.26136363636363,
                "pitch": 69,
                "velocity": 13,
                "duration": 1.5999999999999943,
                "tempo": 120.0
            },
            {
                "start_time": 173.26136363636363,
                "end_time": 173.58181818181816,
                "pitch": 68,
                "velocity": 13,
                "duration": 0.3204545454545382,
                "tempo": 120.0
            },
            {
                "start_time": 173.66136363636363,
                "end_time": 173.78181818181818,
                "pitch": 68,
                "velocity": 13,
                "duration": 0.12045454545454959,
                "tempo": 120.0
            },
            {
                "start_time": 173.86136363636362,
                "end_time": 174.06136363636364,
                "pitch": 69,
                "velocity": 13,
                "duration": 0.20000000000001705,
                "tempo": 120.0
            },
            {
                "start_time": 174.06136363636364,
                "end_time": 174.36136363636362,
                "pitch": 64,
                "velocity": 13,
                "duration": 0.29999999999998295,
                "tempo": 120.0
            },
            {
                "start_time": 174.46136363636361,
                "end_time": 174.78181818181818,
                "pitch": 68,
                "velocity": 13,
                "duration": 0.32045454545456664,
                "tempo": 120.0
            },
            {
                "start_time": 174.86136363636362,
                "end_time": 178.48636363636362,
                "pitch": 68,
                "velocity": 13,
                "duration": 3.625,
                "tempo": 120.0
            }
        ],
        "Flute": [
            {
                "start_time": 0.020454545454545454,
                "end_time": 0.609090909090909,
                "pitch": 76,
                "velocity": 51,
                "duration": 0.5886363636363635,
                "tempo": 120.0
            },
            {
                "start_time": 0.85,
                "end_time": 1.2136363636363636,
                "pitch": 71,
                "velocity": 51,
                "duration": 0.36363636363636365,
                "tempo": 120.0
            },
            {
                "start_time": 1.275,
                "end_time": 1.525,
                "pitch": 71,
                "velocity": 51,
                "duration": 0.25,
                "tempo": 120.0
            },
            {
                "start_time": 1.5863636363636362,
                "end_time": 2.0704545454545453,
                "pitch": 72,
                "velocity": 51,
                "duration": 0.4840909090909091,
                "tempo": 120.0
            },
            {
                "start_time": 2.2227272727272727,
                "end_time": 2.477272727272727,
                "pitch": 74,
                "velocity": 51,
                "duration": 0.2545454545454544,
                "tempo": 120.0
            },
            {
                "start_time": 2.5386363636363636,
                "end_time": 2.784090909090909,
                "pitch": 72,
                "velocity": 51,
                "duration": 0.2454545454545456,
                "tempo": 120.0
            },
            {
                "start_time": 2.8454545454545452,
                "end_time": 3.3249999999999997,
                "pitch": 69,
                "velocity": 51,
                "duration": 0.4795454545454545,
                "tempo": 120.0
            },
            {
                "start_time": 3.4795454545454545,
                "end_time": 3.7318181818181815,
                "pitch": 69,
                "velocity": 51,
                "duration": 0.252272727272727,
                "tempo": 120.0
            },
            {
                "start_time": 3.793181818181818,
                "end_time": 4.040909090909091,
                "pitch": 72,
                "velocity": 51,
                "duration": 0.24772727272727302,
                "tempo": 120.0
            },
            {
                "start_time": 4.1022727272727275,
                "end_time": 4.579545454545454,
                "pitch": 76,
                "velocity": 51,
                "duration": 0.4772727272727266,
                "tempo": 120.0
            },
            {
                "start_time": 4.7340909090909085,
                "end_time": 4.988636363636363,
                "pitch": 74,
                "velocity": 51,
                "duration": 0.25454545454545485,
                "tempo": 120.0
            },
            {
                "start_time": 5.05,
                "end_time": 5.295454545454545,
                "pitch": 74,
                "velocity": 51,
                "duration": 0.24545454545454515,
                "tempo": 120.0
            },
            {
                "start_time": 5.3568181818181815,
                "end_time": 5.831818181818181,
                "pitch": 72,
                "velocity": 51,
                "duration": 0.47499999999999964,
                "tempo": 120.0
            },
            {
                "start_time": 5.9818181818181815,
                "end_time": 6.209090909090909,
                "pitch": 71,
                "velocity": 51,
                "duration": 0.22727272727272751,
                "tempo": 120.0
            },
            {
                "start_time": 6.295454545454545,
                "end_time": 6.5204545454545455,
                "pitch": 71,
                "velocity": 51,
                "duration": 0.22500000000000053,
                "tempo": 120.0
            },
            {
                "start_time": 6.6090909090909085,
                "end_time": 7.084090909090909,
                "pitch": 72,
                "velocity": 51,
                "duration": 0.47500000000000053,
                "tempo": 120.0
            },
            {
                "start_time": 7.2340909090909085,
                "end_time": 7.709090909090909,
                "pitch": 76,
                "velocity": 51,
                "duration": 0.47500000000000053,
                "tempo": 120.0
            },
            {
                "start_time": 7.8590909090909085,
                "end_time": 8.334090909090909,
                "pitch": 72,
                "velocity": 51,
                "duration": 0.47500000000000053,
                "tempo": 120.0
            },
            {
                "start_time": 8.48409090909091,
                "end_time": 8.959090909090909,
                "pitch": 69,
                "velocity": 51,
                "duration": 0.47499999999999964,
                "tempo": 120.0
            },
            {
                "start_time": 9.10909090909091,
                "end_time": 10.043181818181818,
                "pitch": 69,
                "velocity": 51,
                "duration": 0.9340909090909086,
                "tempo": 120.0
            },
            {
                "start_time": 10.352272727272727,
                "end_time": 10.575,
                "pitch": 74,
                "velocity": 51,
                "duration": 0.22272727272727266,
                "tempo": 120.0
            },
            {
                "start_time": 10.663636363636362,
                "end_time": 11.152272727272727,
                "pitch": 74,
                "velocity": 51,
                "duration": 0.4886363636363651,
                "tempo": 120.0
            },
            {
                "start_time": 11.299999999999999,
                "end_time": 11.520454545454545,
                "pitch": 77,
                "velocity": 51,
                "duration": 0.22045454545454568,
                "tempo": 120.0
            },
            {
                "start_time": 11.60681818181818,
                "end_time": 12.063636363636363,
                "pitch": 81,
                "velocity": 51,
                "duration": 0.456818181818182,
                "tempo": 120.0
            },
            {
                "start_time": 12.247727272727273,
                "end_time": 12.479545454545454,
                "pitch": 79,
                "velocity": 51,
                "duration": 0.2318181818181806,
                "tempo": 120.0
            },
            {
                "start_time": 12.56590909090909,
                "end_time": 12.786363636363635,
                "pitch": 77,
                "velocity": 51,
                "duration": 0.22045454545454568,
                "tempo": 120.0
            },
            {
                "start_time": 12.872727272727271,
                "end_time": 13.325,
                "pitch": 77,
                "velocity": 51,
                "duration": 0.45227272727272805,
                "tempo": 120.0
            },
            {
                "start_time": 13.504545454545454,
                "end_time": 13.734090909090908,
                "pitch": 76,
                "velocity": 51,
                "duration": 0.2295454545454536,
                "tempo": 120.0
            },
            {
                "start_time": 13.820454545454545,
                "end_time": 14.040909090909091,
                "pitch": 72,
                "velocity": 51,
                "duration": 0.22045454545454568,
                "tempo": 120.0
            },
            {
                "start_time": 14.127272727272727,
                "end_time": 14.58181818181818,
                "pitch": 76,
                "velocity": 51,
                "duration": 0.45454545454545325,
                "tempo": 120.0
            },
            {
                "start_time": 14.761363636363635,
                "end_time": 14.99090909090909,
                "pitch": 74,
                "velocity": 51,
                "duration": 0.22954545454545539,
                "tempo": 120.0
            },
            {
                "start_time": 15.075,
                "end_time": 15.297727272727272,
                "pitch": 74,
                "velocity": 51,
                "duration": 0.22272727272727266,
                "tempo": 120.0
            },
            {
                "start_time": 15.384090909090908,
                "end_time": 15.829545454545453,
                "pitch": 72,
                "velocity": 51,
                "duration": 0.4454545454545453,
                "tempo": 120.0
            },
            {
                "start_time": 16.004545454545454,
                "end_time": 16.224999999999998,
                "pitch": 71,
                "velocity": 51,
                "duration": 0.2204545454545439,
                "tempo": 120.0
            },
            {
                "start_time": 16.30909090909091,
                "end_time": 16.520454545454545,
                "pitch": 71,
                "velocity": 51,
                "duration": 0.21136363636363598,
                "tempo": 120.0
            },
            {
                "start_time": 16.604545454545455,
                "end_time": 17.006818181818183,
                "pitch": 72,
                "velocity": 51,
                "duration": 0.40227272727272734,
                "tempo": 120.0
            },
            {
                "start_time": 17.159090909090907,
                "end_time": 17.575,
                "pitch": 76,
                "velocity": 51,
                "duration": 0.4159090909090928,
                "tempo": 120.0
            },
            {
                "start_time": 17.736363636363635,
                "end_time": 18.18409090909091,
                "pitch": 72,
                "velocity": 51,
                "duration": 0.4477272727272741,
                "tempo": 120.0
            },
            {
                "start_time": 18.35909090909091,
                "end_time": 18.802272727272726,
                "pitch": 69,
                "velocity": 51,
                "duration": 0.44318181818181657,
                "tempo": 120.0
            },
            {
                "start_time": 18.974999999999998,
                "end_time": 19.922727272727272,
                "pitch": 69,
                "velocity": 51,
                "duration": 0.9477272727272741,
                "tempo": 120.0
            },
            {
                "start_time": 20.25,
                "end_time": 20.927272727272726,
                "pitch": 76,
                "velocity": 51,
                "duration": 0.6772727272727259,
                "tempo": 120.0
            },
            {
                "start_time": 21.177272727272726,
                "end_time": 21.402272727272727,
                "pitch": 76,
                "velocity": 51,
                "duration": 0.22500000000000142,
                "tempo": 120.0
            },
            {
                "start_time": 21.49090909090909,
                "end_time": 22.174999999999997,
                "pitch": 75,
                "velocity": 51,
                "duration": 0.6840909090909086,
                "tempo": 120.0
            },
            {
                "start_time": 22.393181818181816,
                "end_time": 22.636363636363637,
                "pitch": 76,
                "velocity": 51,
                "duration": 0.24318181818182083,
                "tempo": 120.0
            },
            {
                "start_time": 22.695454545454545,
                "end_time": 23.424999999999997,
                "pitch": 75,
                "velocity": 51,
                "duration": 0.7295454545454518,
                "tempo": 120.0
            },
            {
                "start_time": 23.659090909090907,
                "end_time": 23.920454545454543,
                "pitch": 81,
                "velocity": 51,
                "duration": 0.2613636363636367,
                "tempo": 120.0
            },
            {
                "start_time": 23.986363636363635,
                "end_time": 24.44772727272727,
                "pitch": 76,
                "velocity": 51,
                "duration": 0.461363636363636,
                "tempo": 120.0
            },
            {
                "start_time": 24.59318181818182,
                "end_time": 24.83863636363636,
                "pitch": 74,
                "velocity": 51,
                "duration": 0.24545454545454248,
                "tempo": 120.0
            },
            {
                "start_time": 24.9,
                "end_time": 25.145454545454545,
                "pitch": 74,
                "velocity": 51,
                "duration": 0.24545454545454604,
                "tempo": 120.0
            },
            {
                "start_time": 25.206818181818182,
                "end_time": 25.693181818181817,
                "pitch": 72,
                "velocity": 51,
                "duration": 0.48636363636363455,
                "tempo": 120.0
            },
            {
                "start_time": 25.847727272727273,
                "end_time": 26.097727272727273,
                "pitch": 71,
                "velocity": 51,
                "duration": 0.25,
                "tempo": 120.0
            },
            {
                "start_time": 26.161363636363635,
                "end_time": 26.411363636363635,
                "pitch": 71,
                "velocity": 51,
                "duration": 0.25,
                "tempo": 120.0
            },
            {
                "start_time": 26.472727272727273,
                "end_time": 26.94772727272727,
                "pitch": 72,
                "velocity": 51,
                "duration": 0.47499999999999787,
                "tempo": 120.0
            },
            {
                "start_time": 27.097727272727273,
                "end_time": 27.565909090909088,
                "pitch": 76,
                "velocity": 51,
                "duration": 0.46818181818181515,
                "tempo": 120.0
            },
            {
                "start_time": 27.71363636363636,
                "end_time": 28.188636363636363,
                "pitch": 72,
                "velocity": 51,
                "duration": 0.4750000000000014,
                "tempo": 120.0
            },
            {
                "start_time": 28.33863636363636,
                "end_time": 28.86590909090909,
                "pitch": 69,
                "velocity": 51,
                "duration": 0.5272727272727273,
                "tempo": 120.0
            },
            {
                "start_time": 29.036363636363635,
                "end_time": 30.093181818181815,
                "pitch": 69,
                "velocity": 51,
                "duration": 1.0568181818181799,
                "tempo": 120.0
            },
            {
                "start_time": 30.45,
                "end_time": 31.25681818181818,
                "pitch": 76,
                "velocity": 51,
                "duration": 0.8068181818181799,
                "tempo": 120.0
            },
            {
                "start_time": 31.509090909090908,
                "end_time": 31.76590909090909,
                "pitch": 76,
                "velocity": 51,
                "duration": 0.2568181818181827,
                "tempo": 120.0
            },
            {
                "start_time": 31.875,
                "end_time": 32.763636363636365,
                "pitch": 75,
                "velocity": 51,
                "duration": 0.8886363636363654,
                "tempo": 120.0
            },
            {
                "start_time": 33.038636363636364,
                "end_time": 33.31590909090909,
                "pitch": 74,
                "velocity": 51,
                "duration": 0.2772727272727238,
                "tempo": 120.0
            },
            {
                "start_time": 33.42272727272727,
                "end_time": 34.32954545454545,
                "pitch": 76,
                "velocity": 51,
                "duration": 0.9068181818181813,
                "tempo": 120.0
            },
            {
                "start_time": 34.61818181818182,
                "end_time": 34.89545454545454,
                "pitch": 81,
                "velocity": 51,
                "duration": 0.2772727272727238,
                "tempo": 120.0
            },
            {
                "start_time": 35.002272727272725,
                "end_time": 35.56818181818181,
                "pitch": 76,
                "velocity": 51,
                "duration": 0.5659090909090878,
                "tempo": 120.0
            },
            {
                "start_time": 35.77272727272727,
                "end_time": 36.05227272727272,
                "pitch": 74,
                "velocity": 51,
                "duration": 0.279545454545449,
                "tempo": 120.0
            },
            {
                "start_time": 36.16136363636363,
                "end_time": 36.44318181818181,
                "pitch": 74,
                "velocity": 51,
                "duration": 0.2818181818181813,
                "tempo": 120.0
            },
            {
                "start_time": 36.55227272727272,
                "end_time": 37.15,
                "pitch": 72,
                "velocity": 51,
                "duration": 0.5977272727272762,
                "tempo": 120.0
            },
            {
                "start_time": 37.35909090909091,
                "end_time": 37.64772727272727,
                "pitch": 71,
                "velocity": 51,
                "duration": 0.288636363636364,
                "tempo": 120.0
            },
            {
                "start_time": 37.75909090909091,
                "end_time": 38.043181818181814,
                "pitch": 71,
                "velocity": 51,
                "duration": 0.2840909090909065,
                "tempo": 120.0
            },
            {
                "start_time": 38.152272727272724,
                "end_time": 38.74318181818182,
                "pitch": 72,
                "velocity": 51,
                "duration": 0.5909090909090935,
                "tempo": 120.0
            },
            {
                "start_time": 38.96363636363636,
                "end_time": 39.595454545454544,
                "pitch": 76,
                "velocity": 51,
                "duration": 0.6318181818181827,
                "tempo": 120.0
            },
            {
                "start_time": 39.81590909090909,
                "end_time": 44.13636363636363,
                "pitch": 81,
                "velocity": 51,
                "duration": 4.320454545454545,
                "tempo": 120.0
            },
            {
                "start_time": 46.10227272727273,
                "end_time": 46.179545454545455,
                "pitch": 81,
                "velocity": 20,
                "duration": 0.07727272727272805,
                "tempo": 120.0
            },
            {
                "start_time": 46.92045454545454,
                "end_time": 47.50454545454545,
                "pitch": 76,
                "velocity": 51,
                "duration": 0.5840909090909108,
                "tempo": 120.0
            },
            {
                "start_time": 47.699999999999996,
                "end_time": 48.01363636363636,
                "pitch": 71,
                "velocity": 51,
                "duration": 0.3136363636363626,
                "tempo": 120.0
            },
            {
                "start_time": 48.11818181818182,
                "end_time": 48.43636363636364,
                "pitch": 71,
                "velocity": 51,
                "duration": 0.3181818181818201,
                "tempo": 120.0
            },
            {
                "start_time": 48.54090909090909,
                "end_time": 49.175,
                "pitch": 72,
                "velocity": 51,
                "duration": 0.6340909090909079,
                "tempo": 120.0
            },
            {
                "start_time": 49.38636363636363,
                "end_time": 49.69318181818181,
                "pitch": 74,
                "velocity": 51,
                "duration": 0.3068181818181799,
                "tempo": 120.0
            },
            {
                "start_time": 49.79545454545454,
                "end_time": 50.09772727272727,
                "pitch": 72,
                "velocity": 51,
                "duration": 0.30227272727272947,
                "tempo": 120.0
            },
            {
                "start_time": 50.199999999999996,
                "end_time": 50.809090909090905,
                "pitch": 69,
                "velocity": 51,
                "duration": 0.6090909090909093,
                "tempo": 120.0
            },
            {
                "start_time": 51.01136363636363,
                "end_time": 51.31136363636364,
                "pitch": 69,
                "velocity": 51,
                "duration": 0.30000000000000426,
                "tempo": 120.0
            },
            {
                "start_time": 51.41136363636363,
                "end_time": 51.652272727272724,
                "pitch": 72,
                "velocity": 51,
                "duration": 0.24090909090909207,
                "tempo": 120.0
            },
            {
                "start_time": 51.81136363636364,
                "end_time": 52.41136363636363,
                "pitch": 76,
                "velocity": 51,
                "duration": 0.5999999999999943,
                "tempo": 120.0
            },
            {
                "start_time": 52.611363636363635,
                "end_time": 52.91136363636363,
                "pitch": 74,
                "velocity": 51,
                "duration": 0.29999999999999716,
                "tempo": 120.0
            },
            {
                "start_time": 53.01136363636363,
                "end_time": 53.31136363636363,
                "pitch": 74,
                "velocity": 51,
                "duration": 0.29999999999999716,
                "tempo": 120.0
            },
            {
                "start_time": 53.41136363636363,
                "end_time": 54.01136363636363,
                "pitch": 72,
                "velocity": 51,
                "duration": 0.6000000000000014,
                "tempo": 120.0
            },
            {
                "start_time": 54.211363636363636,
                "end_time": 54.51590909090909,
                "pitch": 71,
                "velocity": 51,
                "duration": 0.3045454545454547,
                "tempo": 120.0
            },
            {
                "start_time": 54.615909090909085,
                "end_time": 54.92045454545454,
                "pitch": 71,
                "velocity": 51,
                "duration": 0.3045454545454547,
                "tempo": 120.0
            },
            {
                "start_time": 55.02272727272727,
                "end_time": 55.62954545454545,
                "pitch": 72,
                "velocity": 51,
                "duration": 0.606818181818177,
                "tempo": 120.0
            },
            {
                "start_time": 55.83181818181818,
                "end_time": 56.44090909090909,
                "pitch": 76,
                "velocity": 51,
                "duration": 0.6090909090909093,
                "tempo": 120.0
            },
            {
                "start_time": 56.643181818181816,
                "end_time": 57.252272727272725,
                "pitch": 72,
                "velocity": 51,
                "duration": 0.6090909090909093,
                "tempo": 120.0
            },
            {
                "start_time": 57.45454545454545,
                "end_time": 58.054545454545455,
                "pitch": 69,
                "velocity": 51,
                "duration": 0.6000000000000014,
                "tempo": 120.0
            },
            {
                "start_time": 58.25454545454545,
                "end_time": 59.45454545454545,
                "pitch": 69,
                "velocity": 51,
                "duration": 1.2000000000000028,
                "tempo": 120.0
            },
            {
                "start_time": 59.85454545454545,
                "end_time": 60.15454545454545,
                "pitch": 74,
                "velocity": 51,
                "duration": 0.29999999999999716,
                "tempo": 120.0
            },
            {
                "start_time": 60.25454545454545,
                "end_time": 60.85454545454545,
                "pitch": 74,
                "velocity": 51,
                "duration": 0.6000000000000014,
                "tempo": 120.0
            },
            {
                "start_time": 61.054545454545455,
                "end_time": 61.35454545454545,
                "pitch": 77,
                "velocity": 51,
                "duration": 0.29999999999999716,
                "tempo": 120.0
            },
            {
                "start_time": 61.45454545454545,
                "end_time": 62.054545454545455,
                "pitch": 81,
                "velocity": 51,
                "duration": 0.6000000000000014,
                "tempo": 120.0
            },
            {
                "start_time": 62.25454545454545,
                "end_time": 62.559090909090905,
                "pitch": 79,
                "velocity": 51,
                "duration": 0.3045454545454547,
                "tempo": 120.0
            },
            {
                "start_time": 62.65909090909091,
                "end_time": 62.96363636363636,
                "pitch": 77,
                "velocity": 51,
                "duration": 0.3045454545454547,
                "tempo": 120.0
            },
            {
                "start_time": 63.06590909090909,
                "end_time": 63.67272727272727,
                "pitch": 77,
                "velocity": 51,
                "duration": 0.6068181818181841,
                "tempo": 120.0
            },
            {
                "start_time": 63.875,
                "end_time": 64.17727272727272,
                "pitch": 76,
                "velocity": 51,
                "duration": 0.30227272727272236,
                "tempo": 120.0
            },
            {
                "start_time": 64.27727272727273,
                "end_time": 64.57727272727273,
                "pitch": 72,
                "velocity": 51,
                "duration": 0.29999999999999716,
                "tempo": 120.0
            },
            {
                "start_time": 64.67727272727272,
                "end_time": 65.27727272727273,
                "pitch": 76,
                "velocity": 51,
                "duration": 0.6000000000000085,
                "tempo": 120.0
            },
            {
                "start_time": 65.47727272727272,
                "end_time": 65.77954545454546,
                "pitch": 74,
                "velocity": 51,
                "duration": 0.3022727272727366,
                "tempo": 120.0
            },
            {
                "start_time": 65.88181818181818,
                "end_time": 66.18409090909091,
                "pitch": 74,
                "velocity": 51,
                "duration": 0.3022727272727366,
                "tempo": 120.0
            },
            {
                "start_time": 66.28636363636363,
                "end_time": 66.95454545454545,
                "pitch": 72,
                "velocity": 51,
                "duration": 0.6681818181818215,
                "tempo": 120.0
            },
            {
                "start_time": 67.05681818181817,
                "end_time": 67.35681818181818,
                "pitch": 71,
                "velocity": 51,
                "duration": 0.30000000000001137,
                "tempo": 120.0
            },
            {
                "start_time": 67.49772727272727,
                "end_time": 67.79772727272727,
                "pitch": 71,
                "velocity": 51,
                "duration": 0.29999999999999716,
                "tempo": 120.0
            },
            {
                "start_time": 67.89772727272727,
                "end_time": 68.49772727272727,
                "pitch": 72,
                "velocity": 51,
                "duration": 0.6000000000000085,
                "tempo": 120.0
            },
            {
                "start_time": 68.69772727272726,
                "end_time": 69.29772727272727,
                "pitch": 76,
                "velocity": 51,
                "duration": 0.6000000000000085,
                "tempo": 120.0
            },
            {
                "start_time": 69.49772727272727,
                "end_time": 70.09772727272727,
                "pitch": 72,
                "velocity": 51,
                "duration": 0.5999999999999943,
                "tempo": 120.0
            },
            {
                "start_time": 70.29772727272727,
                "end_time": 70.90454545454546,
                "pitch": 69,
                "velocity": 51,
                "duration": 0.6068181818181841,
                "tempo": 120.0
            },
            {
                "start_time": 71.10909090909091,
                "end_time": 72.325,
                "pitch": 69,
                "velocity": 51,
                "duration": 1.2159090909090935,
                "tempo": 120.0
            },
            {
                "start_time": 72.72954545454544,
                "end_time": 73.33863636363635,
                "pitch": 76,
                "velocity": 51,
                "duration": 0.6090909090909093,
                "tempo": 120.0
            },
            {
                "start_time": 73.54090909090908,
                "end_time": 73.8409090909091,
                "pitch": 71,
                "velocity": 51,
                "duration": 0.30000000000001137,
                "tempo": 120.0
            },
            {
                "start_time": 73.94090909090909,
                "end_time": 74.24090909090908,
                "pitch": 71,
                "velocity": 51,
                "duration": 0.29999999999999716,
                "tempo": 120.0
            },
            {
                "start_time": 74.3409090909091,
                "end_time": 74.94090909090909,
                "pitch": 72,
                "velocity": 51,
                "duration": 0.5999999999999943,
                "tempo": 120.0
            },
            {
                "start_time": 75.14090909090909,
                "end_time": 75.44090909090909,
                "pitch": 74,
                "velocity": 51,
                "duration": 0.29999999999999716,
                "tempo": 120.0
            },
            {
                "start_time": 75.54090909090908,
                "end_time": 75.8409090909091,
                "pitch": 72,
                "velocity": 51,
                "duration": 0.30000000000001137,
                "tempo": 120.0
            },
            {
                "start_time": 75.94090909090909,
                "end_time": 76.54090909090908,
                "pitch": 69,
                "velocity": 51,
                "duration": 0.5999999999999943,
                "tempo": 120.0
            },
            {
                "start_time": 76.74090909090908,
                "end_time": 77.04090909090908,
                "pitch": 69,
                "velocity": 51,
                "duration": 0.29999999999999716,
                "tempo": 120.0
            },
            {
                "start_time": 77.14090909090909,
                "end_time": 77.44090909090909,
                "pitch": 72,
                "velocity": 51,
                "duration": 0.29999999999999716,
                "tempo": 120.0
            },
            {
                "start_time": 77.54090909090908,
                "end_time": 78.14090909090909,
                "pitch": 76,
                "velocity": 51,
                "duration": 0.6000000000000085,
                "tempo": 120.0
            },
            {
                "start_time": 78.3409090909091,
                "end_time": 78.64545454545454,
                "pitch": 74,
                "velocity": 51,
                "duration": 0.30454545454544757,
                "tempo": 120.0
            },
            {
                "start_time": 78.74545454545454,
                "end_time": 79.05,
                "pitch": 74,
                "velocity": 51,
                "duration": 0.3045454545454618,
                "tempo": 120.0
            },
            {
                "start_time": 79.15227272727272,
                "end_time": 79.7590909090909,
                "pitch": 72,
                "velocity": 51,
                "duration": 0.6068181818181841,
                "tempo": 120.0
            },
            {
                "start_time": 79.96136363636363,
                "end_time": 80.26363636363637,
                "pitch": 71,
                "velocity": 51,
                "duration": 0.3022727272727366,
                "tempo": 120.0
            },
            {
                "start_time": 80.36363636363636,
                "end_time": 80.66363636363636,
                "pitch": 71,
                "velocity": 51,
                "duration": 0.29999999999999716,
                "tempo": 120.0
            },
            {
                "start_time": 80.76363636363637,
                "end_time": 81.36363636363636,
                "pitch": 72,
                "velocity": 51,
                "duration": 0.5999999999999943,
                "tempo": 120.0
            },
            {
                "start_time": 81.56363636363636,
                "end_time": 82.17045454545455,
                "pitch": 76,
                "velocity": 51,
                "duration": 0.6068181818181841,
                "tempo": 120.0
            },
            {
                "start_time": 82.37272727272727,
                "end_time": 82.98181818181818,
                "pitch": 72,
                "velocity": 51,
                "duration": 0.6090909090909093,
                "tempo": 120.0
            },
            {
                "start_time": 83.1840909090909,
                "end_time": 83.7840909090909,
                "pitch": 69,
                "velocity": 51,
                "duration": 0.6000000000000085,
                "tempo": 120.0
            },
            {
                "start_time": 83.98409090909091,
                "end_time": 85.18863636363636,
                "pitch": 69,
                "velocity": 51,
                "duration": 1.2045454545454533,
                "tempo": 120.0
            },
            {
                "start_time": 85.59318181818182,
                "end_time": 85.89772727272727,
                "pitch": 74,
                "velocity": 51,
                "duration": 0.30454545454544757,
                "tempo": 120.0
            },
            {
                "start_time": 86.0,
                "end_time": 86.60454545454544,
                "pitch": 74,
                "velocity": 51,
                "duration": 0.6045454545454447,
                "tempo": 120.0
            },
            {
                "start_time": 86.80454545454545,
                "end_time": 87.10454545454544,
                "pitch": 77,
                "velocity": 51,
                "duration": 0.29999999999999716,
                "tempo": 120.0
            },
            {
                "start_time": 87.20454545454545,
                "end_time": 87.80454545454545,
                "pitch": 81,
                "velocity": 51,
                "duration": 0.5999999999999943,
                "tempo": 120.0
            },
            {
                "start_time": 88.00454545454545,
                "end_time": 88.30454545454545,
                "pitch": 79,
                "velocity": 51,
                "duration": 0.29999999999999716,
                "tempo": 120.0
            },
            {
                "start_time": 88.40454545454546,
                "end_time": 88.70454545454545,
                "pitch": 77,
                "velocity": 51,
                "duration": 0.29999999999999716,
                "tempo": 120.0
            },
            {
                "start_time": 88.80454545454545,
                "end_time": 89.40454545454546,
                "pitch": 77,
                "velocity": 51,
                "duration": 0.6000000000000085,
                "tempo": 120.0
            },
            {
                "start_time": 89.60454545454544,
                "end_time": 89.9090909090909,
                "pitch": 76,
                "velocity": 51,
                "duration": 0.3045454545454618,
                "tempo": 120.0
            },
            {
                "start_time": 90.0090909090909,
                "end_time": 90.31363636363636,
                "pitch": 72,
                "velocity": 51,
                "duration": 0.3045454545454618,
                "tempo": 120.0
            },
            {
                "start_time": 90.41590909090908,
                "end_time": 91.02272727272727,
                "pitch": 76,
                "velocity": 51,
                "duration": 0.6068181818181841,
                "tempo": 120.0
            },
            {
                "start_time": 91.22727272727272,
                "end_time": 91.52727272727272,
                "pitch": 74,
                "velocity": 51,
                "duration": 0.29999999999999716,
                "tempo": 120.0
            },
            {
                "start_time": 91.62727272727273,
                "end_time": 91.92727272727272,
                "pitch": 74,
                "velocity": 51,
                "duration": 0.29999999999999716,
                "tempo": 120.0
            },
            {
                "start_time": 92.02727272727272,
                "end_time": 92.62727272727273,
                "pitch": 72,
                "velocity": 51,
                "duration": 0.6000000000000085,
                "tempo": 120.0
            },
            {
                "start_time": 92.82727272727273,
                "end_time": 93.12954545454545,
                "pitch": 71,
                "velocity": 51,
                "duration": 0.30227272727272236,
                "tempo": 120.0
            },
            {
                "start_time": 93.23181818181818,
                "end_time": 93.53636363636363,
                "pitch": 71,
                "velocity": 51,
                "duration": 0.30454545454544757,
                "tempo": 120.0
            },
            {
                "start_time": 93.63636363636363,
                "end_time": 94.24545454545454,
                "pitch": 72,
                "velocity": 51,
                "duration": 0.6090909090909093,
                "tempo": 120.0
            },
            {
                "start_time": 94.44772727272726,
                "end_time": 95.04772727272727,
                "pitch": 76,
                "velocity": 51,
                "duration": 0.6000000000000085,
                "tempo": 120.0
            },
            {
                "start_time": 95.24772727272727,
                "end_time": 95.84772727272727,
                "pitch": 72,
                "velocity": 51,
                "duration": 0.5999999999999943,
                "tempo": 120.0
            },
            {
                "start_time": 96.04772727272727,
                "end_time": 96.64772727272727,
                "pitch": 69,
                "velocity": 51,
                "duration": 0.5999999999999943,
                "tempo": 120.0
            },
            {
                "start_time": 96.84772727272727,
                "end_time": 98.05454545454545,
                "pitch": 69,
                "velocity": 51,
                "duration": 1.2068181818181785,
                "tempo": 120.0
            },
            {
                "start_time": 98.4590909090909,
                "end_time": 99.37045454545454,
                "pitch": 76,
                "velocity": 51,
                "duration": 0.9113636363636317,
                "tempo": 120.0
            },
            {
                "start_time": 99.67045454545455,
                "end_time": 99.97045454545454,
                "pitch": 76,
                "velocity": 51,
                "duration": 0.29999999999999716,
                "tempo": 120.0
            },
            {
                "start_time": 100.07045454545454,
                "end_time": 100.97045454545454,
                "pitch": 75,
                "velocity": 51,
                "duration": 0.9000000000000057,
                "tempo": 120.0
            },
            {
                "start_time": 101.27499999999999,
                "end_time": 101.57954545454545,
                "pitch": 76,
                "velocity": 51,
                "duration": 0.3045454545454618,
                "tempo": 120.0
            },
            {
                "start_time": 101.67954545454545,
                "end_time": 102.59090909090908,
                "pitch": 75,
                "velocity": 51,
                "duration": 0.9113636363636317,
                "tempo": 120.0
            },
            {
                "start_time": 102.89090909090909,
                "end_time": 103.19090909090909,
                "pitch": 81,
                "velocity": 51,
                "duration": 0.29999999999999716,
                "tempo": 120.0
            },
            {
                "start_time": 103.29090909090908,
                "end_time": 103.89090909090909,
                "pitch": 76,
                "velocity": 51,
                "duration": 0.6000000000000085,
                "tempo": 120.0
            },
            {
                "start_time": 104.09090909090908,
                "end_time": 104.39090909090909,
                "pitch": 74,
                "velocity": 51,
                "duration": 0.30000000000001137,
                "tempo": 120.0
            },
            {
                "start_time": 104.49090909090908,
                "end_time": 104.79090909090908,
                "pitch": 74,
                "velocity": 51,
                "duration": 0.29999999999999716,
                "tempo": 120.0
            },
            {
                "start_time": 104.89090909090909,
                "end_time": 105.49090909090908,
                "pitch": 72,
                "velocity": 51,
                "duration": 0.5999999999999943,
                "tempo": 120.0
            },
            {
                "start_time": 105.69090909090909,
                "end_time": 105.99545454545454,
                "pitch": 71,
                "velocity": 51,
                "duration": 0.30454545454544757,
                "tempo": 120.0
            },
            {
                "start_time": 106.09545454545454,
                "end_time": 106.39999999999999,
                "pitch": 71,
                "velocity": 51,
                "duration": 0.30454545454544757,
                "tempo": 120.0
            },
            {
                "start_time": 106.50227272727273,
                "end_time": 107.10909090909091,
                "pitch": 72,
                "velocity": 51,
                "duration": 0.6068181818181841,
                "tempo": 120.0
            },
            {
                "start_time": 107.31363636363636,
                "end_time": 107.91363636363636,
                "pitch": 76,
                "velocity": 51,
                "duration": 0.5999999999999943,
                "tempo": 120.0
            },
            {
                "start_time": 108.11363636363636,
                "end_time": 108.71363636363635,
                "pitch": 72,
                "velocity": 51,
                "duration": 0.5999999999999943,
                "tempo": 120.0
            },
            {
                "start_time": 108.91363636363636,
                "end_time": 109.51363636363635,
                "pitch": 69,
                "velocity": 51,
                "duration": 0.5999999999999943,
                "tempo": 120.0
            },
            {
                "start_time": 109.71363636363635,
                "end_time": 110.91818181818181,
                "pitch": 69,
                "velocity": 51,
                "duration": 1.2045454545454533,
                "tempo": 120.0
            },
            {
                "start_time": 111.32272727272726,
                "end_time": 112.23409090909091,
                "pitch": 76,
                "velocity": 51,
                "duration": 0.9113636363636459,
                "tempo": 120.0
            },
            {
                "start_time": 112.5340909090909,
                "end_time": 112.8340909090909,
                "pitch": 76,
                "velocity": 51,
                "duration": 0.29999999999999716,
                "tempo": 120.0
            },
            {
                "start_time": 112.9340909090909,
                "end_time": 113.8340909090909,
                "pitch": 75,
                "velocity": 51,
                "duration": 0.9000000000000057,
                "tempo": 120.0
            },
            {
                "start_time": 114.1340909090909,
                "end_time": 114.4340909090909,
                "pitch": 74,
                "velocity": 51,
                "duration": 0.29999999999999716,
                "tempo": 120.0
            },
            {
                "start_time": 114.5340909090909,
                "end_time": 115.4340909090909,
                "pitch": 76,
                "velocity": 51,
                "duration": 0.8999999999999915,
                "tempo": 120.0
            },
            {
                "start_time": 115.73409090909091,
                "end_time": 116.0340909090909,
                "pitch": 81,
                "velocity": 51,
                "duration": 0.29999999999999716,
                "tempo": 120.0
            },
            {
                "start_time": 116.1340909090909,
                "end_time": 116.73409090909091,
                "pitch": 76,
                "velocity": 51,
                "duration": 0.6000000000000085,
                "tempo": 120.0
            },
            {
                "start_time": 116.9340909090909,
                "end_time": 117.23863636363636,
                "pitch": 74,
                "velocity": 51,
                "duration": 0.3045454545454618,
                "tempo": 120.0
            },
            {
                "start_time": 117.33863636363635,
                "end_time": 117.64318181818182,
                "pitch": 74,
                "velocity": 51,
                "duration": 0.3045454545454618,
                "tempo": 120.0
            },
            {
                "start_time": 117.74545454545454,
                "end_time": 118.35227272727272,
                "pitch": 72,
                "velocity": 51,
                "duration": 0.6068181818181841,
                "tempo": 120.0
            },
            {
                "start_time": 118.55454545454545,
                "end_time": 118.85681818181817,
                "pitch": 71,
                "velocity": 51,
                "duration": 0.30227272727272236,
                "tempo": 120.0
            },
            {
                "start_time": 118.95681818181818,
                "end_time": 119.25681818181818,
                "pitch": 71,
                "velocity": 51,
                "duration": 0.29999999999999716,
                "tempo": 120.0
            },
            {
                "start_time": 119.35681818181817,
                "end_time": 119.95681818181818,
                "pitch": 72,
                "velocity": 51,
                "duration": 0.6000000000000085,
                "tempo": 120.0
            },
            {
                "start_time": 120.15681818181818,
                "end_time": 120.75681818181818,
                "pitch": 76,
                "velocity": 51,
                "duration": 0.5999999999999943,
                "tempo": 120.0
            },
            {
                "start_time": 120.95681818181818,
                "end_time": 124.99772727272726,
                "pitch": 81,
                "velocity": 51,
                "duration": 4.040909090909082,
                "tempo": 120.0
            },
            {
                "start_time": 126.7840909090909,
                "end_time": 126.84318181818182,
                "pitch": 81,
                "velocity": 20,
                "duration": 0.05909090909091219,
                "tempo": 120.0
            },
            {
                "start_time": 127.44318181818181,
                "end_time": 128.0431818181818,
                "pitch": 76,
                "velocity": 51,
                "duration": 0.5999999999999943,
                "tempo": 120.0
            },
            {
                "start_time": 128.24318181818182,
                "end_time": 128.53636363636363,
                "pitch": 71,
                "velocity": 51,
                "duration": 0.29318181818180733,
                "tempo": 120.0
            },
            {
                "start_time": 128.6340909090909,
                "end_time": 128.9272727272727,
                "pitch": 71,
                "velocity": 51,
                "duration": 0.29318181818180733,
                "tempo": 120.0
            },
            {
                "start_time": 129.025,
                "end_time": 129.6090909090909,
                "pitch": 72,
                "velocity": 51,
                "duration": 0.5840909090908895,
                "tempo": 120.0
            },
            {
                "start_time": 129.8022727272727,
                "end_time": 130.10227272727272,
                "pitch": 74,
                "velocity": 51,
                "duration": 0.30000000000001137,
                "tempo": 120.0
            },
            {
                "start_time": 130.2022727272727,
                "end_time": 130.50227272727273,
                "pitch": 72,
                "velocity": 51,
                "duration": 0.30000000000001137,
                "tempo": 120.0
            },
            {
                "start_time": 130.60227272727272,
                "end_time": 131.2022727272727,
                "pitch": 69,
                "velocity": 51,
                "duration": 0.5999999999999943,
                "tempo": 120.0
            },
            {
                "start_time": 131.40227272727273,
                "end_time": 131.7022727272727,
                "pitch": 69,
                "velocity": 51,
                "duration": 0.29999999999998295,
                "tempo": 120.0
            },
            {
                "start_time": 131.8022727272727,
                "end_time": 132.10227272727272,
                "pitch": 72,
                "velocity": 51,
                "duration": 0.30000000000001137,
                "tempo": 120.0
            },
            {
                "start_time": 132.2022727272727,
                "end_time": 132.8022727272727,
                "pitch": 76,
                "velocity": 51,
                "duration": 0.5999999999999943,
                "tempo": 120.0
            },
            {
                "start_time": 133.00227272727273,
                "end_time": 133.3022727272727,
                "pitch": 74,
                "velocity": 51,
                "duration": 0.29999999999998295,
                "tempo": 120.0
            },
            {
                "start_time": 133.40227272727273,
                "end_time": 133.7022727272727,
                "pitch": 74,
                "velocity": 51,
                "duration": 0.29999999999998295,
                "tempo": 120.0
            },
            {
                "start_time": 133.8022727272727,
                "end_time": 134.40227272727273,
                "pitch": 72,
                "velocity": 51,
                "duration": 0.6000000000000227,
                "tempo": 120.0
            },
            {
                "start_time": 134.60227272727272,
                "end_time": 134.90227272727273,
                "pitch": 71,
                "velocity": 51,
                "duration": 0.30000000000001137,
                "tempo": 120.0
            },
            {
                "start_time": 135.00227272727273,
                "end_time": 135.3022727272727,
                "pitch": 71,
                "velocity": 51,
                "duration": 0.29999999999998295,
                "tempo": 120.0
            },
            {
                "start_time": 135.40227272727273,
                "end_time": 136.00227272727273,
                "pitch": 72,
                "velocity": 51,
                "duration": 0.5999999999999943,
                "tempo": 120.0
            },
            {
                "start_time": 136.17272727272726,
                "end_time": 136.6840909090909,
                "pitch": 76,
                "velocity": 51,
                "duration": 0.5113636363636545,
                "tempo": 120.0
            },
            {
                "start_time": 136.85454545454544,
                "end_time": 137.375,
                "pitch": 72,
                "velocity": 51,
                "duration": 0.5204545454545553,
                "tempo": 120.0
            },
            {
                "start_time": 137.5590909090909,
                "end_time": 138.11590909090907,
                "pitch": 69,
                "velocity": 51,
                "duration": 0.5568181818181586,
                "tempo": 120.0
            },
            {
                "start_time": 138.29999999999998,
                "end_time": 139.3409090909091,
                "pitch": 69,
                "velocity": 51,
                "duration": 1.0409090909091105,
                "tempo": 120.0
            },
            {
                "start_time": 139.6818181818182,
                "end_time": 139.94545454545454,
                "pitch": 74,
                "velocity": 51,
                "duration": 0.26363636363635123,
                "tempo": 120.0
            },
            {
                "start_time": 140.04545454545453,
                "end_time": 140.64545454545453,
                "pitch": 74,
                "velocity": 51,
                "duration": 0.5999999999999943,
                "tempo": 120.0
            },
            {
                "start_time": 140.84545454545454,
                "end_time": 141.14545454545453,
                "pitch": 77,
                "velocity": 51,
                "duration": 0.29999999999998295,
                "tempo": 120.0
            },
            {
                "start_time": 141.24545454545455,
                "end_time": 141.80454545454546,
                "pitch": 81,
                "velocity": 51,
                "duration": 0.5590909090909122,
                "tempo": 120.0
            },
            {
                "start_time": 141.98636363636362,
                "end_time": 142.26136363636363,
                "pitch": 79,
                "velocity": 51,
                "duration": 0.2750000000000057,
                "tempo": 120.0
            },
            {
                "start_time": 142.35227272727272,
                "end_time": 142.62727272727273,
                "pitch": 77,
                "velocity": 51,
                "duration": 0.2750000000000057,
                "tempo": 120.0
            },
            {
                "start_time": 142.71818181818182,
                "end_time": 143.31136363636364,
                "pitch": 77,
                "velocity": 51,
                "duration": 0.5931818181818187,
                "tempo": 120.0
            },
            {
                "start_time": 143.51136363636363,
                "end_time": 143.81136363636364,
                "pitch": 76,
                "velocity": 51,
                "duration": 0.30000000000001137,
                "tempo": 120.0
            },
            {
                "start_time": 143.91136363636363,
                "end_time": 144.21136363636364,
                "pitch": 72,
                "velocity": 51,
                "duration": 0.30000000000001137,
                "tempo": 120.0
            },
            {
                "start_time": 144.31136363636364,
                "end_time": 144.9181818181818,
                "pitch": 76,
                "velocity": 51,
                "duration": 0.6068181818181699,
                "tempo": 120.0
            },
            {
                "start_time": 145.12045454545455,
                "end_time": 145.42499999999998,
                "pitch": 74,
                "velocity": 51,
                "duration": 0.30454545454543336,
                "tempo": 120.0
            },
            {
                "start_time": 145.52727272727273,
                "end_time": 145.82954545454544,
                "pitch": 74,
                "velocity": 51,
                "duration": 0.30227272727270815,
                "tempo": 120.0
            },
            {
                "start_time": 145.9318181818182,
                "end_time": 146.5181818181818,
                "pitch": 72,
                "velocity": 51,
                "duration": 0.5863636363636147,
                "tempo": 120.0
            },
            {
                "start_time": 146.71363636363637,
                "end_time": 147.00454545454545,
                "pitch": 71,
                "velocity": 51,
                "duration": 0.2909090909090821,
                "tempo": 120.0
            },
            {
                "start_time": 147.10227272727272,
                "end_time": 147.39545454545453,
                "pitch": 71,
                "velocity": 51,
                "duration": 0.29318181818180733,
                "tempo": 120.0
            },
            {
                "start_time": 147.49090909090907,
                "end_time": 148.11590909090907,
                "pitch": 72,
                "velocity": 51,
                "duration": 0.625,
                "tempo": 120.0
            },
            {
                "start_time": 148.3272727272727,
                "end_time": 148.96136363636364,
                "pitch": 76,
                "velocity": 51,
                "duration": 0.6340909090909292,
                "tempo": 120.0
            },
            {
                "start_time": 149.17272727272726,
                "end_time": 149.75227272727273,
                "pitch": 72,
                "velocity": 51,
                "duration": 0.5795454545454675,
                "tempo": 120.0
            },
            {
                "start_time": 149.94545454545454,
                "end_time": 150.52272727272725,
                "pitch": 69,
                "velocity": 51,
                "duration": 0.5772727272727138,
                "tempo": 120.0
            },
            {
                "start_time": 150.71363636363637,
                "end_time": 151.91363636363636,
                "pitch": 69,
                "velocity": 51,
                "duration": 1.1999999999999886,
                "tempo": 120.0
            },
            {
                "start_time": 152.31363636363636,
                "end_time": 153.21363636363637,
                "pitch": 76,
                "velocity": 51,
                "duration": 0.9000000000000057,
                "tempo": 120.0
            },
            {
                "start_time": 153.51363636363635,
                "end_time": 153.81363636363636,
                "pitch": 76,
                "velocity": 51,
                "duration": 0.30000000000001137,
                "tempo": 120.0
            },
            {
                "start_time": 153.91363636363636,
                "end_time": 154.825,
                "pitch": 75,
                "velocity": 51,
                "duration": 0.9113636363636317,
                "tempo": 120.0
            },
            {
                "start_time": 155.12727272727273,
                "end_time": 155.4318181818182,
                "pitch": 76,
                "velocity": 51,
                "duration": 0.3045454545454618,
                "tempo": 120.0
            },
            {
                "start_time": 155.5340909090909,
                "end_time": 156.41136363636363,
                "pitch": 75,
                "velocity": 51,
                "duration": 0.8772727272727252,
                "tempo": 120.0
            },
            {
                "start_time": 156.7022727272727,
                "end_time": 156.99545454545455,
                "pitch": 81,
                "velocity": 51,
                "duration": 0.29318181818183575,
                "tempo": 120.0
            },
            {
                "start_time": 157.09318181818182,
                "end_time": 157.7,
                "pitch": 76,
                "velocity": 51,
                "duration": 0.6068181818181699,
                "tempo": 120.0
            },
            {
                "start_time": 157.90227272727273,
                "end_time": 158.20681818181816,
                "pitch": 74,
                "velocity": 51,
                "duration": 0.30454545454543336,
                "tempo": 120.0
            },
            {
                "start_time": 158.3068181818182,
                "end_time": 158.61136363636362,
                "pitch": 74,
                "velocity": 51,
                "duration": 0.30454545454543336,
                "tempo": 120.0
            },
            {
                "start_time": 158.71363636363637,
                "end_time": 159.32045454545454,
                "pitch": 72,
                "velocity": 51,
                "duration": 0.6068181818181699,
                "tempo": 120.0
            },
            {
                "start_time": 159.52272727272725,
                "end_time": 159.8272727272727,
                "pitch": 71,
                "velocity": 51,
                "duration": 0.3045454545454618,
                "tempo": 120.0
            },
            {
                "start_time": 159.92954545454543,
                "end_time": 160.2340909090909,
                "pitch": 71,
                "velocity": 51,
                "duration": 0.3045454545454618,
                "tempo": 120.0
            },
            {
                "start_time": 160.3340909090909,
                "end_time": 160.9340909090909,
                "pitch": 72,
                "velocity": 51,
                "duration": 0.6000000000000227,
                "tempo": 120.0
            },
            {
                "start_time": 161.1340909090909,
                "end_time": 161.7340909090909,
                "pitch": 76,
                "velocity": 51,
                "duration": 0.5999999999999943,
                "tempo": 120.0
            },
            {
                "start_time": 161.9340909090909,
                "end_time": 162.5431818181818,
                "pitch": 72,
                "velocity": 51,
                "duration": 0.6090909090908951,
                "tempo": 120.0
            },
            {
                "start_time": 162.74545454545455,
                "end_time": 163.35227272727272,
                "pitch": 69,
                "velocity": 51,
                "duration": 0.6068181818181699,
                "tempo": 120.0
            },
            {
                "start_time": 163.5568181818182,
                "end_time": 164.77272727272725,
                "pitch": 69,
                "velocity": 51,
                "duration": 1.215909090909065,
                "tempo": 120.0
            },
            {
                "start_time": 165.1772727272727,
                "end_time": 166.08863636363637,
                "pitch": 76,
                "velocity": 51,
                "duration": 0.9113636363636601,
                "tempo": 120.0
            },
            {
                "start_time": 166.3931818181818,
                "end_time": 166.69772727272726,
                "pitch": 76,
                "velocity": 51,
                "duration": 0.3045454545454618,
                "tempo": 120.0
            },
            {
                "start_time": 166.79999999999998,
                "end_time": 167.71136363636361,
                "pitch": 75,
                "velocity": 51,
                "duration": 0.9113636363636317,
                "tempo": 120.0
            },
            {
                "start_time": 168.01590909090908,
                "end_time": 168.32045454545454,
                "pitch": 74,
                "velocity": 51,
                "duration": 0.3045454545454618,
                "tempo": 120.0
            },
            {
                "start_time": 168.42045454545453,
                "end_time": 169.32045454545454,
                "pitch": 76,
                "velocity": 51,
                "duration": 0.9000000000000057,
                "tempo": 120.0
            },
            {
                "start_time": 169.62045454545455,
                "end_time": 169.92045454545453,
                "pitch": 81,
                "velocity": 51,
                "duration": 0.29999999999998295,
                "tempo": 120.0
            },
            {
                "start_time": 170.02045454545453,
                "end_time": 170.62045454545455,
                "pitch": 76,
                "velocity": 51,
                "duration": 0.6000000000000227,
                "tempo": 120.0
            },
            {
                "start_time": 170.82045454545454,
                "end_time": 171.12045454545455,
                "pitch": 74,
                "velocity": 51,
                "duration": 0.30000000000001137,
                "tempo": 120.0
            },
            {
                "start_time": 171.22045454545454,
                "end_time": 171.52045454545453,
                "pitch": 74,
                "velocity": 51,
                "duration": 0.29999999999998295,
                "tempo": 120.0
            },
            {
                "start_time": 171.62045454545455,
                "end_time": 172.22045454545454,
                "pitch": 72,
                "velocity": 51,
                "duration": 0.5999999999999943,
                "tempo": 120.0
            },
            {
                "start_time": 172.42045454545453,
                "end_time": 172.72045454545454,
                "pitch": 71,
                "velocity": 51,
                "duration": 0.30000000000001137,
                "tempo": 120.0
            },
            {
                "start_time": 172.82045454545454,
                "end_time": 173.12045454545455,
                "pitch": 71,
                "velocity": 51,
                "duration": 0.30000000000001137,
                "tempo": 120.0
            },
            {
                "start_time": 173.22045454545454,
                "end_time": 173.82045454545454,
                "pitch": 72,
                "velocity": 51,
                "duration": 0.5999999999999943,
                "tempo": 120.0
            },
            {
                "start_time": 174.02045454545453,
                "end_time": 174.62045454545455,
                "pitch": 76,
                "velocity": 51,
                "duration": 0.6000000000000227,
                "tempo": 120.0
            },
            {
                "start_time": 174.82045454545454,
                "end_time": 178.63181818181818,
                "pitch": 81,
                "velocity": 51,
                "duration": 3.8113636363636374,
                "tempo": 120.0
            }
        ],
        "Church Organ": [
            {
                "start_time": 0.40909090909090906,
                "end_time": 1.2249999999999999,
                "pitch": 59,
                "velocity": 40,
                "duration": 0.8159090909090908,
                "tempo": 120.0
            },
            {
                "start_time": 1.3136363636363635,
                "end_time": 1.940909090909091,
                "pitch": 59,
                "velocity": 25,
                "duration": 0.6272727272727274,
                "tempo": 120.0
            },
            {
                "start_time": 1.940909090909091,
                "end_time": 2.4886363636363633,
                "pitch": 59,
                "velocity": 40,
                "duration": 0.5477272727272724,
                "tempo": 120.0
            },
            {
                "start_time": 2.5749999999999997,
                "end_time": 2.8204545454545453,
                "pitch": 59,
                "velocity": 25,
                "duration": 0.2454545454545456,
                "tempo": 120.0
            },
            {
                "start_time": 3.1977272727272728,
                "end_time": 3.745454545454545,
                "pitch": 59,
                "velocity": 25,
                "duration": 0.5477272727272724,
                "tempo": 120.0
            },
            {
                "start_time": 3.8318181818181816,
                "end_time": 4.361363636363636,
                "pitch": 57,
                "velocity": 25,
                "duration": 0.5295454545454548,
                "tempo": 120.0
            },
            {
                "start_time": 4.452272727272727,
                "end_time": 5.086363636363636,
                "pitch": 57,
                "velocity": 25,
                "duration": 0.6340909090909088,
                "tempo": 120.0
            },
            {
                "start_time": 5.086363636363636,
                "end_time": 5.393181818181818,
                "pitch": 57,
                "velocity": 25,
                "duration": 0.30681818181818166,
                "tempo": 120.0
            },
            {
                "start_time": 5.704545454545454,
                "end_time": 6.934090909090909,
                "pitch": 57,
                "velocity": 40,
                "duration": 1.2295454545454545,
                "tempo": 120.0
            },
            {
                "start_time": 6.934090909090909,
                "end_time": 7.559090909090909,
                "pitch": 59,
                "velocity": 25,
                "duration": 0.625,
                "tempo": 120.0
            },
            {
                "start_time": 7.559090909090909,
                "end_time": 7.884090909090909,
                "pitch": 59,
                "velocity": 40,
                "duration": 0.3250000000000002,
                "tempo": 120.0
            },
            {
                "start_time": 8.184090909090909,
                "end_time": 10.375,
                "pitch": 59,
                "velocity": 40,
                "duration": 2.1909090909090914,
                "tempo": 120.0
            },
            {
                "start_time": 10.677272727272726,
                "end_time": 12.577272727272726,
                "pitch": 57,
                "velocity": 25,
                "duration": 1.9000000000000004,
                "tempo": 120.0
            },
            {
                "start_time": 12.577272727272726,
                "end_time": 12.847727272727273,
                "pitch": 57,
                "velocity": 25,
                "duration": 0.2704545454545464,
                "tempo": 120.0
            },
            {
                "start_time": 12.897727272727272,
                "end_time": 13.44090909090909,
                "pitch": 57,
                "velocity": 40,
                "duration": 0.543181818181818,
                "tempo": 120.0
            },
            {
                "start_time": 13.518181818181818,
                "end_time": 14.325,
                "pitch": 57,
                "velocity": 25,
                "duration": 0.8068181818181817,
                "tempo": 120.0
            },
            {
                "start_time": 14.452272727272726,
                "end_time": 15.013636363636364,
                "pitch": 57,
                "velocity": 25,
                "duration": 0.5613636363636374,
                "tempo": 120.0
            },
            {
                "start_time": 15.1,
                "end_time": 15.272727272727272,
                "pitch": 57,
                "velocity": 25,
                "duration": 0.17272727272727195,
                "tempo": 120.0
            },
            {
                "start_time": 16.018181818181816,
                "end_time": 17.027272727272727,
                "pitch": 50,
                "velocity": 40,
                "duration": 1.0090909090909115,
                "tempo": 120.0
            },
            {
                "start_time": 17.170454545454543,
                "end_time": 17.759090909090908,
                "pitch": 50,
                "velocity": 40,
                "duration": 0.5886363636363647,
                "tempo": 120.0
            },
            {
                "start_time": 18.05909090909091,
                "end_time": 19.0,
                "pitch": 52,
                "velocity": 40,
                "duration": 0.9409090909090914,
                "tempo": 120.0
            },
            {
                "start_time": 19.0,
                "end_time": 20.275,
                "pitch": 60,
                "velocity": 40,
                "duration": 1.2749999999999986,
                "tempo": 120.0
            },
            {
                "start_time": 20.570454545454545,
                "end_time": 21.11590909090909,
                "pitch": 57,
                "velocity": 25,
                "duration": 0.5454545454545432,
                "tempo": 120.0
            },
            {
                "start_time": 21.19090909090909,
                "end_time": 21.81590909090909,
                "pitch": 57,
                "velocity": 25,
                "duration": 0.625,
                "tempo": 120.0
            },
            {
                "start_time": 21.81590909090909,
                "end_time": 22.35681818181818,
                "pitch": 57,
                "velocity": 25,
                "duration": 0.5409090909090892,
                "tempo": 120.0
            },
            {
                "start_time": 22.429545454545455,
                "end_time": 22.745454545454546,
                "pitch": 57,
                "velocity": 25,
                "duration": 0.31590909090909136,
                "tempo": 120.0
            },
            {
                "start_time": 23.052272727272726,
                "end_time": 24.629545454545454,
                "pitch": 57,
                "velocity": 25,
                "duration": 1.577272727272728,
                "tempo": 120.0
            },
            {
                "start_time": 24.629545454545454,
                "end_time": 25.25681818181818,
                "pitch": 57,
                "velocity": 25,
                "duration": 0.6272727272727252,
                "tempo": 120.0
            },
            {
                "start_time": 25.56590909090909,
                "end_time": 26.12272727272727,
                "pitch": 57,
                "velocity": 25,
                "duration": 0.5568181818181799,
                "tempo": 120.0
            },
            {
                "start_time": 26.19772727272727,
                "end_time": 27.12272727272727,
                "pitch": 59,
                "velocity": 25,
                "duration": 0.9250000000000007,
                "tempo": 120.0
            },
            {
                "start_time": 27.12272727272727,
                "end_time": 27.738636363636363,
                "pitch": 59,
                "velocity": 25,
                "duration": 0.6159090909090921,
                "tempo": 120.0
            },
            {
                "start_time": 28.049999999999997,
                "end_time": 30.477272727272727,
                "pitch": 59,
                "velocity": 25,
                "duration": 2.4272727272727295,
                "tempo": 120.0
            },
            {
                "start_time": 30.836363636363636,
                "end_time": 31.46590909090909,
                "pitch": 57,
                "velocity": 25,
                "duration": 0.629545454545454,
                "tempo": 120.0
            },
            {
                "start_time": 31.536363636363635,
                "end_time": 32.29772727272727,
                "pitch": 57,
                "velocity": 25,
                "duration": 0.7613636363636367,
                "tempo": 120.0
            },
            {
                "start_time": 32.29772727272727,
                "end_time": 32.99318181818182,
                "pitch": 57,
                "velocity": 25,
                "duration": 0.6954545454545453,
                "tempo": 120.0
            },
            {
                "start_time": 33.070454545454545,
                "end_time": 33.45227272727273,
                "pitch": 57,
                "velocity": 25,
                "duration": 0.3818181818181827,
                "tempo": 120.0
            },
            {
                "start_time": 33.845454545454544,
                "end_time": 35.80227272727272,
                "pitch": 57,
                "velocity": 25,
                "duration": 1.9568181818181785,
                "tempo": 120.0
            },
            {
                "start_time": 35.80227272727272,
                "end_time": 36.58409090909091,
                "pitch": 57,
                "velocity": 25,
                "duration": 0.7818181818181884,
                "tempo": 120.0
            },
            {
                "start_time": 36.98863636363636,
                "end_time": 37.679545454545455,
                "pitch": 57,
                "velocity": 25,
                "duration": 0.6909090909090949,
                "tempo": 120.0
            },
            {
                "start_time": 37.79090909090909,
                "end_time": 38.99772727272727,
                "pitch": 59,
                "velocity": 25,
                "duration": 1.2068181818181785,
                "tempo": 120.0
            },
            {
                "start_time": 38.99772727272727,
                "end_time": 39.85,
                "pitch": 59,
                "velocity": 25,
                "duration": 0.8522727272727337,
                "tempo": 120.0
            },
            {
                "start_time": 39.85,
                "end_time": 43.92727272727272,
                "pitch": 59,
                "velocity": 25,
                "duration": 4.077272727272721,
                "tempo": 120.0
            },
            {
                "start_time": 46.959090909090904,
                "end_time": 47.05681818181818,
                "pitch": 57,
                "velocity": 10,
                "duration": 0.09772727272727622,
                "tempo": 120.0
            },
            {
                "start_time": 47.73863636363636,
                "end_time": 48.37272727272727,
                "pitch": 62,
                "velocity": 25,
                "duration": 0.6340909090909079,
                "tempo": 120.0
            },
            {
                "start_time": 49.429545454545455,
                "end_time": 50.038636363636364,
                "pitch": 62,
                "velocity": 25,
                "duration": 0.6090909090909093,
                "tempo": 120.0
            },
            {
                "start_time": 51.05227272727272,
                "end_time": 51.652272727272724,
                "pitch": 62,
                "velocity": 25,
                "duration": 0.6000000000000014,
                "tempo": 120.0
            },
            {
                "start_time": 52.652272727272724,
                "end_time": 53.252272727272725,
                "pitch": 60,
                "velocity": 25,
                "duration": 0.6000000000000014,
                "tempo": 120.0
            },
            {
                "start_time": 54.252272727272725,
                "end_time": 54.85909090909091,
                "pitch": 60,
                "velocity": 25,
                "duration": 0.6068181818181841,
                "tempo": 120.0
            },
            {
                "start_time": 55.87272727272727,
                "end_time": 56.48181818181818,
                "pitch": 62,
                "velocity": 25,
                "duration": 0.6090909090909093,
                "tempo": 120.0
            },
            {
                "start_time": 57.49545454545454,
                "end_time": 58.095454545454544,
                "pitch": 62,
                "velocity": 25,
                "duration": 0.6000000000000014,
                "tempo": 120.0
            },
            {
                "start_time": 59.095454545454544,
                "end_time": 59.695454545454545,
                "pitch": 60,
                "velocity": 25,
                "duration": 0.6000000000000014,
                "tempo": 120.0
            },
            {
                "start_time": 60.695454545454545,
                "end_time": 61.29545454545454,
                "pitch": 60,
                "velocity": 25,
                "duration": 0.5999999999999943,
                "tempo": 120.0
            },
            {
                "start_time": 62.29545454545454,
                "end_time": 62.902272727272724,
                "pitch": 62,
                "velocity": 25,
                "duration": 0.6068181818181841,
                "tempo": 120.0
            },
            {
                "start_time": 63.91590909090909,
                "end_time": 64.51590909090909,
                "pitch": 62,
                "velocity": 25,
                "duration": 0.6000000000000014,
                "tempo": 120.0
            },
            {
                "start_time": 65.51590909090909,
                "end_time": 66.125,
                "pitch": 60,
                "velocity": 25,
                "duration": 0.6090909090909093,
                "tempo": 120.0
            },
            {
                "start_time": 67.13863636363637,
                "end_time": 67.73863636363636,
                "pitch": 60,
                "velocity": 25,
                "duration": 0.5999999999999943,
                "tempo": 120.0
            },
            {
                "start_time": 68.73863636363636,
                "end_time": 69.33863636363635,
                "pitch": 62,
                "velocity": 25,
                "duration": 0.5999999999999943,
                "tempo": 120.0
            },
            {
                "start_time": 70.33863636363635,
                "end_time": 70.94545454545454,
                "pitch": 62,
                "velocity": 25,
                "duration": 0.6068181818181841,
                "tempo": 120.0
            },
            {
                "start_time": 71.9590909090909,
                "end_time": 72.56818181818181,
                "pitch": 60,
                "velocity": 25,
                "duration": 0.6090909090909093,
                "tempo": 120.0
            },
            {
                "start_time": 73.58181818181818,
                "end_time": 74.18181818181817,
                "pitch": 60,
                "velocity": 25,
                "duration": 0.5999999999999943,
                "tempo": 120.0
            },
            {
                "start_time": 75.18181818181817,
                "end_time": 75.78181818181818,
                "pitch": 62,
                "velocity": 25,
                "duration": 0.6000000000000085,
                "tempo": 120.0
            },
            {
                "start_time": 76.78181818181818,
                "end_time": 77.38181818181818,
                "pitch": 62,
                "velocity": 25,
                "duration": 0.5999999999999943,
                "tempo": 120.0
            },
            {
                "start_time": 78.38181818181818,
                "end_time": 78.98863636363636,
                "pitch": 60,
                "velocity": 25,
                "duration": 0.6068181818181841,
                "tempo": 120.0
            },
            {
                "start_time": 80.00227272727273,
                "end_time": 80.60227272727272,
                "pitch": 60,
                "velocity": 25,
                "duration": 0.5999999999999943,
                "tempo": 120.0
            },
            {
                "start_time": 81.60227272727272,
                "end_time": 82.21136363636363,
                "pitch": 62,
                "velocity": 25,
                "duration": 0.6090909090909093,
                "tempo": 120.0
            },
            {
                "start_time": 83.225,
                "end_time": 83.825,
                "pitch": 62,
                "velocity": 25,
                "duration": 0.6000000000000085,
                "tempo": 120.0
            },
            {
                "start_time": 84.825,
                "end_time": 85.43181818181817,
                "pitch": 60,
                "velocity": 25,
                "duration": 0.6068181818181699,
                "tempo": 120.0
            },
            {
                "start_time": 86.44545454545454,
                "end_time": 87.04545454545455,
                "pitch": 60,
                "velocity": 25,
                "duration": 0.6000000000000085,
                "tempo": 120.0
            },
            {
                "start_time": 88.04545454545455,
                "end_time": 88.64545454545454,
                "pitch": 62,
                "velocity": 25,
                "duration": 0.5999999999999943,
                "tempo": 120.0
            },
            {
                "start_time": 89.64545454545454,
                "end_time": 90.25454545454545,
                "pitch": 62,
                "velocity": 25,
                "duration": 0.6090909090909093,
                "tempo": 120.0
            },
            {
                "start_time": 91.26590909090909,
                "end_time": 91.86818181818181,
                "pitch": 60,
                "velocity": 25,
                "duration": 0.6022727272727195,
                "tempo": 120.0
            },
            {
                "start_time": 92.86818181818181,
                "end_time": 93.475,
                "pitch": 60,
                "velocity": 25,
                "duration": 0.6068181818181841,
                "tempo": 120.0
            },
            {
                "start_time": 94.48863636363636,
                "end_time": 95.08863636363635,
                "pitch": 62,
                "velocity": 25,
                "duration": 0.5999999999999943,
                "tempo": 120.0
            },
            {
                "start_time": 96.08863636363635,
                "end_time": 96.68863636363636,
                "pitch": 62,
                "velocity": 25,
                "duration": 0.6000000000000085,
                "tempo": 120.0
            },
            {
                "start_time": 97.68863636363636,
                "end_time": 98.29772727272727,
                "pitch": 60,
                "velocity": 25,
                "duration": 0.6090909090909093,
                "tempo": 120.0
            },
            {
                "start_time": 99.3090909090909,
                "end_time": 99.9090909090909,
                "pitch": 60,
                "velocity": 25,
                "duration": 0.6000000000000085,
                "tempo": 120.0
            },
            {
                "start_time": 100.9090909090909,
                "end_time": 101.51818181818182,
                "pitch": 60,
                "velocity": 25,
                "duration": 0.6090909090909093,
                "tempo": 120.0
            },
            {
                "start_time": 102.53181818181818,
                "end_time": 103.13181818181818,
                "pitch": 60,
                "velocity": 25,
                "duration": 0.5999999999999943,
                "tempo": 120.0
            },
            {
                "start_time": 104.13181818181818,
                "end_time": 104.73181818181817,
                "pitch": 60,
                "velocity": 25,
                "duration": 0.5999999999999943,
                "tempo": 120.0
            },
            {
                "start_time": 105.73181818181817,
                "end_time": 106.33863636363635,
                "pitch": 60,
                "velocity": 25,
                "duration": 0.6068181818181841,
                "tempo": 120.0
            },
            {
                "start_time": 107.35227272727272,
                "end_time": 107.95227272727273,
                "pitch": 62,
                "velocity": 25,
                "duration": 0.6000000000000085,
                "tempo": 120.0
            },
            {
                "start_time": 108.95227272727273,
                "end_time": 109.55227272727272,
                "pitch": 62,
                "velocity": 25,
                "duration": 0.5999999999999943,
                "tempo": 120.0
            },
            {
                "start_time": 110.55227272727272,
                "end_time": 111.16136363636363,
                "pitch": 60,
                "velocity": 25,
                "duration": 0.6090909090909093,
                "tempo": 120.0
            },
            {
                "start_time": 112.175,
                "end_time": 112.77499999999999,
                "pitch": 60,
                "velocity": 25,
                "duration": 0.5999999999999943,
                "tempo": 120.0
            },
            {
                "start_time": 113.77499999999999,
                "end_time": 114.375,
                "pitch": 60,
                "velocity": 25,
                "duration": 0.6000000000000085,
                "tempo": 120.0
            },
            {
                "start_time": 115.375,
                "end_time": 115.975,
                "pitch": 60,
                "velocity": 25,
                "duration": 0.5999999999999943,
                "tempo": 120.0
            },
            {
                "start_time": 116.975,
                "end_time": 117.58181818181818,
                "pitch": 60,
                "velocity": 25,
                "duration": 0.6068181818181841,
                "tempo": 120.0
            },
            {
                "start_time": 118.59545454545454,
                "end_time": 119.19545454545454,
                "pitch": 60,
                "velocity": 25,
                "duration": 0.5999999999999943,
                "tempo": 120.0
            },
            {
                "start_time": 120.19545454545454,
                "end_time": 120.79545454545453,
                "pitch": 62,
                "velocity": 25,
                "duration": 0.5999999999999943,
                "tempo": 120.0
            },
            {
                "start_time": 121.79545454545453,
                "end_time": 122.40454545454544,
                "pitch": 62,
                "velocity": 25,
                "duration": 0.6090909090909093,
                "tempo": 120.0
            },
            {
                "start_time": 123.41818181818181,
                "end_time": 124.02499999999999,
                "pitch": 60,
                "velocity": 25,
                "duration": 0.6068181818181841,
                "tempo": 120.0
            },
            {
                "start_time": 124.22727272727272,
                "end_time": 127.0840909090909,
                "pitch": 60,
                "velocity": 25,
                "duration": 2.856818181818184,
                "tempo": 120.0
            },
            {
                "start_time": 127.8840909090909,
                "end_time": 128.575,
                "pitch": 60,
                "velocity": 40,
                "duration": 0.6909090909090878,
                "tempo": 120.0
            },
            {
                "start_time": 128.67272727272726,
                "end_time": 129.4522727272727,
                "pitch": 59,
                "velocity": 25,
                "duration": 0.7795454545454561,
                "tempo": 120.0
            },
            {
                "start_time": 129.4522727272727,
                "end_time": 130.1431818181818,
                "pitch": 59,
                "velocity": 40,
                "duration": 0.6909090909090878,
                "tempo": 120.0
            },
            {
                "start_time": 130.24318181818182,
                "end_time": 130.56136363636364,
                "pitch": 59,
                "velocity": 25,
                "duration": 0.318181818181813,
                "tempo": 120.0
            },
            {
                "start_time": 131.0431818181818,
                "end_time": 131.74318181818182,
                "pitch": 59,
                "velocity": 25,
                "duration": 0.700000000000017,
                "tempo": 120.0
            },
            {
                "start_time": 131.84318181818182,
                "end_time": 132.5431818181818,
                "pitch": 57,
                "velocity": 25,
                "duration": 0.6999999999999886,
                "tempo": 120.0
            },
            {
                "start_time": 132.6431818181818,
                "end_time": 133.4431818181818,
                "pitch": 57,
                "velocity": 25,
                "duration": 0.8000000000000114,
                "tempo": 120.0
            },
            {
                "start_time": 133.4431818181818,
                "end_time": 133.84318181818182,
                "pitch": 57,
                "velocity": 25,
                "duration": 0.4000000000000057,
                "tempo": 120.0
            },
            {
                "start_time": 134.24318181818182,
                "end_time": 135.84318181818182,
                "pitch": 57,
                "velocity": 40,
                "duration": 1.5999999999999943,
                "tempo": 120.0
            },
            {
                "start_time": 135.84318181818182,
                "end_time": 136.54772727272726,
                "pitch": 59,
                "velocity": 25,
                "duration": 0.704545454545439,
                "tempo": 120.0
            },
            {
                "start_time": 136.54772727272726,
                "end_time": 136.88863636363635,
                "pitch": 59,
                "velocity": 40,
                "duration": 0.3409090909090935,
                "tempo": 120.0
            },
            {
                "start_time": 137.22954545454544,
                "end_time": 139.7159090909091,
                "pitch": 59,
                "velocity": 40,
                "duration": 2.4863636363636488,
                "tempo": 120.0
            },
            {
                "start_time": 140.08636363636364,
                "end_time": 142.38863636363635,
                "pitch": 57,
                "velocity": 25,
                "duration": 2.302272727272708,
                "tempo": 120.0
            },
            {
                "start_time": 142.38863636363635,
                "end_time": 142.6818181818182,
                "pitch": 57,
                "velocity": 25,
                "duration": 0.29318181818183575,
                "tempo": 120.0
            },
            {
                "start_time": 142.75454545454545,
                "end_time": 143.4522727272727,
                "pitch": 57,
                "velocity": 40,
                "duration": 0.6977272727272634,
                "tempo": 120.0
            },
            {
                "start_time": 143.5522727272727,
                "end_time": 144.57272727272726,
                "pitch": 57,
                "velocity": 25,
                "duration": 1.0204545454545553,
                "tempo": 120.0
            },
            {
                "start_time": 144.75681818181818,
                "end_time": 145.4659090909091,
                "pitch": 57,
                "velocity": 25,
                "duration": 0.7090909090909179,
                "tempo": 120.0
            },
            {
                "start_time": 145.5659090909091,
                "end_time": 145.79090909090908,
                "pitch": 57,
                "velocity": 25,
                "duration": 0.22499999999999432,
                "tempo": 120.0
            },
            {
                "start_time": 146.75227272727273,
                "end_time": 148.1590909090909,
                "pitch": 50,
                "velocity": 40,
                "duration": 1.4068181818181813,
                "tempo": 120.0
            },
            {
                "start_time": 148.37045454545455,
                "end_time": 149.21363636363637,
                "pitch": 50,
                "velocity": 40,
                "duration": 0.8431818181818187,
                "tempo": 120.0
            },
            {
                "start_time": 149.6,
                "end_time": 150.75227272727273,
                "pitch": 52,
                "velocity": 40,
                "duration": 1.152272727272731,
                "tempo": 120.0
            },
            {
                "start_time": 150.75227272727273,
                "end_time": 152.35227272727272,
                "pitch": 60,
                "velocity": 40,
                "duration": 1.5999999999999943,
                "tempo": 120.0
            },
            {
                "start_time": 152.75227272727273,
                "end_time": 153.4522727272727,
                "pitch": 57,
                "velocity": 25,
                "duration": 0.6999999999999886,
                "tempo": 120.0
            },
            {
                "start_time": 153.5522727272727,
                "end_time": 154.3590909090909,
                "pitch": 57,
                "velocity": 25,
                "duration": 0.806818181818187,
                "tempo": 120.0
            },
            {
                "start_time": 154.3590909090909,
                "end_time": 155.0681818181818,
                "pitch": 57,
                "velocity": 25,
                "duration": 0.7090909090909179,
                "tempo": 120.0
            },
            {
                "start_time": 155.1681818181818,
                "end_time": 155.57272727272726,
                "pitch": 57,
                "velocity": 25,
                "duration": 0.4045454545454561,
                "tempo": 120.0
            },
            {
                "start_time": 155.96136363636361,
                "end_time": 157.9431818181818,
                "pitch": 57,
                "velocity": 25,
                "duration": 1.9818181818181984,
                "tempo": 120.0
            },
            {
                "start_time": 157.9431818181818,
                "end_time": 158.75454545454545,
                "pitch": 57,
                "velocity": 25,
                "duration": 0.8113636363636374,
                "tempo": 120.0
            },
            {
                "start_time": 159.1590909090909,
                "end_time": 159.86818181818182,
                "pitch": 57,
                "velocity": 25,
                "duration": 0.7090909090909179,
                "tempo": 120.0
            },
            {
                "start_time": 159.97045454545454,
                "end_time": 161.17499999999998,
                "pitch": 59,
                "velocity": 25,
                "duration": 1.204545454545439,
                "tempo": 120.0
            },
            {
                "start_time": 161.17499999999998,
                "end_time": 161.975,
                "pitch": 59,
                "velocity": 25,
                "duration": 0.8000000000000114,
                "tempo": 120.0
            },
            {
                "start_time": 162.37954545454545,
                "end_time": 165.21818181818182,
                "pitch": 59,
                "velocity": 25,
                "duration": 2.8386363636363683,
                "tempo": 120.0
            },
            {
                "start_time": 165.62272727272727,
                "end_time": 166.3340909090909,
                "pitch": 57,
                "velocity": 25,
                "duration": 0.7113636363636147,
                "tempo": 120.0
            },
            {
                "start_time": 166.4340909090909,
                "end_time": 167.24545454545455,
                "pitch": 57,
                "velocity": 25,
                "duration": 0.8113636363636374,
                "tempo": 120.0
            },
            {
                "start_time": 167.24545454545455,
                "end_time": 167.95454545454544,
                "pitch": 57,
                "velocity": 25,
                "duration": 0.7090909090908895,
                "tempo": 120.0
            },
            {
                "start_time": 168.0568181818182,
                "end_time": 168.46136363636361,
                "pitch": 57,
                "velocity": 25,
                "duration": 0.4045454545454277,
                "tempo": 120.0
            },
            {
                "start_time": 168.86136363636362,
                "end_time": 170.86136363636362,
                "pitch": 57,
                "velocity": 25,
                "duration": 2.0,
                "tempo": 120.0
            },
            {
                "start_time": 170.86136363636362,
                "end_time": 171.66136363636363,
                "pitch": 57,
                "velocity": 25,
                "duration": 0.8000000000000114,
                "tempo": 120.0
            },
            {
                "start_time": 172.06136363636364,
                "end_time": 172.76136363636363,
                "pitch": 57,
                "velocity": 25,
                "duration": 0.6999999999999886,
                "tempo": 120.0
            },
            {
                "start_time": 172.86136363636362,
                "end_time": 174.06136363636364,
                "pitch": 59,
                "velocity": 25,
                "duration": 1.200000000000017,
                "tempo": 120.0
            },
            {
                "start_time": 174.06136363636364,
                "end_time": 174.86136363636362,
                "pitch": 59,
                "velocity": 25,
                "duration": 0.799999999999983,
                "tempo": 120.0
            },
            {
                "start_time": 174.86136363636362,
                "end_time": 178.48636363636362,
                "pitch": 59,
                "velocity": 25,
                "duration": 3.625,
                "tempo": 120.0
            }
        ],
        "Acoustic Guitar (nylon)": [
            {
                "start_time": 46.959090909090904,
                "end_time": 47.349999999999994,
                "pitch": 52,
                "velocity": 51,
                "duration": 0.39090909090909065,
                "tempo": 120.0
            },
            {
                "start_time": 47.349999999999994,
                "end_time": 47.73863636363636,
                "pitch": 59,
                "velocity": 51,
                "duration": 0.38863636363636545,
                "tempo": 120.0
            },
            {
                "start_time": 47.73863636363636,
                "end_time": 48.16136363636363,
                "pitch": 62,
                "velocity": 51,
                "duration": 0.42272727272727195,
                "tempo": 120.0
            },
            {
                "start_time": 48.16136363636363,
                "end_time": 48.584090909090904,
                "pitch": 59,
                "velocity": 51,
                "duration": 0.42272727272727195,
                "tempo": 120.0
            },
            {
                "start_time": 48.584090909090904,
                "end_time": 49.00681818181818,
                "pitch": 68,
                "velocity": 51,
                "duration": 0.42272727272727906,
                "tempo": 120.0
            },
            {
                "start_time": 49.00681818181818,
                "end_time": 49.429545454545455,
                "pitch": 59,
                "velocity": 51,
                "duration": 0.42272727272727195,
                "tempo": 120.0
            },
            {
                "start_time": 49.429545454545455,
                "end_time": 49.836363636363636,
                "pitch": 62,
                "velocity": 51,
                "duration": 0.4068181818181813,
                "tempo": 120.0
            },
            {
                "start_time": 49.836363636363636,
                "end_time": 50.15909090909091,
                "pitch": 59,
                "velocity": 51,
                "duration": 0.32272727272727053,
                "tempo": 120.0
            },
            {
                "start_time": 50.240909090909085,
                "end_time": 50.64545454545454,
                "pitch": 52,
                "velocity": 32,
                "duration": 0.4045454545454561,
                "tempo": 120.0
            },
            {
                "start_time": 50.64545454545454,
                "end_time": 51.05227272727272,
                "pitch": 57,
                "velocity": 32,
                "duration": 0.4068181818181813,
                "tempo": 120.0
            },
            {
                "start_time": 51.05227272727272,
                "end_time": 51.45227272727273,
                "pitch": 60,
                "velocity": 32,
                "duration": 0.4000000000000057,
                "tempo": 120.0
            },
            {
                "start_time": 51.45227272727273,
                "end_time": 51.85227272727273,
                "pitch": 57,
                "velocity": 32,
                "duration": 0.3999999999999986,
                "tempo": 120.0
            },
            {
                "start_time": 51.85227272727273,
                "end_time": 52.252272727272725,
                "pitch": 64,
                "velocity": 32,
                "duration": 0.3999999999999986,
                "tempo": 120.0
            },
            {
                "start_time": 52.252272727272725,
                "end_time": 52.652272727272724,
                "pitch": 57,
                "velocity": 32,
                "duration": 0.3999999999999986,
                "tempo": 120.0
            },
            {
                "start_time": 52.652272727272724,
                "end_time": 53.05227272727272,
                "pitch": 60,
                "velocity": 32,
                "duration": 0.3999999999999986,
                "tempo": 120.0
            },
            {
                "start_time": 53.05227272727272,
                "end_time": 53.45227272727273,
                "pitch": 57,
                "velocity": 32,
                "duration": 0.4000000000000057,
                "tempo": 120.0
            },
            {
                "start_time": 53.45227272727273,
                "end_time": 53.85227272727273,
                "pitch": 52,
                "velocity": 32,
                "duration": 0.3999999999999986,
                "tempo": 120.0
            },
            {
                "start_time": 53.85227272727273,
                "end_time": 54.252272727272725,
                "pitch": 59,
                "velocity": 32,
                "duration": 0.3999999999999986,
                "tempo": 120.0
            },
            {
                "start_time": 54.252272727272725,
                "end_time": 54.65681818181818,
                "pitch": 62,
                "velocity": 32,
                "duration": 0.4045454545454561,
                "tempo": 120.0
            },
            {
                "start_time": 54.65681818181818,
                "end_time": 55.06136363636363,
                "pitch": 68,
                "velocity": 32,
                "duration": 0.404545454545449,
                "tempo": 120.0
            },
            {
                "start_time": 55.06136363636363,
                "end_time": 55.46818181818182,
                "pitch": 62,
                "velocity": 32,
                "duration": 0.4068181818181884,
                "tempo": 120.0
            },
            {
                "start_time": 55.46818181818182,
                "end_time": 55.87272727272727,
                "pitch": 59,
                "velocity": 32,
                "duration": 0.404545454545449,
                "tempo": 120.0
            },
            {
                "start_time": 55.87272727272727,
                "end_time": 56.27954545454545,
                "pitch": 52,
                "velocity": 32,
                "duration": 0.4068181818181813,
                "tempo": 120.0
            },
            {
                "start_time": 56.27954545454545,
                "end_time": 56.684090909090905,
                "pitch": 59,
                "velocity": 32,
                "duration": 0.4045454545454561,
                "tempo": 120.0
            },
            {
                "start_time": 56.684090909090905,
                "end_time": 57.08863636363636,
                "pitch": 52,
                "velocity": 32,
                "duration": 0.4045454545454561,
                "tempo": 120.0
            },
            {
                "start_time": 57.08863636363636,
                "end_time": 57.49545454545454,
                "pitch": 57,
                "velocity": 32,
                "duration": 0.4068181818181813,
                "tempo": 120.0
            },
            {
                "start_time": 57.49545454545454,
                "end_time": 57.89545454545454,
                "pitch": 60,
                "velocity": 32,
                "duration": 0.3999999999999986,
                "tempo": 120.0
            },
            {
                "start_time": 57.89545454545454,
                "end_time": 58.29545454545454,
                "pitch": 64,
                "velocity": 32,
                "duration": 0.3999999999999986,
                "tempo": 120.0
            },
            {
                "start_time": 58.29545454545454,
                "end_time": 59.095454545454544,
                "pitch": 60,
                "velocity": 32,
                "duration": 0.8000000000000043,
                "tempo": 120.0
            },
            {
                "start_time": 59.095454545454544,
                "end_time": 59.89545454545454,
                "pitch": 57,
                "velocity": 32,
                "duration": 0.7999999999999972,
                "tempo": 120.0
            },
            {
                "start_time": 59.89545454545454,
                "end_time": 60.29545454545454,
                "pitch": 65,
                "velocity": 51,
                "duration": 0.3999999999999986,
                "tempo": 120.0
            },
            {
                "start_time": 60.29545454545454,
                "end_time": 60.695454545454545,
                "pitch": 57,
                "velocity": 51,
                "duration": 0.4000000000000057,
                "tempo": 120.0
            },
            {
                "start_time": 60.695454545454545,
                "end_time": 61.095454545454544,
                "pitch": 62,
                "velocity": 51,
                "duration": 0.3999999999999986,
                "tempo": 120.0
            },
            {
                "start_time": 61.095454545454544,
                "end_time": 61.41590909090909,
                "pitch": 65,
                "velocity": 51,
                "duration": 0.3204545454545453,
                "tempo": 120.0
            },
            {
                "start_time": 61.49545454545454,
                "end_time": 61.65454545454545,
                "pitch": 65,
                "velocity": 51,
                "duration": 0.1590909090909065,
                "tempo": 120.0
            },
            {
                "start_time": 61.695454545454545,
                "end_time": 61.81590909090909,
                "pitch": 67,
                "velocity": 32,
                "duration": 0.12045454545454248,
                "tempo": 120.0
            },
            {
                "start_time": 61.89545454545454,
                "end_time": 62.29545454545454,
                "pitch": 65,
                "velocity": 13,
                "duration": 0.3999999999999986,
                "tempo": 120.0
            },
            {
                "start_time": 62.29545454545454,
                "end_time": 62.699999999999996,
                "pitch": 62,
                "velocity": 13,
                "duration": 0.4045454545454561,
                "tempo": 120.0
            },
            {
                "start_time": 62.699999999999996,
                "end_time": 63.025,
                "pitch": 57,
                "velocity": 13,
                "duration": 0.32500000000000284,
                "tempo": 120.0
            },
            {
                "start_time": 63.10454545454545,
                "end_time": 63.51136363636363,
                "pitch": 64,
                "velocity": 51,
                "duration": 0.4068181818181813,
                "tempo": 120.0
            },
            {
                "start_time": 63.51136363636363,
                "end_time": 63.91590909090909,
                "pitch": 52,
                "velocity": 51,
                "duration": 0.4045454545454561,
                "tempo": 120.0
            },
            {
                "start_time": 63.91590909090909,
                "end_time": 64.31590909090909,
                "pitch": 57,
                "velocity": 51,
                "duration": 0.3999999999999986,
                "tempo": 120.0
            },
            {
                "start_time": 64.31590909090909,
                "end_time": 64.7159090909091,
                "pitch": 64,
                "velocity": 51,
                "duration": 0.4000000000000057,
                "tempo": 120.0
            },
            {
                "start_time": 64.7159090909091,
                "end_time": 65.11590909090908,
                "pitch": 60,
                "velocity": 51,
                "duration": 0.3999999999999915,
                "tempo": 120.0
            },
            {
                "start_time": 65.11590909090908,
                "end_time": 65.51590909090909,
                "pitch": 57,
                "velocity": 51,
                "duration": 0.4000000000000057,
                "tempo": 120.0
            },
            {
                "start_time": 65.51590909090909,
                "end_time": 65.92045454545455,
                "pitch": 52,
                "velocity": 51,
                "duration": 0.4045454545454561,
                "tempo": 120.0
            },
            {
                "start_time": 65.92045454545455,
                "end_time": 66.14545454545454,
                "pitch": 57,
                "velocity": 51,
                "duration": 0.22499999999999432,
                "tempo": 120.0
            },
            {
                "start_time": 66.32727272727273,
                "end_time": 66.73181818181818,
                "pitch": 57,
                "velocity": 32,
                "duration": 0.4045454545454561,
                "tempo": 120.0
            },
            {
                "start_time": 66.73181818181818,
                "end_time": 67.13863636363637,
                "pitch": 47,
                "velocity": 32,
                "duration": 0.4068181818181813,
                "tempo": 120.0
            },
            {
                "start_time": 67.13863636363637,
                "end_time": 67.53863636363636,
                "pitch": 50,
                "velocity": 32,
                "duration": 0.3999999999999915,
                "tempo": 120.0
            },
            {
                "start_time": 67.53863636363636,
                "end_time": 68.73863636363636,
                "pitch": 57,
                "velocity": 32,
                "duration": 1.2000000000000028,
                "tempo": 120.0
            },
            {
                "start_time": 68.73863636363636,
                "end_time": 69.13863636363637,
                "pitch": 50,
                "velocity": 32,
                "duration": 0.4000000000000057,
                "tempo": 120.0
            },
            {
                "start_time": 69.13863636363637,
                "end_time": 69.45681818181818,
                "pitch": 47,
                "velocity": 32,
                "duration": 0.318181818181813,
                "tempo": 120.0
            },
            {
                "start_time": 69.53863636363636,
                "end_time": 69.93863636363636,
                "pitch": 45,
                "velocity": 32,
                "duration": 0.4000000000000057,
                "tempo": 120.0
            },
            {
                "start_time": 69.93863636363636,
                "end_time": 70.33863636363635,
                "pitch": 52,
                "velocity": 32,
                "duration": 0.3999999999999915,
                "tempo": 120.0
            },
            {
                "start_time": 70.33863636363635,
                "end_time": 70.74318181818181,
                "pitch": 57,
                "velocity": 32,
                "duration": 0.4045454545454561,
                "tempo": 120.0
            },
            {
                "start_time": 70.74318181818181,
                "end_time": 71.14772727272727,
                "pitch": 60,
                "velocity": 32,
                "duration": 0.4045454545454561,
                "tempo": 120.0
            },
            {
                "start_time": 71.14772727272727,
                "end_time": 72.77045454545454,
                "pitch": 69,
                "velocity": 32,
                "duration": 1.6227272727272748,
                "tempo": 120.0
            },
            {
                "start_time": 72.77045454545454,
                "end_time": 73.175,
                "pitch": 52,
                "velocity": 32,
                "duration": 0.4045454545454561,
                "tempo": 120.0
            },
            {
                "start_time": 73.175,
                "end_time": 73.58181818181818,
                "pitch": 59,
                "velocity": 51,
                "duration": 0.4068181818181813,
                "tempo": 120.0
            },
            {
                "start_time": 73.58181818181818,
                "end_time": 73.98181818181818,
                "pitch": 62,
                "velocity": 51,
                "duration": 0.4000000000000057,
                "tempo": 120.0
            },
            {
                "start_time": 73.98181818181818,
                "end_time": 74.38181818181818,
                "pitch": 59,
                "velocity": 51,
                "duration": 0.3999999999999915,
                "tempo": 120.0
            },
            {
                "start_time": 74.38181818181818,
                "end_time": 74.78181818181818,
                "pitch": 68,
                "velocity": 51,
                "duration": 0.4000000000000057,
                "tempo": 120.0
            },
            {
                "start_time": 74.78181818181818,
                "end_time": 75.18181818181817,
                "pitch": 59,
                "velocity": 51,
                "duration": 0.3999999999999915,
                "tempo": 120.0
            },
            {
                "start_time": 75.18181818181817,
                "end_time": 75.58181818181818,
                "pitch": 62,
                "velocity": 51,
                "duration": 0.4000000000000057,
                "tempo": 120.0
            },
            {
                "start_time": 75.58181818181818,
                "end_time": 75.89999999999999,
                "pitch": 59,
                "velocity": 32,
                "duration": 0.318181818181813,
                "tempo": 120.0
            },
            {
                "start_time": 75.98181818181818,
                "end_time": 76.38181818181818,
                "pitch": 52,
                "velocity": 32,
                "duration": 0.3999999999999915,
                "tempo": 120.0
            },
            {
                "start_time": 76.38181818181818,
                "end_time": 76.78181818181818,
                "pitch": 57,
                "velocity": 32,
                "duration": 0.4000000000000057,
                "tempo": 120.0
            },
            {
                "start_time": 76.78181818181818,
                "end_time": 77.18181818181817,
                "pitch": 60,
                "velocity": 32,
                "duration": 0.3999999999999915,
                "tempo": 120.0
            },
            {
                "start_time": 77.18181818181817,
                "end_time": 77.58181818181818,
                "pitch": 57,
                "velocity": 32,
                "duration": 0.4000000000000057,
                "tempo": 120.0
            },
            {
                "start_time": 77.58181818181818,
                "end_time": 77.98181818181818,
                "pitch": 64,
                "velocity": 32,
                "duration": 0.4000000000000057,
                "tempo": 120.0
            },
            {
                "start_time": 77.98181818181818,
                "end_time": 78.38181818181818,
                "pitch": 57,
                "velocity": 32,
                "duration": 0.3999999999999915,
                "tempo": 120.0
            },
            {
                "start_time": 78.38181818181818,
                "end_time": 78.78636363636363,
                "pitch": 60,
                "velocity": 32,
                "duration": 0.4045454545454561,
                "tempo": 120.0
            },
            {
                "start_time": 78.78636363636363,
                "end_time": 79.19090909090909,
                "pitch": 57,
                "velocity": 32,
                "duration": 0.4045454545454561,
                "tempo": 120.0
            },
            {
                "start_time": 79.19090909090909,
                "end_time": 79.59772727272727,
                "pitch": 52,
                "velocity": 32,
                "duration": 0.4068181818181813,
                "tempo": 120.0
            },
            {
                "start_time": 79.59772727272727,
                "end_time": 80.00227272727273,
                "pitch": 59,
                "velocity": 51,
                "duration": 0.4045454545454561,
                "tempo": 120.0
            },
            {
                "start_time": 80.00227272727273,
                "end_time": 80.40227272727272,
                "pitch": 62,
                "velocity": 51,
                "duration": 0.3999999999999915,
                "tempo": 120.0
            },
            {
                "start_time": 80.40227272727272,
                "end_time": 80.80227272727272,
                "pitch": 68,
                "velocity": 51,
                "duration": 0.4000000000000057,
                "tempo": 120.0
            },
            {
                "start_time": 80.80227272727272,
                "end_time": 81.20227272727273,
                "pitch": 62,
                "velocity": 51,
                "duration": 0.4000000000000057,
                "tempo": 120.0
            },
            {
                "start_time": 81.20227272727273,
                "end_time": 81.60227272727272,
                "pitch": 59,
                "velocity": 51,
                "duration": 0.3999999999999915,
                "tempo": 120.0
            },
            {
                "start_time": 81.60227272727272,
                "end_time": 82.0090909090909,
                "pitch": 52,
                "velocity": 51,
                "duration": 0.4068181818181813,
                "tempo": 120.0
            },
            {
                "start_time": 82.0090909090909,
                "end_time": 82.41363636363636,
                "pitch": 59,
                "velocity": 51,
                "duration": 0.4045454545454561,
                "tempo": 120.0
            },
            {
                "start_time": 82.41363636363636,
                "end_time": 82.81818181818181,
                "pitch": 52,
                "velocity": 32,
                "duration": 0.4045454545454561,
                "tempo": 120.0
            },
            {
                "start_time": 82.81818181818181,
                "end_time": 83.225,
                "pitch": 57,
                "velocity": 32,
                "duration": 0.4068181818181813,
                "tempo": 120.0
            },
            {
                "start_time": 83.225,
                "end_time": 83.625,
                "pitch": 60,
                "velocity": 32,
                "duration": 0.4000000000000057,
                "tempo": 120.0
            },
            {
                "start_time": 83.625,
                "end_time": 84.02499999999999,
                "pitch": 64,
                "velocity": 32,
                "duration": 0.3999999999999915,
                "tempo": 120.0
            },
            {
                "start_time": 84.02499999999999,
                "end_time": 84.825,
                "pitch": 60,
                "velocity": 32,
                "duration": 0.8000000000000114,
                "tempo": 120.0
            },
            {
                "start_time": 84.825,
                "end_time": 85.6340909090909,
                "pitch": 57,
                "velocity": 32,
                "duration": 0.809090909090898,
                "tempo": 120.0
            },
            {
                "start_time": 85.6340909090909,
                "end_time": 86.04090909090908,
                "pitch": 65,
                "velocity": 51,
                "duration": 0.4068181818181813,
                "tempo": 120.0
            },
            {
                "start_time": 86.04090909090908,
                "end_time": 86.44545454545454,
                "pitch": 57,
                "velocity": 51,
                "duration": 0.4045454545454561,
                "tempo": 120.0
            },
            {
                "start_time": 86.44545454545454,
                "end_time": 86.84545454545454,
                "pitch": 62,
                "velocity": 51,
                "duration": 0.4000000000000057,
                "tempo": 120.0
            },
            {
                "start_time": 86.84545454545454,
                "end_time": 87.16590909090908,
                "pitch": 65,
                "velocity": 51,
                "duration": 0.3204545454545382,
                "tempo": 120.0
            },
            {
                "start_time": 87.24545454545454,
                "end_time": 87.40454545454546,
                "pitch": 65,
                "velocity": 51,
                "duration": 0.15909090909092072,
                "tempo": 120.0
            },
            {
                "start_time": 87.44545454545454,
                "end_time": 87.56590909090909,
                "pitch": 67,
                "velocity": 32,
                "duration": 0.12045454545454959,
                "tempo": 120.0
            },
            {
                "start_time": 87.64545454545454,
                "end_time": 88.04545454545455,
                "pitch": 65,
                "velocity": 13,
                "duration": 0.4000000000000057,
                "tempo": 120.0
            },
            {
                "start_time": 88.04545454545455,
                "end_time": 88.44545454545454,
                "pitch": 62,
                "velocity": 13,
                "duration": 0.3999999999999915,
                "tempo": 120.0
            },
            {
                "start_time": 88.44545454545454,
                "end_time": 88.76590909090909,
                "pitch": 57,
                "velocity": 13,
                "duration": 0.32045454545455243,
                "tempo": 120.0
            },
            {
                "start_time": 88.84545454545454,
                "end_time": 89.24545454545454,
                "pitch": 64,
                "velocity": 51,
                "duration": 0.3999999999999915,
                "tempo": 120.0
            },
            {
                "start_time": 89.24545454545454,
                "end_time": 89.64545454545454,
                "pitch": 52,
                "velocity": 51,
                "duration": 0.4000000000000057,
                "tempo": 120.0
            },
            {
                "start_time": 89.64545454545454,
                "end_time": 90.05,
                "pitch": 57,
                "velocity": 51,
                "duration": 0.4045454545454561,
                "tempo": 120.0
            },
            {
                "start_time": 90.05,
                "end_time": 90.45681818181818,
                "pitch": 64,
                "velocity": 51,
                "duration": 0.4068181818181813,
                "tempo": 120.0
            },
            {
                "start_time": 90.45681818181818,
                "end_time": 90.86136363636363,
                "pitch": 60,
                "velocity": 51,
                "duration": 0.4045454545454561,
                "tempo": 120.0
            },
            {
                "start_time": 90.86136363636363,
                "end_time": 91.26590909090909,
                "pitch": 57,
                "velocity": 51,
                "duration": 0.4045454545454561,
                "tempo": 120.0
            },
            {
                "start_time": 91.26590909090909,
                "end_time": 91.66818181818181,
                "pitch": 52,
                "velocity": 51,
                "duration": 0.4022727272727167,
                "tempo": 120.0
            },
            {
                "start_time": 91.66818181818181,
                "end_time": 91.88636363636363,
                "pitch": 57,
                "velocity": 51,
                "duration": 0.2181818181818187,
                "tempo": 120.0
            },
            {
                "start_time": 92.06818181818181,
                "end_time": 92.46818181818182,
                "pitch": 57,
                "velocity": 32,
                "duration": 0.4000000000000057,
                "tempo": 120.0
            },
            {
                "start_time": 92.46818181818182,
                "end_time": 92.86818181818181,
                "pitch": 47,
                "velocity": 32,
                "duration": 0.3999999999999915,
                "tempo": 120.0
            },
            {
                "start_time": 92.86818181818181,
                "end_time": 93.27272727272727,
                "pitch": 50,
                "velocity": 32,
                "duration": 0.4045454545454561,
                "tempo": 120.0
            },
            {
                "start_time": 93.27272727272727,
                "end_time": 94.48863636363636,
                "pitch": 57,
                "velocity": 32,
                "duration": 1.2159090909090935,
                "tempo": 120.0
            },
            {
                "start_time": 94.48863636363636,
                "end_time": 94.88863636363637,
                "pitch": 50,
                "velocity": 32,
                "duration": 0.4000000000000057,
                "tempo": 120.0
            },
            {
                "start_time": 94.88863636363637,
                "end_time": 95.2090909090909,
                "pitch": 47,
                "velocity": 32,
                "duration": 0.3204545454545382,
                "tempo": 120.0
            },
            {
                "start_time": 95.28863636363636,
                "end_time": 95.68863636363636,
                "pitch": 45,
                "velocity": 32,
                "duration": 0.4000000000000057,
                "tempo": 120.0
            },
            {
                "start_time": 95.68863636363636,
                "end_time": 96.08863636363635,
                "pitch": 52,
                "velocity": 51,
                "duration": 0.3999999999999915,
                "tempo": 120.0
            },
            {
                "start_time": 96.08863636363635,
                "end_time": 96.48863636363636,
                "pitch": 57,
                "velocity": 51,
                "duration": 0.4000000000000057,
                "tempo": 120.0
            },
            {
                "start_time": 96.48863636363636,
                "end_time": 96.88863636363637,
                "pitch": 60,
                "velocity": 51,
                "duration": 0.4000000000000057,
                "tempo": 120.0
            },
            {
                "start_time": 96.88863636363637,
                "end_time": 98.5,
                "pitch": 69,
                "velocity": 51,
                "duration": 1.6113636363636346,
                "tempo": 120.0
            },
            {
                "start_time": 98.5,
                "end_time": 98.90454545454546,
                "pitch": 52,
                "velocity": 51,
                "duration": 0.4045454545454561,
                "tempo": 120.0
            },
            {
                "start_time": 98.90454545454546,
                "end_time": 99.3090909090909,
                "pitch": 57,
                "velocity": 51,
                "duration": 0.4045454545454419,
                "tempo": 120.0
            },
            {
                "start_time": 99.3090909090909,
                "end_time": 99.7090909090909,
                "pitch": 60,
                "velocity": 51,
                "duration": 0.4000000000000057,
                "tempo": 120.0
            },
            {
                "start_time": 99.7090909090909,
                "end_time": 100.10909090909091,
                "pitch": 57,
                "velocity": 51,
                "duration": 0.4000000000000057,
                "tempo": 120.0
            },
            {
                "start_time": 100.10909090909091,
                "end_time": 100.5090909090909,
                "pitch": 64,
                "velocity": 51,
                "duration": 0.3999999999999915,
                "tempo": 120.0
            },
            {
                "start_time": 100.5090909090909,
                "end_time": 100.9090909090909,
                "pitch": 57,
                "velocity": 51,
                "duration": 0.4000000000000057,
                "tempo": 120.0
            },
            {
                "start_time": 100.9090909090909,
                "end_time": 101.31590909090909,
                "pitch": 60,
                "velocity": 51,
                "duration": 0.4068181818181813,
                "tempo": 120.0
            },
            {
                "start_time": 101.31590909090909,
                "end_time": 101.72045454545454,
                "pitch": 57,
                "velocity": 51,
                "duration": 0.4045454545454561,
                "tempo": 120.0
            },
            {
                "start_time": 101.72045454545454,
                "end_time": 102.02499999999999,
                "pitch": 52,
                "velocity": 32,
                "duration": 0.30454545454544757,
                "tempo": 120.0
            },
            {
                "start_time": 102.12727272727273,
                "end_time": 102.53181818181818,
                "pitch": 57,
                "velocity": 32,
                "duration": 0.4045454545454561,
                "tempo": 120.0
            },
            {
                "start_time": 102.53181818181818,
                "end_time": 102.93181818181817,
                "pitch": 60,
                "velocity": 32,
                "duration": 0.3999999999999915,
                "tempo": 120.0
            },
            {
                "start_time": 102.93181818181817,
                "end_time": 103.33181818181818,
                "pitch": 52,
                "velocity": 32,
                "duration": 0.4000000000000057,
                "tempo": 120.0
            },
            {
                "start_time": 103.33181818181818,
                "end_time": 103.73181818181817,
                "pitch": 64,
                "velocity": 32,
                "duration": 0.3999999999999915,
                "tempo": 120.0
            },
            {
                "start_time": 103.73181818181817,
                "end_time": 104.13181818181818,
                "pitch": 60,
                "velocity": 32,
                "duration": 0.4000000000000057,
                "tempo": 120.0
            },
            {
                "start_time": 104.13181818181818,
                "end_time": 104.53181818181818,
                "pitch": 57,
                "velocity": 32,
                "duration": 0.4000000000000057,
                "tempo": 120.0
            },
            {
                "start_time": 104.53181818181818,
                "end_time": 104.93181818181817,
                "pitch": 52,
                "velocity": 32,
                "duration": 0.3999999999999915,
                "tempo": 120.0
            },
            {
                "start_time": 104.93181818181817,
                "end_time": 105.33181818181818,
                "pitch": 52,
                "velocity": 32,
                "duration": 0.4000000000000057,
                "tempo": 120.0
            },
            {
                "start_time": 105.33181818181818,
                "end_time": 105.73181818181817,
                "pitch": 59,
                "velocity": 32,
                "duration": 0.3999999999999915,
                "tempo": 120.0
            },
            {
                "start_time": 105.73181818181817,
                "end_time": 106.13636363636363,
                "pitch": 62,
                "velocity": 32,
                "duration": 0.4045454545454561,
                "tempo": 120.0
            },
            {
                "start_time": 106.13636363636363,
                "end_time": 106.54318181818181,
                "pitch": 59,
                "velocity": 32,
                "duration": 0.4068181818181813,
                "tempo": 120.0
            },
            {
                "start_time": 106.54318181818181,
                "end_time": 106.94772727272726,
                "pitch": 68,
                "velocity": 32,
                "duration": 0.4045454545454561,
                "tempo": 120.0
            },
            {
                "start_time": 106.94772727272726,
                "end_time": 107.35227272727272,
                "pitch": 62,
                "velocity": 32,
                "duration": 0.4045454545454561,
                "tempo": 120.0
            },
            {
                "start_time": 107.35227272727272,
                "end_time": 107.75227272727273,
                "pitch": 59,
                "velocity": 32,
                "duration": 0.4000000000000057,
                "tempo": 120.0
            },
            {
                "start_time": 107.75227272727273,
                "end_time": 108.07272727272726,
                "pitch": 62,
                "velocity": 32,
                "duration": 0.3204545454545382,
                "tempo": 120.0
            },
            {
                "start_time": 108.15227272727272,
                "end_time": 108.55227272727272,
                "pitch": 52,
                "velocity": 20,
                "duration": 0.4000000000000057,
                "tempo": 120.0
            },
            {
                "start_time": 108.55227272727272,
                "end_time": 108.95227272727273,
                "pitch": 57,
                "velocity": 20,
                "duration": 0.4000000000000057,
                "tempo": 120.0
            },
            {
                "start_time": 108.95227272727273,
                "end_time": 109.35227272727272,
                "pitch": 60,
                "velocity": 20,
                "duration": 0.3999999999999915,
                "tempo": 120.0
            },
            {
                "start_time": 109.35227272727272,
                "end_time": 109.75227272727273,
                "pitch": 64,
                "velocity": 20,
                "duration": 0.4000000000000057,
                "tempo": 120.0
            },
            {
                "start_time": 109.75227272727273,
                "end_time": 111.36363636363636,
                "pitch": 60,
                "velocity": 20,
                "duration": 1.6113636363636346,
                "tempo": 120.0
            },
            {
                "start_time": 111.36363636363636,
                "end_time": 111.76818181818182,
                "pitch": 52,
                "velocity": 20,
                "duration": 0.4045454545454561,
                "tempo": 120.0
            },
            {
                "start_time": 111.76818181818182,
                "end_time": 112.175,
                "pitch": 57,
                "velocity": 20,
                "duration": 0.4068181818181813,
                "tempo": 120.0
            },
            {
                "start_time": 112.175,
                "end_time": 112.57499999999999,
                "pitch": 60,
                "velocity": 20,
                "duration": 0.3999999999999915,
                "tempo": 120.0
            },
            {
                "start_time": 112.57499999999999,
                "end_time": 112.975,
                "pitch": 57,
                "velocity": 20,
                "duration": 0.4000000000000057,
                "tempo": 120.0
            },
            {
                "start_time": 112.975,
                "end_time": 113.375,
                "pitch": 64,
                "velocity": 20,
                "duration": 0.4000000000000057,
                "tempo": 120.0
            },
            {
                "start_time": 113.375,
                "end_time": 113.77499999999999,
                "pitch": 57,
                "velocity": 20,
                "duration": 0.3999999999999915,
                "tempo": 120.0
            },
            {
                "start_time": 113.77499999999999,
                "end_time": 114.175,
                "pitch": 60,
                "velocity": 20,
                "duration": 0.4000000000000057,
                "tempo": 120.0
            },
            {
                "start_time": 114.175,
                "end_time": 114.57499999999999,
                "pitch": 57,
                "velocity": 20,
                "duration": 0.3999999999999915,
                "tempo": 120.0
            },
            {
                "start_time": 114.57499999999999,
                "end_time": 114.975,
                "pitch": 64,
                "velocity": 51,
                "duration": 0.4000000000000057,
                "tempo": 120.0
            },
            {
                "start_time": 114.975,
                "end_time": 115.375,
                "pitch": 57,
                "velocity": 51,
                "duration": 0.4000000000000057,
                "tempo": 120.0
            },
            {
                "start_time": 115.375,
                "end_time": 115.77499999999999,
                "pitch": 60,
                "velocity": 51,
                "duration": 0.3999999999999915,
                "tempo": 120.0
            },
            {
                "start_time": 115.77499999999999,
                "end_time": 116.175,
                "pitch": 52,
                "velocity": 51,
                "duration": 0.4000000000000057,
                "tempo": 120.0
            },
            {
                "start_time": 116.175,
                "end_time": 116.57499999999999,
                "pitch": 64,
                "velocity": 51,
                "duration": 0.3999999999999915,
                "tempo": 120.0
            },
            {
                "start_time": 116.57499999999999,
                "end_time": 116.975,
                "pitch": 60,
                "velocity": 51,
                "duration": 0.4000000000000057,
                "tempo": 120.0
            },
            {
                "start_time": 116.975,
                "end_time": 117.37954545454545,
                "pitch": 57,
                "velocity": 51,
                "duration": 0.4045454545454561,
                "tempo": 120.0
            },
            {
                "start_time": 117.37954545454545,
                "end_time": 118.19090909090909,
                "pitch": 52,
                "velocity": 51,
                "duration": 0.8113636363636374,
                "tempo": 120.0
            },
            {
                "start_time": 118.19090909090909,
                "end_time": 118.59545454545454,
                "pitch": 59,
                "velocity": 51,
                "duration": 0.4045454545454561,
                "tempo": 120.0
            },
            {
                "start_time": 118.59545454545454,
                "end_time": 118.99545454545454,
                "pitch": 62,
                "velocity": 51,
                "duration": 0.3999999999999915,
                "tempo": 120.0
            },
            {
                "start_time": 118.99545454545454,
                "end_time": 119.39545454545454,
                "pitch": 59,
                "velocity": 51,
                "duration": 0.4000000000000057,
                "tempo": 120.0
            },
            {
                "start_time": 119.39545454545454,
                "end_time": 119.79545454545453,
                "pitch": 68,
                "velocity": 51,
                "duration": 0.3999999999999915,
                "tempo": 120.0
            },
            {
                "start_time": 119.79545454545453,
                "end_time": 120.19545454545454,
                "pitch": 62,
                "velocity": 51,
                "duration": 0.4000000000000057,
                "tempo": 120.0
            },
            {
                "start_time": 120.19545454545454,
                "end_time": 120.59545454545454,
                "pitch": 59,
                "velocity": 32,
                "duration": 0.4000000000000057,
                "tempo": 120.0
            },
            {
                "start_time": 120.59545454545454,
                "end_time": 120.99545454545454,
                "pitch": 62,
                "velocity": 51,
                "duration": 0.3999999999999915,
                "tempo": 120.0
            },
            {
                "start_time": 120.99545454545454,
                "end_time": 124.83636363636363,
                "pitch": 52,
                "velocity": 51,
                "duration": 3.8409090909090935,
                "tempo": 120.0
            }
        ]
    }
}