{
    "track_id": "01 Title Screen",
    "mood": "angry",
    "instruments": {
        "Vibraphone": [
            {
                "start_time": 0.2409090909090909,
                "end_time": 0.5909090909090908,
                "pitch": 57,
                "velocity": 101,
                "duration": 0.3499999999999999,
                "tempo": 120.0
            },
            {
                "start_time": 0.759090909090909,
                "end_time": 1.1022727272727273,
                "pitch": 57,
                "velocity": 101,
                "duration": 0.34318181818181825,
                "tempo": 120.0
            },
            {
                "start_time": 1.4431818181818181,
                "end_time": 1.7863636363636364,
                "pitch": 55,
                "velocity": 101,
                "duration": 0.34318181818181825,
                "tempo": 120.0
            },
            {
                "start_time": 1.9545454545454544,
                "end_time": 2.3045454545454542,
                "pitch": 53,
                "velocity": 101,
                "duration": 0.34999999999999987,
                "tempo": 120.0
            },
            {
                "start_time": 2.4727272727272727,
                "end_time": 2.8249999999999997,
                "pitch": 53,
                "velocity": 101,
                "duration": 0.35227272727272707,
                "tempo": 120.0
            },
            {
                "start_time": 3.1590909090909087,
                "end_time": 3.509090909090909,
                "pitch": 52,
                "velocity": 101,
                "duration": 0.3500000000000001,
                "tempo": 120.0
            },
            {
                "start_time": 3.702272727272727,
                "end_time": 3.7045454545454546,
                "pitch": 57,
                "velocity": 101,
                "duration": 0.002272727272727426,
                "tempo": 120.0
            }
        ],
        "Electric Guitar (clean)": [
            {
                "start_time": 0.2409090909090909,
                "end_time": 0.5909090909090908,
                "pitch": 53,
                "velocity": 127,
                "duration": 0.3499999999999999,
                "tempo": 120.0
            },
            {
                "start_time": 0.5909090909090908,
                "end_time": 0.759090909090909,
                "pitch": 50,
                "velocity": 127,
                "duration": 0.1681818181818182,
                "tempo": 120.0
            },
            {
                "start_time": 0.5909090909090908,
                "end_time": 0.759090909090909,
                "pitch": 50,
                "velocity": 127,
                "duration": 0.1681818181818182,
                "tempo": 120.0
            },
            {
                "start_time": 0.759090909090909,
                "end_time": 1.1022727272727273,
                "pitch": 53,
                "velocity": 127,
                "duration": 0.34318181818181825,
                "tempo": 120.0
            },
            {
                "start_time": 0.759090909090909,
                "end_time": 1.1022727272727273,
                "pitch": 53,
                "velocity": 127,
                "duration": 0.34318181818181825,
                "tempo": 120.0
            },
            {
                "start_time": 1.1022727272727273,
                "end_time": 1.4454545454545453,
                "pitch": 48,
                "velocity": 127,
                "duration": 0.34318181818181803,
                "tempo": 120.0
            },
            {
                "start_time": 1.1022727272727273,
                "end_time": 1.4454545454545453,
                "pitch": 48,
                "velocity": 127,
                "duration": 0.34318181818181803,
                "tempo": 120.0
            },
            {
                "start_time": 1.4454545454545453,
                "end_time": 1.7886363636363636,
                "pitch": 52,
                "velocity": 127,
                "duration": 0.34318181818181825,
                "tempo": 120.0
            },
            {
                "start_time": 1.4454545454545453,
                "end_time": 1.7886363636363636,
                "pitch": 52,
                "velocity": 127,
                "duration": 0.34318181818181825,
                "tempo": 120.0
            },
            {
                "start_time": 1.7886363636363636,
                "end_time": 1.9545454545454544,
                "pitch": 46,
                "velocity": 127,
                "duration": 0.16590909090909078,
                "tempo": 120.0
            },
            {
                "start_time": 1.7886363636363636,
                "end_time": 2.3045454545454542,
                "pitch": 26,
                "velocity": 127,
                "duration": 0.5159090909090907,
                "tempo": 120.0
            },
            {
                "start_time": 1.9545454545454544,
                "end_time": 2.3045454545454542,
                "pitch": 50,
                "velocity": 127,
                "duration": 0.34999999999999987,
                "tempo": 120.0
            },
            {
                "start_time": 2.3045454545454542,
                "end_time": 2.475,
                "pitch": 46,
                "velocity": 127,
                "duration": 0.17045454545454586,
                "tempo": 120.0
            },
            {
                "start_time": 1.9545454545454544,
                "end_time": 2.475,
                "pitch": 53,
                "velocity": 127,
                "duration": 0.5204545454545457,
                "tempo": 120.0
            },
            {
                "start_time": 2.475,
                "end_time": 2.8249999999999997,
                "pitch": 50,
                "velocity": 127,
                "duration": 0.34999999999999964,
                "tempo": 120.0
            },
            {
                "start_time": 2.8249999999999997,
                "end_time": 3.1590909090909087,
                "pitch": 45,
                "velocity": 127,
                "duration": 0.334090909090909,
                "tempo": 120.0
            },
            {
                "start_time": 3.1590909090909087,
                "end_time": 3.509090909090909,
                "pitch": 49,
                "velocity": 127,
                "duration": 0.3500000000000001,
                "tempo": 120.0
            },
            {
                "start_time": 3.5318181818181817,
                "end_time": 3.7045454545454546,
                "pitch": 50,
                "velocity": 127,
                "duration": 0.17272727272727284,
                "tempo": 120.0
            }
        ]
    }
}