{
    "track_id": "02 Area-1 (Graveyard - The Deep Sea)",
    "mood": "angry",
    "instruments": {
        "Electric Piano 1": [
            {
                "start_time": 0.031818181818181815,
                "end_time": 0.24545454545454545,
                "pitch": 48,
                "velocity": 64,
                "duration": 0.21363636363636362,
                "tempo": 120.0
            },
            {
                "start_time": 0.24545454545454545,
                "end_time": 0.2954545454545454,
                "pitch": 48,
                "velocity": 64,
                "duration": 0.04999999999999996,
                "tempo": 120.0
            },
            {
                "start_time": 0.2954545454545454,
                "end_time": 0.3795454545454545,
                "pitch": 48,
                "velocity": 64,
                "duration": 0.0840909090909091,
                "tempo": 120.0
            },
            {
                "start_time": 0.3795454545454545,
                "end_time": 0.4295454545454545,
                "pitch": 48,
                "velocity": 64,
                "duration": 0.04999999999999999,
                "tempo": 120.0
            },
            {
                "start_time": 0.2954545454545454,
                "end_time": 0.4295454545454545,
                "pitch": 52,
                "velocity": 64,
                "duration": 0.1340909090909091,
                "tempo": 120.0
            },
            {
                "start_time": 0.3795454545454545,
                "end_time": 0.5136363636363636,
                "pitch": 36,
                "velocity": 64,
                "duration": 0.13409090909090904,
                "tempo": 120.0
            },
            {
                "start_time": 0.4295454545454545,
                "end_time": 0.5136363636363636,
                "pitch": 48,
                "velocity": 64,
                "duration": 0.08409090909090905,
                "tempo": 120.0
            },
            {
                "start_time": 0.5136363636363636,
                "end_time": 0.5659090909090909,
                "pitch": 48,
                "velocity": 64,
                "duration": 0.05227272727272736,
                "tempo": 120.0
            },
            {
                "start_time": 0.4295454545454545,
                "end_time": 0.5659090909090909,
                "pitch": 52,
                "velocity": 64,
                "duration": 0.1363636363636364,
                "tempo": 120.0
            },
            {
                "start_time": 0.5659090909090909,
                "end_time": 0.6522727272727272,
                "pitch": 48,
                "velocity": 64,
                "duration": 0.08636363636363631,
                "tempo": 120.0
            },
            {
                "start_time": 0.6522727272727272,
                "end_time": 0.7022727272727273,
                "pitch": 48,
                "velocity": 64,
                "duration": 0.050000000000000044,
                "tempo": 120.0
            },
            {
                "start_time": 0.5659090909090909,
                "end_time": 0.7022727272727273,
                "pitch": 52,
                "velocity": 64,
                "duration": 0.13636363636363635,
                "tempo": 120.0
            },
            {
                "start_time": 0.5136363636363636,
                "end_time": 0.7886363636363636,
                "pitch": 36,
                "velocity": 64,
                "duration": 0.275,
                "tempo": 120.0
            },
            {
                "start_time": 0.7022727272727273,
                "end_time": 0.7886363636363636,
                "pitch": 48,
                "velocity": 64,
                "duration": 0.08636363636363631,
                "tempo": 120.0
            },
            {
                "start_time": 0.7886363636363636,
                "end_time": 0.8386363636363636,
                "pitch": 48,
                "velocity": 64,
                "duration": 0.050000000000000044,
                "tempo": 120.0
            },
            {
                "start_time": 0.7022727272727273,
                "end_time": 0.8386363636363636,
                "pitch": 52,
                "velocity": 64,
                "duration": 0.13636363636363635,
                "tempo": 120.0
            },
            {
                "start_time": 0.8386363636363636,
                "end_time": 0.8568181818181818,
                "pitch": 48,
                "velocity": 64,
                "duration": 0.018181818181818188,
                "tempo": 120.0
            },
            {
                "start_time": 0.8568181818181818,
                "end_time": 1.0613636363636363,
                "pitch": 53,
                "velocity": 64,
                "duration": 0.20454545454545447,
                "tempo": 120.0
            },
            {
                "start_time": 0.8386363636363636,
                "end_time": 1.1636363636363636,
                "pitch": 52,
                "velocity": 64,
                "duration": 0.32499999999999996,
                "tempo": 120.0
            },
            {
                "start_time": 1.0613636363636363,
                "end_time": 1.1636363636363636,
                "pitch": 52,
                "velocity": 64,
                "duration": 0.10227272727272729,
                "tempo": 120.0
            },
            {
                "start_time": 1.1659090909090908,
                "end_time": 1.384090909090909,
                "pitch": 48,
                "velocity": 64,
                "duration": 0.21818181818181825,
                "tempo": 120.0
            },
            {
                "start_time": 1.384090909090909,
                "end_time": 1.4318181818181817,
                "pitch": 48,
                "velocity": 64,
                "duration": 0.04772727272727262,
                "tempo": 120.0
            },
            {
                "start_time": 1.4318181818181817,
                "end_time": 1.4659090909090908,
                "pitch": 48,
                "velocity": 64,
                "duration": 0.03409090909090917,
                "tempo": 120.0
            },
            {
                "start_time": 1.4659090909090908,
                "end_time": 1.6659090909090908,
                "pitch": 50,
                "velocity": 64,
                "duration": 0.19999999999999996,
                "tempo": 120.0
            },
            {
                "start_time": 1.6659090909090908,
                "end_time": 1.8818181818181818,
                "pitch": 48,
                "velocity": 64,
                "duration": 0.21590909090909105,
                "tempo": 120.0
            },
            {
                "start_time": 1.8818181818181818,
                "end_time": 1.9318181818181817,
                "pitch": 48,
                "velocity": 64,
                "duration": 0.04999999999999982,
                "tempo": 120.0
            },
            {
                "start_time": 1.4318181818181817,
                "end_time": 1.9318181818181817,
                "pitch": 52,
                "velocity": 64,
                "duration": 0.5,
                "tempo": 120.0
            },
            {
                "start_time": 0.7886363636363636,
                "end_time": 2.0159090909090907,
                "pitch": 36,
                "velocity": 64,
                "duration": 1.227272727272727,
                "tempo": 120.0
            },
            {
                "start_time": 1.9318181818181817,
                "end_time": 2.0159090909090907,
                "pitch": 48,
                "velocity": 64,
                "duration": 0.084090909090909,
                "tempo": 120.0
            },
            {
                "start_time": 2.0159090909090907,
                "end_time": 2.065909090909091,
                "pitch": 48,
                "velocity": 64,
                "duration": 0.050000000000000266,
                "tempo": 120.0
            },
            {
                "start_time": 1.9318181818181817,
                "end_time": 2.065909090909091,
                "pitch": 52,
                "velocity": 64,
                "duration": 0.13409090909090926,
                "tempo": 120.0
            },
            {
                "start_time": 2.065909090909091,
                "end_time": 2.1522727272727273,
                "pitch": 48,
                "velocity": 64,
                "duration": 0.08636363636363642,
                "tempo": 120.0
            },
            {
                "start_time": 2.1522727272727273,
                "end_time": 2.2045454545454546,
                "pitch": 48,
                "velocity": 64,
                "duration": 0.05227272727272725,
                "tempo": 120.0
            },
            {
                "start_time": 2.065909090909091,
                "end_time": 2.2045454545454546,
                "pitch": 52,
                "velocity": 64,
                "duration": 0.13863636363636367,
                "tempo": 120.0
            },
            {
                "start_time": 2.2045454545454546,
                "end_time": 2.293181818181818,
                "pitch": 48,
                "velocity": 64,
                "duration": 0.0886363636363634,
                "tempo": 120.0
            },
            {
                "start_time": 2.293181818181818,
                "end_time": 2.3454545454545452,
                "pitch": 48,
                "velocity": 64,
                "duration": 0.05227272727272725,
                "tempo": 120.0
            },
            {
                "start_time": 2.2045454545454546,
                "end_time": 2.3454545454545452,
                "pitch": 52,
                "velocity": 64,
                "duration": 0.14090909090909065,
                "tempo": 120.0
            },
            {
                "start_time": 2.0159090909090907,
                "end_time": 2.434090909090909,
                "pitch": 36,
                "velocity": 64,
                "duration": 0.41818181818181843,
                "tempo": 120.0
            },
            {
                "start_time": 2.3454545454545452,
                "end_time": 2.434090909090909,
                "pitch": 48,
                "velocity": 64,
                "duration": 0.08863636363636385,
                "tempo": 120.0
            },
            {
                "start_time": 2.434090909090909,
                "end_time": 2.4863636363636363,
                "pitch": 48,
                "velocity": 64,
                "duration": 0.05227272727272725,
                "tempo": 120.0
            },
            {
                "start_time": 2.3454545454545452,
                "end_time": 2.4863636363636363,
                "pitch": 52,
                "velocity": 64,
                "duration": 0.1409090909090911,
                "tempo": 120.0
            },
            {
                "start_time": 2.4863636363636363,
                "end_time": 2.502272727272727,
                "pitch": 48,
                "velocity": 64,
                "duration": 0.01590909090909065,
                "tempo": 120.0
            },
            {
                "start_time": 2.5045454545454544,
                "end_time": 3.318181818181818,
                "pitch": 47,
                "velocity": 64,
                "duration": 0.8136363636363635,
                "tempo": 120.0
            },
            {
                "start_time": 2.434090909090909,
                "end_time": 3.5409090909090906,
                "pitch": 36,
                "velocity": 64,
                "duration": 1.1068181818181815,
                "tempo": 120.0
            },
            {
                "start_time": 3.3204545454545453,
                "end_time": 3.5409090909090906,
                "pitch": 48,
                "velocity": 64,
                "duration": 0.22045454545454524,
                "tempo": 120.0
            },
            {
                "start_time": 3.5409090909090906,
                "end_time": 3.593181818181818,
                "pitch": 48,
                "velocity": 64,
                "duration": 0.05227272727272725,
                "tempo": 120.0
            },
            {
                "start_time": 2.4863636363636363,
                "end_time": 3.593181818181818,
                "pitch": 52,
                "velocity": 64,
                "duration": 1.1068181818181815,
                "tempo": 120.0
            },
            {
                "start_time": 3.5409090909090906,
                "end_time": 3.6772727272727272,
                "pitch": 36,
                "velocity": 64,
                "duration": 0.1363636363636367,
                "tempo": 120.0
            },
            {
                "start_time": 3.593181818181818,
                "end_time": 3.6772727272727272,
                "pitch": 48,
                "velocity": 64,
                "duration": 0.08409090909090944,
                "tempo": 120.0
            },
            {
                "start_time": 3.6772727272727272,
                "end_time": 3.7295454545454545,
                "pitch": 48,
                "velocity": 64,
                "duration": 0.05227272727272725,
                "tempo": 120.0
            },
            {
                "start_time": 3.593181818181818,
                "end_time": 3.7295454545454545,
                "pitch": 52,
                "velocity": 64,
                "duration": 0.1363636363636367,
                "tempo": 120.0
            },
            {
                "start_time": 3.7295454545454545,
                "end_time": 3.811363636363636,
                "pitch": 48,
                "velocity": 64,
                "duration": 0.08181818181818157,
                "tempo": 120.0
            },
            {
                "start_time": 3.811363636363636,
                "end_time": 3.8613636363636363,
                "pitch": 48,
                "velocity": 64,
                "duration": 0.050000000000000266,
                "tempo": 120.0
            },
            {
                "start_time": 3.7295454545454545,
                "end_time": 3.8613636363636363,
                "pitch": 52,
                "velocity": 64,
                "duration": 0.13181818181818183,
                "tempo": 120.0
            },
            {
                "start_time": 3.6772727272727272,
                "end_time": 3.9454545454545453,
                "pitch": 36,
                "velocity": 64,
                "duration": 0.2681818181818181,
                "tempo": 120.0
            },
            {
                "start_time": 3.8613636363636363,
                "end_time": 3.9454545454545453,
                "pitch": 48,
                "velocity": 64,
                "duration": 0.084090909090909,
                "tempo": 120.0
            },
            {
                "start_time": 3.9454545454545453,
                "end_time": 3.995454545454545,
                "pitch": 48,
                "velocity": 64,
                "duration": 0.04999999999999982,
                "tempo": 120.0
            },
            {
                "start_time": 3.995454545454545,
                "end_time": 4.077272727272727,
                "pitch": 48,
                "velocity": 64,
                "duration": 0.08181818181818201,
                "tempo": 120.0
            },
            {
                "start_time": 4.077272727272727,
                "end_time": 4.127272727272727,
                "pitch": 48,
                "velocity": 64,
                "duration": 0.04999999999999982,
                "tempo": 120.0
            },
            {
                "start_time": 4.129545454545454,
                "end_time": 4.329545454545454,
                "pitch": 53,
                "velocity": 64,
                "duration": 0.20000000000000018,
                "tempo": 120.0
            },
            {
                "start_time": 3.8613636363636363,
                "end_time": 4.429545454545455,
                "pitch": 52,
                "velocity": 64,
                "duration": 0.5681818181818183,
                "tempo": 120.0
            },
            {
                "start_time": 4.329545454545454,
                "end_time": 4.429545454545455,
                "pitch": 52,
                "velocity": 64,
                "duration": 0.10000000000000053,
                "tempo": 120.0
            },
            {
                "start_time": 3.9454545454545453,
                "end_time": 4.652272727272727,
                "pitch": 36,
                "velocity": 64,
                "duration": 0.706818181818182,
                "tempo": 120.0
            },
            {
                "start_time": 4.429545454545455,
                "end_time": 4.652272727272727,
                "pitch": 48,
                "velocity": 64,
                "duration": 0.22272727272727266,
                "tempo": 120.0
            },
            {
                "start_time": 4.652272727272727,
                "end_time": 4.704545454545454,
                "pitch": 48,
                "velocity": 64,
                "duration": 0.052272727272726804,
                "tempo": 120.0
            },
            {
                "start_time": 4.704545454545454,
                "end_time": 4.756818181818182,
                "pitch": 48,
                "velocity": 64,
                "duration": 0.05227272727272769,
                "tempo": 120.0
            },
            {
                "start_time": 4.759090909090909,
                "end_time": 4.968181818181818,
                "pitch": 50,
                "velocity": 64,
                "duration": 0.209090909090909,
                "tempo": 120.0
            },
            {
                "start_time": 4.970454545454545,
                "end_time": 5.184090909090909,
                "pitch": 48,
                "velocity": 64,
                "duration": 0.21363636363636385,
                "tempo": 120.0
            },
            {
                "start_time": 5.184090909090909,
                "end_time": 5.2340909090909085,
                "pitch": 48,
                "velocity": 64,
                "duration": 0.04999999999999982,
                "tempo": 120.0
            },
            {
                "start_time": 4.704545454545454,
                "end_time": 5.2340909090909085,
                "pitch": 52,
                "velocity": 64,
                "duration": 0.5295454545454543,
                "tempo": 120.0
            },
            {
                "start_time": 4.652272727272727,
                "end_time": 5.318181818181818,
                "pitch": 36,
                "velocity": 64,
                "duration": 0.665909090909091,
                "tempo": 120.0
            },
            {
                "start_time": 5.2340909090909085,
                "end_time": 5.318181818181818,
                "pitch": 48,
                "velocity": 64,
                "duration": 0.08409090909090988,
                "tempo": 120.0
            },
            {
                "start_time": 5.318181818181818,
                "end_time": 5.368181818181818,
                "pitch": 48,
                "velocity": 64,
                "duration": 0.04999999999999982,
                "tempo": 120.0
            },
            {
                "start_time": 5.2340909090909085,
                "end_time": 5.368181818181818,
                "pitch": 52,
                "velocity": 64,
                "duration": 0.1340909090909097,
                "tempo": 120.0
            },
            {
                "start_time": 5.318181818181818,
                "end_time": 5.452272727272727,
                "pitch": 36,
                "velocity": 64,
                "duration": 0.13409090909090882,
                "tempo": 120.0
            },
            {
                "start_time": 5.368181818181818,
                "end_time": 5.452272727272727,
                "pitch": 48,
                "velocity": 64,
                "duration": 0.084090909090909,
                "tempo": 120.0
            },
            {
                "start_time": 5.452272727272727,
                "end_time": 5.502272727272727,
                "pitch": 48,
                "velocity": 64,
                "duration": 0.04999999999999982,
                "tempo": 120.0
            },
            {
                "start_time": 5.502272727272727,
                "end_time": 5.584090909090909,
                "pitch": 48,
                "velocity": 64,
                "duration": 0.08181818181818201,
                "tempo": 120.0
            },
            {
                "start_time": 5.452272727272727,
                "end_time": 5.586363636363636,
                "pitch": 36,
                "velocity": 64,
                "duration": 0.13409090909090882,
                "tempo": 120.0
            },
            {
                "start_time": 5.584090909090909,
                "end_time": 5.586363636363636,
                "pitch": 36,
                "velocity": 64,
                "duration": 0.002272727272726982,
                "tempo": 120.0
            },
            {
                "start_time": 5.586363636363636,
                "end_time": 5.636363636363636,
                "pitch": 48,
                "velocity": 64,
                "duration": 0.04999999999999982,
                "tempo": 120.0
            },
            {
                "start_time": 5.368181818181818,
                "end_time": 5.636363636363636,
                "pitch": 52,
                "velocity": 64,
                "duration": 0.26818181818181763,
                "tempo": 120.0
            },
            {
                "start_time": 5.636363636363636,
                "end_time": 5.718181818181818,
                "pitch": 48,
                "velocity": 64,
                "duration": 0.08181818181818201,
                "tempo": 120.0
            },
            {
                "start_time": 5.718181818181818,
                "end_time": 5.7704545454545455,
                "pitch": 48,
                "velocity": 64,
                "duration": 0.05227272727272769,
                "tempo": 120.0
            },
            {
                "start_time": 5.7704545454545455,
                "end_time": 5.786363636363636,
                "pitch": 48,
                "velocity": 64,
                "duration": 0.01590909090909065,
                "tempo": 120.0
            },
            {
                "start_time": 5.786363636363636,
                "end_time": 6.595454545454545,
                "pitch": 47,
                "velocity": 64,
                "duration": 0.8090909090909086,
                "tempo": 120.0
            },
            {
                "start_time": 5.718181818181818,
                "end_time": 6.8136363636363635,
                "pitch": 36,
                "velocity": 64,
                "duration": 1.0954545454545457,
                "tempo": 120.0
            },
            {
                "start_time": 6.597727272727273,
                "end_time": 6.8136363636363635,
                "pitch": 48,
                "velocity": 64,
                "duration": 0.21590909090909083,
                "tempo": 120.0
            },
            {
                "start_time": 6.8136363636363635,
                "end_time": 6.863636363636363,
                "pitch": 48,
                "velocity": 64,
                "duration": 0.04999999999999982,
                "tempo": 120.0
            },
            {
                "start_time": 6.8136363636363635,
                "end_time": 6.947727272727272,
                "pitch": 36,
                "velocity": 64,
                "duration": 0.13409090909090882,
                "tempo": 120.0
            },
            {
                "start_time": 6.863636363636363,
                "end_time": 6.947727272727272,
                "pitch": 48,
                "velocity": 64,
                "duration": 0.084090909090909,
                "tempo": 120.0
            },
            {
                "start_time": 6.947727272727272,
                "end_time": 6.997727272727272,
                "pitch": 48,
                "velocity": 64,
                "duration": 0.04999999999999982,
                "tempo": 120.0
            },
            {
                "start_time": 6.947727272727272,
                "end_time": 7.084090909090909,
                "pitch": 36,
                "velocity": 64,
                "duration": 0.1363636363636367,
                "tempo": 120.0
            },
            {
                "start_time": 6.997727272727272,
                "end_time": 7.084090909090909,
                "pitch": 48,
                "velocity": 64,
                "duration": 0.08636363636363686,
                "tempo": 120.0
            },
            {
                "start_time": 7.084090909090909,
                "end_time": 7.136363636363636,
                "pitch": 48,
                "velocity": 64,
                "duration": 0.052272727272726804,
                "tempo": 120.0
            },
            {
                "start_time": 5.636363636363636,
                "end_time": 7.136363636363636,
                "pitch": 52,
                "velocity": 64,
                "duration": 1.5,
                "tempo": 120.0
            },
            {
                "start_time": 7.136363636363636,
                "end_time": 7.225,
                "pitch": 48,
                "velocity": 64,
                "duration": 0.08863636363636385,
                "tempo": 120.0
            },
            {
                "start_time": 7.225,
                "end_time": 7.277272727272727,
                "pitch": 48,
                "velocity": 64,
                "duration": 0.05227272727272769,
                "tempo": 120.0
            },
            {
                "start_time": 7.136363636363636,
                "end_time": 7.277272727272727,
                "pitch": 52,
                "velocity": 64,
                "duration": 0.14090909090909154,
                "tempo": 120.0
            },
            {
                "start_time": 7.277272727272727,
                "end_time": 7.36590909090909,
                "pitch": 48,
                "velocity": 64,
                "duration": 0.08863636363636296,
                "tempo": 120.0
            },
            {
                "start_time": 7.36590909090909,
                "end_time": 7.418181818181818,
                "pitch": 48,
                "velocity": 64,
                "duration": 0.05227272727272769,
                "tempo": 120.0
            },
            {
                "start_time": 7.277272727272727,
                "end_time": 7.418181818181818,
                "pitch": 52,
                "velocity": 64,
                "duration": 0.14090909090909065,
                "tempo": 120.0
            },
            {
                "start_time": 7.418181818181818,
                "end_time": 7.436363636363636,
                "pitch": 48,
                "velocity": 64,
                "duration": 0.018181818181817633,
                "tempo": 120.0
            },
            {
                "start_time": 7.436363636363636,
                "end_time": 7.631818181818182,
                "pitch": 53,
                "velocity": 64,
                "duration": 0.1954545454545462,
                "tempo": 120.0
            },
            {
                "start_time": 7.418181818181818,
                "end_time": 7.7295454545454545,
                "pitch": 52,
                "velocity": 64,
                "duration": 0.3113636363636365,
                "tempo": 120.0
            },
            {
                "start_time": 7.631818181818182,
                "end_time": 7.7295454545454545,
                "pitch": 52,
                "velocity": 64,
                "duration": 0.09772727272727266,
                "tempo": 120.0
            },
            {
                "start_time": 7.084090909090909,
                "end_time": 7.945454545454545,
                "pitch": 36,
                "velocity": 64,
                "duration": 0.8613636363636363,
                "tempo": 120.0
            },
            {
                "start_time": 7.7295454545454545,
                "end_time": 7.945454545454545,
                "pitch": 48,
                "velocity": 64,
                "duration": 0.21590909090909083,
                "tempo": 120.0
            },
            {
                "start_time": 7.945454545454545,
                "end_time": 7.997727272727272,
                "pitch": 48,
                "velocity": 64,
                "duration": 0.052272727272726804,
                "tempo": 120.0
            },
            {
                "start_time": 7.997727272727272,
                "end_time": 8.031818181818181,
                "pitch": 48,
                "velocity": 64,
                "duration": 0.03409090909090917,
                "tempo": 120.0
            },
            {
                "start_time": 8.031818181818181,
                "end_time": 8.236363636363636,
                "pitch": 50,
                "velocity": 64,
                "duration": 0.20454545454545503,
                "tempo": 120.0
            },
            {
                "start_time": 7.945454545454545,
                "end_time": 8.454545454545453,
                "pitch": 36,
                "velocity": 64,
                "duration": 0.5090909090909079,
                "tempo": 120.0
            },
            {
                "start_time": 8.238636363636363,
                "end_time": 8.454545454545453,
                "pitch": 48,
                "velocity": 64,
                "duration": 0.21590909090908994,
                "tempo": 120.0
            },
            {
                "start_time": 8.454545454545453,
                "end_time": 8.502272727272727,
                "pitch": 48,
                "velocity": 64,
                "duration": 0.04772727272727373,
                "tempo": 120.0
            },
            {
                "start_time": 8.502272727272727,
                "end_time": 8.586363636363636,
                "pitch": 48,
                "velocity": 64,
                "duration": 0.084090909090909,
                "tempo": 120.0
            },
            {
                "start_time": 8.586363636363636,
                "end_time": 8.636363636363637,
                "pitch": 48,
                "velocity": 64,
                "duration": 0.05000000000000071,
                "tempo": 120.0
            },
            {
                "start_time": 8.454545454545453,
                "end_time": 8.720454545454546,
                "pitch": 36,
                "velocity": 64,
                "duration": 0.2659090909090924,
                "tempo": 120.0
            },
            {
                "start_time": 8.636363636363637,
                "end_time": 8.720454545454546,
                "pitch": 48,
                "velocity": 64,
                "duration": 0.084090909090909,
                "tempo": 120.0
            },
            {
                "start_time": 8.720454545454546,
                "end_time": 8.772727272727272,
                "pitch": 48,
                "velocity": 64,
                "duration": 0.052272727272725916,
                "tempo": 120.0
            },
            {
                "start_time": 8.720454545454546,
                "end_time": 8.85909090909091,
                "pitch": 36,
                "velocity": 64,
                "duration": 0.13863636363636367,
                "tempo": 120.0
            },
            {
                "start_time": 8.772727272727272,
                "end_time": 8.85909090909091,
                "pitch": 48,
                "velocity": 64,
                "duration": 0.08636363636363775,
                "tempo": 120.0
            },
            {
                "start_time": 8.85909090909091,
                "end_time": 8.909090909090908,
                "pitch": 48,
                "velocity": 64,
                "duration": 0.049999999999998934,
                "tempo": 120.0
            },
            {
                "start_time": 8.85909090909091,
                "end_time": 8.995454545454544,
                "pitch": 36,
                "velocity": 64,
                "duration": 0.1363636363636349,
                "tempo": 120.0
            },
            {
                "start_time": 8.909090909090908,
                "end_time": 8.995454545454544,
                "pitch": 48,
                "velocity": 64,
                "duration": 0.08636363636363598,
                "tempo": 120.0
            },
            {
                "start_time": 8.995454545454544,
                "end_time": 9.045454545454545,
                "pitch": 48,
                "velocity": 64,
                "duration": 0.05000000000000071,
                "tempo": 120.0
            },
            {
                "start_time": 9.045454545454545,
                "end_time": 9.063636363636363,
                "pitch": 48,
                "velocity": 64,
                "duration": 0.018181818181817633,
                "tempo": 120.0
            },
            {
                "start_time": 9.063636363636363,
                "end_time": 9.884090909090908,
                "pitch": 47,
                "velocity": 64,
                "duration": 0.8204545454545453,
                "tempo": 120.0
            },
            {
                "start_time": 8.995454545454544,
                "end_time": 10.111363636363636,
                "pitch": 36,
                "velocity": 64,
                "duration": 1.115909090909092,
                "tempo": 120.0
            },
            {
                "start_time": 9.884090909090908,
                "end_time": 10.111363636363636,
                "pitch": 48,
                "velocity": 64,
                "duration": 0.2272727272727284,
                "tempo": 120.0
            },
            {
                "start_time": 10.111363636363636,
                "end_time": 10.163636363636364,
                "pitch": 48,
                "velocity": 64,
                "duration": 0.05227272727272769,
                "tempo": 120.0
            },
            {
                "start_time": 8.636363636363637,
                "end_time": 10.163636363636364,
                "pitch": 52,
                "velocity": 64,
                "duration": 1.5272727272727273,
                "tempo": 120.0
            },
            {
                "start_time": 10.111363636363636,
                "end_time": 10.252272727272727,
                "pitch": 36,
                "velocity": 64,
                "duration": 0.14090909090909065,
                "tempo": 120.0
            },
            {
                "start_time": 10.163636363636364,
                "end_time": 10.252272727272727,
                "pitch": 48,
                "velocity": 64,
                "duration": 0.08863636363636296,
                "tempo": 120.0
            },
            {
                "start_time": 10.252272727272727,
                "end_time": 10.306818181818182,
                "pitch": 48,
                "velocity": 64,
                "duration": 0.054545454545454675,
                "tempo": 120.0
            },
            {
                "start_time": 10.163636363636364,
                "end_time": 10.306818181818182,
                "pitch": 52,
                "velocity": 64,
                "duration": 0.14318181818181763,
                "tempo": 120.0
            },
            {
                "start_time": 10.252272727272727,
                "end_time": 10.388636363636364,
                "pitch": 36,
                "velocity": 64,
                "duration": 0.1363636363636367,
                "tempo": 120.0
            },
            {
                "start_time": 10.306818181818182,
                "end_time": 10.388636363636364,
                "pitch": 48,
                "velocity": 64,
                "duration": 0.08181818181818201,
                "tempo": 120.0
            },
            {
                "start_time": 10.388636363636364,
                "end_time": 10.438636363636363,
                "pitch": 48,
                "velocity": 64,
                "duration": 0.049999999999998934,
                "tempo": 120.0
            },
            {
                "start_time": 10.306818181818182,
                "end_time": 10.438636363636363,
                "pitch": 52,
                "velocity": 64,
                "duration": 0.13181818181818095,
                "tempo": 120.0
            },
            {
                "start_time": 10.438636363636363,
                "end_time": 10.522727272727272,
                "pitch": 48,
                "velocity": 64,
                "duration": 0.084090909090909,
                "tempo": 120.0
            },
            {
                "start_time": 10.522727272727272,
                "end_time": 10.572727272727272,
                "pitch": 48,
                "velocity": 64,
                "duration": 0.05000000000000071,
                "tempo": 120.0
            },
            {
                "start_time": 10.438636363636363,
                "end_time": 10.572727272727272,
                "pitch": 52,
                "velocity": 64,
                "duration": 0.1340909090909097,
                "tempo": 120.0
            },
            {
                "start_time": 10.388636363636364,
                "end_time": 10.656818181818181,
                "pitch": 36,
                "velocity": 64,
                "duration": 0.26818181818181763,
                "tempo": 120.0
            },
            {
                "start_time": 10.572727272727272,
                "end_time": 10.656818181818181,
                "pitch": 48,
                "velocity": 64,
                "duration": 0.084090909090909,
                "tempo": 120.0
            },
            {
                "start_time": 10.656818181818181,
                "end_time": 10.706818181818182,
                "pitch": 48,
                "velocity": 64,
                "duration": 0.05000000000000071,
                "tempo": 120.0
            },
            {
                "start_time": 10.709090909090909,
                "end_time": 10.902272727272727,
                "pitch": 53,
                "velocity": 64,
                "duration": 0.19318181818181834,
                "tempo": 120.0
            },
            {
                "start_time": 10.572727272727272,
                "end_time": 11.0,
                "pitch": 52,
                "velocity": 64,
                "duration": 0.4272727272727277,
                "tempo": 120.0
            },
            {
                "start_time": 10.904545454545454,
                "end_time": 11.0,
                "pitch": 52,
                "velocity": 64,
                "duration": 0.09545454545454568,
                "tempo": 120.0
            },
            {
                "start_time": 10.656818181818181,
                "end_time": 11.220454545454546,
                "pitch": 36,
                "velocity": 64,
                "duration": 0.5636363636363644,
                "tempo": 120.0
            },
            {
                "start_time": 11.002272727272727,
                "end_time": 11.220454545454546,
                "pitch": 48,
                "velocity": 64,
                "duration": 0.2181818181818187,
                "tempo": 120.0
            },
            {
                "start_time": 11.220454545454546,
                "end_time": 11.272727272727272,
                "pitch": 48,
                "velocity": 64,
                "duration": 0.052272727272725916,
                "tempo": 120.0
            },
            {
                "start_time": 11.272727272727272,
                "end_time": 11.325,
                "pitch": 48,
                "velocity": 64,
                "duration": 0.05227272727272769,
                "tempo": 120.0
            },
            {
                "start_time": 11.327272727272726,
                "end_time": 11.536363636363635,
                "pitch": 50,
                "velocity": 64,
                "duration": 0.209090909090909,
                "tempo": 120.0
            },
            {
                "start_time": 11.536363636363635,
                "end_time": 11.752272727272727,
                "pitch": 48,
                "velocity": 64,
                "duration": 0.21590909090909172,
                "tempo": 120.0
            },
            {
                "start_time": 11.752272727272727,
                "end_time": 11.802272727272726,
                "pitch": 48,
                "velocity": 64,
                "duration": 0.049999999999998934,
                "tempo": 120.0
            },
            {
                "start_time": 11.272727272727272,
                "end_time": 11.802272727272726,
                "pitch": 52,
                "velocity": 64,
                "duration": 0.5295454545454543,
                "tempo": 120.0
            },
            {
                "start_time": 11.220454545454546,
                "end_time": 11.886363636363635,
                "pitch": 36,
                "velocity": 64,
                "duration": 0.6659090909090892,
                "tempo": 120.0
            },
            {
                "start_time": 11.802272727272726,
                "end_time": 11.886363636363635,
                "pitch": 48,
                "velocity": 64,
                "duration": 0.084090909090909,
                "tempo": 120.0
            },
            {
                "start_time": 11.886363636363635,
                "end_time": 11.936363636363636,
                "pitch": 48,
                "velocity": 64,
                "duration": 0.05000000000000071,
                "tempo": 120.0
            },
            {
                "start_time": 11.802272727272726,
                "end_time": 11.936363636363636,
                "pitch": 52,
                "velocity": 64,
                "duration": 0.1340909090909097,
                "tempo": 120.0
            },
            {
                "start_time": 11.886363636363635,
                "end_time": 12.018181818181818,
                "pitch": 36,
                "velocity": 64,
                "duration": 0.13181818181818272,
                "tempo": 120.0
            },
            {
                "start_time": 11.936363636363636,
                "end_time": 12.018181818181818,
                "pitch": 48,
                "velocity": 64,
                "duration": 0.08181818181818201,
                "tempo": 120.0
            },
            {
                "start_time": 12.018181818181818,
                "end_time": 12.070454545454545,
                "pitch": 48,
                "velocity": 64,
                "duration": 0.05227272727272769,
                "tempo": 120.0
            },
            {
                "start_time": 12.018181818181818,
                "end_time": 12.152272727272727,
                "pitch": 36,
                "velocity": 64,
                "duration": 0.1340909090909097,
                "tempo": 120.0
            },
            {
                "start_time": 12.070454545454545,
                "end_time": 12.152272727272727,
                "pitch": 48,
                "velocity": 64,
                "duration": 0.08181818181818201,
                "tempo": 120.0
            },
            {
                "start_time": 12.152272727272727,
                "end_time": 12.204545454545453,
                "pitch": 48,
                "velocity": 64,
                "duration": 0.052272727272725916,
                "tempo": 120.0
            },
            {
                "start_time": 11.936363636363636,
                "end_time": 12.204545454545453,
                "pitch": 52,
                "velocity": 64,
                "duration": 0.26818181818181763,
                "tempo": 120.0
            },
            {
                "start_time": 12.152272727272727,
                "end_time": 12.286363636363635,
                "pitch": 36,
                "velocity": 64,
                "duration": 0.13409090909090793,
                "tempo": 120.0
            },
            {
                "start_time": 12.204545454545453,
                "end_time": 12.286363636363635,
                "pitch": 48,
                "velocity": 64,
                "duration": 0.08181818181818201,
                "tempo": 120.0
            },
            {
                "start_time": 12.286363636363635,
                "end_time": 12.336363636363636,
                "pitch": 48,
                "velocity": 64,
                "duration": 0.05000000000000071,
                "tempo": 120.0
            },
            {
                "start_time": 12.336363636363636,
                "end_time": 12.354545454545454,
                "pitch": 48,
                "velocity": 64,
                "duration": 0.018181818181817633,
                "tempo": 120.0
            },
            {
                "start_time": 12.354545454545454,
                "end_time": 13.165909090909091,
                "pitch": 47,
                "velocity": 64,
                "duration": 0.8113636363636374,
                "tempo": 120.0
            },
            {
                "start_time": 12.286363636363635,
                "end_time": 13.384090909090908,
                "pitch": 36,
                "velocity": 64,
                "duration": 1.0977272727272727,
                "tempo": 120.0
            },
            {
                "start_time": 13.168181818181818,
                "end_time": 13.384090909090908,
                "pitch": 48,
                "velocity": 64,
                "duration": 0.21590909090908994,
                "tempo": 120.0
            },
            {
                "start_time": 13.384090909090908,
                "end_time": 13.434090909090909,
                "pitch": 48,
                "velocity": 64,
                "duration": 0.05000000000000071,
                "tempo": 120.0
            },
            {
                "start_time": 12.204545454545453,
                "end_time": 13.434090909090909,
                "pitch": 52,
                "velocity": 64,
                "duration": 1.2295454545454554,
                "tempo": 120.0
            },
            {
                "start_time": 13.384090909090908,
                "end_time": 13.518181818181818,
                "pitch": 36,
                "velocity": 64,
                "duration": 0.1340909090909097,
                "tempo": 120.0
            },
            {
                "start_time": 13.434090909090909,
                "end_time": 13.518181818181818,
                "pitch": 48,
                "velocity": 64,
                "duration": 0.084090909090909,
                "tempo": 120.0
            },
            {
                "start_time": 13.518181818181818,
                "end_time": 13.568181818181818,
                "pitch": 48,
                "velocity": 64,
                "duration": 0.05000000000000071,
                "tempo": 120.0
            },
            {
                "start_time": 13.434090909090909,
                "end_time": 13.568181818181818,
                "pitch": 52,
                "velocity": 64,
                "duration": 0.1340909090909097,
                "tempo": 120.0
            },
            {
                "start_time": 13.518181818181818,
                "end_time": 13.654545454545454,
                "pitch": 36,
                "velocity": 64,
                "duration": 0.1363636363636367,
                "tempo": 120.0
            },
            {
                "start_time": 13.568181818181818,
                "end_time": 13.654545454545454,
                "pitch": 48,
                "velocity": 64,
                "duration": 0.08636363636363598,
                "tempo": 120.0
            },
            {
                "start_time": 13.654545454545454,
                "end_time": 13.706818181818182,
                "pitch": 48,
                "velocity": 64,
                "duration": 0.05227272727272769,
                "tempo": 120.0
            },
            {
                "start_time": 13.568181818181818,
                "end_time": 13.706818181818182,
                "pitch": 52,
                "velocity": 64,
                "duration": 0.13863636363636367,
                "tempo": 120.0
            },
            {
                "start_time": 13.706818181818182,
                "end_time": 13.795454545454545,
                "pitch": 48,
                "velocity": 64,
                "duration": 0.08863636363636296,
                "tempo": 120.0
            },
            {
                "start_time": 13.795454545454545,
                "end_time": 13.847727272727273,
                "pitch": 48,
                "velocity": 64,
                "duration": 0.05227272727272769,
                "tempo": 120.0
            },
            {
                "start_time": 13.654545454545454,
                "end_time": 13.936363636363636,
                "pitch": 36,
                "velocity": 64,
                "duration": 0.2818181818181813,
                "tempo": 120.0
            },
            {
                "start_time": 13.847727272727273,
                "end_time": 13.936363636363636,
                "pitch": 48,
                "velocity": 64,
                "duration": 0.08863636363636296,
                "tempo": 120.0
            },
            {
                "start_time": 13.936363636363636,
                "end_time": 13.988636363636363,
                "pitch": 48,
                "velocity": 64,
                "duration": 0.05227272727272769,
                "tempo": 120.0
            },
            {
                "start_time": 13.706818181818182,
                "end_time": 13.988636363636363,
                "pitch": 52,
                "velocity": 64,
                "duration": 0.2818181818181813,
                "tempo": 120.0
            },
            {
                "start_time": 13.988636363636363,
                "end_time": 14.006818181818181,
                "pitch": 48,
                "velocity": 64,
                "duration": 0.018181818181817633,
                "tempo": 120.0
            },
            {
                "start_time": 14.006818181818181,
                "end_time": 14.206818181818182,
                "pitch": 53,
                "velocity": 64,
                "duration": 0.20000000000000107,
                "tempo": 120.0
            },
            {
                "start_time": 13.988636363636363,
                "end_time": 14.306818181818182,
                "pitch": 52,
                "velocity": 64,
                "duration": 0.31818181818181834,
                "tempo": 120.0
            },
            {
                "start_time": 14.206818181818182,
                "end_time": 14.306818181818182,
                "pitch": 52,
                "velocity": 64,
                "duration": 0.09999999999999964,
                "tempo": 120.0
            },
            {
                "start_time": 13.936363636363636,
                "end_time": 14.522727272727272,
                "pitch": 36,
                "velocity": 64,
                "duration": 0.586363636363636,
                "tempo": 120.0
            },
            {
                "start_time": 14.306818181818182,
                "end_time": 14.522727272727272,
                "pitch": 48,
                "velocity": 64,
                "duration": 0.21590909090908994,
                "tempo": 120.0
            },
            {
                "start_time": 14.522727272727272,
                "end_time": 14.572727272727272,
                "pitch": 48,
                "velocity": 64,
                "duration": 0.05000000000000071,
                "tempo": 120.0
            },
            {
                "start_time": 14.572727272727272,
                "end_time": 14.60681818181818,
                "pitch": 48,
                "velocity": 64,
                "duration": 0.034090909090908283,
                "tempo": 120.0
            },
            {
                "start_time": 14.60681818181818,
                "end_time": 14.806818181818182,
                "pitch": 50,
                "velocity": 64,
                "duration": 0.20000000000000107,
                "tempo": 120.0
            },
            {
                "start_time": 14.522727272727272,
                "end_time": 15.024999999999999,
                "pitch": 36,
                "velocity": 64,
                "duration": 0.502272727272727,
                "tempo": 120.0
            },
            {
                "start_time": 14.809090909090909,
                "end_time": 15.024999999999999,
                "pitch": 48,
                "velocity": 64,
                "duration": 0.21590909090908994,
                "tempo": 120.0
            },
            {
                "start_time": 15.024999999999999,
                "end_time": 15.075,
                "pitch": 48,
                "velocity": 64,
                "duration": 0.05000000000000071,
                "tempo": 120.0
            },
            {
                "start_time": 15.024999999999999,
                "end_time": 15.159090909090908,
                "pitch": 36,
                "velocity": 64,
                "duration": 0.1340909090909097,
                "tempo": 120.0
            },
            {
                "start_time": 15.075,
                "end_time": 15.159090909090908,
                "pitch": 48,
                "velocity": 64,
                "duration": 0.084090909090909,
                "tempo": 120.0
            },
            {
                "start_time": 15.159090909090908,
                "end_time": 15.209090909090909,
                "pitch": 48,
                "velocity": 64,
                "duration": 0.05000000000000071,
                "tempo": 120.0
            },
            {
                "start_time": 15.159090909090908,
                "end_time": 15.295454545454545,
                "pitch": 36,
                "velocity": 64,
                "duration": 0.1363636363636367,
                "tempo": 120.0
            },
            {
                "start_time": 15.209090909090909,
                "end_time": 15.295454545454545,
                "pitch": 48,
                "velocity": 64,
                "duration": 0.08636363636363598,
                "tempo": 120.0
            },
            {
                "start_time": 15.295454545454545,
                "end_time": 15.345454545454544,
                "pitch": 48,
                "velocity": 64,
                "duration": 0.049999999999998934,
                "tempo": 120.0
            },
            {
                "start_time": 15.295454545454545,
                "end_time": 15.431818181818182,
                "pitch": 36,
                "velocity": 64,
                "duration": 0.1363636363636367,
                "tempo": 120.0
            },
            {
                "start_time": 15.345454545454544,
                "end_time": 15.431818181818182,
                "pitch": 48,
                "velocity": 64,
                "duration": 0.08636363636363775,
                "tempo": 120.0
            },
            {
                "start_time": 15.431818181818182,
                "end_time": 15.48181818181818,
                "pitch": 48,
                "velocity": 64,
                "duration": 0.049999999999998934,
                "tempo": 120.0
            },
            {
                "start_time": 15.48181818181818,
                "end_time": 15.568181818181817,
                "pitch": 48,
                "velocity": 64,
                "duration": 0.08636363636363598,
                "tempo": 120.0
            },
            {
                "start_time": 15.568181818181817,
                "end_time": 15.620454545454544,
                "pitch": 48,
                "velocity": 64,
                "duration": 0.05227272727272769,
                "tempo": 120.0
            },
            {
                "start_time": 15.620454545454544,
                "end_time": 15.636363636363635,
                "pitch": 48,
                "velocity": 64,
                "duration": 0.01590909090909065,
                "tempo": 120.0
            },
            {
                "start_time": 15.636363636363635,
                "end_time": 16.456818181818182,
                "pitch": 47,
                "velocity": 64,
                "duration": 0.8204545454545471,
                "tempo": 120.0
            },
            {
                "start_time": 16.459090909090907,
                "end_time": 16.55909090909091,
                "pitch": 45,
                "velocity": 64,
                "duration": 0.10000000000000142,
                "tempo": 120.0
            },
            {
                "start_time": 16.55909090909091,
                "end_time": 16.661363636363635,
                "pitch": 50,
                "velocity": 64,
                "duration": 0.10227272727272663,
                "tempo": 120.0
            },
            {
                "start_time": 16.663636363636364,
                "end_time": 17.277272727272727,
                "pitch": 57,
                "velocity": 64,
                "duration": 0.6136363636363633,
                "tempo": 120.0
            },
            {
                "start_time": 17.895454545454545,
                "end_time": 18.0,
                "pitch": 48,
                "velocity": 64,
                "duration": 0.10454545454545539,
                "tempo": 120.0
            },
            {
                "start_time": 18.002272727272725,
                "end_time": 18.10681818181818,
                "pitch": 53,
                "velocity": 64,
                "duration": 0.10454545454545539,
                "tempo": 120.0
            },
            {
                "start_time": 18.10681818181818,
                "end_time": 18.32272727272727,
                "pitch": 60,
                "velocity": 64,
                "duration": 0.21590909090908994,
                "tempo": 120.0
            },
            {
                "start_time": 18.32272727272727,
                "end_time": 18.37272727272727,
                "pitch": 60,
                "velocity": 64,
                "duration": 0.05000000000000071,
                "tempo": 120.0
            },
            {
                "start_time": 18.32272727272727,
                "end_time": 18.456818181818182,
                "pitch": 48,
                "velocity": 64,
                "duration": 0.13409090909091148,
                "tempo": 120.0
            },
            {
                "start_time": 18.37272727272727,
                "end_time": 18.456818181818182,
                "pitch": 60,
                "velocity": 64,
                "duration": 0.08409090909091077,
                "tempo": 120.0
            },
            {
                "start_time": 18.456818181818182,
                "end_time": 18.50681818181818,
                "pitch": 60,
                "velocity": 64,
                "duration": 0.04999999999999716,
                "tempo": 120.0
            },
            {
                "start_time": 18.37272727272727,
                "end_time": 18.50681818181818,
                "pitch": 64,
                "velocity": 64,
                "duration": 0.13409090909090793,
                "tempo": 120.0
            },
            {
                "start_time": 18.456818181818182,
                "end_time": 18.58863636363636,
                "pitch": 48,
                "velocity": 64,
                "duration": 0.13181818181817917,
                "tempo": 120.0
            },
            {
                "start_time": 18.50681818181818,
                "end_time": 18.58863636363636,
                "pitch": 60,
                "velocity": 64,
                "duration": 0.08181818181818201,
                "tempo": 120.0
            },
            {
                "start_time": 18.58863636363636,
                "end_time": 18.64090909090909,
                "pitch": 60,
                "velocity": 64,
                "duration": 0.05227272727272947,
                "tempo": 120.0
            },
            {
                "start_time": 18.50681818181818,
                "end_time": 18.64090909090909,
                "pitch": 64,
                "velocity": 64,
                "duration": 0.13409090909091148,
                "tempo": 120.0
            },
            {
                "start_time": 18.58863636363636,
                "end_time": 18.724999999999998,
                "pitch": 48,
                "velocity": 64,
                "duration": 0.1363636363636367,
                "tempo": 120.0
            },
            {
                "start_time": 18.64090909090909,
                "end_time": 18.724999999999998,
                "pitch": 60,
                "velocity": 64,
                "duration": 0.08409090909090722,
                "tempo": 120.0
            },
            {
                "start_time": 18.724999999999998,
                "end_time": 18.772727272727273,
                "pitch": 60,
                "velocity": 64,
                "duration": 0.047727272727275505,
                "tempo": 120.0
            },
            {
                "start_time": 18.64090909090909,
                "end_time": 18.772727272727273,
                "pitch": 64,
                "velocity": 64,
                "duration": 0.13181818181818272,
                "tempo": 120.0
            },
            {
                "start_time": 18.724999999999998,
                "end_time": 18.85681818181818,
                "pitch": 48,
                "velocity": 64,
                "duration": 0.13181818181818272,
                "tempo": 120.0
            },
            {
                "start_time": 18.772727272727273,
                "end_time": 18.85681818181818,
                "pitch": 60,
                "velocity": 64,
                "duration": 0.08409090909090722,
                "tempo": 120.0
            },
            {
                "start_time": 18.85681818181818,
                "end_time": 18.90681818181818,
                "pitch": 60,
                "velocity": 64,
                "duration": 0.05000000000000071,
                "tempo": 120.0
            },
            {
                "start_time": 18.772727272727273,
                "end_time": 18.90681818181818,
                "pitch": 64,
                "velocity": 64,
                "duration": 0.13409090909090793,
                "tempo": 120.0
            },
            {
                "start_time": 18.90681818181818,
                "end_time": 18.925,
                "pitch": 60,
                "velocity": 64,
                "duration": 0.01818181818181941,
                "tempo": 120.0
            },
            {
                "start_time": 19.129545454545454,
                "end_time": 19.334090909090907,
                "pitch": 60,
                "velocity": 64,
                "duration": 0.20454545454545325,
                "tempo": 120.0
            },
            {
                "start_time": 19.336363636363636,
                "end_time": 19.534090909090907,
                "pitch": 59,
                "velocity": 64,
                "duration": 0.19772727272727053,
                "tempo": 120.0
            },
            {
                "start_time": 19.534090909090907,
                "end_time": 19.73409090909091,
                "pitch": 55,
                "velocity": 64,
                "duration": 0.20000000000000284,
                "tempo": 120.0
            },
            {
                "start_time": 19.73409090909091,
                "end_time": 19.834090909090907,
                "pitch": 45,
                "velocity": 64,
                "duration": 0.09999999999999787,
                "tempo": 120.0
            },
            {
                "start_time": 19.834090909090907,
                "end_time": 19.952272727272728,
                "pitch": 50,
                "velocity": 64,
                "duration": 0.11818181818182083,
                "tempo": 120.0
            },
            {
                "start_time": 19.952272727272728,
                "end_time": 20.575,
                "pitch": 57,
                "velocity": 64,
                "duration": 0.6227272727272712,
                "tempo": 120.0
            },
            {
                "start_time": 18.85681818181818,
                "end_time": 21.29090909090909,
                "pitch": 48,
                "velocity": 64,
                "duration": 2.4340909090909086,
                "tempo": 120.0
            },
            {
                "start_time": 21.193181818181817,
                "end_time": 21.29090909090909,
                "pitch": 48,
                "velocity": 64,
                "duration": 0.09772727272727266,
                "tempo": 120.0
            },
            {
                "start_time": 21.293181818181818,
                "end_time": 21.393181818181816,
                "pitch": 53,
                "velocity": 64,
                "duration": 0.09999999999999787,
                "tempo": 120.0
            },
            {
                "start_time": 21.393181818181816,
                "end_time": 21.613636363636363,
                "pitch": 60,
                "velocity": 64,
                "duration": 0.22045454545454746,
                "tempo": 120.0
            },
            {
                "start_time": 21.613636363636363,
                "end_time": 21.66590909090909,
                "pitch": 60,
                "velocity": 64,
                "duration": 0.052272727272725916,
                "tempo": 120.0
            },
            {
                "start_time": 18.90681818181818,
                "end_time": 21.66590909090909,
                "pitch": 64,
                "velocity": 64,
                "duration": 2.759090909090908,
                "tempo": 120.0
            },
            {
                "start_time": 21.613636363636363,
                "end_time": 21.75,
                "pitch": 48,
                "velocity": 64,
                "duration": 0.1363636363636367,
                "tempo": 120.0
            },
            {
                "start_time": 21.66590909090909,
                "end_time": 21.75,
                "pitch": 60,
                "velocity": 64,
                "duration": 0.08409090909091077,
                "tempo": 120.0
            },
            {
                "start_time": 21.75,
                "end_time": 21.802272727272726,
                "pitch": 60,
                "velocity": 64,
                "duration": 0.052272727272725916,
                "tempo": 120.0
            },
            {
                "start_time": 21.66590909090909,
                "end_time": 21.802272727272726,
                "pitch": 64,
                "velocity": 64,
                "duration": 0.1363636363636367,
                "tempo": 120.0
            },
            {
                "start_time": 21.75,
                "end_time": 21.886363636363637,
                "pitch": 48,
                "velocity": 64,
                "duration": 0.1363636363636367,
                "tempo": 120.0
            },
            {
                "start_time": 21.802272727272726,
                "end_time": 21.886363636363637,
                "pitch": 60,
                "velocity": 64,
                "duration": 0.08409090909091077,
                "tempo": 120.0
            },
            {
                "start_time": 21.886363636363637,
                "end_time": 21.936363636363634,
                "pitch": 60,
                "velocity": 64,
                "duration": 0.04999999999999716,
                "tempo": 120.0
            },
            {
                "start_time": 21.802272727272726,
                "end_time": 21.936363636363634,
                "pitch": 64,
                "velocity": 64,
                "duration": 0.13409090909090793,
                "tempo": 120.0
            },
            {
                "start_time": 21.936363636363634,
                "end_time": 22.018181818181816,
                "pitch": 60,
                "velocity": 64,
                "duration": 0.08181818181818201,
                "tempo": 120.0
            },
            {
                "start_time": 22.018181818181816,
                "end_time": 22.068181818181817,
                "pitch": 60,
                "velocity": 64,
                "duration": 0.05000000000000071,
                "tempo": 120.0
            },
            {
                "start_time": 21.936363636363634,
                "end_time": 22.068181818181817,
                "pitch": 64,
                "velocity": 64,
                "duration": 0.13181818181818272,
                "tempo": 120.0
            },
            {
                "start_time": 21.886363636363637,
                "end_time": 22.152272727272727,
                "pitch": 48,
                "velocity": 64,
                "duration": 0.26590909090909065,
                "tempo": 120.0
            },
            {
                "start_time": 22.068181818181817,
                "end_time": 22.152272727272727,
                "pitch": 60,
                "velocity": 64,
                "duration": 0.08409090909091077,
                "tempo": 120.0
            },
            {
                "start_time": 22.152272727272727,
                "end_time": 22.202272727272724,
                "pitch": 60,
                "velocity": 64,
                "duration": 0.04999999999999716,
                "tempo": 120.0
            },
            {
                "start_time": 22.402272727272727,
                "end_time": 22.620454545454546,
                "pitch": 60,
                "velocity": 64,
                "duration": 0.2181818181818187,
                "tempo": 120.0
            },
            {
                "start_time": 22.620454545454546,
                "end_time": 22.829545454545453,
                "pitch": 59,
                "velocity": 64,
                "duration": 0.20909090909090722,
                "tempo": 120.0
            },
            {
                "start_time": 22.831818181818182,
                "end_time": 23.04090909090909,
                "pitch": 55,
                "velocity": 64,
                "duration": 0.20909090909090722,
                "tempo": 120.0
            },
            {
                "start_time": 15.431818181818182,
                "end_time": 23.259090909090908,
                "pitch": 36,
                "velocity": 64,
                "duration": 7.827272727272726,
                "tempo": 120.0
            },
            {
                "start_time": 22.152272727272727,
                "end_time": 23.259090909090908,
                "pitch": 48,
                "velocity": 64,
                "duration": 1.1068181818181806,
                "tempo": 120.0
            },
            {
                "start_time": 23.043181818181818,
                "end_time": 23.259090909090908,
                "pitch": 48,
                "velocity": 64,
                "duration": 0.21590909090908994,
                "tempo": 120.0
            },
            {
                "start_time": 23.259090909090908,
                "end_time": 23.30909090909091,
                "pitch": 48,
                "velocity": 64,
                "duration": 0.05000000000000071,
                "tempo": 120.0
            },
            {
                "start_time": 23.30909090909091,
                "end_time": 23.393181818181816,
                "pitch": 48,
                "velocity": 64,
                "duration": 0.08409090909090722,
                "tempo": 120.0
            },
            {
                "start_time": 23.393181818181816,
                "end_time": 23.445454545454545,
                "pitch": 48,
                "velocity": 64,
                "duration": 0.05227272727272947,
                "tempo": 120.0
            },
            {
                "start_time": 23.30909090909091,
                "end_time": 23.445454545454545,
                "pitch": 52,
                "velocity": 64,
                "duration": 0.1363636363636367,
                "tempo": 120.0
            },
            {
                "start_time": 23.259090909090908,
                "end_time": 23.527272727272727,
                "pitch": 36,
                "velocity": 64,
                "duration": 0.2681818181818194,
                "tempo": 120.0
            },
            {
                "start_time": 23.445454545454545,
                "end_time": 23.527272727272727,
                "pitch": 48,
                "velocity": 64,
                "duration": 0.08181818181818201,
                "tempo": 120.0
            },
            {
                "start_time": 23.527272727272727,
                "end_time": 23.577272727272724,
                "pitch": 48,
                "velocity": 64,
                "duration": 0.04999999999999716,
                "tempo": 120.0
            },
            {
                "start_time": 23.445454545454545,
                "end_time": 23.577272727272724,
                "pitch": 52,
                "velocity": 64,
                "duration": 0.13181818181817917,
                "tempo": 120.0
            },
            {
                "start_time": 23.577272727272724,
                "end_time": 23.659090909090907,
                "pitch": 48,
                "velocity": 64,
                "duration": 0.08181818181818201,
                "tempo": 120.0
            },
            {
                "start_time": 23.659090909090907,
                "end_time": 23.709090909090907,
                "pitch": 48,
                "velocity": 64,
                "duration": 0.05000000000000071,
                "tempo": 120.0
            },
            {
                "start_time": 23.577272727272724,
                "end_time": 23.709090909090907,
                "pitch": 52,
                "velocity": 64,
                "duration": 0.13181818181818272,
                "tempo": 120.0
            },
            {
                "start_time": 23.527272727272727,
                "end_time": 23.793181818181818,
                "pitch": 36,
                "velocity": 64,
                "duration": 0.26590909090909065,
                "tempo": 120.0
            },
            {
                "start_time": 23.709090909090907,
                "end_time": 23.793181818181818,
                "pitch": 48,
                "velocity": 64,
                "duration": 0.08409090909091077,
                "tempo": 120.0
            },
            {
                "start_time": 23.793181818181818,
                "end_time": 23.84318181818182,
                "pitch": 48,
                "velocity": 64,
                "duration": 0.05000000000000071,
                "tempo": 120.0
            },
            {
                "start_time": 23.709090909090907,
                "end_time": 23.84318181818182,
                "pitch": 52,
                "velocity": 64,
                "duration": 0.13409090909091148,
                "tempo": 120.0
            },
            {
                "start_time": 23.84318181818182,
                "end_time": 23.85909090909091,
                "pitch": 48,
                "velocity": 64,
                "duration": 0.01590909090909065,
                "tempo": 120.0
            },
            {
                "start_time": 23.861363636363635,
                "end_time": 24.063636363636363,
                "pitch": 53,
                "velocity": 64,
                "duration": 0.20227272727272805,
                "tempo": 120.0
            },
            {
                "start_time": 23.84318181818182,
                "end_time": 24.168181818181818,
                "pitch": 52,
                "velocity": 64,
                "duration": 0.3249999999999993,
                "tempo": 120.0
            },
            {
                "start_time": 24.06590909090909,
                "end_time": 24.168181818181818,
                "pitch": 52,
                "velocity": 64,
                "duration": 0.10227272727272663,
                "tempo": 120.0
            },
            {
                "start_time": 23.793181818181818,
                "end_time": 24.386363636363637,
                "pitch": 36,
                "velocity": 64,
                "duration": 0.5931818181818187,
                "tempo": 120.0
            },
            {
                "start_time": 24.168181818181818,
                "end_time": 24.386363636363637,
                "pitch": 48,
                "velocity": 64,
                "duration": 0.2181818181818187,
                "tempo": 120.0
            },
            {
                "start_time": 24.386363636363637,
                "end_time": 24.436363636363634,
                "pitch": 48,
                "velocity": 64,
                "duration": 0.04999999999999716,
                "tempo": 120.0
            },
            {
                "start_time": 24.436363636363634,
                "end_time": 24.470454545454544,
                "pitch": 48,
                "velocity": 64,
                "duration": 0.03409090909091006,
                "tempo": 120.0
            },
            {
                "start_time": 24.470454545454544,
                "end_time": 24.668181818181818,
                "pitch": 50,
                "velocity": 64,
                "duration": 0.19772727272727408,
                "tempo": 120.0
            },
            {
                "start_time": 24.670454545454543,
                "end_time": 24.886363636363637,
                "pitch": 48,
                "velocity": 64,
                "duration": 0.2159090909090935,
                "tempo": 120.0
            },
            {
                "start_time": 24.886363636363637,
                "end_time": 24.936363636363634,
                "pitch": 48,
                "velocity": 64,
                "duration": 0.04999999999999716,
                "tempo": 120.0
            },
            {
                "start_time": 24.436363636363634,
                "end_time": 24.936363636363634,
                "pitch": 52,
                "velocity": 64,
                "duration": 0.5,
                "tempo": 120.0
            },
            {
                "start_time": 24.386363636363637,
                "end_time": 25.020454545454545,
                "pitch": 36,
                "velocity": 64,
                "duration": 0.6340909090909079,
                "tempo": 120.0
            },
            {
                "start_time": 24.936363636363634,
                "end_time": 25.020454545454545,
                "pitch": 48,
                "velocity": 64,
                "duration": 0.08409090909091077,
                "tempo": 120.0
            },
            {
                "start_time": 25.020454545454545,
                "end_time": 25.070454545454545,
                "pitch": 48,
                "velocity": 64,
                "duration": 0.05000000000000071,
                "tempo": 120.0
            },
            {
                "start_time": 24.936363636363634,
                "end_time": 25.070454545454545,
                "pitch": 52,
                "velocity": 64,
                "duration": 0.13409090909091148,
                "tempo": 120.0
            },
            {
                "start_time": 25.070454545454545,
                "end_time": 25.15681818181818,
                "pitch": 48,
                "velocity": 64,
                "duration": 0.08636363636363598,
                "tempo": 120.0
            },
            {
                "start_time": 25.15681818181818,
                "end_time": 25.211363636363636,
                "pitch": 48,
                "velocity": 64,
                "duration": 0.054545454545454675,
                "tempo": 120.0
            },
            {
                "start_time": 25.070454545454545,
                "end_time": 25.211363636363636,
                "pitch": 52,
                "velocity": 64,
                "duration": 0.14090909090909065,
                "tempo": 120.0
            },
            {
                "start_time": 25.020454545454545,
                "end_time": 25.299999999999997,
                "pitch": 36,
                "velocity": 64,
                "duration": 0.27954545454545254,
                "tempo": 120.0
            },
            {
                "start_time": 25.211363636363636,
                "end_time": 25.299999999999997,
                "pitch": 48,
                "velocity": 64,
                "duration": 0.08863636363636118,
                "tempo": 120.0
            },
            {
                "start_time": 25.299999999999997,
                "end_time": 25.349999999999998,
                "pitch": 48,
                "velocity": 64,
                "duration": 0.05000000000000071,
                "tempo": 120.0
            },
            {
                "start_time": 25.211363636363636,
                "end_time": 25.349999999999998,
                "pitch": 52,
                "velocity": 64,
                "duration": 0.1386363636363619,
                "tempo": 120.0
            },
            {
                "start_time": 25.349999999999998,
                "end_time": 25.438636363636363,
                "pitch": 48,
                "velocity": 64,
                "duration": 0.08863636363636473,
                "tempo": 120.0
            },
            {
                "start_time": 25.438636363636363,
                "end_time": 25.49090909090909,
                "pitch": 48,
                "velocity": 64,
                "duration": 0.052272727272725916,
                "tempo": 120.0
            },
            {
                "start_time": 25.349999999999998,
                "end_time": 25.49090909090909,
                "pitch": 52,
                "velocity": 64,
                "duration": 0.14090909090909065,
                "tempo": 120.0
            },
            {
                "start_time": 25.49090909090909,
                "end_time": 25.509090909090908,
                "pitch": 48,
                "velocity": 64,
                "duration": 0.01818181818181941,
                "tempo": 120.0
            },
            {
                "start_time": 25.509090909090908,
                "end_time": 26.318181818181817,
                "pitch": 47,
                "velocity": 64,
                "duration": 0.8090909090909086,
                "tempo": 120.0
            },
            {
                "start_time": 25.299999999999997,
                "end_time": 26.547727272727272,
                "pitch": 36,
                "velocity": 64,
                "duration": 1.2477272727272748,
                "tempo": 120.0
            },
            {
                "start_time": 26.320454545454545,
                "end_time": 26.547727272727272,
                "pitch": 48,
                "velocity": 64,
                "duration": 0.22727272727272663,
                "tempo": 120.0
            },
            {
                "start_time": 26.547727272727272,
                "end_time": 26.599999999999998,
                "pitch": 48,
                "velocity": 64,
                "duration": 0.052272727272725916,
                "tempo": 120.0
            },
            {
                "start_time": 25.49090909090909,
                "end_time": 26.599999999999998,
                "pitch": 52,
                "velocity": 64,
                "duration": 1.1090909090909093,
                "tempo": 120.0
            },
            {
                "start_time": 26.547727272727272,
                "end_time": 26.688636363636363,
                "pitch": 36,
                "velocity": 64,
                "duration": 0.14090909090909065,
                "tempo": 120.0
            },
            {
                "start_time": 26.599999999999998,
                "end_time": 26.688636363636363,
                "pitch": 48,
                "velocity": 64,
                "duration": 0.08863636363636473,
                "tempo": 120.0
            },
            {
                "start_time": 26.688636363636363,
                "end_time": 26.74090909090909,
                "pitch": 48,
                "velocity": 64,
                "duration": 0.052272727272725916,
                "tempo": 120.0
            },
            {
                "start_time": 26.599999999999998,
                "end_time": 26.74090909090909,
                "pitch": 52,
                "velocity": 64,
                "duration": 0.14090909090909065,
                "tempo": 120.0
            },
            {
                "start_time": 26.688636363636363,
                "end_time": 26.82272727272727,
                "pitch": 36,
                "velocity": 64,
                "duration": 0.13409090909090793,
                "tempo": 120.0
            },
            {
                "start_time": 26.74090909090909,
                "end_time": 26.82272727272727,
                "pitch": 48,
                "velocity": 64,
                "duration": 0.08181818181818201,
                "tempo": 120.0
            },
            {
                "start_time": 26.82272727272727,
                "end_time": 26.87272727272727,
                "pitch": 48,
                "velocity": 64,
                "duration": 0.05000000000000071,
                "tempo": 120.0
            },
            {
                "start_time": 26.74090909090909,
                "end_time": 26.87272727272727,
                "pitch": 52,
                "velocity": 64,
                "duration": 0.13181818181818272,
                "tempo": 120.0
            },
            {
                "start_time": 26.82272727272727,
                "end_time": 26.956818181818182,
                "pitch": 36,
                "velocity": 64,
                "duration": 0.13409090909091148,
                "tempo": 120.0
            },
            {
                "start_time": 26.87272727272727,
                "end_time": 26.956818181818182,
                "pitch": 48,
                "velocity": 64,
                "duration": 0.08409090909091077,
                "tempo": 120.0
            },
            {
                "start_time": 26.956818181818182,
                "end_time": 27.00681818181818,
                "pitch": 48,
                "velocity": 64,
                "duration": 0.04999999999999716,
                "tempo": 120.0
            },
            {
                "start_time": 26.87272727272727,
                "end_time": 27.00681818181818,
                "pitch": 52,
                "velocity": 64,
                "duration": 0.13409090909090793,
                "tempo": 120.0
            },
            {
                "start_time": 26.956818181818182,
                "end_time": 27.09090909090909,
                "pitch": 36,
                "velocity": 64,
                "duration": 0.13409090909090793,
                "tempo": 120.0
            },
            {
                "start_time": 27.00681818181818,
                "end_time": 27.09090909090909,
                "pitch": 48,
                "velocity": 64,
                "duration": 0.08409090909091077,
                "tempo": 120.0
            },
            {
                "start_time": 27.09090909090909,
                "end_time": 27.138636363636362,
                "pitch": 48,
                "velocity": 64,
                "duration": 0.04772727272727195,
                "tempo": 120.0
            },
            {
                "start_time": 27.14090909090909,
                "end_time": 27.34090909090909,
                "pitch": 53,
                "velocity": 64,
                "duration": 0.1999999999999993,
                "tempo": 120.0
            },
            {
                "start_time": 27.00681818181818,
                "end_time": 27.440909090909088,
                "pitch": 52,
                "velocity": 64,
                "duration": 0.43409090909090864,
                "tempo": 120.0
            },
            {
                "start_time": 27.34090909090909,
                "end_time": 27.440909090909088,
                "pitch": 52,
                "velocity": 64,
                "duration": 0.09999999999999787,
                "tempo": 120.0
            },
            {
                "start_time": 27.09090909090909,
                "end_time": 27.661363636363635,
                "pitch": 36,
                "velocity": 64,
                "duration": 0.5704545454545453,
                "tempo": 120.0
            },
            {
                "start_time": 27.443181818181817,
                "end_time": 27.661363636363635,
                "pitch": 48,
                "velocity": 64,
                "duration": 0.2181818181818187,
                "tempo": 120.0
            },
            {
                "start_time": 27.661363636363635,
                "end_time": 27.711363636363636,
                "pitch": 48,
                "velocity": 64,
                "duration": 0.05000000000000071,
                "tempo": 120.0
            },
            {
                "start_time": 27.711363636363636,
                "end_time": 27.763636363636362,
                "pitch": 48,
                "velocity": 64,
                "duration": 0.052272727272725916,
                "tempo": 120.0
            },
            {
                "start_time": 27.763636363636362,
                "end_time": 27.968181818181815,
                "pitch": 50,
                "velocity": 64,
                "duration": 0.20454545454545325,
                "tempo": 120.0
            },
            {
                "start_time": 27.661363636363635,
                "end_time": 28.18409090909091,
                "pitch": 36,
                "velocity": 64,
                "duration": 0.5227272727272734,
                "tempo": 120.0
            },
            {
                "start_time": 27.970454545454544,
                "end_time": 28.18409090909091,
                "pitch": 48,
                "velocity": 64,
                "duration": 0.21363636363636473,
                "tempo": 120.0
            },
            {
                "start_time": 28.18409090909091,
                "end_time": 28.23409090909091,
                "pitch": 48,
                "velocity": 64,
                "duration": 0.05000000000000071,
                "tempo": 120.0
            },
            {
                "start_time": 28.23409090909091,
                "end_time": 28.318181818181817,
                "pitch": 48,
                "velocity": 64,
                "duration": 0.08409090909090722,
                "tempo": 120.0
            },
            {
                "start_time": 28.318181818181817,
                "end_time": 28.368181818181817,
                "pitch": 48,
                "velocity": 64,
                "duration": 0.05000000000000071,
                "tempo": 120.0
            },
            {
                "start_time": 27.711363636363636,
                "end_time": 28.368181818181817,
                "pitch": 52,
                "velocity": 64,
                "duration": 0.6568181818181813,
                "tempo": 120.0
            },
            {
                "start_time": 28.368181818181817,
                "end_time": 28.452272727272724,
                "pitch": 48,
                "velocity": 64,
                "duration": 0.08409090909090722,
                "tempo": 120.0
            },
            {
                "start_time": 28.452272727272724,
                "end_time": 28.502272727272725,
                "pitch": 48,
                "velocity": 64,
                "duration": 0.05000000000000071,
                "tempo": 120.0
            },
            {
                "start_time": 28.368181818181817,
                "end_time": 28.502272727272725,
                "pitch": 52,
                "velocity": 64,
                "duration": 0.13409090909090793,
                "tempo": 120.0
            },
            {
                "start_time": 28.502272727272725,
                "end_time": 28.586363636363636,
                "pitch": 48,
                "velocity": 64,
                "duration": 0.08409090909091077,
                "tempo": 120.0
            },
            {
                "start_time": 28.586363636363636,
                "end_time": 28.636363636363637,
                "pitch": 48,
                "velocity": 64,
                "duration": 0.05000000000000071,
                "tempo": 120.0
            },
            {
                "start_time": 28.502272727272725,
                "end_time": 28.636363636363637,
                "pitch": 52,
                "velocity": 64,
                "duration": 0.13409090909091148,
                "tempo": 120.0
            },
            {
                "start_time": 28.18409090909091,
                "end_time": 28.720454545454544,
                "pitch": 36,
                "velocity": 64,
                "duration": 0.5363636363636353,
                "tempo": 120.0
            },
            {
                "start_time": 28.636363636363637,
                "end_time": 28.720454545454544,
                "pitch": 48,
                "velocity": 64,
                "duration": 0.08409090909090722,
                "tempo": 120.0
            },
            {
                "start_time": 28.720454545454544,
                "end_time": 28.770454545454545,
                "pitch": 48,
                "velocity": 64,
                "duration": 0.05000000000000071,
                "tempo": 120.0
            },
            {
                "start_time": 28.770454545454545,
                "end_time": 29.60681818181818,
                "pitch": 47,
                "velocity": 64,
                "duration": 0.836363636363636,
                "tempo": 120.0
            },
            {
                "start_time": 29.60909090909091,
                "end_time": 29.82272727272727,
                "pitch": 48,
                "velocity": 64,
                "duration": 0.21363636363636118,
                "tempo": 120.0
            },
            {
                "start_time": 29.82272727272727,
                "end_time": 29.87272727272727,
                "pitch": 48,
                "velocity": 64,
                "duration": 0.05000000000000071,
                "tempo": 120.0
            },
            {
                "start_time": 28.636363636363637,
                "end_time": 29.87272727272727,
                "pitch": 52,
                "velocity": 64,
                "duration": 1.2363636363636346,
                "tempo": 120.0
            },
            {
                "start_time": 28.720454545454544,
                "end_time": 29.956818181818182,
                "pitch": 36,
                "velocity": 64,
                "duration": 1.236363636363638,
                "tempo": 120.0
            },
            {
                "start_time": 29.87272727272727,
                "end_time": 29.956818181818182,
                "pitch": 48,
                "velocity": 64,
                "duration": 0.08409090909091077,
                "tempo": 120.0
            },
            {
                "start_time": 29.956818181818182,
                "end_time": 30.00681818181818,
                "pitch": 48,
                "velocity": 64,
                "duration": 0.04999999999999716,
                "tempo": 120.0
            },
            {
                "start_time": 29.87272727272727,
                "end_time": 30.00681818181818,
                "pitch": 52,
                "velocity": 64,
                "duration": 0.13409090909090793,
                "tempo": 120.0
            },
            {
                "start_time": 30.00681818181818,
                "end_time": 30.08863636363636,
                "pitch": 48,
                "velocity": 64,
                "duration": 0.08181818181818201,
                "tempo": 120.0
            },
            {
                "start_time": 30.08863636363636,
                "end_time": 30.138636363636362,
                "pitch": 48,
                "velocity": 64,
                "duration": 0.05000000000000071,
                "tempo": 120.0
            },
            {
                "start_time": 30.00681818181818,
                "end_time": 30.138636363636362,
                "pitch": 52,
                "velocity": 64,
                "duration": 0.13181818181818272,
                "tempo": 120.0
            },
            {
                "start_time": 29.956818181818182,
                "end_time": 30.222727272727273,
                "pitch": 36,
                "velocity": 64,
                "duration": 0.26590909090909065,
                "tempo": 120.0
            },
            {
                "start_time": 30.138636363636362,
                "end_time": 30.222727272727273,
                "pitch": 48,
                "velocity": 64,
                "duration": 0.08409090909091077,
                "tempo": 120.0
            },
            {
                "start_time": 30.222727272727273,
                "end_time": 30.27272727272727,
                "pitch": 48,
                "velocity": 64,
                "duration": 0.04999999999999716,
                "tempo": 120.0
            },
            {
                "start_time": 30.222727272727273,
                "end_time": 30.35681818181818,
                "pitch": 36,
                "velocity": 64,
                "duration": 0.13409090909090793,
                "tempo": 120.0
            },
            {
                "start_time": 30.27272727272727,
                "end_time": 30.35681818181818,
                "pitch": 48,
                "velocity": 64,
                "duration": 0.08409090909091077,
                "tempo": 120.0
            },
            {
                "start_time": 30.35681818181818,
                "end_time": 30.40681818181818,
                "pitch": 48,
                "velocity": 64,
                "duration": 0.05000000000000071,
                "tempo": 120.0
            },
            {
                "start_time": 30.40681818181818,
                "end_time": 30.422727272727272,
                "pitch": 48,
                "velocity": 64,
                "duration": 0.01590909090909065,
                "tempo": 120.0
            },
            {
                "start_time": 30.422727272727272,
                "end_time": 30.627272727272725,
                "pitch": 53,
                "velocity": 64,
                "duration": 0.20454545454545325,
                "tempo": 120.0
            },
            {
                "start_time": 30.138636363636362,
                "end_time": 30.729545454545452,
                "pitch": 52,
                "velocity": 64,
                "duration": 0.5909090909090899,
                "tempo": 120.0
            },
            {
                "start_time": 30.627272727272725,
                "end_time": 30.729545454545452,
                "pitch": 52,
                "velocity": 64,
                "duration": 0.10227272727272663,
                "tempo": 120.0
            },
            {
                "start_time": 30.35681818181818,
                "end_time": 30.95,
                "pitch": 36,
                "velocity": 64,
                "duration": 0.5931818181818187,
                "tempo": 120.0
            },
            {
                "start_time": 30.73181818181818,
                "end_time": 30.95,
                "pitch": 48,
                "velocity": 64,
                "duration": 0.2181818181818187,
                "tempo": 120.0
            },
            {
                "start_time": 30.95,
                "end_time": 31.0,
                "pitch": 48,
                "velocity": 64,
                "duration": 0.05000000000000071,
                "tempo": 120.0
            },
            {
                "start_time": 31.0,
                "end_time": 31.034090909090907,
                "pitch": 48,
                "velocity": 64,
                "duration": 0.03409090909090651,
                "tempo": 120.0
            },
            {
                "start_time": 31.034090909090907,
                "end_time": 31.23409090909091,
                "pitch": 50,
                "velocity": 64,
                "duration": 0.20000000000000284,
                "tempo": 120.0
            },
            {
                "start_time": 30.95,
                "end_time": 31.45,
                "pitch": 36,
                "velocity": 64,
                "duration": 0.5,
                "tempo": 120.0
            },
            {
                "start_time": 31.236363636363635,
                "end_time": 31.45,
                "pitch": 48,
                "velocity": 64,
                "duration": 0.21363636363636473,
                "tempo": 120.0
            },
            {
                "start_time": 31.45,
                "end_time": 31.5,
                "pitch": 48,
                "velocity": 64,
                "duration": 0.05000000000000071,
                "tempo": 120.0
            },
            {
                "start_time": 31.45,
                "end_time": 31.584090909090907,
                "pitch": 36,
                "velocity": 64,
                "duration": 0.13409090909090793,
                "tempo": 120.0
            },
            {
                "start_time": 31.5,
                "end_time": 31.584090909090907,
                "pitch": 48,
                "velocity": 64,
                "duration": 0.08409090909090722,
                "tempo": 120.0
            },
            {
                "start_time": 31.584090909090907,
                "end_time": 31.634090909090908,
                "pitch": 48,
                "velocity": 64,
                "duration": 0.05000000000000071,
                "tempo": 120.0
            },
            {
                "start_time": 31.0,
                "end_time": 31.634090909090908,
                "pitch": 52,
                "velocity": 64,
                "duration": 0.6340909090909079,
                "tempo": 120.0
            },
            {
                "start_time": 31.634090909090908,
                "end_time": 31.720454545454544,
                "pitch": 48,
                "velocity": 64,
                "duration": 0.08636363636363598,
                "tempo": 120.0
            },
            {
                "start_time": 31.720454545454544,
                "end_time": 31.77272727272727,
                "pitch": 48,
                "velocity": 64,
                "duration": 0.052272727272725916,
                "tempo": 120.0
            },
            {
                "start_time": 31.584090909090907,
                "end_time": 31.861363636363635,
                "pitch": 36,
                "velocity": 64,
                "duration": 0.27727272727272734,
                "tempo": 120.0
            },
            {
                "start_time": 31.77272727272727,
                "end_time": 31.861363636363635,
                "pitch": 48,
                "velocity": 64,
                "duration": 0.08863636363636473,
                "tempo": 120.0
            },
            {
                "start_time": 31.861363636363635,
                "end_time": 31.91363636363636,
                "pitch": 48,
                "velocity": 64,
                "duration": 0.052272727272725916,
                "tempo": 120.0
            },
            {
                "start_time": 31.634090909090908,
                "end_time": 31.91363636363636,
                "pitch": 52,
                "velocity": 64,
                "duration": 0.27954545454545254,
                "tempo": 120.0
            },
            {
                "start_time": 31.861363636363635,
                "end_time": 32.002272727272725,
                "pitch": 36,
                "velocity": 64,
                "duration": 0.14090909090909065,
                "tempo": 120.0
            },
            {
                "start_time": 31.91363636363636,
                "end_time": 32.002272727272725,
                "pitch": 48,
                "velocity": 64,
                "duration": 0.08863636363636473,
                "tempo": 120.0
            },
            {
                "start_time": 32.002272727272725,
                "end_time": 32.054545454545455,
                "pitch": 48,
                "velocity": 64,
                "duration": 0.05227272727272947,
                "tempo": 120.0
            },
            {
                "start_time": 31.91363636363636,
                "end_time": 32.054545454545455,
                "pitch": 52,
                "velocity": 64,
                "duration": 0.1409090909090942,
                "tempo": 120.0
            },
            {
                "start_time": 32.054545454545455,
                "end_time": 32.07272727272727,
                "pitch": 48,
                "velocity": 64,
                "duration": 0.018181818181815856,
                "tempo": 120.0
            },
            {
                "start_time": 32.07272727272727,
                "end_time": 32.88636363636363,
                "pitch": 47,
                "velocity": 64,
                "duration": 0.8136363636363626,
                "tempo": 120.0
            },
            {
                "start_time": 32.002272727272725,
                "end_time": 33.10909090909091,
                "pitch": 36,
                "velocity": 64,
                "duration": 1.1068181818181841,
                "tempo": 120.0
            },
            {
                "start_time": 32.888636363636365,
                "end_time": 33.10909090909091,
                "pitch": 48,
                "velocity": 64,
                "duration": 0.2204545454545439,
                "tempo": 120.0
            },
            {
                "start_time": 33.10909090909091,
                "end_time": 33.16136363636363,
                "pitch": 48,
                "velocity": 64,
                "duration": 0.052272727272722364,
                "tempo": 120.0
            },
            {
                "start_time": 32.054545454545455,
                "end_time": 33.16136363636363,
                "pitch": 52,
                "velocity": 64,
                "duration": 1.106818181818177,
                "tempo": 120.0
            },
            {
                "start_time": 33.10909090909091,
                "end_time": 33.24545454545454,
                "pitch": 36,
                "velocity": 64,
                "duration": 0.13636363636363313,
                "tempo": 120.0
            },
            {
                "start_time": 33.16136363636363,
                "end_time": 33.24545454545454,
                "pitch": 48,
                "velocity": 64,
                "duration": 0.08409090909091077,
                "tempo": 120.0
            },
            {
                "start_time": 33.24545454545454,
                "end_time": 33.29772727272727,
                "pitch": 48,
                "velocity": 64,
                "duration": 0.05227272727272947,
                "tempo": 120.0
            },
            {
                "start_time": 33.16136363636363,
                "end_time": 33.29772727272727,
                "pitch": 52,
                "velocity": 64,
                "duration": 0.13636363636364024,
                "tempo": 120.0
            },
            {
                "start_time": 33.24545454545454,
                "end_time": 33.37954545454545,
                "pitch": 36,
                "velocity": 64,
                "duration": 0.13409090909090793,
                "tempo": 120.0
            },
            {
                "start_time": 33.29772727272727,
                "end_time": 33.37954545454545,
                "pitch": 48,
                "velocity": 64,
                "duration": 0.08181818181817846,
                "tempo": 120.0
            },
            {
                "start_time": 33.37954545454545,
                "end_time": 33.429545454545455,
                "pitch": 48,
                "velocity": 64,
                "duration": 0.05000000000000426,
                "tempo": 120.0
            },
            {
                "start_time": 33.29772727272727,
                "end_time": 33.429545454545455,
                "pitch": 52,
                "velocity": 64,
                "duration": 0.13181818181818272,
                "tempo": 120.0
            },
            {
                "start_time": 33.37954545454545,
                "end_time": 33.513636363636365,
                "pitch": 36,
                "velocity": 64,
                "duration": 0.13409090909091503,
                "tempo": 120.0
            },
            {
                "start_time": 33.429545454545455,
                "end_time": 33.513636363636365,
                "pitch": 48,
                "velocity": 64,
                "duration": 0.08409090909091077,
                "tempo": 120.0
            },
            {
                "start_time": 33.513636363636365,
                "end_time": 33.56363636363636,
                "pitch": 48,
                "velocity": 64,
                "duration": 0.04999999999999716,
                "tempo": 120.0
            },
            {
                "start_time": 33.429545454545455,
                "end_time": 33.56363636363636,
                "pitch": 52,
                "velocity": 64,
                "duration": 0.13409090909090793,
                "tempo": 120.0
            },
            {
                "start_time": 33.513636363636365,
                "end_time": 33.64545454545454,
                "pitch": 36,
                "velocity": 64,
                "duration": 0.13181818181817562,
                "tempo": 120.0
            },
            {
                "start_time": 33.56363636363636,
                "end_time": 33.64545454545454,
                "pitch": 48,
                "velocity": 64,
                "duration": 0.08181818181817846,
                "tempo": 120.0
            },
            {
                "start_time": 33.64545454545454,
                "end_time": 33.695454545454545,
                "pitch": 48,
                "velocity": 64,
                "duration": 0.05000000000000426,
                "tempo": 120.0
            },
            {
                "start_time": 33.69772727272727,
                "end_time": 33.89772727272727,
                "pitch": 53,
                "velocity": 64,
                "duration": 0.20000000000000284,
                "tempo": 120.0
            },
            {
                "start_time": 33.56363636363636,
                "end_time": 33.99772727272727,
                "pitch": 52,
                "velocity": 64,
                "duration": 0.4340909090909051,
                "tempo": 120.0
            },
            {
                "start_time": 33.89772727272727,
                "end_time": 33.99772727272727,
                "pitch": 52,
                "velocity": 64,
                "duration": 0.09999999999999432,
                "tempo": 120.0
            },
            {
                "start_time": 33.64545454545454,
                "end_time": 34.21818181818182,
                "pitch": 36,
                "velocity": 64,
                "duration": 0.5727272727272776,
                "tempo": 120.0
            },
            {
                "start_time": 33.99772727272727,
                "end_time": 34.21818181818182,
                "pitch": 48,
                "velocity": 64,
                "duration": 0.220454545454551,
                "tempo": 120.0
            },
            {
                "start_time": 34.21818181818182,
                "end_time": 34.268181818181816,
                "pitch": 48,
                "velocity": 64,
                "duration": 0.04999999999999716,
                "tempo": 120.0
            },
            {
                "start_time": 34.268181818181816,
                "end_time": 34.320454545454545,
                "pitch": 48,
                "velocity": 64,
                "duration": 0.05227272727272947,
                "tempo": 120.0
            },
            {
                "start_time": 34.320454545454545,
                "end_time": 34.525,
                "pitch": 50,
                "velocity": 64,
                "duration": 0.20454545454545325,
                "tempo": 120.0
            },
            {
                "start_time": 34.21818181818182,
                "end_time": 34.74090909090909,
                "pitch": 36,
                "velocity": 64,
                "duration": 0.5227272727272734,
                "tempo": 120.0
            },
            {
                "start_time": 34.527272727272724,
                "end_time": 34.74090909090909,
                "pitch": 48,
                "velocity": 64,
                "duration": 0.2136363636363683,
                "tempo": 120.0
            },
            {
                "start_time": 34.74090909090909,
                "end_time": 34.79090909090909,
                "pitch": 48,
                "velocity": 64,
                "duration": 0.04999999999999716,
                "tempo": 120.0
            },
            {
                "start_time": 34.74090909090909,
                "end_time": 34.875,
                "pitch": 36,
                "velocity": 64,
                "duration": 0.13409090909090793,
                "tempo": 120.0
            },
            {
                "start_time": 34.79090909090909,
                "end_time": 34.875,
                "pitch": 48,
                "velocity": 64,
                "duration": 0.08409090909091077,
                "tempo": 120.0
            },
            {
                "start_time": 34.875,
                "end_time": 34.925,
                "pitch": 48,
                "velocity": 64,
                "duration": 0.04999999999999716,
                "tempo": 120.0
            },
            {
                "start_time": 34.268181818181816,
                "end_time": 34.925,
                "pitch": 52,
                "velocity": 64,
                "duration": 0.6568181818181813,
                "tempo": 120.0
            },
            {
                "start_time": 34.925,
                "end_time": 35.00681818181818,
                "pitch": 48,
                "velocity": 64,
                "duration": 0.08181818181818556,
                "tempo": 120.0
            },
            {
                "start_time": 35.00681818181818,
                "end_time": 35.05681818181818,
                "pitch": 48,
                "velocity": 64,
                "duration": 0.04999999999999716,
                "tempo": 120.0
            },
            {
                "start_time": 34.925,
                "end_time": 35.05681818181818,
                "pitch": 52,
                "velocity": 64,
                "duration": 0.13181818181818272,
                "tempo": 120.0
            },
            {
                "start_time": 35.05681818181818,
                "end_time": 35.14090909090909,
                "pitch": 48,
                "velocity": 64,
                "duration": 0.08409090909091077,
                "tempo": 120.0
            },
            {
                "start_time": 35.14090909090909,
                "end_time": 35.19090909090909,
                "pitch": 48,
                "velocity": 64,
                "duration": 0.04999999999999716,
                "tempo": 120.0
            },
            {
                "start_time": 35.05681818181818,
                "end_time": 35.19090909090909,
                "pitch": 52,
                "velocity": 64,
                "duration": 0.13409090909090793,
                "tempo": 120.0
            },
            {
                "start_time": 34.875,
                "end_time": 35.27272727272727,
                "pitch": 36,
                "velocity": 64,
                "duration": 0.3977272727272734,
                "tempo": 120.0
            },
            {
                "start_time": 35.19090909090909,
                "end_time": 35.27272727272727,
                "pitch": 48,
                "velocity": 64,
                "duration": 0.08181818181818556,
                "tempo": 120.0
            },
            {
                "start_time": 35.27272727272727,
                "end_time": 35.32272727272727,
                "pitch": 48,
                "velocity": 64,
                "duration": 0.04999999999999716,
                "tempo": 120.0
            },
            {
                "start_time": 35.324999999999996,
                "end_time": 36.163636363636364,
                "pitch": 47,
                "velocity": 64,
                "duration": 0.8386363636363683,
                "tempo": 120.0
            },
            {
                "start_time": 36.16590909090909,
                "end_time": 36.26363636363636,
                "pitch": 57,
                "velocity": 64,
                "duration": 0.09772727272726911,
                "tempo": 120.0
            },
            {
                "start_time": 36.26590909090909,
                "end_time": 36.36590909090909,
                "pitch": 57,
                "velocity": 64,
                "duration": 0.10000000000000142,
                "tempo": 120.0
            },
            {
                "start_time": 36.36590909090909,
                "end_time": 36.56590909090909,
                "pitch": 55,
                "velocity": 64,
                "duration": 0.19999999999999574,
                "tempo": 120.0
            },
            {
                "start_time": 35.19090909090909,
                "end_time": 36.88181818181818,
                "pitch": 52,
                "velocity": 64,
                "duration": 1.690909090909095,
                "tempo": 120.0
            },
            {
                "start_time": 36.78409090909091,
                "end_time": 36.88181818181818,
                "pitch": 52,
                "velocity": 64,
                "duration": 0.09772727272727622,
                "tempo": 120.0
            },
            {
                "start_time": 36.88181818181818,
                "end_time": 36.98181818181818,
                "pitch": 52,
                "velocity": 64,
                "duration": 0.09999999999999432,
                "tempo": 120.0
            },
            {
                "start_time": 36.98181818181818,
                "end_time": 37.08409090909091,
                "pitch": 57,
                "velocity": 64,
                "duration": 0.10227272727273373,
                "tempo": 120.0
            },
            {
                "start_time": 37.08409090909091,
                "end_time": 37.18636363636364,
                "pitch": 57,
                "velocity": 64,
                "duration": 0.10227272727272663,
                "tempo": 120.0
            },
            {
                "start_time": 37.18863636363636,
                "end_time": 37.39090909090909,
                "pitch": 55,
                "velocity": 64,
                "duration": 0.20227272727272805,
                "tempo": 120.0
            },
            {
                "start_time": 35.27272727272727,
                "end_time": 37.60909090909091,
                "pitch": 36,
                "velocity": 64,
                "duration": 2.336363636363636,
                "tempo": 120.0
            },
            {
                "start_time": 37.393181818181816,
                "end_time": 37.60909090909091,
                "pitch": 48,
                "velocity": 64,
                "duration": 0.2159090909090935,
                "tempo": 120.0
            },
            {
                "start_time": 37.60909090909091,
                "end_time": 37.65909090909091,
                "pitch": 48,
                "velocity": 64,
                "duration": 0.04999999999999716,
                "tempo": 120.0
            },
            {
                "start_time": 37.65909090909091,
                "end_time": 37.74318181818182,
                "pitch": 48,
                "velocity": 64,
                "duration": 0.08409090909091077,
                "tempo": 120.0
            },
            {
                "start_time": 37.74318181818182,
                "end_time": 37.793181818181814,
                "pitch": 48,
                "velocity": 64,
                "duration": 0.04999999999999716,
                "tempo": 120.0
            },
            {
                "start_time": 37.79545454545455,
                "end_time": 37.90909090909091,
                "pitch": 57,
                "velocity": 64,
                "duration": 0.11363636363635976,
                "tempo": 120.0
            },
            {
                "start_time": 37.91136363636363,
                "end_time": 38.00909090909091,
                "pitch": 57,
                "velocity": 64,
                "duration": 0.09772727272727622,
                "tempo": 120.0
            },
            {
                "start_time": 38.01136363636363,
                "end_time": 38.20909090909091,
                "pitch": 55,
                "velocity": 64,
                "duration": 0.19772727272727764,
                "tempo": 120.0
            },
            {
                "start_time": 38.41590909090909,
                "end_time": 38.518181818181816,
                "pitch": 50,
                "velocity": 64,
                "duration": 0.10227272727272663,
                "tempo": 120.0
            },
            {
                "start_time": 37.65909090909091,
                "end_time": 38.62045454545454,
                "pitch": 52,
                "velocity": 64,
                "duration": 0.961363636363636,
                "tempo": 120.0
            },
            {
                "start_time": 38.518181818181816,
                "end_time": 38.62045454545454,
                "pitch": 52,
                "velocity": 64,
                "duration": 0.10227272727272663,
                "tempo": 120.0
            },
            {
                "start_time": 38.62045454545454,
                "end_time": 38.72272727272727,
                "pitch": 57,
                "velocity": 64,
                "duration": 0.10227272727272663,
                "tempo": 120.0
            },
            {
                "start_time": 38.72272727272727,
                "end_time": 38.824999999999996,
                "pitch": 57,
                "velocity": 64,
                "duration": 0.10227272727272663,
                "tempo": 120.0
            },
            {
                "start_time": 38.82727272727273,
                "end_time": 39.029545454545456,
                "pitch": 55,
                "velocity": 64,
                "duration": 0.20227272727272805,
                "tempo": 120.0
            },
            {
                "start_time": 39.03181818181818,
                "end_time": 39.445454545454545,
                "pitch": 52,
                "velocity": 64,
                "duration": 0.413636363636364,
                "tempo": 120.0
            },
            {
                "start_time": 39.44772727272727,
                "end_time": 39.54772727272727,
                "pitch": 57,
                "velocity": 64,
                "duration": 0.10000000000000142,
                "tempo": 120.0
            },
            {
                "start_time": 39.54772727272727,
                "end_time": 39.652272727272724,
                "pitch": 57,
                "velocity": 64,
                "duration": 0.10454545454545183,
                "tempo": 120.0
            },
            {
                "start_time": 39.652272727272724,
                "end_time": 39.85681818181818,
                "pitch": 55,
                "velocity": 64,
                "duration": 0.20454545454545325,
                "tempo": 120.0
            },
            {
                "start_time": 40.059090909090905,
                "end_time": 40.15681818181818,
                "pitch": 52,
                "velocity": 64,
                "duration": 0.09772727272727622,
                "tempo": 120.0
            },
            {
                "start_time": 40.15909090909091,
                "end_time": 40.25909090909091,
                "pitch": 52,
                "velocity": 64,
                "duration": 0.10000000000000142,
                "tempo": 120.0
            },
            {
                "start_time": 40.25909090909091,
                "end_time": 40.35681818181818,
                "pitch": 57,
                "velocity": 64,
                "duration": 0.09772727272726911,
                "tempo": 120.0
            },
            {
                "start_time": 40.35909090909091,
                "end_time": 40.475,
                "pitch": 57,
                "velocity": 64,
                "duration": 0.11590909090909207,
                "tempo": 120.0
            },
            {
                "start_time": 40.475,
                "end_time": 40.675,
                "pitch": 55,
                "velocity": 64,
                "duration": 0.19999999999999574,
                "tempo": 120.0
            },
            {
                "start_time": 37.60909090909091,
                "end_time": 40.89545454545454,
                "pitch": 36,
                "velocity": 64,
                "duration": 3.2863636363636317,
                "tempo": 120.0
            },
            {
                "start_time": 40.675,
                "end_time": 40.89545454545454,
                "pitch": 48,
                "velocity": 64,
                "duration": 0.2204545454545439,
                "tempo": 120.0
            },
            {
                "start_time": 40.89545454545454,
                "end_time": 40.94772727272727,
                "pitch": 48,
                "velocity": 64,
                "duration": 0.05227272727272947,
                "tempo": 120.0
            },
            {
                "start_time": 40.89545454545454,
                "end_time": 41.03181818181818,
                "pitch": 36,
                "velocity": 64,
                "duration": 0.13636363636364024,
                "tempo": 120.0
            },
            {
                "start_time": 40.94772727272727,
                "end_time": 41.03181818181818,
                "pitch": 48,
                "velocity": 64,
                "duration": 0.08409090909091077,
                "tempo": 120.0
            },
            {
                "start_time": 41.03181818181818,
                "end_time": 41.084090909090904,
                "pitch": 48,
                "velocity": 64,
                "duration": 0.052272727272722364,
                "tempo": 120.0
            },
            {
                "start_time": 41.084090909090904,
                "end_time": 41.184090909090905,
                "pitch": 57,
                "velocity": 64,
                "duration": 0.10000000000000142,
                "tempo": 120.0
            },
            {
                "start_time": 41.184090909090905,
                "end_time": 41.28409090909091,
                "pitch": 57,
                "velocity": 64,
                "duration": 0.10000000000000142,
                "tempo": 120.0
            },
            {
                "start_time": 41.28409090909091,
                "end_time": 41.48409090909091,
                "pitch": 55,
                "velocity": 64,
                "duration": 0.20000000000000284,
                "tempo": 120.0
            },
            {
                "start_time": 41.70227272727273,
                "end_time": 41.80227272727272,
                "pitch": 50,
                "velocity": 64,
                "duration": 0.09999999999999432,
                "tempo": 120.0
            },
            {
                "start_time": 40.94772727272727,
                "end_time": 41.902272727272724,
                "pitch": 52,
                "velocity": 64,
                "duration": 0.9545454545454533,
                "tempo": 120.0
            },
            {
                "start_time": 41.80227272727272,
                "end_time": 41.902272727272724,
                "pitch": 52,
                "velocity": 64,
                "duration": 0.10000000000000142,
                "tempo": 120.0
            },
            {
                "start_time": 41.902272727272724,
                "end_time": 42.00681818181818,
                "pitch": 57,
                "velocity": 64,
                "duration": 0.10454545454545894,
                "tempo": 120.0
            },
            {
                "start_time": 42.00681818181818,
                "end_time": 42.11363636363636,
                "pitch": 57,
                "velocity": 64,
                "duration": 0.10681818181817704,
                "tempo": 120.0
            },
            {
                "start_time": 42.11363636363636,
                "end_time": 42.32272727272727,
                "pitch": 55,
                "velocity": 64,
                "duration": 0.20909090909091077,
                "tempo": 120.0
            },
            {
                "start_time": 42.324999999999996,
                "end_time": 42.725,
                "pitch": 52,
                "velocity": 64,
                "duration": 0.4000000000000057,
                "tempo": 120.0
            },
            {
                "start_time": 42.72727272727273,
                "end_time": 42.824999999999996,
                "pitch": 48,
                "velocity": 64,
                "duration": 0.09772727272726911,
                "tempo": 120.0
            },
            {
                "start_time": 42.824999999999996,
                "end_time": 42.925,
                "pitch": 53,
                "velocity": 64,
                "duration": 0.10000000000000142,
                "tempo": 120.0
            },
            {
                "start_time": 42.925,
                "end_time": 43.143181818181816,
                "pitch": 60,
                "velocity": 64,
                "duration": 0.2181818181818187,
                "tempo": 120.0
            },
            {
                "start_time": 43.143181818181816,
                "end_time": 43.19318181818181,
                "pitch": 60,
                "velocity": 64,
                "duration": 0.04999999999999716,
                "tempo": 120.0
            },
            {
                "start_time": 22.068181818181817,
                "end_time": 43.19318181818181,
                "pitch": 64,
                "velocity": 64,
                "duration": 21.124999999999996,
                "tempo": 120.0
            },
            {
                "start_time": 43.143181818181816,
                "end_time": 43.277272727272724,
                "pitch": 48,
                "velocity": 64,
                "duration": 0.13409090909090793,
                "tempo": 120.0
            },
            {
                "start_time": 43.19318181818181,
                "end_time": 43.277272727272724,
                "pitch": 60,
                "velocity": 64,
                "duration": 0.08409090909091077,
                "tempo": 120.0
            },
            {
                "start_time": 43.277272727272724,
                "end_time": 43.32954545454545,
                "pitch": 60,
                "velocity": 64,
                "duration": 0.05227272727272947,
                "tempo": 120.0
            },
            {
                "start_time": 43.19318181818181,
                "end_time": 43.32954545454545,
                "pitch": 64,
                "velocity": 64,
                "duration": 0.13636363636364024,
                "tempo": 120.0
            },
            {
                "start_time": 43.277272727272724,
                "end_time": 43.41590909090909,
                "pitch": 48,
                "velocity": 64,
                "duration": 0.13863636363636545,
                "tempo": 120.0
            },
            {
                "start_time": 43.32954545454545,
                "end_time": 43.41590909090909,
                "pitch": 60,
                "velocity": 64,
                "duration": 0.08636363636363598,
                "tempo": 120.0
            },
            {
                "start_time": 43.41590909090909,
                "end_time": 43.465909090909086,
                "pitch": 60,
                "velocity": 64,
                "duration": 0.04999999999999716,
                "tempo": 120.0
            },
            {
                "start_time": 43.32954545454545,
                "end_time": 43.465909090909086,
                "pitch": 64,
                "velocity": 64,
                "duration": 0.13636363636363313,
                "tempo": 120.0
            },
            {
                "start_time": 43.465909090909086,
                "end_time": 43.55227272727272,
                "pitch": 60,
                "velocity": 64,
                "duration": 0.08636363636363598,
                "tempo": 120.0
            },
            {
                "start_time": 44.152272727272724,
                "end_time": 44.268181818181816,
                "pitch": 52,
                "velocity": 64,
                "duration": 0.11590909090909207,
                "tempo": 120.0
            },
            {
                "start_time": 44.27045454545454,
                "end_time": 44.37045454545454,
                "pitch": 57,
                "velocity": 64,
                "duration": 0.10000000000000142,
                "tempo": 120.0
            },
            {
                "start_time": 43.465909090909086,
                "end_time": 45.19318181818181,
                "pitch": 64,
                "velocity": 64,
                "duration": 1.7272727272727266,
                "tempo": 120.0
            },
            {
                "start_time": 44.37045454545454,
                "end_time": 45.19318181818181,
                "pitch": 64,
                "velocity": 64,
                "duration": 0.8227272727272705,
                "tempo": 120.0
            },
            {
                "start_time": 45.38863636363636,
                "end_time": 45.599999999999994,
                "pitch": 64,
                "velocity": 64,
                "duration": 0.21136363636363598,
                "tempo": 120.0
            },
            {
                "start_time": 45.60227272727273,
                "end_time": 45.81136363636364,
                "pitch": 62,
                "velocity": 64,
                "duration": 0.20909090909091077,
                "tempo": 120.0
            },
            {
                "start_time": 45.81136363636364,
                "end_time": 46.02272727272727,
                "pitch": 59,
                "velocity": 64,
                "duration": 0.21136363636363598,
                "tempo": 120.0
            },
            {
                "start_time": 43.41590909090909,
                "end_time": 46.12272727272727,
                "pitch": 48,
                "velocity": 64,
                "duration": 2.7068181818181785,
                "tempo": 120.0
            },
            {
                "start_time": 46.02272727272727,
                "end_time": 46.12272727272727,
                "pitch": 48,
                "velocity": 64,
                "duration": 0.09999999999999432,
                "tempo": 120.0
            },
            {
                "start_time": 46.12272727272727,
                "end_time": 46.22272727272727,
                "pitch": 53,
                "velocity": 64,
                "duration": 0.10000000000000142,
                "tempo": 120.0
            },
            {
                "start_time": 46.224999999999994,
                "end_time": 46.44090909090909,
                "pitch": 60,
                "velocity": 64,
                "duration": 0.2159090909090935,
                "tempo": 120.0
            },
            {
                "start_time": 46.44090909090909,
                "end_time": 46.49090909090909,
                "pitch": 60,
                "velocity": 64,
                "duration": 0.05000000000000426,
                "tempo": 120.0
            },
            {
                "start_time": 46.49090909090909,
                "end_time": 46.57272727272727,
                "pitch": 60,
                "velocity": 64,
                "duration": 0.08181818181817846,
                "tempo": 120.0
            },
            {
                "start_time": 46.57272727272727,
                "end_time": 46.625,
                "pitch": 60,
                "velocity": 64,
                "duration": 0.05227272727272947,
                "tempo": 120.0
            },
            {
                "start_time": 46.49090909090909,
                "end_time": 46.625,
                "pitch": 64,
                "velocity": 64,
                "duration": 0.13409090909090793,
                "tempo": 120.0
            },
            {
                "start_time": 46.57272727272727,
                "end_time": 46.70681818181818,
                "pitch": 48,
                "velocity": 64,
                "duration": 0.13409090909090793,
                "tempo": 120.0
            },
            {
                "start_time": 46.625,
                "end_time": 46.70681818181818,
                "pitch": 60,
                "velocity": 64,
                "duration": 0.08181818181817846,
                "tempo": 120.0
            },
            {
                "start_time": 46.70681818181818,
                "end_time": 46.75681818181818,
                "pitch": 60,
                "velocity": 64,
                "duration": 0.05000000000000426,
                "tempo": 120.0
            },
            {
                "start_time": 46.625,
                "end_time": 46.75681818181818,
                "pitch": 64,
                "velocity": 64,
                "duration": 0.13181818181818272,
                "tempo": 120.0
            },
            {
                "start_time": 46.75681818181818,
                "end_time": 46.840909090909086,
                "pitch": 60,
                "velocity": 64,
                "duration": 0.08409090909090366,
                "tempo": 120.0
            },
            {
                "start_time": 47.45681818181818,
                "end_time": 47.55681818181818,
                "pitch": 52,
                "velocity": 64,
                "duration": 0.10000000000000142,
                "tempo": 120.0
            },
            {
                "start_time": 47.559090909090905,
                "end_time": 47.66136363636363,
                "pitch": 57,
                "velocity": 64,
                "duration": 0.10227272727272663,
                "tempo": 120.0
            },
            {
                "start_time": 46.75681818181818,
                "end_time": 48.486363636363635,
                "pitch": 64,
                "velocity": 64,
                "duration": 1.7295454545454518,
                "tempo": 120.0
            },
            {
                "start_time": 47.66136363636363,
                "end_time": 48.486363636363635,
                "pitch": 64,
                "velocity": 64,
                "duration": 0.8250000000000028,
                "tempo": 120.0
            },
            {
                "start_time": 48.68863636363636,
                "end_time": 48.88863636363636,
                "pitch": 64,
                "velocity": 64,
                "duration": 0.19999999999999574,
                "tempo": 120.0
            },
            {
                "start_time": 48.88863636363636,
                "end_time": 49.08863636363636,
                "pitch": 62,
                "velocity": 64,
                "duration": 0.20000000000000284,
                "tempo": 120.0
            },
            {
                "start_time": 49.08863636363636,
                "end_time": 49.304545454545455,
                "pitch": 59,
                "velocity": 64,
                "duration": 0.2159090909090935,
                "tempo": 120.0
            },
            {
                "start_time": 46.70681818181818,
                "end_time": 49.40681818181818,
                "pitch": 48,
                "velocity": 64,
                "duration": 2.700000000000003,
                "tempo": 120.0
            },
            {
                "start_time": 49.30681818181818,
                "end_time": 49.40681818181818,
                "pitch": 48,
                "velocity": 64,
                "duration": 0.10000000000000142,
                "tempo": 120.0
            },
            {
                "start_time": 49.40681818181818,
                "end_time": 49.50909090909091,
                "pitch": 53,
                "velocity": 64,
                "duration": 0.10227272727272663,
                "tempo": 120.0
            },
            {
                "start_time": 49.51136363636363,
                "end_time": 49.73181818181818,
                "pitch": 60,
                "velocity": 64,
                "duration": 0.2204545454545439,
                "tempo": 120.0
            },
            {
                "start_time": 49.73181818181818,
                "end_time": 49.78409090909091,
                "pitch": 60,
                "velocity": 64,
                "duration": 0.05227272727272947,
                "tempo": 120.0
            },
            {
                "start_time": 49.73181818181818,
                "end_time": 49.87272727272727,
                "pitch": 48,
                "velocity": 64,
                "duration": 0.14090909090909065,
                "tempo": 120.0
            },
            {
                "start_time": 49.78409090909091,
                "end_time": 49.87272727272727,
                "pitch": 60,
                "velocity": 64,
                "duration": 0.08863636363636118,
                "tempo": 120.0
            },
            {
                "start_time": 49.87272727272727,
                "end_time": 49.925,
                "pitch": 60,
                "velocity": 64,
                "duration": 0.05227272727272947,
                "tempo": 120.0
            },
            {
                "start_time": 49.78409090909091,
                "end_time": 49.925,
                "pitch": 64,
                "velocity": 64,
                "duration": 0.14090909090909065,
                "tempo": 120.0
            },
            {
                "start_time": 49.87272727272727,
                "end_time": 50.01363636363636,
                "pitch": 48,
                "velocity": 64,
                "duration": 0.14090909090909065,
                "tempo": 120.0
            },
            {
                "start_time": 49.925,
                "end_time": 50.01363636363636,
                "pitch": 60,
                "velocity": 64,
                "duration": 0.08863636363636118,
                "tempo": 120.0
            },
            {
                "start_time": 50.01363636363636,
                "end_time": 50.06590909090909,
                "pitch": 60,
                "velocity": 64,
                "duration": 0.05227272727272947,
                "tempo": 120.0
            },
            {
                "start_time": 49.925,
                "end_time": 50.06590909090909,
                "pitch": 64,
                "velocity": 64,
                "duration": 0.14090909090909065,
                "tempo": 120.0
            },
            {
                "start_time": 50.06590909090909,
                "end_time": 50.152272727272724,
                "pitch": 60,
                "velocity": 64,
                "duration": 0.08636363636363598,
                "tempo": 120.0
            },
            {
                "start_time": 50.752272727272725,
                "end_time": 50.86818181818182,
                "pitch": 52,
                "velocity": 64,
                "duration": 0.11590909090909207,
                "tempo": 120.0
            },
            {
                "start_time": 50.86818181818182,
                "end_time": 50.96818181818182,
                "pitch": 57,
                "velocity": 64,
                "duration": 0.10000000000000142,
                "tempo": 120.0
            },
            {
                "start_time": 50.06590909090909,
                "end_time": 51.78181818181818,
                "pitch": 64,
                "velocity": 64,
                "duration": 1.7159090909090935,
                "tempo": 120.0
            },
            {
                "start_time": 50.970454545454544,
                "end_time": 51.78181818181818,
                "pitch": 64,
                "velocity": 64,
                "duration": 0.8113636363636374,
                "tempo": 120.0
            },
            {
                "start_time": 51.98181818181818,
                "end_time": 52.19772727272727,
                "pitch": 64,
                "velocity": 64,
                "duration": 0.2159090909090935,
                "tempo": 120.0
            },
            {
                "start_time": 52.19772727272727,
                "end_time": 52.40681818181818,
                "pitch": 62,
                "velocity": 64,
                "duration": 0.20909090909091077,
                "tempo": 120.0
            },
            {
                "start_time": 52.40909090909091,
                "end_time": 52.61818181818182,
                "pitch": 59,
                "velocity": 64,
                "duration": 0.20909090909091077,
                "tempo": 120.0
            },
            {
                "start_time": 50.01363636363636,
                "end_time": 52.71818181818182,
                "pitch": 48,
                "velocity": 64,
                "duration": 2.7045454545454604,
                "tempo": 120.0
            },
            {
                "start_time": 52.62045454545454,
                "end_time": 52.71818181818182,
                "pitch": 48,
                "velocity": 64,
                "duration": 0.09772727272727622,
                "tempo": 120.0
            },
            {
                "start_time": 52.71818181818182,
                "end_time": 52.81818181818181,
                "pitch": 53,
                "velocity": 64,
                "duration": 0.09999999999999432,
                "tempo": 120.0
            },
            {
                "start_time": 52.81818181818181,
                "end_time": 53.03409090909091,
                "pitch": 60,
                "velocity": 64,
                "duration": 0.2159090909090935,
                "tempo": 120.0
            },
            {
                "start_time": 53.03409090909091,
                "end_time": 53.084090909090904,
                "pitch": 60,
                "velocity": 64,
                "duration": 0.04999999999999716,
                "tempo": 120.0
            },
            {
                "start_time": 53.03409090909091,
                "end_time": 53.168181818181814,
                "pitch": 48,
                "velocity": 64,
                "duration": 0.13409090909090793,
                "tempo": 120.0
            },
            {
                "start_time": 53.084090909090904,
                "end_time": 53.168181818181814,
                "pitch": 60,
                "velocity": 64,
                "duration": 0.08409090909091077,
                "tempo": 120.0
            },
            {
                "start_time": 53.168181818181814,
                "end_time": 53.21818181818182,
                "pitch": 60,
                "velocity": 64,
                "duration": 0.05000000000000426,
                "tempo": 120.0
            },
            {
                "start_time": 53.084090909090904,
                "end_time": 53.21818181818182,
                "pitch": 64,
                "velocity": 64,
                "duration": 0.13409090909091503,
                "tempo": 120.0
            },
            {
                "start_time": 53.21818181818182,
                "end_time": 53.3,
                "pitch": 60,
                "velocity": 64,
                "duration": 0.08181818181817846,
                "tempo": 120.0
            },
            {
                "start_time": 53.3,
                "end_time": 53.349999999999994,
                "pitch": 60,
                "velocity": 64,
                "duration": 0.04999999999999716,
                "tempo": 120.0
            },
            {
                "start_time": 53.21818181818182,
                "end_time": 53.349999999999994,
                "pitch": 64,
                "velocity": 64,
                "duration": 0.13181818181817562,
                "tempo": 120.0
            },
            {
                "start_time": 53.349999999999994,
                "end_time": 53.434090909090905,
                "pitch": 60,
                "velocity": 64,
                "duration": 0.08409090909091077,
                "tempo": 120.0
            },
            {
                "start_time": 54.043181818181814,
                "end_time": 54.143181818181816,
                "pitch": 52,
                "velocity": 64,
                "duration": 0.10000000000000142,
                "tempo": 120.0
            },
            {
                "start_time": 54.143181818181816,
                "end_time": 54.24318181818182,
                "pitch": 57,
                "velocity": 64,
                "duration": 0.10000000000000142,
                "tempo": 120.0
            },
            {
                "start_time": 53.349999999999994,
                "end_time": 55.07954545454545,
                "pitch": 64,
                "velocity": 64,
                "duration": 1.729545454545459,
                "tempo": 120.0
            },
            {
                "start_time": 54.24318181818182,
                "end_time": 55.07954545454545,
                "pitch": 64,
                "velocity": 64,
                "duration": 0.836363636363636,
                "tempo": 120.0
            },
            {
                "start_time": 55.277272727272724,
                "end_time": 55.470454545454544,
                "pitch": 64,
                "velocity": 64,
                "duration": 0.19318181818182012,
                "tempo": 120.0
            },
            {
                "start_time": 55.47272727272727,
                "end_time": 55.675,
                "pitch": 62,
                "velocity": 64,
                "duration": 0.20227272727272805,
                "tempo": 120.0
            },
            {
                "start_time": 55.67727272727272,
                "end_time": 55.89772727272727,
                "pitch": 59,
                "velocity": 64,
                "duration": 0.220454545454551,
                "tempo": 120.0
            }
        ],
        "Lead 2 (sawtooth)": [
            {
                "start_time": 0.031818181818181815,
                "end_time": 0.22954545454545452,
                "pitch": 45,
                "velocity": 80,
                "duration": 0.1977272727272727,
                "tempo": 120.0
            },
            {
                "start_time": 0.22954545454545452,
                "end_time": 0.32954545454545453,
                "pitch": 57,
                "velocity": 80,
                "duration": 0.1,
                "tempo": 120.0
            },
            {
                "start_time": 0.32954545454545453,
                "end_time": 0.4295454545454545,
                "pitch": 45,
                "velocity": 80,
                "duration": 0.09999999999999998,
                "tempo": 120.0
            },
            {
                "start_time": 0.4295454545454545,
                "end_time": 0.5318181818181817,
                "pitch": 45,
                "velocity": 80,
                "duration": 0.10227272727272724,
                "tempo": 120.0
            },
            {
                "start_time": 0.5318181818181817,
                "end_time": 0.634090909090909,
                "pitch": 45,
                "velocity": 80,
                "duration": 0.10227272727272729,
                "tempo": 120.0
            },
            {
                "start_time": 0.634090909090909,
                "end_time": 0.8568181818181818,
                "pitch": 57,
                "velocity": 80,
                "duration": 0.22272727272727277,
                "tempo": 120.0
            },
            {
                "start_time": 0.8568181818181818,
                "end_time": 1.0613636363636363,
                "pitch": 43,
                "velocity": 80,
                "duration": 0.20454545454545447,
                "tempo": 120.0
            },
            {
                "start_time": 1.0636363636363635,
                "end_time": 1.1636363636363636,
                "pitch": 42,
                "velocity": 80,
                "duration": 0.10000000000000009,
                "tempo": 120.0
            },
            {
                "start_time": 1.1659090909090908,
                "end_time": 1.3659090909090907,
                "pitch": 43,
                "velocity": 80,
                "duration": 0.19999999999999996,
                "tempo": 120.0
            },
            {
                "start_time": 1.3681818181818182,
                "end_time": 1.4659090909090908,
                "pitch": 42,
                "velocity": 80,
                "duration": 0.09772727272727266,
                "tempo": 120.0
            },
            {
                "start_time": 1.468181818181818,
                "end_time": 1.6659090909090908,
                "pitch": 43,
                "velocity": 80,
                "duration": 0.19772727272727275,
                "tempo": 120.0
            },
            {
                "start_time": 1.6659090909090908,
                "end_time": 1.8659090909090907,
                "pitch": 41,
                "velocity": 80,
                "duration": 0.19999999999999996,
                "tempo": 120.0
            },
            {
                "start_time": 1.8659090909090907,
                "end_time": 1.9818181818181817,
                "pitch": 53,
                "velocity": 80,
                "duration": 0.11590909090909096,
                "tempo": 120.0
            },
            {
                "start_time": 1.9818181818181817,
                "end_time": 2.0818181818181816,
                "pitch": 41,
                "velocity": 80,
                "duration": 0.09999999999999987,
                "tempo": 120.0
            },
            {
                "start_time": 2.0818181818181816,
                "end_time": 2.186363636363636,
                "pitch": 41,
                "velocity": 80,
                "duration": 0.1045454545454545,
                "tempo": 120.0
            },
            {
                "start_time": 2.1886363636363635,
                "end_time": 2.293181818181818,
                "pitch": 41,
                "velocity": 80,
                "duration": 0.1045454545454545,
                "tempo": 120.0
            },
            {
                "start_time": 2.293181818181818,
                "end_time": 2.5045454545454544,
                "pitch": 53,
                "velocity": 80,
                "duration": 0.21136363636363642,
                "tempo": 120.0
            },
            {
                "start_time": 2.5045454545454544,
                "end_time": 2.702272727272727,
                "pitch": 40,
                "velocity": 80,
                "duration": 0.19772727272727275,
                "tempo": 120.0
            },
            {
                "start_time": 2.7045454545454546,
                "end_time": 2.8022727272727272,
                "pitch": 39,
                "velocity": 80,
                "duration": 0.09772727272727266,
                "tempo": 120.0
            },
            {
                "start_time": 2.8045454545454542,
                "end_time": 3.002272727272727,
                "pitch": 40,
                "velocity": 80,
                "duration": 0.19772727272727275,
                "tempo": 120.0
            },
            {
                "start_time": 3.002272727272727,
                "end_time": 3.102272727272727,
                "pitch": 39,
                "velocity": 80,
                "duration": 0.10000000000000009,
                "tempo": 120.0
            },
            {
                "start_time": 3.102272727272727,
                "end_time": 3.318181818181818,
                "pitch": 40,
                "velocity": 80,
                "duration": 0.21590909090909083,
                "tempo": 120.0
            },
            {
                "start_time": 3.3204545454545453,
                "end_time": 3.5227272727272725,
                "pitch": 45,
                "velocity": 80,
                "duration": 0.20227272727272716,
                "tempo": 120.0
            },
            {
                "start_time": 3.525,
                "end_time": 3.625,
                "pitch": 57,
                "velocity": 80,
                "duration": 0.10000000000000009,
                "tempo": 120.0
            },
            {
                "start_time": 3.627272727272727,
                "end_time": 3.7295454545454545,
                "pitch": 45,
                "velocity": 80,
                "duration": 0.10227272727272751,
                "tempo": 120.0
            },
            {
                "start_time": 3.7295454545454545,
                "end_time": 3.827272727272727,
                "pitch": 45,
                "velocity": 80,
                "duration": 0.09772727272727266,
                "tempo": 120.0
            },
            {
                "start_time": 3.829545454545454,
                "end_time": 3.9272727272727272,
                "pitch": 45,
                "velocity": 80,
                "duration": 0.0977272727272731,
                "tempo": 120.0
            },
            {
                "start_time": 3.9295454545454542,
                "end_time": 4.127272727272727,
                "pitch": 57,
                "velocity": 80,
                "duration": 0.19772727272727275,
                "tempo": 120.0
            },
            {
                "start_time": 4.129545454545454,
                "end_time": 4.329545454545454,
                "pitch": 43,
                "velocity": 80,
                "duration": 0.20000000000000018,
                "tempo": 120.0
            },
            {
                "start_time": 4.329545454545454,
                "end_time": 4.429545454545455,
                "pitch": 42,
                "velocity": 80,
                "duration": 0.10000000000000053,
                "tempo": 120.0
            },
            {
                "start_time": 4.429545454545455,
                "end_time": 4.652272727272727,
                "pitch": 43,
                "velocity": 80,
                "duration": 0.22272727272727266,
                "tempo": 120.0
            },
            {
                "start_time": 4.652272727272727,
                "end_time": 4.756818181818182,
                "pitch": 42,
                "velocity": 80,
                "duration": 0.1045454545454545,
                "tempo": 120.0
            },
            {
                "start_time": 4.759090909090909,
                "end_time": 4.968181818181818,
                "pitch": 43,
                "velocity": 80,
                "duration": 0.209090909090909,
                "tempo": 120.0
            },
            {
                "start_time": 4.970454545454545,
                "end_time": 5.168181818181818,
                "pitch": 41,
                "velocity": 80,
                "duration": 0.1977272727272732,
                "tempo": 120.0
            },
            {
                "start_time": 5.168181818181818,
                "end_time": 5.268181818181818,
                "pitch": 53,
                "velocity": 80,
                "duration": 0.09999999999999964,
                "tempo": 120.0
            },
            {
                "start_time": 5.268181818181818,
                "end_time": 5.368181818181818,
                "pitch": 41,
                "velocity": 80,
                "duration": 0.10000000000000053,
                "tempo": 120.0
            },
            {
                "start_time": 5.368181818181818,
                "end_time": 5.468181818181818,
                "pitch": 41,
                "velocity": 80,
                "duration": 0.09999999999999964,
                "tempo": 120.0
            },
            {
                "start_time": 5.468181818181818,
                "end_time": 5.568181818181818,
                "pitch": 41,
                "velocity": 80,
                "duration": 0.10000000000000053,
                "tempo": 120.0
            },
            {
                "start_time": 5.570454545454545,
                "end_time": 5.786363636363636,
                "pitch": 53,
                "velocity": 80,
                "duration": 0.21590909090909083,
                "tempo": 120.0
            },
            {
                "start_time": 5.786363636363636,
                "end_time": 5.99090909090909,
                "pitch": 40,
                "velocity": 80,
                "duration": 0.20454545454545414,
                "tempo": 120.0
            },
            {
                "start_time": 5.993181818181818,
                "end_time": 6.093181818181818,
                "pitch": 39,
                "velocity": 80,
                "duration": 0.09999999999999964,
                "tempo": 120.0
            },
            {
                "start_time": 6.095454545454545,
                "end_time": 6.295454545454545,
                "pitch": 40,
                "velocity": 80,
                "duration": 0.20000000000000018,
                "tempo": 120.0
            },
            {
                "start_time": 6.297727272727273,
                "end_time": 6.3954545454545455,
                "pitch": 39,
                "velocity": 80,
                "duration": 0.09772727272727266,
                "tempo": 120.0
            },
            {
                "start_time": 6.3977272727272725,
                "end_time": 6.595454545454545,
                "pitch": 40,
                "velocity": 80,
                "duration": 0.1977272727272723,
                "tempo": 120.0
            },
            {
                "start_time": 6.597727272727273,
                "end_time": 6.795454545454545,
                "pitch": 45,
                "velocity": 80,
                "duration": 0.1977272727272723,
                "tempo": 120.0
            },
            {
                "start_time": 6.797727272727273,
                "end_time": 6.8977272727272725,
                "pitch": 57,
                "velocity": 80,
                "duration": 0.09999999999999964,
                "tempo": 120.0
            },
            {
                "start_time": 6.8977272727272725,
                "end_time": 7.013636363636364,
                "pitch": 45,
                "velocity": 80,
                "duration": 0.11590909090909118,
                "tempo": 120.0
            },
            {
                "start_time": 7.015909090909091,
                "end_time": 7.118181818181818,
                "pitch": 45,
                "velocity": 80,
                "duration": 0.10227272727272751,
                "tempo": 120.0
            },
            {
                "start_time": 7.120454545454545,
                "end_time": 7.225,
                "pitch": 45,
                "velocity": 80,
                "duration": 0.1045454545454545,
                "tempo": 120.0
            },
            {
                "start_time": 7.225,
                "end_time": 7.436363636363636,
                "pitch": 57,
                "velocity": 80,
                "duration": 0.21136363636363598,
                "tempo": 120.0
            },
            {
                "start_time": 7.436363636363636,
                "end_time": 7.631818181818182,
                "pitch": 43,
                "velocity": 80,
                "duration": 0.1954545454545462,
                "tempo": 120.0
            },
            {
                "start_time": 7.631818181818182,
                "end_time": 7.7295454545454545,
                "pitch": 42,
                "velocity": 80,
                "duration": 0.09772727272727266,
                "tempo": 120.0
            },
            {
                "start_time": 7.7295454545454545,
                "end_time": 7.929545454545454,
                "pitch": 43,
                "velocity": 80,
                "duration": 0.1999999999999993,
                "tempo": 120.0
            },
            {
                "start_time": 7.929545454545454,
                "end_time": 8.031818181818181,
                "pitch": 42,
                "velocity": 80,
                "duration": 0.10227272727272751,
                "tempo": 120.0
            },
            {
                "start_time": 8.031818181818181,
                "end_time": 8.236363636363636,
                "pitch": 43,
                "velocity": 80,
                "duration": 0.20454545454545503,
                "tempo": 120.0
            },
            {
                "start_time": 8.238636363636363,
                "end_time": 8.452272727272726,
                "pitch": 41,
                "velocity": 80,
                "duration": 0.21363636363636296,
                "tempo": 120.0
            },
            {
                "start_time": 8.454545454545453,
                "end_time": 8.552272727272728,
                "pitch": 53,
                "velocity": 80,
                "duration": 0.09772727272727444,
                "tempo": 120.0
            },
            {
                "start_time": 8.554545454545455,
                "end_time": 8.652272727272727,
                "pitch": 41,
                "velocity": 80,
                "duration": 0.09772727272727266,
                "tempo": 120.0
            },
            {
                "start_time": 8.654545454545454,
                "end_time": 8.754545454545454,
                "pitch": 41,
                "velocity": 80,
                "duration": 0.09999999999999964,
                "tempo": 120.0
            },
            {
                "start_time": 8.756818181818181,
                "end_time": 8.85681818181818,
                "pitch": 41,
                "velocity": 80,
                "duration": 0.09999999999999964,
                "tempo": 120.0
            },
            {
                "start_time": 8.85909090909091,
                "end_time": 9.063636363636363,
                "pitch": 53,
                "velocity": 80,
                "duration": 0.20454545454545325,
                "tempo": 120.0
            },
            {
                "start_time": 9.063636363636363,
                "end_time": 9.263636363636364,
                "pitch": 40,
                "velocity": 80,
                "duration": 0.20000000000000107,
                "tempo": 120.0
            },
            {
                "start_time": 9.263636363636364,
                "end_time": 9.363636363636363,
                "pitch": 39,
                "velocity": 80,
                "duration": 0.09999999999999964,
                "tempo": 120.0
            },
            {
                "start_time": 9.36590909090909,
                "end_time": 9.581818181818182,
                "pitch": 40,
                "velocity": 80,
                "duration": 0.21590909090909172,
                "tempo": 120.0
            },
            {
                "start_time": 9.581818181818182,
                "end_time": 9.681818181818182,
                "pitch": 39,
                "velocity": 80,
                "duration": 0.09999999999999964,
                "tempo": 120.0
            },
            {
                "start_time": 9.684090909090909,
                "end_time": 9.884090909090908,
                "pitch": 40,
                "velocity": 80,
                "duration": 0.1999999999999993,
                "tempo": 120.0
            },
            {
                "start_time": 9.884090909090908,
                "end_time": 10.093181818181817,
                "pitch": 45,
                "velocity": 80,
                "duration": 0.209090909090909,
                "tempo": 120.0
            },
            {
                "start_time": 10.095454545454546,
                "end_time": 10.2,
                "pitch": 57,
                "velocity": 80,
                "duration": 0.10454545454545361,
                "tempo": 120.0
            },
            {
                "start_time": 10.2,
                "end_time": 10.304545454545455,
                "pitch": 45,
                "velocity": 80,
                "duration": 0.10454545454545539,
                "tempo": 120.0
            },
            {
                "start_time": 10.306818181818182,
                "end_time": 10.404545454545454,
                "pitch": 45,
                "velocity": 80,
                "duration": 0.09772727272727266,
                "tempo": 120.0
            },
            {
                "start_time": 10.406818181818181,
                "end_time": 10.506818181818181,
                "pitch": 45,
                "velocity": 80,
                "duration": 0.09999999999999964,
                "tempo": 120.0
            },
            {
                "start_time": 10.506818181818181,
                "end_time": 10.706818181818182,
                "pitch": 57,
                "velocity": 80,
                "duration": 0.20000000000000107,
                "tempo": 120.0
            },
            {
                "start_time": 10.709090909090909,
                "end_time": 10.902272727272727,
                "pitch": 43,
                "velocity": 80,
                "duration": 0.19318181818181834,
                "tempo": 120.0
            },
            {
                "start_time": 10.904545454545454,
                "end_time": 11.0,
                "pitch": 42,
                "velocity": 80,
                "duration": 0.09545454545454568,
                "tempo": 120.0
            },
            {
                "start_time": 11.002272727272727,
                "end_time": 11.220454545454546,
                "pitch": 43,
                "velocity": 80,
                "duration": 0.2181818181818187,
                "tempo": 120.0
            },
            {
                "start_time": 11.220454545454546,
                "end_time": 11.325,
                "pitch": 42,
                "velocity": 80,
                "duration": 0.10454545454545361,
                "tempo": 120.0
            },
            {
                "start_time": 11.327272727272726,
                "end_time": 11.536363636363635,
                "pitch": 43,
                "velocity": 80,
                "duration": 0.209090909090909,
                "tempo": 120.0
            },
            {
                "start_time": 11.536363636363635,
                "end_time": 11.736363636363636,
                "pitch": 41,
                "velocity": 80,
                "duration": 0.20000000000000107,
                "tempo": 120.0
            },
            {
                "start_time": 11.736363636363636,
                "end_time": 11.836363636363636,
                "pitch": 53,
                "velocity": 80,
                "duration": 0.09999999999999964,
                "tempo": 120.0
            },
            {
                "start_time": 11.836363636363636,
                "end_time": 11.936363636363636,
                "pitch": 41,
                "velocity": 80,
                "duration": 0.09999999999999964,
                "tempo": 120.0
            },
            {
                "start_time": 11.936363636363636,
                "end_time": 12.036363636363635,
                "pitch": 41,
                "velocity": 80,
                "duration": 0.09999999999999964,
                "tempo": 120.0
            },
            {
                "start_time": 12.036363636363635,
                "end_time": 12.136363636363635,
                "pitch": 41,
                "velocity": 80,
                "duration": 0.09999999999999964,
                "tempo": 120.0
            },
            {
                "start_time": 12.136363636363635,
                "end_time": 12.354545454545454,
                "pitch": 53,
                "velocity": 80,
                "duration": 0.2181818181818187,
                "tempo": 120.0
            },
            {
                "start_time": 12.354545454545454,
                "end_time": 12.559090909090909,
                "pitch": 40,
                "velocity": 80,
                "duration": 0.20454545454545503,
                "tempo": 120.0
            },
            {
                "start_time": 12.559090909090909,
                "end_time": 12.661363636363635,
                "pitch": 39,
                "velocity": 80,
                "duration": 0.10227272727272663,
                "tempo": 120.0
            },
            {
                "start_time": 12.663636363636362,
                "end_time": 12.863636363636363,
                "pitch": 40,
                "velocity": 80,
                "duration": 0.20000000000000107,
                "tempo": 120.0
            },
            {
                "start_time": 12.86590909090909,
                "end_time": 12.96590909090909,
                "pitch": 39,
                "velocity": 80,
                "duration": 0.09999999999999964,
                "tempo": 120.0
            },
            {
                "start_time": 12.96590909090909,
                "end_time": 13.165909090909091,
                "pitch": 40,
                "velocity": 80,
                "duration": 0.20000000000000107,
                "tempo": 120.0
            },
            {
                "start_time": 13.168181818181818,
                "end_time": 13.368181818181817,
                "pitch": 45,
                "velocity": 80,
                "duration": 0.1999999999999993,
                "tempo": 120.0
            },
            {
                "start_time": 13.368181818181817,
                "end_time": 13.468181818181817,
                "pitch": 57,
                "velocity": 80,
                "duration": 0.09999999999999964,
                "tempo": 120.0
            },
            {
                "start_time": 13.468181818181817,
                "end_time": 13.584090909090909,
                "pitch": 45,
                "velocity": 80,
                "duration": 0.11590909090909207,
                "tempo": 120.0
            },
            {
                "start_time": 13.586363636363636,
                "end_time": 13.69090909090909,
                "pitch": 45,
                "velocity": 80,
                "duration": 0.10454545454545361,
                "tempo": 120.0
            },
            {
                "start_time": 13.69090909090909,
                "end_time": 13.795454545454545,
                "pitch": 45,
                "velocity": 80,
                "duration": 0.10454545454545539,
                "tempo": 120.0
            },
            {
                "start_time": 13.795454545454545,
                "end_time": 14.006818181818181,
                "pitch": 57,
                "velocity": 80,
                "duration": 0.21136363636363598,
                "tempo": 120.0
            },
            {
                "start_time": 14.006818181818181,
                "end_time": 14.206818181818182,
                "pitch": 43,
                "velocity": 80,
                "duration": 0.20000000000000107,
                "tempo": 120.0
            },
            {
                "start_time": 14.206818181818182,
                "end_time": 14.306818181818182,
                "pitch": 42,
                "velocity": 80,
                "duration": 0.09999999999999964,
                "tempo": 120.0
            },
            {
                "start_time": 14.306818181818182,
                "end_time": 14.506818181818181,
                "pitch": 43,
                "velocity": 80,
                "duration": 0.1999999999999993,
                "tempo": 120.0
            },
            {
                "start_time": 14.506818181818181,
                "end_time": 14.60681818181818,
                "pitch": 42,
                "velocity": 80,
                "duration": 0.09999999999999964,
                "tempo": 120.0
            },
            {
                "start_time": 14.60681818181818,
                "end_time": 14.809090909090909,
                "pitch": 43,
                "velocity": 80,
                "duration": 0.20227272727272805,
                "tempo": 120.0
            },
            {
                "start_time": 14.809090909090909,
                "end_time": 15.024999999999999,
                "pitch": 41,
                "velocity": 80,
                "duration": 0.21590909090908994,
                "tempo": 120.0
            },
            {
                "start_time": 15.027272727272727,
                "end_time": 15.125,
                "pitch": 53,
                "velocity": 80,
                "duration": 0.09772727272727266,
                "tempo": 120.0
            },
            {
                "start_time": 15.127272727272727,
                "end_time": 15.227272727272727,
                "pitch": 41,
                "velocity": 80,
                "duration": 0.09999999999999964,
                "tempo": 120.0
            },
            {
                "start_time": 15.227272727272727,
                "end_time": 15.329545454545453,
                "pitch": 41,
                "velocity": 80,
                "duration": 0.10227272727272663,
                "tempo": 120.0
            },
            {
                "start_time": 15.329545454545453,
                "end_time": 15.431818181818182,
                "pitch": 41,
                "velocity": 80,
                "duration": 0.1022727272727284,
                "tempo": 120.0
            },
            {
                "start_time": 15.431818181818182,
                "end_time": 15.636363636363635,
                "pitch": 53,
                "velocity": 80,
                "duration": 0.20454545454545325,
                "tempo": 120.0
            },
            {
                "start_time": 15.636363636363635,
                "end_time": 15.836363636363636,
                "pitch": 40,
                "velocity": 80,
                "duration": 0.20000000000000107,
                "tempo": 120.0
            },
            {
                "start_time": 15.838636363636363,
                "end_time": 15.938636363636363,
                "pitch": 39,
                "velocity": 80,
                "duration": 0.09999999999999964,
                "tempo": 120.0
            },
            {
                "start_time": 15.938636363636363,
                "end_time": 16.154545454545453,
                "pitch": 40,
                "velocity": 80,
                "duration": 0.21590909090908994,
                "tempo": 120.0
            },
            {
                "start_time": 16.15681818181818,
                "end_time": 16.256818181818183,
                "pitch": 39,
                "velocity": 80,
                "duration": 0.10000000000000142,
                "tempo": 120.0
            },
            {
                "start_time": 16.256818181818183,
                "end_time": 16.456818181818182,
                "pitch": 40,
                "velocity": 80,
                "duration": 0.1999999999999993,
                "tempo": 120.0
            },
            {
                "start_time": 16.459090909090907,
                "end_time": 16.661363636363635,
                "pitch": 38,
                "velocity": 80,
                "duration": 0.20227272727272805,
                "tempo": 120.0
            },
            {
                "start_time": 16.663636363636364,
                "end_time": 16.763636363636362,
                "pitch": 50,
                "velocity": 80,
                "duration": 0.09999999999999787,
                "tempo": 120.0
            },
            {
                "start_time": 16.76590909090909,
                "end_time": 16.868181818181817,
                "pitch": 38,
                "velocity": 80,
                "duration": 0.10227272727272663,
                "tempo": 120.0
            },
            {
                "start_time": 16.868181818181817,
                "end_time": 16.970454545454544,
                "pitch": 38,
                "velocity": 80,
                "duration": 0.10227272727272663,
                "tempo": 120.0
            },
            {
                "start_time": 16.970454545454544,
                "end_time": 17.07272727272727,
                "pitch": 38,
                "velocity": 80,
                "duration": 0.10227272727272663,
                "tempo": 120.0
            },
            {
                "start_time": 17.07272727272727,
                "end_time": 17.277272727272727,
                "pitch": 50,
                "velocity": 80,
                "duration": 0.2045454545454568,
                "tempo": 120.0
            },
            {
                "start_time": 17.277272727272727,
                "end_time": 17.68409090909091,
                "pitch": 38,
                "velocity": 80,
                "duration": 0.4068181818181813,
                "tempo": 120.0
            },
            {
                "start_time": 17.686363636363634,
                "end_time": 18.10681818181818,
                "pitch": 40,
                "velocity": 80,
                "duration": 0.42045454545454675,
                "tempo": 120.0
            },
            {
                "start_time": 18.10681818181818,
                "end_time": 18.30681818181818,
                "pitch": 41,
                "velocity": 80,
                "duration": 0.1999999999999993,
                "tempo": 120.0
            },
            {
                "start_time": 18.30681818181818,
                "end_time": 18.40681818181818,
                "pitch": 53,
                "velocity": 80,
                "duration": 0.10000000000000142,
                "tempo": 120.0
            },
            {
                "start_time": 18.40681818181818,
                "end_time": 18.504545454545454,
                "pitch": 41,
                "velocity": 80,
                "duration": 0.09772727272727266,
                "tempo": 120.0
            },
            {
                "start_time": 18.50681818181818,
                "end_time": 18.60681818181818,
                "pitch": 41,
                "velocity": 80,
                "duration": 0.10000000000000142,
                "tempo": 120.0
            },
            {
                "start_time": 18.60681818181818,
                "end_time": 18.722727272727273,
                "pitch": 41,
                "velocity": 80,
                "duration": 0.11590909090909207,
                "tempo": 120.0
            },
            {
                "start_time": 18.724999999999998,
                "end_time": 18.925,
                "pitch": 53,
                "velocity": 80,
                "duration": 0.20000000000000284,
                "tempo": 120.0
            },
            {
                "start_time": 18.925,
                "end_time": 19.334090909090907,
                "pitch": 43,
                "velocity": 80,
                "duration": 0.4090909090909065,
                "tempo": 120.0
            },
            {
                "start_time": 19.336363636363636,
                "end_time": 19.73409090909091,
                "pitch": 40,
                "velocity": 80,
                "duration": 0.3977272727272734,
                "tempo": 120.0
            },
            {
                "start_time": 19.73409090909091,
                "end_time": 19.952272727272728,
                "pitch": 38,
                "velocity": 80,
                "duration": 0.2181818181818187,
                "tempo": 120.0
            },
            {
                "start_time": 19.952272727272728,
                "end_time": 20.052272727272726,
                "pitch": 50,
                "velocity": 80,
                "duration": 0.09999999999999787,
                "tempo": 120.0
            },
            {
                "start_time": 20.052272727272726,
                "end_time": 20.152272727272727,
                "pitch": 38,
                "velocity": 80,
                "duration": 0.10000000000000142,
                "tempo": 120.0
            },
            {
                "start_time": 20.154545454545453,
                "end_time": 20.25681818181818,
                "pitch": 38,
                "velocity": 80,
                "duration": 0.10227272727272663,
                "tempo": 120.0
            },
            {
                "start_time": 20.259090909090908,
                "end_time": 20.363636363636363,
                "pitch": 38,
                "velocity": 80,
                "duration": 0.10454545454545539,
                "tempo": 120.0
            },
            {
                "start_time": 20.363636363636363,
                "end_time": 20.575,
                "pitch": 50,
                "velocity": 80,
                "duration": 0.21136363636363598,
                "tempo": 120.0
            },
            {
                "start_time": 20.575,
                "end_time": 20.977272727272727,
                "pitch": 38,
                "velocity": 80,
                "duration": 0.40227272727272734,
                "tempo": 120.0
            },
            {
                "start_time": 20.977272727272727,
                "end_time": 21.393181818181816,
                "pitch": 40,
                "velocity": 80,
                "duration": 0.41590909090908923,
                "tempo": 120.0
            },
            {
                "start_time": 21.393181818181816,
                "end_time": 21.597727272727273,
                "pitch": 41,
                "velocity": 80,
                "duration": 0.2045454545454568,
                "tempo": 120.0
            },
            {
                "start_time": 21.597727272727273,
                "end_time": 21.7,
                "pitch": 53,
                "velocity": 80,
                "duration": 0.10227272727272663,
                "tempo": 120.0
            },
            {
                "start_time": 21.7,
                "end_time": 21.802272727272726,
                "pitch": 41,
                "velocity": 80,
                "duration": 0.10227272727272663,
                "tempo": 120.0
            },
            {
                "start_time": 21.802272727272726,
                "end_time": 21.902272727272727,
                "pitch": 41,
                "velocity": 80,
                "duration": 0.10000000000000142,
                "tempo": 120.0
            },
            {
                "start_time": 21.902272727272727,
                "end_time": 22.002272727272725,
                "pitch": 41,
                "velocity": 80,
                "duration": 0.09999999999999787,
                "tempo": 120.0
            },
            {
                "start_time": 22.002272727272725,
                "end_time": 22.202272727272724,
                "pitch": 53,
                "velocity": 80,
                "duration": 0.1999999999999993,
                "tempo": 120.0
            },
            {
                "start_time": 22.202272727272724,
                "end_time": 22.620454545454546,
                "pitch": 43,
                "velocity": 80,
                "duration": 0.41818181818182154,
                "tempo": 120.0
            },
            {
                "start_time": 22.620454545454546,
                "end_time": 23.043181818181818,
                "pitch": 40,
                "velocity": 80,
                "duration": 0.42272727272727195,
                "tempo": 120.0
            },
            {
                "start_time": 23.043181818181818,
                "end_time": 23.243181818181817,
                "pitch": 45,
                "velocity": 80,
                "duration": 0.1999999999999993,
                "tempo": 120.0
            },
            {
                "start_time": 23.243181818181817,
                "end_time": 23.34318181818182,
                "pitch": 57,
                "velocity": 80,
                "duration": 0.10000000000000142,
                "tempo": 120.0
            },
            {
                "start_time": 23.34318181818182,
                "end_time": 23.443181818181817,
                "pitch": 45,
                "velocity": 80,
                "duration": 0.09999999999999787,
                "tempo": 120.0
            },
            {
                "start_time": 23.445454545454545,
                "end_time": 23.543181818181818,
                "pitch": 45,
                "velocity": 80,
                "duration": 0.09772727272727266,
                "tempo": 120.0
            },
            {
                "start_time": 23.543181818181818,
                "end_time": 23.643181818181816,
                "pitch": 45,
                "velocity": 80,
                "duration": 0.09999999999999787,
                "tempo": 120.0
            },
            {
                "start_time": 23.645454545454545,
                "end_time": 23.85909090909091,
                "pitch": 57,
                "velocity": 80,
                "duration": 0.21363636363636473,
                "tempo": 120.0
            },
            {
                "start_time": 23.861363636363635,
                "end_time": 24.063636363636363,
                "pitch": 43,
                "velocity": 80,
                "duration": 0.20227272727272805,
                "tempo": 120.0
            },
            {
                "start_time": 24.06590909090909,
                "end_time": 24.168181818181818,
                "pitch": 42,
                "velocity": 80,
                "duration": 0.10227272727272663,
                "tempo": 120.0
            },
            {
                "start_time": 24.168181818181818,
                "end_time": 24.368181818181817,
                "pitch": 43,
                "velocity": 80,
                "duration": 0.1999999999999993,
                "tempo": 120.0
            },
            {
                "start_time": 24.370454545454546,
                "end_time": 24.470454545454544,
                "pitch": 42,
                "velocity": 80,
                "duration": 0.09999999999999787,
                "tempo": 120.0
            },
            {
                "start_time": 24.470454545454544,
                "end_time": 24.668181818181818,
                "pitch": 43,
                "velocity": 80,
                "duration": 0.19772727272727408,
                "tempo": 120.0
            },
            {
                "start_time": 24.670454545454543,
                "end_time": 24.870454545454542,
                "pitch": 41,
                "velocity": 80,
                "duration": 0.1999999999999993,
                "tempo": 120.0
            },
            {
                "start_time": 24.870454545454542,
                "end_time": 24.970454545454544,
                "pitch": 53,
                "velocity": 80,
                "duration": 0.10000000000000142,
                "tempo": 120.0
            },
            {
                "start_time": 24.970454545454544,
                "end_time": 25.08863636363636,
                "pitch": 41,
                "velocity": 80,
                "duration": 0.11818181818181728,
                "tempo": 120.0
            },
            {
                "start_time": 25.08863636363636,
                "end_time": 25.193181818181817,
                "pitch": 41,
                "velocity": 80,
                "duration": 0.10454545454545539,
                "tempo": 120.0
            },
            {
                "start_time": 25.193181818181817,
                "end_time": 25.297727272727272,
                "pitch": 41,
                "velocity": 80,
                "duration": 0.10454545454545539,
                "tempo": 120.0
            },
            {
                "start_time": 25.299999999999997,
                "end_time": 25.509090909090908,
                "pitch": 53,
                "velocity": 80,
                "duration": 0.20909090909091077,
                "tempo": 120.0
            },
            {
                "start_time": 25.509090909090908,
                "end_time": 25.704545454545453,
                "pitch": 40,
                "velocity": 80,
                "duration": 0.19545454545454533,
                "tempo": 120.0
            },
            {
                "start_time": 25.704545454545453,
                "end_time": 25.802272727272726,
                "pitch": 39,
                "velocity": 80,
                "duration": 0.09772727272727266,
                "tempo": 120.0
            },
            {
                "start_time": 25.802272727272726,
                "end_time": 26.0,
                "pitch": 40,
                "velocity": 80,
                "duration": 0.19772727272727408,
                "tempo": 120.0
            },
            {
                "start_time": 26.002272727272725,
                "end_time": 26.102272727272727,
                "pitch": 39,
                "velocity": 80,
                "duration": 0.10000000000000142,
                "tempo": 120.0
            },
            {
                "start_time": 26.102272727272727,
                "end_time": 26.318181818181817,
                "pitch": 40,
                "velocity": 80,
                "duration": 0.21590909090908994,
                "tempo": 120.0
            },
            {
                "start_time": 26.320454545454545,
                "end_time": 26.529545454545453,
                "pitch": 45,
                "velocity": 80,
                "duration": 0.20909090909090722,
                "tempo": 120.0
            },
            {
                "start_time": 26.529545454545453,
                "end_time": 26.634090909090908,
                "pitch": 57,
                "velocity": 80,
                "duration": 0.10454545454545539,
                "tempo": 120.0
            },
            {
                "start_time": 26.636363636363637,
                "end_time": 26.74090909090909,
                "pitch": 45,
                "velocity": 80,
                "duration": 0.10454545454545183,
                "tempo": 120.0
            },
            {
                "start_time": 26.74090909090909,
                "end_time": 26.84090909090909,
                "pitch": 45,
                "velocity": 80,
                "duration": 0.10000000000000142,
                "tempo": 120.0
            },
            {
                "start_time": 26.84090909090909,
                "end_time": 26.94090909090909,
                "pitch": 45,
                "velocity": 80,
                "duration": 0.10000000000000142,
                "tempo": 120.0
            },
            {
                "start_time": 26.94090909090909,
                "end_time": 27.14090909090909,
                "pitch": 57,
                "velocity": 80,
                "duration": 0.1999999999999993,
                "tempo": 120.0
            },
            {
                "start_time": 27.14090909090909,
                "end_time": 27.34090909090909,
                "pitch": 43,
                "velocity": 80,
                "duration": 0.1999999999999993,
                "tempo": 120.0
            },
            {
                "start_time": 27.34090909090909,
                "end_time": 27.440909090909088,
                "pitch": 42,
                "velocity": 80,
                "duration": 0.09999999999999787,
                "tempo": 120.0
            },
            {
                "start_time": 27.443181818181817,
                "end_time": 27.661363636363635,
                "pitch": 43,
                "velocity": 80,
                "duration": 0.2181818181818187,
                "tempo": 120.0
            },
            {
                "start_time": 27.661363636363635,
                "end_time": 27.763636363636362,
                "pitch": 42,
                "velocity": 80,
                "duration": 0.10227272727272663,
                "tempo": 120.0
            },
            {
                "start_time": 27.763636363636362,
                "end_time": 27.968181818181815,
                "pitch": 43,
                "velocity": 80,
                "duration": 0.20454545454545325,
                "tempo": 120.0
            },
            {
                "start_time": 27.970454545454544,
                "end_time": 28.168181818181818,
                "pitch": 41,
                "velocity": 80,
                "duration": 0.19772727272727408,
                "tempo": 120.0
            },
            {
                "start_time": 28.168181818181818,
                "end_time": 28.268181818181816,
                "pitch": 53,
                "velocity": 80,
                "duration": 0.09999999999999787,
                "tempo": 120.0
            },
            {
                "start_time": 28.268181818181816,
                "end_time": 28.368181818181817,
                "pitch": 41,
                "velocity": 80,
                "duration": 0.10000000000000142,
                "tempo": 120.0
            },
            {
                "start_time": 28.368181818181817,
                "end_time": 28.468181818181815,
                "pitch": 41,
                "velocity": 80,
                "duration": 0.09999999999999787,
                "tempo": 120.0
            },
            {
                "start_time": 28.468181818181815,
                "end_time": 28.568181818181817,
                "pitch": 41,
                "velocity": 80,
                "duration": 0.10000000000000142,
                "tempo": 120.0
            },
            {
                "start_time": 28.570454545454545,
                "end_time": 28.770454545454545,
                "pitch": 53,
                "velocity": 80,
                "duration": 0.1999999999999993,
                "tempo": 120.0
            },
            {
                "start_time": 28.770454545454545,
                "end_time": 28.986363636363635,
                "pitch": 40,
                "velocity": 80,
                "duration": 0.21590909090908994,
                "tempo": 120.0
            },
            {
                "start_time": 28.986363636363635,
                "end_time": 29.086363636363636,
                "pitch": 39,
                "velocity": 80,
                "duration": 0.10000000000000142,
                "tempo": 120.0
            },
            {
                "start_time": 29.086363636363636,
                "end_time": 29.29090909090909,
                "pitch": 40,
                "velocity": 80,
                "duration": 0.20454545454545325,
                "tempo": 120.0
            },
            {
                "start_time": 29.29090909090909,
                "end_time": 29.395454545454545,
                "pitch": 39,
                "velocity": 80,
                "duration": 0.10454545454545539,
                "tempo": 120.0
            },
            {
                "start_time": 29.39772727272727,
                "end_time": 29.60681818181818,
                "pitch": 40,
                "velocity": 80,
                "duration": 0.20909090909091077,
                "tempo": 120.0
            },
            {
                "start_time": 29.60909090909091,
                "end_time": 29.80681818181818,
                "pitch": 45,
                "velocity": 80,
                "duration": 0.19772727272727053,
                "tempo": 120.0
            },
            {
                "start_time": 29.80681818181818,
                "end_time": 29.90681818181818,
                "pitch": 57,
                "velocity": 80,
                "duration": 0.10000000000000142,
                "tempo": 120.0
            },
            {
                "start_time": 29.90681818181818,
                "end_time": 30.00681818181818,
                "pitch": 45,
                "velocity": 80,
                "duration": 0.09999999999999787,
                "tempo": 120.0
            },
            {
                "start_time": 30.00681818181818,
                "end_time": 30.10681818181818,
                "pitch": 45,
                "velocity": 80,
                "duration": 0.10000000000000142,
                "tempo": 120.0
            },
            {
                "start_time": 30.10681818181818,
                "end_time": 30.206818181818182,
                "pitch": 45,
                "velocity": 80,
                "duration": 0.10000000000000142,
                "tempo": 120.0
            },
            {
                "start_time": 30.206818181818182,
                "end_time": 30.422727272727272,
                "pitch": 57,
                "velocity": 80,
                "duration": 0.21590909090908994,
                "tempo": 120.0
            },
            {
                "start_time": 30.422727272727272,
                "end_time": 30.627272727272725,
                "pitch": 43,
                "velocity": 80,
                "duration": 0.20454545454545325,
                "tempo": 120.0
            },
            {
                "start_time": 30.629545454545454,
                "end_time": 30.729545454545452,
                "pitch": 42,
                "velocity": 80,
                "duration": 0.09999999999999787,
                "tempo": 120.0
            },
            {
                "start_time": 30.73181818181818,
                "end_time": 30.93181818181818,
                "pitch": 43,
                "velocity": 80,
                "duration": 0.1999999999999993,
                "tempo": 120.0
            },
            {
                "start_time": 30.93409090909091,
                "end_time": 31.034090909090907,
                "pitch": 42,
                "velocity": 80,
                "duration": 0.09999999999999787,
                "tempo": 120.0
            },
            {
                "start_time": 31.034090909090907,
                "end_time": 31.23409090909091,
                "pitch": 43,
                "velocity": 80,
                "duration": 0.20000000000000284,
                "tempo": 120.0
            },
            {
                "start_time": 31.236363636363635,
                "end_time": 31.43409090909091,
                "pitch": 41,
                "velocity": 80,
                "duration": 0.19772727272727408,
                "tempo": 120.0
            },
            {
                "start_time": 31.43409090909091,
                "end_time": 31.534090909090907,
                "pitch": 53,
                "velocity": 80,
                "duration": 0.09999999999999787,
                "tempo": 120.0
            },
            {
                "start_time": 31.534090909090907,
                "end_time": 31.65,
                "pitch": 41,
                "velocity": 80,
                "duration": 0.11590909090909207,
                "tempo": 120.0
            },
            {
                "start_time": 31.652272727272727,
                "end_time": 31.754545454545454,
                "pitch": 41,
                "velocity": 80,
                "duration": 0.10227272727272663,
                "tempo": 120.0
            },
            {
                "start_time": 31.75681818181818,
                "end_time": 31.861363636363635,
                "pitch": 41,
                "velocity": 80,
                "duration": 0.10454545454545539,
                "tempo": 120.0
            },
            {
                "start_time": 31.861363636363635,
                "end_time": 32.07272727272727,
                "pitch": 53,
                "velocity": 80,
                "duration": 0.21136363636363598,
                "tempo": 120.0
            },
            {
                "start_time": 32.07272727272727,
                "end_time": 32.27045454545454,
                "pitch": 40,
                "velocity": 80,
                "duration": 0.19772727272727053,
                "tempo": 120.0
            },
            {
                "start_time": 32.27272727272727,
                "end_time": 32.37045454545454,
                "pitch": 39,
                "velocity": 80,
                "duration": 0.09772727272726911,
                "tempo": 120.0
            },
            {
                "start_time": 32.37272727272727,
                "end_time": 32.570454545454545,
                "pitch": 40,
                "velocity": 80,
                "duration": 0.19772727272727764,
                "tempo": 120.0
            },
            {
                "start_time": 32.57272727272727,
                "end_time": 32.67045454545455,
                "pitch": 39,
                "velocity": 80,
                "duration": 0.09772727272727622,
                "tempo": 120.0
            },
            {
                "start_time": 32.67272727272727,
                "end_time": 32.88636363636363,
                "pitch": 40,
                "velocity": 80,
                "duration": 0.21363636363636118,
                "tempo": 120.0
            },
            {
                "start_time": 32.888636363636365,
                "end_time": 33.09318181818182,
                "pitch": 45,
                "velocity": 80,
                "duration": 0.20454545454545325,
                "tempo": 120.0
            },
            {
                "start_time": 33.09318181818182,
                "end_time": 33.195454545454545,
                "pitch": 57,
                "velocity": 80,
                "duration": 0.10227272727272663,
                "tempo": 120.0
            },
            {
                "start_time": 33.195454545454545,
                "end_time": 33.29772727272727,
                "pitch": 45,
                "velocity": 80,
                "duration": 0.10227272727272663,
                "tempo": 120.0
            },
            {
                "start_time": 33.29772727272727,
                "end_time": 33.39772727272727,
                "pitch": 45,
                "velocity": 80,
                "duration": 0.10000000000000142,
                "tempo": 120.0
            },
            {
                "start_time": 33.39772727272727,
                "end_time": 33.49545454545454,
                "pitch": 45,
                "velocity": 80,
                "duration": 0.09772727272726911,
                "tempo": 120.0
            },
            {
                "start_time": 33.49772727272727,
                "end_time": 33.69772727272727,
                "pitch": 57,
                "velocity": 80,
                "duration": 0.20000000000000284,
                "tempo": 120.0
            },
            {
                "start_time": 33.69772727272727,
                "end_time": 33.89772727272727,
                "pitch": 43,
                "velocity": 80,
                "duration": 0.20000000000000284,
                "tempo": 120.0
            },
            {
                "start_time": 33.89772727272727,
                "end_time": 33.99772727272727,
                "pitch": 42,
                "velocity": 80,
                "duration": 0.09999999999999432,
                "tempo": 120.0
            },
            {
                "start_time": 33.99772727272727,
                "end_time": 34.21818181818182,
                "pitch": 43,
                "velocity": 80,
                "duration": 0.220454545454551,
                "tempo": 120.0
            },
            {
                "start_time": 34.21818181818182,
                "end_time": 34.320454545454545,
                "pitch": 42,
                "velocity": 80,
                "duration": 0.10227272727272663,
                "tempo": 120.0
            },
            {
                "start_time": 34.320454545454545,
                "end_time": 34.525,
                "pitch": 43,
                "velocity": 80,
                "duration": 0.20454545454545325,
                "tempo": 120.0
            },
            {
                "start_time": 34.527272727272724,
                "end_time": 34.725,
                "pitch": 41,
                "velocity": 80,
                "duration": 0.19772727272727764,
                "tempo": 120.0
            },
            {
                "start_time": 34.725,
                "end_time": 34.824999999999996,
                "pitch": 53,
                "velocity": 80,
                "duration": 0.09999999999999432,
                "tempo": 120.0
            },
            {
                "start_time": 34.824999999999996,
                "end_time": 34.925,
                "pitch": 41,
                "velocity": 80,
                "duration": 0.10000000000000142,
                "tempo": 120.0
            },
            {
                "start_time": 34.925,
                "end_time": 35.025,
                "pitch": 41,
                "velocity": 80,
                "duration": 0.10000000000000142,
                "tempo": 120.0
            },
            {
                "start_time": 35.025,
                "end_time": 35.12272727272727,
                "pitch": 41,
                "velocity": 80,
                "duration": 0.09772727272726911,
                "tempo": 120.0
            },
            {
                "start_time": 35.125,
                "end_time": 35.32272727272727,
                "pitch": 53,
                "velocity": 80,
                "duration": 0.19772727272727053,
                "tempo": 120.0
            },
            {
                "start_time": 35.324999999999996,
                "end_time": 35.54090909090909,
                "pitch": 40,
                "velocity": 80,
                "duration": 0.2159090909090935,
                "tempo": 120.0
            },
            {
                "start_time": 35.543181818181814,
                "end_time": 35.64090909090909,
                "pitch": 39,
                "velocity": 80,
                "duration": 0.09772727272727622,
                "tempo": 120.0
            },
            {
                "start_time": 35.643181818181816,
                "end_time": 35.84772727272727,
                "pitch": 40,
                "velocity": 80,
                "duration": 0.20454545454545325,
                "tempo": 120.0
            },
            {
                "start_time": 35.84772727272727,
                "end_time": 35.95227272727273,
                "pitch": 39,
                "velocity": 80,
                "duration": 0.10454545454545894,
                "tempo": 120.0
            },
            {
                "start_time": 35.95454545454545,
                "end_time": 36.163636363636364,
                "pitch": 40,
                "velocity": 80,
                "duration": 0.20909090909091077,
                "tempo": 120.0
            },
            {
                "start_time": 36.16590909090909,
                "end_time": 36.36590909090909,
                "pitch": 45,
                "velocity": 80,
                "duration": 0.20000000000000284,
                "tempo": 120.0
            },
            {
                "start_time": 36.36590909090909,
                "end_time": 36.465909090909086,
                "pitch": 57,
                "velocity": 80,
                "duration": 0.09999999999999432,
                "tempo": 120.0
            },
            {
                "start_time": 36.465909090909086,
                "end_time": 36.56590909090909,
                "pitch": 45,
                "velocity": 80,
                "duration": 0.10000000000000142,
                "tempo": 120.0
            },
            {
                "start_time": 36.56818181818181,
                "end_time": 36.68181818181818,
                "pitch": 45,
                "velocity": 80,
                "duration": 0.11363636363636687,
                "tempo": 120.0
            },
            {
                "start_time": 36.684090909090905,
                "end_time": 36.78181818181818,
                "pitch": 45,
                "velocity": 80,
                "duration": 0.09772727272727622,
                "tempo": 120.0
            },
            {
                "start_time": 36.78409090909091,
                "end_time": 36.98181818181818,
                "pitch": 57,
                "velocity": 80,
                "duration": 0.19772727272727053,
                "tempo": 120.0
            },
            {
                "start_time": 36.98409090909091,
                "end_time": 37.18636363636364,
                "pitch": 41,
                "velocity": 80,
                "duration": 0.20227272727272805,
                "tempo": 120.0
            },
            {
                "start_time": 37.18863636363636,
                "end_time": 37.288636363636364,
                "pitch": 40,
                "velocity": 80,
                "duration": 0.10000000000000142,
                "tempo": 120.0
            },
            {
                "start_time": 37.29090909090909,
                "end_time": 37.49318181818182,
                "pitch": 41,
                "velocity": 80,
                "duration": 0.20227272727272805,
                "tempo": 120.0
            },
            {
                "start_time": 37.49318181818182,
                "end_time": 37.59318181818182,
                "pitch": 40,
                "velocity": 80,
                "duration": 0.10000000000000142,
                "tempo": 120.0
            },
            {
                "start_time": 37.59318181818182,
                "end_time": 37.793181818181814,
                "pitch": 41,
                "velocity": 80,
                "duration": 0.19999999999999574,
                "tempo": 120.0
            },
            {
                "start_time": 37.79545454545455,
                "end_time": 38.01136363636363,
                "pitch": 43,
                "velocity": 80,
                "duration": 0.2159090909090864,
                "tempo": 120.0
            },
            {
                "start_time": 38.01136363636363,
                "end_time": 38.10909090909091,
                "pitch": 55,
                "velocity": 80,
                "duration": 0.09772727272727622,
                "tempo": 120.0
            },
            {
                "start_time": 38.111363636363635,
                "end_time": 38.20909090909091,
                "pitch": 43,
                "velocity": 80,
                "duration": 0.09772727272727622,
                "tempo": 120.0
            },
            {
                "start_time": 38.211363636363636,
                "end_time": 38.31136363636364,
                "pitch": 43,
                "velocity": 80,
                "duration": 0.10000000000000142,
                "tempo": 120.0
            },
            {
                "start_time": 38.31363636363636,
                "end_time": 38.41590909090909,
                "pitch": 43,
                "velocity": 80,
                "duration": 0.10227272727272663,
                "tempo": 120.0
            },
            {
                "start_time": 38.41590909090909,
                "end_time": 38.62045454545454,
                "pitch": 55,
                "velocity": 80,
                "duration": 0.20454545454545325,
                "tempo": 120.0
            },
            {
                "start_time": 38.62045454545454,
                "end_time": 38.824999999999996,
                "pitch": 40,
                "velocity": 80,
                "duration": 0.20454545454545325,
                "tempo": 120.0
            },
            {
                "start_time": 38.82727272727273,
                "end_time": 38.92727272727272,
                "pitch": 39,
                "velocity": 80,
                "duration": 0.09999999999999432,
                "tempo": 120.0
            },
            {
                "start_time": 38.92727272727272,
                "end_time": 39.12954545454545,
                "pitch": 40,
                "velocity": 80,
                "duration": 0.20227272727272805,
                "tempo": 120.0
            },
            {
                "start_time": 39.12954545454545,
                "end_time": 39.24545454545454,
                "pitch": 39,
                "velocity": 80,
                "duration": 0.11590909090909207,
                "tempo": 120.0
            },
            {
                "start_time": 39.24772727272727,
                "end_time": 39.445454545454545,
                "pitch": 40,
                "velocity": 80,
                "duration": 0.19772727272727764,
                "tempo": 120.0
            },
            {
                "start_time": 39.44772727272727,
                "end_time": 39.652272727272724,
                "pitch": 45,
                "velocity": 80,
                "duration": 0.20454545454545325,
                "tempo": 120.0
            },
            {
                "start_time": 39.652272727272724,
                "end_time": 39.75454545454545,
                "pitch": 57,
                "velocity": 80,
                "duration": 0.10227272727272663,
                "tempo": 120.0
            },
            {
                "start_time": 39.75454545454545,
                "end_time": 39.85681818181818,
                "pitch": 45,
                "velocity": 80,
                "duration": 0.10227272727272663,
                "tempo": 120.0
            },
            {
                "start_time": 39.85681818181818,
                "end_time": 39.95681818181818,
                "pitch": 45,
                "velocity": 80,
                "duration": 0.10000000000000142,
                "tempo": 120.0
            },
            {
                "start_time": 39.95681818181818,
                "end_time": 40.05681818181818,
                "pitch": 45,
                "velocity": 80,
                "duration": 0.10000000000000142,
                "tempo": 120.0
            },
            {
                "start_time": 40.059090909090905,
                "end_time": 40.25909090909091,
                "pitch": 57,
                "velocity": 80,
                "duration": 0.20000000000000284,
                "tempo": 120.0
            },
            {
                "start_time": 40.25909090909091,
                "end_time": 40.475,
                "pitch": 41,
                "velocity": 80,
                "duration": 0.2159090909090935,
                "tempo": 120.0
            },
            {
                "start_time": 40.475,
                "end_time": 40.574999999999996,
                "pitch": 40,
                "velocity": 80,
                "duration": 0.09999999999999432,
                "tempo": 120.0
            },
            {
                "start_time": 40.574999999999996,
                "end_time": 40.777272727272724,
                "pitch": 41,
                "velocity": 80,
                "duration": 0.20227272727272805,
                "tempo": 120.0
            },
            {
                "start_time": 40.777272727272724,
                "end_time": 40.87954545454545,
                "pitch": 40,
                "velocity": 80,
                "duration": 0.10227272727272663,
                "tempo": 120.0
            },
            {
                "start_time": 40.87954545454545,
                "end_time": 41.084090909090904,
                "pitch": 41,
                "velocity": 80,
                "duration": 0.20454545454545325,
                "tempo": 120.0
            },
            {
                "start_time": 41.086363636363636,
                "end_time": 41.28409090909091,
                "pitch": 43,
                "velocity": 80,
                "duration": 0.19772727272727053,
                "tempo": 120.0
            },
            {
                "start_time": 41.28409090909091,
                "end_time": 41.38409090909091,
                "pitch": 55,
                "velocity": 80,
                "duration": 0.10000000000000142,
                "tempo": 120.0
            },
            {
                "start_time": 41.38409090909091,
                "end_time": 41.48409090909091,
                "pitch": 43,
                "velocity": 80,
                "duration": 0.10000000000000142,
                "tempo": 120.0
            },
            {
                "start_time": 41.48409090909091,
                "end_time": 41.584090909090904,
                "pitch": 43,
                "velocity": 80,
                "duration": 0.09999999999999432,
                "tempo": 120.0
            },
            {
                "start_time": 41.584090909090904,
                "end_time": 41.70227272727273,
                "pitch": 43,
                "velocity": 80,
                "duration": 0.11818181818182438,
                "tempo": 120.0
            },
            {
                "start_time": 41.70227272727273,
                "end_time": 41.902272727272724,
                "pitch": 55,
                "velocity": 80,
                "duration": 0.19999999999999574,
                "tempo": 120.0
            },
            {
                "start_time": 41.902272727272724,
                "end_time": 42.11363636363636,
                "pitch": 40,
                "velocity": 80,
                "duration": 0.21136363636363598,
                "tempo": 120.0
            },
            {
                "start_time": 42.11363636363636,
                "end_time": 42.21818181818182,
                "pitch": 39,
                "velocity": 80,
                "duration": 0.10454545454545894,
                "tempo": 120.0
            },
            {
                "start_time": 42.21818181818182,
                "end_time": 42.425,
                "pitch": 40,
                "velocity": 80,
                "duration": 0.20681818181817846,
                "tempo": 120.0
            },
            {
                "start_time": 42.425,
                "end_time": 42.525,
                "pitch": 39,
                "velocity": 80,
                "duration": 0.10000000000000142,
                "tempo": 120.0
            },
            {
                "start_time": 42.525,
                "end_time": 42.725,
                "pitch": 40,
                "velocity": 80,
                "duration": 0.20000000000000284,
                "tempo": 120.0
            },
            {
                "start_time": 42.72727272727273,
                "end_time": 42.925,
                "pitch": 41,
                "velocity": 80,
                "duration": 0.19772727272727053,
                "tempo": 120.0
            },
            {
                "start_time": 42.925,
                "end_time": 43.04090909090909,
                "pitch": 53,
                "velocity": 80,
                "duration": 0.11590909090909207,
                "tempo": 120.0
            },
            {
                "start_time": 43.043181818181814,
                "end_time": 43.14090909090909,
                "pitch": 41,
                "velocity": 80,
                "duration": 0.09772727272727622,
                "tempo": 120.0
            },
            {
                "start_time": 43.143181818181816,
                "end_time": 43.24318181818182,
                "pitch": 41,
                "velocity": 80,
                "duration": 0.10000000000000142,
                "tempo": 120.0
            },
            {
                "start_time": 43.24545454545454,
                "end_time": 43.345454545454544,
                "pitch": 41,
                "velocity": 80,
                "duration": 0.10000000000000142,
                "tempo": 120.0
            },
            {
                "start_time": 43.34772727272727,
                "end_time": 43.55227272727272,
                "pitch": 53,
                "velocity": 80,
                "duration": 0.20454545454545325,
                "tempo": 120.0
            },
            {
                "start_time": 43.55227272727272,
                "end_time": 43.949999999999996,
                "pitch": 41,
                "velocity": 80,
                "duration": 0.3977272727272734,
                "tempo": 120.0
            },
            {
                "start_time": 43.95227272727273,
                "end_time": 44.37045454545454,
                "pitch": 43,
                "velocity": 80,
                "duration": 0.41818181818181444,
                "tempo": 120.0
            },
            {
                "start_time": 44.37045454545454,
                "end_time": 44.57954545454545,
                "pitch": 45,
                "velocity": 80,
                "duration": 0.20909090909091077,
                "tempo": 120.0
            },
            {
                "start_time": 44.58181818181818,
                "end_time": 44.684090909090905,
                "pitch": 57,
                "velocity": 80,
                "duration": 0.10227272727272663,
                "tempo": 120.0
            },
            {
                "start_time": 44.68636363636364,
                "end_time": 44.79090909090909,
                "pitch": 45,
                "velocity": 80,
                "duration": 0.10454545454545183,
                "tempo": 120.0
            },
            {
                "start_time": 44.79090909090909,
                "end_time": 44.89090909090909,
                "pitch": 45,
                "velocity": 80,
                "duration": 0.10000000000000142,
                "tempo": 120.0
            },
            {
                "start_time": 44.893181818181816,
                "end_time": 44.99090909090909,
                "pitch": 45,
                "velocity": 80,
                "duration": 0.09772727272727622,
                "tempo": 120.0
            },
            {
                "start_time": 44.99318181818182,
                "end_time": 45.19318181818181,
                "pitch": 57,
                "velocity": 80,
                "duration": 0.19999999999999574,
                "tempo": 120.0
            },
            {
                "start_time": 45.19318181818181,
                "end_time": 45.38863636363636,
                "pitch": 47,
                "velocity": 80,
                "duration": 0.19545454545454533,
                "tempo": 120.0
            },
            {
                "start_time": 45.38863636363636,
                "end_time": 45.599999999999994,
                "pitch": 48,
                "velocity": 80,
                "duration": 0.21136363636363598,
                "tempo": 120.0
            },
            {
                "start_time": 45.60227272727273,
                "end_time": 46.02272727272727,
                "pitch": 47,
                "velocity": 80,
                "duration": 0.42045454545454675,
                "tempo": 120.0
            },
            {
                "start_time": 46.02272727272727,
                "end_time": 46.22272727272727,
                "pitch": 41,
                "velocity": 80,
                "duration": 0.19999999999999574,
                "tempo": 120.0
            },
            {
                "start_time": 46.224999999999994,
                "end_time": 46.32272727272727,
                "pitch": 53,
                "velocity": 80,
                "duration": 0.09772727272727622,
                "tempo": 120.0
            },
            {
                "start_time": 46.324999999999996,
                "end_time": 46.425,
                "pitch": 41,
                "velocity": 80,
                "duration": 0.10000000000000142,
                "tempo": 120.0
            },
            {
                "start_time": 46.425,
                "end_time": 46.52272727272727,
                "pitch": 41,
                "velocity": 80,
                "duration": 0.09772727272727622,
                "tempo": 120.0
            },
            {
                "start_time": 46.525,
                "end_time": 46.62272727272727,
                "pitch": 41,
                "velocity": 80,
                "duration": 0.09772727272726911,
                "tempo": 120.0
            },
            {
                "start_time": 46.625,
                "end_time": 46.840909090909086,
                "pitch": 53,
                "velocity": 80,
                "duration": 0.2159090909090864,
                "tempo": 120.0
            },
            {
                "start_time": 46.840909090909086,
                "end_time": 47.25,
                "pitch": 41,
                "velocity": 80,
                "duration": 0.4090909090909136,
                "tempo": 120.0
            },
            {
                "start_time": 47.252272727272725,
                "end_time": 47.66136363636363,
                "pitch": 43,
                "velocity": 80,
                "duration": 0.4090909090909065,
                "tempo": 120.0
            },
            {
                "start_time": 47.66136363636363,
                "end_time": 47.85909090909091,
                "pitch": 45,
                "velocity": 80,
                "duration": 0.19772727272727764,
                "tempo": 120.0
            },
            {
                "start_time": 47.861363636363635,
                "end_time": 47.959090909090904,
                "pitch": 57,
                "velocity": 80,
                "duration": 0.09772727272726911,
                "tempo": 120.0
            },
            {
                "start_time": 47.961363636363636,
                "end_time": 48.07727272727273,
                "pitch": 45,
                "velocity": 80,
                "duration": 0.11590909090909207,
                "tempo": 120.0
            },
            {
                "start_time": 48.07727272727273,
                "end_time": 48.179545454545455,
                "pitch": 45,
                "velocity": 80,
                "duration": 0.10227272727272663,
                "tempo": 120.0
            },
            {
                "start_time": 48.179545454545455,
                "end_time": 48.28181818181818,
                "pitch": 45,
                "velocity": 80,
                "duration": 0.10227272727272663,
                "tempo": 120.0
            },
            {
                "start_time": 48.28181818181818,
                "end_time": 48.486363636363635,
                "pitch": 57,
                "velocity": 80,
                "duration": 0.20454545454545325,
                "tempo": 120.0
            },
            {
                "start_time": 48.48863636363636,
                "end_time": 48.68863636363636,
                "pitch": 47,
                "velocity": 80,
                "duration": 0.20000000000000284,
                "tempo": 120.0
            },
            {
                "start_time": 48.68863636363636,
                "end_time": 48.88863636363636,
                "pitch": 48,
                "velocity": 80,
                "duration": 0.19999999999999574,
                "tempo": 120.0
            },
            {
                "start_time": 48.88863636363636,
                "end_time": 49.304545454545455,
                "pitch": 47,
                "velocity": 80,
                "duration": 0.41590909090909634,
                "tempo": 120.0
            },
            {
                "start_time": 49.30681818181818,
                "end_time": 49.50909090909091,
                "pitch": 41,
                "velocity": 80,
                "duration": 0.20227272727272805,
                "tempo": 120.0
            },
            {
                "start_time": 49.51136363636363,
                "end_time": 49.62954545454545,
                "pitch": 53,
                "velocity": 80,
                "duration": 0.11818181818181728,
                "tempo": 120.0
            },
            {
                "start_time": 49.62954545454545,
                "end_time": 49.73181818181818,
                "pitch": 41,
                "velocity": 80,
                "duration": 0.10227272727272663,
                "tempo": 120.0
            },
            {
                "start_time": 49.73181818181818,
                "end_time": 49.836363636363636,
                "pitch": 41,
                "velocity": 80,
                "duration": 0.10454545454545894,
                "tempo": 120.0
            },
            {
                "start_time": 49.83863636363636,
                "end_time": 49.94318181818181,
                "pitch": 41,
                "velocity": 80,
                "duration": 0.10454545454545183,
                "tempo": 120.0
            },
            {
                "start_time": 49.94318181818181,
                "end_time": 50.15454545454545,
                "pitch": 53,
                "velocity": 80,
                "duration": 0.21136363636363598,
                "tempo": 120.0
            },
            {
                "start_time": 50.15454545454545,
                "end_time": 50.55227272727272,
                "pitch": 41,
                "velocity": 80,
                "duration": 0.3977272727272734,
                "tempo": 120.0
            },
            {
                "start_time": 50.554545454545455,
                "end_time": 50.96818181818182,
                "pitch": 43,
                "velocity": 80,
                "duration": 0.413636363636364,
                "tempo": 120.0
            },
            {
                "start_time": 50.970454545454544,
                "end_time": 51.179545454545455,
                "pitch": 45,
                "velocity": 80,
                "duration": 0.20909090909091077,
                "tempo": 120.0
            },
            {
                "start_time": 51.179545454545455,
                "end_time": 51.28409090909091,
                "pitch": 57,
                "velocity": 80,
                "duration": 0.10454545454545183,
                "tempo": 120.0
            },
            {
                "start_time": 51.28409090909091,
                "end_time": 51.38863636363636,
                "pitch": 45,
                "velocity": 80,
                "duration": 0.10454545454545183,
                "tempo": 120.0
            },
            {
                "start_time": 51.39090909090909,
                "end_time": 51.486363636363635,
                "pitch": 45,
                "velocity": 80,
                "duration": 0.0954545454545439,
                "tempo": 120.0
            },
            {
                "start_time": 51.48863636363636,
                "end_time": 51.584090909090904,
                "pitch": 45,
                "velocity": 80,
                "duration": 0.0954545454545439,
                "tempo": 120.0
            },
            {
                "start_time": 51.586363636363636,
                "end_time": 51.78181818181818,
                "pitch": 57,
                "velocity": 80,
                "duration": 0.19545454545454533,
                "tempo": 120.0
            },
            {
                "start_time": 51.78181818181818,
                "end_time": 51.98181818181818,
                "pitch": 47,
                "velocity": 80,
                "duration": 0.19999999999999574,
                "tempo": 120.0
            },
            {
                "start_time": 51.98181818181818,
                "end_time": 52.19772727272727,
                "pitch": 48,
                "velocity": 80,
                "duration": 0.2159090909090935,
                "tempo": 120.0
            },
            {
                "start_time": 52.19772727272727,
                "end_time": 52.61818181818182,
                "pitch": 47,
                "velocity": 80,
                "duration": 0.42045454545454675,
                "tempo": 120.0
            },
            {
                "start_time": 52.62045454545454,
                "end_time": 52.81818181818181,
                "pitch": 41,
                "velocity": 80,
                "duration": 0.19772727272727053,
                "tempo": 120.0
            },
            {
                "start_time": 52.81818181818181,
                "end_time": 52.918181818181814,
                "pitch": 53,
                "velocity": 80,
                "duration": 0.10000000000000142,
                "tempo": 120.0
            },
            {
                "start_time": 52.918181818181814,
                "end_time": 53.018181818181816,
                "pitch": 41,
                "velocity": 80,
                "duration": 0.10000000000000142,
                "tempo": 120.0
            },
            {
                "start_time": 53.018181818181816,
                "end_time": 53.11818181818182,
                "pitch": 41,
                "velocity": 80,
                "duration": 0.10000000000000142,
                "tempo": 120.0
            },
            {
                "start_time": 53.11818181818182,
                "end_time": 53.215909090909086,
                "pitch": 41,
                "velocity": 80,
                "duration": 0.09772727272726911,
                "tempo": 120.0
            },
            {
                "start_time": 53.21818181818182,
                "end_time": 53.434090909090905,
                "pitch": 53,
                "velocity": 80,
                "duration": 0.2159090909090864,
                "tempo": 120.0
            },
            {
                "start_time": 53.434090909090905,
                "end_time": 53.84318181818182,
                "pitch": 41,
                "velocity": 80,
                "duration": 0.4090909090909136,
                "tempo": 120.0
            },
            {
                "start_time": 53.845454545454544,
                "end_time": 54.24318181818182,
                "pitch": 43,
                "velocity": 80,
                "duration": 0.3977272727272734,
                "tempo": 120.0
            },
            {
                "start_time": 54.24318181818182,
                "end_time": 54.44318181818181,
                "pitch": 45,
                "velocity": 80,
                "duration": 0.19999999999999574,
                "tempo": 120.0
            },
            {
                "start_time": 54.44318181818181,
                "end_time": 54.543181818181814,
                "pitch": 57,
                "velocity": 80,
                "duration": 0.10000000000000142,
                "tempo": 120.0
            },
            {
                "start_time": 54.543181818181814,
                "end_time": 54.65909090909091,
                "pitch": 45,
                "velocity": 80,
                "duration": 0.11590909090909207,
                "tempo": 120.0
            },
            {
                "start_time": 54.65909090909091,
                "end_time": 54.76363636363636,
                "pitch": 45,
                "velocity": 80,
                "duration": 0.10454545454545183,
                "tempo": 120.0
            },
            {
                "start_time": 54.76363636363636,
                "end_time": 54.86818181818182,
                "pitch": 45,
                "velocity": 80,
                "duration": 0.10454545454545894,
                "tempo": 120.0
            },
            {
                "start_time": 54.87045454545454,
                "end_time": 55.07954545454545,
                "pitch": 57,
                "velocity": 80,
                "duration": 0.20909090909091077,
                "tempo": 120.0
            },
            {
                "start_time": 55.08181818181818,
                "end_time": 55.275,
                "pitch": 47,
                "velocity": 80,
                "duration": 0.19318181818182012,
                "tempo": 120.0
            },
            {
                "start_time": 55.277272727272724,
                "end_time": 55.470454545454544,
                "pitch": 48,
                "velocity": 80,
                "duration": 0.19318181818182012,
                "tempo": 120.0
            },
            {
                "start_time": 55.47272727272727,
                "end_time": 55.89772727272727,
                "pitch": 47,
                "velocity": 80,
                "duration": 0.42500000000000426,
                "tempo": 120.0
            }
        ]
    }
}