{
    "track_id": "02 Mode Select",
    "mood": "angry",
    "instruments": {
        "Acoustic Grand Piano": [
            {
                "start_time": 0.015909090909090907,
                "end_time": 1.609090909090909,
                "pitch": 64,
                "velocity": 64,
                "duration": 1.593181818181818,
                "tempo": 120.0
            },
            {
                "start_time": 1.6113636363636363,
                "end_time": 3.218181818181818,
                "pitch": 65,
                "velocity": 64,
                "duration": 1.6068181818181815,
                "tempo": 120.0
            },
            {
                "start_time": 3.218181818181818,
                "end_time": 4.834090909090909,
                "pitch": 62,
                "velocity": 64,
                "duration": 1.6159090909090912,
                "tempo": 120.0
            },
            {
                "start_time": 4.834090909090909,
                "end_time": 5.636363636363636,
                "pitch": 60,
                "velocity": 64,
                "duration": 0.8022727272727268,
                "tempo": 120.0
            },
            {
                "start_time": 5.638636363636364,
                "end_time": 6.4409090909090905,
                "pitch": 62,
                "velocity": 64,
                "duration": 0.8022727272727268,
                "tempo": 120.0
            },
            {
                "start_time": 6.4431818181818175,
                "end_time": 8.049999999999999,
                "pitch": 64,
                "velocity": 64,
                "duration": 1.6068181818181815,
                "tempo": 120.0
            },
            {
                "start_time": 8.052272727272728,
                "end_time": 9.661363636363635,
                "pitch": 65,
                "velocity": 64,
                "duration": 1.6090909090909076,
                "tempo": 120.0
            },
            {
                "start_time": 9.661363636363635,
                "end_time": 11.270454545454545,
                "pitch": 62,
                "velocity": 64,
                "duration": 1.6090909090909093,
                "tempo": 120.0
            },
            {
                "start_time": 11.272727272727272,
                "end_time": 12.086363636363636,
                "pitch": 64,
                "velocity": 64,
                "duration": 0.8136363636363644,
                "tempo": 120.0
            },
            {
                "start_time": 12.086363636363636,
                "end_time": 12.881818181818181,
                "pitch": 62,
                "velocity": 64,
                "duration": 0.795454545454545,
                "tempo": 120.0
            },
            {
                "start_time": 12.884090909090908,
                "end_time": 14.5,
                "pitch": 64,
                "velocity": 64,
                "duration": 1.615909090909092,
                "tempo": 120.0
            },
            {
                "start_time": 14.502272727272727,
                "end_time": 16.113636363636363,
                "pitch": 65,
                "velocity": 64,
                "duration": 1.6113636363636363,
                "tempo": 120.0
            },
            {
                "start_time": 16.113636363636363,
                "end_time": 17.720454545454544,
                "pitch": 62,
                "velocity": 64,
                "duration": 1.6068181818181806,
                "tempo": 120.0
            },
            {
                "start_time": 17.720454545454544,
                "end_time": 18.53181818181818,
                "pitch": 60,
                "velocity": 64,
                "duration": 0.8113636363636374,
                "tempo": 120.0
            },
            {
                "start_time": 18.534090909090907,
                "end_time": 19.325,
                "pitch": 62,
                "velocity": 64,
                "duration": 0.7909090909090928,
                "tempo": 120.0
            },
            {
                "start_time": 19.327272727272728,
                "end_time": 20.943181818181817,
                "pitch": 64,
                "velocity": 64,
                "duration": 1.6159090909090885,
                "tempo": 120.0
            },
            {
                "start_time": 20.945454545454545,
                "end_time": 22.547727272727272,
                "pitch": 65,
                "velocity": 64,
                "duration": 1.6022727272727266,
                "tempo": 120.0
            },
            {
                "start_time": 22.549999999999997,
                "end_time": 24.15681818181818,
                "pitch": 62,
                "velocity": 64,
                "duration": 1.6068181818181841,
                "tempo": 120.0
            },
            {
                "start_time": 24.15681818181818,
                "end_time": 24.959090909090907,
                "pitch": 64,
                "velocity": 64,
                "duration": 0.8022727272727259,
                "tempo": 120.0
            },
            {
                "start_time": 24.961363636363636,
                "end_time": 25.761363636363637,
                "pitch": 62,
                "velocity": 64,
                "duration": 0.8000000000000007,
                "tempo": 120.0
            },
            {
                "start_time": 25.763636363636362,
                "end_time": 27.370454545454542,
                "pitch": 64,
                "velocity": 51,
                "duration": 1.6068181818181806,
                "tempo": 120.0
            },
            {
                "start_time": 27.37272727272727,
                "end_time": 28.986363636363635,
                "pitch": 65,
                "velocity": 51,
                "duration": 1.6136363636363633,
                "tempo": 120.0
            },
            {
                "start_time": 28.986363636363635,
                "end_time": 30.593181818181815,
                "pitch": 62,
                "velocity": 51,
                "duration": 1.6068181818181806,
                "tempo": 120.0
            },
            {
                "start_time": 30.595454545454544,
                "end_time": 31.395454545454545,
                "pitch": 60,
                "velocity": 51,
                "duration": 0.8000000000000007,
                "tempo": 120.0
            },
            {
                "start_time": 31.39772727272727,
                "end_time": 32.199999999999996,
                "pitch": 62,
                "velocity": 51,
                "duration": 0.8022727272727259,
                "tempo": 120.0
            },
            {
                "start_time": 32.199999999999996,
                "end_time": 33.80681818181818,
                "pitch": 64,
                "velocity": 51,
                "duration": 1.6068181818181841,
                "tempo": 120.0
            },
            {
                "start_time": 33.80681818181818,
                "end_time": 35.413636363636364,
                "pitch": 65,
                "velocity": 51,
                "duration": 1.6068181818181841,
                "tempo": 120.0
            },
            {
                "start_time": 35.413636363636364,
                "end_time": 37.029545454545456,
                "pitch": 62,
                "velocity": 51,
                "duration": 1.615909090909092,
                "tempo": 120.0
            },
            {
                "start_time": 37.03181818181818,
                "end_time": 37.82954545454545,
                "pitch": 64,
                "velocity": 51,
                "duration": 0.797727272727272,
                "tempo": 120.0
            },
            {
                "start_time": 37.82954545454545,
                "end_time": 38.63181818181818,
                "pitch": 62,
                "velocity": 51,
                "duration": 0.8022727272727295,
                "tempo": 120.0
            },
            {
                "start_time": 38.63409090909091,
                "end_time": 40.23409090909091,
                "pitch": 64,
                "velocity": 51,
                "duration": 1.6000000000000014,
                "tempo": 120.0
            },
            {
                "start_time": 40.23409090909091,
                "end_time": 41.83863636363636,
                "pitch": 65,
                "velocity": 51,
                "duration": 1.6045454545454518,
                "tempo": 120.0
            },
            {
                "start_time": 41.840909090909086,
                "end_time": 43.45454545454545,
                "pitch": 62,
                "velocity": 51,
                "duration": 1.6136363636363669,
                "tempo": 120.0
            },
            {
                "start_time": 43.45681818181818,
                "end_time": 44.25681818181818,
                "pitch": 60,
                "velocity": 51,
                "duration": 0.8000000000000043,
                "tempo": 120.0
            },
            {
                "start_time": 44.25909090909091,
                "end_time": 45.05227272727272,
                "pitch": 62,
                "velocity": 51,
                "duration": 0.7931818181818144,
                "tempo": 120.0
            },
            {
                "start_time": 45.05227272727272,
                "end_time": 46.67045454545454,
                "pitch": 64,
                "velocity": 51,
                "duration": 1.6181818181818173,
                "tempo": 120.0
            },
            {
                "start_time": 46.67045454545454,
                "end_time": 48.275,
                "pitch": 65,
                "velocity": 51,
                "duration": 1.604545454545459,
                "tempo": 120.0
            },
            {
                "start_time": 48.275,
                "end_time": 49.88863636363636,
                "pitch": 62,
                "velocity": 51,
                "duration": 1.6136363636363598,
                "tempo": 120.0
            },
            {
                "start_time": 51.49318181818182,
                "end_time": 51.49545454545454,
                "pitch": 64,
                "velocity": 64,
                "duration": 0.0022727272727252057,
                "tempo": 120.0
            }
        ],
        "Synth Bass 1": [
            {
                "start_time": 0.013636363636363636,
                "end_time": 0.10909090909090909,
                "pitch": 45,
                "velocity": 80,
                "duration": 0.09545454545454544,
                "tempo": 120.0
            },
            {
                "start_time": 0.11136363636363636,
                "end_time": 0.31136363636363634,
                "pitch": 45,
                "velocity": 80,
                "duration": 0.19999999999999998,
                "tempo": 120.0
            },
            {
                "start_time": 0.3136363636363636,
                "end_time": 0.41363636363636364,
                "pitch": 45,
                "velocity": 80,
                "duration": 0.10000000000000003,
                "tempo": 120.0
            },
            {
                "start_time": 0.41363636363636364,
                "end_time": 0.509090909090909,
                "pitch": 55,
                "velocity": 80,
                "duration": 0.0954545454545454,
                "tempo": 120.0
            },
            {
                "start_time": 0.5113636363636364,
                "end_time": 0.609090909090909,
                "pitch": 57,
                "velocity": 80,
                "duration": 0.09772727272727266,
                "tempo": 120.0
            },
            {
                "start_time": 0.609090909090909,
                "end_time": 0.7068181818181818,
                "pitch": 45,
                "velocity": 80,
                "duration": 0.09772727272727277,
                "tempo": 120.0
            },
            {
                "start_time": 0.7068181818181818,
                "end_time": 0.8045454545454545,
                "pitch": 45,
                "velocity": 80,
                "duration": 0.09772727272727266,
                "tempo": 120.0
            },
            {
                "start_time": 0.8068181818181818,
                "end_time": 1.0068181818181818,
                "pitch": 57,
                "velocity": 80,
                "duration": 0.20000000000000007,
                "tempo": 120.0
            },
            {
                "start_time": 1.009090909090909,
                "end_time": 1.1068181818181817,
                "pitch": 45,
                "velocity": 80,
                "duration": 0.09772727272727266,
                "tempo": 120.0
            },
            {
                "start_time": 1.1068181818181817,
                "end_time": 1.209090909090909,
                "pitch": 45,
                "velocity": 80,
                "duration": 0.10227272727272729,
                "tempo": 120.0
            },
            {
                "start_time": 1.209090909090909,
                "end_time": 1.409090909090909,
                "pitch": 55,
                "velocity": 80,
                "duration": 0.19999999999999996,
                "tempo": 120.0
            },
            {
                "start_time": 1.409090909090909,
                "end_time": 1.5068181818181818,
                "pitch": 52,
                "velocity": 80,
                "duration": 0.09772727272727288,
                "tempo": 120.0
            },
            {
                "start_time": 1.509090909090909,
                "end_time": 1.609090909090909,
                "pitch": 45,
                "velocity": 80,
                "duration": 0.09999999999999987,
                "tempo": 120.0
            },
            {
                "start_time": 1.609090909090909,
                "end_time": 1.8113636363636363,
                "pitch": 45,
                "velocity": 80,
                "duration": 0.20227272727272738,
                "tempo": 120.0
            },
            {
                "start_time": 1.8136363636363635,
                "end_time": 1.9113636363636364,
                "pitch": 57,
                "velocity": 80,
                "duration": 0.09772727272727288,
                "tempo": 120.0
            },
            {
                "start_time": 1.9136363636363636,
                "end_time": 2.0113636363636362,
                "pitch": 45,
                "velocity": 80,
                "duration": 0.09772727272727266,
                "tempo": 120.0
            },
            {
                "start_time": 2.0136363636363637,
                "end_time": 2.1113636363636363,
                "pitch": 45,
                "velocity": 80,
                "duration": 0.09772727272727266,
                "tempo": 120.0
            },
            {
                "start_time": 2.1136363636363633,
                "end_time": 2.311363636363636,
                "pitch": 55,
                "velocity": 80,
                "duration": 0.19772727272727275,
                "tempo": 120.0
            },
            {
                "start_time": 2.3136363636363635,
                "end_time": 2.4136363636363636,
                "pitch": 45,
                "velocity": 80,
                "duration": 0.10000000000000009,
                "tempo": 120.0
            },
            {
                "start_time": 2.4136363636363636,
                "end_time": 2.5136363636363637,
                "pitch": 41,
                "velocity": 80,
                "duration": 0.10000000000000009,
                "tempo": 120.0
            },
            {
                "start_time": 2.5136363636363637,
                "end_time": 2.6136363636363633,
                "pitch": 53,
                "velocity": 80,
                "duration": 0.09999999999999964,
                "tempo": 120.0
            },
            {
                "start_time": 2.6136363636363633,
                "end_time": 2.7136363636363634,
                "pitch": 42,
                "velocity": 80,
                "duration": 0.10000000000000009,
                "tempo": 120.0
            },
            {
                "start_time": 2.715909090909091,
                "end_time": 2.815909090909091,
                "pitch": 54,
                "velocity": 80,
                "duration": 0.10000000000000009,
                "tempo": 120.0
            },
            {
                "start_time": 2.818181818181818,
                "end_time": 2.9136363636363636,
                "pitch": 43,
                "velocity": 80,
                "duration": 0.09545454545454568,
                "tempo": 120.0
            },
            {
                "start_time": 2.9159090909090906,
                "end_time": 3.0159090909090907,
                "pitch": 55,
                "velocity": 80,
                "duration": 0.10000000000000009,
                "tempo": 120.0
            },
            {
                "start_time": 3.018181818181818,
                "end_time": 3.1159090909090907,
                "pitch": 44,
                "velocity": 80,
                "duration": 0.09772727272727266,
                "tempo": 120.0
            },
            {
                "start_time": 3.1159090909090907,
                "end_time": 3.215909090909091,
                "pitch": 56,
                "velocity": 80,
                "duration": 0.10000000000000009,
                "tempo": 120.0
            },
            {
                "start_time": 3.218181818181818,
                "end_time": 3.418181818181818,
                "pitch": 57,
                "velocity": 80,
                "duration": 0.20000000000000018,
                "tempo": 120.0
            },
            {
                "start_time": 3.4204545454545454,
                "end_time": 3.5159090909090907,
                "pitch": 45,
                "velocity": 80,
                "duration": 0.09545454545454524,
                "tempo": 120.0
            },
            {
                "start_time": 3.518181818181818,
                "end_time": 3.618181818181818,
                "pitch": 45,
                "velocity": 80,
                "duration": 0.10000000000000009,
                "tempo": 120.0
            },
            {
                "start_time": 3.620454545454545,
                "end_time": 3.8249999999999997,
                "pitch": 55,
                "velocity": 80,
                "duration": 0.20454545454545459,
                "tempo": 120.0
            },
            {
                "start_time": 3.8249999999999997,
                "end_time": 3.9272727272727272,
                "pitch": 45,
                "velocity": 80,
                "duration": 0.10227272727272751,
                "tempo": 120.0
            },
            {
                "start_time": 3.9272727272727272,
                "end_time": 4.029545454545454,
                "pitch": 45,
                "velocity": 80,
                "duration": 0.10227272727272707,
                "tempo": 120.0
            },
            {
                "start_time": 4.031818181818181,
                "end_time": 4.127272727272727,
                "pitch": 45,
                "velocity": 80,
                "duration": 0.09545454545454568,
                "tempo": 120.0
            },
            {
                "start_time": 4.127272727272727,
                "end_time": 4.225,
                "pitch": 57,
                "velocity": 80,
                "duration": 0.09772727272727266,
                "tempo": 120.0
            },
            {
                "start_time": 4.227272727272727,
                "end_time": 4.322727272727272,
                "pitch": 55,
                "velocity": 80,
                "duration": 0.09545454545454568,
                "tempo": 120.0
            },
            {
                "start_time": 4.322727272727272,
                "end_time": 4.420454545454545,
                "pitch": 52,
                "velocity": 80,
                "duration": 0.09772727272727266,
                "tempo": 120.0
            },
            {
                "start_time": 4.422727272727273,
                "end_time": 4.5227272727272725,
                "pitch": 50,
                "velocity": 80,
                "duration": 0.09999999999999964,
                "tempo": 120.0
            },
            {
                "start_time": 4.5227272727272725,
                "end_time": 4.627272727272727,
                "pitch": 47,
                "velocity": 80,
                "duration": 0.1045454545454545,
                "tempo": 120.0
            },
            {
                "start_time": 4.627272727272727,
                "end_time": 4.727272727272727,
                "pitch": 50,
                "velocity": 80,
                "duration": 0.09999999999999964,
                "tempo": 120.0
            },
            {
                "start_time": 4.7295454545454545,
                "end_time": 4.831818181818182,
                "pitch": 52,
                "velocity": 80,
                "duration": 0.10227272727272751,
                "tempo": 120.0
            },
            {
                "start_time": 4.834090909090909,
                "end_time": 5.034090909090909,
                "pitch": 45,
                "velocity": 80,
                "duration": 0.20000000000000018,
                "tempo": 120.0
            },
            {
                "start_time": 5.036363636363636,
                "end_time": 5.236363636363636,
                "pitch": 57,
                "velocity": 80,
                "duration": 0.20000000000000018,
                "tempo": 120.0
            },
            {
                "start_time": 5.236363636363636,
                "end_time": 5.334090909090909,
                "pitch": 45,
                "velocity": 80,
                "duration": 0.09772727272727266,
                "tempo": 120.0
            },
            {
                "start_time": 5.336363636363636,
                "end_time": 5.534090909090909,
                "pitch": 55,
                "velocity": 80,
                "duration": 0.1977272727272732,
                "tempo": 120.0
            },
            {
                "start_time": 5.536363636363636,
                "end_time": 5.636363636363636,
                "pitch": 45,
                "velocity": 80,
                "duration": 0.09999999999999964,
                "tempo": 120.0
            },
            {
                "start_time": 5.636363636363636,
                "end_time": 5.736363636363636,
                "pitch": 47,
                "velocity": 80,
                "duration": 0.10000000000000053,
                "tempo": 120.0
            },
            {
                "start_time": 5.736363636363636,
                "end_time": 5.836363636363636,
                "pitch": 57,
                "velocity": 80,
                "duration": 0.09999999999999964,
                "tempo": 120.0
            },
            {
                "start_time": 5.838636363636363,
                "end_time": 5.9363636363636365,
                "pitch": 52,
                "velocity": 80,
                "duration": 0.09772727272727355,
                "tempo": 120.0
            },
            {
                "start_time": 5.9386363636363635,
                "end_time": 6.038636363636363,
                "pitch": 50,
                "velocity": 80,
                "duration": 0.09999999999999964,
                "tempo": 120.0
            },
            {
                "start_time": 6.040909090909091,
                "end_time": 6.138636363636364,
                "pitch": 55,
                "velocity": 80,
                "duration": 0.09772727272727266,
                "tempo": 120.0
            },
            {
                "start_time": 6.138636363636364,
                "end_time": 6.238636363636363,
                "pitch": 50,
                "velocity": 80,
                "duration": 0.09999999999999964,
                "tempo": 120.0
            },
            {
                "start_time": 6.24090909090909,
                "end_time": 6.338636363636363,
                "pitch": 55,
                "velocity": 80,
                "duration": 0.09772727272727266,
                "tempo": 120.0
            },
            {
                "start_time": 6.338636363636363,
                "end_time": 6.4386363636363635,
                "pitch": 57,
                "velocity": 80,
                "duration": 0.10000000000000053,
                "tempo": 120.0
            },
            {
                "start_time": 6.4409090909090905,
                "end_time": 6.538636363636363,
                "pitch": 45,
                "velocity": 80,
                "duration": 0.09772727272727266,
                "tempo": 120.0
            },
            {
                "start_time": 6.540909090909091,
                "end_time": 6.743181818181818,
                "pitch": 45,
                "velocity": 80,
                "duration": 0.20227272727272716,
                "tempo": 120.0
            },
            {
                "start_time": 6.743181818181818,
                "end_time": 6.845454545454545,
                "pitch": 45,
                "velocity": 80,
                "duration": 0.10227272727272663,
                "tempo": 120.0
            },
            {
                "start_time": 6.845454545454545,
                "end_time": 6.9431818181818175,
                "pitch": 55,
                "velocity": 80,
                "duration": 0.09772727272727266,
                "tempo": 120.0
            },
            {
                "start_time": 6.945454545454545,
                "end_time": 7.045454545454545,
                "pitch": 57,
                "velocity": 80,
                "duration": 0.09999999999999964,
                "tempo": 120.0
            },
            {
                "start_time": 7.047727272727272,
                "end_time": 7.1454545454545455,
                "pitch": 45,
                "velocity": 80,
                "duration": 0.09772727272727355,
                "tempo": 120.0
            },
            {
                "start_time": 7.1477272727272725,
                "end_time": 7.247727272727272,
                "pitch": 45,
                "velocity": 80,
                "duration": 0.09999999999999964,
                "tempo": 120.0
            },
            {
                "start_time": 7.247727272727272,
                "end_time": 7.447727272727272,
                "pitch": 57,
                "velocity": 80,
                "duration": 0.20000000000000018,
                "tempo": 120.0
            },
            {
                "start_time": 7.447727272727272,
                "end_time": 7.545454545454545,
                "pitch": 45,
                "velocity": 80,
                "duration": 0.09772727272727266,
                "tempo": 120.0
            },
            {
                "start_time": 7.547727272727272,
                "end_time": 7.6477272727272725,
                "pitch": 45,
                "velocity": 80,
                "duration": 0.10000000000000053,
                "tempo": 120.0
            },
            {
                "start_time": 7.6477272727272725,
                "end_time": 7.847727272727273,
                "pitch": 55,
                "velocity": 80,
                "duration": 0.20000000000000018,
                "tempo": 120.0
            },
            {
                "start_time": 7.85,
                "end_time": 7.947727272727272,
                "pitch": 52,
                "velocity": 80,
                "duration": 0.09772727272727266,
                "tempo": 120.0
            },
            {
                "start_time": 7.949999999999999,
                "end_time": 8.049999999999999,
                "pitch": 45,
                "velocity": 80,
                "duration": 0.09999999999999964,
                "tempo": 120.0
            },
            {
                "start_time": 8.049999999999999,
                "end_time": 8.252272727272727,
                "pitch": 45,
                "velocity": 80,
                "duration": 0.20227272727272805,
                "tempo": 120.0
            },
            {
                "start_time": 8.252272727272727,
                "end_time": 8.35,
                "pitch": 57,
                "velocity": 80,
                "duration": 0.09772727272727266,
                "tempo": 120.0
            },
            {
                "start_time": 8.352272727272727,
                "end_time": 8.45,
                "pitch": 45,
                "velocity": 80,
                "duration": 0.09772727272727266,
                "tempo": 120.0
            },
            {
                "start_time": 8.452272727272726,
                "end_time": 8.549999999999999,
                "pitch": 45,
                "velocity": 80,
                "duration": 0.09772727272727266,
                "tempo": 120.0
            },
            {
                "start_time": 8.552272727272728,
                "end_time": 8.752272727272727,
                "pitch": 55,
                "velocity": 80,
                "duration": 0.1999999999999993,
                "tempo": 120.0
            },
            {
                "start_time": 8.752272727272727,
                "end_time": 8.852272727272727,
                "pitch": 45,
                "velocity": 80,
                "duration": 0.09999999999999964,
                "tempo": 120.0
            },
            {
                "start_time": 8.854545454545454,
                "end_time": 8.952272727272726,
                "pitch": 41,
                "velocity": 80,
                "duration": 0.09772727272727266,
                "tempo": 120.0
            },
            {
                "start_time": 8.954545454545453,
                "end_time": 9.054545454545455,
                "pitch": 53,
                "velocity": 80,
                "duration": 0.10000000000000142,
                "tempo": 120.0
            },
            {
                "start_time": 9.054545454545455,
                "end_time": 9.154545454545454,
                "pitch": 42,
                "velocity": 80,
                "duration": 0.09999999999999964,
                "tempo": 120.0
            },
            {
                "start_time": 9.156818181818181,
                "end_time": 9.256818181818181,
                "pitch": 54,
                "velocity": 80,
                "duration": 0.09999999999999964,
                "tempo": 120.0
            },
            {
                "start_time": 9.256818181818181,
                "end_time": 9.35681818181818,
                "pitch": 43,
                "velocity": 80,
                "duration": 0.09999999999999964,
                "tempo": 120.0
            },
            {
                "start_time": 9.35681818181818,
                "end_time": 9.459090909090909,
                "pitch": 55,
                "velocity": 80,
                "duration": 0.1022727272727284,
                "tempo": 120.0
            },
            {
                "start_time": 9.459090909090909,
                "end_time": 9.559090909090909,
                "pitch": 44,
                "velocity": 80,
                "duration": 0.09999999999999964,
                "tempo": 120.0
            },
            {
                "start_time": 9.559090909090909,
                "end_time": 9.659090909090908,
                "pitch": 56,
                "velocity": 80,
                "duration": 0.09999999999999964,
                "tempo": 120.0
            },
            {
                "start_time": 9.661363636363635,
                "end_time": 9.861363636363636,
                "pitch": 57,
                "velocity": 80,
                "duration": 0.20000000000000107,
                "tempo": 120.0
            },
            {
                "start_time": 9.863636363636363,
                "end_time": 9.961363636363636,
                "pitch": 45,
                "velocity": 80,
                "duration": 0.09772727272727266,
                "tempo": 120.0
            },
            {
                "start_time": 9.961363636363636,
                "end_time": 10.061363636363636,
                "pitch": 45,
                "velocity": 80,
                "duration": 0.09999999999999964,
                "tempo": 120.0
            },
            {
                "start_time": 10.063636363636363,
                "end_time": 10.263636363636364,
                "pitch": 55,
                "velocity": 80,
                "duration": 0.20000000000000107,
                "tempo": 120.0
            },
            {
                "start_time": 10.263636363636364,
                "end_time": 10.363636363636363,
                "pitch": 45,
                "velocity": 80,
                "duration": 0.09999999999999964,
                "tempo": 120.0
            },
            {
                "start_time": 10.363636363636363,
                "end_time": 10.46590909090909,
                "pitch": 45,
                "velocity": 80,
                "duration": 0.10227272727272663,
                "tempo": 120.0
            },
            {
                "start_time": 10.46590909090909,
                "end_time": 10.56590909090909,
                "pitch": 45,
                "velocity": 80,
                "duration": 0.09999999999999964,
                "tempo": 120.0
            },
            {
                "start_time": 10.56590909090909,
                "end_time": 10.665909090909091,
                "pitch": 57,
                "velocity": 80,
                "duration": 0.10000000000000142,
                "tempo": 120.0
            },
            {
                "start_time": 10.668181818181818,
                "end_time": 10.76590909090909,
                "pitch": 55,
                "velocity": 80,
                "duration": 0.09772727272727266,
                "tempo": 120.0
            },
            {
                "start_time": 10.768181818181818,
                "end_time": 10.868181818181817,
                "pitch": 52,
                "velocity": 80,
                "duration": 0.09999999999999964,
                "tempo": 120.0
            },
            {
                "start_time": 10.868181818181817,
                "end_time": 10.96590909090909,
                "pitch": 50,
                "velocity": 80,
                "duration": 0.09772727272727266,
                "tempo": 120.0
            },
            {
                "start_time": 10.968181818181817,
                "end_time": 11.068181818181818,
                "pitch": 47,
                "velocity": 80,
                "duration": 0.10000000000000142,
                "tempo": 120.0
            },
            {
                "start_time": 11.070454545454545,
                "end_time": 11.168181818181818,
                "pitch": 50,
                "velocity": 80,
                "duration": 0.09772727272727266,
                "tempo": 120.0
            },
            {
                "start_time": 11.170454545454545,
                "end_time": 11.270454545454545,
                "pitch": 52,
                "velocity": 80,
                "duration": 0.09999999999999964,
                "tempo": 120.0
            },
            {
                "start_time": 11.270454545454545,
                "end_time": 11.472727272727273,
                "pitch": 45,
                "velocity": 80,
                "duration": 0.20227272727272805,
                "tempo": 120.0
            },
            {
                "start_time": 11.475,
                "end_time": 11.672727272727272,
                "pitch": 57,
                "velocity": 80,
                "duration": 0.1977272727272723,
                "tempo": 120.0
            },
            {
                "start_time": 11.674999999999999,
                "end_time": 11.774999999999999,
                "pitch": 45,
                "velocity": 80,
                "duration": 0.09999999999999964,
                "tempo": 120.0
            },
            {
                "start_time": 11.777272727272727,
                "end_time": 11.98181818181818,
                "pitch": 55,
                "velocity": 80,
                "duration": 0.20454545454545325,
                "tempo": 120.0
            },
            {
                "start_time": 11.98181818181818,
                "end_time": 12.084090909090909,
                "pitch": 45,
                "velocity": 80,
                "duration": 0.1022727272727284,
                "tempo": 120.0
            },
            {
                "start_time": 12.086363636363636,
                "end_time": 12.181818181818182,
                "pitch": 47,
                "velocity": 80,
                "duration": 0.09545454545454568,
                "tempo": 120.0
            },
            {
                "start_time": 12.181818181818182,
                "end_time": 12.279545454545454,
                "pitch": 57,
                "velocity": 80,
                "duration": 0.09772727272727266,
                "tempo": 120.0
            },
            {
                "start_time": 12.281818181818181,
                "end_time": 12.377272727272727,
                "pitch": 52,
                "velocity": 80,
                "duration": 0.09545454545454568,
                "tempo": 120.0
            },
            {
                "start_time": 12.379545454545454,
                "end_time": 12.477272727272727,
                "pitch": 50,
                "velocity": 80,
                "duration": 0.09772727272727266,
                "tempo": 120.0
            },
            {
                "start_time": 12.477272727272727,
                "end_time": 12.577272727272726,
                "pitch": 55,
                "velocity": 80,
                "duration": 0.09999999999999964,
                "tempo": 120.0
            },
            {
                "start_time": 12.577272727272726,
                "end_time": 12.679545454545455,
                "pitch": 50,
                "velocity": 80,
                "duration": 0.1022727272727284,
                "tempo": 120.0
            },
            {
                "start_time": 12.679545454545455,
                "end_time": 12.779545454545454,
                "pitch": 55,
                "velocity": 80,
                "duration": 0.09999999999999964,
                "tempo": 120.0
            },
            {
                "start_time": 12.779545454545454,
                "end_time": 12.879545454545454,
                "pitch": 57,
                "velocity": 80,
                "duration": 0.09999999999999964,
                "tempo": 120.0
            },
            {
                "start_time": 12.881818181818181,
                "end_time": 12.98181818181818,
                "pitch": 47,
                "velocity": 80,
                "duration": 0.09999999999999964,
                "tempo": 120.0
            },
            {
                "start_time": 12.984090909090908,
                "end_time": 13.188636363636363,
                "pitch": 47,
                "velocity": 80,
                "duration": 0.20454545454545503,
                "tempo": 120.0
            },
            {
                "start_time": 13.19090909090909,
                "end_time": 13.293181818181818,
                "pitch": 47,
                "velocity": 80,
                "duration": 0.1022727272727284,
                "tempo": 120.0
            },
            {
                "start_time": 13.295454545454545,
                "end_time": 13.393181818181818,
                "pitch": 57,
                "velocity": 80,
                "duration": 0.09772727272727266,
                "tempo": 120.0
            },
            {
                "start_time": 13.395454545454545,
                "end_time": 13.495454545454544,
                "pitch": 59,
                "velocity": 80,
                "duration": 0.09999999999999964,
                "tempo": 120.0
            },
            {
                "start_time": 13.495454545454544,
                "end_time": 13.595454545454546,
                "pitch": 47,
                "velocity": 80,
                "duration": 0.10000000000000142,
                "tempo": 120.0
            },
            {
                "start_time": 13.595454545454546,
                "end_time": 13.695454545454545,
                "pitch": 47,
                "velocity": 80,
                "duration": 0.09999999999999964,
                "tempo": 120.0
            },
            {
                "start_time": 13.697727272727272,
                "end_time": 13.893181818181818,
                "pitch": 59,
                "velocity": 80,
                "duration": 0.19545454545454533,
                "tempo": 120.0
            },
            {
                "start_time": 13.893181818181818,
                "end_time": 13.988636363636363,
                "pitch": 47,
                "velocity": 80,
                "duration": 0.09545454545454568,
                "tempo": 120.0
            },
            {
                "start_time": 13.99090909090909,
                "end_time": 14.088636363636363,
                "pitch": 47,
                "velocity": 80,
                "duration": 0.09772727272727266,
                "tempo": 120.0
            },
            {
                "start_time": 14.088636363636363,
                "end_time": 14.293181818181818,
                "pitch": 57,
                "velocity": 80,
                "duration": 0.20454545454545503,
                "tempo": 120.0
            },
            {
                "start_time": 14.295454545454545,
                "end_time": 14.395454545454545,
                "pitch": 54,
                "velocity": 80,
                "duration": 0.09999999999999964,
                "tempo": 120.0
            },
            {
                "start_time": 14.395454545454545,
                "end_time": 14.497727272727271,
                "pitch": 47,
                "velocity": 80,
                "duration": 0.10227272727272663,
                "tempo": 120.0
            },
            {
                "start_time": 14.5,
                "end_time": 14.702272727272726,
                "pitch": 47,
                "velocity": 80,
                "duration": 0.20227272727272627,
                "tempo": 120.0
            },
            {
                "start_time": 14.702272727272726,
                "end_time": 14.802272727272726,
                "pitch": 59,
                "velocity": 80,
                "duration": 0.09999999999999964,
                "tempo": 120.0
            },
            {
                "start_time": 14.802272727272726,
                "end_time": 14.902272727272727,
                "pitch": 47,
                "velocity": 80,
                "duration": 0.10000000000000142,
                "tempo": 120.0
            },
            {
                "start_time": 14.904545454545454,
                "end_time": 15.002272727272727,
                "pitch": 47,
                "velocity": 80,
                "duration": 0.09772727272727266,
                "tempo": 120.0
            },
            {
                "start_time": 15.002272727272727,
                "end_time": 15.204545454545453,
                "pitch": 57,
                "velocity": 80,
                "duration": 0.20227272727272627,
                "tempo": 120.0
            },
            {
                "start_time": 15.204545454545453,
                "end_time": 15.304545454545455,
                "pitch": 47,
                "velocity": 80,
                "duration": 0.10000000000000142,
                "tempo": 120.0
            },
            {
                "start_time": 15.306818181818182,
                "end_time": 15.404545454545454,
                "pitch": 43,
                "velocity": 80,
                "duration": 0.09772727272727266,
                "tempo": 120.0
            },
            {
                "start_time": 15.406818181818181,
                "end_time": 15.506818181818181,
                "pitch": 55,
                "velocity": 80,
                "duration": 0.09999999999999964,
                "tempo": 120.0
            },
            {
                "start_time": 15.506818181818181,
                "end_time": 15.60681818181818,
                "pitch": 44,
                "velocity": 80,
                "duration": 0.09999999999999964,
                "tempo": 120.0
            },
            {
                "start_time": 15.60681818181818,
                "end_time": 15.709090909090909,
                "pitch": 56,
                "velocity": 80,
                "duration": 0.1022727272727284,
                "tempo": 120.0
            },
            {
                "start_time": 15.709090909090909,
                "end_time": 15.806818181818182,
                "pitch": 45,
                "velocity": 80,
                "duration": 0.09772727272727266,
                "tempo": 120.0
            },
            {
                "start_time": 15.809090909090909,
                "end_time": 15.909090909090908,
                "pitch": 57,
                "velocity": 80,
                "duration": 0.09999999999999964,
                "tempo": 120.0
            },
            {
                "start_time": 15.911363636363635,
                "end_time": 16.009090909090908,
                "pitch": 46,
                "velocity": 80,
                "duration": 0.09772727272727266,
                "tempo": 120.0
            },
            {
                "start_time": 16.011363636363637,
                "end_time": 16.111363636363635,
                "pitch": 58,
                "velocity": 80,
                "duration": 0.09999999999999787,
                "tempo": 120.0
            },
            {
                "start_time": 16.111363636363635,
                "end_time": 16.313636363636363,
                "pitch": 59,
                "velocity": 80,
                "duration": 0.20227272727272805,
                "tempo": 120.0
            },
            {
                "start_time": 16.31590909090909,
                "end_time": 16.413636363636364,
                "pitch": 47,
                "velocity": 80,
                "duration": 0.09772727272727266,
                "tempo": 120.0
            },
            {
                "start_time": 16.41590909090909,
                "end_time": 16.51590909090909,
                "pitch": 47,
                "velocity": 80,
                "duration": 0.10000000000000142,
                "tempo": 120.0
            },
            {
                "start_time": 16.518181818181816,
                "end_time": 16.71590909090909,
                "pitch": 57,
                "velocity": 80,
                "duration": 0.19772727272727408,
                "tempo": 120.0
            },
            {
                "start_time": 16.71818181818182,
                "end_time": 16.81590909090909,
                "pitch": 47,
                "velocity": 80,
                "duration": 0.09772727272727266,
                "tempo": 120.0
            },
            {
                "start_time": 16.81590909090909,
                "end_time": 16.91590909090909,
                "pitch": 47,
                "velocity": 80,
                "duration": 0.09999999999999787,
                "tempo": 120.0
            },
            {
                "start_time": 16.918181818181818,
                "end_time": 17.01590909090909,
                "pitch": 47,
                "velocity": 80,
                "duration": 0.09772727272727266,
                "tempo": 120.0
            },
            {
                "start_time": 17.018181818181816,
                "end_time": 17.118181818181817,
                "pitch": 59,
                "velocity": 80,
                "duration": 0.10000000000000142,
                "tempo": 120.0
            },
            {
                "start_time": 17.118181818181817,
                "end_time": 17.21590909090909,
                "pitch": 57,
                "velocity": 80,
                "duration": 0.09772727272727266,
                "tempo": 120.0
            },
            {
                "start_time": 17.21818181818182,
                "end_time": 17.31590909090909,
                "pitch": 54,
                "velocity": 80,
                "duration": 0.09772727272727266,
                "tempo": 120.0
            },
            {
                "start_time": 17.318181818181817,
                "end_time": 17.41590909090909,
                "pitch": 52,
                "velocity": 80,
                "duration": 0.09772727272727266,
                "tempo": 120.0
            },
            {
                "start_time": 17.41590909090909,
                "end_time": 17.518181818181816,
                "pitch": 49,
                "velocity": 80,
                "duration": 0.10227272727272663,
                "tempo": 120.0
            },
            {
                "start_time": 17.518181818181816,
                "end_time": 17.618181818181817,
                "pitch": 52,
                "velocity": 80,
                "duration": 0.10000000000000142,
                "tempo": 120.0
            },
            {
                "start_time": 17.618181818181817,
                "end_time": 17.71818181818182,
                "pitch": 54,
                "velocity": 80,
                "duration": 0.10000000000000142,
                "tempo": 120.0
            },
            {
                "start_time": 17.720454545454544,
                "end_time": 17.920454545454543,
                "pitch": 47,
                "velocity": 80,
                "duration": 0.1999999999999993,
                "tempo": 120.0
            },
            {
                "start_time": 17.922727272727272,
                "end_time": 18.120454545454546,
                "pitch": 59,
                "velocity": 80,
                "duration": 0.19772727272727408,
                "tempo": 120.0
            },
            {
                "start_time": 18.120454545454546,
                "end_time": 18.220454545454544,
                "pitch": 47,
                "velocity": 80,
                "duration": 0.09999999999999787,
                "tempo": 120.0
            },
            {
                "start_time": 18.222727272727273,
                "end_time": 18.427272727272726,
                "pitch": 57,
                "velocity": 80,
                "duration": 0.20454545454545325,
                "tempo": 120.0
            },
            {
                "start_time": 18.427272727272726,
                "end_time": 18.529545454545453,
                "pitch": 47,
                "velocity": 80,
                "duration": 0.10227272727272663,
                "tempo": 120.0
            },
            {
                "start_time": 18.53181818181818,
                "end_time": 18.627272727272725,
                "pitch": 49,
                "velocity": 80,
                "duration": 0.0954545454545439,
                "tempo": 120.0
            },
            {
                "start_time": 18.629545454545454,
                "end_time": 18.727272727272727,
                "pitch": 59,
                "velocity": 80,
                "duration": 0.09772727272727266,
                "tempo": 120.0
            },
            {
                "start_time": 18.727272727272727,
                "end_time": 18.825,
                "pitch": 54,
                "velocity": 80,
                "duration": 0.09772727272727266,
                "tempo": 120.0
            },
            {
                "start_time": 18.825,
                "end_time": 18.922727272727272,
                "pitch": 52,
                "velocity": 80,
                "duration": 0.09772727272727266,
                "tempo": 120.0
            },
            {
                "start_time": 18.925,
                "end_time": 19.022727272727273,
                "pitch": 57,
                "velocity": 80,
                "duration": 0.09772727272727266,
                "tempo": 120.0
            },
            {
                "start_time": 19.025,
                "end_time": 19.12272727272727,
                "pitch": 52,
                "velocity": 80,
                "duration": 0.09772727272727266,
                "tempo": 120.0
            },
            {
                "start_time": 19.125,
                "end_time": 19.222727272727273,
                "pitch": 57,
                "velocity": 80,
                "duration": 0.09772727272727266,
                "tempo": 120.0
            },
            {
                "start_time": 19.224999999999998,
                "end_time": 19.325,
                "pitch": 59,
                "velocity": 80,
                "duration": 0.10000000000000142,
                "tempo": 120.0
            },
            {
                "start_time": 19.325,
                "end_time": 19.422727272727272,
                "pitch": 45,
                "velocity": 80,
                "duration": 0.09772727272727266,
                "tempo": 120.0
            },
            {
                "start_time": 19.425,
                "end_time": 19.627272727272725,
                "pitch": 45,
                "velocity": 80,
                "duration": 0.2022727272727245,
                "tempo": 120.0
            },
            {
                "start_time": 19.627272727272725,
                "end_time": 19.729545454545452,
                "pitch": 45,
                "velocity": 80,
                "duration": 0.10227272727272663,
                "tempo": 120.0
            },
            {
                "start_time": 19.729545454545452,
                "end_time": 19.829545454545453,
                "pitch": 55,
                "velocity": 80,
                "duration": 0.10000000000000142,
                "tempo": 120.0
            },
            {
                "start_time": 19.831818181818182,
                "end_time": 19.93409090909091,
                "pitch": 57,
                "velocity": 80,
                "duration": 0.10227272727272663,
                "tempo": 120.0
            },
            {
                "start_time": 19.936363636363634,
                "end_time": 20.036363636363635,
                "pitch": 45,
                "velocity": 80,
                "duration": 0.10000000000000142,
                "tempo": 120.0
            },
            {
                "start_time": 20.038636363636364,
                "end_time": 20.14090909090909,
                "pitch": 45,
                "velocity": 80,
                "duration": 0.10227272727272663,
                "tempo": 120.0
            },
            {
                "start_time": 20.14090909090909,
                "end_time": 20.336363636363636,
                "pitch": 57,
                "velocity": 80,
                "duration": 0.19545454545454533,
                "tempo": 120.0
            },
            {
                "start_time": 20.336363636363636,
                "end_time": 20.43409090909091,
                "pitch": 45,
                "velocity": 80,
                "duration": 0.09772727272727266,
                "tempo": 120.0
            },
            {
                "start_time": 20.43409090909091,
                "end_time": 20.53181818181818,
                "pitch": 45,
                "velocity": 80,
                "duration": 0.09772727272727266,
                "tempo": 120.0
            },
            {
                "start_time": 20.53181818181818,
                "end_time": 20.736363636363635,
                "pitch": 55,
                "velocity": 80,
                "duration": 0.20454545454545325,
                "tempo": 120.0
            },
            {
                "start_time": 20.738636363636363,
                "end_time": 20.83863636363636,
                "pitch": 52,
                "velocity": 80,
                "duration": 0.09999999999999787,
                "tempo": 120.0
            },
            {
                "start_time": 20.84090909090909,
                "end_time": 20.943181818181817,
                "pitch": 45,
                "velocity": 80,
                "duration": 0.10227272727272663,
                "tempo": 120.0
            },
            {
                "start_time": 20.943181818181817,
                "end_time": 21.143181818181816,
                "pitch": 45,
                "velocity": 80,
                "duration": 0.1999999999999993,
                "tempo": 120.0
            },
            {
                "start_time": 21.145454545454545,
                "end_time": 21.243181818181817,
                "pitch": 57,
                "velocity": 80,
                "duration": 0.09772727272727266,
                "tempo": 120.0
            },
            {
                "start_time": 21.245454545454546,
                "end_time": 21.34318181818182,
                "pitch": 45,
                "velocity": 80,
                "duration": 0.09772727272727266,
                "tempo": 120.0
            },
            {
                "start_time": 21.34318181818182,
                "end_time": 21.443181818181817,
                "pitch": 45,
                "velocity": 80,
                "duration": 0.09999999999999787,
                "tempo": 120.0
            },
            {
                "start_time": 21.443181818181817,
                "end_time": 21.643181818181816,
                "pitch": 55,
                "velocity": 80,
                "duration": 0.1999999999999993,
                "tempo": 120.0
            },
            {
                "start_time": 21.643181818181816,
                "end_time": 21.743181818181817,
                "pitch": 45,
                "velocity": 80,
                "duration": 0.10000000000000142,
                "tempo": 120.0
            },
            {
                "start_time": 21.745454545454546,
                "end_time": 21.84318181818182,
                "pitch": 41,
                "velocity": 80,
                "duration": 0.09772727272727266,
                "tempo": 120.0
            },
            {
                "start_time": 21.845454545454544,
                "end_time": 21.943181818181817,
                "pitch": 53,
                "velocity": 80,
                "duration": 0.09772727272727266,
                "tempo": 120.0
            },
            {
                "start_time": 21.945454545454545,
                "end_time": 22.045454545454543,
                "pitch": 42,
                "velocity": 80,
                "duration": 0.09999999999999787,
                "tempo": 120.0
            },
            {
                "start_time": 22.045454545454543,
                "end_time": 22.145454545454545,
                "pitch": 54,
                "velocity": 80,
                "duration": 0.10000000000000142,
                "tempo": 120.0
            },
            {
                "start_time": 22.147727272727273,
                "end_time": 22.245454545454546,
                "pitch": 43,
                "velocity": 80,
                "duration": 0.09772727272727266,
                "tempo": 120.0
            },
            {
                "start_time": 22.24772727272727,
                "end_time": 22.347727272727273,
                "pitch": 55,
                "velocity": 80,
                "duration": 0.10000000000000142,
                "tempo": 120.0
            },
            {
                "start_time": 22.347727272727273,
                "end_time": 22.445454545454545,
                "pitch": 44,
                "velocity": 80,
                "duration": 0.09772727272727266,
                "tempo": 120.0
            },
            {
                "start_time": 22.44772727272727,
                "end_time": 22.545454545454543,
                "pitch": 56,
                "velocity": 80,
                "duration": 0.09772727272727266,
                "tempo": 120.0
            },
            {
                "start_time": 22.547727272727272,
                "end_time": 22.75,
                "pitch": 57,
                "velocity": 80,
                "duration": 0.20227272727272805,
                "tempo": 120.0
            },
            {
                "start_time": 22.752272727272725,
                "end_time": 22.849999999999998,
                "pitch": 45,
                "velocity": 80,
                "duration": 0.09772727272727266,
                "tempo": 120.0
            },
            {
                "start_time": 22.849999999999998,
                "end_time": 22.952272727272724,
                "pitch": 45,
                "velocity": 80,
                "duration": 0.10227272727272663,
                "tempo": 120.0
            },
            {
                "start_time": 22.952272727272724,
                "end_time": 23.152272727272727,
                "pitch": 55,
                "velocity": 80,
                "duration": 0.20000000000000284,
                "tempo": 120.0
            },
            {
                "start_time": 23.154545454545453,
                "end_time": 23.252272727272725,
                "pitch": 45,
                "velocity": 80,
                "duration": 0.09772727272727266,
                "tempo": 120.0
            },
            {
                "start_time": 23.252272727272725,
                "end_time": 23.352272727272727,
                "pitch": 45,
                "velocity": 80,
                "duration": 0.10000000000000142,
                "tempo": 120.0
            },
            {
                "start_time": 23.354545454545452,
                "end_time": 23.452272727272724,
                "pitch": 45,
                "velocity": 80,
                "duration": 0.09772727272727266,
                "tempo": 120.0
            },
            {
                "start_time": 23.452272727272724,
                "end_time": 23.552272727272726,
                "pitch": 57,
                "velocity": 80,
                "duration": 0.10000000000000142,
                "tempo": 120.0
            },
            {
                "start_time": 23.554545454545455,
                "end_time": 23.652272727272727,
                "pitch": 55,
                "velocity": 80,
                "duration": 0.09772727272727266,
                "tempo": 120.0
            },
            {
                "start_time": 23.652272727272727,
                "end_time": 23.752272727272725,
                "pitch": 52,
                "velocity": 80,
                "duration": 0.09999999999999787,
                "tempo": 120.0
            },
            {
                "start_time": 23.752272727272725,
                "end_time": 23.849999999999998,
                "pitch": 50,
                "velocity": 80,
                "duration": 0.09772727272727266,
                "tempo": 120.0
            },
            {
                "start_time": 23.852272727272727,
                "end_time": 23.952272727272724,
                "pitch": 47,
                "velocity": 80,
                "duration": 0.09999999999999787,
                "tempo": 120.0
            },
            {
                "start_time": 23.954545454545453,
                "end_time": 24.052272727272726,
                "pitch": 50,
                "velocity": 80,
                "duration": 0.09772727272727266,
                "tempo": 120.0
            },
            {
                "start_time": 24.054545454545455,
                "end_time": 24.154545454545453,
                "pitch": 52,
                "velocity": 80,
                "duration": 0.09999999999999787,
                "tempo": 120.0
            },
            {
                "start_time": 24.154545454545453,
                "end_time": 24.35681818181818,
                "pitch": 45,
                "velocity": 80,
                "duration": 0.20227272727272805,
                "tempo": 120.0
            },
            {
                "start_time": 24.35681818181818,
                "end_time": 24.554545454545455,
                "pitch": 57,
                "velocity": 80,
                "duration": 0.19772727272727408,
                "tempo": 120.0
            },
            {
                "start_time": 24.55681818181818,
                "end_time": 24.654545454545453,
                "pitch": 45,
                "velocity": 80,
                "duration": 0.09772727272727266,
                "tempo": 120.0
            },
            {
                "start_time": 24.65681818181818,
                "end_time": 24.85681818181818,
                "pitch": 55,
                "velocity": 80,
                "duration": 0.1999999999999993,
                "tempo": 120.0
            },
            {
                "start_time": 24.85909090909091,
                "end_time": 24.959090909090907,
                "pitch": 45,
                "velocity": 80,
                "duration": 0.09999999999999787,
                "tempo": 120.0
            },
            {
                "start_time": 24.959090909090907,
                "end_time": 25.05681818181818,
                "pitch": 47,
                "velocity": 80,
                "duration": 0.09772727272727266,
                "tempo": 120.0
            },
            {
                "start_time": 25.05909090909091,
                "end_time": 25.159090909090907,
                "pitch": 57,
                "velocity": 80,
                "duration": 0.09999999999999787,
                "tempo": 120.0
            },
            {
                "start_time": 25.159090909090907,
                "end_time": 25.25681818181818,
                "pitch": 52,
                "velocity": 80,
                "duration": 0.09772727272727266,
                "tempo": 120.0
            },
            {
                "start_time": 25.259090909090908,
                "end_time": 25.35909090909091,
                "pitch": 50,
                "velocity": 80,
                "duration": 0.10000000000000142,
                "tempo": 120.0
            },
            {
                "start_time": 25.35909090909091,
                "end_time": 25.459090909090907,
                "pitch": 55,
                "velocity": 80,
                "duration": 0.09999999999999787,
                "tempo": 120.0
            },
            {
                "start_time": 25.459090909090907,
                "end_time": 25.55909090909091,
                "pitch": 50,
                "velocity": 80,
                "duration": 0.10000000000000142,
                "tempo": 120.0
            },
            {
                "start_time": 25.561363636363634,
                "end_time": 25.659090909090907,
                "pitch": 55,
                "velocity": 80,
                "duration": 0.09772727272727266,
                "tempo": 120.0
            },
            {
                "start_time": 25.659090909090907,
                "end_time": 25.759090909090908,
                "pitch": 57,
                "velocity": 80,
                "duration": 0.10000000000000142,
                "tempo": 120.0
            },
            {
                "start_time": 25.761363636363637,
                "end_time": 25.861363636363635,
                "pitch": 45,
                "velocity": 80,
                "duration": 0.09999999999999787,
                "tempo": 120.0
            },
            {
                "start_time": 25.861363636363635,
                "end_time": 26.063636363636363,
                "pitch": 45,
                "velocity": 80,
                "duration": 0.20227272727272805,
                "tempo": 120.0
            },
            {
                "start_time": 26.063636363636363,
                "end_time": 26.163636363636364,
                "pitch": 45,
                "velocity": 80,
                "duration": 0.10000000000000142,
                "tempo": 120.0
            },
            {
                "start_time": 26.163636363636364,
                "end_time": 26.26590909090909,
                "pitch": 55,
                "velocity": 80,
                "duration": 0.10227272727272663,
                "tempo": 120.0
            },
            {
                "start_time": 26.268181818181816,
                "end_time": 26.368181818181817,
                "pitch": 57,
                "velocity": 80,
                "duration": 0.10000000000000142,
                "tempo": 120.0
            },
            {
                "start_time": 26.370454545454542,
                "end_time": 26.472727272727273,
                "pitch": 45,
                "velocity": 80,
                "duration": 0.10227272727273018,
                "tempo": 120.0
            },
            {
                "start_time": 26.472727272727273,
                "end_time": 26.575,
                "pitch": 45,
                "velocity": 80,
                "duration": 0.10227272727272663,
                "tempo": 120.0
            },
            {
                "start_time": 26.575,
                "end_time": 26.775,
                "pitch": 57,
                "velocity": 80,
                "duration": 0.1999999999999993,
                "tempo": 120.0
            },
            {
                "start_time": 26.777272727272727,
                "end_time": 26.875,
                "pitch": 45,
                "velocity": 80,
                "duration": 0.09772727272727266,
                "tempo": 120.0
            },
            {
                "start_time": 26.875,
                "end_time": 26.974999999999998,
                "pitch": 45,
                "velocity": 80,
                "duration": 0.09999999999999787,
                "tempo": 120.0
            },
            {
                "start_time": 26.977272727272727,
                "end_time": 27.170454545454543,
                "pitch": 55,
                "velocity": 80,
                "duration": 0.19318181818181657,
                "tempo": 120.0
            },
            {
                "start_time": 27.172727272727272,
                "end_time": 27.270454545454545,
                "pitch": 52,
                "velocity": 80,
                "duration": 0.09772727272727266,
                "tempo": 120.0
            },
            {
                "start_time": 27.270454545454545,
                "end_time": 27.368181818181817,
                "pitch": 45,
                "velocity": 80,
                "duration": 0.09772727272727266,
                "tempo": 120.0
            },
            {
                "start_time": 27.370454545454542,
                "end_time": 27.57272727272727,
                "pitch": 45,
                "velocity": 80,
                "duration": 0.20227272727272805,
                "tempo": 120.0
            },
            {
                "start_time": 27.575,
                "end_time": 27.674999999999997,
                "pitch": 57,
                "velocity": 80,
                "duration": 0.09999999999999787,
                "tempo": 120.0
            },
            {
                "start_time": 27.677272727272726,
                "end_time": 27.779545454545453,
                "pitch": 45,
                "velocity": 80,
                "duration": 0.10227272727272663,
                "tempo": 120.0
            },
            {
                "start_time": 27.779545454545453,
                "end_time": 27.879545454545454,
                "pitch": 45,
                "velocity": 80,
                "duration": 0.10000000000000142,
                "tempo": 120.0
            },
            {
                "start_time": 27.88181818181818,
                "end_time": 28.079545454545453,
                "pitch": 55,
                "velocity": 80,
                "duration": 0.19772727272727408,
                "tempo": 120.0
            },
            {
                "start_time": 28.079545454545453,
                "end_time": 28.179545454545455,
                "pitch": 45,
                "velocity": 80,
                "duration": 0.10000000000000142,
                "tempo": 120.0
            },
            {
                "start_time": 28.179545454545455,
                "end_time": 28.28181818181818,
                "pitch": 41,
                "velocity": 80,
                "duration": 0.10227272727272663,
                "tempo": 120.0
            },
            {
                "start_time": 28.284090909090907,
                "end_time": 28.384090909090908,
                "pitch": 53,
                "velocity": 80,
                "duration": 0.10000000000000142,
                "tempo": 120.0
            },
            {
                "start_time": 28.386363636363637,
                "end_time": 28.488636363636363,
                "pitch": 42,
                "velocity": 80,
                "duration": 0.10227272727272663,
                "tempo": 120.0
            },
            {
                "start_time": 28.488636363636363,
                "end_time": 28.59090909090909,
                "pitch": 54,
                "velocity": 80,
                "duration": 0.10227272727272663,
                "tempo": 120.0
            },
            {
                "start_time": 28.593181818181815,
                "end_time": 28.688636363636363,
                "pitch": 43,
                "velocity": 80,
                "duration": 0.09545454545454746,
                "tempo": 120.0
            },
            {
                "start_time": 28.690909090909088,
                "end_time": 28.786363636363635,
                "pitch": 55,
                "velocity": 80,
                "duration": 0.09545454545454746,
                "tempo": 120.0
            },
            {
                "start_time": 28.78863636363636,
                "end_time": 28.886363636363637,
                "pitch": 44,
                "velocity": 80,
                "duration": 0.09772727272727622,
                "tempo": 120.0
            },
            {
                "start_time": 28.886363636363637,
                "end_time": 28.98409090909091,
                "pitch": 56,
                "velocity": 80,
                "duration": 0.09772727272727266,
                "tempo": 120.0
            },
            {
                "start_time": 28.986363636363635,
                "end_time": 29.18409090909091,
                "pitch": 57,
                "velocity": 80,
                "duration": 0.19772727272727408,
                "tempo": 120.0
            },
            {
                "start_time": 29.186363636363634,
                "end_time": 29.286363636363635,
                "pitch": 45,
                "velocity": 80,
                "duration": 0.10000000000000142,
                "tempo": 120.0
            },
            {
                "start_time": 29.286363636363635,
                "end_time": 29.386363636363637,
                "pitch": 45,
                "velocity": 80,
                "duration": 0.10000000000000142,
                "tempo": 120.0
            },
            {
                "start_time": 29.388636363636362,
                "end_time": 29.586363636363636,
                "pitch": 55,
                "velocity": 80,
                "duration": 0.19772727272727408,
                "tempo": 120.0
            },
            {
                "start_time": 29.58863636363636,
                "end_time": 29.686363636363634,
                "pitch": 45,
                "velocity": 80,
                "duration": 0.09772727272727266,
                "tempo": 120.0
            },
            {
                "start_time": 29.688636363636363,
                "end_time": 29.786363636363635,
                "pitch": 45,
                "velocity": 80,
                "duration": 0.09772727272727266,
                "tempo": 120.0
            },
            {
                "start_time": 29.78863636363636,
                "end_time": 29.888636363636362,
                "pitch": 45,
                "velocity": 80,
                "duration": 0.10000000000000142,
                "tempo": 120.0
            },
            {
                "start_time": 29.89090909090909,
                "end_time": 29.993181818181817,
                "pitch": 57,
                "velocity": 80,
                "duration": 0.10227272727272663,
                "tempo": 120.0
            },
            {
                "start_time": 29.993181818181817,
                "end_time": 30.095454545454544,
                "pitch": 55,
                "velocity": 80,
                "duration": 0.10227272727272663,
                "tempo": 120.0
            },
            {
                "start_time": 30.097727272727273,
                "end_time": 30.2,
                "pitch": 52,
                "velocity": 80,
                "duration": 0.10227272727272663,
                "tempo": 120.0
            },
            {
                "start_time": 30.2,
                "end_time": 30.295454545454543,
                "pitch": 50,
                "velocity": 80,
                "duration": 0.0954545454545439,
                "tempo": 120.0
            },
            {
                "start_time": 30.297727272727272,
                "end_time": 30.395454545454545,
                "pitch": 47,
                "velocity": 80,
                "duration": 0.09772727272727266,
                "tempo": 120.0
            },
            {
                "start_time": 30.39772727272727,
                "end_time": 30.493181818181817,
                "pitch": 50,
                "velocity": 80,
                "duration": 0.09545454545454746,
                "tempo": 120.0
            },
            {
                "start_time": 30.493181818181817,
                "end_time": 30.59090909090909,
                "pitch": 52,
                "velocity": 80,
                "duration": 0.09772727272727266,
                "tempo": 120.0
            },
            {
                "start_time": 30.593181818181815,
                "end_time": 30.79090909090909,
                "pitch": 45,
                "velocity": 80,
                "duration": 0.19772727272727408,
                "tempo": 120.0
            },
            {
                "start_time": 30.793181818181818,
                "end_time": 30.99090909090909,
                "pitch": 57,
                "velocity": 80,
                "duration": 0.19772727272727053,
                "tempo": 120.0
            },
            {
                "start_time": 30.993181818181817,
                "end_time": 31.093181818181815,
                "pitch": 45,
                "velocity": 80,
                "duration": 0.09999999999999787,
                "tempo": 120.0
            },
            {
                "start_time": 31.093181818181815,
                "end_time": 31.293181818181818,
                "pitch": 55,
                "velocity": 80,
                "duration": 0.20000000000000284,
                "tempo": 120.0
            },
            {
                "start_time": 31.295454545454543,
                "end_time": 31.395454545454545,
                "pitch": 45,
                "velocity": 80,
                "duration": 0.10000000000000142,
                "tempo": 120.0
            },
            {
                "start_time": 31.395454545454545,
                "end_time": 31.495454545454542,
                "pitch": 47,
                "velocity": 80,
                "duration": 0.09999999999999787,
                "tempo": 120.0
            },
            {
                "start_time": 31.495454545454542,
                "end_time": 31.595454545454544,
                "pitch": 57,
                "velocity": 80,
                "duration": 0.10000000000000142,
                "tempo": 120.0
            },
            {
                "start_time": 31.595454545454544,
                "end_time": 31.695454545454545,
                "pitch": 52,
                "velocity": 80,
                "duration": 0.10000000000000142,
                "tempo": 120.0
            },
            {
                "start_time": 31.695454545454545,
                "end_time": 31.795454545454543,
                "pitch": 50,
                "velocity": 80,
                "duration": 0.09999999999999787,
                "tempo": 120.0
            },
            {
                "start_time": 31.797727272727272,
                "end_time": 31.895454545454545,
                "pitch": 55,
                "velocity": 80,
                "duration": 0.09772727272727266,
                "tempo": 120.0
            },
            {
                "start_time": 31.89772727272727,
                "end_time": 31.995454545454542,
                "pitch": 50,
                "velocity": 80,
                "duration": 0.09772727272727266,
                "tempo": 120.0
            },
            {
                "start_time": 31.99772727272727,
                "end_time": 32.095454545454544,
                "pitch": 55,
                "velocity": 80,
                "duration": 0.09772727272727266,
                "tempo": 120.0
            },
            {
                "start_time": 32.09772727272727,
                "end_time": 32.19772727272727,
                "pitch": 57,
                "velocity": 80,
                "duration": 0.10000000000000142,
                "tempo": 120.0
            },
            {
                "start_time": 32.19772727272727,
                "end_time": 32.29545454545455,
                "pitch": 45,
                "velocity": 80,
                "duration": 0.09772727272727622,
                "tempo": 120.0
            },
            {
                "start_time": 32.29772727272727,
                "end_time": 32.49545454545454,
                "pitch": 45,
                "velocity": 80,
                "duration": 0.19772727272727053,
                "tempo": 120.0
            },
            {
                "start_time": 32.49772727272727,
                "end_time": 32.59772727272727,
                "pitch": 45,
                "velocity": 80,
                "duration": 0.10000000000000142,
                "tempo": 120.0
            },
            {
                "start_time": 32.59772727272727,
                "end_time": 32.69772727272727,
                "pitch": 55,
                "velocity": 80,
                "duration": 0.10000000000000142,
                "tempo": 120.0
            },
            {
                "start_time": 32.69772727272727,
                "end_time": 32.79772727272727,
                "pitch": 57,
                "velocity": 80,
                "duration": 0.10000000000000142,
                "tempo": 120.0
            },
            {
                "start_time": 32.8,
                "end_time": 32.89772727272727,
                "pitch": 45,
                "velocity": 80,
                "duration": 0.09772727272727622,
                "tempo": 120.0
            },
            {
                "start_time": 32.9,
                "end_time": 33.0,
                "pitch": 45,
                "velocity": 80,
                "duration": 0.10000000000000142,
                "tempo": 120.0
            },
            {
                "start_time": 33.0,
                "end_time": 33.20454545454545,
                "pitch": 57,
                "velocity": 80,
                "duration": 0.20454545454545325,
                "tempo": 120.0
            },
            {
                "start_time": 33.20681818181818,
                "end_time": 33.309090909090905,
                "pitch": 45,
                "velocity": 80,
                "duration": 0.10227272727272663,
                "tempo": 120.0
            },
            {
                "start_time": 33.309090909090905,
                "end_time": 33.41136363636363,
                "pitch": 45,
                "velocity": 80,
                "duration": 0.10227272727272663,
                "tempo": 120.0
            },
            {
                "start_time": 33.413636363636364,
                "end_time": 33.60681818181818,
                "pitch": 55,
                "velocity": 80,
                "duration": 0.19318181818181301,
                "tempo": 120.0
            },
            {
                "start_time": 33.60909090909091,
                "end_time": 33.70454545454545,
                "pitch": 52,
                "velocity": 80,
                "duration": 0.0954545454545439,
                "tempo": 120.0
            },
            {
                "start_time": 33.70681818181818,
                "end_time": 33.804545454545455,
                "pitch": 45,
                "velocity": 80,
                "duration": 0.09772727272727622,
                "tempo": 120.0
            },
            {
                "start_time": 33.80681818181818,
                "end_time": 34.00909090909091,
                "pitch": 45,
                "velocity": 80,
                "duration": 0.20227272727272805,
                "tempo": 120.0
            },
            {
                "start_time": 34.01136363636363,
                "end_time": 34.111363636363635,
                "pitch": 57,
                "velocity": 80,
                "duration": 0.10000000000000142,
                "tempo": 120.0
            },
            {
                "start_time": 34.11363636363636,
                "end_time": 34.21363636363636,
                "pitch": 45,
                "velocity": 80,
                "duration": 0.10000000000000142,
                "tempo": 120.0
            },
            {
                "start_time": 34.215909090909086,
                "end_time": 34.31590909090909,
                "pitch": 45,
                "velocity": 80,
                "duration": 0.10000000000000142,
                "tempo": 120.0
            },
            {
                "start_time": 34.31590909090909,
                "end_time": 34.518181818181816,
                "pitch": 55,
                "velocity": 80,
                "duration": 0.20227272727272805,
                "tempo": 120.0
            },
            {
                "start_time": 34.518181818181816,
                "end_time": 34.61818181818182,
                "pitch": 45,
                "velocity": 80,
                "duration": 0.10000000000000142,
                "tempo": 120.0
            },
            {
                "start_time": 34.61818181818182,
                "end_time": 34.71818181818182,
                "pitch": 41,
                "velocity": 80,
                "duration": 0.10000000000000142,
                "tempo": 120.0
            },
            {
                "start_time": 34.71818181818182,
                "end_time": 34.81818181818181,
                "pitch": 53,
                "velocity": 80,
                "duration": 0.09999999999999432,
                "tempo": 120.0
            },
            {
                "start_time": 34.820454545454545,
                "end_time": 34.918181818181814,
                "pitch": 42,
                "velocity": 80,
                "duration": 0.09772727272726911,
                "tempo": 120.0
            },
            {
                "start_time": 34.92045454545455,
                "end_time": 35.018181818181816,
                "pitch": 54,
                "velocity": 80,
                "duration": 0.09772727272726911,
                "tempo": 120.0
            },
            {
                "start_time": 35.02045454545454,
                "end_time": 35.11590909090909,
                "pitch": 43,
                "velocity": 80,
                "duration": 0.09545454545455101,
                "tempo": 120.0
            },
            {
                "start_time": 35.11818181818182,
                "end_time": 35.215909090909086,
                "pitch": 55,
                "velocity": 80,
                "duration": 0.09772727272726911,
                "tempo": 120.0
            },
            {
                "start_time": 35.215909090909086,
                "end_time": 35.31363636363636,
                "pitch": 44,
                "velocity": 80,
                "duration": 0.09772727272727622,
                "tempo": 120.0
            },
            {
                "start_time": 35.31363636363636,
                "end_time": 35.41136363636363,
                "pitch": 56,
                "velocity": 80,
                "duration": 0.09772727272726911,
                "tempo": 120.0
            },
            {
                "start_time": 35.413636363636364,
                "end_time": 35.61590909090909,
                "pitch": 57,
                "velocity": 80,
                "duration": 0.20227272727272805,
                "tempo": 120.0
            },
            {
                "start_time": 35.61818181818182,
                "end_time": 35.720454545454544,
                "pitch": 45,
                "velocity": 80,
                "duration": 0.10227272727272663,
                "tempo": 120.0
            },
            {
                "start_time": 35.720454545454544,
                "end_time": 35.82272727272727,
                "pitch": 45,
                "velocity": 80,
                "duration": 0.10227272727272663,
                "tempo": 120.0
            },
            {
                "start_time": 35.82272727272727,
                "end_time": 36.02272727272727,
                "pitch": 55,
                "velocity": 80,
                "duration": 0.20000000000000284,
                "tempo": 120.0
            },
            {
                "start_time": 36.025,
                "end_time": 36.12272727272727,
                "pitch": 45,
                "velocity": 80,
                "duration": 0.09772727272726911,
                "tempo": 120.0
            },
            {
                "start_time": 36.12272727272727,
                "end_time": 36.22272727272727,
                "pitch": 45,
                "velocity": 80,
                "duration": 0.10000000000000142,
                "tempo": 120.0
            },
            {
                "start_time": 36.22272727272727,
                "end_time": 36.324999999999996,
                "pitch": 45,
                "velocity": 80,
                "duration": 0.10227272727272663,
                "tempo": 120.0
            },
            {
                "start_time": 36.324999999999996,
                "end_time": 36.425,
                "pitch": 57,
                "velocity": 80,
                "duration": 0.10000000000000142,
                "tempo": 120.0
            },
            {
                "start_time": 36.425,
                "end_time": 36.525,
                "pitch": 55,
                "velocity": 80,
                "duration": 0.10000000000000142,
                "tempo": 120.0
            },
            {
                "start_time": 36.525,
                "end_time": 36.627272727272725,
                "pitch": 52,
                "velocity": 80,
                "duration": 0.10227272727272663,
                "tempo": 120.0
            },
            {
                "start_time": 36.627272727272725,
                "end_time": 36.72727272727273,
                "pitch": 50,
                "velocity": 80,
                "duration": 0.10000000000000142,
                "tempo": 120.0
            },
            {
                "start_time": 36.72727272727273,
                "end_time": 36.82727272727273,
                "pitch": 47,
                "velocity": 80,
                "duration": 0.10000000000000142,
                "tempo": 120.0
            },
            {
                "start_time": 36.82954545454545,
                "end_time": 36.92727272727272,
                "pitch": 50,
                "velocity": 80,
                "duration": 0.09772727272726911,
                "tempo": 120.0
            },
            {
                "start_time": 36.92727272727272,
                "end_time": 37.027272727272724,
                "pitch": 52,
                "velocity": 80,
                "duration": 0.10000000000000142,
                "tempo": 120.0
            },
            {
                "start_time": 37.029545454545456,
                "end_time": 37.22727272727273,
                "pitch": 45,
                "velocity": 80,
                "duration": 0.19772727272727053,
                "tempo": 120.0
            },
            {
                "start_time": 37.22727272727273,
                "end_time": 37.42727272727272,
                "pitch": 57,
                "velocity": 80,
                "duration": 0.19999999999999574,
                "tempo": 120.0
            },
            {
                "start_time": 37.429545454545455,
                "end_time": 37.527272727272724,
                "pitch": 45,
                "velocity": 80,
                "duration": 0.09772727272726911,
                "tempo": 120.0
            },
            {
                "start_time": 37.529545454545456,
                "end_time": 37.72727272727273,
                "pitch": 55,
                "velocity": 80,
                "duration": 0.19772727272727053,
                "tempo": 120.0
            },
            {
                "start_time": 37.72954545454545,
                "end_time": 37.82727272727273,
                "pitch": 45,
                "velocity": 80,
                "duration": 0.09772727272727622,
                "tempo": 120.0
            },
            {
                "start_time": 37.82954545454545,
                "end_time": 37.92727272727272,
                "pitch": 47,
                "velocity": 80,
                "duration": 0.09772727272726911,
                "tempo": 120.0
            },
            {
                "start_time": 37.929545454545455,
                "end_time": 38.027272727272724,
                "pitch": 57,
                "velocity": 80,
                "duration": 0.09772727272726911,
                "tempo": 120.0
            },
            {
                "start_time": 38.029545454545456,
                "end_time": 38.127272727272725,
                "pitch": 52,
                "velocity": 80,
                "duration": 0.09772727272726911,
                "tempo": 120.0
            },
            {
                "start_time": 38.12954545454545,
                "end_time": 38.22954545454545,
                "pitch": 50,
                "velocity": 80,
                "duration": 0.10000000000000142,
                "tempo": 120.0
            },
            {
                "start_time": 38.22954545454545,
                "end_time": 38.32954545454545,
                "pitch": 55,
                "velocity": 80,
                "duration": 0.10000000000000142,
                "tempo": 120.0
            },
            {
                "start_time": 38.32954545454545,
                "end_time": 38.429545454545455,
                "pitch": 50,
                "velocity": 80,
                "duration": 0.10000000000000142,
                "tempo": 120.0
            },
            {
                "start_time": 38.43181818181818,
                "end_time": 38.53181818181818,
                "pitch": 55,
                "velocity": 80,
                "duration": 0.10000000000000142,
                "tempo": 120.0
            },
            {
                "start_time": 38.53181818181818,
                "end_time": 38.62954545454545,
                "pitch": 57,
                "velocity": 80,
                "duration": 0.09772727272726911,
                "tempo": 120.0
            },
            {
                "start_time": 38.63181818181818,
                "end_time": 38.72954545454545,
                "pitch": 47,
                "velocity": 80,
                "duration": 0.09772727272726911,
                "tempo": 120.0
            },
            {
                "start_time": 38.73181818181818,
                "end_time": 38.929545454545455,
                "pitch": 47,
                "velocity": 80,
                "duration": 0.19772727272727764,
                "tempo": 120.0
            },
            {
                "start_time": 38.93181818181818,
                "end_time": 39.029545454545456,
                "pitch": 47,
                "velocity": 80,
                "duration": 0.09772727272727622,
                "tempo": 120.0
            },
            {
                "start_time": 39.03181818181818,
                "end_time": 39.12954545454545,
                "pitch": 57,
                "velocity": 80,
                "duration": 0.09772727272726911,
                "tempo": 120.0
            },
            {
                "start_time": 39.13181818181818,
                "end_time": 39.23181818181818,
                "pitch": 59,
                "velocity": 80,
                "duration": 0.09999999999999432,
                "tempo": 120.0
            },
            {
                "start_time": 39.23181818181818,
                "end_time": 39.33181818181818,
                "pitch": 47,
                "velocity": 80,
                "duration": 0.10000000000000142,
                "tempo": 120.0
            },
            {
                "start_time": 39.33181818181818,
                "end_time": 39.43181818181818,
                "pitch": 47,
                "velocity": 80,
                "duration": 0.10000000000000142,
                "tempo": 120.0
            },
            {
                "start_time": 39.43181818181818,
                "end_time": 39.63181818181818,
                "pitch": 59,
                "velocity": 80,
                "duration": 0.20000000000000284,
                "tempo": 120.0
            },
            {
                "start_time": 39.63181818181818,
                "end_time": 39.73181818181818,
                "pitch": 47,
                "velocity": 80,
                "duration": 0.09999999999999432,
                "tempo": 120.0
            },
            {
                "start_time": 39.73181818181818,
                "end_time": 39.83181818181818,
                "pitch": 47,
                "velocity": 80,
                "duration": 0.10000000000000142,
                "tempo": 120.0
            },
            {
                "start_time": 39.83181818181818,
                "end_time": 40.03181818181818,
                "pitch": 57,
                "velocity": 80,
                "duration": 0.20000000000000284,
                "tempo": 120.0
            },
            {
                "start_time": 40.03409090909091,
                "end_time": 40.13181818181818,
                "pitch": 54,
                "velocity": 80,
                "duration": 0.09772727272727622,
                "tempo": 120.0
            },
            {
                "start_time": 40.13409090909091,
                "end_time": 40.23181818181818,
                "pitch": 47,
                "velocity": 80,
                "duration": 0.09772727272726911,
                "tempo": 120.0
            },
            {
                "start_time": 40.23409090909091,
                "end_time": 40.43863636363636,
                "pitch": 47,
                "velocity": 80,
                "duration": 0.20454545454545325,
                "tempo": 120.0
            },
            {
                "start_time": 40.43863636363636,
                "end_time": 40.54090909090909,
                "pitch": 59,
                "velocity": 80,
                "duration": 0.10227272727272663,
                "tempo": 120.0
            },
            {
                "start_time": 40.54090909090909,
                "end_time": 40.643181818181816,
                "pitch": 47,
                "velocity": 80,
                "duration": 0.10227272727272663,
                "tempo": 120.0
            },
            {
                "start_time": 40.64545454545454,
                "end_time": 40.74090909090909,
                "pitch": 47,
                "velocity": 80,
                "duration": 0.09545454545455101,
                "tempo": 120.0
            },
            {
                "start_time": 40.74318181818182,
                "end_time": 40.93863636363636,
                "pitch": 57,
                "velocity": 80,
                "duration": 0.19545454545454533,
                "tempo": 120.0
            },
            {
                "start_time": 40.93863636363636,
                "end_time": 41.03636363636363,
                "pitch": 47,
                "velocity": 80,
                "duration": 0.09772727272726911,
                "tempo": 120.0
            },
            {
                "start_time": 41.03636363636363,
                "end_time": 41.13636363636363,
                "pitch": 43,
                "velocity": 80,
                "duration": 0.10000000000000142,
                "tempo": 120.0
            },
            {
                "start_time": 41.13636363636363,
                "end_time": 41.236363636363635,
                "pitch": 55,
                "velocity": 80,
                "duration": 0.10000000000000142,
                "tempo": 120.0
            },
            {
                "start_time": 41.236363636363635,
                "end_time": 41.336363636363636,
                "pitch": 44,
                "velocity": 80,
                "duration": 0.10000000000000142,
                "tempo": 120.0
            },
            {
                "start_time": 41.336363636363636,
                "end_time": 41.43636363636364,
                "pitch": 56,
                "velocity": 80,
                "duration": 0.10000000000000142,
                "tempo": 120.0
            },
            {
                "start_time": 41.43863636363636,
                "end_time": 41.53636363636363,
                "pitch": 45,
                "velocity": 80,
                "duration": 0.09772727272726911,
                "tempo": 120.0
            },
            {
                "start_time": 41.538636363636364,
                "end_time": 41.63636363636363,
                "pitch": 57,
                "velocity": 80,
                "duration": 0.09772727272726911,
                "tempo": 120.0
            },
            {
                "start_time": 41.63863636363636,
                "end_time": 41.736363636363635,
                "pitch": 46,
                "velocity": 80,
                "duration": 0.09772727272727622,
                "tempo": 120.0
            },
            {
                "start_time": 41.73863636363636,
                "end_time": 41.83863636363636,
                "pitch": 58,
                "velocity": 80,
                "duration": 0.10000000000000142,
                "tempo": 120.0
            },
            {
                "start_time": 41.83863636363636,
                "end_time": 42.043181818181814,
                "pitch": 59,
                "velocity": 80,
                "duration": 0.20454545454545325,
                "tempo": 120.0
            },
            {
                "start_time": 42.043181818181814,
                "end_time": 42.14545454545454,
                "pitch": 47,
                "velocity": 80,
                "duration": 0.10227272727272663,
                "tempo": 120.0
            },
            {
                "start_time": 42.14545454545454,
                "end_time": 42.24772727272727,
                "pitch": 47,
                "velocity": 80,
                "duration": 0.10227272727272663,
                "tempo": 120.0
            },
            {
                "start_time": 42.25,
                "end_time": 42.44318181818181,
                "pitch": 57,
                "velocity": 80,
                "duration": 0.19318181818181301,
                "tempo": 120.0
            },
            {
                "start_time": 42.445454545454545,
                "end_time": 42.543181818181814,
                "pitch": 47,
                "velocity": 80,
                "duration": 0.09772727272726911,
                "tempo": 120.0
            },
            {
                "start_time": 42.543181818181814,
                "end_time": 42.64090909090909,
                "pitch": 47,
                "velocity": 80,
                "duration": 0.09772727272727622,
                "tempo": 120.0
            },
            {
                "start_time": 42.64090909090909,
                "end_time": 42.74090909090909,
                "pitch": 47,
                "velocity": 80,
                "duration": 0.10000000000000142,
                "tempo": 120.0
            },
            {
                "start_time": 42.74318181818182,
                "end_time": 42.840909090909086,
                "pitch": 59,
                "velocity": 80,
                "duration": 0.09772727272726911,
                "tempo": 120.0
            },
            {
                "start_time": 42.84318181818182,
                "end_time": 42.94090909090909,
                "pitch": 57,
                "velocity": 80,
                "duration": 0.09772727272726911,
                "tempo": 120.0
            },
            {
                "start_time": 42.94318181818181,
                "end_time": 43.04090909090909,
                "pitch": 54,
                "velocity": 80,
                "duration": 0.09772727272727622,
                "tempo": 120.0
            },
            {
                "start_time": 43.043181818181814,
                "end_time": 43.143181818181816,
                "pitch": 52,
                "velocity": 80,
                "duration": 0.10000000000000142,
                "tempo": 120.0
            },
            {
                "start_time": 43.14545454545454,
                "end_time": 43.24772727272727,
                "pitch": 49,
                "velocity": 80,
                "duration": 0.10227272727272663,
                "tempo": 120.0
            },
            {
                "start_time": 43.24772727272727,
                "end_time": 43.35,
                "pitch": 52,
                "velocity": 80,
                "duration": 0.10227272727273373,
                "tempo": 120.0
            },
            {
                "start_time": 43.35227272727273,
                "end_time": 43.45227272727273,
                "pitch": 54,
                "velocity": 80,
                "duration": 0.10000000000000142,
                "tempo": 120.0
            },
            {
                "start_time": 43.45454545454545,
                "end_time": 43.65454545454545,
                "pitch": 47,
                "velocity": 80,
                "duration": 0.19999999999999574,
                "tempo": 120.0
            },
            {
                "start_time": 43.65681818181818,
                "end_time": 43.85681818181818,
                "pitch": 59,
                "velocity": 80,
                "duration": 0.19999999999999574,
                "tempo": 120.0
            },
            {
                "start_time": 43.85681818181818,
                "end_time": 43.95681818181818,
                "pitch": 47,
                "velocity": 80,
                "duration": 0.10000000000000142,
                "tempo": 120.0
            },
            {
                "start_time": 43.95681818181818,
                "end_time": 44.15681818181818,
                "pitch": 57,
                "velocity": 80,
                "duration": 0.20000000000000284,
                "tempo": 120.0
            },
            {
                "start_time": 44.15681818181818,
                "end_time": 44.25681818181818,
                "pitch": 47,
                "velocity": 80,
                "duration": 0.10000000000000142,
                "tempo": 120.0
            },
            {
                "start_time": 44.25681818181818,
                "end_time": 44.35681818181818,
                "pitch": 49,
                "velocity": 80,
                "duration": 0.09999999999999432,
                "tempo": 120.0
            },
            {
                "start_time": 44.35681818181818,
                "end_time": 44.45681818181818,
                "pitch": 59,
                "velocity": 80,
                "duration": 0.10000000000000142,
                "tempo": 120.0
            },
            {
                "start_time": 44.459090909090904,
                "end_time": 44.55681818181818,
                "pitch": 54,
                "velocity": 80,
                "duration": 0.09772727272727622,
                "tempo": 120.0
            },
            {
                "start_time": 44.559090909090905,
                "end_time": 44.65681818181818,
                "pitch": 52,
                "velocity": 80,
                "duration": 0.09772727272727622,
                "tempo": 120.0
            },
            {
                "start_time": 44.65681818181818,
                "end_time": 44.75454545454545,
                "pitch": 57,
                "velocity": 80,
                "duration": 0.09772727272726911,
                "tempo": 120.0
            },
            {
                "start_time": 44.75681818181818,
                "end_time": 44.85227272727273,
                "pitch": 52,
                "velocity": 80,
                "duration": 0.0954545454545439,
                "tempo": 120.0
            },
            {
                "start_time": 44.85454545454545,
                "end_time": 44.95227272727273,
                "pitch": 57,
                "velocity": 80,
                "duration": 0.09772727272727622,
                "tempo": 120.0
            },
            {
                "start_time": 44.95227272727273,
                "end_time": 45.05,
                "pitch": 59,
                "velocity": 80,
                "duration": 0.09772727272726911,
                "tempo": 120.0
            },
            {
                "start_time": 45.05227272727272,
                "end_time": 45.152272727272724,
                "pitch": 45,
                "velocity": 80,
                "duration": 0.10000000000000142,
                "tempo": 120.0
            },
            {
                "start_time": 45.152272727272724,
                "end_time": 45.35681818181818,
                "pitch": 45,
                "velocity": 80,
                "duration": 0.20454545454545325,
                "tempo": 120.0
            },
            {
                "start_time": 45.35909090909091,
                "end_time": 45.461363636363636,
                "pitch": 45,
                "velocity": 80,
                "duration": 0.10227272727272663,
                "tempo": 120.0
            },
            {
                "start_time": 45.461363636363636,
                "end_time": 45.56136363636364,
                "pitch": 55,
                "velocity": 80,
                "duration": 0.10000000000000142,
                "tempo": 120.0
            },
            {
                "start_time": 45.56363636363636,
                "end_time": 45.66136363636363,
                "pitch": 57,
                "velocity": 80,
                "duration": 0.09772727272726911,
                "tempo": 120.0
            },
            {
                "start_time": 45.663636363636364,
                "end_time": 45.76363636363636,
                "pitch": 45,
                "velocity": 80,
                "duration": 0.09999999999999432,
                "tempo": 120.0
            },
            {
                "start_time": 45.76363636363636,
                "end_time": 45.86363636363636,
                "pitch": 45,
                "velocity": 80,
                "duration": 0.10000000000000142,
                "tempo": 120.0
            },
            {
                "start_time": 45.86590909090909,
                "end_time": 46.059090909090905,
                "pitch": 57,
                "velocity": 80,
                "duration": 0.19318181818181301,
                "tempo": 120.0
            },
            {
                "start_time": 46.06136363636364,
                "end_time": 46.15909090909091,
                "pitch": 45,
                "velocity": 80,
                "duration": 0.09772727272726911,
                "tempo": 120.0
            },
            {
                "start_time": 46.15909090909091,
                "end_time": 46.25681818181818,
                "pitch": 45,
                "velocity": 80,
                "duration": 0.09772727272727622,
                "tempo": 120.0
            },
            {
                "start_time": 46.25909090909091,
                "end_time": 46.461363636363636,
                "pitch": 55,
                "velocity": 80,
                "duration": 0.20227272727272805,
                "tempo": 120.0
            },
            {
                "start_time": 46.46363636363636,
                "end_time": 46.56590909090909,
                "pitch": 52,
                "velocity": 80,
                "duration": 0.10227272727272663,
                "tempo": 120.0
            },
            {
                "start_time": 46.56590909090909,
                "end_time": 46.668181818181814,
                "pitch": 45,
                "velocity": 80,
                "duration": 0.10227272727272663,
                "tempo": 120.0
            },
            {
                "start_time": 46.67045454545454,
                "end_time": 46.86818181818182,
                "pitch": 45,
                "velocity": 80,
                "duration": 0.19772727272727764,
                "tempo": 120.0
            },
            {
                "start_time": 46.87045454545454,
                "end_time": 46.96818181818182,
                "pitch": 57,
                "velocity": 80,
                "duration": 0.09772727272727622,
                "tempo": 120.0
            },
            {
                "start_time": 46.970454545454544,
                "end_time": 47.06818181818181,
                "pitch": 45,
                "velocity": 80,
                "duration": 0.09772727272726911,
                "tempo": 120.0
            },
            {
                "start_time": 47.070454545454545,
                "end_time": 47.168181818181814,
                "pitch": 45,
                "velocity": 80,
                "duration": 0.09772727272726911,
                "tempo": 120.0
            },
            {
                "start_time": 47.17045454545454,
                "end_time": 47.36818181818182,
                "pitch": 55,
                "velocity": 80,
                "duration": 0.19772727272727764,
                "tempo": 120.0
            },
            {
                "start_time": 47.37045454545454,
                "end_time": 47.46818181818182,
                "pitch": 45,
                "velocity": 80,
                "duration": 0.09772727272727622,
                "tempo": 120.0
            },
            {
                "start_time": 47.470454545454544,
                "end_time": 47.570454545454545,
                "pitch": 41,
                "velocity": 80,
                "duration": 0.10000000000000142,
                "tempo": 120.0
            },
            {
                "start_time": 47.570454545454545,
                "end_time": 47.67045454545454,
                "pitch": 53,
                "velocity": 80,
                "duration": 0.09999999999999432,
                "tempo": 120.0
            },
            {
                "start_time": 47.67272727272727,
                "end_time": 47.77045454545454,
                "pitch": 42,
                "velocity": 80,
                "duration": 0.09772727272726911,
                "tempo": 120.0
            },
            {
                "start_time": 47.77272727272727,
                "end_time": 47.87272727272727,
                "pitch": 54,
                "velocity": 80,
                "duration": 0.09999999999999432,
                "tempo": 120.0
            },
            {
                "start_time": 47.87272727272727,
                "end_time": 47.97272727272727,
                "pitch": 43,
                "velocity": 80,
                "duration": 0.10000000000000142,
                "tempo": 120.0
            },
            {
                "start_time": 47.97272727272727,
                "end_time": 48.07272727272727,
                "pitch": 55,
                "velocity": 80,
                "duration": 0.10000000000000142,
                "tempo": 120.0
            },
            {
                "start_time": 48.074999999999996,
                "end_time": 48.17272727272727,
                "pitch": 44,
                "velocity": 80,
                "duration": 0.09772727272727622,
                "tempo": 120.0
            },
            {
                "start_time": 48.175,
                "end_time": 48.27272727272727,
                "pitch": 56,
                "velocity": 80,
                "duration": 0.09772727272727622,
                "tempo": 120.0
            },
            {
                "start_time": 48.275,
                "end_time": 48.47954545454545,
                "pitch": 57,
                "velocity": 80,
                "duration": 0.20454545454545325,
                "tempo": 120.0
            },
            {
                "start_time": 48.47954545454545,
                "end_time": 48.58181818181818,
                "pitch": 45,
                "velocity": 80,
                "duration": 0.10227272727272663,
                "tempo": 120.0
            },
            {
                "start_time": 48.58181818181818,
                "end_time": 48.684090909090905,
                "pitch": 45,
                "velocity": 80,
                "duration": 0.10227272727272663,
                "tempo": 120.0
            },
            {
                "start_time": 48.684090909090905,
                "end_time": 48.87954545454545,
                "pitch": 55,
                "velocity": 80,
                "duration": 0.19545454545454533,
                "tempo": 120.0
            },
            {
                "start_time": 48.88181818181818,
                "end_time": 48.97727272727273,
                "pitch": 45,
                "velocity": 80,
                "duration": 0.0954545454545439,
                "tempo": 120.0
            },
            {
                "start_time": 48.97954545454545,
                "end_time": 49.07727272727273,
                "pitch": 45,
                "velocity": 80,
                "duration": 0.09772727272727622,
                "tempo": 120.0
            },
            {
                "start_time": 49.07727272727273,
                "end_time": 49.17727272727272,
                "pitch": 45,
                "velocity": 80,
                "duration": 0.09999999999999432,
                "tempo": 120.0
            },
            {
                "start_time": 49.17727272727272,
                "end_time": 49.277272727272724,
                "pitch": 57,
                "velocity": 80,
                "duration": 0.10000000000000142,
                "tempo": 120.0
            },
            {
                "start_time": 49.277272727272724,
                "end_time": 49.377272727272725,
                "pitch": 55,
                "velocity": 80,
                "duration": 0.10000000000000142,
                "tempo": 120.0
            },
            {
                "start_time": 49.377272727272725,
                "end_time": 49.47727272727273,
                "pitch": 52,
                "velocity": 80,
                "duration": 0.10000000000000142,
                "tempo": 120.0
            },
            {
                "start_time": 49.47954545454545,
                "end_time": 49.57954545454545,
                "pitch": 50,
                "velocity": 80,
                "duration": 0.10000000000000142,
                "tempo": 120.0
            },
            {
                "start_time": 49.58181818181818,
                "end_time": 49.68181818181818,
                "pitch": 47,
                "velocity": 80,
                "duration": 0.10000000000000142,
                "tempo": 120.0
            },
            {
                "start_time": 49.684090909090905,
                "end_time": 49.78636363636363,
                "pitch": 50,
                "velocity": 80,
                "duration": 0.10227272727272663,
                "tempo": 120.0
            },
            {
                "start_time": 49.78636363636363,
                "end_time": 49.88863636363636,
                "pitch": 52,
                "velocity": 80,
                "duration": 0.10227272727272663,
                "tempo": 120.0
            },
            {
                "start_time": 51.490909090909085,
                "end_time": 51.49545454545454,
                "pitch": 45,
                "velocity": 80,
                "duration": 0.004545454545457517,
                "tempo": 120.0
            }
        ],
        "Harpsichord": [
            {
                "start_time": 0.21136363636363636,
                "end_time": 0.40909090909090906,
                "pitch": 64,
                "velocity": 64,
                "duration": 0.1977272727272727,
                "tempo": 120.0
            },
            {
                "start_time": 0.41363636363636364,
                "end_time": 0.6068181818181818,
                "pitch": 69,
                "velocity": 64,
                "duration": 0.19318181818181818,
                "tempo": 120.0
            },
            {
                "start_time": 0.609090909090909,
                "end_time": 0.8022727272727272,
                "pitch": 72,
                "velocity": 64,
                "duration": 0.19318181818181823,
                "tempo": 120.0
            },
            {
                "start_time": 0.8045454545454545,
                "end_time": 1.0045454545454544,
                "pitch": 76,
                "velocity": 64,
                "duration": 0.19999999999999996,
                "tempo": 120.0
            },
            {
                "start_time": 1.0068181818181818,
                "end_time": 1.2068181818181818,
                "pitch": 72,
                "velocity": 64,
                "duration": 0.19999999999999996,
                "tempo": 120.0
            },
            {
                "start_time": 1.209090909090909,
                "end_time": 1.4068181818181817,
                "pitch": 74,
                "velocity": 64,
                "duration": 0.19772727272727275,
                "tempo": 120.0
            },
            {
                "start_time": 1.409090909090909,
                "end_time": 2.0113636363636362,
                "pitch": 71,
                "velocity": 64,
                "duration": 0.6022727272727273,
                "tempo": 120.0
            },
            {
                "start_time": 3.418181818181818,
                "end_time": 3.6159090909090907,
                "pitch": 62,
                "velocity": 64,
                "duration": 0.19772727272727275,
                "tempo": 120.0
            },
            {
                "start_time": 3.618181818181818,
                "end_time": 3.8204545454545453,
                "pitch": 67,
                "velocity": 64,
                "duration": 0.20227272727272716,
                "tempo": 120.0
            },
            {
                "start_time": 3.8249999999999997,
                "end_time": 4.027272727272727,
                "pitch": 71,
                "velocity": 64,
                "duration": 0.2022727272727276,
                "tempo": 120.0
            },
            {
                "start_time": 4.029545454545454,
                "end_time": 4.222727272727273,
                "pitch": 74,
                "velocity": 64,
                "duration": 0.19318181818181834,
                "tempo": 120.0
            },
            {
                "start_time": 4.225,
                "end_time": 4.418181818181818,
                "pitch": 71,
                "velocity": 64,
                "duration": 0.19318181818181834,
                "tempo": 120.0
            },
            {
                "start_time": 4.420454545454545,
                "end_time": 4.622727272727272,
                "pitch": 67,
                "velocity": 64,
                "duration": 0.20227272727272716,
                "tempo": 120.0
            },
            {
                "start_time": 4.627272727272727,
                "end_time": 5.2340909090909085,
                "pitch": 69,
                "velocity": 64,
                "duration": 0.6068181818181815,
                "tempo": 120.0
            },
            {
                "start_time": 6.643181818181818,
                "end_time": 6.840909090909091,
                "pitch": 64,
                "velocity": 64,
                "duration": 0.1977272727272732,
                "tempo": 120.0
            },
            {
                "start_time": 6.845454545454545,
                "end_time": 7.043181818181818,
                "pitch": 69,
                "velocity": 64,
                "duration": 0.1977272727272732,
                "tempo": 120.0
            },
            {
                "start_time": 7.045454545454545,
                "end_time": 7.245454545454545,
                "pitch": 72,
                "velocity": 64,
                "duration": 0.20000000000000018,
                "tempo": 120.0
            },
            {
                "start_time": 7.247727272727272,
                "end_time": 7.445454545454545,
                "pitch": 76,
                "velocity": 64,
                "duration": 0.1977272727272732,
                "tempo": 120.0
            },
            {
                "start_time": 7.447727272727272,
                "end_time": 7.643181818181818,
                "pitch": 72,
                "velocity": 64,
                "duration": 0.19545454545454533,
                "tempo": 120.0
            },
            {
                "start_time": 7.6477272727272725,
                "end_time": 7.845454545454545,
                "pitch": 74,
                "velocity": 64,
                "duration": 0.1977272727272723,
                "tempo": 120.0
            },
            {
                "start_time": 7.847727272727273,
                "end_time": 8.45,
                "pitch": 71,
                "velocity": 64,
                "duration": 0.6022727272727266,
                "tempo": 120.0
            },
            {
                "start_time": 9.861363636363636,
                "end_time": 10.059090909090909,
                "pitch": 62,
                "velocity": 64,
                "duration": 0.1977272727272723,
                "tempo": 120.0
            },
            {
                "start_time": 10.061363636363636,
                "end_time": 10.261363636363637,
                "pitch": 67,
                "velocity": 64,
                "duration": 0.20000000000000107,
                "tempo": 120.0
            },
            {
                "start_time": 10.263636363636364,
                "end_time": 10.463636363636363,
                "pitch": 71,
                "velocity": 64,
                "duration": 0.1999999999999993,
                "tempo": 120.0
            },
            {
                "start_time": 10.46590909090909,
                "end_time": 10.663636363636362,
                "pitch": 74,
                "velocity": 64,
                "duration": 0.1977272727272723,
                "tempo": 120.0
            },
            {
                "start_time": 10.665909090909091,
                "end_time": 10.863636363636363,
                "pitch": 71,
                "velocity": 64,
                "duration": 0.1977272727272723,
                "tempo": 120.0
            },
            {
                "start_time": 10.86590909090909,
                "end_time": 11.06590909090909,
                "pitch": 67,
                "velocity": 64,
                "duration": 0.1999999999999993,
                "tempo": 120.0
            },
            {
                "start_time": 11.068181818181818,
                "end_time": 11.672727272727272,
                "pitch": 69,
                "velocity": 64,
                "duration": 0.6045454545454536,
                "tempo": 120.0
            },
            {
                "start_time": 13.088636363636363,
                "end_time": 13.290909090909091,
                "pitch": 64,
                "velocity": 64,
                "duration": 0.20227272727272805,
                "tempo": 120.0
            },
            {
                "start_time": 13.293181818181818,
                "end_time": 13.493181818181817,
                "pitch": 69,
                "velocity": 64,
                "duration": 0.1999999999999993,
                "tempo": 120.0
            },
            {
                "start_time": 13.495454545454544,
                "end_time": 13.693181818181818,
                "pitch": 72,
                "velocity": 64,
                "duration": 0.19772727272727408,
                "tempo": 120.0
            },
            {
                "start_time": 13.695454545454545,
                "end_time": 13.89090909090909,
                "pitch": 76,
                "velocity": 64,
                "duration": 0.19545454545454533,
                "tempo": 120.0
            },
            {
                "start_time": 13.893181818181818,
                "end_time": 14.086363636363636,
                "pitch": 72,
                "velocity": 64,
                "duration": 0.19318181818181834,
                "tempo": 120.0
            },
            {
                "start_time": 14.088636363636363,
                "end_time": 14.290909090909091,
                "pitch": 74,
                "velocity": 64,
                "duration": 0.20227272727272805,
                "tempo": 120.0
            },
            {
                "start_time": 14.293181818181818,
                "end_time": 14.902272727272727,
                "pitch": 71,
                "velocity": 64,
                "duration": 0.6090909090909093,
                "tempo": 120.0
            },
            {
                "start_time": 16.313636363636363,
                "end_time": 16.513636363636362,
                "pitch": 62,
                "velocity": 64,
                "duration": 0.1999999999999993,
                "tempo": 120.0
            },
            {
                "start_time": 16.51590909090909,
                "end_time": 16.71363636363636,
                "pitch": 67,
                "velocity": 64,
                "duration": 0.19772727272727053,
                "tempo": 120.0
            },
            {
                "start_time": 16.71590909090909,
                "end_time": 16.913636363636364,
                "pitch": 71,
                "velocity": 64,
                "duration": 0.19772727272727408,
                "tempo": 120.0
            },
            {
                "start_time": 16.91590909090909,
                "end_time": 17.113636363636363,
                "pitch": 74,
                "velocity": 64,
                "duration": 0.19772727272727408,
                "tempo": 120.0
            },
            {
                "start_time": 17.118181818181817,
                "end_time": 17.313636363636363,
                "pitch": 71,
                "velocity": 64,
                "duration": 0.19545454545454533,
                "tempo": 120.0
            },
            {
                "start_time": 17.31590909090909,
                "end_time": 17.51590909090909,
                "pitch": 67,
                "velocity": 64,
                "duration": 0.1999999999999993,
                "tempo": 120.0
            },
            {
                "start_time": 17.518181818181816,
                "end_time": 18.118181818181817,
                "pitch": 69,
                "velocity": 64,
                "duration": 0.6000000000000014,
                "tempo": 120.0
            },
            {
                "start_time": 19.527272727272727,
                "end_time": 19.727272727272727,
                "pitch": 64,
                "velocity": 64,
                "duration": 0.1999999999999993,
                "tempo": 120.0
            },
            {
                "start_time": 19.729545454545452,
                "end_time": 19.93181818181818,
                "pitch": 69,
                "velocity": 64,
                "duration": 0.20227272727272805,
                "tempo": 120.0
            },
            {
                "start_time": 19.93409090909091,
                "end_time": 20.136363636363637,
                "pitch": 72,
                "velocity": 64,
                "duration": 0.20227272727272805,
                "tempo": 120.0
            },
            {
                "start_time": 20.14090909090909,
                "end_time": 20.334090909090907,
                "pitch": 76,
                "velocity": 64,
                "duration": 0.19318181818181657,
                "tempo": 120.0
            },
            {
                "start_time": 20.336363636363636,
                "end_time": 20.529545454545453,
                "pitch": 72,
                "velocity": 64,
                "duration": 0.19318181818181657,
                "tempo": 120.0
            },
            {
                "start_time": 20.53181818181818,
                "end_time": 20.73409090909091,
                "pitch": 74,
                "velocity": 64,
                "duration": 0.20227272727272805,
                "tempo": 120.0
            },
            {
                "start_time": 20.736363636363635,
                "end_time": 21.34318181818182,
                "pitch": 71,
                "velocity": 64,
                "duration": 0.6068181818181841,
                "tempo": 120.0
            },
            {
                "start_time": 22.75,
                "end_time": 22.95,
                "pitch": 62,
                "velocity": 64,
                "duration": 0.1999999999999993,
                "tempo": 120.0
            },
            {
                "start_time": 22.952272727272724,
                "end_time": 23.15,
                "pitch": 67,
                "velocity": 64,
                "duration": 0.19772727272727408,
                "tempo": 120.0
            },
            {
                "start_time": 23.152272727272727,
                "end_time": 23.349999999999998,
                "pitch": 71,
                "velocity": 64,
                "duration": 0.19772727272727053,
                "tempo": 120.0
            },
            {
                "start_time": 23.352272727272727,
                "end_time": 23.549999999999997,
                "pitch": 74,
                "velocity": 64,
                "duration": 0.19772727272727053,
                "tempo": 120.0
            },
            {
                "start_time": 23.552272727272726,
                "end_time": 23.75,
                "pitch": 71,
                "velocity": 64,
                "duration": 0.19772727272727408,
                "tempo": 120.0
            },
            {
                "start_time": 23.752272727272725,
                "end_time": 23.95,
                "pitch": 67,
                "velocity": 64,
                "duration": 0.19772727272727408,
                "tempo": 120.0
            },
            {
                "start_time": 23.952272727272724,
                "end_time": 24.554545454545455,
                "pitch": 69,
                "velocity": 64,
                "duration": 0.6022727272727302,
                "tempo": 120.0
            }
        ],
        "French Horn": [
            {
                "start_time": 1.809090909090909,
                "end_time": 2.009090909090909,
                "pitch": 57,
                "velocity": 101,
                "duration": 0.19999999999999973,
                "tempo": 120.0
            },
            {
                "start_time": 2.0113636363636362,
                "end_time": 2.209090909090909,
                "pitch": 64,
                "velocity": 101,
                "duration": 0.19772727272727275,
                "tempo": 120.0
            },
            {
                "start_time": 2.2113636363636364,
                "end_time": 2.409090909090909,
                "pitch": 60,
                "velocity": 101,
                "duration": 0.19772727272727275,
                "tempo": 120.0
            },
            {
                "start_time": 2.411363636363636,
                "end_time": 2.8136363636363635,
                "pitch": 62,
                "velocity": 101,
                "duration": 0.40227272727272734,
                "tempo": 120.0
            },
            {
                "start_time": 2.815909090909091,
                "end_time": 3.0136363636363637,
                "pitch": 59,
                "velocity": 101,
                "duration": 0.19772727272727275,
                "tempo": 120.0
            },
            {
                "start_time": 3.0159090909090907,
                "end_time": 4.418181818181818,
                "pitch": 55,
                "velocity": 101,
                "duration": 1.4022727272727273,
                "tempo": 120.0
            },
            {
                "start_time": 5.034090909090909,
                "end_time": 5.2318181818181815,
                "pitch": 55,
                "velocity": 101,
                "duration": 0.1977272727272723,
                "tempo": 120.0
            },
            {
                "start_time": 5.2340909090909085,
                "end_time": 5.431818181818182,
                "pitch": 62,
                "velocity": 101,
                "duration": 0.1977272727272732,
                "tempo": 120.0
            },
            {
                "start_time": 5.4363636363636365,
                "end_time": 5.634090909090909,
                "pitch": 59,
                "velocity": 101,
                "duration": 0.1977272727272723,
                "tempo": 120.0
            },
            {
                "start_time": 5.636363636363636,
                "end_time": 5.834090909090909,
                "pitch": 60,
                "velocity": 101,
                "duration": 0.1977272727272732,
                "tempo": 120.0
            },
            {
                "start_time": 5.836363636363636,
                "end_time": 6.036363636363636,
                "pitch": 59,
                "velocity": 101,
                "duration": 0.20000000000000018,
                "tempo": 120.0
            },
            {
                "start_time": 6.038636363636363,
                "end_time": 6.236363636363636,
                "pitch": 55,
                "velocity": 101,
                "duration": 0.1977272727272732,
                "tempo": 120.0
            },
            {
                "start_time": 6.238636363636363,
                "end_time": 7.643181818181818,
                "pitch": 57,
                "velocity": 101,
                "duration": 1.4045454545454543,
                "tempo": 120.0
            },
            {
                "start_time": 8.25,
                "end_time": 8.447727272727272,
                "pitch": 57,
                "velocity": 101,
                "duration": 0.1977272727272723,
                "tempo": 120.0
            },
            {
                "start_time": 8.45,
                "end_time": 8.65,
                "pitch": 64,
                "velocity": 101,
                "duration": 0.20000000000000107,
                "tempo": 120.0
            },
            {
                "start_time": 8.652272727272727,
                "end_time": 8.85,
                "pitch": 60,
                "velocity": 101,
                "duration": 0.1977272727272723,
                "tempo": 120.0
            },
            {
                "start_time": 8.852272727272727,
                "end_time": 9.254545454545454,
                "pitch": 62,
                "velocity": 101,
                "duration": 0.40227272727272734,
                "tempo": 120.0
            },
            {
                "start_time": 9.256818181818181,
                "end_time": 9.454545454545453,
                "pitch": 59,
                "velocity": 101,
                "duration": 0.1977272727272723,
                "tempo": 120.0
            },
            {
                "start_time": 9.456818181818182,
                "end_time": 10.863636363636363,
                "pitch": 55,
                "velocity": 101,
                "duration": 1.4068181818181813,
                "tempo": 120.0
            },
            {
                "start_time": 11.470454545454546,
                "end_time": 11.670454545454545,
                "pitch": 55,
                "velocity": 101,
                "duration": 0.1999999999999993,
                "tempo": 120.0
            },
            {
                "start_time": 11.672727272727272,
                "end_time": 11.875,
                "pitch": 62,
                "velocity": 101,
                "duration": 0.20227272727272805,
                "tempo": 120.0
            },
            {
                "start_time": 11.877272727272727,
                "end_time": 12.081818181818182,
                "pitch": 59,
                "velocity": 101,
                "duration": 0.20454545454545503,
                "tempo": 120.0
            },
            {
                "start_time": 12.084090909090909,
                "end_time": 12.277272727272727,
                "pitch": 60,
                "velocity": 101,
                "duration": 0.19318181818181834,
                "tempo": 120.0
            },
            {
                "start_time": 12.279545454545454,
                "end_time": 12.475,
                "pitch": 59,
                "velocity": 101,
                "duration": 0.19545454545454533,
                "tempo": 120.0
            },
            {
                "start_time": 12.477272727272727,
                "end_time": 12.674999999999999,
                "pitch": 57,
                "velocity": 101,
                "duration": 0.1977272727272723,
                "tempo": 120.0
            },
            {
                "start_time": 12.679545454545455,
                "end_time": 14.084090909090909,
                "pitch": 64,
                "velocity": 101,
                "duration": 1.4045454545454543,
                "tempo": 120.0
            },
            {
                "start_time": 14.7,
                "end_time": 14.899999999999999,
                "pitch": 57,
                "velocity": 101,
                "duration": 0.1999999999999993,
                "tempo": 120.0
            },
            {
                "start_time": 14.902272727272727,
                "end_time": 15.1,
                "pitch": 64,
                "velocity": 101,
                "duration": 0.1977272727272723,
                "tempo": 120.0
            },
            {
                "start_time": 15.102272727272727,
                "end_time": 15.302272727272726,
                "pitch": 60,
                "velocity": 101,
                "duration": 0.1999999999999993,
                "tempo": 120.0
            },
            {
                "start_time": 15.304545454545455,
                "end_time": 15.70681818181818,
                "pitch": 62,
                "velocity": 101,
                "duration": 0.40227272727272556,
                "tempo": 120.0
            },
            {
                "start_time": 15.709090909090909,
                "end_time": 15.906818181818181,
                "pitch": 59,
                "velocity": 101,
                "duration": 0.1977272727272723,
                "tempo": 120.0
            },
            {
                "start_time": 15.909090909090908,
                "end_time": 17.313636363636363,
                "pitch": 55,
                "velocity": 101,
                "duration": 1.4045454545454543,
                "tempo": 120.0
            },
            {
                "start_time": 17.918181818181818,
                "end_time": 18.11590909090909,
                "pitch": 55,
                "velocity": 101,
                "duration": 0.19772727272727053,
                "tempo": 120.0
            },
            {
                "start_time": 18.118181818181817,
                "end_time": 18.32272727272727,
                "pitch": 62,
                "velocity": 101,
                "duration": 0.20454545454545325,
                "tempo": 120.0
            },
            {
                "start_time": 18.325,
                "end_time": 18.527272727272727,
                "pitch": 59,
                "velocity": 101,
                "duration": 0.20227272727272805,
                "tempo": 120.0
            },
            {
                "start_time": 18.529545454545453,
                "end_time": 18.724999999999998,
                "pitch": 60,
                "velocity": 101,
                "duration": 0.19545454545454533,
                "tempo": 120.0
            },
            {
                "start_time": 18.727272727272727,
                "end_time": 18.920454545454543,
                "pitch": 59,
                "velocity": 101,
                "duration": 0.19318181818181657,
                "tempo": 120.0
            },
            {
                "start_time": 18.922727272727272,
                "end_time": 19.120454545454546,
                "pitch": 55,
                "velocity": 101,
                "duration": 0.19772727272727408,
                "tempo": 120.0
            },
            {
                "start_time": 19.12272727272727,
                "end_time": 20.527272727272727,
                "pitch": 57,
                "velocity": 101,
                "duration": 1.404545454545456,
                "tempo": 120.0
            },
            {
                "start_time": 21.143181818181816,
                "end_time": 21.34090909090909,
                "pitch": 57,
                "velocity": 101,
                "duration": 0.19772727272727408,
                "tempo": 120.0
            },
            {
                "start_time": 21.34318181818182,
                "end_time": 21.54090909090909,
                "pitch": 64,
                "velocity": 101,
                "duration": 0.19772727272727053,
                "tempo": 120.0
            },
            {
                "start_time": 21.543181818181818,
                "end_time": 21.74090909090909,
                "pitch": 60,
                "velocity": 101,
                "duration": 0.19772727272727053,
                "tempo": 120.0
            },
            {
                "start_time": 21.743181818181817,
                "end_time": 22.143181818181816,
                "pitch": 62,
                "velocity": 101,
                "duration": 0.3999999999999986,
                "tempo": 120.0
            },
            {
                "start_time": 22.145454545454545,
                "end_time": 22.34318181818182,
                "pitch": 59,
                "velocity": 101,
                "duration": 0.19772727272727408,
                "tempo": 120.0
            },
            {
                "start_time": 22.345454545454544,
                "end_time": 23.74772727272727,
                "pitch": 55,
                "velocity": 101,
                "duration": 1.4022727272727273,
                "tempo": 120.0
            },
            {
                "start_time": 24.354545454545452,
                "end_time": 24.552272727272726,
                "pitch": 55,
                "velocity": 101,
                "duration": 0.19772727272727408,
                "tempo": 120.0
            },
            {
                "start_time": 24.554545454545455,
                "end_time": 24.754545454545454,
                "pitch": 62,
                "velocity": 101,
                "duration": 0.1999999999999993,
                "tempo": 120.0
            },
            {
                "start_time": 24.75681818181818,
                "end_time": 24.954545454545453,
                "pitch": 59,
                "velocity": 101,
                "duration": 0.19772727272727408,
                "tempo": 120.0
            },
            {
                "start_time": 24.959090909090907,
                "end_time": 25.15681818181818,
                "pitch": 60,
                "velocity": 101,
                "duration": 0.19772727272727408,
                "tempo": 120.0
            },
            {
                "start_time": 25.159090909090907,
                "end_time": 25.35681818181818,
                "pitch": 59,
                "velocity": 101,
                "duration": 0.19772727272727408,
                "tempo": 120.0
            },
            {
                "start_time": 25.35909090909091,
                "end_time": 25.55681818181818,
                "pitch": 55,
                "velocity": 101,
                "duration": 0.19772727272727053,
                "tempo": 120.0
            },
            {
                "start_time": 25.55909090909091,
                "end_time": 26.972727272727273,
                "pitch": 57,
                "velocity": 80,
                "duration": 1.413636363636364,
                "tempo": 120.0
            },
            {
                "start_time": 26.974999999999998,
                "end_time": 27.363636363636363,
                "pitch": 64,
                "velocity": 80,
                "duration": 0.38863636363636545,
                "tempo": 120.0
            },
            {
                "start_time": 27.368181818181817,
                "end_time": 27.974999999999998,
                "pitch": 60,
                "velocity": 80,
                "duration": 0.6068181818181806,
                "tempo": 120.0
            },
            {
                "start_time": 27.977272727272727,
                "end_time": 28.586363636363636,
                "pitch": 62,
                "velocity": 80,
                "duration": 0.6090909090909093,
                "tempo": 120.0
            },
            {
                "start_time": 28.59090909090909,
                "end_time": 28.979545454545452,
                "pitch": 57,
                "velocity": 80,
                "duration": 0.3886363636363619,
                "tempo": 120.0
            },
            {
                "start_time": 28.98181818181818,
                "end_time": 30.195454545454545,
                "pitch": 62,
                "velocity": 80,
                "duration": 1.2136363636363647,
                "tempo": 120.0
            },
            {
                "start_time": 30.19772727272727,
                "end_time": 30.39090909090909,
                "pitch": 64,
                "velocity": 80,
                "duration": 0.19318181818182012,
                "tempo": 120.0
            },
            {
                "start_time": 30.393181818181816,
                "end_time": 30.58863636363636,
                "pitch": 65,
                "velocity": 80,
                "duration": 0.19545454545454533,
                "tempo": 120.0
            },
            {
                "start_time": 30.59090909090909,
                "end_time": 31.190909090909088,
                "pitch": 64,
                "velocity": 80,
                "duration": 0.5999999999999979,
                "tempo": 120.0
            },
            {
                "start_time": 31.193181818181817,
                "end_time": 31.793181818181818,
                "pitch": 62,
                "velocity": 80,
                "duration": 0.6000000000000014,
                "tempo": 120.0
            },
            {
                "start_time": 31.795454545454543,
                "end_time": 31.993181818181817,
                "pitch": 57,
                "velocity": 80,
                "duration": 0.19772727272727408,
                "tempo": 120.0
            },
            {
                "start_time": 31.995454545454542,
                "end_time": 32.19318181818182,
                "pitch": 59,
                "velocity": 80,
                "duration": 0.19772727272727764,
                "tempo": 120.0
            },
            {
                "start_time": 32.195454545454545,
                "end_time": 33.40681818181818,
                "pitch": 60,
                "velocity": 80,
                "duration": 1.211363636363636,
                "tempo": 120.0
            },
            {
                "start_time": 33.40909090909091,
                "end_time": 33.8,
                "pitch": 64,
                "velocity": 80,
                "duration": 0.39090909090909065,
                "tempo": 120.0
            },
            {
                "start_time": 33.80227272727272,
                "end_time": 34.413636363636364,
                "pitch": 62,
                "velocity": 80,
                "duration": 0.6113636363636417,
                "tempo": 120.0
            },
            {
                "start_time": 34.41590909090909,
                "end_time": 35.01590909090909,
                "pitch": 60,
                "velocity": 80,
                "duration": 0.6000000000000014,
                "tempo": 120.0
            },
            {
                "start_time": 35.018181818181816,
                "end_time": 35.40909090909091,
                "pitch": 57,
                "velocity": 80,
                "duration": 0.39090909090909065,
                "tempo": 120.0
            },
            {
                "start_time": 35.41136363636363,
                "end_time": 36.48863636363636,
                "pitch": 62,
                "velocity": 80,
                "duration": 1.077272727272728,
                "tempo": 120.0
            },
            {
                "start_time": 36.49090909090909,
                "end_time": 36.75681818181818,
                "pitch": 57,
                "velocity": 80,
                "duration": 0.26590909090909065,
                "tempo": 120.0
            },
            {
                "start_time": 36.75909090909091,
                "end_time": 37.02272727272727,
                "pitch": 59,
                "velocity": 80,
                "duration": 0.26363636363636545,
                "tempo": 120.0
            },
            {
                "start_time": 37.027272727272724,
                "end_time": 38.62954545454545,
                "pitch": 60,
                "velocity": 80,
                "duration": 1.6022727272727266,
                "tempo": 120.0
            }
        ]
    }
}