{
    "track_id": "02 Name Entry",
    "mood": "angry",
    "instruments": {
        "Trumpet": [
            {
                "start_time": 1.0204545454545455,
                "end_time": 1.6204545454545454,
                "pitch": 64,
                "velocity": 101,
                "duration": 0.5999999999999999,
                "tempo": 120.0
            },
            {
                "start_time": 1.6204545454545454,
                "end_time": 2.1636363636363636,
                "pitch": 73,
                "velocity": 101,
                "duration": 0.5431818181818182,
                "tempo": 120.0
            },
            {
                "start_time": 2.1636363636363636,
                "end_time": 2.543181818181818,
                "pitch": 71,
                "velocity": 101,
                "duration": 0.3795454545454544,
                "tempo": 120.0
            },
            {
                "start_time": 2.543181818181818,
                "end_time": 2.743181818181818,
                "pitch": 69,
                "velocity": 101,
                "duration": 0.20000000000000018,
                "tempo": 120.0
            },
            {
                "start_time": 2.743181818181818,
                "end_time": 2.9499999999999997,
                "pitch": 67,
                "velocity": 101,
                "duration": 0.20681818181818157,
                "tempo": 120.0
            },
            {
                "start_time": 2.9499999999999997,
                "end_time": 6.265909090909091,
                "pitch": 66,
                "velocity": 101,
                "duration": 3.315909090909091,
                "tempo": 120.0
            },
            {
                "start_time": 6.636363636363636,
                "end_time": 7.236363636363636,
                "pitch": 67,
                "velocity": 101,
                "duration": 0.6000000000000005,
                "tempo": 120.0
            },
            {
                "start_time": 7.236363636363636,
                "end_time": 7.838636363636363,
                "pitch": 64,
                "velocity": 101,
                "duration": 0.6022727272727266,
                "tempo": 120.0
            },
            {
                "start_time": 7.838636363636363,
                "end_time": 8.395454545454545,
                "pitch": 73,
                "velocity": 101,
                "duration": 0.5568181818181817,
                "tempo": 120.0
            },
            {
                "start_time": 8.395454545454545,
                "end_time": 8.781818181818181,
                "pitch": 71,
                "velocity": 101,
                "duration": 0.3863636363636367,
                "tempo": 120.0
            },
            {
                "start_time": 8.781818181818181,
                "end_time": 8.98409090909091,
                "pitch": 71,
                "velocity": 101,
                "duration": 0.20227272727272805,
                "tempo": 120.0
            },
            {
                "start_time": 8.98409090909091,
                "end_time": 9.184090909090909,
                "pitch": 73,
                "velocity": 101,
                "duration": 0.1999999999999993,
                "tempo": 120.0
            },
            {
                "start_time": 9.184090909090909,
                "end_time": 11.71590909090909,
                "pitch": 74,
                "velocity": 101,
                "duration": 2.5318181818181813,
                "tempo": 120.0
            },
            {
                "start_time": 11.71590909090909,
                "end_time": 11.915909090909091,
                "pitch": 71,
                "velocity": 101,
                "duration": 0.20000000000000107,
                "tempo": 120.0
            },
            {
                "start_time": 11.915909090909091,
                "end_time": 12.118181818181817,
                "pitch": 73,
                "velocity": 101,
                "duration": 0.20227272727272627,
                "tempo": 120.0
            },
            {
                "start_time": 12.118181818181817,
                "end_time": 12.284090909090908,
                "pitch": 74,
                "velocity": 101,
                "duration": 0.165909090909091,
                "tempo": 120.0
            },
            {
                "start_time": 12.284090909090908,
                "end_time": 13.26590909090909,
                "pitch": 71,
                "velocity": 101,
                "duration": 0.9818181818181824,
                "tempo": 120.0
            },
            {
                "start_time": 13.26590909090909,
                "end_time": 13.46590909090909,
                "pitch": 71,
                "velocity": 101,
                "duration": 0.1999999999999993,
                "tempo": 120.0
            },
            {
                "start_time": 13.46590909090909,
                "end_time": 13.668181818181818,
                "pitch": 74,
                "velocity": 101,
                "duration": 0.20227272727272805,
                "tempo": 120.0
            },
            {
                "start_time": 13.668181818181818,
                "end_time": 13.868181818181817,
                "pitch": 71,
                "velocity": 101,
                "duration": 0.1999999999999993,
                "tempo": 120.0
            },
            {
                "start_time": 13.868181818181817,
                "end_time": 14.813636363636363,
                "pitch": 73,
                "velocity": 101,
                "duration": 0.9454545454545453,
                "tempo": 120.0
            },
            {
                "start_time": 14.813636363636363,
                "end_time": 15.013636363636364,
                "pitch": 69,
                "velocity": 101,
                "duration": 0.20000000000000107,
                "tempo": 120.0
            },
            {
                "start_time": 15.013636363636364,
                "end_time": 15.21590909090909,
                "pitch": 71,
                "velocity": 101,
                "duration": 0.20227272727272627,
                "tempo": 120.0
            },
            {
                "start_time": 15.21590909090909,
                "end_time": 15.418181818181818,
                "pitch": 73,
                "velocity": 101,
                "duration": 0.20227272727272805,
                "tempo": 120.0
            },
            {
                "start_time": 15.418181818181818,
                "end_time": 16.420454545454543,
                "pitch": 69,
                "velocity": 101,
                "duration": 1.0022727272727252,
                "tempo": 120.0
            },
            {
                "start_time": 16.420454545454543,
                "end_time": 16.581818181818182,
                "pitch": 69,
                "velocity": 101,
                "duration": 0.16136363636363882,
                "tempo": 120.0
            },
            {
                "start_time": 16.581818181818182,
                "end_time": 16.78181818181818,
                "pitch": 73,
                "velocity": 101,
                "duration": 0.1999999999999993,
                "tempo": 120.0
            },
            {
                "start_time": 16.78181818181818,
                "end_time": 16.96818181818182,
                "pitch": 69,
                "velocity": 101,
                "duration": 0.1863636363636374,
                "tempo": 120.0
            },
            {
                "start_time": 16.96818181818182,
                "end_time": 18.706818181818182,
                "pitch": 71,
                "velocity": 101,
                "duration": 1.7386363636363633,
                "tempo": 120.0
            },
            {
                "start_time": 18.706818181818182,
                "end_time": 19.688636363636363,
                "pitch": 67,
                "velocity": 101,
                "duration": 0.9818181818181806,
                "tempo": 120.0
            },
            {
                "start_time": 19.688636363636363,
                "end_time": 20.09090909090909,
                "pitch": 74,
                "velocity": 101,
                "duration": 0.40227272727272734,
                "tempo": 120.0
            },
            {
                "start_time": 20.09090909090909,
                "end_time": 20.863636363636363,
                "pitch": 76,
                "velocity": 101,
                "duration": 0.7727272727272734,
                "tempo": 120.0
            },
            {
                "start_time": 20.863636363636363,
                "end_time": 21.25,
                "pitch": 74,
                "velocity": 101,
                "duration": 0.3863636363636367,
                "tempo": 120.0
            },
            {
                "start_time": 21.25,
                "end_time": 21.43409090909091,
                "pitch": 73,
                "velocity": 101,
                "duration": 0.18409090909090864,
                "tempo": 120.0
            },
            {
                "start_time": 21.43409090909091,
                "end_time": 21.636363636363637,
                "pitch": 71,
                "velocity": 101,
                "duration": 0.20227272727272805,
                "tempo": 120.0
            },
            {
                "start_time": 21.636363636363637,
                "end_time": 22.636363636363637,
                "pitch": 71,
                "velocity": 101,
                "duration": 1.0,
                "tempo": 120.0
            },
            {
                "start_time": 22.636363636363637,
                "end_time": 22.83863636363636,
                "pitch": 71,
                "velocity": 101,
                "duration": 0.2022727272727245,
                "tempo": 120.0
            },
            {
                "start_time": 22.83863636363636,
                "end_time": 23.0,
                "pitch": 69,
                "velocity": 101,
                "duration": 0.16136363636363882,
                "tempo": 120.0
            },
            {
                "start_time": 23.0,
                "end_time": 23.186363636363634,
                "pitch": 71,
                "velocity": 101,
                "duration": 0.18636363636363384,
                "tempo": 120.0
            },
            {
                "start_time": 23.186363636363634,
                "end_time": 26.513636363636362,
                "pitch": 73,
                "velocity": 101,
                "duration": 3.327272727272728,
                "tempo": 120.0
            },
            {
                "start_time": 26.913636363636364,
                "end_time": 27.468181818181815,
                "pitch": 74,
                "velocity": 101,
                "duration": 0.5545454545454511,
                "tempo": 120.0
            },
            {
                "start_time": 27.468181818181815,
                "end_time": 27.854545454545452,
                "pitch": 73,
                "velocity": 101,
                "duration": 0.3863636363636367,
                "tempo": 120.0
            },
            {
                "start_time": 27.854545454545452,
                "end_time": 28.85681818181818,
                "pitch": 71,
                "velocity": 101,
                "duration": 1.0022727272727288,
                "tempo": 120.0
            },
            {
                "start_time": 28.85681818181818,
                "end_time": 29.05909090909091,
                "pitch": 71,
                "velocity": 101,
                "duration": 0.20227272727272805,
                "tempo": 120.0
            },
            {
                "start_time": 29.05909090909091,
                "end_time": 29.229545454545452,
                "pitch": 73,
                "velocity": 101,
                "duration": 0.1704545454545432,
                "tempo": 120.0
            },
            {
                "start_time": 29.229545454545452,
                "end_time": 29.41363636363636,
                "pitch": 74,
                "velocity": 101,
                "duration": 0.18409090909090864,
                "tempo": 120.0
            },
            {
                "start_time": 29.41363636363636,
                "end_time": 29.599999999999998,
                "pitch": 71,
                "velocity": 101,
                "duration": 0.1863636363636374,
                "tempo": 120.0
            },
            {
                "start_time": 30.002272727272725,
                "end_time": 30.604545454545452,
                "pitch": 76,
                "velocity": 101,
                "duration": 0.6022727272727266,
                "tempo": 120.0
            },
            {
                "start_time": 30.604545454545452,
                "end_time": 31.004545454545454,
                "pitch": 74,
                "velocity": 101,
                "duration": 0.40000000000000213,
                "tempo": 120.0
            },
            {
                "start_time": 31.004545454545454,
                "end_time": 31.204545454545453,
                "pitch": 73,
                "velocity": 101,
                "duration": 0.1999999999999993,
                "tempo": 120.0
            },
            {
                "start_time": 31.204545454545453,
                "end_time": 31.36590909090909,
                "pitch": 74,
                "velocity": 101,
                "duration": 0.16136363636363527,
                "tempo": 120.0
            },
            {
                "start_time": 31.36590909090909,
                "end_time": 31.565909090909088,
                "pitch": 73,
                "velocity": 101,
                "duration": 0.1999999999999993,
                "tempo": 120.0
            },
            {
                "start_time": 31.565909090909088,
                "end_time": 31.752272727272725,
                "pitch": 71,
                "velocity": 101,
                "duration": 0.1863636363636374,
                "tempo": 120.0
            },
            {
                "start_time": 31.752272727272725,
                "end_time": 31.936363636363634,
                "pitch": 73,
                "velocity": 101,
                "duration": 0.18409090909090864,
                "tempo": 120.0
            },
            {
                "start_time": 31.936363636363634,
                "end_time": 32.13636363636363,
                "pitch": 71,
                "velocity": 101,
                "duration": 0.1999999999999993,
                "tempo": 120.0
            },
            {
                "start_time": 32.13636363636363,
                "end_time": 32.336363636363636,
                "pitch": 69,
                "velocity": 101,
                "duration": 0.20000000000000284,
                "tempo": 120.0
            },
            {
                "start_time": 33.127272727272725,
                "end_time": 33.68181818181818,
                "pitch": 74,
                "velocity": 101,
                "duration": 0.5545454545454547,
                "tempo": 120.0
            },
            {
                "start_time": 33.68181818181818,
                "end_time": 34.07272727272727,
                "pitch": 73,
                "velocity": 101,
                "duration": 0.39090909090909065,
                "tempo": 120.0
            },
            {
                "start_time": 34.07272727272727,
                "end_time": 34.27272727272727,
                "pitch": 71,
                "velocity": 101,
                "duration": 0.20000000000000284,
                "tempo": 120.0
            },
            {
                "start_time": 34.27272727272727,
                "end_time": 34.67272727272727,
                "pitch": 74,
                "velocity": 101,
                "duration": 0.3999999999999986,
                "tempo": 120.0
            },
            {
                "start_time": 34.67272727272727,
                "end_time": 35.074999999999996,
                "pitch": 74,
                "velocity": 101,
                "duration": 0.4022727272727238,
                "tempo": 120.0
            },
            {
                "start_time": 35.074999999999996,
                "end_time": 35.275,
                "pitch": 74,
                "velocity": 101,
                "duration": 0.20000000000000284,
                "tempo": 120.0
            },
            {
                "start_time": 35.275,
                "end_time": 35.64545454545454,
                "pitch": 74,
                "velocity": 101,
                "duration": 0.3704545454545425,
                "tempo": 120.0
            },
            {
                "start_time": 35.64545454545454,
                "end_time": 35.845454545454544,
                "pitch": 73,
                "velocity": 101,
                "duration": 0.20000000000000284,
                "tempo": 120.0
            },
            {
                "start_time": 35.845454545454544,
                "end_time": 37.418181818181814,
                "pitch": 74,
                "velocity": 101,
                "duration": 1.5727272727272705,
                "tempo": 120.0
            },
            {
                "start_time": 37.418181818181814,
                "end_time": 37.64772727272727,
                "pitch": 78,
                "velocity": 101,
                "duration": 0.22954545454545894,
                "tempo": 120.0
            },
            {
                "start_time": 37.64772727272727,
                "end_time": 37.90909090909091,
                "pitch": 76,
                "velocity": 101,
                "duration": 0.26136363636363313,
                "tempo": 120.0
            },
            {
                "start_time": 37.90909090909091,
                "end_time": 38.15,
                "pitch": 74,
                "velocity": 101,
                "duration": 0.24090909090909207,
                "tempo": 120.0
            },
            {
                "start_time": 38.15,
                "end_time": 38.42045454545455,
                "pitch": 76,
                "velocity": 101,
                "duration": 0.27045454545454817,
                "tempo": 120.0
            },
            {
                "start_time": 38.42045454545455,
                "end_time": 38.68863636363636,
                "pitch": 74,
                "velocity": 101,
                "duration": 0.26818181818181586,
                "tempo": 120.0
            },
            {
                "start_time": 38.68863636363636,
                "end_time": 38.94318181818181,
                "pitch": 73,
                "velocity": 101,
                "duration": 0.2545454545454504,
                "tempo": 120.0
            },
            {
                "start_time": 39.35454545454545,
                "end_time": 39.36363636363636,
                "pitch": 67,
                "velocity": 101,
                "duration": 0.009090909090907928,
                "tempo": 120.0
            }
        ],
        "Vibraphone": [
            {
                "start_time": 0.12045454545454545,
                "end_time": 0.22045454545454543,
                "pitch": 71,
                "velocity": 101,
                "duration": 0.09999999999999998,
                "tempo": 120.0
            },
            {
                "start_time": 0.22045454545454543,
                "end_time": 0.32045454545454544,
                "pitch": 73,
                "velocity": 101,
                "duration": 0.1,
                "tempo": 120.0
            },
            {
                "start_time": 0.32045454545454544,
                "end_time": 0.4204545454545454,
                "pitch": 73,
                "velocity": 101,
                "duration": 0.09999999999999998,
                "tempo": 120.0
            },
            {
                "start_time": 0.4204545454545454,
                "end_time": 0.5204545454545454,
                "pitch": 74,
                "velocity": 101,
                "duration": 0.09999999999999998,
                "tempo": 120.0
            },
            {
                "start_time": 0.5204545454545454,
                "end_time": 0.6204545454545454,
                "pitch": 74,
                "velocity": 101,
                "duration": 0.09999999999999998,
                "tempo": 120.0
            },
            {
                "start_time": 0.6204545454545454,
                "end_time": 0.7204545454545455,
                "pitch": 71,
                "velocity": 101,
                "duration": 0.10000000000000009,
                "tempo": 120.0
            },
            {
                "start_time": 0.7204545454545455,
                "end_time": 0.8204545454545454,
                "pitch": 71,
                "velocity": 101,
                "duration": 0.09999999999999998,
                "tempo": 120.0
            },
            {
                "start_time": 0.8204545454545454,
                "end_time": 0.9204545454545454,
                "pitch": 73,
                "velocity": 101,
                "duration": 0.09999999999999998,
                "tempo": 120.0
            },
            {
                "start_time": 0.9204545454545454,
                "end_time": 1.0204545454545455,
                "pitch": 73,
                "velocity": 101,
                "duration": 0.10000000000000009,
                "tempo": 120.0
            },
            {
                "start_time": 1.0204545454545455,
                "end_time": 1.1204545454545454,
                "pitch": 74,
                "velocity": 101,
                "duration": 0.09999999999999987,
                "tempo": 120.0
            },
            {
                "start_time": 1.1204545454545454,
                "end_time": 1.2204545454545455,
                "pitch": 74,
                "velocity": 101,
                "duration": 0.10000000000000009,
                "tempo": 120.0
            },
            {
                "start_time": 1.2204545454545455,
                "end_time": 1.3204545454545453,
                "pitch": 71,
                "velocity": 101,
                "duration": 0.09999999999999987,
                "tempo": 120.0
            },
            {
                "start_time": 1.3204545454545453,
                "end_time": 1.4204545454545454,
                "pitch": 71,
                "velocity": 101,
                "duration": 0.10000000000000009,
                "tempo": 120.0
            },
            {
                "start_time": 1.4204545454545454,
                "end_time": 1.5204545454545453,
                "pitch": 73,
                "velocity": 101,
                "duration": 0.09999999999999987,
                "tempo": 120.0
            },
            {
                "start_time": 1.5204545454545453,
                "end_time": 1.6204545454545454,
                "pitch": 73,
                "velocity": 101,
                "duration": 0.10000000000000009,
                "tempo": 120.0
            },
            {
                "start_time": 1.6204545454545454,
                "end_time": 1.7204545454545455,
                "pitch": 74,
                "velocity": 101,
                "duration": 0.10000000000000009,
                "tempo": 120.0
            },
            {
                "start_time": 1.7204545454545455,
                "end_time": 1.7818181818181817,
                "pitch": 74,
                "velocity": 101,
                "duration": 0.06136363636363629,
                "tempo": 120.0
            },
            {
                "start_time": 1.7818181818181817,
                "end_time": 1.8818181818181818,
                "pitch": 71,
                "velocity": 101,
                "duration": 0.10000000000000009,
                "tempo": 120.0
            },
            {
                "start_time": 1.8818181818181818,
                "end_time": 1.9818181818181817,
                "pitch": 71,
                "velocity": 101,
                "duration": 0.09999999999999987,
                "tempo": 120.0
            },
            {
                "start_time": 1.9818181818181817,
                "end_time": 2.0727272727272728,
                "pitch": 73,
                "velocity": 101,
                "duration": 0.09090909090909105,
                "tempo": 120.0
            },
            {
                "start_time": 2.0727272727272728,
                "end_time": 2.1636363636363636,
                "pitch": 73,
                "velocity": 101,
                "duration": 0.09090909090909083,
                "tempo": 120.0
            },
            {
                "start_time": 2.1636363636363636,
                "end_time": 2.2545454545454544,
                "pitch": 74,
                "velocity": 101,
                "duration": 0.09090909090909083,
                "tempo": 120.0
            },
            {
                "start_time": 2.2545454545454544,
                "end_time": 2.3431818181818183,
                "pitch": 74,
                "velocity": 101,
                "duration": 0.08863636363636385,
                "tempo": 120.0
            },
            {
                "start_time": 2.3431818181818183,
                "end_time": 2.443181818181818,
                "pitch": 71,
                "velocity": 101,
                "duration": 0.09999999999999964,
                "tempo": 120.0
            },
            {
                "start_time": 2.443181818181818,
                "end_time": 2.543181818181818,
                "pitch": 71,
                "velocity": 101,
                "duration": 0.10000000000000009,
                "tempo": 120.0
            },
            {
                "start_time": 2.543181818181818,
                "end_time": 2.643181818181818,
                "pitch": 73,
                "velocity": 101,
                "duration": 0.10000000000000009,
                "tempo": 120.0
            },
            {
                "start_time": 2.643181818181818,
                "end_time": 2.743181818181818,
                "pitch": 73,
                "velocity": 101,
                "duration": 0.10000000000000009,
                "tempo": 120.0
            },
            {
                "start_time": 2.743181818181818,
                "end_time": 2.8454545454545452,
                "pitch": 74,
                "velocity": 101,
                "duration": 0.10227272727272707,
                "tempo": 120.0
            },
            {
                "start_time": 2.8454545454545452,
                "end_time": 2.9499999999999997,
                "pitch": 74,
                "velocity": 101,
                "duration": 0.1045454545454545,
                "tempo": 120.0
            },
            {
                "start_time": 2.9499999999999997,
                "end_time": 3.0522727272727272,
                "pitch": 71,
                "velocity": 101,
                "duration": 0.10227272727272751,
                "tempo": 120.0
            },
            {
                "start_time": 3.0522727272727272,
                "end_time": 3.1545454545454543,
                "pitch": 71,
                "velocity": 101,
                "duration": 0.10227272727272707,
                "tempo": 120.0
            },
            {
                "start_time": 3.1545454545454543,
                "end_time": 3.252272727272727,
                "pitch": 73,
                "velocity": 101,
                "duration": 0.09772727272727266,
                "tempo": 120.0
            },
            {
                "start_time": 3.252272727272727,
                "end_time": 3.3499999999999996,
                "pitch": 73,
                "velocity": 101,
                "duration": 0.09772727272727266,
                "tempo": 120.0
            },
            {
                "start_time": 3.3499999999999996,
                "end_time": 3.4477272727272728,
                "pitch": 74,
                "velocity": 101,
                "duration": 0.0977272727272731,
                "tempo": 120.0
            },
            {
                "start_time": 3.4477272727272728,
                "end_time": 3.5477272727272724,
                "pitch": 74,
                "velocity": 101,
                "duration": 0.09999999999999964,
                "tempo": 120.0
            },
            {
                "start_time": 3.5477272727272724,
                "end_time": 3.6477272727272725,
                "pitch": 76,
                "velocity": 101,
                "duration": 0.10000000000000009,
                "tempo": 120.0
            },
            {
                "start_time": 3.6477272727272725,
                "end_time": 3.7477272727272726,
                "pitch": 76,
                "velocity": 101,
                "duration": 0.10000000000000009,
                "tempo": 120.0
            },
            {
                "start_time": 3.7477272727272726,
                "end_time": 3.8477272727272727,
                "pitch": 73,
                "velocity": 101,
                "duration": 0.10000000000000009,
                "tempo": 120.0
            },
            {
                "start_time": 3.8477272727272727,
                "end_time": 3.9159090909090906,
                "pitch": 73,
                "velocity": 101,
                "duration": 0.0681818181818179,
                "tempo": 120.0
            },
            {
                "start_time": 3.9159090909090906,
                "end_time": 4.009090909090909,
                "pitch": 74,
                "velocity": 101,
                "duration": 0.09318181818181825,
                "tempo": 120.0
            },
            {
                "start_time": 4.009090909090909,
                "end_time": 4.1022727272727275,
                "pitch": 74,
                "velocity": 101,
                "duration": 0.0931818181818187,
                "tempo": 120.0
            },
            {
                "start_time": 4.1022727272727275,
                "end_time": 4.195454545454545,
                "pitch": 76,
                "velocity": 101,
                "duration": 0.09318181818181781,
                "tempo": 120.0
            },
            {
                "start_time": 4.195454545454545,
                "end_time": 4.286363636363636,
                "pitch": 76,
                "velocity": 101,
                "duration": 0.09090909090909083,
                "tempo": 120.0
            },
            {
                "start_time": 4.286363636363636,
                "end_time": 4.386363636363636,
                "pitch": 73,
                "velocity": 101,
                "duration": 0.09999999999999964,
                "tempo": 120.0
            },
            {
                "start_time": 4.386363636363636,
                "end_time": 4.486363636363636,
                "pitch": 73,
                "velocity": 101,
                "duration": 0.10000000000000053,
                "tempo": 120.0
            },
            {
                "start_time": 4.486363636363636,
                "end_time": 4.586363636363636,
                "pitch": 74,
                "velocity": 101,
                "duration": 0.09999999999999964,
                "tempo": 120.0
            },
            {
                "start_time": 4.586363636363636,
                "end_time": 4.6863636363636365,
                "pitch": 74,
                "velocity": 101,
                "duration": 0.10000000000000053,
                "tempo": 120.0
            },
            {
                "start_time": 4.6863636363636365,
                "end_time": 4.788636363636363,
                "pitch": 76,
                "velocity": 101,
                "duration": 0.10227272727272663,
                "tempo": 120.0
            },
            {
                "start_time": 4.788636363636363,
                "end_time": 4.888636363636364,
                "pitch": 76,
                "velocity": 101,
                "duration": 0.10000000000000053,
                "tempo": 120.0
            },
            {
                "start_time": 4.888636363636364,
                "end_time": 4.988636363636363,
                "pitch": 73,
                "velocity": 101,
                "duration": 0.09999999999999964,
                "tempo": 120.0
            },
            {
                "start_time": 4.988636363636363,
                "end_time": 5.088636363636363,
                "pitch": 73,
                "velocity": 101,
                "duration": 0.09999999999999964,
                "tempo": 120.0
            },
            {
                "start_time": 5.088636363636363,
                "end_time": 5.1909090909090905,
                "pitch": 74,
                "velocity": 101,
                "duration": 0.10227272727272751,
                "tempo": 120.0
            },
            {
                "start_time": 5.1909090909090905,
                "end_time": 5.290909090909091,
                "pitch": 74,
                "velocity": 101,
                "duration": 0.10000000000000053,
                "tempo": 120.0
            },
            {
                "start_time": 5.290909090909091,
                "end_time": 5.390909090909091,
                "pitch": 76,
                "velocity": 101,
                "duration": 0.09999999999999964,
                "tempo": 120.0
            },
            {
                "start_time": 5.390909090909091,
                "end_time": 5.493181818181818,
                "pitch": 76,
                "velocity": 101,
                "duration": 0.10227272727272751,
                "tempo": 120.0
            },
            {
                "start_time": 5.493181818181818,
                "end_time": 5.593181818181818,
                "pitch": 78,
                "velocity": 101,
                "duration": 0.09999999999999964,
                "tempo": 120.0
            },
            {
                "start_time": 5.593181818181818,
                "end_time": 5.693181818181818,
                "pitch": 78,
                "velocity": 101,
                "duration": 0.10000000000000053,
                "tempo": 120.0
            },
            {
                "start_time": 5.693181818181818,
                "end_time": 5.793181818181818,
                "pitch": 76,
                "velocity": 101,
                "duration": 0.09999999999999964,
                "tempo": 120.0
            },
            {
                "start_time": 5.793181818181818,
                "end_time": 5.893181818181818,
                "pitch": 76,
                "velocity": 101,
                "duration": 0.09999999999999964,
                "tempo": 120.0
            },
            {
                "start_time": 5.893181818181818,
                "end_time": 5.963636363636363,
                "pitch": 74,
                "velocity": 101,
                "duration": 0.07045454545454533,
                "tempo": 120.0
            },
            {
                "start_time": 5.963636363636363,
                "end_time": 6.0636363636363635,
                "pitch": 74,
                "velocity": 101,
                "duration": 0.10000000000000053,
                "tempo": 120.0
            },
            {
                "start_time": 6.0636363636363635,
                "end_time": 6.163636363636363,
                "pitch": 73,
                "velocity": 101,
                "duration": 0.09999999999999964,
                "tempo": 120.0
            },
            {
                "start_time": 6.163636363636363,
                "end_time": 6.265909090909091,
                "pitch": 73,
                "velocity": 101,
                "duration": 0.10227272727272751,
                "tempo": 120.0
            },
            {
                "start_time": 6.265909090909091,
                "end_time": 6.3568181818181815,
                "pitch": 71,
                "velocity": 101,
                "duration": 0.09090909090909083,
                "tempo": 120.0
            },
            {
                "start_time": 6.3568181818181815,
                "end_time": 6.449999999999999,
                "pitch": 71,
                "velocity": 101,
                "duration": 0.09318181818181781,
                "tempo": 120.0
            },
            {
                "start_time": 6.449999999999999,
                "end_time": 6.543181818181818,
                "pitch": 73,
                "velocity": 101,
                "duration": 0.0931818181818187,
                "tempo": 120.0
            },
            {
                "start_time": 6.543181818181818,
                "end_time": 6.636363636363636,
                "pitch": 73,
                "velocity": 101,
                "duration": 0.09318181818181781,
                "tempo": 120.0
            },
            {
                "start_time": 6.636363636363636,
                "end_time": 6.736363636363636,
                "pitch": 74,
                "velocity": 101,
                "duration": 0.10000000000000053,
                "tempo": 120.0
            },
            {
                "start_time": 6.736363636363636,
                "end_time": 6.836363636363636,
                "pitch": 74,
                "velocity": 101,
                "duration": 0.09999999999999964,
                "tempo": 120.0
            },
            {
                "start_time": 6.836363636363636,
                "end_time": 6.936363636363636,
                "pitch": 71,
                "velocity": 101,
                "duration": 0.09999999999999964,
                "tempo": 120.0
            },
            {
                "start_time": 6.936363636363636,
                "end_time": 7.036363636363636,
                "pitch": 71,
                "velocity": 101,
                "duration": 0.10000000000000053,
                "tempo": 120.0
            },
            {
                "start_time": 7.036363636363636,
                "end_time": 7.136363636363636,
                "pitch": 73,
                "velocity": 101,
                "duration": 0.09999999999999964,
                "tempo": 120.0
            },
            {
                "start_time": 7.136363636363636,
                "end_time": 7.236363636363636,
                "pitch": 73,
                "velocity": 101,
                "duration": 0.10000000000000053,
                "tempo": 120.0
            },
            {
                "start_time": 7.236363636363636,
                "end_time": 7.336363636363636,
                "pitch": 74,
                "velocity": 101,
                "duration": 0.09999999999999964,
                "tempo": 120.0
            },
            {
                "start_time": 7.336363636363636,
                "end_time": 7.4386363636363635,
                "pitch": 74,
                "velocity": 101,
                "duration": 0.10227272727272751,
                "tempo": 120.0
            },
            {
                "start_time": 7.4386363636363635,
                "end_time": 7.538636363636363,
                "pitch": 71,
                "velocity": 101,
                "duration": 0.09999999999999964,
                "tempo": 120.0
            },
            {
                "start_time": 7.538636363636363,
                "end_time": 7.638636363636364,
                "pitch": 71,
                "velocity": 101,
                "duration": 0.10000000000000053,
                "tempo": 120.0
            },
            {
                "start_time": 7.638636363636364,
                "end_time": 7.738636363636363,
                "pitch": 73,
                "velocity": 101,
                "duration": 0.09999999999999964,
                "tempo": 120.0
            },
            {
                "start_time": 7.738636363636363,
                "end_time": 7.838636363636363,
                "pitch": 73,
                "velocity": 101,
                "duration": 0.09999999999999964,
                "tempo": 120.0
            },
            {
                "start_time": 7.838636363636363,
                "end_time": 7.9386363636363635,
                "pitch": 74,
                "velocity": 101,
                "duration": 0.10000000000000053,
                "tempo": 120.0
            },
            {
                "start_time": 7.9386363636363635,
                "end_time": 8.038636363636364,
                "pitch": 74,
                "velocity": 101,
                "duration": 0.10000000000000053,
                "tempo": 120.0
            },
            {
                "start_time": 8.038636363636364,
                "end_time": 8.1,
                "pitch": 71,
                "velocity": 101,
                "duration": 0.06136363636363562,
                "tempo": 120.0
            },
            {
                "start_time": 8.1,
                "end_time": 8.2,
                "pitch": 71,
                "velocity": 101,
                "duration": 0.09999999999999964,
                "tempo": 120.0
            },
            {
                "start_time": 8.2,
                "end_time": 8.293181818181818,
                "pitch": 73,
                "velocity": 101,
                "duration": 0.0931818181818187,
                "tempo": 120.0
            },
            {
                "start_time": 8.293181818181818,
                "end_time": 8.386363636363637,
                "pitch": 73,
                "velocity": 101,
                "duration": 0.0931818181818187,
                "tempo": 120.0
            },
            {
                "start_time": 8.386363636363637,
                "end_time": 8.479545454545454,
                "pitch": 74,
                "velocity": 101,
                "duration": 0.09318181818181692,
                "tempo": 120.0
            },
            {
                "start_time": 8.479545454545454,
                "end_time": 8.570454545454545,
                "pitch": 74,
                "velocity": 101,
                "duration": 0.09090909090909172,
                "tempo": 120.0
            },
            {
                "start_time": 8.570454545454545,
                "end_time": 8.670454545454545,
                "pitch": 71,
                "velocity": 101,
                "duration": 0.09999999999999964,
                "tempo": 120.0
            },
            {
                "start_time": 8.670454545454545,
                "end_time": 8.772727272727272,
                "pitch": 71,
                "velocity": 101,
                "duration": 0.10227272727272663,
                "tempo": 120.0
            },
            {
                "start_time": 8.772727272727272,
                "end_time": 8.872727272727273,
                "pitch": 73,
                "velocity": 101,
                "duration": 0.10000000000000142,
                "tempo": 120.0
            },
            {
                "start_time": 8.872727272727273,
                "end_time": 8.972727272727273,
                "pitch": 73,
                "velocity": 101,
                "duration": 0.09999999999999964,
                "tempo": 120.0
            },
            {
                "start_time": 8.972727272727273,
                "end_time": 9.075,
                "pitch": 74,
                "velocity": 101,
                "duration": 0.10227272727272663,
                "tempo": 120.0
            },
            {
                "start_time": 9.075,
                "end_time": 9.174999999999999,
                "pitch": 74,
                "velocity": 101,
                "duration": 0.09999999999999964,
                "tempo": 120.0
            },
            {
                "start_time": 9.174999999999999,
                "end_time": 9.275,
                "pitch": 71,
                "velocity": 101,
                "duration": 0.10000000000000142,
                "tempo": 120.0
            },
            {
                "start_time": 9.275,
                "end_time": 9.377272727272727,
                "pitch": 71,
                "velocity": 101,
                "duration": 0.10227272727272663,
                "tempo": 120.0
            },
            {
                "start_time": 9.377272727272727,
                "end_time": 9.477272727272727,
                "pitch": 73,
                "velocity": 101,
                "duration": 0.09999999999999964,
                "tempo": 120.0
            },
            {
                "start_time": 9.477272727272727,
                "end_time": 9.577272727272726,
                "pitch": 73,
                "velocity": 101,
                "duration": 0.09999999999999964,
                "tempo": 120.0
            },
            {
                "start_time": 9.577272727272726,
                "end_time": 9.677272727272726,
                "pitch": 74,
                "velocity": 101,
                "duration": 0.09999999999999964,
                "tempo": 120.0
            },
            {
                "start_time": 9.677272727272726,
                "end_time": 9.779545454545454,
                "pitch": 74,
                "velocity": 101,
                "duration": 0.1022727272727284,
                "tempo": 120.0
            },
            {
                "start_time": 9.779545454545454,
                "end_time": 9.879545454545454,
                "pitch": 76,
                "velocity": 101,
                "duration": 0.09999999999999964,
                "tempo": 120.0
            },
            {
                "start_time": 9.879545454545454,
                "end_time": 9.979545454545454,
                "pitch": 76,
                "velocity": 101,
                "duration": 0.09999999999999964,
                "tempo": 120.0
            },
            {
                "start_time": 9.979545454545454,
                "end_time": 10.081818181818182,
                "pitch": 73,
                "velocity": 101,
                "duration": 0.1022727272727284,
                "tempo": 120.0
            },
            {
                "start_time": 10.081818181818182,
                "end_time": 10.181818181818182,
                "pitch": 73,
                "velocity": 101,
                "duration": 0.09999999999999964,
                "tempo": 120.0
            },
            {
                "start_time": 10.181818181818182,
                "end_time": 10.252272727272727,
                "pitch": 74,
                "velocity": 101,
                "duration": 0.07045454545454533,
                "tempo": 120.0
            },
            {
                "start_time": 10.252272727272727,
                "end_time": 10.352272727272727,
                "pitch": 74,
                "velocity": 101,
                "duration": 0.09999999999999964,
                "tempo": 120.0
            },
            {
                "start_time": 10.352272727272727,
                "end_time": 10.452272727272726,
                "pitch": 76,
                "velocity": 101,
                "duration": 0.09999999999999964,
                "tempo": 120.0
            },
            {
                "start_time": 10.452272727272726,
                "end_time": 10.552272727272726,
                "pitch": 76,
                "velocity": 101,
                "duration": 0.09999999999999964,
                "tempo": 120.0
            },
            {
                "start_time": 10.552272727272726,
                "end_time": 10.645454545454545,
                "pitch": 73,
                "velocity": 101,
                "duration": 0.0931818181818187,
                "tempo": 120.0
            },
            {
                "start_time": 10.645454545454545,
                "end_time": 10.738636363636363,
                "pitch": 73,
                "velocity": 101,
                "duration": 0.0931818181818187,
                "tempo": 120.0
            },
            {
                "start_time": 10.738636363636363,
                "end_time": 10.829545454545453,
                "pitch": 74,
                "velocity": 101,
                "duration": 0.09090909090908994,
                "tempo": 120.0
            },
            {
                "start_time": 10.829545454545453,
                "end_time": 10.922727272727272,
                "pitch": 74,
                "velocity": 101,
                "duration": 0.0931818181818187,
                "tempo": 120.0
            },
            {
                "start_time": 10.922727272727272,
                "end_time": 11.020454545454545,
                "pitch": 76,
                "velocity": 101,
                "duration": 0.09772727272727266,
                "tempo": 120.0
            },
            {
                "start_time": 11.020454545454545,
                "end_time": 11.118181818181817,
                "pitch": 76,
                "velocity": 101,
                "duration": 0.09772727272727266,
                "tempo": 120.0
            },
            {
                "start_time": 11.118181818181817,
                "end_time": 11.21590909090909,
                "pitch": 73,
                "velocity": 101,
                "duration": 0.09772727272727266,
                "tempo": 120.0
            },
            {
                "start_time": 11.21590909090909,
                "end_time": 11.31590909090909,
                "pitch": 73,
                "velocity": 101,
                "duration": 0.09999999999999964,
                "tempo": 120.0
            },
            {
                "start_time": 11.31590909090909,
                "end_time": 11.415909090909091,
                "pitch": 74,
                "velocity": 101,
                "duration": 0.10000000000000142,
                "tempo": 120.0
            },
            {
                "start_time": 11.415909090909091,
                "end_time": 11.51590909090909,
                "pitch": 74,
                "velocity": 101,
                "duration": 0.09999999999999964,
                "tempo": 120.0
            },
            {
                "start_time": 11.51590909090909,
                "end_time": 11.61590909090909,
                "pitch": 76,
                "velocity": 101,
                "duration": 0.09999999999999964,
                "tempo": 120.0
            },
            {
                "start_time": 11.61590909090909,
                "end_time": 11.71590909090909,
                "pitch": 76,
                "velocity": 101,
                "duration": 0.09999999999999964,
                "tempo": 120.0
            },
            {
                "start_time": 11.71590909090909,
                "end_time": 11.81590909090909,
                "pitch": 74,
                "velocity": 101,
                "duration": 0.09999999999999964,
                "tempo": 120.0
            },
            {
                "start_time": 11.81590909090909,
                "end_time": 11.915909090909091,
                "pitch": 74,
                "velocity": 101,
                "duration": 0.10000000000000142,
                "tempo": 120.0
            },
            {
                "start_time": 11.915909090909091,
                "end_time": 12.01590909090909,
                "pitch": 73,
                "velocity": 101,
                "duration": 0.09999999999999964,
                "tempo": 120.0
            },
            {
                "start_time": 12.01590909090909,
                "end_time": 12.118181818181817,
                "pitch": 73,
                "velocity": 101,
                "duration": 0.10227272727272663,
                "tempo": 120.0
            },
            {
                "start_time": 12.118181818181817,
                "end_time": 12.21590909090909,
                "pitch": 71,
                "velocity": 101,
                "duration": 0.09772727272727266,
                "tempo": 120.0
            },
            {
                "start_time": 12.21590909090909,
                "end_time": 12.284090909090908,
                "pitch": 71,
                "velocity": 101,
                "duration": 0.06818181818181834,
                "tempo": 120.0
            },
            {
                "start_time": 12.284090909090908,
                "end_time": 12.381818181818181,
                "pitch": 69,
                "velocity": 101,
                "duration": 0.09772727272727266,
                "tempo": 120.0
            },
            {
                "start_time": 12.381818181818181,
                "end_time": 12.479545454545454,
                "pitch": 69,
                "velocity": 101,
                "duration": 0.09772727272727266,
                "tempo": 120.0
            },
            {
                "start_time": 12.479545454545454,
                "end_time": 12.670454545454545,
                "pitch": 71,
                "velocity": 101,
                "duration": 0.19090909090909136,
                "tempo": 120.0
            },
            {
                "start_time": 12.670454545454545,
                "end_time": 12.861363636363636,
                "pitch": 71,
                "velocity": 101,
                "duration": 0.19090909090909136,
                "tempo": 120.0
            },
            {
                "start_time": 12.861363636363636,
                "end_time": 13.063636363636363,
                "pitch": 78,
                "velocity": 101,
                "duration": 0.20227272727272627,
                "tempo": 120.0
            },
            {
                "start_time": 13.063636363636363,
                "end_time": 13.26590909090909,
                "pitch": 71,
                "velocity": 101,
                "duration": 0.20227272727272805,
                "tempo": 120.0
            },
            {
                "start_time": 13.26590909090909,
                "end_time": 13.46590909090909,
                "pitch": 71,
                "velocity": 101,
                "duration": 0.1999999999999993,
                "tempo": 120.0
            },
            {
                "start_time": 13.46590909090909,
                "end_time": 13.668181818181818,
                "pitch": 78,
                "velocity": 101,
                "duration": 0.20227272727272805,
                "tempo": 120.0
            },
            {
                "start_time": 13.668181818181818,
                "end_time": 13.868181818181817,
                "pitch": 71,
                "velocity": 101,
                "duration": 0.1999999999999993,
                "tempo": 120.0
            },
            {
                "start_time": 13.868181818181817,
                "end_time": 14.070454545454545,
                "pitch": 71,
                "velocity": 101,
                "duration": 0.20227272727272805,
                "tempo": 120.0
            },
            {
                "start_time": 14.070454545454545,
                "end_time": 14.270454545454545,
                "pitch": 69,
                "velocity": 101,
                "duration": 0.1999999999999993,
                "tempo": 120.0
            },
            {
                "start_time": 14.270454545454545,
                "end_time": 14.431818181818182,
                "pitch": 69,
                "velocity": 101,
                "duration": 0.16136363636363704,
                "tempo": 120.0
            },
            {
                "start_time": 14.431818181818182,
                "end_time": 14.443181818181818,
                "pitch": 78,
                "velocity": 101,
                "duration": 0.011363636363636687,
                "tempo": 120.0
            },
            {
                "start_time": 14.443181818181818,
                "end_time": 14.627272727272727,
                "pitch": 76,
                "velocity": 101,
                "duration": 0.18409090909090864,
                "tempo": 120.0
            },
            {
                "start_time": 14.627272727272727,
                "end_time": 14.813636363636363,
                "pitch": 69,
                "velocity": 101,
                "duration": 0.18636363636363562,
                "tempo": 120.0
            },
            {
                "start_time": 14.813636363636363,
                "end_time": 15.013636363636364,
                "pitch": 69,
                "velocity": 101,
                "duration": 0.20000000000000107,
                "tempo": 120.0
            },
            {
                "start_time": 15.013636363636364,
                "end_time": 15.21590909090909,
                "pitch": 76,
                "velocity": 101,
                "duration": 0.20227272727272627,
                "tempo": 120.0
            },
            {
                "start_time": 15.21590909090909,
                "end_time": 15.418181818181818,
                "pitch": 69,
                "velocity": 101,
                "duration": 0.20227272727272805,
                "tempo": 120.0
            },
            {
                "start_time": 15.418181818181818,
                "end_time": 15.618181818181817,
                "pitch": 69,
                "velocity": 101,
                "duration": 0.1999999999999993,
                "tempo": 120.0
            },
            {
                "start_time": 15.618181818181817,
                "end_time": 15.818181818181817,
                "pitch": 69,
                "velocity": 101,
                "duration": 0.1999999999999993,
                "tempo": 120.0
            },
            {
                "start_time": 15.818181818181817,
                "end_time": 16.018181818181816,
                "pitch": 69,
                "velocity": 101,
                "duration": 0.1999999999999993,
                "tempo": 120.0
            },
            {
                "start_time": 16.018181818181816,
                "end_time": 16.220454545454544,
                "pitch": 76,
                "velocity": 101,
                "duration": 0.20227272727272805,
                "tempo": 120.0
            },
            {
                "start_time": 16.220454545454544,
                "end_time": 16.420454545454543,
                "pitch": 69,
                "velocity": 101,
                "duration": 0.1999999999999993,
                "tempo": 120.0
            },
            {
                "start_time": 16.420454545454543,
                "end_time": 16.581818181818182,
                "pitch": 69,
                "velocity": 101,
                "duration": 0.16136363636363882,
                "tempo": 120.0
            },
            {
                "start_time": 16.581818181818182,
                "end_time": 16.78181818181818,
                "pitch": 76,
                "velocity": 101,
                "duration": 0.1999999999999993,
                "tempo": 120.0
            },
            {
                "start_time": 16.78181818181818,
                "end_time": 16.96818181818182,
                "pitch": 69,
                "velocity": 101,
                "duration": 0.1863636363636374,
                "tempo": 120.0
            },
            {
                "start_time": 16.96818181818182,
                "end_time": 17.152272727272727,
                "pitch": 69,
                "velocity": 101,
                "duration": 0.18409090909090864,
                "tempo": 120.0
            },
            {
                "start_time": 17.152272727272727,
                "end_time": 17.347727272727273,
                "pitch": 71,
                "velocity": 101,
                "duration": 0.19545454545454533,
                "tempo": 120.0
            },
            {
                "start_time": 17.347727272727273,
                "end_time": 17.545454545454543,
                "pitch": 71,
                "velocity": 101,
                "duration": 0.19772727272727053,
                "tempo": 120.0
            },
            {
                "start_time": 17.545454545454543,
                "end_time": 17.745454545454546,
                "pitch": 78,
                "velocity": 101,
                "duration": 0.20000000000000284,
                "tempo": 120.0
            },
            {
                "start_time": 17.745454545454546,
                "end_time": 17.945454545454545,
                "pitch": 71,
                "velocity": 101,
                "duration": 0.1999999999999993,
                "tempo": 120.0
            },
            {
                "start_time": 17.945454545454545,
                "end_time": 18.145454545454545,
                "pitch": 71,
                "velocity": 101,
                "duration": 0.1999999999999993,
                "tempo": 120.0
            },
            {
                "start_time": 18.145454545454545,
                "end_time": 18.34318181818182,
                "pitch": 78,
                "velocity": 101,
                "duration": 0.19772727272727408,
                "tempo": 120.0
            },
            {
                "start_time": 18.34318181818182,
                "end_time": 18.54090909090909,
                "pitch": 71,
                "velocity": 101,
                "duration": 0.19772727272727053,
                "tempo": 120.0
            },
            {
                "start_time": 18.54090909090909,
                "end_time": 18.706818181818182,
                "pitch": 71,
                "velocity": 101,
                "duration": 0.16590909090909278,
                "tempo": 120.0
            },
            {
                "start_time": 18.706818181818182,
                "end_time": 18.897727272727273,
                "pitch": 71,
                "velocity": 101,
                "duration": 0.19090909090909136,
                "tempo": 120.0
            },
            {
                "start_time": 18.897727272727273,
                "end_time": 19.08863636363636,
                "pitch": 71,
                "velocity": 101,
                "duration": 0.1909090909090878,
                "tempo": 120.0
            },
            {
                "start_time": 19.08863636363636,
                "end_time": 19.288636363636364,
                "pitch": 73,
                "velocity": 101,
                "duration": 0.20000000000000284,
                "tempo": 120.0
            },
            {
                "start_time": 19.288636363636364,
                "end_time": 19.488636363636363,
                "pitch": 71,
                "velocity": 101,
                "duration": 0.1999999999999993,
                "tempo": 120.0
            },
            {
                "start_time": 19.488636363636363,
                "end_time": 19.688636363636363,
                "pitch": 74,
                "velocity": 101,
                "duration": 0.1999999999999993,
                "tempo": 120.0
            },
            {
                "start_time": 19.688636363636363,
                "end_time": 19.888636363636362,
                "pitch": 71,
                "velocity": 101,
                "duration": 0.1999999999999993,
                "tempo": 120.0
            },
            {
                "start_time": 19.888636363636362,
                "end_time": 20.09090909090909,
                "pitch": 76,
                "velocity": 101,
                "duration": 0.20227272727272805,
                "tempo": 120.0
            },
            {
                "start_time": 20.09090909090909,
                "end_time": 20.29090909090909,
                "pitch": 71,
                "velocity": 101,
                "duration": 0.1999999999999993,
                "tempo": 120.0
            },
            {
                "start_time": 20.29090909090909,
                "end_time": 20.49090909090909,
                "pitch": 71,
                "velocity": 101,
                "duration": 0.1999999999999993,
                "tempo": 120.0
            },
            {
                "start_time": 20.49090909090909,
                "end_time": 20.69090909090909,
                "pitch": 71,
                "velocity": 101,
                "duration": 0.20000000000000284,
                "tempo": 120.0
            },
            {
                "start_time": 20.69090909090909,
                "end_time": 20.863636363636363,
                "pitch": 73,
                "velocity": 101,
                "duration": 0.17272727272727195,
                "tempo": 120.0
            },
            {
                "start_time": 20.863636363636363,
                "end_time": 21.063636363636363,
                "pitch": 71,
                "velocity": 101,
                "duration": 0.1999999999999993,
                "tempo": 120.0
            },
            {
                "start_time": 21.063636363636363,
                "end_time": 21.25,
                "pitch": 74,
                "velocity": 101,
                "duration": 0.1863636363636374,
                "tempo": 120.0
            },
            {
                "start_time": 21.25,
                "end_time": 21.43409090909091,
                "pitch": 71,
                "velocity": 101,
                "duration": 0.18409090909090864,
                "tempo": 120.0
            },
            {
                "start_time": 21.43409090909091,
                "end_time": 21.636363636363637,
                "pitch": 79,
                "velocity": 101,
                "duration": 0.20227272727272805,
                "tempo": 120.0
            },
            {
                "start_time": 21.636363636363637,
                "end_time": 21.836363636363636,
                "pitch": 71,
                "velocity": 101,
                "duration": 0.1999999999999993,
                "tempo": 120.0
            },
            {
                "start_time": 21.836363636363636,
                "end_time": 22.036363636363635,
                "pitch": 71,
                "velocity": 101,
                "duration": 0.1999999999999993,
                "tempo": 120.0
            },
            {
                "start_time": 22.036363636363635,
                "end_time": 22.236363636363635,
                "pitch": 71,
                "velocity": 101,
                "duration": 0.1999999999999993,
                "tempo": 120.0
            },
            {
                "start_time": 22.236363636363635,
                "end_time": 22.436363636363634,
                "pitch": 73,
                "velocity": 101,
                "duration": 0.1999999999999993,
                "tempo": 120.0
            },
            {
                "start_time": 22.436363636363634,
                "end_time": 22.636363636363637,
                "pitch": 71,
                "velocity": 101,
                "duration": 0.20000000000000284,
                "tempo": 120.0
            },
            {
                "start_time": 22.636363636363637,
                "end_time": 22.83863636363636,
                "pitch": 74,
                "velocity": 101,
                "duration": 0.2022727272727245,
                "tempo": 120.0
            },
            {
                "start_time": 22.83863636363636,
                "end_time": 23.0,
                "pitch": 71,
                "velocity": 101,
                "duration": 0.16136363636363882,
                "tempo": 120.0
            },
            {
                "start_time": 23.0,
                "end_time": 23.186363636363634,
                "pitch": 76,
                "velocity": 101,
                "duration": 0.18636363636363384,
                "tempo": 120.0
            },
            {
                "start_time": 23.186363636363634,
                "end_time": 23.370454545454546,
                "pitch": 71,
                "velocity": 101,
                "duration": 0.1840909090909122,
                "tempo": 120.0
            },
            {
                "start_time": 23.370454545454546,
                "end_time": 23.56590909090909,
                "pitch": 79,
                "velocity": 101,
                "duration": 0.19545454545454533,
                "tempo": 120.0
            },
            {
                "start_time": 23.56590909090909,
                "end_time": 23.763636363636362,
                "pitch": 71,
                "velocity": 101,
                "duration": 0.19772727272727053,
                "tempo": 120.0
            },
            {
                "start_time": 23.763636363636362,
                "end_time": 23.96818181818182,
                "pitch": 78,
                "velocity": 101,
                "duration": 0.2045454545454568,
                "tempo": 120.0
            },
            {
                "start_time": 23.96818181818182,
                "end_time": 24.172727272727272,
                "pitch": 71,
                "velocity": 101,
                "duration": 0.20454545454545325,
                "tempo": 120.0
            },
            {
                "start_time": 24.172727272727272,
                "end_time": 24.370454545454546,
                "pitch": 76,
                "velocity": 101,
                "duration": 0.19772727272727408,
                "tempo": 120.0
            },
            {
                "start_time": 24.370454545454546,
                "end_time": 24.56590909090909,
                "pitch": 71,
                "velocity": 101,
                "duration": 0.19545454545454533,
                "tempo": 120.0
            },
            {
                "start_time": 24.56590909090909,
                "end_time": 24.768181818181816,
                "pitch": 74,
                "velocity": 101,
                "duration": 0.2022727272727245,
                "tempo": 120.0
            },
            {
                "start_time": 24.768181818181816,
                "end_time": 24.938636363636363,
                "pitch": 71,
                "velocity": 101,
                "duration": 0.17045454545454675,
                "tempo": 120.0
            },
            {
                "start_time": 24.938636363636363,
                "end_time": 25.12272727272727,
                "pitch": 73,
                "velocity": 101,
                "duration": 0.18409090909090864,
                "tempo": 120.0
            },
            {
                "start_time": 25.12272727272727,
                "end_time": 25.30909090909091,
                "pitch": 71,
                "velocity": 101,
                "duration": 0.1863636363636374,
                "tempo": 120.0
            },
            {
                "start_time": 25.30909090909091,
                "end_time": 25.509090909090908,
                "pitch": 74,
                "velocity": 101,
                "duration": 0.1999999999999993,
                "tempo": 120.0
            },
            {
                "start_time": 25.509090909090908,
                "end_time": 25.711363636363636,
                "pitch": 71,
                "velocity": 101,
                "duration": 0.20227272727272805,
                "tempo": 120.0
            },
            {
                "start_time": 25.711363636363636,
                "end_time": 25.911363636363635,
                "pitch": 76,
                "velocity": 101,
                "duration": 0.1999999999999993,
                "tempo": 120.0
            },
            {
                "start_time": 25.911363636363635,
                "end_time": 26.111363636363635,
                "pitch": 71,
                "velocity": 101,
                "duration": 0.1999999999999993,
                "tempo": 120.0
            },
            {
                "start_time": 26.111363636363635,
                "end_time": 26.313636363636363,
                "pitch": 73,
                "velocity": 101,
                "duration": 0.20227272727272805,
                "tempo": 120.0
            },
            {
                "start_time": 26.313636363636363,
                "end_time": 26.513636363636362,
                "pitch": 71,
                "velocity": 101,
                "duration": 0.1999999999999993,
                "tempo": 120.0
            },
            {
                "start_time": 26.513636363636362,
                "end_time": 26.71363636363636,
                "pitch": 71,
                "velocity": 101,
                "duration": 0.1999999999999993,
                "tempo": 120.0
            },
            {
                "start_time": 26.71363636363636,
                "end_time": 26.913636363636364,
                "pitch": 71,
                "velocity": 101,
                "duration": 0.20000000000000284,
                "tempo": 120.0
            },
            {
                "start_time": 26.913636363636364,
                "end_time": 27.084090909090907,
                "pitch": 74,
                "velocity": 101,
                "duration": 0.1704545454545432,
                "tempo": 120.0
            },
            {
                "start_time": 27.084090909090907,
                "end_time": 27.284090909090907,
                "pitch": 74,
                "velocity": 101,
                "duration": 0.1999999999999993,
                "tempo": 120.0
            },
            {
                "start_time": 27.284090909090907,
                "end_time": 27.468181818181815,
                "pitch": 73,
                "velocity": 101,
                "duration": 0.18409090909090864,
                "tempo": 120.0
            },
            {
                "start_time": 27.468181818181815,
                "end_time": 27.654545454545453,
                "pitch": 73,
                "velocity": 101,
                "duration": 0.1863636363636374,
                "tempo": 120.0
            },
            {
                "start_time": 27.654545454545453,
                "end_time": 27.854545454545452,
                "pitch": 76,
                "velocity": 101,
                "duration": 0.1999999999999993,
                "tempo": 120.0
            },
            {
                "start_time": 27.854545454545452,
                "end_time": 28.054545454545455,
                "pitch": 76,
                "velocity": 101,
                "duration": 0.20000000000000284,
                "tempo": 120.0
            },
            {
                "start_time": 28.054545454545455,
                "end_time": 28.25681818181818,
                "pitch": 71,
                "velocity": 101,
                "duration": 0.2022727272727245,
                "tempo": 120.0
            },
            {
                "start_time": 28.25681818181818,
                "end_time": 28.456818181818182,
                "pitch": 71,
                "velocity": 101,
                "duration": 0.20000000000000284,
                "tempo": 120.0
            },
            {
                "start_time": 28.456818181818182,
                "end_time": 28.65681818181818,
                "pitch": 74,
                "velocity": 101,
                "duration": 0.1999999999999993,
                "tempo": 120.0
            },
            {
                "start_time": 28.65681818181818,
                "end_time": 28.85681818181818,
                "pitch": 74,
                "velocity": 101,
                "duration": 0.1999999999999993,
                "tempo": 120.0
            },
            {
                "start_time": 28.85681818181818,
                "end_time": 29.05909090909091,
                "pitch": 73,
                "velocity": 101,
                "duration": 0.20227272727272805,
                "tempo": 120.0
            },
            {
                "start_time": 29.05909090909091,
                "end_time": 29.229545454545452,
                "pitch": 73,
                "velocity": 101,
                "duration": 0.1704545454545432,
                "tempo": 120.0
            },
            {
                "start_time": 29.229545454545452,
                "end_time": 29.41363636363636,
                "pitch": 69,
                "velocity": 101,
                "duration": 0.18409090909090864,
                "tempo": 120.0
            },
            {
                "start_time": 29.41363636363636,
                "end_time": 29.59090909090909,
                "pitch": 69,
                "velocity": 101,
                "duration": 0.17727272727272947,
                "tempo": 120.0
            },
            {
                "start_time": 29.599999999999998,
                "end_time": 29.79090909090909,
                "pitch": 71,
                "velocity": 101,
                "duration": 0.19090909090909136,
                "tempo": 120.0
            },
            {
                "start_time": 29.79090909090909,
                "end_time": 30.002272727272725,
                "pitch": 71,
                "velocity": 101,
                "duration": 0.21136363636363598,
                "tempo": 120.0
            },
            {
                "start_time": 30.002272727272725,
                "end_time": 30.193181818181817,
                "pitch": 74,
                "velocity": 101,
                "duration": 0.19090909090909136,
                "tempo": 120.0
            },
            {
                "start_time": 30.193181818181817,
                "end_time": 30.393181818181816,
                "pitch": 74,
                "velocity": 101,
                "duration": 0.1999999999999993,
                "tempo": 120.0
            },
            {
                "start_time": 30.393181818181816,
                "end_time": 30.604545454545452,
                "pitch": 73,
                "velocity": 101,
                "duration": 0.21136363636363598,
                "tempo": 120.0
            },
            {
                "start_time": 30.604545454545452,
                "end_time": 30.795454545454543,
                "pitch": 73,
                "velocity": 101,
                "duration": 0.19090909090909136,
                "tempo": 120.0
            },
            {
                "start_time": 30.804545454545455,
                "end_time": 31.004545454545454,
                "pitch": 76,
                "velocity": 101,
                "duration": 0.1999999999999993,
                "tempo": 120.0
            },
            {
                "start_time": 31.004545454545454,
                "end_time": 31.204545454545453,
                "pitch": 76,
                "velocity": 101,
                "duration": 0.1999999999999993,
                "tempo": 120.0
            },
            {
                "start_time": 31.204545454545453,
                "end_time": 31.36590909090909,
                "pitch": 71,
                "velocity": 101,
                "duration": 0.16136363636363527,
                "tempo": 120.0
            },
            {
                "start_time": 31.36590909090909,
                "end_time": 31.565909090909088,
                "pitch": 71,
                "velocity": 101,
                "duration": 0.1999999999999993,
                "tempo": 120.0
            },
            {
                "start_time": 31.565909090909088,
                "end_time": 31.752272727272725,
                "pitch": 74,
                "velocity": 101,
                "duration": 0.1863636363636374,
                "tempo": 120.0
            },
            {
                "start_time": 31.752272727272725,
                "end_time": 31.936363636363634,
                "pitch": 74,
                "velocity": 101,
                "duration": 0.18409090909090864,
                "tempo": 120.0
            },
            {
                "start_time": 31.936363636363634,
                "end_time": 32.13636363636363,
                "pitch": 73,
                "velocity": 101,
                "duration": 0.1999999999999993,
                "tempo": 120.0
            },
            {
                "start_time": 32.13636363636363,
                "end_time": 32.336363636363636,
                "pitch": 73,
                "velocity": 101,
                "duration": 0.20000000000000284,
                "tempo": 120.0
            },
            {
                "start_time": 32.336363636363636,
                "end_time": 32.53181818181818,
                "pitch": 69,
                "velocity": 101,
                "duration": 0.19545454545454533,
                "tempo": 120.0
            },
            {
                "start_time": 32.53181818181818,
                "end_time": 32.72727272727273,
                "pitch": 69,
                "velocity": 101,
                "duration": 0.19545454545454533,
                "tempo": 120.0
            },
            {
                "start_time": 32.72727272727273,
                "end_time": 32.92727272727272,
                "pitch": 71,
                "velocity": 101,
                "duration": 0.19999999999999574,
                "tempo": 120.0
            },
            {
                "start_time": 32.92727272727272,
                "end_time": 33.127272727272725,
                "pitch": 71,
                "velocity": 101,
                "duration": 0.20000000000000284,
                "tempo": 120.0
            },
            {
                "start_time": 33.127272727272725,
                "end_time": 33.32272727272727,
                "pitch": 74,
                "velocity": 101,
                "duration": 0.19545454545454533,
                "tempo": 120.0
            },
            {
                "start_time": 33.32272727272727,
                "end_time": 33.49090909090909,
                "pitch": 74,
                "velocity": 101,
                "duration": 0.16818181818182154,
                "tempo": 120.0
            },
            {
                "start_time": 33.49090909090909,
                "end_time": 33.68181818181818,
                "pitch": 73,
                "velocity": 101,
                "duration": 0.1909090909090878,
                "tempo": 120.0
            },
            {
                "start_time": 33.68181818181818,
                "end_time": 33.87272727272727,
                "pitch": 73,
                "velocity": 101,
                "duration": 0.1909090909090878,
                "tempo": 120.0
            },
            {
                "start_time": 33.87272727272727,
                "end_time": 34.07272727272727,
                "pitch": 76,
                "velocity": 101,
                "duration": 0.20000000000000284,
                "tempo": 120.0
            },
            {
                "start_time": 34.07272727272727,
                "end_time": 34.27272727272727,
                "pitch": 76,
                "velocity": 101,
                "duration": 0.20000000000000284,
                "tempo": 120.0
            },
            {
                "start_time": 34.27272727272727,
                "end_time": 34.47272727272727,
                "pitch": 71,
                "velocity": 101,
                "duration": 0.19999999999999574,
                "tempo": 120.0
            },
            {
                "start_time": 34.47272727272727,
                "end_time": 34.67272727272727,
                "pitch": 71,
                "velocity": 101,
                "duration": 0.20000000000000284,
                "tempo": 120.0
            },
            {
                "start_time": 34.67272727272727,
                "end_time": 34.87272727272727,
                "pitch": 74,
                "velocity": 101,
                "duration": 0.19999999999999574,
                "tempo": 120.0
            },
            {
                "start_time": 34.87272727272727,
                "end_time": 35.074999999999996,
                "pitch": 74,
                "velocity": 101,
                "duration": 0.20227272727272805,
                "tempo": 120.0
            },
            {
                "start_time": 35.074999999999996,
                "end_time": 35.275,
                "pitch": 73,
                "velocity": 101,
                "duration": 0.20000000000000284,
                "tempo": 120.0
            },
            {
                "start_time": 35.275,
                "end_time": 35.475,
                "pitch": 73,
                "velocity": 101,
                "duration": 0.20000000000000284,
                "tempo": 120.0
            },
            {
                "start_time": 35.475,
                "end_time": 35.64545454545454,
                "pitch": 69,
                "velocity": 101,
                "duration": 0.17045454545453964,
                "tempo": 120.0
            },
            {
                "start_time": 35.64545454545454,
                "end_time": 35.845454545454544,
                "pitch": 69,
                "velocity": 101,
                "duration": 0.20000000000000284,
                "tempo": 120.0
            },
            {
                "start_time": 35.845454545454544,
                "end_time": 36.029545454545456,
                "pitch": 71,
                "velocity": 101,
                "duration": 0.1840909090909122,
                "tempo": 120.0
            },
            {
                "start_time": 36.029545454545456,
                "end_time": 36.215909090909086,
                "pitch": 71,
                "velocity": 101,
                "duration": 0.1863636363636303,
                "tempo": 120.0
            },
            {
                "start_time": 36.215909090909086,
                "end_time": 36.41590909090909,
                "pitch": 74,
                "velocity": 101,
                "duration": 0.20000000000000284,
                "tempo": 120.0
            },
            {
                "start_time": 36.41590909090909,
                "end_time": 36.61590909090909,
                "pitch": 74,
                "velocity": 101,
                "duration": 0.20000000000000284,
                "tempo": 120.0
            },
            {
                "start_time": 36.61590909090909,
                "end_time": 36.81590909090909,
                "pitch": 73,
                "velocity": 101,
                "duration": 0.19999999999999574,
                "tempo": 120.0
            },
            {
                "start_time": 36.81590909090909,
                "end_time": 37.018181818181816,
                "pitch": 73,
                "velocity": 101,
                "duration": 0.20227272727272805,
                "tempo": 120.0
            },
            {
                "start_time": 37.018181818181816,
                "end_time": 37.21818181818182,
                "pitch": 76,
                "velocity": 101,
                "duration": 0.20000000000000284,
                "tempo": 120.0
            },
            {
                "start_time": 37.21818181818182,
                "end_time": 37.418181818181814,
                "pitch": 76,
                "velocity": 101,
                "duration": 0.19999999999999574,
                "tempo": 120.0
            },
            {
                "start_time": 37.418181818181814,
                "end_time": 37.57727272727273,
                "pitch": 74,
                "velocity": 101,
                "duration": 0.1590909090909136,
                "tempo": 120.0
            },
            {
                "start_time": 37.57727272727273,
                "end_time": 37.777272727272724,
                "pitch": 74,
                "velocity": 101,
                "duration": 0.19999999999999574,
                "tempo": 120.0
            },
            {
                "start_time": 37.777272727272724,
                "end_time": 37.96363636363636,
                "pitch": 78,
                "velocity": 101,
                "duration": 0.1863636363636374,
                "tempo": 120.0
            },
            {
                "start_time": 37.96363636363636,
                "end_time": 38.15,
                "pitch": 78,
                "velocity": 101,
                "duration": 0.1863636363636374,
                "tempo": 120.0
            },
            {
                "start_time": 38.15,
                "end_time": 38.35,
                "pitch": 76,
                "velocity": 101,
                "duration": 0.20000000000000284,
                "tempo": 120.0
            },
            {
                "start_time": 38.35,
                "end_time": 38.55227272727272,
                "pitch": 76,
                "velocity": 101,
                "duration": 0.20227272727272094,
                "tempo": 120.0
            },
            {
                "start_time": 38.55227272727272,
                "end_time": 38.74772727272727,
                "pitch": 79,
                "velocity": 101,
                "duration": 0.19545454545454533,
                "tempo": 120.0
            },
            {
                "start_time": 38.74772727272727,
                "end_time": 38.94318181818181,
                "pitch": 79,
                "velocity": 101,
                "duration": 0.19545454545454533,
                "tempo": 120.0
            },
            {
                "start_time": 38.95227272727273,
                "end_time": 39.04545454545455,
                "pitch": 71,
                "velocity": 101,
                "duration": 0.0931818181818187,
                "tempo": 120.0
            },
            {
                "start_time": 39.04545454545455,
                "end_time": 39.14772727272727,
                "pitch": 71,
                "velocity": 101,
                "duration": 0.10227272727272663,
                "tempo": 120.0
            },
            {
                "start_time": 39.14772727272727,
                "end_time": 39.25,
                "pitch": 73,
                "velocity": 101,
                "duration": 0.10227272727272663,
                "tempo": 120.0
            },
            {
                "start_time": 39.25,
                "end_time": 39.35454545454545,
                "pitch": 73,
                "velocity": 101,
                "duration": 0.10454545454545183,
                "tempo": 120.0
            },
            {
                "start_time": 39.35454545454545,
                "end_time": 39.36363636363636,
                "pitch": 74,
                "velocity": 101,
                "duration": 0.009090909090907928,
                "tempo": 120.0
            }
        ],
        "Electric Guitar (clean)": [
            {
                "start_time": 0.22045454545454543,
                "end_time": 0.4204545454545454,
                "pitch": 31,
                "velocity": 127,
                "duration": 0.19999999999999998,
                "tempo": 120.0
            },
            {
                "start_time": 0.4204545454545454,
                "end_time": 0.6204545454545454,
                "pitch": 31,
                "velocity": 127,
                "duration": 0.19999999999999996,
                "tempo": 120.0
            },
            {
                "start_time": 0.6204545454545454,
                "end_time": 0.8204545454545454,
                "pitch": 31,
                "velocity": 127,
                "duration": 0.20000000000000007,
                "tempo": 120.0
            },
            {
                "start_time": 0.8204545454545454,
                "end_time": 1.0204545454545455,
                "pitch": 31,
                "velocity": 127,
                "duration": 0.20000000000000007,
                "tempo": 120.0
            },
            {
                "start_time": 1.0204545454545455,
                "end_time": 1.2204545454545455,
                "pitch": 31,
                "velocity": 127,
                "duration": 0.19999999999999996,
                "tempo": 120.0
            },
            {
                "start_time": 1.2204545454545455,
                "end_time": 1.4204545454545454,
                "pitch": 31,
                "velocity": 127,
                "duration": 0.19999999999999996,
                "tempo": 120.0
            },
            {
                "start_time": 1.4204545454545454,
                "end_time": 1.6204545454545454,
                "pitch": 31,
                "velocity": 127,
                "duration": 0.19999999999999996,
                "tempo": 120.0
            },
            {
                "start_time": 1.6204545454545454,
                "end_time": 1.7818181818181817,
                "pitch": 31,
                "velocity": 127,
                "duration": 0.16136363636363638,
                "tempo": 120.0
            },
            {
                "start_time": 1.7818181818181817,
                "end_time": 1.9818181818181817,
                "pitch": 31,
                "velocity": 127,
                "duration": 0.19999999999999996,
                "tempo": 120.0
            },
            {
                "start_time": 1.9818181818181817,
                "end_time": 2.1636363636363636,
                "pitch": 31,
                "velocity": 127,
                "duration": 0.18181818181818188,
                "tempo": 120.0
            },
            {
                "start_time": 2.1636363636363636,
                "end_time": 2.3431818181818183,
                "pitch": 31,
                "velocity": 127,
                "duration": 0.17954545454545467,
                "tempo": 120.0
            },
            {
                "start_time": 2.3431818181818183,
                "end_time": 2.543181818181818,
                "pitch": 31,
                "velocity": 127,
                "duration": 0.19999999999999973,
                "tempo": 120.0
            },
            {
                "start_time": 2.543181818181818,
                "end_time": 2.743181818181818,
                "pitch": 31,
                "velocity": 127,
                "duration": 0.20000000000000018,
                "tempo": 120.0
            },
            {
                "start_time": 2.7545454545454544,
                "end_time": 2.9499999999999997,
                "pitch": 31,
                "velocity": 127,
                "duration": 0.19545454545454533,
                "tempo": 120.0
            },
            {
                "start_time": 2.959090909090909,
                "end_time": 3.3499999999999996,
                "pitch": 30,
                "velocity": 127,
                "duration": 0.39090909090909065,
                "tempo": 120.0
            },
            {
                "start_time": 3.3499999999999996,
                "end_time": 3.5477272727272724,
                "pitch": 30,
                "velocity": 127,
                "duration": 0.19772727272727275,
                "tempo": 120.0
            },
            {
                "start_time": 3.5477272727272724,
                "end_time": 3.7477272727272726,
                "pitch": 30,
                "velocity": 127,
                "duration": 0.20000000000000018,
                "tempo": 120.0
            },
            {
                "start_time": 3.7477272727272726,
                "end_time": 3.9159090909090906,
                "pitch": 30,
                "velocity": 127,
                "duration": 0.168181818181818,
                "tempo": 120.0
            },
            {
                "start_time": 3.9159090909090906,
                "end_time": 4.1022727272727275,
                "pitch": 30,
                "velocity": 127,
                "duration": 0.18636363636363695,
                "tempo": 120.0
            },
            {
                "start_time": 4.1022727272727275,
                "end_time": 4.286363636363636,
                "pitch": 30,
                "velocity": 127,
                "duration": 0.18409090909090864,
                "tempo": 120.0
            },
            {
                "start_time": 4.286363636363636,
                "end_time": 4.486363636363636,
                "pitch": 30,
                "velocity": 127,
                "duration": 0.20000000000000018,
                "tempo": 120.0
            },
            {
                "start_time": 4.486363636363636,
                "end_time": 4.6863636363636365,
                "pitch": 30,
                "velocity": 127,
                "duration": 0.20000000000000018,
                "tempo": 120.0
            },
            {
                "start_time": 4.6863636363636365,
                "end_time": 4.888636363636364,
                "pitch": 30,
                "velocity": 127,
                "duration": 0.20227272727272716,
                "tempo": 120.0
            },
            {
                "start_time": 4.888636363636364,
                "end_time": 5.088636363636363,
                "pitch": 30,
                "velocity": 127,
                "duration": 0.1999999999999993,
                "tempo": 120.0
            },
            {
                "start_time": 5.088636363636363,
                "end_time": 5.290909090909091,
                "pitch": 30,
                "velocity": 127,
                "duration": 0.20227272727272805,
                "tempo": 120.0
            },
            {
                "start_time": 5.290909090909091,
                "end_time": 5.493181818181818,
                "pitch": 30,
                "velocity": 127,
                "duration": 0.20227272727272716,
                "tempo": 120.0
            },
            {
                "start_time": 5.493181818181818,
                "end_time": 5.693181818181818,
                "pitch": 30,
                "velocity": 127,
                "duration": 0.20000000000000018,
                "tempo": 120.0
            },
            {
                "start_time": 5.693181818181818,
                "end_time": 5.893181818181818,
                "pitch": 30,
                "velocity": 127,
                "duration": 0.1999999999999993,
                "tempo": 120.0
            },
            {
                "start_time": 5.893181818181818,
                "end_time": 6.0636363636363635,
                "pitch": 30,
                "velocity": 127,
                "duration": 0.17045454545454586,
                "tempo": 120.0
            },
            {
                "start_time": 6.0636363636363635,
                "end_time": 6.449999999999999,
                "pitch": 31,
                "velocity": 127,
                "duration": 0.3863636363636358,
                "tempo": 120.0
            },
            {
                "start_time": 6.449999999999999,
                "end_time": 6.636363636363636,
                "pitch": 31,
                "velocity": 127,
                "duration": 0.1863636363636365,
                "tempo": 120.0
            },
            {
                "start_time": 6.636363636363636,
                "end_time": 6.836363636363636,
                "pitch": 31,
                "velocity": 127,
                "duration": 0.20000000000000018,
                "tempo": 120.0
            },
            {
                "start_time": 6.836363636363636,
                "end_time": 7.036363636363636,
                "pitch": 31,
                "velocity": 127,
                "duration": 0.20000000000000018,
                "tempo": 120.0
            },
            {
                "start_time": 7.036363636363636,
                "end_time": 7.236363636363636,
                "pitch": 31,
                "velocity": 127,
                "duration": 0.20000000000000018,
                "tempo": 120.0
            },
            {
                "start_time": 7.236363636363636,
                "end_time": 7.4386363636363635,
                "pitch": 31,
                "velocity": 127,
                "duration": 0.20227272727272716,
                "tempo": 120.0
            },
            {
                "start_time": 7.4386363636363635,
                "end_time": 7.638636363636364,
                "pitch": 31,
                "velocity": 127,
                "duration": 0.20000000000000018,
                "tempo": 120.0
            },
            {
                "start_time": 7.638636363636364,
                "end_time": 7.838636363636363,
                "pitch": 31,
                "velocity": 127,
                "duration": 0.1999999999999993,
                "tempo": 120.0
            },
            {
                "start_time": 7.838636363636363,
                "end_time": 8.038636363636364,
                "pitch": 31,
                "velocity": 127,
                "duration": 0.20000000000000107,
                "tempo": 120.0
            },
            {
                "start_time": 8.038636363636364,
                "end_time": 8.2,
                "pitch": 31,
                "velocity": 127,
                "duration": 0.16136363636363527,
                "tempo": 120.0
            },
            {
                "start_time": 8.2,
                "end_time": 8.395454545454545,
                "pitch": 31,
                "velocity": 127,
                "duration": 0.19545454545454533,
                "tempo": 120.0
            },
            {
                "start_time": 8.395454545454545,
                "end_time": 8.570454545454545,
                "pitch": 31,
                "velocity": 127,
                "duration": 0.1750000000000007,
                "tempo": 120.0
            },
            {
                "start_time": 8.570454545454545,
                "end_time": 8.781818181818181,
                "pitch": 31,
                "velocity": 127,
                "duration": 0.21136363636363598,
                "tempo": 120.0
            },
            {
                "start_time": 8.781818181818181,
                "end_time": 8.98409090909091,
                "pitch": 31,
                "velocity": 127,
                "duration": 0.20227272727272805,
                "tempo": 120.0
            },
            {
                "start_time": 8.98409090909091,
                "end_time": 9.184090909090909,
                "pitch": 31,
                "velocity": 127,
                "duration": 0.1999999999999993,
                "tempo": 120.0
            },
            {
                "start_time": 9.184090909090909,
                "end_time": 9.577272727272726,
                "pitch": 30,
                "velocity": 127,
                "duration": 0.39318181818181763,
                "tempo": 120.0
            },
            {
                "start_time": 9.577272727272726,
                "end_time": 9.779545454545454,
                "pitch": 30,
                "velocity": 127,
                "duration": 0.20227272727272805,
                "tempo": 120.0
            },
            {
                "start_time": 9.779545454545454,
                "end_time": 9.979545454545454,
                "pitch": 30,
                "velocity": 127,
                "duration": 0.1999999999999993,
                "tempo": 120.0
            },
            {
                "start_time": 9.99090909090909,
                "end_time": 10.181818181818182,
                "pitch": 30,
                "velocity": 127,
                "duration": 0.19090909090909136,
                "tempo": 120.0
            },
            {
                "start_time": 10.19090909090909,
                "end_time": 10.352272727272727,
                "pitch": 30,
                "velocity": 127,
                "duration": 0.16136363636363704,
                "tempo": 120.0
            },
            {
                "start_time": 10.352272727272727,
                "end_time": 10.552272727272726,
                "pitch": 30,
                "velocity": 127,
                "duration": 0.1999999999999993,
                "tempo": 120.0
            },
            {
                "start_time": 10.552272727272726,
                "end_time": 10.738636363636363,
                "pitch": 30,
                "velocity": 127,
                "duration": 0.1863636363636374,
                "tempo": 120.0
            },
            {
                "start_time": 10.738636363636363,
                "end_time": 10.922727272727272,
                "pitch": 30,
                "velocity": 127,
                "duration": 0.18409090909090864,
                "tempo": 120.0
            },
            {
                "start_time": 10.922727272727272,
                "end_time": 11.118181818181817,
                "pitch": 30,
                "velocity": 127,
                "duration": 0.19545454545454533,
                "tempo": 120.0
            },
            {
                "start_time": 11.118181818181817,
                "end_time": 11.31590909090909,
                "pitch": 30,
                "velocity": 127,
                "duration": 0.1977272727272723,
                "tempo": 120.0
            },
            {
                "start_time": 11.31590909090909,
                "end_time": 11.51590909090909,
                "pitch": 30,
                "velocity": 127,
                "duration": 0.20000000000000107,
                "tempo": 120.0
            },
            {
                "start_time": 11.51590909090909,
                "end_time": 11.71590909090909,
                "pitch": 30,
                "velocity": 127,
                "duration": 0.1999999999999993,
                "tempo": 120.0
            },
            {
                "start_time": 11.71590909090909,
                "end_time": 11.915909090909091,
                "pitch": 28,
                "velocity": 127,
                "duration": 0.20000000000000107,
                "tempo": 120.0
            },
            {
                "start_time": 11.915909090909091,
                "end_time": 12.118181818181817,
                "pitch": 30,
                "velocity": 127,
                "duration": 0.20227272727272627,
                "tempo": 120.0
            },
            {
                "start_time": 12.118181818181817,
                "end_time": 12.284090909090908,
                "pitch": 31,
                "velocity": 127,
                "duration": 0.165909090909091,
                "tempo": 120.0
            },
            {
                "start_time": 12.284090909090908,
                "end_time": 12.479545454545454,
                "pitch": 33,
                "velocity": 127,
                "duration": 0.19545454545454533,
                "tempo": 120.0
            },
            {
                "start_time": 12.479545454545454,
                "end_time": 12.670454545454545,
                "pitch": 35,
                "velocity": 127,
                "duration": 0.19090909090909136,
                "tempo": 120.0
            },
            {
                "start_time": 12.670454545454545,
                "end_time": 12.861363636363636,
                "pitch": 35,
                "velocity": 127,
                "duration": 0.19090909090909136,
                "tempo": 120.0
            },
            {
                "start_time": 12.861363636363636,
                "end_time": 13.063636363636363,
                "pitch": 35,
                "velocity": 127,
                "duration": 0.20227272727272627,
                "tempo": 120.0
            },
            {
                "start_time": 13.063636363636363,
                "end_time": 13.26590909090909,
                "pitch": 35,
                "velocity": 127,
                "duration": 0.20227272727272805,
                "tempo": 120.0
            },
            {
                "start_time": 13.26590909090909,
                "end_time": 13.46590909090909,
                "pitch": 35,
                "velocity": 127,
                "duration": 0.1999999999999993,
                "tempo": 120.0
            },
            {
                "start_time": 13.46590909090909,
                "end_time": 13.668181818181818,
                "pitch": 35,
                "velocity": 127,
                "duration": 0.20227272727272805,
                "tempo": 120.0
            },
            {
                "start_time": 13.668181818181818,
                "end_time": 13.868181818181817,
                "pitch": 35,
                "velocity": 127,
                "duration": 0.1999999999999993,
                "tempo": 120.0
            },
            {
                "start_time": 13.868181818181817,
                "end_time": 14.270454545454545,
                "pitch": 37,
                "velocity": 127,
                "duration": 0.40227272727272734,
                "tempo": 120.0
            },
            {
                "start_time": 14.270454545454545,
                "end_time": 14.443181818181818,
                "pitch": 37,
                "velocity": 127,
                "duration": 0.17272727272727373,
                "tempo": 120.0
            },
            {
                "start_time": 14.443181818181818,
                "end_time": 14.627272727272727,
                "pitch": 37,
                "velocity": 127,
                "duration": 0.18409090909090864,
                "tempo": 120.0
            },
            {
                "start_time": 14.627272727272727,
                "end_time": 14.813636363636363,
                "pitch": 37,
                "velocity": 127,
                "duration": 0.18636363636363562,
                "tempo": 120.0
            },
            {
                "start_time": 14.813636363636363,
                "end_time": 15.013636363636364,
                "pitch": 37,
                "velocity": 127,
                "duration": 0.20000000000000107,
                "tempo": 120.0
            },
            {
                "start_time": 15.013636363636364,
                "end_time": 15.21590909090909,
                "pitch": 37,
                "velocity": 127,
                "duration": 0.20227272727272627,
                "tempo": 120.0
            },
            {
                "start_time": 15.21590909090909,
                "end_time": 15.418181818181818,
                "pitch": 37,
                "velocity": 127,
                "duration": 0.20227272727272805,
                "tempo": 120.0
            },
            {
                "start_time": 15.418181818181818,
                "end_time": 15.618181818181817,
                "pitch": 37,
                "velocity": 127,
                "duration": 0.1999999999999993,
                "tempo": 120.0
            },
            {
                "start_time": 15.618181818181817,
                "end_time": 15.818181818181817,
                "pitch": 37,
                "velocity": 127,
                "duration": 0.1999999999999993,
                "tempo": 120.0
            },
            {
                "start_time": 15.818181818181817,
                "end_time": 16.018181818181816,
                "pitch": 37,
                "velocity": 127,
                "duration": 0.1999999999999993,
                "tempo": 120.0
            },
            {
                "start_time": 16.018181818181816,
                "end_time": 16.220454545454544,
                "pitch": 37,
                "velocity": 127,
                "duration": 0.20227272727272805,
                "tempo": 120.0
            },
            {
                "start_time": 16.220454545454544,
                "end_time": 16.420454545454543,
                "pitch": 37,
                "velocity": 127,
                "duration": 0.1999999999999993,
                "tempo": 120.0
            },
            {
                "start_time": 16.420454545454543,
                "end_time": 16.581818181818182,
                "pitch": 37,
                "velocity": 127,
                "duration": 0.16136363636363882,
                "tempo": 120.0
            },
            {
                "start_time": 16.581818181818182,
                "end_time": 16.78181818181818,
                "pitch": 37,
                "velocity": 127,
                "duration": 0.1999999999999993,
                "tempo": 120.0
            },
            {
                "start_time": 16.78181818181818,
                "end_time": 16.96818181818182,
                "pitch": 37,
                "velocity": 127,
                "duration": 0.1863636363636374,
                "tempo": 120.0
            },
            {
                "start_time": 16.96818181818182,
                "end_time": 17.347727272727273,
                "pitch": 38,
                "velocity": 127,
                "duration": 0.37954545454545396,
                "tempo": 120.0
            },
            {
                "start_time": 17.347727272727273,
                "end_time": 17.545454545454543,
                "pitch": 38,
                "velocity": 127,
                "duration": 0.19772727272727053,
                "tempo": 120.0
            },
            {
                "start_time": 17.545454545454543,
                "end_time": 17.745454545454546,
                "pitch": 38,
                "velocity": 127,
                "duration": 0.20000000000000284,
                "tempo": 120.0
            },
            {
                "start_time": 17.745454545454546,
                "end_time": 17.945454545454545,
                "pitch": 38,
                "velocity": 127,
                "duration": 0.1999999999999993,
                "tempo": 120.0
            },
            {
                "start_time": 17.945454545454545,
                "end_time": 18.145454545454545,
                "pitch": 38,
                "velocity": 127,
                "duration": 0.1999999999999993,
                "tempo": 120.0
            },
            {
                "start_time": 18.145454545454545,
                "end_time": 18.34318181818182,
                "pitch": 38,
                "velocity": 127,
                "duration": 0.19772727272727408,
                "tempo": 120.0
            },
            {
                "start_time": 18.34318181818182,
                "end_time": 18.54090909090909,
                "pitch": 38,
                "velocity": 127,
                "duration": 0.19772727272727053,
                "tempo": 120.0
            },
            {
                "start_time": 18.54090909090909,
                "end_time": 18.706818181818182,
                "pitch": 39,
                "velocity": 127,
                "duration": 0.16590909090909278,
                "tempo": 120.0
            },
            {
                "start_time": 18.706818181818182,
                "end_time": 18.897727272727273,
                "pitch": 39,
                "velocity": 127,
                "duration": 0.19090909090909136,
                "tempo": 120.0
            },
            {
                "start_time": 18.897727272727273,
                "end_time": 19.08863636363636,
                "pitch": 39,
                "velocity": 127,
                "duration": 0.1909090909090878,
                "tempo": 120.0
            },
            {
                "start_time": 19.08863636363636,
                "end_time": 19.288636363636364,
                "pitch": 39,
                "velocity": 127,
                "duration": 0.20000000000000284,
                "tempo": 120.0
            },
            {
                "start_time": 19.288636363636364,
                "end_time": 19.488636363636363,
                "pitch": 39,
                "velocity": 127,
                "duration": 0.1999999999999993,
                "tempo": 120.0
            },
            {
                "start_time": 19.488636363636363,
                "end_time": 19.688636363636363,
                "pitch": 39,
                "velocity": 127,
                "duration": 0.1999999999999993,
                "tempo": 120.0
            },
            {
                "start_time": 19.688636363636363,
                "end_time": 19.888636363636362,
                "pitch": 39,
                "velocity": 127,
                "duration": 0.1999999999999993,
                "tempo": 120.0
            },
            {
                "start_time": 19.888636363636362,
                "end_time": 20.09090909090909,
                "pitch": 39,
                "velocity": 127,
                "duration": 0.20227272727272805,
                "tempo": 120.0
            },
            {
                "start_time": 20.09090909090909,
                "end_time": 20.49090909090909,
                "pitch": 40,
                "velocity": 127,
                "duration": 0.3999999999999986,
                "tempo": 120.0
            },
            {
                "start_time": 20.49090909090909,
                "end_time": 20.69090909090909,
                "pitch": 40,
                "velocity": 127,
                "duration": 0.20000000000000284,
                "tempo": 120.0
            },
            {
                "start_time": 20.69090909090909,
                "end_time": 20.863636363636363,
                "pitch": 40,
                "velocity": 127,
                "duration": 0.17272727272727195,
                "tempo": 120.0
            },
            {
                "start_time": 20.863636363636363,
                "end_time": 21.063636363636363,
                "pitch": 40,
                "velocity": 127,
                "duration": 0.1999999999999993,
                "tempo": 120.0
            },
            {
                "start_time": 21.063636363636363,
                "end_time": 21.25,
                "pitch": 40,
                "velocity": 127,
                "duration": 0.1863636363636374,
                "tempo": 120.0
            },
            {
                "start_time": 21.25,
                "end_time": 21.43409090909091,
                "pitch": 40,
                "velocity": 127,
                "duration": 0.18409090909090864,
                "tempo": 120.0
            },
            {
                "start_time": 21.43409090909091,
                "end_time": 21.636363636363637,
                "pitch": 40,
                "velocity": 127,
                "duration": 0.20227272727272805,
                "tempo": 120.0
            },
            {
                "start_time": 21.636363636363637,
                "end_time": 22.036363636363635,
                "pitch": 41,
                "velocity": 127,
                "duration": 0.3999999999999986,
                "tempo": 120.0
            },
            {
                "start_time": 22.036363636363635,
                "end_time": 22.236363636363635,
                "pitch": 41,
                "velocity": 127,
                "duration": 0.1999999999999993,
                "tempo": 120.0
            },
            {
                "start_time": 22.236363636363635,
                "end_time": 22.436363636363634,
                "pitch": 41,
                "velocity": 127,
                "duration": 0.1999999999999993,
                "tempo": 120.0
            },
            {
                "start_time": 22.436363636363634,
                "end_time": 22.636363636363637,
                "pitch": 41,
                "velocity": 127,
                "duration": 0.20000000000000284,
                "tempo": 120.0
            },
            {
                "start_time": 22.636363636363637,
                "end_time": 22.83863636363636,
                "pitch": 41,
                "velocity": 127,
                "duration": 0.2022727272727245,
                "tempo": 120.0
            },
            {
                "start_time": 22.83863636363636,
                "end_time": 23.009090909090908,
                "pitch": 41,
                "velocity": 127,
                "duration": 0.17045454545454675,
                "tempo": 120.0
            },
            {
                "start_time": 23.009090909090908,
                "end_time": 23.195454545454545,
                "pitch": 41,
                "velocity": 127,
                "duration": 0.1863636363636374,
                "tempo": 120.0
            },
            {
                "start_time": 23.195454545454545,
                "end_time": 23.763636363636362,
                "pitch": 42,
                "velocity": 127,
                "duration": 0.5681818181818166,
                "tempo": 120.0
            },
            {
                "start_time": 23.763636363636362,
                "end_time": 23.96818181818182,
                "pitch": 42,
                "velocity": 127,
                "duration": 0.2045454545454568,
                "tempo": 120.0
            },
            {
                "start_time": 23.96818181818182,
                "end_time": 24.56590909090909,
                "pitch": 40,
                "velocity": 127,
                "duration": 0.5977272727272727,
                "tempo": 120.0
            },
            {
                "start_time": 24.56590909090909,
                "end_time": 24.768181818181816,
                "pitch": 40,
                "velocity": 127,
                "duration": 0.2022727272727245,
                "tempo": 120.0
            },
            {
                "start_time": 24.768181818181816,
                "end_time": 25.30909090909091,
                "pitch": 38,
                "velocity": 127,
                "duration": 0.5409090909090928,
                "tempo": 120.0
            },
            {
                "start_time": 25.30909090909091,
                "end_time": 25.509090909090908,
                "pitch": 38,
                "velocity": 127,
                "duration": 0.1999999999999993,
                "tempo": 120.0
            },
            {
                "start_time": 25.509090909090908,
                "end_time": 26.513636363636362,
                "pitch": 37,
                "velocity": 127,
                "duration": 1.004545454545454,
                "tempo": 120.0
            },
            {
                "start_time": 26.513636363636362,
                "end_time": 26.71363636363636,
                "pitch": 35,
                "velocity": 127,
                "duration": 0.1999999999999993,
                "tempo": 120.0
            },
            {
                "start_time": 26.71363636363636,
                "end_time": 26.913636363636364,
                "pitch": 35,
                "velocity": 127,
                "duration": 0.20000000000000284,
                "tempo": 120.0
            },
            {
                "start_time": 26.913636363636364,
                "end_time": 27.084090909090907,
                "pitch": 35,
                "velocity": 127,
                "duration": 0.1704545454545432,
                "tempo": 120.0
            },
            {
                "start_time": 27.084090909090907,
                "end_time": 27.284090909090907,
                "pitch": 35,
                "velocity": 127,
                "duration": 0.1999999999999993,
                "tempo": 120.0
            },
            {
                "start_time": 27.284090909090907,
                "end_time": 27.468181818181815,
                "pitch": 35,
                "velocity": 127,
                "duration": 0.18409090909090864,
                "tempo": 120.0
            },
            {
                "start_time": 27.468181818181815,
                "end_time": 27.654545454545453,
                "pitch": 35,
                "velocity": 127,
                "duration": 0.1863636363636374,
                "tempo": 120.0
            },
            {
                "start_time": 27.654545454545453,
                "end_time": 27.854545454545452,
                "pitch": 35,
                "velocity": 127,
                "duration": 0.1999999999999993,
                "tempo": 120.0
            },
            {
                "start_time": 27.854545454545452,
                "end_time": 28.25681818181818,
                "pitch": 30,
                "velocity": 127,
                "duration": 0.40227272727272734,
                "tempo": 120.0
            },
            {
                "start_time": 28.25681818181818,
                "end_time": 28.456818181818182,
                "pitch": 30,
                "velocity": 127,
                "duration": 0.20000000000000284,
                "tempo": 120.0
            },
            {
                "start_time": 28.456818181818182,
                "end_time": 28.65681818181818,
                "pitch": 30,
                "velocity": 127,
                "duration": 0.1999999999999993,
                "tempo": 120.0
            },
            {
                "start_time": 28.65681818181818,
                "end_time": 28.85681818181818,
                "pitch": 30,
                "velocity": 127,
                "duration": 0.1999999999999993,
                "tempo": 120.0
            },
            {
                "start_time": 28.85681818181818,
                "end_time": 29.05909090909091,
                "pitch": 30,
                "velocity": 127,
                "duration": 0.20227272727272805,
                "tempo": 120.0
            },
            {
                "start_time": 29.05909090909091,
                "end_time": 29.229545454545452,
                "pitch": 30,
                "velocity": 127,
                "duration": 0.1704545454545432,
                "tempo": 120.0
            },
            {
                "start_time": 29.229545454545452,
                "end_time": 29.41363636363636,
                "pitch": 30,
                "velocity": 127,
                "duration": 0.18409090909090864,
                "tempo": 120.0
            },
            {
                "start_time": 29.41363636363636,
                "end_time": 29.802272727272726,
                "pitch": 31,
                "velocity": 127,
                "duration": 0.38863636363636545,
                "tempo": 120.0
            },
            {
                "start_time": 29.802272727272726,
                "end_time": 30.002272727272725,
                "pitch": 31,
                "velocity": 127,
                "duration": 0.1999999999999993,
                "tempo": 120.0
            },
            {
                "start_time": 30.002272727272725,
                "end_time": 30.202272727272724,
                "pitch": 31,
                "velocity": 127,
                "duration": 0.1999999999999993,
                "tempo": 120.0
            },
            {
                "start_time": 30.202272727272724,
                "end_time": 30.402272727272727,
                "pitch": 31,
                "velocity": 127,
                "duration": 0.20000000000000284,
                "tempo": 120.0
            },
            {
                "start_time": 30.402272727272727,
                "end_time": 30.604545454545452,
                "pitch": 31,
                "velocity": 127,
                "duration": 0.2022727272727245,
                "tempo": 120.0
            },
            {
                "start_time": 30.604545454545452,
                "end_time": 30.804545454545455,
                "pitch": 31,
                "velocity": 127,
                "duration": 0.20000000000000284,
                "tempo": 120.0
            },
            {
                "start_time": 30.804545454545455,
                "end_time": 31.004545454545454,
                "pitch": 31,
                "velocity": 127,
                "duration": 0.1999999999999993,
                "tempo": 120.0
            },
            {
                "start_time": 31.004545454545454,
                "end_time": 31.36590909090909,
                "pitch": 33,
                "velocity": 127,
                "duration": 0.36136363636363455,
                "tempo": 120.0
            },
            {
                "start_time": 31.36590909090909,
                "end_time": 31.565909090909088,
                "pitch": 33,
                "velocity": 127,
                "duration": 0.1999999999999993,
                "tempo": 120.0
            },
            {
                "start_time": 31.565909090909088,
                "end_time": 31.752272727272725,
                "pitch": 33,
                "velocity": 127,
                "duration": 0.1863636363636374,
                "tempo": 120.0
            },
            {
                "start_time": 31.752272727272725,
                "end_time": 31.936363636363634,
                "pitch": 33,
                "velocity": 127,
                "duration": 0.18409090909090864,
                "tempo": 120.0
            },
            {
                "start_time": 31.936363636363634,
                "end_time": 32.13636363636363,
                "pitch": 33,
                "velocity": 127,
                "duration": 0.1999999999999993,
                "tempo": 120.0
            },
            {
                "start_time": 32.13636363636363,
                "end_time": 32.336363636363636,
                "pitch": 33,
                "velocity": 127,
                "duration": 0.20000000000000284,
                "tempo": 120.0
            },
            {
                "start_time": 32.336363636363636,
                "end_time": 32.53181818181818,
                "pitch": 33,
                "velocity": 127,
                "duration": 0.19545454545454533,
                "tempo": 120.0
            },
            {
                "start_time": 32.53181818181818,
                "end_time": 32.92727272727272,
                "pitch": 35,
                "velocity": 127,
                "duration": 0.39545454545454106,
                "tempo": 120.0
            },
            {
                "start_time": 32.92727272727272,
                "end_time": 33.127272727272725,
                "pitch": 35,
                "velocity": 127,
                "duration": 0.20000000000000284,
                "tempo": 120.0
            },
            {
                "start_time": 33.127272727272725,
                "end_time": 33.32272727272727,
                "pitch": 35,
                "velocity": 127,
                "duration": 0.19545454545454533,
                "tempo": 120.0
            },
            {
                "start_time": 33.32272727272727,
                "end_time": 33.49090909090909,
                "pitch": 35,
                "velocity": 127,
                "duration": 0.16818181818182154,
                "tempo": 120.0
            },
            {
                "start_time": 33.49090909090909,
                "end_time": 33.68181818181818,
                "pitch": 35,
                "velocity": 127,
                "duration": 0.1909090909090878,
                "tempo": 120.0
            },
            {
                "start_time": 33.68181818181818,
                "end_time": 33.87272727272727,
                "pitch": 35,
                "velocity": 127,
                "duration": 0.1909090909090878,
                "tempo": 120.0
            },
            {
                "start_time": 33.87272727272727,
                "end_time": 34.07272727272727,
                "pitch": 35,
                "velocity": 127,
                "duration": 0.20000000000000284,
                "tempo": 120.0
            },
            {
                "start_time": 34.07272727272727,
                "end_time": 34.47272727272727,
                "pitch": 30,
                "velocity": 127,
                "duration": 0.3999999999999986,
                "tempo": 120.0
            },
            {
                "start_time": 34.47272727272727,
                "end_time": 34.67272727272727,
                "pitch": 30,
                "velocity": 127,
                "duration": 0.20000000000000284,
                "tempo": 120.0
            },
            {
                "start_time": 34.67272727272727,
                "end_time": 34.87272727272727,
                "pitch": 30,
                "velocity": 127,
                "duration": 0.19999999999999574,
                "tempo": 120.0
            },
            {
                "start_time": 34.87272727272727,
                "end_time": 35.074999999999996,
                "pitch": 30,
                "velocity": 127,
                "duration": 0.20227272727272805,
                "tempo": 120.0
            },
            {
                "start_time": 35.074999999999996,
                "end_time": 35.275,
                "pitch": 30,
                "velocity": 127,
                "duration": 0.20000000000000284,
                "tempo": 120.0
            },
            {
                "start_time": 35.275,
                "end_time": 35.475,
                "pitch": 30,
                "velocity": 127,
                "duration": 0.20000000000000284,
                "tempo": 120.0
            },
            {
                "start_time": 35.475,
                "end_time": 35.64545454545454,
                "pitch": 30,
                "velocity": 127,
                "duration": 0.17045454545453964,
                "tempo": 120.0
            },
            {
                "start_time": 35.64545454545454,
                "end_time": 36.029545454545456,
                "pitch": 31,
                "velocity": 127,
                "duration": 0.38409090909091503,
                "tempo": 120.0
            },
            {
                "start_time": 36.029545454545456,
                "end_time": 36.215909090909086,
                "pitch": 31,
                "velocity": 127,
                "duration": 0.1863636363636303,
                "tempo": 120.0
            },
            {
                "start_time": 36.215909090909086,
                "end_time": 36.41590909090909,
                "pitch": 31,
                "velocity": 127,
                "duration": 0.20000000000000284,
                "tempo": 120.0
            },
            {
                "start_time": 36.41590909090909,
                "end_time": 36.61590909090909,
                "pitch": 31,
                "velocity": 127,
                "duration": 0.20000000000000284,
                "tempo": 120.0
            },
            {
                "start_time": 36.61590909090909,
                "end_time": 36.81590909090909,
                "pitch": 31,
                "velocity": 127,
                "duration": 0.19999999999999574,
                "tempo": 120.0
            },
            {
                "start_time": 36.81590909090909,
                "end_time": 37.018181818181816,
                "pitch": 31,
                "velocity": 127,
                "duration": 0.20227272727272805,
                "tempo": 120.0
            },
            {
                "start_time": 37.018181818181816,
                "end_time": 37.21818181818182,
                "pitch": 31,
                "velocity": 127,
                "duration": 0.20000000000000284,
                "tempo": 120.0
            },
            {
                "start_time": 37.21818181818182,
                "end_time": 37.57727272727273,
                "pitch": 33,
                "velocity": 127,
                "duration": 0.35909090909090935,
                "tempo": 120.0
            },
            {
                "start_time": 37.57727272727273,
                "end_time": 37.777272727272724,
                "pitch": 33,
                "velocity": 127,
                "duration": 0.19999999999999574,
                "tempo": 120.0
            },
            {
                "start_time": 37.777272727272724,
                "end_time": 37.96363636363636,
                "pitch": 33,
                "velocity": 127,
                "duration": 0.1863636363636374,
                "tempo": 120.0
            },
            {
                "start_time": 37.96363636363636,
                "end_time": 38.15909090909091,
                "pitch": 33,
                "velocity": 127,
                "duration": 0.19545454545454533,
                "tempo": 120.0
            },
            {
                "start_time": 38.15909090909091,
                "end_time": 38.35,
                "pitch": 33,
                "velocity": 127,
                "duration": 0.19090909090909491,
                "tempo": 120.0
            },
            {
                "start_time": 38.35,
                "end_time": 38.55227272727272,
                "pitch": 33,
                "velocity": 127,
                "duration": 0.20227272727272094,
                "tempo": 120.0
            },
            {
                "start_time": 38.55227272727272,
                "end_time": 38.74772727272727,
                "pitch": 33,
                "velocity": 127,
                "duration": 0.19545454545454533,
                "tempo": 120.0
            },
            {
                "start_time": 38.74772727272727,
                "end_time": 38.94318181818181,
                "pitch": 33,
                "velocity": 127,
                "duration": 0.19545454545454533,
                "tempo": 120.0
            },
            {
                "start_time": 38.95227272727273,
                "end_time": 39.14772727272727,
                "pitch": 31,
                "velocity": 127,
                "duration": 0.19545454545454533,
                "tempo": 120.0
            },
            {
                "start_time": 39.14772727272727,
                "end_time": 39.36363636363636,
                "pitch": 31,
                "velocity": 127,
                "duration": 0.2159090909090864,
                "tempo": 120.0
            }
        ]
    }
}