{
    "track_id": "02 Opening Theme 2",
    "mood": "angry",
    "instruments": {
        "Acoustic Grand Piano": [
            {
                "start_time": 0.020454545454545454,
                "end_time": 0.2681818181818182,
                "pitch": 50,
                "velocity": 64,
                "duration": 0.24772727272727274,
                "tempo": 120.0
            },
            {
                "start_time": 0.27045454545454545,
                "end_time": 0.5181818181818182,
                "pitch": 53,
                "velocity": 64,
                "duration": 0.24772727272727274,
                "tempo": 120.0
            },
            {
                "start_time": 0.5204545454545454,
                "end_time": 0.7545454545454545,
                "pitch": 55,
                "velocity": 64,
                "duration": 0.23409090909090913,
                "tempo": 120.0
            },
            {
                "start_time": 0.7568181818181818,
                "end_time": 5.127272727272727,
                "pitch": 58,
                "velocity": 64,
                "duration": 4.370454545454545,
                "tempo": 120.0
            },
            {
                "start_time": 5.129545454545454,
                "end_time": 5.620454545454545,
                "pitch": 48,
                "velocity": 64,
                "duration": 0.4909090909090912,
                "tempo": 120.0
            },
            {
                "start_time": 5.622727272727272,
                "end_time": 6.11590909090909,
                "pitch": 51,
                "velocity": 64,
                "duration": 0.49318181818181817,
                "tempo": 120.0
            },
            {
                "start_time": 6.118181818181818,
                "end_time": 10.952272727272726,
                "pitch": 55,
                "velocity": 64,
                "duration": 4.834090909090908,
                "tempo": 120.0
            },
            {
                "start_time": 10.954545454545453,
                "end_time": 11.452272727272726,
                "pitch": 50,
                "velocity": 64,
                "duration": 0.497727272727273,
                "tempo": 120.0
            },
            {
                "start_time": 11.454545454545453,
                "end_time": 11.954545454545453,
                "pitch": 53,
                "velocity": 64,
                "duration": 0.5,
                "tempo": 120.0
            },
            {
                "start_time": 11.956818181818182,
                "end_time": 12.420454545454545,
                "pitch": 55,
                "velocity": 64,
                "duration": 0.46363636363636296,
                "tempo": 120.0
            },
            {
                "start_time": 12.424999999999999,
                "end_time": 16.795454545454543,
                "pitch": 58,
                "velocity": 64,
                "duration": 4.370454545454544,
                "tempo": 120.0
            },
            {
                "start_time": 16.797727272727272,
                "end_time": 17.295454545454543,
                "pitch": 48,
                "velocity": 64,
                "duration": 0.49772727272727124,
                "tempo": 120.0
            },
            {
                "start_time": 17.297727272727272,
                "end_time": 17.795454545454543,
                "pitch": 51,
                "velocity": 64,
                "duration": 0.49772727272727124,
                "tempo": 120.0
            },
            {
                "start_time": 17.797727272727272,
                "end_time": 22.638636363636362,
                "pitch": 55,
                "velocity": 64,
                "duration": 4.84090909090909,
                "tempo": 120.0
            },
            {
                "start_time": 22.64090909090909,
                "end_time": 23.13181818181818,
                "pitch": 57,
                "velocity": 64,
                "duration": 0.4909090909090885,
                "tempo": 120.0
            },
            {
                "start_time": 23.134090909090908,
                "end_time": 23.627272727272725,
                "pitch": 60,
                "velocity": 64,
                "duration": 0.4931818181818173,
                "tempo": 120.0
            },
            {
                "start_time": 23.629545454545454,
                "end_time": 24.08863636363636,
                "pitch": 62,
                "velocity": 64,
                "duration": 0.4590909090909072,
                "tempo": 120.0
            },
            {
                "start_time": 24.09318181818182,
                "end_time": 28.48181818181818,
                "pitch": 65,
                "velocity": 64,
                "duration": 4.388636363636362,
                "tempo": 120.0
            },
            {
                "start_time": 28.48409090909091,
                "end_time": 28.974999999999998,
                "pitch": 55,
                "velocity": 64,
                "duration": 0.4909090909090885,
                "tempo": 120.0
            },
            {
                "start_time": 28.977272727272727,
                "end_time": 29.470454545454544,
                "pitch": 58,
                "velocity": 64,
                "duration": 0.4931818181818173,
                "tempo": 120.0
            },
            {
                "start_time": 29.472727272727273,
                "end_time": 34.30681818181818,
                "pitch": 62,
                "velocity": 64,
                "duration": 4.834090909090907,
                "tempo": 120.0
            },
            {
                "start_time": 34.309090909090905,
                "end_time": 34.80681818181818,
                "pitch": 57,
                "velocity": 64,
                "duration": 0.4977272727272748,
                "tempo": 120.0
            },
            {
                "start_time": 34.809090909090905,
                "end_time": 35.30681818181818,
                "pitch": 60,
                "velocity": 64,
                "duration": 0.4977272727272748,
                "tempo": 120.0
            },
            {
                "start_time": 35.309090909090905,
                "end_time": 35.775,
                "pitch": 62,
                "velocity": 64,
                "duration": 0.4659090909090935,
                "tempo": 120.0
            },
            {
                "start_time": 35.777272727272724,
                "end_time": 40.15,
                "pitch": 65,
                "velocity": 64,
                "duration": 4.372727272727275,
                "tempo": 120.0
            },
            {
                "start_time": 40.152272727272724,
                "end_time": 40.643181818181816,
                "pitch": 55,
                "velocity": 64,
                "duration": 0.49090909090909207,
                "tempo": 120.0
            },
            {
                "start_time": 40.64545454545454,
                "end_time": 41.13863636363636,
                "pitch": 58,
                "velocity": 64,
                "duration": 0.4931818181818173,
                "tempo": 120.0
            },
            {
                "start_time": 41.14090909090909,
                "end_time": 45.99318181818182,
                "pitch": 62,
                "velocity": 64,
                "duration": 4.852272727272727,
                "tempo": 120.0
            },
            {
                "start_time": 45.99545454545454,
                "end_time": 46.486363636363635,
                "pitch": 50,
                "velocity": 64,
                "duration": 0.49090909090909207,
                "tempo": 120.0
            },
            {
                "start_time": 46.48863636363636,
                "end_time": 46.98181818181818,
                "pitch": 53,
                "velocity": 64,
                "duration": 0.4931818181818173,
                "tempo": 120.0
            },
            {
                "start_time": 46.98409090909091,
                "end_time": 47.44318181818181,
                "pitch": 55,
                "velocity": 64,
                "duration": 0.45909090909090366,
                "tempo": 120.0
            },
            {
                "start_time": 47.445454545454545,
                "end_time": 51.81818181818181,
                "pitch": 58,
                "velocity": 64,
                "duration": 4.372727272727268,
                "tempo": 120.0
            },
            {
                "start_time": 51.820454545454545,
                "end_time": 52.31818181818181,
                "pitch": 48,
                "velocity": 64,
                "duration": 0.4977272727272677,
                "tempo": 120.0
            },
            {
                "start_time": 52.320454545454545,
                "end_time": 52.81818181818181,
                "pitch": 51,
                "velocity": 64,
                "duration": 0.4977272727272677,
                "tempo": 120.0
            },
            {
                "start_time": 52.820454545454545,
                "end_time": 57.66136363636363,
                "pitch": 55,
                "velocity": 64,
                "duration": 4.840909090909086,
                "tempo": 120.0
            },
            {
                "start_time": 57.663636363636364,
                "end_time": 58.16136363636363,
                "pitch": 50,
                "velocity": 64,
                "duration": 0.4977272727272677,
                "tempo": 120.0
            },
            {
                "start_time": 58.163636363636364,
                "end_time": 58.66136363636363,
                "pitch": 53,
                "velocity": 64,
                "duration": 0.4977272727272677,
                "tempo": 120.0
            },
            {
                "start_time": 58.663636363636364,
                "end_time": 59.12954545454545,
                "pitch": 55,
                "velocity": 64,
                "duration": 0.4659090909090864,
                "tempo": 120.0
            },
            {
                "start_time": 59.131818181818176,
                "end_time": 63.502272727272725,
                "pitch": 58,
                "velocity": 64,
                "duration": 4.37045454545455,
                "tempo": 120.0
            },
            {
                "start_time": 63.506818181818176,
                "end_time": 63.99772727272727,
                "pitch": 48,
                "velocity": 64,
                "duration": 0.49090909090909207,
                "tempo": 120.0
            },
            {
                "start_time": 64.0,
                "end_time": 64.49318181818181,
                "pitch": 51,
                "velocity": 64,
                "duration": 0.49318181818181017,
                "tempo": 120.0
            },
            {
                "start_time": 64.49545454545454,
                "end_time": 69.34545454545454,
                "pitch": 55,
                "velocity": 64,
                "duration": 4.8500000000000085,
                "tempo": 120.0
            },
            {
                "start_time": 69.35,
                "end_time": 69.8409090909091,
                "pitch": 57,
                "velocity": 64,
                "duration": 0.4909090909090992,
                "tempo": 120.0
            },
            {
                "start_time": 69.84318181818182,
                "end_time": 70.33636363636363,
                "pitch": 60,
                "velocity": 64,
                "duration": 0.49318181818181017,
                "tempo": 120.0
            },
            {
                "start_time": 70.33863636363635,
                "end_time": 70.79772727272727,
                "pitch": 62,
                "velocity": 64,
                "duration": 0.4590909090909179,
                "tempo": 120.0
            },
            {
                "start_time": 70.8,
                "end_time": 75.17045454545455,
                "pitch": 65,
                "velocity": 64,
                "duration": 4.37045454545455,
                "tempo": 120.0
            },
            {
                "start_time": 75.175,
                "end_time": 75.67272727272727,
                "pitch": 55,
                "velocity": 64,
                "duration": 0.4977272727272748,
                "tempo": 120.0
            },
            {
                "start_time": 75.675,
                "end_time": 76.17272727272727,
                "pitch": 58,
                "velocity": 64,
                "duration": 0.4977272727272748,
                "tempo": 120.0
            },
            {
                "start_time": 76.175,
                "end_time": 81.01363636363637,
                "pitch": 62,
                "velocity": 64,
                "duration": 4.838636363636368,
                "tempo": 120.0
            },
            {
                "start_time": 81.01818181818182,
                "end_time": 81.5090909090909,
                "pitch": 57,
                "velocity": 64,
                "duration": 0.49090909090908497,
                "tempo": 120.0
            },
            {
                "start_time": 81.51136363636363,
                "end_time": 82.00454545454545,
                "pitch": 60,
                "velocity": 64,
                "duration": 0.4931818181818244,
                "tempo": 120.0
            },
            {
                "start_time": 82.00681818181818,
                "end_time": 82.4659090909091,
                "pitch": 62,
                "velocity": 64,
                "duration": 0.4590909090909179,
                "tempo": 120.0
            },
            {
                "start_time": 82.46818181818182,
                "end_time": 86.85681818181818,
                "pitch": 65,
                "velocity": 64,
                "duration": 4.3886363636363654,
                "tempo": 120.0
            },
            {
                "start_time": 86.85909090909091,
                "end_time": 87.35227272727272,
                "pitch": 55,
                "velocity": 64,
                "duration": 0.49318181818181017,
                "tempo": 120.0
            },
            {
                "start_time": 87.35454545454544,
                "end_time": 87.84545454545454,
                "pitch": 58,
                "velocity": 64,
                "duration": 0.4909090909090992,
                "tempo": 120.0
            },
            {
                "start_time": 87.85,
                "end_time": 92.68181818181817,
                "pitch": 62,
                "velocity": 64,
                "duration": 4.8318181818181785,
                "tempo": 120.0
            },
            {
                "start_time": 92.68636363636364,
                "end_time": 93.18181818181817,
                "pitch": 50,
                "velocity": 64,
                "duration": 0.4954545454545354,
                "tempo": 120.0
            },
            {
                "start_time": 93.18636363636364,
                "end_time": 93.6840909090909,
                "pitch": 53,
                "velocity": 64,
                "duration": 0.4977272727272606,
                "tempo": 120.0
            },
            {
                "start_time": 93.68636363636364,
                "end_time": 94.15227272727272,
                "pitch": 55,
                "velocity": 64,
                "duration": 0.4659090909090793,
                "tempo": 120.0
            },
            {
                "start_time": 94.15454545454546,
                "end_time": 98.52499999999999,
                "pitch": 58,
                "velocity": 64,
                "duration": 4.370454545454535,
                "tempo": 120.0
            },
            {
                "start_time": 98.52727272727272,
                "end_time": 99.02499999999999,
                "pitch": 48,
                "velocity": 64,
                "duration": 0.4977272727272748,
                "tempo": 120.0
            },
            {
                "start_time": 99.02727272727272,
                "end_time": 99.52727272727272,
                "pitch": 51,
                "velocity": 64,
                "duration": 0.5,
                "tempo": 120.0
            },
            {
                "start_time": 99.52954545454546,
                "end_time": 104.36818181818181,
                "pitch": 55,
                "velocity": 64,
                "duration": 4.838636363636354,
                "tempo": 120.0
            },
            {
                "start_time": 104.37045454545454,
                "end_time": 104.86363636363636,
                "pitch": 50,
                "velocity": 64,
                "duration": 0.4931818181818244,
                "tempo": 120.0
            },
            {
                "start_time": 104.86590909090908,
                "end_time": 105.35681818181817,
                "pitch": 53,
                "velocity": 64,
                "duration": 0.49090909090908497,
                "tempo": 120.0
            },
            {
                "start_time": 105.35909090909091,
                "end_time": 105.82045454545454,
                "pitch": 55,
                "velocity": 64,
                "duration": 0.46136363636362887,
                "tempo": 120.0
            },
            {
                "start_time": 105.82272727272726,
                "end_time": 110.21136363636363,
                "pitch": 58,
                "velocity": 64,
                "duration": 4.3886363636363654,
                "tempo": 120.0
            },
            {
                "start_time": 110.21363636363635,
                "end_time": 110.70454545454545,
                "pitch": 48,
                "velocity": 64,
                "duration": 0.4909090909090992,
                "tempo": 120.0
            },
            {
                "start_time": 110.7090909090909,
                "end_time": 111.19999999999999,
                "pitch": 51,
                "velocity": 64,
                "duration": 0.49090909090908497,
                "tempo": 120.0
            },
            {
                "start_time": 111.20227272727273,
                "end_time": 116.03636363636363,
                "pitch": 55,
                "velocity": 64,
                "duration": 4.834090909090904,
                "tempo": 120.0
            },
            {
                "start_time": 116.03863636363636,
                "end_time": 116.53636363636363,
                "pitch": 57,
                "velocity": 64,
                "duration": 0.4977272727272748,
                "tempo": 120.0
            },
            {
                "start_time": 116.53863636363636,
                "end_time": 117.03863636363636,
                "pitch": 60,
                "velocity": 64,
                "duration": 0.5,
                "tempo": 120.0
            },
            {
                "start_time": 117.04090909090908,
                "end_time": 117.50681818181818,
                "pitch": 62,
                "velocity": 64,
                "duration": 0.4659090909090935,
                "tempo": 120.0
            },
            {
                "start_time": 117.5090909090909,
                "end_time": 121.87954545454545,
                "pitch": 65,
                "velocity": 64,
                "duration": 4.37045454545455,
                "tempo": 120.0
            },
            {
                "start_time": 121.88181818181818,
                "end_time": 122.37954545454545,
                "pitch": 55,
                "velocity": 64,
                "duration": 0.4977272727272748,
                "tempo": 120.0
            },
            {
                "start_time": 122.38181818181818,
                "end_time": 122.88181818181818,
                "pitch": 58,
                "velocity": 64,
                "duration": 0.5,
                "tempo": 120.0
            },
            {
                "start_time": 122.8840909090909,
                "end_time": 127.72272727272727,
                "pitch": 62,
                "velocity": 64,
                "duration": 4.838636363636368,
                "tempo": 120.0
            },
            {
                "start_time": 127.725,
                "end_time": 128.2159090909091,
                "pitch": 57,
                "velocity": 64,
                "duration": 0.4909090909090992,
                "tempo": 120.0
            },
            {
                "start_time": 128.22045454545454,
                "end_time": 128.71136363636364,
                "pitch": 60,
                "velocity": 64,
                "duration": 0.4909090909090992,
                "tempo": 120.0
            },
            {
                "start_time": 128.71363636363637,
                "end_time": 129.17499999999998,
                "pitch": 62,
                "velocity": 64,
                "duration": 0.46136363636361466,
                "tempo": 120.0
            },
            {
                "start_time": 129.1772727272727,
                "end_time": 133.54772727272726,
                "pitch": 65,
                "velocity": 64,
                "duration": 4.37045454545455,
                "tempo": 120.0
            },
            {
                "start_time": 133.54999999999998,
                "end_time": 135.0181818181818,
                "pitch": 67,
                "velocity": 80,
                "duration": 1.4681818181818187,
                "tempo": 120.0
            },
            {
                "start_time": 135.0181818181818,
                "end_time": 136.47045454545454,
                "pitch": 70,
                "velocity": 80,
                "duration": 1.4522727272727423,
                "tempo": 120.0
            },
            {
                "start_time": 136.47045454545454,
                "end_time": 137.93863636363636,
                "pitch": 69,
                "velocity": 80,
                "duration": 1.4681818181818187,
                "tempo": 120.0
            },
            {
                "start_time": 137.9409090909091,
                "end_time": 139.39090909090908,
                "pitch": 65,
                "velocity": 80,
                "duration": 1.4499999999999886,
                "tempo": 120.0
            },
            {
                "start_time": 139.3931818181818,
                "end_time": 145.2340909090909,
                "pitch": 67,
                "velocity": 80,
                "duration": 5.8409090909090935,
                "tempo": 120.0
            }
        ],
        "Harpsichord": [
            {
                "start_time": 92.69318181818181,
                "end_time": 97.07727272727273,
                "pitch": 67,
                "velocity": 80,
                "duration": 4.384090909090915,
                "tempo": 120.0
            },
            {
                "start_time": 97.07954545454545,
                "end_time": 98.53181818181818,
                "pitch": 70,
                "velocity": 80,
                "duration": 1.452272727272728,
                "tempo": 120.0
            },
            {
                "start_time": 98.5340909090909,
                "end_time": 104.375,
                "pitch": 63,
                "velocity": 80,
                "duration": 5.8409090909090935,
                "tempo": 120.0
            },
            {
                "start_time": 104.37727272727273,
                "end_time": 108.74545454545454,
                "pitch": 67,
                "velocity": 80,
                "duration": 4.36818181818181,
                "tempo": 120.0
            },
            {
                "start_time": 108.74772727272726,
                "end_time": 110.21818181818182,
                "pitch": 74,
                "velocity": 80,
                "duration": 1.4704545454545581,
                "tempo": 120.0
            },
            {
                "start_time": 110.22045454545454,
                "end_time": 116.04318181818181,
                "pitch": 70,
                "velocity": 80,
                "duration": 5.822727272727263,
                "tempo": 120.0
            },
            {
                "start_time": 116.04545454545455,
                "end_time": 120.43181818181817,
                "pitch": 72,
                "velocity": 80,
                "duration": 4.386363636363626,
                "tempo": 120.0
            },
            {
                "start_time": 120.4340909090909,
                "end_time": 121.15454545454544,
                "pitch": 70,
                "velocity": 80,
                "duration": 0.7204545454545439,
                "tempo": 120.0
            },
            {
                "start_time": 121.15681818181818,
                "end_time": 121.88636363636363,
                "pitch": 69,
                "velocity": 80,
                "duration": 0.7295454545454447,
                "tempo": 120.0
            },
            {
                "start_time": 121.88863636363635,
                "end_time": 122.24772727272726,
                "pitch": 70,
                "velocity": 80,
                "duration": 0.35909090909090935,
                "tempo": 120.0
            },
            {
                "start_time": 122.25,
                "end_time": 122.61590909090908,
                "pitch": 69,
                "velocity": 80,
                "duration": 0.36590909090908497,
                "tempo": 120.0
            },
            {
                "start_time": 122.61818181818181,
                "end_time": 126.25454545454545,
                "pitch": 67,
                "velocity": 80,
                "duration": 3.6363636363636402,
                "tempo": 120.0
            },
            {
                "start_time": 126.25681818181818,
                "end_time": 126.98863636363636,
                "pitch": 69,
                "velocity": 80,
                "duration": 0.7318181818181841,
                "tempo": 120.0
            },
            {
                "start_time": 126.99090909090908,
                "end_time": 127.72954545454544,
                "pitch": 70,
                "velocity": 80,
                "duration": 0.7386363636363598,
                "tempo": 120.0
            },
            {
                "start_time": 127.73181818181817,
                "end_time": 130.65227272727273,
                "pitch": 69,
                "velocity": 64,
                "duration": 2.920454545454561,
                "tempo": 120.0
            },
            {
                "start_time": 130.65454545454546,
                "end_time": 133.5568181818182,
                "pitch": 65,
                "velocity": 40,
                "duration": 2.902272727272731,
                "tempo": 120.0
            }
        ],
        "Acoustic Bass": [
            {
                "start_time": 149.24090909090907,
                "end_time": 149.41590909090908,
                "pitch": 43,
                "velocity": 101,
                "duration": 0.17500000000001137,
                "tempo": 120.0
            },
            {
                "start_time": 149.4181818181818,
                "end_time": 149.59545454545454,
                "pitch": 43,
                "velocity": 101,
                "duration": 0.17727272727273657,
                "tempo": 120.0
            },
            {
                "start_time": 149.59772727272727,
                "end_time": 149.77954545454546,
                "pitch": 43,
                "velocity": 101,
                "duration": 0.18181818181818699,
                "tempo": 120.0
            },
            {
                "start_time": 149.78181818181818,
                "end_time": 149.96363636363637,
                "pitch": 43,
                "velocity": 101,
                "duration": 0.18181818181818699,
                "tempo": 120.0
            },
            {
                "start_time": 149.9659090909091,
                "end_time": 150.14772727272725,
                "pitch": 43,
                "velocity": 101,
                "duration": 0.18181818181815856,
                "tempo": 120.0
            },
            {
                "start_time": 150.14772727272725,
                "end_time": 150.33181818181816,
                "pitch": 43,
                "velocity": 101,
                "duration": 0.1840909090909122,
                "tempo": 120.0
            },
            {
                "start_time": 150.33181818181816,
                "end_time": 150.5090909090909,
                "pitch": 43,
                "velocity": 101,
                "duration": 0.17727272727273657,
                "tempo": 120.0
            },
            {
                "start_time": 150.51136363636363,
                "end_time": 150.6909090909091,
                "pitch": 43,
                "velocity": 101,
                "duration": 0.17954545454546178,
                "tempo": 120.0
            },
            {
                "start_time": 150.6931818181818,
                "end_time": 150.87272727272727,
                "pitch": 43,
                "velocity": 101,
                "duration": 0.17954545454546178,
                "tempo": 120.0
            },
            {
                "start_time": 150.875,
                "end_time": 151.0568181818182,
                "pitch": 43,
                "velocity": 101,
                "duration": 0.18181818181818699,
                "tempo": 120.0
            },
            {
                "start_time": 151.0590909090909,
                "end_time": 151.24090909090907,
                "pitch": 43,
                "velocity": 101,
                "duration": 0.18181818181815856,
                "tempo": 120.0
            },
            {
                "start_time": 151.24318181818182,
                "end_time": 151.42499999999998,
                "pitch": 43,
                "velocity": 101,
                "duration": 0.18181818181815856,
                "tempo": 120.0
            },
            {
                "start_time": 151.42499999999998,
                "end_time": 151.60454545454544,
                "pitch": 43,
                "velocity": 101,
                "duration": 0.17954545454546178,
                "tempo": 120.0
            },
            {
                "start_time": 151.60454545454544,
                "end_time": 151.78181818181818,
                "pitch": 43,
                "velocity": 101,
                "duration": 0.17727272727273657,
                "tempo": 120.0
            },
            {
                "start_time": 151.7840909090909,
                "end_time": 151.97272727272727,
                "pitch": 43,
                "velocity": 101,
                "duration": 0.1886363636363626,
                "tempo": 120.0
            },
            {
                "start_time": 151.97272727272727,
                "end_time": 152.16136363636363,
                "pitch": 43,
                "velocity": 101,
                "duration": 0.1886363636363626,
                "tempo": 120.0
            },
            {
                "start_time": 152.16363636363636,
                "end_time": 152.3409090909091,
                "pitch": 41,
                "velocity": 101,
                "duration": 0.17727272727273657,
                "tempo": 120.0
            },
            {
                "start_time": 152.34318181818182,
                "end_time": 152.52045454545453,
                "pitch": 41,
                "velocity": 101,
                "duration": 0.17727272727270815,
                "tempo": 120.0
            },
            {
                "start_time": 152.52272727272725,
                "end_time": 152.70454545454544,
                "pitch": 41,
                "velocity": 101,
                "duration": 0.18181818181818699,
                "tempo": 120.0
            },
            {
                "start_time": 152.70454545454544,
                "end_time": 152.88636363636363,
                "pitch": 41,
                "velocity": 101,
                "duration": 0.18181818181818699,
                "tempo": 120.0
            },
            {
                "start_time": 152.88863636363635,
                "end_time": 153.0659090909091,
                "pitch": 41,
                "velocity": 101,
                "duration": 0.17727272727273657,
                "tempo": 120.0
            },
            {
                "start_time": 153.0681818181818,
                "end_time": 153.24545454545455,
                "pitch": 41,
                "velocity": 101,
                "duration": 0.17727272727273657,
                "tempo": 120.0
            },
            {
                "start_time": 153.24772727272727,
                "end_time": 153.42954545454543,
                "pitch": 41,
                "velocity": 101,
                "duration": 0.18181818181815856,
                "tempo": 120.0
            },
            {
                "start_time": 153.4318181818182,
                "end_time": 153.61363636363635,
                "pitch": 41,
                "velocity": 101,
                "duration": 0.18181818181815856,
                "tempo": 120.0
            },
            {
                "start_time": 153.61590909090907,
                "end_time": 153.79772727272726,
                "pitch": 41,
                "velocity": 101,
                "duration": 0.18181818181818699,
                "tempo": 120.0
            },
            {
                "start_time": 153.79772727272726,
                "end_time": 153.98181818181817,
                "pitch": 41,
                "velocity": 101,
                "duration": 0.1840909090909122,
                "tempo": 120.0
            },
            {
                "start_time": 153.98181818181817,
                "end_time": 154.16363636363636,
                "pitch": 41,
                "velocity": 101,
                "duration": 0.18181818181818699,
                "tempo": 120.0
            },
            {
                "start_time": 154.16590909090908,
                "end_time": 154.34772727272727,
                "pitch": 41,
                "velocity": 101,
                "duration": 0.18181818181818699,
                "tempo": 120.0
            },
            {
                "start_time": 154.35,
                "end_time": 154.52727272727273,
                "pitch": 41,
                "velocity": 101,
                "duration": 0.17727272727273657,
                "tempo": 120.0
            },
            {
                "start_time": 154.52954545454546,
                "end_time": 154.70681818181816,
                "pitch": 41,
                "velocity": 101,
                "duration": 0.17727272727270815,
                "tempo": 120.0
            },
            {
                "start_time": 154.7090909090909,
                "end_time": 154.89090909090908,
                "pitch": 41,
                "velocity": 101,
                "duration": 0.18181818181818699,
                "tempo": 120.0
            },
            {
                "start_time": 154.8931818181818,
                "end_time": 155.075,
                "pitch": 41,
                "velocity": 101,
                "duration": 0.18181818181818699,
                "tempo": 120.0
            },
            {
                "start_time": 155.0772727272727,
                "end_time": 155.25681818181818,
                "pitch": 39,
                "velocity": 101,
                "duration": 0.17954545454546178,
                "tempo": 120.0
            },
            {
                "start_time": 155.2590909090909,
                "end_time": 155.4409090909091,
                "pitch": 39,
                "velocity": 101,
                "duration": 0.18181818181818699,
                "tempo": 120.0
            },
            {
                "start_time": 155.4431818181818,
                "end_time": 155.62045454545455,
                "pitch": 39,
                "velocity": 101,
                "duration": 0.17727272727273657,
                "tempo": 120.0
            },
            {
                "start_time": 155.62272727272727,
                "end_time": 155.79999999999998,
                "pitch": 39,
                "velocity": 101,
                "duration": 0.17727272727270815,
                "tempo": 120.0
            },
            {
                "start_time": 155.8022727272727,
                "end_time": 155.9840909090909,
                "pitch": 39,
                "velocity": 101,
                "duration": 0.18181818181818699,
                "tempo": 120.0
            },
            {
                "start_time": 155.98636363636362,
                "end_time": 156.1681818181818,
                "pitch": 39,
                "velocity": 101,
                "duration": 0.18181818181818699,
                "tempo": 120.0
            },
            {
                "start_time": 156.17045454545453,
                "end_time": 156.35227272727272,
                "pitch": 39,
                "velocity": 101,
                "duration": 0.18181818181818699,
                "tempo": 120.0
            },
            {
                "start_time": 156.35227272727272,
                "end_time": 156.53636363636363,
                "pitch": 39,
                "velocity": 101,
                "duration": 0.1840909090909122,
                "tempo": 120.0
            },
            {
                "start_time": 156.53636363636363,
                "end_time": 156.71363636363637,
                "pitch": 39,
                "velocity": 101,
                "duration": 0.17727272727273657,
                "tempo": 120.0
            },
            {
                "start_time": 156.7159090909091,
                "end_time": 156.8931818181818,
                "pitch": 39,
                "velocity": 101,
                "duration": 0.17727272727270815,
                "tempo": 120.0
            },
            {
                "start_time": 156.89545454545453,
                "end_time": 157.0772727272727,
                "pitch": 39,
                "velocity": 101,
                "duration": 0.18181818181818699,
                "tempo": 120.0
            },
            {
                "start_time": 157.07954545454544,
                "end_time": 157.26136363636363,
                "pitch": 39,
                "velocity": 101,
                "duration": 0.18181818181818699,
                "tempo": 120.0
            },
            {
                "start_time": 157.26363636363635,
                "end_time": 157.44545454545454,
                "pitch": 39,
                "velocity": 101,
                "duration": 0.18181818181818699,
                "tempo": 120.0
            },
            {
                "start_time": 157.44772727272726,
                "end_time": 157.62727272727273,
                "pitch": 39,
                "velocity": 101,
                "duration": 0.17954545454546178,
                "tempo": 120.0
            },
            {
                "start_time": 157.62954545454545,
                "end_time": 157.81363636363636,
                "pitch": 39,
                "velocity": 101,
                "duration": 0.1840909090909122,
                "tempo": 120.0
            },
            {
                "start_time": 157.81363636363636,
                "end_time": 157.99545454545455,
                "pitch": 39,
                "velocity": 101,
                "duration": 0.18181818181818699,
                "tempo": 120.0
            },
            {
                "start_time": 157.99772727272727,
                "end_time": 158.53863636363636,
                "pitch": 43,
                "velocity": 101,
                "duration": 0.5409090909090821,
                "tempo": 120.0
            },
            {
                "start_time": 158.53863636363636,
                "end_time": 158.58863636363637,
                "pitch": 43,
                "velocity": 101,
                "duration": 0.05000000000001137,
                "tempo": 120.0
            },
            {
                "start_time": 158.58863636363637,
                "end_time": 158.70681818181816,
                "pitch": 43,
                "velocity": 101,
                "duration": 0.11818181818179596,
                "tempo": 120.0
            },
            {
                "start_time": 158.53863636363636,
                "end_time": 158.70681818181816,
                "pitch": 55,
                "velocity": 101,
                "duration": 0.16818181818180733,
                "tempo": 120.0
            },
            {
                "start_time": 158.70681818181816,
                "end_time": 158.72272727272727,
                "pitch": 43,
                "velocity": 101,
                "duration": 0.01590909090910486,
                "tempo": 120.0
            },
            {
                "start_time": 158.725,
                "end_time": 159.44772727272726,
                "pitch": 45,
                "velocity": 101,
                "duration": 0.7227272727272691,
                "tempo": 120.0
            },
            {
                "start_time": 159.45,
                "end_time": 160.0,
                "pitch": 46,
                "velocity": 101,
                "duration": 0.5500000000000114,
                "tempo": 120.0
            },
            {
                "start_time": 160.00227272727273,
                "end_time": 160.9090909090909,
                "pitch": 48,
                "velocity": 101,
                "duration": 0.9068181818181813,
                "tempo": 120.0
            },
            {
                "start_time": 160.91136363636363,
                "end_time": 161.09318181818182,
                "pitch": 43,
                "velocity": 101,
                "duration": 0.18181818181818699,
                "tempo": 120.0
            },
            {
                "start_time": 161.09318181818182,
                "end_time": 161.27727272727273,
                "pitch": 43,
                "velocity": 101,
                "duration": 0.1840909090909122,
                "tempo": 120.0
            },
            {
                "start_time": 161.27727272727273,
                "end_time": 161.4590909090909,
                "pitch": 43,
                "velocity": 101,
                "duration": 0.18181818181815856,
                "tempo": 120.0
            },
            {
                "start_time": 161.46136363636361,
                "end_time": 161.6431818181818,
                "pitch": 43,
                "velocity": 101,
                "duration": 0.18181818181818699,
                "tempo": 120.0
            },
            {
                "start_time": 161.64545454545453,
                "end_time": 161.82272727272726,
                "pitch": 43,
                "velocity": 101,
                "duration": 0.17727272727273657,
                "tempo": 120.0
            },
            {
                "start_time": 161.825,
                "end_time": 162.00227272727273,
                "pitch": 43,
                "velocity": 101,
                "duration": 0.17727272727273657,
                "tempo": 120.0
            },
            {
                "start_time": 162.00454545454545,
                "end_time": 162.18636363636364,
                "pitch": 43,
                "velocity": 101,
                "duration": 0.18181818181818699,
                "tempo": 120.0
            },
            {
                "start_time": 162.18636363636364,
                "end_time": 162.37045454545455,
                "pitch": 43,
                "velocity": 101,
                "duration": 0.1840909090909122,
                "tempo": 120.0
            },
            {
                "start_time": 162.37272727272727,
                "end_time": 162.5522727272727,
                "pitch": 43,
                "velocity": 101,
                "duration": 0.17954545454543336,
                "tempo": 120.0
            },
            {
                "start_time": 162.55454545454543,
                "end_time": 162.73636363636362,
                "pitch": 43,
                "velocity": 101,
                "duration": 0.18181818181818699,
                "tempo": 120.0
            },
            {
                "start_time": 162.73863636363635,
                "end_time": 162.92045454545453,
                "pitch": 43,
                "velocity": 101,
                "duration": 0.18181818181818699,
                "tempo": 120.0
            },
            {
                "start_time": 162.92272727272726,
                "end_time": 163.10454545454544,
                "pitch": 43,
                "velocity": 101,
                "duration": 0.18181818181818699,
                "tempo": 120.0
            },
            {
                "start_time": 163.10681818181817,
                "end_time": 163.2840909090909,
                "pitch": 43,
                "velocity": 101,
                "duration": 0.17727272727273657,
                "tempo": 120.0
            },
            {
                "start_time": 163.28636363636363,
                "end_time": 163.46363636363637,
                "pitch": 43,
                "velocity": 101,
                "duration": 0.17727272727273657,
                "tempo": 120.0
            },
            {
                "start_time": 163.46363636363637,
                "end_time": 163.64545454545453,
                "pitch": 43,
                "velocity": 101,
                "duration": 0.18181818181815856,
                "tempo": 120.0
            },
            {
                "start_time": 163.64772727272725,
                "end_time": 163.83181818181816,
                "pitch": 43,
                "velocity": 101,
                "duration": 0.1840909090909122,
                "tempo": 120.0
            },
            {
                "start_time": 163.8340909090909,
                "end_time": 164.01363636363635,
                "pitch": 41,
                "velocity": 101,
                "duration": 0.17954545454546178,
                "tempo": 120.0
            },
            {
                "start_time": 164.01590909090908,
                "end_time": 164.19772727272726,
                "pitch": 41,
                "velocity": 101,
                "duration": 0.18181818181818699,
                "tempo": 120.0
            },
            {
                "start_time": 164.2,
                "end_time": 164.37727272727273,
                "pitch": 41,
                "velocity": 101,
                "duration": 0.17727272727273657,
                "tempo": 120.0
            },
            {
                "start_time": 164.37954545454545,
                "end_time": 164.5568181818182,
                "pitch": 41,
                "velocity": 101,
                "duration": 0.17727272727273657,
                "tempo": 120.0
            },
            {
                "start_time": 164.5590909090909,
                "end_time": 164.74090909090907,
                "pitch": 41,
                "velocity": 101,
                "duration": 0.18181818181815856,
                "tempo": 120.0
            },
            {
                "start_time": 164.74090909090907,
                "end_time": 164.92499999999998,
                "pitch": 41,
                "velocity": 101,
                "duration": 0.1840909090909122,
                "tempo": 120.0
            },
            {
                "start_time": 164.92499999999998,
                "end_time": 165.10681818181817,
                "pitch": 41,
                "velocity": 101,
                "duration": 0.18181818181818699,
                "tempo": 120.0
            },
            {
                "start_time": 165.1090909090909,
                "end_time": 165.29090909090908,
                "pitch": 41,
                "velocity": 101,
                "duration": 0.18181818181818699,
                "tempo": 120.0
            },
            {
                "start_time": 165.2931818181818,
                "end_time": 165.47045454545454,
                "pitch": 41,
                "velocity": 101,
                "duration": 0.17727272727273657,
                "tempo": 120.0
            },
            {
                "start_time": 165.47272727272727,
                "end_time": 165.65,
                "pitch": 41,
                "velocity": 101,
                "duration": 0.17727272727273657,
                "tempo": 120.0
            },
            {
                "start_time": 165.65227272727273,
                "end_time": 165.8340909090909,
                "pitch": 41,
                "velocity": 101,
                "duration": 0.18181818181815856,
                "tempo": 120.0
            },
            {
                "start_time": 165.8340909090909,
                "end_time": 166.0181818181818,
                "pitch": 41,
                "velocity": 101,
                "duration": 0.1840909090909122,
                "tempo": 120.0
            },
            {
                "start_time": 166.0181818181818,
                "end_time": 166.2,
                "pitch": 41,
                "velocity": 101,
                "duration": 0.18181818181818699,
                "tempo": 120.0
            },
            {
                "start_time": 166.2022727272727,
                "end_time": 166.3840909090909,
                "pitch": 41,
                "velocity": 101,
                "duration": 0.18181818181818699,
                "tempo": 120.0
            },
            {
                "start_time": 166.38636363636363,
                "end_time": 166.5681818181818,
                "pitch": 41,
                "velocity": 101,
                "duration": 0.18181818181818699,
                "tempo": 120.0
            },
            {
                "start_time": 166.57045454545454,
                "end_time": 166.75227272727273,
                "pitch": 41,
                "velocity": 101,
                "duration": 0.18181818181818699,
                "tempo": 120.0
            },
            {
                "start_time": 166.75454545454545,
                "end_time": 166.9318181818182,
                "pitch": 39,
                "velocity": 101,
                "duration": 0.17727272727273657,
                "tempo": 120.0
            },
            {
                "start_time": 166.9318181818182,
                "end_time": 167.11136363636362,
                "pitch": 39,
                "velocity": 101,
                "duration": 0.17954545454543336,
                "tempo": 120.0
            },
            {
                "start_time": 167.11363636363635,
                "end_time": 167.2931818181818,
                "pitch": 39,
                "velocity": 101,
                "duration": 0.17954545454546178,
                "tempo": 120.0
            },
            {
                "start_time": 167.29545454545453,
                "end_time": 167.47727272727272,
                "pitch": 39,
                "velocity": 101,
                "duration": 0.18181818181818699,
                "tempo": 120.0
            },
            {
                "start_time": 167.47954545454544,
                "end_time": 167.66136363636363,
                "pitch": 39,
                "velocity": 101,
                "duration": 0.18181818181818699,
                "tempo": 120.0
            },
            {
                "start_time": 167.66363636363636,
                "end_time": 167.84545454545454,
                "pitch": 39,
                "velocity": 101,
                "duration": 0.18181818181818699,
                "tempo": 120.0
            },
            {
                "start_time": 167.84772727272727,
                "end_time": 168.02954545454546,
                "pitch": 39,
                "velocity": 101,
                "duration": 0.18181818181818699,
                "tempo": 120.0
            },
            {
                "start_time": 168.03181818181818,
                "end_time": 168.21363636363637,
                "pitch": 39,
                "velocity": 101,
                "duration": 0.18181818181818699,
                "tempo": 120.0
            },
            {
                "start_time": 168.2159090909091,
                "end_time": 168.39090909090908,
                "pitch": 39,
                "velocity": 101,
                "duration": 0.17499999999998295,
                "tempo": 120.0
            },
            {
                "start_time": 168.3931818181818,
                "end_time": 168.57272727272726,
                "pitch": 39,
                "velocity": 101,
                "duration": 0.17954545454546178,
                "tempo": 120.0
            },
            {
                "start_time": 168.57272727272726,
                "end_time": 168.75454545454545,
                "pitch": 39,
                "velocity": 101,
                "duration": 0.18181818181818699,
                "tempo": 120.0
            },
            {
                "start_time": 168.75681818181818,
                "end_time": 168.93863636363636,
                "pitch": 39,
                "velocity": 101,
                "duration": 0.18181818181818699,
                "tempo": 120.0
            },
            {
                "start_time": 168.9409090909091,
                "end_time": 169.12272727272727,
                "pitch": 39,
                "velocity": 101,
                "duration": 0.18181818181818699,
                "tempo": 120.0
            },
            {
                "start_time": 169.125,
                "end_time": 169.3068181818182,
                "pitch": 39,
                "velocity": 101,
                "duration": 0.18181818181818699,
                "tempo": 120.0
            },
            {
                "start_time": 169.3068181818182,
                "end_time": 169.49090909090907,
                "pitch": 39,
                "velocity": 101,
                "duration": 0.18409090909088377,
                "tempo": 120.0
            },
            {
                "start_time": 169.4931818181818,
                "end_time": 169.67499999999998,
                "pitch": 39,
                "velocity": 101,
                "duration": 0.18181818181818699,
                "tempo": 120.0
            },
            {
                "start_time": 169.67499999999998,
                "end_time": 170.4,
                "pitch": 45,
                "velocity": 101,
                "duration": 0.7250000000000227,
                "tempo": 120.0
            },
            {
                "start_time": 170.40227272727273,
                "end_time": 171.125,
                "pitch": 46,
                "velocity": 101,
                "duration": 0.7227272727272691,
                "tempo": 120.0
            },
            {
                "start_time": 171.12727272727273,
                "end_time": 171.6772727272727,
                "pitch": 41,
                "velocity": 101,
                "duration": 0.549999999999983,
                "tempo": 120.0
            },
            {
                "start_time": 171.67954545454543,
                "end_time": 172.15454545454546,
                "pitch": 43,
                "velocity": 101,
                "duration": 0.47500000000002274,
                "tempo": 120.0
            },
            {
                "start_time": 158.70681818181816,
                "end_time": 172.15454545454546,
                "pitch": 55,
                "velocity": 101,
                "duration": 13.447727272727292,
                "tempo": 120.0
            },
            {
                "start_time": 158.58863636363637,
                "end_time": 172.18636363636364,
                "pitch": 31,
                "velocity": 101,
                "duration": 13.597727272727269,
                "tempo": 120.0
            },
            {
                "start_time": 172.15454545454546,
                "end_time": 172.18636363636364,
                "pitch": 42,
                "velocity": 101,
                "duration": 0.0318181818181813,
                "tempo": 120.0
            },
            {
                "start_time": 172.18636363636364,
                "end_time": 172.3022727272727,
                "pitch": 43,
                "velocity": 101,
                "duration": 0.11590909090907076,
                "tempo": 120.0
            },
            {
                "start_time": 172.15454545454546,
                "end_time": 172.30454545454543,
                "pitch": 55,
                "velocity": 101,
                "duration": 0.14999999999997726,
                "tempo": 120.0
            },
            {
                "start_time": 172.3022727272727,
                "end_time": 172.30454545454543,
                "pitch": 55,
                "velocity": 101,
                "duration": 0.0022727272727252057,
                "tempo": 120.0
            },
            {
                "start_time": 172.18636363636364,
                "end_time": 172.35454545454544,
                "pitch": 31,
                "velocity": 101,
                "duration": 0.16818181818180733,
                "tempo": 120.0
            },
            {
                "start_time": 172.30454545454543,
                "end_time": 172.35454545454544,
                "pitch": 43,
                "velocity": 101,
                "duration": 0.05000000000001137,
                "tempo": 120.0
            },
            {
                "start_time": 172.35454545454544,
                "end_time": 172.47045454545454,
                "pitch": 43,
                "velocity": 101,
                "duration": 0.11590909090909918,
                "tempo": 120.0
            },
            {
                "start_time": 172.35454545454544,
                "end_time": 172.52045454545453,
                "pitch": 31,
                "velocity": 101,
                "duration": 0.16590909090908212,
                "tempo": 120.0
            },
            {
                "start_time": 172.47045454545454,
                "end_time": 172.52045454545453,
                "pitch": 43,
                "velocity": 101,
                "duration": 0.04999999999998295,
                "tempo": 120.0
            },
            {
                "start_time": 172.52045454545453,
                "end_time": 172.58863636363637,
                "pitch": 43,
                "velocity": 101,
                "duration": 0.06818181818184144,
                "tempo": 120.0
            },
            {
                "start_time": 172.5909090909091,
                "end_time": 172.7681818181818,
                "pitch": 43,
                "velocity": 101,
                "duration": 0.17727272727270815,
                "tempo": 120.0
            },
            {
                "start_time": 172.77045454545453,
                "end_time": 172.95454545454544,
                "pitch": 43,
                "velocity": 101,
                "duration": 0.1840909090909122,
                "tempo": 120.0
            },
            {
                "start_time": 172.95454545454544,
                "end_time": 173.13636363636363,
                "pitch": 43,
                "velocity": 101,
                "duration": 0.18181818181818699,
                "tempo": 120.0
            },
            {
                "start_time": 173.13863636363635,
                "end_time": 173.32045454545454,
                "pitch": 43,
                "velocity": 101,
                "duration": 0.18181818181818699,
                "tempo": 120.0
            },
            {
                "start_time": 173.32272727272726,
                "end_time": 173.5,
                "pitch": 43,
                "velocity": 101,
                "duration": 0.17727272727273657,
                "tempo": 120.0
            },
            {
                "start_time": 173.50227272727273,
                "end_time": 173.67954545454543,
                "pitch": 43,
                "velocity": 101,
                "duration": 0.17727272727270815,
                "tempo": 120.0
            },
            {
                "start_time": 173.6818181818182,
                "end_time": 173.86363636363635,
                "pitch": 43,
                "velocity": 101,
                "duration": 0.18181818181815856,
                "tempo": 120.0
            },
            {
                "start_time": 173.86363636363635,
                "end_time": 174.04772727272726,
                "pitch": 43,
                "velocity": 101,
                "duration": 0.1840909090909122,
                "tempo": 120.0
            },
            {
                "start_time": 174.04999999999998,
                "end_time": 174.22954545454544,
                "pitch": 43,
                "velocity": 101,
                "duration": 0.17954545454546178,
                "tempo": 120.0
            },
            {
                "start_time": 174.23181818181817,
                "end_time": 174.41363636363636,
                "pitch": 43,
                "velocity": 101,
                "duration": 0.18181818181818699,
                "tempo": 120.0
            },
            {
                "start_time": 174.41590909090908,
                "end_time": 174.59318181818182,
                "pitch": 43,
                "velocity": 101,
                "duration": 0.17727272727273657,
                "tempo": 120.0
            },
            {
                "start_time": 174.59545454545454,
                "end_time": 174.77272727272725,
                "pitch": 43,
                "velocity": 101,
                "duration": 0.17727272727270815,
                "tempo": 120.0
            },
            {
                "start_time": 174.775,
                "end_time": 174.95681818181816,
                "pitch": 43,
                "velocity": 101,
                "duration": 0.18181818181815856,
                "tempo": 120.0
            },
            {
                "start_time": 174.9590909090909,
                "end_time": 175.14090909090908,
                "pitch": 43,
                "velocity": 101,
                "duration": 0.18181818181818699,
                "tempo": 120.0
            },
            {
                "start_time": 175.1431818181818,
                "end_time": 175.325,
                "pitch": 43,
                "velocity": 101,
                "duration": 0.18181818181818699,
                "tempo": 120.0
            },
            {
                "start_time": 175.325,
                "end_time": 175.50681818181818,
                "pitch": 43,
                "velocity": 101,
                "duration": 0.18181818181818699,
                "tempo": 120.0
            },
            {
                "start_time": 175.5090909090909,
                "end_time": 175.6909090909091,
                "pitch": 43,
                "velocity": 101,
                "duration": 0.18181818181818699,
                "tempo": 120.0
            },
            {
                "start_time": 175.6931818181818,
                "end_time": 175.875,
                "pitch": 43,
                "velocity": 101,
                "duration": 0.18181818181818699,
                "tempo": 120.0
            },
            {
                "start_time": 175.87727272727273,
                "end_time": 176.05454545454543,
                "pitch": 43,
                "velocity": 101,
                "duration": 0.17727272727270815,
                "tempo": 120.0
            },
            {
                "start_time": 176.0568181818182,
                "end_time": 176.2340909090909,
                "pitch": 43,
                "velocity": 101,
                "duration": 0.17727272727270815,
                "tempo": 120.0
            },
            {
                "start_time": 176.2340909090909,
                "end_time": 176.4181818181818,
                "pitch": 43,
                "velocity": 101,
                "duration": 0.1840909090909122,
                "tempo": 120.0
            },
            {
                "start_time": 176.4181818181818,
                "end_time": 176.6,
                "pitch": 43,
                "velocity": 101,
                "duration": 0.18181818181818699,
                "tempo": 120.0
            },
            {
                "start_time": 176.60227272727272,
                "end_time": 176.7840909090909,
                "pitch": 43,
                "velocity": 101,
                "duration": 0.18181818181818699,
                "tempo": 120.0
            },
            {
                "start_time": 176.78636363636363,
                "end_time": 176.96818181818182,
                "pitch": 43,
                "velocity": 101,
                "duration": 0.18181818181818699,
                "tempo": 120.0
            },
            {
                "start_time": 176.97045454545454,
                "end_time": 177.14545454545453,
                "pitch": 43,
                "velocity": 101,
                "duration": 0.17499999999998295,
                "tempo": 120.0
            },
            {
                "start_time": 177.14772727272725,
                "end_time": 177.325,
                "pitch": 43,
                "velocity": 101,
                "duration": 0.17727272727273657,
                "tempo": 120.0
            },
            {
                "start_time": 177.3272727272727,
                "end_time": 177.5090909090909,
                "pitch": 43,
                "velocity": 101,
                "duration": 0.18181818181818699,
                "tempo": 120.0
            },
            {
                "start_time": 177.51136363636363,
                "end_time": 177.6931818181818,
                "pitch": 43,
                "velocity": 101,
                "duration": 0.18181818181818699,
                "tempo": 120.0
            },
            {
                "start_time": 177.69545454545454,
                "end_time": 177.87727272727273,
                "pitch": 43,
                "velocity": 101,
                "duration": 0.18181818181818699,
                "tempo": 120.0
            },
            {
                "start_time": 177.87954545454545,
                "end_time": 178.06136363636364,
                "pitch": 43,
                "velocity": 101,
                "duration": 0.18181818181818699,
                "tempo": 120.0
            },
            {
                "start_time": 178.06136363636364,
                "end_time": 178.24545454545455,
                "pitch": 43,
                "velocity": 101,
                "duration": 0.1840909090909122,
                "tempo": 120.0
            },
            {
                "start_time": 178.24545454545455,
                "end_time": 178.42954545454543,
                "pitch": 43,
                "velocity": 101,
                "duration": 0.18409090909088377,
                "tempo": 120.0
            },
            {
                "start_time": 178.4318181818182,
                "end_time": 178.60681818181817,
                "pitch": 43,
                "velocity": 101,
                "duration": 0.17499999999998295,
                "tempo": 120.0
            },
            {
                "start_time": 178.6090909090909,
                "end_time": 178.78863636363636,
                "pitch": 43,
                "velocity": 101,
                "duration": 0.17954545454546178,
                "tempo": 120.0
            },
            {
                "start_time": 178.79090909090908,
                "end_time": 178.97045454545454,
                "pitch": 43,
                "velocity": 101,
                "duration": 0.17954545454546178,
                "tempo": 120.0
            },
            {
                "start_time": 178.97272727272727,
                "end_time": 179.15454545454546,
                "pitch": 43,
                "velocity": 101,
                "duration": 0.18181818181818699,
                "tempo": 120.0
            },
            {
                "start_time": 179.15681818181818,
                "end_time": 179.33863636363637,
                "pitch": 43,
                "velocity": 101,
                "duration": 0.18181818181818699,
                "tempo": 120.0
            },
            {
                "start_time": 179.3409090909091,
                "end_time": 179.52272727272725,
                "pitch": 43,
                "velocity": 101,
                "duration": 0.18181818181815856,
                "tempo": 120.0
            },
            {
                "start_time": 179.52499999999998,
                "end_time": 179.7022727272727,
                "pitch": 43,
                "velocity": 101,
                "duration": 0.17727272727273657,
                "tempo": 120.0
            },
            {
                "start_time": 179.70454545454544,
                "end_time": 179.88181818181818,
                "pitch": 43,
                "velocity": 101,
                "duration": 0.17727272727273657,
                "tempo": 120.0
            }
        ],
        "French Horn": [
            {
                "start_time": 172.59318181818182,
                "end_time": 173.14090909090908,
                "pitch": 55,
                "velocity": 64,
                "duration": 0.5477272727272577,
                "tempo": 120.0
            },
            {
                "start_time": 173.14090909090908,
                "end_time": 173.18863636363636,
                "pitch": 55,
                "velocity": 64,
                "duration": 0.04772727272728616,
                "tempo": 120.0
            },
            {
                "start_time": 173.18863636363636,
                "end_time": 173.1909090909091,
                "pitch": 43,
                "velocity": 64,
                "duration": 0.0022727272727252057,
                "tempo": 120.0
            },
            {
                "start_time": 173.1909090909091,
                "end_time": 173.3068181818182,
                "pitch": 55,
                "velocity": 64,
                "duration": 0.11590909090909918,
                "tempo": 120.0
            },
            {
                "start_time": 173.14090909090908,
                "end_time": 173.3068181818182,
                "pitch": 67,
                "velocity": 64,
                "duration": 0.16590909090911055,
                "tempo": 120.0
            },
            {
                "start_time": 173.3068181818182,
                "end_time": 173.32272727272726,
                "pitch": 55,
                "velocity": 64,
                "duration": 0.01590909090907644,
                "tempo": 120.0
            },
            {
                "start_time": 173.325,
                "end_time": 174.04999999999998,
                "pitch": 57,
                "velocity": 64,
                "duration": 0.7249999999999943,
                "tempo": 120.0
            },
            {
                "start_time": 174.0522727272727,
                "end_time": 174.775,
                "pitch": 58,
                "velocity": 64,
                "duration": 0.7227272727272975,
                "tempo": 120.0
            },
            {
                "start_time": 174.77727272727273,
                "end_time": 175.5090909090909,
                "pitch": 60,
                "velocity": 64,
                "duration": 0.7318181818181699,
                "tempo": 120.0
            },
            {
                "start_time": 175.51136363636363,
                "end_time": 175.99090909090907,
                "pitch": 55,
                "velocity": 64,
                "duration": 0.4795454545454447,
                "tempo": 120.0
            },
            {
                "start_time": 173.3068181818182,
                "end_time": 175.99090909090907,
                "pitch": 67,
                "velocity": 64,
                "duration": 2.6840909090908838,
                "tempo": 120.0
            },
            {
                "start_time": 175.99090909090907,
                "end_time": 176.00681818181818,
                "pitch": 55,
                "velocity": 64,
                "duration": 0.01590909090910486,
                "tempo": 120.0
            },
            {
                "start_time": 176.00681818181818,
                "end_time": 176.12272727272727,
                "pitch": 55,
                "velocity": 64,
                "duration": 0.11590909090909918,
                "tempo": 120.0
            },
            {
                "start_time": 175.99090909090907,
                "end_time": 176.12272727272727,
                "pitch": 67,
                "velocity": 64,
                "duration": 0.13181818181820404,
                "tempo": 120.0
            },
            {
                "start_time": 176.00681818181818,
                "end_time": 176.17045454545453,
                "pitch": 43,
                "velocity": 64,
                "duration": 0.16363636363635692,
                "tempo": 120.0
            },
            {
                "start_time": 176.12272727272727,
                "end_time": 176.17045454545453,
                "pitch": 55,
                "velocity": 64,
                "duration": 0.04772727272725774,
                "tempo": 120.0
            },
            {
                "start_time": 176.17045454545453,
                "end_time": 176.28636363636363,
                "pitch": 55,
                "velocity": 64,
                "duration": 0.11590909090909918,
                "tempo": 120.0
            },
            {
                "start_time": 176.12272727272727,
                "end_time": 176.28636363636363,
                "pitch": 67,
                "velocity": 64,
                "duration": 0.16363636363635692,
                "tempo": 120.0
            },
            {
                "start_time": 176.17045454545453,
                "end_time": 176.33636363636361,
                "pitch": 43,
                "velocity": 64,
                "duration": 0.16590909090908212,
                "tempo": 120.0
            },
            {
                "start_time": 176.28636363636363,
                "end_time": 176.33636363636361,
                "pitch": 55,
                "velocity": 64,
                "duration": 0.04999999999998295,
                "tempo": 120.0
            },
            {
                "start_time": 176.33636363636361,
                "end_time": 176.4522727272727,
                "pitch": 55,
                "velocity": 64,
                "duration": 0.11590909090909918,
                "tempo": 120.0
            },
            {
                "start_time": 176.28636363636363,
                "end_time": 176.4522727272727,
                "pitch": 67,
                "velocity": 64,
                "duration": 0.16590909090908212,
                "tempo": 120.0
            },
            {
                "start_time": 176.4522727272727,
                "end_time": 176.50227272727273,
                "pitch": 55,
                "velocity": 64,
                "duration": 0.05000000000001137,
                "tempo": 120.0
            },
            {
                "start_time": 176.33636363636361,
                "end_time": 176.50454545454545,
                "pitch": 43,
                "velocity": 64,
                "duration": 0.16818181818183575,
                "tempo": 120.0
            },
            {
                "start_time": 176.50227272727273,
                "end_time": 176.50454545454545,
                "pitch": 43,
                "velocity": 64,
                "duration": 0.0022727272727252057,
                "tempo": 120.0
            },
            {
                "start_time": 176.50454545454545,
                "end_time": 176.62045454545455,
                "pitch": 55,
                "velocity": 64,
                "duration": 0.11590909090909918,
                "tempo": 120.0
            },
            {
                "start_time": 176.4522727272727,
                "end_time": 176.62045454545455,
                "pitch": 67,
                "velocity": 64,
                "duration": 0.16818181818183575,
                "tempo": 120.0
            },
            {
                "start_time": 176.62045454545455,
                "end_time": 176.67045454545453,
                "pitch": 55,
                "velocity": 64,
                "duration": 0.04999999999998295,
                "tempo": 120.0
            },
            {
                "start_time": 176.67045454545453,
                "end_time": 176.78863636363636,
                "pitch": 55,
                "velocity": 64,
                "duration": 0.11818181818182438,
                "tempo": 120.0
            },
            {
                "start_time": 176.62045454545455,
                "end_time": 176.78863636363636,
                "pitch": 67,
                "velocity": 64,
                "duration": 0.16818181818180733,
                "tempo": 120.0
            },
            {
                "start_time": 176.67045454545453,
                "end_time": 176.83636363636361,
                "pitch": 43,
                "velocity": 64,
                "duration": 0.16590909090908212,
                "tempo": 120.0
            },
            {
                "start_time": 176.78863636363636,
                "end_time": 176.83636363636361,
                "pitch": 55,
                "velocity": 64,
                "duration": 0.04772727272725774,
                "tempo": 120.0
            },
            {
                "start_time": 176.83636363636361,
                "end_time": 176.95454545454544,
                "pitch": 55,
                "velocity": 64,
                "duration": 0.11818181818182438,
                "tempo": 120.0
            },
            {
                "start_time": 176.78863636363636,
                "end_time": 176.95454545454544,
                "pitch": 67,
                "velocity": 64,
                "duration": 0.16590909090908212,
                "tempo": 120.0
            },
            {
                "start_time": 176.95454545454544,
                "end_time": 176.97045454545454,
                "pitch": 55,
                "velocity": 64,
                "duration": 0.01590909090910486,
                "tempo": 120.0
            },
            {
                "start_time": 178.4318181818182,
                "end_time": 178.9409090909091,
                "pitch": 55,
                "velocity": 64,
                "duration": 0.5090909090909008,
                "tempo": 120.0
            },
            {
                "start_time": 176.95454545454544,
                "end_time": 178.9409090909091,
                "pitch": 67,
                "velocity": 64,
                "duration": 1.9863636363636488,
                "tempo": 120.0
            },
            {
                "start_time": 176.83636363636361,
                "end_time": 178.99090909090907,
                "pitch": 43,
                "velocity": 64,
                "duration": 2.154545454545456,
                "tempo": 120.0
            },
            {
                "start_time": 178.9409090909091,
                "end_time": 178.99090909090907,
                "pitch": 55,
                "velocity": 64,
                "duration": 0.04999999999998295,
                "tempo": 120.0
            },
            {
                "start_time": 178.99090909090907,
                "end_time": 179.10681818181817,
                "pitch": 55,
                "velocity": 64,
                "duration": 0.11590909090909918,
                "tempo": 120.0
            },
            {
                "start_time": 178.9409090909091,
                "end_time": 179.10681818181817,
                "pitch": 67,
                "velocity": 64,
                "duration": 0.16590909090908212,
                "tempo": 120.0
            },
            {
                "start_time": 179.10681818181817,
                "end_time": 179.15681818181818,
                "pitch": 55,
                "velocity": 64,
                "duration": 0.05000000000001137,
                "tempo": 120.0
            },
            {
                "start_time": 179.1590909090909,
                "end_time": 179.8840909090909,
                "pitch": 57,
                "velocity": 64,
                "duration": 0.7249999999999943,
                "tempo": 120.0
            }
        ],
        "Electric Piano 1": [
            {
                "start_time": 145.6,
                "end_time": 145.9590909090909,
                "pitch": 67,
                "velocity": 20,
                "duration": 0.35909090909089514,
                "tempo": 120.0
            },
            {
                "start_time": 145.96136363636364,
                "end_time": 146.32272727272726,
                "pitch": 67,
                "velocity": 25,
                "duration": 0.36136363636362034,
                "tempo": 120.0
            },
            {
                "start_time": 146.325,
                "end_time": 146.66590909090908,
                "pitch": 67,
                "velocity": 32,
                "duration": 0.3409090909090935,
                "tempo": 120.0
            },
            {
                "start_time": 146.67045454545453,
                "end_time": 146.98863636363635,
                "pitch": 67,
                "velocity": 40,
                "duration": 0.318181818181813,
                "tempo": 120.0
            },
            {
                "start_time": 146.99318181818182,
                "end_time": 147.31363636363636,
                "pitch": 67,
                "velocity": 40,
                "duration": 0.3204545454545382,
                "tempo": 120.0
            },
            {
                "start_time": 147.3159090909091,
                "end_time": 147.54545454545453,
                "pitch": 67,
                "velocity": 51,
                "duration": 0.22954545454544473,
                "tempo": 120.0
            },
            {
                "start_time": 147.54772727272726,
                "end_time": 147.77272727272725,
                "pitch": 67,
                "velocity": 51,
                "duration": 0.22499999999999432,
                "tempo": 120.0
            },
            {
                "start_time": 147.775,
                "end_time": 147.9522727272727,
                "pitch": 67,
                "velocity": 64,
                "duration": 0.17727272727270815,
                "tempo": 120.0
            },
            {
                "start_time": 147.95454545454544,
                "end_time": 148.13181818181818,
                "pitch": 67,
                "velocity": 64,
                "duration": 0.17727272727273657,
                "tempo": 120.0
            },
            {
                "start_time": 148.13181818181818,
                "end_time": 148.32045454545454,
                "pitch": 67,
                "velocity": 64,
                "duration": 0.1886363636363626,
                "tempo": 120.0
            },
            {
                "start_time": 148.32272727272726,
                "end_time": 148.5090909090909,
                "pitch": 67,
                "velocity": 64,
                "duration": 0.1863636363636374,
                "tempo": 120.0
            },
            {
                "start_time": 148.51136363636363,
                "end_time": 148.68863636363636,
                "pitch": 67,
                "velocity": 80,
                "duration": 0.17727272727273657,
                "tempo": 120.0
            },
            {
                "start_time": 148.6909090909091,
                "end_time": 148.86818181818182,
                "pitch": 67,
                "velocity": 80,
                "duration": 0.17727272727273657,
                "tempo": 120.0
            },
            {
                "start_time": 148.87045454545455,
                "end_time": 149.0522727272727,
                "pitch": 67,
                "velocity": 80,
                "duration": 0.18181818181815856,
                "tempo": 120.0
            },
            {
                "start_time": 149.05454545454543,
                "end_time": 149.23636363636362,
                "pitch": 67,
                "velocity": 80,
                "duration": 0.18181818181818699,
                "tempo": 120.0
            },
            {
                "start_time": 149.23863636363635,
                "end_time": 149.59545454545454,
                "pitch": 67,
                "velocity": 101,
                "duration": 0.35681818181819835,
                "tempo": 120.0
            },
            {
                "start_time": 149.59545454545454,
                "end_time": 149.96136363636364,
                "pitch": 75,
                "velocity": 101,
                "duration": 0.3659090909090992,
                "tempo": 120.0
            },
            {
                "start_time": 149.96363636363637,
                "end_time": 150.32954545454544,
                "pitch": 74,
                "velocity": 101,
                "duration": 0.36590909090907076,
                "tempo": 120.0
            },
            {
                "start_time": 150.33181818181816,
                "end_time": 150.68863636363636,
                "pitch": 72,
                "velocity": 101,
                "duration": 0.35681818181819835,
                "tempo": 120.0
            },
            {
                "start_time": 150.6909090909091,
                "end_time": 151.05454545454543,
                "pitch": 70,
                "velocity": 101,
                "duration": 0.36363636363634555,
                "tempo": 120.0
            },
            {
                "start_time": 151.0568181818182,
                "end_time": 151.42272727272726,
                "pitch": 72,
                "velocity": 101,
                "duration": 0.36590909090907076,
                "tempo": 120.0
            },
            {
                "start_time": 151.42499999999998,
                "end_time": 151.60227272727272,
                "pitch": 74,
                "velocity": 101,
                "duration": 0.17727272727273657,
                "tempo": 120.0
            },
            {
                "start_time": 151.60454545454544,
                "end_time": 152.16136363636363,
                "pitch": 75,
                "velocity": 101,
                "duration": 0.556818181818187,
                "tempo": 120.0
            },
            {
                "start_time": 152.16136363636363,
                "end_time": 152.5181818181818,
                "pitch": 67,
                "velocity": 101,
                "duration": 0.35681818181816993,
                "tempo": 120.0
            },
            {
                "start_time": 152.52045454545453,
                "end_time": 152.88636363636363,
                "pitch": 74,
                "velocity": 101,
                "duration": 0.3659090909090992,
                "tempo": 120.0
            },
            {
                "start_time": 152.88636363636363,
                "end_time": 153.24318181818182,
                "pitch": 72,
                "velocity": 101,
                "duration": 0.35681818181819835,
                "tempo": 120.0
            },
            {
                "start_time": 153.24545454545455,
                "end_time": 153.61136363636362,
                "pitch": 70,
                "velocity": 101,
                "duration": 0.36590909090907076,
                "tempo": 120.0
            },
            {
                "start_time": 153.61363636363635,
                "end_time": 153.97954545454544,
                "pitch": 69,
                "velocity": 101,
                "duration": 0.3659090909090992,
                "tempo": 120.0
            },
            {
                "start_time": 153.98181818181817,
                "end_time": 154.34545454545454,
                "pitch": 70,
                "velocity": 101,
                "duration": 0.36363636363637397,
                "tempo": 120.0
            },
            {
                "start_time": 154.34772727272727,
                "end_time": 154.525,
                "pitch": 72,
                "velocity": 101,
                "duration": 0.17727272727273657,
                "tempo": 120.0
            },
            {
                "start_time": 154.52727272727273,
                "end_time": 155.07272727272726,
                "pitch": 74,
                "velocity": 101,
                "duration": 0.5454545454545325,
                "tempo": 120.0
            },
            {
                "start_time": 155.075,
                "end_time": 155.4409090909091,
                "pitch": 65,
                "velocity": 101,
                "duration": 0.3659090909090992,
                "tempo": 120.0
            },
            {
                "start_time": 155.4409090909091,
                "end_time": 155.79772727272726,
                "pitch": 72,
                "velocity": 101,
                "duration": 0.35681818181816993,
                "tempo": 120.0
            },
            {
                "start_time": 155.79999999999998,
                "end_time": 156.16590909090908,
                "pitch": 70,
                "velocity": 101,
                "duration": 0.3659090909090992,
                "tempo": 120.0
            },
            {
                "start_time": 156.1681818181818,
                "end_time": 156.5340909090909,
                "pitch": 69,
                "velocity": 101,
                "duration": 0.3659090909090992,
                "tempo": 120.0
            },
            {
                "start_time": 156.5340909090909,
                "end_time": 156.89090909090908,
                "pitch": 67,
                "velocity": 101,
                "duration": 0.35681818181816993,
                "tempo": 120.0
            },
            {
                "start_time": 156.8931818181818,
                "end_time": 157.2590909090909,
                "pitch": 69,
                "velocity": 101,
                "duration": 0.3659090909090992,
                "tempo": 120.0
            },
            {
                "start_time": 157.26136363636363,
                "end_time": 157.4431818181818,
                "pitch": 70,
                "velocity": 101,
                "duration": 0.18181818181818699,
                "tempo": 120.0
            },
            {
                "start_time": 157.44545454545454,
                "end_time": 157.81136363636364,
                "pitch": 72,
                "velocity": 101,
                "duration": 0.3659090909090992,
                "tempo": 120.0
            },
            {
                "start_time": 157.81363636363636,
                "end_time": 157.99545454545455,
                "pitch": 65,
                "velocity": 101,
                "duration": 0.18181818181818699,
                "tempo": 120.0
            },
            {
                "start_time": 157.99545454545455,
                "end_time": 158.47045454545454,
                "pitch": 67,
                "velocity": 101,
                "duration": 0.4749999999999943,
                "tempo": 120.0
            },
            {
                "start_time": 158.47045454545454,
                "end_time": 158.50454545454545,
                "pitch": 67,
                "velocity": 101,
                "duration": 0.03409090909090651,
                "tempo": 120.0
            },
            {
                "start_time": 158.50454545454545,
                "end_time": 158.62045454545455,
                "pitch": 67,
                "velocity": 101,
                "duration": 0.11590909090909918,
                "tempo": 120.0
            },
            {
                "start_time": 158.47045454545454,
                "end_time": 158.62045454545455,
                "pitch": 79,
                "velocity": 101,
                "duration": 0.15000000000000568,
                "tempo": 120.0
            },
            {
                "start_time": 158.50454545454545,
                "end_time": 158.67045454545453,
                "pitch": 55,
                "velocity": 101,
                "duration": 0.16590909090908212,
                "tempo": 120.0
            },
            {
                "start_time": 158.62045454545455,
                "end_time": 158.67045454545453,
                "pitch": 67,
                "velocity": 101,
                "duration": 0.04999999999998295,
                "tempo": 120.0
            },
            {
                "start_time": 158.67045454545453,
                "end_time": 158.72045454545454,
                "pitch": 67,
                "velocity": 101,
                "duration": 0.05000000000001137,
                "tempo": 120.0
            },
            {
                "start_time": 158.72272727272727,
                "end_time": 159.44545454545454,
                "pitch": 69,
                "velocity": 101,
                "duration": 0.7227272727272691,
                "tempo": 120.0
            },
            {
                "start_time": 159.44772727272726,
                "end_time": 159.99772727272727,
                "pitch": 70,
                "velocity": 101,
                "duration": 0.5500000000000114,
                "tempo": 120.0
            },
            {
                "start_time": 160.0,
                "end_time": 160.54772727272726,
                "pitch": 72,
                "velocity": 101,
                "duration": 0.5477272727272577,
                "tempo": 120.0
            },
            {
                "start_time": 160.54999999999998,
                "end_time": 160.72727272727272,
                "pitch": 67,
                "velocity": 101,
                "duration": 0.17727272727273657,
                "tempo": 120.0
            },
            {
                "start_time": 160.9090909090909,
                "end_time": 161.275,
                "pitch": 67,
                "velocity": 101,
                "duration": 0.3659090909090992,
                "tempo": 120.0
            },
            {
                "start_time": 161.27727272727273,
                "end_time": 161.64090909090908,
                "pitch": 75,
                "velocity": 101,
                "duration": 0.36363636363634555,
                "tempo": 120.0
            },
            {
                "start_time": 161.6431818181818,
                "end_time": 162.0,
                "pitch": 74,
                "velocity": 101,
                "duration": 0.35681818181819835,
                "tempo": 120.0
            },
            {
                "start_time": 162.00227272727273,
                "end_time": 162.36818181818182,
                "pitch": 72,
                "velocity": 101,
                "duration": 0.3659090909090992,
                "tempo": 120.0
            },
            {
                "start_time": 162.37045454545455,
                "end_time": 162.7340909090909,
                "pitch": 70,
                "velocity": 101,
                "duration": 0.36363636363634555,
                "tempo": 120.0
            },
            {
                "start_time": 162.73636363636362,
                "end_time": 163.10227272727272,
                "pitch": 72,
                "velocity": 101,
                "duration": 0.3659090909090992,
                "tempo": 120.0
            },
            {
                "start_time": 163.10454545454544,
                "end_time": 163.28181818181818,
                "pitch": 74,
                "velocity": 101,
                "duration": 0.17727272727273657,
                "tempo": 120.0
            },
            {
                "start_time": 163.2840909090909,
                "end_time": 163.82954545454544,
                "pitch": 75,
                "velocity": 101,
                "duration": 0.5454545454545325,
                "tempo": 120.0
            },
            {
                "start_time": 163.83181818181816,
                "end_time": 164.19545454545454,
                "pitch": 67,
                "velocity": 101,
                "duration": 0.36363636363637397,
                "tempo": 120.0
            },
            {
                "start_time": 164.19772727272726,
                "end_time": 164.55454545454543,
                "pitch": 74,
                "velocity": 101,
                "duration": 0.35681818181816993,
                "tempo": 120.0
            },
            {
                "start_time": 164.5568181818182,
                "end_time": 164.92272727272726,
                "pitch": 72,
                "velocity": 101,
                "duration": 0.36590909090907076,
                "tempo": 120.0
            },
            {
                "start_time": 164.92499999999998,
                "end_time": 165.28863636363636,
                "pitch": 70,
                "velocity": 101,
                "duration": 0.36363636363637397,
                "tempo": 120.0
            },
            {
                "start_time": 165.29090909090908,
                "end_time": 165.64772727272725,
                "pitch": 69,
                "velocity": 101,
                "duration": 0.35681818181816993,
                "tempo": 120.0
            },
            {
                "start_time": 165.65,
                "end_time": 166.01590909090908,
                "pitch": 70,
                "velocity": 101,
                "duration": 0.36590909090907076,
                "tempo": 120.0
            },
            {
                "start_time": 166.0181818181818,
                "end_time": 166.2,
                "pitch": 72,
                "velocity": 101,
                "duration": 0.18181818181818699,
                "tempo": 120.0
            },
            {
                "start_time": 166.2,
                "end_time": 166.75,
                "pitch": 74,
                "velocity": 101,
                "duration": 0.5500000000000114,
                "tempo": 120.0
            },
            {
                "start_time": 166.75227272727273,
                "end_time": 167.1090909090909,
                "pitch": 65,
                "velocity": 101,
                "duration": 0.35681818181816993,
                "tempo": 120.0
            },
            {
                "start_time": 167.11136363636362,
                "end_time": 167.47727272727272,
                "pitch": 72,
                "velocity": 101,
                "duration": 0.3659090909090992,
                "tempo": 120.0
            },
            {
                "start_time": 167.47727272727272,
                "end_time": 167.84318181818182,
                "pitch": 70,
                "velocity": 101,
                "duration": 0.3659090909090992,
                "tempo": 120.0
            },
            {
                "start_time": 167.84545454545454,
                "end_time": 168.21136363636361,
                "pitch": 69,
                "velocity": 101,
                "duration": 0.36590909090907076,
                "tempo": 120.0
            },
            {
                "start_time": 168.21363636363637,
                "end_time": 168.57045454545454,
                "pitch": 67,
                "velocity": 101,
                "duration": 0.35681818181816993,
                "tempo": 120.0
            },
            {
                "start_time": 168.57045454545454,
                "end_time": 168.93636363636364,
                "pitch": 69,
                "velocity": 101,
                "duration": 0.3659090909090992,
                "tempo": 120.0
            },
            {
                "start_time": 168.93863636363636,
                "end_time": 169.12045454545455,
                "pitch": 70,
                "velocity": 101,
                "duration": 0.18181818181818699,
                "tempo": 120.0
            },
            {
                "start_time": 169.12272727272727,
                "end_time": 169.48863636363635,
                "pitch": 72,
                "velocity": 101,
                "duration": 0.36590909090907076,
                "tempo": 120.0
            },
            {
                "start_time": 169.49090909090907,
                "end_time": 169.67272727272726,
                "pitch": 67,
                "velocity": 101,
                "duration": 0.18181818181818699,
                "tempo": 120.0
            },
            {
                "start_time": 169.67499999999998,
                "end_time": 170.39772727272725,
                "pitch": 69,
                "velocity": 101,
                "duration": 0.7227272727272691,
                "tempo": 120.0
            },
            {
                "start_time": 170.4,
                "end_time": 170.67499999999998,
                "pitch": 70,
                "velocity": 101,
                "duration": 0.27499999999997726,
                "tempo": 120.0
            },
            {
                "start_time": 170.6772727272727,
                "end_time": 170.9409090909091,
                "pitch": 69,
                "velocity": 101,
                "duration": 0.26363636363637966,
                "tempo": 120.0
            },
            {
                "start_time": 170.9431818181818,
                "end_time": 171.125,
                "pitch": 67,
                "velocity": 101,
                "duration": 0.18181818181818699,
                "tempo": 120.0
            },
            {
                "start_time": 171.125,
                "end_time": 171.67499999999998,
                "pitch": 65,
                "velocity": 101,
                "duration": 0.549999999999983,
                "tempo": 120.0
            },
            {
                "start_time": 171.6772727272727,
                "end_time": 172.21818181818182,
                "pitch": 67,
                "velocity": 101,
                "duration": 0.5409090909091105,
                "tempo": 120.0
            },
            {
                "start_time": 158.62045454545455,
                "end_time": 172.21818181818182,
                "pitch": 79,
                "velocity": 101,
                "duration": 13.597727272727269,
                "tempo": 120.0
            },
            {
                "start_time": 158.67045454545453,
                "end_time": 172.2681818181818,
                "pitch": 55,
                "velocity": 101,
                "duration": 13.597727272727269,
                "tempo": 120.0
            },
            {
                "start_time": 172.21818181818182,
                "end_time": 172.2681818181818,
                "pitch": 67,
                "velocity": 101,
                "duration": 0.04999999999998295,
                "tempo": 120.0
            },
            {
                "start_time": 172.2681818181818,
                "end_time": 172.38636363636363,
                "pitch": 67,
                "velocity": 101,
                "duration": 0.11818181818182438,
                "tempo": 120.0
            },
            {
                "start_time": 172.21818181818182,
                "end_time": 172.38636363636363,
                "pitch": 79,
                "velocity": 101,
                "duration": 0.16818181818180733,
                "tempo": 120.0
            },
            {
                "start_time": 172.2681818181818,
                "end_time": 172.43636363636364,
                "pitch": 55,
                "velocity": 101,
                "duration": 0.16818181818183575,
                "tempo": 120.0
            },
            {
                "start_time": 172.38636363636363,
                "end_time": 172.43636363636364,
                "pitch": 67,
                "velocity": 101,
                "duration": 0.05000000000001137,
                "tempo": 120.0
            },
            {
                "start_time": 172.43636363636364,
                "end_time": 172.5522727272727,
                "pitch": 67,
                "velocity": 101,
                "duration": 0.11590909090907076,
                "tempo": 120.0
            },
            {
                "start_time": 172.38636363636363,
                "end_time": 172.5522727272727,
                "pitch": 79,
                "velocity": 101,
                "duration": 0.16590909090908212,
                "tempo": 120.0
            },
            {
                "start_time": 172.5522727272727,
                "end_time": 172.58636363636361,
                "pitch": 67,
                "velocity": 101,
                "duration": 0.03409090909090651,
                "tempo": 120.0
            },
            {
                "start_time": 172.43636363636364,
                "end_time": 173.32045454545454,
                "pitch": 55,
                "velocity": 101,
                "duration": 0.8840909090909008,
                "tempo": 120.0
            },
            {
                "start_time": 172.95454545454544,
                "end_time": 173.32045454545454,
                "pitch": 55,
                "velocity": 101,
                "duration": 0.3659090909090992,
                "tempo": 120.0
            },
            {
                "start_time": 173.32045454545454,
                "end_time": 173.6772727272727,
                "pitch": 57,
                "velocity": 101,
                "duration": 0.35681818181816993,
                "tempo": 120.0
            },
            {
                "start_time": 173.67954545454543,
                "end_time": 174.04545454545453,
                "pitch": 58,
                "velocity": 101,
                "duration": 0.3659090909090992,
                "tempo": 120.0
            },
            {
                "start_time": 174.04772727272726,
                "end_time": 174.41363636363636,
                "pitch": 60,
                "velocity": 101,
                "duration": 0.3659090909090992,
                "tempo": 120.0
            },
            {
                "start_time": 174.41363636363636,
                "end_time": 174.77045454545453,
                "pitch": 63,
                "velocity": 101,
                "duration": 0.35681818181816993,
                "tempo": 120.0
            },
            {
                "start_time": 174.77272727272725,
                "end_time": 175.13863636363635,
                "pitch": 62,
                "velocity": 101,
                "duration": 0.3659090909090992,
                "tempo": 120.0
            },
            {
                "start_time": 175.14090909090908,
                "end_time": 175.32272727272726,
                "pitch": 60,
                "velocity": 101,
                "duration": 0.18181818181818699,
                "tempo": 120.0
            },
            {
                "start_time": 175.325,
                "end_time": 176.96818181818182,
                "pitch": 58,
                "velocity": 101,
                "duration": 1.64318181818183,
                "tempo": 120.0
            },
            {
                "start_time": 178.78863636363636,
                "end_time": 179.15454545454546,
                "pitch": 55,
                "velocity": 101,
                "duration": 0.3659090909090992,
                "tempo": 120.0
            },
            {
                "start_time": 179.15454545454546,
                "end_time": 179.52045454545453,
                "pitch": 57,
                "velocity": 101,
                "duration": 0.36590909090907076,
                "tempo": 120.0
            },
            {
                "start_time": 179.52272727272725,
                "end_time": 179.87954545454545,
                "pitch": 58,
                "velocity": 101,
                "duration": 0.35681818181819835,
                "tempo": 120.0
            }
        ]
    }
}