{
    "track_id": "02 Prologue DIA51",
    "mood": "angry",
    "instruments": {
        "Acoustic Bass": [
            {
                "start_time": 0.015909090909090907,
                "end_time": 0.27954545454545454,
                "pitch": 43,
                "velocity": 80,
                "duration": 0.2636363636363636,
                "tempo": 120.0
            },
            {
                "start_time": 0.27954545454545454,
                "end_time": 0.5295454545454545,
                "pitch": 43,
                "velocity": 80,
                "duration": 0.25,
                "tempo": 120.0
            },
            {
                "start_time": 0.5295454545454545,
                "end_time": 0.7840909090909091,
                "pitch": 43,
                "velocity": 80,
                "duration": 0.2545454545454545,
                "tempo": 120.0
            },
            {
                "start_time": 0.7840909090909091,
                "end_time": 1.0409090909090908,
                "pitch": 43,
                "velocity": 80,
                "duration": 0.2568181818181817,
                "tempo": 120.0
            },
            {
                "start_time": 1.0409090909090908,
                "end_time": 1.2954545454545454,
                "pitch": 43,
                "velocity": 80,
                "duration": 0.25454545454545463,
                "tempo": 120.0
            },
            {
                "start_time": 1.2954545454545454,
                "end_time": 1.5522727272727272,
                "pitch": 43,
                "velocity": 80,
                "duration": 0.25681818181818183,
                "tempo": 120.0
            },
            {
                "start_time": 1.5522727272727272,
                "end_time": 1.7977272727272726,
                "pitch": 43,
                "velocity": 80,
                "duration": 0.24545454545454537,
                "tempo": 120.0
            },
            {
                "start_time": 1.7977272727272726,
                "end_time": 2.040909090909091,
                "pitch": 43,
                "velocity": 80,
                "duration": 0.2431818181818184,
                "tempo": 120.0
            },
            {
                "start_time": 2.040909090909091,
                "end_time": 2.290909090909091,
                "pitch": 43,
                "velocity": 80,
                "duration": 0.25,
                "tempo": 120.0
            },
            {
                "start_time": 2.290909090909091,
                "end_time": 2.540909090909091,
                "pitch": 43,
                "velocity": 80,
                "duration": 0.25,
                "tempo": 120.0
            },
            {
                "start_time": 2.540909090909091,
                "end_time": 2.7886363636363636,
                "pitch": 43,
                "velocity": 80,
                "duration": 0.24772727272727257,
                "tempo": 120.0
            },
            {
                "start_time": 2.7886363636363636,
                "end_time": 3.0386363636363636,
                "pitch": 43,
                "velocity": 80,
                "duration": 0.25,
                "tempo": 120.0
            },
            {
                "start_time": 3.0386363636363636,
                "end_time": 3.2886363636363636,
                "pitch": 43,
                "velocity": 80,
                "duration": 0.25,
                "tempo": 120.0
            },
            {
                "start_time": 3.2886363636363636,
                "end_time": 3.536363636363636,
                "pitch": 38,
                "velocity": 80,
                "duration": 0.24772727272727257,
                "tempo": 120.0
            },
            {
                "start_time": 3.536363636363636,
                "end_time": 3.786363636363636,
                "pitch": 41,
                "velocity": 80,
                "duration": 0.25,
                "tempo": 120.0
            },
            {
                "start_time": 3.786363636363636,
                "end_time": 4.036363636363636,
                "pitch": 41,
                "velocity": 80,
                "duration": 0.25,
                "tempo": 120.0
            },
            {
                "start_time": 4.036363636363636,
                "end_time": 4.286363636363636,
                "pitch": 43,
                "velocity": 80,
                "duration": 0.25,
                "tempo": 120.0
            },
            {
                "start_time": 4.286363636363636,
                "end_time": 4.554545454545455,
                "pitch": 43,
                "velocity": 80,
                "duration": 0.2681818181818185,
                "tempo": 120.0
            },
            {
                "start_time": 4.554545454545455,
                "end_time": 4.809090909090909,
                "pitch": 43,
                "velocity": 80,
                "duration": 0.25454545454545396,
                "tempo": 120.0
            },
            {
                "start_time": 4.809090909090909,
                "end_time": 5.0659090909090905,
                "pitch": 43,
                "velocity": 80,
                "duration": 0.25681818181818183,
                "tempo": 120.0
            },
            {
                "start_time": 3.2886363636363636,
                "end_time": 5.3159090909090905,
                "pitch": 31,
                "velocity": 80,
                "duration": 2.027272727272727,
                "tempo": 120.0
            },
            {
                "start_time": 5.0659090909090905,
                "end_time": 5.3159090909090905,
                "pitch": 43,
                "velocity": 80,
                "duration": 0.25,
                "tempo": 120.0
            },
            {
                "start_time": 3.536363636363636,
                "end_time": 5.5636363636363635,
                "pitch": 38,
                "velocity": 80,
                "duration": 2.0272727272727273,
                "tempo": 120.0
            },
            {
                "start_time": 5.3159090909090905,
                "end_time": 5.5636363636363635,
                "pitch": 38,
                "velocity": 80,
                "duration": 0.24772727272727302,
                "tempo": 120.0
            },
            {
                "start_time": 5.5636363636363635,
                "end_time": 5.8136363636363635,
                "pitch": 41,
                "velocity": 80,
                "duration": 0.25,
                "tempo": 120.0
            },
            {
                "start_time": 5.8136363636363635,
                "end_time": 6.0613636363636365,
                "pitch": 41,
                "velocity": 80,
                "duration": 0.24772727272727302,
                "tempo": 120.0
            },
            {
                "start_time": 6.0613636363636365,
                "end_time": 6.311363636363636,
                "pitch": 43,
                "velocity": 80,
                "duration": 0.2499999999999991,
                "tempo": 120.0
            },
            {
                "start_time": 6.311363636363636,
                "end_time": 6.561363636363636,
                "pitch": 43,
                "velocity": 80,
                "duration": 0.25,
                "tempo": 120.0
            },
            {
                "start_time": 6.561363636363636,
                "end_time": 6.804545454545454,
                "pitch": 43,
                "velocity": 80,
                "duration": 0.24318181818181817,
                "tempo": 120.0
            },
            {
                "start_time": 6.804545454545454,
                "end_time": 7.05,
                "pitch": 43,
                "velocity": 80,
                "duration": 0.24545454545454604,
                "tempo": 120.0
            },
            {
                "start_time": 7.05,
                "end_time": 7.304545454545454,
                "pitch": 43,
                "velocity": 80,
                "duration": 0.25454545454545396,
                "tempo": 120.0
            },
            {
                "start_time": 7.304545454545454,
                "end_time": 7.561363636363636,
                "pitch": 43,
                "velocity": 80,
                "duration": 0.25681818181818183,
                "tempo": 120.0
            },
            {
                "start_time": 7.561363636363636,
                "end_time": 7.806818181818182,
                "pitch": 43,
                "velocity": 80,
                "duration": 0.24545454545454604,
                "tempo": 120.0
            },
            {
                "start_time": 5.3159090909090905,
                "end_time": 8.052272727272728,
                "pitch": 31,
                "velocity": 80,
                "duration": 2.736363636363637,
                "tempo": 120.0
            },
            {
                "start_time": 7.806818181818182,
                "end_time": 8.052272727272728,
                "pitch": 43,
                "velocity": 80,
                "duration": 0.24545454545454604,
                "tempo": 120.0
            },
            {
                "start_time": 8.052272727272728,
                "end_time": 8.299999999999999,
                "pitch": 41,
                "velocity": 80,
                "duration": 0.24772727272727124,
                "tempo": 120.0
            },
            {
                "start_time": 8.299999999999999,
                "end_time": 8.549999999999999,
                "pitch": 41,
                "velocity": 80,
                "duration": 0.25,
                "tempo": 120.0
            },
            {
                "start_time": 8.549999999999999,
                "end_time": 8.811363636363636,
                "pitch": 41,
                "velocity": 80,
                "duration": 0.2613636363636367,
                "tempo": 120.0
            },
            {
                "start_time": 8.811363636363636,
                "end_time": 9.056818181818182,
                "pitch": 41,
                "velocity": 80,
                "duration": 0.24545454545454604,
                "tempo": 120.0
            },
            {
                "start_time": 9.056818181818182,
                "end_time": 9.31590909090909,
                "pitch": 41,
                "velocity": 80,
                "duration": 0.25909090909090793,
                "tempo": 120.0
            },
            {
                "start_time": 9.31590909090909,
                "end_time": 9.575,
                "pitch": 41,
                "velocity": 80,
                "duration": 0.2590909090909097,
                "tempo": 120.0
            },
            {
                "start_time": 9.575,
                "end_time": 9.825,
                "pitch": 41,
                "velocity": 80,
                "duration": 0.25,
                "tempo": 120.0
            },
            {
                "start_time": 9.825,
                "end_time": 10.075,
                "pitch": 41,
                "velocity": 80,
                "duration": 0.25,
                "tempo": 120.0
            },
            {
                "start_time": 10.075,
                "end_time": 10.322727272727272,
                "pitch": 41,
                "velocity": 80,
                "duration": 0.24772727272727302,
                "tempo": 120.0
            },
            {
                "start_time": 10.322727272727272,
                "end_time": 10.572727272727272,
                "pitch": 40,
                "velocity": 80,
                "duration": 0.25,
                "tempo": 120.0
            },
            {
                "start_time": 10.572727272727272,
                "end_time": 10.822727272727272,
                "pitch": 40,
                "velocity": 80,
                "duration": 0.25,
                "tempo": 120.0
            },
            {
                "start_time": 10.822727272727272,
                "end_time": 11.070454545454545,
                "pitch": 40,
                "velocity": 80,
                "duration": 0.24772727272727302,
                "tempo": 120.0
            },
            {
                "start_time": 11.070454545454545,
                "end_time": 11.320454545454545,
                "pitch": 40,
                "velocity": 80,
                "duration": 0.25,
                "tempo": 120.0
            },
            {
                "start_time": 11.320454545454545,
                "end_time": 11.570454545454545,
                "pitch": 40,
                "velocity": 80,
                "duration": 0.25,
                "tempo": 120.0
            },
            {
                "start_time": 11.570454545454545,
                "end_time": 11.813636363636363,
                "pitch": 40,
                "velocity": 80,
                "duration": 0.24318181818181728,
                "tempo": 120.0
            },
            {
                "start_time": 11.813636363636363,
                "end_time": 12.059090909090909,
                "pitch": 40,
                "velocity": 80,
                "duration": 0.24545454545454604,
                "tempo": 120.0
            },
            {
                "start_time": 12.059090909090909,
                "end_time": 12.309090909090909,
                "pitch": 40,
                "velocity": 80,
                "duration": 0.25,
                "tempo": 120.0
            },
            {
                "start_time": 12.309090909090909,
                "end_time": 12.559090909090909,
                "pitch": 39,
                "velocity": 80,
                "duration": 0.25,
                "tempo": 120.0
            },
            {
                "start_time": 12.559090909090909,
                "end_time": 12.806818181818182,
                "pitch": 39,
                "velocity": 80,
                "duration": 0.24772727272727302,
                "tempo": 120.0
            },
            {
                "start_time": 12.806818181818182,
                "end_time": 13.072727272727272,
                "pitch": 39,
                "velocity": 80,
                "duration": 0.26590909090909065,
                "tempo": 120.0
            },
            {
                "start_time": 13.072727272727272,
                "end_time": 13.331818181818182,
                "pitch": 39,
                "velocity": 80,
                "duration": 0.2590909090909097,
                "tempo": 120.0
            },
            {
                "start_time": 13.331818181818182,
                "end_time": 13.593181818181817,
                "pitch": 39,
                "velocity": 80,
                "duration": 0.2613636363636349,
                "tempo": 120.0
            },
            {
                "start_time": 13.593181818181817,
                "end_time": 13.838636363636363,
                "pitch": 39,
                "velocity": 80,
                "duration": 0.24545454545454604,
                "tempo": 120.0
            },
            {
                "start_time": 13.838636363636363,
                "end_time": 14.084090909090909,
                "pitch": 39,
                "velocity": 80,
                "duration": 0.24545454545454604,
                "tempo": 120.0
            },
            {
                "start_time": 14.084090909090909,
                "end_time": 14.33181818181818,
                "pitch": 39,
                "velocity": 80,
                "duration": 0.24772727272727124,
                "tempo": 120.0
            },
            {
                "start_time": 5.5636363636363635,
                "end_time": 14.58181818181818,
                "pitch": 38,
                "velocity": 80,
                "duration": 9.018181818181816,
                "tempo": 120.0
            },
            {
                "start_time": 14.33181818181818,
                "end_time": 14.58181818181818,
                "pitch": 38,
                "velocity": 80,
                "duration": 0.25,
                "tempo": 120.0
            },
            {
                "start_time": 14.58181818181818,
                "end_time": 14.829545454545453,
                "pitch": 38,
                "velocity": 80,
                "duration": 0.24772727272727302,
                "tempo": 120.0
            },
            {
                "start_time": 14.829545454545453,
                "end_time": 15.079545454545453,
                "pitch": 38,
                "velocity": 80,
                "duration": 0.25,
                "tempo": 120.0
            },
            {
                "start_time": 15.079545454545453,
                "end_time": 15.329545454545453,
                "pitch": 38,
                "velocity": 80,
                "duration": 0.25,
                "tempo": 120.0
            },
            {
                "start_time": 15.329545454545453,
                "end_time": 15.577272727272726,
                "pitch": 38,
                "velocity": 80,
                "duration": 0.24772727272727302,
                "tempo": 120.0
            },
            {
                "start_time": 15.577272727272726,
                "end_time": 15.827272727272726,
                "pitch": 38,
                "velocity": 80,
                "duration": 0.25,
                "tempo": 120.0
            },
            {
                "start_time": 15.827272727272726,
                "end_time": 16.077272727272728,
                "pitch": 38,
                "velocity": 80,
                "duration": 0.2500000000000018,
                "tempo": 120.0
            },
            {
                "start_time": 16.077272727272728,
                "end_time": 16.325,
                "pitch": 40,
                "velocity": 80,
                "duration": 0.24772727272727124,
                "tempo": 120.0
            },
            {
                "start_time": 16.325,
                "end_time": 16.575,
                "pitch": 40,
                "velocity": 80,
                "duration": 0.25,
                "tempo": 120.0
            },
            {
                "start_time": 16.575,
                "end_time": 16.82272727272727,
                "pitch": 40,
                "velocity": 80,
                "duration": 0.24772727272727124,
                "tempo": 120.0
            },
            {
                "start_time": 16.82272727272727,
                "end_time": 17.07272727272727,
                "pitch": 40,
                "velocity": 80,
                "duration": 0.25,
                "tempo": 120.0
            },
            {
                "start_time": 17.07272727272727,
                "end_time": 17.33863636363636,
                "pitch": 40,
                "velocity": 80,
                "duration": 0.26590909090909065,
                "tempo": 120.0
            },
            {
                "start_time": 17.33863636363636,
                "end_time": 17.58863636363636,
                "pitch": 40,
                "velocity": 80,
                "duration": 0.25,
                "tempo": 120.0
            },
            {
                "start_time": 17.58863636363636,
                "end_time": 17.836363636363636,
                "pitch": 40,
                "velocity": 80,
                "duration": 0.2477272727272748,
                "tempo": 120.0
            },
            {
                "start_time": 17.836363636363636,
                "end_time": 18.086363636363636,
                "pitch": 40,
                "velocity": 80,
                "duration": 0.25,
                "tempo": 120.0
            },
            {
                "start_time": 18.086363636363636,
                "end_time": 18.34090909090909,
                "pitch": 40,
                "velocity": 80,
                "duration": 0.25454545454545396,
                "tempo": 120.0
            },
            {
                "start_time": 18.34090909090909,
                "end_time": 18.597727272727273,
                "pitch": 40,
                "velocity": 80,
                "duration": 0.2568181818181827,
                "tempo": 120.0
            },
            {
                "start_time": 18.597727272727273,
                "end_time": 18.84318181818182,
                "pitch": 40,
                "velocity": 80,
                "duration": 0.24545454545454604,
                "tempo": 120.0
            },
            {
                "start_time": 18.84318181818182,
                "end_time": 19.086363636363636,
                "pitch": 40,
                "velocity": 80,
                "duration": 0.24318181818181728,
                "tempo": 120.0
            },
            {
                "start_time": 19.086363636363636,
                "end_time": 19.34318181818182,
                "pitch": 40,
                "velocity": 80,
                "duration": 0.2568181818181827,
                "tempo": 120.0
            },
            {
                "start_time": 19.34318181818182,
                "end_time": 19.597727272727273,
                "pitch": 40,
                "velocity": 80,
                "duration": 0.25454545454545396,
                "tempo": 120.0
            },
            {
                "start_time": 19.597727272727273,
                "end_time": 19.84318181818182,
                "pitch": 40,
                "velocity": 80,
                "duration": 0.24545454545454604,
                "tempo": 120.0
            },
            {
                "start_time": 19.84318181818182,
                "end_time": 20.08863636363636,
                "pitch": 40,
                "velocity": 80,
                "duration": 0.24545454545454248,
                "tempo": 120.0
            },
            {
                "start_time": 20.08863636363636,
                "end_time": 20.336363636363636,
                "pitch": 40,
                "velocity": 80,
                "duration": 0.2477272727272748,
                "tempo": 120.0
            },
            {
                "start_time": 20.336363636363636,
                "end_time": 20.586363636363636,
                "pitch": 39,
                "velocity": 80,
                "duration": 0.25,
                "tempo": 120.0
            },
            {
                "start_time": 20.586363636363636,
                "end_time": 20.836363636363636,
                "pitch": 51,
                "velocity": 80,
                "duration": 0.25,
                "tempo": 120.0
            },
            {
                "start_time": 20.836363636363636,
                "end_time": 21.084090909090907,
                "pitch": 39,
                "velocity": 80,
                "duration": 0.24772727272727124,
                "tempo": 120.0
            },
            {
                "start_time": 21.084090909090907,
                "end_time": 21.334090909090907,
                "pitch": 39,
                "velocity": 80,
                "duration": 0.25,
                "tempo": 120.0
            },
            {
                "start_time": 21.334090909090907,
                "end_time": 21.599999999999998,
                "pitch": 51,
                "velocity": 80,
                "duration": 0.26590909090909065,
                "tempo": 120.0
            },
            {
                "start_time": 21.599999999999998,
                "end_time": 21.854545454545452,
                "pitch": 39,
                "velocity": 80,
                "duration": 0.25454545454545396,
                "tempo": 120.0
            },
            {
                "start_time": 21.854545454545452,
                "end_time": 22.111363636363635,
                "pitch": 39,
                "velocity": 80,
                "duration": 0.2568181818181827,
                "tempo": 120.0
            },
            {
                "start_time": 22.111363636363635,
                "end_time": 22.35909090909091,
                "pitch": 39,
                "velocity": 80,
                "duration": 0.2477272727272748,
                "tempo": 120.0
            },
            {
                "start_time": 22.35909090909091,
                "end_time": 22.60909090909091,
                "pitch": 39,
                "velocity": 80,
                "duration": 0.25,
                "tempo": 120.0
            },
            {
                "start_time": 22.60909090909091,
                "end_time": 22.85909090909091,
                "pitch": 51,
                "velocity": 80,
                "duration": 0.25,
                "tempo": 120.0
            },
            {
                "start_time": 22.85909090909091,
                "end_time": 23.10681818181818,
                "pitch": 39,
                "velocity": 80,
                "duration": 0.24772727272727124,
                "tempo": 120.0
            },
            {
                "start_time": 23.10681818181818,
                "end_time": 23.35681818181818,
                "pitch": 51,
                "velocity": 80,
                "duration": 0.25,
                "tempo": 120.0
            },
            {
                "start_time": 23.35681818181818,
                "end_time": 23.60681818181818,
                "pitch": 39,
                "velocity": 80,
                "duration": 0.25,
                "tempo": 120.0
            },
            {
                "start_time": 23.60681818181818,
                "end_time": 23.849999999999998,
                "pitch": 39,
                "velocity": 80,
                "duration": 0.24318181818181728,
                "tempo": 120.0
            },
            {
                "start_time": 23.852272727272727,
                "end_time": 24.097727272727273,
                "pitch": 51,
                "velocity": 80,
                "duration": 0.24545454545454604,
                "tempo": 120.0
            },
            {
                "start_time": 24.097727272727273,
                "end_time": 24.352272727272727,
                "pitch": 42,
                "velocity": 80,
                "duration": 0.25454545454545396,
                "tempo": 120.0
            },
            {
                "start_time": 24.352272727272727,
                "end_time": 24.60681818181818,
                "pitch": 42,
                "velocity": 80,
                "duration": 0.25454545454545396,
                "tempo": 120.0
            },
            {
                "start_time": 24.60681818181818,
                "end_time": 24.852272727272727,
                "pitch": 54,
                "velocity": 80,
                "duration": 0.24545454545454604,
                "tempo": 120.0
            },
            {
                "start_time": 24.852272727272727,
                "end_time": 25.097727272727273,
                "pitch": 42,
                "velocity": 80,
                "duration": 0.24545454545454604,
                "tempo": 120.0
            },
            {
                "start_time": 25.097727272727273,
                "end_time": 25.347727272727273,
                "pitch": 42,
                "velocity": 80,
                "duration": 0.25,
                "tempo": 120.0
            },
            {
                "start_time": 25.347727272727273,
                "end_time": 25.595454545454544,
                "pitch": 54,
                "velocity": 80,
                "duration": 0.24772727272727124,
                "tempo": 120.0
            },
            {
                "start_time": 25.595454545454544,
                "end_time": 25.861363636363635,
                "pitch": 42,
                "velocity": 80,
                "duration": 0.26590909090909065,
                "tempo": 120.0
            },
            {
                "start_time": 25.861363636363635,
                "end_time": 26.111363636363635,
                "pitch": 42,
                "velocity": 80,
                "duration": 0.25,
                "tempo": 120.0
            },
            {
                "start_time": 26.111363636363635,
                "end_time": 26.36590909090909,
                "pitch": 42,
                "velocity": 80,
                "duration": 0.25454545454545396,
                "tempo": 120.0
            },
            {
                "start_time": 26.36590909090909,
                "end_time": 26.62272727272727,
                "pitch": 42,
                "velocity": 80,
                "duration": 0.2568181818181827,
                "tempo": 120.0
            },
            {
                "start_time": 26.62272727272727,
                "end_time": 26.870454545454542,
                "pitch": 54,
                "velocity": 80,
                "duration": 0.24772727272727124,
                "tempo": 120.0
            },
            {
                "start_time": 26.870454545454542,
                "end_time": 27.120454545454542,
                "pitch": 42,
                "velocity": 80,
                "duration": 0.25,
                "tempo": 120.0
            },
            {
                "start_time": 27.120454545454542,
                "end_time": 27.370454545454542,
                "pitch": 54,
                "velocity": 80,
                "duration": 0.25,
                "tempo": 120.0
            },
            {
                "start_time": 27.370454545454542,
                "end_time": 27.618181818181817,
                "pitch": 42,
                "velocity": 80,
                "duration": 0.2477272727272748,
                "tempo": 120.0
            },
            {
                "start_time": 27.618181818181817,
                "end_time": 27.868181818181817,
                "pitch": 42,
                "velocity": 80,
                "duration": 0.25,
                "tempo": 120.0
            },
            {
                "start_time": 27.868181818181817,
                "end_time": 28.118181818181817,
                "pitch": 54,
                "velocity": 80,
                "duration": 0.25,
                "tempo": 120.0
            },
            {
                "start_time": 28.118181818181817,
                "end_time": 28.36590909090909,
                "pitch": 44,
                "velocity": 80,
                "duration": 0.24772727272727124,
                "tempo": 120.0
            },
            {
                "start_time": 28.36590909090909,
                "end_time": 28.61590909090909,
                "pitch": 44,
                "velocity": 80,
                "duration": 0.25,
                "tempo": 120.0
            },
            {
                "start_time": 28.61590909090909,
                "end_time": 28.863636363636363,
                "pitch": 56,
                "velocity": 80,
                "duration": 0.2477272727272748,
                "tempo": 120.0
            },
            {
                "start_time": 28.863636363636363,
                "end_time": 29.113636363636363,
                "pitch": 44,
                "velocity": 80,
                "duration": 0.25,
                "tempo": 120.0
            },
            {
                "start_time": 29.113636363636363,
                "end_time": 29.363636363636363,
                "pitch": 44,
                "velocity": 80,
                "duration": 0.25,
                "tempo": 120.0
            },
            {
                "start_time": 29.363636363636363,
                "end_time": 29.611363636363635,
                "pitch": 56,
                "velocity": 80,
                "duration": 0.24772727272727124,
                "tempo": 120.0
            },
            {
                "start_time": 29.611363636363635,
                "end_time": 29.85681818181818,
                "pitch": 44,
                "velocity": 80,
                "duration": 0.24545454545454604,
                "tempo": 120.0
            },
            {
                "start_time": 29.85681818181818,
                "end_time": 30.118181818181817,
                "pitch": 44,
                "velocity": 80,
                "duration": 0.2613636363636367,
                "tempo": 120.0
            },
            {
                "start_time": 30.118181818181817,
                "end_time": 30.377272727272725,
                "pitch": 44,
                "velocity": 80,
                "duration": 0.25909090909090793,
                "tempo": 120.0
            },
            {
                "start_time": 30.377272727272725,
                "end_time": 30.638636363636362,
                "pitch": 44,
                "velocity": 80,
                "duration": 0.2613636363636367,
                "tempo": 120.0
            },
            {
                "start_time": 30.638636363636362,
                "end_time": 30.884090909090908,
                "pitch": 56,
                "velocity": 80,
                "duration": 0.24545454545454604,
                "tempo": 120.0
            },
            {
                "start_time": 30.884090909090908,
                "end_time": 31.129545454545454,
                "pitch": 44,
                "velocity": 80,
                "duration": 0.24545454545454604,
                "tempo": 120.0
            },
            {
                "start_time": 31.129545454545454,
                "end_time": 31.377272727272725,
                "pitch": 56,
                "velocity": 80,
                "duration": 0.24772727272727124,
                "tempo": 120.0
            },
            {
                "start_time": 31.377272727272725,
                "end_time": 31.627272727272725,
                "pitch": 44,
                "velocity": 80,
                "duration": 0.25,
                "tempo": 120.0
            },
            {
                "start_time": 31.627272727272725,
                "end_time": 31.877272727272725,
                "pitch": 44,
                "velocity": 80,
                "duration": 0.25,
                "tempo": 120.0
            },
            {
                "start_time": 31.877272727272725,
                "end_time": 32.125,
                "pitch": 56,
                "velocity": 80,
                "duration": 0.2477272727272748,
                "tempo": 120.0
            },
            {
                "start_time": 32.125,
                "end_time": 32.375,
                "pitch": 46,
                "velocity": 80,
                "duration": 0.25,
                "tempo": 120.0
            },
            {
                "start_time": 32.375,
                "end_time": 32.62272727272727,
                "pitch": 46,
                "velocity": 80,
                "duration": 0.2477272727272677,
                "tempo": 120.0
            },
            {
                "start_time": 32.62272727272727,
                "end_time": 32.87272727272727,
                "pitch": 58,
                "velocity": 80,
                "duration": 0.25,
                "tempo": 120.0
            },
            {
                "start_time": 32.87272727272727,
                "end_time": 33.12272727272727,
                "pitch": 46,
                "velocity": 80,
                "duration": 0.25,
                "tempo": 120.0
            },
            {
                "start_time": 33.12272727272727,
                "end_time": 33.37045454545454,
                "pitch": 46,
                "velocity": 80,
                "duration": 0.2477272727272748,
                "tempo": 120.0
            },
            {
                "start_time": 33.37045454545454,
                "end_time": 33.62045454545454,
                "pitch": 58,
                "velocity": 80,
                "duration": 0.25,
                "tempo": 120.0
            },
            {
                "start_time": 33.62045454545454,
                "end_time": 33.86590909090909,
                "pitch": 46,
                "velocity": 80,
                "duration": 0.2454545454545496,
                "tempo": 120.0
            },
            {
                "start_time": 33.86590909090909,
                "end_time": 34.111363636363635,
                "pitch": 46,
                "velocity": 80,
                "duration": 0.24545454545454248,
                "tempo": 120.0
            },
            {
                "start_time": 34.111363636363635,
                "end_time": 34.38181818181818,
                "pitch": 46,
                "velocity": 80,
                "duration": 0.27045454545454817,
                "tempo": 120.0
            },
            {
                "start_time": 34.38181818181818,
                "end_time": 34.638636363636365,
                "pitch": 46,
                "velocity": 80,
                "duration": 0.2568181818181827,
                "tempo": 120.0
            },
            {
                "start_time": 34.638636363636365,
                "end_time": 34.893181818181816,
                "pitch": 46,
                "velocity": 80,
                "duration": 0.2545454545454504,
                "tempo": 120.0
            },
            {
                "start_time": 34.893181818181816,
                "end_time": 35.15,
                "pitch": 58,
                "velocity": 80,
                "duration": 0.2568181818181827,
                "tempo": 120.0
            },
            {
                "start_time": 35.15,
                "end_time": 35.4,
                "pitch": 46,
                "velocity": 80,
                "duration": 0.25,
                "tempo": 120.0
            },
            {
                "start_time": 35.4,
                "end_time": 35.64772727272727,
                "pitch": 46,
                "velocity": 80,
                "duration": 0.2477272727272748,
                "tempo": 120.0
            },
            {
                "start_time": 35.64772727272727,
                "end_time": 35.893181818181816,
                "pitch": 45,
                "velocity": 80,
                "duration": 0.24545454545454248,
                "tempo": 120.0
            },
            {
                "start_time": 32.125,
                "end_time": 36.11363636363636,
                "pitch": 44,
                "velocity": 80,
                "duration": 3.9886363636363598,
                "tempo": 120.0
            },
            {
                "start_time": 35.893181818181816,
                "end_time": 36.11363636363636,
                "pitch": 44,
                "velocity": 80,
                "duration": 0.2204545454545439,
                "tempo": 120.0
            }
        ],
        "Harpsichord": [
            {
                "start_time": 0.015909090909090907,
                "end_time": 0.27954545454545454,
                "pitch": 43,
                "velocity": 25,
                "duration": 0.2636363636363636,
                "tempo": 120.0
            },
            {
                "start_time": 0.27954545454545454,
                "end_time": 0.5295454545454545,
                "pitch": 43,
                "velocity": 25,
                "duration": 0.25,
                "tempo": 120.0
            },
            {
                "start_time": 0.5295454545454545,
                "end_time": 0.7840909090909091,
                "pitch": 43,
                "velocity": 25,
                "duration": 0.2545454545454545,
                "tempo": 120.0
            },
            {
                "start_time": 0.7840909090909091,
                "end_time": 1.0409090909090908,
                "pitch": 43,
                "velocity": 25,
                "duration": 0.2568181818181817,
                "tempo": 120.0
            },
            {
                "start_time": 1.0409090909090908,
                "end_time": 1.2954545454545454,
                "pitch": 43,
                "velocity": 25,
                "duration": 0.25454545454545463,
                "tempo": 120.0
            },
            {
                "start_time": 1.2954545454545454,
                "end_time": 1.5522727272727272,
                "pitch": 43,
                "velocity": 25,
                "duration": 0.25681818181818183,
                "tempo": 120.0
            },
            {
                "start_time": 1.5522727272727272,
                "end_time": 1.7977272727272726,
                "pitch": 43,
                "velocity": 25,
                "duration": 0.24545454545454537,
                "tempo": 120.0
            },
            {
                "start_time": 1.7977272727272726,
                "end_time": 2.043181818181818,
                "pitch": 43,
                "velocity": 25,
                "duration": 0.24545454545454537,
                "tempo": 120.0
            },
            {
                "start_time": 2.043181818181818,
                "end_time": 2.290909090909091,
                "pitch": 43,
                "velocity": 25,
                "duration": 0.24772727272727302,
                "tempo": 120.0
            },
            {
                "start_time": 2.290909090909091,
                "end_time": 2.540909090909091,
                "pitch": 43,
                "velocity": 25,
                "duration": 0.25,
                "tempo": 120.0
            },
            {
                "start_time": 2.540909090909091,
                "end_time": 2.7886363636363636,
                "pitch": 43,
                "velocity": 25,
                "duration": 0.24772727272727257,
                "tempo": 120.0
            },
            {
                "start_time": 2.7886363636363636,
                "end_time": 3.0386363636363636,
                "pitch": 43,
                "velocity": 25,
                "duration": 0.25,
                "tempo": 120.0
            },
            {
                "start_time": 3.0386363636363636,
                "end_time": 3.2886363636363636,
                "pitch": 43,
                "velocity": 25,
                "duration": 0.25,
                "tempo": 120.0
            },
            {
                "start_time": 3.2886363636363636,
                "end_time": 3.536363636363636,
                "pitch": 38,
                "velocity": 25,
                "duration": 0.24772727272727257,
                "tempo": 120.0
            },
            {
                "start_time": 3.536363636363636,
                "end_time": 3.786363636363636,
                "pitch": 41,
                "velocity": 25,
                "duration": 0.25,
                "tempo": 120.0
            },
            {
                "start_time": 3.786363636363636,
                "end_time": 4.036363636363636,
                "pitch": 41,
                "velocity": 25,
                "duration": 0.25,
                "tempo": 120.0
            },
            {
                "start_time": 4.036363636363636,
                "end_time": 4.286363636363636,
                "pitch": 43,
                "velocity": 25,
                "duration": 0.25,
                "tempo": 120.0
            },
            {
                "start_time": 4.286363636363636,
                "end_time": 4.554545454545455,
                "pitch": 43,
                "velocity": 25,
                "duration": 0.2681818181818185,
                "tempo": 120.0
            },
            {
                "start_time": 4.554545454545455,
                "end_time": 4.809090909090909,
                "pitch": 43,
                "velocity": 25,
                "duration": 0.25454545454545396,
                "tempo": 120.0
            },
            {
                "start_time": 4.809090909090909,
                "end_time": 5.0659090909090905,
                "pitch": 43,
                "velocity": 25,
                "duration": 0.25681818181818183,
                "tempo": 120.0
            },
            {
                "start_time": 5.0659090909090905,
                "end_time": 5.3159090909090905,
                "pitch": 43,
                "velocity": 25,
                "duration": 0.25,
                "tempo": 120.0
            },
            {
                "start_time": 5.3159090909090905,
                "end_time": 5.5636363636363635,
                "pitch": 38,
                "velocity": 25,
                "duration": 0.24772727272727302,
                "tempo": 120.0
            },
            {
                "start_time": 5.5636363636363635,
                "end_time": 5.8136363636363635,
                "pitch": 41,
                "velocity": 25,
                "duration": 0.25,
                "tempo": 120.0
            },
            {
                "start_time": 5.8136363636363635,
                "end_time": 6.0636363636363635,
                "pitch": 41,
                "velocity": 25,
                "duration": 0.25,
                "tempo": 120.0
            },
            {
                "start_time": 4.036363636363636,
                "end_time": 6.0636363636363635,
                "pitch": 54,
                "velocity": 25,
                "duration": 2.0272727272727273,
                "tempo": 120.0
            },
            {
                "start_time": 6.0636363636363635,
                "end_time": 6.311363636363636,
                "pitch": 43,
                "velocity": 25,
                "duration": 0.24772727272727213,
                "tempo": 120.0
            },
            {
                "start_time": 6.311363636363636,
                "end_time": 6.561363636363636,
                "pitch": 43,
                "velocity": 25,
                "duration": 0.25,
                "tempo": 120.0
            },
            {
                "start_time": 6.561363636363636,
                "end_time": 6.804545454545454,
                "pitch": 43,
                "velocity": 25,
                "duration": 0.24318181818181817,
                "tempo": 120.0
            },
            {
                "start_time": 6.804545454545454,
                "end_time": 7.05,
                "pitch": 43,
                "velocity": 25,
                "duration": 0.24545454545454604,
                "tempo": 120.0
            },
            {
                "start_time": 7.05,
                "end_time": 7.304545454545454,
                "pitch": 43,
                "velocity": 25,
                "duration": 0.25454545454545396,
                "tempo": 120.0
            },
            {
                "start_time": 7.304545454545454,
                "end_time": 7.561363636363636,
                "pitch": 43,
                "velocity": 25,
                "duration": 0.25681818181818183,
                "tempo": 120.0
            },
            {
                "start_time": 7.561363636363636,
                "end_time": 7.806818181818182,
                "pitch": 43,
                "velocity": 25,
                "duration": 0.24545454545454604,
                "tempo": 120.0
            },
            {
                "start_time": 7.806818181818182,
                "end_time": 8.052272727272728,
                "pitch": 43,
                "velocity": 25,
                "duration": 0.24545454545454604,
                "tempo": 120.0
            },
            {
                "start_time": 8.052272727272728,
                "end_time": 8.299999999999999,
                "pitch": 41,
                "velocity": 25,
                "duration": 0.24772727272727124,
                "tempo": 120.0
            },
            {
                "start_time": 8.299999999999999,
                "end_time": 8.549999999999999,
                "pitch": 41,
                "velocity": 25,
                "duration": 0.25,
                "tempo": 120.0
            },
            {
                "start_time": 8.549999999999999,
                "end_time": 8.811363636363636,
                "pitch": 41,
                "velocity": 25,
                "duration": 0.2613636363636367,
                "tempo": 120.0
            },
            {
                "start_time": 8.811363636363636,
                "end_time": 9.056818181818182,
                "pitch": 41,
                "velocity": 25,
                "duration": 0.24545454545454604,
                "tempo": 120.0
            },
            {
                "start_time": 9.056818181818182,
                "end_time": 9.31590909090909,
                "pitch": 41,
                "velocity": 25,
                "duration": 0.25909090909090793,
                "tempo": 120.0
            },
            {
                "start_time": 9.31590909090909,
                "end_time": 9.575,
                "pitch": 41,
                "velocity": 25,
                "duration": 0.2590909090909097,
                "tempo": 120.0
            },
            {
                "start_time": 9.575,
                "end_time": 9.825,
                "pitch": 41,
                "velocity": 25,
                "duration": 0.25,
                "tempo": 120.0
            },
            {
                "start_time": 9.825,
                "end_time": 10.075,
                "pitch": 41,
                "velocity": 25,
                "duration": 0.25,
                "tempo": 120.0
            },
            {
                "start_time": 10.075,
                "end_time": 10.322727272727272,
                "pitch": 41,
                "velocity": 25,
                "duration": 0.24772727272727302,
                "tempo": 120.0
            },
            {
                "start_time": 10.322727272727272,
                "end_time": 10.572727272727272,
                "pitch": 40,
                "velocity": 25,
                "duration": 0.25,
                "tempo": 120.0
            },
            {
                "start_time": 10.572727272727272,
                "end_time": 10.822727272727272,
                "pitch": 40,
                "velocity": 25,
                "duration": 0.25,
                "tempo": 120.0
            },
            {
                "start_time": 10.822727272727272,
                "end_time": 11.070454545454545,
                "pitch": 40,
                "velocity": 25,
                "duration": 0.24772727272727302,
                "tempo": 120.0
            },
            {
                "start_time": 11.070454545454545,
                "end_time": 11.320454545454545,
                "pitch": 40,
                "velocity": 25,
                "duration": 0.25,
                "tempo": 120.0
            },
            {
                "start_time": 11.320454545454545,
                "end_time": 11.570454545454545,
                "pitch": 40,
                "velocity": 25,
                "duration": 0.25,
                "tempo": 120.0
            },
            {
                "start_time": 11.570454545454545,
                "end_time": 11.813636363636363,
                "pitch": 40,
                "velocity": 25,
                "duration": 0.24318181818181728,
                "tempo": 120.0
            },
            {
                "start_time": 11.813636363636363,
                "end_time": 12.059090909090909,
                "pitch": 40,
                "velocity": 25,
                "duration": 0.24545454545454604,
                "tempo": 120.0
            },
            {
                "start_time": 12.059090909090909,
                "end_time": 12.309090909090909,
                "pitch": 40,
                "velocity": 25,
                "duration": 0.25,
                "tempo": 120.0
            },
            {
                "start_time": 12.309090909090909,
                "end_time": 12.559090909090909,
                "pitch": 39,
                "velocity": 25,
                "duration": 0.25,
                "tempo": 120.0
            },
            {
                "start_time": 12.559090909090909,
                "end_time": 12.806818181818182,
                "pitch": 39,
                "velocity": 25,
                "duration": 0.24772727272727302,
                "tempo": 120.0
            },
            {
                "start_time": 12.806818181818182,
                "end_time": 13.072727272727272,
                "pitch": 39,
                "velocity": 25,
                "duration": 0.26590909090909065,
                "tempo": 120.0
            },
            {
                "start_time": 13.072727272727272,
                "end_time": 13.331818181818182,
                "pitch": 39,
                "velocity": 25,
                "duration": 0.2590909090909097,
                "tempo": 120.0
            },
            {
                "start_time": 13.331818181818182,
                "end_time": 13.593181818181817,
                "pitch": 39,
                "velocity": 25,
                "duration": 0.2613636363636349,
                "tempo": 120.0
            },
            {
                "start_time": 13.593181818181817,
                "end_time": 13.838636363636363,
                "pitch": 39,
                "velocity": 25,
                "duration": 0.24545454545454604,
                "tempo": 120.0
            },
            {
                "start_time": 13.838636363636363,
                "end_time": 14.084090909090909,
                "pitch": 39,
                "velocity": 25,
                "duration": 0.24545454545454604,
                "tempo": 120.0
            },
            {
                "start_time": 14.084090909090909,
                "end_time": 14.33181818181818,
                "pitch": 39,
                "velocity": 25,
                "duration": 0.24772727272727124,
                "tempo": 120.0
            },
            {
                "start_time": 14.33181818181818,
                "end_time": 14.58181818181818,
                "pitch": 38,
                "velocity": 25,
                "duration": 0.25,
                "tempo": 120.0
            },
            {
                "start_time": 14.58181818181818,
                "end_time": 14.829545454545453,
                "pitch": 38,
                "velocity": 25,
                "duration": 0.24772727272727302,
                "tempo": 120.0
            },
            {
                "start_time": 14.829545454545453,
                "end_time": 15.079545454545453,
                "pitch": 38,
                "velocity": 25,
                "duration": 0.25,
                "tempo": 120.0
            },
            {
                "start_time": 15.079545454545453,
                "end_time": 15.329545454545453,
                "pitch": 38,
                "velocity": 25,
                "duration": 0.25,
                "tempo": 120.0
            },
            {
                "start_time": 15.329545454545453,
                "end_time": 15.577272727272726,
                "pitch": 38,
                "velocity": 25,
                "duration": 0.24772727272727302,
                "tempo": 120.0
            },
            {
                "start_time": 15.577272727272726,
                "end_time": 15.827272727272726,
                "pitch": 38,
                "velocity": 25,
                "duration": 0.25,
                "tempo": 120.0
            },
            {
                "start_time": 15.827272727272726,
                "end_time": 16.077272727272728,
                "pitch": 38,
                "velocity": 25,
                "duration": 0.2500000000000018,
                "tempo": 120.0
            },
            {
                "start_time": 16.077272727272728,
                "end_time": 16.325,
                "pitch": 40,
                "velocity": 25,
                "duration": 0.24772727272727124,
                "tempo": 120.0
            },
            {
                "start_time": 16.325,
                "end_time": 16.575,
                "pitch": 40,
                "velocity": 25,
                "duration": 0.25,
                "tempo": 120.0
            },
            {
                "start_time": 16.575,
                "end_time": 16.82272727272727,
                "pitch": 40,
                "velocity": 25,
                "duration": 0.24772727272727124,
                "tempo": 120.0
            },
            {
                "start_time": 16.82272727272727,
                "end_time": 17.07272727272727,
                "pitch": 40,
                "velocity": 25,
                "duration": 0.25,
                "tempo": 120.0
            },
            {
                "start_time": 17.07272727272727,
                "end_time": 17.33863636363636,
                "pitch": 40,
                "velocity": 25,
                "duration": 0.26590909090909065,
                "tempo": 120.0
            },
            {
                "start_time": 17.33863636363636,
                "end_time": 17.58863636363636,
                "pitch": 40,
                "velocity": 25,
                "duration": 0.25,
                "tempo": 120.0
            },
            {
                "start_time": 17.58863636363636,
                "end_time": 17.836363636363636,
                "pitch": 40,
                "velocity": 25,
                "duration": 0.2477272727272748,
                "tempo": 120.0
            },
            {
                "start_time": 17.836363636363636,
                "end_time": 18.086363636363636,
                "pitch": 40,
                "velocity": 25,
                "duration": 0.25,
                "tempo": 120.0
            },
            {
                "start_time": 18.086363636363636,
                "end_time": 18.34090909090909,
                "pitch": 40,
                "velocity": 25,
                "duration": 0.25454545454545396,
                "tempo": 120.0
            },
            {
                "start_time": 18.34090909090909,
                "end_time": 18.597727272727273,
                "pitch": 40,
                "velocity": 25,
                "duration": 0.2568181818181827,
                "tempo": 120.0
            },
            {
                "start_time": 18.597727272727273,
                "end_time": 18.84318181818182,
                "pitch": 40,
                "velocity": 25,
                "duration": 0.24545454545454604,
                "tempo": 120.0
            },
            {
                "start_time": 18.84318181818182,
                "end_time": 19.086363636363636,
                "pitch": 40,
                "velocity": 25,
                "duration": 0.24318181818181728,
                "tempo": 120.0
            },
            {
                "start_time": 19.086363636363636,
                "end_time": 19.34318181818182,
                "pitch": 40,
                "velocity": 25,
                "duration": 0.2568181818181827,
                "tempo": 120.0
            },
            {
                "start_time": 19.34318181818182,
                "end_time": 19.597727272727273,
                "pitch": 40,
                "velocity": 25,
                "duration": 0.25454545454545396,
                "tempo": 120.0
            },
            {
                "start_time": 19.597727272727273,
                "end_time": 19.84318181818182,
                "pitch": 40,
                "velocity": 25,
                "duration": 0.24545454545454604,
                "tempo": 120.0
            },
            {
                "start_time": 19.84318181818182,
                "end_time": 20.08863636363636,
                "pitch": 40,
                "velocity": 25,
                "duration": 0.24545454545454248,
                "tempo": 120.0
            },
            {
                "start_time": 20.08863636363636,
                "end_time": 20.336363636363636,
                "pitch": 40,
                "velocity": 25,
                "duration": 0.2477272727272748,
                "tempo": 120.0
            },
            {
                "start_time": 20.336363636363636,
                "end_time": 20.586363636363636,
                "pitch": 39,
                "velocity": 25,
                "duration": 0.25,
                "tempo": 120.0
            },
            {
                "start_time": 20.586363636363636,
                "end_time": 20.836363636363636,
                "pitch": 51,
                "velocity": 25,
                "duration": 0.25,
                "tempo": 120.0
            },
            {
                "start_time": 20.836363636363636,
                "end_time": 21.084090909090907,
                "pitch": 39,
                "velocity": 25,
                "duration": 0.24772727272727124,
                "tempo": 120.0
            },
            {
                "start_time": 21.084090909090907,
                "end_time": 21.334090909090907,
                "pitch": 39,
                "velocity": 25,
                "duration": 0.25,
                "tempo": 120.0
            },
            {
                "start_time": 21.334090909090907,
                "end_time": 21.599999999999998,
                "pitch": 51,
                "velocity": 25,
                "duration": 0.26590909090909065,
                "tempo": 120.0
            },
            {
                "start_time": 21.599999999999998,
                "end_time": 21.854545454545452,
                "pitch": 39,
                "velocity": 25,
                "duration": 0.25454545454545396,
                "tempo": 120.0
            },
            {
                "start_time": 21.854545454545452,
                "end_time": 22.111363636363635,
                "pitch": 39,
                "velocity": 25,
                "duration": 0.2568181818181827,
                "tempo": 120.0
            },
            {
                "start_time": 22.111363636363635,
                "end_time": 22.35909090909091,
                "pitch": 39,
                "velocity": 25,
                "duration": 0.2477272727272748,
                "tempo": 120.0
            },
            {
                "start_time": 22.35909090909091,
                "end_time": 22.60909090909091,
                "pitch": 39,
                "velocity": 25,
                "duration": 0.25,
                "tempo": 120.0
            },
            {
                "start_time": 22.60909090909091,
                "end_time": 22.85909090909091,
                "pitch": 51,
                "velocity": 25,
                "duration": 0.25,
                "tempo": 120.0
            },
            {
                "start_time": 22.85909090909091,
                "end_time": 23.10681818181818,
                "pitch": 39,
                "velocity": 25,
                "duration": 0.24772727272727124,
                "tempo": 120.0
            },
            {
                "start_time": 23.10681818181818,
                "end_time": 23.35681818181818,
                "pitch": 51,
                "velocity": 25,
                "duration": 0.25,
                "tempo": 120.0
            },
            {
                "start_time": 23.35681818181818,
                "end_time": 23.60681818181818,
                "pitch": 39,
                "velocity": 25,
                "duration": 0.25,
                "tempo": 120.0
            },
            {
                "start_time": 23.60681818181818,
                "end_time": 23.852272727272727,
                "pitch": 39,
                "velocity": 25,
                "duration": 0.24545454545454604,
                "tempo": 120.0
            },
            {
                "start_time": 23.852272727272727,
                "end_time": 24.097727272727273,
                "pitch": 51,
                "velocity": 25,
                "duration": 0.24545454545454604,
                "tempo": 120.0
            },
            {
                "start_time": 24.097727272727273,
                "end_time": 24.352272727272727,
                "pitch": 42,
                "velocity": 25,
                "duration": 0.25454545454545396,
                "tempo": 120.0
            },
            {
                "start_time": 24.352272727272727,
                "end_time": 24.60681818181818,
                "pitch": 42,
                "velocity": 25,
                "duration": 0.25454545454545396,
                "tempo": 120.0
            },
            {
                "start_time": 6.0636363636363635,
                "end_time": 24.852272727272727,
                "pitch": 54,
                "velocity": 25,
                "duration": 18.788636363636364,
                "tempo": 120.0
            },
            {
                "start_time": 24.60681818181818,
                "end_time": 24.852272727272727,
                "pitch": 54,
                "velocity": 25,
                "duration": 0.24545454545454604,
                "tempo": 120.0
            },
            {
                "start_time": 24.852272727272727,
                "end_time": 25.097727272727273,
                "pitch": 42,
                "velocity": 25,
                "duration": 0.24545454545454604,
                "tempo": 120.0
            },
            {
                "start_time": 25.097727272727273,
                "end_time": 25.347727272727273,
                "pitch": 42,
                "velocity": 25,
                "duration": 0.25,
                "tempo": 120.0
            },
            {
                "start_time": 25.347727272727273,
                "end_time": 25.595454545454544,
                "pitch": 54,
                "velocity": 25,
                "duration": 0.24772727272727124,
                "tempo": 120.0
            },
            {
                "start_time": 25.595454545454544,
                "end_time": 25.861363636363635,
                "pitch": 42,
                "velocity": 25,
                "duration": 0.26590909090909065,
                "tempo": 120.0
            },
            {
                "start_time": 25.861363636363635,
                "end_time": 26.111363636363635,
                "pitch": 42,
                "velocity": 25,
                "duration": 0.25,
                "tempo": 120.0
            },
            {
                "start_time": 26.111363636363635,
                "end_time": 26.36590909090909,
                "pitch": 42,
                "velocity": 25,
                "duration": 0.25454545454545396,
                "tempo": 120.0
            },
            {
                "start_time": 26.36590909090909,
                "end_time": 26.62272727272727,
                "pitch": 42,
                "velocity": 25,
                "duration": 0.2568181818181827,
                "tempo": 120.0
            },
            {
                "start_time": 26.62272727272727,
                "end_time": 26.870454545454542,
                "pitch": 54,
                "velocity": 25,
                "duration": 0.24772727272727124,
                "tempo": 120.0
            },
            {
                "start_time": 26.870454545454542,
                "end_time": 27.120454545454542,
                "pitch": 42,
                "velocity": 25,
                "duration": 0.25,
                "tempo": 120.0
            },
            {
                "start_time": 27.120454545454542,
                "end_time": 27.370454545454542,
                "pitch": 54,
                "velocity": 25,
                "duration": 0.25,
                "tempo": 120.0
            },
            {
                "start_time": 27.370454545454542,
                "end_time": 27.618181818181817,
                "pitch": 42,
                "velocity": 25,
                "duration": 0.2477272727272748,
                "tempo": 120.0
            },
            {
                "start_time": 27.618181818181817,
                "end_time": 27.868181818181817,
                "pitch": 42,
                "velocity": 25,
                "duration": 0.25,
                "tempo": 120.0
            },
            {
                "start_time": 27.868181818181817,
                "end_time": 28.118181818181817,
                "pitch": 54,
                "velocity": 25,
                "duration": 0.25,
                "tempo": 120.0
            },
            {
                "start_time": 28.118181818181817,
                "end_time": 28.36590909090909,
                "pitch": 44,
                "velocity": 25,
                "duration": 0.24772727272727124,
                "tempo": 120.0
            },
            {
                "start_time": 28.36590909090909,
                "end_time": 28.61590909090909,
                "pitch": 44,
                "velocity": 25,
                "duration": 0.25,
                "tempo": 120.0
            },
            {
                "start_time": 28.61590909090909,
                "end_time": 28.863636363636363,
                "pitch": 56,
                "velocity": 25,
                "duration": 0.2477272727272748,
                "tempo": 120.0
            },
            {
                "start_time": 28.863636363636363,
                "end_time": 29.113636363636363,
                "pitch": 44,
                "velocity": 25,
                "duration": 0.25,
                "tempo": 120.0
            },
            {
                "start_time": 29.113636363636363,
                "end_time": 29.363636363636363,
                "pitch": 44,
                "velocity": 25,
                "duration": 0.25,
                "tempo": 120.0
            },
            {
                "start_time": 29.363636363636363,
                "end_time": 29.611363636363635,
                "pitch": 56,
                "velocity": 25,
                "duration": 0.24772727272727124,
                "tempo": 120.0
            },
            {
                "start_time": 29.611363636363635,
                "end_time": 29.85681818181818,
                "pitch": 44,
                "velocity": 25,
                "duration": 0.24545454545454604,
                "tempo": 120.0
            },
            {
                "start_time": 29.85681818181818,
                "end_time": 30.118181818181817,
                "pitch": 44,
                "velocity": 25,
                "duration": 0.2613636363636367,
                "tempo": 120.0
            },
            {
                "start_time": 30.118181818181817,
                "end_time": 30.377272727272725,
                "pitch": 44,
                "velocity": 25,
                "duration": 0.25909090909090793,
                "tempo": 120.0
            },
            {
                "start_time": 30.377272727272725,
                "end_time": 30.638636363636362,
                "pitch": 44,
                "velocity": 25,
                "duration": 0.2613636363636367,
                "tempo": 120.0
            },
            {
                "start_time": 30.638636363636362,
                "end_time": 30.884090909090908,
                "pitch": 56,
                "velocity": 25,
                "duration": 0.24545454545454604,
                "tempo": 120.0
            },
            {
                "start_time": 30.884090909090908,
                "end_time": 31.129545454545454,
                "pitch": 44,
                "velocity": 25,
                "duration": 0.24545454545454604,
                "tempo": 120.0
            },
            {
                "start_time": 31.129545454545454,
                "end_time": 31.377272727272725,
                "pitch": 56,
                "velocity": 25,
                "duration": 0.24772727272727124,
                "tempo": 120.0
            },
            {
                "start_time": 31.377272727272725,
                "end_time": 31.627272727272725,
                "pitch": 44,
                "velocity": 25,
                "duration": 0.25,
                "tempo": 120.0
            },
            {
                "start_time": 31.627272727272725,
                "end_time": 31.877272727272725,
                "pitch": 44,
                "velocity": 25,
                "duration": 0.25,
                "tempo": 120.0
            },
            {
                "start_time": 31.877272727272725,
                "end_time": 32.125,
                "pitch": 56,
                "velocity": 25,
                "duration": 0.2477272727272748,
                "tempo": 120.0
            },
            {
                "start_time": 32.125,
                "end_time": 32.375,
                "pitch": 46,
                "velocity": 25,
                "duration": 0.25,
                "tempo": 120.0
            },
            {
                "start_time": 32.375,
                "end_time": 32.62272727272727,
                "pitch": 46,
                "velocity": 25,
                "duration": 0.2477272727272677,
                "tempo": 120.0
            },
            {
                "start_time": 32.62272727272727,
                "end_time": 32.87272727272727,
                "pitch": 58,
                "velocity": 25,
                "duration": 0.25,
                "tempo": 120.0
            },
            {
                "start_time": 32.87272727272727,
                "end_time": 33.12272727272727,
                "pitch": 46,
                "velocity": 25,
                "duration": 0.25,
                "tempo": 120.0
            },
            {
                "start_time": 33.12272727272727,
                "end_time": 33.37045454545454,
                "pitch": 46,
                "velocity": 25,
                "duration": 0.2477272727272748,
                "tempo": 120.0
            },
            {
                "start_time": 33.37045454545454,
                "end_time": 33.62045454545454,
                "pitch": 58,
                "velocity": 25,
                "duration": 0.25,
                "tempo": 120.0
            },
            {
                "start_time": 33.62045454545454,
                "end_time": 33.86590909090909,
                "pitch": 46,
                "velocity": 25,
                "duration": 0.2454545454545496,
                "tempo": 120.0
            },
            {
                "start_time": 33.86590909090909,
                "end_time": 34.111363636363635,
                "pitch": 46,
                "velocity": 25,
                "duration": 0.24545454545454248,
                "tempo": 120.0
            },
            {
                "start_time": 34.111363636363635,
                "end_time": 34.38181818181818,
                "pitch": 46,
                "velocity": 25,
                "duration": 0.27045454545454817,
                "tempo": 120.0
            },
            {
                "start_time": 34.38409090909091,
                "end_time": 34.638636363636365,
                "pitch": 46,
                "velocity": 25,
                "duration": 0.2545454545454575,
                "tempo": 120.0
            },
            {
                "start_time": 34.638636363636365,
                "end_time": 34.893181818181816,
                "pitch": 46,
                "velocity": 25,
                "duration": 0.2545454545454504,
                "tempo": 120.0
            },
            {
                "start_time": 34.893181818181816,
                "end_time": 35.15,
                "pitch": 58,
                "velocity": 25,
                "duration": 0.2568181818181827,
                "tempo": 120.0
            },
            {
                "start_time": 35.15,
                "end_time": 35.4,
                "pitch": 46,
                "velocity": 25,
                "duration": 0.25,
                "tempo": 120.0
            },
            {
                "start_time": 35.4,
                "end_time": 35.64772727272727,
                "pitch": 46,
                "velocity": 25,
                "duration": 0.2477272727272748,
                "tempo": 120.0
            },
            {
                "start_time": 35.64772727272727,
                "end_time": 35.893181818181816,
                "pitch": 45,
                "velocity": 25,
                "duration": 0.24545454545454248,
                "tempo": 120.0
            },
            {
                "start_time": 32.125,
                "end_time": 36.11363636363636,
                "pitch": 44,
                "velocity": 25,
                "duration": 3.9886363636363598,
                "tempo": 120.0
            },
            {
                "start_time": 35.893181818181816,
                "end_time": 36.11363636363636,
                "pitch": 44,
                "velocity": 25,
                "duration": 0.2204545454545439,
                "tempo": 120.0
            }
        ]
    }
}