{
    "track_id": "02 Recon Story Demo",
    "mood": "angry",
    "instruments": {
        "Acoustic Guitar (nylon)": [
            {
                "start_time": 0.0,
                "end_time": 0.3136363636363636,
                "pitch": 43,
                "velocity": 101,
                "duration": 0.3136363636363636,
                "tempo": 120.0
            },
            {
                "start_time": 0.0,
                "end_time": 0.6136363636363636,
                "pitch": 55,
                "velocity": 101,
                "duration": 0.6136363636363636,
                "tempo": 120.0
            },
            {
                "start_time": 0.3136363636363636,
                "end_time": 0.6136363636363636,
                "pitch": 55,
                "velocity": 101,
                "duration": 0.30000000000000004,
                "tempo": 120.0
            },
            {
                "start_time": 0.6136363636363636,
                "end_time": 0.9204545454545454,
                "pitch": 69,
                "velocity": 101,
                "duration": 0.30681818181818177,
                "tempo": 120.0
            },
            {
                "start_time": 0.9204545454545454,
                "end_time": 1.2272727272727273,
                "pitch": 72,
                "velocity": 101,
                "duration": 0.3068181818181819,
                "tempo": 120.0
            },
            {
                "start_time": 1.2272727272727273,
                "end_time": 1.5272727272727271,
                "pitch": 62,
                "velocity": 101,
                "duration": 0.2999999999999998,
                "tempo": 120.0
            },
            {
                "start_time": 1.2272727272727273,
                "end_time": 1.8272727272727272,
                "pitch": 60,
                "velocity": 101,
                "duration": 0.5999999999999999,
                "tempo": 120.0
            },
            {
                "start_time": 1.5272727272727271,
                "end_time": 1.8272727272727272,
                "pitch": 60,
                "velocity": 101,
                "duration": 0.30000000000000004,
                "tempo": 120.0
            },
            {
                "start_time": 1.8272727272727272,
                "end_time": 2.131818181818182,
                "pitch": 48,
                "velocity": 101,
                "duration": 0.3045454545454547,
                "tempo": 120.0
            },
            {
                "start_time": 2.131818181818182,
                "end_time": 2.434090909090909,
                "pitch": 46,
                "velocity": 101,
                "duration": 0.30227272727272725,
                "tempo": 120.0
            },
            {
                "start_time": 2.434090909090909,
                "end_time": 2.7409090909090907,
                "pitch": 36,
                "velocity": 101,
                "duration": 0.30681818181818166,
                "tempo": 120.0
            },
            {
                "start_time": 2.7409090909090907,
                "end_time": 3.0477272727272724,
                "pitch": 50,
                "velocity": 101,
                "duration": 0.30681818181818166,
                "tempo": 120.0
            },
            {
                "start_time": 1.5272727272727271,
                "end_time": 3.3454545454545452,
                "pitch": 62,
                "velocity": 101,
                "duration": 1.8181818181818181,
                "tempo": 120.0
            },
            {
                "start_time": 3.0477272727272724,
                "end_time": 3.3454545454545452,
                "pitch": 62,
                "velocity": 101,
                "duration": 0.29772727272727284,
                "tempo": 120.0
            },
            {
                "start_time": 3.3454545454545452,
                "end_time": 3.643181818181818,
                "pitch": 63,
                "velocity": 101,
                "duration": 0.29772727272727284,
                "tempo": 120.0
            },
            {
                "start_time": 3.643181818181818,
                "end_time": 3.9454545454545453,
                "pitch": 55,
                "velocity": 101,
                "duration": 0.30227272727272725,
                "tempo": 120.0
            },
            {
                "start_time": 3.9454545454545453,
                "end_time": 4.25,
                "pitch": 53,
                "velocity": 101,
                "duration": 0.3045454545454547,
                "tempo": 120.0
            },
            {
                "start_time": 4.25,
                "end_time": 4.572727272727272,
                "pitch": 39,
                "velocity": 101,
                "duration": 0.3227272727272723,
                "tempo": 120.0
            },
            {
                "start_time": 4.572727272727272,
                "end_time": 4.879545454545454,
                "pitch": 39,
                "velocity": 101,
                "duration": 0.30681818181818166,
                "tempo": 120.0
            },
            {
                "start_time": 3.9454545454545453,
                "end_time": 5.1863636363636365,
                "pitch": 43,
                "velocity": 101,
                "duration": 1.2409090909090912,
                "tempo": 120.0
            },
            {
                "start_time": 4.879545454545454,
                "end_time": 5.1863636363636365,
                "pitch": 43,
                "velocity": 101,
                "duration": 0.30681818181818254,
                "tempo": 120.0
            },
            {
                "start_time": 5.1863636363636365,
                "end_time": 5.49090909090909,
                "pitch": 55,
                "velocity": 101,
                "duration": 0.3045454545454538,
                "tempo": 120.0
            },
            {
                "start_time": 5.49090909090909,
                "end_time": 5.795454545454545,
                "pitch": 69,
                "velocity": 101,
                "duration": 0.3045454545454547,
                "tempo": 120.0
            },
            {
                "start_time": 0.9204545454545454,
                "end_time": 5.795454545454545,
                "pitch": 70,
                "velocity": 101,
                "duration": 4.875,
                "tempo": 120.0
            },
            {
                "start_time": 5.795454545454545,
                "end_time": 6.097727272727273,
                "pitch": 72,
                "velocity": 101,
                "duration": 0.3022727272727277,
                "tempo": 120.0
            },
            {
                "start_time": 6.097727272727273,
                "end_time": 6.3999999999999995,
                "pitch": 62,
                "velocity": 101,
                "duration": 0.3022727272727268,
                "tempo": 120.0
            },
            {
                "start_time": 6.097727272727273,
                "end_time": 6.699999999999999,
                "pitch": 60,
                "velocity": 101,
                "duration": 0.6022727272727266,
                "tempo": 120.0
            },
            {
                "start_time": 6.3999999999999995,
                "end_time": 6.699999999999999,
                "pitch": 60,
                "velocity": 101,
                "duration": 0.2999999999999998,
                "tempo": 120.0
            },
            {
                "start_time": 2.7409090909090907,
                "end_time": 7.0,
                "pitch": 48,
                "velocity": 101,
                "duration": 4.25909090909091,
                "tempo": 120.0
            },
            {
                "start_time": 6.699999999999999,
                "end_time": 7.0,
                "pitch": 48,
                "velocity": 101,
                "duration": 0.3000000000000007,
                "tempo": 120.0
            },
            {
                "start_time": 7.0,
                "end_time": 7.3,
                "pitch": 46,
                "velocity": 101,
                "duration": 0.2999999999999998,
                "tempo": 120.0
            },
            {
                "start_time": 7.3,
                "end_time": 7.6068181818181815,
                "pitch": 48,
                "velocity": 101,
                "duration": 0.30681818181818166,
                "tempo": 120.0
            },
            {
                "start_time": 6.3999999999999995,
                "end_time": 7.913636363636363,
                "pitch": 62,
                "velocity": 101,
                "duration": 1.5136363636363637,
                "tempo": 120.0
            },
            {
                "start_time": 7.6068181818181815,
                "end_time": 7.913636363636363,
                "pitch": 62,
                "velocity": 101,
                "duration": 0.30681818181818166,
                "tempo": 120.0
            },
            {
                "start_time": 7.913636363636363,
                "end_time": 8.211363636363636,
                "pitch": 74,
                "velocity": 101,
                "duration": 0.29772727272727284,
                "tempo": 120.0
            },
            {
                "start_time": 8.211363636363636,
                "end_time": 8.509090909090908,
                "pitch": 75,
                "velocity": 101,
                "duration": 0.29772727272727195,
                "tempo": 120.0
            },
            {
                "start_time": 8.509090909090908,
                "end_time": 8.825,
                "pitch": 67,
                "velocity": 101,
                "duration": 0.31590909090909136,
                "tempo": 120.0
            },
            {
                "start_time": 3.643181818181818,
                "end_time": 9.125,
                "pitch": 65,
                "velocity": 101,
                "duration": 5.481818181818182,
                "tempo": 120.0
            },
            {
                "start_time": 8.825,
                "end_time": 9.125,
                "pitch": 65,
                "velocity": 101,
                "duration": 0.3000000000000007,
                "tempo": 120.0
            },
            {
                "start_time": 9.125,
                "end_time": 9.438636363636363,
                "pitch": 51,
                "velocity": 101,
                "duration": 0.3136363636363626,
                "tempo": 120.0
            },
            {
                "start_time": 4.879545454545454,
                "end_time": 9.752272727272727,
                "pitch": 50,
                "velocity": 101,
                "duration": 4.872727272727273,
                "tempo": 120.0
            },
            {
                "start_time": 9.438636363636363,
                "end_time": 9.752272727272727,
                "pitch": 51,
                "velocity": 101,
                "duration": 0.3136363636363644,
                "tempo": 120.0
            },
            {
                "start_time": 9.752272727272727,
                "end_time": 10.059090909090909,
                "pitch": 43,
                "velocity": 101,
                "duration": 0.30681818181818166,
                "tempo": 120.0
            },
            {
                "start_time": 8.825,
                "end_time": 10.193181818181818,
                "pitch": 55,
                "velocity": 101,
                "duration": 1.368181818181819,
                "tempo": 120.0
            },
            {
                "start_time": 10.059090909090909,
                "end_time": 10.193181818181818,
                "pitch": 55,
                "velocity": 101,
                "duration": 0.1340909090909097,
                "tempo": 120.0
            }
        ],
        "Trumpet": [
            {
                "start_time": 0.0,
                "end_time": 0.3136363636363636,
                "pitch": 55,
                "velocity": 64,
                "duration": 0.3136363636363636,
                "tempo": 120.0
            },
            {
                "start_time": 0.3136363636363636,
                "end_time": 0.6136363636363636,
                "pitch": 67,
                "velocity": 64,
                "duration": 0.30000000000000004,
                "tempo": 120.0
            },
            {
                "start_time": 0.6136363636363636,
                "end_time": 0.9204545454545454,
                "pitch": 81,
                "velocity": 64,
                "duration": 0.30681818181818177,
                "tempo": 120.0
            },
            {
                "start_time": 0.9204545454545454,
                "end_time": 1.2272727272727273,
                "pitch": 84,
                "velocity": 64,
                "duration": 0.3068181818181819,
                "tempo": 120.0
            },
            {
                "start_time": 1.2272727272727273,
                "end_time": 1.5272727272727271,
                "pitch": 72,
                "velocity": 64,
                "duration": 0.2999999999999998,
                "tempo": 120.0
            },
            {
                "start_time": 1.5272727272727271,
                "end_time": 1.8272727272727272,
                "pitch": 74,
                "velocity": 64,
                "duration": 0.30000000000000004,
                "tempo": 120.0
            },
            {
                "start_time": 1.8272727272727272,
                "end_time": 2.131818181818182,
                "pitch": 58,
                "velocity": 64,
                "duration": 0.3045454545454547,
                "tempo": 120.0
            },
            {
                "start_time": 2.131818181818182,
                "end_time": 2.434090909090909,
                "pitch": 58,
                "velocity": 64,
                "duration": 0.30227272727272725,
                "tempo": 120.0
            },
            {
                "start_time": 2.434090909090909,
                "end_time": 2.7409090909090907,
                "pitch": 48,
                "velocity": 64,
                "duration": 0.30681818181818166,
                "tempo": 120.0
            },
            {
                "start_time": 1.8272727272727272,
                "end_time": 2.7409090909090907,
                "pitch": 60,
                "velocity": 64,
                "duration": 0.9136363636363636,
                "tempo": 120.0
            },
            {
                "start_time": 0.0,
                "end_time": 3.0477272727272724,
                "pitch": 62,
                "velocity": 64,
                "duration": 3.0477272727272724,
                "tempo": 120.0
            },
            {
                "start_time": 2.7409090909090907,
                "end_time": 3.0477272727272724,
                "pitch": 62,
                "velocity": 64,
                "duration": 0.30681818181818166,
                "tempo": 120.0
            },
            {
                "start_time": 3.0477272727272724,
                "end_time": 3.3454545454545452,
                "pitch": 74,
                "velocity": 64,
                "duration": 0.29772727272727284,
                "tempo": 120.0
            },
            {
                "start_time": 3.3454545454545452,
                "end_time": 3.643181818181818,
                "pitch": 75,
                "velocity": 64,
                "duration": 0.29772727272727284,
                "tempo": 120.0
            },
            {
                "start_time": 3.643181818181818,
                "end_time": 3.9454545454545453,
                "pitch": 67,
                "velocity": 64,
                "duration": 0.30227272727272725,
                "tempo": 120.0
            },
            {
                "start_time": 3.9454545454545453,
                "end_time": 4.25,
                "pitch": 65,
                "velocity": 64,
                "duration": 0.3045454545454547,
                "tempo": 120.0
            },
            {
                "start_time": 4.25,
                "end_time": 4.572727272727272,
                "pitch": 51,
                "velocity": 64,
                "duration": 0.3227272727272723,
                "tempo": 120.0
            },
            {
                "start_time": 4.572727272727272,
                "end_time": 4.879545454545454,
                "pitch": 51,
                "velocity": 64,
                "duration": 0.30681818181818166,
                "tempo": 120.0
            },
            {
                "start_time": 3.9454545454545453,
                "end_time": 5.1863636363636365,
                "pitch": 55,
                "velocity": 64,
                "duration": 1.2409090909090912,
                "tempo": 120.0
            },
            {
                "start_time": 4.879545454545454,
                "end_time": 5.1863636363636365,
                "pitch": 55,
                "velocity": 64,
                "duration": 0.30681818181818254,
                "tempo": 120.0
            },
            {
                "start_time": 5.1863636363636365,
                "end_time": 5.493181818181818,
                "pitch": 67,
                "velocity": 64,
                "duration": 0.30681818181818166,
                "tempo": 120.0
            },
            {
                "start_time": 5.493181818181818,
                "end_time": 5.795454545454545,
                "pitch": 81,
                "velocity": 64,
                "duration": 0.3022727272727268,
                "tempo": 120.0
            },
            {
                "start_time": 0.9204545454545454,
                "end_time": 5.795454545454545,
                "pitch": 82,
                "velocity": 64,
                "duration": 4.875,
                "tempo": 120.0
            },
            {
                "start_time": 5.795454545454545,
                "end_time": 6.1,
                "pitch": 84,
                "velocity": 64,
                "duration": 0.3045454545454547,
                "tempo": 120.0
            },
            {
                "start_time": 6.1,
                "end_time": 6.3999999999999995,
                "pitch": 72,
                "velocity": 64,
                "duration": 0.2999999999999998,
                "tempo": 120.0
            },
            {
                "start_time": 2.7409090909090907,
                "end_time": 6.699999999999999,
                "pitch": 60,
                "velocity": 64,
                "duration": 3.9590909090909085,
                "tempo": 120.0
            },
            {
                "start_time": 6.3999999999999995,
                "end_time": 6.699999999999999,
                "pitch": 74,
                "velocity": 64,
                "duration": 0.2999999999999998,
                "tempo": 120.0
            },
            {
                "start_time": 6.699999999999999,
                "end_time": 7.0,
                "pitch": 58,
                "velocity": 64,
                "duration": 0.3000000000000007,
                "tempo": 120.0
            },
            {
                "start_time": 7.0,
                "end_time": 7.3,
                "pitch": 58,
                "velocity": 64,
                "duration": 0.2999999999999998,
                "tempo": 120.0
            },
            {
                "start_time": 6.699999999999999,
                "end_time": 7.6068181818181815,
                "pitch": 60,
                "velocity": 64,
                "duration": 0.9068181818181822,
                "tempo": 120.0
            },
            {
                "start_time": 7.3,
                "end_time": 7.6068181818181815,
                "pitch": 60,
                "velocity": 64,
                "duration": 0.30681818181818166,
                "tempo": 120.0
            },
            {
                "start_time": 7.6068181818181815,
                "end_time": 7.913636363636363,
                "pitch": 72,
                "velocity": 64,
                "duration": 0.30681818181818166,
                "tempo": 120.0
            },
            {
                "start_time": 7.913636363636363,
                "end_time": 8.211363636363636,
                "pitch": 86,
                "velocity": 64,
                "duration": 0.29772727272727284,
                "tempo": 120.0
            },
            {
                "start_time": 8.211363636363636,
                "end_time": 8.509090909090908,
                "pitch": 87,
                "velocity": 64,
                "duration": 0.29772727272727195,
                "tempo": 120.0
            },
            {
                "start_time": 8.509090909090908,
                "end_time": 8.825,
                "pitch": 79,
                "velocity": 64,
                "duration": 0.31590909090909136,
                "tempo": 120.0
            },
            {
                "start_time": 3.643181818181818,
                "end_time": 9.125,
                "pitch": 77,
                "velocity": 64,
                "duration": 5.481818181818182,
                "tempo": 120.0
            },
            {
                "start_time": 8.825,
                "end_time": 9.125,
                "pitch": 77,
                "velocity": 64,
                "duration": 0.3000000000000007,
                "tempo": 120.0
            },
            {
                "start_time": 9.125,
                "end_time": 9.438636363636363,
                "pitch": 65,
                "velocity": 64,
                "duration": 0.3136363636363626,
                "tempo": 120.0
            },
            {
                "start_time": 4.879545454545454,
                "end_time": 9.752272727272727,
                "pitch": 62,
                "velocity": 64,
                "duration": 4.872727272727273,
                "tempo": 120.0
            },
            {
                "start_time": 9.438636363636363,
                "end_time": 9.752272727272727,
                "pitch": 63,
                "velocity": 64,
                "duration": 0.3136363636363644,
                "tempo": 120.0
            },
            {
                "start_time": 9.752272727272727,
                "end_time": 10.059090909090909,
                "pitch": 55,
                "velocity": 64,
                "duration": 0.30681818181818166,
                "tempo": 120.0
            },
            {
                "start_time": 8.825,
                "end_time": 10.193181818181818,
                "pitch": 67,
                "velocity": 64,
                "duration": 1.368181818181819,
                "tempo": 120.0
            },
            {
                "start_time": 10.059090909090909,
                "end_time": 10.193181818181818,
                "pitch": 67,
                "velocity": 64,
                "duration": 0.1340909090909097,
                "tempo": 120.0
            }
        ]
    }
}