{
    "track_id": "02 Select Weapon",
    "mood": "angry",
    "instruments": {
        "Electric Piano 1": [
            {
                "start_time": 0.4818181818181818,
                "end_time": 0.6409090909090909,
                "pitch": 53,
                "velocity": 51,
                "duration": 0.15909090909090906,
                "tempo": 120.0
            },
            {
                "start_time": 0.6409090909090909,
                "end_time": 0.9454545454545454,
                "pitch": 51,
                "velocity": 51,
                "duration": 0.30454545454545456,
                "tempo": 120.0
            },
            {
                "start_time": 0.9477272727272726,
                "end_time": 1.3545454545454545,
                "pitch": 53,
                "velocity": 51,
                "duration": 0.40681818181818186,
                "tempo": 120.0
            },
            {
                "start_time": 1.3568181818181817,
                "end_time": 1.440909090909091,
                "pitch": 51,
                "velocity": 51,
                "duration": 0.08409090909090922,
                "tempo": 120.0
            },
            {
                "start_time": 2.411363636363636,
                "end_time": 2.6477272727272725,
                "pitch": 65,
                "velocity": 51,
                "duration": 0.23636363636363633,
                "tempo": 120.0
            },
            {
                "start_time": 2.6477272727272725,
                "end_time": 2.8886363636363637,
                "pitch": 63,
                "velocity": 51,
                "duration": 0.24090909090909118,
                "tempo": 120.0
            },
            {
                "start_time": 2.8886363636363637,
                "end_time": 3.134090909090909,
                "pitch": 77,
                "velocity": 51,
                "duration": 0.24545454545454515,
                "tempo": 120.0
            },
            {
                "start_time": 3.134090909090909,
                "end_time": 3.3659090909090907,
                "pitch": 75,
                "velocity": 51,
                "duration": 0.23181818181818192,
                "tempo": 120.0
            },
            {
                "start_time": 3.3659090909090907,
                "end_time": 3.5318181818181817,
                "pitch": 74,
                "velocity": 51,
                "duration": 0.165909090909091,
                "tempo": 120.0
            },
            {
                "start_time": 3.5318181818181817,
                "end_time": 3.6159090909090907,
                "pitch": 75,
                "velocity": 51,
                "duration": 0.084090909090909,
                "tempo": 120.0
            },
            {
                "start_time": 3.6159090909090907,
                "end_time": 3.7636363636363637,
                "pitch": 77,
                "velocity": 51,
                "duration": 0.14772727272727293,
                "tempo": 120.0
            },
            {
                "start_time": 3.7636363636363637,
                "end_time": 3.8499999999999996,
                "pitch": 77,
                "velocity": 51,
                "duration": 0.08636363636363598,
                "tempo": 120.0
            },
            {
                "start_time": 4.334090909090909,
                "end_time": 4.486363636363636,
                "pitch": 53,
                "velocity": 51,
                "duration": 0.15227272727272734,
                "tempo": 120.0
            },
            {
                "start_time": 4.486363636363636,
                "end_time": 4.829545454545454,
                "pitch": 51,
                "velocity": 51,
                "duration": 0.3431818181818178,
                "tempo": 120.0
            },
            {
                "start_time": 4.829545454545454,
                "end_time": 5.2318181818181815,
                "pitch": 53,
                "velocity": 51,
                "duration": 0.40227272727272734,
                "tempo": 120.0
            },
            {
                "start_time": 5.2318181818181815,
                "end_time": 5.3,
                "pitch": 51,
                "velocity": 51,
                "duration": 0.06818181818181834,
                "tempo": 120.0
            },
            {
                "start_time": 6.259090909090909,
                "end_time": 6.497727272727272,
                "pitch": 65,
                "velocity": 51,
                "duration": 0.2386363636363633,
                "tempo": 120.0
            },
            {
                "start_time": 6.497727272727272,
                "end_time": 6.754545454545454,
                "pitch": 63,
                "velocity": 51,
                "duration": 0.25681818181818183,
                "tempo": 120.0
            },
            {
                "start_time": 6.754545454545454,
                "end_time": 6.99090909090909,
                "pitch": 77,
                "velocity": 51,
                "duration": 0.23636363636363633,
                "tempo": 120.0
            },
            {
                "start_time": 6.99090909090909,
                "end_time": 7.243181818181818,
                "pitch": 75,
                "velocity": 51,
                "duration": 0.25227272727272787,
                "tempo": 120.0
            },
            {
                "start_time": 7.243181818181818,
                "end_time": 7.393181818181818,
                "pitch": 74,
                "velocity": 51,
                "duration": 0.14999999999999947,
                "tempo": 120.0
            },
            {
                "start_time": 7.393181818181818,
                "end_time": 7.477272727272727,
                "pitch": 75,
                "velocity": 51,
                "duration": 0.084090909090909,
                "tempo": 120.0
            },
            {
                "start_time": 7.477272727272727,
                "end_time": 7.643181818181818,
                "pitch": 77,
                "velocity": 51,
                "duration": 0.165909090909091,
                "tempo": 120.0
            },
            {
                "start_time": 7.643181818181818,
                "end_time": 7.711363636363636,
                "pitch": 77,
                "velocity": 51,
                "duration": 0.06818181818181834,
                "tempo": 120.0
            },
            {
                "start_time": 8.186363636363636,
                "end_time": 8.352272727272727,
                "pitch": 56,
                "velocity": 51,
                "duration": 0.165909090909091,
                "tempo": 120.0
            },
            {
                "start_time": 8.352272727272727,
                "end_time": 8.670454545454545,
                "pitch": 54,
                "velocity": 51,
                "duration": 0.31818181818181834,
                "tempo": 120.0
            },
            {
                "start_time": 8.670454545454545,
                "end_time": 9.079545454545453,
                "pitch": 56,
                "velocity": 51,
                "duration": 0.4090909090909083,
                "tempo": 120.0
            },
            {
                "start_time": 9.079545454545453,
                "end_time": 9.165909090909091,
                "pitch": 54,
                "velocity": 51,
                "duration": 0.08636363636363775,
                "tempo": 120.0
            },
            {
                "start_time": 10.134090909090908,
                "end_time": 10.379545454545454,
                "pitch": 68,
                "velocity": 51,
                "duration": 0.24545454545454604,
                "tempo": 120.0
            },
            {
                "start_time": 10.379545454545454,
                "end_time": 10.60909090909091,
                "pitch": 66,
                "velocity": 51,
                "duration": 0.22954545454545539,
                "tempo": 120.0
            },
            {
                "start_time": 10.60909090909091,
                "end_time": 10.861363636363636,
                "pitch": 80,
                "velocity": 51,
                "duration": 0.252272727272727,
                "tempo": 120.0
            },
            {
                "start_time": 10.861363636363636,
                "end_time": 11.097727272727273,
                "pitch": 78,
                "velocity": 51,
                "duration": 0.23636363636363633,
                "tempo": 120.0
            },
            {
                "start_time": 11.097727272727273,
                "end_time": 11.263636363636364,
                "pitch": 77,
                "velocity": 51,
                "duration": 0.165909090909091,
                "tempo": 120.0
            },
            {
                "start_time": 11.263636363636364,
                "end_time": 11.331818181818182,
                "pitch": 78,
                "velocity": 51,
                "duration": 0.06818181818181834,
                "tempo": 120.0
            },
            {
                "start_time": 11.334090909090909,
                "end_time": 11.5,
                "pitch": 80,
                "velocity": 51,
                "duration": 0.165909090909091,
                "tempo": 120.0
            },
            {
                "start_time": 11.5,
                "end_time": 11.586363636363636,
                "pitch": 80,
                "velocity": 51,
                "duration": 0.08636363636363598,
                "tempo": 120.0
            },
            {
                "start_time": 12.068181818181818,
                "end_time": 12.222727272727273,
                "pitch": 56,
                "velocity": 51,
                "duration": 0.15454545454545432,
                "tempo": 120.0
            },
            {
                "start_time": 12.222727272727273,
                "end_time": 12.547727272727272,
                "pitch": 54,
                "velocity": 51,
                "duration": 0.3249999999999993,
                "tempo": 120.0
            },
            {
                "start_time": 12.547727272727272,
                "end_time": 12.94090909090909,
                "pitch": 56,
                "velocity": 51,
                "duration": 0.39318181818181763,
                "tempo": 120.0
            },
            {
                "start_time": 12.94090909090909,
                "end_time": 13.024999999999999,
                "pitch": 54,
                "velocity": 51,
                "duration": 0.084090909090909,
                "tempo": 120.0
            },
            {
                "start_time": 14.0,
                "end_time": 14.238636363636363,
                "pitch": 68,
                "velocity": 51,
                "duration": 0.2386363636363633,
                "tempo": 120.0
            },
            {
                "start_time": 14.238636363636363,
                "end_time": 14.495454545454544,
                "pitch": 66,
                "velocity": 51,
                "duration": 0.25681818181818095,
                "tempo": 120.0
            },
            {
                "start_time": 14.495454545454544,
                "end_time": 14.73181818181818,
                "pitch": 80,
                "velocity": 51,
                "duration": 0.23636363636363633,
                "tempo": 120.0
            },
            {
                "start_time": 14.73181818181818,
                "end_time": 14.96590909090909,
                "pitch": 78,
                "velocity": 51,
                "duration": 0.23409090909090935,
                "tempo": 120.0
            },
            {
                "start_time": 14.96590909090909,
                "end_time": 15.129545454545454,
                "pitch": 77,
                "velocity": 51,
                "duration": 0.16363636363636402,
                "tempo": 120.0
            },
            {
                "start_time": 15.129545454545454,
                "end_time": 15.213636363636363,
                "pitch": 78,
                "velocity": 51,
                "duration": 0.084090909090909,
                "tempo": 120.0
            },
            {
                "start_time": 15.213636363636363,
                "end_time": 15.359090909090908,
                "pitch": 80,
                "velocity": 51,
                "duration": 0.14545454545454461,
                "tempo": 120.0
            },
            {
                "start_time": 15.359090909090908,
                "end_time": 15.443181818181817,
                "pitch": 80,
                "velocity": 51,
                "duration": 0.084090909090909,
                "tempo": 120.0
            }
        ],
        "Lead 2 (sawtooth)": [
            {
                "start_time": 1.6749999999999998,
                "end_time": 1.8409090909090908,
                "pitch": 77,
                "velocity": 64,
                "duration": 0.165909090909091,
                "tempo": 120.0
            },
            {
                "start_time": 1.8409090909090908,
                "end_time": 1.9249999999999998,
                "pitch": 77,
                "velocity": 64,
                "duration": 0.084090909090909,
                "tempo": 120.0
            },
            {
                "start_time": 5.545454545454545,
                "end_time": 5.693181818181818,
                "pitch": 77,
                "velocity": 64,
                "duration": 0.14772727272727337,
                "tempo": 120.0
            },
            {
                "start_time": 5.693181818181818,
                "end_time": 5.7749999999999995,
                "pitch": 77,
                "velocity": 64,
                "duration": 0.08181818181818112,
                "tempo": 120.0
            },
            {
                "start_time": 9.402272727272727,
                "end_time": 9.568181818181818,
                "pitch": 80,
                "velocity": 64,
                "duration": 0.165909090909091,
                "tempo": 120.0
            },
            {
                "start_time": 9.570454545454545,
                "end_time": 9.654545454545454,
                "pitch": 80,
                "velocity": 64,
                "duration": 0.084090909090909,
                "tempo": 120.0
            },
            {
                "start_time": 13.277272727272727,
                "end_time": 13.427272727272726,
                "pitch": 80,
                "velocity": 64,
                "duration": 0.14999999999999858,
                "tempo": 120.0
            },
            {
                "start_time": 13.427272727272726,
                "end_time": 13.511363636363635,
                "pitch": 80,
                "velocity": 64,
                "duration": 0.084090909090909,
                "tempo": 120.0
            }
        ],
        "Harpsichord": [
            {
                "start_time": 0.013636363636363636,
                "end_time": 0.6409090909090909,
                "pitch": 34,
                "velocity": 51,
                "duration": 0.6272727272727272,
                "tempo": 120.0
            },
            {
                "start_time": 0.6409090909090909,
                "end_time": 0.7204545454545455,
                "pitch": 27,
                "velocity": 51,
                "duration": 0.07954545454545459,
                "tempo": 120.0
            },
            {
                "start_time": 0.7204545454545455,
                "end_time": 0.8659090909090909,
                "pitch": 34,
                "velocity": 51,
                "duration": 0.1454545454545454,
                "tempo": 120.0
            },
            {
                "start_time": 0.8659090909090909,
                "end_time": 0.9477272727272726,
                "pitch": 34,
                "velocity": 51,
                "duration": 0.08181818181818179,
                "tempo": 120.0
            },
            {
                "start_time": 1.6068181818181817,
                "end_time": 1.6772727272727272,
                "pitch": 27,
                "velocity": 51,
                "duration": 0.07045454545454555,
                "tempo": 120.0
            },
            {
                "start_time": 1.6772727272727272,
                "end_time": 1.8409090909090908,
                "pitch": 32,
                "velocity": 51,
                "duration": 0.16363636363636358,
                "tempo": 120.0
            },
            {
                "start_time": 1.843181818181818,
                "end_time": 2.0749999999999997,
                "pitch": 34,
                "velocity": 51,
                "duration": 0.2318181818181817,
                "tempo": 120.0
            },
            {
                "start_time": 2.0749999999999997,
                "end_time": 2.159090909090909,
                "pitch": 34,
                "velocity": 51,
                "duration": 0.08409090909090944,
                "tempo": 120.0
            },
            {
                "start_time": 2.159090909090909,
                "end_time": 2.3249999999999997,
                "pitch": 46,
                "velocity": 51,
                "duration": 0.16590909090909056,
                "tempo": 120.0
            },
            {
                "start_time": 2.3249999999999997,
                "end_time": 2.411363636363636,
                "pitch": 34,
                "velocity": 51,
                "duration": 0.08636363636363642,
                "tempo": 120.0
            },
            {
                "start_time": 2.411363636363636,
                "end_time": 2.561363636363636,
                "pitch": 44,
                "velocity": 51,
                "duration": 0.1499999999999999,
                "tempo": 120.0
            },
            {
                "start_time": 2.561363636363636,
                "end_time": 2.6477272727272725,
                "pitch": 34,
                "velocity": 51,
                "duration": 0.08636363636363642,
                "tempo": 120.0
            },
            {
                "start_time": 2.65,
                "end_time": 2.6636363636363636,
                "pitch": 29,
                "velocity": 51,
                "duration": 0.013636363636363669,
                "tempo": 120.0
            },
            {
                "start_time": 2.6636363636363636,
                "end_time": 2.715909090909091,
                "pitch": 31,
                "velocity": 51,
                "duration": 0.05227272727272725,
                "tempo": 120.0
            },
            {
                "start_time": 2.715909090909091,
                "end_time": 2.734090909090909,
                "pitch": 35,
                "velocity": 51,
                "duration": 0.018181818181818077,
                "tempo": 120.0
            },
            {
                "start_time": 2.734090909090909,
                "end_time": 2.75,
                "pitch": 36,
                "velocity": 51,
                "duration": 0.015909090909091095,
                "tempo": 120.0
            },
            {
                "start_time": 2.75,
                "end_time": 2.768181818181818,
                "pitch": 39,
                "velocity": 51,
                "duration": 0.018181818181818077,
                "tempo": 120.0
            },
            {
                "start_time": 2.768181818181818,
                "end_time": 2.784090909090909,
                "pitch": 41,
                "velocity": 51,
                "duration": 0.015909090909091095,
                "tempo": 120.0
            },
            {
                "start_time": 2.784090909090909,
                "end_time": 2.818181818181818,
                "pitch": 43,
                "velocity": 51,
                "duration": 0.03409090909090873,
                "tempo": 120.0
            },
            {
                "start_time": 2.8204545454545453,
                "end_time": 2.8886363636363637,
                "pitch": 34,
                "velocity": 51,
                "duration": 0.06818181818181834,
                "tempo": 120.0
            },
            {
                "start_time": 2.8886363636363637,
                "end_time": 3.0522727272727272,
                "pitch": 41,
                "velocity": 51,
                "duration": 0.16363636363636358,
                "tempo": 120.0
            },
            {
                "start_time": 3.0522727272727272,
                "end_time": 3.1363636363636362,
                "pitch": 34,
                "velocity": 51,
                "duration": 0.084090909090909,
                "tempo": 120.0
            },
            {
                "start_time": 3.1363636363636362,
                "end_time": 3.2818181818181817,
                "pitch": 43,
                "velocity": 51,
                "duration": 0.1454545454545455,
                "tempo": 120.0
            },
            {
                "start_time": 3.2818181818181817,
                "end_time": 3.3659090909090907,
                "pitch": 34,
                "velocity": 51,
                "duration": 0.084090909090909,
                "tempo": 120.0
            },
            {
                "start_time": 3.3659090909090907,
                "end_time": 3.5318181818181817,
                "pitch": 41,
                "velocity": 51,
                "duration": 0.165909090909091,
                "tempo": 120.0
            },
            {
                "start_time": 3.5318181818181817,
                "end_time": 3.6159090909090907,
                "pitch": 34,
                "velocity": 51,
                "duration": 0.084090909090909,
                "tempo": 120.0
            },
            {
                "start_time": 3.6159090909090907,
                "end_time": 3.7659090909090907,
                "pitch": 36,
                "velocity": 51,
                "duration": 0.1499999999999999,
                "tempo": 120.0
            },
            {
                "start_time": 3.7659090909090907,
                "end_time": 3.8499999999999996,
                "pitch": 34,
                "velocity": 51,
                "duration": 0.084090909090909,
                "tempo": 120.0
            },
            {
                "start_time": 3.8499999999999996,
                "end_time": 4.486363636363636,
                "pitch": 34,
                "velocity": 51,
                "duration": 0.6363636363636367,
                "tempo": 120.0
            },
            {
                "start_time": 4.486363636363636,
                "end_time": 4.570454545454545,
                "pitch": 27,
                "velocity": 51,
                "duration": 0.084090909090909,
                "tempo": 120.0
            },
            {
                "start_time": 4.572727272727272,
                "end_time": 4.74090909090909,
                "pitch": 34,
                "velocity": 51,
                "duration": 0.168181818181818,
                "tempo": 120.0
            },
            {
                "start_time": 4.74090909090909,
                "end_time": 4.829545454545454,
                "pitch": 34,
                "velocity": 51,
                "duration": 0.08863636363636385,
                "tempo": 120.0
            },
            {
                "start_time": 5.463636363636363,
                "end_time": 5.547727272727273,
                "pitch": 27,
                "velocity": 51,
                "duration": 0.08409090909090988,
                "tempo": 120.0
            },
            {
                "start_time": 5.547727272727273,
                "end_time": 5.693181818181818,
                "pitch": 32,
                "velocity": 51,
                "duration": 0.1454545454545455,
                "tempo": 120.0
            },
            {
                "start_time": 5.693181818181818,
                "end_time": 5.9409090909090905,
                "pitch": 34,
                "velocity": 51,
                "duration": 0.24772727272727213,
                "tempo": 120.0
            },
            {
                "start_time": 5.9409090909090905,
                "end_time": 6.0249999999999995,
                "pitch": 34,
                "velocity": 51,
                "duration": 0.084090909090909,
                "tempo": 120.0
            },
            {
                "start_time": 6.027272727272727,
                "end_time": 6.175,
                "pitch": 46,
                "velocity": 51,
                "duration": 0.14772727272727249,
                "tempo": 120.0
            },
            {
                "start_time": 6.175,
                "end_time": 6.261363636363636,
                "pitch": 34,
                "velocity": 51,
                "duration": 0.08636363636363598,
                "tempo": 120.0
            },
            {
                "start_time": 6.261363636363636,
                "end_time": 6.429545454545455,
                "pitch": 44,
                "velocity": 51,
                "duration": 0.16818181818181888,
                "tempo": 120.0
            },
            {
                "start_time": 6.429545454545455,
                "end_time": 6.497727272727272,
                "pitch": 34,
                "velocity": 51,
                "duration": 0.06818181818181746,
                "tempo": 120.0
            },
            {
                "start_time": 6.497727272727272,
                "end_time": 6.531818181818181,
                "pitch": 29,
                "velocity": 51,
                "duration": 0.03409090909090917,
                "tempo": 120.0
            },
            {
                "start_time": 6.531818181818181,
                "end_time": 6.5659090909090905,
                "pitch": 31,
                "velocity": 51,
                "duration": 0.03409090909090917,
                "tempo": 120.0
            },
            {
                "start_time": 2.734090909090909,
                "end_time": 6.581818181818181,
                "pitch": 24,
                "velocity": 51,
                "duration": 3.847727272727272,
                "tempo": 120.0
            },
            {
                "start_time": 6.5659090909090905,
                "end_time": 6.581818181818181,
                "pitch": 35,
                "velocity": 51,
                "duration": 0.01590909090909065,
                "tempo": 120.0
            },
            {
                "start_time": 6.581818181818181,
                "end_time": 6.6,
                "pitch": 36,
                "velocity": 51,
                "duration": 0.01818181818181852,
                "tempo": 120.0
            },
            {
                "start_time": 6.6,
                "end_time": 6.634090909090909,
                "pitch": 39,
                "velocity": 51,
                "duration": 0.03409090909090917,
                "tempo": 120.0
            },
            {
                "start_time": 6.634090909090909,
                "end_time": 6.652272727272727,
                "pitch": 41,
                "velocity": 51,
                "duration": 0.01818181818181852,
                "tempo": 120.0
            },
            {
                "start_time": 6.652272727272727,
                "end_time": 6.668181818181818,
                "pitch": 43,
                "velocity": 51,
                "duration": 0.01590909090909065,
                "tempo": 120.0
            },
            {
                "start_time": 6.668181818181818,
                "end_time": 6.756818181818182,
                "pitch": 34,
                "velocity": 51,
                "duration": 0.08863636363636385,
                "tempo": 120.0
            },
            {
                "start_time": 6.756818181818182,
                "end_time": 6.906818181818181,
                "pitch": 41,
                "velocity": 51,
                "duration": 0.14999999999999947,
                "tempo": 120.0
            },
            {
                "start_time": 6.906818181818181,
                "end_time": 6.99090909090909,
                "pitch": 34,
                "velocity": 51,
                "duration": 0.084090909090909,
                "tempo": 120.0
            },
            {
                "start_time": 6.99090909090909,
                "end_time": 7.159090909090909,
                "pitch": 43,
                "velocity": 51,
                "duration": 0.16818181818181888,
                "tempo": 120.0
            },
            {
                "start_time": 7.159090909090909,
                "end_time": 7.243181818181818,
                "pitch": 34,
                "velocity": 51,
                "duration": 0.084090909090909,
                "tempo": 120.0
            },
            {
                "start_time": 7.243181818181818,
                "end_time": 7.393181818181818,
                "pitch": 41,
                "velocity": 51,
                "duration": 0.14999999999999947,
                "tempo": 120.0
            },
            {
                "start_time": 7.393181818181818,
                "end_time": 7.477272727272727,
                "pitch": 34,
                "velocity": 51,
                "duration": 0.084090909090909,
                "tempo": 120.0
            },
            {
                "start_time": 7.477272727272727,
                "end_time": 7.643181818181818,
                "pitch": 36,
                "velocity": 51,
                "duration": 0.165909090909091,
                "tempo": 120.0
            },
            {
                "start_time": 7.643181818181818,
                "end_time": 7.711363636363636,
                "pitch": 34,
                "velocity": 51,
                "duration": 0.06818181818181834,
                "tempo": 120.0
            },
            {
                "start_time": 7.711363636363636,
                "end_time": 8.352272727272727,
                "pitch": 37,
                "velocity": 51,
                "duration": 0.6409090909090907,
                "tempo": 120.0
            },
            {
                "start_time": 8.354545454545454,
                "end_time": 8.436363636363636,
                "pitch": 30,
                "velocity": 51,
                "duration": 0.08181818181818201,
                "tempo": 120.0
            },
            {
                "start_time": 8.436363636363636,
                "end_time": 8.586363636363636,
                "pitch": 37,
                "velocity": 51,
                "duration": 0.15000000000000036,
                "tempo": 120.0
            },
            {
                "start_time": 8.586363636363636,
                "end_time": 8.670454545454545,
                "pitch": 37,
                "velocity": 51,
                "duration": 0.084090909090909,
                "tempo": 120.0
            },
            {
                "start_time": 9.31590909090909,
                "end_time": 9.402272727272727,
                "pitch": 30,
                "velocity": 51,
                "duration": 0.08636363636363775,
                "tempo": 120.0
            },
            {
                "start_time": 9.402272727272727,
                "end_time": 9.570454545454545,
                "pitch": 35,
                "velocity": 51,
                "duration": 0.168181818181818,
                "tempo": 120.0
            },
            {
                "start_time": 9.570454545454545,
                "end_time": 9.806818181818182,
                "pitch": 37,
                "velocity": 51,
                "duration": 0.23636363636363633,
                "tempo": 120.0
            },
            {
                "start_time": 9.806818181818182,
                "end_time": 9.893181818181818,
                "pitch": 37,
                "velocity": 51,
                "duration": 0.08636363636363598,
                "tempo": 120.0
            },
            {
                "start_time": 9.893181818181818,
                "end_time": 10.063636363636363,
                "pitch": 49,
                "velocity": 51,
                "duration": 0.17045454545454497,
                "tempo": 120.0
            },
            {
                "start_time": 10.063636363636363,
                "end_time": 10.134090909090908,
                "pitch": 37,
                "velocity": 51,
                "duration": 0.07045454545454533,
                "tempo": 120.0
            },
            {
                "start_time": 10.134090909090908,
                "end_time": 10.295454545454545,
                "pitch": 47,
                "velocity": 51,
                "duration": 0.16136363636363704,
                "tempo": 120.0
            },
            {
                "start_time": 10.295454545454545,
                "end_time": 10.379545454545454,
                "pitch": 37,
                "velocity": 51,
                "duration": 0.084090909090909,
                "tempo": 120.0
            },
            {
                "start_time": 10.379545454545454,
                "end_time": 10.411363636363635,
                "pitch": 32,
                "velocity": 51,
                "duration": 0.0318181818181813,
                "tempo": 120.0
            },
            {
                "start_time": 10.411363636363635,
                "end_time": 10.427272727272726,
                "pitch": 35,
                "velocity": 51,
                "duration": 0.01590909090909065,
                "tempo": 120.0
            },
            {
                "start_time": 10.427272727272726,
                "end_time": 10.459090909090909,
                "pitch": 37,
                "velocity": 51,
                "duration": 0.03181818181818308,
                "tempo": 120.0
            },
            {
                "start_time": 10.459090909090909,
                "end_time": 10.477272727272727,
                "pitch": 40,
                "velocity": 51,
                "duration": 0.018181818181817633,
                "tempo": 120.0
            },
            {
                "start_time": 10.477272727272727,
                "end_time": 10.509090909090908,
                "pitch": 42,
                "velocity": 51,
                "duration": 0.0318181818181813,
                "tempo": 120.0
            },
            {
                "start_time": 10.509090909090908,
                "end_time": 10.527272727272727,
                "pitch": 46,
                "velocity": 51,
                "duration": 0.01818181818181941,
                "tempo": 120.0
            },
            {
                "start_time": 10.527272727272727,
                "end_time": 10.60909090909091,
                "pitch": 37,
                "velocity": 51,
                "duration": 0.08181818181818201,
                "tempo": 120.0
            },
            {
                "start_time": 10.611363636363636,
                "end_time": 10.777272727272727,
                "pitch": 44,
                "velocity": 51,
                "duration": 0.165909090909091,
                "tempo": 120.0
            },
            {
                "start_time": 10.777272727272727,
                "end_time": 10.861363636363636,
                "pitch": 37,
                "velocity": 51,
                "duration": 0.084090909090909,
                "tempo": 120.0
            },
            {
                "start_time": 10.861363636363636,
                "end_time": 11.011363636363637,
                "pitch": 46,
                "velocity": 51,
                "duration": 0.15000000000000036,
                "tempo": 120.0
            },
            {
                "start_time": 11.011363636363637,
                "end_time": 11.097727272727273,
                "pitch": 37,
                "velocity": 51,
                "duration": 0.08636363636363598,
                "tempo": 120.0
            },
            {
                "start_time": 11.097727272727273,
                "end_time": 11.26590909090909,
                "pitch": 44,
                "velocity": 51,
                "duration": 0.168181818181818,
                "tempo": 120.0
            },
            {
                "start_time": 11.26590909090909,
                "end_time": 11.334090909090909,
                "pitch": 37,
                "velocity": 51,
                "duration": 0.06818181818181834,
                "tempo": 120.0
            },
            {
                "start_time": 11.334090909090909,
                "end_time": 11.5,
                "pitch": 39,
                "velocity": 51,
                "duration": 0.165909090909091,
                "tempo": 120.0
            },
            {
                "start_time": 11.5,
                "end_time": 11.586363636363636,
                "pitch": 37,
                "velocity": 51,
                "duration": 0.08636363636363598,
                "tempo": 120.0
            },
            {
                "start_time": 11.586363636363636,
                "end_time": 12.222727272727273,
                "pitch": 37,
                "velocity": 51,
                "duration": 0.6363636363636367,
                "tempo": 120.0
            },
            {
                "start_time": 12.222727272727273,
                "end_time": 12.306818181818182,
                "pitch": 30,
                "velocity": 51,
                "duration": 0.084090909090909,
                "tempo": 120.0
            },
            {
                "start_time": 12.306818181818182,
                "end_time": 12.477272727272727,
                "pitch": 37,
                "velocity": 51,
                "duration": 0.17045454545454497,
                "tempo": 120.0
            },
            {
                "start_time": 12.477272727272727,
                "end_time": 12.547727272727272,
                "pitch": 37,
                "velocity": 51,
                "duration": 0.07045454545454533,
                "tempo": 120.0
            },
            {
                "start_time": 13.19090909090909,
                "end_time": 13.277272727272727,
                "pitch": 30,
                "velocity": 51,
                "duration": 0.08636363636363775,
                "tempo": 120.0
            },
            {
                "start_time": 13.277272727272727,
                "end_time": 13.427272727272726,
                "pitch": 35,
                "velocity": 51,
                "duration": 0.14999999999999858,
                "tempo": 120.0
            },
            {
                "start_time": 13.427272727272726,
                "end_time": 13.679545454545455,
                "pitch": 37,
                "velocity": 51,
                "duration": 0.25227272727272876,
                "tempo": 120.0
            },
            {
                "start_time": 13.679545454545455,
                "end_time": 13.747727272727271,
                "pitch": 37,
                "velocity": 51,
                "duration": 0.06818181818181657,
                "tempo": 120.0
            },
            {
                "start_time": 13.747727272727271,
                "end_time": 13.913636363636362,
                "pitch": 49,
                "velocity": 51,
                "duration": 0.165909090909091,
                "tempo": 120.0
            },
            {
                "start_time": 13.915909090909091,
                "end_time": 14.0,
                "pitch": 37,
                "velocity": 51,
                "duration": 0.084090909090909,
                "tempo": 120.0
            },
            {
                "start_time": 14.0,
                "end_time": 14.152272727272727,
                "pitch": 47,
                "velocity": 51,
                "duration": 0.15227272727272734,
                "tempo": 120.0
            },
            {
                "start_time": 14.152272727272727,
                "end_time": 14.238636363636363,
                "pitch": 37,
                "velocity": 51,
                "duration": 0.08636363636363598,
                "tempo": 120.0
            },
            {
                "start_time": 14.238636363636363,
                "end_time": 14.288636363636362,
                "pitch": 32,
                "velocity": 51,
                "duration": 0.049999999999998934,
                "tempo": 120.0
            },
            {
                "start_time": 10.427272727272726,
                "end_time": 14.306818181818182,
                "pitch": 25,
                "velocity": 51,
                "duration": 3.8795454545454557,
                "tempo": 120.0
            },
            {
                "start_time": 14.288636363636362,
                "end_time": 14.306818181818182,
                "pitch": 35,
                "velocity": 51,
                "duration": 0.01818181818181941,
                "tempo": 120.0
            },
            {
                "start_time": 14.306818181818182,
                "end_time": 14.322727272727272,
                "pitch": 37,
                "velocity": 51,
                "duration": 0.01590909090909065,
                "tempo": 120.0
            },
            {
                "start_time": 14.322727272727272,
                "end_time": 14.34090909090909,
                "pitch": 40,
                "velocity": 51,
                "duration": 0.018181818181817633,
                "tempo": 120.0
            },
            {
                "start_time": 14.34090909090909,
                "end_time": 14.39090909090909,
                "pitch": 42,
                "velocity": 51,
                "duration": 0.05000000000000071,
                "tempo": 120.0
            },
            {
                "start_time": 14.39090909090909,
                "end_time": 14.409090909090908,
                "pitch": 46,
                "velocity": 51,
                "duration": 0.018181818181817633,
                "tempo": 120.0
            },
            {
                "start_time": 14.409090909090908,
                "end_time": 14.495454545454544,
                "pitch": 37,
                "velocity": 51,
                "duration": 0.08636363636363598,
                "tempo": 120.0
            },
            {
                "start_time": 14.495454545454544,
                "end_time": 14.645454545454545,
                "pitch": 44,
                "velocity": 51,
                "duration": 0.15000000000000036,
                "tempo": 120.0
            },
            {
                "start_time": 14.645454545454545,
                "end_time": 14.73181818181818,
                "pitch": 37,
                "velocity": 51,
                "duration": 0.08636363636363598,
                "tempo": 120.0
            },
            {
                "start_time": 14.73181818181818,
                "end_time": 14.897727272727272,
                "pitch": 46,
                "velocity": 51,
                "duration": 0.165909090909091,
                "tempo": 120.0
            },
            {
                "start_time": 14.897727272727272,
                "end_time": 14.968181818181817,
                "pitch": 37,
                "velocity": 51,
                "duration": 0.07045454545454533,
                "tempo": 120.0
            },
            {
                "start_time": 14.968181818181817,
                "end_time": 15.129545454545454,
                "pitch": 44,
                "velocity": 51,
                "duration": 0.16136363636363704,
                "tempo": 120.0
            },
            {
                "start_time": 15.129545454545454,
                "end_time": 15.213636363636363,
                "pitch": 37,
                "velocity": 51,
                "duration": 0.084090909090909,
                "tempo": 120.0
            },
            {
                "start_time": 15.213636363636363,
                "end_time": 15.361363636363636,
                "pitch": 39,
                "velocity": 51,
                "duration": 0.14772727272727337,
                "tempo": 120.0
            },
            {
                "start_time": 15.361363636363636,
                "end_time": 15.443181818181817,
                "pitch": 37,
                "velocity": 51,
                "duration": 0.08181818181818024,
                "tempo": 120.0
            },
            {
                "start_time": 15.445454545454545,
                "end_time": 15.459090909090909,
                "pitch": 34,
                "velocity": 51,
                "duration": 0.013636363636363669,
                "tempo": 120.0
            }
        ],
        "Acoustic Bass": [
            {
                "start_time": 0.013636363636363636,
                "end_time": 0.6409090909090909,
                "pitch": 34,
                "velocity": 64,
                "duration": 0.6272727272727272,
                "tempo": 120.0
            },
            {
                "start_time": 0.6409090909090909,
                "end_time": 0.7227272727272727,
                "pitch": 27,
                "velocity": 64,
                "duration": 0.08181818181818179,
                "tempo": 120.0
            },
            {
                "start_time": 0.7227272727272727,
                "end_time": 0.8659090909090909,
                "pitch": 34,
                "velocity": 64,
                "duration": 0.1431818181818182,
                "tempo": 120.0
            },
            {
                "start_time": 0.8659090909090909,
                "end_time": 0.9477272727272726,
                "pitch": 34,
                "velocity": 64,
                "duration": 0.08181818181818179,
                "tempo": 120.0
            },
            {
                "start_time": 1.609090909090909,
                "end_time": 1.6772727272727272,
                "pitch": 27,
                "velocity": 64,
                "duration": 0.06818181818181834,
                "tempo": 120.0
            },
            {
                "start_time": 1.6772727272727272,
                "end_time": 1.843181818181818,
                "pitch": 32,
                "velocity": 64,
                "duration": 0.16590909090909078,
                "tempo": 120.0
            },
            {
                "start_time": 1.843181818181818,
                "end_time": 2.0749999999999997,
                "pitch": 34,
                "velocity": 64,
                "duration": 0.2318181818181817,
                "tempo": 120.0
            },
            {
                "start_time": 2.0749999999999997,
                "end_time": 2.159090909090909,
                "pitch": 34,
                "velocity": 64,
                "duration": 0.08409090909090944,
                "tempo": 120.0
            },
            {
                "start_time": 2.161363636363636,
                "end_time": 2.3249999999999997,
                "pitch": 46,
                "velocity": 64,
                "duration": 0.16363636363636358,
                "tempo": 120.0
            },
            {
                "start_time": 2.327272727272727,
                "end_time": 2.411363636363636,
                "pitch": 34,
                "velocity": 64,
                "duration": 0.084090909090909,
                "tempo": 120.0
            },
            {
                "start_time": 2.411363636363636,
                "end_time": 2.5636363636363635,
                "pitch": 44,
                "velocity": 64,
                "duration": 0.15227272727272734,
                "tempo": 120.0
            },
            {
                "start_time": 2.5636363636363635,
                "end_time": 2.65,
                "pitch": 34,
                "velocity": 64,
                "duration": 0.08636363636363642,
                "tempo": 120.0
            },
            {
                "start_time": 2.65,
                "end_time": 2.6818181818181817,
                "pitch": 29,
                "velocity": 64,
                "duration": 0.031818181818181746,
                "tempo": 120.0
            },
            {
                "start_time": 2.6818181818181817,
                "end_time": 2.734090909090909,
                "pitch": 33,
                "velocity": 64,
                "duration": 0.05227272727272725,
                "tempo": 120.0
            },
            {
                "start_time": 2.734090909090909,
                "end_time": 2.75,
                "pitch": 36,
                "velocity": 64,
                "duration": 0.015909090909091095,
                "tempo": 120.0
            },
            {
                "start_time": 2.75,
                "end_time": 2.768181818181818,
                "pitch": 39,
                "velocity": 64,
                "duration": 0.018181818181818077,
                "tempo": 120.0
            },
            {
                "start_time": 2.768181818181818,
                "end_time": 2.8204545454545453,
                "pitch": 41,
                "velocity": 64,
                "duration": 0.05227272727272725,
                "tempo": 120.0
            },
            {
                "start_time": 2.8204545454545453,
                "end_time": 2.8886363636363637,
                "pitch": 34,
                "velocity": 64,
                "duration": 0.06818181818181834,
                "tempo": 120.0
            },
            {
                "start_time": 2.8909090909090907,
                "end_time": 3.0522727272727272,
                "pitch": 41,
                "velocity": 64,
                "duration": 0.1613636363636366,
                "tempo": 120.0
            },
            {
                "start_time": 3.0522727272727272,
                "end_time": 3.1363636363636362,
                "pitch": 34,
                "velocity": 64,
                "duration": 0.084090909090909,
                "tempo": 120.0
            },
            {
                "start_time": 3.1363636363636362,
                "end_time": 3.2818181818181817,
                "pitch": 43,
                "velocity": 64,
                "duration": 0.1454545454545455,
                "tempo": 120.0
            },
            {
                "start_time": 3.2818181818181817,
                "end_time": 3.3659090909090907,
                "pitch": 34,
                "velocity": 64,
                "duration": 0.084090909090909,
                "tempo": 120.0
            },
            {
                "start_time": 3.3659090909090907,
                "end_time": 3.5318181818181817,
                "pitch": 41,
                "velocity": 64,
                "duration": 0.165909090909091,
                "tempo": 120.0
            },
            {
                "start_time": 3.5318181818181817,
                "end_time": 3.6159090909090907,
                "pitch": 34,
                "velocity": 64,
                "duration": 0.084090909090909,
                "tempo": 120.0
            },
            {
                "start_time": 3.6159090909090907,
                "end_time": 3.7659090909090907,
                "pitch": 36,
                "velocity": 64,
                "duration": 0.1499999999999999,
                "tempo": 120.0
            },
            {
                "start_time": 3.7659090909090907,
                "end_time": 3.8499999999999996,
                "pitch": 34,
                "velocity": 64,
                "duration": 0.084090909090909,
                "tempo": 120.0
            },
            {
                "start_time": 3.8499999999999996,
                "end_time": 4.486363636363636,
                "pitch": 34,
                "velocity": 64,
                "duration": 0.6363636363636367,
                "tempo": 120.0
            },
            {
                "start_time": 4.486363636363636,
                "end_time": 4.572727272727272,
                "pitch": 27,
                "velocity": 64,
                "duration": 0.08636363636363598,
                "tempo": 120.0
            },
            {
                "start_time": 4.572727272727272,
                "end_time": 4.743181818181818,
                "pitch": 34,
                "velocity": 64,
                "duration": 0.17045454545454586,
                "tempo": 120.0
            },
            {
                "start_time": 4.743181818181818,
                "end_time": 4.829545454545454,
                "pitch": 34,
                "velocity": 64,
                "duration": 0.08636363636363598,
                "tempo": 120.0
            },
            {
                "start_time": 5.463636363636363,
                "end_time": 5.547727272727273,
                "pitch": 27,
                "velocity": 64,
                "duration": 0.08409090909090988,
                "tempo": 120.0
            },
            {
                "start_time": 5.547727272727273,
                "end_time": 5.693181818181818,
                "pitch": 32,
                "velocity": 64,
                "duration": 0.1454545454545455,
                "tempo": 120.0
            },
            {
                "start_time": 5.693181818181818,
                "end_time": 5.9431818181818175,
                "pitch": 34,
                "velocity": 64,
                "duration": 0.2499999999999991,
                "tempo": 120.0
            },
            {
                "start_time": 5.9431818181818175,
                "end_time": 6.027272727272727,
                "pitch": 34,
                "velocity": 64,
                "duration": 0.08409090909090988,
                "tempo": 120.0
            },
            {
                "start_time": 6.027272727272727,
                "end_time": 6.175,
                "pitch": 46,
                "velocity": 64,
                "duration": 0.14772727272727249,
                "tempo": 120.0
            },
            {
                "start_time": 6.177272727272727,
                "end_time": 6.261363636363636,
                "pitch": 34,
                "velocity": 64,
                "duration": 0.084090909090909,
                "tempo": 120.0
            },
            {
                "start_time": 6.261363636363636,
                "end_time": 6.429545454545455,
                "pitch": 44,
                "velocity": 64,
                "duration": 0.16818181818181888,
                "tempo": 120.0
            },
            {
                "start_time": 6.429545454545455,
                "end_time": 6.5,
                "pitch": 34,
                "velocity": 64,
                "duration": 0.07045454545454533,
                "tempo": 120.0
            },
            {
                "start_time": 6.5,
                "end_time": 6.55,
                "pitch": 29,
                "velocity": 64,
                "duration": 0.04999999999999982,
                "tempo": 120.0
            },
            {
                "start_time": 2.734090909090909,
                "end_time": 6.584090909090909,
                "pitch": 24,
                "velocity": 64,
                "duration": 3.85,
                "tempo": 120.0
            },
            {
                "start_time": 6.55,
                "end_time": 6.584090909090909,
                "pitch": 33,
                "velocity": 64,
                "duration": 0.03409090909090917,
                "tempo": 120.0
            },
            {
                "start_time": 6.584090909090909,
                "end_time": 6.6,
                "pitch": 36,
                "velocity": 64,
                "duration": 0.01590909090909065,
                "tempo": 120.0
            },
            {
                "start_time": 6.6,
                "end_time": 6.634090909090909,
                "pitch": 39,
                "velocity": 64,
                "duration": 0.03409090909090917,
                "tempo": 120.0
            },
            {
                "start_time": 6.634090909090909,
                "end_time": 6.670454545454545,
                "pitch": 41,
                "velocity": 64,
                "duration": 0.036363636363636154,
                "tempo": 120.0
            },
            {
                "start_time": 6.670454545454545,
                "end_time": 6.756818181818182,
                "pitch": 34,
                "velocity": 64,
                "duration": 0.08636363636363686,
                "tempo": 120.0
            },
            {
                "start_time": 6.756818181818182,
                "end_time": 6.906818181818181,
                "pitch": 41,
                "velocity": 64,
                "duration": 0.14999999999999947,
                "tempo": 120.0
            },
            {
                "start_time": 6.906818181818181,
                "end_time": 6.99090909090909,
                "pitch": 34,
                "velocity": 64,
                "duration": 0.084090909090909,
                "tempo": 120.0
            },
            {
                "start_time": 6.993181818181818,
                "end_time": 7.159090909090909,
                "pitch": 43,
                "velocity": 64,
                "duration": 0.165909090909091,
                "tempo": 120.0
            },
            {
                "start_time": 7.159090909090909,
                "end_time": 7.245454545454545,
                "pitch": 34,
                "velocity": 64,
                "duration": 0.08636363636363598,
                "tempo": 120.0
            },
            {
                "start_time": 7.245454545454545,
                "end_time": 7.393181818181818,
                "pitch": 41,
                "velocity": 64,
                "duration": 0.14772727272727249,
                "tempo": 120.0
            },
            {
                "start_time": 7.393181818181818,
                "end_time": 7.477272727272727,
                "pitch": 34,
                "velocity": 64,
                "duration": 0.084090909090909,
                "tempo": 120.0
            },
            {
                "start_time": 7.477272727272727,
                "end_time": 7.643181818181818,
                "pitch": 36,
                "velocity": 64,
                "duration": 0.165909090909091,
                "tempo": 120.0
            },
            {
                "start_time": 7.643181818181818,
                "end_time": 7.711363636363636,
                "pitch": 34,
                "velocity": 64,
                "duration": 0.06818181818181834,
                "tempo": 120.0
            },
            {
                "start_time": 7.713636363636363,
                "end_time": 8.354545454545454,
                "pitch": 37,
                "velocity": 64,
                "duration": 0.6409090909090907,
                "tempo": 120.0
            },
            {
                "start_time": 8.354545454545454,
                "end_time": 8.436363636363636,
                "pitch": 30,
                "velocity": 64,
                "duration": 0.08181818181818201,
                "tempo": 120.0
            },
            {
                "start_time": 8.436363636363636,
                "end_time": 8.586363636363636,
                "pitch": 37,
                "velocity": 64,
                "duration": 0.15000000000000036,
                "tempo": 120.0
            },
            {
                "start_time": 8.586363636363636,
                "end_time": 8.672727272727272,
                "pitch": 37,
                "velocity": 64,
                "duration": 0.08636363636363598,
                "tempo": 120.0
            },
            {
                "start_time": 9.318181818181818,
                "end_time": 9.402272727272727,
                "pitch": 30,
                "velocity": 64,
                "duration": 0.084090909090909,
                "tempo": 120.0
            },
            {
                "start_time": 9.404545454545454,
                "end_time": 9.570454545454545,
                "pitch": 35,
                "velocity": 64,
                "duration": 0.165909090909091,
                "tempo": 120.0
            },
            {
                "start_time": 9.570454545454545,
                "end_time": 9.806818181818182,
                "pitch": 37,
                "velocity": 64,
                "duration": 0.23636363636363633,
                "tempo": 120.0
            },
            {
                "start_time": 9.806818181818182,
                "end_time": 9.893181818181818,
                "pitch": 37,
                "velocity": 64,
                "duration": 0.08636363636363598,
                "tempo": 120.0
            },
            {
                "start_time": 9.895454545454545,
                "end_time": 10.063636363636363,
                "pitch": 49,
                "velocity": 64,
                "duration": 0.168181818181818,
                "tempo": 120.0
            },
            {
                "start_time": 10.063636363636363,
                "end_time": 10.134090909090908,
                "pitch": 37,
                "velocity": 64,
                "duration": 0.07045454545454533,
                "tempo": 120.0
            },
            {
                "start_time": 10.134090909090908,
                "end_time": 10.295454545454545,
                "pitch": 47,
                "velocity": 64,
                "duration": 0.16136363636363704,
                "tempo": 120.0
            },
            {
                "start_time": 10.297727272727272,
                "end_time": 10.379545454545454,
                "pitch": 37,
                "velocity": 64,
                "duration": 0.08181818181818201,
                "tempo": 120.0
            },
            {
                "start_time": 10.379545454545454,
                "end_time": 10.411363636363635,
                "pitch": 32,
                "velocity": 64,
                "duration": 0.0318181818181813,
                "tempo": 120.0
            },
            {
                "start_time": 10.411363636363635,
                "end_time": 10.427272727272726,
                "pitch": 35,
                "velocity": 64,
                "duration": 0.01590909090909065,
                "tempo": 120.0
            },
            {
                "start_time": 10.427272727272726,
                "end_time": 10.461363636363636,
                "pitch": 38,
                "velocity": 64,
                "duration": 0.03409090909091006,
                "tempo": 120.0
            },
            {
                "start_time": 10.461363636363636,
                "end_time": 10.477272727272727,
                "pitch": 40,
                "velocity": 64,
                "duration": 0.01590909090909065,
                "tempo": 120.0
            },
            {
                "start_time": 10.477272727272727,
                "end_time": 10.509090909090908,
                "pitch": 42,
                "velocity": 64,
                "duration": 0.0318181818181813,
                "tempo": 120.0
            },
            {
                "start_time": 10.509090909090908,
                "end_time": 10.527272727272727,
                "pitch": 46,
                "velocity": 64,
                "duration": 0.01818181818181941,
                "tempo": 120.0
            },
            {
                "start_time": 10.527272727272727,
                "end_time": 10.611363636363636,
                "pitch": 37,
                "velocity": 64,
                "duration": 0.084090909090909,
                "tempo": 120.0
            },
            {
                "start_time": 10.611363636363636,
                "end_time": 10.777272727272727,
                "pitch": 44,
                "velocity": 64,
                "duration": 0.165909090909091,
                "tempo": 120.0
            },
            {
                "start_time": 10.777272727272727,
                "end_time": 10.863636363636363,
                "pitch": 37,
                "velocity": 64,
                "duration": 0.08636363636363598,
                "tempo": 120.0
            },
            {
                "start_time": 10.863636363636363,
                "end_time": 11.013636363636364,
                "pitch": 46,
                "velocity": 64,
                "duration": 0.15000000000000036,
                "tempo": 120.0
            },
            {
                "start_time": 11.013636363636364,
                "end_time": 11.097727272727273,
                "pitch": 37,
                "velocity": 64,
                "duration": 0.084090909090909,
                "tempo": 120.0
            },
            {
                "start_time": 11.097727272727273,
                "end_time": 11.26590909090909,
                "pitch": 44,
                "velocity": 64,
                "duration": 0.168181818181818,
                "tempo": 120.0
            },
            {
                "start_time": 11.26590909090909,
                "end_time": 11.334090909090909,
                "pitch": 37,
                "velocity": 64,
                "duration": 0.06818181818181834,
                "tempo": 120.0
            },
            {
                "start_time": 11.334090909090909,
                "end_time": 11.502272727272727,
                "pitch": 39,
                "velocity": 64,
                "duration": 0.168181818181818,
                "tempo": 120.0
            },
            {
                "start_time": 11.502272727272727,
                "end_time": 11.586363636363636,
                "pitch": 37,
                "velocity": 64,
                "duration": 0.084090909090909,
                "tempo": 120.0
            },
            {
                "start_time": 11.586363636363636,
                "end_time": 12.222727272727273,
                "pitch": 37,
                "velocity": 64,
                "duration": 0.6363636363636367,
                "tempo": 120.0
            },
            {
                "start_time": 12.222727272727273,
                "end_time": 12.309090909090909,
                "pitch": 30,
                "velocity": 64,
                "duration": 0.08636363636363598,
                "tempo": 120.0
            },
            {
                "start_time": 12.309090909090909,
                "end_time": 12.477272727272727,
                "pitch": 37,
                "velocity": 64,
                "duration": 0.168181818181818,
                "tempo": 120.0
            },
            {
                "start_time": 12.479545454545454,
                "end_time": 12.547727272727272,
                "pitch": 37,
                "velocity": 64,
                "duration": 0.06818181818181834,
                "tempo": 120.0
            },
            {
                "start_time": 13.19090909090909,
                "end_time": 13.277272727272727,
                "pitch": 30,
                "velocity": 64,
                "duration": 0.08636363636363775,
                "tempo": 120.0
            },
            {
                "start_time": 13.277272727272727,
                "end_time": 13.427272727272726,
                "pitch": 35,
                "velocity": 64,
                "duration": 0.14999999999999858,
                "tempo": 120.0
            },
            {
                "start_time": 13.427272727272726,
                "end_time": 13.679545454545455,
                "pitch": 37,
                "velocity": 64,
                "duration": 0.25227272727272876,
                "tempo": 120.0
            },
            {
                "start_time": 13.679545454545455,
                "end_time": 13.747727272727271,
                "pitch": 37,
                "velocity": 64,
                "duration": 0.06818181818181657,
                "tempo": 120.0
            },
            {
                "start_time": 13.747727272727271,
                "end_time": 13.915909090909091,
                "pitch": 49,
                "velocity": 64,
                "duration": 0.16818181818181976,
                "tempo": 120.0
            },
            {
                "start_time": 13.915909090909091,
                "end_time": 14.0,
                "pitch": 37,
                "velocity": 64,
                "duration": 0.084090909090909,
                "tempo": 120.0
            },
            {
                "start_time": 14.002272727272727,
                "end_time": 14.152272727272727,
                "pitch": 47,
                "velocity": 64,
                "duration": 0.15000000000000036,
                "tempo": 120.0
            },
            {
                "start_time": 14.152272727272727,
                "end_time": 14.238636363636363,
                "pitch": 37,
                "velocity": 64,
                "duration": 0.08636363636363598,
                "tempo": 120.0
            },
            {
                "start_time": 14.238636363636363,
                "end_time": 14.288636363636362,
                "pitch": 32,
                "velocity": 64,
                "duration": 0.049999999999998934,
                "tempo": 120.0
            },
            {
                "start_time": 10.427272727272726,
                "end_time": 14.306818181818182,
                "pitch": 26,
                "velocity": 64,
                "duration": 3.8795454545454557,
                "tempo": 120.0
            },
            {
                "start_time": 14.288636363636362,
                "end_time": 14.306818181818182,
                "pitch": 35,
                "velocity": 64,
                "duration": 0.01818181818181941,
                "tempo": 120.0
            },
            {
                "start_time": 14.306818181818182,
                "end_time": 14.322727272727272,
                "pitch": 38,
                "velocity": 64,
                "duration": 0.01590909090909065,
                "tempo": 120.0
            },
            {
                "start_time": 14.322727272727272,
                "end_time": 14.34090909090909,
                "pitch": 40,
                "velocity": 64,
                "duration": 0.018181818181817633,
                "tempo": 120.0
            },
            {
                "start_time": 14.34090909090909,
                "end_time": 14.39090909090909,
                "pitch": 42,
                "velocity": 64,
                "duration": 0.05000000000000071,
                "tempo": 120.0
            },
            {
                "start_time": 14.39090909090909,
                "end_time": 14.409090909090908,
                "pitch": 46,
                "velocity": 64,
                "duration": 0.018181818181817633,
                "tempo": 120.0
            },
            {
                "start_time": 14.409090909090908,
                "end_time": 14.495454545454544,
                "pitch": 37,
                "velocity": 64,
                "duration": 0.08636363636363598,
                "tempo": 120.0
            },
            {
                "start_time": 14.497727272727271,
                "end_time": 14.645454545454545,
                "pitch": 44,
                "velocity": 64,
                "duration": 0.14772727272727337,
                "tempo": 120.0
            },
            {
                "start_time": 14.647727272727272,
                "end_time": 14.73181818181818,
                "pitch": 37,
                "velocity": 64,
                "duration": 0.084090909090909,
                "tempo": 120.0
            },
            {
                "start_time": 14.73181818181818,
                "end_time": 14.897727272727272,
                "pitch": 46,
                "velocity": 64,
                "duration": 0.165909090909091,
                "tempo": 120.0
            },
            {
                "start_time": 14.899999999999999,
                "end_time": 14.968181818181817,
                "pitch": 37,
                "velocity": 64,
                "duration": 0.06818181818181834,
                "tempo": 120.0
            },
            {
                "start_time": 14.968181818181817,
                "end_time": 15.131818181818181,
                "pitch": 44,
                "velocity": 64,
                "duration": 0.16363636363636402,
                "tempo": 120.0
            },
            {
                "start_time": 15.131818181818181,
                "end_time": 15.213636363636363,
                "pitch": 37,
                "velocity": 64,
                "duration": 0.08181818181818201,
                "tempo": 120.0
            },
            {
                "start_time": 15.213636363636363,
                "end_time": 15.361363636363636,
                "pitch": 39,
                "velocity": 64,
                "duration": 0.14772727272727337,
                "tempo": 120.0
            },
            {
                "start_time": 15.361363636363636,
                "end_time": 15.445454545454545,
                "pitch": 37,
                "velocity": 64,
                "duration": 0.084090909090909,
                "tempo": 120.0
            },
            {
                "start_time": 15.445454545454545,
                "end_time": 15.459090909090909,
                "pitch": 34,
                "velocity": 64,
                "duration": 0.013636363636363669,
                "tempo": 120.0
            }
        ]
    }
}